<svg id="Layer_1" data-name="Layer 1" xmlns="http://www.w3.org/2000/svg" viewBox="0 0 288 288"><defs><style>.cls-1{fill:#71c7b1;}.cls-2{fill:#2b3b51;}</style></defs><path class="cls-1" d="M245.94,118a8,8,0,0,1-5.66-2.34l-21-21a16.36,16.36,0,0,0-23.05,0l-13.64,13.64a32.29,32.29,0,0,1-45.67,0L123.27,94.68a16.36,16.36,0,0,0-23,0l-21,21A8,8,0,0,1,67.9,104.37l21-21c12-12.52,33.65-12.53,45.67,0L148.22,97a16.28,16.28,0,0,0,23.05,0l13.64-13.64c12-12.52,33.65-12.53,45.67,0l21,21C256.63,109.28,252.92,118.15,245.94,118Z"/><path class="cls-1" d="M49.79,110.15A7.88,7.88,0,0,1,41.91,118c-10.44-.38-10.44-15.38,0-15.76A7.88,7.88,0,0,1,49.79,110.15Z"/><path class="cls-2" d="M245.94,214a8,8,0,0,1-5.66-2.34l-21-21a16.36,16.36,0,0,0-23.05,0l-13.64,13.64a32.29,32.29,0,0,1-45.67,0l-13.64-13.64a16.36,16.36,0,0,0-23,0l-21,21A8,8,0,0,1,67.9,200.37l21-21c12-12.52,33.65-12.53,45.67,0L148.22,193a16.28,16.28,0,0,0,23.05,0l13.64-13.64c12-12.52,33.65-12.53,45.67,0l21,21C256.63,205.28,252.92,214.15,245.94,214Z"/><path class="cls-2" d="M245.94,166.09a8,8,0,0,1-5.66-2.35l-21-21a16.38,16.38,0,0,0-23.05,0l-13.64,13.64a32.29,32.29,0,0,1-45.67,0l-13.64-13.64a16.38,16.38,0,0,0-23,0l-21,21A8,8,0,0,1,67.9,152.43l21-21c12-12.53,33.65-12.53,45.67,0l13.64,13.64a16.31,16.31,0,0,0,23.05,0l13.64-13.64c12-12.53,33.65-12.53,45.67,0l21,21C256.63,157.34,252.92,166.21,245.94,166.09Z"/><path class="cls-2" d="M49.79,206.15A7.88,7.88,0,0,1,41.91,214c-10.44-.38-10.44-15.38,0-15.76A7.88,7.88,0,0,1,49.79,206.15Z"/><path class="cls-2" d="M49.79,158.15A7.88,7.88,0,0,1,41.91,166c-10.44-.38-10.44-15.38,0-15.76A7.88,7.88,0,0,1,49.79,158.15Z"/></svg>