<svg id="Icon" xmlns="http://www.w3.org/2000/svg" width="64" height="64" viewBox="0 0 64 64">
  <defs>
    <style>
      .cls-1 {
        fill: #ffd67b;
      }

      .cls-2 {
        fill: #fff;
      }

      .cls-3 {
        fill: #bde9ff;
      }

      .cls-4 {
        fill: #0098e3;
      }

      .cls-5 {
        fill: #e89b00;
      }
    </style>
  </defs>
  <g>
    <path class="cls-1" d="M29.29,29.05s-14-22-2.81-24.74S34.91,17.24,29.29,29.05Z"/>
    <path class="cls-1" d="M29.24,28.83S3.73,23.18,9.76,13.32,24.87,16.51,29.24,28.83Z"/>
    <path class="cls-1" d="M29.05,28.71s-22,14-24.74,2.81S17.24,23.09,29.05,28.71Z"/>
    <path class="cls-1" d="M28.83,28.76S23.18,54.27,13.32,48.24,16.51,33.13,28.83,28.76Z"/>
    <path class="cls-1" d="M28.71,29s14,22,2.81,24.74S23.09,40.76,28.71,29Z"/>
    <path class="cls-1" d="M28.76,29.17s25.51,5.65,19.48,15.51S33.13,41.49,28.76,29.17Z"/>
    <path class="cls-1" d="M29,29.29s22-14,24.74-2.81S40.76,34.91,29,29.29Z"/>
    <path class="cls-1" d="M29.17,29.24S34.82,3.73,44.68,9.76,41.49,24.87,29.17,29.24Z"/>
  </g>
  <path class="cls-2" d="M58,32.66a6.68,6.68,0,0,0-9.44.06L39.81,41.6h0l-6.88,7A6.68,6.68,0,1,0,42.43,58L50.25,50h0l7.82-7.92A6.67,6.67,0,0,0,58,32.66Z"/>
  <g>
    <path class="cls-3" d="M49.63,51.24l8.5-8.61a6.48,6.48,0,0,0-.06-9.17h0a6.49,6.49,0,0,0-9.17.06l-8.5,8.62Z"/>
    <path class="cls-4" d="M41.31,41.21,33.72,48.9a6.49,6.49,0,0,0,.06,9.17h0A6.48,6.48,0,0,0,43,58l7.59-7.69Z"/>
  </g>
  <circle class="cls-5" cx="29" cy="29" r="8"/>
</svg>
