<svg id="Icon" xmlns="http://www.w3.org/2000/svg" width="64" height="64" viewBox="0 0 64 64">
  <defs>
    <style>
      .cls-1 {
        fill: #34b4ff;
      }

      .cls-2 {
        fill: #0098e3;
      }

      .cls-3 {
        fill: #ffd67b;
      }

      .cls-4 {
        fill: #818cb0;
      }

      .cls-5 {
        fill: #eff1f4;
      }

      .cls-6 {
        fill: #dfe3e8;
      }
    </style>
  </defs>
  <g>
    <path class="cls-1" d="M48.36,54.78,34.19,59.64a6.84,6.84,0,0,1-4.38,0L15.64,54.78a7.52,7.52,0,0,1-5.21-7.05h0A10.82,10.82,0,0,1,21.49,37.18h21A10.82,10.82,0,0,1,53.57,47.73h0A7.52,7.52,0,0,1,48.36,54.78Z"/>
    <path class="cls-2" d="M35.06,37.18H28.94A1.36,1.36,0,0,0,27.65,39l2.19,6.32a2.29,2.29,0,0,0,4.32,0L36.35,39A1.36,1.36,0,0,0,35.06,37.18Z"/>
    <path class="cls-3" d="M32,4a14.93,14.93,0,0,0-13.63,8.85H45.63A14.93,14.93,0,0,0,32,4Z"/>
    <path class="cls-3" d="M17.07,18.93v6.64a14.93,14.93,0,0,0,29.86,0V18.93c0-.19,0-.37,0-.55H17.1C17.09,18.56,17.07,18.74,17.07,18.93Z"/>
    <path class="cls-4" d="M18.37,12.85a14.78,14.78,0,0,0-1.27,5.53H46.9a14.78,14.78,0,0,0-1.27-5.53Z"/>
    <g>
      <circle class="cls-5" cx="32" cy="15.61" r="6.69"/>
      <path class="cls-6" d="M32,9.42a6.19,6.19,0,1,1-6.19,6.19A6.2,6.2,0,0,1,32,9.42m0-1a7.19,7.19,0,1,0,7.19,7.19A7.19,7.19,0,0,0,32,8.42Z"/>
    </g>
  </g>
</svg>
