<svg id="Icon" xmlns="http://www.w3.org/2000/svg" width="64" height="64" viewBox="0 0 64 64">
  <defs>
    <style>
      .cls-1 {
        fill: #c0c7d2;
      }

      .cls-2 {
        fill: #9eacc3;
      }

      .cls-3 {
        fill: #d1d6dd;
      }
    </style>
  </defs>
  <g>
    <path class="cls-1" d="M20.23,32.69l-3.55,3.79-3.9,4.15-3.72,4-3.77,4a2.2,2.2,0,0,0,.1,3.12l7.66,7.18a2.21,2.21,0,0,0,3.11-.1l7.92-8.38,3.76-4L31.92,42l3.72-4,4-4.28L24.06,28.6Z"/>
    <polygon class="cls-1" points="33.35 18.7 27.51 24.93 43.05 30.15 44.22 28.9 33.35 18.7"/>
    <polygon class="cls-2" points="24.06 28.6 39.65 33.77 43.05 30.15 27.51 24.93 24.06 28.6"/>
  </g>
  <path class="cls-3" d="M49.51,17.55,46,14l2.85-4.75a18,18,0,0,0-25.29.94L54.16,38.93a18,18,0,0,0,.22-24.36Z"/>
  <polygon class="cls-2" points="27.84 46.36 24.08 50.38 9.06 44.6 12.78 40.63 27.84 46.36"/>
  <polygon class="cls-2" points="35.64 38.05 31.92 42.02 16.68 36.48 20.23 32.69 35.64 38.05"/>
</svg>
