<svg id="Icon" xmlns="http://www.w3.org/2000/svg" width="64" height="64" viewBox="0 0 64 64">
  <defs>
    <style>
      .cls-1 {
        fill: #caeaf1;
      }

      .cls-2 {
        fill: #d6e3ff;
      }

      .cls-3 {
        fill: #b387ff;
      }

      .cls-4 {
        fill: #ebdcff;
      }
    </style>
  </defs>
  <g>
    <path class="cls-1" d="M23,26S10,44,10,51a7,7,0,0,0,7,7H47a7,7,0,0,0,7-7c0-7-13-25-13-25"/>
    <path class="cls-2" d="M41,26V11h.5a2.5,2.5,0,0,0,0-5h-19a2.5,2.5,0,0,0,0,5H23V26S10,44,10,51a7,7,0,0,0,7,7H47a7,7,0,0,0,7-7C54,44,41,26,41,26Z"/>
    <path class="cls-3" d="M43.81,34c3.4,5.08,8.07,12.7,8.07,16.31A5.69,5.69,0,0,1,46.19,56H17.81a5.68,5.68,0,0,1-5.68-5.69C12.13,46.7,20,34,20.19,34,29,34,29,37,36,37,40,37,43.81,34,43.81,34Z"/>
    <circle class="cls-4" cx="24" cy="50" r="2"/>
    <circle class="cls-4" cx="28.5" cy="45.5" r="1.5"/>
    <circle class="cls-4" cx="23.5" cy="38.5" r="1.5"/>
  </g>
</svg>
