<svg id="Icon" xmlns="http://www.w3.org/2000/svg" width="64" height="64" viewBox="0 0 64 64">
  <defs>
    <style>
      .cls-1 {
        fill: #fdc7c7;
      }

      .cls-2 {
        fill: #fb7373;
      }
    </style>
  </defs>
  <g>
    <g>
      <path class="cls-1" d="M34.82,38.32,49.57,23.37a11.26,11.26,0,0,0-.1-15.92h0a11.26,11.26,0,0,0-15.92.1l-14.76,15Z"/>
      <path class="cls-2" d="M20.37,20.91,7.2,34.26a11.26,11.26,0,0,0,.1,15.92h0a11.26,11.26,0,0,0,15.92-.11L36.4,36.72Z"/>
    </g>
    <g>
      <path class="cls-2" d="M59.88,48.86a11,11,0,0,1-22,.14Z"/>
      <path class="cls-2" d="M37.88,48.14a11,11,0,0,1,22-.14Z"/>
      <polygon class="cls-1" points="60 48.82 38.01 49 38 47.18 59.99 47 60 48.82"/>
    </g>
  </g>
</svg>
