<svg id="Icon" xmlns="http://www.w3.org/2000/svg" width="64" height="64" viewBox="0 0 64 64">
  <defs>
    <style>
      .cls-1 {
        fill: #fb7373;
      }

      .cls-2 {
        fill: #fff;
      }
    </style>
  </defs>
  <path class="cls-1" d="M52.23,60H11.77a6.9,6.9,0,0,1-6.59-8.07l4-27A6.78,6.78,0,0,1,15.72,19H48.28a6.78,6.78,0,0,1,6.59,5.94l4,27A6.9,6.9,0,0,1,52.23,60Z"/>
  <rect class="cls-2" x="28" y="28" width="9" height="24"/>
  <rect class="cls-2" x="28" y="27.5" width="9" height="25" transform="translate(72.5 7.5) rotate(90)"/>
  <path class="cls-1" d="M46.22,22.22H18.78V13a8.68,8.68,0,0,1,8.67-8.67h10.1A8.68,8.68,0,0,1,46.22,13Zm-24-3.44H42.78V13a5.24,5.24,0,0,0-5.23-5.23H27.45A5.24,5.24,0,0,0,22.22,13Z"/>
</svg>
