<svg id="Icon" xmlns="http://www.w3.org/2000/svg" width="64" height="64" viewBox="0 0 64 64">
  <defs>
    <style>
      .cls-1 {
        fill: #1eb37a;
      }

      .cls-2 {
        fill: #fff;
      }

      .cls-3 {
        fill: #34b4ff;
      }
    </style>
  </defs>
  <circle class="cls-1" cx="18.5" cy="19.5" r="14.5"/>
  <g>
    <path class="cls-2" d="M28.4,27a3,3,0,0,1-.62,1.8A3.33,3.33,0,0,1,26.17,30l-6.08,2a3,3,0,0,1-1.88,0l-6.08-2A3.16,3.16,0,0,1,9.9,27a4.24,4.24,0,0,1,1.39-3.12,4.9,4.9,0,0,1,3.35-1.29h.49a6.34,6.34,0,0,0,2.29,1.15,6.57,6.57,0,0,0,1.73.23,6.54,6.54,0,0,0,4-1.38h.48A4.59,4.59,0,0,1,28.4,27Z"/>
    <path class="cls-2" d="M25.55,14.24V17a6.17,6.17,0,0,1-2.38,4.86A6.38,6.38,0,0,1,20.87,23a6.06,6.06,0,0,1-1.72.23A6.18,6.18,0,0,1,17.42,23a6.34,6.34,0,0,1-2.29-1.15A6.18,6.18,0,0,1,12.74,17V14.24a1.64,1.64,0,0,1,0-.22,6.16,6.16,0,0,1,.54-2.32A6.47,6.47,0,0,1,25,11.7,6,6,0,0,1,25.54,14C25.54,14.09,25.55,14.17,25.55,14.24Z"/>
  </g>
  <circle class="cls-3" cx="39.25" cy="39.25" r="20.25"/>
  <g>
    <path class="cls-2" d="M52.2,50.77a4.22,4.22,0,0,1-.87,2.54,4.73,4.73,0,0,1-2.27,1.62l-8.57,2.86a4.25,4.25,0,0,1-2.64,0l-8.57-2.86a4.45,4.45,0,0,1-3.14-4.16,6,6,0,0,1,1.95-4.39,6.9,6.9,0,0,1,4.73-1.82h.69a9.2,9.2,0,0,0,11.32,0h.69A6.46,6.46,0,0,1,52.2,50.77Z"/>
    <path class="cls-2" d="M48.19,32.8v3.91a8.69,8.69,0,0,1-3.36,6.85,9,9,0,0,1-3.23,1.62,9.2,9.2,0,0,1-8.09-1.62,8.7,8.7,0,0,1-3.37-6.85V32.8c0-.11,0-.22,0-.32a8.57,8.57,0,0,1,.77-3.26,9.11,9.11,0,0,1,16.47,0,8.39,8.39,0,0,1,.77,3.26C48.18,32.58,48.19,32.69,48.19,32.8Z"/>
  </g>
</svg>
