<svg id="Icon" xmlns="http://www.w3.org/2000/svg" width="64" height="64" viewBox="0 0 64 64">
  <defs>
    <style>
      .cls-1 {
        fill: #d1d6dd;
      }

      .cls-2 {
        fill: #00a6f7;
      }

      .cls-3 {
        fill: #8e9fba;
      }
    </style>
  </defs>
  <g>
    <path class="cls-1" d="M51.55,6.21a8.61,8.61,0,0,0-1.93-.52c-2.73-.35-1.59.2-2.24-.06A.32.32,0,0,0,47,5.8a.24.24,0,0,0,0,.15c.07,1.15.17,2.07.38,2,.48-.26,1.41,0,1.91-.06,2.42-.1,3.2,1.15,2.83,3.54a37.75,37.75,0,0,1-4.8,13.35,32.45,32.45,0,0,1-3.89,5.56c-1.85,2-3.17,1.93-5.1.11l-.15-.15c-4.88-5-7.61-11.86-8.79-18.64-.43-2.45.39-3.4,2.88-3.62a2.34,2.34,0,0,1,.95.14c.06-.78.08-1.57.07-2.36-.68.28-1.38,0-2.13.2-3.42.76-4.54,2.61-4,6.06.91,5.85,3.77,11,6.13,16.24a10.92,10.92,0,0,0,5,5.15,2.12,2.12,0,0,1,.43.28,5.33,5.33,0,0,1,4.12.45,2.83,2.83,0,0,1,1.09-1,12.79,12.79,0,0,0,4.88-5.52,71.52,71.52,0,0,0,2.93-6.95A54,54,0,0,0,53.51,15a24.19,24.19,0,0,0,.76-4.54A4.27,4.27,0,0,0,51.55,6.21Z"/>
    <path class="cls-2" d="M53,18.25a1.66,1.66,0,0,0-3.21-.69c-2.48,6.76-6.74,14.06-9.3,14.06-2.23,0-6.61-7.29-9.3-14.1A1.71,1.71,0,0,0,28,18.78c1.35,3.41,5.78,13.74,10.73,15.86-1.05,4.55.64,7.32,2.14,9.77C42,46.27,43,47.87,43,50.28c-.13,5.23-5.43,6.3-13.35,6.3-4.14,0-9.26-1.36-11.34-4.4C17.11,50.51,17,48.52,18,46.1A12.59,12.59,0,0,1,21.06,42C23.5,39.48,26.53,36.41,23,30.5A1.71,1.71,0,0,0,20,32.27c2.21,3.64,1,4.85-1.39,7.27a15.62,15.62,0,0,0-3.87,5.32c-1.68,4.37-.56,7.44.68,9.25,3,4.35,9.49,5.89,14.16,5.89,4.95,0,16.53,0,16.77-9.63C46.45,47,45,44.65,43.8,42.63c-1.43-2.33-2.56-4.16-1.65-7.59a2,2,0,0,0,.06-.34c5.46-2.1,9.89-13.49,10.79-16Z"/>
    <path class="cls-3" d="M26.49,25.64a6.42,6.42,0,1,1-6.09-4.35h0A6.34,6.34,0,0,1,26.49,25.64Z"/>
    <path class="cls-3" d="M36.21,7a2.6,2.6,0,0,1-2.6,2.6h0c-1,0-.91-1.16-.91-2.6s-.24-2.6.91-2.6A2.61,2.61,0,0,1,36.21,7Z"/>
    <path class="cls-3" d="M45,6.56A2.56,2.56,0,0,1,47.6,4h0c1,0,.89,1.18.87,2.61,0,1.67.29,3-1.62,2.48A2.54,2.54,0,0,1,45,6.57Z"/>
  </g>
</svg>
