<?xml version="1.0" encoding="UTF-8" standalone="no"?>
<!-- Created with Inkscape (http://www.inkscape.org/) -->

<svg
   width="172.66693mm"
   height="19.869011mm"
   viewBox="0 0 172.66693 19.869011"
   version="1.1"
   id="svg5"
   xml:space="preserve"
   inkscape:version="1.2.1 (9c6d41e4, 2022-07-14)"
   sodipodi:docname="PRN_Banner_Logo.svg"
   inkscape:dataloss="true"
   xmlns:inkscape="http://www.inkscape.org/namespaces/inkscape"
   xmlns:sodipodi="http://sodipodi.sourceforge.net/DTD/sodipodi-0.dtd"
   xmlns="http://www.w3.org/2000/svg"
   xmlns:svg="http://www.w3.org/2000/svg"><sodipodi:namedview
     id="namedview7"
     pagecolor="#ffffff"
     bordercolor="#000000"
     borderopacity="0.25"
     inkscape:showpageshadow="2"
     inkscape:pageopacity="0.0"
     inkscape:pagecheckerboard="0"
     inkscape:deskcolor="#d1d1d1"
     inkscape:document-units="mm"
     showgrid="false"
     inkscape:zoom="1.14"
     inkscape:cx="407.01754"
     inkscape:cy="173.24561"
     inkscape:window-width="1390"
     inkscape:window-height="1205"
     inkscape:window-x="584"
     inkscape:window-y="108"
     inkscape:window-maximized="0"
     inkscape:current-layer="layer1" /><defs
     id="defs2" /><g
     inkscape:label="Layer 1"
     inkscape:groupmode="layer"
     id="layer1"
     transform="translate(-17.665347,-25.597495)"><g
       id="g6958"><rect
         style="fill:#1953a4;fill-opacity:1;stroke:#1953a4;stroke-width:0.001;stroke-dasharray:none;stroke-opacity:1;paint-order:stroke markers fill"
         id="rect1907"
         width="19.385"
         height="19.379999"
         x="17.68"
         y="25.613001"
         inkscape:export-filename="rect1907.svg"
         inkscape:export-xdpi="96"
         inkscape:export-ydpi="96" /><g
         aria-label="P"
         transform="matrix(0.36808457,0,0,0.41364273,43.541475,28.391929)"
         id="text2073"
         style="font-size:42.8327px;font-family:'Trajan Pro';-inkscape-font-specification:'Trajan Pro, Normal';fill:#ffffff;fill-opacity:1;stroke:none;stroke-width:0.862431"><path
           d="m -68.456551,13.220795 c 0.01834,2.268624 -0.01764,6.967438 -0.07824,9.083709 -0.03582,1.251065 -0.91553,1.59871 -1.764011,2.054275 -1.05e-4,0.529631 -4.82e-4,0.728918 -6.09e-4,1.17631 1.28498,0 4.25801,-0.0049 4.386508,-0.0049 0.214163,0 2.948819,-3.4e-4 5.304618,-3.4e-4 -0.09285,-0.521346 -0.890534,-0.765322 -2.090824,-1.413227 -0.562953,-0.303877 -1.281534,-1.991633 -1.309246,-3.070346 -0.07583,-2.95172 -0.06938,-5.470042 -0.06938,-7.937909 V -4.4958538 c 0,-0.428327 0.0079,-0.762466 0.0079,-0.762466 0,0 2.174423,-0.279373 3.040358,-0.308351 1.031625,-0.03452 3.913481,-0.151492 6.472604,2.559415 2.559122,2.71090699 2.27823,6.4146497 1.884078,7.725814 -0.394152,1.3111643 -1.881538,3.2625519 -2.844972,3.9171479 -0.963435,0.654596 -1.862411,1.0359956 -3.359177,1.24289 -1.496767,0.2068949 -3.412001,-0.023882 -3.403676,0.2261479 0.02155,0.647266 2.356849,0.531491 3.027364,0.507821 0.670516,-0.02367 1.976921,0.0075 3.144765,-0.333939 1.167844,-0.3413988 3.332494,-1.4925958 4.397591,-2.6268058 1.895335,-2.018322 3.112969,-3.864086 3.148861,-6.520499 0.04107,-3.039569 -0.444482,-4.44153 -1.702238,-5.822209 -1.093796,-1.0281485 -2.048493,-1.7565988 -4.744156,-2.0531377 -0.867648,-0.00591 -1.955473,-0.00815 -3.274611,-0.00815 -1.970304,0 -6.201979,0.00343 -7.546706,-2.512e-4 -1.344726,-0.00368 -0.01779,-0.00575 -4.467438,0.00233 0.0012,0.3537653 -6.49e-4,0.2735701 -4.73e-4,0.6246381 0.427158,0.2619053 0.989472,0.586534 1.287609,0.9117073 0.46051,0.502271 0.541875,1.648131 0.539481,2.570302 -0.0057,2.20793799 -0.09501,2.37774099 -0.04952,8.004236 z"
           id="path386"
           sodipodi:nodetypes="ssccscsssscszzzzszzssccszccssss"
           style="fill:#ffffff;fill-opacity:1;stroke:none" /></g><g
         aria-label="R"
         transform="matrix(0.39563776,0,0,0.39064801,44.41624,28.391929)"
         id="text1004"
         style="font-size:45.3539px;font-family:'Trajan Pro';-inkscape-font-specification:'Trajan Pro, Normal';fill:#ffffff;fill-opacity:1;stroke:none;stroke-width:0.913197"><path
           d="m -46.381766,13.353976 c -0.01223,2.243212 -0.08492,8.782844 -0.177789,9.742586 -0.06447,0.666209 -1.38779,2.412261 -2.147927,2.345646 -1.929922,1.199555 -0.250199,1.056622 1.010404,1.114005 1.56572,0.102316 3.092726,0.0318 3.822444,0.01896 0.602543,-0.0106 5.812522,0.493212 5.872411,0.229065 0.112418,-0.495834 -1.00092,-0.366093 -2.034728,-0.813263 -0.519795,-0.367442 -1.521008,-1.47994 -1.85299,-2.447962 -0.22677,-1.904864 -0.3585,-3.752424 -0.27575,-8.105592 l 0.04898,-2.576669 c 0.0043,-0.226728 1.119295,-0.114803 1.346062,-0.114803 1.615474,0.03695 3.414671,-0.0098 4.669131,0.784495 1.726031,1.092925 3.362185,3.349799 5.267049,5.844264 2.340272,3.599965 4.079105,5.448553 5.926856,6.667023 1.117869,0.737161 2.975123,1.601086 4.974806,1.602729 0.538764,4.43e-4 1.015339,-0.02394 1.448669,-0.06337 0.0068,-1.750116 0.0061,-0.338605 0.006,-1.745326 -0.536763,-0.0819 -2.186195,-0.433235 -4.635305,-3.018408 -2.630527,-2.811942 -5.714592,-6.848439 -9.433612,-11.610598 4.081851,-3.7643743 5.487822,-7.1205633 5.487822,-10.47675125 0,-3.12942005 -1.995571,-5.35176105 -3.129419,-6.16813105 -1.359478,-0.9747199 -2.088979,-1.4686689 -2.983134,-1.7083006 -1.042167,-0.00414 -15.502616,0.00407 -17.289252,0.00165 0.421026,0.179659 1.753492,0.3306459 2.544266,1.0370949 0.547976,0.489542 1.23546,1.215048 1.391933,2.04428 0.06419,1.523168 0.184564,9.800946 0.183043,10.079972 z m 4.265055,-18.5199823 c 0,-0.272123 0.01401,-0.468116 0.01401,-0.468116 0,0 2.689404,-0.615043 4.024277,-0.348254 3.971223,0.793694 6.376818,4.542477 6.621719,8.22748 0.22856,3.439116 -1.346638,6.936502 -2.829341,7.530166 -1.540856,0.6169493 -5.307973,0.7932893 -7.513187,0.4336973 -0.255776,-0.06767 -0.317477,-0.3174773 -0.317477,-0.5442473 z"
           id="path182"
           sodipodi:nodetypes="ssccssccsscscssccccscccscssscssscss"
           style="fill:#ffffff;fill-opacity:1;stroke:none" /></g><g
         aria-label="N"
         transform="matrix(0.38001185,0,0,0.4006599,13.218138,21.430173)"
         id="text1110"
         style="font-size:38.0513px;font-family:'Trajan Pro';-inkscape-font-specification:'Trajan Pro, Normal';fill:#ffffff;fill-opacity:1;stroke:none;stroke-width:0.940287"><path
           d="m 22.414401,37.274291 c 1.243139,1.514945 5.81269,6.05318 10.379623,10.833775 4.364789,4.318207 6.961266,6.91021 8.199807,7.991161 1.238541,1.080951 2.397343,1.975644 3.24444,2.57881 0.07572,0.05392 0.15735,0.114427 0.242633,0.1764 0.56385,-0.0034 0.950635,-0.0019 1.504297,-0.0026 0.261974,-1.121488 0.281445,-3.783724 0.358758,-5.638495 0.07731,-1.854772 0.01971,-15.78434 0.01971,-17.515146 0,-1.730806 -0.02084,-2.516081 0.363787,-2.784029 0.384623,-0.267948 1.336578,-0.485128 0.505465,-1.36189 -1.647956,0.263864 -2.010206,0.262537 -2.844798,0.275326 -0.48706,0.0075 -1.48186,-0.155409 -2.774993,-0.25383 -0.755765,-0.05752 -1.62804,-0.10802 -1.623384,0.09869 0.0024,0.1058 0.285853,0.330921 1.047234,0.45307 0.838447,0.134514 1.707331,0.500405 1.949097,0.662222 0.16803,0.112465 0.437192,0.240074 0.5582,1.233763 0.151509,1.244165 0.137256,3.585901 0.162047,5.979779 0.04459,4.305819 0.06233,13.759575 0.06233,13.759575 -0.4581,-0.603937 -5.718922,-6.1178 -9.196404,-9.396197 C 31.094764,41.086289 24.086012,34.19445 23.515242,33.547578 c -0.380513,-0.380513 -2.632825,-2.64806 -2.937235,-2.64806 -0.304411,0 -0.368406,1.366359 -0.438525,3.182891 l -0.02043,18.736025 c -0.0015,1.355312 0.0063,3.496141 -0.2831,4.102219 -0.24455,0.512228 -0.663553,0.840682 -1.010746,1.09283 -0.600027,0.435769 -0.84232,0.511275 -1.605676,0.849836 3.039255,-0.0011 7.276282,0.0021 8.555603,0.002 0.100344,-0.378259 -0.624145,-0.30993 -1.057851,-0.414193 -0.576724,-0.138643 -1.089876,-0.175886 -1.403964,-0.600481 -0.393603,-0.532085 -0.518224,-1.562119 -0.561263,-2.903563 0,0 -0.104046,-4.500998 -0.132072,-7.159344 -0.02803,-2.658346 -0.214145,-6.315221 -0.249008,-7.786997 -0.03486,-1.471775 0.04343,-2.726411 0.04343,-2.726411 z"
           id="path383"
           sodipodi:nodetypes="cczscczzzcsssssssczcscsssccssszzcc"
           style="fill:#ffffff;fill-opacity:1;stroke:none" /></g><g
         aria-label="&amp;"
         id="text442"
         style="font-weight:bold;font-size:5.64444px;font-family:'Trajan Pro';-inkscape-font-specification:'Trajan Pro, Bold';fill:#ffffff;stroke-width:0.79375"
         transform="matrix(0.39019932,0,0,0.39019932,13.911529,21.165112)"><path
           d="m 25.991961,31.656869 c 0,0.491066 0.361244,1.247421 1.569154,1.247421 0.773288,0 1.151466,-0.344311 1.337732,-0.513644 0.485422,0.372533 0.688622,0.434622 1.332088,0.434622 h 0.434622 c 0.124178,0 0.169333,-0.01693 0.169333,-0.0508 0,-0.04516 -0.02822,-0.0508 -0.07902,-0.0508 -0.112889,0 -0.423333,-0.09031 -0.603955,-0.197556 -0.1524,-0.09031 -0.4064,-0.242711 -0.784577,-0.553155 0.321733,-0.378177 0.553155,-0.90311 0.553155,-1.337732 0,-0.06773 -0.08467,-0.1016 -0.191911,-0.112889 -0.316089,-0.03387 -0.541866,-0.03951 -0.677333,-0.03951 -0.04516,0 -0.09031,0.01129 -0.09031,0.05644 0,0.03387 0.03387,0.04516 0.06773,0.04516 0.08467,0 0.203199,0.01693 0.276577,0.08467 0.08467,0.07338 0.107244,0.174977 0.107244,0.259644 0,0.344311 -0.158044,0.711199 -0.270933,0.869244 -0.107244,-0.09596 -0.80151,-0.722489 -0.993421,-0.942622 -0.451555,-0.502355 -0.936977,-0.95391 -0.936977,-1.484488 0,-0.479777 0.366888,-0.643466 0.603955,-0.643466 0.316089,0 0.513644,0.118533 0.626533,0.254 0.124177,0.146755 0.163689,0.327377 0.163689,0.474133 0,0.08467 0.0056,0.107244 0.03951,0.107244 0.03387,0 0.05644,-0.01129 0.06773,-0.09596 0.01693,-0.08467 0.06209,-0.536222 0.06209,-0.722489 0,-0.06773 0,-0.112888 -0.09596,-0.146755 -0.1524,-0.06209 -0.406399,-0.118533 -0.682977,-0.118533 -0.982133,0 -1.377243,0.592666 -1.371599,1.038577 0.0056,0.254 0.0508,0.485422 0.287866,0.80151 -0.338666,0.163689 -0.920043,0.677333 -0.920043,1.337733 z m 1.761065,0.891821 c -0.587022,0 -1.083732,-0.451555 -1.083732,-1.15711 0,-0.451555 0.197555,-0.716844 0.389466,-0.857955 0.09596,0.141111 0.4572,0.547511 0.603955,0.705555 0.146755,0.158044 0.688622,0.688622 1.015999,0.970844 -0.118533,0.112888 -0.491066,0.338666 -0.925688,0.338666 z"
           id="path444" /></g><text
         xml:space="preserve"
         style="font-style:normal;font-variant:normal;font-weight:500;font-stretch:normal;font-size:8.80984px;font-family:'Minion Pro';-inkscape-font-specification:'Minion Pro, Medium';font-variant-ligatures:normal;font-variant-caps:normal;font-variant-numeric:normal;font-variant-east-asian:normal;letter-spacing:-1.0324px;fill:#1953a4;fill-opacity:1;stroke:#1953a4;stroke-width:0.02;stroke-dasharray:none;stroke-opacity:1;paint-order:stroke markers fill"
         x="38.754604"
         y="37.825531"
         id="text1960"><tspan
           sodipodi:role="line"
           id="tspan1958"
           style="font-style:normal;font-variant:normal;font-weight:500;font-stretch:normal;font-size:14.1783px;font-family:'Minion Pro';-inkscape-font-specification:'Minion Pro, Medium';font-variant-ligatures:normal;font-variant-caps:normal;font-variant-numeric:normal;font-variant-east-asian:normal;fill:#1953a4;fill-opacity:1;stroke:#1953a4;stroke-width:0.02;stroke-dasharray:none;stroke-opacity:1;paint-order:stroke markers fill"
           x="38.754604"
           y="37.825531"
           dx="0">Princeton &amp; Rutgers Neurology</tspan></text><text
         xml:space="preserve"
         style="font-style:normal;font-variant:normal;font-weight:500;font-stretch:normal;font-size:14.1783px;font-family:'Minion Pro';-inkscape-font-specification:'Minion Pro, Medium';font-variant-ligatures:normal;font-variant-caps:normal;font-variant-numeric:normal;font-variant-east-asian:normal;letter-spacing:-0.407797px;fill:#1953a4;fill-opacity:1;stroke:#1953a4;stroke-width:0.02;stroke-dasharray:none;stroke-opacity:1;paint-order:stroke markers fill"
         x="121.98303"
         y="44.08754"
         id="text5617"><tspan
           sodipodi:role="line"
           id="tspan5615"
           style="font-style:normal;font-variant:normal;font-weight:500;font-stretch:normal;font-size:5.36848px;font-family:'Minion Pro';-inkscape-font-specification:'Minion Pro, Medium';font-variant-ligatures:normal;font-variant-caps:normal;font-variant-numeric:normal;font-variant-east-asian:normal;stroke:#1953a4;stroke-width:0.02;stroke-dasharray:none;stroke-opacity:1;paint-order:stroke markers fill"
           x="121.98303"
           y="44.08754">A New Jersey Center Of Excellence</tspan></text></g></g></svg>
