<svg xmlns="http://www.w3.org/2000/svg" xmlns:xlink="http://www.w3.org/1999/xlink" id="Layer_1" x="0px" y="0px" viewBox="0 0 94 34.6" style="enable-background:new 0 0 94 34.6;" xml:space="preserve">
<style type="text/css">
	.st0{fill:#FFFFFF;}
	.st1{fill-rule:evenodd;clip-rule:evenodd;fill:#FFFFFF;}
</style>
<g>
	<g>
		<g>
			<path class="st0" d="M88.6,6.1c0-1,0.5-0.8,1.4-0.8H92c0.9,0,1.2,0.2,1.2-0.6c0-0.3,0-0.5-0.3-0.5h-3.7c-0.5,0-0.6-0.3-0.6-0.7     V0.8c0-0.2,0-0.4-0.3-0.4c-0.2,0-0.3,0.2-0.4,0.3c-0.9,1.8-1.9,2.7-3.5,3.7C84.2,4.6,84,4.7,84,5c0,0.4,1,0.3,1.2,0.3     C85.8,5.3,86,5.2,86,6v9.5c0,1.5-0.1,3.4,0.8,4.6c0.6,0.8,1.7,1.2,2.7,1.2c1.3,0,2.5-0.6,3.5-1.4c0.3-0.2,0.7-0.7,0.7-1     c0-0.1-0.1-0.3-0.3-0.3c-0.3,0-1.3,1.3-2.7,1.3c-2.2,0-2.2-2.7-2.2-4.3V6.1L88.6,6.1z"></path>
		</g>
		<path class="st1" d="M19.4,3.8c-0.1-0.1-0.3-0.2-0.4-0.2h-1.2c-0.3,0-0.5,0-0.7,0.2c-0.1,0.2-0.2,0.3-0.3,0.6l-0.3,0.9    c-0.3-0.2-0.7-1.3-3-1.3c-6,0.1-13,7-13.3,13.8c-0.1,1.6,1.1,3.8,3,3.8c3.7,0.1,8.1-5.1,11.3-10.1l0.3-0.4l-0.2,0.8l-2.3,7.5    c-0.3,0.9-0.3,2.3,0.7,2.3c3,0,7.3-5.6,6.4-6.1c-0.5-0.3-1.2,2.2-3.4,3.6c-1,0.6-0.8-0.8-0.6-1.4l3.9-12.8    C19.3,4.4,19.5,4,19.4,3.8L19.4,3.8z M15.9,7.1c-0.5,3-6.2,10-9.4,12c-1.6,1-3.5,0.1-3.4-1.8c0.4-5.7,5.9-11.6,8.9-12.4    C14.9,4.1,16.3,5.2,15.9,7.1L15.9,7.1z"></path>
		<path class="st0" d="M36.3,4.1c0.1-1.4-2.8-2.4-4.9-2.2c-8.3,0.8-13.4,8-13.4,13.3c0.1,4.5,2.3,7.1,6.3,7.5    c5.1,0.4,11.7-7.3,10.1-7c-1,0.2-4.6,5.2-8.7,4.9c-2.6-0.3-4.4-1.5-4.3-5.6c0.1-5.6,5.9-13.1,9.7-11.9c0.9,0.3,1.5,2.5,3.4,2.5    C35.4,5.6,36.2,5,36.3,4.1L36.3,4.1z"></path>
		<path class="st0" d="M51.9,4.1c0.1-1.4-2.8-2.4-4.9-2.2c-8.3,0.8-13.4,8-13.4,13.3c0.1,4.5,2.3,7.1,6.3,7.5    c5.1,0.4,11.7-7.3,10.1-7c-1,0.2-4.6,5.2-8.7,4.9C38.8,20.3,37,19.1,37,15C37.1,9.3,43,1.9,46.7,3.1c0.9,0.3,1.5,2.5,3.4,2.5    C51,5.6,51.9,5,51.9,4.1L51.9,4.1z"></path>
		<path class="st1" d="M63.9,10.7c0.4,0,0.4-0.3,0.4-0.6c0-1.2-0.6-2.8-1.3-3.7C61.8,4.7,59.7,4,57.7,4c-2.5,0-4.8,0.9-6.7,2.5    c-2,1.7-2.7,3.7-2.7,6.2c0,4.6,3.6,8.5,8.5,8.5c2.3,0,4.1-0.6,5.9-2.1c0.3-0.2,1.4-1.2,1.4-1.7c0-0.1-0.1-0.3-0.3-0.3    c-0.5,0-1.9,2.4-5.5,2.4c-4.5,0-7.2-3.6-7.2-7.8c0-1.2,0.4-1.1,1.5-1.1H63.9L63.9,10.7z M52.7,9.8c-0.4,0-1.3,0.1-1.3-0.5    c0-0.6,0.6-1.7,0.9-2.2c1.1-1.6,2.9-2.5,4.8-2.5c1.2,0,2.4,0.3,3.2,1.2c0.5,0.6,1,1.4,1,2.2c0,0.9-0.6,1.3-1.4,1.5    c-1.1,0.3-3.2,0.3-4.3,0.3H52.7L52.7,9.8z"></path>
		<path class="st0" d="M67.7,17c0,1.6,0.3,2.9-1.7,3c-0.4,0-1,0-1,0.5c0,0.3,0.3,0.4,0.5,0.4c1.2,0,2.3-0.1,3.5-0.1    c1.1,0,2.3,0.1,3.5,0.1c0.3,0,0.4-0.1,0.4-0.4c0-0.5-0.7-0.4-1-0.5c-2-0.2-1.7-1.4-1.7-3v-6.2c0-1.5,0.1-2.3,1.2-3.4    c1-1,2.3-1.6,3.7-1.6c1.4,0,2.8,0.6,3.5,1.7c0.7,1,0.7,2.5,0.7,3.7V17c0,1.6,0.3,2.9-1.7,3c-0.4,0-1,0-1,0.5    c0,0.3,0.3,0.4,0.5,0.4c1.2,0,2.3-0.1,3.5-0.1c1.1,0,2.3,0.1,3.5,0.1c0.3,0,0.4-0.1,0.4-0.4c0-0.5-0.7-0.4-1-0.5    c-2-0.2-1.7-1.4-1.7-3v-5.9c0-1.8,0.1-3.6-1.1-5.1c-1-1.3-2.5-2-4.4-2c-3.4,0-5.5,3-6.1,3V4.6c0-0.3,0-0.6-0.3-0.6    c-0.3,0-0.5,0.3-0.7,0.5c-0.6,0.7-2.2,1.7-3.1,1.9c-0.3,0.1-0.9,0.2-0.9,0.6c0,0.2,0.2,0.3,0.4,0.3h0.5c0.3,0,0.9,0,1.1,0.3    c0.4,0.4,0.4,1.9,0.4,2.4V17L67.7,17z"></path>
	</g>
	<g>
		<path class="st0" d="M6.9,25c0.4-0.1,1.1-0.2,1.7-0.2c0.6,0,1.3,0.1,1.8,0.5c0.4,0.3,0.6,0.8,0.6,1.4c0,0.8-0.4,1.5-0.9,1.9    c-0.6,0.4-1.4,0.7-2.2,0.7c-0.2,0-0.5,0-0.7-0.1l-0.5,2.6H5.6L6.9,25z M7.5,28.2c0.2,0,0.4,0.1,0.6,0.1c1,0,1.7-0.7,1.7-1.5    c0-0.7-0.5-1-1.2-1c-0.3,0-0.5,0-0.7,0.1L7.5,28.2z"></path>
		<path class="st0" d="M10.7,31.9l1.4-7.4h1.2l-0.6,3.1h0c0.4-0.5,1-0.9,1.7-0.9c0.7,0,1.3,0.4,1.3,1.4c0,0.3,0,0.6-0.1,0.9    l-0.6,2.9h-1.2l0.5-2.8c0-0.2,0.1-0.4,0.1-0.7c0-0.4-0.2-0.7-0.6-0.7c-0.6,0-1.3,0.7-1.4,1.8l-0.5,2.4H10.7z"></path>
		<path class="st0" d="M17.6,26.8l0.4,2.4c0.1,0.5,0.2,0.9,0.2,1.3h0c0.1-0.3,0.2-0.7,0.5-1.2l1.1-2.5H21l-1.8,3.7    c-0.6,1.2-1.2,2.1-1.8,2.8c-0.6,0.6-1.2,0.8-1.6,0.9l-0.3-1c0.2-0.1,0.6-0.2,0.9-0.4c0.3-0.2,0.7-0.6,0.9-1c0-0.1,0-0.1,0-0.2    l-1-4.7H17.6z"></path>
		<path class="st0" d="M20.8,30.8c0.3,0.1,0.8,0.3,1.2,0.3c0.5,0,0.8-0.3,0.8-0.6c0-0.3-0.2-0.5-0.7-0.8c-0.6-0.3-1-0.7-1-1.3    c0-1,0.8-1.7,2-1.7c0.5,0,1,0.1,1.2,0.3L24,27.9c-0.2-0.1-0.5-0.2-0.9-0.2c-0.5,0-0.8,0.2-0.8,0.6c0,0.3,0.2,0.5,0.7,0.7    c0.5,0.3,1,0.7,1,1.4c0,1.1-0.9,1.7-2.1,1.7c-0.6,0-1.1-0.2-1.4-0.4L20.8,30.8z"></path>
		<path class="st0" d="M24.5,31.9l1-5h1.2l-1,5H24.5z M25.6,25.5c0-0.4,0.3-0.7,0.7-0.7c0.4,0,0.6,0.3,0.6,0.7    c0,0.4-0.3,0.7-0.7,0.7C25.9,26.1,25.6,25.8,25.6,25.5z"></path>
		<path class="st0" d="M30.4,31.7C30.1,31.8,29.6,32,29,32c-1.3,0-2-0.8-2-2c0-1.8,1.3-3.3,3.2-3.3c0.4,0,0.8,0.1,1,0.2l-0.3,0.9    c-0.2-0.1-0.4-0.2-0.8-0.2c-1.2,0-1.9,1.1-1.9,2.1c0,0.8,0.4,1.2,1.1,1.2c0.5,0,0.8-0.1,1.1-0.2L30.4,31.7z"></path>
		<path class="st0" d="M31,31.9l1-5h1.2l-1,5H31z M32.1,25.5c0-0.4,0.3-0.7,0.7-0.7c0.4,0,0.6,0.3,0.6,0.7c0,0.4-0.3,0.7-0.7,0.7    C32.4,26.1,32.1,25.8,32.1,25.5z"></path>
		<path class="st0" d="M36.6,31.9c0-0.3,0.1-0.7,0.1-1.1h0c-0.5,0.9-1.2,1.3-1.8,1.3c-0.9,0-1.5-0.7-1.5-1.7c0-1.7,1.2-3.6,3.6-3.6    c0.5,0,1.1,0.1,1.5,0.2l-0.5,2.6c-0.1,0.8-0.2,1.7-0.2,2.3H36.6z M37.1,27.7c-0.1,0-0.3-0.1-0.5-0.1c-1.1,0-2,1.3-2,2.4    c0,0.5,0.2,1,0.7,1c0.6,0,1.2-0.7,1.5-2L37.1,27.7z"></path>
		<path class="st0" d="M38.7,31.9l0.7-3.5c0.1-0.6,0.2-1.1,0.3-1.6h1.1l-0.1,0.9h0c0.5-0.7,1.1-1,1.8-1c0.7,0,1.3,0.4,1.3,1.4    c0,0.2,0,0.6-0.1,0.8L43,31.9h-1.2l0.5-2.8c0-0.2,0.1-0.4,0.1-0.6c0-0.4-0.2-0.7-0.6-0.7c-0.5,0-1.3,0.7-1.5,1.8l-0.4,2.3H38.7z"></path>
		<path class="st0" d="M46.3,30.5c0.4,0.3,1,0.4,1.6,0.4c0.7,0,1.3-0.4,1.3-1c0-0.5-0.3-0.8-1-1.1c-0.8-0.4-1.4-1-1.4-1.8    c0-1.3,1.2-2.2,2.6-2.2c0.8,0,1.3,0.2,1.6,0.4l-0.4,1c-0.2-0.1-0.7-0.3-1.3-0.3c-0.8,0-1.2,0.4-1.2,0.9c0,0.5,0.4,0.8,1,1.1    c0.8,0.4,1.4,1,1.4,1.9c0,1.4-1.1,2.3-2.7,2.3c-0.8,0-1.5-0.2-1.9-0.5L46.3,30.5z"></path>
		<path class="st0" d="M50.5,33.9l1-5.2c0.1-0.6,0.2-1.4,0.3-1.9h1.1l-0.1,0.8h0c0.4-0.6,1.1-0.9,1.7-0.9c1.1,0,1.6,0.9,1.6,1.9    c0,1.8-1.2,3.4-2.9,3.4c-0.5,0-0.8-0.1-1-0.2h0l-0.4,2.2H50.5z M52.3,30.8c0.2,0.2,0.5,0.2,0.8,0.2c0.9,0,1.7-1.2,1.7-2.4    c0-0.5-0.2-1-0.8-1c-0.6,0-1.3,0.7-1.5,1.9L52.3,30.8z"></path>
		<path class="st0" d="M60.4,31.6c-0.5,0.3-1.2,0.4-1.8,0.4c-1.4,0-2.1-0.8-2.1-2.1c0-1.5,1.1-3.2,2.9-3.2c1,0,1.6,0.6,1.6,1.4    c0,1.3-1.4,1.7-3.3,1.7c0,0.2,0,0.5,0.1,0.7c0.2,0.3,0.6,0.5,1,0.5c0.6,0,1-0.1,1.4-0.3L60.4,31.6z M59.2,27.6    c-0.8,0-1.3,0.7-1.4,1.3c1.2,0,2-0.2,2-0.8C59.8,27.8,59.6,27.6,59.2,27.6z"></path>
		<path class="st0" d="M64.7,31.7c-0.3,0.1-0.8,0.3-1.4,0.3c-1.3,0-2-0.8-2-2c0-1.8,1.3-3.3,3.2-3.3c0.4,0,0.8,0.1,1,0.2l-0.3,0.9    c-0.2-0.1-0.4-0.2-0.8-0.2c-1.2,0-1.9,1.1-1.9,2.1c0,0.8,0.4,1.2,1.1,1.2c0.5,0,0.8-0.1,1.1-0.2L64.7,31.7z"></path>
		<path class="st0" d="M65.3,31.9l1-5h1.2l-1,5H65.3z M66.5,25.5c0-0.4,0.3-0.7,0.7-0.7c0.4,0,0.6,0.3,0.6,0.7    c0,0.4-0.3,0.7-0.7,0.7C66.7,26.1,66.4,25.8,66.5,25.5z"></path>
		<path class="st0" d="M70.9,31.9c0-0.3,0.1-0.7,0.1-1.1h0c-0.5,0.9-1.2,1.3-1.8,1.3c-0.9,0-1.5-0.7-1.5-1.7c0-1.7,1.2-3.6,3.6-3.6    c0.5,0,1.1,0.1,1.5,0.2l-0.5,2.6c-0.1,0.8-0.2,1.7-0.2,2.3H70.9z M71.4,27.7c-0.1,0-0.3-0.1-0.5-0.1c-1.1,0-2,1.3-2,2.4    c0,0.5,0.2,1,0.7,1c0.6,0,1.2-0.7,1.5-2L71.4,27.7z"></path>
		<path class="st0" d="M73,31.9l1.4-7.4h1.2l-1.4,7.4H73z"></path>
		<path class="st0" d="M75.4,31.9l1-5h1.2l-1,5H75.4z M76.6,25.5c0-0.4,0.3-0.7,0.7-0.7c0.4,0,0.6,0.3,0.6,0.7    c0,0.4-0.3,0.7-0.7,0.7C76.8,26.1,76.5,25.8,76.6,25.5z"></path>
		<path class="st0" d="M77.9,30.8c0.3,0.1,0.8,0.3,1.2,0.3c0.5,0,0.8-0.3,0.8-0.6c0-0.3-0.2-0.5-0.7-0.8c-0.6-0.3-1-0.7-1-1.3    c0-1,0.8-1.7,2-1.7c0.5,0,1,0.1,1.2,0.3l-0.3,0.9c-0.2-0.1-0.5-0.2-0.9-0.2c-0.5,0-0.8,0.2-0.8,0.6c0,0.3,0.2,0.5,0.7,0.7    c0.5,0.3,1,0.7,1,1.4c0,1.1-0.9,1.7-2.1,1.7c-0.6,0-1.1-0.2-1.4-0.4L77.9,30.8z"></path>
		<path class="st0" d="M84.2,25.4l-0.3,1.4H85l-0.2,0.9h-1.1l-0.4,2c0,0.2-0.1,0.5-0.1,0.7c0,0.3,0.1,0.4,0.4,0.4c0.1,0,0.3,0,0.4,0    L84,31.9C83.8,32,83.5,32,83.2,32c-0.8,0-1.2-0.5-1.2-1c0-0.3,0-0.6,0.1-0.9l0.4-2.2h-0.7l0.2-0.9h0.7l0.2-1.1L84.2,25.4z"></path>
		<path class="st0" d="M84.9,30.8c0.3,0.1,0.8,0.3,1.2,0.3c0.5,0,0.8-0.3,0.8-0.6c0-0.3-0.2-0.5-0.7-0.8c-0.6-0.3-1-0.7-1-1.3    c0-1,0.8-1.7,2-1.7c0.5,0,1,0.1,1.2,0.3l-0.3,0.9c-0.2-0.1-0.5-0.2-0.9-0.2c-0.5,0-0.8,0.2-0.8,0.6c0,0.3,0.2,0.5,0.7,0.7    c0.5,0.3,1,0.7,1,1.4c0,1.1-0.9,1.7-2.1,1.7c-0.6,0-1.1-0.2-1.4-0.4L84.9,30.8z"></path>
	</g>
</g>
</svg>