<?xml version="1.0" encoding="UTF-8"?> <svg xmlns="http://www.w3.org/2000/svg" width="392" height="150" viewBox="0 0 392 150"><g fill="none" fill-rule="evenodd"><g><g><path d="M0 0H390V150H0z" transform="translate(-90 -600) translate(90 600)"></path><g fill-rule="nonzero"><g><path fill="#1F4FA2" d="M192.696 103.006c-.15-.297-.217-.58-.287-.861.008-.265.016-.53.1-.776.17-.498 1.567-1.658 4.138-3.56 2.547-1.84 4.158-3.62 4.71-5.231.768-2.228-.055-4.673-2.49-7.273-2.362-2.58-5.524-4.272-9.475-5.136-2.476-.542-4.497-.717-6.082-.465-1.585.253-2.537.844-2.877 1.836-.362 1.053.028 2.337 1.051 3.96 1.1 1.638 2.127 2.529 3.134 2.751 1.084.237 2.345-.287 3.842-1.491 1.595-1.252 2.78-1.791 3.63-1.603.389.084.655.275.801.574.168.236.14.562-.01.996-.827 2.418-2.527 4.443-5.086 6.082-2.66 1.684-4.1 2.966-4.4 3.834-.234.68-.235 1.412-.006 2.196.154.767.672 1.679 1.401 2.705 1.402 1.971 2.97 3.713 4.852 5.258 1.882 1.544 3.24 2.44 4.245 2.66.775.17 1.612.153 2.538-.111.923-.266 1.478-.674 1.65-1.172.598-1.734.81-3.085.525-3.946-.187-.908-.813-1.513-1.897-1.748-.696-.154-1.437-.181-2.141-.07-.683.051-1.33.243-1.866.591m-25.085-5.486c-.146-.3-.215-.581-.286-.863.008-.264.015-.53.1-.778.173-.495 1.57-1.655 4.137-3.557 2.548-1.841 4.159-3.62 4.713-5.23.768-2.232-.057-4.676-2.494-7.273-2.357-2.582-5.521-4.273-9.47-5.137-2.477-.542-4.498-.717-6.084-.464-1.585.252-2.539.844-2.88 1.834-.361 1.052.03 2.338 1.052 3.96 1.103 1.64 2.127 2.53 3.134 2.75 1.085.237 2.348-.285 3.843-1.491 1.595-1.249 2.78-1.788 3.63-1.604.387.086.654.278.804.575.166.238.137.564-.01.999-.832 2.416-2.528 4.441-5.088 6.078-2.661 1.684-4.102 2.968-4.4 3.836-.233.68-.236 1.413-.006 2.195.154.767.671 1.68 1.4 2.706 1.404 1.973 2.97 3.713 4.85 5.257 1.886 1.544 3.241 2.44 4.247 2.661.775.169 1.615.152 2.537-.11.924-.265 1.482-.677 1.65-1.171.597-1.736.813-3.087.526-3.948-.188-.908-.814-1.511-1.897-1.75-.697-.15-1.434-.178-2.14-.067-.684.05-1.332.24-1.868.592M139.65 76.68c.819-.687 1.884-1.12 2.961-1.35 1.178-.274 2.402-.208 3.564.047 1.471.321 2.815 1.015 4.05 2.017 1.237 1.005 1.96 1.563 2.193 1.614.464.101.894.061 1.192-.074.372-.118.633-.393.74-.703.319-.93-.634-2.272-2.961-3.978-2.248-1.691-4.378-2.757-6.39-3.198-.854-.187-2.444-.4-4.795-.582-2.352-.182-4.12-.369-5.36-.64-1.547-.339-2.997.01-4.352 1.045-1.412.958-2.43 2.468-3.111 4.45-.535 1.548-.595 3.665-.09 6.307.528 2.58 1.45 4.98 2.769 7.2 1.485 2.458 3.387 4.672 5.706 6.645 2.318 1.972 4.174 3.111 5.723 3.45 1.394.304 2.626.109 3.776-.573 1.05-.635 1.843-1.728 2.375-3.277.362-1.054.417-2.173.234-3.345l-.09-.22c-.027-.405.01-.996.11-1.774.102-.777.062-1.386.033-1.792-.232-1.982-1.128-3.976-2.587-6.028-1.459-2.052-3.356-3.798-5.69-5.241m-1.965 2.568c2.163 1.937 3.734 4.146 4.735 6.565.924 2.4 1.158 4.381.581 6.054-.169.496-.375.85-.693 1.047-.318.199-.593.27-.98.186-1.78-.388-3.078-1.94-3.95-4.729-.796-2.77-.667-5.806.307-9.123m-19.302-5.356c1.066 1.5 1.875 2.54 2.287 3.032.492.507.893.793 1.204.861.387.086.64.074.913.002.218-.153.382-.383.488-.692.257-.744.055-1.854-.624-3.27-.6-1.396-1.689-2.833-3.03-4.26-1.552-1.537-3.245-2.906-5.101-4.045-1.836-1.2-3.333-1.927-4.417-2.166-.232-.05-.697-.153-1.415-.243-.64-.073-1.28-.145-1.745-.248-.155-.034-.387-.086-.599-.197l-.465-.102c-2.012-.44-3.864-.38-5.478.2-1.593.517-2.576 1.436-3.02 2.735-.513 1.488-.476 3.56.051 6.141.583 2.659 1.583 5.075 3.014 7.454 1.6 2.613 3.824 5.1 6.654 7.517 2.832 2.416 4.955 3.746 6.348 4.053 1.085.236 2.374.12 3.748-.246 1.395-.428 2.171-.991 2.363-1.547.277-.807.3-1.6.014-2.462-.23-.785-.645-1.273-1.263-1.41-.155-.034-.486-.038-1.07-.034-.565-.057-1.05-.096-1.436-.181-1.394-.304-2.582-.964-3.623-2.059-1.04-1.092-1.85-2.6-2.612-4.5-.63-1.803-1.125-3.51-1.333-5.087-.204-1.577-.187-2.838.09-3.645.127-.37.388-.648.685-.782.296-.135.648-.191 1.112-.09.543.118 1.675.698 3.32 1.725 1.645 1.028 3.325 2.193 4.94 3.546m-29.03-6.351c1.065 1.498 1.872 2.54 2.288 3.031.49.506.889.796 1.199.862.387.084.642.074.916 0 .218-.152.381-.383.488-.692.256-.744.055-1.853-.624-3.268-.603-1.396-1.69-2.834-3.031-4.26-1.55-1.539-3.244-2.908-5.1-4.047-1.836-1.2-3.333-1.927-4.418-2.164-.231-.05-.695-.152-1.415-.244-.64-.073-1.28-.146-1.744-.248-.155-.033-.387-.084-.6-.198-.308-.068-.464-.1-.464-.1-2.012-.442-3.865-.38-5.478.2-1.593.517-2.575 1.434-3.023 2.736-.51 1.485-.474 3.56.052 6.138.586 2.66 1.586 5.077 3.016 7.454 1.597 2.616 3.822 5.1 6.654 7.518 2.831 2.417 4.955 3.748 6.348 4.054 1.084.236 2.372.117 3.747-.246 1.395-.428 2.172-.991 2.363-1.55.278-.804.3-1.598.015-2.46-.23-.783-.644-1.274-1.263-1.41-.156-.033-.487-.04-1.071-.033-.564-.057-1.05-.097-1.437-.181-1.393-.305-2.582-.966-3.621-2.058-1.038-1.093-1.851-2.604-2.614-4.503-.628-1.803-1.122-3.508-1.33-5.087-.206-1.576-.19-2.838.088-3.642.128-.374.389-.648.686-.783.296-.137.648-.192 1.113-.09.541.118 1.674.7 3.318 1.724 1.644 1.027 3.326 2.195 4.941 3.547M17.092 53.277l-1.868-.436c-.89-.208-1.779-.416-2.669-.622-.867-.297-1.314-.4-1.314-.4-1.512-.355-2.73-.357-3.722-.121-.994.237-1.515.867-1.702 1.666-.189.801.384 1.967 1.647 3.386.676.722 1.193 1.311 1.557 1.77.136.22.36.46.566.79.837 1.23 1.978 1.964 3.403 2.296.09.02.91.119 2.532.403 1.642.197 3.153.55 4.688.813l.32.638c17.119 32.326 26.256 48.625 27.234 48.853.714.167 1.328-.065 1.919-.584.701-.587 1.065-1.346 1.294-2.324.083-.356.175-1.554.166-3.527.188-9.24 1.295-17.987 3.226-26.26.707-3.023 1.226-5.248 1.605-6.472.312-1.335.582-2.49.899-3.447.843.008 1.528-.112 2.165-.434.528-.251.899-.634 1.004-1.078.143-.623.09-1.198-.272-1.658-.25-.528-.81-.94-1.57-1.304 1.102-4.715 3.009-8.865 5.68-12.275.543-.718.825-1.122.887-1.388.146-.622-.017-1.129-.338-1.767-.43-.57-.92-.871-1.633-1.039-.354-.081-.909-.118-1.416.045-.577.053-.954.06-1.042.039-.176-.043-.443-.103-.78-.278-.356-.08-.512-.212-.69-.255-.267-.06-1.04.04-2.213.235-1.171.197-1.897.495-2.268.877-.982.99-2.02 2.623-3.203 4.88-1.116 2.366-2.313 5.088-3.529 8.275l-.62-.145c-1.868-.437-4.543-1.437-8.202-3.042-3.658-1.606-6.6-2.666-8.823-3.186l-2.936-.685c-.978-.23-1.976-.369-3.044-.617-2.573-5.853-5.676-13.052-9.356-21.79-4.274-9.817-6.616-15.052-7.112-15.73-.293-.351-1.17-1.026-2.714-2.042-1.544-1.017-2.351-1.581-2.618-1.642-.535-.126-1.019-.05-1.349.153-.438.272-.699.586-.803 1.033-.126.53 1.827 5.022 5.885 13.754 4.078 8.645 7.795 16.828 11.13 24.642M27.271 63.91c1.601.373 4.22.8 7.82 1.45 3.531.545 6.33 1.012 8.2 1.448l2.667.623c-.082.354-.208.889-.442 1.492l-.373 1.6c-.935 4.002-1.604 8.067-1.825 12.236-.314 4.147-.29 8.468-.023 12.939-1.963-3.647-4.155-7.911-6.532-12.594-2.375-4.68-5.577-11.058-9.492-19.194M376.237 83.553v20.394h5.148V87.262h8.208v-3.709h-13.356zm-26.84 0l9.15 20.394h5.884l9.284-20.394h-5.85l-1.952 4.336h-9.318l-1.682-4.336h-5.516zm15.303 7.758l-2.689 6.59c-.068.198-.168.541-.305.998-.1.484-.234 1.055-.368 1.74-.135-.656-.268-1.256-.404-1.77-.135-.512-.236-.884-.305-1.054l-2.588-6.504h6.659zm-17.222 7.33c-1.042.8-2.118 1.37-3.193 1.74-1.111.372-2.289.543-3.535.543-2.556 0-4.607-.656-6.12-1.94-1.515-1.313-2.286-3.052-2.286-5.248 0-2.14.704-3.85 2.117-5.106 1.414-1.255 3.33-1.882 5.787-1.882 1.379 0 2.69.2 3.868.599 1.21.398 2.32.97 3.33 1.769l-.033-4.48c-1.11-.541-2.255-.94-3.433-1.226-1.21-.257-2.489-.399-3.798-.399-3.837 0-6.965.998-9.418 3.023-2.493 2.026-3.701 4.593-3.701 7.702s1.244 5.647 3.7 7.672c2.454 2.026 5.616 3.024 9.519 3.024 1.31 0 2.557-.114 3.765-.342 1.21-.228 2.424-.599 3.6-1.084l-.169-4.364zm-30.001 5.306h5.146V83.553h-5.146v20.394zM292.05 83.553v20.394h6.556c2.59 0 4.608-.142 6.122-.456 1.48-.314 2.793-.827 3.902-1.54 1.478-.913 2.555-2.083 3.328-3.48.741-1.398 1.112-2.967 1.112-4.764 0-1.796-.37-3.423-1.144-4.82-.773-1.398-1.885-2.539-3.363-3.452-1.11-.655-2.32-1.14-3.667-1.454-1.345-.286-3.297-.428-5.887-.428H292.05zm5.142 3.68h2.86c2.693 0 4.641.512 5.887 1.568 1.245 1.027 1.85 2.681 1.85 4.935 0 2.253-.605 3.908-1.85 4.935-1.246 1.055-3.194 1.568-5.887 1.568h-2.86V87.233zm-24.351-3.68v20.394H287v-3.68h-9.014v-4.192h9.014v-3.708h-9.014v-5.105h9.014v-3.709h-14.16zm-31.955 0l3.666 20.394h5.381l4.643-12.008c.101-.257.2-.628.304-1.113.133-.456.233-1.027.337-1.655.066.628.166 1.199.3 1.712.1.486.205.856.304 1.085l4.709 11.98h5.315l3.665-20.395h-4.875l-1.75 12.293c-.135.913-.235 1.599-.269 2.055-.035.484-.068.912-.068 1.311v.485l.033.286c-.168-.8-.302-1.484-.47-2.082-.136-.572-.268-1-.404-1.313l-5.08-13.035h-2.892l-5.012 13.035c-.034.115-.132.457-.301.998-.136.542-.337 1.34-.606 2.397v-.6c0-.94-.103-2.11-.304-3.48v-.057l-1.748-12.293h-4.878M370.965 57.865l2.86 2.738c.37-.741.942-1.34 1.747-1.77.809-.427 1.682-.655 2.693-.655 1.21 0 2.153.257 2.86.742.705.485 1.04 1.113 1.04 1.939 0 .97-1.142 1.91-3.497 2.881-.74.315-1.344.571-1.782.742-2.086.941-3.567 1.854-4.374 2.738-.806.885-1.21 1.94-1.21 3.166 0 1.683.772 3.053 2.354 4.136 1.58 1.084 3.598 1.626 6.121 1.626 1.448 0 2.725-.199 3.768-.656 1.044-.428 1.986-1.084 2.793-2.025l-3.027-2.453c-.37.6-.841 1.027-1.445 1.34-.574.286-1.315.428-2.155.428-1.009 0-1.852-.228-2.457-.655-.638-.428-.94-1-.94-1.683 0-1.056 1.245-2.054 3.701-2.938.503-.171.873-.314 1.141-.428 2.053-.77 3.535-1.683 4.543-2.68.976-.971 1.447-2.112 1.447-3.395 0-1.912-.775-3.424-2.288-4.565-1.547-1.14-3.633-1.71-6.225-1.71-1.815 0-3.397.256-4.71.798-1.308.541-2.318 1.34-2.958 2.34m-13.69 9.098h.774c2.087 0 3.466.2 4.103.599.672.37 1.01 1.055 1.01 1.996 0 .999-.338 1.713-1.076 2.14-.707.428-2.053.627-4.037.627h-.774v-5.362zm12.244-11.695h-5.921l-6.323 9.527v-9.527h-5.146v20.394h7.367c2.927 0 5.11-.484 6.557-1.454 1.446-.941 2.187-2.397 2.187-4.335 0-1.398-.503-2.596-1.479-3.595-1.008-.999-2.288-1.568-3.869-1.74l6.627-9.27zm-36.595 0v20.394h14.16v-3.68h-9.013v-4.192h9.013v-3.708h-9.013v-5.106h9.013V55.27h-14.16zm-9.252 16.686V55.27h-5.145v16.686h-5.889v3.708h16.921v-3.708h-5.887zm-37.03-16.686v20.394h5.347l10.628-11.865c.303-.343.64-.799 1.01-1.427.368-.599.739-1.312 1.141-2.138-.099.598-.2 1.198-.267 1.796-.033.6-.07 1.342-.07 2.225v11.41h4.914V55.268h-5.046l-10.931 12.094c-.304.342-.639.798-1.01 1.397-.369.628-.74 1.341-1.143 2.197.102-.6.2-1.17.268-1.769.035-.599.069-1.37.069-2.281V55.269h-4.91zm-19.208 0v20.394h14.158v-3.68h-9.012v-4.192h9.012v-3.708h-9.012v-5.106h9.012V55.27h-14.158zm-4.776 15.089c-1.043.799-2.12 1.369-3.197 1.74-1.108.371-2.285.542-3.531.542-2.557 0-4.607-.656-6.122-1.94-1.514-1.312-2.288-3.052-2.288-5.248 0-2.14.707-3.85 2.12-5.106 1.414-1.255 3.33-1.882 5.786-1.882 1.379 0 2.691.199 3.87.599 1.21.398 2.319.97 3.329 1.768l-.032-4.478c-1.113-.542-2.255-.941-3.433-1.227-1.211-.256-2.49-.399-3.803-.399-3.833 0-6.96.998-9.418 3.024-2.488 2.025-3.699 4.591-3.699 7.7 0 3.11 1.243 5.65 3.7 7.673 2.456 2.026 5.619 3.024 9.52 3.024 1.313 0 2.556-.114 3.767-.343 1.21-.227 2.42-.598 3.597-1.083l-.166-4.364" transform="translate(-90 -600) translate(90 600) matrix(1 0 0 -1 .186 131.879) translate(.074)"></path><path fill="#E32124" d="M74.873 12.495C74.873 4.152 71.044 0 62.338 0 53.63 0 49.8 4.152 49.8 12.495v16.89H57.3V12.052c0-3.708 1.37-5.602 5.039-5.602 3.668 0 5.038 1.894 5.038 5.602v17.333h7.497v-16.89M87.371 16.89h6.289c2.257 0 3.466 1.208 3.466 3.385 0 2.137-1.693 3.104-3.79 3.104h-5.965v-6.49zm-7.497 12.495h14.672c5.079 0 10.077-2.297 10.077-8.102 0-3.104-1.491-6.046-4.514-7.215v-.08c3.063-.727 3.95-4.153 4.192-6.893.08-1.21.201-5.443 1.21-6.49h-7.418c-.645.967-.766 3.788-.846 4.595-.202 2.901-.685 5.884-4.192 5.884H87.37V.604h-7.497v28.78M135.541.604h-4.837l-.443 3.145C128.286.967 124.901 0 122.241 0c-8.708 0-14.351 6.65-14.351 14.994 0 8.345 5.643 14.996 14.35 14.996 5.966 0 12.334-3.184 13.02-10.4h-7.498c-.241 2.458-2.66 3.95-5.683 3.95-4.837 0-6.691-4.272-6.691-8.546 0-4.272 1.854-8.544 6.69-8.544 3.71 0 6.208 1.733 6.611 4.353h-5.24v5.562h12.092V.605M140.341 29.385L163.277 29.385 163.277 23.379 147.838 23.379 147.838 18.341 161.946 18.341 161.946 12.536 147.838 12.536 147.838 7.054 163.68 7.054 163.68.604 140.341.604 140.341 29.385M167.874 29.385L175.573 29.385 185.569 11.649 185.65 11.649 185.65 29.385 192.704 29.385 192.704.604 185.005.604 175.009 18.541 174.928 18.541 174.928.604 167.874.604 167.874 29.385M220.64 22.936L212.054 22.936 212.054.604 204.557.604 204.557 22.936 195.972 22.936 195.972 29.385 220.64 29.385 220.64 22.936M255.752 19.106c-.403 2.902-2.66 4.434-5.805 4.434-4.837 0-6.691-4.272-6.691-8.546 0-4.272 1.854-8.544 6.691-8.544 3.507 0 5.523 2.015 5.805 5.32h7.497C262.846 4.353 257.404 0 250.11 0c-8.707 0-14.35 6.65-14.35 14.994 0 8.345 5.643 14.996 14.35 14.996 6.206 0 12.938-3.95 13.14-10.884h-7.497M275.545 11.327h6.53l-3.185 10.076h-.08l-3.265-10.076zm-.484 18.058h7.619L293.442.605h-7.82l-1.773 5.159h-10.037l-1.814-5.16h-7.699l10.762 28.78M303.118 16.89h6.289c2.257 0 3.466 1.208 3.466 3.385 0 2.137-1.694 3.104-3.79 3.104h-5.965v-6.49zm-7.498 12.495h14.673c5.078 0 10.077-2.297 10.077-8.102 0-3.104-1.492-6.046-4.514-7.215v-.08c3.063-.727 3.95-4.153 4.192-6.893.08-1.21.201-5.443 1.209-6.49h-7.417c-.645.967-.766 3.788-.846 4.595-.202 2.901-.685 5.884-4.193 5.884h-5.683V.604h-7.498v28.78M324.725 29.385L347.662 29.385 347.662 23.379 332.223 23.379 332.223 18.341 346.331 18.341 346.331 12.536 332.223 12.536 332.223 7.054 348.064 7.054 348.064.604 324.725.604 324.725 29.385" transform="translate(-90 -600) translate(90 600) matrix(1 0 0 -1 .186 131.879) translate(.074)"></path></g></g></g></g></g></svg> 