<?xml version="1.0" encoding="UTF-8"?> <!-- Generator: Adobe Illustrator 25.0.1, SVG Export Plug-In . SVG Version: 6.00 Build 0) --> <svg xmlns="http://www.w3.org/2000/svg" xmlns:xlink="http://www.w3.org/1999/xlink" version="1.1" id="Artwork" x="0px" y="0px" viewBox="0 0 454.9 72" style="enable-background:new 0 0 454.9 72;" xml:space="preserve"> <style type="text/css"> .st0{fill:#00AC69;} </style> <g> <path class="st0" d="M293.8,43.2c0,1.6,0.1,3.1,0.3,4.5c3.8,0.3,8.8,0.2,12.6-0.6c3.9-0.9,6.8-3,6.7-9.5c-0.1-4.9-3.4-9.1-8.4-9.1 C298.2,28.5,293.8,34.9,293.8,43.2 M325.6,58.1C324.8,63.7,319,72,307.2,72c-13.9,0-23.5-9.6-23.5-24c0-13.8,9.9-23.2,22.8-23.3 c9.9-0.1,17.4,4.4,17.4,12.9c0,7-6.4,11.9-15.2,13.8c-5.1,1.1-9.7,0.9-13.7,0.5c2.4,7.4,7.7,12.2,15.1,12.2 c6.3,0,10.6-3.1,12.5-6.9C323.6,55.8,325.8,56.2,325.6,58.1 M60.5,54.2V35c0-3.9-3.6-4.4-3.6-6.3v-0.3c0-0.9,0.7-1.5,1.6-1.7 l10-1.6c2-0.3,3.2,0,3.2,1.4l-0.2,30.7c-0.1,6.9,1.9,10.1,6.4,10.2c8.7,0.1,17.1-10,17.1-22.9c0-9.3-7.8-8.9-7.8-15.1 c0-2.6,1.6-4.7,5.3-4.7c4.4,0,8.9,3.6,8.9,15c0,19.9-11.8,32.2-25.8,32.2C67.8,72,60.5,67.7,60.5,54.2z M191.9,68.7 c5,0,8.7-2.5,8.7-7.3c0-12.8-27.5-4.3-27.5-23.3c0-7.7,7.6-13.4,18.5-13.4c11.8,0,18.9,5.8,18.9,11.3c0,2.4-1.9,4.1-4.3,4.1 c-6.6,0-4.1-11.9-14-11.9c-4.6,0-7.9,3.2-7.9,7.3c0,12.9,27.5,4.6,27.5,23.4c0,7.4-7.6,13.1-19.8,13.1c-12.4,0-19.7-5.7-19.7-10.9 c0-2.9,2-4.3,4.7-4.3C184,56.7,180.9,68.7,191.9,68.7z M214.6,69.6v-0.4c0-2.1,3.5-2.5,3.5-6.1V38.4c0-3.9-3.5-4.8-3.5-6.5v-0.3 c0-0.8,0.7-1.1,1.7-1.7l9.4-4.7c2.2-1,3.4,0.1,3.4,1.6v36.4c0,3.7,3.9,4.1,3.9,6.1v0.4c0,0.9-0.8,1.4-2.1,1.4h-14.3 C215.4,71.1,214.6,70.5,214.6,69.6z M229.1,11.4c0,3.2-1.3,6-4.9,6c-6.1,0-3.8-5.2-8.8-7.4c-3.6-1.6-37.6-7-52.1,33v20.2 c0,3.7,4.3,4.1,4.3,6.1v0.4c0,0.9-0.8,1.3-2,1.3h-14.6c-1.2,0-2-0.5-2-1.3v-0.4c0-2.1,3.6-2.5,3.6-6.1V37.8c0-3.9-4.1-4.1-4.1-6.1 v-0.3c0-0.8,0.7-1.4,1.7-2l9.2-4.3c2-0.9,2.7,0,2.7,1.6v7.4c17.9-36.2,49.6-33.8,58.1-30.6C225.7,5.4,229.1,7.1,229.1,11.4z M52.8,57.2c-1.9,3.8-6.1,6.9-12.5,6.9c-7.4,0-12.7-4.8-15.1-12.2c4,0.4,8.6,0.7,13.7-0.5c8.8-1.9,15.2-6.8,15.2-13.8 c0-8.4-7.5-13-17.4-12.9C24.4,24.8,14.9,33.3,14,45.9c-5.8-4-2.2-12.3-8.2-13.8c-2.7-0.7-4.9,0.2-5.6,3.1 C-1,39.9,3.8,46.4,13.9,49.8C14.7,63.1,24.1,72,37.4,72c11.8,0,17.6-8.3,18.4-13.9C56,56.2,53.8,55.8,52.8,57.2z M24,43.2 c0-8.2,4.4-14.7,11.1-14.7c5,0,8.3,4.2,8.4,9.1c0.1,6.5-2.8,8.7-6.7,9.5C33,47.9,28,48,24.3,47.7C24.1,46.3,24,44.8,24,43.2z M114.4,43.2c0,1.6,0.1,3.1,0.3,4.5c3.8,0.3,8.8,0.2,12.6-0.6c3.9-0.9,6.8-3,6.7-9.5c-0.1-4.9-3.4-9.1-8.4-9.1 C118.8,28.5,114.4,34.9,114.4,43.2 M146.2,58.1c-0.9,5.6-6.6,13.9-18.4,13.9c-13.9,0-23.5-9.6-23.5-24c0-13.8,9.9-23.2,22.8-23.3 c9.9-0.1,17.4,4.4,17.4,12.9c0,7-6.4,11.9-15.2,13.8c-5.1,1.1-9.7,0.9-13.7,0.5c2.4,7.4,7.7,12.2,15.1,12.2 c6.3,0,10.6-3.1,12.5-6.9C144.2,55.8,146.4,56.2,146.2,58.1 M334.3,71.1V53.2h2.5v7.7H347v-7.7h2.5v17.9H347v-8.2h-10.3v8.2H334.3z M368,71.1h-12.7V53.2h12.5v2h-10.1v5.6h8v2h-8V69H368V71.1z M382.3,53.2l7.4,17.9h-2.6l-2.2-5.2h-8.1l-2.1,5.2h-2.4l7.3-17.9 H382.3z M377.6,63.9h6.6l-3.3-7.9h-0.1L377.6,63.9z M396.5,53.2V69h9.9v2H394V53.2H396.5z M412.9,71.1V55.2h-6.5v-2H422v2h-6.6 v15.8H412.9z M427,71.1V53.2h2.5v7.7h10.3v-7.7h2.5v17.9h-2.5v-8.2h-10.3v8.2H427z M268.4,56.3V41.2c0-6-5.4-12.9-12-12.9 c-7,0-11.6,6.2-11.8,16.2c-0.3,12.8,5.2,23.8,13.8,24C263,68.4,268.4,64.5,268.4,56.3z M282.6,69.5v0.3c0,0.8-0.6,1.3-1.6,1.3h-9.8 c-1.1,0-1.8-0.8-1.9-1.8L269,66c-3.1,4-8,6-13.2,6c-11.5,0-22-9-22-23.7c0-13.9,9.8-23.6,22.2-23.6c5.1,0,9.3,2,12.4,4.9V11.9 c0-4.2-4.3-4.2-4.3-6.3V5.4c0-0.8,0.7-1.5,1.7-1.9l10-3.2C278-0.4,279,0.1,279,2v61.2C279,66.9,282.6,67.5,282.6,69.5z"></path> <path id="TM_325_" class="st0" d="M446.9,71.1v-4.3h-1.8v-0.6h4.3v0.6h-1.8v4.3H446.9z M452.2,71.1l-1.5-4.2h0v4.2h-0.6v-4.9h1.1 l1.4,4h0l1.3-4h1.1v4.9h-0.7v-4.2h0l-1.4,4.2H452.2z"></path> </g> </svg> 