<?xml version="1.0" encoding="UTF-8"?><svg id="Layer_1" xmlns="http://www.w3.org/2000/svg" viewBox="0 0 552.35 123.2"><defs><style>.cls-1,.cls-2{fill:#005340;}.cls-3{fill:#014e44;}.cls-4{fill:#91c63e;}.cls-5{fill:#92c73e;}.cls-6{fill:#923283;}.cls-2{stroke:#005340;stroke-miterlimit:10;stroke-width:.37px;}</style></defs><path class="cls-2" d="M105.99,49.52h-12.82v-.46c1.16-.11,1.96-.31,2.42-.6,.81-.52,1.21-1.24,1.21-2.17,0-.55-.18-1.28-.55-2.21l-.33-.84-1.87-4.74h-8.59l-1.01,2.77-.49,1.24c-.59,1.47-.88,2.63-.88,3.47,0,.5,.11,.96,.32,1.38,.21,.43,.5,.78,.87,1.04,.51,.36,1.16,.57,1.95,.64v.46h-8.74v-.46c.69-.04,1.29-.21,1.81-.52,.52-.31,1.03-.8,1.52-1.48,.42-.55,.82-1.25,1.22-2.12,.4-.86,.92-2.16,1.57-3.88l7.14-18.92h1.11l8.49,21.09c.64,1.59,1.14,2.73,1.52,3.41,.38,.68,.79,1.2,1.23,1.55,.31,.24,.67,.42,1.07,.55,.4,.13,1.01,.24,1.81,.33v.46Zm-12.25-11.84l-4.1-10.39-3.86,10.39h7.96Z"/><path class="cls-2" d="M38.29,93.81s28.59-10.45,30.04-25.35c0,0,3.38-14.9-23.48-32.18,0,0,13.36,15.51,11.59,29.63,0,0-.29,14.48-18.15,27.91Z"/><path class="cls-2" d="M204.59,22.12l.23,8.97h-.45c-.14-.39-.25-.68-.33-.88-.46-1.28-.83-2.24-1.11-2.87-.51-1.12-1.24-2.15-2.2-3.09-.73-.71-1.48-1.22-2.26-1.55s-1.66-.48-2.63-.48c-1.47,0-2.74,.33-3.82,.98-.95,.57-1.83,1.4-2.65,2.48-.82,1.08-1.49,2.3-2.01,3.68-.74,1.94-1.11,4.15-1.11,6.62,0,2.1,.25,3.99,.76,5.68,.51,1.69,1.25,3.1,2.22,4.23,1.79,2.11,4.18,3.17,7.14,3.17,1.48,0,2.82-.26,4-.79,1.18-.53,2.1-1.27,2.75-2.24,.75-1.11,1.3-2.61,1.64-4.49l.45,.08c-.25,2.11-.81,3.79-1.68,5.04-.83,1.19-1.98,2.1-3.44,2.73-1.46,.63-3.16,.94-5.08,.94-1.79,0-3.51-.27-5.15-.82-2.61-.88-4.66-2.48-6.13-4.79s-2.2-5.06-2.2-8.26c0-2.45,.43-4.7,1.29-6.77,.86-2.07,2.06-3.73,3.59-4.99,1.18-.96,2.6-1.73,4.24-2.3,1.65-.57,3.29-.85,4.95-.85s3.24,.31,4.99,.92l1.6,.54c.31,.12,.58,.18,.82,.18,.33,0,.59-.14,.8-.42,.09-.13,.2-.35,.33-.66h.47Z"/><path class="cls-2" d="M120.79,50.47c-.13-.67-.2-1.38-.2-2.13-.96,.64-1.87,1.1-2.72,1.38-.85,.28-1.76,.42-2.74,.42-1.97,0-3.66-.61-5.07-1.83-.9-.78-1.59-1.75-2.07-2.92-.48-1.17-.72-2.45-.72-3.84,0-1.47,.26-2.83,.78-4.08s1.25-2.29,2.18-3.12c1.48-1.28,3.24-1.93,5.28-1.93,.99,0,1.83,.15,2.53,.44,.7,.29,1.52,.83,2.45,1.61v-7.42c0-1.45-.24-2.5-.71-3.14s-1.25-.96-2.34-.96v-.48l5.99-.78v23.22c0,1.51,.23,2.58,.7,3.23s1.24,.96,2.32,.96v.5l-5.7,.86Zm-.27-9.35c0-1.86-.08-3.25-.23-4.18-.16-.93-.43-1.69-.84-2.28-.35-.51-.82-.92-1.41-1.22-.59-.31-1.2-.46-1.82-.46-1.39,0-2.58,.67-3.6,2.01-.61,.8-1.09,1.76-1.43,2.87-.34,1.11-.51,2.25-.51,3.43s.16,2.28,.49,3.38c.32,1.1,.76,2.05,1.32,2.84,.97,1.36,2.16,2.05,3.58,2.05,.67,0,1.31-.17,1.92-.52,.61-.35,1.1-.83,1.48-1.44,.39-.64,.66-1.43,.82-2.38,.16-.94,.23-2.3,.23-4.08Z"/><path class="cls-2" d="M208.04,41.68c0-2.17,.78-4.1,2.34-5.8,1.9-2.06,4.17-3.09,6.81-3.09s4.9,1.03,6.79,3.09c1.56,1.71,2.34,3.65,2.34,5.82s-.74,4.05-2.22,5.72c-1.82,2.06-4.12,3.09-6.91,3.09s-5.09-1.03-6.93-3.09c-.72-.8-1.27-1.7-1.65-2.69s-.58-2.01-.58-3.05Zm3.55-.23c0,2.33,.51,4.3,1.52,5.91,1.14,1.8,2.54,2.71,4.2,2.71,.7,0,1.39-.2,2.05-.6,.66-.4,1.24-.96,1.72-1.68,.51-.75,.92-1.69,1.23-2.82,.31-1.13,.47-2.22,.47-3.28s-.17-2.2-.5-3.32c-.33-1.12-.78-2.07-1.34-2.88-1.07-1.51-2.37-2.26-3.92-2.26s-2.74,.79-3.8,2.38c-1.08,1.59-1.62,3.53-1.62,5.83Z"/><path class="cls-2" d="M242.52,50.51c-.17-.81-.25-1.65-.25-2.5-1.63,1.67-3.55,2.5-5.78,2.5-1.63,0-2.93-.41-3.92-1.22-.96-.8-1.44-1.94-1.44-3.41v-6.97l-.02-1.52c0-.91-.05-1.57-.16-1.98-.1-.41-.3-.77-.59-1.06-.38-.36-1.05-.63-2.03-.8v-.44h5.74v10.17c0,1.43,.05,2.49,.15,3.18,.1,.69,.28,1.25,.54,1.7,.29,.46,.69,.81,1.23,1.07s1.13,.39,1.79,.39c.73,0,1.41-.15,2.04-.44s1.14-.69,1.5-1.2c.38-.52,.63-1.12,.75-1.8,.12-.68,.19-1.8,.19-3.37v-3.93l-.02-1.48c0-.91-.05-1.57-.15-1.98s-.3-.77-.6-1.06c-.36-.36-1.04-.63-2.03-.8v-.44h5.74v10.88c0,1.38,.04,2.34,.11,2.9,.07,.55,.21,1,.42,1.35,.23,.37,.51,.65,.82,.81,.31,.17,.76,.27,1.35,.31v.42l-5.37,.74Z"/><path class="cls-2" d="M255.01,32.79c.18,.78,.27,1.51,.27,2.18v.32c1.61-1.67,3.53-2.5,5.76-2.5,1.67,0,3,.4,4.02,1.2,1,.79,1.5,1.91,1.5,3.37v8.5c0,.91,.05,1.57,.16,1.99,.1,.42,.31,.77,.6,1.05,.36,.36,1.03,.64,2.01,.82v.42h-8.62v-.42c.78-.11,1.34-.26,1.68-.45,.34-.19,.61-.52,.82-.99,.14-.31,.24-.77,.3-1.39s.09-1.51,.09-2.68v-4.25c0-1.46-.05-2.53-.15-3.21s-.28-1.23-.55-1.64c-.3-.47-.73-.83-1.28-1.09-.56-.26-1.17-.39-1.85-.39-.73,0-1.41,.15-2.03,.44-.63,.29-1.13,.69-1.49,1.2-.39,.54-.65,1.14-.77,1.81-.12,.67-.19,1.79-.19,3.36v3.93l.02,1.48c0,.91,.05,1.57,.16,1.99,.1,.42,.31,.77,.6,1.05,.36,.36,1.03,.64,2.01,.82v.42h-8.62v-.42c.78-.11,1.34-.26,1.68-.45,.34-.19,.61-.52,.82-.99,.14-.31,.24-.77,.3-1.39,.06-.62,.09-1.51,.09-2.69v-4.93c0-1.37-.03-2.33-.1-2.88s-.21-1-.43-1.35c-.22-.37-.49-.64-.8-.81s-.76-.27-1.35-.31v-.42l5.34-.72Z"/><path class="cls-2" d="M275.17,33.1h4.96v.76h-4.96v11.68c0,1.4,.23,2.41,.7,3.01,.25,.33,.57,.6,.97,.78s.84,.28,1.3,.28c.58,0,1.07-.12,1.46-.37s.82-.7,1.28-1.35l.29,.26c-.43,.8-1.03,1.4-1.8,1.79-.77,.39-1.74,.58-2.9,.58-1.53,0-2.65-.31-3.36-.92-.38-.32-.62-.71-.74-1.15-.12-.45-.18-1.25-.18-2.42v-12.16h-2.09v-.32c.85-.28,1.63-.82,2.34-1.62,.43-.5,.78-.99,1.04-1.47,.26-.49,.51-1.12,.75-1.9l.2-.66h.73v5.22Z"/><path class="cls-2" d="M280.1,33.1h7.57v.44c-.53,.08-.92,.19-1.15,.32-.51,.29-.76,.75-.76,1.36,0,.53,.27,1.49,.8,2.86l3.26,8.59,2.85-7.23c.7-1.8,1.05-3.08,1.05-3.83,0-.6-.16-1.08-.49-1.43-.33-.35-.8-.57-1.42-.65v-.44h5.58v.44c-.56,.16-.97,.33-1.24,.5s-.52,.45-.77,.82c-.38,.59-.98,1.91-1.79,3.95l-5.66,14.13c-.68,1.69-1.22,2.78-1.64,3.29-.7,.84-1.59,1.26-2.67,1.26-.69,0-1.25-.14-1.67-.41-.42-.27-.63-.63-.63-1.07,0-.35,.12-.63,.37-.83,.25-.21,.57-.31,.97-.31,.34,0,.73,.09,1.17,.28,.43,.17,.7,.28,.83,.32,.12,.04,.27,.06,.44,.06,.8,0,1.46-.62,1.96-1.87l.6-1.53c.26-.64,.39-1.14,.39-1.49,0-.49-.25-1.36-.74-2.58l-4.04-10-.58-1.44c-.35-.86-.62-1.46-.82-1.82s-.39-.62-.59-.78c-.33-.25-.71-.41-1.17-.46v-.44Z"/><path class="cls-2" d="M144.72,47.67l.33,.2c-.47,1.4-1.54,2.11-3.22,2.11-.92,0-1.69-.23-2.31-.7-.4-.31-.82-.84-1.25-1.61-.87,.8-1.53,1.33-1.97,1.59-.85,.48-1.83,.72-2.95,.72-1.43,0-2.57-.35-3.41-1.06-.84-.71-1.26-1.67-1.26-2.87,0-1.11,.34-2.04,1.03-2.79,.39-.41,.84-.75,1.35-.99,.51-.25,1.24-.5,2.2-.75,1.13-.29,1.97-.54,2.51-.74,.54-.2,.99-.44,1.36-.72,.42-.31,.7-.67,.86-1.08,.16-.41,.23-.99,.23-1.73,0-1.57-.29-2.71-.86-3.43-.26-.33-.6-.6-1-.8-.41-.2-.84-.3-1.28-.3-.53,0-1.01,.14-1.42,.42-.42,.28-.73,.67-.94,1.16l-.49,1.16c-.26,.63-.73,.94-1.4,.94-.44,0-.81-.15-1.11-.45-.3-.3-.45-.68-.45-1.13,0-.68,.47-1.26,1.41-1.73,.51-.24,1.14-.44,1.89-.59,.75-.15,1.48-.23,2.2-.23,.81,0,1.65,.11,2.52,.32,.87,.21,1.6,.49,2.19,.82,.85,.49,1.37,1.14,1.58,1.93,.1,.4,.16,1.08,.16,2.03v7.42c0,1.26,.05,2.11,.16,2.57,.22,.95,.75,1.42,1.6,1.42,.4,0,.72-.07,.95-.22,.23-.15,.5-.44,.81-.88Zm-6.46-7.91c-.7,.6-1.47,1.13-2.31,1.58-.95,.52-1.6,.92-1.96,1.18s-.69,.59-.99,.96c-.61,.78-.91,1.68-.91,2.71,0,.88,.24,1.61,.71,2.19,.47,.58,1.07,.86,1.8,.86,.64,0,1.23-.2,1.8-.61,.56-.41,.99-.95,1.27-1.64,.4-.9,.6-2.19,.6-3.89v-3.35Z"/><path class="cls-2" d="M145.56,33.07l5.62-.72v11.56l.02,1.52c0,.91,.05,1.57,.16,1.99,.1,.42,.31,.77,.6,1.05,.36,.36,1.03,.63,2.01,.82v.42h-8.62v-.42c.78-.11,1.34-.26,1.68-.45,.34-.19,.61-.52,.82-.99,.14-.31,.24-.77,.3-1.39,.06-.62,.09-1.51,.09-2.69v-4.93c0-1.37-.03-2.33-.1-2.88-.07-.55-.21-1-.43-1.35-.22-.37-.49-.64-.8-.81-.31-.17-.76-.27-1.35-.31v-.42Zm4.07-7.93c-.51,0-.93-.17-1.27-.5-.33-.33-.5-.76-.5-1.26s.17-.91,.51-1.25c.34-.34,.76-.51,1.26-.51s.92,.17,1.26,.51c.34,.34,.51,.76,.51,1.25s-.17,.93-.5,1.26c-.33,.33-.76,.5-1.27,.5Z"/><path class="cls-2" d="M160.72,35.44c.47-.84,1-1.48,1.58-1.9,1.08-.79,2.31-1.18,3.69-1.18,.85,0,1.49,.19,1.93,.58,.4,.35,.61,.77,.61,1.28,0,.37-.12,.68-.36,.92s-.55,.36-.93,.36c-.44,0-.83-.19-1.15-.56l-.6-.68c-.48-.52-1.05-.78-1.7-.78-.88,0-1.57,.59-2.07,1.76-.49,1.18-.74,2.81-.74,4.91v3.75l.02,1.52c0,.91,.05,1.57,.16,1.99,.1,.42,.31,.77,.6,1.05,.36,.36,1.03,.64,2.01,.82v.42h-8.62v-.42c.78-.11,1.34-.26,1.68-.45,.34-.19,.61-.52,.82-.99,.14-.31,.24-.77,.3-1.39,.06-.62,.09-1.51,.09-2.69v-4.93c0-1.37-.03-2.33-.1-2.88s-.21-1-.43-1.35c-.22-.37-.49-.64-.8-.81s-.76-.27-1.35-.31v-.42l5.03-.72c.22,1.2,.34,2.23,.34,3.09Z"/><path class="cls-2" d="M84.85,65.83h10.77v-4.87c0-1.04-.06-1.81-.17-2.31-.12-.5-.33-.9-.64-1.23-.28-.29-.6-.51-.96-.64-.36-.13-.83-.21-1.42-.24v-.35h9.69v.35c-.58,.03-1.04,.11-1.4,.24-.36,.13-.68,.34-.96,.64-.31,.32-.53,.74-.64,1.24-.12,.5-.17,1.27-.17,2.3v11.18c0,1.03,.06,1.79,.17,2.29,.12,.5,.33,.91,.64,1.24,.28,.28,.6,.49,.96,.63,.36,.14,.83,.22,1.4,.25v.35h-9.69v-.35c.59-.03,1.06-.11,1.42-.25,.36-.14,.68-.35,.96-.63,.31-.32,.53-.73,.64-1.23,.12-.5,.17-1.26,.17-2.31v-5.6h-10.77v5.6c0,1.03,.06,1.8,.17,2.3,.12,.5,.33,.91,.64,1.24,.27,.28,.59,.49,.95,.63,.36,.14,.83,.22,1.42,.25v.35h-9.69v-.35c.59-.03,1.06-.11,1.42-.25,.36-.14,.68-.35,.95-.63,.32-.32,.54-.73,.65-1.23,.11-.5,.17-1.26,.17-2.31v-11.18c0-1.04-.06-1.81-.17-2.31-.11-.5-.33-.9-.65-1.23-.27-.29-.59-.51-.96-.64s-.83-.21-1.41-.24v-.35h9.69v.35c-.58,.03-1.04,.11-1.4,.24-.36,.13-.68,.34-.96,.64-.31,.32-.53,.74-.64,1.24-.12,.5-.17,1.27-.17,2.3v4.87Z"/><path class="cls-2" d="M194.01,76.95l.05-6.27h.35c.42,1.61,.93,2.87,1.52,3.78,1.1,1.69,2.49,2.54,4.16,2.54,1.16,0,2.12-.39,2.88-1.17,.76-.78,1.14-1.76,1.14-2.96,0-.52-.08-1.04-.25-1.58-.17-.54-.39-1-.68-1.38-.29-.39-.71-.77-1.24-1.14-.53-.36-1.34-.82-2.43-1.38-.96-.49-1.7-.89-2.21-1.23-.51-.33-.92-.67-1.24-1.02-.87-.95-1.3-2.11-1.3-3.47,0-.84,.17-1.65,.51-2.43,.34-.78,.81-1.45,1.42-2,1.07-.99,2.34-1.49,3.81-1.49,.48,0,.91,.05,1.32,.14,.4,.1,.95,.29,1.62,.57,.51,.2,.85,.33,1.03,.39,.18,.06,.34,.08,.49,.08,.35,0,.59-.26,.71-.77h.35l.11,6.02h-.35c-.27-.96-.51-1.7-.7-2.21-.2-.51-.43-.98-.7-1.42-.49-.79-1.04-1.37-1.64-1.75-.6-.38-1.28-.57-2.06-.57-1.13,0-2.02,.39-2.68,1.15-.27,.31-.49,.68-.64,1.11-.16,.42-.23,.85-.23,1.28,0,1.69,1.09,3.05,3.26,4.09l2.14,1.03c1.65,.78,2.83,1.64,3.56,2.58,.83,1.05,1.24,2.28,1.24,3.68,0,.93-.19,1.82-.56,2.66-.53,1.18-1.31,2.09-2.37,2.73-1.05,.64-2.29,.96-3.72,.96-1.3,0-2.56-.26-3.76-.77-.63-.27-1-.43-1.12-.47s-.26-.06-.41-.06c-.49,0-.82,.24-1,.73h-.35Z"/><path class="cls-2" d="M109.62,68.65c-.04,.5-.06,.85-.06,1.08,0,.88,.13,1.74,.39,2.58,.26,.84,.61,1.54,1.05,2.09,.45,.57,1.02,1.01,1.69,1.33,.67,.32,1.37,.49,2.11,.49,.54,0,1.06-.09,1.55-.27,.49-.18,.89-.43,1.22-.76,.36-.35,.68-.92,.94-1.7l.32,.11c-.26,1.18-.83,2.08-1.69,2.68-.86,.6-2.02,.9-3.45,.9-1.24,0-2.31-.2-3.2-.59-.89-.39-1.64-1-2.26-1.82-.86-1.14-1.29-2.55-1.29-4.22,0-2.28,.81-4.06,2.44-5.36,1.18-.94,2.53-1.41,4.05-1.41,.81,0,1.56,.14,2.25,.43,.69,.29,1.27,.71,1.74,1.25,.74,.85,1.11,1.91,1.11,3.19h-8.89Zm6.61-.59c-.07-1.01-.26-1.79-.56-2.34-.27-.5-.63-.89-1.09-1.18s-.94-.43-1.45-.43c-.87,0-1.62,.37-2.27,1.12s-1.03,1.69-1.16,2.82h6.52Z"/><path class="cls-2" d="M211.71,64.05h5.89v.33c-.41,.06-.71,.14-.89,.24-.39,.22-.59,.57-.59,1.03,0,.4,.21,1.13,.62,2.17l2.54,6.5,2.22-5.47c.55-1.36,.82-2.33,.82-2.89,0-.45-.13-.82-.38-1.08-.25-.27-.62-.43-1.11-.49v-.33h4.34v.33c-.44,.12-.76,.25-.96,.38s-.41,.34-.6,.62c-.29,.44-.76,1.44-1.4,2.99l-4.4,10.68c-.53,1.27-.95,2.1-1.27,2.49-.55,.64-1.24,.96-2.08,.96-.54,0-.97-.1-1.3-.31s-.49-.48-.49-.81c0-.26,.1-.47,.29-.63,.19-.16,.44-.23,.76-.23,.26,0,.56,.07,.91,.21,.33,.13,.55,.21,.64,.24,.1,.03,.21,.05,.34,.05,.63,0,1.13-.47,1.53-1.42l.47-1.16c.2-.49,.3-.86,.3-1.13,0-.37-.19-1.03-.57-1.95l-3.14-7.56-.45-1.09c-.27-.65-.49-1.11-.64-1.38-.15-.27-.3-.47-.45-.59-.25-.19-.56-.31-.91-.35v-.33Z"/><path class="cls-2" d="M229.34,76.76v-4.29h.24c.28,1.05,.64,1.89,1.06,2.52,.78,1.14,1.68,1.71,2.72,1.71,.64,0,1.19-.19,1.65-.58,.5-.42,.76-1.03,.76-1.81,0-.64-.18-1.19-.54-1.67-.2-.25-.46-.49-.76-.7-.31-.21-.83-.51-1.55-.89-1.27-.68-2.12-1.24-2.54-1.7-.61-.65-.91-1.4-.91-2.25,0-.91,.3-1.69,.91-2.35,.7-.75,1.62-1.12,2.78-1.12,.52,0,1,.09,1.44,.27l.52,.23c.16,.06,.3,.09,.42,.09,.19,0,.37-.15,.55-.46h.3l.17,3.44h-.32c-.11-.49-.23-.87-.36-1.17s-.3-.58-.54-.85c-.31-.38-.68-.69-1.09-.9-.41-.22-.82-.33-1.23-.33-.56,0-1.05,.2-1.45,.61s-.6,.91-.6,1.51c0,.5,.18,.94,.54,1.34,.36,.4,.91,.77,1.66,1.1l1.6,.73c.96,.43,1.67,.98,2.15,1.62,.47,.65,.71,1.41,.71,2.29,0,1.06-.34,1.94-1.03,2.64-.79,.81-1.8,1.21-3.03,1.21-.67,0-1.34-.13-2.03-.39-.45-.17-.71-.27-.8-.3-.09-.02-.21-.04-.35-.04-.35,0-.62,.15-.8,.46h-.24Z"/><path class="cls-2" d="M246.73,63.93h3.85v.58h-3.85v8.83c0,1.06,.18,1.82,.54,2.28,.19,.25,.44,.45,.76,.59,.31,.14,.65,.21,1.01,.21,.45,0,.83-.09,1.13-.28,.3-.19,.64-.53,1-1.02l.23,.2c-.33,.61-.8,1.06-1.4,1.35-.6,.29-1.35,.44-2.25,.44-1.19,0-2.06-.23-2.61-.7-.29-.24-.49-.53-.58-.87-.09-.34-.14-.95-.14-1.83v-9.19h-1.62v-.24c.66-.21,1.26-.62,1.82-1.23,.34-.37,.61-.75,.81-1.12,.2-.37,.4-.85,.58-1.43l.15-.5h.56v3.94Z"/><path class="cls-2" d="M257.02,68.51c-.04,.5-.06,.85-.06,1.08,0,.88,.13,1.74,.39,2.58,.26,.84,.61,1.54,1.05,2.09,.45,.57,1.01,1.01,1.69,1.33,.67,.32,1.37,.49,2.11,.49,.54,0,1.06-.09,1.55-.27s.89-.43,1.22-.76c.36-.35,.68-.92,.94-1.7l.32,.11c-.26,1.18-.83,2.08-1.69,2.68-.86,.6-2.02,.9-3.45,.9-1.24,0-2.31-.2-3.2-.59s-1.64-1-2.26-1.82c-.86-1.14-1.29-2.55-1.29-4.22,0-2.28,.81-4.06,2.44-5.36,1.18-.94,2.53-1.41,4.05-1.41,.81,0,1.56,.14,2.24,.43,.69,.29,1.27,.71,1.75,1.25,.74,.85,1.11,1.91,1.11,3.19h-8.89Zm6.61-.59c-.07-1.01-.26-1.79-.56-2.34-.27-.5-.63-.89-1.09-1.18s-.94-.43-1.45-.43c-.87,0-1.62,.37-2.27,1.12s-1.03,1.69-1.16,2.82h6.52Z"/><path class="cls-2" d="M274.42,63.7c.18,.71,.3,1.41,.35,2.11,.64-.68,1.35-1.2,2.15-1.56,.79-.36,1.62-.55,2.48-.55,.95,0,1.74,.24,2.38,.73,.38,.29,.82,.8,1.32,1.53,.77-.78,1.54-1.35,2.32-1.71,.78-.36,1.62-.55,2.52-.55,1.21,0,2.2,.33,2.97,.99,.76,.66,1.15,1.53,1.15,2.6v5.14l.02,1.15c0,.69,.04,1.19,.12,1.51,.08,.32,.23,.58,.46,.8,.29,.27,.82,.48,1.58,.62v.32h-6.71v-.32c.61-.08,1.04-.19,1.3-.34,.26-.15,.47-.4,.64-.75,.11-.23,.19-.58,.24-1.05,.05-.47,.07-1.14,.07-2.02v-2.89c0-1.12-.04-1.94-.11-2.45-.07-.52-.21-.95-.41-1.32-.47-.86-1.29-1.29-2.45-1.29-1.25,0-2.16,.47-2.72,1.39-.49,.8-.74,2.04-.74,3.73v2.92l.02,1.15c0,.69,.04,1.19,.12,1.51s.23,.58,.45,.8c.28,.27,.81,.48,1.58,.62v.32h-6.7v-.32c.61-.08,1.04-.19,1.3-.34,.26-.15,.47-.4,.64-.75,.11-.23,.19-.58,.23-1.05,.05-.47,.07-1.14,.07-2.02v-2.8c0-1.18-.04-2.05-.11-2.6-.08-.55-.22-1-.43-1.34-.22-.36-.54-.65-.94-.86-.4-.21-.86-.31-1.36-.31-.57,0-1.11,.14-1.62,.41-.5,.27-.9,.64-1.2,1.11-.27,.41-.47,.91-.58,1.49s-.17,1.33-.17,2.25v3.89c.01,.69,.06,1.19,.14,1.51s.24,.58,.47,.8c.28,.27,.8,.48,1.56,.62v.32h-6.71v-.32c.61-.08,1.04-.19,1.31-.34,.26-.15,.48-.4,.64-.75,.11-.23,.19-.58,.24-1.05,.05-.47,.07-1.15,.07-2.04v-3.74c0-1.04-.03-1.77-.08-2.19-.05-.42-.16-.76-.33-1.02-.17-.28-.38-.49-.62-.61-.24-.13-.59-.2-1.05-.23v-.32l4.17-.52Z"/><path class="cls-2" d="M136.55,75.36l.26,.15c-.36,1.06-1.2,1.59-2.5,1.59-.72,0-1.32-.18-1.79-.53-.31-.23-.64-.64-.97-1.21-.68,.61-1.19,1.01-1.53,1.2-.66,.36-1.42,.55-2.29,.55-1.11,0-2-.27-2.65-.8-.65-.54-.98-1.26-.98-2.17,0-.84,.27-1.54,.8-2.11,.3-.31,.65-.56,1.05-.75,.39-.19,.97-.38,1.71-.57,.88-.22,1.53-.41,1.95-.56,.42-.15,.77-.33,1.05-.55,.32-.23,.55-.51,.67-.82,.12-.31,.18-.75,.18-1.3,0-1.18-.22-2.05-.67-2.59-.2-.25-.46-.46-.78-.61-.32-.15-.65-.23-.99-.23-.41,0-.78,.11-1.11,.32-.32,.21-.57,.51-.73,.88l-.38,.88c-.2,.48-.57,.71-1.09,.71-.34,0-.63-.11-.86-.34-.23-.23-.35-.51-.35-.86,0-.52,.36-.95,1.09-1.3,.39-.18,.88-.33,1.47-.45s1.15-.17,1.71-.17c.63,0,1.28,.08,1.96,.24,.68,.16,1.25,.37,1.7,.62,.66,.37,1.07,.86,1.23,1.46,.08,.3,.12,.81,.12,1.53v5.61c0,.95,.04,1.6,.12,1.94,.17,.72,.59,1.08,1.24,1.08,.31,0,.56-.06,.74-.17s.39-.33,.63-.67Zm-5.02-5.98c-.54,.46-1.14,.85-1.8,1.2-.74,.39-1.25,.69-1.53,.89-.28,.2-.54,.45-.77,.73-.47,.59-.71,1.27-.71,2.05,0,.67,.18,1.22,.55,1.65,.37,.43,.83,.65,1.4,.65,.49,0,.96-.15,1.4-.46s.77-.72,.99-1.24c.31-.68,.47-1.66,.47-2.94v-2.53Z"/><path class="cls-2" d="M140.36,55.99l4.37-.55v16.92l.02,1.15c0,.69,.04,1.19,.12,1.51,.08,.32,.24,.58,.47,.8,.28,.27,.8,.48,1.56,.62v.32h-6.71v-.32c.61-.08,1.04-.19,1.3-.34,.26-.15,.48-.4,.64-.75,.11-.23,.19-.58,.23-1.05,.05-.47,.07-1.15,.07-2.04v-11.89c0-1.03-.03-1.76-.08-2.18-.05-.42-.16-.77-.33-1.03-.17-.28-.38-.48-.62-.61-.24-.12-.59-.2-1.05-.23v-.33Z"/><path class="cls-2" d="M154.77,63.87h3.85v.58h-3.85v8.83c0,1.06,.18,1.82,.54,2.28,.19,.25,.44,.45,.76,.59,.31,.14,.65,.21,1.01,.21,.45,0,.83-.09,1.13-.28,.3-.19,.64-.53,1-1.02l.23,.2c-.33,.61-.8,1.06-1.4,1.35-.6,.29-1.35,.44-2.25,.44-1.19,0-2.06-.23-2.61-.7-.29-.24-.49-.53-.58-.87-.09-.34-.14-.95-.14-1.83v-9.19h-1.62v-.24c.66-.21,1.26-.62,1.82-1.23,.34-.37,.61-.75,.81-1.12,.2-.37,.4-.85,.58-1.43l.15-.5h.56v3.94Z"/><path class="cls-2" d="M167.02,55.45v10.39c.35-.43,.67-.77,.94-1.01,.27-.24,.6-.45,.99-.64,.74-.36,1.58-.55,2.52-.55,1.19,0,2.18,.24,2.96,.71,.56,.35,.94,.79,1.15,1.3,.21,.51,.31,1.28,.31,2.3v4.42l.02,1.15c0,.69,.04,1.19,.12,1.51,.08,.32,.24,.58,.47,.8,.28,.27,.8,.48,1.56,.62v.32h-6.7v-.32c.54-.07,.92-.16,1.14-.26s.43-.27,.61-.52c.18-.25,.31-.6,.38-1.03s.11-1.08,.11-1.92v-4.8c0-.73-.06-1.3-.17-1.73-.11-.42-.3-.79-.56-1.11-.51-.6-1.24-.89-2.18-.89-2.44,0-3.66,1.93-3.66,5.79v3.55c.01,.69,.06,1.19,.14,1.51,.08,.32,.24,.58,.47,.8,.28,.27,.8,.48,1.56,.62v.32h-6.7v-.32c.61-.08,1.04-.19,1.31-.34,.26-.15,.48-.4,.64-.75,.11-.23,.19-.58,.24-1.05,.05-.47,.07-1.15,.07-2.04v-11.89c0-1.03-.03-1.76-.08-2.18s-.16-.77-.33-1.03c-.17-.28-.38-.48-.62-.61-.24-.12-.59-.2-1.05-.23v-.33l4.37-.55Z"/><path class="cls-5" d="M6.05,61.15s1.37-30.4,15.15-36.27c0,0,13.2-7.7,37.75,12.72,0,0-18.81-8.08-31.74-2.15,0,0-13.73,4.63-21.16,25.7Z"/><path class="cls-6" d="M.46,48.88s2.83,20.02,16.21,28.71c0,0,9.16,8.51,32.7,2.92,0,0-24.14,15.63-38.88,7.47,0,0-13.09-5.63-10.03-39.09Z"/><rect class="cls-1" x="27.71" y="42.41" width="10.81" height="32.97" rx="1.72" ry="1.72"/><rect class="cls-1" x="27.71" y="42.41" width="10.81" height="32.97" rx="1.72" ry="1.72" transform="translate(92.01 25.79) rotate(90)"/><g><path class="cls-6" d="M81.04,95.54l-2.29-8.76h1.98l1.44,6.02,1.75-6.02h2.3l1.68,6.12,1.47-6.12h1.95l-2.33,8.76h-2.05l-1.91-6.55-1.9,6.55h-2.1Z"/><path class="cls-6" d="M92.3,95.54v-8.76h7.1v1.48h-5.17v1.94h4.81v1.48h-4.81v2.38h5.35v1.48h-7.28Z"/><path class="cls-6" d="M104.46,92.69l1.88-.17c.11,.58,.34,1,.69,1.27,.35,.27,.81,.41,1.4,.41,.62,0,1.09-.12,1.41-.36s.47-.52,.47-.85c0-.21-.07-.38-.2-.53-.13-.15-.36-.27-.7-.38-.23-.07-.74-.2-1.55-.38-1.04-.23-1.76-.52-2.18-.87-.59-.48-.88-1.07-.88-1.76,0-.45,.14-.86,.41-1.25,.28-.39,.67-.68,1.2-.89s1.15-.3,1.88-.3c1.2,0,2.11,.24,2.71,.72,.61,.48,.93,1.13,.96,1.93l-1.93,.08c-.08-.45-.26-.77-.53-.97-.27-.2-.68-.3-1.22-.3s-1,.11-1.32,.32c-.2,.14-.31,.32-.31,.54,0,.21,.1,.38,.29,.53,.24,.19,.84,.38,1.78,.59,.94,.2,1.64,.41,2.09,.63,.45,.22,.8,.51,1.06,.89,.25,.38,.38,.84,.38,1.39,0,.5-.15,.97-.46,1.41-.3,.44-.74,.76-1.29,.98-.56,.21-1.25,.32-2.08,.32-1.21,0-2.14-.26-2.79-.77s-1.04-1.26-1.16-2.24Z"/><path class="cls-6" d="M113.86,86.78h1.93v4.74c0,.75,.02,1.24,.07,1.46,.08,.36,.28,.65,.59,.86s.74,.33,1.28,.33,.96-.1,1.24-.31c.28-.2,.45-.46,.5-.76,.06-.3,.08-.79,.08-1.49v-4.85h1.93v4.6c0,1.05-.05,1.79-.16,2.23s-.3,.8-.58,1.1c-.28,.3-.66,.54-1.13,.71-.47,.18-1.08,.27-1.84,.27-.91,0-1.61-.1-2.08-.29-.47-.19-.85-.44-1.12-.75-.27-.31-.46-.63-.54-.97-.13-.5-.19-1.24-.19-2.22v-4.67Z"/><path class="cls-6" d="M123.54,95.54v-8.76h4.07c1.02,0,1.77,.08,2.23,.24,.46,.16,.84,.44,1.11,.84s.42,.86,.42,1.38c0,.66-.21,1.2-.63,1.63-.42,.43-1.05,.7-1.89,.81,.42,.22,.76,.47,1.04,.73s.64,.74,1.1,1.42l1.17,1.71h-2.31l-1.4-1.91c-.5-.68-.84-1.11-1.02-1.29s-.38-.3-.58-.37c-.2-.07-.53-.1-.97-.1h-.39v3.66h-1.93Zm1.93-5.05h1.43c.93,0,1.51-.04,1.74-.11,.23-.07,.41-.2,.54-.37,.13-.18,.2-.39,.2-.66,0-.29-.09-.53-.26-.71-.17-.18-.41-.3-.73-.34-.16-.02-.63-.03-1.41-.03h-1.51v2.22Z"/><path class="cls-6" d="M133.2,95.54v-8.76h4.07c1.02,0,1.77,.08,2.23,.24,.46,.16,.84,.44,1.11,.84s.42,.86,.42,1.38c0,.66-.21,1.2-.63,1.63-.42,.43-1.05,.7-1.89,.81,.42,.22,.76,.47,1.04,.73s.64,.74,1.1,1.42l1.17,1.71h-2.31l-1.4-1.91c-.5-.68-.84-1.11-1.02-1.29s-.38-.3-.58-.37c-.2-.07-.53-.1-.97-.1h-.39v3.66h-1.93Zm1.93-5.05h1.43c.93,0,1.51-.04,1.74-.11,.23-.07,.41-.2,.54-.37,.13-.18,.2-.39,.2-.66,0-.29-.09-.53-.26-.71-.17-.18-.41-.3-.73-.34-.16-.02-.63-.03-1.41-.03h-1.51v2.22Z"/><path class="cls-6" d="M142.46,91.21c0-.89,.15-1.64,.44-2.25,.22-.45,.52-.85,.89-1.2s.79-.62,1.24-.79c.6-.23,1.28-.35,2.06-.35,1.41,0,2.54,.4,3.39,1.2s1.27,1.91,1.27,3.34-.42,2.52-1.26,3.32c-.84,.8-1.96,1.2-3.37,1.2s-2.56-.4-3.4-1.19c-.84-.8-1.26-1.89-1.26-3.28Zm1.99-.06c0,.99,.25,1.74,.75,2.26s1.14,.77,1.91,.77,1.4-.25,1.9-.76c.49-.51,.74-1.27,.74-2.28s-.24-1.75-.72-2.25c-.48-.49-1.12-.74-1.92-.74s-1.44,.25-1.93,.75c-.49,.5-.73,1.25-.73,2.26Z"/><path class="cls-6" d="M153.25,86.78h1.93v4.74c0,.75,.02,1.24,.07,1.46,.08,.36,.28,.65,.59,.86,.31,.22,.74,.33,1.28,.33s.96-.1,1.24-.31c.28-.2,.45-.46,.5-.76s.08-.79,.08-1.49v-4.85h1.93v4.6c0,1.05-.05,1.79-.16,2.23s-.3,.8-.58,1.1c-.28,.3-.66,.54-1.13,.71-.47,.18-1.08,.27-1.84,.27-.91,0-1.61-.1-2.08-.29-.47-.19-.85-.44-1.12-.75-.27-.31-.46-.63-.54-.97-.13-.5-.19-1.24-.19-2.22v-4.67Z"/><path class="cls-6" d="M162.94,95.54v-8.76h1.88l3.92,5.85v-5.85h1.8v8.76h-1.94l-3.86-5.71v5.71h-1.8Z"/><path class="cls-6" d="M172.58,86.78h3.53c.8,0,1.4,.06,1.82,.17,.56,.15,1.04,.42,1.44,.81,.4,.39,.71,.86,.91,1.42,.21,.56,.31,1.25,.31,2.07,0,.72-.1,1.34-.29,1.86-.24,.64-.58,1.15-1.03,1.55-.34,.3-.79,.53-1.36,.7-.43,.12-1,.19-1.71,.19h-3.64v-8.76Zm1.93,1.48v5.8h1.44c.54,0,.93-.03,1.17-.08,.31-.07,.57-.19,.78-.36s.38-.45,.51-.85c.13-.39,.2-.93,.2-1.6s-.07-1.2-.2-1.56-.31-.65-.55-.85-.53-.34-.89-.41c-.27-.06-.8-.08-1.59-.08h-.87Z"/><path class="cls-6" d="M188.24,95.54v-3.69l-3.51-5.07h2.27l2.25,3.47,2.21-3.47h2.23l-3.52,5.08v3.67h-1.93Z"/><path class="cls-6" d="M194.25,91.21c0-.89,.15-1.64,.44-2.25,.22-.45,.52-.85,.89-1.2,.38-.35,.79-.62,1.24-.79,.6-.23,1.28-.35,2.06-.35,1.41,0,2.54,.4,3.39,1.2s1.27,1.91,1.27,3.34-.42,2.52-1.26,3.32c-.84,.8-1.96,1.2-3.37,1.2s-2.56-.4-3.4-1.19c-.84-.8-1.26-1.89-1.26-3.28Zm1.99-.06c0,.99,.25,1.74,.75,2.26,.5,.51,1.14,.77,1.91,.77s1.4-.25,1.9-.76c.49-.51,.74-1.27,.74-2.28s-.24-1.75-.72-2.25-1.12-.74-1.92-.74-1.44,.25-1.93,.75c-.49,.5-.73,1.25-.73,2.26Z"/><path class="cls-6" d="M205.04,86.78h1.93v4.74c0,.75,.02,1.24,.07,1.46,.08,.36,.28,.65,.59,.86,.31,.22,.74,.33,1.28,.33s.96-.1,1.24-.31c.28-.2,.45-.46,.5-.76s.08-.79,.08-1.49v-4.85h1.93v4.6c0,1.05-.05,1.79-.16,2.23s-.3,.8-.58,1.1c-.28,.3-.66,.54-1.13,.71-.47,.18-1.08,.27-1.84,.27-.91,0-1.61-.1-2.08-.29-.47-.19-.85-.44-1.12-.75-.27-.31-.46-.63-.54-.97-.13-.5-.19-1.24-.19-2.22v-4.67Z"/><path class="cls-6" d="M219.79,95.54l-2.29-8.76h1.98l1.44,6.02,1.75-6.02h2.3l1.68,6.12,1.47-6.12h1.95l-2.33,8.76h-2.05l-1.91-6.55-1.9,6.55h-2.1Z"/><path class="cls-6" d="M231,95.54v-8.76h1.93v8.76h-1.93Z"/><path class="cls-6" d="M236.93,95.54v-7.28h-2.84v-1.48h7.61v1.48h-2.84v7.28h-1.93Z"/><path class="cls-6" d="M242.95,95.54v-8.76h1.93v3.45h3.79v-3.45h1.93v8.76h-1.93v-3.83h-3.79v3.83h-1.93Z"/><path class="cls-6" d="M262.45,92.32l1.87,.54c-.29,.96-.77,1.67-1.43,2.13-.67,.46-1.52,.7-2.54,.7-1.27,0-2.32-.4-3.14-1.19-.82-.8-1.23-1.88-1.23-3.26,0-1.46,.41-2.59,1.23-3.4,.82-.81,1.91-1.21,3.25-1.21,1.17,0,2.12,.32,2.85,.95,.44,.37,.76,.91,.98,1.61l-1.91,.42c-.11-.45-.35-.81-.71-1.08-.36-.26-.8-.39-1.31-.39-.71,0-1.29,.23-1.73,.7s-.66,1.22-.66,2.26c0,1.11,.22,1.9,.65,2.37s1,.7,1.7,.7c.51,0,.96-.15,1.33-.45,.37-.3,.64-.77,.8-1.41Z"/><path class="cls-6" d="M274.62,95.54h-2.1l-.84-1.99h-3.83l-.79,1.99h-2.05l3.73-8.76h2.05l3.83,8.76Zm-3.56-3.47l-1.32-3.25-1.29,3.25h2.61Z"/><path class="cls-6" d="M275.65,95.54v-8.76h4.07c1.02,0,1.77,.08,2.23,.24,.46,.16,.84,.44,1.11,.84s.42,.86,.42,1.38c0,.66-.21,1.2-.63,1.63-.42,.43-1.05,.7-1.89,.81,.42,.22,.76,.47,1.04,.73s.64,.74,1.1,1.42l1.17,1.71h-2.31l-1.4-1.91c-.5-.68-.84-1.11-1.02-1.29-.18-.18-.38-.3-.58-.37-.2-.07-.53-.1-.97-.1h-.39v3.66h-1.93Zm1.93-5.05h1.43c.93,0,1.51-.04,1.74-.11s.41-.2,.54-.37,.2-.39,.2-.66c0-.29-.09-.53-.26-.71-.17-.18-.41-.3-.73-.34-.16-.02-.63-.03-1.41-.03h-1.51v2.22Z"/><path class="cls-6" d="M285.31,95.54v-8.76h7.1v1.48h-5.17v1.94h4.81v1.48h-4.81v2.38h5.35v1.48h-7.28Z"/></g><polygon class="cls-3" points="387.87 80.95 400.18 80.95 400.18 85.94 382.9 85.94 382.9 70.94 398.89 70.94 398.89 75.89 387.87 75.89 387.87 80.95"/><rect class="cls-3" x="382.9" y="60.86" width="16.63" height="4.98"/><rect class="cls-3" x="371.19" y="70.94" width="4.97" height="15"/><polygon class="cls-3" points="376.16 60.86 376.16 65.84 370.7 65.84 364.1 85.94 360 85.94 353.53 66.32 353.53 85.94 348.56 85.94 348.56 60.86 356.68 60.86 362.18 77.67 367.72 60.86 376.16 60.86"/><polygon class="cls-3" points="471.5 60.83 462.28 75.07 462.23 85.93 457.25 85.93 457.25 75.15 447.97 60.83 454.17 60.83 459.73 69.38 465.62 60.83 471.5 60.83"/><path class="cls-3" d="M440.87,81.3c.83-.45,1.54-1.07,2.11-1.85l4.15,3.13c-1.01,1.34-2.28,2.35-3.78,3.01-1.6,.71-3.27,1.06-4.97,1.06-1.94,0-3.75-.31-5.38-.92-1.63-.6-3.05-1.49-4.23-2.63-1.19-1.13-2.12-2.53-2.78-4.15-.66-1.62-1-3.46-1-5.46s.34-3.84,1-5.46c.66-1.62,1.59-3.01,2.78-4.15,1.18-1.13,2.6-2.02,4.23-2.63,1.63-.61,3.44-.92,5.38-.92,.7,0,1.43,.07,2.19,.19,.75,.13,1.51,.33,2.23,.62,.73,.27,1.44,.66,2.11,1.12,.58,.4,1.12,.9,1.59,1.47l-3.82,3.15c-.54-.6-1.19-1.07-1.93-1.4-.84-.38-1.82-.57-2.91-.57s-2.12,.22-3.05,.64c-.93,.43-1.75,1.04-2.43,1.8-.68,.76-1.23,1.68-1.6,2.73-.38,1.04-.58,2.19-.58,3.41s.2,2.4,.58,3.42c.38,1.03,.91,1.94,1.58,2.71,.67,.77,1.48,1.37,2.38,1.79,.91,.43,1.9,.65,2.96,.65,1.19,0,2.27-.26,3.2-.77"/><path class="cls-4" d="M380.9,66.58s-.38-6.39-.8-10.75h-1.24c-.42,4.36-.8,10.75-.8,10.75,0,0-3.73,.36-6.9,.87v1.37c3.51,.45,6.9,.66,6.9,.66,0,0,.03,9.2,.8,22.29h1.24c.78-13.09,.8-22.29,.8-22.29,0,0,3.4-.21,6.9-.66v-1.36c-3.17-.51-6.9-.87-6.9-.87"/><polygon class="cls-4" points="526.9 60.98 542.48 60.98 542.48 63.98 529.84 63.98 529.84 71.3 541.64 71.3 541.64 74.3 529.84 74.3 529.84 82.92 543.11 82.92 543.11 85.91 526.9 85.91 526.9 60.98"/><polygon class="cls-4" points="501.51 60.98 505.21 60.98 519.56 81.3 519.62 81.3 519.62 60.98 522.57 60.98 522.57 85.91 518.86 85.91 504.51 65.59 504.44 65.59 504.44 85.91 501.51 85.91 501.51 60.98"/><path class="cls-4" d="M496.93,68.26c-.64-1.61-1.54-2.99-2.7-4.15-1.14-1.17-2.52-2.07-4.09-2.74-1.57-.66-3.31-.99-5.19-.99s-3.63,.33-5.2,.99c-1.57,.66-2.94,1.57-4.09,2.74-1.16,1.16-2.05,2.55-2.7,4.15-.64,1.61-.96,3.36-.96,5.24s.31,3.62,.96,5.23c.64,1.61,1.54,3,2.7,4.16,1.15,1.16,2.52,2.07,4.09,2.73,1.57,.66,3.31,.99,5.2,.99s3.62-.33,5.19-.99c1.57-.66,2.95-1.57,4.09-2.73,1.16-1.16,2.06-2.55,2.7-4.16,.64-1.61,.96-3.35,.96-5.23s-.31-3.63-.96-5.24Zm-2.91,9.27c-.47,1.26-1.14,2.36-2,3.3-.86,.94-1.9,1.68-3.1,2.22-1.21,.54-2.53,.81-3.97,.81s-2.78-.27-3.99-.81c-1.19-.54-2.23-1.28-3.09-2.22-.86-.94-1.53-2.04-2.01-3.3-.47-1.26-.72-2.6-.72-4.03s.24-2.78,.72-4.04c.48-1.26,1.15-2.35,2.01-3.3,.87-.94,1.9-1.68,3.09-2.22,1.2-.54,2.53-.81,3.99-.81s2.76,.27,3.97,.81c1.2,.54,2.24,1.28,3.1,2.22,.86,.95,1.53,2.04,2,3.3,.48,1.26,.73,2.61,.73,4.04s-.24,2.78-.73,4.03Z"/><path class="cls-4" d="M548.78,82.32h.92l.86,2.57h0l.86-2.57h.92v3.62h-.59v-2.91h0l-1,2.91h-.4l-.99-2.91h0v2.91h-.56v-3.62Zm-.99,.75c-.14-.17-.38-.31-.61-.31-.27,0-.59,.14-.59,.5,0,.33,.26,.43,.63,.56,.43,.14,.97,.35,.97,1.06,0,.78-.55,1.16-1.2,1.16-.43,0-.88-.18-1.13-.52l.42-.43c.16,.25,.46,.4,.72,.4s.6-.15,.6-.54-.35-.49-.77-.63c-.4-.13-.83-.35-.83-1.03,0-.73,.61-1.06,1.21-1.06,.33,0,.71,.13,.96,.39l-.37,.46Z"/><path d="M355.22,41.93l-1.6-4.63-1.63,4.63h3.22Zm-2.34-7.04h1.6l4.47,11.39h-2.11l-.97-2.61h-4.5l-.94,2.61h-2.07l4.51-11.39Z"/><path d="M359.96,38.42h1.7v1.26h.03c.17-.39,.42-.73,.77-1.02,.35-.29,.82-.44,1.42-.44,.48,0,.88,.09,1.22,.27,.33,.18,.6,.4,.81,.68,.21,.29,.35,.61,.45,.98,.09,.37,.13,.76,.13,1.16v4.96h-1.79v-3.97c0-.22,0-.46-.03-.73-.02-.27-.07-.52-.16-.76-.08-.23-.22-.43-.39-.59-.18-.16-.42-.23-.73-.23s-.55,.06-.75,.16c-.2,.11-.37,.26-.5,.44-.14,.19-.23,.4-.29,.64-.06,.24-.09,.49-.09,.75v4.29h-1.78v-7.85Z"/><path d="M378.88,41.86l-1.62-4.72-1.65,4.72h3.28Zm-2.38-7.17h1.63l4.54,11.58h-2.15l-.98-2.65h-4.58l-.95,2.65h-2.1l4.59-11.58Z"/><path d="M384.32,40.09h-1.48v-1.67h1.48v-1.11c0-.55,.04-1.04,.11-1.48,.07-.44,.2-.82,.39-1.13,.19-.32,.46-.56,.81-.73,.34-.17,.8-.25,1.35-.25,.4,0,.78,.04,1.13,.12l-.12,1.67c-.13-.03-.25-.06-.37-.09-.12-.02-.24-.03-.37-.03-.25,0-.45,.04-.6,.13-.15,.08-.27,.2-.35,.35-.08,.14-.14,.32-.17,.51-.03,.2-.03,.4-.03,.63v1.42h1.65v1.67h-1.65v6.19h-1.79v-6.19Z"/><path d="M393.9,38.42h1.79v7.85h-1.79v-7.85Zm-.24-2.67c0-.32,.11-.6,.32-.83,.21-.23,.48-.35,.81-.35s.6,.11,.83,.34c.22,.23,.33,.51,.33,.85s-.11,.62-.33,.84c-.22,.23-.5,.33-.83,.33s-.6-.11-.81-.35c-.22-.24-.32-.51-.32-.82m-4.36,4.33h-1.48v-1.67h1.48v-1.11c0-.55,.03-1.04,.11-1.48,.07-.44,.2-.82,.39-1.13,.19-.32,.46-.56,.81-.73,.34-.17,.8-.25,1.35-.25,.41,0,.78,.04,1.13,.12l-.12,1.67c-.13-.03-.25-.06-.37-.09-.12-.02-.24-.03-.37-.03-.25,0-.45,.04-.59,.13-.15,.08-.27,.2-.35,.35-.08,.14-.14,.32-.16,.51-.02,.2-.04,.4-.04,.63v1.42h1.65v1.67h-1.65v6.19h-1.79v-6.19Z"/><rect x="397.52" y="33.91" width="1.79" height="12.37"/><path d="M401.41,38.42h1.79v7.85h-1.79v-7.85Zm-.25-2.67c0-.32,.11-.6,.32-.83,.22-.23,.49-.35,.81-.35s.6,.11,.83,.34c.22,.23,.33,.51,.33,.85s-.11,.62-.33,.84c-.22,.23-.5,.33-.83,.33s-.6-.11-.81-.35c-.21-.24-.32-.51-.32-.82"/><path d="M409.62,42.76h-.37c-.25,0-.53,.01-.83,.03-.31,.02-.6,.07-.87,.15-.27,.09-.5,.21-.69,.37-.19,.15-.28,.38-.28,.66,0,.18,.04,.34,.11,.46,.07,.12,.17,.23,.29,.33,.12,.08,.25,.15,.4,.18,.15,.03,.29,.06,.45,.06,.61,0,1.07-.17,1.36-.49,.29-.32,.44-.77,.44-1.32v-.43Zm.1,2.43h-.05c-.26,.45-.59,.77-.98,.97-.4,.2-.83,.3-1.31,.3-.33,0-.65-.05-.96-.15-.31-.1-.59-.24-.84-.44-.24-.19-.44-.44-.59-.73-.15-.29-.22-.64-.22-1.03,0-.43,.07-.79,.21-1.09,.14-.3,.33-.56,.56-.76,.23-.2,.51-.37,.81-.48,.31-.12,.63-.21,.96-.27,.33-.06,.67-.09,1-.12,.34-.01,.66-.02,.95-.02h.45v-.21c0-.49-.16-.86-.46-1.11-.31-.25-.7-.37-1.18-.37-.38,0-.73,.08-1.06,.23-.33,.14-.61,.34-.85,.59l-.94-1.03c.4-.45,.86-.76,1.39-.96,.53-.2,1.08-.3,1.65-.3,.5,0,.93,.07,1.28,.19,.35,.13,.63,.28,.86,.48,.23,.2,.41,.42,.53,.67,.12,.26,.21,.52,.27,.78,.05,.27,.09,.52,.1,.76,0,.25,.01,.46,.01,.65v4.51h-1.61v-1.08Z"/><path d="M412.42,40.09v-1.67h1.47v-2.28h1.79v2.28h1.97v1.67h-1.97v3.44c0,.39,.06,.7,.2,.94,.13,.23,.4,.34,.8,.34,.16,0,.33-.02,.52-.05,.19-.04,.34-.1,.45-.19v1.66c-.19,.1-.42,.17-.69,.2-.27,.04-.52,.06-.72,.06-.48,0-.87-.06-1.17-.17-.3-.11-.54-.29-.72-.53-.18-.22-.29-.52-.36-.87-.06-.35-.1-.75-.1-1.21v-3.6h-1.47Z"/><path d="M424.15,41.56c-.01-.58-.18-1.03-.49-1.36-.32-.33-.76-.5-1.33-.5-.53,0-.96,.18-1.27,.51-.31,.34-.5,.79-.57,1.36h3.67Zm-3.67,1.48c.06,.59,.27,1.05,.63,1.37,.36,.33,.79,.49,1.3,.49,.45,0,.82-.1,1.12-.3,.3-.2,.57-.46,.8-.76l1.28,1.06c-.42,.57-.89,.97-1.4,1.21-.52,.24-1.06,.36-1.62,.36-.54,0-1.04-.1-1.52-.29-.48-.2-.89-.48-1.24-.84-.35-.37-.63-.79-.83-1.3-.2-.51-.3-1.07-.3-1.69s.1-1.19,.3-1.69c.2-.51,.48-.95,.83-1.31,.35-.36,.76-.64,1.24-.83,.47-.2,.98-.3,1.52-.3,.5,0,.95,.1,1.36,.29,.41,.19,.77,.47,1.06,.83,.29,.35,.52,.8,.68,1.33,.16,.53,.24,1.14,.24,1.83v.54h-5.45Z"/><path d="M433.44,42.35c0,.3,.05,.6,.14,.88,.09,.29,.23,.53,.42,.75,.18,.22,.4,.39,.66,.53,.26,.13,.55,.19,.88,.19s.62-.06,.88-.19c.26-.13,.48-.31,.66-.53,.18-.22,.32-.47,.42-.75,.1-.28,.14-.58,.14-.88s-.05-.61-.14-.89c-.09-.28-.23-.54-.42-.75-.18-.22-.41-.39-.66-.52-.26-.13-.55-.2-.88-.2s-.62,.06-.88,.2c-.26,.13-.48,.3-.66,.52-.18,.22-.32,.47-.42,.75-.1,.28-.14,.57-.14,.89m-1.79,0c0-.63,.1-1.19,.31-1.69,.2-.51,.48-.95,.83-1.31,.35-.36,.76-.64,1.24-.83,.48-.2,.98-.3,1.52-.3s1.04,.1,1.52,.3c.48,.19,.89,.47,1.24,.83,.35,.36,.62,.79,.83,1.31,.2,.5,.3,1.07,.3,1.69s-.1,1.18-.3,1.69c-.2,.51-.48,.93-.83,1.3-.35,.36-.76,.63-1.24,.84-.48,.19-.98,.29-1.52,.29s-1.04-.1-1.52-.29c-.48-.2-.89-.48-1.24-.84-.35-.37-.62-.79-.83-1.3-.2-.51-.31-1.07-.31-1.69"/><path d="M441.74,40.09h-1.47v-1.67h1.47v-1.11c0-.55,.03-1.04,.1-1.48,.07-.44,.2-.82,.4-1.13,.19-.32,.46-.56,.81-.73,.34-.17,.8-.25,1.35-.25,.41,0,.78,.04,1.13,.12l-.12,1.67c-.13-.03-.25-.06-.37-.09-.12-.02-.25-.03-.37-.03-.25,0-.45,.04-.6,.13-.15,.08-.26,.2-.35,.35-.08,.14-.14,.32-.16,.51-.03,.2-.04,.4-.04,.63v1.42h1.65v1.67h-1.65v6.19h-1.79v-6.19Z"/><rect x="322.25" y="0" width="1.3" height="123.2"/><path class="cls-3" d="M416.94,75.38s5.49-.36,5.49-7.68c0-1.38-.15-6.83-9.3-6.83h-9.52v25.08h4.97v-10.2h3.26l5.56,10.2h5.96l-6.42-10.57Zm-1.51-4.22c-.49,.19-1.03,.3-1.62,.34-1.74,.12-3.49,.07-5.23,.05,0-2.14,0-4.29,0-6.43,1.86,.07,3.74-.15,5.58,.14,.74,.11,1.49,.32,2.06,.81,.89,.76,1.22,2.16,.88,3.26-.26,.83-.86,1.5-1.66,1.82Z"/></svg>