<?xml version="1.0" encoding="utf-8"?>
<!-- Generator: Adobe Illustrator 26.0.1, SVG Export Plug-In . SVG Version: 6.00 Build 0)  -->
<svg version="1.1" id="Layer_1" xmlns="http://www.w3.org/2000/svg" xmlns:xlink="http://www.w3.org/1999/xlink" x="0px" y="0px"
	 viewBox="0 0 468.1 46" style="enable-background:new 0 0 468.1 46;" xml:space="preserve">
<style type="text/css">
	.st0{fill:#D2BDB2;}
</style>
<g>
	<path class="st0" d="M11.4,41l-4.5,2.8c0,0-6.8-9-6.8-21.4C0.1,9.9,6.9,1,6.9,1l4.5,2.7c0,0-5.9,7.8-5.9,18.6
		C5.5,33.2,11.4,41,11.4,41z"/>
	<path d="M42.3,35.9c-1.1-3.2-2.9-7.8-4.5-11.8H24.4l-4.9,11.8c-1.3,0-1.5,0-1.5,0L32.1,1.8h0.4c0,0,0.7,2.2,1.3,3.5
		c4.4,10.9,10.7,25.9,12.8,30.6H42.3z M37.2,22.7c-2.7-6.6-6.1-15-6.1-15V7.1l-6.2,15.6H37.2z"/>
	<path d="M67.1,35.9l-0.5-4.4c-1.9,3.1-3.8,5-8.5,5c-6.9,0-9.9-5.6-9.9-11.6c0-6.2,3.6-11.9,10.3-11.9c4.7,0,6.7,2.5,7.9,4.4
		c0-6.2,0-17.4,0-17.4h3.2l-0.1,35.8H67.1z M66.5,25c0-5.4-2.4-10.6-7.1-10.6c-6.1,0-7.6,5.9-7.6,11.2c0,4.4,1.9,9.6,7.2,9.6
		C64.5,35.2,66.5,29.4,66.5,25z"/>
	<path d="M95.7,35.4c-0.9,0.4-1.7,0.5-2.8,0.5c-2.2,0-3.5-1-3.7-3c-2.5,2.5-4.1,3.5-7.8,3.5c-3.3,0-6.1-2.2-6.1-5.7
		c0-8,12.2-8.2,13.7-9.4c0.3-0.2,0.2-1.1,0.2-1.5c0-3.8-1.6-5.7-5.5-5.7c-2.8,0-5.2,1.9-6.3,3.4v-2.3c2-1.6,4.9-2.7,7.7-2.7
		c4.5,0,7.5,2.6,7.5,7.2c0,3.8,0.1,7.5,0.1,11.3c0,2,0.4,4.2,3,3.7L95.7,35.4z M89.2,22.6c-3.8,1.2-10.1,2.3-10.1,7.5
		c0,3.3,1.6,4.7,4.5,4.7c1.9,0,4.2-1.5,5.6-3.4V22.6z"/>
	<path d="M99.7,45.7l0.1-32.4l2.4,0l0.5,4.5c1.9-3.1,3.8-5,8.5-5c6.9,0,10,5.6,10,11.6c0,6.2-3.6,11.9-10.4,11.9
		c-4.7,0-6.7-2.5-7.9-4.4c0,6.2,0.1,7.8,0.1,14H99.7z M117.4,23.5c0-4.4-2-9.6-7.2-9.6c-5.6,0-7.6,5.9-7.6,10.2
		c0,5.4,2.5,10.7,7.1,10.7C115.9,34.7,117.4,28.8,117.4,23.5z"/>
	<path d="M137,35.7c-1.2,0.4-2.6,0.6-3.9,0.6c-3.5,0-5.5-2.1-5.5-5.6V15h-3.4v-1.2h3.4l0-5.5l3.5-1.2v6.7h5.1V15H131c0,0,0,9.8,0,14
		c0,3,0.2,6.4,4,6.4c0.6,0,1.3-0.2,1.9-0.3V35.7z"/>
	<path d="M141.7,4.7c0-1.2,1.1-2.3,2.3-2.3c1.3,0,2.3,1,2.3,2.3c0,1.3-1,2.4-2.3,2.4C142.8,7.1,141.7,6,141.7,4.7z M142.1,35.9V13.8
		h3.4v22.2H142.1z"/>
	<path d="M160.7,35.9c-2-4.6-7.6-17.7-9.7-22.2h4c2.4,5.9,5.9,14.2,8.3,19.8c1.4-3,6.9-16.9,8.1-19.8l2.2,0c-3,6.1-8,17.3-10.1,22.1
		L160.7,35.9z"/>
	<path d="M195.1,33.7c-2.4,1.7-5.3,2.8-8.2,2.8c-6.9,0-11.4-5.2-11.4-11.9c0-6.7,4.7-11.9,10.9-11.9c5.9,0,10,3.8,10,9.8
		c0,0.5,0,1.1-0.1,1.6c-2.5,0-14.7-0.1-17.1,0c0,0.4-0.1,0.8-0.1,1.2c0,5.5,3.2,9.8,9,9.8c2.2,0,5.8-1.4,7.2-3.2L195.1,33.7z
		 M186.4,13.9c-4.6,0-6.9,4.6-7.2,8.9c2.3,0,11.5,0,13.8,0C192.9,18.4,191.7,13.9,186.4,13.9z"/>
	<path class="st0" d="M206.5,3.7L211,1c0,0,6.8,8.9,6.8,21.3c0,12.4-6.8,21.4-6.8,21.4l-4.5-2.8c0,0,5.9-7.8,5.9-18.6
		C212.4,11.5,206.5,3.7,206.5,3.7z"/>
	<path d="M256,21.3h3.8l0,12.5c-3.2,1.4-8.9,2.6-12.4,2.6c-8.7,0-17.8-5.7-17.8-16.8c0-9.5,6.6-17.7,17.4-17.7c4.9,0,8.7,1.1,12.6,4
		l-1.2,3.2c-3.1-4.8-6.6-5.7-10.6-5.7c-9.5,0-14,8.5-14,16.2c0,9.6,6.3,15.5,14.8,15.5c2.2,0,5-1,7.4-2.1V21.3z"/>
	<path d="M267.6,45.7c2-3.4,3.8-7,5.5-10.3l-9.8-21.7l4,0l7.7,17.8l7.2-17.8c0.9,0.1,1.7,0.1,2.5,0c-3.8,8.3-7.8,16.8-14.4,31.9
		H267.6z"/>
	<path d="M305.5,35.9c0,0,0-8.7,0-13.9c0-3.3-0.8-7.3-5.8-7.3c-4.3,0-7,4.2-7,9.9v11.4l-3.5,0c0,0,0-17.4,0-22.2h2.4l1,5.1
		c1.5-3.5,4.3-5.7,8.5-5.7c5.1,0,7.8,2.7,7.8,8.6v14.3L305.5,35.9z"/>
	<path d="M333.2,33.7c-2.4,1.7-5.3,2.8-8.2,2.8c-7,0-11.4-5.2-11.4-11.9c0-6.7,4.7-11.9,10.9-11.9c5.9,0,10,3.8,10,9.8
		c0,0.5,0,1.1-0.1,1.6c-2.5,0-14.7-0.1-17.1,0c0,0.4,0,0.8,0,1.2c0,5.5,3.2,9.8,9,9.8c2.2,0,5.8-1.4,7.2-3.2L333.2,33.7z
		 M324.5,13.9c-4.5,0-6.9,4.6-7.2,8.9c2.3,0,11.5,0,13.8,0C331,18.4,329.8,13.9,324.5,13.9z"/>
	<path d="M357.9,34.2c-2.2,1.5-4.7,2.4-7.3,2.4c-7.5,0-12.4-4.1-12.4-11.8c0-7.5,5.2-11.6,12.4-11.6c2.6,0,5.2,0.6,7.5,1.9l-1,2.8
		c-1.6-2.2-3.6-3.5-6.4-3.5c-5.9,0-8.8,4.8-8.8,10.2c0,5.7,3.2,10.8,9.4,10.8c2.8,0,4.8-1.1,6.8-2.9L357.9,34.2z"/>
	<path d="M364.6,32.7c-2.3-2.5-2.8-5.1-2.8-8.3c0-7.2,5.2-11.7,12.1-11.7c6.8,0,11.3,5.2,11.3,11.8c0,7.2-4.9,12-11.9,12
		C369.9,36.5,366.8,35.2,364.6,32.7z M381.4,24.3c0-4.7-2-10.6-7.6-10.6c-6.5,0-8.3,6-8.3,11.4c0,5.1,2.3,10.3,8.1,10.3
		C379.5,35.4,381.4,29.1,381.4,24.3z"/>
	<path d="M390.4,35.9l0-35.9h3.4v35.9H390.4z"/>
	<path d="M401.9,32.7c-2.3-2.5-2.8-5.1-2.8-8.3c0-7.2,5.2-11.7,12.1-11.7c6.8,0,11.3,5.2,11.3,11.8c0,7.2-4.9,12-11.9,12
		C407.2,36.5,404.1,35.2,401.9,32.7z M418.7,24.3c0-4.7-2-10.6-7.6-10.6c-6.5,0-8.3,6-8.3,11.4c0,5.1,2.2,10.3,8.1,10.3
		S418.7,29.1,418.7,24.3z"/>
	<path d="M443.1,11.3c-0.2,0-0.5-0.1-0.7-0.1c-1.2,0-2.2,0.5-2.2,1.8c0,0.5,0.1,1.1,0.5,1.6c1.6,0.9,2.6,3.2,2.6,5.1
		c0,4.4-3.6,6.8-7.7,6.8c-0.5,0-1,0-1.5-0.1c-0.3,0-0.6-0.2-1-0.2c-1.2,0-3,1.1-3,2.5c0,1.9,1.8,2.4,4.1,2.5c2.6,0.1,6,0,8.5,0.9
		c2.3,0.8,3.9,2.5,3.9,6c0,6.3-6.3,8-11.5,8c-3.8,0-9.4-2.2-9.4-6.7c0-2.6,2-5.9,5-5.9c-1.7-0.4-3-1.9-3-3.7c0-2.2,2-3.7,4.1-4
		c-2.4-1.1-3.9-3.5-3.9-6.1c0-4.4,3.6-6.9,7.7-6.9c1.3,0,2.6,0.3,3.8,0.9c-0.2-0.7-0.4-1.4-0.4-2.1c0-2.2,2.5-3.2,4.4-3.2
		L443.1,11.3z M436.3,33.9c-0.8,0-1.5,0-2.2,0c-0.5,0-1,0.1-1.8,0.2c-2.5,0.4-3.6,3.1-3.6,5.4c0,4,3.8,5.4,7.2,5.4
		c3.8,0,7.6-1.5,7.6-5.8C443.5,34.3,440,33.9,436.3,33.9z M439.9,19.7c0-2.7-1.2-5.9-4.4-5.9c-3.1,0-4.4,3.2-4.4,5.9
		c0,2.6,1.3,5.9,4.4,5.9C438.7,25.6,439.9,22.3,439.9,19.7z"/>
	<path d="M451.1,45.7c2-3.4,3.8-7,5.5-10.3l-9.8-21.7l4,0l7.7,17.8l7.2-17.8c0.9,0.1,1.7,0.1,2.5,0c-3.8,8.3-7.8,16.8-14.4,31.9
		H451.1z"/>
</g>
</svg>
