<svg xmlns="http://www.w3.org/2000/svg" xmlns:xlink="http://www.w3.org/1999/xlink" width="120" height="179"><symbol id="icon-adena-logo" viewBox="0 0 120 75"><g id="Symbols" stroke="none" stroke-width="1" fill="none" fill-rule="evenodd"><g id="Primary-Navigation" transform="translate(-51 -13)"><g id="adena-logo" transform="translate(51 13)"><path id="Fill-6" fill="#024EA8" d="M.736 13.88l110.661 4.527v45.89H2.31L1.26 14.93z"/><path d="M117.326 55.917l-4.477-.207V16.253L50.075 14.58v-4.296l67.251-1.658v47.29zm-7.15 6.97H2.674v-47.55l107.502 3.454v44.096zm-42.785 6.27l-38.747 2.398V65.56H67.39v3.596zM28.644 2.87L67.39 4.078v3.12l-19.99.476v6.757l-18.757-.648V2.871zm41.421 4.264v-5.55L25.965 0v13.617L0 12.502V65.56h25.965v8.876l44.1-2.792V65.56h42.784V58.39l7.151.047V5.89L70.065 7.135z" id="Fill-7" fill="#FFF"/><path id="Fill-8" fill="#73BE44" d="M117.326 8.627v47.29l-4.477-.207V16.252l-62.774-1.67v-4.297z"/><path id="Fill-9" fill="#029DD3" d="M67.391 65.56v3.596l-38.747 2.4V65.56z"/><path id="Fill-10" fill="#029DD3" d="M67.391 4.078v3.12l-19.99.476v6.757l-18.757-.648V2.87z"/><path d="M15.97 28.223l2.45 7.542h-5.058l2.453-7.542h.156zm-3.678 10.83h7.195l1.476 4.545h4.515l-6.87-19.93h-5.43l-6.88 19.93h4.515l1.479-4.544z" id="Fill-11" fill="#FFF"/><path d="M32.908 39.988V27.279h2.686c1.245 0 2.293.22 3.143.662.85.44 1.49 1.129 1.922 2.063.431.934.647 2.137.647 3.61 0 1.486-.216 2.697-.647 3.635-.432.937-1.074 1.628-1.927 2.073-.853.444-1.902.666-3.148.666h-2.676zm8.072 2.413c1.457-.797 2.576-1.942 3.358-3.435.781-1.492 1.172-3.276 1.172-5.352 0-2.07-.39-3.847-1.172-5.333-.782-1.485-1.897-2.626-3.343-3.42-1.447-.795-3.173-1.192-5.177-1.192h-7.124v19.93h7.065c2.024 0 3.765-.4 5.221-1.198z" id="Fill-12" fill="#FFF"/><path id="Fill-14" fill="#FFF" d="M62.914 40.124H53.66v-4.758h8.525v-3.474H53.66v-4.75h9.215v-3.474H49.446v19.93h13.468z"/><path id="Fill-16" fill="#FFF" d="M71.269 31.055h.146l8.67 12.543h3.64v-19.93h-4.194v12.535h-.175l-8.603-12.535h-3.698v19.93h4.214z"/><path d="M96.614 28.223l2.449 7.542h-5.058l2.453-7.542h.156zm-3.68 10.83h7.197l1.475 4.545h4.515l-6.87-19.93h-5.43l-6.88 19.93h4.515l1.479-4.544z" id="Fill-18" fill="#FFF"/><path id="Fill-20" fill="#FFF" d="M28.107 52.058h-4.54v-3.992h-1.326v9.205h1.327v-4.01h4.539v4.01h1.326v-9.205h-1.326z"/><path id="Fill-22" fill="#FFF" d="M36.967 53.262h4.045v-1.204h-4.045V49.27h4.325v-1.204H35.64v9.205h5.72v-1.204h-4.394z"/><path d="M49.192 53.529l1.3-3.664 1.3 3.664h-2.6zm1.944-5.463h-1.289l-3.32 9.044-.06.161h1.396l.901-2.538h3.456l.9 2.538h1.396l-3.35-9.126-.03-.08z" id="Fill-24" fill="#FFF"/><path id="Fill-26" fill="#FFF" d="M61.228 48.066H59.9v9.205h5.494v-1.204h-4.167z"/><path id="Fill-28" fill="#FFF" d="M69.431 49.27h2.82v8.001h1.326V49.27h2.819v-1.204H69.43z"/><path id="Fill-30" fill="#FFF" d="M87.979 48.066v3.992h-4.54v-3.992h-1.326v9.205h1.326v-4.01h4.54v4.01h1.326v-9.205z"/></g></g></g></symbol><use xlink:href="#icon-adena-logo" width="120" height="75"/><symbol id="icon-info-monotype" viewBox="0 0 28 28"><g id="Desktop" stroke="none" stroke-width="1" fill="none" fill-rule="evenodd"><g id="Contact-Us" transform="translate(-605 -738)" fill="#029DD3"><g id="Group-12" transform="translate(225 695.5)"><g id="Organization-/-Status-/-information-/-32" transform="translate(378 40.5)"><path d="M17 22v-8h-4v2h2v6h-3v2h8v-2h-3zM16 8a1.5 1.5 0 100 3 1.5 1.5 0 000-3zm0 22C8.268 30 2 23.732 2 16S8.268 2 16 2s14 6.268 14 14a14 14 0 01-14 14zm0-26C9.373 4 4 9.373 4 16s5.373 12 12 12 12-5.373 12-12S22.627 4 16 4z" id="Fill"/></g></g></g></g></symbol><use xlink:href="#icon-info-monotype" y="77" width="28" height="28"/><symbol id="icon-logo-horizontal" viewBox="0 0 104 32"><defs><path id="path-1" d="M0 40.553h55.725V0H0z"/></defs><path fill="#7EAABE" d="M11.271 31.185l17.396-1.467V2.72L11.271.82z"/><path fill="#004772" d="M20.24 6.434l30.565-.724v19.117L20.24 26.46z"/><path fill="#005C8F" d="M.308 28.178H46.86V12.234L.308 9.336z"/><path d="M5.998 14.69h1.72l2.985 7.604H9.015l-.654-1.743H5.278l-.663 1.743h-1.58l2.963-7.604zm.838 1.526h-.02l-1.1 3.137h2.22l-1.1-3.137zM12.348 14.69h2.08c2.33 0 4.39.785 4.39 3.802s-2.06 3.802-4.391 3.802h-2.08V14.69zm1.525 6.407h.85c1.273 0 2.504-.95 2.504-2.605s-1.231-2.604-2.504-2.604h-.85v5.209zM21.094 14.69h4.487v1.198h-2.962v1.874h2.712v1.199h-2.712v2.136h2.984v1.197h-4.51zM28.827 14.69H30.7l2.897 5.686h.023V14.69h1.458v7.604h-1.863l-2.907-5.686h-.022v5.686h-1.46zM40.263 14.69h1.72l2.985 7.604H43.28l-.653-1.743h-3.083l-.665 1.743h-1.58l2.964-7.604zm.838 1.526h-.021l-1.1 3.137h2.22l-1.1-3.137z" fill="#FFFFFE"/><path d="M48.318 26.431h.104c.12 0 .219-.04.219-.137 0-.087-.064-.145-.202-.145l-.121.011v.271zm-.006.537h-.218v-.945c.086-.017.207-.03.362-.03.179 0 .259.03.329.07.05.04.092.116.092.207 0 .105-.081.184-.196.22v.01c.092.035.144.105.173.232.029.143.046.201.069.236h-.236c-.03-.035-.046-.122-.075-.232-.018-.104-.075-.149-.196-.149h-.104v.38zm-.581-.495c0 .42.31.754.737.754.415 0 .72-.335.72-.75 0-.42-.305-.76-.726-.76s-.731.34-.731.756zm1.699 0a.95.95 0 01-.968.956.958.958 0 01-.973-.956c0-.525.432-.945.973-.945.547 0 .968.42.968.945z" fill="#004772" mask="url(#mask-2)"/><g fill="currentColor"><path d="M.748.307v2.397h2.773V.307h.747v5.73h-.747V3.352H.748v2.687H0V.307zM8.139 3.58c.009-.468-.196-1.207-1.038-1.207-.765 0-1.088.69-1.147 1.207h2.185zm-2.194.536c.018 1.012.654 1.428 1.411 1.428.536 0 .867-.093 1.14-.211l.136.534c-.264.12-.723.264-1.377.264-1.267 0-2.025-.841-2.025-2.083 0-1.241.733-2.211 1.932-2.211 1.35 0 1.7 1.174 1.7 1.93 0 .153-.009.264-.026.35H5.945zM11.958 3.937c-.817-.016-1.744.129-1.744.928 0 .493.323.714.697.714.545 0 .893-.341 1.013-.69l.034-.237v-.715zm.723 1.114c0 .357.016.707.059.987h-.672l-.06-.52h-.025c-.23.324-.672.613-1.258.613-.834 0-1.26-.586-1.26-1.182 0-.994.885-1.539 2.475-1.53v-.085c0-.333-.093-.953-.935-.944-.39 0-.791.11-1.08.306l-.17-.5c.34-.215.841-.358 1.361-.358 1.258 0 1.565.858 1.565 1.674v1.539zM13.888 6.037h.749V0h-.749zM16.797.936v.986h1.072v.57h-1.072v2.22c0 .51.145.8.561.8a1.4 1.4 0 00.434-.052l.034.57c-.144.05-.375.101-.663.101-.348 0-.629-.12-.809-.314-.203-.23-.288-.595-.288-1.08V2.491h-.637v-.57h.637v-.764l.731-.222zM18.71 0h.75v2.577h.016c.12-.213.307-.408.535-.536.222-.127.486-.204.767-.204.552 0 1.436.34 1.436 1.752v2.448h-.748V3.675c0-.664-.247-1.216-.953-1.216-.484 0-.859.34-1.003.738a.996.996 0 00-.05.358v2.482h-.75V0zM25.166 5.137c.332.212.808.373 1.317.373.757 0 1.2-.4 1.2-.977 0-.527-.307-.842-1.08-1.131-.935-.34-1.514-.833-1.514-1.633 0-.893.74-1.554 1.854-1.554.578 0 1.012.134 1.258.279l-.205.603c-.177-.11-.56-.271-1.08-.271-.78 0-1.078.468-1.078.857 0 .536.348.8 1.14 1.106.968.374 1.452.842 1.452 1.685 0 .883-.645 1.658-1.997 1.658-.553 0-1.156-.172-1.463-.375l.196-.62zM29.63 1.922l.894 2.432c.102.272.204.595.272.841h.017c.077-.246.161-.56.263-.859l.817-2.414h.79L31.56 4.856c-.534 1.411-.9 2.126-1.411 2.576-.374.315-.73.442-.917.476l-.187-.62c.187-.06.434-.18.655-.365a2.4 2.4 0 00.628-.834l.06-.179-.06-.196-1.514-3.792h.817zM33.212 5.281c.23.136.62.288.995.288.534 0 .79-.262.79-.61 0-.358-.212-.546-.756-.75-.749-.271-1.097-.671-1.097-1.164 0-.663.543-1.208 1.42-1.208.416 0 .78.11 1.002.256l-.178.544a1.58 1.58 0 00-.842-.246c-.441 0-.68.254-.68.56 0 .34.239.492.775.706.704.263 1.079.62 1.079 1.232 0 .732-.57 1.243-1.531 1.243-.45 0-.867-.12-1.156-.29l.179-.56zM37.582.936v.986h1.072v.57h-1.072v2.22c0 .51.145.8.563.8.202 0 .322-.018.433-.052l.033.57a2.06 2.06 0 01-.662.101c-.349 0-.63-.12-.808-.314-.204-.23-.29-.595-.29-1.08V2.491h-.637v-.57h.638v-.764l.73-.222zM42.056 3.58c.008-.468-.196-1.207-1.037-1.207-.765 0-1.088.69-1.147 1.207h2.184zm-2.195.536c.02 1.012.656 1.428 1.413 1.428.534 0 .867-.093 1.14-.211l.136.534c-.263.12-.724.264-1.378.264-1.267 0-2.024-.841-2.024-2.083 0-1.241.732-2.211 1.93-2.211 1.352 0 1.7 1.174 1.7 1.93 0 .153-.008.264-.025.35h-2.892zM43.707 3.036c0-.432-.016-.774-.035-1.113h.655l.034.67h.025c.23-.39.613-.756 1.302-.756.552 0 .978.34 1.156.824h.018c.127-.236.297-.407.468-.534.246-.188.51-.29.9-.29.553 0 1.36.358 1.36 1.785v2.415h-.73v-2.32c0-.799-.299-1.267-.894-1.267-.434 0-.756.314-.891.672-.034.109-.061.237-.061.373v2.542h-.73V3.572c0-.654-.29-1.122-.86-1.122-.46 0-.808.373-.927.747l-.06.366v2.474h-.73v-3z" transform="translate(54 14)"/></g></symbol><use xlink:href="#icon-logo-horizontal" y="107" width="104" height="32"/><symbol id="icon-logo-vertical" viewBox="0 0 55 38"><path fill="#7EAABE" d="M11.271 31.185l17.396-1.467V2.72L11.271.82z"/><path fill="#004772" d="M20.24 6.434l30.565-.724v19.117L20.24 26.46z"/><path fill="#005C8F" d="M.308 28.178H46.86V12.234L.308 9.336z"/><path d="M5.998 14.69h1.72l2.985 7.604H9.015l-.654-1.743H5.278l-.663 1.743h-1.58l2.963-7.604zm.838 1.526h-.02l-1.1 3.137h2.22l-1.1-3.137zM12.348 14.69h2.08c2.33 0 4.39.785 4.39 3.802s-2.06 3.802-4.391 3.802h-2.08V14.69zm1.525 6.407h.85c1.273 0 2.504-.95 2.504-2.605s-1.231-2.604-2.504-2.604h-.85v5.209zM21.094 14.69h4.487v1.198h-2.962v1.874h2.712v1.199h-2.712v2.136h2.984v1.197h-4.51zM28.827 14.69H30.7l2.897 5.686h.023V14.69h1.458v7.604h-1.863l-2.907-5.686h-.022v5.686h-1.46zM40.263 14.69h1.72l2.985 7.604H43.28l-.653-1.743h-3.083l-.665 1.743h-1.58l2.964-7.604zm.838 1.526h-.021l-1.1 3.137h2.22l-1.1-3.137z" fill="#FFFFFE"/><path fill="currentColor" d="M21.528 32.776V34.4h1.878v-1.624h.506v3.882h-.506v-1.82h-1.878v1.82h-.507v-3.882zM26.534 34.993c.006-.317-.133-.818-.703-.818-.518 0-.737.467-.777.818h1.48zm-1.486.363c.012.685.443.967.956.967.363 0 .587-.063.772-.143l.092.362c-.18.081-.49.18-.933.18-.858 0-1.371-.57-1.371-1.412 0-.84.496-1.498 1.308-1.498.915 0 1.152.795 1.152 1.307 0 .104-.006.18-.018.237h-1.958zM29.12 35.235c-.553-.011-1.18.087-1.18.628 0 .334.218.484.471.484a.705.705 0 00.686-.467l.023-.161v-.484zm.49.754c0 .242.011.479.04.669h-.455l-.04-.352h-.018a1.037 1.037 0 01-.852.415c-.565 0-.853-.397-.853-.801 0-.673.6-1.042 1.676-1.036v-.058c0-.225-.063-.645-.633-.639a1.35 1.35 0 00-.732.207l-.115-.339c.23-.145.57-.242.922-.242.852 0 1.06.581 1.06 1.134v1.042zM30.428 36.657h.507v-4.089h-.507zM32.398 33.202v.668h.726v.386h-.726v1.503c0 .346.098.542.38.542a.949.949 0 00.294-.035l.023.386a1.4 1.4 0 01-.448.07c-.236 0-.426-.082-.548-.214-.138-.156-.195-.403-.195-.732v-1.52h-.433v-.386h.433v-.518l.494-.15zM33.695 32.568h.507v1.745h.01a.965.965 0 01.364-.363c.15-.086.329-.138.519-.138.374 0 .973.23.973 1.187v1.658h-.507v-1.6c0-.45-.167-.824-.645-.824-.328 0-.582.23-.68.5a.675.675 0 00-.034.243v1.681h-.507v-4.089zM38.067 36.047c.225.144.547.253.892.253.513 0 .813-.27.813-.662 0-.357-.208-.57-.732-.766-.633-.23-1.025-.564-1.025-1.106 0-.605.501-1.053 1.256-1.053.391 0 .685.091.852.19l-.139.408a1.429 1.429 0 00-.73-.184c-.53 0-.732.317-.732.581 0 .363.236.542.772.75.656.252.984.57.984 1.14 0 .598-.437 1.123-1.353 1.123-.374 0-.783-.116-.99-.254l.132-.42zM41.091 33.87l.605 1.647c.07.184.138.403.184.57h.012c.052-.167.11-.38.178-.582l.553-1.635h.536l-.76 1.987c-.363.956-.61 1.44-.957 1.745a1.434 1.434 0 01-.62.322l-.128-.42c.127-.04.294-.12.444-.247.137-.11.304-.306.425-.565l.041-.12-.04-.134-1.026-2.568h.553zM43.517 36.145c.156.092.42.195.674.195.362 0 .535-.178.535-.414 0-.242-.143-.369-.512-.507-.507-.184-.743-.455-.743-.789 0-.449.368-.818.962-.818.282 0 .529.075.679.173l-.121.37a1.07 1.07 0 00-.57-.168c-.3 0-.461.172-.461.38 0 .23.162.333.525.478.477.178.73.42.73.834 0 .496-.385.842-1.036.842-.305 0-.587-.08-.783-.196l.12-.38zM46.477 33.202v.668h.727v.386h-.727v1.503c0 .346.099.542.382.542a.946.946 0 00.292-.035l.023.386a1.396 1.396 0 01-.449.07c-.236 0-.425-.082-.547-.214-.137-.156-.195-.403-.195-.732v-1.52h-.432v-.386h.431v-.518l.495-.15zM49.508 34.993c.005-.317-.133-.818-.703-.818-.518 0-.737.467-.777.818h1.48zm-1.487.363c.013.685.444.967.957.967.362 0 .587-.063.772-.143l.092.362c-.178.081-.49.18-.933.18-.858 0-1.371-.57-1.371-1.412 0-.84.496-1.498 1.307-1.498.916 0 1.152.795 1.152 1.307 0 .104-.006.18-.017.237h-1.959zM50.626 34.624c0-.293-.011-.524-.024-.754h.444l.023.455h.017c.156-.265.415-.513.882-.513.374 0 .662.23.783.559h.012c.086-.16.201-.277.317-.363a.932.932 0 01.61-.196c.374 0 .921.242.921 1.21v1.636h-.495v-1.572c0-.541-.202-.858-.605-.858-.294 0-.512.212-.604.454a.86.86 0 00-.041.253v1.722h-.495v-1.67c0-.443-.196-.76-.582-.76-.311 0-.547.254-.628.507l-.04.247v1.676h-.495v-2.032zM48.318 26.431h.104c.12 0 .219-.04.219-.137 0-.087-.064-.145-.202-.145l-.121.011v.271zm-.006.537h-.218v-.945c.086-.017.207-.03.362-.03.179 0 .259.03.329.07.05.04.092.116.092.207 0 .105-.081.184-.196.22v.01c.092.035.144.105.173.232.029.143.046.201.069.236h-.236c-.03-.035-.046-.122-.075-.232-.018-.104-.075-.149-.196-.149h-.104v.38zm-.581-.495c0 .42.31.754.737.754.415 0 .72-.335.72-.75 0-.42-.305-.76-.726-.76s-.731.34-.731.756zm1.699 0a.95.95 0 01-.968.956.958.958 0 01-.973-.956c0-.525.432-.945.973-.945.547 0 .968.42.968.945z"/></symbol><use xlink:href="#icon-logo-vertical" y="141" width="55" height="38"/></svg>