<svg xmlns="http://www.w3.org/2000/svg" width="130" height="42" viewBox="0 0 130 42"><defs><style>.cls-1{fill:#00a651;}.cls-2{fill:#00aeef;}.cls-3{fill:#16becf;}.cls-4{fill:#3dba93;}.cls-5{fill:#0eb46e;}</style></defs><title>AHNlogo_SVG_fixedsize</title><g id="Layer_2" data-name="Layer 2"><g id="Layer_1-2" data-name="Layer 1"><g id="AHN_Logo_RGB" data-name="AHN Logo RGB"><g id="Group_21960" data-name="Group 21960"><g id="Group_13369" data-name="Group 13369"><path id="Path_6217" data-name="Path 6217" class="cls-1" d="M61.59,13c.3,1.18.59,2.37.89,3.25l2,6.31-5.84.2,2-6.31a34,34,0,0,0,1-3.45M58,6.31,48.54,35.79h6.52l2.48-8.09h8.3l2.57,8.09h6.72L65.45,6.31Z"/></g><path id="Path_6218" data-name="Path 6218" class="cls-1" d="M95.1,17.65h-11V6.31H77.8V35.79h6.33V23.27h11V35.79h6.23V6.31H95.1Z"/><g id="Group_13370" data-name="Group 13370"><path id="Path_6219" data-name="Path 6219" class="cls-1" d="M124,6.31V16.76c0,3.35.1,6.31.3,9.07a53.49,53.49,0,0,0-3.75-7L113,6.41h-6.72V35.89h5.84V25.14c0-3.75,0-6.8-.1-9.76,1.08,2.27,2.47,4.83,4.15,7.69l7.61,12.72H130V6.31Z"/><path id="Path_6220" data-name="Path 6220" class="cls-2" d="M16.51,34.41A66.83,66.83,0,0,1,21.85,42a65.58,65.58,0,0,1,5.34-7.59,57.26,57.26,0,0,0-5.34-7.59,78.46,78.46,0,0,0-5.34,7.59"/><path id="Path_6221" data-name="Path 6221" class="cls-3" d="M22.74,25.93a46.51,46.51,0,0,1,5.34,7.49,57.17,57.17,0,0,1,6.52-6.31,55.56,55.56,0,0,0-5.24-7.49,50,50,0,0,0-6.62,6.31m-1.68,0a51.18,51.18,0,0,0-5.34,7.49,57.26,57.26,0,0,0-6.53-6.31,56.2,56.2,0,0,1,5.24-7.49,50.09,50.09,0,0,1,6.63,6.31"/><path id="Path_6222" data-name="Path 6222" class="cls-1" d="M30.05,5.32A43.05,43.05,0,0,0,22,0a36.06,36.06,0,0,0-8.11,5.32A69.05,69.05,0,0,1,22,10.75a46.4,46.4,0,0,1,8.1-5.43"/><path id="Path_6223" data-name="Path 6223" class="cls-4" d="M21.85,12.22a59,59,0,0,0-6.72,6.41,59.88,59.88,0,0,1,6.72,6.31,50.82,50.82,0,0,1,6.72-6.31,52.21,52.21,0,0,0-6.72-6.41M5.44,13.6A68.71,68.71,0,0,0,0,21.2a49.78,49.78,0,0,1,8.11,5,52.4,52.4,0,0,1,5.24-7.49Q9.53,16,5.44,13.6m25,5.23a83.51,83.51,0,0,1,7.91-5.13,69.92,69.92,0,0,1,5.44,7.59,50.1,50.1,0,0,0-8.11,5,53.22,53.22,0,0,0-5.24-7.49"/><path id="Path_6224" data-name="Path 6224" class="cls-5" d="M20.86,11.44a71.27,71.27,0,0,0-8.11-5.33,66.86,66.86,0,0,0-6.42,6.51,70.17,70.17,0,0,1,7.91,5.22,50.07,50.07,0,0,1,6.62-6.4m2.08,0A70.27,70.27,0,0,1,31,6.11a67,67,0,0,1,6.43,6.51,68.41,68.41,0,0,0-7.91,5.22,51.33,51.33,0,0,0-6.62-6.4"/></g></g></g></g></g></svg>