<svg height="59" width="190" xmlns="http://www.w3.org/2000/svg"><g fill="#000000"><path d="M49.577 4.324l-2.526 6.663h5.305zm10.082 13.05h-4.624l-1.415-3.395h-7.707l-1.288 3.394h-4.55L47.026.226h4.978zm6.267-3.144h2.805c4.32 0 5.61-2.916 5.61-5.43 0-2.942-1.592-5.431-5.66-5.431h-2.755zM69.236.226c6.292 0 9.527 3.897 9.527 8.599 0 4.927-3.134 8.548-10.006 8.548H61.63V.226zM88.443 17.6h-1.87L78.232.226h4.676l4.548 9.78 4.32-9.78h4.625zm15.516-13.276l-2.527 6.663h5.306zm10.081 13.05h-4.624l-1.414-3.395h-7.707l-1.289 3.394h-4.548L101.406.226h4.978zm19.458 0h-3.613l-9.526-10.988v10.987h-4.295V.226h3.942l9.197 10.485V.226h4.295zm19.938-1.485c-2.4 1.232-4.22 1.71-6.771 1.71-6.697 0-10.032-4.324-10.032-8.749 0-4.576 3.765-8.85 10.36-8.85 2.4 0 4.548.503 6.24 1.508V5.33c-1.894-1.056-3.814-1.76-5.936-1.76-3.665 0-6.242 2.162-6.242 5.205 0 3.067 2.552 5.254 6.14 5.254 2.248 0 3.765-.704 6.241-1.885zm16.172 1.484h-12.709V.226h12.533v3.143h-8.237v3.595h7.858v3.143h-7.858v4.123h8.413zm7.557-3.143h2.804c4.322 0 5.61-2.916 5.61-5.43 0-2.942-1.591-5.431-5.66-5.431h-2.754zm3.31-14.004c6.291 0 9.526 3.897 9.526 8.599 0 4.927-3.133 8.548-10.006 8.548h-7.126V.226zM47.478 23.266h-3.085v12.756h3.159c1.233 0 2.192-.084 2.875-.252.682-.168 1.252-.381 1.708-.638.459-.26.88-.58 1.253-.952 1.217-1.228 1.826-2.779 1.826-4.653 0-1.842-.625-3.343-1.875-4.506a6.001 6.001 0 00-1.586-1.068 6.652 6.652 0 00-1.697-.552c-.535-.09-1.394-.136-2.578-.136zm-5.553 14.94V21.08h5.812c2.344 0 4.199.35 5.565 1.05 1.365.7 2.45 1.73 3.257 3.088a8.554 8.554 0 011.21 4.444 8.34 8.34 0 01-.667 3.29 8.316 8.316 0 01-1.9 2.763 8.35 8.35 0 01-2.924 1.854 8.763 8.763 0 01-1.79.51c-.543.085-1.58.128-3.11.128zm20.36-6.764h5.712c-.057-.892-.325-1.58-.802-2.063-.477-.482-1.119-.724-1.925-.724s-1.466.242-1.98.724c-.514.483-.85 1.171-1.006 2.063zm7.933 1.339h-7.983c.057 1.08.421 1.94 1.092 2.577.67.64 1.536.958 2.597.958 1.48 0 2.846-.458 4.097-1.375v2.186c-.691.458-1.376.785-2.055.982-.678.196-1.474.294-2.387.294-1.25 0-2.262-.257-3.035-.773-.774-.516-1.393-1.21-1.857-2.081-.465-.872-.698-1.88-.698-3.026 0-1.72.49-3.117 1.469-4.193.978-1.076 2.25-1.615 3.812-1.615 1.506 0 2.706.524 3.603 1.572.897 1.048 1.345 2.451 1.345 4.21zm4.837-5.845v2.59l.123-.196c1.086-1.743 2.172-2.615 3.258-2.615.847 0 1.731.426 2.653 1.277l-1.185 1.965c-.782-.737-1.505-1.105-2.172-1.105-.724 0-1.35.343-1.881 1.031-.53.687-.796 1.502-.796 2.443v5.905h-2.258V26.936zm16.904 3.094v8.201h-2.258v-6.286c0-1.251-.169-2.126-.506-2.621-.337-.495-.925-.742-1.764-.742a2.65 2.65 0 00-1.29.319c-.39.213-.837.589-1.338 1.13v8.2h-2.246V26.936h2.246v1.486c1.143-1.138 2.262-1.707 3.356-1.707 1.439 0 2.554.68 3.344 2.038 1.2-1.375 2.455-2.062 3.763-2.062 1.102 0 2.009.401 2.72 1.203s1.068 2.025 1.068 3.671v6.666h-2.246v-6.69c0-.942-.193-1.662-.58-2.162-.387-.499-.942-.748-1.665-.748-.93 0-1.798.466-2.604 1.4m15.103 5.966v-3.352l-1.505.577c-.765.303-1.306.608-1.622.915a1.53 1.53 0 00-.476 1.148c0 .467.15.847.45 1.141.3.295.689.443 1.166.443.716 0 1.378-.29 1.987-.872zm2.208-4.555v4.8c0 .385.132.578.396.578.271 0 .694-.201 1.27-.602v1.363c-.51.327-.919.55-1.227.669-.31.118-.637.179-.968.178-.963 0-1.53-.376-1.704-1.13-.954.737-1.97 1.105-3.048 1.105-.79 0-1.447-.26-1.974-.78-.526-.519-.79-1.171-.79-1.958 0-.711.258-1.348.772-1.909.514-.56 1.244-1.004 2.19-1.332l2.875-.982v-.602c0-1.358-.682-2.038-2.048-2.038-1.226 0-2.419.63-3.579 1.892V28.25c.872-1.023 2.127-1.535 3.764-1.535 1.224 0 2.209.32 2.949.958.247.205.468.477.666.816s.323.68.376 1.02c.054.339.08.984.08 1.933zm3.098 5.98v-2.407c.633.442 1.281.8 1.943 1.074.662.274 1.22.412 1.672.412.469 0 .872-.115 1.209-.345s.507-.502.507-.822c0-.327-.11-.6-.328-.816-.218-.217-.689-.53-1.412-.94-1.45-.801-2.396-1.487-2.845-2.056-.448-.57-.672-1.19-.672-1.86 0-.867.339-1.575 1.018-2.124.679-.548 1.552-.823 2.622-.823 1.11 0 2.25.312 3.418.933v2.21c-1.333-.802-2.424-1.203-3.27-1.203-.437 0-.788.092-1.056.277-.266.184-.4.428-.4.73 0 .263.12.513.363.751.242.238.668.524 1.277.86l.802.453c1.892 1.064 2.839 2.243 2.839 3.535 0 .925-.364 1.684-1.092 2.277-.728.593-1.664.89-2.807.89a6.885 6.885 0 01-1.801-.215c-.528-.143-1.19-.407-1.987-.792m17.508.81v-1.448a5.248 5.248 0 01-1.635 1.212 4.268 4.268 0 01-1.832.433 3.839 3.839 0 01-1.98-.534 3.48 3.48 0 01-1.37-1.45c-.308-.609-.462-1.622-.462-3.037v-6.47h2.245v6.437c0 1.185.171 2.013.512 2.482.341.47.94.706 1.796.706 1.068 0 1.978-.52 2.726-1.56v-8.066h2.246v11.295zm7.81-11.295v2.59l.124-.196c1.085-1.743 2.172-2.615 3.258-2.615.847 0 1.73.426 2.652 1.277l-1.184 1.965c-.782-.737-1.505-1.105-2.171-1.105-.725 0-1.352.343-1.883 1.031-.53.687-.795 1.502-.795 2.443v5.905h-2.258V26.936zm11.24 1.94c-.607 0-1.126.205-1.553.614-.428.41-.642.9-.642 1.474 0 .58.21 1.062.629 1.442.42.38.95.57 1.591.57.634 0 1.163-.194 1.587-.582.423-.389.636-.874.636-1.456 0-.589-.215-1.08-.642-1.472-.428-.394-.963-.59-1.605-.59zm-.529 9.883c-.757 0-1.376.16-1.857.48-.481.318-.722.728-.722 1.227 0 1.162 1.053 1.743 3.159 1.743.995 0 1.767-.145 2.313-.435.547-.29.821-.702.821-1.234 0-.524-.345-.952-1.037-1.283-.69-.332-1.583-.498-2.677-.498zm-3.69-7.919c0-1.203.442-2.154 1.327-2.854.884-.7 2.092-1.05 3.622-1.05h4.676v1.744h-2.296c.446.45.754.859.926 1.228.173.368.26.79.26 1.264 0 .589-.169 1.169-.507 1.737-.337.569-.77 1.005-1.301 1.308s-1.4.544-2.61.724c-.847.123-1.271.413-1.271.872 0 .262.158.477.476.644.316.168.89.342 1.72.522 1.39.303 2.285.54 2.684.712.404.176.77.426 1.08.737.543.54.815 1.22.815 2.038 0 1.072-.48 1.927-1.438 2.566-.959.638-2.24.957-3.844.957-1.62 0-2.914-.32-3.88-.963-.967-.643-1.45-1.504-1.45-2.584 0-1.531.95-2.517 2.85-2.96-.757-.482-1.135-.961-1.135-1.436 0-.36.162-.688.488-.982.324-.295.762-.512 1.314-.65-1.67-.737-2.506-1.929-2.506-3.574zm13.105.602h5.712c-.058-.892-.325-1.58-.802-2.063-.477-.482-1.119-.724-1.924-.724-.807 0-1.468.242-1.981.724-.514.483-.85 1.171-1.005 2.063zm7.933 1.339h-7.983c.057 1.08.421 1.94 1.092 2.577.67.64 1.536.958 2.597.958 1.481 0 2.846-.458 4.096-1.375v2.186c-.69.458-1.375.785-2.054.982-.678.196-1.474.294-2.387.294-1.25 0-2.263-.257-3.036-.773-.773-.516-1.392-1.21-1.857-2.081-.465-.872-.697-1.88-.697-3.026 0-1.72.49-3.117 1.469-4.193.978-1.076 2.25-1.615 3.813-1.615 1.504 0 2.706.524 3.602 1.572.897 1.048 1.345 2.451 1.345 4.21zm4.837-5.845v2.59l.123-.196c1.086-1.743 2.173-2.615 3.258-2.615.847 0 1.732.426 2.652 1.277l-1.184 1.965c-.782-.737-1.505-1.105-2.171-1.105-.724 0-1.351.343-1.882 1.031-.53.687-.796 1.502-.796 2.443v5.905h-2.258V26.936zm15.322 0h2.52l-8.043 17.053h-2.507l3.854-8.183-4.384-8.87h2.559l3.065 6.38zM51.03 51.535l-2.782-6.213-2.579 6.213zm-3.626-9.982h1.735l7.728 17.25h-2.525l-2.298-5.083H44.69l-2.154 5.083H40zm10.488 16.44v-2.407c.633.442 1.28.8 1.943 1.074.662.274 1.22.411 1.672.411.468 0 .872-.113 1.209-.343.338-.229.506-.504.506-.822 0-.328-.109-.6-.327-.817-.218-.217-.69-.53-1.413-.94-1.448-.801-2.396-1.487-2.844-2.056-.448-.568-.673-1.189-.673-1.86 0-.868.34-1.575 1.018-2.124.68-.548 1.553-.822 2.623-.822 1.11 0 2.25.31 3.417.933v2.21c-1.332-.802-2.422-1.204-3.27-1.204-.435 0-.787.093-1.054.277-.267.185-.401.428-.401.732 0 .262.12.512.363.75.242.237.668.523 1.277.859l.802.454c1.892 1.063 2.839 2.242 2.839 3.534 0 .926-.364 1.685-1.092 2.277-.728.594-1.664.89-2.808.89a6.86 6.86 0 01-1.8-.215c-.527-.143-1.19-.407-1.987-.792m9.723 0v-2.406c.633.442 1.281.8 1.943 1.074.662.274 1.22.411 1.672.411.469 0 .872-.113 1.21-.343.336-.229.505-.504.505-.822 0-.328-.11-.6-.327-.817-.218-.217-.689-.53-1.412-.94-1.448-.801-2.397-1.487-2.845-2.056-.448-.568-.672-1.189-.672-1.86 0-.868.34-1.575 1.018-2.124.678-.548 1.552-.822 2.622-.822 1.11 0 2.25.31 3.418.933v2.21c-1.333-.802-2.423-1.204-3.27-1.204-.436 0-.788.093-1.055.277-.268.185-.401.428-.401.732 0 .262.12.512.363.75.242.237.668.523 1.277.859l.802.454c1.892 1.063 2.839 2.242 2.839 3.534 0 .926-.364 1.685-1.092 2.277-.728.594-1.664.89-2.807.89a6.862 6.862 0 01-1.802-.215c-.526-.143-1.188-.407-1.986-.792m15.584-8.495c-1.078 0-1.962.351-2.653 1.056-.691.704-1.037 1.6-1.037 2.689 0 1.08.354 1.962 1.062 2.645.707.683 1.616 1.025 2.726 1.025 1.102 0 2.006-.346 2.71-1.037.702-.692 1.054-1.578 1.054-2.658 0-1.073-.366-1.96-1.099-2.664-.732-.705-1.653-1.056-2.763-1.056zm.123-2.013c1.728 0 3.163.553 4.307 1.663 1.142 1.109 1.714 2.503 1.714 4.18 0 1.63-.58 2.982-1.74 4.058-1.16 1.077-2.62 1.615-4.38 1.615-1.703 0-3.126-.547-4.269-1.64-1.144-1.092-1.715-2.457-1.715-4.094 0-1.654.578-3.03 1.734-4.131 1.155-1.102 2.605-1.651 4.349-1.651zm17.028 8.68v2.21c-1.128.417-2.23.626-3.307.626-1.777 0-3.194-.525-4.25-1.572-1.058-1.048-1.586-2.452-1.586-4.211 0-1.776.513-3.209 1.542-4.297 1.028-1.089 2.381-1.633 4.06-1.633.583 0 1.108.055 1.572.166.465.11 1.04.317 1.722.62v2.381c-1.136-.72-2.188-1.08-3.159-1.08-1.012 0-1.843.355-2.493 1.062-.65.708-.975 1.61-.975 2.707 0 1.154.353 2.07 1.055 2.75.704.68 1.652 1.019 2.845 1.019.864 0 1.855-.25 2.974-.748m2.603 2.639h2.246V47.508h-2.246zm1.11-16.046c.37 0 .687.126.95.38.264.254.396.565.396.933 0 .36-.132.671-.395.933a1.298 1.298 0 01-.95.393c-.346 0-.65-.133-.914-.399s-.395-.575-.395-.927c0-.344.132-.649.395-.915s.568-.398.914-.398zm9.304 13.811v-3.351l-1.505.576c-.765.304-1.306.609-1.623.915-.316.307-.475.69-.475 1.148 0 .467.15.848.45 1.142.3.295.69.442 1.166.442.716 0 1.378-.29 1.987-.872zm2.209-4.554v4.8c0 .385.131.577.395.577.271 0 .695-.2 1.27-.602v1.363c-.51.327-.919.55-1.227.67a2.69 2.69 0 01-.968.178c-.964 0-1.531-.377-1.704-1.13-.954.736-1.97 1.105-3.047 1.105-.79 0-1.448-.26-1.974-.78-.527-.52-.79-1.173-.79-1.958 0-.712.256-1.348.77-1.91.515-.56 1.246-1.004 2.191-1.332l2.875-.981v-.602c0-1.359-.682-2.038-2.048-2.038-1.225 0-2.418.63-3.578 1.89v-2.442c.871-1.023 2.126-1.535 3.763-1.535 1.225 0 2.209.319 2.948.957a3 3 0 01.667.817c.198.34.323.68.377 1.019.053.34.08.984.08 1.934zm2.06-2.713l4.22-4.126v2.333h3.591v2.013h-3.59v5.528c0 1.29.538 1.937 1.616 1.937.806 0 1.657-.266 2.553-.798v2.087a5.689 5.689 0 01-2.825.725c-1.028 0-1.883-.3-2.566-.897a2.535 2.535 0 01-.531-.607 3.222 3.222 0 01-.352-.885c-.094-.364-.142-1.058-.142-2.08v-5.01h-1.974zm11.747 2.713h5.713c-.058-.893-.326-1.58-.803-2.063-.476-.483-1.118-.725-1.924-.725-.807 0-1.467.242-1.98.725-.515.483-.85 1.17-1.006 2.063zm13.524-4.727c1.11 0 2.25.31 3.418.933v2.21c-1.333-.802-2.423-1.204-3.27-1.204-.437 0-.788.093-1.056.277-.267.185-.4.428-.4.732 0 .262.12.512.363.75.241.237.667.523 1.276.859l.802.454c1.893 1.063 2.84 2.242 2.84 3.534 0 .926-.365 1.685-1.092 2.277-.729.594-1.664.89-2.807.89a6.862 6.862 0 01-1.802-.215c-.527-.143-1.189-.407-1.987-.792v-2.406c.634.442 1.281.8 1.944 1.074.662.274 1.219.411 1.672.411.469 0 .872-.113 1.21-.343s.505-.504.505-.822c0-.328-.11-.6-.327-.817-.219-.217-.689-.53-1.413-.94-1.448-.801-2.396-1.487-2.844-2.056-.448-.568-.673-1.189-.673-1.86 0-.868.34-1.575 1.019-2.124.678-.548 1.552-.822 2.622-.822zm-10.538 0c1.505 0 2.706.524 3.603 1.57.896 1.05 1.345 2.453 1.345 4.213v.282h-7.983c.057 1.08.42 1.94 1.091 2.578.67.638 1.537.957 2.598.957 1.48 0 2.846-.458 4.096-1.374v2.185c-.691.458-1.376.786-2.055.982-.678.197-1.474.295-2.386.295-1.25 0-2.264-.258-3.036-.774-.774-.516-1.393-1.21-1.857-2.08-.465-.872-.698-1.881-.698-3.027 0-1.72.49-3.116 1.468-4.193.98-1.076 2.25-1.614 3.814-1.614z"/><path d="M35.99 23.012l-.072 35.905H11.033c-.39.5 2.666-1.167 8.034-7.73 1.594-1.946 6.936-10.436 9.101-13.642 5.972-8.843 8.001-14.852 7.821-14.533" fill-opacity=".6"/><path d="M10.068 36.438c-2.444-1.054-4.414-4.774-5.05-2.83-.18.552.82 1.852.82 1.852.721.908 2.599 2.542 4.032 2.997 1.964.625 4.846.743 6.121.184 1.275-.557 1.087-1.698.103-2.057-.749-.273-2.877 1.213-6.026-.146zM0 0h23.022a166.77 166.77 0 00-.16 3.794c-.176 5.025 1.957 7.117 1.677 11.845-.115 1.95-2.532 1.737-3.775 1.587l-.231-.029a4.05 4.05 0 00-.403-.038c-.958 0-1.458 1.526-.503 1.666.786.116 3.48.289 4.993-.692 3.104-2.013.04-8.935-.223-10.417-.36-2.028-.29-5.259-.174-7.717L36 0v19.539s-3.17 6.872-7.138 13.814l-.386.672c-1.879 3.246-3.915 6.458-5.867 8.942-5.652 7.193-7.873 13.434-13.15 13.879-6.212.523-8.724-.43-9.315-.713L.08 56.1a1.156 1.156 0 01-.08-.044V31.008c1.143-.518 7.68-3.608 9.358-2.97 1.826.694 1.423 3.216 3.12 3.731 2.052.622 4.887-1.677 6.034.06 1.039 1.569 1.372 3.633 2.723 4.46.71.434 1.627 0 1.627 0 .192-.235-.079-.454-.408-.666l-.201-.126c-.202-.126-.396-.25-.494-.374-1.369-1.719-1.531-5.313-3.352-5.646-2.258-.414-3.913.853-5.082.382-.982-.396-1.09-3.078-3.859-3.687C7.452 25.73 1.36 28.415 0 28.828zm13.826 13.81c-1.445-1.147-4.381-.392-4.608 0-.423.735.632 1.11.632 1.11s.858-.424 2.304-.46c1.446-.034 1.73 2.084 1.961 2.404.308.427 1 .212 1.293.096l.099-.042.036-.017s-.271-1.942-1.717-3.09z" fill-opacity=".9"/></g></svg>