<?xml version="1.0" encoding="utf-8"?>
<!-- Generator: Adobe Illustrator 21.1.0, SVG Export Plug-In . SVG Version: 6.00 Build 0)  -->
<svg version="1.1" id="Layer_1" xmlns="http://www.w3.org/2000/svg" xmlns:xlink="http://www.w3.org/1999/xlink" x="0px" y="0px"
	 viewBox="0 0 159.1 62.4" enable-background="new 0 0 159.1 62.4" xml:space="preserve">
<g enable-background="new    ">
	<path fill="#1C364E" d="M32.3,6.6v31.5H32L7.5,13.9H7.3v23.6h-2V6.1h0.2l24.5,24.2h0.2V6.6H32.3z"/>
	<path fill="#1C364E" d="M43.4,6.6l9,16.3h0.2l9.5-16.3h2.4L53.6,25.5v12.1h-4V25.9L38.9,6.6H43.4z"/>
	<path fill="#1C364E" d="M71.1,6.6h11.1c1.5,0,2.9,0.2,4,0.7c1.1,0.5,2.1,1,2.8,1.7s1.3,1.5,1.6,2.3c0.4,0.9,0.5,1.7,0.5,2.5
		c0,0.9-0.2,1.8-0.6,2.7c-0.4,0.8-1,1.6-1.7,2.2c-0.7,0.6-1.5,1.1-2.4,1.5c-0.9,0.4-1.9,0.6-2.9,0.6v0.2c0.6,0,1.5,0.1,2.6,0.3
		s2.1,0.5,3.1,1.1c1,0.5,1.9,1.3,2.6,2.3c0.7,1,1.1,2.3,1.1,4c0,1.1-0.2,2.1-0.6,3.2c-0.4,1-1,2-1.8,2.8c-0.8,0.8-1.9,1.5-3.3,2
		c-1.4,0.5-3,0.8-5,0.8H71.1V6.6z M80.4,20.2c0.9,0,1.7-0.1,2.5-0.4c0.8-0.3,1.5-0.7,2.1-1.2s1.1-1.2,1.4-1.9
		c0.3-0.7,0.5-1.5,0.5-2.4c0-0.7-0.1-1.4-0.4-2c-0.2-0.7-0.6-1.3-1.1-1.8c-0.5-0.5-1.2-1-2-1.3s-1.8-0.5-2.9-0.5h-5.4v11.6H80.4z
		 M81.6,35.6c0.9,0,1.8-0.1,2.7-0.4c0.8-0.3,1.6-0.7,2.2-1.3c0.6-0.6,1.1-1.2,1.5-2c0.4-0.8,0.6-1.7,0.6-2.7c0-0.9-0.2-1.8-0.5-2.7
		c-0.3-0.9-0.9-1.6-1.6-2.3c-0.7-0.6-1.6-1.2-2.6-1.5c-1.1-0.4-2.3-0.6-3.8-0.6h-4.9v13.5H81.6z"/>
	<path fill="#1C364E" d="M110.4,6.6c2,0,3.6,0.3,4.9,0.8c1.3,0.5,2.3,1.2,3.1,2s1.3,1.7,1.6,2.6c0.3,0.9,0.5,1.8,0.5,2.6
		c0,0.9-0.1,1.8-0.4,2.7c-0.3,0.9-0.8,1.8-1.4,2.6c-0.6,0.8-1.5,1.5-2.5,2c-1,0.5-2.2,0.8-3.6,0.9v0.2l0.4,0.2
		c0.4,0.2,0.7,0.4,0.9,0.7c0.2,0.3,0.6,0.7,1,1.3c0.4,0.6,0.9,1.4,1.6,2.5c0.7,1.1,1.6,2.5,2.8,4.3c0.4,0.6,0.8,1.2,1.2,1.7
		c0.4,0.5,0.8,0.9,1.2,1.2c0.4,0.3,0.9,0.6,1.3,0.8c0.5,0.2,1,0.3,1.6,0.3c0.1,0,0.3,0,0.4,0c0.1,0,0.3,0,0.4-0.1v1.6
		c-0.4,0.2-0.8,0.4-1.2,0.4c-0.4,0.1-0.9,0.1-1.6,0.1c-0.9,0-1.6-0.1-2.3-0.4s-1.2-0.6-1.7-1s-1-0.9-1.4-1.4
		c-0.4-0.6-0.9-1.2-1.3-1.9l-3.5-5.2c-0.5-0.8-1-1.5-1.4-2.1c-0.4-0.6-0.8-1-1.2-1.4s-0.9-0.6-1.5-0.8s-1.2-0.2-2.1-0.2h-2v13.7h-4
		V6.6H110.4z M104.3,21.9h4.6c1.2,0,2.2-0.2,3.1-0.6c0.9-0.4,1.7-1,2.3-1.6c0.6-0.7,1.1-1.4,1.4-2.2s0.5-1.6,0.5-2.4
		c0-0.9-0.2-1.8-0.5-2.6c-0.3-0.8-0.8-1.5-1.5-2.1s-1.4-1-2.3-1.3c-0.9-0.3-1.9-0.5-3-0.5h-4.5V21.9z"/>
	<path fill="#1C364E" d="M134,28.5l-3.9,9.1h-2l13.1-30.9h2.2l14.4,30.9h-4.3l-4.2-9.1H134z M141.4,11.6h-0.2l-6.4,14.9h13.5
		L141.4,11.6z"/>
</g>
<g enable-background="new    ">
	<path d="M29.8,55c-0.5,0.5-1.2,0.7-2.1,0.7h-2.1V59h-1.1v-8.5h3.2c1,0,1.7,0.3,2.2,0.8c0.4,0.4,0.6,1.1,0.6,1.8
		C30.5,53.9,30.2,54.5,29.8,55z M27.7,51.4h-2.1v3.3h2.1c1.1,0,1.7-0.5,1.7-1.7C29.4,52,28.7,51.4,27.7,51.4z"/>
	<path d="M32,59v-8.5h1.1V58h4.1v1H32z"/>
	<path d="M43.6,59l-0.7-2h-3.7l-0.7,2h-1.1l3-8.5h1.2l3,8.5H43.6z M41.1,51.5L39.6,56h3L41.1,51.5z"/>
	<path d="M51.1,58.3c-0.6,0.6-1.5,0.9-2.4,0.9c-1,0-1.9-0.3-2.4-0.8c-0.5-0.5-0.9-1.2-0.9-2h1.1c0,0.5,0.3,1,0.6,1.3
		c0.4,0.4,1,0.5,1.6,0.5c0.6,0,1.2-0.1,1.6-0.5c0.3-0.2,0.4-0.5,0.4-1c0-0.7-0.4-1.2-1.4-1.4c-0.5-0.1-0.9-0.1-1.3-0.2
		c-1.3-0.2-2.3-0.9-2.3-2.3c0-0.6,0.3-1.2,0.7-1.7c0.6-0.6,1.3-0.8,2.2-0.8c0.8,0,1.6,0.3,2.2,0.8c0.5,0.5,0.8,1.1,0.8,1.8h-1.1
		c0-0.4-0.2-0.8-0.4-1.1c-0.3-0.4-0.8-0.6-1.5-0.6c-0.6,0-1.1,0.2-1.5,0.6c-0.2,0.3-0.3,0.5-0.3,0.9c0,0.8,0.6,1.1,1.3,1.2
		c0.5,0.1,0.9,0.1,1.4,0.2c1.4,0.2,2.4,1.1,2.4,2.4C51.8,57.3,51.5,57.9,51.1,58.3z"/>
	<path d="M55.9,51.5V59h-1.1v-7.5h-2.5v-1h6.1v1H55.9z"/>
	<path d="M59.8,59v-8.5h1.1V59H59.8z"/>
	<path d="M68.4,58.2c-0.5,0.5-1.4,0.9-2.3,0.9c-0.9,0-1.7-0.3-2.3-0.9c-0.9-0.9-1.1-2.1-1.1-3.5c0-1.4,0.1-2.6,1.1-3.5
		c0.6-0.6,1.5-0.9,2.3-0.9c0.9,0,1.8,0.4,2.3,0.9c0.5,0.5,0.8,1.2,0.8,1.9h-1.1c0-0.5-0.2-0.9-0.5-1.2c-0.3-0.4-0.9-0.6-1.5-0.6
		c-0.6,0-1.1,0.2-1.5,0.6c-0.7,0.7-0.7,1.9-0.7,2.8c0,0.9,0,2,0.7,2.8c0.4,0.4,1,0.6,1.5,0.6c0.6,0,1.2-0.3,1.5-0.6
		c0.3-0.3,0.5-0.8,0.5-1.2h1.1C69.2,57.1,68.9,57.7,68.4,58.2z"/>
	<path d="M78.8,58.3c-0.6,0.6-1.5,0.9-2.4,0.9c-1,0-1.9-0.3-2.4-0.8c-0.5-0.5-0.9-1.2-0.9-2h1.1c0,0.5,0.3,1,0.6,1.3
		c0.4,0.4,1,0.5,1.6,0.5c0.6,0,1.2-0.1,1.6-0.5c0.3-0.2,0.4-0.5,0.4-1c0-0.7-0.4-1.2-1.4-1.4c-0.5-0.1-0.9-0.1-1.3-0.2
		c-1.3-0.2-2.3-0.9-2.3-2.3c0-0.6,0.3-1.2,0.7-1.7c0.6-0.6,1.3-0.8,2.2-0.8c0.8,0,1.6,0.3,2.2,0.8c0.5,0.5,0.8,1.1,0.8,1.8h-1.1
		c0-0.4-0.2-0.8-0.4-1.1c-0.3-0.4-0.8-0.6-1.5-0.6c-0.6,0-1.1,0.2-1.5,0.6c-0.2,0.3-0.3,0.5-0.3,0.9c0,0.8,0.6,1.1,1.3,1.2
		c0.5,0.1,0.9,0.1,1.4,0.2c1.4,0.2,2.4,1.1,2.4,2.4C79.5,57.3,79.2,57.9,78.8,58.3z"/>
	<path d="M84.1,59.1c-1.9,0-3.1-1.2-3.1-3.3v-5.4h1.1v5.4c0,1.4,0.6,2.3,2,2.3c1.5,0,2-0.9,2-2.3v-5.4h1.1v5.4
		C87.3,58,86.1,59.1,84.1,59.1z"/>
	<path d="M94.4,59l-1.6-3.5h-2.4V59h-1.1v-8.5h3.3c1,0,1.7,0.3,2.2,0.8c0.4,0.4,0.7,1,0.7,1.7c0,0.7-0.2,1.2-0.6,1.7
		c-0.3,0.3-0.6,0.5-1,0.6l1.7,3.7H94.4z M92.8,51.5h-2.3v3h2.3c1,0,1.7-0.4,1.7-1.5S93.8,51.5,92.8,51.5z"/>
	<path d="M102.7,59l-0.2-1c-0.4,0.7-1.4,1.2-2.3,1.2c-0.9,0-1.7-0.3-2.3-0.9c-0.9-0.8-1.1-2-1.1-3.5c0-1.4,0.2-2.6,1.1-3.5
		c0.6-0.6,1.4-0.9,2.3-0.9c1,0,1.8,0.3,2.4,1c0.4,0.4,0.7,1,0.7,1.7h-1.1c0-0.4-0.2-0.7-0.4-0.9c-0.4-0.5-1-0.7-1.7-0.7
		c-0.6,0-1.1,0.2-1.5,0.6c-0.7,0.7-0.7,1.9-0.7,2.8c0,0.9,0.1,2.1,0.8,2.8c0.4,0.4,0.9,0.6,1.5,0.6c0.6,0,1.2-0.2,1.5-0.6
		c0.6-0.6,0.7-1.4,0.7-2.2h-2.3v-1h3.2V59H102.7z"/>
	<path d="M105.5,59v-8.5h5.7v1h-4.6v2.6h4.1v1h-4.1V58h4.6v1H105.5z"/>
	<path d="M118,59l-1.6-3.5h-2.4V59H113v-8.5h3.3c1,0,1.7,0.3,2.2,0.8c0.4,0.4,0.7,1,0.7,1.7c0,0.7-0.2,1.2-0.6,1.7
		c-0.3,0.3-0.6,0.5-1,0.6l1.7,3.7H118z M116.4,51.5h-2.3v3h2.3c1,0,1.7-0.4,1.7-1.5S117.4,51.5,116.4,51.5z"/>
	<path d="M123.5,55.5V59h-1.1v-3.5l-2.9-5h1.2l2.2,4l2.2-4h1.1L123.5,55.5z"/>
</g>
</svg>
