<?xml version="1.0" encoding="utf-8"?>
<!-- Generator: Adobe Illustrator 26.2.1, SVG Export Plug-In . SVG Version: 6.00 Build 0)  -->
<svg version="1.1" id="Layer_1" xmlns="http://www.w3.org/2000/svg" xmlns:xlink="http://www.w3.org/1999/xlink" x="0px" y="0px" viewBox="0 0 450 79" style="enable-background:new 0 0 450 79;" xml:space="preserve">
  <style type="text/css">
	.st0{fill:#00A790;}
	.st1{fill:#F47623;}
	.st2{fill:#2A3C90;}
</style>
  <g id="Los_Alamitos_C">
    <path class="st0" d="M23.9,26.2c7.8-9.4,20.1-12,27.5-5.8c3.8,3.2,5.8,8.5,5.3,14c0.8,1.5,1.4,3,2,4.7c0.1,0.3,0.2,0.7,0.3,1
		c5.7-10.3,4.8-22.2-2.6-28.3c-8.8-7.3-23.4-4.2-32.7,7c-7.4,8.9-9,20.3-4.9,28.2C16.8,40.7,18.5,32.7,23.9,26.2L23.9,26.2z" />
    <path class="st1" d="M58.6,39.1C55,28.1,46.2,20.7,37.3,20c6.4,1.8,12.2,7.5,14.8,15.5C56,47,51.6,58.8,42.5,61.8
		c-4.8,1.6-10,0.4-14.4-2.8c-1.6-0.1-3.1-0.4-4.7-0.8c-0.5-0.1-1.1-0.3-1.6-0.4C27.5,67.9,38,73.6,47.2,70.6
		C58,67,63.2,52.9,58.6,39.1L58.6,39.1z" />
    <path class="st2" d="M29.9,54.7c-11.8-2.9-19.5-12.8-17.3-22.2c1.1-4.3,4.1-7.8,8.2-9.9c0.8-1.3,1.7-2.6,2.7-3.8
		c0.5-0.6,1-1.2,1.5-1.7C14.2,17.2,5,23,2.8,31.9C0.1,43,9.3,54.8,23.4,58.2c11.3,2.8,22.2-0.8,27.5-7.9
		C46,54.7,38.1,56.7,29.9,54.7L29.9,54.7z" />
    <polygon class="st2" points="232.9,53.3 75.9,53.3 75.9,52.6 232.9,52.6 	" />
    <polygon class="st2" points="76.1,58.9 82.4,58.9 82.4,60.2 79.9,60.2 79.9,68.1 78.6,68.1 78.6,60.2 76.1,60.2 	" />
    <path class="st2" d="M83.3,64.2h3.4c-0.2-0.8-0.9-1.3-1.6-1.3C84.2,62.9,83.5,63.4,83.3,64.2L83.3,64.2z M83.2,65.3
		c0.1,1,0.9,1.9,2,1.9c0.9,0,1.4-0.4,1.8-0.8l0.8,0.8c-0.5,0.6-1.3,1.2-2.6,1.2c-1.8,0-3.2-1.4-3.2-3.2c0-1.9,1.3-3.2,3-3.2
		s3,1.4,3,3.2c0,0.1,0,0.1,0,0.3h-4.8V65.3z" />
    <path class="st2" d="M90.5,62.5c0.3-0.3,1-0.7,1.9-0.7s1.7,0.4,2.3,1.1c0.4,0.5,0.6,1.1,0.6,2.2v3H94V65c0-0.8-0.1-1.2-0.4-1.4
		c-0.3-0.4-0.8-0.6-1.3-0.6c-0.8,0-1.4,0.4-1.8,0.9v4.2h-1.3v-6.2h1.2v0.6H90.5z" />
    <path class="st2" d="M97.8,64.2h3.4c-0.2-0.8-0.9-1.3-1.6-1.3C98.7,62.9,98,63.4,97.8,64.2L97.8,64.2z M97.7,65.3
		c0.1,1,0.9,1.9,2,1.9c0.9,0,1.4-0.4,1.8-0.8l0.8,0.8c-0.5,0.6-1.3,1.2-2.6,1.2c-1.8,0-3.2-1.4-3.2-3.2c0-1.9,1.3-3.2,3-3.2
		s3,1.4,3,3.2c0,0.1,0,0.1,0,0.3h-4.8V65.3z" />
    <path class="st2" d="M107.7,68.1c-0.2,0.1-0.6,0.1-1,0.1c-0.8,0-1.4-0.3-1.7-0.7c-0.4-0.4-0.5-1-0.5-1.6V63h-1.6v-1.1h1.6v-1.7h1.2
		v1.7h2V63h-2v2.9c0,0.3,0,0.6,0.2,0.8c0.2,0.2,0.5,0.3,0.9,0.3c0.2,0,0.5,0,0.7-0.1L107.7,68.1L107.7,68.1z" />
    <polygon class="st2" points="119.2,63.8 114.1,63.8 114.1,68.1 112.8,68.1 112.8,58.9 114.1,58.9 114.1,62.5 119.2,62.5 
		119.2,58.9 120.5,58.9 120.5,68.1 119.2,68.1 	" />
    <path class="st2" d="M123.3,64.2h3.4c-0.2-0.8-0.9-1.3-1.6-1.3C124.2,62.9,123.5,63.4,123.3,64.2L123.3,64.2z M123.2,65.3
		c0.1,1,0.9,1.9,2,1.9c0.9,0,1.4-0.4,1.8-0.8l0.8,0.8c-0.5,0.6-1.3,1.2-2.6,1.2c-1.8,0-3.2-1.4-3.2-3.2c0-1.9,1.3-3.2,3-3.2
		s3,1.4,3,3.2c0,0.1,0,0.1,0,0.3h-4.8V65.3z" />
    <path class="st2" d="M133.9,63.9c-0.4-0.5-1-0.9-1.8-0.9c-1.2,0-2,1-2,2c0,1.1,0.9,2,2.1,2c0.6,0,1.3-0.3,1.7-0.9V63.9L133.9,63.9z
		 M133.9,67.5c-0.5,0.4-1.2,0.7-1.9,0.7c-0.6,0-1.1-0.2-1.6-0.4c-0.9-0.6-1.6-1.6-1.6-2.8c0-1.2,0.7-2.3,1.6-2.8
		c0.4-0.3,0.9-0.4,1.5-0.4c0.7,0,1.4,0.2,1.9,0.7v-0.6h1.2v6.2h-1.2v-0.6H133.9z" />
    <polygon class="st2" points="136.9,58.8 138.2,58.8 138.2,68.1 136.9,68.1 	" />
    <path class="st2" d="M143.9,68.1c-0.2,0.1-0.6,0.1-1,0.1c-0.8,0-1.4-0.3-1.7-0.7c-0.4-0.4-0.5-1-0.5-1.6V63h-1.6v-1.1h1.6v-1.7h1.2
		v1.7h2V63h-2v2.9c0,0.3,0,0.6,0.2,0.8c0.2,0.2,0.5,0.3,0.9,0.3c0.2,0,0.5,0,0.7-0.1L143.9,68.1L143.9,68.1z" />
    <path class="st2" d="M146.3,62.5c0.3-0.3,1-0.7,1.8-0.7c0.9,0,1.7,0.4,2.2,1.1c0.4,0.5,0.6,1.1,0.6,2.2v3h-1.2V65
		c0-0.8-0.1-1.2-0.4-1.4c-0.3-0.4-0.8-0.6-1.3-0.6c-0.8,0-1.4,0.4-1.8,0.9v4.2h-1.3v-9.3h1.3L146.3,62.5L146.3,62.5z" />
    <path class="st2" d="M159.9,62.8c0.6,0,1-0.2,1.2-0.4s0.4-0.6,0.4-0.9c0-0.4-0.1-0.7-0.4-0.9c-0.2-0.3-0.6-0.4-1.2-0.4h-2.1v2.6
		L159.9,62.8L159.9,62.8z M157.8,64v4.1h-1.3v-9.2h3.5c0.9,0,1.5,0.2,1.9,0.6c0.6,0.5,0.9,1.2,0.9,2s-0.4,1.5-0.9,2
		c-0.4,0.4-1,0.6-1.9,0.6L157.8,64L157.8,64z" />
    <path class="st2" d="M168,63.9c-0.4-0.5-1-0.9-1.8-0.9c-1.2,0-2,1-2,2c0,1.1,0.9,2,2.1,2c0.6,0,1.3-0.3,1.7-0.9V63.9L168,63.9z
		 M168.1,67.5c-0.5,0.4-1.2,0.7-1.9,0.7c-0.6,0-1.1-0.2-1.6-0.4c-0.9-0.6-1.6-1.6-1.6-2.8c0-1.2,0.7-2.3,1.6-2.8
		c0.4-0.3,0.9-0.4,1.5-0.4c0.7,0,1.4,0.2,1.9,0.7v-0.6h1.2v6.2H168v-0.6H168.1z" />
    <path class="st2" d="M176.7,66.8c-0.5,0.9-1.6,1.4-2.7,1.4c-1.9,0-3.3-1.4-3.3-3.2c0-1.8,1.4-3.2,3.2-3.2c1.1,0,2.1,0.5,2.6,1.3
		l-0.9,0.8c-0.3-0.5-0.9-0.9-1.7-0.9c-1.1,0-2,0.9-2,2c0,1.2,0.9,2,2.1,2c0.8,0,1.4-0.4,1.8-1L176.7,66.8L176.7,66.8z" />
    <path class="st2" d="M177.7,61.9h1.3v6.2h-1.3V61.9L177.7,61.9z M178.4,58.9c0.5,0,0.8,0.4,0.8,0.8c0,0.5-0.4,0.8-0.8,0.8
		c-0.5,0-0.8-0.4-0.8-0.8C177.6,59.3,177.9,58.9,178.4,58.9L178.4,58.9z" />
    <path class="st2" d="M186.6,58.8c0.5,0,0.8,0.4,0.8,0.8c0,0.5-0.4,0.8-0.8,0.8s-0.8-0.4-0.8-0.8C185.8,59.1,186.2,58.8,186.6,58.8
		L186.6,58.8z M181.4,61.4c0-0.8,0.1-1.3,0.4-1.7c0.4-0.6,1.2-1,2-1c0.3,0,0.6,0,0.7,0.1l-0.3,1.1c-0.1,0-0.3-0.1-0.5-0.1
		c-0.4,0-0.7,0.2-0.9,0.4s-0.2,0.5-0.2,1.1v0.6h4.6v6.2H186V63h-3.4v5.1h-1.2V63H180v-1.1h1.4V61.4L181.4,61.4z" />
    <path class="st2" d="M194.6,66.8c-0.5,0.9-1.6,1.4-2.7,1.4c-1.9,0-3.3-1.4-3.3-3.2c0-1.8,1.4-3.2,3.2-3.2c1.1,0,2.1,0.5,2.6,1.3
		l-0.9,0.8c-0.3-0.5-0.9-0.9-1.7-0.9c-1.1,0-2,0.9-2,2c0,1.2,0.9,2,2.1,2c0.8,0,1.4-0.4,1.8-1L194.6,66.8L194.6,66.8z" />
    <path class="st2" d="M203.3,58.8c1.3,0,2.6,0.5,3.4,1.4l-0.9,0.9c-0.5-0.6-1.5-1-2.5-1c-1.9,0-3.3,1.5-3.3,3.5
		c0,2.1,1.5,3.5,3.5,3.5c1.2,0,2.1-0.7,2.6-1.3l0.9,0.8c-0.8,1-2.2,1.7-3.6,1.7c-2.7,0-4.8-2-4.8-4.7
		C198.7,60.9,200.7,58.8,203.3,58.8L203.3,58.8z" />
    <path class="st2" d="M210.8,67.1c1.1,0,1.9-0.9,1.9-2s-0.8-2-1.9-2c-1.1,0-1.9,0.9-1.9,2C208.9,66.2,209.7,67.1,210.8,67.1
		L210.8,67.1z M210.8,61.8c1.8,0,3.2,1.4,3.2,3.2c0,1.8-1.4,3.2-3.2,3.2s-3.2-1.4-3.2-3.2C207.6,63.2,209,61.8,210.8,61.8
		L210.8,61.8z" />
    <path class="st2" d="M219.9,63.9c-0.4-0.5-1-0.9-1.8-0.9c-1.2,0-2,1-2,2c0,1.1,0.9,2,2.1,2c0.6,0,1.3-0.3,1.7-0.9V63.9L219.9,63.9z
		 M220,67.5c-0.5,0.4-1.2,0.7-1.9,0.7c-0.6,0-1.1-0.2-1.6-0.4c-0.9-0.6-1.6-1.6-1.6-2.8c0-1.2,0.7-2.3,1.6-2.8
		c0.4-0.3,0.9-0.4,1.5-0.4c0.7,0,1.4,0.2,1.9,0.7v-0.6h1.2v6.2H220V67.5L220,67.5z" />
    <path class="st2" d="M223.1,66.5c0.6,0.4,1.2,0.7,1.8,0.7c0.5,0,1.1-0.3,1.1-0.8c0-0.7-1-0.8-1.9-1.1c-0.8-0.2-1.4-0.7-1.4-1.6
		c0-1.3,1.2-1.9,2.3-1.9c0.9,0,1.6,0.3,2.1,0.7l-0.6,0.9c-0.4-0.3-0.8-0.5-1.3-0.5c-0.6,0-1.1,0.3-1.1,0.8c0,0.4,0.5,0.6,1.1,0.7
		c1,0.3,2.2,0.7,2.2,2c0,1.2-1.1,1.9-2.3,1.9c-1,0-1.8-0.3-2.5-0.9L223.1,66.5L223.1,66.5z" />
    <path class="st2" d="M232.7,68.1c-0.2,0.1-0.6,0.1-1,0.1c-0.8,0-1.4-0.3-1.7-0.7c-0.4-0.4-0.5-1-0.5-1.6V63h-1.6v-1.1h1.6v-1.7h1.3
		v1.7h2V63h-2v2.9c0,0.3,0,0.6,0.2,0.8c0.2,0.2,0.5,0.3,0.9,0.3c0.2,0,0.5,0,0.7-0.1L232.7,68.1L232.7,68.1z" />
    <polygon class="st2" points="78.8,28.9 87.8,28.9 87.8,31.7 75.9,31.7 75.9,11.3 78.8,11.3 	" />
    <path class="st2" d="M95.7,29.4c2.5,0,4.3-2,4.3-4.5s-1.8-4.5-4.3-4.5s-4.3,2-4.3,4.5C91.4,27.3,93.2,29.4,95.7,29.4L95.7,29.4z
		 M95.7,17.7c4,0,7.1,3.1,7.1,7.1c0,4.1-3,7.1-7.1,7.1c-4,0-7.1-3.1-7.1-7.1S91.7,17.7,95.7,17.7L95.7,17.7z" />
    <path class="st2" d="M105.5,28c1.3,1,2.7,1.5,4,1.5c1.2,0,2.4-0.6,2.4-1.7c0-1.6-2.3-1.7-4.3-2.3c-1.7-0.6-3.1-1.6-3.1-3.5
		c0-2.9,2.6-4.3,5.1-4.3c2,0,3.5,0.6,4.5,1.5l-1.4,2c-0.8-0.6-1.8-1.1-2.9-1.1c-1.3,0-2.5,0.6-2.5,1.7c0,0.9,1.1,1.3,2.4,1.6
		c2.2,0.6,5,1.5,5,4.3c0,2.6-2.4,4.2-5.1,4.2c-2.2,0-4-0.7-5.5-1.9L105.5,28L105.5,28z" />
    <path class="st2" d="M129.7,23.7h6.3l-3.1-7.6L129.7,23.7L129.7,23.7z M137.1,26.4h-8.6l-2.1,5.2h-3l8.4-20.4h2l8.4,20.4h-3
		L137.1,26.4L137.1,26.4z" />
    <polygon class="st2" points="143.8,11 146.6,11 146.6,31.7 143.8,31.7 	" />
    <path class="st2" d="M159.7,22.3c-0.8-1.1-2.2-2-3.9-2c-2.7,0-4.4,2.1-4.4,4.5s1.9,4.5,4.5,4.5c1.4,0,2.8-0.7,3.8-2L159.7,22.3
		L159.7,22.3z M159.8,30.4c-1.1,1-2.6,1.5-4.2,1.5c-1.2,0-2.5-0.3-3.4-0.9c-2.1-1.2-3.5-3.5-3.5-6.2s1.5-5,3.5-6.3
		c0.9-0.6,2.1-0.9,3.3-0.9c1.5,0,3,0.5,4.3,1.5V18h2.7v13.7h-2.7L159.8,30.4L159.8,30.4z" />
    <path class="st2" d="M168.1,18v1.3c0.6-0.6,2.2-1.6,4-1.6c2,0,3.7,0.9,4.8,2.3c1.3-1.3,2.7-2.3,5.2-2.3c2,0,3.7,0.9,4.9,2.3
		c0.8,1,1.3,2.4,1.3,4.7v7h-2.8v-7.4c0-1.4-0.3-2.2-0.8-2.7c-0.6-0.7-1.5-1.2-2.6-1.2c-2,0-3.3,1-4.2,2c0.1,0.7,0.2,1.5,0.2,2.4v7
		h-2.8v-7.4c0-1.4-0.3-2.2-0.8-2.7c-0.6-0.7-1.6-1.2-2.7-1.2c-1.7,0-3.1,1-3.8,2v9.4h-2.8V18H168.1L168.1,18z" />
    <path class="st2" d="M190.7,18h2.8v13.7h-2.8V18L190.7,18z M192,11.3c1,0,1.8,0.8,1.8,1.8s-0.8,1.8-1.8,1.8s-1.8-0.8-1.8-1.8
		S191,11.3,192,11.3L192,11.3z" />
    <path class="st2" d="M205.8,31.7c-0.5,0.2-1.4,0.3-2.2,0.3c-1.7,0-3-0.6-3.9-1.6c-0.8-0.9-1.1-2.2-1.1-3.6v-6.3h-3.5V18h3.5v-3.8
		h2.8V18h4.4v2.5h-4.4v6.4c0,0.7,0.1,1.3,0.4,1.7c0.4,0.5,1.2,0.7,1.9,0.7c0.4,0,1.1-0.1,1.5-0.2L205.8,31.7L205.8,31.7z" />
    <path class="st2" d="M213.9,29.4c2.5,0,4.3-2,4.3-4.5s-1.8-4.5-4.3-4.5s-4.3,2-4.3,4.5C209.6,27.3,211.4,29.4,213.9,29.4
		L213.9,29.4z M213.9,17.7c4,0,7.1,3.1,7.1,7.1c0,4.1-3,7.1-7.1,7.1c-4,0-7.1-3.1-7.1-7.1C206.9,20.8,209.9,17.7,213.9,17.7
		L213.9,17.7z" />
    <path class="st2" d="M223.4,28c1.3,1,2.7,1.5,4,1.5c1.2,0,2.4-0.6,2.4-1.7c0-1.6-2.3-1.7-4.3-2.3c-1.7-0.6-3.1-1.6-3.1-3.5
		c0-2.9,2.6-4.3,5.1-4.3c2,0,3.5,0.6,4.5,1.5l-1.4,2c-0.8-0.6-1.8-1.1-2.9-1.1c-1.3,0-2.5,0.6-2.5,1.7c0,0.9,1.1,1.3,2.4,1.6
		c2.2,0.6,5,1.5,5,4.3c0,2.6-2.4,4.2-5.1,4.2c-2.2,0-4-0.7-5.5-1.9L223.4,28L223.4,28z" />
    <polygon class="st2" points="81,44.9 80.1,44.9 77.3,40.5 77.3,47 75.9,47 75.9,37.3 76.8,37.3 80.6,43.2 84.3,37.3 85.2,37.3 
		85.2,47 83.9,47 83.9,40.5 	" />
    <path class="st2" d="M88.1,42.9h3.5c-0.2-0.8-0.9-1.4-1.7-1.4C89.1,41.5,88.3,42.1,88.1,42.9L88.1,42.9z M88,44c0.1,1.1,1,2,2.1,2
		c1,0,1.5-0.5,1.9-0.9l0.9,0.8c-0.5,0.6-1.4,1.2-2.7,1.2c-1.9,0-3.3-1.4-3.3-3.4c0-1.9,1.3-3.4,3.2-3.4c1.8,0,3.1,1.5,3.1,3.4
		c0,0.1,0,0.2,0,0.3L88,44L88,44z" />
    <path class="st2" d="M99.1,42.5c-0.4-0.5-1.1-0.9-1.8-0.9c-1.3,0-2.1,1-2.1,2.1c0,1.2,0.9,2.1,2.1,2.1c0.7,0,1.3-0.3,1.8-0.9V42.5
		L99.1,42.5z M99.1,46.4c-0.5,0.5-1.2,0.7-2,0.7c-0.6,0-1.2-0.2-1.6-0.4c-1-0.6-1.7-1.7-1.7-2.9c0-1.3,0.7-2.4,1.7-3
		c0.4-0.3,1-0.4,1.6-0.4c0.7,0,1.4,0.2,2,0.7v-3.9h1.3V47h-1.3V46.4L99.1,46.4z" />
    <path class="st2" d="M102.2,40.5h1.3V47h-1.3V40.5L102.2,40.5z M102.9,37.3c0.5,0,0.9,0.4,0.9,0.9s-0.4,0.9-0.9,0.9
		s-0.9-0.4-0.9-0.9S102.4,37.3,102.9,37.3L102.9,37.3z" />
    <path class="st2" d="M111.2,45.6c-0.5,0.9-1.7,1.5-2.9,1.5c-2,0-3.5-1.5-3.5-3.4s1.4-3.4,3.4-3.4c1.1,0,2.2,0.6,2.8,1.4l-1,0.8
		c-0.4-0.5-1-1-1.8-1c-1.2,0-2.1,0.9-2.1,2.1c0,1.3,0.9,2.1,2.2,2.1c0.9,0,1.5-0.5,1.9-1L111.2,45.6L111.2,45.6z" />
    <path class="st2" d="M117,42.5c-0.4-0.5-1.1-0.9-1.8-0.9c-1.3,0-2.1,1-2.1,2.1c0,1.2,0.9,2.1,2.2,2.1c0.7,0,1.3-0.3,1.8-0.9
		L117,42.5L117,42.5z M117.1,46.4c-0.5,0.5-1.2,0.7-2,0.7c-0.6,0-1.2-0.2-1.6-0.4c-1-0.6-1.7-1.7-1.7-2.9c0-1.3,0.7-2.4,1.7-3
		c0.4-0.3,1-0.4,1.6-0.4c0.7,0,1.4,0.2,2,0.7v-0.6h1.3V47h-1.3V46.4L117.1,46.4z" />
    <polygon class="st2" points="120.1,37.2 121.4,37.2 121.4,47 120.1,47 	" />
    <path class="st2" d="M131.3,37.2c1.4,0,2.7,0.6,3.5,1.5l-0.9,0.9c-0.6-0.6-1.6-1.1-2.6-1.1c-2,0-3.5,1.6-3.5,3.7
		c0,2.2,1.6,3.7,3.6,3.7c1.3,0,2.2-0.7,2.8-1.4l1,0.9c-0.8,1.1-2.3,1.8-3.7,1.8c-2.9,0-5-2.1-5-5C126.4,39.4,128.5,37.2,131.3,37.2
		L131.3,37.2z" />
    <path class="st2" d="M137.1,42.9h3.5c-0.2-0.8-0.9-1.4-1.7-1.4S137.3,42.1,137.1,42.9L137.1,42.9z M137,44c0.1,1.1,1,2,2.1,2
		c1,0,1.5-0.5,1.9-0.9l0.9,0.8c-0.5,0.6-1.4,1.2-2.7,1.2c-1.9,0-3.3-1.4-3.3-3.4c0-1.9,1.3-3.4,3.2-3.4c1.8,0,3.1,1.5,3.1,3.4
		c0,0.1,0,0.2,0,0.3L137,44L137,44z" />
    <path class="st2" d="M144.6,41.1c0.3-0.3,1-0.8,1.9-0.8c1,0,1.8,0.4,2.4,1.1c0.4,0.5,0.6,1.2,0.6,2.3V47h-1.3v-3.2
		c0-0.8-0.2-1.2-0.4-1.5c-0.3-0.4-0.8-0.6-1.3-0.6c-0.9,0-1.5,0.5-1.9,0.9V47h-1.3v-6.5h1.3V41.1L144.6,41.1z" />
    <path class="st2" d="M155.3,47c-0.2,0.1-0.6,0.1-1,0.1c-0.8,0-1.4-0.3-1.8-0.8c-0.4-0.4-0.5-1-0.5-1.7v-3h-1.7v-1.2h1.7v-1.8h1.3
		v1.8h2.1v1.2h-2.1v3c0,0.3,0,0.6,0.2,0.8s0.6,0.3,0.9,0.3c0.2,0,0.5,0,0.7-0.1L155.3,47L155.3,47z" />
    <path class="st2" d="M157.3,42.9h3.5c-0.2-0.8-0.9-1.4-1.7-1.4S157.5,42.1,157.3,42.9L157.3,42.9z M157.2,44c0.1,1.1,1,2,2.1,2
		c1,0,1.5-0.5,1.9-0.9l0.9,0.8c-0.5,0.6-1.4,1.2-2.7,1.2c-1.9,0-3.3-1.4-3.3-3.4c0-1.9,1.3-3.4,3.2-3.4c1.8,0,3.1,1.5,3.1,3.4
		c0,0.1,0,0.2,0,0.3L157.2,44L157.2,44z" />
    <path class="st2" d="M167.1,41.7c-0.2,0-0.3-0.1-0.5-0.1c-0.7,0-1.4,0.5-1.8,1.1V47h-1.3v-6.5h1.3v0.7c0.3-0.4,1-0.9,1.9-0.9
		c0.1,0,0.4,0,0.5,0L167.1,41.7L167.1,41.7z" />
  </g>
</svg>