<?xml version="1.0" encoding="UTF-8"?> <svg xmlns="http://www.w3.org/2000/svg" xmlns:xlink="http://www.w3.org/1999/xlink" id="alfieri" x="0px" y="0px" viewBox="0 0 694.9 276.3" style="enable-background:new 0 0 694.9 276.3;" xml:space="preserve"> <style type="text/css"> .st0{fill:#015B7B;} .st1{fill:#6B2A4A;} </style> <g> <path class="st0" d="M688.6,146.9c-0.6,0.4-1.2,0.8-1.8,1.1c-1.4,0.8-2.3,1.9-3.2,3.2c-1.1,1.7-2.2,3.5-3.3,5.2 c-1.2,1.8-2.4,3.6-3.5,5.4c-1.1,1.7-2.2,3.4-3.3,5.1c-1.2,1.9-2.3,3.8-3.6,5.6c-0.7,0.9-1.2,1.9-1.8,2.9c-0.3,0.5-0.4,1.1-0.4,1.7 c0,3.3,0,6.7,0,10c0,3.8,0,7.7,0,11.5c0,1.4,0.5,2.6,1.5,3.5c0.9,0.8,1.9,1.5,3.1,1.7c0.7,0.1,1.3,0.4,1.9,0.9 c0.3,0.3,0.5,0.6,0.4,1c-0.1,0.4-0.4,0.7-0.9,0.8c-0.2,0-0.4,0-0.6,0c-1.2,0-2.3,0-3.5,0c-0.2,0-0.3,0-0.5,0 c-1.5-0.4-3-0.2-4.4-0.2c-1.7,0-3.5,0-5.2,0c-0.5,0-1.1,0.1-1.6,0.1c-0.9,0.1-1.7,0.1-2.6,0.1c-0.3,0-0.7-0.1-0.9-0.3 c-0.7-0.6-0.7-1,0-1.5c0.5-0.3,1-0.6,1.6-0.6c1.1-0.1,2.1-0.6,2.9-1.2c1-0.7,1.6-1.6,1.6-2.8c0-1,0-2,0-3c0-4,0-8,0-12 c0-2.3,0-4.6,0-6.9c0-0.9-0.2-1.7-0.7-2.5c-0.5-0.7-0.9-1.4-1.3-2.1c-1-1.7-2.1-3.4-3.1-5c-1.4-2.2-2.8-4.3-4.1-6.4 c-1.5-2.4-2.9-4.8-4.4-7.1c-0.9-1.4-1.7-2.7-2.6-4c-0.5-0.8-1.1-1.4-1.8-2c-0.5-0.4-1-0.7-1.6-0.9c-0.8-0.3-1.6-0.6-2.4-0.9 c-0.4-0.1-0.6-0.4-0.6-0.8c0-0.5,0.2-0.9,0.8-0.9c0.4,0,0.8-0.1,1.2-0.1c3.9,0,7.7,0,11.6,0c1.4,0,2.7,0,4.1,0c0.4,0,0.8,0,0.9,0.5 c0.2,0.5,0,0.9-0.4,1.2c-0.5,0.3-1.1,0.6-1.6,0.9c-0.3,0.2-0.6,0.3-0.8,0.5c-1.1,0.7-1.5,1.7-0.7,3.1c0.3,0.5,0.6,1.1,0.9,1.6 c0.8,1.3,1.6,2.7,2.5,4c0.8,1.3,1.7,2.6,2.5,3.9c1.2,2,2.4,3.9,3.6,5.9c0.7,1.1,1.4,2.3,2.1,3.4c0.3,0.4,0.7,0.8,1,1.2 c0.3,0.3,0.6,0.4,1,0.1c0.3-0.2,0.6-0.5,0.9-0.8c0.7-1,1.4-2,2.1-3.1c1.5-2.4,2.9-4.9,4.4-7.3c1.1-1.8,2.2-3.5,3.3-5.2 c0.4-0.6,0.8-1.3,1-1.9c0.2-0.5,0.3-1,0.3-1.6c0-0.4,0-0.9-0.1-1.4c0-0.2,0-0.4-0.1-0.5c-0.6-0.8-1.3-1.6-2.4-1.8 c-0.6-0.1-1.2-0.1-1.7-0.3c-0.5-0.2-1.1-0.4-1.6-0.6c-0.4-0.2-0.6-0.7-0.4-1.2c0.1-0.4,0.4-0.6,0.8-0.6c0.3,0,0.7,0,1,0 c4.3,0,8.7,0,13,0c0.5,0,1.1,0,1.6,0.3C688.6,146.1,688.6,146.5,688.6,146.9z"></path> <path class="st0" d="M241.6,145.5c1.1,0,2.2,0,3.3,0c3.2,0,6.3,0,9.5,0c0.8,0,1.5,0.1,2.3,0.4c0.8,0.3,1.5,0.6,2.4,0.6 c0.1,0,0.2,0,0.4,0.1c2.5,1,4.9,2.1,6.7,4.3c0.7,0.8,1.2,1.7,1.7,2.6c0.6,1.1,0.9,2.2,1,3.4c0,0.5,0.1,1,0.3,1.5 c0.4,1.3,0.4,2.7,0,4c-0.2,0.5-0.3,1.1-0.3,1.7c-0.1,0.6-0.2,1.1-0.4,1.7c-0.8,2.2-2.4,3.9-3.9,5.7c-0.2,0.2-0.4,0.4-0.7,0.6 c-0.6,0.4-1.1,0.8-1.7,1.3c-0.6,0.5-1.3,0.9-2,1.2c-0.3,0.1-0.7,0.3-1,0.5c-0.6,0.3-0.6,0.7-0.3,1.2c1.1,1.6,2.2,3.3,3.3,4.9 c0.8,1.2,1.6,2.5,2.5,3.7c1.5,2.1,2.9,4.4,4.3,6.6c1.2,1.8,2.3,3.6,3.6,5.3c1.1,1.5,2.2,3.1,3.5,4.5c1.2,1.3,2.7,2.4,4.5,2.9 c0.6,0.2,1.3,0.4,1.9,0.6c0.2,0.1,0.4,0.1,0.6,0.3c0.3,0.2,0.3,0.7,0,0.8c-0.4,0.2-0.8,0.5-1.2,0.5c-1.1,0.2-2.1,0.4-3.2,0.3 c-0.4,0-0.8,0-1.2,0c-1,0.1-2-0.1-3-0.5c-1-0.4-2-0.7-2.9-1.3c-0.3-0.2-0.7-0.4-1-0.7c-1.3-1.3-2.6-2.6-3.9-4 c-0.7-0.7-1.1-1.6-1.7-2.4c-1.7-2.6-3.3-5.2-5-7.8c-2-3.1-3.9-6.2-5.9-9.3c-0.4-0.7-1-1.3-1.5-1.9c-0.3-0.4-0.8-0.6-1.3-0.7 c-1-0.1-2-0.4-3.1-0.3c-1.6,0.1-3.1,0-4.7,0c-0.6,0-1.1,0.1-1.6,0.4c-0.4,0.2-0.6,0.5-0.6,1c0,0.3,0,0.6,0,0.9c0,2.8,0,5.6,0,8.4 c0,2,0,4,0,5.9c0,1.1,0,2.1-0.1,3.2c0,1.2,0.2,2.3,0.7,3.3c0.5,1,1.2,1.7,2.1,2.1c0.3,0.1,0.6,0.3,0.9,0.4c0.5,0.3,1.1,0.5,1.8,0.5 c1.1,0,2,0.5,2.9,0.9c0.2,0.1,0.4,0.4,0.5,0.6c0.2,0.6-0.1,1.1-0.7,1.1c-0.8,0-1.7,0.1-2.5-0.1c-1.4-0.3-2.9-0.2-4.3-0.2 c-2.4,0-4.8,0-7.2,0c-0.3,0-0.7,0-1,0c-1.1,0.3-2.3,0.2-3.4,0.2c-0.6,0-1.2,0-1.9,0c-0.5,0-0.8-0.1-1-0.6c-0.2-0.4,0-0.9,0.4-1.2 c0.4-0.3,0.8-0.5,1.2-0.7c0.2-0.1,0.5-0.2,0.7-0.3c1.7-0.6,2.8-1.8,3.6-3.4c0.2-0.4,0.2-0.8,0.3-1.2c0-0.2,0-0.5,0-0.7 c-0.2-2.6,0-5.2,0-7.8c0-3.5,0-7,0-10.5c0-0.8-0.1-1.6-0.1-2.3c0-0.5,0-0.9,0-1.4c0-2.8,0.1-5.6,0.1-8.4c0-1.4-0.1-2.9-0.1-4.3 c0-0.9,0.1-1.7,0.1-2.6c0-1.4-0.1-2.7-0.1-4.1c0-1.2,0-2.4,0.1-3.6c0.1-1.2-0.3-2.1-0.9-3.1c-0.5-0.9-1.3-1.5-2.2-1.9 c-0.4-0.2-0.9-0.2-1.3-0.3c-0.6-0.1-1.3-0.3-1.9-0.4c-0.3-0.1-0.6-0.3-0.8-0.5c-0.3-0.3-0.4-0.7-0.2-1.1c0.1-0.4,0.4-0.6,0.8-0.6 c0.3,0,0.7,0,1,0c3.3,0,6.7,0,10,0C239.8,145.4,240.7,145.4,241.6,145.5C241.6,145.4,241.6,145.4,241.6,145.5z M248.6,174.5 C248.6,174.4,248.6,174.4,248.6,174.5c0.9-0.1,1.9-0.1,2.8-0.1c1.6,0,3.3-0.1,4.8-0.9c0.1,0,0.2-0.1,0.2-0.1 c0.8-0.3,1.6-0.7,2.2-1.3c0.8-0.7,1.6-1.4,2.2-2.3c0.6-1,1.3-2,1.4-3.3c0.7-1.8,0.7-3.6,0.7-5.5c0-0.3-0.1-0.6-0.1-0.8 c-0.2-1-0.5-2.1-0.7-3.1c-0.1-0.3-0.1-0.6-0.3-0.8c-0.6-0.9-1.1-1.8-1.9-2.6c-0.6-0.6-1.3-1.3-1.9-1.9c-0.7-0.6-1.4-1.1-2.3-1.4 c-0.5-0.2-0.9-0.4-1.3-0.6c-0.6-0.3-1.3-0.6-2-0.6c-0.4,0-0.7-0.1-1.1-0.2c-1.2-0.4-2.4-0.6-3.6-0.6c-1.2,0-2.4,0-3.6-0.1 c-0.6,0-1.1,0.2-1.5,0.6c-0.3,0.3-0.5,0.6-0.7,0.8c-0.4,0.5-0.6,1.1-0.6,1.8c0,2.5,0.1,4.9,0.1,7.4c0,4.6,0,9.2,0,13.8 c0,0.7,0.3,1.1,0.9,1.3c0.6,0.2,1.3,0.4,1.9,0.4C245.5,174.5,247.1,174.5,248.6,174.5z"></path> <path class="st0" d="M295.6,176.3c0-4.2,0-8.5,0-12.7c0-1.4-0.1-2.9-0.1-4.3c0-1.5,0-3,0-4.6c0-1.7-0.4-3.2-1.2-4.6 c-0.4-0.9-1.2-1.5-2.1-1.8c-1-0.3-1.9-0.7-2.9-1c-0.7-0.2-0.9-0.5-1-1.1c0-0.4,0.2-0.6,0.6-0.7c0.2,0,0.5,0,0.7,0 c4.7,0,9.4,0,14.1,0c2.8,0,5.6,0,8.4,0c2.5,0,5,0,7.5,0c0.8,0,1.6,0.2,2.4,0.5c0.7,0.3,1.4,0.5,2.1,0.5c0.2,0,0.4,0,0.6,0.1 c1.2,0.4,2.4,0.9,3.6,1.3c0.8,0.3,1.7,0.7,2.5,1c0.9,0.4,1.7,0.9,2.5,1.5c1,0.7,2.1,1.4,3.1,2.2c1.2,0.9,2.2,2,3.2,3.1 c1.5,1.6,2.7,3.4,3.7,5.3c0.7,1.4,1.4,2.8,1.9,4.3c0.2,0.5,0.3,1,0.4,1.6c0.3,1.6,0.6,3.1,1,4.7c0,0.1,0.1,0.2,0,0.4 c-0.1,1.4,0.1,2.8-0.2,4.2c-0.1,0.4-0.1,0.9-0.1,1.3c0,0.4,0,0.7-0.2,1.1c-0.3,0.8-0.4,1.7-0.4,2.5c-0.1,0.8-0.1,1.6-0.3,2.3 c-0.3,1.1-0.7,2.2-0.8,3.3c-1,2-1.6,4.2-2.8,6.2c-1,1.5-2,3.1-3.3,4.5c-1.1,1.2-2.4,2.3-3.7,3.2c-1.2,0.9-2.5,1.5-3.8,2.2 c-1.1,0.6-2.3,0.9-3.4,1.5c-0.2,0.1-0.4,0.2-0.6,0.2c-0.9,0.1-1.7,0.4-2.5,0.7c-0.6,0.2-1.2,0.3-1.8,0.3c-0.8,0-1.6,0.2-2.4,0.4 c-0.7,0.2-1.4,0.2-2.1,0.3c-0.7,0.1-1.5,0.2-2.2,0.2c-0.3,0-0.7,0.1-1,0.1c-2,0-4,0-6.1,0c-1,0-2.1,0-3.1-0.2 c-0.4-0.1-0.8-0.1-1.2-0.1c-2.8,0-5.7,0-8.5,0c-0.2,0-0.5,0-0.7,0c-1.7,0.4-3.4,0.1-5.2,0.2c-0.2,0-0.4,0-0.6-0.1 c-0.4-0.1-0.6-0.5-0.5-0.9c0-0.4,0.3-0.6,0.6-0.7c0.9-0.1,1.6-0.6,2.4-0.9c1-0.4,1.7-1.1,2.2-2.1c0.7-1.4,1.2-2.9,1-4.5 c-0.1-0.7,0-1.4,0-2.1C295.6,188.9,295.6,182.6,295.6,176.3C295.7,176.3,295.7,176.3,295.6,176.3z M302.3,174.9 C302.3,174.9,302.3,174.9,302.3,174.9c0,7.7,0,15.3,0,23c0,0.3,0,0.6,0,0.9c0.1,0.8,0.4,1.4,1,1.9c0.6,0.4,1.2,0.8,1.9,1.2 c1,0.6,2.2,0.9,3.3,1.3c1.3,0.5,2.7,0.8,4.1,0.8c0.2,0,0.4,0,0.6,0.1c2,0.3,4.1,0.4,6.1,0.1c0.3-0.1,0.7,0,1-0.1 c0.6-0.1,1.2-0.1,1.8-0.2c1.3-0.3,2.5-0.7,3.8-1c0.1,0,0.2-0.1,0.3-0.2c0.9-0.5,1.8-0.9,2.8-1.4c2.5-1.2,4.4-3.1,6-5.2 c1.8-2.3,2.9-4.9,3.9-7.5c0.1-0.2,0.1-0.4,0.1-0.6c0.2-1,0.4-2.1,0.6-3.1c0.1-0.6,0.3-1.2,0.3-1.8c0-2.7,0-5.4,0.1-8.2 c0-2.4-0.5-4.7-1.2-6.9c-0.4-1.4-0.9-2.8-1.6-4.1c-0.8-1.6-1.6-3.2-2.7-4.7c-1.4-2-3-3.8-5-5.3c-1.5-1.1-3-2.1-4.7-2.9 c-0.6-0.3-1.3-0.5-1.9-0.8c-0.8-0.4-1.6-0.7-2.6-0.9c-0.9-0.2-1.8-0.5-2.7-0.8c-0.3-0.1-0.6-0.1-0.9-0.1c-0.9-0.1-1.7-0.2-2.6-0.4 c-0.9-0.2-1.9-0.4-2.8-0.3c-1,0-2,0-3,0c-0.3,0-0.7,0-1,0.1c-0.9,0.2-1.8,0.4-2.8,0.6c-0.4,0.1-0.8,0.2-1,0.4 c-0.9,0.9-1.6,1.9-1.6,3.3c0.1,2.9,0,5.8,0,8.6C302.3,165.4,302.3,170.1,302.3,174.9z"></path> <path class="st0" d="M621.1,186.9c0-2.4,0-4.8,0-7.2c0-0.2,0-0.5,0-0.7c0-0.3-0.2-0.6-0.5-0.8c-0.9-0.7-1.9-1.3-3.1-1.3 c-0.6,0-1.2-0.1-1.8-0.2c-0.4-0.1-0.9-0.3-1.2-0.5c-0.3-0.2-0.4-0.5-0.6-0.8c-0.2-0.4,0.1-0.9,0.5-1c0.2-0.1,0.4-0.1,0.6-0.1 c3.7,0,7.5,0,11.2,0c1,0,2.1,0.1,3.1,0.1c0.6,0,1.2-0.1,1.7-0.1c0.4,0,0.7,0,1.1,0.1c0.4,0.1,0.5,0.4,0.5,0.8 c0,0.3-0.2,0.6-0.6,0.7c-0.9,0.2-1.7,0.5-2.4,1.1c-0.3,0.3-0.6,0.6-0.8,0.9c-0.4,0.9-0.6,1.7-0.6,2.7c0.1,3.2,0,6.4,0,9.6 c0,2.2,0,4.4,0.1,6.7c0,0.2,0,0.3,0,0.5c0.1,0.6-0.2,1-0.8,1.2c-1.4,0.6-2.8,1.3-4.2,2c-0.9,0.4-1.8,0.9-2.6,1.4 c-1.1,0.7-2.2,1.2-3.4,1.8c-1.1,0.6-2.2,1-3.3,1.4c-1.3,0.5-2.7,0.9-4.1,1.2c-1.5,0.3-2.9,0.3-4.4,0.5c-0.1,0-0.3,0-0.4,0 c-1.7,0.5-3.5,0.2-5.3,0.3c-0.3,0-0.6-0.1-1-0.2c-0.4-0.1-0.7-0.1-1.1-0.2c-1.7-0.3-3.4-0.3-5.1-0.7c-1.6-0.4-3.2-0.8-4.7-1.4 c-1.8-0.7-3.5-1.6-5.1-2.7c-1.4-0.9-2.6-2.1-3.8-3.3c-1.4-1.3-2.7-2.8-3.7-4.4c-0.8-1.2-1.5-2.4-1.9-3.8c-0.3-1.1-0.8-2.1-1.2-3.1 c-0.1-0.4-0.3-0.8-0.4-1.2c-0.3-1.4-0.6-2.9-0.9-4.4c-0.3-1.3-0.2-2.7-0.2-4.1c0-1.9,0-3.9,0-5.8c0-0.3,0-0.6,0.1-0.9 c0.4-1.5,0.6-3.1,1.1-4.6c0.6-2.1,1.3-4.2,2.4-6.1c0.9-1.6,1.8-3.2,3.1-4.6c1.4-1.5,2.8-2.9,4.3-4.3c1.3-1.2,2.9-2.2,4.5-3 c1.2-0.6,2.5-1.2,3.8-1.8c0,0,0.1-0.1,0.1-0.1c1.7-0.2,3.1-1.3,4.9-1.3c0.1,0,0.2,0,0.4-0.1c2.1-0.8,4.3-0.8,6.6-0.8 c1.6,0,3.3,0,4.9,0c1.4,0,2.7,0.2,4,0.5c0.8,0.2,1.5,0.2,2.3,0.4c0.5,0.1,1,0.2,1.4,0.4c0.7,0.2,1.3,0.6,2,0.6 c0.2,0,0.5,0.1,0.7,0.2c2.2,0.9,4.2,2,6.3,3.2c0.1,0.1,0.3,0.2,0.4,0.3c0.4,0.2,0.7,0.2,1-0.1c0.3-0.2,0.6-0.5,0.9-0.8 c0.2-0.2,0.4-0.4,0.6-0.6c0.4-0.2,0.9-0.1,1.1,0.3c0.1,0.3,0.3,0.6,0.3,0.9c0.1,0.9,0.1,1.7,0.2,2.6c0,0.3,0,0.6,0.1,0.9 c0.2,1,0.3,2,0.2,2.9c0,0.1,0,0.2,0,0.2c0.5,1.6,0.1,3.4,0.5,5c0.1,0.4,0,0.8-0.1,1.2c-0.2,0.8-0.9,1-1.5,0.5 c-0.4-0.3-0.7-0.7-0.9-1.1c-1-1.5-1.9-3.1-3.1-4.4c-0.5-0.5-0.9-1.1-1.3-1.7c-1.1-1.5-2.4-2.7-3.8-3.8c-1.3-1-2.7-1.9-4.2-2.6 c-1.2-0.6-2.4-1.2-3.8-1.5c-1-0.2-2-0.6-3-0.8c-0.4-0.1-0.9-0.1-1.3-0.2c-0.6,0-1.1,0-1.7-0.2c-0.3-0.1-0.6-0.1-0.9-0.1 c-1.3,0-2.6,0-3.8,0.1c-1.1,0.1-2.2,0.2-3.3,0.4c-0.3,0-0.6,0.1-0.8,0.2c-0.8,0.4-1.6,0.7-2.5,0.8c-0.1,0-0.2,0.1-0.3,0.1 c-1.4,0.8-2.8,1.5-4.1,2.4c-1.5,1.1-2.9,2.4-4.1,3.9c-1.3,1.6-2.3,3.3-3.2,5.1c-0.7,1.4-1.3,2.8-1.7,4.4c-0.5,1.6-0.8,3.2-0.9,4.8 c-0.1,0.9-0.2,1.8-0.5,2.7c-0.1,0.5-0.2,1-0.2,1.5c0,0.8-0.1,1.6,0,2.5c0,0.5,0.1,1,0.2,1.5c0.4,1.4,0.6,2.8,0.7,4.3 c0,0.8,0.2,1.6,0.4,2.4c0.3,0.7,0.4,1.5,0.6,2.3c0.5,1.2,0.9,2.5,1.5,3.7c0.7,1.4,1.5,2.8,2.3,4.1c1.4,2.4,3.3,4.3,5.5,6 c1.8,1.4,3.7,2.6,5.9,3.2c0.2,0.1,0.4,0.1,0.6,0.2c1.1,0.6,2.3,0.8,3.6,0.9c0.2,0,0.4,0,0.6,0.1c1.8,0.6,3.8,0.3,5.6,0.4 c0.2,0,0.3,0,0.5-0.1c1.2-0.4,2.4-0.4,3.6-0.6c0.4-0.1,0.9-0.2,1.3-0.4c0.2,0,0.3-0.2,0.5-0.2c1.2-0.2,2.3-0.7,3.3-1.2 c0.6-0.3,1.3-0.6,1.8-1c1.9-1.3,3.4-2.8,4.4-4.9c0.3-0.7,0.4-1.4,0.4-2.2C621,191.6,621,189.3,621.1,186.9 C621,186.9,621.1,186.9,621.1,186.9z"></path> <path class="st0" d="M533.1,144.5c1.2,0,2.4-0.1,3.6,0c1.1,0.1,2.2,0.3,3.3,0.5c0.4,0.1,0.7,0.3,1.1,0.3c1,0,1.9,0.4,2.8,0.8 c0.3,0.1,0.5,0.2,0.8,0.3c0.6,0.1,1.2,0.3,1.7,0.6c0.1,0,0.1,0.1,0.2,0.1c2.6,1,4.8,2.6,7,4.2c1.7,1.3,3,2.7,4.3,4.4 c0.8,1.1,1.7,2,2.3,3.2c0.7,1.3,1.4,2.6,2,3.9c0,0,0,0.1,0,0.1c0.4,1.2,0.7,2.4,1,3.5c0.3,0.9,0.5,1.9,0.8,2.9 c0.3,0.8,0.4,1.6,0.4,2.4c0,2.3,0.1,4.7,0,7c-0.1,1.2-0.4,2.4-0.7,3.6c-0.1,0.5-0.3,1-0.4,1.6c-0.1,0.7-0.2,1.5-0.6,2.1 c0,0.1-0.1,0.2-0.1,0.2c-0.1,1.3-0.8,2.3-1.3,3.5c-0.6,1.4-1.4,2.7-2.3,3.9c-1.3,2-3,3.8-4.8,5.5c-1.8,1.7-3.9,3-6.1,4.1 c-1.4,0.7-2.9,1.3-4.4,1.9c-1.5,0.5-3,0.8-4.5,1.2c-0.3,0.1-0.6,0.1-0.9,0.1c-0.7,0-1.5,0-2.2,0.3c-0.2,0.1-0.5,0.1-0.7,0.1 c-0.7-0.1-1.4,0-2,0.3c-0.2,0.1-0.4,0.1-0.6,0.1c-1.2-0.1-2.4,0.1-3.6-0.2c-0.9-0.2-1.8-0.2-2.7-0.3c-1.4-0.2-2.8-0.5-4.2-0.8 c-1.8-0.4-3.5-1.2-5.1-2c-3.3-1.5-6-3.9-8.4-6.6c-2.1-2.4-3.6-5.1-4.8-8c-0.4-0.8-0.8-1.6-0.8-2.6c0-0.3-0.2-0.5-0.3-0.8 c-0.6-1.2-0.8-2.5-0.9-3.8c-0.2-1.6-0.4-3.3-0.6-4.9c-0.1-1.3-0.2-2.6,0-3.9c0.2-1.4,0.4-2.8,0.6-4.2c0.1-1,0.3-2,0.8-3 c0.2-0.5,0.3-1,0.5-1.5c0.1-0.3,0.1-0.6,0.2-0.8c0.6-1.3,1.2-2.7,2-4c0.9-1.7,2.1-3.4,3.4-4.8c1.3-1.4,2.5-2.8,4.1-3.9 c1.4-1,2.9-1.9,4.4-2.8c1-0.6,2-1.1,3.1-1.6c0.3-0.1,0.6-0.2,0.9-0.3c0.5-0.2,1.1-0.3,1.6-0.6c0.6-0.3,1.3-0.4,2-0.5 c0.4,0,0.9-0.1,1.3-0.3c1-0.5,2.1-0.6,3.1-0.6C530.8,144.5,532,144.5,533.1,144.5C533.1,144.5,533.1,144.5,533.1,144.5z M558,178.2 c0-1.4,0.1-2.7-0.3-4c0-0.1,0-0.2,0-0.2c-0.1-2.5-0.7-4.9-1.6-7.2c-0.6-1.7-1.4-3.4-2.3-5c-1.5-2.9-3.4-5.4-5.8-7.6 c-0.5-0.5-1.1-1-1.7-1.4c-1.5-1-3-1.9-4.5-2.7c-1.7-0.8-3.4-1.6-5.3-1.9c-2.3-0.5-4.7-0.9-7.1-0.8c-0.6,0-1.1,0.1-1.7,0.3 c-1.2,0.3-2.4,0.7-3.6,0.8c-0.4,0-0.8,0.2-1.2,0.4c-1.1,0.5-2.1,1.1-3.2,1.6c-1.4,0.7-2.7,1.6-3.8,2.7c-1.5,1.4-2.7,3.1-3.8,4.9 c-0.5,0.8-0.8,1.6-1.2,2.4c-0.7,1.4-1.3,2.8-1.7,4.4c-0.2,1-0.5,2-0.7,3c-0.2,0.7-0.3,1.5-0.4,2.2c-0.1,2.1-0.1,4.2,0,6.3 c0,0.5,0.1,1.1,0.2,1.6c0.3,1.6,0.7,3.2,1,4.8c0.1,0.3,0.2,0.6,0.3,0.9c0.1,0.3,0.3,0.6,0.3,0.9c0.2,1.6,1.2,2.9,1.6,4.4 c0.9,1.7,1.8,3.3,3,4.8c0.9,1.2,1.8,2.2,2.9,3.2c2.2,2.2,4.6,4.2,7.5,5.5c2,0.8,3.9,1.8,6.1,1.9c0.2,0,0.3,0.1,0.5,0.1 c1.1,0.3,2.3,0.4,3.4,0.4c1.4,0,2.8-0.1,4.3-0.4c1.4-0.3,2.9-0.5,4.3-1.1c0.4-0.2,0.9-0.2,1.3-0.5c1.3-0.8,2.7-1.5,3.9-2.4 c2-1.5,3.7-3.4,5.1-5.5c0.9-1.5,1.8-2.9,2.4-4.6c0.1-0.2,0.2-0.5,0.3-0.7c0.9-1.8,1.1-3.8,1.5-5.7c0-0.2,0-0.5,0-0.7 c0-0.4,0-0.8,0.1-1.1C558.2,180.7,558,179.4,558,178.2z"></path> <path class="st0" d="M414.2,144.5c1.2,0,2.4-0.1,3.6,0c1.1,0.1,2.1,0.4,3.2,0.5c1.9,0.2,3.7,0.8,5.4,1.5c0.9,0.3,1.8,0.7,2.6,1.1 c1.7,0.8,3.3,1.8,4.8,3c1,0.7,1.9,1.5,2.8,2.4c1.8,1.9,3.7,3.9,4.9,6.3c0.8,1.4,1.6,2.9,2.1,4.4c0.4,1.2,0.9,2.4,1.1,3.8 c0.1,0.7,0.3,1.4,0.4,2.2c0.5,2.3,0.8,4.7,0.6,7.1c-0.2,1.6-0.3,3.2-0.7,4.7c-0.2,0.6-0.2,1.2-0.3,1.8c-0.1,0.6-0.3,1.3-0.5,1.9 c-0.1,0.4-0.2,0.8-0.3,1.2c-0.1,0.2-0.1,0.5-0.2,0.7c-1.2,2.9-2.6,5.7-4.6,8.1c-0.8,1-1.5,2-2.4,2.8c-1.6,1.5-3.3,2.9-5.2,4 c-2.1,1.2-4.2,2.3-6.5,3c-1.4,0.4-2.8,0.8-4.3,1.2c-0.1,0-0.2,0-0.2,0c-1.4,0.1-2.8,0.3-4.2,0.4c-0.4,0-0.9,0.1-1.3,0.2 c-1.6,0.4-3.3,0.4-4.9,0c-0.3-0.1-0.6-0.1-0.9-0.1c-2-0.2-3.9-0.4-5.8-1c-1.3-0.4-2.6-0.8-3.8-1.4c-1.7-0.8-3.5-1.6-5-2.8 c-1.3-1-2.7-2-3.9-3.3c-1.6-1.7-2.9-3.5-4-5.5c-0.7-1.3-1.4-2.5-1.9-3.9c-0.5-1.3-0.8-2.6-1.3-3.8c-0.4-3-1.2-5.9-1-8.9 c0.1-1.4,0-2.9,0.1-4.3c0-0.9,0.2-1.7,0.4-2.6c0.3-1.4,0.5-2.9,1.2-4.3c0.1-0.2,0.2-0.4,0.3-0.7c0.4-2.1,1.6-3.9,2.6-5.7 c1.1-1.8,2.5-3.3,3.9-4.9c1.9-2,4.1-3.7,6.5-5.1c0.9-0.5,1.8-0.9,2.6-1.4c0.4-0.2,0.8-0.4,1.2-0.6c0.2-0.1,0.4-0.3,0.7-0.3 c0.8-0.1,1.5-0.5,2.2-0.7c0.6-0.2,1.2-0.4,1.8-0.4c0.6-0.1,1.1-0.2,1.7-0.4c0.9-0.4,1.9-0.5,2.9-0.5 C411.9,144.5,413.1,144.5,414.2,144.5C414.2,144.5,414.2,144.5,414.2,144.5z M439,179c-0.1-2-0.1-3.7-0.2-5.4c0-0.5-0.1-1-0.2-1.5 c-0.1-0.6-0.2-1.1-0.4-1.7c-0.2-0.8-0.3-1.6-0.6-2.3c-0.5-1.2-0.9-2.6-1.4-3.8c-0.7-1.7-1.6-3.3-2.6-4.7c-0.5-0.8-1-1.6-1.6-2.3 c-0.8-1-1.6-2.1-2.6-2.9c-1.3-1.1-2.7-2.1-4.1-3.1c-0.6-0.4-1.3-0.8-1.9-1.1c-0.9-0.5-1.9-0.9-2.9-1.3c-0.7-0.3-1.4-0.5-2.1-0.7 c-0.9-0.2-1.8-0.4-2.7-0.6c-2.5-0.5-5-0.6-7.5,0c-0.6,0.2-1.2,0.3-1.8,0.4c-1.1,0.2-2.3,0.3-3.2,1.1c-1.3,0.3-2.4,1.1-3.5,1.7 c-2,1.2-3.5,2.8-5,4.6c-1,1.2-1.7,2.5-2.4,3.9c-0.9,1.7-1.5,3.5-2.2,5.4c-0.7,2.1-0.8,4.3-1,6.4c-0.2,2.5,0,5.1,0.3,7.6 c0.2,2,1,3.9,1.5,5.8c0.2,0.7,0.3,1.4,0.6,2c0.4,1,0.9,1.9,1.4,2.9c0.9,1.8,2.2,3.4,3.3,5.1c0.2,0.3,0.5,0.7,0.7,1 c1.8,2,3.7,3.8,6.1,5.2c0.6,0.3,1.1,0.8,1.8,1.1c1.4,0.6,2.8,1.2,4.2,1.8c0.3,0.1,0.7,0.2,1.1,0.3c0.8,0.1,1.6,0.2,2.3,0.4 c1.2,0.4,2.3,0.4,3.5,0.4c0.5,0,1.1,0,1.6,0.1c0.5,0.1,1,0,1.5-0.2c0.7-0.3,1.3-0.4,2-0.4c0.9-0.1,1.8-0.2,2.6-0.7 c0.3-0.2,0.7-0.3,1-0.4c0.3-0.1,0.7-0.2,1-0.4c1.2-0.7,2.5-1.4,3.6-2.2c2-1.6,3.9-3.3,5.2-5.6c0.2-0.4,0.4-0.7,0.7-1 c0.9-1.3,1.6-2.7,2.1-4.2c0.1-0.3,0.2-0.6,0.3-0.8c0.4-0.7,0.5-1.4,0.6-2.1c0.1-0.8,0.2-1.5,0.5-2.3c0.1-0.2,0.1-0.5,0.1-0.7 C438.9,182,439,180.3,439,179z"></path> <path class="st0" d="M188.4,182.5c-3.1,0-6.2,0-9.3,0c-0.8,0-1.6,0.1-2.3,0.3c-0.5,0.1-0.9,0.4-1.2,0.8c-0.3,0.5-0.7,1-0.8,1.6 c0,0.2-0.1,0.3-0.2,0.5c-1.3,2.4-2.2,4.9-3.4,7.3c-0.4,0.9-0.7,1.8-1.3,2.7c-0.1,0.2-0.2,0.5-0.2,0.7c0,0.2,0,0.4-0.1,0.5 c-0.5,0.9-0.5,1.9-0.6,2.8c-0.1,1.2,0.5,2.1,1.2,3c0.2,0.3,0.6,0.5,0.9,0.7c0.4,0.3,0.8,0.4,1.2,0.5c0.5,0,1,0.1,1.5,0.2 c0.3,0.1,0.6,0.3,0.9,0.5c0.4,0.3,0.5,0.8,0.3,1.2c-0.2,0.5-0.5,0.8-1,0.8c-1.8-0.1-3.5,0-5.3-0.1c-2-0.2-4.1-0.1-6.2-0.1 c-1.2,0.4-2.4,0.2-3.6,0.2c-0.6,0-1-0.3-1-1c0-0.4,0.1-0.6,0.4-0.8c0.7-0.3,1.4-0.6,2.1-0.8c0.6-0.2,1.2-0.5,1.7-1 c0.8-0.8,1.5-1.6,2-2.7c0.8-1.8,1.8-3.6,2.6-5.4c0.6-1.4,1.3-2.8,2-4.2c0.8-1.8,1.6-3.7,2.5-5.5c0.8-1.7,1.7-3.4,2.5-5.1 c0.7-1.7,1.6-3.3,2.3-4.9c0.5-1.1,1.1-2.1,1.5-3.3c0.5-1.4,1.2-2.6,1.8-3.9c0.7-1.7,1.6-3.3,2.4-4.9c0.5-1,0.9-2,1.4-3 c0.8-1.7,1.7-3.5,2.5-5.2c0.4-1,0.9-1.9,1.3-2.9c0.5-1.1,1-2.2,1.5-3.3c0.5-1.1,1-2.2,1.6-3.4c0.2-0.4,0.5-0.9,0.8-1.2 c0.3-0.5,0.8-0.5,1.1,0c0.3,0.4,0.6,0.9,0.8,1.4c0.6,1.4,1.1,2.7,1.7,4.1c0.1,0.3,0.3,0.7,0.4,1c0.7,2.1,1.6,4.1,2.5,6.2 c0.1,0.3,0.2,0.6,0.3,0.9c0.2,0.4,0.3,0.9,0.5,1.3c0.8,2.1,1.7,4.2,2.5,6.3c0.2,0.5,0.4,0.9,0.6,1.3c0,0.1,0.1,0.1,0.1,0.2 c0.3,1.2,1,2.3,1.4,3.4c0.7,2.2,1.6,4.3,2.5,6.4c0.4,0.9,0.9,1.9,1.2,2.8c0.3,0.8,0.5,1.6,0.9,2.4c0.3,0.6,0.6,1.2,0.7,1.8 c0.4,1.3,1,2.5,1.5,3.8c0.1,0.3,0.3,0.6,0.4,0.9c0.6,1.3,1.1,2.6,1.5,3.9c0.1,0.4,0.3,0.7,0.4,1c0.5,1.3,1.1,2.7,1.6,4 c0,0.1,0.1,0.2,0.1,0.3c0.7,1.3,1.4,2.7,2.2,4c0.8,1.2,1.9,2,3.4,2.3c1,0.2,1.9,0.5,2.9,0.7c0.2,0.1,0.5,0.1,0.7,0.3 c0.3,0.2,0.5,0.6,0.4,0.9c-0.1,0.4-0.3,0.6-0.7,0.7c-0.2,0.1-0.4,0.1-0.6,0.1c-1.5,0-3,0-4.6,0c-0.1,0-0.2,0-0.2,0 c-1.6-0.4-3.3-0.1-4.9-0.2c-0.7,0-1.5,0-2.2,0c-0.8,0-1.6,0.1-2.3,0.2c-1.3,0.1-2.6,0.1-3.9,0c-0.2,0-0.3-0.1-0.5-0.1 c-0.4-0.2-0.7-0.4-0.8-0.9c-0.1-0.5,0.2-0.8,0.6-1c0.5-0.3,1-0.5,1.6-0.7c0.9-0.2,1.6-0.8,2.3-1.4c0.6-0.5,0.8-1.2,0.7-2 c0-0.1,0-0.2,0-0.2c-0.5-1.2-0.7-2.6-1.3-3.8c-0.3-0.5-0.6-1.1-0.6-1.7c0-0.2-0.1-0.3-0.2-0.5c-0.8-1.6-1.4-3.3-2-5.1 c-0.6-1.6-1.2-3.2-2-4.8c-0.6-1.2-1.7-1.9-3.2-1.9C194.9,182.6,191.6,182.5,188.4,182.5z M189.1,155.3c-0.3,0.3-0.4,0.4-0.5,0.6 c-0.6,1.2-1.1,2.4-1.7,3.6c-0.6,1.3-1.1,2.6-1.7,3.8c-0.7,1.6-1.5,3.2-2.3,4.8c-0.4,0.7-0.8,1.5-1.1,2.2c-0.4,1.3-1.1,2.5-1.7,3.7 c-0.4,0.9-0.7,1.8-1.3,2.6c-0.2,0.3-0.2,0.6-0.3,0.9c-0.1,0.9,0.3,1.3,1.2,1.3c0.5,0,1.1,0,1.6,0c5,0,10,0,14.9,0 c0.4,0,0.8,0,1.2-0.1c0.9-0.2,1.2-0.8,0.8-1.7c-0.2-0.4-0.5-0.8-0.6-1.2c-0.6-1.4-1.1-2.8-1.6-4.1c-0.5-1.3-1.2-2.4-1.5-3.8 c-0.1-0.4-0.3-0.7-0.4-1c-0.1-0.3-0.3-0.6-0.4-0.9c-0.3-1.3-1-2.5-1.5-3.8c-0.4-1.1-0.9-2.2-1.3-3.3c-0.4-1-0.8-2-1.2-3 C189.5,155.8,189.3,155.6,189.1,155.3z"></path> <path class="st0" d="M149.1,151.1c0.6-0.3,1.1-0.5,1.6-0.8c0.7-0.3,1-0.2,1.2,0.6c0.2,0.7,0.3,1.4,0.3,2.1c0,0.9,0,1.7,0.3,2.6 c0.1,0.4,0.1,0.8,0.1,1.2c0,1-0.1,2,0.2,2.9c0,0.2,0,0.3,0.1,0.5c0,1.1,0,2.1,0,3.2c0,0.4-0.1,0.7-0.4,1c-0.4,0.4-0.9,0.3-1.2-0.1 c-0.4-0.6-0.7-1.2-1-1.8c-0.6-1-1.1-1.9-1.7-2.9c-0.7-1-1.4-2-2.1-3c-1.8-2.6-4-4.6-6.6-6.2c-1.7-1-3.4-1.9-5.3-2.4 c-0.3-0.1-0.6-0.2-0.9-0.3c-0.4-0.1-0.8-0.3-1.2-0.3c-1.7,0-3.4-0.5-5.2-0.3c-0.6,0.1-1.2-0.1-1.8,0c-1.5,0.1-3,0.3-4.5,0.5 c-0.4,0-0.7,0.2-1.1,0.3c-0.5,0.1-0.9,0.3-1.4,0.4c-0.7,0.1-1.3,0.3-1.8,0.7c-0.2,0.1-0.4,0.2-0.5,0.3c-1.8,0.6-3.4,1.6-4.8,2.9 c-1.5,1.3-3,2.7-4.1,4.4c-1.2,1.7-2.2,3.6-2.8,5.6c-0.4,1.1-0.6,2.3-0.9,3.5c-0.1,0.5-0.2,1-0.4,1.4c-0.4,1.1-0.5,2.2-0.5,3.4 c0,1.7-0.1,3.5-0.1,5.2c0,1.2,0,2.4,0.1,3.6c0.1,1.1,0.5,2.3,0.7,3.4c0.1,0.6,0.3,1.2,0.4,1.8c0.4,1.4,0.7,2.8,1.4,4.1 c0.5,1.1,1,2.2,1.5,3.2c0.3,0.5,0.6,1,0.9,1.5c1.5,2.4,3.3,4.5,5.5,6.3c0.7,0.5,1.4,1,2,1.6c0.9,0.8,2.1,1.1,3.1,1.7 c0.7,0.4,1.4,0.6,2.1,0.9c0.3,0.1,0.7,0.2,1.1,0.3c1,0.2,2,0.3,3,0.5c0.7,0.2,1.5,0.2,2.2,0.2c0.8,0,1.6,0,2.3,0c0.3,0,0.7,0,1-0.1 c1.4-0.4,2.8-0.5,4.3-0.7c0.2,0,0.4,0,0.6-0.1c1.3-0.6,2.8-0.9,4.2-1.5c2.1-0.9,3.9-2,5.8-3.3c1.5-1,2.8-2.2,3.9-3.5 c1.1-1.2,1.9-2.6,2.5-4.1c0.2-0.5,0.5-0.7,0.9-0.6c0.4,0.1,0.7,0.3,0.7,0.7c0,0.3,0,0.7-0.1,1c-0.1,0.5-0.3,1-0.4,1.4 c-0.1,0.4-0.3,0.7-0.3,1.1c-0.1,1.6-0.6,3.1-0.9,4.7c-0.1,0.5-0.3,0.8-0.6,1.2c-0.6,0.7-1.4,1.2-2.1,1.7c-0.9,0.6-1.9,1-2.8,1.5 c-1.5,0.6-3.2,0.9-4.7,1.6c-0.2,0.1-0.4,0.2-0.6,0.2c-1.5,0.1-2.9,0.6-4.4,0.8c-0.3,0-0.6,0.1-0.9,0.1c-1.1,0-2.2,0.2-3.3,0.3 c-1.2,0.2-2.4,0-3.5,0.5c-1.6,0-3.1,0-4.7-0.1c-1.2-0.1-2.4-0.4-3.6-0.6c-0.4-0.1-0.7-0.1-1.1-0.1c-0.9,0-1.8-0.1-2.6-0.5 c-0.1-0.1-0.2-0.1-0.3-0.1c-1.5-0.1-2.8-0.9-4.2-1.4c-0.5-0.2-1-0.5-1.4-0.7c-3.3-1.7-6.1-3.9-8.5-6.7c-1.3-1.5-2.4-3.2-3.2-4.9 c-0.3-0.7-0.7-1.4-1.1-2.1c-0.4-0.9-0.7-1.8-1-2.7c-0.7-2-1-4-1.4-6c-0.5-2.5-0.5-5-0.2-7.5c0.1-0.9,0.3-1.8,0.5-2.7 c0.2-1,0.4-2.1,0.6-3.2c0-0.1,0-0.3,0.1-0.4c0.8-2.1,1.4-4.4,2.5-6.4c1.6-3.2,3.7-6,6.2-8.6c0.4-0.4,0.9-0.8,1.4-1.2 c1.1-0.8,2.2-1.6,3.3-2.3c1-0.6,2-1.1,3-1.6c0.4-0.2,0.9-0.5,1.3-0.7c0.3-0.1,0.6-0.3,0.9-0.4c1.4-0.5,2.7-1.1,4.1-1.2 c1.8-0.7,3.6-0.8,5.5-0.8c1.9,0,3.8,0.1,5.7,0.1c1.7,0,3.3,0.4,5,0.7c0.3,0.1,0.6,0.2,0.8,0.1c0.9,0,1.7,0.2,2.5,0.6 c0.3,0.1,0.5,0.3,0.8,0.3c0.9,0.1,1.8,0.6,2.7,0.9c1.8,0.6,3.3,1.6,4.9,2.6C147.4,150.3,148.2,150.7,149.1,151.1z"></path> <path class="st0" d="M461.2,145.4c2.8,0,5.5,0,8.3,0c0.3,0,0.6,0,0.9,0c0.2,0,0.5,0.1,0.7,0.2c0.6,0.4,0.6,1.1,0,1.5 c-0.7,0.4-1.4,0.7-2.2,0.9c-1,0.2-1.8,0.8-2.5,1.5c-0.3,0.3-0.5,0.7-0.6,1.1c-0.2,1-0.5,2.1-0.4,3.2c0.1,1.6,0,3.1,0,4.7 c-0.1,2.5,0,5.1,0,7.7c0,1.3,0.1,2.6,0,3.8c-0.1,2.1-0.2,4.3,0,6.4c0.1,0.6,0,1.2,0,1.9c0,1.1,0,2.2,0,3.3c0,0.6,0,1.2,0,1.7 c-0.2,2.7-0.2,5.4,0,8.1c0.1,0.7,0.1,1.4,0,2.1c-0.2,2-0.1,4-0.1,5.9c0,0.5,0.2,1,0.3,1.6c0,0.2,0.1,0.3,0.2,0.4 c0.8,0.6,1.5,1.3,2.6,1.4c0.5,0,1.1,0,1.6,0c2.5,0,4.9,0,7.4-0.1c1.2-0.1,2.3-0.4,3.5-0.6c0.6-0.1,1.2-0.3,1.8-0.3 c0.5,0,1-0.1,1.6-0.3c0.8-0.3,1.6-0.6,2.4-0.9c0.5-0.2,1.1-0.4,1.6-0.7c1.8-0.9,3.5-1.9,4.9-3.3c0.6-0.7,1.3-1.4,1.9-2.1 c0.1-0.1,0.3-0.3,0.5-0.4c0.2-0.1,0.5,0,0.6,0.2c0.1,0.2,0.2,0.5,0.2,0.7c0,0.7-0.1,1.5-0.2,2.2c0,0.1,0,0.3-0.1,0.4 c-0.8,1.8-1.7,3.6-3.1,5c-0.9,0.9-1.7,1.9-2.7,2.7c-0.3,0.3-0.7,0.5-1.1,0.6c-0.3,0-0.6,0.1-0.8,0.3c-1,0.5-2,0.5-3,0.5 c-0.8,0-1.6,0-2.3,0c-1.8,0-3.6,0-5.4,0c-0.2,0-0.3,0-0.5,0c-1.9-0.5-3.9-0.2-5.8-0.2c-3.2,0-6.4,0-9.6,0c-0.6,0-1.2,0.1-1.8,0.2 c-0.5,0-0.9,0.1-1.4,0.1c-1.6,0-3.1-0.1-4.7-0.1c-0.2,0-0.5,0-0.7,0c-0.3-0.1-0.6-0.2-0.8-0.4c-0.5-0.4-0.4-1,0.2-1.3 c0.7-0.3,1.4-0.6,2.2-0.9c1-0.4,1.9-1,2.6-1.9c0.3-0.4,0.5-0.8,0.6-1.3c0.2-1.1,0.3-2.3,0.3-3.4c0-3.3-0.1-6.5-0.1-9.8 c0-1.8,0-3.6,0-5.4c0-0.8,0-1.6,0-2.5c0-1.3,0-2.6,0-3.8c0-3.2,0-6.4,0-9.6c0-4.3,0-8.6,0.1-12.9c0-0.3,0-0.6,0.1-0.9 c0-1.3-0.4-2.3-1.5-3.1c-0.9-0.6-1.8-1.1-2.9-1.3c-0.8-0.2-1.5-0.6-2.3-0.9c-0.1-0.1-0.3-0.2-0.4-0.3c-0.4-0.4-0.3-1.1,0.3-1.3 c0.2-0.1,0.5-0.1,0.7-0.1c0.4,0,0.7,0,1.1,0C455.9,145.4,458.5,145.4,461.2,145.4z"></path> <path class="st0" d="M363.3,145.4c2.8,0,5.6,0,8.4,0c0.3,0,0.7,0,1,0c0.5,0,0.9,0.6,0.6,1.1c-0.1,0.2-0.4,0.5-0.6,0.6 c-0.9,0.4-1.9,0.7-2.9,1.1c-1.2,0.5-2,1.3-2.3,2.7c-0.2,0.9-0.2,1.8-0.2,2.7c0,4.3,0,8.7,0,13c0,4.8,0,9.6,0,14.3 c0,2.3,0,4.5,0,6.8c0,1.3,0,2.6,0,4c0,2.4,0,4.8,0.1,7.2c0,0.5,0.1,1.1,0.1,1.6c0.1,0.9,0.5,1.6,1.2,2.1c1,0.7,2.1,1.3,3.4,1.4 c0.5,0,1,0.2,1.4,0.4c0.3,0.1,0.7,0.3,0.9,0.6c0.3,0.3,0.4,0.7,0.2,1.1c-0.1,0.4-0.5,0.6-0.9,0.6c-1.6-0.1-3.2,0.1-4.8-0.2 c-0.4-0.1-0.8-0.1-1.2-0.1c-2.8,0-5.7,0-8.5,0c-0.3,0-0.7,0-1,0.1c-1.1,0.3-2.2,0.2-3.3,0.2c-0.1,0-0.2,0-0.2,0 c-0.6-0.1-1.1-0.6-1.1-1.1c0-0.6,0.5-1.3,1.1-1.5c0.2,0,0.4-0.1,0.6-0.1c0.5,0,1-0.2,1.4-0.4c0.2-0.1,0.4-0.2,0.5-0.3 c1-0.3,1.7-1,2.2-1.9c0.1-0.2,0.3-0.4,0.3-0.7c0.2-1.2,0.5-2.3,0.5-3.5c-0.1-2.3,0-4.5,0-6.8c0-3.1,0-6.2,0-9.3c0-4.7,0-9.3,0-14 c0-4.6,0-9.1,0-13.7c0-0.7-0.1-1.5-0.2-2.2c-0.3-1.5-1.2-2.4-2.6-2.9c-0.8-0.3-1.6-0.5-2.5-0.8c-0.3-0.1-0.7-0.2-1-0.4 c-0.3-0.1-0.5-0.4-0.6-0.7c-0.1-0.4,0.1-0.7,0.5-0.7c0.4,0,0.7,0,1.1,0C357.6,145.4,360.5,145.4,363.3,145.4z"></path> </g> <g> <path class="st1" d="M344,276.3c-0.1-0.1-0.3-0.2-0.4-0.2c-0.4-0.1-0.9-0.2-1.3-0.2c-2.4-0.3-4-1.7-5.2-3.7 c-0.2-0.3-0.3-0.6-0.5-0.8c-0.3-0.4-0.4-0.9-0.5-1.4c-0.1-0.6-0.2-1.1-0.3-1.7c-0.3-1.2-0.3-2.4,0.1-3.5c0.1-0.2,0.1-0.3,0.1-0.5 c0.5-2.6,2-4.6,3.9-6.3c0.5-0.5,1.1-0.9,1.7-1.4c0.7-0.6,0.7-1,0.2-1.7c-1-1.2-1.7-2.7-2.3-4.2c-0.1-0.3-0.2-0.7-0.2-1.1 c-0.1-0.5-0.2-1.1-0.2-1.6c0-1.7,0-3.3,1-4.7c0.4-0.6,1-1,1.4-1.5c1.1-0.4,2.2-0.8,3.4-1.2c0.1,0,0.2,0,0.2,0 c2.4,0.3,4.6,1.1,5.7,3.5c0.3,0.5,0.5,1,0.6,1.6c0.3,0.9,0.4,1.9,0,2.8c-0.1,0.3-0.2,0.6-0.2,0.8c-0.6,2.6-2,4.6-4,6.1 c-0.2,0.1-0.3,0.2-0.5,0.4c-0.5,0.5-0.5,0.8-0.1,1.4c1,1.5,1.9,3,2.9,4.5c0.9,1.4,1.7,2.9,2.6,4.3c0.1,0.1,0.1,0.2,0.2,0.3 c0.3,0.4,1,0.4,1.2,0c0.1-0.2,0.2-0.4,0.2-0.6c0.1-0.8,0.3-1.6,0.4-2.4c0.1-0.9,0.1-1.7,0.2-2.6c0-0.2,0.1-0.3,0.1-0.5 c0.7-0.3,1.5-0.3,2.2-0.2c0.4,0,0.6,0.4,0.7,0.8c0,0.1,0,0.2,0,0.2c-0.1,1.1-0.2,2.3-0.4,3.4c-0.1,0.4-0.2,0.9-0.3,1.3 c-0.2,0.7-0.5,1.3-0.6,2c0,0.5-0.3,0.9-0.6,1.2c-0.4,0.5-0.4,1,0,1.6c0.6,1,1.2,2,1.8,3c0.3,0.5,0.7,0.9,1,1.4 c0.2,0.2,0.3,0.4,0.5,0.6c-0.1,0.4-0.4,0.5-0.7,0.5c-0.5,0-0.9,0-1.4,0c-0.8,0-1.3-0.3-1.7-1c-0.3-0.6-0.7-1.2-1.1-1.8 c-0.3-0.5-0.8-0.6-1.2-0.3c-0.1,0.1-0.1,0.1-0.2,0.2c-0.9,1.2-2.3,1.9-3.6,2.5c-0.6,0.2-1.3,0.3-1.9,0.5c-0.3,0.1-0.5,0.2-0.8,0.2 C345.3,276.3,344.6,276.3,344,276.3z M345,273.6c0.7-0.1,1.3-0.2,1.8-0.2c1.8-0.1,3-1.2,4.1-2.5c0.4-0.5,0.4-1,0.1-1.5 c-0.1-0.2-0.2-0.4-0.3-0.5c-0.9-1.3-1.7-2.6-2.6-3.9c-1.2-1.9-2.4-3.7-3.7-5.6c-0.2-0.2-0.3-0.5-0.5-0.7c-0.4-0.5-0.7-0.5-1.1-0.1 c-0.3,0.3-0.5,0.6-0.8,0.8c-1.6,1.4-2.8,3.1-3.3,5.2c-0.4,1.8-0.4,3.5,0.2,5.2c0.6,1.7,1.8,2.8,3.5,3.4 C343.4,273.4,344.3,273.4,345,273.6z M345,243.2c-1.5,0-2.7,0.8-3.2,2.1c-0.5,1.1-0.3,2.3-0.1,3.4c0.3,1.7,1.3,3.2,2.2,4.6 c0.5,0.7,0.7,0.7,1.4,0.2c0.2-0.1,0.3-0.3,0.5-0.4c1.3-1.3,2.2-2.8,2.5-4.7c0.2-1.2,0.2-2.3-0.3-3.4c-0.1-0.3-0.3-0.7-0.6-0.9 C346.7,243.5,345.9,243.2,345,243.2z"></path> <path class="st1" d="M638.8,276.3c-0.3-0.4-0.8-0.4-1.2-0.4c-1.3-0.1-2.2-0.7-3.2-1.4c-1.1-0.8-1.8-1.9-2.4-3.1 c-0.9-1.9-1.3-3.9-1.7-5.9c-0.1-0.3-0.1-0.6-0.1-0.9c-0.1-3.4-0.2-6.7-0.1-10.1c0-0.8,0-1.6,0.1-2.3c0-0.5,0.2-1.1,0.3-1.6 c0.2-0.8,0.4-1.6,0.6-2.4c0.2-0.5,0.4-1.1,0.6-1.6c0.3-0.7,0.6-1.4,1-2.1c0.7-1.1,1.6-2,2.7-2.7c0.2-0.2,0.5-0.3,0.8-0.4 c1-0.3,2-0.6,3-0.9c0.3-0.1,0.6-0.1,0.8-0.1c1.7,0.2,3.3,0.6,4.8,1.4c1.3,0.7,2.1,1.8,2.9,3c0.9,1.4,1.3,3,1.8,4.6 c0.3,1,0.2,2.1,0.3,3.2c0,0.4-0.1,0.8,0,1.2c0.3,1.5,0.2,3,0.2,4.4c0,1,0.1,2.1,0,3.1c-0.1,1.8-0.2,3.7-0.4,5.5 c0,0.4-0.2,0.9-0.3,1.3c-0.5,1.7-1.1,3.4-2.3,4.9c-0.7,0.9-1.4,1.6-2.4,2c-1.1,0.5-2.2,0.9-3.4,1c-0.2,0-0.4,0.1-0.6,0.2 C639.9,276.3,639.4,276.3,638.8,276.3z M646.9,258.6c-0.1-1.9-0.2-3.9-0.2-5.9c0-0.7-0.1-1.5-0.3-2.2c-0.1-0.5-0.4-1-0.4-1.5 c-0.2-1.2-0.8-2.2-1.4-3.1c-1-1.3-2.2-2.2-3.8-2.5c-1.9-0.4-3.5,0.3-4.8,1.6c-0.7,0.7-1.1,1.5-1.6,2.3c-0.3,0.6-0.5,1.3-0.6,2 c-0.1,0.7-0.3,1.4-0.5,2c0,0.2-0.1,0.3-0.1,0.5c-0.1,0.9-0.2,1.9-0.4,2.8c0,0.3-0.1,0.7-0.1,1c0,1.8,0,3.5,0,5.3 c0,0.7,0.1,1.3,0.1,2c0.1,0.6,0.2,1.1,0.2,1.7c0,0.8,0.2,1.6,0.4,2.4c0.1,0.4,0.2,0.9,0.3,1.3c0.3,1.6,1.2,2.9,2.4,4.1 c0.5,0.5,1.2,0.8,1.8,1c0.8,0.2,1.7,0.4,2.6,0.3c0.8-0.1,1.7-0.2,2.3-0.7c1.3-0.9,2.3-2.1,2.8-3.6c0.3-0.8,0.5-1.7,0.7-2.6 c0.1-0.4,0.2-0.9,0.2-1.3C646.8,263.1,646.9,260.9,646.9,258.6z"></path> <path class="st1" d="M492.4,276.3c-0.5-0.4-1.1-0.4-1.6-0.5c-1.8-0.4-3.3-1.3-4.3-2.8c-1-1.5-1.8-3.1-2.1-5 c-0.1-0.8-0.4-1.6-0.5-2.4c-0.1-0.4-0.1-0.7-0.2-1.1c-0.1-1.8-0.2-3.6-0.2-5.4c0-1.9,0.1-3.8,0.2-5.7c0-0.3,0-0.7,0-1 c0.1-0.6,0.1-1.2,0.3-1.8c0.2-0.8,0.4-1.5,0.5-2.3c0.1-0.2,0.1-0.5,0.2-0.7c0.4-1,0.8-2,1.3-2.9c0.7-1.2,1.7-2.1,2.8-2.9 c0.2-0.1,0.4-0.2,0.7-0.3c0.9-0.3,1.9-0.5,2.8-0.9c0.6-0.2,1.1-0.2,1.7-0.1c1.1,0.3,2.2,0.5,3.2,0.9c1,0.4,1.9,0.9,2.6,1.8 c1,1.3,1.8,2.6,2.3,4.2c0.4,1.2,0.8,2.4,0.9,3.7c0,0.2,0.1,0.4,0.1,0.6c0.1,1.8,0.2,3.6,0.2,5.4c0,1.2,0,2.3,0,3.5 c0,0.8-0.1,1.6-0.2,2.5c0,0.5,0,0.9,0,1.4c0,1.5-0.2,3-0.7,4.4c-0.2,0.7-0.4,1.4-0.7,2.1c-0.4,0.8-0.9,1.6-1.5,2.3 c-1.3,1.8-3.1,2.6-5.3,2.9c-0.4,0.1-0.7-0.1-1,0.3C493.5,276.3,493,276.3,492.4,276.3z M500.5,258.6c-0.1-2.1-0.1-4.2-0.2-6.4 c-0.1-1.7-0.7-3.2-1.2-4.8c0-0.1-0.1-0.1-0.1-0.2c-0.8-1.4-1.8-2.6-3.3-3.4c-1-0.5-2-0.8-3.1-0.6c-1.9,0.3-3.4,1.4-4.3,3.1 c-0.6,1.1-1,2.1-1.1,3.4c0,0.3-0.2,0.6-0.2,1c-0.2,1.3-0.5,2.6-0.7,3.9c0,0.2,0,0.5,0,0.7c0.2,2,0.1,3.9,0,5.9c0,0.4-0.1,0.8,0,1.2 c0.3,1.9,0.4,3.8,1,5.6c0.3,1.1,0.8,2.1,1.4,3c0.6,0.9,1.4,1.6,2.4,2c1.5,0.5,3,0.6,4.5,0.2c0.3-0.1,0.6-0.2,0.9-0.4 c1.4-1,2.4-2.2,2.9-3.9c0.3-0.9,0.5-1.8,0.7-2.7c0.1-0.4,0.1-0.7,0.2-1.1C500.4,263,500.4,260.8,500.5,258.6z"></path> <path class="st1" d="M253.9,276.3c-0.6-0.2-1.2-0.3-1.8-0.5c-2.3-0.6-4-1.9-5.1-4.1c-0.8-1.4-1.2-3-1.6-4.5c-0.3-0.9-0.3-2-0.3-2.9 c0-0.9,0-1.9-0.2-2.8c-0.1-0.3,0-0.6,0-0.9c0-1.6,0-3.3,0-4.9c0-0.1,0-0.2,0-0.4c0.2-1.8,0.2-3.5,0.5-5.3c0.2-1.5,0.8-2.9,1.4-4.3 c0.7-1.5,1.8-2.7,3.1-3.8c0.2-0.2,0.5-0.4,0.7-0.4c1.2-0.4,2.4-0.7,3.6-1c0.4-0.1,0.9,0,1.3,0c1.1,0.2,2.2,0.5,3.2,0.9 c0.9,0.3,1.8,0.9,2.4,1.6c1.2,1.3,1.9,2.9,2.4,4.5c0.4,1.2,0.6,2.4,0.9,3.6c0.1,0.2,0.1,0.5,0.1,0.7c0,3.4,0.1,6.8,0.1,10.2 c0,1.2-0.1,2.4-0.1,3.6c0,0,0,0.1,0,0.1c-0.6,2.6-1.1,5.3-2.8,7.4c-0.6,0.8-1.4,1.4-2.3,1.8c-0.9,0.4-1.9,0.8-2.9,0.9 c-0.3,0-0.7,0-0.9,0.3C255.1,276.3,254.5,276.3,253.9,276.3z M247.7,258.1c0.2,2.1,0,4,0.2,5.8c0.1,1.3,0.2,2.6,0.7,3.9 c0.1,0.2,0.1,0.3,0.2,0.5c0.1,0.9,0.5,1.7,1,2.5c1,1.6,2.4,2.5,4.2,2.8c1.9,0.3,3.7,0,5.1-1.6c0.4-0.5,0.8-0.9,1.1-1.5 c0.5-1,1-2,1.1-3.1c0.1-0.4,0.2-0.8,0.3-1.2c0.4-1.7,0.6-3.4,0.5-5.1c0-1.6,0-3.2,0-4.8c0-0.7,0-1.4-0.1-2.1 c-0.1-1.4-0.5-2.8-0.8-4.2c-0.2-1-0.5-1.9-0.9-2.8c-0.8-1.7-2.1-2.8-3.8-3.5c-1.2-0.5-2.4-0.4-3.6,0.1c-2,0.9-3.2,2.5-3.9,4.5 c-0.3,1-0.6,2.1-0.8,3.1c-0.1,0.2-0.1,0.4-0.1,0.6C247.9,254,247.8,256.1,247.7,258.1z"></path> <path class="st1" d="M1.7,241.9c0.4-0.3,0.9-0.5,1.5-0.5c2.8,0.1,5.7,0,8.5,0.2c2.1,0.1,4,0.7,5.6,2c0.3,0.3,0.6,0.5,0.9,0.9 c0.4,0.6,0.7,1.2,1,1.8c0.1,0.2,0.2,0.5,0.2,0.7c0.1,1.4,0.3,2.7,0.3,4.1c0,0.9-0.2,1.9-0.3,2.8c0,0.2-0.1,0.4-0.2,0.6 c-0.8,1.8-1.9,3.3-3.6,4.2c-0.4,0.2-0.7,0.3-1.1,0.5c-0.5,0.2-0.9,0.4-1.4,0.5c-0.5,0.1-1,0.3-1.4,0.3c-1.5,0.1-3,0.1-4.6,0.1 c-0.4,0-0.9,0.1-1.3,0.2c-0.4,0.1-0.6,0.3-0.6,0.8c0,0.7,0.1,1.3,0.1,2c0,3.1,0,6.2,0,9.3c0,0.6,0.1,1.2,0.1,1.7 c0,0.3,0,0.6-0.1,0.9c-0.1,0.4-0.3,0.7-0.7,0.7c-0.4,0-0.9,0.1-1.4,0c-0.9-0.1-1.4-0.8-1.2-1.7c0.1-0.5,0.2-1,0.2-1.5 c0-9.5,0-19,0-28.4c0-0.6,0.1-1.2-0.4-1.6C1.7,242.2,1.7,242.1,1.7,241.9z M5.2,250.6C5.2,250.6,5.2,250.6,5.2,250.6 c0,1.8,0,3.6,0,5.4c0,0.8,0.2,1.1,1,1.3c0.2,0,0.3,0.1,0.5,0.1c1.5,0,3-0.1,4.6-0.1c1.2,0,2.2-0.4,3.1-1.1c1.4-1,2.4-2.4,2.5-4.2 c0-0.9,0-1.9,0-2.8c-0.1-0.9-0.3-1.8-0.9-2.5c-1.2-1.6-2.7-2.5-4.7-2.5c-1.6-0.1-3.2,0-4.8,0c-0.9,0-1.2,0.3-1.2,1.2 C5.2,247.1,5.2,248.8,5.2,250.6z"></path> <path class="st1" d="M451.7,247.7c-0.2,0.6-0.2,1.2-0.1,1.8c0.2,2.2,0.2,4.4,0.2,6.5c0,1.7-0.1,3.4-0.1,5.1c0,0.7,0.1,1.4,0.1,2.1 c0,0.1,0,0.2,0,0.4c0,3.3,0,6.7,0,10c0,2.2-0.4,2-2.1,1.9c-0.8,0-1-0.3-1.1-1.1c0-0.8,0-1.6,0-2.3c0-4.2,0-8.4,0-12.6 c0-3.8,0-7.7,0-11.5c0-2-0.1-4-0.1-5.9c0-0.4,0.2-0.7,0.7-0.7c0.8,0,1.6,0,2.5,0c0.5,0,0.8,0.3,0.9,0.7c0.3,0.8,0.7,1.5,1,2.3 c0.7,1.7,1.5,3.5,2.2,5.2c1.2,2.8,2.5,5.6,3.7,8.5c0.7,1.6,1.4,3.2,2.1,4.9c0.2,0.5,0.5,1,0.7,1.6c0.1,0.3,0.3,0.6,0.4,0.9 c0.3,1,0.7,2,1,3.1c0,0.1,0.1,0.2,0.1,0.3c0.1,0.2,0.3,0.4,0.6,0.4c0.3,0,0.5-0.2,0.5-0.5c0.1-0.4,0.1-0.9,0.1-1.4 c0-1.6,0-3.2,0-4.8c0-1.6,0-3.3,0-4.9c0-3,0-6,0-9c0-1.8,0-3.5-0.1-5.3c0-0.4-0.1-0.7-0.1-1.1c0-0.5,0.2-0.7,0.6-0.7 c0.6,0,1.2,0,1.9,0c0.4,0,0.7,0.3,0.7,0.7c0,0.5,0,1.1,0,1.6c0,5.2,0,10.5,0,15.7c0,4.9,0,9.8,0,14.7c0,0.2,0,0.4,0,0.6 c-0.1,0.5-0.3,0.8-0.8,0.8c-0.7,0-1.4,0-2.1,0c-0.5,0-0.9-0.3-1.1-0.9c-0.4-1.2-1.1-2.4-1.5-3.7c-0.3-1-0.8-2-1.3-2.9 c-0.5-1.1-0.9-2.2-1.4-3.3c0-0.1-0.1-0.2-0.1-0.3c-1-1.7-1.5-3.7-2.5-5.5c-0.2-1.2-1-2.2-1.3-3.3c-0.3-0.9-0.7-1.7-1.1-2.5 c-0.8-1.5-1.4-3.1-1.9-4.7c-0.1-0.2-0.2-0.4-0.3-0.6C452.4,247.7,452.2,247.7,451.7,247.7z"></path> <path class="st1" d="M280.5,241.6c0.1-0.1,0.3-0.2,0.4-0.2c0.9,0,1.7,0,2.6,0c0.5,0,0.8,0.3,0.9,0.7c0.7,1.8,1.6,3.5,2.3,5.3 c0.4,1.2,1,2.3,1.5,3.5c0.5,1.1,0.9,2.1,1.3,3.2c0.5,1.2,1,2.3,1.5,3.5c0.8,1.9,1.6,3.9,2.5,5.8c0,0.1,0.1,0.2,0.1,0.3 c0.9,1.5,1.3,3.1,1.8,4.7c0,0.1,0.1,0.2,0.1,0.3c0.1,0.2,0.3,0.4,0.6,0.4c0.3,0,0.5-0.2,0.5-0.5c0.1-0.4,0.1-0.9,0.1-1.4 c-0.2-1.6-0.1-3.1-0.1-4.7c0-3.5-0.1-6.9-0.1-10.4c0-2.5,0.1-4.9,0.1-7.4c0-0.7-0.1-1.4-0.1-2.1c0-0.3,0-0.6,0-0.9 c0-0.3,0.2-0.5,0.5-0.5c0.7,0,1.5,0,2.2,0c0.2,0,0.4,0.2,0.5,0.5c0,0.2,0,0.4,0,0.6c0,8.4,0,16.9,0,25.3c0,2.1,0,4.1,0,6.2 c0,0.2,0,0.4,0,0.6c-0.1,0.6-0.3,0.8-0.9,0.8c-0.6,0-1.2,0-1.9,0c-0.6,0-1.1-0.4-1.3-1c-0.3-0.8-0.7-1.5-1-2.3 c-0.4-1.1-0.8-2.2-1.3-3.2c-0.9-1.9-1.5-3.9-2.5-5.8c-0.5-0.9-0.8-1.8-1.2-2.7c-0.2-0.4-0.4-0.8-0.6-1.2c-0.2-0.5-0.4-1.1-0.6-1.6 c-0.1-0.2-0.1-0.3-0.2-0.5c-0.8-1.7-1.7-3.4-2.4-5.1c-0.5-1.2-0.9-2.5-1.4-3.7c-0.1-0.3-0.2-0.6-0.5-0.8c-0.2-0.1-0.6,0-0.6,0.2 c0,0.2-0.1,0.4-0.1,0.6c0,0.8,0.1,1.6,0.1,2.3c0,1,0,2.1,0,3.1c0,1,0,2.1,0,3.1c0,5.6,0,11.2,0,16.8c0,0.3,0,0.7,0,1 c-0.1,0.4-0.3,0.7-0.7,0.7c-0.5,0-0.9,0-1.4,0c-0.6,0-0.9-0.3-0.9-0.9c0-1.1,0-2.1,0-3.2c0-2.6,0.1-5.3,0-7.9c0-4.6,0-9.2-0.1-13.8 c0-2.6,0-5.1-0.1-7.7C280.4,241.9,280.4,241.7,280.5,241.6z"></path> <path class="st1" d="M684.5,258.3c0,3,0,6,0,9c0,2.1,0.1,4.3,0.1,6.4c0,0,0,0.1,0,0.1c0,1.5-0.2,1.7-1.7,1.7c-0.3,0-0.7,0-1,0 c-0.7,0-1.2-0.4-1.5-1.1c-0.2-0.5-0.3-1-0.6-1.5c-0.5-1.3-1-2.6-1.6-3.9c-0.9-1.9-1.5-3.8-2.5-5.6c-0.5-0.9-0.8-1.9-1.2-2.8 c-0.2-0.5-0.5-1-0.7-1.6c-0.1-0.3-0.2-0.7-0.4-1c-0.1-0.3-0.2-0.5-0.3-0.8c-0.5-1-1-2.1-1.5-3.1c-0.6-1.4-1.2-2.8-1.8-4.2 c-0.2-0.4-0.3-0.9-0.5-1.3c-0.1-0.3-0.2-0.5-0.4-0.8c-0.1-0.1-0.3-0.2-0.4-0.2c-0.1,0-0.3,0.2-0.3,0.3c-0.1,0.3-0.1,0.7-0.1,1 c0.3,4.1,0,8.2,0,12.2c0,4.2,0,8.4,0.1,12.6c0,0.4,0,0.7-0.1,1.1c-0.1,0.4-0.3,0.6-0.7,0.6c-0.4,0-0.8,0-1.2,0 c-0.7,0-1.1-0.3-1.1-1.1c0-0.7,0.1-1.3,0.1-2c0-1.6,0-3.3,0-4.9c0-0.2,0-0.5,0-0.7c0-2.3,0.1-4.6,0.1-6.9c0-0.5-0.1-1.1-0.1-1.6 c0-2.4,0-4.8,0.1-7.2c0-0.7,0-1.5,0-2.2c0-1.2-0.1-2.5-0.1-3.7c0-1-0.1-2-0.1-3c0-0.7,0.1-0.9,0.7-0.9c0.7,0,1.5,0,2.2,0 c0.7,0,1,0.4,1.3,1c0.5,1.3,1.1,2.6,1.6,3.9c0.5,1.1,0.9,2.2,1.4,3.3c0.9,2,1.7,4,2.6,6c0.8,2,1.6,3.9,2.5,5.9 c0.5,1.1,1,2.1,1.5,3.1c0.1,0.3,0.3,0.5,0.3,0.8c0.3,1.1,0.7,2.1,1,3.2c0.1,0.2,0.2,0.4,0.3,0.5c0.2,0.3,0.7,0.2,0.8-0.2 c0.1-0.2,0.1-0.4,0.1-0.6c0-0.6,0-1.2,0-1.7c0-1.1-0.1-2.2-0.1-3.3c0-3.3,0-6.5,0-9.8c0-1.2,0.1-2.4,0.1-3.6c0-0.7,0-1.5-0.1-2.2 c0-0.4,0-0.8,0-1.2c0-1.4,0.2-2.8,0-4.2c-0.1-0.6,0.2-0.8,0.8-0.9c0.5,0,1,0,1.5,0c0.8,0,1,0.3,1,1.1 C684.5,247.8,684.5,253,684.5,258.3C684.4,258.3,684.5,258.3,684.5,258.3z"></path> <path class="st1" d="M159.7,258.2c0-1.9,0-3.9,0-5.8c0-2.4,0-4.9,0-7.3c0-1-0.1-2-0.1-3c0-0.5,0.2-0.8,0.7-0.8c0.8,0,1.6,0,2.3,0 c0.5,0,0.8,0.2,1,0.7c0.6,1.4,1.3,2.8,1.9,4.3c0.5,1.2,0.9,2.4,1.4,3.6c0.8,2,1.8,3.9,2.6,5.9c1.1,2.5,2.2,5.1,3.2,7.6 c0,0.1,0.1,0.2,0.1,0.2c0.9,1.6,1.4,3.2,1.9,4.9c0,0.1,0.1,0.2,0.1,0.3c0.1,0.2,0.3,0.4,0.6,0.4c0.3,0,0.4-0.3,0.5-0.5 c0-0.5,0.1-1,0-1.5c0-1.1-0.1-2.1-0.1-3.2c0-6.5,0.1-13,0.1-19.5c0-0.7-0.1-1.5-0.1-2.2c0-0.6,0.2-0.9,0.8-0.9c0.5,0,1.1,0,1.6,0 c0.6,0,0.9,0.3,0.8,1c0,0.6-0.1,1.2-0.1,1.7c0,7.7,0,15.5,0,23.2c0,2.2,0,4.4,0,6.7c0,1.5-0.1,1.6-1.6,1.6c-0.5,0-0.9,0-1.4-0.1 c-0.5-0.1-0.8-0.3-1-0.8c-0.4-1.1-0.9-2.2-1.3-3.3c-0.4-0.9-0.8-1.8-1.2-2.7c-0.5-1.1-1-2.3-1.5-3.4c-0.3-0.6-0.6-1.2-0.8-1.8 c-0.1-0.1-0.2-0.3-0.2-0.4c-0.4-1.5-1.2-2.8-1.7-4.2c-0.4-1-0.8-2-1.3-2.9c-0.4-0.9-0.8-1.9-1.3-2.8c-0.7-1.5-1.3-3-1.8-4.6 c-0.1-0.3-0.2-0.6-0.5-0.8c-0.2-0.1-0.5-0.1-0.6,0.2c-0.1,0.2-0.1,0.4-0.1,0.6c0,0.7,0,1.3,0.1,2c0.1,1.2,0.1,2.4,0,3.6 c0,0.3,0,0.7,0,1c0,5.8,0,11.6,0,17.4c0,0.4,0,0.8,0.1,1.2c0,0.2,0,0.3,0,0.5c-0.1,1.1-0.2,1.4-1.4,1.4c-1.6,0-1.8-0.2-1.7-1.8 c0-0.9,0-1.7,0-2.6c0-1.8,0-3.5,0.1-5.3C159.8,263.3,159.8,260.8,159.7,258.2C159.8,258.2,159.8,258.2,159.7,258.2z"></path> <path class="st1" d="M416.6,247.1c-0.2,0.2-0.4,0.4-0.5,0.6c-0.1,0.4-0.2,0.8-0.1,1.2c0.3,2.4,0.2,4.8,0.2,7.2c0,3.5,0,7-0.1,10.5 c0,1.5,0,3,0,4.4c0,0.9,0,1.9,0,2.8c0,0.4,0,0.8-0.1,1.2c-0.1,0.3-0.3,0.5-0.6,0.5c-0.6,0-1.2,0-1.7-0.1c-0.3,0-0.5-0.2-0.5-0.5 c-0.1-0.3-0.1-0.7-0.1-1c0-2.2,0.1-4.4,0.1-6.7c0-3.3,0-6.5,0-9.8c0-4.7,0-9.4,0-14.1c0-0.7,0-1.3,0-2c0.2-0.1,0.5-0.2,0.7-0.2 c0.7,0,1.3,0,2,0c0.6,0,1,0.2,1.3,0.8c0.3,0.7,0.6,1.4,1,2.1c0.9,2,1.7,3.9,2.6,5.9c0.5,1.1,0.9,2.3,1.4,3.4 c0.5,1.3,1.1,2.5,1.6,3.7c0.8,1.8,1.5,3.6,2.4,5.4c0.8,1.7,1.4,3.4,2,5.2c0.2,0.6,0.7,1.1,1.2,1.4c0.3-0.1,0.3-0.4,0.3-0.6 c-0.2-2.6-0.1-5.2-0.1-7.8c0-5.8,0-11.5,0-17.3c0-0.5-0.1-1-0.1-1.5c0-0.5,0.2-0.7,0.6-0.8c0.7,0,1.3-0.1,2,0 c0.4,0,0.7,0.3,0.7,0.8c0,0.5,0,0.9,0,1.4c0,7.6,0,15.2,0,22.7c0,2.1,0,4.3,0,6.4c0,0.6,0.1,1.2,0,1.7c0,0.9-0.3,1.1-1.1,1.1 c-0.4,0-0.8,0-1.2,0c-1,0.1-1.7-0.4-1.9-1.3c-0.4-1.2-1-2.3-1.4-3.5c-0.3-1-0.9-2-1.3-3c-0.4-0.9-0.8-1.8-1.2-2.7 c-0.3-0.6-0.6-1.3-0.9-1.9c-0.4-1-0.8-2-1.2-3c-0.2-0.5-0.5-1.1-0.7-1.6c-0.5-1.2-1-2.3-1.5-3.5c-0.5-1.2-1.1-2.4-1.6-3.6 c-0.5-1.1-0.8-2.2-1.2-3.4C417.1,247.8,417.1,247.4,416.6,247.1z"></path> <path class="st1" d="M52,275.5c-0.8,0.3-1.7,0.1-2.5,0c-0.6-1-1.1-2.1-1.1-3.3c-0.1-1.4-0.2-2.9-0.2-4.3c0-0.1,0-0.3,0-0.4 c-0.3-1.2-0.2-2.5-0.3-3.7c-0.1-1.1-0.5-2.2-1.4-3.1c-0.5-0.4-1.1-0.8-1.7-0.9c-0.6-0.1-1.3-0.3-1.9-0.5c-0.4-0.1-0.9-0.1-1.3-0.1 c-1,0-2,0.1-3.1-0.1c-0.7-0.1-1.1,0.2-1.1,0.9c0,1.4-0.1,2.9-0.1,4.3c0,3.2,0,6.3,0,9.5c0,0.3,0,0.6,0,0.9 c-0.1,0.5-0.4,0.7-0.8,0.7c-0.5,0-0.9,0-1.4-0.1c-0.4,0-0.7-0.3-0.7-0.7c0-0.4,0-0.8,0-1.2c0-9.8,0-19.7,0-29.5c0-0.6,0-1.2,0-1.9 c0-0.7,0.1-0.8,0.8-0.8c0.2,0,0.3,0,0.5,0c2.1,0,4.2,0.1,6.3,0.1c1.7,0,3.4,0.2,5,0.9c2.4,1,4,2.6,4.3,5.4c0,0.5,0.1,0.9,0.2,1.3 c0.1,0.6,0.1,1.2,0,1.8c-0.1,0.3-0.2,0.7-0.1,1c0.1,1.4-0.5,2.5-1.1,3.6c-0.5,0.8-1.1,1.7-2.2,1.9c-0.5,0.1-0.6,0.7-0.3,1.1 c0.2,0.2,0.4,0.3,0.6,0.4c0.8,0.5,1.4,1.3,1.8,2.1c0.6,1.4,1,2.9,1,4.4c0,2,0.1,4,0.1,6.1c0,0.9,0.2,1.7,0.7,2.5 C52.1,274.6,52.1,274.6,52,275.5z M37.3,250.2C37.2,250.2,37.2,250.2,37.3,250.2c0,1.6,0,3.3,0,4.9c0,0.2,0,0.5,0.1,0.7 c0.1,0.6,0.4,0.8,1,0.8c1.4,0,2.7,0,4.1,0c0.5,0,1-0.1,1.5-0.2c1.9-0.4,3.2-1.6,4.1-3.3c0.3-0.6,0.5-1.2,0.5-1.9c0-0.7,0-1.3,0-2 c0-1.2-0.3-2.2-1-3.2c-0.9-1.2-2-1.8-3.4-2c-0.6-0.1-1.2-0.1-1.7-0.1c-1.3,0-2.6,0-3.8,0c-0.9,0-1.2,0.2-1.2,1.1c0,0.2,0,0.3,0,0.5 C37.3,247.2,37.3,248.7,37.3,250.2z"></path> <path class="st1" d="M568.5,275.4c-0.7,0.4-1.5,0.2-2.2,0c-0.3-0.1-0.5-0.4-0.6-0.7c-0.3-1.4-0.7-2.7-1-4.1 c-0.1-0.4-0.1-0.7-0.2-1.1c-0.3-1-0.5-2-0.8-3c-0.1-0.2-0.1-0.5-0.2-0.7c-0.1-0.4-0.4-0.7-0.9-0.8c-0.3,0-0.7-0.1-1-0.1 c-1.1,0-2.2,0-3.3,0c-0.5,0-0.9,0-1.4,0c-0.9,0-1.9,0-2.8,0c-0.4,0-0.7,0-1,0c-0.4,0.4-0.4,0.7-0.4,1.1c-0.1,0.6-0.2,1.1-0.4,1.7 c-0.1,0.5-0.3,0.9-0.4,1.4c-0.2,0.8-0.4,1.5-0.6,2.3c-0.2,0.7-0.3,1.4-0.5,2.2c-0.1,0.3-0.1,0.7-0.2,1c-0.1,0.3-0.3,0.5-0.5,0.7 c-0.4,0.4-1.9,0.3-2.4,0c-0.1-0.1-0.2-0.3-0.2-0.5c0-0.1,0-0.2,0.1-0.2c0.4-1.3,0.8-2.6,1.2-3.9c0.1-0.2,0.1-0.4,0.2-0.6 c0.4-1.7,0.9-3.4,1.3-5.1c0.1-0.3,0.1-0.6,0.2-0.8c0.3-0.7,0.4-1.5,0.6-2.3c0.1-0.6,0.3-1.3,0.5-1.9c0.1-0.3,0.2-0.5,0.3-0.8 c0.7-2.8,1.4-5.6,2.1-8.4c0.1-0.4,0.2-0.7,0.3-1.1c0.3-0.9,0.6-1.8,0.7-2.7c0-0.3,0.1-0.7,0.2-1c0.4-1.2,0.8-2.4,0.9-3.7 c0.1-0.7,0.3-0.9,1.1-0.9c0.6,0,1.2,0,1.7,0c0.6,0,1,0.2,1.1,0.8c0.2,0.8,0.5,1.7,0.7,2.5c0.1,0.3,0.1,0.6,0.2,0.8 c0.4,1,0.6,2.1,0.8,3.2c0.1,0.5,0.3,0.9,0.4,1.4c0.2,0.8,0.4,1.5,0.6,2.3c0,0.2,0,0.3,0.1,0.5c0.5,1.4,0.8,2.9,1.2,4.4 c0.5,1.9,1.1,3.9,1.6,5.8c0.6,2.4,1.3,4.9,1.9,7.3c0.3,1.3,0.7,2.5,1.1,3.8C568.6,274.5,568.7,275,568.5,275.4z M558.1,245.9 c-0.4,0.2-0.5,0.6-0.6,1c-0.2,0.8-0.4,1.7-0.6,2.5c-0.4,1.4-0.8,2.8-1.1,4.2c-0.3,1.2-0.4,2.4-0.9,3.6c-0.1,0.2-0.1,0.4-0.1,0.6 c-0.1,0.9-0.4,1.8-0.8,2.7c-0.2,0.3-0.2,0.7-0.3,1.1c0,0.4,0.2,0.7,0.7,0.8c0.2,0,0.3,0,0.5,0c2,0,4,0,6,0c0.3,0,0.7,0,1-0.1 c0.4-0.1,0.6-0.5,0.5-0.9c-0.1-0.3-0.2-0.5-0.3-0.8c-0.1-0.5-0.3-0.9-0.4-1.4c-0.1-0.7-0.3-1.4-0.5-2c-0.5-1.5-0.9-3.1-1.3-4.6 c-0.2-0.8-0.3-1.5-0.5-2.3c-0.3-1.1-0.7-2.2-0.8-3.4C558.6,246.4,558.5,246.1,558.1,245.9z"></path> <path class="st1" d="M137.4,241.5c2.2,0,4.4-0.1,6.7-0.1c0.2,0,0.3,0,0.5,0c0.3,0,0.5,0.2,0.5,0.5c0,0.6,0,1.1,0,1.7 c0,0.4-0.3,0.6-0.7,0.6c-0.5,0-0.9-0.1-1.4-0.1c-3,0-5.9,0-8.9,0c-0.2,0-0.3,0-0.5,0c-0.5,0.1-0.8,0.4-0.9,0.9c0,0.1,0,0.2,0,0.4 c0,2.8,0,5.5,0,8.3c0,0.5-0.1,0.9-0.1,1.4c0,0.7,0.2,1.1,0.9,1.2c0.2,0,0.5,0,0.7,0c2.3,0,4.7,0,7,0c0.6,0,1.2-0.1,1.9-0.1 c0.5,0,0.8,0.2,0.8,0.7c0,0.5,0,1,0,1.5c0,0.5-0.4,0.7-0.8,0.7c-0.5,0-1-0.1-1.5-0.1c-2.6,0-5.1,0-7.7,0c-0.2,0-0.4,0-0.6,0 c-0.4,0.1-0.7,0.3-0.7,0.7c0,0.1,0,0.2,0,0.4c0,1.9,0.1,3.8,0.1,5.7c0,1.6,0,3.1,0,4.7c0,0.4,0,0.7,0,1.1c0,0.9,0.3,1.1,1.2,1.2 c0.4,0,0.7,0,1.1,0c2.2,0,4.4,0,6.5,0c0.9,0,1.7-0.1,2.6-0.1c0.8,0,1.2,0.3,1.2,1.2c0,0.2,0,0.3,0,0.5c-0.1,0.9-0.4,1.1-1.3,1.1 c-2.7,0-5.4,0-8.2,0c-1.5,0-3,0-4.6,0c-0.1,0-0.2,0-0.4,0c-1.1,0-1.5-0.5-1.4-1.6c0.2-1.3,0.1-2.5,0.1-3.8c0-2.7,0-5.4,0-8.2 c0-5.8,0-11.7,0-17.5c0-0.7-0.1-1.4-0.2-2.1c-0.1-0.6,0.1-0.9,0.8-1c0.2,0,0.5,0,0.7,0C133.2,241.4,135.3,241.4,137.4,241.5 C137.4,241.4,137.4,241.5,137.4,241.5z"></path> <path class="st1" d="M67,258.3c0-5.4,0-10.7,0-16.1c0-0.1,0-0.2,0-0.4c0-0.3,0.2-0.5,0.6-0.5c0.5,0,0.9,0,1.4,0c4,0,8,0,12,0 c0.3,0,0.7,0,1,0c0.4,0,0.6,0.3,0.6,0.7c0,0.3,0,0.7,0,1c-0.1,0.8-0.3,1-1.1,1c-0.6,0-1.2,0-1.9,0c-2.1,0-4.3,0-6.4,0 c-0.7,0-1.5-0.1-2.2-0.1c-0.6,0-0.9,0.2-1,0.9c0,0.2,0,0.3,0,0.5c0,3.2,0,6.3,0,9.5c0,0.2,0,0.4,0,0.6c0,0.4,0.3,0.6,0.6,0.7 c0.2,0,0.4,0,0.6,0c2.5,0,5,0,7.5,0c0.5,0,1-0.1,1.5-0.1c1.1,0,1.5,0.4,1.3,1.5c0,0.2-0.1,0.4-0.1,0.6c-0.1,0.4-0.4,0.6-0.8,0.7 c-0.2,0-0.5,0-0.7,0c-2.5,0-5,0-7.5,0c-0.5,0-0.9,0-1.4-0.1c-0.7,0-1.1,0.2-1.1,1c0,0.2,0,0.3,0,0.5c0,2,0,4,0,5.9 c0,1.8,0,3.6,0,5.4c0,0.8,0.3,1.1,1,1.1c1.2,0,2.4,0.1,3.6,0.1c2.3,0,4.5-0.1,6.8-0.2c1.1,0,1.4,0.3,1.4,1.4c0,0.2-0.1,0.4-0.1,0.6 c-0.1,0.6-0.3,0.8-0.9,0.8c-0.5,0-1,0-1.5,0c-4,0-8.1,0-12.1,0c-0.1,0-0.2,0-0.2,0c-0.7,0-0.8-0.2-0.9-0.9c0-0.3,0-0.7,0-1 C67,268.6,67,263.4,67,258.3C67,258.3,67,258.3,67,258.3z"></path> <path class="st1" d="M534.9,241.5c0.8-0.3,1.5-0.1,2.2-0.1c0.4,0,0.6,0.3,0.5,0.7c0,0.3-0.2,0.6-0.2,0.9c-0.2,0.7-0.4,1.4-0.6,2.1 c-0.2,0.6-0.3,1.3-0.5,1.9c-0.2,0.7-0.4,1.4-0.6,2.1c-0.2,0.8-0.4,1.5-0.6,2.3c0,0.2-0.1,0.3-0.1,0.5c0,1.1-0.4,2-0.8,3 c-0.2,0.5-0.3,1-0.4,1.4c-0.2,0.9-0.4,1.8-0.7,2.6c-0.2,0.5-0.3,1.1-0.4,1.7c-0.2,0.6-0.3,1.3-0.5,1.9c-0.1,0.4-0.3,0.8-0.3,1.2 c-0.2,1-0.4,1.9-0.8,2.8c0,0.1-0.1,0.2-0.1,0.2c-0.1,1.3-0.5,2.5-1,3.7c-0.1,0.4-0.2,0.8-0.2,1.2c-0.1,1.2-0.6,2.2-0.9,3.3 c0,0.2-0.2,0.3-0.3,0.4c-0.8,0.2-1.5,0.2-2.3,0.1c-0.5,0-0.9-0.4-1.1-0.9c0-0.2-0.1-0.3-0.2-0.5c-0.3-1.4-0.7-2.9-1-4.3 c-0.1-0.6-0.3-1.2-0.5-1.8c-0.1-0.2-0.2-0.4-0.2-0.6c-0.2-1.9-1.2-3.7-1.4-5.6c-0.7-1.7-0.9-3.6-1.5-5.3c-0.6-1.7-0.9-3.4-1.3-5.1 c0-0.1,0-0.2,0-0.2c-0.5-1.8-1-3.6-1.5-5.3c-0.1-0.4-0.3-0.9-0.4-1.3c-0.1-0.7-0.3-1.4-0.7-2.1c-0.1-0.1-0.1-0.3-0.1-0.5 c0-0.2,0.1-0.4,0.3-0.5c0.8-0.1,1.6-0.2,2.5,0c0.2,0,0.3,0.2,0.4,0.4c0.1,0.1,0.1,0.3,0.2,0.5c0.4,2.5,1.3,4.9,1.9,7.3 c0.1,0.3,0.1,0.6,0.2,1c0.1,0.6,0.2,1.2,0.4,1.8c0.6,2.3,1.1,4.6,1.7,6.8c0.6,2.1,0.9,4.2,1.6,6.2c0.2,0.6,0.3,1.2,0.4,1.8 c0.1,0.5,0.2,1.1,0.3,1.6c0.1,0.4,0.3,0.8,0.4,1.2c0.1,0.2,0.3,0.4,0.6,0.4c0.3,0,0.4-0.2,0.5-0.5c0.1-0.4,0.2-0.7,0.2-1.1 c0.1-1.1,0.3-2.2,0.7-3.2c0.2-0.5,0.2-1,0.4-1.4c0.6-1.8,1-3.6,1.4-5.4c0.2-0.9,0.4-1.8,0.6-2.6c0.1-0.2,0.1-0.5,0.2-0.7 c0.5-1.1,0.7-2.3,0.9-3.4c0.1-0.5,0.3-1,0.4-1.5c0.2-0.7,0.3-1.4,0.5-2c0.1-0.4,0.2-0.9,0.4-1.3c0.2-0.6,0.3-1.2,0.5-1.8 C534.3,244,534.6,242.8,534.9,241.5z"></path> <path class="st1" d="M105,270.3c0.5,0.1,0.8-0.2,1-0.5c0.2-0.3,0.3-0.7,0.4-1c0.3-1.5,0.6-3,1.1-4.4c0.4-1.1,0.6-2.2,0.9-3.3 c0.5-2,1-4,1.6-6c0.6-2.1,0.8-4.3,1.7-6.3c0.2-1.6,0.8-3.1,1.1-4.7c0.1-0.6,0.2-1.1,0.3-1.7c0.2-0.7,0.4-0.9,1.1-0.9 c0.5,0,1,0,1.5,0c0.4,0,0.7,0.4,0.5,0.8c-0.5,0.8-0.6,1.8-0.8,2.7c-0.1,0.3-0.1,0.6-0.2,0.8c-0.4,1-0.7,1.9-0.8,3 c-0.6,1.5-0.8,3.1-1.3,4.6c-0.3,1.1-0.7,2.1-0.8,3.2c0,0.1,0,0.2-0.1,0.2c-0.7,1.6-0.8,3.4-1.4,5c-0.1,0.3-0.2,0.6-0.2,1 c-0.2,0.9-0.3,1.8-0.7,2.6c0,0.1-0.1,0.2-0.1,0.2c-0.5,1.8-0.9,3.7-1.4,5.5c-0.3,1.2-0.5,2.3-0.9,3.5c-0.2,0.6-0.6,1-1.2,1 c-0.6,0-1.2,0-1.7,0c-0.4,0-0.6-0.2-0.7-0.6c-0.4-1.3-1-2.5-1.1-3.9c0-0.3-0.1-0.7-0.2-1c-0.5-1.7-1-3.5-1.5-5.2 c-0.1-0.2-0.1-0.5-0.2-0.7c-0.2-0.9-0.5-1.7-0.7-2.6c-0.4-1.6-1-3.1-1.3-4.6c-0.5-2.1-1.1-4.2-1.7-6.3c-0.1-0.4-0.2-0.7-0.3-1.1 c-0.2-0.8-0.3-1.7-0.7-2.5c0,0,0-0.1,0-0.1c-0.3-1.6-0.7-3.2-1.4-4.7c-0.2-0.5,0.1-0.8,0.6-0.8c0.5,0,1.1,0,1.6,0 c0.5,0,0.9,0.3,1,0.8c0.2,0.5,0.3,0.9,0.4,1.4c0.2,1.1,0.5,2.2,0.8,3.2c0.5,1.7,0.9,3.5,1.3,5.3c0.5,2.2,1.1,4.3,1.7,6.5 c0,0.1,0.1,0.2,0.1,0.4c0.2,2,1.1,3.9,1.4,5.9c0.1,0.4,0.2,0.7,0.3,1.1c0.3,1,0.6,2,0.6,3C104.6,269.3,104.7,269.8,105,270.3z"></path> <path class="st1" d="M588.6,259.7c0,4.3,0,8.6,0,12.9c0,0.6,0,1.2,0,1.9c0,0.8-0.3,1.1-1.2,1.1c-0.4,0-0.7,0-1.1-0.1 c-0.6-0.1-0.9-0.4-0.9-1c0-0.2,0-0.3,0-0.5c0-4.8,0-9.6,0-14.5c0-2.5,0.1-5,0-7.5c0-1.2,0.1-2.5,0.1-3.7c0-1,0-2.1,0-3.1 c0-0.9-0.4-1.2-1.3-1.2c-1.5,0-3,0.1-4.4,0.1c-0.4,0-0.9,0-1.3-0.1c-0.4-0.1-0.6-0.4-0.7-0.8c0-0.4-0.1-0.7,0-1.1 c0-0.4,0.2-0.6,0.6-0.7c0.4,0,0.7,0,1.1,0c2.3,0,4.6,0,6.9,0c1.8,0,3.5,0,5.3,0c1.2,0,2.4,0,3.6-0.1c0.7,0,1,0.2,1,0.9 c0,0,0,0.1,0,0.1c-0.1,1.4,0.2,1.9-1.8,1.8c-1.6-0.1-3.2,0-4.8,0c-0.2,0-0.4,0-0.6,0.1c-0.3,0.1-0.4,0.2-0.5,0.5 c0,0.2-0.1,0.4-0.1,0.6C588.5,250.1,588.5,254.9,588.6,259.7C588.5,259.7,588.5,259.7,588.6,259.7z"></path> <path class="st1" d="M203.8,259.8c0,2.5,0,5,0,7.5c0,2.3,0,4.5,0,6.8c0,0.2,0,0.4,0,0.6c-0.1,0.5-0.4,0.8-0.9,0.8 c-0.4,0-0.8,0-1.2,0c-0.6-0.1-0.8-0.3-0.9-0.9c0-0.2,0-0.3,0-0.5c0-2.8,0.1-5.6,0.1-8.4c0-2.4,0-4.8,0-7.2c0-2.1-0.1-4.1-0.1-6.2 c0-1,0.1-2.1,0.1-3.1c0-1.3,0-2.6,0-4c0-0.2,0-0.3,0-0.5c-0.1-0.5-0.5-0.9-1.1-0.9c-1.5,0-3,0-4.6,0c-0.1,0-0.2,0-0.4,0 c-1.8,0.1-1.8-0.6-1.8-2c0-0.4,0.3-0.6,0.6-0.7c0.3,0,0.6,0,0.9,0c3.1,0,6.3,0,9.4,0c1.4,0,2.9,0,4.3,0c0.8,0,1.6-0.1,2.5-0.1 c0.5,0,0.8,0.2,0.8,0.7c0,0.5,0,1,0,1.5c0,0.4-0.3,0.6-0.6,0.6c-0.1,0-0.2,0-0.4,0c-1.8,0-3.6,0-5.4,0c-0.2,0-0.4,0-0.6,0.1 c-0.3,0.1-0.5,0.3-0.6,0.6c0,0.2,0,0.4,0,0.6C203.7,250.2,203.7,255,203.8,259.8C203.7,259.8,203.7,259.8,203.8,259.8z"></path> <path class="st1" d="M228.5,258.4c0,4.5,0,9.1,0,13.6c0,0.7,0,1.3,0,2c0,1.4-0.2,1.6-1.7,1.6c-0.2,0-0.5,0-0.7-0.1 c-0.4-0.1-0.7-0.3-0.7-0.7c0-0.3,0-0.6,0-0.9c0-0.8,0-1.6,0-2.3c0-1.7,0.1-3.4,0.1-5.1c0-1.8-0.1-3.6-0.1-5.4c0-1.2,0-2.5,0-3.7 c0-1.1,0-2.1,0-3.2c0-2.6,0-5.2,0-7.8c0-0.6,0.1-1.1,0.1-1.7c0-0.8-0.1-1.6-0.1-2.5c0-0.6,0.2-0.8,0.8-0.9c0.5,0,1.1,0,1.6,0 c0.6,0,0.8,0.3,0.8,0.9c0,0.7-0.1,1.3-0.1,2C228.4,249,228.5,253.7,228.5,258.4z"></path> <path class="st1" d="M613.6,258.7c0,4.7,0,9.3,0,14c0,0.3,0.1,0.7,0.1,1c0,0.4,0,0.8-0.1,1.2c-0.1,0.3-0.3,0.6-0.7,0.6 c-0.5,0-1.1,0-1.6,0c-0.5-0.1-0.8-0.4-0.9-0.9c0-0.2,0-0.5,0-0.7c0-0.8,0.1-1.6,0.1-2.5c0-7.2,0-14.3,0-21.5c0-0.9-0.1-1.8-0.1-2.7 c0-0.7,0.1-1.5,0.1-2.2c0-0.9-0.1-1.7-0.1-2.6c0-0.7,0.1-0.9,0.8-1c0.5,0,1.1,0,1.6,0c0.7,0,0.9,0.4,0.9,1c0,2-0.1,4-0.1,6 C613.6,251.9,613.6,255.3,613.6,258.7C613.6,258.7,613.6,258.7,613.6,258.7z"></path> <path class="st1" d="M393.8,241.5c0.7-0.2,1.4-0.1,2.1-0.1c0.6,0,0.8,0.3,0.8,0.9c0,0.7,0,1.5,0,2.2c0,4.4,0,8.9,0,13.3 c0,2.6,0,5.1,0,7.7c0,1.7,0,3.5,0,5.2c0,1.1,0,2.2,0,3.3c0,0.3,0,0.6,0,0.9c-0.1,0.4-0.3,0.7-0.7,0.7c-0.5,0-1.1,0-1.6,0 c-0.4,0-0.6-0.3-0.7-0.6c0-0.2-0.1-0.4-0.1-0.6c0.3-6.3,0.1-12.5,0.1-18.8c0-3.3,0-6.6,0-9.9c0-1.1-0.1-2.1-0.1-3.2 C393.5,242.1,393.5,241.8,393.8,241.5z"></path> </g> <path class="st1" d="M505.9,32.1c0.4-0.2,0.8-0.5,1.2-0.8c0.9-0.6,1.9-0.8,3.1-0.7c3.4,0,6.8,0,10.1,0c1,0,2,0,3,0 c1.2,0,2.3,0,3.5,0.1c0.5,0,1.1,0,1.6,0.1c1.3,0.2,2.7,0.5,4,0.7c1.1,0.2,2.2,0.6,3.3,1c1,0.4,1.8,1.1,2.4,2.1 c0.2,0.3,0.4,0.6,0.4,0.9c0.1,1.6,0.6,3.1,0.6,4.6c0,0.6,0.2,1.3,0.4,1.9c0.3,0.8,1.1,1,1.8,0.7c0.7-0.3,1-0.9,1.1-1.7 c0.2-1.6,0.8-3.1,0.7-4.8c0-0.2,0.1-0.5,0.1-0.7c0.1-0.6,0.2-1.1,0.2-1.7c0-1.1,0-2.1,0-3.2c0-1.1,0-2.1,0-3.2c0-2-0.7-2.1-2-2 c-1.1,0-2.2,0-3.3,0c-1.4,0-2.8,0-4.2,0.2c-0.5,0.1-1.1,0-1.6,0c-2.1,0-4.1-0.3-6.2,0.2c-0.2,0-0.3,0-0.5,0 c-1.5-0.1-3.1,0.2-4.5-0.3c-0.2-0.1-0.5,0-0.7,0c-1.8,0-3.5,0-5.3,0c-1.2,0-2.5,0-3.7-0.1c-0.7,0-1.4-0.1-2.1-0.1 c-6.4,0-12.8,0-19.2,0c-0.7,0-1.5,0-2.2,0c-0.6,0.1-1.3,0.2-1.9,0.4c-0.6,0.2-0.9,0.8-0.6,1.4c0.3,0.6,0.7,1,1.3,1.2 c0.4,0.1,0.7,0.2,1.1,0.2c1.1,0.1,2.2,0.4,3.2,0.9c2.3,1.1,3.8,2.8,4.2,5.4c0,0.2,0.1,0.5,0.1,0.7c0.2,0.7,0.2,1.5,0.2,2.2 c0,0.8,0,1.6,0.2,2.5c0.1,0.4,0.1,0.8,0.1,1.2c0,2.2,0,4.4,0,6.7c0,3.5,0,6.9-0.1,10.4c0,3.7,0,7.3,0,11c0,2.1,0,4.1,0,6.2 c0,2.2,0,4.4,0,6.6c0,1.7,0,3.5,0,5.2c0,2.7,0,5.4,0,8.2c0,1.1,0,2.2-0.1,3.3c-0.1,0.8-0.2,1.6-0.1,2.5c0.1,1.4-0.3,2.8-0.6,4.1 c0,0.2-0.2,0.4-0.3,0.6c-0.6,0.9-1.3,1.8-2.2,2.3c-0.8,0.5-1.7,0.8-2.5,1.2c-0.9,0.4-1.8,0.8-2.7,1.2c-0.3,0.2-0.5,0.5-0.4,0.8 c0,0.3,0.1,0.6,0.3,0.9c0.3,0.5,0.9,0.7,1.5,0.7c0.6,0,1.2,0,1.7,0c0.6,0,1.1,0,1.7-0.2c0.4-0.1,0.9-0.1,1.3-0.1 c1.5,0,3,0.1,4.4-0.1c1.7-0.2,3.4-0.2,5-0.3c1,0,2.1,0.1,3.1,0.1c1.4,0,2.7-0.1,4.1-0.1c2.2,0,4.4,0,6.6,0c0.8,0,1.6,0,2.4,0.3 c0.2,0.1,0.5,0.1,0.7,0.1c2.1,0,4.2,0,6.3,0c0.3,0,0.7,0,1,0.1c0.9,0.3,1.9,0.3,2.8,0.3c1.4,0,2.9,0,4.3,0c0.4,0,0.8-0.1,1.2-0.1 c0.5-0.1,1-0.1,1.5-0.2c0.9-0.1,1.9-0.2,2.7-0.7c0.8-0.4,1.5-0.9,2.2-1.4c0.9-0.6,1.7-1.3,2.4-2.2c0.8-0.9,1.4-1.9,2.2-2.8 c0.3-0.4,0.7-0.8,1-1.3c1.3-1.9,2.2-4,2.7-6.2c0.2-0.7,0.1-1.5,0-2.2c0-0.6-0.4-0.9-0.9-1c-0.4-0.1-0.7,0.2-0.9,0.5 c-0.1,0.2-0.3,0.3-0.4,0.5c-1.1,1.4-2.4,2.6-3.7,3.8c-2.4,2.2-5.4,3.5-8.3,4.8c-1.7,0.7-3.4,1.2-5.1,1.7c-0.1,0-0.2,0.1-0.2,0.1 c-1.3,0.2-2.6,0.4-3.9,0.7c-1,0.3-2,0.2-3.1,0.3c-1.6,0-3.1,0.4-4.7,0.3c-0.2,0-0.3,0-0.5,0.1c-1.8,0.4-3.7,0.3-5.5,0.2 c-1.1,0-2.2-0.3-3.3-0.5c-1.2-0.2-2.2-0.8-3.1-1.7c-0.5-0.5-0.8-1.2-0.8-1.9c0-0.4,0-0.9-0.2-1.3c-0.2-0.6-0.2-1.1-0.2-1.7 c0-8.4,0-16.9,0-25.3c0-0.3,0.1-0.6,0-0.9c-0.2-1,0.1-1.9,0.5-2.7c0.2-0.5,0.6-0.8,1.1-0.8c0.2,0,0.4-0.1,0.6,0c2.7,0.2,5.4-0.1,8,0 c1.1,0,2.1-0.1,3.2,0c2.6,0.1,5.2,0.2,7.8,0.1c1.1,0,2.1,0.2,3.1,0.6c1.2,0.6,2.2,1.5,2.8,2.7c0.6,1.1,1,2.2,1.1,3.4 c0.1,1.2,0.6,2.2,1,3.3c0.3,0.7,0.9,0.9,1.8,0.7c0.8-0.2,1-0.4,1-1.3c0-0.2,0-0.5,0-0.7c0-3.3,0-6.7,0-10c0-2.8,0-5.5,0-8.3 c0-1.4,0-2.7,0-4.1c0-0.8-0.4-1.3-1.1-1.7c-0.6-0.4-1.2-0.1-1.5,0.6c0,0.1-0.1,0.2-0.1,0.2c-0.2,1.2-0.7,2.4-1.2,3.5 c-1.1,2.6-3,4.2-5.7,4.9c-1.9,0.5-3.8,0.7-5.7,0.7c-2.7-0.1-5.4,0-8.2,0c-1.6,0-3.2,0-4.8,0.1c-0.8,0-1.6-0.2-2.4-0.5 c-0.6-0.2-0.9-0.6-1.1-1.2c-0.2-0.7-0.3-1.4-0.3-2.1c0-1.7,0-3.5,0-5.2c0-1-0.1-2.1-0.1-3.1c0-1,0.1-2.1,0.1-3.1c0-4.4,0-8.7,0-13.1 c0-1.8,0.4-3.5,0.6-5.3C505.8,32.3,505.9,32.2,505.9,32.1z M402.3,87.1C402.3,87.1,402.3,87.1,402.3,87.1c0-4.5,0-8.9,0-13.4 c0-0.3,0-0.7,0-1c0.2-0.9,0.7-1.4,1.6-1.5c0.2,0,0.5,0,0.7,0c1.6,0,3.2,0,4.8,0c1.2,0,2.5,0,3.7,0c3.1,0,6.3,0,9.4,0 c0.5,0,1.1,0,1.6,0c2.1,0,4.6,1.4,5.5,3.8c0.5,1.2,0.9,2.5,1,3.8c0,1,0.5,1.8,1,2.6c0.3,0.4,0.7,0.6,1.2,0.6 c0.9-0.1,1.5-0.6,1.5-1.6c0-0.9,0-1.9,0-2.8c0-0.8,0-1.6-0.2-2.5c-0.1-0.6-0.1-1.1-0.1-1.7c0-2.1,0.1-4.3,0-6.4 c0-1.1-0.1-2.1,0.2-3.2c0.1-0.3,0-0.6,0.1-0.9c0-1,0-2.1,0-3.1c0-0.7,0-1.5,0-2.2c0-0.8-0.4-1.4-1.1-1.8c-0.6-0.3-1.2-0.2-1.4,0.5 c-0.4,1.1-0.8,2.2-1.2,3.3c-0.2,0.5-0.3,0.9-0.5,1.4c-0.4,0.9-1.2,1.6-1.9,2.3c-1.1,1-2.4,1.7-3.9,2c-1.2,0.2-2.4,0.4-3.7,0.6 c-0.2,0-0.4,0-0.6,0c-0.7,0-1.3-0.1-2-0.1c-4.1,0-8.2,0-12.4,0c-0.6,0-1.2,0-1.8-0.2c-1.1-0.4-1.6-1.2-1.6-2.4 c0-1.9,0.1-3.8,0.1-5.7c0-2.6,0-5.1,0-7.7c0-2.6,0-5.1,0-7.7c0-1.2,0-2.3,0-3.5c0-1.2,0-2.3,0-3.5c0-1,0.2-2,0.6-2.9 c0.1-0.3,0.3-0.5,0.5-0.7c1-0.9,2.2-1.1,3.4-1.1c3.7,0,7.5,0,11.2,0c0.7,0,1.5,0,2.2,0c1.1,0,2.1,0,3.2,0c1.3,0,2.6,0.2,3.9,0.5 c0.6,0.1,1.3,0.3,1.9,0.4c1.1,0.2,2.1,0.5,3.2,1c1.8,0.8,2.8,2.1,3.1,4c0.1,0.5,0.1,1.1,0.1,1.6c-0.1,1.3,0.3,2.5,0.6,3.8 c0,0.2,0.1,0.4,0.3,0.6c0.4,0.6,1,0.7,1.6,0.3c0.6-0.4,1.1-1,1.3-1.8c0.1-0.5,0.2-1.1,0.3-1.6c0.1-0.9,0.2-1.8,0.4-2.7 c0-0.3,0.1-0.6,0.1-0.9c0-1-0.1-2,0.3-2.9c0.1-0.2,0-0.5,0-0.7c0-1.4,0-2.7,0-4.1c0-0.3,0-0.6,0-0.9c-0.1-1.2-0.7-1.7-2-1.8 c-0.1,0-0.2,0-0.4,0c-1.2,0-2.5,0-3.7,0c-0.8,0-1.6-0.1-2.3,0.1c-1.4,0.3-2.8,0.2-4.2,0.2c-1.3,0-2.6-0.1-3.8,0.1 c-1.4,0.2-2.9,0.2-4.3,0.2c-0.3,0-0.7-0.1-1-0.1c-0.7-0.1-1.4-0.2-2.1-0.2c-1.6,0-3.1,0-4.7,0c-1.6,0-3.2-0.1-4.8-0.2 c-2.5-0.1-5.1-0.1-7.7-0.1c-4.3,0-8.7,0-13,0c-0.7,0-1.3,0-2,0c-0.6,0.1-1.2,0.2-1.8,0.4c-0.8,0.3-0.9,1.2-0.3,1.8 c0.5,0.5,1.1,0.8,1.7,0.9c0.5,0.1,1.1,0.2,1.6,0.3c1.1,0.2,2.2,0.5,3.1,1.1c1.7,1,2.6,2.5,3.1,4.3c0.4,1.4,0.5,2.8,0.6,4.3 c0.1,3.4,0,6.8,0,10.1c0,3.1,0,6.3,0,9.4c0,4,0,8,0,12c0,3.6,0,7.2,0,10.8c0,6.2,0,12.4,0,18.7c0,0.5,0,1-0.1,1.5 c-0.1,0.8-0.2,1.6-0.3,2.3c-0.2,1.4-0.8,2.7-1.7,3.8c-0.6,0.8-1.4,1.5-2.2,2.2c-0.2,0.2-0.5,0.3-0.7,0.4c-1,0.4-2,0.9-3,1.2 c-0.6,0.2-0.9,0.7-1,1.3c-0.1,0.6,0.2,1.1,0.7,1.3c0.5,0.2,1,0.2,1.5,0.1c0.6-0.2,1.2-0.2,1.8-0.1c0.4,0,0.8,0,1.2-0.1 c0.6-0.2,1.1-0.2,1.7-0.2c0.4,0,0.7,0,1.1-0.1c0.4,0,0.9-0.1,1.3-0.2c1.2,0,2.5-0.1,3.7-0.1c2.5,0,5,0,7.5,0c0.5,0,0.9,0,1.4,0.1 c0.7,0.1,1.4,0.3,2.1,0.1c0.2-0.1,0.5,0,0.7,0.1c0.9,0.3,1.9,0.3,2.9,0.4c0.4,0,0.8-0.1,1.2-0.1c0.7-0.1,1.1-0.5,1.3-1.1 c0.2-0.5,0.1-1.1-0.4-1.4c-0.1-0.1-0.3-0.2-0.4-0.2c-1.1-0.3-2.2-0.7-3.3-0.9c-1.2-0.2-2.2-0.7-3.2-1.2c-1.6-0.8-2.7-2.1-3.4-3.8 c-0.5-1.3-0.7-2.7-0.7-4.1c0-1.9,0-3.8,0-5.7C402.3,92.3,402.3,89.7,402.3,87.1z M359.3,113.4C359.3,113.4,359.3,113.4,359.3,113.4 c0.6,0,1.2,0,1.7,0c0.7,0,1.4,0,2.1-0.1c0.6-0.1,1.2-0.2,1.8-0.3c0.9-0.2,1.9-0.2,2.7-0.7c1-0.5,1.9-1.1,2.7-1.9 c1.3-1.3,2.6-2.7,3.8-4.1c1.8-2.2,3-4.7,3.8-7.4c0.3-0.9,0.3-1.8,0-2.7c-0.3-1-1-1.2-1.7-0.5c-0.5,0.5-1,1.1-1.5,1.7 c-1,1.2-2.1,2.2-3.3,3.1c-2,1.4-4.1,2.8-6.4,3.7c-1.1,0.4-2.2,1-3.3,1.3c-1,0.3-2,0.6-3,0.8c-1.6,0.4-3.1,0.7-4.7,1 c-0.1,0-0.2,0-0.2,0c-2.3,0.1-4.6,0.4-6.9,0.4c-0.4,0-0.7,0.1-1.1,0.2c-0.5,0.1-1,0.3-1.5,0.2c-1.5-0.2-3.1,0.2-4.5-0.3 c-0.2-0.1-0.4,0-0.6-0.1c-0.8-0.1-1.6-0.2-2.4-0.4c-1.7-0.5-2.8-1.5-3.2-3.2c-0.1-0.7-0.2-1.4-0.2-2.1c0-0.9,0-1.9,0-2.8 c0-3.7,0-7.4,0-11.1c0-4.3,0-8.6,0-12.9c0-4.6,0-9.1,0-13.7c0-3.5,0-7.1,0-10.6c0-1.6,0-3.1,0-4.7c0-2.6,0-5.3,0-7.9 c0-1.2,0-2.4,0.2-3.6c0.5-2.7,2-4.6,4.6-5.5c0.9-0.3,1.8-0.6,2.7-0.9c0.9-0.3,1.4-0.9,1.4-1.8c0-0.5-0.1-0.8-0.5-1 c-0.3-0.2-0.7-0.3-1-0.3c-1.4,0.1-2.9-0.1-4.3,0.2c-0.4,0.1-0.8,0.1-1.2,0.1c-1.4,0-2.9-0.1-4.3,0.2c-2.1,0-4.1,0.2-6.2-0.2 c-0.5-0.1-1.1-0.1-1.6-0.1c-1.3,0-2.6,0.1-3.9-0.2c-0.2,0-0.3,0-0.5,0c-1.3,0-2.6,0-3.8,0c-0.4,0-0.8,0.1-1.2,0.3 c-0.7,0.3-0.9,1.1-0.4,1.8c0.4,0.6,0.9,0.9,1.6,1.1c1.9,0.5,3.8,1.1,5.6,2c2,1,3.3,2.6,3.2,5c0,1.8-0.1,3.6-0.1,5.4 c0,1.9,0.1,3.9,0.1,5.8c0,2.7,0,5.4,0,8c0,0.8-0.1,1.6-0.1,2.3c0,1.6,0.1,3.3,0.1,4.9c0,2.7,0,5.4,0,8.2c0,1.5-0.1,3-0.1,4.4 c0,1.4,0.1,2.7,0.1,4.1c0.1,3.2-0.1,6.4,0,9.6c0.1,2.6,0,5.2-0.1,7.8c0,0.5,0,0.9,0.1,1.4c0.1,2.5,0.1,4.9-0.6,7.4 c-0.4,1.6-1.4,2.8-2.8,3.6c-0.8,0.5-1.6,0.8-2.4,1.2c-0.9,0.4-1.8,0.8-2.7,1.2c-0.6,0.3-0.8,1-0.3,1.6c0.4,0.6,1,0.8,1.7,0.9 c0.5,0,1,0,1.5,0c0.7,0,1.3,0,1.9-0.2c0.3-0.1,0.7-0.1,1.1-0.1c1.2,0,2.5,0,3.7,0.1c0.7,0,1.3,0,2-0.2c0.5-0.1,1-0.1,1.5-0.1 c0.5,0,1.1,0,1.6,0c2.7,0,5.4-0.1,8.2-0.1c1.9,0,3.9,0,5.8,0c1.2,0,2.4,0,3.6,0.3c0.2,0.1,0.5,0.1,0.7,0.1c1.9,0,3.9,0,5.8-0.1 c0.4,0,0.8,0,1.2,0.1c0.7,0.3,1.5,0.3,2.2,0.2C358,113.4,358.6,113.4,359.3,113.4z M653.6,112.8 C653.6,112.8,653.6,112.8,653.6,112.8c1.6,0,3.2,0,4.8,0c0.6,0,1.2,0,1.8,0.1c0.8,0.2,1.6,0.2,2.5,0.2c1.1-0.1,2.2,0,3.3,0.2 c1,0.2,2.1,0,3.1-0.2c0.5-0.1,0.9-0.5,1-1c0.1-0.6,0-1.1-0.6-1.4c-0.7-0.4-1.3-0.9-2.1-1c-1.3-0.2-2.5-0.6-3.7-1 c-1.2-0.4-2.2-1-3-1.9c-1-1-1.6-2.2-1.5-3.7c0-0.8,0-1.6,0-2.3c0-21.6,0-43.3,0-64.9c0-0.5,0-0.9,0-1.4c0-0.7,0.2-1.4,0.5-2 c0.8-1.5,1.8-2.6,3.4-3.3c0.8-0.3,1.6-0.6,2.4-0.8c0.7-0.2,1.3-0.5,1.9-0.8c0.2-0.1,0.4-0.4,0.5-0.6c0.3-0.8-0.2-1.6-1.1-1.6 c-1.4,0-2.8,0-4.2,0c-0.4,0-0.8,0-1.2,0c-1.1,0.2-2.3,0.2-3.4,0.2c-0.5,0-1,0-1.5,0.1c-1.8,0.3-3.5,0.3-5.3,0 c-0.2,0-0.5-0.1-0.7-0.1c-1.7,0-3.5,0.1-5.2-0.2c0,0-0.1,0-0.1,0c-1.6,0-3.2,0-4.8,0c-0.1,0-0.2,0-0.4,0c-0.4,0-0.6,0.3-0.7,0.6 c-0.2,0.6,0,1.3,0.7,1.7c0.7,0.4,1.5,0.7,2.3,0.8c1.2,0.2,2.2,0.6,3.3,1.1c1,0.5,1.9,1,2.5,2c1.2,1.9,1.3,2.2,1.3,4.5 c0,8.3,0,16.6,0,24.8c0,8.8,0,17.6,0,26.3c0,4.2,0,8.5,0,12.7c0,0.5,0,0.9,0,1.4c-0.1,3.2-2.1,6.6-6,7.6c-0.7,0.2-1.4,0.5-2.1,0.6 c-0.8,0.2-1.3,0.7-1.6,1.4c-0.2,0.5-0.1,0.9,0.2,1.2c0.9,0.9,2,1.4,3.4,1.1c0.4-0.1,0.8-0.2,1.2-0.2c1,0,2,0,2.9-0.2 c0.3-0.1,0.6-0.1,0.9-0.1C649.9,112.8,651.8,112.8,653.6,112.8z M460.9,112.9c0,0,0-0.1,0-0.1c1.6,0,3.1,0.1,4.7,0.1 c0.8,0,1.6-0.1,2.3,0.1c1.1,0.2,2.1,0.2,3.2,0.1c0.7-0.1,1.3,0,1.9,0.2c0.9,0.3,1.8,0.2,2.7,0.1c0.4-0.1,0.9-0.3,1.2-0.5 c0.8-0.5,0.8-1.4,0.1-2c-0.8-0.6-1.6-1.1-2.6-1.2c-1.4-0.1-2.6-0.7-3.9-1.1c-0.5-0.2-1-0.4-1.4-0.8c-0.9-0.6-1.6-1.4-2-2.5 c-0.5-1.3-0.8-2.5-0.6-3.8c0-0.4,0-0.7,0-1.1c0-20.5,0-41,0-61.5c0-1,0-2.1,0-3.1c0-0.2,0-0.5,0.1-0.7c0.3-0.9,0.5-1.8,0.8-2.7 c0.1-0.2,0.2-0.4,0.4-0.6c1.1-1.6,2.7-2.5,4.6-3c0.4-0.1,0.9-0.2,1.3-0.3c0.6-0.2,1.2-0.5,1.6-1.1c0.4-0.6,0.3-1.2-0.2-1.6 c-0.4-0.3-0.8-0.3-1.2-0.3c-1,0-2.1,0-3.1,0c-0.7,0-1.4-0.1-2.1,0c-1.2,0.2-2.4,0.2-3.6,0.2c-0.5,0-1,0.1-1.5,0.1 c-1.6,0.1-3.2,0.3-4.8-0.1c-0.3-0.1-0.7-0.1-1-0.1c-1.5,0-3,0-4.6-0.1c-1.7-0.1-3.4,0-5.1,0c-0.4,0-0.8,0.1-1.1,0.4 c-0.4,0.3-0.5,0.7-0.2,1.2c0.4,0.7,1.1,1.1,1.9,1.3c0.8,0.2,1.5,0.3,2.3,0.5c1.5,0.4,2.8,1.2,3.9,2.3c1.3,1.4,1.8,3.2,2,5.1 c0.1,1.1,0,2.3,0,3.5c0,8.3,0,16.6,0,24.8c0,2.3,0,4.6,0,6.9c0,1.9,0,3.7-0.1,5.6c0,1.4-0.1,2.7-0.1,4.1c0,1.8,0.1,3.6,0.1,5.4 c0,4.1,0,8.2,0,12.2c0,1.2,0.1,2.4-0.4,3.5c-0.1,0.2-0.1,0.5-0.1,0.7c-0.2,1.3-0.7,2.4-1.5,3.3c-1,1.2-2.2,2.2-3.8,2.6 c-0.9,0.2-1.8,0.5-2.7,0.7c-0.5,0.1-0.8,0.4-1,0.8c-0.1,0.2-0.1,0.3-0.2,0.5c-0.3,0.9,0,1.6,0.8,2c0.9,0.4,1.8,0.7,2.8,0.4 c0.7-0.2,1.4-0.3,2.2-0.2c0.3,0,0.7-0.1,1-0.1c0.4,0,0.8-0.1,1.2-0.1C457.1,112.9,459,112.9,460.9,112.9z M598.4,68.4 c0.1-0.1,0.3-0.2,0.5-0.3c1.3-0.6,2.5-1.2,3.7-2c0.8-0.5,1.6-1,2.3-1.6c1.3-1.2,2.6-2.4,3.7-3.8c1-1.3,1.9-2.6,2.6-4 c0.2-0.4,0.5-0.9,0.6-1.3c0.6-1.8,1.1-3.7,1.6-5.6c0.1-0.4,0.2-0.9,0.2-1.3c0-1.3,0-2.6,0-3.8c0-0.3-0.1-0.6-0.1-0.8 c-0.2-0.8-0.4-1.5-0.6-2.3c-0.5-2.1-1.1-4-2.2-5.9c-0.5-0.9-1.2-1.6-1.9-2.4c-1.4-1.7-3-3-4.9-4.1c-0.7-0.4-1.4-0.7-2.1-1 c-1.6-0.7-3.1-1.4-4.8-1.6c-0.4,0-0.7-0.2-1.1-0.2c-1.3-0.2-2.5-0.7-3.9-0.7c-1,0-2-0.1-3-0.1c-3.8,0-7.7,0-11.5,0 c-0.5,0-1.1,0.1-1.6,0.1c-0.7,0.1-1.3,0.2-2,0.2c-1.6,0-3.2-0.1-4.8-0.1c-1,0-2,0-3,0.2c-1.5,0.2-3,0.2-4.4,0.1 c-0.8-0.1-1.6-0.2-2.5-0.2c-0.7-0.1-1.4-0.1-2.1-0.1c-0.7,0-1.5-0.1-2.2,0c-0.4,0-0.9,0.2-1.3,0.4c-0.4,0.1-0.6,0.5-0.6,0.9 c-0.1,1.3,0,1.5,1.2,2c0.2,0.1,0.4,0.2,0.6,0.2c1,0.2,2,0.6,3,0.7c1.5,0.2,2.6,1,3.7,1.9c0.2,0.2,0.4,0.4,0.6,0.7 c0.8,1.2,1.3,2.5,1.5,3.9c0.2,1.3,0.3,2.6,0.3,3.9c0,2.6-0.1,5.1-0.1,7.7c-0.1,5.4,0.1,10.9,0.1,16.3c0,1.9,0,3.9,0,5.8 c0,0.3,0,0.7,0,1c0,1.6,0.1,3.2,0.1,4.8c-0.1,1.6-0.2,3.2-0.1,4.8c0.1,1.4,0.1,2.7,0.1,4.1c0,0.6,0,1.1,0,1.7c0,1.6,0.1,3.3,0,4.9 c-0.1,2.6-0.2,5.1,0,7.7c0,0.7,0,1.3-0.1,2c0,0.5-0.1,0.9-0.1,1.4c-0.1,0.5-0.1,1.1-0.2,1.6c-0.3,1.4-1,2.7-2,3.6 c-1.3,1.2-2.7,2.1-4.5,2.5c-0.9,0.2-1.6,0.7-2.1,1.4c-0.3,0.4-0.4,0.8-0.1,1.3c0.4,0.6,0.8,1,1.6,1c0.6,0,1.2,0.1,1.7-0.1 c0.8-0.2,1.6-0.2,2.5-0.2c1,0,2,0.1,3-0.1c1.1-0.2,2.3-0.3,3.4-0.2c3,0,5.9,0,8.9,0c1.4,0,2.9,0,4.3,0.2c0.3,0.1,0.6,0.1,0.9,0 c1-0.1,1.9,0.1,2.8,0.2c0.4,0.1,0.8,0.1,1.2,0.1c0.4,0,0.7-0.2,0.9-0.5c0.5-0.7,0.3-1.7-0.5-2.1c-1-0.5-2-1-3.1-1.1 c-1.6-0.1-3.1-0.7-4.6-1.4c-0.8-0.4-1.5-0.9-2.2-1.4c-0.9-0.8-1.6-1.7-1.7-3c0-0.4-0.1-0.7-0.2-1.1c-0.6-1.8-0.4-3.6-0.4-5.4 c0-1.6,0.1-3.1,0.1-4.7c0-1.9,0-3.9,0-5.8c0-2.6,0.1-5.1-0.1-7.7c-0.1-1.6-0.1-3.3,0-4.9c0-1.5,1.1-2.4,2.6-2.4c0.1,0,0.2,0,0.4,0 c1.6,0,3.2,0,4.8,0c1.7,0,3.5-0.1,5.2,0c1.8,0.2,3.3,1,4.3,2.5c1.1,1.8,2.3,3.5,3.4,5.3c2.1,3.4,4.3,6.8,6.4,10.1 c1,1.6,2.1,3.2,3.1,4.9c1.5,2.3,2.9,4.7,4.4,7c0.8,1.2,1.7,2.4,2.6,3.6c1.2,1.5,2.4,3,4,4.1c0.6,0.4,1.1,0.9,1.7,1.3 c2,1.2,4.2,2.2,6.5,2.4c0.4,0,0.8,0.2,1.2,0.2c1.1,0.1,2.3,0.2,3.4-0.1c0.5-0.1,1.1-0.1,1.6-0.2c1.1-0.1,2.3-0.3,3.4-0.4 c0.6-0.1,0.8-0.4,0.9-0.9c0-0.5-0.2-0.8-0.7-1c-0.2-0.1-0.4-0.2-0.6-0.2c-1-0.3-2.1-0.5-3.1-0.8c-0.4-0.1-0.9-0.3-1.2-0.5 c-2.1-1.3-4.1-2.7-5.7-4.7c-1-1.3-2.1-2.6-3-3.9c-1.8-2.6-3.5-5.3-5.2-8c-0.2-0.2-0.3-0.5-0.5-0.7c-1.6-2.4-3.2-4.9-4.8-7.3 c-1.1-1.7-2.2-3.4-3.3-5.1c-2.2-3.3-4.4-6.7-6.6-10C598.5,69.1,598.3,68.9,598.4,68.4z M583.6,67.4c-1.8,0-3.6,0-5.4,0 c-0.9,0-1.9-0.2-2.8-0.4c-0.7-0.1-1.2-0.6-1.6-1.1c-0.3-0.3-0.4-0.7-0.4-1.1c0.1-1.6,0.2-3.2,0.2-4.8c0-1.6-0.1-3.3-0.1-4.9 c0-2.1,0-4.2,0-6.3c0-0.5,0.1-0.9,0.1-1.4c0-3.7,0-7.3,0-11c0-1.4-0.1-2.7,0.5-4c0-0.1,0-0.2,0.1-0.2c0.1-0.5,0.1-1.1,0.6-1.4 c0.7-0.5,1.4-1.1,2.3-1c1.5,0,3,0.1,4.4,0c2.1-0.1,4.2,0.3,6.2,0.7c0.2,0,0.3,0.1,0.5,0.1c1.7,0,3.2,0.7,4.7,1.4 c1.8,0.7,3.4,1.7,4.9,2.8c1.8,1.4,3.2,3.1,4.2,5.3c0.5,1,1,2,1.3,3.1c0.2,0.8,0.3,1.6,0.5,2.4c0.5,1.8,0.2,3.6,0.3,5.4 c0.1,1.5-0.2,2.9-0.4,4.3c-0.1,0.6-0.4,1.2-0.5,1.8c-0.6,1.7-1.5,3.3-2.6,4.8c-0.7,1-1.7,1.8-2.7,2.5c-0.9,0.6-1.9,1.1-2.9,1.7 c-0.1,0-0.1,0.1-0.2,0.1c-1.3,0.4-2.5,0.9-3.8,1.2c-1.1,0.2-2.3,0.3-3.4,0.3C586.2,67.4,584.9,67.4,583.6,67.4 C583.6,67.4,583.6,67.4,583.6,67.4z M259.5,79c2.5,0,5,0,7.5,0c2.6,0,5.3,0.1,7.9,0c0.6,0,1.1,0.2,1.6,0.6c1.1,0.9,1.9,2.1,2.4,3.4 c0.7,1.7,1.4,3.4,2.1,5.1c0.1,0.2,0.2,0.4,0.2,0.6c0.6,1.7,1.2,3.3,1.8,5c0.8,2.3,2,4.4,2.7,6.8c0.4,1.4,0.9,2.7,1.3,4.1 c0.3,1,0.1,1.9-0.6,2.7c-1,1.2-2.3,2-3.8,2.4c-1.1,0.2-2,0.8-2.8,1.4c-0.6,0.4-0.5,1.1,0.1,1.5c0.1,0,0.1,0.1,0.2,0.1 c1.3,0.8,2.6,0.9,4.1,0.5c0.5-0.1,1-0.2,1.5-0.2c0.9,0.1,1.8,0.1,2.7-0.2c0.3-0.1,0.6-0.1,0.9-0.1c1.6,0,3.2,0,4.8,0.1 c0.7,0,1.5,0.1,2.2,0c0.9-0.1,1.8,0,2.7,0.1c0.7,0.1,1.5,0.1,2.2,0.1c1.1,0,2.2-0.1,3.3,0.1c1,0.1,2,0.2,3,0.2c0.3,0,0.7,0,1-0.1 c0.6-0.2,1-0.6,1-1.1c0-0.6-0.3-1-0.8-1.3c-0.3-0.1-0.6-0.3-0.9-0.3c-1.4-0.3-2.7-0.6-4.1-0.8c-0.4-0.1-0.7-0.2-1.1-0.3 c-1.7-0.8-3.1-1.9-4.1-3.5c-0.8-1.3-1.6-2.7-2.3-4.1c-0.6-1.5-1.2-3-1.7-4.5c-0.3-0.8-0.7-1.7-1-2.5c-0.7-2.2-1.6-4.2-2.4-6.3 c-1-2.6-2.2-5-3.1-7.7c-0.6-1.7-1.4-3.3-2.1-5c-0.3-0.7-0.5-1.4-0.8-2.1c-0.5-1.3-1.1-2.6-1.7-4c-1-2.3-1.9-4.6-2.9-7 c-0.1-0.3-0.2-0.5-0.3-0.8c-0.3-1.3-0.9-2.5-1.4-3.7c-0.8-2-1.7-3.9-2.5-5.9c-0.5-1.2-0.9-2.4-1.4-3.6c-0.5-1.3-1-2.5-1.5-3.8 c-0.6-1.3-1-2.6-1.5-3.9c-1-2.5-2.1-5-3.2-7.5c-0.1-0.3-0.3-0.7-0.4-1c-0.2-0.5-0.3-0.9-0.5-1.4c-0.5-1.4-1.2-2.8-1.7-4.2 c-0.2-0.8-0.6-1.6-1-2.4c-0.7-1.4-1.9-1.4-2.8-0.1c0,0.1-0.1,0.1-0.1,0.2c-1,1.7-1.8,3.4-2.7,5.2c-0.4,0.9-0.8,1.7-1.2,2.6 c-0.6,1.3-1.1,2.6-1.6,3.9c-0.4,0.8-0.8,1.5-1.1,2.3c-1,2.1-1.9,4.2-3,6.2c-0.1,0.1-0.1,0.2-0.2,0.3c-0.9,1.9-1.7,3.8-2.6,5.7 c-0.4,1-1,1.9-1.4,2.9c-0.8,1.7-1.6,3.4-2.3,5.2c-0.8,1.8-1.6,3.5-2.5,5.2c-0.8,1.8-1.7,3.7-2.5,5.5c-0.3,0.7-0.6,1.4-0.9,2 c-0.8,1.6-1.6,3.2-2.3,4.8c-0.8,1.8-1.6,3.6-2.5,5.4c-1,2.2-2.1,4.5-3.2,6.7c-0.5,1.1-1.1,2.2-1.6,3.3c-0.8,1.8-1.6,3.7-2.5,5.5 c-0.2,0.5-0.4,1-0.7,1.5c-0.9,1.9-1.9,3.8-2.8,5.7c-0.5,1-1,1.9-1.7,2.7c-1.2,1.3-2.6,2.4-4.5,2.7c-0.8,0.2-1.6,0.5-2.2,1 c-0.6,0.4-0.7,1-0.4,1.6c0.4,0.7,1.2,1.1,2,0.9c1-0.3,1.9-0.3,2.9-0.2c0.6,0,1.2-0.1,1.8-0.1c0.7,0,1.3-0.1,2-0.1c1.4,0,2.8,0,4.2,0 c0.9,0,1.7,0.1,2.6,0.1c0.8,0,1.6,0.1,2.3,0.1c0.7,0,1.3,0,2,0.2c0.9,0.2,1.9,0.2,2.8,0.1c0.5,0,1-0.2,1.5-0.5 c0.6-0.4,0.8-1.2,0.6-1.8c-0.3-0.8-0.7-1.4-1.7-1.4c-0.4,0-0.7-0.1-1.1-0.1c-1-0.1-1.9-0.4-2.8-0.8c-1-0.4-1.8-1.2-2.3-2.2 c-0.4-0.9-0.8-1.9-0.6-3c0.1-0.4,0-0.9,0-1.4c0-0.4,0-0.7,0.1-1.1c0.1-0.6,0.2-1.1,0.4-1.7c0.1-0.3,0.2-0.6,0.3-0.8 c1-2.1,1.9-4.1,2.9-6.1c0.2-0.5,0.5-1,0.8-1.6c0.5-1.2,1-2.3,1.5-3.5c0.8-1.8,1.6-3.5,2.4-5.3c0.3-0.8,0.8-1.5,1.5-2.1 c0.7-0.6,1.5-1,2.5-0.9c1.5,0,3,0,4.6,0c1.2,0,2.4,0.1,3.6,0.1C255,79.1,257.3,79.1,259.5,79z M259.8,73.3c-2.4,0-4.8,0-7.2,0 c-1.6,0-3.3,0-4.9,0c-0.4,0-0.9-0.1-1.3-0.2c-0.8-0.3-1-0.9-0.6-1.7c0.1-0.1,0.2-0.3,0.3-0.4c0.1-0.3,0.3-0.5,0.4-0.8 c0.7-1.6,1.5-3.3,2.2-4.9c0.7-1.6,1.5-3.2,2.3-4.8c1-2,1.9-4.1,2.8-6.2c0.7-1.6,1.5-3.2,2.3-4.8c0.8-1.7,1.6-3.5,2.4-5.3 c0.4-1,0.8-2,1.3-2.9c0.2-0.3,0.4-0.7,0.6-0.9c0.3-0.4,0.8-0.3,1,0.1c0,0.1,0.1,0.1,0.1,0.2c0.6,1.6,1.3,3.1,1.9,4.7 c0,0.1,0.1,0.2,0.1,0.3c1.2,2.4,1.9,4.9,2.9,7.3c0.4,1,0.9,2,1.3,3.1c0.6,1.6,1.4,3.1,1.8,4.7c0.2,0.8,0.6,1.5,0.9,2.3 c0.7,1.4,1.3,2.8,1.8,4.3c0.4,1.2,1,2.4,1.5,3.5c0.1,0.3,0.3,0.6,0.3,0.9c0.1,0.4-0.1,0.8-0.5,1c-0.5,0.3-1.1,0.4-1.7,0.4 c-0.8,0-1.6,0-2.3,0C266.4,73.3,263.1,73.3,259.8,73.3C259.8,73.3,259.8,73.3,259.8,73.3z M211.6,0h483.3v127.3H211.6V0z"></path> <path class="st0" d="M211.6,0v127.3h-29.6c0.6-0.6,0.7-0.8,0.8-1c1-1.1,1.7-2.2,2.4-3.3c1.2-2,2.4-3.9,3.5-5.9 c1.2-2.1,2.4-4.2,3.5-6.4c0.5-0.9,0.9-2,1.3-2.9c0,0,0-0.1,0-0.1c0.8-1,1.1-2.3,1.6-3.5c0.5-1.1,0.9-2.3,1.4-3.4 c0.2-0.5,0.5-1,0.7-1.6c0.1-0.3,0.2-0.5,0.2-0.8c0.1-0.7,0.3-1.3,0.6-1.9c0.2-0.7,0.5-1.3,0.7-2c0-0.1,0-0.2,0-0.2 c0.8-1.3,0.8-2.9,1.3-4.4c0.2-0.5,0.3-1.1,0.4-1.7c0-0.1,0-0.2,0.1-0.4c0.4-1.7,0.9-3.3,0.9-5.1c0-0.6,0.3-1.3,0.5-1.9 c0.4-1.2,0.6-2.5,0.6-3.8c0-0.9,0.2-1.7,0.2-2.6c0-1.1,0.1-2.3,0.4-3.4c0.1-0.6,0-1.2,0-1.8c0-1,0-2.1,0-3.1c0-0.9,0-1.7-0.3-2.6 c-0.1-0.2-0.1-0.4-0.1-0.6c0.3-0.9-0.1-1.7-0.2-2.6c-0.1-0.8-0.1-1.6-0.2-2.5c-0.1-0.5-0.2-1-0.3-1.4c-0.4-1.2-0.7-2.4-0.7-3.6 c0-0.4-0.1-0.8-0.3-1.2c-0.3-0.6-0.5-1.3-0.6-2c-0.1-0.3-0.1-0.6-0.2-0.8c-0.3-0.9-0.7-1.8-0.9-2.7c-0.2-0.9-0.7-1.7-1.1-2.5 c-0.3-0.7-0.6-1.5-0.9-2.2c-0.4-0.8-0.8-1.6-1.3-2.4c-0.8-1.5-1.7-2.9-2.6-4.4c-0.3-0.5-0.6-1-0.9-1.5c-0.5-0.8-1.1-1.5-1.5-2.2 c-0.6-0.9-1.3-1.8-2.1-2.6c-0.9-0.9-1.8-1.8-2.6-2.8c-0.8-1-1.7-2-2.8-2.8c-1.1-0.9-2.1-1.9-3.2-2.9c-0.4-0.3-0.7-0.7-1.2-0.9 c-2-1.3-3.9-2.7-5.9-4c-1.1-0.7-2.4-1.4-3.5-2c-0.1-0.1-0.2-0.1-0.3-0.2c-1.5-0.5-3-1.2-4.4-1.9c-1.2-0.5-2.4-1-3.7-1.3 c-0.9-0.3-1.7-0.5-2.6-0.7c-2-0.5-3.9-0.9-5.9-1.2c-1.6-0.2-3.3-0.4-4.9-0.8C147.8,7,147.5,7,147.2,7c-2.6,0-5.1,0-7.7,0 c-0.3,0-0.6,0-0.9,0.1c-1.3,0.4-2.7,0.5-4,0.7c-1.5,0.2-2.9,0.4-4.4,0.8c-0.3,0.1-0.6,0.1-0.9,0.1c-0.4,0.1-0.9,0.1-1.3,0.3 c-1.5,0.7-3.3,0.9-4.8,1.6c0,0-0.1,0-0.1,0c-3.3,1.1-5.2,2.1-7.5,3.4c-3,1.7-5.8,3.7-8.2,6.3c-0.1,0.1-0.2,0.2-0.3,0.3 c-0.4,0.4-0.9,0.4-1.3,0c-0.5-0.5-1-1-1.5-1.5c-1.3-1.3-2.7-2.4-4.2-3.4c-1.8-1.2-3.6-2.2-5.5-3.1c-1.2-0.5-2.3-1.1-3.5-1.6 c-1.3-0.5-2.6-0.9-3.9-1.3c-0.5-0.2-1-0.3-1.5-0.5c-0.8-0.3-1.5-0.5-2.4-0.5c-0.4,0-0.8-0.2-1.2-0.2c-0.9-0.2-1.8-0.4-2.7-0.5 c-1.7-0.2-3.3-0.4-5-0.8C74.3,7,74,7,73.6,7c-2.5,0-4.9,0-7.4,0c-0.3,0-0.6,0-0.9,0.1c-1.8,0.5-3.7,0.7-5.6,0.9 c-0.3,0-0.6,0.1-0.8,0.2c-1,0.2-2,0.4-3,0.6c-0.5,0.1-1.1,0.2-1.6,0.4c-1.4,0.4-2.7,0.9-4.1,1.4c-0.1,0-0.2,0.1-0.3,0.1 c-2.4,0.6-4.6,1.8-6.8,2.9c-2.1,1-4,2.1-5.9,3.4c-1.3,0.9-2.5,1.9-3.8,2.8c-3.6,2.6-6.6,5.7-9.3,9.2c-1.3,1.7-2.7,3.4-3.9,5.3 c-1.3,2.1-2.7,4.2-3.8,6.5c-0.6,1.3-1.1,2.6-1.6,3.9c-0.4,0.9-0.7,1.8-1.1,2.8c-0.2,0.5-0.3,0.9-0.4,1.4c0,0.1,0,0.2-0.1,0.4 c-0.5,1.6-1,3.1-1.5,4.7c-0.1,0.3-0.2,0.7-0.2,1.1c0,0.7-0.2,1.5-0.4,2.2c-0.4,1.5-0.7,3-0.8,4.5c-0.1,1.1-0.3,2.2-0.4,3.3 c0,0.2-0.1,0.5-0.1,0.7c-0.1,3.2-0.5,6.3-0.2,9.5c0.1,1.4,0.2,2.8,0.3,4.2c0,1.1,0.3,2.2,0.4,3.3c0.1,0.4,0.1,0.9,0.1,1.4 c0,1.5,0.2,3,0.6,4.4c0.3,1.2,0.5,2.3,0.5,3.5c0,0.5,0.1,1.1,0.3,1.6c0.3,1.2,0.5,2.4,0.8,3.6c0.1,0.6,0.3,1.1,0.4,1.7 c0.1,0.2,0.2,0.4,0.2,0.6c0,1.8,1,3.3,1.3,5c0.1,0.3,0.2,0.6,0.3,0.9c0.3,0.6,0.5,1.3,0.6,2c0,0.2,0.1,0.4,0.1,0.6 c0.4,1.2,0.9,2.5,1.3,3.7c0.2,0.6,0.4,1.3,0.6,1.9c0.5,1.2,0.9,2.4,1.4,3.6c0.2,0.5,0.4,0.9,0.5,1.4c0,0.2,0.1,0.3,0.1,0.5 c1.1,2,1.8,4.2,2.8,6.3c0.8,1.7,1.7,3.4,2.5,5.1c0.6,1.2,1.3,2.4,2,3.6c2,3.7,4.4,7.2,6.6,10.7c0.8,1.3,1.7,2.5,2.6,3.8 c1.3,1.8,2.6,3.7,4,5.5c1.1,1.4,2.3,2.8,3.4,4.2c0.8,1,1.7,2,2.4,3.1c0.8,1,1.6,2,2.5,2.9c1.5,1.6,3,3.3,4.5,5 c0.7,0.7,1.4,1.4,2,2.2c2.5,3,5.5,5.6,8.2,8.4c1.9,1.5,3.5,3.4,5.4,4.8c0.9,0.6,1.7,1.5,2.5,2.2c2.7,2.7,5.7,5.1,8.8,7.4 c1.1,0.9,2.2,1.8,3.2,2.7c0.6,0.5,1.2,0.9,1.8,1.4c1,0.7,2,1.5,3,2.2c2.7,1.9,5.4,3.9,8.1,5.8c0.9,0.7,1.9,1.3,2.9,1.9 c0.6,0.4,1.5,1,2.3,1.6H0V0h212"></path> </svg> 