<?xml version="1.0" encoding="UTF-8" standalone="no"?>
<svg width="800px" height="201px" viewBox="0 0 800 201" version="1.1" xmlns="http://www.w3.org/2000/svg" xmlns:xlink="http://www.w3.org/1999/xlink">
    <g  stroke="none" stroke-width="1" fill="none" fill-rule="evenodd">
        <g >
            <g>
                <g >
                    <g id="Group">
                        <path d="M283.431662,119.076484 C279.264911,130.465604 280.653828,133.521221 290.654031,135.095327 L290.654031,137.873161 L263.616447,137.873161 L263.616447,135.095327 C271.209193,133.058249 274.449999,128.891498 278.61675,118.057945 L302.228339,57.9641361 L310.839625,57.9641361 L335.469753,125.650691 C337.877209,131.854521 339.451315,133.891599 348.0626,135.095327 L348.0626,138.05835 L308.24698,138.05835 L308.24698,134.817543 C319.080532,134.447166 320.839827,132.224898 318.895343,126.206258 L312.876703,108.613309 L287.042847,108.613309 L283.431662,119.076484 Z M301.024611,73.7977899 L300.469044,73.7977899 C300.469044,73.7977899 288.894736,105.002125 288.616953,105.002125 L311.858164,105.002125 L301.024611,73.7977899 Z M355.09978,120.280212 L358.340586,120.280212 C364.544415,130.928576 370.563056,135.928677 377.785424,135.928677 C383.989253,135.928677 386.767087,132.317493 386.767087,128.150742 C386.767087,123.150641 383.341092,120.557996 372.32235,117.317189 C360.28507,113.891194 355.284969,110.094821 355.284969,101.668724 C355.284969,91.0203607 363.711065,84.0757757 376.118724,84.0757757 C380.748447,84.0757757 385.748548,85.6498817 388.711571,87.6869599 L391.489405,84.0757757 L394.267239,84.0757757 L394.267239,100.835374 L391.026433,100.835374 C385.37817,92.0388999 381.02623,87.4091765 374.637212,87.4091765 C369.637111,87.4091765 366.025927,90.6499829 366.025927,95.4648951 C366.025927,100.279807 370.65565,102.316886 378.803963,104.446558 C390.841244,107.687365 397.045073,111.854116 397.045073,121.113562 C397.045073,131.298954 388.989354,139.354672 376.211318,139.354672 C372.044567,139.354672 364.63701,137.317594 361.396203,135.37311 L357.785019,139.354672 L355.007185,139.354672 L355.09978,120.280212 L355.09978,120.280212 Z M405.841547,112.224494 C405.841547,94.8167339 417.878828,83.7979923 433.897671,83.7979923 C448.712785,83.7979923 454.361048,91.2055497 454.361048,97.0390011 C454.361048,101.853913 451.583214,105.279909 446.768302,105.279909 C441.397823,105.279909 438.527394,102.039102 438.527394,97.8723513 C438.527394,94.6315449 440.564472,91.8537109 442.323767,91.0203607 C441.120039,88.9832825 438.157016,87.2239876 434.08286,87.2239876 C426.027141,87.2239876 420.656662,95.4648951 420.656662,110.465199 C420.656662,123.243235 426.027141,133.058249 437.694044,133.058249 C443.897873,133.058249 448.897974,129.817442 453.342509,124.446963 L455.564776,126.206258 C450.564675,133.984193 443.527495,139.262078 432.323565,139.262078 C416.026939,139.262078 405.841547,128.52112 405.841547,112.224494 Z M477.139287,111.668927 C477.139287,124.724747 482.787549,133.521221 494.176669,133.521221 C501.028659,133.521221 505.565788,129.910037 510.195511,124.076585 L512.417779,125.83588 C507.417677,133.613815 500.565687,139.447267 489.176567,139.447267 C472.509563,139.447267 462.324172,129.076687 462.324172,112.409683 C462.324172,95.1871117 473.713291,83.9831813 489.176567,83.9831813 C505.19541,83.9831813 513.251129,95.835273 512.417779,110.187415 L477.324476,110.187415 C477.139287,110.650388 477.139287,111.205954 477.139287,111.668927 Z M497.602664,106.854015 C498.806392,95.4648951 495.843369,87.4091765 488.158028,87.4091765 C481.76901,87.4091765 477.972637,94.2611671 477.324476,107.039203 L497.602664,106.854015 Z M518.158635,135.095327 C524.732843,134.910138 526.399543,134.076788 526.399543,130.928576 L526.399543,93.8907892 C526.399543,90.4647939 524.825437,88.2425267 518.158635,88.0573378 L518.158635,85.2795038 L540.196119,84.2609647 L540.196119,94.6315449 C545.566598,88.4277157 552.974155,83.9831813 560.381712,83.9831813 C569.826348,83.9831813 574.64126,90.0018216 574.64126,100.650185 L574.64126,130.928576 C574.64126,134.169382 575.844988,134.910138 582.696979,135.095327 L582.696979,137.873161 L553.807505,137.873161 L553.807505,135.095327 C558.622417,134.910138 560.381712,134.076788 560.381712,130.928576 L560.381712,102.872452 C560.381712,95.2797062 557.789067,91.668522 551.770427,91.668522 C547.140704,91.668522 543.529519,94.0759781 540.566496,97.6871623 L540.566496,130.928576 C540.566496,134.169382 542.140602,134.910138 546.955515,135.095327 L546.955515,137.873161 L518.066041,137.873161 L518.158635,135.095327 L518.158635,135.095327 Z M590.474914,120.280212 L593.71572,120.280212 C599.91955,130.928576 605.93819,135.928677 613.160558,135.928677 C619.364388,135.928677 622.142222,132.317493 622.142222,128.150742 C622.142222,123.150641 618.716226,120.557996 607.697485,117.317189 C595.660204,113.891194 590.660103,110.094821 590.660103,101.668724 C590.660103,91.0203607 599.086199,84.0757757 611.493858,84.0757757 C616.123581,84.0757757 621.123682,85.6498817 624.086705,87.6869599 L626.864539,84.0757757 L629.642373,84.0757757 L629.642373,100.835374 L626.401567,100.835374 C620.753305,92.0388999 616.401365,87.4091765 610.012346,87.4091765 C605.012245,87.4091765 601.401061,90.6499829 601.401061,95.4648951 C601.401061,100.279807 606.030784,102.316886 614.179097,104.446558 C626.216378,107.687365 632.420207,111.854116 632.420207,121.113562 C632.420207,131.298954 624.364489,139.354672 611.586452,139.354672 C607.419701,139.354672 600.012144,137.317594 596.771338,135.37311 L593.160153,139.354672 L590.382319,139.354672 L590.382319,120.280212 L590.474914,120.280212 L590.474914,120.280212 Z M639.364792,135.095327 C645.938999,134.910138 647.790889,134.076788 647.790889,130.928576 L647.790889,93.8907892 C647.790889,90.4647939 646.216783,88.2425267 639.364792,88.0573378 L639.364792,85.2795038 L662.050437,84.1683702 L662.050437,130.835981 C662.050437,134.076788 663.254165,134.817543 670.291344,135.002732 L670.291344,137.780566 L639.642576,137.780566 L639.642576,135.002732 L639.364792,135.002732 L639.364792,135.095327 Z M645.938999,65.9272603 C645.938999,60.5567812 649.364995,56.945597 654.550285,56.945597 C659.735575,56.945597 663.16157,60.3715923 663.16157,65.5568824 C663.16157,70.9273615 659.735575,74.3533567 654.550285,74.3533567 C649.364995,74.3533567 645.938999,71.2051449 645.938999,65.9272603 Z M674.828473,111.668927 C674.828473,95.0019228 686.032404,83.7979923 702.514219,83.7979923 C719.366412,83.7979923 729.922181,94.446356 729.922181,111.205954 C729.922181,128.243336 718.71825,139.262078 702.514219,139.262078 C685.199053,139.262078 674.828473,128.52112 674.828473,111.668927 Z M714.644094,111.483738 C714.644094,95.0945173 710.477343,87.4091765 701.866057,87.4091765 C693.439961,87.4091765 690.291749,95.0019228 690.291749,111.483738 C690.291749,128.150742 694.4585,135.928677 703.069785,135.928677 C711.310693,135.650894 714.644094,127.872958 714.644094,111.483738 Z M735.477849,135.095327 C742.052056,134.910138 743.718756,134.076788 743.718756,130.928576 L743.718756,93.8907892 C743.718756,90.4647939 742.14465,88.2425267 735.477849,88.0573378 L735.477849,85.2795038 L757.515332,84.2609647 L757.515332,94.6315449 C762.885811,88.4277157 770.293368,83.9831813 777.700926,83.9831813 C787.145561,83.9831813 791.960473,90.0018216 791.960473,100.650185 L791.960473,130.928576 C791.960473,134.169382 793.164202,134.910138 800.016192,135.095327 L800.016192,137.873161 L771.126718,137.873161 L771.126718,135.095327 C775.941631,134.910138 777.700926,134.076788 777.700926,130.928576 L777.700926,102.872452 C777.700926,95.2797062 775.108281,91.668522 769.08964,91.668522 C764.459917,91.668522 760.848733,94.0759781 757.88571,97.6871623 L757.88571,130.928576 C757.88571,134.169382 759.459816,134.910138 764.274728,135.095327 L764.274728,137.873161 L735.385254,137.873161 L735.477849,135.095327 L735.477849,135.095327 Z" id="Shape" fill="#1B4297"></path>
                        <g id="Shape">
                            <path d="M79.3534579,104.076181 C76.9460018,104.909531 74.7237346,105.650286 72.3162785,106.483637 C71.2977393,100.464996 70.7421725,94.2611671 70.7421725,87.8721489 C70.7421725,53.0566294 86.7610153,21.3893218 111.576332,0.740755733 L111.576332,13.1484143 C92.1314943,31.945091 80.0942137,58.6122974 80.0942137,87.8721489 C80.0942137,92.0388999 80.2794026,96.4834343 80.9275639,100.464996 L79.3534579,104.076181 Z M183.892611,191.577952 C159.262483,191.577952 136.576838,182.781477 118.613512,168.33674 C116.206056,166.299662 113.7986,164.355178 111.576332,162.132911 C98.9834849,149.910442 89.5388493,134.724949 84.3535591,117.687567 L78.7052967,129.817442 C84.5387481,144.447368 93.3352224,157.503188 104.353964,168.244146 C106.576231,170.466413 108.983687,172.68868 111.391143,174.633164 C131.02117,191.022385 156.29946,200.837398 183.707422,200.837398 C197.503997,200.837398 210.930195,198.429942 223.152665,193.61503 L212.319112,187.411201 C203.522638,190.189035 193.892813,191.577952 183.892611,191.577952 Z" fill="#A62286"></path>
                            <path d="M104.724342,168.521929 C106.946609,170.744197 109.354065,172.966464 111.761521,174.910948 C92.1314943,191.114979 66.8532049,200.929993 39.4452428,200.929993 C25.6486673,200.929993 12.2224696,198.522537 0,193.707624 L10.8335526,187.503795 C20.0929993,190.09644 29.4450404,191.485357 39.4452428,191.485357 C64.0753709,191.577952 86.9462042,182.966666 104.724342,168.521929 Z M152.595681,87.7795544 C152.595681,52.9640349 136.576838,21.2967273 111.761521,0.648161267 L111.761521,13.0558198 C131.391548,31.8524965 143.428829,58.5197029 143.428829,87.7795544 C143.428829,91.5759275 143.24364,95.3723007 142.873262,98.9834849 C141.854723,108.613309 139.447267,117.594973 136.021272,126.206258 C130.650792,139.817645 122.224696,152.040114 111.94671,162.040317 C114.168977,164.262584 116.576434,166.207068 118.98389,168.244146 C127.965553,159.447672 135.650894,148.984497 141.206562,137.410189 C146.021474,127.780364 149.447469,117.224595 151.206764,106.205853 C152.040114,100.464996 152.595681,94.2611671 152.595681,87.7795544 Z" fill="#00AB90"></path>
                            <path d="M223.523043,193.800219 L212.68949,187.596389 C204.633771,155.188326 181.207371,128.706309 151.021575,116.483839 L165.83669,148.891902 C172.68868,163.521828 176.670242,166.947823 183.707422,168.151551 C184.540772,168.33674 184.540772,172.596086 183.707422,172.781275 L141.484345,172.781275 C140.650995,172.596086 140.650995,168.33674 141.484345,168.151551 C149.725253,167.133012 152.688276,162.781072 147.502985,151.484547 L141.113967,137.687972 C145.928879,128.058147 149.354875,117.502378 151.11417,106.483637 C188.522334,120.465401 216.763646,153.521626 223.523043,193.800219 Z M142.780668,99.0760793 C141.762128,108.705904 139.354672,117.687567 135.928677,126.298853 L128.150742,110.094821 C122.780263,109.261471 117.317189,108.705904 111.761521,108.705904 C103.335425,108.705904 95.3723007,109.724443 87.3165821,111.668927 L84.5387481,117.687567 L78.8904856,129.910037 L71.6681172,145.928879 C64.4457488,162.3181 68.056933,166.947823 76.4830295,168.521929 C77.3163797,168.892307 77.0385963,172.503491 76.2978405,172.68868 L41.66751,172.68868 C40.8341598,172.503491 40.6489709,168.892307 41.4823211,168.521929 C47.5009614,166.299662 52.3158737,162.873667 60.7419701,144.447368 L73.7977899,115.835678 C42.9638325,128.058147 19.3522435,154.725354 10.9261471,187.503795 L0,193.800219 C6.85199053,153.521626 35.0933029,120.280212 72.3162785,106.483637 C74.5385457,105.650286 76.9460018,104.909531 79.3534579,104.076181 L80.9275639,100.650185 L109.817037,37.7785424 C110.650388,37.4081645 113.613411,37.4081645 114.446761,37.7785424 L142.780668,99.0760793 Z M123.613613,100.002024 L107.965148,66.1124492 L92.1314943,100.927969 C98.5205125,99.9094295 104.909531,99.1686738 111.761521,99.1686738 C115.743083,99.4464572 119.81724,99.6316461 123.613613,100.002024 Z" fill="#1B4297"></path>
                        </g>
                    </g>
                </g>
            </g>
        </g>
    </g>
</svg>
