<svg width="166" height="51" viewBox="0 0 166 51" fill="none" xmlns="http://www.w3.org/2000/svg">
<g clip-path="url(#clip0_132_1302)">
<path d="M99.7585 50.0683H98.962V47.0663H94.8503V50.0683H94.0537V43.2207H94.8503V46.3291H98.962V43.2207H99.7585V50.0683Z" fill="#9EA0A0"/>
<path d="M113.05 47.0663H109.34V49.3311H113.558V50.0683H108.544V43.2207H113.558V43.9655H109.34V46.3291H113.05V47.0663Z" fill="#9EA0A0"/>
<path d="M124.337 44.8471H124.246L122.805 48.0163L122.744 48.1151H125.855L125.802 48.0163L124.337 44.8471ZM124.201 43.2207H124.413L127.789 50.0607H126.879L126.272 48.8751H122.388L121.789 50.0607H120.886L124.201 43.2207Z" fill="#9EA0A0"/>
<path d="M135.589 50.0683V43.2207H136.385V49.3311H140.368V50.0683H135.589Z" fill="#9EA0A0"/>
<path d="M146.429 43.2207H152.02V43.9655H149.623V50.0683H148.818V43.9655H146.429V43.2207Z" fill="#9EA0A0"/>
<path d="M165.713 50.0683H164.916V47.0663H160.804V50.0683H160.008V43.2207H160.804V46.3291H164.916V43.2207H165.713V50.0683Z" fill="#9EA0A0"/>
<path d="M78.2295 10.9814V34.663H79.9971V9.93262H79.8302L78.2295 10.9814Z" fill="#164C88"/>
<path d="M85.6328 10.9966V34.663H87.4004V9.93262H87.2563L85.6328 10.9966Z" fill="#164C88"/>
<path d="M91.7934 27.96L102.353 21.6672C101.901 21.1111 101.317 20.6774 100.654 20.4056C99.9075 20.114 99.1111 19.972 98.3099 19.9877C97.4441 19.9697 96.5838 20.129 95.7816 20.4557C94.9794 20.7824 94.2522 21.2697 93.6444 21.8877C93.023 22.4907 92.5325 23.2157 92.2036 24.0173C91.8747 24.8189 91.7143 25.6799 91.7327 26.5465C91.7327 26.8353 91.7327 27.0937 91.7327 27.3065C91.7327 27.5193 91.7327 27.7396 91.7782 27.96H91.7934ZM104.675 32.6796C103.722 33.4118 102.666 33.9984 101.542 34.42C100.51 34.7901 99.4213 34.9779 98.3251 34.9749C97.203 35.0087 96.0859 34.8124 95.0423 34.3981C93.9986 33.9838 93.0505 33.3603 92.2561 32.5656C90.7041 30.9644 89.8359 28.8202 89.8359 26.5883C89.8359 24.3563 90.7041 22.2121 92.2561 20.6108C93.0543 19.8229 94.0036 19.2052 95.0467 18.795C96.0898 18.3848 97.205 18.1907 98.3251 18.2244C99.7238 18.1953 101.105 18.5361 102.331 19.2124C103.48 19.884 104.408 20.8772 105.001 22.07L92.423 29.48C92.9659 30.5802 93.8072 31.5047 94.8506 32.1477C95.8869 32.781 97.081 33.1078 98.2948 33.09C99.3384 33.0876 100.371 32.873 101.329 32.4593C102.527 31.9058 103.649 31.2009 104.667 30.3616L104.675 32.6796Z" fill="#164C88"/>
<path d="M107.162 34.7999V18.5663L108.952 18.3459V21.8115C109.488 20.6824 110.306 19.7112 111.327 18.9919C112.285 18.3693 113.409 18.0514 114.551 18.0799H114.991L114.232 19.8507C113.417 19.8884 112.624 20.1256 111.922 20.5417C111.22 20.9577 110.63 21.5398 110.204 22.2371C109.339 23.6507 108.907 25.7584 108.907 28.5603V34.6023L107.162 34.7999Z" fill="#164C88"/>
<path d="M63.1474 9.93262H62.6543L50.8047 34.663H52.8226L54.6812 30.8782L58.4592 22.9058L62.7378 13.6414H63.0261L66.8723 21.9254L71.0068 30.6426L72.9792 34.663H75.035L63.1474 9.93262Z" fill="#164C88"/>
<path d="M127.379 27.2834L129.769 21.9254L135.527 9.93262H140.094L127.668 34.663H126.848L114.468 9.93262H119.027L124.876 21.9254L127.137 27.2834H127.379Z" fill="#3BBFBF"/>
<path d="M153.021 26.0677C153.027 25.405 153.165 24.7501 153.425 24.1409C153.686 23.5317 154.064 22.9803 154.538 22.5184C155.027 22.0208 155.612 21.629 156.258 21.3675C156.904 21.1061 157.597 20.9804 158.294 20.9984C158.929 20.9872 159.56 21.1008 160.152 21.3328C160.307 21.3939 160.457 21.4676 160.6 21.5533L153.021 26.0677ZM160.782 31C160.001 31.3403 159.16 31.5187 158.309 31.5244C157.465 31.5442 156.63 31.3539 155.878 30.9705C155.126 30.5872 154.48 30.0228 154 29.328L165.705 22.4044L165.326 21.6444C164.7 20.3704 163.71 19.312 162.481 18.6045C161.204 17.8939 159.762 17.5347 158.301 17.5633C157.141 17.5342 155.987 17.7393 154.908 18.1662C153.829 18.5932 152.847 19.2333 152.02 20.0484C151.192 20.852 150.54 21.8186 150.104 22.8873C149.668 23.9559 149.457 25.1035 149.486 26.2577C149.459 27.413 149.668 28.5616 150.1 29.6332C150.531 30.7048 151.177 31.6768 151.997 32.4896C152.823 33.3145 153.808 33.9628 154.892 34.3952C155.975 34.8276 157.135 35.0352 158.301 35.0052C159.426 35.0043 160.542 34.8089 161.601 34.4277C162.736 34.0042 163.802 33.4152 164.765 32.6796L165.114 32.4212V28.0361L163.695 29.1533C162.806 29.8937 161.824 30.5146 160.774 31" fill="#3BBFBF"/>
<path d="M141.711 18.179H145.936V34.9674H141.711V18.179ZM146.217 13.4898C146.217 13.801 146.154 14.1092 146.031 14.3951C145.909 14.681 145.729 14.9387 145.503 15.1523C145.277 15.3659 145.009 15.5309 144.717 15.6371C144.425 15.7433 144.115 15.7884 143.804 15.7698C143.361 15.7431 142.935 15.587 142.579 15.3208C142.223 15.0546 141.953 14.6899 141.802 14.2717C141.65 13.8534 141.624 13.3999 141.727 12.967C141.829 12.5341 142.056 12.1407 142.379 11.8354C142.702 11.5301 143.107 11.3261 143.545 11.2487C143.982 11.1712 144.433 11.2237 144.84 11.3995C145.248 11.5754 145.596 11.867 145.841 12.2384C146.085 12.6098 146.216 13.0448 146.217 13.4898Z" fill="#3BBFBF"/>
<path d="M62.9194 20.1777L59.5283 26.0677H66.318L62.9194 20.1777Z" fill="#3BBFBF"/>
<path d="M12.6006 44.2999C12.6006 44.2999 14.9827 44.0187 15.5668 43.4411C15.838 43.1581 15.9895 42.7809 15.9895 42.3885C15.9895 41.9962 15.838 41.619 15.5668 41.3359L12.6006 44.2999Z" fill="#164C88"/>
<path d="M16.3408 40.5611C16.3408 40.5611 19.6029 40.1735 20.3994 39.3755C20.7789 38.9925 20.9918 38.4749 20.9918 37.9353C20.9918 37.3957 20.7789 36.8781 20.3994 36.4951L16.3408 40.5611Z" fill="#164C88"/>
<path d="M21.166 35.7198C21.166 35.7198 25.8467 35.165 26.9846 34.025C27.2571 33.7544 27.4734 33.4324 27.621 33.0776C27.7686 32.7228 27.8446 32.3422 27.8446 31.9578C27.8446 31.5734 27.7686 31.1929 27.621 30.8381C27.4734 30.4832 27.2571 30.1612 26.9846 29.8906L21.166 35.7198Z" fill="#164C88"/>
<path d="M-0.0986328 31.9199C-0.0986328 31.9199 1.79033 33.4399 2.60964 33.4399C3.01204 33.4399 3.39795 33.2798 3.68249 32.9947C3.96703 32.7097 4.12688 32.3231 4.12688 31.9199H-0.0986328Z" fill="#164C88"/>
<path d="M5.18848 31.9199C5.18848 31.9199 7.76779 33.9567 8.89055 33.9567C9.42976 33.9567 9.94689 33.7421 10.3282 33.3602C10.7094 32.9782 10.9237 32.4601 10.9237 31.9199H5.18848Z" fill="#164C88"/>
<path d="M12.0166 31.9199C12.0166 31.9199 15.7187 34.8459 17.3269 34.8459C18.1002 34.8439 18.8412 34.5348 19.3873 33.9862C19.9334 33.4377 20.24 32.6946 20.24 31.9199H12.0166Z" fill="#164C88"/>
<path d="M-0.333984 14.166C-0.333984 14.166 -0.0532952 16.56 0.530843 17.1376C0.813391 17.4093 1.18988 17.5611 1.58153 17.5611C1.97319 17.5611 2.34968 17.4093 2.63223 17.1376L-0.333984 14.166Z" fill="#164C88"/>
<path d="M3.39941 17.9131C3.39941 17.9131 3.78631 21.1811 4.58286 21.9791C4.96512 22.3592 5.48186 22.5725 6.02044 22.5725C6.55903 22.5725 7.07578 22.3592 7.45803 21.9791L3.39941 17.9131Z" fill="#164C88"/>
<path d="M8.23047 22.7466C8.23047 22.7466 8.78426 27.4358 9.9222 28.5834C10.4698 29.131 11.2119 29.4386 11.9856 29.4386C12.7594 29.4386 13.5015 29.131 14.0491 28.5834L8.23047 22.7466Z" fill="#164C88"/>
<path d="M12.0241 1.45117C12.0241 1.45117 10.5068 3.33597 10.5068 4.15677C10.5068 4.5599 10.6667 4.94652 10.9512 5.23157C11.2358 5.51663 11.6217 5.67677 12.0241 5.67677V1.45117Z" fill="#164C88"/>
<path d="M12.0243 6.74121C12.0243 6.74121 9.99123 9.32522 9.99123 10.45C9.99022 10.7178 10.0421 10.9831 10.1439 11.2307C10.2458 11.4782 10.3955 11.7032 10.5845 11.8925C10.7735 12.0818 10.998 12.2318 11.2451 12.3338C11.4922 12.4358 11.7571 12.4878 12.0243 12.4868V6.74121Z" fill="#164C88"/>
<path d="M12.0244 13.5811C12.0244 13.5811 9.11133 17.2899 9.11133 18.9011C9.11133 19.6751 9.41824 20.4174 9.96456 20.9647C10.5109 21.512 11.2518 21.8195 12.0244 21.8195V13.5811Z" fill="#164C88"/>
<path d="M29.7453 1.20801C29.7453 1.20801 27.3633 1.48922 26.7791 2.07442C26.5079 2.35748 26.3564 2.73466 26.3564 3.12703C26.3564 3.5194 26.5079 3.89655 26.7791 4.17961L29.7453 1.20801Z" fill="#164C88"/>
<path d="M26.0131 4.95508C26.0131 4.95508 22.7435 5.34267 21.9545 6.13307C21.5728 6.51634 21.3584 7.03564 21.3584 7.57706C21.3584 8.11848 21.5728 8.63779 21.9545 9.02106L26.0131 4.95508Z" fill="#164C88"/>
<path d="M21.181 9.78857C21.181 9.78857 16.5003 10.3434 15.3623 11.4834C15.0905 11.7552 14.8749 12.078 14.7277 12.4333C14.5806 12.7887 14.5049 13.1697 14.5049 13.5544C14.5049 13.9391 14.5806 14.32 14.7277 14.6754C14.8749 15.0308 15.0905 15.3536 15.3623 15.6254L21.181 9.78857Z" fill="#164C88"/>
<path d="M42.4824 13.5884C42.4824 13.5884 40.5934 12.1064 39.7741 12.1064C39.3782 12.1063 38.9979 12.2612 38.7144 12.5381C38.4309 12.815 38.2667 13.1919 38.2568 13.5884H42.4824Z" fill="#164C88"/>
<path d="M37.1727 13.5886C37.1727 13.5886 34.5934 11.5518 33.4706 11.5518C32.9314 11.5518 32.4143 11.7663 32.033 12.1483C31.6517 12.5303 31.4375 13.0484 31.4375 13.5886H37.1727Z" fill="#164C88"/>
<path d="M30.3453 13.5959C30.3453 13.5959 26.6432 10.6699 25.035 10.6699C24.2603 10.6699 23.5174 10.9782 22.9697 11.5269C22.422 12.0756 22.1143 12.8199 22.1143 13.5959H30.3453Z" fill="#164C88"/>
<path d="M42.6803 31.3423C42.6803 31.3423 42.3996 28.9559 41.8231 28.3707C41.5405 28.099 41.164 27.9473 40.7724 27.9473C40.3807 27.9473 40.0042 28.099 39.7217 28.3707L42.6803 31.3423Z" fill="#164C88"/>
<path d="M38.9473 27.6027C38.9473 27.6027 38.5604 24.3271 37.7638 23.5367C37.5756 23.3467 37.3516 23.1958 37.1049 23.0929C36.8581 22.99 36.5935 22.937 36.3262 22.937C36.059 22.937 35.7944 22.99 35.5476 23.0929C35.3009 23.1958 35.077 23.3467 34.8887 23.5367L38.9473 27.6027Z" fill="#164C88"/>
<path d="M34.138 22.7616C34.138 22.7616 33.5842 18.0724 32.4462 16.9324C31.8986 16.3847 31.1565 16.0771 30.3828 16.0771C29.609 16.0771 28.8669 16.3847 28.3193 16.9324L34.138 22.7616Z" fill="#164C88"/>
<path d="M30.3447 44.0643C30.3447 44.0643 31.862 42.1719 31.862 41.3511C31.862 40.9479 31.7021 40.5613 31.4176 40.2763C31.133 39.9912 30.7471 39.8311 30.3447 39.8311V44.0643Z" fill="#164C88"/>
<path d="M30.3447 38.7671C30.3447 38.7671 32.3854 36.1831 32.3854 35.0583C32.3854 34.5181 32.1712 34 31.7899 33.618C31.4087 33.2361 30.8915 33.0215 30.3523 33.0215L30.3447 38.7671Z" fill="#164C88"/>
<path d="M30.3447 31.9276C30.3447 31.9276 33.2578 28.2188 33.2654 26.6076C33.2634 25.8322 32.9551 25.0892 32.4078 24.5409C31.8605 23.9926 31.1187 23.6836 30.3447 23.6816V31.9276Z" fill="#164C88"/>
<path d="M12.6006 44.3C12.6006 44.3 12.8813 41.9136 13.4654 41.336C13.748 41.0643 14.1244 40.9126 14.5161 40.9126C14.9078 40.9126 15.2842 41.0643 15.5668 41.336L12.6006 44.3Z" fill="#3BBFBF"/>
<path d="M16.3408 40.5606C16.3408 40.5606 16.7201 37.2926 17.5167 36.4946C17.8993 36.1122 18.4176 35.8975 18.9581 35.8975C19.4985 35.8975 20.0169 36.1122 20.3994 36.4946L16.3408 40.5606Z" fill="#3BBFBF"/>
<path d="M21.166 35.7196C21.166 35.7196 21.7198 31.0304 22.8577 29.8904C23.4053 29.3427 24.1475 29.0352 24.9212 29.0352C25.6949 29.0352 26.4371 29.3427 26.9846 29.8904L21.166 35.7196Z" fill="#3BBFBF"/>
<path d="M-0.0986328 31.9194C-0.0986328 31.9194 1.79033 30.3994 2.60964 30.3994C3.01204 30.3994 3.39795 30.5596 3.68249 30.8446C3.96703 31.1297 4.12688 31.5163 4.12688 31.9194H-0.0986328Z" fill="#3BBFBF"/>
<path d="M5.18848 31.9196C5.18848 31.9196 7.76779 29.8828 8.89055 29.8828C9.42976 29.8828 9.94689 30.0974 10.3282 30.4794C10.7094 30.8613 10.9237 31.3794 10.9237 31.9196H5.18848Z" fill="#3BBFBF"/>
<path d="M12.0166 31.9192C12.0166 31.9192 15.7187 28.9932 17.3269 28.9932C17.7105 28.9932 18.0903 29.0689 18.4446 29.2159C18.799 29.363 19.121 29.5785 19.3922 29.8502C19.6634 30.1219 19.8785 30.4444 20.0253 30.7994C20.1721 31.1544 20.2476 31.5349 20.2476 31.9192H12.0166Z" fill="#3BBFBF"/>
<path d="M-0.333984 14.166C-0.333984 14.166 2.04809 14.4548 2.63223 15.0324C2.90345 15.3155 3.0549 15.6926 3.0549 16.085C3.0549 16.4774 2.90345 16.8546 2.63223 17.1376L-0.333984 14.166Z" fill="#3BBFBF"/>
<path d="M3.39941 17.9131C3.39941 17.9131 6.66907 18.3007 7.45803 19.0911C7.83976 19.4743 8.05413 19.9937 8.05413 20.5351C8.05413 21.0765 7.83976 21.5958 7.45803 21.9791L3.39941 17.9131Z" fill="#3BBFBF"/>
<path d="M8.23047 22.7466C8.23047 22.7466 12.9112 23.3014 14.0491 24.449C14.3216 24.7196 14.5379 25.0416 14.6855 25.3964C14.8331 25.7512 14.9091 26.1318 14.9091 26.5162C14.9091 26.9006 14.8331 27.2811 14.6855 27.636C14.5379 27.9908 14.3216 28.3128 14.0491 28.5834L8.23047 22.7466Z" fill="#3BBFBF"/>
<path d="M12.0234 1.45117C12.0234 1.45117 13.5407 3.33597 13.5407 4.15677C13.5407 4.5599 13.3808 4.94652 13.0963 5.23157C12.8118 5.51663 12.4258 5.67677 12.0234 5.67677V1.45117Z" fill="#3BBFBF"/>
<path d="M12.0234 6.74121C12.0234 6.74121 14.0565 9.32521 14.0565 10.45C14.0565 10.9902 13.8423 11.5083 13.4611 11.8903C13.0798 12.2722 12.5627 12.4868 12.0234 12.4868V6.74121Z" fill="#3BBFBF"/>
<path d="M12.0234 13.5811C12.0234 13.5811 14.9441 17.2899 14.9441 18.9011C14.9441 19.2849 14.8685 19.6651 14.7217 20.0196C14.5748 20.3742 14.3595 20.6963 14.0882 20.9674C13.8169 21.2385 13.4949 21.4533 13.1406 21.5995C12.7863 21.7457 12.4066 21.8205 12.0234 21.8195V13.5811Z" fill="#3BBFBF"/>
<path d="M29.7455 1.20801C29.7455 1.20801 29.4648 3.59441 28.8807 4.17961C28.5981 4.45133 28.2216 4.60305 27.83 4.60305C27.4383 4.60305 27.0618 4.45133 26.7793 4.17961L29.7455 1.20801Z" fill="#3BBFBF"/>
<path d="M26.0137 4.95508C26.0137 4.95508 25.6268 8.22306 24.8302 9.02106C24.448 9.40116 23.9313 9.61446 23.3927 9.61446C22.8541 9.61446 22.3373 9.40116 21.9551 9.02106L26.0137 4.95508Z" fill="#3BBFBF"/>
<path d="M21.1809 9.78857C21.1809 9.78857 20.6271 14.4778 19.4892 15.6178C19.2186 15.8899 18.897 16.1057 18.5429 16.253C18.1888 16.4003 17.8092 16.4761 17.4258 16.4761C17.0423 16.4761 16.6627 16.4003 16.3086 16.253C15.9545 16.1057 15.6329 15.8899 15.3623 15.6178L21.1809 9.78857Z" fill="#3BBFBF"/>
<path d="M42.4824 13.5884C42.4824 13.5884 40.5934 15.1084 39.7741 15.1084C39.3717 15.1084 38.9858 14.9482 38.7012 14.6632C38.4167 14.3781 38.2568 13.9915 38.2568 13.5884H42.4824Z" fill="#3BBFBF"/>
<path d="M37.1727 13.5884C37.1727 13.5884 34.5934 15.6328 33.4706 15.6328C33.203 15.6328 32.938 15.5798 32.6908 15.477C32.4437 15.3742 32.2192 15.2235 32.0303 15.0335C31.8414 14.8436 31.6918 14.6182 31.5901 14.3702C31.4884 14.1222 31.4365 13.8565 31.4375 13.5884H37.1727Z" fill="#3BBFBF"/>
<path d="M30.3453 13.5962C30.3453 13.5962 26.6432 16.5146 25.035 16.5146C24.6518 16.5156 24.2721 16.4408 23.9178 16.2946C23.5635 16.1484 23.2415 15.9336 22.9702 15.6625C22.6989 15.3914 22.4836 15.0693 22.3367 14.7148C22.1899 14.3602 22.1143 13.9801 22.1143 13.5962H30.3453Z" fill="#3BBFBF"/>
<path d="M42.6801 31.3417C42.6801 31.3417 40.2981 31.0605 39.7215 30.4753C39.4503 30.1922 39.2988 29.8151 39.2988 29.4227C39.2988 29.0303 39.4503 28.6532 39.7215 28.3701L42.6801 31.3417Z" fill="#3BBFBF"/>
<path d="M38.9475 27.6028C38.9475 27.6028 35.6551 27.2 34.8965 26.44C34.7068 26.2514 34.5562 26.027 34.4535 25.7798C34.3507 25.5326 34.2979 25.2675 34.2979 24.9998C34.2979 24.732 34.3507 24.4669 34.4535 24.2197C34.5562 23.9726 34.7068 23.7482 34.8965 23.5596L38.9475 27.6028Z" fill="#3BBFBF"/>
<path d="M34.1381 22.7618C34.1381 22.7618 29.4574 22.207 28.3195 21.067C27.7728 20.5184 27.4658 19.775 27.4658 18.9998C27.4658 18.2247 27.7728 17.4812 28.3195 16.9326L34.1381 22.7618Z" fill="#3BBFBF"/>
<path d="M30.3444 44.0643C30.3444 44.0643 28.8271 42.1719 28.8271 41.3511C28.8271 40.9479 28.987 40.5613 29.2715 40.2763C29.5561 39.9912 29.942 39.8311 30.3444 39.8311V44.0643Z" fill="#3BBFBF"/>
<path d="M30.3446 38.7671C30.3446 38.7671 28.3115 36.1831 28.3115 35.0583C28.3115 34.7902 28.3643 34.5247 28.467 34.2771C28.5696 34.0295 28.7201 33.8046 28.9097 33.6154C29.0993 33.4261 29.3243 33.2763 29.5718 33.1743C29.8194 33.0724 30.0846 33.0205 30.3522 33.0215L30.3446 38.7671Z" fill="#3BBFBF"/>
<path d="M30.3455 31.9276C30.3455 31.9276 27.4248 28.2188 27.4248 26.6076C27.4248 25.8316 27.7325 25.0874 28.2803 24.5387C28.828 23.9899 29.5709 23.6816 30.3455 23.6816V31.9276Z" fill="#3BBFBF"/>
</g>
<defs>
<clipPath id="clip0_132_1302">
<rect width="166" height="51" fill="white"/>
</clipPath>
</defs>
</svg>
