<svg id="Layer_1" data-name="Layer 1" xmlns="http://www.w3.org/2000/svg" viewBox="0 0 450.64 64.31"><defs><style>.cls-1{fill:#003767;}</style></defs><title>SaintLukes_logo_MasterBrand_blue</title><path class="cls-1" d="M262.88,270.49a7.13,7.13,0,0,1,7.5-7.5c8.18,0,9.6,7.57,10.58,11.4h2.7a72.59,72.59,0,0,0-.83-11.48c-2.77-1.57-6.15-2.77-11.77-2.77-9.68,0-16.73,4-16.73,13.5,0,15.37,23.25,14.4,23.25,27.07,0,5-3.15,8.33-7.87,8.33-9.6,0-12.08-10.5-13.13-15l-3.52.75c0,6,.37,9.37,2.17,14.1a27.61,27.61,0,0,0,13.2,3c9,0,18.45-3.9,18.45-14.55C286.88,281.29,262.88,282,262.88,270.49Z" transform="translate(-176.36 -254.05)"/><path class="cls-1" d="M323.78,309.11c-4.8,0-4.8-5.55-4.8-10.95v-9.22c0-8.55-1.65-13.43-11.1-13.43-7.57,0-12.75,4.28-16.12,7.95a11.05,11.05,0,0,0,2,3.83h.75c1-2.25,3.15-7.43,8.93-7.43,5.32,0,6.52,4,6.52,8.4v1.8c-6.22,1.65-19.42,4.2-19.42,13.65,0,4.8,4,8.18,9.82,8.18,5.25,0,8.33-2.33,10.43-3.83,1.2,1.88,2.55,3.83,7.35,3.83A12.45,12.45,0,0,0,324.6,310l-.22-1A1.73,1.73,0,0,1,323.78,309.11Zm-18.07-1.57c-3.38,0-5.55-2.7-5.55-6.3,0-5.55,4.72-7.8,9-7.8.3,0,.52.07.82.07v8.18c0,1.42.23,3.3.3,4.05A6.89,6.89,0,0,1,305.71,307.54Z" transform="translate(-176.36 -254.05)"/><path class="cls-1" d="M334.21,269.29a5.19,5.19,0,0,0,5.25-5.33,5.25,5.25,0,0,0-5.25-5.17,5.25,5.25,0,1,0,0,10.5Z" transform="translate(-176.36 -254.05)"/><path class="cls-1" d="M339.23,303.64V275.51a50.34,50.34,0,0,0-13.65,2.7v2.18a8.19,8.19,0,0,1,2.4-.45c2.25,0,2.25,3.37,2.25,6v17.7c0,4-.37,4.72-3.07,5l-1.58.15v1.95h18.3v-1.95l-1.57-.15C339.6,308.36,339.23,307.61,339.23,303.64Z" transform="translate(-176.36 -254.05)"/><path class="cls-1" d="M382.73,303.64V288.86c0-10.12-4.58-13.35-11.33-13.35a17,17,0,0,0-11.85,4.35v-4.35a49.37,49.37,0,0,0-13.49,2.7v2.18a8,8,0,0,1,2.39-.45c2.25,0,2.25,3.37,2.25,6v17.7c0,4-.37,4.8-2.92,5l-1.58.15v1.95h18.15v-1.95l-1.57-.15c-2.7-.22-3.08-1.05-3.08-5V282.71a8.32,8.32,0,0,1,6.23-2.85c7.8,0,7.8,7.2,7.8,13.13v10.65c0,4-.38,4.8-3.08,5l-1.57.15v1.95h18.3v-1.95l-1.58-.15C383.1,308.44,382.73,307.61,382.73,303.64Z" transform="translate(-176.36 -254.05)"/><path class="cls-1" d="M406.13,307.54c-6.38-.08-6.38-5.78-6.38-13.35V280a81.78,81.78,0,0,0,8.18-.67v-1.95c-1.65-.23-6.68-.6-8.18-.75.08-2.25.68-7.88.9-9.15l-.9-.53a54.18,54.18,0,0,0-9,6.45v3.23c-1.8.3-4.27.45-5.7.75v1.95c1.5.3,4,.45,5.7.67v18.9c0,5.4,0,13,8.7,13a24,24,0,0,0,11.1-3l-.52-1.95A11.43,11.43,0,0,1,406.13,307.54Z" transform="translate(-176.36 -254.05)"/><path class="cls-1" d="M447.8,307.91a30.39,30.39,0,0,1-6.9-1.05V272.14c0-7.28,0-8.18,3.52-8.7l1.8-.23v-1.95h-20.4v1.95l1.8.23c3.53.52,3.53,1.42,3.53,8.7v27.52c0,8.55,0,8.25-3.53,8.93l-1.8.22v1.95H460.7a54.17,54.17,0,0,0,2.62-13.65l-2.7-.52C458.45,302.81,458.37,307.91,447.8,307.91Z" transform="translate(-176.36 -254.05)"/><path class="cls-1" d="M502.09,307c-2.55,0-2.55-2.92-2.55-9.07V275.51a50.21,50.21,0,0,0-13.64,2.7v2.18a8,8,0,0,1,2.39-.45c2.25,0,2.25,3.37,2.25,6v19.72a10.67,10.67,0,0,1-5.62,1.88c-7.35,0-8.48-5-8.48-11V275.51a50.28,50.28,0,0,0-13.64,2.7v2.18a8,8,0,0,1,2.4-.45c2.25,0,2.25,3.37,2.25,6v10.87c0,8.33.52,15.08,12.14,15.08,5.63,0,9.16-2.48,11.41-3.83l2,3.83a89.4,89.4,0,0,0,11.32-3l-.15-1.95A10.42,10.42,0,0,1,502.09,307Z" transform="translate(-176.36 -254.05)"/><path class="cls-1" d="M529.62,289.16c8.32-8.55,8.4-9.6,12.9-10.35l1.42-.22v-1.95H527.37v1.95l2.4.3c1.05.15,2.32.37,2.32,1,0,1.13-.67,2.18-3.37,5.25L526.24,288c-2.7,3.15-4.35,3.3-7,3.3v-34.5c-4.05,0-7.42.45-13.65,1.73v1.95c.3,0,1.21-.15,2.1-.15,2.55,0,2.55,2.92,2.55,9.52v33.83c0,4-.37,4.72-3.07,5l-1.58.15v1.95h18.3v-1.95l-1.57-.15c-2.7-.22-3.08-1.05-3.08-5v-9.53H520c3.15,0,3.45,1.95,7.12,7.88,4.13,5.92,4.35,8.77,12.38,8.77h5.7v-1.95C542.22,308.81,541.54,308.06,529.62,289.16Z" transform="translate(-176.36 -254.05)"/><path class="cls-1" d="M562.09,275.51c-8.55,0-17.17,6.75-17.17,18.68s8.7,17.7,17.55,17.7a22.32,22.32,0,0,0,14.25-4.8l-.75-1.73a18.13,18.13,0,0,1-8.25,2.18c-10.28,0-12.53-8.1-13.35-12.6,7.8-1.8,16.12-4.2,22.57-7.2C576.12,283.39,574.17,275.51,562.09,275.51Zm-8.17,15.9c0-1.35,0-13.05,6.52-13.05,4.73,0,7,4.43,7.5,9.83A90.36,90.36,0,0,1,553.92,291.41Z" transform="translate(-176.36 -254.05)"/><path class="cls-1" d="M586.6,262.07a4.23,4.23,0,0,0-3.22-1.4,3.62,3.62,0,0,0-2.75,1.06,3.8,3.8,0,0,0-1,2.74,3.47,3.47,0,0,0,1,2.52,3.2,3.2,0,0,0,2.39,1c.15,0,.47,0,1-.11a.84.84,0,0,1,.68.28,1.25,1.25,0,0,1,.22.75,5.16,5.16,0,0,1-1.84,3.47,23.29,23.29,0,0,1-3.06,2.44l.53,1a20.22,20.22,0,0,0,4.77-3.54,9.17,9.17,0,0,0,2.68-6.37A5.36,5.36,0,0,0,586.6,262.07Z" transform="translate(-176.36 -254.05)"/><path class="cls-1" d="M595.83,283a4.4,4.4,0,0,1,4.2-4.65c5.55,0,7.2,6.08,7.42,8.55h3a38.4,38.4,0,0,0-.82-9.3,19.62,19.62,0,0,0-9-2.1c-13.35,0-13.35,9.23-13.35,9.83,0,12,16.87,9.82,16.87,18.75a4.72,4.72,0,0,1-4.95,5c-5.62,0-9-6-9.45-10.13h-3a41,41,0,0,0,1.35,10.65,22.25,22.25,0,0,0,10.35,2.33c10.13,0,14.25-5,14.25-10.8C612.7,289.61,595.83,290.89,595.83,283Z" transform="translate(-176.36 -254.05)"/><path class="cls-1" d="M238.81,283.57a3.45,3.45,0,0,0-1.36-1.37,8,8,0,0,0-2-.73s-.22.31-.41.54a1.83,1.83,0,0,1-.48.38,6.32,6.32,0,0,1,1.93.48c1.14.56,1.09,1.09,1.35,1.37s1.06.32,1.52,1.16H212.28l-3.2-3.21V264.36s-.14-2.41.88-3.54a6.18,6.18,0,0,1,2.71-1.59,6.31,6.31,0,0,0-.47-2c-.56-1.14-1.09-1.09-1.37-1.36s-.5-1.85-2.35-1.85-2,1.56-2.34,1.85a3.45,3.45,0,0,0-1.37,1.36,7.54,7.54,0,0,0-.73,2s.31.22.53.4a2.21,2.21,0,0,1,.39.48,6.39,6.39,0,0,1,.48-1.93c.55-1.13,1.09-1.08,1.36-1.35s.32-1.06,1.16-1.51v26.86l-3.23,3.24H186.67s-2.41.13-3.54-.89a6.18,6.18,0,0,1-1.59-2.71,6.46,6.46,0,0,0-2,.48c-1.14.56-1.09,1.09-1.36,1.37s-1.85.5-1.85,2.35,1.57,2,1.85,2.34a3.45,3.45,0,0,0,1.36,1.37,8,8,0,0,0,2,.73s.22-.31.4-.53a1.91,1.91,0,0,1,.48-.39,6.39,6.39,0,0,1-1.93-.48c-1.13-.56-1.08-1.09-1.35-1.37s-1.06-.32-1.51-1.16h27.12l3.21,3.21v18.31s.14,2.41-.88,3.53a6.2,6.2,0,0,1-2.72,1.6,6.46,6.46,0,0,0,.48,2c.56,1.14,1.09,1.09,1.37,1.35s.5,1.86,2.35,1.86,2-1.57,2.34-1.86a3.32,3.32,0,0,0,1.37-1.35,8,8,0,0,0,.73-2s-.31-.22-.53-.4a1.91,1.91,0,0,1-.39-.48,6.39,6.39,0,0,1-.48,1.93c-.56,1.13-1.09,1.08-1.37,1.35s-.32,1.06-1.16,1.51V289.74l3.23-3.23h18.06s2.4-.13,3.53.89a6.06,6.06,0,0,1,1.59,2.71,6.46,6.46,0,0,0,2-.48c1.15-.56,1.09-1.09,1.36-1.37s1.86-.5,1.86-2.35S239.1,283.88,238.81,283.57Z" transform="translate(-176.36 -254.05)"/><path class="cls-1" d="M226.15,290.22H212.78V303.6s0,8,8,8h13.37V298.18S234.11,290.22,226.15,290.22Zm5.19,18.62H216.55a3.77,3.77,0,0,1-.72-1.58,12.43,12.43,0,0,1-.18-3.92h10.2V293.15a12.7,12.7,0,0,1,3.91.18,3.94,3.94,0,0,1,1.58.73Z" transform="translate(-176.36 -254.05)"/><path class="cls-1" d="M234.11,273.75V260.37H220.73s-8,0-8,8v13.38h13.38S234.11,281.71,234.11,273.75Zm-18.41-5.12a12.7,12.7,0,0,1,.18-3.91,3.82,3.82,0,0,1,.73-1.57h14.78v14.78a3.83,3.83,0,0,1-1.58.73,12.63,12.63,0,0,1-3.92.17v-10.2Z" transform="translate(-176.36 -254.05)"/><path class="cls-1" d="M190.88,281.7h13.37V268.32s0-8-8-8H182.92v13.38S182.92,281.7,190.88,281.7Zm-5.19-18.62h14.78a3.83,3.83,0,0,1,.73,1.58,12.76,12.76,0,0,1,.18,3.92H191.17v10.19a12.7,12.7,0,0,1-3.91-.18,3.82,3.82,0,0,1-1.57-.73Z" transform="translate(-176.36 -254.05)"/><path class="cls-1" d="M182.92,298.18v13.37h13.37s8,0,8-8V290.22H190.88S182.92,290.22,182.92,298.18Zm18.4,5.11a12.43,12.43,0,0,1-.18,3.92,3.66,3.66,0,0,1-.73,1.57H185.63V294a3.94,3.94,0,0,1,1.58-.73,12.76,12.76,0,0,1,3.92-.18v10.2Z" transform="translate(-176.36 -254.05)"/><polygon class="cls-1" points="442.1 53.03 443.37 53.03 443.37 56.83 444.19 56.83 444.19 53.03 445.48 53.03 445.48 52.35 442.1 52.35 442.1 53.03"/><path class="cls-1" d="M626.74,306.4h-1.06l-.62,1.79c-.17.52-.32,1.08-.44,1.56h0c-.12-.5-.26-1-.42-1.55l-.58-1.8h-1.07l-.3,4.47H623l.1-1.8c0-.61.06-1.32.08-1.9h0c.12.56.28,1.17.45,1.74l.6,1.91h.63l.65-1.94c.2-.56.39-1.17.53-1.71h0c0,.6,0,1.3.06,1.88l.08,1.82h.8Z" transform="translate(-176.36 -254.05)"/></svg>