<?xml version="1.0" encoding="utf-8"?>
<!-- Generator: Adobe Illustrator 27.2.0, SVG Export Plug-In . SVG Version: 6.00 Build 0)  -->
<svg version="1.1" id="Layer_1" xmlns="http://www.w3.org/2000/svg" xmlns:xlink="http://www.w3.org/1999/xlink" x="0px" y="0px"
	 viewBox="0 0 209.8 93.8" style="enable-background:new 0 0 209.8 93.8;" xml:space="preserve">
<style type="text/css">
	.st0{fill:#FFFFFF;}
</style>
<path class="st0" d="M49.1,32.6h-4.9v-1H55v1h-4.9v13h-1V32.6z"/>
<path class="st0" d="M60.1,31.7h1.2l4.4,12.5l4.1-12.5h0.8l4.1,12.5l4.4-12.5h1.1l-5.1,14.1h-0.8l-4.1-12.2L66,45.8h-0.8L60.1,31.7z
	"/>
<path class="st0" d="M85.8,31.7h1v14h-1V31.7z"/>
<path class="st0" d="M93.8,31.7h1l9.7,12.2V31.7h1v14h-0.8l-9.9-12.4v12.4h-1V31.7z"/>
<path class="st0" d="M120.2,38.7L120.2,38.7c0-4,3-7.3,7-7.3c2.5,0,4,0.9,5.4,2.2l-0.7,0.8c-1.2-1.2-2.6-2.1-4.7-2.1
	c-3.4,0-5.9,2.7-5.9,6.3v0c0,3.5,2.6,6.3,5.9,6.3c2,0,3.4-0.8,4.8-2.2l0.7,0.7c-1.5,1.5-3.1,2.4-5.6,2.4
	C123.1,45.9,120.2,42.7,120.2,38.7z"/>
<path class="st0" d="M138.3,31.7h1v14h-1V31.7z"/>
<path class="st0" d="M149.9,32.6H145v-1h10.8v1h-4.9v13h-1V32.6z"/>
<path class="st0" d="M161.4,31.7h1v14h-1V31.7z"/>
<path class="st0" d="M169.4,31.7h10v1h-8.9v5.5h8v1h-8v5.6h9v1h-10.1V31.7z"/>
<path class="st0" d="M184.3,43.6l0.7-0.8c1.5,1.4,3,2.1,5,2.1c2.1,0,3.5-1.2,3.5-2.8v0c0-1.5-0.8-2.3-4-3c-3.4-0.7-4.7-1.8-4.7-3.9
	v0c0-2.1,1.9-3.7,4.5-3.7c2,0,3.4,0.6,4.8,1.7l-0.7,0.8c-1.3-1.1-2.6-1.6-4.2-1.6c-2.1,0-3.4,1.2-3.4,2.6v0c0,1.5,0.8,2.4,4.1,3.1
	c3.2,0.7,4.6,1.8,4.6,3.9v0c0,2.3-1.9,3.8-4.6,3.8C187.7,45.9,186,45.1,184.3,43.6z"/>
<path class="st0" d="M44,63.6l1.5-1.8c1.3,1.2,2.7,1.8,4.4,1.8c1.5,0,2.5-0.7,2.5-1.8v0c0-1-0.6-1.5-3.2-2.1c-3-0.7-4.7-1.6-4.7-4.2
	v0c0-2.4,2-4.1,4.8-4.1c2,0,3.7,0.6,5.1,1.8l-1.3,1.9c-1.3-0.9-2.5-1.4-3.8-1.4c-1.4,0-2.3,0.7-2.3,1.7v0c0,1.1,0.6,1.6,3.3,2.2
	c3,0.7,4.5,1.8,4.5,4.1v0c0,2.6-2.1,4.2-5,4.2C47.7,65.9,45.7,65.1,44,63.6z"/>
<path class="st0" d="M57.9,51.7h5.5c3.3,0,5.3,1.9,5.3,4.7v0c0,3.1-2.5,4.8-5.6,4.8h-2.8v4.5h-2.5V51.7z M63.2,59c1.9,0,3-1,3-2.5v0
	c0-1.6-1.2-2.5-3-2.5h-2.9v5H63.2z"/>
<path class="st0" d="M71.5,51.7h2.5v14h-2.5V51.7z"/>
<path class="st0" d="M77.8,51.7h2.3l7.5,9.7v-9.7H90v14h-2.1l-7.7-10v10h-2.4V51.7z"/>
<path class="st0" d="M93.9,51.7h10.4v2.2h-7.9v3.6h7v2.2h-7v3.8h8v2.2H93.9V51.7z"/>
<path class="st0" d="M112.8,58.7L112.8,58.7c0-4,3-7.3,7.2-7.3c2.6,0,4.1,0.9,5.5,2.2l-1.6,1.8c-1.1-1-2.3-1.7-3.9-1.7
	c-2.7,0-4.6,2.2-4.6,4.9v0c0,2.7,1.9,5,4.6,5c1.7,0,2.8-0.7,4-1.8l1.6,1.6c-1.5,1.5-3.1,2.5-5.7,2.5
	C115.9,65.9,112.8,62.7,112.8,58.7z"/>
<path class="st0" d="M128.3,51.7h10.4v2.2h-7.9v3.6h7v2.2h-7v3.8h8v2.2h-10.5V51.7z"/>
<path class="st0" d="M141.9,51.7h2.3l7.5,9.7v-9.7h2.4v14H152l-7.7-10v10h-2.4V51.7z"/>
<path class="st0" d="M161,54h-4.4v-2.3H168V54h-4.4v11.7H161V54z"/>
<path class="st0" d="M170.5,51.7h10.4v2.2h-7.9v3.6h7v2.2h-7v3.8h8v2.2h-10.5V51.7z"/>
<path class="st0" d="M184.1,51.7h6.2c1.8,0,3.1,0.5,4,1.4c0.7,0.8,1.2,1.8,1.2,3v0c0,2.3-1.4,3.7-3.3,4.2l3.8,5.3h-2.9l-3.4-4.9
	h-3.1v4.9h-2.5V51.7z M190.2,58.6c1.8,0,2.9-0.9,2.9-2.3v0c0-1.5-1.1-2.3-2.9-2.3h-3.6v4.7H190.2z"/>
<g>
	<g id="XMLID_3132_">
		<path id="XMLID_3274_" class="st0" d="M20.5,46.7c0.3,0.7,0.4,1.4,0.2,2.1c-0.2,0.6-0.7,1.2-1.3,1.5c-0.7,0.3-1.4,0.3-2,0.1
			c-0.6-0.2-1.2-0.6-1.5-1.2c-0.3-0.7-0.4-1.4-0.2-2.1c0.2-0.6,0.7-1.2,1.3-1.5c0.7-0.3,1.4-0.3,2-0.1
			C19.6,45.7,20.2,46.1,20.5,46.7z"/>
		<path id="XMLID_3273_" class="st0" d="M23.6,54.3c0.1,0.2,0.1,0.3,0.1,0.5c0,0.2,0,0.3,0,0.5c0,0.3-0.1,0.6-0.2,0.9
			c-0.3,0.5-0.7,1-1.4,1.2c-0.6,0.2-1.3,0.1-1.8-0.1c-0.3-0.1-0.5-0.3-0.7-0.5c-0.1-0.1-0.2-0.2-0.3-0.4c-0.1-0.1-0.1-0.3-0.2-0.4
			c-0.2-0.6-0.2-1.2,0.1-1.7c0.2-0.5,0.7-1,1.3-1.3c0.6-0.3,1.2-0.2,1.8,0C22.9,53.2,23.4,53.6,23.6,54.3z"/>
		<path id="XMLID_3272_" class="st0" d="M25.3,61.8c0.1,0.6-0.1,1.2-0.4,1.6c-0.1,0.1-0.2,0.2-0.3,0.3c-0.1,0.1-0.2,0.2-0.3,0.2
			c-0.2,0.1-0.5,0.2-0.8,0.3c-0.3,0-0.6,0-0.8-0.1c-0.1,0-0.2-0.1-0.4-0.1c-0.1-0.1-0.2-0.1-0.3-0.2c-0.4-0.3-0.7-0.8-0.8-1.3
			c0-0.3,0-0.5,0-0.8c0.1-0.2,0.2-0.5,0.3-0.7c0.3-0.4,0.7-0.8,1.3-0.9c0.6-0.1,1.1,0,1.6,0.3c0.2,0.2,0.4,0.4,0.6,0.6
			C25.2,61.2,25.3,61.5,25.3,61.8z"/>
		<path id="XMLID_3271_" class="st0" d="M25.5,69c0,0.5-0.3,1-0.6,1.3c-0.4,0.3-0.8,0.5-1.3,0.4c-0.5-0.1-0.9-0.3-1.2-0.6
			c-0.3-0.3-0.4-0.8-0.4-1.2c0-0.5,0.2-0.9,0.6-1.2c0.3-0.3,0.8-0.5,1.3-0.5c0.5,0,0.9,0.2,1.3,0.5C25.3,67.9,25.5,68.4,25.5,69z"/>
		<path id="XMLID_3270_" class="st0" d="M24.2,75.4c-0.1,0.2-0.2,0.4-0.3,0.6c-0.1,0.2-0.3,0.3-0.5,0.4c-0.4,0.2-0.8,0.2-1.2,0.1
			c-0.4-0.1-0.7-0.4-0.9-0.8c-0.1-0.2-0.1-0.3-0.2-0.5c0-0.2,0-0.4,0-0.6c0.1-0.4,0.4-0.7,0.7-0.9c0.3-0.2,0.7-0.3,1.1-0.2
			c0.4,0.1,0.7,0.3,0.9,0.7C24.3,74.5,24.3,75,24.2,75.4z"/>
		<path id="XMLID_3269_" class="st0" d="M21.6,80.8c-0.1,0.2-0.2,0.3-0.3,0.4c-0.1,0.1-0.3,0.2-0.4,0.2c-0.3,0.1-0.7,0-0.9-0.1
			c-0.3-0.2-0.5-0.5-0.6-0.8c0-0.2-0.1-0.3,0-0.5c0-0.2,0.1-0.3,0.1-0.5c0.2-0.3,0.4-0.5,0.7-0.6c0.3-0.1,0.6-0.1,0.9,0.1
			c0.3,0.2,0.5,0.4,0.6,0.7C21.8,80.1,21.8,80.5,21.6,80.8z"/>
		<path id="XMLID_3268_" class="st0" d="M18.4,85c-0.2,0.2-0.4,0.3-0.7,0.3c-0.3,0-0.5-0.1-0.7-0.2c-0.2-0.2-0.3-0.4-0.3-0.7
			c0-0.2,0.1-0.5,0.2-0.7c0.2-0.2,0.4-0.3,0.6-0.3c0.2,0,0.5,0,0.7,0.2c0.2,0.2,0.3,0.4,0.4,0.7C18.6,84.6,18.6,84.8,18.4,85z"/>
		<path id="XMLID_3267_" class="st0" d="M14.8,88.1c-0.3,0.2-0.8,0.2-1-0.1c-0.2-0.3-0.2-0.7,0.1-1c0.3-0.2,0.7-0.2,1,0.1
			C15.2,87.4,15.1,87.9,14.8,88.1z"/>
		<path id="XMLID_3266_" class="st0" d="M17.1,40c-0.1-0.1-0.1-0.3-0.2-0.4c-0.1-0.1-0.2-0.2-0.3-0.4c-0.2-0.2-0.4-0.4-0.7-0.5
			c-0.5-0.3-1.2-0.3-1.8-0.1c-0.6,0.2-1.1,0.6-1.4,1.2c-0.1,0.3-0.2,0.6-0.2,0.9c0,0.2,0,0.3,0,0.5c0,0.2,0.1,0.3,0.1,0.5
			c0.2,0.6,0.7,1.1,1.3,1.4c0.6,0.3,1.2,0.3,1.8,0c0.6-0.2,1-0.7,1.3-1.3C17.3,41.2,17.4,40.6,17.1,40z"/>
		<path id="XMLID_3265_" class="st0" d="M15.1,33.4c-0.1-0.5-0.4-1-0.8-1.3C14.2,32,14.1,32,14,31.9c-0.1-0.1-0.2-0.1-0.4-0.1
			c-0.3-0.1-0.5-0.1-0.8-0.1c-0.3,0-0.5,0.1-0.8,0.3c-0.1,0.1-0.2,0.1-0.3,0.2c-0.1,0.1-0.2,0.2-0.3,0.3c-0.3,0.4-0.5,1-0.4,1.6
			c0,0.3,0.2,0.6,0.3,0.8c0.2,0.2,0.4,0.4,0.6,0.6c0.4,0.3,1,0.4,1.6,0.3c0.6-0.1,1-0.5,1.3-0.9c0.1-0.2,0.3-0.5,0.3-0.7
			C15.1,33.9,15.1,33.7,15.1,33.4z"/>
		<path id="XMLID_3264_" class="st0" d="M14.4,27.1c0-0.5-0.1-0.9-0.4-1.2c-0.3-0.3-0.7-0.6-1.2-0.6c-0.5-0.1-1,0.1-1.3,0.4
			c-0.4,0.3-0.6,0.8-0.6,1.3c0,0.5,0.2,1,0.5,1.3c0.3,0.3,0.8,0.5,1.3,0.5c0.5,0,0.9-0.2,1.3-0.5C14.2,28,14.4,27.6,14.4,27.1z"/>
		<path id="XMLID_3259_" class="st0" d="M15.1,21.3c0.1-0.2,0.1-0.4,0-0.6c0-0.2-0.1-0.4-0.2-0.5c-0.2-0.3-0.5-0.6-0.9-0.8
			c-0.4-0.1-0.8-0.1-1.2,0.1c-0.2,0.1-0.3,0.2-0.5,0.4c-0.1,0.2-0.2,0.4-0.3,0.6c-0.1,0.4-0.1,0.9,0.1,1.2c0.2,0.3,0.5,0.6,0.9,0.7
			c0.4,0.1,0.8,0,1.1-0.2C14.7,22,15,21.7,15.1,21.3z"/>
		<path id="XMLID_3258_" class="st0" d="M16.9,16.3C17,16.1,17,16,17,15.8c0-0.2,0-0.3,0-0.5c-0.1-0.3-0.3-0.6-0.6-0.8
			c-0.3-0.2-0.6-0.2-0.9-0.1c-0.2,0-0.3,0.1-0.4,0.2c-0.1,0.1-0.2,0.2-0.3,0.4c-0.2,0.3-0.2,0.7-0.1,1c0.1,0.3,0.3,0.6,0.6,0.7
			c0.3,0.2,0.6,0.2,0.9,0.1C16.5,16.8,16.7,16.6,16.9,16.3z"/>
		<path id="XMLID_3257_" class="st0" d="M19.4,12.1c0.2-0.2,0.2-0.4,0.2-0.7c0-0.2-0.1-0.5-0.3-0.7c-0.2-0.2-0.5-0.3-0.7-0.2
			c-0.2,0-0.5,0.1-0.7,0.3c-0.2,0.2-0.3,0.5-0.2,0.7c0,0.3,0.1,0.5,0.4,0.7c0.2,0.2,0.5,0.2,0.7,0.2C19,12.4,19.3,12.3,19.4,12.1z"
			/>
		<path id="XMLID_3256_" class="st0" d="M22.4,8.8c0.3-0.2,0.3-0.6,0.1-1c-0.2-0.3-0.7-0.4-1-0.1c-0.3,0.2-0.4,0.7-0.1,1
			C21.7,9,22.1,9.1,22.4,8.8z"/>
	</g>
	<path class="st0" d="M29.9,9.3c-2.6,4-5.1,7.9-6.5,12.6c-1.2,3.8-1.6,8-0.9,11.9c0.9,4.8,4.1,8.6,5.9,13.1
		c3.1,7.8,3.7,16.5,2.1,24.8c-0.7,3.8-1.8,7.5-3.3,11.1c1.7-4.3,3.5-8.4,4.6-12.9c1.5-6.1,2.1-12.7,0.9-19
		c-1.3-6.7-5.8-11.7-7.5-18.2c-0.9-3.6-1.1-7.3-0.5-10.9C25.6,17.3,27.4,13.1,29.9,9.3z"/>
</g>
<g>
	<path class="st0" d="M199.9,58c-1.7,0-3-1.4-3-3s1.3-3.1,3.1-3.1c1.7,0,3,1.4,3,3S201.6,58,199.9,58z M199.9,52.1
		c-1.6,0-2.8,1.3-2.8,2.8c0,1.5,1.2,2.8,2.8,2.8c1.6,0,2.8-1.3,2.8-2.8C202.7,53.4,201.5,52.1,199.9,52.1z M200.5,55.1l1,1.3h-0.6
		l-0.9-1.2h-0.8v1.2h-0.5v-3.1h1.4c0.7,0,1.2,0.4,1.2,0.9C201.3,54.7,200.9,55,200.5,55.1z M200.1,53.7h-0.9v1.1h0.9
		c0.4,0,0.7-0.2,0.7-0.6C200.8,53.9,200.5,53.7,200.1,53.7z"/>
	<path class="st0" d="M199.9,58.1c-1.7,0-3.2-1.4-3.2-3.2c0-1.8,1.4-3.2,3.2-3.2c1.7,0,3.2,1.4,3.2,3.2
		C203.1,56.7,201.6,58.1,199.9,58.1z M199.9,52c-1.6,0-2.9,1.3-2.9,2.9c0,1.6,1.3,2.9,2.9,2.9c1.6,0,2.9-1.3,2.9-2.9
		C202.8,53.3,201.5,52,199.9,52z M199.9,57.8c-1.6,0-2.9-1.3-2.9-2.9c0-1.6,1.3-2.9,2.9-2.9c1.6,0,2.9,1.3,2.9,2.9
		C202.8,56.5,201.5,57.8,199.9,57.8z M199.9,52.3c-1.5,0-2.6,1.2-2.6,2.7c0,1.5,1.2,2.6,2.6,2.6c1.5,0,2.6-1.2,2.6-2.7
		C202.5,53.4,201.4,52.3,199.9,52.3z M201.7,56.5h-0.9l-0.9-1.2h-0.6v1.2h-0.7v-3.4h1.5c0.8,0,1.3,0.4,1.3,1.1c0,0.5-0.3,0.8-0.7,1
		L201.7,56.5z M200.9,56.3h0.3l-0.9-1.2l0.2,0c0.3-0.1,0.7-0.2,0.7-0.8c0-0.5-0.4-0.8-1.1-0.8h-1.3v2.9h0.2v-1.2h1L200.9,56.3z
		 M200,54.9h-1v-1.4h1c0.5,0,0.8,0.3,0.8,0.7C200.9,54.7,200.6,54.9,200,54.9z M199.3,54.7h0.8c0.1,0,0.6,0,0.6-0.4
		c0-0.4-0.4-0.4-0.6-0.4h-0.8V54.7z"/>
</g>
</svg>
