<?xml version="1.0" encoding="UTF-8"?> <svg xmlns="http://www.w3.org/2000/svg" xmlns:xlink="http://www.w3.org/1999/xlink" id="a" viewBox="0 0 569.76 384.12"><defs><style>.d{fill:url(#c);}.e{fill:url(#b);}.f{fill:#0093bc;}</style><linearGradient id="b" x1="0" y1="192.06" x2="384" y2="192.06" gradientTransform="matrix(1, 0, 0, 1, 0, 0)" gradientUnits="userSpaceOnUse"><stop offset="0" stop-color="#0497bc"></stop><stop offset=".34" stop-color="#63bed5"></stop><stop offset=".66" stop-color="#b6e1eb"></stop><stop offset=".89" stop-color="#eaf6f9"></stop><stop offset="1" stop-color="#fff"></stop></linearGradient><linearGradient id="c" x1="37.23" y1="192.06" x2="372.93" y2="192.06" gradientTransform="matrix(1, 0, 0, 1, 0, 0)" gradientUnits="userSpaceOnUse"><stop offset="0" stop-color="#febf10"></stop><stop offset=".32" stop-color="#fed564"></stop><stop offset=".65" stop-color="#feebb6"></stop><stop offset=".88" stop-color="#fef9ea"></stop><stop offset="1" stop-color="#fff"></stop></linearGradient></defs><g><path class="e" d="M384,199.14c-3.73,102.79-88.23,184.98-191.94,184.98S0,298.13,0,192.06,85.99,0,192.06,0s188.21,82.19,191.94,184.98c-3.72-97.86-84.23-176.05-183-176.05S17.87,90.92,17.87,192.06s81.99,183.13,183.13,183.13,179.28-78.19,183-176.05Z"></path><path class="d" d="M372.93,194.23c-1.17,91.7-75.86,165.69-167.85,165.69S37.23,284.76,37.23,192.06,112.38,24.2,205.08,24.2s166.68,73.99,167.85,165.69c-1.17-81.64-67.72-147.47-149.63-147.47S73.66,109.42,73.66,192.06s66.99,149.64,149.64,149.64,148.46-65.83,149.63-147.47Z"></path></g><g><path class="f" d="M163.73,95.93c.28-.21,.5-.59,.87-.6,.33,.48,.44,1.08,.62,1.62,1.58,4.88,3.34,9.71,4.83,14.62,1.06,3.25,2.17,6.49,3.4,9.68,.37,1.03,1.12,2.03,2.22,2.33,.8,.13,1.62,.05,2.43,.14,0,.5,0,.99-.03,1.49-2.93-.09-5.86-.11-8.79-.05-.81,.03-1.61,.09-2.42,0,0-.49,0-.97,0-1.45,.74-.04,1.49-.05,2.23-.1,.36-.31,.58-.75,.41-1.22-.74-2.83-1.66-5.61-2.59-8.38-3.32,0-6.64,0-9.96,0-.93,2.64-1.96,5.25-2.79,7.93-.15,.56-.26,1.4,.46,1.62,1.01,.22,2.05,.04,3.07,.15,.01,.51,0,1.02-.07,1.52-3.15-.13-6.31-.12-9.47-.01-.04-.49-.06-.99-.02-1.48,.81-.11,1.62-.01,2.43-.13,.86-.19,1.32-1.02,1.64-1.77,2.76-6.72,5.2-13.57,7.76-20.37,.26-.76,.61-1.51,.74-2.31-.04-.44-.33-.8-.5-1.19,1.25-.52,2.54-1.05,3.53-2.01Zm-2.06,5.2c-1.39,3.79-2.83,7.57-4.15,11.38,2.97,.02,5.95,.02,8.92,0-1.25-3.87-2.5-7.74-3.76-11.6-.12-.3-.25-.6-.39-.9-.26,.34-.47,.71-.61,1.12Z"></path><path class="f" d="M260.76,97.07c1.93-.44,3.88-.81,5.84-1.09,.06,2.3-.07,4.59-.07,6.89-.05,4.72-.03,9.45-.03,14.17,.03,1.63-.08,3.28,.26,4.88,.5,1.01,1.81,.8,2.73,1.11,0,.2,.02,.59,.02,.78-1.71,.6-3.42,1.26-5.18,1.69-.23-.7-.45-1.41-.65-2.13-2.02,1.75-4.85,2.38-7.47,2.09-1.81-.26-3.2-1.61-4.28-2.99-1.33-1.74-1.61-4.04-1.44-6.16,.26-3.1,2.12-6.03,4.85-7.53,2.53-1.35,5.55-1.09,8.23-.35-.03-2.87,.07-5.75-.05-8.62-.11-1.33-1.71-1.48-2.74-1.65-.02-.37-.03-.74-.03-1.11Zm-3.76,12.49c-1.75,.65-2.83,2.39-3.26,4.13-.82,3.38,.27,7.37,3.2,9.42,1.52,1.11,3.64,.75,5.16-.17,.86-.48,1.47-1.38,1.46-2.38,.06-2.25,0-4.5,.02-6.76,0-.96,.03-2.03-.61-2.83-1.32-1.83-3.97-2.08-5.97-1.41Z"></path><path class="f" d="M366.25,96.97c.86-.34,1.68-.82,2.6-1-.27,6.59-.17,13.18-.19,19.77,.78-.03,1.63-.09,2.22-.67,1.21-1.12,2.31-2.36,3.41-3.6,.31-.36,.68-.73,.75-1.24-.02-.82-1.08-.43-1.5-.81-.04-.42,0-.84,.02-1.25,2.47,.1,4.95,.08,7.42,.02,.06,.45,.05,.9,.05,1.35-1.49,.05-2.99,.52-4.1,1.55-1.55,1.4-3.15,2.76-4.57,4.3,2.52,2.45,4.97,4.98,7.58,7.34,.79,.79,1.93,1,3,1.12,.06,.43,.07,.86,.08,1.29-2.78,.06-5.58-.08-8.36,.08-.02-.42-.03-.84-.01-1.26,.48,.01,1.46-.13,1.02-.83-1.56-1.84-3.24-3.57-4.9-5.32-.51-.65-1.35-.78-2.12-.85,.02,2.06-.05,4.13,.08,6.18,.18,1.05,1.52,.56,2.26,.7,0,.46,0,.91,0,1.37-2.63-.09-5.26-.13-7.88,.02,0-.44-.16-.93,.05-1.35,.67-.14,1.37,.01,2.05-.12,.45-.16,.51-.71,.51-1.12,.06-7.14,.06-14.29,.03-21.44,.05-.88-.62-1.63-1.44-1.86-.49-.23-1.36-.16-1.26-.93,1.03-.57,2.15-.95,3.21-1.44Z"></path><path class="f" d="M534.81,96.77c.63-.33,1.26-.71,1.98-.82,.2,.9,.04,1.82,.06,2.73-.04,3.96-.07,7.92-.03,11.89,1.18-1.21,2.63-2.2,4.31-2.55,2.16-.6,4.6,.25,5.93,2.05,1.21,1.5,1.18,3.52,1.19,5.34-.03,2.68,.08,5.35,.07,8.03,.75,.5,1.67,.27,2.5,.44,.24,.38,.04,.89,.07,1.32-2.76-.11-5.53-.03-8.28-.04-.01-.43-.05-.86,.04-1.28,.83-.19,1.83,.14,2.55-.44,.26-.7,.1-1.47,.14-2.2-.07-2.57,.09-5.14-.13-7.7-.1-1.48-.99-2.9-2.36-3.5-2.31-1-5.44,.42-6.01,2.92-.09,3.15-.01,6.31-.04,9.46,.04,.46-.07,1.12,.47,1.33,.65,.13,1.33,.04,2,.1,.01,.46,0,.92,0,1.37-1.85-.07-3.7-.11-5.54-.08-.92-.02-1.84,.14-2.75,0-.02-.4-.03-.79-.03-1.19,.86-.3,1.87,.07,2.67-.46,.34-.94,.21-1.97,.28-2.95,.07-5.81,.02-11.62,.03-17.44-.07-.91-.05-2-.75-2.69-.63-.5-1.45-.68-2.18-.97-.02-.14-.05-.42-.07-.56,1.26-.77,2.6-1.39,3.89-2.11Z"></path><path class="f" d="M299.25,96.62c3.94,.16,7.88,.11,11.82,.01,.01,.48,.01,.97,.02,1.45-1.18,.21-2.39-.04-3.57,.18-.51,.08-.68,.66-.68,1.11-.11,8.04-.14,16.09-.02,24.14,3.19,.09,6.38,.13,9.56,.04,1.16,.03,2.12-.75,2.86-1.57,1.39-1.61,2.41-3.51,3.2-5.47,.33,.15,.66,.3,1,.46-.73,2.71-1.41,5.44-2.01,8.18-7.5-.03-14.99-.15-22.49,0-.01-.5-.01-1.01-.01-1.51,.94-.06,1.88,.01,2.83-.05,.49-.04,1.17-.34,1.12-.93,.05-7.82,.32-15.65-.02-23.47-.02-.39-.23-.83-.64-.91-.96-.2-1.95-.04-2.92-.14-.03-.5-.03-1.01-.03-1.51Z"></path><path class="f" d="M436.18,96.6c2.68,.08,5.36,.22,8.03,.01,.55-.03,1.36-.12,1.56,.56,3.03,7.16,5.98,14.36,9,21.52,2.03-3.8,3.5-7.87,5.4-11.74,1.28-2.75,2.56-5.51,3.76-8.3,.29-.63,.43-1.33,.84-1.9,2.66-.08,5.32-.02,7.98-.18,.03,.52,.03,1.03,.02,1.55-.91,.1-1.85-.08-2.74,.16-.57,.14-.59,.83-.62,1.3-.2,7.45-.21,14.91,0,22.36,.03,.62,.13,1.42,.82,1.64,1.04,.15,2.1,.03,3.14,.08,.07,.52,.08,1.04,0,1.55-4.02-.16-8.05-.1-12.07-.01-.03-.5-.04-1-.04-1.49,1.21-.14,2.45,.06,3.66-.13,.59-.41,.54-1.25,.59-1.88,.06-6.82,.04-13.64,.02-20.46-.02-.73,.04-1.48-.16-2.19-2.02,3.96-3.77,8.05-5.65,12.08-1.69,3.64-3.25,7.34-4.88,11.01-.41,.91-.72,1.89-1.39,2.64-.36-.2-.61-.51-.73-.89-2.2-5.34-4.35-10.71-6.56-16.04-1.26-2.92-2.37-5.92-3.9-8.71-.21,2.55-.17,5.12-.2,7.68-.03,4.58-.05,9.15,0,13.73,.13,1.01,.09,2.31,1,2.96,1,.3,2.09,.09,3.13,.18,.04,.5,.05,.99,.05,1.49-3.24,.01-6.49-.13-9.72,.03-.36,0-.73,.07-1.06-.06-.07-.49-.03-.98,.02-1.47,1.22-.16,2.69,.36,3.71-.49,.95-1.19,.86-2.83,.99-4.27,.47-6.42,.34-12.87,.34-19.31,.04-.52-.09-1.26-.72-1.34-1.21-.23-2.45-.02-3.67-.14-.02-.51-.01-1.02,.01-1.52Z"></path><path class="f" d="M405.51,103.89c.25-.28,.88-.08,.76,.38-.01,1.33-.15,2.65-.2,3.98,1.97,.04,3.94-.09,5.9,.07-.1,.68-.3,1.34-.51,1.99-1.83,.1-3.67,.01-5.5,.05-.1,3.39-.07,6.78-.07,10.16,0,1.1,.35,2.42,1.44,2.92,1.23,.26,2.49-.05,3.64-.5,.14,.26,.29,.52,.44,.79-1.34,1.28-3.25,1.89-5.08,1.77-1.31-.21-2.5-1.06-3.16-2.21-.54-.91-.33-2-.34-3,.13-3.31,.16-6.63,.21-9.94-1.01-.13-2.19,.29-3.07-.27,.02-.12,.06-.35,.08-.47,2.19-1.49,4.09-3.45,5.44-5.73Z"></path><path class="f" d="M418.36,103.86c.24-.02,.48-.03,.73-.05,.08,1.48-.06,2.96-.1,4.44,1.67,0,3.35,0,5.02,0,.31-.01,.63,.06,.93,.15-.21,.6-.33,1.23-.55,1.83-.31,.23-.73,.1-1.08,.14-1.46,0-2.93,0-4.39,0-.15,3.38-.19,6.77-.13,10.16,.05,1.17,.42,2.63,1.69,3.01,1.13,.15,2.29-.12,3.33-.58,.21,.24,.38,.51,.51,.81-1.38,1.28-3.34,1.92-5.21,1.73-1.73-.38-3.53-1.88-3.35-3.8,.07-3.78,.12-7.55,.16-11.33-.94-.06-1.92,.13-2.84-.11-.62-.62,.51-1.02,.91-1.36,1.68-1.44,3.37-3.02,4.36-5.03Z"></path><path class="f" d="M230.19,109.69c1.27-.59,2.4-1.54,3.77-1.88,.14,1,.28,2,.45,3,1.33-1.56,3.22-2.75,5.29-2.95,1.66-.06,3.54,.36,4.59,1.75,.7,.94,1.36,2.05,1.29,3.26,0,3.25,0,6.5,0,9.75,0,.4,0,.93,.46,1.11,.7,.19,1.45-.03,2.15,.18,.1,.4,.04,.82,.04,1.23-1.68,.11-3.37-.07-5.06,0-1.02-.03-2.03,.11-3.05,.03,0-.41-.02-.82-.02-1.23,.73-.23,1.54,.04,2.24-.28,.32-.41,.3-.97,.34-1.46,.11-2.87,.04-5.74,.06-8.61-.01-1.09-.23-2.35-1.2-3.01-2.06-1.46-5.21-.76-6.58,1.33-.44,.71-.58,1.55-.55,2.37,.02,2.94-.03,5.88,.02,8.82,.05,1.09,1.48,.62,2.18,.76,0-.05,0-.16,0-.21,.2,.51,.18,1.06,.15,1.59-2.53-.13-5.07-.13-7.6,0-.03-.52-.08-1.06,.11-1.55,.58,.19,1.22,.18,1.82,.08,.54-.22,.42-.9,.44-1.37-.04-3.03,.04-6.06-.04-9.08-.07-1.26-1.2-1.94-2.21-2.43-.41-.64,.49-.93,.91-1.18Z"></path><path class="f" d="M497.49,109.65c1.33-.57,2.52-1.53,3.95-1.83,.2,1.15,.21,2.32,.33,3.48,1.08-1.41,2.29-2.91,4.06-3.45,.92-.22,2.15-.21,2.69,.71,.62,.95,.07,2.32-.92,2.76-1.05,.41-1.93-.6-2.97-.52-1.55,.02-2.65,1.57-2.82,3-.02,2.86,0,5.73,0,8.59-.05,.49,.17,.93,.46,1.32,.93,.15,1.88,.07,2.82,.12,.01,.46,.01,.92,0,1.37-3.03-.1-6.07-.12-9.1,0-.02-.46-.02-.91,0-1.37,.9-.17,1.99,.25,2.77-.34,.27-1.04,.1-2.14,.16-3.2-.05-2.41,.11-4.83-.09-7.23-.1-1.36-1.56-1.7-2.48-2.35-.12-.65,.73-.76,1.14-1.06Z"></path><path class="f" d="M180.39,109.78c1.28-.61,2.5-1.34,3.82-1.86,.77,.8,.3,2.07,.52,3.07,1.39-1.73,3.45-2.98,5.69-3.14,1.45-.11,2.94,.47,3.9,1.56,.44,.48,.74,1.06,1.08,1.62,1.35-1.58,3.17-2.84,5.26-3.13,1.65-.21,3.54,.08,4.66,1.43,1.14,1.08,1.69,2.68,1.65,4.23,0,3.02,0,6.04,0,9.06,.01,.4-.02,.9,.41,1.09,.64,.16,1.32,.07,1.98,.15,0,.45,0,.91-.04,1.36-2.53-.16-5.06-.11-7.59,0-.03-.45-.04-.89-.03-1.34,.65-.08,1.31-.03,1.95-.15,.44-.38,.42-1.02,.45-1.54,.04-2.72,.03-5.44,.03-8.16-.02-1.21-.17-2.64-1.21-3.43-1.75-1.28-4.42-1.12-5.91,.5-.96,.93-1.14,2.36-1.15,3.63,0,2.64,0,5.27,0,7.91,0,.39,.03,.86,.4,1.08,.79,.16,1.6,.07,2.39,.14-.17,.43-.03,.98-.3,1.34-2.58-.08-5.18-.11-7.76,.02-.01-.46-.01-.93,0-1.39,.76-.17,1.97,.33,2.4-.49,.06-3.02,0-6.05,.02-9.07-.02-1.36-.18-2.95-1.3-3.89-.93-.62-2.09-.72-3.17-.6-1.98,.4-3.68,2.18-3.74,4.24-.06,2.79,0,5.58-.03,8.37,0,.46,0,1.13,.52,1.32,.7,.14,1.43,.05,2.15,.12,0,.43,.01,.86,.02,1.28-2.67,.08-5.36-.09-8.03,.08,0-.46,0-.92,0-1.38,.64-.03,1.28,0,1.92-.05,.52-.13,.5-.74,.51-1.17,.04-2.94,0-5.88,.02-8.83-.02-.55,.04-1.17-.34-1.63-.43-.72-1.37-.83-1.92-1.42-.18-.53,.37-.76,.74-.96Z"></path><path class="f" d="M213.6,110.22c1.61-1.43,3.72-2.32,5.88-2.38,1.28-.05,2.7,.17,3.61,1.15,.73,.69,.83,1.76,.83,2.71,0,2.87,0,5.75,0,8.62,.02,.97,.03,2.02,.63,2.84,.84,.29,1.71-.06,2.25-.73,.22,.21,.57,.35,.64,.68-.44,1.79-2.53,2.89-4.26,2.26-1.07-.41-1.68-1.49-1.91-2.56-1.69,1.79-4.19,2.97-6.69,2.7-.91-.11-1.6-.87-1.91-1.69-.53-1.68-.2-3.72,1.2-4.9,2.08-1.75,4.88-2.28,7.08-3.85,.07-1.29,.09-2.59-.11-3.87-.09-.78-.69-1.41-1.43-1.64-1.29-.41-2.78-.22-3.91,.54-.69,.49-.28,1.38-.28,2.07-.02,.82-.36,1.86-1.29,2.02-.56,.1-1.43,.29-1.71-.37-.44-1.35,.42-2.69,1.36-3.59Zm3.04,8.66c-1,.96-1.36,2.58-.75,3.83,.61,1.07,2.09,1.12,3.07,.56,.78-.42,1.64-.96,1.96-1.83,.09-1.72,.03-3.44,.03-5.17-1.46,.83-3.11,1.39-4.32,2.6Z"></path><path class="f" d="M273,110.38c1.99-1.88,4.85-2.88,7.58-2.45,1.08,.17,2.13,.81,2.61,1.82,.23,.54,.24,1.13,.27,1.71,.04,3.16-.03,6.31,.03,9.47,.11,.77,.08,1.73,.77,2.24,.8,.32,1.62-.16,2.14-.76,.24,.19,.45,.41,.63,.66-.43,1.86-2.71,3.03-4.45,2.21-.96-.43-1.45-1.45-1.73-2.41-1.36,1.29-3.03,2.3-4.9,2.61-1.06,.09-2.33,.24-3.1-.67-1.46-1.78-1-4.73,.84-6.09,2.07-1.58,4.68-2.18,6.85-3.61,0-1.37,.16-2.78-.18-4.12-.16-1.02-1.23-1.51-2.15-1.61-1.14-.11-2.41,.11-3.3,.86-.57,.76,.07,1.76-.22,2.62-.15,1.31-1.76,1.71-2.81,1.24-.47-1.35,.12-2.78,1.12-3.71Zm2.87,8.89c-.75,.98-.99,2.44-.36,3.54,.63,.98,2.02,1,2.96,.5,.83-.43,1.7-1,2.04-1.91,.08-1.71,0-3.42,.03-5.13-1.6,.93-3.5,1.51-4.68,3.01Z"></path><path class="f" d="M349.28,110.2c2.39-2.41,6.36-3.1,9.39-1.52,.9,.55,1.83,1.43,1.84,2.55-.07,1.15-1.52,1.6-2.41,1.05-1.2-.6-1.4-2.16-2.53-2.84-1-.53-2.23-.36-3.22,.1-1.4,.67-2.34,2.06-2.71,3.54-.72,2.61-.01,5.43,1.34,7.71,.71,1.21,1.87,2.21,3.27,2.51,2.18,.59,4.61-.04,6.17-1.69,.23,.3,.91,.7,.48,1.13-2.54,2.64-6.78,3.61-10.14,2.05-2.46-1.21-4.11-3.84-4.31-6.56-.26-2.91,.75-5.95,2.83-8.03Z"></path><path class="f" d="M389.16,108.13c1.83-.44,3.91-.48,5.57,.53,1.83,1.14,2.9,3.33,2.87,5.46-.38,.22-.8,.37-1.24,.33-3.29,0-6.58,0-9.86,0-.24,2.06-.1,4.28,1.05,6.07,.96,1.57,2.72,2.74,4.61,2.67,1.88,.04,3.78-.93,4.76-2.55,.18-.52,.7-.21,1.07-.12,0,.79-.51,1.43-.94,2.05-1.29,1.75-3.36,3.01-5.57,2.95-2.31,.02-4.84-.77-6.22-2.74-1.93-2.45-2.21-5.83-1.56-8.79,.66-2.7,2.69-5.21,5.48-5.88Zm.22,1.26c-1.51,.69-2.31,2.3-2.7,3.84,1.9,0,3.79,0,5.69,0,.51-.01,1.08,.05,1.53-.26,.27-1.02-.18-2.11-.77-2.94-.88-1.09-2.54-1.24-3.75-.65Z"></path><path class="f" d="M513.58,108.57c.66-.3,1.29-.75,2.04-.77,.1,.95,.13,1.9,.19,2.85,2.08-2.52,5.95-3.66,8.91-2.09,1.95,1.06,3.44,2.99,3.73,5.21,.2,1.85,.26,3.79-.36,5.57-.72,2.33-2.39,4.39-4.63,5.41-2.38,1.13-5.18,.95-7.61,.1,0,2.75,0,5.5,0,8.25-.01,.52,.03,1.06,.3,1.52,.88,.26,1.82,.04,2.73,.19,0,.46,0,.93,0,1.39-2.97-.09-5.95-.05-8.92-.01-.01-.46,0-.93,.07-1.38,.81-.11,1.66,.06,2.46-.16,.49-.43,.36-1.2,.43-1.79,.07-6.42,.03-12.84,.03-19.27,.1-1.01-.76-1.71-1.57-2.12-.45-.31-1.28-.47-1.09-1.19,1.02-.69,2.19-1.12,3.27-1.71Zm2.28,3.7c0,2.84,0,5.67,0,8.51,0,.64,.07,1.29,.36,1.87,.91,1.11,2.41,1.42,3.77,1.59,1.38,.17,2.9-.26,3.83-1.33,1.1-1.2,1.49-2.88,1.55-4.47,.09-2.15-.04-4.42-1.14-6.33-.8-1.41-2.34-2.47-4-2.4-1.8-.06-3.42,1.09-4.36,2.55Z"></path><path class="f" d="M563.5,108.17c2.07,.07,4.14,.13,6.21-.01,.05,.47,.05,.94,.04,1.41-1.02-.08-2.15,.2-2.59,1.22-2.05,3.82-3.66,7.86-5.43,11.8-1.42,3.19-2.78,6.41-4.22,9.59-.43,.89-.84,1.79-1.43,2.58-.82,1.15-2.48,1.65-3.78,1.07-1.19-.41-1.61-2.26-.49-2.99,.99-.76,2.22-.17,3.28,.07,.65-.03,.9-.73,1.19-1.2,.97-1.95,1.88-3.93,2.66-5.97-1.35-4.45-2.89-8.84-4.37-13.25-.35-.96-.62-2.06-1.48-2.7-.66-.32-1.42-.13-2.11-.25-.23-.41-.07-.93-.11-1.37,2.71,.11,5.43,.07,8.14,0,.01,.46,.01,.93-.01,1.39-.58,.07-1.71-.17-1.52,.76,.27,1.58,.84,3.09,1.27,4.63,.68,2.13,1.25,4.3,2.12,6.36,1.34-2.79,2.48-5.67,3.64-8.54,.32-.92,.9-1.93,.5-2.91-.4-.37-1.01-.22-1.49-.29-.03-.46-.03-.93-.02-1.39Z"></path><path class="f" d="M325.15,108.3c1.65-.13,3.31,.05,4.95-.13,.63-.17,.52,.59,.5,.96-.26,3.02-.08,6.05-.23,9.06,0,1.92,.46,4.23,2.35,5.17,2,.88,4.3-.25,5.47-1.93,.23-.42,.26-.91,.26-1.38-.01-2.94,0-5.89,0-8.83,0-.53-.13-1.14-.64-1.4-.63-.22-1.32-.21-1.97-.34,.08-.37-.15-.92,.16-1.2,1.82-.13,3.67,.07,5.49-.15-.12,4.29-.19,8.59-.08,12.88,.04,.68-.03,1.57,.67,1.97,.69,.31,1.45-.16,2.14-.07,.09,.31,.16,.62,.23,.94-1.44,.56-2.93,.99-4.39,1.5-.37,.15-.76,.16-1.15,.17-.23-.94-.26-1.91-.42-2.86-1.58,1.99-4.21,3.24-6.76,2.78-1.37-.28-2.4-1.35-3.1-2.5-.93-1.39-1.04-3.12-1.08-4.74-.02-2.4,.01-4.8-.01-7.2,.03-.47-.22-.95-.63-1.18-.57-.19-1.17-.23-1.75-.35,0-.4,0-.79,.01-1.18Z"></path><path class="f" d="M475.31,109.48c-.18-.32-.31-1.17,.25-1.2,1.69-.05,3.39,.03,5.08-.11,.05,.79,0,1.58-.04,2.38-.13,2.48,0,4.96-.13,7.43-.02,1.63,.16,3.46,1.36,4.68,1.06,1.21,3.01,1.3,4.37,.56,1.02-.61,2.23-1.39,2.32-2.7,.02-3.02,0-6.04,.01-9.06,0-.61-.12-1.43-.78-1.65-.63-.18-1.29-.15-1.91-.34,.03-.4,.06-.8,.12-1.19,1.65-.04,3.31,.07,4.96-.08,.16,.01,.48,.04,.64,.06,.17,.67-.11,1.37-.09,2.06-.08,3.33-.03,6.67-.03,10,.03,.81-.07,1.69,.37,2.42,.64,.68,1.64,.26,2.42,.1,.11,.34,.21,.68,.31,1.02-1.04,.43-2.12,.74-3.18,1.1-.77,.25-1.52,.57-2.33,.63-.29-.96-.33-1.96-.49-2.94-1.51,2.02-4.16,3.22-6.67,2.82-1.39-.24-2.44-1.31-3.15-2.47-.73-1.07-.97-2.37-1.04-3.63-.13-2.89,.06-5.8-.1-8.68-.14-1.1-1.46-.96-2.26-1.2Z"></path></g><g><path class="f" d="M208.48,218.79c7.45-5.13,16.97-6.83,25.82-5.21,4.39,.79,8.65,2.33,12.54,4.53,.54,.3,1.11,.52,1.69,.73,.52-1.26,.77-2.61,1.24-3.89,.65-.01,1.3,0,1.96,.03,.55,6.84,1.57,13.64,2.61,20.42-.79,.35-1.62,.59-2.45,.76-1.48-3.35-3.03-6.7-5.27-9.62-2.87-3.77-6.56-7.08-11.03-8.81-4.47-1.76-9.48-1.87-14.12-.73-4.43,1.06-8.41,3.73-11.22,7.3-3,3.8-4.82,8.43-5.69,13.17-1.89,9.82,.17,20.38,5.77,28.68,2.65,3.72,5.91,7.17,10.03,9.26,3.34,1.72,7.16,2.06,10.86,2,8.09,.11,16.05-3.58,21.43-9.57,.92-.86,1.45-2.14,2.5-2.84,.7,.44,1.33,1,1.87,1.63-3.88,5.6-8.96,10.53-15.23,13.36-7.03,3.27-15.14,3.52-22.63,1.87-5-1.06-9.68-3.48-13.55-6.8-4.27-3.51-7.07-8.49-8.87-13.64-3.29-9.54-3.25-20.41,1.03-29.64,2.41-5.12,6-9.79,10.71-13Z"></path><path class="f" d="M366.2,231.85c.34-1.06,2.23-.9,2.06,.36-.03,3.23-.2,6.47-.42,9.69,4.63,.04,9.26-.03,13.88,.04-.12,1.65-.76,3.2-1.22,4.78-4.3,.2-8.61,.03-12.91,.09-.19,7.8-.26,15.59-.19,23.39,.02,2.34,.43,4.9,2.14,6.64,1.68,1.66,4.23,1.09,6.33,.82,1.26-.12,2.35-1.01,3.6-1.01,.39,.53,.67,1.13,.99,1.71-2.77,2.75-6.73,4.16-10.59,4.19-3.61,.24-6.97-2.09-8.78-5.08-1.15-1.85-.78-4.11-.78-6.17,.26-8.16,.15-16.33,.4-24.49-2.07-.05-4.14,.11-6.2-.07-1.12-.02-1.37-1.65-.36-2.08,2.53-1.5,4.63-3.6,6.67-5.7,2.04-2.16,4.07-4.4,5.38-7.09Z"></path><path class="f" d="M445.94,241.34c1.6-.82,3.48-1.12,5.24-.73,1.72,.33,3.18,1.88,3.25,3.66,.23,2.47-1.91,5.26-4.55,4.86-1.59-.09-2.84-1.34-4.44-1.38-4.06-.49-7.24,3.61-7.37,7.37,0,6.51-.02,13.02,0,19.53,.1,1.11,0,2.51,1.03,3.23,2.09,.86,4.42,.07,6.59,.53,.3,1.05,.11,2.16,.11,3.23-4.28-.05-8.55-.38-12.83-.25-2.89-.05-5.77,.33-8.66,.21-.03-.96-.12-1.92,0-2.88,.24-.58,1.04-.36,1.55-.45,1.6-.05,3.26,.21,4.81-.38,.26-.54,.53-1.09,.49-1.7,.1-6.9,.03-13.8,.05-20.7,.01-1.84-.14-3.97-1.57-5.31-1.29-1.13-2.91-1.77-4.42-2.55,.08-.56-.14-1.36,.56-1.6,2.36-1.3,4.8-2.46,7.18-3.72,1.3-.64,2.54-1.48,4-1.72,1.03,2.49,.41,5.33,.88,7.95,.08,.03,.25,.09,.33,.11,2.07-2.9,4.52-5.69,7.76-7.31Z"></path><path class="f" d="M274.29,242.54c3.88-1.83,8.39-2.27,12.59-1.5,6.13,1.24,10.29,7.32,10.6,13.33,.24,1.16-1.02,1.77-1.99,1.69-8.03,.05-16.07,0-24.1,.02-.61,4.53-.33,9.35,1.79,13.48,1.74,3.46,4.88,6.38,8.73,7.22,5.6,1.37,11.92-1.51,14.49-6.68,.78,.15,1.48,.53,2.16,.92-.75,2.56-2.35,4.78-4.18,6.68-2.83,2.92-6.78,4.92-10.9,4.84-4.38,.16-8.96-.85-12.45-3.61-2.19-1.72-3.66-4.14-4.91-6.59-2.04-4.16-2.25-8.93-2.03-13.47,.5-6.64,4.16-13.24,10.2-16.32Zm1.07,3.74c-1.88,1.9-2.82,4.47-3.63,6.96,5.05,.02,10.1,.04,15.15,0,.86-.03,2.33-.29,2.16-1.46-.11-2.86-1.28-6-3.91-7.44-3.21-1.67-7.37-.65-9.77,1.95Z"></path><path class="f" d="M316.02,241.5c.75-.38,1.5-.93,2.4-.8,.7,2.27,.73,4.72,1.03,7.07,3.78-4.36,9.46-7.79,15.43-6.99,2.66,.36,5.43,1.24,7.3,3.27,1.48,1.63,2.62,3.57,3.33,5.65,.44,1.51,.34,3.11,.35,4.67,0,6.39,0,12.78,0,19.16,.03,1.45-.21,2.98,.49,4.32,1.83,.73,3.82,.14,5.69,.65,.02,.93,.11,1.87-.06,2.8-.35,.58-1.13,.32-1.67,.35-5.26-.37-10.56-.38-15.82,.02-.52,.01-1.44,.16-1.47-.6-.06-1.03-.51-2.99,1.13-2.77,1.57-.16,4.45,.62,4.64-1.71,.53-6.89,.21-13.82,.3-20.73-.03-2.72,.15-5.88-1.86-8.02-2.22-2.35-5.71-2.79-8.78-2.48-2.83,.5-5.48,2.02-7.26,4.29-1.71,2.31-1.81,5.33-1.74,8.09,0,5.9,0,11.79,0,17.69-.03,.86,.24,1.69,.54,2.48,1.61,.56,3.32,.27,4.98,.46,.16,1.07,.19,2.16,.03,3.23-2.98,.07-5.96-.32-8.94-.23-2.89-.07-5.77,.27-8.65,.26-.65-.87-.19-2.19-.25-3.24,1.69-.24,3.45,.08,5.11-.44,.62-1.13,.41-2.45,.45-3.68,0-6.51,0-13.01,0-19.52,.04-1.7-.42-3.54-1.71-4.72-1.1-1.06-2.56-1.59-3.83-2.4,.12-.53,0-1.25,.58-1.54,2.72-1.56,5.49-3.05,8.22-4.6Z"></path><path class="f" d="M390.93,245.1c3.33-3.22,8.1-4.49,12.64-4.41,3.52-.13,7.15,1.09,9.67,3.59,2.69,2.66,4.34,6.35,4.57,10.11,.18,1.19-1.11,1.78-2.1,1.68-8,.05-16,0-23.99,.02-.4,3.93-.46,8.05,1.03,11.77,1.36,3.63,4.05,6.89,7.7,8.37,5.96,2.48,13.45-.4,16.32-6.17,.74,.24,1.54,.48,2.08,1.11-1.92,5.51-6.82,10.1-12.62,11.18-4.85,.59-10.09-.08-14.18-2.92-2.59-1.75-4.28-4.48-5.65-7.22-1.89-3.9-2.12-8.34-1.99-12.6,.22-5.43,2.47-10.84,6.54-14.51Zm5.21,.72c-2.11,1.96-3.34,4.67-4,7.43,5.07-.02,10.15,.05,15.22-.03,.7-.09,1.86-.17,1.95-1.08,.06-3.01-1.16-6.38-3.96-7.85-3-1.51-6.8-.68-9.22,1.54Z"></path></g><g><path class="f" d="M470.03,137.33c.87-.51,1.92-1.27,2.95-.67,.09,.42,.14,.83,.12,1.26-.47,19.34-.39,38.69-.35,58.03,.08,1.17-.03,2.58,.92,3.45,2.09,.93,4.45,.08,6.63,.62,.06,1.04,.07,2.09-.09,3.13-4.91-.19-9.83-.4-14.74-.25-2.34,.01-4.68,.27-7.02,.22-.13-1.05-.13-2.11-.04-3.16,1.95-.27,3.92-.01,5.88-.18,1.11-.15,1.8-1.3,1.67-2.36,.14-14.72,.17-29.45-.03-44.17-.03-2.17,.07-4.63-1.41-6.39-1.47-1.68-3.83-1.89-5.72-2.86,.03-.31,.11-.92,.14-1.22,3.73-1.74,7.6-3.24,11.1-5.45Z"></path><path class="f" d="M493.66,138.1c1.34-.73,2.61-1.91,4.26-1.61,.22,2.67-.04,5.35,0,8.02-.35,17.15-.39,34.31-.23,51.46,.11,1.22-.08,2.99,1.26,3.6,1.98,.67,4.13-.07,6.14,.46,.33,.96,.22,2.03,.02,3.01-.95,.24-1.93,.02-2.88,.01-6.18-.36-12.37-.15-18.55,.08-.88-.78-.33-2.12-.35-3.14,1.96-.31,3.95,0,5.92-.21,1.31-.17,1.72-1.58,1.67-2.71,.12-8.15,.08-16.3,.1-24.46-.02-7.43,.05-14.88-.31-22.31-.02-1.72-.86-3.45-2.34-4.37-1.42-.87-3.09-1.21-4.61-1.87,0-.3-.02-.9-.03-1.2,3.31-1.6,6.76-2.91,9.94-4.76Z"></path><path class="f" d="M145.17,137.65c2.13-.17,4.26,.08,6.39,.09,6.77,.2,13.54-.04,20.31-.13,.03,1.13,.19,2.28-.07,3.4-2.12,.32-4.3-.09-6.42,.22-.88,.12-1.72,.65-2.02,1.51-.57,1.74-.43,3.61-.49,5.41-.05,6.08-.19,12.16-.14,18.24-.13,.94,.99,.72,1.58,.79,11.33-.01,22.66,.01,33.98-.01,.42-.07,1.09,.04,1.3-.44,.17-.58,.15-1.2,.16-1.8-.05-6.8-.2-13.61-.29-20.41,.03-1.33-.54-3.03-2.04-3.28-2.08-.34-4.2,.05-6.29-.22-.28-1.11-.12-2.28-.09-3.41,6.54,.06,13.08,.35,19.62,.1,1.85-.04,3.71-.19,5.56-.09,.06,1.14,.06,2.28,.02,3.42-2.03,.24-4.12-.17-6.12,.28-1.77,.57-1.64,2.8-1.71,4.3-.23,16.67-.23,33.34,.13,50.01,.03,1.49,.5,3.35,2.16,3.76,2.08,.32,4.19,.05,6.29,.18,.11,1.18,.11,2.38,0,3.56-.89,.04-1.77,.03-2.66-.01-5.85-.32-11.71-.3-17.56-.13-2.08,.05-4.15,.26-6.23,.13-.03-1.14-.2-2.31,.08-3.43,2.37-.39,4.83,.07,7.22-.24,1.14-.34,1.59-1.64,1.6-2.72,.15-7.67,.22-15.35,.3-23.02,.02-.98-.02-1.96-.13-2.93-1.53-.32-3.1-.21-4.64-.22-9.62,0-19.25,0-28.87,0-1.14,.02-2.34-.18-3.38,.39-.03,8.35,.06,16.69,.16,25.04,0,1.32,.32,3.07,1.83,3.44,2.08,.26,4.19,.04,6.28,.13,.21,1.18,.23,2.41,0,3.59-7.7-.24-15.41-.47-23.1-.02-.84-.03-1.77,.24-2.54-.18-.14-1.11-.07-2.24,.03-3.35,2.16-.13,4.32,.03,6.48-.09,1.18-.08,1.89-1.32,1.99-2.39,.19-2.19,.12-4.4,.18-6.6,.06-6.82,.21-13.64,.24-20.46,.03-8.04-.17-16.07-.24-24.1-.05-1.55-.06-3.58-1.65-4.39-2.31-.83-4.81-.23-7.2-.48-.05-1.14-.06-2.28,.01-3.42Z"></path><path class="f" d="M277.35,163.6c.54-.23,1.29-.56,1.82-.15,.27,2.05,.27,4.15,.61,6.2,4.66-5.73,13.41-8.21,20.12-4.77,4.25,2.26,7.62,6.35,8.46,11.16,1.16,6.19,.61,12.94-2.71,18.42-2.96,5.08-8.3,8.79-14.19,9.43-3.91,.3-7.93,.05-11.62-1.35-.04,6.45,0,12.91-.01,19.36,.04,1.03-.07,2.43,1.07,2.92,1.93,.3,3.9-.09,5.82,.27,.01,.99,.12,1.99-.1,2.97-1.39,.32-2.83,.02-4.24,.05-5.35-.28-10.7,.06-16.04,.05-.06-1.03-.06-2.06-.01-3.08,1.65-.26,3.31-.07,4.97-.17,.7,0,1.26-.59,1.4-1.24,.52-2,.35-4.1,.42-6.15,.05-13.5,0-27.01,.03-40.52,.03-1.1-.07-2.26-.78-3.16-1.35-1.8-3.64-2.42-5.37-3.76,.15-.51-.09-1.33,.53-1.57,3.27-1.64,6.54-3.3,9.83-4.9Zm10.25,4.16c-3.15,.68-5.93,2.74-7.62,5.46-.24,.49-.12,1.06-.16,1.59,.02,6.2,0,12.4,.01,18.6,.01,1.58-.04,3.38,1.18,4.58,1.75,1.63,4.09,2.55,6.43,2.88,2.84,.44,5.97,.48,8.48-1.14,3.48-2.16,5.05-6.34,5.45-10.25,.6-3.47,.21-7.01-.35-10.46-.8-3.85-2.57-7.84-6.05-9.96-2.17-1.4-4.87-1.72-7.38-1.28Z"></path><path class="f" d="M240.39,163.67c5.29-1.15,10.91,.57,15.14,3.83,4.06,3.37,6.88,8.29,7.43,13.56,1.24,8.82-4.38,17.7-12.36,21.28-5.14,2.36-11.34,2.22-16.37-.36-3.88-1.89-6.79-5.36-8.73-9.15-1.86-3.79-1.92-8.15-1.65-12.27,1.28-8.34,8.35-15.25,16.55-16.89Zm.72,2.6c-2.74,.36-4.85,2.37-6.45,4.47-2.15,2.71-3.07,6.17-3.32,9.56-.16,4.3-.31,8.8,1.5,12.81,1.28,2.73,3.03,5.47,5.74,6.96,2.96,1.52,6.77,1.76,9.66-.05,2.74-1.73,4.47-4.65,5.56-7.63,1.5-4.32,1.93-9.03,1.18-13.54-.88-4.46-3.41-8.69-7.24-11.21-1.93-1.28-4.35-1.99-6.64-1.39Z"></path><path class="f" d="M328.43,163.98c4.01-.95,8.49-1.1,12.23,.86,3.9,2.11,6.38,6.32,7.01,10.64,.06,.75,.31,1.63-.22,2.27-.57,.57-1.45,.49-2.19,.54-7.61,.01-15.22-.01-22.84,.01-.5,4.34-.37,8.96,1.66,12.93,1.58,3.25,4.4,6.01,7.93,7.03,4.46,1.31,9.57-.16,12.73-3.53,.79-.81,1.31-1.81,1.97-2.72,.84-.16,1.46,.51,2.12,.91-2.21,6.14-8.18,11.25-14.92,11.08-4.83,.13-10-1.26-13.36-4.92-3-3.48-4.95-7.91-5.16-12.53-.63-5.96,.51-12.38,4.48-17.05,2.19-2.65,5.15-4.75,8.54-5.51Zm-1.5,4.16c-2.16,1.91-3.41,4.63-4.08,7.39,4.79,0,9.58,.01,14.37,0,.82-.09,2.12-.03,2.32-1.08,.04-2.84-1.05-6.01-3.62-7.5-2.85-1.59-6.58-.89-8.99,1.2Z"></path><path class="f" d="M428.7,166.25c3.21-2.26,7.25-3.03,11.11-2.92,3.65-.04,7.33,1.52,9.69,4.33,2.11,2.49,3.42,5.69,3.64,8.95,.23,1.19-1.08,1.74-2.06,1.66-7.79,.04-15.57,0-23.35,.01-.47,4.56-.29,9.4,1.99,13.49,1.82,3.39,5.09,6.14,8.95,6.76,5.29,.96,10.98-1.84,13.44-6.64,.72,.15,1.37,.49,2.01,.84-.34,1.82-1.44,3.35-2.5,4.82-2.86,3.75-7.34,6.53-12.17,6.42-4.92,.17-10.21-1.25-13.61-5-3.06-3.58-4.98-8.16-5.13-12.89-.1-2.8-.23-5.66,.53-8.39,.98-4.56,3.68-8.73,7.47-11.45Zm3.44,2.02c-2.11,1.89-3.24,4.59-4,7.26,4.87-.01,9.74,.02,14.61-.01,.87,.04,1.68-.31,2.28-.92-.2-2.76-1.02-5.79-3.41-7.44-2.92-1.88-6.99-1.18-9.48,1.12Z"></path><path class="f" d="M352.57,164.33c.51-.06,1.03-.1,1.56-.07,4.84,.39,9.72,.36,14.56-.03,.43,.03,1.21-.16,1.27,.48,.12,.93,.04,1.87-.05,2.8-1.1,.02-2.94-.12-2.78,1.5,1.04,4.32,2.51,8.53,3.71,12.82,1.35,4.29,2.45,8.67,3.96,12.91,3.16-7.15,6.03-14.43,9.12-21.61,.8-1.46,.35-3.55-.94-4.58-1.16-.52-2.51-.26-3.74-.35-.26-1.02-.57-2.34,.09-3.24,2.4-.18,4.84,.25,7.27,.18,3.1,.11,6.19-.18,9.28-.27,.18,1.09,.2,2.22-.05,3.3-1.07,.05-2.15,.06-3.21,.16-.4,.64-.87,1.37-.51,2.15,1.99,6.43,4.01,12.84,6.02,19.26,.36,1.16,.69,2.32,1.18,3.44,2.55-6.37,4.76-12.87,7.19-19.29,.57-1.65,1.43-3.42,.86-5.18-.58-1.44-2.29-1.05-3.51-1.14-.16-1.09-.16-2.21,.04-3.3,3.84,.18,7.68,.44,11.52,.18,1.13-.09,2.27-.27,3.4-.09,.03,1.06,.02,2.12-.03,3.18-2.12,.09-4.99-.32-6.07,2.04-4.6,10.47-8.74,21.14-13.04,31.74-.53,1.11-.72,2.7-2.12,3.05-1.15,.13-1.77-1.07-2.08-1.98-2.64-7.65-5.27-15.31-7.9-22.97-.4-1.14-.72-2.32-1.32-3.38-4.03,8.91-7.68,17.98-11.61,26.94-.34,.8-1.21,1.5-2.11,1.37-.91-.45-1.16-1.49-1.5-2.34-3.96-10.62-7.91-21.25-11.87-31.87-.36-1.07-1.13-2.1-2.27-2.36-1.4-.26-2.84-.1-4.25-.2-.07-1.07-.07-2.13-.04-3.2Z"></path></g></svg> 