<?xml version="1.0" encoding="utf-8"?>
<!-- Generator: Adobe Illustrator 22.0.1, SVG Export Plug-In . SVG Version: 6.00 Build 0)  -->
<svg version="1.1" id="Layer_1" xmlns="http://www.w3.org/2000/svg" xmlns:xlink="http://www.w3.org/1999/xlink" x="0px" y="0px"
	 viewBox="0 0 215 99" style="enable-background:new 0 0 215 99;" xml:space="preserve">
<style type="text/css">
	.st0{fill:#183D6E;}
	.st1{fill:#FFFFFF;}
</style>
<g>
	<path class="st0" d="M51.5,18.3c0.2,0.6,0.8,0.9,1.5,0.9c0.7,0.1,1.3,0,1.9,0.1c1.6,0.3,2.8,1.9,4.4,2.1c1.5,0.3,3.1-0.6,4.4,0.3
		c0.6,0.4,0.9,1,1.5,1.5c1.7,1.6,4.4,0.7,6.7,0.7c1.4,0.1,2.8,0.6,4.3,0.7c2,0.3,3.9,0,6-0.2c4-0.3,8.2,0.3,11.6,2.6
		c0.1,3.9,0.7,7.9,0.8,11.9c0,0.9,0.1,1.9,0.4,2.7c0.5,1,1.3,1.9,1.9,2.8c1.5,2.2,1.6,5.1,1.3,7.8c-0.3,2.7-1,5.3-0.9,8
		c0,1,0.1,2.1-0.7,2.8c-0.4,0.3-0.8,0.5-1.4,0.6c-1.9,0.5-3.6,1.3-5.2,2.4c-2.6,1.9-4.7,4.4-7.3,6.2c-3.1,2.1-6.9,3-9.3,5.7
		c-2.4,2.7-2.9,6.6-3,10.3c0,2.7,0.2,5.6,1.8,7.8c0.4,0.5,0.7,0.9,0.7,1.5c-0.2,0.9-1.5,0.9-2.4,0.7c-2.9-0.7-6.4-1-9.2-2.1
		c-3-1.1-5.4-3-6.8-5.9c-1.2-2.6-0.8-6-2.7-8.1c-0.8-1-1.8-2.1-2.7-3.1c-2.7-2.7-3.4-6.9-5.4-10.2c-2.2-3.6-6.2-5.9-10.3-6.3
		c-0.7-0.1-1.4-0.1-2,0.3c-0.6,0.3-0.9,0.7-1.3,1.3c-1,1.8-1.4,4.2-3.3,5.2c-1.8,1-4,0-5.8-1.1c-1.4-0.9-2.8-2-4.1-3
		c-1-0.8-2.1-1.8-2.4-3.1c-0.3-0.9-0.2-1.9-0.3-2.9c-0.1-2.2-1.1-4.5-2.7-6.2c-2-2.1-4.8-3.6-6.6-5.8c-1.2-1.3-2.2-2.8-3.3-4.2
		c-0.8-1.1-1.8-2.5-1.3-3.9l26,0.4V0.5h25.4v18.2"/>
	<path class="st1" d="M67.5,29.2c1.8,0.7,3.6,1.3,5.1,2.4c1.6,1.1,2.8,2.7,3.2,4.6c0.2,1,0.3,2.1,0.3,3.2c0,0.8-0.1,1.7-0.2,2.5
		c-0.2,3-2.2,5.5-4.2,7.8c-0.6,0.7-1.1,1.2-1.8,1.6c-0.7,0.4-1.3,0.6-2.1,0.7c-2.1,0.4-4.1,0.5-6.2,0.1c-0.6-0.1-1.2-0.3-1.7-0.7
		c-1-0.8-1.2-2.4-1-3.7s0.1-2.9,0-4.2c-0.7-6.5-29.2-15.8-29.2-15.8V15.8L67.5,29.2z"/>
	<path class="st1" d="M77.7,33.5c-0.3,0-0.6,0-0.7,0.2c-0.1,0.1-0.2,0.3-0.2,0.5c-0.1,0.7,0,1.3,0.1,2c0.4,2.4,1.2,3.8,1,7.2
		c0,0.8,0.3,1.6,0.6,2.3c0.6,1.3,1.7,2.3,3.1,2.7c0.5,0.1,1,0.2,1.4-0.1c0.4-0.3,0.6-0.7,0.7-1.2c0.7-2.2,1-4.5,0.7-6.8
		C83.7,36.9,81.4,33.8,77.7,33.5z"/>
	<path class="st1" d="M48.7,60c-0.1,0.9,0,2,0.4,2.9c0.2,0.5,0.5,0.8,0.7,1.2c0.7,1.4,0,3.1-0.2,4.6c-0.4,2.2-0.4,4.4-0.4,6.7
		c0,0.8,0.2,1.9,0.7,2.4c0.2,0.2,0.5,0.4,0.7,0.3c0.4-0.1,0.6-0.5,0.7-0.8c0.6-2.1,0.8-4.2,1.3-6.3c0.5-2.1,1.2-4.1,2.6-5.8
		c0.3-0.4,0.7-0.7,0.8-1.1c0.2-0.5,0.1-0.9,0-1.3c-0.7-2.1-2.9-3.2-3.5-5.2c-0.3-1.2-0.7-3.2-2.2-1.8C49.2,56.8,48.8,58.4,48.7,60z"
		/>
	<path class="st1" d="M55.7,54.2c-0.8,0.7-1.4,1.8-1.4,2.8c0.1,2.2,2.1,3.8,3,5.9c0.4,0.9,0.5,1.9,0.7,2.8
		c0.6,5.5,0.2,11.2-1.1,16.6c-0.5,1.9-1,3.6-1.2,5.6c-0.1,0.8-0.1,1.7,0.4,2.3c0.4,0.6,1,0.9,1.6,1.2c1.8,0.9,3.6,1.8,5.2,2.7
		c0.4,0.2,0.7,0.4,1.1,0.3c0.6-0.2,0.7-0.7,0.9-1.3c1.9-6.1,3.6-12.2,5.1-18.4c1.6-6.3,3-12.7,2.6-19.1c0-0.5-0.1-1-0.5-1.3
		c-0.3-0.2-0.7-0.2-1.1-0.2c-2.9,0.2-5.8,0.2-8.6-0.1C60.4,54,57.5,52.8,55.7,54.2z"/>
	<g>
		<path class="st1" d="M44,11.2h-3.3l-0.4,0.9c-0.1,0.3-0.2,0.6-0.2,0.7c0,0.3,0.1,0.5,0.3,0.6c0.1,0.1,0.4,0.1,0.9,0.2v0.2h-3.1
			v-0.3c0.4-0.1,0.6-0.2,0.8-0.4c0.2-0.2,0.5-0.7,0.7-1.4l3.3-7.3h0.1l3.3,7.5c0.3,0.7,0.6,1.1,0.7,1.3c0.2,0.1,0.4,0.2,0.7,0.3v0.3
			h-4.4v-0.3h0.2c0.4,0,0.6-0.1,0.7-0.2c0.1-0.1,0.2-0.2,0.2-0.3c0-0.1,0-0.2,0-0.3c0,0-0.1-0.2-0.2-0.5L44,11.2z M43.8,10.7
			l-1.4-3.2L41,10.7H43.8z"/>
		<path class="st0" d="M68.9,10.7l2.5-6h3.7V5h-0.3c-0.3,0-0.5,0.1-0.7,0.2c-0.1,0.1-0.2,0.2-0.3,0.3c-0.1,0.1-0.1,0.4-0.1,0.8v6
			c0,0.5,0,0.7,0.1,0.8c0.1,0.1,0.2,0.2,0.3,0.3c0.2,0.1,0.4,0.1,0.7,0.1h0.3v0.3h-4.8v-0.3h0.3c0.3,0,0.5-0.1,0.7-0.2
			c0.1-0.1,0.2-0.2,0.3-0.3c0.1-0.1,0.1-0.4,0.1-0.8V5.5l-3.6,8.3H68l-3.6-8.2V12c0,0.5,0,0.7,0,0.8c0.1,0.2,0.2,0.4,0.4,0.6
			c0.2,0.2,0.5,0.2,0.9,0.2v0.2h-3.1v-0.3h0.1c0.2,0,0.4,0,0.6-0.1c0.2-0.1,0.3-0.2,0.4-0.3c0.1-0.1,0.2-0.3,0.2-0.5
			c0-0.1,0-0.3,0-0.7V6.2c0-0.5,0-0.7-0.1-0.8s-0.2-0.2-0.3-0.3C63.3,5,63.1,5,62.8,5h-0.3V4.7h3.7L68.9,10.7z"/>
		<path class="st0" d="M95.1,11.2h-3.3l-0.4,0.9c-0.1,0.3-0.2,0.6-0.2,0.7c0,0.3,0.1,0.5,0.3,0.6c0.1,0.1,0.4,0.1,0.9,0.2v0.2h-3.1
			v-0.3c0.4-0.1,0.6-0.2,0.8-0.4c0.2-0.2,0.5-0.7,0.7-1.4l3.3-7.3h0.1l3.3,7.5c0.3,0.7,0.6,1.1,0.7,1.3c0.2,0.1,0.4,0.2,0.7,0.3v0.3
			h-4.4v-0.3h0.2c0.4,0,0.6-0.1,0.7-0.2c0.1-0.1,0.2-0.2,0.2-0.3c0-0.1,0-0.2,0-0.3c0,0-0.1-0.2-0.2-0.5L95.1,11.2z M95,10.7
			l-1.4-3.2l-1.4,3.2H95z"/>
		<path class="st0" d="M117.1,9.7v2.5c0,0.5,0,0.8,0.1,0.9c0.1,0.1,0.2,0.2,0.3,0.3c0.2,0.1,0.5,0.1,0.8,0.1v0.3h-4.7v-0.3
			c0.5,0,0.7,0,0.8-0.1c0.2-0.1,0.3-0.2,0.3-0.3c0.1-0.1,0.1-0.5,0.1-0.9V6.3c0-0.5,0-0.8-0.1-0.9c-0.1-0.1-0.2-0.2-0.3-0.3
			C114.3,5,114,5,113.6,5V4.7h4.2c1.1,0,1.9,0.1,2.4,0.2c0.5,0.2,0.9,0.5,1.2,0.8c0.3,0.4,0.5,0.9,0.5,1.4c0,0.7-0.3,1.2-0.7,1.7
			c-0.3,0.3-0.7,0.5-1.3,0.7l2.1,3.1c0.3,0.4,0.5,0.7,0.7,0.7c0.2,0.1,0.4,0.2,0.7,0.2v0.3h-2.9l-2.9-4.2L117.1,9.7L117.1,9.7z
			 M117.1,5.2v4h0.4c0.7,0,1.1-0.1,1.4-0.2c0.3-0.1,0.6-0.3,0.7-0.7c0.2-0.3,0.3-0.7,0.3-1.2c0-0.7-0.2-1.2-0.5-1.5
			c-0.3-0.4-0.8-0.5-1.6-0.5C117.8,5.2,117.1,5.2,117.1,5.2z"/>
		<path class="st0" d="M142.5,13.6v0.2h-4.8v-0.3h0.3c0.3,0,0.5-0.1,0.7-0.2c0.1-0.1,0.2-0.2,0.3-0.3c0.1-0.1,0.1-0.4,0.1-0.8v-6
			c0-0.5,0-0.7-0.1-0.8s-0.2-0.2-0.3-0.3C138.5,5,138.3,5,138,5h-0.3V4.7h4.8V5h-0.3c-0.3,0-0.5,0.1-0.7,0.2
			c-0.1,0.1-0.2,0.2-0.3,0.3c-0.1,0.1-0.1,0.4-0.1,0.8v6c0,0.5,0,0.7,0.1,0.8c0.1,0.1,0.2,0.2,0.3,0.3c0.2,0.1,0.4,0.1,0.7,0.1
			L142.5,13.6L142.5,13.6z"/>
		<path class="st0" d="M165.6,10.6l-0.3,3.2h-8.1v-0.3h0.3c0.3,0,0.5-0.1,0.7-0.2c0.1-0.1,0.2-0.2,0.3-0.3c0.1-0.1,0.1-0.4,0.1-0.8
			v-6c0-0.5,0-0.7-0.1-0.8s-0.2-0.2-0.3-0.3C157.9,5,157.7,5,157.5,5h-0.3V4.7h4.9V5h-0.4c-0.3,0-0.5,0.1-0.7,0.2
			c-0.1,0.1-0.2,0.2-0.3,0.3c-0.1,0.1-0.1,0.4-0.1,0.8v5.8c0,0.5,0,0.7,0.1,0.9c0.1,0.1,0.2,0.2,0.3,0.3c0.1,0,0.4,0.1,0.8,0.1h0.7
			c0.5,0,0.9-0.1,1.2-0.3c0.3-0.2,0.6-0.5,0.8-0.8c0.3-0.4,0.5-0.9,0.7-1.6L165.6,10.6L165.6,10.6z"/>
		<path class="st0" d="M188.8,10.6l-0.4,3.2h-8.1v-0.3h0.3c0.3,0,0.5-0.1,0.7-0.2c0.1-0.1,0.2-0.2,0.3-0.3c0.1-0.1,0.1-0.4,0.1-0.8
			v-6c0-0.5,0-0.7-0.1-0.8s-0.2-0.2-0.3-0.3C181.1,5,180.9,5,180.6,5h-0.3V4.7h4.9V5h-0.3c-0.3,0-0.5,0.1-0.7,0.2
			c-0.1,0.1-0.2,0.2-0.3,0.3c-0.1,0.1-0.1,0.4-0.1,0.8v5.8c0,0.5,0,0.7,0.1,0.9c0.1,0.1,0.2,0.2,0.3,0.3c0.1,0,0.4,0.1,0.8,0.1h0.7
			c0.5,0,0.9-0.1,1.2-0.3c0.3-0.2,0.6-0.5,0.8-0.8c0.3-0.4,0.5-0.9,0.7-1.6L188.8,10.6L188.8,10.6z"/>
		<path class="st0" d="M208.7,4.6c1.5-0.1,2.6,0.4,3.6,1.3s1.4,2.1,1.4,3.4c0,1.1-0.4,2.1-1,3.1c-0.9,1.2-2.1,1.8-3.8,1.8
			c-1.7,0-2.9-0.6-3.8-1.7c-0.7-0.8-1-2-1-3.2c0-1.4,0.5-2.5,1.4-3.4C206.3,4.9,207.4,4.6,208.7,4.6z M208.8,5
			c-0.8,0-1.5,0.5-1.9,1.3c-0.4,0.7-0.6,1.7-0.6,3c0,1.6,0.3,2.7,0.8,3.5c0.4,0.6,0.9,0.7,1.6,0.7c0.5,0,0.8-0.1,1.1-0.4
			c0.4-0.3,0.7-0.7,0.9-1.4c0.2-0.7,0.4-1.5,0.4-2.4c0-1.2-0.1-2.1-0.4-2.7c-0.3-0.6-0.5-1-0.8-1.3C209.7,5.1,209.3,5,208.8,5z"/>
	</g>
	<g>
		<path class="st0" d="M121.3,38.3c0.8,0.2,1.4,0.5,1.8,0.8c0.6,0.6,0.8,1.1,0.8,2c0,0.6-0.2,1.1-0.6,1.7c-0.4,0.6-0.8,0.9-1.5,1.1
			c-0.7,0.3-1.6,0.4-2.9,0.4h-5.5V44h0.5c0.5,0,0.8-0.2,1-0.5c0.1-0.2,0.2-0.7,0.2-1.3v-7.5c0-0.7-0.1-1.2-0.3-1.4
			c-0.2-0.3-0.6-0.4-1-0.4h-0.5v-0.3h5c0.9,0,1.7,0.1,2.2,0.2c0.8,0.2,1.5,0.6,2,1.1c0.5,0.6,0.7,1.1,0.7,1.8c0,0.6-0.2,1.1-0.6,1.6
			C122.4,37.7,121.9,38,121.3,38.3z M116.8,37.8c0.2,0,0.5,0.1,0.7,0.1s0.6,0,0.9,0c0.8,0,1.5-0.1,1.9-0.3c0.4-0.2,0.7-0.5,0.9-0.8
			c0.2-0.4,0.4-0.7,0.4-1.2c0-0.7-0.3-1.2-0.8-1.8c-0.6-0.6-1.4-0.7-2.4-0.7c-0.6,0-1.1,0.1-1.5,0.2L116.8,37.8L116.8,37.8z
			 M116.8,43.3c0.7,0.2,1.3,0.2,2,0.2c1,0,1.8-0.2,2.3-0.7c0.6-0.5,0.8-1,0.8-1.7c0-0.5-0.1-0.8-0.4-1.3c-0.3-0.4-0.7-0.7-1.2-1
			c-0.6-0.3-1.2-0.4-2.1-0.4c-0.4,0-0.7,0-0.9,0s-0.5,0-0.6,0.1V43.3z"/>
		<path class="st0" d="M130.5,36.1c1.2,0,2.1,0.5,2.9,1.3c0.7,0.7,0.9,1.7,0.9,2.6c0,0.7-0.2,1.4-0.5,2.1c-0.4,0.7-0.8,1.2-1.4,1.6
			c-0.6,0.4-1.2,0.6-2,0.6c-1.2,0-2.1-0.5-2.8-1.4c-0.6-0.7-0.8-1.7-0.8-2.7c0-0.7,0.2-1.4,0.6-2.1c0.4-0.7,0.8-1.2,1.4-1.6
			C129.1,36.2,129.8,36.1,130.5,36.1z M130.2,36.7c-0.3,0-0.6,0.1-0.9,0.3c-0.3,0.2-0.6,0.5-0.7,0.9c-0.2,0.5-0.3,1-0.3,1.8
			c0,1.1,0.2,2.1,0.7,3c0.5,0.8,1,1.2,1.8,1.2c0.6,0,1-0.2,1.4-0.7c0.4-0.5,0.6-1.2,0.6-2.3c0-1.4-0.3-2.5-0.9-3.3
			C131.3,36.9,130.8,36.7,130.2,36.7z"/>
		<path class="st0" d="M138.9,37.7c0.9-1.1,1.8-1.7,2.6-1.7c0.5,0,0.8,0.1,1.1,0.3s0.6,0.6,0.7,1c0.1,0.4,0.2,0.8,0.2,1.6v3.4
			c0,0.5,0,0.8,0.1,1c0.1,0.2,0.2,0.3,0.3,0.4c0.1,0.1,0.4,0.1,0.7,0.1v0.3h-3.8v-0.3h0.2c0.4,0,0.7-0.1,0.7-0.2
			c0.2-0.1,0.3-0.3,0.3-0.5c0-0.1,0-0.4,0-0.8v-3.2c0-0.7-0.1-1.2-0.3-1.6c-0.2-0.3-0.5-0.5-0.9-0.5c-0.7,0-1.3,0.4-2.1,1.1v4.1
			c0,0.6,0,0.8,0.1,1c0.1,0.2,0.2,0.3,0.4,0.4c0.1,0.1,0.5,0.1,0.8,0.1v0.3h-3.8v-0.3h0.2c0.4,0,0.7-0.1,0.8-0.3
			c0.1-0.2,0.2-0.6,0.2-1.1v-2.9c0-0.9,0-1.5-0.1-1.7c0-0.2-0.1-0.4-0.2-0.4c-0.1-0.1-0.2-0.1-0.4-0.1s-0.4,0-0.6,0.1l-0.1-0.3
			l2.3-0.9h0.4L138.9,37.7L138.9,37.7z"/>
		<path class="st0" d="M147.9,39.3c0,1.1,0.3,2.1,0.8,2.7s1.2,1,2.1,1c0.5,0,0.9-0.2,1.3-0.5c0.4-0.3,0.7-0.7,0.9-1.5l0.3,0.2
			c-0.1,0.7-0.5,1.5-1,2.1s-1.3,0.9-2.1,0.9c-0.9,0-1.8-0.4-2.4-1.1c-0.7-0.7-1-1.7-1-3s0.4-2.4,1-3.2c0.7-0.7,1.6-1.1,2.6-1.1
			c0.8,0,1.6,0.3,2.1,0.8c0.6,0.6,0.8,1.3,0.8,2.3h-5.4V39.3z M147.9,38.8h3.6c0-0.5-0.1-0.8-0.2-1c-0.2-0.3-0.4-0.6-0.7-0.7
			s-0.6-0.3-0.8-0.3c-0.5,0-0.9,0.2-1.3,0.6C148.2,37.6,147.9,38.1,147.9,38.8z"/>
		<path class="st0" d="M168,36.7h3.6V37c-0.5,0-0.8,0.2-1.1,0.4c-0.3,0.2-0.6,0.7-1.1,1.6c-0.5,0.9-1,1.8-1.7,2.5
			c0.5,0.6,0.9,1,1.4,1.2c0.4,0.3,0.8,0.4,1.2,0.4s0.7-0.1,1-0.3c0.3-0.2,0.5-0.6,0.6-0.9l0.3,0.2c-0.2,0.8-0.6,1.4-1,1.8
			c-0.5,0.4-1,0.6-1.6,0.6c-0.5,0-0.9-0.1-1.4-0.4c-0.5-0.3-1-0.7-1.6-1.3c-0.7,0.7-1.3,1-1.9,1.3c-0.6,0.3-1.2,0.4-1.8,0.4
			c-0.9,0-1.7-0.3-2.2-0.7c-0.6-0.5-0.8-1.1-0.8-1.8s0.3-1.4,0.7-2.1s1.4-1.4,2.8-2.1c-0.3-0.6-0.5-1.1-0.6-1.5
			c-0.1-0.4-0.2-0.7-0.2-1.1c0-0.9,0.4-1.7,1.1-2.2c0.6-0.4,1.2-0.6,1.9-0.6c0.7,0,1.2,0.2,1.7,0.6s0.7,0.9,0.7,1.5
			s-0.2,1.1-0.7,1.6c-0.4,0.5-1.1,0.9-2.1,1.5c0.7,1.3,1.5,2.4,2.2,3.6c1-1.2,1.5-2.2,1.5-3c0-0.3-0.1-0.5-0.3-0.7
			c-0.1-0.2-0.3-0.3-0.6-0.3L168,36.7L168,36.7z M166,42.3c-0.7-1-1.3-1.8-1.6-2.2c-0.3-0.5-0.7-1-0.9-1.8c-0.7,0.4-1.2,0.8-1.6,1.3
			c-0.4,0.5-0.6,1-0.6,1.5c0,0.7,0.2,1.1,0.6,1.6c0.4,0.5,0.9,0.7,1.6,0.7c0.4,0,0.7-0.1,1-0.2C165,43.1,165.5,42.8,166,42.3z
			 M164.7,36.9c0.7-0.4,1.2-0.7,1.6-1.1c0.4-0.5,0.6-0.9,0.6-1.4c0-0.4-0.1-0.7-0.4-1c-0.3-0.3-0.6-0.4-0.9-0.4
			c-0.5,0-0.8,0.2-1.1,0.6s-0.4,0.7-0.4,1c0,0.3,0.1,0.6,0.2,0.9C164.3,35.8,164.5,36.2,164.7,36.9z"/>
		<path class="st0" d="M178.3,32.1v-0.5h6v0.5h-0.5c-0.6,0-1,0.2-1.2,0.7c-0.2,0.3-0.3,1-0.3,2.1V44c0,1.4-0.1,2.5-0.4,3.4
			c-0.2,0.8-0.7,1.6-1.2,2.2c-0.6,0.7-1.2,0.9-2.1,0.9c-0.7,0-1.1-0.2-1.5-0.7c-0.4-0.5-0.6-0.9-0.6-1.5c0-0.5,0.1-0.7,0.3-1
			c0.2-0.3,0.5-0.5,0.7-0.5c0.2,0,0.4,0.1,0.6,0.3c0.2,0.2,0.4,0.7,0.7,1.5c0.2,0.5,0.4,0.7,0.6,0.7c0.2,0,0.4-0.2,0.6-0.5
			c0.2-0.3,0.3-0.8,0.3-1.6V34.9c0-0.9,0-1.6-0.1-1.9c-0.1-0.2-0.2-0.5-0.5-0.6c-0.3-0.2-0.6-0.4-0.9-0.4H178.3z"/>
		<path class="st0" d="M189,36.1c1.2,0,2.1,0.5,2.9,1.3c0.7,0.7,0.9,1.7,0.9,2.6c0,0.7-0.2,1.4-0.5,2.1c-0.4,0.7-0.8,1.2-1.4,1.6
			c-0.6,0.4-1.2,0.6-2,0.6c-1.2,0-2.1-0.5-2.8-1.4c-0.6-0.7-0.8-1.7-0.8-2.7c0-0.7,0.2-1.4,0.6-2.1c0.4-0.7,0.8-1.2,1.4-1.6
			C187.7,36.2,188.4,36.1,189,36.1z M188.7,36.7c-0.3,0-0.6,0.1-0.9,0.3s-0.6,0.5-0.7,0.9c-0.2,0.5-0.3,1-0.3,1.8
			c0,1.1,0.2,2.1,0.7,3c0.5,0.8,1,1.2,1.8,1.2c0.6,0,1-0.2,1.4-0.7s0.6-1.2,0.6-2.3c0-1.4-0.3-2.5-0.9-3.3
			C189.9,36.9,189.4,36.7,188.7,36.7z"/>
		<path class="st0" d="M197.6,36.1v6.3c0,0.5,0,0.8,0.1,0.9c0.1,0.2,0.2,0.3,0.3,0.4c0.1,0.1,0.4,0.1,0.7,0.1v0.3h-3.8v-0.3
			c0.4,0,0.7,0,0.7-0.1s0.3-0.2,0.3-0.4c0.1-0.2,0.1-0.5,0.1-1v-3c0-0.8,0-1.4-0.1-1.7c0-0.2-0.1-0.3-0.2-0.4
			c-0.1-0.1-0.2-0.1-0.4-0.1s-0.4,0-0.6,0.1l-0.1-0.3l2.3-0.9L197.6,36.1L197.6,36.1z M197,32c0.3,0,0.5,0.1,0.7,0.3
			s0.3,0.4,0.3,0.7s-0.1,0.5-0.3,0.7s-0.4,0.3-0.7,0.3s-0.5-0.1-0.7-0.3S196,33.2,196,33s0.1-0.5,0.3-0.7S196.7,32,197,32z"/>
		<path class="st0" d="M203.1,37.7c0.9-1.1,1.8-1.7,2.6-1.7c0.5,0,0.8,0.1,1.1,0.3s0.6,0.6,0.7,1c0.1,0.4,0.2,0.8,0.2,1.6v3.4
			c0,0.5,0,0.8,0.1,1c0.1,0.2,0.2,0.3,0.3,0.4c0.1,0.1,0.4,0.1,0.7,0.1v0.3h-3.8v-0.3h0.2c0.4,0,0.7-0.1,0.7-0.2s0.3-0.3,0.3-0.5
			c0-0.1,0-0.4,0-0.8v-3.2c0-0.7-0.1-1.2-0.3-1.6c-0.2-0.3-0.5-0.5-0.9-0.5c-0.7,0-1.3,0.4-2.1,1.1v4.1c0,0.6,0,0.8,0.1,1
			c0.1,0.2,0.2,0.3,0.4,0.4c0.1,0.1,0.5,0.1,0.8,0.1v0.3h-3.8v-0.3h0.2c0.4,0,0.7-0.1,0.8-0.3c0.1-0.2,0.2-0.6,0.2-1.1v-2.9
			c0-0.9,0-1.5-0.1-1.7c0-0.2-0.1-0.4-0.2-0.4c-0.1-0.1-0.2-0.1-0.4-0.1s-0.4,0-0.6,0.1l-0.1-0.3l2.3-0.9h0.4L203.1,37.7L203.1,37.7
			z"/>
		<path class="st0" d="M212.9,33.8v2.6h1.9V37h-1.9v5c0,0.5,0.1,0.8,0.2,1c0.2,0.2,0.4,0.3,0.6,0.3s0.4-0.1,0.6-0.2
			c0.2-0.1,0.3-0.3,0.4-0.6h0.4c-0.2,0.6-0.5,0.9-0.8,1.2s-0.7,0.5-1.1,0.5c-0.3,0-0.6-0.1-0.7-0.2c-0.3-0.2-0.5-0.4-0.6-0.7
			c-0.1-0.3-0.2-0.7-0.2-1.2V37h-1.2v-0.3c0.3-0.1,0.7-0.4,0.9-0.7c0.4-0.3,0.7-0.7,0.8-1c0.1-0.2,0.3-0.7,0.6-1.2H212.9z"/>
	</g>
	<g>
		<path class="st0" d="M123.7,54.8l0.3,3.9h-0.3c-0.4-1.2-0.8-2.1-1.5-2.5c-0.7-0.6-1.4-0.7-2.3-0.7c-0.7,0-1.5,0.2-2.1,0.6
			c-0.6,0.4-1.1,1-1.5,1.9c-0.4,0.8-0.6,2-0.6,3.2c0,1,0.2,2,0.5,2.7c0.4,0.7,0.8,1.4,1.5,1.8c0.7,0.4,1.4,0.7,2.3,0.7
			c0.7,0,1.4-0.2,2-0.5c0.6-0.3,1.2-0.9,1.9-2l0.3,0.2c-0.6,1-1.2,1.8-2.1,2.2c-0.7,0.5-1.7,0.7-2.8,0.7c-2,0-3.4-0.7-4.5-2.1
			c-0.7-1-1.2-2.3-1.2-3.7c0-1.1,0.3-2.2,0.7-3.2c0.6-0.9,1.2-1.7,2.1-2.2c0.9-0.6,1.9-0.8,3-0.8c0.8,0,1.7,0.2,2.5,0.7
			c0.3,0.1,0.4,0.2,0.5,0.2c0.2,0,0.3-0.1,0.4-0.2c0.2-0.2,0.3-0.4,0.3-0.7C123.2,54.8,123.7,54.8,123.7,54.8z"/>
		<path class="st0" d="M128.9,54.5v10.4c0,0.5,0,0.8,0.1,0.9c0.1,0.2,0.2,0.3,0.4,0.4c0.2,0.1,0.5,0.1,0.8,0.1v0.3h-3.8v-0.3
			c0.4,0,0.6,0,0.7-0.1c0.1-0.1,0.2-0.2,0.3-0.4c0.1-0.2,0.1-0.5,0.1-1v-7.1c0-0.8,0-1.4-0.1-1.6s-0.1-0.4-0.2-0.4
			c-0.1-0.1-0.2-0.1-0.4-0.1s-0.4,0-0.6,0.1l-0.2-0.3l2.3-0.9H128.9z"/>
		<path class="st0" d="M134.5,58.7v6.3c0,0.5,0,0.8,0.1,0.9c0.1,0.2,0.2,0.3,0.3,0.4c0.1,0.1,0.4,0.1,0.7,0.1v0.3h-3.8v-0.3
			c0.4,0,0.7,0,0.7-0.1c0.1-0.1,0.3-0.2,0.3-0.4c0.1-0.2,0.1-0.5,0.1-1v-3c0-0.8,0-1.4-0.1-1.7c0-0.2-0.1-0.3-0.2-0.4
			c-0.1-0.1-0.2-0.1-0.4-0.1s-0.4,0-0.6,0.1l-0.1-0.3l2.3-0.9L134.5,58.7L134.5,58.7z M133.7,54.5c0.3,0,0.5,0.1,0.7,0.3
			c0.2,0.2,0.3,0.4,0.3,0.7c0,0.3-0.1,0.5-0.3,0.7c-0.2,0.2-0.4,0.3-0.7,0.3s-0.5-0.1-0.7-0.3c-0.2-0.2-0.3-0.4-0.3-0.7
			c0-0.3,0.1-0.5,0.3-0.7C133.3,54.6,133.5,54.5,133.7,54.5z"/>
		<path class="st0" d="M139.7,60.2c0.9-1.1,1.8-1.7,2.6-1.7c0.5,0,0.8,0.1,1.1,0.3c0.3,0.2,0.6,0.6,0.7,1c0.1,0.4,0.2,0.8,0.2,1.6
			v3.4c0,0.5,0,0.8,0.1,1s0.2,0.3,0.3,0.4s0.4,0.1,0.7,0.1v0.3h-3.8v-0.3h0.2c0.4,0,0.7-0.1,0.7-0.2c0.2-0.1,0.3-0.3,0.3-0.5
			c0-0.1,0-0.4,0-0.8v-3.2c0-0.7-0.1-1.2-0.3-1.6c-0.2-0.3-0.5-0.5-0.9-0.5c-0.7,0-1.3,0.4-2.1,1.1v4.1c0,0.6,0,0.8,0.1,1
			s0.2,0.3,0.4,0.4c0.1,0.1,0.5,0.1,0.8,0.1v0.3h-3.8v-0.3h0.2c0.4,0,0.7-0.1,0.8-0.3c0.1-0.2,0.2-0.6,0.2-1.1V62
			c0-0.9,0-1.5-0.1-1.7c0-0.2-0.1-0.4-0.2-0.4c-0.1-0.1-0.2-0.1-0.4-0.1c-0.2,0-0.4,0-0.6,0.1l-0.1-0.3l2.3-0.9h0.4L139.7,60.2
			L139.7,60.2z"/>
		<path class="st0" d="M149.6,58.7v6.3c0,0.5,0,0.8,0.1,0.9c0.1,0.2,0.2,0.3,0.3,0.4c0.1,0.1,0.4,0.1,0.7,0.1v0.3h-3.8v-0.3
			c0.4,0,0.7,0,0.7-0.1c0.1-0.1,0.3-0.2,0.3-0.4c0.1-0.2,0.1-0.5,0.1-1v-3c0-0.8,0-1.4-0.1-1.7c0-0.2-0.1-0.3-0.2-0.4
			c-0.1-0.1-0.2-0.1-0.4-0.1s-0.4,0-0.6,0.1l-0.1-0.3l2.3-0.9L149.6,58.7L149.6,58.7z M148.9,54.5c0.3,0,0.5,0.1,0.7,0.3
			c0.2,0.2,0.3,0.4,0.3,0.7c0,0.3-0.1,0.5-0.3,0.7c-0.2,0.2-0.4,0.3-0.7,0.3s-0.5-0.1-0.7-0.3c-0.2-0.2-0.3-0.4-0.3-0.7
			c0-0.3,0.1-0.5,0.3-0.7C148.4,54.6,148.7,54.5,148.9,54.5z"/>
		<path class="st0" d="M159.1,63.7c-0.2,1-0.7,1.9-1.2,2.3c-0.7,0.6-1.3,0.8-2.1,0.8c-0.9,0-1.7-0.4-2.3-1.1c-0.7-0.7-1-1.8-1-3
			c0-1.2,0.4-2.2,1.1-3c0.7-0.7,1.6-1.1,2.6-1.1c0.7,0,1.4,0.2,1.9,0.7c0.5,0.4,0.7,0.8,0.7,1.3c0,0.2-0.1,0.4-0.2,0.6
			c-0.1,0.2-0.4,0.2-0.6,0.2c-0.4,0-0.6-0.1-0.7-0.3c-0.1-0.1-0.2-0.4-0.2-0.7c0-0.4-0.2-0.6-0.4-0.7c-0.2-0.2-0.5-0.3-0.8-0.3
			c-0.6,0-1,0.2-1.4,0.7c-0.5,0.6-0.7,1.3-0.7,2.2c0,0.9,0.2,1.8,0.7,2.4c0.5,0.7,1.1,1,1.9,1c0.6,0,1-0.2,1.5-0.6
			c0.3-0.3,0.7-0.7,0.9-1.4L159.1,63.7z"/>
	</g>
	<g>
		<path class="st0" d="M163.9,63.6v2c0,0.4,0,0.7,0.1,0.7c0.1,0.2,0.3,0.2,0.6,0.2h0.3v0.2H162v-0.2h0.3c0.3,0,0.5-0.1,0.6-0.3
			c0.1-0.1,0.1-0.4,0.1-0.7v-4.3c0-0.4,0-0.7-0.1-0.7c-0.1-0.2-0.3-0.2-0.6-0.2H162v-0.2h2.4c0.6,0,1,0.1,1.4,0.2s0.7,0.4,0.8,0.7
			c0.3,0.3,0.4,0.7,0.4,1c0,0.6-0.2,0.9-0.6,1.3c-0.4,0.4-0.8,0.5-1.5,0.5c-0.2,0-0.4,0-0.6,0C164.3,63.7,164.1,63.6,163.9,63.6z
			 M163.9,63.3c0.2,0,0.3,0.1,0.5,0.1c0.1,0,0.3,0,0.4,0c0.4,0,0.7-0.1,0.8-0.4c0.3-0.3,0.4-0.6,0.4-1c0-0.3-0.1-0.6-0.2-0.8
			c-0.1-0.3-0.3-0.5-0.5-0.6s-0.5-0.2-0.7-0.2c-0.2,0-0.4,0-0.7,0.1L163.9,63.3L163.9,63.3z"/>
		<path class="st0" d="M173.2,64.8h0.2l-0.6,1.8h-5.1v-0.2h0.3c0.3,0,0.5-0.1,0.6-0.3c0.1-0.1,0.1-0.4,0.1-0.7v-4.3
			c0-0.4,0-0.7-0.1-0.7c-0.1-0.2-0.3-0.2-0.6-0.2h-0.3V60h3v0.2c-0.4,0-0.6,0-0.7,0.1c-0.2,0.1-0.3,0.2-0.3,0.3
			c-0.1,0.1-0.1,0.4-0.1,0.7v4.2c0,0.3,0,0.5,0.1,0.6c0,0.1,0.1,0.1,0.2,0.2c0.1,0,0.4,0.1,0.7,0.1h0.5c0.5,0,0.8,0,1-0.1
			c0.2-0.1,0.4-0.2,0.6-0.4C172.9,65.6,173.1,65.3,173.2,64.8z"/>
		<path class="st0" d="M179.4,64.8h0.2l-0.6,1.8h-5.1v-0.2h0.3c0.3,0,0.5-0.1,0.6-0.3c0.1-0.1,0.1-0.4,0.1-0.7v-4.3
			c0-0.4,0-0.7-0.1-0.7c-0.1-0.2-0.3-0.2-0.6-0.2h-0.3V60h3v0.2c-0.4,0-0.6,0-0.7,0.1s-0.3,0.2-0.3,0.3c-0.1,0.1-0.1,0.4-0.1,0.7
			v4.2c0,0.3,0,0.5,0.1,0.6c0,0.1,0.1,0.1,0.2,0.2c0.1,0,0.4,0.1,0.7,0.1h0.5c0.5,0,0.8,0,1-0.1c0.2-0.1,0.4-0.2,0.6-0.4
			C179.1,65.6,179.2,65.3,179.4,64.8z"/>
		<path class="st0" d="M185.9,59.9l0.2,2.2h-0.2c-0.2-0.7-0.5-1.1-0.8-1.5c-0.4-0.3-0.8-0.5-1.3-0.5c-0.5,0-0.8,0.1-1.2,0.4
			c-0.4,0.2-0.7,0.6-0.8,1s-0.3,1.1-0.3,1.8c0,0.6,0.1,1.1,0.3,1.6c0.2,0.5,0.5,0.7,0.8,1c0.4,0.3,0.8,0.4,1.3,0.4
			c0.5,0,0.8-0.1,1.1-0.3c0.4-0.2,0.7-0.6,1.1-1.1l0.2,0.1c-0.4,0.6-0.7,1-1.1,1.3c-0.5,0.3-0.9,0.4-1.6,0.4c-1.1,0-2-0.4-2.5-1.2
			c-0.5-0.6-0.7-1.3-0.7-2.1c0-0.7,0.2-1.3,0.5-1.8c0.3-0.6,0.7-1,1.2-1.3c0.6-0.3,1.1-0.5,1.7-0.5c0.5,0,0.9,0.1,1.4,0.4
			c0.1,0.1,0.3,0.1,0.3,0.1c0.1,0,0.2,0,0.2-0.1C185.8,60.1,185.9,60,185.9,59.9L185.9,59.9L185.9,59.9z"/>
	</g>
	<rect x="95.3" y="23.5" class="st0" width="119" height="1.5"/>
</g>
</svg>
