<svg xmlns="http://www.w3.org/2000/svg" xmlns:xlink="http://www.w3.org/1999/xlink" viewBox="0 0 432.08 118.54"><defs><style>.cls-1{fill:url(#linear-gradient);}.cls-2{fill:#fff;}.cls-3{fill:url(#linear-gradient-2);}</style><linearGradient id="linear-gradient" x1="5952.62" y1="15209.8" x2="6272.1" y2="15209.8" gradientTransform="translate(-5952.62 -15150.4)" gradientUnits="userSpaceOnUse"><stop offset="0" stop-color="#602d89"/><stop offset="0.24" stop-color="#7a4292"/><stop offset="0.48" stop-color="#8d5199"/><stop offset="0.73" stop-color="#985a9d"/><stop offset="1" stop-color="#9c5d9e"/></linearGradient><linearGradient id="linear-gradient-2" x1="-1821.05" y1="1698.94" x2="-1702.75" y2="1698.94" gradientTransform="matrix(0.95, 0.31, -0.31, 0.95, 2568.36, -1025.79)" xlink:href="#linear-gradient"/></defs><g id="Layer_2" data-name="Layer 2"><g id="Nav_1:1_" data-name="Nav (1:1)"><rect class="cls-1" y="22.65" width="319.48" height="73.48" transform="translate(319.48 118.79) rotate(180)"/><path class="cls-2" d="M157.33,43.88l-5.78,3.42a10,10,0,0,0-3.09-3.67,7.21,7.21,0,0,0-3.94-1,7.32,7.32,0,0,0-4.93,1.69,5.2,5.2,0,0,0-2,4.15c0,2.31,1.71,4.16,5.13,5.57L147.48,56q5.75,2.33,8.41,5.68a12.78,12.78,0,0,1,2.66,8.21,14.43,14.43,0,0,1-4.34,10.76,14.94,14.94,0,0,1-10.86,4.28,14.51,14.51,0,0,1-10.15-3.64q-3.94-3.63-4.92-10.24l7.22-1.59q.48,4.16,1.71,5.75a8.14,8.14,0,0,0,11.95.82,7.7,7.7,0,0,0,2.2-5.65,7.85,7.85,0,0,0-.38-2.53,6.44,6.44,0,0,0-1.19-2.11,9.67,9.67,0,0,0-2.09-1.8,20.59,20.59,0,0,0-3.06-1.61l-4.56-1.89q-9.69-4.1-9.69-12a11.37,11.37,0,0,1,4.07-8.89,14.66,14.66,0,0,1,10.12-3.61Q152.74,35.93,157.33,43.88Z"/><path class="cls-2" d="M193.83,43.88l-5.78,3.42A10,10,0,0,0,185,43.63a8.19,8.19,0,0,0-8.87.71,5.18,5.18,0,0,0-2,4.15c0,2.31,1.71,4.16,5.14,5.57L184,56q5.74,2.33,8.41,5.68a12.78,12.78,0,0,1,2.66,8.21,14.4,14.4,0,0,1-4.35,10.76,14.9,14.9,0,0,1-10.85,4.28,14.49,14.49,0,0,1-10.15-3.64q-3.94-3.63-4.92-10.24L172,69.44q.5,4.16,1.71,5.75a8.15,8.15,0,0,0,12,.82,7.7,7.7,0,0,0,2.2-5.65,8.14,8.14,0,0,0-.38-2.53,6.62,6.62,0,0,0-1.19-2.11,9.51,9.51,0,0,0-2.1-1.8,19.64,19.64,0,0,0-3.06-1.61l-4.55-1.89q-9.69-4.1-9.69-12A11.36,11.36,0,0,1,171,39.54a14.68,14.68,0,0,1,10.12-3.61Q189.24,35.93,193.83,43.88Z"/><path class="cls-2" d="M217.56,43.54V84.05h-7.13V43.54H199.58v-6.7h28.8v6.7Z"/><path class="cls-2" d="M259.9,72.59H239.69l-5.25,11.46h-7.68l23.36-50.17,22.53,50.17h-7.79Zm-2.9-6.7-7-16-7.34,16Z"/><path class="cls-2" d="M294.55,63.93l14.61,20.12h-8.71L287,64.73h-1.28V84.05h-7.12V36.84h8.34q9.36,0,13.52,3.52A12.93,12.93,0,0,1,305,50.7a13.45,13.45,0,0,1-2.87,8.62A12.85,12.85,0,0,1,294.55,63.93Zm-8.87-5.41h2.26q10.13,0,10.12-7.73,0-7.24-9.84-7.25h-2.54Z"/><polygon class="cls-3" points="388.79 0 386.62 44.33 432.08 59.11 386.14 68.77 389.24 118.54 364.33 76.25 319.47 96.16 348.16 58.53 319.51 22.7 363.89 37.04 388.79 0"/></g></g></svg>