<?xml version="1.0" encoding="utf-8"?>
<!-- Generator: Adobe Illustrator 25.3.1, SVG Export Plug-In . SVG Version: 6.00 Build 0)  -->
<svg version="1.1" id="Layer_1" xmlns="http://www.w3.org/2000/svg" xmlns:xlink="http://www.w3.org/1999/xlink" x="0px" y="0px"
	 viewBox="0 0 1905.2 398.8" style="enable-background:new 0 0 1905.2 398.8;" xml:space="preserve">
<style type="text/css">
	.st0{fill:#FEFEFE;}
	.st1{fill:#FDFDFD;}
	.st2{fill:#FBFBFB;}
</style>
<g>
	<path d="M288.1,99.3c-3.5-3.4-6.2-6.4-9.5-8.7c-0.9-0.6-1.7-1.5-2.4-2.4c-2.2-2.8-1.8-4.1,1-6.5c1.4-1.2,4.4-1.9,3.9-3.7
		c-0.5-1.5-3.3-0.4-5.1-0.6c-1.9-0.2-3.8-0.8-5.8-0.9c-2-0.1-3.1-3.4-1.9-5c0.8-1.1,1.7-1.9,0.2-3l-5.7-2.4
		c-1.2-3.4-4.7-2.6-7.1-3.8c-1.6-0.8,0.8-1.6,0.6-2.9c-1.7,0.1-3.5-0.5-5.2,0.5c-0.7,0.4-2,0.6-2.7-0.4c-0.9-1.2,0.2-2,0.8-2.7
		c0.6-0.7,1-1.4,0.6-2.5c-1,0.4-2.1,0.8-3.1,1.2c-1.3,0.4-3,1.9-3.9,0.4c-0.7-1.2,1.6-2,2.4-3.2c0.2-0.3,1.3-0.2,1-1.1
		c-0.2-0.8-1-0.5-1.6-0.5c-2.2,0.2-3.5,2.2-5.4,2.8c-0.9,0.3-1.7,1.7-2.9,0.3c-1.6-1.8,1.2-1.5,1.2-2.7c0-1.4,2.2-0.7,3-1.9
		c-3.1-2.4-4.5,1-6.6,1.6c-1.2,0.4-1.7,3.4-3.4,1.4c-1.2-1.5,0.5-2.8,1.9-3.8c0.4-0.3,0.6-0.8,0.1-1.5c-3.1,0.7-4.5,4.9-8.5,4.3
		c-0.3-2.7,2.4-3,4-4.4c-2.4-1.6-4.1-0.4-5.1,1c-1.2,1.7-2.5,2.9-4.4,3.5c-0.8-2.9-0.6-3.1,2.9-5.6c-1.9-0.9-3.3-0.2-4.7,1.1
		c-1.2,1.1-2.8,1.6-4.6,2.5c0-3.3,2.2-4.2,4.3-5.2c-3.3-1.3-5.5,0.8-7.8,2c-1.1,0.6-2.2,1.1-2.8-0.1c-0.8-1.4,0.9-1.2,1.5-1.7
		c0.5-0.4,1.5-1.1,0.8-1.8c-0.7-0.6-1.9-0.6-2.8,0.1c-2.1,1.8-4.6,2-7.4,1.7c0.3-2.6,2.6-2.9,4.3-3.9c-0.1-0.2-0.2-0.4-0.3-0.6
		c-1.4-1.1-4.2-1.9-3-3.9c1.2-2,3,0.3,4.4,1c2.1,1,3.9,2.7,6.5,2.6c0-0.2,0.2-0.5,0.1-0.6c-0.7-1.3-3.4-2.4-1.8-3.8
		c1.3-1.2,2.4,1.5,3.5,2.4c1.5,1.3,2.2,3.8,5,3.5c-0.1-1.9-2.6-2.9-2.1-5.2c2.5,0,3,2,3.8,3.8c0.8,1.9,1.8,3.3,4.1,2.3
		c-0.5-1.1-1-2.2-1.5-3.3c-0.4-0.7-1.9-1.3-0.4-2.2c1.2-0.7,2.2,0.4,2.7,1.1c0.6,0.8,0.6,2,0.9,3.1c0.6,1.9,1.8,3.1,4,3.1
		c0.2-2.2-1.5-3.8-1.8-6.1c2.8,0.6,3.1,2.8,4.1,4.5c0.7,1.2,1.1,2.9,2.8,2.2c1.7-0.7-0.7-1.7-0.2-2.8c0.3-0.6,0.1-1.4,0.2-2.5
		c3.3,2,3,7.6,8.2,7.3c-0.9-1.9-3.4-4.4-1.2-5.7c1.4-0.8,2,2.9,3.3,4.4c0.4,0.4,0.5,1.1,0.9,1.5c0.8,0.8,1.7,2.4,3,1.7
		c1.7-0.9,0.1-2.2-0.3-3.2c-0.3-1-1.5-2,0.1-2.7c1.5-0.6,1.2,0.9,1.6,1.7c2.9,5.8,2.9,5.8,5.8,6.9c0.3-2-1.1-3.4-1.4-5.2
		c-0.1-0.8-0.3-1.9,0.7-2.3c1.1-0.5,1.1,0.7,1.6,1.2c2.1,1.8,2.6,4.3,3.3,6.7c0.5,1.5,1.1,2.6,3,2.8c0.7-1.1,0.1-2.3,0.4-3.5
		c0.2-0.8-0.7-2.3,0.8-2.3c0.7,0,1.8,0.8,1.8,2.2c0,1.7,1.4,3.2,1.2,5.2c-0.1,1,1.1,1.5,2,2.2c0.1-2.4,0.3-4.4,0.4-6.5
		c0,0,0.2-0.1,0.4-0.1c2.5,1.7,1.1,4.6,1.9,6.8c0.2,0.6,0.3,1.6,0.7,1.8c0.8,0.3,0.5-0.8,0.9-1.2c0.9-0.8-0.3-2.6,1.2-3.3
		c0.2-0.1,0.4-0.1,0.6,0c1.6,1.2,0.4,3.1,1,4.6c1.6-0.2,1.9-1.6,2.5-2.7c0.5-0.8,0.6-2.1,1.8-2.1c1.2,0,1.7,1.2,2.3,2.1
		c2.4,3.7,3.4,8.2,6.2,12c3.3-2.6,5.5-6.3,9.7-7.5c1.1-0.3,1.8-0.9,3-0.2c7.3,4,14.7,7.9,22.1,11.9c-4.3,1.5,1.6,2.2,0.4,3
		c-0.9,1.6-1.7-0.3-2.4,0.7c-0.5,0.8,0.4,3.1-1,2.4c-1.2-0.6-3.7-0.5-3.8-3.1c-0.1-1.6-1.6-2.6-3.1-3.2c-3.8-1.5-7.5-3.1-11.4-4.5
		c-0.7-0.3-1.7-0.4-2.2,0c6.2,6.4,12.4,12.9,18.7,19.2c7.4,7.4,13.9,15.6,20.7,23.6c1.3,1.5,2.3,1.3,3.7,0.5
		c4.9-2.3,4.8-2.2,8.1,2.4c3.5,4.8,6.4,10.3,11.8,13.4c0.2,0.1,0.2,0.7,0.5,1.5c-3.3-2.1-2.4,2.3-4.4,2.3c-0.4,0,0,1.6-1.4,0.7
		c-0.7-0.4-1-0.7-1.2-1.5c-1-5.7-5.7-8.9-8.9-13.1c-1.1-1.4-3-0.5-2.9,1c0.2,3.7-2.7,5.2-4.8,7c-2.7,2.4-6,4.1-9.1,6.2
		c-0.5,0.3-1.1,0.5-1.6,0.8c-1.5,1-4.6-1.7-4.7,1.5c-0.1,1.6,0.9,3.7,1.8,5.4c1.5,2.9,1.6,6.6,5.1,8.3c0.8,0.4,1.2,1,0.3,2
		c-1.3,1.3-2.4,3-4.4,2.7c-1-0.1-1.9-0.2-2.9-0.2c3.5,8,5.4,16.3,6.7,24.8c1,7.2,2,14.4,2,21.6c-0.1,8.4-0.2,17-2.1,25.2
		c-1.9,8.4-3.6,16.9-6.7,25.1c-2.5,6.7-5.8,12.9-9.4,19c-1.4,2.4-2.1,4.2-0.7,6.6c0.3-0.5,0.9-1,1-1.7c0.2-1.1,0.2-2.3,1.7-2.5
		c0.4,0,1.1,0.6,1.1,0.8c-0.2,1-0.5,2-0.9,2.9c-0.4,0.9-2,1.2-1.6,2.9c2.7-2.5,5.3-4.5,4.4-8.9c-0.8-4,2.5-7.1,4.1-10.5
		c5.1-11,8.1-22.5,10.2-34.4c0.8-4.7,1.7-9.6,2.4-14.2c0.6-3.8,0.4-8.5-0.7-12.7c-0.3-1-0.3-1.9-0.3-2.9c0.1-9.3-1.3-18.5-3.6-27.5
		c-0.7-2.5,0.3-4.3,2.8-5.2c2.3-0.8,2.7,1.4,3.8,2.5c0.3,0.3,0.6,0.8,0.6,1.3c0.1,4.1,2.8,4.7,5.9,4c4.9-1.2,9.9-0.4,14.8-0.7
		c0.7,0,1.5,0,2.2-0.1c2.6-0.4,4.2-1.5,3.4-4.5c-0.2-0.6,0-1.2,0-1.9c-0.2-2.4,1.8-3.3,3.4-3.7c1.5-0.4,2.2,1.1,2.7,2.7
		c1.4,4.1,1.3,8.4,2,12.5c0.9,5.8,1.1,11.7,1.3,17.6c0.3,6.8,0.4,13.6,0.2,20.4c-0.2,5.3-1,10.6-2.1,15.9
		c-1.9,9.1-3.2,18.4-6.2,27.1c-2.9,8.3-5.6,16.8-10.4,24.4c-0.7,1.1-1.7,2.5-3.3,1.8c-1.4-0.6-1.2-2.1-1.1-3.3
		c0.2-2.3,1.2-4.4,2-6.5c0.6-1.4,1.3-2.5-1.2-2.9c-4.8-0.8-9.4-2-14.2-2.9c-1.2-0.2-2.4-0.3-3.6-0.5c-3.5-0.6-7-2.3-9.2,3.3
		c-1,2.5-2.4,5.9-5.2,8c0.9,0.7,3,0.3,2.8,2.1c-0.2,1.4-1.8,1-2.6,1.6c-1.1,0.7-4.7,0.1-2,3.4c0.9,1,0.2,2.8-1.8,2.3
		c-3-0.6-4.8,0.9-6.7,3c-4.8,5.4-9.9,10.5-14.9,15.7c-0.8,0.9-1.3,2-2.3,3.4c5.6-0.3,10.8-3.3,15.9,0.5c0.8-8.8,2.7-11.5,9.5-13.4
		c3.7-1,7.4,1.7,7.2,5.5c-0.2,3.8-1.5,7.3-4.2,10.1c-2.1,2.1-4.8,1.9-7.8,1.8c3.8,5.7-0.6,11.6,1.1,17.3c2.1-0.9,4-2.9,5.9-5
		c7.5-8.6,15-17.2,21.2-26.9c1.4-2.3,1.7-3.5-0.9-4.9c-1.5-0.8-3.2-2.5,0.1-3.4c1-0.3,0.9-0.8,1.2-1.4c0.8-1.2,0-4.7,3.5-2.5
		c1.1,0.7,0.7-1.4,1.6-1.6c1-0.3,0.4-2.5,2.2-1.8c0.6,0.2,1,0.6,1.6,0.9c-0.9,0.9-0.1,2.7-1.5,3.1c-2.4,0.7-2,2.9-2.8,4.4
		c1.4,0.7,2.1-0.4,3-0.6c1.1-0.2,1.8-0.3,2.4,0.6c0.3,0.4,0.7,0.7,0.1,1.1c-0.7,0.5-1.1,1.9-2.4,1.1c-1.4-1-2.3-0.3-3.2,0.8
		c-0.3,0.4-0.7,0.9-0.6,1.2c0.2,0.8,1,0.5,1.5,0.5c0.3,0,0.6-0.5,0.9-0.5c1.1-0.2,2.2-0.5,3,0.6c0.3,0.4,0.4,0.8,0.1,1.3
		c-0.7,1-1.8,1.1-2.7,0.8c-2.1-0.7-2.8,0.3-3.8,1.9c-4.2,6.8-9.1,13.2-14.1,19.4c-4,5-7.7,10.2-12.4,14.5c-1.7,1.6-3.3,3.2-5.1,4.7
		c-1.7,1.4-3.4,1.8-4.4-0.7c-0.7-1.9-1.3-3.9-1.5-5.9c-0.2-1.9-1.2-2.3-2.3-1.2c-2.8,2.8-5.5,5.8-8,8.8c-0.6,0.7-0.7,1.8,1,2.1
		c1.1,0.2,2.2,1.1,3.3,1.4c2,0.5,3.4,1.6,3.6,3.6c0.3,2-1.3,3.6-2.6,4.5c-8.4,5.5-17,10.9-26.8,13.6c-11,3.1-21.7,7.2-32.4,11
		c-3.2,1.1-4.3,3-4.8,5.8c-0.1,0.9-0.1,1.6-0.8,2.3c-0.7,0.7-1.1,0.8-2.1,0.4c-1.5-0.6-0.4-1.2-0.3-1.9c0.2-1.3,2-1.6,1.6-3.1
		c-1.7-0.9-1.7,1-1.8,1.4c-0.5,1.7-1.9,2.2-3.2,2.7c-0.7,0.3-1.3-0.6-1.6-1.3c-0.7-1.8,1.9-1.5,2.1-3.4c-1.8,0.9-3.2,1.7-4.7,2.4
		c-0.8,0.4-1.6,1.3-2.4-0.4c-0.7-1.7,0.2-1.9,1.2-2.4c2.3-1.1,5.2-0.1,7.4-2.8c-1.9-0.2-3.5-0.1-5-0.5c-0.5-0.1-1.7-0.2-1.8-1.5
		c0-1.3,1.1-1.5,1.7-1.6c1.8-0.3,2.7-1.5,4-2.5c2.3-1.7,5.4-0.7,6.8,1c2.3,2.6,4.7,1.7,6.6,0.8c7.9-3.7,16.4-6,24.3-9.5
		c7.2-3.2,14.1-7,20.8-11.4c1.5-1,1.2-1.7-0.4-2.5c-4.6-2.2-8.3,0.1-12.2,1.9c-8.5,3.7-17.2,6.6-26.1,9.1c-5,1.4-9.9,2.9-15,2.8
		c-12.6-0.2-24.5,3.9-36.8,5.1c-4.9,0.5-9.8,1.3-14.8,0.9c-0.8-0.1-1.5-0.2-2.2-1.3c4.7-1.3,9.4-2.2,14.1-2.8
		c8.2-1.1,16.5-1.7,24.5-4c16.1-4.6,30.9-11.9,44.8-21c4.2-2.7,6.2-6.2,4.6-8.2c-2.6-3.2-6-1.5-8.5,0c-4,2.4-8.2,3.2-12.7,3.6
		c-0.4,0-0.9-0.1-1.1,0.1c-3,3.1-7.6,2.6-10.9,4.7c-2.6,1.6-4.7,4-7.5,5.3c-0.4,0.2-0.9,0.6-0.3,1.4c1.5,1.9,0.1,3.4-1.4,4.2
		c-2.1,1.2-1.8-1.5-2.8-2.4c-1.4,1.2,0,4-2.7,4c-0.6,0-1.5,0-1.7-0.3c-0.7-1.3,0.6-2.1,1.5-3.5c-2.2,0.4-3,1.9-4,3
		c-1.2,1.2-2.5,0.9-3.8,0.8c-0.5,0-0.5-0.7-0.6-1.2c-0.4-1.8,1.2-1.9,2.2-2.4c1.9-1,4.1-1.3,6.1-2.9c-1.6,0-3-0.3-4.2,0.1
		c-0.7,0.2-1.3,0.3-1.5-0.3c-1.4-4-4.9-2.4-7.1-2c-10.2,1.7-20.3,1.7-30.6,0.7c-9.2-0.9-18.3-2.3-27-5.4c-8.6-3.1-17.4-6-25.5-10.5
		c-3.9-2.2-7.7-4.6-12-6.3c1.2,1.5-1.8,6.2,3.8,4.4c1.2-0.4,4.2,0.5,4.3,3.5c0.1,2.4,1.6,3.3,3.8,3c2.8-0.4,4.8,0.6,5.8,3.3
		c1,2.9,3.8,3.3,6,4.1c2,0.7,3.5,1.6,4.9,3c0.3,0.3,1.6-0.2,0.7,0.9c-0.4,0.5-0.8,0.9-1.6,0.5c-3.3-2-7.4-2.9-10.1-5.3
		c-2.9-2.6-4.6-2.1-6.9-0.1c4.4,3.7,10,5.6,15.1,8.2c2.9,1.4,7.1,0.8,10.6-0.1c0.9-0.2,1.8-0.5,2.5-0.3c6.2,1.8,12-0.5,18-1.4
		c1.7-0.2,2.9-0.6,2.8,1.9c-0.3,7.1-4.5,10.4-11.8,10.9c-5.5,0.3-11.2,0.2-17.5,1.9c4.9,2.5,9.2,4.7,13.5,6.9c1.1,0.5,2.2,1,3.3,1.6
		c4.5,2.2,4.8,3.2,2.9,7.6c-1,2.3-5.2,3.7-7.9,2.7c-5.7-2.2-11.4-4.3-17-6.6c-8.1-3.4-15.8-7.5-23.3-12c-4.6-2.8-9-5.9-13.8-8.4
		c-3.9-2-7-5.3-11-7.2c-0.8-0.4-1.2-1.3-2.2-0.3c-0.9,0.9-0.4,1.4,0.1,2.2c0.8,1.3,1.5,2.7,2,4.2c0.6,1.7,1.6,2.4,3.3,2.1
		c3-0.5,4.5,1.3,5.1,3.7c0.6,2.2,1.6,3.1,3.8,3.1c4.1,0.1,7.8,1.8,10.8,4.5c1.7,1.5,3.5,2.5,5.7,3c2.9,0.6,4.1,4.4,7.5,4.1
		c0.2,0,0.7,0.8,0.7,1.2c-0.1,0.9-0.9,0.6-1.5,0.6c-2.7,0.3-4.1-2-5.8-3.4c-1.6-1.2-2.9-2.1-4.9-1.8c-2.7,0.4-4.3-1.4-6-2.9
		c-1.7-1.4-3.2-2.4-5.7-1.7c-2.7,0.8-5.4-0.1-6.6-3.2c-0.6-1.4-1.3-2.9-3.1-2.7c-3.2,0.3-4.3-1.9-6.2-3.9c-3.3-3.4-7.4-5.9-11-8.9
		c-4.9-4.1-9.7-8.3-14.4-12.7c-6.2-5.8-11.2-12.6-16.6-19.2c-1.2-1.4-2.4-3.9-4.9-1.2c-0.3,0.4-1.5,1.6-2.5,0.4
		c-0.4-0.5-1-0.9-0.5-1.6c0.6-0.7,0.5-2.1,2-1.8c0.4,0.1,0.9-0.1,2.4-0.4c-3.7-0.5-6.9,0.3-7.5-3.9c1.2-0.1,2.2-0.2,3.5-0.3
		c-1.1-1.2-3.2-1.7-2.7-3.8c0.1-0.5,0.8-1.2,1.2-1.2c2.1,0.1,2.7,2,3.8,3.8c0.1-0.8,0.3-1.5,0.1-1.8c-0.9-1.1-0.9-2.4,0.4-2.6
		c1.2-0.3,2.5,0.5,2.1,2.3c-0.3,1.5,0.2,1.5,1.4,0.9c1.1-0.6,2.8-0.6,2.1,1c-2.2,4.7,2.3,6.4,4.1,8.8c5.5,6.8,11.2,13.3,17.6,19.3
		c3.8,3.6,7.8,6.9,12.2,9.9c-0.5-1.9-0.9-4-1.7-5.8c-1-2.5-1.5-4.8-0.2-7.5c1-2.1,0.2-3.6-2.5-3.5c-2.1,0.1-4.3,0.4-6.3-0.1
		c-3.8-0.9-7-7-6.3-11c1.3-8,5.4-8.7,10.8-8.3c3.9,0.3,8.1,5.5,8.4,10.2c0.1,1.2-0.2,2.3,0.5,3.6c1.1,1.8,2,2.2,3.5,0.5
		c2.8-3.1,2.8-3.1,8-2.4c-2.4-3.4-5.2-5.9-8-8.5c-6.2-5.6-11.5-12-16.2-18.9c-0.5-0.8-1.1-1.8-2.3-1.7c-3,0.1-5.2-0.3-5.9-4
		c-0.3-1.6-2.6-2.8,0.2-4.3c1.1-0.6-0.1-1.5-0.3-2c-0.7-1-0.4-1.6,0.4-2.2c0.9-0.7,1.3,0.1,1.9,0.5c0.5,0.4,1,1.6,1.7,1.1
		c4.2-3.6,2.7,0.9,3.3,2.3c2.6-0.2,3.1-1.1,1.7-3.5c-5.5-9.4-9.6-19.5-13.4-29.7c-3.5-9.6-4.6-19.6-5.9-29.6
		c-0.8-6.2-0.5-12.4-0.6-18.5c-0.1-8.6,2-16.9,3.9-25.2c2.1-9.2,4.7-18.4,9-26.8c4.5-8.8,9.6-17.3,15.8-25.1
		C87,112,92.5,105.7,98.7,100c8.1-7.5,17.2-13.4,26.6-18.8c8.4-4.9,17.3-8.6,26.6-11.6c16.2-5.2,32.7-6.4,49.4-5.5
		c8.4,0.4,16.8,2.3,25.1,4.2C238,71,248.7,75.8,259.2,81c9.7,4.8,18.6,10.9,26.9,17.8C286.3,99,286.7,99,288.1,99.3z"/>
	<path d="M40.5,242.1c1.7-1.3,3-2.6,4.5-3.7c3.6-2.5,4.7-2.3,6.5,1.8c1.9,4.4,4.6,8.2,8.2,11.7c-2.2,2.4-5.3,1.3-8,1.2
		c-1.2,0-2.6-0.5-3.9-0.7c-1-0.2-2.1-1.3-3-0.2c-0.8,1.1-0.2,2.6,0.2,3.6c2.4,7.1,5.4,13.9,8.8,20.6c1.2,2.4,2,4.9,3.2,7.2
		c1.4,2.9,0,4.9-2.2,6.2c-2.4,1.4-4.6,0.5-6.1-1.9c-4.4-7.2-8.4-14.6-12.2-22.1c-1.7-3.3-2.7-7.3-6.6-9.3c-1.7-0.8-2.7-1.2-4,0.7
		c-1.6,2.2-3.8,4-5.7,5.9c-0.5,0.5-1.2,0.6-1.7,0.4c-0.9-0.5,0-1,0.2-1.5c1.4-4.7,1.6-9.4,1.4-14.2c-0.1-2.3,0.3-4.1,3.5-3
		c2.1,0.7,4.9,0.8,6.5,0.3c1.9-0.6-0.4-3.5-0.3-5.6c0.3-5.6-1.1-7.3-6-8.9c-1.7-0.5-3.3-0.4-4.3,1.3c-1.2,2-2.7,3.7-5.6,5.1
		c0.9-3.7,1.3-6.8,2.5-9.6c1.1-2.7,2-5.5,2.2-8.3c0.1-2.2,1.2-1.9,2.4-1.6c2.2,0.5,4.3,1.2,6.5,1.8c0.7-4.6-0.5-8.9-0.6-13.4
		c-0.1-2.2-2.6-2.7-3.7-4.2c-2.2-2.8-3,0.6-4.4,1.1c-1.6,0.7-2.3,2.6-3.5,3.5c-1.3,0.9-2.1,2.4-4,3c1-7.2,4.2-13.5,6-20.2
		c0.3-1.1,1.1-0.9,2-0.6c0.8,0.3,1.1,0.9,1.7,1.3c4.9,2.8,5.6,2.4,5.9-3.5c0-0.6-0.2-1.3,0.1-1.9c1.5-3.4,1.2-5.4-3.2-5
		c-0.5,0-1.2-0.6-2.2-1.2c6.2-2.2,10.3-6.3,13.9-11.4c-0.3,4-0.5,7.8-0.2,11.7c0.2,3.2,0.4,6.5,1.1,9.7c0.5,2.6,1.5,1.9,2.9,1.1
		c1.7-1,2.7-3.8,4.8-3.1c1.6,0.6,0.6,3.3,1.3,5c2,5.5,3.3,11.3,4.9,17.1c-4-0.1-6.3-2.9-8.7-5.1c-1-0.8-1.9-1.5-2.6-1
		c-1,0.7-2.3,2.3-2,3.1c1.3,4.3,0.2,8.9,1.6,13.1c0.9,0.2,0.9-0.5,1.4-0.9c4.1-3.9,4.2-3.9,6.7,1.4c1.5,3.3,3.5,6.3,5.5,9.4
		c0.6,0.9,1.8,2.3,0.9,3.3c-0.5,0.6-2.1,0.2-3.2,0.4c-1.9,0.2-3-1.4-4.6-1.9c-3.4-1-6,0.6-6.2,4.2c-0.1,1.3,0.6,2.3,0.8,3.5
		C39.7,239.4,40.1,240.5,40.5,242.1z"/>
	<path d="M182,25.6c-0.6,2.4-2.1,3.3-3.4,4.4c-6.3,5.3-12.3,10.9-18.1,16.7c-5.6,5.7-10.6,12-14.9,18.8c-0.6,0.9-1.7,1.7-1.6,3.3
		c0,0.8-0.8,1.8-2.8,1.6c-5.3-0.6-9.9-3.2-14.9-4.7c-7.2-2.1-9.1-1.2-12.6,4.8c-2.3,3.8-3.9,8-6.4,11.7c-1.4,2-2.9,2.8-5.1,2.7
		c-3.2,0-6.5,0.2-9.7,0c-3.8-0.3-5.6,1.8-5.7,5.1c-0.1,3.6-1.6,6.8-1.7,10.5c-0.1,3.6-4,4.1-6.6,4.5c-3.5,0.6-6.7,1.9-10.2,2.5
		c-2,0.3-3.5,1.6-3.4,4.3c0.2,5.1-0.1,10.2,0.2,15.3c0.2,4-2,5.9-5.3,7.1c-0.4,0.2-1,0-1.5,0.1c-8.7,2.3-8.6,2.7-9.1,11.4
		c-0.7,12.4-1.3,24.8-3.2,37.1c-1.7,0-1.1-1.2-1.1-1.9c0.1-6.2,0-12.4-0.8-18.5c-1.2-9.9-2.6-19.7-4-29.6c-0.3-2.1-0.1-3.5,2.3-4.2
		c2.4-0.7,4.7-1.8,7.1-2.6c6.7-2.4,6.9-2.8,7.3-9.9c0.2-4.4-0.8-8.6-0.8-12.9c0-2.4,0.7-3.6,3.4-4.3c5.2-1.3,10.3-3.4,15.4-5.1
		c1.7-0.6,2.3-2.2,2.2-3.5c-0.3-5.1,1.8-9.9,1.6-15c-0.1-1.7,0.5-1.8,2.3-1.9c5.6-0.3,11.2-2,16.7-1.7c6.8,0.4,8-4.5,10.2-8.7
		c1.9-3.6,3.6-7.3,5.2-11.1c0.9-2,1.6-2.5,4.1-2c7.7,1.8,14.8,5.2,22.5,6.6c1.7,0.3,2.6-0.1,3.5-0.9c4.8-4.2,9.6-8.5,14.4-12.8
		C164.7,36.4,172.6,30.4,182,25.6z"/>
	<path d="M95.3,55.7c3,0,5.5,2,5.6,4.4c0.1,1.9-3.9,7.6-5.3,7.5c-2.1-0.1-5.2-4.1-5.2-6.8C90.5,58.1,92.8,55.7,95.3,55.7z"/>
	<path d="M67.4,80.4c2.7,0.1,5.2,2.8,5,5.5c-0.2,3.1-2.9,6.5-5.2,6.5c-2.4,0-4.7-3.4-4.5-6.7C62.9,82.3,64.6,80.3,67.4,80.4z"/>
	<path d="M141.4,41.7c0,3.3-1.8,5.1-5.3,5c-2.8,0-4.3-1.5-4.4-4.3c-0.1-2.9,2.5-6.3,4.7-6.1C139.2,36.4,141.4,38.8,141.4,41.7z"/>
	<path d="M49.3,115c0.2,2.2-0.8,4.8-3.9,5.6c-1.7,0.4-5.3-4.8-5.2-7.1c0.1-2.8,2.1-4.2,5.6-4C48.1,109.7,49.6,111.6,49.3,115z"/>
	<path class="st0" d="M99.8,160.3c1.2-4.8,5.8-5.9,9.3-7.9c4.3-2.5,9.8-4.1,12.7-7.9c2.9-3.8,3.7-0.9,5.8,0c3.2,1.4,6.7,0,9.5-1.4
		c3.5-1.9,7.2-1,10.7-1.9c2.4-0.6,4.8-1,6.2-3.2c0.4-0.6,0.8-2.2-0.6-2.9c-2.5-1.3-4.8-0.9-7.4,0.2c-4.1,1.7-7,5.1-10.9,7.1
		c-3.2,1.6-6.3,1.8-9-0.5c-2.5-2.1-1.9-5-1.5-8.1c1.2-8.4,6.5-13.6,12.7-18.5c11.8-9.4,25.2-13.3,40-13.2c8.1,0.1,16.1-0.2,24.2,0.7
		c4.1,0.5,8.2,1.6,12.3,2c4.1,0.5,7.3-0.4,10.7-2.1c9.8-4.8,20.1-7.3,31-6.6c4.4,0.3,8.8,0.7,12.7,3.5c4.8,3.5,4.7,6.8-0.5,9.9
		c-3.2,2-6.5,3.8-9.1,6.6c-3,3.2-3.6,6.5-1.8,10.3c3.6,7.5,10,12.6,15.9,18c5.5,5,9.4,11,12.5,17.8c4.1,9.1,5.4,18.9,5.7,28.6
		c0.6,18.8-4.2,36.5-14.3,52.5c-3.7,5.9-7.9,11.5-12.8,16.3c-4.4,4.3-9.2,8.3-14.4,11.8c-5,3.3-10.1,6.3-15.8,8.4
		c1.3-7.6,6.3-13.6,8.8-20.5c3-8.3,5.3-16.7,6.1-25.6c0.8-9.9-0.8-19.5-4.6-28.6c-3.3-8-7-16.1-14.4-21.4c-4.3-3.1-9.2-4.1-14.2-1.7
		c-2.2,1-3.5,3.2-5,5.1c-3.2,4-3.8,9.1-4.5,13.9c-0.4,2.7-0.8,5-4,5.7c-4,1-6.7-1.1-8.5-4c-3.2-5.2-6.1-10.6-7.3-16.7
		c-0.9-4.5-2.2-8.9-2.7-13.5c-0.2-1.5-0.7-1.7-2-1.8c-8.6-0.7-17.1-2.2-25.3-4.6c-5.6-1.6-11-4.5-15.3-8.5c-1.8-1.7-3.5-1.9-5.7-1.8
		c-10.2,0.7-20,3.7-30.3,3.7C103.1,159.8,101.5,161,99.8,160.3z"/>
	<path class="st0" d="M152.8,265.6c-0.3-0.5-0.5-0.9-0.8-1.3c-3.1-4.5-2.9-6.2,0.6-10.3c1.7-2,3.7-3.7,5.1-6
		c0.8-1.3,1.9-2.9,4.3-2.3c2.4,0.6,3.9,2.1,4.7,4.2c3,7.4,2.1,14.4-2.2,21c-0.2,0.3-0.4,0.6-0.6,0.9c4.5,1.1,1,6.8,5.2,8
		c-0.6,0.3-0.8,0.5-0.9,0.5c-5.5-3.6-10.1-1.1-15,1.8c-7.4,4.3-15.5,5.1-23.9,3.5c-0.9-0.2-1.9-0.3-1.9-1.2c0-0.6,1.1-0.8,1.6-1.2
		c3.6-2.4,5.8-6.2,8.5-9.5c2-2.4,3.6-4.8,6.9-5.6c1.3-0.3,3-0.8,3.9-2.7C149.3,263.1,150.8,266.7,152.8,265.6z"/>
	<path class="st0" d="M290.5,101.5c4.4,0.5,2.8-4.3,5-5.9c-0.6-0.8-1.1-1.8-2.1-1.8c-5.7,0.3-7.2-4.7-10.7-7.9
		c2.6-0.8,4.1,0.3,5.6,1.5c8.1,6.5,15.5,13.7,22.1,21.6c2.8,3.4,5.5,7.2,7.8,11.2c2.2,3.8,1.3,5.4-0.4,8.1c-0.7,1.1-0.4,2.5,0.2,3.9
		c2.1,4.8,3.9,9.8,5.8,14.6c0.3,0.9,0.8,1.8-0.1,2.2c-1.2,0.6-1.6-0.4-2.1-1.4c-1.2-2.8-2.4-5.5-3.7-8.2c-3-6.3-7.1-11.9-10.9-17.7
		c-3.3-5.1-8.1-9.1-11.1-14.4C294.4,105.1,291.1,105,290.5,101.5z"/>
	<path class="st0" d="M356.5,174.8c2.4-0.5,4.7,0.5,7-0.7c1.3-0.6,2.2,0,2.4,2c0.2,2.3-0.3,4.8,0.7,7.1c0.5,1-0.1,1.5-1.4,1.6
		c-4.2,0.3-8.4,0.7-12.6,1.1c-2.6,0.3-5.1-0.3-7.7,0.4c-1.6,0.4-4.1,0-3.5-3c0.3-1.4,0.1-3.2-0.2-4.1c-1.7-4.4,1.2-4,3.7-3.8
		C348.8,175.8,352.6,174,356.5,174.8z"/>
	<path class="st0" d="M360.6,233c-6.3-0.5-12.3-0.9-18.3-1.6c-2.2-0.2-4.5-1.2-2.4-4.2c0.1-0.2,0-0.5,0.1-0.7
		c0.7-5.1,0.8-5.6,5.9-4.6c5.7,1.1,11.5,0.2,17.2,1.3c1.8,0.4,2.6,0.6,2.4,2.5c-0.2,1.8-0.2,3.6-0.7,5.4
		C363.9,234,361.8,232.7,360.6,233z"/>
	<path class="st0" d="M356.2,216.6c-3.5,0.1-7.9-0.2-12.3-0.7c-2.3-0.3-2.7-1.5-2.4-3.2c0.1-0.7,0.8-1.2,0.7-2
		c-0.6-2.9,1.1-2.8,3.3-3.1c6.2-0.9,12.4-0.3,18.5-0.7c2.3-0.1,3.3,0.9,3.4,2.6c0.1,2.1-0.3,4.3-0.6,6.5c-0.1,1-1.1,0.7-1.8,0.7
		C362.4,216.6,359.7,216.6,356.2,216.6z"/>
	<path class="st0" d="M358.2,248.7c-5.7-2.2-12.7-1.5-19.2-3.4c-2.1-0.6-2.7-1-2.2-3.6c0.7-3.4,1.7-4.5,5.4-4.3
		c6.6,0.4,13.2,1.5,19.7,2.4c0.4,0,1,0.1,1,0.3c0.7,2.5-0.9,4.6-1.2,6.9C361.4,248.7,360.2,248.9,358.2,248.7z"/>
	<path class="st0" d="M353.9,191.9c3.7-0.1,7.4,0.1,11-0.7c0.7-0.2,1.9-0.5,1.9,1c0,1.8,0.2,3.7,0.1,5.6c-0.2,3.3-3.2,2-4.2,2
		c-6.2,0.4-12.3,1.1-18.5,0.7c-4.4-0.3-0.8-4-2.7-5.5c-0.5-0.4,0.8-2.1,2.7-2.4C347.5,192.1,350.7,191.8,353.9,191.9z"/>
	<path class="st0" d="M353.4,262.9c-2.1-0.5-4.9-1-7.7-1.6c-4.3-1-8.6-2.2-13-2.8c-1.4-0.2-2.3-0.8-1.2-2.5c0.7-1.2,1.3-2.6,1.7-3.9
		c0.3-1.4,1.2-1,1.9-0.9c6.6,1.2,13.2,2.4,19.9,3.6c3.4,0.6,4.4,3.5,2.2,6.3C356.4,262,355.7,263.2,353.4,262.9z"/>
	<path class="st1" d="M100.6,309.3c-0.6-0.3-1.4-0.5-1.9-1c-7.8-8.4-16.9-15.5-24-24.6c-1.8-2.4,0.8-4.1,0.3-6.2
		C82.1,289.3,91.4,299.3,100.6,309.3z"/>
	<path class="st1" d="M289.1,314.5c-2.2,3.5-6.1,5.2-8.7,8.2c-0.5,0.6-1.7,0.6-2-1c-0.4-2.3-0.9-4.6-2.9-6.2
		c-0.3-0.2-0.8-0.3-0.4-0.7c0.4-0.5,1-1,1.6-1.4l5.2-0.3C284,314.6,286.6,313.4,289.1,314.5z"/>
	<path class="st2" d="M125.7,335.1c-4.3,1.4-6.3-1.7-8.6-2.9c-3-1.7-6.2-3.4-8.8-5.9c-0.8-0.7-1.5-1.3-1.9-2.3
		c1.1-0.3,2.4,0,3.4-0.9c0.5,0.8,2.4,0.3,2.1,2c-0.6,2.8,3.5,1,3.4,3.5c0,0.8,0.5,0.8,3.2-0.3c1-0.4,1.3,0.4,1.8,0.9
		C122.2,330.8,122.8,333.4,125.7,335.1z"/>
	<path class="st0" d="M303.9,286.9c-1,4.5-4.3,7.2-8.2,9.4c2.8-3.1,4-7.4,8.3-9.3L303.9,286.9z"/>
	<path class="st2" d="M304,287c0.5-3.8,3.7-5.9,5.6-8.9c-0.2,4.1-1.3,7.5-5.7,8.8C303.9,286.9,304,287,304,287z"/>
	<path class="st0" d="M104,312.1c2.2-0.1,2.8,1.9,4.1,2.9C105.8,315.3,105.2,313.3,104,312.1z"/>
	<g>
		<path d="M511.7,164h-42.5l-7.4,24h-33.1l47.2-128.7H505L552.5,188h-33.3L511.7,164z M476.6,140.1h27.7l-13.9-44.6L476.6,140.1z"/>
		<path d="M588.7,92.4l1,11.2c6.8-8.7,15.9-13,27.3-13c12.1,0,20.2,4.8,24.5,14.4c6.5-9.6,15.8-14.4,28.1-14.4
			c19.4,0,29.3,11.7,29.9,35.2V188h-29.9v-60.4c0-4.9-0.8-8.5-2.5-10.7c-1.7-2.2-4.7-3.4-9-3.4c-5.9,0-10.3,2.6-13.2,7.9l0.1,1.2
			V188h-29.9v-60.2c0-5-0.8-8.6-2.4-10.9c-1.6-2.2-4.6-3.4-9.1-3.4c-5.7,0-10.1,2.6-13.1,7.9V188h-29.8V92.4H588.7z"/>
		<path d="M762.7,189.8c-14.7,0-26.5-4.4-35.6-13.1c-9.1-8.8-13.6-20.1-13.6-34.2v-2.5c0-9.8,1.8-18.4,5.4-25.9
			c3.6-7.5,8.9-13.3,15.9-17.4c7-4.1,15.2-6.1,24.7-6.1c13.4,0,24,4.2,31.8,12.5c7.8,8.3,11.7,20,11.7,34.9v11.6h-59.2
			c1.1,5.4,3.4,9.6,7,12.6c3.6,3.1,8.2,4.6,14,4.6c9.4,0,16.8-3.3,22.1-9.9l13.6,16.1c-3.7,5.1-9,9.2-15.8,12.2
			C777.8,188.3,770.5,189.8,762.7,189.8z M759.3,113.6c-8.7,0-13.9,5.8-15.6,17.3h30v-2.3c0.1-4.8-1.1-8.5-3.6-11.1
			C767.7,114.9,764,113.6,759.3,113.6z"/>
		<path d="M872.8,119.4l-9.8-0.7c-9.4,0-15.4,2.9-18,8.8V188h-29.8V92.4h27.9l1,12.3c5-9.4,12-14.1,20.9-14.1c3.2,0,6,0.4,8.3,1.1
			L872.8,119.4z"/>
		<path d="M883.3,67.8c0-4.2,1.5-7.7,4.6-10.4c3.1-2.7,7-4.1,11.9-4.1c4.9,0,8.9,1.4,11.9,4.1c3.1,2.7,4.6,6.2,4.6,10.4
			s-1.5,7.7-4.6,10.4c-3.1,2.7-7,4.1-11.9,4.1c-4.9,0-8.9-1.4-11.9-4.1C884.9,75.5,883.3,72,883.3,67.8z M915,188h-29.9V92.4H915
			V188z"/>
		<path d="M973.7,166.8c4.2,0,7.4-1.1,9.7-3.4c2.3-2.3,3.4-5.4,3.4-9.5h27.9c0,10.5-3.8,19.1-11.3,25.8c-7.5,6.7-17.2,10.1-29,10.1
			c-13.9,0-24.9-4.4-32.9-13.1c-8-8.7-12-20.8-12-36.2v-1.2c0-9.7,1.8-18.2,5.3-25.6c3.6-7.4,8.7-13.1,15.4-17.1
			c6.7-4,14.7-6,23.9-6c12.4,0,22.3,3.4,29.6,10.3c7.3,6.9,11,16.2,11,28h-27.9c0-4.9-1.2-8.7-3.6-11.4c-2.4-2.7-5.7-4-9.7-4
			c-7.7,0-12.2,4.9-13.5,14.8c-0.4,3.1-0.6,7.4-0.6,12.9c0,9.6,1.1,16.3,3.4,20S968.7,166.8,973.7,166.8z"/>
		<path d="M1081.2,188c-1.1-1.9-2-4.8-2.8-8.6c-5.5,6.9-13.1,10.3-23,10.3c-9,0-16.7-2.7-23-8.2c-6.3-5.4-9.5-12.3-9.5-20.5
			c0-10.4,3.8-18.2,11.5-23.5c7.7-5.3,18.8-8,33.4-8h9.2v-5.1c0-8.8-3.8-13.2-11.4-13.2c-7.1,0-10.6,3.5-10.6,10.5h-29.8
			c0-9.2,3.9-16.7,11.8-22.5c7.9-5.8,17.9-8.7,30.1-8.7c12.2,0,21.8,3,28.9,8.9c7.1,6,10.7,14.1,10.9,24.5v42.3
			c0.1,8.8,1.5,15.5,4.1,20.2v1.5H1081.2z M1062.6,168.6c3.7,0,6.8-0.8,9.2-2.4c2.4-1.6,4.2-3.4,5.3-5.4v-15.3h-8.7
			c-10.4,0-15.6,4.7-15.6,14c0,2.7,0.9,4.9,2.7,6.6C1057.4,167.8,1059.7,168.6,1062.6,168.6z"/>
		<path d="M1150.8,92.4l1,11.2c6.6-8.7,15.7-13,27.3-13c10,0,17.4,3,22.3,8.9c4.9,6,7.5,14.9,7.6,26.9V188h-29.9v-60.4
			c0-4.8-1-8.4-2.9-10.6c-1.9-2.3-5.5-3.4-10.6-3.4c-5.8,0-10.2,2.3-13,6.9V188h-29.8V92.4H1150.8z"/>
		<path d="M1305,188h-30.9V59.4h30.9V188z"/>
		<path d="M1352.5,92.4l1,11.2c6.6-8.7,15.7-13,27.3-13c10,0,17.4,3,22.3,8.9c4.9,6,7.5,14.9,7.6,26.9V188h-29.9v-60.4
			c0-4.8-1-8.4-2.9-10.6c-1.9-2.3-5.5-3.4-10.6-3.4c-5.8,0-10.2,2.3-13,6.9V188h-29.8V92.4H1352.5z"/>
		<path d="M1423.5,139.5c0-15.1,3.3-27.1,9.8-35.8c6.5-8.7,15.7-13.1,27.4-13.1c8.5,0,15.7,3.4,21.6,10.1V52.3h29.9V188h-26.8
			l-1.5-10.3c-6.1,8-13.9,12-23.3,12c-11.4,0-20.4-4.4-27-13.1C1426.8,168,1423.5,155.6,1423.5,139.5z M1453.3,141.4
			c0,17,4.9,25.5,14.8,25.5c6.6,0,11.3-2.8,14.1-8.3v-36.4c-2.7-5.7-7.4-8.5-14-8.5c-9.2,0-14.2,7.4-14.9,22.3L1453.3,141.4z"/>
		<path d="M1528.8,67.8c0-4.2,1.5-7.7,4.6-10.4c3.1-2.7,7-4.1,11.9-4.1c4.9,0,8.9,1.4,11.9,4.1c3.1,2.7,4.6,6.2,4.6,10.4
			s-1.5,7.7-4.6,10.4c-3.1,2.7-7,4.1-11.9,4.1c-4.9,0-8.9-1.4-11.9-4.1C1530.4,75.5,1528.8,72,1528.8,67.8z M1560.5,188h-29.9V92.4
			h29.9V188z"/>
		<path d="M1632.7,188c-1.1-1.9-2-4.8-2.8-8.6c-5.5,6.9-13.1,10.3-23,10.3c-9,0-16.7-2.7-23-8.2c-6.3-5.4-9.5-12.3-9.5-20.5
			c0-10.4,3.8-18.2,11.5-23.5c7.7-5.3,18.8-8,33.4-8h9.2v-5.1c0-8.8-3.8-13.2-11.4-13.2c-7.1,0-10.6,3.5-10.6,10.5h-29.8
			c0-9.2,3.9-16.7,11.8-22.5c7.9-5.8,17.9-8.7,30.1-8.7c12.2,0,21.8,3,28.9,8.9c7.1,6,10.7,14.1,10.9,24.5v42.3
			c0.1,8.8,1.5,15.5,4.1,20.2v1.5H1632.7z M1614,168.6c3.7,0,6.8-0.8,9.2-2.4c2.4-1.6,4.2-3.4,5.3-5.4v-15.3h-8.7
			c-10.4,0-15.6,4.7-15.6,14c0,2.7,0.9,4.9,2.7,6.6C1608.9,167.8,1611.2,168.6,1614,168.6z"/>
		<path d="M1702.2,92.4l1,11.2c6.6-8.7,15.7-13,27.3-13c10,0,17.4,3,22.3,8.9c4.9,6,7.5,14.9,7.6,26.9V188h-29.9v-60.4
			c0-4.8-1-8.4-2.9-10.6c-1.9-2.3-5.5-3.4-10.6-3.4c-5.8,0-10.2,2.3-13,6.9V188h-29.8V92.4H1702.2z"/>
		<path d="M546.2,344h-30.8v-53.7h-45.7V344h-31V215.4h31v51.1h45.7v-51.1h30.8V344z"/>
		<path d="M610.7,345.8c-14.7,0-26.5-4.4-35.6-13.1c-9.1-8.8-13.6-20.1-13.6-34.2v-2.5c0-9.8,1.8-18.4,5.4-25.9
			c3.6-7.5,8.9-13.3,15.9-17.4c7-4.1,15.2-6.1,24.7-6.1c13.4,0,24,4.2,31.8,12.5c7.8,8.3,11.7,20,11.7,34.9v11.6h-59.2
			c1.1,5.4,3.4,9.6,7,12.6c3.6,3.1,8.2,4.6,14,4.6c9.4,0,16.8-3.3,22.1-9.9l13.6,16.1c-3.7,5.1-9,9.2-15.8,12.2
			C625.8,344.3,618.5,345.8,610.7,345.8z M607.3,269.6c-8.7,0-13.9,5.8-15.6,17.3h30v-2.3c0.1-4.8-1.1-8.5-3.6-11.1
			C615.7,270.9,612,269.6,607.3,269.6z"/>
		<path d="M716.8,344c-1.1-1.9-2-4.8-2.8-8.6c-5.5,6.9-13.1,10.3-23,10.3c-9,0-16.7-2.7-23-8.2c-6.3-5.4-9.5-12.3-9.5-20.5
			c0-10.4,3.8-18.2,11.5-23.5c7.7-5.3,18.8-8,33.4-8h9.2v-5.1c0-8.8-3.8-13.2-11.4-13.2c-7.1,0-10.6,3.5-10.6,10.5h-29.8
			c0-9.2,3.9-16.7,11.8-22.5c7.9-5.8,17.9-8.7,30.1-8.7c12.2,0,21.8,3,28.9,8.9c7.1,6,10.7,14.1,10.9,24.5v42.3
			c0.1,8.8,1.5,15.5,4.1,20.2v1.5H716.8z M698.2,324.6c3.7,0,6.8-0.8,9.2-2.4c2.4-1.6,4.2-3.4,5.3-5.4v-15.3H704
			c-10.4,0-15.6,4.7-15.6,14c0,2.7,0.9,4.9,2.7,6.6C693,323.8,695.3,324.6,698.2,324.6z"/>
		<path d="M790.4,344h-29.9V208.3h29.9V344z"/>
		<path d="M843.5,224.6v23.8h15.7v20.7h-15.7v43.7c0,3.6,0.6,6.1,1.9,7.5s3.9,2.1,7.7,2.1c2.9,0,5.4-0.2,7.4-0.5v21.3
			c-5.4,1.7-11,2.6-16.8,2.6c-10.3,0-17.8-2.4-22.7-7.2c-4.9-4.8-7.3-12.2-7.3-22v-47.5h-12.2v-20.7h12.2v-23.8H843.5z"/>
		<path d="M900,258.7c6.4-8,14.5-12,24.4-12c10.5,0,18.5,3.1,23.9,9.4c5.4,6.2,8.1,15.5,8.2,27.7V344h-29.9v-59.7
			c0-5.1-1-8.8-3.1-11.2c-2.1-2.4-5.6-3.6-10.5-3.6c-6.1,0-10.5,1.9-13,5.8V344h-29.8V208.3H900V258.7z"/>
		<path d="M1037.3,276.3c-3.5-4.9-6.2-9.7-8.2-14.1c-2-4.5-3-9.1-3-13.9c0-10.4,3.4-18.8,10.1-25.1c6.7-6.4,15.5-9.6,26.3-9.6
			c9.7,0,17.8,3,24.1,8.9c6.4,5.9,9.5,13.3,9.5,22.1c0,11-6,20.7-18.1,29.2l-6.7,4.7l19.8,22.7c3.2-6.5,4.9-13.6,4.9-21.3h25
			c0,17.4-4,31.3-12,41.8l19.6,22.5h-33.2l-6-6.8c-4.9,2.9-10,5.1-15.2,6.5c-5.2,1.4-11,2.1-17.5,2.1c-12.7,0-22.9-3.3-30.6-10
			c-7.7-6.7-11.5-15.5-11.5-26.4c0-6,1.5-11.3,4.6-16.2c3-4.8,8.9-10.5,17.7-16.9L1037.3,276.3z M1058.8,322.9
			c5.2,0,10.1-1.2,14.8-3.6l-23.2-26.3l-0.8,0.5c-3.4,4.1-5,8.8-5,14c0,4.3,1.4,8,4.1,11C1051.4,321.4,1054.8,322.9,1058.8,322.9z
			 M1051.9,247.9c0,4.1,2.2,9.1,6.7,15l5.9-3.7c2.7-1.8,4.7-3.6,5.9-5.5c1.2-1.9,1.9-4.3,1.9-7.2c0-2.7-0.9-5.1-2.8-7.1
			c-1.9-2-4.2-3-7-3c-3.3,0-5.9,1-7.8,3.1C1052.8,241.7,1051.9,244.5,1051.9,247.9z"/>
		<path d="M1252.9,309.8c0-4.5-1.6-8.1-4.8-10.6c-3.2-2.5-8.9-5.2-16.9-7.9c-8.1-2.7-14.7-5.3-19.8-7.9c-16.7-8.2-25-19.4-25-33.8
			c0-7.1,2.1-13.4,6.2-18.9c4.2-5.4,10-9.7,17.6-12.7c7.6-3,16.1-4.6,25.6-4.6c9.2,0,17.5,1.7,24.9,4.9c7.3,3.3,13,8,17.1,14.1
			c4.1,6.1,6.1,13.1,6.1,20.9H1253c0-5.2-1.6-9.3-4.8-12.2c-3.2-2.9-7.6-4.3-13-4.3c-5.5,0-9.9,1.2-13.1,3.7
			c-3.2,2.4-4.8,5.6-4.8,9.3c0,3.3,1.8,6.3,5.3,9c3.5,2.7,9.8,5.5,18.6,8.3c8.9,2.9,16.2,5.9,21.9,9.2c13.9,8,20.9,19.1,20.9,33.1
			c0,11.3-4.2,20.1-12.7,26.5s-20.1,9.6-34.9,9.6c-10.4,0-19.9-1.9-28.3-5.6c-8.5-3.7-14.8-8.9-19.1-15.4c-4.3-6.5-6.4-14-6.4-22.5
			h31.1c0,6.9,1.8,12,5.3,15.2c3.6,3.3,9.4,4.9,17.4,4.9c5.1,0,9.2-1.1,12.2-3.3C1251.4,317,1252.9,313.8,1252.9,309.8z"/>
		<path d="M1344.8,345.8c-14.7,0-26.5-4.4-35.6-13.1c-9.1-8.8-13.6-20.1-13.6-34.2v-2.5c0-9.8,1.8-18.4,5.4-25.9
			c3.6-7.5,8.9-13.3,15.9-17.4c7-4.1,15.2-6.1,24.7-6.1c13.4,0,24,4.2,31.8,12.5c7.8,8.3,11.7,20,11.7,34.9v11.6h-59.2
			c1.1,5.4,3.4,9.6,7,12.6c3.6,3.1,8.2,4.6,14,4.6c9.4,0,16.8-3.3,22.1-9.9l13.6,16.1c-3.7,5.1-9,9.2-15.8,12.2
			C1359.9,344.3,1352.6,345.8,1344.8,345.8z M1341.4,269.6c-8.7,0-13.9,5.8-15.6,17.3h30v-2.3c0.1-4.8-1.1-8.5-3.6-11.1
			C1349.7,270.9,1346.1,269.6,1341.4,269.6z"/>
		<path d="M1454.9,275.4l-9.8-0.7c-9.4,0-15.4,2.9-18,8.8V344h-29.8v-95.6h27.9l1,12.3c5-9.4,12-14.1,20.9-14.1c3.2,0,6,0.4,8.3,1.1
			L1454.9,275.4z"/>
		<path d="M1505.3,308.6l15.1-60.2h31.4l-31.2,95.6h-30.4l-31.2-95.6h31.5L1505.3,308.6z"/>
		<path d="M1560.5,223.8c0-4.2,1.5-7.7,4.6-10.4c3.1-2.7,7-4.1,11.9-4.1c4.9,0,8.9,1.4,11.9,4.1c3.1,2.7,4.6,6.2,4.6,10.4
			s-1.5,7.7-4.6,10.4c-3.1,2.7-7,4.1-11.9,4.1c-4.9,0-8.9-1.4-11.9-4.1C1562,231.5,1560.5,228,1560.5,223.8z M1592.1,344h-29.9
			v-95.6h29.9V344z"/>
		<path d="M1650.9,322.8c4.2,0,7.4-1.1,9.7-3.4c2.3-2.3,3.4-5.4,3.4-9.5h27.9c0,10.5-3.8,19.1-11.3,25.8c-7.5,6.7-17.2,10.1-29,10.1
			c-13.9,0-24.9-4.4-32.9-13.1c-8-8.7-12-20.8-12-36.2v-1.2c0-9.7,1.8-18.2,5.3-25.6c3.6-7.4,8.7-13.1,15.4-17.1
			c6.7-4,14.7-6,23.9-6c12.4,0,22.3,3.4,29.6,10.3c7.3,6.9,11,16.2,11,28H1664c0-4.9-1.2-8.7-3.6-11.4c-2.4-2.7-5.7-4-9.7-4
			c-7.7,0-12.2,4.9-13.5,14.8c-0.4,3.1-0.6,7.4-0.6,12.9c0,9.6,1.1,16.3,3.4,20S1645.9,322.8,1650.9,322.8z"/>
		<path d="M1750.8,345.8c-14.7,0-26.5-4.4-35.6-13.1c-9.1-8.8-13.6-20.1-13.6-34.2v-2.5c0-9.8,1.8-18.4,5.4-25.9
			c3.6-7.5,8.9-13.3,15.9-17.4c7-4.1,15.2-6.1,24.7-6.1c13.4,0,24,4.2,31.8,12.5c7.8,8.3,11.7,20,11.7,34.9v11.6h-59.2
			c1.1,5.4,3.4,9.6,7,12.6c3.6,3.1,8.2,4.6,14,4.6c9.4,0,16.8-3.3,22.1-9.9l13.6,16.1c-3.7,5.1-9,9.2-15.8,12.2
			C1765.9,344.3,1758.6,345.8,1750.8,345.8z M1747.4,269.6c-8.7,0-13.9,5.8-15.6,17.3h30v-2.3c0.1-4.8-1.1-8.5-3.6-11.1
			C1755.7,270.9,1752.1,269.6,1747.4,269.6z"/>
		<path d="M1853.1,317.2c0-2.5-1.3-4.6-4-6.1c-2.7-1.5-7.7-3.1-15.1-4.8c-7.4-1.6-13.6-3.8-18.4-6.5c-4.8-2.7-8.5-5.9-11-9.8
			c-2.5-3.8-3.8-8.2-3.8-13.2c0-8.8,3.6-16,10.9-21.7c7.2-5.7,16.7-8.5,28.5-8.5c12.6,0,22.7,2.9,30.4,8.6
			c7.7,5.7,11.5,13.2,11.5,22.5h-29.9c0-7.7-4-11.5-12.1-11.5c-3.1,0-5.7,0.9-7.9,2.6c-2.1,1.7-3.2,3.9-3.2,6.5
			c0,2.7,1.3,4.8,3.9,6.5c2.6,1.7,6.7,3,12.4,4.1c5.7,1.1,10.7,2.3,15,3.8c14.4,4.9,21.6,13.8,21.6,26.6c0,8.7-3.9,15.8-11.6,21.3
			c-7.7,5.5-17.8,8.2-30.1,8.2c-8.2,0-15.5-1.5-21.9-4.4c-6.4-2.9-11.4-7-15-12c-3.6-5.1-5.4-10.4-5.4-16h27.8
			c0.1,4.4,1.6,7.6,4.4,9.7c2.8,2,6.5,3,10.9,3c4.1,0,7.1-0.8,9.1-2.5C1852.1,322,1853.1,319.8,1853.1,317.2z"/>
	</g>
</g>
</svg>
