<svg viewBox="0 0 329 59" xmlns="http://www.w3.org/2000/svg" fill-rule="evenodd" clip-rule="evenodd" stroke-linejoin="round" stroke-miterlimit="2"><g fill-rule="nonzero"><path d="M90.1 44.52l-5.88-13.96H63.57l-5.9 13.96h-2.01L73.65 2.17h.48l18 42.43H90.1v-.08zM73.9 6.02l-9.6 22.94h19.19l-9.6-22.94zM141.49 44.52l-.8-37.22-16.46 29.6h-.49L107.37 7.22l-.89 37.3h-1.85L106 2.4l.64-.08 17.5 31.76 17.43-31.76.65.08 1.2 42.1h-1.93zM198.6 23.66c0 3.05-.56 5.86-1.61 8.5a20.27 20.27 0 01-10.9 11.24 19.82 19.82 0 01-8.22 1.6c-2.9 0-5.65-.56-8.23-1.6a20.6 20.6 0 01-6.53-4.5 21.08 21.08 0 01-4.36-6.73 22.48 22.48 0 01-1.61-8.5c0-3.06.56-5.86 1.61-8.51a20.6 20.6 0 014.36-6.82 19.38 19.38 0 016.53-4.49c2.5-1.04 5.25-1.6 8.23-1.6 2.9 0 5.65.56 8.23 1.6a18.63 18.63 0 016.53 4.5 20.63 20.63 0 014.36 6.81 22.8 22.8 0 011.61 8.5zm-2.01 0c0-2.8-.49-5.45-1.38-7.78-.96-2.4-2.26-4.49-3.87-6.25a17.86 17.86 0 00-5.89-4.17 17.66 17.66 0 00-7.5-1.53c-2.74 0-5.24.48-7.5 1.53a18.2 18.2 0 00-9.76 10.42 20.53 20.53 0 00-1.37 7.78c0 2.81.48 5.38 1.37 7.78.97 2.41 2.26 4.5 3.87 6.26a19.15 19.15 0 005.89 4.17 17.68 17.68 0 007.5 1.53c2.74 0 5.25-.49 7.5-1.53a18.23 18.23 0 009.76-10.43c.97-2.4 1.37-4.97 1.37-7.78zM236.76 44.52l-11.78-17.49c-1.29.24-2.82.4-4.44.4-.8 0-1.77 0-2.82-.08a20.01 20.01 0 01-2.66-.32v17.49h-1.86V3.12a161 161 0 004.2-.47c1.2-.16 2.58-.16 4.11-.16 5 0 8.8 1.12 11.54 3.28 2.74 2.17 4.11 5.22 4.11 8.99 0 2.8-.89 5.3-2.66 7.38-1.78 2.16-4.28 3.6-7.58 4.5l12.18 17.88h-2.34zm-1.62-29.76c0-1.53-.32-2.97-.88-4.25a9.47 9.47 0 00-2.58-3.37 11.3 11.3 0 00-4.28-2.17c-1.7-.48-3.71-.8-5.97-.8-1.2 0-2.26 0-3.14.08-.9.08-2.02.24-3.31.4v20.78c.72.08 1.61.24 2.66.32.97.08 1.94.16 2.9.16 2.26 0 4.28-.24 6.05-.8 1.78-.48 3.31-1.29 4.6-2.25a9.4 9.4 0 002.9-3.53 9.55 9.55 0 001.05-4.57zM252.4 44.6V2.73h22.92V4.4h-20.98v18.13h18.96v1.6h-18.96v18.77h20.98v1.69H252.4zM325.9 44.52l-.81-37.22-16.46 29.6h-.48L291.77 7.22l-.89 37.3h-1.85L290.4 2.4l.65-.08 17.5 31.76L325.9 2.33l.65.08 1.21 42.1h-1.86z" fill="#001231"/><g fill="#d1e0f1"><path d="M17.75 34.81a12.97 12.97 0 005.88-10.18 12.98 12.98 0 00-5.88 10.18zM23.55 22.94a13.01 13.01 0 00-5.88-9.87 12.9 12.9 0 005.4 9.63l.49.24zM36.46 23.82a13.14 13.14 0 00-11.37 0c.08.08.24.16.32.24a13.6 13.6 0 0011.05-.24z"/></g><g fill="#a9c9e5"><path d="M11.54 23.74a13.23 13.23 0 0011.53.08c-.16-.08-.32-.24-.48-.32a13 13 0 00-11.06.24zM30.33 34.41a12.9 12.9 0 00-5.4-9.62c-.09-.08-.25-.08-.33-.16a13.19 13.19 0 005.73 9.78zM28.72 18.61a12.85 12.85 0 001.7-5.78 12.97 12.97 0 00-5.9 10.2 12.97 12.97 0 004.2-4.42z"/></g><g fill="#f7d880"><path d="M31.3 12.27c0 2.33-.57 4.66-1.86 6.82a12.6 12.6 0 01-2.42 3.05c3.31-.88 7.02-.56 10.25 1.2a12.76 12.76 0 004.6-4.65c.32-.48.56-1.04.72-1.6l-3.63-6.26c-2.58-.4-5.24.16-7.66 1.44zM10.65 23.18A13.96 13.96 0 0120.8 21.9a14.02 14.02 0 01-4.03-9.3 13.23 13.23 0 00-8.31-1.37l-3.15 5.45a12 12 0 005.33 6.5zM24.12 27.27c-.32 1.2-.8 2.49-1.45 3.61a13.28 13.28 0 01-4.92 4.98c.08 2.64 1.04 5.29 2.66 7.46h7.18a12.88 12.88 0 002.74-7.86 13.9 13.9 0 01-6.21-8.19z"/></g><g fill="#d1e0f1"><path d="M38.56 9.87l-2.34-4.01a3.3 3.3 0 00-2.9-1.69l-4.68-.16a14.13 14.13 0 012.66 7.3 12.76 12.76 0 017.26-1.44zM16.78 11.55c.08-2.17.64-4.25 1.85-6.26.25-.4.49-.8.73-1.12h-4.92a3.4 3.4 0 00-2.9 1.69l-2.59 4.4a14 14 0 017.83 1.3zM31.22 35.94a12.8 12.8 0 01-1.86 6.25c-.24.4-.48.72-.72 1.13h4.6a3.4 3.4 0 002.9-1.69l2.5-4.25c-2.42.16-5-.24-7.42-1.44zM43.32 17.97a13.45 13.45 0 01-5.08 5.86 14.05 14.05 0 015.08 5.77l2.34-4.17a3.4 3.4 0 000-3.3l-2.34-4.16zM9.36 37.7l2.26 3.85a3.3 3.3 0 002.9 1.69h4.84a13.71 13.71 0 01-2.42-6.98c-2.42 1.2-5 1.68-7.58 1.44zM5.24 28.48a14.2 14.2 0 014.52-4.74 13.57 13.57 0 01-5.08-6.01l-2.58 4.4a3.4 3.4 0 000 3.3l2.58 4.25c.16-.4.32-.8.56-1.2z"/></g><g fill="#5aa3d2"><path d="M24.04 20.37c.32-1.2.8-2.48 1.45-3.6a13.28 13.28 0 014.92-4.98 12.62 12.62 0 00-3.79-8.66c-.73-.8-1.61-1.45-2.58-2-.97.55-1.86 1.28-2.66 2.08-.24.32-.57.56-.81.88-.4.4-.8 1.04-1.21 1.69-1.13 2-1.7 4.17-1.7 6.25a13.94 13.94 0 016.38 8.34zM43 30.96a12.5 12.5 0 00-5.57-6.66 13.96 13.96 0 01-10.16 1.29 14.07 14.07 0 014.03 9.38 13.1 13.1 0 008.63 1.45l1.21-.24c.97-.24 1.86-.64 2.74-1.13 0-.96-.16-1.92-.4-2.88-.24-.4-.4-.8-.48-1.2zM16.86 35.37c0-2.32.56-4.65 1.86-6.81a12.6 12.6 0 012.42-3.05c-3.4.88-7.18.56-10.41-1.28a12.75 12.75 0 00-4.6 4.65c-.4.64-.64 1.28-.97 2-.16.4-.32.72-.4 1.13-.32 1.12-.4 2.16-.4 3.28.96.57 2.01.97 3.06 1.2l1.13.25c2.9.48 5.8-.08 8.3-1.37z"/></g><path d="M37.1 4.33a3.3 3.3 0 00-2.9-1.68H27.6c-.73-.8-1.61-1.53-2.58-2.17l-.65-.4c-.08 0-.16 0-.24-.08-.32.16-.65.32-.89.56a13.2 13.2 0 00-2.58 2.17h-7.02a3.7 3.7 0 00-1.61.4h-.08a4.3 4.3 0 00-1.21 1.2L.4 22.06c-.32.56-.4 1.2-.4 1.84 0 .49.16.97.4 1.45l3.63 6.17a14.77 14.77 0 00-.56 3.3v1.04c.08.08.16.08.24.16.24.16.4.24.65.32.96.48 2.01.88 3.06 1.12l3.23 5.7a3.3 3.3 0 002.9 1.68h20.57a3.4 3.4 0 002.9-1.69l3.47-6.01a13.33 13.33 0 004.04-1.6v-1.05a15.03 15.03 0 00-.65-3.2l3.4-5.94a3.4 3.4 0 000-3.3L37.1 4.34zm5.65 12.68c-.24.56-.48 1.04-.72 1.6-1.13 2-2.75 3.53-4.6 4.65a13.93 13.93 0 00-10.24-1.2A15 15 0 0029.6 19a13.98 13.98 0 001.85-6.82 12.94 12.94 0 017.74-1.44L42.75 17zm-17.82 7.78a12.9 12.9 0 015.4 9.62 13.05 13.05 0 01-5.73-9.78c.08.08.25.08.33.16zm-.4-1.77c.07-2 .64-4 1.69-5.77a12.97 12.97 0 014.2-4.42 12.97 12.97 0 01-5.89 10.19zm.8.96c-.08-.08-.24-.16-.32-.24a13.15 13.15 0 0111.37 0 12.98 12.98 0 01-11.05.24zm7.99-19.8a3.4 3.4 0 012.9 1.68l2.34 4c-2.5-.15-5 .33-7.26 1.45a14.13 14.13 0 00-2.66-7.3l4.67.16zm-12.67-.25c.24-.32.56-.64.8-.88.81-.8 1.7-1.53 2.67-2.09.97.56 1.85 1.29 2.58 2 .24.33.56.57.8.89a13.31 13.31 0 013 7.78 13.89 13.89 0 00-6.38 8.58 13.94 13.94 0 00-6.37-8.34c0-2.16.56-4.33 1.7-6.26.31-.48.72-1.12 1.2-1.68zm2.02 19.57c.16.08.32.24.48.32a13.23 13.23 0 01-11.53-.08 12.97 12.97 0 0111.05-.24zm-5-10.43a12.8 12.8 0 015.88 9.87l-.48-.24a13 13 0 01-5.4-9.62zm5.96 11.56c-.08 2-.64 4-1.69 5.77a12.97 12.97 0 01-4.2 4.41c.09-2 .65-4 1.7-5.77a12.29 12.29 0 014.2-4.41zM11.62 5.86a3.3 3.3 0 012.9-1.69h4.92c-.24.4-.48.72-.73 1.12-1.13 2-1.69 4.1-1.85 6.26-2.5-1.2-5.16-1.6-7.75-1.28l2.5-4.41zm-3.15 5.37c2.74-.48 5.73-.08 8.3 1.36a13.65 13.65 0 004.04 9.3c-3.47-.87-7.1-.4-10.16 1.3a12.52 12.52 0 01-5.4-6.5l3.22-5.46zm-6.3 14.12a3.4 3.4 0 010-3.3l2.5-4.4c1.06 2.4 2.75 4.49 5.1 6.01a15.3 15.3 0 00-4.53 4.82c-.24.4-.4.8-.56 1.2l-2.5-4.33zM7.43 36.5c-1.05-.24-2.1-.64-3.06-1.2 0-1.13.16-2.25.4-3.3.08-.4.24-.8.32-1.12.32-.72.57-1.36.97-2 1.13-2 2.74-3.53 4.6-4.66a14 14 0 0010.4 1.29c-.88.88-1.77 1.92-2.42 3.05a13.98 13.98 0 00-1.85 6.81 13.3 13.3 0 01-8.23 1.45c-.4-.08-.73-.16-1.13-.32zm7.02 6.82a3.4 3.4 0 01-2.9-1.69L9.35 37.7c2.58.24 5.24-.24 7.58-1.44a14.5 14.5 0 002.42 6.97l-4.92.09zm13.15 0H20.4a13.11 13.11 0 01-2.66-7.46 13.9 13.9 0 006.37-8.59 13.67 13.67 0 006.21 8.19c0 2.16-.56 4.33-1.7 6.33-.32.48-.64 1.04-1.04 1.53zm8.63-1.69a3.3 3.3 0 01-2.9 1.69h-4.6a13.71 13.71 0 002.58-7.38c2.34 1.2 4.92 1.6 7.42 1.44l-2.5 4.25zm4.84-5.53l-1.21.24c-2.82.48-5.89.08-8.63-1.45a14.01 14.01 0 00-4.04-9.38c3.47.88 7.1.4 10.17-1.28a12.8 12.8 0 015.56 6.65c.17.4.25.72.4 1.13.25.96.41 1.92.41 2.88-.8.57-1.7.97-2.66 1.2zm4.6-10.75l-2.34 4.17a13 13 0 00-5.08-5.78 13.46 13.46 0 005.08-5.85l2.34 4.09c.56 1.12.56 2.4 0 3.37z" fill="#001231"/></g><g fill="#7a7a7a" fill-rule="nonzero"><path d="M3.5 53.8v1.68h2v.46h-2v2.05H3v-4.65h2.72v.46H3.51zM6.54 55.66c0-1.4 1.09-2.41 2.34-2.41 1.25 0 2.3 1.02 2.3 2.42s-1.08 2.4-2.33 2.4c-1.26 0-2.31-1-2.31-2.4zm4.1 0c0-1.1-.74-1.94-1.76-1.94-1.03 0-1.78.86-1.78 1.95 0 1.08.75 1.94 1.78 1.94 1.02.01 1.76-.84 1.76-1.95zM12.35 53.38c.34-.04.69-.08 1.07-.08 1.2 0 1.8.6 1.8 1.4 0 .66-.37 1.15-1.02 1.35l1.36 1.94h-.61l-1.26-1.83-.3.01-.53-.01v1.83h-.51v-4.61zm2.3 1.36c0-.55-.4-.98-1.16-.98-.21 0-.47.02-.63.05v1.9l.56.03c.87 0 1.23-.4 1.23-1zM20.36 57.99l-.08-3.29-1.65 2.82h-.07L16.9 54.7l-.06 3.3h-.5l.17-4.73.08-.02 2.01 3.5 1.98-3.5.11.02.18 4.74h-.52v-.02zM22.12 57.99v-4.65h2.72v.45h-2.21v1.62h2v.45h-2v1.68h2.21v.45h-2.72zM26.06 53.38c.34-.04.69-.08 1.07-.08 1.2 0 1.8.6 1.8 1.4 0 .66-.37 1.15-1.02 1.35l1.36 1.94h-.62l-1.25-1.83-.3.01-.54-.01v1.83h-.5v-4.61zm2.32 1.36c0-.55-.4-.98-1.16-.98-.22 0-.47.02-.64.05v1.9l.57.03c.85 0 1.23-.4 1.23-1zM30.1 57.99v-4.65h.51v4.2h2.22v.45H30.1zM34.43 55.92l-1.64-2.58h.58l1.35 2.16 1.3-2.16h.57l-1.64 2.6V58h-.5v-2.1h-.02zM39.2 57.95V53.4c.34-.03.82-.09 1.2-.09 1.23 0 1.83.6 1.83 1.24 0 .49-.23.83-.81 1.05.67.2.94.62.94 1.13 0 .7-.65 1.34-1.89 1.34-.4-.02-.87-.07-1.27-.1zm2.2-3.3c0-.38-.28-.67-.87-.67-.2 0-.4.01-.57.03v1.3l.47.01c.7.02.97-.27.97-.67zm.1 1.98c0-.4-.34-.73-1.03-.73-.16 0-.36 0-.49.02v1.4c.17.01.36.03.58.03.62 0 .95-.29.95-.72zM43.52 56.2v-2.86h.78v2.81c0 .8.4 1.2 1.07 1.2.68 0 1.07-.4 1.07-1.2v-2.8h.8v2.88c0 1.18-.72 1.85-1.89 1.85-1.14 0-1.83-.65-1.83-1.87zM48.66 53.38a12 12 0 011.23-.08c1.33 0 1.91.66 1.91 1.48 0 .6-.33 1.08-.9 1.34l1.23 1.87h-.93l-1.02-1.67-.25.02-.47-.02v1.67h-.8v-4.61zm2.29 1.43c0-.47-.37-.8-.97-.8-.18 0-.38.02-.52.04v1.6c.14.02.3.02.45.02.67 0 1.04-.31 1.04-.86zM55.81 57.99l-1.9-2.24V58h-.8v-4.65h.8v2.09l1.83-2.1h.96l-2.03 2.24L56.8 58h-1zM57.83 58v-4.66h2.83v.73h-2.03v1.21h1.85V56h-1.85v1.29h2.03v.73h-2.83zM63.87 53.34h.8v1.94h2.14v-1.94h.8v4.67h-.8v-2h-2.14v2h-.8v-4.67zM68.92 55.66a2.34 2.34 0 012.38-2.41c1.34 0 2.32 1.02 2.32 2.42s-1.03 2.4-2.38 2.4c-1.34 0-2.32-1-2.32-2.4zm3.85 0c0-.96-.62-1.68-1.5-1.68-.9 0-1.51.72-1.51 1.69 0 .96.61 1.68 1.5 1.68.9.02 1.5-.7 1.5-1.68zM74.53 57.6l.27-.7c.37.27.82.44 1.22.44.49 0 .7-.28.7-.62 0-.33-.14-.53-.86-.84-.82-.34-1.11-.76-1.11-1.32 0-.68.56-1.31 1.52-1.31.46 0 .91.16 1.16.34l-.25.71a1.9 1.9 0 00-.93-.32c-.49 0-.72.27-.72.58 0 .3.23.49.8.74.92.4 1.18.78 1.18 1.38 0 .75-.58 1.4-1.55 1.4-.5 0-1.03-.2-1.43-.47zM78.74 53.38c.4-.06.8-.08 1.18-.08 1.27 0 1.93.71 1.93 1.57 0 .94-.68 1.61-1.86 1.61l-.47-.02V58h-.8v-4.61h.02zm2.29 1.52c0-.47-.33-.87-.98-.87-.18 0-.35 0-.51.04v1.72c.16.02.3.02.44.02.7 0 1.05-.38 1.05-.9zM83.03 58v-4.66h.8v4.67h-.8zM85.15 55.66c0-1.37 1.05-2.41 2.5-2.41a3 3 0 011.51.42l-.27.67a2.56 2.56 0 00-1.24-.36c-1.03 0-1.65.69-1.65 1.67s.64 1.67 1.67 1.67c.42 0 .9-.15 1.27-.39l.26.68c-.38.25-.95.43-1.53.43-1.49.04-2.52-.98-2.52-2.38zM90.32 58v-4.66h2.84v.73h-2.04v1.21h1.85V56h-1.85v1.29h2.04v.73h-2.84zM99.42 57.99l-.45-1.07H97.1l-.45 1.07h-.82L98 53.27h.1l2.15 4.72h-.82zm-1.38-3.25l-.65 1.56h1.32l-.67-1.56zM104.9 58.08L101.98 55v3h-.8v-4.72l.13-.02 2.87 3.03v-2.96h.8v4.72l-.08.02zM106.46 57.95v-4.57c.46-.06.84-.08 1.3-.08 1.84 0 2.73 1.08 2.73 2.33 0 1.3-.87 2.41-2.7 2.41-.5 0-.85-.03-1.33-.09zm3.18-2.32c0-.96-.62-1.62-1.8-1.62-.23 0-.43.02-.6.04v3.25c.2.02.37.04.68.04 1.2 0 1.72-.73 1.72-1.71zM113.64 53.38c.4-.06.8-.08 1.18-.08 1.27 0 1.92.71 1.92 1.57 0 .94-.67 1.61-1.85 1.61l-.47-.02V58h-.8v-4.61h.02zm2.28 1.52c0-.47-.32-.87-.98-.87-.18 0-.34 0-.5.04v1.72c.16.02.28.02.43.02.73 0 1.05-.38 1.05-.9zM120.57 57.99l-.45-1.07h-1.86l-.45 1.07h-.8l2.14-4.72h.11l2.14 4.72h-.83zm-1.38-3.25l-.65 1.56h1.32l-.67-1.56zM122.35 58v-4.66h.8v3.94h2.03v.73h-2.83zM126.25 58v-4.66h.8v3.94h2.04v.73h-2.84zM130.2 58v-4.66h.8v4.67h-.8zM135.53 57.99l-.45-1.07h-1.86l-.45 1.07h-.82l2.14-4.72h.11l2.15 4.72h-.82zm-1.38-3.25l-.65 1.56h1.32l-.67-1.56zM138.05 54.07h-1.49v-.73h3.74v.73h-1.47V58h-.78v-3.94zM141.47 58v-4.66h.8v4.67h-.8zM143.25 53.34h.9l1.31 3.1 1.3-3.1h.9l-2.15 4.72h-.1l-2.17-4.72zM148.58 58v-4.66h2.83v.73h-2.03v1.21h1.85V56h-1.85v1.29h2.04v.73h-2.84zM154.48 55.66c0-1.37 1.06-2.41 2.5-2.41a3 3 0 011.52.42l-.28.67a2.56 2.56 0 00-1.23-.36c-1.04 0-1.65.69-1.65 1.67s.63 1.67 1.67 1.67c.41 0 .89-.15 1.27-.39l.25.68c-.38.25-.94.43-1.52.43-1.5.04-2.53-.98-2.53-2.38zM162.69 57.99l-.46-1.07h-1.85l-.45 1.07h-.8l2.14-4.72h.11l2.14 4.72h-.83zm-1.36-3.25l-.66 1.56H162l-.67-1.56zM164.47 53.38a12 12 0 011.23-.08c1.33 0 1.9.66 1.9 1.48 0 .6-.32 1.08-.9 1.34l1.24 1.87H167l-1.02-1.67-.25.02-.47-.02v1.67h-.8v-4.61zm2.3 1.43c0-.47-.36-.8-.96-.8-.2 0-.38.02-.52.04v1.6c.14.02.3.02.45.02.67 0 1.03-.31 1.03-.86zM168.93 58v-4.66h2.84v.73h-2.04v1.21h1.86V56h-1.86v1.29h2.04v.73h-2.84zM177.27 57.57a1.8 1.8 0 01-1.17.5c-.63 0-1.14-.37-1.14-1.04 0-.48.35-.8.85-1.04a1.4 1.4 0 01-.25-.72 1 1 0 01.96-.98c.6 0 .9.43.9.81 0 .38-.2.8-.91 1.1.2.23.45.5.78.79.21-.24.41-.49.61-.76l.35.25c-.22.27-.44.55-.66.78l.62.53-.29.34c-.22-.21-.43-.4-.65-.56zm-.31-.29c-.37-.34-.7-.65-.93-.96-.34.12-.6.4-.6.72 0 .37.3.6.7.6.3 0 .57-.14.83-.36zm.02-2.14c0-.26-.2-.47-.46-.47-.25 0-.49.25-.49.56 0 .18.1.38.24.62.52-.22.7-.48.7-.71zM181.68 55.66c0-1.37 1.05-2.41 2.5-2.41a3 3 0 011.51.42l-.27.67a2.56 2.56 0 00-1.24-.36c-1.03 0-1.65.69-1.65 1.67s.64 1.67 1.67 1.67c.42 0 .9-.15 1.27-.39l.26.68c-.38.25-.95.43-1.53.43-1.49.04-2.52-.98-2.52-2.38zM189.87 57.99l-.46-1.07h-1.85l-.45 1.07h-.82l2.14-4.72h.11l2.14 4.72h-.81zm-1.38-3.25l-.66 1.56h1.33l-.67-1.56zM191.63 58v-4.66h.8v3.94h2.03v.73h-2.83zM195.51 57.95v-4.57c.46-.06.82-.08 1.3-.08 1.84 0 2.73 1.08 2.73 2.33 0 1.3-.87 2.41-2.7 2.41-.51 0-.87-.03-1.33-.09zm3.18-2.32c0-.96-.62-1.62-1.8-1.62-.23 0-.43.02-.6.04v3.25c.2.02.37.04.68.04 1.2 0 1.72-.73 1.72-1.71zM200.23 53.34h.87l.84 2.94 1.29-2.98h.09l1.3 2.96.84-2.92h.87l-1.47 4.74-.12.02-1.46-3.25-1.43 3.25-.11-.02-1.5-4.74zM207.3 58v-4.66h2.83v.73h-2.04v1.21h1.86V56h-1.86v1.29h2.04v.73h-2.84zM211.49 58v-4.66h.8v3.94h2.03v.73h-2.83zM215.37 58v-4.66h.8v3.94h2.04v.73h-2.84zM221.04 53.34h.8v1.94h2.14v-1.94h.8v4.67h-.8v-2h-2.14v2h-.8v-4.67zM226.07 55.66a2.34 2.34 0 012.38-2.41c1.34 0 2.32 1.02 2.32 2.42s-1.04 2.4-2.38 2.4c-1.34 0-2.32-1-2.32-2.4zm3.85 0c0-.96-.62-1.68-1.51-1.68-.9 0-1.5.72-1.5 1.69 0 .96.6 1.68 1.5 1.68.89.02 1.5-.7 1.5-1.68zM231.64 57.6l.27-.7c.37.27.82.44 1.22.44.49 0 .7-.28.7-.62 0-.33-.14-.53-.86-.84-.82-.34-1.11-.76-1.11-1.32 0-.68.56-1.31 1.52-1.31.46 0 .91.16 1.16.34l-.25.71a1.9 1.9 0 00-.92-.32c-.5 0-.73.27-.73.58 0 .3.24.49.8.74.92.4 1.18.78 1.18 1.38 0 .75-.58 1.4-1.54 1.4-.51 0-1.04-.2-1.44-.47zM235.83 53.38c.4-.06.8-.08 1.18-.08 1.28 0 1.93.71 1.93 1.57 0 .94-.67 1.61-1.85 1.61l-.47-.02V58h-.8v-4.61h.01zm2.3 1.52c0-.47-.33-.87-.99-.87-.18 0-.34 0-.5.04v1.72c.16.02.28.02.43.02.7 0 1.05-.38 1.05-.9zM240.08 58v-4.66h.8v4.67h-.8zM242.19 55.66c0-1.37 1.05-2.41 2.5-2.41a3 3 0 011.51.42l-.27.67a2.56 2.56 0 00-1.24-.36c-1.03 0-1.65.69-1.65 1.67s.64 1.67 1.67 1.67c.42 0 .9-.15 1.27-.39l.26.68c-.38.25-.95.43-1.53.43-1.49.04-2.52-.98-2.52-2.38zM247.34 58v-4.66h2.84v.73h-2.04v1.21H250V56h-1.86v1.29h2.04v.73h-2.84zM256.37 57.99l-.46-1.07h-1.83l-.45 1.07h-.82l2.14-4.72h.11l2.14 4.72h-.83zM255 54.74l-.66 1.56h1.33l-.67-1.56zM261.83 58.08L258.91 55v3h-.8v-4.72l.14-.04 2.87 3.03v-2.94h.8v4.72l-.09.02zM263.38 57.95v-4.57c.45-.06.81-.08 1.28-.08 1.86 0 2.74 1.08 2.74 2.33 0 1.3-.87 2.41-2.7 2.41-.49 0-.85-.03-1.32-.09zm3.19-2.32c0-.96-.62-1.62-1.8-1.62-.23 0-.43.02-.6.04v3.25c.2.02.37.04.68.04 1.18 0 1.72-.73 1.72-1.71zM270.5 53.38c.4-.06.79-.08 1.17-.08 1.27 0 1.93.71 1.93 1.57 0 .94-.68 1.61-1.86 1.61l-.47-.02V58h-.8v-4.61h.02zm2.28 1.52c0-.47-.33-.87-.98-.87-.18 0-.35 0-.51.04v1.72c.16.02.3.02.44.02.72 0 1.05-.38 1.05-.9zM277.4 57.99l-.44-1.07h-1.86l-.45 1.07h-.82l2.14-4.72h.11l2.15 4.72h-.82zm-1.37-3.25l-.65 1.56h1.32l-.67-1.56zM279.17 58v-4.66h.8v3.94H282v.73h-2.83zM283.04 58v-4.66h.8v3.94h2.03v.73h-2.83zM286.96 58v-4.66h.8v4.67h-.8zM292.26 57.99l-.45-1.07h-1.86l-.45 1.07h-.82l2.14-4.72h.11l2.15 4.72h-.82zm-1.36-3.25l-.66 1.56h1.33l-.67-1.56zM294.76 54.07h-1.48v-.73h3.74v.73h-1.47V58h-.78v-3.94zM298.16 58v-4.66h.8v4.67h-.8zM299.9 53.34h.91l1.3 3.1 1.31-3.1h.9l-2.15 4.72h-.1l-2.17-4.72zM305.22 58v-4.66h2.83v.73h-2.03v1.21h1.85V56h-1.85v1.29h2.03v.73h-2.83zM311.07 55.66c0-1.37 1.05-2.41 2.5-2.41a3 3 0 011.51.42l-.27.67a2.56 2.56 0 00-1.24-.36c-1.03 0-1.65.69-1.65 1.67s.64 1.67 1.67 1.67c.42 0 .9-.15 1.27-.39l.26.68c-.38.25-.95.43-1.53.43-1.49.04-2.52-.98-2.52-2.38zM319.25 57.99l-.45-1.07h-1.85l-.45 1.07h-.82l2.14-4.72h.11l2.14 4.72h-.82zm-1.38-3.25l-.65 1.56h1.33l-.68-1.56zM321.02 53.38a12 12 0 011.23-.08c1.33 0 1.9.66 1.9 1.48 0 .6-.32 1.08-.9 1.34l1.23 1.87h-.92l-1.02-1.67-.25.02-.47-.02v1.67h-.8v-4.61zm2.28 1.43c0-.47-.36-.8-.96-.8-.2 0-.38.02-.52.04v1.6c.14.02.3.02.45.02.67 0 1.03-.31 1.03-.86zM325.45 58v-4.66h2.83v.73h-2.03v1.21h1.85V56h-1.86v1.29h2.04v.73h-2.83z"/></g></svg>