<?xml version="1.0" encoding="utf-8"?>
<!-- Generator: Adobe Illustrator 24.2.3, SVG Export Plug-In . SVG Version: 6.00 Build 0)  -->
<svg version="1.1" id="Layer_1" xmlns="http://www.w3.org/2000/svg" xmlns:xlink="http://www.w3.org/1999/xlink" x="0px" y="0px"
	 viewBox="0 0 461.7 92.3" style="enable-background:new 0 0 461.7 92.3;" xml:space="preserve">
<style type="text/css">
	.st0{fill:#5080B1;}
	.st1{fill:#151645;}
	.st2{fill:#9C9D9D;}
</style>
<g>
	<g>
		<g>
			<path class="st0" d="M164.4,77.7l-3.2-8.2H151l-3.2,8.2h-4.4l10.8-27.7h3.7l10.8,27.7H164.4z M156.2,55.2L156.2,55.2l-3.7,10.6
				h7.4L156.2,55.2z"/>
			<path class="st0" d="M185.7,77.7l-9.4-12.9h-0.1v12.9H172V49.9h9.1c6.9,0,9.9,3.5,9.9,9.2c0,5.3-4.2,8.1-8.2,8.2l8,10.3H185.7z
				 M179.2,64.3c4.9,0,7.7-1.8,7.7-5.4c0-3.2-2.6-5.2-6.3-5.2h-4.4v10.6H179.2z"/>
			<path class="st0" d="M198.7,77.7v-24h-5.5v-3.7h15.1v3.7h-5.5v24H198.7z"/>
			<path class="st0" d="M227.6,77.7V65.6h-11.8v12.1h-4.2V49.9h4.2v12h11.8v-12h4.2v27.7H227.6z"/>
			<path class="st0" d="M251,77.7l-9.4-12.9h-0.1v12.9h-4.2V49.9h9.1c6.9,0,9.9,3.5,9.9,9.2c0,5.3-4.2,8.1-8.2,8.2l8,10.3H251z
				 M244.5,64.3c4.9,0,7.7-1.8,7.7-5.4c0-3.2-2.6-5.2-6.3-5.2h-4.4v10.6H244.5z"/>
			<path class="st0" d="M260.8,77.7V49.9h4.2v27.7H260.8z"/>
			<path class="st0" d="M273.7,77.7v-24h-5.5v-3.7h15.1v3.7h-5.5v24H273.7z"/>
			<path class="st0" d="M286.7,77.7V49.9h4.2v27.7H286.7z"/>
			<path class="st0" d="M307.4,57.1c0-2.5-1.7-4-4-4c-2,0-3.8,1.8-3.8,3.8c0,1.9,1.3,3.1,4.1,3.9c6.2,1.9,8.4,4.2,8.4,9
				c0,5-3.7,8.4-8.8,8.4c-5.1,0-8.7-3.5-8.8-8.7h4.2c0,3,1.9,5,4.6,5c2.8,0,4.6-2,4.6-4.7c0-2-0.9-3.3-4-4.3
				c-7.1-2.3-8.6-4.6-8.6-8.5c0-4.2,3.6-7.6,8-7.6c4.7,0,8.1,2.9,8.2,7.7H307.4z"/>
			<path class="st0" d="M353.9,70.8c-2.9,4.8-7.5,7.4-13.2,7.4c-7.9,0-14.4-6.9-14.4-14.3c0-8.4,6.8-14.5,14.5-14.5
				c5.4,0,10.4,2.4,13.3,7.6h-5c-2.2-2.4-4.7-3.9-8-3.9c-6,0-10.6,4.9-10.6,10.4c0,5.8,4.5,10.9,10.4,10.9c3,0,5.6-1.1,7.9-3.7
				H353.9z"/>
			<path class="st0" d="M357.7,77.7V49.9h15.4v3.7h-11.2v8.2h11.2v3.7h-11.2V74h11.2v3.7H357.7z"/>
			<path class="st0" d="M396.7,77.7l-14.1-21.4h-0.1v21.4h-4.2V49.9h4.5l13.9,21.1h0.1V49.9h4.2v27.7H396.7z"/>
			<path class="st0" d="M409.8,77.7v-24h-5.5v-3.7h15.1v3.7H414v24H409.8z"/>
			<path class="st0" d="M422.4,77.7V49.9h15.4v3.7h-11.2v8.2h11.2v3.7h-11.2V74h11.2v3.7H422.4z"/>
			<path class="st0" d="M456.3,77.7l-9.4-12.9h-0.1v12.9h-4.2V49.9h9.1c6.9,0,9.9,3.5,9.9,9.2c0,5.3-4.2,8.1-8.2,8.2l8,10.3H456.3z
				 M449.8,64.3c4.9,0,7.7-1.8,7.7-5.4c0-3.2-2.6-5.2-6.3-5.2h-4.4v10.6H449.8z"/>
		</g>
		<g>
			<path class="st1" d="M207.6,41.9c-7.9,0-14.6-6.6-14.6-14.1c0-8.5,6.7-14.7,14.7-14.7c8.5,0,15,6.5,15,14.2
				C222.7,35.7,216,41.9,207.6,41.9z M218.5,27.5c0-5.7-4.5-10.8-10.5-10.8c-7.7,0-10.9,6.4-10.9,10.6c0,5.6,4.2,10.8,10.7,10.8
				C214.6,38.1,218.5,32.6,218.5,27.5z"/>
			<path class="st1" d="M227.8,41.3V13.6h4.2v27.7H227.8z M242.9,41.3l-10.8-14l10.8-13.8h5.1l-11.1,13.8l11.1,14H242.9z"/>
			<path class="st1" d="M251.3,41.3V13.6h4.2v24h9.9v3.7H251.3z"/>
			<path class="st1" d="M288,41.3l-3.2-8.2h-10.3l-3.2,8.2h-4.4l10.8-27.7h3.7l10.8,27.7H288z M279.8,18.8L279.8,18.8l-3.7,10.6h7.4
				L279.8,18.8z"/>
			<path class="st1" d="M311.9,41.3V29.3h-11.8v12.1H296V13.6h4.2v12h11.8v-12h4.2v27.7H311.9z"/>
			<path class="st1" d="M335.2,41.9c-7.9,0-14.6-6.6-14.6-14.1c0-8.5,6.7-14.7,14.7-14.7c8.5,0,15,6.5,15,14.2
				C350.2,35.7,343.6,41.9,335.2,41.9z M346.1,27.5c0-5.7-4.5-10.8-10.5-10.8c-7.7,0-10.9,6.4-10.9,10.6c0,5.6,4.2,10.8,10.7,10.8
				C342.2,38.1,346.1,32.6,346.1,27.5z"/>
			<path class="st1" d="M380.9,41.3V17.9h-0.1l-9.6,23.4h-2.5L359,17.9H359v23.4h-4.2V13.6h6.6l8.6,21.3l8.6-21.3h6.6v27.7H380.9z"
				/>
			<path class="st1" d="M409.6,41.3l-3.2-8.2h-10.3l-3.2,8.2h-4.4l10.8-27.7h3.7L414,41.3H409.6z M401.4,18.8L401.4,18.8l-3.7,10.6
				h7.4L401.4,18.8z"/>
		</g>
	</g>
	<g>
		<path class="st1" d="M22.1,72.7c-3.1,0-6-0.6-8.6-1.8c-2.6-1.2-5-3-7-5.3c-1.7-1.9-3.1-4.2-4-6.6c-0.9-2.5-1.4-5.1-1.4-8
			c0-2.9,0.6-5.6,1.6-8.2c1.1-2.6,2.7-4.9,4.8-7c2-2,4.2-3.5,6.7-4.5c2.4-1,5.1-1.5,7.9-1.5c2.9,0,5.6,0.5,8,1.5
			c2.5,1,4.7,2.5,6.8,4.5c2.1,2,3.7,4.4,4.7,6.9c1.1,2.5,1.6,5.3,1.6,8.2c0,2.9-0.5,5.6-1.4,8.1c-0.9,2.5-2.3,4.7-4.1,6.7
			c-2.1,2.3-4.5,4-7.2,5.2C28,72.1,25.2,72.7,22.1,72.7 M22.1,36.6c-1.8,0-3.6,0.4-5.3,1c-1.7,0.7-3.2,1.7-4.4,3
			c-1.3,1.4-2.4,3-3.2,4.8c-0.8,1.8-1.1,3.7-1.1,5.6c0,2,0.3,4,1,5.8c0.7,1.8,1.7,3.4,2.9,4.7c1.3,1.4,2.9,2.5,4.7,3.3
			c1.7,0.8,3.6,1.2,5.4,1.2c4,0,7.5-1.4,10.2-4.3c2.7-2.9,4.1-6.5,4.1-10.7c0-1.8-0.3-3.5-1-5.2c-0.7-1.6-1.6-3.2-2.9-4.5
			c-1.5-1.6-3.1-2.8-4.8-3.5C26.1,37,24.2,36.6,22.1,36.6"/>
		<path class="st1" d="M73.3,71.9l-4.4-11.8h-15l-4.5,11.8h-7.1l16.1-41.2h6.3l16.1,41.2H73.3z M66.4,53.5l-5-13.6l-5.1,13.6H66.4z"
			/>
		<path class="st1" d="M100.9,72.7c-3.1,0-6-0.6-8.6-1.8c-2.6-1.2-5-3-7-5.3c-1.7-1.9-3.1-4.2-4-6.6c-0.9-2.5-1.4-5.1-1.4-8
			c0-2.9,0.6-5.6,1.6-8.2c1.1-2.6,2.7-4.9,4.8-7c2-2,4.2-3.5,6.7-4.5c2.4-1,5.1-1.5,7.9-1.5c4.2,0,7.9,1,11.1,3
			c3.2,2,5.6,4.9,7.2,8.5l0.3,0.6h-7.8l-0.1-0.2c-1.2-1.7-2.8-3-4.6-3.9c-1.8-0.9-3.9-1.3-6.2-1.3c-1.8,0-3.6,0.4-5.2,1
			c-1.7,0.7-3.1,1.7-4.4,3c-1.3,1.4-2.4,3-3.1,4.8c-0.7,1.8-1.1,3.7-1.1,5.6c0,2,0.3,4,1,5.8c0.7,1.8,1.7,3.4,2.9,4.7
			c1.3,1.4,2.9,2.5,4.6,3.3c1.7,0.8,3.5,1.2,5.4,1.2c2.2,0,4.3-0.4,6.1-1.3c1.8-0.8,3.3-2.1,4.4-3.7l0.1-0.2h8.2l-0.3,0.7
			c-1.8,3.6-4.3,6.4-7.4,8.3C108.7,71.7,105,72.7,100.9,72.7"/>
		<path class="st2" d="M93.9,39.1c-0.8,0.5-1.6,1.1-2.3,1.8v20.8c0.7,0.7,1.4,1.2,2.3,1.8V39.1z"/>
		<path class="st2" d="M105.1,65V37.7c-1.3-0.4-2.7-0.6-4.2-0.6c-0.2,0-0.5,0-0.7,0l0,28.4c0.2,0,0.4,0,0.7,0
			C102.4,65.6,103.8,65.3,105.1,65z"/>
		<path class="st2" d="M80.4,59.3C79.4,56.7,79,53.9,79,51c0-2.7,0.5-5.3,1.4-7.8V29.7h11.3v1.2c0.3-0.2,0.7-0.3,1-0.5
			c0.4-0.2,0.8-0.3,1.2-0.4v-0.3h0.8c2-0.6,4.1-0.9,6.2-0.9c1.8,0,3.6,0.2,5.2,0.6v-9.3h5.5l0.4-2.2L59.6,0L6.8,20.1h11v9.2
			c1.4-0.3,2.8-0.4,4.3-0.4c3,0,5.8,0.5,8.4,1.6c0.5,0.2,1.1,0.5,1.6,0.7v-1.5h10.2v12.1c0.1,0.2,0.2,0.4,0.3,0.6
			c1.1,2.7,1.7,5.6,1.7,8.6c0,3-0.5,5.8-1.4,8.4c-0.2,0.4-0.4,0.9-0.5,1.3v8l2.3-5.8V29.7h5.6l0,18.7l5.5-14v-4.7h1.8l0-0.1h7.7
			l0,0.1H67v4.5l2.3,5.8V29.7h6.3l0,26.3l4.8,12.4L80.4,59.3C80.4,59.3,80.4,59.3,80.4,59.3z M59.6,2.4l45.3,15.4H19.1L59.6,2.4z
			 M67,27.5H55.7H42.3H32.1h-12v-4.3h83.8v4.3H91.7H80.4H67z"/>
		<path class="st2" d="M18.7,38.1v26.4c0.7,0.2,1.5,0.4,2.3,0.4V37.7C20.2,37.7,19.5,37.9,18.7,38.1z"/>
		<path class="st2" d="M31.6,61c0.2-0.2,0.4-0.4,0.6-0.7v-18c-0.1-0.1-0.2-0.3-0.4-0.4c-1.4-1.5-2.9-2.6-4.5-3.3
			c-0.2-0.1-0.4-0.1-0.6-0.2l0,25.8C28.6,63.5,30.2,62.5,31.6,61z"/>
		<path class="st2" d="M105.5,73.3c-1.5,0.3-3,0.4-4.7,0.4c-2.4,0-4.8-0.4-6.9-1.1h0v0c-0.7-0.2-1.4-0.5-2-0.8
			c-0.1,0-0.2-0.1-0.2-0.1v0.9H82l0.1,0.3h-9.5l-0.1-0.3h-3.2V64l-1.1-2.9H67v11.5H55.7V61.1h-1.2L50.3,72l0,0.6H50l-0.1,0.3h-9.3
			l0.1-0.3h-8.6v-1.3c-0.4,0.2-0.7,0.4-1.1,0.5c-2.8,1.2-5.8,1.8-9,1.8c-1.1,0-2.3-0.1-3.3-0.2v0.1L0,92.3h122.6L105.5,73.3z
			 M20.6,74.9h11.5h10.2h13.4H67h13.4h11.3H104l9.4,10.5H10.1L20.6,74.9z"/>
	</g>
</g>
</svg>
