<svg id="Layer_1" xmlns="http://www.w3.org/2000/svg" viewBox="0 0 422.8 153.6"><style>.st0{fill:#000000;}</style><path class="st0" d="M337 117.5c2-6.7 3.9-13.1 5.9-19.7H335c-.9 0-1.3.2-1.6 1.2-1.5 5.7-3.2 11.4-4.7 17.1-.3 1.2-.8 1.5-2 1.4-1.6-.2-3.2-.2-4.9-.3-.3 1.2-.6 2.5-.9 3.8 2.3-.3 4.3-.5 6.6-.8-1.5 5.4-2.9 10.4-4.2 15.4-.8 3.1-1.6 6.2-2.2 9.3-.6 3.4 1.1 5.8 4.5 6.1 6.3.6 11.4-1.9 15.8-6.3.4-.4.6-1.1.8-1.7.1-.3-.2-.7-.4-1-.1-.1-.6 0-.8.2-.5.4-.9.9-1.5 1.2-1.4.9-2.8 1.9-4.3 2.4-3 .9-5-1-4.7-4.1.1-1.1.2-2.3.5-3.4 1.6-5.6 3.2-11.3 4.8-16.9.2-.9.6-1.2 1.5-1.1 2.7.2 5.3.4 8 .5.4-1.2.8-2.4 1.2-3.7-3.2.1-6.2.2-9.5.4zM188.3 48.8c-1.2 4.5-2.4 8.6-3.5 12.8-1 4.1-2.1 8.1-2.9 12.2-.6 3.2 1.3 5.5 4.5 5.8 6.3.6 11.4-1.9 15.7-6.1.5-.5.7-1.2.9-1.9.1-.3-.2-.7-.5-1-.1-.1-.6.1-.8.2-.5.4-1 .9-1.6 1.3-1.6 1.3-3.2 2.5-5.4 2.5-2.1 0-3.4-1.1-3.5-3.2 0-1.5.1-3 .5-4.4 1.5-5.7 3.2-11.4 4.8-17.1.2-.9.7-1.1 1.5-1.1 2.6.2 5.2.3 8 .5.4-1.2.8-2.4 1.2-3.7-3.2.2-6.3.3-9.5.5 2-6.7 3.9-13.1 5.9-19.7h-7.9c-.9 0-1.3.3-1.5 1.2-1.6 5.7-3.2 11.4-4.8 17.2-.3 1-.7 1.4-1.8 1.3-1.7-.2-3.3-.2-5.1-.3-.3 1.2-.6 2.5-.9 3.8 2.4-.3 4.5-.5 6.7-.8zM323.5 48.8c-1 3.6-2 7-2.8 10.4-1.2 4.9-2.5 9.9-3.5 14.9-.6 2.9 1.3 5.3 4.2 5.6 6.4.7 11.7-1.8 16.1-6.3.4-.4.6-1.1.8-1.7.1-.3-.2-.7-.5-1-.1-.1-.6.1-.8.2l-1.5 1.2c-1.7 1.4-3.4 2.6-5.8 2.5-1.9-.1-3.2-1.3-3.2-3.2 0-1.3 0-2.8.4-4 1.6-6 3.3-11.9 5-17.8.2-.7.6-.7 1.2-.7 2.7.2 5.4.3 8.2.5.4-1.1.8-2.4 1.2-3.7-3.2.2-6.3.3-9.5.4 2-6.7 3.9-13.1 5.9-19.7-2.7 0-5.2.1-7.8 0-1 0-1.4.3-1.7 1.3-1.6 5.7-3.2 11.4-4.8 17.2-.3.9-.6 1.3-1.6 1.2-1.7-.2-3.4-.2-5.2-.3-.3 1.2-.6 2.5-.9 3.8 2.2-.3 4.3-.5 6.6-.8zM130.7 148.7c.5.2.8.3 1.2.5 7 2.8 14 2.9 20.6-1 3-1.8 5.6-4 6.8-7.5 1.2-3.6.2-6.8-3.3-8.3-3.3-1.5-6.9-2.4-10.4-3.7-1.8-.7-3.7-1.3-5.4-2.2-1.3-.7-1.5-2-.8-3.3.8-1.4 2.1-1.9 3.6-2.2 4.7-.8 9.1.1 13.4 2 2 .9 2 .9 1.9 3v.7c0 .7-.2 1.7.8 1.9.3 0 .9-1 1-1.6.6-2.2.9-4.5 1.6-6.8.6-2.1 1.5-4.1 2.1-6.1.2-.5 0-1.1-.1-1.6-.5.3-1.1.5-1.4 1-.5.7-.9 1.5-1.2 2.3-.4 1.2-1 1.4-2.2 1.1-4.9-1.1-9.8-1.2-14.6.6-4.1 1.6-7.7 3.9-9.7 8-1.7 3.5-1.3 8.3 3.4 10.4 2 .9 4.2 1.6 6.3 2.4 2.3.8 4.7 1.5 7 2.4 1.2.4 2 1.4 2 2.7.1 1.4-.7 2.3-1.8 3-1.4.9-2.9 1-4.5.9-4.2-.2-7.9-2-11.5-4-2-1.1-3.1-2.4-2.6-4.8v-.2c-.1-.7.2-1.7-.7-1.7-.3 0-1 1-1.1 1.6-.7 4.6-2.1 9-3.6 13.4-.2.6 0 1.4 0 2.1.6-.5 1.3-.9 1.6-1.5.6-1.2 1.1-2.4 1.6-3.5zM370.1 77.4h.3l1.5.6c5.8 2.2 11.6 2.5 17.4.1 3.8-1.6 7.1-3.9 9-7.7 1.6-3.1 1.1-6.5-1.2-8.4-.9-.8-2-1.4-3.1-1.8-3-1.1-6-1.9-9-2.9-1.6-.5-3.3-1.1-4.8-1.9-2.3-1.2-2.3-3.7 0-5 1.1-.6 2.4-.9 3.6-1 4.7-.4 9 .7 13.2 2.7.7.3.9.7.9 1.5-.1 1 0 2.1 0 3.1 0 .2.3.6.4.6.2 0 .6-.1.7-.3.2-.4.4-.8.5-1.2.3-1.4.5-2.8.9-4.1.9-3.1 2-6.1 2.9-9.2.1-.4-.1-.9-.2-1.4-.4.2-1 .4-1.2.7-.5.6-.8 1.4-1.1 2.1-.3.6-.6 1.3-.8 1.8-2.4-.3-4.7-.7-6.9-.8-6.5-.4-12.2 1.4-16.8 6-1.6 1.6-2.8 3.6-3.1 6-.4 4 1 6.5 4.9 8.1 2.9 1.2 6 2 8.9 3 1.5.5 3 1 4.4 1.9 1.6 1 1.7 3 .3 4.4-1.4 1.4-3.2 1.8-5.1 1.7-5.4-.2-9.9-2.6-14.1-5.6-.3-.2-.4-.7-.4-1 0-1 .1-2 .1-3 0-.4-.4-.8-.7-1.2-.3.4-.8.7-.9 1.1-.3 1.1-.4 2.4-.7 3.5-1 3.6-2.1 7.2-3.1 10.8-.1.5.1 1.2.2 1.7.5-.4 1-.7 1.5-1.1.2-.2.3-.6.4-.9.3-1 .7-2 1.2-2.9zM419.3 117.1c-.6-.1-1.1-.2-1.6-.3-5.1-1-10.1-1.2-15 .8-3.9 1.6-7.3 3.9-9.2 7.7-2.2 4.3-.8 8.5 3.5 10.7 1.4.7 2.9 1.2 4.4 1.7 2.9 1 5.8 1.9 8.7 2.9 1.2.4 1.9 1.3 1.9 2.6s-.6 2.3-1.7 3c-1.4.9-3 1.1-4.6 1-4.6-.2-8.6-2.3-12.4-4.6-1.4-.9-2.1-1.8-1.7-3.5.1-.4.2-1 0-1.4-.1-.5-.5-.9-.7-1.4-.3.4-.9.7-1 1.2-.3 1.2-.4 2.5-.8 3.7-1 3.5-2.1 7-3.1 10.4-.1.5.1 1.2.1 1.8.5-.4 1.2-.7 1.5-1.1.5-.8.9-1.8 1.3-2.7.1-.3.3-.6.5-1 .4.2.8.3 1.2.5 4.9 2 9.9 2.6 15 1.3 4.9-1.3 9-3.7 11.6-8.2 2.6-4.5 1.2-8.5-3.5-10.4-3.1-1.2-6.3-2.1-9.4-3.1-1.6-.6-3.3-1.1-4.8-1.8-2.3-1.2-2.3-3.8 0-5.1.6-.4 1.3-.7 2-.8 5.4-1 10.4.3 15.2 2.7.3.1.4.7.5 1.1.1 1 0 2 0 3 0 .3.3.6.5.9.3-.2.7-.4.9-.7.2-.4.4-.8.4-1.2.6-4.2 2-8.3 3.5-12.3.2-.6.2-1.3.2-2-.1-.1-.3-.1-.4-.2-1.8.9-1.9 3.2-3 4.8zM272.9 56.7c-.1 0-.1-.1-.2-.1.1-.5.3-1.1.3-1.6.3-2.4.8-4.7.8-7.1.1-1.8-1.1-2.8-2.9-3-1.8-.2-3.5.1-5.1 1-2.9 1.6-5.3 3.8-7.4 6.3-.3.3-.6.7-.6 1.1-.1.4 0 .9.3 1.2.1.1.8.1 1-.1.7-.5 1.3-1.2 1.9-1.8.7-.6 1.3-1.3 2-1.8 1.2-.8 2.1-.3 2.1 1.1 0 1.3-.1 2.6-.4 3.8-1.6 5.9-3.3 11.8-5.1 17.7-.5 1.7-1.1 3.3-1.7 5.1h7.5c.9 0 1.3-.2 1.6-1.2 1.7-6.3 3.7-12.5 6.9-18.3 1.5-2.7 3.2-5.3 5.6-7.3.5 1 .7 2 1.3 2.8 2.1 2.6 6.4 2.4 8.6-.5 2.3-2.9 1.7-7.6-2.6-8.9-2.3-.7-4.5 0-6.2 1.6-1.2 1.1-2.3 2.4-3.3 3.7-1.6 2-3 4.2-4.4 6.3zM147.6 78.4h8.1c.3 0 .7-.4.8-.8.4-1.1.7-2.3 1-3.4 1.9-6.2 3.9-12.3 7.5-17.8 1.2-1.7 2.6-3.3 4-5.1 1.3 4 2.8 5.1 6.2 4.8 2.2-.2 3.8-1.5 4.5-3.6.8-2.1.7-4.2-1-6-2.1-2.3-5.7-1.9-7.9-.4-2.5 1.7-4.1 4.2-5.7 6.7-.9 1.3-1.7 2.6-2.6 4-.2-.3-.1-.4-.1-.6.4-2.2.9-4.5 1.2-6.7.3-2.8-.8-4.4-3.2-4.6-1.7-.1-3.3.1-4.9.9-3 1.6-5.4 3.8-7.6 6.4-.3.3-.6.7-.6 1.1-.1.4 0 .9.3 1.2.1.2.8.1 1-.1.7-.6 1.3-1.3 2-1.9.6-.6 1.2-1.2 1.8-1.7 1.3-.8 2.2-.4 2.2 1.2 0 .8 0 1.5-.2 2.3-1.3 5.1-2.7 10.3-4.1 15.4-.6 2.8-1.7 5.6-2.7 8.7zM243.2 117.2c-3-1.1-6.1-1.3-9.2-.6-6.8 1.6-12.5 5.2-17 10.5-3.3 3.9-5.4 8.5-5.1 13.8.2 4.3 2.3 7.5 6.4 9.2 3.5 1.4 7.2 1.4 10.8.4 5.2-1.4 9.1-4.6 11.8-9.3.3-.6.8-1.2-.3-1.7-.7.6-1.3 1.2-2 1.8-2.1 2-4.1 4.1-7 4.8-5.4 1.4-10.4-1.1-10.2-7.8.1-4.6 1.1-9 3-13.2.9-2.1 2.2-3.9 4.8-4.2 4.1-.5 7.7.7 11.1 2.9.2.2.3.7.3 1-.1 1.4-.4 2.8-.5 4.3 0 .5.4 1.1.5 1.7.4-.4.8-.8 1.2-1.3.1-.1.2-.4.2-.6 1.3-4.6 2.7-9.1 3.9-13.7.1-.4-.2-.9-.3-1.3-.4.2-.9.3-1.1.6-.5.9-.9 1.7-1.3 2.7zM345.3 78.4h7.9c.8 0 1.1-.3 1.3-1 1.4-4.9 2.9-9.8 4.3-14.7 1.2-4 2.3-8 3.3-12 .8-3.1-.5-5.4-3.2-5.8-1.1-.2-2.3-.2-3.3.1-4.5 1.1-7.5 4.1-10.3 7.6-.2.2-.3.5-.3.8 0 .4 0 .9.3 1.1.1.2.8 0 1-.2.7-.6 1.2-1.2 1.9-1.8.8-.7 1.5-1.4 2.4-2 .8-.5 1.4-.1 1.7.7.1.5.2 1 .1 1.5-1 4.1-2 8.3-3.1 12.4-1.3 4.5-2.7 8.8-4 13.3zM292 78.4h8.2c.3 0 .8-.5.9-.9 1.3-4.3 2.6-8.5 3.8-12.8 1.3-4.6 2.7-9.3 3.9-13.9.8-3.1-.6-5.3-3.3-5.7-1.1-.2-2.3-.1-3.3.1-3.5.7-6 3-8.4 5.4-.8.8-1.5 1.8-2.1 2.8-.2.2 0 .9.2 1.1.1.2.8.1 1-.1.7-.6 1.3-1.3 2-1.9.7-.6 1.4-1.3 2.2-1.8.9-.6 1.6-.2 1.9.9.1.4.1.9 0 1.3-.8 3.4-1.5 6.8-2.4 10.1-1.4 5-3 10.1-4.6 15.4zM249.1 149.7h7.9c.8 0 1.1-.3 1.3-1 .8-2.9 1.7-5.7 2.5-8.6 1.7-5.8 3.4-11.5 5-17.3.5-1.6.7-3.4-.4-4.8-1.5-2.1-3.7-2-5.9-1.6-3.3.6-5.7 2.7-8 4.9-.9.9-1.8 1.9-2.5 3-.2.4 0 1.1 0 1.6.5-.1 1-.2 1.4-.5.8-.7 1.4-1.5 2.2-2.2.8-.8 1.6-2 2.9-1.3 1.2.6.8 2 .5 3-1.4 5.3-2.8 10.6-4.3 15.9-.7 3-1.6 5.9-2.6 8.9zM74.5 73c3.3-.2 6.4-.8 8.7-3.5 1.8-2.1 1.8-4.8-.1-6.8-3.9-4.2-12.7-4.4-16.8-.4-2.5 2.4-2.5 5.3-.1 7.7 2.3 2.2 5.2 2.8 8.3 3zM265.9 104.4c3.2 0 5.9-2.5 5.9-5.6 0-3.2-2.5-5.9-5.6-5.9-3.2-.1-6 2.6-6 5.7-.1 3 2.6 5.8 5.7 5.8zM362.1 33.1c3.2 0 5.9-2.7 5.9-5.9 0-3.1-2.8-5.8-5.9-5.7-3.2 0-5.8 2.7-5.7 5.8-.1 3.3 2.5 5.8 5.7 5.8zM308.8 33.1c3.2 0 5.9-2.6 5.8-5.9 0-3.1-2.7-5.8-5.8-5.8-3.1 0-5.7 2.6-5.8 5.7 0 3.4 2.5 6 5.8 6z"/><path class="st0" d="M0 137.8c.6.1 1.2.2 1.7.4 3.3 1.7 6.5 3.6 9.8 5.3 1.7.8 3.6 1.3 5.4 1.8 3.4.8 6.2-.4 9-2.2 4.9-3.2 8.4-7.6 10.8-12.9 2.8-6 5.3-12 7.9-18.1 2.5-5.9 5.1-11.9 8.6-17.4 3.1-5 7-9.1 12-12.2.1-.1.2-.1.5-.4-3-.3-5.8-.7-8.6-1-4.5-.4-9.1-.6-13.6.2-1.8.3-3.7.8-5.4 1.6-4.5 1.9-6.5 5.8-7.1 10.4-.7 5.3.2 10.3 3 15 .6 1 .3 1.4-.8 1.4-5.9.1-9.6-4-9.5-10.4.1-3.8 1.3-7.2 3.4-10.2 3.3-4.8 7.4-8.9 12.6-11.7 3.7-1.9 7.6-2.8 11.7-3.2 6.4-.6 12.8.1 19.1.6 5.8.4 11.5.2 16.5-3.6 3.3-2.5 6-5.5 8.1-9.1 4.1-6.9 6.7-14.4 9.8-21.7 2.8-6.6 5.7-13.1 9.8-19 2.8-3.9 6.1-7.3 10.3-9.7.1-.1.2-.2.6-.4-2.1-.3-3.9-.6-5.7-.7-4.4-.2-8.8-.6-13.2-.5-2.5.1-5 .7-7.4 1.4-5.3 1.7-7.9 5.7-8.5 11-.6 5.4.3 10.5 3.2 15.1.4.7.1 1.2-.7 1.3-4.8.4-9-3.1-9.5-8-.5-4.2.4-8.1 2.6-11.6 4.1-6.5 9.4-11.7 16.8-14.3 4.7-1.7 9.7-2 14.6-2 7.8.1 15.4 1.5 23 3.3.1 0 .2.1.3.2-3.6 5.1-4.5 11.1-5.8 16.9-1.7 7.8-2.7 15.8-3 23.7-.3 6.8-.3 13.7-.3 20.5 0 1.3.3 2.5.6 3.8.3 1.3 1.1 2.1 2.4 2.5 2.2.6 2.6 2 1.2 3.7-2.2 2.6-5 4.1-8.3 4.6-2.7.3-4.5-1.1-5.2-3.7-1-3.9-1.1-7.8-1.1-11.8.1-4.6.2-9.2.3-14H107.6c-.8 0-1.3.3-1.6 1-3.4 6.7-7.2 13.1-12.3 18.6-2.6 2.9-5.4 5.5-9.4 6.4-1.1.2-2.2.4-3.6.7.9.4 1.6.9 2.3 1.1 4.1 1.4 8.2 2.7 12.5 3 3.7.3 6.2-1 7.9-4.3 1.8-3.6 2.3-7.3 1.5-11.3-.1-.4 0-.8 0-1.2.4 0 .8 0 1.1.1 3.2 1.1 4.6 4 3.8 7.7-.9 4.1-3.6 6.9-6.9 9.1-6.4 4.5-13.2 3.7-20.1 1.4-1.2-.4-2.5-.9-3.7-1.3-.3-.1-.7-.1-1.3-.2-.6 2.5-1.3 4.9-1.9 7.4-2.2 10-3.5 20.1-3.9 30.3-.2 5.4-.2 10.8-.2 16.2 0 1.5.3 2.9.5 4.4.3 1.5 1.1 2.6 2.7 3 2 .5 2.5 1.9 1.2 3.4-2.4 2.9-5.4 4.7-9.2 4.8-2.2.1-3.7-1-4.2-3.2-.6-2.6-1.1-5.3-1.2-8-.1-5.9.2-11.7.3-17.6v-.6c-.4 0-.8-.1-1.2-.1H47.5c-.8 0-1.2.2-1.6.9-3.1 6.1-6.6 12-11 17.2-4.2 4.9-8.9 9.1-15.2 10.9-2.9.9-5.8 1.1-8.8.7-3.3-.5-5.1-2.2-5.3-5.6-.1-1.4-.6-2.6-1.5-3.7-1.5-1.9-2.9-3.9-4.4-5.8.3 0 .3-.2.3-.3zm69.8-54.9c-.1-.1-.2-.3-.3-.4-.4.2-1 .4-1.2.7-2.3 2.9-4.7 5.6-6.7 8.7-4.7 7.2-7.9 15.2-11.2 23.1-.6 1.6-1.3 3.2-1.9 4.8h14c1.2-12.5 2.9-24.9 7.3-36.9zM129.7 12l-.3-.3c-.4.3-1 .4-1.3.8-2.9 2.9-5.3 6.3-7.4 9.8-4.5 7.7-8 15.9-11.3 24.1-.3.8-.7 1.7-1 2.6h14c1.2-12.7 3-25.1 7.3-37zM232.2 0c2.5 1.7 2.7 4 2 6.6-2.9 11.1-5.7 22.2-8.6 33.2-2.2 8.6-4.5 17.1-6.7 25.7 0 .1-.1.3.1.5 1-1.7 2-3.6 3.1-5.2 2.3-3.3 4.4-6.8 7-9.9 4.2-5 9.7-7 16.2-5.9 3.1.5 4.5 2.6 3.6 5.6-1.4 4.8-3.1 9.5-4.7 14.2-.9 2.7-1.8 5.4-2.6 8.1-.2.6-.1 1.7.2 1.8.6.3 1.5.3 2.1-.1 1.3-.9 2.5-2 3.8-2.9.4-.3 1.3-.7 1.6-.4.7.5.3 1.3-.2 1.7-3.6 3.6-7.6 6.7-13.1 6.5-2.7-.1-4.3-1.8-3.6-4.5 1-3.9 2.3-7.7 3.5-11.6.9-2.9 1.7-5.8 2.6-8.7.1-.4.2-.9.2-1.3.2-2.6-1-3.7-3.6-3.1-2.7.6-4.7 2.4-6.3 4.5-4.7 5.8-7.8 12.5-10.8 19.2-.5 1.2-1 2.4-1.5 3.5-.1.3-.5.7-.8.7-2.6.1-5.2 0-7.9 0 .8-3.1 1.5-6 2.2-8.9 4.8-19.4 9.6-38.8 14.4-58.3.3-1 .5-2.1.5-3.2 0-.6-.3-1.2-.5-1.7-.5.2-1.3.3-1.6.7-1 1.1-1.8 2.4-2.7 3.6-.5.6-1 1.3-1.5 1.8-.2.2-.6.3-.8.2-.2-.1-.4-.5-.5-.7 0-.3 0-.7.2-1 1.9-4 4.6-7.5 8.3-9.9.6-.4 1.3-.7 2-1 1.4.2 2.9.2 4.4.2zM313.1 118.7c-1.4 4-2.9 8-4.2 12.1-1.3 4-2.3 8.1-3.4 12.2-.2.6-.1 1.2-.1 1.8 0 1.5.7 2 2 1.1 1.3-.9 2.4-2.2 3.7-3.2.4-.3.7-.7 1.1-.9.3-.2.9-.3 1-.1.2.3.2.7.2 1.1 0 .2-.1.5-.3.6-2.5 3.1-5.2 5.8-9 7.2-1.5.6-3.2.6-4.7 0-1.8-.8-2.6-2.4-2.4-4.3.3-2.6.8-5.2 1.2-7.8 0-.2.1-.4 0-.7-1.3 1.9-2.5 3.8-3.9 5.6-2.3 3-4.8 5.8-8.6 7-3.3 1-6.7 1.2-9.7-.9-3.6-2.5-4.3-6.3-4-10.3.6-8.9 5.8-14.8 13.1-19.1 8.5-4.9 17.4-4.8 26.5-1.9.4.2.9.3 1.5.5zm-10.3 3.6c-2.7-.7-5.2-1.5-7.8-2.1-3.1-.6-5.9.2-7.9 2.7-4.5 5.5-5.8 12-4.9 18.9.4 3 3 4.4 5.8 3.2 1.5-.6 2.9-1.6 4-2.7 5.2-5.7 8-12.7 10.8-20zM182.7 151c-4.6 0-8.3-.8-11.3-3.4-2.1-1.9-3.3-4.2-3.5-7-.4-5.7 1.6-10.5 5.4-14.6 4.4-4.9 9.7-8.3 16.3-9.4 3.2-.5 6.4-.6 9.5.1 7.6 1.7 11.4 8.3 9 15.6-2.9 8.7-9.1 14.1-17.6 17.2-2.8 1-5.6 1.6-7.8 1.5zm1.6-2.8c4.7-.1 8.4-1.8 10.3-6.4.7-1.5 1.4-3 2-4.6 1.5-4.3 2.9-8.7 3-13.3.1-2.6-1.1-4.1-3.6-4.8-2.8-.8-5.5-.5-8.2.4-1.9.6-3.5 1.7-4.5 3.4-3.5 6-5.8 12.3-6.2 19.3-.2 3.4 1.3 5.2 4.7 5.9.9 0 1.7 0 2.5.1zM357.2 138.9c.3 2.1 1.5 3.7 3.2 4.9 4.1 2.9 8.7 3.3 13.3 1.5 2.2-.9 4.1-2.3 6.1-3.5.5-.3 1.1-1.1 1.6-.4.3.4.2 1.5-.2 1.9-1.6 1.5-3.2 3-5.1 4.1-6.2 3.6-13 4.6-20 2.8-6.9-1.8-9.9-7.1-8.8-14.2.9-6.1 4.6-10.4 9.2-14 6-4.7 12.8-6.4 20.3-5.7 2.1.2 4.1.7 5.7 2.2 2.5 2.3 2.4 5.2 1.6 8.1-1 3.5-3.6 5.7-6.6 7.5-3.9 2.4-8.3 3.6-12.8 4.1-2.4.3-4.9.4-7.5.7zm-.5-1.9c3.1-.3 6.1-.4 8.9-1 6.8-1.5 10-6.1 9-12.4-.3-2-1.3-3.2-3.3-3.6-1.3-.2-2.6-.3-3.9-.2-3.1.3-5.7 1.4-7.5 4.1-2.8 3.8-3.2 8.2-3.2 13.1zM337 117.5c3.3-.2 6.3-.3 9.5-.4-.4 1.3-.8 2.5-1.2 3.7-2.7-.2-5.4-.3-8-.5-.9-.1-1.2.3-1.5 1.1-1.6 5.6-3.2 11.3-4.8 16.9-.3 1.1-.4 2.3-.5 3.4-.3 3.1 1.7 5 4.7 4.1 1.5-.5 2.9-1.5 4.3-2.4.5-.3 1-.8 1.5-1.2.2-.2.7-.3.8-.2.2.3.5.7.4 1-.1.6-.4 1.3-.8 1.7-4.3 4.4-9.5 6.9-15.8 6.3-3.4-.3-5.2-2.7-4.5-6.1.6-3.1 1.4-6.2 2.2-9.3 1.3-5.1 2.7-10.1 4.2-15.4-2.3.3-4.4.5-6.6.8.3-1.3.6-2.6.9-3.8 1.7.1 3.3.1 4.9.3 1.1.1 1.7-.2 2-1.4 1.5-5.7 3.2-11.4 4.7-17.1.3-.9.7-1.2 1.6-1.2 2.6.1 5.1 0 7.9 0-2 6.6-3.9 13-5.9 19.7zM188.3 48.8c-2.3.3-4.3.5-6.6.8.3-1.3.6-2.6.9-3.8 1.8.1 3.4.2 5.1.3 1.1.1 1.5-.3 1.8-1.3 1.6-5.7 3.2-11.4 4.8-17.2.2-.9.6-1.2 1.5-1.2 2.6.1 5.1 0 7.9 0-2 6.6-3.9 13.1-5.9 19.7 3.2-.2 6.3-.3 9.5-.5-.4 1.3-.8 2.5-1.2 3.7-2.7-.2-5.4-.3-8-.5-.8-.1-1.2.2-1.5 1.1-1.6 5.7-3.3 11.4-4.8 17.1-.4 1.4-.5 2.9-.5 4.4.1 2 1.4 3.1 3.5 3.2 2.2 0 3.8-1.1 5.4-2.5.5-.4 1-.9 1.6-1.3.2-.2.7-.3.8-.2.3.2.6.7.5 1-.2.7-.5 1.4-.9 1.9-4.4 4.3-9.5 6.7-15.7 6.1-3.2-.3-5.1-2.7-4.5-5.8.8-4.1 1.9-8.2 2.9-12.2 1-4.2 2.2-8.4 3.4-12.8zM323.5 48.8c-2.3.3-4.4.5-6.6.8.3-1.3.6-2.6.9-3.8 1.8.1 3.5.2 5.2.3 1 .1 1.4-.3 1.6-1.2 1.6-5.7 3.2-11.4 4.8-17.2.3-1 .7-1.3 1.7-1.3 2.5.1 5 0 7.8 0-2 6.6-3.9 13-5.9 19.7 3.2-.2 6.3-.3 9.5-.4-.4 1.3-.9 2.5-1.2 3.7-2.8-.2-5.5-.3-8.2-.5-.6 0-1 0-1.2.7-1.7 6-3.4 11.9-5 17.8-.3 1.3-.4 2.7-.4 4 0 1.9 1.3 3.1 3.2 3.2 2.3.1 4.1-1.1 5.8-2.5.5-.4 1-.9 1.5-1.2.2-.2.7-.3.8-.2.3.2.5.7.5 1-.1.6-.3 1.3-.8 1.7-4.4 4.5-9.7 7-16.1 6.3-2.9-.3-4.8-2.7-4.2-5.6 1-5 2.3-9.9 3.5-14.9.8-3.4 1.8-6.8 2.8-10.4zM130.7 148.7c-.5 1.2-1 2.3-1.6 3.4-.4.6-1.1 1-1.6 1.5 0-.7-.2-1.5 0-2.1 1.5-4.4 2.9-8.8 3.6-13.4.1-.6.7-1.6 1.1-1.6 1 .1.7 1.1.7 1.7v.2c-.6 2.4.5 3.7 2.6 4.8 3.6 2 7.3 3.8 11.5 4 1.6.1 3.1-.1 4.5-.9 1.1-.7 1.9-1.6 1.8-3-.1-1.3-.8-2.3-2-2.7-2.3-.8-4.7-1.5-7-2.4-2.1-.7-4.2-1.4-6.3-2.4-4.7-2.1-5.1-6.9-3.4-10.4 2-4.1 5.6-6.5 9.7-8 4.8-1.8 9.7-1.6 14.6-.6 1.2.3 1.8.1 2.2-1.1.3-.8.7-1.6 1.2-2.3.3-.4.9-.7 1.4-1 0 .5.2 1.1.1 1.6-.7 2.1-1.5 4-2.1 6.1-.6 2.2-1 4.5-1.6 6.8-.2.6-.8 1.7-1 1.6-1-.2-.7-1.1-.8-1.9v-.7c.1-2.2.1-2.2-1.9-3-4.3-1.9-8.7-2.8-13.4-2-1.4.2-2.8.7-3.6 2.2-.7 1.3-.5 2.7.8 3.3 1.7.9 3.6 1.6 5.4 2.2 3.4 1.2 7 2.2 10.4 3.7 3.5 1.6 4.5 4.7 3.3 8.3-1.2 3.4-3.7 5.7-6.8 7.5-6.7 3.9-13.6 3.8-20.6 1-.4-.1-.7-.2-1.2-.4zM370.1 77.4c-.4.9-.9 1.8-1.3 2.8-.1.3-.2.7-.4.9-.4.4-1 .8-1.5 1.1-.1-.6-.3-1.2-.2-1.7 1-3.6 2.1-7.2 3.1-10.8.3-1.1.4-2.4.7-3.5.1-.4.6-.7.9-1.1.2.4.6.8.7 1.2.1 1-.1 2-.1 3 0 .4.1.9.4 1 4.2 3 8.8 5.4 14.1 5.6 1.9.1 3.7-.3 5.1-1.7 1.4-1.4 1.3-3.4-.3-4.4-1.3-.8-2.9-1.3-4.4-1.9-3-1-6-1.8-8.9-3-3.9-1.6-5.3-4-4.9-8.1.2-2.4 1.4-4.3 3.1-6 4.7-4.6 10.4-6.5 16.8-6 2.3.1 4.5.5 6.9.8.2-.5.5-1.2.8-1.8.3-.7.7-1.5 1.1-2.1.3-.3.8-.5 1.2-.7.1.5.3 1 .2 1.4-1 3.1-2 6.1-2.9 9.2-.4 1.3-.6 2.7-.9 4.1-.1.4-.3.8-.5 1.2-.1.2-.5.4-.7.3-.2 0-.4-.4-.4-.6 0-1-.1-2.1 0-3.1 0-.7-.2-1.1-.9-1.5-4.2-2-8.6-3.1-13.2-2.7-1.2.1-2.5.5-3.6 1-2.3 1.2-2.3 3.8 0 5 1.5.8 3.2 1.3 4.8 1.9 3 1 6 1.9 9 2.9 1.1.4 2.2 1 3.1 1.8 2.3 2 2.8 5.3 1.2 8.4-1.9 3.8-5.2 6.1-9 7.7-5.8 2.4-11.6 2.1-17.4-.1l-1.5-.6c0 .1-.1.1-.2.1zM419.3 117.1c1.1-1.6 1.2-3.9 3.1-4.9.1.1.3.1.4.2-.1.7 0 1.4-.2 2-1.5 4-2.8 8-3.5 12.3-.1.4-.2.9-.4 1.2-.2.3-.6.4-.9.7-.2-.3-.4-.6-.5-.9v-3c0-.4-.2-.9-.5-1.1-4.8-2.4-9.8-3.6-15.2-2.7-.7.1-1.4.4-2 .8-2.3 1.3-2.3 3.9 0 5.1 1.5.8 3.2 1.3 4.8 1.8 3.1 1.1 6.3 1.9 9.4 3.1 4.8 1.9 6.1 6 3.5 10.4-2.6 4.5-6.8 6.9-11.6 8.2-5.1 1.3-10.1.7-15-1.3-.4-.1-.7-.3-1.2-.5-.2.4-.4.7-.5 1-.4.9-.7 1.9-1.3 2.7-.3.5-1 .8-1.5 1.1-.1-.6-.3-1.2-.1-1.8 1-3.5 2.1-7 3.1-10.4.3-1.2.4-2.5.8-3.7.1-.5.6-.8 1-1.2.2.5.6.9.7 1.4.1.4.1 1 0 1.4-.5 1.7.2 2.6 1.7 3.5 3.9 2.3 7.8 4.3 12.4 4.6 1.6.1 3.2-.1 4.6-1 1.1-.7 1.7-1.6 1.7-3 0-1.3-.7-2.2-1.9-2.6-2.9-1-5.8-1.9-8.7-2.9-1.5-.5-3-1-4.4-1.7-4.3-2.1-5.7-6.4-3.5-10.7 2-3.9 5.3-6.2 9.2-7.7 4.9-2 9.9-1.8 15-.8.4.2.9.3 1.5.4z"/><path class="st0" d="M121 117.1l1.8-3.6c.2-.3.4-.7.6-.8.3-.2.7-.3 1-.2.2.1.3.6.3.8-.1.5-.3 1.1-.5 1.6-1.5 3.8-2.7 7.7-3.4 11.7-.1.7-.9 2-1.1 1.9-1.1-.2-.6-1.3-.7-2.1 0-2.7 0-2.7-2.5-3.7-4.2-1.7-8.5-2.6-13-1.7-1 .2-2.1.7-2.9 1.4-1.5 1.2-1.4 3.2.2 4.1 1.6.9 3.5 1.6 5.3 2.2 3.2 1.1 6.6 2 9.7 3.3 4.5 1.9 5.7 5.9 3.3 10.1-2 3.6-5.2 5.9-9 7.4-5.9 2.4-11.8 2-17.6-.3-.4-.2-.8-.3-1.4-.5l-1.5 3.3c-.4.7-.7 1.7-1.7 1.5-.1 0-.2-1.4 0-2.1 1.4-4.4 2.9-8.7 3.6-13.3.1-.6.7-1.1 1.1-1.7.3.6.6 1.2.7 1.8.1.3.1.7 0 1.1-.5 1.6.3 2.5 1.6 3.3 3.9 2.3 7.8 4.3 12.4 4.6 1.6.1 3.1-.1 4.5-.9 1.2-.7 1.9-1.7 1.9-3s-.7-2.2-1.9-2.7c-2.1-.8-4.2-1.5-6.3-2.2-2.2-.8-4.4-1.4-6.5-2.3-5.8-2.4-5.6-8.1-3.5-11.5 2-3.4 5.2-5.5 8.7-7 4.9-2 10-1.8 15.1-.9.6.2 1.1.3 1.7.4zM272.9 56.7c1.4-2.1 2.8-4.3 4.3-6.3 1-1.3 2.1-2.6 3.3-3.7 1.7-1.6 3.9-2.3 6.2-1.6 4.3 1.3 4.9 6 2.6 8.9-2.2 2.9-6.5 3.1-8.6.5-.6-.8-.9-1.8-1.3-2.8-2.4 2-4.1 4.6-5.6 7.3-3.2 5.8-5.1 12-6.9 18.3-.3.9-.6 1.2-1.6 1.2-2.4-.1-4.9 0-7.5 0 .6-1.8 1.2-3.4 1.7-5.1l5.1-17.7c.3-1.2.4-2.5.4-3.8 0-1.4-.9-1.9-2.1-1.1-.8.5-1.4 1.2-2 1.8-.6.6-1.2 1.3-1.9 1.8-.2.2-.9.3-1 .1-.2-.3-.3-.8-.3-1.2.1-.4.3-.8.6-1.1 2.1-2.5 4.5-4.7 7.4-6.3 1.6-.9 3.3-1.2 5.1-1 1.8.2 3 1.1 2.9 3-.1 2.4-.5 4.7-.8 7.1-.1.5-.2 1.1-.3 1.6.2 0 .3.1.3.1zM147.6 78.4c1-3.1 2.1-5.9 2.9-8.8 1.4-5.1 2.8-10.2 4.1-15.4.2-.7.2-1.5.2-2.3-.1-1.5-1-2-2.2-1.2-.7.5-1.2 1.1-1.8 1.7-.7.6-1.3 1.3-2 1.9-.2.2-.9.3-1 .1-.2-.3-.3-.8-.3-1.2.1-.4.4-.8.6-1.1 2.2-2.5 4.6-4.8 7.6-6.4 1.5-.8 3.2-1.1 4.9-.9 2.3.2 3.5 1.8 3.2 4.6-.3 2.3-.8 4.5-1.2 6.7 0 .2 0 .3.1.6.9-1.3 1.7-2.7 2.6-4 1.7-2.4 3.2-5 5.7-6.7 2.2-1.5 5.8-1.9 7.9.4 1.7 1.8 1.8 3.9 1 6-.7 2.1-2.3 3.4-4.5 3.6-3.4.4-4.9-.8-6.2-4.8-1.4 1.8-2.9 3.3-4 5.1-3.6 5.4-5.7 11.6-7.5 17.8-.3 1.1-.6 2.3-1 3.4-.1.3-.5.8-.8.8-2.8.2-5.5.1-8.3.1zM243.2 117.2c.5-.9.8-1.8 1.3-2.6.2-.3.7-.4 1.1-.6.1.4.4.9.3 1.3-1.3 4.6-2.6 9.1-3.9 13.7-.1.2-.1.4-.2.6-.4.4-.8.8-1.2 1.3-.2-.6-.6-1.1-.5-1.7.1-1.4.4-2.9.5-4.3 0-.3 0-.9-.3-1-3.3-2.3-7-3.4-11.1-2.9-2.5.3-3.9 2.2-4.8 4.2-1.9 4.2-2.9 8.6-3 13.2-.2 6.6 4.8 9.1 10.2 7.8 2.9-.7 4.9-2.8 7-4.8.7-.6 1.3-1.2 2-1.8 1 .5.6 1.2.3 1.7-2.7 4.7-6.6 7.9-11.8 9.3-3.6 1-7.3 1.1-10.8-.4-4.1-1.6-6.1-4.8-6.4-9.2-.3-5.3 1.8-9.9 5.1-13.8 4.5-5.3 10.2-8.9 17-10.5 3.1-.8 6.1-.6 9.2.5zM345.3 78.4c1.4-4.5 2.7-8.8 4-13.2 1.1-4.1 2.1-8.3 3.1-12.4.1-.5 0-1-.1-1.5-.2-.9-.9-1.2-1.7-.7-.9.6-1.6 1.3-2.4 2-.7.6-1.2 1.3-1.9 1.8-.2.2-.9.3-1 .2-.2-.3-.3-.7-.3-1.1 0-.3.2-.5.3-.8 2.8-3.4 5.8-6.5 10.3-7.6 1.1-.3 2.2-.3 3.3-.1 2.7.4 4 2.7 3.2 5.8-1 4-2.2 8-3.3 12-1.4 4.9-2.9 9.8-4.3 14.7-.2.7-.5 1-1.3 1-2.6-.1-5.2-.1-7.9-.1zM292 78.4c1.6-5.3 3.2-10.4 4.6-15.5.9-3.3 1.6-6.7 2.4-10.1.1-.4.1-.9 0-1.3-.2-1.1-.9-1.4-1.9-.9-.8.5-1.5 1.2-2.2 1.8-.7.6-1.3 1.3-2 1.9-.2.2-.9.3-1 .1-.2-.3-.4-.9-.2-1.1.6-1 1.3-2 2.1-2.8 2.4-2.4 4.9-4.7 8.4-5.4 1.1-.2 2.2-.3 3.3-.1 2.7.4 4 2.6 3.3 5.7-1.2 4.7-2.6 9.3-3.9 13.9-1.2 4.3-2.5 8.6-3.8 12.8-.1.4-.6.9-.9.9-2.7.2-5.4.1-8.2.1zM249.1 149.7c.9-3.1 1.8-5.9 2.7-8.9 1.5-5.3 2.9-10.6 4.3-15.9.3-1 .7-2.4-.5-3-1.3-.6-2.1.6-2.9 1.3-.7.7-1.4 1.5-2.2 2.2-.3.3-.9.3-1.4.5 0-.6-.3-1.3 0-1.6.7-1.1 1.6-2.1 2.5-3 2.3-2.2 4.8-4.3 8-4.9 2.2-.4 4.4-.5 5.9 1.6 1.1 1.5.8 3.2.4 4.8-1.6 5.8-3.3 11.6-5 17.3-.8 2.9-1.7 5.7-2.5 8.6-.2.7-.5 1-1.3 1h-8zM74.5 73c-3.1-.2-5.9-.7-8.2-3-2.5-2.5-2.5-5.3.1-7.7 4.1-3.9 12.9-3.7 16.8.4 1.9 2 2 4.7.1 6.8-2.4 2.6-5.5 3.3-8.8 3.5zM265.9 104.4c-3.1 0-5.8-2.8-5.7-5.9.1-3.1 2.8-5.8 6-5.7 3.1.1 5.7 2.8 5.6 5.9-.1 3.2-2.8 5.8-5.9 5.7zM362.1 33.1c-3.2 0-5.8-2.6-5.8-5.8 0-3.2 2.6-5.8 5.7-5.8s5.8 2.6 5.9 5.7c.1 3.2-2.6 5.9-5.8 5.9zM308.8 33.1c-3.2 0-5.8-2.6-5.8-5.9 0-3.1 2.7-5.7 5.8-5.7 3.1 0 5.8 2.6 5.8 5.8 0 3.2-2.6 5.8-5.8 5.8z"/></svg>