<svg xmlns="http://www.w3.org/2000/svg" viewBox="0 0 1296 713.54"><defs><style>.cls-1,.cls-2{fill:#293694;}.cls-2{font-size:72.71px;font-family:Calibri-Bold, Calibri;font-weight:700;}.cls-3{letter-spacing:-0.01em;}.cls-4{letter-spacing:-0.01em;}.cls-5{letter-spacing:-0.01em;}.cls-6{letter-spacing:0em;}</style></defs><title>arck-logo-final</title><g id="Layer_2" data-name="Layer 2"><g id="Layer_1-2" data-name="Layer 1"><ellipse class="cls-1" cx="989.51" cy="186.16" rx="30.59" ry="16.71" transform="translate(684.15 1145.6) rotate(-83)"/><path class="cls-1" d="M965.94,250.28h30.69C1077.35,164.63,1155,57.39,1155,57.39s-65.94,140.21-153.47,259.2v39.79C1056.88,399.2,1267.2,545.1,1296,573.52,1230.81,547,972,411,972,411V512.13c0,43.58-30.32,155-42.06,200.08,0-19.7-1.14-388-1.14-388L921.22,18.74l21.6,157.64Z"/><path class="cls-1" d="M873.09,262.66h47S906,148.21,788.27,148.21c-163,0-156.19,181.9-156.19,181.9s-3,187.45,148.55,187.45c119,0,143-135.41,140.59-138.95H877.64s-.5,95.25-96.5,95.25c-111.16,0-100.55-148.55-100.55-148.55s-3.7-133.39,104.84-133.39C868.55,191.92,873.09,262.66,873.09,262.66Z"/><path class="cls-1" d="M535.92,324.66c46.68-18.91,87.69-56.8,90.86-131.23.1-143.24-204.63-121.26-231.92-121.26H335.75V517.56h59.11V340.47a338.22,338.22,0,0,0,75.92-.05L628.65,517.56h79.18ZM431,295.83a321.37,321.37,0,0,1-36.18-1V130.53c34.78.86,173.56-31.07,169,81.21,0,41.44-29,62.81-63,73.63C477.34,292.87,451.38,295.3,431,295.83Z"/><polygon class="cls-1" points="194.14 0 187.76 0 148.92 0 142.54 0 15.18 519.56 62.4 519.56 85.2 420.05 235.27 420.05 222.28 382.91 94.27 382.91 168.34 79.54 236.71 359.54 242.41 382.91 249.35 411.32 255.85 437.94 274.29 519.56 327.5 519.56 194.14 0"/><text class="cls-2" transform="translate(0 612.37) scale(1.08 1)">Arthritis and Rheum<tspan class="cls-3" x="610.92" y="0">a</tspan><tspan class="cls-4" x="646.14" y="0">t</tspan><tspan x="670.64" y="0">ology</tspan></text><text class="cls-2" transform="translate(360.76 688.16) scale(1.11 1)">Clinics of <tspan class="cls-5" x="285.47" y="0">K</tspan><tspan class="cls-6" x="324.31" y="0">ansas</tspan></text></g></g></svg>