<svg xmlns="http://www.w3.org/2000/svg" xmlns:xlink="http://www.w3.org/1999/xlink" viewBox="0 0 119.23 115.33"><defs><style>.cls-1{fill:url(#New_Gradient_Swatch_3);}.cls-2{fill:#1c949c;}.cls-3{fill:url(#_Bottom_guy);}.cls-4{fill:url(#_Bottom_guy-2);}.cls-5{fill:url(#_Bottom_guy-3);}.cls-6{fill:url(#_Bottom_guy-4);}.cls-7{fill:url(#_Bottom_guy-5);}.cls-8{fill:url(#_Bottom_guy-6);}.cls-9{fill:url(#_Bottom_guy-7);}.cls-10{fill:url(#_Bottom_guy-8);}.cls-11{fill:url(#_Bottom_guy-9);}.cls-12{fill:url(#_Bottom_guy-10);}.cls-13{fill:url(#_Bottom_guy-11);}.cls-14{fill:url(#_Bottom_guy-12);}</style><linearGradient id="New_Gradient_Swatch_3" x1="377.22" y1="185.47" x2="357.67" y2="74.63" gradientTransform="matrix(0.96, 0, 0, -0.96, -293.66, 170.29)" gradientUnits="userSpaceOnUse"><stop offset="0.02" stop-color="#fff"/><stop offset="0.08" stop-color="#f3f8f9"/><stop offset="0.2" stop-color="#d3e7e9"/><stop offset="0.35" stop-color="#a0cacf"/><stop offset="0.39" stop-color="#91c2c7"/><stop offset="0.9" stop-color="#00757b"/></linearGradient><linearGradient id="_Bottom_guy" x1="192.45" y1="-222.92" x2="137.16" y2="-220.53" gradientTransform="translate(-109.52 260.14)" gradientUnits="userSpaceOnUse"><stop offset="0"/><stop offset="0.16" stop-color="#000405"/><stop offset="0.35" stop-color="#001212"/><stop offset="0.55" stop-color="#002729"/><stop offset="0.75" stop-color="#004649"/><stop offset="0.96" stop-color="#006c72"/><stop offset="1" stop-color="#00757b"/></linearGradient><linearGradient id="_Bottom_guy-2" x1="193.25" y1="-204.54" x2="137.95" y2="-202.16" xlink:href="#_Bottom_guy"/><linearGradient id="_Bottom_guy-3" x1="191.73" y1="-239.59" x2="136.44" y2="-237.2" xlink:href="#_Bottom_guy"/><linearGradient id="_Bottom_guy-4" x1="191.64" y1="-241.52" x2="136.37" y2="-239.14" xlink:href="#_Bottom_guy"/><linearGradient id="_Bottom_guy-5" x1="192.5" y1="-221.75" x2="137.21" y2="-219.36" xlink:href="#_Bottom_guy"/><linearGradient id="_Bottom_guy-6" x1="193.3" y1="-203.37" x2="138" y2="-200.99" xlink:href="#_Bottom_guy"/><linearGradient id="_Bottom_guy-7" x1="191.79" y1="-238.42" x2="136.49" y2="-236.03" xlink:href="#_Bottom_guy"/><linearGradient id="_Bottom_guy-8" x1="191.75" y1="-240.36" x2="136.18" y2="-237.96" xlink:href="#_Bottom_guy"/><linearGradient id="_Bottom_guy-9" x1="192.65" y1="-218.52" x2="137.35" y2="-216.14" xlink:href="#_Bottom_guy"/><linearGradient id="_Bottom_guy-10" x1="193.44" y1="-200.15" x2="138.15" y2="-197.77" xlink:href="#_Bottom_guy"/><linearGradient id="_Bottom_guy-11" x1="191.92" y1="-235.19" x2="136.63" y2="-232.81" xlink:href="#_Bottom_guy"/><linearGradient id="_Bottom_guy-12" x1="191.83" y1="-237.13" x2="136.49" y2="-234.74" xlink:href="#_Bottom_guy"/></defs><title>Logo-Hori-Color-BK</title><g id="Layer_2" data-name="Layer 2"><g id="Layer_1-2" data-name="Layer 1"><rect class="cls-1" width="119.23" height="84.95"/><path class="cls-2" d="M29.26,26.89a.28.28,0,0,0-.29-.24.26.26,0,0,0-.24.27v0S29,29.7,29,32v.16a24.65,24.65,0,0,1-.72,6.6,4.09,4.09,0,0,1-1,1.9c-.18-1.23-.37-6-.4-10.29a.27.27,0,0,0-.53,0h0c0,2.5.12,10.68.64,11a.3.3,0,0,0,.29,0c.76-.47,1-1.07,1.5-2.42A25.88,25.88,0,0,0,29.5,32C29.49,29.68,29.26,26.92,29.26,26.89ZM25,39.05l.21.6.48,1.14a.27.27,0,0,1,.14-.36.24.24,0,0,1,.33.12h0l-.44-1.07-.22-.64a18.39,18.39,0,0,1-.95-4.58c-.28-3.58-.19-6.65.22-7.29a2.07,2.07,0,0,1,2.71-.88.25.25,0,0,0,.35-.11.27.27,0,0,0-.12-.36h0a2.61,2.61,0,0,0-3.39,1c-.79,1.23-.35,7-.3,7.62a18.91,18.91,0,0,0,1,4.76Zm2.63,21.13-.14-.56-.19.16a.3.3,0,0,0-.23.1v-13c0-3.28.22-4.72.22-4.75a.18.18,0,0,0-.13-.21.18.18,0,0,0-.21.13,0,0,0,0,0,0,0s-.09.74-.16,2.33c0,.22,0,.45,0,.7v2.53c0-1.06,0-2-.05-2.74l0-.41c0-.85-.08-1.36-.11-1.61v-.2h0v5.85c0-3.15-.2-6.39-.21-6.42a.17.17,0,0,0-.18-.17h0a.17.17,0,0,0-.16.17h0s.21,2.79.21,5.7v.71c0,.82,0,2.56.05,4.68a0,0,0,0,0-.05.05V59c-.81-1.21-2-3.24-2.6-4.38l.22-.52-.24.5c-.15-.3-.28-.54-.34-.68-.22-.54-.22.41,0,1.47-.09.2-.2.42-.32.65l-.56-2.9L22,51a29.68,29.68,0,0,0,.91,5.1,16.45,16.45,0,0,1-2.46,4c-.19.15.06.39.29.1a22.2,22.2,0,0,0,2.2-4h0l.31-.68a4.94,4.94,0,0,0,.54,1.68,13.27,13.27,0,0,0,2.44,2.24v1H26S25.8,67,25.8,67v.2c0,.28,0,.87.08,2.22.05,1,.12,2.55.12,3.2v.29a12.48,12.48,0,0,0,0,2.64L26,75.44l.05,3.5a9.77,9.77,0,0,0,.05,1.47v0c0,.13-.13.48.11.67a.44.44,0,0,0,.48,0,2.11,2.11,0,0,0,.91-1.46l0-12.49,0-6.89h0v-.08Zm-.91,2c0-.48-.06-1-.08-1.51v-.9l.06,0Zm0-2.43-.07-.06c0-1.27.06-2.27.07-2.85Zm-6.45-5.33.08,0v-1a2.06,2.06,0,0,1,1.25-.11,2.21,2.21,0,0,1,.53.57,5.87,5.87,0,0,0-.47-.75,2.36,2.36,0,0,0-1.39-.12L20.12,53c.05-2.49.12-5.08.21-7.75l.07-.63h0c0-1.06.08-2.12.12-3.2a11.21,11.21,0,0,0,1,.47h0l.06,0h0c.07,0,.12,0,.15,0l0-.08-.19-.09a6.32,6.32,0,0,1-1.07-.93c.06-1.42.13-2.89.2-4.36l0-.39,0,0v-.41l.54.13c1.9.47,1.9.47,1.93.34v0s-.07,0-.1-.06H23s0,0-.09,0a3.64,3.64,0,0,1-1.24-.63,3.21,3.21,0,0,0-.95-.5c.47-9.13,1.24-19,2.5-29.42a.17.17,0,0,0-.15-.2h-.05L22.86,5c-.07-.07-.12-.09-.16-.08l-.19,0,.1.15.19.22.1.09h0c-.17,1.52-.33,3-.5,4.57a2,2,0,0,0-.74-.58,1.13,1.13,0,0,0-.81,0c.19-1.54.4-3,.63-4.33h0a.72.72,0,0,1,.2-.09V4.72a.51.51,0,0,0-.37.15.15.15,0,0,0-.15.13v.07h0c-.24,1.4-.48,2.92-.66,4.53l-.05,0-.05,0-.07,1,.05,0c-.21,1.85-.4,3.8-.58,5.87l-.06.06,0,0-.12,1,.13-.05c-.24,3.08-.44,6.33-.61,9.69l-.08.13v0l-.08,1,.12-.05q-.15,3-.25,6.12a6.09,6.09,0,0,0-3,.24,2.5,2.5,0,0,0-.48.55c-.14-.17-.25-.32-.32-.42h0c-.11-.17-.19-.24-.28-.22H14.7l-.07.11a.81.81,0,0,0,0,.22,7.46,7.46,0,0,0,1.42,3.82l0,0L15.9,40l-1-1.72.6.39.12-.12c-.14-.2-.84-1.17-1.18-1.2h0l-.13,0h-.07c-.19,0-.51.06-.92,1.1-.52,1.3-.08,5.45-.07,5.63h.18a36.13,36.13,0,0,1,.74-3.61l.47-2.37c.25.49.66,1.32,1.16,2.27l-.08.58.17,0,.07-.31c.71,1.32,1.54,2.79,2.27,3.87h0l-.05.05-.08,1,.35-.09c0,1.11,0,2.21-.06,3.3-.07,1.42-.13,2.94-.18,4.53l0,0v0l-.06.57a2.15,2.15,0,0,1-.77.6c-.31.17.19,0,.78-.29,0,.55,0,1.11-.05,1.68v.31c0-.68,0-1.2,0-1.57H18c-.07,1-.05,3,0,6.25v.35h0l0,0v1l.08,0v3.19l0-.63a11.15,11.15,0,0,1,0-2.31h-.16c0-4.42-.05-6.93,0-8.06h0c-.07,1.13-.07,3.65,0,8.06h0a13,13,0,0,0,0,2.33l0,.47c0,1.37,0,2.85.06,4.5v1.42a43.29,43.29,0,0,1-.17,5.22l-.05.65.07-.65A41.33,41.33,0,0,0,18,71.31V69.89c0-1.47,0-2.82,0-4.06l.15,2.93v1.56h0l0,.06v1h.05v3.54C18,75.52,18,76,18,76h.08A4.33,4.33,0,0,1,18,77l0,.39h.17l.05-.36c0-.07,0-.16.05-.3h0v-1h0a.18.18,0,0,0,.17-.14v1h.21c0-.3,0-.59,0-.88v-.21c-.05-1.59-.08-3-.12-4.27h.15V72l.06.75v3.9s0-2.31,0-3.41l.15,2.06c0,.5,0,1-.08,1.55H19c0-.37,0-.72.06-1.08h0v-.19c.08-1.59.14-3,.21-4.39l.19,0-.06,3.51c0,.72-.08,1.45-.13,2.19,0-.61.09-1.22.13-1.82v.76a.18.18,0,0,0,.17.18.17.17,0,0,0,.18-.17h0l.07-4.27c0,1,.12,3.58.12,3.58h.21L20,71.28h.13V70L20,70l-.06,0c0-1.56,0-3,.1-4.93C20.16,62.46,20.27,59.32,20.26,54.46Zm-2,5.49v.14c0-.61,0-1.22,0-1.81C18.24,58.85,18.24,59.4,18.23,60Zm1.82-19.59-.17-.15c0-1.08.07-2.15.1-3.17l.18.09C20.11,38.12,20.11,39.2,20.05,40.36Zm-.48-3.53.33.17c0,1-.06,2.07-.1,3.14l-.54-.55c0-.92,0-1.82,0-2.73Zm-.24-1.27V35.3l.56.12h.05v.12a1.32,1.32,0,0,0-.34,0l-.26.06Zm.86.06L20,35.56v-.11l.16,0a.62.62,0,0,1,0,.13Zm.07-5.08c0,1,0,2.37-.05,4.11h-.15c.07-1.68.14-3.27.21-4.75ZM20,34.6l-.59-.09.07-1.09.25-5.33L20,28a.4.4,0,0,1,.28.08c-.1,2-.19,4.19-.3,6.52ZM19.41,31c0-.95.05-1.9.09-2.85h0Zm.7-4.37a.81.81,0,0,0-.31.05l.12-2.59.36-6.72h-.06a1.85,1.85,0,0,1,.47,0,1.69,1.69,0,0,1,.57.28c-.32,1.83-.62,4.94-.87,9A.9.9,0,0,0,20.11,26.65Zm.32,8c0-1.73.05-3.09.06-4.1l0-2.17h-.16v-.25a1.67,1.67,0,0,1,.39.36h0C20.66,30.58,20.54,32.63,20.43,34.65ZM20.91,27a1.24,1.24,0,0,0-.43-.25c.25-4.06.54-7.16.86-9l.12.1.16.14q-.42,4.61-.72,9Zm-.19-16.54a1,1,0,0,1,.78,0,2.71,2.71,0,0,1,.75.68l0,0q-.3,2.73-.54,5.4a2.79,2.79,0,0,0-.95-.42.92.92,0,0,0-.67.11Q20.4,13.16,20.72,10.44Zm-.88,9.65c.06-.9.13-1.79.2-2.66h.06l-.35,6.69-.12,2.64-.06,0C19.63,24.64,19.72,22.43,19.84,20.09Zm-.18,2.79c-.06,1.35-.11,2.66-.16,3.94l-.06,0C19.51,25.52,19.58,24.2,19.66,22.88Zm-.3,5.6V28.2h.07c-.05,1.74-.1,3.45-.14,5.14v.08l-.06,1.08h-.09Zm-.23,6.76h.06l0,.35h-.05Zm.05,2.9.06-1V39.5l-.14-.11c0-.4.06-.82.08-1.23ZM18.94,42c0-.47,0-.95.08-1.42l.19.1v3.4a1,1,0,0,0-.33.09c0-.74,0-1.46.06-2.15Zm-.14,6.25c0-1.46.08-2.73.08-2.73h0v-.12h0l.29.32a.06.06,0,0,1,.05,0c0,1.43,0,2.62-.09,3.63-.13.73-.25,1.43-.35,2,0-1.06,0-2.09.05-3.09Zm0,4.39c0-.3.13-.71.21-1.19l-.14,1.42-.07,0Zm0,1.45.66-.13.13.07v.36c0,1.67,0,3.52-.09,6.33h-.34a1.43,1.43,0,0,0-.54.13v-2.1c0-.71.13-1.9.15-4.56l0-.13ZM16.75,35a14.46,14.46,0,0,1,2,.23c0,.22,0,.44,0,.66l-.15.13,0,0-.1,1,.25,0-.06,2c-.67-.71-1.35-1.46-1.95-2.13A11.29,11.29,0,0,0,16.75,35Zm-1.25.48A2.5,2.5,0,0,1,16,35a1.3,1.3,0,0,1,.55-.09l-.17,1.5-.85-1Zm.56,4.86c.08-.34.17-.79.26-1.29a16.85,16.85,0,0,0,2.26,1.38c0,1.29-.08,2.58-.1,3.87C17.74,43.19,16.82,41.63,16.06,40.29Zm2.41,29.62,0-2.31c0,.64.05,1.39.08,2.25A.33.33,0,0,0,18.47,69.91Zm.47,3.91L18.81,72a6.35,6.35,0,0,0,0-.76l.28,0C19,72,19,72.88,19,73.82Zm.19-4.13h-.19a.83.83,0,0,0-.21.06c-.18-5.82-.18-5.94-.12-6.92l0-.51h-.09v-.23l.48-.22.37.21c0,2-.12,4.49-.24,7.61Zm.43-3.8,0,3.87-.16,0c.11-2.58.19-4.72.25-6.51,0,.88,0,1.8,0,2.66Zm.07-16.59c0,1.35-.06,2.44-.07,3.51a2,2,0,0,0-.35,0,1.23,1.23,0,0,0-.32.07c.07-.63.13-1.27.19-2,.18-1.05.4-2.25.57-3.19Zm0-2.92c-.12.68-.3,1.65-.47,2.64,0-.91.06-2,.07-3.18a.34.34,0,0,0,.28,0,.18.18,0,0,0,.13-.15c0,.21,0,.43,0,.64Zm0-.7a.22.22,0,0,0-.12-.18h0a1.57,1.57,0,0,1-.21-.17h0l.32.22Zm-.41-1.54V40.77l.53.27c0,1-.06,2.09-.09,3.17A1.1,1.1,0,0,0,19.26,44.14Zm.52,8.63v.11h0V51.22c0,.63,0,1.18,0,1.53Zm0-7.08a2.43,2.43,0,0,1-.05.28v-.35l.05,0v0Zm.08-1.43-.09,0c0-1.08.05-2.13.08-3.16l.15.08c0,1-.08,2-.13,3.1ZM20,62.77v-.36h0ZM20,61c0-1.79.06-3.65.09-5.57,0,2.2,0,4-.07,5.59a0,0,0,0,1,0,0Z"/><path d="M5.66,114.72H3l10.35-24h2.37l10.28,24H23.28l-2.64-6.3H8.26Zm3.52-8.53H19.73L14.45,93.47Z"/><path d="M29.68,90.77h6.76a13.15,13.15,0,0,1,3.32.39,7.14,7.14,0,0,1,2.55,1.18,5.28,5.28,0,0,1,1.64,2,6.59,6.59,0,0,1,.58,2.83,6.23,6.23,0,0,1-.6,2.82,5.43,5.43,0,0,1-1.65,2,7.54,7.54,0,0,1-2.57,1.2,12.89,12.89,0,0,1-3.34.41H32.11v11.13H29.68Zm2.43,10.75h4.13a7.21,7.21,0,0,0,4.36-1.11,3.83,3.83,0,0,0,1.49-3.25,3.62,3.62,0,0,0-1.54-3.26,7.67,7.67,0,0,0-4.31-1H32.11Z"/><path d="M49.46,90.77H51.9v10.38H65V90.77h2.43v24H65V103.38H51.9v11.34H49.46Z"/><path d="M94.08,110.83a9.73,9.73,0,0,1-1.47,1.72,10,10,0,0,1-2,1.44,11.2,11.2,0,0,1-2.51,1,11.71,11.71,0,0,1-3,.37,13.07,13.07,0,0,1-5-1,11.62,11.62,0,0,1-6.54-6.6,13.3,13.3,0,0,1-.93-5,13.11,13.11,0,0,1,.94-5,12.05,12.05,0,0,1,2.62-4,12.24,12.24,0,0,1,4-2.63,12.88,12.88,0,0,1,5-.94,12.44,12.44,0,0,1,2.59.27,12.07,12.07,0,0,1,2.38.78,10.12,10.12,0,0,1,2,1.19A6.87,6.87,0,0,1,93.64,94l-2,1.49a5.68,5.68,0,0,0-1-1.15,6.79,6.79,0,0,0-1.48-1,9.14,9.14,0,0,0-1.84-.71,8.22,8.22,0,0,0-2.15-.27,9.85,9.85,0,0,0-4.18.85,9.41,9.41,0,0,0-3.12,2.27,9.92,9.92,0,0,0-2,3.32,11.75,11.75,0,0,0-.67,4,11.53,11.53,0,0,0,.69,4,10,10,0,0,0,2,3.32A9.47,9.47,0,0,0,81,112.32a9.88,9.88,0,0,0,4.14.84,9.3,9.3,0,0,0,3.93-.85,7.43,7.43,0,0,0,3.11-2.7Z"/><path d="M105.79,111.57h.07l7.78-20.8h2.6l-9.17,24H104.5l-9.13-24H98Z"/><path class="cls-3" d="M62.06,49.48a.9.9,0,0,0,.35,0c.15-.06.21,0,.31,0s.1.07.21,0l.27,0,3.09.27c.47,0,.07,0-.22,0l-2-.2a2.82,2.82,0,0,1-1.18-.28.23.23,0,0,1-.23-.25c0-.3.54-.25.59-.29l.46,0,.28.06.25.06a2.55,2.55,0,0,0,.32.07l2,.22h.1s.15,0,.12,0l-2.24-.25s-.26,0-.3,0a1.33,1.33,0,0,1-.53-.27c-.12-.13-.11-.25-.1-.25-.12-.36,2.45,0,2.65.1l.23,0,.22,0c0-.08,0,0-.1,0l-.49-.07a1.93,1.93,0,0,1-.54-.07c-.21,0-.61,0-1-.09-.13,0-1.51-.09-2-.21s-.2-.47.09-.58,1.59.11,1.6.11,1.6.2,1.61.19.22,0,.21,0a1.57,1.57,0,0,1-.29,0s-2-.21-2.1-.24-.27-.11-.32-.31,0-.23.26-.27a1,1,0,0,1,.71,0l.63.07a4.38,4.38,0,0,0,.59.13,6.68,6.68,0,0,0-1-.21h0l-1.9-.14a5.83,5.83,0,0,0-.87-.13c-.3,0-.62-.17-.91-.18,0,0-.23-.12-.41-.24a.48.48,0,0,1-.05-.17,1.5,1.5,0,0,1,0-.51,12.91,12.91,0,0,0,0-1.39c.14-.91.16-1.79.29-2.71.19-1.34,0-2.64.1-4l0,0a6.86,6.86,0,0,0,.26-2.59A9.7,9.7,0,0,0,60.8,33a12.21,12.21,0,0,0-.75-1.43,5,5,0,0,0-2-1.59,11.41,11.41,0,0,0-1.18-.55c-1.27-1-2.17-2-3.85-2.35L52.82,27a2.55,2.55,0,0,0-1.22-.05,2,2,0,0,0-.69,0h-.73l-1,0a1.16,1.16,0,0,0-.37,0h0l-.16,0h0s0,0,0,0h-.05l0,0h0l-.07,0h-.09a1.56,1.56,0,0,0-.37.1h.05a2,2,0,0,1-.23.07l0,0-.2,0c-.12.07-.25.09-.38.16a5.54,5.54,0,0,0-.63.38,3.75,3.75,0,0,0-1.13.74h-.09a.68.68,0,0,0-.3.11,2.23,2.23,0,0,1-.24.19l0,0c-.14.09-.32.14-.41.32,0,0,0,0,0,0l-.08.11,0-.06a.59.59,0,0,0-.25.37l0-.1-.16.2a.32.32,0,0,0-.11.12v.07a.77.77,0,0,1-.07.16,3,3,0,0,0-.21.4.43.43,0,0,0,0-.05c-.18.31-.39.57-.6.87a.12.12,0,0,0-.06.06,25.45,25.45,0,0,1-1.83,2.08c-.19.22-.37.42-.56.62h0a.35.35,0,0,0-.22.19.09.09,0,0,1,0,0l-.09.1-.06,0,0,.06c-.7.75-1.39,1.47-2.07,2.27l-.14.11a3.09,3.09,0,0,0-.8.69c-.42.4-.71.88-1.12,1.28l.06-.07a.81.81,0,0,0-.27.28,1.36,1.36,0,0,0-.42.69l-.11.33,0,0a4.39,4.39,0,0,1-.4.67,8.84,8.84,0,0,0-.91,1c-.09.11-.11.25-.19.37a7.35,7.35,0,0,0-1,2.38l.19.63h0a.31.31,0,0,0,.09.11l.11.08h0a5.28,5.28,0,0,0,1,.23,7.27,7.27,0,0,0,.92.13,2.82,2.82,0,0,0,.41,0c.15,0,.3,0,.45,0a5.71,5.71,0,0,0,.82-.18,5.85,5.85,0,0,0,1.24-.16c.56-.09,1.1-.2,1.64-.3.13,0,.26-.05.38-.05l.17,0h0a4.4,4.4,0,0,0,.88-.24l.27,0a2.06,2.06,0,0,0,.68-.25,11.77,11.77,0,0,0,2-.82,6.34,6.34,0,0,0,.88-.49l1.09-.33a.58.58,0,0,0,.23-.15c.11-.11,3.86-1.08,3.93-1.16s.15,0,.24-.05l.17-.06L54.62,40c.4-.16,0,0-.27.06l-1.85.56a2.86,2.86,0,0,1-1.19.25s-.16,0-.24-.23.31-.36.34-.42l.43-.15.28-.06.26-.06.31-.07,2-.51.26-.07a.12.12,0,0,1-.09,0l-2.21.6s-.25,0-.29.06l-.43,0s-.17.06-.16-.27,2-.84,2.25-.87l.33-.11.14-.06s.05,0-.21.06l-.6.17a1,1,0,0,1-.34.09c-.2,0-1.06.37-1.42.47-.14,0-.87.17-1.34.26s-.36-.17-.14-.39a14.27,14.27,0,0,1,1.49-.59S53,38.37,53,38.35s.2-.09.18-.1a2.25,2.25,0,0,1-.37.13s-1.47.43-1.56.44a1.08,1.08,0,0,1-.19,0s-.26,0-.07-.41c0,0,.11-.14.66-.28l.61-.22c.07,0,0,0-.06,0a1,1,0,0,0-.42.09h0L50,38.65c-.32.08-4.47,1.3-4.53,1.34-.27.14-.64.1-.91.22-.1,0-.57.14-.68.19a10,10,0,0,1-1.23.3c-.2,0-.78.26-1,.31s-.52.09-.62.1-.36-.14-.51-.2a1.6,1.6,0,0,1-.31-.21s-.08-.08,0-.41a3.17,3.17,0,0,1,.19-.49.84.84,0,0,1,.38-.55c.15-.28.58-.55.9-.91s.88-.61,1.28-1a2.16,2.16,0,0,0,.33-.27h0a.33.33,0,0,0,.14-.21l.18-.16a4,4,0,0,0,.88-.71l0,0a.08.08,0,0,0,0,0,7.17,7.17,0,0,0,1.21-1.06c.11-.09.48-.34.76-.53a.32.32,0,0,0,.25-.15l0,0c.5-.38,1-.72,1.49-1.16a7.54,7.54,0,0,1,1.38-1.21A4.93,4.93,0,0,1,51,31.41l-.09,0a.59.59,0,0,0,.23,0c.14,0,.28-.05.42-.08a1.92,1.92,0,0,0,.24,0A.3.3,0,0,0,52,31.3l.56-.07a1.44,1.44,0,0,1,.57.11.31.31,0,0,0,.13.1l.06,0c.26.11.53.2.78.32.42.37.94.83,1.43,1.29a.31.31,0,0,0,.24.23h0c.45.41.85.8,1.11,1.09a4.13,4.13,0,0,0,.08.78.34.34,0,0,0-.05.17c0,.36,0,.72,0,1.1a18.12,18.12,0,0,1,0,1.95s0,.05,0,.08c0,.87,0,1.75,0,2.62.11.16,0,.32,0,.5.11.67.24,1.3.3,2,0,.27,0,.52.08.79s0,.47,0,.71a2.56,2.56,0,0,0,0,.27c0,.37,0,.73,0,1.1a1.22,1.22,0,0,0,.08.47c.13.88.11,1.73.79,2.29a7.31,7.31,0,0,0,3.39.25Zm-16.61-21s0,0,0,0l0,0S45.46,28.5,45.45,28.5Z"/><path class="cls-4" d="M58.77,59.48c0-.41,0-.82-.07-1.22s0-.54,0-.82c0-.1-.08-.19-.13-.28a.11.11,0,0,0,0,0s0-.09-.05-.13a4,4,0,0,0-.17-1.11c-.13-.3-.29-.58-.42-.88,0-.05,0-.11,0-.16a2.66,2.66,0,0,0-.35-.46A24.92,24.92,0,0,0,55,50.75c-.59-.77-1.3-1.35-1.9-2.06,0,0-.07,0-.09-.06a2.64,2.64,0,0,0,0-.28,15.45,15.45,0,0,0-2-1.73,5.67,5.67,0,0,0-1.81-1.54L49,44.87a1.1,1.1,0,0,0-.38-.29,8.52,8.52,0,0,0-.74-.57l-.18-.11c-.46-.08-.57.37-.76.71h-.1s-.13.19-.33.45a2.71,2.71,0,0,0-.35.24c-.15.13-.13.37-.29.52h0a2.1,2.1,0,0,0-.26.13.41.41,0,0,0-.23.16.48.48,0,0,0-.14.25,1.07,1.07,0,0,0-.25.47.09.09,0,0,1,0,0l-.63.84L44,48l.17-.12-.51.7c0-.06.05-.12.09-.21a3.62,3.62,0,0,0-.22.32c0,.07-.13.09-.17.16a5.69,5.69,0,0,1-.58.82,1.85,1.85,0,0,0-.14.14,2.69,2.69,0,0,1-.27.2,5.34,5.34,0,0,0-.43.71.67.67,0,0,0-.18.11c-.15.24-.34.46-.5.68a1.56,1.56,0,0,1-.6.37,1,1,0,0,0-.38.67,1.41,1.41,0,0,0-.13.24l-.33.49c-.31.34-.62.68-.94,1a11.72,11.72,0,0,0-1.58,1.17,1.47,1.47,0,0,0-.29.48l0,0,.11-.11a.11.11,0,0,0,0,.08.46.46,0,0,0-.13.21v.09l0,0c0-.09,0-.19.07-.27a2.12,2.12,0,0,0-.57.77A15.85,15.85,0,0,0,35.07,58c-.4.48-.74,1-1.09,1.47,0,0,0,0-.06,0l-.1.08-.11.09c-.08.05-.13.12-.2.17s-.25-.07-.28,0,.14,0,.27,0a4.18,4.18,0,0,0-.92.81,7.33,7.33,0,0,0-1.29,1.54l0,0,0,0-.08.08a.44.44,0,0,0-.11.45s0,0,0,0c-.32.28-.63.57-1,.83l-.11.09a.55.55,0,0,0-.12.21.45.45,0,0,0,0,.28h0v0h0l-.13.21h0a4.37,4.37,0,0,1-.37.48c-.21.28-.43.54-.64.82-.37.37-.78.71-1.17,1.06a2.66,2.66,0,0,0-.34.4l0,0a1.33,1.33,0,0,0-.4.35l0,0a.15.15,0,0,0,0,.2s.08,0,.13,0l0,0h.15s0,0,0,0V68l0,0c-.25.4-.49.81-.75,1.21l-.19.09a.09.09,0,0,0-.06.06l-.09.19a.07.07,0,0,0,0,0v.1a.14.14,0,0,0,0,.06.12.12,0,0,0,.1,0,.13.13,0,0,0,0,.06s0,0,0,0a.28.28,0,0,0,0,.07c-.15.2-.3.41-.45.6a1.45,1.45,0,0,0-.3.39l-.13.2h0s0,0,0,0,0,.08,0,.1h0s0,0,0,0,.05,0,.07,0,.06,0,.08,0l0,0h0v0l.09-.12h0a4.88,4.88,0,0,1,1.24-1.07h0a.11.11,0,0,0,.05,0h0l0,0,.11.06,0,0h0l.06,0a.24.24,0,0,0,.11,0l.11-.06a4.54,4.54,0,0,0,.29-.39c.13-.13.24-.23.36-.33l.1,0s0,0,0,0a.25.25,0,0,0,.07.09.32.32,0,0,0,.22,0s0,0,0,0v0h0a.1.1,0,0,0,.09,0l.12-.12a2,2,0,0,1,.07-.26c.14-.12.3-.33.49-.5s.49-.61.74-.9l.24-.19.08,0c-.17.42-.66.65-.87,1.09l0,.19h0a.17.17,0,0,0,0,.23l.06,0h0c-.19.19-.34.41-.53.61a1.41,1.41,0,0,1-.18.14c-.13.1-.16.26-.24.39h0s0,0,0,.06l-.16.15-.09.12-.05,0a.07.07,0,0,0,0,.06l0,.09a.13.13,0,0,0,.06.15.13.13,0,0,0,.17,0l.05-.08a1.85,1.85,0,0,1,.14-.14l.18-.17,0,0h0v0a1.7,1.7,0,0,0,.19-.19,3.71,3.71,0,0,0,.29-.27,6.55,6.55,0,0,0,1-1s0,0,0,0l.06-.08a.91.91,0,0,1,.16-.11l.08,0a.7.7,0,0,0,.16-.1l0,0a.29.29,0,0,0,.14-.08l.11-.13a1,1,0,0,0,.63-.54l.1-.17c1.06-1.2,2.1-2.3,3.16-3.53.48-.55.89-1.1,1.4-1.63s1.1-1,1.57-1.52.9-1.09,1.39-1.63c.29-.33.6-.59.91-.9.57-.59.93-1.28,1.46-1.89,1-1.19,2.08-2.18,3.16-3.31A25.25,25.25,0,0,0,48,49.56l.18-.2v0a.39.39,0,0,0,.17-.25l0,0c.29.21.49.52.81.73A14.13,14.13,0,0,1,51,51.25a9.44,9.44,0,0,1,.81,1.12,5.2,5.2,0,0,0,.84.85l.11.16a5.64,5.64,0,0,1,.74.81,10.22,10.22,0,0,0,.88,1.17c.14.18.29.34.41.53a8.08,8.08,0,0,1,.86,2.65.53.53,0,0,0,.11.21v.55a1.16,1.16,0,0,1,0,.18s0,0,0,0a5,5,0,0,1-.9,1.74,9.77,9.77,0,0,0-1.28,1.13c-.83.25-1.7.24-2.54.52a3.92,3.92,0,0,1-.66.15,15.93,15.93,0,0,1-2.06-.19l-.24-.1c-.24-.15,0,0-.24-.16l-.22-.09a2.32,2.32,0,0,0-.41-.2,1.06,1.06,0,0,1-.28-.16L46.68,62h0a11.09,11.09,0,0,0-2.21-1.43l-.36-.16a2.48,2.48,0,0,0-.31-.18l-.25-.11-.82-.39-.24-.13-.18-.12s-.1,0-.21-.13-.1-.1-.11-.09L41.38,59l-.27-.16c-.09,0,0-.11-.11,0s0,0,.13.12.3.13.34.16l.5.33s1.77.86,1.77.89.79.38.26.8c-.12.1-2.84-1.41-2.75-1.26l.29.23.4.13s.84.42.86.43.7.11.93.61c.09.2-.27.45-.27.45l-1.62-.87-.28-.05.23.11c-.09,0,.32,0,.32.13l.26.16s.3.16.32.18.48.18.74.43c.77.72.08.54,0,.54l-1.88-.83L41,61.17l-.09-.07L40.77,61a1.28,1.28,0,0,0-.27-.11c-.14,0,.45.23.45.25l.51.27a1.46,1.46,0,0,0,.35.18l.2.11.3.09a1.12,1.12,0,0,0,.28.16l.27.16a1.63,1.63,0,0,1,.39.13.86.86,0,0,1,.61.73c0,.63-.65.13-.65.13L41.09,62l.59.31.08.08h0a2.46,2.46,0,0,0,.76.38,1.53,1.53,0,0,0,.29.18c.37,0,.3.12.32.14l.18.18c.14.22.07.11.32.31a5.11,5.11,0,0,0,1.62.75c.12.08.28.11.42.19a1.43,1.43,0,0,1,.22.15h-.06a.44.44,0,0,0,.6.2h0a1.36,1.36,0,0,0,.21.1h0A22.31,22.31,0,0,0,51,66.34l.42-.28A1.48,1.48,0,0,0,52.51,66l.16,0v0h0v0h.11l.29,0a2,2,0,0,1,.47-.28l.33-.14A2.8,2.8,0,0,0,55,65.13c.18-.09.37-.17.55-.28l0,0A1.56,1.56,0,0,0,56,64.4a1.33,1.33,0,0,1,.21,0,3.86,3.86,0,0,0,.54-.52,3.82,3.82,0,0,0,.32-.49s.29-.3.65-.76l.36-.37a.7.7,0,0,0,.15-.19,2.3,2.3,0,0,0,.37-.83s0,0,0,0l0-.07c0-.12,0-.25,0-.37v0s0,0,0,0,0-.21,0-.32h0a.27.27,0,0,0,0-.13,3.55,3.55,0,0,0,0-.73ZM40.14,52.92l0,0,0-.07A.06.06,0,0,0,40.14,52.92Zm3.32-4.07s0,0,0-.05h0Zm1.62-2.16c0-.06.05-.12.07-.17a.13.13,0,0,0,0,.06Z"/><path class="cls-5" d="M55.85,20.39l0,0a.05.05,0,0,0,0,0s0,0,0,0-.08.1-.13.15h-.19l-3,.17,2.1.1a.08.08,0,0,0,.08.07h0c.15,0,.87,0,1,0l-.63.07a0,0,0,0,0,0,0c.55.26.32.08-.16.31a3.57,3.57,0,0,0-1-.09h0s0,0-.09.08h0a.06.06,0,0,0,0,0c-.14,0-.6.13-.75.12l.61.07.41,0,.06,0h0a4.1,4.1,0,0,0,1,0c-.18.06.32,0,.7.06.14,0-.41.06-.26.08h0a3.2,3.2,0,0,0,.41.07l-.11.11-.09.06-.24.19-.2,0a.42.42,0,0,1-.31,0l-.38.08h-.16a.57.57,0,0,0-.13,0h-.05a0,0,0,0,0,0,0h-.14a.06.06,0,0,0,0,0l.07,0h.22a1.38,1.38,0,0,0,.67,0h.54l-.14.15h.33l.23.06,0,0h0l-.09,0-.14,0-.23.1-.63,0h-.12l0,0s0,0,0,0a0,0,0,0,0,0,0l.08,0H55a1.67,1.67,0,0,0,.59,0h.14A1.49,1.49,0,0,1,56,23l0,0a1.09,1.09,0,0,0,.23.14h-.08l-.05,0-.15,0a.87.87,0,0,0-.48,0l-.74.09h0l-.07,0h-.09l-.36.09.37,0s0,0,0,0a.21.21,0,0,0,.11,0h0l.09,0h.5l0,0v0s0,0,0,0h.11l.08,0h0l.33,0h0a1.43,1.43,0,0,1-.43.08l-.33.09h0l-.07,0h0a1.06,1.06,0,0,0-.21.11v0a.06.06,0,0,0,0,0H55l.13,0a5.26,5.26,0,0,0,1,0,.16.16,0,0,0,.11-.1h0a.94.94,0,0,0,0,.16l-.15,0L56,24s0,0,0,.06a.13.13,0,0,0,0,.14l-.07,0s0,0,0,0l-.43.15a3.66,3.66,0,0,0-.81,0h-.06l0,0h0a.09.09,0,0,0-.06.08.09.09,0,0,0,.08.08h0c.41,0,.83,0,1.24,0a1.5,1.5,0,0,0,.3,0h.1a2.31,2.31,0,0,0,.37.24,1.86,1.86,0,0,1,.62,0s0,0,0,0l0,0s0,0,0,.06,0,0,0,.06l0,0h0v0a13.67,13.67,0,0,1-1.43.05h-.11a.07.07,0,0,0-.08.07.07.07,0,0,0,.08.08h.08s.08,0,.11,0a1.15,1.15,0,0,0,.83.17h0a10.61,10.61,0,0,1,1.13,0h0a.9.9,0,0,1-.34.12,2.26,2.26,0,0,0-.27.28l-.28.1s0,0,0,0a2,2,0,0,1-.42,0l-.09,0a.08.08,0,0,0,0,.1.09.09,0,0,0,.1.05h.06c.22,0,.44,0,.66,0l.16,0a13.79,13.79,0,0,1,1.9-.17,6.78,6.78,0,0,0,1.59-.69,5.79,5.79,0,0,1,.73-1.05.33.33,0,0,0,.19-.16,6.5,6.5,0,0,0,1.55-3,.68.68,0,0,0,.14-.23,1.26,1.26,0,0,0,0-.79v0h0s0,0,0,0c-.11-.31-.35-.53-.48-.83a7.84,7.84,0,0,0-.43-.93.9.9,0,0,0-.15-.19l0-.05,0,0a1.34,1.34,0,0,0-.32-.39,1.46,1.46,0,0,0-.41-.34l0,0-.11-.09a1.15,1.15,0,0,0-.79-.14,1.29,1.29,0,0,0-.48,0,3.54,3.54,0,0,0-1.73.62,2.91,2.91,0,0,0-.67.2l-2.65.3,1.59.09a.33.33,0,0,0,0,.13,3.45,3.45,0,0,1-.62.38l-2.37.08L57,19h0v0a.21.21,0,0,0,0,.06h0l-.39,0-.43,0h-.53c-.26,0,.5.27.27.34a3.37,3.37,0,0,1-.55,0,2.16,2.16,0,0,0-.41.13l-.36.17h0v0h0l.08,0a2.31,2.31,0,0,1,.64-.22,2.71,2.71,0,0,1,.76.38,3,3,0,0,0-.57-.09,1.58,1.58,0,0,1,.48.15l.21,0v0l-.18.12h0C55.91,20.26,55.85,20.33,55.85,20.39Zm-.33.18h0Zm-1.64.79h0Zm1.8,3h0Zm.25-.07h0Zm.29.91-.06,0h.07Zm1.45.33h0l.15-.08Zm-1.44-5.32,0,0h0Zm-.3.16h0l.06,0Z"/><path class="cls-6" d="M54.66,19.78l-.62,0h.61s0,0,0,0A0,0,0,0,1,54.66,19.78Z"/><path class="cls-7" d="M79.91,49.88a.77.77,0,0,0,.36,0c.14-.06.2,0,.3,0s.1.08.22,0l.27,0,3.08.27c.48,0,.07,0-.22,0l-2-.19a3,3,0,0,1-1.19-.29.23.23,0,0,1-.23-.24c0-.31.55-.26.6-.3l.45.05.28.06.26.06.31.06,2,.23h.09s.16,0,.12,0l-2.24-.25s-.25,0-.29,0a1.51,1.51,0,0,1-.54-.27c-.12-.14-.11-.26-.1-.26-.11-.36,2.45,0,2.66.1l.22,0s.24,0,.23,0,0,.06-.11,0L84,48.78a1.93,1.93,0,0,1-.54-.07c-.21,0-.6,0-1-.08-.14-.06-1.51-.1-2-.22s-.2-.47.09-.57a14.53,14.53,0,0,1,1.59.1s1.6.2,1.62.19.21,0,.2,0-.24,0-.29,0-2-.21-2.1-.23-.26-.11-.31-.32,0-.22.25-.26a1.08,1.08,0,0,1,.71,0l.63.07a4.74,4.74,0,0,0,.59.13,6.68,6.68,0,0,0-1-.21h0l-1.91-.14a7.31,7.31,0,0,0-.87-.13c-.3,0-.61-.17-.91-.18l-.4-.23a.55.55,0,0,1-.06-.18,2.21,2.21,0,0,1-.05-.51,12.93,12.93,0,0,0,0-1.39c.14-.91.16-1.78.29-2.71.18-1.33,0-2.63.1-4l0,0a7,7,0,0,0,.27-2.58,9,9,0,0,0-.29-1.79A13,13,0,0,0,77.91,32a5,5,0,0,0-2-1.58,9.52,9.52,0,0,0-1.17-.55c-1.28-1-2.18-2-3.86-2.36l-.23-.1a2.42,2.42,0,0,0-1.22-.05,1.79,1.79,0,0,0-.69,0H68q-.5,0-1,0a1.51,1.51,0,0,0-.37,0h0l-.15,0h-.13l-.07,0h-.08a1.07,1.07,0,0,0-.38.1l0,0a1.87,1.87,0,0,1-.22.07l0,0-.2,0c-.13.07-.26.09-.38.16a4,4,0,0,0-.64.37,3.72,3.72,0,0,0-1.13.75h-.08A1.15,1.15,0,0,0,63,29a1.37,1.37,0,0,1-.23.19l0,0c-.15.1-.32.14-.42.32,0,0,0,0,0,0a.42.42,0,0,0-.08.12.13.13,0,0,1,0-.06.58.58,0,0,0-.25.37l0-.11-.17.2a.43.43,0,0,0-.11.12v.07a1.22,1.22,0,0,1-.07.17,3,3,0,0,0-.21.4.15.15,0,0,0,0-.06c-.18.31-.39.57-.6.87l-.06.06a25.31,25.31,0,0,1-1.82,2.08l-.57.63h0a.48.48,0,0,0-.22.19s0,0,0,.05l-.09.1-.06.05s0,0,0,.06c-.69.74-1.38,1.47-2.07,2.27l-.14.11a3,3,0,0,0-.8.68c-.42.4-.71.88-1.12,1.28l.06-.07a.77.77,0,0,0-.26.28,1.42,1.42,0,0,0-.43.69c0,.11-.07.23-.11.34l0,0a4,4,0,0,1-.4.67A12.72,12.72,0,0,0,52,42c-.09.11-.1.25-.18.37a7.16,7.16,0,0,0-1,2.38l.19.63h0a.31.31,0,0,0,.09.11l.12.08h0a5.12,5.12,0,0,0,1,.23,5.56,5.56,0,0,0,.91.14l.41,0c.15,0,.3,0,.45,0a6.6,6.6,0,0,0,.82-.17,6.71,6.71,0,0,0,1.25-.17c.56-.09,1.09-.2,1.63-.3.13,0,.26-.05.39-.05l.17,0h0a4.48,4.48,0,0,0,.89-.23l.26,0a2.2,2.2,0,0,0,.68-.24,11.46,11.46,0,0,0,2-.83,5.54,5.54,0,0,0,.89-.49L67.7,42.1a.58.58,0,0,0,.23-.15c.11-.11.16,0,.23-.09s.15,0,.24,0l.17-.07,3.75-1.18c.4-.17,0,0-.27,0l-1.85.57a2.76,2.76,0,0,1-1.19.24s-.15,0-.24-.22.32-.36.34-.42l.43-.15.28-.07.26,0,.31-.07,2-.51.25-.07-.09,0-2.21.59s-.25.06-.29.07l-.43,0s-.17.07-.15-.26,2-.84,2.24-.87c0,0,.33-.1.33-.11s.15-.06.14-.07,0,0-.21.07l-.6.17s0,0-.33.09-1.07.37-1.43.47c-.14,0-.87.16-1.34.25s-.36-.17-.13-.39a13.94,13.94,0,0,1,1.48-.58S70.73,39,70.74,39s.19-.09.17-.1a3.85,3.85,0,0,1-.37.13s-1.47.43-1.56.44a1.08,1.08,0,0,1-.19,0s-.26,0-.06-.41c0,0,.1-.14.65-.29l.61-.21c.07,0,0,0-.06,0a1.21,1.21,0,0,0-.42.1h0l-1.79.68c-.31.07-4.32,1.11-4.38,1.14-.27.14-.63.1-.9.22-.11,0-.58.14-.68.19a7.33,7.33,0,0,1-1.23.3c-.21.06-.79.26-1,.31s-.51.09-.61.1-.36-.13-.52-.2a.91.91,0,0,1-.3-.21s-.09-.08,0-.4a2.68,2.68,0,0,1,.18-.5.83.83,0,0,1,.38-.54c.15-.29.58-.56.9-.92a12.33,12.33,0,0,0,1.29-1,2.69,2.69,0,0,0,.32-.27v0a.32.32,0,0,0,.13-.22l.18-.16a4,4,0,0,0,.88-.7l0,0,0,0a8.77,8.77,0,0,0,1.21-1.07c.1-.09.47-.34.75-.53a.34.34,0,0,0,.26-.14l0,0c.5-.38,1-.72,1.48-1.15a6.9,6.9,0,0,1,1.39-1.21,4.48,4.48,0,0,1,1.37-.44l-.09,0a.59.59,0,0,0,.23,0l.43-.08h.23a.33.33,0,0,0,.19-.06c.18,0,.37-.05.56-.06a1.4,1.4,0,0,1,.56.11.26.26,0,0,0,.14.09l0,0c.26.11.53.2.79.33.41.36.93.82,1.43,1.29a.33.33,0,0,0,.24.23h0c.44.41.84.81,1.1,1.09a4,4,0,0,0,.08.78.34.34,0,0,0,0,.17c0,.36,0,.73,0,1.1a18.29,18.29,0,0,1,0,2s-.05,0-.05.07c0,.88,0,1.75,0,2.63.12.15,0,.31,0,.49.1.68.24,1.31.3,2,0,.27,0,.52.08.79s0,.47,0,.71a2.51,2.51,0,0,0,0,.27c0,.37,0,.73,0,1.1a1.07,1.07,0,0,0,.09.47c.13.88.11,1.73.79,2.29a7,7,0,0,0,3.39.25Zm-16.6-21h0l0,0Z"/><path class="cls-8" d="M76.63,59.88c0-.41,0-.81-.07-1.23,0-.26,0-.53,0-.8l-.12-.29v-.05s0-.09,0-.13a5,5,0,0,0-.17-1.11c-.13-.3-.3-.57-.43-.88a.45.45,0,0,0,0-.16,4.27,4.27,0,0,0-.35-.46,27.19,27.19,0,0,0-2.57-3.62c-.6-.77-1.31-1.35-1.91-2.06,0,0-.06,0-.09-.06a1.27,1.27,0,0,0,0-.28,15.94,15.94,0,0,0-2-1.73,5.73,5.73,0,0,0-1.81-1.53c-.08-.08-.17-.14-.25-.21a1.38,1.38,0,0,0-.38-.3,8.12,8.12,0,0,0-.75-.56l-.18-.11c-.45-.08-.57.36-.75.7h-.1l-.34.45a3.69,3.69,0,0,0-.34.25c-.16.13-.14.36-.3.51h0l-.25.13a.4.4,0,0,0-.24.17.56.56,0,0,0-.13.24.89.89,0,0,0-.25.48v0l-.64.85-.25.22.17-.11c-.17.23-.34.44-.52.69a1.09,1.09,0,0,0,.09-.21,3.62,3.62,0,0,0-.22.32c0,.07-.13.1-.17.16a5.65,5.65,0,0,1-.57.82c-.06,0-.1.1-.15.15a1.31,1.31,0,0,1-.27.19,5.46,5.46,0,0,0-.42.72.45.45,0,0,0-.19.11c-.15.24-.33.45-.5.68a1.66,1.66,0,0,1-.6.36,1.08,1.08,0,0,0-.38.68,1,1,0,0,0-.12.23l-.34.5c-.3.33-.62.67-.94,1a10.92,10.92,0,0,0-1.57,1.18,1.33,1.33,0,0,0-.29.47l0,0,.1-.11,0,.09a.37.37,0,0,0-.12.2v0s0,0,0,0,0,0,0,0a2.13,2.13,0,0,1,.07-.27,2.14,2.14,0,0,0-.58.77,17.47,17.47,0,0,0-1.4,1.32c-.4.48-.73,1-1.08,1.47l-.07,0-.1.08-.11.09c-.07.05-.13.13-.2.18s-.25-.07-.28,0,.15,0,.27,0a4.73,4.73,0,0,0-.92.81,7.76,7.76,0,0,0-1.29,1.55l0,0,0,0-.08.08a.43.43,0,0,0-.11.45l0,0c-.32.28-.63.57-1,.83l-.11.1a.45.45,0,0,0-.12.2.44.44,0,0,0,0,.28s0,0,0,0h0l-.13.21h0a3.5,3.5,0,0,1-.37.49c-.2.27-.43.53-.64.81-.37.37-.78.71-1.17,1.06a2.51,2.51,0,0,0-.33.4l0,0a1.23,1.23,0,0,0-.4.35l0,0a.17.17,0,0,0,0,.2.14.14,0,0,0,.14,0s0,0,0,0h.15s0,0,0,0v.1l0,0c-.26.4-.5.81-.75,1.21l-.2.09a.1.1,0,0,0-.05.06l-.1.19a.43.43,0,0,0,0,0v.1l0,.06a.15.15,0,0,0,.1.06l0,0s0,0,0,0l0,.07c-.14.21-.29.41-.45.61a1.4,1.4,0,0,0-.3.38l-.12.21h0s0,0,0,0,0,.08,0,.11,0,0,0,0,0,0,0,0,0,0,.08,0,0,0,.07,0l0,0h0v0l.08-.11h0a4.43,4.43,0,0,1,1.24-1.08h0a.11.11,0,0,0,.06,0h0l0,0,.11.06,0,0h0a.09.09,0,0,1,.06,0l.11,0,.12-.07a3.88,3.88,0,0,0,.28-.39c.13-.12.24-.23.36-.32l.11,0s0,0,0,0a.54.54,0,0,0,.07.09.27.27,0,0,0,.22,0,.06.06,0,0,0,0,0l0,0h0a.16.16,0,0,0,.09,0l.11-.13c0-.09,0-.17.07-.25s.3-.33.49-.51.49-.61.75-.9c.1-.08.18-.13.24-.19l.07,0c-.16.42-.66.66-.86,1.09l0,.19h0a.16.16,0,0,0,0,.23l.06,0s0,0,0,0c-.19.18-.33.4-.52.6s-.12.1-.18.15-.16.25-.24.38h0a.07.07,0,0,0,0,.06l-.16.15-.09.12,0,0,0,.06,0,.09a.12.12,0,0,0,0,.15.13.13,0,0,0,.18,0l0-.08.14-.15c.07,0,.12-.11.19-.17l0,0h0l0,0,.19-.18c.09-.1.19-.18.28-.27a7.06,7.06,0,0,0,1-1h0l.06-.08a.91.91,0,0,1,.16-.11l.08,0a.51.51,0,0,0,.16-.09l0,0a.29.29,0,0,0,.14-.08l.12-.12a1.08,1.08,0,0,0,.62-.54l.1-.18c1.07-1.2,2.11-2.3,3.16-3.52.48-.56.9-1.11,1.4-1.63s1.1-.95,1.57-1.52.9-1.1,1.39-1.64c.29-.32.61-.59.91-.9.58-.58.93-1.28,1.47-1.89,1-1.18,2.08-2.18,3.15-3.32A24.85,24.85,0,0,0,65.84,50c0-.07.12-.13.17-.2v0a.48.48,0,0,0,.18-.26v0c.29.21.49.53.81.74a13.4,13.4,0,0,1,1.8,1.42,9.62,9.62,0,0,1,.82,1.13,4.41,4.41,0,0,0,.83.84,1.67,1.67,0,0,0,.12.16,6.37,6.37,0,0,1,.74.82,11,11,0,0,0,.87,1.16c.15.18.29.34.42.53a8.67,8.67,0,0,1,.86,2.65.43.43,0,0,0,.1.22c0,.18,0,.36,0,.55s0,.11,0,.18,0,0,0,0a5.28,5.28,0,0,1-.89,1.73,9.24,9.24,0,0,0-1.29,1.13c-.82.25-1.7.24-2.53.52a3.09,3.09,0,0,1-.67.15,14.48,14.48,0,0,1-2.06-.19l-.24-.1c-.23-.15,0,0-.24-.16l-.22-.09a2.84,2.84,0,0,0-.4-.2,1.06,1.06,0,0,1-.28-.16l-.18-.19h0a10.87,10.87,0,0,0-2.21-1.44L62,60.78a3.14,3.14,0,0,0-.31-.18l-.25-.11-.81-.39L60.34,60a.87.87,0,0,0-.18-.11s-.09,0-.2-.14-.1-.1-.11-.09l-.61-.27L59,59.2c-.1,0,0-.11-.12,0s0,0,.14.11l.34.16c.06,0,.44.3.49.34s1.78.85,1.77.89.79.37.26.8C61.74,61.55,59,60,59.1,60.2l.29.22.41.14s.84.41.86.43.69.09.92.61c.09.2-.27.44-.27.44l-1.62-.87-.27-.05.22.11c-.09,0,.32.05.32.14l.26.16s.3.15.32.18a4.88,4.88,0,0,1,.75.42c.76.73.07.55,0,.55l-1.87-.84-.63-.27-.09-.07-.09-.06a1.07,1.07,0,0,0-.27-.12c-.14,0,.44.23.45.25l.5.27a1.17,1.17,0,0,0,.35.18l.21.11.29.1a1.32,1.32,0,0,0,.29.15l.27.17a1.79,1.79,0,0,1,.39.13.85.85,0,0,1,.61.72c.05.63-.66.13-.66.13l-2.12-1.1.6.31s0,.06.08.08h0a2.56,2.56,0,0,0,.76.37s.29.19.29.19c.37,0,.29.11.31.13l.18.18c.14.23.07.11.32.32,0,0,.29.21.31.2a2.8,2.8,0,0,0,1.31.54c.13.08.28.12.42.19s.15.09.22.15l-.06,0a.45.45,0,0,0,.6.2h0c.08,0,.14.08.22.1s0,0,0,0a22.89,22.89,0,0,0,4.28,1.34l.42-.27a1.53,1.53,0,0,0,1.13-.06l.16,0v0h0l0,0,0,0h.11l.28,0a2.29,2.29,0,0,1,.47-.29l.33-.15a2.69,2.69,0,0,0,1.09-.5,4.73,4.73,0,0,0,.55-.28.08.08,0,0,1,0,0,1.86,1.86,0,0,0,.43-.41.65.65,0,0,1,.2,0,4.08,4.08,0,0,0,.54-.51,2.48,2.48,0,0,0,.33-.5s.29-.3.65-.76l.35-.36a.53.53,0,0,0,.16-.2,2.4,2.4,0,0,0,.37-.83l0,0,0-.07c0-.13,0-.25.05-.37s0,0,0,0v0c0-.1,0-.21,0-.31h0a.57.57,0,0,0,0-.13,3.66,3.66,0,0,0,0-.74ZM58,53.32l0,0a.16.16,0,0,0,0-.07S58,53.31,58,53.32Zm3.33-4.07s0,0,0,0h0Zm1.61-2.16a.89.89,0,0,1,.08-.17s0,0,0,.06A.44.44,0,0,1,62.93,47.09Z"/><path class="cls-9" d="M73.71,20.8l0,0,0,0h0a.57.57,0,0,0-.13.14h-.19l-3,.18,2.11.09a.07.07,0,0,0,.07.07h0c.15,0,.87,0,1,0l-.64.07,0,0c.55.26.33.09-.15.31a4,4,0,0,0-1-.08h0l-.1.07a0,0,0,0,1,0,0s0,0,0,0c-.15,0-.61.13-.76.12l.61.08.41,0,.06,0h0a5.46,5.46,0,0,0,1,0c-.19.06.32,0,.69.05.14,0-.41.06-.26.08h0l.41.06-.12.12-.08.06-.25.18-.2,0a.48.48,0,0,1-.31,0l-.38.07h-.14s0,0,0,0h-.15l0,0a0,0,0,0,0,0,0h-.14s0,0,0,.05l.07,0h.21a1.52,1.52,0,0,0,.67,0h.55l-.14.15h.32l.24.05,0,0h0l-.09,0-.13,0-.24.1-.63,0-.11,0h0l0,0a0,0,0,0,0,0,0,0,0,0,0,0,0,0h.13a2,2,0,0,0,.59,0h.15a1.25,1.25,0,0,1,.23.07l0,0a1.71,1.71,0,0,0,.23.13H74l-.06,0-.15,0a.87.87,0,0,0-.48,0l-.73.09h0l-.07.05h-.06a0,0,0,0,0,0,0l-.36.08.36,0h0a.2.2,0,0,0,.11,0h.18a2.08,2.08,0,0,0,.43,0h0v0a0,0,0,0,0,0,0h.1l.09,0h0l.33,0h0a1.42,1.42,0,0,1-.42.08l-.33.09h0l-.07,0s0,0,0,0a1.07,1.07,0,0,0-.22.1,0,0,0,0,0,0,0,.06.06,0,0,0,0,0h.24l.13,0a5.24,5.24,0,0,0,1,0,.16.16,0,0,0,.11-.1h0s0,.1,0,.15l-.15.06-.06.05a.18.18,0,0,0,0,.07.15.15,0,0,0,0,.14l-.07,0s0,0,0,0l-.42.14a3.75,3.75,0,0,0-.82,0h-.06l0,0h0s-.06,0-.07.08a.08.08,0,0,0,.08.07h0c.4,0,.83,0,1.23,0h.4c.13.09.27.19.38.25a1.57,1.57,0,0,1,.61,0s0,0,0,0h0a.18.18,0,0,0,0,.07s0,0,0,.05l0,0h0s0,0,0,0a13.57,13.57,0,0,1-1.43.05h-.11a.08.08,0,0,0-.08.08.07.07,0,0,0,.08.07h.08s.08,0,.11,0a1.11,1.11,0,0,0,.83.17h0c.37,0,.75,0,1.13,0h0a.89.89,0,0,1-.35.12,3.08,3.08,0,0,0-.26.28l-.29.11a.08.08,0,0,0,0,0,3,3,0,0,1-.42,0l-.08,0s-.07.06,0,.1a.07.07,0,0,0,.1.05h.05c.22,0,.44,0,.67,0l.16.05A12.92,12.92,0,0,1,77,26.34a6.5,6.5,0,0,0,1.6-.69,5.18,5.18,0,0,1,.73-1,.35.35,0,0,0,.19-.15,6.53,6.53,0,0,0,1.55-3,.86.86,0,0,0,.13-.23,1.26,1.26,0,0,0,0-.79h0s0,0,0,0c-.11-.31-.35-.53-.47-.82s-.26-.63-.43-.94l-.15-.18,0-.06,0,0a1.26,1.26,0,0,0-.32-.4,1.33,1.33,0,0,0-.41-.34l0,0-.11-.09a1.14,1.14,0,0,0-.79-.14,1.11,1.11,0,0,0-.48,0,3.47,3.47,0,0,0-1.73.61,4.18,4.18,0,0,0-.67.2l-2.64.3,1.58.09a.74.74,0,0,0,0,.14c-.24.13-.48.36-.62.37l-2.36.08,3.33.16h.05v.05a.13.13,0,0,0,0,0h-.39l-.43,0h-.53c-.25,0,.51.26.27.33a5.07,5.07,0,0,1-.55,0,1.85,1.85,0,0,0-.4.12l-.37.17h0v0h0s0,0,0,0h.23a1,1,0,0,1,.25,0h-.43l.08,0a2.43,2.43,0,0,1,.64-.22,2.71,2.71,0,0,1,.76.38,2.83,2.83,0,0,0-.57-.09,1.5,1.5,0,0,1,.48.15l.22,0v0l-.18.13h0C73.76,20.66,73.7,20.73,73.71,20.8Zm-.34.17h0Zm-1.64.79h0Zm1.81,3h0l0,0Zm.24-.07,0,0a0,0,0,0,0,0,0Zm.29.9,0,0h.06S74.08,25.57,74.07,25.58Zm1.45.33h0l.14-.08Zm-1.43-5.32,0,0h0Zm-.3.16h0l0,0Z"/><path class="cls-10" d="M72.51,20.18l-.62.05h.61S72.5,20.19,72.51,20.18Z"/><path class="cls-11" d="M102.63,52.13a1,1,0,0,0,.36,0c.15-.06.2,0,.31,0s.09.07.21,0l.27,0,3.09.27c.47,0,.06,0-.23,0l-2-.2a3,3,0,0,1-1.18-.28.23.23,0,0,1-.23-.25c0-.3.54-.25.59-.29l.45,0,.28.06.26.07.31.06,2,.22.1,0s.15,0,.11,0l-2.24-.25s-.25,0-.29,0a1.34,1.34,0,0,1-.53-.28.36.36,0,0,1-.11-.25c-.11-.36,2.45,0,2.66.1a1.57,1.57,0,0,0,.23,0l.22,0c0-.09,0,0-.11,0l-.48-.07a2,2,0,0,1-.55-.07c-.21,0-.6,0-1-.09-.14,0-1.51-.09-2-.21s-.2-.47.09-.58a14.35,14.35,0,0,1,1.59.11s1.61.2,1.62.19.21,0,.2,0a1.47,1.47,0,0,1-.28,0s-2-.21-2.1-.24-.27-.1-.32-.31,0-.23.25-.27a1,1,0,0,1,.71,0l.64.07c.06,0,.62.16.59.13a6.78,6.78,0,0,0-1.06-.21h0l-1.91-.15a6.64,6.64,0,0,0-.86-.12c-.31,0-.62-.18-.92-.19a4.35,4.35,0,0,1-.4-.23.49.49,0,0,1-.06-.17,1.76,1.76,0,0,1,0-.51c0-.47,0-.93,0-1.39.14-.91.16-1.79.29-2.71.19-1.34,0-2.64.1-4l0,0a7,7,0,0,0,.27-2.58,8.8,8.8,0,0,0-.29-1.79,10.78,10.78,0,0,0-.74-1.43,5,5,0,0,0-2-1.59,11.41,11.41,0,0,0-1.18-.55c-1.27-1-2.18-2-3.86-2.35l-.23-.11a2.54,2.54,0,0,0-1.22-.05,2,2,0,0,0-.68,0h-.74l-1,0a1.5,1.5,0,0,0-.37,0h0a.4.4,0,0,0-.15,0h0l0,0h0l-.07,0h0l-.06,0a1.21,1.21,0,0,0-.37.11l0,0a1.42,1.42,0,0,1-.22.07l0,0-.2,0c-.12.07-.26.09-.38.16a5.14,5.14,0,0,0-.64.38,3.88,3.88,0,0,0-1.13.74h-.08a.64.64,0,0,0-.3.11c-.09.05-.14.14-.24.19l0,0c-.14.1-.31.14-.41.32,0,0,0,0,0,0a.76.76,0,0,0-.08.11l0-.06a.68.68,0,0,0-.25.37l0-.1c-.06.06-.11.13-.17.2a.35.35,0,0,0-.1.11.37.37,0,0,1,0,.08.44.44,0,0,1-.06.16,4,4,0,0,0-.22.4l0,0c-.19.3-.39.57-.61.87a.17.17,0,0,0-.06.06,23.56,23.56,0,0,1-1.82,2.08l-.57.62h0a.34.34,0,0,0-.21.19s0,0,0,.05l-.09.1-.06,0,0,.06c-.69.75-1.38,1.47-2.06,2.27l-.14.11a2.93,2.93,0,0,0-.8.69c-.42.4-.71.88-1.13,1.28l.06-.07a.87.87,0,0,0-.26.28,1.38,1.38,0,0,0-.42.68c-.05.11-.08.23-.12.34l0,0a4.43,4.43,0,0,1-.41.67,11.2,11.2,0,0,0-.91,1c-.08.11-.1.25-.18.37a7.14,7.14,0,0,0-1,2.38l.18.63h0a.31.31,0,0,0,.09.11l.12.08h0A5.12,5.12,0,0,0,75,48a9.27,9.27,0,0,0,.92.14l.4,0c.16,0,.3,0,.45,0a7.17,7.17,0,0,0,.83-.18,5.85,5.85,0,0,0,1.24-.16c.56-.09,1.09-.2,1.63-.3.13,0,.26-.05.39-.05l.17,0h0a4.59,4.59,0,0,0,.88-.24l.27,0a2.06,2.06,0,0,0,.68-.25,11.66,11.66,0,0,0,2-.82,5.54,5.54,0,0,0,.89-.49L90,44.28a.5.5,0,0,0,.23-.14c.1-.12.15,0,.23-.09s.15,0,.24,0l.17-.06,3.75-1.19c.4-.16,0,0-.27.06l-1.85.57a3,3,0,0,1-1.19.24s-.16,0-.24-.23.31-.35.34-.41l.43-.15.28-.07.26,0,.31-.08,2-.5.26-.07a.23.23,0,0,1-.09,0l-2.21.59s-.25.06-.29.07l-.43,0s-.18.07-.16-.27,2-.83,2.25-.87l.32-.1s.16-.06.14-.07,0,0-.2.06l-.6.18a1,1,0,0,1-.33.09c-.21,0-1.07.37-1.43.46l-1.34.26c-.48.1-.36-.17-.14-.39a14.93,14.93,0,0,1,1.49-.58S93,41.16,93,41.14s.19-.09.17-.1-.32.12-.37.12-1.47.44-1.57.45a1,1,0,0,1-.18,0s-.26,0-.06-.42c0,0,.1-.13.64-.28l.62-.22c.07,0,0,0-.06,0a1,1,0,0,0-.42.1h0L90,41.44c-.32.07-3.88,1.16-3.94,1.2-.26.14-.63.1-.9.22-.1,0-.58.14-.68.18a7.39,7.39,0,0,1-1.23.31c-.21,0-.78.26-1,.31s-.51.09-.61.1-.36-.13-.51-.2a1,1,0,0,1-.31-.21s-.08-.08,0-.41a1.76,1.76,0,0,1,.19-.49.84.84,0,0,1,.37-.55c.15-.28.58-.55.9-.91a16,16,0,0,0,1.29-1,2.69,2.69,0,0,0,.32-.27h0a.3.3,0,0,0,.13-.21l.18-.17a3.53,3.53,0,0,0,.88-.7l0,0s0,0,0,0a9.48,9.48,0,0,0,1.21-1.07c.11-.09.47-.34.75-.54a.31.31,0,0,0,.26-.14l0,0a17.94,17.94,0,0,0,1.48-1.16,7.6,7.6,0,0,1,1.39-1.21,4.73,4.73,0,0,1,1.38-.44l-.1,0a.59.59,0,0,0,.23,0l.43-.08a1.77,1.77,0,0,0,.23,0,.28.28,0,0,0,.19-.07l.56-.06a1.4,1.4,0,0,1,.56.11.33.33,0,0,0,.14.1l0,0c.26.11.53.2.79.32l1.43,1.29a.31.31,0,0,0,.24.23h0c.44.42.84.81,1.1,1.1a4.13,4.13,0,0,0,.08.78.33.33,0,0,0,0,.16c0,.37,0,.74,0,1.1a18.32,18.32,0,0,1,0,2s-.05.05-.05.08c0,.87,0,1.75,0,2.62.12.16,0,.32,0,.5.1.67.24,1.31.3,2,0,.27,0,.52.08.79s0,.47,0,.71A2.51,2.51,0,0,0,98,48c0,.37,0,.73,0,1.1a1.45,1.45,0,0,0,.09.47c.13.88.1,1.73.79,2.29a7.3,7.3,0,0,0,3.39.25ZM86,31.15l0,0s0,0,0,0Z"/><path class="cls-12" d="M99.35,62.13c0-.41,0-.82-.07-1.22s0-.54,0-.82l-.12-.28v-.05s0-.09,0-.13A4.44,4.44,0,0,0,99,58.52c-.13-.3-.3-.58-.42-.88,0,0,0-.11,0-.16a2.66,2.66,0,0,0-.35-.46,26.3,26.3,0,0,0-2.57-3.62c-.59-.77-1.3-1.35-1.91-2.06,0,0-.06,0-.09-.07a1.12,1.12,0,0,0,0-.27,16.15,16.15,0,0,0-2-1.73,5.78,5.78,0,0,0-1.81-1.54c-.08-.07-.17-.13-.25-.21a1.1,1.1,0,0,0-.38-.29c-.25-.19-.47-.4-.74-.57l-.18-.11c-.46-.08-.58.36-.76.7h-.1l-.33.46c-.12.08-.24.15-.35.24s-.14.37-.3.52h0l-.26.13a.38.38,0,0,0-.23.16.48.48,0,0,0-.14.25,1,1,0,0,0-.25.47s0,0,0,0l-.64.84-.25.23.17-.11-.52.69a2.2,2.2,0,0,0,.09-.21,3.62,3.62,0,0,0-.22.32c0,.07-.13.09-.17.16a4.47,4.47,0,0,1-.58.82l-.14.14a1.35,1.35,0,0,1-.27.2,6.66,6.66,0,0,0-.42.71c-.06,0-.14.05-.18.11-.16.24-.34.46-.51.68a1.6,1.6,0,0,1-.59.37,1,1,0,0,0-.38.68.76.76,0,0,0-.13.23,5.25,5.25,0,0,0-.33.49c-.31.34-.62.68-1,1a10.84,10.84,0,0,0-1.57,1.17,1.58,1.58,0,0,0-.29.48l0,0,.1-.12a.94.94,0,0,1,0,.09.55.55,0,0,0-.12.21v.09l0,0c0-.09,0-.19.07-.27a2.19,2.19,0,0,0-.58.77,17.37,17.37,0,0,0-1.4,1.32c-.4.48-.73,1-1.08,1.47,0,0,0,0-.07,0l-.09.08-.12.09c-.07.05-.12.12-.2.17s-.25-.06-.28,0a.54.54,0,0,1,.28,0,4,4,0,0,0-.92.81,6.86,6.86,0,0,0-1.29,1.54l0,0,0,0-.09.08a.46.46,0,0,0-.11.45l0,0c-.32.28-.63.56-1,.83l-.11.1a.37.37,0,0,0-.12.2.39.39,0,0,0,0,.28s0,0,0,0v0h0l-.13.21h0a4.37,4.37,0,0,1-.37.48c-.21.28-.44.54-.64.82-.38.37-.78.71-1.18,1.06a2.51,2.51,0,0,0-.33.4l0,0a1.22,1.22,0,0,0-.4.35l0,0a.17.17,0,0,0,0,.2.18.18,0,0,0,.14,0l0,0h.15v.12l0,0c-.25.4-.49.82-.75,1.22l-.19.09a.1.1,0,0,0-.06,0l-.09.2a.08.08,0,0,0,0,0v.09l0,.07a.09.09,0,0,0,.09,0s0,0,0,.06,0,0,0,0l0,.07c-.15.2-.3.41-.46.61a1.63,1.63,0,0,0-.3.38l-.12.21h0s0,0,0,0,0,.08,0,.11a0,0,0,0,1,0,0,0,0,0,0,0,0,0s0,0,.07,0,.06,0,.08,0v0h0v0l.08-.12h0a4.78,4.78,0,0,1,1.24-1.08h0l.06,0h0l0,0a.3.3,0,0,1,.11.06l0,0h0l.06,0a.18.18,0,0,0,.1,0l.12-.06a4.54,4.54,0,0,0,.29-.39,2.76,2.76,0,0,1,.36-.33l.1-.05a.08.08,0,0,0,0,0,.16.16,0,0,0,.29,0v0l0,0h0a.18.18,0,0,0,.09,0l.11-.12c0-.09,0-.18.07-.26s.3-.33.49-.5.49-.61.75-.9l.24-.19.08,0c-.17.42-.67.65-.87,1.09l0,.19h0a.17.17,0,0,0,0,.23l.06,0h0c-.19.19-.33.41-.52.61l-.18.14c-.13.1-.16.26-.24.39h0s0,0,0,.06l-.16.15-.09.12,0,0a.1.1,0,0,0-.05.06l0,.08a.14.14,0,0,0,.05.16.14.14,0,0,0,.18,0l0-.08.14-.14c.07,0,.13-.12.19-.17l0,0h0l0,0,.19-.19c.09-.09.19-.17.28-.27a6.62,6.62,0,0,0,1-1s0,0,0,0l.05-.08.16-.11s.06,0,.08,0a.44.44,0,0,0,.16-.1l0,0a.26.26,0,0,0,.13-.08l.12-.13a1.09,1.09,0,0,0,.63-.54l.09-.18c1.07-1.19,2.11-2.29,3.16-3.52.48-.55.9-1.1,1.4-1.63s1.11-.94,1.57-1.52.9-1.09,1.39-1.63c.3-.33.61-.59.91-.9.58-.58.93-1.28,1.47-1.89,1-1.19,2.08-2.18,3.15-3.32a25.35,25.35,0,0,0,3.16-3.74c0-.07.12-.13.17-.21v0a.44.44,0,0,0,.17-.25v-.05c.29.22.49.53.82.75a13.24,13.24,0,0,1,1.79,1.41A10.53,10.53,0,0,1,92.34,55a4.23,4.23,0,0,0,.84.85.91.91,0,0,0,.11.16,5.69,5.69,0,0,1,.74.81A10.14,10.14,0,0,0,94.9,58c.15.18.29.34.42.53a8.4,8.4,0,0,1,.86,2.65.5.5,0,0,0,.1.21c0,.19,0,.37,0,.55a1.16,1.16,0,0,1,0,.18v0a5,5,0,0,1-.89,1.74A8.63,8.63,0,0,0,94.08,65c-.83.25-1.71.24-2.54.52a3.11,3.11,0,0,1-.66.14,12.94,12.94,0,0,1-2.06-.19l-.24-.09c-.24-.15,0,0-.24-.16l-.23-.09a2,2,0,0,0-.4-.2,1.06,1.06,0,0,1-.28-.16l-.18-.19h0a10.75,10.75,0,0,0-2.2-1.43L84.69,63a2,2,0,0,0-.32-.18l-.25-.12-.81-.38-.25-.13a.67.67,0,0,0-.18-.11s-.09,0-.2-.14-.1-.1-.11-.09L82,61.61l-.27-.16c-.1,0,0-.11-.12-.05s.05,0,.14.12l.34.16a5.36,5.36,0,0,1,.49.34s1.78.85,1.77.89.79.37.26.79c-.11.09-2.84-1.41-2.75-1.26l.3.23.4.13.86.43c.11.11.7.1.92.61.09.2-.27.45-.27.45l-1.62-.87-.27-.05.22.11c-.08,0,.33.05.33.14l.25.15s.31.16.32.18a5.38,5.38,0,0,1,.75.43c.77.72.07.54,0,.54l-1.87-.83-.63-.27-.09-.07-.09-.07a1.53,1.53,0,0,0-.27-.11c-.14,0,.44.23.45.25l.5.27a1.72,1.72,0,0,0,.36.18l.2.11.29.09a1,1,0,0,0,.29.16l.27.16a1.63,1.63,0,0,1,.39.13.88.88,0,0,1,.61.73c0,.63-.66.13-.66.13l-2.12-1.11s.6.32.6.32a.2.2,0,0,0,.08.08h0a2.56,2.56,0,0,0,.76.37,1.53,1.53,0,0,0,.29.18c.37,0,.29.12.32.14l.18.18c.13.22.06.11.31.31,0,0,.29.21.32.21.6.32.61.45,1.3.53.13.09.28.12.42.2a1.64,1.64,0,0,1,.22.14l-.06,0a.44.44,0,0,0,.6.2h0c.08,0,.14.07.22.09h0A21.5,21.5,0,0,0,91.53,69l.42-.27a1.43,1.43,0,0,0,1.13-.06l.17,0v0h0s0,0,0,0a0,0,0,0,1,0,0h.11l.28,0a2.87,2.87,0,0,1,.48-.28l.32-.15a2.59,2.59,0,0,0,1.09-.51,4.18,4.18,0,0,0,.56-.28s0,0,0,0a1.71,1.71,0,0,0,.43-.42,1.18,1.18,0,0,1,.21,0,4.41,4.41,0,0,0,.53-.51,3.48,3.48,0,0,0,.33-.5s.29-.31.65-.76c.12-.13.24-.24.36-.36a.75.75,0,0,0,.15-.2,2.49,2.49,0,0,0,.37-.83s0,0,0,0l0-.07c0-.12,0-.25.05-.37v-.06c0-.1,0-.21,0-.32h0a.53.53,0,0,0,0-.13,3.55,3.55,0,0,0,0-.73ZM80.72,55.57l0,0,0-.07ZM84,51.5l0,0h0A.1.1,0,0,0,84,51.5Zm1.61-2.16.08-.17a.13.13,0,0,0,0,.06Z"/><path class="cls-13" d="M96.43,23l0,0,0,0h0a.93.93,0,0,0-.13.15h-.18a0,0,0,0,0,0,0l-3,.17,2.11.1a.07.07,0,0,0,.07.07h0c.16,0,.88,0,1,0l-.64.07,0,0c.56.25.33.08-.15.31a3.23,3.23,0,0,0-1-.08h0l-.1.07h0a0,0,0,0,0,0,0c-.15,0-.6.13-.75.12l.6.07.41,0,.07,0h0a4.1,4.1,0,0,0,1,0c-.18.06.32,0,.69.06.14,0-.4,0-.26.08h0a3.2,3.2,0,0,0,.41.07l-.11.11-.09.06-.25.19-.2,0a.41.41,0,0,1-.31,0l-.37.07h-.17a.48.48,0,0,0-.12,0H94.9v0H94.8a0,0,0,0,0,0,0,.11.11,0,0,0,0,.05h.28a1.52,1.52,0,0,0,.67,0h.55l-.14.15h.32l.24.06,0,0,0,0-.08,0-.14.05-.24.1-.63,0h-.12l0,0s0,0,0,0,0,0,0,0h.13a1.74,1.74,0,0,0,.6,0h.14a.87.87,0,0,1,.23.06l0,0a1.09,1.09,0,0,0,.23.14h-.08l-.06,0-.15,0a.87.87,0,0,0-.48,0l-.73.09h0l-.07.05h-.08l-.36.09.37,0h.16l.09,0h.06a3,3,0,0,0,.43,0h0l0,0v0a0,0,0,0,0,0,0H96l.09,0h0c.11,0,.22,0,.33,0h0a1.93,1.93,0,0,1-.43.08l-.33.09h0l-.07,0h0l-.22.11a0,0,0,0,0,0,0,.06.06,0,0,0,0,0h.25l.12,0a4.5,4.5,0,0,0,1,0,.13.13,0,0,0,.11-.09h0a.94.94,0,0,1,0,.16.59.59,0,0,0-.14.06l-.07.05s0,0,0,.06a.19.19,0,0,0,0,.15l-.07,0s0,0,0,0l-.42.14a4.5,4.5,0,0,0-.82,0h-.06s0,0,0,0h0a.07.07,0,0,0-.06.07.08.08,0,0,0,.08.08h0c.41,0,.83,0,1.23,0,.1,0,.2,0,.3,0l.1,0a2.23,2.23,0,0,0,.38.25,2.1,2.1,0,0,1,.61,0s0,0,0,0l0,0,0,.06s0,0,0,.06l0,0h0v0a13.86,13.86,0,0,1-1.44.05h-.11a.08.08,0,0,0-.08.08.08.08,0,0,0,.08.07h.08s.09,0,.11,0a1.16,1.16,0,0,0,.83.17h0a10.61,10.61,0,0,1,1.13,0h0a.76.76,0,0,1-.34.11,3.21,3.21,0,0,0-.27.29l-.28.1,0,0a2.08,2.08,0,0,1-.43,0l-.08,0a.09.09,0,0,0,0,.1.08.08,0,0,0,.1.05H97c.23,0,.45,0,.67,0l.16,0a13.79,13.79,0,0,1,1.9-.17,7,7,0,0,0,1.59-.69,5.32,5.32,0,0,1,.73-1,.33.33,0,0,0,.19-.16,6.5,6.5,0,0,0,1.55-3,1.28,1.28,0,0,0,.14-.23,1.33,1.33,0,0,0,0-.79v0h0v0c-.11-.31-.36-.53-.48-.83a8.65,8.65,0,0,0-.43-.93,1.39,1.39,0,0,0-.15-.19l0-.05s0,0,0,0a1.23,1.23,0,0,0-.31-.4,1.37,1.37,0,0,0-.42-.34s0,0,0,0l-.11-.09a1.12,1.12,0,0,0-.78-.14,1.29,1.29,0,0,0-.48,0,3.41,3.41,0,0,0-1.73.62,3.56,3.56,0,0,0-.67.2l-2.66.3,1.59.09a.65.65,0,0,0,0,.13,3.45,3.45,0,0,1-.62.38l-2.36.08,3.33.15h.05v.05a.18.18,0,0,0,0,0h0l-.39,0-.43,0h-.53c-.25,0,.51.27.27.34a3.29,3.29,0,0,1-.55,0,2.64,2.64,0,0,0-.4.12l-.37.18h0v0h0l.07,0a3,3,0,0,1,.65-.23,3.87,3.87,0,0,1,.76.39,3.1,3.1,0,0,0-.57-.09,1.52,1.52,0,0,1,.47.15l.22,0v0l-.17.13h0C96.48,22.91,96.43,23,96.43,23Zm-.34.18h0ZM94.45,24h0Zm1.81,3h0Zm.24-.07h0Zm.29.91h0Zm1.45.33h0l.14-.08Zm-1.43-5.32,0,.05s0,0,0,0Zm-.3.16h0s0,0,0,0Z"/><path class="cls-14" d="M95.23,22.43l-.62.05h.61A0,0,0,0,1,95.23,22.43Z"/></g></g></svg>