<svg id="Layer_1" data-name="Layer 1" xmlns="http://www.w3.org/2000/svg" width="478" height="52.97" viewBox="0 0 478 52.97"><defs><style>.cls-1{fill:#615d59;}.cls-2{fill:#93b278;}.cls-3{fill:#7892a4;}</style></defs><path class="cls-1" d="M131.29,1.19c.37-1,.49-1.19.67-1.19s.3.15.67,1.1c.46,1.15,5.23,13.72,7.09,18.34,1.1,2.71,2,3.19,2.62,3.38a3.93,3.93,0,0,0,1.21.18c.18,0,.31,0,.31.18s-.28.25-.61.25-2.68,0-4.78-.06c-.58,0-.91,0-.91-.22s.09-.18.21-.21.37-.33.18-.82l-2.82-7.49a.28.28,0,0,0-.28-.18h-6.54c-.15,0-.24.09-.3.25l-1.83,5.38a6.5,6.5,0,0,0-.42,2c0,.61.63.88,1.15.88h.31c.21,0,.3.06.3.18s-.18.25-.46.25c-.73,0-2-.09-2.37-.09s-2,.09-3.44.09c-.39,0-.58-.06-.58-.25s.13-.18.28-.18.64,0,.88-.06c1.4-.18,2-1.34,2.56-2.86Zm3.17,12.17c.15,0,.15-.1.12-.22l-2.89-8.21c-.15-.46-.31-.46-.46,0l-2.67,8.21c-.07.16,0,.22.09.22Z"/><path class="cls-1" d="M150.19,15.91c0,2.49,0,4.53.12,5.6.09.76.21,1.25,1,1.37a10.6,10.6,0,0,0,1.22.12.19.19,0,0,1,.21.21c0,.12-.12.21-.43.21-1.45,0-3.16-.09-3.31-.09s-2,.09-2.77.09c-.3,0-.42-.05-.42-.21s.06-.18.21-.18a3.6,3.6,0,0,0,.79-.12c.55-.12.7-.64.79-1.4.12-1.07.12-3.11.12-5.6V5.05l-3.86.06c-1.68,0-2.31.21-2.71.82a5.62,5.62,0,0,0-.43.82c-.06.22-.15.25-.27.25a.2.2,0,0,1-.18-.22c0-.27.55-2.58.58-2.8s.18-.48.27-.48a9.43,9.43,0,0,0,1.19.3c.76.09,1.79.12,2.09.12h10.11a13.34,13.34,0,0,0,1.91-.12c.4-.06.64-.12.76-.12s.13.15.13.3c0,.8-.1,2.65-.1,3s-.12.33-.24.33-.18-.09-.21-.46l0-.27c-.09-.79-.67-1.37-3.23-1.43l-3.34-.06Z"/><path class="cls-1" d="M178,15.91c0,2.49,0,4.53.15,5.6.09.76.16,1.25,1,1.37a10.44,10.44,0,0,0,1.18.12c.19,0,.25.12.25.21s-.15.21-.46.21c-1.46,0-3.16-.09-3.31-.09s-1.86.09-2.65.09c-.31,0-.43-.05-.43-.21A.21.21,0,0,1,174,23a3.69,3.69,0,0,0,.79-.12c.54-.12.64-.64.73-1.4.12-1.07.12-3,.12-5.51V13.39c0-.13-.06-.16-.15-.16H164.27c-.09,0-.15,0-.15.16V16c0,2.5,0,4.47.12,5.54.09.76.18,1.25,1,1.37a11.26,11.26,0,0,0,1.22.12.2.2,0,0,1,.21.21c0,.12-.12.21-.42.21-1.49,0-3.2-.09-3.32-.09s-1.85.09-2.68.09c-.27,0-.42-.05-.42-.21A.2.2,0,0,1,160,23a3.87,3.87,0,0,0,.82-.12c.52-.12.58-.61.7-1.37a50.35,50.35,0,0,0,.16-5.6V11.35c0-4,0-4.75-.07-5.57s-.21-1.31-1.09-1.43a8.71,8.71,0,0,0-.92-.06.25.25,0,0,1-.21-.21c0-.16.12-.22.43-.22,1.22,0,2.92.06,3.07.06s1.83-.06,2.65-.06c.3,0,.42.06.42.22a.25.25,0,0,1-.21.21,3.07,3.07,0,0,0-.67.06c-.73.15-.88.52-.94,1.43s0,1.61,0,5.63V12c0,.15.06.15.15.15h11.17c.09,0,.15,0,.15-.15v-.55c0-4,0-4.81-.06-5.63s-.19-1.31-1.07-1.43a8.69,8.69,0,0,0-.91-.06.23.23,0,0,1-.21-.21c0-.16.12-.22.42-.22,1.19,0,2.92.06,3.05.06s1.85-.06,2.64-.06c.31,0,.46.06.46.22a.26.26,0,0,1-.25.21,3.21,3.21,0,0,0-.67.06c-.69.15-.85.52-.91,1.43S178,7.33,178,11.35Z"/><path class="cls-1" d="M185.63,11.35c0-4,0-4.75-.06-5.57s-.22-1.31-1.1-1.43a8.69,8.69,0,0,0-.91-.06.27.27,0,0,1-.22-.21c0-.16.13-.22.43-.22,1.22,0,2.95.06,3.1.06s5.79,0,6.39,0a10.19,10.19,0,0,0,1.22-.15,1.6,1.6,0,0,1,.37-.12c.09,0,.12.12.12.25s-.15.48-.22,1.21c0,.24-.09,1.4-.15,1.7,0,.13-.12.28-.24.28s-.22-.12-.22-.34a3.1,3.1,0,0,0-.14-.91c-.19-.42-.46-.61-1.92-.79C191.62,5,188.52,5,188.21,5c-.12,0-.15.09-.15.27v7c0,.18,0,.27.15.27.34,0,3.87,0,4.48-.06s1-.09,1.31-.36.3-.34.39-.34.15.06.15.22a14.28,14.28,0,0,0-.21,1.43c-.06.51-.12,1.49-.12,1.67s-.07.49-.25.49-.18-.09-.18-.25a2.34,2.34,0,0,0-.12-.85c-.09-.36-.33-.67-1.37-.79-.73-.09-3.59-.12-4-.12a.16.16,0,0,0-.18.18v2.16c0,.88,0,3.9,0,4.41.06,1.74.55,2.07,3.19,2.07a9,9,0,0,0,2.68-.27,2,2,0,0,0,1.22-1.8c.06-.3.12-.39.27-.39s.19.21.19.39a22,22,0,0,1-.37,2.5c-.18.67-.46.67-1.49.67-2,0-3.56-.07-4.65-.09s-1.83-.07-2.23-.07c-.06,0-.57,0-1.15,0s-1.13.05-1.55.05-.43-.05-.43-.21A.21.21,0,0,1,184,23a8.11,8.11,0,0,0,.82-.12c.51-.09.57-.61.7-1.37a53.59,53.59,0,0,0,.15-5.6Z"/><path class="cls-1" d="M202.3,19.9c.06,2.13.3,2.77,1,3a6.5,6.5,0,0,0,1.34.15.21.21,0,0,1,.21.21c0,.16-.18.22-.48.22-1.52,0-2.59-.09-2.83-.09s-1.37.09-2.59.09c-.27,0-.42,0-.42-.22a.21.21,0,0,1,.21-.21,4.22,4.22,0,0,0,1.09-.15c.67-.18.77-.89.77-3.23V4.81c0-1,.15-1.31.36-1.31s.76.52,1,.79c.43.43,4.32,4.56,8.46,8.82,2.65,2.74,5.51,5.81,6.33,6.66l-.27-12.95c0-1.68-.19-2.26-1-2.41a8.56,8.56,0,0,0-1.3-.12.21.21,0,0,1-.22-.24c0-.16.22-.18.52-.18,1.22,0,2.49,0,2.8,0s1.18,0,2.28,0c.27,0,.49,0,.49.18a.31.31,0,0,1-.31.24,3.12,3.12,0,0,0-.64.06c-.88.18-.94.7-.94,2.25l-.06,15.15c0,1.71,0,1.86-.21,1.86s-.55-.21-2-1.58c-.28-.25-4.14-4.05-7-7-3.1-3.25-6.11-6.42-6.94-7.33Z"/><path class="cls-1" d="M223.05,23.06c-.37-.18-.4-.27-.4-1,0-1.28.12-2.31.15-2.74s.07-.43.22-.43.24.1.24.31a3.9,3.9,0,0,0,.09.94c.43,1.89,2.43,2.56,4.23,2.56,2.65,0,4-1.49,4-3.44s-1-2.74-3.38-4.5L227,13.87c-2.89-2.16-3.83-3.74-3.83-5.53,0-3,2.4-4.87,5.93-4.87a13.12,13.12,0,0,1,2.77.3,3.52,3.52,0,0,0,.94.12c.22,0,.28,0,.28.19A25.58,25.58,0,0,0,233,6.82c0,.39,0,.57-.21.57s-.21-.12-.24-.33a4.88,4.88,0,0,0-.4-1.28c-.18-.3-1.06-1.28-3.46-1.28-2,0-3.56,1-3.56,2.8,0,1.64.82,2.59,3.47,4.38l.75.52c3.26,2.22,4.39,4,4.39,6.24a5,5,0,0,1-2.5,4.41,8.2,8.2,0,0,1-4.26.91,9.74,9.74,0,0,1-3.89-.7"/><path class="cls-1" d="M249.39,9.25c0-4.75,0-5.6-.06-6.57S249,1.16,248,.94a5.92,5.92,0,0,0-1-.09c-.12,0-.24-.06-.24-.18s.15-.24.48-.24c1.37,0,3.29.09,3.44.09.33,0,2.65-.09,3.59-.09a9.34,9.34,0,0,1,5.57,1.34,5.29,5.29,0,0,1,2.1,4.13c0,2.25-.95,4.51-3.68,7,2.49,3.2,4.56,5.9,6.33,7.79a6.27,6.27,0,0,0,3.71,2.19,7.29,7.29,0,0,0,1.18.09c.15,0,.28.09.28.18s-.19.25-.73.25h-2.17a6.23,6.23,0,0,1-3.25-.58c-1.31-.7-2.37-2.19-4.11-4.47-1.27-1.68-2.7-3.72-3.31-4.51a.49.49,0,0,0-.4-.18L252,13.63c-.15,0-.21.09-.21.24v.73c0,2.92,0,5.33.15,6.6.09.89.27,1.56,1.18,1.68a13.66,13.66,0,0,0,1.37.12c.19,0,.25.09.25.18s-.15.25-.49.25c-1.67,0-3.59-.09-3.74-.09s-2,.09-2.86.09c-.34,0-.49-.06-.49-.25s.06-.18.24-.18a4.83,4.83,0,0,0,.92-.12c.61-.12.76-.79.88-1.68.15-1.27.15-3.68.15-6.6Zm2.44,2.65a.39.39,0,0,0,.21.36,8.43,8.43,0,0,0,3.19.49,3.93,3.93,0,0,0,2.29-.58c1.06-.73,1.85-2.37,1.85-4.69,0-3.8-2-6.08-5.26-6.08a9.32,9.32,0,0,0-2,.18.37.37,0,0,0-.24.37Z"/><path class="cls-1" d="M270.42,11.35c0-4,0-4.75-.07-5.57s-.21-1.31-1.09-1.43a8.69,8.69,0,0,0-.91-.06.27.27,0,0,1-.22-.21c0-.16.13-.22.43-.22,1.22,0,2.95.06,3.1.06s5.78,0,6.39,0a10.19,10.19,0,0,0,1.22-.15,1.69,1.69,0,0,1,.36-.12c.1,0,.13.12.13.25a11.37,11.37,0,0,0-.22,1.21c0,.24-.09,1.4-.15,1.7,0,.13-.12.28-.24.28s-.22-.12-.22-.34a2.85,2.85,0,0,0-.15-.91c-.18-.42-.46-.61-1.92-.79C276.41,5,273.31,5,273,5c-.12,0-.15.09-.15.27v7c0,.18,0,.27.15.27.34,0,3.86,0,4.47-.06s1-.09,1.31-.36.3-.34.4-.34.15.06.15.22a14.28,14.28,0,0,0-.21,1.43c-.06.51-.13,1.49-.13,1.67s-.06.49-.24.49-.18-.09-.18-.25a2.34,2.34,0,0,0-.12-.85c-.09-.36-.34-.67-1.37-.79-.73-.09-3.59-.12-4.05-.12a.16.16,0,0,0-.18.18v2.16c0,.88,0,3.9,0,4.41.06,1.74.54,2.07,3.19,2.07a9.05,9.05,0,0,0,2.68-.27,2,2,0,0,0,1.22-1.8c.06-.3.12-.39.27-.39s.18.21.18.39a21.63,21.63,0,0,1-.36,2.5c-.18.67-.46.67-1.49.67-2,0-3.56-.07-4.66-.09s-1.82-.07-2.22-.07c-.06,0-.58,0-1.15,0s-1.13.05-1.56.05c-.27,0-.42-.05-.42-.21a.2.2,0,0,1,.21-.21,7.36,7.36,0,0,0,.82-.12c.52-.09.58-.61.7-1.37a50.25,50.25,0,0,0,.16-5.6Z"/><path class="cls-1" d="M291.8,15.91c0,2.49,0,4.53.12,5.6.1.76.22,1.25,1,1.37a10.19,10.19,0,0,0,1.22.12.19.19,0,0,1,.21.21c0,.12-.12.21-.43.21-1.46,0-3.16-.09-3.31-.09s-2,.09-2.77.09c-.31,0-.43-.05-.43-.21s.06-.18.22-.18a3.69,3.69,0,0,0,.79-.12c.54-.12.7-.64.79-1.4.12-1.07.12-3.11.12-5.6V5.05l-3.86.06c-1.68,0-2.32.21-2.71.82a4.72,4.72,0,0,0-.43.82c-.06.22-.15.25-.27.25a.2.2,0,0,1-.18-.22c0-.27.54-2.58.58-2.8s.18-.48.27-.48a9,9,0,0,0,1.18.3c.77.09,1.8.12,2.1.12h10.1a13.51,13.51,0,0,0,1.92-.12c.39-.06.64-.12.76-.12s.12.15.12.3c0,.8-.09,2.65-.09,3s-.12.33-.24.33-.18-.09-.22-.46l0-.27c-.09-.79-.66-1.37-3.22-1.43l-3.35-.06Z"/><path class="cls-1" d="M305.74,15.91c0,2.49,0,4.53.12,5.6.09.76.18,1.25,1,1.37a11,11,0,0,0,1.22.12.2.2,0,0,1,.21.21c0,.12-.12.21-.42.21-1.5,0-3.23-.09-3.35-.09s-1.83.09-2.65.09c-.27,0-.42-.05-.42-.21a.2.2,0,0,1,.21-.21,3.87,3.87,0,0,0,.82-.12c.52-.12.61-.61.7-1.37.12-1.07.15-3.11.15-5.6V11.35c0-4,0-4.75-.06-5.57s-.27-1.28-.85-1.4a4.92,4.92,0,0,0-.82-.09.24.24,0,0,1-.22-.21c0-.16.13-.22.43-.22.88,0,2.56.06,2.71.06s1.85-.06,2.67-.06c.31,0,.43.06.43.22a.25.25,0,0,1-.21.21,3,3,0,0,0-.67.06c-.73.15-.88.52-.94,1.43s0,1.55,0,5.57Z"/><path class="cls-1" d="M314.44,19.9c.06,2.13.3,2.77,1,3a6.5,6.5,0,0,0,1.34.15.21.21,0,0,1,.21.21c0,.16-.18.22-.48.22-1.53,0-2.59-.09-2.83-.09s-1.37.09-2.59.09c-.27,0-.43,0-.43-.22a.21.21,0,0,1,.22-.21,4.22,4.22,0,0,0,1.09-.15c.67-.18.77-.89.77-3.23V4.81c0-1,.15-1.31.36-1.31s.76.52,1,.79c.43.43,4.32,4.56,8.46,8.82,2.65,2.74,5.51,5.81,6.33,6.66l-.28-12.95c0-1.68-.18-2.26-1-2.41a8.56,8.56,0,0,0-1.31-.12c-.18,0-.21-.15-.21-.24s.21-.18.52-.18c1.21,0,2.49,0,2.8,0s1.18,0,2.28,0c.27,0,.48,0,.48.18a.3.3,0,0,1-.3.24,3.12,3.12,0,0,0-.64.06c-.88.18-.94.7-.94,2.25l-.06,15.15c0,1.71,0,1.86-.22,1.86s-.54-.21-2-1.58c-.28-.25-4.14-4.05-7-7C318,11.78,315,8.61,314.14,7.7Z"/><path class="cls-1" d="M341.51,4.38c.34-.85.46-1,.64-1s.37.36.64.94c.49,1.1,4.78,11.77,6.42,15.7,1,2.31,1.7,2.65,2.28,2.83a3.79,3.79,0,0,0,1.07.15c.15,0,.33.06.33.21s-.3.22-.61.22-2.37,0-4.23-.06c-.51,0-.94,0-.94-.19s.06-.12.18-.18a.48.48,0,0,0,.25-.7l-2.41-5.93c-.06-.12-.09-.15-.24-.15h-6.18a.28.28,0,0,0-.27.21l-1.52,4.14a5.38,5.38,0,0,0-.39,1.73c0,.52.45.7.91.7h.24c.21,0,.27.09.27.21s-.15.22-.39.22c-.64,0-2.1-.09-2.4-.09s-1.62.09-2.71.09c-.34,0-.52-.06-.52-.22a.23.23,0,0,1,.24-.21,8,8,0,0,0,.8-.06c1.21-.15,1.73-1.07,2.25-2.37Zm3,10.77c.12,0,.12-.06.09-.18l-2.64-7.09c-.15-.4-.31-.4-.46,0L339,15q0,.18.09.18Z"/><path class="cls-1" d="M364.79,20.57a11.64,11.64,0,0,1-3.68-9,12.13,12.13,0,0,1,3.4-8.31c1.83-1.82,4.6-3.25,9.28-3.25a26.39,26.39,0,0,1,4.41.36,24.94,24.94,0,0,0,3.11.46c.33,0,.39.15.39.34s-.09.6-.15,1.7-.06,2.68-.09,3.13-.09.64-.28.64-.24-.21-.24-.64a4.18,4.18,0,0,0-1.28-3.1,10.12,10.12,0,0,0-6.08-1.73c-4.05,0-5.93,1.18-7,2.22-2.22,2.13-2.74,4.84-2.74,7.94a11,11,0,0,0,11,11.13c2.28,0,4.07-.27,5.29-1.52a5.92,5.92,0,0,0,1.13-2.55c.06-.34.12-.46.3-.46s.21.21.21.46a30.43,30.43,0,0,1-.67,3.89c-.18.58-.24.64-.79.88a17.49,17.49,0,0,1-5.47.7c-4.57,0-7.64-1.12-10-3.28"/><path class="cls-1" d="M387.15,11.35c0-4,0-4.75-.06-5.57s-.22-1.31-1.1-1.43a8.69,8.69,0,0,0-.91-.06.24.24,0,0,1-.21-.21c0-.16.11-.22.42-.22,1.22,0,2.95.06,3.11.06s5.78,0,6.38,0A10.19,10.19,0,0,0,396,3.77a1.77,1.77,0,0,1,.37-.12c.09,0,.12.12.12.25s-.15.48-.21,1.21c0,.24-.1,1.4-.16,1.7,0,.13-.12.28-.24.28s-.22-.12-.22-.34a3.1,3.1,0,0,0-.14-.91c-.19-.42-.46-.61-1.92-.79C393.14,5,390,5,389.73,5c-.12,0-.15.09-.15.27v7c0,.18,0,.27.15.27.34,0,3.87,0,4.48-.06s1-.09,1.31-.36.3-.34.39-.34.15.06.15.22a14.28,14.28,0,0,0-.21,1.43c-.06.51-.12,1.49-.12,1.67s-.07.49-.24.49-.19-.09-.19-.25a2.34,2.34,0,0,0-.12-.85c-.09-.36-.33-.67-1.37-.79-.73-.09-3.59-.12-4.05-.12a.16.16,0,0,0-.18.18v2.16c0,.88,0,3.9,0,4.41.06,1.74.55,2.07,3.2,2.07a9,9,0,0,0,2.67-.27,2,2,0,0,0,1.22-1.8c.06-.3.12-.39.27-.39s.19.21.19.39a22,22,0,0,1-.37,2.5c-.18.67-.46.67-1.49.67-2,0-3.56-.07-4.65-.09s-1.83-.07-2.22-.07c-.06,0-.58,0-1.16,0s-1.12.05-1.55.05c-.28,0-.43-.05-.43-.21a.21.21,0,0,1,.22-.21,8.11,8.11,0,0,0,.82-.12c.51-.09.57-.61.7-1.37a53.59,53.59,0,0,0,.15-5.6Z"/><path class="cls-1" d="M403.82,19.9c.06,2.13.3,2.77,1,3a6.5,6.5,0,0,0,1.34.15.21.21,0,0,1,.22.21c0,.16-.19.22-.49.22-1.52,0-2.59-.09-2.83-.09s-1.37.09-2.59.09c-.27,0-.42,0-.42-.22a.21.21,0,0,1,.21-.21,4.22,4.22,0,0,0,1.09-.15c.67-.18.77-.89.77-3.23V4.81c0-1,.15-1.31.36-1.31s.76.52,1,.79c.42.43,4.32,4.56,8.45,8.82,2.65,2.74,5.51,5.81,6.33,6.66l-.27-12.95c0-1.68-.18-2.26-1-2.41a8.56,8.56,0,0,0-1.31-.12c-.18,0-.21-.15-.21-.24s.21-.18.52-.18c1.22,0,2.5,0,2.8,0s1.19,0,2.28,0c.28,0,.49,0,.49.18a.3.3,0,0,1-.31.24,3.12,3.12,0,0,0-.64.06c-.88.18-.94.7-.94,2.25l-.06,15.15c0,1.71,0,1.86-.21,1.86s-.55-.21-2-1.58c-.28-.25-4.14-4.05-7-7-3.1-3.25-6.11-6.42-6.94-7.33Z"/><path class="cls-1" d="M432.66,15.91c0,2.49,0,4.53.12,5.6.09.76.21,1.25,1,1.37A10.6,10.6,0,0,0,435,23c.19,0,.21.12.21.21s-.12.21-.42.21c-1.46,0-3.16-.09-3.32-.09s-2,.09-2.76.09c-.31,0-.43-.05-.43-.21s.06-.18.21-.18a3.51,3.51,0,0,0,.79-.12c.55-.12.7-.64.79-1.4.12-1.07.12-3.11.12-5.6V5.05l-3.86.06c-1.67,0-2.31.21-2.71.82a4.41,4.41,0,0,0-.42.82c-.06.22-.15.25-.27.25a.2.2,0,0,1-.19-.22c0-.27.55-2.58.58-2.8s.18-.48.27-.48a10,10,0,0,0,1.19.3c.76.09,1.8.12,2.1.12H437a13.62,13.62,0,0,0,1.92-.12c.39-.06.63-.12.76-.12s.12.15.12.3c0,.8-.09,2.65-.09,3s-.13.33-.24.33-.19-.09-.22-.46l0-.27c-.09-.79-.67-1.37-3.22-1.43l-3.35-.06Z"/><path class="cls-1" d="M444.16,11.35c0-4,0-4.75-.06-5.57s-.21-1.31-1.1-1.43a8.51,8.51,0,0,0-.91-.06.25.25,0,0,1-.21-.21c0-.16.12-.22.42-.22,1.22,0,3,.06,3.1.06s5.79,0,6.4,0A10.24,10.24,0,0,0,453,3.77a1.6,1.6,0,0,1,.37-.12c.09,0,.12.12.12.25s-.15.48-.21,1.21c0,.24-.09,1.4-.16,1.7,0,.13-.12.28-.24.28s-.22-.12-.22-.34a2.8,2.8,0,0,0-.14-.91c-.19-.42-.46-.61-1.92-.79C450.15,5,447.05,5,446.75,5c-.13,0-.16.09-.16.27v7c0,.18,0,.27.16.27.33,0,3.86,0,4.47-.06s1-.09,1.31-.36.3-.34.39-.34.15.06.15.22a14.28,14.28,0,0,0-.21,1.43c-.06.51-.12,1.49-.12,1.67s-.07.49-.25.49-.18-.09-.18-.25a2.34,2.34,0,0,0-.12-.85c-.09-.36-.33-.67-1.37-.79-.73-.09-3.59-.12-4-.12-.16,0-.19.09-.19.18v2.16c0,.88,0,3.9,0,4.41.06,1.74.55,2.07,3.2,2.07a9.09,9.09,0,0,0,2.68-.27,2,2,0,0,0,1.21-1.8c.06-.3.12-.39.28-.39s.18.21.18.39a19.93,19.93,0,0,1-.37,2.5c-.18.67-.45.67-1.49.67-2,0-3.56-.07-4.65-.09s-1.83-.07-2.23-.07c0,0-.57,0-1.15,0s-1.13.05-1.55.05c-.27,0-.43-.05-.43-.21a.21.21,0,0,1,.22-.21,8.11,8.11,0,0,0,.82-.12c.52-.09.58-.61.7-1.37a53.59,53.59,0,0,0,.15-5.6Z"/><path class="cls-1" d="M459.7,11.35c0-4,0-4.75-.05-5.57s-.22-1.31-1.1-1.43a8.69,8.69,0,0,0-.91-.06.25.25,0,0,1-.21-.21c0-.16.12-.22.42-.22,1.22,0,3,.06,3.17.06s2.52-.06,3.34-.06a8.81,8.81,0,0,1,5,1.13,4.53,4.53,0,0,1,1.86,3.53c0,1.92-.79,3.77-3.29,5.9,2.19,2.74,4.05,5.08,5.6,6.69a4.91,4.91,0,0,0,3,1.8,5,5,0,0,0,.94.09.24.24,0,0,1,.25.21c0,.16-.16.22-.64.22h-1.67a5.46,5.46,0,0,1-2.87-.52c-1.15-.61-2.13-1.86-3.65-3.8-1.12-1.4-2.31-3.08-2.89-3.78a.4.4,0,0,0-.36-.15l-3.41-.06c-.12,0-.18.06-.18.21v.61c0,2.5,0,4.5.12,5.57.09.76.24,1.25,1.06,1.37a10.16,10.16,0,0,0,1.19.12.19.19,0,0,1,.21.21c0,.13-.12.22-.42.22-1.46,0-3.16-.09-3.29-.09s-1.82.09-2.64.09c-.28,0-.43-.06-.43-.22A.2.2,0,0,1,458,23a3.78,3.78,0,0,0,.82-.12c.52-.12.58-.61.7-1.37a53.59,53.59,0,0,0,.15-5.6ZM462,13.54a.38.38,0,0,0,.18.33,8.9,8.9,0,0,0,2.95.4,3.46,3.46,0,0,0,2-.46,4.62,4.62,0,0,0,1.61-4c0-3.23-1.76-5.08-4.62-5.08a11.85,11.85,0,0,0-1.92.15.33.33,0,0,0-.21.3Z"/><rect class="cls-2" x="119.96" y="34.03" width="358.04" height="1"/><path class="cls-3" d="M70.19,13.25a62.12,62.12,0,0,1,7.65-1l-.12,0,.26,0a98.69,98.69,0,0,0,5.8-8.85q-3.36-.64-6.71-1.13-4.5-.5-9-.67c-3,0-5.92.06-8.84.22s-6,.61-8.9,1S44.84,4,42.16,4.59s-5.22,1.52-7.73,2.34-4.77,1.77-7,2.68-4.21,1.94-6.22,2.89L15.7,15.39q-2.29,1.39-4.5,2.67-1.86,1.25-3.66,2.36c-1,.73-1.93,1.41-2.88,2-.74.63-1.46,1.21-2.18,1.75-.49.53-1,1-1.47,1.51C.74,26.18.46,26.6.19,27c-.06.4-.13.78-.19,1.15.14.36.28.72.4,1.08.37.35.72.71,1.06,1.07.53.37,1,.75,1.54,1.15s1.26.83,1.87,1.27c.84.46,1.67.94,2.46,1.45S9.17,35.27,10,35.86c1.08.62,2.13,1.26,3.15,2,1.19.71,2.34,1.45,3.47,2.24l.68.41.57.39.57.4.67.42.65.42.66.45.65.42.64.45Q20.38,42.24,19,41.16c-.78-.69-1.58-1.36-2.4-2-.66-.62-1.33-1.21-2-1.78s-1.13-1.09-1.72-1.61c-.42-.5-.85-1-1.29-1.46s-.63-.9-1-1.33-.4-.85-.61-1.28c0-.4-.06-.81-.1-1.23.14-.39.29-.8.43-1.22.29-.41.59-.84.88-1.27l1.37-1.35c.66-.47,1.32-1,2-1.48s1.6-1,2.42-1.59c1.05-.56,2.13-1.14,3.23-1.75,1.26-.59,2.55-1.21,3.87-1.85L28.48,18q2.52-.91,5.17-1.85c1.79-.56,3.64-1.12,5.53-1.67,2.06-.49,4.16-1,6.32-1.41s4.32-.73,6.55-1,4.54-.44,6.87-.6c2-.08,4-.12,6-.13C51,13,33.64,20.69,33.43,28.45c-.1,3.71,4.44,9.88,10.92,11.68a11.7,11.7,0,0,1-1.45-2.72c-3.62-9.78,8.6-20.6,27.29-24.16"/><path class="cls-2" d="M99.6,20.41a12.07,12.07,0,0,1,1.46,2.71c3.61,9.78-8.61,20.6-27.3,24.17a64.1,64.1,0,0,1-7.65,1c.24,0-.26.42.91.45,21,.57,43.21-6.31,43.5-16.65.1-3.7-4.44-9.87-10.92-11.67"/><path class="cls-3" d="M128.06,48.45a5.18,5.18,0,0,0-.13,1,5.78,5.78,0,0,1-3,.77,4.06,4.06,0,0,1-4.37-4.26c0-2.29,1.43-4.2,4.56-4.2a6.9,6.9,0,0,1,2.94.63,3.85,3.85,0,0,0-.29,1.19h-.12a2.9,2.9,0,0,0-2.58-1.31c-1.88,0-3.13,1.38-3.13,3.68,0,2.48,1.54,3.7,3.23,3.7a3.51,3.51,0,0,0,2.7-1.22Z"/><path class="cls-3" d="M140.61,45.85a4.28,4.28,0,0,1-4.6,4.38c-2.59,0-4.47-1.6-4.47-4.24s1.68-4.28,4.59-4.28C138.62,41.71,140.61,43.17,140.61,45.85ZM136,49.72c1.88,0,3.21-1.37,3.21-3.81a4.89,4.89,0,0,0-.52-2.29,3.1,3.1,0,0,0-2.66-1.4c-1.58,0-3.17,1.07-3.17,3.76C132.9,48.3,134.21,49.72,136,49.72Z"/><path class="cls-3" d="M152.34,43.94q-1.29,2.33-2.47,4.69a15.44,15.44,0,0,0-.62,1.42l-.16,0-.16,0c-.21-.49-.34-.78-.56-1.2-.83-1.61-1.78-3.43-2.57-4.8a52,52,0,0,0-.49,6,1.55,1.55,0,0,0-.45-.07,3.12,3.12,0,0,0-.57.07c.12-.56,1-5.68,1.23-8.28l.2,0,.24,0c.34.78,2.67,5.19,3.44,6.41,1.91-3.56,2.13-4,2.83-5.28.28-.56.34-.68.55-1.13l.21,0,.23,0c.27,2.51.66,6,1,8a2.42,2.42,0,0,0,.07.32,3.79,3.79,0,0,0-.66-.07,3.35,3.35,0,0,0-.74.07C152.85,48.78,152.37,44.27,152.34,43.94Z"/><path class="cls-3" d="M166.11,43.94q-1.29,2.33-2.47,4.69a14.59,14.59,0,0,0-.61,1.42l-.17,0-.16,0c-.21-.49-.34-.78-.56-1.2-.83-1.61-1.78-3.43-2.57-4.8a49.6,49.6,0,0,0-.48,6,1.61,1.61,0,0,0-.46-.07,3.25,3.25,0,0,0-.57.07c.12-.56,1-5.68,1.23-8.28l.2,0,.24,0c.34.78,2.68,5.19,3.44,6.41,1.91-3.56,2.13-4,2.83-5.28.29-.56.35-.68.55-1.13l.21,0,.23,0c.27,2.51.67,6,1,8a1.44,1.44,0,0,0,.07.32,4,4,0,0,0-.67-.07,3.35,3.35,0,0,0-.74.07C166.62,48.78,166.14,44.27,166.11,43.94Z"/><path class="cls-3" d="M172.33,41.82a5.92,5.92,0,0,0,.7.07,4.46,4.46,0,0,0,.69-.07c-.11,1.55-.11,3.81-.11,4.06,0,1.5,0,2.34.52,2.92a2.54,2.54,0,0,0,1.91.77,2.29,2.29,0,0,0,2.34-1.73,13.6,13.6,0,0,0,.21-2.46c0-.45-.05-2.79-.17-3.56a2.26,2.26,0,0,0,.56.07,2,2,0,0,0,.52-.07,31.82,31.82,0,0,0-.2,4.2,4.59,4.59,0,0,1-.86,3.26,3.37,3.37,0,0,1-2.62.94,3.56,3.56,0,0,1-2.9-1.2,3.54,3.54,0,0,1-.5-2.28C172.42,43.54,172.42,43.3,172.33,41.82Z"/><path class="cls-3" d="M184.81,44.65c0,2.88.09,3.56.19,5.4a1.67,1.67,0,0,0-.5-.07,1.44,1.44,0,0,0-.46.07c.06-.59.15-2.64.15-3.88,0-.48,0-2.55,0-3V41.77l.19,0,.25,0,.39.46c.32.37.61.69,1.33,1.45,2.38,2.52,2.65,2.8,4.16,4.33v-.44a55.65,55.65,0,0,0-.16-5.8,2,2,0,0,0,.47.07,2.62,2.62,0,0,0,.51-.07,44.34,44.34,0,0,0-.2,5.15c0,.93,0,2.36,0,3.2l-.22,0-.19,0c-.37-.45-2.16-2.44-3-3.21l-.61-.6-2.32-2.41Z"/><path class="cls-3" d="M196.15,41.82a2.61,2.61,0,0,0,.65.07,3,3,0,0,0,.69-.07c-.07,1.41-.09,2.83-.09,4.24,0,2.15,0,3.1.08,4a4.32,4.32,0,0,0-.74-.07,2.81,2.81,0,0,0-.63.07c.08-1.3.12-1.9.12-4.24C196.23,44.1,196.23,44,196.15,41.82Z"/><path class="cls-3" d="M204,42.48a15.27,15.27,0,0,0-2.64.17,2.39,2.39,0,0,0,0-.42,2,2,0,0,0,0-.41c.73.07,2.26.07,3.2.07,1.17,0,2.43,0,3.19-.07a1.42,1.42,0,0,0,0,.41,1.67,1.67,0,0,0,0,.42,15,15,0,0,0-2.54-.17c0,.82,0,1.65,0,2.46,0,1.45,0,3.31.08,5.11a5.49,5.49,0,0,0-.76-.07,3.32,3.32,0,0,0-.62.07c.1-1.31.13-3,.13-4.65C204.06,44.31,204.05,43.29,204,42.48Z"/><path class="cls-3" d="M214.86,50.05a2,2,0,0,0-.59-.07,2.2,2.2,0,0,0-.72.07,27.85,27.85,0,0,0,.07-3.32c-2-3.34-2.21-3.71-3-4.91a3.59,3.59,0,0,0,.76.07,4.92,4.92,0,0,0,.84-.07A22.44,22.44,0,0,0,213.86,45c.25.44.52.9.61.9a3.59,3.59,0,0,0,.47-.72,28.7,28.7,0,0,0,1.66-3.33,2.1,2.1,0,0,0,.56.07,2.19,2.19,0,0,0,.53-.07c-.46.65-2.16,3.37-2.68,4.33a4.76,4.76,0,0,0-.22.49c0,.17,0,.4,0,.65C214.78,47.73,214.8,49.11,214.86,50.05Z"/><path class="cls-3" d="M229.86,50.05,228,50c-.32,0-.6,0-1.28,0,.09-1.2.15-2,.15-4.76,0-1.77,0-2.23-.1-3.5.66,0,1.3,0,1.95,0,2.13,0,3.28,0,4.38.88a3.62,3.62,0,0,1,1.31,3C234.38,48.72,232.24,50.05,229.86,50.05Zm2-7a4.42,4.42,0,0,0-2.8-.63,9.28,9.28,0,0,0-1.05.05c0,1.1-.06,2.31-.06,3.41,0,2.17,0,2.42,0,3.6a9,9,0,0,0,1.27.07,4.4,4.4,0,0,0,2.47-.57,3.64,3.64,0,0,0,1.33-3.08A3.45,3.45,0,0,0,231.86,43Z"/><path class="cls-3" d="M244.63,50.05a4.05,4.05,0,0,0-.7-.07,7.25,7.25,0,0,0-.85.07,34.21,34.21,0,0,0-2.92-4h-.31c0,.85,0,2.09.08,4a3.11,3.11,0,0,0-.69-.07,2.37,2.37,0,0,0-.63.07c.06-1.4.09-2.82.09-4.56,0-1.1,0-2.34-.08-3.67.46,0,.79,0,1,0H241c1.42,0,1.86.18,2.25.5a1.73,1.73,0,0,1,.61,1.43c0,1.7-1.61,2-2.34,2.13.44.68,2.93,3.8,3.07,4Zm-4-7.71a4.14,4.14,0,0,0-.75.06c0,.53,0,1.08,0,1.62s0,1.38,0,1.63a4.26,4.26,0,0,0,.63,0c.54,0,2.18-.1,2.18-1.75C242.66,42.52,241.48,42.34,240.61,42.34Z"/><path class="cls-3" d="M248.66,41.82a2.64,2.64,0,0,0,.66.07,2.89,2.89,0,0,0,.68-.07c-.07,1.41-.09,2.83-.09,4.24,0,2.15.05,3.1.08,4a4.14,4.14,0,0,0-.74-.07,2.81,2.81,0,0,0-.63.07c.09-1.3.12-1.9.12-4.24C248.74,44.1,248.74,44,248.66,41.82Z"/><path class="cls-3" d="M260.2,43.27c.26-.79.34-1.11.43-1.45a1.7,1.7,0,0,0,.49.07,2.36,2.36,0,0,0,.58-.07c-.23.39-2.14,4.58-3.46,8.23a1.29,1.29,0,0,0-.47-.07,1.41,1.41,0,0,0-.47.07c-.27-.88-2.4-6.51-3.31-8.23a3.71,3.71,0,0,0,.71.07,3.58,3.58,0,0,0,.82-.07,65.22,65.22,0,0,0,2.59,6.88A56.75,56.75,0,0,0,260.2,43.27Z"/><path class="cls-3" d="M269.34,45.33a1.56,1.56,0,0,0,0,.4,2.35,2.35,0,0,0,0,.37,15.74,15.74,0,0,0-1.85-.12l-1,0c0,.51,0,1,0,1.56s0,1.53,0,1.85a28.82,28.82,0,0,0,3.13-.14,1.56,1.56,0,0,0-.05.4,1.35,1.35,0,0,0,.05.38A13.17,13.17,0,0,0,268,50c-.91,0-1.84,0-2.76.07a41.87,41.87,0,0,0,.13-4.26c0-1.19,0-2.8-.09-4,.83.07,1.65.07,2.49.07.6,0,1.2,0,1.8-.07a2.59,2.59,0,0,0,0,.41,1.84,1.84,0,0,0,0,.38,8.93,8.93,0,0,0-1.89-.15c-.43,0-.64,0-1.15,0,0,.47,0,.67,0,1.37s0,.92,0,1.55A23.92,23.92,0,0,0,269.34,45.33Z"/><path class="cls-3" d="M274.54,44.65c0,2.88.08,3.56.19,5.4a1.67,1.67,0,0,0-.5-.07,1.44,1.44,0,0,0-.46.07c.06-.59.15-2.64.15-3.88,0-.48,0-2.55,0-3V41.77l.2,0,.25,0,.39.46c.32.37.61.69,1.33,1.45,2.38,2.52,2.64,2.8,4.15,4.33v-.44c0-3,0-4.08-.15-5.8a1.86,1.86,0,0,0,.46.07,2.72,2.72,0,0,0,.52-.07,42.24,42.24,0,0,0-.21,5.15c0,.93,0,2.36.05,3.2l-.23,0-.19,0c-.36-.45-2.15-2.44-3-3.21l-.61-.6-2.32-2.41Z"/><path class="cls-3" d="M291,41.06h.77V53H291Z"/><path class="cls-3" d="M308.82,48.45a7.67,7.67,0,0,0-.13,1,5.78,5.78,0,0,1-2.95.77,4.06,4.06,0,0,1-4.37-4.26c0-2.29,1.43-4.2,4.56-4.2a6.86,6.86,0,0,1,2.94.63,3.58,3.58,0,0,0-.28,1.19h-.12a2.92,2.92,0,0,0-2.59-1.31c-1.88,0-3.13,1.38-3.13,3.68,0,2.48,1.54,3.7,3.23,3.7a3.51,3.51,0,0,0,2.7-1.22Z"/><path class="cls-3" d="M321.37,45.85a4.27,4.27,0,0,1-4.59,4.38c-2.6,0-4.48-1.6-4.48-4.24s1.68-4.28,4.6-4.28C319.38,41.71,321.37,43.17,321.37,45.85Zm-4.57,3.87c1.88,0,3.21-1.37,3.21-3.81a4.78,4.78,0,0,0-.52-2.29,3.07,3.07,0,0,0-2.66-1.4c-1.58,0-3.17,1.07-3.17,3.76C313.66,48.3,315,49.72,316.8,49.72Z"/><path class="cls-3" d="M333.1,43.94q-1.29,2.33-2.47,4.69a15.44,15.44,0,0,0-.62,1.42l-.16,0-.16,0c-.21-.49-.34-.78-.56-1.2-.83-1.61-1.78-3.43-2.57-4.8a49.6,49.6,0,0,0-.48,6,1.66,1.66,0,0,0-.46-.07,3.25,3.25,0,0,0-.57.07c.12-.56.95-5.68,1.23-8.28l.2,0,.24,0c.34.78,2.67,5.19,3.44,6.41,1.91-3.56,2.13-4,2.83-5.28.29-.56.34-.68.55-1.13l.21,0,.23,0c.27,2.51.66,6,1,8,0,.08,0,.17.07.32a3.79,3.79,0,0,0-.66-.07,3.35,3.35,0,0,0-.74.07C333.61,48.78,333.13,44.27,333.1,43.94Z"/><path class="cls-3" d="M343.44,45.91a4.81,4.81,0,0,1-2.36.5l-.58,0c0,1.64,0,2.51.09,3.66a2.92,2.92,0,0,0-.69-.07,2.27,2.27,0,0,0-.63.07c.08-1.67.09-3.34.09-5s0-2.36-.09-3.21c.46,0,1,0,2,0a5.5,5.5,0,0,1,2.24.27,1.91,1.91,0,0,1,1.11,1.8A2.29,2.29,0,0,1,343.44,45.91Zm-.56-3a2.53,2.53,0,0,0-1.69-.52,4.31,4.31,0,0,0-.69,0c0,1,0,2.24,0,3.48,1.2,0,2.79,0,2.79-1.84A1.57,1.57,0,0,0,342.88,42.87Z"/><path class="cls-3" d="M348.91,46.93a20.4,20.4,0,0,0-1.11,3.12,2.47,2.47,0,0,0-.48-.07,3.26,3.26,0,0,0-.53.07c1.06-2.31,2.82-6.19,3.67-8.33a2,2,0,0,0,.3,0,1.15,1.15,0,0,0,.26,0c.91,2.5,3.54,8.28,3.57,8.33a3.47,3.47,0,0,0-.71-.07,4.19,4.19,0,0,0-.76.07,20.85,20.85,0,0,0-1.2-3.12Zm1.49-3.54-1.25,3h2.53Z"/><path class="cls-3" d="M362.3,43.33a1.58,1.58,0,0,0-1.65-1.11,1.36,1.36,0,0,0-1.53,1.37c0,.94.79,1.26,1.39,1.5a5.68,5.68,0,0,1,1.94.93,1.89,1.89,0,0,1,.67,1.52,2.69,2.69,0,0,1-3,2.65,3.58,3.58,0,0,1-2.16-.65,4.66,4.66,0,0,0,.21-1.12h.16a2.15,2.15,0,0,0,2,1.24,1.59,1.59,0,0,0,1.77-1.59c0-1-.68-1.32-1.48-1.64-1.39-.58-1.55-.64-1.87-.93a1.93,1.93,0,0,1-.59-1.47,2.36,2.36,0,0,1,2.64-2.31,4,4,0,0,1,2,.55,3.21,3.21,0,0,0-.34,1.06Z"/><path class="cls-3" d="M371.45,43.33a1.6,1.6,0,0,0-1.66-1.11,1.35,1.35,0,0,0-1.52,1.37c0,.94.78,1.26,1.39,1.5a5.78,5.78,0,0,1,1.94.93,1.89,1.89,0,0,1,.67,1.52,2.69,2.69,0,0,1-3,2.65,3.59,3.59,0,0,1-2.17-.65,4.91,4.91,0,0,0,.22-1.12h.15a2.17,2.17,0,0,0,2,1.24,1.58,1.58,0,0,0,1.76-1.59c0-1-.68-1.32-1.48-1.64a5.87,5.87,0,0,1-1.87-.93,1.93,1.93,0,0,1-.59-1.47,2.36,2.36,0,0,1,2.64-2.31,4.1,4.1,0,0,1,2,.55,3.18,3.18,0,0,0-.35,1.06Z"/><path class="cls-3" d="M376.86,41.82a2.7,2.7,0,0,0,.66.07,3.05,3.05,0,0,0,.69-.07c-.08,1.41-.1,2.83-.1,4.24,0,2.15.05,3.1.08,4a4.11,4.11,0,0,0-.73-.07,2.81,2.81,0,0,0-.63.07c.08-1.3.11-1.9.11-4.24C376.94,44.1,376.94,44,376.86,41.82Z"/><path class="cls-3" d="M391.86,45.85a4.27,4.27,0,0,1-4.59,4.38c-2.6,0-4.48-1.6-4.48-4.24s1.68-4.28,4.59-4.28C389.87,41.71,391.86,43.17,391.86,45.85Zm-4.57,3.87c1.88,0,3.21-1.37,3.21-3.81a4.89,4.89,0,0,0-.52-2.29,3.08,3.08,0,0,0-2.66-1.4c-1.58,0-3.17,1.07-3.17,3.76C384.15,48.3,385.46,49.72,387.29,49.72Z"/><path class="cls-3" d="M396.91,44.65c0,2.88.08,3.56.19,5.4a1.72,1.72,0,0,0-.5-.07,1.44,1.44,0,0,0-.46.07c.06-.59.15-2.64.15-3.88,0-.48,0-2.55,0-3V41.77l.2,0,.25,0,.39.46c.32.37.61.69,1.33,1.45,2.38,2.52,2.64,2.8,4.15,4.33v-.44c0-3,0-4.08-.15-5.8a1.86,1.86,0,0,0,.46.07,2.72,2.72,0,0,0,.52-.07,42.24,42.24,0,0,0-.21,5.15c0,.93,0,2.36.05,3.2l-.23,0-.19,0c-.37-.45-2.15-2.44-3-3.21-.21-.19-.41-.4-.61-.6l-2.32-2.41Z"/><path class="cls-3" d="M409,46.93a19.6,19.6,0,0,0-1.1,3.12,2.73,2.73,0,0,0-.49-.07,3.26,3.26,0,0,0-.53.07c1.06-2.31,2.82-6.19,3.67-8.33a2.16,2.16,0,0,0,.3,0,1.15,1.15,0,0,0,.26,0c.91,2.5,3.54,8.28,3.57,8.33A3.36,3.36,0,0,0,414,50a4.22,4.22,0,0,0-.77.07,20.85,20.85,0,0,0-1.2-3.12Zm1.49-3.54-1.25,3h2.53Z"/><path class="cls-3" d="M419.28,42.48a15.27,15.27,0,0,0-2.64.17,2.39,2.39,0,0,0,0-.42,2,2,0,0,0,0-.41c.74.07,2.26.07,3.2.07,1.16,0,2.43,0,3.19-.07a1.42,1.42,0,0,0,0,.41,1.67,1.67,0,0,0,0,.42,15,15,0,0,0-2.54-.17c0,.82,0,1.65,0,2.46,0,1.45-.05,3.31.08,5.11a5.62,5.62,0,0,0-.76-.07,3.32,3.32,0,0,0-.62.07c.1-1.31.13-3,.13-4.65C419.3,44.31,419.29,43.29,419.28,42.48Z"/><path class="cls-3" d="M430.74,45.33a2.25,2.25,0,0,0,0,.4c0,.13,0,.24,0,.37A15.57,15.57,0,0,0,428.9,46l-1,0c0,.51,0,1,0,1.56s0,1.53,0,1.85a28.82,28.82,0,0,0,3.13-.14,1.56,1.56,0,0,0-.05.4,1.35,1.35,0,0,0,.05.38,13.17,13.17,0,0,0-1.66-.07c-.91,0-1.84,0-2.76.07.07-.89.13-1.67.13-4.26,0-1.19,0-2.8-.09-4,.83.07,1.65.07,2.48.07.61,0,1.21,0,1.81-.07a2.55,2.55,0,0,0-.05.41,1.75,1.75,0,0,0,.05.38,8.93,8.93,0,0,0-1.89-.15c-.43,0-.64,0-1.15,0,0,.47,0,.67,0,1.37s0,.92,0,1.55A23.85,23.85,0,0,0,430.74,45.33Z"/><path class="cls-3" d="M447.78,48.45a6,6,0,0,0-.14,1,5.77,5.77,0,0,1-2.94.77,4.06,4.06,0,0,1-4.37-4.26c0-2.29,1.42-4.2,4.56-4.2a6.85,6.85,0,0,1,2.93.63,3.84,3.84,0,0,0-.28,1.19h-.12a2.92,2.92,0,0,0-2.58-1.31c-1.88,0-3.13,1.38-3.13,3.68,0,2.48,1.53,3.7,3.22,3.7a3.49,3.49,0,0,0,2.7-1.22Z"/><path class="cls-3" d="M452.91,46.93a20.4,20.4,0,0,0-1.11,3.12,2.47,2.47,0,0,0-.48-.07,3.26,3.26,0,0,0-.53.07c1.06-2.31,2.82-6.19,3.67-8.33a2,2,0,0,0,.29,0,1.18,1.18,0,0,0,.27,0c.91,2.5,3.54,8.28,3.57,8.33a3.47,3.47,0,0,0-.71-.07,4.1,4.1,0,0,0-.76.07,22,22,0,0,0-1.2-3.12Zm1.49-3.54-1.25,3h2.53Z"/><path class="cls-3" d="M468.35,50.05a4.05,4.05,0,0,0-.7-.07,7.4,7.4,0,0,0-.86.07,33.09,33.09,0,0,0-2.92-4h-.31c0,.85,0,2.09.09,4A3.17,3.17,0,0,0,463,50a2.32,2.32,0,0,0-.63.07c.06-1.4.08-2.82.08-4.56,0-1.1,0-2.34-.07-3.67.45,0,.78,0,1,0h1.39c1.41,0,1.85.18,2.24.5a1.7,1.7,0,0,1,.61,1.43c0,1.7-1.61,2-2.33,2.13.44.68,2.93,3.8,3.07,4Zm-4-7.71a4,4,0,0,0-.75.06c0,.53,0,1.08,0,1.62s0,1.38,0,1.63a4.29,4.29,0,0,0,.63,0c.54,0,2.18-.1,2.18-1.75C466.37,42.52,465.2,42.34,464.33,42.34Z"/><path class="cls-3" d="M476.1,45.33a2.18,2.18,0,0,0-.05.4c0,.13,0,.24.05.37a15.57,15.57,0,0,0-1.84-.12l-1,0c0,.51,0,1,0,1.56s0,1.53,0,1.85a28.73,28.73,0,0,0,3.13-.14,2.18,2.18,0,0,0-.05.4,1.85,1.85,0,0,0,.05.38,13,13,0,0,0-1.65-.07c-.92,0-1.85,0-2.76.07.07-.89.13-1.67.13-4.26,0-1.19,0-2.8-.1-4,.84.07,1.66.07,2.49.07.61,0,1.2,0,1.81-.07a1.77,1.77,0,0,0-.05.41,1.3,1.3,0,0,0,.05.38,9,9,0,0,0-1.89-.15c-.43,0-.64,0-1.16,0,0,.47,0,.67,0,1.37s0,.92,0,1.55A23.92,23.92,0,0,0,476.1,45.33Z"/></svg>