<?xml version="1.0" encoding="utf-8"?>
<!-- Generator: Adobe Illustrator 22.0.0, SVG Export Plug-In . SVG Version: 6.00 Build 0)  -->
<svg version="1.1" id="Layer_1" xmlns="http://www.w3.org/2000/svg" xmlns:xlink="http://www.w3.org/1999/xlink" x="0px" y="0px"
	 viewBox="0 0 547.6 131.4" style="enable-background:new 0 0 547.6 131.4;" xml:space="preserve">
<style type="text/css">
	.st0{fill:#000000;}
</style>
<g>
	<path class="st0" d="M146.6,120.5c-1.8,1.6-4.1,1.9-6.9,1.9H137l-2.4,8.5h-5.4l6.3-22h8.1c2.9,0,5.9,0.9,5.9,4.4
		C149.5,115.8,148.5,118.8,146.6,120.5 M141.6,112.5h-1.9l-1.8,6.3h1.8c1.7,0,2.9-0.5,3.7-2c0.4-0.7,0.5-1.6,0.5-2.4
		C144,112.9,142.8,112.5,141.6,112.5"/>
	<polygon class="st0" points="163.1,130.9 157.6,130.9 160.4,121.2 155.7,121.2 152.9,130.9 147.5,130.9 153.8,108.9 159.2,108.9 
		156.8,117.6 161.5,117.6 163.9,108.9 169.4,108.9 	"/>
	<polygon class="st0" points="178.2,123.7 176.1,130.9 170.7,130.9 173,123.3 171.2,108.9 176.8,108.9 177.1,118.7 183.3,108.9 
		188.8,108.9 	"/>
	<path class="st0" d="M202.8,115.2h-5.2c0.2-0.6,0.4-1.2,0.4-1.9c0-0.9-0.8-1.3-1.6-1.3c-1.4,0-2.7,1-2.7,2.6c0,1.5,1.1,2.4,2.6,3.6
		l1.9,1.5c1.4,1,2.4,2.2,2.4,4.2c0,2.2-0.7,3.8-2.3,5.3c-1.7,1.6-3.9,2.3-7,2.3c-2.9,0-6.4-0.6-6.4-4.2c0-1.2,0.2-2.2,0.5-3.3h5.3
		c-0.2,0.8-0.5,1.5-0.5,2.3c0,1.1,0.8,1.6,1.8,1.6c1.7,0,3.1-1.3,3.1-2.9c0-1.3-0.6-2.2-2.2-3.4l-2.3-1.7c-1.5-1.2-2.5-2.7-2.5-4.5
		c0-1.8,0.9-3.5,2.5-4.8c1.9-1.6,4.1-2,6.7-2c2.7,0,6.1,0.9,6.1,4C203.3,113.5,203.1,114.2,202.8,115.2"/>
	<polygon class="st0" points="206.9,130.9 201.4,130.9 207.7,108.9 213.2,108.9 	"/>
	<path class="st0" d="M230.3,116H225c0.2-0.8,0.5-1.6,0.5-2.5c0-1.1-0.7-1.6-1.8-1.6c-2.8,0-3.7,3.7-4.8,7.5
		c-0.5,1.7-1.4,4.7-1.4,6.4c0,1.2,0.5,1.8,1.7,1.8c2.7,0,3.3-2.6,3.8-4.7h5.4c-1.6,5.7-3.2,8.2-9.6,8.2c-3.3,0-6.7-0.9-6.7-4.8
		c0-2.2,0.6-4.2,1.2-6.4c2-7.1,3.3-11.8,11.1-11.8c3,0,6.5,0.8,6.5,4.3C230.8,114,230.6,115,230.3,116"/>
	<path class="st0" d="M245.8,130.9h-5.6l0.2-4.6h-6l-2.4,4.6h-5.5l12.1-22h7.5L245.8,130.9z M236.2,122.8h4.5l0.5-10L236.2,122.8z"
		/>
	<polygon class="st0" points="260.1,130.9 247.9,130.9 254.2,108.9 259.5,108.9 254.3,127.3 261.1,127.3 	"/>
	<polygon class="st0" points="289.2,112.6 284.4,112.6 279.2,130.9 273.8,130.9 279,112.6 274.2,112.6 275.2,108.9 290.2,108.9 	"/>
	<polygon class="st0" points="301.6,130.9 296.2,130.9 299,121.2 294.3,121.2 291.5,130.9 286.1,130.9 292.4,108.9 297.8,108.9 
		295.3,117.6 300.1,117.6 302.5,108.9 307.9,108.9 	"/>
	<polygon class="st0" points="323.9,112.5 316.4,112.5 314.9,117.9 321.5,117.9 320.5,121.4 313.9,121.4 312.2,127.3 319.7,127.3 
		318.7,130.9 305.8,130.9 312,108.9 324.9,108.9 	"/>
	<path class="st0" d="M340.9,117.3c-1.1,1.8-2.3,2.4-4.7,2.9c1.6,0.2,2.7,1.1,2.7,2.9c0,2.3-1,5-1.4,7.9H332
		c0.6-3.1,1.3-5.2,1.3-7.3c0-1.4-1.1-1.6-2.4-1.6h-1.5l-2.5,8.9h-5.4l6.3-22h8.3c2.6,0,5.9,0.6,5.9,4.1
		C342,114.4,341.6,116.3,340.9,117.3 M333.9,112.5h-1.8l-1.7,6.1h1.7c2.3,0,3.5-1,4-3.2c0.1-0.4,0.2-0.8,0.2-1.2
		C336.4,112.8,335.1,112.5,333.9,112.5"/>
	<path class="st0" d="M358.1,130.9h-5.6l0.2-4.6h-6l-2.4,4.6h-5.5l12.1-22h7.5L358.1,130.9z M348.4,122.8h4.5l0.5-10L348.4,122.8z"
		/>
	<path class="st0" d="M377.5,120.5c-1.8,1.6-4.1,1.9-6.9,1.9h-2.7l-2.4,8.5h-5.4l6.3-22h8.1c2.9,0,5.9,0.9,5.9,4.4
		C380.4,115.8,379.4,118.8,377.5,120.5 M372.5,112.5h-1.9l-1.8,6.3h1.8c1.7,0,2.9-0.5,3.7-2c0.4-0.7,0.5-1.6,0.5-2.4
		C374.8,112.9,373.7,112.5,372.5,112.5"/>
	<polygon class="st0" points="388.8,123.7 386.8,130.9 381.4,130.9 383.6,123.3 381.8,108.9 387.4,108.9 387.8,118.7 394,108.9 
		399.5,108.9 	"/>
	<g>
		<path class="st0" d="M70.2,0H44.8L0,84.1h24.2l7.2-14.2h26l0.9,14.2h23L70.2,0z M41.4,49.9l12.7-28.2l2,28.2H41.4z M143.1,34.2
			h-19.5l-10.4,49.9H88.9l10.6-49.9H81.2l4.2-20h61.8L143.1,34.2z M293.6,34.2l-1.9,8.5h27.3l-2.6,12.9h-27.3l-1.7,8.5h27.3l-4,20
			H260l14.1-69.9h50.7l-4,20H293.6z M235.1,64.1h23.5l-4.1,20h-46.5l14.1-69.9h22.9L235.1,64.1z M385.8,34.2h-18.2l-10.2,49.9h-24
			l10.2-49.9h-17.5l4.1-20h59.6L385.8,34.2z M216.4,14.3l-14.2,69.9h-23.3l5.8-28.5h-16.5l-5.8,28.5h-24.1l14.6-69.9h23.7l-5.8,28.5
			h16.5l5.8-28.5H216.4z M419.1,14.3L405,84.1H381l14.1-69.9H419.1z M547.5,42.8l-0.1-1.4c-0.2-2-0.5-3.9-1.1-5.7l-0.5-1.4
			c-0.2-0.7-0.5-1.5-0.8-2.2c-0.5-1.3-1.2-2.4-1.9-3.6l-0.9-1.4c-1.5-2.2-3.2-4.1-5.2-5.7l-1.9-1.4c-10-6.9-24.3-7.5-37.5-0.1
			c-0.1,0-0.1,0.1-0.2,0.1l-2.2,1.4c-2.6,1.7-5.1,3.6-7.3,5.7l-1.3,1.4c-1.7,1.8-3.2,3.7-4.6,5.7l-0.9,1.4c-1.2,1.9-2.1,3.8-3,5.7
			l-0.6,1.4c-0.7,1.9-1.3,3.8-1.8,5.7l-0.3,1.4c-0.4,1.9-0.6,3.8-0.7,5.7l0,1.4c0,1.9,0.1,3.9,0.5,5.7l0.3,1.4c0.4,2,1,3.9,1.8,5.7
			l0.7,1.4c1,2.1,2.3,4,3.7,5.7l1.2,1.4c9.8,10.3,26.6,12.3,41.9,3.8c2-1.1,3.9-2.4,5.7-3.8l1.7-1.4c2.1-1.8,4-3.7,5.6-5.7l1.1-1.4
			c1.4-1.8,2.6-3.8,3.7-5.7l0.7-1.4c0.9-1.9,1.7-3.8,2.4-5.7l0.5-1.4c0.6-1.9,1-3.8,1.2-5.7l0.2-1.4
			C547.6,46.6,547.6,44.7,547.5,42.8 M522.2,48.5l-0.2,1.4c-0.2,2-0.7,3.9-1.4,5.7l-0.6,1.4c-1,2.3-2.5,4.2-4.1,5.7l-1.8,1.4
			c-3.2,1.9-6.4,1.8-9,0l-1.6-1.4c-1.3-1.4-2.4-3.3-3-5.7l-0.3-1.4c-0.4-1.9-0.5-3.8-0.3-5.7l0.2-1.4c0.3-2,0.8-3.9,1.6-5.7l0.6-1.4
			c1.2-2.3,2.8-4.3,4.7-5.7l2.4-1.4c2.2-0.9,4.4-0.9,6.3,0l2.2,1.4c1.5,1.3,2.7,3.3,3.5,5.7l0.4,1.4
			C522.1,44.6,522.3,46.6,522.2,48.5 M453.8,33.9c-3.3,1.1-7.9,3.9-11.2,8.7c-2.6,3.6-3.6,8.5-3.5,12.3c0.2,6.6,5.5,11.6,10.3,12.9
			c6.7,1.8,15.4,0.1,19.5-3.7l-4.1,21.2c-0.6,0.2-2.1,0.7-7.3,1.4c-5.2,0.7-9.9,0.3-14.9-0.8c-5-1-9.7-3.4-13.3-6
			c-3.6-2.6-11.1-9.7-12.1-21.6c-1-11.8,4.8-21.4,9.4-27c4.7-5.6,14.9-13.6,27-16.1c12.1-2.5,21.3,0.5,21.3,0.5
			c1.8,0.5,3.7,1.3,3.7,1.3l-4.4,18.1c-3.6-1.8-7.6-2.7-11-2.6C459.9,32.6,457,32.8,453.8,33.9"/>
	</g>
</g>
</svg>
