<svg id="Layer_1" data-name="Layer 1" xmlns="http://www.w3.org/2000/svg" viewBox="0 0 300.2052 42.5954"><defs><style>.cls-1{fill:#231f20;}.cls-2{fill:#f3bd48;}</style></defs><title>Sentara-logo</title><path class="cls-1" d="M296.2792,12.4779h.432c.491,0,.906-.178.906-.639,0-.327-.237-.654-.906-.654a2.9052,2.9052,0,0,0-.432.03Zm0,2.066h-.594v-3.731a6.7726,6.7726,0,0,1,1.057-.089,1.953,1.953,0,0,1,1.158.283.8868.8868,0,0,1,.342.773.928.928,0,0,1-.728.906v.03c.328.059.55.356.624.907a3.1483,3.1483,0,0,0,.238.921h-.624a2.7636,2.7636,0,0,1-.254-.951.6956.6956,0,0,0-.801-.654h-.418Zm.625-4.771a2.7556,2.7556,0,0,0-2.674,2.824,2.6864,2.6864,0,1,0,5.365.015,2.75,2.75,0,0,0-2.676-2.839Zm.015-.521a3.3216,3.3216,0,1,1-.015,0Z"/><path class="cls-2" d="M56.277,17.7953c-2.054-1.642-5.5-2.852-9.485-3.541-2.877-.541-5.021-1.392-5.531-2.325-.654-1.196,1.751-2.137,5.446-2.486a65.2924,65.2924,0,0,1,21.974,2.099c5.248,1.28,9.483,3.302,11.648,6.089,7.751,9.975-6.702,21.927-33.225,24.549C28.372,44.0323,9.407,39.5923,0,30.7583c22.037,7.844,40.466,4.353,48.186,1.735,6.942-2.354,13.015-7.343,10.129-12.51a7.0366,7.0366,0,0,0-2.038-2.188"/><path class="cls-2" d="M28.7855,18.1043A15.9414,15.9414,0,0,0,35.71,20.69c2.101.395,3.665,1.015,4.038,1.697.478.873-1.278,1.56-3.976,1.815a47.6592,47.6592,0,0,1-16.042-1.533c-3.831-.935-6.922-2.411-8.503-4.446-5.659-7.281,4.893-16.006,24.255-17.92,13.676-1.353,27.52,1.89,34.388,8.338-16.088-5.725-29.542-3.178-35.177-1.267-5.068,1.719-9.502,5.361-7.395,9.133a5.1393,5.1393,0,0,0,1.488,1.597"/><path class="cls-1" d="M107.4844,19.1309c-2.076-1.034-3.868-1.929-3.868-4.111,0-2.323,1.298-3.655,3.562-3.655,2.068,0,3.217,1.924,3.41,3.712l.027.256,1.344-.239-.028-.227a35.5,35.5,0,0,1-.308-4.391v-.212l-.272-.035c-1.065-.137-3.557-.457-4.42-.457-4.297,0-7.074,2.607-7.074,6.64,0,4.159,2.762,5.583,5.199,6.839,2.088,1.077,3.891,2.007,3.891,4.386a3.2826,3.2826,0,0,1-3.563,3.283c-3.509,0-4.354-3.293-4.554-4.709l-.036-.255-1.328.283.021.214c.077.788.17,1.567.263,2.347.093.782.186,1.565.263,2.354l.013.131.117.06a10.9926,10.9926,0,0,0,5.025,1.417c5.336,0,7.724-3.382,7.724-6.734,0-4.2-2.873-5.633-5.408-6.897"/><path class="cls-1" d="M140.948,26.6346l-.06.229c-.868,3.298-2.267,3.592-6.044,3.592-2.19,0-3.532-.085-3.532-1.768v-6.964h3.469c1.89,0,1.982.926,2.166,2.772l.034.334,1.391-.274-.011-.208c-.061-1.146-.092-2.329-.092-3.514,0-1.216.031-2.43.092-3.605l.013-.253h-1.395l-.024.215c-.185,1.661-.577,2.506-2.204,2.506h-3.439v-7.62h4.057c3.037,0,3.38,1.408,3.533,3.396l.022.289,1.399-.374-.014-.198c-.095-1.383-.121-3.405-.061-4.703l.011-.252h-.251c-.998,0-2.246.028-3.56.057-1.471.033-2.992.067-4.356.067-1.4,0-3.013-.037-4.436-.069-1.243-.028-2.394-.055-3.264-.055h-.24v1.41h.674c1.296,0,2.047.248,2.047,1.52v16.204c0,1.272-.751,1.521-2.047,1.521h-.674v1.408h.24c.783,0,1.942-.024,3.233-.051,1.615-.034,3.445-.073,4.992-.073,1.507,0,3.273.037,4.832.07,1.342.028,2.579.054,3.486.054h.203l.034-.2c.239-1.411.562-2.922,1.047-4.9l.058-.233Z"/><path class="cls-1" d="M177.3405,10.235c-.641,0-1.288.031-1.914.062-1.332.065-2.727.056-4.044,0-.71-.031-1.443-.062-2.175-.062h-.241v1.408h.921c.915,0,2.45.347,2.45,2.667V25.402l-13.473-15.167h-.108c-.472,0-.939.032-1.391.062a26.7208,26.7208,0,0,1-3.126,0c-.589-.031-1.197-.062-1.791-.062h-.24v1.408h.644a2.5343,2.5343,0,0,1,2.572,2.543V27.202c0,2.62-.737,3.688-2.544,3.688h-.672v1.408h.24c.701,0,1.419-.032,2.113-.063,1.346-.059,2.742-.062,4.076,0,.656.031,1.335.063,2.006.063h.24V30.89h-.766c-2.143,0-2.666-.663-2.666-3.377V15.402l15.505,17.28.072.08h1.564l-.045-.279a20.0044,20.0044,0,0,1-.182-3.085V15.33c0-3.687,1.511-3.687,2.51-3.687h.705V10.235Z"/><path class="cls-1" d="M208.3468,9.2356l-.018.265c-.045.662-.491.734-1.43.734h-16.032c-.862.025-1.363-.032-1.547-.718l-.048-.179h-1.165v.241a18.1876,18.1876,0,0,1-.184,2.603c-.063.596-.154,1.189-.243,1.762-.044.287-.087.572-.128.858l-.039.274h1.401l.054-.259c.455-2.214.525-2.554,2.625-2.554h4.831v16.271c0,2.262-.713,2.357-2.325,2.357h-.829v1.407h.241c.541,0,1.272-.024,2.083-.052.994-.033,2.119-.072,3.143-.072.899,0,1.964.037,2.904.07.821.028,1.58.054,2.135.054h.24v-1.407h-.827c-1.362,0-2.326-.174-2.326-2.419V12.2626h4.83c1.753,0,1.977,1.414,2.049,2.741l.018.325,1.389-.511V14.65c0-.817,0-1.661.06-2.477.092-.831.218-1.678.339-2.496l.035-.234Z"/><path class="cls-1" d="M228.1541,22.4489h-5.121l2.574-7.832Zm9.265,8.441a1.7242,1.7242,0,0,1-1.821-1.09c-.335-.78-.656-1.727-.967-2.644l-5.86-16.675c-.048-.126-.096-.259-.143-.392-.045-.129-.091-.258-.159-.424a.44.44,0,0,0-.418-.203.7726.7726,0,0,0-.278.058l-.097.042a15.9869,15.9869,0,0,1-2.766,1.305l-.136.047-.023.142a23.8239,23.8239,0,0,1-1.074,3.627l-5.004,14.356a2.5574,2.5574,0,0,1-2.465,1.851h-.425l.003,1.421.254-.014c1.09-.06,2.217-.123,3.321-.123,1.264,0,2.573.066,3.73.124l.252.012V30.89h-.58c-.948,0-2.078-.147-2.078-.843a5.1277,5.1277,0,0,1,.351-1.362c.103-.298.214-.625.318-.978l.937-3.045h6.669l1.153,3.422a10.85,10.85,0,0,1,.604,2.151c0,.608-1.283.655-1.676.655h-.581v1.418l.343-.014c1.571-.062,3.054-.12,4.536-.12s2.892.063,4.256.124l.25.011V30.89Z"/><path class="cls-1" d="M259.8346,16.1028c0,3.255-1.309,4.584-4.521,4.584h-1.276v-8.755c.058-.006.116-.013.176-.02a10.3663,10.3663,0,0,1,1.347-.083,3.9652,3.9652,0,0,1,4.274,4.274m8.401,14.789a3.2332,3.2332,0,0,1-2.828-1.749l-5.124-7.671c2.734-1.157,4.176-3.073,4.176-5.555,0-3.823-2.487-5.682-7.601-5.682-.798,0-1.548.028-2.341.059-.828.031-1.685.064-2.637.064-1.088,0-2.212-.042-3.114-.076-.677-.025-1.26-.047-1.679-.047h-.241v1.408h.8c.825,0,1.954,0,1.954,2.11v15.706c0,1.056-1.052,1.431-1.954,1.431h-.8v1.408h.241c.786,0,1.555-.032,2.299-.063.748-.032,1.456-.061,2.185-.061.877,0,1.779.031,2.65.062.877.03,1.783.062,2.669.062h.241V30.89h-.797c-1.424,0-2.297-.108-2.297-2.232v-6.377h1.661a87.8505,87.8505,0,0,0,6.379,9.922l.073.095h.119c.487,0,.986-.032,1.469-.063a23.9983,23.9983,0,0,1,2.938,0c.498.031,1.011.063,1.53.063h.24v-1.38Z"/><path class="cls-1" d="M287.2057,22.4489h-5.119l2.571-7.833Zm9.267,8.441a1.7179,1.7179,0,0,1-1.82-1.091c-.342-.79-.667-1.749-.98-2.677l-5.85-16.64c-.05-.131-.099-.272-.148-.411-.043-.122-.086-.245-.154-.409a.4449.4449,0,0,0-.418-.2.7682.7682,0,0,0-.275.057l-.101.043a16.022,16.022,0,0,1-2.763,1.305l-.135.047-.023.142a24.5554,24.5554,0,0,1-1.083,3.642l-4.998,14.341a2.5591,2.5591,0,0,1-2.465,1.851h-.425v1.422l.254-.014c1.091-.061,2.218-.124,3.326-.124,1.261,0,2.572.066,3.729.124l.253.012V30.89h-.582c-.948,0-2.078-.147-2.078-.843a5.0763,5.0763,0,0,1,.349-1.348c.103-.302.216-.634.321-.992l.937-3.045h6.667l1.153,3.422a10.706,10.706,0,0,1,.606,2.151c0,.608-1.284.655-1.677.655h-.582v1.418l.34-.014c1.573-.062,3.059-.12,4.54-.12,1.479,0,2.891.063,4.257.124l.25.011V30.89Z"/></svg>