<?xml version="1.0" encoding="UTF-8"?><svg xmlns="http://www.w3.org/2000/svg" viewBox="0 0 379.96 39.62"><defs><style>.cls-1,.cls-2{fill:#0057bf;}.cls-3,.cls-4{fill:#DF1AA0;}.cls-4,.cls-2,.cls-5{mix-blend-mode:multiply;}.cls-5{fill:#00B142;}.cls-6{isolation:isolate;}</style></defs><g class="cls-6"><g id="Layer_1_copy"><g><path class="cls-3" d="M0,7.7v-.04C0,3.49,3.21,0,7.76,0s7.71,3.44,7.71,7.61v.04c0,4.16-3.21,7.65-7.76,7.65S0,11.86,0,7.7Zm12.74,0v-.04c0-2.87-2.09-5.26-5.03-5.26S2.73,4.74,2.73,7.61v.04c0,2.87,2.09,5.26,5.03,5.26s4.99-2.35,4.99-5.22Z"/><path class="cls-3" d="M18.69,.26h6.64c1.69,0,3.02,.46,3.87,1.31,.66,.66,.99,1.46,.99,2.45v.04c0,1.78-1.01,2.73-2.11,3.3,1.73,.59,2.94,1.58,2.94,3.59v.04c0,2.64-2.18,4.06-5.47,4.06h-6.85V.26Zm6.11,6.23c1.67,0,2.79-.66,2.79-2.01v-.04c0-1.16-.93-1.88-2.6-1.88h-3.74v3.93h3.55Zm.76,6.25c1.77,0,2.85-.7,2.85-2.03v-.04c0-1.25-.99-1.99-3.04-1.99h-4.12v4.06h4.31Z"/><path class="cls-3" d="M40.29,.26h2.6V6.41h7.06V.26h2.6V15.05h-2.6v-6.23h-7.06v6.23h-2.6V.26Z"/><path class="cls-3" d="M55.76,7.7v-.04C55.76,3.49,58.97,0,63.51,0s7.71,3.44,7.71,7.61v.04c0,4.16-3.21,7.65-7.76,7.65s-7.71-3.45-7.71-7.61Zm12.74,0v-.04c0-2.87-2.09-5.26-5.03-5.26s-4.99,2.35-4.99,5.22v.04c0,2.87,2.09,5.26,5.03,5.26s4.99-2.35,4.99-5.22Z"/><path class="cls-3" d="M73.15,12.9l1.56-1.86c1.42,1.23,2.83,1.92,4.67,1.92,1.61,0,2.62-.74,2.62-1.86v-.04c0-1.06-.59-1.63-3.34-2.26-3.15-.76-4.92-1.69-4.92-4.42v-.04c0-2.54,2.11-4.29,5.05-4.29,2.16,0,3.87,.66,5.37,1.86l-1.4,1.96c-1.33-.99-2.66-1.52-4.02-1.52-1.52,0-2.41,.78-2.41,1.75v.04c0,1.14,.68,1.65,3.51,2.33,3.13,.76,4.76,1.88,4.76,4.33v.04c0,2.77-2.18,4.42-5.28,4.42-2.26,0-4.4-.78-6.17-2.37Z"/><path class="cls-3" d="M87.72,.26h5.83c3.44,0,5.62,1.96,5.62,4.94v.04c0,3.32-2.66,5.05-5.92,5.05h-2.94v4.75h-2.6V.26Zm5.62,7.69c1.97,0,3.19-1.1,3.19-2.64v-.04c0-1.73-1.25-2.64-3.19-2.64h-3.02V7.95h3.02Z"/><path class="cls-3" d="M101.91,.26h2.6V15.05h-2.6V.26Z"/><path class="cls-3" d="M111.78,2.67h-4.69V.26h12V2.67h-4.69V15.05h-2.62V2.67Z"/><path class="cls-3" d="M125.11,.15h2.41l6.51,14.9h-2.75l-1.5-3.57h-7l-1.52,3.57h-2.66L125.11,.15Zm3.72,9.02l-2.56-5.92-2.54,5.92h5.09Z"/><path class="cls-3" d="M136.47,.26h2.6V12.68h7.78v2.37h-10.38V.26Z"/><path class="cls-3" d="M149.44,.26h2.6V15.05h-2.6V.26Z"/><path class="cls-3" d="M154.97,12.9l1.56-1.86c1.42,1.23,2.83,1.92,4.67,1.92,1.61,0,2.62-.74,2.62-1.86v-.04c0-1.06-.59-1.63-3.34-2.26-3.15-.76-4.92-1.69-4.92-4.42v-.04c0-2.54,2.11-4.29,5.05-4.29,2.16,0,3.87,.66,5.37,1.86l-1.4,1.96c-1.33-.99-2.66-1.52-4.02-1.52-1.52,0-2.41,.78-2.41,1.75v.04c0,1.14,.68,1.65,3.51,2.33,3.13,.76,4.76,1.88,4.76,4.33v.04c0,2.77-2.18,4.42-5.28,4.42-2.26,0-4.4-.78-6.17-2.37Z"/><path class="cls-3" d="M173.05,2.67h-4.69V.26h12V2.67h-4.69V15.05h-2.62V2.67Z"/><path class="cls-3" d="M181.98,12.9l1.56-1.86c1.42,1.23,2.83,1.92,4.67,1.92,1.61,0,2.62-.74,2.62-1.86v-.04c0-1.06-.59-1.63-3.34-2.26-3.15-.76-4.92-1.69-4.92-4.42v-.04c0-2.54,2.11-4.29,5.05-4.29,2.16,0,3.87,.66,5.37,1.86l-1.39,1.96c-1.33-.99-2.66-1.52-4.02-1.52-1.52,0-2.41,.78-2.41,1.75v.04c0,1.14,.68,1.65,3.51,2.33,3.13,.76,4.76,1.88,4.76,4.33v.04c0,2.77-2.18,4.42-5.28,4.42-2.26,0-4.4-.78-6.17-2.37Z"/><path class="cls-3" d="M59.94,32.01v-.04c0-4.16,3.21-7.65,7.76-7.65s7.71,3.44,7.71,7.61v.04c0,4.16-3.21,7.65-7.76,7.65s-7.71-3.45-7.71-7.61Zm12.74,0v-.04c0-2.87-2.09-5.26-5.03-5.26s-4.99,2.35-4.99,5.22v.04c0,2.87,2.09,5.26,5.03,5.26s4.99-2.35,4.99-5.22Z"/><path class="cls-3" d="M78.63,24.57h11.01v2.37h-8.41v4.04h7.46v2.37h-7.46v6.02h-2.6v-14.79Z"/><path class="cls-3" d="M104.08,24.46h2.41l6.51,14.9h-2.75l-1.5-3.57h-7l-1.52,3.57h-2.66l6.51-14.9Zm3.72,9.02l-2.56-5.92-2.54,5.92h5.09Z"/><path class="cls-3" d="M114.51,33.09v-8.52h2.6v8.41c0,2.75,1.42,4.23,3.74,4.23s3.72-1.4,3.72-4.12v-8.52h2.6v8.39c0,4.42-2.49,6.64-6.36,6.64s-6.3-2.22-6.3-6.51Z"/><path class="cls-3" d="M130.96,24.57h6.59c1.86,0,3.32,.55,4.27,1.48,.78,.8,1.23,1.9,1.23,3.19v.04c0,2.43-1.46,3.89-3.53,4.48l3.99,5.6h-3.06l-3.64-5.16h-3.25v5.16h-2.6v-14.79Zm6.4,7.33c1.86,0,3.04-.97,3.04-2.47v-.04c0-1.58-1.14-2.45-3.06-2.45h-3.78v4.97h3.8Z"/><path class="cls-3" d="M145.39,32.01v-.04c0-4.16,3.21-7.65,7.76-7.65s7.71,3.44,7.71,7.61v.04c0,4.16-3.21,7.65-7.76,7.65s-7.71-3.45-7.71-7.61Zm12.74,0v-.04c0-2.87-2.09-5.26-5.03-5.26s-4.99,2.35-4.99,5.22v.04c0,2.87,2.09,5.26,5.03,5.26s4.99-2.35,4.99-5.22Z"/><path class="cls-3" d="M164.08,24.57h6.59c1.86,0,3.32,.55,4.27,1.48,.78,.8,1.23,1.9,1.23,3.19v.04c0,2.43-1.46,3.89-3.53,4.48l3.99,5.6h-3.06l-3.64-5.16h-3.25v5.16h-2.6v-14.79Zm6.4,7.33c1.86,0,3.04-.97,3.04-2.47v-.04c0-1.58-1.14-2.45-3.06-2.45h-3.78v4.97h3.8Z"/><path class="cls-3" d="M185.04,24.46h2.41l6.51,14.9h-2.75l-1.5-3.57h-7l-1.52,3.57h-2.66l6.51-14.9Zm3.72,9.02l-2.56-5.92-2.54,5.92h5.09Z"/><path class="cls-2" d="M239.99,32.36c-5.42,0-9.83-4.41-9.83-9.83s4.41-9.83,9.83-9.83,9.83,4.41,9.83,9.83-4.41,9.83-9.83,9.83Zm0-17.6c-4.28,0-7.77,3.48-7.77,7.76s3.48,7.76,7.77,7.76,7.76-3.48,7.76-7.76-3.48-7.76-7.76-7.76Z"/><path class="cls-4" d="M244.46,26.11c-5.42,0-9.83-4.41-9.83-9.83s4.41-9.83,9.83-9.83,9.83,4.41,9.83,9.83-4.41,9.83-9.83,9.83Zm0-17.6c-4.28,0-7.77,3.48-7.77,7.77s3.48,7.77,7.77,7.77,7.77-3.48,7.77-7.77-3.48-7.77-7.77-7.77Z"/><path class="cls-5" d="M248.92,32.36c-5.42,0-9.83-4.41-9.83-9.83s4.41-9.83,9.83-9.83,9.83,4.41,9.83,9.83-4.41,9.83-9.83,9.83Zm0-17.6c-4.28,0-7.77,3.48-7.77,7.77s3.48,7.77,7.77,7.77,7.77-3.48,7.77-7.77-3.48-7.77-7.77-7.77Z"/><path class="cls-1" d="M314.12,7.56c-1.39,0-2.41,.97-2.41,2.46,0,1.36,1.02,2.38,2.43,2.38s2.41-.97,2.41-2.46c0-1.36-1.02-2.38-2.43-2.38Z"/><path class="cls-1" d="M274.17,13.78c-1.44,0-2.9,.52-4.05,1.46l-.24-1.18h-3.53v18.59h3.79v-6.67c.99,1.05,2.3,1.52,3.66,1.52,3.03,0,6.2-2.48,6.2-6.9,0-4.71-2.88-6.82-5.83-6.82Zm-1.12,10.22c-2.04,0-2.9-1.73-2.9-3.43s.78-3.24,2.85-3.24c1.93,0,3.16,1.41,3.16,3.53,0,1.96-1.25,3.14-3.11,3.14Z"/><rect class="cls-1" x="312.37" y="14.07" width="3.77" height="13.07"/><path class="cls-1" d="M288,13.68c-4.16,0-6.9,2.75-6.9,7.06s2.8,6.93,6.98,6.93c2.27,0,5.02-.89,6.14-3.27l-2.67-1.67c-.78,1.52-2.72,1.54-3.5,1.54-1.52,0-2.75-1.05-3.19-2.54h9.62s.34-.76,.34-1.75c0-3.69-3.03-6.3-6.82-6.3Zm-3.03,5.36c.52-1.18,1.67-1.96,3.03-1.96,1.91,0,2.88,.71,3.24,1.96h-6.28Z"/><path class="cls-1" d="M305.77,15.27c-1.15-.97-2.64-1.49-4.08-1.49-2.95,0-5.83,2.12-5.83,6.82,0,4.42,3.16,6.9,6.2,6.9,1.36,0,2.69-.5,3.71-1.54l.21,1.18h3.53V9.76h-3.74v5.52Zm-2.95,8.73c-1.86,0-3.11-1.18-3.11-3.14,0-2.12,1.23-3.53,3.16-3.53,2.07,0,2.85,1.6,2.85,3.24s-.86,3.43-2.9,3.43Z"/><path class="cls-1" d="M339.11,21.55v-3.79h2.09v-3.69h-2.07v-4.31h-3.79v4.31h-1.83v3.69h1.83v3.95c0,3.79,1.44,5.6,4.47,5.6,.6,0,1.7-.05,2.27-.16v-3.69c-.29,.05-1.12,.1-1.54,.1-1.1,0-1.44-.47-1.44-2.01Z"/><path class="cls-1" d="M379.35,29.84c0-.22-.18-.37-.46-.37h-.54v1.2h.23v-.43h.25l.33,.43h.28l-.36-.47c.18-.05,.28-.18,.28-.36Zm-.48,.19h-.3v-.35h.31c.15,0,.23,.06,.23,.17s-.09,.18-.24,.18Z"/><path class="cls-1" d="M379.63,25.39c.1-.18,.18-.36,.25-.6,.09-.31,.16-.79-.2-.96-.22-.09-.39,.01-.54,.16-4.29,5.93-6.94,3.32-9.15-2.23l5.62-7.67h-4.46l-2.9,4.13-1.83-4.13h-4.69l3.32,6.72-5.1,6.35h4.92l2-2.71c.49,.97,1.06,1.9,1.7,2.78,.66,.91,1.57,1.98,2.66,2.39,2.08,.77,4.27,.13,5.95-1.22,.76-.61,1.41-1.34,1.95-2.14,.22-.32,.43-.72,.49-.85Z"/><path class="cls-1" d="M378.81,28.95c-.63,0-1.15,.51-1.15,1.15s.51,1.14,1.14,1.14,1.15-.51,1.15-1.15-.51-1.14-1.14-1.14Zm0,2.09c-.53,0-.94-.41-.94-.94s.41-.95,.94-.95,.94,.41,.94,.94-.41,.95-.94,.95Z"/><rect class="cls-1" x="354.5" y="14.07" width="3.77" height="13.07"/><path class="cls-1" d="M356.25,7.56c-1.39,0-2.41,.97-2.41,2.46,0,1.36,1.02,2.38,2.43,2.38s2.41-.97,2.41-2.46c0-1.36-1.02-2.38-2.43-2.38Z"/><path class="cls-1" d="M347.66,16.68l-.03-2.61h-3.51v13.1h3.77v-6.31c0-1.65,2.75-2.93,4.86-2.93v-3.84c-1.57,0-4,1.26-5.1,2.59Z"/><path class="cls-1" d="M327.91,15.25c-1.15-.94-2.61-1.46-4.03-1.46-2.95,0-5.83,2.12-5.83,6.82,0,4.42,3.16,6.9,6.2,6.9,1.33,0,2.67-.5,3.69-1.52l.24,1.15h3.53V14.07h-3.53l-.26,1.18Zm-2.9,8.76c-1.86,0-3.11-1.18-3.11-3.14,0-2.12,1.23-3.53,3.16-3.53,2.07,0,2.85,1.6,2.85,3.24s-.86,3.43-2.9,3.43Z"/><rect class="cls-1" x="210.82" width="2.5" height="39.5"/></g></g></g></svg>