<?xml version="1.0" encoding="UTF-8"?><svg xmlns="http://www.w3.org/2000/svg" viewBox="0 0 526.66 44.08"><defs><style>.cls-1,.cls-2{fill:#0057bf;}.cls-3,.cls-4{fill:#00B142;}.cls-5{fill:#DF1AA0;}.cls-5,.cls-2,.cls-4{mix-blend-mode:multiply;}.cls-6{isolation:isolate;}</style></defs><g class="cls-6"><g id="Layer_1_copy"><g><path class="cls-2" d="M16.72,44.08C7.5,44.08,0,36.57,0,27.35S7.5,10.63,16.72,10.63s16.72,7.5,16.72,16.72-7.5,16.72-16.72,16.72Zm0-29.93c-7.28,0-13.21,5.93-13.21,13.21s5.93,13.21,13.21,13.21,13.21-5.93,13.21-13.21-5.93-13.21-13.21-13.21Z"/><path class="cls-5" d="M24.33,33.45c-9.22,0-16.72-7.5-16.72-16.72S15.1,0,24.33,0s16.72,7.5,16.72,16.72-7.5,16.72-16.72,16.72Zm0-29.93c-7.28,0-13.21,5.93-13.21,13.21s5.93,13.21,13.21,13.21,13.21-5.93,13.21-13.21S31.61,3.51,24.32,3.51Z"/><path class="cls-4" d="M31.93,44.08c-9.22,0-16.72-7.5-16.72-16.72S22.71,10.63,31.93,10.63s16.72,7.5,16.72,16.72-7.5,16.72-16.72,16.72Zm0-29.93c-7.28,0-13.21,5.93-13.21,13.21s5.93,13.21,13.21,13.21,13.21-5.93,13.21-13.21-5.93-13.21-13.21-13.21Z"/><path class="cls-1" d="M136.11,2.14c-2.28,0-3.97,1.59-3.97,4.05,0,2.24,1.68,3.92,4.01,3.92s3.97-1.59,3.97-4.05c0-2.24-1.68-3.92-4.01-3.92Z"/><path class="cls-1" d="M70.23,12.4c-2.37,0-4.78,.86-6.68,2.41l-.39-1.94h-5.82v30.65h6.25v-10.99c1.64,1.72,3.79,2.5,6.03,2.5,5,0,10.22-4.1,10.22-11.38,0-7.76-4.74-11.25-9.61-11.25Zm-1.85,16.85c-3.36,0-4.78-2.84-4.78-5.65s1.29-5.35,4.7-5.35c3.19,0,5.22,2.33,5.22,5.82,0,3.23-2.07,5.17-5.13,5.17Z"/><rect class="cls-1" x="133.22" y="12.87" width="6.21" height="21.55"/><path class="cls-1" d="M93.04,12.23c-6.85,0-11.38,4.53-11.38,11.64s4.61,11.42,11.51,11.42c3.75,0,8.28-1.47,10.13-5.39l-4.4-2.76c-1.29,2.5-4.48,2.54-5.78,2.54-2.5,0-4.53-1.72-5.26-4.18h15.86s.56-1.25,.56-2.89c0-6.08-5-10.39-11.25-10.39Zm-5,8.84c.86-1.94,2.76-3.23,5-3.23,3.15,0,4.74,1.16,5.35,3.23h-10.35Z"/><path class="cls-1" d="M122.33,14.86c-1.9-1.59-4.35-2.46-6.73-2.46-4.87,0-9.61,3.49-9.61,11.25,0,7.29,5.22,11.38,10.22,11.38,2.24,0,4.44-.82,6.12-2.54l.34,1.94h5.82V5.76h-6.16V14.86Zm-4.87,14.4c-3.06,0-5.13-1.94-5.13-5.17,0-3.49,2.03-5.82,5.22-5.82,3.41,0,4.7,2.63,4.7,5.35s-1.42,5.65-4.78,5.65Z"/><path class="cls-1" d="M177.3,25.2v-6.25h3.45v-6.08h-3.41V5.76h-6.25v7.11h-3.02v6.08h3.02v6.51c0,6.25,2.37,9.23,7.37,9.23,.99,0,2.8-.09,3.75-.26v-6.08c-.47,.09-1.85,.17-2.54,.17-1.81,0-2.37-.78-2.37-3.32Z"/><path class="cls-1" d="M243.64,38.87c0-.37-.3-.62-.76-.62h-.89v1.98h.38v-.71h.41l.54,.71h.47l-.6-.78c.29-.09,.45-.3,.45-.59Zm-.78,.31h-.49v-.57h.51c.24,0,.38,.1,.38,.28s-.15,.29-.4,.29Z"/><path class="cls-1" d="M244.11,31.53c.16-.3,.3-.6,.42-1,.16-.52,.26-1.31-.32-1.59-.36-.14-.65,.02-.89,.26-7.06,9.78-11.45,5.47-15.09-3.68l9.27-12.64h-7.35l-4.78,6.8-3.02-6.8h-7.73l5.48,11.08-8.41,10.46h8.11l3.3-4.47c.81,1.59,1.75,3.13,2.8,4.58,1.09,1.51,2.58,3.27,4.39,3.93,3.42,1.26,7.04,.22,9.81-2.01,1.25-1,2.32-2.21,3.21-3.53,.36-.53,.7-1.19,.81-1.4Z"/><path class="cls-1" d="M242.77,37.41c-1.04,0-1.89,.85-1.89,1.89s.84,1.88,1.88,1.88,1.89-.85,1.89-1.89-.84-1.88-1.88-1.88Zm0,3.45c-.87,0-1.55-.68-1.55-1.56s.68-1.57,1.56-1.57,1.55,.68,1.55,1.56-.68,1.57-1.56,1.57Z"/><rect class="cls-1" x="202.67" y="12.87" width="6.21" height="21.55"/><path class="cls-1" d="M205.56,2.14c-2.28,0-3.97,1.6-3.97,4.05,0,2.24,1.68,3.92,4.01,3.92s3.97-1.6,3.97-4.05c0-2.24-1.68-3.92-4.01-3.92Z"/><path class="cls-1" d="M191.41,17.18l-.05-4.3h-5.78v21.61h6.22v-10.41c0-2.72,4.53-4.83,8.02-4.83v-6.34c-2.59,0-6.6,2.07-8.41,4.27Z"/><path class="cls-1" d="M158.84,14.81c-1.9-1.55-4.31-2.41-6.64-2.41-4.87,0-9.61,3.49-9.61,11.25,0,7.29,5.22,11.38,10.22,11.38,2.2,0,4.4-.82,6.08-2.5l.39,1.9h5.82V12.87h-5.82l-.43,1.94Zm-4.78,14.44c-3.06,0-5.13-1.94-5.13-5.17,0-3.49,2.03-5.82,5.22-5.82,3.41,0,4.7,2.63,4.7,5.35s-1.42,5.65-4.78,5.65Z"/><rect class="cls-1" x="261.98" y="2.42" width="2.5" height="39.35"/><path class="cls-3" d="M297.38,29.46h-2.75l-1.5-3.57h-7l-1.52,3.57h-2.66l6.51-14.9h2.41l6.51,14.9Zm-7.76-11.79l-2.54,5.92h5.09l-2.56-5.92Z"/><path class="cls-3" d="M311.57,23.05c0,1.1-.15,2.06-.46,2.9-.3,.83-.73,1.53-1.28,2.08-.55,.56-1.21,.97-2,1.25-.78,.27-1.66,.41-2.63,.41s-1.82-.14-2.6-.41-1.44-.69-1.99-1.24c-.55-.55-.97-1.23-1.27-2.04s-.44-1.75-.44-2.82V14.66h2.58v8.41c0,1.38,.33,2.43,1,3.15s1.59,1.08,2.76,1.08,2.08-.34,2.74-1.04,1-1.72,1-3.09V14.66h2.58v8.39Z"/><path class="cls-3" d="M317.46,19.29c.1,.21,.28,.41,.54,.59,.26,.18,.62,.35,1.08,.51,.46,.16,1.04,.32,1.75,.49,.78,.2,1.47,.42,2.07,.66,.6,.24,1.1,.53,1.49,.88,.4,.35,.7,.75,.9,1.21,.21,.46,.31,1,.31,1.62,0,.71-.13,1.33-.39,1.88-.26,.55-.62,1.01-1.08,1.4s-1.01,.67-1.66,.87c-.65,.2-1.36,.3-2.13,.3-1.14,0-2.23-.19-3.28-.58-1.04-.39-2.01-.98-2.9-1.79l1.56-1.86c.72,.62,1.44,1.1,2.18,1.43,.73,.33,1.56,.5,2.49,.5,.8,0,1.44-.17,1.91-.51,.47-.34,.71-.8,.71-1.37,0-.27-.05-.51-.14-.72-.09-.21-.26-.41-.51-.58-.25-.18-.59-.34-1.02-.5s-.99-.32-1.68-.49c-.79-.18-1.49-.39-2.11-.61-.62-.22-1.13-.51-1.55-.84-.42-.34-.74-.75-.95-1.23-.22-.48-.33-1.06-.33-1.75,0-.65,.12-1.24,.38-1.77s.6-.98,1.04-1.36c.44-.38,.97-.67,1.59-.88,.62-.2,1.29-.31,2.03-.31,1.08,0,2.06,.16,2.93,.48,.87,.32,1.68,.78,2.44,1.38l-1.39,1.97c-.68-.49-1.35-.87-2.01-1.13s-1.33-.39-2.01-.39c-.76,0-1.35,.17-1.78,.52-.42,.34-.63,.76-.63,1.26,0,.3,.05,.55,.15,.76Z"/><path class="cls-3" d="M334.86,29.46h-2.62v-12.39h-4.69v-2.41h12.01v2.41h-4.69v12.39Z"/><path class="cls-3" d="M344.75,14.66v14.8h-2.58V14.66h2.58Z"/><path class="cls-3" d="M359.12,14.66h2.58v14.8h-2.17l-8.14-10.53v10.53h-2.58V14.66h2.41l7.91,10.23V14.66Z"/><path class="cls-3" d="M365.77,14.66h2.94v.11l-2.07,6.21h-1.35l.49-6.32Z"/><path class="cls-3" d="M374.02,19.29c.1,.21,.28,.41,.54,.59,.26,.18,.62,.35,1.08,.51,.46,.16,1.04,.32,1.75,.49,.78,.2,1.47,.42,2.07,.66,.6,.24,1.1,.53,1.49,.88,.4,.35,.7,.75,.9,1.21,.21,.46,.31,1,.31,1.62,0,.71-.13,1.33-.39,1.88-.26,.55-.62,1.01-1.08,1.4s-1.01,.67-1.66,.87c-.65,.2-1.36,.3-2.13,.3-1.14,0-2.23-.19-3.28-.58-1.04-.39-2.01-.98-2.9-1.79l1.56-1.86c.72,.62,1.44,1.1,2.18,1.43,.73,.33,1.56,.5,2.49,.5,.8,0,1.44-.17,1.91-.51,.47-.34,.71-.8,.71-1.37,0-.27-.05-.51-.14-.72-.09-.21-.26-.41-.51-.58-.25-.18-.59-.34-1.02-.5s-.99-.32-1.68-.49c-.79-.18-1.49-.39-2.11-.61-.62-.22-1.13-.51-1.55-.84-.42-.34-.74-.75-.95-1.23-.22-.48-.33-1.06-.33-1.75,0-.65,.12-1.24,.38-1.77s.6-.98,1.04-1.36c.44-.38,.97-.67,1.59-.88,.62-.2,1.29-.31,2.03-.31,1.08,0,2.06,.16,2.93,.48,.87,.32,1.68,.78,2.44,1.38l-1.39,1.97c-.68-.49-1.35-.87-2.01-1.13s-1.33-.39-2.01-.39c-.76,0-1.35,.17-1.78,.52-.42,.34-.63,.76-.63,1.26,0,.3,.05,.55,.15,.76Z"/><path class="cls-3" d="M402.56,17.01h-8.41v4.08h7.46v2.35h-7.46v6.02h-2.58V14.66h10.99v2.35Z"/><path class="cls-3" d="M407.93,14.66v14.8h-2.58V14.66h2.58Z"/><path class="cls-3" d="M421.47,29.46l-3.65-5.16h-3.26v5.16h-2.58V14.66h6.59c.85,0,1.61,.11,2.29,.33s1.26,.53,1.73,.93c.47,.4,.83,.9,1.09,1.48,.25,.58,.38,1.24,.38,1.96,0,.62-.09,1.17-.26,1.66-.18,.49-.42,.92-.73,1.29-.31,.37-.68,.69-1.11,.95s-.91,.46-1.43,.6l4,5.6h-3.06Zm-.85-11.82c-.54-.42-1.29-.63-2.27-.63h-3.79v4.99h3.82c.93,0,1.67-.23,2.23-.68,.55-.45,.83-1.06,.83-1.83,0-.82-.27-1.44-.81-1.86Z"/><path class="cls-3" d="M429.55,19.29c.1,.21,.28,.41,.54,.59,.26,.18,.62,.35,1.08,.51,.46,.16,1.04,.32,1.75,.49,.78,.2,1.47,.42,2.07,.66,.6,.24,1.1,.53,1.49,.88,.4,.35,.7,.75,.9,1.21,.21,.46,.31,1,.31,1.62,0,.71-.13,1.33-.39,1.88-.26,.55-.62,1.01-1.08,1.4s-1.01,.67-1.66,.87c-.65,.2-1.36,.3-2.13,.3-1.14,0-2.23-.19-3.28-.58-1.04-.39-2.01-.98-2.9-1.79l1.56-1.86c.72,.62,1.44,1.1,2.18,1.43,.73,.33,1.56,.5,2.49,.5,.8,0,1.44-.17,1.91-.51,.47-.34,.71-.8,.71-1.37,0-.27-.05-.51-.14-.72-.09-.21-.26-.41-.51-.58-.25-.18-.59-.34-1.02-.5-.43-.16-.99-.32-1.68-.49-.79-.18-1.49-.39-2.11-.61-.62-.22-1.13-.51-1.55-.84-.42-.34-.74-.75-.95-1.23-.22-.48-.33-1.06-.33-1.75,0-.65,.12-1.24,.38-1.77s.6-.98,1.04-1.36c.44-.38,.97-.67,1.59-.88,.62-.2,1.29-.31,2.03-.31,1.08,0,2.06,.16,2.93,.48,.87,.32,1.68,.78,2.44,1.38l-1.39,1.97c-.68-.49-1.35-.87-2.01-1.13s-1.33-.39-2.01-.39c-.76,0-1.35,.17-1.78,.52-.42,.34-.63,.76-.63,1.26,0,.3,.05,.55,.15,.76Z"/><path class="cls-3" d="M446.95,29.46h-2.62v-12.39h-4.69v-2.41h12.01v2.41h-4.69v12.39Z"/><path class="cls-3" d="M463.05,19.29c.1,.21,.28,.41,.54,.59,.26,.18,.62,.35,1.08,.51,.46,.16,1.04,.32,1.75,.49,.78,.2,1.47,.42,2.07,.66,.6,.24,1.1,.53,1.49,.88,.4,.35,.7,.75,.9,1.21,.21,.46,.31,1,.31,1.62,0,.71-.13,1.33-.39,1.88-.26,.55-.62,1.01-1.08,1.4s-1.01,.67-1.66,.87c-.65,.2-1.36,.3-2.13,.3-1.14,0-2.23-.19-3.28-.58-1.04-.39-2.01-.98-2.9-1.79l1.56-1.86c.72,.62,1.44,1.1,2.18,1.43,.73,.33,1.56,.5,2.49,.5,.8,0,1.44-.17,1.91-.51,.47-.34,.71-.8,.71-1.37,0-.27-.05-.51-.14-.72-.09-.21-.26-.41-.51-.58-.25-.18-.59-.34-1.02-.5s-.99-.32-1.68-.49c-.79-.18-1.49-.39-2.11-.61-.62-.22-1.13-.51-1.55-.84-.42-.34-.74-.75-.95-1.23-.22-.48-.33-1.06-.33-1.75,0-.65,.12-1.24,.38-1.77s.6-.98,1.04-1.36c.44-.38,.97-.67,1.59-.88,.62-.2,1.29-.31,2.03-.31,1.08,0,2.06,.16,2.93,.48,.87,.32,1.68,.78,2.44,1.38l-1.39,1.97c-.68-.49-1.35-.87-2.01-1.13s-1.33-.39-2.01-.39c-.76,0-1.35,.17-1.78,.52-.42,.34-.63,.76-.63,1.26,0,.3,.05,.55,.15,.76Z"/><path class="cls-3" d="M480.45,29.46h-2.62v-12.39h-4.69v-2.41h12.01v2.41h-4.69v12.39Z"/><path class="cls-3" d="M498.64,17.01h-8.37v3.8h7.42v2.35h-7.42v3.95h8.48v2.35h-11.05V14.66h10.95v2.35Z"/><path class="cls-3" d="M513.02,21.83c-.31,.63-.73,1.16-1.27,1.59-.54,.42-1.17,.74-1.88,.96-.72,.22-1.49,.33-2.31,.33h-2.94v4.76h-2.58V14.66h5.83c.86,0,1.64,.12,2.34,.35s1.29,.57,1.78,1,.86,.96,1.12,1.56c.26,.61,.39,1.29,.39,2.05,0,.83-.16,1.56-.47,2.2Zm-3.04-4.15c-.58-.45-1.36-.67-2.33-.67h-3.03v5.35h3.03c.99,0,1.77-.24,2.34-.73,.57-.49,.86-1.13,.86-1.94,0-.89-.29-1.56-.87-2Z"/><path class="cls-3" d="M518.52,19.29c.1,.21,.28,.41,.54,.59,.26,.18,.62,.35,1.08,.51,.46,.16,1.04,.32,1.75,.49,.78,.2,1.47,.42,2.07,.66,.6,.24,1.1,.53,1.49,.88,.4,.35,.7,.75,.9,1.21,.21,.46,.31,1,.31,1.62,0,.71-.13,1.33-.39,1.88-.26,.55-.62,1.01-1.08,1.4s-1.01,.67-1.66,.87c-.65,.2-1.36,.3-2.13,.3-1.14,0-2.23-.19-3.28-.58-1.04-.39-2.01-.98-2.9-1.79l1.56-1.86c.72,.62,1.44,1.1,2.18,1.43,.73,.33,1.56,.5,2.49,.5,.8,0,1.44-.17,1.91-.51,.47-.34,.71-.8,.71-1.37,0-.27-.05-.51-.14-.72-.09-.21-.26-.41-.51-.58-.25-.18-.59-.34-1.02-.5s-.99-.32-1.68-.49c-.79-.18-1.49-.39-2.11-.61-.62-.22-1.13-.51-1.55-.84-.42-.34-.74-.75-.95-1.23-.22-.48-.33-1.06-.33-1.75,0-.65,.12-1.24,.38-1.77s.6-.98,1.04-1.36c.44-.38,.97-.67,1.59-.88,.62-.2,1.29-.31,2.03-.31,1.08,0,2.06,.16,2.93,.48,.87,.32,1.68,.78,2.44,1.38l-1.39,1.97c-.68-.49-1.35-.87-2.01-1.13s-1.33-.39-2.01-.39c-.76,0-1.35,.17-1.78,.52-.42,.34-.63,.76-.63,1.26,0,.3,.05,.55,.15,.76Z"/></g></g></g></svg>