<?xml version="1.0" encoding="utf-8"?>
<!-- Generator: Adobe Illustrator 16.0.0, SVG Export Plug-In . SVG Version: 6.00 Build 0)  -->
<!DOCTYPE svg PUBLIC "-//W3C//DTD SVG 1.1//EN" "http://www.w3.org/Graphics/SVG/1.1/DTD/svg11.dtd">
<svg version="1.1" id="art" xmlns="http://www.w3.org/2000/svg" xmlns:xlink="http://www.w3.org/1999/xlink" x="0px" y="0px" viewBox="0 351.862 613.033 88.275" enable-background="new 0 351.862 613.033 88.275"
	 xml:space="preserve">
<g>
	<path fill="#F66800" d="M98.682,430.249h-1.701v-13.312h-4.988v-1.552h11.682v1.552h-4.992L98.682,430.249L98.682,430.249z
		 M112.751,423.562v6.687h-1.678v-14.864h1.678v6.605h8.577v-6.605h1.678v14.864h-1.678v-6.687H112.751L112.751,423.562z
		 M142.22,416.916h-9.068v5.077h8.108v1.531h-8.108v5.197h9.174v1.528H131.47v-14.864h10.75V416.916L142.22,416.916z
		 M162.26,423.562v6.687h-1.682v-14.864h1.682v6.605h8.579v-6.605h1.678v14.864h-1.678v-6.687H162.26L162.26,423.562z
		 M191.723,416.916h-9.069v5.077h8.117v1.531h-8.117v5.197h9.175v1.528h-10.85v-14.864h10.744V416.916z M213.306,430.249h-1.805
		l-1.741-3.928h-8.089l-1.762,3.928h-1.72l6.768-14.969h1.571L213.306,430.249z M205.729,417.235l-3.402,7.577h6.776
		L205.729,417.235z M230.733,430.249l-4.313-5.772h-4.242v5.772h-1.684v-14.864h6.396c3.268,0,5.374,1.765,5.374,4.44
		c0,2.484-1.701,3.93-4.038,4.354l4.568,6.069L230.733,430.249L230.733,430.249z M226.763,416.938h-4.585v6.032h4.562
		c2.231,0,3.824-1.146,3.824-3.08C230.563,418.04,229.162,416.938,226.763,416.938z M245.581,430.249h-1.701v-13.312h-4.988v-1.552
		h11.684v1.552h-4.995V430.249z M275.497,430.506c-4.521,0-7.559-3.546-7.559-7.665c0-4.12,3.075-7.711,7.601-7.711
		c4.528,0,7.559,3.548,7.559,7.671C283.098,426.917,280.019,430.506,275.497,430.506z M275.497,416.68
		c-3.399,0-5.815,2.721-5.815,6.121c0,3.396,2.462,6.157,5.857,6.157c3.4,0,5.82-2.72,5.82-6.119
		C281.359,419.44,278.897,416.68,275.497,416.68z M301.59,416.938h-9.003v5.31h8.044v1.527h-8.044v6.477h-1.682v-14.864h10.685
		V416.938z M326.508,430.506c-4.287,0-7.451-3.374-7.451-7.665c0-4.25,3.145-7.711,7.518-7.711c2.699,0,4.312,0.959,5.794,2.358
		l-1.146,1.229c-1.253-1.188-2.652-2.039-4.665-2.039c-3.299,0-5.759,2.656-5.759,6.121c0,3.457,2.486,6.157,5.759,6.157
		c2.035,0,3.376-0.787,4.795-2.148l1.104,1.083C330.908,429.465,329.211,430.506,326.508,430.506z M346.125,430.506
		c-4.521,0-7.559-3.546-7.559-7.665c0-4.12,3.074-7.711,7.599-7.711c4.521,0,7.561,3.548,7.561,7.671
		C353.726,426.917,350.646,430.506,346.125,430.506z M346.125,416.68c-3.399,0-5.821,2.721-5.821,6.121
		c0,3.396,2.462,6.157,5.861,6.157c3.4,0,5.822-2.72,5.822-6.119C351.987,419.44,349.519,416.68,346.125,416.68z M368.665,426.175
		h-0.085l-5.414-7.943v12.019h-1.636v-14.864h1.699l5.413,8.111l5.42-8.111h1.695v14.864h-1.677v-12.04L368.665,426.175z
		 M391.354,426.175h-0.079l-5.419-7.943v12.019h-1.636v-14.864h1.7l5.419,8.111l5.414-8.111h1.701v14.864h-1.675v-12.04
		L391.354,426.175z M419.062,423.899c0,4.337-2.486,6.587-6.199,6.587c-3.674,0-6.184-2.252-6.184-6.457v-8.646h1.683v8.538
		c0,3.209,1.694,5.012,4.543,5.012c2.739,0,4.479-1.655,4.479-4.904v-8.646h1.679V423.899z M438.229,415.385h1.636v14.864h-1.338
		l-9.601-12.187v12.187h-1.635v-14.864h1.571l9.362,11.912v-11.912H438.229z M450.153,415.385v14.864h-1.681v-14.864H450.153z
		 M464.385,430.249h-1.699v-13.312h-4.987v-1.552h11.678v1.552h-4.993v13.312H464.385z M483.124,430.249h-1.701v-5.877l-6.176-8.985
		h2.036l5.012,7.435l5.054-7.435h1.955l-6.18,8.962V430.249z M508.542,423.562v6.687h-1.684v-14.864h1.684v6.605h8.579v-6.605h1.675
		v14.864h-1.675v-6.687H508.542L508.542,423.562z M538.007,416.916h-9.069v5.077h8.115v1.531h-8.115v5.197h9.174v1.528h-10.849
		v-14.864h10.744V416.916L538.007,416.916z M559.588,430.249h-1.805l-1.739-3.928h-8.091l-1.766,3.928h-1.718l6.771-14.969h1.572
		L559.588,430.249z M552.006,417.235l-3.396,7.577h6.773L552.006,417.235z M566.775,415.385h1.68v13.316h8.365v1.546h-10.045
		V415.385z M587.676,430.249h-1.697v-13.312h-4.99v-1.552h11.684v1.552h-4.995L587.676,430.249L587.676,430.249z M601.744,423.562
		v6.687h-1.676v-14.864h1.676v6.605h8.58v-6.605H612v14.864h-1.676v-6.687H601.744L601.744,423.562z M46.257,370.476
		c5.732-0.066,11.385-5.618,8.435-13.054c-1.152-2.901-5.064-6.233-10.337-5.442C34.039,353.511,34.434,370.62,46.257,370.476z
		 M10.613,369.666c11.179-7.455,23.456,3.387,23.67,15.243c3.754-7.61-3.383-19.811-8.43-23.13
		C17.505,356.286,3.279,358.38,0,368.305c0.95,0.433,5.347,5.268,6.523,5.167C7.02,373.432,10.326,369.853,10.613,369.666z
		 M38.37,379.735c-0.575,1.684-1.281,3.247-1.635,5.17c1.421-0.441,11.03-4.242,16.937-0.965c5.06,2.806,4.138,11.665,1.838,14.837
		c-4.922,6.793-16.761,9.099-27.49,12.788c-13.347,4.594-27.564,12.206-22.589,28.571c-0.28-5.029,1.37-8.227,3.552-10.884
		c12.926-15.812,49.421-13.043,59.324-31.84c0.831-1.583,1.489-3.737,1.623-5.714C71.109,374.378,50.543,372.007,38.37,379.735z"/>
	<path fill="#191454" d="M92.173,391.665h4.462v-22.199h-4.462v-3.277h13.813c8.96,0,11.102,3.406,11.102,6.946
		c0,2.579-1.748,5.637-7.562,6.594v0.221c5.989,0.526,8.784,3.279,8.784,6.905c0,4.237-2.706,8.084-12.195,8.084h-13.94v-3.274
		H92.173L92.173,391.665z M105.551,378.38c4.373,0,5.72-1.926,5.72-4.764c0-2.708-1.088-4.15-5.682-4.15h-3.315v8.914H105.551z
		 M105.551,391.665c5.158,0,6.903-1.482,6.903-5.332c0-2.927-1.879-4.897-6.992-4.897h-3.188v10.227h3.277V391.665z M121.237,389.96
		c0-1.396,0.484-2.619,1.482-3.626c1.489-1.485,3.627-2.142,7.909-2.755c2.494-0.348,2.84-0.392,2.84-1.045v-1.968
		c0-2.579-1.22-3.584-3.841-3.584c-1.181,0-2.142,0.221-3.061,0.747c0.698,0.395,1.182,1.219,1.182,2.182
		c0,1.398-1.097,2.535-2.797,2.535c-1.919,0-2.929-1.355-2.929-2.797c0-3.404,4.11-5.285,8.829-5.285c5.247,0,7.69,2.316,7.69,6.555
		v9.79c0,0.958,0.35,1.353,1.22,1.353c0.573,0,1.096-0.568,1.493-1.792l1.788,0.829c-0.963,2.886-2.492,4.065-4.891,4.065
		c-2.102,0-3.934-1.139-4.067-3.843h-0.217c-1.221,2.577-3.847,3.932-6.6,3.932C123.593,395.247,121.237,393.107,121.237,389.96z
		 M133.47,387.818v-2.842c-0.388,0.176-0.87,0.261-1.966,0.437c-3.756,0.615-4.889,1.312-4.889,3.631
		c0,1.747,0.914,3.014,3.014,3.014C131.55,392.058,133.47,390.308,133.47,387.818z M143.041,391.709h3.498v-23.467h-3.498v-3.413
		h8.566v26.879h3.498v3.232h-12.063L143.041,391.709L143.041,391.709z M165.113,369.466v5.461h6.553v3.014h-6.553v11.187
		c0,1.926,0.566,2.929,2.269,2.929c1.268,0,2.102-1.139,2.927-3.631l2.231,0.789c-1.047,4.329-3.317,6.161-6.642,6.161
		c-3.935,0-5.902-2.18-5.902-6.072v-11.363h-3.801v-3.014h3.89v-4.897L165.113,369.466z M174.33,391.709h3.498v-13.768h-3.498v-3.23
		h8.611v17.001h3.497v3.232H174.33V391.709z M176.777,367.895c0-1.926,1.357-3.324,3.321-3.324c1.97,0,3.279,1.269,3.279,3.19
		c0,1.923-1.309,3.323-3.279,3.323C178.132,371.083,176.777,369.77,176.777,367.895z M216.367,374.401
		c3.635,0,5.508,2.624,5.508,6.645v10.664h3.062v3.232H214.32v-3.232h2.443v-9.44c0-1.486-0.303-2.664-1.007-3.363
		c-0.479-0.483-1.135-0.747-2.008-0.747c-2.006,0-4.46,2.231-4.46,5.811v7.737h2.452v3.232h-10.012v-3.232h2.45v-9.44
		c0-1.487-0.261-2.664-0.961-3.364c-0.524-0.483-1.139-0.746-2.055-0.746c-2.055,0-4.46,2.231-4.46,5.811v7.736h2.445v3.232h-10.619
		v-3.232h3.062v-13.768h-3.062v-3.23h7.953v5.198c1.926-3.58,4.286-5.508,7.296-5.508c3.062,0,4.984,1.75,5.333,5.245
		C211.128,376.151,213.399,374.401,216.367,374.401z M227.037,384.938c0-6.21,4.324-10.577,10.443-10.577
		c6.337,0,10.443,4.195,10.443,10.402c0,6.204-4.324,10.615-10.443,10.615C231.1,395.378,227.037,391.141,227.037,384.938z
		 M242.328,384.849c0-5.552-1.834-7.868-5.024-7.868c-3.188,0-4.672,2.363-4.672,7.868c0,5.508,1.788,7.909,5.022,7.909
		C240.756,392.755,242.328,390.354,242.328,384.849z M250.76,391.709h3.062v-13.768h-3.062v-3.23h7.951v4.936
		c1.097-3.538,3.631-5.245,6.123-5.245c2.358,0,3.753,1.708,3.753,3.671c0,1.794-1.266,3.232-2.965,3.232
		c-1.707,0-3.016-1.005-3.016-2.795c0-0.174,0.042-0.393,0.087-0.571c-1.618,0-3.016,1.839-3.758,4.371v9.399h3.801v3.232h-11.974
		v-3.232H250.76L250.76,391.709z M275.19,385.326c0.176,4.939,2.229,6.948,5.857,6.948c2.403,0,4.15-1.046,5.243-3.625h2.619
		c-1.003,4.284-4.015,6.727-8.997,6.727c-6.381,0-10.14-4.371-10.14-10.312c0-6.121,4.322-10.706,10.225-10.706
		c6.379,0,9.262,5.109,9.045,10.967L275.19,385.326L275.19,385.326z M275.228,383.012h8.744c-0.263-3.932-1.485-6.072-4.24-6.072
		C277.247,376.938,275.584,378.554,275.228,383.012z M299.753,391.665h4.104v-22.199h-4.104v-3.277h12.713l6.815,19.75h0.179
		l6.729-19.75h12.497v3.277h-4.323v22.199h4.323v3.279H325.01v-3.279h3.714v-21.632h-0.391l-8.873,24.911h-2.577l-9.09-24.911
		h-0.398v21.632h3.895v3.279h-11.535L299.753,391.665L299.753,391.665z M346.81,385.326c0.182,4.939,2.229,6.948,5.864,6.948
		c2.396,0,4.148-1.046,5.238-3.625h2.624c-1.01,4.284-4.021,6.727-9.005,6.727c-6.38,0-10.132-4.371-10.132-10.312
		c0-6.121,4.324-10.706,10.221-10.706c6.377,0,9.264,5.109,9.045,10.967L346.81,385.326L346.81,385.326z M346.858,383.012h8.741
		c-0.261-3.932-1.487-6.072-4.246-6.072C348.867,376.938,347.209,378.554,346.858,383.012z M366.523,393.236
		c-1.925-1.919-2.841-4.935-2.841-8.171c0-3.408,1.138-6.642,2.968-8.523c1.445-1.398,3.277-2.183,5.423-2.183
		c2.927,0,4.893,1.398,6.163,3.495v-9.611h-3.281v-3.413h8.391v26.879h2.887v3.232h-7.783v-4.197
		c-1.396,2.973-3.711,4.634-6.686,4.634C369.668,395.378,367.834,394.547,366.523,393.236z M378.45,384.802
		c0-3.888-1.441-7.253-4.672-7.253c-3.017,0-4.547,2.668-4.547,7.342c0,4.719,1.881,7.253,4.547,7.253
		C376.357,392.145,378.45,389.305,378.45,384.802z M388.552,391.709h3.491v-13.768h-3.491v-3.23h8.608v17.001h3.491v3.232h-12.098
		v-3.234L388.552,391.709L388.552,391.709z M390.995,367.895c0-1.926,1.356-3.324,3.323-3.324c1.962,0,3.273,1.269,3.273,3.19
		c0,1.923-1.312,3.323-3.273,3.323C392.353,371.083,390.995,369.77,390.995,367.895z M402.753,385.152
		c0-6.337,4.498-10.793,10.742-10.793c5.03,0,8.172,3.234,8.172,6.032c0,2.142-1.088,3.669-3.101,3.669
		c-1.875,0-2.969-1.315-2.969-2.884c0-1.268,0.961-2.316,1.795-2.666c-0.612-0.917-1.839-1.618-3.761-1.618
		c-2.974,0-5.378,2.752-5.378,7.781c0,4.674,1.97,7.516,5.774,7.516c2.397,0,4.236-1.398,5.15-4.066h2.668
		c-0.963,4.458-4.104,7.253-8.873,7.253C406.507,395.378,402.753,391.095,402.753,385.152z M424.428,389.96
		c0-1.396,0.479-2.619,1.484-3.626c1.481-1.485,3.625-2.142,7.911-2.755c2.49-0.348,2.838-0.392,2.838-1.045v-1.968
		c0-2.579-1.22-3.584-3.848-3.584c-1.182,0-2.143,0.221-3.059,0.747c0.704,0.395,1.181,1.219,1.181,2.182
		c0,1.398-1.088,2.535-2.793,2.535c-1.926,0-2.929-1.355-2.929-2.797c0-3.404,4.104-5.285,8.824-5.285
		c5.247,0,7.694,2.316,7.694,6.555v9.79c0,0.958,0.351,1.353,1.222,1.353c0.566,0,1.097-0.568,1.485-1.792l1.794,0.829
		c-0.964,2.886-2.492,4.065-4.897,4.065c-2.095,0-3.932-1.139-4.062-3.843h-0.221c-1.224,2.577-3.844,3.932-6.594,3.932
		C426.784,395.247,424.428,393.107,424.428,389.96z M436.663,387.818v-2.842c-0.396,0.176-0.872,0.261-1.968,0.437
		c-3.76,0.615-4.896,1.312-4.896,3.631c0,1.747,0.921,3.014,3.015,3.014C434.737,392.058,436.663,390.308,436.663,387.818z
		 M446.232,391.709h3.496v-23.467h-3.496v-3.413h8.562v26.879h3.497v3.232H446.23v-3.232L446.232,391.709L446.232,391.709z
		 M469.18,385.025h3.14c2.666,5.418,4.808,7.514,9.135,7.514c3.276,0,5.202-1.659,5.202-4.374c0-3.141-3.364-3.974-7.473-5.069
		c-4.634-1.224-9.657-2.795-9.657-8.912c0-4.763,3.977-8.695,9.523-8.695c2.713,0,5.593,1.132,7.171,3.101l0.914-2.973h3.276v10.05
		h-3.145c-2.272-5.287-4.674-7.077-8.131-7.077c-2.84,0-4.498,1.703-4.498,4.062c0,3.455,3.539,4.24,7.689,5.287
		c4.546,1.094,9.439,2.537,9.439,8.524c0,5.247-4.236,9.177-10.093,9.177c-3.366,0-6.467-1.269-8.174-3.277l-1.008,3.145h-3.314
		v-10.483H469.18z M499.499,398.176c0,0.526-0.174,1.137-0.346,1.487c1.745-0.311,2.838-1.187,4.193-4.637l-7.521-17.087h-2.752
		v-3.23h11.535v3.23h-3.277l4.634,11.758l4.635-11.758h-2.711v-3.23h8.608v3.23h-2.532l-6.947,16.477
		c-2.404,5.637-4.849,7.952-8.648,7.952c-3.019,0-4.811-1.57-4.811-3.934c0-1.75,1.271-3.188,3.055-3.188
		C498.453,395.247,499.499,396.733,499.499,398.176z M518.03,387.777h2.974c1.35,3.016,3.886,5.069,6.505,5.069
		c2.143,0,3.061-1.005,3.061-2.449c0-1.659-1.222-2.443-5.242-3.495c-4.852-1.311-6.992-2.969-6.992-6.333
		c0-3.41,2.842-6.206,7.164-6.206c2.271,0,4.197,0.832,5.285,2.358l0.522-2.358h2.93v6.946h-2.93
		c-1.483-2.753-3.054-4.502-5.595-4.502c-1.569,0-2.84,0.833-2.84,2.318c0,1.621,1.402,2.405,5.071,3.364
		c4.592,1.226,7.124,2.712,7.124,6.384c0,3.232-2.706,6.509-7.429,6.509c-2.755,0-4.854-1.184-6.163-2.753l-0.565,2.708h-2.884
		v-7.559L518.03,387.777L518.03,387.777z M545.385,369.466v5.461h6.555v3.014h-6.555v11.187c0,1.926,0.564,2.929,2.271,2.929
		c1.269,0,2.1-1.139,2.927-3.631l2.231,0.789c-1.049,4.329-3.317,6.161-6.644,6.161c-3.935,0-5.902-2.18-5.902-6.072v-11.363h-3.801
		v-3.014h3.891v-4.897L545.385,369.466z M559.89,385.326c0.181,4.939,2.229,6.948,5.861,6.948c2.399,0,4.15-1.046,5.238-3.625h2.628
		c-1.012,4.284-4.025,6.727-9.005,6.727c-6.382,0-10.134-4.371-10.134-10.312c0-6.121,4.324-10.706,10.219-10.706
		c6.382,0,9.266,5.109,9.045,10.967L559.89,385.326L559.89,385.326z M559.938,383.012h8.739c-0.261-3.932-1.487-6.072-4.243-6.072
		C561.946,376.938,560.286,378.554,559.938,383.012z M604.463,374.401c3.635,0,5.508,2.624,5.508,6.645v10.664h3.062v3.232h-10.617
		v-3.232h2.443v-9.44c0-1.486-0.305-2.664-1.009-3.363c-0.479-0.483-1.135-0.747-2.008-0.747c-2.009,0-4.461,2.231-4.461,5.811
		v7.737h2.45v3.232H589.82v-3.232h2.452v-9.44c0-1.487-0.265-2.664-0.962-3.364c-0.523-0.483-1.142-0.746-2.056-0.746
		c-2.057,0-4.46,2.231-4.46,5.811v7.736h2.445v3.232h-10.618v-3.232h3.062v-13.768h-3.062v-3.23h7.953v5.198
		c1.925-3.58,4.283-5.508,7.295-5.508c3.062,0,4.983,1.75,5.334,5.245C599.225,376.151,601.493,374.401,604.463,374.401z"/>
</g>
</svg>
