<?xml version="1.0" encoding="UTF-8"?><svg id="uuid-02b679af-638c-4d15-b6ec-8280a2a232e2" xmlns="http://www.w3.org/2000/svg" viewBox="0 0 314.04 83.12"><defs><style>.uuid-955091d1-f315-4cc9-8410-acd1c80c65e0,.uuid-464e73fb-c565-47e6-9175-2f3bc1187eff{fill:#bf481f;}.uuid-deb1421c-d7c8-47ef-ae44-c5b4588abe90{fill:#f3f2f2;opacity:0;}.uuid-deb1421c-d7c8-47ef-ae44-c5b4588abe90,.uuid-464e73fb-c565-47e6-9175-2f3bc1187eff{fill-rule:evenodd;}</style></defs><g id="uuid-9f984213-7df5-4170-a278-a1368b87d771"><path class="uuid-955091d1-f315-4cc9-8410-acd1c80c65e0" d="m0,58.84c-.39-24.35,29.17-36.52,46.24-19.29,5,5.07,7.86,12.19,7.65,19.29,0,0-1.18,0-1.18,0-.18-10.17-6.67-19.67-16.06-23.44C20.02,28.54,1.53,40.87,1.18,58.84c0,0-1.18,0-1.18,0H0Z"/><path class="uuid-955091d1-f315-4cc9-8410-acd1c80c65e0" d="m5.55,58.84c-.45-19.44,23.22-29.16,36.78-15.38,3.97,4.05,6.23,9.73,6.01,15.38,0,0-1.25,0-1.25,0-.18-5.28-2.42-10.39-6.16-14-7.44-7.54-20.55-7.54-27.99,0-3.74,3.61-5.98,8.72-6.16,14h-1.25Z"/><path class="uuid-955091d1-f315-4cc9-8410-acd1c80c65e0" d="m11.9,58.84c-.55-13.8,16.44-20.76,25.97-10.92,2.79,2.88,4.36,6.93,4.14,10.92,0,0-1.34,0-1.34,0-.2-3.59-1.75-7.01-4.29-9.42-8.53-8.16-22.55-2.3-23.13,9.42,0,0-1.34,0-1.34,0h0Z"/><path class="uuid-464e73fb-c565-47e6-9175-2f3bc1187eff" d="m22.62,58.84c0-2.39,1.94-4.33,4.33-4.33s4.33,1.94,4.33,4.33h4.74c0-5.01-4.06-9.07-9.07-9.07s-9.07,4.06-9.07,9.07h4.74Z"/><path class="uuid-955091d1-f315-4cc9-8410-acd1c80c65e0" d="m0,5.53v37.76s1.08-1.62,1.08-1.62c5.78-8.69,15.45-13.87,25.87-13.87s20.09,5.19,25.87,13.88l1.08,1.62V5.53H0Z"/><path class="uuid-deb1421c-d7c8-47ef-ae44-c5b4588abe90" d="m205.93,71.57c-.18-.84-.4-1.34-.34-1.81.04-.33.42-.7.75-.89.18-.11.75.04.81.19.12.35.17.84.01,1.17-.19.4-.61.7-1.22,1.35Z"/><g><path d="m79.49,6.29c3.95,0,8.04.8,8.04,5.48,0,2.96-1.97,4.68-5.26,5.34v.07c3.36.44,6.36,1.72,6.36,5.99,0,2.19-.8,3.8-2.16,4.93-1.64,1.39-4.31,2.05-7.42,2.05h-9.9v-1.13c3-.22,3.07-.29,3.07-2.19V9.61c0-1.9-.07-1.97-3.07-2.16v-1.17h10.34Zm-3.62,10.38h2.16c3.62,0,5.67-1.24,5.67-4.68s-2.56-4.46-5.15-4.42c-2.52,0-2.67.22-2.67,1.68v7.42Zm0,9.54c0,2.16.37,2.67,3.03,2.67,2.96,0,5.81-1.32,5.81-5.41,0-3.84-2.27-5.48-6.54-5.48h-2.3v8.22Z"/><path d="m94.63,23.68c-.55,1.43-1.1,2.92-1.39,4.02-.15.62-.11,1.1.62,1.13l1.68.15v1.17h-6.76v-1.17c1.83-.11,2.27-.33,2.74-1.64,1.35-3.51,4.17-11.29,5.66-15.53h2.85c1.61,4.28,4.53,12.02,5.96,15.82.47,1.21,1.06,1.28,2.7,1.35v1.17h-8.41v-1.17l1.46-.11c.69-.11.69-.44.51-1.02-.37-1.06-1.1-3-1.5-4.17h-6.14Zm2.96-9.06h-.07c-.73,2.08-1.79,5.63-2.52,7.67h5.33c-.73-1.97-2.08-5.77-2.74-7.67Z"/><path d="m120.43,17.03c-.69-3.11-2.01-4.31-4.28-4.31-2.12,0-3.29,1.1-3.29,2.89,0,2.3,2.3,2.96,4.02,3.51,3.22,1.06,5.92,2.23,5.92,5.81,0,3.03-2.01,5.74-7.09,5.74-1.83,0-4.42-.55-5.77-1.61l-.26-4.97h1.1c.84,3.25,2.34,5.3,5.23,5.3,2.23,0,3.62-1.1,3.62-3.18,0-2.23-1.94-3.22-3.84-3.84-2.96-.95-5.92-2.12-5.92-5.48,0-3.18,2.3-5.48,6.61-5.48,1.94,0,3.8.44,5.08,1.24v4.39h-1.13Z"/><path d="m133.99,26.97c0,1.86.29,1.86,3.18,2.01v1.17h-9.83v-1.17c2.96-.15,3.22-.15,3.22-2.01v-13.78h-1.79c-2.74,0-3.47,1.21-3.8,4.02h-1.13v-5.3h16.85v5.3h-1.13c-.33-2.81-1.02-4.02-3.76-4.02h-1.79v13.78Z"/><path d="m150.4,28.98v1.17h-8.81v-1.17c2.49-.15,2.67-.18,2.67-2.01v-11.88c0-1.86-.22-1.9-2.67-2.05v-1.13h8.81v1.13c-2.49.15-2.7.18-2.7,2.05v11.88c0,1.83.26,1.86,2.7,2.01Z"/><path d="m157.41,23.68c-.55,1.43-1.1,2.92-1.39,4.02-.15.62-.11,1.1.62,1.13l1.68.15v1.17h-6.76v-1.17c1.83-.11,2.27-.33,2.74-1.64,1.35-3.51,4.17-11.29,5.66-15.53h2.85c1.61,4.28,4.53,12.02,5.96,15.82.47,1.21,1.06,1.28,2.7,1.35v1.17h-8.41v-1.17l1.46-.11c.69-.11.69-.44.51-1.02-.37-1.06-1.1-3-1.5-4.17h-6.14Zm2.96-9.06h-.07c-.73,2.08-1.79,5.63-2.52,7.67h5.33c-.73-1.97-2.08-5.77-2.74-7.67Z"/><path d="m179.09,11.92c3.11,4.64,6.65,9.28,9.87,13.89l.07-.07v-8.08c0-1.46-.04-2.38-.15-3.25-.11-.77-.58-1.1-1.46-1.17l-1.54-.15v-1.17h7.2v1.17l-1.21.15c-.62.07-1.17.44-1.21,1.06-.15.99-.22,1.9-.22,3.36v12.5h-2.67c-3.4-4.86-7.27-10.42-10.85-15.64h-.07v9.9c0,1.42.07,2.41.18,3.22.11.84.58,1.13,1.46,1.21l1.42.15v1.17h-7.27v-1.17l1.35-.15c.62-.07,1.13-.37,1.28-1.21.11-.8.15-1.79.15-3.22v-9.32c0-1.86-.22-1.86-2.67-2.01v-1.17h6.32Z"/><path class="uuid-955091d1-f315-4cc9-8410-acd1c80c65e0" d="m76.46,35.14v1.17l-1.79.18c-.8.07-.95.37-.62,1.21,2.05,5.7,4.5,11.95,6.54,17.5l.07.11c2.01-5.52,4.5-12.39,6.21-17.8.18-.62.15-.99-.77-1.06l-1.86-.15v-1.17h7.53v1.17c-1.86.11-2.3.15-3,1.79-2.34,5.96-5.44,14.07-7.97,20.9h-2.67c-2.45-6.98-5.15-14.03-7.75-20.72-.73-1.79-1.24-1.9-3.18-1.97v-1.17h9.25Z"/><path class="uuid-955091d1-f315-4cc9-8410-acd1c80c65e0" d="m107.96,49.87c0,6.07-3.22,9.65-9.39,9.65s-9.43-3.51-9.43-9.65,3.22-9.61,9.47-9.61,9.36,3.62,9.36,9.61Zm-15.02,0c0,4.02,1.39,8.37,5.63,8.37s5.59-4.28,5.59-8.37-1.39-8.3-5.67-8.3-5.55,4.2-5.55,8.3Z"/><path class="uuid-955091d1-f315-4cc9-8410-acd1c80c65e0" d="m118.53,57.84v1.17h-8.81v-1.17c2.49-.15,2.67-.18,2.67-2.01v-11.88c0-1.86-.22-1.9-2.67-2.05v-1.13h8.81v1.13c-2.49.15-2.7.18-2.7,2.05v11.88c0,1.83.26,1.86,2.7,2.01Z"/><path class="uuid-955091d1-f315-4cc9-8410-acd1c80c65e0" d="m136.84,46.14h-1.13c-.55-2.27-1.83-4.57-5.33-4.57-4.31,0-6.21,3.62-6.21,8.11,0,3.51,1.28,8.55,6.69,8.55,3.73,0,4.42-2.27,5.3-4.82h1.17l-.44,4.86c-1.9.88-4.2,1.24-6.5,1.24-6.69,0-10.01-3.07-10.01-9.57,0-3.11.91-5.41,2.7-7.16,1.68-1.64,4.46-2.59,7.71-2.52,2.05.04,4.46.44,6.07,1.21v4.68Z"/><path class="uuid-955091d1-f315-4cc9-8410-acd1c80c65e0" d="m153.79,40.77v4.79h-1.06c-.4-2.96-1.68-3.51-4.31-3.51h-2.59c-.58,0-.8.29-.8.91v5.92h3.47c2.27,0,2.7-.48,2.92-2.45h1.1v6.4h-1.1c-.22-1.94-.66-2.67-2.92-2.67h-3.47v5.12c0,2.12.44,2.45,3.84,2.45,1.94,0,3-.18,3.62-.8.51-.55,1.13-2.16,1.35-3.29h1.1l-.58,5.37h-15.42v-1.17c2.49-.11,2.67-.18,2.67-2.01v-11.88c0-1.86-.22-1.86-2.67-2.01v-1.17h14.87Z"/><path d="m171.08,55.68c0,1.9.11,1.97,3.07,2.19v1.13h-9.76v-1.13c3-.22,3.07-.29,3.07-2.19v-17.21c0-1.9-.07-1.97-3.07-2.16v-1.17h9.76v1.17c-2.96.18-3.07.26-3.07,2.16v17.21Z"/><path d="m181.68,40.77c3.11,4.64,6.65,9.28,9.87,13.89l.07-.07v-8.08c0-1.46-.04-2.38-.15-3.25-.11-.77-.58-1.1-1.46-1.17l-1.54-.15v-1.17h7.2v1.17l-1.21.15c-.62.07-1.17.44-1.21,1.06-.15.99-.22,1.9-.22,3.36v12.5h-2.67c-3.4-4.86-7.27-10.42-10.85-15.64h-.07v9.9c0,1.42.07,2.41.18,3.22.11.84.58,1.13,1.46,1.21l1.42.15v1.17h-7.27v-1.17l1.35-.15c.62-.07,1.13-.37,1.28-1.21.11-.8.15-1.79.15-3.22v-9.32c0-1.86-.22-1.86-2.67-2.01v-1.17h6.32Z"/><path d="m208.25,45.89c-.69-3.11-2.01-4.31-4.28-4.31-2.12,0-3.29,1.1-3.29,2.89,0,2.3,2.3,2.96,4.02,3.51,3.22,1.06,5.92,2.23,5.92,5.81,0,3.03-2.01,5.74-7.09,5.74-1.83,0-4.42-.55-5.77-1.61l-.26-4.97h1.1c.84,3.25,2.34,5.3,5.23,5.3,2.23,0,3.62-1.1,3.62-3.18,0-2.23-1.94-3.22-3.84-3.84-2.96-.95-5.92-2.12-5.92-5.48,0-3.18,2.3-5.48,6.61-5.48,1.94,0,3.8.44,5.08,1.24v4.39h-1.13Z"/><path d="m221.81,55.83c0,1.86.29,1.86,3.18,2.01v1.17h-9.83v-1.17c2.96-.15,3.22-.15,3.22-2.01v-13.78h-1.79c-2.74,0-3.47,1.21-3.8,4.02h-1.13v-5.3h16.85v5.3h-1.13c-.33-2.81-1.02-4.02-3.76-4.02h-1.79v13.78Z"/><path d="m238.4,57.84v1.17h-8.81v-1.17c2.49-.15,2.67-.18,2.67-2.01v-11.88c0-1.86-.22-1.9-2.67-2.05v-1.13h8.81v1.13c-2.49.15-2.7.18-2.7,2.05v11.88c0,1.83.26,1.86,2.7,2.01Z"/><path d="m249.77,55.83c0,1.86.29,1.86,3.18,2.01v1.17h-9.83v-1.17c2.96-.15,3.22-.15,3.22-2.01v-13.78h-1.79c-2.74,0-3.47,1.21-3.8,4.02h-1.13v-5.3h16.85v5.3h-1.13c-.33-2.81-1.02-4.02-3.76-4.02h-1.79v13.78Z"/><path d="m278.64,40.77v1.13c-2.45.15-2.67.18-2.67,2.05v8.33c0,5.19-2.89,7.2-7.93,7.2s-7.97-1.97-7.97-7.24v-8.3c0-1.86-.22-1.9-2.67-2.05v-1.13h8.77v1.13c-2.49.15-2.67.18-2.67,2.05v8.52c0,3.65,1.42,5.74,4.6,5.74s4.57-2.08,4.57-5.74v-8.52c0-1.86-.22-1.9-2.67-2.05v-1.13h8.62Z"/><path d="m289.35,55.83c0,1.86.29,1.86,3.18,2.01v1.17h-9.83v-1.17c2.96-.15,3.22-.15,3.22-2.01v-13.78h-1.79c-2.74,0-3.47,1.21-3.8,4.02h-1.13v-5.3h16.85v5.3h-1.13c-.33-2.81-1.02-4.02-3.76-4.02h-1.79v13.78Z"/><path d="m311.82,40.77v4.79h-1.06c-.4-2.96-1.68-3.51-4.31-3.51h-2.59c-.58,0-.8.29-.8.91v5.92h3.47c2.27,0,2.7-.48,2.92-2.45h1.1v6.4h-1.1c-.22-1.94-.66-2.67-2.92-2.67h-3.47v5.12c0,2.12.44,2.45,3.84,2.45,1.94,0,3-.18,3.62-.8.51-.55,1.13-2.16,1.35-3.29h1.1l-.58,5.37h-15.42v-1.17c2.49-.11,2.67-.18,2.67-2.01v-11.88c0-1.86-.22-1.86-2.67-2.01v-1.17h14.87Z"/></g><g><path d="m75.34,67.94c-.28-.08-.63-.14-.91-.14-.92,0-1.4.49-1.62,1.68l-.1.5h1.77l-.24,1.16h-1.75l-1.16,6.11c-.42,2.26-1.51,3.22-3.22,3.22-.41,0-.83-.04-1.22-.13l.36-1.26c.29.1.64.14.91.14.9,0,1.4-.45,1.69-1.98l1.16-6.11h-1.3l.24-1.16h1.3l.1-.53c.34-1.88,1.32-2.86,3.19-2.86.39,0,.77.03,1.15.11l-.35,1.23Z"/><path d="m76.81,77.08c-1.83,0-2.63-.91-2.63-2.49,0-2.84,1.85-4.75,4.1-4.75,1.91,0,2.66,1.05,2.66,2.54,0,2.86-2,4.71-4.13,4.71Zm1.25-5.97c-1.43,0-2.34,1.64-2.34,3.24,0,.91.36,1.44,1.3,1.44,1.32,0,2.37-1.43,2.37-3.25,0-.92-.41-1.43-1.33-1.43Z"/><path d="m86.89,71.31c-1.33-.49-2.62,2.04-3,4.09l-.29,1.54h-1.47l1.11-5.77v-.03c-.29-.06-.76-.11-1.16-.14l.17-.92c.79-.08,1.81-.14,2.63-.1-.11.57-.29,1.26-.67,2.35h.03c.77-1.58,1.57-2.77,2.97-2.47l-.31,1.44Z"/><path d="m93.3,76.94h-1.53l-1.23-6.96h1.57l.57,3.61c.08.49.13,1.01.15,1.48h.03l2.72-5.39,1.42.45-3.7,6.81Z"/><path d="m99.27,77.08c-1.83,0-2.63-.91-2.63-2.49,0-2.84,1.85-4.75,4.1-4.75,1.91,0,2.66,1.05,2.66,2.54,0,2.86-2,4.71-4.13,4.71Zm1.25-5.97c-1.43,0-2.34,1.64-2.34,3.24,0,.91.36,1.44,1.3,1.44,1.32,0,2.37-1.43,2.37-3.25,0-.92-.41-1.43-1.33-1.43Z"/><path d="m106.06,76.94h-1.47l1.11-5.77v-.03c-.29-.06-.76-.11-1.16-.14l.17-.92c.79-.08,1.81-.14,2.69-.1l-1.33,6.96Zm.91-8c-.53,0-.88-.42-.88-.85,0-.6.48-1.02,1.01-1.02s.9.41.9.84c0,.62-.49,1.04-1.02,1.04Z"/><path d="m113.35,71.36c-.34-.15-.73-.25-1.19-.25-1.62,0-2.37,1.82-2.37,3.28,0,.71.25,1.37,1.34,1.37.5,0,1.04-.11,1.46-.31l-.11,1.32c-.49.17-1.11.31-1.76.31-1.83,0-2.49-.97-2.49-2.35,0-2.66,1.53-4.86,4.03-4.86.55,0,.99.07,1.44.2l-.35,1.3Z"/><path d="m115.48,73.97c-.03.18-.06.49-.06.7,0,.95.35,1.2,1.4,1.2.66,0,1.37-.15,1.99-.41v1.18c-.71.27-1.57.43-2.48.43-1.68,0-2.41-.74-2.41-2.31,0-2.79,1.62-4.93,3.87-4.93,1.6,0,2.14.81,2.14,1.64,0,1.57-1.58,2.4-4.46,2.49Zm2.14-3.01c-1.01,0-1.68.91-1.96,1.98,1.9-.07,2.8-.46,2.8-1.26,0-.46-.32-.71-.84-.71Z"/><path d="m120.22,79.21l-.55-.63c1.11-.92,1.28-1.53.95-2.06-.34-.56.04-1.39.8-1.39,1.18,0,1.75,2-1.2,4.08Z"/><path d="m130.57,71.13c-.31-.11-.66-.15-1-.15-.83,0-1.25.36-1.25.9,0,.99,1.97,1.34,1.97,2.89,0,1.16-1.02,2.33-3.08,2.33-.46,0-.85-.04-1.21-.11l.25-1.29c.32.1.76.18,1.15.18.81,0,1.35-.32,1.35-.95,0-1.02-1.96-1.22-1.96-2.89,0-1.22.97-2.19,2.86-2.19.48,0,.84.04,1.19.11l-.28,1.18Z"/><path d="m138.92,76.94h-1.67l-.46-3.53c-.07-.45-.1-.94-.11-1.47h-.01c-1.97,4.06-.42.95-2.42,5h-1.57l-.76-6.96h1.55l.28,3.24c.06.66.11,1.32.13,1.86h.01c.69-1.47,1.72-3.59,2.45-5.1h1.49l.42,3.22c.1.73.14,1.4.15,1.89h.01c.8-1.74,1.72-3.71,2.52-5.39l1.4.42-3.42,6.82Z"/><path d="m147.81,75.78c.31.06.77.11,1.16.14l-.17.92c-.78.08-1.79.14-2.63.1.11-.59.35-1.4.73-2.55h-.03c-.53,1.04-1.54,2.7-3.11,2.7-1.02,0-1.58-.67-1.58-2.16,0-2.59,1.36-5.07,4.41-5.07.81,0,1.6.07,2.31.21l-1.09,5.7Zm-1.47-4.75c-1.86,0-2.65,2.03-2.65,3.64,0,.8.24,1.13.63,1.13,1.18,0,2.51-2.56,2.82-4.15l.1-.5c-.25-.07-.55-.13-.9-.13Z"/><path d="m151.67,76.94h-1.47l1.72-9.03v-.03c-.29-.06-.77-.11-1.16-.14l.17-.92c.78-.08,1.81-.14,2.69-.1l-1.95,10.23Z"/><path d="m155.5,76.94h-1.47l1.72-9.03v-.03c-.29-.06-.77-.11-1.16-.14l.17-.92c.78-.08,1.81-.14,2.69-.1l-1.95,10.23Z"/><path d="m160.29,77.08c-1.83,0-2.63-.91-2.63-2.49,0-2.84,1.85-4.75,4.1-4.75,1.91,0,2.66,1.05,2.66,2.54,0,2.86-2,4.71-4.13,4.71Zm1.25-5.97c-1.43,0-2.34,1.64-2.34,3.24,0,.91.36,1.44,1.3,1.44,1.32,0,2.37-1.43,2.37-3.25,0-.92-.41-1.43-1.33-1.43Z"/><path d="m172.67,76.94h-1.67l-.46-3.53c-.07-.45-.1-.94-.11-1.47h-.01c-1.97,4.06-.42.95-2.42,5h-1.57l-.76-6.96h1.55l.28,3.24c.06.66.11,1.32.13,1.86h.01c.69-1.47,1.72-3.59,2.45-5.1h1.49l.42,3.22c.1.73.14,1.4.15,1.89h.01c.8-1.74,1.72-3.71,2.52-5.39l1.4.42-3.42,6.82Z"/><path d="m177.93,76.94h-1.47l1.11-5.77v-.03c-.29-.06-.76-.11-1.16-.14l.17-.92c.79-.08,1.81-.14,2.69-.1l-1.33,6.96Zm.91-8c-.53,0-.88-.42-.88-.85,0-.6.48-1.02,1.01-1.02s.9.41.9.84c0,.62-.49,1.04-1.02,1.04Z"/><path d="m186.19,76.94h-1.46l.84-4.41c.18-.99.01-1.41-.52-1.41-1.13,0-2.49,2.49-2.82,4.17l-.31,1.65h-1.47l1.11-5.77v-.03c-.29-.06-.76-.11-1.16-.14l.17-.92c.79-.08,1.82-.14,2.65-.1-.08.43-.27,1.18-.7,2.48h.03c.64-1.36,1.68-2.63,3.08-2.63,1.32,0,1.74.94,1.47,2.35l-.91,4.76Z"/><path d="m193.63,77.49c-.34,1.78-1.46,3-4.15,3-.79,0-1.42-.11-1.95-.28l.35-1.41c.55.27,1.25.41,1.88.41,1.39,0,2.2-.53,2.48-1.96.18-.95.35-1.48.79-2.8h-.03c-.5.99-1.51,2.66-3.08,2.66-1.02,0-1.58-.67-1.58-2.16,0-2.59,1.37-5.07,4.41-5.07.81,0,1.6.07,2.31.21l-1.43,7.41Zm-1.13-6.46c-1.86,0-2.65,2.03-2.65,3.64,0,.8.24,1.13.63,1.13,1.18,0,2.51-2.56,2.82-4.15l.1-.5c-.25-.07-.55-.13-.9-.13Z"/><path d="m206.79,74.89c.56.52,1.12.97,1.62,1.37l-1.02,1.02c-.62-.48-1.16-.92-1.75-1.44-1.15.84-2.52,1.26-3.84,1.26-1.91,0-2.73-1.05-2.73-2.31,0-1.61,1.19-2.62,2.44-3.52-.52-.81-.84-1.56-.84-2.17,0-1.32,1.15-2.54,2.84-2.54,1.51,0,2.16.74,2.16,1.74,0,1.3-1.08,2.23-2.25,3.1.64.85,1.51,1.79,2.41,2.66.52-.55,1.01-1.37,1.23-2.37-.29-.06-.73-.11-1.05-.14l.15-.87c.77-.08,1.75-.14,2.59-.1-.15,1.67-.88,3.18-1.96,4.3Zm-4.55-2.62c-.84.62-1.6,1.27-1.6,2.2,0,.71.43,1.36,1.48,1.36.78,0,1.68-.27,2.51-.88-.81-.8-1.7-1.77-2.4-2.68Zm1.12-4.55c-.73,0-1.2.53-1.2,1.23,0,.39.2.9.55,1.48.81-.57,1.49-1.15,1.49-1.92,0-.48-.27-.8-.83-.8Z"/><path d="m218.55,75.78c.31.06.77.11,1.16.14l-.17.92c-.78.08-1.79.14-2.63.1.11-.59.35-1.4.73-2.55h-.03c-.53,1.04-1.54,2.7-3.11,2.7-1.02,0-1.58-.67-1.58-2.16,0-2.59,1.36-5.07,4.41-5.07.81,0,1.6.07,2.31.21l-1.09,5.7Zm-1.47-4.75c-1.86,0-2.65,2.03-2.65,3.64,0,.8.24,1.13.63,1.13,1.18,0,2.51-2.56,2.82-4.15l.1-.5c-.25-.07-.55-.13-.9-.13Z"/><path d="m222.72,76.94h-1.47l1.11-5.77v-.03c-.29-.06-.76-.11-1.16-.14l.17-.92c.79-.08,1.81-.14,2.69-.1l-1.33,6.96Zm.91-8c-.53,0-.88-.42-.88-.85,0-.6.48-1.02,1.01-1.02s.9.41.9.84c0,.62-.49,1.04-1.02,1.04Z"/><path d="m230.01,71.31c-1.33-.49-2.62,2.04-3,4.09l-.29,1.54h-1.47l1.11-5.77v-.03c-.29-.06-.76-.11-1.16-.14l.17-.92c.79-.08,1.81-.14,2.63-.1-.11.57-.29,1.26-.67,2.35h.03c.77-1.58,1.57-2.77,2.97-2.47l-.31,1.44Z"/><path d="m237.88,76.94h-1.67l-.46-3.53c-.07-.45-.1-.94-.11-1.47h-.01c-1.97,4.06-.42.95-2.42,5h-1.57l-.76-6.96h1.55l.28,3.24c.06.66.11,1.32.13,1.86h.01c.69-1.47,1.72-3.59,2.45-5.1h1.49l.42,3.22c.1.73.14,1.4.15,1.89h.01c.8-1.74,1.72-3.71,2.52-5.39l1.4.42-3.42,6.82Z"/><path d="m246.77,75.78c.31.06.77.11,1.16.14l-.17.92c-.78.08-1.79.14-2.63.1.11-.59.35-1.4.73-2.55h-.03c-.53,1.04-1.54,2.7-3.11,2.7-1.02,0-1.58-.67-1.58-2.16,0-2.59,1.36-5.07,4.41-5.07.81,0,1.6.07,2.31.21l-1.09,5.7Zm-1.47-4.75c-1.86,0-2.65,2.03-2.65,3.64,0,.8.24,1.13.63,1.13,1.18,0,2.51-2.56,2.82-4.15l.1-.5c-.25-.07-.55-.13-.9-.13Z"/><path d="m250.56,79.2c-.87.85-1.75,1.27-2.61,1.27-.35,0-.73-.04-1.01-.11l.25-1.32c.27.1.56.14.85.14.48,0,1.01-.25,1.44-.7.49-.5.71-1.09.71-2.03,0-1.91-.42-4.2-1.04-6.47h1.64c.43,1.68.76,3.77.76,5.25,0,.21-.04.49-.08.73h.01c1.02-1.83,1.92-3.75,2.94-6.26l1.42.39c-1.92,4.47-3.59,7.41-5.29,9.1Z"/><path d="m264.61,75.78c.31.06.77.11,1.16.14l-.17.92c-.78.08-1.78.14-2.62.1.1-.57.34-1.4.71-2.55h-.03c-.53,1.04-1.54,2.7-3.11,2.7-1.02,0-1.58-.67-1.58-2.16,0-2.59,1.36-5.07,4.41-5.07.29,0,.55.01.87.06l.39-2.02v-.03c-.31-.06-.76-.11-1.16-.14l.17-.92c.78-.08,1.79-.14,2.69-.1l-1.74,9.06Zm-1.47-4.75c-1.86,0-2.65,2.03-2.65,3.64,0,.8.24,1.13.63,1.13,1.18,0,2.51-2.56,2.82-4.15l.1-.5c-.25-.07-.55-.13-.9-.13Z"/><path d="m268.78,76.94h-1.47l1.11-5.77v-.03c-.29-.06-.76-.11-1.16-.14l.17-.92c.79-.08,1.81-.14,2.69-.1l-1.33,6.96Zm.91-8c-.53,0-.88-.42-.88-.85,0-.6.48-1.02,1.01-1.02s.9.41.9.84c0,.62-.49,1.04-1.02,1.04Z"/><path d="m275.19,71.13c-.31-.11-.66-.15-1-.15-.83,0-1.25.36-1.25.9,0,.99,1.97,1.34,1.97,2.89,0,1.16-1.02,2.33-3.08,2.33-.46,0-.85-.04-1.21-.11l.25-1.29c.32.1.76.18,1.15.18.81,0,1.35-.32,1.35-.95,0-1.02-1.96-1.22-1.96-2.89,0-1.22.97-2.19,2.86-2.19.48,0,.84.04,1.19.11l-.28,1.18Z"/><path d="m278.88,77.08c-1.83,0-2.63-.91-2.63-2.49,0-2.84,1.85-4.75,4.1-4.75,1.91,0,2.66,1.05,2.66,2.54,0,2.86-2,4.71-4.13,4.71Zm1.25-5.97c-1.43,0-2.34,1.64-2.34,3.24,0,.91.36,1.44,1.3,1.44,1.32,0,2.37-1.43,2.37-3.25,0-.92-.41-1.43-1.33-1.43Z"/><path d="m288.97,71.31c-1.33-.49-2.62,2.04-3,4.09l-.29,1.54h-1.47l1.11-5.77v-.03c-.29-.06-.76-.11-1.16-.14l.17-.92c.79-.08,1.81-.14,2.63-.1-.11.57-.29,1.26-.67,2.35h.03c.77-1.58,1.57-2.77,2.97-2.47l-.31,1.44Z"/><path d="m294.75,75.78c.31.06.77.11,1.16.14l-.17.92c-.78.08-1.78.14-2.62.1.1-.57.34-1.4.71-2.55h-.03c-.53,1.04-1.54,2.7-3.11,2.7-1.02,0-1.58-.67-1.58-2.16,0-2.59,1.36-5.07,4.41-5.07.29,0,.55.01.87.06l.39-2.02v-.03c-.31-.06-.76-.11-1.16-.14l.17-.92c.78-.08,1.79-.14,2.69-.1l-1.74,9.06Zm-1.47-4.75c-1.86,0-2.65,2.03-2.65,3.64,0,.8.24,1.13.63,1.13,1.18,0,2.51-2.56,2.82-4.15l.1-.5c-.25-.07-.55-.13-.9-.13Z"/><path d="m298.65,73.97c-.03.18-.06.49-.06.7,0,.95.35,1.2,1.4,1.2.66,0,1.37-.15,1.99-.41v1.18c-.71.27-1.57.43-2.48.43-1.68,0-2.41-.74-2.41-2.31,0-2.79,1.62-4.93,3.87-4.93,1.6,0,2.14.81,2.14,1.64,0,1.57-1.58,2.4-4.45,2.49Zm2.14-3.01c-1.01,0-1.68.91-1.96,1.98,1.9-.07,2.8-.46,2.8-1.26,0-.46-.32-.71-.84-.71Z"/><path d="m308.93,71.31c-1.33-.49-2.62,2.04-3,4.09l-.29,1.54h-1.47l1.11-5.77v-.03c-.29-.06-.76-.11-1.16-.14l.17-.92c.79-.08,1.81-.14,2.63-.1-.11.57-.29,1.26-.67,2.35h.03c.77-1.58,1.57-2.77,2.97-2.47l-.31,1.44Z"/><path d="m313.45,71.13c-.31-.11-.66-.15-1-.15-.83,0-1.25.36-1.25.9,0,.99,1.97,1.34,1.97,2.89,0,1.16-1.02,2.33-3.08,2.33-.46,0-.85-.04-1.21-.11l.25-1.29c.32.1.76.18,1.15.18.81,0,1.35-.32,1.35-.95,0-1.02-1.96-1.22-1.96-2.89,0-1.22.97-2.19,2.86-2.19.48,0,.84.04,1.19.11l-.28,1.18Z"/></g></g></svg>