<?xml version="1.0" encoding="utf-8"?>
<!-- Generator: Adobe Illustrator 22.0.1, SVG Export Plug-In . SVG Version: 6.00 Build 0)  -->
<svg version="1.1" id="Layer_1" xmlns="http://www.w3.org/2000/svg" xmlns:xlink="http://www.w3.org/1999/xlink" x="0px" y="0px"
	 viewBox="0 0 128.6 44.8" style="enable-background:new 0 0 128.6 44.8;" xml:space="preserve">
<style type="text/css">
	.st0{fill:#013B82;}
	.st1{fill:#00B6DE;}
</style>
<g>
	<g>
		<path class="st0" d="M47.3,27.5L47.3,27.5c1.9-0.6,3.1-1.8,3.1-4.1c0-3.3-2.8-4.4-6-4.4h-5.8v17.5h5.8c4,0,6.9-1.3,6.9-4.9
			C51.1,29.2,49.4,27.8,47.3,27.5z M42.2,21.9H44c1.8,0,2.8,0.6,2.8,2.1c0,1.6-0.9,2.3-2.9,2.3h-1.7V21.9z M44.1,33.7h-1.9v-4.8h2.1
			c2.1,0,3.1,0.8,3.1,2.5C47.4,33.1,46.3,33.7,44.1,33.7z M63.5,28.2c0-3.4-1.7-4.7-5.1-4.7c-2.7,0-4.4,1.1-5.2,1.8l1.5,2.1
			c0.5-0.3,1.6-1.2,3.3-1.2c1.6,0,2.1,0.7,2.1,1.8v0.7h-0.4c-3.4,0-6.8,1.2-6.8,4.5c0,2.3,1.7,3.6,3.9,3.6c1.8,0,3-1,3.6-1.7
			c0,0.4,0.1,1,0.2,1.4h3.4c-0.2-0.8-0.4-2-0.4-3.8V28.2z M60,33.2c-0.4,0.4-1.1,1.1-2.4,1.1c-0.8,0-1.6-0.4-1.6-1.3
			c0-1.5,1.4-2.1,3.5-2.1H60V33.2z M73.6,23.8L71,32.2h-0.1l-2.8-8.4h-3.7l4.8,12.5l-0.5,1.3c-0.5,1.4-1.1,2.2-2.9,2.2
			c-0.8,0-1-0.1-1.2-0.1L64,42.5c0.3,0.1,0.9,0.2,2,0.2c3.5,0,4.8-1.8,6-4.8l5.3-14.2H73.6z"/>
		<path class="st0" d="M87.2,36.9c-6,0-9-4.3-9-9.1c0-4.8,3.1-9,9-9c2.3,0,3.9,0.5,5.2,1.4l-1.6,2.7c-1-0.6-2.1-1-3.6-1
			c-3.3,0-5,2.6-5,5.8c0,3.3,1.7,6.1,5.1,6.1c1.9,0,3-0.6,4-1.3l1.5,2.6C91.9,35.9,89.8,36.9,87.2,36.9"/>
		<path class="st0" d="M104.6,32.8v-4.6c0-3.4-1.7-4.7-5.1-4.7c-2.7,0-4.4,1.1-5.2,1.8l1.5,2.1c0.5-0.3,1.6-1.2,3.3-1.2
			c1.6,0,2.1,0.7,2.1,1.8v0.7h-0.4c-3.4,0-6.8,1.2-6.8,4.5c0,2.3,1.7,3.6,3.9,3.6c1.8,0,3-1,3.6-1.7c0,0.4,0.1,1,0.2,1.4h3.4
			C104.8,35.8,104.6,34.5,104.6,32.8z M101.2,33.2c-0.4,0.4-1.1,1.1-2.4,1.1c-0.8,0-1.5-0.4-1.5-1.3c0-1.5,1.4-2.1,3.5-2.1h0.4V33.2
			z"/>
		<path class="st0" d="M114.6,26.9c-0.2-0.1-0.6-0.3-1.3-0.3c-1.6,0-2.5,1.4-2.8,1.9v8.1H107V23.8h3.5v1.7c0.5-0.9,1.6-2.1,3.2-2.1
			c1,0,1.4,0.2,1.7,0.3L114.6,26.9z"/>
		<path class="st0" d="M121.4,23.5c-3.5,0-6.3,2.6-6.3,6.6c0,4.1,2.4,6.8,6.7,6.8c2.6,0,3.9-0.8,4.8-1.2l-1.1-2.3
			c-0.6,0.3-1.6,0.9-3.3,0.9c-2.1,0-3.1-1.3-3.3-3.3h8.1C127.4,26.3,125.4,23.5,121.4,23.5z M118.8,28.6c0.2-1.7,1.1-2.6,2.5-2.6
			c1.6,0,2.2,1.2,2.2,2.6H118.8z"/>
	</g>
	<g>
		<g>
			<path class="st0" d="M17.8,13.4v6.6c0,0,4.6-0.8,9.7-1.7c5.1-0.9,6.7-7.7,6.7-7.7L17.8,13.4z"/>
			<path class="st0" d="M3.9,27.7l8.9-1.5v-4.3l-4.5,0.7C3.9,23.3,3.9,27.7,3.9,27.7"/>
			<path class="st0" d="M10,8.1v10.7l4.4-0.8v-6.4C14.4,7.4,10,8.1,10,8.1"/>
			<path class="st0" d="M16,30.8c0,6.7,7,5.5,7,5.5V22l-7,1.2V30.8"/>
		</g>
		<g>
			<path class="st1" d="M12.8,15.9c0,0-2.2,0.4-6.6,1.1c-4.4,0.7-4.4,5-4.4,5l11-1.9V15.9z"/>
			<path class="st1" d="M17.8,21.5v6.7c0,0,0.8-0.2,7.8-1.3c7-1.2,7-7.9,7-7.9L17.8,21.5z"/>
			<path class="st1" d="M22.8,7.3c0-4.9-6.8-5.4-6.8-5.4v15.9l6.8-1.1V7.3z"/>
			<path class="st1" d="M9.9,28.5c0,4.3,4.5,3.6,4.5,3.6v-8.6l-4.5,0.8V28.5"/>
		</g>
	</g>
</g>
</svg>
