<svg xmlns="http://www.w3.org/2000/svg" viewBox="0 0 150.86 77.62"><defs><style>.cls-1{fill:#042546;}</style></defs><title>benefis-logo-header</title><g id="Layer_2" data-name="Layer 2"><g id="Layer_1-2" data-name="Layer 1"><g id="Wireframes"><g id="Home-Page"><g id="Footer"><g id="BenefisHealthSystem_Logo_CMYK" data-name="BenefisHealthSystem Logo CMYK"><path id="Fill-4" class="cls-1" d="M41.79,46.78A6.86,6.86,0,0,0,39.56,45a6.61,6.61,0,0,0-3-.66,6.73,6.73,0,0,0-3,.66,6.93,6.93,0,0,0-2.22,1.75,8.48,8.48,0,0,0-1.46,2.5,12.39,12.39,0,0,0-.72,2.91H43.75a9.33,9.33,0,0,0-.55-2.93A7.88,7.88,0,0,0,41.79,46.78Zm66.48-8.11H111V34.39h-2.75ZM141.26,0H0V34.39H12.6a19.39,19.39,0,0,1,3.78.36A9.54,9.54,0,0,1,19.56,36a6.7,6.7,0,0,1,2.2,2.29,7,7,0,0,1,.83,3.54,6.77,6.77,0,0,1-.4,2.31,6.91,6.91,0,0,1-1.11,2,7,7,0,0,1-1.7,1.55,6.57,6.57,0,0,1-2.2.89v.08A7.39,7.39,0,0,1,22,51.05a7.27,7.27,0,0,1,1.79,5,12.67,12.67,0,0,1-.13,1.63,7.66,7.66,0,0,1-.53,1.87A7.76,7.76,0,0,1,22,61.41a6.53,6.53,0,0,1-2,1.64,12.24,12.24,0,0,1-3,1.14l-.36.07h15.3a8.49,8.49,0,0,1-3-2.43A10.76,10.76,0,0,1,27,58.14a16.07,16.07,0,0,1-.59-4.43A15.18,15.18,0,0,1,27,49.47a11.23,11.23,0,0,1,1.8-3.71A9.15,9.15,0,0,1,32,43.13a10,10,0,0,1,4.6-1,9.39,9.39,0,0,1,4.62,1.06A9,9,0,0,1,44.33,46a11.4,11.4,0,0,1,1.73,4,17.09,17.09,0,0,1,.43,4.51H29.19a11.4,11.4,0,0,0,.42,3,7.87,7.87,0,0,0,1.33,2.78,7.56,7.56,0,0,0,2.31,2,6.58,6.58,0,0,0,3.36.81,6.81,6.81,0,0,0,4.71-1.53,8,8,0,0,0,2.36-4.07h2.74a10.57,10.57,0,0,1-3.21,5.77,7.07,7.07,0,0,1-1.64,1.05h8.58V42.77h2.74v3.77H53a6.51,6.51,0,0,1,2.8-3.2,8.45,8.45,0,0,1,4.42-1.2,11.3,11.3,0,0,1,3.95.59A5.85,5.85,0,0,1,68,47.05a14.62,14.62,0,0,1,.4,3.52V64.26h9.29a8.4,8.4,0,0,1-3-2.43,11,11,0,0,1-1.81-3.69,16.45,16.45,0,0,1-.59-4.43,15.56,15.56,0,0,1,.59-4.24,11.25,11.25,0,0,1,1.81-3.71,9.06,9.06,0,0,1,3.16-2.63,10,10,0,0,1,4.6-1,9.32,9.32,0,0,1,4.61,1.06A9.08,9.08,0,0,1,90.18,46a11.38,11.38,0,0,1,1.72,4,16.69,16.69,0,0,1,.44,4.51H75a11.38,11.38,0,0,0,.41,3,8.22,8.22,0,0,0,1.33,2.78,7.56,7.56,0,0,0,2.31,2,6.58,6.58,0,0,0,3.36.81,6.78,6.78,0,0,0,4.71-1.53,7.89,7.89,0,0,0,2.36-4.07h2.74a10.56,10.56,0,0,1-3.2,5.77,7.07,7.07,0,0,1-1.64,1.05H97.53V45H93.69V42.77h3.84v-2a13.86,13.86,0,0,1,.22-2.58,4.94,4.94,0,0,1,.82-2,4,4,0,0,1,1.68-1.32,6.88,6.88,0,0,1,2.73-.46c.4,0,.78,0,1.13,0s.74.07,1.18.13v2.28l-1.05-.15a7.73,7.73,0,0,0-1-.06,3.58,3.58,0,0,0-1.74.34,2.08,2.08,0,0,0-.9.91,3.56,3.56,0,0,0-.32,1.33c0,.51,0,1.06,0,1.66v1.9h4.45V45h-4.45V64.26h8V42.77H111V64.26h7.81a8.13,8.13,0,0,1-1.43-.84q-2.46-1.83-2.81-5.85h2.74a5.25,5.25,0,0,0,2,4.09A7.48,7.48,0,0,0,124,63a10,10,0,0,0,2.06-.22,6.66,6.66,0,0,0,2-.72,4.59,4.59,0,0,0,1.5-1.29,3.12,3.12,0,0,0,.59-1.93,3,3,0,0,0-.42-1.63,3.34,3.34,0,0,0-1.11-1.1A6.88,6.88,0,0,0,127,55.4c-.6-.19-1.2-.36-1.81-.5l-3.53-.77a19.2,19.2,0,0,1-2.49-.78,8.14,8.14,0,0,1-2-1.1,4.69,4.69,0,0,1-1.33-1.61,5.22,5.22,0,0,1-.48-2.36,5.13,5.13,0,0,1,.76-2.84,5.84,5.84,0,0,1,2-1.9,9.2,9.2,0,0,1,2.72-1.07,14,14,0,0,1,3-.33,11.46,11.46,0,0,1,3.17.42,7.36,7.36,0,0,1,2.57,1.31,6.25,6.25,0,0,1,1.77,2.2,7.56,7.56,0,0,1,.74,3.09h-2.74a4.93,4.93,0,0,0-.52-2.14,4.35,4.35,0,0,0-1.29-1.5,5.31,5.31,0,0,0-1.86-.87,8.9,8.9,0,0,0-2.23-.28,9,9,0,0,0-1.85.2,5.76,5.76,0,0,0-1.73.63,3.67,3.67,0,0,0-1.27,1.17,3.13,3.13,0,0,0-.48,1.78,2.46,2.46,0,0,0,.46,1.51,4.09,4.09,0,0,0,1.15,1,7.1,7.1,0,0,0,1.53.7,15.63,15.63,0,0,0,1.53.45l3.66.8a11,11,0,0,1,2.33.62,7.61,7.61,0,0,1,2.05,1.17,5.68,5.68,0,0,1,1.47,1.78,5.91,5.91,0,0,1-.27,5.53,6.63,6.63,0,0,1-2.11,2,7.55,7.55,0,0,1-.94.48h21.9V9.33C150.86-.44,141.26,0,141.26,0ZM87.63,46.78A6.93,6.93,0,0,0,85.41,45a6.61,6.61,0,0,0-3-.66,6.7,6.7,0,0,0-3,.66,6.93,6.93,0,0,0-2.22,1.75,8.27,8.27,0,0,0-1.46,2.5A11.48,11.48,0,0,0,75,52.19H89.59a9.62,9.62,0,0,0-.54-2.93A7.9,7.9,0,0,0,87.63,46.78Zm-23.12-.5a4.37,4.37,0,0,0-1.77-1.4A6.62,6.62,0,0,0,60,44.37,7.22,7.22,0,0,0,57,45a6.19,6.19,0,0,0-2.18,1.57,7,7,0,0,0-1.4,2.37,9.29,9.29,0,0,0-.55,3V64.26h12.8V51a12,12,0,0,0-.26-2.61A5.34,5.34,0,0,0,64.51,46.28Zm-48.81,1a6.47,6.47,0,0,0,2.18-1.1,4.53,4.53,0,0,0,1.31-1.63,4.66,4.66,0,0,0,.43-2q0-5.69-7-5.68H2.4v10.8H12.6A10.56,10.56,0,0,0,15.7,47.24ZM20.14,59a6.23,6.23,0,0,0,.66-3,5,5,0,0,0-2.12-4.39A10.61,10.61,0,0,0,12.6,50.1H2.4V62.18H12.6a17.57,17.57,0,0,0,3.14-.27,7.36,7.36,0,0,0,2.61-1A5,5,0,0,0,20.14,59Z"/><polyline id="Fill-5" class="cls-1" points="0.87 66.77 2.32 66.77 2.32 71.43 8.08 71.43 8.08 66.77 9.54 66.77 9.54 77.62 8.08 77.62 8.08 72.65 2.32 72.65 2.32 77.62 0.87 77.62 0.87 66.77"/><polyline id="Fill-6" class="cls-1" points="12.14 66.77 20.75 66.77 20.75 67.98 13.8 67.98 13.8 71.43 20.28 71.43 20.28 72.65 13.8 72.65 13.8 76.4 20.81 76.4 20.81 77.62 12.14 77.62 12.14 66.77"/><path id="Fill-7" class="cls-1" d="M24.94,73.13h3.8l-1.87-5.06h0Zm1.11-6.36H27.7l4.38,10.85H30.43l-1.22-3.27H24.47l-1.26,3.27H21.67Z"/><polyline id="Fill-8" class="cls-1" points="32.95 66.77 34.51 66.77 34.51 76.4 40.75 76.4 40.75 77.62 32.95 77.62 32.95 66.77"/><polyline id="Fill-9" class="cls-1" points="44.36 67.98 40.75 67.98 40.75 66.77 49.42 66.77 49.42 67.98 45.8 67.98 45.8 77.62 44.36 77.62 44.36 67.98"/><polyline id="Fill-10" class="cls-1" points="51.15 66.77 52.61 66.77 52.61 71.43 58.37 71.43 58.37 66.77 59.82 66.77 59.82 77.62 58.37 77.62 58.37 72.65 52.61 72.65 52.61 77.62 51.15 77.62 51.15 66.77"/><path id="Fill-11" class="cls-1" d="M75.35,70.05c-.17-1.48-1.19-2.12-2.67-2.12-1.21,0-2.42.42-2.42,1.77s1.72,1.46,3.46,1.84,3.44,1,3.44,3c0,2.2-2.25,3.09-4.21,3.09-2.42,0-4.46-1.14-4.46-3.66h1.36c0,1.74,1.51,2.5,3.14,2.5,1.3,0,2.74-.4,2.74-1.89s-1.72-1.67-3.45-2-3.45-.84-3.45-2.74c0-2.11,1.94-3,3.91-3,2.2,0,3.88,1,4,3.28H75.35"/><polyline id="Fill-12" class="cls-1" points="83.52 73.18 83.52 77.62 82.12 77.62 82.12 73.18 78.03 66.77 79.7 66.77 82.87 71.93 85.97 66.77 87.57 66.77 83.52 73.18"/><path id="Fill-13" class="cls-1" d="M96.16,70.05c-.17-1.48-1.2-2.12-2.68-2.12-1.2,0-2.41.42-2.41,1.77s1.72,1.46,3.46,1.84,3.44,1,3.44,3c0,2.2-2.25,3.09-4.21,3.09-2.42,0-4.46-1.14-4.46-3.66h1.36c0,1.74,1.51,2.5,3.14,2.5,1.3,0,2.74-.4,2.74-1.89s-1.73-1.67-3.45-2-3.46-.84-3.46-2.74c0-2.11,2-3,3.92-3,2.2,0,3.88,1,4,3.28H96.16"/><polyline id="Fill-14" class="cls-1" points="102.45 67.98 98.84 67.98 98.84 66.77 107.51 66.77 107.51 67.98 103.89 67.98 103.89 77.62 102.45 77.62 102.45 67.98"/><polyline id="Fill-15" class="cls-1" points="109.24 66.77 117.86 66.77 117.86 67.98 110.9 67.98 110.9 71.43 117.39 71.43 117.39 72.65 110.9 72.65 110.9 76.4 117.91 76.4 117.91 77.62 109.24 77.62 109.24 66.77"/><polyline id="Fill-16" class="cls-1" points="120.51 66.77 122.57 66.77 126.14 75.88 129.72 66.77 131.78 66.77 131.78 77.62 130.36 77.62 130.36 68.59 130.32 68.59 126.79 77.62 125.51 77.62 121.97 68.59 121.94 68.59 121.94 77.62 120.51 77.62 120.51 66.77"/></g></g></g></g></g></g></svg>