<svg id="Layer_1" data-name="Layer 1" xmlns="http://www.w3.org/2000/svg" viewBox="0 0 429 66"><defs><style>.cls-1{fill:#fff;}.cls-2{fill:#f04a82;}</style></defs><path class="cls-1" d="M84.89,43.62h1.55c2,0,4,0,5.44-.71a3.34,3.34,0,0,0,1.87-3.28c0-2.72-1.78-4.41-5.11-4.41H84.89Zm0-13.84h1.87c3.85,0,6.1-1.26,6.1-3.84a3.6,3.6,0,0,0-1.41-3.05C90.19,22,88.31,22,86.2,22H84.89Zm1.92-13.36c3.14,0,6.47.51,8.91,2.11a8.28,8.28,0,0,1,3.85,7.17A6.73,6.73,0,0,1,95.44,32a7.79,7.79,0,0,1,5.49,7.46,9,9,0,0,1-5.87,8.44,23.46,23.46,0,0,1-8.62,1.31H78.18V16.42Z"/><path class="cls-1" d="M104.82,24.58h6.66V49.24h-6.66Zm0-9.1h6.66v5.67h-6.66Z"/><path class="cls-1" d="M141.68,30.11v9.57a16.24,16.24,0,0,0,.09,2.11c.19,1.45.75,2.34,2.16,2.34a5.67,5.67,0,0,0,2.67-.7l2.07,4.92a12.48,12.48,0,0,1-5.87,1.46,7.1,7.1,0,0,1-7.31-5.3,14.29,14.29,0,0,1-.47-4.13V30.11H132.3V24.58H135l1-5.44h5.63v5.44H148v5.53Zm-17.73,0v9.57a16.24,16.24,0,0,0,.09,2.11c.19,1.45.75,2.34,2.16,2.34a5.67,5.67,0,0,0,2.67-.7l2.07,4.92a12.47,12.47,0,0,1-5.86,1.46,7.1,7.1,0,0,1-7.32-5.3,14.29,14.29,0,0,1-.47-4.13V30.11h-3V24.58h3l1-5.44H124v5.44h6v5.53Z"/><path class="cls-1" d="M167.47,34a4.74,4.74,0,0,0-4.92-4.78c-3.19,0-4.93,2-5.63,4.78Zm-10.88,4.55c.47,3.38,2.67,5.91,6.19,5.91,3.19,0,4.83-1.31,6.43-3.66l4.36,3c-2.82,4.08-6,6.05-11.26,6.05-7.46,0-12.47-5.21-12.47-12.62S155.28,24,162.36,24c6.85,0,11.91,4.83,11.91,11.4a17.62,17.62,0,0,1-.33,3.14Z"/><path class="cls-1" d="M183.51,27.86c1.4-2.3,3.33-3.85,5.77-3.85a9.22,9.22,0,0,1,3.19.57l-1.6,5.81a5,5,0,0,0-2.34-.56,5.47,5.47,0,0,0-4.65,2.72V49.24h-6.66V24.58H183Z"/><path class="cls-1" d="M201.05,27.86c1.4-2.3,3.33-3.85,5.76-3.85a9.18,9.18,0,0,1,3.19.57l-1.59,5.81a5,5,0,0,0-2.35-.56,5.47,5.47,0,0,0-4.64,2.72V49.24h-6.66V24.58h5.77Z"/><path class="cls-1" d="M221.68,29.74c-3.66,0-6.14,3.14-6.14,7.17s2.48,7.18,6.14,7.18,6.1-3.15,6.1-7.18-2.44-7.17-6.1-7.17m12.9,7.17a12.92,12.92,0,0,1-25.84,0,12.92,12.92,0,0,1,25.84,0"/><path class="cls-1" d="M249.68,29.74c-3.66,0-6.15,3.14-6.15,7.17s2.49,7.18,6.15,7.18,6.09-3.15,6.09-7.18-2.44-7.17-6.09-7.17m12.89,7.17a12.92,12.92,0,0,1-25.84,0,12.92,12.92,0,0,1,25.84,0"/><path class="cls-1" d="M272.76,30.11v9.57a16.24,16.24,0,0,0,.09,2.11c.19,1.45.75,2.34,2.16,2.34a5.67,5.67,0,0,0,2.67-.7l2.06,4.92a12.44,12.44,0,0,1-5.86,1.46,7.12,7.12,0,0,1-7.32-5.3,14.65,14.65,0,0,1-.46-4.13V30.11h-3V24.58h3l1-5.44h5.63v5.44H279v5.53Z"/><polygon class="cls-1" points="312.23 49.24 312.23 35.18 298.3 35.18 298.3 49.24 291.6 49.24 291.6 16.42 298.3 16.42 298.3 29.5 312.23 29.5 312.23 16.42 318.94 16.42 318.94 49.24 312.23 49.24"/><path class="cls-1" d="M339.74,34a4.75,4.75,0,0,0-4.93-4.78c-3.19,0-4.92,2-5.62,4.78Zm-10.88,4.55c.47,3.38,2.67,5.91,6.19,5.91,3.19,0,4.83-1.31,6.42-3.66l4.37,3c-2.82,4.08-6,6.05-11.26,6.05-7.46,0-12.48-5.21-12.48-12.62S327.54,24,334.63,24c6.84,0,11.91,4.83,11.91,11.4a17.62,17.62,0,0,1-.33,3.14Z"/><path class="cls-1" d="M364.4,38.5a15.57,15.57,0,0,0-3.38-.42c-2.44,0-5.3.89-5.3,3.8,0,2.16,1.78,3.28,3.75,3.28a7.24,7.24,0,0,0,4.93-2.11Zm.89,10.74-.52-2.11c-1.59,2-4.08,2.68-6.7,2.68-4.6,0-8.87-2.77-8.87-7.83,0-6,5.63-8,10.74-8a22,22,0,0,1,4.46.52v-.38c0-3.09-1.27-5-4.88-5a16.1,16.1,0,0,0-7.46,2.16l-1.78-4.78A24.62,24.62,0,0,1,360.88,24c6.85,0,10.18,4,10.18,10.41V49.24Z"/><rect class="cls-1" x="375.36" y="14.07" width="6.66" height="35.17"/><path class="cls-1" d="M394.49,30.11v9.57a16.24,16.24,0,0,0,.09,2.11c.19,1.45.75,2.34,2.16,2.34a5.67,5.67,0,0,0,2.67-.7l2.07,4.92a12.47,12.47,0,0,1-5.86,1.46,7.1,7.1,0,0,1-7.32-5.3,14.29,14.29,0,0,1-.47-4.13V30.11h-2.95V24.58h2.95l1-5.44h5.63v5.44h6.28v5.53Z"/><path class="cls-1" d="M411,27.48A9.42,9.42,0,0,1,418.26,24a8.32,8.32,0,0,1,6.57,3.24c1.92,2.49,2.2,5.67,2.2,9.19v12.8h-6.66V36.77a12.66,12.66,0,0,0-.75-5.3,3.37,3.37,0,0,0-3.28-1.73A6.4,6.4,0,0,0,411,32.88V49.24h-6.66V14.07H411Z"/><path class="cls-2" d="M26.44,58.51C34,54.76,39.53,46.69,41.07,39.61a23.2,23.2,0,0,1-8.2,26.14,23.5,23.5,0,0,1-6.43-7.24"/><path class="cls-2" d="M10.2,46.45c8,2.71,17.61.9,23.71-3A23.19,23.19,0,0,1,9.63,56.12a23.43,23.43,0,0,1,.57-9.67"/><path class="cls-2" d="M7.24,26.44C11,34,19.06,39.53,26.14,41.07A23.2,23.2,0,0,1,0,32.87a23.5,23.5,0,0,1,7.24-6.43"/><path class="cls-2" d="M19.3,10.2c-2.71,8-.9,17.61,3,23.71A23.19,23.19,0,0,1,9.63,9.63a23.43,23.43,0,0,1,9.67.57"/><path class="cls-2" d="M39.31,7.24C31.72,11,26.22,19.06,24.68,26.14A23.21,23.21,0,0,1,32.87,0a23.45,23.45,0,0,1,6.44,7.24"/><path class="cls-2" d="M55.55,19.3c-8-2.71-17.61-.9-23.71,3A23.19,23.19,0,0,1,56.12,9.63a23.43,23.43,0,0,1-.57,9.67"/><path class="cls-2" d="M58.51,39.31c-3.75-7.59-11.82-13.09-18.9-14.63a23.21,23.21,0,0,1,26.14,8.19,23.45,23.45,0,0,1-7.24,6.44"/><path class="cls-2" d="M46.45,55.55c2.71-8,.9-17.61-3-23.71A23.19,23.19,0,0,1,56.12,56.12a23.43,23.43,0,0,1-9.67-.57"/></svg>