<?xml version="1.0" encoding="UTF-8"?>
<svg width="300px" height="58px" viewBox="0 0 300 58" version="1.1" xmlns="http://www.w3.org/2000/svg" xmlns:xlink="http://www.w3.org/1999/xlink">
    <title>Logo/Desktop/Positive</title>
    <g id="Logo/Desktop/Positive" stroke="none" stroke-width="1" fill="none" fill-rule="evenodd">
        <g>
            <g id="Group-5" transform="translate(0.472500, 0.199103)">
                <path d="M297.691875,54.8925097 L298.633125,54.8925097 L298.633125,53.8522516 L297.691875,53.8522516 L297.691875,54.8925097 Z M295.5075,54.8925097 L295.5075,51.395671 C295.5075,50.8568323 295.31625,50.4171548 294.615,50.4171548 C293.715,50.4171548 293.585625,51.2160581 293.585625,51.9045742 L293.585625,54.8925097 L292.764375,54.8925097 L292.764375,50.8961226 C292.764375,50.5462516 292.74375,50.1963806 292.71375,49.8465097 L293.585625,49.8465097 L293.585625,50.4976065 L293.625,50.4976065 C293.945625,49.9269613 294.32625,49.7473484 294.976875,49.7473484 C296.056875,49.7473484 296.32875,50.3965742 296.32875,51.395671 L296.32875,54.8925097 L295.5075,54.8925097 Z M290.596875,52.0954129 C290.596875,50.7165097 290.1675,50.4171548 289.535625,50.4171548 C288.90375,50.4171548 288.474375,50.7165097 288.474375,52.0954129 C288.474375,53.7325097 288.684375,54.3218645 289.535625,54.3218645 C290.386875,54.3218645 290.596875,53.7325097 290.596875,52.0954129 L290.596875,52.0954129 Z M287.61375,52.4434129 C287.61375,50.9653484 287.7825,49.7473484 289.535625,49.7473484 C291.28875,49.7473484 291.4575,50.9653484 291.4575,52.4434129 C291.4575,54.6717355 290.608125,54.991671 289.535625,54.991671 C288.465,54.991671 287.61375,54.6717355 287.61375,52.4434129 L287.61375,52.4434129 Z M285.511875,54.8925097 L286.33125,54.8925097 L286.33125,49.8465097 L285.511875,49.8465097 L285.511875,54.8925097 Z M285.459375,48.5574129 L286.38,48.5574129 L286.38,47.6780581 L285.459375,47.6780581 L285.459375,48.5574129 Z M282.834375,49.8465097 L282.834375,48.8773484 L283.655625,48.5087677 L283.655625,49.8465097 L284.75625,49.8465097 L284.75625,50.467671 L283.655625,50.467671 L283.655625,53.5528968 C283.655625,53.8728323 283.655625,54.2825742 284.405625,54.2825742 C284.465625,54.2825742 284.596875,54.2619935 284.776875,54.2432839 L284.776875,54.871929 C284.506875,54.8925097 284.236875,54.9523806 283.966875,54.9523806 C283.185,54.9523806 282.834375,54.6324452 282.834375,54.0524452 L282.834375,50.467671 L282.00375,50.467671 L282.00375,49.8465097 L282.834375,49.8465097 Z M278.48625,53.3938645 C278.48625,53.8821871 278.724375,54.3218645 279.275625,54.3218645 C279.77625,54.3218645 280.39875,54.0131548 280.31625,52.3854129 C279.53625,52.3947677 278.48625,52.3255419 278.48625,53.3938645 L278.48625,53.3938645 Z M280.33875,54.1628323 L280.31625,54.1628323 C280.066875,54.7409613 279.676875,54.991671 279.045,54.991671 C277.974375,54.991671 277.663125,54.3031548 277.663125,53.3339935 C277.663125,51.8054129 279.166875,51.7343161 280.31625,51.7642516 C280.33875,51.0963161 280.348125,50.3666387 279.466875,50.3666387 C278.915625,50.3666387 278.625,50.7352194 278.675625,51.2665742 L277.785,51.2665742 C277.824375,50.1365097 278.424375,49.7473484 279.495,49.7473484 C280.798125,49.7473484 281.1375,50.4171548 281.1375,51.2665742 L281.1375,53.6932194 C281.1375,54.0936065 281.176875,54.5033484 281.23875,54.8925097 L280.33875,54.8925097 L280.33875,54.1628323 Z M275.491875,54.8925097 L276.31125,54.8925097 L276.31125,49.8465097 L275.491875,49.8465097 L275.491875,54.8925097 Z M275.44125,48.5574129 L276.36,48.5574129 L276.36,47.6780581 L275.44125,47.6780581 L275.44125,48.5574129 Z M273.144375,51.4648968 C273.163125,50.6360581 272.7525,50.4171548 272.44125,50.4171548 C271.81125,50.4171548 271.381875,50.7165097 271.381875,52.0954129 C271.381875,53.7325097 271.591875,54.3218645 272.44125,54.3218645 C272.6325,54.3218645 273.204375,54.1235419 273.174375,53.2123806 L274.035,53.2123806 C274.065,54.6324452 273.00375,54.991671 272.44125,54.991671 C271.3725,54.991671 270.52125,54.6717355 270.52125,52.4434129 C270.52125,50.9653484 270.69,49.7473484 272.44125,49.7473484 C273.45375,49.7473484 274.044375,50.3367032 273.995625,51.4648968 L273.144375,51.4648968 Z M268.333125,52.0954129 C268.333125,50.7165097 267.905625,50.4171548 267.27375,50.4171548 C266.641875,50.4171548 266.2125,50.7165097 266.2125,52.0954129 C266.2125,53.7325097 266.424375,54.3218645 267.27375,54.3218645 C268.125,54.3218645 268.333125,53.7325097 268.333125,52.0954129 L268.333125,52.0954129 Z M265.348125,52.4434129 C265.348125,50.9653484 265.520625,49.7473484 267.27375,49.7473484 C269.025,49.7473484 269.195625,50.9653484 269.195625,52.4434129 C269.195625,54.6717355 268.344375,54.991671 267.27375,54.991671 C266.203125,54.991671 265.348125,54.6717355 265.348125,52.4434129 L265.348125,52.4434129 Z M262.53375,54.991671 C261.440625,54.991671 260.761875,54.5127032 260.791875,53.3527032 L261.72375,53.3527032 C261.72375,53.6427032 261.733125,54.3218645 262.56375,54.3218645 C263.055,54.3218645 263.435625,54.0730258 263.435625,53.5528968 C263.435625,52.6548323 260.911875,52.6342516 260.911875,51.1262516 C260.911875,50.5967677 261.2325,49.7473484 262.65375,49.7473484 C263.555625,49.7473484 264.32625,50.177671 264.256875,51.1767677 L263.345625,51.1767677 C263.355,50.6454129 263.075625,50.3666387 262.554375,50.3666387 C262.11375,50.3666387 261.7725,50.6061226 261.7725,51.0458 C261.7725,51.9345097 264.29625,51.9158 264.29625,53.4537355 C264.29625,54.5632194 263.535,54.991671 262.53375,54.991671 L262.53375,54.991671 Z M258.08625,54.991671 C256.995,54.991671 256.314375,54.5127032 256.344375,53.3527032 L257.27625,53.3527032 C257.27625,53.6427032 257.285625,54.3218645 258.11625,54.3218645 C258.6075,54.3218645 258.98625,54.0730258 258.98625,53.5528968 C258.98625,52.6548323 256.4625,52.6342516 256.4625,51.1262516 C256.4625,50.5967677 256.783125,49.7473484 258.20625,49.7473484 C259.108125,49.7473484 259.87875,50.177671 259.8075,51.1767677 L258.89625,51.1767677 C258.9075,50.6454129 258.62625,50.3666387 258.106875,50.3666387 C257.66625,50.3666387 257.325,50.6061226 257.325,51.0458 C257.325,51.9345097 259.84875,51.9158 259.84875,53.4537355 C259.84875,54.5632194 259.0875,54.991671 258.08625,54.991671 L258.08625,54.991671 Z M252.755625,48.5274774 L252.735,48.5274774 L251.604375,52.3741871 L253.91625,52.3741871 L252.755625,48.5274774 Z M252.193125,47.6780581 L253.366875,47.6780581 L255.718125,54.8925097 L254.686875,54.8925097 L254.1675,53.1730903 L251.37375,53.1730903 L250.83375,54.8925097 L249.901875,54.8925097 L252.193125,47.6780581 Z M244.9575,50.4171548 C244.08,50.4171548 243.96,51.1150258 243.96,52.4639935 C243.96,53.2236065 243.96,54.3218645 244.99125,54.3218645 C245.911875,54.3218645 245.911875,53.1843161 245.911875,52.1646387 C245.911875,51.4948323 245.8725,50.4171548 244.9575,50.4171548 L244.9575,50.4171548 Z M245.911875,47.6780581 L246.733125,47.6780581 L246.733125,54.8925097 L245.911875,54.8925097 L245.911875,54.291929 L245.89125,54.291929 C245.611875,54.7615419 245.26125,54.991671 244.730625,54.991671 C243.920625,54.991671 243.0975,54.6717355 243.0975,52.4546387 C243.0975,51.1954774 243.13875,49.7473484 244.77,49.7473484 C245.251875,49.7473484 245.6025,49.9568968 245.881875,50.3554129 L245.911875,50.3554129 L245.911875,47.6780581 Z M240.99375,54.8925097 L241.813125,54.8925097 L241.813125,47.679929 L240.99375,47.679929 L240.99375,54.8925097 Z M238.779375,52.0149613 C238.779375,50.5462516 238.36875,50.3666387 237.766875,50.3666387 C237.245625,50.3666387 236.81625,50.6154774 236.806875,52.0149613 L238.779375,52.0149613 Z M236.806875,52.6342516 C236.806875,54.0430903 237.1875,54.3218645 237.826875,54.3218645 C238.3875,54.3218645 238.678125,53.8728323 238.708125,53.363929 L239.608125,53.363929 C239.600625,54.4827677 238.90875,54.991671 237.8475,54.991671 C236.776875,54.991671 235.925625,54.6717355 235.925625,52.4434129 C235.925625,50.9653484 236.094375,49.7473484 237.8475,49.7473484 C239.289375,49.7473484 239.649375,50.5368968 239.649375,52.203929 L239.649375,52.6342516 L236.806875,52.6342516 Z M233.761875,54.8925097 L234.58125,54.8925097 L234.58125,49.8465097 L233.761875,49.8465097 L233.761875,54.8925097 Z M233.7075,48.5574129 L234.628125,48.5574129 L234.628125,47.6780581 L233.7075,47.6780581 L233.7075,48.5574129 Z M231.51375,54.8925097 L231.51375,51.4761226 C231.51375,50.8568323 231.313125,50.4171548 230.611875,50.4171548 C229.790625,50.4171548 229.5825,51.0757355 229.5825,51.9251548 L229.5825,54.8925097 L228.76125,54.8925097 L228.76125,47.6780581 L229.5825,47.6780581 L229.5825,50.4976065 L229.621875,50.4976065 C229.95,49.9063806 230.3325,49.7473484 230.9925,49.7473484 C231.853125,49.7473484 232.335,50.177671 232.335,51.3152194 L232.335,54.8925097 L231.51375,54.8925097 Z M224.000625,52.7446387 L224.000625,52.9541871 C224.000625,53.9327032 224.62125,54.2432839 225.211875,54.2432839 C225.943125,54.2432839 226.50375,53.9327032 226.50375,53.073929 C226.50375,51.4761226 223.26,51.6557355 223.26,49.4872839 C223.26,48.2094129 224.17125,47.5302516 225.3825,47.5302516 C226.704375,47.5302516 227.445,48.1682516 227.385,49.6369613 L226.423125,49.6369613 C226.4325,48.8474129 226.185,48.3291548 225.313125,48.3291548 C224.761875,48.3291548 224.20125,48.607929 224.20125,49.3881226 C224.20125,50.9747032 227.445,50.7464452 227.445,53.0346387 C227.445,54.5519935 226.393125,55.0421871 225.2025,55.0421871 C223.06875,55.0608968 223.06875,53.4331548 223.089375,52.7446387 L224.000625,52.7446387 Z M218.739375,52.0149613 C218.739375,50.5462516 218.32875,50.3666387 217.72875,50.3666387 C217.2075,50.3666387 216.778125,50.6154774 216.76875,52.0149613 L218.739375,52.0149613 Z M216.76875,52.6342516 C216.76875,54.0430903 217.1475,54.3218645 217.78875,54.3218645 C218.349375,54.3218645 218.638125,53.8728323 218.67,53.363929 L219.57,53.363929 C219.560625,54.4827677 218.86875,54.991671 217.809375,54.991671 C216.736875,54.991671 215.885625,54.6717355 215.885625,52.4434129 C215.885625,50.9653484 216.05625,49.7473484 217.809375,49.7473484 C219.25125,49.7473484 219.61125,50.5368968 219.61125,52.203929 L219.61125,52.6342516 L216.76875,52.6342516 Z M213.658125,49.8465097 L214.479375,49.8465097 L214.479375,53.8428968 C214.479375,54.1927677 214.5,54.5426387 214.53,54.8925097 L213.658125,54.8925097 L213.658125,54.2825742 L213.63,54.2825742 C213.36,54.7409613 212.878125,54.991671 212.3475,54.991671 C211.46625,54.991671 210.984375,54.5519935 210.984375,53.6932194 L210.984375,49.8465097 L211.805625,49.8465097 L211.805625,53.3433484 C211.805625,53.9532839 212.086875,54.3611548 212.668125,54.3611548 C213.10875,54.3611548 213.658125,54.0318645 213.658125,53.193671 L213.658125,49.8465097 Z M208.715625,54.8925097 L209.535,54.8925097 L209.535,47.679929 L208.715625,47.679929 L208.715625,54.8925097 Z M203.71125,54.0936065 L205.0125,54.0936065 C205.995,54.0936065 206.345625,53.3938645 206.345625,52.8643806 C206.345625,51.7156065 205.635,51.5154129 204.691875,51.5154129 L203.71125,51.5154129 L203.71125,54.0936065 Z M203.71125,50.7165097 L205.05375,50.7165097 C205.77375,50.7052839 206.124375,50.2656065 206.124375,49.5658645 C206.124375,48.9690258 205.785,48.4769613 205.0125,48.4769613 L203.71125,48.4769613 L203.71125,50.7165097 Z M202.790625,54.8925097 L202.790625,47.6780581 L205.14375,47.6780581 C206.145,47.6780581 206.484375,48.0185742 206.754375,48.4170903 C207.005625,48.8081226 207.045,49.2365742 207.045,49.3768968 C207.045,50.2768323 206.735625,50.8755419 205.80375,51.0850903 L205.80375,51.1356065 C206.835,51.2553484 207.285,51.8746387 207.285,52.8643806 C207.285,54.7110258 205.935,54.8925097 205.11375,54.8925097 L202.790625,54.8925097 Z M197.1,50.4171548 C196.21875,50.4171548 196.096875,51.1150258 196.096875,52.4639935 C196.096875,53.2236065 196.096875,54.3218645 197.128125,54.3218645 C198.050625,54.3218645 198.050625,53.1843161 198.050625,52.1646387 C198.050625,51.4948323 198.01125,50.4171548 197.1,50.4171548 L197.1,50.4171548 Z M198.050625,47.6780581 L198.871875,47.6780581 L198.871875,54.8925097 L198.050625,54.8925097 L198.050625,54.291929 L198.03,54.291929 C197.750625,54.7615419 197.4,54.991671 196.869375,54.991671 C196.0575,54.991671 195.23625,54.6717355 195.23625,52.4546387 C195.23625,51.1954774 195.275625,49.7473484 196.90875,49.7473484 C197.38875,49.7473484 197.739375,49.9568968 198.020625,50.3554129 L198.050625,50.3554129 L198.050625,47.6780581 Z M193.11,54.8925097 L193.11,51.395671 C193.11,50.8568323 192.91875,50.4171548 192.219375,50.4171548 C191.3175,50.4171548 191.188125,51.2160581 191.188125,51.9045742 L191.188125,54.8925097 L190.366875,54.8925097 L190.366875,50.8961226 C190.366875,50.5462516 190.34625,50.1963806 190.318125,49.8465097 L191.188125,49.8465097 L191.188125,50.4976065 L191.2275,50.4976065 C191.548125,49.9269613 191.92875,49.7473484 192.579375,49.7473484 C193.66125,49.7473484 193.93125,50.3965742 193.93125,51.395671 L193.93125,54.8925097 L193.11,54.8925097 Z M186.10875,53.3938645 C186.10875,53.8821871 186.34875,54.3218645 186.9,54.3218645 C187.39875,54.3218645 188.02125,54.0131548 187.940625,52.3854129 C187.160625,52.3947677 186.10875,52.3255419 186.10875,53.3938645 L186.10875,53.3938645 Z M187.959375,54.1628323 L187.940625,54.1628323 C187.69125,54.7409613 187.299375,54.991671 186.669375,54.991671 C185.596875,54.991671 185.285625,54.3031548 185.285625,53.3339935 C185.285625,51.8054129 186.789375,51.7343161 187.940625,51.7642516 C187.959375,51.0963161 187.970625,50.3666387 187.089375,50.3666387 C186.538125,50.3666387 186.2475,50.7352194 186.298125,51.2665742 L185.4075,51.2665742 C185.446875,50.1365097 186.050625,49.7473484 187.12125,49.7473484 C188.420625,49.7473484 188.761875,50.4171548 188.761875,51.2665742 L188.761875,53.6932194 C188.761875,54.0936065 188.80125,54.5033484 188.863125,54.8925097 L187.959375,54.8925097 L187.959375,54.1628323 Z M180.17625,54.991671 C179.085,54.991671 178.404375,54.5127032 178.43625,53.3527032 L179.36625,53.3527032 C179.36625,53.6427032 179.375625,54.3218645 180.20625,54.3218645 C180.6975,54.3218645 181.07625,54.0730258 181.07625,53.5528968 C181.07625,52.6548323 178.554375,52.6342516 178.554375,51.1262516 C178.554375,50.5967677 178.875,49.7473484 180.298125,49.7473484 C181.198125,49.7473484 181.96875,50.177671 181.899375,51.1767677 L180.98625,51.1767677 C180.9975,50.6454129 180.71625,50.3666387 180.196875,50.3666387 C179.75625,50.3666387 179.415,50.6061226 179.415,51.0458 C179.415,51.9345097 181.93875,51.9158 181.93875,53.4537355 C181.93875,54.5632194 181.1775,54.991671 180.17625,54.991671 L180.17625,54.991671 Z M175.72875,54.991671 C174.6375,54.991671 173.956875,54.5127032 173.985,53.3527032 L174.916875,53.3527032 C174.916875,53.6427032 174.92625,54.3218645 175.75875,54.3218645 C176.248125,54.3218645 176.62875,54.0730258 176.62875,53.5528968 C176.62875,52.6548323 174.105,52.6342516 174.105,51.1262516 C174.105,50.5967677 174.425625,49.7473484 175.84875,49.7473484 C176.74875,49.7473484 177.52125,50.177671 177.45,51.1767677 L176.53875,51.1767677 C176.55,50.6454129 176.26875,50.3666387 175.7475,50.3666387 C175.306875,50.3666387 174.965625,50.6061226 174.965625,51.0458 C174.965625,51.9345097 177.489375,51.9158 177.489375,53.4537355 C177.489375,54.5632194 176.728125,54.991671 175.72875,54.991671 L175.72875,54.991671 Z M172.070625,52.0954129 C172.070625,50.7165097 171.639375,50.4171548 171.0075,50.4171548 C170.3775,50.4171548 169.948125,50.7165097 169.948125,52.0954129 C169.948125,53.7325097 170.158125,54.3218645 171.0075,54.3218645 C171.860625,54.3218645 172.070625,53.7325097 172.070625,52.0954129 L172.070625,52.0954129 Z M169.0875,52.4434129 C169.0875,50.9653484 169.254375,49.7473484 171.0075,49.7473484 C172.760625,49.7473484 172.93125,50.9653484 172.93125,52.4434129 C172.93125,54.6717355 172.08,54.991671 171.0075,54.991671 C169.93875,54.991671 169.0875,54.6717355 169.0875,52.4434129 L169.0875,52.4434129 Z M166.74,50.6061226 L166.760625,50.6061226 C167.1,49.8371548 167.52,49.7473484 168.3225,49.7473484 L168.3225,50.5967677 C168.25125,50.5855419 168.1725,50.5761871 168.103125,50.5668323 C168.031875,50.5556065 167.9625,50.5462516 167.881875,50.5462516 C166.970625,50.5462516 166.74,51.2366387 166.74,51.9158 L166.74,54.8925097 L165.91875,54.8925097 L165.91875,49.8465097 L166.74,49.8465097 L166.74,50.6061226 Z M163.59375,49.6668968 C163.603125,49.2571548 163.573125,48.8474129 163.38375,48.6191548 C163.1925,48.3890258 162.763125,48.3085742 162.571875,48.3085742 C161.810625,48.3085742 161.510625,48.7669613 161.480625,48.8679935 C161.450625,48.9484452 161.270625,49.1280581 161.270625,50.3666387 L161.270625,52.2956065 C161.270625,54.0618 161.851875,54.2732194 162.5625,54.2732194 C162.841875,54.2732194 163.693125,54.1721871 163.704375,52.7633484 L164.655,52.7633484 C164.694375,55.0421871 163.08375,55.0421871 162.613125,55.0421871 C161.71125,55.0421871 160.329375,54.9823161 160.329375,52.1833484 L160.329375,50.1477355 C160.329375,48.1083806 161.23125,47.5302516 162.650625,47.5302516 C164.083125,47.5302516 164.6325,48.2692839 164.5425,49.6668968 L163.59375,49.6668968 Z M155.8575,52.0149613 C155.8575,50.5462516 155.446875,50.3666387 154.846875,50.3666387 C154.3275,50.3666387 153.89625,50.6154774 153.886875,52.0149613 L155.8575,52.0149613 Z M153.886875,52.6342516 C153.886875,54.0430903 154.265625,54.3218645 154.906875,54.3218645 C155.469375,54.3218645 155.758125,53.8728323 155.79,53.363929 L156.69,53.363929 C156.680625,54.4827677 155.98875,54.991671 154.9275,54.991671 C153.856875,54.991671 153.005625,54.6717355 153.005625,52.4434129 C153.005625,50.9653484 153.174375,49.7473484 154.9275,49.7473484 C156.369375,49.7473484 156.729375,50.5368968 156.729375,52.203929 L156.729375,52.6342516 L153.886875,52.6342516 Z M150.778125,49.8465097 L151.599375,49.8465097 L151.599375,53.8428968 C151.599375,54.1927677 151.62,54.5426387 151.65,54.8925097 L150.778125,54.8925097 L150.778125,54.2825742 L150.748125,54.2825742 C150.47625,54.7409613 149.998125,54.991671 149.465625,54.991671 C148.584375,54.991671 148.104375,54.5519935 148.104375,53.6932194 L148.104375,49.8465097 L148.925625,49.8465097 L148.925625,53.3433484 C148.925625,53.9532839 149.205,54.3611548 149.78625,54.3611548 C150.226875,54.3611548 150.778125,54.0318645 150.778125,53.193671 L150.778125,49.8465097 Z M145.831875,54.8925097 L146.65125,54.8925097 L146.65125,47.679929 L145.831875,47.679929 L145.831875,54.8925097 Z M140.83125,54.0936065 L142.1325,54.0936065 C143.113125,54.0936065 143.46375,53.3938645 143.46375,52.8643806 C143.46375,51.7156065 142.753125,51.5154129 141.811875,51.5154129 L140.83125,51.5154129 L140.83125,54.0936065 Z M140.83125,50.7165097 L142.171875,50.7165097 C142.891875,50.7052839 143.2425,50.2656065 143.2425,49.5658645 C143.2425,48.9690258 142.903125,48.4769613 142.1325,48.4769613 L140.83125,48.4769613 L140.83125,50.7165097 Z M139.90875,54.8925097 L139.90875,47.6780581 L142.261875,47.6780581 C143.263125,47.6780581 143.6025,48.0185742 143.874375,48.4170903 C144.12375,48.8081226 144.165,49.2365742 144.165,49.3768968 C144.165,50.2768323 143.85375,50.8755419 142.921875,51.0850903 L142.921875,51.1356065 C143.953125,51.2553484 144.405,51.8746387 144.405,52.8643806 C144.405,54.7110258 143.053125,54.8925097 142.231875,54.8925097 L139.90875,54.8925097 Z M135.268125,52.0149613 C135.268125,50.5462516 134.8575,50.3666387 134.2575,50.3666387 C133.73625,50.3666387 133.306875,50.6154774 133.2975,52.0149613 L135.268125,52.0149613 Z M133.2975,52.6342516 C133.2975,54.0430903 133.67625,54.3218645 134.3175,54.3218645 C134.878125,54.3218645 135.16875,53.8728323 135.19875,53.363929 L136.09875,53.363929 C136.089375,54.4827677 135.399375,54.991671 134.33625,54.991671 C133.2675,54.991671 132.41625,54.6717355 132.41625,52.4434129 C132.41625,50.9653484 132.585,49.7473484 134.33625,49.7473484 C135.778125,49.7473484 136.138125,50.5368968 136.138125,52.203929 L136.138125,52.6342516 L133.2975,52.6342516 Z M130.228125,54.8925097 L130.228125,51.4761226 C130.228125,50.8568323 130.0275,50.4171548 129.328125,50.4171548 C128.506875,50.4171548 128.296875,51.0757355 128.296875,51.9251548 L128.296875,54.8925097 L127.475625,54.8925097 L127.475625,47.6780581 L128.296875,47.6780581 L128.296875,50.4976065 L128.33625,50.4976065 C128.66625,49.9063806 129.046875,49.7473484 129.70875,49.7473484 C130.569375,49.7473484 131.049375,50.177671 131.049375,51.3152194 L131.049375,54.8925097 L130.228125,54.8925097 Z M124.790625,49.8465097 L124.790625,48.8773484 L125.611875,48.5087677 L125.611875,49.8465097 L126.7125,49.8465097 L126.7125,50.467671 L125.611875,50.467671 L125.611875,53.5528968 C125.611875,53.8728323 125.611875,54.2825742 126.361875,54.2825742 C126.421875,54.2825742 126.553125,54.2619935 126.733125,54.2432839 L126.733125,54.871929 C126.463125,54.8925097 126.193125,54.9523806 125.923125,54.9523806 C125.139375,54.9523806 124.790625,54.6324452 124.790625,54.0524452 L124.790625,50.467671 L123.958125,50.467671 L123.958125,49.8465097 L124.790625,49.8465097 Z M119.840625,49.8465097 L119.840625,48.8679935 C119.840625,47.8501871 120.5625,47.6481226 121.291875,47.6481226 C121.4625,47.6481226 121.561875,47.6593484 121.68375,47.6780581 L121.68375,48.2692839 C120.811875,48.2094129 120.661875,48.5779935 120.661875,48.9877355 L120.661875,49.8465097 L121.68375,49.8465097 L121.68375,50.467671 L120.661875,50.467671 L120.661875,54.8925097 L119.840625,54.8925097 L119.840625,50.467671 L119.060625,50.467671 L119.060625,49.8465097 L119.840625,49.8465097 Z M117.525,52.0954129 C117.525,50.7165097 117.09375,50.4171548 116.46375,50.4171548 C115.831875,50.4171548 115.4025,50.7165097 115.4025,52.0954129 C115.4025,53.7325097 115.6125,54.3218645 116.46375,54.3218645 C117.315,54.3218645 117.525,53.7325097 117.525,52.0954129 L117.525,52.0954129 Z M114.54,52.4434129 C114.54,50.9653484 114.710625,49.7473484 116.46375,49.7473484 C118.215,49.7473484 118.385625,50.9653484 118.385625,52.4434129 C118.385625,54.6717355 117.534375,54.991671 116.46375,54.991671 C115.393125,54.991671 114.54,54.6717355 114.54,52.4434129 L114.54,52.4434129 Z M110.22,52.0149613 C110.22,50.5462516 109.809375,50.3666387 109.209375,50.3666387 C108.688125,50.3666387 108.25875,50.6154774 108.2475,52.0149613 L110.22,52.0149613 Z M108.2475,52.6342516 C108.2475,54.0430903 108.628125,54.3218645 109.269375,54.3218645 C109.83,54.3218645 110.120625,53.8728323 110.150625,53.363929 L111.0525,53.363929 C111.04125,54.4827677 110.349375,54.991671 109.288125,54.991671 C108.2175,54.991671 107.36625,54.6717355 107.36625,52.4434129 C107.36625,50.9653484 107.536875,49.7473484 109.288125,49.7473484 C110.73,49.7473484 111.091875,50.5368968 111.091875,52.203929 L111.091875,52.6342516 L108.2475,52.6342516 Z M105.21,52.0149613 C105.21,50.5462516 104.799375,50.3666387 104.199375,50.3666387 C103.678125,50.3666387 103.24875,50.6154774 103.2375,52.0149613 L105.21,52.0149613 Z M103.2375,52.6342516 C103.2375,54.0430903 103.618125,54.3218645 104.259375,54.3218645 C104.82,54.3218645 105.110625,53.8728323 105.140625,53.363929 L106.040625,53.363929 C106.03125,54.4827677 105.34125,54.991671 104.28,54.991671 C103.2075,54.991671 102.35625,54.6717355 102.35625,52.4434129 C102.35625,50.9653484 102.526875,49.7473484 104.28,49.7473484 C105.72,49.7473484 106.081875,50.5368968 106.081875,52.203929 L106.081875,52.6342516 L103.2375,52.6342516 Z M99.48,54.991671 C98.38875,54.991671 97.708125,54.5127032 97.738125,53.3527032 L98.67,53.3527032 C98.67,53.6427032 98.679375,54.3218645 99.51,54.3218645 C100.00125,54.3218645 100.381875,54.0730258 100.381875,53.5528968 C100.381875,52.6548323 97.858125,52.6342516 97.858125,51.1262516 C97.858125,50.5967677 98.17875,49.7473484 99.6,49.7473484 C100.501875,49.7473484 101.2725,50.177671 101.203125,51.1767677 L100.291875,51.1767677 C100.30125,50.6454129 100.021875,50.3666387 99.500625,50.3666387 C99.06,50.3666387 98.720625,50.6061226 98.720625,51.0458 C98.720625,51.9345097 101.2425,51.9158 101.2425,53.4537355 C101.2425,54.5632194 100.48125,54.991671 99.48,54.991671 L99.48,54.991671 Z M95.7225,54.8925097 L95.7225,51.395671 C95.7225,50.8568323 95.53125,50.4171548 94.831875,50.4171548 C93.93,50.4171548 93.800625,51.2160581 93.800625,51.9045742 L93.800625,54.8925097 L92.979375,54.8925097 L92.979375,50.8961226 C92.979375,50.5462516 92.95875,50.1963806 92.92875,49.8465097 L93.800625,49.8465097 L93.800625,50.4976065 L93.84,50.4976065 C94.160625,49.9269613 94.54125,49.7473484 95.191875,49.7473484 C96.27375,49.7473484 96.54375,50.3965742 96.54375,51.395671 L96.54375,54.8925097 L95.7225,54.8925097 Z M90.7425,52.0149613 C90.7425,50.5462516 90.331875,50.3666387 89.731875,50.3666387 C89.210625,50.3666387 88.78125,50.6154774 88.77,52.0149613 L90.7425,52.0149613 Z M88.77,52.6342516 C88.77,54.0430903 89.150625,54.3218645 89.791875,54.3218645 C90.3525,54.3218645 90.643125,53.8728323 90.673125,53.363929 L91.573125,53.363929 C91.56375,54.4827677 90.871875,54.991671 89.810625,54.991671 C88.74,54.991671 87.88875,54.6717355 87.88875,52.4434129 C87.88875,50.9653484 88.059375,49.7473484 89.810625,49.7473484 C91.2525,49.7473484 91.614375,50.5368968 91.614375,52.203929 L91.614375,52.6342516 L88.77,52.6342516 Z M85.603125,51.4648968 C85.621875,50.6360581 85.213125,50.4171548 84.901875,50.4171548 C84.271875,50.4171548 83.840625,50.7165097 83.840625,52.0954129 C83.840625,53.7325097 84.050625,54.3218645 84.901875,54.3218645 C85.09125,54.3218645 85.663125,54.1235419 85.633125,53.2123806 L86.49375,53.2123806 C86.52375,54.6324452 85.4625,54.991671 84.901875,54.991671 C83.829375,54.991671 82.98,54.6717355 82.98,52.4434129 C82.98,50.9653484 83.150625,49.7473484 84.901875,49.7473484 C85.9125,49.7473484 86.503125,50.3367032 86.454375,51.4648968 L85.603125,51.4648968 Z M80.715,54.8925097 L81.53625,54.8925097 L81.53625,49.8465097 L80.715,49.8465097 L80.715,54.8925097 Z M80.66625,48.5574129 L81.586875,48.5574129 L81.586875,47.6780581 L80.66625,47.6780581 L80.66625,48.5574129 Z M76.378125,54.8925097 L76.378125,47.6780581 L77.29875,47.6780581 L77.29875,54.0936065 L79.951875,54.0936065 L79.951875,54.8925097 L76.378125,54.8925097 Z M71.368125,49.8465097 L71.368125,48.8773484 L72.189375,48.5087677 L72.189375,49.8465097 L73.29,49.8465097 L73.29,50.467671 L72.189375,50.467671 L72.189375,53.5528968 C72.189375,53.8728323 72.189375,54.2825742 72.939375,54.2825742 C72.999375,54.2825742 73.130625,54.2619935 73.310625,54.2432839 L73.310625,54.871929 C73.03875,54.8925097 72.76875,54.9523806 72.49875,54.9523806 C71.71875,54.9523806 71.368125,54.6324452 71.368125,54.0524452 L71.368125,50.467671 L70.5375,50.467671 L70.5375,49.8465097 L71.368125,49.8465097 Z M69.01125,54.8925097 L69.01125,51.395671 C69.01125,50.8568323 68.82,50.4171548 68.120625,50.4171548 C67.21875,50.4171548 67.0875,51.2160581 67.0875,51.9045742 L67.0875,54.8925097 L66.268125,54.8925097 L66.268125,50.8961226 C66.268125,50.5462516 66.2475,50.1963806 66.2175,49.8465097 L67.0875,49.8465097 L67.0875,50.4976065 L67.12875,50.4976065 C67.449375,49.9269613 67.83,49.7473484 68.480625,49.7473484 C69.5625,49.7473484 69.8325,50.3965742 69.8325,51.395671 L69.8325,54.8925097 L69.01125,54.8925097 Z M64.03125,52.0149613 C64.03125,50.5462516 63.620625,50.3666387 63.020625,50.3666387 C62.499375,50.3666387 62.07,50.6154774 62.05875,52.0149613 L64.03125,52.0149613 Z M62.05875,52.6342516 C62.05875,54.0430903 62.439375,54.3218645 63.080625,54.3218645 C63.64125,54.3218645 63.931875,53.8728323 63.961875,53.363929 L64.861875,53.363929 C64.8525,54.4827677 64.160625,54.991671 63.099375,54.991671 C62.02875,54.991671 61.1775,54.6717355 61.1775,52.4434129 C61.1775,50.9653484 61.348125,49.7473484 63.099375,49.7473484 C64.54125,49.7473484 64.903125,50.5368968 64.903125,52.203929 L64.903125,52.6342516 L62.05875,52.6342516 Z M57.969375,50.4171548 C57.09,50.4171548 56.968125,51.1150258 56.968125,52.4639935 C56.968125,53.2236065 56.968125,54.3218645 57.999375,54.3218645 C58.921875,54.3218645 58.921875,53.1843161 58.921875,52.1646387 C58.921875,51.4948323 58.880625,50.4171548 57.969375,50.4171548 L57.969375,50.4171548 Z M58.921875,47.6780581 L59.743125,47.6780581 L59.743125,54.8925097 L58.921875,54.8925097 L58.921875,54.291929 L58.90125,54.291929 C58.62,54.7615419 58.27125,54.991671 57.740625,54.991671 C56.92875,54.991671 56.1075,54.6717355 56.1075,52.4546387 C56.1075,51.1954774 56.14875,49.7473484 57.78,49.7473484 C58.26,49.7473484 58.610625,49.9568968 58.891875,50.3554129 L58.921875,50.3554129 L58.921875,47.6780581 Z M53.98125,54.8925097 L53.98125,51.395671 C53.98125,50.8568323 53.791875,50.4171548 53.090625,50.4171548 C52.18875,50.4171548 52.059375,51.2160581 52.059375,51.9045742 L52.059375,54.8925097 L51.238125,54.8925097 L51.238125,50.8961226 C51.238125,50.5462516 51.219375,50.1963806 51.1875,49.8465097 L52.059375,49.8465097 L52.059375,50.4976065 L52.09875,50.4976065 C52.419375,49.9269613 52.8,49.7473484 53.450625,49.7473484 C54.5325,49.7473484 54.8025,50.3965742 54.8025,51.395671 L54.8025,54.8925097 L53.98125,54.8925097 Z M49.00125,52.0149613 C49.00125,50.5462516 48.590625,50.3666387 47.990625,50.3666387 C47.469375,50.3666387 47.04,50.6154774 47.02875,52.0149613 L49.00125,52.0149613 Z M47.02875,52.6342516 C47.02875,54.0430903 47.409375,54.3218645 48.050625,54.3218645 C48.61125,54.3218645 48.901875,53.8728323 48.931875,53.363929 L49.83375,53.363929 C49.8225,54.4827677 49.1325,54.991671 48.07125,54.991671 C46.99875,54.991671 46.149375,54.6717355 46.149375,52.4434129 C46.149375,50.9653484 46.32,49.7473484 48.07125,49.7473484 C49.513125,49.7473484 49.873125,50.5368968 49.873125,52.203929 L49.873125,52.6342516 L47.02875,52.6342516 Z M44.0625,52.2843806 C44.0625,51.5247677 44.0625,50.4171548 43.03125,50.4171548 C42.020625,50.4171548 42.110625,51.8147677 42.110625,52.5837355 C42.110625,53.2535419 42.15,54.3218645 43.06125,54.3218645 C43.9425,54.3218645 44.0625,53.6333484 44.0625,52.2843806 L44.0625,52.2843806 Z M42.110625,50.4470903 L42.129375,50.4470903 C42.410625,49.9774774 42.76125,49.7473484 43.291875,49.7473484 C44.101875,49.7473484 44.923125,50.0672839 44.923125,52.2843806 C44.923125,53.5435419 44.88375,54.991671 43.250625,54.991671 C42.770625,54.991671 42.42,54.7821226 42.140625,54.3817355 L42.110625,54.3817355 L42.110625,56.8008968 L41.289375,56.8008968 L41.289375,49.8465097 L42.110625,49.8465097 L42.110625,50.4470903 Z M38.983125,52.0149613 C38.983125,50.5462516 38.5725,50.3666387 37.970625,50.3666387 C37.45125,50.3666387 37.02,50.6154774 37.010625,52.0149613 L38.983125,52.0149613 Z M37.010625,52.6342516 C37.010625,54.0430903 37.39125,54.3218645 38.0325,54.3218645 C38.593125,54.3218645 38.881875,53.8728323 38.911875,53.363929 L39.81375,53.363929 C39.8025,54.4827677 39.1125,54.991671 38.05125,54.991671 C36.980625,54.991671 36.129375,54.6717355 36.129375,52.4434129 C36.129375,50.9653484 36.3,49.7473484 38.05125,49.7473484 C39.493125,49.7473484 39.853125,50.5368968 39.853125,52.203929 L39.853125,52.6342516 L37.010625,52.6342516 Z M32.92125,50.4171548 C32.04,50.4171548 31.92,51.1150258 31.92,52.4639935 C31.92,53.2236065 31.92,54.3218645 32.95125,54.3218645 C33.871875,54.3218645 33.871875,53.1843161 33.871875,52.1646387 C33.871875,51.4948323 33.8325,50.4171548 32.92125,50.4171548 L32.92125,50.4171548 Z M33.871875,47.6780581 L34.693125,47.6780581 L34.693125,54.8925097 L33.871875,54.8925097 L33.871875,54.291929 L33.853125,54.291929 C33.571875,54.7615419 33.22125,54.991671 32.690625,54.991671 C31.880625,54.991671 31.059375,54.6717355 31.059375,52.4546387 C31.059375,51.1954774 31.09875,49.7473484 32.731875,49.7473484 C33.211875,49.7473484 33.5625,49.9568968 33.841875,50.3554129 L33.871875,50.3554129 L33.871875,47.6780581 Z M28.933125,54.8925097 L28.933125,51.395671 C28.933125,50.8568323 28.741875,50.4171548 28.0425,50.4171548 C27.140625,50.4171548 27.01125,51.2160581 27.01125,51.9045742 L27.01125,54.8925097 L26.19,54.8925097 L26.19,50.8961226 C26.19,50.5462516 26.169375,50.1963806 26.139375,49.8465097 L27.01125,49.8465097 L27.01125,50.4976065 L27.050625,50.4976065 C27.37125,49.9269613 27.751875,49.7473484 28.4025,49.7473484 C29.484375,49.7473484 29.754375,50.3965742 29.754375,51.395671 L29.754375,54.8925097 L28.933125,54.8925097 Z M23.615625,54.8925097 L24.53625,54.8925097 L24.53625,47.679929 L23.615625,47.679929 L23.615625,54.8925097 Z M18.913125,54.8925097 L18.913125,51.395671 C18.913125,50.8568323 18.72375,50.4171548 18.0225,50.4171548 C17.1225,50.4171548 16.99125,51.2160581 16.99125,51.9045742 L16.99125,54.8925097 L16.171875,54.8925097 L16.171875,50.8961226 C16.171875,50.5462516 16.15125,50.1963806 16.12125,49.8465097 L16.99125,49.8465097 L16.99125,50.4976065 L17.0325,50.4976065 C17.353125,49.9269613 17.73375,49.7473484 18.384375,49.7473484 C19.464375,49.7473484 19.734375,50.3965742 19.734375,51.395671 L19.734375,54.8925097 L18.913125,54.8925097 Z M12.331875,48.5274774 L12.31125,48.5274774 L11.180625,52.3741871 L13.4925,52.3741871 L12.331875,48.5274774 Z M11.77125,47.6780581 L12.943125,47.6780581 L15.29625,54.8925097 L14.263125,54.8925097 L13.74375,53.1730903 L10.95,53.1730903 L10.408125,54.8925097 L9.478125,54.8925097 L11.77125,47.6780581 Z" id="Fill-1" fill="#231F20"></path>
                <path d="M176.01,12.6402581 C176.053125,13.3287742 176.484375,14.1258065 177.82125,14.1258065 C178.965,14.1258065 179.503125,13.4803226 179.503125,12.8348387 C179.503125,12.3390323 179.24625,11.9517419 177.995625,11.6074839 L176.01,11.0686452 C175.125,10.8104516 173.25,10.2734839 173.25,8.0563871 C173.25,5.94967742 175.190625,4.65870968 178.01625,4.65870968 C180.260625,4.65870968 182.07,5.6896129 182.15625,7.86367742 L179.24625,7.86367742 C179.16,6.65877419 178.18875,6.57270968 177.691875,6.57270968 C176.829375,6.57270968 176.184375,6.98245161 176.184375,7.64851613 C176.184375,8.38006452 176.7225,8.52974194 177.67125,8.78980645 L179.634375,9.32677419 C181.61625,9.8656129 182.544375,10.8759355 182.544375,12.3614839 C182.544375,14.2324516 180.92625,16.1052903 177.541875,16.1052903 C176.139375,16.1052903 174.8025,15.8040645 173.810625,14.7712903 C173.098125,14.0172903 173.034375,13.1566452 173.01375,12.6402581 L176.01,12.6402581 Z M165.22875,12.6402581 C165.27,13.3287742 165.703125,14.1258065 167.04,14.1258065 C168.18,14.1258065 168.721875,13.4803226 168.721875,12.8348387 C168.721875,12.3390323 168.463125,11.9517419 167.2125,11.6074839 L165.22875,11.0686452 C164.34375,10.8104516 162.46875,10.2734839 162.46875,8.0563871 C162.46875,5.94967742 164.409375,4.65870968 167.233125,4.65870968 C169.4775,4.65870968 171.286875,5.6896129 171.373125,7.86367742 L168.463125,7.86367742 C168.37875,6.65877419 167.405625,6.57270968 166.90875,6.57270968 C166.048125,6.57270968 165.399375,6.98245161 165.399375,7.64851613 C165.399375,8.38006452 165.939375,8.52974194 166.89,8.78980645 L168.853125,9.32677419 C170.835,9.8656129 171.763125,10.8759355 171.763125,12.3614839 C171.763125,14.2324516 170.145,16.1052903 166.75875,16.1052903 C165.35625,16.1052903 164.019375,15.8040645 163.029375,14.7712903 C162.315,14.0172903 162.253125,13.1566452 162.230625,12.6402581 L165.22875,12.6402581 Z M154.963125,4.65683871 C158.908125,4.65683871 160.6125,7.32670968 160.6125,10.3595484 C160.6125,13.4167097 158.84625,16.1707742 154.899375,16.1707742 C151.7925,16.1707742 149.334375,14.2549032 149.334375,10.4456129 C149.334375,7.82064516 150.67125,4.65683871 154.963125,4.65683871 L154.963125,4.65683871 Z M155.00625,13.9518065 C156.406875,13.9518065 157.359375,13.1136129 157.359375,10.2304516 C157.359375,8.78793548 157.074375,6.78787097 154.963125,6.78787097 C152.634375,6.78787097 152.611875,9.47832258 152.611875,10.4680645 C152.611875,12.8984516 153.43125,13.9518065 155.00625,13.9518065 L155.00625,13.9518065 Z M141.440625,7.58490323 C141.440625,7.06664516 141.35625,5.49690323 141.290625,4.872 L144.290625,4.872 L144.3525,6.96 C144.763125,6.03574194 145.47375,4.72232258 148.06125,4.85141935 L148.06125,7.714 C144.826875,7.41090323 144.635625,9.06858065 144.635625,10.4250323 L144.635625,15.7834839 L141.440625,15.7834839 L141.440625,7.58490323 Z M135.920625,5.30232258 C135.856875,4.76535484 135.661875,2.57070968 133.396875,2.57070968 C130.918125,2.57070968 129.883125,5.15264516 129.883125,8.3576129 C129.883125,9.28374194 129.883125,13.6936129 133.138125,13.6936129 C134.540625,13.6936129 135.8775,12.8123871 135.943125,10.7468387 L139.45875,10.7468387 C139.393125,11.6729677 139.306875,13.1136129 138.05625,14.4064516 C136.674375,15.8246452 134.926875,16.1464516 133.5075,16.1464516 C128.135625,16.1464516 126.388125,12.1874839 126.388125,8.33703226 C126.388125,3.40890323 129.15,0.138451613 133.528125,0.138451613 C136.935,0.138451613 139.33125,2.204 139.33125,5.30232258 L135.920625,5.30232258 Z M117.63375,11.1565806 C117.63375,11.8656774 117.63375,14.0603226 119.855625,14.0603226 C120.654375,14.0603226 121.45125,13.7590968 121.753125,12.5541935 L124.663125,12.5541935 C124.62,13.0705806 124.513125,13.9967097 123.628125,14.9209677 C122.83125,15.7610323 121.408125,16.1913548 119.8125,16.1913548 C118.884375,16.1913548 117.11625,16.0192258 115.974375,14.8367742 C114.980625,13.802129 114.571875,12.3390323 114.571875,10.5952903 C114.571875,8.83283871 115.003125,6.7223871 116.836875,5.45387097 C117.676875,4.89445161 118.711875,4.55019355 119.89875,4.55019355 C121.45125,4.55019355 123.3075,5.15264516 124.2975,7.17516129 C125.0325,8.66070968 124.9875,10.2510323 124.944375,11.1565806 L117.63375,11.1565806 Z M121.6875,9.15464516 C121.6875,8.66070968 121.644375,6.7223871 119.79375,6.7223871 C118.39125,6.7223871 117.80625,7.88612903 117.740625,9.15464516 L121.6875,9.15464516 Z M105.01875,4.91503226 L105.01875,11.3941935 C105.01875,12.3409032 105.01875,13.7815484 106.72125,13.7815484 C108.770625,13.7815484 108.770625,12.2529677 108.770625,10.4025806 L108.770625,4.91503226 L112.048125,4.91503226 L112.048125,12.0808387 C112.09125,14.4270323 112.11375,14.7058065 112.11375,14.9864516 C112.13625,15.2876774 112.156875,15.4803871 112.2,15.7816129 L109.095,15.7816129 L108.988125,14.3409677 C108.66375,14.8143226 107.84625,16.0622581 105.774375,16.0622581 C104.30625,16.0622581 103.09875,15.3943226 102.495,14.5991613 C101.7825,13.7179355 101.7825,12.2099355 101.7825,11.6710968 L101.7825,4.91503226 L105.01875,4.91503226 Z M95.895,15.7834839 L99.088125,15.7834839 L99.088125,0.224516129 L95.895,0.224516129 L95.895,15.7834839 Z M81.5775,0.245096774 L87.399375,0.245096774 C88.306875,0.245096774 90.0525,0.245096774 91.2375,0.978516129 C92.660625,1.88219355 92.985,3.38832258 92.985,4.292 C92.985,4.872 92.87625,5.88419355 92.079375,6.61574194 C91.970625,6.74483871 91.216875,7.43335484 90.309375,7.67096774 L90.309375,7.714 C92.685,8.14432258 93.61125,9.8656129 93.61125,11.4989677 C93.61125,13.3287742 92.533125,14.556129 91.32375,15.1585806 C90.11625,15.7816129 88.003125,15.7816129 87.399375,15.7816129 L81.5775,15.7816129 L81.5775,0.245096774 Z M84.76875,6.57270968 L87.0975,6.57270968 C88.04625,6.57270968 89.77125,6.57270968 89.77125,4.57077419 C89.77125,2.63619355 88.1325,2.63619355 87.03375,2.63619355 L84.76875,2.63619355 L84.76875,6.57270968 Z M84.76875,13.2876129 L87.03375,13.2876129 C88.56375,13.2876129 90.28875,13.2876129 90.28875,11.1996129 C90.28875,8.98251613 88.284375,8.98251613 86.686875,8.98251613 L84.76875,8.98251613 L84.76875,13.2876129 Z M292.635,0.278774194 L295.835625,0.278774194 L295.835625,14.0041935 C295.835625,14.6496774 295.880625,15.3569032 295.92375,15.7629032 L292.69875,15.7629032 L292.6125,14.1987742 C292.39875,14.5841935 292.18125,14.9920645 291.5175,15.4205161 C290.724375,15.9369032 289.884375,15.9780645 289.41,15.9780645 C286.51125,15.9780645 284.791875,13.9836129 284.791875,10.5952903 C284.791875,7.01425806 286.749375,4.78406452 289.5825,4.78406452 C291.54,4.78406452 292.3575,5.87670968 292.635,6.264 L292.635,0.278774194 Z M290.206875,13.92 C291.13125,13.92 291.885,13.3605806 292.224375,12.6982581 C292.69875,11.7964516 292.741875,10.6813548 292.741875,10.1462581 C292.741875,8.02083871 291.819375,6.86458065 290.3775,6.86458065 C288.25125,6.86458065 288.013125,9.41658065 288.013125,10.5092258 C288.013125,12.3109677 288.61875,13.92 290.206875,13.92 L290.206875,13.92 Z M279.48375,15.7629032 L282.66375,15.7629032 L282.66375,0.258193548 L279.48375,0.258193548 L279.48375,15.7629032 Z M270.09,11.1528387 C270.09,11.8600645 270.09,14.0472258 272.3025,14.0472258 C273.099375,14.0472258 273.8925,13.747871 274.1925,12.5467097 L277.095,12.5467097 C277.05375,13.0612258 276.945,13.9854839 276.06375,14.906 C275.26875,15.7423226 273.85125,16.1726452 272.259375,16.1726452 C271.336875,16.1726452 269.5725,16.0005161 268.4325,14.8199355 C267.448125,13.7909032 267.0375,12.3334194 267.0375,10.5934194 C267.0375,8.83658065 267.466875,6.73548387 269.293125,5.46883871 C270.13125,4.91316129 271.164375,4.56890323 272.345625,4.56890323 C273.8925,4.56890323 275.74125,5.16948387 276.73125,7.18451613 C277.460625,8.66632258 277.419375,10.2529032 277.37625,11.1528387 L270.09,11.1528387 Z M274.130625,9.1583871 C274.130625,8.66632258 274.089375,6.73548387 272.236875,6.73548387 C270.841875,6.73548387 270.260625,7.8936129 270.195,9.1583871 L274.130625,9.1583871 Z M261.448125,3.04593548 L264.84375,3.04593548 L264.84375,0.278774194 L261.448125,0.278774194 L261.448125,3.04593548 Z M261.555,15.7629032 L264.735,15.7629032 L264.735,4.91316129 L261.555,4.91316129 L261.555,15.7629032 Z M248.50875,0.278774194 L251.67,0.278774194 L251.67,6.41367742 C252.0375,5.89916129 252.830625,4.78406452 254.806875,4.78406452 C256.419375,4.78406452 257.4525,5.57735484 257.96625,6.24154839 C258.354375,6.77851613 258.675,7.76451613 258.675,9.18083871 L258.675,15.7629032 L255.5175,15.7629032 L255.5175,9.28748387 C255.5175,8.66445161 255.5175,6.92819355 253.7325,6.92819355 C252.830625,6.92819355 251.690625,7.44458065 251.690625,9.13780645 L251.71125,15.7629032 L248.50875,15.7629032 L248.50875,0.278774194 Z M236.83875,10.8085806 C236.83875,11.540129 236.795625,13.747871 239.655,13.747871 C241.45875,13.747871 242.600625,12.8909677 242.600625,11.5812903 C242.600625,10.209871 241.63125,9.97225806 239.655,9.50077419 C235.959375,8.5783871 233.94,7.48574194 233.94,4.80464516 C233.94,2.25264516 235.764375,0 240.084375,0 C241.696875,0 243.61125,0.36483871 244.771875,1.82419355 C245.65125,2.93741935 245.65125,4.1816129 245.65125,4.698 L242.450625,4.698 C242.405625,4.16103226 242.233125,2.33683871 239.93625,2.33683871 C238.3875,2.33683871 237.376875,3.17503226 237.376875,4.43980645 C237.376875,5.87858065 238.515,6.13490323 240.75,6.69245161 C243.436875,7.33606452 246.080625,8.06574194 246.080625,11.0892258 C246.080625,13.8769677 243.763125,16.1277419 239.461875,16.1277419 C233.506875,16.1277419 233.465625,12.3109677 233.445,10.8085806 L236.83875,10.8085806 Z M224.69625,11.1528387 C224.69625,11.8600645 224.69625,14.0472258 226.910625,14.0472258 C227.70375,14.0472258 228.49875,13.747871 228.800625,12.5467097 L231.70125,12.5467097 C231.661875,13.0612258 231.55125,13.9854839 230.67,14.906 C229.876875,15.7423226 228.4575,16.1726452 226.865625,16.1726452 C225.94125,16.1726452 224.17875,16.0005161 223.040625,14.8199355 C222.054375,13.7909032 221.64375,12.3334194 221.64375,10.5934194 C221.64375,8.83658065 222.073125,6.73548387 223.899375,5.46883871 C224.7375,4.91316129 225.770625,4.56890323 226.951875,4.56890323 C228.49875,4.56890323 230.349375,5.16948387 231.335625,7.18451613 C232.066875,8.66632258 232.02375,10.2529032 231.9825,11.1528387 L224.69625,11.1528387 Z M228.736875,9.1583871 C228.736875,8.66632258 228.69375,6.73548387 226.845,6.73548387 C225.448125,6.73548387 224.86875,7.8936129 224.803125,9.1583871 L228.736875,9.1583871 Z M212.1225,4.93374194 L212.1225,11.3885806 C212.1225,12.3334194 212.1225,13.7703226 213.819375,13.7703226 C215.86125,13.7703226 215.86125,12.2473548 215.86125,10.4025806 L215.86125,4.93374194 L219.129375,4.93374194 L219.129375,12.0752258 C219.1725,14.4120645 219.193125,14.6908387 219.193125,14.9714839 C219.21375,15.2708387 219.238125,15.4635484 219.279375,15.7629032 L216.18375,15.7629032 L216.075,14.327871 C215.754375,14.7974839 214.93875,16.0435484 212.874375,16.0435484 C211.41375,16.0435484 210.208125,15.3774839 209.60625,14.5823226 C208.899375,13.7048387 208.899375,12.2043226 208.899375,11.6673548 L208.899375,4.93374194 L212.1225,4.93374194 Z M203.02875,15.7629032 L206.20875,15.7629032 L206.20875,0.258193548 L203.02875,0.258193548 L203.02875,15.7629032 Z M188.76,0.278774194 L194.565,0.278774194 C195.465,0.278774194 197.206875,0.278774194 198.39,1.01032258 C199.8075,1.91025806 200.128125,3.41077419 200.128125,4.31070968 C200.128125,4.89070968 200.023125,5.89916129 199.22625,6.62883871 C199.119375,6.75606452 198.365625,7.44458065 197.46375,7.68032258 L197.46375,7.72148387 C199.828125,8.14993548 200.7525,9.8656129 200.7525,11.4952258 C200.7525,13.3194194 199.67625,14.5411613 198.474375,15.1417419 C197.270625,15.7629032 195.165,15.7629032 194.565,15.7629032 L188.76,15.7629032 L188.76,0.278774194 Z M191.94,6.58393548 L194.26125,6.58393548 C195.204375,6.58393548 196.9275,6.58393548 196.9275,4.59135484 C196.9275,2.66051613 195.2925,2.66051613 194.195625,2.66051613 L191.94,2.66051613 L191.94,6.58393548 Z M191.94,13.2745161 L194.195625,13.2745161 C195.72375,13.2745161 197.445,13.2745161 197.445,11.1977419 C197.445,8.98625806 195.4425,8.98625806 193.854375,8.98625806 L191.94,8.98625806 L191.94,13.2745161 Z M180.9075,26.9980645 L178.74375,26.9980645 L178.74375,25.811871 L180.9075,25.811871 L180.9075,23.5012258 L182.206875,22.9399355 L182.206875,25.811871 L184.6725,25.811871 L184.6725,26.9980645 L182.206875,26.9980645 L182.206875,34.2536774 C182.184375,35.2490323 182.70375,35.787871 183.70125,35.787871 C184.09125,35.787871 184.479375,35.7654194 184.824375,35.6587742 L184.824375,36.7813548 C184.411875,36.889871 183.939375,36.9759355 183.504375,36.9759355 C180.755625,36.9759355 180.9075,35.2265806 180.9075,33.757871 L180.9075,26.9980645 Z M169.245,36.6522581 L167.945625,36.6522581 L167.945625,28.2516129 C167.945625,27.4096774 167.88,26.5452903 167.83875,25.811871 L169.179375,25.811871 L169.245,27.4096774 L169.28625,27.4527097 C170.04375,26.1130968 171.279375,25.4863226 172.6875,25.4863226 C176.235,25.4863226 176.51625,28.6183226 176.51625,29.871871 L176.51625,36.6522581 L175.215,36.6522581 L175.215,29.6548387 C175.215,27.7763871 174.135,26.6743871 172.36125,26.6743871 C170.21625,26.6743871 169.245,28.4667742 169.245,30.4107097 L169.245,36.6522581 Z M160.198125,26.6743871 C157.580625,26.6743871 156.541875,29.2226452 156.541875,31.2320645 C156.541875,33.2396129 157.580625,35.787871 160.198125,35.787871 C162.8175,35.787871 163.858125,33.2396129 163.858125,31.2320645 C163.858125,29.2226452 162.8175,26.6743871 160.198125,26.6743871 L160.198125,26.6743871 Z M165.264375,31.2320645 C165.264375,34.0834194 163.66125,36.9759355 160.198125,36.9759355 C156.736875,36.9759355 155.13375,34.0834194 155.13375,31.2320645 C155.13375,28.3807097 156.736875,25.4863226 160.198125,25.4863226 C163.66125,25.4863226 165.264375,28.3807097 165.264375,31.2320645 L165.264375,31.2320645 Z M137.953125,27.4096774 L137.998125,27.4527097 C138.75375,26.1130968 139.985625,25.4863226 141.39375,25.4863226 C143.101875,25.4863226 144.44625,26.4367742 144.920625,27.8624516 C145.72125,26.5883226 146.979375,25.4863226 148.666875,25.4863226 C152.21625,25.4863226 152.495625,28.6183226 152.495625,29.871871 L152.495625,36.6522581 L151.198125,36.6522581 L151.198125,29.6548387 C151.198125,27.7763871 150.114375,26.6743871 148.33875,26.6743871 C146.199375,26.6743871 145.22625,28.4667742 145.22625,30.4107097 L145.22625,36.6522581 L143.925,36.6522581 L143.925,29.6548387 C143.925,27.7763871 142.845,26.6743871 141.0675,26.6743871 C138.92625,26.6743871 137.953125,28.4667742 137.953125,30.4107097 L137.953125,36.6522581 L136.65375,36.6522581 L136.65375,28.2516129 C136.65375,27.4096774 136.59,26.5452903 136.545,25.811871 L137.8875,25.811871 L137.953125,27.4096774 Z M130.76625,36.6522581 L129.470625,36.6522581 L129.470625,28.2516129 C129.49125,27.4096774 129.406875,26.5452903 129.361875,25.811871 L130.7025,25.811871 L130.76625,27.4096774 L130.813125,27.4096774 C131.20125,26.3076774 132.174375,25.5293548 133.25625,25.4863226 C133.689375,25.4657419 134.1225,25.4863226 134.5575,25.5087742 L134.5575,26.7604516 C134.295,26.739871 134.015625,26.6743871 133.755,26.6743871 C131.829375,26.6743871 130.813125,28.0570323 130.76625,30.1300645 L130.76625,36.6522581 Z M125.188125,30.3452258 C125.034375,28.2516129 123.909375,26.6743871 121.6575,26.6743871 C119.536875,26.6743871 118.411875,28.4461935 118.239375,30.3452258 L125.188125,30.3452258 Z M118.198125,31.5332903 C118.239375,33.8439355 119.29875,35.787871 121.96125,35.787871 C123.496875,35.787871 124.77375,34.6877419 125.098125,33.1965806 L126.463125,33.1965806 C125.791875,35.787871 124.17,36.9759355 121.550625,36.9759355 C118.303125,36.9759355 116.79,34.1900645 116.79,31.2320645 C116.79,28.2946452 118.411875,25.4863226 121.636875,25.4863226 C125.270625,25.4863226 126.594375,28.1430968 126.594375,31.5332903 L118.198125,31.5332903 Z M110.795625,35.2490323 L110.83875,35.2490323 L115.794375,21.0614839 L117.200625,21.0614839 L111.55125,36.6522581 L109.951875,36.6522581 L104.236875,21.0614839 L105.77625,21.0614839 L110.795625,35.2490323 Z M95.17125,36.6522581 L95.17125,26.9980645 L92.985,26.9980645 L92.985,25.811871 L95.17125,25.811871 L95.17125,23.5012258 C95.17125,21.6433548 95.930625,20.8014194 97.790625,20.8014194 C98.20125,20.8014194 98.634375,20.9529677 99.0225,21.0390323 L99.0225,22.0755484 C98.76375,22.0325161 98.4825,21.9894839 98.221875,21.9894839 C96.448125,21.9894839 96.405,22.8744516 96.470625,24.4292258 L96.470625,25.811871 L98.938125,25.811871 L98.938125,26.9980645 L96.470625,26.9980645 L96.470625,36.6522581 L95.17125,36.6522581 Z M86.49375,26.6743871 C83.874375,26.6743871 82.835625,29.2226452 82.835625,31.2320645 C82.835625,33.2396129 83.874375,35.787871 86.49375,35.787871 C89.11125,35.787871 90.15,33.2396129 90.15,31.2320645 C90.15,29.2226452 89.11125,26.6743871 86.49375,26.6743871 L86.49375,26.6743871 Z M91.558125,31.2320645 C91.558125,34.0834194 89.956875,36.9759355 86.49375,36.9759355 C83.030625,36.9759355 81.429375,34.0834194 81.429375,31.2320645 C81.429375,28.3807097 83.030625,25.4863226 86.49375,25.4863226 C89.956875,25.4863226 91.558125,28.3807097 91.558125,31.2320645 L91.558125,31.2320645 Z" id="Fill-3" fill="#231F20"></path>
                <path d="M0,26.158 L10.16625,26.158 L10.16625,36.3042581 L25.425,36.3042581 L25.425,26.158 L35.595,26.158 L35.595,10.8778065 L25.425,10.8778065 L25.425,0.731548387 L10.16625,0.731548387 L10.16625,10.8778065 L0,10.8778065 L0,26.158 Z M25.895625,36.7776129 L25.895625,36.3042581 L25.895625,36.7776129 Z M41.6362462,10.6514194 C41.6362462,13.8395484 42.118125,17.1567742 43.11,20.2195484 C45.255,26.8259355 49.366875,32.8149032 56.135625,36.6298065 C62.904375,32.8149032 67.018125,26.8259355 69.16125,20.2214194 C70.153125,17.1605161 70.6350038,13.8395484 70.6350038,10.6532903 C70.636875,6.8496129 69.945,3.23677419 68.656875,0.493935484 C64.72875,2.40232258 60.7275,3.364 56.135625,3.37522581 L56.04,3.37522581 C51.4875,3.37709677 47.514375,2.38735484 43.61625,0.493935484 C42.32625,3.23677419 41.634375,6.8496129 41.6362462,10.6514194 L41.6362462,10.6514194 Z" id="Fill-4" fill="#FEFEFE"></path>
            </g>
            <g id="Group-10" fill="#0076BB">
                <path d="M60.7994538,10.635 C60.7114795,10.9191429 60.5823256,10.9618571 60.4045051,11.1457143 C60.0413769,11.5208571 59.5285051,11.8737143 59.0792744,12.3602857 C58.7760436,12.6871429 58.4073,12.9267143 58.1751974,13.2981429 C58.1021974,13.417 57.9767872,13.5785714 57.9767872,13.5785714 C57.1120179,13.404 56.2416333,13.4355714 55.5677872,13.2962857 L55.5659154,12.3027143 C55.5659154,12.3027143 56.2528641,12.1894286 56.3820179,11.8495714 C56.3932487,11.8235714 56.372659,11.7084286 56.2753256,11.636 C56.1574026,11.5487143 55.9533769,11.4595714 55.8916077,11.4372857 C56.5823,11.545 57.010941,11.6582857 57.6773,11.9461429 C57.7222231,11.8737143 57.6960179,11.7121429 57.6473513,11.6564286 C57.5556333,11.5524286 57.5069667,11.519 57.2711205,11.4651429 C56.8611974,11.3592857 55.7549667,11.2237143 55.7549667,11.2237143 C55.7549667,11.2237143 56.2678385,11.2218571 56.6964795,11.1512857 C56.9042487,11.1178571 57.0764538,11.0807143 57.1232487,11.0082857 C57.1719154,10.9005714 57.0820692,10.7427143 56.9360692,10.5867143 C56.8368641,10.4845714 56.7264282,10.3768571 56.645941,10.2691429 C56.5467359,10.1317143 56.3801462,9.87914286 56.2004538,9.72128571 C56.0432231,9.58385714 55.6501462,9.38328571 55.6501462,9.38328571 C55.6501462,9.38328571 55.5827615,8.85028571 55.6931974,8.63485714 C55.7718128,8.47514286 55.9814538,8.38414286 56.0937615,8.438 C56.5879154,8.71285714 57.0783256,8.99514286 57.740941,9.10842857 C57.8794538,9.21057143 57.8794538,9.218 57.9225051,9.42042857 C58.0160949,9.86242857 57.9168897,10.5495714 58.0048641,10.856 C58.051659,10.9544286 58.1508641,10.9488571 58.2257359,10.9098571 C58.8415564,10.5792857 59.2589667,10.0091429 59.8841462,9.74728571 C60.1780179,9.62471429 60.9885051,10.0277143 60.7994538,10.635 L60.7994538,10.635 Z M57.9693,19.0292857 C57.9693,19.0292857 58.0235821,17.7757143 58.032941,17.1517143 C58.4110436,17.044 58.5832487,16.6521429 58.3923256,16.2955714 C58.3137103,16.1451429 58.1471205,16.056 57.9936333,16.017 C57.2729923,15.8368571 56.5972744,15.8145714 55.8504282,15.7792857 C55.2383513,15.7477143 54.6412487,15.705 54.0497615,15.5304286 C52.8724026,15.1812857 51.8578897,14.4402857 51.3450179,13.3222857 C50.751659,12.0297143 51.2083769,10.4307143 52.5261205,9.751 C53.5312744,9.23285714 54.6524795,9.32942857 55.6613769,9.71385714 C56.0114026,9.84757143 56.1985821,10.1484286 56.4157103,10.4418571 C56.5130436,10.5737143 56.6590436,10.6275714 56.7432744,10.7724286 C56.7938128,10.8541429 56.6833769,10.895 56.6347103,10.908 C56.4138385,10.9655714 55.6726077,10.9748571 55.4311462,10.947 C55.131659,10.9117143 54.6244026,10.9265714 54.3230436,10.9878571 C54.6431205,11.1661429 54.9594538,11.3165714 55.277659,11.4372857 C55.4685821,11.5097143 55.6538897,11.5505714 55.8298385,11.6415714 C55.9028385,11.6787143 56.0469667,11.7362857 56.061941,11.8012857 C56.0469667,11.8718571 55.8597872,11.922 55.7343769,11.9591429 C55.4479923,12.0445714 55.0867359,12.0464286 54.7236077,11.9628571 C54.1470949,11.831 53.7072231,11.5004286 53.3104026,11.6248571 C53.0651974,11.7028571 53.0127872,12.1764286 53.0726846,12.4122857 C53.214941,13.0028571 53.9505564,13.2647143 54.4821462,13.4337143 C56.0563256,13.9388571 57.740941,13.599 59.2776846,14.3827143 C59.8691718,14.6854286 60.387659,15.354 60.5111974,16.0095714 C61.0296846,18.7414286 57.9693,19.0292857 57.9693,19.0292857 L57.9693,19.0292857 Z M55.0755051,16.9492857 C55.0305821,16.8322857 55.1260436,16.7097143 55.1522487,16.667 C55.2065308,16.5704286 55.569659,16.4181429 55.569659,16.4181429 L55.5715308,16.1507143 C55.5715308,16.1507143 55.9121974,16.1377143 56.6627872,16.1878571 C57.2411718,16.2268571 57.6529667,16.3122857 57.6529667,16.3122857 L57.6361205,19.4991429 C56.9529154,19.4062857 56.4587615,19.423 55.8972231,19.3431429 C55.7811718,18.5018571 55.3712487,17.7385714 55.0755051,16.9492857 L55.0755051,16.9492857 Z M59.8017872,22.3015714 C59.6969667,22.7491429 59.4068385,23.1057143 58.9407615,23.3842857 C58.4466077,23.6795714 57.8345308,23.7018571 57.8345308,23.7018571 L57.8775821,22.1994286 C57.8775821,22.1994286 58.0928385,22.1437143 58.1751974,22.0434286 C58.251941,21.9505714 58.2650436,21.8614286 58.2294795,21.7444286 C58.2051462,21.6627143 58.1377615,21.5847143 58.0048641,21.5271429 C57.8551205,21.4621429 57.6529667,21.4565714 57.5575051,21.4472857 C56.810659,21.3581429 56.1106077,21.3228571 55.3918385,21.152 C54.4840179,20.9365714 53.6585564,20.268 53.7933256,19.0162857 C53.8644538,18.3718571 54.2725051,17.7924286 54.9014282,17.525 C55.0081205,17.7218571 55.1578641,18.0877143 55.2608128,18.3514286 C55.3806077,18.7024286 55.4891718,19.059 55.4891718,19.059 C55.4891718,19.059 55.2701718,19.1667143 55.2945051,19.3988571 C55.3057359,19.527 55.4367615,19.6347143 55.5771462,19.6532857 C56.5036846,19.7832857 57.4732744,19.7368571 58.3661205,20.0488571 C58.7985051,20.1992857 59.2252744,20.4388571 59.4704795,20.7731429 C59.8392231,21.2764286 59.9234538,21.7834286 59.8017872,22.3015714 L59.8017872,22.3015714 Z M56.1648897,21.6552857 C56.7694795,21.7277143 57.0465051,21.7332857 57.5593769,21.7945714 L57.5350436,24.493 L56.8537103,24.1828571 L56.1798641,23.9061429 L56.1648897,21.6552857 Z M58.4803,27.6575714 C58.1527359,27.925 57.7091205,28.0178571 57.7091205,28.0178571 L57.7278385,26.963 C57.7278385,26.963 57.8813256,26.8385714 57.8476333,26.7048571 C57.7933513,26.4912857 57.0708385,26.0492857 56.6627872,25.8932857 C56.2453769,25.7335714 55.7362487,25.5608571 55.350659,25.3732857 C54.6075564,25.0111429 54.1433513,24.155 54.5139667,23.284 C54.6506077,22.9608571 54.9575821,22.7621429 55.1597359,22.6432857 C55.3806077,22.5151429 55.8448128,22.4222857 55.8448128,22.4222857 L55.8597872,23.6405714 C55.8597872,23.6405714 55.788659,23.6814286 55.7530949,23.7928571 C55.7194026,23.8968571 55.7998897,24.0677143 55.8859923,24.1067143 C56.4905821,24.3722857 57.2673769,24.6712857 57.9094026,25.0464286 C58.7367359,25.5274286 59.0081462,25.975 59.0100296,26.5525714 C59.0118897,27.0762857 58.7872744,27.405 58.4803,27.6575714 L58.4803,27.6575714 Z M57.3553513,30.3485714 C57.3497359,30.486 57.2393,30.7255714 56.8537103,30.7032857 C56.5411205,30.6865714 56.3595564,30.603 56.3464538,30.2798571 C56.2959154,28.8517143 56.2678385,26.092 56.2678385,26.092 C56.2678385,26.092 56.6871205,26.2461429 56.8761718,26.3575714 C56.9398128,26.3928571 57.1999923,26.5247143 57.3834282,26.7122857 C57.4227359,26.7717143 57.4545564,26.7828571 57.4470692,26.8701429 C57.4283513,27.9101429 57.3703256,29.8917143 57.3553513,30.3485714 L57.3553513,30.3485714 Z M55.769941,29.2008571 C55.7044282,29.5722857 55.8073769,29.7282857 55.7362487,29.8972857 C55.6501462,30.1034286 55.404941,30.1182857 55.3001205,29.8954286 C55.1728385,29.6242857 55.0549154,29.4812857 55.0998385,28.978 C55.1485051,28.4171429 55.4292744,28.0624286 55.5958641,27.8897143 C55.8186077,27.6575714 56.0114026,27.5572857 56.0114026,27.5572857 L56.0338641,28.783 C56.0338641,28.783 55.8167359,28.9315714 55.769941,29.2008571 L55.769941,29.2008571 Z M66.5814282,5.69685714 C64.8350436,6.15928571 63.2047103,6.54185714 61.5163513,6.76842857 C59.8298641,6.99314286 58.1620949,7.15842857 56.518659,7.16771429 L56.5055564,7.16771429 C54.8639923,7.15842857 53.1943513,6.99314286 51.5078641,6.76842857 C49.8213769,6.54185714 48.1910436,6.15928571 46.4427872,5.69685714 C45.2186333,9.13628571 45.4806846,13.4708571 46.4203256,17.33 C48.1873,24.5988571 52.6103513,30.1257143 56.5130436,32.5604286 C60.4138641,30.1257143 64.8369154,24.5988571 66.6038897,17.33 C67.5435308,13.4708571 67.8055821,9.13628571 66.5814282,5.69685714 L66.5814282,5.69685714 Z M55.6819667,10.1205714 C55.3749923,9.80671429 54.8340436,9.84571429 54.4222487,9.83271429 C54.528941,10.0295714 54.6431205,9.92185714 54.7629154,10.0054286 C54.9575821,10.141 54.9164026,10.3861429 55.2009154,10.3415714 C55.3431718,10.3174286 55.4311462,10.2264286 55.5584282,10.1372857 C55.5752744,10.1261429 55.6445308,10.1001429 55.6819667,10.1205714 L55.6819667,10.1205714 Z M67.3189154,19.6087143 C65.351659,25.3435714 62.2781718,30.4228571 56.5130436,33.9681429 C56.5149154,33.9681429 56.5167872,33.9718571 56.5205308,33.9718571 L56.5055564,33.9718571 C56.5074282,33.9718571 56.5093,33.9681429 56.5130436,33.9681429 C50.7460436,30.4228571 47.6725564,25.3435714 45.7053,19.6087143 C43.9589154,14.5164286 43.5302744,8.55685714 45.4526077,3.90657143 C48.3351718,4.889 50.0254026,5.19171429 51.5958385,5.435 C53.0577103,5.66157143 54.3642231,5.799 56.5055564,5.82685714 L56.5205308,5.82685714 C58.6618641,5.799 59.9683769,5.66157143 61.4302487,5.435 C62.9988128,5.19171429 64.6890436,4.889 67.5716077,3.90657143 C69.4958128,8.55685714 69.0671718,14.5164286 67.3189154,19.6087143 L67.3189154,19.6087143 Z M69.2262744,0.0548571429 C65.2225051,2.05685714 61.1944026,3.05971429 56.5130436,3.07457143 C51.8298128,3.08757143 47.8035821,2.05685714 43.7998128,0.0548571429 C41.1680692,5.19357143 40.7899667,13.4374286 43.0623256,20.4072857 C45.2523256,27.1245714 49.5013,33.242 56.5130436,37.0862857 C63.5229154,33.242 67.7737615,27.1245714 69.9637615,20.4072857 C72.2342487,13.4374286 71.8580179,5.19357143 69.2262744,0.0548571429 L69.2262744,0.0548571429 Z M68.5280949,34.6367143 L68.9155564,34.6367143 C69.2412487,34.6367143 69.5426077,34.62 69.5426077,34.2485714 C69.5426077,33.9347143 69.2693256,33.8845714 69.0185051,33.8845714 L68.5280949,33.8845714 L68.5280949,34.6367143 Z M68.1574795,33.5874286 L69.0784026,33.5874286 C69.6455564,33.5874286 69.9113513,33.8102857 69.9113513,34.2634286 C69.9113513,34.6905714 69.639941,34.8688571 69.2861718,34.9078571 L69.9656333,35.9497143 L69.5688128,35.9497143 L68.9193,34.9338571 L68.5280949,34.9338571 L68.5280949,35.9497143 L68.1574795,35.9497143 L68.1574795,33.5874286 Z M68.9529923,36.4957143 C69.8963769,36.4957143 70.6263769,35.7491429 70.6263769,34.7611429 C70.6263769,33.7935714 69.8963769,33.047 68.9529923,33.047 C68.0002487,33.047 67.2683769,33.7935714 67.2683769,34.7611429 C67.2683769,35.7491429 68.0002487,36.4957143 68.9529923,36.4957143 L68.9529923,36.4957143 Z M68.9529923,32.7498571 C70.0648385,32.7498571 70.9951205,33.6208571 70.9951205,34.7611429 C70.9951205,35.9237143 70.0648385,36.7928571 68.9529923,36.7928571 C67.8355308,36.7928571 66.8996333,35.9237143 66.8996333,34.7611429 C66.8996333,33.6208571 67.8355308,32.7498571 68.9529923,32.7498571 L68.9529923,32.7498571 Z" id="Fill-6"></path>
                <path d="M18.4081667,21.3072571 C18.3295513,21.2032571 18.2191154,21.1976857 18.1255256,21.3072571 L14.7544231,26.4274 C15.8269615,26.9028286 17.0174231,27.1684 18.2677821,27.1684 C19.518141,27.1684 20.7067308,26.9028286 21.781141,26.4274 L18.4081667,21.3072571 C18.3164487,21.1976857 18.204141,21.2032571 18.1255256,21.3072571 L18.4081667,21.3072571 Z M24.4540641,26.4292571 L24.4596795,26.4404 L19.8513205,17.8566857 C19.5162692,17.1286857 19.6622692,15.9104 20.9257308,15.7395429 L27.6529615,15.0932571 L27.6529615,15.0914 L27.6548333,15.0932571 L27.6529615,15.0932571 C28.0685,16.1834 28.2949872,17.3664 28.2949872,18.5995429 C28.2949872,21.7789714 26.7919359,24.6074 24.4540641,26.4292571 L24.4540641,26.4292571 Z M23.7802179,26.9195429 L23.7764744,26.9139714 C22.1948077,27.9465429 20.3024231,28.5482571 18.2677821,28.5482571 C16.233141,28.5482571 14.3388846,27.9465429 12.7572179,26.9139714 L12.7534744,26.9195429 L12.7534744,26.9102571 L12.7572179,26.9139714 L17.6426026,19.6674 C18.003859,19.1622571 18.5504231,19.2031143 18.8929615,19.6674 L23.7764744,26.9139714 L23.7802179,26.9102571 L23.7802179,26.9195429 Z M12.0740128,26.4404 L12.0815,26.4292571 C9.74362821,24.6074 8.24057692,21.7789714 8.24057692,18.5995429 C8.24057692,17.3664 8.4670641,16.1834 8.88073077,15.0932571 L8.87885897,15.0932571 L8.88073077,15.0914 L8.88073077,15.0932571 L15.6098333,15.7395429 C16.8714231,15.9104 17.0192949,17.1286857 16.6842436,17.8566857 L12.0815,26.4292571 L12.0740128,26.4404 Z M18.2677821,8.65268571 C22.2883974,8.65268571 25.7587051,11.0001143 27.3534744,14.3912571 L20.2181923,14.3912571 C19.1999359,14.3708286 18.7525769,13.7802571 18.7319872,13.2974 C18.7057821,12.7254 18.7975,12.5471143 19.2729359,11.9379714 C19.7895513,11.2564 19.4301667,9.9434 18.2677821,9.92111429 C17.1053974,9.9434 16.7460128,11.2564 17.2626282,11.9379714 C17.7380641,12.5471143 17.8279103,12.7254 17.8035769,13.2974 C17.7829872,13.7802571 17.3337564,14.3708286 16.3155,14.3912571 L9.18021795,14.3912571 C10.776859,11.0001143 14.2471667,8.65268571 18.2677821,8.65268571 L18.2677821,8.65268571 Z M26.325859,10.5209714 L26.325859,0.449685714 L10.1516795,0.449685714 L10.1516795,10.5209714 L0.000935897437,10.5209714 L0.000935897437,26.6242571 L10.1516795,26.6242571 L10.1516795,36.6955429 L26.325859,36.6955429 L26.325859,26.6242571 L36.4784744,26.6242571 L36.4784744,10.5209714 L26.325859,10.5209714 Z M20.6655513,10.3686857 C21.1746795,11.2099714 20.7628846,12.3056857 20.2818333,12.8238286 C20.1919872,12.9129714 20.2369103,13.0076857 20.3173974,13.0299714 L24.8302949,13.0318286 C23.7483974,11.7782571 22.3052436,10.8385429 20.6655513,10.3686857 L20.6655513,10.3686857 Z M26.6552949,16.5622571 L21.5602692,17.0284 C21.1933974,17.0581143 21.1653205,17.2122571 21.2514231,17.4221143 L24.8190641,24.1802571 C26.1180897,22.6815429 26.9023718,20.7315429 26.9023718,18.5995429 C26.9023718,17.8975429 26.8162692,17.2159714 26.6552949,16.5622571 L26.6552949,16.5622571 Z M11.7052692,13.0318286 L16.2181667,13.0299714 C16.2967821,13.0076857 16.3417051,12.9129714 16.251859,12.8238286 C15.7726795,12.3056857 15.3608846,11.2099714 15.8700128,10.3686857 C14.2265769,10.8385429 12.7871667,11.7782571 11.7052692,13.0318286 L11.7052692,13.0318286 Z M9.63319231,18.5995429 C9.63319231,20.7315429 10.4174744,22.6815429 11.7165,24.1802571 L15.284141,17.4221143 C15.3683718,17.2122571 15.3402949,17.0581143 14.9734231,17.0284 L9.87839744,16.5622571 C9.71929487,17.2159714 9.63319231,17.8975429 9.63319231,18.5995429 L9.63319231,18.5995429 Z M34.0095769,34.5524 L34.3970385,34.5524 C34.7246026,34.5524 35.0240897,34.5356857 35.0240897,34.1624 C35.0240897,33.8485429 34.7508077,33.8002571 34.501859,33.8002571 L34.0095769,33.8002571 L34.0095769,34.5524 Z M33.6408333,33.5031143 L34.5598846,33.5031143 C35.1270385,33.5031143 35.3947051,33.7259714 35.3947051,34.1791143 C35.3947051,34.6062571 35.1214231,34.7845429 34.7676538,34.8235429 L35.4489872,35.8654 L35.0502949,35.8654 L34.4026538,34.8495429 L34.0095769,34.8495429 L34.0095769,35.8654 L33.6408333,35.8654 L33.6408333,33.5031143 Z M34.4363462,36.4114 C35.377859,36.4114 36.107859,35.6648286 36.107859,34.6768286 C36.107859,33.7092571 35.377859,32.9626857 34.4363462,32.9626857 C33.4817308,32.9626857 32.7517308,33.7092571 32.7517308,34.6768286 C32.7517308,35.6648286 33.4817308,36.4114 34.4363462,36.4114 L34.4363462,36.4114 Z M34.4363462,32.6655429 C35.5463205,32.6655429 36.4784744,33.5346857 36.4784744,34.6768286 C36.4784744,35.8394 35.5463205,36.7085429 34.4363462,36.7085429 C33.3188846,36.7085429 32.3811154,35.8394 32.3811154,34.6768286 C32.3811154,33.5346857 33.3188846,32.6655429 34.4363462,32.6655429 L34.4363462,32.6655429 Z" id="Fill-8"></path>
            </g>
        </g>
    </g>
</svg>