<svg id="Layer_2" xmlns="http://www.w3.org/2000/svg" viewBox="0 0 133.2 68.4"><style>.st0{fill:#008bcc}</style><path class="st0" d="M62.8 65.8c-1.7 0-3-1.2-3-3 0-1.7 1.2-2.9 3-2.9 1.7 0 2.9 1.2 2.9 2.9.1 1.7-1.2 3-2.9 3m0-6.5c-1.9 0-3.5 1.6-3.5 3.5s1.6 3.5 3.5 3.5 3.5-1.6 3.5-3.5-1.5-3.5-3.5-3.5"/><path class="st0" d="M62.7 62.5H62v-1.3h1.1c.5 0 1 .1 1 .6 0 .8-.8.7-1.4.7m1.9-.6c0-.7-.4-1.1-1.4-1.1h-1.7v4h.5V63h.9l1.1 1.8h.6L63.4 63c.7-.1 1.2-.4 1.2-1.1M48.8 20.4V2.8h-28v17.6H3.2v28.1h17.6V66h28V48.5h17.6V20.4H48.8z"/><g><path class="st0" d="M123.1 65.8c-1.7 0-2.9-1.2-2.9-2.9s1.2-2.9 2.9-2.9 2.9 1.2 2.9 2.9-1.2 2.9-2.9 2.9m0-6.4c-1.9 0-3.5 1.5-3.5 3.4s1.6 3.5 3.5 3.5 3.4-1.5 3.4-3.5c.1-1.8-1.5-3.4-3.4-3.4"/><path class="st0" d="M123 62.6h-.7v-1.3h1.1c.5 0 .9.1.9.6.1.8-.7.7-1.3.7m1.9-.6c0-.7-.3-1.1-1.4-1.1h-1.7v3.9h.5v-1.7h.8l1.1 1.7h.6l-1.2-1.7c.8-.1 1.3-.4 1.3-1.1M122.8 2.8c-6.8 3.4-13.6 5.3-21.5 5.3-8 0-14.7-1.9-21.5-5.3-4.5 8.8-5.2 23.1-1.3 35 3.7 11.5 10.9 22 22.8 28.5 11.9-6.6 19.1-17 22.8-28.5 3.9-11.9 3.2-26.2-1.3-35M101.3 58.6z"/></g></svg>
