<svg id="Layer_1" data-name="Layer 1" xmlns="http://www.w3.org/2000/svg" viewBox="0 0 446.02 101.67"><defs><style>.cls-1{fill:#244b5a;}.cls-2{fill:#f5a800;}.cls-3{fill:#6abf4b;}.cls-4{fill:#00c4b3;}</style></defs><path class="cls-1" d="M134.9,121.4H132v-3.9l13.6-.1c5.4,0,9.3,2.9,9.3,8.1a7.46,7.46,0,0,1-3.9,6.9v.1c3.4,1,5.2,4.1,5.3,7.7,0,6-4.5,9.1-10.2,9.1H138c-2,0-2.9-.8-2.9-2.9Zm10.7,9.4a4.52,4.52,0,0,0,4.6-4.8,4.36,4.36,0,0,0-4.7-4.7h-6.1l.1,9.5Zm-5.1,14.6h5.7c3.4,0,5.3-2.2,5.3-5.4a5.09,5.09,0,0,0-5.4-5.4h-6.7l.1,9.9A.92.92,0,0,0,140.5,145.4Z" transform="translate(-30.98 -48.03)"/><path class="cls-1" d="M161.8,122.1a.9.9,0,0,0-1-1H159v-3.7h4.3c2,0,2.9.8,2.9,2.9l.1,24.2a.9.9,0,0,0,1,1h1.8v3.7h-4.3c-2,0-2.9-.8-2.9-2.9Z" transform="translate(-30.98 -48.03)"/><path class="cls-1" d="M173.9,131a.9.9,0,0,0-1-1h-1.8v-3.7h4.3c2.1,0,2.9.8,2.9,2.8l.1,10.8c0,3.2.7,5.7,4.3,5.7,4.7,0,7.4-4.1,7.4-8.6l-.1-10.7h4.4l.1,18.1a.9.9,0,0,0,1,1h1.8v3.7h-4.2c-1.9,0-2.9-.9-2.9-2.5v-2.2h-.1a9.09,9.09,0,0,1-8.3,5.3c-5.1,0-7.8-2.7-7.8-8.7Z" transform="translate(-30.98 -48.03)"/><path class="cls-1" d="M211.2,125.5c6.4,0,9.8,4.7,9.9,10.6,0,.6-.1,1.8-.1,1.8l-16.6.1a7.64,7.64,0,0,0,7.9,7.6,10.61,10.61,0,0,0,6.7-2.7l1.9,3.1a13.3,13.3,0,0,1-8.8,3.4c-7.2,0-12.1-5.1-12.2-11.9C199.8,130.3,204.7,125.6,211.2,125.5Zm5.4,9.3c-.2-3.8-2.6-5.8-5.4-5.8-3.3,0-6,2.1-6.7,5.9Z" transform="translate(-30.98 -48.03)"/><path class="cls-1" d="M226.6,142.4a9.33,9.33,0,0,0,6.9,3.3c2.1,0,4-1,3.9-3,0-4.1-12.5-3.6-12.5-10.9,0-4.4,3.8-6.4,8.4-6.4,2.7,0,7.5.9,7.5,4.4V132h-3.9v-1.1c0-1.4-2-1.9-3.4-1.9-2.6,0-4.2.9-4.2,2.7,0,4.3,12.5,3.3,12.5,10.9,0,4.1-3.6,6.7-8.3,6.7a11.69,11.69,0,0,1-9.1-4Z" transform="translate(-30.98 -48.03)"/><path class="cls-1" d="M247.5,129.4h-3v-3.5h3.1v-6.3h4.3v6.3h5.5v3.5h-5.5l.1,10.4c0,4.5,3.2,5.1,4.8,5.1a4.54,4.54,0,0,0,1-.1v3.9a10.07,10.07,0,0,1-1.5.1c-2.9,0-8.7-.8-8.7-8.5Z" transform="translate(-30.98 -48.03)"/><path class="cls-1" d="M272,125.2c6.4,0,9.8,4.7,9.9,10.6,0,.6-.1,1.8-.1,1.8l-16.6.1a7.64,7.64,0,0,0,7.9,7.6,10.61,10.61,0,0,0,6.7-2.7l1.9,3.1a13.3,13.3,0,0,1-8.8,3.4c-7.2,0-12.1-5.1-12.2-11.9C260.5,129.9,265.5,125.2,272,125.2Zm5.3,9.2c-.2-3.8-2.6-5.8-5.4-5.8-3.3,0-6,2.1-6.7,5.9Z" transform="translate(-30.98 -48.03)"/><path class="cls-1" d="M287.6,130.3a.9.9,0,0,0-1-1h-1.8v-3.7H289c2,0,2.9.8,2.9,2.5v2.2h.1a8.82,8.82,0,0,1,7.8-5.3c3.9,0,6.1,1.7,6.9,5.1h.1a9,9,0,0,1,8.1-5.2c5.1,0,7.5,2.9,7.6,8.7l.1,9.9a.9.9,0,0,0,1,1h1.8v3.7h-4.3c-2,0-2.9-.8-2.9-2.9l-.1-10.8c0-3.2-.7-5.7-4-5.7s-5.6,2.8-6.4,5.9a14.16,14.16,0,0,0-.3,3.1l.1,10.4h-4.4l-.1-13.6c0-3-.5-5.7-4-5.7-3.3,0-5.7,2.8-6.5,6.1a13.58,13.58,0,0,0-.3,2.9l.1,10.4h-4.4Z" transform="translate(-30.98 -48.03)"/><path class="cls-1" d="M384.6,124.5c6.5,0,10,4.8,10,10.8,0,.6-.1,1.8-.1,1.8l-16.8.1a7.81,7.81,0,0,0,8,7.7,10.28,10.28,0,0,0,6.7-2.7l1.9,3.1a13.4,13.4,0,0,1-8.9,3.4c-7.3,0-12.3-5.2-12.4-12C373,129.3,378,124.5,384.6,124.5Zm5.4,9.4c-.2-3.8-2.6-5.9-5.5-5.9a6.69,6.69,0,0,0-6.8,5.9Z" transform="translate(-30.98 -48.03)"/><path class="cls-1" d="M412.2,133.6h1v-.2c0-4.1-1.5-5.5-5.1-5.5-1.1,0-3.8.3-3.8,1.8V131h-4.2v-2.3c0-3.8,5.7-4.4,8-4.4,7.5,0,9.5,3.9,9.5,9l.1,9.8a.9.9,0,0,0,1,1h1.9v3.8h-4.2c-2.1,0-2.9-1-2.9-2.6a9.44,9.44,0,0,1,.1-1.4h-.1a7.83,7.83,0,0,1-7.3,4.6c-4,0-7.9-2.4-7.9-7C398.3,134.1,408.3,133.6,412.2,133.6ZM407.1,145c3.7,0,6.1-4,6.1-7.4v-.8h-1.1c-3.3,0-9.4.2-9.3,4.5C402.8,143.2,404.2,145,407.1,145Z" transform="translate(-30.98 -48.03)"/><path class="cls-1" d="M425.1,120.5a.9.9,0,0,0-1-1h-1.9v-3.8h4.4c2.1,0,2.9.8,2.9,2.9l.1,24.5a.9.9,0,0,0,1,1h1.9v3.8h-4.4c-2.1,0-2.9-.8-2.9-2.9Z" transform="translate(-30.98 -48.03)"/><path class="cls-1" d="M437.7,128.3h-3v-3.6h3.1v-6.3h4.3v6.3h5.5v3.6h-5.5l.1,10.6c0,4.6,3.2,5.2,4.9,5.2a4.54,4.54,0,0,0,1-.1v3.9a10.76,10.76,0,0,1-1.6.1c-2.9,0-8.8-.9-8.9-8.6Z" transform="translate(-30.98 -48.03)"/><path class="cls-1" d="M453,120.3a.9.9,0,0,0-1-1h-1.9v-3.8h4.4c2.1,0,2.9.8,2.9,2.8l.1,9a17,17,0,0,1-.1,1.9h.1a9.41,9.41,0,0,1,8.6-5.2c5.4,0,7.9,2.9,7.9,8.8l.1,10a.9.9,0,0,0,1,1H477v3.8h-4.3c-2.1,0-2.9-.8-2.9-2.9l-.1-10.9c0-3.2-.7-5.8-4.4-5.8a7.68,7.68,0,0,0-7.3,5.7,10.12,10.12,0,0,0-.4,3.1l.1,10.8h-4.4Z" transform="translate(-30.98 -48.03)"/><path class="cls-1" d="M364.2,116l.1,14.2-16.4.1-.1-11.3c0-2.1-.9-2.9-2.9-2.9h-4.6V120h2a.9.9,0,0,1,1,1l.2,27.3h4.6l-.1-14.2,16.4-.1.1,14.2h4.6l-.2-32.3Z" transform="translate(-30.98 -48.03)"/><path class="cls-2" d="M42.2,72.5a1,1,0,0,0-1-.7,1.71,1.71,0,0,0-1.3.7,42.9,42.9,0,0,0-8.1,15.9c-4.9,17.9,12.9,37,32.2,44.5h.1a1.07,1.07,0,0,0,1.1-.3,1.39,1.39,0,0,0,.1-1.4c-8.7-20.5-17.9-40.4-23.1-58.7" transform="translate(-30.98 -48.03)"/><path class="cls-1" d="M104.6,58.1a1.53,1.53,0,0,0-.6-1.6,49.16,49.16,0,0,0-14.3-8.4.94.94,0,0,0-.9.1,1.37,1.37,0,0,0-.5.8c-3.6,27.2-13,56.4-17.6,84.1a1.62,1.62,0,0,0,1,1.7c.1,0,.1,0,.2.1a1.11,1.11,0,0,0,1.3-.8c4.1-12.7,27.2-64.5,31.4-76" transform="translate(-30.98 -48.03)"/><path class="cls-1" d="M82.2,53a1.43,1.43,0,0,0-.3-1.1,1.46,1.46,0,0,0-.9-.6h0c-12.4-2.9-24.9,3.9-35,15.3a1.55,1.55,0,0,0-.4,1.4c4.8,17.1,13,35.3,20.9,54a1.44,1.44,0,0,0,1.1.9h.3a1.28,1.28,0,0,0,1.2-1.1C72.5,101.6,81.9,55.4,82.2,53" transform="translate(-30.98 -48.03)"/><path class="cls-3" d="M125.2,102.1a1,1,0,0,0-.6-1.2,1.84,1.84,0,0,0-1.6.2c-14.4,11-29,24-41.2,35.3a1.44,1.44,0,0,0-.4,1.5,1.28,1.28,0,0,0,1,1h.1c17.4,1.2,36.7-17.9,42.5-36.1a6.37,6.37,0,0,0,.2-.7" transform="translate(-30.98 -48.03)"/><path class="cls-4" d="M80.9,126.7a1.73,1.73,0,0,0,.4,1.7l.6.3a1,1,0,0,0,1-.3c12-10.4,25.6-21.9,38.8-31.6a1.7,1.7,0,0,0,.6-1c.7-10.4-5.2-20.3-14.5-28.7a1.47,1.47,0,0,0-1.2-.4,1,1,0,0,0-.9.7c-2.8,7.4-20.2,47.3-24.8,59.3" transform="translate(-30.98 -48.03)"/></svg>