<?xml version="1.0" encoding="utf-8"?>
<!-- Generator: Adobe Illustrator 27.2.0, SVG Export Plug-In . SVG Version: 6.00 Build 0)  -->
<svg version="1.1" id="Layer_1" xmlns="http://www.w3.org/2000/svg" xmlns:xlink="http://www.w3.org/1999/xlink" x="0px" y="0px"
	 viewBox="0 0 233.9 30" style="enable-background:new 0 0 233.9 30;" xml:space="preserve">
<style type="text/css">
	.st0{fill:#FFFFFF;}
	.st1{fill:#0082CA;}
	.st2{fill:#2D2A26;}
	.st3{fill:#231F20;}
</style>
<path class="st0" d="M23.7,15.1c0,1.7-0.5,3.3-1.5,4.7s-2.3,2.5-3.9,3.1c-1.6,0.6-3.3,0.8-5,0.5c-1.7-0.3-3.2-1.1-4.5-2.3
	c-1.2-1.2-2.1-2.7-2.4-4.4c-0.3-1.7-0.2-3.4,0.5-4.9c0.7-1.6,1.8-2.9,3.2-3.8C11.6,7,13.3,6.5,15,6.5c1.1,0,2.3,0.2,3.3,0.6
	c1.1,0.4,2,1.1,2.8,1.8c0.8,0.8,1.5,1.7,1.9,2.8C23.5,12.8,23.7,13.9,23.7,15.1z"/>
<path class="st1" d="M12.3,13.8l-4.1-0.4C8,14,7.9,14.5,7.9,15.1c0,1.7,0.6,3.3,1.7,4.5l2.9-5.5C12.6,14,12.5,13.8,12.3,13.8"/>
<path class="st1" d="M15,17.2C14.9,17.2,14.9,17.2,15,17.2c-0.1,0-0.1,0-0.1,0.1l-2.8,4.2C13,21.8,14,22,15,22c1,0,2-0.2,2.9-0.6
	l-2.8-4.2C15.1,17.2,15,17.2,15,17.2C15,17.2,15,17.2,15,17.2z"/>
<path class="st1" d="M13,8.4c-1.3,0.4-2.5,1.1-3.4,2.2h3.7c0,0,0,0,0,0c0,0,0,0,0,0c0,0,0,0,0,0c0,0,0,0,0,0
	c-0.2-0.3-0.4-0.6-0.5-0.9S12.8,8.7,13,8.4"/>
<path class="st1" d="M17.7,13.8c-0.3,0-0.3,0.1-0.3,0.3l2.9,5.5c1.1-1.3,1.7-2.9,1.7-4.5c0-0.6-0.1-1.1-0.2-1.7L17.7,13.8z"/>
<path class="st1" d="M20.3,10.6c-0.9-1-2.1-1.8-3.4-2.2c0.2,0.3,0.2,0.7,0.2,1c-0.1,0.4-0.2,0.7-0.5,0.9c0,0,0,0,0,0c0,0,0,0,0,0.1
	c0,0,0,0,0,0c0,0,0,0,0,0H20.3z"/>
<g>
	<path class="st2" d="M79.7,21.1h1.9v0.4h-6.3v-0.4h1.7l-3.6-6.5H72v6.5h1.9v0.4h-6v-0.4h1.8V8.9h-1.8V8.5h6v0.4H72v5.3h1.4l3.5-5.3
		H75V8.5h4.3v0.4h-1.8l-2.6,3.9L79.7,21.1z"/>
	<path class="st2" d="M91.8,21.1c-0.2,0-0.3,0-0.5,0c-1,0-1.1-0.3-1.1-2.2v-3.4c0-1.2-0.1-1.7-0.5-2.1c-0.5-0.6-1.6-0.9-3-0.9
		c-2.3,0-3.7,0.8-3.7,2.1c0,0.5,0.3,0.7,0.9,0.7c0.7,0,1-0.2,1-0.7c0-0.9,0-0.9,0.2-1.2c0.2-0.2,0.4-0.3,0.6-0.4
		c0.2-0.1,0.5-0.1,0.8-0.1c0.8,0,1.3,0.3,1.5,0.8c0.1,0.7,0.2,1.4,0.2,2.1c-0.9,0.3-1.5,0.4-2,0.5c-2.2,0.4-2.2,0.4-2.8,0.7
		c-0.4,0.2-0.7,0.5-0.9,0.9c-0.2,0.4-0.3,0.8-0.3,1.2c0,1.7,0.9,2.6,2.7,2.6c0.6,0.1,1.2,0,1.8-0.3c0.6-0.3,1.1-0.6,1.4-1.1
		c0.1,0.9,0.8,1.3,1.8,1.3h0.8c0.3,0,0.7,0,1,0L91.8,21.1z M88.2,17.4c0.1,0.8-0.1,1.6-0.4,2.3c-0.2,0.4-0.5,0.7-0.8,1
		c-0.4,0.2-0.8,0.4-1.2,0.4c-1,0-1.4-0.6-1.4-2c0-0.3,0-0.6,0.1-0.9c0.1-0.3,0.3-0.6,0.5-0.8c0.4-0.4,0.7-0.5,2.1-0.8
		c0.5-0.1,0.7-0.2,1.2-0.3V17.4z"/>
	<path class="st2" d="M96.6,14.3c0.3-0.5,0.7-0.9,1.2-1.2c0.7-0.4,1.6-0.6,2.4-0.6c1.2,0,2,0.4,2.4,1.2c0.3,0.5,0.3,0.5,0.3,2v5.5
		h1.6v0.4h-5.2v-0.4h1.6v-5.5c0-1.9-0.4-2.6-1.4-2.6c-0.5,0-1,0.2-1.4,0.4c-0.4,0.3-0.8,0.6-1,1.1c-0.4,0.8-0.5,1.2-0.5,3v3.6h1.7
		v0.4h-5.5v-0.4h1.8V13h-1.8v-0.4h1c0.8,0,2.4-0.1,2.9-0.1L96.6,14.3z"/>
	<path class="st2" d="M112,15.3h-0.5c-0.2-1.5-1.1-2.4-2.4-2.4c-1,0-1.8,0.5-1.8,1.3c0,0.8,0.5,1.1,2.3,1.6c2.3,0.7,3.2,1.5,3.2,2.9
		c0,1.7-1.6,2.9-3.7,2.9c-1.2,0-2.4-0.2-3.5-0.5v-2.9h0.6c0.1,2,1,3,2.9,3c1.3,0,2.2-0.6,2.2-1.6c0-0.8-0.6-1.3-2-1.7
		c-1.4-0.4-2.1-0.7-2.5-1.1c-0.3-0.2-0.5-0.5-0.6-0.8c-0.1-0.3-0.2-0.6-0.2-1c0-1.5,1.4-2.6,3.2-2.6c1,0,2,0.2,2.9,0.6V15.3z"/>
	<path class="st2" d="M123.8,21.1c-0.2,0-0.3,0-0.5,0c-1,0-1.1-0.3-1.1-2.2v-3.4c0-1.2-0.1-1.7-0.5-2.1c-0.5-0.6-1.6-0.9-3-0.9
		c-2.3,0-3.7,0.8-3.7,2.1c0,0.5,0.3,0.7,0.9,0.7c0.7,0,1-0.2,1-0.7c0-0.9,0-0.9,0.2-1.2c0.2-0.2,0.4-0.3,0.6-0.4
		c0.2-0.1,0.5-0.1,0.8-0.1c0.8,0,1.3,0.3,1.5,0.8c0.1,0.7,0.2,1.4,0.2,2.1c-0.9,0.3-1.5,0.4-2,0.5c-2.3,0.4-2.3,0.4-2.8,0.7
		c-0.4,0.2-0.7,0.5-0.9,0.9c-0.2,0.4-0.3,0.8-0.2,1.2c0,1.7,0.9,2.6,2.7,2.6c0.6,0.1,1.2,0,1.8-0.3c0.6-0.3,1.1-0.6,1.4-1.1
		c0.1,0.9,0.8,1.3,1.8,1.3h0.8c0.3,0,0.7,0,1,0V21.1z M120.2,17.4c0.1,0.8-0.1,1.6-0.4,2.3c-0.2,0.4-0.5,0.7-0.8,1
		c-0.4,0.2-0.8,0.4-1.2,0.4c-1,0-1.4-0.6-1.4-2c0-0.3,0-0.6,0.1-0.9s0.3-0.6,0.5-0.8c0.4-0.4,0.8-0.5,2.1-0.8
		c0.5-0.1,0.7-0.2,1.2-0.3V17.4z"/>
	<path class="st2" d="M131.3,15.3h-0.5c-0.2-1.5-1.1-2.4-2.4-2.4c-1,0-1.8,0.5-1.8,1.3c0,0.8,0.5,1.1,2.3,1.6
		c2.3,0.7,3.2,1.5,3.2,2.9c0,1.7-1.6,2.9-3.7,2.9c-1.2,0-2.4-0.2-3.5-0.5v-2.9h0.6c0.1,2,1,3,2.9,3c1.3,0,2.2-0.6,2.2-1.6
		c0-0.8-0.6-1.3-2-1.7c-1.4-0.4-2.1-0.7-2.5-1.1c-0.3-0.2-0.5-0.5-0.6-0.8c-0.1-0.3-0.2-0.6-0.2-1c0-1.5,1.4-2.6,3.2-2.6
		c1,0,2,0.2,2.9,0.6V15.3z"/>
	<path class="st2" d="M150.7,12.7h-0.6c0-1.4-0.3-2.1-1.1-2.8c-0.4-0.4-0.8-0.6-1.3-0.8c-0.5-0.2-1-0.3-1.6-0.3
		c-0.7,0-1.3,0.1-2,0.4c-0.6,0.3-1.1,0.7-1.6,1.2c-0.6,0.9-0.9,2.3-0.9,4.5c0,2.5,0.3,4,1.1,5c0.4,0.4,0.9,0.8,1.4,1
		c0.5,0.2,1.1,0.3,1.7,0.3c2.4,0,4-1.6,4.3-4.4h0.6v3.6c-1.6,0.8-3.3,1.2-5,1.3c-4.1,0-6.7-2.6-6.7-6.6c0-4.2,2.7-6.8,7-6.8
		c1.6,0,3.2,0.4,4.7,1L150.7,12.7z"/>
	<path class="st2" d="M154.4,13h-1.7v-0.4h0.8c0.8,0,2.3-0.1,2.9-0.1v8.6h1.7v0.4h-5.4v-0.4h1.8V13z M156.5,9.7
		c0,0.3-0.1,0.6-0.3,0.8c-0.2,0.2-0.5,0.3-0.8,0.3c-0.3,0-0.6-0.1-0.8-0.3c-0.2-0.2-0.3-0.5-0.3-0.8c0-0.3,0.2-0.6,0.4-0.7
		c0.2-0.2,0.5-0.3,0.8-0.3c0.3,0,0.6,0.1,0.8,0.3C156.4,9.2,156.5,9.4,156.5,9.7z"/>
	<path class="st2" d="M161.7,10.2v2.4h2.2v0.6h-2.2v5.6c-0.1,0.6,0,1.2,0.2,1.8c0.1,0.2,0.2,0.3,0.4,0.4c0.2,0.1,0.4,0.2,0.5,0.2
		c0.3,0,0.6-0.1,0.9-0.3c0.3-0.2,0.4-0.5,0.5-0.8l0.4,0.2c-0.2,0.5-0.6,0.9-1,1.2c-0.5,0.3-1,0.4-1.6,0.3c-1.1,0-1.8-0.3-2.1-0.9
		c-0.2-0.4-0.2-0.7-0.2-2.4v-5.3h-1.5v-0.6h1.5v-2.4H161.7z"/>
	<path class="st2" d="M172.9,13h-1.7v-0.4h3.8V13h-1.5l-3.4,9.7c-0.8,2.2-1.5,2.9-3,2.9c-1.2,0-1.9-0.6-1.9-1.5c0-0.1,0-0.3,0-0.4
		c0-0.1,0.1-0.2,0.2-0.3c0.1-0.1,0.2-0.2,0.3-0.2s0.2-0.1,0.4-0.1c0.6,0,0.9,0.3,0.9,1.1c0,0.6,0.2,0.8,0.7,0.8c0.8,0,1.4-0.8,2-2.7
		l0.3-0.8l-4.1-8.5h-1.5v-0.4h5.4V13H168l2.7,6L172.9,13z"/>
	<path class="st0" d="M36.3,2l10.1,1.8l9.5-2l1.9,4l-0.9,7.6l-3.8,9l-6.7,6.1l-6.6-6l-3.3-6.5l-1.2-7L36.3,2z"/>
	<path class="st1" d="M25.1,28.2c0-0.3,0.1-0.6,0.3-0.9c0.2-0.3,0.4-0.5,0.7-0.6c0.3-0.1,0.6-0.2,1-0.1c0.3,0.1,0.6,0.2,0.8,0.4
		c0.2,0.2,0.4,0.5,0.5,0.8c0.1,0.3,0,0.6-0.1,0.9c-0.1,0.3-0.3,0.6-0.6,0.7c-0.3,0.2-0.6,0.3-0.9,0.3c-0.2,0-0.4,0-0.6-0.1
		c-0.2-0.1-0.4-0.2-0.5-0.4c-0.2-0.2-0.3-0.3-0.4-0.5C25.2,28.6,25.1,28.4,25.1,28.2z M28.2,28.2c0-0.3-0.1-0.5-0.2-0.8
		c-0.2-0.2-0.4-0.4-0.6-0.5c-0.3-0.1-0.5-0.1-0.8-0.1c-0.3,0.1-0.5,0.2-0.7,0.4c-0.2,0.2-0.3,0.4-0.4,0.7c-0.1,0.3,0,0.5,0.1,0.8
		c0.1,0.3,0.3,0.5,0.5,0.6c0.2,0.1,0.5,0.2,0.8,0.2c0.2,0,0.4,0,0.5-0.1c0.2-0.1,0.3-0.2,0.5-0.3c0.1-0.1,0.2-0.3,0.3-0.5
		C28.2,28.6,28.2,28.4,28.2,28.2z M26.4,29.1h-0.2v-1.8H27c0.5,0,0.7,0.2,0.7,0.5c0,0.3-0.3,0.5-0.6,0.5l0.6,0.8h-0.3l-0.5-0.9h-0.4
		L26.4,29.1z M26.8,28.1c0.3,0,0.6,0,0.6-0.3c0-0.3-0.2-0.3-0.5-0.3h-0.5v0.6L26.8,28.1z"/>
	<path class="st1" d="M54.3,28.2c0-0.3,0.1-0.6,0.3-0.9c0.2-0.3,0.4-0.5,0.7-0.6s0.6-0.2,1-0.1c0.3,0.1,0.6,0.2,0.9,0.4
		c0.2,0.2,0.4,0.5,0.5,0.8c0.1,0.3,0,0.6-0.1,0.9s-0.3,0.6-0.6,0.7c-0.3,0.2-0.6,0.3-0.9,0.3c-0.2,0-0.4,0-0.6-0.1
		c-0.2-0.1-0.4-0.2-0.5-0.4c-0.2-0.2-0.3-0.3-0.4-0.5C54.3,28.6,54.3,28.4,54.3,28.2z M57.3,28.2c0-0.3-0.1-0.5-0.2-0.8
		c-0.2-0.2-0.4-0.4-0.6-0.5c-0.3-0.1-0.5-0.1-0.8-0.1c-0.3,0.1-0.5,0.2-0.7,0.4c-0.2,0.2-0.3,0.4-0.4,0.7c-0.1,0.3,0,0.5,0.1,0.8
		c0.1,0.3,0.3,0.5,0.5,0.6s0.5,0.2,0.8,0.2c0.2,0,0.4,0,0.5-0.1c0.2-0.1,0.3-0.2,0.5-0.3c0.1-0.1,0.2-0.3,0.3-0.5
		C57.3,28.6,57.3,28.4,57.3,28.2z M55.6,29.1h-0.2v-1.8h0.8c0.5,0,0.7,0.2,0.7,0.5c0,0.3-0.3,0.5-0.6,0.5l0.6,0.8h-0.3l-0.5-0.8
		h-0.4L55.6,29.1z M55.9,28.1c0.3,0,0.6,0,0.6-0.3c0-0.3-0.2-0.3-0.4-0.3h-0.5v0.6L55.9,28.1z"/>
	<path class="st1" d="M45.5,8.2c-0.1,0.1-0.2,0.1-0.3,0.2c-0.2,0-0.2-0.2-0.4-0.3c-0.2-0.1-0.2,0-0.3-0.1c0.4,0,0.8,0.1,1.1,0.3
		C45.6,8.2,45.5,8.2,45.5,8.2"/>
	<path class="st1" d="M21.6,8.6V0.4H8.3v8.2H0v13h8.3v8.1h13.2v-8.1h8.3v-13H21.6z M15,7c1.6,0,3.1,0.4,4.4,1.3c1.3,0.8,2.4,2,3,3.4
		h-5.8c-0.8,0-1.2-0.5-1.2-0.9c0-0.4,0.1-0.6,0.4-1.1C15.9,9.5,16,9.4,16,9.2c0-0.2,0-0.4-0.1-0.5c-0.1-0.2-0.2-0.3-0.4-0.4
		C15.3,8.1,15.2,8,15,8c-0.2,0-0.4,0.1-0.5,0.2c-0.2,0.1-0.3,0.2-0.4,0.4c-0.1,0.2-0.1,0.4-0.1,0.5c0,0.2,0.1,0.4,0.2,0.5
		c0.4,0.5,0.5,0.6,0.4,1.1c0,0.5-0.4,0.9-1.2,0.9H7.5c0.7-1.4,1.7-2.6,3-3.4C11.8,7.5,13.4,7,15,7L15,7z M6.7,15.1
		c0-1,0.2-1.9,0.5-2.8l5.5,0.5c0.2,0,0.4,0.1,0.5,0.2c0.2,0.1,0.3,0.3,0.4,0.4c0.1,0.2,0.1,0.4,0.1,0.5c0,0.2-0.1,0.4-0.1,0.5
		l-3.8,6.9c-1-0.8-1.8-1.7-2.3-2.8C7,17.5,6.8,16.3,6.7,15.1L6.7,15.1z M19.5,21.8c-1.3,0.9-2.9,1.3-4.5,1.3c-1.6,0-3.2-0.5-4.5-1.3
		l4-5.9c0.1-0.1,0.1-0.2,0.2-0.2c0.1-0.1,0.2-0.1,0.3-0.1c0.1,0,0.2,0,0.3,0.1c0.1,0.1,0.2,0.1,0.2,0.2L19.5,21.8L19.5,21.8z
		 M20,21.4l-3.8-7c-0.1-0.2-0.1-0.4-0.2-0.5c0-0.2,0-0.4,0.1-0.5c0.1-0.2,0.2-0.3,0.4-0.4c0.2-0.1,0.3-0.2,0.5-0.2l5.5-0.5
		c0.4,0.9,0.5,1.9,0.5,2.8c0,1.2-0.3,2.4-0.8,3.5C21.8,19.7,21,20.7,20,21.4"/>
	<path class="st1" d="M50.5,5.5c-1.4,0.2-2.7,0.3-4.1,0.3c-1.4,0-2.7-0.1-4.1-0.3c-1.4-0.2-2.8-0.5-4.1-0.9c-1,2.8-0.8,6.3,0,9.4
		c1.4,5.9,5.1,10.3,8.3,12.3c3.2-2,6.8-6.4,8.2-12.3c0.8-3.1,1-6.6,0-9.4C53.3,5,51.9,5.3,50.5,5.5z M45.6,23.6
		c0,0.3,0.1,0.4,0.1,0.6c0,0.1-0.2,0.2-0.3,0c-0.1-0.2-0.2-0.5-0.2-0.7c0-0.2,0-0.4,0.1-0.5c0.1-0.2,0.2-0.3,0.3-0.4
		c0.1-0.1,0.2-0.2,0.3-0.2l0.1,0.9C45.8,23.3,45.7,23.3,45.6,23.6L45.6,23.6z M46.9,24.6c0,0.2-0.1,0.3-0.4,0.3s-0.4-0.1-0.4-0.3
		c0-1.2-0.1-3.3-0.1-3.3c0.2,0,0.3,0.1,0.5,0.2c0.1,0.1,0.3,0.2,0.4,0.3c0,0,0.1,0.1,0,0.1C47,22.7,46.9,24.2,46.9,24.6z M47.9,22.4
		c-0.2,0.1-0.4,0.2-0.6,0.3l0-0.9c0,0,0-0.1,0.1-0.1c0,0,0-0.1,0-0.1c-0.3-0.3-0.6-0.6-1-0.7c-0.3-0.1-0.8-0.3-1.1-0.4
		c-0.2-0.1-0.3-0.1-0.4-0.3c-0.1-0.1-0.2-0.3-0.3-0.4c-0.1-0.2-0.1-0.3-0.1-0.5c0-0.2,0-0.3,0.1-0.5c0.1-0.2,0.3-0.4,0.6-0.5
		c0.1-0.1,0.3-0.1,0.4-0.2l0.1,1c0,0-0.1,0-0.1,0c0,0,0,0-0.1,0.1c0,0.1,0,0.1,0,0.2c0,0.1,0.1,0.1,0.1,0.1c0.6,0.2,1.2,0.5,1.7,0.8
		c0.7,0.4,0.9,0.7,0.9,1.1c0,0.2,0,0.3-0.1,0.5C48.1,22.2,48,22.3,47.9,22.4z M46,17.6l1.1,0.1l0,2l-0.5-0.3l-0.5-0.2L46,17.6z
		 M49,18.1c0,0.2-0.1,0.4-0.3,0.5c-0.1,0.2-0.3,0.3-0.5,0.4c-0.2,0.1-0.5,0.2-0.8,0.3V18c0.1,0,0.1-0.1,0.2-0.1c0,0,0.1-0.1,0.1-0.1
		c0,0,0-0.1,0-0.1c0,0,0-0.1-0.1-0.1c0,0-0.1-0.1-0.1-0.1c-0.1,0-0.3-0.1-0.4-0.1c-0.6-0.1-1.2-0.1-1.8-0.2
		c-1.1-0.2-1.9-0.8-1.8-1.8c0-0.7,0.8-0.9,1.3-1.1c0.1,0.2,0.3,0.5,0.4,0.8c0.1,0.3,0.1,0.4,0.1,0.4s-0.2,0-0.2,0.2
		c0,0.2,0.2,0.2,0.3,0.3c0.8,0.1,1.5,0.2,2.3,0.4c0.4,0.1,0.7,0.3,0.9,0.6c0.1,0.2,0.2,0.3,0.3,0.5C49,17.7,49,17.9,49,18.1L49,18.1
		z M45.5,13.3l0.9,0.1c0.3,0,0.5,0.1,0.8,0.2l-0.1,2.2c-0.5-0.1-0.8-0.1-1.3-0.2c-0.1-0.6-0.3-1.2-0.7-1.7c0,0,0-0.1,0-0.1
		c0,0,0-0.1,0-0.1c0-0.1,0.4-0.2,0.4-0.2L45.5,13.3z M47.5,15.5c0,0,0.1-1,0.1-1.6c0.1,0,0.1-0.1,0.2-0.1c0,0,0.1-0.1,0.1-0.2
		c0-0.1,0-0.1,0-0.2c0-0.1,0-0.1-0.1-0.2c-0.1-0.1-0.2-0.2-0.4-0.2c-0.6-0.1-1.2-0.2-1.7-0.2c-0.5,0-1-0.1-1.4-0.2
		c-0.5-0.1-0.9-0.3-1.3-0.5c-0.4-0.3-0.7-0.6-1-1.1c-0.3-0.5-0.3-1.2-0.1-1.7C42,8.7,42.4,8.2,43,8c0.4-0.2,0.8-0.3,1.3-0.3
		c0.4,0,0.9,0.1,1.3,0.3c0.3,0.1,0.5,0.3,0.6,0.6c0.1,0.1,0.2,0.1,0.3,0.3c0.1,0.1,0,0.1-0.1,0.1c-0.3,0-0.7,0-1,0
		c-0.3,0-0.6,0-0.9,0c0.3,0.2,0.5,0.3,0.8,0.4c0.1,0,0.3,0.1,0.4,0.1c0.1,0,0.2,0.1,0.2,0.2s-0.2,0.1-0.3,0.1
		c-0.3,0.1-0.6,0.1-0.9,0c-0.5-0.1-0.7-0.4-1-0.2c-0.2,0.1-0.2,0.4-0.1,0.6c0.1,0.4,0.5,0.6,0.9,0.7c1.3,0.4,2.7,0.2,3.9,0.8
		c0.3,0.1,0.5,0.3,0.7,0.5c0.2,0.2,0.3,0.5,0.4,0.7C50.1,15.2,47.5,15.5,47.5,15.5L47.5,15.5z M49.8,8.7c-0.1,0.2-0.1,0.2-0.3,0.4
		c-0.3,0.3-0.7,0.6-1.2,1c-0.3,0.2-0.5,0.4-0.7,0.7c0,0.1-0.1,0.3-0.1,0.3c-0.7-0.1-1.4-0.2-2-0.3v-0.6c0,0,0.7,0,0.8-0.4
		c0,0,0-0.1,0-0.1c0,0,0-0.1-0.1-0.1c-0.1-0.1-0.2-0.1-0.4-0.2c0.5,0.1,1.1,0.3,1.6,0.5c0-0.1-0.1-0.3-0.1-0.3
		c-0.1-0.1-0.2-0.2-0.4-0.2c-0.3-0.1-1.1-0.2-1.1-0.2l0.7,0c0.1,0,0.3-0.1,0.4-0.1c0-0.1,0-0.2-0.1-0.3c-0.1-0.1-0.2-0.2-0.2-0.2
		c-0.1-0.2-0.2-0.3-0.3-0.5c-0.2-0.2-0.5-0.3-0.7-0.4c0-0.2,0-0.4,0-0.5c0.1-0.1,0.4-0.1,0.4-0.1c0.4,0.3,0.9,0.5,1.4,0.6
		c0.1,0.1,0.1,0.1,0.2,0.3c0.1,0.4-0.1,0.9,0,1.1c0,0,0,0,0,0c0,0,0,0,0,0c0,0,0,0,0.1,0s0,0,0,0c0.5-0.3,0.8-0.7,1.4-0.9
		C49.3,7.8,50,8.2,49.8,8.7"/>
	<path class="st1" d="M56.8,0C53.6,1.6,50,2.5,46.4,2.5C42.8,2.5,39.2,1.7,36,0c-2.2,4.2-2.5,10.9-0.6,16.5
		c1.8,5.4,5.3,10.4,11,13.5c5.7-3.1,9.2-8,11-13.5C59.3,10.9,58.9,4.2,56.8,0L56.8,0z M55.3,15.9c-1.6,4.6-4.1,8.7-8.8,11.6
		c-4.7-2.9-7.2-7-8.9-11.6c-1.4-4.1-1.8-8.9-0.2-12.7c1.6,0.6,3.3,1,5,1.2c1.3,0.2,2.7,0.3,4,0.3c1.3,0,2.7-0.1,4-0.3
		c1.7-0.2,3.4-0.7,5-1.2C57,7,56.7,11.8,55.3,15.9"/>
	<g>
		<g>
			<path d="M216.8,15.5h0.6l0.5,2.9h0l0.6-2.9h0.5l-0.8,4v2.8h-0.6v-2.8L216.8,15.5z"/>
			<path d="M219.4,15.5h1.7v0.8h-1v2.1h1v0.8h-1v2.3h1v0.8h-1.7V15.5z"/>
			<path d="M222.2,15.5h0.7l0.9,6.8h-0.6l-0.2-1.7h-1l-0.2,1.7h-0.6L222.2,15.5z M222.1,19.7h0.8l-0.4-3.3h0L222.1,19.7z"/>
			<path d="M224.1,15.5h0.9c0.9,0,1,0.4,1,1.9c0,0.9-0.1,1.3-0.6,1.5v0c0.4,0.1,0.6,0.4,0.6,1v1.5c0,0.2,0,0.6,0,0.9h-0.6
				c-0.1-0.2-0.1-0.3-0.1-0.6v-1.5c0-0.6-0.1-0.8-0.5-0.8h-0.2v3h-0.6V15.5z M224.7,18.5h0.2c0.5,0,0.5-0.1,0.5-1.2
				c0-1,0-1.1-0.4-1.1h-0.3V18.5z"/>
			<path d="M226.4,20.3h0.6v0.6c0,0.5,0.1,0.7,0.4,0.7c0.3,0,0.4-0.3,0.4-0.8c0-0.6,0-0.8-0.7-1.7c-0.4-0.6-0.7-1.2-0.7-2.1
				c0-1.1,0.3-1.6,1-1.6c0.3,0,0.6,0.2,0.7,0.4c0.1,0.2,0.2,0.4,0.2,0.9v0.6h-0.6v-0.5c0-0.4-0.1-0.6-0.3-0.6
				c-0.3,0-0.4,0.2-0.4,0.7c0,0.5,0.1,0.7,0.6,1.7c0.6,1,0.7,1.3,0.7,2.1c0,1.1-0.3,1.7-1,1.7c-0.6,0-0.9-0.4-0.9-1.2V20.3z"/>
		</g>
		<path class="st1" d="M214.3,25.5c-0.1-0.2-0.3-0.4-0.4-0.6c-0.2,0.3-0.3,0.6-0.5,0.9c-1.4,2-3.3,3.2-5.7,3.8
			c-0.7,0.1-1.3,0.2-2,0.2c0,0,0,0,0,0c-0.3,0-0.7,0-1-0.1c-2.3-0.2-4.3-1.2-5.9-2.9c-1.3-1.4-2.1-3-2.4-4.9c-0.4-2.1,0-4.2,1-6
			c0.5-0.9,1.1-1.7,1.9-2.4c0.4-0.4,0.9-0.7,1.3-1c-0.8-0.8-1.4-1.9-1.8-3c-0.4-1.5-0.4-2.9,0.2-4.4c0.5-1.4,1.4-2.6,2.6-3.4
			c1.2-0.9,2.6-1.3,4.1-1.3c0.1,0,0.2,0,0.2,0c3.1,0.1,5.8,2.2,6.6,5.1c0.2,0.8,0.3,1.6,0.3,2.4c0,0.8-0.2,1.6-0.5,2.4
			c-0.3,0.8-0.8,1.4-1.3,2c0,0-0.1,0.1-0.1,0.1c0.5,0.3,0.9,0.6,1.3,1c1.2,1.1,2.1,2.5,2.6,4.2h1l0.1,1.2c0,0.1,0,0.2,0,0.3
			c0,0.2,0,0.3,0,0.5c0.4,2.9,1.7,4.8,4.2,5.9l0,0c0.9,0.4,2,0.7,3,0.7c1.1,0,2.2-0.2,3.1-0.7l0,0c2-1,3.5-2.8,3.9-5.1
			c0.5-2.4-0.1-4.6-1.6-6.5c-1-1.2-2.3-2-4-2.3c-0.5-0.1-1-0.1-1.4-0.1c-0.3,0-0.7,0-1,0.1c-1.3,0.2-2.4,0.6-3.4,1.4
			c-0.3,0.2-0.6,0.3-1,0.4c-0.1,0-0.3,0-0.5,0c-0.1,0-0.2,0-0.3,0c-0.1,0-0.2,0-0.3,0h-1.7l0.6-2.2c0.1-0.4,0.2-0.8,0.3-1.2l0.4-1.6
			c0.6-2.1,1.2-4.4,1.8-6.6c0.2-0.7,0.8-1.1,1.5-1.1c2.5,0,5,0,7.4,0l4.8,0v3.6l-4.3,0c-2.3,0-4.3,0-6.3,0c-0.4,1.3-0.7,2.7-1.1,4
			c0.9-0.3,1.9-0.4,2.8-0.4c0.9,0,1.7,0.1,2.6,0.3c2.8,0.7,5,2.2,6.6,4.7c2.5,3.9,2.3,9-0.5,12.6l0,0c-2,2.6-5.2,4.3-8.7,4.3
			C219.4,29.8,216.3,28.1,214.3,25.5L214.3,25.5z M202.1,7.6c0,0.9,0.3,1.7,1,2.3c0.7,0.7,1.6,1.1,2.5,1.1c0.6,0,1.2-0.2,1.7-0.4
			c1.6-0.9,2.2-3,1.5-4.7c-0.6-1.3-1.8-2.1-3.1-2.1c-0.3,0-0.6,0-0.9,0.1C203.2,4.4,202.1,5.9,202.1,7.6z M211.2,18.8
			c-0.1-0.3-0.2-0.7-0.3-1l-0.1-0.2c-0.3-0.6-0.6-1.1-1.1-1.6c-0.2-0.2-0.4-0.4-0.7-0.6c-0.3-0.2-0.6-0.4-1-0.6
			c-0.7-0.3-1.5-0.5-2.4-0.5c-0.1,0-0.3,0-0.4,0c-0.2,0-0.4,0-0.7,0.1l-0.1,0c0,0-0.1,0-0.1,0c-2,0.4-3.4,1.9-3.9,3.1l-0.3,0.6
			c-0.4,1-0.4,2.1-0.2,3.3c0.5,2.7,2.9,4.6,5.7,4.6c0.2,0,0.6,0,1-0.1c1.8-0.4,3.1-1.4,4-3C211.4,21.8,211.5,20.4,211.2,18.8z"/>
		<g>
			<rect x="186.6" y="0.4" class="st3" width="0.2" height="29.3"/>
		</g>
	</g>
</g>
</svg>
