<?xml version="1.0" encoding="utf-8"?>
<!-- Generator: Adobe Illustrator 19.0.1, SVG Export Plug-In . SVG Version: 6.00 Build 0)  -->
<svg version="1.1" id="Layer_1" xmlns="http://www.w3.org/2000/svg" xmlns:xlink="http://www.w3.org/1999/xlink" x="0px" y="0px"
	 viewBox="0 0 183.8 33.1" style="enable-background:new 0 0 183.8 33.1;" xml:space="preserve">
<style type="text/css">
	.st0{fill:#009DE1;}
	.st1{fill:#FFFFFF;}
</style>
<path class="st0" d="M25.5,31h0.3v-0.6h0.2c0.2,0,0.3,0,0.3,0.1c0.1,0.1,0.2,0.2,0.2,0.4v0.1l0,0.1c0,0,0,0,0,0c0,0,0,0,0,0h0.3l0,0
	c0,0,0,0,0-0.1c0,0,0-0.1,0-0.1v-0.1c0-0.1,0-0.2-0.1-0.3c-0.1-0.1-0.2-0.1-0.3-0.2c0.1,0,0.2,0,0.2-0.1c0.1-0.1,0.2-0.2,0.2-0.3
	c0-0.2-0.1-0.3-0.3-0.4c-0.1,0-0.2-0.1-0.4-0.1h-0.6V31z M26.4,30.1c-0.1,0-0.2,0-0.3,0h-0.3v-0.6h0.2c0.2,0,0.3,0,0.3,0.1
	c0.1,0,0.1,0.1,0.1,0.2C26.5,30,26.5,30.1,26.4,30.1 M27.2,29.1c-0.3-0.3-0.6-0.4-1.1-0.4c-0.4,0-0.8,0.1-1.1,0.4
	c-0.3,0.3-0.4,0.6-0.4,1.1c0,0.4,0.1,0.8,0.4,1.1c0.3,0.3,0.6,0.4,1.1,0.4c0.4,0,0.8-0.1,1.1-0.4c0.3-0.3,0.4-0.6,0.4-1.1
	C27.6,29.8,27.5,29.4,27.2,29.1 M27.1,29.3c0.2,0.3,0.4,0.6,0.4,0.9c0,0.4-0.1,0.7-0.4,0.9c-0.2,0.3-0.6,0.4-0.9,0.4
	c-0.4,0-0.7-0.1-0.9-0.4c-0.2-0.2-0.4-0.6-0.4-0.9c0-0.4,0.1-0.7,0.4-0.9c0.3-0.3,0.6-0.4,0.9-0.4C26.5,28.9,26.8,29,27.1,29.3"/>
<path class="st0" d="M55.2,31h0.3v-0.6h0.2c0.2,0,0.3,0,0.3,0.1c0.1,0.1,0.2,0.2,0.2,0.4v0.1l0,0.1c0,0,0,0,0,0c0,0,0,0,0,0h0.3l0,0
	c0,0,0,0,0-0.1c0,0,0-0.1,0-0.1v-0.1c0-0.1,0-0.2-0.1-0.3c-0.1-0.1-0.2-0.1-0.3-0.2c0.1,0,0.2,0,0.2-0.1c0.1-0.1,0.2-0.2,0.2-0.3
	c0-0.2-0.1-0.3-0.3-0.4c-0.1,0-0.2-0.1-0.4-0.1h-0.6V31z M56.1,30.1c-0.1,0-0.2,0-0.3,0h-0.3v-0.6h0.2c0.2,0,0.3,0,0.4,0.1
	c0.1,0,0.1,0.1,0.1,0.2C56.2,30,56.2,30.1,56.1,30.1 M56.9,29.1c-0.3-0.3-0.6-0.4-1.1-0.4c-0.4,0-0.8,0.1-1.1,0.4
	c-0.3,0.3-0.4,0.6-0.4,1.1c0,0.4,0.1,0.8,0.4,1.1c0.3,0.3,0.6,0.4,1.1,0.4c0.4,0,0.8-0.1,1.1-0.4c0.3-0.3,0.4-0.6,0.4-1.1
	C57.3,29.8,57.2,29.4,56.9,29.1 M56.8,29.3c0.2,0.3,0.4,0.6,0.4,0.9c0,0.4-0.1,0.7-0.4,0.9c-0.2,0.3-0.6,0.4-0.9,0.4
	c-0.4,0-0.7-0.1-0.9-0.4c-0.2-0.2-0.4-0.6-0.4-0.9c0-0.4,0.1-0.7,0.4-0.9c0.2-0.3,0.6-0.4,0.9-0.4C56.2,28.9,56.5,29,56.8,29.3"/>
<polygon class="st0" points="23.1,31.6 23.1,22.9 31.8,22.9 31.8,9 23.1,9 23.1,0.3 9.3,0.3 9.3,9 0.6,9 0.6,22.9 9.3,22.9 
	9.3,31.6 "/>
<path class="st0" d="M49,31.9c6-3.3,9.6-8.6,11.5-14.4c1.9-6,1.6-13.1-0.6-17.6C56.4,1.7,53,2.6,49,2.6c-4,0-7.5-0.9-10.9-2.6
	c-2.3,4.4-2.6,11.5-0.6,17.6C39.3,23.3,43,28.6,49,31.9"/>
<path class="st1" d="M8.2,13l5.8,0.6c1.1,0.2,1.2,1.2,0.9,1.8l-3.9,7.4l0,0c-2-1.6-3.3-4-3.3-6.8C7.7,14.9,7.9,13.9,8.2,13L8.2,13z"
	/>
<path class="st1" d="M24.3,13l-5.8,0.6c-1.1,0.2-1.2,1.2-0.9,1.8l3.9,7.4l0,0c2-1.6,3.3-4,3.3-6.8C24.8,14.9,24.6,13.9,24.3,13
	L24.3,13z"/>
<path class="st1" d="M16.2,8.5c1,0,1.3,1.2,0.9,1.7c-0.4,0.5-0.5,0.7-0.5,1.2c0,0.4,0.4,0.9,1.3,0.9H24c-1.4-2.9-4.3-5-7.8-5
	c-3.4,0-6.4,2-7.8,5h6.1c0.9,0,1.3-0.5,1.3-0.9c0-0.5-0.1-0.6-0.5-1.2C14.9,9.7,15.2,8.5,16.2,8.5"/>
<path class="st1" d="M16.2,24.6c1.7,0,3.4-0.5,4.7-1.4v0l-4.2-6.3c-0.3-0.4-0.8-0.4-1.1,0l-4.2,6.3l0,0
	C12.9,24.1,14.5,24.6,16.2,24.6"/>
<path class="st1" d="M49,29.3c4.9-3.1,7.6-7.4,9.3-12.4c1.5-4.4,1.9-9.5,0.2-13.5c-2.5,0.8-3.9,1.1-5.3,1.3C51.9,4.8,50.8,5,49,5h0
	c-1.8,0-2.9-0.1-4.2-0.3c-1.3-0.2-2.8-0.5-5.3-1.3c-1.6,4-1.3,9.2,0.2,13.5C41.4,21.8,44,26.2,49,29.3L49,29.3z"/>
<path class="st0" d="M49,28c3.3-2.1,7.1-6.9,8.6-13.1c0.8-3.3,1-7.1,0-10c-1.5,0.4-2.9,0.7-4.3,0.9C51.8,6,50.4,6.1,49,6.1h0
	c-1.4,0-2.8-0.2-4.3-0.3c-1.4-0.2-2.8-0.5-4.3-0.9c-1,3-0.8,6.7,0,10C41.8,21.2,45.6,25.9,49,28L49,28z"/>
<path class="st0" d="M9.1,14.2l4.4,0.4c0.3,0,0.3,0.2,0.3,0.3l-3.1,5.8c-1.1-1.3-1.8-3-1.8-4.8C8.9,15.4,8.9,14.8,9.1,14.2"/>
<path class="st0" d="M14.2,8.9c-0.4,0.7-0.1,1.7,0.3,2.1c0.1,0.1,0,0.2,0,0.2l-3.9,0C11.6,10.1,12.8,9.3,14.2,8.9"/>
<path class="st0" d="M23.4,14.2l-4.4,0.4c-0.3,0-0.3,0.2-0.3,0.3l3.1,5.8c1.1-1.3,1.8-3,1.8-4.8C23.6,15.4,23.6,14.8,23.4,14.2"/>
<path class="st0" d="M18.3,8.9c0.4,0.7,0.1,1.7-0.3,2.1c-0.1,0.1,0,0.2,0,0.2l3.9,0C20.9,10.1,19.7,9.3,18.3,8.9"/>
<path class="st0" d="M16.1,18.3c0.1-0.1,0.2-0.1,0.2,0l2.9,4.4c-0.9,0.4-1.9,0.6-3,0.6c-1.1,0-2.1-0.2-3-0.6L16.1,18.3
	c0.1-0.1,0.2-0.1,0.2,0"/>
<path class="st1" d="M45.6,8.4c-1.1,0.6-1.5,2-1,3.1c0.4,1,1.3,1.6,2.3,1.9c0.5,0.2,1,0.2,1.5,0.2c0.6,0,1.2,0.1,1.8,0.2
	c0.1,0,0.3,0.1,0.3,0.2c0.2,0.3,0,0.6-0.3,0.7c0,0.5-0.1,1.6-0.1,1.6s2.6-0.2,2.2-2.6c-0.1-0.6-0.5-1.1-1.1-1.4
	c-1.3-0.7-2.8-0.4-4.1-0.8c-0.5-0.1-1.1-0.4-1.2-0.9c0-0.2,0-0.6,0.2-0.7c0.3-0.1,0.7,0.2,1.2,0.3c0.3,0.1,0.6,0.1,0.9,0
	c0.1,0,0.3-0.1,0.3-0.1c0-0.1-0.1-0.1-0.2-0.1c-0.2-0.1-0.3-0.1-0.5-0.2c-0.3-0.1-0.5-0.2-0.8-0.4c0.3,0,0.7-0.1,0.9,0
	c0.2,0,0.8,0,1,0c0,0,0.1-0.1,0.1-0.1C49.1,9.1,49,9.1,48.9,9c-0.2-0.3-0.3-0.5-0.6-0.6C47.4,8,46.4,7.9,45.6,8.4"/>
<path class="st1" d="M49.9,16.8l0-2.8c0,0-0.4-0.1-0.8-0.1c-0.6,0-0.9,0-0.9,0v0.2c0,0-0.3,0.1-0.4,0.2c0,0-0.1,0.1-0.1,0.2
	c0.3,0.7,0.6,1.3,0.7,2.1C48.9,16.7,49.4,16.7,49.9,16.8"/>
<path class="st1" d="M46.7,16.4c-0.1,1.1,0.6,1.7,1.4,1.8c0.6,0.1,1.2,0.2,1.9,0.3c0.1,0,0.3,0,0.4,0.1c0.1,0,0.2,0.1,0.2,0.2
	c0,0.1,0,0.2,0,0.3c-0.1,0.1-0.3,0.1-0.3,0.1l0,1.3c0,0,0.5,0,0.9-0.3c0.4-0.2,0.7-0.5,0.7-0.9c0.1-0.4,0-0.9-0.3-1.3
	c-0.2-0.3-0.6-0.5-0.9-0.6C49.8,17,49,17,48.2,16.9c-0.1,0-0.2-0.1-0.2-0.2c0-0.2,0.2-0.3,0.2-0.3s-0.1-0.3-0.2-0.6
	c-0.1-0.2-0.2-0.5-0.3-0.7C47.1,15.3,46.7,15.8,46.7,16.4"/>
<path class="st1" d="M49.9,18.8l0,2.3l-0.6-0.3l-0.6-0.2l0-1.9C49.2,18.7,49.4,18.7,49.9,18.8"/>
<path class="st1" d="M47.3,20c-0.3,0.8,0.1,1.5,0.7,1.8c0.3,0.2,0.8,0.3,1.1,0.4c0.3,0.1,1,0.5,1,0.7c0,0.1-0.1,0.2-0.1,0.2l0,0.9
	c0,0,0.4-0.1,0.7-0.3c0.3-0.2,0.5-0.5,0.5-1c0-0.5-0.2-0.9-0.9-1.3c-0.6-0.3-1.2-0.6-1.7-0.8c-0.1,0-0.1-0.2-0.1-0.3
	c0-0.1,0.1-0.1,0.1-0.1l0-1c0,0-0.4,0.1-0.6,0.2C47.6,19.6,47.4,19.8,47.3,20"/>
<path class="st1" d="M49.8,23.1c0-0.1,0-0.1-0.1-0.1c-0.2-0.2-0.4-0.3-0.4-0.3c-0.2-0.1-0.5-0.2-0.5-0.2s0,2.4,0.1,3.6
	c0,0.3,0.2,0.4,0.4,0.4c0.3,0,0.4-0.2,0.4-0.3C49.7,25.7,49.8,24,49.8,23.1"/>
<path class="st1" d="M50,7.8c0.1,0.1,0.1,0.1,0.2,0.3c0.1,0.4,0,1,0.1,1.2c0,0.1,0.1,0.1,0.2,0c0.5-0.3,0.9-0.8,1.4-1
	c0.2-0.1,0.9,0.2,0.8,0.8c-0.1,0.2-0.2,0.3-0.3,0.4c-0.3,0.3-0.8,0.6-1.1,1c-0.3,0.3-0.6,0.5-0.8,0.8c-0.1,0.1-0.2,0.2-0.2,0.2
	c-0.7-0.2-1.5-0.1-2.1-0.2l0-0.9c0,0,0.6-0.1,0.7-0.4c0,0,0-0.1-0.1-0.2c-0.1-0.1-0.3-0.2-0.3-0.2c0.6,0.1,1,0.2,1.5,0.4
	c0-0.1,0-0.2,0-0.2c-0.1-0.1-0.1-0.1-0.3-0.2c-0.3-0.1-1.3-0.2-1.3-0.2s0.4,0,0.8-0.1c0.2,0,0.3-0.1,0.4-0.1c0-0.1,0-0.2-0.2-0.4
	c-0.1-0.1-0.2-0.2-0.2-0.3c-0.1-0.1-0.2-0.3-0.4-0.5C48.6,8.2,48.2,8,48.2,8s-0.1-0.5,0-0.6c0.1-0.1,0.2-0.2,0.3-0.2
	C49,7.5,49.5,7.7,50,7.8"/>
<path class="st1" d="M48.2,24c-0.1,0.1-0.4,0.5-0.4,0.9c0,0.4,0.1,0.6,0.2,0.8c0.1,0.2,0.3,0.2,0.4,0c0.1-0.1,0-0.3,0-0.6
	c0-0.2,0.2-0.4,0.2-0.4l0-1.1C48.5,23.7,48.4,23.8,48.2,24"/>
<path class="st0" d="M48.2,8.7c-0.1,0.1-0.2,0.2-0.3,0.2c-0.2,0-0.2-0.2-0.4-0.3c-0.1-0.1-0.2,0-0.3-0.1c0.4,0,0.8,0,1.1,0.2
	C48.2,8.7,48.2,8.7,48.2,8.7"/>
<polygon points="73.7,28.2 73.7,2.7 76.1,2.7 76.1,26.3 83.8,26.3 83.8,28.2 "/>
<path d="M86.4,19.1v-1c0-4.5,0-9.5,5.1-9.5c5.1,0,5.1,5.1,5.1,9.5v1c0,4.8,0,9.5-5.1,9.5C86.4,28.6,86.4,23.9,86.4,19.1 M88.9,18.1
	v1c0,5.8,0.4,7.9,2.7,7.9c2.2,0,2.7-2.1,2.7-7.9v-1c0-5.7-0.3-7.9-2.7-7.9C89.2,10.2,88.9,12.4,88.9,18.1"/>
<path d="M101.3,24.1V9h2.4v15.1c0,2,0.9,2.7,2,2.7c1,0,2.2-0.7,3.2-1.9V9h2.4v19.2h-2.4v-1.8c-1.1,1.6-2.6,2.2-4.1,2.2
	C103.1,28.6,101.3,27.2,101.3,24.1"/>
<path d="M116.2,2.7h2.4v2.9h-2.4V2.7z M116.2,9h2.4v19.2h-2.4V9z"/>
<path d="M122.3,23.4l1.8-0.6c0.5,1.7,1.8,4.1,3.8,4.1c1.7,0,2.5-1.2,2.5-2.9c0-1.5-1.7-3.3-3.3-4.7l-1.4-1.2c-1.7-1.5-3.2-3-3.2-5
	c0-3,2-4.6,4.8-4.6c2.9,0,4.3,2.4,4.9,4.9l-2.1,0.7c-0.3-1.6-1.1-3.8-2.9-3.8c-1.5,0-2.3,1.1-2.3,2.6c0,1.4,1.1,2.5,2.4,3.7l1.5,1.3
	c1.9,1.6,3.8,3.3,3.8,6.1c0,2.9-2.1,4.6-4.9,4.6C124.8,28.6,122.9,26.2,122.3,23.4"/>
<path d="M136.5,2.7h2.4v2.9h-2.4V2.7z M136.5,9h2.4v19.2h-2.4V9z"/>
<path d="M151.1,28.2l-0.3-2.3c-1.1,1.9-2.8,2.8-4.1,2.8c-1.9,0-3.8-1.6-3.8-4.3c0-2.5,0.1-4.8,7.7-7.9v-0.2c0-5.6-1.2-6.1-2.4-6.1
	c-0.9,0-2.3,0.4-2.5,3.7V14h-2.5c0.3-3.4,2.1-5.4,4.9-5.4c4.1,0,4.9,3.3,4.9,6v9.2c0,2.3,0.3,4.4,0.3,4.4H151.1z M150.6,24.3v-6.8
	c-3.3,2.3-5.3,3.8-5.3,6.4c0,2,1,2.7,1.9,2.7C148.5,26.6,149.9,25.7,150.6,24.3"/>
<path d="M157.9,28.2V9h2.4v1.8c1.1-1.6,2.6-2.2,4.1-2.2c1.7,0,3.6,1.5,3.6,4.6v15.1h-2.4V13.1c0-2-0.9-2.7-2-2.7
	c-1,0-2.2,0.7-3.2,1.9v15.9H157.9z"/>
<path d="M180.2,28.2l-0.3-2.3c-1.1,1.9-2.8,2.8-4.1,2.8c-1.9,0-3.8-1.6-3.8-4.3c0-2.5,0.1-4.8,7.7-7.9v-0.2c0-5.6-1.2-6.1-2.4-6.1
	c-0.9,0-2.3,0.4-2.5,3.7V14h-2.5c0.3-3.4,2.1-5.4,4.9-5.4c4.1,0,4.9,3.3,4.9,6v9.2c0,2.3,0.3,4.4,0.3,4.4H180.2z M179.7,24.3v-6.8
	c-3.3,2.3-5.3,3.8-5.3,6.4c0,2,1,2.7,1.9,2.7C177.6,26.6,179,25.7,179.7,24.3"/>
</svg>
