<svg xmlns="http://www.w3.org/2000/svg" viewBox="0 0 911.215 176.483"><defs><style>.cls-1{fill:#17385a;}.cls-2{fill:#6c7073;}</style></defs><title>boone-logo</title><g id="Layer_2" data-name="Layer 2"><g id="Layer_1-2" data-name="Layer 1"><path class="cls-1" d="M.7,55.713q.972-4.961,2.34-9.839a123.717,123.717,0,0,1,7-19.057A87.285,87.285,0,0,1,20.826,9.224a48.574,48.574,0,0,1,7.588-7.6C29.14,1.059,29.893.514,30.676,0H0V59.747C.215,58.4.439,57.052.7,55.713Z"/><path class="cls-1" d="M56.3,1.4a13,13,0,0,1,1.672,3.039,15.663,15.663,0,0,1,.844,3.128,22.808,22.808,0,0,1,.109,5.883,37.059,37.059,0,0,1-1,5.37,69.14,69.14,0,0,1-3.47,9.831A180.263,180.263,0,0,1,45.2,46.681q-.482.839-.971,1.673c1.075-.8,2.162-1.59,3.272-2.352a88.505,88.505,0,0,1,9.648-5.748,58.942,58.942,0,0,1,10.669-4.229,41.727,41.727,0,0,1,5.775-1.19,32.889,32.889,0,0,1,6.018-.266,28.942,28.942,0,0,1,6.07.943,26.759,26.759,0,0,1,5.738,2.308,30.577,30.577,0,0,1,9.163,7.811c.307.367.643.805.943,1.229s.592.866.868,1.31a25.024,25.024,0,0,1,1.451,2.749,26.814,26.814,0,0,1,1.169,3.1V0H55.08A12.135,12.135,0,0,1,56.3,1.4Z"/><path class="cls-1" d="M12.994,150.981a20.711,20.711,0,0,1-3.233-5.7,25.85,25.85,0,0,1-1.47-6.085,33.022,33.022,0,0,1-.162-6.035A48.758,48.758,0,0,1,10.324,121.7,72.338,72.338,0,0,1,20.6,101.587,96.988,96.988,0,0,1,35.622,85.18q2.087-1.824,4.262-3.534c1.457-1.138,2.9-2.242,4.472-3.322A46.686,46.686,0,0,1,54.4,73.072a31.9,31.9,0,0,1,5.572-1.525,16.771,16.771,0,0,1,6.1-.054,7.5,7.5,0,0,1,3.246,1.47,5.185,5.185,0,0,1,1.887,3.478,7.761,7.761,0,0,1-.456,3.407,15.111,15.111,0,0,1-1.318,2.735,1.6,1.6,0,0,1-2.79-1.571l.01-.018a11.863,11.863,0,0,0,.914-2.173,4.39,4.39,0,0,0,.183-1.911,1.621,1.621,0,0,0-.695-1.107,4.022,4.022,0,0,0-1.681-.609,13.115,13.115,0,0,0-4.635.308,27.806,27.806,0,0,0-4.764,1.561,42.182,42.182,0,0,0-8.816,5.173c-1.349,1.024-2.716,2.177-4.042,3.323S40.493,87.9,39.23,89.115A90.038,90.038,0,0,0,25.912,105.2a68.161,68.161,0,0,0-8.564,18.578,42.829,42.829,0,0,0-1.594,9.765,26.075,26.075,0,0,0,1.1,9.168,13.529,13.529,0,0,0,1.9,3.749,10.285,10.285,0,0,0,2.926,2.69,11.809,11.809,0,0,0,3.866,1.457,17.767,17.767,0,0,0,4.514.249,31.761,31.761,0,0,0,9.555-2.33c.79-.311,1.572-.658,2.353-1.01s1.547-.748,2.311-1.15c1.53-.8,3.032-1.677,4.5-2.616s2.929-1.943,4.362-2.964,2.85-2.079,4.244-3.161q4.18-3.246,8.08-6.834t7.486-7.48q3.581-3.9,6.82-8.082A116.308,116.308,0,0,0,91.173,97.5a88.419,88.419,0,0,0,7.463-19.468,56.816,56.816,0,0,0,1.567-10.11,35.044,35.044,0,0,0-.708-9.846,22.326,22.326,0,0,0-1.517-4.466,18.552,18.552,0,0,0-1.1-2.01c-.2-.317-.414-.631-.637-.931s-.44-.582-.716-.9a23.262,23.262,0,0,0-7.26-6,19.209,19.209,0,0,0-4.3-1.6,22,22,0,0,0-4.6-.578,31.5,31.5,0,0,0-9.525,1.437,56.708,56.708,0,0,0-9.347,3.816,95.76,95.76,0,0,0-8.962,5.2c-2.927,1.892-5.805,3.9-8.661,5.978s-5.678,4.226-8.573,6.356l-.361.266A2.724,2.724,0,0,1,30.21,60.72h0A141.554,141.554,0,0,0,40.921,44.254a111.878,111.878,0,0,0,8.1-17.707,59.173,59.173,0,0,0,2.423-9.133,31.213,31.213,0,0,0,.466-4.451,15.594,15.594,0,0,0-.342-4.019,6.9,6.9,0,0,0-1.33-2.9,5.577,5.577,0,0,0-2.379-1.635,11.421,11.421,0,0,0-3.554-.675,12.188,12.188,0,0,0-1.886.076,14.216,14.216,0,0,0-1.9.338,15.732,15.732,0,0,0-1.9.6,19.48,19.48,0,0,0-1.89.821,27.936,27.936,0,0,0-3.679,2.235A42.664,42.664,0,0,0,26.3,13.913a69.353,69.353,0,0,0-5.836,7.444c-1.8,2.629-3.47,5.379-5.018,8.206-1.566,2.819-3.008,5.72-4.343,8.677S8.533,44.21,7.429,47.272A110.9,110.9,0,0,0,2.376,66.135v0A1.766,1.766,0,0,1,.527,67.448C.32,67.46.161,67.5,0,67.5v86.6H16.3A17.862,17.862,0,0,1,12.994,150.981Z"/><path class="cls-1" d="M104.527,79.512a94.259,94.259,0,0,1-8.28,20.663,125.489,125.489,0,0,1-12.154,18.434q-3.425,4.324-7.194,8.352Q73.149,131,69.078,134.72a136.634,136.634,0,0,1-17.386,13.534,79.4,79.4,0,0,1-9.794,5.532c-.232.107-.467.21-.7.315h63.82V77.449C104.86,78.139,104.7,78.829,104.527,79.512Z"/><path class="cls-2" d="M171.2,70.4a10.733,10.733,0,0,1,3.1,7.729,11.786,11.786,0,0,1-1.92,6.648,12.7,12.7,0,0,1-5.5,4.534,20.266,20.266,0,0,1-8.456,1.63q-1.324,0-4.647-.1t-6.713-.1q-5.422,0-8.2.194V89.615a11.731,11.731,0,0,0,3.469-.516,2.471,2.471,0,0,0,1.485-1.55,11.694,11.694,0,0,0,.4-3.614V51.146a11.7,11.7,0,0,0-.4-3.614,2.472,2.472,0,0,0-1.485-1.549,11.724,11.724,0,0,0-3.469-.517V44.143q2.743.194,8.068.194,2.582,0,5.7-.064t4.276-.064a19.866,19.866,0,0,1,7.649,1.306,10.268,10.268,0,0,1,4.712,3.647,9.484,9.484,0,0,1,1.581,5.438,10.731,10.731,0,0,1-2.4,6.842q-2.4,3.033-7.632,4.647v.13Q168.1,67.185,171.2,70.4Zm-8.843-7.246a12.933,12.933,0,0,0,2.162-7.842q0-4.969-2.194-7.407t-7.068-2.437a7.86,7.86,0,0,0-3.1.469,2.6,2.6,0,0,0-1.42,1.661,12.253,12.253,0,0,0-.387,3.55V66.089h4.453Q160.2,66.089,162.359,63.152Zm-11.618,24.3a2.428,2.428,0,0,0,1.42,1.55,8.916,8.916,0,0,0,3.162.419q12.36,0,12.36-11.586,0-5.2-2.824-7.906T155.9,67.218h-5.551V83.935A11.7,11.7,0,0,0,150.741,87.453Z"/><path class="cls-2" d="M200.459,57.892a13.141,13.141,0,0,1,5.325,5.922,23.2,23.2,0,0,1,1.953,10.15A23.084,23.084,0,0,1,205.784,84.1a13.052,13.052,0,0,1-5.325,5.89,16.767,16.767,0,0,1-15.458,0,13.048,13.048,0,0,1-5.325-5.89,23.077,23.077,0,0,1-1.952-10.133,23.2,23.2,0,0,1,1.952-10.15A13.136,13.136,0,0,1,185,57.892a16.635,16.635,0,0,1,15.458,0Zm-14.006,3.485q-2.308,4.067-2.308,12.587,0,8.488,2.308,12.537t6.277,4.051q3.969,0,6.277-4.051t2.307-12.537q0-8.52-2.307-12.587T192.73,57.31Q188.76,57.31,186.453,61.376Z"/><path class="cls-2" d="M234.025,57.892a13.141,13.141,0,0,1,5.325,5.922,23.2,23.2,0,0,1,1.953,10.15A23.084,23.084,0,0,1,239.349,84.1a13.052,13.052,0,0,1-5.325,5.89,16.767,16.767,0,0,1-15.458,0,13.048,13.048,0,0,1-5.325-5.89,23.077,23.077,0,0,1-1.952-10.133,23.2,23.2,0,0,1,1.952-10.15,13.136,13.136,0,0,1,5.325-5.922,16.635,16.635,0,0,1,15.458,0Zm-14.006,3.485q-2.308,4.067-2.308,12.587,0,8.488,2.308,12.537t6.277,4.051q3.969,0,6.277-4.051t2.307-12.537q0-8.52-2.307-12.587T226.3,57.31Q222.326,57.31,220.018,61.376Z"/><path class="cls-2" d="M257.91,57.876a12.106,12.106,0,0,1,6.664-1.889q4.615,0,7,2.485a7.966,7.966,0,0,1,1.759,3.34,21.391,21.391,0,0,1,.533,5.341V84.806a6.713,6.713,0,0,0,.5,2.873,2.831,2.831,0,0,0,1.582,1.452,8.385,8.385,0,0,0,2.953.419v1.388q-6.068-.258-7.939-.258-1.84,0-7.391.258V89.55a6.329,6.329,0,0,0,2.566-.419,2.645,2.645,0,0,0,1.355-1.452,7.6,7.6,0,0,0,.436-2.873V65.7a18.257,18.257,0,0,0-.371-4,4.715,4.715,0,0,0-1.549-2.615,5.182,5.182,0,0,0-3.437-1,7.842,7.842,0,0,0-4.825,1.581,10.229,10.229,0,0,0-3.276,4.34,15.6,15.6,0,0,0-1.162,6.115V84.806a7.6,7.6,0,0,0,.436,2.873,2.637,2.637,0,0,0,1.372,1.452,6.451,6.451,0,0,0,2.582.419v1.388q-5.551-.258-7.423-.258t-7.939.258V89.55a8.39,8.39,0,0,0,2.953-.419,2.833,2.833,0,0,0,1.581-1.452,6.72,6.72,0,0,0,.5-2.873V64.12a7.124,7.124,0,0,0-1.113-4.453q-1.113-1.387-3.921-1.388V56.891q2.065.194,4.1.194a21.874,21.874,0,0,0,6.874-.9v7.778A12.193,12.193,0,0,1,257.91,57.876Z"/><path class="cls-2" d="M305.385,87.34a12.97,12.97,0,0,1-4.228,3.275,12.551,12.551,0,0,1-5.664,1.259,15.069,15.069,0,0,1-8.149-2.146,13.762,13.762,0,0,1-5.244-6.035,21.026,21.026,0,0,1-1.807-8.955,24.854,24.854,0,0,1,1.839-9.972,14.657,14.657,0,0,1,5.212-6.5,13.769,13.769,0,0,1,7.891-2.275q5.937,0,9.149,3.6T307.6,70.51H286.942a33.061,33.061,0,0,0-.226,4.228,18.749,18.749,0,0,0,1.436,7.616,12.242,12.242,0,0,0,3.76,5,8.046,8.046,0,0,0,4.905,1.743q6.648,0,9.714-6.617l1.323.517A13.22,13.22,0,0,1,305.385,87.34Zm-4.7-24.123a9.968,9.968,0,0,0-2.13-4.357,4.631,4.631,0,0,0-3.582-1.614,6.033,6.033,0,0,0-3.744,1.307,9.879,9.879,0,0,0-2.888,4,21,21,0,0,0-1.5,6.7h14.393A21.6,21.6,0,0,0,300.69,63.217Z"/><path class="cls-2" d="M361,87.953q-.372-.92-1.081-.92a2.727,2.727,0,0,0-1.355.549,35.115,35.115,0,0,1-3.631,2.274,17.544,17.544,0,0,1-3.792,1.453,18.823,18.823,0,0,1-4.809.565,20.985,20.985,0,0,1-11.021-2.84,18.845,18.845,0,0,1-7.326-8.245,29.429,29.429,0,0,1-2.6-12.861,29.647,29.647,0,0,1,2.678-12.909,20.75,20.75,0,0,1,7.455-8.713,19.539,19.539,0,0,1,10.875-3.1,17.944,17.944,0,0,1,6.729,1.129,23.305,23.305,0,0,1,5.438,3.162,2.129,2.129,0,0,0,1.291.581q1.355,0,1.678-3.938h1.516q-.258,4.293-.258,15.2H361.27q-.484-2.968-.888-4.614a14.522,14.522,0,0,0-.952-2.792,13.776,13.776,0,0,0-1.484-2.372,12.376,12.376,0,0,0-5.067-3.873,16.882,16.882,0,0,0-6.616-1.291,11.03,11.03,0,0,0-7.519,2.839,18.305,18.305,0,0,0-5,8.1,38.6,38.6,0,0,0-1.775,12.328A35.241,35.241,0,0,0,333.9,80.03a17.546,17.546,0,0,0,5.325,7.842,12.05,12.05,0,0,0,7.681,2.679,17.061,17.061,0,0,0,6.422-1.259,10.523,10.523,0,0,0,4.873-3.776A11.611,11.611,0,0,0,360.14,81.6a50.431,50.431,0,0,0,1.13-6.536h1.516q0,11.394.258,15.879h-1.516A10.987,10.987,0,0,0,361,87.953Z"/><path class="cls-2" d="M389.206,57.892a13.141,13.141,0,0,1,5.325,5.922,23.2,23.2,0,0,1,1.953,10.15A23.084,23.084,0,0,1,394.53,84.1a13.052,13.052,0,0,1-5.325,5.89,16.767,16.767,0,0,1-15.458,0,13.048,13.048,0,0,1-5.325-5.89,23.077,23.077,0,0,1-1.952-10.133,23.2,23.2,0,0,1,1.952-10.15,13.136,13.136,0,0,1,5.325-5.922,16.635,16.635,0,0,1,15.458,0ZM375.2,61.376q-2.308,4.067-2.308,12.587,0,8.488,2.308,12.537t6.277,4.051q3.969,0,6.277-4.051t2.307-12.537q0-8.52-2.307-12.587t-6.277-4.066Q377.507,57.31,375.2,61.376Z"/><path class="cls-2" d="M428.646,88.244q1.113,1.372,3.921,1.372V91q-2.066-.194-4.1-.194a20.8,20.8,0,0,0-6.874.936v-7.81a12.5,12.5,0,0,1-4.5,6,11.153,11.153,0,0,1-6.341,1.936,9.089,9.089,0,0,1-6.874-2.517A7.4,7.4,0,0,1,402.183,86a23.077,23.077,0,0,1-.5-5.293V64.12a7.2,7.2,0,0,0-1.1-4.453q-1.1-1.387-3.9-1.388V56.891q2.065.194,4.1.194a22.058,22.058,0,0,0,6.874-.9V82.16a22.877,22.877,0,0,0,.291,4.066,4.379,4.379,0,0,0,1.387,2.534,4.849,4.849,0,0,0,3.324.984,7.273,7.273,0,0,0,4.583-1.581,10.543,10.543,0,0,0,3.2-4.324,15.406,15.406,0,0,0,1.162-6.067V64.12a7.124,7.124,0,0,0-1.113-4.453q-1.113-1.387-3.921-1.388V56.891q2.065.194,4.1.194a21.874,21.874,0,0,0,6.874-.9V83.806A7.052,7.052,0,0,0,428.646,88.244Z"/><path class="cls-2" d="M448.851,57.876a12.106,12.106,0,0,1,6.664-1.889q4.615,0,7,2.485a7.966,7.966,0,0,1,1.759,3.34,21.391,21.391,0,0,1,.533,5.341V84.806a6.713,6.713,0,0,0,.5,2.873,2.831,2.831,0,0,0,1.582,1.452,8.385,8.385,0,0,0,2.953.419v1.388q-6.068-.258-7.939-.258-1.84,0-7.391.258V89.55a6.329,6.329,0,0,0,2.566-.419,2.645,2.645,0,0,0,1.355-1.452,7.6,7.6,0,0,0,.436-2.873V65.7a18.257,18.257,0,0,0-.371-4,4.715,4.715,0,0,0-1.549-2.615,5.182,5.182,0,0,0-3.437-1,7.842,7.842,0,0,0-4.825,1.581,10.229,10.229,0,0,0-3.276,4.34,15.6,15.6,0,0,0-1.162,6.115V84.806a7.6,7.6,0,0,0,.436,2.873,2.637,2.637,0,0,0,1.372,1.452,6.451,6.451,0,0,0,2.582.419v1.388q-5.551-.258-7.423-.258t-7.939.258V89.55a8.39,8.39,0,0,0,2.953-.419,2.833,2.833,0,0,0,1.581-1.452,6.72,6.72,0,0,0,.5-2.873V64.12a7.124,7.124,0,0,0-1.113-4.453q-1.113-1.387-3.921-1.388V56.891q2.065.194,4.1.194a21.874,21.874,0,0,0,6.874-.9v7.778A12.193,12.193,0,0,1,448.851,57.876Z"/><path class="cls-2" d="M489.244,56.955v1.323h-9.778V83.871a6.856,6.856,0,0,0,1.065,4.308,3.837,3.837,0,0,0,3.162,1.307,4.527,4.527,0,0,0,3.518-1.646,13.6,13.6,0,0,0,2.453-5.422l1.291.323q-1.615,9.133-8.585,9.132a10.821,10.821,0,0,1-3.679-.532,7.04,7.04,0,0,1-2.582-1.662,8.046,8.046,0,0,1-2-3.566,22.31,22.31,0,0,1-.581-5.7V58.278h-6.358V56.955h6.358v-10.1a18.608,18.608,0,0,0,5.938-.936V56.955Z"/><path class="cls-2" d="M515.291,57.085q2.936,0,5.034-.194v1.323a3.952,3.952,0,0,0-2.356,1.195,9.78,9.78,0,0,0-1.936,3.453l-10.844,28.4-2.259,5.744a11.813,11.813,0,0,1-2.84,4.647,7.369,7.369,0,0,1-5.164,1.711,4.871,4.871,0,0,1-3.227-1.049,3.593,3.593,0,0,1-1.259-2.92,3.258,3.258,0,0,1,3.518-3.486,3.589,3.589,0,0,1,2.4.807,2.839,2.839,0,0,1,.952,2.291,3.216,3.216,0,0,1-1.775,2.97.9.9,0,0,0,.387.064q3.647,0,5.615-5.163l2.356-6.035L491.893,61.99a7.432,7.432,0,0,0-2.243-3,4.143,4.143,0,0,0-2.243-.71V56.891a48.305,48.305,0,0,0,6.487.419q2.839,0,8.585-.419v1.387a21.52,21.52,0,0,0-2.517.114,2.822,2.822,0,0,0-1.5.613,1.927,1.927,0,0,0-.6,1.565,9.349,9.349,0,0,0,.839,3.259l7.971,19.75,7.294-19.137a9.549,9.549,0,0,0,.71-3.034,2.519,2.519,0,0,0-1.178-2.291,8.288,8.288,0,0,0-3.76-.9V56.891Q513.225,57.085,515.291,57.085Z"/><path class="cls-2" d="M574.176,45.983a2.47,2.47,0,0,0-1.484,1.549,11.687,11.687,0,0,0-.4,3.614V83.935a11.679,11.679,0,0,0,.4,3.614,2.469,2.469,0,0,0,1.484,1.55,11.733,11.733,0,0,0,3.47.516v1.323q-2.744-.194-8.456-.194-5.293,0-8.391.194V89.615a11.731,11.731,0,0,0,3.469-.516,2.473,2.473,0,0,0,1.485-1.55,11.709,11.709,0,0,0,.4-3.614V68.057H544.663V83.935a11.679,11.679,0,0,0,.4,3.614,2.469,2.469,0,0,0,1.484,1.55,11.731,11.731,0,0,0,3.469.516v1.323q-3.033-.194-8.391-.194-5.68,0-8.455.194V89.615a11.731,11.731,0,0,0,3.469-.516,2.469,2.469,0,0,0,1.484-1.55,11.679,11.679,0,0,0,.4-3.614V51.146a11.687,11.687,0,0,0-.4-3.614,2.47,2.47,0,0,0-1.484-1.549,11.724,11.724,0,0,0-3.469-.517V44.143q2.743.194,8.455.194,5.356,0,8.391-.194v1.323a11.724,11.724,0,0,0-3.469.517,2.47,2.47,0,0,0-1.484,1.549,11.687,11.687,0,0,0-.4,3.614V66.734h21.494V51.146a11.718,11.718,0,0,0-.4-3.614,2.474,2.474,0,0,0-1.485-1.549,11.724,11.724,0,0,0-3.469-.517V44.143q3.1.194,8.391.194,5.68,0,8.456-.194v1.323A11.726,11.726,0,0,0,574.176,45.983Z"/><path class="cls-2" d="M603.386,87.34a12.965,12.965,0,0,1-4.228,3.275,12.547,12.547,0,0,1-5.663,1.259,15.066,15.066,0,0,1-8.149-2.146,13.759,13.759,0,0,1-5.244-6.035,21.019,21.019,0,0,1-1.808-8.955,24.854,24.854,0,0,1,1.839-9.972,14.651,14.651,0,0,1,5.212-6.5,13.768,13.768,0,0,1,7.89-2.275q5.938,0,9.149,3.6T605.6,70.51H584.943a32.96,32.96,0,0,0-.226,4.228,18.74,18.74,0,0,0,1.437,7.616,12.229,12.229,0,0,0,3.76,5,8.044,8.044,0,0,0,4.9,1.743q6.648,0,9.714-6.617l1.323.517A13.2,13.2,0,0,1,603.386,87.34Zm-4.7-24.123a9.974,9.974,0,0,0-2.13-4.357,4.629,4.629,0,0,0-3.582-1.614,6.033,6.033,0,0,0-3.744,1.307,9.879,9.879,0,0,0-2.889,4,21.013,21.013,0,0,0-1.5,6.7h14.393A21.586,21.586,0,0,0,598.691,63.217Z"/><path class="cls-2" d="M625.593,58.714a6.656,6.656,0,0,0-4.535-1.4q-4.678,0-6.55,2.357a4.047,4.047,0,0,1,3.1,4.034,3.373,3.373,0,0,1-1.049,2.63,4.041,4.041,0,0,1-2.824.952,3.252,3.252,0,0,1-2.629-1.13,4.449,4.449,0,0,1-.952-2.969q0-2.581,3.1-4.712a15.072,15.072,0,0,1,3.985-1.775,18.386,18.386,0,0,1,5.277-.71,15.7,15.7,0,0,1,4.776.662,7.889,7.889,0,0,1,3.227,1.824,8.181,8.181,0,0,1,2.082,3.6,22.275,22.275,0,0,1,.565,5.663V86.1a4.633,4.633,0,0,0,.469,2.388,1.705,1.705,0,0,0,1.564.742,3.146,3.146,0,0,0,1.485-.355,8.492,8.492,0,0,0,1.484-1.032l.742,1.129q-1.161.871-1.936,1.356a7.036,7.036,0,0,1-1.775.774,8.349,8.349,0,0,1-2.323.291q-3.2,0-4.437-1.6a6.779,6.779,0,0,1-1.243-4.276,11.469,11.469,0,0,1-4.647,4.534,12.338,12.338,0,0,1-5.519,1.34,10.831,10.831,0,0,1-4.195-.791,6.771,6.771,0,0,1-3.05-2.452A7.131,7.131,0,0,1,608.633,84a7.362,7.362,0,0,1,1.226-4.292,10.994,10.994,0,0,1,3.453-3.114,48.517,48.517,0,0,1,5.971-2.921q.645-.258,3.162-1.291a12.356,12.356,0,0,0,3.63-2.066,3.047,3.047,0,0,0,1.113-2.259v-4.1Q627.19,60.118,625.593,58.714Zm-.017,13.441q-1.129.647-4.711,2.388a20.9,20.9,0,0,0-3.228,1.856,8.118,8.118,0,0,0-2.259,2.565,7.8,7.8,0,0,0-.936,3.969,5.928,5.928,0,0,0,1.453,4.341,5.159,5.159,0,0,0,3.84,1.469q4.389,0,7.455-5V70.768A4.585,4.585,0,0,1,625.576,72.155Z"/><path class="cls-2" d="M649.251,87.679a2.827,2.827,0,0,0,1.581,1.452,8.383,8.383,0,0,0,2.953.419v1.388q-6.068-.258-8-.258t-8,.258V89.55a8.39,8.39,0,0,0,2.953-.419,2.83,2.83,0,0,0,1.581-1.452,6.72,6.72,0,0,0,.5-2.873V47.048A7.05,7.05,0,0,0,641.7,42.61q-1.114-1.371-3.921-1.372V39.851q2.065.194,4.1.194a20.813,20.813,0,0,0,6.874-.936v45.7A6.7,6.7,0,0,0,649.251,87.679Z"/><path class="cls-2" d="M674.958,56.955v1.323H665.18V83.871a6.856,6.856,0,0,0,1.065,4.308,3.838,3.838,0,0,0,3.162,1.307,4.527,4.527,0,0,0,3.518-1.646,13.6,13.6,0,0,0,2.452-5.422l1.291.323q-1.614,9.133-8.585,9.132a10.817,10.817,0,0,1-3.679-.532,7.042,7.042,0,0,1-2.582-1.662,8.036,8.036,0,0,1-2-3.566,22.284,22.284,0,0,1-.581-5.7V58.278h-6.358V56.955h6.358v-10.1a18.606,18.606,0,0,0,5.938-.936V56.955Z"/><path class="cls-2" d="M690.242,57.843a12.2,12.2,0,0,1,6.632-1.856q4.615,0,7,2.485a7.782,7.782,0,0,1,1.791,3.34,21.394,21.394,0,0,1,.532,5.341V84.806a6.72,6.72,0,0,0,.5,2.873,2.83,2.83,0,0,0,1.581,1.452,8.387,8.387,0,0,0,2.953.419v1.388q-6.2-.258-7.939-.258-1.872,0-7.423.258V89.55a6.45,6.45,0,0,0,2.582-.419,2.637,2.637,0,0,0,1.372-1.452,7.594,7.594,0,0,0,.436-2.873V65.7a17.482,17.482,0,0,0-.388-4,4.8,4.8,0,0,0-1.565-2.615,5.124,5.124,0,0,0-3.4-1,7.961,7.961,0,0,0-4.792,1.533,10.021,10.021,0,0,0-3.292,4.26,15.442,15.442,0,0,0-1.178,6.18V84.806a7.594,7.594,0,0,0,.436,2.873,2.643,2.643,0,0,0,1.355,1.452A6.33,6.33,0,0,0,690,89.55v1.388q-5.551-.258-7.39-.258-1.873,0-7.94.258V89.55a8.387,8.387,0,0,0,2.953-.419,2.835,2.835,0,0,0,1.582-1.452,6.722,6.722,0,0,0,.5-2.873V47.113a7.054,7.054,0,0,0-1.113-4.437Q677.478,41.3,674.67,41.3V39.915q2.1.194,4.1.194a20.834,20.834,0,0,0,6.874-.935v24.72A12.013,12.013,0,0,1,690.242,57.843Z"/><path class="cls-2" d="M762.5,87.953q-.371-.92-1.081-.92a2.723,2.723,0,0,0-1.356.549,35.113,35.113,0,0,1-3.63,2.274,17.559,17.559,0,0,1-3.792,1.453,18.824,18.824,0,0,1-4.809.565,20.982,20.982,0,0,1-11.02-2.84,18.842,18.842,0,0,1-7.326-8.245,29.422,29.422,0,0,1-2.6-12.861,29.646,29.646,0,0,1,2.678-12.909,20.753,20.753,0,0,1,7.455-8.713,19.538,19.538,0,0,1,10.876-3.1,17.943,17.943,0,0,1,6.728,1.129,23.3,23.3,0,0,1,5.438,3.162,2.128,2.128,0,0,0,1.291.581q1.356,0,1.678-3.938h1.517q-.258,4.293-.258,15.2h-1.517q-.484-2.968-.887-4.614a14.488,14.488,0,0,0-.952-2.792,13.745,13.745,0,0,0-1.484-2.372,12.371,12.371,0,0,0-5.067-3.873,16.878,16.878,0,0,0-6.616-1.291,11.032,11.032,0,0,0-7.52,2.839,18.3,18.3,0,0,0-5,8.1,38.6,38.6,0,0,0-1.775,12.328,35.253,35.253,0,0,0,1.936,12.36,17.538,17.538,0,0,0,5.325,7.842,12.049,12.049,0,0,0,7.681,2.679,17.059,17.059,0,0,0,6.422-1.259,10.523,10.523,0,0,0,4.873-3.776,11.62,11.62,0,0,0,1.936-3.921,50.276,50.276,0,0,0,1.129-6.536H764.3q0,11.394.258,15.879h-1.517A10.991,10.991,0,0,0,762.5,87.953Z"/><path class="cls-2" d="M793.006,87.34a12.965,12.965,0,0,1-4.228,3.275,12.547,12.547,0,0,1-5.663,1.259,15.066,15.066,0,0,1-8.149-2.146,13.759,13.759,0,0,1-5.244-6.035,21.019,21.019,0,0,1-1.808-8.955,24.854,24.854,0,0,1,1.839-9.972,14.651,14.651,0,0,1,5.212-6.5,13.768,13.768,0,0,1,7.89-2.275q5.938,0,9.149,3.6t3.211,10.924H774.563a32.96,32.96,0,0,0-.226,4.228,18.74,18.74,0,0,0,1.437,7.616,12.229,12.229,0,0,0,3.76,5,8.044,8.044,0,0,0,4.9,1.743q6.648,0,9.714-6.617l1.323.517A13.2,13.2,0,0,1,793.006,87.34Zm-4.7-24.123a9.974,9.974,0,0,0-2.13-4.357,4.629,4.629,0,0,0-3.582-1.614,6.033,6.033,0,0,0-3.744,1.307,9.879,9.879,0,0,0-2.889,4,21.013,21.013,0,0,0-1.5,6.7h14.393A21.586,21.586,0,0,0,788.311,63.217Z"/><path class="cls-2" d="M813.147,57.876a12.106,12.106,0,0,1,6.664-1.889q4.615,0,7,2.485a7.971,7.971,0,0,1,1.758,3.34,21.388,21.388,0,0,1,.533,5.341V84.806a6.7,6.7,0,0,0,.5,2.873,2.83,2.83,0,0,0,1.581,1.452,8.387,8.387,0,0,0,2.953.419v1.388q-6.068-.258-7.939-.258-1.839,0-7.391.258V89.55a6.33,6.33,0,0,0,2.566-.419,2.648,2.648,0,0,0,1.356-1.452,7.616,7.616,0,0,0,.435-2.873V65.7a18.226,18.226,0,0,0-.371-4,4.719,4.719,0,0,0-1.55-2.615,5.18,5.18,0,0,0-3.436-1,7.843,7.843,0,0,0-4.825,1.581,10.241,10.241,0,0,0-3.276,4.34,15.613,15.613,0,0,0-1.161,6.115V84.806a7.6,7.6,0,0,0,.435,2.873,2.637,2.637,0,0,0,1.372,1.452,6.45,6.45,0,0,0,2.582.419v1.388q-5.551-.258-7.423-.258t-7.939.258V89.55a8.39,8.39,0,0,0,2.953-.419,2.833,2.833,0,0,0,1.581-1.452,6.72,6.72,0,0,0,.5-2.873V64.12a7.12,7.12,0,0,0-1.113-4.453q-1.114-1.387-3.921-1.388V56.891q2.065.194,4.1.194a21.885,21.885,0,0,0,6.875-.9v7.778A12.187,12.187,0,0,1,813.147,57.876Z"/><path class="cls-2" d="M853.539,56.955v1.323h-9.778V83.871a6.856,6.856,0,0,0,1.065,4.308,3.838,3.838,0,0,0,3.162,1.307,4.527,4.527,0,0,0,3.518-1.646,13.6,13.6,0,0,0,2.452-5.422l1.291.323q-1.614,9.133-8.585,9.132a10.817,10.817,0,0,1-3.679-.532A7.042,7.042,0,0,1,840.4,89.68a8.036,8.036,0,0,1-2-3.566,22.284,22.284,0,0,1-.581-5.7V58.278h-6.358V56.955h6.358v-10.1a18.606,18.606,0,0,0,5.938-.936V56.955Z"/><path class="cls-2" d="M880.052,87.34a12.965,12.965,0,0,1-4.228,3.275,12.547,12.547,0,0,1-5.663,1.259,15.066,15.066,0,0,1-8.149-2.146,13.759,13.759,0,0,1-5.244-6.035,21.019,21.019,0,0,1-1.808-8.955,24.854,24.854,0,0,1,1.839-9.972,14.651,14.651,0,0,1,5.212-6.5,13.768,13.768,0,0,1,7.89-2.275q5.938,0,9.149,3.6t3.211,10.924H861.61a32.96,32.96,0,0,0-.226,4.228,18.74,18.74,0,0,0,1.437,7.616,12.229,12.229,0,0,0,3.76,5,8.044,8.044,0,0,0,4.9,1.743q6.648,0,9.714-6.617l1.323.517A13.2,13.2,0,0,1,880.052,87.34Zm-4.7-24.123a9.974,9.974,0,0,0-2.13-4.357,4.629,4.629,0,0,0-3.582-1.614,6.033,6.033,0,0,0-3.744,1.307,9.879,9.879,0,0,0-2.889,4,21.013,21.013,0,0,0-1.5,6.7h14.393A21.586,21.586,0,0,0,875.357,63.217Z"/><path class="cls-2" d="M897.741,60.441a12.571,12.571,0,0,1,3.34-3.2,7.4,7.4,0,0,1,4.1-1.259,6.8,6.8,0,0,1,3.114.694,5.414,5.414,0,0,1,2.147,1.888,4.709,4.709,0,0,1,.774,2.615,4.392,4.392,0,0,1-1.033,2.953,3.425,3.425,0,0,1-2.742,1.209,3.606,3.606,0,0,1-2.485-.92,3.177,3.177,0,0,1-1.033-2.5,4.161,4.161,0,0,1,2.26-3.582,1.581,1.581,0,0,0-1.388-.646,6.664,6.664,0,0,0-4.711,2,14.012,14.012,0,0,0-3.292,4.938,14.629,14.629,0,0,0-1.194,5.486V84.129q0,3.066,1.742,4.243a9.466,9.466,0,0,0,5.26,1.178v1.388q-8.132-.258-10.166-.258-1.741,0-7.809.258V89.55a8.39,8.39,0,0,0,2.953-.419,2.833,2.833,0,0,0,1.581-1.452,6.72,6.72,0,0,0,.5-2.873V64.12a7.12,7.12,0,0,0-1.113-4.453q-1.114-1.387-3.921-1.388V56.891q2.065.194,4.1.194a21.885,21.885,0,0,0,6.875-.9v8.262A16.05,16.05,0,0,1,897.741,60.441Z"/><path class="cls-2" d="M125.23,153.505c1.014-4.787,4.439-7.68,8.166-10.3a39.242,39.242,0,0,1,3.775-2.214,2.733,2.733,0,0,1,.984-.116l.134.25a4.568,4.568,0,0,1-.643.754c-1.379,1.051-2.781,2.073-4.172,3.108a17.609,17.609,0,0,0-5.153,6.505,5.3,5.3,0,0,0-.325.815c-.588,1.927.17,3.2,2.168,3.505a25.021,25.021,0,0,0,9.853-.581,55.112,55.112,0,0,0,24.023-12.9,44.994,44.994,0,0,0,8.109-9.109,21.234,21.234,0,0,0,3.225-7.952,9.052,9.052,0,0,0-2.94-8.492,13.424,13.424,0,0,0-11.724-3.512,26.358,26.358,0,0,0-9.769,3.159c-1.974,1.172-3.9,2.423-5.809,3.7a11.187,11.187,0,0,0-3.969,4.684,4.821,4.821,0,0,0-.53,2.676,2.4,2.4,0,0,1,0,.939,1.3,1.3,0,0,1-.518.763.885.885,0,0,1-.839-.126,8.661,8.661,0,0,1-1.41-2.168,6.3,6.3,0,0,1,.4-5.226,15.448,15.448,0,0,1,5.762-5.937,33.817,33.817,0,0,1,14.5-4.964,19.593,19.593,0,0,1,8.747.671,14.135,14.135,0,0,1,6.329,4.217c.66.769,1.334,1.527,1.965,2.32a13.956,13.956,0,0,1,2.775,8.229c.265,4.581-1.6,8.4-4.09,11.964a46.556,46.556,0,0,1-10.332,10.6,54.374,54.374,0,0,1-14.17,8.15,42.1,42.1,0,0,1-11.222,2.83,47.609,47.609,0,0,1-7.882-.1,5.744,5.744,0,0,1-5.242-4.231c-.085-.275-.133-.56-.2-.841Z"/><path class="cls-2" d="M224.3,138.58c.014-.668.049-1.115.025-1.559a3.639,3.639,0,0,0-.179-1.054c-.251-.679-.7-.766-1.238-.282a29.614,29.614,0,0,0-7.6,10.55c-.289.679-.473,1.4-.7,2.11a1.131,1.131,0,0,0,.422,1.323,1.1,1.1,0,0,0,1.318-.033,27.083,27.083,0,0,0,7.061-6.028c1.795-1.989,3.484-4.075,5.171-6.157a19.491,19.491,0,0,1,9.141-6.567,6.175,6.175,0,0,1,4.11-.078,1.936,1.936,0,0,1,1.387,2.357c-.234.614-.562.734-1.053.31a2.172,2.172,0,0,0-2.805-.116,21.875,21.875,0,0,0-6.635,5.876,21.539,21.539,0,0,0-3.524,6.191,5.726,5.726,0,0,0-.117.957l.176.145a3.814,3.814,0,0,0,.864-.489,103.466,103.466,0,0,0,8.966-9.648c.8-1.014,1.96-1.019,3.091-.944.2.013.471.464.544.755a4.385,4.385,0,0,1-.591,3.428c-.931,1.566-1.805,3.167-2.695,4.757a1.342,1.342,0,0,0-.254.681,1.128,1.128,0,0,0,.363.767c.143.1.572-.039.736-.206a38.762,38.762,0,0,0,7.873-11.7c.9-2.057,2-4.029,3.012-6.035.233-.461.471-.9-.057-1.323s-.968-.169-1.362.226c-.462.462-.892.957-1.368,1.4a1.176,1.176,0,0,1-1.919-.12,2.445,2.445,0,0,1,.165-3.42,8.744,8.744,0,0,1,3.3-2.05,11.452,11.452,0,0,1,2.2-.637,5.533,5.533,0,0,0,3.769-2.5c1.411-1.952,2.81-3.915,4.289-5.816a2.872,2.872,0,0,1,4.248-.435,1.147,1.147,0,0,1,.181,1.863c-.749.871-1.543,1.7-2.3,2.567a8.561,8.561,0,0,0-.811,1.075,1.093,1.093,0,0,0,.959,1.782c.967.017,1.936-.046,2.9-.087a69.294,69.294,0,0,1,10.73.289c.5.056,1.1.01,1.061.81a.539.539,0,0,1-.589.582c-3.5.173-7.009.309-10.507.546-1.929.131-3.85.405-5.767.673a3.771,3.771,0,0,0-2.832,1.972,163.133,163.133,0,0,0-9.172,18.715,1.037,1.037,0,0,0-.137.515,1.055,1.055,0,0,0,.3.629c.1.076.446-.025.574-.153.826-.828,1.671-1.646,2.42-2.542,2.082-2.488,4.093-5.036,6.183-7.517a17.756,17.756,0,0,1,7.157-5.172c2.614-1.028,4.18-.264,5.616,2.674a1.573,1.573,0,0,1-.366,1.762c-2.948,3.317-5.807,6.744-10.111,8.449a9.279,9.279,0,0,0-2.027,1.065,9.145,9.145,0,0,0-1.618,1.589,1.017,1.017,0,0,0,.043,1.42,1.161,1.161,0,0,0,1.416.29,16.316,16.316,0,0,0,4.71-2.866c3.2-2.838,6.323-5.752,9.268-8.873a42.958,42.958,0,0,1,6.469-5.4,10.231,10.231,0,0,1,5.393-1.758,2.337,2.337,0,0,0,1.982-1.3q2.987-5.018,6.025-10.006c.657-1.075,1.419-2.086,2.1-3.145a12.746,12.746,0,0,1,2.885-3.007,2.572,2.572,0,0,1,3.192-.175,5.445,5.445,0,0,1,1.357,1.188.949.949,0,0,1-.264,1.56c-1.945,1-3.008,2.774-4.165,4.5-4.117,6.147-7.5,12.717-11.078,19.174a37.226,37.226,0,0,0-2.122,5.317c-.1.278.134.678.213,1.022.338-.1.781-.095,1-.314,2.356-2.39,4.676-4.817,7.01-7.229.251-.26.515-.741.925-.395.392.332.187.771-.122,1.126-3.605,4.143-6.9,8.554-10.815,12.43-.666.66-1.331,1.334-2.338.94a2.936,2.936,0,0,1-2.083-2.516c-.071-.934.107-1.884.107-2.826a1.335,1.335,0,0,0-.333-.967c-.4-.288-.776,0-1.105.338-1.462,1.494-2.908,3.007-4.436,4.431a8.625,8.625,0,0,1-2.106,1.326,1.933,1.933,0,0,1-2.71-.731,13.41,13.41,0,0,1-.908-1.8c-.135-.283-.208-.6-.363-.869a1.041,1.041,0,0,0-1.742-.326c-.527.422-1.011.9-1.549,1.306a20.454,20.454,0,0,1-6.8,3.218,2.913,2.913,0,0,1-3.681-2.194c-.155-.543-.117-1.224-.858-1.4-.765-.179-.96.5-1.342.914-.905.973-1.808,1.949-2.751,2.885a1.391,1.391,0,0,1-2.363-.118,11.388,11.388,0,0,1-1.309-2.411c-.438-1.034-.849-1.172-1.663-.4-1,.948-1.985,1.9-2.979,2.854-.163.156-.326.312-.5.453-1.225.989-2.362.871-3.08-.512a16.947,16.947,0,0,1-.846-2.88,9.682,9.682,0,0,0-.5-1.121,5.122,5.122,0,0,0-1.063.581c-1.5,1.357-2.914,2.817-4.469,4.107-1.43,1.187-2.558.917-3.492-.691a13.154,13.154,0,0,1-.877-1.97c-.415-1.1-.952-1.167-1.811-.407a43.1,43.1,0,0,1-5.165,4.236c-2.21,1.412-4.39,1.269-5.964-.627a7.251,7.251,0,0,1-.907-1.791c-.451-1.045-.941-1.171-1.749-.382-1.016.99-2.011,2-3.028,2.991a5.372,5.372,0,0,1-.8.624,2.413,2.413,0,0,1-3.673-1.037c-.158-.343-.173-.754-.342-1.089-.178-.352-.42-.852-.714-.915s-.754.263-1.035.53a11.2,11.2,0,0,0-.9,1.181c-1.208,1.505-2.677,1.364-3.46-.4a25.984,25.984,0,0,1-.782-2.714,1.894,1.894,0,0,0-.582-1.037c-.174-.1-.719.232-.979.489-.945.933-1.814,1.944-2.761,2.875-1.478,1.453-3.185.934-3.688-1.081a12.51,12.51,0,0,0-.589-2c-.372-.851-.8-.91-1.513-.3a19.132,19.132,0,0,1-5.356,3.482,12.207,12.207,0,0,1-1.538.5,3.664,3.664,0,0,1-4.522-4.523,20.547,20.547,0,0,1,5.917-10.129,56.33,56.33,0,0,1,5.451-4.408c1.231-.907,2.109-.693,3.139.444a4.074,4.074,0,0,1,.839,4.043,8.5,8.5,0,0,1-2.987,4.63,16.183,16.183,0,0,1-6,3.279,2.957,2.957,0,0,0-2,2.5,1.193,1.193,0,0,0,1.456,1.242,3.649,3.649,0,0,0,.944-.355,30.246,30.246,0,0,0,6.794-5.085,17.032,17.032,0,0,0,3.175-4.749,9.479,9.479,0,0,1,2.55-3.526,6.033,6.033,0,0,1,4.186-1.434,2.345,2.345,0,0,0,2.509-1.509,92.72,92.72,0,0,1,7.537-13.4,6.068,6.068,0,0,1,2.347-2.274,2.711,2.711,0,0,1,3.313.645,1.007,1.007,0,0,1,.023,1.463,30.357,30.357,0,0,0-5.67,8.5c-1.652,3.273-3.407,6.5-4.9,9.843-1.156,2.579-1.991,5.3-2.955,7.965-.321.888-.612,1.787-.893,2.689a.753.753,0,0,0,.375.978.727.727,0,0,0,1-.284c1.907-2.62,3.837-5.224,5.686-7.885.624-.9.966-1.988,1.557-2.913a21.064,21.064,0,0,1,2.116-2.778,1.345,1.345,0,0,1,2.1-.05,12.961,12.961,0,0,1,1.475,1.569,1.051,1.051,0,0,1-.095,1.53c-2.421,2.225-3.612,5.179-4.846,8.106a7.035,7.035,0,0,0-.511,1.661.972.972,0,0,0,.361.835,1,1,0,0,0,.892-.239c.994-1.04,1.976-2.1,2.88-3.215,2.07-2.557,4.068-5.172,6.14-7.727a15.711,15.711,0,0,1,6.789-5.082,4.724,4.724,0,0,1,2.428-.218,2.853,2.853,0,0,1,2.125,3.806,10.493,10.493,0,0,1-1.559,2.488C225.241,138.287,224.812,138.347,224.3,138.58Zm58.21-6.089c-.191-.24-.344-.588-.6-.714a.962.962,0,0,0-.839.1,12.707,12.707,0,0,0-2.026,1.771c-1.725,2.042-3.4,4.132-5.045,6.237a10.4,10.4,0,0,0-1.193,2.028.943.943,0,0,0,.229.848c.153.142.552.067.827.013.155-.031.286-.208.417-.331,1.262-1.186,2.532-2.363,3.778-3.565a18.556,18.556,0,0,0,4-5.3C282.21,133.254,282.333,132.918,282.511,132.491Zm-92.186,12.341a.68.68,0,0,0,0,.2c.076.248.163.493.245.739a3.049,3.049,0,0,0,.653-.548c.813-1.214,1.574-2.464,2.392-3.675a10.489,10.489,0,0,0,1.765-3.978c.063-.347-.032-1-.2-1.053a1.477,1.477,0,0,0-1.213.161,7.184,7.184,0,0,0-1.79,1.981A22.282,22.282,0,0,0,190.326,144.832Zm71.248-6.924c1.7-.009,4.116-2.727,3.638-4.083A10.152,10.152,0,0,0,261.574,137.908ZM180.741,140.6l.122.164a1.289,1.289,0,0,0,.441-.041,5.85,5.85,0,0,0,3.065-3.555c.05-.148-.126-.372-.2-.561-.212.083-.5.106-.623.26-.607.747-1.171,1.528-1.748,2.3C181.444,139.644,181.094,140.124,180.741,140.6Z"/><path class="cls-2" d="M530.6,150.582c-.548,1.532-1.256,2.161-2.453,2.181a2.457,2.457,0,0,1-2.509-2.171,2.474,2.474,0,0,1,4.767-1.18l.195.494Z"/><path class="cls-2" d="M526.877,141.89a9.284,9.284,0,0,1-.432.923,26.5,26.5,0,0,1-4.345,4.975c-.929.918-1.9,1.8-2.848,2.693a11.327,11.327,0,0,1-4.671,2.617,3.687,3.687,0,0,1-4.806-3.617c0-.606.1-1.211.13-1.818a1.242,1.242,0,0,0-1.354-1.4,2.741,2.741,0,0,1-2.966-2.452,5.824,5.824,0,0,0-.279-1.107c-.312-.754-.808-.818-1.295-.161-.684.923-1.333,1.871-1.995,2.81a30.507,30.507,0,0,0-3.5,6.3,5.508,5.508,0,0,1-.415.848,1.024,1.024,0,0,1-1.615.312,2.913,2.913,0,0,1-1.117-2.423,16.038,16.038,0,0,0-.052-1.95c-.106-.782-.432-.894-1.022-.38-1,.872-1.931,1.835-2.977,2.648a13.051,13.051,0,0,1-2.642,1.6,3.435,3.435,0,0,1-5.012-3,10.107,10.107,0,0,1,.938-5.059,35.831,35.831,0,0,1,2.2-4.086c.581-.974.672-1.33.153-1.86a1.844,1.844,0,0,0-2.245-.217,3.817,3.817,0,0,0-1.188,1.251c-2.576,5.271-5.436,10.42-7.13,16.079a2.909,2.909,0,0,0,.07,1.29,8.228,8.228,0,0,0,.36.869,1.28,1.28,0,0,1-.791,1.706,1.2,1.2,0,0,1-1.723-.337,3.254,3.254,0,0,1-.763-2.437,20.1,20.1,0,0,1,1.432-6.362c1.3-3.621,2.674-7.212,4.022-10.814.454-1.214-.052-1.929-1.362-1.884-1.485.051-2.971.1-4.455.182a3.34,3.34,0,0,0-2.675,1.368,65.829,65.829,0,0,0-8.236,14.53,16.91,16.91,0,0,0-1.364,5.822,1.653,1.653,0,0,1-.11.729c-.21.39-.431.932-.774,1.054-.48.171-.809-.3-1.041-.759a8.857,8.857,0,0,1-.537-4.767c.151-2.312,1.192-4.371,1.9-6.524a38.482,38.482,0,0,1,3.553-8.149,1.328,1.328,0,0,0,.232-.483c.044-.38.192-.938.007-1.11a1.547,1.547,0,0,0-1.214-.308,23.692,23.692,0,0,0-7.572,3.129c-.659.415-1.3.873-2.082.234a2.021,2.021,0,0,1-.525-2.344,4.851,4.851,0,0,1,2.511-2.709,25.114,25.114,0,0,1,7.63-2.165c1.068-.167,2.144-.277,3.216-.413a3.539,3.539,0,0,0,2.825-1.747c2.332-4.186,4.841-8.284,6.549-12.787a31.708,31.708,0,0,0,1.089-3.544,2.552,2.552,0,0,0-2.98-3.328,16.981,16.981,0,0,0-5.992,2.176,42.683,42.683,0,0,0-10.1,7.852c-2.191,2.231-4.288,4.56-6.341,6.92a21.673,21.673,0,0,0-1.939,3,1.983,1.983,0,0,0,0,2.17c.716,1.25.308,2-1.131,2.169a2.978,2.978,0,0,1-3.248-2.881,8.047,8.047,0,0,1,.911-3.906,27.783,27.783,0,0,1,5.03-6.829c5.233-5.6,11.711-9.291,18.767-12.05a9.949,9.949,0,0,1,6.689-.369,4.716,4.716,0,0,1,3.763,4.806,20.285,20.285,0,0,1-2.286,9.894c-.92,1.929-1.905,3.827-2.859,5.74a5.951,5.951,0,0,0-.247.554c-.459,1.217.014,2.025,1.3,2.121,1.212.091,2.429.133,3.645.137a2.339,2.339,0,0,0,2.156-1.581c.964-2.008,1.884-4.04,2.913-6.014,1.872-3.591,3.752-7.182,5.756-10.7a13.019,13.019,0,0,1,2.543-2.952,2.632,2.632,0,0,1,4.042.823,1.034,1.034,0,0,1-.174,1.358,26.289,26.289,0,0,0-5.026,7.232c-1.9,3.579-3.835,7.135-5.7,10.73-.751,1.448-.452,2,1.022,2.668a2.876,2.876,0,0,0,3.42-.51,12.885,12.885,0,0,1,4.239-2.59,2.768,2.768,0,0,1,3.266.717,2.991,2.991,0,0,1,.665,3.423,9.67,9.67,0,0,1-2.152,3.081c-1.107,1.091-2.226,2.169-3.329,3.264a10.521,10.521,0,0,1-2.976,1.942,7.074,7.074,0,0,0-2.019,1.5,1.749,1.749,0,0,0-.249,1.372c.187.873.815,1.028,1.574.539,2.567-1.654,4.543-3.96,6.7-6.063a13.039,13.039,0,0,0,1.3-1.369c.61-.8,1.157-1.643,1.721-2.475,1.108-1.638,2.162-3.316,3.331-4.91a1.385,1.385,0,0,1,2.281-.174,10.654,10.654,0,0,1,1.113,1.263,1.294,1.294,0,0,0,2.09.27c.637-.464,1.259-.951,1.922-1.375a1.93,1.93,0,0,1,2.689.273,2.14,2.14,0,0,1,.415,2.872c-.413.643-.921,1.224-1.346,1.86a14.192,14.192,0,0,0-1.128,1.913c-.119.259.04.647.073.977.354-.057.788-.005,1.045-.194a14.21,14.21,0,0,0,1.411-1.353c1.466-1.429,2.876-2.922,4.419-4.262a10.508,10.508,0,0,1,4.555-2.269,3.279,3.279,0,0,1,3.805,2.408,2.556,2.556,0,0,1-.2,1.429,17.058,17.058,0,0,1-9.141,8.573,4.451,4.451,0,0,0-2.247,1.848c-.251.442-.513.906-.048,1.35a1.157,1.157,0,0,0,1.578.255c1.373-.934,2.82-1.779,4.1-2.829,1.948-1.6,3.768-3.354,5.668-5.014a4.259,4.259,0,0,1,1.063-.5Zm-9.346,1.1a4.593,4.593,0,0,0,3.692-4.294A12.058,12.058,0,0,0,517.531,142.988Zm-23.152-5.865a12.578,12.578,0,0,0-3.705,4.371A4.7,4.7,0,0,0,494.378,137.123Z"/><path class="cls-2" d="M145.919,145.513c.145-.49.332-1.207.568-1.907a68.233,68.233,0,0,1,4.994-10.385,88.514,88.514,0,0,1,8.685-13.417,15.143,15.143,0,0,1,2.727-2.5,2.91,2.91,0,0,1,3.933,1.019,1.228,1.228,0,0,1-.265,1.536c-1,1.1-2.106,2.118-3,3.3-2.693,3.577-5.382,7.163-7.924,10.848-2.133,3.092-4.057,6.328-6.072,9.5a2.506,2.506,0,0,0-.379,2.059c.175.666.322,1.358-.342,1.856a1.716,1.716,0,0,1-1.9.25C146.176,147.283,145.948,146.567,145.919,145.513Z"/><path class="cls-2" d="M289.592,144.826a5,5,0,0,1,2.787-3.969,2.53,2.53,0,0,1,2.87.745,1.4,1.4,0,0,1-.018,1.858c-.83,1.034-1.688,2.046-2.552,3.052-.4.465-.846.913-1.546.73a2,2,0,0,1-1.463-1.607A6.281,6.281,0,0,1,289.592,144.826Z"/><path class="cls-2" d="M212.255,126.165a11.117,11.117,0,0,1,1.757,1.19,1.387,1.387,0,0,1-.03,2.194c-.963,1-1.936,2-2.945,2.958a1.13,1.13,0,0,1-2.02-.542,3.825,3.825,0,0,1-.1-1.527,5.3,5.3,0,0,1,2.024-3.673A6.974,6.974,0,0,1,212.255,126.165Z"/><path class="cls-2" d="M351.955,147.481a4.946,4.946,0,0,0,1.017-.511,82.407,82.407,0,0,0,8.181-8.245,2.286,2.286,0,0,1,2.767-.81,1.33,1.33,0,0,1,.651.684,3.348,3.348,0,0,1-.364,3.152c-.76,1.142-1.472,2.321-2.132,3.524a12.158,12.158,0,0,0-.8,2.065c-.058.176.013.535.133.6a.854.854,0,0,0,.683-.04,3.371,3.371,0,0,0,.721-.6,45.855,45.855,0,0,0,7.778-10.331,19.6,19.6,0,0,1,1.987-2.8,1.629,1.629,0,0,1,2.724-.046,10.662,10.662,0,0,1,1.138,1.586c.58.907.831.964,1.7.3.844-.639,1.664-1.312,2.533-1.916a2.35,2.35,0,0,1,3.279,3.258c-.786,1.154-1.622,2.275-2.4,3.431a4.732,4.732,0,0,0-.611,1.267.841.841,0,0,0,.17.755.817.817,0,0,0,.781-.076,25.834,25.834,0,0,0,2.741-2.769c.929-1.181,1.654-2.52,2.508-3.763a5.575,5.575,0,0,1,1.068-1.119,1.366,1.366,0,0,1,1.909.016,7.06,7.06,0,0,1,1.175,1.292,1.554,1.554,0,0,1-.137,2.264,22.643,22.643,0,0,0-4.431,7.591,9.453,9.453,0,0,0-.452,1.2c-.056.226-.042.6.1.71a.823.823,0,0,0,.719-.031,3.3,3.3,0,0,0,.835-.671,47.683,47.683,0,0,0,6.989-9.249,24.089,24.089,0,0,1,2.518-3.335,1.245,1.245,0,0,1,1.962-.163,3.65,3.65,0,0,1,1.6,3.677c.76-.414,1.378-.688,1.927-1.062,1.153-.787,2.256-1.646,3.4-2.439a1.583,1.583,0,0,1,2.349.219,3.025,3.025,0,0,1,.645,3.817c-1.183,2.378-2.388,4.744-3.579,7.118a1.652,1.652,0,0,0-.287.743,4.4,4.4,0,0,0,.332,1.027c.331-.117.779-.136.972-.368a20.623,20.623,0,0,0,1.731-2.411,25.2,25.2,0,0,1,7.734-8,15.061,15.061,0,0,1,7.242-2.366c2.39-.189,4.253,2.647,3.322,4.963-.956,2.38-1.948,4.745-2.9,7.128-2.578,6.482-5.121,12.977-7.722,19.449a25.674,25.674,0,0,1-3.242,5.981,11.782,11.782,0,0,1-4.882,3.843,6.072,6.072,0,0,1-2.613.464,3.427,3.427,0,0,1-3.265-4.095,21.557,21.557,0,0,1,7.3-13.985c1.9-1.725,3.88-3.368,5.771-5.1a15.159,15.159,0,0,0,1.709-2.081,1.017,1.017,0,0,0,.181-.694c-.043-.287-.158-.688-.365-.788-.184-.09-.6.091-.8.276-1.155,1.073-2.272,2.188-3.411,3.278a10.773,10.773,0,0,1-.882.735c-1.146.883-1.784.842-2.81-.211-.44-.451-.824-.955-1.261-1.409a1.243,1.243,0,0,0-1.91-.183,6.823,6.823,0,0,0-.831.69,3.156,3.156,0,0,1-3.477.82,3.122,3.122,0,0,1-2.069-3.052,13.086,13.086,0,0,1,.382-3.122c.228-1.029.653-2.012.932-3.031a4.445,4.445,0,0,0,.015-1.136l-.218-.108a4.029,4.029,0,0,0-.935.672c-1.774,2.3-3.541,4.6-5.25,6.948-.5.681-.741,1.54-1.2,2.252-.325.5-.778,1.176-1.252,1.246-.4.06-1.043-.555-1.343-1.022a9.083,9.083,0,0,1-.746-2c-.155-.457-.29-.921-.479-1.524-.527.351-.954.586-1.323.891-.988.819-1.937,1.686-2.928,2.5a2.25,2.25,0,0,1-2.556.519,3.035,3.035,0,0,1-1.925-2.649,10.093,10.093,0,0,1,.321-2.189c.119-.595.342-1.169.456-1.764.169-.882-.229-1.2-1.062-.9a1.469,1.469,0,0,0-.187.077c-2.138,1.134-4.049-1-4-2.725a3.751,3.751,0,0,0-.069-1.068c-.247-.92-.817-1.071-1.447-.345a31.127,31.127,0,0,0-2.974,3.672c-1.41,2.24-2.607,4.615-3.952,6.9a2.419,2.419,0,0,1-1.258,1.171c-.673.134-.967-.61-1.174-1.188a19.244,19.244,0,0,1-.609-1.987c-.228-.95-.833-1.186-1.547-.53-.911.837-1.736,1.778-2.7,2.547a2.309,2.309,0,0,1-3.876-1.092,11.771,11.771,0,0,1-.35-2.034c-.1-.553-.246-1.1-.372-1.648a7.082,7.082,0,0,0-1.4.788c-1.035.937-2,1.947-3,2.927-.177.174-.35.353-.54.51-1.424,1.175-2.7.948-3.633-.651a7.616,7.616,0,0,1-.357-.727c-.606-1.343-1.187-1.488-2.3-.552-.982.828-1.9,1.74-2.939,2.489-2.242,1.619-4.572,3.117-6.811,4.742a25.64,25.64,0,0,1-5.765,3.064,18.9,18.9,0,0,1-7.1,1.446,9.045,9.045,0,0,1-9.41-9.014,27.555,27.555,0,0,1,2.645-12.433,56.678,56.678,0,0,1,11.38-16.724,66.861,66.861,0,0,1,12.14-10.293,31.281,31.281,0,0,1,11.971-4.547c5.156-.848,8.054,4.016,7.405,7.7a10.386,10.386,0,0,1-2.382,5.147,42.65,42.65,0,0,1-4.149,4.245,12.764,12.764,0,0,1-3.316,1.892,1.953,1.953,0,0,1-2.823-1.673,13.533,13.533,0,0,1,.026-3.02,1.2,1.2,0,0,1,1.67-1.076,3.2,3.2,0,0,0,2.972-.588,15.48,15.48,0,0,0,4.327-4.024,4.688,4.688,0,0,0,.976-3.489,3.789,3.789,0,0,0-4.309-2.939,18.576,18.576,0,0,0-6.29,2.149,42.532,42.532,0,0,0-9.266,6.958,70.477,70.477,0,0,0-14.193,18.777,39.681,39.681,0,0,0-3.553,9.383,12.37,12.37,0,0,0-.193,4.7,4.9,4.9,0,0,0,4.611,4.515,16.886,16.886,0,0,0,8.008-1.156,35.413,35.413,0,0,0,9.974-5.722c1.347-1.02,2.668-2.076,3.988-3.13a22.224,22.224,0,0,0,5.462-6.2,22.433,22.433,0,0,1,7.128-7.277,9.423,9.423,0,0,1,5.327-1.7,3.943,3.943,0,0,1,3.847,2.253,1.032,1.032,0,0,1,.177.569c-.088.414-.143.967-.425,1.178-.429.32-.753-.175-1.027-.5-.99-1.172-1.745-1.337-3.133-.575a22.583,22.583,0,0,0-8.819,9.182,6.905,6.905,0,0,0-.6,1.209,12.131,12.131,0,0,0-.293,1.491Zm62.121,11.4.122-.1c-.225-.3-.394-.717-.693-.858-.212-.1-.616.145-.9.293a2.477,2.477,0,0,0-.5.453,25,25,0,0,0-6.682,11.228,1.36,1.36,0,0,0,.539,1.546,1.017,1.017,0,0,0,1.416-.143,14.992,14.992,0,0,0,2.164-2.377,37.917,37.917,0,0,0,4.389-9.451C413.992,159.275,414.028,159.075,414.076,158.879Zm9.235-21.227a1.9,1.9,0,0,0-.391,0,6.465,6.465,0,0,0-.891.3,18.67,18.67,0,0,0-8.446,8.684.982.982,0,0,0,.163.842c.1.134.506.139.725.061a2.4,2.4,0,0,0,.841-.542c1.156-1.132,2.291-2.286,3.43-3.434a25.8,25.8,0,0,0,4.124-4.967C423.028,138.327,423.139,138.024,423.311,137.652Z"/><path class="cls-2" d="M389.743,132.054a7.019,7.019,0,0,1,2.056-4.308,1.315,1.315,0,0,1,1.983-.016,9.636,9.636,0,0,1,1.224,1.248,1.138,1.138,0,0,1-.064,1.649q-1.505,1.5-3.091,2.916a.943.943,0,0,1-1.588-.261A8.159,8.159,0,0,1,389.743,132.054Z"/><path class="cls-2" d="M430.945,152.63a2.454,2.454,0,1,1-4.908-.024,2.491,2.491,0,0,1,2.512-2.471A2.441,2.441,0,0,1,430.945,152.63Z"/></g></g></svg>