<svg  width="312" id="Layer_1" data-name="Layer 1" xmlns="http://www.w3.org/2000/svg" viewBox="0 0 395.46 124.84"><defs><style>.cls-1{fill:#72808a;}.cls-2{fill:#14377d;}</style></defs><title>BorlandGrooverLogo-4c_rsg</title><path d="M277.8,337.92q6.19,0,9.13,3a11,11,0,0,1,2.94,8,14.19,14.19,0,0,1-.4,3.38,10.09,10.09,0,0,1-1.24,3,7.87,7.87,0,0,1-2.14,2.26,8.07,8.07,0,0,1-3.16,1.3V359a8.3,8.3,0,0,1,3.72,1.14,8.65,8.65,0,0,1,2.54,2.38,10,10,0,0,1,1.45,3.13,12.91,12.91,0,0,1,.46,3.44,17.88,17.88,0,0,1-.74,5.27,10.74,10.74,0,0,1-2.32,4.15,10.44,10.44,0,0,1-4.12,2.69,17.37,17.37,0,0,1-6.13,1H260.4V337.92Zm-3.1,17.34a3.11,3.11,0,0,0,2.73-1.33,5.32,5.32,0,0,0,.93-3.13,5.57,5.57,0,0,0-.93-3.22,3.09,3.09,0,0,0-2.73-1.36h-2.79v9Zm.43,18.58a3.79,3.79,0,0,0,2.85-1.33,5.88,5.88,0,0,0,1.24-4.12,5.7,5.7,0,0,0-1.24-4,3.76,3.76,0,0,0-2.85-1.36h-3.22v10.78Z" transform="translate(-116.59 -326.84)"/><path d="M295.58,349.57a18.68,18.68,0,0,1,2.67-7.12,10.82,10.82,0,0,1,4.89-4,22.42,22.42,0,0,1,14.87,0,10.83,10.83,0,0,1,4.89,4,18.76,18.76,0,0,1,2.67,7.12,70,70,0,0,1,0,21.12,18.76,18.76,0,0,1-2.67,7.12,10.25,10.25,0,0,1-4.89,3.93,24.06,24.06,0,0,1-14.87,0,10.23,10.23,0,0,1-4.89-3.93,18.68,18.68,0,0,1-2.67-7.12,69.56,69.56,0,0,1,0-21.12Zm11.21,18a26.41,26.41,0,0,0,.53,4.68,4.54,4.54,0,0,0,1.17,2.41,3.5,3.5,0,0,0,4.15,0,4.51,4.51,0,0,0,1.18-2.41,26.48,26.48,0,0,0,.52-4.68q.13-2.94.13-7.4t-.13-7.4a26.51,26.51,0,0,0-.52-4.68,4.52,4.52,0,0,0-1.18-2.41,3.49,3.49,0,0,0-4.15,0,4.55,4.55,0,0,0-1.17,2.41,26.44,26.44,0,0,0-.53,4.68q-.12,2.94-.12,7.4T306.79,367.53Z" transform="translate(-116.59 -326.84)"/><path d="M349,337.92a16.09,16.09,0,0,1,5.61.87,9.61,9.61,0,0,1,3.78,2.45,9.47,9.47,0,0,1,2.11,3.75,16.34,16.34,0,0,1,.65,4.71,12.84,12.84,0,0,1-1.8,7.19,7.94,7.94,0,0,1-5.76,3.34v.12q4.14.37,5.7,2.91a13.42,13.42,0,0,1,1.55,7v5.58c0,.62,0,1.21.07,1.77a14.85,14.85,0,0,0,.18,1.52,4.11,4.11,0,0,0,.31,1.05c.16.25.33.48.49.71a2.46,2.46,0,0,0,.81.65v.62H350.46a7.44,7.44,0,0,1-.65-2,23.43,23.43,0,0,1-.31-2.35q-.09-1.18-.12-2.26c0-.72,0-1.31,0-1.76v-3a21.86,21.86,0,0,0-.19-3.1,5,5,0,0,0-.65-2,2.5,2.5,0,0,0-1.18-1,4.85,4.85,0,0,0-1.76-.28h-3v17.72H331V337.92Zm-4.21,18.71a4.43,4.43,0,0,0,3.65-1.46,5.88,5.88,0,0,0,1.17-3.81,5.59,5.59,0,0,0-1.14-4,5.08,5.08,0,0,0-3.75-1.18h-2.23v10.41Z" transform="translate(-116.59 -326.84)"/><path d="M379.63,337.92v34.81h14.18v9.42h-25.7V337.92Z" transform="translate(-116.59 -326.84)"/><path d="M421.63,337.92l10.78,44.23H420.14L419,374.4H409.8l-1.18,7.74H396.54l10.59-44.23Zm-7.31,9-3.16,18.77h6.44L414.44,347Z" transform="translate(-116.59 -326.84)"/><path d="M448.76,337.92l7.43,27.25h.13V337.92h10.78v44.23H454.45l-7.68-27.32h-.13v27.32H435.87V337.92Z" transform="translate(-116.59 -326.84)"/><path d="M490.38,337.92q5,0,7.8,1.83a11.32,11.32,0,0,1,4.18,4.89,20.91,20.91,0,0,1,1.7,7.06q.31,4,.31,8.33t-.31,8.33a20.92,20.92,0,0,1-1.7,7.06,11.32,11.32,0,0,1-4.18,4.89q-2.78,1.83-7.8,1.83H473.65V337.92Zm-2.91,35.93a6.34,6.34,0,0,0,2.66-.47,3.16,3.16,0,0,0,1.52-2,15.71,15.71,0,0,0,.68-4.21q.16-2.73.16-7.19t-.16-7.18a15.75,15.75,0,0,0-.68-4.21,3.17,3.17,0,0,0-1.52-2,6.35,6.35,0,0,0-2.66-.46h-2.29v27.63Z" transform="translate(-116.59 -326.84)"/><path d="M290.87,416.65v24h-7.8l-.25-3.9h-.13a6.17,6.17,0,0,1-1.58,2.35,6.94,6.94,0,0,1-2.29,1.39,12.77,12.77,0,0,1-2.73.65,23.23,23.23,0,0,1-2.94.18,14,14,0,0,1-6.94-1.45,9.17,9.17,0,0,1-3.84-4.37,21.93,21.93,0,0,1-1.64-7.19q-.34-4.27-.34-9.79a66.12,66.12,0,0,1,.65-9.85,18.73,18.73,0,0,1,2.48-7.19,11.71,11.71,0,0,1,5-4.43,19.57,19.57,0,0,1,8.3-1.52,18.68,18.68,0,0,1,5.61.8,11,11,0,0,1,4.43,2.6,12.33,12.33,0,0,1,2.91,4.61,19.67,19.67,0,0,1,1.05,6.85H279.72a15.48,15.48,0,0,0-.62-5.14,2.55,2.55,0,0,0-2.66-1.92,3.45,3.45,0,0,0-2.26.68,4.27,4.27,0,0,0-1.24,2.41,26.44,26.44,0,0,0-.53,4.68q-.12,2.94-.12,7.4t.12,7.4a26.41,26.41,0,0,0,.53,4.68,4.54,4.54,0,0,0,1.17,2.41,3,3,0,0,0,2.08.68,3.52,3.52,0,0,0,1.64-.37A3,3,0,0,0,279,432a10.19,10.19,0,0,0,.78-2.85,32,32,0,0,0,.28-4.68H276v-7.8Z" transform="translate(-116.59 -326.84)"/><path d="M315.16,396.36a16.09,16.09,0,0,1,5.61.87,9.56,9.56,0,0,1,3.78,2.45,9.41,9.41,0,0,1,2.11,3.75,16.34,16.34,0,0,1,.65,4.71,12.89,12.89,0,0,1-1.79,7.19,8,8,0,0,1-5.76,3.34v.12q4.15.37,5.7,2.91a13.47,13.47,0,0,1,1.55,7v5.58c0,.62,0,1.21.06,1.77a13.5,13.5,0,0,0,.19,1.52,4.14,4.14,0,0,0,.31,1.05q.25.37.5.71a2.43,2.43,0,0,0,.8.65v.62H316.58a7.79,7.79,0,0,1-.65-2,23.41,23.41,0,0,1-.31-2.35c-.06-.78-.11-1.54-.13-2.26s0-1.31,0-1.76v-3a21.13,21.13,0,0,0-.19-3.1,4.84,4.84,0,0,0-.65-2,2.47,2.47,0,0,0-1.17-1,4.85,4.85,0,0,0-1.76-.28h-3v17.72H297.13V396.36Zm-4.21,18.71a4.42,4.42,0,0,0,3.65-1.46,5.86,5.86,0,0,0,1.18-3.81,5.57,5.57,0,0,0-1.15-4,5.06,5.06,0,0,0-3.75-1.18h-2.23v10.41Z" transform="translate(-116.59 -326.84)"/><path d="M332.19,408a18.68,18.68,0,0,1,2.66-7.12,10.83,10.83,0,0,1,4.89-4,22.42,22.42,0,0,1,14.87,0,10.85,10.85,0,0,1,4.89,4,18.85,18.85,0,0,1,2.66,7.12,69.56,69.56,0,0,1,0,21.12,18.85,18.85,0,0,1-2.66,7.12,10.27,10.27,0,0,1-4.89,3.93,24.06,24.06,0,0,1-14.87,0,10.25,10.25,0,0,1-4.89-3.93,18.68,18.68,0,0,1-2.66-7.12,69.56,69.56,0,0,1,0-21.12Zm11.21,18a26.48,26.48,0,0,0,.52,4.68,4.51,4.51,0,0,0,1.18,2.41,3.5,3.5,0,0,0,4.15,0,4.54,4.54,0,0,0,1.17-2.41A26.41,26.41,0,0,0,351,426q.12-2.94.12-7.4t-.12-7.4a26.44,26.44,0,0,0-.53-4.68,4.55,4.55,0,0,0-1.17-2.41,3.49,3.49,0,0,0-4.15,0,4.52,4.52,0,0,0-1.18,2.41,26.51,26.51,0,0,0-.52,4.68q-.13,2.94-.13,7.4T343.4,426Z" transform="translate(-116.59 -326.84)"/><path d="M368.18,408a18.68,18.68,0,0,1,2.67-7.12,10.82,10.82,0,0,1,4.89-4,22.42,22.42,0,0,1,14.87,0,10.83,10.83,0,0,1,4.89,4,18.76,18.76,0,0,1,2.67,7.12,70,70,0,0,1,0,21.12,18.76,18.76,0,0,1-2.67,7.12,10.25,10.25,0,0,1-4.89,3.93,24.06,24.06,0,0,1-14.87,0,10.23,10.23,0,0,1-4.89-3.93,18.68,18.68,0,0,1-2.67-7.12,69.56,69.56,0,0,1,0-21.12Zm11.21,18a26.41,26.41,0,0,0,.53,4.68,4.54,4.54,0,0,0,1.17,2.41,3.5,3.5,0,0,0,4.15,0,4.51,4.51,0,0,0,1.18-2.41,26.48,26.48,0,0,0,.52-4.68q.13-2.94.13-7.4t-.13-7.4a26.51,26.51,0,0,0-.52-4.68,4.52,4.52,0,0,0-1.18-2.41,3.49,3.49,0,0,0-4.15,0,4.55,4.55,0,0,0-1.17,2.41,26.44,26.44,0,0,0-.53,4.68q-.12,2.94-.12,7.4T379.39,426Z" transform="translate(-116.59 -326.84)"/><path d="M412.52,396.36l4.65,33.32h.12l4.65-33.32h12.26l-9.54,44.23H409.8l-9.36-44.23Z" transform="translate(-116.59 -326.84)"/><path d="M463.81,396.36v9.41H449.13v7.56h13.75v9H449.13v8.79h15.24v9.42H437.61V396.36Z" transform="translate(-116.59 -326.84)"/><path d="M487.47,396.36a16.09,16.09,0,0,1,5.61.87,9.61,9.61,0,0,1,3.78,2.45,9.47,9.47,0,0,1,2.11,3.75,16.34,16.34,0,0,1,.65,4.71,12.84,12.84,0,0,1-1.8,7.19,7.94,7.94,0,0,1-5.76,3.34v.12q4.14.37,5.7,2.91a13.42,13.42,0,0,1,1.55,7v5.58c0,.62,0,1.21.07,1.77a14.85,14.85,0,0,0,.18,1.52,4.11,4.11,0,0,0,.31,1.05c.16.25.33.48.49.71a2.46,2.46,0,0,0,.81.65v.62H488.9a7.44,7.44,0,0,1-.65-2,23.43,23.43,0,0,1-.31-2.35q-.09-1.18-.12-2.26c0-.72,0-1.31,0-1.76v-3a21.86,21.86,0,0,0-.19-3.1,5,5,0,0,0-.65-2,2.5,2.5,0,0,0-1.18-1,4.85,4.85,0,0,0-1.76-.28h-3v17.72H469.45V396.36Zm-4.21,18.71a4.43,4.43,0,0,0,3.65-1.46,5.88,5.88,0,0,0,1.17-3.81,5.59,5.59,0,0,0-1.14-4,5.08,5.08,0,0,0-3.75-1.18H481v10.41Z" transform="translate(-116.59 -326.84)"/><path class="cls-1" d="M181.81,423.1a2.61,2.61,0,0,0-2.57-2.57l-23.2,0a19,19,0,1,1,0-38.07h46.15a2.57,2.57,0,1,0,0-5.15h-23a19.06,19.06,0,0,1-18.88-19V329.7a62.42,62.42,0,0,0,18.71,122c.95,0,1.87-.1,2.8-.14Z" transform="translate(-116.59 -326.84)"/><path class="cls-2" d="M179,326.84c-.76,0-1.5.09-2.25.11v31.3a2.61,2.61,0,0,0,2.57,2.57h22.84a19,19,0,1,1,0,38.07H156a2.57,2.57,0,1,0,0,5.14l17.65,0v0l6.8,0a19.06,19.06,0,0,1,17.79,19v25.51A62.41,62.41,0,0,0,179,326.84Z" transform="translate(-116.59 -326.84)"/><path d="M512,436.55a4.37,4.37,0,0,1-.33,1.73,4,4,0,0,1-2.23,2.19,4.14,4.14,0,0,1-1.58.31,4.28,4.28,0,0,1-1.68-.32,3.94,3.94,0,0,1-1.31-.89,4.1,4.1,0,0,1-.86-1.34,4.47,4.47,0,0,1-.31-1.68,4.35,4.35,0,0,1,.33-1.73,4,4,0,0,1,2.23-2.19,4.24,4.24,0,0,1,1.59-.31,4.16,4.16,0,0,1,1.58.31,4,4,0,0,1,2.23,2.19A4.37,4.37,0,0,1,512,436.55Zm-.9,0a3.89,3.89,0,0,0-.25-1.41,3.3,3.3,0,0,0-.69-1.11,3.11,3.11,0,0,0-1-.72,3.17,3.17,0,0,0-1.27-.25,3.23,3.23,0,0,0-1.28.25,3.09,3.09,0,0,0-1,.72,3.32,3.32,0,0,0-.69,1.11,3.89,3.89,0,0,0-.25,1.41,4,4,0,0,0,.23,1.36,3.32,3.32,0,0,0,.65,1.11,3.09,3.09,0,0,0,1,.75,3.21,3.21,0,0,0,1.36.28,3.17,3.17,0,0,0,1.27-.25,3.12,3.12,0,0,0,1-.72,3.33,3.33,0,0,0,.69-1.1A3.88,3.88,0,0,0,511.15,436.55ZM507.08,439h-.77v-4.68h1.78a2.15,2.15,0,0,1,1.28.32,1.19,1.19,0,0,1,.43,1,1.14,1.14,0,0,1-.35.93,1.58,1.58,0,0,1-.87.35l1.31,2.06H509l-1.21-2h-.72Zm.86-2.66.41,0a.87.87,0,0,0,.34-.1.64.64,0,0,0,.24-.22.74.74,0,0,0,.09-.4.54.54,0,0,0-.1-.34.64.64,0,0,0-.24-.19,1,1,0,0,0-.33-.08l-.35,0h-.93v1.37Z" transform="translate(-116.59 -326.84)"/></svg>