<svg xmlns="http://www.w3.org/2000/svg" xmlns:xlink="http://www.w3.org/1999/xlink" width="344px" height="48px" viewBox="0 0 344 48"><title>Boy Scouts of Americ Copy 3 + Rectangle + Group Copy 8 Mask</title><defs><rect id="path-1" x="0" y="0" width="344" height="48"></rect><polygon id="path-3" points="0 0 9.12694755 0 9.12694755 12.8104195 0 12.8104195"></polygon><polygon id="path-5" points="0 0 9.12616165 0 9.12616165 12.8112203 0 12.8112203"></polygon><polygon id="path-7" points="0 0 24.840035 0 24.840035 15.3946618 0 15.3946618"></polygon></defs><g id="Header" stroke="none" stroke-width="1" fill="none" fill-rule="evenodd"><g id="Boy-Scouts-of-Americ-Copy-3-+-Rectangle-+-Group-Copy-8-Mask"><mask id="mask-2" fill="white"><use xlink:href="#path-1"></use></mask><g id="Mask"></g><g id="Boy-Scouts-of-Americ-Copy-3" mask="url(#mask-2)" fill="#FFFFFF" fill-rule="nonzero"><g transform="translate(81.000000, 18.000000)"><path d="M1.56633479,8.57142857 C1.56633479,10.2857143 1.56633479,11.6964286 1.47631555,12.4464286 C1.40430016,12.9642857 1.33228476,13.375 0.9722078,13.4464286 C0.810173167,13.4821429 0.68414623,13.5 0.540115445,13.5 C0.306065419,13.5 0.270057722,13.5714286 0.270057722,13.625 C0.270057722,13.7142857 0.360076963,13.75 0.558119293,13.75 C1.18825398,13.75 1.74637327,13.6964286 2.32249641,13.6964286 C2.3945118,13.6964286 2.89861955,13.7142857 3.42073115,13.75 C3.94284275,13.7678571 4.51896589,13.8035714 4.71700822,13.8035714 C7.79566625,13.8035714 9.30798949,11.8214286 9.30798949,9.91071429 C9.30798949,7.82142857 7.52560853,6.55357143 6.19332376,6.14285714 C7.03950463,5.26785714 7.88568549,4.39285714 7.88568549,2.92857143 C7.88568549,2.03571429 7.23754696,0.25 4.28491586,0.25 C3.45673884,0.25 2.75458877,0.303571429 2.32249641,0.303571429 C2.23247717,0.303571429 1.09823474,0.25 0.28806157,0.25 C0.0900192408,0.25 0,0.285714286 0,0.392857143 C0,0.464285714 0.0720153926,0.5 0.234050026,0.5 C0.306065419,0.5 0.612130837,0.517857143 0.756161622,0.553571429 C1.35028861,0.678571429 1.4943194,0.964285714 1.53032709,1.57142857 C1.56633479,2.14285714 1.56633479,2.64285714 1.56633479,5.42857143 L1.56633479,8.57142857 Z M3.00664264,1.03571429 C3.00664264,0.928571429 3.06065419,0.875 3.22268882,0.839285714 C3.51075039,0.767857143 3.8888312,0.75 4.08687353,0.75 C5.85125065,0.75 6.51739303,2.33928571 6.51739303,3.82142857 C6.51739303,4.55357143 6.24733531,5.19642857 5.8692545,5.625 C5.49117369,6.05357143 5.23911981,6.08928571 4.23090432,6.08928571 C3.56476193,6.08928571 3.24069267,6.03571429 3.13266958,6.01785714 C3.04265034,5.98214286 3.00664264,5.94642857 3.00664264,5.82142857 L3.00664264,1.03571429 Z M3.00664264,6.69642857 C3.00664264,6.60714286 3.04265034,6.57142857 3.11466573,6.57142857 C3.38472345,6.57142857 4.28491586,6.57142857 4.51896589,6.60714286 C4.95105824,6.66071429 5.40115445,6.71428571 6.01328528,7.125 C7.39958159,8.07142857 7.75965855,9.625 7.75965855,10.6964286 C7.75965855,12.7142857 6.19332376,13.2321429 5.22111596,13.2321429 C4.8970467,13.2321429 4.12288123,13.1964286 3.63677733,12.9642857 C3.07865803,12.6964286 3.07865803,12.4464286 3.02464649,11.5714286 C3.00664264,11.3035714 3.00664264,9.08928571 3.00664264,7.71428571 L3.00664264,6.69642857 Z" id="Shape"></path><path d="M19.2321107,14 C23.5710381,14 26.4156461,10.6964286 26.4156461,6.69642857 C26.4156461,2.53571429 23.3909996,0 19.3401338,0 C14.3710717,0 12.2466176,4.08928571 12.2466176,6.98214286 C12.2466176,10.1964286 14.2990563,14 19.2321107,14 Z M19.7182146,13.3214286 C16.4775219,13.3214286 13.9569832,10.6428571 13.9569832,6.48214286 C13.9569832,2.57142857 16.2074642,0.607142857 19.2141068,0.607142857 C22.0587148,0.607142857 24.6872767,2.91071429 24.6872767,7.19642857 C24.6872767,12.3928571 21.3385609,13.3214286 19.7182146,13.3214286 Z" id="Shape"></path><path d="M33.17109,10.6607143 C33.17109,10.9464286 33.17109,11.6964286 33.1170785,12.4464286 C33.0810708,12.9642857 32.9190361,13.3571429 32.5589592,13.4285714 C32.3969245,13.4642857 32.1808784,13.5 32.0188437,13.5 C31.9108206,13.5 31.8748129,13.5535714 31.8748129,13.6071429 C31.8748129,13.7142857 31.9648322,13.75 32.1628745,13.75 C32.70299,13.75 33.8372324,13.6964286 33.9272516,13.6964286 C34.0172709,13.6964286 35.1515133,13.75 36.1417249,13.75 C36.3397673,13.75 36.4297865,13.6964286 36.4297865,13.6071429 C36.4297865,13.5535714 36.3937788,13.5 36.2857557,13.5 C36.1237211,13.5 35.7276364,13.4642857 35.4755826,13.4285714 C34.9354671,13.3571429 34.7734325,12.9642857 34.7374248,12.4464286 C34.6834132,11.6964286 34.6834132,10.9464286 34.6834132,10.6607143 L34.6834132,9.125 C34.6834132,8.53571429 34.6834132,7.98214286 34.953471,7.33928571 C35.2775402,6.57142857 37.798079,2.375 38.392206,1.66071429 C38.7882906,1.17857143 38.986333,0.964285714 39.3464099,0.75 C39.6344715,0.571428571 39.9765446,0.5 40.1745869,0.5 C40.3186177,0.5 40.408637,0.446428571 40.408637,0.357142857 C40.408637,0.285714286 40.3006139,0.25 40.1745869,0.25 C39.8325138,0.25 38.5362368,0.303571429 38.4282137,0.303571429 C38.2841829,0.303571429 37.7080597,0.25 37.2399597,0.25 C37.0599212,0.25 36.9518981,0.285714286 36.9518981,0.357142857 C36.9518981,0.446428571 37.0599212,0.482142857 37.2219558,0.535714286 C37.438002,0.589285714 37.5100174,0.785714286 37.5100174,1.03571429 C37.5100174,1.26785714 37.438002,1.57142857 37.203952,1.94642857 C36.843875,2.53571429 34.5573863,6.44642857 34.2153132,7.19642857 C33.8912439,6.67857143 31.1906667,2.07142857 30.9026051,1.55357143 C30.7585744,1.28571429 30.6685551,1.07142857 30.6685551,0.857142857 C30.6685551,0.714285714 30.7585744,0.607142857 30.9026051,0.535714286 C31.0646398,0.464285714 31.1726629,0.446428571 31.1726629,0.375 C31.1726629,0.303571429 31.1366552,0.25 30.9386128,0.25 C30.2364628,0.25 29.5523165,0.303571429 29.4262896,0.303571429 C29.3362703,0.303571429 27.9859817,0.25 27.6439086,0.25 C27.481874,0.25 27.4098586,0.303571429 27.4098586,0.375 C27.4098586,0.464285714 27.4998778,0.5 27.5898971,0.5 C27.7519317,0.5 28.0940048,0.607142857 28.3640625,0.785714286 C28.6881318,1 29.138228,1.44642857 29.5883242,2.10714286 C30.2184589,3.03571429 32.6309746,6.96428571 32.7570015,7.25 C32.9910515,7.76785714 33.17109,8.16071429 33.17109,9.125 L33.17109,10.6607143 Z" id="Path"></path><path d="M50.8588706,14 C51.8310784,14 52.8032862,13.7857143 53.5774517,13.25 C54.8197172,12.375 55.1077788,11.0178571 55.1077788,10.2857143 C55.1077788,8.85714286 54.603671,7.75 52.4792169,6.08928571 L51.9751092,5.69642857 C50.2467398,4.35714286 49.7786397,3.71428571 49.7786397,2.69642857 C49.7786397,1.39285714 50.7508475,0.625 51.993113,0.625 C53.6494671,0.625 54.135571,1.375 54.2435941,1.57142857 C54.3516171,1.76785714 54.4596402,2.25 54.4776441,2.46428571 C54.4956479,2.60714286 54.5136518,2.69642857 54.6216749,2.69642857 C54.7116941,2.69642857 54.7477018,2.57142857 54.7477018,2.28571429 C54.7477018,1.07142857 54.8197172,0.482142857 54.8197172,0.392857143 C54.8197172,0.303571429 54.7837095,0.267857143 54.6396787,0.267857143 C54.4956479,0.267857143 54.3516171,0.25 54.009544,0.178571429 C53.5594478,0.0714285714 53.0373362,0 52.3351861,0 C50.0486974,0 48.6083896,1.30357143 48.6083896,3.21428571 C48.6083896,4.42857143 49.0404819,5.53571429 50.9488898,7.08928571 L51.759063,7.75 C53.3073939,9.01785714 53.8295055,9.73214286 53.8295055,10.9642857 C53.8295055,12.1071429 52.9833247,13.3392857 51.2549553,13.3392857 C50.0486974,13.3392857 48.8604435,12.8392857 48.5903857,11.5178571 C48.5363742,11.2678571 48.5363742,11.0178571 48.5363742,10.8571429 C48.5363742,10.7142857 48.5183703,10.6607143 48.4103472,10.6607143 C48.320328,10.6607143 48.2843203,10.75 48.2663165,10.9464286 C48.2483126,11.2321429 48.1762972,11.9464286 48.1762972,12.8392857 C48.1762972,13.3214286 48.1943011,13.3928571 48.4463549,13.5178571 C49.1845127,13.875 50.0126897,14 50.8588706,14 Z" id="Path"></path><path d="M66.328177,14 C67.4804233,14 68.8487158,13.875 69.5688697,13.5892857 C69.8929389,13.4464286 69.9289466,13.4107143 70.0369697,13.0714286 C70.2170082,12.4642857 70.4330544,10.9107143 70.4330544,10.7857143 C70.4330544,10.6428571 70.3970467,10.5178571 70.3070275,10.5178571 C70.1990044,10.5178571 70.1629967,10.5892857 70.126989,10.7857143 C70.0729774,11.1071429 69.8389274,11.8928571 69.4608466,12.2857143 C68.7406927,13.0178571 67.6784656,13.1785714 66.328177,13.1785714 C62.4753535,13.1785714 59.8287878,10.0535714 59.8287878,6.64285714 C59.8287878,4.82142857 60.1348533,3.23214286 61.4491342,1.98214286 C62.0792689,1.375 63.1955074,0.678571429 65.5900192,0.678571429 C67.1743579,0.678571429 68.5606542,1.16071429 69.1907889,1.69642857 C69.6588889,2.08928571 69.9469505,2.82142857 69.9469505,3.51785714 C69.9469505,3.76785714 69.9649543,3.89285714 70.0909813,3.89285714 C70.1990044,3.89285714 70.2350121,3.78571429 70.2530159,3.51785714 C70.2710198,3.25 70.2710198,2.26785714 70.3070275,1.67857143 C70.3430352,1.03571429 70.3970467,0.821428571 70.3970467,0.678571429 C70.3970467,0.571428571 70.361039,0.5 70.2350121,0.482142857 C69.5688697,0.392857143 69.0107504,0.339285714 68.3266042,0.214285714 C67.4444156,0.0535714286 66.4362001,0 65.7160462,0 C62.9434536,0 61.3051034,0.839285714 60.2248725,1.91071429 C58.62253,3.5 58.2084415,5.58928571 58.2084415,6.78571429 C58.2084415,8.48214286 58.6405339,10.5178571 60.3869071,12.0714286 C61.8092111,13.3392857 63.6275998,14 66.328177,14 Z" id="Path"></path><path d="M80.0871179,14 C84.4260453,14 87.2706533,10.6964286 87.2706533,6.69642857 C87.2706533,2.53571429 84.2460068,0 80.1951409,0 C75.2260789,0 73.1016248,4.08928571 73.1016248,6.98214286 C73.1016248,10.1964286 75.1540635,14 80.0871179,14 Z M80.5732218,13.3214286 C77.3325291,13.3214286 74.8119903,10.6428571 74.8119903,6.48214286 C74.8119903,2.57142857 77.0624714,0.607142857 80.069114,0.607142857 C82.913722,0.607142857 85.5422838,2.91071429 85.5422838,7.19642857 C85.5422838,12.3928571 82.1935681,13.3214286 80.5732218,13.3214286 Z" id="Shape"></path><path d="M92.7118163,5.42857143 C92.7118163,2.64285714 92.7118163,2.14285714 92.747824,1.57142857 C92.7838317,0.946428571 92.9278624,0.625 93.4139663,0.553571429 C93.6300125,0.517857143 93.7380356,0.5 93.8640625,0.5 C93.9360779,0.5 94.0080933,0.464285714 94.0080933,0.392857143 C94.0080933,0.285714286 93.9180741,0.25 93.7200318,0.25 C93.1799163,0.25 92.0996854,0.303571429 91.9376508,0.303571429 C91.7756162,0.303571429 90.6773814,0.25 89.8672083,0.25 C89.6691659,0.25 89.5791467,0.285714286 89.5791467,0.392857143 C89.5791467,0.464285714 89.6511621,0.5 89.7231775,0.5 C89.8852121,0.5 90.1912775,0.517857143 90.3353083,0.553571429 C90.9294353,0.678571429 91.0734661,0.964285714 91.1094738,1.57142857 C91.1454815,2.14285714 91.1454815,2.64285714 91.1454815,5.42857143 L91.1454815,8.03571429 C91.1454815,10.6428571 91.8296277,11.8928571 92.7118163,12.7321429 C93.9900895,13.9285714 95.8084781,14 96.420609,14 C97.482836,14 98.8331246,13.8214286 100.129402,12.6785714 C101.56971,11.4107143 101.785756,9.26785714 101.785756,7.33928571 L101.785756,5.42857143 C101.785756,2.64285714 101.785756,2.14285714 101.821763,1.57142857 C101.857771,0.946428571 102.001802,0.660714286 102.487906,0.553571429 C102.703952,0.517857143 102.811975,0.5 102.938002,0.5 C103.010017,0.5 103.082033,0.464285714 103.082033,0.392857143 C103.082033,0.285714286 102.992014,0.25 102.793971,0.25 C102.253856,0.25 101.407675,0.303571429 101.281648,0.303571429 C101.173625,0.303571429 100.183413,0.25 99.3732401,0.25 C99.1751978,0.25 99.0851785,0.285714286 99.0851785,0.392857143 C99.0851785,0.464285714 99.1571939,0.5 99.2292093,0.5 C99.3912439,0.5 99.6973093,0.517857143 99.8413401,0.553571429 C100.435467,0.678571429 100.579498,0.964285714 100.615506,1.57142857 C100.651513,2.14285714 100.651513,2.64285714 100.651513,5.42857143 L100.651513,7.66071429 C100.651513,9.5 100.435467,11.0178571 99.6072901,12.0357143 C98.9591516,12.8035714 97.8789207,13.3214286 96.7806859,13.3214286 C95.7544666,13.3214286 94.9442934,13.1607143 94.0621049,12.3392857 C93.2879394,11.6071429 92.7118163,10.5 92.7118163,7.92857143 L92.7118163,5.42857143 Z" id="Path"></path><path d="M111.259781,1.01785714 C112.015942,1.03571429 112.772104,1.03571429 113.528266,1.05357143 C115.256635,1.08928571 115.688727,1.5 115.742739,2.03571429 C115.742739,2.10714286 115.760743,2.16071429 115.760743,2.23214286 C115.778747,2.48214286 115.814754,2.53571429 115.904774,2.53571429 C115.976789,2.53571429 116.0308,2.46428571 116.0308,2.30357143 C116.0308,2.10714286 116.084812,0.875 116.084812,0.339285714 C116.084812,0.232142857 116.084812,0.125 115.994793,0.125 C115.922777,0.125 115.760743,0.178571429 115.490685,0.214285714 C115.202623,0.267857143 114.788535,0.303571429 114.212412,0.303571429 L107.460969,0.303571429 C107.244923,0.303571429 106.560776,0.267857143 106.038665,0.214285714 C105.552561,0.178571429 105.372522,0 105.246495,0 C105.17448,0 105.102465,0.232142857 105.066457,0.339285714 C105.030449,0.482142857 104.670372,2.01785714 104.670372,2.19642857 C104.670372,2.30357143 104.70638,2.35714286 104.760392,2.35714286 C104.832407,2.35714286 104.886418,2.32142857 104.94043,2.17857143 C104.994442,2.05357143 105.048453,1.92857143 105.246495,1.625 C105.534557,1.19642857 105.966649,1.07142857 107.082888,1.05357143 C107.965077,1.03571429 108.865269,1.03571429 109.747457,1.01785714 L109.747457,8.57142857 C109.747457,10.2857143 109.747457,11.6964286 109.657438,12.4464286 C109.585423,12.9642857 109.495404,13.3571429 109.135327,13.4285714 C108.973292,13.4642857 108.757246,13.5 108.595211,13.5 C108.487188,13.5 108.45118,13.5535714 108.45118,13.6071429 C108.45118,13.7142857 108.5412,13.75 108.739242,13.75 C109.279357,13.75 110.4136,13.6964286 110.503619,13.6964286 C110.593638,13.6964286 111.727881,13.75 112.718092,13.75 C112.916135,13.75 113.006154,13.6964286 113.006154,13.6071429 C113.006154,13.5535714 112.970146,13.5 112.862123,13.5 C112.700089,13.5 112.304004,13.4642857 112.05195,13.4285714 C111.511835,13.3571429 111.403812,12.9642857 111.3498,12.4464286 C111.259781,11.6964286 111.259781,10.2857143 111.259781,8.57142857 L111.259781,1.01785714 Z" id="Path"></path><path d="M121.36394,14 C122.336148,14 123.308356,13.7857143 124.082521,13.25 C125.324787,12.375 125.612849,11.0178571 125.612849,10.2857143 C125.612849,8.85714286 125.108741,7.75 122.984287,6.08928571 L122.480179,5.69642857 C120.75181,4.35714286 120.283709,3.71428571 120.283709,2.69642857 C120.283709,1.39285714 121.255917,0.625 122.498183,0.625 C124.154537,0.625 124.640641,1.375 124.748664,1.57142857 C124.856687,1.76785714 124.96471,2.25 124.982714,2.46428571 C125.000718,2.60714286 125.018722,2.69642857 125.126745,2.69642857 C125.216764,2.69642857 125.252772,2.57142857 125.252772,2.28571429 C125.252772,1.07142857 125.324787,0.482142857 125.324787,0.392857143 C125.324787,0.303571429 125.288779,0.267857143 125.144748,0.267857143 C125.000718,0.267857143 124.856687,0.25 124.514614,0.178571429 C124.064518,0.0714285714 123.542406,0 122.840256,0 C120.553767,0 119.113459,1.30357143 119.113459,3.21428571 C119.113459,4.42857143 119.545552,5.53571429 121.45396,7.08928571 L122.264133,7.75 C123.812464,9.01785714 124.334575,9.73214286 124.334575,10.9642857 C124.334575,12.1071429 123.488394,13.3392857 121.760025,13.3392857 C120.553767,13.3392857 119.365513,12.8392857 119.095456,11.5178571 C119.041444,11.2678571 119.041444,11.0178571 119.041444,10.8571429 C119.041444,10.7142857 119.02344,10.6607143 118.915417,10.6607143 C118.825398,10.6607143 118.78939,10.75 118.771386,10.9464286 C118.753382,11.2321429 118.681367,11.9464286 118.681367,12.8392857 C118.681367,13.3214286 118.699371,13.3928571 118.951425,13.5178571 C119.689583,13.875 120.51776,14 121.36394,14 Z" id="Path"></path><path d="M141.950341,14 C146.289268,14 149.133876,10.6964286 149.133876,6.69642857 C149.133876,2.53571429 146.109229,0 142.058364,0 C137.089302,0 134.964847,4.08928571 134.964847,6.98214286 C134.964847,10.1964286 137.017286,14 141.950341,14 Z M142.436444,13.3214286 C139.195752,13.3214286 136.675213,10.6428571 136.675213,6.48214286 C136.675213,2.57142857 138.925694,0.607142857 141.932337,0.607142857 C144.776945,0.607142857 147.405507,2.91071429 147.405507,7.19642857 C147.405507,12.3928571 144.056791,13.3214286 142.436444,13.3214286 Z" id="Shape"></path><path d="M153.620835,8.57142857 C153.620835,10.25 153.602831,11.5 153.54882,12.2678571 C153.494808,13.0535714 153.368781,13.3214286 152.9907,13.4285714 C152.864673,13.4642857 152.702639,13.4821429 152.5226,13.5 C152.360566,13.5178571 152.324558,13.5535714 152.324558,13.6071429 C152.324558,13.7142857 152.414577,13.75 152.612619,13.75 C153.044712,13.75 153.854885,13.7142857 154.214962,13.6964286 L154.376997,13.6964286 C154.467016,13.6964286 155.583254,13.75 156.59147,13.75 C156.789512,13.75 156.879532,13.7142857 156.879532,13.625 C156.879532,13.5535714 156.82552,13.5178571 156.663485,13.5 C156.465443,13.4821429 156.159378,13.4642857 155.925328,13.4285714 C155.439224,13.375 155.241181,12.9821429 155.18717,12.1785714 C155.133158,11.3571429 155.133158,10.0892857 155.133158,8.57142857 L155.133158,7.05357143 C155.133158,6.92857143 155.169166,6.89285714 155.259185,6.89285714 C155.565251,6.89285714 157.52767,6.89285714 157.977766,6.94642857 C158.913966,7.07142857 158.967978,7.69642857 159.003986,8.08928571 C159.021989,8.26785714 159.039993,8.39285714 159.148016,8.39285714 C159.238036,8.39285714 159.256039,8.28571429 159.274043,8.08928571 C159.292047,7.82142857 159.292047,7.39285714 159.346059,6.85714286 C159.40007,6.26785714 159.490089,5.96428571 159.490089,5.85714286 C159.490089,5.76785714 159.472086,5.71428571 159.40007,5.71428571 C159.328055,5.71428571 159.292047,5.78571429 159.202028,5.89285714 C158.949974,6.19642857 158.715924,6.21428571 157.76172,6.23214286 C157.023562,6.25 155.997343,6.25 155.259185,6.25 C155.151162,6.25 155.133158,6.19642857 155.133158,6.08928571 L155.133158,1.16071429 C155.133158,1.01785714 155.18717,0.964285714 155.295193,0.964285714 C156.213389,0.982142857 157.131585,1 158.049782,1.01785714 C158.571893,1.03571429 158.895962,1.17857143 159.112009,1.35714286 C159.364063,1.57142857 159.436078,2 159.454082,2.25 C159.472086,2.41071429 159.490089,2.48214286 159.580109,2.48214286 C159.652124,2.48214286 159.742143,2.33928571 159.742143,2.125 C159.778151,1.625 159.778151,1.33928571 159.850166,0.821428571 C159.886174,0.607142857 159.95819,0.357142857 159.95819,0.267857143 C159.95819,0.178571429 159.922182,0.107142857 159.850166,0.107142857 C159.814159,0.107142857 159.742143,0.142857143 159.688132,0.178571429 C159.544101,0.267857143 159.220032,0.267857143 158.805943,0.285714286 C158.391855,0.303571429 154.737074,0.303571429 154.376997,0.303571429 C153.728858,0.303571429 153.044712,0.25 152.342562,0.25 C152.144519,0.25 152.0545,0.285714286 152.0545,0.392857143 C152.0545,0.482142857 152.198531,0.5 152.360566,0.517857143 C152.5226,0.535714286 152.702639,0.535714286 152.810662,0.553571429 C153.404789,0.678571429 153.54882,0.964285714 153.584827,1.57142857 C153.620835,2.14285714 153.620835,2.64285714 153.620835,5.42857143 L153.620835,8.57142857 Z" id="Path"></path><path d="M175.629539,8.48214286 C175.719558,8.48214286 175.755566,8.51785714 175.791574,8.58928571 L177.465932,12.9821429 C177.573955,13.2678571 177.465932,13.4285714 177.357909,13.4642857 C177.285893,13.4821429 177.231882,13.5178571 177.231882,13.5892857 C177.231882,13.6964286 177.429924,13.6964286 177.771997,13.7142857 C179.014263,13.75 180.328544,13.75 180.598601,13.75 C180.796644,13.75 180.958678,13.7142857 180.958678,13.6071429 C180.958678,13.5178571 180.868659,13.5 180.760636,13.5 C180.616605,13.5 180.328544,13.4821429 180.058486,13.3928571 C179.680405,13.2857143 179.158293,13 178.510155,11.4107143 C177.41192,8.69642857 174.585316,1.32142857 174.315258,0.642857143 C174.099212,0.0892857143 174.027197,0 173.919174,0 C173.81115,0 173.739135,0.107142857 173.523089,0.696428571 L169.436215,11.7857143 C169.112146,12.6785714 168.752069,13.3571429 167.923892,13.4642857 C167.779861,13.4821429 167.617827,13.5 167.4918,13.5 C167.329765,13.5 167.239746,13.5357143 167.239746,13.6071429 C167.239746,13.7142857 167.347769,13.75 167.581819,13.75 C168.428,13.75 169.418212,13.6964286 169.616254,13.6964286 C169.814296,13.6964286 170.53445,13.75 170.966542,13.75 C171.128577,13.75 171.290612,13.7142857 171.290612,13.6071429 C171.290612,13.5357143 171.2366,13.5 171.056562,13.5 C171.00255,13.5 170.948539,13.5 170.894527,13.5 C170.588462,13.5 170.246389,13.3392857 170.246389,12.9821429 C170.246389,12.6607143 170.336408,12.2321429 170.498442,11.7857143 L171.578673,8.625 C171.614681,8.53571429 171.668693,8.48214286 171.758712,8.48214286 L175.629539,8.48214286 Z M171.956754,7.83928571 C171.902743,7.83928571 171.866735,7.80357143 171.902743,7.71428571 L173.487081,2.89285714 C173.5771,2.625 173.66712,2.625 173.757139,2.89285714 L175.467505,7.71428571 C175.485508,7.78571429 175.485508,7.83928571 175.395489,7.83928571 L171.956754,7.83928571 Z" id="Shape"></path><path d="M196.572015,0.482142857 C196.536008,0.142857143 196.481996,0 196.355969,0 C196.229942,0 196.157927,0.125 196.085911,0.285714286 L190.79278,11.5 L185.283603,0.267857143 C185.193583,0.0714285714 185.121568,0 185.013545,0 C184.905522,0 184.833506,0.160714286 184.815503,0.357142857 L183.519225,11.9642857 C183.429206,12.6964286 183.393199,13.3392857 182.799072,13.4464286 C182.529014,13.5 182.402987,13.5 182.258956,13.5 C182.168937,13.5 182.078918,13.5357143 182.078918,13.6071429 C182.078918,13.7321429 182.204945,13.75 182.384983,13.75 C182.871087,13.75 183.735272,13.6964286 183.897306,13.6964286 C184.041337,13.6964286 184.959533,13.75 185.625676,13.75 C185.805714,13.75 185.895733,13.7142857 185.895733,13.5892857 C185.895733,13.5357143 185.823718,13.5 185.715695,13.5 C185.607672,13.5 185.373622,13.5 185.067556,13.4285714 C184.797499,13.375 184.581453,13.2321429 184.581453,12.7857143 C184.581453,12.4821429 184.599456,12.2321429 184.61746,11.9464286 L185.355618,3.53571429 C185.55366,4.01785714 187.624103,8.42857143 187.786137,8.75 C187.876157,8.92857143 189.424488,12.0178571 189.892588,12.8928571 C190.234661,13.5357143 190.32468,13.7142857 190.450707,13.7142857 C190.612742,13.7142857 190.666753,13.5535714 191.044834,12.7678571 L195.509788,3.375 L196.373973,12.6964286 C196.409981,13.0178571 196.427985,13.2857143 196.301958,13.3392857 C196.211938,13.375 196.175931,13.3928571 196.175931,13.4642857 C196.175931,13.5535714 196.26595,13.6071429 196.680038,13.6428571 C197.346181,13.6964286 199.39862,13.75 199.794704,13.75 C200.01075,13.75 200.064762,13.7142857 200.064762,13.6071429 C200.064762,13.5178571 199.956739,13.5 199.86672,13.5 C199.686681,13.5 199.272593,13.5 198.750481,13.3392857 C197.976316,13.0892857 197.850289,12.0892857 197.778273,11.4464286 L196.572015,0.482142857 Z" id="Path"></path><path d="M203.687536,8.57142857 C203.687536,10.1607143 203.669532,11.0714286 203.651529,11.7678571 C203.615521,13.1071429 203.381471,13.3571429 203.00339,13.4464286 C202.877363,13.4821429 202.76934,13.4821429 202.589302,13.5 C202.481278,13.5178571 202.391259,13.5535714 202.391259,13.6071429 C202.391259,13.7142857 202.481278,13.75 202.679321,13.75 C203.147421,13.7678571 203.579513,13.6964286 204.011606,13.6964286 C204.713756,13.6964286 205.541933,13.7321429 206.262087,13.75 C206.964237,13.7678571 207.558364,13.8035714 208.890648,13.8035714 C209.592798,13.8035714 209.736829,13.8035714 209.862856,13.3392857 C209.952875,12.9642857 210.096906,11.75 210.096906,11.6071429 C210.096906,11.4821429 210.096906,11.3392857 209.988883,11.3392857 C209.898864,11.3392857 209.862856,11.4107143 209.826848,11.6071429 C209.682818,12.375 209.484775,12.75 208.908652,12.9285714 C208.422548,13.0714286 207.828421,13.0892857 207.288306,13.0892857 C206.586156,13.0892857 206.100052,13.0535714 205.793987,12.9285714 C205.34389,12.75 205.235867,12.3571429 205.19986,11.625 C205.181856,11.25 205.19986,9.17857143 205.19986,8.57142857 L205.19986,7 C205.19986,6.92857143 205.235867,6.875 205.325886,6.875 C205.631952,6.875 207.414333,6.91071429 207.900437,6.96428571 C208.548575,7.03571429 208.764621,7.28571429 208.836637,7.55357143 C208.890648,7.71428571 208.908652,7.89285714 208.908652,8.05357143 C208.908652,8.19642857 208.926656,8.33928571 209.034679,8.33928571 C209.106695,8.33928571 209.142702,8.25 209.160706,8.07142857 C209.17871,7.82142857 209.17871,7.41071429 209.232721,6.85714286 C209.286733,6.26785714 209.376752,5.96428571 209.376752,5.85714286 C209.376752,5.75 209.340745,5.71428571 209.286733,5.71428571 C209.214718,5.71428571 209.160706,5.78571429 209.070687,5.89285714 C208.890648,6.10714286 208.656598,6.16071429 208.170494,6.19642857 C207.756406,6.23214286 205.541933,6.23214286 205.307883,6.23214286 C205.217863,6.23214286 205.19986,6.17857143 205.19986,6.05357143 L205.19986,1.125 C205.19986,1 205.235867,0.946428571 205.307883,0.946428571 C205.505925,0.946428571 207.468344,0.964285714 207.77441,1 C208.566579,1.07142857 208.94466,1.25 209.070687,1.66071429 C209.124698,1.80357143 209.160706,2.01785714 209.160706,2.25 C209.160706,2.39285714 209.196714,2.48214286 209.304737,2.48214286 C209.376752,2.48214286 209.430764,2.35714286 209.448768,2.17857143 C209.484775,1.71428571 209.502779,1.375 209.520783,1.10714286 C209.556791,0.607142857 209.664814,0.392857143 209.664814,0.267857143 C209.664814,0.178571429 209.64681,0.107142857 209.592798,0.107142857 C209.538787,0.107142857 209.502779,0.125 209.394756,0.178571429 C209.286733,0.232142857 208.962664,0.267857143 208.566579,0.285714286 C208.152491,0.303571429 204.569725,0.303571429 204.443698,0.303571429 C203.309455,0.25 202.823352,0.25 202.409263,0.25 C202.211221,0.25 202.121201,0.285714286 202.121201,0.392857143 C202.121201,0.464285714 202.229225,0.482142857 202.355252,0.5 C202.517286,0.517857143 202.751336,0.517857143 202.877363,0.553571429 C203.47149,0.678571429 203.615521,0.964285714 203.651529,1.57142857 C203.687536,2.14285714 203.687536,2.64285714 203.687536,5.42857143 L203.687536,8.57142857 Z" id="Path"></path><path d="M214.673884,8.57142857 C214.673884,10.2857143 214.673884,11.6964286 214.583865,12.4464286 C214.51185,12.9642857 214.421831,13.3571429 214.061754,13.4285714 C213.899719,13.4642857 213.683673,13.5 213.521638,13.5 C213.413615,13.5 213.377607,13.5535714 213.377607,13.6071429 C213.377607,13.7142857 213.467627,13.75 213.665669,13.75 C214.205784,13.75 215.340027,13.6964286 215.358031,13.6964286 C215.44805,13.6964286 216.582292,13.75 217.572504,13.75 C217.770546,13.75 217.860566,13.6964286 217.860566,13.6071429 C217.860566,13.5535714 217.824558,13.5 217.716535,13.5 C217.5545,13.5 217.158416,13.4642857 216.906362,13.4285714 C216.366246,13.3571429 216.258223,12.9642857 216.204212,12.4464286 C216.114192,11.6964286 216.114192,10.2857143 216.114192,8.57142857 L216.114192,8.14285714 C216.114192,8.05357143 216.1502,8 216.240219,8 L218.454693,8.03571429 C218.562716,8.03571429 218.616727,8.07142857 218.688743,8.14285714 C219.04882,8.60714286 219.895,9.80357143 220.651162,10.7857143 C221.677381,12.125 222.307516,13 223.081682,13.4107143 C223.549782,13.6607143 223.999878,13.75 225.008093,13.75 L226.286367,13.75 C226.610436,13.75 226.718459,13.7142857 226.718459,13.6071429 C226.718459,13.5535714 226.646444,13.5 226.556424,13.5 C226.448401,13.5 226.196347,13.5 225.854274,13.4464286 C225.404178,13.375 224.630013,13.1785714 223.657805,12.1607143 C222.613582,11.0535714 221.38932,9.46428571 219.913004,7.58928571 C221.533351,6.10714286 222.09147,4.78571429 222.09147,3.46428571 C222.09147,2.23214286 221.299301,1.35714286 220.849204,1.03571429 C219.895,0.357142857 218.688743,0.25 217.5545,0.25 C216.996381,0.25 215.628088,0.303571429 215.430046,0.303571429 C215.340027,0.303571429 214.205784,0.25 213.395611,0.25 C213.197569,0.25 213.10755,0.285714286 213.10755,0.392857143 C213.10755,0.464285714 213.179565,0.5 213.25158,0.5 C213.413615,0.5 213.719681,0.517857143 213.863711,0.553571429 C214.457838,0.678571429 214.601869,0.964285714 214.637877,1.57142857 C214.673884,2.14285714 214.673884,2.64285714 214.673884,5.42857143 L214.673884,8.57142857 Z M216.114192,1.14285714 C216.114192,1.03571429 216.168204,0.964285714 216.258223,0.928571429 C216.438262,0.875 216.924366,0.821428571 217.464481,0.821428571 C219.390893,0.821428571 220.579147,2.16071429 220.579147,4.39285714 C220.579147,5.75 220.111047,6.71428571 219.480912,7.14285714 C219.066823,7.42857143 218.562716,7.48214286 218.130623,7.48214286 C217.338454,7.48214286 216.510277,7.35714286 216.240219,7.19642857 C216.1502,7.14285714 216.114192,7.07142857 216.114192,6.98214286 L216.114192,1.14285714 Z" id="Shape"></path><path d="M228.648872,8.57142857 C228.648872,10.2857143 228.648872,11.6964286 228.558852,12.4464286 C228.486837,12.9642857 228.378814,13.375 228.018737,13.4464286 C227.856702,13.4821429 227.65866,13.5 227.550637,13.5 C227.388602,13.5 227.352594,13.5535714 227.352594,13.6071429 C227.352594,13.7142857 227.442614,13.75 227.640656,13.75 C228.180771,13.75 229.315014,13.6964286 229.405033,13.6964286 C229.495052,13.6964286 230.647299,13.75 231.63751,13.75 C231.835553,13.75 231.907568,13.6964286 231.907568,13.6071429 C231.907568,13.5535714 231.853556,13.5 231.691522,13.5 C231.583499,13.5 231.205418,13.4642857 230.953364,13.4285714 C230.413249,13.3571429 230.305226,12.9642857 230.251214,12.4464286 C230.161195,11.6964286 230.161195,10.2857143 230.161195,8.57142857 L230.161195,5.42857143 C230.161195,2.64285714 230.161195,2.14285714 230.197202,1.57142857 C230.23321,0.946428571 230.377241,0.642857143 230.863345,0.553571429 C231.079391,0.517857143 231.187414,0.5 231.313441,0.5 C231.385456,0.5 231.457472,0.464285714 231.457472,0.392857143 C231.457472,0.285714286 231.367453,0.25 231.16941,0.25 C230.629295,0.25 229.495052,0.303571429 229.405033,0.303571429 C229.315014,0.303571429 228.180771,0.25 227.586644,0.25 C227.388602,0.25 227.298583,0.285714286 227.298583,0.392857143 C227.298583,0.464285714 227.370598,0.5 227.442614,0.5 C227.568641,0.5 227.802691,0.517857143 228.000733,0.571428571 C228.396818,0.660714286 228.576856,0.964285714 228.612864,1.57142857 C228.648872,2.14285714 228.648872,2.64285714 228.648872,5.42857143 L228.648872,8.57142857 Z" id="Path"></path><path d="M242.767889,14 C243.920136,14 245.288428,13.875 246.008582,13.5892857 C246.332651,13.4464286 246.368659,13.4107143 246.476682,13.0714286 C246.656721,12.4642857 246.872767,10.9107143 246.872767,10.7857143 C246.872767,10.6428571 246.836759,10.5178571 246.74674,10.5178571 C246.638717,10.5178571 246.602709,10.5892857 246.566701,10.7857143 C246.51269,11.1071429 246.27864,11.8928571 245.900559,12.2857143 C245.180405,13.0178571 244.118178,13.1785714 242.767889,13.1785714 C238.915066,13.1785714 236.2685,10.0535714 236.2685,6.64285714 C236.2685,4.82142857 236.574566,3.23214286 237.888846,1.98214286 C238.518981,1.375 239.63522,0.678571429 242.029732,0.678571429 C243.61407,0.678571429 245.000366,1.16071429 245.630501,1.69642857 C246.098601,2.08928571 246.386663,2.82142857 246.386663,3.51785714 C246.386663,3.76785714 246.404667,3.89285714 246.530694,3.89285714 C246.638717,3.89285714 246.674724,3.78571429 246.692728,3.51785714 C246.710732,3.25 246.710732,2.26785714 246.74674,1.67857143 C246.782747,1.03571429 246.836759,0.821428571 246.836759,0.678571429 C246.836759,0.571428571 246.800751,0.5 246.674724,0.482142857 C246.008582,0.392857143 245.450463,0.339285714 244.766316,0.214285714 C243.884128,0.0535714286 242.875912,0 242.155758,0 C239.383166,0 237.744816,0.839285714 236.664585,1.91071429 C235.062242,3.5 234.648154,5.58928571 234.648154,6.78571429 C234.648154,8.48214286 235.080246,10.5178571 236.826619,12.0714286 C238.248923,13.3392857 240.067312,14 242.767889,14 Z" id="Path"></path><path d="M256.670861,8.48214286 C256.76088,8.48214286 256.796888,8.51785714 256.832896,8.58928571 L258.507253,12.9821429 C258.615277,13.2678571 258.507253,13.4285714 258.39923,13.4642857 C258.327215,13.4821429 258.273203,13.5178571 258.273203,13.5892857 C258.273203,13.6964286 258.471246,13.6964286 258.813319,13.7142857 C260.055584,13.75 261.369865,13.75 261.639923,13.75 C261.837965,13.75 262,13.7142857 262,13.6071429 C262,13.5178571 261.909981,13.5 261.801958,13.5 C261.657927,13.5 261.369865,13.4821429 261.099808,13.3928571 C260.721727,13.2857143 260.199615,13 259.551477,11.4107143 C258.453242,8.69642857 255.626638,1.32142857 255.35658,0.642857143 C255.140534,0.0892857143 255.068518,0 254.960495,0 C254.852472,0 254.780457,0.107142857 254.564411,0.696428571 L250.477537,11.7857143 C250.153468,12.6785714 249.793391,13.3571429 248.965214,13.4642857 C248.821183,13.4821429 248.659149,13.5 248.533122,13.5 C248.371087,13.5 248.281068,13.5357143 248.281068,13.6071429 C248.281068,13.7142857 248.389091,13.75 248.623141,13.75 C249.469322,13.75 250.459533,13.6964286 250.657576,13.6964286 C250.855618,13.6964286 251.575772,13.75 252.007864,13.75 C252.169899,13.75 252.331934,13.7142857 252.331934,13.6071429 C252.331934,13.5357143 252.277922,13.5 252.097884,13.5 C252.043872,13.5 251.98986,13.5 251.935849,13.5 C251.629783,13.5 251.28771,13.3392857 251.28771,12.9821429 C251.28771,12.6607143 251.37773,12.2321429 251.539764,11.7857143 L252.619995,8.625 C252.656003,8.53571429 252.710014,8.48214286 252.800034,8.48214286 L256.670861,8.48214286 Z M252.998076,7.83928571 C252.944064,7.83928571 252.908057,7.80357143 252.944064,7.71428571 L254.528403,2.89285714 C254.618422,2.625 254.708441,2.625 254.798461,2.89285714 L256.508826,7.71428571 C256.52683,7.78571429 256.52683,7.83928571 256.436811,7.83928571 L252.998076,7.83928571 Z" id="Shape"></path></g></g><rect id="Rectangle" fill="#FFFFFF" mask="url(#mask-2)" x="64" y="0" width="1" height="48"></rect><g id="Group-Copy-8" mask="url(#mask-2)"><rect id="Rectangle" x="0" y="0" width="48" height="48"></rect><g id="Group-13-Copy" transform="translate(4.000000, 1.000000)"><path d="M32.2946767,39.8194119 L32.4822756,39.8194119 C32.6960631,39.8194119 32.8779575,39.7385785 32.8779575,39.530184 C32.8779575,39.382616 32.7742401,39.2351823 32.4822756,39.2351823 C32.3982645,39.2351823 32.340442,39.2421646 32.2946767,39.248207 L32.2946767,39.8194119 Z M32.2946767,40.752756 L32.0349942,40.752756 L32.0349942,39.0673388 C32.1715123,39.0473319 32.3012887,39.027325 32.4957588,39.027325 C32.741958,39.027325 32.9042758,39.0804978 33.0012516,39.1546175 C33.0984866,39.2280658 33.1508639,39.3420651 33.1508639,39.5034634 C33.1508639,39.7255539 33.0077339,39.859023 32.8324515,39.9131357 L32.8324515,39.9261604 C32.9753222,39.953821 33.0725573,40.0875587 33.1052283,40.3363699 C33.1436037,40.5980714 33.1830163,40.698509 33.2079085,40.752756 L32.9360392,40.752756 C32.8970156,40.698509 32.8587698,40.5443615 32.8262284,40.3234795 C32.787853,40.1081027 32.6834873,40.0276721 32.4759229,40.0276721 L32.2946767,40.0276721 L32.2946767,40.752756 Z M32.5671942,38.5963029 C31.9246648,38.5963029 31.4002437,39.1677764 31.4002437,39.8728533 C31.4002437,40.591492 31.9246648,41.1554461 32.5732876,41.1554461 C33.22204,41.1622941 33.7408864,40.591492 33.7408864,39.8797013 C33.7408864,39.1677764 33.22204,38.5963029 32.5732876,38.5963029 L32.5671942,38.5963029 Z M32.5732876,38.3618591 C33.3704856,38.3618591 34.0069215,39.0335016 34.0069215,39.8728533 C34.0069215,40.7260353 33.3704856,41.3904269 32.5671942,41.3904269 C31.769348,41.3904269 31.1207252,40.7260353 31.1207252,39.8728533 C31.1207252,39.0335016 31.769348,38.3618591 32.5671942,38.3618591 L32.5732876,38.3618591 Z" id="Fill-1" fill="#FFFFFF"></path><polygon id="Fill-3" fill="#FFFFFF" points="4.39250377 21.7047361 4.92486213 23.3911499 6.65080015 23.3911499 5.25500685 24.4337524 5.78803082 26.1213975 4.39250377 25.0792055 2.99617797 26.1213975 3.52933507 24.4337524 2.13327552 23.3911499 3.85854793 23.3911499"></polygon><polygon id="Fill-5" fill="#FFFFFF" points="35.7647346 21.7047361 36.2963099 23.3911499 38.022499 23.3911499 36.626299 24.4337524 37.1594709 26.1213975 35.7647346 25.0792055 34.3676032 26.1213975 34.9015735 24.4337524 33.5049743 23.3911499 35.2308974 23.3911499"></polygon><g id="Group-9" transform="translate(0.000000, 17.962553)"><mask id="mask-4" fill="white"><use xlink:href="#path-3"></use></mask><g id="Clip-8"></g><path d="M7.93630187,6.66014744 C6.56371923,7.53374288 5.81173938,8.66587985 5.42389539,9.62142908 C5.27981285,9.97367023 5.18262263,10.3040214 5.11660663,10.5917941 L5.10010263,10.6646715 L5.03840911,10.6223599 C4.58585896,10.3098944 3.99957402,9.84833698 3.42664947,9.23114748 C2.29533959,8.00864777 1.22179371,6.22168128 1.219436,3.72756298 C1.2227106,2.7307699 1.41879383,1.86224652 1.75607795,1.107711 L0.943321463,0 C0.358346366,1.04070643 -2.61968248e-05,2.28082487 -2.61968248e-05,3.70834255 L-2.61968248e-05,3.73103334 L-2.61968248e-05,3.73570497 C-2.61968248e-05,6.70085739 1.34596666,8.85141043 2.66615564,10.2164617 C3.98857136,11.5912566 5.30378295,12.2703787 5.3437331,12.2908004 L6.40326368,12.8104195 C6.34157016,12.6119418 6.23115054,12.1892257 6.23115054,11.6441128 C6.23115054,11.1897631 6.3073833,10.6546609 6.54944196,10.0995374 C6.86838831,9.365824 7.40830486,8.4974341 8.48564928,7.77933731 C8.75390477,7.61049114 8.99530851,7.51038471 9.12694755,7.4635349 C8.82764883,7.2646568 8.11941767,6.78014168 7.93630187,6.66014744" id="Fill-7" fill="#FFFFFF" mask="url(#mask-4)"></path></g><g id="Group-12" transform="translate(30.873838, 17.962486)"><mask id="mask-6" fill="white"><use xlink:href="#path-5"></use></mask><g id="Clip-11"></g><path d="M6.46223273,10.2164617 C7.77849219,8.85141043 9.12618784,6.70085739 9.12618784,3.73477064 L9.12618784,3.72676213 L9.12618784,3.70834255 C9.12618784,2.28082487 8.76650544,1.03910473 8.1827092,0 L7.37204846,1.10784448 C7.70684388,1.86144567 7.90462991,2.7307699 7.90620172,3.72769646 C7.90462991,6.22181476 6.83082206,8.00864777 5.69872628,9.23114748 C5.12671861,9.84847046 4.54095761,10.3100278 4.08814549,10.6224934 L4.02658295,10.664805 L4.00903108,10.5917941 C3.94353902,10.3041549 3.84687273,9.97367023 3.70344512,9.62142908 C3.31520817,8.665079 2.56191848,7.53374288 1.18985978,6.66014744 C1.00687496,6.78014168 0.299560691,7.26479027 0,7.4635349 C0.131639044,7.51131904 0.371732943,7.61142546 0.643001064,7.78013817 C1.71916663,8.49756757 2.25030725,9.37022868 2.57671968,10.0979357 C2.81222914,10.6250294 2.88492533,11.1545257 2.88492533,11.611011 C2.88492533,12.1645328 2.77778031,12.6104736 2.71923041,12.8112203 L3.78124969,12.2909338 C3.82185477,12.2703787 5.13890013,11.5912566 6.46223273,10.2164617" id="Fill-10" fill="#FFFFFF" mask="url(#mask-6)"></path></g><path d="M27.3339977,16.3812334 C27.5682438,16.2537046 27.9167851,16.0773604 28.3643648,15.9019421 C29.255973,15.5526931 30.5350539,15.2001368 32.0603497,15.2001368 L32.0610073,15.2001368 L32.0773164,15.2001368 C33.3540299,15.2001368 34.9499546,15.6585261 36.260207,16.5784798 L38.1479858,16.5784798 C37.8940109,16.313368 37.6235955,16.069026 37.3405536,15.847835 C35.7233218,14.5777063 33.7417657,13.9719445 32.0627171,13.9677112 C29.8766396,13.9711507 28.1631315,14.6021802 27.1923452,15.0711528 L27.1315807,15.1007861 L27.1202695,15.0334498 C26.676241,12.5738901 25.6069425,10.3592017 24.3686343,8.09940188 C22.995776,5.60121318 21.4099787,3.03595279 20.1398415,0 C18.8694412,3.03595279 17.2846961,5.60121318 15.9124955,8.09940188 C14.6739242,10.3592017 13.6037051,12.5738901 13.1603342,15.0334498 L13.1479708,15.1007861 L13.0887846,15.0711528 C12.1178668,14.6021802 10.4048848,13.9711507 8.21920178,13.9677112 C6.53818035,13.9719445 4.55715033,14.5777063 2.94018159,15.847835 C2.6575343,16.069026 2.38632968,16.313368 2.13327552,16.5784798 L4.01921295,16.5784798 C5.33038599,15.6585261 6.92591615,15.2001368 8.20170895,15.2001368 L8.21131028,15.2001368 L8.21920178,15.2001368 C9.74554977,15.2001368 11.0230524,15.5526931 11.9163704,15.9019421 C12.3621088,16.0773604 12.7119653,16.2537046 12.9452907,16.3812334 C13.062348,16.4460562 13.1503383,16.4985758 13.2076832,16.5331038 C13.2367502,16.5512278 13.2572681,16.5643246 13.2691054,16.5725266 C13.2760762,16.5775537 13.2793643,16.5792735 13.2793643,16.5792735 L13.2854145,16.5821839 L13.2871243,16.5837714 L14.1279638,17.1618843 L14.2376557,16.1386112 C14.515042,13.552978 15.6035432,11.2119513 16.9850821,8.69471268 C17.9517911,6.92981459 19.0591003,5.08593861 20.0947284,3.02272366 L20.1398415,2.93183955 L20.1848231,3.02272366 C21.2203196,5.08593861 22.328418,6.92981459 23.2959162,8.69471268 C24.6766659,11.2119513 25.7647725,13.552978 26.0428164,16.1386112 L26.1526398,17.1618843 L26.9892706,16.5880047 L26.9940055,16.5829777 L27.0004502,16.5792735 C27.0004502,16.5792735 27.0042644,16.5775537 27.010183,16.5733204 C27.0230725,16.5643246 27.0433274,16.5512278 27.0718683,16.5331038 C27.1290817,16.4985758 27.217335,16.4460562 27.3339977,16.3812334" id="Fill-13" fill="#FFFFFF"></path><g id="Group-17" transform="translate(7.561039, 30.605338)"><mask id="mask-8" fill="white"><use xlink:href="#path-7"></use></mask><g id="Clip-16"></g><path d="M0.00277135324,3.68311366 C0.00277135324,5.53669645 0.727942119,7.21398667 1.84558929,8.43191188 C2.96204874,9.64996924 4.48695287,10.4290132 6.10845846,10.4298061 C6.85118113,10.4298061 7.60103013,10.2638215 8.32171395,9.91335085 L8.38849036,9.9370063 C8.94817175,11.1248005 10.2715589,13.5755843 12.4196216,15.394675 C14.5695319,13.5725448 15.8912034,11.1248005 16.450225,9.9370063 L16.4712081,9.89088478 C17.2372893,10.2638215 17.9880621,10.4298061 18.7245822,10.4298061 C20.3532141,10.4290132 21.8766666,9.64996924 22.9940498,8.43191188 C24.1113011,7.21398667 24.8355481,5.53669645 24.8372637,3.68311366 C24.8372637,3.59324939 24.840035,3.47523645 24.840035,3.33515391 C24.840035,2.666458 24.7712791,1.45884075 23.9811795,0 C23.9778802,1.79041349 22.63351,2.97530036 22.226121,3.21661236 C21.8048754,3.46109605 21.3988061,3.55056386 21.0017108,3.55135678 C20.4119404,3.55056386 19.8434171,3.34414034 19.4150451,3.11974396 C19.1104602,2.96089564 18.8789862,2.79451459 18.7656246,2.70927568 L17.7217482,3.45052378 C17.8871057,3.58492373 18.3464904,3.94292713 18.7930742,4.18212468 C19.3412743,4.47431572 20.1065637,4.78011856 21.0017108,4.78249732 C21.5930648,4.78249732 22.2315318,4.63977171 22.8458484,4.27965385 C23.0765306,4.14340375 23.3015381,3.98059084 23.5207389,3.78540035 L23.6087624,3.70690126 L23.6053312,3.82504635 C23.5698315,5.29564875 22.9783455,6.62867952 22.0875534,7.6005352 C21.1708953,8.60225754 19.9529515,9.19840127 18.7373832,9.19840127 C17.9975639,9.19760835 17.255765,8.98973114 16.5283507,8.49944224 L15.8823615,7.99540939 L15.6040385,8.82176424 C15.5912374,8.84647692 15.5763249,8.88480138 15.5550779,8.93316951 C15.5123199,9.03162375 15.4489746,9.17659597 15.3638545,9.36081773 C15.1917667,9.72529664 14.9335029,10.2397696 14.5893273,10.8262661 C14.072008,11.7045573 13.3591104,12.738525 12.4669986,13.6663736 C12.4640952,13.6691048 12.4483029,13.6854918 12.4196216,13.7155347 C12.3802948,13.6743028 12.3777874,13.6704704 12.3727725,13.6663736 C11.4800009,12.738525 10.7671033,11.7045573 10.2503119,10.8262661 C9.90600422,10.2397696 9.64694867,9.72529664 9.47578462,9.36081773 C9.38987267,9.17659597 9.32599957,9.03162375 9.28416534,8.93316951 C9.26397405,8.88480138 9.24800578,8.84647692 9.23758021,8.82242501 L8.95635384,7.99540939 L8.30878096,8.501821 C7.58387414,8.98973114 6.84247116,9.19760835 6.10845846,9.19919419 C4.88642365,9.19840127 3.66847988,8.60225754 2.75076605,7.6005352 C1.8618215,6.62867952 1.26967569,5.29564875 1.23391204,3.82504635 L1.23127266,3.70690126 L1.31916414,3.78540035 C1.53902483,3.98059084 1.76390036,4.14340375 1.99379071,4.27965385 C2.60823931,4.63977171 3.24697025,4.78249732 3.83119791,4.78249732 C4.73254756,4.78011856 5.49876074,4.47431572 6.0465649,4.18212468 C6.49301671,3.94292713 6.9520056,3.58492373 7.11775892,3.45052378 L6.07427843,2.70927568 C5.96104886,2.79451459 5.73063063,2.96089564 5.42459405,3.11881889 C4.99622202,3.34414034 4.42717082,3.55056386 3.84637436,3.55135678 C3.44030513,3.55056386 3.03476377,3.46109605 2.61391399,3.21661236 C2.20639309,2.97530036 0.86175889,1.79041349 0.859383444,0.0294701954 C0.0686239851,1.45884075 0.000791815213,2.666458 0,3.33515391 C0,3.47523645 0.00277135324,3.59324939 0.00277135324,3.68311366 Z" id="Fill-15" fill="#FFFFFF" mask="url(#mask-8)"></path></g><polygon id="Fill-18" fill="#FFFFFF" points="19.1994797 15.8999811 20.9562948 15.8999811 20.0655229 3.65951946"></polygon><path d="M16.1877966,26.6261588 C16.2697239,27.4674145 16.4231949,28.3866153 16.6897438,29.2761556 L16.6897438,26.6261588 L16.1877966,26.6261588 Z" id="Fill-20" fill="#FFFFFF"></path><path d="M17.3171778,26.8785394 L17.3171778,30.7977516 C17.4645305,31.1027188 17.6306255,31.3969738 17.8191249,31.6737718 L17.8191249,26.8785394 L17.3171778,26.8785394 Z" id="Fill-22" fill="#FFFFFF"></path><path d="M18.6975325,27.0047298 L18.6975325,32.3407152 C18.8532051,32.5074405 19.0196584,32.6627923 19.1994797,32.8094848 L19.1994797,27.0047298 L18.6975325,27.0047298 Z" id="Fill-24" fill="#FFFFFF"></path><path d="M19.8269137,26.7523491 L19.8269137,33.1695487 C19.9050902,33.2193934 19.9867173,33.2682976 20.0695304,33.3142461 C20.1584899,33.2652075 20.2446459,33.2132132 20.3288608,33.1592036 L20.3288608,26.7523491 L19.8269137,26.7523491 Z" id="Fill-26" fill="#FFFFFF"></path><path d="M21.2072684,27.0047298 L21.2072684,32.8094848 C21.3867512,32.6617778 21.553923,32.5044828 21.7092156,32.3377294 L21.7092156,27.0047298 L21.2072684,27.0047298 Z" id="Fill-28" fill="#FFFFFF"></path><path d="M22.3366496,26.8785394 L22.3366496,31.6737718 C22.5249606,31.3932549 22.6908383,31.0950644 22.8385967,30.7861104 L22.8385967,26.8785394 L22.3366496,26.8785394 Z" id="Fill-30" fill="#FFFFFF"></path><path d="M24.2189515,26.8785394 L23.7170043,26.8785394 L23.7170043,29.2761556 C23.9815488,28.4689883 24.1358955,27.6388243 24.2189515,26.8785394" id="Fill-32" fill="#FFFFFF"></path><path d="M16.7975351,35.2511009 C16.9661131,35.303464 17.3504556,35.35529 17.3504556,35.35529 L18.3210721,32.9512885 C17.5956952,32.3330016 17.0469116,31.5859553 16.6338696,30.7904396 C16.424052,31.286546 15.1910018,34.1987377 15.1758763,34.2784906 C15.1591995,34.3650911 15.2094885,34.5041889 15.3263555,34.5730664 C15.4436103,34.6431524 15.6940211,34.7986304 15.6940211,34.7986304 C15.6940211,34.7986304 15.3759981,35.4255102 15.0760739,35.5635338 C14.7745985,35.7030344 14.2224537,35.9287326 13.7211149,35.8930183 C13.2192591,35.8587809 12.8978749,35.8488454 12.8172056,36.27594 C12.6839204,36.9882118 13.3534493,37.3523365 13.3534493,37.3523365 C13.3534493,37.3523365 13.085586,36.5710528 13.5702479,36.5710528 L16.6306376,36.5710528 C16.8152461,36.5710528 17.0152386,36.8140711 16.8311473,37.2486845 C17.2337178,37.0734696 17.3839385,36.728679 17.3001666,36.2923202 C17.2163946,35.8587809 16.7475046,35.9287326 16.530706,35.9112783 C16.3126146,35.8930183 15.9293064,35.7720462 15.9293064,35.7720462 L16.3466146,35.077363 C16.3466146,35.077363 16.6306376,35.1995434 16.7975351,35.2511009" id="Fill-34" fill="#FFFFFF"></path><path d="M22.4507139,20.4523464 C22.4507139,20.4523464 22.6038417,21.2607873 22.9261191,21.2607873 C23.2493158,21.2607873 24.7526203,19.8766726 25.3047207,19.3178719 C25.8569523,18.7588054 27.5984848,17.1521536 29.6709622,17.1521536 C31.743177,17.1521536 39.1518801,17.1696909 39.1518801,17.1696909 C39.1518801,17.1696909 38.896711,17.960196 38.2672589,18.0801668 C37.6389887,18.2004032 33.8332524,18.5967187 33.8332524,18.5967187 L38.2000193,18.5967187 C38.2000193,18.5967187 37.7579713,19.4034324 37.1119719,19.5243332 C36.4672857,19.644304 33.6294323,19.9369902 33.6294323,19.9369902 L36.9928579,19.9369902 C36.9928579,19.9369902 36.6713685,20.7793099 35.8555628,20.932628 C35.0394944,21.0882047 32.3731545,21.3122033 32.3731545,21.3122033 L35.5833211,21.3122033 C35.5833211,21.3122033 35.1248572,22.1033727 34.4109615,22.2572223 C33.6982478,22.4120019 30.8782549,22.7036252 30.8782549,22.7036252 L33.8835508,22.7036252 C33.8835508,22.7036252 33.4605453,23.4436442 32.6783593,23.579558 C31.8963048,23.717996 29.5178345,24.0440295 29.5178345,24.0440295 L32.0834463,24.0440295 C32.0834463,24.0440295 31.4560954,24.8872793 30.5717368,25.0421917 C29.6879035,25.1951113 27.9553013,25.4537858 27.9553013,25.4537858 L29.7908641,25.4537858 C29.7908641,25.4537858 28.991343,26.1411931 28.3637294,26.3313129 C27.7345399,26.520237 26.0865126,26.8115945 26.0865126,26.8115945 L27.4284158,26.8115945 L24.981524,28.2887098 L24.981524,28.5309099 L27.7857576,31.2980764 C27.7857576,31.2980764 27.3611762,32.0541712 26.6123474,32.6890996 C25.8653573,33.3254895 25.3898208,33.5666267 25.3898208,33.5666267 L23.9475835,30.2399953 C24.0179749,30.0796356 24.0867905,29.9182132 24.148777,29.7543993 C24.7899173,28.0597955 24.9241339,26.2945112 24.9249219,25.0767348 C24.9249219,24.1447359 24.8446808,23.5326591 24.8437615,23.5222962 L24.8159201,23.3094577 L20.2599105,22.2476565 L20.1939841,22.2302521 L20.1235927,22.2476565 L15.5685023,23.3094577 L15.5405296,23.5222962 C15.5380344,23.5326591 15.4559547,24.1535045 15.4559547,25.0997192 C15.4567427,26.3189571 15.5909593,28.0802556 16.2320996,29.7700765 C16.2959247,29.9394705 16.3676294,30.1084658 16.4419607,30.2756012 L15.0166646,33.5666267 C15.0166646,33.5666267 14.5411282,33.3254895 13.7922994,32.6890996 C13.0453093,32.0541712 12.6202025,31.2980764 12.6202025,31.2980764 L15.4231229,28.5309099 L15.4231229,28.2887098 L12.9772817,26.8115945 L14.3199729,26.8115945 C14.3199729,26.8115945 12.6716828,26.520237 12.0434126,26.3313129 C11.4138292,26.1411931 10.6162779,25.4537858 10.6162779,25.4537858 L12.4501335,25.4537858 C12.4501335,25.4537858 10.7171374,25.1951113 9.83435469,25.0421917 C8.95117803,24.8872793 8.3218572,24.0440295 8.3218572,24.0440295 L10.888257,24.0440295 C10.888257,24.0440295 8.50939271,23.717996 7.72668149,23.579558 C6.9455462,23.4436442 6.52043946,22.7036252 6.52043946,22.7036252 L9.52823056,22.7036252 C9.52823056,22.7036252 6.70784364,22.4120019 5.99539257,22.2572223 C5.28031496,22.1033727 4.82237637,21.3122033 4.82237637,21.3122033 L8.03319961,21.3122033 C8.03319961,21.3122033 5.36607174,21.0882047 4.55105399,20.932628 C3.73524828,20.7793099 3.41152627,19.9369902 3.41152627,19.9369902 L6.77534591,19.9369902 C6.77534591,19.9369902 3.93906838,19.644304 3.29267499,19.5243332 C2.64812018,19.4034324 2.20554689,18.5967187 2.20554689,18.5967187 L6.57205112,18.5967187 C6.57205112,18.5967187 2.76684014,18.2004032 2.13751931,18.0801668 C1.50964308,17.960196 1.25486795,17.1696909 1.25486795,17.1696909 C1.25486795,17.1696909 8.66265176,17.1521536 10.7342099,17.1521536 C12.8074754,17.1521536 14.5494018,18.7588054 15.1008455,19.3178719 C15.6528145,19.8766726 17.156907,21.2607873 17.4794471,21.2607873 C17.8017245,21.2607873 18.247581,20.6673106 18.247581,20.6673106 C18.5034067,20.1625831 18.7848413,19.3227876 18.7848413,19.3227876 C18.7848413,19.3227876 18.400446,19.1795667 18.1580157,19.0245214 C17.9157167,18.8692104 17.7871472,18.6114659 17.7871472,18.6114659 L18.7340176,18.6114659 C18.9759226,18.6114659 19.7064969,18.7924185 19.6409645,19.1673438 C19.5776647,19.5426676 19.0276656,21.3021061 19.0276656,21.3021061 C19.0276656,21.3021061 19.6040615,21.419154 20.1790128,21.419154 C20.7546207,21.419154 21.7772671,21.3021061 21.7772671,21.3021061 C21.7772671,21.3021061 21.3050138,18.2348135 21.2528768,17.8865926 C21.2021845,17.5358475 20.6774002,17.4195968 20.2303618,17.4195968 C19.7826668,17.4195968 19.424537,17.5228274 19.3344464,17.5483362 C19.2455378,17.5755721 19.2192723,17.6667127 19.3987968,17.7699433 C19.5776647,17.8735726 19.7826668,17.8084721 19.7826668,17.8084721 C19.7826668,17.8084721 19.7697967,18.0286178 19.6040615,18.1574901 C19.4378011,18.2870267 19.040667,18.3134654 18.7718399,18.3134654 C18.5034067,18.3134654 18.0182833,18.2870267 17.8503156,18.3266183 C17.6845805,18.36528 17.5946212,18.4554906 17.5571929,18.5320168 C17.5184513,18.6114659 17.6722357,18.933248 17.6722357,18.933248 C17.6722357,18.933248 17.4027519,19.0508273 17.2244093,18.598313 C17.0447534,18.1443372 17.1700398,17.7360645 17.3657176,17.6018779 C17.8122307,17.2905917 18.7718399,17.4849629 18.7718399,17.4849629 C18.7718399,17.4849629 18.989712,16.9168621 19.5907975,16.6697462 C20.1916202,16.4243575 20.792837,16.5657184 21.3420481,16.6312174 C21.8925725,16.695255 22.4163061,16.6697462 22.4163061,16.6697462 L21.9566603,17.4594542 C21.9566603,17.4594542 22.3310747,19.8356195 22.4507139,20.4523464" id="Fill-36" fill="#FFFFFF"></path><path d="M21.4288157,33.0618654 C21.0545263,33.3343969 20.6397767,33.5770803 20.1785824,33.7760672 L20.0616251,33.8267551 L19.943627,33.7760672 C19.4932308,33.581786 19.0873278,33.3456907 18.7199336,33.0814952 L18.0700985,34.8200764 C18.0700985,34.8200764 18.7096559,35.0728436 20.0484853,35.0792972 C20.0484853,35.0809106 20.0484853,35.0809106 20.0492659,35.0809106 L20.0777572,35.0809106 L20.1066387,35.0809106 L20.1066387,35.0792972 C21.4471594,35.0728436 22.085676,34.8200764 22.085676,34.8200764 L21.4288157,33.0628066 L21.4288157,33.0618654 Z" id="Fill-38" fill="#FFFFFF"></path><path d="M26.5624006,35.9004156 C26.061599,35.9359489 25.5107173,35.7113947 25.2090747,35.5726013 C24.9084647,35.4352773 24.5917206,34.8115751 24.5917206,34.8115751 C24.5917206,34.8115751 24.8417342,34.6567517 24.9591902,34.5871546 C25.0763881,34.5184926 25.1258229,34.3802335 25.1095598,34.294072 C25.0935548,34.2129867 23.8015384,31.1720881 23.6401977,30.7904396 C23.229876,31.5861975 22.6818339,32.3334645 21.9601892,32.9530256 L22.9395918,35.365413 C22.9395918,35.365413 23.3233245,35.3137161 23.4887956,35.2617521 C23.6565899,35.210456 23.9409368,35.0888948 23.9409368,35.0888948 L24.3584865,35.7800567 C24.3584865,35.7800567 23.9744956,35.9004156 23.7568793,35.918583 C23.5399083,35.9359489 23.0721493,35.8663518 22.9890266,36.2976934 C22.9051294,36.7318404 23.0553699,37.0748832 23.4563984,37.2492099 C23.27247,36.816666 23.4727906,36.5750131 23.6565899,36.5750131 L26.7121248,36.5750131 C27.1976957,36.5750131 26.929612,37.3523365 26.929612,37.3523365 C26.929612,37.3523365 27.5974335,36.989924 27.4639725,36.2813962 C27.3842056,35.8564666 27.062944,35.8663518 26.5624006,35.9004156" id="Fill-40" fill="#FFFFFF"></path><path d="M23.5277244,24.4257698 L23.6493255,24.7978441 L23.3287048,24.567593 L23.0100625,24.7978441 L23.1328506,24.4257698 L22.813285,24.1964303 L23.2078951,24.1964303 L23.3287048,23.8260489 L23.4514929,24.1964303 L23.8471581,24.1964303 L23.5277244,24.4257698 Z M23.6493255,25.8833324 L23.3287048,25.6538627 L23.0100625,25.8833324 L23.1328506,25.5128208 L22.813285,25.2826999 L23.2078951,25.2826999 L23.3287048,24.9121883 L23.4514929,25.2826999 L23.8471581,25.2826999 L23.5277244,25.5128208 L23.6493255,25.8833324 Z M22.5620376,24.5323 L22.2418126,24.3020489 L21.9231702,24.5323 L22.04398,24.1611372 L21.7253376,23.9301047 L22.1210028,23.9301047 L22.2418126,23.5597234 L22.3644688,23.9301047 L22.7594745,23.9301047 L22.4395133,24.1611372 L22.5620376,24.5323 Z M22.3569512,25.8833324 L22.0371218,25.6538627 L21.7176881,25.8833324 L21.8392892,25.5128208 L21.5211744,25.2826999 L21.9147294,25.2826999 L22.0371218,24.9121883 L22.159778,25.2826999 L22.5541243,25.2826999 L22.2354819,25.5128208 L22.3569512,25.8833324 Z M21.1550522,24.0375466 L20.8353548,24.2667558 L20.9570878,23.8946815 L20.6379178,23.6654722 L21.0320004,23.6654722 L21.1550522,23.294049 L21.2765214,23.6654722 L21.6712634,23.6654722 L21.3522254,23.8946815 L21.4744859,24.2667558 L21.1550522,24.0375466 Z M21.0647087,25.8833324 L20.7442199,25.6538627 L20.4255775,25.8833324 L20.5470467,25.5128208 L20.2277449,25.2826999 L20.6234101,25.2826999 L20.7442199,24.9121883 L20.8667442,25.2826999 L21.262805,25.2826999 L20.9423163,25.5128208 L21.0647087,25.8833324 Z M19.7603325,24.0004303 L19.8811422,23.6300489 L19.5624999,23.4014908 L19.9579013,23.4014908 L20.0793705,23.0294164 L20.2017629,23.4014908 L20.5969006,23.4014908 L20.2765436,23.6300489 L20.3994636,24.0004303 L20.0793705,23.7710908 L19.7603325,24.0004303 Z M19.720766,25.8833324 L19.4013323,25.6538627 L19.0818986,25.8833324 L19.2034997,25.5128208 L18.884066,25.2826999 L19.2797312,25.2826999 L19.4013323,24.9121883 L19.5230653,25.2826999 L19.9191261,25.2826999 L19.599033,25.5128208 L19.720766,25.8833324 Z M18.4745525,23.6654722 L18.8702177,23.6654722 L18.9919507,23.294049 L19.114475,23.6654722 L19.5082938,23.6654722 L19.1896514,23.8946815 L19.3113844,24.2667558 L18.9919507,24.0375466 L18.6721213,24.2667558 L18.7941181,23.8946815 L18.4745525,23.6654722 Z M18.4277321,25.8833324 L18.1090898,25.6538627 L17.7896561,25.8833324 L17.9112572,25.5128208 L17.5918235,25.2826999 L17.9874887,25.2826999 L18.1090898,24.9121883 L18.231746,25.2826999 L18.6259604,25.2826999 L18.3059992,25.5128208 L18.4277321,25.8833324 Z M17.3864733,23.9301047 L17.7820066,23.9301047 L17.9046628,23.5597234 L18.0254725,23.9301047 L18.4215334,23.9301047 L18.1027591,24.1611372 L18.2244921,24.5323 L17.9046628,24.3020489 L17.5843059,24.5323 L17.705907,24.1611372 L17.3864733,23.9301047 Z M17.013361,24.4257698 L17.136281,24.7978441 L16.816056,24.567593 L16.4974136,24.7978441 L16.6180915,24.4257698 L16.2994491,24.1964303 L16.6939273,24.1964303 L16.816056,23.8260489 L16.9387122,24.1964303 L17.3341136,24.1964303 L17.013361,24.4257698 Z M17.136281,25.8833324 L16.816056,25.6538627 L16.4974136,25.8833324 L16.6180915,25.5128208 L16.2994491,25.2826999 L16.6939273,25.2826999 L16.816056,24.9121883 L16.9387122,25.2826999 L17.3341136,25.2826999 L17.013361,25.5128208 L17.136281,25.8833324 Z M24.1643497,23.7693977 L20.0793705,22.840449 L15.9934681,23.7693977 C15.988852,23.8234443 15.9838402,23.8854349 15.9771139,23.9583652 C15.9578582,24.2144024 15.9368541,24.5823093 15.9368541,25.0293976 C15.9360966,25.3564115 15.9491536,25.7267929 15.9786966,26.1213975 L24.1759559,26.1213975 C24.2068178,25.7172859 24.2189515,25.3392208 24.2189515,25.0067371 C24.2189515,24.446607 24.1871664,24.0108489 24.1643497,23.7693977 L24.1643497,23.7693977 Z" id="Fill-42" fill="#FFFFFF"></path></g></g></g></g></svg>