<svg id="Layer_1" data-name="Layer 1" xmlns="http://www.w3.org/2000/svg" viewBox="0 0 186 73.54"><defs><style>.cls-1{fill:#003c5a;}.cls-2{fill:#fdb913;}</style></defs><path class="cls-1" d="M183.1,41.1c-.2-.6-.5-.7-1.5-1.9s-2.1-2.5-2.8-9.6a.9.9,0,0,0-.1-.5c1.2-1.5,2.1-2.9,2.1-4,0-1.4-2.5-6.5-2.7-7.3-.1-.5.3-1.1.4-2.2a1.77,1.77,0,0,0-.7-1.7c-1.1-.9-2.4-1-3.3-1.7s.3-1.3,1-2.1c.4-.4.5-1.2.8-1,.1.1.5.5.9-.3l.5-.7c.1.1.1.1.2.1v.2a1.27,1.27,0,0,0,.1.6,4.08,4.08,0,0,1,.2.7,1.34,1.34,0,0,0-.1.9c.1.4.2.7.4.8a1.24,1.24,0,0,0,.2.3c.1.2.2.4.5.4h.1a.37.37,0,0,0,.1.3c.1.1.2.2.3.2a.6.6,0,0,0,.4-.1c.1-.1.2-.2.2-.3v-.1h.1a1.77,1.77,0,0,0,1.3-.9l.2-.3-.4.1-.9.3a.43.43,0,0,0-.4-.4.55.55,0,0,0-.6.4v.2a.37.37,0,0,0-.3-.1,1.5,1.5,0,0,0,.2-1,6.89,6.89,0,0,0-.3-.8.1.1,0,0,0-.1-.1,1.6,1.6,0,0,0,.5-1,1.5,1.5,0,0,0-.5-1.2V7.2a1.4,1.4,0,0,0,.3-.9,1.23,1.23,0,0,0-.4-.8V5.3c-.1-.1-.2-.2-.3-.2s-.2-.1-.5-.8c-.1-.2-1-1.5-1.6-1.7a1,1,0,0,0-1,0,1,1,0,0,0-.8-.7,4.72,4.72,0,0,0-2,.1c-.8.2-.8,0-1.3-.1a1.86,1.86,0,0,0-1.5.4c-.8-1.9-3.1-2.4-4.6-2.2a3.65,3.65,0,0,0-3.4,3,6.53,6.53,0,0,0,.1,2.8c-.3,0-.5,0-.4.5a3.8,3.8,0,0,0,.9,1.8A.31.31,0,0,0,163,8l1.1,2.2a.9.9,0,0,1-.1,1c-.1.2-.4.4-.3.8l-.9.2v1.4a5.38,5.38,0,0,1,.1.8c.2.1.5.1.8.2a7.46,7.46,0,0,1,1.2.7c.2.1.4.4.5.4s1,.2,1.1.2a50,50,0,0,1,5.3.4c.6,0,2.1-1.2,3.2-1.3s1.6,1.6,1,2.9a.45.45,0,0,1-.4.3c-.8.3-3.2,1.1-4.2.8a7.38,7.38,0,0,1-1.2-.2c-.8-.2-4-1.2-4.1-1.2s-.2-.1-.4-.1-.3-.1-.4-.1a7.47,7.47,0,0,0-1.1.1,2.85,2.85,0,0,1,.4.8c.1.1.1.5.1.7s.1.5.1.7a4.33,4.33,0,0,1-.1.5v.5c0,.1-.2.1-.3,0a.76.76,0,0,1-.2-.5v-.6a2.57,2.57,0,0,0-.2-.5l-.1.3s-.1.5-.1.6.1.9.1,1,.2.3.3.4.2.3,0,.4-.4-.1-.4-.1a.31.31,0,0,1-.1.2.76.76,0,0,1-.4-.2c-.1-.1-.3-.2-.4-.3a1.42,1.42,0,0,0-.4-.2c-.1,0-.1,0-.2-.1s-.5-.5-.5-.6-.2-1-.2-1v-.3c0-.1.1-1.3.2-1.9a.45.45,0,0,1-.3-.3.35.35,0,0,1,.1-.2,1,1,0,0,0-.3-.1c-.2-.1-.2-.2-.2-.3a.35.35,0,0,1,.1-.2.1.1,0,0,1-.1-.1.37.37,0,0,1-.1-.3c0-.1,0-.1.1-.2l-.2-.1c0-.1-.2-.8-.1-.9s.1-.1.2-.1c-.2-.5-.3-1-.5-1.5-1.3.2-2.5.3-3.2,2.2-.9,2.4-2.5,5.4-3.3,7.4-.4,1.2,2.1,3.9,3.7,7.1,0,.1.1.2.1.3v.3c-.7,7.1-1.1,8.1-2.1,9.3s-1.7,1.7-1.9,2.3c-.1.3.2,1,1.7.8a3.65,3.65,0,0,0,2.9-2.3c.2-.4.6-.8.8-.6s.1.7.1.7v1c0,.4,1.6,22.3,1.9,26.4,0,.4.1.7.1.9s.9.2.8.4a5.88,5.88,0,0,1-3,2.5c-2,.4-1.8,1.9,0,1.9,4,0,4.2-.8,5.1-1,1.3-.3,2-.6,2-1.1a3.14,3.14,0,0,0-.1-1.2c0-.4-.3-.9.2-1.1s1.2,0,1.2-.5-.1-25.3-.1-25.6.5-.6.7,0,1.2,8.2,1.2,8.2.2,13.1.2,13.4v1.8c0,.3.6.1.7.3a5.5,5.5,0,0,1-.3,1.6c0,.5.2.8.9,1a2.43,2.43,0,0,1,1.5.9c.7.6,1.4,2,3.9,2.1,1.6,0,2.2-.9,1.8-1.4-.5-.7-1.6-.7-2.3-1.5a7,7,0,0,1-1-1.6c-.2-.4-.4-.7-.1-.7.5,0,.9.2,1-.3a7.72,7.72,0,0,1,.1-1l.6-13.8c-.8-18.8-.8-18.5-.8-19.2s.1-.6.3-.3c1.4,2.3,1.7,3,1,4.5s1.2,1.7,1.7,2.8a3.85,3.85,0,0,0,2.9,2.3c1.5-.2,1.8-.8,1.7-1.1" transform="translate(0 -0.06)"/><path class="cls-2" d="M14.5,22.3a3.74,3.74,0,0,1,1.2,1.3,3.45,3.45,0,0,1,.5,1.8,4.65,4.65,0,0,1-.5,2.1,5,5,0,0,1-1.5,1.4,8.47,8.47,0,0,1-2.4.8,28.8,28.8,0,0,1-3.2.2H0V29c.2,0,.5-.1.9-.1a1.55,1.55,0,0,0,.8-.2,1,1,0,0,0,.6-.5,1.45,1.45,0,0,0,.2-.7V15.9a1.48,1.48,0,0,0-.1-.7,1.79,1.79,0,0,0-.7-.5,1.88,1.88,0,0,0-.8-.2c-.3-.1-.6-.1-.8-.2v-.9H9a9.88,9.88,0,0,1,4.9.9A3,3,0,0,1,15.4,17a3.65,3.65,0,0,1-.3,1.5,2.59,2.59,0,0,1-1,1.1,4.58,4.58,0,0,1-1.4.7,8.45,8.45,0,0,1-1.7.5V21a16.25,16.25,0,0,1,1.9.4,8.27,8.27,0,0,1,1.6.9m-3.7-5a2.86,2.86,0,0,0-.8-2.1,3.2,3.2,0,0,0-2.3-.8H6.5v6.1h.6a3.93,3.93,0,0,0,2.8-.9,2.87,2.87,0,0,0,.9-2.3m.8,7.9a3.25,3.25,0,0,0-1-2.6,4.37,4.37,0,0,0-2.9-.9H6.6v6a1.34,1.34,0,0,0,.6.7,2.77,2.77,0,0,0,1.3.3,2.79,2.79,0,0,0,2.2-.9,3.57,3.57,0,0,0,.9-2.6m20.9-10a6.62,6.62,0,0,1,1.9,2.7,8.57,8.57,0,0,1,.7,3.6,9.74,9.74,0,0,1-.6,3.4,8.75,8.75,0,0,1-1.7,2.8,8.82,8.82,0,0,1-6.6,2.6,9.74,9.74,0,0,1-3.4-.6A8.75,8.75,0,0,1,20,28a7.72,7.72,0,0,1-1.9-2.7,8.12,8.12,0,0,1-.7-3.5,9,9,0,0,1,.7-3.7A9.23,9.23,0,0,1,20,15.3a7.5,7.5,0,0,1,2.8-1.8,10.51,10.51,0,0,1,7,0,9.48,9.48,0,0,1,2.7,1.7M29.5,27a13.49,13.49,0,0,0,.8-2.4,14.17,14.17,0,0,0,.2-3,24.58,24.58,0,0,0-.2-2.8,8.43,8.43,0,0,0-.7-2.4,4.53,4.53,0,0,0-1.3-1.7,3.17,3.17,0,0,0-2-.6,3.5,3.5,0,0,0-3.2,2A12.07,12.07,0,0,0,22,21.7a26.42,26.42,0,0,0,.2,2.9,13.7,13.7,0,0,0,.7,2.4,4.17,4.17,0,0,0,1.3,1.6,3.17,3.17,0,0,0,2,.6,3.38,3.38,0,0,0,2-.6A4.17,4.17,0,0,0,29.5,27M52.6,14.3a2.35,2.35,0,0,0-.8.2,4.88,4.88,0,0,1-.7.3,5.5,5.5,0,0,0-.9.7,8.74,8.74,0,0,0-.8,1c-.5.7-1,1.5-1.6,2.4s-1.2,1.8-1.8,2.8a12,12,0,0,0-.8,1.5,8.66,8.66,0,0,0-.1,1.8v2.3a1.45,1.45,0,0,0,.2.7,1,1,0,0,0,.6.5c.1.1.4.1.8.2a6.37,6.37,0,0,1,.9.2v.9H38.4v-.9a3.44,3.44,0,0,0,.9-.1,2,2,0,0,0,.9-.2,1,1,0,0,0,.6-.5,1.85,1.85,0,0,0,.2-.7V23.8a.75.75,0,0,0-.1-.5c-.1-.1-.1-.3-.3-.6s-.3-.5-.5-.9c-.6-1-1.2-2-1.7-3s-1.1-1.8-1.6-2.6a4.36,4.36,0,0,0-.8-1,2.1,2.1,0,0,0-.8-.6,6.89,6.89,0,0,0-.8-.3,2.49,2.49,0,0,0-.8-.1v-.9H43v.9a5.42,5.42,0,0,0-1.7.2c-.3.1-.4.2-.4.4a1.69,1.69,0,0,0,.2.5,6.57,6.57,0,0,0,.6,1.2q.45.75,1.2,2.1c.5.9,1.1,1.9,1.8,3.1,1.5-2.3,2.5-4,3-4.9a6.79,6.79,0,0,0,.8-1.7.63.63,0,0,0-.5-.6,9.11,9.11,0,0,0-1.6-.3v-.9h6.1v1Zm6.2,16a8.63,8.63,0,0,1-2.8-.4,16.47,16.47,0,0,1-2.2-.9l-.8.8H52l-.1-5.9h1a7.57,7.57,0,0,0,.9,1.8A10.38,10.38,0,0,0,55,27.4a10.1,10.1,0,0,0,1.6,1.3,4.55,4.55,0,0,0,2,.5,3.29,3.29,0,0,0,2.4-.8,2.36,2.36,0,0,0,.8-1.9,2,2,0,0,0-.7-1.6,6.41,6.41,0,0,0-2.2-1.1l-1.8-.6a13.14,13.14,0,0,0-1.5-.5,5.4,5.4,0,0,1-2.5-1.9,5,5,0,0,1-.8-2.7,4.33,4.33,0,0,1,.4-1.9,6.1,6.1,0,0,1,1.2-1.6,8.08,8.08,0,0,1,7.2-1.1,12.07,12.07,0,0,1,1.9.8l.7-.7h1l.1,5.6h-1c-.2-.6-.5-1.2-.8-1.9a6.24,6.24,0,0,0-1-1.6,6.89,6.89,0,0,0-1.3-1.1,3.29,3.29,0,0,0-1.7-.4,2.72,2.72,0,0,0-2,.7,2.5,2.5,0,0,0-.8,1.8,1.86,1.86,0,0,0,.7,1.6,6.41,6.41,0,0,0,2.2,1.1c.6.2,1.2.4,1.7.6s1.1.4,1.6.6A5.54,5.54,0,0,1,65,22.4a4.47,4.47,0,0,1,.9,2.8,5.37,5.37,0,0,1-.5,2.1A5.5,5.5,0,0,1,64.1,29,5.29,5.29,0,0,1,62,30.1c-1.2,0-2.1.2-3.2.2M87.6,18.1h-.9a7.29,7.29,0,0,0-1.2-2.3A2.51,2.51,0,0,0,84,14.5c-.2,0-.6-.1-.9-.1H81.7V27.3a1.48,1.48,0,0,0,.1.7,1,1,0,0,0,.6.5c.2.1.5.1.8.2s.7.1,1,.2v.9H75v-.9c.2,0,.5-.1.9-.1a1.29,1.29,0,0,0,.8-.2,1,1,0,0,0,.6-.5,1.7,1.7,0,0,0,.1-.7v-13H76.1a2.22,2.22,0,0,0-.9.1,3.21,3.21,0,0,0-1.5,1.3,17.09,17.09,0,0,0-1.2,2.3h-.9V13.4H87.5v4.7Zm15.5-2.9a6.62,6.62,0,0,1,1.9,2.7,8.57,8.57,0,0,1,.7,3.6,9.74,9.74,0,0,1-.6,3.4,8.75,8.75,0,0,1-1.7,2.8,8.82,8.82,0,0,1-6.6,2.6,9.74,9.74,0,0,1-3.4-.6A8.75,8.75,0,0,1,90.6,28a7.72,7.72,0,0,1-1.9-2.7,8.12,8.12,0,0,1-.7-3.5,9,9,0,0,1,.7-3.7,9.23,9.23,0,0,1,1.9-2.8,7.5,7.5,0,0,1,2.8-1.8,10.51,10.51,0,0,1,7,0,9.48,9.48,0,0,1,2.7,1.7m-3,11.8a13.49,13.49,0,0,0,.8-2.4,14.17,14.17,0,0,0,.2-3,24.58,24.58,0,0,0-.2-2.8,8.43,8.43,0,0,0-.7-2.4,4.53,4.53,0,0,0-1.3-1.7,3.17,3.17,0,0,0-2-.6,3.5,3.5,0,0,0-3.2,2,12.07,12.07,0,0,0-1.1,5.6,26.42,26.42,0,0,0,.2,2.9,13.7,13.7,0,0,0,.7,2.4,4.17,4.17,0,0,0,1.3,1.6,3.17,3.17,0,0,0,2,.6,3.38,3.38,0,0,0,2-.6,3.44,3.44,0,0,0,1.3-1.6m43.5-13.6v.9a3,3,0,0,1,1.1.3,2.34,2.34,0,0,1,1,.5,1.68,1.68,0,0,1,.6,1.1,11,11,0,0,1,.2,2.2v6.2l-9-11.1H125.1v.9c.3,0,.6.1.9.1a1.88,1.88,0,0,1,.8.2,1.63,1.63,0,0,1,.6.3.4.4,0,0,1,.2.4,3.75,3.75,0,0,1-.1,1c-.1.4-.2.8-.4,1.4-.3.9-.6,2-1,3.2s-.9,2.9-1.5,4.9l-4.3-12.4h-2.5l-3.7,12q-1.2-3.75-2.1-6.3c-.6-1.7-.9-2.8-1.1-3.4,0-.1-.1-.2-.1-.4v-.5c0-.1.1-.1.3-.2s.3-.1.6-.2a9.68,9.68,0,0,1,1.2-.2v-.9H104v.9a1.88,1.88,0,0,1,.8.2c.2.1.5.2.7.3a4.35,4.35,0,0,1,.7.6,3.6,3.6,0,0,1,.5.9c.5,1.4,1.1,3.1,1.7,5.1s1.7,4.9,3,8.7h2.3l3.9-12.2L122,30h2.3c1-2.8,1.9-5.5,2.8-8.1s1.5-4.5,2-5.6c.1-.3.3-.6.4-.9a2.85,2.85,0,0,1,.8-.7c.2-.1.5-.2.7-.3a2,2,0,0,1,.5-.1h.4c.2.1.5.1.7.2a3.49,3.49,0,0,1,.9.6,2,2,0,0,1,.6.9,3.59,3.59,0,0,1,.2,1.1V25a11.32,11.32,0,0,1-.2,2.3,1.44,1.44,0,0,1-.6,1,3,3,0,0,1-1,.4c-.4.1-.7.1-1,.2v.9h7.1v-.9a3,3,0,0,1-1.1-.3,1.87,1.87,0,0,1-1-.5,1.68,1.68,0,0,1-.6-1.1,11,11,0,0,1-.2-2.2V17.1L146,29.8h2.1V18.2a11,11,0,0,1,.2-2.2,1.68,1.68,0,0,1,.6-1.1,3.7,3.7,0,0,1,1.1-.5,3.44,3.44,0,0,1,.9-.1v-.9Z" transform="translate(0 -0.06)"/><path class="cls-1" d="M10.4,50,4.9,41.6V50H2.2V36.2H4.6l5.5,8.4V36.2h2.7V50ZM20,50v-.9a3,3,0,0,1-2.5,1,3.57,3.57,0,0,1-2.6-.9,3.57,3.57,0,0,1-.8-2.3c0-1.6,1.1-2.9,3.4-2.9H20v-.5c0-1.1-.5-1.6-1.9-1.6a2,2,0,0,0-1.9.8l-1.6-1.6a4.23,4.23,0,0,1,3.6-1.4c2.8,0,4.3,1.2,4.3,3.6V50Zm0-4.3H18c-.9,0-1.4.4-1.4,1.1s.5,1.2,1.5,1.2a2.2,2.2,0,0,0,1.6-.5,1.7,1.7,0,0,0,.4-1.3v-.5ZM27.5,50a2.72,2.72,0,0,1-2.9-2.9v-5H23.5V40.2h1.1v-3h2.5v3h1.8v1.9H27.1v4.8a.8.8,0,0,0,.9.9h.9V50Zm2.7-11.8V36.1h2.6v2.1ZM30.3,50V39.9h2.5V50Zm11.3-1.2A3.89,3.89,0,0,1,38.5,50a4.25,4.25,0,0,1-3.1-1.2c-.9-.9-1.1-2.1-1.1-3.9s.2-3,1.1-3.9a3.89,3.89,0,0,1,3.1-1.2A4.25,4.25,0,0,1,41.6,41c.9.9,1.1,2.1,1.1,3.9S42.6,47.9,41.6,48.8Zm-1.9-6.3a1.66,1.66,0,0,0-1.2-.5,2.14,2.14,0,0,0-1.2.4,3.44,3.44,0,0,0-.6,2.4,3.89,3.89,0,0,0,.6,2.5,1.59,1.59,0,0,0,1.2.4,2.14,2.14,0,0,0,1.2-.4,3.57,3.57,0,0,0,.6-2.5A3.31,3.31,0,0,0,39.7,42.5ZM50.1,50V43.9a1.6,1.6,0,0,0-1.7-1.8,1.65,1.65,0,0,0-1.7,1.8V50H44.2V39.9h2.5v.9a3.47,3.47,0,0,1,2.5-1,3.24,3.24,0,0,1,2.4.9,3.83,3.83,0,0,1,1,2.9V50Zm9.5,0v-.9a3,3,0,0,1-2.5,1,3,3,0,0,1-3.4-3.2c0-1.6,1.1-2.9,3.4-2.9h2.4v-.5c0-1.1-.5-1.6-1.9-1.6a2,2,0,0,0-1.9.8l-1.6-1.6a4.23,4.23,0,0,1,3.6-1.4c2.8,0,4.3,1.2,4.3,3.6V50Zm0-4.3h-2c-.9,0-1.4.4-1.4,1.1s.5,1.2,1.5,1.2a2.2,2.2,0,0,0,1.6-.5,1.7,1.7,0,0,0,.4-1.3v-.5ZM66.7,50a2.67,2.67,0,0,1-2.9-2.9V36.2h2.5V46.9a.8.8,0,0,0,.9.9h1V50Zm13.9,0-2.7-5.5H76V50H73.3V36.2h5.4a4.18,4.18,0,0,1,4.5,4.2A3.77,3.77,0,0,1,80.7,44l3.1,5.9H80.6ZM78.5,38.6H76v3.6h2.5a1.85,1.85,0,0,0,2-1.8A1.79,1.79,0,0,0,78.5,38.6Zm8.1,7.1a2,2,0,0,0,2.2,2.2,3,3,0,0,0,2.3-.9l1.5,1.5a4.81,4.81,0,0,1-3.8,1.6c-2.4,0-4.7-1.1-4.7-5.2,0-3.3,1.8-5.1,4.4-5.1,2.8,0,4.4,2.1,4.4,4.8v1.1Zm3.6-2.8a1.94,1.94,0,0,0-3.4,0,2,2,0,0,0-.2,1.1h3.8a3.59,3.59,0,0,0-.2-1.1Zm7.6,7.2a5.75,5.75,0,0,1-4.3-1.4l1.6-1.6a3.69,3.69,0,0,0,2.7.9c.9,0,1.8-.3,1.8-1,0-.5-.3-.9-1.1-.9L97,45.8c-1.8-.2-2.9-1-2.9-2.8,0-2.1,1.8-3.2,3.9-3.2a5.13,5.13,0,0,1,3.8,1.2l-1.5,1.6a3.69,3.69,0,0,0-2.3-.7c-1,0-1.4.5-1.4,1s.2.8,1,.9l1.6.2c2,.2,3,1.3,3,3C102.1,49,100.2,50.1,97.8,50.1Zm7.7-4.4a2,2,0,0,0,2.2,2.2A3,3,0,0,0,110,47l1.5,1.5a4.81,4.81,0,0,1-3.8,1.6c-2.4,0-4.7-1.1-4.7-5.2,0-3.3,1.8-5.1,4.4-5.1,2.8,0,4.4,2.1,4.4,4.8v1.1Zm3.6-2.8a1.95,1.95,0,0,0-3.4,0,2,2,0,0,0-.2,1.1h3.8a3.59,3.59,0,0,0-.2-1.1Zm9.4,7.1v-.9a3,3,0,0,1-2.5,1,3,3,0,0,1-3.4-3.2c0-1.6,1.1-2.9,3.4-2.9h2.4v-.5c0-1.1-.5-1.6-1.9-1.6a2,2,0,0,0-1.9.8L113,41.1a4.23,4.23,0,0,1,3.6-1.4c2.8,0,4.3,1.2,4.3,3.6V50Zm-.1-4.3h-2c-.9,0-1.4.4-1.4,1.1s.5,1.2,1.4,1.2a2.2,2.2,0,0,0,1.6-.5,1.7,1.7,0,0,0,.4-1.3Zm9.8-3.1a1.61,1.61,0,0,0-1.3-.6,1.67,1.67,0,0,0-1.6,1.9V50h-2.5V39.9h2.5v1a3.27,3.27,0,0,1,2.5-1.1,3.41,3.41,0,0,1,2.4.9Zm6.4,7.5c-2,0-4.5-1.1-4.5-5.2s2.5-5.1,4.5-5.1a4,4,0,0,1,3.3,1.4l-1.7,1.7a1.93,1.93,0,0,0-1.6-.8,1.51,1.51,0,0,0-1.4.7,3.4,3.4,0,0,0-.6,2.2,3,3,0,0,0,.6,2.2,1.91,1.91,0,0,0,1.4.7,1.82,1.82,0,0,0,1.6-.8l1.7,1.7A4.52,4.52,0,0,1,134.6,50.1Zm10.2-.1V43.9a1.63,1.63,0,0,0-1.6-1.8,1.58,1.58,0,0,0-1.6,1.8V50h-2.5V36.2h2.5v4.6a3.25,3.25,0,0,1,2.4-1c2.2,0,3.4,1.5,3.4,3.7V50ZM90.4,67.1V61.3H85.7v5.8H83V53.3h2.7V59h4.7V53.4h2.7V67.2H90.4ZM102.2,66a3.89,3.89,0,0,1-3.1,1.2A4.25,4.25,0,0,1,96,66c-.9-.9-1.1-2.1-1.1-3.9s.2-3,1.1-3.9A3.89,3.89,0,0,1,99.1,57a4.25,4.25,0,0,1,3.1,1.2c.9.9,1.1,2.1,1.1,3.9S103.1,65,102.2,66Zm-2-6.4a1.59,1.59,0,0,0-1.2-.4,2.14,2.14,0,0,0-1.2.4,3.44,3.44,0,0,0-.6,2.4,3.89,3.89,0,0,0,.6,2.5,1.59,1.59,0,0,0,1.2.4,2.14,2.14,0,0,0,1.2-.4,3.57,3.57,0,0,0,.6-2.5A3.44,3.44,0,0,0,100.2,59.6Zm7.9,7.6a5.75,5.75,0,0,1-4.3-1.4l1.6-1.6a3.69,3.69,0,0,0,2.7.9c.9,0,1.8-.3,1.8-1,0-.5-.3-.9-1.1-.9l-1.6-.2c-1.8-.2-2.9-1-2.9-2.8,0-2.1,1.8-3.2,3.9-3.2a5.13,5.13,0,0,1,3.8,1.2l-1.5,1.6a3.69,3.69,0,0,0-2.3-.7c-1,0-1.4.5-1.4,1s.2.8,1,.9l1.6.2c2,.2,3,1.3,3,3C112.4,66.2,110.5,67.2,108.1,67.2Zm13-.9a3.49,3.49,0,0,1-2.5.9,3,3,0,0,1-2.4-1v4.6h-2.5V57h2.4v1a3.07,3.07,0,0,1,2.5-1.1,3.49,3.49,0,0,1,2.5.9c1,1,1,2.7,1,4.2S122.1,65.3,121.1,66.3Zm-3.2-7.1c-1.5,0-1.7,1.2-1.7,2.9s.2,2.9,1.7,2.9,1.7-1.3,1.7-2.9S119.4,59.2,117.9,59.2Zm5.7-3.9v-2h2.6v2Zm0,11.8V57h2.5V67.1Zm7.6,0a2.77,2.77,0,0,1-2.9-2.9v-5h-1.1V57.3h1.1v-3h2.5v3h1.8v1.9h-1.8V64a.8.8,0,0,0,.9.9h.9V67h-1.4Zm8.2,0v-.9a3,3,0,0,1-2.5,1,3,3,0,0,1-3.4-3.2c0-1.6,1.1-2.9,3.4-2.9h2.4v-.5c0-1.1-.5-1.6-1.9-1.6a2,2,0,0,0-1.9.8l-1.6-1.6a4.23,4.23,0,0,1,3.6-1.4c2.8,0,4.3,1.2,4.3,3.6V67h-2.4Zm-.1-4.2h-2c-.9,0-1.4.4-1.4,1.1s.5,1.2,1.5,1.2a2.2,2.2,0,0,0,1.6-.5,1.7,1.7,0,0,0,.4-1.3v-.5Zm7.2,4.2a2.72,2.72,0,0,1-2.9-2.9V53.3h2.5V64a.8.8,0,0,0,.9.9h1V67h-1.5Z" transform="translate(0 -0.06)"/><path class="cls-1" d="M183.1,72.1a2.9,2.9,0,1,1,2.9-2.9A2.9,2.9,0,0,1,183.1,72.1Zm0-5.3a2.5,2.5,0,1,0,2.4,2.5A2.39,2.39,0,0,0,183.1,66.8Zm.7,4-.7-1.3h-.5v1.3h-.4V67.6h1.1a1,1,0,0,1,1,.9c0,.5-.3.7-.7.9l.8,1.3h-.6Zm-.6-2.7h-.6v1.1h.6a.56.56,0,0,0,.6-.5A.53.53,0,0,0,183.2,68.1Z" transform="translate(0 -0.06)"/></svg>