<?xml version="1.0" encoding="UTF-8"?><svg id="Layer_1" xmlns="http://www.w3.org/2000/svg" viewBox="0 0 259.27 73.26"><defs><style>.cls-1{fill:#304d6a;}.cls-2{fill:#32b4bd;}</style></defs><g><polygon class="cls-1" points="94.74 39.87 94.74 52.96 81.02 52.96 81.02 39.87 73.86 39.87 73.86 72.72 81.02 72.72 81.02 58.9 94.74 58.9 94.74 72.72 101.94 72.72 101.94 39.87 94.74 39.87"/><path class="cls-1" d="M112.06,58.55h9.68c-.22-1.89-1.76-3.96-4.64-3.96-2.39,0-4.28,1.49-5.04,3.96m5.13-9.54c8.1,0,11.65,6.3,11.02,13.99h-16.33c.76,2.93,3.47,4.5,7.25,4.5,2.52,0,5.4-.86,7.33-2.25v5.99c-2.34,1.44-5.49,2.02-8.24,2.02-7.29,0-12.92-5.04-12.92-12.06s5.62-12.19,11.88-12.19"/><path class="cls-1" d="M141.21,62.64c-2.02,0-4,.99-4,2.79s1.98,2.84,4,2.84,3.96-.99,3.96-2.84-2.03-2.79-3.96-2.79m3.87,8.64c-.81,.9-2.93,1.98-5.62,1.98-4.68,0-8.73-2.97-8.73-7.83,0-4.5,4.05-7.47,8.95-7.47,2.34,0,4.5,.85,5.4,1.66v-.99c0-2.07-1.8-3.65-5.27-3.65-2.34,0-4.54,.81-6.39,1.85v-6.08c1.84-.99,4.91-1.75,7.97-1.75,6.61,0,10.49,3.42,10.49,9.36v14.35h-6.79v-1.44Z"/><rect class="cls-1" x="156.25" y="38.52" width="7.02" height="34.2"/><path class="cls-1" d="M180.58,67.23c1.21,0,2.34-.4,3.28-1.17v6.21c-1.26,.63-3.01,.99-4.68,.99-4.86,0-8.6-2.75-8.6-8.28v-9.85h-3.69v-5.58h3.69v-4.95l7.02-2.11v7.07h5.8v5.58h-5.8v9.09c0,2.03,1.21,3.01,2.97,3.01"/><path class="cls-1" d="M194.82,72.72h-7.02V38.52h7.02v13.32c1.26-1.62,3.51-2.84,6.3-2.84,5.26,0,8.46,3.51,8.46,8.73v14.98h-7.07v-13.05c0-2.34-1.3-4.32-3.82-4.32s-3.87,1.98-3.87,4.32v13.05Z"/><path class="cls-1" d="M33.31,57.69c-1.46,1.54-3.52,2.29-6.28,2.29H13.65v-16.76h13.38c2.77,0,4.83,.74,6.29,2.25,1.47,1.52,2.19,3.51,2.19,6.08s-.72,4.58-2.2,6.14m13.35-14.45c-1.6-2.79-3.76-5.06-6.48-6.83l-14.36-8.78c-.68-.42-1.77-.38-2.42,.09l-4.49,3.56c-.65,.47-1.75,.53-2.45,.15l-1.44-.8c-.7-.39-1.86-.43-2.59-.09L0,36.41v36.31H27.03c3.26,0,6.24-.51,8.93-1.53,2.68-1.02,5-2.41,6.93-4.18,1.94-1.77,3.45-3.89,4.54-6.37,1.09-2.48,1.63-5.15,1.63-8.01,0-3.47-.8-6.59-2.4-9.38"/></g><g><path class="cls-2" d="M106.34,21.29c0,3.56,2.39,6.08,5.54,6.08s5.54-2.52,5.54-6.08-2.34-6.12-5.54-6.12-5.54,2.52-5.54,6.12m-6.93,0c0-7.02,5.71-12.15,12.46-12.15s12.51,5.13,12.51,12.15-5.72,12.1-12.51,12.1-12.46-5.08-12.46-12.1"/><polygon class="cls-2" points="146.04 27.32 146.04 32.85 125.07 32.85 135.87 15.26 125.79 15.26 125.79 9.68 146.36 9.68 135.6 27.32 146.04 27.32"/><path class="cls-2" d="M154.15,18.68h9.68c-.23-1.89-1.76-3.96-4.64-3.96-2.38,0-4.27,1.49-5.04,3.96m5.13-9.54c8.1,0,11.65,6.3,11.02,14h-16.34c.76,2.92,3.47,4.5,7.25,4.5,2.52,0,5.4-.86,7.33-2.25v5.98c-2.34,1.44-5.49,2.03-8.24,2.03-7.29,0-12.91-5.04-12.91-12.06s5.62-12.19,11.88-12.19"/><path class="cls-2" d="M194.82,32.85h-7.02v-13.59c0-2.02-1.17-3.78-3.42-3.78s-3.42,1.71-3.42,3.78v13.59h-7.02V9.68h7.02v2.3c1.17-1.71,3.46-2.83,6.16-2.83,2.97,0,5.04,1.35,6.39,3.15,1.49-1.67,3.74-3.15,7.15-3.15,4.95,0,8.06,3.42,8.06,8.68v15.03h-7.07v-13.59c0-2.02-1.17-3.78-3.38-3.78s-3.46,1.71-3.46,3.78v13.59Z"/><path class="cls-2" d="M222.65,22.77c-2.02,0-4,.99-4,2.79s1.98,2.83,4,2.83,3.96-.99,3.96-2.83-2.03-2.79-3.96-2.79m3.87,8.64c-.81,.9-2.93,1.98-5.62,1.98-4.68,0-8.73-2.97-8.73-7.83,0-4.5,4.05-7.47,8.95-7.47,2.34,0,4.5,.85,5.4,1.67v-.99c0-2.07-1.8-3.65-5.27-3.65-2.34,0-4.54,.81-6.39,1.85v-6.08c1.85-.99,4.91-1.75,7.97-1.75,6.61,0,10.49,3.42,10.49,9.36v14.35h-6.79v-1.44Z"/><path class="cls-2" d="M244.51,32.85h-7.02V9.68h7.02v2.3c1.26-1.62,3.51-2.83,6.3-2.83,5.26,0,8.46,3.51,8.46,8.73v14.98h-7.07v-13.05c0-2.34-1.3-4.32-3.82-4.32s-3.87,1.98-3.87,4.32v13.05Z"/><path class="cls-2" d="M85.29,26.91c3.01,0,4.95-1.62,4.95-4s-1.93-4.01-4.95-4.01h-4.46v8.01h4.46Zm-1.53-13.27c2.93,0,4.77-1.35,4.77-3.83s-1.85-3.87-4.77-3.87h-2.92v7.69h2.92ZM73.86,0h10.31c7.47,0,11.34,3.47,11.34,8.78,0,3.33-1.98,5.62-4.28,6.7,3.6,1.08,6.3,4.01,6.3,7.92,0,5.76-4.41,9.45-11.75,9.45h-11.92V0Z"/><path class="cls-2" d="M47.43,12.09c-1.09-2.48-2.6-4.6-4.54-6.37-1.94-1.77-4.25-3.16-6.94-4.18C33.26,.51,30.29,0,27.03,0H0V32.38l13.65-6.44V12.73h13.38c2.77,0,4.82,.75,6.29,2.28,1.47,1.55,2.19,3.55,2.19,6.1,0,4.64-2.53,6.37-2.71,6.52l10.39,6.35c1.35-1.31,2.52-2.77,3.47-4.45,1.6-2.82,2.4-5.97,2.4-9.44,0-2.85-.55-5.52-1.63-8.01"/></g></svg>