<?xml version="1.0" encoding="utf-8"?>
<svg viewBox="0 0 244.21 65" style="enable-background:new 0 0 244.21 84.91;" xmlns="http://www.w3.org/2000/svg">
  <defs>
    <style type="text/css">
	.st0{fill:#7D98AB;}
	.st1{fill-rule:evenodd;clip-rule:evenodd;fill:#7D98AB;}
</style>
  </defs>
  <polygon points="73.83,49.77 76.6,49.77 77.23,52.44 77.25,52.44 77.88,49.77 80.64,49.77 80.64,54.65 78.96,54.65 78.93,50.82 &#10;&#9;78.92,50.82 77.96,54.65 76.4,54.65 75.47,50.82 75.45,50.82 75.42,54.65 73.83,54.65 "/>
  <polygon points="87.27,49.77 91.49,49.77 91.49,50.94 89.1,50.94 89.1,51.64 91.39,51.64 91.39,52.81 89.1,52.81 89.1,53.47 &#10;&#9;91.54,53.47 91.54,54.65 87.27,54.65 "/>
  <g>
    <path d="M98.11,49.77h2.75c1.4,0,2.38,0.47,2.38,2.45c0,1.84-1.06,2.42-2.46,2.42h-2.67V49.77z M99.98,53.43h0.47 c0.68,0,0.83-0.45,0.83-1.26c0-0.84-0.17-1.27-0.84-1.27h-0.46V53.43z"/>
  </g>
  <g>
    <rect x="109.8" y="49.77" width="1.87" height="4.88"/>
  </g>
  <g>
    <path d="M122.42,54.54c-0.35,0.1-0.87,0.2-1.34,0.2c-1.62,0-2.92-0.85-2.92-2.59c0-1.64,1.36-2.45,2.92-2.45 c0.52,0,0.82,0.06,1.33,0.15v1.29c-0.31-0.1-0.62-0.18-0.93-0.18c-0.8,0-1.4,0.43-1.4,1.22c0,0.84,0.56,1.26,1.33,1.26 c0.34,0,0.67-0.07,1.01-0.19V54.54z"/>
  </g>
  <g>
    <path d="M130.15,49.77h2.58l1.74,4.88h-1.96l-0.32-1.06h-1.58l-0.3,1.06h-1.87L130.15,49.77z M130.86,52.42h1.08l-0.53-1.6h-0.01 L130.86,52.42z"/>
  </g>
  <g>
    <polygon points="140.7,49.77 142.57,49.77 142.57,53.21 144.87,53.21 144.87,54.65 140.7,54.65 &#9;"/>
  </g>
  <g>
    <path d="M161.09,54.54c-0.35,0.1-0.87,0.2-1.34,0.2c-1.62,0-2.92-0.85-2.92-2.59c0-1.64,1.35-2.45,2.92-2.45 c0.52,0,0.82,0.06,1.33,0.15v1.29c-0.31-0.1-0.62-0.18-0.94-0.18c-0.8,0-1.4,0.43-1.4,1.22c0,0.84,0.56,1.26,1.33,1.26 c0.34,0,0.67-0.07,1.01-0.19V54.54z"/>
  </g>
  <g>
    <polygon points="167.57,49.77 169.44,49.77 169.44,53.21 171.74,53.21 171.74,54.65 167.57,54.65 &#9;"/>
  </g>
  <g>
    <rect x="178.23" y="49.77" width="1.87" height="4.88"/>
  </g>
  <g>
    <polygon points="186.77,49.77 189.57,49.77 190.47,53.21 190.49,53.21 190.49,49.77 192.09,49.77 192.09,54.65 189.34,54.65 &#10;&#9;&#9;188.39,51.11 188.37,51.11 188.37,54.65 186.77,54.65 &#9;"/>
  </g>
  <g>
    <rect x="198.76" y="49.77" width="1.87" height="4.88"/>
  </g>
  <g>
    <path d="M211.37,54.54c-0.35,0.1-0.87,0.2-1.34,0.2c-1.62,0-2.92-0.85-2.92-2.59c0-1.64,1.35-2.45,2.92-2.45 c0.52,0,0.82,0.06,1.33,0.15v1.29c-0.31-0.1-0.62-0.18-0.94-0.18c-0.8,0-1.4,0.43-1.4,1.22c0,0.84,0.56,1.26,1.33,1.26 c0.34,0,0.67-0.07,1.01-0.19V54.54z"/>
  </g>
  <g>
    <path class="st0" d="M232.5,42.63h-0.82v-0.26h1.92v0.26h-0.82v2.19h-0.28V42.63z"/>
    <path class="st0" d="M234.32,42.38h0.28l0.89,1.33l0.89-1.33h0.28v2.45h-0.28v-1.98l-0.89,1.31h-0.01l-0.89-1.31v1.98h-0.27V42.38z "/>
  </g>
  <g>
    <path class="st0" d="M72.93,11.99v31.48h5.23v1.3H61.4v-1.3h5.47V16.88c0-2.09-0.44-3.54-3.35-3.54h-2.73v-1.3L72.93,11.99z"/>
  </g>
  <g>
    <path class="st0" d="M73.47,12.01h3.4c4.7,0,12.52,0.12,12.55,7.83c0.02,4.91-4.55,7.22-8.81,7.74v0.1 c4.77,0.34,9.93,2.04,9.93,8.45c0,4.06-1.72,6.57-5.24,7.93c-1.61,0.62-4.03,0.71-6.62,0.7v-1.3h0.42c4.23,0,4.96-3.6,4.96-7.66 c0-4.58-1.51-7.44-6.47-7.49h-4.13v-1.22h3.84c3.7,0,6-1.92,5.99-7.25c-0.03-7.22-5.85-6.64-9.82-6.62V12.01z"/>
  </g>
  <g>
    <path class="st0" d="M109.94,28.85c0-2.19-2.02-3.58-4.13-3.58c-3.43,0-5.16,2.26-6.57,5.18v-4.94h-9.77v1.19h4.51v16.75h-4.17v1.3 h13.8v-1.3h-4.38v-3.87c0-6.37,1.3-9.05,2.88-11.13c0.99-1.31,2.38-1.85,2.86-1.55c0.69,0.42-0.28,1.29-0.52,1.71 c-0.2,0.32-0.43,1.26-0.21,1.98c0.37,1.24,1.29,1.8,2.58,1.84c1.34,0.05,2.24-0.51,2.86-2.04 C109.86,29.99,109.94,29.41,109.94,28.85"/>
  </g>
  <g>
    <polygon class="st0" points="170.74,25.7 181.81,25.7 181.81,26.92 178.56,26.92 182.17,38.6 186.48,25.7 187.84,25.7 &#10;&#9;&#9;193.24,38.61 196.66,26.92 193.59,26.92 193.59,25.7 201,25.7 201,26.92 198.16,26.92 192.54,44.89 190.25,44.89 185.35,32.89 &#10;&#9;&#9;181.28,44.89 178.96,44.89 173.12,26.92 170.74,26.92 &#9;"/>
  </g>
  <g>
    <path class="st0" d="M218.66,26.92h-2.63V25.7h11.55v1.22h-3.28l5.4,12.07l4.63-12.07h-3.27V25.7h7.72v1.22h-3l-7.76,20.16 c-1.02,2.58-2.48,7.5-5.74,7.5c-1.36,0-2.99-1.12-2.99-2.48c0-1.41,0.8-2.48,2.17-2.48c1.21,0,1.65,0.29,2.38,1.17 c0.34,0.44,0.48,1.37,2.04-2.14c0.83-1.8,0.8-1.87,1.33-3.67L218.66,26.92z"/>
  </g>
  <g>
    <path class="st0" d="M217.58,43.4c-1.11-0.68-1.17-2.57-1.17-3.2v-9.37c0-1.75,0.07-3.08-1.64-4.1c-1.83-1.1-4.3-1.31-6.39-1.31 c-3,0-8.71,0.77-8.14,5.01c0.23,1.7,1.59,2.37,2.94,2.33c1.3-0.05,2.46-0.72,2.57-2.11c0.1-1.12-0.19-1.63-0.91-2.41 c-0.99-1.06,1.73-1.77,3.4-1.77c0.83,0,3.22-0.19,3.22,2.16v5.5c-4.38-0.24-12.41,0.5-12.41,6.29c0,3.11,2.38,4.72,5.3,4.72 c2.33,0,4.59-0.55,6.29-2.04v-1.75c-0.68,0.95-1.74,1.42-3.08,1.42c-2.28,0-3.16-1.61-3.16-3.75c0-3.94,4.05-3.76,7.06-3.76v2.68 c0,0.14-0.01,0.28-0.01,0.42v3.92c0,0,0-0.01,0.01-0.01c0.29,2.14,1.65,2.62,3.79,2.62h4.57v-1.19 C219.13,43.64,218.18,43.76,217.58,43.4"/>
  </g>
  <g>
    <path class="st0" d="M173.34,43.59h-3.07V12.47h-8.71v1.21h3.5l0.06,15.3c-0.21-0.93-1.77-3.56-5.56-3.57 c-5.28-0.01-8.89,3.5-8.89,10.27c0,2.53,0.73,5.87,2.68,7.57c1.85,1.61,3.16,2.12,5.74,2.12c2.21,0,4.04-0.91,5.15-2.25v-2.24 c-0.93,1.78-2.55,3.19-4.46,3.19c-2.67,0-3.18-2.21-3.18-4.54v-7.28c0-2.77-0.01-5.71,3.2-5.71c3.74,0,5.25,4.66,5.25,7.51v3.69 c0,0.04,0,0.07-0.01,0.11v6.9h8.29V43.59z"/>
  </g>
  <g>
    <path class="st0" d="M149.1,43.4c-1.11-0.68-1.17-2.57-1.17-3.2v-9.37c0-1.75,0.06-3.08-1.64-4.1c-1.83-1.1-4.3-1.31-6.39-1.31 c-3,0-8.71,0.77-8.14,5.01c0.23,1.7,1.58,2.37,2.94,2.33c1.3-0.05,2.45-0.72,2.57-2.11c0.09-1.12-0.19-1.63-0.92-2.41 c-0.99-1.06,1.73-1.77,3.41-1.77c0.83,0,3.21-0.19,3.21,2.16v5.47c-4.38-0.24-12.4,0.53-12.4,6.32c0,3.11,2.38,4.72,5.3,4.72 c2.33,0,4.59-0.55,6.29-2.05v-1.76c-0.68,0.95-1.74,1.42-3.08,1.42c-2.29,0-3.17-1.61-3.17-3.75c0-3.94,4.04-3.76,7.06-3.76v2.68 c0,0.07,0,0.14,0,0.22v4.12c0,0,0,0,0,0c0.29,2.14,1.65,2.62,3.8,2.62h4.58v-1.19C150.64,43.64,149.69,43.76,149.1,43.4"/>
  </g>
  <g>
    <path class="st0" d="M119.74,25.44c5.39,0,10.01,3.66,10.01,10.06c0,6.19-4.62,9.82-10.01,9.82c-5.39,0-10.01-3.63-10.01-9.82 C109.73,29.11,114.36,25.44,119.74,25.44 M119.74,26.4c-4.68,0-4.34,3.72-4.34,9.11c0,6.2,0.09,8.87,4.34,8.87 c4.24,0,4.34-2.67,4.34-8.87C124.08,30.12,124.41,26.4,119.74,26.4"/>
  </g>
  <g style="" transform="matrix(0.757173, 0, 0, 0.714579, 0.667515, 1.810134)">
    <g>
      <path class="st1" d="M31.57,12.36c0.18-0.15,0.36-0.31,0.55-0.48c-0.04-0.06-0.1-0.15-0.17-0.22c-0.45-0.4-0.74-0.95-1.07-1.45 c-0.76-1.18-0.41-2.68,0.3-3.43c0.16-0.17,0.38-0.29,0.6-0.39c0.21-0.11,0.33-0.03,0.39,0.23c0.11,0.47,0.02,0.92-0.11,1.36 c-0.13,0.44-0.14,0.88-0.01,1.34c0.28-0.23,0.28-0.23,0.63,0.03c0.02,0.15,0.05,0.31,0.07,0.47c0.2-0.01,0.32-0.11,0.38-0.28 c0.18-0.49,0.26-0.98,0.02-1.49c-0.12-0.25-0.21-0.51-0.41-0.7c-0.21-0.19-0.23-0.4-0.11-0.62c0.1-0.18,0.38-0.28,0.59-0.2 c0.35,0.14,0.65,0.37,0.88,0.7c0.33,0.46,0.59,0.94,0.68,1.53c0.09,0.65-0.09,1.22-0.4,1.76c-0.19,0.34-0.51,0.46-0.82,0.59 c-0.11,0.05-0.23,0.07-0.37,0.12c-0.01,0.35,0.02,0.74-0.45,0.83c0.15,0.18,0.28,0.32,0.38,0.49c0.07,0.11,0.12,0.26,0.14,0.39 c0.02,0.1,0.01,0.22,0.01,0.33c0.02,1.01,0.1,2.03,0.04,3.05c-0.02,0.29,0,0.59,0,0.88c0,0.76,0,1.52,0,2.27 c0,0.27,0.01,0.54,0.02,0.81c0.01,0.77,0.01,1.54,0.02,2.31c0.02,1.42,0.05,2.84,0.07,4.26c0,0.24-0.04,0.48-0.09,0.72 c-0.07,0.3-0.04,0.63-0.05,0.95c-0.02,0.64-0.01,1.27-0.05,1.91c-0.02,0.41-0.15,0.82-0.16,1.23c-0.03,0.65-0.19,1.26-0.28,1.89 c-0.02,0.13-0.03,0.26-0.05,0.43c0.39,0.1,0.75,0.21,1.12,0.29c1.02,0.21,2.02,0.5,2.97,0.94c0.83,0.39,1.6,0.9,2.28,1.56 c0.3,0.29,0.48,0.67,0.54,1.11c0.07,0.49,0.16,0.97,0.18,1.46c0.05,1.04-0.15,2.02-0.7,2.89c-0.25,0.39-0.5,0.78-0.74,1.18 c-0.16,0.27-0.35,0.46-0.62,0.58c-0.36,0.15-0.71,0.33-1.07,0.49c-0.07,0.03-0.15,0.09-0.22,0.07c-0.24-0.04-0.43,0.08-0.66,0.24 c-0.13-0.19-0.26-0.36-0.36-0.55c-0.14-0.25-0.09-0.51,0.09-0.72c0.35-0.41,0.77-0.72,1.24-0.96c0.33-0.17,0.63-0.4,0.92-0.65 c0.16-0.14,0.25-0.37,0.37-0.56c0.16-0.25,0.31-0.52,0.48-0.75c0.41-0.54,0.35-1.13,0.18-1.74c-0.03-0.12-0.15-0.21-0.23-0.32 c-0.02,0.01-0.05,0.02-0.07,0.03c-0.02,0.3-0.03,0.6-0.07,0.9c-0.04,0.3-0.1,0.6-0.2,0.88c-0.09,0.28-0.21,0.57-0.51,0.71 c-0.13-0.23-0.11-0.48-0.06-0.71c0.13-0.65,0.09-1.29,0.02-1.94c-0.04-0.39-0.17-0.71-0.54-0.9c-0.63-0.31-1.28-0.58-1.95-0.75 c-0.67-0.17-1.35-0.28-2.02-0.46c-0.68-0.19-1.36-0.34-2.02-0.6c-0.56-0.22-1.14-0.42-1.73-0.52c-0.88-0.15-1.77-0.24-2.67-0.3 c-1.05-0.07-2.09-0.29-3.05-0.8c-0.22-0.12-0.44-0.18-0.68-0.15c-0.87,0.1-1.57-0.31-2.16-0.93c-0.49-0.51-0.96-1.06-1.34-1.67 c-0.3-0.48-0.46-1.02-0.5-1.61c-0.02-0.37,0.15-0.68,0.33-0.94c0.49-0.74,1.12-1.33,1.86-1.75c0.18-0.11,0.4-0.16,0.6-0.21 c0.53-0.12,1.07-0.24,1.61-0.31c0.32-0.04,0.64-0.01,0.96,0.02c0.35,0.04,0.7,0.12,1.06,0.16c0.07,0.01,0.19-0.03,0.23-0.09 c0.2-0.3,0.48-0.32,0.77-0.31c0.67,0.01,1.29,0.23,1.91,0.48c0.54,0.23,1.05,0.53,1.51,0.92c0.26,0.22,0.31,0.77,0.17,1.08 c-0.23,0.51-0.64,0.68-1.07,0.83c-0.38,0.13-0.77,0.27-1.16,0.33c-0.58,0.08-1.17,0.03-1.67-0.35c-0.33-0.25-0.67-0.35-1.05-0.38 c-1.05-0.1-2.07,0.01-3.05,0.41c-0.26,0.11-0.51,0.25-0.74,0.41c-0.19,0.13-0.18,0.27-0.02,0.44c0.42,0.45,0.93,0.75,1.45,1.03 c0.43,0.23,0.85,0.49,1.3,0.66c0.5,0.18,1.03,0.31,1.56,0.39c0.82,0.13,1.66,0.2,2.49,0.31c0.94,0.12,1.88,0.26,2.79,0.57 c0.39,0.13,0.78,0.27,1.18,0.4c0.07,0.02,0.15,0.03,0.27,0.05c0.02-0.43-0.05-0.82-0.12-1.25c-0.08,0.06-0.14,0.1-0.21,0.14 c-0.19-0.08-0.21-0.26-0.22-0.45c-0.01-0.59,0-1.17,0-1.76c0-1.27-0.01-2.54-0.14-3.81c-0.09-0.92-0.12-1.86-0.21-2.78 c-0.17-1.87-0.15-3.74-0.2-5.62c-0.03-1.14-0.06-2.27-0.09-3.41c-0.02-0.79-0.04-1.59-0.05-2.38c-0.01-0.23,0.1-0.34,0.31-0.3 C31.4,12.24,31.49,12.32,31.57,12.36 M28.36,28.06c-0.28-0.24-1.33-0.6-1.74-0.6c-0.05,0.28,0.07,0.62-0.24,0.82 C26.95,28.55,28.02,28.41,28.36,28.06 M25.17,28.13c-0.42-0.22-1.15-0.17-1.43,0.1c0.45,0.1,0.88,0.2,1.32,0.3 C25.11,28.38,25.14,28.25,25.17,28.13"/>
    </g>
    <g>
      <path class="st1" d="M26.72,41.76c-0.05-0.15-0.09-0.32-0.16-0.46c-0.34-0.69-0.3-1.38-0.03-2.09c0.27-0.69,0.69-1.25,1.21-1.73 c0.13-0.12,0.27-0.22,0.43-0.29c0.12-0.05,0.26-0.08,0.39-0.06c0.29,0.05,0.39,0.31,0.22,0.57c-0.14,0.2-0.31,0.38-0.48,0.56 c-0.39,0.43-0.74,0.88-0.97,1.44c-0.17,0.42-0.16,0.83,0.04,1.24c0.4,0.79,0.89,1.52,1.44,2.2c0.06,0.08,0.14,0.16,0.23,0.2 c0.79,0.35,1.58,0.69,2.37,1.03c0.18,0.08,0.37,0.14,0.59,0.23c-0.01-0.18,0-0.31-0.02-0.44c-0.03-0.28-0.05-0.55-0.08-0.83 c-0.05-0.5-0.1-0.99-0.14-1.49c-0.03-0.43-0.05-0.85-0.07-1.28c-0.04-0.96-0.06-1.93-0.09-2.89c0-0.06-0.01-0.12-0.01-0.18 c0-0.67,0.01-0.69,0.58-0.9c0.33-0.12,0.79,0.12,0.94,0.51c0.06,0.17,0.1,0.35,0.12,0.53c0.11,0.9,0.14,1.8,0.09,2.7 c-0.02,0.4,0.01,0.81,0,1.21c-0.02,0.63-0.06,1.27-0.1,1.9c-0.01,0.13-0.03,0.27-0.03,0.4c-0.01,0.27-0.05,0.5-0.35,0.58 c-0.15,0.04-0.26,0.18-0.29,0.38c0.42,0.21,0.83,0.44,1.27,0.61c0.43,0.17,0.75,0.56,1.12,0.7c0.15,0.25,0.25,0.46,0.38,0.65 c0.34,0.5,0.71,0.98,1.02,1.5c0.3,0.52,0.5,1.09,0.59,1.71c0.06,0.39-0.08,0.75-0.19,1.1c-0.03,0.08-0.08,0.15-0.09,0.23 c-0.1,0.78-0.54,1.33-1.05,1.82c-0.37,0.36-0.79,0.62-1.3,0.68c-0.25,0.03-0.5,0.11-0.75,0.16c-0.03,0.01-0.06-0.01-0.1-0.01 c-0.13-0.32-0.12-0.43,0.11-0.59c0.68-0.49,1.19-1.16,1.6-1.9c0.41-0.75,0.45-1.58,0.13-2.4c-0.28-0.71-0.69-1.29-1.32-1.69 c-0.43-0.27-0.9-0.48-1.25-0.89c-0.04-0.04-0.09-0.07-0.15-0.09c-0.33-0.11-0.66-0.2-0.98-0.31c-0.48-0.16-0.95-0.32-1.43-0.5 c-0.29-0.1-0.56-0.23-0.85-0.33c-0.7-0.24-1.35-0.62-1.98-1.03c-0.62-0.4-1.13-0.95-1.52-1.62c-0.3-0.5-0.6-1-0.77-1.58 c-0.24-0.83-0.28-1.68-0.06-2.53c0.09-0.36,0.14-0.75,0.39-1.04c0.13-0.15,0.26-0.31,0.42-0.42c0.46-0.29,0.93-0.57,1.41-0.83 c0.23-0.12,0.48-0.08,0.7,0.08c0.21,0.15,0.21,0.5,0,0.75c-0.14,0.17-0.32,0.3-0.48,0.45c-0.29,0.25-0.58,0.5-0.86,0.75 c-0.21,0.18-0.32,0.4-0.32,0.72c0,0.49-0.07,0.97-0.08,1.46c-0.02,0.48,0.13,0.92,0.41,1.29c0.03,0.04,0.07,0.06,0.11,0.09 C26.68,41.77,26.7,41.77,26.72,41.76"/>
    </g>
    <g>
      <path class="st1" d="M42.82,29.41c0.22,0.25,0.39,0.43,0.56,0.63c0.12,0.14,0.23,0.3,0.34,0.46c0.08,0.11,0.07,0.24-0.03,0.33 c-0.04,0.04-0.17,0.05-0.19,0.01c-0.43-0.59-1.05-0.8-1.65-1.03c-0.47-0.18-0.96-0.19-1.45-0.16c-0.08,0-0.18,0.04-0.24,0.1 c-0.3,0.34-0.69,0.53-1.09,0.69c-0.56,0.23-1.13,0.42-1.75,0.39c-0.44-0.02-0.85-0.18-1.25-0.35c-0.16-0.06-0.3-0.16-0.45-0.25 c-0.14-0.09-0.26-0.2-0.45-0.34c-0.24,0.02-0.37,0.4-0.65,0.46c-0.19-0.3-0.19-0.41-0.04-0.66c0.39-0.71,0.94-1.26,1.47-1.84 c0.51-0.56,1.04-1.06,1.69-1.41c0.62-0.35,1.23-0.37,1.82,0.11c0.13,0.1,0.25,0.21,0.37,0.31c0.35,0.28,0.38,0.5,0.15,0.9 c-0.01,0.03-0.02,0.06-0.04,0.14c0.08,0.01,0.17,0.05,0.21,0.01c0.31-0.25,0.65-0.21,1-0.17c0.51,0.06,1.02,0.11,1.52,0.17 c0.51,0.06,1,0.15,1.47,0.41c0.35,0.2,0.57,0.5,0.78,0.83c0.33,0.53,0.47,1.13,0.5,1.76c0,0.04,0,0.07,0.01,0.11 c0.16,0.92-0.24,1.58-0.85,2.12c-0.49,0.42-0.99,0.83-1.56,1.13c-0.15,0.08-0.31,0.14-0.47,0.19c-0.38,0.12-0.77,0.22-1.15,0.36 c-0.71,0.26-1.42,0.49-2.17,0.56c-0.2,0.02-0.39,0.1-0.58,0.11c-0.23,0.01-0.46-0.03-0.7-0.04c-0.11-0.01-0.22-0.01-0.33-0.01 c-0.23,0.01-0.3-0.09-0.24-0.34c0.04-0.18,0.16-0.28,0.29-0.38c0.58-0.45,1.22-0.8,1.88-1.1c0.8-0.36,1.6-0.73,2.4-1.11 c0.77-0.37,1.46-0.89,2.09-1.49c0.4-0.38,0.36-1-0.1-1.3c-0.28-0.18-0.55-0.38-0.9-0.34C42.99,29.37,42.94,29.38,42.82,29.41 M39.21,27.58c-0.18-0.14-0.38-0.13-0.55-0.07c-0.27,0.09-0.56,0.19-0.8,0.36c-0.54,0.39-1.06,0.83-1.59,1.25 c-0.07,0.06-0.13,0.12-0.21,0.2c0.14,0.12,0.26,0.22,0.4,0.11c0.14-0.11,0.26-0.26,0.39-0.39c0.11-0.11,0.2-0.23,0.32-0.32 c0.52-0.37,1.08-0.61,1.69-0.72C39.07,27.96,39.22,27.87,39.21,27.58"/>
    </g>
    <g>
      <path class="st1" d="M27.59,47.34c0.33-0.26,0.61-0.5,0.9-0.72c0.11-0.08,0.23-0.14,0.36-0.19c0.17-0.06,0.33-0.01,0.45,0.14 c0.25,0.32,0.3,0.6,0.09,1c-0.04,0.08-0.1,0.16-0.16,0.23c-0.43,0.45-0.68,1.01-0.96,1.57c-0.32,0.62-0.21,1.19,0.16,1.74 c0.51,0.77,1.19,1.31,1.95,1.75c0.4,0.23,0.82,0.42,1.28,0.64c0.03-0.21,0.07-0.39,0.07-0.56c0.02-0.77,0.03-1.54,0.05-2.31 c0.02-0.9,0.06-1.81,0.09-2.71c0.01-0.17,0.03-0.34,0.06-0.51c0.06-0.32,0.34-0.5,0.6-0.37c0.22,0.11,0.42,0.28,0.42,0.6 c-0.01,0.61,0,1.23-0.02,1.84c-0.03,1.36-0.06,2.72-0.09,4.08c-0.19,0.79,0.36,1.09,0.79,1.47c0.29,0.24,0.61,0.45,0.9,0.69 c0.46,0.38,0.71,0.91,0.87,1.49c0.1,0.36,0.16,0.74,0.23,1.11c0.1,0.5-0.02,0.96-0.3,1.34c-0.28,0.38-0.5,0.79-0.67,1.25 c-0.08,0.21-0.22,0.41-0.38,0.55c-0.23,0.2-0.42,0.47-0.72,0.56c-0.19,0.06-0.36,0.19-0.54,0.28c-0.12,0.05-0.24,0.17-0.36,0 c-0.12-0.17-0.11-0.43,0.02-0.57c0.58-0.61,0.86-1.39,1.04-2.22c0.15-0.68,0.15-1.38-0.09-2.06c-0.12-0.33-0.2-0.67-0.33-1 c-0.14-0.37-0.41-0.62-0.71-0.8c-0.57-0.35-1.16-0.68-1.76-0.97c-0.62-0.3-1.18-0.7-1.68-1.17c-0.45-0.42-0.9-0.85-1.29-1.33 c-0.42-0.53-0.8-1.11-0.99-1.81c-0.07-0.26-0.18-0.5-0.28-0.74c-0.25-0.61-0.32-1.23-0.12-1.88c0.18-0.59,0.4-1.14,0.7-1.66 c0.14-0.24,0.36-0.4,0.63-0.46c0.19-0.04,0.33,0.01,0.43,0.17c0.11,0.17,0.01,0.3-0.09,0.42C27.88,46.52,27.74,46.9,27.59,47.34"/>
    </g>
    <g>
      <path class="st1" d="M28.67,16.44c0.17-0.35,0.17-0.35,0.35-0.44c0.29,0.23,0.57,0.45,0.85,0.68c0.1,0.09,0.21,0.19,0.27,0.31 c0.12,0.24,0,0.45-0.25,0.43c-0.26-0.02-0.45-0.18-0.64-0.36c-0.03-0.03-0.06-0.08-0.09-0.12c-0.44,0.21-0.78-0.07-1.08-0.29 c-0.47-0.33-0.89-0.77-1.32-1.16c-0.67-0.61-1.25-1.31-1.77-2.07c-0.09-0.14-0.18-0.28-0.26-0.43c-0.13-0.24-0.23-0.5-0.51-0.6 c-0.09-0.03-0.15-0.14-0.22-0.22c-0.27-0.4-0.65-0.49-1.07-0.41c-0.47,0.09-0.87,0.35-1.3,0.56c-0.15,0.07-0.3,0.15-0.46,0.22 c-0.44,0.21-0.88,0.45-1.34,0.63c-0.86,0.35-1.74,0.67-2.61,0.98c-0.47,0.17-0.96,0.28-1.44,0.42c-0.44,0.13-0.88,0.26-1.31,0.39 c-0.62,0.18-1.24,0.37-1.86,0.56c-0.36,0.11-0.72,0.26-1.08,0.36c-0.48,0.14-0.97,0.25-1.45,0.38c-0.56,0.15-1.13,0.23-1.71,0.23 c-0.28,0-0.55-0.02-0.83-0.05c-0.64-0.08-1.29-0.15-1.93-0.28c-0.4-0.08-0.78-0.26-1.16-0.4c-0.5-0.19-0.99-0.42-1.53-0.45 c-0.12-0.01-0.18-0.09-0.17-0.22c0.02-0.14,0.09-0.17,0.22-0.14c0.24,0.06,0.48,0.12,0.72,0.15c0.35,0.04,0.71,0.04,1.06,0.07 c0.71,0.07,1.41,0.17,2.13,0.15c0.73-0.02,1.47,0.04,2.19-0.15c0.7-0.19,1.42-0.3,2.12-0.5c0.68-0.19,1.34-0.43,2.02-0.65 c0.32-0.1,0.64-0.19,0.96-0.3c0.1-0.03,0.19-0.11,0.28-0.16c0.04-0.02,0.09-0.05,0.11-0.04c0.19,0.11,0.35-0.02,0.52-0.06 c0.91-0.23,1.8-0.54,2.68-0.9c0.32-0.13,0.66-0.22,0.99-0.34c0.61-0.22,1.22-0.44,1.83-0.68c0.42-0.17,0.82-0.36,1.24-0.55 c0.72-0.33,1.43-0.32,2.12,0.13c0.12,0.08,0.21,0.13,0.36,0.03c0.16-0.12,0.33,0,0.44,0.14c0.14,0.19,0.28,0.38,0.4,0.58 c0.41,0.71,0.88,1.35,1.41,1.95c0.55,0.63,1.07,1.31,1.6,1.97C28.29,16.01,28.47,16.21,28.67,16.44"/>
    </g>
    <g>
      <path class="st1" d="M19.33,21.36c0.93,0.04,1.85,0.18,2.79,0.1c0.59-0.05,1.18-0.06,1.77-0.08c0.07,0,0.13,0,0.2-0.02 c0.25-0.07,0.28-0.06,0.34,0.16c0.07,0.26,0.01,0.37-0.19,0.46c-0.62,0.28-1.28,0.4-1.94,0.51c-0.74,0.12-1.5,0.14-2.25-0.02 c-0.3-0.06-0.61-0.06-0.91-0.19c-0.34-0.15-0.5-0.37-0.5-0.82c-0.23,0.04-0.45,0.07-0.67,0.11c-0.15,0.03-0.3,0.07-0.45,0.09 c-0.58,0.05-1.17,0.1-1.75-0.07c-0.32-0.09-0.64-0.2-0.93-0.36c-0.19-0.1-0.32-0.31-0.52-0.51c-0.15,0.05-0.36,0.12-0.58,0.17 c-0.52,0.12-1.05,0.21-1.58,0.14c-0.78-0.1-1.51-0.37-2.13-0.93c-0.09-0.08-0.2-0.16-0.29-0.24c-0.3-0.25-0.53-0.53-0.33-1.03 c-0.24-0.02-0.45-0.04-0.65-0.06c-0.44-0.05-0.88-0.09-1.32-0.17c-0.71-0.14-1.38-0.45-2.03-0.8c-0.26-0.14-0.51-0.3-0.75-0.47 c-0.09-0.06-0.15-0.17-0.21-0.28c-0.08-0.14-0.07-0.3,0.05-0.4c0.08-0.06,0.21-0.11,0.3-0.08c0.37,0.12,0.74,0.27,1.11,0.41 c0.12,0.05,0.24,0.09,0.37,0.14c0.47,0.15,0.93,0.34,1.4,0.44c0.5,0.11,1.01,0.13,1.52,0.18c0.18,0.02,0.35,0.01,0.53,0.01 c0.39,0.01,0.78,0.02,1.16,0.03c0.14,0,0.29,0.02,0.31,0.2c0.02,0.17-0.09,0.26-0.23,0.36c-0.37,0.27-0.82,0.3-1.25,0.49 c0.4,0.23,0.76,0.48,1.16,0.66c0.74,0.34,1.52,0.44,2.32,0.41c0.42-0.02,0.85-0.05,1.27-0.08c0.25-0.02,0.34,0.07,0.36,0.35 c0,0.06,0,0.12,0.01,0.2c0.07,0.04,0.13,0.09,0.2,0.11c0.84,0.21,1.68,0.29,2.55,0.16c0.61-0.09,1.24-0.07,1.86-0.13 c0.29-0.03,0.57-0.1,0.85-0.18c1.09-0.31,2.18-0.61,3.26-0.94c0.98-0.3,1.94-0.63,2.91-0.97c0.4-0.14,0.79-0.33,1.18-0.5 c0.34-0.14,0.54-0.03,0.69,0.33c0.06,0.16,0.01,0.26-0.05,0.38c-0.16,0.34-0.44,0.51-0.75,0.64c-0.57,0.23-1.14,0.46-1.72,0.67 c-0.57,0.2-1.14,0.38-1.71,0.57c-0.1,0.03-0.2,0.04-0.3,0.06c-0.81,0.15-1.62,0.27-2.44,0.3c-0.26,0.01-0.53,0.01-0.8,0.02 c-0.14,0.01-0.29,0.03-0.43,0.07c-0.28,0.1-0.56,0.22-0.84,0.34C19.32,21.31,19.32,21.34,19.33,21.36"/>
    </g>
    <g>
      <path class="st1" d="M41.33,23.08c-0.13-0.11-0.24-0.19-0.34-0.29c-0.11-0.11-0.14-0.25-0.08-0.41c0.06-0.16,0.19-0.16,0.31-0.16 c0.22,0.01,0.44,0.04,0.66,0.07c0.64,0.08,1.28,0.21,1.92,0.22c0.66,0.01,1.32-0.09,1.97-0.14c0.09-0.15,0.01-0.19-0.07-0.24 c-0.33-0.22-0.67-0.43-0.98-0.68c-0.24-0.18-0.45-0.39-0.67-0.61c-0.13-0.13-0.26-0.21-0.44-0.21c-0.24,0-0.49-0.01-0.73-0.04 c-0.37-0.04-0.75-0.1-1.12-0.17c-0.24-0.04-0.47-0.15-0.71-0.18c-0.49-0.07-0.94-0.24-1.41-0.39c-0.43-0.14-1.25-0.71-1.52-1.05 c-0.17-0.22-0.26-0.48-0.29-0.77c-0.01-0.11,0-0.22,0.04-0.32c0.12-0.34,0.35-0.41,0.64-0.24c0.37,0.22,0.73,0.46,1.12,0.64 c0.49,0.23,1,0.4,1.5,0.59c0.38,0.15,0.78,0.28,1.16,0.45c0.3,0.14,0.58,0.35,0.88,0.51c0.19,0.1,0.38,0.2,0.58,0.27 c0.47,0.18,0.89,0.45,1.31,0.72c0.55,0.35,1.1,0.7,1.74,0.83c0.44,0.09,0.88,0.16,1.31,0.24c0.15,0.03,0.26-0.03,0.4-0.11 c0.25-0.15,0.53-0.24,0.8-0.33c0.11-0.04,0.26-0.04,0.3,0.14c0.04,0.18,0.15,0.38,0,0.56c-0.14,0.16-0.34,0.26-0.44,0.47 c-0.03,0.05-0.14,0.07-0.21,0.08c-0.35,0.04-0.7,0.07-1.06,0.09c-0.16,0.01-0.3,0.03-0.41,0.18c-0.04,0.06-0.12,0.11-0.19,0.13 c-0.39,0.14-0.78,0.28-1.17,0.41c-0.69,0.23-1.4,0.2-2.1,0.16c-0.44-0.02-0.88-0.15-1.31-0.22c-0.1-0.02-0.2-0.02-0.3-0.02 c-0.11,0-0.19,0.04-0.24,0.15c-0.3,0.64-0.83,0.93-1.45,1.03c-0.38,0.06-0.76,0.12-1.16,0.06c-0.42-0.06-0.85-0.02-1.27-0.08 c-0.41-0.06-0.83-0.16-1.23-0.3c-0.54-0.19-1.09-0.38-1.6-0.68c-0.27-0.15-0.46-0.37-0.62-0.63c-0.05-0.08-0.07-0.21-0.07-0.31 c0-0.3,0.11-0.4,0.37-0.34c0.13,0.03,0.26,0.07,0.38,0.13c0.43,0.17,0.84,0.37,1.28,0.53c0.64,0.24,1.3,0.43,1.98,0.47 c0.5,0.03,1,0.08,1.49,0.07c0.27,0,0.55-0.09,0.82-0.15C41.18,23.23,41.23,23.16,41.33,23.08"/>
    </g>
    <g>
      <path class="st1" d="M31.36,73.17c0.04-0.13,0.08-0.26,0.14-0.39c0.3-0.67,0.63-1.32,0.92-2c0.28-0.64,0.5-1.3,0.69-1.98 c0.29-1.06,0.12-2.08-0.18-3.09c-0.23-0.8-0.72-1.36-1.3-1.85c-0.83-0.7-1.67-1.38-2.34-2.29c-0.38-0.52-0.76-1.07-0.91-1.73 c-0.25-1.13,0.01-2.13,0.74-2.97c0.21-0.24,0.44-0.44,0.68-0.64c0.3-0.26,0.48-0.28,0.69-0.11c0.21,0.16,0.31,0.53,0.2,0.83 c-0.05,0.16-0.14,0.31-0.24,0.44c-0.31,0.43-0.63,0.85-0.83,1.37c-0.19,0.51-0.2,1.01,0.04,1.51c0.26,0.56,0.66,0.97,1.1,1.36 c0.63,0.55,1.28,1.1,1.87,1.71c0.46,0.48,0.89,1.01,1.17,1.64c0.17,0.38,0.26,0.8,0.36,1.22c0.09,0.38,0.16,0.76,0.22,1.15 c0.13,0.88,0.07,1.73-0.3,2.53c-0.01,0.01-0.01,0.02-0.02,0.03c-0.14,0.7-0.58,1.21-0.95,1.75c-0.3,0.42-0.59,0.88-1.02,1.18 c-0.21,0.15-0.43,0.27-0.65,0.4C31.41,73.21,31.38,73.19,31.36,73.17"/>
    </g>
    <g>
      <path class="st1" d="M39.27,16.25c0.01-0.06,0.02-0.18,0.06-0.29c0.08-0.21,0.25-0.29,0.43-0.19c0.4,0.22,0.8,0.42,1.17,0.68 c0.89,0.63,1.83,1.16,2.84,1.5c0.83,0.28,1.65,0.6,2.48,0.88c0.46,0.15,0.93,0.26,1.39,0.39c0.04,0.01,0.09,0.01,0.13,0.03 c0.66,0.38,1.41,0.43,2.1,0.67c0.13,0.05,0.26,0.13,0.4,0.15c0.51,0.1,1.02,0.21,1.54,0.28c0.77,0.1,1.55,0.18,2.32,0.24 c0.43,0.04,0.86,0.02,1.3,0.02c0.11,0,0.23-0.04,0.28,0.11c0.06,0.15,0.04,0.29-0.08,0.4c-0.25,0.23-0.54,0.35-0.85,0.39 c-0.84,0.1-1.67,0.07-2.51-0.09c-0.18-0.03-0.38-0.02-0.56-0.04c-0.64-0.08-1.27-0.16-1.91-0.24c-0.24-0.03-0.48-0.02-0.72-0.06 c-0.54-0.08-1-0.33-1.3-0.86c-0.08-0.15-0.19-0.19-0.33-0.21c-0.45-0.05-0.9-0.1-1.36-0.16c-0.34-0.05-0.68-0.09-1.02-0.16 c-0.5-0.1-1-0.21-1.49-0.33c-0.15-0.03-0.29-0.09-0.44-0.14c-0.3-0.1-0.62-0.17-0.91-0.29c-0.21-0.09-0.41-0.24-0.61-0.37 c-0.36-0.23-0.72-0.47-1.08-0.72c-0.29-0.2-0.58-0.41-0.85-0.65C39.47,16.99,39.29,16.7,39.27,16.25"/>
    </g>
    <g>
      <path class="st1" d="M51.86,18.11c-0.01,0.16-0.02,0.26-0.03,0.39c-0.34,0.04-0.68-0.03-1.01-0.1c-0.65-0.15-1.3-0.3-1.95-0.45 c-0.4-0.09-0.81-0.14-1.21-0.23c-0.26-0.06-0.5-0.18-0.76-0.26c-0.44-0.15-0.88-0.3-1.32-0.45c-0.18-0.06-0.35-0.14-0.53-0.2 c-0.4-0.14-0.8-0.28-1.2-0.41c-0.08-0.03-0.17-0.05-0.25-0.08c-0.61-0.25-1.21-0.51-1.82-0.76c-0.1-0.04-0.22-0.03-0.32-0.08 c-0.33-0.2-0.57-0.5-0.69-0.9c-0.05-0.15-0.04-0.34-0.02-0.51c0.05-0.32,0.26-0.44,0.54-0.32c0.6,0.25,1.2,0.51,1.79,0.76 c0.74,0.31,1.47,0.63,2.21,0.93c0.91,0.37,1.82,0.74,2.73,1.09c0.94,0.37,1.89,0.72,2.83,1.09C51.2,17.74,51.53,17.94,51.86,18.11 "/>
    </g>
    <g>
      <path class="st1" d="M46.1,13.93c0.25-0.17,0.48-0.15,0.71-0.03c0.62,0.34,1.22,0.71,1.84,1.04c0.3,0.16,0.61,0.33,0.93,0.4 c0.87,0.21,1.66,0.62,2.49,0.96c0.4,0.17,0.81,0.32,1.23,0.47c0.3,0.11,0.6,0.21,0.9,0.28c0.97,0.24,1.94,0.42,2.93,0.43 c0.67,0,1.34,0,2,0c0.06,0,0.12,0.03,0.21,0.05c-0.05,0.1-0.08,0.19-0.13,0.23c-0.3,0.25-0.61,0.5-0.98,0.6 c-0.3,0.08-0.6,0.23-0.9,0.24c-0.56,0.03-1.13,0.01-1.69-0.03c-0.4-0.03-0.79-0.09-1.18-0.19c-0.46-0.12-0.92-0.27-1.37-0.43 c-0.68-0.24-1.32-0.56-1.96-0.91c-0.35-0.19-0.74-0.31-1.11-0.46c-0.51-0.2-1.04-0.32-1.52-0.61c-0.33-0.2-0.64-0.44-0.98-0.63 c-0.51-0.28-0.91-0.68-1.27-1.16C46.19,14.11,46.15,14.02,46.1,13.93"/>
    </g>
    <g>
      <path class="st1" d="M12.42,18.7c-0.11,0.1-0.18,0.15-0.26,0.23c0.01,0-0.02,0.01-0.02,0c-0.1-0.14-0.19-0.1-0.32-0.02 c-0.3,0.2-0.62,0.32-1.03,0.18c0.12-0.04,0.18-0.06,0.25-0.09c0.31-0.12,0.63-0.23,0.94-0.35c1.2-0.45,2.4-0.9,3.59-1.36 c1.33-0.52,2.65-1.06,3.97-1.61c1.03-0.43,2.05-0.88,3.07-1.33c0.32-0.14,0.62-0.33,0.94-0.49c0.17-0.09,0.35-0.16,0.55-0.08 c0.3,0.13,0.34,0.42,0.1,0.65c-0.4,0.4-0.85,0.7-1.33,0.97c-0.43,0.23-0.83,0.52-1.26,0.74c-0.53,0.26-1.09,0.48-1.63,0.71 c-0.42,0.17-0.83,0.36-1.25,0.51c-0.52,0.18-1.04,0.33-1.57,0.49c-0.53,0.16-1.06,0.33-1.6,0.47c-0.45,0.12-0.9,0.23-1.36,0.32 c-0.34,0.07-0.68,0.1-1.02,0.16c-0.2,0.04-0.39,0.11-0.58,0.16C12.44,18.99,12.39,18.91,12.42,18.7"/>
    </g>
    <g>
      <path class="st1" d="M42.73,11.46c0,0.23-0.13,0.29-0.26,0.31c-0.33,0.05-0.66,0.11-0.99,0.14c-0.28,0.03-0.57,0.05-0.85,0.07 c-0.16,0.01-0.27,0.09-0.35,0.23c-0.29,0.47-0.58,0.95-0.89,1.42c-0.42,0.63-0.93,1.17-1.49,1.66c-0.1,0.09-0.18,0.21-0.27,0.31 c-0.38,0.44-0.8,0.83-1.26,1.17c-0.37,0.27-0.76,0.51-1.14,0.75c-0.07,0.04-0.14,0.07-0.22,0.09c-0.41,0.13-0.45,0.11-0.66-0.3 c-0.02-0.03-0.04-0.06-0.05-0.08c-0.17-0.03-0.33-0.06-0.49-0.1c-0.03-0.01-0.05-0.07-0.11-0.15c0.1-0.07,0.18-0.18,0.26-0.18 c0.76-0.08,1.31-0.62,1.85-1.11c0.74-0.66,1.46-1.36,2.14-2.1c0.68-0.75,1.26-1.61,1.8-2.5c0.27-0.46,0.47-0.57,0.98-0.46 c0.29,0.06,0.59,0.14,0.88,0.21C42.03,10.95,42.37,11.24,42.73,11.46"/>
    </g>
    <g>
      <path class="st1" d="M25.22,15.91c0.01,0,0.05,0.01,0.08,0.01c0.34,0.09,0.44,0.24,0.35,0.63c-0.05,0.18-0.14,0.37-0.25,0.51 c-0.37,0.46-0.85,0.79-1.34,1.07c-0.86,0.48-1.75,0.84-2.72,0.98c-0.35,0.05-0.69,0.16-1.03,0.23c-0.16,0.03-0.33,0.04-0.49,0.07 c-1.01,0.24-2.04,0.33-3.07,0.4c-0.51,0.03-1.02,0.02-1.53,0.01c-0.11,0-0.22-0.06-0.33-0.09c0-0.2,0.09-0.25,0.2-0.29 c0.44-0.13,0.87-0.29,1.32-0.4c0.97-0.23,1.94-0.43,2.91-0.66c0.73-0.17,1.46-0.35,2.17-0.56c1.01-0.29,1.98-0.7,2.88-1.31 C24.65,16.31,24.93,16.11,25.22,15.91"/>
    </g>
    <g>
      <path class="st1" d="M28.89,67.62c-0.16-1.09,0.26-1.99,0.71-2.89c0.08-0.16,0.16-0.33,0.26-0.47c0.17-0.26,0.41-0.26,0.57,0.01 c0.08,0.14,0.15,0.33,0.13,0.48c-0.08,0.51-0.17,1.01-0.36,1.48c-0.32,0.77-0.33,1.57-0.08,2.36c0.15,0.47,0.36,0.92,0.55,1.38 c0.17,0.41,0.36,0.81,0.5,1.24c0.05,0.16,0.03,0.36-0.02,0.53c-0.05,0.17-0.23,0.16-0.33,0.01c-0.08-0.13-0.17-0.25-0.26-0.37 c-0.46-0.62-0.85-1.28-1.2-1.98C29.07,68.82,28.96,68.23,28.89,67.62"/>
    </g>
    <g>
      <path class="st1" d="M40.65,21.79c-0.09,0.02-0.18,0.06-0.28,0.07c-0.61,0.05-1.21,0.08-1.83,0.04c-0.56-0.05-1.1-0.14-1.64-0.31 c-0.5-0.15-1.01-0.29-1.43-0.67c-0.38-0.34-0.61-0.76-0.73-1.28c-0.01-0.03-0.01-0.05-0.02-0.07c-0.02-0.21,0.09-0.45,0.25-0.52 c0.18-0.08,0.34,0,0.45,0.15c0.22,0.3,0.49,0.5,0.8,0.64c0.41,0.18,0.83,0.35,1.25,0.51c0.81,0.29,1.63,0.57,2.45,0.83 c0.3,0.1,0.5,0.33,0.72,0.53C40.65,21.72,40.65,21.75,40.65,21.79"/>
    </g>
    <g>
      <path class="st1" d="M27.28,23.66c-0.58,0.06-1.17,0.14-1.75,0.16c-0.42,0.01-0.85-0.03-1.21-0.31c-0.27-0.21-0.44-0.49-0.44-0.86 c0-0.28,0.12-0.37,0.37-0.27c0.23,0.09,0.43,0.25,0.69,0.24c0.22-0.01,0.45-0.01,0.67-0.01c1.38,0.04,2.75-0.1,4.12-0.34 c0.16-0.03,0.33-0.05,0.49-0.08c0.21-0.04,0.34-0.01,0.41,0.14c0.07,0.16,0.03,0.38-0.12,0.5c-0.13,0.11-0.27,0.23-0.43,0.28 c-0.5,0.18-1,0.4-1.54,0.43c-0.42,0.02-0.84,0.11-1.25,0.17C27.28,23.69,27.28,23.67,27.28,23.66"/>
    </g>
    <g>
      <path class="st1" d="M59.89,17.47c0.11,0.14,0.04,0.3-0.04,0.42c-0.21,0.3-0.42,0.62-0.69,0.84c-0.43,0.37-0.88,0.75-1.44,0.89 c-0.38,0.1-0.75,0.21-1.13,0.3c-0.41,0.09-0.83,0.14-1.24,0.24c-0.36,0.09-0.72,0.09-1.09,0.05c-0.16-0.02-0.33-0.02-0.49-0.05 c-0.09-0.02-0.19-0.07-0.27-0.13c-0.19-0.13-0.19-0.27-0.02-0.43c0.2-0.19,0.46-0.24,0.71-0.29c0.6-0.11,1.2-0.19,1.8-0.32 c0.84-0.18,1.67-0.38,2.5-0.59c0.52-0.13,0.98-0.39,1.28-0.9c0.01-0.02,0.04-0.03,0.05-0.04C59.85,17.46,59.86,17.47,59.89,17.47"/>
    </g>
    <g>
      <path class="st1" d="M32.48,59.07c0.02,0.53,0.04,1.05,0.05,1.58c0,0.37-0.16,0.59-0.48,0.71c-0.24,0.09-0.49-0.09-0.51-0.39 c-0.05-0.78-0.11-1.56-0.13-2.34c-0.02-0.45,0.01-0.9,0.05-1.35c0.04-0.41,0.4-0.57,0.72-0.36c0.21,0.14,0.3,0.36,0.3,0.62 c0.01,0.37,0.01,0.73,0.01,1.1c0,0.15,0.01,0.29,0.01,0.44H32.48z"/>
    </g>
    <g>
      <path class="st1" d="M31.55,71.48c-0.18-0.32-0.15-0.67-0.18-1c-0.05-0.72-0.06-1.44-0.08-2.16c-0.03-0.85-0.06-1.71-0.07-2.56 c0-0.22,0.01-0.44,0.04-0.66c0.06-0.31,0.25-0.44,0.48-0.35c0.15,0.07,0.22,0.19,0.22,0.37c0.01,0.91,0.04,1.83,0.06,2.75 c0.03,1.1-0.1,2.19-0.21,3.28C31.79,71.3,31.75,71.44,31.55,71.48"/>
    </g>
    <g>
      <path class="st1" d="M25.21,21.98c0.15-0.27,0.34-0.42,0.55-0.53c0.51-0.27,1.02-0.54,1.54-0.8c0.52-0.27,1.05-0.53,1.57-0.8 c0.24-0.12,0.48-0.2,0.74-0.08c0.22,0.1,0.33,0.3,0.3,0.55c-0.02,0.21-0.12,0.29-0.36,0.35c-0.17,0.05-0.34,0.11-0.5,0.19 c-0.74,0.38-1.48,0.77-2.29,0.96c-0.24,0.05-0.47,0.12-0.71,0.2C25.78,22.11,25.52,22.06,25.21,21.98"/>
    </g>
    <g>
      <path class="st1" d="M42.36,12.1c0.24-0.18,0.47-0.17,0.69-0.05c0.71,0.38,1.41,0.76,2.12,1.14c0.11,0.06,0.22,0.12,0.33,0.18 c0.18,0.1,0.23,0.29,0.23,0.49c0,0.2-0.14,0.27-0.32,0.25c-0.64-0.07-1.2-0.43-1.77-0.71c-0.5-0.24-0.93-0.62-1.22-1.15 C42.4,12.22,42.39,12.17,42.36,12.1"/>
    </g>
    <g>
      <path class="st1" d="M31.49,78.11c-0.13-0.2-0.17-0.43-0.18-0.65c-0.05-0.95-0.1-1.91-0.15-2.86c0-0.05,0-0.1,0-0.15 c0-0.3,0.09-0.46,0.25-0.49c0.23-0.03,0.47,0.14,0.52,0.41c0.03,0.18,0.04,0.36,0.05,0.54c0.03,0.83-0.07,1.64-0.17,2.45 C31.78,77.65,31.71,77.9,31.49,78.11"/>
    </g>
  </g>
</svg>