<svg id="Logo_with_old_heart" data-name="Logo with old heart" xmlns="http://www.w3.org/2000/svg" viewBox="0 0 226.62 148.5"><defs><style>.cls-1{fill:#a16947;}.cls-2{fill:#52924d;}</style></defs><path class="cls-1" d="M110.48,90.69a52.69,52.69,0,0,1-7-6,27.73,27.73,0,0,1-3-3.62,11.07,11.07,0,0,1-1.94-4.54,5.54,5.54,0,0,1,.24-2.7,5.8,5.8,0,0,1,.61-1.22,4.07,4.07,0,0,1,1-1.05,4.42,4.42,0,0,1,2.65-.73,8.57,8.57,0,0,1,2.41.42,20.8,20.8,0,0,1,4.21,1.89c.65.39,1.3.78,1.92,1.22a12.17,12.17,0,0,1,1.86,1.48.69.69,0,0,1,0,1,.69.69,0,0,1-1,0l0,0a11.64,11.64,0,0,0-1.63-1.26A19.11,19.11,0,0,0,109,74.42a17.11,17.11,0,0,0-3.93-1.58c-1.31-.33-2.75-.36-3.49.28a1.72,1.72,0,0,0-.47.56,3.32,3.32,0,0,0-.32,2.47,8.89,8.89,0,0,0,1.83,3.39,22.91,22.91,0,0,0,3,3,42.06,42.06,0,0,0,7,4.8h0a2,2,0,0,1-1.93,3.51Z" transform="translate(-6.73 -6.15)"/><path class="cls-1" d="M116.2,87.3a41.66,41.66,0,0,0,7-4.8,22.29,22.29,0,0,0,3-3A8.75,8.75,0,0,0,128,76.15a3.41,3.41,0,0,0,0-1.68,4.09,4.09,0,0,0-.32-.79,2,2,0,0,0-.47-.56c-.74-.64-2.18-.61-3.5-.28a16.86,16.86,0,0,0-3.92,1.58A19.26,19.26,0,0,0,118,75.53a11.52,11.52,0,0,0-1.62,1.26l0,0a.69.69,0,1,1-1-1,12.12,12.12,0,0,1,1.85-1.48c.63-.44,1.27-.83,1.93-1.22a20.47,20.47,0,0,1,4.2-1.89,8.57,8.57,0,0,1,2.41-.42,4.42,4.42,0,0,1,2.65.73,3.91,3.91,0,0,1,1,1.05,5.39,5.39,0,0,1,.86,3.92,11.22,11.22,0,0,1-1.95,4.54,27.73,27.73,0,0,1-3,3.62,53.25,53.25,0,0,1-7,6A2,2,0,1,1,116,87.43l.19-.12Z" transform="translate(-6.73 -6.15)"/><ellipse class="cls-1" cx="135.87" cy="20.46" rx="10.36" ry="16.81" transform="translate(14.25 89.67) rotate(-41.83)"/><ellipse class="cls-1" cx="92.47" cy="20.46" rx="16.81" ry="10.36" transform="translate(8.83 69.57) rotate(-48.17)"/><path class="cls-1" d="M88.6,42.34c-3.24-4.86-10.92-6.78-15.37-5.83-1.93,1.23-2.58,5.84-2.58,9.93,0,15.73,11.27,45.54,38.77,47.47C90.87,86.23,79.74,66.65,88.6,42.34Z" transform="translate(-6.73 -6.15)"/><path class="cls-1" d="M139.83,42.34c3.24-4.86,10.91-6.78,15.37-5.83,1.93,1.23,2.58,5.84,2.58,9.93,0,15.73-11.27,45.54-38.77,47.47C137.56,86.23,148.69,66.65,139.83,42.34Z" transform="translate(-6.73 -6.15)"/><path class="cls-1" d="M160.21,49.89c.38,13.69-6.27,28.53-14.46,34.54,8.83,3.71,13.82,4.23,25.84-.64A245,245,0,0,1,160.21,49.89Z" transform="translate(-6.73 -6.15)"/><path class="cls-1" d="M68.22,49.89c-.38,13.69,6.27,28.53,14.46,34.54-8.83,3.71-13.82,4.23-25.84-.64A246.3,246.3,0,0,0,68.22,49.89Z" transform="translate(-6.73 -6.15)"/><path class="cls-2" d="M7,104.13l4.06-.08c1.32,0,2.6,0,3.84,0a11.57,11.57,0,0,1,4.4.74,5.87,5.87,0,0,1,2.79,2.18,6.41,6.41,0,0,1,1,3.61,5.3,5.3,0,0,1-.6,2.5A5.41,5.41,0,0,1,20.79,115a4.64,4.64,0,0,1-2.31.9v-.56a5.3,5.3,0,0,1,2.78,1,6.74,6.74,0,0,1,2.12,2.34,6.41,6.41,0,0,1,.81,3.19,7.23,7.23,0,0,1-1,3.87,6.34,6.34,0,0,1-3,2.45,12.28,12.28,0,0,1-4.83.85c-1.44,0-2.84,0-4.21-.05L7,128.83l-.25-.25V104.39Zm4.52,21.35,1.95,0h1.72a5.19,5.19,0,0,0,2.09-.36,3.15,3.15,0,0,0,1.25-1,3.66,3.66,0,0,0,.62-1.27,5.07,5.07,0,0,0,.18-1.29,4.6,4.6,0,0,0-.37-1.76,3.54,3.54,0,0,0-1.3-1.55,4.58,4.58,0,0,0-2.6-.64H9.64v-3.52h5a4,4,0,0,0,2.21-.51A2.71,2.71,0,0,0,18,112.33a4.18,4.18,0,0,0,.3-1.54,4.13,4.13,0,0,0-.29-1.54A2.65,2.65,0,0,0,16.91,108a4.19,4.19,0,0,0-2.21-.48H13.18c-.61,0-1.17,0-1.68,0Z" transform="translate(-6.73 -6.15)"/><path class="cls-2" d="M26.39,113.08a5.17,5.17,0,0,1,.61-1.37,3.68,3.68,0,0,1,.94-1.08,4.4,4.4,0,0,1,3.23,1.82,7.76,7.76,0,0,1,1.27,4v12.35a10,10,0,0,1-1.11.13c-.41,0-.82.05-1.23.05s-.82,0-1.23-.05a11.05,11.05,0,0,1-1.13-.13v-12a5.59,5.59,0,0,0-.45-2.44A3.75,3.75,0,0,0,26.39,113.08Zm12.28-2.18a10.23,10.23,0,0,1-.29,2.16,7.78,7.78,0,0,1-.88,2.27,4.63,4.63,0,0,0-.84-.2l-.82-.09a3.44,3.44,0,0,0-1.53.34,4.18,4.18,0,0,0-1.18.93,6.42,6.42,0,0,0-.9,1.36,15.22,15.22,0,0,0-.69,1.64l-.59-.76a16.7,16.7,0,0,1,.37-2.78,9.41,9.41,0,0,1,.91-2.55,5.12,5.12,0,0,1,1.67-1.87,4.53,4.53,0,0,1,2.61-.7,7.51,7.51,0,0,1,1.13.07Z" transform="translate(-6.73 -6.15)"/><path class="cls-2" d="M55.74,119.83a12.5,12.5,0,0,1-.92,5,7.31,7.31,0,0,1-2.72,3.31,7.86,7.86,0,0,1-4.42,1.18,7.9,7.9,0,0,1-4.46-1.19,7.28,7.28,0,0,1-2.69-3.32,12.62,12.62,0,0,1-.9-4.94,12.36,12.36,0,0,1,.91-4.93,7.21,7.21,0,0,1,2.7-3.31,7.78,7.78,0,0,1,4.44-1.19,7.82,7.82,0,0,1,4.45,1.2,7.36,7.36,0,0,1,2.7,3.32A12.29,12.29,0,0,1,55.74,119.83Zm-11.27,0a16.47,16.47,0,0,0,.25,2.92,4.58,4.58,0,0,0,1,2.16,2.47,2.47,0,0,0,2,.82,2.5,2.5,0,0,0,2-.82,4.49,4.49,0,0,0,1-2.16,17.12,17.12,0,0,0,0-5.83,4.66,4.66,0,0,0-1-2.17,2.5,2.5,0,0,0-2-.82,2.47,2.47,0,0,0-2,.82,4.76,4.76,0,0,0-1,2.17A16.61,16.61,0,0,0,44.47,119.83Z" transform="translate(-6.73 -6.15)"/><path class="cls-2" d="M56.81,111.19a7.41,7.41,0,0,1,1.39-.44,6.6,6.6,0,0,1,1.29-.14,2.05,2.05,0,0,1,1.53.5,2.88,2.88,0,0,1,.68,1.47l1.37,6.62c.24,1.14.46,2.23.64,3.26s.33,1.88.42,2.54c0,.19.14.28.29.28l2.49-14.23a7.63,7.63,0,0,1,1.41-.18q.87-.06,1.32-.06c.33,0,.79,0,1.39.06a7,7,0,0,1,1.4.18l2.47,14c0,.19.14.28.29.28.16-.92.34-1.89.53-2.91s.39-2.08.62-3.17l1.76-8.3a7,7,0,0,1,.92-.13c.35,0,.67,0,1,0s.77,0,1.26.07a3.38,3.38,0,0,1,1.19.31l.15.27-4.29,17.42c-.46.06-1,.11-1.68.14s-1.26,0-1.81,0a4.62,4.62,0,0,1-2.1-.39,2.48,2.48,0,0,1-1-1.91l-.81-4.41c-.09-.61-.21-1.31-.34-2.09s-.27-1.6-.41-2.46-.28-1.72-.4-2.56h-.18c-.13.83-.27,1.67-.4,2.53s-.28,1.68-.43,2.46-.27,1.47-.38,2.07l-1.22,6.57c-.5.07-1.09.12-1.76.15s-1.3,0-1.88,0a3.78,3.78,0,0,1-2-.44,2.8,2.8,0,0,1-1.07-1.9Z" transform="translate(-6.73 -6.15)"/><path class="cls-2" d="M86.94,110.7a2.34,2.34,0,0,1,2,.9,4.21,4.21,0,0,1,.64,2.49v14.69a10.31,10.31,0,0,1-1.11.13c-.41,0-.82.05-1.23.05s-.81,0-1.23-.05a11.05,11.05,0,0,1-1.13-.13V110.94l.23-.24Zm12.83,13.92a10,10,0,0,0,.16,1.87,4.4,4.4,0,0,0,.6,1.55,4.36,4.36,0,0,1-1.3.72,4.72,4.72,0,0,1-1.64.29,2.3,2.3,0,0,1-2-.76,3.68,3.68,0,0,1-.56-2.2v-8.37a4.92,4.92,0,0,0-.38-2.21,1.55,1.55,0,0,0-1.49-.7,4.26,4.26,0,0,0-1.63.37,6.16,6.16,0,0,0-1.71,1.09,6.46,6.46,0,0,0-1.39,1.85v-4.28a13.54,13.54,0,0,1,2.84-2.28,6.61,6.61,0,0,1,3.55-1,4.58,4.58,0,0,1,2.76.8,4.65,4.65,0,0,1,1.62,2.19,9,9,0,0,1,.53,3.18Z" transform="translate(-6.73 -6.15)"/><path class="cls-2" d="M117.88,128.78a9.84,9.84,0,0,1-1.23.14c-.42,0-.8,0-1.15,0s-.76,0-1.2,0a9.51,9.51,0,0,1-1.26-.14V104.4l.25-.21h4.55V106c0,1,0,2,0,2.93s0,1.94,0,2.86Zm10.24-24.59a5.17,5.17,0,0,1,.18.92,8.08,8.08,0,0,1,0,1,2.08,2.08,0,0,1-.65,1.71,3.13,3.13,0,0,1-2,.52h-4.9c-.94,0-1.81,0-2.61,0l-2.32,0v-4Zm-2.05,10.29a7.61,7.61,0,0,1,.19,1c0,.39.06.71.06,1a9.78,9.78,0,0,1-.06,1,8.11,8.11,0,0,1-.19,1H119l-1.51,0-1.41,0v-3.87l1.41,0,1.51,0Z" transform="translate(-6.73 -6.15)"/><path class="cls-2" d="M132.64,121.34v-3.29h7.73v-.45a5.68,5.68,0,0,0-.3-1.89,3,3,0,0,0-.94-1.39,2.66,2.66,0,0,0-1.71-.52,2.4,2.4,0,0,0-2.28,1.3,8,8,0,0,0-.71,3.78v1.42a11.55,11.55,0,0,0,.28,2.66,3.49,3.49,0,0,0,1.08,1.92,3.42,3.42,0,0,0,2.33.71,9.17,9.17,0,0,0,2.51-.35,18,18,0,0,0,2.33-.87,4.17,4.17,0,0,1,.89,1.36,6.33,6.33,0,0,1,.46,1.52,10.63,10.63,0,0,1-3.18,1.49,13.28,13.28,0,0,1-3.75.54,8.21,8.21,0,0,1-3.75-.77,6.16,6.16,0,0,1-2.38-2.1,8.76,8.76,0,0,1-1.23-3,16.57,16.57,0,0,1-.36-3.48,13.54,13.54,0,0,1,.82-4.86,7.22,7.22,0,0,1,2.54-3.41,7.33,7.33,0,0,1,4.43-1.25,7.47,7.47,0,0,1,4,1,6.64,6.64,0,0,1,2.49,2.76,8.67,8.67,0,0,1,.86,3.88,16.91,16.91,0,0,1-.08,1.75,12.59,12.59,0,0,1-.3,1.54Z" transform="translate(-6.73 -6.15)"/><path class="cls-2" d="M146.79,113.08a5.17,5.17,0,0,1,.61-1.37,3.54,3.54,0,0,1,.94-1.08,4.44,4.44,0,0,1,3.23,1.82,7.85,7.85,0,0,1,1.27,4v12.35a10.63,10.63,0,0,1-1.11.13c-.41,0-.83.05-1.23.05s-.82,0-1.24-.05a10.84,10.84,0,0,1-1.12-.13v-12a5.59,5.59,0,0,0-.45-2.44A3.75,3.75,0,0,0,146.79,113.08Zm12.28-2.18a10.23,10.23,0,0,1-.29,2.16,7.52,7.52,0,0,1-.89,2.27,4.35,4.35,0,0,0-.83-.2l-.82-.09a3.38,3.38,0,0,0-1.53.34,3.92,3.92,0,0,0-1.18.93,6.42,6.42,0,0,0-.9,1.36,13.44,13.44,0,0,0-.69,1.64l-.6-.76a17.82,17.82,0,0,1,.37-2.78,9.77,9.77,0,0,1,.92-2.55,5.1,5.1,0,0,1,1.66-1.87,4.59,4.59,0,0,1,2.62-.7,7.6,7.6,0,0,1,1.13.07Z" transform="translate(-6.73 -6.15)"/><path class="cls-2" d="M172.18,110.87a7,7,0,0,1,0,3.4l-6.32-.11-5.38.11a8.12,8.12,0,0,1,0-3.4L166,111Zm-9-2.54a3.48,3.48,0,0,1,.56-2.23,2.45,2.45,0,0,1,2-.67h1.8l.25.25v18a1.85,1.85,0,0,0,.35,1.19,1.46,1.46,0,0,0,1.2.43h2.23a6.92,6.92,0,0,1,.38,2.29,5,5,0,0,1,0,.53,3.42,3.42,0,0,1-.08.51c-.64.09-1.34.16-2.12.22s-1.52.09-2.24.09a4.38,4.38,0,0,1-3.21-1.07,4.54,4.54,0,0,1-1.07-3.31Z" transform="translate(-6.73 -6.15)"/><path class="cls-2" d="M181.28,128.78a11.18,11.18,0,0,1-1.12.13c-.41,0-.82.05-1.22.05s-.82,0-1.24-.05-.79-.07-1.14-.13V116.25a2.62,2.62,0,0,0-.35-1.46,1.41,1.41,0,0,0-1.27-.52h-.49a6.65,6.65,0,0,1-.19-1.62,8.19,8.19,0,0,1,0-.85,6.45,6.45,0,0,1,.15-.86c.51-.06,1-.1,1.51-.13l1.25,0h.63a3.25,3.25,0,0,1,2.51,1,3.92,3.92,0,0,1,.93,2.76ZM175.46,106a4.56,4.56,0,0,1,.38-1.87,3.68,3.68,0,0,1,1-.35,6.44,6.44,0,0,1,1.29-.14,7,7,0,0,1,1.31.14,3,3,0,0,1,1,.35,4.52,4.52,0,0,1,.28.92,4.8,4.8,0,0,1,.1,1,4.5,4.5,0,0,1-.38,1.85,3,3,0,0,1-1,.36,6.27,6.27,0,0,1-1.31.15,6.62,6.62,0,0,1-1.3-.14,3.12,3.12,0,0,1-1-.37A4.5,4.5,0,0,1,175.46,106Z" transform="translate(-6.73 -6.15)"/><path class="cls-2" d="M192.49,125.3a6.67,6.67,0,0,1,.38,2.29,4.88,4.88,0,0,1,0,.53,1.93,1.93,0,0,1-.09.51c-.48.09-1,.16-1.66.22s-1.24.09-1.83.09a4,4,0,0,1-3.07-1.07,4.86,4.86,0,0,1-1-3.31v-22l.25-.23h1.82a2.52,2.52,0,0,1,2,.65,3.53,3.53,0,0,1,.56,2.25v18.45a1.84,1.84,0,0,0,.35,1.23,1.4,1.4,0,0,0,1.14.42Z" transform="translate(-6.73 -6.15)"/><path class="cls-2" d="M200.72,128.78a11.18,11.18,0,0,1-1.12.13c-.4,0-.81.05-1.22.05s-.82,0-1.23-.05-.8-.07-1.15-.13V116.25a2.54,2.54,0,0,0-.35-1.46,1.4,1.4,0,0,0-1.27-.52h-.48a6.66,6.66,0,0,1-.2-1.62,6.15,6.15,0,0,1,.05-.85,5.17,5.17,0,0,1,.15-.86c.5-.06,1-.1,1.5-.13l1.25,0h.63a3.24,3.24,0,0,1,2.51,1,3.92,3.92,0,0,1,.93,2.76ZM194.91,106a4.56,4.56,0,0,1,.37-1.87,3.75,3.75,0,0,1,1.06-.35,6.35,6.35,0,0,1,1.28-.14,6.88,6.88,0,0,1,1.31.14,2.91,2.91,0,0,1,1,.35,4,4,0,0,1,.28.92,4.8,4.8,0,0,1,.1,1,4.35,4.35,0,0,1-.38,1.85,2.89,2.89,0,0,1-1,.36,6.2,6.2,0,0,1-1.31.15,6.44,6.44,0,0,1-1.29-.14,3.19,3.19,0,0,1-1.05-.37A4.5,4.5,0,0,1,194.91,106Z" transform="translate(-6.73 -6.15)"/><path class="cls-2" d="M214.67,110.87a6.68,6.68,0,0,1,0,3.4l-6.31-.11-5.39.11a8.12,8.12,0,0,1,0-3.4l5.49.09Zm-8.94-2.54a3.42,3.42,0,0,1,.56-2.23,2.44,2.44,0,0,1,2-.67h1.81l.25.25v18a1.8,1.8,0,0,0,.35,1.19,1.45,1.45,0,0,0,1.2.43h2.23a6.92,6.92,0,0,1,.37,2.29,4.88,4.88,0,0,1,0,.53c0,.19,0,.36-.08.51-.64.09-1.34.16-2.12.22s-1.52.09-2.24.09a4.36,4.36,0,0,1-3.21-1.07,4.5,4.5,0,0,1-1.07-3.31Z" transform="translate(-6.73 -6.15)"/><path class="cls-2" d="M228.76,128.25a24.19,24.19,0,0,1-1.69,4.48,7.16,7.16,0,0,1-2.56,2.89,7.73,7.73,0,0,1-4.2,1,12,12,0,0,1-2.12-.21,10.26,10.26,0,0,1-1.8-.44,4.58,4.58,0,0,1,.21-1.81,4,4,0,0,1,.76-1.55,12.59,12.59,0,0,0,1.32.33,8.4,8.4,0,0,0,1.65.17,3.37,3.37,0,0,0,1.79-.45,3.73,3.73,0,0,0,1.26-1.27,8.2,8.2,0,0,0,.86-1.93l.12-.49a4.52,4.52,0,0,1-2.12-.47,2.46,2.46,0,0,1-1.15-1.63l-4.47-15.63a8.18,8.18,0,0,1,1.53-.48,6.8,6.8,0,0,1,1.37-.17,2.33,2.33,0,0,1,1.42.43,2.81,2.81,0,0,1,.89,1.61l2,7.59c.14.47.28,1,.41,1.63s.26,1.23.37,1.82.21,1.11.28,1.54a.29.29,0,0,0,.32.25l3.53-14.58a7,7,0,0,1,.92-.13c.35,0,.68,0,1,0s.82,0,1.24.06a5.84,5.84,0,0,1,1.24.27l.17.3Z" transform="translate(-6.73 -6.15)"/><path class="cls-1" d="M50.69,148.74a3.32,3.32,0,0,0-1.59-.39,2.3,2.3,0,0,0-2.44,2.32A2.34,2.34,0,0,0,49.19,153a3.48,3.48,0,0,0,1.59-.33l-.15,1.62a4.16,4.16,0,0,1-1.74.28,3.94,3.94,0,1,1,0-7.88,4.4,4.4,0,0,1,2.14.47Z" transform="translate(-6.73 -6.15)"/><path class="cls-1" d="M56.78,154.66a4,4,0,1,1,4.12-4A4,4,0,0,1,56.78,154.66Zm0-6.36A2.36,2.36,0,1,0,59,150.66,2.27,2.27,0,0,0,56.78,148.3Z" transform="translate(-6.73 -6.15)"/><path class="cls-1" d="M69.35,154.56l-3-3.29c-.5-.54-1-1.16-1.46-1.67h0c0,.54,0,1.11,0,1.6v3.27H63.11v-7.66h1.5l2.64,2.87c.37.41.92,1,1.27,1.46h0c0-.47,0-.95,0-1.43v-2.89h1.79v7.74Z" transform="translate(-6.73 -6.15)"/><path class="cls-1" d="M78.4,148.74a3.32,3.32,0,0,0-1.59-.39,2.3,2.3,0,0,0-2.44,2.32A2.33,2.33,0,0,0,76.9,153a3.48,3.48,0,0,0,1.59-.33l-.15,1.62a4.16,4.16,0,0,1-1.74.28,3.94,3.94,0,1,1,0-7.88,4.43,4.43,0,0,1,2.14.47Z" transform="translate(-6.73 -6.15)"/><path class="cls-1" d="M81,154.48v-7.66h4.39v1.53H82.78v1.51h2.11v1.56H82.78V153H85.7v1.53Z" transform="translate(-6.73 -6.15)"/><path class="cls-1" d="M87.72,154.48v-7.66h1.86v7.66Z" transform="translate(-6.73 -6.15)"/><path class="cls-1" d="M96,154.52H94.43l-2.8-7.7h1.91l1.2,3.37c.18.51.36,1.13.5,1.71h0c.14-.57.32-1.19.5-1.71l1.2-3.37h1.75Z" transform="translate(-6.73 -6.15)"/><path class="cls-1" d="M100.79,154.48v-7.66h1.86v7.66Z" transform="translate(-6.73 -6.15)"/><path class="cls-1" d="M111.44,154.56l-3-3.29c-.49-.54-1-1.16-1.45-1.67h0c0,.54,0,1.11,0,1.6v3.27h-1.78v-7.66h1.5l2.63,2.87c.38.41.93,1,1.27,1.46h0c0-.47,0-.95,0-1.43v-2.89h1.8v7.74Z" transform="translate(-6.73 -6.15)"/><path class="cls-1" d="M118.84,154.66a4,4,0,1,1,0-8,4.61,4.61,0,0,1,2.48.64l-.35,1.53a3.62,3.62,0,0,0-1.94-.54,2.41,2.41,0,0,0-2.55,2.45,2.35,2.35,0,0,0,2.48,2.37,2.06,2.06,0,0,0,1-.22v-1.21h-1.33v-1.43h3v3.64A4.44,4.44,0,0,1,118.84,154.66Z" transform="translate(-6.73 -6.15)"/><path class="cls-1" d="M135,154.48l-.25-2.82c0-.42-.07-.93-.07-1.42h0c-.18.48-.44,1-.65,1.44l-1.44,2.82h-.74l-1.47-2.82a14.62,14.62,0,0,1-.65-1.43h0c0,.5,0,1-.06,1.41l-.24,2.82h-1.73l.66-7.66h1.54l1.67,3.22c.23.47.56,1.13.76,1.63h0c.19-.5.49-1.13.74-1.63l1.65-3.22h1.44l.67,7.66Z" transform="translate(-6.73 -6.15)"/><path class="cls-1" d="M139.18,154.48v-7.66H141v7.66Z" transform="translate(-6.73 -6.15)"/><path class="cls-1" d="M147.92,154.48l-2-3h-.49v3h-1.79v-7.66h2.8a2.33,2.33,0,0,1,2.47,2.32,2.12,2.12,0,0,1-1.18,1.92l2.44,3.42Zm-1.81-6.16h-.73V150h.73a.87.87,0,0,0,1-.85A.88.88,0,0,0,146.11,148.32Z" transform="translate(-6.73 -6.15)"/><path class="cls-1" d="M156.54,154.48l-.64-1.73h-2.43l-.64,1.73h-1.75l3-7.72h1.29l3,7.72Zm-1.62-4.6a7.2,7.2,0,0,1-.23-.7h0a6.5,6.5,0,0,1-.22.7l-.51,1.42h1.5Z" transform="translate(-6.73 -6.15)"/><path class="cls-1" d="M165.62,148.74a3.31,3.31,0,0,0-1.58-.39,2.3,2.3,0,0,0-2.45,2.32,2.34,2.34,0,0,0,2.53,2.34,3.52,3.52,0,0,0,1.6-.33l-.16,1.62a4.16,4.16,0,0,1-1.74.28,3.94,3.94,0,1,1,0-7.88,4.48,4.48,0,0,1,2.15.47Z" transform="translate(-6.73 -6.15)"/><path class="cls-1" d="M168.18,154.48v-7.66H170V153h2.88v1.53Z" transform="translate(-6.73 -6.15)"/><path class="cls-1" d="M174.83,154.48v-7.66h4.39v1.53h-2.57v1.51h2.11v1.56h-2.11V153h2.93v1.53Z" transform="translate(-6.73 -6.15)"/><path class="cls-1" d="M183.59,154.58a4.56,4.56,0,0,1-2.15-.52l-.18-1.74a4.08,4.08,0,0,0,2.21.73c.66,0,1.08-.3,1.08-.77s-.28-.69-1-.89c-1.49-.4-2.19-1.23-2.19-2.4a2.33,2.33,0,0,1,2.6-2.29,4.17,4.17,0,0,1,1.92.44l-.33,1.5a3.36,3.36,0,0,0-1.46-.4c-.64,0-.94.29-.94.66s.32.59.91.75c1.46.41,2.34,1.17,2.34,2.52S185.45,154.58,183.59,154.58Z" transform="translate(-6.73 -6.15)"/><path class="cls-1" d="M189.05,147.39V149h-.63v-1.66h-.58v-.56h1.81v.57Zm2.78,1.65-.08-1-.51,1H191l-.49-1-.07,1h-.61l.18-2.22h.49l.64,1.25.62-1.25h.52l.16,2.22Z" transform="translate(-6.73 -6.15)"/><path class="cls-2" d="M203,138.19H35.42a.5.5,0,0,1,0-1H203a.5.5,0,0,1,0,1Z" transform="translate(-6.73 -6.15)"/></svg>