<?xml version="1.0" encoding="UTF-8"?>
<svg width="261px" height="54px" viewBox="0 0 261 54" version="1.1" xmlns="http://www.w3.org/2000/svg" xmlns:xlink="http://www.w3.org/1999/xlink">
    <title>Asset 3</title>
    <defs>
        <linearGradient x1="70.8610393%" y1="27.7117259%" x2="29.1509074%" y2="87.2856213%" id="linearGradient-1">
            <stop stop-color="#4314DE" offset="0%"></stop>
            <stop stop-color="#6814C1" offset="9%"></stop>
            <stop stop-color="#96139D" offset="21%"></stop>
            <stop stop-color="#BC137F" offset="33%"></stop>
            <stop stop-color="#D91268" offset="45%"></stop>
            <stop stop-color="#EE1257" offset="57%"></stop>
            <stop stop-color="#FB124D" offset="69%"></stop>
            <stop stop-color="#FF124A" offset="80%"></stop>
        </linearGradient>
    </defs>
    <g id="Symbols" stroke="none" stroke-width="1" fill="none" fill-rule="evenodd">
        <g id="Header-Dark" transform="translate(-79.000000, -45.000000)" fill-rule="nonzero">
            <g id="Asset-3" transform="translate(79.000000, 45.000000)">
                <g id="Asset-2" transform="translate(0.000000, -0.000000)">
                    <path d="M32.769171,28.3492847 C32.1585114,27.2915911 32.3343465,25.9556161 33.1978871,25.0919502 C34.0614276,24.2282843 35.3973771,24.0522553 36.4551594,24.6627614 C37.5129416,25.2732676 38.0288321,26.5180986 37.7129883,27.6978713 C37.3971445,28.877644 36.328312,29.6982196 35.1069926,29.6985753 C34.1424462,29.6994414 33.2509359,29.1849002 32.769171,28.3492847 L32.769171,28.3492847 Z M35.1069926,32.3999938 C33.8840828,32.3996065 32.8134395,33.2207976 32.4968257,34.4020106 C32.180212,35.5832237 32.6966068,36.8298064 33.7557665,37.4411076 C34.8149263,38.0524088 36.1526448,37.87594 37.0170473,37.010887 C37.8814498,36.1458339 38.0569121,34.807983 37.4448143,33.7492834 C36.9621911,32.9145264 36.0712252,32.4002994 35.1069926,32.3999938 L35.1069926,32.3999938 Z M27.0084148,21.5886355 C27.7248466,21.5893905 28.4121113,21.3049295 28.9184388,20.798069 C29.4247664,20.2912085 29.7085042,19.6036449 29.7069999,18.8872143 L29.7069999,10.7943177 C29.6408003,9.35204055 28.4522102,8.21674993 27.0084148,8.21674993 C25.5646195,8.21674993 24.3760294,9.35204055 24.3098358,10.7943177 L24.3098358,18.8985768 C24.317636,20.3843354 25.5226389,21.5855331 27.0084148,21.5886355 Z M27.0084148,29.6872118 C28.2297342,29.6868572 29.2985667,28.8662816 29.6144105,27.6865089 C29.9302543,26.5067361 29.4143638,25.2619051 28.3565816,24.651399 C27.2987993,24.0408928 25.9628498,24.2169219 25.0993093,25.0805877 C24.2357687,25.9442536 24.0599335,27.2802286 24.6705932,28.3379223 C25.1503239,29.1770539 26.0418351,29.6959286 27.0084148,29.6985742 L27.0084148,29.6872118 Z M27.0084148,37.7886302 C28.2313246,37.7890177 29.301968,36.9678266 29.6185817,35.7866135 C29.9351955,34.6054005 29.4188007,33.3588178 28.359641,32.7475166 C27.3004812,32.1362154 25.9627627,32.3126841 25.0983602,33.1777372 C24.2339577,34.0427902 24.0584954,35.3806411 24.6705932,36.4393407 C25.1503239,37.2784723 26.0418351,37.797347 27.0084148,37.7999927 L27.0084148,37.7886302 Z M27.0084148,48.5829465 C25.7870955,48.5833011 24.718263,49.4038767 24.4024192,50.5836494 C24.0865753,51.7634221 24.6024659,53.0082531 25.6602481,53.6187593 C26.7180304,54.2292654 28.0539798,54.0532364 28.9175204,53.1895705 C29.781061,52.3259047 29.9568961,50.9899297 29.3462365,49.932236 C28.8597284,49.1036067 27.969301,48.5961821 27.0084148,48.5999901 L27.0084148,48.5829465 Z M18.9069964,7.30585035e-07 C17.6843509,0.000899574125 16.6147333,0.822867943 16.2991191,2.00407519 C15.983505,3.18528243 16.5005883,4.43121133 17.5598404,5.04182391 C18.6190926,5.65243649 19.9564041,5.4754852 20.8203928,4.61039194 C21.6843815,3.74529868 21.8596241,2.40776214 21.2476587,1.349291 C20.7645277,0.513655183 19.8722437,-0.000707573261 18.9069964,7.30585035e-07 Z M18.9069964,8.09857927 C17.684503,8.09873528 16.6144801,8.91985357 16.2980093,10.1006738 C15.9815386,11.2814941 16.4975068,12.5276727 17.5560706,13.1391732 C18.6146345,13.7506736 19.9519252,13.575067 20.8167245,12.7109996 C21.6815238,11.8469322 21.8582627,10.5097906 21.2476587,9.45070941 C20.7648207,8.61440917 19.8726726,8.09904207 18.9069964,8.09857927 Z M18.9069964,16.1999977 C17.6843509,16.2008958 16.6147333,17.0228642 16.2991191,18.2040714 C15.983505,19.3852787 16.5005883,20.6312076 17.5598404,21.2418201 C18.6190926,21.8524327 19.9564041,21.6754814 20.8203928,20.8103882 C21.6843815,19.9452949 21.8596241,18.6077584 21.2476587,17.5492872 C20.7666972,16.7103707 19.874004,16.192522 18.9069964,16.1914759 L18.9069964,16.1999977 Z M18.9069964,24.2985755 C17.684503,24.2987315 16.6144801,25.1198498 16.2980093,26.3006701 C15.9815386,27.4814903 16.4975068,28.7276689 17.5560706,29.3391694 C18.6146345,29.9506699 19.9519252,29.7750632 20.8167245,28.9109958 C21.6815238,28.0469284 21.8582627,26.7097869 21.2476587,25.6507056 C20.7648207,24.8144054 19.8726726,24.2990383 18.9069964,24.2985755 L18.9069964,24.2985755 Z M18.9069964,32.3999939 L2.70700019,32.3999939 C1.26472302,32.4661875 0.129432398,33.6547776 0.129432398,35.098573 C0.129432398,36.5423683 1.26472302,37.7309584 2.70700019,37.797152 L18.8984746,37.797152 C19.8921231,37.8427558 20.8304449,37.3386161 21.3409027,36.4848891 C21.8513606,35.6311621 21.8513606,34.5659839 21.3409027,33.7122569 C20.8304449,32.8585299 19.8921231,32.3543902 18.8984746,32.3999939 L18.9069964,32.3999939 Z M18.9069964,40.498571 C17.684503,40.4987277 16.6144801,41.319846 16.2980093,42.5006663 C15.9815386,43.6814866 16.4975068,44.9276651 17.5560706,45.5391656 C18.6146345,46.1506661 19.9519252,45.9750594 20.8167245,45.1109921 C21.6815238,44.2469247 21.8582627,42.9097831 21.2476587,41.8507019 C20.7656803,41.0135427 19.8729872,40.4978608 18.9069964,40.498571 Z M18.9069964,48.5999901 L10.8027374,48.5999901 C9.36046022,48.6661838 8.2251696,49.8547738 8.2251696,51.2985692 C8.2251696,52.7423646 9.36046022,53.9309546 10.8027374,53.9971483 L18.9069964,53.9971483 C19.9006449,54.042752 20.8389667,53.5386123 21.3494246,52.6848853 C21.8598824,51.8311583 21.8598824,50.7659801 21.3494246,49.9122531 C20.8389667,49.0585261 19.9006449,48.5543864 18.9069964,48.5999901 L18.9069964,48.5999901 Z M10.8027374,13.4985781 C12.0240567,13.4982234 13.0928893,12.6776478 13.4087331,11.4978751 C13.7245769,10.3181024 13.2086864,9.07327135 12.1509041,8.4627652 C11.0931219,7.85225905 9.75717239,8.02828809 8.89363183,8.89195395 C8.03009128,9.75561982 7.8542561,11.0915948 8.46491574,12.1492885 C8.94711042,12.9844743 9.838348,13.498858 10.8027374,13.4985781 Z M8.47059696,28.3492847 C9.21578899,29.640428 10.8665649,30.0830089 12.1577081,29.3378168 C13.4488514,28.5926248 13.8914323,26.9418489 13.1462403,25.6507056 L13.1462403,25.6507056 C12.0736284,24.0115282 12.0736284,21.8927249 13.1462403,20.2535475 L13.1462403,20.2535475 C13.8001857,19.1193594 13.5457064,17.6793976 12.5426314,16.8380487 C11.5395564,15.9966999 10.0772809,15.9966999 9.07420586,16.8380487 C8.07113085,17.6793976 7.81665155,19.1193594 8.47059696,20.2535475 C9.54320883,21.8927249 9.54320883,24.0115282 8.47059696,25.6507056 C7.98795554,26.4854916 7.98795554,27.5144987 8.47059696,28.3492847 L8.47059696,28.3492847 Z M10.8027374,45.8985706 C12.0240567,45.8982158 13.0928893,45.0776403 13.4087331,43.8978675 C13.7245769,42.7180948 13.2086864,41.4732638 12.1509041,40.8627577 C11.0931219,40.2522515 9.75717239,40.4282805 8.89363183,41.2919464 C8.03009128,42.1556123 7.8542561,43.4915873 8.46491574,44.5492809 C8.94711042,45.3844667 9.838348,45.8988505 10.8027374,45.8985706 Z M2.70131898,29.7071141 C3.92269911,29.7115348 4.99478637,28.8950698 5.31519506,27.7164573 C5.63560374,26.5378448 5.12444065,25.2909693 4.06891873,24.6764267 C3.01339681,24.0618841 1.67670812,24.2329092 0.809912929,25.0934063 C-0.0568822583,25.9539034 -0.237650477,27.2893094 0.369178541,28.3492847 C0.852228991,29.1836141 1.74292425,29.6976848 2.70700019,29.6985742 L2.70131898,29.7071141 Z M2.70131898,40.5014123 C1.47882553,40.5015683 0.408802634,41.3226866 0.0923318745,42.5035069 C-0.224138885,43.6843272 0.291829317,44.9305058 1.35039316,45.5420062 C2.40895701,46.1535067 3.74624776,45.9779 4.61104705,45.1138327 C5.47584634,44.2497653 5.65258522,42.9126237 5.04198124,41.8535425 C4.56173918,41.0170482 3.67154746,40.5004771 2.70700019,40.4985717 L2.70131898,40.5014123 Z M37.708991,43.9101438 C37.7260346,43.8448098 37.7373971,43.7823164 37.7487595,43.7169823 C37.760122,43.6516483 37.7714844,43.6147204 37.7800062,43.5635894 C37.8084072,43.3296244 37.8084072,43.0930832 37.7800062,42.8591183 C37.7800062,42.8051467 37.7572814,42.7568563 37.7487595,42.7057253 C37.7402377,42.6545944 37.7260346,42.5750573 37.708991,42.5125639 C37.6919473,42.4500705 37.6692225,42.3875771 37.6464976,42.3250837 C37.6320038,42.2750004 37.6149375,42.2256977 37.5953666,42.177372 C37.5067234,41.9585047 37.3881846,41.7529738 37.243131,41.5666409 C37.2118843,41.5240318 37.1749564,41.4899445 37.1408691,41.4501759 C37.1003549,41.3983294 37.0567179,41.3490007 37.010201,41.3024642 C36.9647513,41.2541739 36.9107797,41.2144053 36.8624893,41.1689556 L36.7460244,41.0695342 C36.5596915,40.9244806 36.3541606,40.8059419 36.1352933,40.7172987 C36.0870029,40.6974144 36.0387126,40.6832113 35.9904222,40.6661677 C35.9421319,40.649124 35.8654354,40.6207179 35.8001014,40.6036743 C35.7347674,40.5866306 35.6722739,40.5781088 35.6097805,40.5639057 C35.5472871,40.5497027 35.5075186,40.5411809 35.4563876,40.5354996 C35.2216513,40.5042685 34.9838122,40.5042685 34.7490758,40.5354996 C34.6979449,40.5354996 34.6468139,40.5553839 34.5956829,40.5639057 C34.544552,40.5724276 34.4678555,40.5866306 34.4025215,40.6036743 C34.3371875,40.6207179 34.2746941,40.6462834 34.2122006,40.6690083 C34.163891,40.6821097 34.1164538,40.6982384 34.0701702,40.7172987 C33.9606115,40.7619032 33.8543032,40.8141082 33.7520219,40.8735322 L33.7520219,40.8735322 C32.1119674,41.9431977 29.9949183,41.9431977 28.3548638,40.8735322 L28.3548638,40.8735322 C28.2525825,40.8141082 28.1462742,40.7619032 28.0367155,40.7172987 C27.9912657,40.6974144 27.9429754,40.6832113 27.894685,40.6661677 C27.8463947,40.649124 27.7696982,40.6207179 27.7043642,40.6036743 C27.6390302,40.5866306 27.5765367,40.5781088 27.5112027,40.5639057 C27.4458687,40.5497027 27.4117814,40.5411809 27.3578098,40.5354996 C27.2411664,40.5185107 27.1234484,40.5099342 27.0055742,40.5099342 L27.0055742,40.5099342 C26.8886431,40.5099342 26.7718694,40.5185089 26.6561793,40.5354996 C26.6022077,40.5354996 26.5510767,40.5553839 26.4999457,40.5639057 C26.4488148,40.5724276 26.3721183,40.5866306 26.3096249,40.6036743 C26.2471315,40.6207179 26.1817975,40.6462834 26.1193041,40.6661677 C26.0568106,40.686052 26.0227233,40.6974144 25.974433,40.7172987 C25.7559416,40.8067104 25.5505118,40.9251909 25.3637019,41.0695342 C25.3239334,41.1007809 25.2870055,41.1377089 25.2500775,41.1689556 C25.2131496,41.2002023 25.144975,41.2541739 25.0995252,41.3024642 C25.0530083,41.3490007 25.0093714,41.3983294 24.9688572,41.4501759 C24.9347699,41.4899445 24.8978419,41.5240318 24.8665952,41.5666409 C24.7226774,41.7537357 24.6042312,41.9591063 24.5143597,42.177372 C24.4944754,42.2256623 24.4802723,42.2767933 24.4632287,42.3250837 C24.446185,42.373374 24.4177789,42.4472299 24.4007353,42.5125639 C24.3836916,42.5778979 24.3751698,42.6403913 24.3609667,42.7057253 C24.3467637,42.7710594 24.3382419,42.8051467 24.3325607,42.8591183 C24.3013138,43.0929025 24.3013138,43.3298052 24.3325607,43.5635894 C24.3325607,43.6147204 24.3524449,43.6658514 24.3609667,43.7169823 C24.3694886,43.7681133 24.3836916,43.8448098 24.4007353,43.9101438 C24.4177789,43.9754778 24.4405038,44.0351306 24.4632287,44.0947834 C24.4859536,44.1544362 24.4944754,44.1942047 24.5143597,44.2424951 C24.6042173,44.4616488 24.7226554,44.6679603 24.8665952,44.8560668 C24.8978419,44.8958353 24.9347699,44.9327632 24.9688572,44.9725318 C25.0029445,45.0123003 25.0512349,45.0719531 25.0995252,45.1202435 C25.1478156,45.1685338 25.1989466,45.2083023 25.2500775,45.2509115 C25.3012085,45.2935206 25.3239334,45.3219267 25.3637019,45.3531734 C25.551862,45.4954912 25.7570187,45.6138142 25.974433,45.705409 C26.0227233,45.7252933 26.0710137,45.7366557 26.1193041,45.7536994 C26.1675944,45.770743 26.2442909,45.8019897 26.3096249,45.8190334 C26.3749589,45.8360771 26.4374523,45.8445989 26.4999457,45.8559613 C26.5513786,45.8693759 26.6035433,45.8798088 26.6561793,45.887208 C26.7673092,45.901941 26.8792696,45.9095315 26.9913712,45.9099329 L27.0226179,45.9099329 C27.1356631,45.9095288 27.2485683,45.9019385 27.3606504,45.887208 C27.4123497,45.8798081 27.463569,45.8693745 27.5140433,45.8559613 C27.5793774,45.8559613 27.6447114,45.8360771 27.7072048,45.8190334 C27.7696982,45.8019897 27.8350322,45.7764243 27.8975256,45.7536994 C27.960019,45.7309745 27.9941064,45.7252933 28.0395561,45.705409 C28.1491148,45.6608044 28.2554231,45.6085995 28.3577044,45.5491755 C29.9968818,44.4765636 32.1156851,44.4765636 33.7548625,45.5491755 C33.8571438,45.6085995 33.9634521,45.6608044 34.0730108,45.705409 C34.1184605,45.7252933 34.1667509,45.7366557 34.2150413,45.7536994 C34.2633316,45.770743 34.3400281,45.8019897 34.4053621,45.8190334 C34.4706961,45.8360771 34.5331895,45.8445989 34.5985235,45.8559613 C34.6490626,45.8690965 34.7002663,45.8795269 34.7519165,45.887208 C34.8639986,45.9019385 34.9769038,45.9095288 35.089949,45.9099329 L35.1211957,45.9099329 C35.2342377,45.909438 35.3471372,45.9018481 35.4592282,45.887208 C35.5108784,45.8795269 35.562082,45.8690965 35.6126211,45.8559613 C35.6751146,45.8559613 35.7404486,45.8360771 35.802942,45.8190334 C35.8654354,45.8019897 35.9307694,45.7764243 35.9932628,45.7536994 C36.0557562,45.7309745 36.0898436,45.7252933 36.1381339,45.705409 C36.3558436,45.6144102 36.5610728,45.4960454 36.748865,45.3531734 C36.7886335,45.3219267 36.8255614,45.2849988 36.86533,45.2509115 C36.9050985,45.2168242 36.9675919,45.1656932 37.0130417,45.1202435 C37.0584914,45.0747937 37.1011005,45.0208221 37.1437097,44.9725318 C37.1863188,44.9242414 37.2147249,44.8958353 37.2459716,44.8560668 C37.3909494,44.6686529 37.5094711,44.4621958 37.5982072,44.2424951 C37.6182089,44.1943321 37.6352836,44.145005 37.6493382,44.0947834 C37.6749037,44.0294494 37.6976286,43.9612748 37.7146722,43.8987813 L37.708991,43.9101438 Z" id="Shape" fill="url(#linearGradient-1)"></path>
                    <path d="M55.1389712,29.6019935 C55.1389712,22.7845306 59.8174551,17.60894 66.5383372,17.60894 C72.2053533,17.60894 76.3583244,20.9040471 77.2815225,26.1108844 L72.0746852,26.1108844 C71.1514871,23.5060454 69.2738442,22.0914219 66.6036713,22.0914219 C62.7177174,22.0914219 60.3117211,25.4831097 60.3117211,29.6019935 C60.3117211,33.7208774 62.7177174,37.1154058 66.6036713,37.1154058 C69.2738442,37.1154058 71.1486465,35.6666949 72.0746852,33.0618559 L77.2730007,33.0618559 C76.3157153,38.3340273 72.1599035,41.5978876 66.5298154,41.5978876 C59.6612215,41.5978876 55.1389712,36.291629 55.1389712,29.6019935 Z" id="Path" fill="#FFFFFF"></path>
                    <path d="M86.044803,36.720561 L95.8647902,36.720561 L95.8647902,41.1348683 L79.7187655,41.1348683 L79.7187655,41.1036216 C79.8181869,33.4595413 85.8488009,31.2183003 88.9138186,28.3208786 C90.1324401,27.1335038 90.8227082,26.2131463 90.8227082,24.7615949 C90.8227082,23.1140413 89.6040867,21.9607538 87.8571119,21.9607538 C85.9141349,21.9607538 84.7608475,23.2787967 84.6301794,25.3211949 L79.6875188,25.3211949 C79.9516955,20.4523902 83.3121366,17.6117806 87.9906205,17.6117806 C92.6691044,17.6117806 95.8988775,20.3785343 95.8988775,24.5968395 C95.8988775,27.0369231 94.7115027,29.2440767 92.4390151,31.1558069 C90.3625295,32.9965219 86.8685798,34.8741648 86.044803,36.720561 Z" id="Path" fill="#FFFFFF"></path>
                    <path d="M99.489408,19.2224062 C99.489408,17.8390294 100.625652,16.7851633 102.06016,16.7851633 C103.494667,16.7851633 104.662158,17.8390294 104.662158,19.2224062 C104.662158,20.6057831 103.50887,21.6624898 102.06016,21.6624898 C100.611449,21.6624898 99.489408,20.6086237 99.489408,19.2224062 Z M99.554742,23.9349775 L104.596824,23.9349775 L104.596824,41.1348683 L99.554742,41.1348683 L99.554742,23.9349775 Z" id="Shape" fill="#FFFFFF"></path>
                    <path d="M135.471409,29.7355022 L135.471409,41.1348683 L133.627853,41.1348683 L133.463098,36.3257163 C131.946213,39.6520701 128.881195,41.5978876 124.89582,41.5978876 C118.436274,41.5978876 114.121388,36.0615396 114.121388,29.6019935 C114.121388,23.0458667 118.765784,17.60894 125.026488,17.60894 C130.034482,17.60894 133.548316,20.2109384 134.812388,24.4945776 L132.664887,24.4945776 C131.511599,21.2988918 128.81018,19.3814804 125.054894,19.3814804 C119.748635,19.3814804 116.249004,24.324141 116.249004,29.6076747 C116.249004,35.1440227 119.706026,39.856594 125.142953,39.856594 C130.185035,39.856594 133.119384,36.2319762 133.349474,31.3546496 L123.972622,31.3546496 L123.972622,29.7411834 L135.471409,29.7355022 Z" id="Path" fill="#FFFFFF"></path>
                    <path d="M153.725166,33.1953646 L140.218068,33.1953646 C140.249314,37.2801611 142.774616,39.9815808 146.245841,39.9815808 C148.782505,39.9815808 150.52948,38.8623806 151.583346,36.5558057 L153.46383,36.5558057 C152.375876,39.6208234 149.739791,41.529713 146.245841,41.529713 C141.186715,41.529713 138.346106,37.5784251 138.346106,32.6016772 C138.346106,27.95444 141.544632,23.9349775 146.157782,23.9349775 C150.9016,23.9349775 153.733688,27.6590166 153.733688,32.3062538 L153.725166,33.1953646 Z M140.218068,31.7438131 L151.782189,31.7438131 C151.651521,28.18737 149.640369,25.386529 146.14926,25.386529 C142.854153,25.386529 140.249314,28.2839507 140.218068,31.7438131 Z" id="Shape" fill="#FFFFFF"></path>
                    <path d="M171.013116,30.7240343 L171.013116,41.1348683 L168.939471,41.1348683 L168.939471,30.9626455 C168.939471,27.6675384 167.323164,25.6904742 164.326321,25.6904742 C161.261303,25.6904742 159.448994,27.9970491 159.448994,31.2921562 L159.448994,41.1433901 L157.37819,41.1433901 L157.37819,24.3298222 L159.190499,24.3298222 L159.389341,27.4942612 C160.213118,25.3524416 162.32085,23.9349775 164.956936,23.9349775 C168.950833,23.9349775 171.013116,26.5398164 171.013116,30.7240343 Z" id="Path" fill="#FFFFFF"></path>
                    <path d="M174.453094,32.7323452 C174.453094,27.8237719 177.577764,23.9264556 182.392597,23.9264556 C187.207431,23.9264556 190.366188,27.903309 190.366188,32.7323452 C190.366188,37.6096718 187.241518,41.5382348 182.392597,41.5382348 C177.484024,41.529713 174.453094,37.5443378 174.453094,32.7323452 Z M188.292544,32.7323452 C188.292544,28.9770594 186.020056,25.6308214 182.392597,25.6308214 C178.699805,25.6308214 176.495492,29.0565965 176.495492,32.7323452 C176.495492,36.5217184 178.736733,39.8168254 182.392597,39.8168254 C186.150724,39.8168254 188.292544,36.3910503 188.292544,32.7323452 Z" id="Shape" fill="#FFFFFF"></path>
                    <path d="M218.209843,30.7240343 L218.209843,41.1348683 L216.136198,41.1348683 L216.136198,30.9626455 C216.136198,27.7016257 214.553979,25.6904742 211.71905,25.6904742 C208.753454,25.6904742 207.074654,28.0311364 207.074654,31.2921562 L207.074654,41.1433901 L205.063502,41.1433901 L205.063502,30.9626455 C205.063502,27.6675384 203.546617,25.6904742 200.649195,25.6904742 C197.879601,25.6904742 196.001958,27.7328724 196.001958,31.2921562 L196.001958,41.1433901 L193.925472,41.1433901 L193.925472,24.3298222 L195.706534,24.3298222 L195.902536,27.553914 C196.660979,25.3808477 198.638043,23.9292963 201.274129,23.9292963 C204.040883,23.9292963 205.921366,25.349601 206.645722,27.7527567 C207.404165,25.4802691 209.545984,23.9292963 212.312738,23.9292963 C216.102111,23.9349775 218.209843,26.5710631 218.209843,30.7240343 Z" id="Path" fill="#FFFFFF"></path>
                    <path d="M222.85708,19.2905809 C222.854412,18.9877158 222.976497,18.6970993 223.194655,18.487001 C223.412813,18.2769026 223.707818,18.1658398 224.010368,18.1799025 C224.318025,18.1660236 224.618139,18.2776244 224.841978,18.4891469 C225.065817,18.7006695 225.194206,18.9939933 225.197743,19.3019433 C225.193443,19.6093971 225.064721,19.901982 224.840968,20.1128875 C224.617216,20.323793 224.317539,20.4350103 224.010368,20.4211435 C223.705694,20.4304444 223.410408,20.3150753 223.192737,20.1016935 C222.975066,19.8883116 222.853844,19.5953791 222.85708,19.2905809 L222.85708,19.2905809 Z M222.99627,24.3298222 L225.072756,24.3298222 L225.072756,41.1348683 L222.99627,41.1348683 L222.99627,24.3298222 Z" id="Shape" fill="#FFFFFF"></path>
                    <path d="M244.016781,29.6701681 L242.028354,29.6701681 C241.238665,27.2641719 239.392269,25.6166183 236.722096,25.6166183 C233.165652,25.6166183 230.82499,28.9117254 230.82499,32.7181422 C230.82499,36.524559 233.165652,39.8026224 236.722096,39.8026224 C239.392269,39.8026224 241.238665,38.1891562 242.028354,35.7519132 L244.016781,35.7519132 C243.22141,39.2004132 240.451816,41.529713 236.727777,41.529713 C231.884538,41.529713 228.77407,37.4108292 228.77407,32.7238234 C228.77407,27.9459182 231.969756,23.9179338 236.727777,23.9179338 C240.485903,23.9349775 243.22141,26.2756397 244.016781,29.6701681 Z" id="Path" fill="#FFFFFF"></path>
                    <path d="M246.383009,36.3257163 L248.328826,36.3257163 C248.854339,38.6976253 250.885375,40.1150894 253.632244,40.1150894 C256.379114,40.1150894 258.219829,38.663538 258.219829,36.4904717 C258.219829,34.8088308 257.20005,33.6896306 255.254232,33.3260326 L250.874012,32.5363432 C248.138505,32.0079898 246.786375,30.755281 246.786375,28.5822147 C246.786375,25.7160397 249.55597,23.9349775 253.211834,23.9349775 C256.867698,23.9349775 259.208361,25.6393432 259.637293,28.5822147 L257.725563,28.5822147 C257.265384,26.4716418 255.683164,25.3183543 253.180587,25.3183543 C250.67801,25.3183543 248.763439,26.5710631 248.763439,28.383372 C248.763439,29.8349235 249.65255,30.689947 251.498946,31.0194577 L255.873485,31.8148284 C258.714095,32.3403411 260.188371,33.9225606 260.188371,36.2291356 C260.188371,39.623664 257.191528,41.5325536 253.598157,41.5325536 C249.842871,41.529713 246.911362,39.5867361 246.383009,36.3257163 Z" id="Path" fill="#FFFFFF"></path>
                </g>
            </g>
        </g>
    </g>
</svg>