<?xml version="1.0" encoding="UTF-8" standalone="no"?><!DOCTYPE svg PUBLIC "-//W3C//DTD SVG 1.1//EN" "http://www.w3.org/Graphics/SVG/1.1/DTD/svg11.dtd"><svg width="100%" height="100%" viewBox="0 0 1453 224" version="1.1" xmlns="http://www.w3.org/2000/svg" xmlns:xlink="http://www.w3.org/1999/xlink" xml:space="preserve" xmlns:serif="http://www.serif.com/" style="fill-rule:evenodd;clip-rule:evenodd;stroke-linejoin:round;stroke-miterlimit:2;"><g><path d="M769.936,202.651l-18.899,-31.602l-9.604,-0l-0,50.811l11.153,-0l0,-29.743l14.872,24.476l5.267,-0l14.871,-25.096l0,30.363l10.534,-0l0,-50.811l-9.604,-0l-18.59,31.602Z" style="fill:#aacb38;fill-rule:nonzero;"/><path d="M846.153,200.792l23.547,-0l-0,-9.295l-23.547,0l0,-11.154l26.645,0l-0,-9.294l-38.418,-0l-0,50.811l39.347,-0l0,-9.295l-27.574,0l0,-11.773Z" style="fill:#aacb38;fill-rule:nonzero;"/><path d="M929.496,171.049l-22.927,-0l-0,50.811l22.927,-0c16.42,-0 27.884,-9.915 27.884,-25.406c-0,-15.491 -11.154,-25.405 -27.884,-25.405Zm-0.31,41.206l-10.844,0l-0,-31.602l10.844,0c10.224,0 16.73,6.197 16.73,15.801c0,9.915 -6.506,15.801 -16.73,15.801Z" style="fill:#aacb38;fill-rule:nonzero;"/><rect x="990.221" y="171.049" width="11.773" height="50.811" style="fill:#aacb38;"/><path d="M1062.72,180.034c4.957,-0 9.294,1.859 12.702,5.886l7.436,-6.816c-4.647,-5.887 -12.083,-8.985 -20.758,-8.985c-15.801,0 -27.574,11.154 -27.574,26.335c-0,15.491 11.773,26.335 27.264,25.716c8.985,-0 16.421,-3.099 21.068,-8.985l-7.436,-6.816c-3.408,3.717 -7.745,5.886 -12.702,5.886c-9.295,0 -16.111,-6.506 -16.111,-16.111c-0,-9.294 6.506,-16.11 16.111,-16.11Z" style="fill:#aacb38;fill-rule:nonzero;"/><path d="M1129.33,171.049l-22.617,50.811l12.083,-0l4.647,-10.844l23.547,-0l4.027,10.844l12.393,-0l-22.617,-50.811l-11.463,-0Zm-2.169,30.982l8.055,-19.519l8.056,19.519l-16.111,0Z" style="fill:#aacb38;fill-rule:nonzero;"/><path d="M1204.31,171.049l-11.773,-0l-0,50.811l37.178,-0l0,-9.605l-25.405,0l-0,-41.206Z" style="fill:#aacb38;fill-rule:nonzero;"/><path d="M566.692,57.653c8.056,0 15.182,2.789 20.758,8.985l9.295,-8.675c-7.126,-8.365 -17.97,-13.012 -30.672,-13.012c-23.857,-0 -41.517,16.42 -41.517,39.657c0,23.237 17.66,39.657 41.517,40.277c12.702,0 23.546,-4.647 30.672,-13.013l-9.295,-8.984c-5.576,6.196 -12.702,9.294 -20.758,9.294c-16.111,0 -27.574,-11.153 -27.574,-27.264c-0,-16.111 11.463,-27.265 27.574,-27.265Z" style="fill:#30676a;fill-rule:nonzero;"/><path d="M640.43,45.88l-34.7,77.456l14.872,-0l7.745,-17.97l38.728,0l7.436,17.97l15.181,-0l-35.01,-77.456l-14.252,0Zm-7.126,48.332l14.562,-33.77l14.562,33.77l-29.124,0Z" style="fill:#30676a;fill-rule:nonzero;"/><path d="M776.753,123.336l-0,-77.456l-14.252,0l-0,52.36l-42.756,-52.36l-11.773,0l-0,77.456l14.252,-0l-0,-52.36l42.755,52.36l11.774,-0Z" style="fill:#30676a;fill-rule:nonzero;"/><path d="M839.337,123.336l-0,-27.265l30.672,-49.881l-14.251,-0l-22.927,37.798l-22.618,-37.798l-15.491,-0l30.363,50.191l0,26.955l14.252,-0Z" style="fill:#30676a;fill-rule:nonzero;"/><path d="M919.891,44.951c-23.856,-0 -41.516,16.73 -41.516,39.657c-0,22.927 17.66,39.657 41.516,39.657c23.856,0 41.516,-16.73 41.516,-39.657c0,-22.927 -17.66,-39.657 -41.516,-39.657Zm-0,66.921c-15.801,0 -27.264,-11.463 -27.264,-27.264c-0,-15.801 11.773,-27.264 27.264,-27.264c15.801,-0 27.264,11.463 27.264,27.264c0,15.801 -11.463,27.264 -27.264,27.264Z" style="fill:#30676a;fill-rule:nonzero;"/><path d="M999.516,70.976l42.755,52.36l11.774,-0l-0,-77.456l-14.252,0l-0,52.36l-42.756,-52.36l-11.773,0l-0,77.456l14.252,-0l-0,-52.36Z" style="fill:#30676a;fill-rule:nonzero;"/><path d="M1158.77,123.336l33.771,-77.456l-14.562,0l-26.025,59.796l-25.716,-59.796l-15.491,0l33.771,77.456l14.252,-0Z" style="fill:#30676a;fill-rule:nonzero;"/><rect x="1208.96" y="45.88" width="14.252" height="77.456" style="fill:#30676a;"/><path d="M1266.89,89.875l37.489,-0l-0,-11.773l-37.489,-0l0,-20.139l42.136,0l0,-12.083l-56.388,0l0,77.456l57.937,-0l0,-12.083l-43.685,-0l0,-21.378Z" style="fill:#30676a;fill-rule:nonzero;"/><path d="M1432.65,45.88l-19.829,59.176l-19.519,-59.176l-13.322,0l-20.139,58.866l-19.209,-58.866l-14.871,0l25.715,77.456l15.491,-0l19.519,-57.317l19.209,57.317l15.181,-0l25.716,-77.456l-13.942,0Z" style="fill:#30676a;fill-rule:nonzero;"/><g><path d="M325.34,83.022c-4.957,-5.886 -50.192,-58.556 -64.753,-74.667c-2.789,-3.098 -7.126,-7.746 -12.393,-7.746c-3.718,0 -7.436,2.169 -11.464,6.816l-104.1,125.789c-0.31,0.619 -0.93,0.929 -1.859,0.619l-26.955,-7.745c-8.055,-2.169 -13.322,-1.24 -18.589,4.337c-21.068,23.547 -50.811,58.867 -79.005,91.398l41.516,0l54.219,-64.753c0.31,-0.62 0.93,-0.62 1.859,-0.62l75.597,22.927c1.859,0.62 4.028,-0.309 4.957,-2.168c0.93,-1.859 0.62,-4.028 -0.929,-5.267l-19.829,-17.351c-0.93,-0.929 -0.93,-2.168 -0.31,-3.098l79.935,-116.184c0.309,-0.619 0.929,-0.929 1.549,-0.929c0.619,-0 1.239,0.31 1.549,0.62l159.559,186.823l36.249,0l-92.017,-112.776l-24.786,-26.025Z" style="fill:#aacb38;fill-rule:nonzero;"/><path d="M388.854,40.886c-2.169,-2.788 -6.507,-5.577 -11.464,-5.577c-3.718,0 -6.816,1.55 -10.224,4.648l-38.418,43.375c-0.31,0.31 -0.62,0.62 -1.549,0.62c-0.62,-0 -1.24,-0.31 -1.859,-0.93l24.786,26.025c-0.62,-0.929 -0.62,-2.478 -0,-3.408l29.433,-35.629c0.31,-0.31 0.929,-0.62 1.549,-0.62c0.62,0 0.929,0.31 1.239,0.929l115.874,151.504l28.814,0c-53.6,-69.71 -122.38,-161.108 -138.181,-180.937Z" style="fill:#30676a;fill-rule:nonzero;"/><path d="M300.554,178.138c-1.859,1.239 -2.169,3.718 -1.239,5.887l20.138,37.798l26.955,0l-40.277,-43.065c-1.549,-1.549 -4.028,-1.859 -5.577,-0.62Z" style="fill:#aacb38;fill-rule:nonzero;"/></g></g></svg>