<svg width="438" height="87" viewBox="0 0 438 87" fill="none" xmlns="http://www.w3.org/2000/svg">
<g clip-path="url(#clip0_65_509)">
<path fill-rule="evenodd" clip-rule="evenodd" d="M48.4412 19.0312C50.3001 18.9182 52.0852 18.2635 53.5763 17.1479C55.0675 16.0324 56.1995 14.5048 56.8328 12.7535C57.4661 11.0022 57.5729 9.10379 57.1401 7.29251C56.7073 5.48123 55.7537 3.83625 54.3971 2.56046C53.0405 1.28467 51.3401 0.433883 49.5057 0.113002C47.6713 -0.207879 45.783 0.0151956 44.0739 0.754718C42.3648 1.49424 40.9095 2.71785 39.8875 4.27465C38.8655 5.83145 38.3216 7.65336 38.3228 9.51563C38.403 12.1192 39.5141 14.5842 41.4116 16.3687C43.3091 18.1531 45.8377 19.1108 48.4412 19.0312Z" fill="#004D71"/>
<path fill-rule="evenodd" clip-rule="evenodd" d="M44.0912 71.4795L33.76 5.78031C31.7623 2.57691 18.6059 7.52977 19.9298 10.8514L44.0912 71.4795Z" fill="#004D71"/>
<path fill-rule="evenodd" clip-rule="evenodd" d="M41.585 75.1557L17.5418 14.7758C13.8538 10.2485 3.35704 21.7145 5.46111 24.6815L41.585 75.1557Z" fill="#004D71"/>
<path fill-rule="evenodd" clip-rule="evenodd" d="M31.9984 75.1557L2.6477 49.1503C0.768213 50.1668 2.6477 57.602 4.14893 58.0276L31.9984 75.1084" fill="#004D71"/>
<path fill-rule="evenodd" clip-rule="evenodd" d="M37.5188 75.1557L4.14912 29.0552C0.768412 27.0102 -1.17018 40.8758 0.768411 42.5307L37.5188 75.1912" fill="#004D71"/>
<path fill-rule="evenodd" clip-rule="evenodd" d="M43.5593 85.6406L21.7738 73.0635C21.7738 82.2008 2.8608 84.6004 3.61732 86.5981H43.5593" fill="#004D71"/>
<path fill-rule="evenodd" clip-rule="evenodd" d="M53.2759 71.4795L63.6071 5.78031C65.6048 2.57691 78.7494 7.52977 77.4373 10.8514L53.2759 71.4795Z" fill="#004D71"/>
<path fill-rule="evenodd" clip-rule="evenodd" d="M55.7815 75.1557L79.7892 14.7758C83.4772 10.2485 93.974 21.7145 91.8699 24.6815L55.7578 75.1557" fill="#004D71"/>
<path fill-rule="evenodd" clip-rule="evenodd" d="M65.3564 75.1557L94.7071 49.1503C96.5866 50.1787 94.7071 57.602 93.2059 58.0276L65.3564 75.1084" fill="#004D71"/>
<path fill-rule="evenodd" clip-rule="evenodd" d="M59.8359 75.1557L93.2057 29.0552C96.5864 27.0102 98.5249 40.8758 96.5864 42.5307L59.8359 75.1912" fill="#004D71"/>
<path fill-rule="evenodd" clip-rule="evenodd" d="M53.7842 86.5745L75.5815 73.0398C75.5815 82.1772 94.4945 84.5768 93.7262 86.5745H53.7842Z" fill="#004D71"/>
<path fill-rule="evenodd" clip-rule="evenodd" d="M48.7131 19.0313C50.5691 18.9182 52.3514 18.2646 53.8404 17.1508C55.3294 16.0371 56.46 14.512 57.0927 12.7635C57.7255 11.0151 57.8328 9.11969 57.4014 7.31099C56.97 5.5023 56.0187 3.85939 54.6649 2.58475C53.3111 1.31012 51.6139 0.459485 49.7825 0.137724C47.9512 -0.184037 46.0657 0.0371208 44.3584 0.773957C42.6512 1.51079 41.197 2.73111 40.1749 4.28444C39.1528 5.83777 38.6076 7.65621 38.6064 9.51564C38.6868 12.1171 39.7962 14.5803 41.6911 16.3644C43.586 18.1485 46.1116 19.1077 48.7131 19.0313Z" fill="#004D71"/>
<path d="M171.482 67.4014C171.488 67.259 171.547 67.124 171.648 67.0233C171.749 66.9226 171.884 66.8634 172.026 66.8576H173.894C174.038 66.8576 174.176 66.9149 174.278 67.0169C174.38 67.1189 174.437 67.2571 174.437 67.4014V75.3094H184.816V67.4014C184.819 67.2581 184.877 67.1215 184.979 67.0202C185.08 66.9189 185.216 66.8606 185.36 66.8576H187.227C187.37 66.8634 187.505 66.9226 187.605 67.0233C187.706 67.124 187.765 67.259 187.771 67.4014V86.1844C187.765 86.3256 187.706 86.4592 187.605 86.558C187.503 86.6568 187.369 86.7134 187.227 86.7163H185.36C185.217 86.7163 185.081 86.6607 184.979 86.5613C184.878 86.4618 184.819 86.3265 184.816 86.1844V77.9809H174.437V86.1844C174.437 86.2553 174.423 86.3254 174.396 86.3907C174.368 86.456 174.328 86.5152 174.277 86.5648C174.227 86.6143 174.167 86.6532 174.101 86.6793C174.035 86.7053 173.964 86.7179 173.894 86.7163H171.991C171.849 86.7134 171.714 86.6568 171.613 86.558C171.512 86.4592 171.453 86.3256 171.447 86.1844L171.482 67.4014Z" fill="#004D71"/>
<path d="M193.705 67.4014C193.705 67.2592 193.761 67.1226 193.86 67.021C193.96 66.9194 194.095 66.8607 194.237 66.8576H205.585C205.729 66.8576 205.867 66.9149 205.969 67.0169C206.071 67.1189 206.129 67.2571 206.129 67.4014V68.9853C206.129 69.1295 206.071 69.2679 205.969 69.3698C205.867 69.4718 205.729 69.5291 205.585 69.5291H196.625V75.3094H204.202C204.343 75.3154 204.477 75.3749 204.575 75.4759C204.674 75.577 204.731 75.7118 204.734 75.8531V77.4371C204.735 77.5079 204.723 77.5784 204.697 77.6443C204.671 77.7102 204.632 77.7703 204.582 77.8209C204.533 77.8716 204.473 77.9118 204.408 77.9393C204.343 77.9667 204.273 77.9809 204.202 77.9809H196.625V84.0803H205.585C205.656 84.0787 205.726 84.0913 205.792 84.1173C205.858 84.1434 205.918 84.1823 205.969 84.2319C206.019 84.2814 206.06 84.3406 206.087 84.4059C206.114 84.4712 206.129 84.5414 206.129 84.6122V86.1844C206.129 86.2553 206.114 86.3254 206.087 86.3907C206.06 86.456 206.019 86.5152 205.969 86.5648C205.918 86.6143 205.858 86.6532 205.792 86.6793C205.726 86.7053 205.656 86.7179 205.585 86.7163H194.237C194.096 86.7163 193.961 86.6603 193.861 86.5605C193.761 86.4607 193.705 86.3255 193.705 86.1844V67.4014Z" fill="#004D71"/>
<path d="M208.162 85.9834L216.909 66.8812C216.962 66.7975 217.033 66.7265 217.117 66.6734C217.201 66.6203 217.295 66.5863 217.394 66.5739H217.677C217.776 66.5863 217.87 66.6203 217.954 66.6734C218.038 66.7265 218.109 66.7975 218.162 66.8812L226.815 85.9834C226.858 86.0627 226.879 86.1524 226.876 86.2427C226.872 86.3331 226.843 86.4207 226.794 86.4961C226.744 86.5716 226.674 86.632 226.592 86.6708C226.511 86.7096 226.42 86.7253 226.33 86.7163H224.545C224.405 86.7268 224.265 86.6908 224.148 86.6139C224.03 86.5369 223.941 86.4234 223.895 86.2908L222.134 82.4018H212.855C212.287 83.7139 211.672 84.9905 211.129 86.2908C211.07 86.4173 210.977 86.5246 210.86 86.5999C210.742 86.6753 210.606 86.7157 210.467 86.7163H208.635C208.546 86.723 208.456 86.7055 208.376 86.6657C208.296 86.626 208.229 86.5654 208.18 86.4904C208.132 86.4154 208.105 86.3287 208.101 86.2394C208.098 86.1502 208.119 86.0618 208.162 85.9834ZM221.023 79.9667L217.476 72.1887H217.335L213.871 79.9667H221.023Z" fill="#004D71"/>
<path d="M230.042 67.4014C230.041 67.2592 230.097 67.1226 230.197 67.021C230.296 66.9194 230.431 66.8607 230.573 66.8576H232.453C232.594 66.8636 232.728 66.9232 232.827 67.0242C232.925 67.1252 232.982 67.2601 232.985 67.4014V84.0803H240.68C240.822 84.0803 240.959 84.1359 241.06 84.2354C241.162 84.3348 241.221 84.4701 241.224 84.6122V86.1844C241.221 86.3265 241.162 86.4618 241.06 86.5613C240.959 86.6607 240.822 86.7163 240.68 86.7163H230.573C230.432 86.7163 230.297 86.6603 230.197 86.5605C230.098 86.4607 230.042 86.3255 230.042 86.1844V67.4014Z" fill="#004D71"/>
<path d="M246.153 69.5291H241.532C241.387 69.5291 241.249 69.4718 241.147 69.3698C241.045 69.2679 240.988 69.1295 240.988 68.9853V67.4014C240.988 67.2571 241.045 67.1189 241.147 67.0169C241.249 66.9149 241.387 66.8576 241.532 66.8576H253.73C253.874 66.8606 254.01 66.9189 254.112 67.0202C254.213 67.1215 254.271 67.2581 254.274 67.4014V68.9853C254.271 69.1286 254.213 69.2652 254.112 69.3665C254.01 69.4678 253.874 69.526 253.73 69.5291H249.109V86.1844C249.103 86.3256 249.043 86.4592 248.942 86.558C248.841 86.6568 248.706 86.7134 248.565 86.7163H246.697C246.556 86.7134 246.421 86.6568 246.32 86.558C246.219 86.4592 246.159 86.3256 246.153 86.1844V69.5291Z" fill="#004D71"/>
<path d="M257.761 67.4014C257.764 67.2601 257.821 67.1252 257.92 67.0242C258.018 66.9232 258.152 66.8636 258.293 66.8576H260.173C260.315 66.8607 260.45 66.9194 260.55 67.021C260.649 67.1226 260.705 67.2592 260.705 67.4014V75.3094H271.095V67.4014C271.095 67.2592 271.151 67.1226 271.25 67.021C271.35 66.9194 271.485 66.8607 271.627 66.8576H273.506C273.648 66.8636 273.781 66.9232 273.88 67.0242C273.979 67.1252 274.035 67.2601 274.038 67.4014V86.1844C274.035 86.3245 273.978 86.4581 273.879 86.5572C273.78 86.6563 273.647 86.7133 273.506 86.7163H271.627C271.486 86.7163 271.351 86.6603 271.251 86.5605C271.151 86.4607 271.095 86.3255 271.095 86.1844V77.9809H260.705V86.1844C260.705 86.3255 260.649 86.4607 260.549 86.5605C260.449 86.6603 260.314 86.7163 260.173 86.7163H258.281C258.141 86.7133 258.008 86.6563 257.909 86.5572C257.81 86.4581 257.753 86.3245 257.75 86.1844L257.761 67.4014Z" fill="#004D71"/>
<path d="M285.362 83.8557C285.611 83.4775 285.847 83.0519 286.095 82.6737C286.138 82.5892 286.199 82.5152 286.274 82.4569C286.349 82.3985 286.435 82.3572 286.528 82.3358C286.62 82.3144 286.716 82.3134 286.809 82.333C286.901 82.3526 286.989 82.3922 287.065 82.4491C288.342 83.5505 289.926 84.2352 291.604 84.4113C293.554 84.4113 294.807 83.2292 294.807 81.7634C294.807 80.0613 293.33 78.9856 290.528 77.8272C287.727 76.6688 285.362 75.0966 285.362 71.8105C285.362 69.6 287.065 66.5621 291.568 66.5621C293.444 66.5952 295.269 67.1789 296.817 68.2406C296.894 68.2893 296.961 68.3536 297.012 68.4293C297.063 68.505 297.098 68.5905 297.115 68.6805C297.132 68.7705 297.13 68.8629 297.109 68.952C297.088 69.0411 297.049 69.1249 296.994 69.1981L296.285 70.2738C296.246 70.3651 296.188 70.4468 296.114 70.5125C296.04 70.5783 295.952 70.6266 295.856 70.6538C295.761 70.681 295.661 70.6865 295.563 70.6699C295.465 70.6532 295.373 70.6148 295.292 70.5575C294.143 69.7923 292.832 69.3065 291.462 69.139C289.098 69.139 288.258 70.652 288.258 71.6923C288.258 73.3117 289.5 74.3046 291.805 75.2385C295.103 76.5742 297.904 78.1345 297.904 81.5861C297.904 84.5413 295.268 86.9527 291.58 86.9527C289.34 86.977 287.17 86.1777 285.481 84.7068C285.414 84.6613 285.357 84.6022 285.314 84.5334C285.272 84.4647 285.244 84.3877 285.233 84.3075C285.221 84.2273 285.227 84.1457 285.25 84.0678C285.272 83.99 285.31 83.9178 285.362 83.8557Z" fill="#004D71"/>
<path d="M306.178 77.118L299.547 67.6614C299.488 67.5819 299.454 67.4873 299.447 67.3888C299.44 67.2903 299.462 67.1919 299.509 67.1051C299.556 67.0183 299.627 66.9467 299.713 66.8987C299.799 66.8507 299.898 66.8282 299.996 66.834H302.1C302.191 66.8364 302.279 66.8615 302.358 66.9069C302.436 66.9524 302.502 67.0167 302.549 67.094L307.691 74.3283L312.822 67.094C312.872 67.02 312.939 66.9582 313.017 66.9132C313.094 66.8682 313.181 66.8411 313.271 66.834H315.398C315.496 66.8305 315.593 66.8541 315.679 66.9022C315.764 66.9503 315.834 67.0211 315.882 67.1067C315.93 67.1923 315.953 67.2893 315.949 67.3872C315.945 67.4851 315.914 67.58 315.859 67.6614L309.11 77.118V86.1726C309.104 86.3138 309.044 86.4474 308.943 86.5462C308.842 86.645 308.707 86.7016 308.566 86.7045H306.746C306.604 86.7045 306.467 86.6489 306.365 86.5494C306.264 86.45 306.205 86.3147 306.202 86.1726L306.178 77.118Z" fill="#004D71"/>
<path d="M317.727 83.8557C317.987 83.4775 318.212 83.0519 318.472 82.6737C318.514 82.5895 318.574 82.5157 318.647 82.4573C318.721 82.399 318.807 82.3576 318.898 82.3362C318.989 82.3147 319.085 82.3137 319.176 82.3332C319.268 82.3527 319.355 82.3923 319.43 82.4491C320.71 83.5467 322.292 84.2308 323.969 84.4113C325.931 84.4113 327.172 83.2292 327.172 81.7634C327.172 80.0613 325.706 78.9856 322.893 77.8272C320.08 76.6688 317.727 75.0966 317.727 71.8105C317.727 69.6 319.43 66.5621 323.945 66.5621C325.826 66.5964 327.656 67.1843 329.205 68.2524C329.282 68.3021 329.347 68.367 329.397 68.4432C329.448 68.5194 329.482 68.6051 329.497 68.695C329.513 68.7849 329.51 68.8771 329.488 68.9657C329.466 69.0543 329.426 69.1374 329.371 69.2099L328.662 70.2856C328.623 70.377 328.565 70.4586 328.491 70.5243C328.416 70.5901 328.328 70.6384 328.233 70.6656C328.138 70.6929 328.038 70.6984 327.94 70.6817C327.842 70.665 327.749 70.6266 327.669 70.5693C326.52 69.8041 325.208 69.3183 323.839 69.1508C321.475 69.1508 320.635 70.6639 320.635 71.7041C320.635 73.3235 321.876 74.3165 324.241 75.2503C327.527 76.586 330.34 78.1463 330.34 81.598C330.34 84.5531 327.704 86.9645 324.016 86.9645C321.776 86.9921 319.604 86.1924 317.917 84.7186C317.645 84.5295 317.444 84.3285 317.727 83.8557Z" fill="#004D71"/>
<path d="M337.385 69.5291H332.751C332.608 69.526 332.471 69.4678 332.37 69.3665C332.269 69.2652 332.211 69.1286 332.208 68.9853V67.4014C332.211 67.2581 332.269 67.1215 332.37 67.0202C332.471 66.9189 332.608 66.8606 332.751 66.8576H344.95C345.094 66.8576 345.233 66.9149 345.335 67.0169C345.437 67.1189 345.494 67.2571 345.494 67.4014V68.9853C345.494 69.1295 345.437 69.2679 345.335 69.3698C345.233 69.4718 345.094 69.5291 344.95 69.5291H340.328V86.1844C340.322 86.3256 340.263 86.4592 340.162 86.558C340.061 86.6568 339.926 86.7134 339.785 86.7163H337.917C337.776 86.7134 337.641 86.6568 337.54 86.558C337.439 86.4592 337.379 86.3256 337.373 86.1844L337.385 69.5291Z" fill="#004D71"/>
<path d="M348.993 67.4014C348.993 67.2592 349.049 67.1226 349.148 67.021C349.248 66.9194 349.383 66.8607 349.525 66.8576H360.873C361.017 66.8576 361.155 66.9149 361.257 67.0169C361.359 67.1189 361.417 67.2571 361.417 67.4014V68.9853C361.417 69.1295 361.359 69.2679 361.257 69.3698C361.155 69.4718 361.017 69.5291 360.873 69.5291H351.913V75.3094H359.49C359.632 75.3152 359.767 75.3744 359.868 75.4751C359.969 75.5758 360.028 75.7108 360.034 75.8531V77.4371C360.034 77.5813 359.976 77.7196 359.874 77.8216C359.772 77.9236 359.634 77.9809 359.49 77.9809H351.913V84.0803H360.873C360.944 84.0787 361.014 84.0913 361.08 84.1173C361.146 84.1434 361.206 84.1823 361.257 84.2319C361.307 84.2814 361.348 84.3406 361.375 84.4059C361.403 84.4712 361.417 84.5414 361.417 84.6122V86.1844C361.417 86.2553 361.403 86.3254 361.375 86.3907C361.348 86.456 361.307 86.5152 361.257 86.5648C361.206 86.6143 361.146 86.6532 361.08 86.6793C361.014 86.7053 360.944 86.7179 360.873 86.7163H349.525C349.384 86.7163 349.249 86.6603 349.149 86.5605C349.049 86.4607 348.993 86.3255 348.993 86.1844V67.4014Z" fill="#004D71"/>
<path d="M368.284 66.9995C368.315 66.885 368.38 66.7829 368.471 66.7068C368.562 66.6307 368.674 66.5843 368.792 66.5739H369.253C369.352 66.5806 369.447 66.6124 369.53 66.6661C369.612 66.7199 369.68 66.794 369.726 66.8812L375.636 81.3852H375.755L381.665 66.8812C381.709 66.7899 381.778 66.7128 381.863 66.6585C381.949 66.6041 382.048 66.5748 382.15 66.5739H382.599C382.717 66.5843 382.829 66.6307 382.92 66.7068C383.011 66.7829 383.076 66.885 383.107 66.9995L386.594 86.0662C386.627 86.1437 386.638 86.2285 386.627 86.3118C386.616 86.3952 386.582 86.474 386.531 86.5403C386.479 86.6065 386.41 86.6577 386.332 86.6887C386.254 86.7196 386.169 86.7291 386.086 86.7163H384.242C384.124 86.7131 384.01 86.6741 383.915 86.6044C383.82 86.5347 383.748 86.4377 383.71 86.3262L381.606 73.6427H381.523L376.417 86.6454C376.378 86.7405 376.31 86.8211 376.223 86.8762C376.136 86.9312 376.035 86.958 375.932 86.9527H375.424C375.322 86.9547 375.221 86.9266 375.135 86.872C375.049 86.8173 374.981 86.7385 374.939 86.6454L369.797 73.6427H369.691L367.646 86.3262C367.612 86.4358 367.544 86.5321 367.453 86.6019C367.362 86.6718 367.252 86.7117 367.137 86.7163H365.293C365.21 86.7256 365.126 86.7142 365.048 86.683C364.97 86.6517 364.901 86.6017 364.847 86.5373C364.793 86.4729 364.756 86.3962 364.739 86.314C364.722 86.2318 364.726 86.1466 364.75 86.0662L368.284 66.9995Z" fill="#004D71"/>
<path d="M134.756 17.6246C138.361 17.5325 141.856 18.876 144.472 21.3599C144.561 21.4308 144.632 21.5207 144.682 21.623C144.731 21.7253 144.756 21.8374 144.756 21.9509C144.756 22.0645 144.731 22.1766 144.682 22.2789C144.632 22.3812 144.561 22.4711 144.472 22.542L142.013 25.0716C141.952 25.1459 141.876 25.2057 141.789 25.2467C141.702 25.2878 141.607 25.3091 141.511 25.3091C141.415 25.3091 141.32 25.2878 141.233 25.2467C141.146 25.2057 141.07 25.1459 141.009 25.0716C139.3 23.5646 137.105 22.7251 134.826 22.7075C132.434 22.828 130.18 23.8632 128.529 25.599C126.878 27.3349 125.958 29.6386 125.958 32.034C125.958 34.4293 126.878 36.7331 128.529 38.4689C130.18 40.2048 132.434 41.24 134.826 41.3605C137.081 41.3418 139.257 40.5299 140.973 39.0673C141.11 38.9418 141.29 38.8723 141.476 38.8723C141.661 38.8723 141.841 38.9418 141.978 39.0673L144.472 41.6442C144.543 41.7145 144.6 41.7983 144.638 41.8906C144.677 41.9829 144.697 42.082 144.697 42.182C144.697 42.2821 144.677 42.3811 144.638 42.4734C144.6 42.5657 144.543 42.6495 144.472 42.7198C141.861 45.2603 138.351 46.6629 134.708 46.6207C130.871 46.6207 127.191 45.0963 124.477 42.3829C121.764 39.6696 120.24 35.9895 120.24 32.1522C120.24 28.3149 121.764 24.6348 124.477 21.9214C127.191 19.2081 130.871 17.6837 134.708 17.6837L134.756 17.6246Z" fill="#004D71"/>
<path d="M146.73 45.1194L159.224 18.0738C159.278 17.9371 159.373 17.8206 159.496 17.7401C159.619 17.6597 159.763 17.6193 159.91 17.6246H160.312C160.459 17.6156 160.606 17.6545 160.729 17.7355C160.853 17.8164 160.947 17.935 160.998 18.0738L173.374 45.1194C173.434 45.232 173.462 45.3586 173.456 45.486C173.45 45.6133 173.41 45.7368 173.34 45.8432C173.27 45.9497 173.172 46.0353 173.058 46.091C172.943 46.1466 172.815 46.1704 172.688 46.1596H169.142C168.884 46.1731 168.629 46.1018 168.416 45.9567C168.202 45.8115 168.042 45.6005 167.96 45.3558L166.08 41.0177H154.047L152.073 45.3558C151.991 45.6005 151.831 45.8115 151.617 45.9567C151.404 46.1018 151.149 46.1731 150.891 46.1596H147.345C147.224 46.1575 147.105 46.1244 147 46.0634C146.896 46.0024 146.808 45.9156 146.747 45.8113C146.685 45.707 146.651 45.5887 146.648 45.4675C146.645 45.3464 146.673 45.2266 146.73 45.1194ZM164.095 36.5613L160.075 27.7194H159.945L156.009 36.5613H164.095Z" fill="#004D71"/>
<path d="M177.641 18.7948C177.641 18.5931 177.72 18.3994 177.861 18.2557C178.003 18.1119 178.195 18.0296 178.397 18.0265H187.854C189.059 17.9827 190.26 18.1823 191.386 18.6131C192.512 19.044 193.539 19.6974 194.407 20.5343C195.275 21.3712 195.965 22.3744 196.437 23.484C196.908 24.5936 197.151 25.7868 197.151 26.9925C197.151 28.1981 196.908 29.3913 196.437 30.5009C195.965 31.6105 195.275 32.6138 194.407 33.4506C193.539 34.2875 192.512 34.9409 191.386 35.3718C190.26 35.8027 189.059 36.0022 187.854 35.9584H182.865V45.4149C182.856 45.6148 182.772 45.8038 182.63 45.9441C182.487 46.0845 182.297 46.1657 182.097 46.1715H178.397C178.197 46.1715 178.004 46.0917 177.862 45.9499C177.72 45.808 177.641 45.6156 177.641 45.4149V18.7948ZM187.523 31.0174C188.07 31.0159 188.611 30.9062 189.115 30.6948C189.619 30.4834 190.077 30.1744 190.461 29.7855C190.846 29.3966 191.15 28.9355 191.355 28.4288C191.561 27.9221 191.665 27.3797 191.66 26.8329C191.646 26.3045 191.528 25.7841 191.312 25.3016C191.097 24.8191 190.788 24.3841 190.403 24.0215C190.019 23.6589 189.566 23.376 189.072 23.1891C188.577 23.0021 188.051 22.9147 187.523 22.9321H182.865V31.0174H187.523Z" fill="#004D71"/>
<path d="M202.027 18.7948C202.027 18.5911 202.108 18.3956 202.252 18.2515C202.396 18.1074 202.591 18.0265 202.795 18.0265H219.155C219.357 18.0296 219.549 18.1119 219.691 18.2557C219.832 18.3994 219.912 18.5931 219.912 18.7948V22.0928C219.912 22.2935 219.832 22.4859 219.69 22.6277C219.548 22.7696 219.356 22.8493 219.155 22.8493H207.252V29.4453H217.181C217.381 29.451 217.571 29.5322 217.714 29.6726C217.856 29.8129 217.94 30.0019 217.949 30.2018V33.547C217.946 33.7487 217.864 33.9411 217.72 34.0827C217.576 34.2242 217.383 34.3036 217.181 34.3035H207.252V41.3959H219.155C219.357 41.399 219.549 41.4813 219.691 41.6251C219.832 41.7689 219.912 41.9625 219.912 42.1643V45.4622C219.912 45.6629 219.832 45.8553 219.69 45.9972C219.548 46.139 219.356 46.2187 219.155 46.2187H202.795C202.593 46.2188 202.4 46.1394 202.256 45.9979C202.112 45.8563 202.03 45.6639 202.027 45.4622V18.7948Z" fill="#004D71"/>
<path d="M235.751 18.7948C235.751 18.5931 235.83 18.3994 235.972 18.2557C236.113 18.1119 236.306 18.0296 236.507 18.0265H248.009C250.315 18.0139 252.533 18.9165 254.175 20.5363C255.817 22.1561 256.749 24.361 256.768 26.6674C256.72 28.4599 256.129 30.1957 255.074 31.6455C254.019 33.0953 252.549 34.1911 250.858 34.7882L256.366 45.0012C256.447 45.1191 256.493 45.2577 256.498 45.4006C256.504 45.5436 256.469 45.6851 256.397 45.8088C256.325 45.9326 256.22 46.0334 256.093 46.0997C255.966 46.166 255.823 46.195 255.681 46.1833H251.425C251.293 46.19 251.162 46.1592 251.047 46.0943C250.932 46.0295 250.838 45.9332 250.775 45.8168L245.432 35.1782H240.976V45.4268C240.967 45.6266 240.883 45.8156 240.74 45.956C240.598 46.0963 240.407 46.1775 240.207 46.1833H236.507C236.307 46.1833 236.114 46.1036 235.973 45.9617C235.831 45.8198 235.751 45.6274 235.751 45.4268V18.7948ZM247.572 30.8519C248.639 30.8211 249.652 30.3754 250.396 29.6095C251.14 28.8436 251.556 27.8178 251.555 26.7501C251.531 25.709 251.1 24.7186 250.356 23.99C249.612 23.2614 248.613 22.8521 247.572 22.8493H241.023V30.8519H247.572Z" fill="#004D71"/>
<path d="M263.116 18.7948C263.116 18.5911 263.197 18.3956 263.341 18.2515C263.485 18.1074 263.68 18.0265 263.884 18.0265H280.244C280.446 18.0296 280.638 18.1119 280.78 18.2557C280.921 18.3994 281 18.5931 281 18.7948V22.0928C281 22.2935 280.921 22.4859 280.779 22.6277C280.637 22.7696 280.444 22.8493 280.244 22.8493H268.34V29.4453H278.27C278.47 29.451 278.66 29.5322 278.803 29.6726C278.945 29.8129 279.029 30.0019 279.038 30.2018V33.547C279.035 33.7487 278.953 33.9411 278.809 34.0827C278.665 34.2242 278.472 34.3036 278.27 34.3035H268.34V41.3959H280.244C280.446 41.399 280.638 41.4813 280.78 41.6251C280.921 41.7689 281 41.9625 281 42.1643V45.4622C281 45.6629 280.921 45.8553 280.779 45.9972C280.637 46.139 280.444 46.2187 280.244 46.2187H263.884C263.682 46.2188 263.489 46.1394 263.345 45.9979C263.201 45.8563 263.119 45.6639 263.116 45.4622V18.7948Z" fill="#004D71"/>
<path d="M299.654 17.6246C303.26 17.6658 306.734 18.99 309.453 21.3599C309.538 21.4331 309.606 21.5239 309.653 21.6259C309.7 21.7279 309.724 21.8387 309.724 21.9509C309.724 22.0631 309.7 22.174 309.653 22.276C309.606 22.378 309.538 22.4687 309.453 22.542L307.006 25.1071C306.942 25.182 306.862 25.2422 306.772 25.2834C306.682 25.3246 306.585 25.346 306.486 25.346C306.387 25.346 306.29 25.3246 306.2 25.2834C306.11 25.2422 306.03 25.182 305.966 25.1071C304.841 24.1616 303.505 23.5003 302.071 23.1788C300.637 22.8573 299.147 22.885 297.726 23.2597C296.305 23.6343 294.995 24.3448 293.906 25.3315C292.817 26.3181 291.981 27.552 291.468 28.9293C290.955 30.3065 290.781 31.7867 290.96 33.2453C291.138 34.704 291.665 36.0983 292.495 37.311C293.325 38.5236 294.435 39.519 295.73 40.2135C297.025 40.9079 298.468 41.281 299.937 41.3014C301.563 41.2747 303.169 40.9335 304.666 40.2966V36.9277H301.45C301.353 36.9325 301.255 36.9174 301.163 36.8834C301.072 36.8493 300.988 36.7969 300.917 36.7295C300.847 36.6621 300.79 36.5809 300.752 36.491C300.713 36.4012 300.694 36.3044 300.694 36.2067V33.0269C300.691 32.9262 300.708 32.8258 300.745 32.7319C300.781 32.638 300.837 32.5525 300.907 32.4807C300.978 32.4088 301.063 32.3521 301.156 32.3139C301.249 32.2757 301.35 32.2569 301.45 32.2585H309.169C309.366 32.2677 309.551 32.3531 309.685 32.4966C309.82 32.64 309.894 32.8302 309.89 33.0269V43.3109C309.893 43.4368 309.865 43.5615 309.809 43.6746C309.754 43.7876 309.672 43.8858 309.571 43.961C306.529 45.6743 303.097 46.5741 299.606 46.5734C295.845 46.4658 292.274 44.8962 289.652 42.1978C287.03 39.4995 285.563 35.8852 285.563 32.1226C285.563 28.3601 287.03 24.7457 289.652 22.0474C292.274 19.3491 295.845 17.7794 299.606 17.6719L299.654 17.6246Z" fill="#004D71"/>
<path d="M316.451 18.7948C316.46 18.5939 316.543 18.4034 316.686 18.2612C316.828 18.1189 317.018 18.0352 317.219 18.0265H320.931C321.131 18.0354 321.32 18.1195 321.46 18.262C321.6 18.4046 321.682 18.5949 321.687 18.7948V45.4031C321.679 45.601 321.596 45.7884 321.456 45.9284C321.316 46.0685 321.129 46.151 320.931 46.1596H317.196C316.996 46.1539 316.805 46.0727 316.663 45.9323C316.52 45.792 316.436 45.603 316.427 45.4031L316.451 18.7948Z" fill="#004D71"/>
<path d="M342.054 17.6246C344.913 17.6177 347.709 18.4577 350.091 20.0386C352.473 21.6195 354.332 23.8704 355.436 26.5073C356.54 29.1443 356.837 32.049 356.292 34.855C355.746 37.661 354.381 40.2425 352.37 42.2736C350.359 44.3048 347.791 45.6947 344.99 46.2678C342.19 46.8409 339.282 46.5715 336.634 45.4938C333.987 44.4161 331.718 42.5782 330.114 40.2122C328.51 37.8461 327.642 35.0579 327.621 32.1995C327.604 30.2926 327.965 28.4013 328.682 26.6345C329.4 24.8677 330.46 23.2604 331.802 21.9055C333.143 20.5505 334.74 19.4746 336.5 18.7399C338.26 18.0051 340.147 17.6261 342.054 17.6246ZM342.054 41.3368C343.886 41.3438 345.678 40.8065 347.204 39.7929C348.73 38.7794 349.92 37.3354 350.624 35.6441C351.328 33.9529 351.513 32.0908 351.157 30.2941C350.8 28.4974 349.918 26.847 348.622 25.5526C347.326 24.2582 345.674 23.378 343.877 23.0238C342.08 22.6697 340.218 22.8574 338.528 23.5632C336.837 24.2691 335.395 25.4612 334.383 26.9883C333.372 28.5154 332.837 30.3086 332.846 32.1404C332.864 34.5757 333.841 36.9059 335.564 38.6269C337.287 40.3479 339.619 41.3214 342.054 41.3368Z" fill="#004D71"/>
<path d="M362.386 18.3575C362.395 18.1599 362.48 17.9735 362.623 17.8369C362.766 17.7004 362.956 17.6244 363.154 17.6246H364.159L380.873 35.3556V18.8067C380.876 18.6039 380.958 18.4102 381.102 18.2667C381.245 18.1233 381.439 18.0414 381.642 18.0383H385.341C385.541 18.0472 385.73 18.1313 385.871 18.2739C386.011 18.4164 386.092 18.6067 386.098 18.8067V45.8523C386.092 46.0477 386.009 46.2329 385.867 46.3678C385.726 46.5027 385.537 46.5766 385.341 46.5734H384.372L367.575 28.1332V45.4149C367.572 45.6167 367.49 45.8091 367.346 45.9506C367.202 46.0922 367.008 46.1715 366.807 46.1715H363.154C362.954 46.1657 362.764 46.0845 362.621 45.9441C362.479 45.8038 362.395 45.6148 362.386 45.4149V18.3575Z" fill="#004D71"/>
<path d="M390.4 45.1194L402.895 18.0738C402.949 17.9371 403.043 17.8206 403.166 17.7401C403.289 17.6597 403.434 17.6193 403.581 17.6246H403.982C404.13 17.6156 404.276 17.6545 404.4 17.7355C404.523 17.8164 404.617 17.935 404.668 18.0738L417.044 45.1194C417.104 45.232 417.133 45.3586 417.127 45.486C417.121 45.6133 417.081 45.7368 417.01 45.8432C416.94 45.9497 416.843 46.0353 416.728 46.091C416.613 46.1466 416.486 46.1704 416.359 46.1596H412.812C412.555 46.1731 412.3 46.1018 412.086 45.9567C411.873 45.8115 411.713 45.6005 411.63 45.3558L409.656 41.0177H397.765L395.791 45.3558C395.708 45.6005 395.548 45.8115 395.335 45.9567C395.122 46.1018 394.866 46.1731 394.609 46.1596H391.122C390.992 46.1776 390.859 46.1593 390.739 46.1066C390.619 46.0539 390.516 45.9689 390.441 45.8612C390.367 45.7534 390.323 45.627 390.316 45.4961C390.309 45.3651 390.338 45.2347 390.4 45.1194ZM407.765 36.5613L403.746 27.7194H403.675L399.739 36.5613H407.765Z" fill="#004D71"/>
<path d="M421.312 18.7948C421.311 18.5931 421.391 18.3994 421.532 18.2557C421.674 18.1119 421.866 18.0296 422.068 18.0265H425.768C425.968 18.0354 426.157 18.1195 426.297 18.262C426.437 18.4046 426.519 18.5949 426.524 18.7948V41.3368H436.773C436.977 41.3368 437.172 41.4178 437.316 41.5619C437.46 41.706 437.541 41.9014 437.541 42.1052V45.4031C437.538 45.6049 437.456 45.7973 437.312 45.9388C437.168 46.0803 436.975 46.1597 436.773 46.1596H422.068C421.867 46.1596 421.675 46.08 421.533 45.9381C421.391 45.7962 421.312 45.6038 421.312 45.4031V18.7948Z" fill="#004D71"/>
<path d="M437.234 56.5027L278.601 54.9069L119.944 56.5027L278.601 58.0985L437.234 56.5027Z" fill="#004D71"/>
</g>
<defs>
<clipPath id="clip0_65_509">
<rect width="437.541" height="87" fill="white"/>
</clipPath>
</defs>
</svg>
