<svg width="244" height="67" xmlns="http://www.w3.org/2000/svg">
  <g fill="none" fill-rule="evenodd">
    <!-- <path d="M78.743 58.602v-8.886h2.409l2.371 6.226 2.396-6.226h2.39v8.886h-1.507v-7.378h-.025l-2.702 7.378h-1.103l-2.697-7.378h-.024v7.378h-1.508zm11.582 0v-8.886h5.883v1.428h-4.302v2.188h4.076v1.428h-4.076v2.414h4.53v1.428h-6.11zm7.667 0v-8.886h3.499c1.254 0 2.32.385 3.199 1.155.878.77 1.317 1.866 1.317 3.288 0 .727-.144 1.384-.432 1.97-.288.586-.664 1.053-1.127 1.4a5.407 5.407 0 0 1-1.505.797 5.058 5.058 0 0 1-1.642.276h-3.31zm1.58-1.428h1.177c1.07 0 1.939-.247 2.605-.741.666-.495.999-1.253.999-2.274 0-1.03-.3-1.79-.898-2.28-.599-.49-1.413-.735-2.442-.735h-1.44v6.03zm7.906 1.428v-8.886h1.581v8.886h-1.581zm3.046-4.406c0-1.414.437-2.552 1.311-3.414.874-.862 2.002-1.293 3.383-1.293 1.262 0 2.3.47 3.113 1.41l-1.232.9c-.551-.584-1.174-.876-1.869-.876-.903 0-1.637.304-2.203.91-.566.607-.849 1.362-.849 2.265 0 .964.283 1.754.85 2.371.565.617 1.3.926 2.202.926.768 0 1.434-.36 1.998-1.079l1.305.932c-.768 1.054-1.873 1.58-3.315 1.58-1.381 0-2.509-.426-3.383-1.28-.874-.854-1.311-1.971-1.311-3.352zm8.077 4.406l3.866-8.886h1.367l3.83 8.886h-1.808l-.827-2.035h-3.855l-.802 2.035H118.6zm3.113-3.389h2.757l-1.366-3.616-1.391 3.616zm6.937 3.389v-8.886h1.58v7.458h3.776v1.428h-5.356zm9.744-4.406c0-1.414.437-2.552 1.31-3.414.875-.862 2.003-1.293 3.384-1.293 1.499 0 2.665.372 3.499 1.116l-1.164 1.182c-.593-.576-1.367-.864-2.323-.864-.903 0-1.637.304-2.203.91-.566.607-.849 1.362-.849 2.265 0 .964.283 1.754.849 2.371.566.617 1.3.926 2.203.926.846 0 1.54-.154 2.084-.46V54.84h-1.82v-1.434h3.4v4.547c-1.094.585-2.32.877-3.676.877-1.381 0-2.509-.427-3.383-1.281-.874-.854-1.311-1.971-1.311-3.352zm10.24-4.48h3.088c.36 0 .694.024 1.002.07.309.048.608.131.898.252.29.12.537.275.741.463.205.187.367.433.488.735.12.302.18.645.18 1.03 0 .653-.18 1.194-.539 1.623-.36.43-.866.69-1.52.785l2.36 3.928h-1.906l-2.06-3.763h-1.151v3.763h-1.581v-8.886zm1.58 3.763h1.232c.217 0 .4-.006.552-.019.151-.012.32-.04.509-.085.188-.045.34-.11.456-.193a.973.973 0 0 0 .294-.365c.08-.16.12-.347.12-.564 0-.25-.052-.458-.156-.628a.887.887 0 0 0-.445-.368 2.412 2.412 0 0 0-.56-.15 4.805 4.805 0 0 0-.635-.037h-1.366v2.409zm5.847.717c0-1.414.437-2.552 1.311-3.414.875-.862 2.002-1.293 3.383-1.293h.117c1.344 0 2.443.417 3.296 1.25.879.858 1.318 1.994 1.318 3.408 0 1.38-.44 2.5-1.318 3.358-.878.858-2.016 1.3-3.413 1.324-1.38 0-2.508-.427-3.383-1.281-.874-.854-1.311-1.971-1.311-3.352zm1.655-.098c0 .964.282 1.754.848 2.371.566.617 1.3.926 2.203.926.911 0 1.65-.31 2.216-.929.566-.619.848-1.408.848-2.368 0-.903-.285-1.658-.854-2.265-.57-.606-1.307-.91-2.21-.91s-1.637.304-2.203.91c-.566.607-.848 1.362-.848 2.265zm9.235 1.244v-5.626h1.58v5.57c0 .528.161.998.482 1.413.32.415.824.622 1.51.622.687 0 1.191-.207 1.514-.622.323-.415.484-.885.484-1.412v-5.57h1.581v5.625c0 1.054-.337 1.898-1.01 2.534-.675.635-1.53.953-2.569.953-1.037 0-1.892-.318-2.564-.953-.672-.636-1.008-1.48-1.008-2.534zm9.094 3.26v-8.886h2.984c.964 0 1.752.201 2.363.604.61.402.916 1.059.916 1.97 0 .433-.066.809-.196 1.127-.131.32-.3.575-.509.767a2.293 2.293 0 0 1-.79.46c-.32.114-.639.19-.96.226-.32.037-.687.055-1.1.055h-1.127v3.677h-1.581zm1.58-5.031h.95c.225 0 .416-.004.574-.013.157-.008.338-.035.542-.082.204-.047.369-.113.493-.196.125-.084.233-.208.325-.371.092-.164.138-.362.138-.595 0-.829-.631-1.244-1.894-1.244h-1.127v2.5z" fill="#158F9C"/> -->
    <path d="M20.268 21.389l-4.41-4.111a24.274 24.274 0 0 0-1.621 1.934l4.814 3.627c.379-.505.785-.989 1.217-1.45m5.013-3.784l-2.738-5.37c-.75.382-1.48.803-2.186 1.26l3.284 5.058a18.13 18.13 0 0 1 1.64-.948m5.07-1.69c.311-.056.623-.102.936-.14l-.733-5.983a23.363 23.363 0 0 0-2.487.437l1.358 5.873c.307-.07.616-.134.927-.188M15.43 32.775l-6.02-.316c-.043.84-.042 1.684.003 2.524l6.02-.316a18.231 18.231 0 0 1-.003-1.892m1.415-6.12l-5.549-2.356c-.33.775-.619 1.567-.866 2.372l5.765 1.762c.186-.603.402-1.197.65-1.778m31.09-3.819l4.816-3.627a23.876 23.876 0 0 0-1.625-1.932l-4.408 4.111c.43.462.837.945 1.218 1.448m2.849 5.598l5.765-1.762a23.994 23.994 0 0 0-.862-2.373l-5.548 2.355c.247.581.462 1.176.645 1.78M37.562 16.098l1.354-5.874c-.82-.19-1.65-.336-2.486-.438l-.735 5.984c.628.077 1.25.186 1.867.328m5.778 2.458l3.283-5.055a24.2 24.2 0 0 0-2.186-1.262l-2.737 5.37c.563.287 1.11.603 1.64.947m-24.292 26.05l-4.815 3.627c.507.672 1.049 1.317 1.623 1.933l4.41-4.11c-.43-.462-.838-.945-1.218-1.45m27.669 1.447l4.408 4.112a24.265 24.265 0 0 0 1.623-1.935l-4.816-3.626c-.38.504-.785.987-1.215 1.45m-5.014 3.783l2.737 5.371a23.81 23.81 0 0 0 2.185-1.261l-3.283-5.057c-.53.344-1.077.66-1.64.947m9.852-15.17l6.02.316c.043-.84.042-1.683-.003-2.524l-6.02.316c.035.636.035 1.267.003 1.892m-1.415 6.12l5.547 2.355c.33-.775.619-1.566.866-2.37l-5.765-1.763c-.184.604-.4 1.198-.648 1.778m-26.496 8.099l-3.282 5.055c.706.459 1.435.88 2.185 1.264l2.736-5.372a17.948 17.948 0 0 1-1.639-.947m-7.446-9.877l-5.763 1.761c.245.806.532 1.598.86 2.374l5.55-2.356a18.126 18.126 0 0 1-.647-1.779m20.434 12.519c-.312.056-.626.102-.936.14l.734 5.983c.417-.05.834-.113 1.25-.184.414-.074.826-.158 1.236-.252L37.56 51.34c-.308.07-.618.133-.93.187m-7.207-.183l-1.357 5.876a24.33 24.33 0 0 0 2.487.437l.734-5.987a17.869 17.869 0 0 1-1.864-.326" fill="#FDDD04" fill-rule="nonzero"/>
    <path d="M18.978 14.462l-3.022-4.013a29.13 29.13 0 0 0-2.335 1.965l3.426 3.673a24.094 24.094 0 0 1 1.93-1.625m7.465-3.799L24.973 5.86c-.98.298-1.938.645-2.867 1.04l1.963 4.623c.769-.326 1.56-.612 2.373-.86M9.995 28.297l-4.896-1.13a28.791 28.791 0 0 0-.53 3.003l4.987.612c.103-.84.248-1.67.439-2.485m3.277-7.707l-4.213-2.735a28.933 28.933 0 0 0-1.526 2.64l4.476 2.28c.383-.75.805-1.479 1.263-2.185m41.706 2.183l4.476-2.281a28.957 28.957 0 0 0-1.524-2.642l-4.213 2.737c.455.702.878 1.431 1.261 2.186M34.754 9.639l.262-5.017a29.132 29.132 0 0 0-3.05.004l.264 5.017c.84-.046 1.683-.047 2.524-.004m22.481 19.896c.075.416.137.833.187 1.249l4.987-.613a29.952 29.952 0 0 0-.53-3.003l-4.897 1.13c.095.407.179.82.253 1.237m-14.322-18.01l1.962-4.623c-.936-.399-1.892-.748-2.864-1.046l-1.47 4.805c.806.246 1.597.535 2.372.864m7.023 4.563l3.424-3.674a29.3 29.3 0 0 0-2.335-1.96l-3.026 4.012c.673.506 1.32 1.048 1.937 1.622M48.003 52.98l3.025 4.014a28.927 28.927 0 0 0 2.334-1.964l-3.425-3.675a23.357 23.357 0 0 1-1.934 1.625m-7.461 3.8l1.468 4.803a28.23 28.23 0 0 0 2.866-1.04l-1.962-4.623c-.774.33-1.567.616-2.372.86m13.17-9.928l4.213 2.737a29.546 29.546 0 0 0 1.525-2.642l-4.475-2.28a24.3 24.3 0 0 1-1.263 2.185M9.747 37.908a27.353 27.353 0 0 1-.187-1.25l-4.985.614a30.045 30.045 0 0 0 .53 3.003L10 39.145c-.095-.41-.18-.822-.253-1.237m47.242 1.238l4.896 1.13c.23-.991.406-1.994.53-3.004l-4.987-.612a23.72 23.72 0 0 1-.44 2.486M12.005 44.67l-4.476 2.28c.461.908.97 1.79 1.526 2.643l4.212-2.737a24.238 24.238 0 0 1-1.262-2.186m5.043 6.685l-3.425 3.675c.745.694 1.525 1.35 2.337 1.96l3.023-4.013a24.721 24.721 0 0 1-1.935-1.622m15.183 6.45l-.264 5.015c1.016.054 2.034.053 3.05-.003l-.262-5.014a23.65 23.65 0 0 1-2.524.002m-8.16-1.887l-1.962 4.623c.935.4 1.891.75 2.864 1.047l1.47-4.805a23.568 23.568 0 0 1-2.373-.865" fill="#80CC28" fill-rule="nonzero"/>
    <path d="M20.262 7.757l-1.977-3.88a33.37 33.37 0 0 0-3.035 1.754l2.372 3.652a28.961 28.961 0 0 1 2.64-1.526zM4.392 32.196l-4.348-.228a33.781 33.781 0 0 0 .004 3.506l4.349-.227a28.997 28.997 0 0 1-.004-3.051zM28.433 5.03c.504-.089 1.008-.164 1.51-.226L29.41.485c-.576.07-1.155.158-1.733.26-.576.1-1.149.217-1.718.349l.98 4.241c.495-.114.993-.216 1.494-.304zM6.673 22.337l-4.008-1.702a33.288 33.288 0 0 0-1.202 3.294l4.165 1.273c.298-.973.646-1.93 1.045-2.865zm5.512-8.485L9 10.882A33.866 33.866 0 0 0 6.75 13.57l3.477 2.62a29.388 29.388 0 0 1 1.958-2.337zm44.578 2.333l3.478-2.621a33.837 33.837 0 0 0-2.256-2.683l-3.184 2.97a28.81 28.81 0 0 1 1.962 2.334zm4.592 9.018l4.164-1.273a33.284 33.284 0 0 0-1.196-3.296l-4.007 1.701c.393.929.739 1.887 1.039 2.868zM40.047 5.328l.98-4.242a33.131 33.131 0 0 0-3.452-.61l-.532 4.322c1.01.124 2.013.301 3.004.53zm9.312 3.96l2.37-3.65a33.213 33.213 0 0 0-3.036-1.754l-1.975 3.878a29.84 29.84 0 0 1 2.64 1.527zM46.72 59.687l1.975 3.88a32.768 32.768 0 0 0 3.04-1.752l-2.373-3.653c-.85.552-1.732 1.06-2.642 1.525zm-8.17 2.727c-.5.088-1.003.163-1.508.226l.531 4.32a34.028 34.028 0 0 0 3.45-.61l-.979-4.239c-.492.111-.99.215-1.494.303zm16.247-8.822l3.184 2.97a33.574 33.574 0 0 0 2.251-2.686l-3.475-2.621a29.518 29.518 0 0 1-1.96 2.337zm5.513-8.485l4.008 1.7c.459-1.075.86-2.174 1.202-3.292l-4.164-1.274c-.299.973-.648 1.93-1.046 2.866zm2.276-12.91c.055 1.025.056 2.043.004 3.051l4.348.227a33.48 33.48 0 0 0-.005-3.506l-4.347.229zM5.629 42.24l-4.164 1.274a33.48 33.48 0 0 0 1.197 3.294l4.007-1.7a29.163 29.163 0 0 1-1.04-2.868zm4.592 9.019l-3.479 2.62c.705.933 1.458 1.83 2.257 2.684l3.184-2.97a29.087 29.087 0 0 1-1.962-2.334zm16.716 10.857l-.98 4.242c1.14.263 2.292.466 3.452.61l.531-4.322a28.05 28.05 0 0 1-3.003-.53zm-9.311-3.96l-2.371 3.652c.98.636 1.994 1.221 3.035 1.753l1.976-3.879a29.307 29.307 0 0 1-2.64-1.527zm83.266-23.339c0 1.714-1.57 2.6-3.253 2.6-.943 0-2.027-.488-2.027-1.513 0-1.884 2.912-2 4.224-2h1.056v.913zm-2.396-9.047c-2.255 0-4.54.742-6.11 2.228l2.285 2.34c.913-1.029 2.083-1.658 3.482-1.658 1.484 0 2.74.972 2.74 2.484-3.57 0-9.39.084-9.39 4.88 0 2.797 2.338 4.283 4.937 4.283 1.741 0 3.454-.6 4.396-2.083h.056v1.742h3.94v-7.051c0-4.624-1.341-7.165-6.336-7.165zm29.77-6.51a2.487 2.487 0 0 0-2.482 2.484 2.486 2.486 0 0 0 2.483 2.485 2.487 2.487 0 0 0 2.483-2.485 2.488 2.488 0 0 0-2.483-2.484zM139.457 22h-4.281v4.112h-2.742v3.425h2.742v6.593c0 3.025 2.197 4.196 5.052 4.196 1 0 2.055-.087 2.997-.428V36.33c-.37.342-1.285.4-1.742.4-1.855 0-2.026-1.084-2.026-2.569v-4.624h3.768v-3.425h-3.768V22zm-23.892 14.557c-2.139 0-3.425-1.424-3.425-3.51 0-2.085 1.286-3.51 3.425-3.51 2.143 0 3.427 1.425 3.427 3.51 0 2.086-1.284 3.51-3.427 3.51zm.885-10.788c-1.94 0-3.596 1.17-4.253 2.17h-.057v-1.827h-3.94v20.38h4.281v-7.994h.059c.97 1.343 2.626 1.828 4.395 1.828 3.94 0 6.338-3.54 6.338-7.392 0-4.198-2.712-7.165-6.823-7.165zm-31.028 3.768c.885 0 1.685.457 2.113 1.055l2.825-2.966c-1.34-1.372-3.31-1.857-4.938-1.857-4.28 0-7.707 2.853-7.707 7.278 0 4.424 3.426 7.28 7.707 7.28 1.629 0 3.598-.486 4.938-1.857l-2.825-2.966c-.484.568-1.17 1.053-2.113 1.053-2.14 0-3.425-1.424-3.425-3.51 0-2.085 1.285-3.51 3.425-3.51zm40.705 10.448h4.28V26.112h-4.28v13.873zm28.26-5.169c0 1.714-1.571 2.6-3.253 2.6-.943 0-2.028-.488-2.028-1.513 0-1.884 2.912-2 4.223-2h1.057v.913zm-2.398-9.047c-2.256 0-4.538.742-6.109 2.228l2.284 2.34c.913-1.029 2.083-1.658 3.482-1.658 1.484 0 2.74.972 2.74 2.484-3.569 0-9.39.084-9.39 4.88 0 2.797 2.34 4.283 4.937 4.283 1.741 0 3.454-.6 4.395-2.083h.058v1.742h3.939v-7.051c0-4.624-1.341-7.165-6.336-7.165zm9.304 14.216h4.261v-21.58h-4.261v21.58z" fill="#158F9C" fill-rule="nonzero"/>
    <path d="M224.112 22.479h-4.281v4.111h-2.738v3.425h2.738v6.594c0 3.024 2.197 4.196 5.053 4.196.997 0 2.053-.087 2.996-.429v-3.568c-.372.343-1.284.4-1.742.4-1.854 0-2.026-1.083-2.026-2.568v-4.625h3.768V26.59h-3.768V22.48zm14.444 3.768c-2.084 0-3.483 1.143-3.881 2.229h-.057v-9.593h-4.283v21.58h4.283v-6.908c0-1.8.342-3.54 2.568-3.54 2.199 0 2.227 2.054 2.227 3.653v6.796h4.28V32.81c0-3.71-.8-6.564-5.137-6.564zM210.78 40.464h4.286v-21.58h-4.286v21.58zm-40.787-14.217c-.635 0-1.204.108-1.705.285v3.5c.106-.009.215-.017.334-.017 2.198 0 2.226 2.054 2.226 3.653v6.796h4.282V32.81c0-3.71-.8-6.564-5.137-6.564zm33.826 9.048c0 1.714-1.571 2.599-3.257 2.599-.94 0-2.029-.487-2.029-1.512 0-1.885 2.916-2 4.228-2h1.058v.913zm-2.4-9.048c-2.255 0-4.54.743-6.109 2.229l2.282 2.34c.915-1.03 2.087-1.658 3.485-1.658 1.483 0 2.742.971 2.742 2.483-3.57 0-9.394.085-9.394 4.88 0 2.798 2.339 4.284 4.94 4.284 1.74 0 3.453-.6 4.395-2.084h.059v1.743h3.937v-7.052c0-4.624-1.342-7.165-6.338-7.165zm-19.124 5.71c.112-1.343 1.14-2.627 3.026-2.627 1.541 0 2.655 1.199 2.626 2.626h-5.652zm3.425-5.71c-4.282 0-7.707 2.854-7.707 7.279 0 4.424 3.425 7.279 7.707 7.279 2.227 0 4.482-1.001 5.85-2.74l-2.995-2.198c-.713.97-1.654 1.685-3.054 1.685-1.656 0-2.886-1.057-3.226-2.683h9.93v-1.343c0-4.425-2.509-7.279-6.505-7.279z" fill="#80CC28" fill-rule="nonzero"/>
  </g>
</svg>
