<?xml version="1.0" encoding="UTF-8"?>
<svg xmlns="http://www.w3.org/2000/svg" xmlns:xlink="http://www.w3.org/1999/xlink" version="1.1" id="Layer_1" x="0px" y="0px" viewBox="0 0 504 144" style="enable-background:new 0 0 504 144;" xml:space="preserve"> <style type="text/css"> .st0{fill:#E74F3D;} .st1{fill:#76777A;} </style> <g> <g> <g> <path d="M28,80.49c-8.29,0-13.95-5.72-13.95-14.61c0-8.89,5.9-14.67,14.79-14.67c3.4,0,6.62,0.77,9.72,2.39 c-0.66,1.49-1.19,3.22-1.61,5.13c-1.67-3.76-4.35-5.61-8.11-5.61c-6.26,0-9.96,4.59-9.96,12.7c0,7.87,4.17,12.58,10.38,12.58 c3.34,0,6.14-1.37,9-4.29c-0.06,0.83-0.12,1.55-0.12,2.21c0,0.42,0,0.83,0.06,1.19C35.52,79.59,32.24,80.49,28,80.49z"></path> </g> <g> <path d="M48.51,80.43c-5.31,0-8.35-2.68-8.35-7.33c0.12-4.17,2.39-6.38,7.04-7.81c5.25-1.19,8.89-1.37,10.38-2.39v-1.55 c0-5.25-1.79-7.81-6.62-7.81c-3.28,0-5.84,1.43-7.69,4.23h-0.48l0.12-3.16c2.56-2.15,5.9-3.34,9.6-3.34 c6.8,0,9.42,3.22,9.42,10.02V62l-0.24,10.2v1.67c0,2.86,0.36,3.94,2.62,3.94c0.3,0,0.66,0,1.01-0.06l0.24,1.19 c-1.61,0.48-3.16,0.95-4.89,0.95c-2.03,0-2.92-1.07-3.28-3.46C54.89,79.05,51.91,80.43,48.51,80.43z M45.05,72.32 c0,3.64,2.09,5.67,5.43,5.67c1.91,0,4.35-1.01,5.96-2.62c0.95-0.95,1.01-1.67,1.01-2.56v-7.81 C48.87,66.53,45.05,67.78,45.05,72.32z"></path> </g> <g> <path d="M70.21,60.39c0-3.22-0.06-6.08-0.3-8.65c0.89,0.18,1.73,0.18,2.56,0.18c0.83,0,1.67,0,2.5-0.18 c-0.24,1.91-0.36,4.11-0.36,6.56c2.15-4.53,4.53-6.86,7.45-6.86c0.54,0,1.31,0.12,2.27,0.36c-0.24,1.19-0.3,2.74-0.3,4.47 l-0.48,0.3c-1.01-0.54-1.91-0.78-2.86-0.78c-4.53,0-6.26,3.94-6.26,12.05c0,5.31,0.12,9.36,0.3,12.05 c-0.83-0.18-1.73-0.18-2.56-0.18c-0.78,0-1.49,0-2.27,0.18C70.1,75.6,70.21,69.1,70.21,60.39z"></path> </g> <g> <path d="M99.91,80.43c-8.41,0-14.07-5.96-14.07-14.55c0-8.89,5.43-14.73,13.71-14.73c7.57,0,11.99,4.65,11.99,13 c0,0.42-0.06,0.83-0.06,1.31H90.96v0.18c0,8.11,3.52,12.4,10.02,12.4c3.46,0,6.38-1.25,9.18-4c-0.06,0.77-0.12,1.55-0.12,2.27 v0.72C106.94,79.29,103.61,80.43,99.91,80.43z M106.77,63.37v-1.01c0-5.96-2.86-9.36-7.45-9.36c-4.47,0-7.99,3.94-8.35,10.38 H106.77z"></path> </g> </g> <g> <g> <path class="st0" d="M378.08,10.97c0.33,14.82,0.86,44.6,1.05,59.42c0.5,19.82,0.59,39.62-1.05,59.42c0,0-0.3,0-0.3,0 c-1.64-19.79-1.55-39.59-1.05-59.42c0.19-14.8,0.72-44.62,1.05-59.42C377.78,10.97,378.08,10.97,378.08,10.97L378.08,10.97z"></path> </g> <g> <polygon class="st0" points="377.4,10.97 291.08,99.41 288.96,97.29 377.4,10.97 "></polygon> </g> <path class="st0" d="M476.75,62.8c-3.96,19.73-21.81,34.73-42.61,34.28C411.3,97,391.89,77.19,392.21,54.4 c-0.2-16.63,10.36-32.67,25.71-39.17c24-10.38,50.45,3.15,57.71,26.41c0.02-0.02,0.04-0.03,0.06-0.05 c-8.99-30.24-48.17-42.78-73.17-18.82c-17.66,17.02-17.65,46.23,0,63.25C428.71,111.1,470.43,96.18,476.75,62.8 C476.76,62.8,476.75,62.8,476.75,62.8z"></path> <g> <g> <path class="st0" d="M449.7,45.59c-3.41,3.76-5.64,6.15-6.69,7.18c-3.45,3.39-5.9,5.09-7.35,5.09c-1.52,0-2.28-1.12-2.28-3.35 c0-2.26,1.05-4.91,3.15-7.93c0.92-1.33,2.66-3.44,5.22-6.33c1.94-2.2,3.43-3.94,4.46-5.25c1.24-1.55,1.86-2.49,1.86-2.8 c0-0.14-0.07-0.22-0.21-0.22c-0.64,0-2.05,0.64-4.25,1.93c-2.2,1.29-4.44,3.17-6.74,5.64c-2.3,2.47-3.45,4.06-3.45,4.75 c0,0.26,0.13,0.39,0.4,0.39c0.64,0,1.5-0.34,2.6-1.01l1.57-1.01c0.08,0.04,0.12,0.1,0.12,0.18c0,0.47-0.64,1.1-1.92,1.87 c-1.21,0.74-2.07,1.1-2.58,1.1c-0.83,0-1.25-0.47-1.25-1.42c0-1.34,1.14-3.25,3.43-5.74c1.63-1.78,3.54-3.42,5.72-4.93 c2.66-1.85,4.79-2.78,6.4-2.78c0.88,0,1.32,0.5,1.32,1.5c0,1.24-1.29,3.43-3.86,6.59l-7.17,8.62c-2.56,3.37-3.84,5.91-3.84,7.63 c0,0.91,0.35,1.36,1.05,1.36c1.42,0,4.05-1.91,7.91-5.74c2.31-2.29,4.77-4.96,7.37-8.01c1.09-1.28,3.29-4.1,6.62-8.48 c0.98-1.3,1.58-1.95,1.79-1.95c0.2,0,0.42,0.09,0.64,0.26s0.33,0.37,0.33,0.61c0,0.26-0.11,0.55-0.32,0.85l-18.21,26.37l-2,2.56 c-0.96,1.22-1.5,2.06-1.6,2.51c0.12-0.04,0.33-0.2,0.61-0.49c0.25-0.28,0.43-0.41,0.53-0.41c0.1,0,0.17,0.05,0.21,0.16 c-0.01,0.2-0.48,0.82-1.41,1.87c-0.89,1.01-1.54,1.85-1.95,2.51c-0.38,0.6-0.69,0.91-0.94,0.91c-0.21,0-0.42-0.13-0.61-0.39 c-0.19-0.26-0.29-0.54-0.29-0.83c0-0.45,0.31-1.12,0.92-2.01l10.77-15.62L449.7,45.59z"></path> </g> <g> <path class="st0" d="M452.71,54.58c-0.51,0.16-1.48,0.76-2.89,1.81c-1.25,0.92-2.2,1.38-2.85,1.38c-0.12,0-0.18-0.09-0.18-0.26 c0-0.24,0.13-0.39,0.4-0.45c0.62-0.13,1.51-0.62,2.65-1.47c1.25-0.91,2.27-1.49,3.06-1.73c0.47-1.46,1.45-2.99,2.92-4.6 c1.57-1.72,2.91-2.58,4.02-2.58c0.82,0,1.23,0.45,1.23,1.34c0,1.17-0.87,2.45-2.6,3.83c-1.27,1.03-2.58,1.83-3.91,2.41 c-0.14,0.42-0.22,0.86-0.22,1.31c0,0.68,0.19,1.12,0.56,1.33c0.19,0.09,0.54,0.15,1.05,0.18c0.37,0.01,0.56,0.13,0.56,0.34 c0,0.34-0.63,0.5-1.9,0.5c-1.34,0-2.01-0.74-2.01-2.23C452.6,55.36,452.64,54.99,452.71,54.58z M454.74,53.48 c0.94-0.59,1.94-1.39,2.99-2.41c1.39-1.33,2.09-2.38,2.09-3.16c0-0.32-0.11-0.47-0.34-0.47c-0.67,0-1.58,0.79-2.72,2.37 C455.73,51.24,455.06,52.46,454.74,53.48z"></path> </g> <g> <path class="st0" d="M461.93,53.63c-2.74,2.77-4.63,4.15-5.66,4.15c-0.12,0-0.18-0.09-0.18-0.26c0-0.24,0.12-0.39,0.37-0.45 c0.96-0.2,2.3-1.15,4-2.86l1.98-1.99l3.19-3.25c1.46-1.29,2.7-1.93,3.74-1.93c0.77,0,1.2,0.49,1.29,1.48 c0.4-0.49,0.68-0.73,0.83-0.73c0.34,0,0.51,0.18,0.51,0.54c0,0.46-0.79,1.87-2.36,4.23c-1.58,2.36-2.36,3.73-2.36,4.12 c0,0.27,0.17,0.41,0.51,0.43c0.34,0.01,0.51,0.13,0.51,0.34c0,0.27-0.35,0.41-1.05,0.41c-0.69,0-1.03-0.39-1.03-1.17 c0-0.62,0.28-1.5,0.83-2.65l-1.91,2.08c-0.93,0.9-1.68,1.34-2.23,1.34c-0.88,0-1.32-0.57-1.32-1.72 C461.57,55.09,461.69,54.39,461.93,53.63z M469.57,47.84c-0.61,0-1.86,1.16-3.75,3.48c-1.9,2.32-2.85,3.87-2.85,4.65 c0,0.36,0.13,0.53,0.4,0.53c0.58,0,1.84-1.14,3.76-3.41c1.92-2.27,2.88-3.81,2.88-4.6C470.02,48.05,469.87,47.84,469.57,47.84z"></path> </g> <g> <path class="st0" d="M476.73,49.06c-0.05-0.43-0.08-0.7-0.08-0.79c0-0.35,0.33-0.91,0.99-1.67c0.66-0.76,1.12-1.13,1.36-1.13 c0.24,0,0.35,0.14,0.35,0.41c0,0.24-0.13,0.63-0.38,1.18c1.16,0,1.74,0.59,1.74,1.77c0,0.93-0.75,2.42-2.24,4.46 c-1.49,2.04-2.24,3.19-2.24,3.44c0,0.24,0.1,0.37,0.29,0.39l0.5-0.02c0.14,0,0.21,0.11,0.21,0.32c0,0.27-0.3,0.41-0.89,0.41 c-0.76,0-1.14-0.43-1.14-1.3c0-0.85,0.38-1.92,1.13-3.2c0.47-0.8,1.17-1.79,2.1-2.98c0.76-0.96,1.13-1.49,1.13-1.58 c0-0.2-0.09-0.3-0.26-0.3c-0.15,0-0.44,0.08-0.87,0.23c-0.43,0.15-0.68,0.27-0.76,0.36c-4.77,5.8-7.99,8.7-9.65,8.7 c-0.12,0-0.18-0.09-0.18-0.26c0-0.23,0.14-0.38,0.42-0.45c0.34-0.08,0.79-0.28,1.34-0.61c0.83-0.47,2.07-1.59,3.72-3.36 C474.79,51.53,475.93,50.19,476.73,49.06z"></path> </g> <g> <path class="st0" d="M481.85,54.4c-2.13,2.25-3.75,3.37-4.86,3.37c-0.12,0-0.18-0.08-0.18-0.24c0-0.24,0.1-0.4,0.31-0.47 c0.38-0.12,0.96-0.38,1.75-0.79c0.74-0.51,2.62-2.38,5.63-5.59c2.86-3.05,4.33-4.57,4.4-4.57c0.24,0,0.47,0.13,0.7,0.39 c0.23,0.26,0.35,0.54,0.35,0.85c0,0.96-0.58,2.65-1.75,5.06c-1.02,2.09-1.9,3.65-2.66,4.69c0.45,0,0.68,0.11,0.68,0.32 c0,0.27-0.22,0.41-0.65,0.41c-0.11,0-0.28-0.03-0.5-0.08c-0.22-0.05-0.39-0.08-0.5-0.08c-0.08,0-0.21,0.02-0.37,0.06 s-0.29,0.06-0.37,0.06C482.5,57.8,481.85,56.67,481.85,54.4z M483.85,56.75l-0.43-1.57c-0.23-0.77-0.45-1.15-0.66-1.15 c-0.23,0-0.34,0.23-0.34,0.68c0,0.45,0.1,0.91,0.31,1.39c0.24,0.54,0.51,0.81,0.83,0.81C483.68,56.91,483.78,56.86,483.85,56.75 z M484.3,56.14c0.72-0.76,1.51-2.08,2.37-3.95c0.8-1.74,1.36-3.27,1.68-4.61l-5.51,5.74c0.38,0.08,0.7,0.46,0.95,1.15 L484.3,56.14z"></path> </g> </g> </g> <g> <g> <path class="st1" d="M126.71,76.79c0-2.23-0.04-4.22-0.21-6c0.62,0.12,1.2,0.12,1.78,0.12c0.58,0,1.16,0,1.74-0.12 c-0.17,1.32-0.25,2.85-0.25,4.55c1.49-3.14,3.14-4.76,5.17-4.76c0.37,0,0.91,0.08,1.57,0.25c-0.17,0.83-0.21,1.9-0.21,3.1 l-0.33,0.21c-0.7-0.37-1.32-0.54-1.98-0.54c-3.14,0-4.34,2.73-4.34,8.35c0,3.68,0.08,6.49,0.21,8.35 c-0.58-0.12-1.2-0.12-1.78-0.12c-0.54,0-1.03,0-1.57,0.12C126.63,87.34,126.71,82.83,126.71,76.79z"></path> </g> <g> <path class="st1" d="M147.31,90.69c-5.83,0-9.76-4.14-9.76-10.09c0-6.16,3.76-10.21,9.51-10.21c5.25,0,8.31,3.23,8.31,9.01 c0,0.29-0.04,0.58-0.04,0.91H141.1v0.12c0,5.62,2.44,8.6,6.95,8.6c2.4,0,4.42-0.87,6.37-2.77c-0.04,0.54-0.08,1.08-0.08,1.57v0.5 C152.19,89.9,149.87,90.69,147.31,90.69z M152.06,78.86v-0.7c0-4.14-1.98-6.49-5.17-6.49c-3.1,0-5.54,2.73-5.79,7.2H152.06z"></path> </g> <g> <path class="st1" d="M163.06,89.16c2.44,0,4.01-1.41,4.01-3.76c0-1.94-1.08-2.77-3.27-3.39l-1.9-0.54 c-3.14-0.87-4.47-2.4-4.47-5.33c0-3.27,2.44-5.71,6.33-5.71c1.98,0,3.76,0.5,5.17,1.36c-0.41,0.87-0.7,1.74-0.87,2.6 c-1.57-1.82-3.14-2.73-4.8-2.73c-2.07,0-3.51,1.41-3.51,3.47c0,1.9,0.99,2.85,3.14,3.47l2.81,0.83c2.73,0.79,3.97,2.15,3.97,4.76 c0,3.68-2.89,6.49-7.32,6.49c-2.07,0-3.93-0.5-5.33-1.49c0.41-1.07,0.74-2.15,0.99-3.18C159.38,88.12,161.08,89.16,163.06,89.16z "></path> </g> <g> <path class="st1" d="M171.29,80.56c0-6.04,4.22-10.13,9.8-10.13c5.75,0,9.8,4.09,9.8,10.13c0,6.16-4.18,10.13-9.8,10.13 C175.38,90.69,171.29,86.59,171.29,80.56z M187.38,80.8c0-6-2.23-9.14-6.33-9.14c-4.05,0-6.24,3.02-6.24,8.85 c0,5.87,2.19,8.93,6.29,8.93C185.14,89.45,187.38,86.47,187.38,80.8z"></path> </g> <g> <path class="st1" d="M207.72,89.61c0-0.74-0.04-1.61-0.08-2.6c-1.41,2.56-3.56,3.76-6.62,3.76c-4.22,0-6.49-2.32-6.49-6.82 c0-1.49,0.21-4.67,0.21-9.63c0-1.24-0.04-2.4-0.08-3.52c0.54,0.12,1.07,0.12,1.65,0.12s1.16,0,1.78-0.12 c-0.41,3.93-0.62,7.86-0.62,11.66c0,4.3,1.45,6.37,4.84,6.37c2.15,0,3.93-1.12,4.76-2.98c0.74-1.65,0.74-4.96,0.74-9.97 c0-1.9-0.08-3.6-0.21-5.09c0.58,0.12,1.16,0.12,1.74,0.12c0.54,0,1.08,0,1.61-0.12c-0.12,2.36-0.17,6.2-0.17,11.58 c0,2.15,0,4.8,0.12,7.94c-0.41-0.04-0.87-0.12-1.32-0.12c-0.62,0-1.24,0.08-1.86,0.17V89.61z"></path> </g> <g> <path class="st1" d="M216.45,76.79c0-2.23-0.04-4.22-0.21-6c0.62,0.12,1.2,0.12,1.78,0.12c0.58,0,1.16,0,1.74-0.12 c-0.17,1.32-0.25,2.85-0.25,4.55c1.49-3.14,3.14-4.76,5.17-4.76c0.37,0,0.91,0.08,1.57,0.25c-0.17,0.83-0.21,1.9-0.21,3.1 l-0.33,0.21c-0.7-0.37-1.32-0.54-1.98-0.54c-3.14,0-4.34,2.73-4.34,8.35c0,3.68,0.08,6.49,0.21,8.35 c-0.58-0.12-1.2-0.12-1.78-0.12c-0.54,0-1.03,0-1.57,0.12C216.37,87.34,216.45,82.83,216.45,76.79z"></path> </g> <g> <path class="st1" d="M236.92,90.73c-5.75,0-9.68-3.97-9.68-10.13c0-6.16,4.09-10.17,10.26-10.17c2.36,0,4.59,0.54,6.74,1.65 c-0.46,1.03-0.83,2.23-1.12,3.56c-1.16-2.6-3.02-3.89-5.62-3.89c-4.34,0-6.91,3.18-6.91,8.81c0,5.46,2.89,8.73,7.19,8.73 c2.32,0,4.26-0.95,6.24-2.98c-0.04,0.58-0.08,1.08-0.08,1.53c0,0.29,0,0.58,0.04,0.83C242.13,90.11,239.85,90.73,236.92,90.73z"></path> </g> <g> <path class="st1" d="M255.24,90.69c-5.83,0-9.76-4.14-9.76-10.09c0-6.16,3.76-10.21,9.51-10.21c5.25,0,8.31,3.23,8.31,9.01 c0,0.29-0.04,0.58-0.04,0.91h-14.22v0.12c0,5.62,2.44,8.6,6.95,8.6c2.4,0,4.42-0.87,6.37-2.77c-0.04,0.54-0.08,1.08-0.08,1.57 v0.5C260.12,89.9,257.8,90.69,255.24,90.69z M259.99,78.86v-0.7c0-4.14-1.98-6.49-5.17-6.49c-3.1,0-5.54,2.73-5.79,7.2H259.99z"></path> </g> </g> <g> <g> <path d="M178.51,108.89c0.51,0.27,0.9,0.65,1.18,1.14c0.28,0.49,0.42,1.03,0.42,1.64c0,0.79-0.2,1.52-0.61,2.18 c-0.41,0.66-0.96,1.18-1.65,1.56c-0.69,0.38-1.44,0.57-2.25,0.57h-3.19l1.49-7.5h2.87C177.42,108.49,178,108.62,178.51,108.89z M178.74,110.58c-0.21-0.36-0.5-0.64-0.87-0.84c-0.37-0.2-0.79-0.31-1.26-0.31h-1.88l-1.11,5.61h2.17c0.57,0,1.11-0.14,1.61-0.43 c0.5-0.29,0.9-0.68,1.21-1.17c0.3-0.5,0.46-1.04,0.46-1.64C179.05,111.34,178.95,110.93,178.74,110.58z"></path> </g> <g> <path d="M185.71,110.95c0.44,0.44,0.66,1.04,0.66,1.78c0,0.24-0.03,0.51-0.09,0.81h-4.58c0.02,0.51,0.19,0.92,0.51,1.22 c0.32,0.3,0.75,0.45,1.28,0.45c0.31,0,0.61-0.05,0.9-0.15c0.29-0.1,0.54-0.24,0.76-0.43l0.46,0.65c-0.58,0.5-1.3,0.75-2.15,0.75 c-0.55,0-1.03-0.11-1.45-0.32c-0.41-0.21-0.73-0.52-0.96-0.91c-0.22-0.39-0.34-0.85-0.34-1.36c0-0.59,0.14-1.13,0.42-1.61 c0.28-0.48,0.66-0.86,1.15-1.14c0.49-0.27,1.02-0.41,1.62-0.41C184.67,110.29,185.27,110.51,185.71,110.95z M185.08,111.54 c-0.27-0.29-0.66-0.43-1.17-0.43c-0.5,0-0.94,0.15-1.33,0.46c-0.39,0.31-0.65,0.71-0.78,1.2h3.67 C185.48,112.24,185.35,111.83,185.08,111.54z"></path> </g> <g> <path d="M189.8,108.04l-1.59,7.95h-1.01l1.58-7.95H189.8z"></path> </g> <g> <path d="M192.33,110.32l-1.12,5.67h-1l1.12-5.67H192.33z M192.65,108.2c0.09,0.1,0.14,0.22,0.14,0.38c0,0.21-0.08,0.39-0.23,0.54 c-0.15,0.15-0.33,0.22-0.53,0.22c-0.15,0-0.27-0.05-0.36-0.16s-0.14-0.23-0.14-0.38c0-0.21,0.08-0.38,0.22-0.53 c0.15-0.15,0.33-0.22,0.53-0.22C192.43,108.06,192.56,108.11,192.65,108.2z"></path> </g> <g> <path d="M198.8,110.32l-3.33,5.67h-1.04l-1.09-5.67h1.04l0.75,4.68l2.65-4.68H198.8z"></path> </g> <g> <path d="M203.42,110.95c0.44,0.44,0.66,1.04,0.66,1.78c0,0.24-0.03,0.51-0.09,0.81h-4.58c0.02,0.51,0.19,0.92,0.51,1.22 c0.32,0.3,0.75,0.45,1.28,0.45c0.31,0,0.61-0.05,0.9-0.15c0.29-0.1,0.54-0.24,0.76-0.43l0.46,0.65c-0.58,0.5-1.3,0.75-2.15,0.75 c-0.55,0-1.03-0.11-1.45-0.32c-0.41-0.21-0.73-0.52-0.96-0.91c-0.22-0.39-0.34-0.85-0.34-1.36c0-0.59,0.14-1.13,0.42-1.61 c0.28-0.48,0.66-0.86,1.15-1.14c0.49-0.27,1.02-0.41,1.62-0.41C202.38,110.29,202.99,110.51,203.42,110.95z M202.79,111.54 c-0.27-0.29-0.66-0.43-1.17-0.43c-0.5,0-0.94,0.15-1.33,0.46c-0.39,0.31-0.65,0.71-0.78,1.2h3.67 C203.19,112.24,203.06,111.83,202.79,111.54z"></path> </g> <g> <path d="M208.98,110.29l-0.13,0.96c-0.57-0.02-1.07,0.14-1.5,0.47c-0.43,0.34-0.73,0.78-0.89,1.34l-0.58,2.93h-1.01l1.12-5.67 H207l-0.24,1.17C207.28,110.7,208.02,110.3,208.98,110.29z"></path> </g> <g> <path d="M211.1,110.32l-1.12,5.67h-1l1.12-5.67H211.1z M211.42,108.2c0.09,0.1,0.14,0.22,0.14,0.38c0,0.21-0.08,0.39-0.23,0.54 c-0.15,0.15-0.33,0.22-0.53,0.22c-0.15,0-0.27-0.05-0.36-0.16s-0.14-0.23-0.14-0.38c0-0.21,0.08-0.38,0.23-0.53 c0.15-0.15,0.32-0.22,0.52-0.22C211.21,108.06,211.33,108.11,211.42,108.2z"></path> </g> <g> <path d="M217.42,110.74c0.36,0.32,0.54,0.76,0.54,1.32c0,0.19-0.02,0.38-0.06,0.59l-0.68,3.34h-1.01l0.64-3.23 c0.03-0.12,0.04-0.25,0.04-0.4c0-0.37-0.12-0.66-0.35-0.88c-0.23-0.21-0.56-0.32-0.98-0.32c-0.5,0-0.93,0.16-1.3,0.48 c-0.37,0.32-0.61,0.75-0.72,1.3l-0.61,3.04h-1.01l1.11-5.67h1.02l-0.19,0.95c0.47-0.66,1.15-1,2.05-1.02 C216.56,110.25,217.06,110.41,217.42,110.74z"></path> </g> <g> <path d="M219.67,117.89c-0.38-0.13-0.75-0.34-1.1-0.62l0.48-0.67c0.51,0.44,1.12,0.65,1.82,0.65c0.59,0,1.08-0.13,1.45-0.39 c0.38-0.26,0.62-0.63,0.73-1.12l0.21-0.94c-0.25,0.29-0.55,0.52-0.89,0.67c-0.34,0.15-0.71,0.23-1.09,0.23 c-0.44,0-0.83-0.1-1.17-0.3c-0.34-0.2-0.6-0.48-0.79-0.84s-0.28-0.78-0.28-1.25c0-0.56,0.13-1.07,0.39-1.53 c0.26-0.46,0.61-0.83,1.05-1.1c0.44-0.27,0.93-0.4,1.47-0.4c0.5,0,0.92,0.11,1.25,0.33c0.34,0.22,0.57,0.53,0.71,0.95l0.26-1.23 h1l-1.11,5.49c-0.16,0.74-0.5,1.31-1.04,1.7c-0.54,0.39-1.24,0.58-2.1,0.58C220.46,118.09,220.05,118.02,219.67,117.89z M222.64,114.59c0.31-0.19,0.55-0.44,0.73-0.77c0.18-0.32,0.27-0.67,0.27-1.06c0-0.48-0.14-0.87-0.43-1.16 c-0.29-0.3-0.67-0.45-1.14-0.45c-0.36,0-0.7,0.09-1.01,0.28c-0.31,0.19-0.55,0.44-0.73,0.77c-0.18,0.32-0.27,0.67-0.27,1.06 c0,0.48,0.15,0.87,0.44,1.16c0.29,0.3,0.68,0.45,1.15,0.45C222,114.87,222.33,114.78,222.64,114.59z"></path> </g> <g> <path d="M234.67,108.72c0.47,0.2,0.87,0.47,1.2,0.83l-0.69,0.74c-0.26-0.3-0.57-0.53-0.93-0.7c-0.36-0.17-0.74-0.25-1.13-0.25 c-0.57,0-1.1,0.14-1.59,0.43c-0.49,0.29-0.88,0.67-1.17,1.16s-0.44,1.01-0.44,1.59c0,0.48,0.11,0.92,0.34,1.31 c0.23,0.4,0.54,0.71,0.94,0.94s0.84,0.34,1.33,0.34c0.39,0,0.79-0.08,1.18-0.24c0.39-0.16,0.75-0.38,1.07-0.66l0.56,0.68 c-0.42,0.37-0.89,0.66-1.4,0.87s-1.03,0.32-1.54,0.32c-0.67,0-1.28-0.15-1.81-0.46c-0.54-0.31-0.96-0.73-1.26-1.25 s-0.46-1.12-0.46-1.77c0-0.76,0.2-1.45,0.59-2.09c0.39-0.64,0.92-1.14,1.58-1.51c0.66-0.37,1.38-0.56,2.15-0.56 C233.71,108.42,234.2,108.52,234.67,108.72z"></path> </g> <g> <path d="M240.89,110.61c0.4,0.22,0.71,0.52,0.93,0.92c0.22,0.39,0.33,0.84,0.33,1.34c0,0.61-0.14,1.15-0.42,1.63 s-0.67,0.85-1.16,1.12c-0.49,0.27-1.04,0.4-1.64,0.4c-0.53,0-0.99-0.11-1.39-0.33s-0.7-0.52-0.92-0.92s-0.33-0.84-0.33-1.35 c0-0.6,0.14-1.14,0.42-1.62s0.66-0.85,1.15-1.12c0.49-0.27,1.04-0.4,1.64-0.4C240.03,110.29,240.49,110.39,240.89,110.61z M238.34,111.44c-0.32,0.19-0.58,0.45-0.76,0.79c-0.19,0.34-0.28,0.72-0.28,1.15c0,0.54,0.16,0.97,0.47,1.3 c0.31,0.33,0.73,0.49,1.24,0.49c0.4,0,0.76-0.09,1.08-0.28c0.32-0.19,0.57-0.45,0.75-0.79c0.19-0.34,0.28-0.72,0.28-1.15 c0-0.53-0.16-0.96-0.47-1.29c-0.31-0.33-0.72-0.5-1.24-0.5C239.02,111.15,238.66,111.25,238.34,111.44z"></path> </g> <g> <path d="M252.78,110.74c0.36,0.32,0.54,0.76,0.54,1.32c0,0.19-0.02,0.38-0.06,0.59l-0.67,3.34h-1.01l0.64-3.23 c0.03-0.12,0.04-0.25,0.04-0.4c0-0.37-0.12-0.66-0.35-0.88c-0.23-0.21-0.56-0.32-0.98-0.32c-0.48,0-0.9,0.15-1.26,0.45 c-0.36,0.3-0.61,0.69-0.73,1.19l-0.64,3.18h-1.01l0.64-3.23c0.03-0.12,0.04-0.25,0.04-0.4c0-0.37-0.12-0.66-0.35-0.88 c-0.23-0.21-0.56-0.32-0.98-0.32c-0.5,0-0.94,0.16-1.31,0.49c-0.37,0.32-0.61,0.75-0.72,1.29l-0.61,3.04H243l1.11-5.67h1.02 l-0.19,0.95c0.47-0.66,1.15-1,2.05-1.02c0.56,0,1.01,0.12,1.36,0.36s0.56,0.58,0.65,1.01c0.53-0.9,1.29-1.36,2.28-1.37 C251.91,110.25,252.42,110.41,252.78,110.74z"></path> </g> <g> <path d="M259.71,110.59c0.36,0.21,0.64,0.51,0.84,0.89c0.2,0.39,0.3,0.83,0.3,1.33c0,0.59-0.13,1.14-0.4,1.63 c-0.27,0.49-0.64,0.88-1.11,1.17c-0.47,0.29-0.99,0.43-1.56,0.43c-0.53,0-0.97-0.12-1.33-0.36c-0.36-0.24-0.61-0.59-0.76-1.03 l-0.7,3.42h-1l1.54-7.75h1l-0.19,0.93c0.26-0.31,0.58-0.55,0.94-0.72s0.76-0.26,1.18-0.26 C258.93,110.28,259.35,110.38,259.71,110.59z M257.05,111.41c-0.33,0.2-0.59,0.48-0.78,0.83c-0.19,0.35-0.29,0.74-0.29,1.16 c0,0.53,0.16,0.95,0.47,1.27s0.72,0.48,1.22,0.48c0.4,0,0.77-0.1,1.1-0.31s0.6-0.49,0.79-0.84c0.2-0.35,0.29-0.73,0.29-1.15 c0-0.52-0.16-0.94-0.48-1.27c-0.32-0.33-0.73-0.49-1.24-0.49C257.74,111.1,257.38,111.2,257.05,111.41z"></path> </g> <g> <path d="M262.83,115.72c-0.36-0.21-0.64-0.51-0.84-0.89c-0.2-0.38-0.3-0.82-0.3-1.32c0-0.6,0.13-1.15,0.4-1.64 c0.27-0.49,0.64-0.88,1.11-1.16s0.99-0.42,1.56-0.42c0.53,0,0.97,0.12,1.33,0.36c0.36,0.24,0.61,0.59,0.76,1.03l0.28-1.35h1 l-1.12,5.67h-1l0.19-0.92c-0.26,0.31-0.58,0.55-0.94,0.72c-0.36,0.17-0.76,0.26-1.18,0.26 C263.6,116.04,263.19,115.93,262.83,115.72z M265.49,114.9c0.33-0.2,0.59-0.48,0.78-0.83c0.19-0.35,0.29-0.74,0.29-1.16 c0-0.53-0.16-0.95-0.47-1.28s-0.72-0.48-1.22-0.48c-0.4,0-0.77,0.1-1.1,0.31c-0.33,0.21-0.6,0.49-0.79,0.83 c-0.2,0.35-0.29,0.73-0.29,1.15c0,0.52,0.16,0.95,0.48,1.27c0.32,0.32,0.73,0.49,1.24,0.49 C264.8,115.2,265.16,115.1,265.49,114.9z"></path> </g> <g> <path d="M269.46,115.76c-0.46-0.2-0.81-0.45-1.05-0.77l0.46-0.67c0.22,0.26,0.52,0.48,0.89,0.65c0.37,0.17,0.74,0.26,1.09,0.26 c0.32,0,0.59-0.07,0.79-0.22s0.31-0.34,0.31-0.58c0-0.22-0.09-0.4-0.27-0.53c-0.18-0.13-0.45-0.26-0.83-0.41 c-0.34-0.14-0.6-0.26-0.8-0.38s-0.37-0.27-0.51-0.47c-0.14-0.2-0.21-0.44-0.21-0.73c0-0.49,0.19-0.89,0.56-1.19 c0.37-0.3,0.86-0.46,1.46-0.46c0.41,0,0.8,0.07,1.19,0.21c0.39,0.14,0.71,0.32,0.96,0.55l-0.49,0.7 c-0.24-0.19-0.52-0.34-0.83-0.46c-0.31-0.12-0.59-0.18-0.86-0.18c-0.29,0-0.53,0.07-0.72,0.2s-0.28,0.31-0.28,0.54 c0,0.2,0.09,0.36,0.27,0.48c0.18,0.12,0.45,0.25,0.8,0.4c0.33,0.14,0.6,0.26,0.81,0.38c0.21,0.12,0.4,0.28,0.55,0.48 c0.15,0.2,0.23,0.46,0.23,0.75c0,0.34-0.09,0.63-0.27,0.89s-0.43,0.46-0.74,0.61c-0.32,0.15-0.68,0.22-1.09,0.22 C270.39,116.05,269.92,115.95,269.46,115.76z"></path> </g> <g> <path d="M274.53,115.76c-0.46-0.2-0.81-0.45-1.05-0.77l0.46-0.67c0.22,0.26,0.52,0.48,0.89,0.65c0.37,0.17,0.74,0.26,1.09,0.26 c0.32,0,0.58-0.07,0.79-0.22c0.21-0.15,0.31-0.34,0.31-0.58c0-0.22-0.09-0.4-0.27-0.53c-0.18-0.13-0.45-0.26-0.82-0.41 c-0.34-0.14-0.6-0.26-0.8-0.38c-0.2-0.11-0.37-0.27-0.51-0.47s-0.21-0.44-0.21-0.73c0-0.49,0.19-0.89,0.56-1.19 s0.86-0.46,1.46-0.46c0.41,0,0.8,0.07,1.19,0.21c0.39,0.14,0.71,0.32,0.96,0.55l-0.49,0.7c-0.24-0.19-0.52-0.34-0.83-0.46 c-0.31-0.12-0.59-0.18-0.86-0.18c-0.29,0-0.53,0.07-0.72,0.2s-0.28,0.31-0.28,0.54c0,0.2,0.09,0.36,0.27,0.48 c0.18,0.12,0.45,0.25,0.8,0.4c0.33,0.14,0.6,0.26,0.81,0.38c0.21,0.12,0.4,0.28,0.55,0.48c0.15,0.2,0.22,0.46,0.22,0.75 c0,0.34-0.09,0.63-0.27,0.89s-0.43,0.46-0.75,0.61c-0.32,0.15-0.68,0.22-1.09,0.22C275.46,116.05,274.99,115.95,274.53,115.76z"></path> </g> <g> <path d="M281.2,110.32l-1.12,5.67h-1l1.12-5.67H281.2z M281.52,108.2c0.09,0.1,0.14,0.22,0.14,0.38c0,0.21-0.08,0.39-0.23,0.54 c-0.15,0.15-0.33,0.22-0.53,0.22c-0.15,0-0.27-0.05-0.36-0.16s-0.14-0.23-0.14-0.38c0-0.21,0.08-0.38,0.23-0.53 c0.15-0.15,0.32-0.22,0.52-0.22C281.3,108.06,281.43,108.11,281.52,108.2z"></path> </g> <g> <path d="M286.63,110.61c0.4,0.22,0.71,0.52,0.93,0.92c0.22,0.39,0.33,0.84,0.33,1.34c0,0.61-0.14,1.15-0.42,1.63 s-0.67,0.85-1.16,1.12c-0.49,0.27-1.04,0.4-1.64,0.4c-0.53,0-0.99-0.11-1.39-0.33s-0.7-0.52-0.92-0.92s-0.33-0.84-0.33-1.35 c0-0.6,0.14-1.14,0.42-1.62c0.28-0.48,0.66-0.85,1.15-1.12s1.04-0.4,1.64-0.4C285.77,110.29,286.23,110.39,286.63,110.61z M284.08,111.44c-0.32,0.19-0.58,0.45-0.76,0.79c-0.19,0.34-0.28,0.72-0.28,1.15c0,0.54,0.16,0.97,0.47,1.3 c0.31,0.33,0.73,0.49,1.24,0.49c0.4,0,0.76-0.09,1.08-0.28c0.32-0.19,0.57-0.45,0.76-0.79c0.19-0.34,0.28-0.72,0.28-1.15 c0-0.53-0.16-0.96-0.47-1.29c-0.31-0.33-0.72-0.5-1.24-0.5C284.76,111.15,284.4,111.25,284.08,111.44z"></path> </g> <g> <path d="M294.23,110.74c0.36,0.32,0.54,0.76,0.54,1.32c0,0.19-0.02,0.38-0.06,0.59l-0.68,3.34h-1.01l0.64-3.23 c0.03-0.12,0.04-0.25,0.04-0.4c0-0.37-0.12-0.66-0.35-0.88c-0.23-0.21-0.56-0.32-0.98-0.32c-0.5,0-0.93,0.16-1.3,0.48 c-0.37,0.32-0.61,0.75-0.72,1.3l-0.61,3.04h-1.01l1.11-5.67h1.02l-0.19,0.95c0.47-0.66,1.15-1,2.05-1.02 C293.37,110.25,293.87,110.41,294.23,110.74z"></path> </g> <g> <path d="M296.96,115.72c-0.36-0.21-0.64-0.51-0.84-0.89c-0.2-0.38-0.3-0.82-0.3-1.32c0-0.6,0.13-1.15,0.4-1.64 c0.27-0.49,0.64-0.88,1.11-1.16s0.99-0.42,1.56-0.42c0.53,0,0.97,0.12,1.33,0.36c0.36,0.24,0.61,0.59,0.76,1.03l0.28-1.35h1 l-1.12,5.67h-1l0.19-0.92c-0.26,0.31-0.58,0.55-0.94,0.72c-0.36,0.17-0.76,0.26-1.18,0.26 C297.74,116.04,297.32,115.93,296.96,115.72z M299.63,114.9c0.33-0.2,0.59-0.48,0.78-0.83c0.19-0.35,0.29-0.74,0.29-1.16 c0-0.53-0.16-0.95-0.47-1.28s-0.72-0.48-1.22-0.48c-0.4,0-0.77,0.1-1.1,0.31c-0.33,0.21-0.6,0.49-0.79,0.83 c-0.2,0.35-0.29,0.73-0.29,1.15c0,0.52,0.16,0.95,0.48,1.27c0.32,0.32,0.73,0.49,1.24,0.49 C298.94,115.2,299.3,115.1,299.63,114.9z"></path> </g> <g> <path d="M304.62,114.28c-0.03,0.12-0.04,0.24-0.04,0.35c0,0.17,0.04,0.29,0.12,0.36c0.08,0.07,0.21,0.11,0.38,0.11 c0.28,0,0.6-0.1,0.96-0.29l0.18,0.8c-0.47,0.27-0.93,0.41-1.38,0.41c-0.39,0-0.7-0.1-0.93-0.31c-0.23-0.2-0.35-0.5-0.35-0.89 c0-0.16,0.01-0.32,0.04-0.46l0.62-3.1h-0.8l0.14-0.76h0.81l0.3-1.52h1l-0.3,1.52h1.74l-0.14,0.76h-1.76L304.62,114.28z"></path> </g> <g> <path d="M312.29,110.95c0.44,0.44,0.66,1.04,0.66,1.78c0,0.24-0.03,0.51-0.08,0.81h-4.58c0.02,0.51,0.19,0.92,0.51,1.22 c0.32,0.3,0.74,0.45,1.28,0.45c0.31,0,0.61-0.05,0.9-0.15c0.29-0.1,0.54-0.24,0.76-0.43l0.46,0.65c-0.58,0.5-1.3,0.75-2.15,0.75 c-0.55,0-1.03-0.11-1.45-0.32c-0.42-0.21-0.73-0.52-0.96-0.91c-0.23-0.39-0.34-0.85-0.34-1.36c0-0.59,0.14-1.13,0.42-1.61 s0.66-0.86,1.15-1.14c0.49-0.27,1.03-0.41,1.62-0.41C311.24,110.29,311.85,110.51,312.29,110.95z M311.65,111.54 c-0.27-0.29-0.66-0.43-1.17-0.43c-0.5,0-0.94,0.15-1.33,0.46c-0.39,0.31-0.65,0.71-0.78,1.2h3.68 C312.05,112.24,311.92,111.83,311.65,111.54z"></path> </g> <g> <path d="M314.32,115.04c0.11,0.11,0.15,0.25,0.13,0.43c-0.01,0.08-0.02,0.15-0.05,0.22c-0.03,0.07-0.08,0.16-0.15,0.27l-0.69,1.2 h-0.54l0.53-1.19c-0.18-0.09-0.26-0.26-0.25-0.5c0.01-0.18,0.08-0.32,0.2-0.43c0.12-0.11,0.26-0.16,0.42-0.16 C314.08,114.88,314.21,114.94,314.32,115.04z"></path> </g> <g> <path d="M153.72,121.57c0.47,0.2,0.87,0.47,1.2,0.83l-0.69,0.74c-0.26-0.3-0.57-0.53-0.93-0.7c-0.36-0.17-0.74-0.25-1.13-0.25 c-0.57,0-1.1,0.14-1.59,0.43c-0.49,0.29-0.88,0.67-1.17,1.16c-0.29,0.49-0.44,1.01-0.44,1.59c0,0.48,0.11,0.92,0.34,1.31 c0.23,0.4,0.54,0.71,0.94,0.94c0.4,0.23,0.84,0.34,1.33,0.34c0.39,0,0.79-0.08,1.18-0.24c0.39-0.16,0.75-0.38,1.07-0.66 l0.56,0.67c-0.42,0.37-0.89,0.66-1.4,0.87c-0.51,0.21-1.03,0.32-1.54,0.32c-0.67,0-1.28-0.15-1.81-0.46 c-0.54-0.31-0.96-0.72-1.26-1.25c-0.3-0.53-0.46-1.12-0.46-1.77c0-0.76,0.2-1.45,0.59-2.09c0.39-0.64,0.92-1.14,1.58-1.51 c0.66-0.37,1.38-0.56,2.15-0.56C152.76,121.28,153.26,121.38,153.72,121.57z"></path> </g> <g> <path d="M159.95,123.47c0.4,0.22,0.71,0.52,0.93,0.92s0.33,0.84,0.33,1.34c0,0.61-0.14,1.15-0.42,1.63s-0.67,0.85-1.16,1.12 c-0.49,0.27-1.04,0.4-1.64,0.4c-0.53,0-0.99-0.11-1.39-0.33c-0.4-0.22-0.7-0.52-0.92-0.92c-0.22-0.39-0.33-0.84-0.33-1.35 c0-0.6,0.14-1.14,0.42-1.62c0.28-0.48,0.66-0.85,1.15-1.12c0.49-0.27,1.04-0.4,1.64-0.4 C159.08,123.14,159.54,123.25,159.95,123.47z M157.39,124.3c-0.32,0.19-0.58,0.45-0.76,0.79c-0.19,0.34-0.28,0.72-0.28,1.15 c0,0.54,0.16,0.97,0.47,1.3c0.31,0.33,0.73,0.49,1.24,0.49c0.4,0,0.76-0.09,1.08-0.28c0.32-0.19,0.57-0.45,0.76-0.79 c0.19-0.34,0.28-0.72,0.28-1.15c0-0.53-0.16-0.96-0.47-1.29c-0.31-0.33-0.72-0.5-1.24-0.5 C158.08,124.01,157.72,124.11,157.39,124.3z"></path> </g> <g> <path d="M171.83,123.59c0.36,0.32,0.54,0.76,0.54,1.32c0,0.19-0.02,0.38-0.06,0.59l-0.67,3.34h-1.01l0.64-3.22 c0.03-0.12,0.04-0.25,0.04-0.4c0-0.37-0.12-0.67-0.35-0.88c-0.23-0.21-0.56-0.32-0.98-0.32c-0.48,0-0.9,0.15-1.26,0.44 c-0.36,0.3-0.61,0.7-0.73,1.2l-0.64,3.18h-1.01l0.64-3.22c0.03-0.12,0.04-0.25,0.04-0.4c0-0.37-0.12-0.67-0.35-0.88 c-0.23-0.21-0.56-0.32-0.98-0.32c-0.5,0-0.94,0.16-1.31,0.49s-0.61,0.76-0.72,1.29l-0.61,3.04h-1.01l1.11-5.67h1.02l-0.19,0.95 c0.47-0.67,1.15-1,2.05-1.02c0.56,0,1.01,0.12,1.36,0.36c0.35,0.24,0.56,0.58,0.65,1.01c0.53-0.9,1.29-1.36,2.28-1.37 C170.97,123.11,171.47,123.27,171.83,123.59z"></path> </g> <g> <path d="M178.77,123.45c0.36,0.21,0.64,0.51,0.84,0.89s0.3,0.83,0.3,1.33c0,0.59-0.13,1.14-0.4,1.63 c-0.27,0.49-0.64,0.88-1.11,1.17c-0.47,0.29-0.99,0.43-1.56,0.43c-0.53,0-0.97-0.12-1.33-0.36s-0.61-0.59-0.75-1.03l-0.7,3.42h-1 l1.54-7.75h1l-0.19,0.93c0.26-0.31,0.58-0.55,0.94-0.72c0.36-0.17,0.76-0.26,1.18-0.26C177.99,123.13,178.4,123.24,178.77,123.45 z M176.1,124.26c-0.33,0.2-0.59,0.48-0.78,0.83c-0.19,0.35-0.29,0.74-0.29,1.16c0,0.53,0.16,0.95,0.47,1.28s0.72,0.48,1.22,0.48 c0.4,0,0.77-0.1,1.1-0.31s0.6-0.49,0.79-0.84c0.2-0.35,0.29-0.73,0.29-1.15c0-0.52-0.16-0.94-0.48-1.27 c-0.32-0.33-0.73-0.49-1.24-0.49C176.79,123.96,176.43,124.06,176.1,124.26z"></path> </g> <g> <path d="M185.74,123.81c0.44,0.44,0.66,1.04,0.66,1.78c0,0.24-0.03,0.51-0.08,0.81h-4.58c0.02,0.51,0.19,0.92,0.51,1.22 c0.32,0.3,0.74,0.45,1.28,0.45c0.31,0,0.61-0.05,0.9-0.15c0.29-0.1,0.54-0.24,0.76-0.43l0.46,0.65c-0.58,0.5-1.3,0.75-2.15,0.75 c-0.55,0-1.03-0.11-1.45-0.32c-0.42-0.21-0.73-0.52-0.96-0.91c-0.23-0.39-0.34-0.85-0.34-1.36c0-0.59,0.14-1.13,0.42-1.61 c0.28-0.48,0.66-0.86,1.15-1.14c0.49-0.28,1.03-0.41,1.62-0.41C184.7,123.14,185.3,123.37,185.74,123.81z M185.1,124.4 c-0.27-0.29-0.66-0.43-1.17-0.43c-0.5,0-0.94,0.15-1.33,0.46c-0.39,0.31-0.65,0.71-0.78,1.2h3.68 C185.51,125.1,185.38,124.69,185.1,124.4z"></path> </g> <g> <path d="M188.72,127.14c-0.03,0.12-0.04,0.24-0.04,0.35c0,0.17,0.04,0.29,0.12,0.36s0.21,0.11,0.38,0.11 c0.28,0,0.6-0.1,0.96-0.29l0.18,0.8c-0.47,0.27-0.93,0.41-1.38,0.41c-0.39,0-0.7-0.1-0.93-0.31c-0.23-0.2-0.35-0.5-0.35-0.89 c0-0.16,0.01-0.32,0.04-0.46l0.62-3.1h-0.8l0.14-0.76h0.81l0.3-1.52h1l-0.3,1.52h1.74l-0.14,0.76h-1.76L188.72,127.14z"></path> </g> <g> <path d="M196.39,123.81c0.44,0.44,0.66,1.04,0.66,1.78c0,0.24-0.03,0.51-0.08,0.81h-4.58c0.02,0.51,0.19,0.92,0.51,1.22 c0.32,0.3,0.74,0.45,1.28,0.45c0.31,0,0.61-0.05,0.9-0.15c0.29-0.1,0.54-0.24,0.76-0.43l0.46,0.65c-0.58,0.5-1.3,0.75-2.15,0.75 c-0.55,0-1.03-0.11-1.45-0.32c-0.42-0.21-0.73-0.52-0.96-0.91c-0.23-0.39-0.34-0.85-0.34-1.36c0-0.59,0.14-1.13,0.42-1.61 c0.28-0.48,0.66-0.86,1.15-1.14c0.49-0.28,1.03-0.41,1.62-0.41C195.35,123.14,195.95,123.37,196.39,123.81z M195.75,124.4 c-0.27-0.29-0.66-0.43-1.17-0.43c-0.5,0-0.94,0.15-1.33,0.46c-0.39,0.31-0.65,0.71-0.78,1.2h3.68 C196.16,125.1,196.03,124.69,195.75,124.4z"></path> </g> <g> <path d="M203.33,123.59c0.36,0.32,0.54,0.76,0.54,1.32c0,0.19-0.02,0.38-0.06,0.59l-0.68,3.34h-1.01l0.64-3.22 c0.03-0.12,0.04-0.25,0.04-0.4c0-0.37-0.12-0.67-0.35-0.88c-0.23-0.21-0.56-0.32-0.98-0.32c-0.5,0-0.93,0.16-1.3,0.48 c-0.37,0.32-0.61,0.75-0.72,1.3l-0.61,3.04h-1.01l1.11-5.67h1.02l-0.19,0.95c0.47-0.67,1.15-1,2.05-1.02 C202.47,123.11,202.97,123.27,203.33,123.59z"></path> </g> <g> <path d="M206.46,127.14c-0.03,0.12-0.04,0.24-0.04,0.35c0,0.17,0.04,0.29,0.12,0.36s0.21,0.11,0.38,0.11 c0.28,0,0.6-0.1,0.96-0.29l0.18,0.8c-0.47,0.27-0.93,0.41-1.38,0.41c-0.39,0-0.7-0.1-0.93-0.31c-0.23-0.2-0.35-0.5-0.35-0.89 c0-0.16,0.01-0.32,0.04-0.46l0.62-3.1h-0.8l0.14-0.76h0.81l0.3-1.52h1l-0.3,1.52h1.74l-0.14,0.76h-1.76L206.46,127.14z"></path> </g> <g> <path d="M209.78,127.9c0.11,0.11,0.15,0.25,0.13,0.43c-0.01,0.08-0.02,0.15-0.05,0.22c-0.03,0.07-0.08,0.16-0.15,0.27l-0.69,1.2 h-0.54l0.53-1.19c-0.18-0.09-0.26-0.26-0.25-0.5c0.01-0.18,0.08-0.32,0.2-0.43c0.12-0.11,0.26-0.16,0.42-0.16 C209.54,127.74,209.67,127.79,209.78,127.9z"></path> </g> <g> <path d="M220.1,121.57c0.47,0.2,0.87,0.47,1.19,0.83l-0.69,0.74c-0.26-0.3-0.57-0.53-0.93-0.7c-0.36-0.17-0.74-0.25-1.13-0.25 c-0.57,0-1.1,0.14-1.59,0.43c-0.49,0.29-0.88,0.67-1.17,1.16c-0.29,0.49-0.44,1.01-0.44,1.59c0,0.48,0.11,0.92,0.34,1.31 s0.54,0.71,0.94,0.94c0.4,0.23,0.84,0.34,1.33,0.34c0.39,0,0.79-0.08,1.18-0.24c0.39-0.16,0.75-0.38,1.07-0.66l0.56,0.67 c-0.42,0.37-0.89,0.66-1.4,0.87c-0.51,0.21-1.03,0.32-1.54,0.32c-0.67,0-1.27-0.15-1.81-0.46c-0.54-0.31-0.96-0.72-1.26-1.25 c-0.3-0.53-0.46-1.12-0.46-1.77c0-0.76,0.2-1.45,0.59-2.09s0.92-1.14,1.58-1.51c0.66-0.37,1.38-0.56,2.15-0.56 C219.14,121.28,219.63,121.38,220.1,121.57z"></path> </g> <g> <path d="M226.32,123.47c0.4,0.22,0.71,0.52,0.93,0.92c0.22,0.39,0.33,0.84,0.33,1.34c0,0.61-0.14,1.15-0.42,1.63 s-0.67,0.85-1.16,1.12c-0.49,0.27-1.04,0.4-1.64,0.4c-0.53,0-0.99-0.11-1.39-0.33c-0.4-0.22-0.7-0.52-0.92-0.92 c-0.22-0.39-0.33-0.84-0.33-1.35c0-0.6,0.14-1.14,0.42-1.62s0.66-0.85,1.15-1.12c0.49-0.27,1.04-0.4,1.64-0.4 C225.46,123.14,225.92,123.25,226.32,123.47z M223.77,124.3c-0.32,0.19-0.58,0.45-0.76,0.79c-0.19,0.34-0.28,0.72-0.28,1.15 c0,0.54,0.16,0.97,0.47,1.3c0.31,0.33,0.73,0.49,1.24,0.49c0.4,0,0.76-0.09,1.08-0.28c0.32-0.19,0.57-0.45,0.75-0.79 c0.19-0.34,0.28-0.72,0.28-1.15c0-0.53-0.16-0.96-0.47-1.29s-0.72-0.5-1.24-0.5C224.45,124.01,224.09,124.11,223.77,124.3z"></path> </g> <g> <path d="M238.21,123.59c0.36,0.32,0.54,0.76,0.54,1.32c0,0.19-0.02,0.38-0.06,0.59l-0.67,3.34H237l0.64-3.22 c0.03-0.12,0.04-0.25,0.04-0.4c0-0.37-0.12-0.67-0.35-0.88c-0.23-0.21-0.56-0.32-0.98-0.32c-0.48,0-0.9,0.15-1.26,0.44 c-0.36,0.3-0.61,0.7-0.73,1.2l-0.64,3.18h-1.01l0.64-3.22c0.03-0.12,0.04-0.25,0.04-0.4c0-0.37-0.12-0.67-0.35-0.88 s-0.56-0.32-0.98-0.32c-0.5,0-0.94,0.16-1.31,0.49c-0.37,0.33-0.61,0.76-0.72,1.29l-0.61,3.04h-1.01l1.11-5.67h1.02l-0.19,0.95 c0.47-0.67,1.15-1,2.05-1.02c0.56,0,1.01,0.12,1.36,0.36s0.56,0.58,0.65,1.01c0.53-0.9,1.29-1.36,2.28-1.37 C237.35,123.11,237.85,123.27,238.21,123.59z"></path> </g> <g> <path d="M249.58,123.59c0.36,0.32,0.54,0.76,0.54,1.32c0,0.19-0.02,0.38-0.06,0.59l-0.67,3.34h-1.01l0.64-3.22 c0.03-0.12,0.04-0.25,0.04-0.4c0-0.37-0.12-0.67-0.35-0.88c-0.23-0.21-0.56-0.32-0.98-0.32c-0.48,0-0.9,0.15-1.26,0.44 c-0.36,0.3-0.61,0.7-0.73,1.2l-0.64,3.18h-1.01l0.64-3.22c0.03-0.12,0.04-0.25,0.04-0.4c0-0.37-0.12-0.67-0.35-0.88 s-0.56-0.32-0.98-0.32c-0.5,0-0.94,0.16-1.31,0.49c-0.37,0.33-0.61,0.76-0.72,1.29l-0.61,3.04h-1.01l1.11-5.67h1.02l-0.19,0.95 c0.47-0.67,1.15-1,2.05-1.02c0.56,0,1.01,0.12,1.36,0.36s0.56,0.58,0.65,1.01c0.53-0.9,1.29-1.36,2.28-1.37 C248.72,123.11,249.22,123.27,249.58,123.59z"></path> </g> <g> <path d="M253.28,123.18l-1.12,5.67h-1l1.12-5.67H253.28z M253.6,121.06c0.09,0.1,0.14,0.22,0.14,0.38c0,0.21-0.08,0.39-0.23,0.54 c-0.15,0.15-0.33,0.23-0.53,0.23c-0.15,0-0.27-0.05-0.36-0.16c-0.09-0.1-0.14-0.23-0.14-0.38c0-0.21,0.08-0.38,0.23-0.53 c0.15-0.15,0.32-0.22,0.52-0.22C253.38,120.92,253.51,120.96,253.6,121.06z"></path> </g> <g> <path d="M255.64,127.14c-0.03,0.12-0.04,0.24-0.04,0.35c0,0.17,0.04,0.29,0.12,0.36s0.21,0.11,0.38,0.11 c0.28,0,0.6-0.1,0.96-0.29l0.18,0.8c-0.47,0.27-0.93,0.41-1.38,0.41c-0.39,0-0.69-0.1-0.93-0.31c-0.23-0.2-0.35-0.5-0.35-0.89 c0-0.16,0.01-0.32,0.04-0.46l0.62-3.1h-0.8l0.14-0.76h0.81l0.3-1.52h1l-0.3,1.52h1.74l-0.14,0.76h-1.76L255.64,127.14z"></path> </g> <g> <path d="M259.91,127.14c-0.03,0.12-0.04,0.24-0.04,0.35c0,0.17,0.04,0.29,0.12,0.36s0.21,0.11,0.38,0.11 c0.28,0,0.6-0.1,0.96-0.29l0.18,0.8c-0.47,0.27-0.93,0.41-1.38,0.41c-0.39,0-0.69-0.1-0.93-0.31c-0.23-0.2-0.35-0.5-0.35-0.89 c0-0.16,0.01-0.32,0.04-0.46l0.62-3.1h-0.8l0.14-0.76h0.81l0.3-1.52h1l-0.3,1.52h1.74l-0.14,0.76h-1.76L259.91,127.14z"></path> </g> <g> <path d="M267.58,123.81c0.44,0.44,0.66,1.04,0.66,1.78c0,0.24-0.03,0.51-0.09,0.81h-4.58c0.02,0.51,0.19,0.92,0.51,1.22 c0.32,0.3,0.75,0.45,1.28,0.45c0.31,0,0.61-0.05,0.9-0.15c0.29-0.1,0.54-0.24,0.76-0.43l0.46,0.65c-0.58,0.5-1.3,0.75-2.15,0.75 c-0.55,0-1.03-0.11-1.45-0.32s-0.73-0.52-0.96-0.91c-0.22-0.39-0.34-0.85-0.34-1.36c0-0.59,0.14-1.13,0.42-1.61 c0.28-0.48,0.66-0.86,1.15-1.14c0.49-0.28,1.02-0.41,1.62-0.41C266.54,123.14,267.14,123.37,267.58,123.81z M266.94,124.4 c-0.27-0.29-0.66-0.43-1.17-0.43c-0.5,0-0.94,0.15-1.33,0.46c-0.39,0.31-0.65,0.71-0.78,1.2h3.67 C267.34,125.1,267.21,124.69,266.94,124.4z"></path> </g> <g> <path d="M270.17,128.58c-0.36-0.21-0.64-0.51-0.84-0.89s-0.3-0.82-0.3-1.32c0-0.6,0.13-1.15,0.4-1.64s0.64-0.88,1.11-1.16 c0.47-0.28,0.99-0.42,1.56-0.42c0.53,0,0.97,0.12,1.33,0.36c0.36,0.24,0.61,0.59,0.75,1.03l0.74-3.63h1l-1.59,7.95h-1l0.19-0.92 c-0.26,0.31-0.58,0.55-0.94,0.72c-0.36,0.17-0.76,0.26-1.18,0.26C270.95,128.9,270.53,128.79,270.17,128.58z M272.83,127.76 c0.33-0.2,0.59-0.48,0.78-0.83c0.19-0.35,0.29-0.74,0.29-1.16c0-0.53-0.16-0.95-0.47-1.27c-0.31-0.32-0.72-0.48-1.22-0.48 c-0.4,0-0.77,0.1-1.1,0.31s-0.6,0.49-0.79,0.84c-0.2,0.35-0.29,0.73-0.29,1.15c0,0.52,0.16,0.94,0.48,1.27 c0.32,0.33,0.73,0.49,1.24,0.49C272.15,128.06,272.51,127.96,272.83,127.76z"></path> </g> <g> <path d="M286.44,121.34h1.03l-1.5,7.5h-1.03l0.64-3.22h-4.3l-0.64,3.22h-1.03l1.5-7.5h1.03l-0.66,3.34h4.3L286.44,121.34z"></path> </g> <g> <path d="M293.4,123.81c0.44,0.44,0.66,1.04,0.66,1.78c0,0.24-0.03,0.51-0.09,0.81h-4.58c0.02,0.51,0.19,0.92,0.51,1.22 c0.32,0.3,0.75,0.45,1.28,0.45c0.31,0,0.61-0.05,0.9-0.15c0.29-0.1,0.54-0.24,0.76-0.43l0.46,0.65c-0.58,0.5-1.3,0.75-2.15,0.75 c-0.55,0-1.03-0.11-1.45-0.32s-0.73-0.52-0.96-0.91c-0.22-0.39-0.34-0.85-0.34-1.36c0-0.59,0.14-1.13,0.42-1.61 c0.28-0.48,0.66-0.86,1.15-1.14c0.49-0.28,1.02-0.41,1.62-0.41C292.36,123.14,292.96,123.37,293.4,123.81z M292.76,124.4 c-0.27-0.29-0.66-0.43-1.17-0.43c-0.5,0-0.94,0.15-1.33,0.46c-0.39,0.31-0.65,0.71-0.78,1.2h3.67 C293.17,125.1,293.04,124.69,292.76,124.4z"></path> </g> <g> <path d="M295.99,128.58c-0.36-0.21-0.64-0.51-0.84-0.89s-0.3-0.82-0.3-1.32c0-0.6,0.13-1.15,0.4-1.64s0.64-0.88,1.11-1.16 c0.47-0.28,0.99-0.42,1.56-0.42c0.53,0,0.97,0.12,1.33,0.36c0.36,0.24,0.61,0.59,0.75,1.03l0.28-1.35h1l-1.12,5.67h-1l0.19-0.92 c-0.26,0.31-0.58,0.55-0.94,0.72c-0.36,0.17-0.76,0.26-1.18,0.26C296.77,128.9,296.35,128.79,295.99,128.58z M298.66,127.76 c0.33-0.2,0.59-0.48,0.78-0.83c0.19-0.35,0.29-0.74,0.29-1.16c0-0.53-0.16-0.95-0.47-1.27c-0.31-0.32-0.72-0.48-1.22-0.48 c-0.4,0-0.77,0.1-1.1,0.31s-0.6,0.49-0.79,0.84c-0.2,0.35-0.29,0.73-0.29,1.15c0,0.52,0.16,0.94,0.48,1.27 c0.32,0.33,0.73,0.49,1.24,0.49C297.97,128.06,298.33,127.96,298.66,127.76z"></path> </g> <g> <path d="M304.75,120.89l-1.59,7.95h-1.01l1.59-7.95H304.75z"></path> </g> <g> <path d="M306.7,127.14c-0.03,0.12-0.04,0.24-0.04,0.35c0,0.17,0.04,0.29,0.12,0.36s0.21,0.11,0.38,0.11c0.28,0,0.6-0.1,0.96-0.29 l0.18,0.8c-0.47,0.27-0.93,0.41-1.38,0.41c-0.39,0-0.7-0.1-0.93-0.31c-0.23-0.2-0.35-0.5-0.35-0.89c0-0.16,0.01-0.32,0.04-0.46 l0.62-3.1h-0.8l0.14-0.76h0.81l0.3-1.52h1l-0.3,1.52h1.74l-0.14,0.76h-1.76L306.7,127.14z"></path> </g> <g> <path d="M315,123.59c0.36,0.32,0.54,0.76,0.54,1.32c0,0.19-0.02,0.38-0.06,0.59l-0.67,3.34h-1.01l0.64-3.22 c0.03-0.12,0.04-0.25,0.04-0.4c0-0.37-0.12-0.67-0.35-0.88c-0.23-0.21-0.56-0.32-0.98-0.32c-0.5,0-0.93,0.16-1.3,0.48 c-0.37,0.32-0.61,0.75-0.72,1.3l-0.61,3.04h-1.01l1.56-7.95h1.02l-0.64,3.24c0.47-0.67,1.15-1,2.05-1.02 C314.14,123.11,314.64,123.27,315,123.59z"></path> </g> <g> <path d="M317.81,128.55c-0.39-0.22-0.68-0.52-0.89-0.91c-0.21-0.39-0.32-0.83-0.32-1.33c0-0.61,0.14-1.15,0.41-1.63 c0.27-0.48,0.65-0.86,1.12-1.12c0.48-0.27,1.01-0.4,1.61-0.4c0.47,0,0.89,0.07,1.25,0.22s0.66,0.36,0.9,0.64l-0.61,0.69 c-0.41-0.44-0.94-0.66-1.6-0.66c-0.39,0-0.75,0.09-1.07,0.28c-0.32,0.19-0.57,0.45-0.75,0.79c-0.18,0.34-0.27,0.71-0.27,1.14 c0,0.53,0.16,0.96,0.47,1.29c0.31,0.33,0.72,0.49,1.22,0.49c0.36,0,0.7-0.06,1.01-0.18c0.31-0.12,0.57-0.29,0.78-0.53l0.5,0.59 c-0.29,0.31-0.64,0.56-1.06,0.73c-0.41,0.17-0.87,0.26-1.38,0.26C318.65,128.88,318.2,128.77,317.81,128.55z"></path> </g> <g> <path d="M323.72,128.58c-0.36-0.21-0.64-0.51-0.84-0.89c-0.2-0.38-0.3-0.82-0.3-1.32c0-0.6,0.13-1.15,0.4-1.64 c0.27-0.49,0.64-0.88,1.11-1.16s0.99-0.42,1.56-0.42c0.53,0,0.97,0.12,1.33,0.36c0.36,0.24,0.61,0.59,0.76,1.03l0.28-1.35h1 l-1.12,5.67h-1l0.19-0.92c-0.26,0.31-0.58,0.55-0.94,0.72c-0.36,0.17-0.76,0.26-1.18,0.26 C324.5,128.9,324.08,128.79,323.72,128.58z M326.39,127.76c0.33-0.2,0.59-0.48,0.78-0.83c0.19-0.35,0.29-0.74,0.29-1.16 c0-0.53-0.16-0.95-0.47-1.27c-0.31-0.32-0.72-0.48-1.22-0.48c-0.4,0-0.77,0.1-1.1,0.31s-0.6,0.49-0.79,0.84s-0.29,0.73-0.29,1.15 c0,0.52,0.16,0.94,0.48,1.27c0.32,0.33,0.73,0.49,1.24,0.49C325.7,128.06,326.06,127.96,326.39,127.76z"></path> </g> <g> <path d="M333.95,123.14l-0.13,0.96c-0.57-0.02-1.07,0.14-1.51,0.47c-0.43,0.34-0.73,0.78-0.89,1.34l-0.58,2.92h-1.01l1.12-5.67 h1.01l-0.24,1.17C332.25,123.56,332.99,123.16,333.95,123.14z"></path> </g> <g> <path d="M338.96,123.81c0.44,0.44,0.66,1.04,0.66,1.78c0,0.24-0.03,0.51-0.08,0.81h-4.58c0.02,0.51,0.19,0.92,0.51,1.22 c0.32,0.3,0.74,0.45,1.28,0.45c0.31,0,0.61-0.05,0.9-0.15c0.29-0.1,0.54-0.24,0.76-0.43l0.46,0.65c-0.58,0.5-1.3,0.75-2.15,0.75 c-0.55,0-1.03-0.11-1.45-0.32c-0.42-0.21-0.73-0.52-0.96-0.91c-0.23-0.39-0.34-0.85-0.34-1.36c0-0.59,0.14-1.13,0.42-1.61 c0.28-0.48,0.66-0.86,1.15-1.14c0.49-0.28,1.03-0.41,1.62-0.41C337.92,123.14,338.52,123.37,338.96,123.81z M338.32,124.4 c-0.27-0.29-0.66-0.43-1.17-0.43c-0.5,0-0.94,0.15-1.33,0.46c-0.39,0.31-0.65,0.71-0.78,1.2h3.68 C338.73,125.1,338.59,124.69,338.32,124.4z"></path> </g> </g> <g> <g> <path class="st1" d="M126.41,90.46c0.05-1.35,0.09-3.12,0.12-5.29c0.03-2.17,0.04-4.93,0.04-8.27c0-1.77-0.01-3.06-0.04-3.87 c-0.03-0.8-0.07-1.52-0.12-2.16c0.27,0.07,0.55,0.12,0.84,0.14c0.29,0.03,0.61,0.04,0.94,0.04c0.32,0,0.63-0.02,0.91-0.05 c0.28-0.03,0.56-0.08,0.83-0.13c-0.08,0.66-0.15,1.38-0.19,2.14c-0.05,0.76-0.07,1.58-0.07,2.45c0.77-1.62,1.58-2.83,2.44-3.61 c0.85-0.79,1.77-1.18,2.76-1.18c0.16,0,0.37,0.02,0.62,0.05c0.25,0.03,0.57,0.09,0.96,0.17c-0.07,0.37-0.12,0.8-0.15,1.3 c-0.03,0.5-0.05,1.12-0.05,1.85l-0.32,0.2c-0.35-0.18-0.69-0.31-1.01-0.4c-0.32-0.09-0.66-0.13-0.99-0.13 c-1.52,0-2.62,0.66-3.32,1.99c-0.7,1.33-1.04,3.46-1.04,6.39c0,1.72,0.02,3.29,0.05,4.73c0.03,1.43,0.08,2.66,0.15,3.67 c-0.26-0.05-0.53-0.09-0.83-0.12c-0.3-0.03-0.62-0.04-0.95-0.04c-0.27,0-0.53,0.01-0.78,0.03 C126.95,90.38,126.69,90.41,126.41,90.46z"></path> </g> <g> <path class="st1" d="M154.3,88.51c-1.08,0.78-2.21,1.37-3.38,1.77c-1.17,0.39-2.4,0.59-3.68,0.59c-2.91,0-5.27-0.94-7.08-2.81 c-1.81-1.87-2.72-4.31-2.72-7.32c0-3.1,0.87-5.58,2.61-7.46c1.74-1.87,4.06-2.81,6.95-2.81c2.65,0,4.71,0.79,6.16,2.36 c1.45,1.58,2.18,3.8,2.18,6.69c0,0.1-0.01,0.24-0.02,0.45c-0.01,0.2-0.02,0.36-0.02,0.47H141v0.14c0,2.81,0.59,4.96,1.79,6.43 c1.19,1.48,2.92,2.21,5.2,2.21c1.22,0,2.35-0.23,3.39-0.69c1.04-0.46,2.04-1.16,3-2.09c-0.03,0.43-0.05,0.76-0.06,0.98 c-0.01,0.22-0.02,0.42-0.02,0.58V88.51z M141.08,78.99h10.94v-0.71c0-2.04-0.46-3.64-1.38-4.8c-0.92-1.16-2.19-1.74-3.82-1.74 s-2.97,0.67-4.03,2C141.74,75.07,141.17,76.82,141.08,78.99z"></path> </g> <g> <path class="st1" d="M157.93,86.19c0.68,1.04,1.44,1.83,2.28,2.35c0.85,0.53,1.77,0.79,2.77,0.79c1.25,0,2.23-0.34,2.95-1.02 c0.72-0.68,1.09-1.6,1.09-2.78c0-0.89-0.24-1.6-0.73-2.11c-0.49-0.51-1.34-0.95-2.56-1.3l-1.91-0.53 c-1.6-0.45-2.74-1.09-3.44-1.93c-0.7-0.84-1.04-1.98-1.04-3.43c0-1.7,0.58-3.09,1.76-4.15c1.17-1.06,2.7-1.59,4.6-1.59 c0.97,0,1.9,0.11,2.78,0.35c0.88,0.23,1.68,0.57,2.39,1.02c-0.19,0.43-0.36,0.87-0.51,1.31c-0.15,0.44-0.26,0.88-0.34,1.33 c-0.8-0.93-1.6-1.63-2.4-2.08c-0.8-0.45-1.61-0.68-2.44-0.68c-1.04,0-1.89,0.32-2.55,0.97c-0.66,0.65-0.98,1.49-0.98,2.52 c0,0.92,0.24,1.65,0.73,2.19c0.49,0.54,1.3,0.97,2.43,1.3l2.82,0.83c1.41,0.41,2.42,0.99,3.05,1.74 c0.63,0.76,0.94,1.77,0.94,3.04c0,1.91-0.69,3.47-2.06,4.69c-1.37,1.22-3.14,1.83-5.31,1.83c-1.05,0-2.04-0.13-2.95-0.38 c-0.91-0.25-1.71-0.62-2.4-1.11c0.2-0.53,0.39-1.06,0.56-1.6C157.64,87.24,157.79,86.71,157.93,86.19z"></path> </g> <g> <path class="st1" d="M181.02,90.86c-2.9,0-5.26-0.94-7.09-2.83c-1.83-1.89-2.75-4.33-2.75-7.34c0-2.98,0.93-5.42,2.78-7.33 c1.85-1.91,4.21-2.86,7.06-2.86c2.91,0,5.28,0.94,7.1,2.83c1.83,1.89,2.74,4.34,2.74,7.36c0,3.02-0.92,5.47-2.75,7.35 C186.28,89.92,183.91,90.86,181.02,90.86z M181.02,89.62c2.06,0,3.62-0.74,4.7-2.22c1.08-1.48,1.61-3.64,1.61-6.46 c0-2.99-0.54-5.27-1.62-6.84c-1.08-1.57-2.66-2.35-4.73-2.35c-2.06,0-3.62,0.76-4.68,2.27c-1.06,1.52-1.59,3.73-1.59,6.64 c0,2.94,0.53,5.16,1.6,6.69C177.38,88.86,178.95,89.62,181.02,89.62z"></path> </g> <g> <path class="st1" d="M207.7,90.54v-0.75c0-0.42-0.02-1.16-0.06-2.23c-0.01-0.18-0.02-0.3-0.02-0.39c-0.7,1.29-1.6,2.24-2.69,2.86 c-1.09,0.62-2.41,0.93-3.97,0.93c-2.14,0-3.76-0.58-4.86-1.75c-1.1-1.16-1.65-2.87-1.65-5.11c0-0.22,0.03-1.4,0.1-3.54 c0.07-2.14,0.1-4.2,0.1-6.16c0-0.43-0.01-0.91-0.02-1.42c-0.01-0.51-0.03-1.21-0.06-2.09c0.24,0.05,0.5,0.09,0.77,0.12 c0.27,0.03,0.57,0.04,0.89,0.04c0.33,0,0.63-0.01,0.92-0.04c0.29-0.02,0.58-0.07,0.86-0.13c-0.22,1.96-0.38,3.92-0.48,5.89 c-0.1,1.97-0.15,3.91-0.15,5.83c0,2.2,0.39,3.82,1.18,4.84c0.79,1.03,2.02,1.54,3.69,1.54c1.07,0,2.03-0.26,2.87-0.79 c0.85-0.53,1.48-1.26,1.9-2.19c0.27-0.61,0.46-1.52,0.58-2.72c0.11-1.2,0.17-3.64,0.17-7.31c0-0.87-0.02-1.72-0.05-2.58 c-0.03-0.85-0.08-1.69-0.15-2.52c0.26,0.04,0.53,0.08,0.81,0.11c0.28,0.03,0.6,0.05,0.93,0.05c0.3,0,0.58-0.02,0.85-0.05 c0.27-0.03,0.53-0.07,0.77-0.12c-0.07,1.09-0.12,2.57-0.14,4.42c-0.03,1.85-0.04,4.26-0.04,7.22c0,1.92,0.01,3.45,0.04,4.6 c0.03,1.15,0.07,2.27,0.14,3.37c-0.07,0-0.26-0.02-0.59-0.06c-0.33-0.04-0.59-0.06-0.79-0.06c-0.23,0-0.47,0.01-0.72,0.03 C208.6,90.42,208.22,90.47,207.7,90.54z"></path> </g> <g> <path class="st1" d="M216.18,90.46c0.05-1.35,0.1-3.12,0.12-5.29c0.03-2.17,0.04-4.93,0.04-8.27c0-1.77-0.01-3.06-0.04-3.87 c-0.03-0.8-0.07-1.52-0.12-2.16c0.27,0.07,0.55,0.12,0.84,0.14c0.29,0.03,0.61,0.04,0.94,0.04c0.33,0,0.63-0.02,0.91-0.05 c0.28-0.03,0.56-0.08,0.83-0.13c-0.08,0.66-0.15,1.38-0.19,2.14c-0.05,0.76-0.07,1.58-0.07,2.45c0.77-1.62,1.58-2.83,2.44-3.61 c0.85-0.79,1.77-1.18,2.76-1.18c0.16,0,0.37,0.02,0.62,0.05c0.25,0.03,0.57,0.09,0.96,0.17c-0.07,0.37-0.12,0.8-0.15,1.3 c-0.03,0.5-0.05,1.12-0.05,1.85l-0.33,0.2c-0.35-0.18-0.69-0.31-1.01-0.4c-0.33-0.09-0.66-0.13-0.99-0.13 c-1.52,0-2.62,0.66-3.32,1.99c-0.7,1.33-1.05,3.46-1.05,6.39c0,1.72,0.02,3.29,0.05,4.73c0.03,1.43,0.08,2.66,0.15,3.67 c-0.26-0.05-0.53-0.09-0.83-0.12c-0.3-0.03-0.62-0.04-0.95-0.04c-0.27,0-0.53,0.01-0.78,0.03 C216.71,90.38,216.45,90.41,216.18,90.46z"></path> </g> <g> <path class="st1" d="M243.98,88.83c-0.91,0.7-1.94,1.22-3.1,1.56c-1.16,0.34-2.49,0.51-4.01,0.51c-2.92,0-5.27-0.93-7.05-2.79 c-1.78-1.86-2.67-4.32-2.67-7.38c0-3.09,0.94-5.56,2.82-7.43c1.88-1.87,4.38-2.8,7.49-2.8c1.19,0,2.35,0.14,3.47,0.42 c1.12,0.28,2.22,0.69,3.29,1.25c-0.22,0.51-0.42,1.07-0.61,1.66c-0.19,0.6-0.36,1.23-0.51,1.91c-0.58-1.31-1.34-2.29-2.28-2.94 c-0.94-0.65-2.06-0.97-3.36-0.97c-2.21,0-3.91,0.77-5.12,2.32c-1.21,1.55-1.82,3.73-1.82,6.55c0,2.69,0.65,4.83,1.96,6.4 c1.31,1.58,3.06,2.36,5.27,2.36c1.15,0,2.23-0.24,3.25-0.73c1.01-0.49,2.02-1.24,3.02-2.27c0,0.05-0.01,0.14-0.02,0.24 c-0.04,0.61-0.06,1.04-0.06,1.3c0,0.24,0,0.42,0.01,0.53C243.96,88.63,243.97,88.74,243.98,88.83z"></path> </g> <g> <path class="st1" d="M262.26,88.51c-1.08,0.78-2.21,1.37-3.38,1.77c-1.17,0.39-2.4,0.59-3.68,0.59c-2.91,0-5.27-0.94-7.08-2.81 c-1.81-1.87-2.72-4.31-2.72-7.32c0-3.1,0.87-5.58,2.61-7.46c1.74-1.87,4.06-2.81,6.95-2.81c2.65,0,4.7,0.79,6.16,2.36 c1.45,1.58,2.18,3.8,2.18,6.69c0,0.1-0.01,0.24-0.02,0.45c-0.01,0.2-0.02,0.36-0.02,0.47h-14.29v0.14c0,2.81,0.59,4.96,1.79,6.43 c1.19,1.48,2.92,2.21,5.19,2.21c1.22,0,2.35-0.23,3.39-0.69c1.04-0.46,2.04-1.16,3-2.09c-0.03,0.43-0.05,0.76-0.06,0.98 c-0.01,0.22-0.02,0.42-0.02,0.58V88.51z M249.05,78.99h10.94v-0.71c0-2.04-0.46-3.64-1.38-4.8c-0.92-1.16-2.19-1.74-3.81-1.74 c-1.62,0-2.97,0.67-4.03,2C249.7,75.07,249.13,76.82,249.05,78.99z"></path> </g> </g> <g> <polygon class="st0" points="407.01,99.65 117.8,99.65 117.8,50.73 119.64,50.73 119.64,97.81 407.01,97.81 "></polygon> </g> <g> <g> <path d="M38.28,77.74c-1.31,1.01-2.79,1.76-4.46,2.25c-1.67,0.49-3.59,0.73-5.77,0.73c-4.21,0-7.6-1.34-10.16-4.02 c-2.56-2.68-3.84-6.22-3.84-10.63c0-4.44,1.35-8.01,4.06-10.7c2.71-2.69,6.3-4.03,10.79-4.03c1.71,0,3.38,0.2,5,0.6 c1.62,0.4,3.2,1,4.74,1.8c-0.31,0.74-0.6,1.54-0.88,2.4c-0.27,0.86-0.52,1.77-0.73,2.75c-0.84-1.89-1.93-3.3-3.29-4.24 c-1.35-0.94-2.97-1.4-4.84-1.4c-3.18,0-5.64,1.12-7.38,3.35c-1.74,2.23-2.62,5.37-2.62,9.43c0,3.88,0.94,6.95,2.82,9.22 c1.88,2.27,4.41,3.41,7.59,3.41c1.66,0,3.21-0.35,4.68-1.05c1.46-0.7,2.91-1.79,4.35-3.27c0,0.08-0.01,0.19-0.03,0.35 c-0.06,0.88-0.09,1.5-0.09,1.87c0,0.35,0,0.6,0.01,0.76C38.25,77.46,38.26,77.61,38.28,77.74z"></path> </g> <g> <path d="M57.42,76.66c-1.27,1.33-2.65,2.32-4.14,3c-1.49,0.67-3.08,1.01-4.78,1.01c-2.63,0-4.66-0.64-6.09-1.91 c-1.43-1.28-2.15-3.08-2.15-5.42c0-2.12,0.57-3.82,1.71-5.1c1.14-1.28,2.88-2.18,5.22-2.7c0.99-0.21,2.35-0.48,4.06-0.79 c3.53-0.64,5.65-1.3,6.37-1.96v-1.26c0-2.75-0.53-4.74-1.59-5.98c-1.06-1.24-2.75-1.86-5.07-1.86c-1.64,0-3.1,0.36-4.38,1.07 c-1.29,0.71-2.4,1.77-3.33,3.17h-0.47l0.12-3.16c1.31-1.09,2.78-1.92,4.41-2.5c1.64-0.57,3.38-0.86,5.23-0.86 c3.29,0,5.69,0.79,7.19,2.38c1.5,1.59,2.25,4.15,2.25,7.67v0.73l-0.23,10.23v1.67c0,1.62,0.18,2.68,0.56,3.19 c0.37,0.51,1.06,0.76,2.08,0.76c0.27,0,0.48-0.01,0.63-0.01c0.15-0.01,0.28-0.01,0.39-0.01l0.23,1.17l-0.18,0.06 c-2.03,0.6-3.61,0.91-4.74,0.91c-0.97,0-1.72-0.27-2.24-0.8C57.97,78.8,57.61,77.91,57.42,76.66z M57.51,65.29 c-5.22,0.88-8.58,1.81-10.08,2.79c-1.5,0.98-2.25,2.47-2.25,4.46c0,1.81,0.46,3.21,1.39,4.19c0.93,0.98,2.24,1.48,3.93,1.48 c0.99,0,2.04-0.24,3.14-0.72c1.1-0.48,2.05-1.12,2.85-1.91c0.35-0.35,0.61-0.71,0.77-1.07c0.17-0.36,0.25-0.86,0.25-1.5v-0.29 V65.29z"></path> </g> <g> <path d="M69.9,80.08c0.08-1.95,0.14-4.49,0.18-7.61c0.04-3.13,0.06-7.1,0.06-11.91c0-2.55-0.02-4.41-0.06-5.57 c-0.04-1.16-0.1-2.2-0.18-3.11c0.39,0.1,0.79,0.17,1.21,0.2c0.42,0.04,0.87,0.06,1.36,0.06c0.47,0,0.91-0.02,1.32-0.07 c0.41-0.05,0.81-0.11,1.2-0.19c-0.12,0.96-0.21,1.98-0.28,3.08c-0.07,1.1-0.1,2.28-0.1,3.52c1.11-2.34,2.28-4.07,3.51-5.2 c1.23-1.13,2.55-1.7,3.98-1.7c0.23,0,0.53,0.02,0.89,0.07c0.36,0.05,0.82,0.13,1.39,0.25c-0.1,0.53-0.17,1.15-0.22,1.87 c-0.05,0.72-0.07,1.61-0.07,2.66l-0.47,0.29c-0.51-0.25-0.99-0.44-1.46-0.57c-0.47-0.13-0.95-0.19-1.43-0.19 c-2.18,0-3.78,0.95-4.78,2.86c-1,1.91-1.51,4.98-1.51,9.21c0,2.47,0.02,4.75,0.07,6.81c0.05,2.07,0.12,3.83,0.22,5.29 c-0.37-0.08-0.77-0.14-1.2-0.18c-0.43-0.04-0.89-0.06-1.37-0.06c-0.39,0-0.76,0.01-1.13,0.04C70.66,79.98,70.29,80.02,69.9,80.08 z"></path> </g> <g> <path d="M110.05,77.28c-1.56,1.13-3.18,1.98-4.87,2.54c-1.69,0.56-3.45,0.85-5.31,0.85c-4.19,0-7.59-1.35-10.2-4.05 c-2.61-2.7-3.92-6.21-3.92-10.54c0-4.46,1.25-8.04,3.76-10.74c2.5-2.7,5.84-4.05,10.01-4.05c3.82,0,6.78,1.14,8.87,3.41 c2.09,2.27,3.14,5.48,3.14,9.63c0,0.14-0.01,0.35-0.03,0.64c-0.02,0.29-0.03,0.52-0.03,0.67H90.91v0.2 c0,4.05,0.86,7.14,2.57,9.27c1.71,2.12,4.21,3.19,7.48,3.19c1.75,0,3.38-0.33,4.88-0.99c1.5-0.66,2.94-1.67,4.33-3.01 c-0.04,0.62-0.07,1.1-0.09,1.42c-0.02,0.32-0.03,0.6-0.03,0.83V77.28z M91.02,63.57h15.75v-1.02c0-2.94-0.66-5.25-1.99-6.91 c-1.33-1.67-3.16-2.5-5.5-2.5c-2.34,0-4.27,0.96-5.8,2.88C91.96,57.93,91.14,60.45,91.02,63.57z"></path> </g> </g> </g> </svg>
