<?xml version="1.0" encoding="UTF-8"?>
<svg width="798px" height="184px" viewBox="0 0 798 184" version="1.1" xmlns="http://www.w3.org/2000/svg" xmlns:xlink="http://www.w3.org/1999/xlink">
    <!-- Generator: Sketch 51.2 (57519) - http://www.bohemiancoding.com/sketch -->
    <title>01-CareMore-LogoLockup-Primary-2-Color-RGB</title>
    <desc>Created with Sketch.</desc>
    <defs></defs>
    <g id="01-CareMore-LogoLockup-Primary-2-Color-RGB" stroke="none" stroke-width="1" fill="none" fill-rule="evenodd">
        <path d="M63.8,25.317 C77.259,25.317 85.114,34.014 89.054,42.614 C89.249,43.04 89.586,43.879 90.019,43.879 C90.452,43.879 90.787,43.044 90.981,42.621 C94.919,34.019 102.774,25.317 116.237,25.317 C131.378,25.317 141.533,37.687 141.533,53.936 C141.533,77.108 119.745,100.28 97.958,113.943 C93.988,116.436 91.865,117.543 90.019,117.543 C88.172,117.543 86.049,116.436 82.079,113.943 C60.292,100.28 38.504,77.108 38.504,53.936 C38.504,37.687 48.66,25.317 63.8,25.317" id="Fill-1" fill="#59D1FF"></path>
        <path d="M786.531,138.063 L779.417,138.063 C778.382,138.063 777.735,138.645 777.735,139.745 L777.735,156.171 L759.304,156.171 L759.304,139.745 C759.304,138.709 758.722,138.063 757.623,138.063 L750.509,138.063 C749.474,138.063 748.828,138.645 748.828,139.745 L748.828,181.651 C748.828,182.686 749.474,183.333 750.509,183.333 L757.623,183.333 C758.657,183.333 759.304,182.751 759.304,181.651 L759.304,165.677 L777.735,165.677 L777.735,181.651 C777.735,182.686 778.382,183.333 779.417,183.333 L786.531,183.333 C787.565,183.333 788.213,182.751 788.213,181.651 L788.213,139.745 C788.213,138.709 787.63,138.063 786.531,138.063 Z M737.964,138.063 L708.732,138.063 C707.698,138.063 707.051,138.645 707.051,139.745 L707.051,145.823 C707.051,146.858 707.633,147.505 708.732,147.505 L718.498,147.505 L718.498,181.651 C718.498,182.686 719.08,183.333 720.179,183.333 L727.034,183.333 C728.069,183.333 728.716,182.751 728.716,181.651 L728.716,147.505 L737.964,147.505 C738.999,147.505 739.646,146.922 739.646,145.823 L739.646,139.745 C739.646,138.709 739.063,138.063 737.964,138.063 Z M704.012,173.438 L690.431,173.438 L690.431,139.745 C690.431,138.709 689.785,138.063 688.75,138.063 L681.313,138.063 C680.278,138.063 679.631,138.645 679.631,139.745 L679.631,181.651 C679.631,182.686 680.213,183.333 681.313,183.333 L704.012,183.333 C705.047,183.333 705.694,182.751 705.694,181.651 L705.694,175.12 C705.694,174.084 705.111,173.438 704.012,173.438 Z M653.829,165.677 L648.414,150.335 L643.675,165.677 L653.829,165.677 Z M669.867,181.393 C670.32,182.557 669.738,183.333 668.509,183.333 L661.395,183.333 C660.425,183.333 659.843,182.945 659.52,181.975 L656.803,174.279 L641.024,174.279 L638.695,181.91 C638.437,182.815 637.726,183.333 636.755,183.333 L629.706,183.333 C628.477,183.333 627.96,182.557 628.348,181.393 L642.511,139.421 C642.834,138.451 643.417,138.063 644.387,138.063 L652.471,138.063 C653.441,138.063 654.087,138.451 654.411,139.421 L669.867,181.393 Z M618.39,173.891 L601.252,173.891 L601.252,164.966 L615.415,164.966 C616.45,164.966 617.096,164.384 617.096,163.285 L617.096,157.399 C617.096,156.365 616.514,155.718 615.415,155.718 L601.252,155.718 L601.252,147.505 L617.808,147.505 C618.842,147.505 619.489,146.922 619.489,145.823 L619.489,139.745 C619.489,138.709 618.907,138.063 617.808,138.063 L592.586,138.063 C591.551,138.063 590.904,138.645 590.904,139.745 L590.904,181.651 C590.904,182.686 591.551,183.333 592.586,183.333 L618.39,183.333 C619.424,183.333 620.071,182.751 620.071,181.651 L620.071,175.572 C620.071,174.538 619.424,173.891 618.39,173.891 Z M576.743,138.063 L569.629,138.063 C568.594,138.063 567.948,138.645 567.948,139.745 L567.948,156.171 L549.516,156.171 L549.516,139.745 C549.516,138.709 548.934,138.063 547.835,138.063 L540.721,138.063 C539.686,138.063 539.04,138.645 539.04,139.745 L539.04,181.651 C539.04,182.686 539.686,183.333 540.721,183.333 L547.835,183.333 C548.87,183.333 549.516,182.751 549.516,181.651 L549.516,165.677 L567.948,165.677 L567.948,181.651 C567.948,182.686 568.594,183.333 569.629,183.333 L576.743,183.333 C577.777,183.333 578.425,182.751 578.425,181.651 L578.425,139.745 C578.425,138.709 577.842,138.063 576.743,138.063 Z M779.025,71.101 C776.756,63.79 770.58,59.252 762.512,59.252 C754.318,59.252 747.889,63.664 745.494,71.101 C745.116,72.236 745.746,72.866 746.754,72.866 L777.765,72.866 C778.773,72.866 779.403,72.236 779.025,71.101 Z M797.808,81.69 L797.808,83.203 C797.808,85.094 796.673,85.976 794.909,85.976 L746.503,85.724 C745.494,85.724 744.864,86.354 745.116,87.363 C747.132,94.926 753.562,100.221 762.89,100.221 C768.311,100.221 773.101,98.204 776.378,94.926 C777.387,93.918 778.395,93.413 779.782,93.413 L793.27,93.413 C795.287,93.413 796.295,94.674 795.413,96.564 C789.866,109.296 777.135,117.112 762.764,117.112 C741.838,117.112 726.459,100.473 726.459,80.051 C726.459,59.756 741.838,43.494 762.764,43.494 C783.311,43.494 797.808,59.756 797.808,81.69 Z M685.49,115.473 L697.969,115.473 C699.734,115.473 700.742,114.465 700.742,112.7 L700.742,77.278 C700.742,66.059 708.054,60.008 717.256,60.008 C718.517,60.008 719.651,60.134 720.66,60.386 C722.551,60.765 723.559,60.134 723.686,58.243 L724.441,46.646 C724.567,45.007 723.811,43.746 722.046,43.621 C721.416,43.494 720.66,43.494 719.904,43.494 C711.332,43.494 705.028,49.168 701.75,55.47 C701.121,56.731 700.238,56.604 700.238,55.092 L700.112,47.78 C700.112,45.89 699.104,45.007 697.339,45.007 L685.49,45.007 C683.725,45.007 682.716,46.016 682.716,47.78 L682.716,112.7 C682.716,114.465 683.725,115.473 685.49,115.473 Z M656.39,80.177 C656.39,68.959 648.195,60.26 637.102,60.26 C626.009,60.26 617.941,68.959 617.941,80.177 C617.941,91.522 626.009,100.221 637.102,100.221 C648.195,100.221 656.39,91.522 656.39,80.177 Z M674.416,80.177 C674.416,100.977 658.28,116.86 637.102,116.86 C615.925,116.86 599.79,100.977 599.79,80.177 C599.79,59.503 615.925,43.494 637.102,43.494 C658.28,43.494 674.416,59.503 674.416,80.177 Z M591.488,30.006 C591.488,28.241 590.48,27.233 588.715,27.233 L569.176,27.233 C567.663,27.233 566.655,27.989 566.024,29.376 L543.394,83.158 L520.896,29.376 C520.266,27.989 519.257,27.233 517.745,27.233 L497.701,27.233 C495.936,27.233 494.928,28.241 494.928,30.006 L494.928,112.7 C494.928,114.465 495.936,115.473 497.701,115.473 L510.685,115.473 C512.45,115.473 513.458,114.465 513.458,112.7 L513.458,58.005 L537.409,113.331 C538.04,114.717 539.048,115.473 540.561,115.473 L545.351,115.473 C546.864,115.473 547.872,114.717 548.502,113.331 L572.075,57.573 L572.075,112.7 C572.075,114.465 573.084,115.473 574.849,115.473 L588.715,115.473 C590.48,115.473 591.488,114.465 591.488,112.7 L591.488,30.006 Z M465.808,71.101 C463.539,63.79 457.362,59.252 449.294,59.252 C441.1,59.252 434.671,63.664 432.276,71.101 C431.898,72.236 432.528,72.866 433.537,72.866 L464.547,72.866 C465.556,72.866 466.186,72.236 465.808,71.101 Z M484.59,81.69 L484.59,83.203 C484.59,85.094 483.456,85.976 481.691,85.976 L433.285,85.724 C432.276,85.724 431.646,86.354 431.898,87.363 C433.915,94.926 440.344,100.221 449.672,100.221 C455.093,100.221 459.883,98.204 463.16,94.926 C464.169,93.918 465.177,93.413 466.564,93.413 L480.052,93.413 C482.069,93.413 483.078,94.674 482.195,96.564 C476.649,109.296 463.917,117.112 449.546,117.112 C428.621,117.112 413.242,100.473 413.242,80.051 C413.242,59.756 428.621,43.494 449.546,43.494 C470.094,43.494 484.59,59.756 484.59,81.69 Z M408.828,43.621 C408.198,43.494 407.441,43.494 406.685,43.494 C398.114,43.494 391.81,49.168 388.533,55.47 C387.903,56.731 387.02,56.604 387.02,55.092 L386.894,47.78 C386.894,45.89 385.886,45.007 384.121,45.007 L372.271,45.007 C370.507,45.007 369.498,46.016 369.498,47.78 L369.498,112.7 C369.498,114.465 370.507,115.473 372.271,115.473 L384.751,115.473 C386.516,115.473 387.524,114.465 387.524,112.7 L387.524,77.278 C387.524,66.059 394.836,60.008 404.038,60.008 C405.298,60.008 406.433,60.134 407.441,60.386 C409.333,60.765 410.341,60.134 410.467,58.243 L411.223,46.646 C411.349,45.007 410.593,43.746 408.828,43.621 Z M338.992,86.606 C336.849,86.48 334.58,86.48 332.311,86.48 C321.722,86.48 313.654,89.127 313.654,95.683 C313.654,99.464 316.554,101.859 321.849,101.859 C330.168,101.859 339.118,95.683 340.379,88.245 C340.505,87.236 340.001,86.732 338.992,86.606 Z M359.54,112.448 C359.792,114.339 358.909,115.473 357.019,115.473 L344.035,115.473 C342.396,115.473 341.387,114.717 341.009,113.204 C340.505,111.062 340.253,108.541 340.127,106.146 C340.127,104.632 339.497,104.38 338.74,105.389 C333.95,112.196 325.504,117.112 316.302,117.112 C304.201,117.112 294.494,109.171 294.494,97.195 C294.494,82.32 308.739,73.37 329.034,73.37 C332.438,73.37 335.715,73.37 338.992,73.496 C340.001,73.496 340.505,72.866 340.505,71.983 L340.505,69.84 C340.505,62.655 335.084,59 328.152,59 C322.605,59 318.193,60.89 315.798,65.303 C315.041,66.689 314.159,67.445 312.646,67.445 L299.788,67.445 C297.897,67.445 296.763,66.311 297.267,64.42 C300.419,52.192 311.26,43.494 328.53,43.494 C345.8,43.494 358.405,52.444 358.405,69.462 L358.405,97.069 C358.405,102.741 358.784,107.658 359.54,112.448 Z M218.103,71.101 C218.103,86.732 230.205,98.834 244.575,98.834 C253.778,98.834 261.845,93.918 266.005,86.732 C266.761,85.346 267.77,84.715 269.283,84.715 L284.41,84.715 C286.427,84.715 287.435,85.976 286.678,87.993 C279.998,105.641 263.61,117.112 244.701,117.112 C218.734,117.112 197.808,96.438 197.808,71.101 C197.808,45.763 218.734,25.216 245.08,25.216 C263.736,25.216 280.25,35.679 286.805,54.335 C287.435,56.226 286.552,57.487 284.536,57.487 L269.535,57.487 C268.022,57.487 267.014,56.856 266.257,55.47 C261.971,47.907 254.282,43.494 245.08,43.494 C230.205,43.494 218.103,55.596 218.103,71.101 Z M153.442,4.544 C148.364,1.498 144.579,0.667 141.902,0.667 C136.455,0.667 132.762,4.083 132.762,8.792 C132.762,12.669 135.255,15.346 140.055,18.116 C149.103,23.378 159.535,34.919 159.535,52.366 C159.535,83.755 127.131,117.913 99.251,133.515 C94.265,136.285 92.05,137.023 90.019,137.023 C87.988,137.023 85.772,136.285 80.787,133.515 C52.906,117.913 20.502,83.755 20.502,52.366 C20.502,34.919 30.934,23.378 39.981,18.116 C44.782,15.346 47.275,12.669 47.275,8.792 C47.275,4.083 43.582,0.667 38.135,0.667 C35.458,0.667 31.673,1.498 26.595,4.544 C11.824,13.315 0.192,31.409 0.192,53.751 C0.192,93.726 41.551,135.638 80.417,155.856 C85.587,158.533 87.711,159.457 90.019,159.457 C92.327,159.457 94.45,158.533 99.62,155.856 C138.486,135.638 179.845,93.726 179.845,53.751 C179.845,31.409 168.213,13.315 153.442,4.544 Z" id="Fill-2" fill="#004BE6"></path>
    </g>
</svg>