<svg id="Layer_1" data-name="Layer 1" xmlns="http://www.w3.org/2000/svg" viewBox="0 0 547.38 81.73"><title>logo-primary-white</title><path d="M165.42,38.66c-5.55-5-6.92-11.49-6.92-16.93A22.83,22.83,0,0,1,164.9,6.12C168.33,2.69,173.54,0,182.34,0a49,49,0,0,1,8.29.69,49.59,49.59,0,0,0,5.83.86c0.63,0.06.74,0.29,0.74,0.63s-0.17,1.14-.29,3.2c-0.11,1.89-.11,5-0.17,5.89s-0.17,1.2-.51,1.2-0.46-.4-0.46-1.2a7.92,7.92,0,0,0-2.4-5.83c-2-1.72-6.41-3.26-11.44-3.26-7.61,0-11.15,2.23-13.15,4.17-4.17,4-5.15,9.09-5.15,14.92,0,10.92,8.41,20.93,20.64,20.93,4.29,0,7.66-.51,10-2.86a10.88,10.88,0,0,0,2.12-4.8c0.11-.63.23-0.86,0.57-0.86s0.4,0.4.4,0.86a59.36,59.36,0,0,1-1.26,7.32,2,2,0,0,1-1.49,1.66c-2.29.92-6.63,1.31-10.29,1.31C175.71,44.83,169.93,42.72,165.42,38.66Z" fill="#fff"/><path d="M215.42,12.5c0.55-1.41.76-1.66,1.06-1.66,0.45,0,.6.6,1.06,1.56,0.81,1.81,7.9,19.48,10.62,26,1.61,3.83,2.82,4.38,3.78,4.68a6.16,6.16,0,0,0,1.76.25,0.48,0.48,0,0,1,.55.35,1,1,0,0,1-1,.35c-0.65,0-3.93,0-7-.1-0.86-.05-1.56-0.05-1.56-0.3s0.1-.2.3-0.3a0.8,0.8,0,0,0,.4-1.16l-4-9.82a0.35,0.35,0,0,0-.4-0.25H210.79a0.47,0.47,0,0,0-.45.35l-2.52,6.85a8.85,8.85,0,0,0-.65,2.87,1.27,1.27,0,0,0,1.51,1.16h0.4c0.35,0,.45.15,0.45,0.35s-0.25.35-.65,0.35c-1.06,0-3.47-.15-4-0.15s-2.67.15-4.48,0.15c-0.55,0-.86-0.1-0.86-0.35a0.39,0.39,0,0,1,.4-0.35,12.54,12.54,0,0,0,1.31-.1c2-.25,2.87-1.76,3.72-3.93Zm4.93,17.82c0.2,0,.2-0.1.15-0.3l-4.38-11.73q-0.38-1-.75,0L211.24,30c0,0.2,0,.3.15,0.3h9Z" fill="#fff"/><path d="M240.08,24c0-6.64,0-7.85-.1-9.21s-0.35-2.16-1.81-2.37a14.4,14.4,0,0,0-1.51-.1,0.43,0.43,0,0,1-.35-0.35c0-.25.2-0.35,0.7-0.35,2,0,5,.1,5.24.1,0.45,0,4.18-.1,5.54-0.1,2.82,0,5.94.25,8.25,1.86a7.5,7.5,0,0,1,3.07,5.84c0,3.17-1.31,6.24-5.44,9.76,3.63,4.53,6.7,8.41,9.26,11.07,2.37,2.42,3.83,2.82,4.93,3a8.12,8.12,0,0,0,1.56.15,0.39,0.39,0,0,1,.4.35c0,0.25-.25.35-1.06,0.35H266c-2.52,0-3.62-.25-4.73-0.86-1.91-1-3.52-3.07-6-6.29-1.86-2.32-3.83-5.08-4.78-6.24a0.68,0.68,0,0,0-.6-0.25l-5.64-.1a0.28,0.28,0,0,0-.3.35v1c0,4.13,0,7.45.2,9.21,0.15,1.26.4,2.06,1.76,2.27a16.24,16.24,0,0,0,2,.2,0.31,0.31,0,0,1,.35.35c0,0.2-.2.35-0.7,0.35-2.42,0-5.23-.15-5.44-0.15-0.05,0-3,.15-4.38.15-0.45,0-.7-0.1-0.7-0.35a0.34,0.34,0,0,1,.35-0.35,6.34,6.34,0,0,0,1.36-.2c0.86-.2,1-1,1.16-2.27a87.28,87.28,0,0,0,.25-9.26V24Zm3.83,3.62a0.63,0.63,0,0,0,.3.55,15,15,0,0,0,4.88.65,5.75,5.75,0,0,0,3.32-.76c1.51-1,2.67-3.27,2.67-6.54,0-5.34-2.92-8.41-7.65-8.41a19.31,19.31,0,0,0-3.17.25,0.55,0.55,0,0,0-.35.5V27.65Z" fill="#fff"/><path d="M287.14,11c10,0,17.52,6.09,17.52,16.06,0,9.56-7.1,17.47-17.77,17.47-12.13,0-17.32-9.11-17.32-16.81C269.58,20.86,274.91,11,287.14,11Zm1,31.76c4,0,12-2.11,12-14.5,0-10.27-6.24-15.65-13.24-15.65-7.4,0-12.74,4.63-12.74,13.94C274.16,36.56,280.15,42.8,288.15,42.8Z" fill="#fff"/><path d="M318,31.68c0,6.29.1,8.86,0.91,9.61s2.42,1,5.89,1c2.32,0,4.28,0,5.34-1.31a5.23,5.23,0,0,0,1.06-2.42,0.55,0.55,0,0,1,.45-0.55c0.2,0,.3.2,0.3,0.65a27,27,0,0,1-.65,4.28c-0.3,1-.45,1.16-2.82,1.16-3.17,0-5.64-.05-7.7-0.15s-3.52-.1-4.83-0.1c-0.2,0-1,0-1.81.05s-1.86.1-2.57,0.1c-0.45,0-.7-0.1-0.7-0.35a0.34,0.34,0,0,1,.35-0.35,6.34,6.34,0,0,0,1.36-.2c0.86-.2,1-1,1.16-2.27a87.63,87.63,0,0,0,.25-9.26V24c0-6.64,0-7.85-.1-9.21s-0.35-2.16-1.81-2.37a14.4,14.4,0,0,0-1.51-.1,0.43,0.43,0,0,1-.35-0.35c0-.25.2-0.35,0.7-0.35,2,0,4.78.1,5,.1s3.52-.1,4.88-0.1c0.45,0,.71.1,0.71,0.35a0.38,0.38,0,0,1-.35.3c-0.3,0-1,0-1.46.1-1.31.25-1.56,0.91-1.66,2.42,0,1.36,0,2.57,0,9.21v7.65Z" fill="#fff"/><path d="M344.88,31.58c0,4.13,0,7.5.2,9.26,0.15,1.26.3,2.06,1.61,2.27a18,18,0,0,0,2,.2,0.34,0.34,0,0,1,.35.35c0,0.2-.2.35-0.71,0.35-2.47,0-5.33-.15-5.54-0.15s-3,.15-4.38.15c-0.45,0-.7-0.1-0.7-0.35a0.34,0.34,0,0,1,.35-0.35,6.33,6.33,0,0,0,1.36-.2c0.86-.2,1-1,1.16-2.27,0.2-1.76.25-5.13,0.25-9.26V24c0-6.64,0-7.85-.1-9.21s-0.45-2.11-1.41-2.32a7.92,7.92,0,0,0-1.36-.15,0.38,0.38,0,0,1-.35-0.35c0-.25.2-0.35,0.71-0.35,1.46,0,4.23.1,4.48,0.1s3.07-.1,4.43-0.1c0.5,0,.71.1,0.71,0.35a0.43,0.43,0,0,1-.35.35,5,5,0,0,0-1.11.1c-1.21.25-1.46,0.86-1.56,2.37,0,1.36,0,2.57,0,9.21v7.55Z" fill="#fff"/><path d="M361.29,38.17c0.1,3.52.5,4.58,1.71,4.88a10.55,10.55,0,0,0,2.21.25,0.34,0.34,0,0,1,.35.35c0,0.25-.3.35-0.81,0.35-2.52,0-4.28-.15-4.68-0.15S357.82,44,355.8,44c-0.45,0-.7-0.05-0.7-0.35a0.34,0.34,0,0,1,.35-0.35,7,7,0,0,0,1.81-.25c1.11-.3,1.26-1.46,1.26-5.33V13.21c0-1.71.25-2.16,0.6-2.16a4,4,0,0,1,1.71,1.31c0.7,0.7,7.15,7.55,14,14.6,4.38,4.53,9.11,9.61,10.47,11l-0.45-21.44c-0.05-2.77-.3-3.72-1.66-4a14.26,14.26,0,0,0-2.16-.2,0.35,0.35,0,0,1-.35-0.4c0-.25.35-0.3,0.86-0.3,2,0,4.13.1,4.63,0.1s2-.1,3.78-0.1c0.45,0,.81,0,0.81.3a0.5,0.5,0,0,1-.5.4,5,5,0,0,0-1.06.1c-1.46.3-1.56,1.16-1.56,3.73l-0.1,25.07c0,2.82-.05,3.07-0.35,3.07-0.45,0-.91-0.35-3.37-2.62-0.45-.4-6.85-6.7-11.53-11.58C367.13,24.73,362.14,19.5,360.79,18Z" fill="#fff"/><path d="M408.1,12.5c0.55-1.41.75-1.66,1.06-1.66,0.45,0,.6.6,1.06,1.56,0.81,1.81,7.9,19.48,10.62,26,1.61,3.83,2.82,4.38,3.78,4.68a6.16,6.16,0,0,0,1.76.25,0.48,0.48,0,0,1,.55.35,1,1,0,0,1-1,.35c-0.65,0-3.93,0-7-.1-0.86-.05-1.56-0.05-1.56-0.3s0.1-.2.3-0.3a0.8,0.8,0,0,0,.4-1.16l-4-9.82a0.35,0.35,0,0,0-.4-0.25H403.47a0.47,0.47,0,0,0-.45.35l-2.52,6.85a8.85,8.85,0,0,0-.65,2.87,1.27,1.27,0,0,0,1.51,1.16h0.4c0.35,0,.45.15,0.45,0.35S402,44,401.56,44c-1.06,0-3.47-.15-4-0.15S394.91,44,393.1,44c-0.55,0-.86-0.1-0.86-0.35a0.39,0.39,0,0,1,.4-0.35,12.52,12.52,0,0,0,1.31-.1c2-.25,2.87-1.76,3.73-3.93ZM413,30.32c0.2,0,.2-0.1.15-0.3l-4.38-11.73q-0.38-1-.75,0L403.92,30c0,0.2,0,.3.15,0.3h9Z" fill="#fff"/><path d="M435.14,17.38c0-8.92,0-10.52-.11-12.35s-0.57-2.86-2.46-3.26a10.71,10.71,0,0,0-1.94-.17,0.4,0.4,0,0,1-.46-0.34c0-.34.29-0.46,0.92-0.46,1.31,0,2.86,0,4.12.06L437.54,1c0.4,0,11.78,0,13.09-.06A15.3,15.3,0,0,0,453.1.63a4.53,4.53,0,0,1,.8-0.29c0.17,0,.23.23,0.23,0.51s-0.29,1.09-.46,2.69c-0.06.57-.17,3.09-0.29,3.77a0.67,0.67,0,0,1-.4.63c-0.34,0-.46-0.29-0.46-0.74a6.14,6.14,0,0,0-.34-2.06c-0.4-.92-1-1.6-4.06-1.94-1-.11-7.21-0.17-7.83-0.17-0.23,0-.34.17-0.34,0.57V19.39c0,0.4.06,0.57,0.34,0.57,0.74,0,7.78,0,9.09-.11s2.17-.23,2.69-0.8a1.74,1.74,0,0,1,.86-0.74c0.17,0,.29.12,0.29,0.46s-0.29,1.32-.46,3.2c-0.11,1.14-.23,3.26-0.23,3.66s0,1.09-.4,1.09a0.43,0.43,0,0,1-.4-0.51,5.84,5.84,0,0,0-.23-1.89c-0.23-.8-0.74-1.77-3-2C447,22.13,441.32,22,440.35,22a0.36,0.36,0,0,0-.4.4v5c0,1.94-.06,8.58,0,9.78,0.17,3.95,1,4.69,6.63,4.69a16.4,16.4,0,0,0,5.49-.63c1.49-.63,2.17-1.77,2.57-4.12,0.12-.63.23-0.86,0.51-0.86s0.34,0.46.34,0.86-0.46,4.35-.74,5.55c-0.4,1.49-.86,1.49-3.09,1.49-4.29,0-7.43-.11-9.66-0.17s-3.6-.17-4.46-0.17c-0.11,0-1.09,0-2.29.06S432.8,44,431.94,44c-0.63,0-.91-0.11-0.91-0.46a0.37,0.37,0,0,1,.46-0.34A8.83,8.83,0,0,0,433.2,43c1.14-.23,1.43-1.49,1.66-3.15,0.29-2.4.29-6.92,0.29-12.41V17.38Z" fill="#fff"/><path d="M474.39,12.5c0.55-1.41.75-1.66,1.06-1.66,0.45,0,.6.6,1.06,1.56,0.81,1.81,7.9,19.48,10.62,26,1.61,3.83,2.82,4.38,3.78,4.68a6.16,6.16,0,0,0,1.76.25,0.48,0.48,0,0,1,.55.35,1,1,0,0,1-1,.35c-0.65,0-3.93,0-7-.1-0.86-.05-1.56-0.05-1.56-0.3s0.1-.2.3-0.3a0.8,0.8,0,0,0,.4-1.16l-4-9.82a0.35,0.35,0,0,0-.4-0.25H469.76a0.47,0.47,0,0,0-.45.35l-2.52,6.85a8.85,8.85,0,0,0-.65,2.87,1.27,1.27,0,0,0,1.51,1.16h0.4c0.35,0,.45.15,0.45,0.35s-0.25.35-.66,0.35c-1.06,0-3.47-.15-4-0.15S461.2,44,459.39,44c-0.55,0-.86-0.1-0.86-0.35a0.39,0.39,0,0,1,.4-0.35,12.52,12.52,0,0,0,1.31-.1c2-.25,2.87-1.76,3.73-3.93Zm4.93,17.82c0.2,0,.2-0.1.15-0.3L475.1,18.29q-0.38-1-.75,0L470.21,30c0,0.2,0,.3.15,0.3h9Z" fill="#fff"/><path d="M495.78,43.41c-0.6-.3-0.65-0.45-0.65-1.61,0-2.11.2-3.83,0.25-4.53,0-.45.1-0.71,0.35-0.71a0.41,0.41,0,0,1,.4.5,6.44,6.44,0,0,0,.15,1.56c0.71,3.12,4,4.23,7,4.23,4.38,0,6.64-2.47,6.64-5.69,0-3.07-1.66-4.53-5.59-7.45l-2-1.51C497.55,24.63,496,22,496,19c0-5,4-8.05,9.82-8.05a21.43,21.43,0,0,1,4.58.5,5.75,5.75,0,0,0,1.56.2c0.35,0,.45.05,0.45,0.3a45.22,45.22,0,0,0-.2,4.53c0,0.65,0,1-.35,1s-0.35-.2-0.4-0.55a7.88,7.88,0,0,0-.65-2.11c-0.3-.5-1.76-2.11-5.74-2.11-3.22,0-5.89,1.61-5.89,4.63,0,2.72,1.36,4.28,5.74,7.25l1.26,0.86c5.39,3.67,7.25,6.64,7.25,10.32a8.34,8.34,0,0,1-4.13,7.3c-1.86,1.21-4.63,1.51-7,1.51A16.28,16.28,0,0,1,495.78,43.41Z" fill="#fff"/><path d="M535.55,31.58c0,4.13,0,7.5.2,9.26,0.15,1.26.35,2.06,1.71,2.27a17,17,0,0,0,2,.2,0.31,0.31,0,0,1,.35.35c0,0.2-.2.35-0.71,0.35-2.42,0-5.23-.15-5.49-0.15s-3.27.15-4.58,0.15c-0.5,0-.7-0.1-0.7-0.35a0.31,0.31,0,0,1,.35-0.3,5.9,5.9,0,0,0,1.31-.2c0.91-.2,1.16-1.06,1.31-2.32,0.2-1.76.2-5.13,0.2-9.26v-18l-6.39.1c-2.77,0-3.83.35-4.48,1.36a7,7,0,0,0-.71,1.36,0.42,0.42,0,0,1-.45.4,0.33,0.33,0,0,1-.3-0.35c0-.45.91-4.28,1-4.63A1.7,1.7,0,0,1,520.6,11a15.42,15.42,0,0,0,2,.5c1.26,0.15,3,.2,3.47.2h16.71a22,22,0,0,0,3.17-.2c0.65-.1,1.06-0.2,1.26-0.2s0.2,0.25.2,0.5c0,1.31-.15,4.38-0.15,4.88a0.48,0.48,0,0,1-.4.55c-0.2,0-.3-0.15-0.35-0.76l-0.05-.45c-0.15-1.31-1.11-2.26-5.33-2.37l-5.54-.1v18Z" fill="#fff"/><path d="M60.53,33.17q3.15,1.14,6.18,2.1C85.77,22.32,109.8,10.56,140.15,6.61V0.09C106.8,4.4,80.74,18.52,60.53,33.17ZM86,39.8a156.9,156.9,0,0,1,54.19-13.06V20.08c-27.2,2.26-46.44,10-62.4,18.18Q82,39.2,86,39.8Z" fill="#fff"/><path d="M236.22,67.55V60.68h1.72V77h-1.72V69h-7v8h-1.72V60.68h1.72v6.87h7Z" fill="#fff"/><path d="M259.19,62.15h-7.14v5.56h5.1v1.47h-5.1v6.36h7.62V77h-9.34V60.68h8.86v1.47Z" fill="#fff"/><path d="M282.27,77h-1.76L279,71.81H273.7L272.3,77h-1.76l4.6-16.34h2.44Zm-5.94-15.25h0l-2.14,8.57h4.47Z" fill="#fff"/><path d="M295.08,75.55h7V77h-8.69V60.68h1.72V75.55Z" fill="#fff"/><path d="M320.49,62.15H316.1V77h-1.72V62.15H310V60.68h10.5v1.47Z" fill="#fff"/><path d="M340.61,67.55V60.68h1.72V77h-1.72V69h-7v8h-1.72V60.68h1.72v6.87h7Z" fill="#fff"/><path d="M379,65.09c-0.55-1.83-1.3-3.34-3.4-3.34a2.86,2.86,0,0,0-2.88,2.79c0,4.07,8,2.48,8,8.19a4.53,4.53,0,0,1-4.87,4.62,5.42,5.42,0,0,1-5.56-4.62l1.66-.4A4.21,4.21,0,0,0,375.82,76a3.06,3.06,0,0,0,3.13-3c0-4.54-8-2.65-8-8.13a4.44,4.44,0,0,1,4.7-4.45c2.58,0,4.24,1.91,4.85,4.26Z" fill="#fff"/><path d="M398,70.18V77h-1.72V70.18l-4.87-9.49h1.81l3.95,7.83h0L401,60.68h1.74Z" fill="#fff"/><path d="M422.23,65.09c-0.55-1.83-1.3-3.34-3.4-3.34a2.86,2.86,0,0,0-2.88,2.79c0,4.07,8,2.48,8,8.19A4.53,4.53,0,0,1,419,77.36a5.42,5.42,0,0,1-5.56-4.62l1.66-.4A4.21,4.21,0,0,0,419.06,76a3.06,3.06,0,0,0,3.13-3c0-4.54-8-2.65-8-8.13a4.44,4.44,0,0,1,4.7-4.45c2.58,0,4.24,1.91,4.85,4.26Z" fill="#fff"/><path d="M445.52,62.15h-4.39V77h-1.72V62.15H435V60.68h10.5v1.47Z" fill="#fff"/><path d="M465.8,62.15h-7.14v5.56h5.1v1.47h-5.1v6.36h7.62V77h-9.34V60.68h8.86v1.47Z" fill="#fff"/><path d="M480.16,77h-1.72V60.68h2.86l3.57,13.46h0.06l3.51-13.46h2.92V77h-1.72V62.22h0l-4,14.8H484.2l-4-14.8h0V77Z" fill="#fff"/><path d="M51.61,45.15C31.3,35.2,14.27,30.73,0,29.21V42.08c13.72,3.44,29.88,10.47,51.4,23.38,31.74,19,71.31,19.89,88.45,10.16V56.15C129.27,61.86,100.86,69.26,51.61,45.15ZM50.58,31A132.93,132.93,0,0,0,0,19.83v4.93A133.94,133.94,0,0,1,50,36.91c48.11,21.83,77.45,13,89.9,6.61v-11C126.58,40.57,97.28,51.16,50.58,31Z" fill="#fff"/></svg>