<?xml version="1.0" encoding="utf-8"?>
<!-- Generator: Adobe Illustrator 23.0.1, SVG Export Plug-In . SVG Version: 6.00 Build 0)  -->
<svg version="1.1" id="Layer_1" xmlns="http://www.w3.org/2000/svg" xmlns:xlink="http://www.w3.org/1999/xlink" x="0px" y="0px"
	 viewBox="0 0 316.7 164.2" style="enable-background:new 0 0 316.7 164.2;" xml:space="preserve">
<style type="text/css">
	.st0{fill:#24337A;}
	.st1{fill-rule:evenodd;clip-rule:evenodd;fill:#7B868C;}
	.st2{fill:#7B868C;}
	.st3{fill:#EF7724;}
	.st4{fill:#FFFFFF;}
</style>
<path class="st0" d="M113.5,15.3l0.8,5.5l0.1,0.6l-0.1,0.2c-0.1,0.1-0.2,0.2-0.4,0.2c-0.2,0-0.5-0.3-0.8-1c-2.9-5-6.9-7.5-12-7.5
	c-4,0-7.2,1.2-9.5,3.6s-3.5,5.7-3.5,9.9c0,4.8,1.3,8.7,3.9,11.8c2.6,3,5.9,4.6,9.9,4.6c2.4,0,4.7-0.6,7-1.8s3.9-2.7,4.7-4.5
	c0.4-0.8,0.7-1.2,0.9-1.2c0.3,0,0.4,0.1,0.4,0.4v0.3l-0.1,0.5l-0.5,2.8l-0.1,0.4c-0.1,0.4-0.4,0.8-1.1,1.2c-3.6,2.3-7.6,3.4-12,3.4
	c-5.1,0-9.1-1.5-12.2-4.4s-4.6-6.8-4.6-11.6s1.6-8.8,4.8-11.9c3.2-3.2,7.2-4.8,12.1-4.8c3.3,0,6.4,0.7,9.1,2.2l0.9,0.5l0.4,0.2
	L112,15c0.1,0,0.2-0.1,0.4-0.2c0.3-0.2,0.6-0.4,0.7-0.4C113.3,14.4,113.5,14.7,113.5,15.3z"/>
<path class="st0" d="M126.4,33.9v-2.8c0-1.8-0.3-3-1-3.6c-0.9-0.9-2.1-1.4-3.7-1.4c-2.1,0-3.1,0.9-3.1,2.6c0,0.5,0.1,1.1,0.3,1.7
	c0.1,0.3,0.1,0.5,0.2,0.7c0,0.3-0.1,0.4-0.5,0.4c-0.7,0-1.4-0.2-2-0.5s-0.9-0.6-0.9-1c0-0.9,0.5-2,1.6-3.1c1.4-1.5,3.3-2.2,5.6-2.2
	c2.1,0,3.8,0.5,5,1.4c1.2,0.9,1.8,2.2,1.8,3.9v9c0,1.4,0.2,2.4,0.5,3.1c0.4,0.6,0.9,0.9,1.8,0.9c0.2,0,0.4,0,0.6,0
	c0.3-0.1,0.5-0.1,0.6-0.1c0.3,0,0.4,0.1,0.4,0.3c0,0.3-0.4,0.6-1.1,0.8c-0.7,0.3-1.4,0.4-2.1,0.4c-1.3,0-2.5-0.8-3.5-2.4
	c-2.3,1.7-4.4,2.5-6.3,2.5c-1.5,0-2.6-0.4-3.5-1.2s-1.3-1.8-1.3-3.1c0-1.8,0.8-3.1,2.5-4.1C119.7,35.3,122.5,34.5,126.4,33.9z
	 M126.4,34.9c-2.4,0.2-4.3,0.8-5.6,1.6c-1.3,0.9-2,2-2,3.3c0,1.1,0.3,1.9,0.9,2.5s1.5,0.9,2.6,0.9c1.3,0,2.4-0.4,3.3-1.3
	c0.5-0.5,0.8-1.4,0.8-2.5C126.4,39.4,126.4,34.9,126.4,34.9z"/>
<path class="st0" d="M139.3,28.9c1.8-2.8,3.5-4.2,5-4.2c0.5,0,1.1,0.3,1.9,0.9c0.8,0.6,1.2,1,1.2,1.4c0,0.2-0.2,0.7-0.7,1.3
	c-0.5,0.6-0.9,0.9-1.1,0.9c-0.1,0-0.5-0.2-1-0.6c-0.7-0.5-1.3-0.7-1.9-0.7c-1,0-1.8,0.3-2.4,1c-0.6,0.7-1,1.5-1,2.5v8.2
	c0,1.3,0.2,2.2,0.5,2.7c0.4,0.5,1,0.9,1.9,0.9l1.2,0.1c0.5,0,0.8,0.2,0.8,0.5s-0.2,0.5-0.7,0.5c-0.1,0-0.5,0-1.1-0.1
	c-0.3,0-0.7,0-1.3,0h-1.7h-1c-1.2,0-2.1,0-2.6,0.1c-0.4,0.1-0.7,0.1-0.9,0.1c-0.4,0-0.6-0.1-0.6-0.4c0-0.3,0.2-0.4,0.7-0.5
	c0.7-0.2,1.1-0.4,1.3-0.9c0.2-0.4,0.3-1.3,0.3-2.7V30c0-1.8-0.9-2.7-2.6-2.7h-0.8c-0.4,0-0.5-0.2-0.5-0.5c0-0.2,0.1-0.3,0.4-0.4
	c0.1,0,0.3-0.1,0.5-0.1c1.5-0.1,3.2-0.8,5.2-2c0.2-0.1,0.4-0.2,0.5-0.2c0.4,0,0.5,0.2,0.5,0.8v0.4L139.3,28.9L139.3,28.9z"/>
<path class="st0" d="M156.5,24.7c2.8,0,5.3,1,7.3,2.9s3,4.3,3,6.9c0,2.9-1,5.3-3,7.2s-4.5,2.9-7.6,2.9c-3,0-5.4-0.9-7.4-2.8
	c-1.9-1.9-2.9-4.2-2.9-7.1c0-2.8,1-5.2,3.1-7.1C151.1,25.7,153.5,24.7,156.5,24.7z M155.9,25.7c-2,0-3.5,0.7-4.7,2.1
	s-1.8,3.3-1.8,5.6c0,2.9,0.7,5.4,2.2,7.4s3.4,3,5.6,3c1.9,0,3.5-0.7,4.6-2.1c1.1-1.4,1.7-3.3,1.7-5.7c0-3-0.7-5.5-2.1-7.4
	C159.9,26.6,158.1,25.7,155.9,25.7z"/>
<path class="st0" d="M173.4,11.7v27.1c0,1.3,0.1,2.2,0.4,2.9c0.3,0.8,1.3,1.3,2.9,1.5c0.4,0.1,0.7,0.2,0.7,0.5s-0.2,0.5-0.5,0.5
	c-0.1,0-0.3,0-0.6-0.1c-0.2,0-0.6-0.1-1.1-0.1h-2.1h-1.2c-1.5,0-2.4,0-2.8,0.1c-0.5,0.1-0.8,0.1-0.9,0.1c-0.4,0-0.6-0.1-0.6-0.5
	c0-0.3,0.2-0.4,0.7-0.6c0.7-0.2,1.2-0.5,1.4-0.8s0.4-0.9,0.4-1.6V15.3c0-1.4-0.5-2.1-1.5-2.1h-1.2c-0.2,0-0.3,0-0.4,0
	c-0.2-0.1-0.3-0.2-0.3-0.4s0.2-0.4,0.6-0.5c0.5-0.1,1-0.3,1.5-0.4l1.4-0.6c1.1-0.4,1.9-0.8,2.3-1.1c0.2-0.1,0.3-0.2,0.5-0.2
	s0.4,0.3,0.4,1L173.4,11.7z"/>
<path class="st0" d="M183.2,40.3c0,1.1,0.1,1.8,0.4,2.2c0.2,0.4,0.8,0.6,1.5,0.7l1.1,0.1c0.6,0.1,0.8,0.3,0.8,0.6s-0.2,0.4-0.6,0.4
	c-0.3,0-0.8,0-1.5-0.1c-0.4,0-1-0.1-1.7-0.1h-1.5l-1.7,0.1c-0.3,0-0.6,0-0.7,0.1c-0.4,0-0.7,0.1-0.9,0.1c-0.4,0-0.6-0.1-0.6-0.4
	c0-0.2,0.1-0.4,0.4-0.5l0.4-0.1c0.5-0.2,0.9-0.5,1.1-0.9c0.2-0.4,0.3-1.1,0.3-2v-10c0-1.3-0.1-2.1-0.4-2.5c-0.3-0.4-0.8-0.6-1.6-0.6
	c-0.6,0-0.9-0.1-0.9-0.4c0-0.2,0.4-0.4,1.2-0.7c0.9-0.3,2-0.8,3.4-1.5l1.3-0.6c0.2,0,0.3,0.2,0.3,0.6v15.5H183.2z M181.7,15.2
	c0.4,0,0.8,0.3,1.2,0.9l0.6,0.9c0.2,0.2,0.2,0.4,0.2,0.6c0,0.4-0.3,0.8-0.8,1.5c-0.6,0.6-1,0.9-1.3,0.9s-0.7-0.3-1.3-0.9
	c-0.5-0.6-0.8-1.1-0.8-1.5s0.3-0.9,0.9-1.5C180.9,15.5,181.4,15.2,181.7,15.2z"/>
<path class="st0" d="M192.9,28.4c2.1-2.4,4.3-3.7,6.6-3.7c2.5,0,4.5,1,6,3c1,1.4,1.5,3.5,1.5,6.3v5.5v0.7l0.1,1.1
	c0.2,1,0.8,1.6,2,1.8l1,0.1c0.4,0.1,0.6,0.2,0.7,0.4c0,0.3-0.2,0.5-0.8,0.5c-0.2,0-0.5,0-0.9-0.1c-0.5-0.1-1.5-0.1-2.9-0.1l-2.3,0.1
	H203h-0.7l-0.3-0.1c-0.1-0.1-0.2-0.2-0.2-0.4s0.1-0.4,0.4-0.4l0.7-0.2c0.6-0.2,0.9-0.7,0.9-1.7v-7.9c0-2.1-0.5-3.8-1.5-4.9
	c-1-1.2-2.4-1.7-4.3-1.7c-1.3,0-2.5,0.4-3.5,1.1c-1,0.8-1.5,1.6-1.5,2.6v8.8v0.7v1.2c0.1,1.3,1.2,2,3.3,2.1c0.5,0,0.8,0.2,0.8,0.5
	s-0.2,0.4-0.5,0.4s-0.7,0-1.2-0.1c-0.3,0-1-0.1-2.2-0.1c-2.5,0-4,0-4.5,0.1s-0.8,0.1-0.9,0.1c-0.3,0-0.4-0.1-0.4-0.4
	c0-0.2,0.2-0.3,0.4-0.4c0.8-0.3,1.3-0.6,1.6-1s0.4-1,0.4-1.9V30.1c0-1.1-0.1-1.8-0.4-2.2c-0.3-0.4-0.8-0.6-1.5-0.6h-1
	c-0.1,0-0.3,0-0.4-0.1c-0.1-0.1-0.2-0.2-0.2-0.3c0-0.2,0.2-0.4,0.6-0.5c1.1-0.2,2.1-0.5,3-0.9l1.2-0.6c0.5-0.2,0.8-0.4,0.9-0.4
	c0.2-0.1,0.4-0.2,0.6-0.2c0.3,0,0.4,0.2,0.4,0.7c0,0.2,0,0.5,0,0.9v2.5H192.9z"/>
<path class="st0" d="M221.1,33.9v-2.8c0-1.8-0.3-3-1-3.6c-0.9-0.9-2.1-1.4-3.7-1.4c-2.1,0-3.1,0.9-3.1,2.6c0,0.5,0.1,1.1,0.3,1.7
	c0.1,0.3,0.1,0.5,0.2,0.7c0,0.3-0.1,0.4-0.5,0.4c-0.7,0-1.4-0.2-2-0.5s-0.9-0.6-0.9-1c0-0.9,0.5-2,1.6-3.1c1.4-1.5,3.3-2.2,5.6-2.2
	c2.1,0,3.8,0.5,5,1.4s1.8,2.2,1.8,3.9v9c0,1.4,0.2,2.4,0.5,3.1c0.4,0.6,0.9,0.9,1.8,0.9c0.2,0,0.4,0,0.6,0c0.3-0.1,0.5-0.1,0.6-0.1
	c0.3,0,0.4,0.1,0.4,0.3c0,0.3-0.4,0.6-1.1,0.8c-0.7,0.3-1.4,0.4-2.1,0.4c-1.3,0-2.5-0.8-3.5-2.4c-2.3,1.7-4.4,2.5-6.3,2.5
	c-1.5,0-2.6-0.4-3.5-1.2s-1.3-1.8-1.3-3.1c0-1.8,0.8-3.1,2.5-4.1C214.4,35.3,217.2,34.5,221.1,33.9z M221.1,34.9
	c-2.4,0.2-4.3,0.8-5.6,1.6c-1.3,0.9-2,2-2,3.3c0,1.1,0.3,1.9,0.9,2.5c0.6,0.6,1.5,0.9,2.6,0.9c1.3,0,2.4-0.4,3.3-1.3
	c0.5-0.5,0.8-1.4,0.8-2.5V34.9z"/>
<path class="st0" d="M99.3,48.2c4.8,0,8.7,1.5,11.8,4.5c3.1,3,4.6,6.8,4.6,11.4c0,4.9-1.5,8.9-4.6,12.1s-7.1,4.7-11.9,4.7
	c-5,0-9-1.5-12-4.5c-3.1-3-4.6-7-4.6-11.8c0-2.1,0.4-4.2,1.2-6.3c0.8-2.1,1.9-3.8,3.3-5.2c1.4-1.5,3.3-2.6,5.5-3.5
	C94.8,48.6,97,48.2,99.3,48.2z M97.9,49.7c-3.6,0-6.4,1.2-8.5,3.6c-2.1,2.4-3.1,5.6-3.1,9.7c0,4.7,1.3,8.6,4,11.8
	c2.7,3.2,6,4.8,9.9,4.8c3.6,0,6.5-1.3,8.8-3.9s3.5-5.9,3.5-9.9c0-4.6-1.4-8.4-4.2-11.5C105.5,51.2,102,49.7,97.9,49.7z"/>
<path class="st0" d="M123,65.2c1.8-2.8,3.4-4.2,4.9-4.2c0.5,0,1.1,0.3,1.9,0.9c0.8,0.6,1.2,1,1.2,1.4c0,0.2-0.2,0.7-0.7,1.3
	s-0.9,0.9-1.1,0.9c-0.1,0-0.4-0.2-1-0.6c-0.7-0.5-1.3-0.7-1.9-0.7c-0.9,0-1.7,0.3-2.3,1c-0.6,0.7-0.9,1.5-0.9,2.5v8.2
	c0,1.3,0.2,2.2,0.5,2.7s0.9,0.9,1.8,0.9l1.2,0.1c0.5,0,0.7,0.2,0.7,0.5s-0.2,0.5-0.6,0.5c-0.1,0-0.5,0-1.1-0.1c-0.3,0-0.7,0-1.3,0
	h-1.7h-1c-1.2,0-2.1,0-2.6,0.1c-0.4,0.1-0.7,0.1-0.8,0.1c-0.4,0-0.6-0.1-0.6-0.5c0-0.3,0.2-0.4,0.7-0.5c0.7-0.2,1.1-0.4,1.3-0.9
	c0.2-0.4,0.3-1.3,0.3-2.7v-9.9c0-1.8-0.8-2.7-2.5-2.7h-0.8c-0.4,0-0.5-0.2-0.5-0.5c0-0.2,0.1-0.3,0.3-0.4c0.1,0,0.3-0.1,0.5-0.1
	c1.4-0.1,3.1-0.8,5.1-2c0.2-0.1,0.4-0.2,0.5-0.2c0.3,0,0.5,0.2,0.5,0.8v0.4C123,61.5,123,65.2,123,65.2z"/>
<path class="st0" d="M136.6,63.8v11.6c0,1.5,0.2,2.5,0.6,2.9c0.6,0.7,1.5,1,2.7,1c0.9,0,1.7-0.2,2.4-0.5l1.2-0.6h0.1
	c0.2,0,0.3,0.1,0.3,0.3c0,0.5-0.6,1-1.8,1.6s-2.3,0.9-3.4,0.9c-3.5,0-5.3-1.8-5.3-5.5V63.8h-2c-0.4,0-0.6-0.1-0.6-0.3
	s0.2-0.5,0.6-0.8c1.8-1.5,3.2-3.1,4.1-4.6c0.4-0.7,0.7-1,0.9-1s0.3,0.2,0.3,0.6l-0.1,4h4.9c0.7,0,1.2-0.1,1.6-0.4
	c0.2-0.2,0.4-0.3,0.5-0.3c0.2,0,0.2,0.1,0.2,0.3c0,0.1-0.1,0.3-0.2,0.6l-0.5,1.3c-0.2,0.5-0.5,0.7-1,0.7L136.6,63.8L136.6,63.8z"/>
<path class="st0" d="M148.6,64.6c2-2.4,4.1-3.7,6.4-3.7c2.2,0,3.9,0.7,5.2,2.2s2,3.4,2,5.9v7.3c0,1.2,0.2,2,0.6,2.4
	c0.4,0.4,1.2,0.7,2.4,0.9c0.4,0.1,0.6,0.2,0.6,0.5s-0.2,0.4-0.6,0.4c-0.2,0-0.6,0-1.1-0.1c-1.1-0.1-2.1-0.1-2.9-0.1
	c-1.3,0-2.3,0-3,0.1c-0.4,0-0.6,0.1-0.7,0.1c-0.4,0-0.6-0.1-0.6-0.4c0-0.2,0.1-0.3,0.5-0.5c0.8-0.3,1.3-0.6,1.4-0.8
	c0.2-0.2,0.3-0.7,0.3-1.4v-0.7v-7.6c0-1.9-0.5-3.5-1.5-4.6s-2.3-1.7-4-1.7c-1.3,0-2.4,0.4-3.5,1.2c-1,0.8-1.6,1.7-1.6,2.7v8.9
	c0,1.6,0.2,2.6,0.5,3.1c0.4,0.5,1.2,0.8,2.6,1c0.5,0.1,0.8,0.3,0.8,0.6c0,0.3-0.2,0.4-0.5,0.4c-0.2,0-0.6,0-1.3-0.1
	c-0.6-0.1-1.7-0.1-3.5-0.1c-0.6,0-1.5,0-2.7,0.1c-0.5,0-0.9,0.1-1.1,0.1c-0.4,0-0.6-0.1-0.6-0.4s0.2-0.5,0.5-0.6
	c0.9-0.3,1.5-0.6,1.7-0.9c0.2-0.4,0.3-1.2,0.3-2.5v-24c0-1.9-0.5-2.8-1.5-2.7l-1.2,0.1c-0.1,0-0.2,0-0.3-0.1s-0.2-0.2-0.2-0.3
	c0-0.2,0.2-0.4,0.5-0.5c1-0.2,2-0.6,3.2-1.2l1.8-0.9c0.2-0.1,0.3-0.1,0.5-0.1c0.3,0,0.4,0.2,0.4,0.5c0,0.1,0,0.3,0,0.6s0,0.7,0,1.2
	v15.7H148.6z"/>
<path class="st0" d="M175.8,61c2.8,0,5.1,1,7.1,2.9s3,4.3,3,6.9c0,2.9-1,5.3-2.9,7.2c-1.9,1.9-4.4,2.9-7.4,2.9
	c-2.9,0-5.3-0.9-7.2-2.8c-1.9-1.8-2.8-4.2-2.8-7.1c0-2.8,1-5.2,3-7.1C170.6,61.9,173,61,175.8,61z M175.2,61.9
	c-1.9,0-3.5,0.7-4.6,2.1c-1.2,1.4-1.8,3.3-1.8,5.6c0,2.9,0.7,5.4,2.2,7.4s3.3,3,5.4,3c1.9,0,3.4-0.7,4.5-2.1s1.6-3.3,1.6-5.7
	c0-3-0.7-5.5-2.1-7.4C179.2,62.8,177.4,61.9,175.2,61.9z"/>
<path class="st0" d="M192.5,64.4c2.3-2.3,4.5-3.4,6.8-3.4s4.2,0.9,5.8,2.6c1.5,1.7,2.3,3.9,2.3,6.5c0,3-0.9,5.6-2.8,7.7
	c-1.9,2.1-4.1,3.2-6.8,3.2c-1.5,0-3.2-0.5-5.2-1.4v4.6c0,1.7,0.2,2.8,0.7,3.4s1.4,0.8,2.8,0.8c0.5,0,0.7,0.2,0.7,0.5
	s-0.2,0.4-0.6,0.4H195h-2.2h-2.4h-1l-0.9,0.1h-1.1h-0.3c-0.1-0.1-0.2-0.2-0.2-0.4c0-0.3,0.2-0.4,0.6-0.5c0.7-0.1,1.2-0.5,1.5-1
	s0.4-1.4,0.4-2.5v-0.9V66.8v-1c0-0.9-0.2-1.5-0.5-1.8c-0.3-0.3-1-0.5-1.9-0.5h-0.4c-0.1,0-0.2,0-0.3,0c-0.1-0.1-0.2-0.2-0.2-0.3
	c0-0.3,0.2-0.4,0.6-0.5c2.6-0.7,4.3-1.4,5.3-2.2c0.2-0.2,0.3-0.2,0.4-0.2c0.2,0,0.4,0.2,0.4,0.6v0.4L192.5,64.4z M192.5,66.8v7.9
	c0,1.5,0.5,2.7,1.6,3.6s2.5,1.4,4.3,1.4c2,0,3.5-0.7,4.6-2s1.7-3.1,1.7-5.4c0-2.7-0.7-4.9-2-6.6s-3-2.6-5.1-2.6
	c-1.4,0-2.6,0.4-3.6,1.1S192.5,65.8,192.5,66.8z"/>
<path class="st0" d="M218.8,70.2v-2.8c0-1.8-0.3-3-1-3.6c-0.9-0.9-2.1-1.4-3.6-1.4c-2,0-3,0.9-3,2.6c0,0.5,0.1,1.1,0.3,1.7
	c0.1,0.3,0.1,0.5,0.2,0.7c0,0.3-0.1,0.4-0.5,0.4c-0.7,0-1.4-0.2-2-0.5s-0.9-0.6-0.9-1c0-0.9,0.5-2,1.5-3.1c1.4-1.5,3.2-2.2,5.5-2.2
	c2.1,0,3.7,0.5,4.8,1.4c1.2,0.9,1.7,2.2,1.7,3.9v9c0,1.4,0.2,2.4,0.5,3.1c0.3,0.6,0.9,0.9,1.7,0.9c0.2,0,0.4,0,0.6,0
	c0.3-0.1,0.5-0.1,0.6-0.1c0.3,0,0.4,0.1,0.4,0.3c0,0.3-0.4,0.6-1.1,0.8c-0.7,0.3-1.4,0.4-2.1,0.4c-1.3,0-2.4-0.8-3.4-2.4
	c-2.2,1.7-4.3,2.5-6.2,2.5c-1.4,0-2.6-0.4-3.4-1.2c-0.9-0.8-1.3-1.8-1.3-3.1c0-1.8,0.8-3.1,2.4-4.1C212.3,71.5,215,70.8,218.8,70.2z
	 M218.8,71.1c-2.4,0.2-4.2,0.8-5.5,1.6c-1.3,0.9-1.9,2-1.9,3.3c0,1.1,0.3,1.9,0.9,2.5c0.6,0.6,1.5,0.9,2.5,0.9
	c1.3,0,2.4-0.4,3.2-1.3c0.5-0.5,0.8-1.4,0.8-2.5V71.1z"/>
<path class="st0" d="M228.4,68.9v0.5c0,2.6,0.7,4.8,2.2,6.6c1.4,1.8,3.2,2.7,5.4,2.7c1.7,0,3.5-0.8,5.5-2.3c0.1-0.1,0.2-0.1,0.3-0.2
	c0.2,0,0.3,0.1,0.3,0.4c0,0.5-0.5,1.1-1.6,2c-2,1.6-4.1,2.3-6.3,2.3c-2.5,0-4.6-1-6.3-2.9s-2.5-4.3-2.5-7.1c0-2.7,0.9-5,2.6-7
	c1.7-2,3.8-3,6.1-3c2.6,0,4.6,1.1,6.1,3.2c0.4,0.5,0.7,1.2,1.1,2.1c0.4,0.9,0.6,1.5,0.6,1.9c0,0.5-0.5,0.8-1.5,0.8h-1.7h-1.6H228.4z
	 M228.6,67.6h7.8c1.2,0,1.8-0.2,1.8-0.7c0-1.2-0.5-2.3-1.6-3.3c-1-1-2.2-1.5-3.4-1.5c-1.3,0-2.3,0.5-3.1,1.5
	C229.3,64.5,228.8,65.8,228.6,67.6z"/>
<path class="st0" d="M257.6,77.5c-1.6,1.3-2.8,2.2-3.8,2.7s-2.1,0.7-3.3,0.7c-2.3,0-4.3-0.9-5.8-2.7c-1.6-1.8-2.4-4.1-2.4-6.7
	c0-2.9,0.9-5.4,2.8-7.5c1.9-2,4.2-3,6.9-3c1.8,0,3.7,0.5,5.6,1.6v-9.1c0-2.9-0.8-4.3-2.3-4.2h-0.8c-0.1,0-0.2,0-0.3,0
	c-0.1-0.1-0.2-0.2-0.2-0.4c0-0.3,0.2-0.5,0.7-0.6c1.6-0.2,3.4-0.9,5.4-2.1c0.2-0.1,0.3-0.2,0.4-0.2c0.2,0,0.3,0.2,0.3,0.5v0.4v29.3
	c0,1.7,0.5,2.6,1.6,2.6h1.4h0.2c0.2,0.1,0.3,0.2,0.3,0.4c0,0.3-0.3,0.5-0.8,0.6c-0.6,0.1-1,0.1-1.2,0.1l-1.3,0.2
	c-1,0.2-1.7,0.3-2,0.5s-0.5,0.3-0.7,0.3c-0.4,0-0.5-0.4-0.5-1.1v-2.3H257.6z M257.6,74.7v-7.6c0-1.4-0.3-2.4-1-3
	c-1.5-1.5-3.3-2.2-5.4-2.2c-1.8,0-3.3,0.7-4.5,2.1c-1.1,1.4-1.7,3.3-1.7,5.6c0,2.5,0.7,4.7,2.2,6.6c1.5,1.8,3.2,2.8,5.3,2.8
	c1.5,0,2.7-0.4,3.7-1.2C257.1,77,257.6,76,257.6,74.7z"/>
<path class="st0" d="M270.5,76.6c0,1.1,0.1,1.8,0.4,2.2c0.2,0.4,0.7,0.6,1.5,0.7l1.1,0.1c0.6,0.1,0.8,0.3,0.8,0.6
	c0,0.3-0.2,0.4-0.6,0.4c-0.3,0-0.8,0-1.5-0.1c-0.4,0-1-0.1-1.6-0.1h-1.5l-1.7,0.1c-0.3,0-0.5,0-0.7,0.1c-0.4,0-0.7,0.1-0.8,0.1
	c-0.4,0-0.6-0.1-0.6-0.4c0-0.2,0.1-0.4,0.4-0.5l0.4-0.1c0.5-0.2,0.8-0.5,1-0.9s0.3-1.1,0.3-2v-10c0-1.3-0.1-2.1-0.4-2.5
	c-0.2-0.4-0.8-0.6-1.6-0.6c-0.6,0-0.9-0.1-0.8-0.4c0-0.2,0.4-0.4,1.2-0.7c0.9-0.3,2-0.8,3.3-1.5l1.2-0.6c0.2,0,0.3,0.2,0.3,0.6
	L270.5,76.6L270.5,76.6z M269.1,51.4c0.4,0,0.7,0.3,1.1,0.9l0.6,0.9c0.2,0.2,0.2,0.4,0.2,0.6c0,0.4-0.2,0.8-0.8,1.5
	c-0.5,0.6-1,0.9-1.3,0.9s-0.7-0.3-1.2-0.9c-0.5-0.6-0.8-1.1-0.8-1.5s0.3-0.8,0.8-1.5C268.4,51.8,268.8,51.4,269.1,51.4z"/>
<path class="st0" d="M284,61c1.3,0,2.5,0.2,3.5,0.5s1.6,0.7,1.6,1.1v0.7l0.2,1.8c0,0.8-0.2,1.2-0.6,1.3c-0.2,0-0.4-0.2-0.7-0.7
	c-0.5-0.9-1.3-1.6-2.5-2.3c-1.2-0.6-2.3-1-3.4-1c-1.5,0-2.7,0.7-3.7,2.1c-0.9,1.4-1.4,3.1-1.4,5.3c0,2.6,0.7,4.7,2.2,6.5
	s3.2,2.7,5.4,2.7c1.7,0,3.4-0.7,5-2.1c0.2-0.2,0.4-0.3,0.6-0.3s0.4,0.1,0.4,0.3c0,0.3-0.4,0.8-1.1,1.5c-1.9,1.7-4.2,2.6-6.9,2.6
	c-2.4,0-4.5-0.9-6.1-2.7c-1.6-1.8-2.5-4-2.5-6.6c0-2.9,1-5.5,2.9-7.5C278.8,62,281.2,61,284,61z"/>
<path class="st1" d="M96.3,95.7c0-0.2,0-0.6-0.2-0.6s-0.3,0.2-0.4,0.2s-0.9-0.5-2.1-0.5c-1.6,0-3.3,0.9-3.3,2.7
	c0,0.8,0.4,1.6,0.9,2.3c-2.1,0.5-3.2,2.1-3.2,4.2c0,3.1,2.6,5,5.5,5c2,0,3.5-0.7,4.9-2c1.1,0.9,2.2,2,3.7,2c0.7,0,1.7-0.3,1.7-0.6
	c0,0,0-0.2-0.2-0.2c-0.1,0-0.3,0.1-0.7,0.1c-0.9,0-2.8-1.9-3.6-2.5c0.6-1.1,0.8-2.4,0.9-3.6c0.1-0.9,0.9-0.7,0.9-1
	c0-0.2-0.1-0.2-0.3-0.2c-0.7,0-1,0.1-1.3,0.1s-1-0.1-1.8-0.1c-0.2,0-0.5,0-0.5,0.2c0,0.6,1.9-0.2,1.9,2.2c0,0.8-0.1,1.6-0.6,2.1
	c-4.3-4-7.3-7.1-7.3-8.4c0-1,0.7-1.6,1.7-1.6c1.2,0,2.3,1.1,2.8,2.1c0.1,0.1,0.1,0.4,0.3,0.4c0.1,0,0.2-0.1,0.2-0.2L96.3,95.7
	 M94.2,107.8c-2.6,0-5.1-2.2-5.1-4.9c0-1.1,0.9-2.7,2.2-2.7c0.7,0,2.2,2.7,6.5,6.3C96.9,107.4,95.5,107.8,94.2,107.8"/>
<path class="st2" d="M110.4,107.9c0.1,0.4,1.9,1.1,3.4,1.1c4.6,0,5.7-2.5,5.7-4.2c0-5.5-8.1-3.3-8.1-7c0-1.8,1.7-2.6,3.3-2.6
	c1.8,0,3.2,0.9,3.8,2.6c0.1,0.2,0.2,0.6,0.4,0.6c0.2,0,0.2-0.1,0.2-0.3l-0.3-2.7c0-0.2-0.1-0.3-0.2-0.3c-0.2,0-0.2,0.2-0.4,0.2
	c-0.3,0-0.9-0.7-3.4-0.7c-2.3,0-4.5,1.2-4.5,3.7c0,5.2,8.1,3,8.1,6.9c0,2.1-1.9,3.1-3.8,3.1c-2.8,0-4-2.1-4.2-3
	c-0.1-0.4-0.1-0.7-0.4-0.7c-0.2,0-0.3,0.2-0.2,0.6L110.4,107.9"/>
<path class="st1" d="M123.8,108.5c0.6,0.3,1.3,0.5,2.1,0.5c3.1,0,4.3-2.9,4.3-4.7c0-2.2-1.2-4-3.6-4c-0.5,0-1.5,0.2-2.7,1.3v-1.1
	c0-0.2-0.1-0.3-0.2-0.3c-0.5,0-0.9,0.6-2.4,1c-0.1,0-0.2,0.1-0.2,0.2c0,0.4,1.4-0.1,1.4,1.1v8.9c0,1.2-1,0.9-1,1.4
	c0,0.2,0.1,0.2,0.3,0.2c0.2,0,0.8-0.1,1.6-0.1c1.3,0,1.8,0.1,2.1,0.1c0.2,0,0.4,0,0.4-0.3c0-0.5-1.8,0-1.8-1.3v-2.9 M123.8,102.8
	c0,0,0.1-1.6,2.2-1.6c2.1,0,3.1,2.2,3.1,4c0,1.6-0.8,3.3-2.6,3.3c-1.4,0-2.6-0.7-2.6-1.8v-3.9H123.8z"/>
<path class="st1" d="M136.5,108.6c-2.3,0-3.3-2.5-3.3-4.5c0-1.7,0.8-3.4,2.8-3.4c2.4,0,3.3,2.2,3.3,4.3
	C139.2,107.4,138.1,108.6,136.5,108.6 M136.3,109c2.5,0,4.3-1.9,4.3-4.3c0-3.7-2.8-4.4-4.4-4.4c-2.5,0-4.5,2.1-4.5,4.5
	C131.8,107.5,133.7,109,136.3,109"/>
<path class="st2" d="M144.8,102.8c0-0.3,0.5-1.2,1.3-1.2c0.7,0,0.9,0.5,1.3,0.5c0.2,0,0.7-0.6,0.7-0.9c0-0.4-0.9-0.9-1.3-0.9
	c-0.8,0-1.6,1.1-2,1.6l0,0v-1.5c0-0.2-0.1-0.3-0.2-0.3c-0.5,0-0.9,0.6-2.4,1c-0.1,0-0.3,0.1-0.3,0.2c0,0.4,1.4-0.1,1.4,1.1v5.1
	c0,0.8-1,0.7-1,1.2c0,0.1,0.1,0.2,0.2,0.2c0.1,0,0.5-0.1,1.8-0.1c1.1,0,1.6,0.1,1.9,0.1c0.2,0,0.3,0,0.3-0.2c0-0.6-1.8,0.3-1.8-1.5
	v-4.4"/>
<path class="st2" d="M150.4,106.7c0,2.1,1.3,2.3,2.2,2.3c1.4,0,2.5-0.7,2.5-1c0-0.2-0.1-0.2-0.2-0.2c-0.3,0-0.6,0.4-1.7,0.4
	c-0.8,0-1.4-0.4-1.4-1.2v-5.8h2.6l0.4-0.7c0.1-0.1,0.1-0.2,0.1-0.3c0-0.1,0-0.2-0.1-0.2s-0.3,0.3-0.8,0.3h-2.2c0-1.4,0-1.8-0.3-1.8
	c-0.2,0-0.4,0.4-0.8,0.9c-1,1.1-1.5,1.4-1.5,1.6c0,0.1,0.1,0.1,1.1,0.1L150.4,106.7"/>
<path class="st2" d="M158.9,105.1c0.8,0.4,1.8,0.7,1.8,1.7s-0.8,1.6-1.8,1.6c-2.2,0-1.9-2.6-2.4-2.6c-0.3,0-0.2,0.6-0.2,1
	c0,1.6,0,1.6,0.4,1.6c0.5,0,0.8,0.6,2.2,0.6c1.5,0,2.7-1.2,2.7-2.7c0-1.3-0.5-1.9-1.7-2.4c-2.1-0.8-2.6-1.3-2.6-1.9
	c0-0.8,0.6-1.3,1.4-1.3c1.8,0,2,1.7,2.2,1.7c0.3,0,0.2-0.2,0.2-0.8c0-0.1,0-0.8-0.1-1c-0.2-0.3-1.6-0.5-2-0.5
	c-1.5,0-2.7,0.8-2.7,2.4C156.5,104,157.8,104.6,158.9,105.1"/>
<path class="st2" d="M182.9,97.2c-0.1-2.4,1.5-1.5,1.5-2.1c0-0.1-0.1-0.2-0.2-0.2c-0.3,0-0.5,0.1-1,0.1c-0.1,0-0.7-0.1-0.9-0.1
	s-0.4,0.5-0.5,0.7l-4.8,9.5c-0.3,0.7-0.5,1.1-0.6,1.1s-0.2-0.2-0.4-0.6l-4.8-10.1c-0.1-0.2-0.1-0.6-0.4-0.6c-0.4,0-0.7,0.1-1.1,0.1
	c-0.4,0-0.7-0.1-1.1-0.1c-0.2,0-0.3,0-0.3,0.2c0,0.7,1.9-0.4,1.9,4.2c0,2.1-0.2,4.2-0.5,7.4c-0.1,2.1-1.4,1.3-1.4,1.9
	c0,0.1,0.1,0.2,0.2,0.2c0.4,0,0.7-0.1,1.7-0.1c0.6,0,1.5,0.1,1.8,0.1s0.5,0,0.5-0.2c0-0.7-1.9,0.2-1.8-2.5l0.2-7
	c0-0.2,0.1-0.3,0.1-0.3c0.1,0,0.2,0.1,0.2,0.2l4.3,8.9c0.1,0.1,0.2,0.6,0.4,0.6s0.5-0.8,0.6-1l4.2-8.4c0.2-0.4,0.4-0.6,0.5-0.6
	s0.2,0.3,0.2,0.8l0.2,7.7c0,1.5-1.2,1-1.2,1.6c0,0.1,0,0.2,0.2,0.2c0.5,0,1.1-0.1,1.8-0.1c0.8,0,1.5,0.1,1.9,0.1
	c0.2,0,0.5,0,0.5-0.2c0-0.7-1.5,0-1.6-1.6L182.9,97.2"/>
<path class="st1" d="M188,103.2c0-1.1,0.9-2.5,2.1-2.5c1.1,0,2.2,1,2.2,2.1c0,0.3-0.1,0.4-0.4,0.4H188 M193.4,103.8
	c0.5,0,0.7,0,0.7-0.3c0-0.8-1.1-3.2-3.6-3.2s-3.9,2.1-3.9,4.7c0,1.3,1,4.1,4.1,4.1c1.8,0,3.5-1.4,3.5-1.9c0-0.1,0-0.1-0.1-0.1
	c-0.4,0-1.1,1-2.8,1c-1.2,0-3.2-1-3.2-4.2L193.4,103.8L193.4,103.8z"/>
<path class="st1" d="M202.2,101c-0.7-0.5-1.5-0.7-2.3-0.7c-2.5,0-4.2,2.3-4.2,4.7c0,2,1.3,4.1,3.6,4.1c1.2,0,2.3-0.5,2.9-1.4l0,0
	v1.1c0,0.1,0.1,0.3,0.2,0.3c0.2,0,0.7-0.2,1.3-0.2c0.7,0,1.3-0.1,1.3-0.3c0-0.2-0.1-0.2-0.2-0.2c-0.7-0.1-1.1-0.3-1.1-0.5V94.3
	c0-0.2-0.1-0.3-0.2-0.3c-0.5,0-1.1,0.6-2.6,1c-0.1,0-0.2,0.1-0.2,0.2c0,0.4,1.6-0.1,1.6,1.1v4.7 M202.2,106.4c0,0.7-0.6,1.7-2.3,1.7
	c-1.9,0-3.1-2.4-3.1-4c0-1.7,0.8-3.4,2.7-3.4c1.4,0,2.6,0.8,2.6,2.3v3.4H202.2z"/>
<path class="st1" d="M208.5,96.2c-0.2,0-0.8,0.8-0.8,1.1c0,0.2,0.6,1,0.8,1c0.3,0,0.8-0.8,0.8-1C209.3,97,208.7,96.2,208.5,96.2
	 M207.7,107.1c0,1.8-0.9,1-0.9,1.6c0,0.2,0.1,0.2,0.3,0.2s0.7-0.1,1.4-0.1c0.8,0,1.4,0.1,1.9,0.1c0.3,0,0.4-0.1,0.4-0.2
	c0-0.5-1.6-0.1-1.6-1.1v-7.1c0-0.2-0.1-0.3-0.2-0.3c-0.5,0-0.9,0.6-2.1,1c-0.1,0-0.2,0.1-0.2,0.2c0,0.4,1.1-0.1,1.1,1.1L207.7,107.1
	L207.7,107.1z"/>
<path class="st2" d="M216.1,109c2.8,0,4-1.7,4-2c0-0.1-0.1-0.1-0.2-0.1c-0.3,0-1.2,1.2-2.7,1.2c-2.3,0-3.6-1.8-3.6-3.9
	c0-1.4,0.7-3.2,2.4-3.2c0.9,0,1.8,0.3,2.5,1.2c0.1,0.1,0.3,0.5,0.5,0.5c0.1,0,0.2-0.1,0.2-0.4s0-0.7,0-1.2c-0.1-0.5-1.4-0.7-2.4-0.7
	c-2.5,0-4.5,2-4.5,4.5C212.1,107,213.8,109,216.1,109"/>
<path class="st1" d="M223.7,96.2c-0.2,0-0.8,0.8-0.8,1.1c0,0.2,0.6,1,0.8,1c0.3,0,0.8-0.8,0.8-1C224.5,97,224,96.2,223.7,96.2
	 M223,107.1c0,1.8-0.9,1-0.9,1.6c0,0.2,0.1,0.2,0.3,0.2s0.7-0.1,1.4-0.1c0.8,0,1.4,0.1,1.9,0.1c0.3,0,0.4-0.1,0.4-0.2
	c0-0.5-1.6-0.1-1.6-1.1v-7.1c0-0.2-0.1-0.3-0.2-0.3c-0.5,0-0.9,0.6-2.1,1c-0.1,0-0.2,0.1-0.2,0.2c0,0.4,1.1-0.1,1.1,1.1L223,107.1
	L223,107.1z"/>
<path class="st2" d="M230,102.7c0-0.3,0.7-1.5,2.4-1.5c1.6,0,2.3,1.5,2.3,2.5v3.7c0,1.3-0.9,0.9-0.9,1.3c0,0.2,0.1,0.2,0.4,0.2
	c0.3,0,0.7-0.1,1.4-0.1c1,0,1.5,0.1,1.7,0.1s0.3,0,0.3-0.3c0-0.5-1.6,0-1.6-1.3V104c0-1.5-0.6-3.7-3.3-3.7c-1.9,0-2.9,1.7-2.9,1.5
	v-1.3c0-0.2-0.1-0.3-0.2-0.3c-0.5,0-0.9,0.6-2.5,1c-0.1,0-0.2,0.1-0.2,0.2c0,0.4,1.5-0.1,1.5,1.1v4.9c0,1.3-1.2,0.9-1.2,1.3
	c0,0.2,0.1,0.2,0.4,0.2c0.2,0,0.6-0.1,1.7-0.1c1.2,0,1.6,0.1,1.9,0.1c0.3,0,0.4,0,0.4-0.3c0-0.5-1.8,0-1.8-1.3v-4.6"/>
<path class="st1" d="M240.5,103.2c0-1.1,0.9-2.5,2.1-2.5c1.1,0,2.2,1,2.2,2.1c0,0.3-0.1,0.4-0.4,0.4H240.5 M245.8,103.8
	c0.5,0,0.7,0,0.7-0.3c0-0.8-1.1-3.2-3.6-3.2s-3.9,2.1-3.9,4.7c0,1.3,1,4.1,4,4.1c1.8,0,3.5-1.4,3.5-1.9c0-0.1,0-0.1-0.1-0.1
	c-0.4,0-1.1,1-2.8,1c-1.2,0-3.2-1-3.2-4.2L245.8,103.8L245.8,103.8z"/>
<path class="st2" d="M253.1,102.1c0,4.1,2.9,6.9,7.1,6.9c4.5,0,5.9-1.5,6-1.6l0.5-2c0-0.1-0.1-0.2-0.2-0.2s-0.2,0.1-0.3,0.3
	c-0.3,0.9-2.3,2.9-5.4,2.9c-3.9,0-5.9-3.4-5.9-6.9c0-3.7,1.9-6.3,5.8-6.3c2.6,0,4,1.3,5.3,3.4c0.1,0.1,0.2,0.7,0.5,0.7
	s0.2-0.7,0.1-1.7c-0.1-1.3-0.1-1.6-0.3-1.6c-0.2,0-0.3,0.2-0.5,0.2c-0.6,0-1.6-1.5-5.4-1.5C256,94.6,253.1,98,253.1,102.1"/>
<path class="st1" d="M269.5,103.2c0-1.1,0.9-2.5,2.1-2.5c1.1,0,2.2,1,2.2,2.1c0,0.3-0.1,0.4-0.4,0.4H269.5 M274.9,103.8
	c0.5,0,0.7,0,0.7-0.3c0-0.8-1.1-3.2-3.5-3.2c-2.5,0-3.9,2.1-3.9,4.7c0,1.3,1,4.1,4.1,4.1c1.8,0,3.5-1.4,3.5-1.9c0-0.1,0-0.1-0.1-0.1
	c-0.4,0-1.1,1-2.8,1c-1.2,0-3.2-1-3.2-4.2L274.9,103.8L274.9,103.8z"/>
<path class="st2" d="M279.9,102.7c0-0.3,0.7-1.5,2.4-1.5c1.6,0,2.4,1.5,2.4,2.5v3.7c0,1.3-0.9,0.9-0.9,1.3c0,0.2,0.1,0.2,0.4,0.2
	s0.7-0.1,1.4-0.1c1,0,1.5,0.1,1.7,0.1s0.3,0,0.3-0.3c0-0.5-1.6,0-1.6-1.3V104c0-1.5-0.6-3.7-3.3-3.7c-1.9,0-2.9,1.7-2.9,1.5v-1.3
	c0-0.2-0.1-0.3-0.2-0.3c-0.5,0-0.9,0.6-2.5,1c-0.1,0-0.2,0.1-0.2,0.2c0,0.4,1.5-0.1,1.5,1.1v4.9c0,1.3-1.2,0.9-1.2,1.3
	c0,0.2,0.1,0.2,0.4,0.2c0.2,0,0.6-0.1,1.7-0.1c1.2,0,1.6,0.1,1.9,0.1s0.4,0,0.4-0.3c0-0.5-1.8,0-1.8-1.3v-4.6"/>
<path class="st2" d="M290,106.7c0,2.1,1.3,2.3,2.3,2.3c1.4,0,2.5-0.7,2.5-1c0-0.2-0.1-0.2-0.2-0.2c-0.3,0-0.6,0.4-1.7,0.4
	c-0.8,0-1.4-0.4-1.4-1.2v-5.8h2.6l0.4-0.7c0.1-0.1,0.1-0.2,0.1-0.3c0-0.1,0-0.2-0.1-0.2s-0.3,0.3-0.8,0.3h-2.2c0-1.4,0-1.8-0.3-1.8
	c-0.2,0-0.4,0.4-0.8,0.9c-1,1.1-1.5,1.4-1.5,1.6c0,0.1,0.1,0.1,1.1,0.1V106.7"/>
<path class="st1" d="M297.4,103.2c0-1.1,0.9-2.5,2.1-2.5c1.1,0,2.2,1,2.2,2.1c0,0.3-0.1,0.4-0.4,0.4H297.4 M302.7,103.8
	c0.5,0,0.7,0,0.7-0.3c0-0.8-1.1-3.2-3.5-3.2c-2.5,0-3.9,2.1-3.9,4.7c0,1.3,1,4.1,4.1,4.1c1.8,0,3.6-1.4,3.6-1.9c0-0.1,0-0.1-0.1-0.1
	c-0.4,0-1.1,1-2.8,1c-1.2,0-3.2-1-3.2-4.2L302.7,103.8L302.7,103.8z"/>
<path class="st2" d="M307.8,102.8c0-0.3,0.5-1.2,1.3-1.2c0.7,0,0.9,0.5,1.3,0.5c0.2,0,0.7-0.6,0.7-0.9c0-0.4-0.9-0.9-1.3-0.9
	c-0.8,0-1.6,1.1-2,1.6l0,0v-1.5c0-0.2-0.1-0.3-0.2-0.3c-0.5,0-0.9,0.6-2.4,1c-0.1,0-0.3,0.1-0.3,0.2c0,0.4,1.4-0.1,1.4,1.1v5.1
	c0,0.8-1,0.7-1,1.2c0,0.1,0.1,0.2,0.2,0.2s0.5-0.1,1.8-0.1c1.1,0,1.6,0.1,1.9,0.1c0.2,0,0.3,0,0.3-0.2c0-0.6-1.8,0.3-1.8-1.5v-4.4"
	/>
<path class="st3" d="M96.5,133.5c0.3-0.9,0-1.2-0.9-1.2h-1.1c-0.2,0-0.3-0.1-0.2-0.3l0.2-0.7c0-0.2,0.1-0.3,0.4-0.3
	c0.5,0,1.8,0.1,3.6,0.1c4.9,0,7.3-0.1,8.7-0.1c1.6-0.1,2.5-0.3,2.8-0.3s0.3,0.2,0.3,0.5c0,0.9,0.6,4.7,0.7,5.1c0,0.2,0,0.3-0.2,0.3
	l-0.5,0.2c-0.1,0.1-0.2,0-0.3-0.2c-0.1-0.5-1.7-3.2-2-3.7c-0.5-0.6-0.3-0.5-1.2-0.6c-0.6-0.1-6.5-0.2-7.1-0.2l-2.7,8.8l4.9-0.1
	c2.2,0,2.5-1.2,3.1-3.4c0.1-0.2,0.2-0.2,0.4-0.2l0.5,0.1c0.1,0,0.2,0.1,0.1,0.3l-2,8.4c-0.1,0.2-0.2,0.2-0.3,0.2l-0.6-0.1
	c-0.2,0-0.2-0.1-0.2-0.3c0.4-2.4,0.4-3.5-1.5-3.5l-4.9-0.2l-2.2,7.4c-0.6,2-0.2,2.4,0.9,2.4h0.9c0.2,0,0.3,0.1,0.3,0.3l-0.2,0.8
	c0,0.2-0.2,0.2-0.4,0.2c-0.4,0-1.4-0.1-4-0.1c-2.7,0-3.6,0.1-4,0.1c-0.2,0-0.3-0.1-0.2-0.3l0.1-0.7c0-0.2,0.1-0.3,0.3-0.3h0.9
	c1,0,1.8-0.7,2.3-2L96.5,133.5z"/>
<path class="st3" d="M107.1,149.1c0-4.1,3.1-9.7,7.5-9.7c2.2,0,3.5,1.6,3.5,3.8c0,3.6-2.8,10.1-7.6,10.1
	C108.6,153.3,107.1,151.6,107.1,149.1z M116.7,142.7c0-1-0.6-1.8-1.6-1.8c-1.4,0-3.1,1.2-4.7,3.9c-1.1,1.8-1.9,3.8-1.9,5.3
	c0,1,0.7,1.7,1.5,1.7C113.3,151.8,116.7,144.9,116.7,142.7z"/>
<path class="st3" d="M119.1,150.3c0-4.4,3.6-10.9,7.4-10.9c1.5,0,1.9,1.2,1.9,1.8c0,0.8-0.8,1.4-1.3,1.4c-0.4,0-0.7-0.2-0.9-0.7
	c-0.1-0.4-0.5-0.8-1-0.8c-0.8,0-1.7,0.8-2.4,2.3c-0.9,1.9-1.4,4.7-1.4,5.7c0,2.4,0.7,2.7,1.3,2.7c1.3,0,2.5-1.3,2.9-1.8
	c0.1-0.1,0.2-0.2,0.3-0.1l0.4,0.3c0.1,0.1,0.2,0.2,0,0.4c-0.5,0.7-2.6,2.8-4.7,2.8C120.4,153.3,119.1,152.5,119.1,150.3z"/>
<path class="st3" d="M142.5,139.7c0.3,0,0.4,0.1,0.3,0.3l-2.5,6.8c-0.9,2.6-1.4,4.1-1.4,4.3c0,0.3,0,0.3,0.3,0.4
	c0.5,0,2.3-1.6,2.6-2c0.1-0.1,0.2-0.1,0.3,0l0.3,0.3c0.1,0.1,0.1,0.2,0,0.3s-3.1,3.3-5.4,3.3c-0.5,0-0.6-0.4-0.6-0.8
	c0-0.4,1.7-4.5,2.1-5.6l-0.2-0.1c-1.4,2-4.8,6.4-8.1,6.4c-0.7,0-1.2-0.6-1.2-1.3c0-1,1-3.1,2.3-6.1c0.8-2,1.6-3.6,1.6-4.2
	c0-0.3-0.2-0.5-0.5-0.5c-0.6,0-2.2,1.5-2.6,1.9c-0.1,0.1-0.2,0.1-0.3,0l-0.3-0.3c-0.1-0.1-0.1-0.2,0-0.3c0.2-0.3,2.9-3.1,5-3.1
	c0.7,0,0.9,0.7,0.9,1.2c0,0.8-0.8,2.7-2.1,5.7c-0.9,1.9-1.7,4-1.7,4.7c0,0.4,0.2,0.6,0.6,0.6c1.7,0,5.2-4.3,6.2-5.7
	c0.6-0.9,1.1-1.8,1.5-2.8l1.1-3.1c0.1-0.2,0.2-0.2,0.5-0.2L142.5,139.7L142.5,139.7z"/>
<path class="st3" d="M142.5,151.5c0-0.5,0.4-1.1,1.1-1.1c0.7,0,1.1,0.5,1.3,1c0.2,0.6,0.4,0.9,1.2,0.9c0.9,0,1.8-0.9,1.8-2
	c0-1.4-1-2.7-1.4-3.8c-0.2-0.6-1-1.7-0.9-3.2c0-1.9,1.8-4,4.1-4c1,0,2.3,0.4,2.3,1.7c0,0.6-0.5,1-1,1c-0.4,0-0.9-0.2-1.1-0.8
	c-0.2-0.4-0.2-0.9-0.8-0.9s-1.6,0.9-1.6,2.1c0,1.2,1,2.6,1.2,3s1.2,2,1.2,3.7c0,2.6-2.1,4.1-4.3,4.1
	C143.7,153.3,142.5,152.6,142.5,151.5z"/>
<path class="st3" d="M152.5,150.1c0-2.7,1.8-6.2,4.2-8.5c1-1,2.8-2.2,4.4-2.2c1.3,0,1.9,0.9,1.9,1.7c0,1.6-1.2,3.3-3,4.3
	c-1.8,0.9-3.5,1.2-4.7,1.3c-0.2,0.4-0.4,1.5-0.4,3s1.1,2.1,1.7,2.1c1.6,0,3-1.2,3.7-2.3c0.1-0.1,0.2-0.2,0.3,0l0.4,0.3
	c0.2,0.1,0.2,0.2,0,0.3c-0.8,1.1-2.8,3.3-5.3,3.3C153.4,153.3,152.5,152.3,152.5,150.1z M155.4,145.8c1.1,0.1,5.4-1.3,5.4-3.7
	c0-0.7-0.3-1.2-1-1.2C157.7,140.8,155.7,144.6,155.4,145.8z"/>
<path class="st3" d="M174.2,132.1c-0.3,0-0.3-0.1-0.3-0.2l0.2-0.7c0-0.1,0.1-0.2,0.4-0.2h4c0.5,0,0.5,0.3,0.4,0.6
	c-0.5,1.1-6.2,16.5-6.8,18.4c-0.3,1-0.3,1.5,0.1,1.5c0.6,0,2.1-1.5,2.3-1.7c0.1-0.1,0.3-0.1,0.4,0l0.3,0.3c0.1,0.1,0.1,0.2,0,0.3
	c-0.2,0.3-3,2.9-4.8,2.9c-0.5,0-0.9-0.2-0.9-0.8c0-0.7,0.7-2.9,1.4-4.7l-0.3-0.1c-1.6,2.6-4.7,5.6-6.9,5.6c-1.1,0-2.1-0.8-2.1-2.2
	c0-2.6,1.8-6.5,4.5-9.1c1-1,2.9-2.7,5.1-2.7c0.9,0,1.5,0.4,2.1,1.1l2.5-7.2c0.2-0.6,0.1-1.3-0.8-1.3h-0.8V132.1z M170.3,147.2
	c0.9-1.2,2.1-3.3,2.1-4.6c0-1.5-0.7-2.2-1.7-2.2c-3.1,0-6.5,7.2-6.5,10.2c0,0.7,0.5,1,0.9,1C166.5,151.7,169,149,170.3,147.2z"/>
<path class="st3" d="M185.2,149.1c0-4.1,3.1-9.7,7.5-9.7c2.2,0,3.5,1.6,3.5,3.8c0,3.6-2.8,10.1-7.6,10.1
	C186.8,153.3,185.2,151.6,185.2,149.1z M194.8,142.7c0-1-0.6-1.8-1.6-1.8c-1.4,0-3.1,1.2-4.7,3.9c-1.1,1.8-1.9,3.8-1.9,5.3
	c0,1,0.7,1.7,1.5,1.7C191.5,151.8,194.8,144.9,194.8,142.7z"/>
<path class="st3" d="M196.2,153c-0.4,0-0.4-0.1-0.4-0.3l2.3-6.1c0.8-2,1.7-4.4,1.7-4.9c0-0.3-0.1-0.6-0.5-0.6
	c-0.6,0-2.2,1.6-2.7,2.2c-0.1,0.1-0.2,0.1-0.3,0L196,143c-0.1-0.1-0.2-0.2-0.1-0.3c0.5-0.6,2.9-3.3,5.3-3.3c0.8,0,1,0.6,1,1
	c0,1-1.4,4.1-1.7,4.9l0.1,0.1c1-1.6,4.5-5.9,7.5-5.9c1,0,1.6,0.5,1.6,1.3c0,1.4-0.8,3.1-1.8,5.8c-0.9,2.2-1.7,4-1.7,4.5
	c0,0.2,0.1,0.4,0.4,0.4c0.5,0,1.9-1.2,2.4-1.7c0.1-0.1,0.3-0.1,0.4,0.1l0.2,0.3c0.1,0.1,0.2,0.2,0,0.4c-0.4,0.5-3,2.8-5.2,2.8
	c-0.4,0-0.8-0.2-0.8-0.7c0-0.6,1.2-3.2,2.2-6c0.5-1.3,1.6-4,1.6-4.7c0-0.5-0.2-0.8-0.8-0.8c-1.3,0-4.5,3-6,5.3
	c-0.6,0.9-1.1,1.8-2,4.1l-0.8,2.2c-0.1,0.1-0.1,0.2-0.5,0.2L196.2,153L196.2,153z"/>
<path class="st3" d="M226.1,145.3c0.1-0.5-0.1-1.5-0.2-1.8l-3.5-10.1c-0.3-0.8-0.9-1.2-2-1.2h-0.8c-0.2,0-0.3-0.1-0.2-0.3l0.1-0.7
	c0-0.2,0.1-0.3,0.3-0.3c0.4,0,1.3,0.1,3.4,0.1c2.5,0,3.6-0.1,4-0.1c0.2,0,0.3,0.1,0.3,0.3l-0.1,0.7c0,0.2-0.1,0.3-0.3,0.3h-0.9
	c-1.2,0-1.3,0.8-1,1.6l3,9.1c0.1,0.4,0.3,0.4,0.5,0.1c0.7-1,5.7-8,6-9c0.4-1.2,0.1-1.8-1.2-1.8H233c-0.2,0-0.3-0.1-0.2-0.3l0.1-0.6
	c0-0.2,0.1-0.3,0.4-0.3c0.5,0,1.7,0.1,3.6,0.1c1.8,0,2.8-0.1,3.2-0.1c0.3,0,0.4,0.1,0.3,0.3l-0.1,0.6c0,0.3-0.1,0.3-0.3,0.3h-0.6
	c-1.1,0-1.7,0.5-2.6,1.6c-0.5,0.6-6.4,9-6.9,9.6c-0.7,1-1,1.4-1.4,2.9l-0.8,3.7c-0.4,1.7,0.2,1.8,1.3,1.8h1c0.2,0,0.3,0.1,0.2,0.3
	l-0.1,0.7c0,0.2-0.1,0.3-0.4,0.3c-0.5,0-1.5-0.1-4-0.1c-2.7,0-3.7,0.1-4.1,0.1c-0.2,0-0.3-0.1-0.3-0.3l0.1-0.7
	c0-0.2,0.1-0.3,0.3-0.3h0.9c1.5,0,1.9-0.8,2.1-1.7L226.1,145.3z"/>
<path class="st3" d="M235.3,149.1c0-4.1,3.1-9.7,7.5-9.7c2.2,0,3.5,1.6,3.5,3.8c0,3.6-2.8,10.1-7.6,10.1
	C236.9,153.3,235.3,151.6,235.3,149.1z M245,142.7c0-1-0.6-1.8-1.6-1.8c-1.4,0-3.1,1.2-4.7,3.9c-1.1,1.8-1.9,3.8-1.9,5.3
	c0,1,0.7,1.7,1.5,1.7C241.6,151.8,245,144.9,245,142.7z"/>
<path class="st3" d="M260.2,139.7c0.3,0,0.4,0.1,0.3,0.3l-2.5,6.8c-0.9,2.6-1.4,4.1-1.4,4.3c0,0.3,0,0.3,0.3,0.4
	c0.5,0,2.3-1.6,2.6-2c0.1-0.1,0.2-0.1,0.3,0l0.3,0.3c0.1,0.1,0.1,0.2,0,0.3s-3.1,3.3-5.4,3.3c-0.5,0-0.6-0.4-0.6-0.8
	c0-0.4,1.7-4.5,2.1-5.6l-0.2-0.1c-1.4,2-4.8,6.4-8.1,6.4c-0.7,0-1.2-0.6-1.2-1.3c0-1,1-3.1,2.3-6.1c0.8-2,1.6-3.6,1.6-4.2
	c0-0.3-0.2-0.5-0.5-0.5c-0.6,0-2.2,1.5-2.6,1.9c-0.1,0.1-0.2,0.1-0.3,0l-0.3-0.3c-0.1-0.1-0.1-0.2,0-0.3c0.2-0.3,2.9-3.1,5-3.1
	c0.7,0,0.9,0.7,0.9,1.2c0,0.8-0.8,2.7-2.1,5.7c-0.9,1.9-1.7,4-1.7,4.7c0,0.4,0.2,0.6,0.6,0.6c1.7,0,5.2-4.3,6.2-5.7
	c0.6-0.9,1.1-1.8,1.5-2.8l1.1-3.1c0.1-0.2,0.2-0.2,0.5-0.2L260.2,139.7L260.2,139.7z"/>
<g>
	<path class="st4" d="M14.8,86c4.5,4,10.9,5.1,16.8,4.7c10.7-0.8,21.7-5.1,30.6-11.1c4.6-3.1,9.3-6.1,13.4-9.9l-8,4.5
		c-14,7.8-23.6,10-30.1,9.5c-0.1,0-0.1,0-0.2,0c-1.3-0.2-2.5-0.4-3.6-0.7c-0.1,0-0.2-0.1-0.3-0.1c-1.4-0.4-2.8-0.8-4.2-1.3
		c-3.5-1.4-6.2-4.1-8.2-7.3c-2.3-3.9-2.1-9.4-1.4-13.7c0.5-2.9,1.8-5.5,3.3-8c5.6-9.2,14.4-17.5,23.8-22.8c7.4-4.1,15.4-7.5,23.5-10
		h0.1c0.7-0.3,3.3-1,3.3-1c-3.6,0.3-6,0.9-6,0.9c-4.7,1.1-9.3,2.5-13.7,4.1C43.2,27.4,31,33.3,20.6,40.3C4.9,53,7.7,70.7,7.7,70.7
		C9.1,76.1,10.4,82.1,14.8,86z"/>
	<path class="st0" d="M48.9,89.7c-7.7,3.4-19.4,6.9-28.2,3.8v0.1v15h47v-31v-0.1v-0.3C62.8,81.5,56.3,86.4,48.9,89.7z"/>
	<path class="st0" d="M67.6,19.6v-8.4h-47v29.1c10.4-7,22.6-12.9,33.3-16.6C58.3,22.1,62.9,20.7,67.6,19.6z"/>
	<path class="st0" d="M67.6,20.7c-0.3,0.2-0.6,0.3-0.9,0.5c-0.1,0-0.2,0.1-0.3,0.1c-10.2,4.8-34.9,18.2-41.5,37v0.1
		c-0.7,1.9-1.1,3.8-1.4,5.8c-0.2,1.7-0.3,3.4-0.2,5.1c0,0,0,1.3,0.5,3.1c0.9,3.3,3.2,8.5,9.5,10.5c0.1,0,0.2,0.1,0.3,0.1
		c1.1,0.3,2.3,0.5,3.6,0.7c0.1,0,0.1,0,0.2,0c6.5,0.5,16.1-1.7,30.1-9.5V20.9V20.7L67.6,20.7z"/>
	<path class="st2" d="M46.7,29.8c-9.4,5.3-18.2,13.6-23.8,22.8c-1.5,2.5-2.8,5.1-3.3,8c-0.7,4.3-0.9,9.8,1.4,13.7
		c2,3.2,4.7,5.9,8.2,7.3c1.4,0.5,2.7,0.9,4.2,1.3c-6.3-2-8.7-7.2-9.5-10.5c-0.5-1.8-0.5-3.1-0.5-3.1c-0.1-1.7,0-3.4,0.2-5.1
		c0.3-2,0.7-4,1.4-5.8v-0.1c6.6-18.8,31.3-32.2,41.5-37c0.1,0,0.2-0.1,0.3-0.1c0.3-0.2,0.6-0.3,0.9-0.5v0.1v0.1
		c0.8-0.3,1.9-0.8,2.7-1.1h-0.1C62.1,22.3,54.1,25.7,46.7,29.8z"/>
	<path class="st2" d="M62.2,79.6c-8.9,6-19.9,10.3-30.6,11.1C25.7,91.1,19.3,90,14.8,86c-4.4-3.9-5.7-9.9-7.1-15.3
		c0.2,1.4,0.4,2.8,0.6,4.2C9.4,82,13,89.3,19.6,93c0.3,0.2,0.7,0.4,1.1,0.6v-0.1c8.8,3.1,20.5-0.4,28.2-3.8
		c7.4-3.3,13.9-8.2,18.8-12.5v0.3c0.4-0.5,0.8-1.1,1.4-1.6c2.2-2,4.3-4.1,6.5-6.2C71.5,73.5,66.8,76.5,62.2,79.6z"/>
</g>
</svg>
