<?xml version="1.0" encoding="utf-8"?>
<!-- Generator: Adobe Illustrator 23.0.3, SVG Export Plug-In . SVG Version: 6.00 Build 0)  -->
<svg version="1.1" id="Слой_1" xmlns="http://www.w3.org/2000/svg" xmlns:xlink="http://www.w3.org/1999/xlink" x="0px" y="0px"
	 viewBox="0 0 210.58 48.75" style="enable-background:new 0 0 210.58 48.75;" xml:space="preserve">
<style type="text/css">
	.st0{fill:#424143;}
	.st1{fill:#8F5527;}
</style>
<g>
	<g>
		<path class="st0" d="M32.54,0.02c2.46,0,6.48,1.06,6.48,3.67v1.43h-1.63V4.16c0-1.63-2.81-2.51-4.8-2.51c-3.84,0-6.8,3-6.8,7.19
			c0,4.14,2.93,7.46,6.87,7.46c3.57,0,5.66-2.44,5.66-2.44l0.99,1.26c0,0-2.39,2.81-6.67,2.81c-5.07,0-8.64-4.04-8.64-9.09
			C24,3.84,27.67,0.02,32.54,0.02z"/>
		<path class="st0" d="M48.72,10h0.69V9.85c0-2.59-0.94-3.5-3.2-3.5c-0.61,0-2.41,0.17-2.41,1.08v0.79h-1.6V7.04
			c0-1.72,2.96-2.09,4.04-2.09c3.92,0,4.85,2.09,4.85,4.75v5.93c0,0.37,0.2,0.54,0.54,0.54h1.04v1.45h-1.7
			c-1.06,0-1.48-0.47-1.48-1.48c0-0.54,0.03-0.91,0.03-0.91h-0.05c0.03,0-1.01,2.68-4.11,2.68c-2.07,0-4.21-1.21-4.21-3.67
			C41.13,10.14,46.58,10,48.72,10z M45.62,16.5c2.36,0,3.79-2.46,3.79-4.61v-0.57H48.7c-1.95,0-5.84,0.05-5.84,2.83
			C42.86,15.32,43.77,16.5,45.62,16.5z"/>
		<path class="st0" d="M55.32,7.24c0-0.35-0.2-0.54-0.54-0.54h-1.03V5.24h1.72c1.04,0,1.5,0.42,1.5,1.4v0.84
			c0,0.52-0.05,0.94-0.05,0.94h0.05c0.59-1.87,1.97-3.3,3.91-3.3c0.34,0,0.67,0.07,0.67,0.07v1.65c0,0-0.3-0.05-0.62-0.05
			c-1.75,0-3.05,1.38-3.6,3.2C57.09,10.78,57,11.62,57,12.41v5.22h-1.68V7.24z"/>
		<path class="st0" d="M69.11,4.95c3.62,0,6.55,2.76,6.55,6.43c0,3.74-2.93,6.55-6.53,6.55c-3.62,0-6.55-2.81-6.55-6.55
			C62.58,7.71,65.51,4.95,69.11,4.95z M69.13,16.42c2.64,0,4.8-2.17,4.8-5.05c0-2.81-2.17-4.9-4.8-4.9c-2.66,0-4.83,2.09-4.83,4.9
			C64.31,14.26,66.47,16.42,69.13,16.42z"/>
		<path class="st0" d="M78.54,2.31c0-0.34-0.2-0.54-0.54-0.54h-1.03V0.32h1.75c1.06,0,1.5,0.44,1.5,1.5v13.82
			c0,0.37,0.2,0.54,0.54,0.54h1.03v1.45h-1.75c-1.06,0-1.5-0.44-1.5-1.5V2.31z"/>
		<path class="st0" d="M84.72,7.24c0-0.35-0.2-0.54-0.54-0.54h-1.04V5.24h1.75c1.06,0,1.5,0.44,1.5,1.5v8.89
			c0,0.37,0.2,0.54,0.54,0.54h1.04v1.45h-1.75c-1.06,0-1.5-0.44-1.5-1.5V7.24z M84.67,0.32h1.63v2.12h-1.63V0.32z"/>
		<path class="st0" d="M90.78,7.24c0-0.35-0.2-0.54-0.54-0.54H89.2V5.24h1.73c1.04,0,1.5,0.44,1.5,1.38v0.57
			c0,0.49-0.05,0.89-0.05,0.89h0.05c0.44-1.13,2.02-3.13,4.93-3.13c3.08,0,4.16,1.75,4.16,4.8v5.89c0,0.37,0.2,0.54,0.54,0.54h1.03
			v1.45h-1.75c-1.06,0-1.5-0.44-1.5-1.5v-5.94c0-1.95-0.29-3.67-2.69-3.67c-2.12,0-3.94,1.45-4.51,3.5c-0.15,0.52-0.2,1.08-0.2,1.67
			v5.94h-1.67V7.24z"/>
		<path class="st0" d="M112.18,10h0.69V9.85c0-2.59-0.93-3.5-3.2-3.5c-0.62,0-2.41,0.17-2.41,1.08v0.79h-1.6V7.04
			c0-1.72,2.96-2.09,4.04-2.09c3.92,0,4.85,2.09,4.85,4.75v5.93c0,0.37,0.2,0.54,0.54,0.54h1.03v1.45h-1.7
			c-1.06,0-1.48-0.47-1.48-1.48c0-0.54,0.02-0.91,0.02-0.91h-0.05c0.03,0-1.01,2.68-4.11,2.68c-2.07,0-4.21-1.21-4.21-3.67
			C104.59,10.14,110.04,10,112.18,10z M109.07,16.5c2.37,0,3.79-2.46,3.79-4.61v-0.57h-0.71c-1.95,0-5.84,0.05-5.84,2.83
			C106.32,15.32,107.23,16.5,109.07,16.5z"/>
		<path class="st1" d="M118.87,3.42c0-0.34-0.2-0.54-0.54-0.54h-1.06V0.14h3.15c1.18,0,1.67,0.52,1.67,1.68v9.48
			c0,2.29,1.45,3.62,3.65,3.62c2.19,0,3.65-1.33,3.65-3.64V1.82c0-1.16,0.49-1.68,1.67-1.68h3.15v2.73h-1.06
			c-0.34,0-0.54,0.2-0.54,0.54v7.98c0,3.87-2.73,6.53-6.85,6.53c-4.16,0-6.89-2.66-6.89-6.53V3.42z"/>
		<path class="st1" d="M136.9,8.27c0-0.37-0.2-0.54-0.54-0.54h-0.99V5.07h2.86c1.11,0,1.67,0.47,1.67,1.53v0.74
			c0,0.47-0.05,0.79-0.05,0.79h0.05c0.57-1.8,2.07-3.23,3.99-3.23c0.27,0,0.56,0.05,0.56,0.05v3.08c0,0-0.32-0.05-0.76-0.05
			c-1.33,0-2.86,0.76-3.42,2.64c-0.17,0.62-0.27,1.3-0.27,2.04v4.98h-3.1V8.27z"/>
		<path class="st1" d="M152.19,4.78c3.84,0,6.9,2.73,6.9,6.58c0,3.87-3.05,6.57-6.9,6.57c-3.82,0-6.87-2.71-6.87-6.57
			C145.32,7.51,148.37,4.78,152.19,4.78z M152.19,15.27c2.05,0,3.74-1.58,3.74-3.92c0-2.32-1.7-3.92-3.74-3.92
			c-2.02,0-3.72,1.6-3.72,3.92C148.47,13.69,150.17,15.27,152.19,15.27z"/>
		<path class="st1" d="M161.65,3.35c0-0.37-0.2-0.54-0.54-0.54h-0.99V0.14h2.98c1.16,0,1.67,0.52,1.67,1.68v12.63
			c0,0.34,0.2,0.54,0.54,0.54h0.96v2.64h-2.95c-1.18,0-1.68-0.49-1.68-1.67V3.35z"/>
		<path class="st1" d="M174.5,4.78c3.84,0,6.9,2.73,6.9,6.58c0,3.87-3.05,6.57-6.9,6.57c-3.82,0-6.87-2.71-6.87-6.57
			C167.63,7.51,170.68,4.78,174.5,4.78z M174.5,15.27c2.04,0,3.74-1.58,3.74-3.92c0-2.32-1.7-3.92-3.74-3.92
			c-2.02,0-3.72,1.6-3.72,3.92C170.78,13.69,172.48,15.27,174.5,15.27z"/>
		<path class="st1" d="M188.54,4.78c2.91,0,3.87,1.77,3.87,1.77h0.05c0,0,0-0.15,0-0.32c0-0.57,0.39-1.16,1.38-1.16h2.9v2.66h-0.96
			c-0.32,0-0.54,0.17-0.54,0.49v8.65c0,4.31-3.35,5.94-6.63,5.94c-1.58,0-3.25-0.44-4.46-1.08l0.96-2.46c0,0,1.55,0.84,3.47,0.84
			c1.9,0,3.55-0.81,3.55-3.08v-0.59c0-0.3,0.02-0.66,0.02-0.66h-0.05c-0.74,1.06-1.82,1.62-3.5,1.62c-3.59,0-5.64-2.91-5.64-6.35
			C182.97,7.58,184.92,4.78,188.54,4.78z M192.21,11.06c0-2.86-1.43-3.62-3.13-3.62c-1.9,0-2.93,1.38-2.93,3.5
			c0,2.19,1.11,3.82,3.13,3.82C190.78,14.75,192.21,13.89,192.21,11.06z"/>
		<path class="st1" d="M200.28,20.17c0.86,0,1.62-0.52,2.07-1.6l0.42-0.96l-4.18-9.43c-0.15-0.37-0.32-0.44-0.67-0.44h-0.37V5.07
			h2.07c0.89,0,1.33,0.32,1.65,1.18l2.46,6.28c0.25,0.64,0.44,1.67,0.44,1.67h0.05c0,0,0.2-1.03,0.42-1.67l2.14-6.28
			c0.3-0.86,0.81-1.18,1.68-1.18h2.12v2.66h-0.37c-0.37,0-0.57,0.07-0.71,0.44l-4.51,11.35c-0.89,2.27-2.66,3.28-4.53,3.28
			c-1.97,0-3.18-1.28-3.18-1.28l1.21-2.22C198.48,19.31,199.25,20.17,200.28,20.17z"/>
	</g>
	<path class="st0" d="M120.36,26.02h-0.74v-0.7h3.37c1.41,0,2.46,0.93,2.46,2.4c0,1.48-1.04,2.44-2.46,2.44h-1.83v3.12h-0.79V26.02z
		 M122.88,29.45c1.05,0,1.74-0.64,1.74-1.73c0-1.07-0.69-1.7-1.73-1.7h-1.74v3.43H122.88z"/>
	<path class="st0" d="M135.38,29.77h0.32V29.7c0-1.19-0.43-1.61-1.47-1.61c-0.28,0-1.11,0.08-1.11,0.5v0.36h-0.74v-0.54
		c0-0.79,1.36-0.96,1.86-0.96c1.8,0,2.23,0.96,2.23,2.18v2.73c0,0.17,0.09,0.25,0.25,0.25h0.47v0.67h-0.78
		c-0.48,0-0.68-0.22-0.68-0.68c0-0.25,0.01-0.42,0.01-0.42h-0.02c0.01,0-0.47,1.24-1.89,1.24c-0.95,0-1.94-0.56-1.94-1.69
		C131.9,29.83,134.4,29.77,135.38,29.77z M133.96,32.75c1.09,0,1.74-1.13,1.74-2.12v-0.26h-0.33c-0.89,0-2.68,0.02-2.68,1.3
		C132.69,32.21,133.11,32.75,133.96,32.75z"/>
	<path class="st0" d="M145.49,28.5c0-0.16-0.09-0.25-0.25-0.25h-0.48v-0.67h0.79c0.47,0,0.69,0.19,0.69,0.65v0.39
		c0,0.24-0.02,0.43-0.02,0.43h0.02c0.27-0.86,0.91-1.52,1.8-1.52c0.16,0,0.3,0.03,0.3,0.03v0.76c0,0-0.13-0.02-0.28-0.02
		c-0.8,0-1.4,0.63-1.65,1.47c-0.11,0.36-0.16,0.75-0.16,1.11v2.4h-0.77V28.5z"/>
	<path class="st0" d="M157.8,28.23h-0.75v-0.65h0.76v-1.57h0.76v1.57h1.42v0.65h-1.42v2.9c0,1.34,0.85,1.51,1.28,1.51
		c0.16,0,0.26-0.02,0.26-0.02v0.69c0,0-0.13,0.02-0.33,0.02c-0.66,0-1.98-0.21-1.98-2.12V28.23z"/>
	<path class="st0" d="M168.12,28.5c0-0.16-0.09-0.25-0.25-0.25h-0.48v-0.67h0.79c0.48,0,0.69,0.2,0.69,0.63v0.26
		c0,0.23-0.02,0.41-0.02,0.41h0.02c0.2-0.52,0.93-1.44,2.26-1.44c1.42,0,1.92,0.8,1.92,2.21v2.71c0,0.17,0.09,0.25,0.25,0.25h0.47
		v0.67h-0.8c-0.49,0-0.69-0.2-0.69-0.69v-2.73c0-0.9-0.13-1.69-1.23-1.69c-0.97,0-1.81,0.67-2.07,1.61
		c-0.07,0.24-0.09,0.5-0.09,0.77v2.73h-0.77V28.5z"/>
	<path class="st0" d="M182.82,27.44c1.57,0,2.39,1.21,2.39,2.63c0,0.14-0.02,0.39-0.02,0.39h-4.37c0.02,1.44,1.03,2.26,2.21,2.26
		c1.04,0,1.71-0.7,1.71-0.7l0.38,0.58c0,0-0.83,0.82-2.12,0.82c-1.69,0-2.98-1.22-2.98-2.98C180.01,28.57,181.29,27.44,182.82,27.44
		z M184.41,29.84c-0.04-1.18-0.77-1.76-1.6-1.76c-0.94,0-1.77,0.61-1.96,1.76H184.41z"/>
	<path class="st0" d="M193.55,28.5c0-0.16-0.09-0.25-0.25-0.25h-0.48v-0.67h0.79c0.48,0,0.69,0.19,0.69,0.65v0.39
		c0,0.24-0.02,0.43-0.02,0.43h0.02c0.27-0.86,0.9-1.52,1.8-1.52c0.16,0,0.31,0.03,0.31,0.03v0.76c0,0-0.14-0.02-0.28-0.02
		c-0.8,0-1.4,0.63-1.65,1.47c-0.11,0.36-0.16,0.75-0.16,1.11v2.4h-0.77V28.5z"/>
	<path class="st0" d="M204.99,31.88c0,0,0.63,0.86,1.75,0.86c0.64,0,1.2-0.31,1.2-0.91c0-1.25-3.19-1.02-3.19-2.85
		c0-1.03,0.88-1.54,2.03-1.54c0.58,0,1.73,0.23,1.73,1.03v0.49h-0.73v-0.27c0-0.42-0.61-0.58-0.98-0.58c-0.79,0-1.27,0.27-1.27,0.83
		c0,1.28,3.19,0.98,3.19,2.88c0,0.95-0.86,1.6-1.99,1.6c-1.48,0-2.19-0.99-2.19-0.99L204.99,31.88z"/>
	<g>
		<g>
			<g>
				<path class="st0" d="M27.65,35.21C-6.39,20.77,0.56,11.94,0.56,11.94c2.75-6.68,14.1-3.61,19.5-0.68l0,0
					C15.04,7.71,5.55,2.28,2.05,8.59c0,0-7.92,7.97,24.21,26.25L27.65,35.21z"/>
			</g>
		</g>
		<g>
			<g>
				<path class="st0" d="M12.16,26.63c29.7,22.03,33.79,11.56,33.79,11.56c4.37-5.75-4.03-13.99-9.29-17.16l0,0
					c5.6,2.54,15.09,7.96,11.42,14.18c0,0-2.86,10.87-34.9-7.58L12.16,26.63z"/>
			</g>
		</g>
	</g>
	<g>
		<path class="st1" d="M36.6,21.46C19.14,54.05,10.16,48.37,10.16,48.37c-6.4-3.34-2.33-14.37,1.08-19.49l0,0
			c-3.98,4.69-10.25,13.64-4.27,17.7C6.97,46.59,15.49,51.81,36.6,21.46L36.6,21.46z"/>
	</g>
</g>
</svg>
