<?xml version="1.0" encoding="UTF-8"?> <svg xmlns="http://www.w3.org/2000/svg" xmlns:xlink="http://www.w3.org/1999/xlink" version="1.1" id="Layer_1" x="0px" y="0px" viewBox="0 0 233.8 101.5" style="enable-background:new 0 0 233.8 101.5;" xml:space="preserve"> <style type="text/css"> .st0{fill:#D2232A;} .st1{fill:#FFFFFF;} .st2{clip-path:url(#SVGID_00000008125541979823783210000002430626708859303857_);fill:#FFFFFF;} .st3{clip-path:url(#SVGID_00000008125541979823783210000002430626708859303857_);} .st4{clip-path:url(#SVGID_00000008125541979823783210000002430626708859303857_);fill:#F3CFC1;} .st5{clip-path:url(#SVGID_00000008125541979823783210000002430626708859303857_);fill:#E18067;} .st6{clip-path:url(#SVGID_00000008125541979823783210000002430626708859303857_);fill:#D2232A;} </style> <rect x="6.8" y="73.5" class="st0" width="221.1" height="21.2"></rect> <path class="st1" d="M35,79l4.2,10.2h-2.6L35.8,87h-4.2l-0.9,2.3h-2.5L32.4,79H35z M35.1,85.3l-1.4-3.7h0l-1.5,3.7H35.1z"></path> <g> <defs> <rect id="SVGID_1_" x="6.8" y="6.3" width="221.1" height="88.3"></rect> </defs> <clipPath id="SVGID_00000077302606055850693400000013068992479777284022_"> <use xlink:href="#SVGID_1_" style="overflow:visible;"></use> </clipPath> <path style="clip-path:url(#SVGID_00000077302606055850693400000013068992479777284022_);fill:#FFFFFF;" d="M50.7,86.7 c0.1,0.2,0.3,0.4,0.5,0.6c0.2,0.1,0.5,0.3,0.8,0.3c0.3,0.1,0.6,0.1,0.9,0.1c0.2,0,0.5,0,0.7-0.1c0.3,0,0.5-0.1,0.7-0.2 c0.2-0.1,0.4-0.2,0.6-0.4c0.1-0.2,0.2-0.4,0.2-0.6c0-0.3-0.1-0.5-0.3-0.7c-0.2-0.2-0.4-0.3-0.8-0.4s-0.7-0.2-1.1-0.3 c-0.4-0.1-0.8-0.2-1.2-0.3c-0.4-0.1-0.8-0.2-1.2-0.3c-0.4-0.1-0.8-0.3-1.1-0.5c-0.3-0.2-0.6-0.5-0.8-0.8c-0.2-0.3-0.3-0.7-0.3-1.2 c0-0.5,0.1-1,0.4-1.4c0.2-0.4,0.6-0.7,1-1c0.4-0.3,0.8-0.4,1.4-0.6c0.5-0.1,1-0.2,1.5-0.2c0.6,0,1.1,0.1,1.7,0.2 c0.5,0.1,1,0.3,1.4,0.6c0.4,0.3,0.8,0.6,1,1s0.4,0.9,0.4,1.5h-2.4c0-0.3-0.1-0.6-0.2-0.8c-0.1-0.2-0.3-0.4-0.5-0.5 c-0.2-0.1-0.4-0.2-0.7-0.2c-0.3,0-0.5-0.1-0.8-0.1c-0.2,0-0.4,0-0.6,0.1c-0.2,0-0.4,0.1-0.5,0.2c-0.2,0.1-0.3,0.2-0.4,0.4 c-0.1,0.1-0.2,0.3-0.2,0.5c0,0.2,0,0.4,0.1,0.5c0.1,0.1,0.2,0.2,0.5,0.3c0.2,0.1,0.6,0.2,1,0.3c0.4,0.1,1,0.2,1.7,0.4 c0.2,0,0.5,0.1,0.9,0.2c0.4,0.1,0.7,0.3,1.1,0.5c0.4,0.2,0.7,0.5,1,0.9c0.3,0.4,0.4,0.8,0.4,1.4c0,0.5-0.1,0.9-0.3,1.3 c-0.2,0.4-0.5,0.7-0.9,1c-0.4,0.3-0.9,0.5-1.5,0.7c-0.6,0.2-1.3,0.2-2,0.2c-0.6,0-1.2-0.1-1.8-0.2c-0.6-0.1-1.1-0.4-1.5-0.7 s-0.8-0.7-1.1-1.1c-0.3-0.5-0.4-1-0.4-1.6h2.4C50.5,86.2,50.5,86.5,50.7,86.7"></path> <path style="clip-path:url(#SVGID_00000077302606055850693400000013068992479777284022_);fill:#FFFFFF;" d="M69.5,86.7 c0.1,0.2,0.3,0.4,0.5,0.6c0.2,0.1,0.5,0.3,0.8,0.3c0.3,0.1,0.6,0.1,0.9,0.1c0.2,0,0.5,0,0.7-0.1c0.3,0,0.5-0.1,0.7-0.2 c0.2-0.1,0.4-0.2,0.6-0.4c0.1-0.2,0.2-0.4,0.2-0.6c0-0.3-0.1-0.5-0.3-0.7c-0.2-0.2-0.4-0.3-0.8-0.4c-0.3-0.1-0.7-0.2-1.1-0.3 c-0.4-0.1-0.8-0.2-1.2-0.3c-0.4-0.1-0.8-0.2-1.2-0.3c-0.4-0.1-0.8-0.3-1.1-0.5c-0.3-0.2-0.6-0.5-0.8-0.8c-0.2-0.3-0.3-0.7-0.3-1.2 c0-0.5,0.1-1,0.4-1.4c0.2-0.4,0.6-0.7,1-1c0.4-0.3,0.8-0.4,1.4-0.6c0.5-0.1,1-0.2,1.5-0.2c0.6,0,1.1,0.1,1.7,0.2 c0.5,0.1,1,0.3,1.4,0.6c0.4,0.3,0.8,0.6,1,1c0.2,0.4,0.4,0.9,0.4,1.5h-2.4c0-0.3-0.1-0.6-0.2-0.8c-0.1-0.2-0.3-0.4-0.5-0.5 c-0.2-0.1-0.4-0.2-0.7-0.2c-0.3,0-0.5-0.1-0.8-0.1c-0.2,0-0.4,0-0.6,0.1c-0.2,0-0.4,0.1-0.5,0.2c-0.2,0.1-0.3,0.2-0.4,0.4 c-0.1,0.1-0.2,0.3-0.2,0.5c0,0.2,0,0.4,0.1,0.5c0.1,0.1,0.2,0.2,0.5,0.3c0.2,0.1,0.6,0.2,1,0.3c0.4,0.1,1,0.2,1.7,0.4 c0.2,0,0.5,0.1,0.9,0.2c0.4,0.1,0.7,0.3,1.1,0.5c0.4,0.2,0.7,0.5,1,0.9c0.3,0.4,0.4,0.8,0.4,1.4c0,0.5-0.1,0.9-0.3,1.3 c-0.2,0.4-0.5,0.7-0.9,1c-0.4,0.3-0.9,0.5-1.5,0.7c-0.6,0.2-1.3,0.2-2,0.2c-0.6,0-1.2-0.1-1.8-0.2c-0.6-0.1-1.1-0.4-1.5-0.7 s-0.8-0.7-1.1-1.1c-0.3-0.5-0.4-1-0.4-1.6h2.4C69.3,86.2,69.3,86.5,69.5,86.7"></path> <path style="clip-path:url(#SVGID_00000077302606055850693400000013068992479777284022_);fill:#FFFFFF;" d="M86.3,82.1 c0.3-0.7,0.6-1.2,1.1-1.7c0.5-0.5,1-0.9,1.7-1.1c0.7-0.3,1.5-0.4,2.3-0.4c0.9,0,1.6,0.1,2.3,0.4c0.7,0.3,1.3,0.7,1.7,1.1 s0.8,1.1,1.1,1.7c0.2,0.7,0.4,1.4,0.4,2.1c0,0.7-0.1,1.4-0.4,2.1c-0.3,0.6-0.6,1.2-1.1,1.7c-0.5,0.5-1,0.8-1.7,1.1 c-0.7,0.3-1.5,0.4-2.3,0.4c-0.9,0-1.6-0.1-2.3-0.4c-0.7-0.3-1.3-0.6-1.7-1.1c-0.5-0.5-0.8-1-1.1-1.7c-0.3-0.6-0.4-1.3-0.4-2.1 C85.9,83.4,86.1,82.7,86.3,82.1 M88.6,85.4c0.1,0.4,0.3,0.8,0.5,1.1c0.2,0.3,0.6,0.6,0.9,0.8s0.9,0.3,1.4,0.3c0.6,0,1-0.1,1.4-0.3 c0.4-0.2,0.7-0.5,0.9-0.8c0.2-0.3,0.4-0.7,0.5-1.1c0.1-0.4,0.2-0.8,0.2-1.2c0-0.4-0.1-0.9-0.2-1.3c-0.1-0.4-0.3-0.8-0.5-1.1 c-0.2-0.3-0.6-0.6-0.9-0.8c-0.4-0.2-0.9-0.3-1.4-0.3c-0.6,0-1,0.1-1.4,0.3s-0.7,0.5-0.9,0.8c-0.2,0.3-0.4,0.7-0.5,1.1 c-0.1,0.4-0.2,0.9-0.2,1.3C88.4,84.6,88.5,85,88.6,85.4"></path> <path style="clip-path:url(#SVGID_00000077302606055850693400000013068992479777284022_);fill:#FFFFFF;" d="M114.5,81.8 c-0.1-0.2-0.3-0.4-0.5-0.6c-0.2-0.2-0.5-0.3-0.7-0.4c-0.3-0.1-0.6-0.1-0.9-0.1c-0.6,0-1,0.1-1.4,0.3c-0.4,0.2-0.7,0.5-0.9,0.8 c-0.2,0.3-0.4,0.7-0.5,1.1c-0.1,0.4-0.2,0.9-0.2,1.3c0,0.4,0.1,0.8,0.2,1.2c0.1,0.4,0.3,0.8,0.5,1.1c0.2,0.3,0.6,0.6,0.9,0.8 s0.9,0.3,1.4,0.3c0.8,0,1.3-0.2,1.8-0.6c0.4-0.4,0.7-1,0.8-1.7h2.4c-0.1,0.6-0.2,1.2-0.5,1.7s-0.6,1-1,1.3 c-0.4,0.4-0.9,0.6-1.5,0.8c-0.6,0.2-1.2,0.3-1.9,0.3c-0.9,0-1.6-0.1-2.3-0.4c-0.7-0.3-1.3-0.6-1.7-1.1c-0.5-0.5-0.8-1-1.1-1.7 c-0.3-0.6-0.4-1.3-0.4-2.1c0-0.8,0.1-1.5,0.4-2.1c0.3-0.7,0.6-1.2,1.1-1.7c0.5-0.5,1-0.9,1.7-1.1c0.7-0.3,1.5-0.4,2.3-0.4 c0.6,0,1.2,0.1,1.8,0.2c0.5,0.2,1,0.4,1.5,0.7c0.4,0.3,0.8,0.7,1.1,1.1c0.3,0.5,0.5,1,0.5,1.6h-2.4C114.7,82.2,114.6,82,114.5,81.8 "></path> <rect x="127.5" y="79" style="clip-path:url(#SVGID_00000077302606055850693400000013068992479777284022_);fill:#FFFFFF;" width="2.5" height="10.2"></rect> <path style="clip-path:url(#SVGID_00000077302606055850693400000013068992479777284022_);fill:#FFFFFF;" d="M146.4,79l4.2,10.2H148 l-0.8-2.3H143l-0.9,2.3h-2.5l4.2-10.2H146.4z M146.5,85.3l-1.4-3.7h0l-1.5,3.7H146.5z"></path> <polygon style="clip-path:url(#SVGID_00000077302606055850693400000013068992479777284022_);fill:#FFFFFF;" points="158.5,80.9 158.5,79 167.6,79 167.6,80.9 164.3,80.9 164.3,89.2 161.8,89.2 161.8,80.9 "></polygon> <polygon style="clip-path:url(#SVGID_00000077302606055850693400000013068992479777284022_);fill:#FFFFFF;" points="186,79 186,80.9 180,80.9 180,83.1 185.5,83.1 185.5,84.8 180,84.8 180,87.3 186.1,87.3 186.1,89.2 177.6,89.2 177.6,79 "></polygon> <path style="clip-path:url(#SVGID_00000077302606055850693400000013068992479777284022_);fill:#FFFFFF;" d="M198.3,86.7 c0.1,0.2,0.3,0.4,0.5,0.6c0.2,0.1,0.5,0.3,0.8,0.3c0.3,0.1,0.6,0.1,0.9,0.1c0.2,0,0.5,0,0.7-0.1c0.3,0,0.5-0.1,0.7-0.2 c0.2-0.1,0.4-0.2,0.6-0.4c0.1-0.2,0.2-0.4,0.2-0.6c0-0.3-0.1-0.5-0.3-0.7c-0.2-0.2-0.4-0.3-0.8-0.4c-0.3-0.1-0.7-0.2-1.1-0.3 c-0.4-0.1-0.8-0.2-1.2-0.3c-0.4-0.1-0.8-0.2-1.2-0.3c-0.4-0.1-0.8-0.3-1.1-0.5c-0.3-0.2-0.6-0.5-0.8-0.8c-0.2-0.3-0.3-0.7-0.3-1.2 c0-0.5,0.1-1,0.4-1.4c0.2-0.4,0.6-0.7,1-1c0.4-0.3,0.8-0.4,1.4-0.6c0.5-0.1,1-0.2,1.5-0.2c0.6,0,1.1,0.1,1.7,0.2 c0.5,0.1,1,0.3,1.4,0.6c0.4,0.3,0.8,0.6,1,1c0.2,0.4,0.4,0.9,0.4,1.5h-2.4c0-0.3-0.1-0.6-0.2-0.8c-0.1-0.2-0.3-0.4-0.5-0.5 c-0.2-0.1-0.4-0.2-0.7-0.2c-0.3,0-0.5-0.1-0.8-0.1c-0.2,0-0.4,0-0.6,0.1c-0.2,0-0.4,0.1-0.5,0.2c-0.2,0.1-0.3,0.2-0.4,0.4 c-0.1,0.1-0.2,0.3-0.2,0.5c0,0.2,0,0.4,0.1,0.5c0.1,0.1,0.2,0.2,0.5,0.3c0.2,0.1,0.6,0.2,1,0.3c0.4,0.1,1,0.2,1.7,0.4 c0.2,0,0.5,0.1,0.9,0.2c0.4,0.1,0.7,0.3,1.1,0.5c0.4,0.2,0.7,0.5,1,0.9c0.3,0.4,0.4,0.8,0.4,1.4c0,0.5-0.1,0.9-0.3,1.3 c-0.2,0.4-0.5,0.7-0.9,1c-0.4,0.3-0.9,0.5-1.5,0.7c-0.6,0.2-1.3,0.2-2,0.2c-0.6,0-1.2-0.1-1.8-0.2c-0.6-0.1-1.1-0.4-1.5-0.7 s-0.8-0.7-1.1-1.1c-0.3-0.5-0.4-1-0.4-1.6h2.4C198.1,86.2,198.1,86.5,198.3,86.7"></path> <path style="clip-path:url(#SVGID_00000077302606055850693400000013068992479777284022_);" d="M25.6,15.1c0.1,0.4,0.4,1.4,0.9,3.1 c0.2,0.8,0.3,1.6,0.3,2.4h-1.5c-1-1.6-2.1-2.8-3.2-3.5C21,16.4,19.8,16,18.5,16c-1.7,0-3,0.7-4,2.2c-1.4,2-2.1,4.7-2.1,8.2 c0,2,0.1,3.5,0.4,4.3c0.4,1.4,0.9,2.5,1.5,3.4c0.5,0.7,1,1.2,1.8,1.6c0.9,0.5,1.9,0.8,3,0.8c1.2,0,2.3-0.4,3.4-1.2 c1.1-0.8,2.2-2,3.2-3.6c0.4-0.1,0.9-0.1,1.6-0.1c0,0.5-0.1,0.9-0.2,1.4c0,0.2-0.2,0.9-0.4,2.3l-0.1,0.5l-0.2,0.8 c-0.7,0.6-1.6,1-2.8,1.3c-1.2,0.3-2.6,0.4-4.4,0.4c-1.3,0-2.6-0.1-3.7-0.4c-1.2-0.3-2.2-0.7-3-1.3c-1.2-0.9-2.2-1.8-2.9-2.8 c-0.7-1-1.2-2.1-1.5-3.3c-0.3-1.2-0.5-2.5-0.5-4c0-3.5,1.1-6.5,3.2-8.8c2.1-2.3,4.8-3.5,8.1-3.5c1.3,0,2.6,0.1,3.8,0.2 C23.5,14.6,24.6,14.8,25.6,15.1"></path> <path style="clip-path:url(#SVGID_00000077302606055850693400000013068992479777284022_);" d="M26.8,37.8l0-1.2 c0.2-0.1,0.6-0.2,1.1-0.3c0.8-0.2,1.3-0.3,1.5-0.5c0.2-0.1,0.4-0.5,0.7-1l3.2-9.4l3.8-11.1h1h0.7l0.1,0.3l2.8,7.4 c0.6,1.6,1.2,3.1,1.7,4.5c0.5,1.5,0.9,2.7,1.3,3.6c0.2,0.6,0.5,1.4,0.9,2.5c0.2,0.6,0.5,1.4,0.9,2.3c0.2,0.5,0.4,0.8,0.5,0.9 c0.2,0.2,0.5,0.3,0.9,0.4c0.4,0.1,0.9,0.2,1.4,0.4c0.1,0.4,0.1,0.7,0.1,0.9c0,0.1,0,0.2,0,0.4c-0.8,0-1.7,0-2.6-0.1 c-1-0.1-1.8-0.1-2.6-0.1c-0.8,0-1.5,0-1.8,0l-2.7,0.2l-0.8,0c0-0.4,0-0.8,0-1.2l1.8-0.4c0.5-0.2,0.8-0.3,0.9-0.4 c0.1-0.1,0.2-0.3,0.2-0.4c0-0.2,0-0.3-0.1-0.5l-0.6-1.8l-1.3-3.5l-6.1,0c-0.2,0.6-0.7,2-1.4,4.2c-0.2,0.6-0.3,1.1-0.3,1.3 c0,0.3,0.1,0.5,0.2,0.7c0.2,0.2,0.7,0.4,1.4,0.5c0.1,0,0.5,0.1,1.1,0.2c0,0.4,0,0.7,0,0.9c0,0.1,0,0.3,0,0.4 c-0.7,0-2.3-0.1-4.8-0.3l-0.7,0.1c-0.8,0.1-1.5,0.2-2.3,0.2H26.8z M34.3,27.8c2.5,0,4,0.1,4.4,0.1l0.4,0c-0.3-1.1-0.7-2.3-1.3-3.7 c-0.5-1.4-0.9-2.5-1.3-3.2L34.3,27.8z"></path> <path style="clip-path:url(#SVGID_00000077302606055850693400000013068992479777284022_);" d="M49.8,36.8c0.3-0.2,0.7-0.3,1.2-0.4 c0.5-0.1,1-0.2,1.5-0.4c0.1-0.2,0.1-0.4,0.1-0.5c0-0.2,0-0.7,0-1.7l0-4l0.1-2.1l0-1.7l0-1c0-1.3,0-2.5,0-3.6c0-2.5,0-4.1-0.1-4.8 l-0.9-0.2c-0.9-0.1-1.4-0.1-1.7-0.2l0-1.1L50,15c0.5-0.1,1-0.1,1.5-0.1c0.2,0,0.7,0,1.5,0c0.8,0.1,1.2,0.1,1.3,0.1l0.9-0.1l2-0.1 c1.3-0.1,2.6-0.2,4-0.2c2.2,0,3.9,0.6,5.2,1.9c1.3,1.2,1.9,2.7,1.9,4.3c0,1.2-0.4,2.3-1,3.3c-0.7,1-1.8,1.7-3.2,2.2 c0.1,0.2,0.3,0.5,0.5,0.9c0.4,0.7,0.8,1.3,1.1,1.8l2.6,4.6c0.6,1.2,1.1,1.9,1.3,2.2c0.2,0.2,0.6,0.4,1.2,0.7 c0.5,0.2,0.9,0.4,1.1,0.6c0.1,0.2,0.1,0.4,0.1,0.5c0,0.1,0,0.2,0,0.4h-0.4l-0.3,0l-0.8-0.1h-0.7c-0.3-0.1-0.8-0.1-1.3-0.1l-1.6,0 c-0.1,0-0.5,0-1.1,0.1c-0.3,0-0.5,0.1-0.7,0.1l-0.5-1.2c-0.4-0.9-0.8-1.6-0.9-2c-0.5-1.2-1.3-3-2.4-5.5c-0.5-1.2-0.9-1.8-1.1-2 c-0.3-0.2-0.9-0.4-1.7-0.4c-0.2,0-0.6,0-1.1,0c0,0.3,0,0.8,0,1.2l0.1,4L57,35.4c0.3,0.2,0.7,0.4,1.2,0.5c0.8,0.2,1.6,0.4,2.2,0.7 c0,0.6,0,1-0.1,1.3c-0.2,0-0.3,0-0.4,0l-0.7,0c-2.3-0.2-3.7-0.3-4.1-0.3c-0.3,0-0.5,0-0.6,0l-2.2,0.2c-0.7,0.1-1.3,0.1-1.8,0.1 h-0.7c0-0.3,0-0.5,0-0.6C49.8,37.2,49.8,37,49.8,36.8 M57.1,25.2c0.5,0,0.9,0,1.1,0c1.8,0,3.1-0.4,3.9-1.1c0.8-0.7,1.1-1.7,1.1-2.9 c0-0.8-0.1-1.5-0.3-2.1c-0.2-0.7-0.4-1.2-0.7-1.5c-0.4-0.5-0.9-0.8-1.6-1.1c-0.5-0.2-1.2-0.3-2.3-0.3c-0.5,0-0.9,0-1.3,0.1l0,0.3 l0,2.4l0,1.5l0,1.9c0,0.5,0,1.3,0,2.1V25.2z"></path> <path style="clip-path:url(#SVGID_00000077302606055850693400000013068992479777284022_);" d="M71.3,26c0-1.5,0.3-3,0.8-4.4 c0.4-1.1,0.9-2.1,1.6-2.9c0.7-0.9,1.5-1.7,2.5-2.4c1-0.7,2.1-1.2,3.1-1.5c1.1-0.3,2.2-0.5,3.6-0.5c2.2,0,4.2,0.5,5.8,1.4 c1.6,0.9,2.9,2.2,3.9,3.8c1.2,2.1,1.8,4.2,1.8,6.5c0,3.4-1,6.3-3.1,8.7c-2.1,2.4-4.9,3.6-8.6,3.6c-0.9,0-1.8-0.1-2.6-0.2 c-0.6-0.1-1.1-0.2-1.6-0.4c-0.8-0.3-1.3-0.5-1.4-0.5c-1.2-0.7-2.1-1.5-2.8-2.3c-0.7-0.8-1.3-1.7-1.8-2.6c-0.3-0.5-0.6-1.5-0.9-3 C71.4,28.3,71.3,27.2,71.3,26 M82.2,16c-0.9,0-1.8,0.2-2.5,0.7c-0.7,0.5-1.3,1-1.6,1.6c-0.6,1-1,2.1-1.3,3.2 c-0.3,1.2-0.4,2.6-0.4,4.3c0,1,0,1.8,0.1,2.2c0,0.1,0.1,0.4,0.1,0.7c0.1,0.9,0.2,1.5,0.3,1.9c0.5,1.5,0.8,2.4,1,2.8 c0.3,0.6,0.8,1.2,1.4,1.8c0.3,0.3,0.8,0.6,1.4,0.8c0.6,0.3,1.2,0.4,1.8,0.4c1.2,0,2.2-0.3,3.2-0.9c1-0.6,1.8-1.6,2.4-3.1 c0.6-1.4,0.9-3.3,0.9-5.6c0-1-0.1-2.2-0.2-3.9l-0.1-0.3c0-0.1-0.1-0.3-0.2-0.7c-0.4-2-1.2-3.4-2.3-4.5C85.3,16.5,83.9,16,82.2,16"></path> <path style="clip-path:url(#SVGID_00000077302606055850693400000013068992479777284022_);" d="M96.3,36.4c0.3-0.1,0.8-0.2,1.4-0.3 c0.6-0.1,1-0.1,1.1-0.1c0.4,0,0.7-0.1,0.8-0.2c0.1-0.3,0.1-0.5,0.1-0.7l0-2.3l0.1-2.3v-1.5l0-1.8l0-1.9l0.1-4l0-1.8v-0.3 c-0.1-1.3-0.1-1.9-0.2-2.1c-0.1-0.1-0.4-0.3-0.9-0.5c-0.1,0-0.3-0.1-0.6-0.3c-0.3-0.1-0.5-0.2-0.7-0.2c-0.4-0.1-0.6-0.2-0.8-0.4 c0-0.3,0-0.5,0-0.7c0-0.1,0-0.2,0-0.4c0.1-0.1,0.2-0.1,0.3-0.1c0.3,0,1.2,0,2.8,0.1l2.3,0l1.7,0c0.7,0,1.7-0.1,2.8-0.1 c0.3,0,0.5,0,0.6,0c0.2,0,0.3,0,0.3,0.1c0.1,0.1,0.1,0.4,0.1,0.7c0,0.3-0.1,0.5-0.2,0.6c-0.1,0.1-0.3,0.2-0.7,0.2l-2,0.5 c-0.1,0-0.1,0.1-0.3,0.1c0,0.1-0.1,0.2-0.1,0.2l0,0.5l0,1.1V19v0.2c0,0.1,0,0.4,0,1c0,0.2,0,0.3,0,0.5c0,0.2,0,0.5,0,1 c0,0.7,0,1.3,0,1.9c0,0.6,0,1.3,0,2.1c0,0.3,0,0.7,0,1.2l-0.1,8.5c0,0.4,0.1,0.6,0.2,0.7l1.5,0.1l0.9,0l1,0c1.7,0,3.1-0.2,4.1-0.7 c0.7-0.3,1.2-0.7,1.4-1c0.4-0.4,0.7-0.7,0.9-1.2c0.2-0.4,0.5-1.1,0.8-2.1h0.5c0.3,0,0.5,0,0.9,0.1v0.5c0,0.9-0.1,2.4-0.3,4.5 c-0.1,0.9-0.2,1.4-0.2,1.6c-0.2,0-0.4,0.1-0.5,0.1h-0.6l-0.8,0c-0.1,0-0.7,0-1.9-0.1c-0.2,0-1.2-0.1-3.1-0.1 c-1.8-0.1-3.6-0.1-5.4-0.1l-3.3,0.1c-1.3,0-2.4,0.1-3.6,0.2h-0.2c-0.1,0-0.2,0-0.3,0c0-0.1,0-0.2,0-0.3 C96.2,37,96.2,36.6,96.3,36.4"></path> <path style="clip-path:url(#SVGID_00000077302606055850693400000013068992479777284022_);" d="M117.5,37.9v-1.3 c0.2-0.1,0.6-0.2,1.1-0.3c0.7-0.2,1.2-0.4,1.6-0.6c0.2-0.4,0.3-0.9,0.3-1.5l0-2.1l0-4.1l0-1c0.1-2.4,0.1-3.6,0.1-3.6l0-2.4l0-1 l-0.1-2l0-0.8c0-0.1,0-0.3-0.1-0.6c-0.4-0.2-1.2-0.4-2.1-0.4c-0.2,0-0.4,0-0.6-0.1l0-1.6l4.6,0.2c0.6,0,0.9,0,1.1,0 c0.6,0,1.6,0,3-0.1c0.8-0.1,1.3-0.1,1.5-0.1c0,0.2,0,0.4,0,0.6c0,0.2,0,0.5,0,0.8c-0.4,0.2-0.9,0.3-1.5,0.5c-0.6,0.1-1,0.3-1.4,0.5 c-0.1,0.3-0.1,0.8-0.1,1.3c0,0.5,0,0.9,0,1.2c0,2,0,3.6,0,4.6l0,4.7l-0.1,2.4l0.1,3.6l0,0.7c0,0.1,0,0.2,0.1,0.4 c0.6,0.2,1.2,0.3,1.8,0.3c0.1,0,0.4,0.1,1,0.1c0,0.4,0.1,0.7,0.1,0.9c0,0.1,0,0.3,0,0.6c-0.1,0-0.2,0-0.3,0c-0.3,0-0.5,0-0.6,0 c-0.1,0-0.2,0-0.4-0.1c-0.1,0-0.9-0.1-2.1-0.2l-2.8,0c-0.6,0-1.4,0.1-2.5,0.2C118.1,37.8,117.7,37.9,117.5,37.9"></path> <path style="clip-path:url(#SVGID_00000077302606055850693400000013068992479777284022_);" d="M129.1,16.1l-0.1-1.3h1.4l0.5,0 c0.6,0,1.1-0.1,1.3-0.1c0.1,0,0.5,0,1.1,0c0.1,0,0.3,0,0.4,0c0.1,0,0.4,0,1,0c0.6,0,0.9,0,1,0c0.1,0,0.3,0,0.5,0 c1.6,1.7,3,3.1,4,4.3c1,1.2,4.8,5.4,11.4,12.6v-0.4l-0.1-2.1c0-1.2-0.1-2.2-0.1-2.9c-0.1-0.7-0.1-1.6-0.1-2.5c0-1,0-1.9-0.1-2.7 c-0.1-1.6-0.2-2.5-0.2-2.7c0-0.8-0.1-1.2-0.2-1.4c-0.2-0.3-0.7-0.5-1.5-0.6c-0.6-0.1-1-0.2-1.3-0.4l0-1.1l0.4-0.1l3.2-0.1l3.5-0.1 c0.2,0,0.5,0,0.7,0l0,1.2c-0.2,0.1-0.5,0.2-0.8,0.3c-0.7,0.2-1.1,0.3-1.2,0.4c-0.5,0.3-0.8,0.6-0.9,0.6c-0.1,0.1-0.1,0.4-0.1,0.7 c0,0.1,0,0.3,0,0.8c0,0.2,0,0.7,0,1.5c0,1.7,0.1,3.1,0.1,4.1c0,0.3,0,0.7,0,1.1l0.2,6.3c0,0.4,0,0.8,0,0.9v2.2l0,0.9l0,1 c0,0.5,0.1,0.8,0.1,0.9v0.9l-1.8,0.1l-1.9-2.2l-3.9-4.3l-2.7-3l-2-2.3c-1.3-1.4-2.5-2.7-3.6-3.8l-2.6-2.6l0.1,6.6 c0,0.4,0,0.8,0,1.2l0,1.3l0.1,2.3c0,1,0.1,2,0.2,3.2c0,0.3,0,0.5,0.1,0.7c0,0.1,0.1,0.3,0.2,0.5c0.4,0.2,1.3,0.3,2.7,0.4 c0.1,0,0.2,0.1,0.4,0.1l0.1,1.4l-0.6,0c-0.3,0-1.4-0.1-3.2-0.3c-1.7,0-2.8,0.1-3.4,0.1c-0.6,0-0.9,0.1-0.9,0.1 c-0.1,0-0.3,0-0.5-0.1c0-0.3,0-0.5,0-0.7c0-0.1,0-0.3,0-0.6c0.3-0.1,0.5-0.1,0.7-0.1c0.1,0,0.3,0,0.6,0c0.9,0,1.4-0.1,1.6-0.2 c0.2-0.1,0.3-0.6,0.3-1.2c0.1-1.9,0.1-3,0.1-3.5v-1l0-5.8l0-3.6c0-1.4-0.1-2.3-0.2-2.9c-0.1-0.3-0.2-0.5-0.4-0.7 c-0.4-0.4-0.8-0.8-1.3-1C131,16.5,130.2,16.3,129.1,16.1"></path> <path style="clip-path:url(#SVGID_00000077302606055850693400000013068992479777284022_);" d="M154.6,37.8l0-1.2 c0.2-0.1,0.6-0.2,1.1-0.3c0.8-0.2,1.3-0.3,1.5-0.5c0.2-0.1,0.4-0.5,0.7-1l3.2-9.4l3.8-11.1h1h0.7l0.1,0.3l2.8,7.4 c0.6,1.6,1.2,3.1,1.7,4.5c0.5,1.5,0.9,2.7,1.3,3.6c0.2,0.6,0.5,1.4,0.9,2.5c0.2,0.6,0.5,1.4,0.9,2.3c0.2,0.5,0.4,0.8,0.5,0.9 c0.2,0.2,0.5,0.3,0.9,0.4c0.4,0.1,0.9,0.2,1.4,0.4c0.1,0.4,0.1,0.7,0.1,0.9c0,0.1,0,0.2,0,0.4c-0.8,0-1.7,0-2.6-0.1 c-1-0.1-1.8-0.1-2.6-0.1c-0.8,0-1.5,0-1.8,0l-2.7,0.2l-0.8,0c0-0.4,0-0.8,0-1.2l1.8-0.4c0.5-0.2,0.8-0.3,0.9-0.4 c0.1-0.1,0.2-0.3,0.2-0.4c0-0.2,0-0.3-0.1-0.5l-0.6-1.8l-1.3-3.5l-6.1,0c-0.2,0.6-0.7,2-1.4,4.2c-0.2,0.6-0.3,1.1-0.3,1.3 c0,0.3,0.1,0.5,0.2,0.7c0.2,0.2,0.7,0.4,1.4,0.5c0.1,0,0.5,0.1,1.1,0.2c0,0.4,0,0.7,0,0.9c0,0.1,0,0.3,0,0.4 c-0.7,0-2.2-0.1-4.8-0.3l-0.7,0.1c-0.8,0.1-1.5,0.2-2.3,0.2H154.6z M162.2,27.8c2.5,0,4,0.1,4.4,0.1l0.4,0 c-0.3-1.1-0.7-2.3-1.3-3.7c-0.5-1.4-0.9-2.5-1.3-3.2L162.2,27.8z"></path> <path style="clip-path:url(#SVGID_00000077302606055850693400000013068992479777284022_);" d="M25.6,47.2c0.1,0.4,0.4,1.4,0.9,3.1 c0.2,0.8,0.3,1.6,0.3,2.4h-1.5c-1-1.6-2.1-2.8-3.2-3.5c-1.1-0.7-2.3-1.1-3.7-1.1c-1.7,0-3,0.7-4,2.2c-1.4,2-2.1,4.7-2.1,8.2 c0,2,0.1,3.5,0.4,4.3c0.4,1.4,0.9,2.5,1.5,3.4c0.5,0.7,1,1.2,1.8,1.6c0.9,0.5,1.9,0.8,3,0.8c1.2,0,2.3-0.4,3.4-1.2 c1.1-0.8,2.2-2,3.2-3.6c0.4-0.1,0.9-0.1,1.6-0.1c0,0.5-0.1,0.9-0.2,1.4c0,0.2-0.2,0.9-0.4,2.3l-0.1,0.5l-0.2,0.8 c-0.7,0.6-1.6,1-2.8,1.3c-1.2,0.3-2.6,0.4-4.4,0.4c-1.3,0-2.6-0.1-3.7-0.4c-1.2-0.3-2.2-0.7-3-1.3c-1.2-0.9-2.2-1.8-2.9-2.8 c-0.7-1-1.2-2.1-1.5-3.3c-0.3-1.2-0.5-2.5-0.5-4c0-3.5,1.1-6.5,3.2-8.8c2.1-2.3,4.8-3.5,8.1-3.5c1.3,0,2.6,0.1,3.8,0.2 C23.5,46.7,24.6,46.9,25.6,47.2"></path> <path style="clip-path:url(#SVGID_00000077302606055850693400000013068992479777284022_);" d="M26.8,70l0-1.2 c0.2-0.1,0.6-0.2,1.1-0.3c0.8-0.2,1.3-0.3,1.5-0.5c0.2-0.1,0.4-0.5,0.7-1l3.2-9.4l3.8-11.1h1h0.7l0.1,0.3l2.8,7.4 c0.6,1.6,1.2,3.1,1.7,4.5c0.5,1.5,0.9,2.7,1.3,3.6c0.2,0.6,0.5,1.4,0.9,2.5c0.2,0.6,0.5,1.4,0.9,2.3c0.2,0.5,0.4,0.8,0.5,0.9 c0.2,0.2,0.5,0.3,0.9,0.4c0.4,0.1,0.9,0.2,1.4,0.4c0.1,0.4,0.1,0.7,0.1,0.9c0,0.1,0,0.2,0,0.4c-0.8,0-1.7,0-2.6-0.1 c-1-0.1-1.8-0.1-2.6-0.1c-0.8,0-1.5,0-1.8,0l-2.7,0.2l-0.8,0c0-0.4,0-0.8,0-1.2l1.8-0.4c0.5-0.2,0.8-0.3,0.9-0.4 c0.1-0.1,0.2-0.3,0.2-0.4c0-0.2,0-0.3-0.1-0.5l-0.6-1.8l-1.3-3.5l-6.1,0c-0.2,0.6-0.7,2-1.4,4.2c-0.2,0.6-0.3,1.1-0.3,1.3 c0,0.3,0.1,0.5,0.2,0.7c0.2,0.2,0.7,0.4,1.4,0.5c0.1,0,0.5,0.1,1.1,0.2c0,0.4,0,0.7,0,0.9c0,0.1,0,0.3,0,0.4 c-0.7,0-2.3-0.1-4.8-0.3l-0.7,0.1C28.5,69.9,27.8,70,27,70H26.8z M34.3,59.9c2.5,0,4,0.1,4.4,0.1l0.4,0c-0.3-1.1-0.7-2.3-1.3-3.7 c-0.5-1.4-0.9-2.5-1.3-3.2L34.3,59.9z"></path> <path style="clip-path:url(#SVGID_00000077302606055850693400000013068992479777284022_);" d="M49.8,68.9c0.3-0.2,0.7-0.3,1.2-0.4 c0.5-0.1,1-0.2,1.5-0.4c0.1-0.2,0.1-0.4,0.1-0.5c0-0.2,0-0.7,0-1.7l0-4l0.1-2.1l0-1.7l0-1c0-1.3,0-2.5,0-3.6c0-2.5,0-4.1-0.1-4.8 l-0.9-0.2c-0.9-0.1-1.4-0.1-1.7-0.2l0-1.1l0.1-0.2c0.5-0.1,1-0.1,1.5-0.1c0.2,0,0.7,0,1.5,0c0.8,0.1,1.2,0.1,1.3,0.1l0.9-0.1l2-0.1 c1.3-0.1,2.6-0.2,4-0.2c2.2,0,3.9,0.6,5.2,1.9c1.3,1.2,1.9,2.7,1.9,4.3c0,1.2-0.4,2.3-1,3.3c-0.7,1-1.8,1.7-3.2,2.2 c0.1,0.2,0.3,0.5,0.5,0.9c0.4,0.7,0.8,1.3,1.1,1.8l2.6,4.6c0.6,1.2,1.1,1.9,1.3,2.2c0.2,0.2,0.6,0.4,1.2,0.7 c0.5,0.2,0.9,0.4,1.1,0.6c0.1,0.2,0.1,0.4,0.1,0.5c0,0.1,0,0.2,0,0.4h-0.4l-0.3,0l-0.8-0.1h-0.7c-0.3-0.1-0.8-0.1-1.3-0.1l-1.6,0 c-0.1,0-0.5,0-1.1,0.1c-0.3,0-0.5,0.1-0.7,0.1l-0.5-1.2c-0.4-0.9-0.8-1.6-0.9-2c-0.5-1.2-1.3-3-2.4-5.5c-0.5-1.2-0.9-1.8-1.1-2 C59.5,59.1,59,59,58.2,59c-0.2,0-0.6,0-1.1,0c0,0.3,0,0.8,0,1.2l0.1,4L57,67.6c0.3,0.2,0.7,0.4,1.2,0.5c0.8,0.2,1.6,0.4,2.2,0.7 c0,0.6,0,1-0.1,1.3c-0.2,0-0.3,0-0.4,0l-0.7,0c-2.3-0.2-3.7-0.3-4.1-0.3c-0.3,0-0.5,0-0.6,0l-2.2,0.2C51.7,70,51,70,50.5,70h-0.7 c0-0.3,0-0.5,0-0.6C49.8,69.3,49.8,69.1,49.8,68.9 M57.1,57.3c0.5,0,0.9,0,1.1,0c1.8,0,3.1-0.4,3.9-1.1c0.8-0.7,1.1-1.7,1.1-2.9 c0-0.8-0.1-1.5-0.3-2.1c-0.2-0.7-0.4-1.2-0.7-1.5c-0.4-0.5-0.9-0.8-1.6-1.1c-0.5-0.2-1.2-0.3-2.3-0.3c-0.5,0-0.9,0-1.3,0.1l0,0.3 l0,2.4l0,1.5l0,1.9c0,0.5,0,1.3,0,2.1V57.3z"></path> <path style="clip-path:url(#SVGID_00000077302606055850693400000013068992479777284022_);" d="M71.9,68.5c0.2,0,0.5-0.1,1-0.2 c1-0.2,1.6-0.4,2-0.8c0.2-0.2,0.3-0.6,0.4-1.2c0-0.1,0-2,0.1-5.4l0-2l0-2.4l0-6.1v-0.7c0-0.3-0.1-0.5-0.2-0.7 c-0.1-0.1-0.3-0.1-0.6-0.1c-0.3,0-0.6,0-1,0.1c-0.5,0-0.9,0.1-1.3,0.1c-0.1,0-0.2,0-0.3,0.1l0-1.6c0.6-0.2,1.5-0.4,2.7-0.7 c1.9-0.4,4.4-0.5,7.2-0.5c2.4,0,4.1,0.1,5.2,0.4c1.7,0.5,3,1.2,4.1,2.1c1.4,1.2,2.5,2.6,3.2,4.3c0.7,1.6,1.1,3.4,1.1,5.3 c0,2.4-0.5,4.5-1.4,6.2c-0.9,1.7-2.3,3.1-4.1,4.1c-1.2,0.7-2.9,1.1-5.1,1.1l-3.3-0.1l-1,0l-1.3,0l-0.4,0l-1.4,0l-1.8,0 c-0.1,0-0.6,0-1.6,0.1c-0.3,0-0.8,0-1.4,0c-0.3,0-0.6,0-0.8,0C72,69.7,71.9,69.2,71.9,68.5 M79.7,48.6c0,0.4,0,0.6,0,0.8l0,3v2.6 c0,0.9,0,1.6,0,2.2l0,1.7l0,2.8l0,1.7c0,1.6,0.3,2.7,0.8,3.3c0.8,0.8,1.9,1.2,3.3,1.2c1.1,0,1.8-0.1,2.3-0.3c1-0.5,1.9-1.1,2.5-1.8 s1.1-1.8,1.4-3.2c0.3-1.4,0.5-2.8,0.5-4.3c0-2.4-0.3-4.4-1-5.9c-0.7-1.5-1.6-2.7-2.8-3.4c-1.2-0.8-2.6-1.2-4.1-1.2 C81.5,48.1,80.5,48.3,79.7,48.6"></path> <path style="clip-path:url(#SVGID_00000077302606055850693400000013068992479777284022_);" d="M97.8,70v-1.3 c0.2-0.1,0.6-0.2,1.1-0.3c0.7-0.2,1.2-0.4,1.6-0.6c0.2-0.4,0.3-0.9,0.3-1.5l0-2.1l0-4.1l0-1c0.1-2.4,0.1-3.6,0.1-3.6l0-2.4l0-1 l-0.1-2l0-0.8c0-0.1,0-0.3-0.1-0.6c-0.4-0.2-1.2-0.4-2.1-0.4c-0.2,0-0.4,0-0.6-0.1l0-1.6l4.6,0.2c0.6,0,0.9,0,1.1,0 c0.6,0,1.6,0,3-0.1c0.8-0.1,1.3-0.1,1.5-0.1c0,0.2,0,0.4,0,0.6c0,0.2,0,0.5,0,0.8c-0.4,0.2-0.9,0.3-1.5,0.5c-0.6,0.1-1,0.3-1.4,0.5 c-0.1,0.3-0.1,0.8-0.1,1.3c0,0.5,0,0.9,0,1.2c0,2,0,3.6,0,4.6l0,4.7l-0.1,2.4l0.1,3.6l0,0.7c0,0.1,0,0.2,0.1,0.4 c0.6,0.2,1.2,0.3,1.8,0.3c0.1,0,0.4,0.1,1,0.1c0,0.4,0.1,0.7,0.1,0.9c0,0.1,0,0.3,0,0.6c-0.1,0-0.2,0-0.3,0c-0.3,0-0.5,0-0.6,0 c-0.1,0-0.2,0-0.4-0.1c-0.1,0-0.9-0.1-2.1-0.3l-2.8,0c-0.6,0-1.4,0.1-2.5,0.2C98.5,69.9,98.1,70,97.8,70"></path> <path style="clip-path:url(#SVGID_00000077302606055850693400000013068992479777284022_);" d="M110.7,58.1c0-1.5,0.3-3,0.8-4.4 c0.4-1.1,0.9-2.1,1.6-2.9c0.7-0.9,1.5-1.7,2.5-2.4c1-0.7,2.1-1.2,3.1-1.5c1.1-0.3,2.2-0.5,3.6-0.5c2.2,0,4.2,0.5,5.8,1.4 c1.6,0.9,2.9,2.2,3.9,3.8c1.2,2.1,1.8,4.2,1.8,6.5c0,3.4-1,6.3-3.1,8.7c-2.1,2.4-4.9,3.6-8.6,3.6c-0.9,0-1.8-0.1-2.6-0.2 c-0.6-0.1-1.1-0.2-1.6-0.4c-0.8-0.3-1.3-0.5-1.4-0.5c-1.2-0.7-2.1-1.5-2.8-2.3c-0.7-0.8-1.3-1.7-1.8-2.6c-0.3-0.5-0.6-1.5-0.9-3 C110.8,60.4,110.7,59.3,110.7,58.1 M121.6,48.2c-0.9,0-1.8,0.2-2.5,0.7c-0.7,0.5-1.3,1-1.6,1.6c-0.6,1-1,2.1-1.3,3.2 c-0.3,1.2-0.4,2.6-0.4,4.3c0,1,0,1.8,0.1,2.2c0,0.1,0.1,0.4,0.1,0.7c0.1,0.9,0.2,1.5,0.3,1.9c0.5,1.5,0.8,2.4,1,2.8 c0.3,0.6,0.8,1.2,1.4,1.8c0.3,0.3,0.8,0.6,1.4,0.8c0.6,0.3,1.2,0.4,1.8,0.4c1.2,0,2.2-0.3,3.2-0.9c1-0.6,1.8-1.6,2.4-3.1 c0.6-1.4,0.9-3.3,0.9-5.6c0-1-0.1-2.2-0.2-3.9l-0.1-0.3c0-0.1-0.1-0.3-0.2-0.7c-0.4-2-1.2-3.4-2.3-4.5 C124.7,48.7,123.3,48.2,121.6,48.2"></path> <path style="clip-path:url(#SVGID_00000077302606055850693400000013068992479777284022_);" d="M135.7,68.5c0.3-0.1,0.8-0.2,1.4-0.3 c0.6-0.1,1-0.1,1.1-0.1c0.4,0,0.7-0.1,0.8-0.2c0.1-0.3,0.1-0.5,0.1-0.7l0-2.3l0.1-2.3V61l0-1.8l0-1.9l0.1-4l0-1.8v-0.3 c-0.1-1.3-0.1-1.9-0.2-2.1c-0.1-0.1-0.4-0.3-0.9-0.5c-0.1,0-0.3-0.1-0.6-0.3c-0.3-0.1-0.5-0.2-0.7-0.2c-0.4-0.1-0.6-0.2-0.8-0.4 c0-0.3,0-0.5,0-0.7c0-0.1,0-0.2,0-0.4c0.1-0.1,0.2-0.1,0.3-0.1c0.3,0,1.2,0,2.8,0.1l2.3,0l1.7,0c0.7,0,1.7-0.1,2.8-0.1 c0.3,0,0.5,0,0.6,0c0.2,0,0.3,0,0.3,0.1c0.1,0.1,0.1,0.4,0.1,0.7c0,0.3-0.1,0.5-0.2,0.6c-0.1,0.1-0.3,0.2-0.7,0.2l-2,0.5 c-0.1,0-0.1,0.1-0.3,0.1c0,0.1-0.1,0.2-0.1,0.2l0,0.5l0,1.1v0.3v0.2c0,0.1,0,0.4,0,1c0,0.2,0,0.3,0,0.5c0,0.2,0,0.5,0,1 c0,0.7,0,1.3,0,1.9c0,0.6,0,1.3,0,2.1c0,0.3,0,0.7,0,1.2l-0.1,8.5c0,0.4,0.1,0.6,0.2,0.7l1.5,0.1l0.9,0l1,0c1.7,0,3.1-0.2,4.1-0.7 c0.7-0.3,1.2-0.7,1.4-1c0.4-0.4,0.7-0.7,0.9-1.2c0.2-0.4,0.5-1.1,0.8-2.1h0.5c0.3,0,0.5,0,0.9,0.1v0.5c0,0.9-0.1,2.4-0.3,4.5 c-0.1,0.9-0.2,1.4-0.2,1.6c-0.2,0-0.4,0.1-0.5,0.1h-0.6l-0.8,0c-0.1,0-0.7,0-1.9-0.1c-0.2,0-1.2-0.1-3.1-0.1 c-1.8-0.1-3.6-0.1-5.4-0.1l-3.3,0.1c-1.3,0-2.4,0.1-3.6,0.2H136c-0.1,0-0.2,0-0.3,0c0-0.1,0-0.2,0-0.3 C135.6,69.1,135.7,68.7,135.7,68.5"></path> <path style="clip-path:url(#SVGID_00000077302606055850693400000013068992479777284022_);" d="M157,58.1c0-1.5,0.3-3,0.8-4.4 c0.4-1.1,0.9-2.1,1.6-2.9c0.7-0.9,1.5-1.7,2.5-2.4c1-0.7,2.1-1.2,3.1-1.5c1.1-0.3,2.2-0.5,3.6-0.5c2.2,0,4.2,0.5,5.8,1.4 c1.6,0.9,2.9,2.2,3.9,3.8c1.2,2.1,1.8,4.2,1.8,6.5c0,3.4-1,6.3-3.1,8.7c-2.1,2.4-4.9,3.6-8.6,3.6c-0.9,0-1.8-0.1-2.6-0.2 c-0.6-0.1-1.1-0.2-1.6-0.4c-0.8-0.3-1.3-0.5-1.4-0.5c-1.2-0.7-2.1-1.5-2.8-2.3c-0.7-0.8-1.3-1.7-1.8-2.6c-0.3-0.5-0.6-1.5-0.9-3 C157.1,60.4,157,59.3,157,58.1 M168,48.2c-0.9,0-1.8,0.2-2.5,0.7c-0.7,0.5-1.3,1-1.6,1.6c-0.6,1-1,2.1-1.3,3.2 c-0.3,1.2-0.4,2.6-0.4,4.3c0,1,0,1.8,0.1,2.2c0,0.1,0.1,0.4,0.1,0.7c0.1,0.9,0.2,1.5,0.3,1.9c0.5,1.5,0.8,2.4,1,2.8 c0.3,0.6,0.8,1.2,1.4,1.8c0.3,0.3,0.8,0.6,1.4,0.8c0.6,0.3,1.2,0.4,1.8,0.4c1.2,0,2.2-0.3,3.2-0.9c1-0.6,1.8-1.6,2.4-3.1 c0.6-1.4,0.9-3.3,0.9-5.6c0-1-0.1-2.2-0.2-3.9l-0.1-0.3c0-0.1-0.1-0.3-0.2-0.7c-0.4-2-1.2-3.4-2.3-4.5 C171.1,48.7,169.7,48.2,168,48.2"></path> <path style="clip-path:url(#SVGID_00000077302606055850693400000013068992479777284022_);" d="M202.1,48.4c0.1,0.3,0.2,1,0.3,2 c0.1,1,0.1,1.8,0.1,2.2c0,0.2,0,0.4-0.1,0.7c-0.5,0-0.9-0.1-1.2-0.1c-0.8-1.4-1.4-2.3-1.7-2.6c-0.6-0.7-1.4-1.2-2.4-1.7 c-0.7-0.3-1.5-0.5-2.5-0.5c-1.8,0-3.4,0.9-4.7,2.7c-1.4,1.8-2,4.4-2,8c0,1.7,0.3,3.3,0.8,4.8c0.5,1.6,1.3,2.8,2.4,3.7 c1.1,0.9,2.3,1.3,3.7,1.3c0.7,0,1.4-0.1,2.2-0.3c0.4-0.1,0.7-0.3,1-0.6c0.2-0.2,0.3-0.5,0.3-0.9c0.1-0.7,0.1-1.7,0.1-2.9 c0-1.2,0-2.1,0-2.5c-0.1-0.2-0.1-0.3-0.2-0.3c-0.1-0.1-0.3-0.1-0.7-0.3l-1.4-0.4c-0.3-0.1-0.5-0.2-0.6-0.3c0-0.2,0-0.3,0-0.3 c0-0.2,0-0.4,0.1-0.7c0.2-0.1,0.3-0.1,0.4-0.1c1.2,0,2.2,0,3,0.1c0.3,0,0.6,0,1,0l2.5,0l1.1,0c0.1,0,0.5,0,1.1,0c0,0.3,0,0.6,0,0.8 c0,0.1,0,0.3-0.1,0.4c-0.2,0.1-0.5,0.3-0.9,0.5c-0.4,0.2-0.7,0.3-0.7,0.4c-0.1,0.1-0.1,0.2-0.2,0.4c0,0.2,0,0.9,0,2.1 c0,1.4,0,2.2,0,2.5c0,0.9-0.1,1.4-0.1,1.5c0,0.4-0.1,0.7-0.2,0.8c-0.3,0.3-1.2,0.7-2.8,1.1c-1.6,0.4-3.4,0.6-5.4,0.6 c-1.4,0-2.7-0.1-3.8-0.4c-1.1-0.3-2-0.6-2.7-1.1c-1-0.7-1.9-1.5-2.6-2.4c-0.7-1-1.3-2-1.6-3.1c-0.5-1.6-0.7-3.1-0.7-4.7 c0-1.8,0.4-3.5,1.1-5.3c0.5-1.3,1.3-2.5,2.3-3.5c1-1,2.2-1.9,3.6-2.5c1.5-0.6,3-0.9,4.8-0.9c0.2,0,0.6,0,1,0.1 c1.3,0,2.5,0.2,3.7,0.5C200.4,47.4,201.4,47.9,202.1,48.4"></path> <path style="clip-path:url(#SVGID_00000077302606055850693400000013068992479777284022_);" d="M204.4,47c0.3-0.1,1-0.1,2-0.1l0.2,0 c0.3,0,0.5,0.1,0.6,0.1l0.2,0c0.2,0,0.6,0.1,1.3,0.1c1.3,0.1,2.4,0.2,3.2,0.2c0.9,0,1.7-0.1,2.5-0.2c0.1,0,0.2,0,0.3,0l0.1,0 c0.1,0.2,0.1,0.3,0.1,0.4l0,0.9c-0.2,0.1-0.5,0.2-0.9,0.2l-0.7,0.1c-0.3,0.1-0.6,0.1-1.1,0.2l-0.1,0.1l0,0.2 c0.4,0.8,1.1,2.2,2.3,3.9c0.3,0.6,0.6,1.1,0.9,1.6c0.1,0.1,0.4,0.7,0.9,1.7c0.1,0.1,0.1,0.2,0.2,0.3c0.1,0.2,0.2,0.3,0.3,0.5 c0.2,0.3,0.3,0.5,0.4,0.6c0.2,0.4,0.4,0.7,0.5,0.9l1.7-2.6c0.5-0.8,1.3-1.9,2.1-3.4l0.1-0.1l1.4-2.7c0.2-0.3,0.3-0.6,0.3-0.8 c0-0.1,0-0.2,0-0.3c-0.2-0.1-0.3-0.2-0.4-0.2c0,0-0.3,0-0.7-0.1c-0.2,0-0.4-0.1-0.6-0.1c-0.2,0-0.4-0.1-0.5-0.1 c0-0.2-0.1-0.6-0.1-1.3l3.3,0.2c0.1,0,0.2,0,0.4,0.1h0.8l0.3,0c0.3-0.1,0.8-0.1,1.3-0.1c0.2,0,0.3,0,0.5-0.1l0,1.3l-0.2,0.1 c-0.9,0.2-1.5,0.4-1.8,0.7c-0.5,0.4-1.1,1.4-1.9,2.9l-2.1,3.5c-1.3,1.9-2.1,3.2-2.4,3.9c-0.1,0.2-0.2,0.4-0.2,0.6v0.6l0,1.6v0.4 c0,0.3,0,0.6,0,1l0.1,4.6c0,0.1,0.1,0.2,0.2,0.2c0.1,0,0.5,0.1,1,0.2c1,0.1,1.6,0.2,1.7,0.3c0.1,0.1,0.1,0.2,0.1,0.4 c0,0.1,0,0.3,0,0.4c0,0.1,0,0.3,0,0.5l-1.8,0l-1.7-0.2l-1.2-0.1l-1.8,0.1h-1.3c-0.1,0-0.4,0-0.7,0.1c-0.5,0.1-0.9,0.1-1.2,0.1 l-1.1,0c0-0.2,0-0.4,0-0.6c0-0.1,0-0.3,0-0.6l3-0.7c0.1,0,0.3-0.1,0.4-0.2c0-0.5,0-0.9,0-1c0-1.8,0-3.1,0-3.7c0-0.7,0-1,0-1.2v-0.4 c0-0.8-0.4-1.6-1.1-2.6c-0.3-0.4-0.5-0.7-0.6-0.8l-3.2-5.3l-1.5-2.6c-0.1-0.1-0.4-0.6-1-1.5c-0.2-0.2-0.4-0.3-0.6-0.4 c-0.1,0-0.6-0.2-1.5-0.4c-0.1-0.1-0.1-0.2-0.1-0.3c0-0.1,0-0.2,0-0.3C204.4,47.4,204.4,47.2,204.4,47"></path> <path style="clip-path:url(#SVGID_00000077302606055850693400000013068992479777284022_);fill:#F3CFC1;" d="M210.5,42.2 c0,0,17.3-13.4,17.3-27.4c0-1.9-2.2-8.5-8.5-8.5c-6.3,0-8.9,6.2-8.9,6.2s-2.6-6.2-8.9-6.2c-6.3,0-8.5,6.6-8.5,8.5 C193.2,28.8,210.5,42.2,210.5,42.2"></path> <path style="clip-path:url(#SVGID_00000077302606055850693400000013068992479777284022_);fill:#E18067;" d="M199.9,42.2 c0,0,17.3-13.4,17.3-27.4c0-1.9-2.2-8.5-8.5-8.5c-6.3,0-8.9,6.2-8.9,6.2s-2.6-6.2-8.9-6.2c-6.3,0-8.5,6.6-8.5,8.5 C182.5,28.8,199.9,42.2,199.9,42.2"></path> <path style="clip-path:url(#SVGID_00000077302606055850693400000013068992479777284022_);fill:#D2232A;" d="M189.2,42.2 c0,0,17.3-13.4,17.3-27.4c0-1.9-2.2-8.5-8.5-8.5c-6.3,0-8.9,6.2-8.9,6.2s-2.6-6.2-8.9-6.2c-6.3,0-8.5,6.6-8.5,8.5 C171.9,28.8,189.2,42.2,189.2,42.2"></path> </g> </svg> 