<?xml version="1.0" encoding="UTF-8"?>
<svg width="380px" height="150px" viewBox="0 0 380 150" version="1.1" xmlns="http://www.w3.org/2000/svg" xmlns:xlink="http://www.w3.org/1999/xlink">
    <!-- Generator: Sketch 61 (89581) - https://sketch.com -->
    <title>Eastern-Carolina-ENT-logo-1</title>
    <desc>Created with Sketch.</desc>
    <g id="Final" stroke="none" stroke-width="1" fill="none" fill-rule="evenodd">
        <g id="ECarolina_Home_D" transform="translate(-370.000000, -16.000000)">
            <g id="Eastern-Carolina-ENT-logo-1" transform="translate(370.000000, 16.000000)">
                <path d="M299.391288,109.896373 C299.391288,111.683938 299.780209,112.150259 300.402482,112.150259 C300.794762,112.102814 301.141184,111.872056 301.335892,111.528497 L301.335892,107.176166 C299.857993,107.875648 299.391288,108.65285 299.391288,109.896373 Z" id="Path"></path>
                <path d="M141.878334,109.896373 C141.878334,111.683938 142.189471,112.150259 142.811744,112.150259 C143.22822,112.114356 143.60318,111.883802 143.822939,111.528497 L143.822939,107.176166 C142.267255,107.875648 141.878334,108.65285 141.878334,109.896373 Z" id="Path"></path>
                <path d="M250.231689,131.502591 C248.987143,131.502591 248.676006,133.056995 248.676006,135.621762 L251.709589,135.621762 C251.709589,133.056995 251.476236,131.502591 250.231689,131.502591 Z" id="Path"></path>
                <path d="M162.646709,131.502591 C161.402162,131.502591 161.091025,133.056995 161.091025,135.621762 L164.124608,135.621762 C164.124608,133.056995 163.891256,131.502591 162.646709,131.502591 Z" id="Path"></path>
                <path d="M205.583573,134.067358 C205.429107,134.756189 205.350854,135.459893 205.350221,136.165803 C205.350221,139.507772 206.905904,142.227979 209.472782,142.227979 C210.410754,142.223886 211.318145,141.894197 212.03966,141.295337 C210.121393,138.687307 207.959667,136.267124 205.583573,134.067358 Z" id="Path"></path>
                <path d="M210.095055,131.735751 C210.769162,130.961525 211.129762,129.963762 211.10625,128.937824 C211.10625,126.683938 210.328408,125.362694 208.850509,125.362694 C207.372609,125.362694 207.217041,126.139896 207.217041,127.46114 C207.217041,128.782383 208.150451,130.103627 210.095055,131.735751 Z" id="Path"></path>
                <polygon id="Path" points="1.40011514 91.9430052 1.40011514 91.9430052 1.40011514 94.7409326 1.40011514 94.7409326"></polygon>
                <path d="M173.769846,139.585492 C173.769846,141.295337 174.080983,141.761658 174.703256,141.761658 C175.084754,141.74388 175.433394,141.540674 175.636666,141.217617 L175.636666,136.943005 C174.158767,137.564767 173.769846,138.341969 173.769846,139.585492 Z" id="Path"></path>
                <path d="M188.93776,131.34715 C187.770997,131.34715 186.993156,132.124352 186.993156,136.398964 C186.993156,140.673575 188.082134,141.683938 189.326681,141.761658 C189.825801,141.781844 190.308832,141.583113 190.649012,141.217617 L190.649012,134.455959 C190.649012,132.202073 189.948954,131.34715 188.93776,131.34715 Z" id="Path"></path>
                <path d="M233.196955,109.896373 C233.196955,111.683938 233.585876,112.150259 234.208149,112.150259 C234.624625,112.114356 234.999585,111.883802 235.219344,111.528497 L235.219344,107.176166 C233.66366,107.875648 233.196955,108.65285 233.196955,109.896373 Z" id="Path"></path>
                <path d="M174.78104,101.735751 C173.536493,101.735751 173.225357,103.290155 173.225357,105.932642 L176.336724,105.932642 C176.336724,103.290155 176.103371,101.735751 174.78104,101.735751 Z" id="Path"></path>
                <path d="M258.010107,113.160622 C259.099085,113.160622 259.799143,112.46114 259.799143,107.409326 C259.799143,102.357513 259.099085,101.735751 258.010107,101.735751 C256.921128,101.735751 256.298855,102.435233 256.298855,107.409326 C256.298855,112.38342 256.998913,113.160622 258.010107,113.160622 Z" id="Path"></path>
                <path d="M336.805476,138.73057 C337.583317,138.73057 338.050022,138.186528 338.050022,135.07772 C338.050022,131.968912 337.583317,131.34715 336.805476,131.34715 C336.027634,131.34715 335.560929,131.891192 335.560929,135.07772 C335.560929,138.264249 336.027634,138.73057 336.805476,138.73057 Z" id="Path"></path>
                <path d="M349.328728,131.502591 C348.084181,131.502591 347.850828,133.056995 347.850828,135.621762 L350.884411,135.621762 C350.884411,133.056995 350.573274,131.502591 349.328728,131.502591 Z" id="Path"></path>
                <path d="M333.305188,144.715026 C332.838483,144.715026 332.371778,145.181347 332.371778,146.34715 C332.371778,147.512953 334.005245,148.678756 336.416555,148.678756 C338.827864,148.678756 340.850253,147.823834 340.850253,146.502591 C340.850253,145.181347 338.438943,145.336788 333.305188,144.715026 Z" id="Path"></path>
                <path d="M79.806563,97.3056995 L79.806563,45 C79.7287789,15.8549223 62.7718288,1.39896373 40.9144758,1.39896373 C19.0571228,1.39896373 1.40011514,15.8549223 1.40011514,45 L1.40011514,94.7409326 L1.40011514,94.7409326 L1.40011514,141.839378 L79.806563,141.839378 L79.806563,127.305699 C77.3174695,123.73057 75.9173543,119.067358 75.9173543,113.471503 C75.9329963,107.853432 77.2649493,102.317064 79.806563,97.3056995 Z M61.1383612,53.4715026 C61.6828504,52.5388601 62.3051238,50.8290155 63.0051813,50.8290155 C63.7052389,50.8290155 63.7830231,51.6062176 63.7830231,52.5388601 C63.7830231,53.4715026 63.0051813,53.7823834 63.0051813,54.1709845 C63.0051813,54.5595855 63.3941022,55.0259067 65.1831382,55.0259067 C65.3139048,54.9956169 65.4510604,55.0348461 65.5459785,55.1296861 C65.6408966,55.2245261 65.680158,55.3615689 65.6498433,55.492228 C65.6498433,56.2694301 64.171944,55.8031088 63.3941022,56.1917098 C62.6162605,56.5803109 62.4606921,57.6683938 61.1383612,57.6683938 C60.7875071,57.689624 60.4426306,57.5704059 60.1799186,57.3370762 C59.9172066,57.1037464 59.7582795,56.7755073 59.738246,56.4248705 C59.738246,55.880829 60.2049511,55.0259067 61.1383612,53.4715026 L61.1383612,53.4715026 Z M62.5384763,46.7875648 C62.9762957,44.7837259 64.1397958,43.0122315 65.8054116,41.8134715 C65.8054116,41.8134715 68.0611527,39.8704663 70.0835412,39.8704663 C72.1059298,39.8704663 72.9615557,40.2590674 72.9615557,41.5025907 C72.9615557,42.746114 72.7282032,41.4248705 72.2614981,41.4248705 C71.7947931,41.4248705 70.9391671,40.7253886 70.1613254,40.9585492 C69.3834837,41.1917098 67.5166635,41.7357513 67.1277426,41.8911917 C66.7388217,42.0466321 65.1831382,43.4455959 63.9385914,45.388601 C62.6940446,47.3316062 63.1607497,47.0984456 62.849613,47.253886 C62.5384763,47.4093264 62.5384763,46.7875648 62.5384763,46.7875648 L62.5384763,46.7875648 Z M10.8897844,30 C11.2101078,28.8729823 11.8280589,27.8528592 12.6788204,27.0466321 C15.5568349,17.1761658 24.8131517,11.4248705 33.8361159,8.93782383 L33.9916843,8.78238342 L34.5361735,8.78238342 L34.5361735,8.47150259 L34.769526,8.47150259 L34.769526,10.3367876 C34.8314372,11.4343274 34.7265341,12.5349045 34.4583893,13.6010363 C33.5249792,16.865285 30.5691806,19.507772 24.0353099,22.3834197 C21.7017847,23.4715026 16.8013817,25.9585492 15.167914,27.0466321 C14.0771126,27.7442211 13.2124284,28.74319 12.6788204,29.9222798 C12.544402,30.2411049 12.4909603,30.5881907 12.5232521,30.9326425 C12.5232521,33.6528497 16.0235399,37.4611399 16.0235399,37.9274611 C16.0186285,37.9873542 15.9907628,38.0430398 15.9457558,38.0829016 L15.7124032,38.0829016 C14.5870247,37.3723036 13.5880683,36.4792355 12.7566046,35.4404145 C12.3676837,34.7409326 10.8120003,33.8082902 10.8120003,30.8549223 C10.8120003,30.6217617 10.8897844,30.3108808 10.8897844,30 Z M21.7017847,38.9378238 C21.7017847,39.015544 21.7017847,39.015544 21.6240005,39.1709845 C21.5876703,39.3118756 21.4584031,39.4087463 21.3128638,39.4041451 L21.3128638,39.4041451 C20.9239429,39.3264249 20.9239429,39.1709845 20.7683746,39.015544 L20.3016695,38.4715026 C19.8401672,37.9225449 19.3183249,37.4272024 18.7459861,36.9948187 C18.2175035,36.6015413 17.6052417,36.3355595 16.95695,36.2176166 C16.4167912,36.2370761 15.9339724,35.8833001 15.7901874,35.3626943 C15.7120413,35.1899032 15.6596296,35.0066131 15.6346191,34.8186528 C15.6588975,34.1124276 16.0804986,33.4805461 16.7235975,33.1865285 L17.0347342,33.1865285 C18.2014968,33.2642487 20.8461588,34.8963731 21.6240005,38.5492228 C21.6240005,38.626943 21.7017847,38.7823834 21.7017847,38.9378238 Z M7.3117124,51.9170984 C7.77841745,49.1968912 9.33410094,48.9637306 9.80080599,48.6528497 C9.95395595,48.5867327 10.0478425,48.4303838 10.0341585,48.2642487 C10.0329032,47.5876397 10.0849198,46.9119804 10.1897269,46.2435233 L10.1897269,45.6994819 C10.2064698,45.1613421 10.3975352,44.6431627 10.7342161,44.2227979 C11.2968993,43.5805167 12.1425096,43.2600318 12.9899571,43.3678756 L14.1567198,43.3678756 C14.9345615,43.3678756 16.7235975,43.7564767 19.3682595,47.4093264 C20.3016695,48.8082902 20.6128062,49.5854922 22.1684897,52.1502591 C22.3396449,52.4845209 22.6117946,52.7564467 22.9463315,52.9274611 C23.3027911,53.0051789 23.5397468,53.3434088 23.4908207,53.7046632 C23.4928287,53.9287882 23.3739547,54.1366467 23.179684,54.2487047 L20.7683746,54.2487047 C19.601612,54.1709845 18.3570652,52.9274611 16.8791659,51.8393782 C15.4012666,50.7512953 13.9233672,49.5854922 12.6010363,49.6632124 C11.6832807,49.6346931 10.7662408,49.7394114 9.87859016,49.9740933 C9.43294728,50.1335818 9.1066208,50.5189232 9.02296424,50.984456 L8.71182754,52.2279793 L8.71182754,52.6943005 C9.25631677,52.6943005 9.72302181,52.3056995 10.1897269,52.3056995 L13.0677413,52.3056995 C13.5344464,52.3834197 14.0789356,52.4611399 14.3122881,53.0051813 L14.3122881,53.3937824 L14.0011514,53.3937824 L10.5008636,53.626943 C9.70651998,53.6839315 8.92251525,53.8406035 8.16733832,54.0932642 L8.08955415,54.0932642 C7.74411788,54.0854793 7.43726968,53.8708622 7.3117124,53.5492228 C7.10249926,52.9984422 7.10249926,52.3901588 7.3117124,51.8393782 L7.3117124,51.9170984 Z M45.6593104,135.932642 C45.5815263,136.088083 45.5037421,136.088083 45.3481737,136.088083 L45.3481737,136.088083 L44.9592529,135.932642 L7.70063328,135.932642 L7.70063328,75.8549223 C4.82261882,74.3782383 2.80023028,72.357513 2.80023028,68.9378238 L2.80023028,68.238342 C3.11136698,64.9740933 6.61165483,62.0984456 8.2451225,59.9222798 C8.59709034,59.3095728 8.75949256,58.6064085 8.71182754,57.9015544 C8.71182754,57.1243523 8.63404337,56.4248705 8.63404337,56.0362694 L8.63404337,55.880829 C8.63404337,55.8031088 8.71182754,55.6476684 8.94518007,55.5699482 C9.17853259,55.492228 9.17853259,55.8031088 9.25631677,55.880829 L9.48966929,56.4248705 C9.66122099,56.9245612 9.74029436,57.4512835 9.72302181,57.9792746 C9.75795309,58.8856457 9.51359524,59.7808877 9.02296424,60.5440415 C7.3117124,63.1088083 4.35591377,65.2072539 4.35591377,68.5492228 L4.35591377,68.5492228 C4.43369795,70.3367876 5.52267639,71.4248705 6.61165483,72.5129534 C10.7342161,76.7098446 21.390648,74.611399 26.9911086,84.3264249 C29.3246338,88.2901554 31.4248065,94.8186528 31.5803748,95.2072539 C31.7359432,95.5958549 35.3917994,109.352332 38.0364613,118.056995 C41.8478859,130.647668 45.6593104,132.901554 45.7370946,135.621762 C45.7707333,135.731787 45.7408108,135.851379 45.6593104,135.932642 Z M49.1595983,101.968912 C48.3039724,106.243523 46.1260155,112.53886 46.2815838,119.378238 C46.359368,124.119171 47.9150515,127.772021 47.9928357,131.42487 C47.9928357,132.979275 47.7594831,134.84456 47.2149939,135.388601 C46.6705047,135.932642 46.9816414,132.746114 46.9038572,131.26943 C46.8260731,127.61658 44.6481162,124.507772 44.7259003,120 C44.8036845,113.238342 49.6263033,99.7150259 50.0930084,97.5388601 C49.7818717,99.2487047 49.3929508,100.725389 49.1595983,101.968912 Z M44.0258428,78.6528497 C37.7253246,80.1295337 27.3022453,79.119171 27.3022453,79.119171 C32.6260944,79.2118751 37.9448711,78.7429572 43.1702168,77.7202073 C48.5373249,76.4766839 54.7600588,71.7357513 56.5490949,69.3264249 C56.6552913,69.6788985 56.6818584,70.0505311 56.626879,70.4145078 C54.837843,72.8238342 49.7040875,77.253886 44.0258428,78.6528497 L44.0258428,78.6528497 Z M75.2950809,44.8445596 C75.2950809,47.4870466 74.2838867,50.9067358 69.6946204,56.3471503 C66.8166059,59.6891192 64.638649,61.4766839 60.9050086,62.7202073 C60.4231236,62.9520957 59.9298669,63.1596119 59.4271093,63.3419689 C59.2001024,63.3036524 59.0349722,63.105659 59.0381423,62.8756477 C59.0381423,61.9430052 63.7830231,60.2331606 64.4830807,59.8445596 C66.4123693,58.7017787 68.1026975,57.1975682 69.4612678,55.4145078 C71.8725772,52.3834197 75.2172967,48.0310881 74.5950233,43.134715 C74.3616708,40.7253886 71.6392247,38.0829016 70.0057571,38.1606218 L68.1389369,38.4715026 C65.8831958,39.1709845 63.7830231,41.9689119 63.0829655,41.9689119 C62.382908,41.9689119 62.6162605,41.7357513 62.6162605,41.0362694 C62.6162605,40.3367876 67.5166635,37.0725389 69.8501887,36.9948187 C73.5060449,36.9948187 75.2950809,42.1243523 75.2950809,42.746114 L75.2950809,44.8445596 Z" id="Shape" fill="#FFFFFF" fill-rule="nonzero"></path>
                <path d="M69.8501887,36.9948187 C67.5166635,37.0725389 62.5384763,39.7150259 62.6162605,41.0362694 C62.6940446,42.357513 63.0051813,41.9689119 63.0829655,41.9689119 C63.1607497,41.9689119 65.8831958,39.1709845 68.1389369,38.4715026 L70.0057571,38.1606218 C71.6392247,38.0829016 74.3616708,40.7253886 74.5950233,43.134715 C75.2172967,48.0310881 71.8725772,52.3834197 69.4612678,55.4145078 C68.1026975,57.1975682 66.4123693,58.7017787 64.4830807,59.8445596 C63.7830231,60.2331606 59.0381423,61.9430052 59.0381423,62.8756477 C59.0349722,63.105659 59.2001024,63.3036524 59.4271093,63.3419689 C59.9298669,63.1596119 60.4231236,62.9520957 60.9050086,62.7202073 C64.638649,61.4766839 66.8166059,59.6891192 69.6946204,56.3471503 C74.2838867,50.9067358 75.2950809,47.4870466 75.2950809,44.8445596 L75.2950809,42.746114 C75.2950809,42.1243523 73.5060449,36.9948187 69.8501887,36.9948187 Z" id="Path" fill="#00817B" fill-rule="nonzero"></path>
                <path d="M63.9385914,45.388601 C65.1831382,43.4455959 65.96098,42.5906736 67.1277426,41.8911917 C68.2945052,41.1917098 68.9167786,40.7253886 70.1613254,40.9585492 C71.4058722,41.1917098 72.0281456,41.4248705 72.2614981,41.4248705 C72.4948506,41.4248705 72.9615557,41.5803109 72.9615557,41.5025907 C72.9615557,41.4248705 71.0947355,39.8704663 70.0835412,39.8704663 C69.072347,39.8704663 65.8054116,41.8134715 65.8054116,41.8134715 C64.1397958,43.0122315 62.9762957,44.7837259 62.5384763,46.7875648 C62.5384763,46.7875648 62.5384763,46.9430052 62.849613,47.253886 C63.1607497,47.5647668 62.6940446,47.3316062 63.9385914,45.388601 Z" id="Path" fill="#00817B" fill-rule="nonzero"></path>
                <path d="M61.1383612,57.6683938 C62.4606921,57.6683938 62.6162605,56.5025907 63.3941022,56.1917098 C64.171944,55.880829 65.6498433,56.2694301 65.6498433,55.492228 C65.680158,55.3615689 65.6408966,55.2245261 65.5459785,55.1296861 C65.4510604,55.0348461 65.3139048,54.9956169 65.1831382,55.0259067 C63.3941022,55.0259067 63.0051813,54.2487047 63.0051813,54.1709845 C63.0051813,54.0932642 63.7830231,53.3937824 63.7830231,52.5388601 C63.7830231,51.6839378 63.3941022,50.8290155 63.0051813,50.8290155 C62.6162605,50.8290155 61.6828504,52.5388601 61.1383612,53.4715026 C60.5938719,54.4041451 59.738246,55.880829 59.738246,56.4248705 C59.7582795,56.7755073 59.9172066,57.1037464 60.1799186,57.3370762 C60.4426306,57.5704059 60.7875071,57.689624 61.1383612,57.6683938 Z" id="Path" fill="#00817B" fill-rule="nonzero"></path>
                <path d="M43.1702168,77.7202073 C37.9448711,78.7429572 32.6260944,79.2118751 27.3022453,79.119171 C27.3022453,79.119171 37.7253246,80.1295337 44.0258428,78.6528497 C50.3263609,77.1761658 54.837843,72.8238342 56.626879,70.4145078 C56.6818584,70.0505311 56.6552913,69.6788985 56.5490949,69.3264249 C54.7600588,71.7357513 48.5373249,76.4766839 43.1702168,77.7202073 Z" id="Path" fill="#00817B" fill-rule="nonzero"></path>
                <path d="M46.9038572,131.26943 C46.9816414,132.746114 47.6039148,134.766839 47.2149939,135.388601 C46.8260731,136.010363 47.9928357,132.979275 47.9928357,131.42487 C47.9150515,127.772021 46.359368,124.119171 46.2815838,119.378238 C46.1260155,112.53886 48.3039724,106.243523 49.1595983,101.968912 C49.3929508,100.725389 49.7818717,99.2487047 50.0930084,97.5388601 C49.6263033,99.7150259 44.8036845,113.238342 44.7259003,120 C44.6481162,124.507772 46.8260731,127.61658 46.9038572,131.26943 Z" id="Path" fill="#00817B" fill-rule="nonzero"></path>
                <path d="M31.5803748,95.2849741 C31.4248065,94.8963731 29.3246338,88.3678756 26.9911086,84.4041451 C21.390648,74.6891192 10.7342161,76.7875648 6.61165483,72.5906736 C5.52267639,71.5025907 4.43369795,70.4145078 4.35591377,68.626943 L4.35591377,68.626943 C4.35591377,65.2849741 7.3117124,63.1865285 9.02296424,60.6217617 C9.51359524,59.8586079 9.75795309,58.9633659 9.72302181,58.0569948 C9.74029436,57.5290037 9.66122099,57.0022815 9.48966929,56.5025907 L9.25631677,55.9585492 C9.17853259,55.880829 9.17853259,55.7253886 8.94518007,55.6476684 C8.71182754,55.5699482 8.63404337,55.880829 8.63404337,55.9585492 L8.63404337,56.1139896 C8.63404337,56.5025907 8.71182754,57.2020725 8.71182754,57.9792746 C8.75949256,58.6841288 8.59709034,59.387293 8.2451225,60 C6.61165483,62.1761658 3.11136698,65.0518135 2.80023028,68.3160622 L2.80023028,69.015544 C2.80023028,72.4352332 4.82261882,74.4559585 7.70063328,75.9326425 L7.70063328,135.932642 L44.9592529,135.932642 L45.3481737,136.088083 L45.3481737,136.088083 C45.5037421,136.088083 45.5815263,136.088083 45.6593104,135.932642 C45.7161899,135.868897 45.7443193,135.784578 45.7370946,135.699482 C45.6593104,132.979275 41.8478859,130.725389 38.0364613,118.134715 C35.3917994,109.430052 31.8915115,96.1398964 31.5803748,95.2849741 Z" id="Path" fill="#00817B" fill-rule="nonzero"></path>
                <path d="M15.7124032,38.1606218 L15.9457558,38.1606218 C15.9907628,38.12076 16.0186285,38.0650744 16.0235399,38.0051813 C16.0235399,37.5388601 12.5232521,33.7305699 12.5232521,31.0103627 C12.4909603,30.6659109 12.544402,30.3188251 12.6788204,30 C13.2248556,28.849502 14.0884281,27.878782 15.167914,27.2020725 C16.8013817,26.1139896 21.7017847,23.626943 24.0353099,22.5388601 C30.5691806,19.6632124 33.5249792,17.0207254 34.4583893,13.7564767 C34.7265341,12.6903449 34.8314372,11.5897678 34.769526,10.492228 L34.769526,8.62694301 L34.5361735,8.62694301 L34.5361735,8.93782383 L33.9916843,8.93782383 L33.8361159,9.09326425 C24.8131517,11.4248705 15.5568349,17.1761658 12.6788204,27.0466321 C11.8280589,27.8528592 11.2101078,28.8729823 10.8897844,30 C10.8897844,30.3108808 10.8120003,30.6217617 10.8120003,30.9326425 C10.8120003,33.8860104 12.3676837,34.8186528 12.7566046,35.5181347 C13.5880683,36.5569557 14.5870247,37.4500238 15.7124032,38.1606218 Z" id="Path" fill="#00817B" fill-rule="nonzero"></path>
                <path d="M8.08955415,54.1709845 L8.16733832,54.1709845 C8.92251525,53.9183237 9.70651998,53.7616517 10.5008636,53.7046632 L14.0011514,53.4715026 L14.3900723,53.4715026 L14.3900723,53.0829016 C14.1567198,52.5388601 13.6122305,52.4611399 13.1455255,52.3834197 L10.1897269,52.3834197 C9.72302181,52.3834197 9.25631677,52.7720207 8.71182754,52.7720207 L8.71182754,52.3056995 L9.02296424,51.0621762 C9.1066208,50.5966434 9.43294728,50.211302 9.87859016,50.0518135 C10.7662408,49.8171316 11.6832807,49.7124133 12.6010363,49.7409326 C13.9233672,49.6632124 15.4790507,50.7512953 16.8791659,51.9170984 C18.279281,53.0829016 19.601612,54.2487047 20.7683746,54.3264249 L23.179684,54.3264249 C23.3739547,54.2143669 23.4928287,54.0065084 23.4908207,53.7823834 C23.5397468,53.421129 23.3027911,53.0828991 22.9463315,53.0051813 C22.6117946,52.8341669 22.3396449,52.5622411 22.1684897,52.2279793 C20.6128062,49.6632124 20.3016695,48.8860104 19.3682595,47.4870466 C16.7235975,43.8341969 14.9345615,43.4455959 14.1567198,43.4455959 L12.9899571,43.4455959 C12.1425096,43.337752 11.2968993,43.6582369 10.7342161,44.3005181 C10.3975352,44.7208829 10.2064698,45.2390623 10.1897269,45.7772021 L10.1897269,46.3212435 C10.0849198,46.9897006 10.0329032,47.6653599 10.0341585,48.3419689 C10.0478425,48.508104 9.95395595,48.6644529 9.80080599,48.7305699 C9.33410094,49.0414508 7.77841745,49.2746114 7.3117124,51.9948187 C7.10249926,52.5455992 7.10249926,53.1538826 7.3117124,53.7046632 C7.46040808,53.9959414 7.76235802,54.1769624 8.08955415,54.1709845 L8.08955415,54.1709845 Z M11.7454103,46.4766839 C11.6676262,46.0880829 11.8231945,45.2331606 12.1343312,45.0777202 C12.4534187,44.9434123 12.8007902,44.8900145 13.1455255,44.9222798 L13.8455831,44.9222798 C15.4790507,44.9222798 17.1903026,46.7875648 18.5904177,48.8860104 L20.3016695,51.761658 C20.5332057,52.1680425 20.7931308,52.5576095 21.0795113,52.9274611 C20.2238854,52.8497409 19.0571228,51.761658 17.812576,50.6735751 C16.5680292,49.5854922 14.9345615,48.1865285 13.2233097,48.1865285 L11.589842,48.1865285 C11.596992,47.7163212 11.6490848,47.2478718 11.7454103,46.7875648 L11.7454103,46.7875648 L11.7454103,46.4766839 Z" id="Shape" fill="#00817B" fill-rule="nonzero"></path>
                <path d="M17.0347342,33.1088083 L16.7235975,33.1088083 C16.0804986,33.4028258 15.6588975,34.0347074 15.6346191,34.7409326 C15.6596296,34.9288929 15.7120413,35.112183 15.7901874,35.2849741 C15.9339724,35.8055799 16.4167912,36.1593559 16.95695,36.1398964 C17.6052417,36.2578393 18.2175035,36.5238211 18.7459861,36.9170984 C19.3183249,37.3494821 19.8401672,37.8448247 20.3016695,38.3937824 L20.7683746,38.9378238 C20.9239429,39.0932642 20.9239429,39.2487047 21.3128638,39.3264249 L21.3128638,39.3264249 C21.4584031,39.3310261 21.5876703,39.2341554 21.6240005,39.0932642 C21.7017847,38.9378238 21.7017847,38.9378238 21.7017847,38.8601036 C21.7017847,38.7823834 21.6240005,38.5492228 21.6240005,38.3937824 C20.8461588,34.8186528 18.2014968,33.1865285 17.0347342,33.1088083 Z" id="Path" fill="#00817B" fill-rule="nonzero"></path>
                <path d="M11.7454103,46.7098446 C11.6490848,47.1701516 11.596992,47.638601 11.589842,48.1088083 L13.2233097,48.1088083 C14.9345615,48.1088083 16.4124608,49.4300518 17.812576,50.5958549 C19.2126911,51.761658 20.2238854,52.7720207 21.0795113,52.8497409 C20.7931308,52.4798893 20.5332057,52.0903223 20.3016695,51.6839378 L18.5904177,48.8082902 C17.1903026,46.7098446 15.4790507,44.8445596 13.8455831,44.8445596 L13.1455255,44.8445596 C12.8007902,44.8122943 12.4534187,44.8656921 12.1343312,45 C11.8231945,45.1554404 11.6676262,46.0103627 11.7454103,46.3989637 L11.7454103,46.6321244 L11.7454103,46.7098446 Z" id="Path" fill="#FFFFFF" fill-rule="nonzero"></path>
                <path d="M135.733385,94.9740933 L135.733385,94.9740933 C135.386792,93.2621991 134.727594,91.628732 133.78878,90.1554404 L132.155312,88.2901554 C130.633069,86.93308 128.783313,85.9955699 126.788204,85.5699482 L124.454679,85.3367876 C117.998593,85.3367876 112.553701,89.2227979 108.353355,94.9740933 C105.296716,99.3130406 102.959205,104.115431 101.430564,109.196891 C99.8890802,114.236841 99.077086,119.471206 99.0192541,124.740933 C99.0192541,126.062176 99.1748225,126.373057 99.5637434,126.373057 C99.9526642,126.373057 100.419369,124.740933 101.274995,121.165803 C103.919657,109.974093 108.664492,100.803109 113.876031,94.9740933 L113.876031,94.9740933 C117.76524,90.4663212 121.965586,87.9792746 125.621442,87.9792746 C129.277298,87.9792746 132.933154,90.8549223 133.944348,94.9740933 C133.944348,95.0518135 134.022133,95.0518135 134.022133,95.1295337 C134.270895,96.2527387 134.401246,97.3988862 134.411054,98.5492228 C134.411054,117.357513 117.142967,133.756477 100.108233,133.756477 C91.0852683,133.756477 85.0181027,126.683938 85.0181027,114.559585 C85.0294206,107.723473 86.6550856,100.986505 89.7629374,94.8963731 C96.2190239,82.1502591 107.88665,74.1450777 115.276147,72.2797927 C116.21853,72.0462977 117.183553,71.9159966 118.154161,71.8911917 C119.63206,71.8911917 122.354506,73.2901554 124.999168,73.9119171 L126.788204,74.3005181 L127.566046,74.3005181 C130.132924,74.3005181 131.455255,73.6010363 131.455255,71.7357513 C131.455255,69.8704663 129.510651,69.4818653 126.788204,69.1709845 L124.999168,68.9378238 L124.065758,68.9378238 C122.510075,68.9378238 120.17655,69.3264249 119.320924,69.3264249 C116.598478,67.4611399 115.820636,65.0518135 115.820636,60.6217617 C115.820636,52.7720207 119.554276,43.0569948 124.999168,34.8186528 L126.788204,32.0984456 C129.356096,28.5267805 132.331983,25.2664295 135.6556,22.3834197 C139.700377,19.119171 143.745154,17.0984456 147.556579,17.0984456 C158.057443,17.0984456 162.957846,20.7512953 162.957846,30.388601 C162.957846,41.1917098 155.334996,54.4041451 146.156464,54.6373057 C141.956118,54.6373057 139.155888,51.6839378 139.155888,47.0207254 C139.155888,40.6476684 144.289644,33.1088083 148.956694,29.5336788 C150.512378,28.2901554 151.756924,27.5906736 151.756924,26.9689119 C151.756924,26.3471503 151.445788,26.2694301 150.979083,26.2694301 C149.190047,26.2694301 145.845327,29.3005181 144.911917,30.2331606 C140.633788,34.119171 137.055715,39.4818653 137.055715,46.7098446 C137.055715,52.6943005 141.567198,56.6580311 145.611975,56.6580311 C156.423975,56.6580311 164.591313,42.2020725 164.591313,30.2331606 C164.591313,19.7409326 158.601932,14.3782383 147.712147,14.3782383 C143.516201,14.5353716 139.403665,15.5957984 135.6556,17.4870466 C132.520291,19.0519453 129.549676,20.9265804 126.788204,23.0829016 L124.921384,24.6373057 C116.442909,31.865285 109.75347,42.4352332 109.75347,54.0932642 C109.75347,61.3212435 112.787053,67.6165803 118.154161,69.7150259 L118.154161,70.1036269 C117.048914,70.2889137 115.957452,70.5485719 114.887226,70.880829 C102.208405,74.2227979 88.4406064,82.5388601 81.128894,94.8186528 L81.128894,45 C81.128894,30.1554404 76.7729802,18.8860104 69.4612678,11.3471503 C62.1495554,3.80829016 52.1153969,0 40.9144758,0 C29.7135547,0 19.4460436,3.80829016 11.9787629,11.3471503 C4.51148212,18.8860104 0,30.1554404 0,45 L0,143.238342 L81.128894,143.238342 L81.128894,129.015544 C85.3292394,133.834197 91.7853259,136.321244 99.3303908,136.321244 C118.854219,136.321244 136.122305,117.046632 136.122305,98.7823834 C136.1205,97.5031497 135.990207,96.2273263 135.733385,94.9740933 Z M79.806563,141.839378 L1.40011514,141.839378 L1.40011514,94.7409326 L1.40011514,94.7409326 L1.40011514,91.9430052 L1.40011514,91.9430052 L1.40011514,45 C1.40011514,15.8549223 19.0571228,1.39896373 40.9144758,1.39896373 C62.7718288,1.39896373 79.7287789,15.8549223 79.806563,45 L79.806563,97.3056995 C77.2649493,102.317064 75.9329963,107.853432 75.9173543,113.471503 C75.9173543,119.067358 77.3174695,123.73057 79.806563,127.305699 L79.806563,141.839378 Z" id="Shape" fill="#00817B" fill-rule="nonzero"></path>
                <path d="M137.366852,111.373057 C137.366852,112.53886 138.222478,113.782383 140.244867,113.782383 C141.661213,113.705425 142.995573,113.094346 143.978507,112.072539 C144.289644,113.160622 144.989701,113.782383 146.545385,113.782383 C148.101068,113.782383 149.967888,111.839378 149.967888,111.528497 C149.967888,111.217617 149.890104,111.295337 149.81232,111.295337 C149.734536,111.295337 149.345615,112.305699 148.645557,112.305699 C147.9455,112.305699 148.256637,112.072539 148.256637,111.761658 L148.256637,104.455959 C148.256637,102.279793 147.323227,101.036269 144.60078,101.036269 C141.878334,101.036269 137.833557,103.212435 137.833557,105.388601 C137.833557,107.564767 138.378046,107.020725 139.700377,107.020725 C140.27069,107.068469 140.833094,106.862768 141.237778,106.458416 C141.642463,106.054064 141.848333,105.492123 141.80055,104.92228 C141.80055,104.300518 141.722766,103.601036 141.722766,102.979275 C141.722093,102.635553 141.863838,102.306884 142.114342,102.07131 C142.364846,101.835735 142.701765,101.714268 143.045097,101.735751 C143.589586,101.735751 143.822939,101.968912 143.822939,102.823834 L143.822939,106.632124 C138.844751,108.57513 137.366852,109.196891 137.366852,111.373057 Z M143.822939,111.528497 C143.60318,111.883802 143.22822,112.114356 142.811744,112.150259 C142.189471,112.150259 141.878334,111.683938 141.878334,109.896373 C141.878334,108.108808 142.267255,107.875648 143.822939,107.176166 L143.822939,111.528497 Z" id="Shape" fill="#00817B" fill-rule="nonzero"></path>
                <path d="M155.179428,101.580311 C157.124032,101.580311 158.213011,103.678756 158.601932,104.84456 C158.990853,106.010363 158.913069,105.699482 159.068637,105.699482 C159.224205,105.699482 159.301989,105.544041 159.301989,105.233161 L159.301989,101.891192 C158.012601,101.377132 156.644489,101.087962 155.257212,101.036269 C152.690335,101.036269 150.590162,102.823834 150.590162,105.233161 C150.590162,109.818653 157.279601,108.65285 157.279601,111.450777 C157.279601,112.61658 156.579543,113.316062 155.179428,113.316062 C153.779313,113.316062 152.301414,111.917098 151.601356,110.051813 C150.901299,108.186528 151.212435,108.108808 150.901299,108.108808 C150.590162,108.108808 150.590162,108.264249 150.590162,108.497409 L150.590162,112.927461 C152.013203,113.539048 153.553308,113.830897 155.101644,113.782383 C157.82409,113.782383 160.157615,111.917098 160.157615,109.274611 C160.157615,104.84456 153.234824,105.544041 153.234824,103.212435 C153.234824,102.202073 154.012666,101.580311 155.179428,101.580311 Z" id="Path" fill="#00817B" fill-rule="nonzero"></path>
                <path d="M169.025011,110.362694 C168.791659,110.362694 168.791659,110.595855 168.63609,110.906736 C168.480522,111.217617 167.70268,112.38342 166.924838,112.38342 C166.146997,112.38342 165.83586,111.917098 165.83586,110.673575 L165.83586,102.823834 L168.247169,102.823834 L168.791659,101.26943 L165.83586,101.26943 L165.83586,97.1502591 C164.142464,99.2306683 162.239737,101.131831 160.157615,102.823834 L161.635515,102.823834 L161.635515,110.673575 C161.635515,112.927461 162.880061,113.782383 165.213587,113.782383 C167.547112,113.782383 169.258364,111.139896 169.258364,110.673575 C169.258364,110.207254 169.18058,110.362694 169.025011,110.362694 Z" id="Path" fill="#00817B" fill-rule="nonzero"></path>
                <path d="M174.858824,113.782383 C177.609633,113.837359 179.943254,111.775999 180.225932,109.041451 C180.225932,108.80829 180.148148,108.65285 179.99258,108.65285 C179.837011,108.65285 179.759227,108.963731 179.370306,109.507772 C178.771077,110.418777 177.738058,110.949607 176.64786,110.906736 C174.858824,110.906736 173.536493,109.274611 173.303141,106.554404 L180.070364,106.554404 C180.070364,102.823834 177.659055,101.036269 175.092177,101.036269 C172.525299,101.036269 169.102795,103.911917 169.102795,107.487047 C169.102795,111.062176 171.436321,113.782383 174.858824,113.782383 Z M174.78104,101.735751 C176.103371,101.735751 176.336724,103.290155 176.336724,105.932642 L173.225357,105.932642 C173.225357,103.290155 173.536493,101.735751 174.78104,101.735751 L174.78104,101.735751 Z" id="Shape" fill="#00817B" fill-rule="nonzero"></path>
                <path d="M182.248321,104.222798 L182.248321,111.994819 C182.248321,113.316062 180.848206,112.772021 180.848206,113.393782 C180.848206,114.015544 180.92599,113.626943 181.159342,113.626943 L187.537645,113.626943 C187.770997,113.626943 187.848781,113.471503 187.848781,113.393782 C187.848781,113.316062 186.448666,113.316062 186.448666,111.994819 L186.448666,105.15544 C186.448666,104.455959 186.604235,104.067358 186.993156,104.067358 C187.382076,104.067358 187.926566,105.388601 189.248897,105.388601 C190.451749,105.324216 191.374616,104.297718 191.310177,103.095855 C191.245739,101.893992 190.218396,100.971884 189.015544,101.036269 C187.537645,101.036269 186.993156,102.279793 186.293098,103.989637 L186.215314,103.989637 L186.215314,101.036269 C182.170537,102.279793 180.692637,101.813472 180.692637,102.202073 C180.692637,102.590674 182.248321,102.435233 182.248321,104.222798 Z" id="Path" fill="#00817B" fill-rule="nonzero"></path>
                <path d="M205.816926,113.626943 C206.050278,113.626943 206.128062,113.471503 206.128062,113.393782 C206.128062,113.316062 204.727947,113.316062 204.727947,111.994819 L204.727947,105.07772 C204.727947,102.746114 204.02789,101.036269 201.61658,101.036269 C199.205271,101.036269 199.283055,101.502591 197.571803,102.979275 L197.571803,101.036269 C193.371458,102.279793 191.815774,101.813472 191.815774,102.202073 C191.815774,102.590674 193.449242,102.435233 193.449242,104.222798 L193.449242,111.994819 C193.449242,113.316062 191.971343,112.772021 191.971343,113.393782 C191.971343,114.015544 192.049127,113.626943 192.282479,113.626943 L198.505213,113.626943 C198.738566,113.626943 198.81635,113.471503 198.81635,113.393782 C198.81635,113.316062 197.571803,113.316062 197.571803,111.994819 L197.571803,103.834197 C198.034301,103.249046 198.701196,102.860345 199.438623,102.746114 C199.983113,102.746114 200.527602,103.212435 200.527602,104.378238 L200.527602,111.994819 C200.527602,113.316062 199.360839,112.772021 199.360839,113.393782 C199.360839,114.015544 199.360839,113.626943 199.594192,113.626943 L205.816926,113.626943 L205.816926,113.626943 Z" id="Path" fill="#00817B" fill-rule="nonzero"></path>
                <path d="M227.752063,113.626943 C227.907631,113.626943 227.985415,113.393782 227.985415,113.082902 L227.985415,107.253886 C227.985415,106.943005 227.907631,106.787565 227.752063,106.787565 C227.285358,106.787565 227.440926,107.720207 226.5853,109.274611 C225.729674,110.829016 223.162797,113.393782 221.451545,113.393782 C219.740293,113.393782 217.64012,111.295337 217.64012,104.378238 C217.64012,99.5595855 218.651315,95.4404145 221.451545,95.4404145 C224.251775,95.4404145 224.951833,97.2279793 226.118595,99.3264249 C227.285358,101.42487 227.285358,102.746114 227.752063,102.746114 C228.218768,102.746114 227.985415,102.512953 227.985415,102.202073 L227.985415,95.7512953 C227.985415,95.3626943 227.752063,95.2072539 227.596495,95.2072539 C227.440926,95.2072539 227.440926,96.4507772 226.5853,96.4507772 C225.729674,96.4507772 223.862854,94.8186528 221.140408,94.8186528 C216.473358,94.8186528 212.273012,98.5492228 212.273012,104.378238 C212.273012,110.207254 216.084437,114.015544 221.218192,114.015544 C223.862854,114.015544 225.807459,112.61658 226.818653,112.61658 C227.829847,112.61658 227.285358,113.626943 227.752063,113.626943 Z" id="Path" fill="#00817B" fill-rule="nonzero"></path>
                <path d="M228.763257,111.373057 C228.763257,112.53886 229.618883,113.782383 231.641272,113.782383 C233.057618,113.705425 234.391978,113.094346 235.374912,112.072539 C235.686049,113.160622 236.386106,113.782383 237.94179,113.782383 C239.497473,113.782383 241.364293,111.839378 241.364293,111.528497 C241.364293,111.399726 241.259818,111.295337 241.130941,111.295337 C240.819804,111.295337 240.664236,112.305699 240.041963,112.305699 C239.419689,112.305699 239.653042,112.072539 239.653042,111.761658 L239.653042,104.455959 C239.653042,102.279793 238.641847,101.036269 235.997185,101.036269 C233.352524,101.036269 229.229962,103.212435 229.229962,105.388601 C229.229962,107.564767 229.774451,107.020725 231.096782,107.020725 C231.667095,107.068469 232.229499,106.862768 232.634183,106.458416 C233.038868,106.054064 233.244738,105.492123 233.196955,104.92228 C233.196955,104.300518 233.119171,103.601036 233.119171,102.979275 C233.118498,102.635553 233.260243,102.306884 233.510747,102.07131 C233.761251,101.835735 234.09817,101.714268 234.441502,101.735751 C234.908207,101.735751 235.219344,101.968912 235.219344,102.823834 L235.219344,106.632124 C230.241157,108.57513 228.763257,109.196891 228.763257,111.373057 Z M235.219344,111.528497 C234.999585,111.883802 234.624625,112.114356 234.208149,112.150259 C233.585876,112.150259 233.196955,111.683938 233.196955,109.896373 C233.196955,108.108808 233.66366,107.875648 235.219344,107.176166 L235.219344,111.528497 Z" id="Shape" fill="#00817B" fill-rule="nonzero"></path>
                <path d="M242.919977,104.222798 L242.919977,111.994819 C242.919977,113.316062 241.519862,112.772021 241.519862,113.393782 C241.519862,113.522553 241.624337,113.626943 241.753214,113.626943 L248.209301,113.626943 C248.442653,113.626943 248.520438,113.471503 248.520438,113.393782 C248.520438,113.316062 247.120322,113.316062 247.120322,111.994819 L247.120322,105.15544 C247.120322,104.455959 247.275891,104.067358 247.664812,104.067358 C248.053732,104.067358 248.598222,105.388601 249.920553,105.388601 C251.242884,105.388601 251.709589,104.300518 251.709589,103.212435 C251.778975,102.644258 251.594099,102.074419 251.204295,101.654974 C250.81449,101.23553 250.25942,101.00916 249.6872,101.036269 C248.209301,101.036269 247.664812,102.279793 246.964754,103.989637 L246.88697,103.989637 L246.88697,101.036269 C242.842193,102.279793 241.364293,101.813472 241.364293,102.202073 C241.364293,102.590674 242.919977,102.435233 242.919977,104.222798 Z" id="Path" fill="#00817B" fill-rule="nonzero"></path>
                <path d="M258.010107,113.782383 C261.532746,113.782383 264.388409,110.929069 264.388409,107.409326 C264.388409,103.889584 261.532746,101.036269 258.010107,101.036269 C254.487468,101.036269 251.631805,103.889584 251.631805,107.409326 C251.631805,110.929069 254.487468,113.782383 258.010107,113.782383 L258.010107,113.782383 Z M258.010107,101.735751 C259.099085,101.735751 259.799143,102.435233 259.799143,107.409326 C259.799143,112.38342 259.099085,113.160622 258.010107,113.160622 C256.921128,113.160622 256.298855,112.46114 256.298855,107.409326 C256.298855,102.357513 256.998913,101.735751 258.010107,101.735751 Z" id="Shape" fill="#00817B" fill-rule="nonzero"></path>
                <path d="M271.622337,113.393782 C271.622337,112.772021 270.222222,113.316062 270.222222,111.994819 L270.222222,93.8082902 C266.021877,95.5958549 264.543977,94.8963731 264.543977,95.5181347 C264.543977,96.1398964 266.021877,95.6735751 266.021877,96.9948187 L266.021877,111.994819 C266.021877,113.316062 264.621762,112.772021 264.621762,113.393782 C264.621762,114.015544 264.699546,113.626943 264.932898,113.626943 L271.311201,113.626943 C271.544553,113.626943 271.622337,113.471503 271.622337,113.393782 Z" id="Path" fill="#00817B" fill-rule="nonzero"></path>
                <path d="M276.056035,99.4818653 C276.737272,99.4418667 277.374529,99.1324715 277.826992,98.622046 C278.279455,98.1116205 278.509878,97.4421832 278.467345,96.761658 C278.532213,96.0760015 278.309621,95.3941662 277.852604,94.8786037 C277.395587,94.3630413 276.745067,94.0599165 276.056035,94.0414508 C275.374798,94.0814494 274.737542,94.3908446 274.285079,94.9012701 C273.832615,95.4116955 273.602192,96.0811329 273.644726,96.761658 C273.602192,97.4421832 273.832615,98.1116205 274.285079,98.622046 C274.737542,99.1324715 275.374798,99.4418667 276.056035,99.4818653 Z" id="Path" fill="#00817B" fill-rule="nonzero"></path>
                <path d="M273.955863,104.222798 L273.955863,111.994819 C273.955863,113.316062 272.555747,112.772021 272.555747,113.393782 C272.555747,114.015544 272.633532,113.626943 272.866884,113.626943 L279.245186,113.626943 C279.478539,113.626943 279.556323,113.471503 279.556323,113.393782 C279.556323,113.316062 278.156208,113.316062 278.156208,111.994819 L278.156208,101.036269 C273.878078,102.279793 272.400179,101.813472 272.400179,102.202073 C272.400179,102.590674 273.955863,102.435233 273.955863,104.222798 Z" id="Path" fill="#00817B" fill-rule="nonzero"></path>
                <path d="M294.568669,113.626943 C294.802021,113.626943 294.879806,113.471503 294.879806,113.393782 C294.879806,113.316062 293.401906,113.316062 293.401906,111.994819 L293.401906,105.07772 C293.401906,102.746114 292.779633,101.036269 290.368323,101.036269 C287.957014,101.036269 288.034798,101.502591 286.323546,102.979275 L286.323546,101.036269 C282.123201,102.279793 280.567517,101.813472 280.567517,102.202073 C280.567517,102.590674 282.200985,102.435233 282.200985,104.222798 L282.200985,111.994819 C282.200985,113.316062 280.723086,112.772021 280.723086,113.393782 C280.723086,114.015544 280.80087,113.626943 281.034222,113.626943 L287.256956,113.626943 C287.490309,113.626943 287.568093,113.471503 287.568093,113.393782 C287.568093,113.316062 286.323546,113.316062 286.323546,111.994819 L286.323546,103.834197 C286.756583,103.253936 287.397828,102.863934 288.112582,102.746114 C288.734856,102.746114 289.279345,103.212435 289.279345,104.378238 L289.279345,111.994819 C289.279345,113.316062 288.034798,112.772021 288.034798,113.393782 C288.034798,114.015544 288.112582,113.626943 288.345935,113.626943 L294.568669,113.626943 L294.568669,113.626943 Z" id="Path" fill="#00817B" fill-rule="nonzero"></path>
                <path d="M307.558626,111.528497 L307.325273,111.295337 C306.936353,111.295337 306.858568,112.305699 306.158511,112.305699 C305.458453,112.305699 305.76959,112.072539 305.76959,111.761658 L305.76959,104.455959 C305.76959,102.279793 304.83618,101.036269 302.113734,101.036269 C299.391288,101.036269 295.424295,103.212435 295.424295,105.388601 C295.424295,107.564767 295.891,107.020725 297.291115,107.020725 C297.85587,107.072699 298.413646,106.865332 298.807042,106.457142 C299.200437,106.048952 299.386787,105.484208 299.313503,104.92228 C299.313503,104.300518 299.235719,103.601036 299.235719,102.979275 C299.232903,102.620685 299.385154,102.278337 299.653396,102.040096 C299.921638,101.801854 300.279755,101.690915 300.635834,101.735751 C301.102539,101.735751 301.335892,101.968912 301.335892,102.823834 L301.335892,106.632124 C296.357705,108.57513 294.95759,109.196891 294.95759,111.373057 C294.95759,113.549223 295.813216,113.782383 297.835604,113.782383 C299.857993,113.782383 300.169129,113.238342 301.49146,112.072539 C301.802597,113.160622 302.502655,113.782383 304.058338,113.782383 C305.614022,113.782383 307.558626,111.839378 307.558626,111.528497 Z M301.335892,111.528497 C301.141184,111.872056 300.794762,112.102814 300.402482,112.150259 C299.780209,112.150259 299.391288,111.683938 299.391288,109.896373 C299.391288,108.108808 299.857993,107.875648 301.335892,107.176166 L301.335892,111.528497 Z" id="Shape" fill="#00817B" fill-rule="nonzero"></path>
                <path d="M312.692382,113.316062 C312.692382,113.549223 312.84795,113.626943 313.081302,113.626943 L327.39359,113.626943 L328.482569,108.186528 C328.638137,106.943005 328.715921,106.865285 328.715921,106.632124 C328.715921,106.570286 328.691336,106.510981 328.647574,106.467255 C328.603812,106.423529 328.544458,106.398964 328.482569,106.398964 C328.249216,106.398964 328.171432,106.476684 328.015864,107.176166 C327.39359,109.352332 325.52677,113.005181 321.481993,113.005181 C320.081878,113.005181 319.692957,112.53886 319.692957,111.295337 L319.692957,104.222798 C321.715346,104.222798 323.193245,105.699482 323.504382,108.031088 C323.504382,108.419689 323.504382,108.88601 323.815518,108.88601 C324.126655,108.88601 324.048871,108.80829 324.048871,108.497409 L324.048871,99.6373057 C324.048871,99.3264249 323.971087,99.2487047 323.815518,99.2487047 C323.65995,99.2487047 323.504382,99.6373057 323.504382,100.103627 C323.27454,102.050898 321.654311,103.537639 319.692957,103.601036 L319.692957,95.8290155 C321.948698,95.9067358 323.65995,96.2176166 325.448986,98.0051813 C327.238022,99.7927461 327.315806,101.658031 327.782511,101.658031 C327.954347,101.658031 328.093648,101.518845 328.093648,101.34715 C328.003008,100.921456 327.872803,100.505143 327.704727,100.103627 L326.382396,95.1295337 L313.081302,95.1295337 C312.84795,95.1295337 312.692382,95.2072539 312.692382,95.5181347 C312.692382,95.8290155 314.792554,95.3626943 314.792554,97.2279793 L314.792554,111.606218 C314.792554,113.471503 312.692382,112.46114 312.692382,113.316062 Z" id="Path" fill="#00817B" fill-rule="nonzero"></path>
                <path d="M333.460756,105.932642 C333.977134,105.893027 334.456364,105.649235 334.792204,105.255313 C335.128043,104.861391 335.292744,104.349886 335.249792,103.834197 C335.294939,102.7893 334.50421,101.896168 333.460756,101.813472 C332.944872,101.833677 332.458204,102.058031 332.108022,102.437084 C331.757839,102.816136 331.572889,103.31877 331.593936,103.834197 C331.548872,104.92194 332.374342,105.84983 333.460756,105.932642 L333.460756,105.932642 Z" id="Path" fill="#00817B" fill-rule="nonzero"></path>
                <path d="M354.929188,95.1295337 L349.406512,95.1295337 C349.176311,95.1263201 348.978155,95.2913145 348.939807,95.5181347 C348.939807,96.4507772 351.817821,95.2072539 351.817821,99.6373057 L351.817821,106.088083 L343.572699,95.2072539 L337.272181,95.2072539 C336.88326,95.2072539 336.805476,95.4404145 336.805476,95.5958549 C336.805476,95.7512953 338.205591,95.5958549 339.761274,98.238342 L339.761274,109.196891 C339.761274,113.626943 336.88326,112.46114 336.88326,113.393782 C336.88326,114.326425 337.116612,113.704663 337.349965,113.704663 L342.872641,113.704663 C343.183778,113.704663 343.339346,113.626943 343.339346,113.393782 C343.339346,113.160622 340.539116,113.626943 340.539116,109.196891 L340.539116,99.0932642 L351.895605,114.093264 C352.001346,114.245254 352.177174,114.333096 352.36231,114.326425 C352.424199,114.326425 352.483554,114.30186 352.527316,114.258134 C352.571078,114.214408 352.595663,114.155102 352.595663,114.093264 L352.595663,99.6373057 C352.595663,95.2072539 355.395893,96.4507772 355.395893,95.5181347 C355.395893,94.5854922 355.240325,95.1295337 354.929188,95.1295337 Z" id="Path" fill="#00817B" fill-rule="nonzero"></path>
                <path d="M358.429476,105.932642 C358.945854,105.893027 359.425084,105.649235 359.760924,105.255313 C360.096763,104.861391 360.261464,104.349886 360.218512,103.834197 C360.263659,102.7893 359.47293,101.896168 358.429476,101.813472 C357.913592,101.833677 357.426924,102.058031 357.076742,102.437084 C356.726559,102.816136 356.541609,103.31877 356.562656,103.834197 C356.517593,104.92194 357.343062,105.84983 358.429476,105.932642 L358.429476,105.932642 Z" id="Path" fill="#00817B" fill-rule="nonzero"></path>
                <path d="M379.431203,100.259067 L378.420009,95.0518135 C378.420009,94.8186528 378.342225,94.5854922 378.186656,94.5854922 C378.031088,94.5854922 377.87552,95.2072539 376.864325,95.2072539 L365.352268,95.2072539 C364.418858,95.2072539 364.263289,94.5854922 364.029937,94.5854922 C363.796584,94.5854922 363.874368,94.8186528 363.796584,95.0518135 L362.863174,100.259067 C362.77845,100.616307 362.72638,100.980497 362.707606,101.34715 C362.707606,101.408988 362.732191,101.468294 362.775953,101.51202 C362.819715,101.555746 362.879069,101.580311 362.940958,101.580311 C363.174311,101.580311 363.252095,101.19171 363.563232,100.336788 C364.356768,98.0478899 366.315096,96.3579982 368.696987,95.9067358 L368.696987,111.606218 C368.696987,113.471503 366.363462,112.46114 366.363462,113.316062 C366.363462,114.170984 366.441246,113.626943 366.752383,113.626943 L375.541994,113.626943 C375.853131,113.626943 375.930915,113.549223 375.930915,113.316062 C375.930915,113.082902 373.59739,113.471503 373.59739,111.606218 L373.59739,95.9067358 C375.979282,96.3579982 377.937609,98.0478899 378.731146,100.336788 C379.042282,101.19171 379.120067,101.580311 379.353419,101.580311 C379.482296,101.580311 379.586772,101.475921 379.586772,101.34715 C379.567997,100.980497 379.515927,100.616307 379.431203,100.259067 L379.431203,100.259067 Z" id="Path" fill="#00817B" fill-rule="nonzero"></path>
                <path d="M156.735112,123.186528 C156.735112,122.953368 156.579543,122.797927 156.268407,122.797927 L147.712147,122.797927 C147.401011,122.797927 147.323227,122.953368 147.323227,123.186528 C147.323227,123.419689 149.034478,123.031088 149.034478,125.129534 L149.034478,131.813472 L143.511802,131.813472 L143.511802,125.129534 C143.511802,123.031088 145.300838,124.119171 145.300838,123.186528 C145.300838,122.253886 145.14527,122.797927 144.834133,122.797927 L136.277874,122.797927 C135.966737,122.797927 135.888953,122.953368 135.888953,123.186528 C135.888953,123.419689 138.144694,123.031088 138.144694,125.129534 L138.144694,140.984456 C138.144694,143.082902 135.888953,141.917098 135.888953,142.927461 C135.888953,143.937824 135.966737,143.238342 136.277874,143.238342 L144.834133,143.238342 C145.14527,143.238342 145.300838,143.160622 145.300838,142.927461 C145.300838,142.694301 143.511802,143.082902 143.511802,140.984456 L143.511802,132.512953 L149.034478,132.512953 L149.034478,140.984456 C149.034478,143.082902 147.323227,141.917098 147.323227,142.927461 C147.323227,143.937824 147.401011,143.238342 147.712147,143.238342 L156.268407,143.238342 C156.579543,143.238342 156.735112,143.160622 156.735112,142.927461 C156.735112,142.694301 154.401586,143.082902 154.401586,140.984456 L154.401586,125.129534 C154.401586,123.031088 156.735112,124.119171 156.735112,123.186528 Z" id="Path" fill="#00817B" fill-rule="nonzero"></path>
                <path d="M167.780464,138.419689 C167.547112,138.419689 167.469328,138.65285 167.080407,139.196891 C166.498502,140.077884 165.490262,140.581589 164.435745,140.518135 C162.646709,140.518135 161.402162,138.963731 161.16881,136.243523 L167.858249,136.243523 C167.780464,132.668394 165.446939,130.880829 162.880061,130.880829 C160.313184,130.880829 157.046248,133.678756 157.046248,137.176166 C157.046248,140.673575 159.301989,143.393782 162.724493,143.393782 C165.43251,143.448928 167.731393,141.42217 168.013817,138.73057 C168.013817,138.497409 167.936033,138.419689 167.780464,138.419689 Z M162.646709,131.502591 C163.891256,131.502591 164.124608,133.056995 164.124608,135.621762 L161.091025,135.621762 C161.091025,133.056995 161.402162,131.502591 162.646709,131.502591 Z" id="Shape" fill="#00817B" fill-rule="nonzero"></path>
                <path d="M181.548263,140.984456 C181.159342,140.984456 181.081558,141.917098 180.459285,141.917098 C180.328518,141.947388 180.191363,141.908159 180.096445,141.813319 C180.001527,141.718479 179.962265,141.581436 179.99258,141.450777 L179.99258,134.222798 C179.99258,132.124352 179.05917,130.880829 176.414508,130.880829 C173.769846,130.880829 169.802853,132.979275 169.802853,135.15544 C169.802853,136.088083 170.347342,136.787565 171.669673,136.787565 C172.226911,136.811685 172.767689,136.595566 173.154575,136.19413 C173.541461,135.792694 173.737205,135.244593 173.692062,134.689119 C173.692062,134.067358 173.614277,133.367876 173.614277,132.823834 C173.591152,132.466835 173.723025,132.117178 173.976198,131.864214 C174.229371,131.611249 174.579316,131.479485 174.936608,131.502591 C175.403314,131.502591 175.636666,131.813472 175.636666,132.668394 L175.636666,136.321244 C170.736263,138.264249 169.413932,138.88601 169.413932,140.984456 C169.413932,143.082902 170.191774,143.393782 172.214162,143.393782 C173.583666,143.309127 174.866652,142.69603 175.792234,141.683938 C176.103371,142.772021 176.803429,143.393782 178.359112,143.393782 C179.860259,143.521346 181.261489,142.630388 181.781616,141.217617 C181.781616,141.088846 181.67714,140.984456 181.548263,140.984456 L181.548263,140.984456 Z M175.636666,141.217617 C175.433394,141.540674 175.084754,141.74388 174.703256,141.761658 C174.080983,141.761658 173.769846,141.295337 173.769846,139.585492 C173.769846,137.875648 174.158767,137.564767 175.636666,136.943005 L175.636666,141.217617 Z" id="Shape" fill="#00817B" fill-rule="nonzero"></path>
                <path d="M194.693789,140.518135 L194.693789,123.73057 C190.571228,125.518135 189.171112,124.818653 189.171112,125.440415 C189.171112,126.062176 190.649012,125.595855 190.649012,126.917098 L190.649012,131.19171 C190.071366,131.000129 189.468439,130.895358 188.859976,130.880829 C185.359688,130.880829 182.637242,133.678756 182.637242,137.875648 C182.637242,142.072539 184.65963,143.393782 186.993156,143.393782 C188.38669,143.385 189.71274,142.792996 190.649012,141.761658 L190.649012,143.393782 C194.382652,141.994819 196.171688,142.38342 196.171688,141.994819 C196.171688,141.606218 194.693789,141.683938 194.693789,140.518135 Z M190.649012,141.217617 C190.308832,141.583113 189.825801,141.781844 189.326681,141.761658 C188.082134,141.683938 186.993156,140.051813 186.993156,136.398964 C186.993156,132.746114 187.770997,131.34715 188.93776,131.34715 C190.104522,131.34715 190.649012,132.202073 190.649012,134.455959 L190.649012,141.217617 Z" id="Shape" fill="#00817B" fill-rule="nonzero"></path>
                <path d="M220.362566,139.507772 C220.206998,139.507772 220.129214,139.585492 220.129214,139.818653 C220.129214,140.051813 219.818077,141.606218 218.729099,141.606218 C217.64012,141.606218 217.562336,140.362694 215.306595,137.176166 C215.851084,135.932642 216.317789,135 216.784494,134.145078 C218.029041,132.046632 219.818077,132.202073 219.818077,131.813472 C219.818077,131.42487 219.662509,131.42487 219.429156,131.42487 L213.595343,131.42487 C213.423507,131.42487 213.284206,131.564057 213.284206,131.735751 C213.284206,132.279793 215.462163,131.42487 215.462163,134.84456 C215.465423,135.495566 215.304943,136.136959 214.995458,136.709845 C213.751237,134.898555 212.197806,133.320095 210.406192,132.046632 C211.832462,131.518242 212.768462,130.146572 212.739717,128.626943 C212.697347,126.468246 210.933613,124.740518 208.772724,124.740933 C206.028278,124.823771 203.834887,127.049602 203.794537,129.792746 C203.742747,131.112615 204.218492,132.398866 205.116868,133.367876 C202.868304,133.841555 201.251181,135.812823 201.227659,138.108808 C201.227659,141.295337 203.4834,143.626943 207.217041,143.626943 C209.161271,143.715285 211.052915,142.981818 212.428581,141.606218 C213.301271,142.811547 214.675067,143.555075 216.162221,143.626943 C219.973645,143.626943 220.673703,141.062176 220.673703,139.974093 C220.673703,138.88601 220.595919,139.507772 220.362566,139.507772 Z M208.850509,125.362694 C210.328408,125.362694 211.10625,126.683938 211.10625,128.937824 C211.129762,129.963762 210.769162,130.961525 210.095055,131.735751 C208.150451,130.103627 207.217041,129.093264 207.217041,127.46114 C207.217041,125.829016 207.839314,125.362694 208.850509,125.362694 Z M209.472782,142.227979 C206.905904,142.227979 205.350221,139.507772 205.350221,136.165803 C205.350854,135.459893 205.429107,134.756189 205.583573,134.067358 C207.959667,136.267124 210.121393,138.687307 212.03966,141.295337 C211.318145,141.894197 210.410754,142.223886 209.472782,142.227979 L209.472782,142.227979 Z" id="Shape" fill="#00817B" fill-rule="nonzero"></path>
                <path d="M244.786797,123.186528 C244.786797,122.953368 244.631229,122.797927 244.320092,122.797927 L238.175142,122.797927 C237.864006,122.797927 237.708437,122.953368 237.708437,123.186528 C237.708437,123.419689 240.819804,122.953368 240.819804,127.772021 L240.819804,134.84456 L231.719056,122.875648 L224.796264,122.875648 C224.329559,122.875648 224.173991,123.108808 224.173991,123.264249 C224.173991,123.419689 225.729674,123.264249 227.51871,126.217617 L227.51871,138.341969 C227.51871,143.238342 224.329559,141.917098 224.329559,142.927461 C224.329559,143.937824 224.562912,143.316062 224.874048,143.316062 L230.941214,143.316062 C231.252351,143.316062 231.485703,143.238342 231.485703,142.927461 C231.485703,142.61658 228.374336,143.238342 228.374336,138.341969 L228.374336,127.227979 L240.975373,143.782383 C241.068867,143.947854 241.253495,144.040093 241.442078,144.015544 C241.503967,144.015544 241.563321,143.990979 241.607083,143.947253 C241.650845,143.903527 241.67543,143.844221 241.67543,143.782383 L241.67543,127.772021 C241.67543,122.953368 244.786797,124.274611 244.786797,123.186528 Z" id="Path" fill="#00817B" fill-rule="nonzero"></path>
                <path d="M255.365445,138.419689 C255.132092,138.419689 255.054308,138.65285 254.665387,139.196891 C254.083483,140.077884 253.075242,140.581589 252.020725,140.518135 C250.231689,140.518135 248.987143,138.963731 248.75379,136.243523 L255.365445,136.243523 C255.365445,132.668394 253.03192,130.880829 250.465042,130.880829 C247.898164,130.880829 244.631229,133.678756 244.631229,137.176166 C244.631229,140.673575 246.88697,143.393782 250.231689,143.393782 C252.953654,143.487369 255.275026,141.440784 255.521013,138.73057 C255.521013,138.497409 255.443229,138.419689 255.365445,138.419689 Z M250.231689,131.502591 C251.476236,131.502591 251.709589,133.056995 251.709589,135.621762 L248.676006,135.621762 C248.676006,133.056995 248.987143,131.502591 250.231689,131.502591 Z" id="Shape" fill="#00817B" fill-rule="nonzero"></path>
                <path d="M266.255229,137.098446 C267.266424,137.098446 268.12205,136.476684 268.12205,134.92228 C268.12205,133.367876 266.410798,130.880829 263.299431,130.880829 C260.188064,130.880829 257.387833,133.601036 257.387833,137.409326 C257.387833,141.217617 260.11028,143.393782 262.754941,143.393782 C265.343812,143.379295 267.575137,141.569853 268.12205,139.041451 C268.12205,138.91268 268.017574,138.80829 267.888697,138.80829 C267.344208,138.80829 267.499776,140.518135 265.010683,140.518135 C262.521589,140.518135 261.277042,138.65285 261.277042,135.07772 C261.277042,133.056995 262.210452,131.34715 263.377215,131.34715 C264.543977,131.34715 264.543977,131.813472 264.543977,132.668394 C264.543977,133.523316 264.388409,134.067358 264.388409,134.92228 C264.388409,135.777202 265.244035,137.098446 266.255229,137.098446 Z" id="Path" fill="#00817B" fill-rule="nonzero"></path>
                <path d="M274.422568,141.606218 L274.422568,123.73057 C270.300006,125.518135 268.822107,124.818653 268.822107,125.440415 C268.822107,126.062176 270.377791,125.595855 270.377791,126.917098 L270.377791,141.606218 C270.377791,142.927461 268.977675,142.46114 268.977675,143.005181 C268.977675,143.549223 268.977675,143.238342 269.211028,143.238342 L275.58933,143.238342 C275.718207,143.238342 275.822683,143.133952 275.822683,143.005181 C275.822683,142.46114 274.422568,142.927461 274.422568,141.606218 Z" id="Path" fill="#00817B" fill-rule="nonzero"></path>
                <path d="M281.967633,141.683938 L278.156208,134.222798 C280.489733,131.26943 282.200985,131.891192 282.200985,131.34715 C282.163464,131.163294 281.99982,131.032486 281.812064,131.036189 L276.833877,131.036189 C276.678309,131.036189 276.52274,131.11399 276.52274,131.26943 C276.52274,131.42487 277.922855,131.34715 277.922855,133.212435 C277.922855,135.07772 277.378366,134.689119 275.278194,136.709845 L276.989445,140.673575 C277.234612,141.077084 277.393515,141.52694 277.45615,141.994819 C277.45615,142.772021 276.678309,142.53886 276.678309,142.927461 C276.678309,143.316062 276.833877,143.238342 277.06723,143.238342 L282.978827,143.238342 C283.445532,143.238342 283.6011,143.238342 283.6011,143.005181 C283.6011,142.772021 282.66769,143.005181 281.967633,141.683938 Z" id="Path" fill="#00817B" fill-rule="nonzero"></path>
                <path d="M292.857417,126.295337 C292.857417,124.352332 293.946395,123.108808 295.968784,123.108808 C297.991173,123.108808 300.55805,126.139896 301.413676,128.393782 C301.802597,129.248705 301.802597,129.792746 302.113734,129.792746 C302.42487,129.792746 302.42487,129.637306 302.42487,129.326425 C302.42487,129.015544 302.347086,127.927461 302.191518,123.108808 C302.113734,122.642487 302.113734,122.409326 301.802597,122.409326 C301.49146,122.409326 301.724813,123.497409 300.791403,123.497409 C299.857993,123.497409 298.380093,122.409326 296.202137,122.409326 C292.390712,122.409326 289.123777,124.896373 289.123777,129.170984 C289.123777,136.865285 299.469072,133.445596 299.469072,139.274611 C299.469072,141.761658 297.913388,142.927461 296.124352,142.927461 C294.335316,142.927461 292.701849,141.839378 291.457302,139.740933 C290.212755,137.642487 290.134971,134.689119 289.512697,134.689119 C288.890424,134.689119 289.123777,134.84456 289.123777,135.388601 L289.123777,143.082902 C289.123777,143.549223 289.201561,143.704663 289.434913,143.704663 C289.668266,143.704663 289.668266,142.61658 290.523892,142.61658 C291.379518,142.61658 293.324122,143.704663 295.968784,143.704663 C300.402482,143.704663 303.824986,140.829016 303.824986,136.398964 C303.824986,128.160622 292.857417,131.11399 292.857417,126.295337 Z" id="Path" fill="#00817B" fill-rule="nonzero"></path>
                <path d="M317.826137,140.595855 L317.826137,130.880829 C313.703576,132.046632 312.225676,131.580311 312.225676,132.046632 C312.225676,132.512953 313.78136,132.202073 313.78136,133.989637 L313.78136,141.062176 C313.34571,141.626163 312.700599,141.990491 311.992324,142.072539 C311.370051,142.072539 310.825561,141.683938 310.825561,140.518135 L310.825561,130.880829 C306.703,132.046632 305.225101,131.580311 305.225101,132.046632 C305.225101,132.512953 306.780784,132.202073 306.780784,133.989637 L306.780784,139.430052 C306.780784,141.761658 307.403058,143.393782 309.814367,143.393782 C311.286238,143.484517 312.727679,142.947951 313.78136,141.917098 L313.78136,143.393782 C317.903921,142.53886 319.459605,143.082902 319.459605,142.61658 C319.459605,142.150259 317.826137,142.46114 317.826137,140.595855 Z" id="Path" fill="#00817B" fill-rule="nonzero"></path>
                <path d="M328.404785,130.880829 C326.926885,130.880829 326.382396,132.046632 325.682339,133.756477 L325.682339,133.756477 L325.682339,130.880829 C321.715346,132.046632 320.159662,131.580311 320.159662,132.046632 C320.159662,132.512953 321.79313,132.202073 321.79313,133.989637 L321.79313,141.606218 C321.79313,142.927461 320.393015,142.46114 320.393015,143.005181 C320.393015,143.549223 320.393015,143.238342 320.626367,143.238342 L327.00467,143.238342 C327.133547,143.238342 327.238022,143.133952 327.238022,143.005181 C327.238022,142.46114 325.837907,142.927461 325.837907,141.606218 L325.837907,134.92228 C325.837907,134.222798 325.993475,133.834197 326.46018,133.834197 C326.926885,133.834197 327.315806,135.15544 328.638137,135.15544 C329.960468,135.15544 330.427173,134.067358 330.427173,132.979275 C330.500457,132.417347 330.314107,131.852603 329.920712,131.444413 C329.527316,131.036223 328.969539,130.828855 328.404785,130.880829 Z" id="Path" fill="#00817B" fill-rule="nonzero"></path>
                <path d="M339.139001,141.062176 L334.860871,140.829016 C334.394166,140.829016 334.083029,140.673575 334.083029,140.284974 C334.083029,139.896373 334.705303,139.585492 337.738886,139.041451 C340.772468,138.497409 342.172584,137.253886 342.172584,134.92228 C342.172584,132.590674 340.150195,131.19171 337.038828,130.880829 C337.038828,129.948187 337.272181,129.870466 338.905648,129.870466 C340.539116,129.870466 340.772468,129.404145 340.772468,128.082902 C340.819269,127.671847 340.681583,127.261174 340.396409,126.961237 C340.111235,126.661301 339.70782,126.502862 339.294569,126.528497 C338.127807,126.528497 336.727691,127.694301 336.727691,130.025907 L336.727691,130.880829 C333.771893,130.958549 331.438368,132.435233 331.438368,135.310881 C331.438368,138.186528 333.53854,138.80829 335.638713,138.963731 L335.638713,138.963731 C332.994051,139.119171 331.438368,140.207254 331.438368,142.227979 C331.383716,143.11954 331.921384,143.94118 332.760699,144.248705 L332.760699,144.248705 C331.61899,144.330393 330.735387,145.281183 330.738303,146.42487 C330.738303,147.823834 332.449562,149.222798 336.338771,149.222798 C340.227979,149.222798 342.950425,147.590674 342.950425,144.870466 C342.950425,142.150259 341.861447,141.139896 339.139001,141.062176 Z M335.560929,135.07772 C335.560929,131.891192 336.027634,131.34715 336.805476,131.34715 C337.583317,131.34715 338.050022,131.891192 338.050022,135.07772 C338.050022,138.264249 337.583317,138.73057 336.805476,138.73057 C336.027634,138.73057 335.560929,138.186528 335.560929,135.07772 Z M336.416555,148.678756 C334.005245,148.678756 332.371778,147.901554 332.371778,146.34715 C332.371778,144.792746 332.838483,144.715026 333.305188,144.715026 C338.438943,145.336788 340.850253,144.248705 340.850253,146.502591 C340.850253,148.756477 339.527922,148.678756 336.416555,148.678756 Z" id="Shape" fill="#00817B" fill-rule="nonzero"></path>
                <path d="M354.462483,138.419689 C354.306915,138.419689 354.229131,138.65285 353.84021,139.196891 C353.247678,140.065822 352.246784,140.565857 351.195548,140.518135 C349.406512,140.518135 348.084181,138.963731 347.850828,136.243523 L354.540267,136.243523 C354.540267,132.668394 352.206742,130.880829 349.639864,130.880829 C347.072987,130.880829 343.728267,133.678756 343.728267,137.176166 C343.728267,140.673575 346.061792,143.393782 349.406512,143.393782 C352.114529,143.448928 354.413412,141.42217 354.695836,138.73057 C354.695836,138.497409 354.618052,138.419689 354.462483,138.419689 Z M349.328728,131.502591 C350.573274,131.502591 350.884411,133.056995 350.884411,135.621762 L347.850828,135.621762 C347.850828,133.056995 348.084181,131.502591 349.328728,131.502591 L349.328728,131.502591 Z" id="Shape" fill="#00817B" fill-rule="nonzero"></path>
                <path d="M364.263289,130.880829 C362.78539,130.880829 362.240901,132.046632 361.540843,133.756477 L361.463059,133.756477 L361.463059,130.880829 C357.496066,132.046632 356.018167,131.580311 356.018167,132.046632 C356.018167,132.512953 357.57385,132.202073 357.57385,133.989637 L357.57385,141.606218 C357.57385,142.927461 356.173735,142.46114 356.173735,143.005181 C356.173735,143.549223 356.251519,143.238342 356.484872,143.238342 L362.78539,143.238342 C363.018742,143.238342 363.096527,143.160622 363.096527,143.005181 C363.096527,142.849741 361.696411,142.927461 361.696411,141.606218 L361.696411,134.92228 C361.696411,134.222798 361.85198,133.834197 362.318685,133.834197 C362.78539,133.834197 363.174311,135.15544 364.418858,135.15544 C364.964061,135.137612 365.476701,134.891796 365.831705,134.477966 C366.186709,134.064136 366.351429,133.520347 366.285678,132.979275 C366.330821,132.423801 366.135077,131.8757 365.748191,131.474264 C365.361305,131.072828 364.820527,130.856709 364.263289,130.880829 L364.263289,130.880829 Z" id="Path" fill="#00817B" fill-rule="nonzero"></path>
                <path d="M378.731146,131.036269 L374.919721,131.036269 C374.747885,131.036269 374.608584,131.175456 374.608584,131.34715 C374.608584,131.813472 375.930915,131.34715 375.930915,133.834197 C375.881931,134.679682 375.725094,135.515457 375.46421,136.321244 L374.5308,138.65285 L372.508412,133.523316 C372.308246,133.134207 372.176681,132.713545 372.119491,132.279793 C372.119491,131.42487 372.897333,131.813472 372.897333,131.26943 C372.897333,130.725389 372.819548,131.036269 372.508412,131.036269 L366.830167,131.036269 C366.596814,131.036269 366.441246,131.11399 366.441246,131.34715 C366.441246,131.580311 367.219088,131.34715 367.763577,132.746114 L372.508412,143.704663 C371.652786,145.725389 371.263865,147.046632 370.719376,147.046632 C370.174886,147.046632 370.252671,145.259067 368.619203,145.259067 C368.116495,145.257164 367.636182,145.46668 367.295818,145.836337 C366.955454,146.205994 366.786449,146.701677 366.830167,147.202073 C366.786655,147.743748 366.972157,148.278878 367.341664,148.677616 C367.71117,149.076355 368.230909,149.30226 368.774771,149.300528 C370.330455,149.300528 371.341649,148.134715 372.352843,145.492228 L376.864325,134.145078 C377.953304,131.42487 379.042282,131.580311 379.042282,131.26943 C379.042282,130.958549 378.964498,131.036269 378.731146,131.036269 Z" id="Path" fill="#00817B" fill-rule="nonzero"></path>
            </g>
        </g>
    </g>
</svg>