<?xml version="1.0" encoding="UTF-8" standalone="no"?>
<svg
   xmlns:dc="http://purl.org/dc/elements/1.1/"
   xmlns:cc="http://creativecommons.org/ns#"
   xmlns:rdf="http://www.w3.org/1999/02/22-rdf-syntax-ns#"
   xmlns:svg="http://www.w3.org/2000/svg"
   xmlns="http://www.w3.org/2000/svg"
   viewBox="0 0 892.21332 244.75999"
   height="244.75999"
   width="892.21332"
   xml:space="preserve"
   id="svg2"
   version="1.1"><metadata
     id="metadata8"><rdf:RDF><cc:Work
         rdf:about=""><dc:format>image/svg+xml</dc:format><dc:type
           rdf:resource="http://purl.org/dc/dcmitype/StillImage" /></cc:Work></rdf:RDF></metadata><defs
     id="defs6" /><g
     transform="matrix(1.3333333,0,0,-1.3333333,0,244.76)"
     id="g10"><g
       transform="scale(0.1)"
       id="g12"><path
         id="path14"
         style="fill:#1a3e7e;fill-opacity:1;fill-rule:nonzero;stroke:none"
         d="M 1899.25,414.77 V 389.691 H 6687.11 V 414.77 H 1899.25" /><path
         id="path16"
         style="fill:#1a3e7e;fill-opacity:1;fill-rule:nonzero;stroke:none"
         d="m 2326.77,1711.96 h -8.36 c -10.02,20.07 -39.29,78.6 -159.7,78.6 -139.65,0 -214.07,-91.98 -214.07,-250.02 0,-29.26 0,-107.03 51.01,-174.76 30.1,-39.3 75.25,-76.1 151.35,-76.1 102.85,0 155.53,51.01 193.15,95.33 l 9.2,-5.85 -9.2,-82.78 c -63.54,-35.12 -135.46,-52.68 -211.55,-52.68 -163.06,0 -298.52,101.18 -298.52,289.32 0,168.07 102.86,302.69 326.12,302.69 68.56,0 128.77,-11.7 195.66,-41.81 l -25.09,-81.94" /><path
         id="path18"
         style="fill:#1a3e7e;fill-opacity:1;fill-rule:nonzero;stroke:none"
         d="m 2685.54,1493.71 c 0,40.97 0,135.47 -83.61,135.47 -86.13,0 -91.15,-103.69 -92.82,-135.47 z m -178.1,-40.97 c 0,-30.94 0,-158.04 132.95,-158.04 37.62,0 91.14,20.91 118.74,52.68 l 9.2,-5.85 c -2.51,-5.85 -5.02,-11.71 -6.69,-17.56 l -7.53,-35.95 c -5.85,-6.7 -60.21,-42.65 -140.48,-42.65 -30.94,0 -105.35,8.36 -151.35,55.18 -55.18,56.03 -56.02,130.45 -56.02,159.72 0,138.8 95.33,202.36 193.99,202.36 30.94,0 115.4,0 157.21,-76.1 14.21,-26.76 26.76,-70.24 24.25,-133.79 h -274.27" /><path
         id="path20"
         style="fill:#1a3e7e;fill-opacity:1;fill-rule:nonzero;stroke:none"
         d="m 3207.34,1358.25 c 0,-41.81 2.51,-83.61 5.86,-102.85 -18.4,1.68 -35.96,5.02 -54.36,5.02 -18.4,0 -38.46,-3.34 -54.35,-5.02 6.69,40.14 10.04,118.74 10.04,158.04 0,43.48 0,112.05 -5.85,134.62 -10.04,39.31 -41.82,55.19 -77.78,55.19 -31.76,0 -61.03,-20.9 -74.41,-48.5 -11.71,-24.25 -14.22,-81.94 -14.22,-110.37 0,-76.09 1.67,-132.12 5.86,-188.98 -8.37,0.84 -45.16,5.02 -52.69,5.02 -16.71,0 -35.11,-2.51 -52.67,-5.02 7.52,111.21 8.36,123.76 8.36,223.26 0,106.2 -0.84,116.23 -6.69,178.11 8.36,-1.68 25.09,-5.02 55.18,-5.02 22.58,0 32.62,2.51 46,5.02 -4.18,-24.25 -4.18,-27.59 -4.18,-69.4 34.28,45.99 65.22,73.58 129.6,73.58 91.15,0 139.65,-51.84 139.65,-141.31 0,-23.42 -3.35,-120.41 -3.35,-161.39" /><path
         id="path22"
         style="fill:#1a3e7e;fill-opacity:1;fill-rule:nonzero;stroke:none"
         d="m 3432.3,1801.43 c -3.34,-11.71 -3.34,-25.93 -5.85,-151.35 37.63,0 42.65,0 57.7,0.84 l 30.93,2.51 c -1.67,-7.53 -2.51,-12.55 -2.51,-20.91 0,-9.2 0.84,-16.72 2.51,-25.09 -35.95,3.35 -45.15,3.35 -91.14,3.35 0,-35.96 -2.51,-125.42 -2.51,-160.55 0,-123.75 4.18,-159.71 60.21,-159.71 18.39,0 33.44,5.86 50.16,17.57 -0.83,-4.19 -3.34,-13.39 -3.34,-20.07 0,-8.37 1.67,-13.38 3.34,-19.24 -24.25,-12.54 -66.89,-24.24 -94.48,-24.24 -23.42,0 -56.03,6.68 -75.25,21.73 -28.44,22.58 -35.13,61.04 -35.13,94.49 0,36.79 5.02,183.12 5.02,250.02 h -25.09 c -15.89,0 -29.27,-1.67 -39.3,-2.51 0.84,4.18 2.51,10.03 2.51,18.4 0,9.2 -0.84,16.72 -2.51,26.76 5.85,-0.84 17.56,-3.35 28.43,-3.35 h 36.8 c 0,23.41 0,56.86 -1.68,95.33 47.66,21.73 80.27,45.15 95.33,58.53 l 5.85,-2.51" /><path
         id="path24"
         style="fill:#1a3e7e;fill-opacity:1;fill-rule:nonzero;stroke:none"
         d="m 3587.85,1337.35 c 1.67,36.79 1.67,101.18 1.67,133.79 0,91.14 -1.67,112.05 -5.85,185.63 19.23,-3.34 33.44,-5.02 55.18,-5.02 20.07,0 34.29,1.68 47.67,5.02 -5.02,-42.64 -5.02,-46.82 -5.02,-87.8 22.58,35.96 56.03,91.98 122.92,91.98 8.36,0 15.05,-0.84 21.74,-2.5 -6.69,-12.55 -7.53,-48.5 -7.53,-60.21 0,-13.38 1.68,-25.92 4.19,-35.96 l -5.86,-4.18 c -14.21,11.71 -45.16,11.71 -49.34,11.71 -37.62,0 -64.38,-23.42 -74.41,-45.15 -5.86,-12.55 -10.04,-25.09 -10.04,-82.79 0,-53.51 2.51,-134.63 7.53,-186.47 -10.04,0.84 -30.94,5.02 -48.5,5.02 -14.22,0 -32.61,-2.51 -57.7,-5.02 l 3.35,81.95" /><path
         id="path26"
         style="fill:#1a3e7e;fill-opacity:1;fill-rule:nonzero;stroke:none"
         d="m 4085.4,1462.78 c -95.33,-25.09 -129.61,-34.29 -129.61,-94.49 0,-44.32 21.74,-71.91 55.18,-71.91 45.16,0 74.43,35.95 74.43,79.43 z m -61.05,20.9 c 49.34,13.38 56.03,15.89 60.21,23.41 2.51,5.02 3.35,10.87 3.35,16.73 0,63.55 -35.96,88.63 -81.12,88.63 -63.54,0 -85.29,-39.3 -90.3,-59.36 -4.19,0.83 -8.37,1.66 -12.55,1.66 -4.18,0 -9.2,-0.83 -13.38,-1.66 2.51,15.88 4.18,26.75 4.18,40.96 0,7.53 0,15.06 -0.83,22.58 63.55,38.46 89.48,46.83 132.95,46.83 90.31,0 152.19,-40.97 152.19,-125.42 0,-30.95 -2.51,-115.4 -2.51,-142.99 0,-81.95 0.84,-102.02 29.27,-102.02 8.36,0 15.88,3.35 23.4,6.69 -1.67,-5.02 -3.34,-10.04 -3.34,-15.05 0,-5.02 1.67,-10.03 3.34,-15.05 -21.73,-8.36 -47.65,-18.4 -71.07,-18.4 -49.34,0 -59.36,24.25 -69.4,51.01 -25.92,-34.28 -68.57,-56.86 -112.05,-56.86 -97,0 -115.4,69.4 -115.4,102.01 0,92.82 56.87,107.87 134.63,128.78 l 28.43,7.52" /><path
         id="path28"
         style="fill:#1a3e7e;fill-opacity:1;fill-rule:nonzero;stroke:none"
         d="m 4313.71,1380.83 c 38.45,-83.62 80.27,-96.16 129.61,-96.16 66.05,0 109.53,44.32 109.53,104.52 0,66.06 -52.68,89.47 -68.57,96.17 -23.41,10.03 -62.71,25.08 -86.12,35.11 -81.11,35.96 -105.36,78.6 -105.36,148 0,73.59 43.48,167.24 194.83,167.24 61.04,0 97.83,-15.88 138.8,-34.28 -16.72,-40.97 -18.39,-47.66 -25.92,-79.44 h -11.71 c -12.53,47.67 -56.85,72.75 -109.54,72.75 -66.05,0 -98.66,-40.97 -98.66,-90.31 0,-61.04 42.65,-77.76 116.23,-106.19 64.39,-25.09 89.46,-34.29 113.72,-61.04 35.12,-37.63 40.97,-86.97 40.97,-110.38 0,-85.29 -59.37,-183.12 -212.39,-183.12 -71.91,0 -126.26,27.59 -156.36,42.64 14.21,43.48 15.05,54.35 19.23,94.49 h 11.71" /><path
         id="path30"
         style="fill:#1a3e7e;fill-opacity:1;fill-rule:nonzero;stroke:none"
         d="m 4870.63,1801.43 c -3.35,-11.71 -3.35,-25.93 -5.86,-151.35 37.63,0 42.65,0 57.7,0.84 l 30.93,2.51 c -1.67,-7.53 -2.5,-12.55 -2.5,-20.91 0,-9.2 0.83,-16.72 2.5,-25.09 -35.94,3.35 -45.14,3.35 -91.14,3.35 0,-35.96 -2.51,-125.42 -2.51,-160.55 0,-123.75 4.19,-159.71 60.21,-159.71 18.39,0 33.44,5.86 50.17,17.57 -0.84,-4.19 -3.35,-13.39 -3.35,-20.07 0,-8.37 1.68,-13.38 3.35,-19.24 -24.24,-12.54 -66.89,-24.24 -94.49,-24.24 -23.41,0 -56.03,6.68 -75.25,21.73 -28.43,22.58 -35.12,61.04 -35.12,94.49 0,36.79 5.02,183.12 5.02,250.02 h -25.09 c -15.89,0 -29.27,-1.67 -39.31,-2.51 0.84,4.18 2.51,10.03 2.51,18.4 0,9.2 -0.83,16.72 -2.51,26.76 5.86,-0.84 17.57,-3.35 28.44,-3.35 h 36.79 c 0,23.41 0,56.86 -1.67,95.33 47.66,21.73 80.27,45.15 95.32,58.53 l 5.86,-2.51" /><path
         id="path32"
         style="fill:#1a3e7e;fill-opacity:1;fill-rule:nonzero;stroke:none"
         d="m 5231.87,1462.78 c -95.32,-25.09 -129.61,-34.29 -129.61,-94.49 0,-44.32 21.75,-71.91 55.2,-71.91 45.14,0 74.41,35.95 74.41,79.43 z m -61.03,20.9 c 49.33,13.38 56.02,15.89 60.2,23.41 2.51,5.02 3.34,10.87 3.34,16.73 0,63.55 -35.96,88.63 -81.1,88.63 -63.56,0 -85.3,-39.3 -90.32,-59.36 -4.18,0.83 -8.36,1.66 -12.53,1.66 -4.18,0 -9.2,-0.83 -13.38,-1.66 2.51,15.88 4.18,26.75 4.18,40.96 0,7.53 0,15.06 -0.84,22.58 63.55,38.46 89.47,46.83 132.96,46.83 90.3,0 152.17,-40.97 152.17,-125.42 0,-30.95 -2.51,-115.4 -2.51,-142.99 0,-81.95 0.84,-102.02 29.27,-102.02 8.37,0 15.89,3.35 23.42,6.69 -1.68,-5.02 -3.35,-10.04 -3.35,-15.05 0,-5.02 1.67,-10.03 3.35,-15.05 -21.74,-8.36 -47.67,-18.4 -71.08,-18.4 -49.33,0 -59.37,24.25 -69.4,51.01 -25.93,-34.28 -68.56,-56.86 -112.05,-56.86 -96.99,0 -115.39,69.4 -115.39,102.01 0,92.82 56.86,107.87 134.62,128.78 l 28.44,7.52" /><path
         id="path34"
         style="fill:#1a3e7e;fill-opacity:1;fill-rule:nonzero;stroke:none"
         d="m 5554.67,1801.43 c -3.35,-11.71 -3.35,-25.93 -5.86,-151.35 37.63,0 42.65,0 57.7,0.84 l 30.94,2.51 c -1.67,-7.53 -2.5,-12.55 -2.5,-20.91 0,-9.2 0.83,-16.72 2.5,-25.09 -35.95,3.35 -45.15,3.35 -91.15,3.35 0,-35.96 -2.5,-125.42 -2.5,-160.55 0,-123.75 4.18,-159.71 60.2,-159.71 18.4,0 33.45,5.86 50.18,17.57 -0.84,-4.19 -3.35,-13.39 -3.35,-20.07 0,-8.37 1.68,-13.38 3.35,-19.24 -24.25,-12.54 -66.9,-24.24 -94.5,-24.24 -23.4,0 -56.02,6.68 -75.25,21.73 -28.43,22.58 -35.12,61.04 -35.12,94.49 0,36.79 5.02,183.12 5.02,250.02 h -25.09 c -15.88,0 -29.26,-1.67 -39.3,-2.51 0.84,4.18 2.51,10.03 2.51,18.4 0,9.2 -0.83,16.72 -2.51,26.76 5.86,-0.84 17.57,-3.35 28.43,-3.35 h 36.79 c 0,23.41 0,56.86 -1.67,95.33 47.67,21.73 80.28,45.15 95.32,58.53 l 5.86,-2.51" /><path
         id="path36"
         style="fill:#1a3e7e;fill-opacity:1;fill-rule:nonzero;stroke:none"
         d="m 5959.4,1493.71 c 0,40.97 0,135.47 -83.61,135.47 -86.14,0 -91.15,-103.69 -92.82,-135.47 z m -178.1,-40.97 c 0,-30.94 0,-158.04 132.94,-158.04 37.63,0 91.15,20.91 118.74,52.68 l 9.2,-5.85 c -2.51,-5.85 -5.02,-11.71 -6.69,-17.56 l -7.52,-35.95 c -5.86,-6.7 -60.21,-42.65 -140.48,-42.65 -30.94,0 -105.35,8.36 -151.35,55.18 -55.19,56.03 -56.03,130.45 -56.03,159.72 0,138.8 95.33,202.36 194,202.36 30.93,0 115.4,0 157.2,-76.1 14.21,-26.76 26.76,-70.24 24.25,-133.79 H 5781.3" /><path
         id="path38"
         style="fill:#1a3e7e;fill-opacity:1;fill-rule:nonzero;stroke:none"
         d="m 2168.81,813.75 c -31.49,1.16 -62.97,2.328 -94.47,2.328 -33.24,0 -66.48,-1.168 -99.72,-2.328 v -58.309 c 0,-75.242 2.33,-101.492 5.24,-138.23 -8.74,0.59 -23.91,3.5 -40.24,3.5 -14,0 -27.41,-2.32 -41.4,-3.5 4.66,88.648 5.24,176.711 5.24,265.355 0,45.489 -1.75,89.809 -5.83,134.714 11.66,-1.16 32.66,-3.49 41.99,-3.49 11.08,0 32.66,2.33 40.24,3.49 -2.91,-32.073 -5.24,-57.151 -5.24,-166.21 29.16,-1.16 58.89,-2.332 88.05,-2.332 35.58,0 70.57,1.172 106.14,2.332 0,15.168 -0.58,85.735 -1.16,100.313 0,18.078 -0.58,22.746 -2.92,65.897 11.09,-1.16 29.75,-3.49 42.58,-3.49 10.5,0 29.74,2.33 40.82,3.49 -7.58,-60.647 -8.16,-201.78 -8.16,-262.428 0,-46.071 0,-95.641 5.83,-137.641 -14,1.18 -28.58,3.5 -42.57,3.5 -12.25,0 -27.41,-2.32 -39.66,-3.5 0.58,10.5 4.66,81.07 4.66,102.641 l 0.58,93.898" /><path
         id="path40"
         style="fill:#1a3e7e;fill-opacity:1;fill-rule:nonzero;stroke:none"
         d="m 2497.72,783.422 c 0,28.578 0,94.476 -58.32,94.476 -60.07,0 -63.56,-72.32 -64.74,-94.476 z m -124.22,-28.57 c 0,-21.582 0,-110.223 92.73,-110.223 26.24,0 63.56,14.582 82.81,36.73 l 6.42,-4.078 c -1.75,-4.082 -3.5,-8.16 -4.67,-12.242 l -5.25,-25.078 c -4.08,-4.66 -41.99,-29.742 -97.98,-29.742 -21.57,0 -73.47,5.82 -105.55,38.492 -38.49,39.07 -39.08,90.969 -39.08,111.379 0,96.812 66.49,141.137 135.31,141.137 21.57,0 80.48,0 109.64,-53.075 9.91,-18.652 18.66,-48.98 16.91,-93.3 H 2373.5" /><path
         id="path42"
         style="fill:#1a3e7e;fill-opacity:1;fill-rule:nonzero;stroke:none"
         d="m 2756.64,761.84 c -66.49,-17.5 -90.39,-23.899 -90.39,-65.899 0,-30.902 15.16,-50.152 38.48,-50.152 31.5,0 51.91,25.082 51.91,55.41 z m -42.57,14.582 c 34.4,9.328 39.07,11.09 41.99,16.34 1.75,3.5 2.33,7.578 2.33,11.66 0,44.316 -25.07,61.816 -56.57,61.816 -44.32,0 -59.49,-27.414 -62.99,-41.41 -2.92,0.594 -5.83,1.172 -8.75,1.172 -2.91,0 -6.41,-0.578 -9.32,-1.172 1.75,11.078 2.91,18.664 2.91,28.578 0,5.254 0,10.496 -0.58,15.742 44.32,26.836 62.4,32.665 92.73,32.665 62.98,0 106.14,-28.583 106.14,-87.485 0,-21.566 -1.75,-80.476 -1.75,-99.719 0,-57.16 0.58,-71.148 20.41,-71.148 5.83,0 11.07,2.328 16.33,4.66 -1.17,-3.492 -2.34,-7 -2.34,-10.5 0,-3.492 1.17,-6.992 2.34,-10.492 -15.17,-5.828 -33.24,-12.828 -49.57,-12.828 -34.41,0 -41.41,16.91 -48.41,35.57 -18.08,-23.91 -47.82,-39.652 -78.14,-39.652 -67.66,0 -80.48,48.402 -80.48,71.14 0,64.743 39.66,75.243 93.88,89.821 l 19.84,5.242" /><path
         id="path44"
         style="fill:#1a3e7e;fill-opacity:1;fill-rule:nonzero;stroke:none"
         d="m 2935.67,1045.86 c 19.25,0 25.66,1.75 37.32,3.5 -5.83,-62.985 -5.83,-154.547 -5.83,-214.622 0,-11.668 -1.74,-151.629 5.25,-217.527 -11.66,1.18 -23.32,3.5 -35.57,3.5 -9.92,0 -19.83,-1.16 -40.24,-3.5 6.41,44.91 5.83,218.117 5.83,232.113 0,108.477 -2.91,154.546 -7,200.036 14.59,-2.34 21.58,-3.5 40.24,-3.5" /><path
         id="path46"
         style="fill:#1a3e7e;fill-opacity:1;fill-rule:nonzero;stroke:none"
         d="m 3128.69,998.039 c -2.33,-8.164 -2.33,-18.082 -4.09,-105.562 26.25,0 29.75,0 40.25,0.586 l 21.58,1.75 c -1.17,-5.254 -1.76,-8.75 -1.76,-14.583 0,-6.414 0.59,-11.66 1.76,-17.488 -25.08,2.324 -31.49,2.324 -63.57,2.324 0,-25.078 -1.75,-87.488 -1.75,-111.976 0,-86.309 2.92,-111.379 41.99,-111.379 12.83,0 23.33,4.078 34.99,12.238 -0.58,-2.91 -2.33,-9.32 -2.33,-13.988 0,-5.832 1.17,-9.332 2.33,-13.41 -16.91,-8.75 -46.66,-16.91 -65.9,-16.91 -16.33,0 -39.07,4.66 -52.49,15.148 -19.82,15.75 -24.49,42.582 -24.49,65.902 0,25.661 3.5,127.731 3.5,174.375 h -17.49 c -11.09,0 -20.42,-1.164 -27.42,-1.738 0.59,2.91 1.75,6.992 1.75,12.82 0,6.418 -0.58,11.672 -1.75,18.665 4.09,-0.586 12.25,-2.336 19.83,-2.336 h 25.66 c 0,16.339 0,39.66 -1.17,66.484 33.24,15.168 55.99,31.496 66.48,40.828 l 4.09,-1.75" /><path
         id="path48"
         style="fill:#1a3e7e;fill-opacity:1;fill-rule:nonzero;stroke:none"
         d="m 3317.06,1030.7 c -4.09,-65.321 -4.09,-106.727 -4.09,-178.466 25.08,35.586 57.74,47.832 90.98,47.832 30.32,0 62.4,-9.921 81.07,-39.082 13.4,-20.996 13.4,-44.906 13.4,-71.144 0,-13.418 -1.16,-44.91 -1.16,-62.988 0,-32.082 1.75,-86.313 3.5,-109.641 -11.66,2.34 -23.33,3.5 -36.16,3.5 -12.83,0 -30.9,-2.91 -39.08,-3.5 3.51,32.66 6.42,81.641 6.42,121.891 0,54.238 -0.58,69.398 -4.08,82.82 -6.42,23.906 -26.24,36.152 -50.15,36.152 -21.58,0 -48.41,-8.75 -57.74,-37.914 -4.66,-14.582 -7,-27.988 -7,-68.23 0,-76.399 0,-82.239 2.92,-134.719 -11.67,1.75 -24.5,3.5 -36.74,3.5 -12.25,0 -29.75,-2.91 -35.58,-3.5 4.67,78.73 4.67,104.98 4.67,228.617 l -0.59,113.719 c 0,23.328 -2.33,58.903 -4.08,89.813 11.67,-2.34 24.49,-3.5 39.66,-3.5 14.58,0 23.91,1.16 34.99,3.5 l -1.16,-18.66" /><path
         id="path50"
         style="fill:#1a3e7e;fill-opacity:1;fill-rule:nonzero;stroke:none"
         d="m 3785.92,672.039 c -8.16,-11.668 -9.33,-26.84 -11.67,-40.828 -32.07,-16.91 -64.15,-20.992 -85.72,-20.992 -96.23,0 -145.21,72.312 -145.21,142.301 0,76.39 47.82,149.293 152.79,149.293 35.57,0 58.91,-7.586 89.23,-20.418 -4.08,-7.579 -10.5,-25.079 -13.41,-54.817 h -11.08 c -0.59,2.922 -11.67,48.41 -61.82,48.41 -27.41,0 -50.74,-16.328 -62.4,-33.828 -14.58,-21.582 -18.08,-48.398 -18.08,-78.73 0,-57.149 19.24,-119.551 86.89,-119.551 33.82,0 49.58,15.152 71.15,34.402 l 9.33,-5.242" /><path
         id="path52"
         style="fill:#1a3e7e;fill-opacity:1;fill-rule:nonzero;stroke:none"
         d="m 3973.11,761.84 c -66.48,-17.5 -90.39,-23.899 -90.39,-65.899 0,-30.902 15.17,-50.152 38.49,-50.152 31.49,0 51.9,25.082 51.9,55.41 z m -42.57,14.582 c 34.41,9.328 39.07,11.09 41.99,16.34 1.75,3.5 2.33,7.578 2.33,11.66 0,44.316 -25.07,61.816 -56.56,61.816 -44.33,0 -59.5,-27.414 -62.99,-41.41 -2.92,0.594 -5.83,1.172 -8.75,1.172 -2.91,0 -6.42,-0.578 -9.33,-1.172 1.75,11.078 2.91,18.664 2.91,28.578 0,5.254 0,10.496 -0.57,15.742 44.31,26.836 62.4,32.665 92.72,32.665 62.99,0 106.14,-28.583 106.14,-87.485 0,-21.566 -1.75,-80.476 -1.75,-99.719 0,-57.16 0.58,-71.148 20.42,-71.148 5.83,0 11.07,2.328 16.32,4.66 -1.17,-3.492 -2.33,-7 -2.33,-10.5 0,-3.492 1.16,-6.992 2.33,-10.492 -15.16,-5.828 -33.24,-12.828 -49.57,-12.828 -34.41,0 -41.4,16.91 -48.41,35.57 -18.07,-23.91 -47.82,-39.652 -78.14,-39.652 -67.66,0 -80.48,48.402 -80.48,71.14 0,64.743 39.66,75.243 93.89,89.821 l 19.83,5.242" /><path
         id="path54"
         style="fill:#1a3e7e;fill-opacity:1;fill-rule:nonzero;stroke:none"
         d="m 4110.15,674.359 c 1.17,25.672 1.17,70.571 1.17,93.321 0,63.57 -1.17,78.148 -4.08,129.465 13.41,-2.332 23.32,-3.504 38.49,-3.504 13.99,0 23.91,1.172 33.24,3.504 -3.5,-29.735 -3.5,-32.657 -3.5,-61.239 15.75,25.078 39.08,64.16 85.73,64.16 5.84,0 10.49,-0.586 15.16,-1.757 -4.67,-8.75 -5.24,-33.821 -5.24,-41.993 0,-9.328 1.16,-18.066 2.91,-25.066 l -4.08,-2.922 c -9.92,8.164 -31.5,8.164 -34.41,8.164 -26.25,0 -44.91,-16.332 -51.9,-31.48 -4.08,-8.75 -7,-17.5 -7,-57.742 0,-37.321 1.75,-93.899 5.25,-130.059 -7,0.59 -21.58,3.5 -33.83,3.5 -9.91,0 -22.74,-1.75 -40.24,-3.5 l 2.33,57.148" /><path
         id="path56"
         style="fill:#1a3e7e;fill-opacity:1;fill-rule:nonzero;stroke:none"
         d="m 4490.39,783.422 c 0,28.578 0,94.476 -58.32,94.476 -60.07,0 -63.57,-72.32 -64.74,-94.476 z m -124.22,-28.57 c 0,-21.582 0,-110.223 92.72,-110.223 26.24,0 63.57,14.582 82.82,36.73 l 6.41,-4.078 c -1.75,-4.082 -3.5,-8.16 -4.67,-12.242 l -5.24,-25.078 c -4.08,-4.66 -41.99,-29.742 -97.98,-29.742 -21.57,0 -73.48,5.82 -105.56,38.492 -38.48,39.07 -39.07,90.969 -39.07,111.379 0,96.812 66.49,141.137 135.3,141.137 21.58,0 80.48,0 109.64,-53.075 9.92,-18.652 18.67,-48.98 16.92,-93.3 h -191.29" /><path
         id="path58"
         style="fill:#1a3e7e;fill-opacity:1;fill-rule:nonzero;stroke:none"
         d="m 4787.79,704.691 c 26.82,-58.32 55.99,-67.07 90.39,-67.07 46.07,0 76.4,30.91 76.4,72.899 0,46.082 -36.74,62.41 -47.82,67.058 -16.33,7.024 -43.74,17.5 -60.07,24.512 -56.57,25.082 -73.48,54.812 -73.48,103.219 0,51.324 30.32,116.641 135.88,116.641 42.58,0 68.24,-11.08 96.81,-23.911 -11.67,-28.578 -12.83,-33.242 -18.08,-55.406 h -8.17 c -8.74,33.242 -39.64,50.738 -76.39,50.738 -46.08,0 -68.82,-28.574 -68.82,-62.984 0,-42.567 29.74,-54.239 81.06,-74.071 44.92,-17.492 62.41,-23.906 79.32,-42.566 24.49,-26.238 28.57,-60.66 28.57,-76.988 0,-59.481 -41.4,-127.711 -148.12,-127.711 -50.16,0 -88.07,19.238 -109.06,29.75 9.92,30.32 10.5,37.91 13.41,65.89 h 8.17" /><path
         id="path60"
         style="fill:#1a3e7e;fill-opacity:1;fill-rule:nonzero;stroke:none"
         d="m 5198.92,691.281 10.5,24.489 c 12.82,29.742 40.23,110.808 40.82,112.558 5.83,19.246 15.17,49.57 21.58,68.817 9.33,-2.332 16.33,-3.504 25.66,-3.504 9.91,0 18.07,1.757 26.25,3.504 -29.75,-58.321 -161.56,-353.415 -179.63,-430.383 -7.58,1.738 -15.17,3.488 -26.24,3.488 -9.34,0 -16.92,-1.168 -26.83,-3.488 l 9.33,15.148 c 12.24,19.84 50.74,95.649 65.32,124.809 -5.25,17.492 -10.5,29.16 -56.57,135.883 l -69.4,154.543 c 20.41,-2.918 31.49,-3.504 40.82,-3.504 9.33,0 22.16,1.172 40.24,3.504 6.41,-23.915 44.32,-123.645 50.74,-139.383 l 27.41,-66.481" /><path
         id="path62"
         style="fill:#1a3e7e;fill-opacity:1;fill-rule:nonzero;stroke:none"
         d="m 5356.37,683.109 c 5.25,-12.238 17.5,-44.308 71.73,-44.308 29.16,0 43.74,20.41 43.74,41.398 0,24.492 -22.74,32.071 -50.16,42.571 -7.57,2.921 -34.99,12.25 -39.64,14.582 -11.67,5.828 -46.08,21 -46.08,74.058 0,51.918 36.74,89.817 101.48,89.817 34.99,0 61.23,-10.497 78.14,-17.489 -11.66,-22.754 -13.41,-39.082 -14.58,-51.918 h -9.32 c -9.34,18.676 -20.41,40.832 -55.99,40.832 -28,0 -47.25,-14.578 -47.25,-38.48 0,-25.672 19.84,-32.082 63.58,-46.66 36.74,-12.25 78.73,-25.672 78.73,-82.231 0,-36.16 -28.58,-96.23 -111.39,-96.23 -33.24,0 -56.57,9.91 -86.32,22.738 1.75,4.66 6.42,15.762 8.75,24.5 2.92,9.91 2.92,20.422 4.08,26.82 h 10.5" /><path
         id="path64"
         style="fill:#1a3e7e;fill-opacity:1;fill-rule:nonzero;stroke:none"
         d="m 5674.2,998.039 c -2.33,-8.164 -2.33,-18.082 -4.08,-105.562 26.24,0 29.75,0 40.25,0.586 l 21.57,1.75 c -1.16,-5.254 -1.75,-8.75 -1.75,-14.583 0,-6.414 0.59,-11.66 1.75,-17.488 -25.08,2.324 -31.5,2.324 -63.57,2.324 0,-25.078 -1.74,-87.488 -1.74,-111.976 0,-86.309 2.91,-111.379 41.98,-111.379 12.83,0 23.33,4.078 34.99,12.238 -0.58,-2.91 -2.32,-9.32 -2.32,-13.988 0,-5.832 1.16,-9.332 2.32,-13.41 -16.91,-8.75 -46.65,-16.91 -65.9,-16.91 -16.33,0 -39.07,4.66 -52.48,15.148 -19.83,15.75 -24.5,42.582 -24.5,65.902 0,25.661 3.5,127.731 3.5,174.375 h -17.5 c -11.08,0 -20.41,-1.164 -27.41,-1.738 0.59,2.91 1.76,6.992 1.76,12.82 0,6.418 -0.59,11.672 -1.76,18.665 4.08,-0.586 12.25,-2.336 19.84,-2.336 h 25.65 c 0,16.339 0,39.66 -1.16,66.484 33.24,15.168 55.98,31.496 66.48,40.828 l 4.08,-1.75" /><path
         id="path66"
         style="fill:#1a3e7e;fill-opacity:1;fill-rule:nonzero;stroke:none"
         d="m 5956.45,783.422 c 0,28.578 0,94.476 -58.31,94.476 -60.07,0 -63.57,-72.32 -64.74,-94.476 z m -124.22,-28.57 c 0,-21.582 0,-110.223 92.74,-110.223 26.24,0 63.56,14.582 82.81,36.73 l 6.41,-4.078 c -1.75,-4.082 -3.5,-8.16 -4.66,-12.242 l -5.26,-25.078 c -4.08,-4.66 -41.98,-29.742 -97.97,-29.742 -21.58,0 -73.48,5.82 -105.55,38.492 -38.5,39.07 -39.08,90.969 -39.08,111.379 0,96.812 66.48,141.137 135.3,141.137 21.58,0 80.48,0 109.64,-53.075 9.91,-18.652 18.66,-48.98 16.91,-93.3 h -191.29" /><path
         id="path68"
         style="fill:#1a3e7e;fill-opacity:1;fill-rule:nonzero;stroke:none"
         d="m 6143.65,617.211 c -11.09,1.18 -21.58,3.5 -33.24,3.5 -14.01,0 -32.67,-2.91 -38.5,-3.5 3.5,62.988 4.08,74.648 4.08,153.969 0,63.558 -2.33,95.058 -4.67,125.965 13.42,-1.747 23.92,-3.504 40.25,-3.504 13.99,0 22.16,1.757 30.91,3.504 -2.34,-14.579 -2.34,-18.075 -3.5,-51.903 20.41,34.414 48.41,54.238 88.64,54.238 60.66,0 76.99,-35.578 85.74,-54.238 19.24,29.746 48.98,54.238 95.05,54.238 66.49,0 88.65,-50.156 88.65,-81.652 0,-23.906 -1.75,-61.816 -1.75,-85.726 0,-24.5 0.58,-93.891 3.5,-114.891 -15.75,1.18 -26.83,3.5 -36.74,3.5 -11.08,0 -29.16,-2.91 -36.16,-3.5 2.34,28.578 4.66,71.16 4.66,103.23 0,12.829 0,67.071 -0.57,77.559 -1.18,16.91 -4.67,60.074 -50.16,60.074 -61.82,0 -61.82,-58.324 -61.82,-132.972 0,-36.153 2.34,-72.313 4.09,-107.891 -11.68,1.18 -23.33,3.5 -35.58,3.5 -11.66,0 -21,-1.75 -37.91,-3.5 4.67,34.988 4.67,96.82 4.67,113.148 0,40.231 0,75.219 -4.09,91.563 -5.25,20.41 -19.24,36.152 -50.74,36.152 -22.16,0 -40.82,-14.004 -49.57,-33.824 -8.16,-18.078 -8.16,-57.148 -8.16,-81.648 0,-41.993 0,-84.571 2.92,-125.391" /><path
         id="path70"
         style="fill:#1a3e7e;fill-opacity:1;fill-rule:nonzero;stroke:none"
         d="m 6612.16,858.973 c 2.48,-0.313 5.25,-0.313 8.02,-0.313 12.01,0 16.63,7.703 16.63,13.867 0,9.551 -7.09,12.012 -16.33,12.012 -1.23,0 -6.46,-0.312 -8.32,-0.617 z m -16.94,32.343 c 2.77,-0.304 6.78,-0.617 12.94,-0.617 3.09,0 17.26,0.617 20.33,0.617 11.41,0 25.27,-3.691 25.27,-17.246 0,-12.324 -10.17,-18.488 -21.88,-20.031 9.86,-12.012 20.03,-24.641 30.2,-36.66 -3.71,0.301 -6.78,0.621 -10.48,0.621 -4.01,0 -6.17,-0.32 -9.86,-0.621 -9.24,12.019 -16.94,23.41 -26.8,34.504 h -2.78 c 0,-11.094 0.32,-22.793 0.62,-34.504 -3.08,0.301 -5.85,0.621 -8.93,0.621 -2.77,0 -5.54,-0.32 -8.93,-0.621 0.92,20.637 0.92,32.355 0.92,43.437 0,11.399 0,16.633 -0.62,30.5 z m 29.58,17.254 c -30.81,0 -55.15,-24.031 -55.15,-55.144 0,-31.117 24.34,-55.145 55.15,-55.145 31.11,0 55.15,24.649 55.15,55.145 0,31.113 -24.04,55.144 -55.15,55.144 z m 66.85,-55.144 c 0,-36.664 -29.27,-66.235 -66.85,-66.235 -37.9,0 -66.86,29.571 -66.86,66.235 0,37.273 28.96,66.23 66.86,66.23 37.58,0 66.85,-28.957 66.85,-66.23" /><path
         id="path72"
         style="fill:#1a3e7e;fill-opacity:1;fill-rule:nonzero;stroke:none"
         d="m 2005.67,92.5 -15.17,52.219 c -3.72,12.902 -6.86,27.383 -9.72,39.652 h -0.58 c -2.86,-12.269 -5.72,-27.062 -9.15,-39.652 L 1956.17,92.5 Z M 1950.44,63.2383 1933.85,3.14063 h -36.33 l 61.8,212.05837 h 44.91 L 2066.89,3.14063 h -37.76 l -17.45,60.09767 h -61.24" /><path
         id="path74"
         style="fill:#1a3e7e;fill-opacity:1;fill-rule:nonzero;stroke:none"
         d="m 2113.23,182.801 h -54.93 v 32.398 h 145.62 v -32.398 h -55.5 V 3.14063 h -35.19 V 182.801" /><path
         id="path76"
         style="fill:#1a3e7e;fill-opacity:1;fill-rule:nonzero;stroke:none"
         d="m 2240.82,215.199 h 35.19 V 35.5508 h 79.25 V 3.14063 H 2240.82 V 215.199" /><path
         id="path78"
         style="fill:#1a3e7e;fill-opacity:1;fill-rule:nonzero;stroke:none"
         d="m 2482.28,92.5 -15.16,52.219 c -3.73,12.902 -6.87,27.383 -9.73,39.652 h -0.58 c -2.86,-12.269 -5.72,-27.062 -9.15,-39.652 L 2432.78,92.5 Z m -55.22,-29.2617 -16.6,-60.09767 h -36.33 l 61.8,212.05837 h 44.92 L 2543.5,3.14063 h -37.76 l -17.45,60.09767 h -61.23" /><path
         id="path80"
         style="fill:#1a3e7e;fill-opacity:1;fill-rule:nonzero;stroke:none"
         d="M 2569.81,3.14063 V 215.199 h 40.05 l 49.78,-90.918 c 12.88,-23.601 24.04,-48.1404 32.9,-71.1091 h 0.58 c -2.29,28.3086 -3.14,55.6991 -3.14,88.0981 v 73.929 h 32.6 V 3.14063 h -36.32 l -50.37,93.14067 c -12.29,23.2777 -25.17,49.3907 -34.61,73.3087 l -0.85,-0.309 c 1.42,-27.39 1.71,-55.39 1.71,-90.3122 V 3.14063 h -32.33" /><path
         id="path82"
         style="fill:#1a3e7e;fill-opacity:1;fill-rule:nonzero;stroke:none"
         d="m 2807.54,182.801 h -54.93 v 32.398 h 145.63 v -32.398 h -55.5 V 3.14063 h -35.2 V 182.801" /><path
         id="path84"
         style="fill:#1a3e7e;fill-opacity:1;fill-rule:nonzero;stroke:none"
         d="M 2970.33,215.199 V 3.14063 h -35.2 V 215.199 h 35.2" /><path
         id="path86"
         style="fill:#1a3e7e;fill-opacity:1;fill-rule:nonzero;stroke:none"
         d="M 3152.28,9.42969 C 3143.99,4.71094 3125.68,0 3102.51,0 c -61.23,0 -98.43,42.1602 -98.43,106.66 0,69.852 44.06,112.012 103,112.012 23.17,0 39.77,-5.352 46.92,-9.442 l -7.72,-30.832 c -9.17,4.403 -21.75,8.184 -37.77,8.184 -39.2,0 -67.52,-27.062 -67.52,-78.043 0,-46.5585 24.9,-76.4492 67.24,-76.4492 14.3,0 29.18,3.1407 38.33,7.8711 l 5.72,-30.53121" /><path
         id="path88"
         style="fill:#1a3e7e;fill-opacity:1;fill-rule:nonzero;stroke:none"
         d="M 3322.49,215.199 V 130.25 h 81.54 v 84.949 h 35.18 V 3.14063 h -35.18 V 96.5898 h -81.54 V 3.14063 H 3287.3 V 215.199 h 35.19" /><path
         id="path90"
         style="fill:#1a3e7e;fill-opacity:1;fill-rule:nonzero;stroke:none"
         d="m 3589.69,97.2109 h -72.66 v -62.289 h 81.25 V 3.14063 H 3481.83 V 215.199 h 112.16 v -31.777 h -76.96 V 128.68 h 72.66 V 97.2109" /><path
         id="path92"
         style="fill:#1a3e7e;fill-opacity:1;fill-rule:nonzero;stroke:none"
         d="m 3733.31,92.5 -15.17,52.219 c -3.71,12.902 -6.86,27.383 -9.73,39.652 h -0.56 c -2.86,-12.269 -5.73,-27.062 -9.16,-39.652 L 3683.81,92.5 Z M 3678.09,63.2383 3661.5,3.14063 h -36.34 l 61.8,212.05837 h 44.92 L 3794.54,3.14063 h -37.77 l -17.46,60.09767 h -61.22" /><path
         id="path94"
         style="fill:#1a3e7e;fill-opacity:1;fill-rule:nonzero;stroke:none"
         d="m 3820.85,215.199 h 35.18 V 35.5508 h 79.26 V 3.14063 H 3820.85 V 215.199" /><path
         id="path96"
         style="fill:#1a3e7e;fill-opacity:1;fill-rule:nonzero;stroke:none"
         d="m 3989.23,182.801 h -54.93 v 32.398 h 145.63 v -32.398 h -55.51 V 3.14063 h -35.19 V 182.801" /><path
         id="path98"
         style="fill:#1a3e7e;fill-opacity:1;fill-rule:nonzero;stroke:none"
         d="M 4146.29,215.199 V 130.25 h 81.54 v 84.949 h 35.19 V 3.14063 h -35.19 V 96.5898 h -81.54 V 3.14063 H 4111.1 V 215.199 h 35.19" /><path
         id="path100"
         style="fill:#1a3e7e;fill-opacity:1;fill-rule:nonzero;stroke:none"
         d="m 4401.75,45.3008 c 11.45,-7.2422 28.62,-13.5195 46.64,-13.5195 22.6,0 35.19,11.6406 35.19,28.9375 0,16.0429 -9.73,25.4921 -34.33,35.2421 -31.75,12.5781 -52.07,31.1481 -52.07,61.6601 0,34.609 26.32,61.051 68.09,61.051 20.89,0 36.34,-5.043 46.35,-10.703 l -8.58,-31.149 c -6.87,4.102 -20.32,10.071 -38.34,10.071 -22.31,0 -32.04,-13.211 -32.04,-25.493 0,-16.347 11.15,-23.91 36.91,-34.918 33.47,-13.851 49.77,-32.4097 49.77,-62.9292 C 4519.34,29.5703 4495.89,0 4446.1,0 c -20.31,0 -41.49,6.28906 -52.07,13.2109 l 7.72,32.0899" /><path
         id="path102"
         style="fill:#1a3e7e;fill-opacity:1;fill-rule:nonzero;stroke:none"
         d="M 4597.44,3.14063 V 91.5508 L 4536.5,215.199 h 40.06 l 23.17,-54.418 c 6.57,-15.73 11.45,-27.703 16.59,-42.172 h 0.57 c 4.86,13.539 10.3,26.75 16.89,42.172 l 23.17,54.418 h 39.76 L 4632.63,92.5 V 3.14063 h -35.19" /><path
         id="path104"
         style="fill:#1a3e7e;fill-opacity:1;fill-rule:nonzero;stroke:none"
         d="m 4712.73,45.3008 c 11.45,-7.2422 28.61,-13.5195 46.63,-13.5195 22.61,0 35.2,11.6406 35.2,28.9375 0,16.0429 -9.73,25.4921 -34.34,35.2421 -31.76,12.5781 -52.07,31.1481 -52.07,61.6601 0,34.609 26.33,61.051 68.1,61.051 20.89,0 36.33,-5.043 46.34,-10.703 l -8.58,-31.149 c -6.87,4.102 -20.31,10.071 -38.34,10.071 -22.32,0 -32.04,-13.211 -32.04,-25.493 0,-16.347 11.16,-23.91 36.9,-34.918 33.48,-13.851 49.79,-32.4097 49.79,-62.9292 C 4830.32,29.5703 4806.86,0 4757.08,0 c -20.32,0 -41.49,6.28906 -52.07,13.2109 l 7.72,32.0899" /><path
         id="path106"
         style="fill:#1a3e7e;fill-opacity:1;fill-rule:nonzero;stroke:none"
         d="m 4902.41,182.801 h -54.93 v 32.398 h 145.62 v -32.398 h -55.51 V 3.14063 h -35.18 V 182.801" /><path
         id="path108"
         style="fill:#1a3e7e;fill-opacity:1;fill-rule:nonzero;stroke:none"
         d="m 5130.71,97.2109 h -72.68 v -62.289 h 81.26 V 3.14063 H 5022.85 V 215.199 H 5135 v -31.777 h -76.97 V 128.68 h 72.68 V 97.2109" /><path
         id="path110"
         style="fill:#1a3e7e;fill-opacity:1;fill-rule:nonzero;stroke:none"
         d="m 5341.84,89.6719 c -1.14,27.3671 -2.58,60.4061 -2.29,89.0391 h -0.86 c -6.29,-25.801 -14.3,-54.43 -22.88,-81.1719 L 5287.77,5.66016 h -27.19 l -25.74,90.62114 c -7.44,27.0587 -14.31,55.9997 -19.45,82.4297 h -0.58 c -0.86,-27.691 -2,-61.359 -3.44,-90.3008 l -4.28,-85.26957 h -32.9 l 12.87,212.05837 h 46.34 l 25.18,-85.258 c 6.86,-24.863 12.88,-50.0308 17.74,-73.6207 h 0.86 c 5.15,22.961 11.73,49.0777 19.17,73.9297 l 26.6,84.949 h 45.79 L 5379.89,3.14063 h -34.33 l -3.72,86.53127" /><path
         id="path112"
         style="fill:#1a3e7e;fill-opacity:1;fill-rule:nonzero;stroke:none"
         d="m 5555.53,113.578 c 4.29,-1.258 10.01,-1.566 17.16,-1.566 26.33,0 42.34,14.16 42.34,39.008 0,23.601 -14.87,36.191 -39.18,36.191 -9.73,0 -16.61,-0.949 -20.32,-1.891 z m -34.91,98.793 c 12.59,2.52 30.05,4.41 53.79,4.41 25.75,0 44.63,-5.98 56.93,-17.312 11.45,-10.379 18.89,-27.047 18.89,-46.867 0,-20.141 -5.72,-36.821 -16.59,-48.153 -14.03,-15.4099 -36.06,-22.6482 -60.95,-22.6482 -6.57,0 -12.59,0.3203 -17.16,1.2578 V 3.14063 h -34.91 V 212.371" /><path
         id="path114"
         style="fill:#1a3e7e;fill-opacity:1;fill-rule:nonzero;stroke:none"
         d="m 5754.64,92.5 -15.16,52.219 c -3.71,12.902 -6.87,27.383 -9.73,39.652 h -0.57 c -2.86,-12.269 -5.72,-27.062 -9.15,-39.652 L 5705.15,92.5 Z M 5699.43,63.2383 5682.84,3.14063 h -36.34 l 61.8,212.05837 h 44.92 L 5815.87,3.14063 h -37.76 l -17.46,60.09767 h -61.22" /><path
         id="path116"
         style="fill:#1a3e7e;fill-opacity:1;fill-rule:nonzero;stroke:none"
         d="m 5882.81,118.609 h 20.88 c 23.75,0 38.62,13.852 38.62,34.93 0,23.281 -14.87,33.981 -37.76,33.981 -11.16,0 -18.31,-0.938 -21.74,-1.891 z m -34.91,93.762 c 13.16,2.52 32.9,4.41 53.22,4.41 27.74,0 46.63,-5.031 59.5,-16.992 10.59,-9.75 16.6,-24.539 16.6,-42.48 0,-27.368 -16.88,-45.938 -34.91,-53.168 v -0.942 c 13.74,-5.6599 22.03,-20.4607 26.89,-40.9099 6.01,-26.418 11.17,-50.961 15.17,-59.14847 h -36.34 c -2.86,6.28906 -7.43,23.59767 -12.87,50.03127 -5.44,27.6875 -14.59,36.5 -34.62,37.1289 h -17.73 V 3.14063 H 5847.9 V 212.371" /><path
         id="path118"
         style="fill:#1a3e7e;fill-opacity:1;fill-rule:nonzero;stroke:none"
         d="m 6052.16,182.801 h -54.93 v 32.398 h 145.63 v -32.398 h -55.51 V 3.14063 h -35.19 V 182.801" /><path
         id="path120"
         style="fill:#1a3e7e;fill-opacity:1;fill-rule:nonzero;stroke:none"
         d="M 6178.32,3.14063 V 215.199 h 40.05 l 49.79,-90.918 c 12.87,-23.601 24.03,-48.1404 32.9,-71.1091 h 0.58 c -2.3,28.3086 -3.16,55.6991 -3.16,88.0981 v 73.929 h 32.62 V 3.14063 h -36.34 l -50.35,93.14067 c -12.3,23.2777 -25.18,49.3907 -34.62,73.3087 l -0.86,-0.309 c 1.44,-27.39 1.72,-55.39 1.72,-90.3122 V 3.14063 h -32.33" /><path
         id="path122"
         style="fill:#1a3e7e;fill-opacity:1;fill-rule:nonzero;stroke:none"
         d="m 6487.58,97.2109 h -72.66 v -62.289 h 81.25 V 3.14063 H 6379.72 V 215.199 h 112.15 v -31.777 h -76.95 V 128.68 h 72.66 V 97.2109" /><path
         id="path124"
         style="fill:#1a3e7e;fill-opacity:1;fill-rule:nonzero;stroke:none"
         d="m 6569.97,118.609 h 20.89 c 23.75,0 38.62,13.852 38.62,34.93 0,23.281 -14.87,33.981 -37.76,33.981 -11.17,0 -18.32,-0.938 -21.75,-1.891 z m -34.91,93.762 c 13.17,2.52 32.91,4.41 53.22,4.41 27.75,0 46.64,-5.031 59.51,-16.992 10.58,-9.75 16.59,-24.539 16.59,-42.48 0,-27.368 -16.87,-45.938 -34.9,-53.168 v -0.942 c 13.73,-5.6599 22.03,-20.4607 26.89,-40.9099 6.01,-26.418 11.16,-50.961 15.17,-59.14847 h -36.34 c -2.86,6.28906 -7.44,23.59767 -12.87,50.03127 -5.44,27.6875 -14.6,36.5 -34.62,37.1289 h -17.74 V 3.14063 h -34.91 V 212.371" /><path
         id="path126"
         style="fill:#f9aa4a;fill-opacity:1;fill-rule:nonzero;stroke:none"
         d="M 15.832,47.4219 1348.07,1790.93 H 448.125 L 6.46094,47.4609 15.832,47.4219" /><path
         id="path128"
         style="fill:#f68b11;fill-opacity:1;fill-rule:nonzero;stroke:none"
         d="m 1352.18,1790.93 h -4.17 L 15.7734,47.4219 H 29.7891 L 1352.18,765.719 V 1790.93 Z M 0,47.4609 V 1790.93 H 448.066 L 6.48828,47.4609 H 0" /><path
         id="path130"
         style="fill:#1a3e7e;fill-opacity:1;fill-rule:nonzero;stroke:none"
         d="M 29.8438,47.4219 H 1352.24 V 765.719 Z" /></g></g></svg>