<svg width="255" height="58" viewBox="0 0 255 58" fill="none" xmlns="http://www.w3.org/2000/svg">
<g clip-path="url(#clip0_1598_1509)">
<mask id="mask0_1598_1509" style="mask-type:alpha" maskUnits="userSpaceOnUse" x="0" y="0" width="58" height="58">
<path d="M0.0148621 0.1418H57.5674V57.6931H0.0148621V0.1418Z" fill="white"/>
</mask>
<g mask="url(#mask0_1598_1509)">
<path fill-rule="evenodd" clip-rule="evenodd" d="M55.8014 28.9489C55.8014 43.8491 43.72 55.9325 28.8155 55.9325C13.9133 55.9325 1.83118 43.8491 1.83118 28.9489C1.83118 14.045 13.9133 1.96157 28.8155 1.96157C43.72 1.96157 55.8014 14.045 55.8014 28.9489Z" fill="#FFFFFE"/>
<path fill-rule="evenodd" clip-rule="evenodd" d="M28.7951 55.912C13.8929 55.912 1.81052 43.8284 1.81052 28.9284C1.81052 14.0245 13.8929 1.9411 28.7951 1.9411C43.6996 1.9411 55.7808 14.0245 55.7808 28.9284C55.7808 43.8284 43.6996 55.912 28.7951 55.912ZM28.7836 0.1418C12.8872 0.1418 0.00012207 13.0277 0.00012207 28.9284C0.00012207 44.8217 12.8872 57.7079 28.7836 57.7079C44.6809 57.7079 57.5675 44.8217 57.5675 28.9284C57.5675 13.0277 44.6809 0.1418 28.7836 0.1418Z" fill="#006C79"/>
</g>
<path fill-rule="evenodd" clip-rule="evenodd" d="M13.3429 27.0684C16.0781 28.5067 18.8491 30.1112 21.6544 31.8962C23.0036 32.7544 24.336 33.5332 25.652 34.2373L25.6727 34.2257C35.4041 29.1856 44.7516 25.9592 53.6231 24.077L53.6112 24.0348C53.5153 23.5448 53.405 23.0595 53.2815 22.5796L53.2741 22.549C39.2143 11.7583 32.6822 12.0264 13.6729 26.7794C13.5577 26.8684 13.4374 26.9681 13.3205 27.0593L13.3429 27.0684Z" fill="#869CC3"/>
<path fill-rule="evenodd" clip-rule="evenodd" d="M26.908 34.8792C36.2658 30.1632 45.2796 27.1052 53.826 25.3059L53.8349 25.3611C53.9989 26.5266 54.084 27.717 54.084 28.9284C54.084 32.6523 53.2793 36.1883 51.8346 39.3723L51.8156 39.4031C44.1077 40.4367 35.8813 39.4036 26.8971 34.8839L26.908 34.8792Z" fill="#495A99"/>
<path fill-rule="evenodd" clip-rule="evenodd" d="M8.04736 43.4301C12.6231 49.96 20.2035 54.2289 28.7808 54.2289C38.4528 54.2289 46.8547 48.8023 51.1145 40.8305L51.1357 40.7866C51.1337 40.7879 51.1293 40.7898 51.1268 40.7903C43.2571 41.7179 34.85 40.4616 25.6456 35.5355L25.634 35.5301C24.8036 35.9606 23.9706 36.4043 23.1355 36.8615C17.7598 39.7987 12.736 41.9396 8.03503 43.4131L8.04736 43.4301Z" fill="#006C79"/>
<path fill-rule="evenodd" clip-rule="evenodd" d="M3.96984 24.0166C6.3482 24.9752 8.76034 26.0588 11.2001 27.2726L11.1708 27.2948C8.97859 29.0608 6.5482 31.0557 3.87637 33.0947L3.82779 33.1329C3.60041 31.7679 3.48105 30.3578 3.48105 28.9284C3.48105 27.245 3.64283 25.5996 3.95529 24.0104L3.96984 24.0166Z" fill="#006C79"/>
<path fill-rule="evenodd" clip-rule="evenodd" d="M7.33194 42.3517C12.2383 40.8772 17.4915 38.6729 23.1355 35.5853C23.5708 35.3478 24.0226 35.1128 24.4561 34.8819L24.41 34.8546C23.4993 34.3386 22.5806 33.7862 21.6544 33.1971C18.5006 31.1901 15.3893 29.41 12.3247 27.8396L12.3059 27.8544C9.87898 29.7874 7.13539 32.0685 4.07687 34.4116L4.08156 34.4306C4.7124 37.2768 5.82291 39.9417 7.32307 42.3381L7.33194 42.3517Z" fill="#006C79"/>
<path fill-rule="evenodd" clip-rule="evenodd" d="M52.6896 20.6323C39.0286 10.2984 32.4176 10.7615 13.6729 25.3098C13.2004 25.6763 12.7148 26.06 12.2157 26.4571L12.1967 26.4748C12.1866 26.4697 12.1767 26.465 12.1668 26.4591C9.48341 25.0899 6.83452 23.8812 4.22336 22.8207L4.22755 22.8042C6.96251 11.7835 16.9171 3.62203 28.7808 3.62203C39.8422 3.62203 49.2439 10.7191 52.6847 20.6079" fill="#8CCDE6"/>
<path fill-rule="evenodd" clip-rule="evenodd" d="M76.5102 36.171C73.8418 34.0045 73.1363 31.1872 73.1363 28.7437C73.1363 27.0347 73.7069 24.0622 76.3181 21.8476C78.2809 20.1874 80.8649 19.1795 84.9212 19.1795C86.6093 19.1795 87.6167 19.2803 88.8668 19.432C89.9024 19.5593 90.7739 19.7854 91.5894 19.8616C91.8886 19.8882 91.9988 20.0111 91.9988 20.1617C91.9988 20.364 91.9145 20.6641 91.8622 21.5455C91.8084 22.3759 91.8346 23.7608 91.782 24.2659C91.7517 24.641 91.6982 24.843 91.4545 24.843C91.2373 24.843 91.1803 24.641 91.1803 24.2891C91.1539 23.5083 90.8005 22.6286 90.1181 21.9756C89.2219 21.0927 87.0998 20.4133 84.5932 20.4133C82.2257 20.4133 80.6721 20.9692 79.4787 21.9756C77.4902 23.66 76.9721 26.0514 76.9721 28.4951C76.9721 34.4856 81.8982 37.4546 85.5469 37.4546C87.9686 37.4546 89.4402 37.2036 90.5275 36.0442C90.9907 35.5641 91.3458 34.8341 91.4545 34.384C91.5354 33.9803 91.5894 33.8834 91.8084 33.8834C91.9988 33.8834 92.0533 34.0573 92.0533 34.2568C92.0533 34.5594 91.7275 36.7486 91.4545 37.6026C91.3167 38.033 91.2079 38.1577 90.7473 38.338C89.656 38.7356 87.5891 38.9146 85.845 38.9146C82.1157 38.9146 78.9874 38.1577 76.5102 36.171Z" fill="#006C79"/>
<path fill-rule="evenodd" clip-rule="evenodd" d="M109.693 26.8319C109.693 23.0074 109.693 22.3036 109.637 21.4944C109.586 20.6399 109.364 20.2387 108.467 20.0609C108.25 20.0111 107.788 19.9862 107.406 19.9862C107.107 19.9862 106.944 19.9349 106.944 19.758C106.944 19.5849 107.133 19.5326 107.545 19.5326C108.985 19.5326 110.7 19.6101 111.463 19.6101C112.334 19.6101 119.716 19.6101 120.231 19.5849C120.749 19.5326 121.183 19.485 121.401 19.432C121.538 19.4081 121.703 19.3304 121.836 19.3304C121.973 19.3304 122 19.432 122 19.5593C122 19.7349 121.864 20.0372 121.782 21.1931C121.757 21.4464 121.703 22.5532 121.647 22.8563C121.617 22.9818 121.565 23.1322 121.375 23.1322C121.183 23.1322 121.13 23.0074 121.13 22.7796C121.13 22.6057 121.102 22.1758 120.965 21.873C120.775 21.4187 120.504 21.1174 119.142 20.9692C118.678 20.9174 113.858 20.8658 113.314 20.8658C113.176 20.8658 113.123 20.941 113.123 21.1174V27.4884C113.123 27.6633 113.147 27.7641 113.314 27.7641C113.91 27.7641 119.006 27.7641 119.631 27.7123C120.285 27.6633 120.695 27.5876 120.938 27.337C121.13 27.1365 121.239 27.0085 121.375 27.0085C121.486 27.0085 121.565 27.0596 121.565 27.2105C121.565 27.3602 121.429 27.7641 121.348 29.0463C121.294 29.5499 121.239 30.5573 121.239 30.7334C121.239 30.9361 121.239 31.213 120.992 31.213C120.804 31.213 120.749 31.1124 120.749 30.9854C120.719 30.7334 120.719 30.4091 120.64 30.0774C120.504 29.575 120.122 29.1967 119.115 29.0981C118.597 29.0463 113.939 29.0221 113.284 29.0221C113.147 29.0221 113.123 29.1227 113.123 29.2754V31.2621C113.123 32.1169 113.095 34.4331 113.123 35.1638C113.176 36.9017 112.792 37.2788 115.569 37.2788C116.278 37.2788 120.2 37.2788 120.911 36.9754C121.617 36.6748 121.945 36.1446 122.136 35.1142C122.192 34.8341 122.244 34.7344 122.436 34.7344C122.655 34.7344 122.655 34.9367 122.655 35.1897C122.655 35.7678 122.436 37.48 122.301 37.9824C122.109 38.6371 121.864 38.6371 120.83 38.6371C116.72 38.6371 112.934 38.4855 111.326 38.4855C110.7 38.4855 108.985 38.5589 107.894 38.5589C107.545 38.5589 107.355 38.4855 107.355 38.3076C107.355 38.1829 107.461 38.1086 107.788 38.1086C108.196 38.1086 108.521 38.0578 108.766 38.0075C109.312 37.9059 109.448 37.3545 109.557 36.626C109.693 35.5641 109.693 33.5791 109.693 31.2621V26.8319Z" fill="#006C79"/>
<path fill-rule="evenodd" clip-rule="evenodd" d="M140.265 35.1372C140.322 37.102 140.676 37.7555 141.22 37.9328C141.683 38.0855 142.201 38.1086 142.637 38.1086C142.933 38.1086 143.096 38.1577 143.096 38.3077C143.096 38.5119 142.851 38.559 142.472 38.559C140.703 38.559 139.614 38.4855 139.098 38.4855C138.85 38.4855 137.571 38.559 136.157 38.559C135.803 38.559 135.56 38.536 135.56 38.3077C135.56 38.1577 135.722 38.1086 135.994 38.1086C136.346 38.1086 136.837 38.0855 137.216 37.9824C137.928 37.7807 138.036 37.0512 138.062 34.8615L138.307 19.9632C138.307 19.4562 138.388 19.1057 138.661 19.1057C138.959 19.1057 139.206 19.432 139.667 19.8883C139.993 20.2108 144.132 24.3147 148.106 27.9641C149.957 29.6774 153.631 33.3011 154.096 33.7029H154.231L153.957 22.4025C153.932 20.8658 153.686 20.3886 153.034 20.1383C152.626 19.9862 151.973 19.9862 151.59 19.9862C151.265 19.9862 151.153 19.9102 151.153 19.758C151.153 19.5593 151.455 19.5326 151.864 19.5326C153.277 19.5326 154.582 19.6101 155.157 19.6101C155.456 19.6101 156.493 19.5326 157.823 19.5326C158.177 19.5326 158.45 19.5593 158.45 19.758C158.45 19.9102 158.287 19.9862 157.961 19.9862C157.688 19.9862 157.47 19.9862 157.145 20.0609C156.38 20.2629 156.164 20.7901 156.138 22.1995L155.837 38.0855C155.837 38.6371 155.727 38.8648 155.483 38.8648C155.181 38.8648 154.858 38.5878 154.558 38.3077C152.844 36.7986 149.357 33.5019 146.528 30.9085C143.56 28.1905 140.54 25.0447 140.049 24.5665H139.966L140.265 35.1372Z" fill="#006C79"/>
<path fill-rule="evenodd" clip-rule="evenodd" d="M177.712 20.941L173.657 21.0444C172.078 21.0927 171.424 21.2165 171.017 21.7719C170.744 22.1499 170.608 22.4521 170.551 22.6533C170.498 22.8563 170.418 22.9561 170.253 22.9561C170.066 22.9561 170.009 22.8306 170.009 22.5532C170.009 22.1499 170.528 19.8616 170.582 19.6606C170.663 19.3304 170.744 19.1795 170.909 19.1795C171.125 19.1795 171.396 19.432 172.078 19.485C172.869 19.5593 173.9 19.6101 174.803 19.6101H185.583C187.321 19.6101 187.975 19.3556 188.193 19.3556C188.384 19.3556 188.409 19.508 188.409 19.8882C188.409 20.4133 188.329 22.1499 188.329 22.8064C188.301 23.0575 188.245 23.2067 188.086 23.2067C187.867 23.2067 187.813 23.0807 187.785 22.7058L187.758 22.4269C187.702 21.7719 186.967 21.0678 184.545 21.0158L181.115 20.941V31.2621C181.115 33.5791 181.115 35.5641 181.249 36.6477C181.333 37.3545 181.498 37.9059 182.311 38.0075C182.694 38.0578 183.292 38.1086 183.704 38.1086C184.001 38.1086 184.137 38.1829 184.137 38.3077C184.137 38.4855 183.919 38.559 183.619 38.559C181.824 38.559 180.11 38.4855 179.343 38.4855C178.72 38.4855 177.005 38.559 175.916 38.559C175.56 38.559 175.372 38.4855 175.372 38.3077C175.372 38.1829 175.481 38.1086 175.807 38.1086C176.215 38.1086 176.545 38.0578 176.788 38.0075C177.334 37.9059 177.495 37.3545 177.577 36.626C177.712 35.5641 177.712 33.5791 177.712 31.2621V20.941Z" fill="#006C79"/>
<path fill-rule="evenodd" clip-rule="evenodd" d="M206.637 28.8204C206.637 29.0981 206.692 29.1967 206.882 29.2754C207.453 29.451 208.268 29.5255 208.95 29.5255C210.038 29.5255 210.392 29.4251 210.883 29.0981C211.699 28.5462 212.489 27.3853 212.489 25.3209C212.489 21.7492 209.931 20.7164 208.324 20.7164C207.644 20.7164 207.154 20.7406 206.882 20.8163C206.692 20.8658 206.637 20.9692 206.637 21.1682V28.8204ZM203.424 26.8319C203.424 23.0074 203.424 22.3036 203.368 21.4945C203.316 20.6399 203.097 20.2387 202.2 20.0609C201.981 20.0111 201.522 19.9862 201.14 19.9862C200.838 19.9862 200.674 19.9349 200.674 19.758C200.674 19.5849 200.864 19.5326 201.274 19.5326C202.715 19.5326 204.431 19.6101 205.004 19.6101C205.928 19.6101 207.999 19.5326 208.84 19.5326C210.556 19.5326 212.38 19.6823 213.851 20.6145C214.612 21.0927 215.7 22.3759 215.7 24.0622C215.7 25.9269 214.855 27.6376 212.11 29.7023C214.531 32.5209 216.409 34.7621 218.015 36.3237C219.541 37.7807 220.657 37.956 221.061 38.0329C221.363 38.0855 221.609 38.1086 221.826 38.1086C222.047 38.1086 222.155 38.1829 222.155 38.3077C222.155 38.5119 221.961 38.559 221.635 38.559H219.048C217.527 38.559 216.844 38.4325 216.138 38.0855C214.967 37.5037 213.931 36.3236 212.407 34.384C211.318 32.9985 210.068 31.2883 209.712 30.9085C209.577 30.7568 209.413 30.7334 209.224 30.7334L206.854 30.6818C206.718 30.6818 206.637 30.7334 206.637 30.8858V31.2367C206.637 33.5791 206.637 35.5641 206.772 36.626C206.854 37.3545 207.018 37.9059 207.836 38.0075C208.242 38.0578 208.84 38.1086 209.168 38.1086C209.385 38.1086 209.495 38.1829 209.495 38.3077C209.495 38.4855 209.306 38.559 208.95 38.559C207.372 38.559 205.359 38.4855 204.949 38.4855C204.431 38.4855 202.715 38.559 201.627 38.559C201.274 38.559 201.083 38.4855 201.083 38.3077C201.083 38.1829 201.192 38.1086 201.522 38.1086C201.929 38.1086 202.254 38.0578 202.499 38.0075C203.043 37.9059 203.18 37.3545 203.29 36.626C203.424 35.5641 203.424 33.5791 203.424 31.2621V26.8319Z" fill="#006C79"/>
<path fill-rule="evenodd" clip-rule="evenodd" d="M245.265 30.7334C245.401 30.7334 245.43 30.6582 245.401 30.5825L242.954 24.367C242.925 24.2659 242.898 24.1379 242.816 24.1379C242.734 24.1379 242.679 24.2659 242.652 24.367L240.149 30.5573C240.121 30.6582 240.149 30.7334 240.254 30.7334H245.265ZM239.71 31.9914C239.577 31.9914 239.524 32.0427 239.469 32.1929L237.999 35.7932C237.726 36.4223 237.589 37.0263 237.589 37.3286C237.589 37.7807 237.835 38.1086 238.678 38.1086H239.087C239.414 38.1086 239.496 38.1577 239.496 38.3077C239.496 38.5119 239.332 38.559 239.031 38.559C238.161 38.559 236.99 38.4855 236.147 38.4855C235.849 38.4855 234.349 38.559 232.936 38.559C232.581 38.559 232.417 38.5119 232.417 38.3077C232.417 38.1577 232.525 38.1086 232.743 38.1086C232.989 38.1086 233.37 38.0855 233.589 38.0578C234.841 37.9059 235.358 37.0512 235.901 35.7932L242.734 19.9862C243.061 19.2547 243.225 18.9797 243.497 18.9797C243.741 18.9797 243.902 19.2066 244.179 19.7854C244.831 21.1682 249.187 31.4367 250.929 35.2654C251.962 37.5301 252.751 37.8813 253.321 38.0075C253.733 38.0855 254.139 38.1086 254.467 38.1086C254.684 38.1086 254.823 38.1318 254.823 38.3077C254.823 38.5119 254.576 38.559 253.57 38.559C252.588 38.559 250.601 38.559 248.423 38.5119C247.932 38.4855 247.607 38.4855 247.607 38.3077C247.607 38.1577 247.715 38.1086 247.989 38.0855C248.179 38.0329 248.366 37.8053 248.235 37.5037L246.054 32.1667C246 32.0427 245.918 31.9914 245.783 31.9914H239.71Z" fill="#006C79"/>
</g>
<defs>
<clipPath id="clip0_1598_1509">
<rect width="255" height="57.7079" fill="white"/>
</clipPath>
</defs>
</svg>
