<?xml version="1.0" encoding="UTF-8"?> <svg xmlns="http://www.w3.org/2000/svg" xmlns:xlink="http://www.w3.org/1999/xlink" version="1.1" id="Layer_1" x="0px" y="0px" viewBox="0 0 410.2 63.7" style="enable-background:new 0 0 410.2 63.7;" xml:space="preserve"> <style type="text/css"> .st0{fill:#231F20;} .st1{fill:#00539B;} .st2{fill:#D8D8D8;} </style> <g id="Homepage---Desktop"> <g id="Homepage" transform="translate(-307.000000, -44.000000)"> <g id="tagline" transform="translate(100.000000, 28.000000)"> <g id="CNOS-taglineonly-adj" transform="translate(207.000000, 16.000000)"> <polygon id="Shape" class="st0" points="211.7,24.5 213.6,24.5 213.6,39.7 211.7,39.7 "></polygon> <polygon id="Shape_00000162313290079290001390000006178572021477794716_" class="st0" points="229.4,27.6 224.6,39.7 223.7,39.7 218.8,27.6 218.8,39.7 216.5,39.7 216.5,24.5 219.7,24.5 224,35.4 228.4,24.5 231.6,24.5 231.6,39.7 229.4,39.7 "></polygon> <path id="Shape_00000116928921495751063450000016502239091260703648_" class="st0" d="M234.5,24.5h6.4c1.3-0.1,2.6,0.4,3.5,1.3 c0.9,0.9,1.5,2.1,1.4,3.4c0,1.3-0.5,2.5-1.4,3.4c-0.9,0.9-2.2,1.3-3.5,1.3h-4.2v5.8h-2.3V24.5z M240.7,26.5h-3.9v5.3h3.9 c0.7,0,1.4-0.2,2-0.7s0.8-1.2,0.8-1.9c0-0.7-0.3-1.4-0.8-1.9C242.1,26.8,241.4,26.5,240.7,26.5z"></path> <path id="Shape_00000057858839836870599350000002740161851527472300_" class="st0" d="M251.9,33.8h-2.8v5.8h-2.3V24.5h6.4 c2.9,0,4.9,1.8,4.9,4.7c0.1,2.2-1.5,4.2-3.8,4.4l3.9,6.1h-2.7L251.9,33.8z M252.9,26.6h-3.8v5.3h3.8c0.7,0.1,1.5-0.2,2-0.7 s0.8-1.2,0.8-2c0-0.7-0.3-1.4-0.8-2S253.6,26.5,252.9,26.6L252.9,26.6z"></path> <path id="Shape_00000020380349166811265070000010589560056249536920_" class="st0" d="M267.6,24.5c4.5,0,7.6,3.2,7.6,7.6 s-3.1,7.6-7.6,7.6s-7.6-3.2-7.6-7.6S263.2,24.5,267.6,24.5z M267.6,26.5c-3.2,0-5.3,2.4-5.3,5.6s2,5.6,5.3,5.6s5.3-2.4,5.3-5.6 S270.8,26.5,267.6,26.5z"></path> <polygon id="Shape_00000008119425416530053010000012654423447144439176_" class="st0" points="274.3,24.5 276.8,24.5 281.4,37.2 286,24.5 288.5,24.5 282.7,39.7 280,39.7 "></polygon> <polygon id="Shape_00000115472644632495937800000008720665782899296698_" class="st0" points="290.4,24.5 292.3,24.5 292.3,39.7 290.4,39.7 "></polygon> <polygon id="Shape_00000063609646005190209730000009790620303773854081_" class="st0" points="298.2,28 298.2,39.7 296.1,39.7 296.1,24.5 298.3,24.5 306.2,35.9 306.2,24.5 308.4,24.5 308.4,39.7 306.3,39.7 "></polygon> <path id="Shape_00000093861853091946440760000007722399549154511786_" class="st0" d="M318.3,24.5c2.4-0.1,4.7,1,6.1,2.9l-1.8,1 c-1-1.2-2.6-2-4.2-2c-1.5,0-3,0.6-4.1,1.6c-1.1,1.1-1.6,2.5-1.5,4c-0.1,1.5,0.5,2.9,1.5,3.9c1.1,1.1,2.5,1.7,4,1.7 c1.4,0,2.8-0.5,3.9-1.4v-2.6h-4.9v-1.9h7.2v5.4c-1.6,1.7-3.8,2.6-6.2,2.6c-2.1,0.1-4.2-0.7-5.7-2.1c-1.5-1.4-2.3-3.4-2.3-5.5 c-0.1-2,0.8-4,2.3-5.4C314.1,25.2,316.2,24.5,318.3,24.5z"></path> <polygon id="Shape_00000163033389160242173390000012168667513764458128_" class="st0" points="342.6,32.7 333.9,32.7 333.9,39.7 332.1,39.7 332.1,24.5 333.9,24.5 333.9,31 342.6,31 342.6,24.5 344.4,24.5 344.4,39.7 342.6,39.7 "></polygon> <polygon id="Shape_00000152971623940725481760000004761211473392933793_" class="st0" points="347.2,24.5 356.7,24.5 356.7,26.2 349,26.2 349,31.1 356.6,31.1 356.6,32.8 349,32.8 349,38 356.7,38 356.7,39.7 347.2,39.7 "></polygon> <path id="Shape_00000124156756195346010250000012451526042674792099_" class="st0" d="M369.5,36.3H362l-1.3,3.4h-2l6-15.2h2.3 l6,15.2h-2L369.5,36.3z M362.5,34.6h6.4l-3.2-8.4L362.5,34.6z"></path> <polygon id="Shape_00000132796838969128047590000011974164670522160315_" class="st0" points="373.8,24.5 375.6,24.5 375.6,38 382.3,38 382.3,39.7 373.8,39.7 "></polygon> <polygon id="Shape_00000149347762666696877040000006248008112573791622_" class="st0" points="386.1,26.2 381.3,26.2 381.3,24.5 392.7,24.5 392.7,26.2 388,26.2 388,39.7 386.1,39.7 "></polygon> <polygon id="Shape_00000140011354634501516720000012476023692819342725_" class="st0" points="405.1,32.7 396.5,32.7 396.5,39.7 394.6,39.7 394.6,24.5 396.5,24.5 396.5,31 405.1,31 405.1,24.5 406.9,24.5 406.9,39.7 405.1,39.7 "></polygon> </g> </g> </g> </g> <g> <path class="st1" d="M29.5,59.8c-7,0-12.8-2.6-17.3-7.7c-4.6-5.1-6.9-11.8-6.9-20c0-8.5,2.3-15.2,6.7-20.2s10.5-7.5,18-7.5 c3.4,0.1,6.3,0.5,8.5,1.3c1.4,0.5,2.9,1.4,4.5,2.6l3-3h1.5v15.3h-2c-1-4.3-2.6-7.7-4.7-9.9c-2.6-2.9-6.4-4.3-11.1-4.3 c-4.5,0-7.8,1.5-9.9,4.5c-2.1,3.1-3.1,7.9-3.1,14.6v13.1c0,6.7,1,11.5,3.1,14.6c2,3.1,5.3,4.6,9.8,4.6c5.1,0,9.1-1.5,11.9-4.5 c2.4-2.5,4-6.1,5-10.8h2.2v16.4h-1.6L44,55.4c-2,1.3-3.9,2.4-5.4,3C36,59.3,32.9,59.8,29.5,59.8L29.5,59.8z"></path> <polygon class="st1" points="94.8,59.4 91.9,59.4 59.7,8.9 59.7,55.6 66.5,55.6 66.5,58.5 49.9,58.5 49.9,55.6 56.8,55.6 56.8,8.5 49.9,8.5 49.9,5.5 69.3,5.5 91.8,40.8 91.8,8.5 85,8.5 85,5.5 101.7,5.5 101.7,8.5 94.8,8.5 "></polygon> <path class="st1" d="M121.1,6.4c-4.6,0-7.9,1.6-10,4.6c-2.2,3.1-3.2,7.9-3.2,14.6v13.1c0,6.6,1.1,11.4,3.2,14.5 c2.2,3.1,5.5,4.6,10,4.6c4.6,0,7.9-1.6,10.1-4.6c2.2-3.1,3.2-7.9,3.2-14.5V25.5c0-6.5-1.1-11.4-3.2-14.5C129,8,125.7,6.4,121.1,6.4 L121.1,6.4z M121.2,59.8c-7.4,0-13.4-2.5-17.9-7.6c-4.5-5.1-6.7-11.8-6.7-20.1c0-8.1,2.3-14.7,7-19.9c4.6-5.2,10.5-7.8,17.6-7.8 c7.2,0,13,2.6,17.6,7.8c4.6,5.2,7,11.9,7,19.9c0,8.4-2.3,15-6.7,20.1C134.5,57.3,128.6,59.8,121.2,59.8L121.2,59.8z"></path> <path class="st1" d="M163.9,59.9c-3.1,0-5.9-0.5-8.4-1.4c-1.5-0.6-3.2-1.5-5.1-2.7l-3.3,3.3h-1.8V43.3h2.5c1,4.2,2.6,7.4,4.9,9.8 c2.7,3,6.4,4.4,10.9,4.4c4.2,0,7.5-1,10-3.1c2.5-2,3.7-4.8,3.7-8.2c0-3.2-1.7-5.7-5-7.4c-1.9-1-5.6-2.2-10.9-3.4 c-4.9-1.1-8.6-2.7-11.1-4.9c-3.2-2.7-4.8-6.4-4.8-11.2c0-4.6,1.5-8.2,4.4-10.9c2.9-2.6,6.8-3.9,11.9-3.9c3.2,0,5.9,0.4,8.1,1.2 c1.2,0.5,2.7,1.3,4.5,2.6l3.5-3.3h1.3v14.9h-2c-1.1-3.9-2.7-7-4.8-9.2c-2.6-2.8-6.2-4.2-10.6-4.2c-3.6,0-6.4,0.8-8.5,2.5 c-2.1,1.6-3.2,3.8-3.2,6.6c0,2.3,1.1,4.2,3.2,5.4c1.3,0.8,3.7,1.7,7.2,2.6l6.4,1.6c4.9,1.2,8.5,2.9,10.8,5c3,2.7,4.5,6.7,4.5,11.8 c0,5.6-1.6,10-4.9,13.2C174,58.3,169.5,59.9,163.9,59.9L163.9,59.9z"></path> </g> <rect x="196.2" y="4.6" transform="matrix(-1 -1.224647e-16 1.224647e-16 -1 394.2603 64.2141)" class="st2" width="1.9" height="55"></rect> </svg> 