<?xml version="1.0" encoding="UTF-8" standalone="no"?><!DOCTYPE svg PUBLIC "-//W3C//DTD SVG 1.1//EN" "http://www.w3.org/Graphics/SVG/1.1/DTD/svg11.dtd"><svg width="100%" height="100%" viewBox="0 0 950 414" version="1.1" xmlns="http://www.w3.org/2000/svg" xmlns:xlink="http://www.w3.org/1999/xlink" xml:space="preserve" xmlns:serif="http://www.serif.com/" style="fill-rule:evenodd;clip-rule:evenodd;stroke-linejoin:round;stroke-miterlimit:2;"><g id="Group_571"><path id="Path_247" d="M119.583,398.296c-9.695,8.529 -27.325,14.396 -47.304,14.396c-37.025,-0 -72.287,-20.834 -72.287,-73.455c-0,-51.116 37.608,-72.875 75.812,-72.875c20.575,0 39.375,5.88 47.608,11.763c-3.5,8.513 -6.063,17.382 -7.645,26.45l-5,0.292c-2.424,-16.102 -16.956,-27.805 -33.204,-26.738c-33.213,0 -46.717,29.088 -46.717,60.833c-0,34.971 15.858,59.346 48.771,59.346c16.754,0 30.833,-6.458 39.375,-18.8l3.525,1.767c-1.705,5.528 -2.686,11.253 -2.917,17.033" style="fill:#002855;fill-rule:nonzero;"/><path id="Path_248" d="M212.737,276.654c-27.32,0 -36.729,29.684 -37.916,50.246l30.275,0c12.341,0 30.833,-0.292 39.662,-0.579c0,-20.871 -3.521,-49.667 -32.029,-49.667m60.833,49.667c-0.058,3.738 -0.353,7.469 -0.883,11.171l-1.767,1.75c-22.041,-0.288 -47.308,-0.592 -63.17,-0.592l-33.205,-0c-0.24,2.439 -0.339,4.891 -0.295,7.342c-0,29.391 16.162,53.495 49.366,53.495c16.292,0.278 31.939,-6.472 42.917,-18.512l2.937,1.458c-1.424,5.397 -2.407,10.902 -2.937,16.459c-15.063,9.668 -32.649,14.678 -50.546,14.4c-44.375,-0 -72.283,-27.338 -72.283,-72.592c-0,-42.892 25.862,-74.917 70.229,-74.917c41.429,0 59.65,27.917 59.65,60.534" style="fill:#002855;fill-rule:nonzero;"/><path id="Path_249" d="M411.979,408.583c-5.579,0 -12.05,0.304 -15.575,0.592c1.184,-18.221 1.767,-52.021 1.767,-74.046l-0,-8.808c-0,-19.684 -3.821,-42.617 -29.384,-42.617c-23.8,0 -37.608,17.342 -37.608,46.429l0,19.684c0,17.646 0.588,42.616 2.054,59.362c-4.116,-0.287 -10.279,-0.591 -15.862,-0.591c-5.288,-0 -11.467,0.304 -15.575,0.591c1.471,-16.454 2.054,-49.075 2.054,-66.704l0,-12.342c0,-17.629 -0.583,-40.833 -2.054,-60.229c5.587,0.288 10.287,0.579 15.575,0.579c5,0 10.279,-0.291 14.396,-0.579c-0.588,7.054 -0.884,14.975 -0.884,23.509l1.18,-0c9.766,-16.316 27.405,-26.368 46.42,-26.455c37.617,0 47.917,22.63 47.917,50.834c0,9.7 -0.879,23.512 -0.879,37.312l-0,3.538c-0,12.916 0.583,38.775 1.467,50.537c-3.534,-0.287 -10,-0.591 -15.001,-0.591" style="fill:#002855;fill-rule:nonzero;"/><path id="Path_250" d="M502.183,410.942c-22.629,-0 -30.833,-13.525 -30.833,-36.446c0,-21.454 1.767,-58.75 1.767,-92.263l-22.917,0l0,-11.45l23.217,0c-0,-6.475 -0,-18.521 -0.588,-30.275c9.821,-2.958 19.284,-6.998 28.213,-12.046l2.054,1.18c-1.179,11.75 -2.35,31.141 -2.35,41.141l35.558,0l0,11.45l-35.833,0c-0.879,25 -1.771,57.005 -1.771,80.805c0,20.862 3.233,33.22 20.275,33.22c5.742,0.004 11.43,-1.099 16.754,-3.25l1.171,0.592l0.587,7.633c-10.681,6.309 -22.852,9.661 -35.258,9.709" style="fill:#002855;fill-rule:nonzero;"/><path id="Path_251" d="M674.367,408.583c-5,0 -10.284,0.3 -14.396,0.592c0.583,-7.625 0.875,-15.571 0.875,-23.508l-1.171,-0c-10.213,16.251 -28.11,26.145 -47.304,26.15c-37.621,-0 -47.317,-22.034 -47.317,-50.534c0,-9.704 0.879,-23.508 0.879,-37.321l0,-3.525c0,-12.916 -0.587,-38.791 -1.466,-50.541c3.525,0.287 10,0.579 15.571,0.579c5.287,-0 11.462,-0.288 15.279,-0.579c-0.875,18.225 -1.771,52 -1.771,74.046l-0,8.52c-0,19.975 3.529,42.605 28.8,42.605c24.687,-0 38.204,-18.513 38.204,-46.125l0,-19.7c0,-17.63 -0.583,-42.605 -2.083,-59.35c3.821,0.287 10.587,0.579 15.875,0.579c5.287,-0 11.454,-0.288 15.871,-0.579c-1.48,16.458 -2.063,49.058 -2.063,66.691l0,12.359c0,17.629 0.583,40.833 2.063,60.225c-5.588,-0.288 -10.588,-0.592 -15.871,-0.592" style="fill:#002855;fill-rule:nonzero;"/><path id="Path_252" d="M801.908,294.262l-2.058,0.305c-4.744,-3.262 -10.413,-4.913 -16.167,-4.709c-20.862,0 -30.833,19.392 -30.833,43.492l-0,11.462c-0,17.617 0.583,47.6 2.062,64.346c-4.116,-0.287 -10.583,-0.591 -15.87,-0.591c-5.288,-0 -11.75,0.304 -15.867,0.591c1.471,-16.158 2.35,-49.075 2.35,-66.704l-0,-12.342c-0,-17.629 -0.583,-42.6 -2.35,-60.229c4.117,0.292 10.575,0.579 15.867,0.579c5.291,0 10.875,-0.287 14.104,-0.579c-1.096,9.954 -1.683,19.957 -1.759,29.971l1.175,0c10.28,-21.167 24.088,-32.025 41.43,-32.025c4.971,-0.064 9.924,0.628 14.687,2.054l0.592,1.767c-3.146,7.293 -5.604,14.863 -7.342,22.612" style="fill:#002855;fill-rule:nonzero;"/><path id="Path_253" d="M847.737,368.921c0,20.279 10.875,27.033 23.505,27.033c13.818,-0.049 26.151,-8.939 30.566,-22.033c0.884,-10 1.175,-27.338 1.175,-41.138c-39.375,6.459 -55.241,13.513 -55.241,36.142m79.337,41.142c-15.579,-0 -23.212,-8.225 -24.679,-20.567c-10.465,13.39 -26.49,21.295 -43.483,21.45c-20.575,0 -39.375,-11.762 -39.375,-38.5c-0,-24.087 15,-35.833 41.129,-40.833c38.204,-7.359 42.021,-10 42.021,-17.342l-0,-3.525c-0,-19.092 -8.225,-32.317 -31.446,-32.317c-16.159,0 -27.321,10.288 -30.254,29.38l-5.588,-0c-0.827,-8.616 -2.302,-17.157 -4.412,-25.55c10.587,-10 31.154,-16.459 49.666,-16.459c43.492,0 50.259,22.917 50.259,52.6c-0,13.804 -1.479,43.771 -1.479,58.475c-0,14.096 3.829,22.917 15.575,22.917c1.672,0.088 3.348,-0.009 5,-0.288l-0,6.75c-7.399,2.441 -15.128,3.732 -22.917,3.83" style="fill:#002855;fill-rule:nonzero;"/><path id="Path_254" d="M668.279,69.167c-11.808,12.622 -26.073,22.698 -41.916,29.608c-16.788,6.578 -34.675,9.902 -52.705,9.796c-13.704,0.008 -27.353,-1.749 -40.608,-5.229c21.033,-26.25 55.321,-41.867 92.183,-41.867c14.694,-0.039 29.275,2.567 43.046,7.692m78.75,-4.938c-9.85,6.046 -19.012,13.149 -27.321,21.184c-8.308,-8.033 -17.468,-15.136 -27.316,-21.184c10.585,-12.316 19.748,-25.786 27.316,-40.154c7.57,14.369 16.734,27.838 27.321,40.154m159.317,39.117c-13.257,3.48 -26.907,5.238 -40.613,5.229c-18.028,0.106 -35.913,-3.219 -52.7,-9.796c-15.842,-6.909 -30.106,-16.985 -41.912,-29.608c13.768,-5.126 28.346,-7.731 43.037,-7.692c36.863,0 71.15,15.621 92.184,41.867m25.487,2.083c-18.571,-30.729 -61.312,-61.737 -114.929,-61.737c-20.178,0.018 -40.092,4.619 -58.233,13.454c-14.373,-17.105 -26.917,-35.666 -37.429,-55.379c-0.572,-1.071 -1.691,-1.743 -2.905,-1.743c-1.213,0 -2.332,0.672 -2.904,1.743c-10.511,19.722 -23.06,38.289 -37.441,55.395c-18.139,-8.835 -38.05,-13.436 -58.225,-13.454c-53.625,0 -96.359,31.009 -114.93,61.738l-0.37,0.579c-0.287,0.501 -0.438,1.068 -0.438,1.645c-0,1.251 0.71,2.4 1.829,2.959l0.454,0.225c20.367,8.616 42.249,13.081 64.363,13.133c20.279,0.109 40.353,-4.082 58.896,-12.295c19.165,-8.806 36.527,-21.099 51.2,-36.25c10.164,5.449 19.509,12.306 27.758,20.366c-21.925,24.942 -38.671,56.9 -58.488,100.167l-1.054,2.312l2.5,-0.383c2.292,-0.356 4.607,-0.538 6.925,-0.542c5.767,-0.079 11.487,1.048 16.792,3.309l1.642,0.733l0.275,-1.779c5.166,-34.199 19.397,-66.399 41.208,-93.242c21.819,26.807 36.044,58.987 41.183,93.167l0.267,1.758l1.633,-0.725c5.27,-2.197 10.933,-3.293 16.642,-3.221c2.452,0.012 4.9,0.198 7.325,0.559l2.129,-0l-0.891,-1.942c-19.809,-43.267 -36.563,-75.225 -58.48,-100.167c8.243,-8.063 17.586,-14.92 27.75,-20.366c14.676,15.149 32.039,27.441 51.204,36.25c18.54,8.212 38.611,12.403 58.888,12.296c22.119,-0.053 44.007,-4.518 64.379,-13.134c1.274,-0.632 2.082,-1.936 2.082,-3.358c0,-0.731 -0.214,-1.447 -0.615,-2.058" style="fill:#00a82d;fill-rule:nonzero;"/></g></svg>