<svg xmlns="http://www.w3.org/2000/svg" viewBox="0 0 800 296.46933" height="296.46933" width="800">
  <defs id="defs6">
    <linearGradient
      id="linearGradient28"
      spreadMethod="pad"
      gradientTransform="matrix(7.4200296,-103.88042,-103.88042,-7.4200296,95.660759,206.79497)"
      gradientUnits="userSpaceOnUse"
      y2="0"
      x2="1"
      y1="0"
      x1="0"
    >
      <stop id="stop24" offset="0" style="stop-opacity: 1; stop-color: #ee3e3c" />
      <stop id="stop26" offset="1" style="stop-opacity: 1; stop-color: #9f3335" />
    </linearGradient>
    <linearGradient
      id="linearGradient48"
      spreadMethod="pad"
      gradientTransform="matrix(0,-145.13766,-145.13766,0,51.492016,155.19423)"
      gradientUnits="userSpaceOnUse"
      y2="0"
      x2="1"
      y1="0"
      x1="0"
    >
      <stop id="stop44" offset="0" style="stop-opacity: 1; stop-color: #ee3e3c" />
      <stop id="stop46" offset="1" style="stop-opacity: 1; stop-color: #9f3335" />
    </linearGradient>
    <linearGradient
      id="linearGradient68"
      spreadMethod="pad"
      gradientTransform="matrix(0,-145.13766,-145.13766,0,144.27864,155.19423)"
      gradientUnits="userSpaceOnUse"
      y2="0"
      x2="1"
      y1="0"
      x1="0"
    >
      <stop id="stop64" offset="0" style="stop-opacity: 1; stop-color: #ee3e3c" />
      <stop id="stop66" offset="1" style="stop-opacity: 1; stop-color: #9f3335" />
    </linearGradient>
    <clipPath id="clipPath78" clipPathUnits="userSpaceOnUse">
      <path id="path76" d="M 0,222.352 H 600 V 0 H 0 Z" />
    </clipPath>
  </defs>
  <g transform="matrix(1.3333333,0,0,-1.3333333,0,296.46933)" id="g10">
    <g id="g12">
      <g id="g14">
        <g id="g20">
          <g id="g22">
            <path
              id="path30"
              style="fill: url(#linearGradient28); stroke: none"
              d="M 59.041,203.19 C 49.867,199.608 44.872,192.658 42.826,183.398 v 0 c -2.231,-10.089 -0.169,-19.714 4.305,-28.776 v 0 c 11.104,-22.49 30.047,-37.095 50.99,-50.289 v 0 c 2.558,1.614 4.732,2.922 6.839,4.328 v 0 c 15.369,10.251 29.433,21.909 39.431,37.732 v 0 c 7.364,11.653 11.592,24.113 8.487,38.15 v 0 c -3.518,15.9 -19.947,24.413 -34.361,17.67 v 0 c -6.002,-2.808 -11.03,-6.946 -15.034,-12.278 v 0 c -1.659,-2.208 -3.373,-4.375 -5.305,-6.873 v 0 c -1.924,2.469 -3.399,4.335 -4.845,6.223 v 0 c -3.832,5.005 -8.357,9.281 -14.013,12.085 v 0 c -4.057,2.01 -8.206,3.311 -12.499,3.311 v 0 c -2.54,0 -5.13,-0.456 -7.78,-1.491"
            />
          </g>
        </g>
      </g>
    </g>
    <g id="g32">
      <g id="g34">
        <g id="g40">
          <g id="g42">
            <path
              id="path50"
              style="fill: url(#linearGradient48); stroke: none"
              d="m 12.523,146.326 c -2.102,-2.844 -0.392,-6.164 0.379,-9.515 v 0 c 0.921,-4.002 2.444,-7.987 2.591,-12.02 v 0 c 0.324,-8.954 5.315,-15.799 9.377,-23.102 v 0 c 1.923,-3.459 4.744,-6.572 5.961,-10.241 v 0 c 3.042,-9.169 9.308,-15.358 16.892,-20.71 v 0 c 3.5,-2.47 6.845,-5.223 9.963,-8.164 v 0 c 2.897,-2.731 4.783,-5.915 2.566,-10.221 v 0 c -0.839,-1.632 -0.731,-3.729 -1.191,-5.579 v 0 C 57.489,40.458 55.98,34.122 54.2,27.865 v 0 C 53.263,24.575 51.813,21.431 50.385,17.67 v 0 h 31.249 c 0.425,1.921 0.821,3.602 1.166,5.294 v 0 c 1.496,7.339 3.356,14.497 6.398,21.448 v 0 c 2.193,5.012 3.425,10.658 3.98,16.133 v 0 C 94.646,74.981 91.517,79.801 78.21,85.721 v 0 c -3.055,1.36 -6.063,2.821 -9.083,4.258 v 0 c -3.209,1.529 -5.795,3.627 -7.914,6.643 v 0 c -2.921,4.153 -6.313,8.006 -9.774,11.736 v 0 c -2.778,2.996 -6.112,5.194 -10.832,3.565 v 0 c -5.726,9.282 -9.533,19.221 -12.469,29.364 v 0 c -1.934,6.679 -4.899,11.6 -11.667,13.705 v 0 c -2.026,0.63 -4.12,1.045 -6.997,1.76 v 0 c 1.071,-3.663 1.988,-6.796 3.049,-10.426"
            />
          </g>
        </g>
      </g>
    </g>
    <g id="g52">
      <g id="g54">
        <g id="g60">
          <g id="g62">
            <path
              id="path70"
              style="fill: url(#linearGradient68); stroke: none"
              d="m 180.293,155.192 c -4.529,-1.605 -8.963,-3.409 -10.731,-8.53 v 0 c -2.073,-6 -3.958,-12.074 -6.3,-17.968 v 0 c -2.264,-5.699 -5.003,-11.209 -7.621,-16.995 v 0 c -4.977,1.822 -8.259,-0.22 -10.944,-3.058 v 0 c -3.492,-3.693 -6.861,-7.563 -9.801,-11.699 v 0 c -2.314,-3.258 -5.069,-5.569 -8.661,-7.208 v 0 c -5.214,-2.382 -10.446,-4.786 -15.405,-7.64 v 0 c -4.21,-2.423 -7.952,-5.767 -8.149,-11.09 v 0 c -0.337,-9.106 -0.29,-18.313 3.879,-26.698 v 0 c 3.612,-7.268 5.092,-15.056 6.818,-22.827 v 0 c 0.27,-1.213 0.621,-2.408 0.98,-3.786 v 0 h 31.083 c -0.719,1.94 -1.178,3.413 -1.796,4.812 v 0 c -3.502,7.923 -5.926,16.137 -6.976,24.756 v 0 c -0.251,2.048 -0.511,4.194 -1.321,6.053 v 0 c -1.379,3.162 -0.519,5.744 1.705,7.813 v 0 c 3.838,3.571 7.843,6.979 11.936,10.259 v 0 c 4.972,3.985 10.116,7.672 13.159,13.604 v 0 c 4.998,9.741 10.327,19.314 15.39,29.023 v 0 c 0.987,1.895 1.606,4.05 2.032,6.158 v 0 c 1.037,5.132 1.538,10.394 2.872,15.44 v 0 c 1.057,4.007 2.688,7.804 1.16,11.079 v 0 c 0.903,3.665 1.604,6.514 2.401,9.751 v 0 c -2.416,-0.513 -4.131,-0.69 -5.71,-1.249"
            />
          </g>
        </g>
      </g>
    </g>
    <g id="g72">
      <g clip-path="url(#clipPath78)" id="g74">
        <path
          id="path80"
          style="fill: #bf363c; fill-opacity: 1; fill-rule: nonzero; stroke: none"
          d="M 590.526,9.494 H 228.177 v 33.034 h 362.349 z"
        />
        <g transform="translate(247.6575,132.1353)" id="g82">
          <path
            id="path84"
            style="fill: #bf363c; fill-opacity: 1; fill-rule: nonzero; stroke: none"
            d="m 0,0 c 3.055,0 5.945,-0.457 8.771,-1.437 v 5.766 c -2.71,0.98 -5.765,1.437 -9.179,1.437 -5.521,0 -9.914,-1.437 -13.197,-4.263 -3.92,-3.463 -5.88,-8.641 -5.88,-15.501 0,-6.974 1.96,-12.169 5.945,-15.68 3.218,-2.826 7.611,-4.214 13.197,-4.214 3.74,0 6.746,0.588 9.114,1.683 v 5.749 c -2.433,-1.209 -5.488,-1.781 -9.114,-1.781 -3.691,0 -6.632,0.98 -8.755,3.005 -2.776,2.532 -4.148,6.224 -4.148,11.124 0,4.949 1.372,8.706 4.083,11.172 C -7.023,-0.98 -3.969,0 0,0"
          />
        </g>
        <g transform="translate(273.5959,112.0289)" id="g86">
          <path
            id="path88"
            style="fill: #bf363c; fill-opacity: 1; fill-rule: nonzero; stroke: none"
            d="M 0,0 5.423,17.281 10.895,0 Z M 8.771,25.187 H 2.074 l -12.446,-38.156 h 6.223 l 2.303,7.203 H 12.74 l 2.303,-7.203 h 6.224 z"
          />
        </g>
        <g transform="translate(314.3479,120.0323)" id="g90">
          <path
            id="path92"
            style="fill: #bf363c; fill-opacity: 1; fill-rule: nonzero; stroke: none"
            d="m 0,0 h -3.969 v 11.303 h 4.835 c 4.443,0 6.696,-1.781 6.696,-5.358 C 7.562,2.188 4.9,0 0,0 m 3.463,-4.083 c 6.632,0.457 10.323,4.377 10.323,10.535 0,6.925 -4.9,10.616 -12.577,10.616 h -11.286 v -38.041 h 6.108 V -5.88 c 3.169,-0.751 5.7,-2.597 7.726,-5.472 2.009,-2.826 3.332,-6.06 3.854,-9.621 h 6.452 c -1.437,8.755 -5.014,14.407 -10.6,16.89"
          />
        </g>
        <g transform="translate(360.5237,108.5665)" id="g94">
          <path
            id="path96"
            style="fill: #bf363c; fill-opacity: 1; fill-rule: nonzero; stroke: none"
            d="m 0,0 c -2.188,-2.483 -5.472,-3.741 -9.85,-3.741 h -4.85 v 26.51 h 4.85 c 4.313,0 7.612,-1.274 9.85,-3.741 C 2.254,16.545 3.349,13.377 3.349,9.506 3.349,5.651 2.254,2.482 0,0 m 4.557,23.455 c -3.284,3.397 -7.906,5.079 -13.72,5.079 H -20.81 V -9.507 h 11.647 c 5.88,0 10.486,1.666 13.785,5.015 3.283,3.397 4.949,8.003 4.949,13.949 0,5.929 -1.666,10.6 -5.014,13.998"
          />
        </g>
        <path
          id="path98"
          style="fill: #bf363c; fill-opacity: 1; fill-rule: nonzero; stroke: none"
          d="m 381.398,99.06 h 6.109 v 38.041 h -6.109 z"
        />
        <g transform="translate(427.2795,108.1573)" id="g100">
          <path
            id="path102"
            style="fill: #bf363c; fill-opacity: 1; fill-rule: nonzero; stroke: none"
            d="m 0,0 c -2.369,-2.711 -5.472,-4.034 -9.393,-4.034 -3.92,0 -7.087,1.323 -9.457,4.034 -2.368,2.712 -3.511,6.06 -3.511,9.915 0,3.871 1.143,7.154 3.511,9.865 2.37,2.712 5.537,4.084 9.457,4.084 3.921,0 7.024,-1.372 9.393,-4.084 C 2.368,17.069 3.577,13.786 3.577,9.915 3.577,6.06 2.368,2.712 0,0 m -9.393,29.744 c -4.213,0 -8.59,-1.437 -12.576,-4.443 -3.92,-2.924 -6.615,-8.461 -6.615,-15.386 0,-8.592 4.034,-14.227 8.983,-17.053 3.463,-2.025 6.926,-2.776 10.208,-2.776 4.835,0 10.601,1.96 14.702,6.517 C 8.003,-0.392 9.8,4.378 9.8,9.915 9.8,24.501 -1.437,29.744 -9.393,29.744"
          />
        </g>
        <g transform="translate(454.3772,104.8252)" id="g104">
          <path
            id="path106"
            style="fill: #bf363c; fill-opacity: 1; fill-rule: nonzero; stroke: none"
            d="M 0,0 V 32.275 H -6.109 V -5.766 H 15.092 V 0 Z"
          />
        </g>
        <g transform="translate(503.427,108.1573)" id="g108">
          <path
            id="path110"
            style="fill: #bf363c; fill-opacity: 1; fill-rule: nonzero; stroke: none"
            d="m 0,0 c -2.368,-2.711 -5.472,-4.034 -9.392,-4.034 -3.921,0 -7.088,1.323 -9.458,4.034 -2.368,2.712 -3.511,6.06 -3.511,9.915 0,3.871 1.143,7.154 3.511,9.865 2.37,2.712 5.537,4.084 9.458,4.084 3.92,0 7.024,-1.372 9.392,-4.084 C 2.368,17.069 3.577,13.786 3.577,9.915 3.577,6.06 2.368,2.712 0,0 m -9.392,29.744 c -4.214,0 -8.591,-1.437 -12.577,-4.443 -3.92,-2.924 -6.615,-8.461 -6.615,-15.386 0,-8.592 4.034,-14.227 8.983,-17.053 3.463,-2.025 6.926,-2.776 10.209,-2.776 4.834,0 10.6,1.96 14.701,6.517 C 8.003,-0.392 9.8,4.378 9.8,9.915 9.8,24.501 -1.437,29.744 -9.392,29.744"
          />
        </g>
        <g transform="translate(545.7961,115.1973)" id="g112">
          <path
            id="path114"
            style="fill: #bf363c; fill-opacity: 1; fill-rule: nonzero; stroke: none"
            d="m 0,0 v -10.78 c -1.159,-0.294 -2.417,-0.457 -3.871,-0.457 -4.263,0 -7.432,0.979 -9.506,2.875 -2.761,2.531 -4.148,6.337 -4.148,11.351 0,4.786 1.322,8.477 4.034,11.009 2.139,1.96 5.194,2.94 9.163,2.94 3.055,0 5.994,-0.457 8.82,-1.437 v 5.766 c -2.712,0.98 -5.7,1.437 -9.097,1.437 -5.603,0 -9.981,-1.437 -13.264,-4.263 -3.92,-3.398 -5.88,-8.592 -5.88,-15.566 0,-6.86 1.895,-11.989 5.7,-15.387 3.283,-3.005 7.792,-4.491 13.378,-4.491 3.855,0 7.432,0.686 10.715,2.009 L 6.044,0 Z"
          />
        </g>
        <g transform="translate(583.9026,137.1006)" id="g116">
          <path
            id="path118"
            style="fill: #bf363c; fill-opacity: 1; fill-rule: nonzero; stroke: none"
            d="M 0,0 -9.571,-15.68 -19.143,0 h -6.631 l 13.148,-21.217 v -16.824 h 6.109 v 16.775 L 6.615,0 Z"
          />
        </g>
        <g transform="translate(256.7561,198.9893)" id="g120">
          <path
            id="path122"
            style="fill: #818181; fill-opacity: 1; fill-rule: nonzero; stroke: none"
            d="m 0,0 c 4.491,0 8.705,-0.67 12.854,-2.107 v 8.444 c -3.969,1.438 -8.46,2.124 -13.443,2.124 -8.117,0 -14.536,-2.124 -19.371,-6.256 -5.75,-5.08 -8.624,-12.691 -8.624,-22.753 0,-10.225 2.874,-17.836 8.722,-22.998 4.737,-4.148 11.156,-6.174 19.355,-6.174 5.505,0 9.899,0.849 13.361,2.45 v 8.461 c -3.544,-1.78 -8.036,-2.629 -13.361,-2.629 -5.406,0 -9.719,1.437 -12.854,4.41 -4.051,3.707 -6.093,9.13 -6.093,16.317 0,7.268 2.042,12.756 6.011,16.399 C -10.307,-1.437 -5.831,0 0,0"
          />
        </g>
        <g transform="translate(315.7854,206.2579)" id="g124">
          <path
            id="path126"
            style="fill: #818181; fill-opacity: 1; fill-rule: nonzero; stroke: none"
            d="M 0,0 V -20.875 H -20.973 V 0 h -8.966 v -55.796 h 8.966 v 26.461 H 0 V -55.796 H 8.968 V 0 Z"
          />
        </g>
        <path
          id="path128"
          style="fill: #818181; fill-opacity: 1; fill-rule: nonzero; stroke: none"
          d="m 344.697,150.462 h 8.967 v 55.796 h -8.967 z"
        />
        <g transform="translate(398.7444,198.9893)" id="g130">
          <path
            id="path132"
            style="fill: #818181; fill-opacity: 1; fill-rule: nonzero; stroke: none"
            d="m 0,0 c 4.476,0 8.706,-0.67 12.854,-2.107 v 8.444 c -3.985,1.438 -8.46,2.124 -13.458,2.124 -8.119,0 -14.538,-2.124 -19.356,-6.256 -5.749,-5.08 -8.624,-12.691 -8.624,-22.753 0,-10.225 2.875,-17.836 8.706,-22.998 4.736,-4.148 11.155,-6.174 19.371,-6.174 5.488,0 9.882,0.849 13.361,2.45 v 8.461 c -3.56,-1.78 -8.036,-2.629 -13.361,-2.629 -5.422,0 -9.734,1.437 -12.854,4.41 -4.067,3.707 -6.092,9.13 -6.092,16.317 0,7.268 2.025,12.756 5.994,16.399 C -10.323,-1.437 -5.848,0 0,0"
          />
        </g>
        <g transform="translate(436.7854,169.4742)" id="g134">
          <path
            id="path136"
            style="fill: #818181; fill-opacity: 1; fill-rule: nonzero; stroke: none"
            d="M 0,0 7.954,25.366 15.99,0 Z M 12.854,36.963 H 3.055 l -18.262,-55.975 h 9.131 l 3.381,10.568 h 21.397 l 3.381,-10.568 h 9.131 z"
          />
        </g>
        <g transform="translate(511.969,174.1294)" id="g138">
          <path
            id="path140"
            style="fill: #818181; fill-opacity: 1; fill-rule: nonzero; stroke: none"
            d="m 0,0 v -15.811 c -1.698,-0.425 -3.561,-0.67 -5.667,-0.67 -6.256,0 -10.911,1.438 -13.949,4.214 -4.068,3.725 -6.093,9.31 -6.093,16.661 0,7.023 1.943,12.43 5.913,16.154 3.136,2.874 7.611,4.312 13.459,4.312 4.476,0 8.787,-0.67 12.937,-2.107 v 8.444 c -3.987,1.438 -8.38,2.124 -13.362,2.124 -8.199,0 -14.634,-2.124 -19.453,-6.256 -5.75,-4.998 -8.625,-12.61 -8.625,-22.835 0,-10.061 2.794,-17.591 8.363,-22.573 4.835,-4.41 11.417,-6.598 19.633,-6.598 5.652,0 10.895,1.012 15.713,2.956 L 8.869,0 Z"
          />
        </g>
        <g transform="translate(576.1448,163.8228)" id="g142">
          <path
            id="path144"
            style="fill: #818181; fill-opacity: 1; fill-rule: nonzero; stroke: none"
            d="m 0,0 c -3.463,-3.985 -8.021,-5.929 -13.77,-5.929 -5.75,0 -10.404,1.944 -13.867,5.929 -3.479,3.969 -5.162,8.869 -5.162,14.537 0,5.668 1.683,10.486 5.162,14.455 3.463,3.969 8.117,6.011 13.867,6.011 5.749,0 10.307,-2.042 13.77,-6.011 C 3.479,25.023 5.243,20.205 5.243,14.537 5.243,8.869 3.479,3.969 0,0 m -13.77,43.627 c -6.174,0 -12.609,-2.123 -18.441,-6.517 -5.749,-4.312 -9.718,-12.43 -9.718,-22.573 0,-12.593 5.912,-20.891 13.181,-25.023 5.08,-2.973 10.144,-4.067 14.978,-4.067 7.089,0 15.55,2.874 21.561,9.555 3.969,4.394 6.582,11.417 6.582,19.535 0,21.397 -16.48,29.09 -28.143,29.09"
          />
        </g>
        <path
          id="path146"
          style="fill: #818181; fill-opacity: 1; fill-rule: nonzero; stroke: none"
          d="m 233.503,52.655 h -5.331 V 85.85 h 5.331 z"
        />
        <g transform="translate(286.1145,52.6553)" id="g148">
          <path
            id="path150"
            style="fill: #818181; fill-opacity: 1; fill-rule: nonzero; stroke: none"
            d="M 0,0 H -6.236 L -20.37,25.147 V 0 h -5.28 v 33.195 h 6.89 L -5.281,9.255 v 23.94 H 0 Z"
          />
        </g>
        <g transform="translate(312.4221,58.6915)" id="g152">
          <path
            id="path154"
            style="fill: #818181; fill-opacity: 1; fill-rule: nonzero; stroke: none"
            d="m 0,0 c 1.961,-1.057 3.872,-1.559 5.683,-1.559 2.615,0 4.174,1.408 4.174,3.872 0,0.855 -0.251,1.761 -0.704,2.666 C 8.7,5.885 8.197,6.639 7.645,7.191 7.142,7.795 6.287,8.751 5.029,10.059 l -2.967,3.118 c -0.604,0.705 -1.257,1.71 -1.912,3.068 -0.654,1.358 -1.005,2.666 -1.005,3.974 0,4.426 3.218,7.443 9.304,7.443 1.659,0 3.42,-0.251 4.073,-0.503 l 0.554,-0.151 v -4.929 c -1.659,0.453 -3.118,0.654 -4.427,0.654 -2.514,0 -3.771,-0.905 -3.771,-2.666 0,-0.905 0.452,-1.76 0.956,-2.715 l 1.609,-1.961 c 0.402,-0.404 1.71,-1.812 2.163,-2.365 1.257,-1.459 2.263,-2.616 2.916,-3.47 1.41,-1.761 2.767,-4.677 2.767,-7.444 0,-2.766 -0.905,-4.879 -2.666,-6.387 C 10.863,-5.784 8.7,-6.539 6.235,-6.539 3.973,-6.539 1.056,-5.835 0,-5.08 Z"
          />
        </g>
        <g transform="translate(363.7766,52.6553)" id="g156">
          <path
            id="path158"
            style="fill: #818181; fill-opacity: 1; fill-rule: nonzero; stroke: none"
            d="m 0,0 h -5.332 v 28.166 h -9.656 v 5.029 H 9.707 V 28.166 H 0 Z"
          />
        </g>
        <path
          id="path160"
          style="fill: #818181; fill-opacity: 1; fill-rule: nonzero; stroke: none"
          d="m 402.204,52.655 h -5.331 V 85.85 h 5.331 z"
        />
        <g transform="translate(440.5823,52.6553)" id="g162">
          <path
            id="path164"
            style="fill: #818181; fill-opacity: 1; fill-rule: nonzero; stroke: none"
            d="m 0,0 h -5.332 v 28.166 h -9.656 v 5.029 H 9.707 V 28.166 H 0 Z"
          />
        </g>
        <g transform="translate(492.8411,85.8506)" id="g166">
          <path
            id="path168"
            style="fill: #818181; fill-opacity: 1; fill-rule: nonzero; stroke: none"
            d="m 0,0 h 5.332 v -18.408 c 0,-6.639 -0.805,-10.059 -3.068,-12.322 -2.113,-2.113 -5.231,-3.169 -9.406,-3.169 -4.376,0 -7.644,1.208 -9.757,3.571 -0.955,1.106 -1.66,2.515 -2.062,4.275 -0.402,1.76 -0.603,4.325 -0.603,7.645 V 0 h 5.332 v -18.056 c 0,-5.231 0.502,-7.595 1.86,-8.953 1.156,-1.157 2.968,-1.76 5.331,-1.76 2.162,0 3.872,0.553 5.029,1.61 1.459,1.357 2.012,3.671 2.012,9.103 z"
          />
        </g>
        <g transform="translate(536.1497,52.6553)" id="g170">
          <path
            id="path172"
            style="fill: #818181; fill-opacity: 1; fill-rule: nonzero; stroke: none"
            d="m 0,0 h -5.332 v 28.166 h -9.656 v 5.029 H 9.706 V 28.166 H 0 Z"
          />
        </g>
        <g transform="translate(587.7551,52.6553)" id="g174">
          <path
            id="path176"
            style="fill: #818181; fill-opacity: 1; fill-rule: nonzero; stroke: none"
            d="M 0,0 H -18.51 V 33.195 H 0 v -5.029 h -13.178 v -7.394 h 9.757 v -5.029 h -9.757 V 5.029 L 0,5.029 Z"
          />
        </g>
        <g transform="translate(238.429,21.0342)" id="g178">
          <path
            id="path180"
            style="fill: #ffffff; fill-opacity: 1; fill-rule: nonzero; stroke: none"
            d="M 0,0 V 7.121 H 8.935 V 8.542 H 0 v 6.484 h 9.898 v 1.438 H -1.666 V -1.437 h 11.81 V 0 Z"
          />
        </g>
        <g transform="translate(261.5745,32.4834)" id="g182">
          <path
            id="path184"
            style="fill: #ffffff; fill-opacity: 1; fill-rule: nonzero; stroke: none"
            d="M 0,0 -4.051,-11.041 -8.086,0 H -9.653 L -4.9,-12.887 h 1.617 L 1.552,0 Z"
          />
        </g>
        <g transform="translate(269.3,30.1319)" id="g186">
          <path
            id="path188"
            style="fill: #ffffff; fill-opacity: 1; fill-rule: nonzero; stroke: none"
            d="M 0,0 C 0.686,0.882 1.666,1.339 2.94,1.355 4.23,1.339 5.227,0.898 5.896,0.032 6.566,-0.817 6.893,-1.895 6.893,-3.201 H -1.274 C -1.127,-1.944 -0.702,-0.866 0,0 m 2.94,-9.539 c -1.405,0.017 -2.45,0.522 -3.153,1.518 -0.702,0.964 -1.061,2.157 -1.061,3.578 H 8.412 C 8.313,0.277 6.484,2.662 2.94,2.695 1.144,2.662 -0.262,1.992 -1.258,0.702 c -1.029,-1.29 -1.535,-2.907 -1.535,-4.851 -0.017,-1.927 0.44,-3.512 1.372,-4.769 0.931,-1.274 2.385,-1.928 4.361,-1.961 1.568,0.017 2.777,0.425 3.626,1.242 0.833,0.8 1.421,1.813 1.764,3.054 H 6.713 C 6.174,-8.543 4.916,-9.522 2.94,-9.539"
          />
        </g>
        <g transform="translate(285.5842,32.2227)" id="g190">
          <path
            id="path192"
            style="fill: #ffffff; fill-opacity: 1; fill-rule: nonzero; stroke: none"
            d="m 0,0 c -0.637,-0.408 -1.159,-1.127 -1.552,-2.156 h -0.049 v 2.417 h -1.437 v -12.887 h 1.437 v 6.321 c -0.015,1.487 0.262,2.743 0.833,3.773 0.605,1.029 1.7,1.535 3.284,1.535 V 0.604 C 1.486,0.604 0.653,0.392 0,0"
          />
        </g>
        <g transform="translate(300.9875,32.4834)" id="g194">
          <path
            id="path196"
            style="fill: #ffffff; fill-opacity: 1; fill-rule: nonzero; stroke: none"
            d="M 0,0 -3.985,-11.074 -7.987,0 h -1.601 l 4.818,-12.985 c -0.114,-0.278 -0.228,-0.62 -0.342,-0.996 -0.131,-0.409 -0.262,-0.817 -0.442,-1.193 -0.163,-0.376 -0.376,-0.702 -0.621,-0.947 -0.261,-0.262 -0.603,-0.408 -1.012,-0.425 -0.424,0.017 -0.834,0.066 -1.209,0.148 v -1.373 c 0.392,-0.114 0.849,-0.164 1.373,-0.179 0.979,0.015 1.747,0.489 2.319,1.437 0.539,0.914 1.078,2.189 1.633,3.806 L 1.567,0 Z"
          />
        </g>
        <g transform="translate(327.0725,37.4981)" id="g198">
          <path
            id="path200"
            style="fill: #ffffff; fill-opacity: 1; fill-rule: nonzero; stroke: none"
            d="M 0,0 V -7.693 H -10.226 V 0 h -1.666 v -17.901 h 1.666 v 8.787 H 0 v -8.787 H 1.666 V 0 Z"
          />
        </g>
        <g transform="translate(336.5784,30.1319)" id="g202">
          <path
            id="path204"
            style="fill: #ffffff; fill-opacity: 1; fill-rule: nonzero; stroke: none"
            d="M 0,0 C 0.686,0.882 1.683,1.339 2.94,1.355 4.247,1.339 5.227,0.898 5.913,0.032 6.566,-0.817 6.893,-1.895 6.893,-3.201 H -1.258 C -1.11,-1.944 -0.687,-0.866 0,0 m 2.94,-9.539 c -1.388,0.017 -2.434,0.522 -3.136,1.518 -0.719,0.964 -1.062,2.157 -1.062,3.578 H 8.428 C 8.313,0.277 6.484,2.662 2.94,2.695 1.144,2.662 -0.262,1.992 -1.241,0.702 c -1.03,-1.29 -1.552,-2.907 -1.552,-4.851 -0.017,-1.927 0.441,-3.512 1.389,-4.769 0.93,-1.274 2.384,-1.928 4.344,-1.961 1.568,0.017 2.793,0.425 3.642,1.242 0.833,0.8 1.405,1.813 1.748,3.054 H 6.713 C 6.19,-8.543 4.933,-9.522 2.94,-9.539"
          />
        </g>
        <g transform="translate(357.926,24.3331)" id="g206">
          <path
            id="path208"
            style="fill: #ffffff; fill-opacity: 1; fill-rule: nonzero; stroke: none"
            d="m 0,0 c -0.032,-1.29 -0.489,-2.237 -1.404,-2.825 -0.899,-0.621 -1.96,-0.915 -3.153,-0.915 -0.702,0 -1.323,0.196 -1.862,0.588 -0.555,0.376 -0.833,0.947 -0.849,1.715 0.033,1.699 1.208,2.613 3.528,2.744 0.621,0.033 1.258,0.098 1.879,0.213 C -1.225,1.617 -0.604,1.797 0,2.025 Z M 1.731,-3.594 C 1.503,-3.43 1.405,-3.087 1.437,-2.516 V 4.492 C 1.405,5.962 0.98,7.007 0.131,7.628 -0.718,8.199 -1.796,8.494 -3.087,8.494 -4.475,8.494 -5.635,8.167 -6.582,7.53 -7.529,6.844 -8.085,5.75 -8.231,4.247 h 1.469 c 0.18,1.094 0.572,1.878 1.193,2.303 0.653,0.425 1.469,0.621 2.45,0.604 C -1.992,7.138 -1.176,6.893 -0.702,6.419 -0.229,5.945 0,5.325 0,4.541 0,4.312 -0.016,4.051 -0.064,3.79 -0.146,3.528 -0.294,3.332 -0.522,3.201 -0.783,3.104 -1.094,3.006 -1.453,2.924 -1.812,2.858 -2.155,2.81 -2.434,2.777 L -4.442,2.499 C -7.35,2.091 -8.804,0.801 -8.804,-1.389 c 0.017,-1.224 0.458,-2.155 1.291,-2.743 0.8,-0.638 1.764,-0.948 2.874,-0.948 1.863,0.017 3.414,0.719 4.672,2.124 0,-0.441 0.081,-0.85 0.229,-1.209 0.147,-0.359 0.457,-0.588 0.915,-0.686 0.212,-0.049 0.425,-0.065 0.636,-0.065 0.229,0 0.458,0.032 0.686,0.114 0.196,0.049 0.344,0.081 0.458,0.115 v 1.175 C 2.353,-3.724 1.944,-3.757 1.731,-3.594"
          />
        </g>
        <g transform="translate(368.2004,32.2227)" id="g210">
          <path
            id="path212"
            style="fill: #ffffff; fill-opacity: 1; fill-rule: nonzero; stroke: none"
            d="m 0,0 c -0.653,-0.408 -1.176,-1.127 -1.568,-2.156 h -0.049 v 2.417 h -1.438 v -12.887 h 1.438 v 6.321 c -0.017,1.487 0.262,2.743 0.833,3.773 0.604,1.029 1.699,1.535 3.283,1.535 V 0.604 C 1.47,0.604 0.637,0.392 0,0"
          />
        </g>
        <g transform="translate(378.4905,20.5928)" id="g214">
          <path
            id="path216"
            style="fill: #ffffff; fill-opacity: 1; fill-rule: nonzero; stroke: none"
            d="m 0,0 c -0.588,0 -0.931,0.146 -1.062,0.441 -0.147,0.294 -0.211,0.751 -0.196,1.372 v 8.836 h 2.336 v 1.242 h -2.336 v 3.577 h -1.437 v -3.577 h -1.764 v -1.242 h 1.764 V 1.225 c 0,-0.931 0.213,-1.584 0.604,-1.993 0.376,-0.376 0.899,-0.572 1.601,-0.572 0.359,0.017 0.703,0.066 0.98,0.148 0.278,0.065 0.506,0.114 0.67,0.147 V 0.163 C 0.784,0.049 0.392,0 0,0"
          />
        </g>
        <g transform="translate(392.5706,21.9161)" id="g218">
          <path
            id="path220"
            style="fill: #ffffff; fill-opacity: 1; fill-rule: nonzero; stroke: none"
            d="m 0,0 c -0.784,-0.882 -1.813,-1.323 -3.071,-1.323 -1.356,0.016 -2.401,0.539 -3.104,1.584 -0.734,1.029 -1.11,2.336 -1.11,3.904 0,1.519 0.376,2.776 1.127,3.806 0.751,1.029 1.78,1.568 3.087,1.6 C -1.568,9.555 -0.458,8.983 0.277,7.873 0.979,6.762 1.29,5.373 1.208,3.724 1.176,2.091 0.768,0.849 0,0 m 1.372,8.869 c -0.915,1.323 -2.32,2.009 -4.198,2.042 -0.882,0 -1.732,-0.213 -2.548,-0.604 C -6.175,9.898 -6.812,9.294 -7.285,8.493 v 7.089 H -8.706 V -2.319 h 1.421 v 2.254 h 0.049 c 0.458,-0.833 1.094,-1.47 1.911,-1.895 0.784,-0.458 1.6,-0.686 2.417,-0.703 2.01,0.033 3.463,0.686 4.361,1.961 0.85,1.273 1.275,2.858 1.275,4.802 0,1.878 -0.442,3.462 -1.356,4.769"
          />
        </g>
        <g transform="translate(402.5012,30.1319)" id="g222">
          <path
            id="path224"
            style="fill: #ffffff; fill-opacity: 1; fill-rule: nonzero; stroke: none"
            d="M 0,0 C 0.686,0.882 1.666,1.339 2.939,1.355 4.23,1.339 5.227,0.898 5.896,0.032 6.566,-0.817 6.893,-1.895 6.893,-3.201 H -1.274 C -1.127,-1.944 -0.702,-0.866 0,0 m 2.939,-9.539 c -1.387,0.017 -2.449,0.522 -3.152,1.518 -0.702,0.964 -1.061,2.157 -1.061,3.578 H 8.412 C 8.313,0.277 6.484,2.662 2.939,2.695 1.144,2.662 -0.262,1.992 -1.258,0.702 c -1.029,-1.29 -1.535,-2.907 -1.535,-4.851 -0.017,-1.927 0.44,-3.512 1.372,-4.769 0.931,-1.274 2.385,-1.928 4.36,-1.961 1.569,0.017 2.778,0.425 3.627,1.242 0.833,0.8 1.421,1.813 1.764,3.054 H 6.713 C 6.174,-8.543 4.916,-9.522 2.939,-9.539"
          />
        </g>
        <g transform="translate(423.8489,24.3331)" id="g226">
          <path
            id="path228"
            style="fill: #ffffff; fill-opacity: 1; fill-rule: nonzero; stroke: none"
            d="m 0,0 c -0.032,-1.29 -0.506,-2.237 -1.404,-2.825 -0.915,-0.621 -1.96,-0.915 -3.169,-0.915 -0.702,0 -1.323,0.196 -1.863,0.588 -0.539,0.376 -0.833,0.947 -0.848,1.715 0.032,1.699 1.208,2.613 3.527,2.744 0.638,0.033 1.258,0.098 1.896,0.213 C -1.241,1.617 -0.62,1.797 0,2.025 Z M 1.731,-3.594 C 1.503,-3.43 1.405,-3.087 1.421,-2.516 V 4.492 C 1.405,5.962 0.964,7.007 0.114,7.628 -0.734,8.199 -1.812,8.494 -3.104,8.494 -4.491,8.494 -5.651,8.167 -6.582,7.53 -7.529,6.844 -8.085,5.75 -8.231,4.247 h 1.469 c 0.163,1.094 0.556,1.878 1.193,2.303 0.636,0.425 1.453,0.621 2.45,0.604 1.127,-0.016 1.927,-0.261 2.4,-0.735 C -0.245,5.945 0,5.325 0,4.541 0,4.312 -0.032,4.051 -0.081,3.79 -0.146,3.528 -0.294,3.332 -0.539,3.201 -0.8,3.104 -1.094,3.006 -1.453,2.924 -1.829,2.858 -2.155,2.81 -2.45,2.777 L -4.442,2.499 C -7.35,2.091 -8.804,0.801 -8.804,-1.389 c 0.017,-1.224 0.442,-2.155 1.275,-2.743 0.8,-0.638 1.763,-0.948 2.89,-0.948 1.846,0.017 3.398,0.719 4.656,2.124 0.016,-0.441 0.097,-0.85 0.228,-1.209 0.148,-0.359 0.458,-0.588 0.915,-0.686 0.212,-0.049 0.425,-0.065 0.653,-0.065 0.212,0 0.441,0.032 0.67,0.114 0.212,0.049 0.36,0.081 0.457,0.115 v 1.175 C 2.353,-3.724 1.944,-3.757 1.731,-3.594"
          />
        </g>
        <g transform="translate(434.1887,20.5928)" id="g230">
          <path
            id="path232"
            style="fill: #ffffff; fill-opacity: 1; fill-rule: nonzero; stroke: none"
            d="m 0,0 c -0.588,0 -0.932,0.146 -1.062,0.441 -0.147,0.294 -0.212,0.751 -0.196,1.372 v 8.836 h 2.336 v 1.242 h -2.336 v 3.577 h -1.437 v -3.577 h -1.764 v -1.242 h 1.764 V 1.225 c 0,-0.931 0.212,-1.584 0.604,-1.993 0.375,-0.376 0.899,-0.572 1.601,-0.572 0.359,0.017 0.702,0.066 0.979,0.148 0.279,0.065 0.507,0.114 0.67,0.147 V 0.163 C 0.784,0.049 0.392,0 0,0"
          />
        </g>
        <path
          id="path234"
          style="fill: #ffffff; fill-opacity: 1; fill-rule: nonzero; stroke: none"
          d="m 448.546,19.597 h 1.682 v 17.901 h -1.682 z"
        />
        <g transform="translate(465.0422,24.5782)" id="g236">
          <path
            id="path238"
            style="fill: #ffffff; fill-opacity: 1; fill-rule: nonzero; stroke: none"
            d="m 0,0 c -0.229,0.425 -0.522,0.784 -0.914,1.045 -0.359,0.278 -0.784,0.49 -1.274,0.67 -0.474,0.163 -0.98,0.294 -1.487,0.425 -1.029,0.213 -1.943,0.49 -2.727,0.833 -0.392,0.196 -0.686,0.408 -0.915,0.686 -0.245,0.278 -0.36,0.62 -0.36,1.045 0.017,1.421 0.948,2.156 2.81,2.205 0.915,0 1.682,-0.196 2.304,-0.604 0.587,-0.409 0.947,-1.111 1.077,-2.107 h 1.47 C -0.44,6.941 -2.058,8.298 -4.834,8.249 -6.206,8.232 -7.268,7.889 -8.036,7.22 -8.804,6.55 -9.195,5.668 -9.195,4.557 c 0,-0.604 0.114,-1.111 0.342,-1.536 0.229,-0.424 0.54,-0.75 0.916,-1.028 0.391,-0.245 0.833,-0.441 1.306,-0.589 0.245,-0.081 0.49,-0.146 0.719,-0.195 0.228,-0.065 0.474,-0.147 0.702,-0.229 0.523,-0.098 1.013,-0.196 1.503,-0.293 0.228,-0.05 0.457,-0.116 0.686,-0.197 0.228,-0.065 0.424,-0.164 0.587,-0.261 0.376,-0.164 0.687,-0.392 0.915,-0.686 0.212,-0.294 0.311,-0.687 0.311,-1.144 0,-0.653 -0.245,-1.192 -0.752,-1.649 -0.489,-0.474 -1.273,-0.719 -2.335,-0.735 -2.107,-0.049 -3.365,0.964 -3.741,3.038 h -1.453 c 0.081,-1.241 0.522,-2.271 1.323,-3.087 0.8,-0.85 1.943,-1.275 3.413,-1.291 1.486,0 2.712,0.327 3.659,0.964 0.931,0.637 1.405,1.568 1.421,2.793 C 0.327,-0.947 0.213,-0.425 0,0"
          />
        </g>
        <g transform="translate(487.6809,29.6582)" id="g240">
          <path
            id="path242"
            style="fill: #ffffff; fill-opacity: 1; fill-rule: nonzero; stroke: none"
            d="m 0,0 c -0.882,-0.507 -2.106,-0.735 -3.658,-0.719 h -3.74 v 7.121 h 4.23 C -0.18,6.386 1.307,5.243 1.291,2.956 1.274,1.486 0.85,0.489 0,0 M 1.813,6.37 C 1.421,6.827 0.85,7.187 0.114,7.464 -0.637,7.709 -1.567,7.84 -2.728,7.84 h -6.337 v -17.902 h 1.667 v 7.906 h 3.707 c 1.682,-0.033 3.201,0.31 4.541,1.029 1.372,0.702 2.074,2.025 2.107,3.969 C 2.973,4.23 2.598,5.423 1.813,6.37"
          />
        </g>
        <g transform="translate(498.2815,32.2227)" id="g244">
          <path
            id="path246"
            style="fill: #ffffff; fill-opacity: 1; fill-rule: nonzero; stroke: none"
            d="m 0,0 c -0.637,-0.408 -1.159,-1.127 -1.552,-2.156 h -0.065 v 2.417 h -1.421 v -12.887 h 1.421 v 6.321 c -0.016,1.487 0.278,2.743 0.849,3.773 0.605,1.029 1.683,1.535 3.284,1.535 V 0.604 C 1.486,0.604 0.653,0.392 0,0"
          />
        </g>
        <g transform="translate(506.6282,30.1319)" id="g248">
          <path
            id="path250"
            style="fill: #ffffff; fill-opacity: 1; fill-rule: nonzero; stroke: none"
            d="M 0,0 C 0.687,0.882 1.666,1.339 2.94,1.355 4.23,1.339 5.227,0.898 5.896,0.032 6.55,-0.817 6.893,-1.895 6.893,-3.201 H -1.274 C -1.127,-1.944 -0.702,-0.866 0,0 m 2.94,-9.539 c -1.405,0.017 -2.45,0.522 -3.152,1.518 -0.703,0.964 -1.062,2.157 -1.062,3.578 H 8.412 C 8.298,0.277 6.484,2.662 2.94,2.695 1.144,2.662 -0.262,1.992 -1.258,0.702 c -1.029,-1.29 -1.535,-2.907 -1.535,-4.851 -0.017,-1.927 0.441,-3.512 1.372,-4.769 0.931,-1.274 2.385,-1.928 4.361,-1.961 1.568,0.017 2.777,0.425 3.626,1.242 0.833,0.8 1.421,1.813 1.747,3.054 h -1.6 C 6.174,-8.543 4.917,-9.522 2.94,-9.539"
          />
        </g>
        <g transform="translate(528.7444,24.0557)" id="g252">
          <path
            id="path254"
            style="fill: #ffffff; fill-opacity: 1; fill-rule: nonzero; stroke: none"
            d="m 0,0 c -0.376,-2.287 -1.65,-3.431 -3.822,-3.463 -1.487,0.032 -2.548,0.588 -3.218,1.698 -0.653,1.078 -0.981,2.32 -0.981,3.708 -0.015,1.421 0.311,2.679 1.013,3.774 0.654,1.11 1.716,1.682 3.186,1.715 1.926,-0.033 3.169,-1.062 3.708,-3.071 H 1.355 C 0.833,7.317 -0.883,8.787 -3.822,8.771 -5.685,8.738 -7.089,8.053 -8.053,6.729 -9.049,5.406 -9.556,3.822 -9.556,1.96 c 0,-1.943 0.474,-3.528 1.406,-4.802 0.93,-1.274 2.368,-1.928 4.328,-1.961 1.567,0.017 2.793,0.458 3.675,1.34 0.898,0.865 1.454,2.009 1.682,3.463 z"
          />
        </g>
        <path
          id="path256"
          style="fill: #ffffff; fill-opacity: 1; fill-rule: nonzero; stroke: none"
          d="m 535.261,35.276 h 1.568 v 2.222 h -1.568 z m 0.065,-15.679 h 1.437 v 12.887 h -1.437 z"
        />
        <g transform="translate(550.3538,22.2754)" id="g258">
          <path
            id="path260"
            style="fill: #ffffff; fill-opacity: 1; fill-rule: nonzero; stroke: none"
            d="m 0,0 c -0.67,-1.111 -1.765,-1.666 -3.283,-1.683 -1.372,0.017 -2.418,0.523 -3.137,1.536 -0.734,0.98 -1.11,2.287 -1.11,3.904 0,1.453 0.343,2.711 0.996,3.789 0.653,1.078 1.748,1.634 3.251,1.666 C -1.748,9.195 -0.653,8.673 0,7.644 0.669,6.615 0.996,5.324 0.979,3.757 0.979,2.335 0.653,1.078 0,0 M 1.078,8.591 C 0.114,9.865 -1.34,10.519 -3.283,10.552 -5.194,10.519 -6.648,9.865 -7.611,8.591 -8.575,7.317 -9.049,5.7 -9.049,3.757 c 0.016,-2.222 0.588,-3.904 1.698,-5.031 1.079,-1.144 2.434,-1.732 4.068,-1.748 1.797,0.016 3.201,0.653 4.214,1.895 1.029,1.192 1.551,2.809 1.568,4.884 0,1.943 -0.474,3.56 -1.421,4.834"
          />
        </g>
        <g transform="translate(565.887,32.4834)" id="g262">
          <path
            id="path264"
            style="fill: #ffffff; fill-opacity: 1; fill-rule: nonzero; stroke: none"
            d="m 0,0 v -7.023 c 0,-1.438 -0.327,-2.597 -0.98,-3.479 -0.669,-0.915 -1.601,-1.372 -2.826,-1.389 -2.173,0.017 -3.234,1.16 -3.201,3.43 V 0 h -1.437 v -8.493 c -0.017,-1.34 0.309,-2.467 0.979,-3.349 0.67,-0.915 1.814,-1.372 3.446,-1.388 0.556,0.016 1.046,0.098 1.471,0.245 0.408,0.131 0.784,0.294 1.078,0.506 0.326,0.229 0.604,0.458 0.849,0.703 0.245,0.245 0.458,0.457 0.621,0.67 v -1.781 H 1.437 L 1.437,0 Z"
          />
        </g>
        <g transform="translate(581.6165,24.5782)" id="g266">
          <path
            id="path268"
            style="fill: #ffffff; fill-opacity: 1; fill-rule: nonzero; stroke: none"
            d="m 0,0 c -0.213,0.425 -0.523,0.784 -0.915,1.045 -0.359,0.278 -0.784,0.49 -1.258,0.67 -0.49,0.163 -0.996,0.294 -1.503,0.425 -1.028,0.213 -1.927,0.49 -2.727,0.833 -0.375,0.196 -0.686,0.408 -0.899,0.686 -0.245,0.278 -0.375,0.62 -0.375,1.045 0.016,1.421 0.963,2.156 2.809,2.205 0.931,0 1.682,-0.196 2.304,-0.604 0.587,-0.409 0.947,-1.111 1.078,-2.107 h 1.469 C -0.441,6.941 -2.042,8.298 -4.835,8.249 -6.207,8.232 -7.269,7.889 -8.021,7.22 -8.804,6.55 -9.196,5.668 -9.196,4.557 c 0,-0.604 0.114,-1.111 0.342,-1.536 0.23,-0.424 0.54,-0.75 0.932,-1.028 0.375,-0.245 0.817,-0.441 1.307,-0.589 0.228,-0.081 0.473,-0.146 0.702,-0.195 0.228,-0.065 0.474,-0.147 0.719,-0.229 0.506,-0.098 0.996,-0.196 1.486,-0.293 0.229,-0.05 0.474,-0.116 0.702,-0.197 0.213,-0.065 0.408,-0.164 0.572,-0.261 0.375,-0.164 0.686,-0.392 0.914,-0.686 0.213,-0.294 0.311,-0.687 0.311,-1.144 0,-0.653 -0.245,-1.192 -0.751,-1.649 -0.49,-0.474 -1.274,-0.719 -2.319,-0.735 -2.124,-0.049 -3.366,0.964 -3.757,3.038 H -9.49 c 0.082,-1.241 0.522,-2.271 1.323,-3.087 0.8,-0.85 1.943,-1.275 3.414,-1.291 1.486,0 2.711,0.327 3.658,0.964 0.931,0.637 1.405,1.568 1.421,2.793 C 0.326,-0.947 0.212,-0.425 0,0"
          />
        </g>
        <path
          id="path270"
          style="fill: #818181; fill-opacity: 1; fill-rule: nonzero; stroke: none"
          d="m 208.224,9.494 h 1.539 v 203.363 h -1.539 z"
        />
      </g>
    </g>
  </g>
</svg>
