<svg viewBox="0 0 383 75" xmlns="http://www.w3.org/2000/svg"><path d="M379.1 54.7c1.3 0 2.3 1 2.3 2.3s-1 2.3-2.3 2.3c-1.2 0-2.2-1-2.2-2.3s1-2.3 2.2-2.3m0 4.2c1.1 0 1.9-.9 1.9-2s-.8-1.9-1.9-1.9c-1 0-1.9.9-1.9 1.9.1 1.2.9 2 1.9 2m-.7-3.2h.9c.4 0 .7.3.7.7s-.2.6-.5.6l.1.1.5.9h-.4l-.5-1h-.5v1h-.4zm.8 1.2c.3 0 .4-.2.4-.5s-.2-.4-.4-.4h-.5v.9zM308.5 50c0-5.1 4.1-9.2 9.1-9.2 5.1 0 9.1 4.1 9.1 9.2s-4.1 9.2-9.1 9.2c-5-.1-9.1-4.2-9.1-9.2zm13.6 0c0-2.5-2-4.6-4.4-4.6-2.5 0-4.4 2.1-4.4 4.6s1.9 4.6 4.4 4.6c2.4-.1 4.4-2.1 4.4-4.6zm-34.7-8.9h1.8c.2 0 .3-.1.3-.3v-4.1c0-.1.1-.3.2-.3l4.1-2.2c.2-.1.5 0 .5.3v6.3c0 .2.1.3.3.3h4.6v4.4h-4.6c-.2 0-.3.1-.3.3v5.3c0 3.5 1.9 3.2 4.9 3.2v4.5h-2.3c-5.6 0-7.4-1.9-7.4-7.7v-5.4c0-.2-.1-.3-.3-.3h-1.8zm-28.3 8.5l-10.3-16.3c-.1-.1-.2-.2-.4-.2h-4.8c-.3 0-.5.2-.5.5v24.8c0 .3.2.5.5.5h3.9c.3 0 .5-.2.5-.5V41.6c0-.2.2-.2.3-.1l10.8 17.2c.1.1.2.2.4.2h4.5c.3 0 .5-.2.5-.5V33.6c0-.3-.2-.5-.5-.5h-3.9c-.3 0-.5.2-.5.5v15.9c0 .2-.4.3-.5.1zm110.6 9.2h3.8c.3 0 .5-.2.5-.5V33.5c0-.3-.2-.5-.5-.5h-3.8c-.3 0-.5.2-.5.5v24.8c0 .3.2.5.5.5zM304 33.4c-1.5 0-2.8 1.3-2.8 2.8s1.3 2.8 2.8 2.8 2.8-1.3 2.8-2.8-1.2-2.8-2.8-2.8zm-1.9 25.4h3.8c.3 0 .5-.2.5-.5V41.6c0-.3-.2-.5-.5-.5h-3.8c-.3 0-.5.2-.5.5v16.7c0 .3.2.5.5.5zm38.3-.5c0 .3.2.5.5.5h3.9c.3 0 .5-.2.5-.5V48c0-4.6-2.5-7.2-6.7-7.2-1.8 0-3.4.7-4.5 1.9-.1.1-.4.1-.4-.1v-.9c0-.3-.2-.5-.5-.5h-3.8c-.3 0-.5.2-.5.5v16.7c0 .3.2.5.5.5h3.8c.3 0 .5-.2.5-.5v-9.1c0-3 1.5-4.2 3.4-4.2 2.2 0 3.2 1.4 3.2 3.7zm-59.8-8.4c0-2.6-1.9-4.7-4.5-4.7-2.7 0-4.7 2-4.7 4.7s2 4.8 4.7 4.8c2.6 0 4.5-2.2 4.5-4.8zm-.2-7.6v-.7c0-.3.2-.5.5-.5h3.8c.3 0 .5.2.5.5v16.7c0 .3-.2.5-.5.5h-3.8c-.3 0-.5-.2-.5-.5v-.9c0-.2-.2-.3-.4-.2-1.2 1.1-2.9 1.9-4.9 1.9-3.7 0-8.5-3-8.5-9.2s4.6-9.2 8.6-9.2c2.1 0 3.7.7 4.9 1.7.1.2.3.1.3-.1zm80.9 7.6c0-2.6-1.9-4.7-4.5-4.7-2.7 0-4.7 2-4.7 4.7s2 4.8 4.7 4.8c2.6 0 4.5-2.2 4.5-4.8zm-.1-7.6v-.7c0-.3.2-.5.5-.5h3.8c.3 0 .5.2.5.5v16.7c0 .3-.2.5-.5.5h-3.8c-.3 0-.5-.2-.5-.5v-.9c0-.2-.2-.3-.4-.2-1.2 1.1-2.9 1.9-4.9 1.9-3.7 0-8.5-3-8.5-9.2s4.6-9.2 8.6-9.2c2.1 0 3.7.7 4.9 1.7.1.2.3.1.3-.1zM84 45.8c0-7.7 5.8-13.2 13.2-13.2 4.7 0 8.7 2.4 11 6 .1.2.1.5-.1.6l-3.5 2.2c-.2.1-.5.1-.7-.1-1.5-2.4-3.6-3.9-6.7-3.9-4.8 0-8.4 3.7-8.4 8.4 0 4.6 3.5 8.3 8.3 8.3 3.3 0 5.7-1.8 7.1-4.4.1-.2.4-.3.6-.2l3.6 1.9c.2.1.3.4.2.6-2.3 4.1-6.5 6.9-11.4 6.9-8 .2-13.2-5.7-13.2-13.1m136.2 8.3l3.9-1.5c.2-.1.4 0 .5.2.7 1.4 2 2.1 3.6 2.1s2.4-.7 2.4-1.6c0-1-1.7-1.2-3.8-1.6-3.2-.6-6.3-1.7-6.3-5.4 0-3 2.9-5.6 7.2-5.5 3.7 0 5.9 1.4 7.2 3.6.2.3 0 .6-.2.7l-3.3 1.4c-.2.1-.5 0-.6-.2-.6-.9-1.7-1.5-3-1.5-1.6 0-2.3.7-2.3 1.4 0 .8 1 1.1 3.7 1.6 3 .6 6.4 1.7 6.4 5.5 0 2.6-2.4 6-7.5 5.9-4.1 0-6.6-1.5-7.9-4.4-.3-.3-.2-.6 0-.7zm-2.6-13.4c1.2-.3 2.1-1.2 2.6-2 .7-1.3.9-3.2.2-4.6-.4-.8-1.4-1.3-2.1-1.3-1.4 0-2.4 1.1-2.4 2.4s1.1 2.4 2.4 2.4h.2c0 .3-.1.5-.2.8-.4.9-1.3 1.6-1.9 1.8-.2.1-.5.1-.5.3 0 .1 0 .2.1.2.3.4 1.4.1 1.6 0zm-20 9.4v-1.2c-.5-4.9-4-8.1-8.5-8.1-5 0-9.1 4.1-9.1 9.2 0 5.5 4.3 9.2 9.3 9.2 1.3 0 5.3-.5 7.6-4.2.2-.3.3-.6.5-.9.1-.2-.1-.5-.3-.5h-4.5c-.1 0-.2 0-.3.1-.9.8-1.6 1.3-2.9 1.3-2.3 0-3.8-1.1-4.5-2.7-.1-.2.1-.5.3-.5h12c.3 0 .5-.2.6-.5-.2-.5-.2-.8-.2-1.2zm-4.7-2.8c.1.2-.1.5-.3.5h-7.3c-.3 0-.4-.3-.3-.5.8-1.4 2.2-2.3 4.1-2.3s3.1.8 3.8 2.3zM133 33.4c-1.5 0-2.8 1.3-2.8 2.8s1.3 2.8 2.8 2.8 2.8-1.3 2.8-2.8c0-1.6-1.2-2.8-2.8-2.8zm6.1 25.4h3.8c.3 0 .5-.2.5-.5V33.5c0-.3-.2-.5-.5-.5h-3.8c-.3 0-.5.2-.5.5v24.8c0 .3.3.5.5.5zm37.4-13h1.5c.2 0 .3-.1.4-.2l2.2-3.9c.2-.3 0-.6-.3-.6h-2.7c-2.1 0-3.6 1.1-4.5 2.6-.1.2-.3.1-.3-.1v-2c0-.3-.2-.5-.5-.5h-3.8c-.3 0-.5.2-.5.5v16.7c0 .3.2.5.5.5h3.8c.3 0 .5-.2.5-.5v-7c0-3.2 1.2-5.5 3.7-5.5zm-45.4 13h3.8c.3 0 .5-.2.5-.5V41.7c0-.3-.2-.5-.5-.5h-3.8c-.3 0-.5.2-.5.5v16.6c0 .3.2.5.5.5zm-10.3-18c-1.8 0-3.3.7-4.4 1.8-.2.2-.5 0-.5-.2v-8.8c0-.3-.2-.5-.5-.5h-3.8c-.3 0-.5.2-.5.5v24.8c0 .3.2.5.5.5h3.8c.3 0 .5-.2.5-.5v-9.1c0-3 1.5-4.2 3.4-4.2 2.2 0 3.2 1.4 3.2 3.8v9.6c0 .3.2.5.5.5h3.9c.3 0 .5-.2.5-.5V48.2c.1-4.7-2.5-7.4-6.6-7.4zm90.5 17.5c0 .3.2.5.5.5h3.9c.3 0 .5-.2.5-.5V48c0-4.6-2.5-7.2-6.7-7.2-1.8 0-3.4.7-4.5 1.9-.1.1-.4.1-.4-.1v-.9c0-.3-.2-.5-.5-.5h-3.8c-.3 0-.5.2-.5.5v16.7c0 .3.2.5.5.5h3.8c.3 0 .5-.2.5-.5v-9.1c0-3 1.5-4.2 3.4-4.2 2.2 0 3.2 1.4 3.2 3.7v9.5zm-51.2-8.4c0-2.6-1.9-4.7-4.5-4.7-2.7 0-4.7 2-4.7 4.7s2 4.8 4.7 4.8c2.6 0 4.5-2.2 4.5-4.8zm-.1 7.4c0-.2-.2-.3-.3-.1-1.2 1.2-2.9 2-5 2-3.7 0-8.5-3-8.5-9.2s4.6-9.2 8.6-9.2c2.1 0 3.8.7 4.9 1.8.1.1.3 0 .3-.1v-8.9c0-.3.2-.5.5-.5h3.8c.3 0 .5.2.5.5v24.8c0 .3-.2.5-.5.5h-3.8c-.3 0-.5-.2-.5-.5z" fill="#e4002b"/><path d="M14.9 59.2c-3-.3-6.1-2.6-7.6-5.3-1.5-2.5-2.4-6.6-2.2-9.6 0-.1 0-.1.1-.1s.1 0 .1.1c1.1 4.6 4 10.2 9.6 14.9 0-.1.1-.1 0 0zm51.7-1.1c-1.2-1.2-3.4-1.1-4.4-.1-1.8 2-6.8 6.8-14.8 8.7 0 0-.1 0-.1.1 0 0 0 .1.1.1 1.5.9 5.6 2.8 11.8 2.3 5.7-.4 8.4-4.2 8.7-6.4.4-2.2-.3-3.7-1.3-4.7zm-35.4-4.2c-.1-.1-.2-.1-.3 0-.1 0-.3.3-.4.3-.2.1-.5.2-1.3.1s-1.9-.7-2.1-1c-.3-.2-.2-.5-.2-.7 0-.1.1-1.4.2-1.8.1-.3.2-.3.2-.3 1-.2 3.1-1 3.2-2.2.1-1.4-1.2-2.7-3.1-2.9s-3.5.8-3.6 2.2c-.1 1.2 1.7 2.4 2.7 2.8v.5c0 .4-.2 1.7-.2 1.8s-.1.4-.4.6-1.5.6-2.3.4c-.8-.1-1-.3-1.2-.4-.1-.1-.2-.3-.3-.4s-.1-.1-.3-.1c-.1.1-.1.2-.1.3.1.7.5 1.3 1.2 1.5.7.3 1.7.1 2.4-.2.1 0 .9-.6 1.1-.8l.1-.1c.1 0 .1 0 .1.1.3.5 1.1 1.7 2.7 1.9 1.4.2 1.9-1.1 1.9-1.2s.1-.3 0-.4zm44.6-6.6c0 4.6-3.7 8.4-8.4 8.4-1.3 0-2.5-.3-3.6-.8-1.5 2.1-3.4 4-5.4 5.6-3.7 2.9-8.1 5-12.8 5.8-4.8.8-9.7.3-14.1-1.6-3.1 0-6.2-.8-9.1-2-5.1-2.1-9.6-5.8-12.7-10.4-3.1-4.5-4.9-10-4.2-15.5-1.9-1.3-3.5-3.3-4-5.6-.7-3.7 2-7.2 5.4-8.3 3.7-1.1 7.9.7 9.5 4.3 1.7-.8 3.5-1.5 5.3-1.9 3.5-.8 7.2-.8 10.6.1 3.3.8 6.4 2.3 9.1 4.4 1.4-1.8 3.7-2.9 6-3 3.8-.1 7.3 2.5 8 6.3.4 1.9 0 3.9-1.2 5.4-1.1 1.5-2.8 2.7-4.6 3.2.6 2.5.8 5.2.5 7.8-.5 3.9-2.3 7.7-5.3 10.4-1.5 1.4-3.2 2.4-5.1 3.2-1.4.6-2.9.9-4.4 1.3 1.6.4 3.2.6 4.8.7 2.2.1 4.5-.1 6.7-.6.1-1.1.2-2.1.4-3.1.5-2.4 1.4-4.8 3.1-6.6 1-1.1 2.2-1.9 3.7-2.3 1.3-.3 3-.2 4.2.6 1.2.6 2.2 2.1 2.5 3.3.4-.4 1.4-1.6 1.9-2.3-2.1-1.5-3.5-4-3.5-6.8 0-4.6 3.7-8.4 8.4-8.4 4.6.1 8.3 3.8 8.3 8.4zm-40.1-4.2c-.4-.8-.3-1.7.3-2.2.5-.4 1.1-.3 1.7 0l-.3.9c-.2.5.1.7.5.5l.8-.3c.4.8.2 1.7-.4 2.1-.5.4-1.1.2-1.3.2.3.2 1.5.7 2.6-.1s1.2-2.7.1-4.1-2.8-1.9-3.9-1.1c-1.1.9-1.1 2.7-.1 4.1zm-20.1-1.4c.8.9 2.4.6 2.6.6-.5 0-.9-.1-1.2-.5-.6-.7-.4-1.8.5-2.5.5-.4 1.2-.6 1.7-.6l-.3.8c-.2.5.1.7.5.5l.9-.3c.1.5 0 1-.3 1.5.6-.5 1.6-2.4.5-3.7-.9-1.1-2.7-1-4.1.2-1.3 1.1-1.7 2.9-.8 4zm16.6 21.5c4.2 0 8-1.3 11-3.7 2.5-2.1 4.3-4.7 5.1-7.9.4-1.4.6-2.9.6-4.4 0-1.7-.2-3.4-.7-5.1h-.8c.9 3.2.9 6.4.2 9.3-.8 3.1-2.4 5.6-4.8 7.5-1.5 1.2-3.5 2.4-4.9 2.6-1.1.2-3.5 0-5.2-1.5-.5-.4-.9-.9-.2-1.7 3.1-3.9 4-9.4 1.4-13.7-2.4-3.8-9.4-4.6-12.6-1.4-3.3 3.3-4.4 9.7-1.7 13.7.2.3.4.9-.2 1.4-1.9-1.2-3.7-2.7-5.3-4.4-4.4-4.8-6.7-10.7-6.4-16.2-.2-.1-.5-.2-.7-.3 0 .4-.1.9-.1 1.3 0 5.4 2.3 11.1 6.6 15.7 4 4.4 9.3 7.3 14.8 8.3 1.3.4 2.6.5 3.9.5zm42.2-15.9c0-3.8-3.1-6.9-6.9-6.9s-6.9 3.1-6.9 6.9 3.1 6.9 6.9 6.9 6.9-3.1 6.9-6.9z" fill="#5e514d"/></svg>