<?xml version="1.0" encoding="UTF-8"?> <!-- Generator: Adobe Illustrator 25.2.1, SVG Export Plug-In . SVG Version: 6.00 Build 0) --> <svg xmlns="http://www.w3.org/2000/svg" xmlns:xlink="http://www.w3.org/1999/xlink" version="1.1" id="Layer_1" x="0px" y="0px" viewBox="0 0 720.1 209.1" style="enable-background:new 0 0 720.1 209.1;" xml:space="preserve"> <style type="text/css"> .st0{fill:#0067A0;} .st1{fill:#00C1D4;} </style> <g> <g> <g> <path class="st0" d="M420.7,152.4V146c0-0.9-0.7-1.6-1.6-1.6h-9.5v-12.5c0-0.9-0.7-1.6-1.6-1.6h-8.6c-0.9,0-1.6,0.7-1.6,1.6v12.5 h-5c-0.9,0-1.6,0.7-1.6,1.6v6.4c0,0.9,0.7,1.6,1.6,1.6h4.7v20.5c0,0,0,0,0,0v3.3c0,14,12.8,15.1,19.5,15.1c0.9,0,1.7-0.1,2.3-0.1 c0.8-0.1,1.5-0.8,1.5-1.6v-9.2c0,0-0.9,0.1-1.8,0.1c-4.1,0.1-9.3-1.1-9.3-6.5v-21.7h9.5C420,154.1,420.7,153.3,420.7,152.4z"></path> <path class="st0" d="M482.8,152.4V146c0-0.9-0.7-1.6-1.6-1.6h-9.5v-12.5c0-0.9-0.7-1.6-1.6-1.6h-8.6c-0.9,0-1.6,0.7-1.6,1.6v12.5 h-5c-0.9,0-1.6,0.7-1.6,1.6v6.4c0,0.9,0.7,1.6,1.6,1.6h4.7v20.5c0,0,0,0,0,0v3.3c0,14,12.8,15.1,19.5,15.1c0.9,0,1.7-0.1,2.3-0.1 c0.8-0.1,1.5-0.8,1.5-1.6v-9.2c0,0-0.9,0.1-1.8,0.1c-4.1,0.1-9.3-1.1-9.3-6.5v-21.7h9.5C482,154.1,482.8,153.3,482.8,152.4z"></path> <path class="st0" d="M270.4,124.4h9.1c0.9,0,1.6,0.7,1.6,1.6v64.9c0,0.9-0.7,1.6-1.6,1.6h-9.1c-0.9,0-1.6-0.7-1.6-1.6V126 C268.7,125.1,269.5,124.4,270.4,124.4z"></path> <path class="st0" d="M295.7,143.6h8.4c0.9,0,1.6,0.7,1.6,1.6v4c0,1.8-0.2,3.4-0.2,3.4h0.2c2.1-4.1,7.5-10.2,17.4-10.2 c10.8,0,17,5.7,17,18.6v29.8c0,0.9-0.7,1.6-1.6,1.6h-8.8c-0.9,0-1.6-0.7-1.6-1.6v-27.3c0-5.9-1.5-10-7.8-10 c-6.5,0-11.3,4.1-13.1,10c-0.7,2-0.9,4.2-0.9,6.5v20.8c0,0.9-0.7,1.6-1.6,1.6h-8.9c-0.9,0-1.6-0.7-1.6-1.6v-45.7 C294.1,144.3,294.8,143.6,295.7,143.6z"></path> <path class="st0" d="M352.4,179.5c0.5-0.8,1.6-1,2.4-0.4c2.1,1.6,6.4,4.2,12,4.2c3.5,0,6.4-1.5,6.4-4.4c0-7.3-23.8-6.3-23.8-22.1 c0-9.1,8.2-14.4,18.7-14.4c8.3,0,13.3,3.1,15.4,4.7c0.6,0.5,0.8,1.3,0.5,2l-3.1,6.1c-0.4,0.9-1.5,1.2-2.4,0.6 c-1.9-1.3-5.6-3.1-10.5-3.1c-3.2,0-6.2,1.3-6.2,4.4c0,6.9,23.8,6,23.8,21.8c0,8.2-7.1,14.7-18.7,14.7c-9.4,0-15.6-4.3-17.9-6.2 c-0.6-0.5-0.8-1.5-0.3-2.1L352.4,179.5z"></path> <path class="st0" d="M432.9,124.4h8.8c0.9,0,1.6,0.7,1.6,1.6v7.6c0,0.9-0.7,1.6-1.6,1.6h-8.8c-0.9,0-1.6-0.7-1.6-1.6V126 C431.2,125.1,432,124.4,432.9,124.4z M432.9,143.6h8.9c0.9,0,1.6,0.7,1.6,1.6v45.7c0,0.9-0.7,1.6-1.6,1.6h-8.9 c-0.9,0-1.6-0.7-1.6-1.6v-45.7C431.2,144.3,432,143.6,432.9,143.6z"></path> <path class="st0" d="M493.8,143.6h8.9c0.9,0,1.6,0.7,1.6,1.6v27.3c0,6,1.5,10,7.6,10c8.8,0,13.7-7.8,13.7-16.5v-20.8 c0-0.9,0.7-1.6,1.6-1.6h8.9c0.9,0,1.6,0.7,1.6,1.6v45.7c0,0.9-0.7,1.6-1.6,1.6h-8.4c-0.9,0-1.6-0.7-1.6-1.6V187 c0-1.9,0.2-3.5,0.2-3.5h-0.2c-2.4,5.1-8.6,10.2-17,10.2c-10.5,0-17-5.3-17-18.6v-29.8C492.2,144.3,492.9,143.6,493.8,143.6z"></path> <path class="st0" d="M605,142.4c14.1,0,21.7,10.3,21.7,23.2c0,0.8-0.1,2.1-0.2,3.2c-0.1,0.9-0.8,1.5-1.6,1.5l-31.5,0 c-0.4,0-0.7,0.4-0.7,0.8c1.1,8,7.5,12.2,14.6,12.2c5.6,0,10.4-2.7,12.7-4.3c0.8-0.5,1.9-0.3,2.4,0.6l3.2,5.9 c0.4,0.7,0.2,1.6-0.4,2.1c-2.5,1.9-9.1,6.1-18.6,6.1c-16.2,0-26.3-11.7-26.3-25.6C580.1,153,590.4,142.4,605,142.4z M613.7,162 c0.4,0,0.7-0.3,0.7-0.7c-0.5-6.1-4.5-9.4-9.7-9.4c-6,0-10.2,3.5-11.5,9.3c-0.1,0.4,0.2,0.8,0.7,0.8L613.7,162z"></path> <path class="st0" d="M575.2,152.4V146c0-0.9-0.7-1.6-1.6-1.6h-9.5v-12.5c0-0.9-0.7-1.6-1.6-1.6h-8.6c-0.9,0-1.6,0.7-1.6,1.6v12.5 h-5c-0.9,0-1.6,0.7-1.6,1.6v6.4c0,0.9,0.7,1.6,1.6,1.6h4.7v20.5c0,0,0,0,0,0v3.3c0,14,12.8,15.1,19.5,15.1c0.9,0,1.7-0.1,2.3-0.1 c0.8-0.1,1.5-0.8,1.5-1.6v-9.2c0,0-0.9,0.1-1.8,0.1c-4.1,0.1-9.3-1.1-9.3-6.5v-21.7h9.5C574.5,154.1,575.2,153.3,575.2,152.4z"></path> </g> <g> <path class="st0" d="M291.2,31.2c13.3,0,21.5,6,24.2,8.4c0.6,0.5,0.7,1.4,0.3,2l-4.3,6.6c-0.5,0.8-1.6,1-2.3,0.4 c-2.7-2-9.1-6.1-17.3-6.1c-14.4,0-22.8,10.7-22.8,23.4c0,13,8.7,24.4,22.9,24.4c9,0,15.8-5.1,18.5-7.4c0.7-0.6,1.8-0.5,2.3,0.3 l4.7,6.4c0.5,0.6,0.4,1.5-0.2,2.1c-2.8,2.7-11.7,10-25.8,10c-20.8,0-35.2-15.5-35.2-35.5C256.1,46.3,271.1,31.2,291.2,31.2z"></path> <path class="st0" d="M329.2,32.3h9c0.9,0,1.6,0.7,1.6,1.6v22c0,2.4-0.2,4.1-0.2,4.1h0.2c2.4-4.7,8.3-9.7,16.9-9.7 c10.8,0,17,5.7,17,18.6v29.9c0,0.9-0.7,1.6-1.6,1.6h-8.9c-0.9,0-1.6-0.7-1.6-1.6V71.5c0-5.9-1.5-10-7.8-10 c-6.4,0-11.4,4.2-13.2,10.2c-0.6,1.9-0.8,4-0.8,6.3v20.9c0,0.9-0.7,1.6-1.6,1.6h-9c-0.9,0-1.6-0.7-1.6-1.6v-65 C327.6,33,328.3,32.3,329.2,32.3z"></path> <path class="st0" d="M388.1,32.3h8.9c0.9,0,1.6,0.7,1.6,1.6v7.7c0,0.9-0.7,1.6-1.6,1.6h-8.9c-0.9,0-1.6-0.7-1.6-1.6v-7.7 C386.5,33,387.2,32.3,388.1,32.3z M388.1,51.5h9c0.9,0,1.6,0.7,1.6,1.6v45.8c0,0.9-0.7,1.6-1.6,1.6h-9c-0.9,0-1.6-0.7-1.6-1.6 V53.1C386.5,52.2,387.2,51.5,388.1,51.5z"></path> <path class="st0" d="M413,32.3h8.9c0.9,0,1.6,0.7,1.6,1.6v49.5c0,5.4,1.8,6.7,5,6.7c1,0,1.8-0.1,1.8-0.1v9.2 c0,0.8-0.6,1.5-1.4,1.6c-0.7,0.1-1.5,0.1-2.4,0.1c-6.7,0-15.1-1.7-15.1-15.7V33.9C411.4,33,412.1,32.3,413,32.3z"></path> <path class="st0" d="M457.2,50.3c10.7,0,14.1,6.2,14.1,6.2h0.2c0,0-0.1-1.2-0.1-2.8V33.9c0-0.9,0.7-1.6,1.6-1.6h9 c0.9,0,1.6,0.7,1.6,1.6v65c0,0.9-0.7,1.6-1.6,1.6h-8.3c-0.9,0-1.6-0.7-1.6-1.6v-2.4c0-1.8,0.2-3.2,0.2-3.2h-0.2 c0,0-4.1,8.3-15.4,8.3c-13.2,0-21.7-10.5-21.7-25.6C435,60.4,444.2,50.3,457.2,50.3z M459.5,91.3c6.3,0,12.3-4.6,12.3-15.5 c0-7.6-4-15.1-12.2-15.1c-6.7,0-12.3,5.5-12.3,15.2C447.3,85.3,452.3,91.3,459.5,91.3z"></path> <path class="st0" d="M595.4,32.3h8.9c0.9,0,1.6,0.7,1.6,1.6v7.7c0,0.9-0.7,1.6-1.6,1.6h-8.9c-0.9,0-1.6-0.7-1.6-1.6v-7.7 C593.8,33,594.5,32.3,595.4,32.3z M595.4,51.5h9c0.9,0,1.6,0.7,1.6,1.6v45.8c0,0.9-0.7,1.6-1.6,1.6h-9c-0.9,0-1.6-0.7-1.6-1.6 V53.1C593.8,52.2,594.5,51.5,595.4,51.5z"></path> <path class="st0" d="M619.6,51.5h8.5c0.9,0,1.6,0.7,1.6,1.6v4.1c0,1.8-0.2,3.4-0.2,3.4h0.2c2.1-4.1,7.5-10.2,17.4-10.2 c10.8,0,17,5.7,17,18.6v29.9c0,0.9-0.7,1.6-1.6,1.6h-8.9c-0.9,0-1.6-0.7-1.6-1.6V71.5c0-5.9-1.5-10-7.8-10 c-6.5,0-11.3,4.1-13.1,10c-0.7,2-0.9,4.2-0.9,6.5v20.9c0,0.9-0.7,1.6-1.6,1.6h-9c-0.9,0-1.6-0.7-1.6-1.6V53.1 C618,52.2,618.7,51.5,619.6,51.5z"></path> <path class="st0" d="M693.7,50.3c10.7,0,14.1,6.2,14.1,6.2h0.2c0,0-0.1-1.2-0.1-2.8V33.9c0-0.9,0.7-1.6,1.6-1.6h9 c0.9,0,1.6,0.7,1.6,1.6v65c0,0.9-0.7,1.6-1.6,1.6h-8.3c-0.9,0-1.6-0.7-1.6-1.6v-2.4c0-1.8,0.2-3.2,0.2-3.2h-0.2 c0,0-4.1,8.3-15.4,8.3c-13.2,0-21.7-10.5-21.7-25.6C671.6,60.4,680.8,50.3,693.7,50.3z M696,91.3c6.3,0,12.3-4.6,12.3-15.5 c0-7.6-4-15.1-12.2-15.1c-6.7,0-12.3,5.5-12.3,15.2C683.8,85.3,688.8,91.3,696,91.3z"></path> <path class="st0" d="M567.6,32.3c-0.7,0-1.2,0.4-1.5,1l-16.5,41.9h-0.2l-16.6-41.9c-0.2-0.6-0.8-1-1.5-1h-12.5 c-0.9,0-1.6,0.7-1.6,1.6l0,65c0,0.9,0.7,1.6,1.6,1.6h8.5c0.9,0,1.6-0.7,1.6-1.6V53.1h0.2l14.5,34.6c0.2,0.6,0.8,1,1.5,1h8.9 c0.6,0,1.2-0.4,1.5-1l14.5-34.5h0.2l0,45.6c0,0.9,0.7,1.6,1.6,1.6h8.5c0.9,0,1.6-0.7,1.6-1.6v-65c0-0.9-0.7-1.6-1.6-1.6H567.6z"></path> </g> </g> <g> <path class="st0" d="M178.6,101.6c8.6-3.4,13.2-9.1,3.5-16c-5.8-4.2-13.4-11.1-15.9-17.5c-2.6-6.7,5.7-16.6-13.5-43.6 C132.7-3.4,82.3-7.2,48.8,11.8C37.1,19.3,27,29,19,40.3c1.8-1.6,4.1-3.4,7.3-5.7c22.3-16.4,71.2-16.7,89.5,12.5 c14.3,22.7,8.1,30.6,9.7,34.8c1.9,5.1,7.9,10.7,12.5,14.1c7.6,5.6,3.9,10.1-2.9,12.7c-0.3,0.3-0.7,0.6-0.9,0.8 c-1.2,2.7,1.2,5.6,1.6,6.5c1.1,2.3,0.5,4.5-1.7,6c-1.2,0.8-1.8,2.1,0,3.3c0.6,0.4,1,0.8,1.2,1.3c0.7,1.5,1.1,3.5-1.1,6 c-2.1,2.4-1.6,7.4-1.3,10c0.5,4.1-0.3,7.5-5.1,9.1c-9.2,4-20-0.3-22.9,2.5c-7.2,5.5-12.2,28.1,5.5,54.9c-1.3,0,17.3-1.5,27-4.4 c-3.1-19.8-5.6-38.2,3.7-45.4c3.7-3.6,17.5,2.3,29-2.9c5.6-1.9,7.6-7.1,6.7-12.2c-0.6-3.2-1.4-10.4,0.9-12.5 c3.1-2.8,2.2-6.1,1.3-7.6c-0.4-0.6-1.3-1.4-1.9-2c-0.8-0.7-0.3-1.9,0.7-2.4c3.5-1.9,3.5-5.5,1.8-8.9c-0.6-1.1-3.5-4.8-2.1-8.2 C177.8,102.4,178.2,102,178.6,101.6z"></path> <path class="st1" d="M99.4,108.5c-0.3-0.3-0.6-0.5-1.5-1.1c-4.5-3-7.2-7.8-5.7-14c1.3-5.1,0.9-10.8-0.4-15.5 c-1.5-5.4-4.1-10.1-7.9-14.2c-0.1-0.1-0.3-0.3-0.4-0.4c-10.8-10.1-26.9-15.1-43.4-12c-26.7,4.9-43.9,29-39.4,53.5 c2.1,11.6,9.3,21.1,16.4,31.1c4.1,5.7,6.1,17-0.3,24.7C33,185.2,59,202.8,89.2,207.7c-2.5-17.4-12.6-29.7-19-35.9 c-5.8-5.6-4.9-15.4,2.1-19.4c1.6-0.9,3.5-1.5,5.5-1.6c3.1-0.2,4-0.2,5.2-0.4c2.1-0.3,3.2-0.4,4.6-1c0.9-0.3,2-0.7,3.2-1.7 c1.3-1,2-2.1,2.1-2.4c0.3-0.6,0.8-1.4,0.9-2.9c0-0.4,0-0.9,0-1.8c0-0.6-0.1-1.3-0.1-1.9c0.1-1.3,0.4-2,0.9-2.9 c0.5-0.8,1.4-1.2,2.1-1.7c0.6-0.4,0.9-1,1-1.7c0.2-1.4-0.8-2.4-2.1-3c-0.2-0.1-1-0.3-1.1-0.4c-0.1-0.1-0.8-1,0.7-1.1 c1.8-0.2,4.2-1.1,4.7-2.9c0.1-0.2,0.3-1.1-0.1-1.9c-0.1-0.2-0.2-0.3-0.7-0.8c-0.1-0.1-0.7-0.9-1.3-1.6c-0.1-0.1-0.6-0.8-1.1-1.8 c-0.4-0.8-0.5-1.2-0.4-1.5c0.1-0.3,0.3-0.4,0.5-0.6c1.6-1.3,3.8-2.8,4-4.9c0-0.3,0.1-1.2-0.4-2.1C100.3,109.3,100,109,99.4,108.5z "></path> </g> </g> </svg> 