<?xml version="1.0" encoding="utf-8"?>
<!-- Generator: Adobe Illustrator 25.2.3, SVG Export Plug-In . SVG Version: 6.00 Build 0)  -->
<svg version="1.1" id="Layer_1" xmlns="http://www.w3.org/2000/svg" xmlns:xlink="http://www.w3.org/1999/xlink" x="0px" y="0px"
	 viewBox="0 0 677.9 130.7" style="enable-background:new 0 0 677.9 130.7;" xml:space="preserve">
<style type="text/css">
	.st0{fill:#7B7C7F;}
	.st1{fill:#82C341;}
	.st2{fill:#FFFFFF;}
	.st3{fill:#66B76E;}
	.st4{fill:#BFD730;}
	.st5{fill:#0090A1;}
	.st6{fill:#3670B8;}
</style>
<g id="logotype">
	<path id="Reg" class="st0" d="M677.9,78.2c0,3.3-2.6,5.8-5.9,5.8c-3.3,0-5.9-2.6-5.9-5.8c0-3.2,2.6-5.8,5.9-5.8
		C675.4,72.5,677.9,75,677.9,78.2z M667.6,78.2c0,2.6,1.9,4.6,4.5,4.6c2.5,0,4.4-2,4.4-4.6c0-2.6-1.9-4.6-4.4-4.6
		C669.5,73.6,667.6,75.7,667.6,78.2z M671.1,81.3h-1.3v-5.8c0.5-0.1,1.3-0.2,2.2-0.2c1.1,0,1.6,0.2,2,0.4c0.3,0.2,0.6,0.7,0.6,1.3
		c0,0.6-0.5,1.1-1.2,1.3v0.1c0.6,0.2,0.9,0.6,1.1,1.4c0.2,0.9,0.3,1.2,0.4,1.4h-1.4c-0.2-0.2-0.3-0.7-0.5-1.4
		c-0.1-0.6-0.5-0.9-1.2-0.9h-0.6V81.3z M671.1,78h0.6c0.7,0,1.3-0.2,1.3-0.8c0-0.5-0.4-0.9-1.2-0.9c-0.4,0-0.6,0-0.7,0.1V78z"/>
	<path id="Care" class="st0" d="M644.4,114.6c-3.3,0-6.2-0.6-8.8-1.7s-4.9-2.6-6.8-4.5c-1.9-1.9-3.3-4.1-4.3-6.7
		c-1-2.5-1.5-5.2-1.5-8c0-2.9,0.5-5.6,1.5-8.2c1-2.6,2.4-4.8,4.3-6.8c1.9-1.9,4.1-3.5,6.8-4.6c2.7-1.1,5.7-1.7,9-1.7
		c3.3,0,6.3,0.6,8.9,1.7c2.6,1.1,4.8,2.7,6.7,4.6s3.2,4.1,4.2,6.7c1,2.5,1.4,5.2,1.4,7.9c0,0.7,0,1.3,0,1.9c0,0.6-0.1,1.1-0.2,1.6
		H634c0.2,1.6,0.5,3,1.2,4.3c0.6,1.2,1.4,2.3,2.4,3.2c1,0.9,2.1,1.6,3.3,2s2.5,0.7,3.9,0.7c2.1,0,4-0.5,5.9-1.5c1.8-1,3.1-2.3,3.8-4
		l8.9,2.5c-1.5,3.1-3.9,5.7-7.2,7.6C652.9,113.6,649,114.6,644.4,114.6z M655,90.1c-0.3-3.1-1.4-5.5-3.4-7.3c-2-1.8-4.4-2.8-7.3-2.8
		c-1.4,0-2.7,0.2-3.9,0.7c-1.2,0.5-2.3,1.2-3.2,2.1c-0.9,0.9-1.7,1.9-2.3,3.2c-0.6,1.2-0.9,2.6-1,4.1H655z M623.3,82.2
		c-3.2,0.1-6,0.7-8.5,1.8c-2.5,1.2-4.3,2.9-5.4,5.2v24.6h-10.4V73.2h9.5v8.7c0.7-1.4,1.6-2.7,2.6-3.8c1-1.1,2-2.1,3.2-2.9
		c1.1-0.8,2.3-1.5,3.5-1.9c1.2-0.4,2.3-0.7,3.4-0.7c0.6,0,1,0,1.3,0c0.3,0,0.6,0,0.8,0.1V82.2z M567.2,114.6c-2,0-3.8-0.3-5.5-1
		s-3.2-1.6-4.4-2.7c-1.2-1.2-2.2-2.5-2.9-4.1c-0.7-1.6-1-3.3-1-5.1c0-1.9,0.4-3.7,1.3-5.3c0.9-1.6,2-3,3.6-4.2
		c1.5-1.1,3.3-2,5.5-2.7c2.1-0.6,4.5-1,7-1c1.8,0,3.6,0.2,5.3,0.5c1.7,0.3,3.3,0.8,4.6,1.3v-2.3c0-2.7-0.8-4.8-2.3-6.2
		c-1.5-1.4-3.8-2.2-6.8-2.2c-2.2,0-4.3,0.4-6.4,1.2c-2.1,0.8-4.2,1.9-6.4,3.4l-3.2-6.6c5.2-3.5,10.9-5.2,16.9-5.2
		c5.8,0,10.4,1.4,13.6,4.3c3.2,2.9,4.9,7,4.9,12.5v12.7c0,1.1,0.2,1.9,0.6,2.3c0.4,0.5,1,0.7,1.9,0.8v8.8c-1.8,0.4-3.3,0.5-4.6,0.5
		c-2,0-3.5-0.4-4.5-1.3c-1.1-0.9-1.7-2-2-3.5l-0.2-2.3c-1.8,2.4-4,4.2-6.6,5.4C572.9,114,570.1,114.6,567.2,114.6z M570.1,107
		c1.8,0,3.4-0.3,5-0.9c1.6-0.6,2.8-1.4,3.7-2.5c1.1-0.9,1.7-1.9,1.7-3V96c-1.2-0.5-2.6-0.8-4-1.1c-1.4-0.3-2.8-0.4-4.2-0.4
		c-2.7,0-4.9,0.6-6.6,1.8c-1.7,1.2-2.6,2.8-2.6,4.6c0,1.8,0.7,3.2,2,4.4C566.5,106.4,568.1,107,570.1,107z M502,85.9
		c0-3.4,0.6-6.7,1.8-10c1.2-3.3,3-6.2,5.3-8.8c2.3-2.6,5.2-4.7,8.5-6.3c3.4-1.6,7.2-2.4,11.5-2.4c5.1,0,9.5,1.1,13.2,3.3
		c3.7,2.2,6.5,5.1,8.3,8.7l-8.2,5.7c-0.7-1.6-1.6-2.9-2.6-3.9c-1-1.1-2.1-1.9-3.3-2.5s-2.4-1.1-3.7-1.4c-1.3-0.3-2.6-0.4-3.8-0.4
		c-2.7,0-5,0.5-7,1.6c-2,1.1-3.6,2.5-5,4.2c-1.3,1.7-2.3,3.7-3,5.9c-0.7,2.2-1,4.4-1,6.6c0,2.4,0.4,4.8,1.2,7
		c0.8,2.3,1.9,4.2,3.3,5.9c1.4,1.7,3.1,3.1,5.1,4.1c2,1,4.2,1.6,6.6,1.6c1.2,0,2.5-0.2,3.9-0.5c1.3-0.3,2.6-0.8,3.8-1.5
		c1.2-0.7,2.3-1.5,3.4-2.6c1-1.1,1.9-2.3,2.5-3.8l8.8,5c-0.9,2.1-2.1,3.9-3.8,5.5c-1.6,1.6-3.5,2.9-5.5,4c-2,1.1-4.2,1.9-6.6,2.5
		c-2.3,0.6-4.6,0.9-6.8,0.9c-3.9,0-7.5-0.8-10.8-2.5c-3.3-1.7-6.1-3.8-8.4-6.5c-2.4-2.7-4.2-5.7-5.5-9.1
		C502.7,92.9,502,89.4,502,85.9z"/>
	<path id="Christiana" class="st1" d="M472.5,114.6c-2,0-3.8-0.3-5.5-1s-3.2-1.6-4.4-2.7c-1.2-1.2-2.2-2.5-2.9-4.1
		c-0.7-1.6-1-3.3-1-5.1c0-1.9,0.4-3.7,1.3-5.3c0.9-1.6,2-3,3.6-4.2c1.5-1.1,3.3-2,5.5-2.7c2.1-0.6,4.5-1,7-1c1.8,0,3.6,0.2,5.3,0.5
		c1.7,0.3,3.3,0.8,4.6,1.3v-2.3c0-2.7-0.8-4.8-2.3-6.2c-1.5-1.4-3.8-2.2-6.8-2.2c-2.2,0-4.3,0.4-6.4,1.2c-2.1,0.8-4.2,1.9-6.4,3.4
		l-3.2-6.6c5.2-3.5,10.9-5.2,16.9-5.2c5.8,0,10.4,1.4,13.6,4.3c3.2,2.9,4.9,7,4.9,12.5v12.7c0,1.1,0.2,1.9,0.6,2.3
		c0.4,0.5,1,0.7,1.9,0.8v8.8c-1.8,0.4-3.3,0.5-4.6,0.5c-2,0-3.5-0.4-4.5-1.3c-1.1-0.9-1.7-2-2-3.5l-0.2-2.3c-1.8,2.4-4,4.2-6.6,5.4
		C478.2,114,475.4,114.6,472.5,114.6z M475.4,107c1.8,0,3.4-0.3,5-0.9c1.6-0.6,2.8-1.4,3.7-2.5c1.1-0.9,1.7-1.9,1.7-3V96
		c-1.2-0.5-2.6-0.8-4-1.1c-1.4-0.3-2.8-0.4-4.2-0.4c-2.7,0-4.9,0.6-6.6,1.8c-1.7,1.2-2.6,2.8-2.6,4.6c0,1.8,0.7,3.2,2,4.4
		C471.8,106.4,473.4,107,475.4,107z M453.8,113.8h-10.4V91c0-3.3-0.6-5.6-1.7-7.1c-1.1-1.5-2.7-2.3-4.7-2.3c-1,0-2.1,0.2-3.2,0.6
		c-1.1,0.4-2.1,1-3.1,1.7c-1,0.8-1.8,1.6-2.6,2.7c-0.8,1-1.3,2.2-1.7,3.4v23.8H416V73.2h9.4v7.5c1.5-2.6,3.7-4.6,6.5-6.1
		c2.8-1.4,6.1-2.2,9.6-2.2c2.5,0,4.6,0.5,6.2,1.4c1.6,0.9,2.8,2.1,3.7,3.6c0.9,1.5,1.5,3.2,1.8,5.1c0.3,1.9,0.5,3.9,0.5,5.8V113.8z
		 M384.1,114.6c-2,0-3.8-0.3-5.5-1s-3.2-1.6-4.4-2.7c-1.2-1.2-2.2-2.5-2.9-4.1c-0.7-1.6-1-3.3-1-5.1c0-1.9,0.4-3.7,1.3-5.3
		c0.9-1.6,2-3,3.6-4.2c1.5-1.1,3.3-2,5.5-2.7c2.1-0.6,4.5-1,7-1c1.8,0,3.6,0.2,5.3,0.5c1.7,0.3,3.3,0.8,4.6,1.3v-2.3
		c0-2.7-0.8-4.8-2.3-6.2c-1.5-1.4-3.8-2.2-6.8-2.2c-2.2,0-4.3,0.4-6.4,1.2c-2.1,0.8-4.2,1.9-6.4,3.4l-3.2-6.6
		c5.2-3.5,10.9-5.2,16.9-5.2c5.8,0,10.4,1.4,13.6,4.3c3.2,2.9,4.9,7,4.9,12.5v12.7c0,1.1,0.2,1.9,0.6,2.3c0.4,0.5,1,0.7,1.9,0.8v8.8
		c-1.8,0.4-3.3,0.5-4.6,0.5c-2,0-3.5-0.4-4.5-1.3c-1.1-0.9-1.7-2-2-3.5l-0.2-2.3c-1.8,2.4-4,4.2-6.6,5.4
		C389.8,114,387.1,114.6,384.1,114.6z M387.1,107c1.8,0,3.4-0.3,5-0.9c1.6-0.6,2.8-1.4,3.7-2.5c1.1-0.9,1.7-1.9,1.7-3V96
		c-1.2-0.5-2.6-0.8-4-1.1c-1.4-0.3-2.8-0.4-4.2-0.4c-2.7,0-4.9,0.6-6.6,1.8c-1.7,1.2-2.6,2.8-2.6,4.6c0,1.8,0.7,3.2,2,4.4
		C383.4,106.4,385.1,107,387.1,107z M354.8,67.5V57.2h10.4v10.3H354.8z M354.8,113.8V73.2h10.4v40.7H354.8z M350.9,111.7
		c-1.4,0.6-3.1,1.2-5.1,1.9c-2,0.6-4.1,0.9-6.4,0.9c-1.4,0-2.8-0.2-4.1-0.5c-1.3-0.4-2.4-0.9-3.3-1.7c-1-0.8-1.7-1.8-2.3-3.1
		c-0.6-1.3-0.9-2.8-0.9-4.6V81.1h-5.4v-8h5.4V60h10.4v13.2h8.5v8h-8.5V101c0,1.5,0.4,2.5,1.1,3.1c0.7,0.6,1.7,0.9,2.8,0.9
		s2.1-0.2,3.2-0.5c1-0.4,1.9-0.7,2.5-0.9L350.9,111.7z M304.9,114.6c-3.4,0-6.8-0.5-10-1.6c-3.3-1.1-6.1-2.6-8.4-4.7l3.9-6.5
		c2.5,1.8,4.9,3.1,7.3,4c2.4,0.9,4.7,1.4,7,1.4c2.1,0,3.7-0.4,4.9-1.2c1.2-0.8,1.8-1.9,1.8-3.3c0-1.4-0.7-2.5-2.1-3.2
		c-1.4-0.7-3.7-1.4-6.8-2.3c-2.6-0.7-4.9-1.4-6.8-2.1c-1.9-0.7-3.4-1.4-4.5-2.3c-1.1-0.9-2-1.8-2.5-3c-0.5-1.1-0.8-2.4-0.8-4
		c0-2.1,0.4-3.9,1.2-5.6c0.8-1.7,1.9-3.1,3.4-4.2c1.4-1.2,3.1-2.1,5.1-2.7c1.9-0.6,4-0.9,6.3-0.9c3.1,0,5.9,0.4,8.6,1.3
		c2.7,0.9,5.1,2.3,7.3,4.3l-4.2,6.3c-2.1-1.6-4.1-2.7-6-3.4c-1.9-0.7-3.9-1.1-5.8-1.1c-1.8,0-3.2,0.4-4.4,1.1
		c-1.2,0.7-1.8,1.9-1.8,3.5c0,0.7,0.1,1.3,0.4,1.8c0.3,0.5,0.7,0.9,1.4,1.2c0.6,0.4,1.4,0.7,2.4,1c1,0.3,2.3,0.7,3.8,1
		c2.8,0.7,5.2,1.4,7.2,2.2c2,0.7,3.6,1.6,4.9,2.5c1.3,0.9,2.2,2,2.8,3.2c0.6,1.2,0.9,2.7,0.9,4.4c0,4-1.5,7.1-4.4,9.4
		C313.9,113.5,309.9,114.6,304.9,114.6z M271.2,67.5V57.2h10.4v10.3H271.2z M271.2,113.8V73.2h10.4v40.7H271.2z M267,82.2
		c-3.2,0.1-6,0.7-8.5,1.8c-2.5,1.2-4.3,2.9-5.4,5.2v24.6h-10.4V73.2h9.5v8.7c0.7-1.4,1.6-2.7,2.6-3.8c1-1.1,2-2.1,3.2-2.9
		c1.1-0.8,2.3-1.5,3.5-1.9c1.2-0.4,2.3-0.7,3.4-0.7c0.6,0,1,0,1.3,0c0.3,0,0.6,0,0.8,0.1V82.2z M235.2,113.8h-10.4V91
		c0-3.2-0.6-5.6-1.8-7.1c-1.2-1.5-2.9-2.3-5-2.3c-0.9,0-1.9,0.2-2.9,0.6c-1,0.4-2,1-3,1.7c-0.9,0.8-1.8,1.6-2.6,2.7
		c-0.8,1-1.3,2.2-1.7,3.4v23.8h-10.4V57.2h10.4v23.5c1.5-2.6,3.5-4.7,6.1-6.1c2.6-1.4,5.4-2.1,8.5-2.1c2.6,0,4.8,0.5,6.4,1.4
		c1.7,0.9,2.9,2.1,3.9,3.6c0.9,1.5,1.6,3.2,1.9,5.1c0.4,1.9,0.5,3.9,0.5,5.9V113.8z M143.4,85.9c0-3.4,0.6-6.7,1.8-10
		c1.2-3.3,3-6.2,5.3-8.8c2.3-2.6,5.2-4.7,8.5-6.3c3.4-1.6,7.2-2.4,11.5-2.4c5.1,0,9.5,1.1,13.2,3.3c3.7,2.2,6.5,5.1,8.3,8.7
		l-8.2,5.7c-0.7-1.6-1.6-2.9-2.6-3.9c-1-1.1-2.1-1.9-3.3-2.5c-1.2-0.6-2.4-1.1-3.7-1.4c-1.3-0.3-2.6-0.4-3.8-0.4c-2.7,0-5,0.5-7,1.6
		c-2,1.1-3.6,2.5-5,4.2c-1.3,1.7-2.3,3.7-3,5.9c-0.7,2.2-1,4.4-1,6.6c0,2.4,0.4,4.8,1.2,7c0.8,2.3,1.9,4.2,3.3,5.9
		c1.4,1.7,3.1,3.1,5.1,4.1c2,1,4.2,1.6,6.6,1.6c1.2,0,2.5-0.2,3.9-0.5c1.3-0.3,2.6-0.8,3.8-1.5c1.2-0.7,2.3-1.5,3.4-2.6
		c1-1.1,1.9-2.3,2.5-3.8l8.8,5c-0.9,2.1-2.1,3.9-3.8,5.5c-1.6,1.6-3.5,2.9-5.5,4c-2,1.1-4.2,1.9-6.6,2.5c-2.3,0.6-4.6,0.9-6.8,0.9
		c-3.9,0-7.5-0.8-10.8-2.5c-3.3-1.7-6.1-3.8-8.4-6.5c-2.4-2.7-4.2-5.7-5.5-9.1S143.4,89.4,143.4,85.9z"/>
</g>
<g id="logomark">
	<path class="st2" d="M95.7,54.7c-11.2-2.5-21.7-0.9-27.8,3.8c2.6-7.3,0.9-17.8-4.9-27.6c-5.8,9.8-7.6,20.3-4.9,27.6
		c-6.1-4.8-16.6-6.3-27.8-3.8c7.6,8.6,17,13.5,24.7,13.2c-6.4,4.4-11.2,13.9-12.2,25.3c10.5-4.5,18.1-12,20.2-19.4
		c2.2,7.5,9.7,14.9,20.2,19.4C82.1,81.8,77.4,72.3,70.9,68C78.7,68.2,88.1,63.3,95.7,54.7z"/>
	<g>
		<path class="st3" d="M62.9,30.9c-5.8,9.8-7.6,20.3-4.9,27.6c-6.1-4.8-16.6-6.3-27.8-3.8c-1-1.2-2.1-2.4-3-3.8
			c-4-5.6-6.7-11.5-8-17.1c5.7-0.6,12.2,0.1,18.7,2.1c1.6,0.5,3.1,1.1,4.5,1.7c-0.2-1.6-0.2-3.2-0.3-4.8c-0.1-7.1,1.3-13.7,3.7-19.1
			c5.1,2.9,10.2,7.4,14.4,13.2C61.2,28.2,62.1,29.6,62.9,30.9z"/>
		<path class="st3" d="M30.2,54.7c-1.5,0.3-3.1,0.8-4.7,1.3c-6.8,2.2-12.6,5.6-17,9.6c4.4,3.9,10.2,7.3,17,9.4
			c1.6,0.5,3.1,0.9,4.7,1.2c-1,1.2-2,2.5-3,3.8c-4,5.6-6.6,11.6-7.8,17.2c5.7,0.5,12.2-0.2,18.7-2.3c1.6-0.5,3.1-1.1,4.5-1.7
			c1.1-11.4,5.8-20.9,12.2-25.3C47.2,68.2,37.7,63.3,30.2,54.7z"/>
		<path class="st3" d="M83.4,98.1c0-1.6-0.1-3.3-0.2-4.8c-10.5-4.5-18.1-12-20.2-19.4c-2.2,7.5-9.7,14.9-20.2,19.4
			c-0.1,1.6-0.2,3.2-0.2,4.8c0,7.1,1.4,13.7,3.9,19.1c5.1-3,10.1-7.5,14.2-13.3c1-1.3,1.8-2.7,2.6-4.1c0.8,1.4,1.7,2.7,2.7,4
			c4.1,5.5,8.9,9.9,13.9,12.8C82.1,111.3,83.4,104.9,83.4,98.1z"/>
		<path class="st3" d="M107.1,97.2c-1.2-5.8-4-11.9-8.2-17.7c-1-1.3-2-2.6-3-3.8c1.5-0.4,3.1-0.8,4.7-1.3c6.5-2.2,12.1-5.5,16.4-9.3
			c-4.3-3.8-10-7-16.5-9.1c-1.6-0.5-3.1-0.9-4.7-1.3C88.1,63.3,78.7,68.2,71,68c6.4,4.4,11.2,13.9,12.2,25.3c1.5,0.6,3,1.2,4.5,1.7
			C94.5,97.1,101.2,97.8,107.1,97.2z"/>
		<path class="st3" d="M87.5,35.6c-1.6,0.5-3.1,1.1-4.5,1.7c0.1-1.6,0.2-3.2,0.2-4.8c-0.1-6.9-1.4-13.2-3.7-18.5
			c-4.9,2.9-9.8,7.3-13.8,12.9c-1,1.3-1.8,2.7-2.7,4c5.8,9.8,7.6,20.3,4.9,27.6c6.1-4.8,16.6-6.3,27.8-3.8c1-1.2,2.1-2.4,3-3.8
			c4.2-5.8,6.9-11.9,8.1-17.7C100.9,32.6,94.2,33.4,87.5,35.6z"/>
	</g>
	<g>
		<path class="st4" d="M8.6,65.6c-6.7,6.1-9.9,13.5-7.8,20c2.2,6.7,9.4,10.8,18.7,11.6c1.2-5.6,3.8-11.6,7.8-17.1c1-1.3,2-2.6,3-3.8
			c-1.5-0.3-3.1-0.7-4.7-1.2C18.8,72.9,13,69.5,8.6,65.6z"/>
		<path class="st4" d="M24.5,12.5c-5.7,4.1-7.4,12.3-5.3,21.4c5.7-0.6,12.2,0.1,18.7,2.1c1.6,0.5,3.1,1.1,4.5,1.7
			c-0.2-1.6-0.2-3.2-0.3-4.8c-0.1-7.1,1.3-13.7,3.7-19.1C38.1,9.2,30,8.5,24.5,12.5z"/>
		<path class="st4" d="M106.8,33.2c1.8-8.8,0.1-16.7-5.4-20.7c-5.7-4.1-14-3.2-22,1.6c2.3,5.2,3.7,11.6,3.7,18.5
			c0,1.6-0.1,3.3-0.2,4.8c1.4-0.6,3-1.2,4.5-1.7C94.2,33.4,100.9,32.6,106.8,33.2z"/>
		<path class="st4" d="M116.8,65.2c-4.3,3.8-9.9,7.1-16.4,9.3c-1.6,0.5-3.1,1-4.7,1.3c1.1,1.2,2.1,2.4,3,3.8
			c4.2,5.7,7,11.9,8.2,17.7c9-1,15.9-5.1,18.1-11.6C127.3,78.9,123.8,71.3,116.8,65.2z"/>
		<path class="st4" d="M65.9,103.8c-1-1.3-1.9-2.7-2.7-4c-0.8,1.4-1.7,2.7-2.6,4.1c-4.1,5.8-9.1,10.3-14.2,13.3
			c3.7,8.2,9.8,13.6,16.6,13.6c7,0,13.2-5.6,16.8-14.2C74.8,113.7,70,109.3,65.9,103.8z"/>
	</g>
	<g>
		<path class="st5" d="M124.9,44.7c-2.2-6.5-9.2-10.5-18.1-11.4c-1.2,5.8-3.9,12-8.1,17.7c-1,1.3-2,2.6-3,3.8
			c1.5,0.3,3.1,0.8,4.7,1.3c6.5,2.1,12.2,5.4,16.5,9.1C123.8,58.9,127.2,51.3,124.9,44.7z"/>
		<path class="st6" d="M79.8,116.6c8.1,4.7,16.4,5.5,22,1.4c5.5-4.1,7.2-12,5.3-20.8c-5.9,0.6-12.6,0-19.4-2.2
			c-1.6-0.5-3.1-1.1-4.5-1.7c0.1,1.6,0.2,3.2,0.2,4.8C83.4,104.9,82.1,111.3,79.8,116.6z"/>
		<path class="st5" d="M62.4,0c-6.8,0.1-12.8,5.5-16.5,13.7c5.1,2.9,10.2,7.4,14.3,13.2c1,1.3,1.8,2.7,2.7,4c0.8-1.4,1.7-2.7,2.7-4
			c4-5.6,8.9-9.9,13.8-12.9C75.6,5.5,69.4-0.1,62.4,0z"/>
		<path class="st6" d="M42.5,98.1c0-1.6,0.1-3.3,0.2-4.8c-1.5,0.6-3,1.2-4.5,1.7c-6.5,2.1-13,2.8-18.7,2.3c-2,9.1-0.2,17.3,5.5,21.3
			c5.6,4,13.6,3.1,21.4-1.4C43.9,111.8,42.5,105.2,42.5,98.1z"/>
		<path class="st5" d="M27.2,51c-4-5.6-6.7-11.5-8-17.1C9.9,34.8,2.7,39,0.6,45.7c-2.1,6.5,1.2,13.9,7.9,19.9c4.4-4,10.2-7.4,17-9.6
			c1.6-0.5,3.1-0.9,4.7-1.3C29.1,53.5,28.1,52.3,27.2,51z"/>
	</g>
</g>
</svg>
