<svg xmlns="http://www.w3.org/2000/svg" xmlns:xlink="http://www.w3.org/1999/xlink" id="Layer_2" viewBox="0 0 425.55 87.63"><defs><style>.cls-1,.cls-2{fill:none;}.cls-3{clip-path:url(#clippath);}.cls-4{fill:#691f74;}.cls-5{fill:#662874;}.cls-6{fill:#692875;}.cls-7{clip-path:url(#clippath-1);}.cls-8{clip-path:url(#clippath-2);}.cls-2{stroke:#691f74;stroke-linecap:round;stroke-miterlimit:10;stroke-width:2.5px;}</style><clipPath id="clippath"><rect class="cls-1" y="0" width="331.57" height="87.63"></rect></clipPath><clipPath id="clippath-1"><rect class="cls-1" y="0" width="331.57" height="87.63"></rect></clipPath><clipPath id="clippath-2"><rect class="cls-1" y="0" width="331.57" height="87.63"></rect></clipPath></defs><g id="Layer_1-2"><line class="cls-2" x1="352.23" y1="6.92" x2="352.23" y2="80.72"></line><g><g><path class="cls-6" d="M383.77,31.09c5.83-.11,9.58,1.88,11.26,5.95,.36,.82,.6,1.85,.72,3.08s.03,2.35-.29,3.35c-.32,.93-.75,1.73-1.29,2.41-.07,.14-.16,.26-.27,.35-.11,.09-.2,.19-.27,.29-.11,.14-.21,.28-.32,.4-.11,.13-.23,.22-.38,.29-.18,.18-.37,.34-.56,.48-.2,.14-.37,.32-.51,.54-.14,.14-.2,.32-.16,.54,.04,.18,.14,.34,.32,.48,.18,.14,.38,.28,.62,.4,.23,.13,.46,.24,.67,.35s.39,.21,.54,.32c1.14,.79,2.05,1.9,2.73,3.32,.14,.32,.26,.65,.35,.99,.09,.34,.17,.67,.24,.99,.04,.18,.06,.35,.08,.51s.04,.33,.08,.51c.04,.18,.04,.36,0,.54-.04,.18-.02,.36,.05,.54,.04,.18,.05,.39,.05,.64s-.04,.47-.11,.64v.8c-.07,.29-.13,.56-.19,.83-.05,.27-.12,.53-.19,.78-.11,.32-.21,.63-.29,.91-.09,.29-.21,.57-.35,.86-.07,.21-.17,.42-.29,.62-.13,.2-.26,.38-.4,.56-.72,1.11-1.61,2.03-2.68,2.76-1.07,.73-2.31,1.33-3.7,1.8-.43,.14-.88,.24-1.37,.29s-.97,.13-1.47,.24c-.25,.04-.49,.05-.72,.05s-.47,.02-.72,.05c-.14,.04-.35,.05-.62,.05s-.46-.02-.56-.05c-.18-.04-.33-.05-.46-.05h-.46c-.36-.07-.72-.12-1.07-.16-.36-.04-.7-.09-1.02-.16-.39-.11-.78-.21-1.15-.29-.38-.09-.76-.22-1.15-.4-1.32-.57-2.45-1.3-3.38-2.17s-1.68-1.98-2.25-3.3c-.14-.32-.27-.66-.38-1.02-.11-.36-.21-.73-.32-1.13-.07-.18-.11-.37-.11-.56s-.04-.4-.11-.62c-.07-.21-.11-.5-.11-.86s.05-.63,.16-.8c.04-.11,.09-.2,.16-.27,.07-.07,.14-.14,.21-.21,.14-.07,.37-.12,.67-.16,.3-.04,.62-.05,.94-.05s.63,.02,.94,.05c.3,.04,.53,.07,.67,.11,.07,.07,.14,.12,.21,.13,.07,.02,.14,.06,.21,.13,.25,.32,.4,.73,.46,1.23,.05,.5,.15,.95,.29,1.34,.18,.43,.36,.85,.54,1.26,.18,.41,.41,.8,.7,1.15,.07,.11,.15,.2,.24,.27,.09,.07,.17,.16,.24,.27,.14,.21,.27,.38,.38,.48,.14,.11,.28,.21,.4,.32,.12,.11,.28,.21,.46,.32,.32,.21,.67,.39,1.05,.54,.38,.14,.76,.29,1.15,.43,.54,.18,1.25,.29,2.15,.32,.89,.04,1.64-.04,2.25-.21,.29-.07,.54-.13,.78-.19s.47-.12,.72-.19c1-.43,1.87-.97,2.6-1.61,.73-.64,1.31-1.46,1.74-2.47,.11-.25,.19-.51,.24-.78,.05-.27,.12-.54,.19-.83,.14-.5,.18-1.08,.11-1.74-.07-.66-.18-1.19-.32-1.58-.46-1.36-1.12-2.4-1.96-3.11-.84-.71-1.96-1.29-3.35-1.72-.39-.11-.81-.18-1.26-.21-.45-.04-.9-.05-1.37-.05-.57,0-1.07-.02-1.5-.05s-.73-.25-.91-.64c-.07-.11-.11-.23-.11-.38v-.48c-.04-.36-.03-.7,.03-1.02,.05-.32,.19-.55,.4-.7,.14-.11,.29-.18,.46-.21,.16-.04,.35-.07,.56-.11,.07-.04,.16-.04,.27-.03,.11,.02,.2,0,.27-.03h.48c.39-.07,.76-.12,1.1-.13,.34-.02,.67-.08,.99-.19,1.14-.39,2.06-.91,2.74-1.56,.68-.64,1.21-1.54,1.61-2.68,.11-.36,.19-.81,.24-1.37,.05-.55,.03-1.06-.08-1.53-.07-.25-.13-.49-.19-.72-.05-.23-.13-.46-.24-.67-.36-.86-.88-1.54-1.55-2.04-.68-.5-1.48-.89-2.41-1.18-.21-.07-.43-.11-.64-.11s-.45-.04-.7-.11c-.29-.07-.63-.11-1.02-.11s-.73,.04-1.02,.11c-.18,.07-.35,.11-.51,.11s-.33,.04-.51,.11c-.64,.18-1.24,.44-1.8,.78-.55,.34-1.03,.76-1.42,1.26-.32,.43-.61,.89-.86,1.39-.25,.5-.48,1.06-.7,1.66-.11,.39-.18,.81-.21,1.26-.04,.45-.16,.81-.38,1.1-.07,.14-.29,.29-.64,.43-.14,.04-.36,.06-.64,.08-.29,.02-.59,.02-.91,0-.32-.02-.62-.04-.88-.08-.27-.04-.46-.09-.56-.16-.14-.11-.27-.3-.38-.59s-.12-.59-.05-.91c.04-.18,.06-.37,.08-.56,.02-.2,.04-.4,.08-.62,.11-.36,.21-.71,.29-1.07,.09-.36,.21-.68,.35-.96,.18-.39,.34-.78,.48-1.15,.14-.38,.32-.74,.54-1.1,1.18-1.93,2.86-3.34,5.04-4.24,.43-.18,.88-.3,1.37-.38,.48-.07,.97-.16,1.47-.27,.21-.04,.44-.05,.67-.05s.46-.02,.67-.05Z"></path><path class="cls-6" d="M406.08,31.79h15.18c.29,0,.55,0,.8,.03,.25,.02,.46,.06,.64,.13,.25,.11,.45,.32,.59,.64,.07,.11,.11,.24,.11,.4v.51c.04,.39,.03,.77-.03,1.13-.05,.36-.19,.61-.4,.75-.32,.25-.8,.37-1.45,.35-.64-.02-1.23-.03-1.77-.03h-9.36c-.16,0-.31,.02-.46,.05h-.75c-.39,.11-.68,.24-.86,.4-.18,.16-.3,.36-.38,.59s-.12,.49-.16,.78c-.04,.29-.11,.61-.21,.97-.18,.71-.32,1.45-.43,2.2s-.25,1.48-.43,2.2c-.07,.25-.11,.49-.11,.72s-.04,.47-.11,.72c-.04,.11-.06,.24-.08,.4-.02,.16,0,.31,.03,.46,.07,.18,.17,.33,.29,.46,.12,.13,.33,.15,.62,.08,.21-.07,.43-.17,.64-.29s.43-.24,.64-.35c.21-.07,.39-.12,.54-.16,.68-.29,1.42-.48,2.22-.59,.8-.11,1.63-.15,2.47-.13,.84,.02,1.65,.11,2.44,.27,.79,.16,1.5,.38,2.14,.67,.18,.07,.35,.14,.51,.21,.16,.07,.33,.16,.51,.27,1.25,.75,2.26,1.57,3.03,2.47,.77,.89,1.46,2.06,2.07,3.49,.18,.39,.3,.79,.38,1.18,.07,.39,.16,.8,.27,1.23,.04,.11,.05,.27,.05,.48,.07,.21,.11,.46,.11,.72s.04,.51,.11,.72v.59c.04,.18,.05,.43,.05,.75s-.04,.57-.11,.75c-.07,.21-.09,.42-.05,.62,.04,.2,.02,.38-.05,.56-.14,.57-.27,1.11-.38,1.61s-.27,.98-.48,1.45c-.57,1.32-1.36,2.52-2.36,3.59-1,1.07-2.15,1.9-3.43,2.47-.61,.29-1.32,.55-2.14,.8-.39,.14-.8,.23-1.23,.27-.43,.04-.86,.11-1.29,.21-.18,.07-.38,.08-.59,.03s-.43-.05-.64,.03c-.36,.07-.72,.07-1.07,0h-.48c-.18-.07-.38-.1-.62-.08-.23,.02-.44,0-.62-.08-.14-.04-.27-.05-.38-.05s-.23-.02-.38-.05c-.32-.07-.64-.14-.96-.21-.32-.07-.62-.18-.91-.32-1.21-.5-2.25-1.06-3.11-1.69-.86-.62-1.65-1.44-2.36-2.44-.54-.82-.95-1.68-1.23-2.57-.07-.18-.11-.35-.11-.51s-.04-.33-.11-.51c-.07-.21-.12-.5-.13-.86-.02-.36,.04-.62,.19-.8,.18-.29,.46-.45,.86-.48,.39-.04,.8-.05,1.23-.05h.62c.2,0,.38,.04,.56,.11,.32,.07,.57,.21,.75,.43,.25,.32,.42,.71,.51,1.15,.09,.45,.24,.83,.46,1.15,.68,1.22,1.61,2.18,2.79,2.9,.36,.21,.74,.38,1.15,.51,.41,.13,.83,.26,1.26,.4,.61,.18,1.35,.24,2.22,.19,.88-.05,1.58-.17,2.12-.35,1.32-.43,2.37-1.01,3.14-1.74,.77-.73,1.4-1.72,1.9-2.98,.18-.36,.29-.73,.35-1.13,.05-.39,.13-.8,.24-1.23,0-.14,0-.28,.03-.4,.02-.12,.03-.26,.03-.4,.04-.11,.04-.23,.03-.38-.02-.14-.03-.29-.03-.43,0-.93-.11-1.81-.32-2.63-.39-1.25-.95-2.31-1.66-3.19-.72-.88-1.65-1.56-2.79-2.06-.21-.07-.42-.14-.62-.21-.2-.07-.42-.14-.67-.21-.18-.07-.38-.12-.62-.13-.23-.02-.47-.06-.72-.13h-.54c-.14-.07-.33-.11-.56-.11s-.44,.04-.62,.11h-.35c-.12,0-.26,.02-.4,.05-.29,.07-.57,.13-.86,.19-.29,.05-.57,.13-.86,.24-.86,.36-1.68,.84-2.47,1.45-.32,.25-.62,.51-.91,.78-.29,.27-.64,.47-1.07,.62-.32,.11-.81,.14-1.47,.11-.66-.04-1.1-.12-1.31-.27-.18-.14-.31-.36-.4-.64-.09-.29-.1-.59-.03-.91,.11-.43,.19-.87,.24-1.31,.05-.45,.13-.88,.24-1.31,.07-.14,.1-.28,.08-.4s0-.28,.08-.46c.07-.32,.12-.65,.16-.99,.04-.34,.11-.67,.21-.99,.04-.21,.06-.43,.08-.64,.02-.21,.06-.43,.13-.64,.18-.71,.31-1.46,.4-2.23s.22-1.51,.4-2.23c.11-.36,.18-.71,.21-1.07,.04-.36,.09-.71,.16-1.07,.04-.11,.05-.25,.05-.43,.11-.39,.19-.78,.24-1.15,.05-.38,.13-.76,.24-1.15,.07-.29,.12-.54,.16-.78s.12-.44,.27-.62c.07-.11,.18-.19,.32-.24s.3-.12,.48-.19c.21,0,.36-.02,.43-.05Z"></path><path class="cls-6" d="M375.01,76.33c.11,0,.24,0,.4-.01,.16,0,.28,0,.36,.04,.06,.03,.1,.06,.13,.11,.03,.04,.07,.09,.1,.14l.13,.22c.04,.07,.09,.14,.14,.22,.2,.32,.4,.63,.6,.94,.2,.31,.39,.63,.59,.94,.07,.12,.14,.23,.21,.34,.07,.11,.14,.22,.21,.33,.03,.05,.06,.1,.09,.15s.08,.08,.13,.09c.06,.01,.11,0,.15-.04,.04-.04,.07-.07,.08-.1,.07-.1,.14-.21,.2-.31,.06-.11,.12-.21,.19-.31,.2-.31,.39-.62,.57-.93s.38-.62,.57-.92c.06-.09,.12-.19,.17-.28,.05-.09,.11-.18,.17-.27,.03-.05,.06-.1,.09-.14,.03-.04,.06-.08,.11-.12,.07-.05,.16-.08,.28-.08h.36c.06,0,.12,0,.17,0,.06,0,.1,.02,.14,.05,.05,.04,.06,.09,.04,.16s-.05,.12-.07,.15c-.06,.09-.11,.17-.16,.25s-.11,.16-.16,.24c-.04,.05-.07,.1-.1,.15s-.06,.11-.1,.16c-.25,.37-.5,.74-.74,1.12-.24,.38-.48,.76-.71,1.14-.08,.12-.16,.23-.23,.34-.07,.11-.15,.23-.23,.35-.05,.08-.1,.15-.15,.22s-.09,.15-.12,.25c-.02,.04-.02,.09-.02,.15v2.15c0,.06,0,.12,0,.18,0,.06,0,.13,0,.18v.18c-.02,.13-.07,.21-.15,.25-.02,.01-.04,.02-.06,.02-.02,0-.05,0-.08,0s-.06,0-.09,0c-.03,0-.07,0-.1,0h-.26c-.09,0-.15-.03-.19-.08-.03-.03-.05-.08-.06-.15-.01-.07-.02-.14-.02-.22,0-.08,0-.15,0-.23,0-.08,0-.15,0-.22v-1.92s0-.06,0-.09v-.14c-.04-.12-.08-.23-.14-.31-.05-.08-.11-.17-.17-.27l-.42-.65c-.25-.37-.48-.74-.72-1.1-.23-.37-.47-.73-.71-1.1-.09-.14-.19-.28-.28-.42-.09-.13-.18-.27-.28-.42-.05-.06-.09-.13-.11-.21-.01-.05,0-.09,.01-.11,0-.04,.03-.06,.06-.06,.03,0,.07-.02,.1-.03,0,0,.02,0,.03,0s.02,0,.03,0Z"></path><path class="cls-6" d="M386.21,76.33h4.48c.08,0,.16,0,.24,0,.08,0,.14,.01,.19,.05,.02,.01,.04,.03,.05,.05,.02,.02,.03,.04,.04,.07,.02,.05,.02,.13,.02,.24s0,.2-.02,.25c-.03,.1-.09,.16-.18,.17s-.21,.02-.34,.02h-2.91c-.12,0-.25,0-.41,0-.16,0-.27,.02-.34,.06s-.11,.12-.12,.23c0,.11,0,.22,0,.34v1.11c0,.08,0,.17,0,.28s0,.2,.02,.26c.02,.09,.07,.15,.13,.17,.03,.01,.08,.03,.15,.04h.11s.06,0,.09,0c.03,0,.07,0,.1,0h2.49c.06,0,.14,0,.22,0s.16,0,.24,0,.16,.01,.23,.02c.07,.01,.12,.03,.16,.05,.02,.01,.04,.05,.05,.1,.01,.05,.03,.1,.03,.16,0,.06,0,.12,0,.18s-.01,.11-.03,.16c-.02,.07-.05,.11-.1,.14-.02,.01-.04,.02-.06,.03s-.05,0-.07,.02h-.06s-.07,0-.11,0c-.04,0-.07,0-.11,0h-2.69c-.09,0-.17,0-.26,0s-.16,0-.23,.01-.14,.03-.19,.06c-.05,.03-.09,.08-.12,.15-.01,.04-.02,.09-.02,.15,0,.06,0,.12,0,.17v1.64c0,.1,0,.19,0,.28,0,.08,.04,.14,.09,.18s.11,.06,.17,.06c.06,0,.14,0,.22,0h3.32c.06,0,.12,0,.17,0,.06,0,.11,0,.15,.02,.09,.03,.14,.07,.17,.12,.01,.02,.03,.06,.03,.11,0,.05,.01,.1,.02,.16,0,.05,0,.11,0,.16,0,.05-.01,.1-.02,.12-.03,.06-.06,.1-.1,.12-.04,.03-.1,.04-.17,.04h-4.6c-.1,0-.19,0-.26-.02s-.13-.04-.16-.1c-.03-.04-.04-.1-.04-.17v-7.16c0-.07,.02-.12,.04-.15,.03-.05,.08-.09,.16-.11,.01,0,.03,0,.04,0s.03,0,.04,0Z"></path><path class="cls-6" d="M402.06,83.48s.03,.08,.05,.13,.04,.1,.05,.16c.01,.05,.01,.1,0,.15,0,.05-.04,.08-.09,.1-.04,.01-.08,.02-.13,.02h-.47c-.11,0-.2-.02-.27-.05-.07-.04-.12-.12-.16-.23-.03-.11-.07-.21-.1-.29-.08-.19-.15-.38-.22-.58-.07-.2-.14-.4-.22-.6-.02-.07-.04-.13-.06-.18-.02-.06-.04-.11-.06-.16-.03-.05-.06-.09-.1-.13s-.1-.06-.17-.09c-.04-.01-.08-.02-.12-.02s-.1,0-.15,0h-2.05c-.06,0-.14,0-.22,0s-.16,0-.23,0c-.07,0-.14,.02-.2,.03-.06,.01-.11,.04-.13,.09-.06,.07-.1,.15-.12,.24-.03,.09-.05,.18-.09,.28-.07,.17-.14,.34-.2,.52-.06,.18-.13,.35-.2,.52-.02,.04-.03,.09-.05,.15-.02,.05-.04,.11-.06,.17-.02,.06-.04,.11-.07,.16s-.05,.08-.08,.1c-.06,.04-.13,.07-.23,.07-.1,0-.2,0-.31,0-.06,0-.12,0-.17,0-.05,0-.1-.02-.14-.05-.04-.02-.05-.05-.06-.1,0-.04,0-.09,0-.13,.01-.05,.03-.09,.04-.14,.02-.05,.04-.08,.05-.1,.1-.23,.19-.46,.27-.69,.08-.23,.17-.46,.26-.69,.06-.16,.12-.32,.18-.47,.06-.16,.12-.31,.18-.47,.22-.52,.42-1.05,.62-1.58s.4-1.06,.62-1.59c.08-.19,.15-.38,.22-.58s.14-.39,.22-.57c.04-.08,.07-.17,.1-.27,.03-.1,.08-.17,.15-.21,.03-.03,.08-.05,.14-.07,.01,0,.03,0,.05,0s.03,0,.05,0c.13,0,.28,0,.46,0s.3,.02,.38,.08c.06,.04,.1,.11,.14,.21,.03,.1,.07,.19,.1,.27,.07,.17,.14,.33,.2,.5,.06,.17,.12,.33,.2,.5,.06,.15,.12,.29,.17,.45,.05,.15,.12,.3,.18,.44,.22,.53,.42,1.06,.62,1.6,.2,.54,.41,1.07,.63,1.6,.03,.06,.05,.13,.07,.18,.02,.06,.04,.12,.06,.18,.08,.19,.16,.38,.23,.58s.15,.39,.23,.57Zm-2.32-2.63c.07-.02,.11-.06,.12-.11s.02-.11,.01-.17c-.01-.06-.03-.12-.05-.18s-.05-.11-.07-.16c-.02-.03-.02-.05-.02-.08s0-.05-.02-.08c-.02-.06-.04-.12-.06-.18-.02-.06-.04-.12-.07-.19-.11-.26-.21-.53-.29-.8-.08-.27-.18-.54-.29-.8-.04-.08-.07-.16-.09-.24-.03-.08-.06-.16-.09-.23-.01-.04-.03-.07-.05-.1-.02-.03-.05-.05-.11-.05-.01,.01-.03,.03-.04,.03-.02,0-.03,.02-.04,.03-.03,.04-.05,.07-.07,.11-.01,.04-.03,.08-.04,.12-.04,.08-.06,.16-.09,.24s-.05,.16-.09,.24c-.12,.28-.23,.57-.32,.86-.09,.29-.19,.57-.31,.85-.01,.04-.03,.07-.04,.11-.01,.04-.02,.07-.04,.11l-.06,.17c-.02,.06-.04,.12-.05,.17-.01,.04-.02,.08-.02,.12,0,.04,.01,.08,.03,.11,.04,.06,.11,.09,.23,.09,.12,0,.22,0,.33,0h1.16c.08,0,.18,0,.29,0s.2,0,.26-.03Z"></path><path class="cls-6" d="M412.59,83.78c.04,.09,.02,.17-.04,.22-.04,.02-.08,.04-.13,.04-.05,0-.11,0-.17,0h-.35c-.12,0-.21-.03-.27-.08-.06-.04-.1-.09-.11-.17s-.03-.15-.05-.23c0-.03,0-.06,0-.08v-.07s-.02-.07-.01-.1c0-.03,0-.06,0-.09,0-.04,0-.09,0-.13v-.13l-.03-.49c-.02-.05-.02-.1-.02-.15s0-.1-.02-.16c-.04-.13-.06-.26-.08-.39s-.05-.25-.1-.37c-.14-.3-.37-.51-.68-.61-.09-.04-.2-.06-.31-.06-.11,0-.23,0-.35,0h-2c-.05,.01-.1,.03-.13,.04-.04,.01-.07,.03-.1,.07-.05,.07-.07,.19-.07,.35,0,.16,0,.31,0,.43v1.57c0,.1,0,.23,0,.37,0,.15,0,.26-.04,.33-.01,.05-.04,.08-.09,.1-.03,.01-.06,.02-.08,.02s-.06,0-.09,.02c-.03,0-.06,0-.1,0-.04,0-.07,0-.11,0-.08,0-.16,0-.23,0-.08,0-.14-.02-.19-.06-.06-.04-.09-.1-.09-.2v-6.88c0-.08,0-.16,0-.25,0-.09,.01-.16,.05-.21,.03-.04,.08-.08,.16-.11,.01,0,.03,0,.04,0s.03,0,.04,0h3.14c.05,0,.11,0,.16,0,.06,0,.11,0,.15,0h.12s.09,.01,.13,.02,.09,0,.14,.02c.06,.01,.12,.03,.18,.03,.06,0,.12,.02,.18,.03,.14,.04,.26,.09,.38,.14,.12,.05,.22,.11,.32,.18,.18,.12,.33,.27,.44,.45,.11,.18,.21,.38,.28,.62,.01,.06,.02,.12,.03,.18s.01,.12,.03,.18v.11s0,.08,0,.12c0,.05,0,.09-.02,.12v.12c-.01,.06-.02,.11-.03,.16,0,.05-.01,.1-.03,.15-.04,.11-.07,.21-.1,.31-.03,.1-.08,.19-.14,.28-.02,.04-.04,.07-.07,.1-.03,.03-.05,.06-.07,.1,0,0-.01,.01-.02,.02s-.02,0-.02,.02c-.02,.01-.03,.03-.05,.05s-.04,.04-.05,.05c-.06,.04-.11,.08-.16,.12-.05,.04-.11,.08-.16,.11-.04,.02-.07,.04-.1,.07s-.05,.06-.05,.1c0,.04,0,.08,.05,.11,.04,.03,.07,.05,.1,.06,.08,.05,.15,.11,.22,.16s.13,.13,.18,.21c.08,.1,.14,.21,.17,.34,.04,.13,.07,.26,.11,.41,0,.06,.01,.11,.02,.17,0,.05,.02,.11,.02,.17,.02,.05,.02,.1,.01,.15,0,.05,0,.1,0,.15v.1c.02,.05,.02,.11,.01,.16s0,.12,0,.17c0,.03,0,.06,0,.08s0,.06,0,.09c.01,.07,.03,.15,.03,.22,0,.08,.02,.15,.04,.21,.01,.04,.02,.08,.03,.12s.01,.08,.03,.12l.1,.26Zm-1.31-4.5c.05-.08,.09-.16,.11-.25,.03-.09,.05-.18,.07-.28v-.1c.02-.1,.03-.21,.01-.33-.02-.12-.04-.22-.07-.3-.12-.36-.34-.61-.68-.75-.14-.06-.31-.09-.51-.1-.19,0-.39-.01-.59-.01h-1.79s-.03,.01-.05,.01c-.02,0-.04,0-.06,.01-.09,.02-.14,.07-.17,.14-.03,.07-.04,.16-.04,.27,0,.12,0,.22,0,.31v1.25c0,.11,0,.22,0,.34,0,.12,.02,.21,.07,.28,.04,.05,.09,.08,.16,.09s.15,.02,.24,.02h.67c.28,0,.56,0,.82,0,.27,0,.51-.01,.74-.04s.43-.09,.61-.18c.18-.09,.32-.22,.43-.39Z"></path><path class="cls-6" d="M419.88,76.16c.41-.01,.78,.02,1.1,.1,.32,.08,.6,.2,.85,.36,.04,.03,.09,.05,.12,.08s.08,.05,.11,.09c.02,.01,.03,.03,.04,.04,.02,.01,.03,.02,.04,.04,.01,.01,.03,.03,.05,.05,.02,.02,.04,.04,.05,.06l.09,.11s.06,.07,.09,.11,.05,.07,.07,.11c.02,.04,.04,.08,.06,.11,.06,.1,.12,.21,.15,.34,.04,.13,.07,.26,.11,.4,.01,.06,.02,.12,.02,.19,0,.07-.02,.12-.04,.16-.04,.05-.09,.08-.17,.09-.08,0-.16,.01-.25,.01h-.1s-.06,0-.09-.01c-.04,0-.07-.01-.09-.01s-.05,0-.08-.02c-.01,0-.03-.02-.04-.03-.02-.01-.03-.02-.04-.04-.04-.06-.07-.14-.09-.24-.02-.09-.04-.18-.08-.25-.12-.29-.3-.51-.52-.65-.17-.12-.37-.2-.6-.26-.04-.01-.09-.02-.13-.03-.04,0-.09-.01-.13-.03h-.09c-.06-.01-.12-.02-.17-.02h-.17c-.38,0-.69,.06-.94,.17-.15,.06-.28,.13-.39,.23-.12,.1-.2,.22-.26,.36-.03,.06-.05,.12-.06,.18-.01,.06-.02,.13-.04,.2-.01,.06-.02,.12-.02,.2s.01,.13,.03,.18c.05,.17,.11,.29,.19,.38,.08,.09,.18,.17,.32,.25,.16,.1,.34,.18,.53,.23s.4,.1,.61,.16c.06,.01,.13,.03,.2,.03s.13,.02,.2,.04c.1,.03,.21,.05,.32,.07,.11,.02,.22,.05,.32,.08,.03,0,.05,.01,.08,.02,.02,0,.05,0,.08,.02,.06,.01,.13,.03,.2,.05,.06,.02,.13,.04,.2,.06,.14,.05,.29,.11,.42,.16,.14,.06,.27,.13,.39,.21,.16,.1,.3,.22,.43,.35,.12,.13,.23,.29,.31,.47,.03,.06,.05,.13,.06,.2,.02,.06,.03,.13,.04,.21,.01,.04,.02,.08,.02,.12s0,.09,.02,.14v.22s-.01,.06-.01,.09v.09c-.01,.06-.02,.12-.03,.18s-.02,.12-.04,.18c-.04,.11-.08,.21-.12,.31-.04,.1-.1,.2-.16,.28-.12,.19-.28,.35-.46,.48-.19,.13-.39,.25-.61,.35-.07,.03-.14,.05-.21,.08-.07,.02-.14,.04-.22,.06-.08,.03-.16,.05-.25,.06s-.17,.03-.26,.05c-.04,0-.07,.01-.12,.01s-.08,0-.11,.01c-.04,0-.09,0-.13,0-.04,0-.09,0-.13,0-.04,0-.09,.01-.16,.01s-.12,0-.16-.01h-.12c-.07-.01-.14-.02-.22-.02s-.14,0-.21-.02c-.03,0-.06-.01-.09-.02-.03,0-.06,0-.1-.02-.08-.01-.15-.03-.22-.04-.07-.01-.14-.04-.21-.07-.36-.12-.65-.26-.89-.44s-.45-.42-.62-.71c-.06-.09-.11-.19-.14-.29-.04-.1-.08-.21-.12-.33-.01-.04-.02-.09-.03-.13,0-.04-.01-.08-.03-.12-.01-.06-.02-.14-.02-.22s.02-.14,.05-.18c.04-.05,.1-.08,.18-.09,.08,0,.16-.01,.24-.01h.09s.06,0,.08,.01c.04,0,.07,0,.09,0,.02,0,.05,0,.08,.02,.05,.03,.08,.06,.1,.09,.02,.04,.03,.07,.04,.11,0,.04,.01,.08,.03,.12,.01,.05,.03,.1,.04,.15,.01,.05,.03,.1,.05,.15,.12,.31,.31,.56,.55,.74,.12,.09,.26,.17,.4,.23,.14,.06,.3,.11,.47,.16,.06,.01,.12,.03,.17,.03,.06,0,.12,.01,.17,.02,.01,0,.03,0,.05,0s.04,0,.07,0c.03,0,.06,0,.1,0,.04,0,.08,0,.12,.01,.03,0,.07,.01,.12,.01s.1,0,.14-.02h.08s.07-.01,.11-.01c.04,0,.07,0,.11-.01,.02,0,.04,0,.06,0,.02,0,.04,0,.07-.02,.06-.01,.12-.03,.19-.04,.06-.01,.13-.03,.18-.05,.19-.08,.36-.17,.5-.28s.26-.25,.34-.43c.02-.06,.04-.12,.05-.17s.03-.12,.04-.17c.02-.06,.02-.13,.02-.21s0-.14-.02-.2c-.01-.04-.02-.07-.02-.09s0-.05-.02-.08c-.04-.12-.1-.23-.17-.31s-.16-.16-.26-.23c-.15-.11-.32-.2-.51-.26-.19-.07-.38-.12-.59-.17-.21-.05-.42-.09-.63-.14-.22-.04-.43-.09-.63-.15-.12-.04-.23-.07-.35-.09s-.22-.06-.33-.1c-.01,0-.03-.01-.03-.01,0,0-.02,0-.03-.01-.07-.03-.14-.06-.22-.09-.07-.03-.14-.06-.21-.11-.17-.1-.32-.21-.46-.33-.14-.12-.25-.27-.32-.46-.04-.07-.06-.14-.08-.21-.02-.08-.03-.15-.05-.23,0-.03,0-.05,0-.08s0-.04,0-.07c-.02-.09-.03-.2,0-.33,.01-.13,.03-.24,.05-.31,.02-.08,.04-.16,.06-.23s.04-.14,.07-.21c.1-.22,.23-.4,.39-.55,.16-.15,.34-.28,.53-.41,.02-.01,.03-.02,.05-.03s.04-.01,.05-.03c.16-.08,.34-.15,.55-.21,.06-.01,.11-.03,.16-.04s.11-.02,.16-.04c.06-.01,.12-.02,.19-.02s.13,0,.19-.02c.02,0,.05,0,.1,0s.07,0,.09-.01Z"></path></g><g><path class="cls-5" d="M398.89,25.39c-1.23,0-2.86-.65-4.63-1.86-2.82-1.94-6.3-5.65-6.79-9.75-.35-2.9,.26-5.44,1.76-7.34,1.33-1.68,3.24-2.71,5.55-2.98,2.36-.27,4.43,.42,5.84,1.94,1.39,1.5,1.94,3.64,1.5,5.86-.22,1.12-.94,2.09-1.94,2.62-.71,.37-1.44,.45-1.98,.21-.38-.16-.55-.6-.38-.98,.16-.38,.6-.55,.98-.38,.06,.03,.33,.03,.7-.16,.23-.12,.98-.58,1.18-1.59,.34-1.76-.07-3.42-1.14-4.57-1.08-1.17-2.71-1.69-4.58-1.48-1.9,.22-3.48,1.06-4.55,2.43-1.25,1.58-1.75,3.75-1.45,6.25,.43,3.61,3.58,6.94,6.15,8.7,1.92,1.32,3.45,1.74,4.11,1.57,2.38-.6,8.12-7.75,9.03-11.24,.47-1.82-.57-3.32-1.85-3.87-.33-.14-1.47-.54-2.06,.42-.22,.35-.67,.46-1.02,.24-.35-.22-.45-.67-.24-1.02,.8-1.29,2.33-1.68,3.91-1.01,1.86,.8,3.38,2.98,2.7,5.61-.98,3.78-6.98,11.51-10.1,12.3-.21,.05-.44,.08-.69,.08h0Z"></path><path class="cls-5" d="M398.44,19.84c-2.06,0-4.05-1.36-5.33-3.63-1.29-2.29-1.51-4.91-.54-6.52,1.1-1.82,2.53-2.04,3.3-2,1.33,.06,2.66,.95,3.24,2.16,.18,.37,.02,.81-.35,.99-.37,.18-.81,.02-.99-.35-.29-.61-1.08-1.28-1.98-1.32-.75-.04-1.42,.39-1.96,1.29-.69,1.15-.46,3.22,.56,5.03,1.02,1.8,2.53,2.87,4.04,2.87,4.26,0,4.5-6,4.51-6.25,.01-.41,.34-.74,.76-.72,.41,.01,.73,.35,.72,.76-.08,2.66-1.44,7.69-5.99,7.69h0Z"></path></g></g><g><path class="cls-4" d="M46.75,62.84c-2,0-4.68-1.04-7.57-2.96-4.62-3.07-10.29-8.97-11.1-15.46-.57-4.61,.42-8.63,2.87-11.65,2.17-2.67,5.3-4.3,9.07-4.73,3.86-.43,7.25,.66,9.56,3.08,2.28,2.38,3.17,5.77,2.46,9.3-.36,1.77-1.54,3.32-3.18,4.15-1.16,.59-2.35,.71-3.24,.33-.61-.26-.89-.95-.62-1.55,.27-.59,.98-.87,1.6-.61,.11,.05,.55,.04,1.15-.26,.37-.19,1.6-.93,1.92-2.52,.56-2.78-.12-5.43-1.86-7.25-1.77-1.86-4.44-2.69-7.5-2.34-3.11,.35-5.68,1.68-7.45,3.85-2.04,2.51-2.86,5.94-2.37,9.91,.71,5.72,5.86,11.01,10.06,13.81,3.14,2.09,5.64,2.75,6.72,2.49,3.89-.96,13.28-12.29,14.77-17.83,.78-2.88-.93-5.27-3.02-6.14-.55-.23-2.4-.85-3.37,.67-.35,.55-1.1,.72-1.67,.38-.57-.34-.74-1.07-.39-1.62,1.3-2.04,3.81-2.67,6.39-1.6,3.04,1.26,5.53,4.72,4.41,8.89-1.61,5.99-11.42,18.26-16.51,19.51-.34,.08-.72,.13-1.12,.13h0Z"></path><path class="cls-4" d="M46.03,54.04c-3.36,0-6.62-2.15-8.72-5.75-2.11-3.63-2.47-7.79-.88-10.35,1.8-2.89,4.14-3.23,5.39-3.17,2.17,.1,4.35,1.51,5.3,3.43,.29,.59,.03,1.29-.57,1.57-.61,.28-1.33,.03-1.62-.55-.48-.96-1.77-2.03-3.23-2.09-1.23-.07-2.32,.63-3.2,2.04-1.13,1.83-.76,5.11,.91,7.98,1.66,2.85,4.13,4.56,6.61,4.56,6.96,0,7.36-9.51,7.38-9.92,.02-.65,.56-1.17,1.25-1.14,.67,.02,1.19,.56,1.17,1.21-.13,4.22-2.35,12.2-9.8,12.2h0Z"></path><path class="cls-4" d="M57.83,64.92c-.34,0-.68-.14-.92-.41-.43-.49-.37-1.24,.14-1.66,11.27-9.32,12.79-22.99,7.15-29.91-3.67-4.5-8.92-6.84-11.48-7.06-.75-.07-1.09,.06-1.15,.11-.03,.1-.05,.22,.03,.42,.37,.87,2.08,1.77,2.85,2.07,.62,.24,.92,.93,.67,1.53-.25,.6-.96,.89-1.58,.65-.34-.13-3.31-1.35-4.17-3.34-.32-.75-.33-1.53-.01-2.26,.2-.48,.77-1.3,2.25-1.5,3.42-.46,10.22,2.68,14.49,7.93,6.34,7.78,4.85,22.96-7.48,33.16-.23,.19-.51,.28-.79,.28h0Z"></path><path class="cls-4" d="M46.16,68.57c-4.4,0-10.05-1.25-15.59-6.02-11.93-10.28-9.79-26.47-4.58-34.18,6.78-10.04,21.67-13.28,34.62-7.52,.61,.27,.88,.97,.6,1.56-.28,.59-1,.85-1.61,.58-11.87-5.28-25.45-2.41-31.58,6.67-4.74,7.02-6.7,21.78,4.16,31.14,10.2,8.79,20.98,4.2,21.09,4.15,.61-.27,1.33,0,1.6,.58,.28,.59,0,1.29-.6,1.56-.25,.11-3.49,1.49-8.11,1.49h0Z"></path><path class="cls-4" d="M71.18,33.33c-.44,0-.86-.23-1.08-.63-1.7-3.18-4.14-5.78-5.58-6.61-.57-.33-.76-1.05-.42-1.61,.34-.56,1.09-.74,1.66-.41,2.09,1.21,4.76,4.31,6.49,7.55,.31,.58,.07,1.29-.52,1.58-.18,.09-.37,.13-.56,.13h0Z"></path><path class="cls-4" d="M72.6,64.44c-1.02,0-1.99-.33-2.7-.98-1.18-1.08-2.14-3.37,.02-8.11,1.57-3.45,4.5-9.88,2.47-17.92-.16-.63,.24-1.27,.89-1.42,.64-.15,1.31,.23,1.46,.86,2.23,8.82-.92,15.72-2.61,19.43-1.78,3.91-.89,5.16-.57,5.44,.54,.49,1.52,.4,2.2,.05,.8-.5,3.95-5.04,5.32-11.91,1.17-5.89,1.21-14.75-5.26-23.54-.39-.53-.26-1.26,.28-1.64,.55-.38,1.3-.26,1.69,.27,7.43,10.09,6.98,20.24,5.3,26.97-1.61,6.48-4.7,11.17-6.22,11.93-.74,.37-1.53,.55-2.28,.55h0Z"></path><path class="cls-4" d="M82.87,64.92c-.19,0-.38-.04-.56-.13-.59-.3-.82-1.01-.51-1.59,10.75-19.86,.36-36.75,.26-36.92-.35-.55-.17-1.28,.4-1.62,.57-.34,1.32-.16,1.67,.39,.11,.18,11.2,18.21-.18,39.24-.22,.4-.64,.63-1.07,.63h0Z"></path><path class="cls-4" d="M22.27,64.92c-.33,0-.66-.13-.9-.39-1.53-1.65-3.36-4.74-4.45-7.54-.24-.61,.08-1.29,.7-1.52,.62-.23,1.33,.07,1.56,.68,1.11,2.84,2.85,5.57,3.99,6.8,.45,.48,.41,1.23-.09,1.66-.23,.2-.52,.3-.81,.3h0Z"></path><g class="cls-3"><path class="cls-4" d="M14.26,64.88c-.38,0-.75-.17-.99-.49-7.43-10.09-6.98-20.24-5.3-26.98,1.61-6.48,4.71-11.16,6.22-11.92,1.74-.87,3.74-.7,4.98,.43,1.18,1.08,2.14,3.37-.02,8.11-1.57,3.45-4.5,9.88-2.47,17.92,.16,.63-.24,1.27-.89,1.42-.64,.15-1.31-.23-1.46-.86-2.22-8.81,.92-15.72,2.61-19.43,1.78-3.91,.89-5.16,.57-5.45-.54-.49-1.51-.4-2.2-.05-.8,.5-3.95,5.04-5.32,11.9-1.17,5.89-1.21,14.75,5.26,23.55,.39,.53,.26,1.26-.28,1.64-.21,.15-.46,.22-.7,.22h0Z"></path><path class="cls-4" d="M5.99,64.88c-.41,0-.81-.2-1.03-.56-.11-.18-11.2-18.21,.18-39.24,.31-.57,1.05-.79,1.64-.49,.59,.3,.82,1.01,.51,1.59-10.75,19.86-.36,36.75-.26,36.92,.35,.55,.17,1.28-.4,1.62-.2,.12-.42,.17-.63,.17h0Z"></path><path class="cls-4" d="M25.65,20.43c-.35,0-.7-.15-.94-.43-.42-.5-.35-1.24,.17-1.65,.17-.14,17.52-13.59,41.35-1.34,.59,.3,.82,1.02,.5,1.59-.31,.57-1.05,.79-1.64,.49-22.42-11.52-38.51,.95-38.67,1.08-.22,.18-.5,.27-.77,.27h0Z"></path><path class="cls-4" d="M65.66,7.47c-.19,0-.38-.04-.56-.13-20.51-10.44-38.68-1.04-38.86-.94-.59,.31-1.32,.1-1.64-.47-.32-.57-.11-1.28,.48-1.6,.79-.42,19.51-10.09,41.15,.92,.59,.3,.82,1.01,.51,1.59-.22,.4-.64,.63-1.07,.63h0Z"></path></g><path class="cls-4" d="M65.66,13.31c-.25,0-.49-.07-.71-.22-.04-.03-3.99-2.75-10.73-3.81-.66-.1-1.11-.71-1-1.35,.11-.64,.73-1.08,1.39-.97,7.36,1.15,11.6,4.1,11.77,4.23,.54,.38,.66,1.11,.27,1.64-.24,.32-.61,.48-.98,.48h0Z"></path><path class="cls-4" d="M25.65,13c-.42,0-.83-.21-1.05-.59-.34-.56-.14-1.28,.44-1.61,12.37-6.95,24.13-4.77,24.62-4.67,.66,.13,1.08,.75,.95,1.38-.13,.64-.77,1.05-1.42,.92-.11-.02-11.38-2.09-22.93,4.4-.19,.11-.4,.16-.61,.16h0Z"></path><g class="cls-7"><path class="cls-4" d="M45.94,75.85c-6.22,0-13.43-1.73-21-6.96-.55-.38-.67-1.11-.28-1.64,.39-.53,1.15-.65,1.69-.27,20.7,14.31,38.36,.64,38.54,.5,.52-.41,1.28-.34,1.71,.16,.42,.5,.35,1.24-.17,1.65-.13,.1-8.46,6.56-20.48,6.56h0Z"></path><path class="cls-4" d="M46.63,87.63c-6.33,0-13.75-1.28-21.54-5.25-.59-.3-.82-1.01-.51-1.59,.31-.57,1.04-.8,1.64-.49,20.51,10.44,38.68,1.04,38.86,.94,.59-.31,1.32-.1,1.64,.47,.32,.57,.11,1.28-.48,1.6-.5,.27-8.35,4.33-19.61,4.33h0Z"></path></g><path class="cls-4" d="M36.9,80.69c-.06,0-.13,0-.19-.02-7.36-1.16-11.6-4.11-11.77-4.23-.54-.38-.66-1.11-.27-1.64,.39-.53,1.15-.64,1.69-.26,.04,.03,3.99,2.75,10.73,3.81,.66,.1,1.11,.71,1,1.35-.1,.58-.61,.99-1.19,.99h0Z"></path><path class="cls-4" d="M46.81,81.9c-3.03,0-4.97-.36-5.17-.4-.66-.13-1.08-.75-.95-1.38,.13-.64,.77-1.05,1.42-.92,.11,.02,11.38,2.08,22.93-4.4,.58-.32,1.32-.13,1.66,.43,.34,.56,.14,1.28-.44,1.61-7.5,4.21-14.78,5.07-19.46,5.07h0Z"></path><path class="cls-4" d="M247.83,46.05h2.17c.2,0,.38,.03,.54,.09,.26,.11,.45,.24,.58,.39,.11,.18,.17,.37,.2,.62,.02,.22,.04,.46,.04,.71v7.4c0,.44-.01,.9-.04,1.37-.02,.44,.05,.76,.2,.95,.08,.11,.22,.16,.45,.16h.9c.09,0,.2,0,.34,.02,.08,.01,.16,0,.22-.01,.16-.05,.31-.08,.43-.08,.04,0,.09-.02,.15-.06,.14-.09,.22-.21,.23-.4,.03-.27,.04-.57,.04-.87v-22.05c0-.27,0-.57-.02-.88,0-.23-.07-.38-.17-.45-.13-.09-.31-.14-.51-.15-.15,0-.3,0-.46,0-.24,0-.48,0-.72-.03-.1,0-.18,0-.25,.01h-.19c-.12,.05-.24,.08-.35,.11-.04,0-.06,.02-.07,.05l-.03,.04c-.16,.17-.22,.45-.2,.84,.02,.43,.04,.86,.04,1.27v5.61c0,.36,0,.8,.02,1.33,.01,.57-.08,.98-.28,1.27-.13,.2-.36,.33-.67,.39-.24,.05-.53,.08-.87,.09-.31,.01-.64,.01-.96,0-.3-.01-.58-.02-.84-.02h-9.58c-.24-.05-.43-.1-.58-.16-.18-.06-.34-.19-.47-.38-.06-.05-.12-.18-.13-.32-.01-.09-.03-.15-.04-.2v-.06s-.01-.29-.01-.29c-.03-.09-.03-.23-.01-.38,0-.12,.01-.24,.01-.35v-6.68c0-.37,0-.76,.02-1.2,.01-.35-.06-.62-.21-.78-.1-.13-.31-.19-.63-.19-.04,0-.08,0-.12,0-.43,.01-.83,.02-1.19,.02-.08,.03-.16,.03-.23,.02h-.05c-.2,.06-.34,.15-.4,.25-.1,.14-.15,.32-.14,.55,.01,.3,.02,.58,.02,.83v21.73c0,.32,0,.64,.02,.98,0,.24,.07,.39,.2,.46,.1,.08,.22,.12,.38,.12,.18,.01,.39,.02,.67,.02,.4,0,.76-.01,1.09-.04,.26-.02,.41-.1,.49-.29,.03-.08,.06-.2,.07-.35,.01-.16,.02-.33,.02-.52v-7.18c0-.19,0-.42-.02-.69-.01-.28-.01-.56,0-.83,.01-.27,.04-.51,.08-.74,.04-.25,.11-.44,.19-.58,.15-.18,.31-.29,.5-.34,.14-.04,.31-.08,.51-.13h9.64Z"></path><path class="cls-4" d="M270.08,47.04s-.1,0-.15,0c-.47-.01-.91-.02-1.37-.02h-5.82c-.43,0-.84,0-1.28,.02-.56,.02-.95-.07-1.21-.25-.2-.13-.33-.34-.37-.61-.03-.22-.01-.46,.04-.71,.05-.23,.12-.45,.2-.65,.08-.2,.17-.36,.25-.5,.36-.68,.78-1.26,1.24-1.72,.47-.47,1.1-.86,1.87-1.17,.2-.06,.39-.1,.6-.15,.21-.04,.4-.08,.58-.13,.1-.03,.23-.04,.36-.02,.05,0,.08,0,.1-.02l.04-.02s.03-.02,.05-.02h.7c.24,0,.48,.03,.71,.08,.2,.05,.39,.09,.57,.13,.18,.04,.36,.08,.55,.13,.73,.29,1.33,.64,1.78,1.06,.44,.41,.86,.91,1.23,1.5,.29,.49,.52,1.03,.68,1.58,.06,.22,.06,.43,0,.64-.06,.18-.13,.34-.23,.46-.23,.26-.6,.38-1.13,.38h0Zm-4.47,11.26s0,0,.01,0h.04c.17,.05,.52,.05,.74,0h.43c.08-.02,.19-.03,.3-.04,.12,0,.25-.01,.38-.04,.29-.05,.56-.09,.82-.13,.23-.03,.47-.1,.71-.19,.98-.32,1.79-.72,2.41-1.21,.62-.49,1.19-1.12,1.69-1.89,.32-.51,.58-1.09,.77-1.72,.14-.43-.03-.54-.09-.59-.04-.03-.09-.08-.31-.11-.18-.02-.39-.04-.63-.05-.2-.01-.42,0-.65,.02-.26,.03-.37,.07-.41,.09-.23,.1-.39,.25-.48,.47-.12,.28-.26,.56-.42,.81-.15,.27-.34,.54-.56,.79-.23,.26-.49,.48-.79,.66-.26,.18-.55,.33-.86,.45-.3,.12-.64,.22-1,.32-.38,.1-.88,.16-1.49,.16s-1.07-.05-1.45-.15c-.19,0-.33-.02-.43-.05l-.52-.14c-.19-.05-.37-.12-.54-.2-1.4-.59-2.42-1.59-3.02-2.98-.1-.19-.18-.42-.24-.65l-.03-.14c-.04-.16-.08-.32-.12-.47-.03-.12-.05-.24-.05-.36,0-.09-.01-.18-.03-.29-.06-.14-.06-.33,.01-.52,.06-.16,.12-.28,.18-.37,.13-.18,.26-.31,.4-.38,.15-.09,.35-.14,.59-.16,.2-.01,.41-.02,.63-.02h9.8c.24,0,.52,0,.81,.02,.6,.02,1.22,.04,1.69-.03,.2-.03,.35-.08,.44-.15,.07-.07,.13-.25,.16-.49,.04-.28,.03-.53-.02-.76-.03-.18-.05-.35-.06-.55-.01-.16-.03-.33-.05-.5-.1-.35-.18-.69-.25-1.03-.06-.32-.15-.64-.27-.96-.13-.34-.25-.67-.35-.98-.1-.3-.23-.58-.39-.83-.28-.47-.63-.96-1.02-1.47-.14-.19-.32-.38-.53-.57-.21-.19-.41-.36-.61-.5-.09-.04-.21-.13-.31-.24-.05-.05-.12-.1-.21-.14-.66-.4-1.37-.72-2.12-.94-.73-.22-1.64-.33-2.64-.31-.1,.06-.23,.07-.35,.03-.02,0-.03,0-.03,0l-.07,.02c-.15,0-.25,0-.33,.02-.1,.01-.21,.03-.33,.06-.35,.07-.69,.14-1.01,.2-.31,.06-.61,.15-.89,.26-1.01,.41-1.88,.93-2.57,1.53-.7,.62-1.32,1.36-1.87,2.2-.14,.26-.27,.53-.38,.8-.13,.33-.25,.6-.37,.85-.14,.32-.25,.68-.31,1.05-.06,.4-.15,.8-.25,1.21-.02,.09-.02,.2-.01,.31,.01,.16,0,.31-.06,.46v.36c-.03,.15-.03,.27-.02,.45,.01,.17,.03,.3,.05,.39v.57c.05,.17,.09,.39,.12,.64,.02,.2,.06,.41,.11,.6,.03,.16,.05,.26,.05,.35,0,.06,0,.13,.03,.2,.1,.3,.19,.6,.25,.9,.06,.28,.15,.55,.27,.8,.35,.82,.79,1.57,1.29,2.24,.5,.65,1.12,1.21,1.83,1.67,.43,.24,.82,.44,1.19,.62,.09,.04,.15,.06,.21,.07,.1,.02,.21,.05,.34,.12,.2,.07,.41,.13,.6,.19,.23,.06,.46,.12,.68,.16,.11,.02,.24,.04,.39,.05,.15,.01,.3,.03,.45,.06,.11,.03,.21,.03,.32,.04,.1,0,.21,.01,.33,.03h.3Z"></path><path class="cls-4" d="M283.7,56.06c-.05,0-.11,0-.17,0-.29-.01-.54-.05-.73-.1-.09-.02-.2-.02-.32-.03-.13,0-.28-.01-.42-.04-.43-.14-.81-.3-1.15-.49-.36-.2-.66-.45-.88-.75-.14-.19-.26-.4-.35-.62-.1-.24-.15-.5-.15-.78-.03-.56,.03-1.06,.17-1.47,.14-.41,.35-.77,.63-1.07,.27-.29,.6-.54,.98-.74,.36-.19,.77-.35,1.19-.48l.57-.13c.17-.04,.35-.08,.55-.13,.4-.1,.84-.16,1.3-.17,.43-.01,.83-.06,1.19-.16h.05c.09,0,.18-.01,.26-.02,.11-.02,.2-.02,.28-.02,.13-.03,.29-.06,.46-.09l.25-.05c.27-.05,.49-.1,.68-.15,.09-.05,.24-.08,.41-.08,.07,0,.09,0,.1-.01l.04-.04s.04-.02,.06-.02h.07c.43,0,.58,.06,.67,.11,.24,.17,.38,.4,.42,.69,.03,.23,.04,.48,.04,.77,0,.53,0,1-.02,1.43-.01,.49-.1,.92-.26,1.29-.3,.75-.73,1.36-1.28,1.8-.55,.44-1.2,.81-1.96,1.12-.19,.08-.4,.14-.62,.17-.18,.02-.37,.06-.57,.1-.17,.06-.36,.08-.54,.06-.12,0-.24,0-.36,.05-.17,.05-.36,.07-.59,.07h0Zm5.74-.03c.12,0,.22,.03,.31,.1,.07,.06,.14,.11,.19,.17,.17,.17,.32,.39,.44,.65,.1,.23,.2,.41,.32,.57,.17,.23,.51,.43,1.01,.6,.51,.17,1.02,.2,1.53,.09,.16-.05,.33-.08,.49-.08,.11,0,.21-.02,.31-.06,.19-.1,.36-.25,.48-.47,.12-.21,.15-.48,.09-.82-.03-.14-.04-.25-.04-.34,0-.02-.01-.05-.04-.09-.08-.15-.17-.23-.3-.25-.22-.04-.46-.12-.71-.22-.24-.08-.44-.24-.6-.45-.16-.24-.25-.54-.28-.9-.03-.34-.04-.68-.04-1.02v-8.21c0-.74-.02-1.41-.06-2.05-.03-.62-.16-1.17-.38-1.64-.5-1.12-1.39-1.89-2.64-2.28-1.22-.39-2.66-.59-4.29-.59-.07,0-.15,0-.22,0-.11,.05-.26,.07-.51,.06-.29-.01-.4,0-.42,.01-.3,.05-.58,.09-.86,.12-.27,.02-.52,.06-.76,.11-1.06,.29-1.96,.67-2.67,1.13-.7,.46-1.29,1.11-1.76,1.94-.12,.25-.22,.52-.31,.79-.08,.26-.17,.56-.25,.89-.04,.16-.04,.3,0,.44,.04,.12,.08,.21,.14,.25,.03,.02,.13,.08,.4,.12,.46,.07,.95,.07,1.42,0,.28-.04,.37-.1,.4-.12,.14-.1,.23-.22,.28-.39,.06-.22,.13-.43,.22-.65,.13-.29,.29-.56,.47-.81,.18-.26,.39-.47,.61-.63,.43-.29,.87-.51,1.33-.67,.32-.1,.72-.18,1.16-.23,.89-.1,1.85-.1,2.72,0,.44,.05,.83,.15,1.16,.28,.57,.21,1.02,.51,1.34,.89,.32,.37,.56,.88,.72,1.5,.11,.41,.11,.8,0,1.15-.11,.34-.25,.62-.42,.83-.37,.49-.87,.8-1.49,.93-.61,.12-1.21,.25-1.79,.39-.21,.05-.42,.09-.62,.1-.16,.01-.32,.04-.49,.08-.22,.05-.4,.07-.58,.08-.17,.01-.32,.02-.49,.07-.39,.08-.78,.14-1.18,.19-.37,.05-.73,.12-1.08,.22-.94,.27-1.8,.58-2.57,.91-.74,.33-1.33,.83-1.77,1.5-.14,.21-.26,.44-.36,.7l-.31,.84c-.01,.11-.03,.23-.04,.34-.01,.15-.04,.28-.06,.42v.73c0,.73,.11,1.37,.33,1.88,.29,.7,.66,1.25,1.1,1.64,.45,.39,1.06,.75,1.79,1.05,.16,.07,.34,.12,.52,.15,.23,.04,.43,.09,.63,.13,.06,.02,.09,.02,.1,.02,.1-.02,.22-.02,.36,.02,.11,.05,.19,.07,.28,.07,.14,0,.28,.01,.43,.04h.3c.26,.04,.51,.05,.76,0h.33c.07,0,.16-.01,.28-.04,.28-.05,.58-.09,.88-.12,.27-.02,.53-.07,.78-.14,.42-.12,.82-.26,1.19-.42,.38-.16,.73-.33,1.04-.52,.21-.14,.44-.31,.68-.5,.27-.22,.57-.37,.88-.46,.05-.01,.1-.02,.16-.02h0Z"></path><path class="cls-4" d="M298.29,31.84v.08c-.25,.09-.4,.19-.48,.29-.1,.13-.14,.33-.13,.58,.01,.33,.02,.62,.02,.88v22.5c0,.31,0,.61,.02,.92,.01,.25,.07,.46,.17,.63,.06,.07,.2,.12,.38,.13,.24,.01,.5,.02,.79,.02h.52c.16-.04,.33-.08,.49-.11,.07-.01,.12-.04,.15-.11,.1-.16,.16-.4,.16-.7v-23.46c0-.28,0-.57-.02-.86-.01-.24-.07-.43-.16-.56-.1-.1-.33-.16-.62-.16h-1c-.08,.02-.17,.03-.26,.02h-.02v-.09h0Z"></path><g class="cls-8"><path class="cls-4" d="M310.32,57.82s.01,0,.02,0c.13,.02,.25,.03,.39,.02,.38-.03,.73-.02,1.18,0,.23,.01,.43,0,.62-.05,.21-.06,.35-.14,.42-.26,.06-.08,.1-.19,.12-.34,.02-.17,.03-.35,.02-.53-.02-.21-.04-.38-.07-.54-.04-.21-.08-.28-.1-.31-.07-.09-.17-.15-.32-.17-.21-.04-.43-.05-.66-.05h-.55s-.02,0-.02-.01c-.05-.01-.09-.01-.14-.01-.13,.02-.25,0-.36-.03-.25-.04-.51-.11-.74-.19-.26-.09-.47-.27-.62-.51-.26-.36-.38-.87-.36-1.52,.01-.58,.02-1.16,.02-1.72v-7.35c0-.25,0-.51-.02-.75-.01-.26,0-.53,.02-.78,.03-.26,.09-.49,.17-.68,.1-.23,.28-.4,.51-.5,.45-.16,1.02-.14,1.63-.11h.06c.28,.02,.56,.02,.82,0,.21,0,.37-.06,.48-.15,.1-.08,.16-.2,.18-.38,.03-.25,.04-.49,.04-.74v-.37c0-.08-.02-.16-.05-.23-.06-.11-.19-.23-.37-.35-.05-.02-.2-.05-.6-.05-.04,0-.09,0-.14,0-.41,.01-.76,.02-1.04,.02h-.36c-.13,0-.27-.01-.41-.04-.46-.13-.75-.41-.88-.84-.06-.17-.08-.38-.07-.62,.01-.19,.02-.39,.02-.6v-2.15c0-.28,0-.54-.02-.79,0-.2-.06-.36-.15-.47-.11-.14-.32-.22-.62-.23-.36-.01-.73-.02-1.14-.02-.04,0-.08,0-.12,.01-.07,.01-.13,.02-.2,.02-.2,.1-.34,.22-.41,.35-.03,.1-.05,.25-.05,.43v3.55c0,.25-.03,.46-.09,.63-.17,.3-.38,.51-.65,.66-.38,.13-.79,.16-1.28,.1-.4-.05-.73-.02-.97,.06-.17,.08-.27,.2-.3,.36-.05,.21-.07,.48-.07,.82,0,.12,0,.23,.02,.35,0,.09,.03,.18,.07,.25,.06,.18,.15,.27,.29,.3,.19,.06,.45,.09,.75,.09l.69,.02s.03,0,.04,0c.05,.02,.09,.03,.13,.02,.14-.03,.29-.03,.43,0,.4,.13,.63,.29,.72,.51,.07,.16,.14,.41,.22,.75v9.78c0,.85,.03,1.66,.08,2.42,.05,.71,.24,1.3,.57,1.75,.23,.33,.5,.57,.83,.7,.36,.14,.79,.28,1.27,.39,.1,0,.22,0,.34,.02,.12,.01,.26,.04,.38,.06h.41Z"></path><path class="cls-4" d="M325.09,41.12c.16,0,.3,.01,.41,.04,.29,.05,.56,.12,.8,.22,.24,.09,.47,.2,.69,.33,.76,.42,1.31,1.09,1.63,1.98,.19,.57,.27,1.26,.26,2.03-.01,.69-.02,1.39-.02,2.13v9.37c0,.18,.05,.34,.14,.47,.1,.13,.27,.2,.51,.2h.98c.55,0,.76-.1,.83-.17,.04-.03,.1-.11,.15-.31,.04-.2,.07-.43,.09-.68,.01-.25,.01-.52,0-.79-.01-.25-.02-.49-.02-.74v-9.32c0-.16,0-.3,.02-.43,0-.12,0-.24-.02-.34v-.37c-.06-.15-.08-.3-.06-.44,0-.08,0-.16-.04-.26-.04-.2-.05-.35-.05-.5,0-.09-.02-.18-.06-.28-.06-.23-.11-.42-.15-.6-.04-.17-.09-.33-.16-.47-.13-.27-.25-.51-.37-.72-.12-.21-.26-.43-.41-.65-.21-.27-.44-.52-.69-.73-.24-.16-.49-.31-.72-.43-.26-.14-.52-.26-.79-.38-.13-.05-.21-.07-.25-.08-.09-.01-.2-.05-.36-.11-.17-.04-.36-.07-.55-.09-.23-.03-.44-.07-.64-.12-.09-.02-.2-.03-.3-.03h-.43s-.02-.01-.03-.02c-.05-.02-.2-.06-.54-.06s-.49,.04-.54,.06c-.2,.04-.34,.05-.47,.03-.05,0-.11,0-.16,.03-.25,.06-.47,.11-.72,.15-.22,.04-.43,.08-.63,.13-.32,.11-.67,.26-1,.41-.34,.16-.64,.33-.9,.52-.14,.11-.28,.23-.4,.34-.14,.12-.3,.24-.45,.34-.05,.06-.15,.11-.26,.13-.01,0-.03,.01-.05,.03l-.05,.04s-.04,.02-.06,.02h-.07c-.57,0-.64-.37-.65-.48-.01-.17-.04-.34-.09-.52-.03-.09-.04-.21-.03-.35,.01-.07,0-.13,0-.16-.04-.14-.05-.27-.03-.4,.01-.09,.02-.17,.02-.27v-6.03c0-.28-.05-.49-.14-.62-.1-.13-.32-.21-.63-.22-.32,0-.7-.02-1.07-.02-.08,.03-.17,.03-.25,.01-.25,.07-.39,.16-.46,.27-.11,.15-.15,.34-.14,.59,.01,.33,.02,.62,.02,.88v22.54c0,.33,0,.63,.02,.9,.01,.24,.07,.45,.17,.61,.06,.07,.2,.12,.37,.13,.25,.01,.52,.02,.79,.02h.5c.18-.05,.35-.08,.49-.09,.07,0,.13-.04,.19-.11,.02-.02,.07-.11,.1-.36,.03-.26,.04-.48,.05-.69,.01-.24,.01-.49,0-.74-.01-.28-.02-.51-.02-.7v-7.46c.02-.14,.02-.23,0-.32-.03-.15-.03-.31,0-.47,.02-.06,.03-.11,.02-.16-.02-.12,0-.24,.03-.35,.04-.16,.08-.35,.11-.55,.03-.21,.07-.41,.12-.59,.29-.94,.71-1.73,1.24-2.35,.53-.62,1.26-1.12,2.16-1.48,.21-.1,.45-.18,.73-.22,.22-.03,.45-.07,.69-.13,.17-.03,.31-.04,.43-.02,.07,0,.14,0,.21-.01,.14-.06,.32-.07,.51-.04,.14,.03,.26,.05,.37,.08,.02,0,.04,0,.06,0h0Z"></path></g><path class="cls-4" d="M180.11,57.82h.64c.31,0,.59-.01,.83-.04,.2-.02,.33-.08,.42-.2,.1-.11,.14-.23,.13-.37-.01-.2,0-.45,.02-.74,.02-.27,.04-.55,.04-.83v-5.42c0-.32,0-.67-.02-1.09-.02-.4,.02-.76,.1-1.09,.02-.09,.02-.19,.01-.29-.02-.14,0-.29,.02-.44,.08-.3,.14-.59,.19-.87,.06-.3,.14-.6,.24-.87,.34-.74,.75-1.4,1.22-1.98,.48-.59,1.12-1.05,1.89-1.39,.3-.13,.62-.24,.94-.31,.32-.07,.66-.15,1.02-.22,.29-.07,.59-.12,.88-.14,.21,0,.35-.08,.46-.22,.1-.12,.14-.25,.14-.41v-.7c0-.52-.04-.92-.11-1.18-.05-.2-.43-.25-.74-.25-.12,.02-.27,.04-.42,.06-.14,.01-.29,.03-.44,.05-.26,.07-.53,.14-.78,.2-.24,.06-.46,.15-.67,.26-.36,.15-.73,.36-1.12,.65-.39,.29-.7,.56-.91,.81l-.25,.24c-.12,.14-.27,.33-.44,.55-.23,.3-.53,.45-.89,.45h-.07s-.04,0-.06-.02l-.17-.16s-.08-.1-.12-.17c-.12-.23-.18-.5-.18-.8v-.74c0-.21-.03-.41-.09-.6-.04-.14-.12-.22-.25-.27-.11-.04-.27-.08-.48-.1-.21-.02-.42-.03-.65-.02-.21,.01-.4,.04-.58,.09-.13,.03-.22,.08-.27,.14-.1,.13-.15,.29-.16,.48-.01,.24-.02,.49-.02,.75v15.71c0,.25,0,.52,.02,.79,.01,.22,.07,.39,.16,.52,.02,.02,.05,.06,.13,.08,.1,.03,.21,.07,.33,.12h0Z"></path><path class="cls-4" d="M197.79,58.23s0,0,.01,0h.05c.14,.05,.28,.07,.44,.06,.2-.01,.4-.02,.61-.02h.33c.1-.03,.24-.02,.38,0,.04,.01,.09,0,.13-.02l.06-.02c.31-.05,.6-.09,.89-.1,.25-.01,.51-.06,.77-.15,.27-.08,.51-.15,.74-.21,.2-.05,.41-.13,.61-.22,.79-.34,1.47-.78,2.02-1.33,.55-.55,1.02-1.19,1.39-1.91,.18-.32,.32-.64,.43-.95l.37-1.06c.04-.18,.04-.35,0-.51-.02-.14-.08-.23-.18-.29-.05-.04-.16-.08-.4-.11-.23-.02-.47-.03-.73-.02-.25,.01-.49,.04-.72,.07-.26,.04-.32,.09-.32,.1-.17,.12-.26,.23-.3,.37-.06,.17-.11,.35-.17,.56-.1,.22-.19,.42-.28,.61l-.04,.1c-.11,.24-.23,.46-.36,.66-.35,.52-.78,.95-1.3,1.28-.5,.32-1.1,.59-1.79,.79-.22,.06-.42,.08-.61,.07-.14-.02-.27,0-.43,.04-.11,.04-.23,.05-.34,.03-.03,0-.04,0-.04,0l-.09,.02c-.11,0-.19-.01-.25-.04h-.34c-.23,0-.36-.02-.47-.05-.12-.02-.2-.02-.22-.02-.09,0-.2-.01-.35-.04-.32-.11-.59-.21-.83-.31-.26-.1-.5-.22-.73-.35-.7-.44-1.25-.97-1.64-1.59-.38-.6-.71-1.31-1-2.11-.06-.21-.1-.42-.14-.67-.04-.23-.08-.43-.13-.61,0-.34-.03-.47-.04-.52-.03-.16-.03-.32,0-.47,.02-.08,.02-.17,0-.25-.06-.14-.08-.33-.07-.57,.01-.22,.03-.39,.06-.51v-.28s0-.02,0-.03v-.03c.05-.09,.06-.19,.05-.3-.01-.17,0-.33,.02-.48l.23-1.01c.08-.27,.15-.53,.24-.78,.08-.24,.17-.48,.28-.71,.29-.67,.71-1.26,1.24-1.75,.53-.49,1.15-.88,1.83-1.16,.2-.06,.38-.1,.55-.13,.14-.02,.29-.05,.47-.1,.4-.13,.91-.2,1.53-.18,.6,.01,1.1,.07,1.48,.18,.27,.08,.51,.16,.75,.25,.24,.09,.47,.2,.69,.34,.64,.39,1.17,.93,1.58,1.61,.14,.22,.25,.47,.33,.76,.06,.22,.17,.38,.33,.5,.13,.09,.3,.15,.51,.15,.35,.02,.74,0,1.13,.04,.07,0,.15,0,.21-.01,.15-.04,.27-.04,.37-.02,.01,0,.02,0,.05-.02,.15-.08,.25-.16,.3-.25,.02-.08,.03-.21,.01-.38-.02-.17-.06-.32-.1-.42-.22-.7-.5-1.3-.82-1.78-.71-1.07-1.69-1.89-2.9-2.42-1.25-.55-2.79-.81-4.61-.78-.23,.03-.41,.04-.57,.06-.17,.01-.35,.03-.52,.05-.36,.07-.71,.14-1.03,.18-.31,.05-.6,.13-.85,.24-1.29,.51-2.32,1.15-3.06,1.91-.74,.76-1.38,1.79-1.9,3.04-.15,.35-.26,.74-.33,1.14-.07,.39-.16,.82-.27,1.28-.05,.14-.06,.27-.05,.41,.01,.2,0,.4-.07,.6-.01,.06-.02,.13-.01,.2,.02,.12,0,.26-.02,.41-.02,.1-.03,.26-.03,.47s.01,.37,.03,.47v.38c.06,.17,.08,.35,.06,.54-.01,.14,0,.27,.04,.39,.04,.14,.05,.25,.05,.38,0,.08,0,.16,.03,.24,.08,.29,.14,.59,.19,.91,.05,.28,.13,.55,.25,.8l.31,.75c.1,.24,.21,.45,.32,.63,.49,.77,1.04,1.43,1.62,1.96,.57,.52,1.32,.98,2.21,1.37,.27,.12,.55,.21,.84,.28,.3,.07,.63,.16,.97,.26l.88,.1h.16s0,0,0,0h0Z"></path><path class="cls-4" d="M211.01,31.95h0Zm8.74,9.17c.15,0,.3,.01,.41,.04,.29,.05,.56,.12,.8,.22,.23,.09,.47,.2,.69,.33,.76,.42,1.31,1.09,1.64,1.98,.19,.57,.27,1.26,.26,2.03-.02,.84-.02,1.62-.02,2.13v9.37c0,.18,.05,.34,.14,.47,.1,.13,.27,.2,.51,.2h.98c.55,0,.76-.1,.83-.17,.04-.03,.1-.11,.15-.31,.05-.21,.08-.44,.09-.68,.01-.25,.01-.52,0-.8-.01-.25-.02-.49-.02-.74v-9.32c0-.15,0-.29,.02-.43,.01-.13,0-.24-.01-.34v-.37c-.06-.15-.08-.29-.06-.44,0-.09,0-.17-.04-.26-.04-.2-.06-.35-.06-.5,0-.09-.02-.18-.06-.28-.06-.23-.11-.42-.15-.59-.04-.16-.09-.32-.16-.47-.12-.26-.25-.5-.37-.72-.13-.22-.26-.44-.41-.65-.21-.27-.44-.52-.69-.73-.24-.16-.49-.31-.72-.43-.24-.13-.5-.25-.79-.38-.09-.04-.18-.06-.25-.08-.09-.01-.21-.05-.36-.11-.17-.04-.37-.07-.55-.09-.23-.03-.44-.07-.64-.12-.1-.02-.2-.03-.3-.03h-.43s-.02-.01-.03-.02c-.05-.02-.19-.06-.54-.06s-.48,.04-.54,.06c-.19,.04-.34,.05-.47,.03-.05,0-.11,0-.16,.03-.25,.07-.48,.11-.72,.15-.22,.04-.44,.08-.63,.13-.33,.11-.68,.26-1.01,.41-.33,.15-.64,.33-.9,.52-.14,.11-.27,.23-.4,.34-.15,.13-.3,.24-.44,.33-.06,.07-.17,.12-.27,.14,0,0-.02,0-.05,.03l-.04,.04s-.04,.02-.06,.02h-.07c-.57,0-.64-.37-.65-.48-.01-.16-.04-.32-.09-.52-.03-.09-.04-.21-.02-.35,0-.06,0-.12,0-.16-.04-.14-.05-.27-.03-.4,.01-.1,.02-.18,.02-.27v-6.03c0-.28-.05-.49-.15-.62-.1-.13-.32-.21-.63-.22-.32,0-.7-.02-1.07-.02-.08,.03-.17,.03-.25,.01,0,0,0,0,0,0-.25,.07-.39,.15-.46,.27-.11,.15-.15,.34-.14,.59,.01,.35,.02,.63,.02,.88v22.54c0,.32,0,.62,.02,.9,.01,.24,.07,.45,.17,.61,.07,.07,.2,.12,.38,.13,.25,.01,.52,.02,.79,.02h.5c.18-.05,.35-.08,.49-.09,.07,0,.13-.04,.19-.12,.01-.02,.07-.1,.1-.36,.03-.26,.04-.48,.05-.69,.01-.24,.01-.49,0-.74-.01-.26-.02-.49-.02-.7v-7.46c.02-.14,.02-.23,0-.33-.03-.15-.03-.31,0-.46,.02-.06,.02-.11,.02-.16-.02-.13,0-.25,.03-.35,.04-.17,.08-.36,.1-.55,.03-.21,.07-.41,.12-.59,.29-.94,.7-1.74,1.23-2.35,.53-.62,1.26-1.12,2.16-1.48,.21-.1,.46-.18,.73-.22,.23-.03,.45-.07,.69-.13,.18-.03,.31-.04,.43-.02,.08,.01,.14,0,.21-.01,.14-.06,.32-.07,.51-.04,.14,.03,.27,.05,.37,.08,.02,0,.04,0,.06,0h0Z"></path><path class="cls-4" d="M125.07,58.29c.09,0,.19,0,.29,.03,.05,.02,.15,.04,.46,.05,.33,.02,.4,0,.41,0,.26-.04,.44-.05,.6-.05,.13,0,.24,0,.36-.03,.1-.03,.23-.03,.37-.02,.06,.01,.13,0,.21-.04,.31-.06,.6-.1,.93-.14,.26-.03,.52-.09,.78-.18,.27-.1,.54-.18,.81-.26,.25-.07,.5-.16,.76-.27,.74-.33,1.44-.74,2.06-1.24,.63-.49,1.17-1.05,1.59-1.65,.19-.27,.36-.55,.52-.83,.15-.28,.34-.58,.54-.91,.23-.42,.4-.88,.52-1.36,.13-.51,.26-1.04,.41-1.58,.07-.21,.09-.43,.07-.65-.02-.17-.07-.28-.17-.33-.05-.04-.07-.05-.11-.06-.08-.01-.16-.03-.24-.05h-.22c-.14-.03-.24-.04-.33-.04h-.37c-.29,0-.58,.01-.86,.04-.19,.02-.32,.08-.4,.21-.11,.16-.17,.34-.21,.54-.03,.22-.08,.44-.13,.68-.18,.62-.37,1.15-.57,1.58-.81,1.79-2.22,3.1-4.19,3.88-.23,.1-.48,.17-.74,.21-.22,.04-.45,.08-.69,.12-.12,.06-.26,.08-.4,.06-.06,0-.12,0-.21,.01h-.27c-.17,.05-.41,.07-.75,.06-.36-.01-.57-.03-.7-.06-.19-.05-.34-.06-.44-.05-.21,0-.38,0-.57-.06-.42-.12-.8-.22-1.16-.32-.36-.1-.73-.23-1.1-.41-1.11-.56-2.02-1.29-2.7-2.16-.68-.86-1.24-1.92-1.66-3.13-.1-.3-.19-.6-.25-.91-.07-.34-.13-.63-.2-.9-.05-.12-.08-.29-.06-.47,0-.1,0-.22-.05-.33-.06-.19-.08-.39-.07-.59,.01-.14,0-.28-.05-.42v-.06s0-.37,0-.37c-.02-.12-.03-.3-.02-.5,.01-.17,.02-.34,.02-.5,0-.3,0-.58,.02-.85,.01-.28,.04-.57,.09-.84,.02-.09,.04-.16,.04-.21,0-.09,.01-.2,.04-.31,.04-.13,.07-.25,.07-.39,0-.18,.03-.36,.09-.52,.12-.38,.24-.75,.35-1.12,.12-.39,.26-.75,.44-1.1,.93-2.06,2.47-3.55,4.59-4.4,.23-.1,.47-.18,.7-.23l.08-.02c.22-.04,.41-.09,.62-.12,.23-.07,.56-.13,.93-.17,.72-.07,1.54-.07,2.25,0,.35,.04,.67,.09,.96,.17,.37,.09,.73,.19,1.09,.28,.39,.1,.74,.26,1.05,.46,.54,.33,1.03,.7,1.45,1.1,.42,.39,.8,.87,1.13,1.41,.18,.28,.33,.58,.43,.91,.09,.29,.22,.54,.37,.75,.09,.14,.23,.21,.44,.24,.26,.03,.57,.05,.91,.05h.31c.08,0,.15,0,.2-.02h.06s.34-.01,.34-.01c.14-.04,.27-.08,.4-.12,.04,0,.08-.03,.11-.11,.06-.14,.07-.27,.03-.42-.05-.2-.09-.35-.14-.45-.15-.48-.3-.89-.46-1.23-.16-.34-.36-.69-.59-1.06-.88-1.36-2.13-2.44-3.71-3.22-1.5-.73-3.37-1.1-5.56-1.1-.11,0-.23,0-.34,0-.1,.03-.2,.02-.31-.01-.01,0-.02,0-.02,0h-.04c-.25,.04-.43,.06-.6,.07-.19,.01-.37,.03-.56,.05l-.48,.08c-.14,.02-.28,.04-.44,.06-.26,.09-.57,.17-.89,.23-.29,.06-.56,.14-.81,.25-.43,.19-.85,.38-1.27,.57-.39,.18-.77,.4-1.12,.66-.16,.11-.31,.22-.45,.33l-.42,.34c-.17,.14-.33,.28-.49,.42-.15,.13-.29,.29-.43,.47-.07,.12-.19,.25-.32,.35-.09,.07-.16,.14-.22,.24-.37,.51-.74,1.07-1.1,1.68-.17,.26-.32,.54-.44,.84-.14,.32-.27,.64-.39,.94-.14,.32-.25,.67-.32,1.03-.08,.39-.18,.79-.3,1.2-.04,.14-.06,.28-.06,.41,0,.18-.03,.35-.09,.52-.04,.16-.07,.35-.08,.53-.01,.19-.03,.39-.06,.61v.33s0,.03,0,.04v.02s0,.02,0,.04c.04,.13,.04,.26,0,.37-.04,.1-.06,.28-.06,.53,0,.35,.04,.48,.05,.52l.02,.08v.69c.05,.16,.08,.4,.09,.67,0,.22,.04,.43,.09,.64,.03,.14,.04,.28,.02,.4,0,.05,0,.12,.04,.2,.08,.37,.15,.7,.22,1.01,.06,.29,.13,.59,.23,.86,.55,1.58,1.31,2.98,2.25,4.15,.93,1.15,2.16,2.05,3.66,2.68,.41,.21,.87,.39,1.37,.52,.2,.07,.39,.12,.6,.16,.2,.03,.43,.07,.68,.13,.19,.05,.36,.07,.52,.08,.18,.01,.37,.04,.58,.09h.32c.15,.02,.24,.02,.32,.01,.05,0,.09,0,.14,0h0Z"></path><path class="cls-4" d="M149.78,41.12c.16,0,.3,.01,.41,.04,.29,.05,.56,.12,.8,.22,.23,.09,.46,.2,.69,.33,.76,.42,1.31,1.09,1.63,1.98,.19,.57,.28,1.25,.26,2.03-.01,.74-.02,1.45-.02,2.13v9.37c0,.19,.05,.34,.14,.47,.1,.13,.27,.2,.51,.2h.98c.55,0,.76-.1,.83-.17,.04-.03,.1-.1,.15-.31,.05-.2,.08-.43,.09-.68,.01-.25,.01-.52,0-.8-.01-.29-.02-.53-.02-.74v-9.32c0-.13,0-.28,.02-.43,.01-.12,0-.24-.02-.34v-.37c-.06-.15-.08-.3-.06-.44,0-.08,0-.17-.04-.26-.04-.2-.06-.35-.06-.49,0-.09-.02-.19-.06-.28-.06-.23-.11-.42-.15-.6-.04-.16-.09-.32-.16-.47-.11-.24-.24-.49-.37-.72-.12-.22-.26-.44-.41-.65-.22-.28-.45-.53-.69-.73-.23-.15-.49-.31-.72-.43-.27-.14-.52-.26-.79-.38-.12-.05-.2-.07-.25-.08-.1-.02-.22-.05-.36-.11-.18-.04-.37-.07-.55-.09-.23-.03-.44-.07-.64-.12-.1-.02-.2-.03-.3-.03h-.43s-.02-.01-.03-.02c-.05-.02-.19-.06-.54-.06s-.49,.04-.54,.06c-.2,.04-.34,.05-.47,.03-.06,0-.11,0-.16,.03-.25,.06-.47,.11-.72,.15-.22,.04-.43,.08-.63,.13-.32,.11-.67,.26-1.01,.41-.33,.16-.64,.33-.9,.52-.14,.11-.28,.23-.4,.34-.14,.12-.3,.24-.45,.34-.05,.06-.16,.11-.27,.13,0,0-.02,0-.04,.03l-.05,.05s-.04,.02-.06,.02h-.07c-.57,0-.64-.37-.65-.48-.01-.16-.04-.33-.09-.52-.03-.09-.04-.21-.03-.35,0-.06,0-.12,0-.16-.04-.13-.05-.26-.03-.4,.01-.09,.02-.18,.02-.27v-6.03c0-.28-.05-.49-.14-.62-.1-.13-.32-.21-.63-.22-.32,0-.7-.02-1.07-.02-.08,.03-.17,.03-.25,.01,0,0,0,0,0,0-.24,.06-.39,.15-.45,.27-.11,.15-.15,.34-.14,.6,.01,.33,.02,.62,.02,.88v22.54c0,.34,0,.63,.02,.9,.01,.24,.07,.45,.17,.61,.06,.07,.2,.12,.38,.13,.26,.01,.51,.02,.79,.02h.5c.18-.05,.35-.08,.49-.09,.07,0,.13-.04,.19-.11,.02-.02,.07-.11,.1-.36,.02-.23,.04-.46,.05-.69,.01-.24,.01-.49,0-.74-.01-.28-.02-.51-.02-.7v-7.46c.02-.14,.02-.23,0-.32-.03-.16-.03-.31,0-.47,.02-.06,.02-.11,.02-.16-.02-.12,0-.24,.03-.35,.04-.16,.08-.35,.11-.55,.03-.21,.07-.41,.12-.59,.29-.95,.71-1.74,1.23-2.35,.53-.62,1.26-1.12,2.16-1.48,.2-.1,.46-.18,.73-.22,.22-.03,.46-.08,.69-.13,.17-.03,.31-.04,.43-.02,.07,0,.15,0,.21-.01,.14-.06,.32-.07,.51-.04,.14,.03,.26,.05,.37,.08,.02,0,.04,0,.06,0h0Z"></path><path class="cls-4" d="M165.45,58.27h.34c.22,.04,.42,.05,.64,0,.13-.05,.31-.07,.5-.04,.11,.02,.21,.02,.31,0,.3-.07,.61-.13,.92-.17,.27-.03,.53-.11,.79-.22,.7-.29,1.33-.63,1.87-1.02,.16-.11,.34-.28,.53-.5,.24-.28,.48-.44,.74-.51,.26-.05,.46,.02,.6,.2,.1,.14,.17,.3,.2,.5,.02,.15,.04,.33,.06,.52,.01,.16,.03,.29,.05,.37,.07,.15,.16,.28,.26,.35,.03,.02,.13,.07,.35,.1,.21,.02,.42,.03,.65,.02,.23-.01,.45-.03,.64-.07,.21-.04,.31-.09,.36-.12,.12-.08,.18-.21,.19-.4,.01-.28,.02-.55,.02-.82v-16.55c0-.17-.04-.29-.12-.37-.12-.17-.23-.25-.4-.26-.24-.02-.5-.04-.8-.04h-.56c-.12,.03-.23,.06-.34,.09l-.12,.03c-.09,.02-.16,.07-.23,.16-.09,.14-.13,.36-.12,.64,.01,.36,.02,.67,.02,.96v6.81c0,.21,.01,.44,.04,.7,.03,.28,.02,.54-.04,.76v.76s0,.02,0,.03v.03c-.05,.08-.06,.15-.05,.22,.02,.12,0,.26-.02,.41-.05,.21-.09,.42-.11,.62-.03,.23-.09,.44-.17,.65-.29,.88-.7,1.62-1.22,2.17-.52,.56-1.23,1.02-2.1,1.38-.5,.2-1.17,.34-1.99,.41-.83,.06-1.55-.02-2.14-.26-1.19-.47-2-1.3-2.44-2.48-.14-.45-.21-.98-.21-1.58v-10.82c0-.3,0-.59-.02-.88-.01-.26-.07-.46-.17-.62-.09-.12-.3-.18-.59-.18h-1.06c-.08,.03-.16,.03-.25,.01,0,0-.01,0-.01,0-.24,.06-.38,.15-.45,.27-.08,.12-.12,.26-.12,.43v11.36c0,.14,0,.27-.02,.41,0,.11,0,.2,.01,.27v.05s0,.35,0,.35c.03,.09,.04,.18,.04,.28,0,.03,0,.07,.01,.1,.07,.24,.1,.42,.08,.59,0,.11,0,.21,.04,.33l.05,.23c.04,.18,.07,.35,.11,.52,.05,.22,.12,.44,.21,.64,.27,.62,.62,1.15,1.04,1.58,.42,.43,.95,.78,1.58,1.04,.19,.09,.38,.17,.56,.21,.13,.03,.26,.07,.4,.1l.19,.05c.15,.06,.21,.05,.23,.05,.12-.02,.26,0,.4,.06,.1,.02,.23,.03,.36,.03,.18,0,.34,.02,.49,.07h0Z"></path></g></g></svg>