<svg xmlns="http://www.w3.org/2000/svg" viewBox="0 0 720 178.11"><title>The City of Asheville</title><polygon points="272.25 12.42 252.56 12.42 252.56 8.48 296.29 8.48 296.29 12.42 276.6 12.42 276.6 82.47 272.25 82.47 272.25 12.42" fill="#fff"/><polygon points="304.37 8.48 308.72 8.48 308.72 40.92 341.15 40.92 341.15 8.48 345.51 8.48 345.51 82.47 341.15 82.47 341.15 44.85 308.72 44.85 308.72 82.47 304.37 82.47 304.37 8.48" fill="#fff"/><polygon points="359.7 8.48 395.04 8.48 395.04 12.42 364.05 12.42 364.05 41.95 392.97 41.95 392.97 45.89 364.05 45.89 364.05 78.53 395.97 78.53 395.97 82.47 359.7 82.47 359.7 8.48" fill="#fff"/><path d="M451.68,57.62v1.55c0,13.37-5.39,26.42-22.8,26.42-18.65,0-24.45-12-24.45-38.44S410.23,8.7,429,8.7c21,0,22.28,15.55,22.28,23.21v1.35H439.45V32c0-6.84-2.07-14.72-10.57-14.4-8.71,0-12.64,5.38-12.64,29.22s3.93,29.85,12.64,29.85c9.85,0,11-11,11-17.83V57.62Z" transform="translate(-1 -1.67)" fill="#fff"/><rect x="460" y="8.48" width="11.81" height="73.99" fill="#fff"/><polygon points="497.2 18.43 479.58 18.43 479.58 8.48 526.32 8.48 526.32 18.43 509.01 18.43 509.01 82.47 497.2 82.47 497.2 18.43" fill="#fff"/><polygon points="547.14 53.56 528.08 8.48 541.24 8.48 553.67 40.39 566.42 8.48 578.75 8.48 558.96 53.56 558.96 82.47 547.14 82.47 547.14 53.56" fill="#fff"/><path d="M589.17,47.15c0,20.31,4.14,34.72,19.59,34.72,13.57,0,19.48-11.19,19.48-34.72,0-20-4.46-34.72-19.48-34.72-14.51,0-19.59,14.41-19.59,34.72m43.42,0c0,32.44-13.37,38.24-23.83,38.24-14.2,0-23.94-9.53-23.94-38.24S595.18,8.91,608.76,8.91c14.72,0,23.83,9.54,23.83,38.24" transform="translate(-1 -1.67)" fill="#fff"/><polygon points="643.39 8.48 678.84 8.48 678.84 12.42 647.75 12.42 647.75 41.95 676.67 41.95 676.67 45.89 647.75 45.89 647.75 82.47 643.39 82.47 643.39 8.48" fill="#fff"/><path d="M284.16,120.51H284l-4.76,30.36h9.43ZM290.9,167H277l-2.07,11.29H253.59l17.51-74h26l17.41,74H293.18Z" transform="translate(-1 -1.67)" fill="#fff"/><path d="M347.78,122.58c0-3.11-1.34-6-4.88-6-3.1,0-4.76,2.6-4.76,5.6,0,14.71,30.88,7.15,30.88,33.57,0,17.21-8,24-27.15,24-15.86,0-24.56-5.39-24.56-21.66v-2h20.1v3.42c0,3.63,1.56,6.52,5.19,6.52,3.84,0,5.07-3.31,5.07-6.52,0-4.76-1.76-5.8-4.46-7.36s-6.52-3-10.25-4.87c-11.19-5.59-14.93-9.64-14.93-20.62,0-10.26,3.12-15.86,7.88-19.28,3.53-2.49,8.81-4.56,16.89-4.56,20.94,0,24.47,10.36,24.47,22.7H347.78Z" transform="translate(-1 -1.67)" fill="#fff"/><polygon points="406.26 102.67 426.98 102.67 426.98 176.66 406.26 176.66 406.26 146.82 396.3 146.82 396.3 176.66 375.57 176.66 375.57 102.67 396.3 102.67 396.3 129.41 406.26 129.41 406.26 102.67" fill="#fff"/><polygon points="436.61 102.67 481.17 102.67 481.17 119.45 457.33 119.45 457.33 130.85 479.62 130.85 479.62 147.03 457.33 147.03 457.33 159.87 482.1 159.87 482.1 176.66 436.61 176.66 436.61 102.67" fill="#fff"/><polygon points="520.85 102.67 542.72 102.67 527.07 176.66 500.33 176.66 484.79 102.67 507.17 102.67 513.91 159.87 514.12 159.87 520.85 102.67" fill="#fff"/><rect x="546.13" y="102.67" width="20.73" height="73.99" fill="#fff"/><polygon points="575.45 102.67 596.17 102.67 596.17 159.87 618.77 159.87 618.77 176.66 575.45 176.66 575.45 102.67" fill="#fff"/><polygon points="624.98 102.67 645.71 102.67 645.71 159.87 668.3 159.87 668.3 176.66 624.98 176.66 624.98 102.67" fill="#fff"/><polygon points="674.5 102.67 674.5 176.66 720 176.66 720 159.87 695.24 159.87 695.24 147.02 717.51 147.02 717.51 130.85 695.24 130.85 695.24 119.45 719.07 119.45 719.07 102.67 674.5 102.67" fill="#fff"/><path d="M154.8,87.76H142.3V38.88h12.5Zm-18.67,0H123.64V38.88h12.49Zm-18.66,0H105V38.88h12.49Zm-18.66,0H86.31V38.88h12.5ZM216.2,140.51c-.12-.8-2.1.25-2.22-.55-.18-6.49.37-13.69-.28-19.71-1.38,0-2.21,1.89-3.89,1.94-2.35.06-6.58-3.62-8.88-5-8.88-5.32-18.94-11-26.1-16.11-1-5.75.63-14.14-.83-19.43-1.66.08-1.85,1.41-3.06,1.94-1.49.28-4.4.59-5.83,0V29.16c-2.46.78-3.45,2.82-7.5,1.95-5.07-3.72-10.67-6.91-15.27-11.11-.93-.18-2.58.36-3.05-.28V10.84c-1.18-.59-2.35-1.18-2.51-2.78-4.13-.12-9.69,1.19-8.6-4.16-1.85.08-1.74-1.78-3.06-2.23h-8.05A3.64,3.64,0,0,1,114.3,3.9c.43,2.1-.42,2.92-1.11,3.88-2,.58-5,.15-7.51.28-.08,1.86-1.78,2.1-2.49,3.33V20H99a54.42,54.42,0,0,1-6.94,5.83c-3.65,2.8-6.54,6.32-13.33,5.28-1.21-.46-1.17-2.17-3-1.95-.65,17.68-.1,36.57-.28,54.71-4.42.71-6.35-1.06-8.89-2.22-.82,5.84.27,13.59-.55,19.43C58.62,106,48.75,112,40.15,117.19c-2.22,1.35-6.7,5.3-9.16,5-1.58-.2-2.32-2.63-3.89-2.22-.64,6.2-.09,13.6-.27,20.26a4.5,4.5,0,0,0-2.78.56c-4.09,1.94-7.69,5.19-11.39,7.5C8.72,150.75,5,153.16,1,155.51c2.54,8.2,5.25,16.23,9.44,22.77h218c4.14-6.88,6.76-15.27,9.44-23.6-6.83-5.11-14.55-9.33-21.66-14.17" transform="translate(-1 -1.67)" fill="#fff"/></svg>