<?xml version="1.0" encoding="utf-8"?>
<!-- Generator: Adobe Illustrator 15.1.0, SVG Export Plug-In . SVG Version: 6.00 Build 0)  -->
<!DOCTYPE svg PUBLIC "-//W3C//DTD SVG 1.1//EN" "http://www.w3.org/Graphics/SVG/1.1/DTD/svg11.dtd">
<svg version="1.1" id="Layer_1" xmlns="http://www.w3.org/2000/svg" xmlns:xlink="http://www.w3.org/1999/xlink" x="0px" y="0px"
	 width="260.88px" height="83.76px" viewBox="0 0 260.88 83.76" enable-background="new 0 0 260.88 83.76" xml:space="preserve">
<g>
	<path fill="#008798" d="M83.547,11.237v7.813h-0.641c-0.492-2.039-1.402-3.602-2.734-4.688c-1.324-1.082-2.824-1.625-4.5-1.625
		c-1.406,0-2.699,0.407-3.875,1.219c-1.168,0.805-2.024,1.856-2.563,3.156c-0.699,1.68-1.046,3.54-1.046,5.579
		c0,2.023,0.25,3.859,0.75,5.515c0.507,1.649,1.304,2.899,2.39,3.75c1.094,0.844,2.5,1.266,4.219,1.266
		c1.414,0,2.711-0.305,3.891-0.922c1.187-0.625,2.429-1.695,3.734-3.219v1.953c-1.262,1.313-2.578,2.266-3.953,2.86
		c-1.367,0.593-2.961,0.89-4.781,0.89c-2.399,0-4.528-0.48-6.391-1.437c-1.867-0.969-3.309-2.352-4.328-4.156
		c-1.012-1.801-1.516-3.723-1.516-5.766c0-2.145,0.563-4.18,1.688-6.109c1.125-1.926,2.64-3.422,4.547-4.485
		c1.906-1.062,3.929-1.594,6.078-1.594c1.582,0,3.254,0.344,5.015,1.032c1.02,0.398,1.672,0.593,1.953,0.593
		c0.352,0,0.661-0.128,0.922-0.39c0.258-0.258,0.426-0.672,0.5-1.235H83.547z M83.547,11.237"/>
	<path fill="#008798" d="M91.836,18.284c1.352,0,2.609,0.352,3.766,1.047c1.164,0.699,2.046,1.688,2.64,2.969
		c0.602,1.281,0.906,2.687,0.906,4.219c0,2.199-0.558,4.043-1.671,5.531c-1.344,1.793-3.211,2.687-5.594,2.687
		c-2.336,0-4.133-0.816-5.391-2.453c-1.262-1.644-1.89-3.547-1.89-5.703c0-2.226,0.64-4.164,1.921-5.812
		C87.813,19.112,89.586,18.284,91.836,18.284L91.836,18.284z M91.898,19.456c-0.562,0-1.046,0.215-1.453,0.641
		c-0.406,0.43-0.672,1.273-0.797,2.531c-0.125,1.25-0.187,2.996-0.187,5.234c0,1.188,0.078,2.293,0.234,3.313
		c0.125,0.793,0.383,1.391,0.782,1.797c0.394,0.406,0.847,0.609,1.359,0.609c0.5,0,0.914-0.133,1.25-0.406
		c0.426-0.375,0.711-0.898,0.859-1.578c0.219-1.051,0.328-3.176,0.328-6.375c0-1.883-0.105-3.176-0.312-3.875
		c-0.211-0.707-0.523-1.219-0.938-1.531C92.742,19.577,92.367,19.456,91.898,19.456L91.898,19.456z M91.898,19.456"/>
	<path fill="#008798" d="M106.906,11.753V31.05c0,1.094,0.125,1.793,0.375,2.094c0.258,0.304,0.758,0.48,1.5,0.531v0.594h-8.375
		v-0.594c0.688-0.02,1.192-0.223,1.516-0.609c0.226-0.25,0.344-0.922,0.344-2.016V14.972c0-1.082-0.133-1.774-0.391-2.078
		c-0.25-0.301-0.742-0.473-1.469-0.516v-0.625H106.906z M106.906,11.753"/>
	<path fill="#008798" d="M115.68,11.753V31.05c0,1.094,0.125,1.793,0.375,2.094c0.258,0.304,0.758,0.48,1.5,0.531v0.594h-8.375
		v-0.594c0.687-0.02,1.191-0.223,1.515-0.609c0.227-0.25,0.344-0.922,0.344-2.016V14.972c0-1.082-0.133-1.774-0.391-2.078
		c-0.25-0.301-0.742-0.473-1.468-0.516v-0.625H115.68z M115.68,11.753"/>
	<path fill="#008798" d="M125.699,18.284c1.352,0,2.61,0.352,3.766,1.047c1.164,0.699,2.047,1.688,2.641,2.969
		c0.602,1.281,0.906,2.687,0.906,4.219c0,2.199-0.559,4.043-1.672,5.531c-1.344,1.793-3.211,2.687-5.594,2.687
		c-2.336,0-4.133-0.816-5.391-2.453c-1.261-1.644-1.89-3.547-1.89-5.703c0-2.226,0.64-4.164,1.922-5.812
		C121.676,19.112,123.449,18.284,125.699,18.284L125.699,18.284z M125.762,19.456c-0.563,0-1.047,0.215-1.453,0.641
		c-0.407,0.43-0.672,1.273-0.797,2.531c-0.125,1.25-0.188,2.996-0.188,5.234c0,1.188,0.078,2.293,0.235,3.313
		c0.125,0.793,0.382,1.391,0.781,1.797c0.394,0.406,0.848,0.609,1.359,0.609c0.5,0,0.914-0.133,1.25-0.406
		c0.426-0.375,0.711-0.898,0.86-1.578c0.218-1.051,0.328-3.176,0.328-6.375c0-1.883-0.105-3.176-0.313-3.875
		c-0.211-0.707-0.523-1.219-0.938-1.531C126.605,19.577,126.23,19.456,125.762,19.456L125.762,19.456z M125.762,19.456"/>
	<path fill="#008798" d="M141.824,18.753v2.031c0.844-0.925,1.629-1.57,2.359-1.937c0.727-0.375,1.52-0.563,2.375-0.563
		c1,0,1.836,0.235,2.516,0.703c0.676,0.461,1.195,1.165,1.563,2.11c0.883-0.988,1.734-1.703,2.547-2.141
		c0.813-0.445,1.66-0.672,2.547-0.672c1.07,0,1.926,0.246,2.563,0.735c0.633,0.492,1.078,1.117,1.328,1.875
		c0.25,0.761,0.375,1.968,0.375,3.625v6.359c0,1.199,0.102,1.945,0.313,2.234c0.219,0.282,0.672,0.469,1.359,0.563v0.594h-8.016
		v-0.594c0.633-0.063,1.098-0.305,1.391-0.734c0.207-0.301,0.313-0.989,0.313-2.063v-6.672c0-1.383-0.059-2.265-0.172-2.64
		c-0.117-0.375-0.293-0.649-0.531-0.829c-0.23-0.187-0.508-0.281-0.828-0.281c-0.48,0-0.965,0.18-1.453,0.531
		c-0.48,0.344-0.969,0.868-1.469,1.563v8.328c0,1.125,0.094,1.828,0.281,2.109c0.25,0.407,0.734,0.637,1.453,0.688v0.594h-8.031
		v-0.594c0.438-0.02,0.773-0.129,1.016-0.328c0.25-0.195,0.414-0.43,0.5-0.703c0.082-0.27,0.125-0.86,0.125-1.766v-6.672
		c0-1.406-0.059-2.285-0.172-2.64c-0.105-0.352-0.289-0.629-0.547-0.829c-0.262-0.195-0.543-0.296-0.844-0.296
		c-0.438,0-0.84,0.117-1.203,0.343c-0.523,0.344-1.074,0.934-1.656,1.766v8.328c0,1.094,0.102,1.82,0.313,2.172
		c0.219,0.344,0.672,0.555,1.359,0.625v0.594h-8v-0.594c0.645-0.07,1.109-0.285,1.391-0.641c0.188-0.238,0.281-0.957,0.281-2.156
		v-8.766c0-1.164-0.109-1.894-0.328-2.187c-0.211-0.289-0.656-0.477-1.344-0.563v-0.609H141.824z M141.824,18.753"/>
	<path fill="#008798" d="M190.414,20.8h6.906v0.656c-0.773,0.106-1.383,0.336-1.828,0.688c-0.438,0.343-1.012,1.156-1.719,2.438
		c-0.711,1.274-1.711,2.696-3,4.266c1.133,1.012,2.055,1.719,2.766,2.125c0.488,0.273,0.973,0.406,1.453,0.406
		c0.82,0,1.566-0.535,2.234-1.609l0.672,0.359c-0.906,1.781-1.875,3.055-2.906,3.813c-0.781,0.562-1.68,0.843-2.688,0.843
		c-0.867,0-1.688-0.183-2.469-0.547c-0.781-0.375-1.73-1.07-2.844-2.093c-1.387,0.929-2.688,1.601-3.906,2.015
		s-2.484,0.625-3.797,0.625c-2.105,0-3.777-0.566-5.016-1.703c-1.242-1.144-1.859-2.488-1.859-4.031
		c0-1.656,0.594-3.098,1.781-4.328c1.188-1.227,2.906-2.289,5.156-3.188c-0.281-0.718-0.496-1.422-0.641-2.109
		c-0.148-0.688-0.219-1.348-0.219-1.984c0-1.77,0.617-3.243,1.859-4.422c1.25-1.188,2.844-1.782,4.781-1.782
		c1.563,0,2.797,0.391,3.703,1.172c0.914,0.782,1.375,1.696,1.375,2.735c0,1.25-0.469,2.324-1.406,3.218
		c-0.93,0.887-2.406,1.7-4.438,2.438c1.25,2.211,3.082,4.586,5.5,7.125c1.625-1.82,2.438-3.391,2.438-4.703
		c0-0.457-0.164-0.848-0.484-1.172c-0.324-0.332-0.793-0.531-1.406-0.594V20.8z M183.805,19.816
		c1.164-0.438,1.945-0.899,2.344-1.391c0.395-0.488,0.594-1.082,0.594-1.781c0-1.239-0.328-2.285-0.984-3.141
		c-0.43-0.562-0.961-0.844-1.594-0.844c-0.523,0-0.969,0.203-1.344,0.61c-0.367,0.406-0.547,0.961-0.547,1.656
		c0,0.543,0.086,1.125,0.266,1.75C182.715,17.292,183.137,18.339,183.805,19.816L183.805,19.816z M179.82,22.597
		c-0.887,0.375-1.512,0.777-1.875,1.203c-0.523,0.617-0.781,1.305-0.781,2.062c0,1.043,0.301,2.079,0.906,3.11
		c0.602,1.031,1.328,1.828,2.172,2.39c0.852,0.563,1.707,0.844,2.563,0.844c0.426,0,0.898-0.086,1.422-0.265
		c0.531-0.188,1.102-0.461,1.719-0.829C183.277,28.386,181.234,25.546,179.82,22.597L179.82,22.597z M179.82,22.597"/>
	<path fill="#008798" d="M83.547,38.39v7.813h-0.641c-0.492-2.039-1.402-3.602-2.734-4.688c-1.324-1.082-2.824-1.625-4.5-1.625
		c-1.406,0-2.699,0.406-3.875,1.22c-1.168,0.804-2.024,1.854-2.563,3.155c-0.699,1.679-1.046,3.539-1.046,5.578
		c0,2.023,0.25,3.859,0.75,5.516c0.507,1.648,1.304,2.898,2.39,3.75c1.094,0.844,2.5,1.266,4.219,1.266
		c1.414,0,2.711-0.306,3.891-0.922c1.187-0.625,2.429-1.695,3.734-3.219v1.953c-1.262,1.313-2.578,2.266-3.953,2.859
		c-1.367,0.594-2.961,0.891-4.781,0.891c-2.399,0-4.528-0.48-6.391-1.438c-1.867-0.969-3.309-2.352-4.328-4.156
		c-1.012-1.801-1.516-3.723-1.516-5.766c0-2.145,0.563-4.18,1.688-6.109c1.125-1.926,2.64-3.422,4.547-4.484
		c1.906-1.063,3.929-1.594,6.078-1.594c1.582,0,3.254,0.344,5.015,1.031c1.02,0.398,1.672,0.594,1.953,0.594
		c0.352,0,0.661-0.129,0.922-0.391c0.258-0.258,0.426-0.672,0.5-1.234H83.547z M83.547,38.39"/>
	<path fill="#008798" d="M93.086,59.124c-1.898,1.68-3.602,2.516-5.109,2.516c-0.887,0-1.622-0.289-2.204-0.875
		c-0.585-0.582-0.875-1.313-0.875-2.188c0-1.176,0.504-2.238,1.516-3.188c1.02-0.946,3.242-2.207,6.672-3.781v-1.563
		c0-1.164-0.07-1.898-0.203-2.203c-0.125-0.313-0.367-0.578-0.719-0.797c-0.355-0.228-0.75-0.344-1.187-0.344
		c-0.719,0-1.313,0.156-1.782,0.469c-0.293,0.199-0.437,0.434-0.437,0.703c0,0.23,0.156,0.516,0.469,0.859
		c0.414,0.48,0.625,0.938,0.625,1.375c0,0.543-0.204,1.008-0.61,1.391c-0.398,0.387-0.922,0.578-1.578,0.578
		c-0.699,0-1.281-0.207-1.75-0.625c-0.469-0.426-0.703-0.922-0.703-1.484c0-0.801,0.312-1.563,0.937-2.281
		c0.633-0.727,1.516-1.285,2.641-1.672c1.133-0.383,2.313-0.578,3.531-0.578c1.469,0,2.629,0.313,3.485,0.938
		c0.863,0.625,1.422,1.305,1.672,2.031c0.156,0.469,0.234,1.538,0.234,3.203v6.031c0,0.711,0.023,1.156,0.078,1.344
		c0.063,0.18,0.145,0.313,0.25,0.406c0.113,0.086,0.242,0.125,0.391,0.125c0.281,0,0.57-0.207,0.875-0.625l0.5,0.406
		c-0.555,0.824-1.125,1.422-1.719,1.797c-0.594,0.363-1.266,0.547-2.016,0.547c-0.886,0-1.578-0.211-2.078-0.625
		S93.188,59.968,93.086,59.124L93.086,59.124z M93.086,57.921v-5.203c-1.344,0.793-2.344,1.637-3,2.531
		c-0.43,0.594-0.641,1.199-0.641,1.813c0,0.5,0.18,0.949,0.547,1.344c0.281,0.293,0.664,0.438,1.156,0.438
		C91.699,58.843,92.344,58.538,93.086,57.921L93.086,57.921z M93.086,57.921"/>
	<path fill="#008798" d="M105.922,45.905v3.516c1.019-1.603,1.914-2.664,2.687-3.188c0.782-0.531,1.532-0.797,2.25-0.797
		c0.625,0,1.118,0.195,1.485,0.578c0.375,0.375,0.563,0.914,0.563,1.609c0,0.742-0.183,1.319-0.547,1.734
		c-0.355,0.406-0.789,0.609-1.296,0.609c-0.586,0-1.094-0.188-1.532-0.563c-0.429-0.375-0.683-0.587-0.765-0.641
		c-0.106-0.063-0.231-0.094-0.375-0.094c-0.325,0-0.633,0.121-0.922,0.359c-0.449,0.375-0.789,0.913-1.016,1.609
		c-0.355,1.074-0.531,2.262-0.531,3.563v3.563l0.016,0.938c0,0.625,0.035,1.027,0.109,1.203c0.133,0.305,0.332,0.527,0.594,0.672
		c0.257,0.137,0.695,0.219,1.312,0.25v0.594h-8.375v-0.594c0.676-0.063,1.129-0.25,1.36-0.563c0.238-0.313,0.359-1.145,0.359-2.5
		v-8.578c0-0.883-0.043-1.445-0.125-1.688c-0.117-0.313-0.277-0.539-0.484-0.688c-0.211-0.145-0.579-0.243-1.11-0.297v-0.609
		H105.922z M105.922,45.905"/>
	<path fill="#008798" d="M119.039,45.905v2c0.801-0.863,1.566-1.488,2.297-1.875c0.727-0.395,1.516-0.594,2.359-0.594
		c1,0,1.832,0.281,2.5,0.844c0.664,0.555,1.11,1.246,1.328,2.078c0.176,0.625,0.266,1.835,0.266,3.625v6.047
		c0,1.199,0.109,1.945,0.328,2.234c0.219,0.293,0.664,0.48,1.344,0.563v0.594h-7.844v-0.594c0.582-0.082,1.004-0.328,1.266-0.734
		c0.176-0.281,0.265-0.969,0.265-2.063v-6.906c0-1.27-0.054-2.07-0.156-2.406c-0.094-0.332-0.262-0.586-0.5-0.766
		c-0.242-0.188-0.508-0.281-0.797-0.281c-0.949,0-1.836,0.684-2.656,2.047v8.313c0,1.168,0.109,1.906,0.328,2.219
		c0.219,0.305,0.617,0.496,1.203,0.578v0.594h-7.859v-0.594c0.656-0.07,1.125-0.285,1.406-0.641
		c0.188-0.238,0.281-0.957,0.281-2.156v-8.766c0-1.164-0.109-1.895-0.328-2.188c-0.218-0.289-0.672-0.477-1.359-0.563v-0.609
		H119.039z M119.039,45.905"/>
	<path fill="#008798" d="M144.754,53.108h-8.516c0.094,2.055,0.641,3.68,1.641,4.875c0.758,0.918,1.676,1.375,2.75,1.375
		c0.664,0,1.27-0.18,1.813-0.547c0.539-0.375,1.125-1.039,1.75-2l0.563,0.359c-0.844,1.719-1.777,2.938-2.797,3.656
		c-1.012,0.707-2.188,1.063-3.531,1.063c-2.305,0-4.047-0.883-5.234-2.656c-0.949-1.426-1.422-3.195-1.422-5.313
		c0-2.594,0.695-4.656,2.094-6.188c1.406-1.531,3.047-2.297,4.922-2.297c1.57,0,2.938,0.648,4.094,1.938
		C144.035,48.655,144.66,50.568,144.754,53.108L144.754,53.108z M140.66,51.983c0-1.781-0.102-3-0.297-3.656
		c-0.188-0.664-0.484-1.172-0.891-1.516c-0.23-0.195-0.543-0.297-0.938-0.297c-0.574,0-1.043,0.281-1.406,0.844
		c-0.656,0.992-0.984,2.34-0.984,4.047v0.578H140.66z M140.66,51.983"/>
	<path fill="#008798" d="M153.82,62.046l-5.016-11.5c-0.75-1.738-1.309-2.805-1.672-3.203c-0.355-0.395-0.789-0.672-1.297-0.828
		v-0.609h8.25v0.609c-0.543,0.023-0.922,0.125-1.141,0.313s-0.328,0.418-0.328,0.688c0,0.418,0.273,1.246,0.828,2.484l2.656,6.078
		l1.813-4.703c0.645-1.664,0.969-2.828,0.969-3.484c0-0.406-0.137-0.727-0.406-0.969c-0.273-0.25-0.75-0.383-1.438-0.406v-0.609
		h5.203v0.609c-0.512,0.054-0.93,0.25-1.25,0.594c-0.324,0.335-0.859,1.48-1.609,3.438l-4.438,11.5
		c-1.117,2.883-1.945,4.656-2.484,5.313c-0.762,0.938-1.719,1.406-2.875,1.406c-0.918,0-1.664-0.266-2.234-0.797
		c-0.563-0.524-0.844-1.152-0.844-1.891c0-0.648,0.191-1.184,0.578-1.609c0.395-0.418,0.879-0.625,1.453-0.625
		c0.551,0,0.992,0.176,1.328,0.531c0.344,0.352,0.52,0.898,0.531,1.641c0.008,0.426,0.063,0.695,0.156,0.813
		c0.082,0.125,0.207,0.188,0.375,0.188c0.27,0,0.551-0.164,0.844-0.484c0.445-0.462,0.969-1.523,1.563-3.188L153.82,62.046z
		 M153.82,62.046"/>
	<path fill="#008798" d="M193.742,38.39v7.813h-0.641c-0.492-2.039-1.402-3.602-2.734-4.688c-1.324-1.082-2.824-1.625-4.5-1.625
		c-1.406,0-2.699,0.406-3.875,1.22c-1.168,0.804-2.023,1.854-2.563,3.155c-0.699,1.679-1.047,3.539-1.047,5.578
		c0,2.023,0.25,3.859,0.75,5.516c0.508,1.648,1.305,2.898,2.391,3.75c1.094,0.844,2.5,1.266,4.219,1.266
		c1.414,0,2.711-0.306,3.891-0.922c1.188-0.625,2.43-1.695,3.734-3.219v1.953c-1.262,1.313-2.578,2.266-3.953,2.859
		c-1.367,0.594-2.961,0.891-4.781,0.891c-2.398,0-4.527-0.48-6.391-1.438c-1.867-0.969-3.309-2.352-4.328-4.156
		c-1.012-1.801-1.516-3.723-1.516-5.766c0-2.145,0.563-4.18,1.688-6.109c1.125-1.926,2.641-3.422,4.547-4.484
		c1.906-1.063,3.93-1.594,6.078-1.594c1.582,0,3.254,0.344,5.016,1.031c1.02,0.398,1.672,0.594,1.953,0.594
		c0.352,0,0.66-0.129,0.922-0.391c0.258-0.258,0.426-0.672,0.5-1.234H193.742z M193.742,38.39"/>
	<path fill="#008798" d="M70.652,75.042h-1.031l-0.703-2.031h-3.141l-0.718,2.031h-0.985l2.656-7.266h1.282L70.652,75.042z
		 M68.621,72.183L67.34,68.62l-1.281,3.563H68.621z M68.621,72.183"/>
	<path fill="#008798" d="M88.695,72.964c0,0.281-0.07,0.563-0.203,0.844c-0.137,0.273-0.32,0.508-0.547,0.703
		c-0.261,0.211-0.57,0.371-0.922,0.484c-0.343,0.113-0.761,0.172-1.25,0.172c-0.523,0-0.996-0.047-1.421-0.141
		c-0.418-0.094-0.84-0.238-1.266-0.438v-1.203h0.062c0.375,0.305,0.801,0.539,1.282,0.703c0.476,0.168,0.929,0.25,1.359,0.25
		c0.594,0,1.055-0.109,1.391-0.328c0.332-0.227,0.5-0.531,0.5-0.906c0-0.32-0.078-0.555-0.235-0.703
		c-0.156-0.156-0.398-0.281-0.718-0.375c-0.243-0.063-0.508-0.113-0.797-0.156c-0.282-0.039-0.586-0.094-0.907-0.156
		c-0.648-0.133-1.125-0.367-1.437-0.703c-0.305-0.332-0.453-0.766-0.453-1.297c0-0.603,0.254-1.098,0.765-1.484
		c0.508-0.395,1.161-0.594,1.954-0.594c0.507,0,0.976,0.055,1.406,0.156c0.426,0.094,0.805,0.215,1.14,0.359v1.141h-0.062
		c-0.281-0.238-0.652-0.431-1.109-0.578c-0.45-0.156-0.907-0.234-1.375-0.234c-0.524,0-0.938,0.109-1.25,0.328
		c-0.313,0.211-0.469,0.48-0.469,0.813c0,0.305,0.078,0.543,0.234,0.719c0.156,0.18,0.43,0.309,0.828,0.391
		c0.207,0.055,0.504,0.109,0.891,0.172c0.383,0.063,0.707,0.133,0.969,0.203c0.539,0.148,0.945,0.367,1.218,0.656
		C88.555,72.042,88.695,72.443,88.695,72.964L88.695,72.964z M88.695,72.964"/>
	<path fill="#008798" d="M107.176,72.964c0,0.281-0.071,0.563-0.203,0.844c-0.137,0.273-0.321,0.508-0.547,0.703
		c-0.262,0.211-0.571,0.371-0.922,0.484c-0.344,0.113-0.762,0.172-1.25,0.172c-0.524,0-0.996-0.047-1.422-0.141
		c-0.418-0.094-0.84-0.238-1.266-0.438v-1.203h0.063c0.375,0.305,0.801,0.539,1.281,0.703c0.477,0.168,0.93,0.25,1.36,0.25
		c0.593,0,1.054-0.109,1.39-0.328c0.332-0.227,0.5-0.531,0.5-0.906c0-0.32-0.078-0.555-0.234-0.703
		c-0.156-0.156-0.399-0.281-0.719-0.375c-0.242-0.063-0.508-0.113-0.797-0.156c-0.281-0.039-0.586-0.094-0.906-0.156
		c-0.649-0.133-1.125-0.367-1.438-0.703c-0.304-0.332-0.453-0.766-0.453-1.297c0-0.603,0.254-1.098,0.766-1.484
		c0.508-0.395,1.16-0.594,1.953-0.594c0.508,0,0.977,0.055,1.406,0.156c0.426,0.094,0.805,0.215,1.141,0.359v1.141h-0.063
		c-0.281-0.238-0.652-0.431-1.109-0.578c-0.449-0.156-0.906-0.234-1.375-0.234c-0.523,0-0.937,0.109-1.25,0.328
		c-0.312,0.211-0.469,0.48-0.469,0.813c0,0.305,0.078,0.543,0.235,0.719c0.156,0.18,0.429,0.309,0.828,0.391
		c0.207,0.055,0.504,0.109,0.89,0.172c0.383,0.063,0.707,0.133,0.969,0.203c0.539,0.148,0.945,0.367,1.219,0.656
		C107.035,72.042,107.176,72.443,107.176,72.964L107.176,72.964z M107.176,72.964"/>
	<path fill="#008798" d="M125.777,68.604c0.301,0.324,0.532,0.727,0.688,1.203c0.156,0.469,0.234,1,0.234,1.594
		c0,0.605-0.086,1.148-0.25,1.625c-0.156,0.469-0.383,0.859-0.672,1.172c-0.293,0.336-0.648,0.586-1.062,0.75
		c-0.406,0.163-0.871,0.25-1.391,0.25c-0.511,0-0.976-0.087-1.39-0.25c-0.418-0.176-0.778-0.426-1.079-0.75
		c-0.292-0.32-0.515-0.719-0.671-1.188c-0.157-0.469-0.235-1.004-0.235-1.609c0-0.583,0.078-1.109,0.235-1.578
		c0.156-0.477,0.382-0.883,0.687-1.219c0.281-0.32,0.633-0.566,1.063-0.734c0.425-0.164,0.89-0.25,1.39-0.25
		c0.52,0,0.989,0.09,1.406,0.266C125.145,68.054,125.496,68.292,125.777,68.604L125.777,68.604z M125.699,71.401
		c0-0.938-0.215-1.66-0.64-2.172c-0.418-0.52-0.996-0.781-1.735-0.781c-0.742,0-1.324,0.262-1.75,0.781
		c-0.418,0.512-0.625,1.234-0.625,2.172c0,0.96,0.211,1.695,0.641,2.203c0.437,0.5,1.015,0.75,1.734,0.75
		c0.727,0,1.305-0.25,1.735-0.75C125.484,73.097,125.699,72.361,125.699,71.401L125.699,71.401z M125.699,71.401"/>
	<path fill="#008798" d="M145.582,74.511c-0.18,0.086-0.34,0.164-0.484,0.234c-0.148,0.063-0.34,0.133-0.578,0.203
		c-0.199,0.063-0.414,0.113-0.641,0.156c-0.23,0.039-0.484,0.063-0.766,0.063c-0.531,0-1.016-0.074-1.453-0.219
		c-0.43-0.145-0.797-0.375-1.109-0.688s-0.559-0.707-0.734-1.188c-0.18-0.477-0.266-1.031-0.266-1.656
		c0-0.602,0.082-1.141,0.25-1.609c0.164-0.469,0.41-0.867,0.734-1.203c0.313-0.313,0.688-0.551,1.125-0.719
		c0.438-0.164,0.922-0.25,1.453-0.25c0.395,0,0.785,0.047,1.172,0.141c0.383,0.094,0.816,0.262,1.297,0.5v1.156h-0.078
		c-0.398-0.344-0.793-0.586-1.188-0.734c-0.398-0.156-0.82-0.234-1.266-0.234c-0.367,0-0.699,0.063-1,0.188
		c-0.293,0.117-0.555,0.297-0.781,0.547c-0.23,0.242-0.406,0.547-0.531,0.922s-0.188,0.809-0.188,1.297
		c0,0.512,0.066,0.949,0.203,1.313c0.145,0.367,0.328,0.668,0.547,0.906c0.227,0.242,0.492,0.418,0.797,0.531
		c0.301,0.117,0.625,0.172,0.969,0.172c0.457,0,0.891-0.078,1.297-0.234c0.406-0.164,0.789-0.406,1.156-0.719h0.063V74.511z
		 M145.582,74.511"/>
	<path fill="#008798" d="M161.754,75.042h-2.875v-0.75h0.953v-5.781h-0.953v-0.734h2.875v0.734h-0.953v5.781h0.953V75.042z
		 M161.754,75.042"/>
	<path fill="#008798" d="M179.5,75.042h-1.031l-0.703-2.031h-3.141l-0.719,2.031h-0.984l2.656-7.266h1.281L179.5,75.042z
		 M177.469,72.183l-1.281-3.563l-1.281,3.563H177.469z M177.469,72.183"/>
	<path fill="#008798" d="M196.516,68.636h-2.594v6.406h-0.969v-6.406h-2.594v-0.859h6.156V68.636z M196.516,68.636"/>
	<path fill="#008798" d="M211.645,75.042h-2.875v-0.75h0.953v-5.781h-0.953v-0.734h2.875v0.734h-0.953v5.781h0.953V75.042z
		 M211.645,75.042"/>
	<path fill="#008798" d="M229.082,68.604c0.301,0.324,0.531,0.727,0.688,1.203c0.156,0.469,0.234,1,0.234,1.594
		c0,0.605-0.086,1.148-0.25,1.625c-0.156,0.469-0.383,0.859-0.672,1.172c-0.293,0.336-0.648,0.586-1.063,0.75
		c-0.406,0.163-0.871,0.25-1.391,0.25c-0.512,0-0.977-0.087-1.391-0.25c-0.418-0.176-0.777-0.426-1.078-0.75
		c-0.293-0.32-0.516-0.719-0.672-1.188s-0.234-1.004-0.234-1.609c0-0.583,0.078-1.109,0.234-1.578
		c0.156-0.477,0.383-0.883,0.688-1.219c0.281-0.32,0.633-0.566,1.063-0.734c0.426-0.164,0.891-0.25,1.391-0.25
		c0.52,0,0.988,0.09,1.406,0.266C228.449,68.054,228.801,68.292,229.082,68.604L229.082,68.604z M229.004,71.401
		c0-0.938-0.215-1.66-0.641-2.172c-0.418-0.52-0.996-0.781-1.734-0.781c-0.742,0-1.324,0.262-1.75,0.781
		c-0.418,0.512-0.625,1.234-0.625,2.172c0,0.96,0.211,1.695,0.641,2.203c0.438,0.5,1.016,0.75,1.734,0.75
		c0.727,0,1.305-0.25,1.734-0.75C228.789,73.097,229.004,72.361,229.004,71.401L229.004,71.401z M229.004,71.401"/>
	<path fill="#008798" d="M248.82,75.042h-1.203l-3.453-6.5v6.5h-0.891v-7.266h1.484l3.156,5.938v-5.938h0.906V75.042z
		 M248.82,75.042"/>
	<path fill="#008798" d="M13.672,39.015c0-15.086,10.57-27.684,24.699-30.848c2.234-0.5,4.547-0.785,6.934-0.785
		c6.3,0,12.16,1.852,17.086,5.027c1.3-1.261,2.55-2.543,3.769-3.84c-6.914-5.242-15.512-8.371-24.859-8.371
		c-1.899,0-3.758,0.176-5.59,0.422C15.551,3.355,0,20.589,0,41.499C0,64.308,18.492,82.8,41.301,82.8
		c5.461,0,10.664-1.086,15.437-3.012c2.36-2.5,4.926-9.688,6.903-15.031c-5.176,3.695-11.493,5.887-18.336,5.887
		C27.836,70.644,13.672,56.483,13.672,39.015"/>
	<path fill="#008798" d="M25.492,36.886c-0.476-10.602,6.399-19.781,16.02-22.438c1.519-0.421,3.101-0.691,4.746-0.765
		c4.332-0.196,8.418,0.926,11.91,3.004c0.855-0.926,1.676-1.864,2.473-2.813c-4.922-3.469-10.938-5.406-17.368-5.117
		c-1.304,0.059-2.578,0.238-3.832,0.469C25.66,11.769,15.504,24.359,16.164,39.058c0.719,16.027,14.02,28.453,29.711,27.75
		c3.758-0.168,7.305-1.09,10.527-2.594c1.075-1.379,3.082-6.961,4.274-10.773c-3.446,2.753-7.719,4.492-12.426,4.703
		C36.23,58.683,26.043,49.167,25.492,36.886"/>
	<path fill="#008798" d="M33.773,35.101c-0.652-7.117,3.762-13.508,10.25-15.61c1.028-0.332,2.102-0.562,3.219-0.668
		c2.957-0.265,5.781,0.356,8.231,1.641c0.554-0.652,1.086-1.309,1.601-1.973c-3.469-2.175-7.633-3.285-12.019-2.886
		c-0.891,0.086-1.754,0.246-2.602,0.437c-9.336,2.156-15.887,10.953-14.984,20.817c0.98,10.761,10.449,18.687,21.144,17.714
		c2.563-0.234,4.957-0.973,7.114-2.087c1.066-1.616,1.89-4.776,2.589-7.386c-2.273,1.965-5.136,3.273-8.347,3.566
		C41.777,49.413,34.527,43.339,33.773,35.101"/>
	<path fill="#008798" d="M200.398,39.042v19.297c0,1.094,0.125,1.793,0.375,2.094c0.258,0.304,0.758,0.48,1.5,0.531v0.594h-8.375
		v-0.594c0.688-0.021,1.191-0.223,1.516-0.609c0.227-0.25,0.344-0.922,0.344-2.016V42.261c0-1.082-0.133-1.774-0.391-2.078
		c-0.25-0.301-0.742-0.473-1.469-0.516v-0.625H200.398z M200.398,39.042"/>
	<path fill="#008798" d="M207.508,38.511c0.719,0,1.328,0.258,1.828,0.766c0.5,0.5,0.75,1.105,0.75,1.812
		c0,0.711-0.258,1.313-0.766,1.813c-0.5,0.5-1.105,0.75-1.813,0.75c-0.711,0-1.313-0.25-1.813-0.75
		c-0.492-0.5-0.734-1.102-0.734-1.813c0-0.707,0.242-1.312,0.734-1.812C206.195,38.769,206.797,38.511,207.508,38.511
		L207.508,38.511z M209.836,46.042v12.297c0,1.094,0.125,1.793,0.375,2.094c0.258,0.304,0.758,0.48,1.5,0.531v0.594h-8.375v-0.594
		c0.688-0.021,1.191-0.223,1.516-0.609c0.227-0.25,0.344-0.922,0.344-2.016v-9.063c0-1.094-0.133-1.79-0.391-2.094
		c-0.25-0.313-0.742-0.489-1.469-0.531v-0.609H209.836z M209.836,46.042"/>
	<path fill="#008798" d="M218.891,46.042v2c0.801-0.863,1.566-1.488,2.297-1.875c0.727-0.395,1.516-0.594,2.359-0.594
		c1,0,1.832,0.281,2.5,0.844c0.664,0.555,1.109,1.246,1.328,2.078c0.176,0.625,0.266,1.836,0.266,3.625v6.047
		c0,1.199,0.109,1.944,0.328,2.234c0.219,0.292,0.664,0.48,1.344,0.563v0.594h-7.844v-0.594c0.582-0.082,1.004-0.328,1.266-0.734
		c0.176-0.281,0.266-0.969,0.266-2.063v-6.906c0-1.27-0.055-2.07-0.156-2.406c-0.094-0.332-0.262-0.586-0.5-0.766
		c-0.242-0.188-0.508-0.281-0.797-0.281c-0.949,0-1.836,0.684-2.656,2.047v8.313c0,1.168,0.109,1.906,0.328,2.219
		c0.219,0.305,0.617,0.496,1.203,0.578v0.594h-7.859v-0.594c0.656-0.07,1.125-0.285,1.406-0.641
		c0.188-0.238,0.281-0.957,0.281-2.156v-8.766c0-1.165-0.109-1.895-0.328-2.188c-0.219-0.289-0.672-0.478-1.359-0.563v-0.609
		H218.891z M218.891,46.042"/>
	<path fill="#008798" d="M235.184,38.511c0.719,0,1.328,0.258,1.828,0.766c0.5,0.5,0.75,1.105,0.75,1.812
		c0,0.711-0.258,1.313-0.766,1.813c-0.5,0.5-1.105,0.75-1.813,0.75c-0.711,0-1.313-0.25-1.813-0.75
		c-0.492-0.5-0.734-1.102-0.734-1.813c0-0.707,0.242-1.312,0.734-1.812C233.871,38.769,234.473,38.511,235.184,38.511
		L235.184,38.511z M237.512,46.042v12.297c0,1.094,0.125,1.793,0.375,2.094c0.258,0.304,0.758,0.48,1.5,0.531v0.594h-8.375v-0.594
		c0.688-0.021,1.191-0.223,1.516-0.609c0.227-0.25,0.344-0.922,0.344-2.016v-9.063c0-1.094-0.133-1.79-0.391-2.094
		c-0.25-0.313-0.742-0.489-1.469-0.531v-0.609H237.512z M237.512,46.042"/>
	<path fill="#008798" d="M253.574,57.558l0.516,0.391c-0.73,1.375-1.641,2.402-2.734,3.078c-1.086,0.664-2.242,1-3.469,1
		c-2.074,0-3.73-0.781-4.969-2.344c-1.242-1.563-1.859-3.438-1.859-5.625c0-2.114,0.563-3.973,1.688-5.578
		c1.363-1.938,3.238-2.906,5.625-2.906c1.613,0,2.891,0.406,3.828,1.219c0.945,0.805,1.422,1.703,1.422,2.703
		c0,0.625-0.195,1.125-0.578,1.5c-0.375,0.375-0.875,0.563-1.5,0.563c-0.648,0-1.184-0.211-1.609-0.641
		c-0.43-0.438-0.695-1.207-0.797-2.313c-0.063-0.695-0.219-1.18-0.469-1.453c-0.262-0.281-0.563-0.422-0.906-0.422
		c-0.531,0-0.984,0.281-1.359,0.844c-0.574,0.855-0.859,2.163-0.859,3.922c0,1.461,0.227,2.855,0.688,4.188
		c0.469,1.336,1.109,2.328,1.922,2.984c0.602,0.48,1.32,0.719,2.156,0.719c0.539,0,1.051-0.125,1.531-0.375
		C252.328,58.753,252.906,58.269,253.574,57.558L253.574,57.558z M253.574,57.558"/>
	<g>
		<defs>
			<rect id="SVGID_1_" width="260.88" height="83.76"/>
		</defs>
		<clipPath id="SVGID_2_">
			<use xlink:href="#SVGID_1_"  overflow="visible"/>
		</clipPath>
		<path clip-path="url(#SVGID_2_)" fill="none" stroke="#008798" stroke-width="0.3425" d="M260.387,43.358
			c0,1.617-1.313,2.934-2.934,2.934s-2.934-1.316-2.934-2.934c0-1.622,1.313-2.934,2.934-2.934S260.387,41.736,260.387,43.358
			L260.387,43.358z M260.387,43.358"/>
	</g>
	<path fill="#008798" d="M259.582,45.421h-0.766l-1.453-1.734h-0.813v1.734h-0.578v-4.358h1.219c0.258,0,0.477,0.014,0.656,0.047
		c0.176,0.03,0.332,0.092,0.469,0.187c0.156,0.094,0.281,0.219,0.375,0.375c0.094,0.147,0.141,0.34,0.141,0.578
		c0,0.313-0.086,0.578-0.25,0.797c-0.156,0.211-0.371,0.367-0.641,0.469L259.582,45.421z M258.223,42.28
		c0-0.125-0.027-0.234-0.078-0.328c-0.043-0.094-0.109-0.175-0.203-0.251c-0.094-0.049-0.199-0.086-0.313-0.108
		c-0.117-0.021-0.25-0.03-0.406-0.03h-0.672v1.64h0.578c0.188,0,0.348-0.016,0.484-0.047c0.133-0.031,0.25-0.094,0.344-0.188
		c0.094-0.07,0.16-0.16,0.203-0.266C258.199,42.589,258.223,42.448,258.223,42.28L258.223,42.28z M258.223,42.28"/>
</g>
</svg>
