<?xml version="1.0" encoding="UTF-8"?><svg id="Layer_1" xmlns="http://www.w3.org/2000/svg" viewBox="0 0 552.39 228.45"><defs><style>.cls-1{fill:#414f90;}.cls-2,.cls-3{fill:#8870b2;}.cls-3,.cls-4,.cls-5{fill-rule:evenodd;}.cls-4{fill:#327864;}.cls-5{fill:#fff;}</style></defs><g><path class="cls-2" d="M114.27,218.57h-3.6l14.35-22.14h2.78l4.5,22.14h-3.22l-1.06-5.44h-10.38l-3.38,5.44Zm4.97-8.13h8.35l-1.88-10.51-6.47,10.51Z"/><path class="cls-2" d="M147.32,206.12c.54-.79,1.29-1.45,2.25-1.97,.96-.52,2.01-.78,3.16-.78,.98,0,1.87,.16,2.66,.47s1.47,.75,2.03,1.31c.56,.56,1,1.24,1.31,2.02,.31,.78,.47,1.65,.47,2.61,0,1.27-.21,2.46-.64,3.58-.43,1.12-1.02,2.09-1.77,2.92-.75,.83-1.64,1.49-2.67,1.97-1.03,.48-2.15,.72-3.36,.72s-2.26-.25-3.14-.75c-.89-.5-1.56-1.19-2.02-2.06h-.06l-1.72,9.91h-2.91l3.94-22.33h2.81l-.41,2.38h.06Zm8.88,3.94c0-1.21-.36-2.22-1.06-3.05-.71-.82-1.73-1.24-3.06-1.24-.81,0-1.58,.17-2.3,.52-.72,.34-1.34,.81-1.88,1.41-.53,.59-.95,1.29-1.25,2.08-.3,.79-.45,1.62-.45,2.5,0,.63,.1,1.2,.3,1.74,.2,.53,.48,.98,.86,1.36,.37,.38,.83,.67,1.36,.89,.53,.22,1.12,.33,1.77,.33,.85,0,1.64-.17,2.35-.52,.71-.34,1.31-.81,1.81-1.39,.5-.58,.89-1.27,1.16-2.06,.27-.79,.41-1.65,.41-2.56Z"/><path class="cls-2" d="M172.67,209.31c.04-.29,.07-.52,.09-.69,.02-.17,.03-.32,.03-.47,0-.88-.27-1.51-.81-1.89-.54-.39-1.31-.58-2.31-.58-.79,0-1.58,.16-2.38,.47-.79,.31-1.48,.7-2.06,1.16l-1.19-1.94c.79-.63,1.72-1.12,2.78-1.49,1.06-.36,2.15-.55,3.25-.55,.71,0,1.39,.08,2.05,.23,.66,.16,1.24,.41,1.75,.75,.51,.34,.92,.8,1.23,1.36,.31,.56,.47,1.24,.47,2.03,0,.19-.01,.43-.03,.73-.02,.3-.05,.56-.09,.77l-1.09,6c-.11,.58-.19,1.18-.25,1.8s-.09,1.13-.09,1.55h-2.66c0-.31,.02-.65,.05-1,.03-.35,.08-.71,.14-1.06h-.06c-.71,.83-1.48,1.44-2.31,1.81s-1.81,.56-2.94,.56c-.5,0-1.02-.06-1.56-.19-.54-.12-1.04-.34-1.49-.64-.45-.3-.82-.7-1.11-1.2-.29-.5-.44-1.13-.44-1.88,0-1.21,.33-2.18,1-2.92,.67-.74,1.53-1.31,2.58-1.72,1.05-.41,2.24-.68,3.55-.81,1.31-.14,2.62-.2,3.91-.2Zm-.78,2.13c-.81,0-1.66,.04-2.53,.11-.88,.07-1.67,.22-2.39,.44-.72,.22-1.31,.54-1.77,.95-.46,.42-.69,.96-.69,1.62,0,.42,.08,.76,.23,1.02,.16,.26,.37,.47,.62,.64,.26,.17,.55,.28,.88,.34,.32,.06,.65,.09,.99,.09,.65,0,1.25-.11,1.81-.33,.56-.22,1.05-.52,1.47-.89,.42-.38,.77-.81,1.05-1.31,.28-.5,.47-1.03,.58-1.59l.22-1.09h-.47Z"/><path class="cls-2" d="M180.7,205.44c.09-.63,.16-1.19,.2-1.69h2.75c-.02,.15-.04,.33-.06,.55-.02,.22-.05,.45-.08,.69-.03,.24-.06,.47-.09,.69-.03,.22-.06,.41-.08,.58h.06c.52-.88,1.17-1.58,1.96-2.11,.78-.53,1.67-.8,2.67-.8,.46,0,.84,.04,1.16,.12l-.5,2.72c-.42-.1-.84-.16-1.28-.16-.71,0-1.33,.13-1.88,.39-.54,.26-1.01,.61-1.41,1.05-.4,.44-.71,.94-.95,1.52-.24,.57-.41,1.17-.52,1.8l-1.38,7.79h-2.88l2.03-11.6c.08-.4,.17-.91,.27-1.53Z"/><path class="cls-2" d="M200.66,206.12h-3.66l-1.41,7.79c-.06,.35-.09,.67-.09,.94,0,.62,.16,1.05,.49,1.27,.32,.22,.75,.33,1.3,.33,.29,0,.58-.03,.87-.09,.29-.06,.53-.15,.72-.25l-.22,2.31c-.29,.12-.65,.22-1.08,.3-.43,.07-.85,.11-1.27,.11-1.15,0-2.06-.25-2.74-.77-.68-.51-1.02-1.32-1.02-2.42,0-.23,.01-.47,.03-.72s.05-.5,.09-.75l1.44-8.04h-2.81l.44-2.38h2.78l.72-4.25h2.88l-.75,4.25h3.72l-.44,2.38Z"/><path class="cls-2" d="M207.32,203.75c-.04,.29-.09,.68-.14,1.17-.05,.49-.11,.9-.17,1.24h.06c.54-.86,1.24-1.54,2.08-2.05,.84-.51,1.8-.77,2.86-.77,1.62,0,2.86,.43,3.71,1.3,.84,.87,1.27,1.96,1.27,3.27,0,.52-.04,1.02-.12,1.5l-1.62,9.16h-2.91l1.44-8.19c.12-.56,.19-1.12,.19-1.66,0-.85-.21-1.55-.63-2.09s-1.17-.81-2.25-.81c-1.17,0-2.18,.44-3.03,1.33-.86,.89-1.42,2.07-1.69,3.55l-1.37,7.88h-2.91l2.03-11.6c.08-.4,.17-.91,.27-1.53,.09-.63,.16-1.19,.2-1.69h2.75Z"/><path class="cls-2" d="M222.89,212.03c-.02,.1-.03,.19-.03,.27v.23c0,.58,.11,1.12,.33,1.61,.22,.49,.52,.92,.91,1.28,.39,.37,.84,.65,1.38,.84,.53,.2,1.1,.3,1.7,.3,1.06,0,1.97-.21,2.74-.64,.76-.43,1.4-.96,1.92-1.61l1.72,1.63c-.88,1-1.88,1.76-3,2.27-1.12,.51-2.35,.77-3.66,.77-.98,0-1.89-.15-2.74-.44-.84-.29-1.57-.72-2.19-1.28-.61-.56-1.09-1.25-1.44-2.06-.34-.81-.52-1.74-.52-2.78,0-1.23,.22-2.4,.66-3.5s1.04-2.07,1.81-2.89c.77-.82,1.69-1.47,2.75-1.95,1.06-.48,2.21-.72,3.44-.72,1.9,0,3.4,.52,4.5,1.55,1.1,1.03,1.66,2.48,1.66,4.33,0,.29-.03,.71-.08,1.27-.05,.55-.13,1.07-.23,1.55h-11.63Zm9.16-2.13c.02-.15,.04-.3,.05-.47,.01-.17,.02-.32,.02-.47,0-.96-.31-1.76-.94-2.39-.62-.64-1.53-.95-2.72-.95-.71,0-1.36,.12-1.94,.38-.58,.25-1.1,.57-1.55,.97-.45,.4-.82,.86-1.13,1.38-.3,.52-.52,1.04-.64,1.56h8.85Z"/><path class="cls-2" d="M239.88,205.44c.09-.63,.16-1.19,.2-1.69h2.75c-.02,.15-.04,.33-.06,.55-.02,.22-.05,.45-.08,.69-.03,.24-.06,.47-.09,.69-.03,.22-.06,.41-.08,.58h.06c.52-.88,1.17-1.58,1.96-2.11,.78-.53,1.67-.8,2.67-.8,.46,0,.84,.04,1.16,.12l-.5,2.72c-.42-.1-.84-.16-1.28-.16-.71,0-1.33,.13-1.87,.39-.54,.26-1.01,.61-1.41,1.05-.4,.44-.71,.94-.95,1.52-.24,.57-.41,1.17-.52,1.8l-1.38,7.79h-2.88l2.03-11.6c.08-.4,.17-.91,.27-1.53Z"/><path class="cls-2" d="M263.25,218.97c-1.02,0-1.96-.16-2.81-.47-.85-.31-1.59-.75-2.22-1.33-.62-.57-1.12-1.26-1.47-2.05-.35-.79-.53-1.67-.53-2.63,0-1.23,.21-2.4,.64-3.5,.43-1.1,1.03-2.08,1.81-2.92,.78-.84,1.72-1.51,2.81-2,1.09-.49,2.31-.73,3.64-.73,1.02,0,1.96,.16,2.81,.47,.86,.31,1.6,.75,2.22,1.31,.62,.56,1.11,1.24,1.45,2.02,.34,.78,.52,1.65,.52,2.61,0,1.25-.21,2.43-.64,3.55-.43,1.12-1.03,2.09-1.81,2.94-.78,.84-1.71,1.51-2.8,2-1.08,.49-2.29,.73-3.63,.73Zm5.94-8.94c0-.6-.1-1.17-.3-1.69-.2-.52-.48-.97-.84-1.36-.37-.39-.81-.69-1.34-.91-.53-.22-1.12-.33-1.77-.33-.85,0-1.64,.18-2.34,.53-.71,.35-1.32,.83-1.83,1.42-.51,.59-.91,1.28-1.19,2.06-.28,.78-.42,1.61-.42,2.49,0,1.25,.37,2.28,1.12,3.08,.75,.8,1.79,1.21,3.13,1.21,.85,0,1.64-.17,2.35-.52,.71-.34,1.32-.81,1.83-1.41,.51-.59,.91-1.29,1.19-2.08,.28-.79,.42-1.63,.42-2.5Z"/><path class="cls-2" d="M284.02,206.09h-3.47l-2.19,12.47h-2.84l2.19-12.47h-2.97l.44-2.35h2.91l.56-3.13c.15-.77,.36-1.52,.64-2.25,.28-.73,.67-1.38,1.16-1.94,.49-.56,1.09-1.02,1.8-1.36,.71-.34,1.55-.52,2.53-.52,.69,0,1.28,.07,1.78,.22l-.62,2.5c-.21-.06-.42-.11-.64-.16-.22-.04-.46-.06-.73-.06-.5,0-.93,.1-1.28,.3-.35,.2-.65,.46-.89,.8-.24,.33-.43,.72-.56,1.16-.14,.44-.25,.89-.33,1.34l-.56,3.1h3.53l-.44,2.35Z"/><path class="cls-2" d="M299.84,214.6h.09l10.72-18.17h3.35l-13.48,22.14h-2.91l-3.53-22.14h3.25l2.5,18.17Z"/><path class="cls-2" d="M321.97,209.31c.04-.29,.07-.52,.09-.69,.02-.17,.03-.32,.03-.47,0-.88-.27-1.51-.81-1.89-.54-.39-1.31-.58-2.31-.58-.79,0-1.58,.16-2.38,.47-.79,.31-1.48,.7-2.06,1.16l-1.19-1.94c.79-.63,1.72-1.12,2.78-1.49,1.06-.36,2.15-.55,3.25-.55,.71,0,1.39,.08,2.05,.23,.66,.16,1.24,.41,1.75,.75,.51,.34,.92,.8,1.24,1.36,.31,.56,.47,1.24,.47,2.03,0,.19-.01,.43-.03,.73-.02,.3-.05,.56-.09,.77l-1.09,6c-.11,.58-.19,1.18-.25,1.8s-.09,1.13-.09,1.55h-2.66c0-.31,.02-.65,.05-1,.03-.35,.08-.71,.14-1.06h-.06c-.71,.83-1.48,1.44-2.31,1.81-.83,.38-1.81,.56-2.94,.56-.5,0-1.02-.06-1.56-.19s-1.04-.34-1.49-.64c-.45-.3-.82-.7-1.11-1.2-.29-.5-.44-1.13-.44-1.88,0-1.21,.33-2.18,1-2.92,.67-.74,1.53-1.31,2.58-1.72,1.05-.41,2.24-.68,3.55-.81,1.31-.14,2.62-.2,3.91-.2Zm-.78,2.13c-.81,0-1.66,.04-2.53,.11-.88,.07-1.67,.22-2.39,.44-.72,.22-1.31,.54-1.77,.95-.46,.42-.69,.96-.69,1.62,0,.42,.08,.76,.23,1.02,.16,.26,.36,.47,.62,.64,.26,.17,.55,.28,.88,.34,.32,.06,.65,.09,.98,.09,.65,0,1.25-.11,1.81-.33,.56-.22,1.05-.52,1.47-.89,.42-.38,.77-.81,1.05-1.31,.28-.5,.47-1.03,.58-1.59l.22-1.09h-.47Z"/><path class="cls-2" d="M330.98,218.57h-2.88l2.59-14.82h2.91l-2.63,14.82Zm3.85-20.23c0,.52-.18,.97-.53,1.34-.35,.38-.79,.56-1.3,.56s-.92-.16-1.29-.47c-.36-.31-.54-.75-.54-1.31s.19-1.03,.57-1.39c.38-.36,.82-.55,1.32-.55s.91,.17,1.26,.5c.34,.33,.51,.77,.51,1.31Z"/><path class="cls-2" d="M339.11,218.57h-2.91l4.16-23.64h2.94l-4.19,23.64Z"/><path class="cls-2" d="M356.15,196.43h3.06l-1.66,9.29h10.94l1.66-9.29h3.06l-3.91,22.14h-3.06l1.78-10.16h-10.94l-1.78,10.16h-3.06l3.91-22.14Z"/><path class="cls-2" d="M377.53,212.03c-.02,.1-.03,.19-.03,.27v.23c0,.58,.11,1.12,.33,1.61,.22,.49,.52,.92,.91,1.28,.39,.37,.84,.65,1.38,.84,.53,.2,1.1,.3,1.7,.3,1.06,0,1.97-.21,2.74-.64,.76-.43,1.4-.96,1.92-1.61l1.72,1.63c-.87,1-1.88,1.76-3,2.27-1.13,.51-2.35,.77-3.66,.77-.98,0-1.89-.15-2.74-.44-.84-.29-1.57-.72-2.19-1.28-.62-.56-1.09-1.25-1.44-2.06-.34-.81-.52-1.74-.52-2.78,0-1.23,.22-2.4,.66-3.5s1.04-2.07,1.81-2.89c.77-.82,1.69-1.47,2.75-1.95,1.06-.48,2.21-.72,3.44-.72,1.9,0,3.4,.52,4.5,1.55,1.1,1.03,1.66,2.48,1.66,4.33,0,.29-.03,.71-.08,1.27-.05,.55-.13,1.07-.23,1.55h-11.63Zm9.16-2.13c.02-.15,.04-.3,.05-.47,.01-.17,.02-.32,.02-.47,0-.96-.31-1.76-.94-2.39-.62-.64-1.53-.95-2.72-.95-.71,0-1.35,.12-1.94,.38-.58,.25-1.1,.57-1.55,.97-.45,.4-.82,.86-1.12,1.38-.3,.52-.52,1.04-.64,1.56h8.85Z"/><path class="cls-2" d="M402.77,209.31c.04-.29,.07-.52,.09-.69,.02-.17,.03-.32,.03-.47,0-.88-.27-1.51-.81-1.89-.54-.39-1.31-.58-2.31-.58-.79,0-1.58,.16-2.38,.47-.79,.31-1.48,.7-2.06,1.16l-1.19-1.94c.79-.63,1.72-1.12,2.78-1.49,1.06-.36,2.15-.55,3.25-.55,.71,0,1.39,.08,2.05,.23,.66,.16,1.24,.41,1.75,.75,.51,.34,.92,.8,1.24,1.36,.31,.56,.47,1.24,.47,2.03,0,.19-.01,.43-.03,.73-.02,.3-.05,.56-.09,.77l-1.09,6c-.11,.58-.19,1.18-.25,1.8s-.09,1.13-.09,1.55h-2.66c0-.31,.02-.65,.05-1,.03-.35,.08-.71,.14-1.06h-.06c-.71,.83-1.48,1.44-2.31,1.81-.83,.38-1.81,.56-2.94,.56-.5,0-1.02-.06-1.56-.19s-1.04-.34-1.49-.64c-.45-.3-.82-.7-1.11-1.2-.29-.5-.44-1.13-.44-1.88,0-1.21,.33-2.18,1-2.92,.67-.74,1.53-1.31,2.58-1.72,1.05-.41,2.24-.68,3.55-.81,1.31-.14,2.62-.2,3.91-.2Zm-.78,2.13c-.81,0-1.66,.04-2.53,.11-.88,.07-1.67,.22-2.39,.44-.72,.22-1.31,.54-1.77,.95-.46,.42-.69,.96-.69,1.62,0,.42,.08,.76,.23,1.02,.16,.26,.36,.47,.62,.64,.26,.17,.55,.28,.88,.34,.32,.06,.65,.09,.98,.09,.65,0,1.25-.11,1.81-.33,.56-.22,1.05-.52,1.47-.89,.42-.38,.77-.81,1.05-1.31,.28-.5,.47-1.03,.58-1.59l.22-1.09h-.47Z"/><path class="cls-2" d="M411.8,218.57h-2.91l4.16-23.64h2.94l-4.19,23.64Z"/><path class="cls-2" d="M425.97,206.12h-3.66l-1.41,7.79c-.06,.35-.09,.67-.09,.94,0,.62,.16,1.05,.48,1.27,.32,.22,.75,.33,1.3,.33,.29,0,.58-.03,.87-.09,.29-.06,.53-.15,.72-.25l-.22,2.31c-.29,.12-.65,.22-1.08,.3-.43,.07-.85,.11-1.27,.11-1.15,0-2.06-.25-2.74-.77-.68-.51-1.02-1.32-1.02-2.42,0-.23,.01-.47,.03-.72,.02-.25,.05-.5,.09-.75l1.44-8.04h-2.81l.44-2.38h2.78l.72-4.25h2.88l-.75,4.25h3.72l-.44,2.38Z"/><path class="cls-2" d="M437.1,203.34c1.63,0,2.86,.43,3.69,1.3,.83,.87,1.25,1.96,1.25,3.27,0,.52-.04,1.02-.12,1.5l-1.63,9.16h-2.91l1.44-8.19c.12-.56,.19-1.12,.19-1.66,0-.85-.21-1.55-.62-2.09s-1.17-.81-2.25-.81c-1.19,0-2.2,.44-3.05,1.33-.84,.89-1.4,2.08-1.67,3.58l-1.38,7.85h-2.91l4.16-23.64h2.91l-1.94,11.07h.06c.48-.75,1.13-1.38,1.96-1.89,.82-.51,1.77-.77,2.83-.77Z"/></g><g><path class="cls-2" d="M223.75,163.47c-.19-4.17-.43-9.21-.38-13.62h-.15c-1.05,3.98-2.4,8.35-3.84,12.42l-4.7,14.01h-4.56l-4.32-13.82c-1.25-4.12-2.4-8.54-3.26-12.62h-.1c-.14,4.27-.34,9.4-.58,13.82l-.72,13h-5.52l2.16-32.33h7.77l4.23,13c1.15,3.79,2.16,7.63,2.97,11.23h.14c.86-3.5,1.97-7.48,3.22-11.28l4.46-12.95h7.68l1.87,32.33h-5.76l-.62-13.19Z"/><path class="cls-2" d="M256.89,164.77c0,8.59-6.05,12.43-12,12.43-6.62,0-11.71-4.56-11.71-12.04s5.04-12.38,12.09-12.38,11.61,4.89,11.61,11.99m-17.61,.24c0,4.51,2.21,7.92,5.81,7.92,3.36,0,5.71-3.31,5.71-8.01,0-3.65-1.63-7.82-5.66-7.82s-5.85,4.03-5.85,7.91"/><path class="cls-2" d="M281.45,169.66c0,2.78,.1,5.08,.19,7h-5.18l-.29-3.55h-.09c-1.01,1.68-3.31,4.08-7.48,4.08s-8.16-2.54-8.16-10.17v-13.72h5.9v12.71c0,3.89,1.25,6.38,4.37,6.38,2.35,0,3.89-1.68,4.51-3.17,.19-.53,.34-1.15,.34-1.82v-14.11h5.9v16.36Z"/><path class="cls-2" d="M286.62,160.26c0-2.69-.05-4.94-.19-6.96h5.18l.29,3.5h.14c1.01-1.82,3.55-4.03,7.44-4.03,4.08,0,8.3,2.64,8.3,10.02v13.87h-5.9v-13.19c0-3.36-1.25-5.9-4.46-5.9-2.35,0-3.98,1.68-4.6,3.45-.19,.52-.24,1.25-.24,1.92v13.72h-5.95v-16.41Z"/><path class="cls-2" d="M319.62,147.3v6h5.61v4.41h-5.61v10.31c0,2.83,.77,4.32,3.02,4.32,1.1,0,1.63-.1,2.3-.29l.1,4.51c-.86,.34-2.4,.62-4.27,.62-2.16,0-3.98-.77-5.08-1.96-1.25-1.35-1.82-3.46-1.82-6.53v-10.99h-3.36v-4.41h3.36v-4.32l5.75-1.69Z"/><path class="cls-2" d="M346.62,171.05c0,2.11,.09,4.18,.34,5.61h-5.32l-.38-2.59h-.14c-1.44,1.82-3.89,3.12-6.91,3.12-4.7,0-7.34-3.4-7.34-6.96,0-5.9,5.23-8.88,13.86-8.83v-.38c0-1.53-.62-4.08-4.75-4.08-2.3,0-4.7,.72-6.29,1.73l-1.15-3.83c1.73-1.06,4.75-2.06,8.44-2.06,7.48,0,9.64,4.75,9.64,9.84v8.44Zm-5.75-5.8c-4.18-.1-8.16,.82-8.16,4.37,0,2.3,1.49,3.36,3.36,3.36,2.35,0,4.08-1.53,4.61-3.21,.14-.43,.19-.91,.19-1.29v-3.22Z"/><path class="cls-2" d="M357.94,146.78c0,1.77-1.29,3.17-3.36,3.17s-3.26-1.39-3.26-3.17,1.34-3.21,3.31-3.21,3.27,1.39,3.31,3.21m-6.28,6.52h5.94v23.36h-5.94v-23.36Z"/><path class="cls-2" d="M362.73,160.26c0-2.69-.05-4.94-.19-6.96h5.18l.29,3.5h.15c1.01-1.82,3.55-4.03,7.43-4.03,4.08,0,8.3,2.64,8.3,10.02v13.87h-5.9v-13.19c0-3.36-1.25-5.9-4.46-5.9-2.35,0-3.98,1.68-4.61,3.45-.19,.52-.24,1.25-.24,1.92v13.72h-5.95v-16.41Z"/><path class="cls-1" d="M29.52,175.7c-1.39,.72-4.46,1.49-8.35,1.49-10.27,0-16.5-6.48-16.5-16.31,0-10.65,7.38-17.07,17.27-17.07,3.89,0,6.67,.82,7.87,1.44l-1.29,4.7c-1.53-.67-3.65-1.25-6.33-1.25-6.57,0-11.32,4.12-11.32,11.89,0,7.1,4.17,11.66,11.27,11.66,2.4,0,4.89-.48,6.43-1.2l.96,4.65Z"/><path class="cls-1" d="M55.32,164.77c0,8.59-6.05,12.43-12,12.43-6.62,0-11.7-4.56-11.7-12.04s5.04-12.38,12.09-12.38,11.61,4.89,11.61,11.99m-17.61,.24c0,4.51,2.2,7.92,5.8,7.92,3.36,0,5.71-3.31,5.71-8.01,0-3.65-1.63-7.82-5.66-7.82s-5.85,4.03-5.85,7.91"/><rect class="cls-1" x="58.96" y="142.6" width="5.95" height="34.06"/><path class="cls-1" d="M92.3,164.77c0,8.59-6.05,12.43-12,12.43-6.62,0-11.71-4.56-11.71-12.04s5.04-12.38,12.09-12.38,11.61,4.89,11.61,11.99m-17.61,.24c0,4.51,2.21,7.92,5.81,7.92,3.35,0,5.7-3.31,5.7-8.01,0-3.65-1.63-7.82-5.66-7.82s-5.85,4.03-5.85,7.91"/><path class="cls-1" d="M95.93,160.83c0-3.17-.05-5.42-.19-7.53h5.13l.19,4.47h.19c1.15-3.31,3.89-4.99,6.38-4.99,.58,0,.91,.05,1.39,.15v5.57c-.48-.1-1.01-.19-1.73-.19-2.83,0-4.75,1.82-5.28,4.46-.1,.53-.19,1.15-.19,1.83v12.09h-5.9v-15.83Z"/><path class="cls-1" d="M129.94,171.05c0,2.11,.09,4.18,.34,5.61h-5.33l-.38-2.59h-.15c-1.44,1.82-3.89,3.12-6.91,3.12-4.7,0-7.34-3.4-7.34-6.96,0-5.9,5.23-8.88,13.86-8.83v-.38c0-1.53-.62-4.08-4.75-4.08-2.31,0-4.7,.72-6.29,1.73l-1.15-3.83c1.73-1.06,4.75-2.06,8.44-2.06,7.48,0,9.64,4.75,9.64,9.84v8.44Zm-5.76-5.8c-4.17-.1-8.15,.82-8.15,4.37,0,2.3,1.49,3.36,3.36,3.36,2.35,0,4.08-1.53,4.6-3.21,.15-.43,.19-.91,.19-1.29v-3.22Z"/><path class="cls-1" d="M156.52,142.61v27.49c0,2.39,.09,4.99,.19,6.57h-5.28l-.24-3.69h-.1c-1.39,2.59-4.22,4.22-7.63,4.22-5.56,0-9.98-4.75-9.98-11.95-.05-7.82,4.85-12.47,10.46-12.47,3.21,0,5.52,1.34,6.57,3.07h.09v-13.24h5.9Zm-5.9,20.43c0-.48-.05-1.06-.14-1.54-.53-2.3-2.4-4.17-5.08-4.17-3.79,0-5.9,3.36-5.9,7.72s2.11,7.39,5.85,7.39c2.4,0,4.51-1.63,5.09-4.17,.14-.53,.19-1.1,.19-1.73v-3.5Z"/><path class="cls-1" d="M183.85,164.77c0,8.59-6.05,12.43-12,12.43-6.62,0-11.71-4.56-11.71-12.04s5.04-12.38,12.09-12.38,11.61,4.89,11.61,11.99m-17.61,.24c0,4.51,2.2,7.92,5.8,7.92,3.36,0,5.71-3.31,5.71-8.01,0-3.65-1.63-7.82-5.66-7.82s-5.85,4.03-5.85,7.91"/><path class="cls-1" d="M425.23,163.47c-.19-4.17-.43-9.21-.38-13.62h-.14c-1.05,3.98-2.4,8.35-3.84,12.42l-4.7,14.01h-4.56l-4.32-13.82c-1.25-4.12-2.4-8.54-3.26-12.62h-.09c-.14,4.27-.34,9.4-.58,13.82l-.72,13h-5.52l2.16-32.33h7.77l4.22,13c1.15,3.79,2.16,7.63,2.97,11.23h.15c.86-3.5,1.97-7.48,3.21-11.28l4.46-12.95h7.67l1.87,32.33h-5.76l-.62-13.19Z"/><path class="cls-1" d="M440.33,166.64c.14,4.22,3.45,6.04,7.19,6.04,2.74,0,4.7-.38,6.48-1.05l.86,4.08c-2.02,.81-4.8,1.49-8.15,1.49-7.58,0-12.04-4.7-12.04-11.85,0-6.48,3.93-12.57,11.42-12.57s10.07,6.24,10.07,11.37c0,1.1-.1,1.96-.19,2.49h-15.64Zm10.26-4.13c.05-2.16-.91-5.7-4.85-5.7-3.65,0-5.18,3.31-5.42,5.7h10.26Z"/><path class="cls-1" d="M481.25,142.61v27.49c0,2.39,.1,4.99,.2,6.57h-5.28l-.24-3.69h-.09c-1.39,2.59-4.22,4.22-7.63,4.22-5.57,0-9.98-4.75-9.98-11.95-.05-7.82,4.84-12.47,10.45-12.47,3.21,0,5.52,1.34,6.57,3.07h.1v-13.24h5.9Zm-5.9,20.43c0-.48-.05-1.06-.14-1.54-.53-2.3-2.4-4.17-5.09-4.17-3.79,0-5.9,3.36-5.9,7.72s2.11,7.39,5.85,7.39c2.4,0,4.51-1.63,5.08-4.17,.15-.53,.19-1.1,.19-1.73v-3.5Z"/><path class="cls-1" d="M492.66,146.78c0,1.77-1.29,3.17-3.36,3.17s-3.26-1.39-3.26-3.17,1.35-3.21,3.31-3.21,3.26,1.39,3.31,3.21m-6.28,6.52h5.95v23.36h-5.95v-23.36Z"/><path class="cls-1" d="M514.62,175.94c-1.25,.58-3.69,1.25-6.62,1.25-7.29,0-12.04-4.7-12.04-11.95s4.8-12.47,13-12.47c2.16,0,4.36,.48,5.71,1.11l-1.06,4.41c-.96-.43-2.35-.91-4.46-.91-4.51,0-7.2,3.31-7.15,7.58,0,4.8,3.12,7.53,7.15,7.53,2.06,0,3.5-.43,4.65-.91l.81,4.36Z"/><path class="cls-1" d="M535.92,171.05c0,2.11,.1,4.18,.34,5.61h-5.33l-.38-2.59h-.14c-1.44,1.82-3.89,3.12-6.91,3.12-4.7,0-7.34-3.4-7.34-6.96,0-5.9,5.23-8.88,13.86-8.83v-.38c0-1.53-.62-4.08-4.75-4.08-2.3,0-4.7,.72-6.29,1.73l-1.15-3.83c1.73-1.06,4.75-2.06,8.44-2.06,7.48,0,9.64,4.75,9.64,9.84v8.44Zm-5.76-5.8c-4.17-.1-8.15,.82-8.15,4.37,0,2.3,1.49,3.36,3.36,3.36,2.35,0,4.07-1.53,4.61-3.21,.14-.43,.19-.91,.19-1.29v-3.22Z"/><rect class="cls-1" x="540.95" y="142.6" width="5.95" height="34.06"/><polygon class="cls-1" points="277.65 3.6 146.64 81.64 104.42 61.14 8.33 124.3 544.77 124.38 399.69 42.28 370.27 54.68 277.65 3.6"/><path class="cls-5" d="M278.37,8.98s19.41,24.8,.33,46.58c-19.21,21.92-31.42,33.08-18.61,47.96l105.29-46.58L278.37,8.98Z"/><path class="cls-5" d="M401.87,49.93c16.31,16.88,8.87,27.72-4.92,32.46-15.46,5.31-21.31,30.62,1.28,34.61l123.47,.08-119.83-67.16Z"/><path class="cls-5" d="M104.98,64.7s6.16,17.88-13.43,24.92c-19.61,7.06-22.69,23.53-7.4,28.94l56.77-35.76-35.94-18.1Z"/><path class="cls-3" d="M259.84,96.5c88.97-1.23,99.49,21.7,226.44,24.85l-406.48-.02c40.05-14.53,91.07-23.6,180.04-24.83"/><path class="cls-4" d="M4.44,126.58c12.51-11.68,68.59-34.35,123.99-31.81,67.93,3.09,120.24,30.95,192.64,18.03,41.49-7.38,95.43-14.32,137.92-13.19,16.05,.45,69.39,6.56,89.28,26.63l-543.82,.34Z"/></g></svg>