<svg id="Columbus_Nephrology_logo_Image" data-name="Columbus Nephrology logo Image" xmlns="http://www.w3.org/2000/svg" viewBox="0 0 176.12 62.11"><defs><style>.cls-1,.cls-3{fill:#56004e;}.cls-2{fill:none;stroke-width:0.75px;}.cls-2,.cls-3{stroke:#56004e;stroke-miterlimit:10;}.cls-3{stroke-width:0.5px;}</style></defs><title>cn_logo</title><path class="cls-1" d="M7.14,13.72C12.66,6.45,17.68,3.39,21.84,2.23H2.44V26A34.46,34.46,0,0,1,7.14,13.72Z" transform="translate(0 0)"/><path class="cls-1" d="M38.22,8.42V2.23H31.67A8.52,8.52,0,0,1,38.22,8.42Z" transform="translate(0 0)"/><path class="cls-1" d="M32.56,26.45c6-11.23,5.66-23.44-6-22.5S7.71,17.29,5.17,26.31s2.48,20.43,8.64,20.58,6.52-10.33,6.52-10.33c.87,8.36-3.6,12.78-7.08,12.49S4.6,47,2.44,35.43V56.81H13.72a26,26,0,0,0,7-11.86,53.31,53.31,0,0,0,1.06-16c-.06-1.57,2.32-11.78,2.32-11.78l4.26,10.08s2.32-9.83,5.45-12.15v3.13s-2.57,6.2-2.76,8.46-2.63,8.33-2.63,8.33-2.75-10-3.76-9.72-.56,7.15-.56,7.15,1,14.77-7.53,24.33h21.6V17C36.58,23.91,32.56,26.45,32.56,26.45Z" transform="translate(0 0)"/><rect class="cls-2" x="0.38" y="0.38" width="39.75" height="58.54"/><path class="cls-3" d="M55.22,38.73l-.28,1.14a6.29,6.29,0,0,1-2,.86,10,10,0,0,1-2.3.26,6.58,6.58,0,0,1-4.8-1.77,6.39,6.39,0,0,1-1.81-4.78,6.4,6.4,0,0,1,2-5,7.34,7.34,0,0,1,5.15-1.75,12.3,12.3,0,0,1,2.12.17,7.86,7.86,0,0,1,1.87.61,5.24,5.24,0,0,0-.36,1.44l-.15,0A4.83,4.83,0,0,0,51,28.39,4.57,4.57,0,0,0,47.2,30.2,6.67,6.67,0,0,0,46,34.37a6.58,6.58,0,0,0,1.23,4.12A4.59,4.59,0,0,0,51,40.25a5.86,5.86,0,0,0,2.17-.42,7.09,7.09,0,0,0,1.94-1.16Z" transform="translate(0 0)"/><path class="cls-3" d="M66,36.45a4.43,4.43,0,0,1-1.25,3.29A4.5,4.5,0,0,1,61.43,41a4.4,4.4,0,0,1-3.29-1.28,4.61,4.61,0,0,1-1.25-3.35A4.53,4.53,0,0,1,58.15,33a4.65,4.65,0,0,1,3.42-1.23A4.16,4.16,0,0,1,64.85,33,5,5,0,0,1,66,36.45Zm-7.46-.09a5.38,5.38,0,0,0,.62,2.69,2.63,2.63,0,0,0,4.55,0,5.11,5.11,0,0,0,.64-2.66,5.77,5.77,0,0,0-.55-2.77,2.46,2.46,0,0,0-2.34-1.33,2.49,2.49,0,0,0-2.3,1.31A5.37,5.37,0,0,0,58.53,36.36Z" transform="translate(0 0)"/><path class="cls-3" d="M69.72,26.76c0,.89,0,1.8-.06,2.71-.11,2.72-.17,4.24-.17,4.56,0,.83,0,1.67.06,2.5.11,2.52.17,3.92.17,4.2a8.13,8.13,0,0,0-.84,0,7.31,7.31,0,0,0-.8.05c0-.79,0-2.36.14-4.71,0-1.34.07-2.28.07-2.83s0-1.79-.1-3.36-.11-2.6-.11-3.08a7,7,0,0,0,.9.06A4.81,4.81,0,0,0,69.72,26.76Z" transform="translate(0 0)"/><path class="cls-3" d="M73.9,31.87c-.05.54-.09,1.28-.12,2.2s0,1.72,0,2.38a6.33,6.33,0,0,0,.32,2.39A1.88,1.88,0,0,0,76,40a2.1,2.1,0,0,0,2-1.52,8.82,8.82,0,0,0,.5-3.26c0-.66,0-1.19,0-1.57s-.1-1-.2-1.78a6.15,6.15,0,0,0,.84.06,5.25,5.25,0,0,0,.79-.06c0,.63,0,1.61-.07,2.92s-.08,2.32-.08,3a25.57,25.57,0,0,0,.15,3,8.19,8.19,0,0,0-.83-.05,5.34,5.34,0,0,0-.69.05,6.25,6.25,0,0,0,0-.74q0-.51,0-.93a3.21,3.21,0,0,1-1.24,1.41,3.49,3.49,0,0,1-1.86.51,2.64,2.64,0,0,1-2.2-.93,6.39,6.39,0,0,1-.89-3.9c0-.71,0-1.42,0-2.14l0-2.15a5.55,5.55,0,0,0,.82.06A5.39,5.39,0,0,0,73.9,31.87Z" transform="translate(0 0)"/><path class="cls-3" d="M84,31.87v1.65a3.81,3.81,0,0,1,1.18-1.31,3.07,3.07,0,0,1,1.7-.47,3,3,0,0,1,1.69.45,2.45,2.45,0,0,1,1,1.41,3.2,3.2,0,0,1,3-1.86,3,3,0,0,1,2.09.7,2.51,2.51,0,0,1,.78,2v6.32a7.2,7.2,0,0,0-.81,0,7,7,0,0,0-.8.05q0-.89.06-2.1c.08-1.89.13-3.06.13-3.52a3.13,3.13,0,0,0-.42-1.77A1.82,1.82,0,0,0,92,32.63a2.14,2.14,0,0,0-2.07,1.67,9.14,9.14,0,0,0-.38,2.92c0,.37,0,1.09.14,2.18,0,.62.07,1.06.07,1.33a7.2,7.2,0,0,0-.81,0,7,7,0,0,0-.8.05c.06-.5.1-1.13.13-1.89s0-1.47,0-2.15V35.14a3.22,3.22,0,0,0-.4-1.77,1.78,1.78,0,0,0-1.59-.74,2.12,2.12,0,0,0-2.06,1.67,8.84,8.84,0,0,0-.4,2.93q0,.95.06,1.77s.06.6.17,1.74a7.22,7.22,0,0,0-.82-.05,7,7,0,0,0-.79.05c0-.51,0-1.12.05-1.82.09-1.62.14-2.63.14-3,0-1.4-.07-2.74-.19-4l.34,0,.43,0A4.93,4.93,0,0,0,84,31.87Z" transform="translate(0 0)"/><path class="cls-3" d="M98,40.78c.11-1,.19-2.05.24-3.08s.06-2.15.06-3.38c0-.75-.06-2.33-.19-4.73-.06-1.21-.09-2.15-.09-2.83a4.71,4.71,0,0,0,.74.06,6.36,6.36,0,0,0,.87-.06c0,.56,0,1.41,0,2.55s-.06,2-.06,2.56v1.79a3.38,3.38,0,0,1,3.19-1.92A3.49,3.49,0,0,1,105.57,33a4.61,4.61,0,0,1,1,3,5.35,5.35,0,0,1-1.1,3.4A3.79,3.79,0,0,1,102.32,41a3.24,3.24,0,0,1-1.47-.33,4.12,4.12,0,0,1-1.23-1,7,7,0,0,0-1.27,1.1Zm1.44-4.18a5.13,5.13,0,0,0,.54,2.51,2.21,2.21,0,0,0,2.09,1.24,2.42,2.42,0,0,0,2.2-1.45,5.73,5.73,0,0,0,.63-2.75,4.93,4.93,0,0,0-.57-2.49,2.44,2.44,0,0,0-4.34.17A6.2,6.2,0,0,0,99.45,36.6Z" transform="translate(0 0)"/><path class="cls-3" d="M110.4,31.87c-.05.54-.09,1.28-.12,2.2s0,1.72,0,2.38a6.33,6.33,0,0,0,.32,2.39A1.88,1.88,0,0,0,112.49,40a2.1,2.1,0,0,0,2-1.52,8.82,8.82,0,0,0,.5-3.26c0-.66,0-1.19,0-1.57s-.1-1-.2-1.78a6.12,6.12,0,0,0,.83.06,5.29,5.29,0,0,0,.8-.06c0,.63,0,1.61-.07,2.92s-.08,2.32-.08,3a25.57,25.57,0,0,0,.15,3,8.19,8.19,0,0,0-.83-.05,5.34,5.34,0,0,0-.69.05c0-.15,0-.39,0-.74s0-.65,0-.93a3.17,3.17,0,0,1-1.25,1.41,3.43,3.43,0,0,1-1.85.51,2.64,2.64,0,0,1-2.2-.93,6.39,6.39,0,0,1-.89-3.9c0-.71,0-1.42,0-2.14s0-1.43,0-2.15a5.55,5.55,0,0,0,.82.06A5.39,5.39,0,0,0,110.4,31.87Z" transform="translate(0 0)"/><path class="cls-3" d="M119,39a3.22,3.22,0,0,0,1,1,2.33,2.33,0,0,0,1.25.36,1.86,1.86,0,0,0,1.27-.46,1.51,1.51,0,0,0,.53-1.2c0-.72-.74-1.32-2.23-1.8s-2.23-1.3-2.23-2.45a2.34,2.34,0,0,1,1-2,3.81,3.81,0,0,1,2.27-.63,6,6,0,0,1,2.24.45,15,15,0,0,0-.5,1.47h-.19a1.55,1.55,0,0,0-.65-1,2.13,2.13,0,0,0-1.19-.33,1.84,1.84,0,0,0-1.2.41,1.41,1.41,0,0,0-.49,1.13c0,.78.74,1.4,2.22,1.84s2.23,1.21,2.23,2.32a2.63,2.63,0,0,1-1.07,2.16,3.68,3.68,0,0,1-2.35.78,4.43,4.43,0,0,1-2.4-.63,5.86,5.86,0,0,0,.24-.74c.09-.34.15-.55.16-.62Z" transform="translate(0 0)"/><path class="cls-3" d="M45.28,43.69C46,44.46,47,45.58,48.36,47c1.79,2,2.81,3.08,3.08,3.36q1.64,1.73,3.21,3.25c0-1.13,0-3,0-5.58s0-4,0-4.13l.34,0h.64a1.86,1.86,0,0,1,.33,0c-.12,1-.2,2.12-.26,3.41s-.09,2.52-.09,3.71V57h-.28q-1.42-1.74-3-3.53-.88-1-3.18-3.38l-3.21-3.37c0,1.48,0,2.69,0,3.62s0,2.05.07,3.35,0,2.32,0,3.06a5.36,5.36,0,0,0-.7-.05H45l-.32,0c.15-1.07.26-2.14.31-3.22s.09-2.3.09-3.64c0-1,0-2.06,0-3.08s0-2.06,0-3.1Z" transform="translate(0 0)"/><path class="cls-3" d="M66.22,55l-.15.93a6.28,6.28,0,0,1-1.54.83,5.12,5.12,0,0,1-1.69.27,4.33,4.33,0,0,1-3.26-1.24,4.6,4.6,0,0,1-1.2-3.34A4.93,4.93,0,0,1,59.52,49a4.09,4.09,0,0,1,3.21-1.28,3.85,3.85,0,0,1,2.77,1,3.56,3.56,0,0,1,1,2.7v.86l-2.21-.06h-.9L60,52.28V53a3.22,3.22,0,0,0,.88,2.33,3,3,0,0,0,2.29.93,3.69,3.69,0,0,0,1.6-.35,3.89,3.89,0,0,0,1.33-1Zm-3.53-6.63a2.38,2.38,0,0,0-2,1A3.58,3.58,0,0,0,60,51.52l1,0,1,0h1.41A14.39,14.39,0,0,0,65,51.5a4.38,4.38,0,0,0-.45-2.17A2,2,0,0,0,62.69,48.33Z" transform="translate(0 0)"/><path class="cls-3" d="M70,47.87c0,.36,0,.75,0,1.18v.68a3,3,0,0,1,1.22-1.51,3.86,3.86,0,0,1,4.85.81,4.84,4.84,0,0,1,1,3.14,5.31,5.31,0,0,1-1,3.32,3.87,3.87,0,0,1-4.74,1.06,2.57,2.57,0,0,1-1.19-1.16l0,1.56v1.8c.09,1.86.13,2.87.13,3a3.7,3.7,0,0,0-.85-.09H69a2.28,2.28,0,0,0-.47.07c0-.67,0-1.46.06-2.35.09-2.11.13-3.42.13-3.94,0-.8,0-2.12-.09-4s-.1-3-.1-3.61a6.18,6.18,0,0,0,.85.06A3.66,3.66,0,0,0,70,47.87Zm0,4.68a5.06,5.06,0,0,0,.56,2.52,2.28,2.28,0,0,0,2.12,1.22A2.32,2.32,0,0,0,74.83,55a5.36,5.36,0,0,0,.59-2.63,5.7,5.7,0,0,0-.51-2.6,2.24,2.24,0,0,0-2.11-1.32,2.37,2.37,0,0,0-2.26,1.34A5.92,5.92,0,0,0,70,52.55Z" transform="translate(0 0)"/><path class="cls-3" d="M80.81,42.76c0,1.07,0,1.88,0,2.41l-.09,4v.4a3,3,0,0,1,1.22-1.38,3.48,3.48,0,0,1,1.82-.5,2.66,2.66,0,0,1,2.62,1.55,7.73,7.73,0,0,1,.53,3.24c0,.36,0,.89,0,1.59s-.06,1.24-.06,1.58a8.72,8.72,0,0,0,.06,1l-.91,0a6.4,6.4,0,0,0-.73.05c.07-.7.11-1.41.13-2.11s0-1.59,0-2.65a4.22,4.22,0,0,0-.63-2.68,2,2,0,0,0-1.6-.65A2.18,2.18,0,0,0,81,50.28a9,9,0,0,0-.39,2.95c0,.37,0,1.1.13,2.18.05.63.07,1.07.07,1.33a8.19,8.19,0,0,0-.83-.05,7.16,7.16,0,0,0-.8.05c0-.7,0-1.58.08-2.62.11-2.34.17-3.81.17-4.41s0-1.56-.08-2.6c-.11-2.33-.17-3.78-.17-4.35a6.77,6.77,0,0,0,.89.06A4.71,4.71,0,0,0,80.81,42.76Z" transform="translate(0 0)"/><path class="cls-3" d="M93.79,49.41a1.53,1.53,0,0,0-.91-.3,1.65,1.65,0,0,0-1.65,1.17,6.21,6.21,0,0,0-.31,2.24c0,.69,0,1.39,0,2.1s0,1.41.12,2.1l-.87,0h-.46l-.28,0c0-.37.09-.87.11-1.5s0-1.16,0-1.62c0-.63,0-1.59-.07-2.87s-.08-2.23-.08-2.87a6.15,6.15,0,0,0,.84.06,4,4,0,0,0,.68-.06l0,1.54v.38a4.62,4.62,0,0,1,1-1.38,2.21,2.21,0,0,1,1.54-.67,1.22,1.22,0,0,1,.59.13,4.63,4.63,0,0,0-.09.65q0,.38,0,.81Z" transform="translate(0 0)"/><path class="cls-3" d="M104.35,52.45a4.43,4.43,0,0,1-1.25,3.29A4.5,4.5,0,0,1,99.79,57a4.4,4.4,0,0,1-3.29-1.28,4.61,4.61,0,0,1-1.25-3.35A4.53,4.53,0,0,1,96.51,49a4.65,4.65,0,0,1,3.42-1.23A4.16,4.16,0,0,1,103.21,49,5,5,0,0,1,104.35,52.45Zm-7.46-.09a5.38,5.38,0,0,0,.62,2.69,2.63,2.63,0,0,0,4.55,0,5.11,5.11,0,0,0,.64-2.66,5.77,5.77,0,0,0-.55-2.77,2.46,2.46,0,0,0-2.34-1.33,2.49,2.49,0,0,0-2.3,1.31A5.37,5.37,0,0,0,96.89,52.36Z" transform="translate(0 0)"/><path class="cls-3" d="M108.08,42.76c0,.89,0,1.8-.06,2.71-.11,2.72-.17,4.24-.17,4.55,0,.84,0,1.68.06,2.51.11,2.52.17,3.92.17,4.2a8.13,8.13,0,0,0-.84,0,7.31,7.31,0,0,0-.8.05c0-.79,0-2.36.14-4.71,0-1.34.07-2.28.07-2.83s0-1.79-.1-3.36-.11-2.6-.11-3.08a7,7,0,0,0,.9.06A4.71,4.71,0,0,0,108.08,42.76Z" transform="translate(0 0)"/><path class="cls-3" d="M119.31,52.45a4.65,4.65,0,0,1-7.86,3.26,4.61,4.61,0,0,1-1.24-3.35A4.53,4.53,0,0,1,111.46,49a4.69,4.69,0,0,1,3.42-1.23A4.19,4.19,0,0,1,118.17,49,5,5,0,0,1,119.31,52.45Zm-7.47-.09a5.28,5.28,0,0,0,.63,2.69,2.62,2.62,0,0,0,4.54,0,5.11,5.11,0,0,0,.64-2.66,5.77,5.77,0,0,0-.55-2.77,2.69,2.69,0,0,0-4.63,0A5.26,5.26,0,0,0,111.84,52.36Z" transform="translate(0 0)"/><path class="cls-3" d="M127.31,48.4a2.46,2.46,0,0,1,1.35,2.33,2.53,2.53,0,0,1-1.43,2.56,9.53,9.53,0,0,1-2.64.46c-1,.08-1.44.33-1.44.77l.2.47a2.15,2.15,0,0,0,.89.34,6.09,6.09,0,0,0,1.13.1h1.2a4.91,4.91,0,0,1,2.39.44,2.22,2.22,0,0,1,1,2.1,3.3,3.3,0,0,1-1.48,2.82,5.28,5.28,0,0,1-3.18,1,5.78,5.78,0,0,1-2.75-.61,2.41,2.41,0,0,1-1.45-2.22,2,2,0,0,1,.67-1.56,4.32,4.32,0,0,1,1.58-.82,1.57,1.57,0,0,1-1-.42,1.27,1.27,0,0,1-.39-1,1.35,1.35,0,0,1,.45-1,3.24,3.24,0,0,1,1-.57,2.76,2.76,0,0,1-2-2.68,2.82,2.82,0,0,1,1.12-2.41,4.37,4.37,0,0,1,2.64-.74h4.35l0,.32,0,.34Zm-5.08,10.45a2,2,0,0,0,1,1.81,4.12,4.12,0,0,0,2.14.53,3.58,3.58,0,0,0,2.17-.63,2.33,2.33,0,0,0,1-2,1.66,1.66,0,0,0-1-1.62,5.27,5.27,0,0,0-2.07-.34,4.33,4.33,0,0,0-2.14.46A1.92,1.92,0,0,0,122.23,58.85Zm.74-7.94a2.63,2.63,0,0,0,.52,1.7,1.86,1.86,0,0,0,1.56.64,1.94,1.94,0,0,0,1.65-.74,3,3,0,0,0,.47-1.81,2.85,2.85,0,0,0-.45-1.71,1.88,1.88,0,0,0-1.6-.7,1.91,1.91,0,0,0-1.67.78A3.09,3.09,0,0,0,123,50.91Z" transform="translate(0 0)"/><path class="cls-3" d="M137.76,47.87a2.76,2.76,0,0,0,.57.06,3.85,3.85,0,0,0,.66-.06q-1.37,2.82-2.18,4.55c-.83,1.75-1.52,3.28-2.09,4.61-.7,1.65-1.31,3.22-1.85,4.73a1.59,1.59,0,0,0-.34-.06l-.44,0a3.23,3.23,0,0,0-.68.08c.48-.83,1-1.65,1.46-2.46a17.64,17.64,0,0,0,1.26-2.57q-.72-2.07-1.73-4.46c-.62-1.48-1.29-2.94-2-4.4a3.71,3.71,0,0,0,.45.06l.52,0a3.94,3.94,0,0,0,.8-.08c.33,1.09.75,2.28,1.27,3.57.42,1,.92,2.21,1.5,3.5.51-1.07,1-2.23,1.51-3.5S137.34,49.08,137.76,47.87Z" transform="translate(0 0)"/><path class="cls-3" d="M139.29,59.77l1.37-4.39a1.51,1.51,0,0,1,.31-.62.69.69,0,0,1,.55-.24.73.73,0,0,1,.49.19.63.63,0,0,1,.21.48,1,1,0,0,1-.07.39,2,2,0,0,1-.21.42l-2.32,3.9Z" transform="translate(0 0)"/><path class="cls-3" d="M151.57,43.93q-.12,1.26-.15,2.58c0,.89,0,1.83,0,2.83v1.73c0,1,0,2,0,2.91s.08,1.8.17,2.74c-.34,0-.69,0-1,0a8.24,8.24,0,0,0-.85.05c0-.81,0-1.54,0-2.2.09-2.29.14-3.53.14-3.7V49q0-1.8,0-2.76c0-.64-.07-1.4-.14-2.29a3.17,3.17,0,0,0,.45.05h.5A5.67,5.67,0,0,0,151.57,43.93Z" transform="translate(0 0)"/><path class="cls-3" d="M156,47.87a3,3,0,0,0,0,.53v1.11A3.35,3.35,0,0,1,159,47.74a3,3,0,0,1,2.24.81,3.12,3.12,0,0,1,.8,2.26c0,.45,0,1.2,0,2.24s0,1.61,0,1.68c0,.73,0,1.4.08,2l-.91,0a5.39,5.39,0,0,0-.71.05c0-.51,0-1.12.06-1.82.09-1.62.13-2.63.13-3a5,5,0,0,0-.36-2.2,1.9,1.9,0,0,0-1.86-1,2.17,2.17,0,0,0-2.13,1.6,8.2,8.2,0,0,0-.42,2.9c0,.39,0,1,.12,1.79s.11,1.39.11,1.78a7.22,7.22,0,0,0-.82-.05,7,7,0,0,0-.79.05c0-.45.08-1.07.11-1.85s0-1.45,0-2,0-1.4-.08-2.51-.07-2-.07-2.51a5.49,5.49,0,0,0,.83.06A4,4,0,0,0,156,47.87Z" transform="translate(0 0)"/><path class="cls-3" d="M171.48,49.73a2.43,2.43,0,0,0-1-1,2.73,2.73,0,0,0-1.39-.37,2.83,2.83,0,0,0-2.4,1.23,4.52,4.52,0,0,0-.8,2.68,4.43,4.43,0,0,0,.88,2.77,3.07,3.07,0,0,0,2.56,1.26,3.52,3.52,0,0,0,1.41-.31,4,4,0,0,0,1.22-.87l.15,0-.06.83a4.49,4.49,0,0,1-1.44.75,5.38,5.38,0,0,1-1.69.26,4.65,4.65,0,0,1-3.39-1.25,4.54,4.54,0,0,1-1.27-3.38,4.29,4.29,0,0,1,1.39-3.4,5.24,5.24,0,0,1,3.59-1.22,5.38,5.38,0,0,1,2.83.76,3.38,3.38,0,0,0-.25.58c-.06.21-.11.43-.15.65Z" transform="translate(0 0)"/><path class="cls-3" d="M175.87,55.79a1,1,0,0,1-1.07,1.07,1,1,0,0,1-.74-.32,1.09,1.09,0,0,1-.3-.76,1,1,0,0,1,.3-.75,1.06,1.06,0,0,1,.76-.3,1,1,0,0,1,.75.3A1.06,1.06,0,0,1,175.87,55.79Z" transform="translate(0 0)"/></svg>