<svg xmlns="http://www.w3.org/2000/svg" viewBox="0 0 466.97 86.92"><title>logo_inline</title><path d="M127.08,20.67A6.53,6.53,0,0,1,131,22a2.18,2.18,0,0,0,3.08-.41,2.27,2.27,0,0,0-.45-3,10.79,10.79,0,0,0-6.52-2.26A10.45,10.45,0,0,0,116.66,26.6a10.41,10.41,0,0,0,10.42,10.25,11.27,11.27,0,0,0,6.52-2.18,2.28,2.28,0,0,0,.45-3,2.23,2.23,0,0,0-3.08-.45,6.62,6.62,0,0,1-3.9,1.32A6.05,6.05,0,0,1,121,26.6,6.09,6.09,0,0,1,127.08,20.67ZM149.43,37a9.06,9.06,0,0,0,6.85-3.13,10,10,0,0,0,2.87-7.24,10.3,10.3,0,0,0-2.87-7.2,9.05,9.05,0,0,0-6.85-3.13,9.56,9.56,0,0,0-7.05,3.13,10.64,10.64,0,0,0-2.83,7.2,10.29,10.29,0,0,0,2.83,7.24A9.56,9.56,0,0,0,149.43,37Zm-3.94-14.65a6,6,0,0,1,3.94-1.56,5.78,5.78,0,0,1,3.77,1.56,6.2,6.2,0,0,1,1.6,4.28,6.34,6.34,0,0,1-1.6,4.36,5.36,5.36,0,0,1-3.77,1.52A5.54,5.54,0,0,1,145.49,31,6.67,6.67,0,0,1,144,26.6,6.52,6.52,0,0,1,145.49,22.32Zm40.81-6.05a8.43,8.43,0,0,0-6.44,2.84,8.5,8.5,0,0,0-6.44-2.84A8.6,8.6,0,0,0,169,17.5a2.08,2.08,0,0,0-2-1.24,2.17,2.17,0,0,0-2.17,2.22V34.67a2.24,2.24,0,0,0,1.76,2.14c.12,0,.25,0,.41,0a2.39,2.39,0,0,0,2.05-1.32v-.21c.08-.08.08-.16.12-.25V35c0-.08,0-.21,0-.29V24.91a4.18,4.18,0,0,1,8.37-.12v9.88a2.26,2.26,0,0,0,2.21,2.18A2.19,2.19,0,0,0,182,34.67V24.79a4.26,4.26,0,0,1,4.27-4.12,4.21,4.21,0,0,1,4.14,4.24v9.76a2.23,2.23,0,0,0,2.22,2.18,2.19,2.19,0,0,0,2.17-2.18V24.91A8.58,8.58,0,0,0,186.31,16.27Zm37,0a8.43,8.43,0,0,0-6.44,2.84,8.49,8.49,0,0,0-6.44-2.84A8.6,8.6,0,0,0,206,17.5a2.08,2.08,0,0,0-2-1.24,2.17,2.17,0,0,0-2.17,2.22V34.67a2.24,2.24,0,0,0,1.76,2.14c.12,0,.25,0,.41,0a2.39,2.39,0,0,0,2.05-1.32v-.21c.08-.08.08-.16.12-.25V35c0-.08,0-.21,0-.29V24.91a4.18,4.18,0,0,1,8.37-.12v9.88a2.26,2.26,0,0,0,2.21,2.18A2.19,2.19,0,0,0,219,34.67V24.79a4.26,4.26,0,0,1,4.27-4.12,4.21,4.21,0,0,1,4.14,4.24v9.76a2.23,2.23,0,0,0,2.22,2.18,2.19,2.19,0,0,0,2.17-2.18V24.91A8.59,8.59,0,0,0,223.27,16.27Zm31.91,12V18.45A2.28,2.28,0,0,0,253,16.27a2.16,2.16,0,0,0-2.13,2.18v9.84a4.26,4.26,0,0,1-4.31,4.2,4.16,4.16,0,0,1-4.18-4.2V18.45a2.19,2.19,0,0,0-2.17-2.18A2.22,2.22,0,0,0,238,18.45v9.84a8.59,8.59,0,0,0,17.19,0ZM275,24.83v9.84a2.22,2.22,0,0,0,2.17,2.18,2.16,2.16,0,0,0,2.13-2.18V24.83a8.6,8.6,0,0,0-8.57-8.56,8.16,8.16,0,0,0-4.35,1.28,2.22,2.22,0,0,0-2-1.28,2.17,2.17,0,0,0-2.17,2.18V34.67a2.17,2.17,0,0,0,2.17,2.18,2.24,2.24,0,0,0,2.17-1.77.81.81,0,0,0,.08-.41V24.83a4.1,4.1,0,0,1,4.1-4.16A4.22,4.22,0,0,1,275,24.83Zm14.19-8.52a2.19,2.19,0,0,0-2.21,2.26V34.63a2.21,2.21,0,0,0,2.21,2.22,2.18,2.18,0,0,0,2.22-2.22V18.57A2.17,2.17,0,0,0,289.15,16.31Zm0-8.27a2.21,2.21,0,0,0-2.21,2.22v.86a2.24,2.24,0,0,0,2.21,2.26,2.22,2.22,0,0,0,2.22-2.26v-.86A2.18,2.18,0,0,0,289.15,8Zm16.2,8.23h-1v-6A2.23,2.23,0,0,0,302.07,8a2.26,2.26,0,0,0-2.3,2.26v6h-1.19a2.23,2.23,0,0,0-2.26,2.26,2.25,2.25,0,0,0,2.26,2.26h1.19V32.28a4.58,4.58,0,0,0,4.55,4.57,2.23,2.23,0,0,0,2.26-2.26,2.26,2.26,0,0,0-2.26-2.31V20.8h1a2.32,2.32,0,0,0,2.3-2.26A2.29,2.29,0,0,0,305.35,16.27Zm22.31,0a2.11,2.11,0,0,0-2.13,2.18v9.71a4.25,4.25,0,0,1-8.49,0V18.45a2.12,2.12,0,0,0-2.17-2.18,2.18,2.18,0,0,0-2.13,2.18v9.71a8.65,8.65,0,0,0,8.57,8.64,8,8,0,0,0,3.9-1A5.34,5.34,0,0,1,317.7,39a2.25,2.25,0,0,0-2.91.91,2.16,2.16,0,0,0,1.07,2.92,9.68,9.68,0,0,0,14-8.81V18.45A2.2,2.2,0,0,0,327.66,16.27Zm31.3,0a9.33,9.33,0,0,0-4.39,1.19V10.3a2.28,2.28,0,0,0-4.55,0V34.59a2.44,2.44,0,0,0,.08.58,2.33,2.33,0,0,0,2.17,1.69,2.26,2.26,0,0,0,2.3-2.26v-9.3a4.41,4.41,0,1,1,8.82,0v9.3a2.26,2.26,0,1,0,4.51,0v-9.3A9,9,0,0,0,359,16.27Zm24,0a10.29,10.29,0,0,0,0,20.58,10.35,10.35,0,0,0,7.34-2.72,1.89,1.89,0,0,0,0-2.68,2.32,2.32,0,0,0-3.08.12,6.68,6.68,0,0,1-4.27,1A6.34,6.34,0,0,1,379,30.76,5.41,5.41,0,0,1,377.58,28h13a2,2,0,0,0,2.13-1.65,1.14,1.14,0,0,0,0-.37v-.21A9.83,9.83,0,0,0,382.92,16.27Zm-5.54,8.27a5.74,5.74,0,0,1,5.54-4.36A6.71,6.71,0,0,1,389,24.54Zm36.92-8.27a2.23,2.23,0,0,0-2.13,1.81,9.33,9.33,0,0,0-5.46-1.81,9.43,9.43,0,0,0-7,3.09,10.4,10.4,0,0,0-2.79,7.24,10.55,10.55,0,0,0,2.79,7.24,9.51,9.51,0,0,0,7,3,9.29,9.29,0,0,0,5.46-1.77,2.24,2.24,0,0,0,2.13,1.77,2.19,2.19,0,0,0,2.17-2.18V18.49A2.2,2.2,0,0,0,414.3,16.27Zm-3.77,14.57a5.29,5.29,0,0,1-3.81,1.61,5.16,5.16,0,0,1-3.81-1.61,6.18,6.18,0,0,1-1.56-4.24,6,6,0,0,1,1.56-4.24,4.94,4.94,0,0,1,3.81-1.69,5.06,5.06,0,0,1,3.81,1.69,6.06,6.06,0,0,1,1.6,4.24A6.21,6.21,0,0,1,410.52,30.84ZM425,8a2.28,2.28,0,0,0-2.26,2.26V34.59a2.28,2.28,0,0,0,4.55,0V10.3A2.29,2.29,0,0,0,425,8Zm16.65,8.23h-1v-6A2.23,2.23,0,0,0,438.38,8a2.26,2.26,0,0,0-2.3,2.26v6h-1.19a2.23,2.23,0,0,0-2.26,2.26,2.25,2.25,0,0,0,2.26,2.26h1.19V32.28a4.58,4.58,0,0,0,4.55,4.57,2.23,2.23,0,0,0,2.26-2.26,2.26,2.26,0,0,0-2.26-2.31V20.8h1a2.32,2.32,0,0,0,2.3-2.26A2.29,2.29,0,0,0,441.66,16.27Zm16.37,0a9.33,9.33,0,0,0-4.39,1.19V10.3a2.28,2.28,0,0,0-4.55,0V34.59a2.44,2.44,0,0,0,.08.58,2.33,2.33,0,0,0,2.17,1.69,2.26,2.26,0,0,0,2.3-2.26v-9.3a4.41,4.41,0,1,1,8.82,0v9.3a2.26,2.26,0,1,0,4.51,0v-9.3A9,9,0,0,0,458,16.27Zm-409.15,57H33.55V57.89A2,2,0,0,0,30,56.57a36.5,36.5,0,0,0-9.81,28.78c0,.4.11.79.17,1.18.39.06.78.13,1.18.17a36.22,36.22,0,0,0,28.68-9.85A2.06,2.06,0,0,0,48.87,73.25ZM30.24,30.19A36.23,36.23,0,0,0,1.56,20.34c-.39,0-.79.11-1.18.17-.06.39-.12.79-.17,1.18A36.5,36.5,0,0,0,10,50.47a2,2,0,0,0,3.59-1.32V33.79H28.93A2.06,2.06,0,0,0,30.24,30.19ZM66.16.39C65.77.32,65.38.26,65,.21a36.22,36.22,0,0,0-28.68,9.85,2.06,2.06,0,0,0,1.31,3.6H52.93V29a2,2,0,0,0,3.59,1.32A36.5,36.5,0,0,0,66.33,1.57C66.29,1.17,66.23.78,66.16.39Zm60.16,58.14a5.74,5.74,0,0,0-3.53,1.22v-.07a1.12,1.12,0,1,0-2.25,0V71.42l.05.5.1.1a1.21,1.21,0,0,0,.69.52l.3,0a1,1,0,0,0,.83-.39,1.06,1.06,0,0,0,.26-.53l0-.06V64.34a3.6,3.6,0,0,1,3.53-3.53,3.52,3.52,0,0,1,3.51,3.52v7.08a1.14,1.14,0,1,0,2.27,0V64.33A5.8,5.8,0,0,0,126.32,58.53Zm17.07,0a7,7,0,1,0,6.66,7A6.86,6.86,0,0,0,143.39,58.5Zm0,11.77A4.58,4.58,0,0,1,139,65.53a4.4,4.4,0,1,1,8.77,0A4.58,4.58,0,0,1,143.39,70.27Zm18.5-11.75A6.37,6.37,0,0,0,157,61V59.67a1.13,1.13,0,0,0-1.11-1.14,1.14,1.14,0,0,0-1.16,1.14V71.42a1.14,1.14,0,0,0,1.16,1.14A1.13,1.13,0,0,0,157,71.42l0-5.77a11.27,11.27,0,0,1,1.49-2.9,4.16,4.16,0,0,1,3.37-1.94A1.15,1.15,0,0,0,163,59.67,1.13,1.13,0,0,0,161.89,58.53Zm10.48,0H171.2V54.16A1.21,1.21,0,0,0,170,53a1.18,1.18,0,0,0-1.14,1.14V58.5h-1.12a1.14,1.14,0,0,0,0,2.28h1.12v9a2.71,2.71,0,0,0,2.78,2.77,1.21,1.21,0,0,0,1.16-1.14,1.23,1.23,0,0,0-1.16-1.17c-.07,0-.46-.13-.46-.46v-9h1.17a1.14,1.14,0,0,0,0-2.28Zm12.66,0a5.86,5.86,0,0,0-3.61,1.24V54a1.15,1.15,0,0,0-2.3,0V71.42a1.07,1.07,0,0,0,.05.37,1.36,1.36,0,0,0,.23.41,1.22,1.22,0,0,0,.86.36l.39,0,.07-.07a1.09,1.09,0,0,0,.54-.48.68.68,0,0,0,.08-.16l.05-.11v0a1.06,1.06,0,0,0,0-.26V64.14a3.64,3.64,0,0,1,7.26,0v7.27a1.15,1.15,0,0,0,2.3,0V64.14A5.67,5.67,0,0,0,185,58.5Zm28.9.21a1.09,1.09,0,0,0-.85,0,1.15,1.15,0,0,0-.64.62L208.6,68.5l-2.54-6.07a1.18,1.18,0,0,0-2.16,0l-2.54,6.07-3.85-9.15a1.08,1.08,0,0,0-.58-.63,1.12,1.12,0,0,0-1.5,1.46l4.88,11.66a1,1,0,0,0,.45.53.63.63,0,0,0,.28.12,1.07,1.07,0,0,0,1.35-.6L205,65.71l2.56,6.12,0,.08a1.14,1.14,0,0,0,.88.65h.2a1,1,0,0,0,.62-.23,1.22,1.22,0,0,0,.4-.53l4.86-11.61a1.14,1.14,0,0,0-.6-1.47Zm11-.2a7,7,0,0,0,0,14.05,6.69,6.69,0,0,0,5.69-3.2,1.19,1.19,0,0,0-.39-1.59,1.14,1.14,0,0,0-.86-.12,1.09,1.09,0,0,0-.67.51,4.4,4.4,0,0,1-3.76,2.13,4.61,4.61,0,0,1-4.49-4h10.12a1.1,1.1,0,0,0,1.14-1.09V65A6.88,6.88,0,0,0,224.93,58.5ZM220.6,64a4.54,4.54,0,0,1,4.32-3.23A4.48,4.48,0,0,1,229.18,64Zm24.18,1.26a9.48,9.48,0,0,0-3.38-1.12,6.19,6.19,0,0,1-2.42-.8c-.46-.37-.55-.61-.55-.91a1.48,1.48,0,0,1,.64-1.1,3.43,3.43,0,0,1,2.15-.63A5.08,5.08,0,0,1,244,61.87l.09.06a1.13,1.13,0,0,0,1.57-.34,1.2,1.2,0,0,0-.38-1.63,7.37,7.37,0,0,0-4.1-1.46,6.06,6.06,0,0,0-3.48,1,3.73,3.73,0,0,0-1.61,3,3.19,3.19,0,0,0,1.62,2.75,7.65,7.65,0,0,0,3.07,1.08l.14,0a6,6,0,0,1,2.52.85c.61.52.73.82.75,1.21a1.54,1.54,0,0,1-.8,1.21,3.44,3.44,0,0,1-2.15.69,6.28,6.28,0,0,1-3.66-1.4,1.15,1.15,0,0,0-.85-.26,1.12,1.12,0,0,0-.6,2,8.25,8.25,0,0,0,5.12,2,5.83,5.83,0,0,0,3.54-1.14,3.81,3.81,0,0,0,1.68-3A3.75,3.75,0,0,0,244.78,65.28ZM256,58.5h-1.17V54.16A1.21,1.21,0,0,0,253.62,53a1.18,1.18,0,0,0-1.14,1.14V58.5h-1.12a1.14,1.14,0,0,0,0,2.28h1.12v9a2.71,2.71,0,0,0,2.78,2.77,1.21,1.21,0,0,0,1.16-1.14,1.23,1.23,0,0,0-1.16-1.17c-.07,0-.46-.13-.46-.46v-9H256a1.14,1.14,0,0,0,0-2.28Zm21.7-2.93c.18-.22.59-.33,1.26-.33a1.15,1.15,0,0,0,0-2.31,3.89,3.89,0,0,0-3,1.11,5,5,0,0,0-1,3.36v.88h-1.22a1.15,1.15,0,0,0,0,2.31H275V71.44a1.15,1.15,0,0,0,2.3,0V60.6h1.33a1.15,1.15,0,1,0,0-2.31h-1.33v-.88A2.71,2.71,0,0,1,277.68,55.57Zm8.72-2.66A1.15,1.15,0,0,0,285.26,54V71.42a1.15,1.15,0,0,0,2.3,0V54A1.15,1.15,0,0,0,286.4,52.91Zm12.79,5.59a7,7,0,1,0,6.66,7A6.86,6.86,0,0,0,299.19,58.5Zm0,11.77a4.58,4.58,0,0,1-4.38-4.75,4.4,4.4,0,1,1,8.77,0A4.58,4.58,0,0,1,299.19,70.27ZM318,58.53A6.37,6.37,0,0,0,313.07,61V59.67A1.13,1.13,0,0,0,312,58.53a1.14,1.14,0,0,0-1.16,1.14V71.42A1.14,1.14,0,0,0,312,72.56a1.13,1.13,0,0,0,1.11-1.14l0-5.77a11.24,11.24,0,0,1,1.49-2.9A4.16,4.16,0,0,1,318,60.81a1.15,1.15,0,0,0,1.14-1.14A1.13,1.13,0,0,0,318,58.53Zm7.51-4.29a1.15,1.15,0,0,0-1.14,1.14V56a1.15,1.15,0,1,0,2.3,0v-.61A1.15,1.15,0,0,0,325.47,54.24Zm0,4.26a1.13,1.13,0,0,0-1.14,1.14V71.42a1.15,1.15,0,0,0,2.3,0V59.64A1.14,1.14,0,0,0,325.47,58.5Zm18.66-5.59A1.15,1.15,0,0,0,343,54v6.21a6.6,6.6,0,0,0-4.49-1.76,7,7,0,0,0,0,14.05A6.62,6.62,0,0,0,343,70.82v.59a1.15,1.15,0,0,0,2.3,0V54A1.15,1.15,0,0,0,344.13,52.91ZM343,65.76a4.49,4.49,0,1,1-9-.2,4.49,4.49,0,1,1,9-.21Zm18.68-7.26a1.13,1.13,0,0,0-1.14,1.14v.6a6.49,6.49,0,0,0-4.38-1.74,7,7,0,0,0,0,14.05,6.47,6.47,0,0,0,4.38-1.77v.63a1.14,1.14,0,1,0,2.27,0V59.64A1.13,1.13,0,0,0,361.64,58.5Zm-5.52,11.77a4.77,4.77,0,1,1,4.38-4.75A4.58,4.58,0,0,1,356.12,70.27Z" fill="#345a7e"></path><path d="M76.49,36.51a2,2,0,0,0-3.59,1.32V53.19H57.58a2.06,2.06,0,0,0-1.31,3.6A36.23,36.23,0,0,0,85,66.64c.39,0,.79-.11,1.18-.17.06-.39.12-.79.17-1.18a36.51,36.51,0,0,0-9.82-28.78" fill="#ff6449"></path></svg>