<?xml version="1.0" encoding="UTF-8"?>
<svg id="Layer_1" data-name="Layer 1" xmlns="http://www.w3.org/2000/svg" viewBox="0 0 268.03 46.8">
  <defs>
    <style>
      .cls-1 {
        fill: #046838;
      }

      .cls-2 {
        fill: #060606;
      }

      .cls-3 {
        fill: #050505;
      }

      .cls-4 {
        fill: #f0f0f0;
      }

      .cls-5 {
        fill: #0b0b0b;
      }

      .cls-6 {
        fill: #090909;
      }

      .cls-7 {
        fill: #080808;
      }

      .cls-8 {
        fill: #070707;
      }

      .cls-9 {
        fill: #0d0d0d;
      }

      .cls-10 {
        fill: #0a0a0a;
      }
    </style>
  </defs>
  <path class="cls-1" d="M27.6,9.41c1.09-1.63,2.06-3.47,3.4-5,1.97-2.24,4.52-3.67,7.51-4.18,4.77-.81,8.93,.6,12.18,4.04,2.64,2.79,4.01,6.25,4.25,10.21,.39,6.24-2.29,11.13-6.39,15.42-1.85,1.94-3.81,3.82-5.94,5.43-3.54,2.69-7.26,5.14-10.91,7.69-1.04,.73-2.12,1.41-3.13,2.17-.74,.57-1.35,.48-2.08-.03-1.97-1.36-4.03-2.57-5.96-3.98-4-2.93-8.14-5.72-11.84-9-3.29-2.92-6.09-6.4-7.62-10.66C-.92,15.95-.09,10.78,3.16,5.86,7.32-.42,17.03-2.5,23.56,3.87c1.62,1.58,2.72,3.7,4.04,5.54Zm-1.7,24.17c-2.76,0-5.17-.3-7.46-1.33-2.54-1.14-4.12-4.27-3.15-6.94,.43-1.2,.94-2.38,1.51-3.53,.41-.83,.45-1.55-.22-2.23-1.09-1.12-2.84-1.08-3.88,.08-4.4,4.93-3.24,12.14,2.49,15.43,3.12,1.79,6.5,2.14,9.99,1.62,1.01-.15,2.07-.34,2.96-.8,.46-.23,.6-1.09,.88-1.66-.49-.24-.97-.6-1.48-.69-.62-.1-1.28,.03-1.64,.04Zm-4.5-13.38c.62-.32,2.01-.68,2.87-1.55,2.78-2.84,2.68-7.58,.06-10.1-2.24-2.15-5.62-1.92-7.63,.5-1.73,2.09-1.93,5.43-.63,8,.99,1.95,2.47,2.99,5.33,3.15Zm14.35,14.15c.03-.11,.06-.22,.08-.32,.77-.04,1.55-.03,2.32-.14,5.4-.72,6.73-2.15,7.48-6.88,.52-3.32-.67-6.17-3.5-8.19-.95-.68-2.13-.56-2.8,.24-.76,.91-.43,1.74,.23,2.54,.47,.56,.96,1.11,1.34,1.72,1.29,2.07,.99,4.77-.75,6.22-1.15,.95-2.45,1.8-4.04,1.6-2.44-.31-4.86-.76-7.29-1.17-.84-.14-1.53-.11-1.86,.87-.33,1.01,.24,1.5,1.05,1.71,2.57,.64,5.15,1.21,7.73,1.8Zm3.91-19.27c-.45-1.23-.75-2.55-1.39-3.67-.96-1.67-2.57-2.53-4.51-2.56-1.71-.03-3.17,.67-3.99,2.18-1.12,2.04-1.16,4.14-.04,6.27,1.24,2.37,3.54,3.66,5.88,3.14,2.39-.53,3.82-2.51,4.05-5.36Zm-14.79,11.69c-.02-2.66-1.88-4.69-4.3-4.67-2.25,.01-3.84,1.77-3.85,4.27-.01,2.38,2.15,4.78,4.3,4.76,2.01-.01,3.86-2.12,3.85-4.36Zm8.07-2.7c0-2.37-1.63-4.2-3.76-4.21-2.12,0-3.8,1.84-3.8,4.18,0,2.35,1.66,4.2,3.78,4.21,2.12,.01,3.78-1.83,3.78-4.19Zm6.92,1.95c.03-1.73-.98-2.96-2.49-3.02-1.75-.07-3.47,1.75-3.53,3.72-.04,1.6,1.03,2.78,2.56,2.79,1.77,.02,3.43-1.65,3.46-3.5Z"/>
  <path class="cls-3" d="M66.45,42.43c1.25-.1,1.71-1,2.01-2.02,.41-1.39,.77-2.79,1.18-4.28h-4.79c-.44,1.6-.97,3.22-1.28,4.89-.08,.44,.55,1.02,.8,1.44h-5.56c1.2-.24,1.66-1.1,1.96-2.18,.8-2.93,1.67-5.84,2.48-8.77,.49-1.75,.35-2.04-1.24-2.6h6.25c-1.33,.22-1.76,1.19-2.05,2.36-.32,1.32-.75,2.62-1.14,3.97h4.83c.41-1.45,.84-2.88,1.21-4.32,.25-.98,.16-1.83-1.16-1.99h6.14c-1.87,.07-1.92,1.64-2.29,2.91-.83,2.83-1.59,5.69-2.42,8.52-.32,1.09-.27,1.87,1.1,2.07h-6.02Z"/>
  <path class="cls-2" d="M119.94,42.51c1.25-.28,1.82-1.05,2.13-2.19,.81-2.97,1.71-5.92,2.52-8.89,.45-1.67,.24-2.01-1.23-2.42,0-.11,.02-.21,.02-.32,2.46,.17,4.94,.23,7.38,.56,2.68,.36,3.91,3.85,3.58,6.16-.6,4.15-3.81,6.93-8.34,7.09-2.02,.07-4.04,.01-6.06,.01Zm8.06-12.88c-.22,.84-.42,1.62-.64,2.39-.78,2.71-1.57,5.42-2.34,8.14-.36,1.28,0,1.78,1.28,1.52,.84-.17,1.78-.54,2.38-1.12,2.36-2.34,2.92-5.27,2.23-8.41-.29-1.34-1.01-2.59-2.9-2.52Z"/>
  <path class="cls-7" d="M149.98,9.24c1.26,2.53,.67,5.31,1.23,8.29,.95-1.61,1.84-2.87,2.43-4.26,.21-.48-.34-1.27-.49-1.93-.12-.52-.31-1.11-.17-1.58,.08-.26,.96-.59,1.15-.45,.45,.34,.91,.91,.98,1.44,.08,.63-.11,1.39-.42,1.97-1.75,3.24-3.56,6.46-6.29,9.02-.58,.55-1.29,1.07-2.03,1.29-.47,.14-1.19-.22-1.65-.56-.18-.13-.06-1.13,.12-1.19,.53-.19,1.25-.32,1.72-.09,1.33,.63,2.08,.32,2.06-1.13-.03-2.62-.13-5.23-.25-7.85-.08-1.82-.33-2-2.15-1.68-.16,.03-.33,.04-.54,.06-.7,2.5-1.4,4.98-2.09,7.46,.13,.07,.26,.13,.39,.2,.3-.24,.59-.48,.87-.71,.1,.86-.82,1.68-2.02,1.75-.98,.05-1.67-.35-1.52-1.41,.17-1.14,.5-2.25,.8-3.37,.34-1.28,.72-2.55,1.11-3.9-.46-.06-.86-.11-1.51-.19,1.77-1.24,3.37-2.35,5.23-3.65-.28,.99-.49,1.76-.7,2.52,1.21,1.01,2.36,.15,3.73-.05Z"/>
  <path class="cls-8" d="M179.2,42.31c-.27,1.05-.63,2.02-.73,3.02-.04,.47,.43,.98,.65,1.46h-4.35c.4-.61,1.08-1.27,1.32-2.06,.95-3.24,1.8-6.51,2.61-9.79,.1-.41-.22-.93-.38-1.51,.87-.14,2.08-.34,3.37-.55v1.23c.5-.32,.87-.59,1.28-.8,1.59-.83,2.82-.22,3.13,1.52,.48,2.65-1.24,6.18-3.64,7.43-1.03,.54-2.09,.77-3.26,.05Zm4.65-6.3c-.37-.58-.73-1.16-1.1-1.75-.58,.51-1.18,1-1.72,1.55-.16,.16-.16,.48-.22,.73-.35,1.28-.7,2.56-1.05,3.84-.19,.67-.47,1.51,.4,1.72,.48,.12,1.31-.32,1.68-.76,1.23-1.46,1.67-3.26,2.02-5.32Z"/>
  <path class="cls-7" d="M73.53,4.95c-.33,1.5-.66,3-.99,4.5-.09,0-.19-.01-.28-.02-.05-.31-.09-.62-.15-.93-.43-2.37-2.44-3.31-4.55-2.12-1.54,.87-2.53,2.26-3.04,3.87-.48,1.49-.72,3.08-.87,4.64-.13,1.39,.66,2.54,1.84,3.12,1.13,.55,2.39,.44,3.42-.54,.26-.25,.65-.38,.97-.56,.09,.08,.19,.17,.28,.25-.37,.42-.66,.97-1.12,1.24-1.99,1.18-4.14,1.36-6.13,.17-1.77-1.06-2.52-2.85-2.45-4.92,.12-3.38,1.72-5.87,4.7-7.44,.97-.51,1.99-1.01,3.04-1.24,.72-.16,1.55,.12,2.31,.26,.99,.19,2.03,.95,3-.28Z"/>
  <path class="cls-6" d="M89.76,19h-2.39c.73-2.64,1.44-5.23,2.16-7.82-.09-.05-.17-.1-.26-.14-.22,.15-.43,.3-.65,.45-.19,.13-.39,.25-.59,.38-.09-.11-.19-.22-.28-.33,.67-.67,1.28-1.43,2.03-1.97,.38-.27,1.2-.38,1.53-.15,.4,.28,.57,.98,.69,1.53,.09,.4-.07,.86,.17,1.4,.2-.23,.39-.46,.59-.69,.56-.63,1.03-1.4,1.71-1.85,.53-.34,1.5-.58,1.95-.32,.46,.28,.81,1.28,.69,1.86-.33,1.62-.92,3.19-1.4,4.79-.17,.59-.3,1.19-.54,2.13,.58-.44,.83-.63,1.14-.86-.02,1.04-1.19,1.96-2.25,1.88-.9-.07-1.46-.82-1.2-1.87,.4-1.57,.94-3.11,1.4-4.67,.15-.51,.24-1.05,.37-1.64-1.6,.37-3.27,3.12-4.88,7.88Zm2.44-6.57c-.08-.07-.16-.14-.23-.2-.11,.18-.23,.35-.34,.53,.06,.04,.12,.09,.18,.13,.13-.15,.26-.3,.39-.45Z"/>
  <path class="cls-7" d="M125.79,9.75c1.3-.19,2.6-.38,4.08-.59-.36,1.32-.68,2.47-.99,3.62,.06,.05,.12,.1,.17,.15,.34-.43,.64-.89,1.02-1.28,.7-.72,1.35-1.57,2.19-2.08,1.36-.83,2.46-.08,2.41,1.55-.02,.63-.2,1.27-.39,1.87-.41,1.31-.92,2.58-1.28,3.9-.13,.5,.04,1.07,.09,1.89,.02,0-.29,.29-.62,.33-.56,.06-1.31,.14-1.66-.15-.35-.3-.53-1.1-.41-1.6,.39-1.62,.96-3.19,1.43-4.8,.13-.46,.17-.95,.06-1.5-2.68,1.99-4.27,4.6-4.75,7.91h-2.59c.67-2.22,1.42-4.36,1.96-6.55,.48-1.92,.39-2.24-.71-2.67Z"/>
  <path class="cls-7" d="M87.47,41.45c-.55,.92-1.33,1.55-2.42,1.24-1.09-.31-1.33-1.35-1.25-2.3,.24-2.88,1.2-5.45,3.85-7.02,1.32-.78,1.96-.56,2.73,.72q.47-.95,2.53-.79c-.73,2.71-1.46,5.39-2.19,8.08,.09,.06,.18,.13,.27,.19,.48-.34,.96-.68,1.44-1.02,.07,.06,.13,.12,.2,.19-.47,.49-.86,1.15-1.44,1.43-.68,.33-1.57,.54-2.26,.37-.31-.08-.49-1.23-.46-1.89,.03-.69,.43-1.35,.58-2.05,.3-1.37,.57-2.75,.76-4.14,.04-.29-.28-.81-.54-.89-.24-.08-.75,.2-.93,.47-1.32,1.97-1.95,4.18-2.01,6.54-.02,.72,.37,1.01,1.08,.8v.07s.05,0,.05,0Z"/>
  <path class="cls-7" d="M72.92,16.01c.02-2.86,2.36-5.99,4.97-6.64,2.28-.57,3.86,.65,3.86,2.96,0,2.76-2.25,5.98-4.71,6.74-2.55,.79-4.14-.39-4.12-3.06Zm6.45-5.08c-.1-.17-.4-.66-.71-1.16-.52,.37-1.22,.62-1.53,1.12-.49,.78-.82,1.69-1.05,2.59-.34,1.36-.6,2.75-.76,4.15-.04,.34,.36,.96,.68,1.05,.32,.09,.99-.2,1.16-.51,1.15-2.11,2.09-4.32,2.21-7.25Z"/>
  <path class="cls-2" d="M243.16,42.46h-6.17c1.4-.17,1.84-1.16,2.17-2.33,.8-2.88,1.66-5.75,2.47-8.63,.49-1.75,.34-2.03-1.36-2.57h6.24c-1.35,.18-1.64,1.2-1.94,2.31-.81,2.97-1.66,5.93-2.53,8.88-.34,1.15-.52,2.16,1.13,2.35Z"/>
  <path class="cls-7" d="M167.26,39.78c0-3.11,2.19-6.02,5.02-6.7,2.32-.55,3.91,.77,3.79,3.14-.16,3.09-2.34,5.82-5.17,6.46-2.16,.48-3.65-.7-3.65-2.9Zm6.48-5.16c-.13-.2-.37-.98-.72-1.03-.43-.06-1.23,.39-1.38,.8-.76,2.07-1.41,4.19-1.96,6.33-.11,.42,.41,1,.64,1.5,.47-.29,1.11-.47,1.39-.89,1.27-1.9,1.78-4.06,2.02-6.71Z"/>
  <path class="cls-10" d="M205.26,38.73c-.41,2.85,.55,3.23,4.45,1.86-1.05,1.81-4.2,2.88-5.89,1.81-.61-.39-1.17-1.35-1.2-2.08-.11-3.49,2.11-6.68,5.87-7.28,.66-.11,1.77,.15,2.01,.59,.3,.56,.17,1.66-.23,2.22-1.28,1.82-1.09,2.11-5.02,2.88Zm-.26-.67c1.93-.23,3.17-1.4,3.54-3.08,.08-.36-.11-.78-.18-1.17-.38,.13-.92,.15-1.1,.41-.77,1.17-1.43,2.4-2.26,3.84Z"/>
  <path class="cls-10" d="M82.38,40.4c-1.3,1.95-3.88,2.83-5.78,2.16-1.16-.41-1.59-1.33-1.54-2.41,.14-3.52,2.18-6.42,5.86-7.11,.68-.12,1.81,.16,2.11,.65,.31,.5,.05,1.56-.27,2.21-1,2-2.93,2.57-5.34,2.79,.29,.91,.31,1.97,.83,2.37,1.35,1.05,2.64-.01,4.15-.67Zm-4.83-2.31c2.2-.11,2.82-1.46,3.36-2.8,.17-.42-.05-1-.08-1.5-.46,.24-1.1,.36-1.35,.74-.68,1.05-1.2,2.2-1.92,3.56Z"/>
  <path class="cls-10" d="M155.21,38.78c.29,.86,.32,1.91,.85,2.31,1.34,1.01,2.63-.04,3.93-.61-.87,2.17-4.86,2.94-6.17,1.74-.55-.51-.98-1.5-.94-2.24,.19-3.45,2.09-6.08,5.61-6.93,.87-.21,2.04-.39,2.37,.63,.23,.7-.05,1.79-.48,2.45-1.2,1.81-1.66,1.95-5.17,2.64Zm.1-.68c2.29-.16,2.91-1.53,3.43-2.93,.15-.39-.06-.92-.11-1.38-.44,.2-1.05,.29-1.27,.63-.71,1.08-1.27,2.26-2.05,3.68Z"/>
  <path class="cls-7" d="M137.57,38.7c.3,.92,.32,1.98,.85,2.38,1.34,1.03,2.64-.05,3.94-.59-1.01,2.31-5.06,2.87-6.27,1.69-.45-.44-.83-1.18-.84-1.79-.1-3.47,2.16-6.81,5.98-7.36,.64-.09,1.69,.21,1.98,.69,.3,.49,.08,1.49-.23,2.1-1.02,2.04-2.96,2.67-5.4,2.88Zm.49-.67c1.58-.24,2.88-1.56,3.15-3.19,.05-.33-.12-.69-.19-1.04-.35,.1-.79,.1-1.03,.32-1.1,1.05-1.7,2.38-1.93,3.91Z"/>
  <path class="cls-7" d="M164.34,41.71c.51-.4,1.01-.81,1.51-1.2-.28,1.23-1.86,2.4-3.06,2.25-1.03-.13-1.42-.79-1.07-2,.84-2.88,1.71-5.74,2.56-8.62,.16-.53,.37-1.07,.39-1.61,.01-.45-.22-.9-.38-1.49,.9-.14,2.15-.33,3.5-.54-1.3,4.45-2.56,8.72-3.81,12.99,.12,.07,.24,.14,.36,.21Z"/>
  <path class="cls-7" d="M95.64,29.16c1.62-.25,2.87-.44,4.23-.65-1.31,4.46-2.57,8.74-3.87,13.18,.55-.1,.83-.16,1.16-.22-.03,.17-.02,.35-.09,.39-.51,.31-1,.71-1.55,.85-1.29,.34-2.1-.5-1.73-1.8,.9-3.16,1.9-6.3,2.77-9.47,.2-.74,1.02-1.81-.92-2.28Z"/>
  <path class="cls-8" d="M107.6,29.06c.9-.15,2.07-.34,3.48-.57-.77,2.64-1.5,5.08-2.18,7.52-.08,.27,.11,.61,.13,.93,.02,.24,.04,.51-.05,.72-.68,1.56-1.39,3.12-2.14,4.79h-2.21c1.04-3.53,2.07-7.01,3.08-10.48,.13-.45,.33-.92,.31-1.37-.02-.49-.26-.96-.43-1.54Z"/>
  <path class="cls-6" d="M148.59,40.12c.64-.74,1.25-1.35,1.73-2.05,.59-.85,.82-1.78,.11-2.73-.17-.23-.3-.54-.32-.82-.08-.75,.15-1.52,.99-1.49,.45,.02,1.28,.77,1.24,1.08-.2,1.27-.37,2.71-1.1,3.69-1.39,1.86-3.15,3.44-4.95,5.34-.71-3.34,.38-6.65-1.68-9.46,.69-.18,1.68-.43,3.02-.77,.32,2.43,.64,4.75,.96,7.22Z"/>
  <path class="cls-5" d="M263.26,33.52c-.58,.12-1.24,.1-1.72,.38-1.6,.95-2.8,4.4-2.25,6.21,.31,1.04,1.17,1.57,2.31,1.28,.76-.19,1.47-.55,2.55-.97-1.54,1.74-3.13,2.5-5.09,2.3-1.27-.12-2.24-1.12-2.33-2.39-.21-2.99,1.48-6.32,4.83-7.19,.67-.18,1.46-.15,2.14,.01,1.01,.24,1.36,1.08,1.06,2.01-.15,.45-.65,.88-1.1,1.09-.22,.1-.95-.27-.99-.5-.07-.42,.18-.9,.34-1.34,.07-.18,.24-.33,.37-.49l-.11-.4Z"/>
  <path class="cls-6" d="M105.04,30.32c-.3,1.03-.55,1.87-.83,2.8,.24,.05,.46,.1,.87,.19-.19,.34-.38,.89-.51,.88-1.12-.11-1.08,.77-1.27,1.41-.56,1.95-1.08,3.92-1.62,5.88,.1,.08,.21,.15,.31,.23,.49-.38,.98-.76,1.48-1.14-.31,1.3-1.85,2.4-3.08,2.19-1.17-.2-1.28-1.04-1.04-1.95,.49-1.86,1.05-3.71,1.57-5.56,.08-.29,.15-.57,.24-.92-.41-.05-.77-.09-1.38-.17,1.79-1.31,3.4-2.48,5.25-3.84Z"/>
  <path class="cls-6" d="M224.21,34.33c-.41-.05-.77-.09-1.39-.17,1.79-1.31,3.4-2.48,5.19-3.79-.25,.94-.48,1.79-.73,2.73,.23,.07,.49,.14,.87,.26-.2,.33-.39,.84-.53,.83-1.19-.11-1.11,.86-1.32,1.52-.48,1.55-.91,3.12-1.33,4.69-.1,.38-.11,.78,.12,1.32,.47-.39,.93-.77,1.41-1.17-.25,1.32-1.95,2.5-3.18,2.19-1.16-.28-1.14-1.16-.9-2.05,.49-1.82,1.03-3.62,1.54-5.44,.08-.29,.15-.57,.25-.93Z"/>
  <path class="cls-10" d="M107.06,12.55c.38-.27,.82-.5,1.14-.83,.61-.63,1.08-1.44,1.78-1.94,.48-.35,1.45-.6,1.84-.35,.47,.31,.86,1.26,.75,1.82-.34,1.71-.94,3.36-1.43,5.04-.16,.54-.29,1.08-.43,1.62,.15,.1,.3,.2,.45,.3,.32-.55,.63-1.1,.95-1.64,.17,.18,.35,.35,.52,.53-.66,.64-1.24,1.4-2,1.87-.45,.27-1.36,.31-1.75,.02-.38-.28-.61-1.15-.49-1.67,.35-1.58,.91-3.11,1.37-4.67,.14-.47,.21-.97,.31-1.45-.11-.07-.22-.15-.33-.22-.67,.72-1.34,1.45-2.01,2.17-.27,0-.54,0-.89,0,.09-.23,.17-.41,.24-.59Z"/>
  <path class="cls-10" d="M195.98,36.05c.33-.23,.69-.42,.97-.69,.52-.51,.9-1.22,1.5-1.56,.68-.39,1.65-.81,2.28-.6,1.01,.35,.86,1.5,.63,2.37-.39,1.49-.9,2.94-1.36,4.41-.15,.47-.29,.95-.19,1.6,.44-.35,.88-.69,1.31-1.03-.16,1.21-1.88,2.49-2.99,2.18-1.04-.29-1.12-1.09-.89-1.95,.43-1.57,.9-3.12,1.34-4.68,.11-.4,.19-.8,.35-1.47-1.57,.7-2.2,1.9-2.95,2.98-1.18-.51,.17-1.04-.01-1.55Z"/>
  <path class="cls-10" d="M250.31,36.06c.74-.82,1.38-1.78,2.25-2.42,.56-.41,1.77-.71,2.15-.4,.51,.41,.76,1.5,.66,2.23-.18,1.3-.71,2.54-1.1,3.81-.21,.71-.43,1.41-.64,2.12,.1,.07,.2,.14,.3,.2l1.32-1.11c-.42,1.24-1.26,2.02-2.5,2.24-1.12,.2-1.77-.53-1.49-1.74,.39-1.66,.92-3.29,1.38-4.94,.11-.39,.17-.8,.25-1.2-.11-.08-.22-.16-.33-.25-.68,.59-1.36,1.17-2.03,1.76-.07-.1-.15-.21-.22-.31Z"/>
  <path class="cls-8" d="M118.94,16.21c-.6,.81-1.09,1.77-1.85,2.37-.54,.42-1.55,.66-2.18,.46-.93-.31-.76-1.35-.55-2.14,.48-1.86,1.08-3.69,1.52-5.56,.11-.47-.22-1.04-.37-1.64,.94-.14,2.25-.33,3.75-.55-.83,2.75-1.62,5.33-2.4,7.9,.09,.09,.18,.18,.27,.26,.54-.45,1.07-.91,1.61-1.36,.07,.08,.14,.17,.21,.25Z"/>
  <path class="cls-10" d="M111.51,34.71c-.57,.4-1.13,.79-1.7,1.19-.08-.08-.15-.16-.23-.24,.75-.74,1.43-1.59,2.28-2.18,.48-.33,1.53-.54,1.83-.26,.46,.42,.78,1.36,.66,1.99-.32,1.63-.91,3.2-1.38,4.79-.12,.39-.22,.78-.32,1.17l.29,.16c.4-.44,.8-.88,1.27-1.39-.22,1.41-1.46,2.7-2.63,2.83-1.12,.12-1.73-.69-1.38-1.97,.42-1.57,.93-3.11,1.38-4.67,.11-.39,.17-.81,.25-1.21-.1-.07-.21-.13-.31-.2Z"/>
  <path class="cls-7" d="M140.05,17.02c-.63,.67-1.17,1.49-1.92,1.96-.46,.29-1.41,.26-1.87-.04-.37-.24-.54-1.16-.41-1.69,.44-1.78,1.11-3.5,1.56-5.27,.18-.69,.83-1.72-.97-2.15,1.64-.25,2.91-.45,4.37-.67-.89,2.94-1.72,5.67-2.55,8.41,.11,.07,.23,.14,.34,.21,.37-.35,.74-.69,1.11-1.04l.34,.29Z"/>
  <path class="cls-7" d="M219.99,42.1c-.34,.18-.67,.48-1.01,.51-.56,.03-1.27,.05-1.65-.25-.31-.25-.4-1.02-.29-1.49,.39-1.62,.92-3.21,1.38-4.81,.1-.36,.16-.73,.24-1.09-.09-.1-.17-.19-.26-.29-.79,.56-1.57,1.13-2.36,1.69-.08-.1-.17-.19-.25-.29,.92-.88,1.77-1.88,2.8-2.61,.49-.35,1.59-.51,1.95-.21,.47,.4,.76,1.39,.63,2.03-.38,1.75-1.04,3.43-1.53,5.16-.12,.44-.02,.95-.02,1.42,.12,.08,.25,.16,.37,.23Z"/>
  <path class="cls-7" d="M118.94,16.21c-.07-.08-.14-.17-.21-.25,1.01-2.1,2.02-4.19,3.09-6.43h2.03c-.77,2.83-1.52,5.6-2.27,8.38,.16,.09,.31,.18,.47,.27,.26-.44,.52-.87,.78-1.31-.01,1.52-1.3,2.65-2.53,2.38-.43-.09-.95-.67-1.07-1.12-.13-.53,.14-1.16,.2-1.76,0-.03-.32-.1-.5-.15Z"/>
  <path class="cls-8" d="M107.06,12.55c-.07,.18-.15,.36-.24,.59,.35,0,.62,0,.89,0-.92,1.91-1.84,3.81-2.83,5.86h-2.05c.73-2.66,1.44-5.24,2.15-7.83-.11-.05-.22-.1-.33-.15-.41,.38-.81,.76-1.22,1.14-.12-.12-.24-.23-.36-.35,.72-.76,1.38-1.61,2.2-2.25,.35-.28,1.2-.37,1.52-.14,.4,.28,.61,.99,.66,1.53,.04,.52-.24,1.06-.38,1.59Z"/>
  <path class="cls-8" d="M100.54,19h-2.5c.69-2.59,1.41-5.12,2.02-7.68,.11-.45-.22-1.01-.38-1.62,.93-.14,2.18-.33,3.73-.57-1,3.43-1.93,6.65-2.87,9.87Z"/>
  <path class="cls-2" d="M85.11,18.99h-2.55c.6-2.12,1.18-4.16,1.74-6.2,.13-.45,.19-.92,.33-1.36,.27-.82,.27-1.47-.83-1.67,1.3-.19,2.6-.39,4.12-.61-.97,3.4-1.89,6.63-2.81,9.85Z"/>
  <path class="cls-8" d="M191.61,36.72c-.79,1.87-1.58,3.74-2.42,5.72h-2.28c.68-2.41,1.36-4.79,2-7.17,.2-.75,.49-1.63-.84-1.78,1.33-.19,2.66-.38,3.98-.57-.19,1.06-.35,1.98-.51,2.9,0,0,.03-.03,.03-.03-.15,.13-.3,.25-.45,.38,.14,.04,.29,.08,.43,.12,.02,.14,.04,.29,.05,.43Z"/>
  <path class="cls-2" d="M250.31,36.64c-.86,1.89-1.73,3.79-2.65,5.81h-2.18c.67-2.36,1.33-4.68,1.99-7.01,.24-.84,.34-1.62-.8-1.97,1.3-.19,2.61-.38,4.07-.59-.41,1.33-.77,2.49-1.16,3.75,.23-.13,.37-.21,.51-.29,.07,.1,.14,.2,.21,.3Z"/>
  <path class="cls-7" d="M191.61,36.72c-.02-.14-.04-.29-.05-.43,0-.17,.01-.34,.02-.5,0,0-.03,.03-.03,.03,.59-.64,1.16-1.29,1.77-1.91,.65-.68,1.45-1.34,2.36-.76,.95,.6,.77,1.6,.31,2.52-.05,.1,0,.25,0,.38,.18,.52-1.17,1.04,.01,1.55-.68,1.6-1.36,3.2-2.07,4.87h-2.18c.69-2.57,1.37-5.08,2.05-7.59-.12-.07-.25-.14-.37-.2-.6,.68-1.2,1.36-1.8,2.04Z"/>
  <path class="cls-8" d="M213.45,42.46h-2.24c.65-2.23,1.32-4.41,1.92-6.61,.24-.87,.68-1.9-1.13-2.31,1.68-.25,3-.44,4.48-.66-.24,.82-.47,1.46-.6,2.11-.13,.69-.15,1.41-.24,2.11-.04,.29-.11,.58-.22,.85-.62,1.44-1.25,2.88-1.97,4.51Z"/>
  <path class="cls-5" d="M226.84,46.02c.58-.42,.99-.7,1.37-.99,1.08-.84,1.1-1.37,.25-2.45-.34-.44-.78-1.21-.62-1.53,.3-.58,.99-1.22,1.6-1.31,.9-.13,1.46,.62,1.51,1.55,.1,1.71-1.14,4.16-4.12,4.73Z"/>
  <path class="cls-9" d="M266.35,39.65c.97,.08,1.56,.57,1.67,1.5,.1,.83-.75,1.66-1.63,1.61-.94-.05-1.52-.55-1.53-1.54,0-1,.6-1.44,1.48-1.57Z"/>
  <path class="cls-5" d="M140.16,4.65c.37,.63,.95,1.23,1.07,1.9,.14,.81-.48,1.37-1.34,1.38-.86,.01-1.5-.53-1.37-1.35,.11-.68,.68-1.29,1.04-1.93,.2,0,.4,0,.6,0Z"/>
  <path class="cls-10" d="M109.58,36.43s-.07-.09-.11-.14c-.02,.07-.04,.14-.05,.22,0,.03,.04,.06,.06,.1,.03-.06,.07-.12,.1-.18Z"/>
  <path class="cls-2" d="M250.31,36.06c.07,.1,.15,.21,.22,.31-.07,.09-.15,.18-.22,.26-.07-.1-.14-.2-.21-.3,.07-.09,.14-.19,.21-.28Z"/>
  <path class="cls-4" d="M138.06,38.03c.23-1.53,.82-2.86,1.93-3.91,.23-.22,.68-.22,1.03-.32,.07,.35,.25,.71,.19,1.04-.27,1.63-1.57,2.95-3.15,3.19Z"/>
</svg>