<?xml version="1.0" encoding="utf-8"?>
<!-- Generator: Adobe Illustrator 24.0.0, SVG Export Plug-In . SVG Version: 6.00 Build 0)  -->
<svg version="1.1" id="Layer_1" xmlns="http://www.w3.org/2000/svg" xmlns:xlink="http://www.w3.org/1999/xlink" x="0px" y="0px"
	 viewBox="0 0 465.1 120.3" style="enable-background:new 0 0 465.1 120.3;" xml:space="preserve">
<style type="text/css">
	.st0{fill:#005D74;}
	.st1{fill:#04BDBF;}
</style>
<g>
	<g>
		<path class="st0" d="M231.1,54.7c5.6,0,9.6,1.9,13.4,5.2c0.5,0.4,0.5,1.1,0.1,1.6l-2.4,2.5c-0.4,0.5-0.9,0.5-1.4,0
			c-2.6-2.3-6.2-3.7-9.6-3.7c-7.9,0-13.9,6.7-13.9,14.4c0,7.8,6,14.4,14,14.4c4,0,6.9-1.6,9.5-3.7c0.5-0.4,1-0.3,1.3-0.1l2.6,2.5
			c0.4,0.4,0.3,1.1-0.1,1.5c-3.8,3.7-8.5,5.4-13.5,5.4c-11.1,0-20-8.8-20-19.9C211,63.6,220,54.7,231.1,54.7z"/>
		<path class="st0" d="M269.4,54.7c11.1,0,20,8.9,20,20c0,11.1-8.9,19.9-20,19.9c-11.1,0-19.9-8.8-19.9-19.9
			C249.5,63.6,258.3,54.7,269.4,54.7z M269.4,89.1c7.9,0,14.4-6.4,14.4-14.4c0-7.9-6.5-14.5-14.4-14.5c-7.9,0-14.4,6.6-14.4,14.5
			C255,82.7,261.5,89.1,269.4,89.1z"/>
		<path class="st0" d="M301.5,55.5c0.1-0.4,0.6-0.8,1-0.8h0.9c0.3,0,0.8,0.3,0.9,0.6l11.6,28.3h0.2l11.5-28.3
			c0.1-0.3,0.6-0.6,0.9-0.6h0.9c0.4,0,0.9,0.4,1,0.8l6.8,37.3c0.2,0.8-0.2,1.3-1,1.3h-3.6c-0.5,0-0.9-0.4-1.1-0.8l-4.1-24.8
			c-0.1,0-0.2,0-0.2,0l-10,25.5c-0.1,0.3-0.4,0.6-0.9,0.6h-1c-0.4,0-0.8-0.3-0.9-0.6l-10-25.5c-0.1,0-0.2,0-0.2,0l-4,24.8
			c-0.1,0.4-0.6,0.8-1,0.8h-3.6c-0.8,0-1.2-0.5-1.1-1.3L301.5,55.5z"/>
		<path class="st0" d="M345.4,56.3c0-0.6,0.4-1.1,1.1-1.1h12.6c6.8,0,12.4,5.5,12.4,12.3c0,6.9-5.6,12.5-12.4,12.5h-8v13
			c0,0.6-0.5,1.1-1.1,1.1h-3.6c-0.6,0-1.1-0.5-1.1-1.1V56.3z M358.8,74.6c3.8,0,7-3.1,7-7.1c0-3.8-3.2-6.7-7-6.7h-7.7v13.8H358.8z"
			/>
		<path class="st0" d="M371.3,92.6l17-37.3c0.2-0.3,0.7-0.6,0.9-0.6h0.6c0.3,0,0.8,0.3,0.9,0.6l16.9,37.3c0.3,0.7-0.1,1.4-0.9,1.4
			h-3.5c-0.7,0-1.1-0.3-1.3-0.8l-3.4-7.6h-18.1c-1.1,2.6-2.3,5-3.4,7.6c-0.2,0.4-0.6,0.8-1.3,0.8h-3.5
			C371.4,94.1,370.9,93.4,371.3,92.6z M396.4,80.9l-6.8-15.2h-0.3l-6.8,15.2H396.4z"/>
		<path class="st0" d="M410.7,88.5c0.5-0.7,0.9-1.6,1.4-2.3c0.5-0.7,1.3-0.9,1.9-0.4c0.3,0.3,4.6,3.8,8.9,3.8c3.8,0,6.3-2.3,6.3-5.2
			c0-3.3-2.9-5.4-8.4-7.7c-5.7-2.4-10.1-5.3-10.1-11.8c0-4.3,3.3-10.3,12.1-10.3c5.5,0,9.7,2.9,10.3,3.3c0.4,0.3,0.9,1.1,0.3,1.9
			c-0.4,0.7-0.9,1.4-1.4,2.1c-0.4,0.7-1.2,1.1-1.9,0.6c-0.4-0.2-4.3-2.8-7.5-2.8c-4.7,0-6.3,2.9-6.3,5c0,3.2,2.4,5.1,7,7
			c6.4,2.6,11.9,5.7,11.9,12.4c0,5.8-5.2,10.5-12.4,10.5c-6.8,0-11-3.5-11.9-4.4C410.5,89.8,410.1,89.4,410.7,88.5z"/>
		<path class="st0" d="M440.4,88.5c0.5-0.7,0.9-1.6,1.4-2.3c0.5-0.7,1.3-0.9,1.9-0.4c0.3,0.3,4.6,3.8,8.9,3.8c3.8,0,6.3-2.3,6.3-5.2
			c0-3.3-2.9-5.4-8.4-7.7c-5.7-2.4-10.1-5.3-10.1-11.8c0-4.3,3.3-10.3,12.1-10.3c5.5,0,9.7,2.9,10.3,3.3c0.4,0.3,0.9,1.1,0.3,1.9
			c-0.4,0.7-0.9,1.4-1.4,2.1c-0.4,0.7-1.2,1.1-1.9,0.6c-0.4-0.2-4.3-2.8-7.5-2.8c-4.7,0-6.3,2.9-6.3,5c0,3.2,2.4,5.1,7,7
			c6.4,2.6,11.9,5.7,11.9,12.4c0,5.8-5.2,10.5-12.4,10.5c-6.8,0-11-3.5-11.9-4.4C440.3,89.8,439.9,89.4,440.4,88.5z"/>
		<path class="st1" d="M293.5,101.5c0-0.1,0.2-0.2,0.3-0.2h0.3c0.1,0,0.2,0.1,0.3,0.2l3.5,8.5h0.1l3.4-8.5c0-0.1,0.2-0.2,0.3-0.2
			h0.3c0.1,0,0.3,0.1,0.3,0.2l2,11.1c0,0.2-0.1,0.4-0.3,0.4h-1.1c-0.1,0-0.3-0.1-0.3-0.2l-1.2-7.4c0,0,0,0,0,0l-3,7.6
			c0,0.1-0.1,0.2-0.3,0.2h-0.3c-0.1,0-0.2-0.1-0.3-0.2l-3-7.6c0,0,0,0-0.1,0l-1.2,7.4c0,0.1-0.2,0.2-0.3,0.2h-1.1
			c-0.2,0-0.3-0.1-0.3-0.4L293.5,101.5z"/>
		<path class="st1" d="M310,101.7c0-0.2,0.1-0.3,0.3-0.3h6.6c0.2,0,0.3,0.1,0.3,0.3v0.9c0,0.2-0.1,0.3-0.3,0.3h-5.2v3.4h4.4
			c0.2,0,0.3,0.1,0.3,0.3v0.9c0,0.2-0.1,0.3-0.3,0.3h-4.4v3.6h5.2c0.2,0,0.3,0.1,0.3,0.3v0.9c0,0.2-0.1,0.3-0.3,0.3h-6.6
			c-0.2,0-0.3-0.1-0.3-0.3V101.7z"/>
		<path class="st1" d="M323.1,101.7c0-0.2,0.1-0.3,0.3-0.3h3.8c3.2,0,5.8,2.6,5.8,5.8c0,3.2-2.6,5.8-5.8,5.8h-3.8
			c-0.2,0-0.3-0.1-0.3-0.3V101.7z M326.9,111.4c2.4,0,4.2-1.8,4.2-4.2c0-2.4-1.8-4.2-4.2-4.2h-2.2v8.5H326.9z"/>
		<path class="st1" d="M338.7,101.7c0-0.2,0.1-0.3,0.3-0.3h1.1c0.2,0,0.3,0.1,0.3,0.3v11c0,0.2-0.1,0.3-0.3,0.3H339
			c-0.2,0-0.3-0.1-0.3-0.3V101.7z"/>
		<path class="st1" d="M352.1,101.2c1.7,0,2.9,0.6,4,1.5c0.1,0.1,0.1,0.3,0,0.5l-0.7,0.7c-0.1,0.1-0.3,0.1-0.4,0
			c-0.8-0.7-1.8-1.1-2.9-1.1c-2.4,0-4.2,2-4.2,4.3s1.8,4.3,4.2,4.3c1.2,0,2.1-0.5,2.9-1.1c0.1-0.1,0.3-0.1,0.4,0l0.8,0.7
			c0.1,0.1,0.1,0.3,0,0.4c-1.1,1.1-2.6,1.6-4,1.6c-3.3,0-6-2.6-6-5.9C346.1,103.9,348.8,101.2,352.1,101.2z"/>
		<path class="st1" d="M360.3,112.6l5.1-11.2c0-0.1,0.2-0.2,0.3-0.2h0.2c0.1,0,0.2,0.1,0.3,0.2l5.1,11.2c0.1,0.2,0,0.4-0.3,0.4h-1
			c-0.2,0-0.3-0.1-0.4-0.2l-1-2.3H363c-0.3,0.8-0.7,1.5-1,2.3c0,0.1-0.2,0.2-0.4,0.2h-1C360.3,113,360.2,112.8,360.3,112.6z
			 M367.8,109.1l-2-4.5h-0.1l-2,4.5H367.8z"/>
		<path class="st1" d="M376.1,101.7c0-0.2,0.1-0.3,0.3-0.3h1.1c0.2,0,0.3,0.1,0.3,0.3v9.7h4.5c0.2,0,0.3,0.1,0.3,0.3v0.9
			c0,0.2-0.1,0.3-0.3,0.3h-5.9c-0.2,0-0.3-0.1-0.3-0.3V101.7z"/>
		<path class="st1" d="M399.8,101.2c1.7,0,2.9,0.6,4,1.5c0.1,0.1,0.1,0.3,0,0.5l-0.7,0.7c-0.1,0.1-0.3,0.1-0.4,0
			c-0.8-0.7-1.8-1.1-2.9-1.1c-2.4,0-4.2,2-4.2,4.3s1.8,4.3,4.2,4.3c1.2,0,2.1-0.5,2.9-1.1c0.1-0.1,0.3-0.1,0.4,0l0.8,0.7
			c0.1,0.1,0.1,0.3,0,0.4c-1.1,1.1-2.6,1.6-4,1.6c-3.3,0-6-2.6-6-5.9C393.8,103.9,396.5,101.2,399.8,101.2z"/>
		<path class="st1" d="M409.5,101.7c0-0.2,0.1-0.3,0.3-0.3h1.1c0.2,0,0.3,0.1,0.3,0.3v9.7h4.5c0.2,0,0.3,0.1,0.3,0.3v0.9
			c0,0.2-0.1,0.3-0.3,0.3h-5.9c-0.2,0-0.3-0.1-0.3-0.3V101.7z"/>
		<path class="st1" d="M421.1,101.7c0-0.2,0.1-0.3,0.3-0.3h1.1c0.2,0,0.3,0.1,0.3,0.3v11c0,0.2-0.1,0.3-0.3,0.3h-1.1
			c-0.2,0-0.3-0.1-0.3-0.3V101.7z"/>
		<path class="st1" d="M429.4,101.5c0-0.2,0.1-0.3,0.3-0.3h0.4l7.2,8.3h0v-7.8c0-0.2,0.1-0.3,0.3-0.3h1.1c0.2,0,0.3,0.1,0.3,0.3
			v11.2c0,0.2-0.1,0.3-0.3,0.3h-0.4l-7.2-8.6h0v8.1c0,0.2-0.1,0.3-0.3,0.3h-1c-0.2,0-0.3-0.1-0.3-0.3V101.5z"/>
		<path class="st1" d="M445.6,101.7c0-0.2,0.1-0.3,0.3-0.3h1.1c0.2,0,0.3,0.1,0.3,0.3v11c0,0.2-0.1,0.3-0.3,0.3h-1.1
			c-0.2,0-0.3-0.1-0.3-0.3V101.7z"/>
		<path class="st1" d="M458.9,101.2c1.7,0,2.9,0.6,4,1.5c0.1,0.1,0.1,0.3,0,0.5l-0.7,0.7c-0.1,0.1-0.3,0.1-0.4,0
			c-0.8-0.7-1.8-1.1-2.9-1.1c-2.4,0-4.2,2-4.2,4.3s1.8,4.3,4.2,4.3c1.2,0,2.1-0.5,2.9-1.1c0.1-0.1,0.3-0.1,0.4,0l0.8,0.7
			c0.1,0.1,0.1,0.3,0,0.4c-1.1,1.1-2.6,1.6-4,1.6c-3.3,0-6-2.6-6-5.9C453,103.9,455.6,101.2,458.9,101.2z"/>
	</g>
	<g>
		<path class="st0" d="M95.9,22.7c-5.1-1.7-9.2-5.6-11.3-10.5h0H47.3c-1.1,0-1.4,1.6-0.4,2l7.5,2.8c0.7,0.3,1.4,0.4,2.1,0.4l25.8,1
			c0.6,0,1.2,0.3,1.6,0.8c3,3.8,7.3,6.7,12.2,7.9L95.9,22.7z"/>
		<path class="st0" d="M156.2,12.2h-37.4h0c-2,4.9-6.2,8.8-11.3,10.5l-0.2,4.5c4.9-1.3,9.1-4.1,12.2-7.9c0.4-0.5,0.9-0.8,1.6-0.8
			l25.8-1c0.7,0,1.5-0.2,2.1-0.4l7.5-2.8C157.7,13.7,157.4,12.2,156.2,12.2z"/>
		<circle class="st0" cx="101.8" cy="5.1" r="5.1"/>
		<g>
			<path class="st0" d="M97,53.2l-0.8-21.1c-3.7,2-6.3,5.8-6.3,10.3C90,47.2,92.9,51.3,97,53.2z"/>
			<path class="st0" d="M97.3,59.2c-3.2,1.6-5.3,4.9-5.3,8.7c0,4.1,2.5,7.6,6,9.1L97.3,59.2z"/>
			<path class="st0" d="M106.5,53.2c4.1-1.8,7-5.9,7-10.8c0-4.5-2.6-8.4-6.3-10.3L106.5,53.2z"/>
			<path class="st0" d="M98.2,83.9c-1.6,1.1-2.6,3-2.6,5c0,2.2,1.2,4.2,3,5.3L98.2,83.9z"/>
			<path class="st0" d="M105.4,83.9L105,94.3c1.8-1.1,3-3,3-5.3C108,86.9,107,85.1,105.4,83.9z"/>
			<path class="st0" d="M106.3,59.2L105.7,77c3.5-1.5,6-5,6-9.1C111.6,64.1,109.5,60.8,106.3,59.2z"/>
		</g>
		<g>
			<path class="st0" d="M103,96.8l3-83.3c0,0,0,0,0-0.1c-1.3,0.7-2.7,1.1-4.3,1.1c-1.5,0-3-0.4-4.3-1.1c0,0,0,0,0,0.1l3,83.9
				C101.4,97.2,102.2,97,103,96.8z"/>
			<path class="st0" d="M100.9,108.5l0.4,11.4c0,0.5,0.8,0.5,0.8,0l0.4-11.8C102.1,108.2,101.5,108.3,100.9,108.5z"/>
		</g>
		<path class="st1" d="M201.6,46.5c-4-15-41.2-18.6-87.3-9.6c0.7,1.7,1.2,3.5,1.2,5.5c0,0.4-0.1,0.8-0.1,1.2
			c44.8-9.3,80.6-8.2,83.7,3.6c3.6,13.6-37.4,36.2-91.6,50.5c0,0,0,0-0.1,0c-4.6,1.2-9.2,2.3-13.7,3.3C45.6,112,6.2,111.4,2.9,99
			c-3.5-13.2,35.3-35,87.3-49.3c-1.2-1.9-1.9-4.2-2.1-6.6C34.9,57.9-4.1,82.9,0.3,99.7c4.3,16.2,47.4,19.1,98.6,7.2l5.6-1.4
			c1.3-0.3,2.6-0.7,4-1c0,0,0,0,0.1,0l0,0c0.2-0.1,0.4-0.1,0.6-0.1C164.8,89.7,206.1,63.8,201.6,46.5z"/>
		<path class="st0" d="M231.3,37.3l-9.6,0.2c-2.1,0.1-4.2-0.7-5.9-2l-1.1-0.9c-0.5-0.4-1.2,0.1-1,0.6l1.3,4.8L110,67.3V70
			l121.5-31.5C232.2,38.3,232.1,37.2,231.3,37.3z"/>
	</g>
</g>
</svg>
