<svg width="279" height="80" fill="none" xmlns="http://www.w3.org/2000/svg"><g clip-path="url(#clip0)"><path fill="#fff" d="M0 0h278.947v80H0z"/><path d="M137.638 73.61h9.158v-3.467h-9.137v-2.49h9.887v-3.445h-14.982v15.293h15.156v-3.467h-10.104l.022-2.424zm-27.027-3.814h-6.206v-5.588h-5.131v15.293h5.131v-5.87h6.206v5.87h5.153V64.208h-5.153v5.588zM5.507 28.363A32.923 32.923 0 00-.003 46.6a32.924 32.924 0 005.51 18.238l10.919-7.302a19.769 19.769 0 010-21.871L5.507 28.363zm65.94-1.195a20.577 20.577 0 00-8.805 1.969V0H49.904v55.278l12.767.094V46.89a8.902 8.902 0 013.127-5.76 8.853 8.853 0 0112.134.736 8.908 8.908 0 012.412 6.095V80h11.857V47.96a20.837 20.837 0 00-1.578-7.962 20.79 20.79 0 00-4.5-6.75 20.724 20.724 0 00-6.735-4.505 20.676 20.676 0 00-7.942-1.575zM40.774 51.587c-.44 0-.592.159-1.06.152a.44.44 0 01-.383-.42c0-1.216 1.934-2.895 1.941-4.031 0-.492-.483-.724-1.017-.724-1.4 0-3.291 1.585-4.525 1.578-.6 0-.722-.268-.722-.514 0-1.795 6.235-4.342 6.242-6.456-.39-2.301-5.773 1.846-4.777-2.359 1.14-3.713 3.76-4.646 2.165-6.42-3.154-2.569-7.895 3.243-9.743 3.236-1.327 0-1.486-1.86-3.377-.92-1.89.941-.166 4.459-.173 5.848 0 .246-.202.34-.433.34-.722 0-2.995-2.967-3.746.095 0 2.699 3.104 4.971 3.096 6.376 0 .274-.296.376-.635.376-1.125 0-3.37-1.788-3.969.818 0 2.17 4.135 4.414 4.128 6.007 0 1.013-1.443.984-1.443 1.657 0 1.382 1.176 2.685 3.399 3.488a60.651 60.651 0 016.625 2.895c.202.101.433-.101.303-.275-11.338-13.794 1.126-27.002 1.948-27.002.188 0 .217.109.217.304-4.034 3.713-6.264 14.322-3.284 21.285a18.2 18.2 0 005.774 7.36 17.047 17.047 0 001.97-.594c-1.833-1.107-3.306-2.612-3.147-3.777 0-1.76 5.774-5.74 5.774-7.238a1.101 1.101 0 00-1.148-1.085zm163.588 12.621h-5.116v15.293h12.362v-3.728h-7.217l-.029-11.565zm69.432 5.588h-6.206v-5.588h-5.131v15.293h5.131v-5.87h6.206v5.87h5.153V64.208h-5.153v5.588zm-64.892-14.598a16.388 16.388 0 01-1.314 2.07h71.359v-2.07h-70.045zm-39.028 9.01l-6.12 15.293h5.571l.765-2.49h5.442l.765 2.49h5.564l-6.163-15.293h-5.824zm1.284 9.409l1.631-5.175 1.675 5.175h-3.306zM99.274 55.198v2.07h89.256a2.984 2.984 0 01.137-2.07H99.274zm131.185 12.434h5.052V79.5h5.131V67.63h5.052v-3.444h-15.235v3.445z" fill="#33526D"/><path d="M19.21 32.343a19.538 19.538 0 0125.027-1.751V15.755a32.744 32.744 0 00-11.43-2.055h-.065a32.626 32.626 0 00-12.522 2.482 32.699 32.699 0 00-10.622 7.1 31.783 31.783 0 00-1.494 1.614l11.107 7.447zm43.575 27.465H47.356a19.595 19.595 0 01-6.266 4.666 19.547 19.547 0 01-21.88-3.616l-11.07 7.41c.6.68 1.213 1.34 1.862 1.976a32.635 32.635 0 0022.77 9.228h.064a32.65 32.65 0 0022.733-9.199h-.036a32.908 32.908 0 007.252-10.465zM99.2 30.787v-.108c0-10.77 7.881-19.584 19.183-19.584 6.935 0 11.085 2.38 14.505 5.84l-5.152 6.116c-2.836-2.65-5.73-4.278-9.382-4.278-6.199 0-10.666 5.305-10.666 11.797v.108c0 6.514 4.33 11.899 10.666 11.899 4.2 0 6.776-1.73 9.67-4.437l5.146 5.356c-3.782 4.168-7.989 6.76-15.083 6.76-10.847 0-18.886-8.599-18.886-19.469zm35.031 4.487v-.108a15.042 15.042 0 014.469-10.783 14.968 14.968 0 014.977-3.252 14.93 14.93 0 015.846-1.055c8.718 0 15.155 6.651 15.155 14.981v.108a15.012 15.012 0 01-4.47 10.782 14.953 14.953 0 01-10.822 4.308c-8.66 0-15.155-6.65-15.155-14.98zm22.595 0v-.108c0-4.27-2.995-8.005-7.411-8.005-4.568 0-7.304 3.619-7.304 7.896v.108c0 4.278 2.995 8.005 7.412 8.005 4.59 0 7.325-3.619 7.325-7.896h-.022zm11.576-14.655h7.989v5.84c1.631-4.002 4.258-6.6 8.985-6.383v8.598h-.419c-5.304 0-8.566 3.3-8.566 10.226v10.71h-7.989V20.619zm23.021 35.831l2.706-5.978a7.09 7.09 0 003.414 1.136c1.364 0 2.1-.434 2.786-1.888l-11.064-29.101h8.473l6.415 19.743 6.142-19.743h8.306L207.776 50.29c-2.165 5.891-4.467 8.113-9.244 8.113a12.914 12.914 0 01-7.109-1.954zm28.42-21.176v-.108c0-8.28 5.73-15.09 13.928-15.09 9.382 0 13.712 7.52 13.712 15.74 0 .645-.051 1.405-.101 2.172h-19.601c.787 3.727 3.312 5.681 6.885 5.681 2.677 0 4.626-.868 6.827-2.981l4.597 4.183c-2.627 3.35-6.409 5.406-11.547 5.406-8.444-.022-14.7-6.13-14.7-15.003zm19.867-2.432c-.476-3.683-2.576-6.166-5.939-6.166s-5.463 2.432-6.098 6.166h12.037zm11.626-22.71h7.405v27.43c0 4.667 1.833 5.507 4.12 5.507a12.52 12.52 0 001.299-.073v6.586a20.81 20.81 0 01-2.446.152c-4.193 0-10.378-1.15-10.378-10.856V10.132zm14.513 0h7.404v27.43c0 4.667 1.833 5.507 4.121 5.507a12.52 12.52 0 001.299-.073v6.586a20.93 20.93 0 01-2.439.152c-4.2 0-10.385-1.15-10.385-10.856V10.132z" fill="#72BF44"/></g><defs><clipPath id="clip0"><path fill="#fff" d="M0 0h278.947v80H0z"/></clipPath></defs></svg>