<?xml version="1.0" encoding="utf-8"?>
<!-- Generator: Adobe Illustrator 22.0.1, SVG Export Plug-In . SVG Version: 6.00 Build 0)  -->
<svg version="1.2" baseProfile="tiny" id="Layer_1" xmlns="http://www.w3.org/2000/svg" xmlns:xlink="http://www.w3.org/1999/xlink"
	 x="0px" y="0px" viewBox="0 0 178.7 44.4" xml:space="preserve">
<g>
	<g>
		<g>
			<path d="M57,1.8c-5.2,0-9.3,4-9.3,9.2c0,5,4.1,9,9.1,9c1.6,0,3.3-0.5,4.6-1.2l0.2-0.1v-3.4L61,15.8c-1.2,1.1-2.7,1.7-4.3,1.7
				c-3.5,0-6.3-2.9-6.3-6.5c0-3.6,2.8-6.6,6.3-6.6c1.5,0,3.1,0.6,4.2,1.6l0.5,0.5V3.1L61.4,3C60.1,2.2,58.6,1.8,57,1.8z"/>
			<path d="M73.1,1.8c-5,0-9.2,4.1-9.2,9.1c0,5.1,4,9.1,9.2,9.1c5.1,0,9.2-4,9.2-9.1C82.3,5.9,78.2,1.8,73.1,1.8z M73.1,17.4
				c-3.5,0-6.4-2.9-6.4-6.5c0-3.7,2.7-6.5,6.4-6.5c3.6,0,6.4,2.8,6.4,6.5C79.5,14.5,76.6,17.4,73.1,17.4z"/>
			<polygon points="95.9,19.6 95.9,17.1 87.6,17.1 96.2,2.1 84.5,2.1 84.5,4.7 91.6,4.7 83.1,19.6 			"/>
			<polygon points="108.7,17.1 101.8,17.1 101.8,11.3 108.5,11.3 108.5,8.8 101.8,8.8 101.8,4.7 108.7,4.7 108.7,2.1 99,2.1 
				99,19.6 108.7,19.6 			"/>
			<polygon points="115,8.2 127.6,20.1 127.6,2.1 124.8,2.1 124.8,13.5 112.2,1.6 112.2,19.6 115,19.6 			"/>
		</g>
		<g>
			<polygon points="69.7,22.7 66.9,30.2 68.8,31 72.3,23.8 			"/>
			<g>
				<path d="M56.9,26.1c-5,0-9.2,4.1-9.2,9.1c0,5.1,4,9.1,9.2,9.1c5.1,0,9.2-4,9.2-9.1C66,30.2,61.9,26.1,56.9,26.1z M56.9,41.7
					c-3.5,0-6.4-2.9-6.4-6.5c0-3.7,2.8-6.5,6.4-6.5c3.6,0,6.4,2.8,6.4,6.5C63.2,38.8,60.4,41.7,56.9,41.7z"/>
				<path d="M80.1,26.1c-5.2,0-9.3,4-9.3,9.2c0,5,4.1,9,9.1,9c1.6,0,3.3-0.5,4.6-1.2l0.2-0.1v-3.4l-0.5,0.5
					c-1.2,1.1-2.7,1.7-4.3,1.7c-3.5,0-6.3-2.9-6.3-6.5c0-3.6,2.8-6.6,6.3-6.6c1.5,0,3.1,0.6,4.2,1.6l0.5,0.5v-3.4l-0.2-0.1
					C83.3,26.5,81.8,26.1,80.1,26.1z"/>
				<path d="M96.3,26.1c-5,0-9.2,4.1-9.2,9.1c0,5.1,4,9.1,9.2,9.1c5.1,0,9.2-4,9.2-9.1C105.4,30.2,101.3,26.1,96.3,26.1z M96.3,41.7
					c-3.5,0-6.4-2.9-6.4-6.5c0-3.7,2.7-6.5,6.4-6.5c3.6,0,6.4,2.8,6.4,6.5C102.6,38.8,99.8,41.7,96.3,41.7z"/>
				<polygon points="121,37.8 108.3,25.9 108.3,43.9 111.1,43.9 111.1,32.5 123.7,44.4 123.7,26.4 121,26.4 				"/>
				<polygon points="140.2,37.8 127.6,25.9 127.6,43.9 130.3,43.9 130.3,32.5 143,44.4 143,26.4 140.2,26.4 				"/>
				<path d="M155,26.1c-5,0-9.2,4.1-9.2,9.1c0,5.1,4,9.1,9.2,9.1c5.1,0,9.2-4,9.2-9.1C164.2,30.2,160.1,26.1,155,26.1z M155,41.7
					c-3.5,0-6.4-2.9-6.4-6.5c0-3.7,2.8-6.5,6.4-6.5c3.6,0,6.4,2.8,6.4,6.5C161.4,38.8,158.6,41.7,155,41.7z"/>
				<path d="M177.2,31.6c0-1.8-0.9-3.4-2.4-4.3c-1.5-0.8-3.2-0.8-4.6-0.8h-2.9v17.5h2.8v-7.1h0.4l5,7.1h3.4l-5.4-7.4
					C175.6,36,177.2,34,177.2,31.6z M174.5,31.7c0,1.9-1.2,2.8-4.1,2.8H170V29h0.2C173.2,29,174.5,29.8,174.5,31.7z"/>
			</g>
		</g>
	</g>
	<g>
		<path fill="#633119" d="M40.3,20.1c-1.3-3.7-5.4-6.1-9.8-7.6c2.8,1.9,5.2,4.3,5.9,7.3c0.6,2.9-1,5.8-4.7,8.6l-4.8,2.9
			c-0.1,0.1-4,2-3.3,6.2l0.8,3.5C30.2,38.7,44.4,31.8,40.3,20.1z"/>
		<path fill="#B32317" d="M1.1,31.1C3.6,38.3,13,42,21.6,43.9C15.7,41,9.9,36.8,8.6,31c-1.2-5.4,3.8-11.2,14-16.1c2-1.2,5-3.8,4.5-8
			L25.6,0C17.9,2.9-5.2,13.1,1.1,31.1z"/>
	</g>
</g>
</svg>
