<svg xmlns="http://www.w3.org/2000/svg" xmlns:xlink="http://www.w3.org/1999/xlink" width="415.834" height="76.119" viewBox="0 0 415.834 76.119"><defs><style>.a{fill:none;}.b{clip-path:url(#a);}.c{fill:#0064bf;}.d{fill:#0099dc;}</style><clipPath id="a"><rect class="a" width="415.834" height="76.119"/></clipPath></defs><g class="b"><path class="c" d="M264.514,4.744Q260.091.882,252.014.882H238.565a10.078,10.078,0,0,0-5.951,2.026V42.216h13.68V31.485h5.72q8.078,0,12.5-4.157t4.422-11.645q0-7.076-4.422-10.938M254.755,19.78a4.43,4.43,0,0,1-3.449,1.327h-5.012V11.26h5.012a4.543,4.543,0,0,1,3.449,1.267,4.967,4.967,0,0,1,1.209,3.567,5.274,5.274,0,0,1-1.209,3.685" transform="translate(-122.238 -0.463)"/><rect class="c" width="13.68" height="41.334" transform="translate(84.487 0.419)"/><path class="c" d="M138.8,35.553a26.71,26.71,0,0,1-6.6,4.4,22.278,22.278,0,0,1-20.394-.519,19.753,19.753,0,0,1-7.634-7.6,21.713,21.713,0,0,1-2.765-10.917,20.633,20.633,0,0,1,2.823-10.745,19.994,19.994,0,0,1,7.806-7.461A23.209,23.209,0,0,1,123.3,0a22.969,22.969,0,0,1,9.275,2.045,24.275,24.275,0,0,1,6.545,4.232l-6.541,10.3a14.666,14.666,0,0,0-4.239-3.933,9.362,9.362,0,0,0-4.857-1.526h-.01a7.784,7.784,0,0,0-4.292,1.238,8.279,8.279,0,0,0-3,3.428,11.172,11.172,0,0,0-1.065,4.955,11.355,11.355,0,0,0,1.065,4.983,8.43,8.43,0,0,0,3,3.485,7.65,7.65,0,0,0,4.292,1.268,10.279,10.279,0,0,0,4.695-1.3,16.007,16.007,0,0,0,4.411-3.371Z" transform="translate(-53.291 -0.001)"/><path class="d" d="M201.631,5.518,201.313,6,178.336,42.217h13.68L218.242.883h-8.2a10.188,10.188,0,0,0-8.411,4.635" transform="translate(-93.715 -0.464)"/><path class="c" d="M0,48.4A37.451,37.451,0,0,0,39.455,59.58v7.605H0Z" transform="translate(0 -25.432)"/><path class="c" d="M0,19.67A37.451,37.451,0,0,1,39.455,8.487V.882H0Z" transform="translate(0 -0.463)"/><path class="d" d="M35.054,39.814l-.016.086a11.545,11.545,0,0,0,0,4.19l.016.086L43.386,42Z" transform="translate(-18.312 -20.922)"/><path class="d" d="M44.178,22.691l-.077.042a11.642,11.642,0,0,0-3.274,2.615l-.058.066,6.9,5.153Z" transform="translate(-21.424 -11.924)"/><path class="d" d="M70.306,25.467l.07-.052-.057-.066a11.638,11.638,0,0,0-3.274-2.615l-.077-.042-3.49,7.876Z" transform="translate(-33.357 -11.924)"/><path class="d" d="M66.967,57.409l.077-.041a11.646,11.646,0,0,0,3.274-2.616l.058-.066-6.9-5.153Z" transform="translate(-33.357 -26.029)"/><path class="d" d="M74.29,39.9l-.016-.086L65.942,42l8.332,2.182.016-.086a11.545,11.545,0,0,0,0-4.19" transform="translate(-34.652 -20.922)"/><path class="d" d="M40.84,54.633l-.07.052.057.066A11.648,11.648,0,0,0,44.1,57.368l.077.041,3.49-7.876Z" transform="translate(-21.425 -26.029)"/><path class="d" d="M73.749,33.739l-.023-.084a11.568,11.568,0,0,0-1.819-3.775l-.052-.071-6.56,5.581Z" transform="translate(-34.312 -15.665)"/><path class="d" d="M49.544,58.437l.081.035a11.561,11.561,0,0,0,4.086.93l.088,0L53.526,50.8Z" transform="translate(-26.035 -26.694)"/><path class="d" d="M60.276,59.4l.087,0a11.574,11.574,0,0,0,4.087-.93l.081-.035L60.548,50.8Z" transform="translate(-31.675 -26.694)"/><path class="d" d="M64.531,20.852l-.081-.035a11.561,11.561,0,0,0-4.086-.93l-.088,0,.273,8.608Z" transform="translate(-31.675 -10.449)"/><path class="d" d="M71.855,52.834l.052-.071a11.569,11.569,0,0,0,1.82-3.775l.023-.084-8.455-1.65Z" transform="translate(-34.312 -24.831)"/><path class="d" d="M49.624,20.817l-.081.035,3.983,7.64.272-8.608-.087,0a11.566,11.566,0,0,0-4.087.93" transform="translate(-26.035 -10.449)"/><path class="d" d="M37.569,29.809l-.052.071a11.57,11.57,0,0,0-1.82,3.775l-.023.084,8.455,1.65Z" transform="translate(-18.747 -15.665)"/><path class="d" d="M35.674,48.9l.023.084a11.564,11.564,0,0,0,1.819,3.775l.052.071,6.56-5.581Z" transform="translate(-18.747 -24.831)"/><path class="c" d="M13.738,110.469a5.586,5.586,0,0,1,1.832,4.457,5.92,5.92,0,0,1-1.845,4.65,7.489,7.489,0,0,1-5.175,1.652H4.092v5.585H1.632V108.88H8.55a7.679,7.679,0,0,1,5.188,1.589m-1.755,7.519A3.64,3.64,0,0,0,13.212,115a3.507,3.507,0,0,0-1.229-2.908,5.536,5.536,0,0,0-3.536-.986l-4.355.025V119H8.447a5.431,5.431,0,0,0,3.536-1.013" transform="translate(-0.858 -57.216)"/><path class="c" d="M36,108.879h2.46v7.993H48.706v-7.993h2.485v17.934H48.706V119.1H38.459v7.711H36Z" transform="translate(-18.917 -57.216)"/><path class="c" d="M87.717,108.879l-6.712,11.785v6.149h-2.46v-6.046L71.73,108.879h2.511l5.534,9.147,5.432-9.147Z" transform="translate(-37.694 -57.216)"/><path class="c" d="M114.066,111.2a8.787,8.787,0,0,0-2.472-.4,4.563,4.563,0,0,0-2.5.6,1.871,1.871,0,0,0-.935,1.652,2.174,2.174,0,0,0,.563,1.55,3.975,3.975,0,0,0,1.384.948q.82.346,2.28.808a25.929,25.929,0,0,1,2.946,1.075,5.112,5.112,0,0,1,1.922,1.525,4.217,4.217,0,0,1,.794,2.677,4.476,4.476,0,0,1-.833,2.69,5.332,5.332,0,0,1-2.331,1.781,8.851,8.851,0,0,1-3.446.627,10.018,10.018,0,0,1-3.843-.769,10.405,10.405,0,0,1-3.228-2.049l1.1-2.126a9.246,9.246,0,0,0,2.882,1.935,7.955,7.955,0,0,0,3.113.679,4.973,4.973,0,0,0,2.831-.7,2.194,2.194,0,0,0,1.037-1.908,2.226,2.226,0,0,0-.563-1.563,3.98,3.98,0,0,0-1.422-.974,24.47,24.47,0,0,0-2.318-.794,23.587,23.587,0,0,1-2.921-1.051A5.037,5.037,0,0,1,106.2,115.9a4.161,4.161,0,0,1-.781-2.639,4.228,4.228,0,0,1,.794-2.537,5.015,5.015,0,0,1,2.229-1.69,8.714,8.714,0,0,1,3.331-.59,10.747,10.747,0,0,1,3.164.475,10.619,10.619,0,0,1,2.754,1.268l-1.025,2.2a10.315,10.315,0,0,0-2.6-1.191" transform="translate(-54.846 -56.989)"/><rect class="c" width="2.46" height="17.934" transform="translate(66.289 51.663)"/><path class="c" d="M163.111,111.336a6.9,6.9,0,0,0-8.787,2.818,6.908,6.908,0,0,0,2.511,9.441,6.814,6.814,0,0,0,3.484.922,7.02,7.02,0,0,0,2.767-.576,8,8,0,0,0,2.408-1.576l1.486,1.614a10,10,0,0,1-3.151,2.089,9.416,9.416,0,0,1-8.326-.462,9.051,9.051,0,0,1-4.586-7.955,8.828,8.828,0,0,1,1.242-4.6,8.984,8.984,0,0,1,3.4-3.292,9.538,9.538,0,0,1,4.739-1.2,9.655,9.655,0,0,1,3.625.7,8.972,8.972,0,0,1,3.036,1.986l-1.461,1.768a7.4,7.4,0,0,0-2.382-1.678" transform="translate(-79.306 -57.046)"/><rect class="c" width="2.46" height="17.934" transform="translate(90.102 51.663)"/><path class="c" d="M214.619,126.813l-1.9-4.355h-9.454l-1.87,4.355h-2.588l7.968-17.934h2.562l7.941,17.934Zm-10.376-6.584h7.532l-3.792-8.71Z" transform="translate(-104.475 -57.216)"/><path class="c" d="M254.219,108.879h2.434v17.934h-2.485L243.92,112.928v13.885H241.46V108.879h2.485l10.273,13.912Z" transform="translate(-126.887 -57.216)"/><path class="c" d="M288.5,111.2a8.781,8.781,0,0,0-2.472-.4,4.559,4.559,0,0,0-2.5.6,1.87,1.87,0,0,0-.936,1.652,2.175,2.175,0,0,0,.564,1.55,3.975,3.975,0,0,0,1.384.948q.819.346,2.28.808a25.925,25.925,0,0,1,2.946,1.075,5.112,5.112,0,0,1,1.922,1.525,4.217,4.217,0,0,1,.794,2.677,4.476,4.476,0,0,1-.832,2.69,5.333,5.333,0,0,1-2.332,1.781,8.848,8.848,0,0,1-3.446.627,10.014,10.014,0,0,1-3.843-.769,10.413,10.413,0,0,1-3.229-2.049l1.1-2.126a9.231,9.231,0,0,0,2.883,1.935,7.949,7.949,0,0,0,3.112.679,4.976,4.976,0,0,0,2.831-.7,2.195,2.195,0,0,0,1.037-1.908,2.227,2.227,0,0,0-.564-1.563,3.979,3.979,0,0,0-1.422-.974q-.859-.358-2.319-.794a23.643,23.643,0,0,1-2.921-1.051,5.032,5.032,0,0,1-1.908-1.512,4.161,4.161,0,0,1-.781-2.639,4.225,4.225,0,0,1,.794-2.537,5.017,5.017,0,0,1,2.229-1.69,8.711,8.711,0,0,1,3.33-.59,10.75,10.75,0,0,1,3.164.475,10.626,10.626,0,0,1,2.754,1.268l-1.025,2.2a10.31,10.31,0,0,0-2.6-1.191" transform="translate(-146.509 -56.989)"/><path class="c" d="M430.978,10.121a10.411,10.411,0,0,0-13.249,4.248,10.5,10.5,0,0,0,0,10.447,10.363,10.363,0,0,0,9.037,5.177,10.579,10.579,0,0,0,4.173-.87,12.058,12.058,0,0,0,3.629-2.375l2.241,2.434a15.078,15.078,0,0,1-4.751,3.148,14.2,14.2,0,0,1-12.553-.7,13.642,13.642,0,0,1-6.913-11.993,13.31,13.31,0,0,1,1.872-6.934,13.552,13.552,0,0,1,5.118-4.962,14.381,14.381,0,0,1,7.145-1.815,14.55,14.55,0,0,1,5.465,1.061,13.543,13.543,0,0,1,4.578,2.994l-2.2,2.665a11.16,11.16,0,0,0-3.591-2.53" transform="translate(-216.816 -3.116)"/><path class="c" d="M473.576,3.817a2.291,2.291,0,0,1,.637,1.661,2.291,2.291,0,0,1-.637,1.661,2.29,2.29,0,0,1-3.207,0,2.291,2.291,0,0,1-.637-1.661,2.291,2.291,0,0,1,.637-1.661,2.285,2.285,0,0,1,3.207,0m-3.38,7.493h3.591V31.743H470.2Z" transform="translate(-246.843 -1.661)"/><path class="c" d="M507.125,22.2a7.988,7.988,0,0,1,2.047,5.814v12.63h-3.591V28.976a5.02,5.02,0,0,0-5.447-5.485,6.165,6.165,0,0,0-4.461,1.759,6.9,6.9,0,0,0-1.951,4.461v10.93h-3.591V20.209h3.591v4.325q2.047-4.363,7.763-4.441a7.5,7.5,0,0,1,5.639,2.1" transform="translate(-257.563 -10.559)"/><path class="c" d="M548.4,23.3a7.115,7.115,0,0,0-3.573.888,6.3,6.3,0,0,0-2.453,2.512,7.679,7.679,0,0,0-.888,3.745,7.8,7.8,0,0,0,.87,3.747,6.361,6.361,0,0,0,2.394,2.53,6.69,6.69,0,0,0,3.5.909,9.169,9.169,0,0,0,3.554-.657,6.748,6.748,0,0,0,2.627-1.893l2.047,2.085a9.018,9.018,0,0,1-3.534,2.666,12.093,12.093,0,0,1-4.848.927,10.542,10.542,0,0,1-5.291-1.313,9.283,9.283,0,0,1-3.613-3.651,10.86,10.86,0,0,1-1.293-5.349,10.974,10.974,0,0,1,1.293-5.368,9.257,9.257,0,0,1,3.613-3.67,10.541,10.541,0,0,1,5.291-1.312,12.927,12.927,0,0,1,4.654.791,9.017,9.017,0,0,1,3.458,2.3l-1.972,2.471A8.09,8.09,0,0,0,548.4,23.3" transform="translate(-282.663 -10.559)"/><path class="c" d="M587.5,3.817a2.291,2.291,0,0,1,.637,1.661A2.291,2.291,0,0,1,587.5,7.14a2.289,2.289,0,0,1-3.207,0,2.292,2.292,0,0,1-.637-1.661,2.292,2.292,0,0,1,.637-1.661,2.284,2.284,0,0,1,3.207,0m-3.379,7.493h3.591V31.743h-3.591Z" transform="translate(-306.712 -1.661)"/><path class="c" d="M621.054,22.2a7.988,7.988,0,0,1,2.047,5.814v12.63H619.51V28.976a5.02,5.02,0,0,0-5.447-5.485A6.165,6.165,0,0,0,609.6,25.25a6.9,6.9,0,0,0-1.951,4.461v10.93H604.06V20.209h3.591v4.325q2.047-4.363,7.763-4.441a7.5,7.5,0,0,1,5.639,2.1" transform="translate(-317.432 -10.559)"/><path class="c" d="M672.286,22.2a7.988,7.988,0,0,1,2.047,5.814v12.63h-3.591V28.976a5.02,5.02,0,0,0-5.447-5.485,6.165,6.165,0,0,0-4.461,1.759,6.9,6.9,0,0,0-1.951,4.461v10.93h-3.591V20.209h3.591v4.325q2.047-4.363,7.763-4.441a7.5,7.5,0,0,1,5.639,2.1" transform="translate(-344.354 -10.559)"/><path class="c" d="M717.392,40.641V37.783q-2.281,3.012-7.146,3.012a8.135,8.135,0,0,1-3.727-.811,5.966,5.966,0,0,1-2.473-2.24,6.053,6.053,0,0,1-.869-3.205,5.243,5.243,0,0,1,2.027-4.345,9.08,9.08,0,0,1,5.659-1.643h6.489v-.966a4.22,4.22,0,0,0-1.332-3.34,5.687,5.687,0,0,0-3.883-1.179,11.117,11.117,0,0,0-6.295,2.2L704.336,22.8a18.637,18.637,0,0,1,4.075-2.067,13.882,13.882,0,0,1,4.461-.637,8.542,8.542,0,0,1,5.909,1.872,6.787,6.787,0,0,1,2.124,5.234l.038,13.441ZM715.247,36.6a4.8,4.8,0,0,0,2.105-3.225V31.333h-5.988a6.994,6.994,0,0,0-3.611.734,2.531,2.531,0,0,0-1.179,2.318,3,3,0,0,0,1.2,2.51,5.093,5.093,0,0,0,3.205.927,7.314,7.314,0,0,0,4.268-1.217" transform="translate(-369.518 -10.559)"/><path class="c" d="M759.7,34.114a8.8,8.8,0,0,1-4.79,1.506,5.444,5.444,0,0,1-3.939-1.449,5.817,5.817,0,0,1-1.507-4.384V18.47h-2.9V15.729h2.9V10.244H753.1v5.485h6.258V18.47H753.1V29.13a3.781,3.781,0,0,0,.619,2.434,2.283,2.283,0,0,0,1.854.735,6.48,6.48,0,0,0,3.167-.966Z" transform="translate(-392.321 -5.383)"/><path class="c" d="M783.819,3.817a2.291,2.291,0,0,1,.637,1.661,2.291,2.291,0,0,1-.637,1.661,2.29,2.29,0,0,1-3.207,0,2.291,2.291,0,0,1-.637-1.661,2.291,2.291,0,0,1,.637-1.661,2.285,2.285,0,0,1,3.207,0m-3.38,7.493h3.591V31.743h-3.591Z" transform="translate(-409.875 -1.661)"/><path class="c" d="M415.047,87.32h18.771V90.68H418.756v8.344h13.48v3.361h-13.48V111h15.527v3.359H415.047Z" transform="translate(-218.106 -45.887)"/><path class="c" d="M463.644,128.123a6.121,6.121,0,0,1-3.767,1.2,6.711,6.711,0,0,1-4.479-1.584l1.544-2.82a4.682,4.682,0,0,0,2.743.966q2.318,0,3.477-2.625l.773-1.816-8.459-20.2h3.785l6.489,16.377,6.141-16.377h3.67l-9.348,23.329a8.174,8.174,0,0,1-2.568,3.554" transform="translate(-239.31 -53.201)"/><path class="c" d="M515.8,103.8q2.431,2.8,2.432,7.784c0,.515-.013.9-.038,1.158H502.045a6.958,6.958,0,0,0,2.3,4.364,6.8,6.8,0,0,0,4.615,1.623,8.619,8.619,0,0,0,3.379-.657,8.1,8.1,0,0,0,2.725-1.854l1.97,2.048a10.307,10.307,0,0,1-3.631,2.51,12.076,12.076,0,0,1-4.712.889,10.848,10.848,0,0,1-5.35-1.294,9.09,9.09,0,0,1-3.631-3.649,11.758,11.758,0,0,1,0-10.719,9.424,9.424,0,0,1,3.612-3.668A10.414,10.414,0,0,1,508.612,101q4.749,0,7.185,2.8m-.811,6.161a5.92,5.92,0,0,0-6.335-5.986,6.461,6.461,0,0,0-4.5,1.621,6.823,6.823,0,0,0-2.144,4.365Z" transform="translate(-261.916 -53.073)"/><rect class="c" width="3.708" height="27.037" transform="translate(270.913 41.434)"/><path class="c" d="M608.539,103.1a7.989,7.989,0,0,1,2.047,5.814v12.63h-3.591V109.88a5.02,5.02,0,0,0-5.447-5.485,6.165,6.165,0,0,0-4.461,1.759,6.9,6.9,0,0,0-1.951,4.461v10.93h-3.591V101.113h3.591v4.325q2.047-4.363,7.763-4.441a7.5,7.5,0,0,1,5.64,2.1" transform="translate(-310.855 -53.074)"/><path class="c" d="M649.152,104.352a10.055,10.055,0,0,0-2.917-.463,4.981,4.981,0,0,0-2.607.6,2,2,0,0,0-.984,1.834,2.041,2.041,0,0,0,1.1,1.874,16.014,16.014,0,0,0,3.341,1.294,25.859,25.859,0,0,1,3.477,1.235,6.191,6.191,0,0,1,2.3,1.816,4.964,4.964,0,0,1,.946,3.166,5.014,5.014,0,0,1-2.183,4.4,9.331,9.331,0,0,1-5.427,1.505,13.568,13.568,0,0,1-4.422-.734,10.022,10.022,0,0,1-3.611-2.085l1.351-2.627a9.552,9.552,0,0,0,3.148,1.854,10.434,10.434,0,0,0,3.649.7,5.444,5.444,0,0,0,2.858-.657,2.188,2.188,0,0,0,1.081-2.008,2.284,2.284,0,0,0-1.138-2.085,15.53,15.53,0,0,0-3.457-1.39,23.169,23.169,0,0,1-3.341-1.179,5.927,5.927,0,0,1-2.2-1.757,4.745,4.745,0,0,1-.907-3.013,4.856,4.856,0,0,1,2.085-4.289,9.023,9.023,0,0,1,5.215-1.428,12.981,12.981,0,0,1,3.649.521,10.988,10.988,0,0,1,3.11,1.41l-1.314,2.743a12.267,12.267,0,0,0-2.8-1.237" transform="translate(-335.353 -53.031)"/><path class="c" d="M688.548,115.017a8.8,8.8,0,0,1-4.79,1.506,5.444,5.444,0,0,1-3.939-1.449,5.816,5.816,0,0,1-1.507-4.384V99.373h-2.9V96.632h2.9V91.147h3.631v5.485H688.2v2.741h-6.258v10.66a3.781,3.781,0,0,0,.619,2.434,2.283,2.283,0,0,0,1.854.735,6.48,6.48,0,0,0,3.167-.966Z" transform="translate(-354.929 -47.898)"/><path class="c" d="M712.667,84.72a2.484,2.484,0,0,1,0,3.322,2.289,2.289,0,0,1-3.207,0,2.485,2.485,0,0,1,0-3.322,2.285,2.285,0,0,1,3.207,0m-3.379,7.493h3.591v20.432h-3.591Z" transform="translate(-372.485 -44.175)"/><path class="c" d="M737.689,115.017a8.8,8.8,0,0,1-4.79,1.506,5.444,5.444,0,0,1-3.939-1.449,5.817,5.817,0,0,1-1.507-4.384V99.373h-2.9V96.632h2.9V91.147h3.631v5.485h6.258v2.741h-6.258v10.66a3.781,3.781,0,0,0,.619,2.434,2.283,2.283,0,0,0,1.854.735,6.48,6.48,0,0,0,3.167-.966Z" transform="translate(-380.752 -47.898)"/><path class="c" d="M776.611,101.24v20.432h-3.63v-4.325q-2.009,4.363-7.571,4.441a7.312,7.312,0,0,1-5.562-2.106,8.072,8.072,0,0,1-2.009-5.812V101.24h3.631V112.9a5.542,5.542,0,0,0,1.41,4.037,5.163,5.163,0,0,0,3.881,1.449,5.744,5.744,0,0,0,4.538-2.029,7.592,7.592,0,0,0,1.682-5.08V101.24Z" transform="translate(-398.243 -53.201)"/><path class="c" d="M817.874,115.017a8.8,8.8,0,0,1-4.79,1.506,5.444,5.444,0,0,1-3.939-1.449,5.817,5.817,0,0,1-1.507-4.384V99.373h-2.9V96.632h2.9V91.147h3.631v5.485h6.258v2.741h-6.258v10.66a3.781,3.781,0,0,0,.619,2.434,2.283,2.283,0,0,0,1.854.735,6.48,6.48,0,0,0,3.167-.966Z" transform="translate(-422.889 -47.898)"/><path class="c" d="M851.982,103.8q2.431,2.8,2.432,7.784c0,.515-.013.9-.039,1.158H838.23a6.959,6.959,0,0,0,2.3,4.364,6.8,6.8,0,0,0,4.615,1.623,8.619,8.619,0,0,0,3.379-.657,8.1,8.1,0,0,0,2.725-1.854l1.97,2.048a10.306,10.306,0,0,1-3.631,2.51,12.075,12.075,0,0,1-4.712.889,10.848,10.848,0,0,1-5.35-1.294,9.09,9.09,0,0,1-3.631-3.649,11.757,11.757,0,0,1,0-10.719,9.423,9.423,0,0,1,3.612-3.668A10.414,10.414,0,0,1,844.8,101q4.75,0,7.185,2.8m-.811,6.161a5.92,5.92,0,0,0-6.335-5.986,6.461,6.461,0,0,0-4.5,1.621,6.823,6.823,0,0,0-2.144,4.365Z" transform="translate(-438.58 -53.073)"/><rect class="c" width="2.373" height="66.937" transform="translate(172.725 2.814)"/></g></svg>