<svg xmlns="http://www.w3.org/2000/svg" viewBox="0 0 336.65 133.02"><defs><style>.cls-1{fill:#e31837;}</style></defs><title>Asset 2</title><g id="Layer_2" data-name="Layer 2"><g id="Layer_1-2" data-name="Layer 1"><path class="cls-1" d="M103.71,18.51h8.79v5.68h.24a13.73,13.73,0,0,1,12-6.72,11.73,11.73,0,0,1,11.12,7.28H136a14.38,14.38,0,0,1,12.48-7.28c8.08,0,13.12,5.28,13.12,14.08V59.7h-9.12V32.75c0-4.88-2.8-7.52-6.8-7.52-4.88,0-8.56,4-8.56,9.84V59.7h-9V32.75c0-4.88-2.56-7.52-6.64-7.52-4.72,0-8.72,4-8.72,9.84V59.7h-9Zm65.73-16h9v9h-9Zm0,16h9V59.7h-9Zm26,5.6h.24a14.13,14.13,0,0,1,12.55-6.64c8.56,0,14,5.76,14,14.56V59.7h-9V33.15c0-4.8-3-7.84-8-7.84-5.51,0-9.59,4.16-9.59,10.24V59.7h-9V18.51h8.88Zm60.7,35.59V54.5h-.24c-2.89,3.92-6.16,6.24-12.08,6.24-8.8,0-14.08-5.52-14.08-14.31V18.51h9v26.8c0,4.95,2.64,7.83,7.76,7.83,5.76,0,9.36-4.32,9.36-10.23V18.51h9V59.7Zm20.23-10.08V25.15h-5.84V18.51h5.84V5.63h8.95V18.51h7.84v6.64h-7.84v24c0,2.72,1.44,3.68,4.24,3.68a19.44,19.44,0,0,0,3.36-.39h.24v7.11a28.42,28.42,0,0,1-5.44.56C282,60.1,276.36,57.86,276.36,49.62ZM297,39.15c0-12.16,8.07-21.68,20-21.68,12.8,0,19.67,9.84,19.67,24.08H306c.64,7.19,4.64,12.15,11.68,12.15,4.64,0,7.76-2.08,9.2-5.67h8.87c-1.68,7.35-8.15,12.87-18.07,12.87C304.51,60.9,297,51.22,297,39.15Zm9.2-4h20.94c-.31-6.48-4.15-10.64-10.07-10.64C310.5,24.51,307.14,28.91,306.19,35.15ZM101.54,111.26c0-12.16,7.84-21.68,20.24-21.68,10.32,0,16.79,5.92,18.23,14.72h-8.95a8.61,8.61,0,0,0-9-7.36c-7.52,0-11.36,5.92-11.36,14.32s3.76,14.32,11.28,14.32c5.36,0,8.8-2.88,9.44-8.24h8.79c-.72,9.2-7.43,15.68-18.07,15.68C109.46,133,101.54,123.42,101.54,111.26Zm44.55-36.64h9v57.2h-9Zm17.35,0h9v9h-9Zm0,16h9v41.2h-9Zm26,5.6h.24a14.15,14.15,0,0,1,12.56-6.64c8.56,0,14,5.76,14,14.56v27.68h-9V105.26c0-4.8-3-7.84-8-7.84-5.52,0-9.6,4.16-9.6,10.24v24.16h-9V90.62h8.88Zm34.63-21.6h9v9h-9Zm0,16h9v41.2h-9ZM239,111.26c0-12.16,7.84-21.68,20.23-21.68,10.32,0,16.8,5.92,18.24,14.72h-9a8.6,8.6,0,0,0-9-7.36c-7.52,0-11.35,5.92-11.35,14.32s3.75,14.32,11.27,14.32c5.36,0,8.8-2.88,9.44-8.24h8.8c-.73,9.2-7.44,15.68-18.08,15.68C246.93,133,239,123.42,239,111.26ZM24.39,0a10,10,0,0,0-7.14,3L3,17.26a10.12,10.12,0,0,0,0,14.3L43.31,71.92,83.66,31.56a10.12,10.12,0,0,0,0-14.3L69.37,3A10.08,10.08,0,0,0,55.06,3L43.31,14.74,31.55,3a10.08,10.08,0,0,0-7.16-3Z"/><path class="cls-1" d="M284.8,91.31a6.2,6.2,0,1,1,6.06-6.2A6,6,0,0,1,284.8,91.31Zm0-11.31A4.81,4.81,0,0,0,280,85.11c0,2.82,1.82,5.12,4.77,5.12a5.13,5.13,0,0,0,0-10.23Zm-1.23,8.66h-1.12V81.8h2.6c1.65,0,2.5.58,2.5,2a1.74,1.74,0,0,1-1.79,1.87l1.92,3H286.4l-1.77-2.93h-1.06Zm1.26-3.89c.85,0,1.59-.09,1.59-1.08,0-.83-.81-.93-1.49-.93h-1.36v2Z"/></g></g></svg>