<?xml version="1.0" encoding="utf-8"?>
<!-- Generator: Adobe Illustrator 21.1.0, SVG Export Plug-In . SVG Version: 6.00 Build 0)  -->
<svg version="1.1" id="Layer_1" xmlns="http://www.w3.org/2000/svg" xmlns:xlink="http://www.w3.org/1999/xlink" x="0px" y="0px"
	 viewBox="0 0 873.8 293.1" style="enable-background:new 0 0 873.8 293.1;" xml:space="preserve">
<style type="text/css">
	.st0{fill:#00AEEF;}
	.st1{fill:#333132;}
</style>
<title>Artboard 2 copy</title>
<g>
	<rect x="6.4" y="261.2" class="st0" width="145.1" height="27.4"/>
	<path class="st1" d="M151.8,237.5H107V217h-0.6c-1.8,3.1-3.9,6-6.4,8.7c-2.8,3-5.9,5.7-9.5,7.8c-4,2.4-8.3,4.3-12.7,5.6
		c-5,1.5-10.3,2.2-15.5,2.2c-11.8,0-21.4-1.8-28.7-5.4c-7-3.3-12.9-8.5-17.1-15.1c-4.2-6.9-6.9-14.7-8-22.7
		c-1.4-9.4-2.1-18.8-2-28.3V86.5H53v73.9c0,4.3,0.2,8.8,0.5,13.5c0.3,4.4,1.2,8.8,2.8,12.9c1.5,3.8,3.9,7.1,7.1,9.6
		c3.2,2.5,7.8,3.7,13.8,3.7c6,0,10.9-1.1,14.6-3.2c3.6-2,6.6-5.1,8.5-8.7c2-3.8,3.4-8,3.9-12.3c0.6-4.7,0.9-9.5,0.9-14.3V86.5h46.6
		V237.5z"/>
	<path class="st1" d="M172.3,86.5h42.9v19.9h0.6c2.1-3,4.6-5.8,7.3-8.2c3.2-2.9,6.8-5.5,10.6-7.6c4.2-2.3,8.6-4.2,13.2-5.6
		c4.9-1.5,10.1-2.2,15.2-2.2c10.4-0.1,20.8,1.8,30.5,5.8c8.9,3.7,16.8,9.2,23.4,16.1c6.6,7.1,11.8,15.5,15.1,24.7
		c3.6,10.1,5.4,20.7,5.3,31.4c0,10.3-1.6,20.5-4.8,30.3c-3,9.3-7.6,18-13.7,25.6c-5.9,7.4-13.2,13.5-21.6,17.9
		c-8.9,4.6-18.9,6.9-28.9,6.7c-9.3,0.1-18.4-1.4-27.2-4.5c-8.3-2.9-15.5-8.3-20.7-15.4h-0.6v67.2h-46.6L172.3,86.5z M215.2,162
		c0,11.4,3.3,20.6,9.8,27.6c6.5,7,15.7,10.6,27.5,10.6c11.8,0,21-3.5,27.5-10.6c6.5-7,9.8-16.3,9.8-27.6c0-11.4-3.3-20.6-9.8-27.6
		s-15.7-10.6-27.5-10.6c-11.8,0-21,3.5-27.5,10.6C218.5,141.4,215.2,150.6,215.2,162z"/>
	<path class="st1" d="M516.8,237.5h-42.9v-19.9h-0.6c-2.1,3-4.6,5.8-7.3,8.2c-3.2,2.9-6.8,5.5-10.6,7.6c-4.2,2.4-8.7,4.2-13.4,5.6
		c-4.9,1.5-10,2.2-15.1,2.2c-10.4,0.1-20.8-1.8-30.5-5.8c-8.9-3.7-16.9-9.2-23.5-16.2c-6.6-7.1-11.8-15.5-15.1-24.7
		c-3.6-10.1-5.4-20.7-5.3-31.4c0-10.3,1.6-20.5,4.8-30.2c3-9.3,7.6-18,13.7-25.6c5.9-7.4,13.2-13.5,21.6-17.9
		c8.9-4.6,18.9-6.9,28.9-6.7c9.3-0.1,18.5,1.4,27.2,4.5c8.3,2.9,15.5,8.3,20.7,15.4h0.6V2.6h46.6V237.5z M473.9,162
		c0-11.4-3.3-20.6-9.8-27.6s-15.7-10.6-27.5-10.6c-11.8,0-21,3.5-27.5,10.6c-6.5,7-9.8,16.3-9.8,27.6c0,11.4,3.3,20.6,9.8,27.6
		c6.5,7,15.7,10.6,27.5,10.6c11.8,0,21-3.5,27.5-10.6C470.6,182.6,473.9,173.4,473.9,162z"/>
	<path class="st1" d="M534.2,162c-0.2-11.2,2.1-22.3,6.5-32.6c4.2-9.5,10.2-18,17.9-25c7.8-7.1,16.8-12.5,26.7-16
		c21.2-7.5,44.3-7.5,65.5,0c9.9,3.5,19,8.9,26.7,16c7.6,7,13.7,15.5,17.9,25c4.5,10.3,6.7,21.4,6.5,32.6c0.2,11.2-2.1,22.3-6.5,32.6
		c-4.2,9.5-10.2,18-17.9,25c-7.8,7.1-16.8,12.5-26.7,16c-21.2,7.5-44.3,7.5-65.5,0c-9.9-3.5-19-8.9-26.7-16
		c-7.6-7-13.7-15.5-17.9-25C536.3,184.3,534.1,173.2,534.2,162z M580.8,162c0,11.4,3.3,20.6,9.8,27.6c6.5,7,15.7,10.6,27.5,10.6
		c11.8,0,21-3.5,27.5-10.6c6.5-7,9.8-16.3,9.8-27.6c0-11.4-3.3-20.6-9.8-27.6s-15.7-10.6-27.5-10.6c-11.8,0-21,3.5-27.5,10.6
		C584.1,141.4,580.8,150.6,580.8,162L580.8,162z"/>
	<path class="st1" d="M750.7,156.7l-50.3-70.2h55l26.7,41l25.8-41h51.9l-49.1,70.2l58.1,80.8h-55l-32.9-50.3l-35.4,50.3H691
		L750.7,156.7z"/>
</g>
</svg>
