<svg xmlns="http://www.w3.org/2000/svg" width="130" height="61" viewBox="0 0 130 61" fill="none"><path d="M7.81216 43.772L7.59644 42.4322C6.93036 43.1892 6.00315 43.9877 4.70884 43.9877C2.57058 43.9877 0.996216 42.3452 0.996216 38.7234C0.996216 34.5793 3.11177 33.0466 5.37492 33.0466C6.07678 33.0352 6.77585 33.1375 7.44506 33.3494V28.8079L11.2901 28.1948V43.772H7.81216ZM7.43371 36.1764C7.09254 36.0342 6.72442 35.9684 6.35511 35.9834C5.49224 35.9834 4.8413 36.6306 4.8413 38.4433C4.8413 40.0366 5.37871 40.5778 6.11291 40.5778C6.60868 40.5778 7.01741 40.2524 7.44885 39.8209L7.43371 36.1764Z" fill="#1B4297"></path><path d="M18.477 43.9876C15.0709 43.9876 12.7623 42.2619 12.7623 38.5076C12.7623 34.9918 14.9384 32.8762 17.9169 32.8762C21.2813 32.8762 22.727 35.3362 22.727 38.4849C22.7347 38.8317 22.7132 39.1786 22.6627 39.5219H16.5582C16.7966 40.8578 17.7428 41.3119 18.9955 41.3119C20.1909 41.2562 21.357 40.9233 22.4015 40.3393L22.7459 42.8863C21.4448 43.623 19.9721 44.0029 18.477 43.9876ZM16.5166 37.5577H19.1241C19.0825 36.0022 18.5867 35.2264 17.8109 35.2264C17.0351 35.2264 16.5355 36.0022 16.5166 37.5577Z" fill="#1B4297"></path><path d="M24.3922 43.772V28.7966L28.2486 28.1948V43.772H24.3922Z" fill="#1B4297"></path><path d="M30.2393 43.772V28.7966L34.0768 28.1948V43.772H30.2393Z" fill="#1B4297"></path><path d="M44.8627 43.9422C41.714 43.9422 39.6212 41.9364 39.6212 38.5493C39.6212 34.7307 42.0811 32.9179 45.0368 32.9179C46.1014 32.9144 47.1513 33.1662 48.0985 33.6521L47.5838 36.8462C46.9629 36.4339 46.2363 36.2092 45.491 36.1991C44.3556 36.1991 43.4814 36.9333 43.4814 38.4206C43.4814 39.9079 44.454 40.6913 45.5742 40.6913C46.3382 40.6562 47.0806 40.427 47.7314 40.0252L48.1628 43.0869C47.1577 43.6586 46.019 43.9537 44.8627 43.9422Z" fill="#1B4297"></path><path d="M55.8228 43.772V37.3383C55.8228 36.7138 55.5616 36.2597 54.9372 36.2597C54.4444 36.2988 53.9872 36.5315 53.6656 36.9068V43.7909H49.8205V28.7966L53.6618 28.1948V34.3636C54.5663 33.478 55.4292 32.8763 56.6592 32.8763C58.6233 32.8763 59.6603 34.1063 59.6603 36.2407V43.772H55.8228Z" fill="#1B4297"></path><path d="M63.5319 31.9906C62.3473 31.9906 61.3974 31.2337 61.3974 30.0075C61.3974 28.7813 62.3473 28.0055 63.5319 28.0055C64.7164 28.0055 65.6702 28.7624 65.6702 30.0151C65.6702 31.2678 64.7429 31.9906 63.5319 31.9906ZM61.6131 43.7719V33.0919H65.4544V43.7719H61.6131Z" fill="#1B4297"></path><path d="M67.5662 43.772V28.7966L71.3923 28.1948V43.772H67.5662Z" fill="#1B4297"></path><path d="M79.6918 43.772L79.4761 42.4322C78.8062 43.1892 77.879 43.9877 76.5847 43.9877C74.4464 43.9877 72.8721 42.3452 72.8721 38.7234C72.8721 34.5793 74.9876 33.0466 77.2508 33.0466C77.9539 33.0353 78.6542 33.1375 79.3247 33.3494V28.8079L83.1622 28.1948V43.772H79.6918ZM79.3133 36.1764C78.972 36.0349 78.604 35.9691 78.2348 35.9834C77.3719 35.9834 76.702 36.6306 76.702 38.4433C76.702 40.0366 77.2394 40.5778 77.9736 40.5778C78.4694 40.5778 78.8819 40.2524 79.3133 39.8209V36.1764Z" fill="#1B4297"></path><path d="M88.9866 37.9891V43.7719H85.1491V33.0919H88.5779L88.9223 35.1848C89.5278 33.9321 90.2809 32.9822 91.791 32.8762L92.4192 36.8235C90.9092 36.9522 89.8306 37.342 88.9866 37.9891Z" fill="#1B4297"></path><path d="M98.7167 43.9876C95.3295 43.9876 92.9982 42.2619 92.9982 38.5076C92.9982 34.9918 95.1781 32.8762 98.1566 32.8762C101.521 32.8762 102.967 35.3362 102.967 38.4849C102.972 38.8317 102.951 39.1784 102.902 39.5219H96.7979C97.0325 40.8578 97.9825 41.3119 99.2351 41.3119C100.424 41.2524 101.583 40.9196 102.622 40.3393L102.967 42.8863C101.671 43.6193 100.205 43.999 98.7167 43.9876ZM96.7525 37.5539H99.3638C99.3222 35.9985 98.8226 35.2226 98.0468 35.2226C97.271 35.2226 96.7752 36.0022 96.7487 37.5577L96.7525 37.5539Z" fill="#1B4297"></path><path d="M110.494 43.7719V37.3382C110.494 36.7137 110.237 36.2596 109.609 36.2596C109.116 36.3011 108.66 36.5334 108.337 36.9067V43.7908H104.496V33.0919H107.947L108.186 34.5149C109.135 33.5461 110.078 32.8762 111.334 32.8762C113.298 32.8762 114.335 34.1062 114.335 36.2407V43.7719H110.494Z" fill="#1B4297"></path><path d="M118.347 36.4337L115.974 35.8963L116.353 28.8835H120.667L118.347 36.4337Z" fill="#1B4297"></path><path d="M124.883 43.9232C123.281 43.9254 121.701 43.5562 120.266 42.8447L120.697 40.0592C121.953 40.8148 123.374 41.2514 124.838 41.3308C125.594 41.3308 125.874 41.1151 125.874 40.7707C125.874 40.4263 125.681 40.2333 124.361 39.8889C121.621 39.1737 120.436 38.4622 120.436 36.4147C120.436 34.3673 121.95 32.9405 124.686 32.9405C126.094 32.9289 127.49 33.2085 128.785 33.7618L128.353 36.5434C127.24 35.925 126 35.5703 124.728 35.5064C124.126 35.5064 123.888 35.7032 123.888 35.9833C123.888 36.2634 124.081 36.4791 125.504 36.8651C128.44 37.6636 129.368 38.3789 129.368 40.3393C129.349 42.7122 127.752 43.9232 124.883 43.9232Z" fill="#1B4297"></path><path d="M76.9859 0.0227051H76.8193C73.8203 0.0622898 70.942 1.21022 68.7389 3.24538C66.5358 5.28054 65.1637 8.05896 64.8869 11.0454C64.6101 14.0319 65.4482 17.0152 67.2397 19.4206C69.0313 21.826 71.6496 23.4833 74.5902 24.0734C75.4516 21.3358 76.0435 18.5206 76.3576 15.668C76.3576 15.668 73.2808 14.6272 68.4101 10.3696C71.4378 10.1653 74.446 9.73517 77.4097 9.08288C77.4854 9.06396 78.0266 3.76183 77.5725 1.1732C77.633 1.21105 82.288 4.28409 84.15 7.44418C84.15 7.44418 86.6364 6.88028 87.5825 6.24826C86.5305 4.36105 84.9937 2.78899 83.1308 1.69453C81.2679 0.600066 79.1465 0.0229115 76.9859 0.0227051Z" fill="#1B4297"></path><path d="M64.8375 12.3262C64.816 10.7315 65.1089 9.14823 65.6995 7.66675C66.2901 6.18528 67.1667 4.83468 68.2794 3.69211C69.3921 2.54955 70.719 1.63741 72.1843 1.0078C73.6497 0.378194 75.2247 0.0434619 76.8194 0.0227268H76.9859C79.1469 0.0233089 81.2685 0.601034 83.1315 1.69618C84.9944 2.79133 86.5311 4.36415 87.5826 6.25207C86.59 4.46817 85.1645 2.96278 83.4373 1.8746C81.7101 0.786415 79.7367 0.150456 77.6991 0.0253181C75.6616 -0.0998197 73.6252 0.28989 71.7779 1.15854C69.9305 2.02718 68.3314 3.34682 67.128 4.99586C65.9247 6.6449 65.1557 8.57028 64.892 10.5946C64.6282 12.6189 64.8783 14.6771 65.619 16.5794C66.3597 18.4817 67.5673 20.1669 69.1305 21.4799C70.6936 22.7929 72.5621 23.6913 74.5638 24.0924C71.8417 23.5387 69.3915 22.0689 67.6217 19.9278C65.8518 17.7868 64.8692 15.1039 64.8375 12.3262Z" fill="#1B4297"></path><path d="M85.7925 13.2761C86.4178 15.2619 86.7319 17.3326 86.7235 19.4146C87.8839 17.8516 88.6528 16.0331 88.9656 14.1116C89.2783 12.1902 89.1259 10.2217 88.5211 8.37134C88.4076 8.97686 87.6923 10.4453 86.7765 11.8758C86.4661 12.3602 86.152 12.8371 85.7925 13.2761Z" fill="#B40F87"></path><path d="M75.4985 24.221C76.0434 24.2876 76.5921 24.318 77.141 24.3119C78.7378 24.2938 80.3152 23.9593 81.782 23.3279C83.2487 22.6965 84.5758 21.7807 85.6865 20.6333L82.1063 18.0031C82.1063 18.0031 76.2781 23.8691 75.4985 24.221Z" fill="#B40F87"></path><path d="M63.3464 13.0756C57.6696 14.6689 46.4901 20.2094 42.8304 30.106C42.8304 30.106 47.6557 20.3002 63.8876 16.1978C63.5563 15.1902 63.3739 14.1396 63.3464 13.0793" fill="#FFB400"></path><path d="M18.1364 24.5994C18.1364 24.5994 32.5706 19.4638 41.116 29.5988C41.116 29.5988 38.1149 21.6134 28.8996 21.8746C21.7014 22.0789 18.1364 24.5994 18.1364 24.5994Z" fill="#FFB400"></path><path d="M28.2941 59.4929C29.4294 59.4513 29.6527 59.2696 29.6527 58.7928V51.4697C29.6527 50.9815 29.4143 50.7961 28.2941 50.7544V50.376H33.0134V50.7544C32.0748 50.7961 31.7531 50.9512 31.7531 51.4697V54.7206H35.4393V51.4697C35.4393 50.9512 35.1176 50.7961 34.179 50.7544V50.376H38.9097V50.7544C37.7743 50.7961 37.551 50.9815 37.551 51.4697V58.7928C37.551 59.2696 37.7781 59.4513 38.9097 59.4929V59.8714H34.1904V59.4929C35.1289 59.4513 35.4506 59.2961 35.4506 58.7928V55.1823H31.7531V58.7928C31.7531 59.2961 32.0748 59.4513 33.0134 59.4929V59.8714H28.2941V59.4929Z" fill="#1B4297"></path><path d="M39.3487 56.7226C39.3487 54.5919 40.749 53.2635 42.6564 53.2635C44.6281 53.2635 45.6234 54.6752 45.525 56.5107H41.3091V56.681C41.3091 58.2743 41.9979 59.2847 43.3414 59.2847C44.1248 59.2847 44.7152 58.8647 45.2336 58.1494L45.5137 58.3613C45.2326 58.8731 44.8165 59.2979 44.3107 59.5895C43.8049 59.8812 43.2287 60.0284 42.645 60.0152C40.6089 60 39.3487 58.7814 39.3487 56.7226ZM41.3242 56.1057H43.6214C43.7766 54.7055 43.4246 53.7101 42.558 53.7101C41.8011 53.695 41.3961 54.5503 41.3242 56.1057Z" fill="#1B4297"></path><path d="M46.3123 58.3159C46.3157 58.0149 46.3991 57.7202 46.5541 57.4622C46.7091 57.2041 46.9299 56.9919 47.1941 56.8475C48.2045 56.3025 49.7978 56.3025 50.2633 56.1322V55.1937C50.2633 54.1453 49.9265 53.7517 49.1847 53.7517C48.8845 53.7424 48.5895 53.8315 48.3445 54.0053C48.5256 54.2159 48.625 54.4845 48.6246 54.7622C48.6246 55.0262 48.5197 55.2794 48.3331 55.466C48.1464 55.6527 47.8933 55.7576 47.6293 55.7576C47.3653 55.7576 47.1121 55.6527 46.9255 55.466C46.7388 55.2794 46.6339 55.0262 46.6339 54.7622C46.6339 53.9221 47.6558 53.3317 49.5632 53.3317C51.2851 53.3317 52.1102 54.0469 52.1102 55.6024V58.5278C52.1102 59.2128 52.307 59.3831 53.1055 59.1447L53.2152 59.4248C52.7766 59.7518 52.2483 59.9367 51.7014 59.9546C50.8196 59.9546 50.5396 59.6329 50.3693 58.9479H50.3163C50.0601 59.2563 49.7415 59.5068 49.3814 59.6829C49.0213 59.8591 48.6279 59.9568 48.2272 59.9697C46.8875 59.9697 46.3123 59.1296 46.3123 58.3159ZM50.2633 58.5013V56.541C48.7192 56.7756 48.2878 57.1124 48.2878 58.0245C48.2878 58.6679 48.6246 59.1031 49.2377 59.1031C49.4436 59.0894 49.6436 59.0278 49.8216 58.9234C49.9996 58.8189 50.1509 58.6744 50.2633 58.5013Z" fill="#1B4297"></path><path d="M53.605 59.5231C54.4036 59.5231 54.5701 59.3831 54.5701 59.0198V51.1479C54.5701 50.7127 54.4036 50.4743 53.5369 50.4629V50.111L56.4321 49.9709V59.0387C56.4321 59.4172 56.5873 59.5269 57.4009 59.5421V59.8902H53.605V59.5231Z" fill="#1B4297"></path><path d="M58.6385 58.0358V54.0885H57.4085V53.6836L58.6688 53.4149V51.6664L60.5043 51.1063V53.4452H62.5328V54.062H60.5043V58.0812C60.5043 58.8381 60.7427 59.1712 61.3028 59.1712C61.7229 59.1712 62.0597 58.8798 62.3776 58.2894L62.6879 58.471C62.2376 59.4815 61.5942 59.9848 60.5572 59.9848C59.4522 59.9848 58.6385 59.4512 58.6385 58.0358Z" fill="#1B4297"></path><path d="M62.8734 59.5231C63.6719 59.5231 63.8422 59.3831 63.8422 59.0198V51.1479C63.8422 50.7127 63.687 50.4743 62.8052 50.4629V50.111L65.7155 49.9558V54.5919C66.0075 54.2216 66.374 53.9167 66.7912 53.697C67.2084 53.4773 67.6671 53.3477 68.1376 53.3165C69.3146 53.3165 69.8747 54.0318 69.8747 55.3488V59.0387C69.8747 59.4172 70.0261 59.5269 70.8549 59.542V59.8902H67.2294V59.542C67.7895 59.542 67.9863 59.402 67.9863 59.0387V55.6326C67.9863 54.7811 67.6759 54.361 66.9607 54.361C66.7143 54.375 66.4736 54.441 66.2545 54.5544C66.0354 54.6679 65.8427 54.8264 65.689 55.0195V59.0387C65.689 59.4172 65.8972 59.5269 66.446 59.542V59.8902H62.862L62.8734 59.5231Z" fill="#1B4297"></path><path d="M74.1475 59.4929C75.2828 59.4513 75.5061 59.2696 75.5061 58.7814V51.4697C75.5061 50.9929 75.2677 50.7961 74.1475 50.7544V50.376H78.4997C81.5689 50.376 82.5756 51.5416 82.5756 53.0819C82.5756 54.5238 81.497 55.8522 78.458 55.8522H77.6065V58.7814C77.6065 59.2961 77.773 59.4664 79.0484 59.5081V59.8865H74.1475V59.4929ZM78.3483 55.4056C79.9719 55.4056 80.3919 54.6487 80.3919 53.0933C80.3919 51.7233 79.9302 50.8225 78.4051 50.8225H77.6065V55.4018L78.3483 55.4056Z" fill="#1B4297"></path><path d="M82.8178 59.5231C83.6164 59.5231 83.7829 59.3831 83.7829 59.0198V51.1479C83.7829 50.7127 83.6164 50.4743 82.7497 50.4629V50.111L85.6487 49.9709V59.0387C85.6487 59.4172 85.8 59.5269 86.6137 59.5421V59.8902H82.8292L82.8178 59.5231Z" fill="#1B4297"></path><path d="M87.1246 58.3159C87.128 58.0149 87.2115 57.7202 87.3665 57.4622C87.5214 57.2041 87.7423 56.9919 88.0064 56.8475C89.0131 56.3025 90.6102 56.3025 91.0719 56.1322V55.1937C91.0719 54.1453 90.7389 53.7517 89.9933 53.7517C89.6932 53.7435 89.3986 53.8325 89.1531 54.0053C89.336 54.2148 89.4357 54.4841 89.4332 54.7622C89.4176 55.0151 89.3061 55.2525 89.1215 55.426C88.9369 55.5996 88.6931 55.6962 88.4398 55.6962C88.1864 55.6962 87.9426 55.5996 87.758 55.426C87.5734 55.2525 87.4619 55.0151 87.4463 54.7622C87.4463 53.9221 88.4681 53.3317 90.3718 53.3317C92.0937 53.3317 92.9225 54.0469 92.9225 55.6024V58.5278C92.9225 59.2128 93.1193 59.3831 93.9141 59.1447L94.0276 59.4248C93.589 59.7518 93.0607 59.9367 92.5138 59.9546C91.632 59.9546 91.352 59.6329 91.1817 58.9479H91.1249C90.8696 59.2564 90.5517 59.507 90.1922 59.6832C89.8326 59.8593 89.4398 59.957 89.0396 59.9697C87.6999 59.9697 87.1246 59.1296 87.1246 58.3159ZM91.0719 58.5013V56.541C89.5316 56.7756 89.1002 57.1124 89.1002 58.0245C89.1002 58.6679 89.4332 59.1031 90.0501 59.1031C90.2557 59.09 90.4553 59.0287 90.6328 58.9241C90.8103 58.8196 90.9607 58.6748 91.0719 58.5013Z" fill="#1B4297"></path><path d="M94.478 59.5232C95.2766 59.5232 95.4431 59.3831 95.4431 59.0198V54.5352C95.4431 54.1151 95.2766 53.8653 94.478 53.8501V53.502L97.2786 53.3733V54.6071C97.576 54.2364 97.9473 53.9316 98.3688 53.712C98.7904 53.4925 99.2529 53.3629 99.7272 53.3317C100.889 53.3317 101.438 54.0469 101.438 55.364V59.0388C101.438 59.4172 101.589 59.527 102.403 59.5421V59.8903H98.7924V59.5421C99.3525 59.5421 99.5493 59.4021 99.5493 59.0388V55.6327C99.5493 54.7811 99.2692 54.3611 98.5691 54.3611C98.3199 54.3746 98.0764 54.4402 97.8541 54.5536C97.6318 54.667 97.4358 54.8258 97.2786 55.0196V59.0388C97.2786 59.4172 97.4905 59.527 98.0355 59.5421V59.8903H94.478V59.5232Z" fill="#1B4297"></path></svg>