<svg width="652" height="115" xmlns="http://www.w3.org/2000/svg"><g fill="none"><path d="M182.189 68.689h16.982c.782 0 1.092.35 1.092 1.188v5.4c0 .256-.202.688-.377.729-.391.108-.432-.297-.499-.621a22.588 22.588 0 00-.809-3.227 3.787 3.787 0 00-3.787-2.551H189.4V80.23c1.253 0 2.507-.067 3.747-.202.7-.081 1.05-.743 1.253-1.35.202-.608.297-1.215.485-1.81 0-.202.283-.35.432-.526.107.203.31.405.31.621v7.533c0 .216-.216.432-.337.648a1.944 1.944 0 01-.418-.54c-.189-.594-.283-1.215-.459-1.809a1.874 1.874 0 00-1.9-1.606h-3.046v11.934h3.154v.904h-10.298v-.864h3.074V69.607h-3.208v-.918zm92.474 17.401a8.395 8.395 0 01-6.186 7.992c-4.3.77-7.899-2.7-8.613-6.669a7.623 7.623 0 011.348-5.67 7.072 7.072 0 017.615-3.402 8.393 8.393 0 015.823 6.75c0 .378-.014.743.013.999zm-4.043.108c-.068-1.282-.095-2.592-.216-3.901a3.553 3.553 0 00-1.2-2.7 3.096 3.096 0 00-3.086-.377 3.104 3.104 0 00-1.86 2.496 29.234 29.234 0 000 9.005 2.617 2.617 0 002.507 2.497c2.224.284 3.423-.756 3.652-3.226.04-1.215.068-2.498.135-3.794h.068zm-59.157-6.25a4.379 4.379 0 00-4.69 2.484 2.028 2.028 0 00-.148.742v9.936h2.655v.878h-9.017v-.865h2.601V80.177h-2.587v-.918h6.307v1.714l.54-.526a5.385 5.385 0 015.7-1.215 2.457 2.457 0 011.766 2.875 1.969 1.969 0 01-1.82 1.661 2.115 2.115 0 01-2.21-1.188 2.04 2.04 0 01.688-2.403l.215-.23zm42.174-.298a16.154 16.154 0 00-1.604-.459c-2.25-.405-3.733.716-4.043 3.254-.216 2.12-.162 4.28-.19 6.413.014.685.096 1.368.243 2.038a2.698 2.698 0 002.696 2.551 5.203 5.203 0 005.391-3.645c0-.08 0-.202.108-.243a5.39 5.39 0 01.607-.35c.08.215.27.499.202.647a9.605 9.605 0 01-1.038 2.187 5.563 5.563 0 01-4.73 2.322 7.33 7.33 0 01-6.74-4.05 8.257 8.257 0 012.035-10.327 6.811 6.811 0 017.872-.959c.59.342 1.104.802 1.51 1.35.534.731.49 1.737-.109 2.417a1.898 1.898 0 01-2.547 0 2.095 2.095 0 01-.162-2.43c.162-.203.27-.351.499-.716zM231.06 92.61c-.212.323-.441.634-.687.932a.606.606 0 01-.485.202c-.108 0-.229-.283-.229-.445v-3.834c0-.162.175-.473.27-.473.094 0 .337.19.498.311.162.122 0 .162.068.243a4.656 4.656 0 002.72 3.231c1.37.58 2.934.467 4.208-.301a2.363 2.363 0 001.347-2.214 2.011 2.011 0 00-1.347-1.971c-1.213-.446-2.467-.81-3.707-1.134a4.824 4.824 0 01-3.046-1.755 4.675 4.675 0 011.429-6.413 4.86 4.86 0 015.647.135c.243-.23.472-.5.728-.715a.687.687 0 01.458-.149c.081 0 .148.284.148.446v3.698a2.09 2.09 0 01-.256.568 2.564 2.564 0 01-.431-.514 14.969 14.969 0 00-.97-2.038 3.368 3.368 0 00-5.014-.378 2.94 2.94 0 00-.674 1.431 1.122 1.122 0 00.89 1.35c1.347.432 2.695.77 4.043 1.174a4.693 4.693 0 013.464 3.065 5.137 5.137 0 01-.262 4.158 5.123 5.123 0 01-3.256 2.592 6.313 6.313 0 01-5.553-1.202zm-11.24-12.568h-2.588v-.85h6.011V93.15h2.696v.89h-8.707v-.863h2.588zm3.976-7.668a2.121 2.121 0 01-2.21 2.066 2.198 2.198 0 01-2.278-2.08 2.266 2.266 0 012.25-2.132 2.182 2.182 0 012.238 2.146zm-66.082 6.791h2.847v.863h-2.834v12.988h2.637v.89h-8.727v-.85h2.637v-13h-2.637v-.905h2.716v-3.982a8.436 8.436 0 011.318-4.685c1.312-1.946 3.878-2.509 5.853-1.282a2.52 2.52 0 011.133 1.552 1.529 1.529 0 01-.659 1.741 1.419 1.419 0 01-1.793-.566 1.537 1.537 0 01.343-1.836l.211-.203c-1.213-.783-2.992-.648-3.071 1.539-.053 2.538.026 5.09.026 7.736zm-23.569 7.222c.082-3.809 2.604-7.107 6.195-8.1 4.337-.824 7.91 2.7 8.648 6.831a7.717 7.717 0 01-1.661 6.116c-1.611 2.565-4.702 3.705-7.54 2.78-2.988-.939-5.167-3.576-5.576-6.75a6.37 6.37 0 01-.066-.877zm10.81-.081c0-1.35-.093-2.7-.212-4.05a3.532 3.532 0 00-1.213-2.7 3.063 3.063 0 00-3.072-.362 3.19 3.19 0 00-1.87 2.522 30.492 30.492 0 00-.067 8.694c.224 1.877.95 2.7 2.426 2.849 2.465.323 3.559-.676 3.81-3.173.105-1.188.105-2.47.197-3.78zm291.687-33.723a12.038 12.038 0 01-7.2 3.334 14.05 14.05 0 01-9.769-2.75c-4.056-2.704-6.71-7.02-7.267-11.817-.591-4.834 1.133-9.664 4.664-13.067 3.26-3.519 8.022-5.3 12.829-4.8a16.323 16.323 0 016.49 2.267c.574-.533 1.132-1.117 1.774-1.667a4.364 4.364 0 011.065-.45c.195.325.332.68.406 1.05v7.084c0 .3-.27.6-.423.916a2.846 2.846 0 01-.642-.716 12.358 12.358 0 00-4.192-5.35 9.952 9.952 0 00-10.53-.734 8.112 8.112 0 00-4.106 6.134 23.499 23.499 0 00-.49 4.483c0 3.05 0 6.117.186 9.15a14.985 14.985 0 001.267 4.65c1.32 3.01 4.468 4.825 7.775 4.483a10.431 10.431 0 008.146-4.416c.88-1.167 1.555-2.484 2.333-3.734.131-.286.29-.56.473-.816.135-.167.44-.334.592-.284.152.05.287.35.388.55.025.133.025.268 0 .4v8.05c-.057.318-.16.627-.304.917a3.407 3.407 0 01-.98-.4c-.896-.833-1.657-1.633-2.485-2.467zm33.228-14.516h-3.38V37h7.825v2.717c.186-.117.27-.134.322-.2 2.093-2.59 5.607-3.61 8.788-2.55 1.846.39 3.09 2.1 2.874 3.95v12.966h3.38v1.067h-11.273V53.9h3.295a3.308 3.308 0 000-.467V40.75a2.385 2.385 0 00-.99-2.349 2.463 2.463 0 00-2.576-.151c-2.179.922-3.64 2.982-3.769 5.317.135 3.166 0 6.333 0 9.5v.783h3.38v1.1H466.49v-1.067h3.38V38.067zm61.37 16.283h3.38v1.117h-7.826V52.65a2.784 2.784 0 00-.388.3c-2.12 2.627-5.63 3.744-8.907 2.833-1.932-.562-3.197-2.387-3.026-4.366V37.833h-3.38v-1.116h7.876v13.8c0 .662.034 1.324.101 1.983a1.83 1.83 0 001.69 1.667c2.89.5 6.288-2.884 6.051-5.884-.236-3 0-6.35 0-9.516v-.984h-3.38V36.65h7.792l.016 17.7zm-68.4-9.067c0 4.8-3.786 9.55-8.046 10.25-5.49.725-10.555-3.03-11.374-8.433a9.401 9.401 0 011.893-7.617c2.518-3.466 5.83-5 9.87-4.016 4.04.983 6.558 4.15 7.555 8.566.07.413.105.832.101 1.25zm-5.392.184c-.102-1.667-.118-3.334-.287-5a4.396 4.396 0 00-1.69-3.334 4.121 4.121 0 00-4.048-.437 4.022 4.022 0 00-2.409 3.237 36.64 36.64 0 000 11.45c.068 1.726 1.462 3.115 3.211 3.2 3.093.317 4.564-.833 4.885-4.1.22-1.7.253-3.333.338-5.016zm84.524-20.517h-2.806v-1.067h6.76v30.4h2.908v1.134h-9.668v-1.084h2.806zm-37.859 11.433c.338-.333.659-.683.997-1 .338-.316.693-.283.71.3v5.134c0 .183-.22.366-.338.55a2.912 2.912 0 01-.524-.6 18.33 18.33 0 00-1.268-2.717 4.292 4.292 0 00-3.1-1.68 4.311 4.311 0 00-3.322 1.197 2.137 2.137 0 00-.885 2.112 2.16 2.16 0 001.544 1.704c1.572.534 3.194.9 4.783 1.384 2.2.478 3.943 2.133 4.513 4.283a6.584 6.584 0 01-.52 5.266 6.748 6.748 0 01-4.247 3.234 8.112 8.112 0 01-6.76-1.667c-.288.4-.558.85-.88 1.217a.75.75 0 01-.641.233c-.119 0-.27-.383-.27-.583v-5c0-.217.253-.6.354-.6.246.083.463.233.626.433.084 0 .1.25.135.384a5.822 5.822 0 003.528 4.125 5.95 5.95 0 005.446-.525 3.006 3.006 0 001.505-2.784 2.57 2.57 0 00-1.826-2.5 47.399 47.399 0 00-4.75-1.483 6.152 6.152 0 01-3.954-2.3c-1.753-2.819-.932-6.5 1.86-8.333a6.153 6.153 0 017.284.216zm92.602 1.767h-3.16v-1.083h7.504v2.75c.112-.05.215-.118.304-.2 1.918-2.623 5.365-3.677 8.451-2.584 1.825.45 3.017 2.178 2.772 4.017v13.183h3.228v1.117h-10.817v-1.067h3.093c.01-.16.01-.322 0-.483V40.917c0-2.284-1.42-3.334-3.38-2.55a6.231 6.231 0 00-3.617 5.4c.118 3.166 0 6.333 0 9.5v.95h3.211v1.116h-10.783v-1.066h3.178l.016-16.117zm-15.16 15.3a7.937 7.937 0 01-7.86 1.917 4.302 4.302 0 01-3.159-2.925 4.224 4.224 0 01.996-4.159 9.524 9.524 0 016.051-3.133c1.166-.233 2.35-.3 3.65-.467v-5.35a1.902 1.902 0 00-1.419-1.983 6.68 6.68 0 00-4.04.2 1.506 1.506 0 00-.405.267c.365.524.676 1.082.93 1.666a1.544 1.544 0 01-.88 1.8 2.273 2.273 0 01-2.518-.266 1.93 1.93 0 01-.422-2.2 3.36 3.36 0 012.028-1.9 12.826 12.826 0 018.603-.3c1.883.477 3.127 2.243 2.924 4.15V52.15a5.013 5.013 0 000 .717c.152 1.033.862 1.483 1.69.983a8.735 8.735 0 001.403-1.333c.236-.186.491-.348.76-.484.05.315.05.636 0 .95a3.608 3.608 0 01-2.13 2.134 5.907 5.907 0 01-4.174.283 2.905 2.905 0 01-2.028-1.95zm-.321-7.85c-.896.117-1.69.183-2.4.3a4.314 4.314 0 00-3.21 1.573 4.19 4.19 0 00-.88 3.427c-.085 1.488.916 2.825 2.383 3.183a4.961 4.961 0 003.988-1.9c.065-.119.105-.249.119-.383v-6.2zm-25.42-7.317h-3.127v-1.166h3.093V32.85c-.12-.592.219-1.18.795-1.383 1.166-.517 2.315-1.15 3.566-1.8v7.416h4.462v1.2h-4.344c0 .25-.084.4-.084.55V51.65c.02.353.065.704.135 1.05a2.445 2.445 0 002.011 2.25 2.595 2.595 0 002.958-1.467c.253-.483.338-1.066.591-1.566.187-.296.415-.566.676-.8.119.35.372.716.322 1.033a4.323 4.323 0 01-2.907 3.9 7.673 7.673 0 01-4.378.167c-2.376-.614-3.964-2.82-3.769-5.234v-12.7zm66.338 0h-3.093v-1.166h3.093V32.85c-.12-.592.219-1.18.794-1.383 1.184-.517 2.316-1.15 3.584-1.8v7.416h4.445v1.2h-4.344a4.7 4.7 0 000 .55V51.65c.006.353.046.704.118 1.05a2.462 2.462 0 001.995 2.25 2.613 2.613 0 002.974-1.467c.254-.483.338-1.066.575-1.566.187-.296.414-.566.676-.8.118.35.372.716.321 1.033a4.323 4.323 0 01-2.907 3.9 7.673 7.673 0 01-4.377.167c-2.376-.614-3.964-2.82-3.77-5.234V39.317l-.084-1.034zm25.606-2.033c.338-.333.659-.683.997-1 .338-.317.693-.3.71.3v5.133c0 .184-.22.367-.338.55a2.912 2.912 0 01-.524-.6 18.33 18.33 0 00-1.268-2.716 4.292 4.292 0 00-3.1-1.68 4.311 4.311 0 00-3.322 1.196 2.137 2.137 0 00-.885 2.113 2.16 2.16 0 001.544 1.704c1.572.533 3.194.883 4.783 1.383 2.2.48 3.943 2.134 4.513 4.284 1.064 3.95-1.15 7.9-4.767 8.483a8.043 8.043 0 01-6.76-1.667c-.287.4-.558.834-.879 1.217a.75.75 0 01-.642.233c-.119 0-.27-.383-.27-.583v-5c0-.217.253-.6.354-.6.102 0 .44.25.642.417.062.126.102.26.119.4a5.822 5.822 0 003.528 4.125 5.95 5.95 0 005.446-.525 3.006 3.006 0 001.505-2.784 2.55 2.55 0 00-1.69-2.516 48.508 48.508 0 00-4.733-1.484c-2.457-.306-4.44-2.127-4.927-4.522-.487-2.394.633-4.828 2.78-6.044a6.154 6.154 0 017.184.183zM134.676 54.933v-1.176h4.174V23.312h-4.174v-1.227h.591c5.07 0 10.14-.12 15.21.12 7.058.255 12.874 5.67 13.687 12.743.77 4.143.176 8.427-1.69 12.199-2.059 4.35-6.267 7.261-11.035 7.632-2.855.324-5.762.188-8.652.222h-7.283l-.828-.068zm9.396-1.278h.473c1.926 0 3.853 0 5.762-.12a7.797 7.797 0 006.861-5.11 17.823 17.823 0 001.42-6.27 38.933 38.933 0 00-.541-11.466c-.896-3.595-2.755-6.423-6.27-7.173a54.5 54.5 0 00-7.705-.579v30.718zm76.095.068h2.99v1.141h-10.561V53.74h3.025V36.941h-3.042v-1.226h7.57v2.675a32.657 32.657 0 013.16-2.3 7.718 7.718 0 014.732-.767c2.096.256 2.94 1.056 3.803 3.407a7.638 7.638 0 013.21-2.743 8.084 8.084 0 015.78-.408 3.849 3.849 0 012.687 3.901v14.175h3.075v1.175h-10.545v-1.158h2.84a.618.618 0 000-.17v-14.09c0-2.13-1.234-2.93-3.11-2.402a6.08 6.08 0 00-4.022 5.707v10.955h3.076v1.158h-10.646v-1.124h3.16V39.769c0-2.453-1.386-3.407-3.482-2.64a6.324 6.324 0 00-3.7 5.81v10.784zm41.858-9.37v-5.895a1.852 1.852 0 00-1.69-1.908 6.073 6.073 0 00-4.394.545c.22.228.43.466.626.715.615.694.678 1.723.152 2.488a2.201 2.201 0 01-2.704.494 2 2 0 01-.879-2.317 3.397 3.397 0 012.028-2.232 12.176 12.176 0 018.838-.273 3.834 3.834 0 012.653 4.072v11.125c-.006.684.04 1.368.135 2.045.119.784.676 1.192 1.352.903a6.426 6.426 0 001.47-1.108c.17-.153.22-.46.389-.613a2.39 2.39 0 01.625-.307c0 .222.22.529.152.665a7.377 7.377 0 01-1.453 2.061 5.036 5.036 0 01-5.424.58c-.693-.307-1.2-1.09-1.825-1.704a7.695 7.695 0 01-7.622 1.857c-3.836-.954-3.92-4.975-2.383-7.24a7.888 7.888 0 014.749-3.153 38.912 38.912 0 014.326-.715c.22-.051.54-.051.879-.085zm0 .92l-1.86.204c-3.379.46-4.781 2.079-4.63 5.316a3.41 3.41 0 001.978 3.237c1.7.26 3.4-.48 4.377-1.909a1.2 1.2 0 00.135-.46c.034-2.095.017-4.174.017-6.388h-.017zm-87.637-1.517c0 2.368-.135 4.6 0 6.815.22 2.658 1.69 4.004 3.971 3.868a7.088 7.088 0 006.168-4.652 4.93 4.93 0 01.575-.92c.193-.184.423-.324.676-.408.11.275.194.56.253.851a2.194 2.194 0 01-.203.699c-.964 3.188-3.797 5.432-7.097 5.622-4.664.375-8.45-3.186-9.379-8.518-.93-5.333 2.991-11.654 7.723-12.13 4.19-.427 7.554 2.3 8.601 6.967.052.213.086.43.102.648.101.988 0 1.26-.947 1.278h-10.359l-.084-.12zm-.27-1.192h6.303a.555.555 0 00.495-.162.565.565 0 00.147-.503 28.098 28.098 0 00-.186-3.407 2.615 2.615 0 00-2.23-2.385 5.432 5.432 0 00-2.028.102 2.598 2.598 0 00-2.062 2.232c-.237 1.295-.287 2.658-.44 4.106v.017zm25.044 11.159h3.38v1.158h-11.205v-1.158h3.279V36.941h-3.38V35.75h7.875v2.198c.338-.307.524-.494.726-.699a6.718 6.718 0 017.69-1.26 3.418 3.418 0 011.588 3.662 2.457 2.457 0 01-2.197 1.926 2.581 2.581 0 01-2.839-1.55 2.671 2.671 0 01.845-3.05 1.53 1.53 0 01.338-.17l-.118-.342a10.16 10.16 0 00-2.045.205 5.729 5.729 0 00-3.177 2.232 3.957 3.957 0 00-.794 2.504v11.38l.034.938zm158.493 3.288c-2.165-.476-3.703-2.417-3.684-4.651 0-2.624 1.69-3.8 3.971-4.566-.625-.528-1.217-.937-1.69-1.431a6.125 6.125 0 01-2.026-5.136 6.105 6.105 0 012.922-4.677 11.074 11.074 0 0110.342-.716c.203 0 .388.187.608.273.45-.429.95-.8 1.487-1.108a9.403 9.403 0 012.704-.75 1.68 1.68 0 011.318.341c.373.295.606.734.642 1.21a1.7 1.7 0 01-1.47 1.704 1.814 1.814 0 01-1.409-.241 1.84 1.84 0 01-.805-1.19v-.375a5.286 5.286 0 00-.642.426c-.236.204-.456.443-.726.698.101.12.152.222.22.29a6.472 6.472 0 011.91 5.818 6.43 6.43 0 01-3.786 4.796 11.171 11.171 0 01-7.25.767 5.44 5.44 0 00-4.174 1.942 1.716 1.716 0 00-.159 1.56c.202.515.64.899 1.173 1.03.682.19 1.387.287 2.095.29h7.926a11.37 11.37 0 012.737.34c2.32.593 3.942 2.699 3.938 5.11.337 3.981-2.337 7.585-6.219 8.383a16.6 16.6 0 01-9.97-.272 5.572 5.572 0 01-1.25-.58 4.79 4.79 0 01-2.5-3.86 4.803 4.803 0 011.891-4.198 19.765 19.765 0 011.876-1.227zm5.88.136v.103h-3.38a2.71 2.71 0 00-1.976.817 4.726 4.726 0 00-1.336 4.18 4.696 4.696 0 002.67 3.47 10.303 10.303 0 009.785-.716 4.049 4.049 0 001.974-4.173 4.022 4.022 0 00-3.208-3.306 36.614 36.614 0 00-4.528-.375zm2.755-14.941c-.101-1.295-.135-2.3-.253-3.305a2.732 2.732 0 00-2.67-2.692c-2.299-.153-3.38.426-3.769 2.351a16.263 16.263 0 000 6.934 2.406 2.406 0 002.248 1.96 9.336 9.336 0 001.69 0 2.371 2.371 0 002.382-1.994c.186-1.176.27-2.351.372-3.254zm-55.614 2.624c-.069 4.873-3.351 9.102-8.027 10.341-5.813 1.056-10.663-3.595-11.474-8.91a9.562 9.562 0 012.079-7.394 8.852 8.852 0 019.97-3.748c4.039 1.141 6.388 4.242 7.317 8.603.072.365.117.736.135 1.108zm-5.34-.12c0-1.584-.27-3.56-.507-5.554a3.415 3.415 0 00-1.3-2.419 4.113 4.113 0 00-4.048-.57 4.167 4.167 0 00-2.56 3.21 37.375 37.375 0 000 11.075c.304 2.402 1.3 3.407 3.38 3.646 3.143.34 4.528-.886 4.85-3.936a46.58 46.58 0 00.185-5.452zm45.374.324c-.158 4.976-3.632 9.215-8.45 10.307-5.707.832-11.002-3.157-11.83-8.91a9.37 9.37 0 012.215-7.394 9.323 9.323 0 0110.308-3.731c3.994 1.092 6.963 4.473 7.554 8.604.102.367.17.744.202 1.124zm-5.527-.136c-.152-1.585-.287-3.578-.523-5.554a3.414 3.414 0 00-1.352-2.437 4.297 4.297 0 00-4.096-.52 4.352 4.352 0 00-2.664 3.178 36.308 36.308 0 00-.084 11.074c.304 2.437 1.385 3.408 3.498 3.663 3.177.29 4.596-.903 4.934-3.97.034-1.652.068-3.339.203-5.434h.084zm-26.767-21.331h-3.093v-1.141h7.453v31.212h3.177v1.158h-10.63v-1.124h3.093zm57.472 13.374V35.75h12.658v1.09h-3.836l5.678 12.386 5.07-12.335h-3.702v-1.158h8.534v1.21h-2.535c-.844 0-.98.238-1.233.851l-10.14 24.431a8.707 8.707 0 01-4.19 5.112 4.915 4.915 0 01-3.194.34 2.09 2.09 0 01-1.69-1.976 1.875 1.875 0 011.267-2.061 2.372 2.372 0 012.704.834c.845 1.193 1.487 1.261 2.434.103a9.25 9.25 0 001.284-2.164 205.18 205.18 0 002.737-6.679 1.562 1.562 0 000-1.141c-2.636-5.656-5.34-11.279-7.993-16.918a.93.93 0 00-1.03-.664c-.964-.069-1.86-.069-2.823-.069zm-99.06.188h-3.126v-1.142h3.059v-2.368c0-.988-.254-2.198.168-2.896.423-.699 1.521-.937 2.333-1.363l1.994-.937v7.53h4.495v1.142h-4.445v12.982a9.36 9.36 0 00.135 1.516c.237 1.448.862 2.181 2.011 2.42a2.613 2.613 0 002.94-1.414c.288-.529.39-1.21.643-1.704.135-.273.456-.443.693-.665.101.29.338.597.32.852a4.394 4.394 0 01-2.855 4.072 7.446 7.446 0 01-5.222 0 4.667 4.667 0 01-3.042-4.48c-.1-4.107 0-8.23 0-12.335l-.1-1.21zM55.912 50h51.55c2.524 0 3.538.895 3.538 3.06v13.832c0 .67-.637 1.765-1.18 1.895-1.249.27-1.367-.789-1.614-1.613a45.64 45.64 0 00-2.618-8.24c-2.252-4.426-6.52-6.58-12.227-6.556-5.707.023-11.402 0-17.227 0v60.268h10.211V115H53v-2.319h9.904V52.342h-6.992V50z" fill="#697836"/><path d="M86.753 80.207a27.952 27.952 0 01-15.94 6.658 33.143 33.143 0 01-21.62-5.6c-9.072-5.945-14.646-13.91-15.938-23.886-1.293-9.975 2.372-19.023 10.187-26.49 7.815-7.466 17.137-10.617 28.463-9.749 4.08.31 8.491 1.641 14.35 4.59 1.269-1.082 2.526-2.248 3.925-3.27a10.172 10.172 0 012.372-.927c.32.713.913 1.414.925 2.128.087 4.803.087 9.606 0 14.41 0 .618-.628 1.189-.96 1.843-.487-.476-1.187-.868-1.436-1.427-2.134-4.435-4.91-8.477-9.487-11.236a23.668 23.668 0 00-23.304-1.45c-5.515 2.544-7.91 7.288-9.084 12.46a43.882 43.882 0 00-1.103 9.131c0 6.194-.083 12.413.45 18.583a28.112 28.112 0 002.775 9.512c3.025 6.325 9.488 9.44 17.22 9.095a23.698 23.698 0 0018.027-8.964 90.74 90.74 0 005.159-7.586c.309-.59.67-1.15 1.079-1.676a1.73 1.73 0 011.304-.547c.38.107.629.69.842 1.106a1.94 1.94 0 010 .796V84.06a6.574 6.574 0 01-.652 1.879 7.507 7.507 0 01-2.194-.82c-1.802-1.558-3.522-3.199-5.36-4.911z" fill="#697836"/><path d="M0 65.305v-2.216h9.865V5.622H.012V3.406c.503 0 .97-.13 1.425-.13 12.043 0 24.111-.223 36.143.224 15.683.59 29.367 8.981 32.42 23.996a30.035 30.035 0 01-4.107 23.006c-5.746 8.85-14.773 13.424-26.098 14.402-6.765.577-13.648.33-20.472.389H2.047L0 65.305zm22.256-2.358c.372.07.747.117 1.125.142 4.561-.059 9.123 0 13.66-.224 7.47-.436 12.93-3.63 16.234-9.488a27.23 27.23 0 003.364-11.785c.431-7.237.97-14.497-1.269-21.603C53.227 13.224 48.833 7.86 40.525 6.47c-5.902-1.001-12.092-.766-18.27-1.084v57.561z" fill="#697836"/><path d="M2.155 63.372v-2.18h9.757V3.323H2.167v-2.24c.49 0 .946-.118 1.4-.118 11.877 0 23.777-.223 35.629.224 15.456.59 28.936 9.04 31.953 24.161a30.822 30.822 0 01-4.047 23.17c-5.614 8.96-14.557 13.509-25.762 14.499-6.68.59-13.456.33-20.185.39H4.13l-1.975-.036zm21.932-2.357c.367.076.74.123 1.114.141 4.49 0 8.99 0 13.456-.212 7.375-.436 12.75-3.654 16.007-9.558a27.948 27.948 0 003.316-11.892c.43-7.284.958-14.59-1.197-21.745-2.167-6.859-6.501-12.245-14.678-13.66-5.83-1.001-11.972-.765-17.958-1.095l-.06 58.02z" fill="#D3D7AC"/><path d="M56.968 49h50.57c2.485 0 3.462.904 3.462 3.067v13.84c0 .678-.627 1.771-1.206 1.902-1.207.274-1.34-.784-1.58-1.617a47.593 47.593 0 00-2.582-8.322c-2.22-4.423-6.418-6.587-12.064-6.563-5.645.023-11.219 0-16.889 0v60.315h10.05V114H54v-2.188h9.735v-60.47h-6.767V49z" fill="#D3D7AC"/><path d="M49 81.08c6.22 4.45 13.74 6.494 21.257 5.78 5.792-.474 11.286-2.865 15.678-6.821 1.805 1.732 3.494 3.429 5.23 4.98.67.4 1.397.682 2.155.836a6.934 6.934 0 00.64-1.927V67.036a2.154 2.154 0 000-.824c-.21-.436-.454-1.03-.827-1.211a1.647 1.647 0 00-1.281.57 11.73 11.73 0 00-1.06 1.732c-1.677 2.63-3.156 5.38-5.078 7.84-4.28 5.698-10.791 9.097-17.74 9.258-7.583.351-13.977-2.86-16.924-9.403L49 81.08z" fill="#697836"/></g></svg>