<?xml version="1.0" encoding="UTF-8"?><svg xmlns="http://www.w3.org/2000/svg" viewBox="0 0 475.93 63.88"><defs><style>.cls-1,.cls-2{fill:#0057bf;}.cls-3,.cls-4{fill:#00B142;}.cls-5{fill:#DF1AA0;}.cls-5,.cls-2,.cls-4{mix-blend-mode:multiply;}.cls-6{isolation:isolate;}</style></defs><g class="cls-6"><g id="Layer_1_copy"><g><path class="cls-2" d="M16.72,52.01C7.5,52.01,0,44.5,0,35.28S7.5,18.56,16.72,18.56s16.72,7.5,16.72,16.72-7.5,16.72-16.72,16.72Zm0-29.93c-7.28,0-13.21,5.93-13.21,13.21s5.93,13.21,13.21,13.21,13.21-5.93,13.21-13.21-5.93-13.21-13.21-13.21Z"/><path class="cls-5" d="M24.33,41.38c-9.22,0-16.72-7.5-16.72-16.72S15.1,7.93,24.33,7.93s16.72,7.5,16.72,16.72-7.5,16.72-16.72,16.72Zm0-29.93c-7.28,0-13.21,5.93-13.21,13.21s5.93,13.21,13.21,13.21,13.21-5.93,13.21-13.21-5.93-13.21-13.21-13.21Z"/><path class="cls-4" d="M31.93,52.01c-9.22,0-16.72-7.5-16.72-16.72s7.5-16.72,16.72-16.72,16.72,7.5,16.72,16.72-7.5,16.72-16.72,16.72Zm0-29.93c-7.28,0-13.21,5.93-13.21,13.21s5.93,13.21,13.21,13.21,13.21-5.93,13.21-13.21-5.93-13.21-13.21-13.21Z"/><path class="cls-1" d="M136.11,10.07c-2.28,0-3.97,1.59-3.97,4.05,0,2.24,1.68,3.92,4.01,3.92s3.97-1.59,3.97-4.05c0-2.24-1.68-3.92-4.01-3.92Z"/><path class="cls-1" d="M70.23,20.33c-2.37,0-4.78,.86-6.68,2.41l-.39-1.94h-5.82v30.65h6.25v-10.99c1.64,1.72,3.79,2.5,6.03,2.5,5,0,10.22-4.1,10.22-11.38,0-7.76-4.74-11.25-9.61-11.25Zm-1.85,16.85c-3.36,0-4.78-2.84-4.78-5.65s1.29-5.35,4.7-5.35c3.19,0,5.22,2.33,5.22,5.82,0,3.23-2.07,5.17-5.13,5.17Z"/><rect class="cls-1" x="133.22" y="20.8" width="6.21" height="21.55"/><path class="cls-1" d="M93.04,20.15c-6.85,0-11.38,4.53-11.38,11.64s4.61,11.42,11.51,11.42c3.75,0,8.28-1.47,10.13-5.39l-4.4-2.76c-1.29,2.5-4.48,2.54-5.78,2.54-2.5,0-4.53-1.72-5.26-4.18h15.86s.56-1.25,.56-2.89c0-6.08-5-10.39-11.25-10.39Zm-5,8.84c.86-1.94,2.76-3.23,5-3.23,3.15,0,4.74,1.16,5.35,3.23h-10.35Z"/><path class="cls-1" d="M122.33,22.78c-1.9-1.59-4.35-2.46-6.73-2.46-4.87,0-9.61,3.49-9.61,11.25,0,7.29,5.22,11.38,10.22,11.38,2.24,0,4.44-.82,6.12-2.54l.34,1.94h5.82V13.69h-6.16v9.1Zm-4.87,14.4c-3.06,0-5.13-1.94-5.13-5.17,0-3.49,2.03-5.82,5.22-5.82,3.41,0,4.7,2.63,4.7,5.35s-1.42,5.65-4.78,5.65Z"/><path class="cls-1" d="M177.3,33.13v-6.25h3.45v-6.08h-3.41v-7.11h-6.25v7.11h-3.02v6.08h3.02v6.51c0,6.25,2.37,9.23,7.37,9.23,.99,0,2.8-.09,3.75-.26v-6.08c-.47,.09-1.85,.17-2.54,.17-1.81,0-2.37-.78-2.37-3.32Z"/><path class="cls-1" d="M243.64,46.79c0-.37-.3-.62-.76-.62h-.89v1.98h.38v-.71h.41l.54,.71h.47l-.6-.78c.29-.09,.45-.3,.45-.59Zm-.78,.31h-.49v-.57h.51c.24,0,.38,.1,.38,.28s-.15,.29-.4,.29Z"/><path class="cls-1" d="M244.11,39.46c.16-.3,.3-.6,.42-1,.16-.52,.26-1.31-.32-1.59-.36-.14-.65,.02-.89,.26-7.06,9.78-11.45,5.47-15.09-3.68l9.27-12.64h-7.35l-4.78,6.8-3.02-6.8h-7.73l5.48,11.08-8.41,10.46h8.11l3.3-4.47c.81,1.59,1.75,3.13,2.8,4.58,1.09,1.51,2.58,3.27,4.39,3.93,3.42,1.26,7.04,.22,9.81-2.01,1.25-1,2.32-2.21,3.21-3.53,.36-.53,.7-1.19,.81-1.4Z"/><path class="cls-1" d="M242.77,45.34c-1.04,0-1.89,.85-1.89,1.89s.84,1.88,1.88,1.88,1.89-.85,1.89-1.89-.84-1.88-1.88-1.88Zm0,3.45c-.87,0-1.55-.68-1.55-1.56s.68-1.57,1.56-1.57,1.55,.68,1.55,1.56-.68,1.57-1.56,1.57Z"/><rect class="cls-1" x="202.67" y="20.8" width="6.21" height="21.55"/><path class="cls-1" d="M205.56,10.07c-2.28,0-3.97,1.6-3.97,4.05,0,2.24,1.68,3.92,4.01,3.92s3.97-1.6,3.97-4.05c0-2.24-1.68-3.92-4.01-3.92Z"/><path class="cls-1" d="M191.41,25.1l-.05-4.3h-5.78v21.61h6.22v-10.41c0-2.72,4.53-4.83,8.02-4.83v-6.34c-2.59,0-6.6,2.07-8.41,4.27Z"/><path class="cls-1" d="M158.84,22.74c-1.9-1.55-4.31-2.41-6.64-2.41-4.87,0-9.61,3.49-9.61,11.25,0,7.29,5.22,11.38,10.22,11.38,2.2,0,4.4-.82,6.08-2.5l.39,1.9h5.82V20.8h-5.82l-.43,1.94Zm-4.78,14.44c-3.06,0-5.13-1.94-5.13-5.17,0-3.49,2.03-5.82,5.22-5.82,3.41,0,4.7,2.63,4.7,5.35s-1.42,5.65-4.78,5.65Z"/><path class="cls-3" d="M295.03,10.56c-.38,.91-.92,1.7-1.62,2.36-.7,.66-1.53,1.18-2.49,1.56-.96,.38-2.03,.57-3.18,.57h-5.52V.25h5.52c1.16,0,2.22,.19,3.18,.56,.96,.37,1.8,.89,2.49,1.55,.7,.66,1.24,1.44,1.62,2.35,.38,.9,.57,1.87,.57,2.92s-.19,2.02-.57,2.93Zm-2.53-4.91c-.25-.62-.59-1.15-1.04-1.6-.45-.45-.99-.81-1.62-1.06-.64-.25-1.34-.38-2.12-.38h-2.92V12.7h2.92c.78,0,1.48-.12,2.12-.37,.64-.25,1.18-.59,1.62-1.04,.45-.45,.79-.98,1.04-1.59,.25-.62,.37-1.29,.37-2.03s-.12-1.41-.37-2.03Z"/><path class="cls-3" d="M309.74,2.6h-8.37v3.8h7.42v2.35h-7.42v3.95h8.48v2.35h-11.05V.25h10.95V2.6Z"/><path class="cls-3" d="M323.67,.25h2.81l-6.15,14.9h-2.28l-6.15-14.9h2.88l4.46,11.37,4.44-11.37Z"/><path class="cls-3" d="M339.87,2.6h-8.37v3.8h7.42v2.35h-7.42v3.95h8.48v2.35h-11.05V.25h10.95V2.6Z"/><path class="cls-3" d="M343.26,.25h2.58V12.7h7.78v2.35h-10.36V.25Z"/><path class="cls-3" d="M369.98,10.59c-.38,.93-.92,1.74-1.61,2.44s-1.51,1.25-2.45,1.66-1.99,.61-3.13,.61-2.18-.2-3.13-.6-1.75-.95-2.43-1.64c-.68-.69-1.21-1.5-1.59-2.43-.38-.93-.57-1.92-.57-2.96s.19-2.03,.57-2.96c.38-.93,.92-1.74,1.61-2.44,.69-.7,1.51-1.25,2.45-1.66,.94-.41,1.99-.61,3.13-.61s2.18,.2,3.13,.6c.94,.4,1.75,.95,2.43,1.64,.68,.69,1.21,1.5,1.59,2.43,.38,.93,.57,1.92,.57,2.96s-.19,2.03-.57,2.96Zm-2.53-4.96c-.25-.64-.59-1.2-1.04-1.68-.44-.48-.98-.86-1.6-1.14-.62-.28-1.3-.42-2.03-.42s-1.41,.14-2.02,.41c-.61,.27-1.14,.65-1.57,1.12-.44,.47-.78,1.03-1.03,1.67-.25,.64-.37,1.32-.37,2.04s.12,1.4,.37,2.04c.25,.64,.59,1.2,1.04,1.68,.44,.48,.98,.86,1.6,1.14s1.3,.42,2.03,.42,1.41-.14,2.02-.41c.61-.28,1.14-.65,1.57-1.12,.44-.47,.78-1.03,1.03-1.67,.25-.64,.37-1.32,.37-2.04s-.12-1.4-.37-2.04Z"/><path class="cls-3" d="M384.76,7.42c-.31,.63-.73,1.16-1.27,1.59-.54,.42-1.17,.74-1.88,.96-.72,.22-1.49,.33-2.31,.33h-2.94v4.76h-2.58V.25h5.83c.86,0,1.64,.12,2.34,.35s1.29,.57,1.78,1,.86,.96,1.12,1.56c.26,.61,.39,1.29,.39,2.05,0,.83-.16,1.56-.47,2.2Zm-3.04-4.15c-.58-.45-1.36-.67-2.33-.67h-3.03V7.95h3.03c.99,0,1.77-.24,2.34-.73,.57-.49,.86-1.13,.86-1.94,0-.89-.29-1.56-.87-2Z"/><path class="cls-3" d="M395.14,11.41h-.08l-4.63-6.93V15.05h-2.58V.25h2.77l4.5,7,4.5-7h2.77V15.05h-2.58V4.44l-4.67,6.98Z"/><path class="cls-3" d="M417.32,2.6h-8.37v3.8h7.42v2.35h-7.42v3.95h8.48v2.35h-11.05V.25h10.95V2.6Z"/><path class="cls-3" d="M431.02,.25h2.58V15.05h-2.17l-8.14-10.53V15.05h-2.58V.25h2.41l7.91,10.23V.25Z"/><path class="cls-3" d="M443.46,15.05h-2.62V2.66h-4.69V.25h12.01V2.66h-4.69V15.05Z"/><path class="cls-3" d="M463.12,15.05h-2.75l-1.5-3.57h-7l-1.52,3.57h-2.66L454.2,.15h2.41l6.51,14.9Zm-7.76-11.79l-2.54,5.92h5.09l-2.56-5.92Z"/><path class="cls-3" d="M465.58,.25h2.58V12.7h7.78v2.35h-10.36V.25Z"/><path class="cls-3" d="M289.52,35.72h-.08l-4.63-6.93v10.57h-2.58v-14.8h2.77l4.5,7,4.5-7h2.77v14.8h-2.58v-10.61l-4.67,6.98Z"/><path class="cls-3" d="M311.7,26.91h-8.37v3.8h7.42v2.35h-7.42v3.95h8.48v2.35h-11.05v-14.8h10.95v2.35Z"/><path class="cls-3" d="M327.89,34.87c-.38,.91-.92,1.7-1.62,2.36s-1.53,1.18-2.49,1.56c-.97,.38-2.03,.57-3.18,.57h-5.52v-14.8h5.52c1.16,0,2.22,.19,3.18,.56,.96,.37,1.8,.89,2.49,1.55s1.24,1.44,1.62,2.35c.38,.9,.57,1.87,.57,2.92s-.19,2.02-.57,2.93Zm-2.53-4.91c-.25-.62-.59-1.15-1.04-1.6-.45-.45-.99-.81-1.62-1.06-.64-.25-1.34-.38-2.12-.38h-2.92v10.1h2.92c.78,0,1.48-.12,2.12-.37,.64-.25,1.18-.59,1.62-1.04,.45-.45,.79-.98,1.04-1.59,.25-.62,.37-1.29,.37-2.03s-.12-1.41-.37-2.03Z"/><path class="cls-3" d="M334.28,24.56v14.8h-2.58v-14.8h2.58Z"/><path class="cls-3" d="M349.96,38.08c-.42,.32-.86,.59-1.34,.83-.48,.23-1,.41-1.57,.53-.57,.12-1.2,.18-1.89,.18-1.09,0-2.09-.2-3-.59-.92-.39-1.71-.93-2.38-1.62-.67-.68-1.19-1.49-1.58-2.42-.38-.93-.57-1.93-.57-3s.19-2.05,.56-2.98c.37-.93,.9-1.74,1.57-2.44,.68-.7,1.48-1.25,2.41-1.65,.93-.4,1.96-.6,3.09-.6,.68,0,1.29,.06,1.85,.17,.56,.11,1.07,.27,1.53,.48s.89,.45,1.29,.73,.77,.59,1.12,.93l-1.67,1.92c-.59-.55-1.22-.99-1.88-1.33s-1.42-.51-2.26-.51c-.7,0-1.36,.14-1.96,.41-.6,.27-1.12,.65-1.55,1.12-.44,.47-.78,1.03-1.01,1.66s-.36,1.32-.36,2.05,.12,1.42,.36,2.06c.24,.64,.58,1.2,1.01,1.68s.96,.86,1.55,1.13c.6,.27,1.25,.41,1.96,.41,.9,0,1.68-.17,2.33-.52,.65-.35,1.29-.81,1.92-1.41l1.67,1.69c-.38,.41-.78,.77-1.19,1.09Z"/><path class="cls-3" d="M356.46,24.56v14.8h-2.58v-14.8h2.58Z"/><path class="cls-3" d="M370.83,24.56h2.58v14.8h-2.17l-8.14-10.53v10.53h-2.58v-14.8h2.41l7.91,10.23v-10.23Z"/><path class="cls-3" d="M388.34,26.91h-8.37v3.8h7.42v2.35h-7.42v3.95h8.48v2.35h-11.05v-14.8h10.95v2.35Z"/><path class="cls-3" d="M412.14,34.9c-.38,.93-.92,1.74-1.61,2.44s-1.51,1.25-2.45,1.66-1.99,.61-3.13,.61-2.18-.2-3.13-.6-1.75-.95-2.43-1.64c-.68-.69-1.21-1.5-1.59-2.43-.38-.93-.57-1.92-.57-2.96s.19-2.03,.57-2.96c.38-.93,.92-1.74,1.61-2.44,.69-.7,1.51-1.25,2.45-1.66,.94-.41,1.99-.61,3.13-.61s2.18,.2,3.13,.6c.94,.4,1.75,.95,2.43,1.64,.68,.69,1.21,1.5,1.59,2.43,.38,.93,.57,1.92,.57,2.96s-.19,2.03-.57,2.96Zm-2.53-4.96c-.25-.64-.59-1.2-1.04-1.68-.44-.48-.98-.86-1.6-1.14-.62-.28-1.3-.42-2.03-.42s-1.41,.14-2.02,.41c-.61,.27-1.14,.65-1.57,1.12-.44,.47-.78,1.03-1.03,1.67-.25,.64-.37,1.32-.37,2.04s.12,1.4,.37,2.04c.25,.64,.59,1.2,1.04,1.68,.44,.48,.98,.86,1.6,1.14s1.3,.42,2.03,.42,1.41-.14,2.02-.41c.61-.28,1.14-.65,1.57-1.12,.44-.47,.78-1.03,1.03-1.67,.25-.64,.37-1.32,.37-2.04s-.12-1.4-.37-2.04Z"/><path class="cls-3" d="M426.91,26.91h-8.41v4.08h7.46v2.35h-7.46v6.02h-2.58v-14.8h10.99v2.35Z"/><path class="cls-3" d="M295.03,59.18c-.38,.91-.92,1.7-1.62,2.36-.7,.66-1.53,1.18-2.49,1.56-.96,.38-2.03,.57-3.18,.57h-5.52v-14.8h5.52c1.16,0,2.22,.19,3.18,.56,.96,.37,1.8,.89,2.49,1.55,.7,.66,1.24,1.44,1.62,2.35,.38,.9,.57,1.87,.57,2.92s-.19,2.02-.57,2.93Zm-2.53-4.91c-.25-.62-.59-1.15-1.04-1.6-.45-.45-.99-.81-1.62-1.06-.64-.25-1.34-.38-2.12-.38h-2.92v10.1h2.92c.78,0,1.48-.12,2.12-.37,.64-.25,1.18-.59,1.62-1.04,.45-.45,.79-.98,1.04-1.59,.25-.62,.37-1.29,.37-2.03s-.12-1.41-.37-2.03Z"/><path class="cls-3" d="M311.99,63.67h-2.75l-1.5-3.57h-7l-1.52,3.57h-2.66l6.51-14.9h2.41l6.51,14.9Zm-7.76-11.79l-2.54,5.92h5.09l-2.56-5.92Z"/><path class="cls-3" d="M314.44,48.87h2.58v12.45h7.78v2.35h-10.36v-14.8Z"/><path class="cls-3" d="M327.34,48.87h2.58v12.45h7.78v2.35h-10.36v-14.8Z"/><path class="cls-3" d="M355.05,63.67h-2.75l-1.5-3.57h-7l-1.52,3.57h-2.66l6.51-14.9h2.41l6.51,14.9Zm-7.76-11.79l-2.54,5.92h5.09l-2.56-5.92Z"/><path class="cls-3" d="M359.92,53.5c.1,.21,.28,.41,.54,.59,.26,.18,.62,.35,1.08,.51,.46,.16,1.04,.32,1.75,.49,.78,.2,1.47,.42,2.07,.66,.6,.24,1.1,.53,1.49,.88,.4,.35,.7,.75,.9,1.21,.21,.46,.31,1,.31,1.62,0,.71-.13,1.33-.39,1.88-.26,.55-.62,1.01-1.08,1.4s-1.01,.67-1.66,.87c-.65,.2-1.36,.3-2.13,.3-1.14,0-2.23-.19-3.28-.58-1.04-.39-2.01-.98-2.9-1.79l1.56-1.86c.72,.62,1.44,1.1,2.18,1.43,.73,.33,1.56,.5,2.49,.5,.8,0,1.44-.17,1.91-.51,.47-.34,.71-.8,.71-1.37,0-.27-.05-.51-.14-.72-.09-.21-.26-.41-.51-.58-.25-.18-.59-.34-1.02-.5s-.99-.32-1.68-.49c-.79-.18-1.49-.39-2.11-.61-.62-.22-1.13-.51-1.55-.84-.42-.34-.74-.75-.95-1.23-.22-.48-.33-1.06-.33-1.75,0-.65,.12-1.24,.38-1.77s.6-.98,1.04-1.36c.44-.38,.97-.67,1.59-.88,.62-.2,1.29-.31,2.03-.31,1.08,0,2.06,.16,2.93,.48,.87,.32,1.68,.78,2.44,1.38l-1.39,1.97c-.68-.49-1.35-.87-2.01-1.13s-1.33-.39-2.01-.39c-.76,0-1.35,.17-1.78,.52-.42,.34-.63,.76-.63,1.26,0,.3,.05,.55,.15,.76Z"/><rect class="cls-1" x="261.98" y=".26" width="2.5" height="63.38"/></g></g></g></svg>