<?xml version="1.0" encoding="utf-8"?>
<!-- Generator: Adobe Illustrator 26.5.0, SVG Export Plug-In . SVG Version: 6.00 Build 0)  -->
<svg version="1.1" id="Layer_1" xmlns="http://www.w3.org/2000/svg" xmlns:xlink="http://www.w3.org/1999/xlink" x="0px" y="0px"
	 viewBox="0 0 288 72" style="enable-background:new 0 0 288 72;" xml:space="preserve">
<style type="text/css">
	.st0{fill:#00274D;}
	.st1{fill:#572700;}
</style>
<g>
	<path class="st0" d="M194.9,47.9c-0.5,0-0.6,0-1.1,0l-0.1-0.1c0-1.1,0.1-2.3,0-3.4c-0.2,0-0.5,0-0.9,0c-0.8,0-1.6,0-2.3,0
		c0,1.9,0,2.6,0.1,3.3l-0.1,0.1c-0.5,0-0.6,0-1.1,0l-0.1-0.1c0-1,0-1.5,0-4.5c0-1.3,0-1.8-0.1-2.4l0.1-0.1c0.5,0,0.6,0,1.1,0l0,0.1
		c0,0.6,0,1.4,0,2.8c0.5,0,0.8,0,1.4,0c0.9,0,1.3,0,1.8,0c0-1.9,0-2.1-0.1-2.7l0-0.1c0.5,0,0.6,0,1.1,0l0.1,0.1c0,1,0,1.6,0,3.3
		C194.8,46.2,194.9,46.9,194.9,47.9L194.9,47.9z"/>
	<path class="st0" d="M204.4,47.1c0,0.3,0,0.4-0.1,0.7l-0.1,0.1c-1.9,0-2.3,0-4.2,0l0-0.1c0-0.8,0.1-1.3,0.1-3.2
		c0-1.7,0-2.6-0.1-3.8l0.1-0.1c2,0,2.4,0,4.2,0l0.1,0.1c0,0.3,0,0.4-0.1,0.8l-0.1,0.1c-1.3,0-1.7,0-3-0.1c0,0.9,0,1.2,0,2.1
		c1.2,0,1.6,0,2.8,0l0.1,0.1c0,0.3,0,0.4-0.1,0.8l-0.1,0.1c-1.2,0-1.4,0-2.8,0c0,1.2,0,1.4,0,2.4C202.7,47.1,203,47.1,204.4,47.1
		L204.4,47.1z"/>
	<path class="st0" d="M212.2,41.1c0.3,1.1,0.7,2.3,1,3.3c0.3,1,0.8,2.5,1.1,3.5l0,0.1c-0.5,0-0.7,0-1.2,0l-0.1-0.1
		c-0.2-0.9-0.3-1.2-0.6-2.1c-0.4,0-0.8,0-1.2,0c-0.4,0-0.9,0-1.3,0c-0.3,0.9-0.3,1.2-0.6,2.1l-0.1,0.1c-0.4,0-0.5,0-1,0l0-0.1
		c0-0.1,0.1-0.2,0.1-0.3c0.4-1.1,0.7-2.2,1.1-3.2c0.6-1.8,0.8-2.4,1.1-3.4l0.1-0.1c0.7,0,0.8,0,1.4,0l0.1,0.1L212.2,41.1z M210.2,45
		c0.3,0,0.6,0,1,0c0.3,0,0.7,0,1,0l-1-3.4L210.2,45z"/>
	<path class="st0" d="M222.5,47.1c0,0.3,0,0.5-0.1,0.8l0,0.1c-1.8,0-1.9,0-3.8,0l-0.1-0.1c0-0.8,0-2,0-3.8c0-1.5,0-2.4-0.1-3.2
		l0.1-0.1c0.5,0,0.6,0,1.1,0l0.1,0.1c-0.1,1.9-0.1,4.3-0.1,4.5c0,0.8,0,1.2,0,1.6C220.8,47.1,221.1,47.1,222.5,47.1L222.5,47.1z"/>
	<path class="st0" d="M229.9,41.7c-0.8,0-1,0-1.8,0c0,1,0,1.2,0,2c0,2.5,0,3.5,0.1,4.1l-0.1,0.1c-0.6,0-0.6,0-1.1,0l0-0.1
		c0-1.4,0.1-2.8,0.1-4.2c0-1,0-1.5,0-2c-0.9,0-1,0-1.9,0l-0.1-0.1c0-0.3,0-0.4,0-0.7l0-0.1c0.7,0,1.9,0,2.6,0c0.8,0,1.5,0,2.3,0
		l0,0.1C230,41.3,230,41.4,229.9,41.7L229.9,41.7z"/>
	<path class="st0" d="M239.8,47.9c-0.5,0-0.6,0-1.1,0l-0.1-0.1c0-1.1,0.1-2.3,0.1-3.4c-0.2,0-0.5,0-0.9,0c-0.8,0-1.6,0-2.3,0
		c0,1.9,0,2.6,0.1,3.3l0,0.1c-0.5,0-0.6,0-1.1,0l-0.1-0.1c0-1,0-1.5,0-4.5c0-1.3,0-1.8-0.1-2.4l0.1-0.1c0.5,0,0.6,0,1.1,0l0.1,0.1
		c0,0.6,0,1.4,0,2.8c0.5,0,0.8,0,1.4,0c0.9,0,1.3,0,1.8,0c0-1.9,0-2.1-0.1-2.7l0-0.1c0.5,0,0.6,0,1.1,0l0.1,0.1c0,1,0,1.6,0,3.3
		C239.8,46.2,239.8,46.9,239.8,47.9L239.8,47.9z"/>
	<path class="st0" d="M250.1,46.6c0,0.5,0,0.6-0.1,1l-0.1,0.1c-0.3,0.1-0.9,0.4-1.9,0.4c-2.2,0-3.5-1.4-3.5-3.7c0-0.5,0-1.7,0.9-2.6
		c0.8-0.9,1.9-1,2.6-1c0.9,0,1.5,0.2,1.8,0.3l0,0.1c0,0.4-0.1,0.5-0.1,0.9l-0.1,0c-0.2-0.1-0.7-0.4-1.6-0.4c-1.6,0-2.5,1.1-2.5,2.8
		c0,1.9,1,2.8,2.4,2.8C249.1,47.2,249.7,46.8,250.1,46.6L250.1,46.6z"/>
	<path class="st0" d="M258,41.1c0.3,1.1,0.7,2.3,1,3.3c0.3,1,0.8,2.5,1.1,3.5l0,0.1c-0.5,0-0.7,0-1.2,0l-0.1-0.1
		c-0.3-0.9-0.3-1.2-0.6-2.1c-0.4,0-0.8,0-1.2,0c-0.4,0-0.9,0-1.3,0c-0.3,0.9-0.3,1.2-0.6,2.1l-0.1,0.1c-0.4,0-0.5,0-1,0l0-0.1
		c0-0.1,0.1-0.2,0.1-0.3c0.4-1.1,0.8-2.2,1.1-3.2c0.6-1.8,0.8-2.4,1.1-3.4l0.1-0.1c0.7,0,0.8,0,1.4,0l0.1,0.1L258,41.1z M256,45
		c0.3,0,0.6,0,1,0c0.3,0,0.7,0,1,0l-1-3.4L256,45z"/>
	<path class="st0" d="M265.5,47.9c-0.6,0-0.6,0-1.1,0l-0.1-0.1c0-1,0-1.9,0-2.9c0-2.2,0-3-0.1-4l0.1-0.1h0.2c0.2,0,0.7,0,1,0l0.6,0
		c0.6,0,1.1,0,1.6,0.2c0.8,0.3,1.3,0.8,1.3,1.8c0,0.8-0.4,1.6-1.7,2c0.2,0.2,0.9,1.4,1.1,1.6c0.3,0.4,0.4,0.6,1.1,1.5l0,0.1
		c-0.2,0-0.4,0-0.6,0c-0.2,0-0.4,0-0.6,0l-0.1,0c0-0.1-0.1-0.1-0.1-0.2c-0.3-0.5-0.6-1-0.9-1.5c-0.6-0.9-0.7-1-0.9-1.3
		c-0.3,0-0.4,0-0.7,0C265.5,45.5,265.5,47,265.5,47.9L265.5,47.9z M267.5,43.7c0.2-0.2,0.4-0.5,0.4-0.8c0-0.2,0-0.5-0.2-0.7
		c-0.3-0.5-0.9-0.5-1.6-0.5c-0.1,0-0.3,0-0.6,0c0,1.2,0,1.3,0,2.4C266.2,44.1,267,44.1,267.5,43.7z"/>
	<path class="st0" d="M278.3,47.1c0,0.3,0,0.4-0.1,0.7l-0.1,0.1c-1.9,0-2.3,0-4.2,0l0-0.1c0-0.8,0.1-1.3,0.1-3.2
		c0-1.7,0-2.6-0.1-3.8l0.1-0.1c2,0,2.4,0,4.2,0l0.1,0.1c0,0.3,0,0.4-0.1,0.8l-0.1,0.1c-1.3,0-1.7,0-3-0.1c0,0.9,0,1.2,0,2.1
		c1.2,0,1.6,0,2.8,0l0.1,0.1c0,0.3,0,0.4-0.1,0.8l-0.1,0.1c-1.2,0-1.4,0-2.8,0c0,1.2,0,1.4,0,2.4C276.7,47.1,277,47.1,278.3,47.1
		L278.3,47.1z"/>
</g>
<g>
	<path class="st1" d="M14,14.4c0-2.6-0.2-3.4-1.9-3.7l-0.9-0.1c-0.3-0.2-0.4-0.8,0-0.9c3.4-0.2,6.7-0.3,10.1-0.3
		c3.4,0,6.3,0.2,8.9,1.1c5.4,1.8,8.2,6.1,8.2,11.1c0,4.8-2.5,8.9-7.1,11.2c-2.6,1.3-5.9,1.8-9,1.8c-2.6,0-5.2-0.3-6.6-0.3
		c-1.7,0-3.1,0-5,0.1c-0.2-0.1-0.3-0.7-0.1-0.9l0.9-0.1c2.3-0.3,2.4-0.8,2.4-4.7V14.4z M17.3,27.8c0,2,0.1,3.2,0.8,4.1
		c0.9,1.2,2.4,1.5,5,1.5c7.8,0,11.3-4.8,11.3-11.8c0-4.1-2.1-11.2-12.7-11.2c-2.4,0-3.7,0.3-4,0.5c-0.3,0.2-0.4,1.2-0.4,2.9V27.8z"
		/>
	<path class="st1" d="M43.8,19c0-3.1-0.1-3.6-2-3.8l-0.5-0.1c-0.2-0.1-0.1-0.7,0.1-0.8c1.4,0.1,2.5,0.1,3.8,0.1h6.1
		c2.1,0,4,0,4.4-0.1c0.2,0.5,0.4,2.7,0.5,4c-0.1,0.2-0.6,0.2-0.8,0.1c-0.5-1.4-0.8-2.5-2.5-2.9c-0.7-0.2-1.7-0.2-3.1-0.2h-2.3
		c-1,0-1,0.1-1,1.2v6c0,0.8,0.1,0.8,1.1,0.8h1.9c1.4,0,2.4-0.1,2.7-0.2c0.4-0.1,0.6-0.3,0.8-1.1l0.3-1.2c0.2-0.2,0.7-0.2,0.8,0
		c0,0.7-0.1,1.9-0.1,3c0,1.1,0.1,2.2,0.1,2.9c-0.1,0.2-0.7,0.2-0.8,0l-0.3-1.2c-0.1-0.5-0.4-1-1-1.1c-0.5-0.1-1.2-0.2-2.5-0.2h-1.9
		c-1,0-1.1,0-1.1,0.8v4.3c0,1.6,0.1,2.6,0.6,3.1c0.4,0.4,1.1,0.7,3.9,0.7c2.5,0,3.4-0.1,4.1-0.5c0.6-0.3,1.5-1.4,2.3-2.9
		c0.2-0.2,0.7-0.1,0.8,0.2c-0.2,1.1-1,3.4-1.5,4.2c-2.9-0.1-5.8-0.1-8.7-0.1h-2.9c-1.4,0-2.5,0-4.4,0.1c-0.2-0.1-0.3-0.6-0.1-0.8
		l1.1-0.1c1.8-0.2,2-0.6,2-3.8V19z"/>
	<path class="st1" d="M66.7,34.8c-2.7,0-4.4-0.8-5-1.1c-0.4-0.7-0.8-2.8-0.9-4.2c0.2-0.2,0.6-0.3,0.8-0.1c0.5,1.5,1.8,4.5,5.6,4.5
		c2.7,0,4-1.7,4-3.5c0-1.3-0.3-2.8-2.6-4.2l-3.1-1.9c-1.6-1-3.5-2.7-3.5-5.2c0-2.9,2.4-5.2,6.6-5.2c1,0,2.2,0.2,3,0.4
		c0.4,0.1,0.9,0.2,1.1,0.2c0.3,0.7,0.6,2.4,0.6,3.7c-0.1,0.2-0.6,0.3-0.8,0.1c-0.4-1.4-1.3-3.4-4.4-3.4c-3.2,0-3.8,2-3.8,3.3
		c0,1.7,1.6,3,2.7,3.7l2.6,1.5c2,1.2,4,2.9,4,5.8C73.6,32.6,70.9,34.8,66.7,34.8z"/>
	<path class="st1" d="M79.8,19c0-3.1-0.1-3.6-2-3.8l-0.5-0.1c-0.2-0.1-0.1-0.7,0.1-0.8c1.4,0.1,2.5,0.1,3.8,0.1h6.1
		c2.1,0,4,0,4.4-0.1c0.2,0.5,0.4,2.7,0.5,4c-0.1,0.2-0.6,0.2-0.8,0.1c-0.5-1.4-0.8-2.5-2.5-2.9c-0.7-0.2-1.7-0.2-3.1-0.2h-2.3
		c-1,0-1,0.1-1,1.2v6c0,0.8,0.1,0.8,1.1,0.8h1.9c1.4,0,2.4-0.1,2.7-0.2c0.4-0.1,0.6-0.3,0.8-1.1l0.3-1.2c0.2-0.2,0.7-0.2,0.8,0
		c0,0.7-0.1,1.9-0.1,3c0,1.1,0.1,2.2,0.1,2.9c-0.1,0.2-0.7,0.2-0.8,0l-0.3-1.2c-0.1-0.5-0.4-1-1-1.1c-0.5-0.1-1.2-0.2-2.5-0.2h-1.9
		c-1,0-1.1,0-1.1,0.8v4.3c0,1.6,0.1,2.6,0.6,3.1c0.4,0.4,1.1,0.7,3.9,0.7c2.5,0,3.4-0.1,4.1-0.5c0.6-0.3,1.5-1.4,2.3-2.9
		c0.2-0.2,0.7-0.1,0.8,0.2c-0.2,1.1-1,3.4-1.5,4.2c-2.9-0.1-5.8-0.1-8.7-0.1h-2.9c-1.4,0-2.5,0-4.4,0.1c-0.2-0.1-0.3-0.6-0.1-0.8
		l1.1-0.1c1.8-0.2,2-0.6,2-3.8V19z"/>
	<path class="st1" d="M99.9,19c0-2.9-0.1-3.4-1.4-3.5l-1-0.1c-0.2-0.2-0.2-0.6,0-0.8c1.8-0.2,4-0.2,7.2-0.2c2,0,3.9,0.2,5.4,0.9
		c1.5,0.8,2.7,2.1,2.7,4.2c0,2.9-2.4,4.4-4,5c-0.2,0.2,0,0.5,0.2,0.7c2.6,3.9,4.3,6.3,6.5,8c0.5,0.5,1.4,0.8,2.2,0.8
		c0.2,0.1,0.2,0.3,0,0.4c-0.3,0.1-0.8,0.2-1.4,0.2c-2.7,0-4.4-0.8-6.7-3.8c-0.8-1.1-2.2-3.2-3.2-4.6c-0.5-0.7-1-1-2.3-1
		c-1.5,0-1.5,0-1.5,0.7v3.8c0,3.2,0.1,3.5,1.9,3.8l0.7,0.1c0.2,0.1,0.1,0.7-0.1,0.8c-1.5-0.1-2.6-0.1-3.8-0.1c-1.4,0-2.5,0-4,0.1
		c-0.2-0.1-0.3-0.5-0.1-0.8l0.8-0.1c1.9-0.2,1.9-0.6,1.9-3.8V19z M102.6,23.3c0,0.5,0,0.9,0.1,1c0.1,0.1,0.6,0.2,2.2,0.2
		c1.2,0,2.4-0.1,3.3-0.8c0.9-0.6,1.6-1.7,1.6-3.7c0-2.4-1.6-4.6-5.2-4.6c-2,0-2.1,0.1-2.1,1V23.3z"/>
	<path class="st1" d="M128,29.8c0,3.2,0.1,3.6,1.9,3.8l1,0.1c0.2,0.1,0.1,0.7-0.1,0.8c-1.8-0.1-2.9-0.1-4.2-0.1
		c-1.3,0-2.4,0-4.5,0.1c-0.2-0.1-0.3-0.6,0-0.8l1.2-0.1c1.8-0.2,2-0.6,2-3.8V16.3c0-0.9,0-1-1-1h-1.8c-1.4,0-3.2,0.1-4,0.8
		c-0.8,0.7-1.1,1.3-1.5,2.1c-0.3,0.2-0.7,0-0.8-0.2c0.5-1.4,1-3.3,1.2-4.5c0.1-0.1,0.5-0.1,0.6,0c0.2,1,1.3,0.9,2.7,0.9H134
		c1.7,0,2-0.1,2.5-0.8c0.2-0.1,0.5,0,0.6,0.1c-0.4,1.2-0.6,3.7-0.5,4.6c-0.1,0.2-0.7,0.2-0.8,0.1c-0.1-0.8-0.3-1.9-0.8-2.2
		c-0.7-0.5-2-0.8-3.7-0.8h-2.3c-1,0-0.9,0-0.9,1V29.8z"/>
	<path class="st1" d="M186,22.2c0-7.5,6.1-13.3,14.4-13.3c9.3,0,14,6.3,14,12.9c0,7.6-6.2,13.2-14,13.2
		C191.4,34.9,186,28.9,186,22.2z M210.3,23c0-6.2-2.9-12.9-10.7-12.9c-4.2,0-9.6,2.7-9.6,10.9c0,5.6,2.9,12.8,10.9,12.8
		C205.7,33.8,210.3,30.4,210.3,23z"/>
	<path class="st1" d="M227.9,27.3c-0.2-0.7-0.4-0.8-1.3-0.8h-4.9c-0.8,0-1,0.1-1.2,0.7l-1.1,3.2c-0.5,1.4-0.7,2.2-0.7,2.5
		c0,0.4,0.2,0.5,0.9,0.6l1.1,0.1c0.2,0.1,0.2,0.6-0.1,0.8c-0.8-0.1-1.8-0.1-3.4-0.1c-1.1,0-2.2,0.1-3.1,0.1
		c-0.2-0.1-0.3-0.6-0.1-0.8l1.1-0.1c0.8-0.1,1.5-0.4,1.9-1.5c0.6-1.4,1.5-3.3,2.8-6.7l3.3-8.1c0.5-1.1,0.6-1.7,0.5-2.1
		c0.8-0.2,1.3-0.8,1.7-1.1c0.2,0,0.4,0.1,0.5,0.3c0.4,1.3,0.9,2.7,1.4,4l4.4,12.1c0.9,2.6,1.4,3,2.7,3.2l0.9,0.1
		c0.2,0.1,0.2,0.6,0,0.8c-1.3-0.1-2.5-0.1-3.9-0.1c-1.5,0-2.8,0.1-3.7,0.1c-0.3-0.1-0.3-0.6-0.1-0.8l0.9-0.1
		c0.7-0.1,1.1-0.2,1.1-0.5c0-0.3-0.2-0.9-0.4-1.6L227.9,27.3z M221.5,24.7c-0.3,0.7-0.2,0.7,0.7,0.7h4c0.9,0,1-0.1,0.7-0.9l-1.7-4.9
		c-0.3-0.7-0.5-1.5-0.7-1.9h-0.1c-0.1,0.2-0.4,0.9-0.8,1.8L221.5,24.7z"/>
	<path class="st1" d="M243.3,34.8c-2.7,0-4.4-0.8-5-1.1c-0.4-0.7-0.8-2.8-0.9-4.2c0.2-0.2,0.6-0.3,0.8-0.1c0.5,1.5,1.8,4.5,5.6,4.5
		c2.7,0,4-1.7,4-3.5c0-1.3-0.3-2.8-2.6-4.2l-3.1-1.9c-1.6-1-3.5-2.7-3.5-5.2c0-2.9,2.4-5.2,6.6-5.2c1,0,2.2,0.2,3,0.4
		c0.4,0.1,0.9,0.2,1.1,0.2c0.3,0.7,0.6,2.4,0.6,3.7c-0.1,0.2-0.6,0.3-0.8,0.1c-0.4-1.4-1.3-3.4-4.4-3.4c-3.2,0-3.8,2-3.8,3.3
		c0,1.7,1.5,3,2.7,3.7l2.6,1.5c2,1.2,4,2.9,4,5.8C250.2,32.6,247.5,34.8,243.3,34.8z"/>
	<path class="st1" d="M257,19c0-3.2-0.1-3.7-2-3.9l-0.8-0.1c-0.2-0.1-0.1-0.7,0.1-0.8c1.6,0.1,2.7,0.1,4.1,0.1c1.3,0,2.4,0,4-0.1
		c0.2,0.1,0.3,0.6,0.1,0.8l-0.8,0.1c-1.9,0.2-2,0.7-2,3.9v10.7c0,3.2,0.1,3.6,2,3.8l0.8,0.1c0.2,0.1,0.1,0.7-0.1,0.8
		c-1.6-0.1-2.7-0.1-4-0.1c-1.4,0-2.5,0-4.1,0.1c-0.2-0.1-0.3-0.6-0.1-0.8l0.8-0.1c1.9-0.2,2-0.6,2-3.8V19z"/>
	<path class="st1" d="M272,34.8c-2.7,0-4.4-0.8-5-1.1c-0.4-0.7-0.8-2.8-0.9-4.2c0.2-0.2,0.6-0.3,0.8-0.1c0.5,1.5,1.8,4.5,5.6,4.5
		c2.7,0,4-1.7,4-3.5c0-1.3-0.3-2.8-2.6-4.2l-3.1-1.9c-1.6-1-3.5-2.7-3.5-5.2c0-2.9,2.4-5.2,6.6-5.2c1,0,2.2,0.2,3,0.4
		c0.4,0.1,0.9,0.2,1.1,0.2c0.3,0.7,0.6,2.4,0.6,3.7c-0.1,0.2-0.6,0.3-0.8,0.1c-0.4-1.4-1.3-3.4-4.4-3.4c-3.2,0-3.8,2-3.8,3.3
		c0,1.7,1.5,3,2.7,3.7l2.6,1.5c2,1.2,4,2.9,4,5.8C278.8,32.6,276.2,34.8,272,34.8z"/>
</g>
<g>
	<path class="st0" d="M156.9,3.5L155.8,15c0,0,3.3-6.7,13.4-6.1l0.4-5.4L156.9,3.5z"/>
	<path class="st0" d="M165.6,40.8l1.1-11.6c0,0-3.3,6.7-13.4,6.1l-0.4,5.4L165.6,40.8z"/>
	<path class="st0" d="M141.1,28.5l15.2,0c0,0-6.9-2.2-7.3-12.2h-6L141.1,28.5z"/>
	<path class="st0" d="M181.3,16.4l-15.2,0c0,0,6.9,2.2,7.3,12.2h6L181.3,16.4z"/>
</g>
<g>
	<path class="st0" d="M123.2,67.7c-0.5,0-0.7,0-1.1,0l-0.1-0.1c0-0.6,0-1.9,0-2.4c0-0.2,0-0.3,0-0.5c-0.7-1.3-1.3-2.5-2.2-4.1
		l0.1-0.1c0.2,0,0.4,0,0.6,0c0.2,0,0.4,0,0.6,0l0.1,0c0,0.1,0.1,0.1,0.1,0.2c0.7,1.4,0.8,1.6,1.5,3c0.5-1,1.2-2.4,1.6-3.1l0.1-0.1
		c0.5,0,0.6,0,1,0l0.1,0.1c-0.4,0.7-0.5,0.8-1.2,2.2c-0.6,1.1-0.7,1.2-1,1.8c0,0.3,0,0.5,0,0.8C123.2,66,123.2,66.9,123.2,67.7
		L123.2,67.7z"/>
	<path class="st0" d="M130.1,66c-0.1,0.5-0.3,0.9-0.6,1.2c-0.4,0.4-1,0.6-1.7,0.6c-0.9,0-1.5-0.3-1.8-0.7c-0.7-0.7-0.7-1.7-0.7-2
		c0-0.4,0-1.4,0.7-2c0.3-0.3,0.9-0.7,1.9-0.7c0.7,0,1.3,0.2,1.8,0.7c0.5,0.5,0.6,1.2,0.6,1.9C130.2,65.4,130.2,65.7,130.1,66z
		 M128.8,63.7c-0.2-0.3-0.5-0.6-1.1-0.6c-0.2,0-0.7,0-1.1,0.6c-0.3,0.4-0.3,1-0.3,1.4c0,0.4,0,1.4,0.8,1.8c0.2,0.1,0.4,0.1,0.6,0.1
		c0.4,0,0.8-0.1,1.1-0.7c0.2-0.5,0.2-1.1,0.2-1.3C129.1,64.8,129.1,64.2,128.8,63.7z"/>
	<path class="st0" d="M135.9,62.5c0,0.8,0,1.5,0,2.3c0,1.2,0,2,0,2.4c0,0.1,0,0.3,0,0.4l0,0.1c-0.5,0-0.6,0-1,0l-0.1-0.1l0-0.4
		c-0.2,0.2-0.8,0.6-1.6,0.6c-0.4,0-0.8-0.1-1.1-0.3c-0.6-0.5-0.6-1.4-0.7-2.1v-0.6c0-1.4,0-1.6,0-2.1l0-0.1c0.5,0,0.6,0,1-0.1
		l0.1,0.1l0,2.2c0,0.3,0,0.5,0,0.9c0,0.4,0,1.3,1,1.3c0.6,0,1-0.3,1.2-0.5c0-0.5,0-1,0-1.6c0-1.4,0-1.7-0.1-2.3l0.1-0.1
		C135.2,62.5,135.4,62.5,135.9,62.5L135.9,62.5z"/>
	<path class="st0" d="M139.7,63.6c-0.1,0-0.2-0.1-0.4-0.1c-0.2,0-0.3,0.1-0.4,0.1c-0.4,0.3-0.4,0.7-0.4,1.8c0,1.1,0,1.7,0.1,2.3
		l-0.1,0.1c-0.5,0-0.6,0-1.1,0l0-0.1c0-0.8,0-1.4,0-2.4c0-1.6,0-2-0.1-2.6l0.1-0.1c0.4-0.1,0.6-0.1,1-0.2l0.1,0.1l-0.1,0.8
		c0.1-0.3,0.4-1,1.2-1c0.1,0,0.2,0,0.3,0l0,0.1C139.9,63,139.8,63.1,139.7,63.6L139.7,63.6z"/>
	<path class="st0" d="M149.4,67.7c-0.5,0-0.6,0-1.1,0l-0.1-0.1c0-1.1,0.1-2.3,0.1-3.4c-0.2,0-0.5,0-0.9,0c-0.8,0-1.6,0-2.3,0
		c0,1.9,0,2.6,0.1,3.3l-0.1,0.1c-0.5,0-0.6,0-1.1,0l-0.1-0.1c0-1,0.1-1.5,0.1-4.5c0-1.3,0-1.8-0.1-2.4l0.1-0.1c0.5,0,0.6,0,1.1,0
		l0.1,0.1c0,0.6,0,1.4,0,2.8c0.5,0,0.8,0,1.4,0c0.9,0,1.3,0,1.8,0c0-1.9,0-2.1-0.1-2.7l0-0.1c0.5,0,0.6,0,1.1,0l0,0.1
		c0,1,0,1.6,0,3.3C149.4,66,149.4,66.7,149.4,67.7L149.4,67.7z"/>
	<path class="st0" d="M155.1,66.5c0,0.4-0.1,0.5-0.1,0.9l-0.1,0.1c-0.2,0.1-0.7,0.4-1.6,0.4c-1.6,0-2.7-0.9-2.7-2.7
		c0-1.9,1.1-2.8,2.4-2.8c0.8,0,1.3,0.3,1.6,0.7c0.6,0.7,0.5,1.7,0.5,2.1l-0.1,0.1c-1.6,0-1.8,0-3.5,0c0,0.4,0,0.8,0.4,1.2
		c0.4,0.5,1,0.5,1.3,0.5c0.3,0,0.6,0,0.9-0.1C154.7,66.7,154.9,66.6,155.1,66.5L155.1,66.5z M154.2,63.9c-0.2-0.5-0.6-0.8-1.1-0.8
		c-0.6,0-1.2,0.4-1.3,1.4c1.2,0,1.6,0,2.5,0C154.3,64.3,154.3,64.1,154.2,63.9z"/>
	<path class="st0" d="M160.3,65.7c0,1.2,0,1.3,0.1,2l0,0c-0.5,0-0.6,0-1,0l0-0.1l0-0.4c-0.2,0.2-0.6,0.5-1.4,0.5
		c-1,0-1.7-0.7-1.7-1.7c0-1.3,1.1-1.8,2.9-2l0.2,0c0-0.3,0-0.5-0.1-0.6c-0.1-0.2-0.3-0.4-0.8-0.4c-0.6,0-1.1,0.2-1.5,0.4l-0.1-0.1
		c0-0.5,0-0.5,0-0.7l0.1-0.1c0.6-0.2,1.1-0.3,1.7-0.3c0.7,0,1.5,0.2,1.7,1c0.1,0.3,0.1,0.8,0.1,1.2V65.7z M159.2,64.9
		c-1,0.1-1.9,0.3-1.9,1.2c0,0,0,0.9,0.9,0.9c0.6,0,1-0.3,1.1-0.4L159.2,64.9L159.2,64.9z"/>
	<path class="st0" d="M162.9,67.7c-0.5,0-0.6,0-1,0l-0.1-0.1c0-0.7,0.1-1.6,0.1-3.5c0-1.4,0-2.9-0.1-4.1l0.1-0.1
		c0.5-0.1,0.6-0.1,1.1-0.2l0.1,0.1c-0.1,1.3-0.1,2.6-0.1,3.9C162.9,65.9,162.9,66.7,162.9,67.7L162.9,67.7z"/>
	<path class="st0" d="M166.7,66.9c0,0.3,0,0.4,0,0.7l-0.1,0.1c-0.2,0.1-0.4,0.1-0.7,0.1c-0.2,0-0.9,0-1.2-0.5
		c-0.2-0.3-0.2-0.5-0.2-1.7l0-2.2c-0.4,0-0.4,0-0.7,0l0-0.1c0-0.3,0-0.4,0-0.7l0.1-0.1c0.2,0,0.3,0,0.7,0c0-0.2,0-0.4,0-0.6
		c0-0.2,0-0.4,0-0.6l0.1-0.1c0.4-0.1,0.6-0.1,1-0.3l0.1,0c0,0.7,0,0.8,0,1.5c0.4,0,0.5,0,1.1,0l0.1,0.1c0,0.3,0,0.4,0,0.7l0,0.1
		c-0.5,0-0.6,0-1.1,0l0,1.9c0,0.1,0,0.7,0,0.8c0,0.7,0.1,1,0.6,1C166.3,67,166.5,66.9,166.7,66.9L166.7,66.9z"/>
	<path class="st0" d="M172.1,67.7c-0.5,0-0.5,0-1,0l-0.1-0.1l0-0.3c0-0.5,0-1,0-1.6l0-1.1c0-0.2,0-0.5,0-0.7
		c-0.1-0.5-0.4-0.8-0.9-0.8c-0.6,0-1,0.3-1.3,0.6c0,1.7,0,2.6,0.1,3.8l-0.1,0.1c-0.5,0-0.6,0-1.1,0l0-0.1c0-0.7,0-1.6,0-3.5
		c0-0.8,0-1.7,0-2.5c0-0.9,0-1.2-0.1-1.6l0.1-0.1c0.5-0.1,0.6-0.1,1.1-0.2l0.1,0.1c-0.1,1.1-0.1,2.1-0.1,3.2
		c0.3-0.2,0.9-0.6,1.8-0.6c0.2,0,0.5,0,0.7,0.1c0.4,0.2,0.7,0.5,0.8,0.9c0,0.2,0,0.3,0.1,1v1.2l0,0.5
		C172.1,67,172.1,67.1,172.1,67.7L172.1,67.7z"/>
	<path class="st0" d="M174.6,66.6c0,0.5,0,0.6,0,1l-0.1,0.1c-0.5,0-0.5,0-1.1,0l-0.1-0.1c0-0.2,0-0.3,0-0.5c0-0.2,0-0.3,0-0.5
		l0.1-0.1C174,66.5,174.1,66.5,174.6,66.6L174.6,66.6z"/>
	<path class="st0" d="M181.5,67.7c-0.5,0-0.7,0-1.1,0l-0.1-0.1c0-0.6,0-1.9,0-2.4c0-0.2,0-0.3,0-0.5c-0.7-1.3-1.3-2.5-2.2-4.1
		l0.1-0.1c0.2,0,0.4,0,0.6,0c0.2,0,0.4,0,0.6,0l0.1,0c0,0.1,0.1,0.1,0.1,0.2c0.7,1.4,0.8,1.6,1.5,3c0.6-1,1.2-2.4,1.6-3.1l0.1-0.1
		c0.5,0,0.6,0,1,0l0.1,0.1c-0.4,0.7-0.5,0.8-1.2,2.2c-0.6,1.1-0.7,1.2-1,1.8c0,0.3,0,0.5,0,0.8C181.5,66,181.5,66.9,181.5,67.7
		L181.5,67.7z"/>
	<path class="st0" d="M188.4,66c-0.1,0.5-0.3,0.9-0.6,1.2c-0.4,0.4-1,0.6-1.7,0.6c-0.9,0-1.5-0.3-1.8-0.7c-0.7-0.7-0.7-1.7-0.7-2
		c0-0.4,0-1.4,0.7-2c0.3-0.3,0.9-0.7,1.9-0.7c0.7,0,1.3,0.2,1.8,0.7c0.5,0.5,0.6,1.2,0.6,1.9C188.5,65.4,188.5,65.7,188.4,66z
		 M187.2,63.7c-0.2-0.3-0.5-0.6-1.1-0.6c-0.2,0-0.7,0-1.1,0.6c-0.3,0.4-0.3,1-0.3,1.4c0,0.4,0,1.4,0.8,1.8c0.2,0.1,0.4,0.1,0.6,0.1
		c0.4,0,0.8-0.1,1.1-0.7c0.2-0.5,0.2-1.1,0.2-1.3C187.4,64.8,187.4,64.2,187.2,63.7z"/>
	<path class="st0" d="M194.2,62.5c0,0.8,0,1.5,0,2.3c0,1.2,0,2,0,2.4c0,0.1,0,0.3,0,0.4l0,0.1c-0.5,0-0.6,0-1,0l-0.1-0.1l0-0.4
		c-0.2,0.2-0.8,0.6-1.6,0.6c-0.4,0-0.8-0.1-1.1-0.3c-0.6-0.5-0.6-1.4-0.6-2.1v-0.6c0-1.4,0-1.6,0-2.1l0-0.1c0.5,0,0.6,0,1-0.1
		l0.1,0.1l0,2.2c0,0.3,0,0.5,0,0.9c0,0.4,0,1.3,1,1.3c0.6,0,1-0.3,1.2-0.5c0-0.5,0-1,0-1.6c0-1.4,0-1.7-0.1-2.3l0.1-0.1
		C193.6,62.5,193.7,62.5,194.2,62.5L194.2,62.5z"/>
	<path class="st0" d="M198,63.6c-0.1,0-0.2-0.1-0.4-0.1c-0.2,0-0.3,0.1-0.4,0.1c-0.4,0.3-0.4,0.7-0.4,1.8c0,1.1,0,1.7,0.1,2.3l0,0.1
		c-0.5,0-0.6,0-1.1,0l0-0.1c0-0.8,0-1.4,0-2.4c0-1.6,0-2-0.1-2.6l0.1-0.1c0.4-0.1,0.6-0.1,1-0.2l0.1,0.1l-0.1,0.8
		c0.1-0.3,0.4-1,1.2-1c0.1,0,0.2,0,0.3,0l0,0.1C198.2,63,198.2,63.1,198,63.6L198,63.6z"/>
	<path class="st0" d="M206.1,66.9c0,0.3,0,0.5-0.1,0.8l0,0.1c-1.8,0-1.9,0-3.8,0l-0.1-0.1c0-0.8,0-2,0-3.8c0-1.5,0-2.4-0.1-3.2
		l0.1-0.1c0.5,0,0.6,0,1.1,0l0.1,0.1c-0.1,1.9-0.1,4.3-0.1,4.5c0,0.8,0,1.2,0,1.6C204.5,66.8,204.8,66.8,206.1,66.9L206.1,66.9z"/>
	<path class="st0" d="M208.1,67.7c-0.5,0-0.6,0-1.1,0l-0.1-0.1c0-0.5,0.1-1,0.1-2.1c0-1.9,0-2.3-0.1-2.9l0-0.1
		c0.4-0.1,0.6-0.1,1.1-0.2l0.1,0.1c0,0.5-0.1,1.1-0.1,2.3C208.1,66.7,208.1,67,208.1,67.7L208.1,67.7z M208.1,61.1
		c-0.5,0-0.6,0-1.1,0.1l-0.1-0.1c0-0.1,0-0.3,0-0.4c0-0.2,0-0.3,0-0.5l0.1-0.1c0.5,0,0.6-0.1,1.1-0.1l0.1,0.1
		C208.2,60.5,208.2,60.6,208.1,61.1L208.1,61.1z"/>
	<path class="st0" d="M210.8,67.7c-0.5,0-0.5,0-1.1,0l-0.1-0.1c0.1-1,0.1-2.1,0.1-3.2c0-0.5,0-0.7,0-1.1c-0.3,0-0.5,0-0.7,0
		l-0.1-0.1c0-0.3,0-0.4,0-0.7l0.1-0.1c0.3,0,0.5,0,0.6,0l0-0.7c0-0.5,0-0.6,0-0.8c0.2-1.2,1.5-1.2,1.7-1.2c0.2,0,0.2,0,0.4,0l0,0.1
		c0,0.3,0,0.4-0.1,0.7l-0.1,0c-0.1,0-0.2,0-0.3,0c-0.2,0-0.4,0-0.6,0.3c-0.2,0.2-0.2,0.5-0.1,1.2v0.3c0,0,0.9,0,1,0l0,0.1
		c0,0.3,0,0.4,0,0.7l-0.1,0.1c-0.4,0-0.5,0-0.9,0c0,1.3,0,2.7,0.1,4C210.8,67.4,210.8,67.5,210.8,67.7L210.8,67.7z"/>
	<path class="st0" d="M216.8,66.5c-0.1,0.4-0.1,0.5-0.1,0.9l-0.1,0.1c-0.2,0.1-0.7,0.4-1.6,0.4c-1.6,0-2.7-0.9-2.7-2.7
		c0-1.9,1.1-2.8,2.4-2.8c0.8,0,1.3,0.3,1.6,0.7c0.6,0.7,0.5,1.7,0.5,2.1l-0.1,0.1c-1.6,0-1.8,0-3.5,0c0,0.4,0,0.8,0.4,1.2
		c0.4,0.5,1,0.5,1.3,0.5c0.3,0,0.6,0,0.9-0.1C216.3,66.7,216.6,66.6,216.8,66.5L216.8,66.5z M215.8,63.9c-0.2-0.5-0.6-0.8-1.1-0.8
		c-0.6,0-1.2,0.4-1.3,1.4c1.2,0,1.6,0,2.5,0C215.9,64.3,215.9,64.1,215.8,63.9z"/>
	<path class="st0" d="M219.2,66.6c0,0.5,0,0.6,0,1l-0.1,0.1c-0.5,0-0.5,0-1.1,0l-0.1-0.1c0-0.2,0-0.3,0-0.5c0-0.2,0-0.3,0-0.5
		l0.1-0.1C218.6,66.5,218.7,66.5,219.2,66.6L219.2,66.6z"/>
	<path class="st0" d="M223.3,64.2c0-2.2,1.2-3.7,3.3-3.7c2,0,3.2,1.4,3.2,3.7c0,2.4-1.3,3.6-3.3,3.6
		C224.5,67.9,223.3,66.5,223.3,64.2z M228.6,64.2c0-0.4-0.1-1.3-0.4-2c-0.5-0.8-1.4-0.9-1.6-0.9c-0.9,0-1.4,0.5-1.6,0.8
		c-0.4,0.6-0.4,1.5-0.4,2c0,0.5,0.1,1.3,0.4,1.9c0.3,0.6,0.9,0.9,1.6,0.9C228.1,67,228.6,65.7,228.6,64.2z"/>
	<path class="st0" d="M235.5,62.5c0,0.8,0,1.5,0,2.3c0,1.2,0,2,0,2.4c0,0.1,0,0.3,0,0.4l0,0.1c-0.5,0-0.6,0-1,0l-0.1-0.1l0-0.4
		c-0.2,0.2-0.7,0.6-1.6,0.6c-0.4,0-0.8-0.1-1.1-0.3c-0.6-0.5-0.6-1.4-0.6-2.1v-0.6c0-1.4,0-1.6-0.1-2.1l0.1-0.1c0.5,0,0.6,0,1-0.1
		l0.1,0.1l0,2.2c0,0.3,0,0.5,0,0.9c0,0.4,0,1.3,1,1.3c0.6,0,1-0.3,1.2-0.5c0-0.5,0-1,0-1.6c0-1.4,0-1.7-0.1-2.3l0.1-0.1
		C234.9,62.5,235,62.5,235.5,62.5L235.5,62.5z"/>
	<path class="st0" d="M239.4,63.6c-0.1,0-0.2-0.1-0.4-0.1c-0.2,0-0.3,0.1-0.4,0.1c-0.4,0.3-0.4,0.7-0.4,1.8c0,1.1,0,1.7,0.1,2.3
		l0,0.1c-0.5,0-0.6,0-1.1,0l0-0.1c0-0.8,0-1.4,0-2.4c0-1.6,0-2-0.1-2.6l0.1-0.1c0.4-0.1,0.6-0.1,1-0.2l0.1,0.1l0,0.8
		c0.1-0.3,0.4-1,1.2-1c0.1,0,0.2,0,0.3,0l0,0.1C239.5,63,239.5,63.1,239.4,63.6L239.4,63.6z"/>
	<path class="st0" d="M244.7,67.7c-0.5,0-0.6,0-1.1,0l-0.1-0.1c0-0.6,0-1.1,0-2.3c0-1.5,0-3.1-0.1-4.7l0-0.1c0.2,0,0.9,0,1.1,0
		l0.7,0c0.7,0,1.2,0,1.6,0.1c1.1,0.4,1.4,1.3,1.4,2c0,0.4-0.1,0.8-0.3,1.1c-0.6,1-1.7,1.2-2.9,1.2c-0.2,0-0.3,0-0.4,0
		C244.7,66.1,244.7,66.4,244.7,67.7L244.7,67.7z M245.7,64.2c0.3,0,1-0.1,1.3-0.7c0.1-0.2,0.2-0.5,0.2-0.7c0-0.2,0-0.4-0.1-0.6
		c-0.3-0.7-1.1-0.7-1.5-0.7c-0.5,0-0.6,0-0.9,0c0,0.5,0,0.9,0,1.4c0,0.4,0,0.9,0,1.3C245,64.2,245.5,64.2,245.7,64.2z"/>
	<path class="st0" d="M253,65.7c0,1.2,0,1.3,0.1,2l0,0c-0.5,0-0.5,0-1,0l0-0.1l0-0.4c-0.2,0.2-0.6,0.5-1.4,0.5c-1,0-1.7-0.7-1.7-1.7
		c0-1.3,1.1-1.8,2.9-2l0.2,0c0-0.3,0-0.5-0.1-0.6c-0.1-0.2-0.3-0.4-0.8-0.4c-0.6,0-1.1,0.2-1.5,0.4l-0.1-0.1c0-0.5,0-0.5,0-0.7
		l0.1-0.1c0.6-0.2,1.1-0.3,1.7-0.3c0.7,0,1.5,0.2,1.7,1c0.1,0.3,0.1,0.8,0.1,1.2V65.7z M251.9,64.9c-1,0.1-1.9,0.3-1.9,1.2
		c0,0,0,0.9,0.9,0.9c0.6,0,1-0.3,1.1-0.4L251.9,64.9L251.9,64.9z"/>
	<path class="st0" d="M256.6,64.7c0.4,0.1,1.3,0.4,1.3,1.5c0,0.4-0.2,0.8-0.6,1.2c-0.5,0.4-1.2,0.5-1.6,0.5c-0.5,0-1-0.1-1.4-0.2
		c-0.1,0-0.1,0-0.1-0.1l-0.1-0.1c0-0.4,0-0.4,0.1-0.8l0.1,0c0.2,0.1,0.6,0.5,1.4,0.5c0.8,0,1.1-0.4,1.1-0.7c0-0.5-0.4-0.6-1-0.8
		l-0.3-0.1c-0.4-0.1-1.3-0.4-1.3-1.4c0-1,0.9-1.5,2-1.5c0.7,0,1.3,0.2,1.4,0.3l0,0.1c0,0.4,0,0.4-0.1,0.8l-0.1,0
		c-0.3-0.2-0.6-0.4-1.3-0.4c-0.1,0-0.3,0-0.4,0c-0.3,0.1-0.5,0.3-0.5,0.6c0,0.4,0.4,0.6,1,0.7L256.6,64.7z"/>
	<path class="st0" d="M261.1,64.7c0.4,0.1,1.3,0.4,1.3,1.5c0,0.4-0.2,0.8-0.6,1.2c-0.5,0.4-1.2,0.5-1.6,0.5c-0.5,0-1-0.1-1.4-0.2
		c-0.1,0-0.1,0-0.1-0.1l-0.1-0.1c0-0.4,0-0.4,0.1-0.8l0.1,0c0.2,0.1,0.6,0.5,1.4,0.5c0.8,0,1.1-0.4,1.1-0.7c0-0.5-0.4-0.6-1-0.8
		l-0.3-0.1c-0.4-0.1-1.3-0.4-1.3-1.4c0-1,0.9-1.5,2-1.5c0.7,0,1.3,0.2,1.4,0.3l0,0.1c0,0.4,0,0.4-0.1,0.8l-0.1,0
		c-0.2-0.2-0.6-0.4-1.3-0.4c-0.1,0-0.3,0-0.4,0c-0.3,0.1-0.5,0.3-0.5,0.6c0,0.4,0.4,0.6,1,0.7L261.1,64.7z"/>
	<path class="st0" d="M264.5,67.7c-0.5,0-0.6,0-1.1,0l-0.1-0.1c0-0.5,0.1-1,0.1-2.1c0-1.9,0-2.3-0.1-2.9l0-0.1
		c0.4-0.1,0.6-0.1,1.1-0.2l0.1,0.1c0,0.5-0.1,1.1-0.1,2.3C264.5,66.7,264.6,67,264.5,67.7L264.5,67.7z M264.6,61.1
		c-0.5,0-0.6,0-1.1,0.1l-0.1-0.1c0-0.1,0-0.3,0-0.4c0-0.2,0-0.3,0-0.5l0.1-0.1c0.5,0,0.6-0.1,1.1-0.1l0.1,0.1
		C264.6,60.5,264.6,60.6,264.6,61.1L264.6,61.1z"/>
	<path class="st0" d="M270.6,66c-0.1,0.5-0.3,0.9-0.6,1.2c-0.4,0.4-1,0.6-1.7,0.6c-0.9,0-1.5-0.3-1.8-0.7c-0.7-0.7-0.7-1.7-0.7-2
		c0-0.4,0-1.4,0.7-2c0.3-0.3,0.9-0.7,1.9-0.7c0.7,0,1.3,0.2,1.8,0.7c0.5,0.5,0.6,1.2,0.6,1.9C270.7,65.4,270.7,65.7,270.6,66z
		 M269.3,63.7c-0.2-0.3-0.5-0.6-1.1-0.6c-0.2,0-0.8,0-1.1,0.6c-0.3,0.4-0.3,1-0.3,1.4c0,0.4,0,1.4,0.8,1.8c0.2,0.1,0.4,0.1,0.6,0.1
		c0.4,0,0.8-0.1,1.1-0.7c0.2-0.5,0.2-1.1,0.2-1.3C269.6,64.8,269.6,64.2,269.3,63.7z"/>
	<path class="st0" d="M276.4,67.7c-0.5,0-0.5,0-1,0l-0.1-0.1c0-0.1,0-0.2,0-0.3c0-0.5,0-1,0-1.5c0-1.5,0-1.6-0.1-1.8
		c-0.2-0.8-0.8-0.8-0.9-0.8c-0.6,0-1.1,0.4-1.3,0.6c0,1.7,0,2.6,0.1,3.8l-0.1,0.1c-0.5,0-0.6,0-1,0l0-0.1c0-0.6,0-1.1,0-1.8
		c0-1.6-0.1-2.4-0.1-3.1l0.1-0.1c0.5-0.1,0.6-0.1,1.1-0.2l0.1,0.1l0,0.5c0.3-0.2,0.9-0.6,1.8-0.6c0.2,0,0.6,0,0.8,0.2
		c0.3,0.1,0.5,0.4,0.6,0.6c0.1,0.3,0.1,0.6,0.2,1.2v1.2C276.4,66.8,276.4,67.3,276.4,67.7L276.4,67.7z"/>
	<path class="st0" d="M279,66.6c0,0.5,0,0.6,0,1l-0.1,0.1c-0.5,0-0.5,0-1.1,0l-0.1-0.1c0-0.2,0-0.3,0-0.5c0-0.2,0-0.3,0-0.5l0.1-0.1
		C278.3,66.5,278.4,66.5,279,66.6L279,66.6z"/>
</g>
</svg>
