<?xml version="1.0" encoding="utf-8"?>
<!-- Generator: Adobe Illustrator 23.0.3, SVG Export Plug-In . SVG Version: 6.00 Build 0)  -->
<svg version="1.1" id="Layer_1" xmlns="http://www.w3.org/2000/svg" xmlns:xlink="http://www.w3.org/1999/xlink" x="0px" y="0px"
	 viewBox="0 0 250 55.6" style="enable-background:new 0 0 250 55.6;" xml:space="preserve">
<style type="text/css">
	.st0{fill:#081F2D;}
	.st1{fill:#502C1E;}
</style>
<g>
	<path class="st0" d="M171.8,48.4c-0.5,0-0.5,0-1.1,0l-0.1-0.1c0-1,0.1-2.2,0-3.1c-0.2,0-0.4,0-0.9,0c-0.7,0-1.5,0-2.2,0
		c0,1.8,0,2.4,0.1,3.1l0,0.1c-0.5,0-0.5,0-1,0l-0.1-0.1c0-0.9,0-1.4,0-4.2c0-1.3,0-1.7-0.1-2.3l0.1-0.1c0.5,0,0.6,0,1,0l0,0.1
		c0,0.5,0,1.3,0,2.6c0.5,0,0.7,0,1.3,0c0.9,0,1.2,0,1.7,0c0-1.8,0-2-0.1-2.5l0-0.1c0.5,0,0.6,0,1,0l0,0.1c0,0.9,0,1.5,0,3.1
		C171.7,46.8,171.8,47.5,171.8,48.4L171.8,48.4z"/>
	<path class="st0" d="M180.6,47.7c0,0.3,0,0.4,0,0.7l-0.1,0.1c-1.8,0-2.1,0-3.9,0l0-0.1c0-0.7,0.1-1.2,0.1-2.9c0-1.6,0-2.5-0.1-3.5
		l0.1-0.1c1.8,0,2.2,0,3.9,0l0.1,0.1c0,0.3,0,0.4-0.1,0.7l-0.1,0.1c-1.2,0-1.6,0-2.8,0c0,0.9,0,1.1,0,2c1.1,0,1.5,0,2.6,0l0,0.1
		c0,0.3,0,0.4,0,0.7l-0.1,0.1c-1.1,0-1.3,0-2.6,0c0,1.1,0,1.3,0,2.2C179.1,47.6,179.4,47.6,180.6,47.7L180.6,47.7z"/>
	<path class="st0" d="M187.9,42c0.3,1,0.7,2.2,0.9,3.1c0.3,0.9,0.8,2.3,1,3.2l0,0.1c-0.5,0-0.7,0-1.1,0l-0.1-0.1
		c-0.2-0.9-0.3-1.1-0.5-2c-0.4,0-0.7,0-1.1,0c-0.4,0-0.8,0-1.2,0c-0.3,0.9-0.3,1.1-0.5,1.9l-0.1,0.1c-0.4,0-0.5,0-1,0l0-0.1
		c0-0.1,0.1-0.2,0.1-0.3c0.4-1,0.7-2,1-3c0.6-1.6,0.8-2.3,1-3.1l0.1-0.1c0.7,0,0.7,0,1.3,0l0.1,0.1L187.9,42z M186.1,45.7
		c0.3,0,0.6,0,0.9,0c0.3,0,0.7,0,1,0l-0.9-3.1L186.1,45.7z"/>
	<path class="st0" d="M197.5,47.6c0,0.3,0,0.4,0,0.7l0,0.1c-1.7,0-1.8,0-3.5,0l-0.1-0.1c0-0.8,0-1.9,0-3.5c0-1.4,0-2.2-0.1-3
		l0.1-0.1c0.5,0,0.6,0,1.1,0l0.1,0.1c-0.1,1.7-0.1,4-0.1,4.2c0,0.7,0,1.1,0,1.5C195.9,47.6,196.2,47.6,197.5,47.6L197.5,47.6z"/>
	<path class="st0" d="M204.4,42.6c-0.8,0-0.9,0-1.7,0c0,0.9,0,1.1,0,1.9c0,2.3,0,3.3,0.1,3.8l-0.1,0.1c-0.5,0-0.6,0-1.1,0l0-0.1
		c0-1.3,0.1-2.6,0.1-3.9c0-0.9,0-1.4,0-1.8c-0.8,0-0.9,0-1.7,0l-0.1-0.1c0-0.3,0-0.4,0-0.7l0-0.1c0.7,0,1.7,0,2.4,0
		c0.7,0,1.4,0,2.1,0l0,0.1C204.5,42.2,204.5,42.3,204.4,42.6L204.4,42.6z"/>
	<path class="st0" d="M213.6,48.4c-0.5,0-0.5,0-1.1,0l-0.1-0.1c0-1,0.1-2.2,0-3.1c-0.2,0-0.4,0-0.9,0c-0.7,0-1.5,0-2.2,0
		c0,1.8,0,2.4,0.1,3.1l0,0.1c-0.5,0-0.5,0-1.1,0l-0.1-0.1c0-0.9,0-1.4,0-4.2c0-1.3,0-1.7-0.1-2.3l0.1-0.1c0.5,0,0.6,0,1,0l0,0.1
		c0,0.5,0,1.3,0,2.6c0.5,0,0.7,0,1.3,0c0.9,0,1.2,0,1.7,0c0-1.8,0-2-0.1-2.5l0-0.1c0.5,0,0.6,0,1,0l0,0.1c0,0.9,0,1.5,0,3.1
		C213.6,46.8,213.6,47.5,213.6,48.4L213.6,48.4z"/>
	<path class="st0" d="M223.2,47.2c0,0.4,0,0.6-0.1,0.9l-0.1,0.1c-0.2,0.1-0.8,0.4-1.8,0.4c-2,0-3.2-1.3-3.2-3.4c0-0.5,0-1.6,0.8-2.5
		c0.8-0.9,1.8-1,2.5-1c0.9,0,1.4,0.2,1.7,0.3l0,0.1c0,0.3-0.1,0.4-0.1,0.8l-0.1,0c-0.2-0.1-0.7-0.4-1.5-0.4c-1.5,0-2.3,1-2.3,2.6
		c0,1.8,1,2.6,2.2,2.6C222.3,47.7,222.8,47.3,223.2,47.2L223.2,47.2z"/>
	<path class="st0" d="M230.5,42c0.3,1,0.7,2.2,0.9,3.1c0.3,0.9,0.8,2.3,1,3.2l0,0.1c-0.5,0-0.7,0-1.1,0l-0.1-0.1
		c-0.2-0.9-0.3-1.1-0.5-2c-0.4,0-0.7,0-1.1,0c-0.4,0-0.8,0-1.2,0c-0.3,0.9-0.3,1.1-0.5,1.9l-0.1,0.1c-0.4,0-0.5,0-1,0l0-0.1
		c0-0.1,0.1-0.2,0.1-0.3c0.4-1,0.7-2,1-3c0.6-1.6,0.8-2.3,1-3.1l0.1-0.1c0.6,0,0.7,0,1.3,0l0.1,0.1L230.5,42z M228.7,45.7
		c0.3,0,0.6,0,0.9,0c0.3,0,0.7,0,1,0l-0.9-3.1L228.7,45.7z"/>
	<path class="st0" d="M237.6,48.4c-0.5,0-0.5,0-1,0l-0.1-0.1c0-0.9,0-1.8,0-2.7c0-2.1,0-2.8-0.1-3.8l0.1-0.1h0.2c0.2,0,0.6,0,0.9,0
		l0.6,0c0.5,0,1,0,1.5,0.2c0.7,0.2,1.2,0.8,1.2,1.6c0,0.7-0.4,1.5-1.6,1.8c0.2,0.2,0.9,1.3,1.1,1.5c0.3,0.4,0.4,0.6,1,1.4l0,0.1
		c-0.2,0-0.4,0-0.6,0c-0.2,0-0.4,0-0.6,0l-0.1,0c0-0.1-0.1-0.1-0.1-0.2c-0.3-0.5-0.6-0.9-0.9-1.4c-0.6-0.8-0.6-0.9-0.8-1.2
		c-0.3,0-0.3,0-0.7,0C237.5,46.1,237.6,47.6,237.6,48.4L237.6,48.4z M239.5,44.5c0.2-0.2,0.4-0.5,0.4-0.8c0-0.2,0-0.4-0.2-0.6
		c-0.3-0.5-0.8-0.5-1.5-0.5c-0.1,0-0.3,0-0.6,0c0,1.1,0,1.2,0,2.3C238.2,44.9,239,44.9,239.5,44.5z"/>
	<path class="st0" d="M249.5,47.7c0,0.3,0,0.4,0,0.7l-0.1,0.1c-1.8,0-2.1,0-3.9,0l0-0.1c0-0.7,0.1-1.2,0.1-2.9c0-1.6,0-2.5-0.1-3.5
		l0.1-0.1c1.8,0,2.2,0,3.9,0l0.1,0.1c0,0.3,0,0.4-0.1,0.7l-0.1,0.1c-1.2,0-1.6,0-2.8,0c0,0.9,0,1.1,0,2c1.1,0,1.5,0,2.6,0l0,0.1
		c0,0.3,0,0.4,0,0.7l-0.1,0.1c-1.1,0-1.3,0-2.6,0c0,1.1,0,1.3,0,2.2C248,47.6,248.3,47.6,249.5,47.7L249.5,47.7z"/>
</g>
<g>
	<path class="st1" d="M3.3,17.1c0-2.5-0.2-3.2-1.8-3.4l-0.8-0.1c-0.3-0.2-0.3-0.7,0-0.9c3.2-0.2,6.2-0.3,9.4-0.3
		c3.2,0,5.8,0.2,8.3,1.1c5.1,1.7,7.6,5.7,7.6,10.4c0,4.5-2.3,8.3-6.6,10.5C17,35.6,13.9,36,11,36c-2.4,0-4.8-0.3-6.1-0.3
		c-1.6,0-2.9,0-4.7,0.1C0,35.8-0.1,35.2,0.1,35L1,34.9c2.2-0.3,2.3-0.7,2.3-4.4V17.1z M6.3,29.7c0,1.9,0.1,3,0.8,3.8
		c0.8,1.1,2.3,1.4,4.6,1.4c7.3,0,10.6-4.5,10.6-11c0-3.9-2-10.4-11.8-10.4c-2.2,0-3.4,0.3-3.7,0.5c-0.3,0.2-0.4,1.1-0.4,2.7V29.7z"
		/>
	<path class="st1" d="M31,21.4c0-2.9-0.1-3.3-1.8-3.5l-0.5-0.1c-0.2-0.1-0.1-0.6,0.1-0.7c1.3,0.1,2.3,0.1,3.5,0.1h5.7
		c1.9,0,3.7,0,4.1-0.1c0.2,0.5,0.4,2.5,0.5,3.7c-0.1,0.2-0.6,0.2-0.8,0.1c-0.5-1.3-0.7-2.3-2.3-2.7c-0.6-0.1-1.6-0.2-2.9-0.2h-2.2
		c-0.9,0-0.9,0.1-0.9,1.1v5.6c0,0.8,0.1,0.8,1,0.8h1.7c1.3,0,2.2-0.1,2.6-0.2c0.4-0.1,0.6-0.3,0.7-1l0.2-1.2c0.2-0.2,0.7-0.2,0.8,0
		c0,0.7-0.1,1.8-0.1,2.8c0,1,0.1,2.1,0.1,2.7c-0.1,0.2-0.6,0.2-0.8,0l-0.3-1.1c-0.1-0.5-0.3-0.9-0.9-1.1c-0.4-0.1-1.1-0.1-2.3-0.1
		h-1.7c-0.9,0-1,0-1,0.8v4c0,1.5,0.1,2.4,0.6,2.9c0.4,0.3,1,0.6,3.6,0.6c2.3,0,3.2-0.1,3.9-0.4c0.5-0.3,1.4-1.3,2.1-2.7
		c0.2-0.1,0.6-0.1,0.8,0.2c-0.2,1-1,3.1-1.4,3.9c-2.7-0.1-5.4-0.1-8.1-0.1h-2.7c-1.3,0-2.3,0-4.1,0.1c-0.2-0.1-0.2-0.5-0.1-0.7
		l1-0.1c1.7-0.1,1.9-0.6,1.9-3.5V21.4z"/>
	<path class="st1" d="M52.4,36.2c-2.5,0-4.1-0.7-4.7-1c-0.4-0.6-0.8-2.6-0.8-3.9c0.1-0.2,0.6-0.3,0.7-0.1c0.5,1.4,1.7,4.2,5.2,4.2
		c2.5,0,3.8-1.5,3.8-3.2c0-1.2-0.3-2.6-2.5-3.9l-2.9-1.7c-1.5-0.9-3.2-2.5-3.2-4.8c0-2.7,2.2-4.8,6.1-4.8c0.9,0,2,0.2,2.8,0.4
		c0.4,0.1,0.8,0.2,1.1,0.2c0.3,0.7,0.5,2.2,0.5,3.4c-0.1,0.2-0.6,0.3-0.8,0.1c-0.4-1.3-1.2-3.2-4.1-3.2c-2.9,0-3.6,1.8-3.6,3.1
		c0,1.6,1.4,2.8,2.6,3.5l2.4,1.4c1.9,1.1,3.8,2.7,3.8,5.4C58.8,34.1,56.3,36.2,52.4,36.2z"/>
	<path class="st1" d="M64.6,21.4c0-2.9-0.1-3.3-1.8-3.5l-0.5-0.1c-0.2-0.1-0.1-0.6,0.1-0.7c1.3,0.1,2.3,0.1,3.5,0.1h5.7
		c1.9,0,3.7,0,4.1-0.1c0.2,0.5,0.4,2.5,0.5,3.7c-0.1,0.2-0.6,0.2-0.8,0.1c-0.5-1.3-0.7-2.3-2.3-2.7c-0.6-0.1-1.6-0.2-2.9-0.2h-2.2
		c-0.9,0-0.9,0.1-0.9,1.1v5.6c0,0.8,0.1,0.8,1,0.8h1.7c1.3,0,2.2-0.1,2.6-0.2c0.4-0.1,0.6-0.3,0.7-1l0.2-1.2c0.2-0.2,0.7-0.2,0.8,0
		c0,0.7-0.1,1.8-0.1,2.8c0,1,0.1,2.1,0.1,2.7c-0.1,0.2-0.6,0.2-0.8,0L73,27.8c-0.1-0.5-0.3-0.9-0.9-1.1c-0.4-0.1-1.1-0.1-2.3-0.1H68
		c-0.9,0-1,0-1,0.8v4c0,1.5,0.1,2.4,0.6,2.9c0.4,0.3,1,0.6,3.6,0.6c2.3,0,3.2-0.1,3.8-0.4c0.5-0.3,1.4-1.3,2.1-2.7
		c0.2-0.1,0.6-0.1,0.8,0.2c-0.2,1-1,3.1-1.4,3.9c-2.7-0.1-5.4-0.1-8.1-0.1h-2.7c-1.3,0-2.3,0-4.1,0.1c-0.2-0.1-0.2-0.5-0.1-0.7
		l1-0.1c1.7-0.1,1.9-0.6,1.9-3.5V21.4z"/>
	<path class="st1" d="M83.3,21.4c0-2.7-0.1-3.1-1.3-3.3L81,18c-0.2-0.1-0.2-0.6,0-0.7c1.7-0.1,3.8-0.2,6.7-0.2c1.9,0,3.6,0.1,5,0.8
		c1.4,0.7,2.5,2,2.5,3.9c0,2.7-2.3,4.1-3.8,4.7c-0.2,0.2,0,0.4,0.2,0.7c2.4,3.6,4,5.9,6,7.5c0.5,0.4,1.3,0.7,2.1,0.8
		c0.2,0.1,0.2,0.3,0,0.4c-0.3,0.1-0.8,0.1-1.3,0.1c-2.6,0-4.1-0.7-6.2-3.5c-0.8-1-2-3-2.9-4.2c-0.5-0.6-0.9-0.9-2.1-0.9
		c-1.4,0-1.4,0-1.4,0.6v3.5c0,3,0.1,3.3,1.8,3.5l0.6,0.1c0.2,0.1,0.1,0.6-0.1,0.7c-1.4-0.1-2.4-0.1-3.6-0.1c-1.3,0-2.3,0-3.8,0.1
		c-0.2-0.1-0.2-0.5-0.1-0.7l0.8-0.1c1.7-0.2,1.8-0.6,1.8-3.5V21.4z M85.8,25.5c0,0.5,0,0.8,0.1,0.9c0.1,0.1,0.5,0.1,2.1,0.1
		c1.1,0,2.2-0.1,3.1-0.7c0.8-0.6,1.5-1.6,1.5-3.5c0-2.2-1.5-4.3-4.8-4.3c-1.9,0-2,0.1-2,0.9V25.5z"/>
	<path class="st1" d="M109.5,31.5c0,3,0.1,3.4,1.8,3.5l1,0.1c0.2,0.1,0.1,0.6-0.1,0.7c-1.7-0.1-2.7-0.1-3.9-0.1
		c-1.2,0-2.3,0-4.2,0.1c-0.2-0.1-0.2-0.6,0-0.7l1.1-0.1c1.7-0.1,1.9-0.6,1.9-3.5V19c0-0.9,0-0.9-0.9-0.9h-1.7
		c-1.3,0-2.9,0.1-3.7,0.7c-0.7,0.6-1,1.2-1.4,1.9c-0.2,0.2-0.7,0-0.8-0.2c0.5-1.3,0.9-3.1,1.1-4.2c0.1-0.1,0.5-0.1,0.6,0
		c0.2,0.9,1.2,0.9,2.6,0.9h12.2c1.6,0,1.9-0.1,2.3-0.8c0.2-0.1,0.5,0,0.5,0.1c-0.3,1.2-0.5,3.4-0.5,4.3c-0.1,0.2-0.6,0.2-0.8,0.1
		c-0.1-0.7-0.3-1.7-0.8-2.1c-0.7-0.5-1.8-0.7-3.5-0.7h-2.1c-0.9,0-0.9,0-0.9,1V31.5z"/>
	<path class="st1" d="M163.5,24.4c0-7,5.6-12.4,13.4-12.4c8.7,0,13,5.9,13,12.1c0,7.1-5.8,12.3-13,12.3
		C168.5,36.3,163.5,30.7,163.5,24.4z M186.2,25.1c0-5.8-2.7-12.1-9.9-12.1c-3.9,0-9,2.5-9,10.2c0,5.2,2.7,11.9,10.1,11.9
		C181.9,35.2,186.2,32.1,186.2,25.1z"/>
	<path class="st1" d="M202.5,29.2c-0.2-0.6-0.3-0.7-1.2-0.7h-4.5c-0.8,0-0.9,0.1-1.1,0.7l-1.1,3c-0.5,1.3-0.7,2-0.7,2.3
		c0,0.3,0.2,0.5,0.9,0.6l1,0.1c0.2,0.1,0.2,0.6-0.1,0.7c-0.8-0.1-1.7-0.1-3.1-0.1c-1,0-2.1,0.1-2.9,0.1c-0.2-0.1-0.2-0.6-0.1-0.7
		l1-0.1c0.7-0.1,1.4-0.4,1.8-1.4c0.5-1.3,1.4-3.1,2.6-6.3l3.1-7.6c0.4-1,0.6-1.5,0.5-2c0.7-0.2,1.2-0.7,1.6-1.1
		c0.2,0,0.4,0.1,0.5,0.3c0.4,1.2,0.9,2.5,1.3,3.8l4.1,11.3c0.9,2.4,1.3,2.8,2.6,3l0.8,0.1c0.2,0.1,0.2,0.6,0,0.7
		c-1.2-0.1-2.3-0.1-3.6-0.1c-1.4,0-2.6,0.1-3.5,0.1c-0.2-0.1-0.3-0.6-0.1-0.7l0.9-0.1c0.6-0.1,1.1-0.2,1.1-0.5
		c0-0.3-0.2-0.8-0.4-1.5L202.5,29.2z M196.6,26.7c-0.2,0.6-0.2,0.7,0.6,0.7h3.7c0.9,0,0.9-0.1,0.7-0.9l-1.6-4.6
		c-0.2-0.7-0.5-1.4-0.7-1.8h-0.1c-0.1,0.1-0.4,0.8-0.7,1.7L196.6,26.7z"/>
	<path class="st1" d="M216.9,36.2c-2.5,0-4.1-0.7-4.7-1c-0.4-0.6-0.8-2.6-0.8-3.9c0.2-0.2,0.6-0.3,0.7-0.1c0.5,1.4,1.7,4.2,5.2,4.2
		c2.5,0,3.8-1.5,3.8-3.2c0-1.2-0.3-2.6-2.5-3.9l-2.9-1.7c-1.5-0.9-3.2-2.5-3.2-4.8c0-2.7,2.2-4.8,6.1-4.8c0.9,0,2,0.2,2.8,0.4
		c0.4,0.1,0.8,0.2,1.1,0.2c0.3,0.7,0.5,2.2,0.5,3.4c-0.1,0.2-0.6,0.3-0.8,0.1c-0.4-1.3-1.2-3.2-4.1-3.2c-2.9,0-3.6,1.8-3.6,3.1
		c0,1.6,1.4,2.8,2.6,3.5l2.4,1.4c1.9,1.1,3.8,2.7,3.8,5.4C223.3,34.1,220.8,36.2,216.9,36.2z"/>
	<path class="st1" d="M229.6,21.5c0-3-0.1-3.5-1.8-3.6l-0.8-0.1c-0.2-0.1-0.1-0.6,0.1-0.7c1.5,0.1,2.5,0.1,3.8,0.1
		c1.2,0,2.2,0,3.7-0.1c0.2,0.1,0.2,0.6,0.1,0.7l-0.8,0.1c-1.8,0.1-1.8,0.6-1.8,3.6v10c0,3,0.1,3.4,1.8,3.6l0.8,0.1
		c0.2,0.1,0.1,0.6-0.1,0.7c-1.5-0.1-2.5-0.1-3.7-0.1c-1.3,0-2.3,0-3.8,0.1c-0.2-0.1-0.2-0.5-0.1-0.7l0.8-0.1
		c1.8-0.2,1.8-0.6,1.8-3.6V21.5z"/>
	<path class="st1" d="M243.6,36.2c-2.5,0-4.1-0.7-4.7-1c-0.4-0.6-0.8-2.6-0.8-3.9c0.2-0.2,0.6-0.3,0.7-0.1c0.5,1.4,1.7,4.2,5.2,4.2
		c2.5,0,3.8-1.5,3.8-3.2c0-1.2-0.3-2.6-2.5-3.9l-2.9-1.7c-1.5-0.9-3.2-2.5-3.2-4.8c0-2.7,2.2-4.8,6.1-4.8c0.9,0,2,0.2,2.8,0.4
		c0.4,0.1,0.8,0.2,1.1,0.2c0.3,0.7,0.5,2.2,0.5,3.4c-0.1,0.2-0.6,0.3-0.8,0.1c-0.4-1.3-1.2-3.2-4.1-3.2c-2.9,0-3.6,1.8-3.6,3.1
		c0,1.6,1.4,2.8,2.6,3.5l2.4,1.4c1.9,1.1,3.8,2.7,3.8,5.4C250,34.1,247.5,36.2,243.6,36.2z"/>
</g>
<g>
	<path class="st0" d="M136.4,7l-1,10.8c0,0,3.1-6.2,12.5-5.7l0.4-5.1L136.4,7z"/>
	<path class="st0" d="M144.5,41.8l1-10.8c0,0-3.1,6.2-12.5,5.7l-0.4,5.1L144.5,41.8z"/>
	<path class="st0" d="M121.7,30.3l14.2,0c0,0-6.5-2-6.8-11.4h-5.6L121.7,30.3z"/>
	<path class="st0" d="M159.2,19L145,19c0,0,6.5,2,6.8,11.4h5.6L159.2,19z"/>
</g>
</svg>
