<svg id="Layer_1" data-name="Layer 1" xmlns="http://www.w3.org/2000/svg" viewBox="0 0 828.71 114.67"><defs><style>.cls-1{fill:#00558b;}.cls-2{fill:#96ca4f;}.cls-3{fill:#dfe1df;}.cls-4{fill:none;}.cls-5{fill:#93d500;}</style></defs><path class="cls-1" d="M241.6,10.26A1.38,1.38,0,0,1,243,8.88h28.94a1.37,1.37,0,0,1,1.37,1.38v4.05a1.37,1.37,0,0,1-1.37,1.37H249.06V30.45h19.31a1.42,1.42,0,0,1,1.38,1.37v4a1.38,1.38,0,0,1-1.38,1.38H249.06V52.8h22.86a1.37,1.37,0,0,1,1.37,1.38v4a1.37,1.37,0,0,1-1.37,1.37H243a1.37,1.37,0,0,1-1.38-1.37Z"/><path class="cls-1" d="M298.51,35.15,281.58,11a1.34,1.34,0,0,1,1.16-2.1h5.36a1.43,1.43,0,0,1,1.15.66L302.35,28,315.44,9.54a1.57,1.57,0,0,1,1.16-.66H322a1.34,1.34,0,0,1,1.16,2.1L306,35.08V58.16a1.42,1.42,0,0,1-1.38,1.37h-4.77a1.37,1.37,0,0,1-1.38-1.37Z"/><path class="cls-1" d="M332.91,10.26a1.38,1.38,0,0,1,1.38-1.38h28.94a1.37,1.37,0,0,1,1.37,1.38v4.05a1.37,1.37,0,0,1-1.37,1.37H340.37V30.45h19.32a1.42,1.42,0,0,1,1.37,1.37v4a1.37,1.37,0,0,1-1.37,1.38H340.37V52.8h22.86a1.37,1.37,0,0,1,1.37,1.38v4a1.37,1.37,0,0,1-1.37,1.37H334.29a1.37,1.37,0,0,1-1.38-1.37Z"/><path class="cls-1" d="M391.89,57.65,414.1,9a1.69,1.69,0,0,1,1.23-.8h.72a1.65,1.65,0,0,1,1.23.8l22.07,48.69a1.28,1.28,0,0,1-1.23,1.88h-4.56a1.67,1.67,0,0,1-1.66-1.09l-4.49-9.91H403.75c-1.44,3.33-3,6.59-4.41,9.91a1.82,1.82,0,0,1-1.66,1.09h-4.56a1.27,1.27,0,0,1-1.23-1.88m32.77-15.34-8.9-19.82h-.36l-8.83,19.82Z"/><path class="cls-1" d="M447.1,52.22c.65-.94,1.23-2,1.88-3a1.64,1.64,0,0,1,2.46-.58c.43.36,6,5,11.58,5,5,0,8.17-3,8.17-6.73,0-4.34-3.76-7.09-10.92-10-7.38-3.12-13.17-6.95-13.17-15.35,0-5.64,4.34-13.38,15.84-13.38a24.47,24.47,0,0,1,13.39,4.27,1.71,1.71,0,0,1,.43,2.46c-.58.87-1.23,1.88-1.81,2.75a1.71,1.71,0,0,1-2.53.72c-.51-.29-5.57-3.62-9.77-3.62-6.07,0-8.17,3.84-8.17,6.52,0,4.12,3.18,6.65,9.19,9.11,8.39,3.4,15.55,7.38,15.55,16.21,0,7.53-6.73,13.67-16.13,13.67a23.48,23.48,0,0,1-15.56-5.71,1.52,1.52,0,0,1-.43-2.32"/><path class="cls-1" d="M488.31,52.22c.65-.94,1.23-2,1.88-3a1.64,1.64,0,0,1,2.46-.58c.43.36,6,5,11.57,5,5,0,8.18-3,8.18-6.73,0-4.34-3.76-7.09-10.92-10-7.38-3.12-13.17-6.95-13.17-15.35,0-5.64,4.34-13.38,15.84-13.38a24.51,24.51,0,0,1,13.39,4.27,1.72,1.72,0,0,1,.43,2.46c-.58.87-1.23,1.88-1.81,2.75a1.71,1.71,0,0,1-2.53.72c-.51-.29-5.57-3.62-9.77-3.62-6.07,0-8.17,3.84-8.17,6.52,0,4.12,3.18,6.65,9.18,9.11,8.4,3.4,15.56,7.38,15.56,16.21,0,7.53-6.73,13.67-16.13,13.67a23.48,23.48,0,0,1-15.56-5.71,1.52,1.52,0,0,1-.43-2.32"/><path class="cls-1" d="M554.91,8.16a26,26,0,1,1-26,26.12,26,26,0,0,1,26-26.12m0,44.86a18.81,18.81,0,1,0-18.74-18.74A18.81,18.81,0,0,0,554.91,53"/><path class="cls-1" d="M616.58,8.16a25.11,25.11,0,0,1,17.51,6.73,1.35,1.35,0,0,1,.08,2L631,20.17c-.5.65-1.16.65-1.81,0a19.64,19.64,0,0,0-12.51-4.85c-10.35,0-18.16,8.69-18.16,18.81s7.88,18.74,18.23,18.74c5.28,0,9-2.09,12.44-4.77a1.34,1.34,0,0,1,1.74-.08l3.33,3.26a1.38,1.38,0,0,1-.07,1.95,24.85,24.85,0,0,1-17.59,7,26,26,0,1,1,0-52.09"/><path class="cls-1" d="M647.73,8.88h4.78a1.37,1.37,0,0,1,1.37,1.37v47.9a1.38,1.38,0,0,1-1.37,1.38h-4.78a1.37,1.37,0,0,1-1.37-1.37V10.26A1.37,1.37,0,0,1,647.73,8.88Z"/><path class="cls-1" d="M663.59,57.65,685.81,9a1.65,1.65,0,0,1,1.23-.8h.72A1.69,1.69,0,0,1,689,9l22.07,48.69a1.28,1.28,0,0,1-1.23,1.88h-4.56a1.68,1.68,0,0,1-1.67-1.09l-4.48-9.91H675.46c-1.45,3.33-3,6.59-4.42,9.91a1.8,1.8,0,0,1-1.66,1.09h-4.56a1.28,1.28,0,0,1-1.23-1.88m32.78-15.34-8.9-19.82h-.36l-8.83,19.82Z"/><path class="cls-1" d="M724.12,15.68H712.33A1.37,1.37,0,0,1,711,14.31V10.26a1.38,1.38,0,0,1,1.38-1.38h31.11a1.38,1.38,0,0,1,1.37,1.38v4.05a1.37,1.37,0,0,1-1.37,1.37h-11.8V58.16a1.42,1.42,0,0,1-1.37,1.37h-4.78a1.42,1.42,0,0,1-1.37-1.37Z"/><path class="cls-1" d="M754.79,10.26a1.38,1.38,0,0,1,1.38-1.38h28.94a1.37,1.37,0,0,1,1.37,1.38v4.05a1.37,1.37,0,0,1-1.37,1.37H762.25V30.45h19.31a1.42,1.42,0,0,1,1.38,1.37v4a1.38,1.38,0,0,1-1.38,1.38H762.25V52.8h22.86a1.37,1.37,0,0,1,1.37,1.38v4a1.37,1.37,0,0,1-1.37,1.37H756.17a1.37,1.37,0,0,1-1.38-1.37Z"/><path class="cls-1" d="M796.59,52.22c.65-.94,1.23-2,1.88-3a1.64,1.64,0,0,1,2.46-.58c.44.36,6,5,11.58,5,5,0,8.17-3,8.17-6.73,0-4.34-3.76-7.09-10.92-10-7.38-3.12-13.17-6.95-13.17-15.35,0-5.64,4.34-13.38,15.85-13.38a24.46,24.46,0,0,1,13.38,4.27,1.72,1.72,0,0,1,.44,2.46c-.58.87-1.23,1.88-1.81,2.75a1.72,1.72,0,0,1-2.54.72c-.5-.29-5.57-3.62-9.76-3.62-6.08,0-8.18,3.84-8.18,6.52,0,4.12,3.18,6.65,9.19,9.11,8.39,3.4,15.55,7.38,15.55,16.21,0,7.53-6.72,13.67-16.13,13.67A23.42,23.42,0,0,1,797,54.54a1.52,1.52,0,0,1-.44-2.32"/><path class="cls-1" d="M198.09,70.29a165.41,165.41,0,0,0-1.81-19c-3.89-22.44-18.51-37.25-43.46-44A209.64,209.64,0,0,0,82.71.58a235.81,235.81,0,0,0-38,5.86C25.21,11.09,11.91,21.94,5.21,38.7.75,49.88-4.21,84.08,6,99.09c5.89,8.64,15.74,13.18,52.26,7.78s60.28-5,92.48.39,40.79-1.93,44.36-13.17a44.64,44.64,0,0,0,1.73-8.4,88.76,88.76,0,0,0,1-10.77c.08-1.47.16-2.94.26-4.4v-.23ZM5.73,76.62c-1.59-15,1.14-24.39,3.74-33.17,5.39-18.18,22.68-29.35,37-32.76A223.16,223.16,0,0,1,98.17,4.46a200.59,200.59,0,0,1,52.75,7C163.74,14.93,183.59,26,189,44.39s2.79,34.87,1.16,39.8c-3,9.08-8.5,12.32-20.23,12a187.38,187.38,0,0,1-19.17-1.92c-3.26-.44-6.63-.9-10-1.26a351.06,351.06,0,0,0-73.05-.12l-9.61,1c-9.63,1-20.36,2.73-29.38,2.77s-21.45-5.07-23-20m19.16,30,.24,0-.24,0"/><path class="cls-1" d="M21,33.35C29,21.2,63.74,8.61,103,9.47c35.24.77,66.22,14,72.15,22.92,11.17,16.85,5.41,40,2.9,45.81-1.66,3.87-6.73,4.87-9.84,4.41-53.88-8-79.15-9.09-138.61-.19-6.17.93-10-.52-13-7.42-5.84-13.25-4-28.92,4.41-41.65M156.75,62c18.3,3.87,20.39-8.5,15.6-21.47-4.09-11.07-27.84-16.8-55.85-19.75-39.34-4.14-51.4,4.1-51.32,24.08,0,8.38,2.07,12.75,14.38,11.26,27.91-3.39,35.93-2.83,77.19,5.88M113.1,71.17c1.05,0,1.13-.09,1.21-1.15a7,7,0,0,0-1-4.08,11.65,11.65,0,0,0-10.6-5.56c-22.9,1.78-65.24,4.4-73.9,2C23.71,61,19.93,46.47,19.68,44.81c0-.15-.18-.28-.27-.42-.11.13-.3.24-.33.39-.1.43-.1.89-.2,1.33a43,43,0,0,0-1,18.44c1.49,9.33,5.57,14,8.53,13.56,34.54-5.47,50.7-7.21,86.7-6.94M40.78,55.36c5.91,3.24,20.69,2.81,21.1,2.83s.6-.18.37-.58a23.93,23.93,0,0,1-1.78-4.52c-3-12.15,1.11-24.16,9.45-34.78A16.66,16.66,0,0,1,72.15,16c.5-.46.12-.57-.32-.46s-31.47,6.4-35,15.05c-2.89,7.12-2,21.55,3.92,24.79m76.52,8.51c4.07,6.1,4.6,7.36,8.83,7.93,6.86.94,32.6,5.33,38.16,6.56,7.36,1.63,10.38-2.92,10.77-8.42.18-2.44.18-3.53-.1-3.61s-.59.25-.85,1c-1.47,4.41-3.86,6.26-11.47,4.87-11.17-2-34.3-1.89-41.3-9.14-4.85-5-7.48-4.36-4,.78"/><path class="cls-2" d="M141,37.51c2.41,3.24,0,10.48-4.34,9.42A183.9,183.9,0,0,0,102,42.55c-3.93-.09-5.08-2.11-5.14-4.31-.07-3,.89-6.4,4.62-7.13,16.07-3.13,36.47,2.24,39.57,6.4"/><path class="cls-3" d="M139.77,52.25c-3.66,0-7.88-.85-12.61-1.8-3.21-.65-6.54-1.32-10.1-1.82a138.63,138.63,0,0,0-14.56-1.16c-6.18-.25-9.91-.39-12.65-3.2-3.13-3.19-14.15-4.44-18.14-4.65l0-2.08c.13,0,13.78-1.23,18.51-6C94,27.69,103.54,24,118.94,25.21c16.66,1.31,27.44,3.46,29.72,10.15,1.62,4.78,14,9.22,18.68,10.53l-.39,2c-4.15-.43-15.52-1-18.3,1.42-2.45,2.15-5.42,2.9-8.88,2.9M79.48,38.41c4.43.74,9.57,2.07,11.86,4.41s5.39,2.33,11.24,2.56a141.2,141.2,0,0,1,14.76,1.19c3.63.5,7,1.18,10.24,1.83,8.62,1.75,15.43,3.12,19.7-.62,2.22-1.94,7.71-2.33,12.37-2.33-5.24-2.1-11.6-5.39-13-9.42-1.9-5.59-12.53-7.53-27.91-8.74C99.83,25.81,92.88,31.79,91.68,33c-2.75,2.78-7.86,4.44-12.2,5.41"/><rect class="cls-4" width="828.71" height="114.67"/><path class="cls-5" d="M242.84,76.21a.72.72,0,0,1,.73-.68h.94l15.76,16.75h0V76.63a.72.72,0,0,1,.72-.72h3.49a.74.74,0,0,1,.72.72v25.5a.71.71,0,0,1-.72.68h-.91L247.77,85.42h0v16.29a.72.72,0,0,1-.72.72h-3.44a.75.75,0,0,1-.73-.72Z"/><path class="cls-5" d="M290.08,75.53a13.64,13.64,0,1,1-13.6,13.68,13.61,13.61,0,0,1,13.6-13.68m0,22.35a8.71,8.71,0,1,0-8.67-8.67,8.73,8.73,0,0,0,8.67,8.67"/><path class="cls-5" d="M315,76.63a.72.72,0,0,1,.72-.72h10.84a8.2,8.2,0,0,1,8.25,8.14,8.37,8.37,0,0,1-5.6,7.66l5.19,9.62a.72.72,0,0,1-.65,1.1h-4a.65.65,0,0,1-.61-.34l-5-10H320v9.66a.74.74,0,0,1-.72.72h-3.48a.72.72,0,0,1-.72-.72ZM326.17,88a3.86,3.86,0,0,0,3.75-3.87,3.76,3.76,0,0,0-3.75-3.67H320V88Z"/><path class="cls-5" d="M350.87,80.46h-5.8a.72.72,0,0,1-.72-.72V76.63a.72.72,0,0,1,.72-.72h16.55a.73.73,0,0,1,.73.72v3.11a.73.73,0,0,1-.73.72h-5.79v21.25a.74.74,0,0,1-.72.72h-3.52a.74.74,0,0,1-.72-.72Z"/><path class="cls-5" d="M373,76.63a.74.74,0,0,1,.72-.72h3.52a.73.73,0,0,1,.73.72v10h12.35v-10a.72.72,0,0,1,.72-.72h3.48a.74.74,0,0,1,.72.72v25.08a.74.74,0,0,1-.72.72H391a.72.72,0,0,1-.72-.72V91.25H377.93v10.46a.73.73,0,0,1-.73.72h-3.52a.74.74,0,0,1-.72-.72Z"/><path class="cls-5" d="M406.22,76.82a.66.66,0,0,1,.68-.91h3.49a.78.78,0,0,1,.68.53L415,91.56h.15l6-15.61a.6.6,0,0,1,.64-.42h.68a.6.6,0,0,1,.64.42l6.07,15.61h.15l3.86-15.12a.78.78,0,0,1,.69-.53h3.48a.66.66,0,0,1,.68.91l-7.16,25.46a.73.73,0,0,1-.68.53h-.61a.64.64,0,0,1-.64-.42l-6.78-17.16H422l-6.71,17.16a.63.63,0,0,1-.64.42h-.61a.73.73,0,0,1-.68-.53Z"/><path class="cls-5" d="M449.14,76.63a.72.72,0,0,1,.72-.72h15.42a.72.72,0,0,1,.72.72v3.11a.72.72,0,0,1-.72.72H454.06v6.21h9.36a.74.74,0,0,1,.72.72v3.14a.72.72,0,0,1-.72.72h-9.36v6.63h11.22a.72.72,0,0,1,.72.72v3.11a.72.72,0,0,1-.72.72H449.86a.72.72,0,0,1-.72-.72Z"/><path class="cls-5" d="M476.75,98.72l1.37-2.35a.88.88,0,0,1,1.29-.27c.18.12,3.25,2.35,5.72,2.35,2,0,3.44-1.28,3.44-2.91,0-1.94-1.62-3.26-4.81-4.55-3.56-1.44-7.12-3.71-7.12-8.19,0-3.37,2.5-7.27,8.53-7.27a13.31,13.31,0,0,1,7.57,2.54.93.93,0,0,1,.23,1.25l-1.44,2.16a1,1,0,0,1-1.33.45c-.3-.19-3.18-2.08-5.26-2.08s-3.34,1.44-3.34,2.65c0,1.78,1.41,3,4.47,4.24,3.68,1.48,7.92,3.68,7.92,8.57,0,3.9-3.37,7.5-8.71,7.5a12.25,12.25,0,0,1-8.34-3c-.34-.35-.53-.53-.19-1.14"/><path class="cls-5" d="M509.67,80.46h-5.79a.72.72,0,0,1-.72-.72V76.63a.72.72,0,0,1,.72-.72h16.55a.73.73,0,0,1,.73.72v3.11a.73.73,0,0,1-.73.72h-5.79v21.25a.74.74,0,0,1-.72.72H510.4a.75.75,0,0,1-.73-.72Z"/></svg>