<?xml version="1.0" encoding="utf-8"?>
<!-- Generator: Adobe Illustrator 25.0.0, SVG Export Plug-In . SVG Version: 6.00 Build 0)  -->
<svg version="1.1" id="Layer_1" xmlns="http://www.w3.org/2000/svg" xmlns:xlink="http://www.w3.org/1999/xlink" x="0px" y="0px"
	 viewBox="0 0 679 226" style="enable-background:new 0 0 679 226;" xml:space="preserve">
<style type="text/css">
	.st0{fill:#282C67;}
	.st1{fill:#C0D230;}
	.st2{fill:#08B2E1;}
	.st3{fill:#79A1D4;}
	.st4{fill:#3070B7;}
	.st5{fill:#F58220;}
	.st6{fill:#00AB69;}
</style>
<path class="st0" d="M76.2,105H22.7c-1.5,0-2.7-1.2-2.7-2.7V89.9c0-1.5,1.2-2.7,2.7-2.7h53.6c1.5,0,2.7,1.2,2.7,2.7v12.4
	C78.9,103.8,77.7,105,76.2,105"/>
<path class="st1" d="M61.2,78.9V25.3c0-1.5,1.2-2.7,2.7-2.7h12.4c1.5,0,2.7,1.2,2.7,2.7v53.6c0,1.5-1.2,2.7-2.7,2.7H64
	C62.5,81.6,61.2,80.4,61.2,78.9"/>
<path class="st2" d="M61.2,125.4v-12.1c0-1.5,1.2-2.7,2.7-2.7h12.4c1.5,0,2.7,1.2,2.7,2.7v12.1c0,1.5-1.2,2.7-2.7,2.7H64
	C62.5,128.1,61.2,126.9,61.2,125.4"/>
<path class="st3" d="M87.5,63.8h53.6c1.5,0,2.7,1.2,2.7,2.7v12.4c0,1.5-1.2,2.7-2.7,2.7H87.5c-1.5,0-2.7-1.2-2.7-2.7V66.5
	C84.8,65,86,63.8,87.5,63.8"/>
<path class="st4" d="M102.5,90v53.6c0,1.5-1.2,2.7-2.7,2.7H87.4c-1.5,0-2.7-1.2-2.7-2.7V90c0-1.5,1.2-2.7,2.7-2.7h12.4
	C101.3,87.2,102.5,88.5,102.5,90"/>
<path class="st0" d="M102.5,43.4v12.1c0,1.5-1.2,2.7-2.7,2.7H87.4c-1.5,0-2.7-1.2-2.7-2.7V43.4c0-1.5,1.2-2.7,2.7-2.7h12.4
	C101.3,40.7,102.5,41.9,102.5,43.4"/>
<path class="st5" d="M125.8,90v12.1c0,1.5-1.2,2.7-2.7,2.7h-12.4c-1.5,0-2.7-1.2-2.7-2.7V90c0-1.5,1.2-2.7,2.7-2.7h12.4
	C124.6,87.3,125.8,88.5,125.8,90"/>
<path class="st6" d="M55.9,66.8v12.1c0,1.5-1.2,2.7-2.7,2.7H40.8c-1.5,0-2.7-1.2-2.7-2.7V66.8c0-1.5,1.2-2.7,2.7-2.7h12.4
	C54.7,64,55.9,65.2,55.9,66.8"/>
<path class="st0" d="M196.5,59.6c0-5-3.5-8.7-8.3-8.7h-10v17.3h10C193,68.3,196.5,64.5,196.5,59.6 M207.7,59.6
	c0,10.7-8.5,19.2-19.5,19.2h-10v18.8h-11.3V40.4h21.3C199.2,40.4,207.7,48.9,207.7,59.6"/>
<path class="st0" d="M237.5,55.9v11.8c-5.5-0.6-12.4,1.8-12.4,10.4v19.5h-10.5V56.7h10.5v7C227.2,58.2,232.4,55.9,237.5,55.9"/>
<path class="st0" d="M274.2,77.2c0-6.6-4.8-11.3-11.1-11.3c-6.2,0-11,4.7-11,11.3c0,6.6,4.8,11.3,11,11.3
	C269.4,88.4,274.2,83.8,274.2,77.2 M241.5,77.2c0-12.2,9.6-21.6,21.6-21.6c12,0,21.6,9.4,21.6,21.6c0,12.2-9.6,21.6-21.6,21.6
	C251.1,98.7,241.5,89.3,241.5,77.2"/>
<rect x="292.2" y="38" class="st0" width="10.5" height="59.6"/>
<path class="st0" d="M312.3,56.8h10.5v40.8h-10.5V56.8z M311.1,45.4c0-3.5,2.9-6.5,6.5-6.5c3.6,0,6.5,3,6.5,6.5s-2.9,6.4-6.5,6.4
	C314,51.8,311.1,48.9,311.1,45.4"/>
<path class="st0" d="M363.5,77.2c0-6.9-4.8-11.5-11.4-11.5c-6.5,0-11.3,4.7-11.3,11.5c0,6.9,4.8,11.5,11.3,11.5
	C358.7,88.7,363.5,84,363.5,77.2 M374.1,56.8v40.8h-10.5v-4.8c-2.9,3.7-7.4,6-13.3,6c-10.9,0-19.9-9.4-19.9-21.6
	c0-12.2,9-21.6,19.9-21.6c6,0,10.4,2.3,13.3,6v-4.8L374.1,56.8L374.1,56.8z"/>
<path class="st0" d="M421.8,72.5v25.1h-10.5V73.8c0-5.5-3.4-8.4-8.1-8.4c-5.1,0-9,3-9,10.1v22h-10.5V56.8h10.5v4.6
	c2.5-3.7,6.7-5.7,12.2-5.7C415,55.6,421.8,61.6,421.8,72.5"/>
<path class="st0" d="M428.6,77.2c0-12.2,9.1-21.6,21.6-21.6c8,0,15,4.2,18.3,10.5l-9.1,5.3c-1.6-3.4-5.1-5.5-9.3-5.5
	c-6.3,0-11,4.7-11,11.2c0,6.5,4.7,11.1,11,11.1c4.2,0,7.8-2,9.4-5.4l9.2,5.2c-3.5,6.4-10.5,10.6-18.5,10.6
	C437.8,98.7,428.6,89.3,428.6,77.2"/>
<path class="st0" d="M504.1,73.3c-1.3-5.9-5.7-8.2-10.1-8.2c-5.6,0-9.5,3-10.7,8.2H504.1z M494.9,89.2c4.1,0,7.3-1.7,9.2-4.1
	l8.5,4.9c-3.8,5.5-10,8.7-17.8,8.7c-13.7,0-22.4-9.4-22.4-21.6c0-12.2,8.7-21.6,21.6-21.6c12.1,0,20.7,9.6,20.7,21.6
	c0,1.5-0.2,2.9-0.4,4.3h-30.8C484.9,86.9,489.4,89.2,494.9,89.2"/>
<path class="st0" d="M163.4,138.8l3.9-2.2c1.2,3.8,4.2,6.2,9.2,6.2c4.9,0,7.2-2.2,7.2-5.3c0-3.5-3-4.7-8.1-6.3
	c-5.5-1.8-10.8-3.5-10.8-9.9c0-6.2,5.1-9.7,10.8-9.7c5.6,0,9.7,3.2,11.6,7.5l-3.8,2.2c-1.2-2.9-3.6-5.3-7.8-5.3
	c-3.7,0-6.2,2-6.2,5.1c0,3.2,2.4,4.4,7.2,5.9c6,2,11.6,3.7,11.6,10.3c0,6-4.9,9.9-11.9,9.9C169.8,147.2,165.2,143.9,163.4,138.8"/>
<path class="st0" d="M206.9,135.1v-22.8h4.6v22.6c0,4.8,2.8,7.9,8.3,7.9s8.3-3.1,8.3-7.9v-22.6h4.5v22.8c0,7.5-5.3,12.1-12.8,12.1
	S206.9,142.5,206.9,135.1"/>
<path class="st0" d="M257.8,129.3h9.2c3.4,0,6.1-2.9,6.1-6.4s-2.7-6.4-6.1-6.4h-9.2V129.3z M265.9,133.5h-8.1v13.1h-4.6v-34.3H267
	c5.9,0,10.7,4.8,10.7,10.6c0,4.5-3,8.5-7.1,10l8.1,13.7h-5L265.9,133.5z"/>
<path class="st0" d="M330,131.6c0,8.7-6.5,15.6-16.8,15.6c-10.6,0-18.1-8-18.1-17.8c0-9.9,7.5-17.8,18-17.8c6.4,0,12,3.4,14.9,8.3
	l-3.9,2.3c-2-3.7-6.1-6.2-11-6.2c-7.9,0-13.4,5.9-13.4,13.4c0,7.5,5.4,13.3,13.6,13.3c7.1,0,11.3-3.9,12.2-9.1h-12.6v-4.1H330
	L330,131.6L330,131.6z"/>
<polygon class="st0" points="369.7,142.3 369.7,146.6 349.2,146.6 349.2,112.3 369.5,112.3 369.5,116.6 353.8,116.6 353.8,127.1 
	368.2,127.1 368.2,131.4 353.8,131.4 353.8,142.3 "/>
<path class="st0" d="M418.1,129.4c0-7.5-5.7-13.4-13.2-13.4s-13.2,5.8-13.2,13.4c0,7.5,5.7,13.3,13.2,13.3
	C412.4,142.8,418.1,136.9,418.1,129.4 M387.1,129.4c0-9.9,7.8-17.8,17.7-17.8s17.8,7.9,17.8,17.8c0,9.9-7.8,17.8-17.8,17.8
	S387.1,139.3,387.1,129.4"/>
<polygon class="st0" points="467.7,112.3 467.7,146.6 464,146.6 446.4,121 446.4,146.6 441.9,146.6 441.9,112.3 445.5,112.3 
	463.2,137.9 463.2,112.3 "/>
<path class="st0" d="M486.9,138.8l3.9-2.2c1.2,3.8,4.2,6.2,9.2,6.2c4.8,0,7.2-2.2,7.2-5.3c0-3.5-3-4.7-8.1-6.3
	c-5.5-1.8-10.8-3.5-10.8-9.9c0-6.2,5-9.7,10.8-9.7c5.6,0,9.7,3.2,11.6,7.5l-3.8,2.2c-1.2-2.9-3.6-5.3-7.8-5.3c-3.7,0-6.2,2-6.2,5.1
	c0,3.2,2.4,4.4,7.2,5.9c6,2,11.6,3.7,11.6,10.3c0,6-4.8,9.9-11.9,9.9C493.3,147.2,488.7,143.9,486.9,138.8"/>
<path class="st0" d="M517.4,115.7h0.4c0.4,0,0.6-0.2,0.6-0.5c0-0.3-0.2-0.5-0.6-0.5h-0.4V115.7z M518.8,116.3l0.8,1.5h-1.1l-0.6-1.3
	h-0.5v1.3h-1v-4h1.5c0.9,0,1.5,0.6,1.5,1.3C519.4,115.7,519.2,116.1,518.8,116.3 M521.3,115.8c0-2-1.6-3.6-3.6-3.6
	c-2,0-3.6,1.6-3.6,3.6c0,2,1.6,3.6,3.6,3.6C519.7,119.4,521.3,117.8,521.3,115.8 M521.7,115.8c0,2.2-1.8,3.9-3.9,3.9
	s-3.9-1.8-3.9-3.9s1.8-3.9,3.9-3.9S521.7,113.6,521.7,115.8"/>
<g>
	<path class="st0" d="M182.8,198.5v4.1h-16.1v-26.4h15.9v4.1h-11.5v6.9h10.6v4.1h-10.6v7.1H182.8z"/>
	<path class="st0" d="M205.1,176.2v26.4H201v-2.7c-1.4,2-3.7,3.2-6.6,3.2c-5.1,0-9.4-4.3-9.4-9.9c0-5.6,4.3-9.9,9.4-9.9
		c2.9,0,5.2,1.2,6.6,3.2v-10.2H205.1z M201,193.2c0-3.5-2.6-6-6-6c-3.4,0-6,2.5-6,6s2.6,6,6,6C198.5,199.2,201,196.7,201,193.2z"/>
	<path class="st0" d="M237.6,190.9v11.7h-4.1v-11.4c0-2.6-1.4-4.1-3.7-4.1c-2.4,0-4.1,1.5-4.1,5v10.6h-4.1v-11.4
		c0-2.6-1.3-4.1-3.5-4.1c-2.3,0-4.2,1.5-4.2,5v10.6h-4.1v-18.9h4.1v2.3c1.2-1.9,3.1-2.8,5.4-2.8c2.5,0,4.3,1.1,5.4,3
		c1.2-2,3.2-3,5.8-3C234.8,183.3,237.6,186.2,237.6,190.9z"/>
	<path class="st0" d="M240.9,193.2c0-5.6,4.5-9.9,10-9.9c5.5,0,10,4.3,10,9.9c0,5.6-4.4,9.9-10,9.9
		C245.4,203.1,240.9,198.8,240.9,193.2z M256.8,193.2c0-3.4-2.6-6-5.9-6s-5.9,2.5-5.9,6s2.6,6,5.9,6
		C254.2,199.2,256.8,196.6,256.8,193.2z"/>
	<path class="st0" d="M281.8,191v11.6h-4.1v-11.2c0-2.9-1.7-4.4-4.2-4.4c-2.7,0-4.8,1.6-4.8,5.4v10.1h-4.1v-18.9h4.1v2.4
		c1.2-2,3.3-2.9,5.9-2.9C278.7,183.3,281.8,186.1,281.8,191z"/>
	<path class="st0" d="M305.2,176.2v26.4h-4.1v-2.7c-1.4,2-3.7,3.2-6.6,3.2c-5.1,0-9.4-4.3-9.4-9.9c0-5.6,4.3-9.9,9.4-9.9
		c2.9,0,5.2,1.2,6.6,3.2v-10.2H305.2z M301.1,193.2c0-3.5-2.6-6-6-6s-6,2.5-6,6s2.6,6,6,6C298.5,199.2,301.1,196.7,301.1,193.2z"/>
	<path class="st0" d="M323.6,197.3c0,3.8-3.3,5.8-7.4,5.8c-3.8,0-6.5-1.7-7.7-4.4l3.5-2c0.6,1.7,2.1,2.7,4.2,2.7
		c1.8,0,3.2-0.6,3.2-2.1c0-3.4-10.2-1.5-10.2-8.2c0-3.5,3.1-5.8,6.9-5.8c3.1,0,5.7,1.4,7,3.9l-3.4,1.9c-0.7-1.5-2-2.1-3.5-2.1
		c-1.5,0-2.8,0.6-2.8,2C313.5,192.4,323.6,190.3,323.6,197.3z"/>
	<path class="st0" d="M335.6,189.4c0-7.7,6.1-13.7,13.7-13.7c7.7,0,13.7,6,13.7,13.7s-6,13.7-13.7,13.7
		C341.7,203.1,335.6,197.1,335.6,189.4z M358.7,189.4c0-5.4-4.1-9.5-9.4-9.5c-5.3,0-9.4,4-9.4,9.5s4.1,9.5,9.4,9.5
		C354.6,198.9,358.7,194.9,358.7,189.4z"/>
	<path class="st0" d="M376.6,183.4v4.4c-2.7-0.2-5.8,1.1-5.8,5.3v9.5h-4.1v-18.9h4.1v3.2C371.9,184.4,374.2,183.4,376.6,183.4z"/>
	<path class="st0" d="M386,187.7v9.1c0,2.4,1.6,2.4,4.7,2.2v3.7c-6.3,0.8-8.8-1-8.8-5.9v-9.1h-3.5v-3.9h3.5v-4.1l4.1-1.2v5.3h4.7
		v3.9L386,187.7L386,187.7z"/>
	<path class="st0" d="M411.5,191v11.6h-4.1v-11.2c0-2.9-1.7-4.4-4.2-4.4c-2.7,0-4.8,1.6-4.8,5.4v10.1h-4.1v-26.4h4.1v10
		c1.2-2,3.3-2.9,5.9-2.9C408.5,183.3,411.5,186.1,411.5,191z"/>
	<path class="st0" d="M414.9,193.2c0-5.6,4.5-9.9,10-9.9c5.5,0,10,4.3,10,9.9c0,5.6-4.4,9.9-10,9.9
		C419.3,203.1,414.9,198.8,414.9,193.2z M430.7,193.2c0-3.4-2.6-6-5.9-6s-5.9,2.5-5.9,6s2.6,6,5.9,6
		C428.1,199.2,430.7,196.6,430.7,193.2z"/>
	<path class="st0" d="M458.6,193.2c0,5.6-4.3,9.9-9.4,9.9c-2.9,0-5.2-1.2-6.6-3.2v10.2h-4.1v-26.4h4.1v2.7c1.4-2,3.7-3.2,6.6-3.2
		C454.3,183.3,458.6,187.6,458.6,193.2z M454.5,193.2c0-3.5-2.6-6-6-6c-3.4,0-6,2.5-6,6s2.6,6,6,6S454.5,196.7,454.5,193.2z"/>
	<path class="st0" d="M471.5,199.4c2.3,0,4-1,4.9-2.3l3.4,2c-1.7,2.6-4.6,4.1-8.3,4.1c-6.2,0-10.3-4.3-10.3-9.9c0-5.6,4-9.9,10-9.9
		c5.6,0,9.5,4.5,9.5,10c0,0.6-0.1,1.2-0.2,1.7h-15C466.1,197.9,468.5,199.4,471.5,199.4z M476.5,191.6c-0.6-3.2-2.9-4.6-5.4-4.6
		c-3.1,0-5.1,1.8-5.7,4.6H476.5z"/>
	<path class="st0" d="M503.2,176.2v26.4h-4.1v-2.7c-1.4,2-3.7,3.2-6.6,3.2c-5.1,0-9.4-4.3-9.4-9.9c0-5.6,4.3-9.9,9.4-9.9
		c2.9,0,5.2,1.2,6.6,3.2v-10.2H503.2z M499.1,193.2c0-3.5-2.6-6-6-6c-3.4,0-6,2.5-6,6s2.6,6,6,6
		C496.5,199.2,499.1,196.7,499.1,193.2z"/>
	<path class="st0" d="M507.3,178.3c0-1.4,1.2-2.6,2.6-2.6c1.4,0,2.6,1.2,2.6,2.6c0,1.4-1.2,2.6-2.6,2.6
		C508.5,180.9,507.3,179.7,507.3,178.3z M507.9,183.8h4.1v18.9h-4.1V183.8z"/>
	<path class="st0" d="M515.7,193.2c0-5.6,4.3-9.9,10-9.9c3.7,0,6.9,1.9,8.4,4.9l-3.5,2c-0.8-1.8-2.7-2.9-5-2.9
		c-3.3,0-5.8,2.5-5.8,5.9s2.5,5.9,5.8,5.9c2.3,0,4.1-1.2,5-2.9l3.5,2c-1.6,3-4.8,4.9-8.5,4.9C519.9,203.1,515.7,198.8,515.7,193.2z"
		/>
	<path class="st0" d="M545.6,189.4c0-7.7,5.8-13.7,13.8-13.7c4.8,0,9.1,2.5,11.4,6.3l-3.8,2.2c-1.4-2.6-4.3-4.3-7.6-4.3
		c-5.7,0-9.5,4-9.5,9.5s3.8,9.5,9.5,9.5c3.3,0,6.2-1.7,7.6-4.3l3.8,2.1c-2.2,3.9-6.5,6.3-11.4,6.3
		C551.3,203.1,545.6,197.1,545.6,189.4z"/>
	<path class="st0" d="M583.3,199.4c2.3,0,4-1,4.9-2.3l3.4,2c-1.7,2.6-4.6,4.1-8.3,4.1c-6.2,0-10.3-4.3-10.3-9.9c0-5.6,4-9.9,10-9.9
		c5.6,0,9.5,4.5,9.5,10c0,0.6-0.1,1.2-0.2,1.7h-15C577.9,197.9,580.3,199.4,583.3,199.4z M588.3,191.6c-0.6-3.2-2.9-4.6-5.4-4.6
		c-3.1,0-5.1,1.8-5.7,4.6H588.3z"/>
	<path class="st0" d="M613.2,191v11.6h-4.1v-11.2c0-2.9-1.7-4.4-4.2-4.4c-2.7,0-4.8,1.6-4.8,5.4v10.1H596v-18.9h4.1v2.4
		c1.2-2,3.3-2.9,5.8-2.9C610.2,183.3,613.2,186.1,613.2,191z"/>
	<path class="st0" d="M623.4,187.7v9.1c0,2.4,1.6,2.4,4.7,2.2v3.7c-6.3,0.8-8.8-1-8.8-5.9v-9.1h-3.5v-3.9h3.5v-4.1l4.1-1.2v5.3h4.7
		v3.9L623.4,187.7L623.4,187.7z"/>
	<path class="st0" d="M640.3,199.4c2.3,0,4-1,4.9-2.3l3.4,2c-1.7,2.6-4.6,4.1-8.3,4.1c-6.2,0-10.3-4.3-10.3-9.9c0-5.6,4-9.9,10-9.9
		c5.6,0,9.5,4.5,9.5,10c0,0.6-0.1,1.2-0.2,1.7h-15C634.9,197.9,637.3,199.4,640.3,199.4z M645.3,191.6c-0.6-3.2-2.9-4.6-5.4-4.6
		c-3.1,0-5.1,1.8-5.7,4.6H645.3z"/>
	<path class="st0" d="M662.9,183.4v4.4c-2.7-0.2-5.8,1.1-5.8,5.3v9.5H653v-18.9h4.1v3.2C658.2,184.4,660.5,183.4,662.9,183.4z"/>
</g>
</svg>
