<svg id="Layer_1" data-name="Layer 1" xmlns="http://www.w3.org/2000/svg" width="361.81" height="95.11" viewBox="0 0 361.81 95.11"><defs><style>.cls-1{fill:#231f20;}.cls-2{fill:#ffd200;}.cls-3{fill:#010101;}.cls-4{fill:#e31837;}</style></defs><title>logo-umms</title><path class="cls-1" d="M69.77,76c.1.93.28,2.36,1.39,2.72a5.57,5.57,0,0,0,1.67.23c.13,0,.21,0,.21.13s-.23.23-.54.23c-.56,0-3.34-.08-4.29-.15-.59,0-.72-.13-.72-.26s0-.15.18-.18.15-.46.1-.92L66.54,64.56h-.08L60.17,77.91c-.54,1.13-.62,1.36-.85,1.36S59,79,58.53,78.09c-.67-1.26-2.88-5.7-3-6-.23-.46-3.11-6.62-3.39-7.32H52L51,76.68V78a.82.82,0,0,0,.67.8,4.7,4.7,0,0,0,1,.13c.1,0,.21,0,.21.13s-.15.23-.46.23c-1,0-2.18-.08-2.39-.08s-1.46.08-2.16.08c-.26,0-.44,0-.44-.23s.13-.13.26-.13a3.34,3.34,0,0,0,.77-.08c.85-.15.92-1.15,1-2.13L51.35,60c0-.28.13-.46.28-.46s.26.1.38.39L59.87,76,67.4,60c.1-.23.21-.41.38-.41s.26.2.31.69Z" transform="translate(0 0.04)"/><path class="cls-1" d="M77,69.13c0-3.39,0-4,0-4.7s-.18-1.1-.93-1.21a7.45,7.45,0,0,0-.77,0,.22.22,0,0,1-.18-.18c0-.13.1-.18.36-.18,1,0,2.49,0,2.62,0h5.39a4.16,4.16,0,0,0,1-.13,1.45,1.45,0,0,1,.31-.1c.08,0,.1.1.1.2a8,8,0,0,0-.18,1c0,.2-.08,1.18-.13,1.44a.25.25,0,0,1-.21.23c-.11,0-.18-.1-.18-.28a2.4,2.4,0,0,0-.13-.77c-.15-.36-.38-.51-1.62-.67-.38,0-3-.08-3.26-.08-.1,0-.13.08-.13.23v5.93c0,.15,0,.23.13.23.28,0,3.26,0,3.77,0a1.76,1.76,0,0,0,1.1-.31c.23-.23.26-.28.33-.28s.13,0,.13.18a11.84,11.84,0,0,0-.18,1.21c0,.44-.1,1.26-.1,1.41s0,.41-.21.41-.15-.08-.15-.2a1.93,1.93,0,0,0-.1-.72c-.08-.31-.28-.57-1.16-.67-.62-.08-3-.1-3.41-.1a.14.14,0,0,0-.15.13.15.15,0,0,0,0,0v5.54c0,1.46.46,1.75,2.7,1.75A7.53,7.53,0,0,0,84,78.18a1.66,1.66,0,0,0,1-1.52c0-.26.1-.33.23-.33s.15.18.15.33a18.18,18.18,0,0,1-.31,2.11c-.15.57-.38.57-1.26.57-1.69,0-3,0-3.93-.08s-1.49,0-1.79,0h-1c-.51,0-1,0-1.31,0s-.36,0-.36-.18a.17.17,0,0,1,.16-.18h0a6.37,6.37,0,0,0,.69-.1c.44-.08.49-.51.59-1.15A44.69,44.69,0,0,0,77,73Z" transform="translate(0 0.04)"/><path class="cls-1" d="M91.19,69.13c0-3.39,0-4,0-4.7s-.18-1.1-.93-1.21a7.43,7.43,0,0,0-.77,0,.22.22,0,0,1-.18-.18c0-.13.1-.18.36-.18,1,0,2.49,0,2.62,0s1.69,0,3,0c2.26,0,6.39-.2,9.06,2.49a7.67,7.67,0,0,1,2.21,5.55A8.74,8.74,0,0,1,104.07,77a9.11,9.11,0,0,1-6.85,2.51c-1,0-2.18-.08-3.16-.13l-1.85-.13h-.93c-.47,0-1,0-1.36,0s-.36,0-.36-.18a.18.18,0,0,1,.18-.18,3.19,3.19,0,0,0,.69-.1c.44-.1.49-.51.59-1.15A44.72,44.72,0,0,0,91.15,73Zm2,2.36v4.75a4.14,4.14,0,0,0,.26,1.57c.28.41,1.08.87,3.75.87a7.58,7.58,0,0,0,5.29-2,7.35,7.35,0,0,0,1.77-5.19A7.56,7.56,0,0,0,102.18,66c-2.13-2.16-4.62-2.44-7.32-2.44a6.08,6.08,0,0,0-1.36.15.38.38,0,0,0-.28.44Z" transform="translate(0 0.04)"/><path class="cls-1" d="M113.79,73c0,2.11,0,3.83.1,4.73.08.64.15,1,.82,1.15a9.05,9.05,0,0,0,1,.1.18.18,0,0,1,.18.18c0,.1-.1.18-.36.18-1.26,0-2.72-.08-2.82-.08s-1.54.08-2.23.08c-.23,0-.36,0-.36-.18a.18.18,0,0,1,.18-.18,3.2,3.2,0,0,0,.69-.1c.44-.1.51-.51.59-1.15.1-.9.13-2.62.13-4.73V69.13c0-3.39,0-4,0-4.7s-.23-1.08-.72-1.18a4.16,4.16,0,0,0-.69-.08.19.19,0,0,1-.18-.18c0-.13.1-.18.36-.18.75,0,2.16,0,2.29,0s1.57,0,2.26,0c.26,0,.36,0,.36.18a.22.22,0,0,1-.18.18,2.53,2.53,0,0,0-.56,0c-.62.13-.74.44-.8,1.21s0,1.31,0,4.7Z" transform="translate(0 0.04)"/><path class="cls-1" d="M121.55,77.24a8.19,8.19,0,0,1-2.75-6.47,8.62,8.62,0,0,1,2.54-6c1.36-1.31,3.42-2.34,6.88-2.34a22.12,22.12,0,0,1,3.29.26,16.07,16.07,0,0,0,2.31.33c.23,0,.28.1.28.23s0,.44-.1,1.23,0,1.92,0,2.23-.13.46-.26.46-.18-.15-.18-.46a2.85,2.85,0,0,0-1-2.18,7.35,7.35,0,0,0-4.44-1.21c-2.9,0-4.29.77-5.08,1.51-1.67,1.54-2,3.49-2,5.7a7.93,7.93,0,0,0,7.95,7.91h.19c1.69,0,2.82-.13,3.72-1a4.08,4.08,0,0,0,.87-1.82c0-.23.08-.31.23-.31s.21.15.21.31a22.73,22.73,0,0,1-.54,2.8c-.13.41-.18.49-.56.64a13.41,13.41,0,0,1-4.08.49c-3.39,0-5.67-.8-7.45-2.34" transform="translate(0 0.04)"/><path class="cls-1" d="M143,63.24c.28-.72.39-.85.54-.85s.31.31.54.8c.41.92,4,9.93,5.42,13.25.82,2,1.44,2.23,1.93,2.39a3.13,3.13,0,0,0,.9.13c.13,0,.28,0,.28.18s-.26.18-.51.18-2,0-3.57,0c-.44,0-.8,0-.8-.15s0-.1.15-.15a.41.41,0,0,0,.24-.53l0-.06-2-5a.18.18,0,0,0-.21-.13h-5.21a.24.24,0,0,0-.23.18l-1.28,3.49a4.5,4.5,0,0,0-.33,1.46c0,.44.38.59.77.59h.21c.18,0,.23.08.23.18s-.13.18-.33.18c-.54,0-1.77-.08-2-.08s-1.36.08-2.29.08c-.28,0-.44,0-.44-.18a.2.2,0,0,1,.21-.18,6.52,6.52,0,0,0,.67,0c1-.13,1.46-.9,1.9-2Zm2.52,9.09c.1,0,.1,0,.08-.15l-2.23-6q-.19-.5-.39,0l-2.11,6c0,.1,0,.15.08.15Z" transform="translate(0 0.04)"/><path class="cls-1" d="M157.62,73c0,3.21,0,4.52.46,4.9s1.23.51,3,.51c1.18,0,2.18,0,2.72-.67a2.68,2.68,0,0,0,.54-1.23.26.26,0,0,1,.23-.28c.13,0,.15.1.15.33a13.8,13.8,0,0,1-.33,2.18c-.15.51-.23.59-1.44.59-1.62,0-2.87,0-3.93-.08s-1.8,0-2.46,0h-.92c-.43,0-1,0-1.31,0s-.36,0-.36-.18a.17.17,0,0,1,.16-.18h0a3.21,3.21,0,0,0,.69-.1c.43-.1.49-.51.59-1.15a44.37,44.37,0,0,0,.13-4.72V69.1c0-3.39,0-4,0-4.7s-.18-1.1-.93-1.21a7.15,7.15,0,0,0-.77,0,.22.22,0,0,1-.18-.18c0-.13.1-.18.36-.18,1,0,2.44,0,2.57,0s1.8,0,2.49,0c.23,0,.36,0,.36.18s-.1.15-.18.15h-.74c-.67.13-.8.46-.85,1.23s0,1.31,0,4.7Z" transform="translate(0 0.04)"/><path class="cls-1" d="M174.55,79c-.36-.18-.39-.28-.39-1,0-1.28.1-2.31.13-2.72s.08-.41.2-.41.18.08.18.28a4.58,4.58,0,0,0,.08,1c.39,1.9,2.08,2.62,3.8,2.62a3.43,3.43,0,0,0,3.66-3.18q0-.11,0-.23c0-1.77-.74-2.8-3-4.62l-1.16-1c-2.72-2.24-3.34-3.83-3.34-5.57,0-2.75,2-4.62,5.32-4.62a10,10,0,0,1,2.39.26,4.24,4.24,0,0,0,.9.13c.21,0,.26,0,.26.18s-.1,1-.1,2.72c0,.41,0,.59-.18.59s-.18-.13-.21-.33a4.45,4.45,0,0,0-.33-1.28c-.15-.28-.85-1.36-3.21-1.36a2.92,2.92,0,0,0-3.16,3c0,1.46.67,2.39,3.13,4.31l.72.57c3,2.39,3.75,4,3.75,6a5.32,5.32,0,0,1-2.18,4.26,6.75,6.75,0,0,1-3.88,1.08A7.79,7.79,0,0,1,174.5,79" transform="translate(0 0.04)"/><path class="cls-1" d="M192.8,73.65a3.87,3.87,0,0,0-.49-2.23c-.18-.33-3.23-5.19-4-6.34a5.65,5.65,0,0,0-1.49-1.59,2.23,2.23,0,0,0-1-.31.23.23,0,0,1-.23-.21c0-.1.08-.15.28-.15l2.23,0c.1,0,1.08,0,2,0,.26,0,.31,0,.31.15s-.15.15-.36.23-.28.18-.28.36a1.78,1.78,0,0,0,.31.85l4.11,6.8c.46-.92,3.29-5.6,3.7-6.32a2.34,2.34,0,0,0,.39-1.13c0-.31-.1-.49-.36-.56s-.33-.15-.33-.26.13-.13.36-.13c.59,0,1.39,0,1.57,0l2.21,0c.15,0,.28,0,.28.13a.26.26,0,0,1-.28.23,2.31,2.31,0,0,0-1,.28,3.93,3.93,0,0,0-1.13,1.08c-.74.87-3.93,6-4.39,6.93a4.39,4.39,0,0,0-.28,2.18v1.87c0,.36,0,1.28.08,2.18,0,.64.2,1,.87,1.15a8.54,8.54,0,0,0,1,.1.17.17,0,0,1,.18.16.17.17,0,0,1,0,0c0,.1-.13.18-.36.18-1.26,0-2.72-.08-2.85-.08s-1.54.08-2.21.08c-.26,0-.36,0-.36-.18a.17.17,0,0,1,.16-.18h0a3,3,0,0,0,.67-.1c.46-.1.62-.51.67-1.15,0-.9,0-1.82,0-2.18Z" transform="translate(0 0.04)"/><path class="cls-1" d="M203.13,79c-.31-.15-.33-.23-.33-.82a22.87,22.87,0,0,1,.13-2.31c0-.31,0-.36.18-.36s.21.08.21.26a3.32,3.32,0,0,0,.08.8c.36,1.59,2,2.16,3.57,2.16,2.23,0,3.39-1.26,3.39-2.9s-.85-2.31-2.85-3.8l-1-.77c-2.44-1.82-3.23-3.16-3.23-4.67,0-2.57,2-4.11,5-4.11a11,11,0,0,1,2.34.26,3,3,0,0,0,.8.1c.18,0,.23,0,.23.15a23.07,23.07,0,0,0-.1,2.31c0,.33,0,.49-.18.49s-.18-.1-.21-.28a4.07,4.07,0,0,0-.33-1.08c-.15-.26-.9-1.08-2.93-1.08-1.64,0-3,.82-3,2.36s.69,2.18,2.92,3.7l.64.44c2.75,1.88,3.7,3.39,3.7,5.27a4.26,4.26,0,0,1-2.1,3.72,6.94,6.94,0,0,1-3.6.77,8.3,8.3,0,0,1-3.29-.59" transform="translate(0 0.04)"/><path class="cls-1" d="M223.4,73c0,2.11,0,3.83.1,4.73.08.64.18,1,.87,1.15a8.54,8.54,0,0,0,1,.1.16.16,0,0,1,.18.14.16.16,0,0,1,0,0c0,.1-.1.18-.36.18-1.23,0-2.67-.08-2.8-.08s-1.67.08-2.34.08c-.26,0-.36,0-.36-.18s0-.15.18-.15a3,3,0,0,0,.67-.1c.46-.1.59-.54.67-1.18.1-.9.1-2.62.1-4.73V63.81l-3.26,0c-1.41,0-2,.18-2.29.69a3.45,3.45,0,0,0-.36.69c0,.18-.13.21-.23.21a.17.17,0,0,1-.15-.18c0-.23.46-2.18.49-2.36s.16-.41.23-.41a7.88,7.88,0,0,0,1,.26,17.6,17.6,0,0,0,1.77.1H227a11.47,11.47,0,0,0,1.62-.1c.33,0,.54-.1.64-.1s.1.13.1.26c0,.67-.08,2.23-.08,2.49s-.1.28-.21.28-.15-.08-.18-.39v-.23c-.08-.67-.56-1.16-2.72-1.21l-2.82,0Z" transform="translate(0 0.04)"/><path class="cls-1" d="M234.14,69.13c0-3.39,0-4,0-4.7s-.18-1.1-.92-1.21a7.43,7.43,0,0,0-.77,0,.22.22,0,0,1-.18-.18c0-.13.1-.18.36-.18,1,0,2.49,0,2.62,0h5.39a4.16,4.16,0,0,0,1-.13,1.47,1.47,0,0,1,.31-.1c.08,0,.1.1.1.2a8,8,0,0,0-.18,1,12.81,12.81,0,0,1-.13,1.44.25.25,0,0,1-.21.23c-.11,0-.18-.1-.18-.28a2.38,2.38,0,0,0-.13-.77c-.15-.36-.38-.51-1.62-.67-.38,0-3-.08-3.26-.08-.1,0-.13.08-.13.23v5.93c0,.15,0,.23.13.23.28,0,3.26,0,3.77,0a1.76,1.76,0,0,0,1.1-.31c.23-.23.26-.28.34-.28s.13,0,.13.18a12,12,0,0,0-.18,1.21c0,.44-.1,1.26-.1,1.41s0,.41-.21.41-.15-.08-.15-.2a2,2,0,0,0-.1-.72c-.08-.31-.28-.57-1.15-.67-.62-.08-3-.1-3.42-.1a.14.14,0,0,0-.15.13.15.15,0,0,0,0,0v5.54c0,1.46.46,1.75,2.7,1.75a7.52,7.52,0,0,0,2.26-.23,1.66,1.66,0,0,0,1-1.52c0-.26.1-.33.23-.33s.15.18.15.33a18.59,18.59,0,0,1-.31,2.11c-.16.57-.39.57-1.26.57-1.7,0-3,0-3.93-.08l-1.87,0h-1c-.51,0-1,0-1.31,0s-.36,0-.36-.18a.17.17,0,0,1,.16-.18h0a6.35,6.35,0,0,0,.69-.1c.44-.08.49-.51.59-1.15a45.42,45.42,0,0,0,.13-4.73Z" transform="translate(0 0.04)"/><path class="cls-1" d="M265.21,76.5c.08.77.23,2,1.16,2.26a4.75,4.75,0,0,0,1.46.21c.1,0,.18,0,.18.15s-.2.2-.46.2c-.51,0-3,0-3.85-.13-.54,0-.64-.13-.64-.23a.19.19,0,0,1,.15-.18c.13,0,.15-.36.1-.77l-1.08-11h0l-5.45,11.14c-.46,1-.59,1.15-.8,1.15s-.33-.2-.77-1c-.59-1.08-2.08-3.88-2.64-5.06-.67-1.39-2.49-5.06-2.88-6h-.1l-.87,9.86v1.1a.61.61,0,0,0,.54.62,3.7,3.7,0,0,0,.87.13c.07,0,.18.08.18.15s-.15.2-.41.2c-.85,0-1.93-.08-2.1-.08s-1.29.08-1.9.08c-.23,0-.39,0-.39-.2s.1-.15.23-.15a4.52,4.52,0,0,0,.67-.08c.74-.13.77-.92.87-1.75l1.64-14.25c0-.23.13-.38.26-.38a.52.52,0,0,1,.46.33L256.4,76.4,263,62.87c.1-.21.2-.36.36-.36s.28.18.33.59Z" transform="translate(0 0.04)"/><path class="cls-1" d="M49.79,43.59c0-4,0-4.76,0-5.58s-.26-1.29-1.11-1.47a4.91,4.91,0,0,0-.88-.08c-.1,0-.21,0-.21-.15s.13-.21.41-.21c1.16,0,2.74.08,3,.08s1.78-.08,2.56-.08c.29,0,.41,0,.41.21s-.1.15-.21.15a3.9,3.9,0,0,0-.65.08c-.7.1-.9.57-1,1.47s0,1.55,0,5.58v3.65c0,3.72.83,5.33,1.94,6.38A5.06,5.06,0,0,0,57.85,55a5.43,5.43,0,0,0,4.06-1.86c1.19-1.47,1.5-3.67,1.5-6.33V43.62c0-4,0-4.76,0-5.58s-.26-1.29-1.11-1.47a4.89,4.89,0,0,0-.88-.08c-.1,0-.21,0-.21-.15s.13-.21.41-.21c1.16,0,2.59.08,2.74.08s1.4-.08,2.17-.08c.28,0,.41,0,.41.21s-.1.15-.21.15a3.9,3.9,0,0,0-.65.08c-.7.15-.9.57-1,1.47s0,1.55,0,5.58v2.77c0,2.79-.31,5.89-2.38,7.73A7.57,7.57,0,0,1,57.27,56a7.94,7.94,0,0,1-5.32-1.84c-1.27-1.21-2.25-3-2.25-6.8Z" transform="translate(0 0.04)"/><path class="cls-1" d="M70.78,52.64c0,1.81.26,2.35.88,2.51a5.44,5.44,0,0,0,1.14.13.18.18,0,0,1,.18.18c0,.13-.15.18-.41.18-1.29,0-2.2-.08-2.4-.08s-1.16.08-2.2.08c-.23,0-.36,0-.36-.18a.18.18,0,0,1,.18-.18,3.59,3.59,0,0,0,.93-.13c.57-.15.65-.75.65-2.74V39.81c0-.88.13-1.11.31-1.11s.65.44.88.67,3.67,3.88,7.19,7.5c2.25,2.33,4.68,4.94,5.38,5.66l-.23-11c0-1.42-.15-1.91-.85-2a7.25,7.25,0,0,0-1.11-.1c-.15,0-.18-.13-.18-.21s.18-.16.44-.16c1,0,2.12,0,2.38,0s1,0,1.94,0c.23,0,.41,0,.41.16a.26.26,0,0,1-.26.21,2.57,2.57,0,0,0-.54,0c-.75.15-.8.59-.8,1.91l-.08,12.85c0,1.45,0,1.58-.18,1.58s-.46-.18-1.73-1.34c-.23-.21-3.51-3.44-5.92-6-2.64-2.77-5.2-5.45-5.89-6.23Z" transform="translate(0 0.04)"/><path class="cls-1" d="M92.92,49.24c0,2.12,0,3.85.1,4.76.08.65.15,1.06.83,1.16a9.19,9.19,0,0,0,1,.1.18.18,0,0,1,.18.18c0,.1-.1.18-.36.18-1.27,0-2.74-.08-2.84-.08s-1.55.08-2.25.08c-.23,0-.36,0-.36-.18a.17.17,0,0,1,.14-.2h0a3.24,3.24,0,0,0,.7-.1c.44-.1.52-.52.6-1.16.1-.9.13-2.64.13-4.76V45.34c0-3.41,0-4,0-4.73s-.23-1.09-.72-1.19a4.12,4.12,0,0,0-.7-.08.2.2,0,0,1-.18-.18c0-.13.1-.18.36-.18.75,0,2.17,0,2.3,0s1.58,0,2.28,0c.26,0,.36,0,.36.18a.22.22,0,0,1-.18.18,2.58,2.58,0,0,0-.57,0c-.62.13-.75.44-.8,1.22s0,1.32,0,4.73Z" transform="translate(0 0.04)"/><path class="cls-1" d="M105.9,52.76c1.32-3,4.29-10.44,4.78-12a3.81,3.81,0,0,0,.21-.83.46.46,0,0,0-.31-.47,2.65,2.65,0,0,0-.77-.08c-.13,0-.26-.08-.26-.18s.16-.18.52-.18c.9,0,1.94,0,2.22,0s1.11,0,1.78,0c.23,0,.36,0,.36.15s-.08.21-.26.21a2.12,2.12,0,0,0-1.09.26c-.31.21-.67.52-1.27,2-.26.62-1.37,3.26-2.53,6-1.4,3.21-2.4,5.58-2.92,6.67-.62,1.32-.75,1.65-1,1.65s-.41-.28-.85-1.34L98.93,41.1c-.52-1.24-.83-1.47-1.58-1.65a4.43,4.43,0,0,0-.88-.08.2.2,0,0,1-.18-.21c0-.13.23-.15.6-.15,1.09,0,2.38,0,2.66,0s1.24,0,2.12,0q.62,0,.62.15a.21.21,0,0,1-.21.21h0a2.81,2.81,0,0,0-.83.1.36.36,0,0,0-.26.39,9.09,9.09,0,0,0,.62,1.84Z" transform="translate(0 0.04)"/><path class="cls-1" d="M117.79,45.37c0-3.41,0-4,0-4.73s-.18-1.11-.93-1.22a7.56,7.56,0,0,0-.78,0,.22.22,0,0,1-.18-.18c0-.13.1-.18.36-.18,1,0,2.51,0,2.64,0h5.43a4.07,4.07,0,0,0,1-.13,1.43,1.43,0,0,1,.31-.1c.08,0,.1.1.1.21a8.4,8.4,0,0,0-.18,1c0,.21-.08,1.19-.13,1.45a.25.25,0,0,1-.21.23c-.11,0-.18-.1-.18-.29a2.41,2.41,0,0,0-.13-.77c-.15-.36-.39-.52-1.63-.67-.39,0-3-.08-3.28-.08-.1,0-.13.08-.13.23v6c0,.16,0,.23.13.23.29,0,3.28,0,3.8,0s.88-.08,1.11-.31.26-.28.34-.28.13,0,.13.18a12.05,12.05,0,0,0-.18,1.21c0,.44-.1,1.27-.1,1.42s0,.41-.21.41-.15-.08-.15-.21a1.94,1.94,0,0,0-.1-.72c-.08-.31-.28-.57-1.16-.67-.62-.08-3-.1-3.44-.1a.14.14,0,0,0-.16.16V53c0,1.47.47,1.76,2.71,1.76a7.6,7.6,0,0,0,2.27-.23,1.67,1.67,0,0,0,1-1.52c0-.26.1-.34.23-.34s.15.18.15.34a18.3,18.3,0,0,1-.31,2.12c-.15.57-.39.57-1.27.57-1.71,0-3,0-4-.08l-1.89,0h-1c-.51,0-1,0-1.32,0s-.36,0-.36-.18a.2.2,0,1,1,.36-.19,6.67,6.67,0,0,0,.7-.1c.44-.08.49-.52.6-1.16a44.93,44.93,0,0,0,.13-4.76Z" transform="translate(0 0.04)"/><path class="cls-1" d="M130,45.37c0-3.41,0-4,0-4.73s-.18-1.11-.93-1.21a7.25,7.25,0,0,0-.77,0,.22.22,0,0,1-.18-.18c0-.13.1-.18.36-.18,1,0,2.56,0,2.69,0s2.15,0,2.84,0a7.45,7.45,0,0,1,4.24,1,3.86,3.86,0,0,1,1.58,3c0,1.63-.67,3.21-2.79,5,1.86,2.33,3.44,4.32,4.76,5.69a4.17,4.17,0,0,0,2.53,1.52,4.11,4.11,0,0,0,.8.08.2.2,0,0,1,.21.18c0,.13-.13.18-.54.18H143.3a4.58,4.58,0,0,1-2.43-.44c-1-.52-1.81-1.58-3.1-3.23-1-1.19-2-2.61-2.46-3.21a.35.35,0,0,0-.31-.13l-2.89,0c-.1,0-.15,0-.15.18v.45c0,2.12,0,3.83.1,4.73.08.65.21,1.06.9,1.16a8.29,8.29,0,0,0,1,.11.16.16,0,0,1,.18.14.16.16,0,0,1,0,0c0,.1-.11.18-.36.18-1.24,0-2.69-.08-2.79-.08s-1.55.08-2.25.08c-.23,0-.36,0-.36-.18a.17.17,0,0,1,.16-.18h0a3.23,3.23,0,0,0,.7-.11c.44-.1.49-.52.6-1.16a44.93,44.93,0,0,0,.13-4.76Zm2,1.86a.32.32,0,0,0,.15.28,7.71,7.71,0,0,0,2.51.34,3,3,0,0,0,1.71-.39,3.92,3.92,0,0,0,1.37-3.36c0-2.74-1.5-4.32-3.93-4.32a10,10,0,0,0-1.63.13.28.28,0,0,0-.18.26Z" transform="translate(0 0.04)"/><path class="cls-1" d="M144.69,55.32c-.31-.15-.34-.23-.34-.83,0-1.08.1-2,.13-2.33s0-.36.18-.36.21.08.21.26a3.36,3.36,0,0,0,.08.8c.36,1.6,2.07,2.17,3.6,2.17,2.25,0,3.41-1.27,3.41-2.92s-.85-2.33-2.87-3.83l-1-.78c-2.46-1.83-3.26-3.18-3.26-4.7,0-2.59,2-4.14,5-4.14a11,11,0,0,1,2.35.26,3,3,0,0,0,.8.1c.18,0,.23,0,.23.15a23.18,23.18,0,0,0-.1,2.33c0,.34,0,.49-.18.49s-.18-.1-.21-.29a4,4,0,0,0-.34-1.08c-.15-.26-.9-1.09-3-1.09-1.66,0-3,.83-3,2.38,0,1.4.7,2.2,3,3.72l.65.44c2.77,1.89,3.72,3.41,3.72,5.3a4.28,4.28,0,0,1-2.12,3.75,7,7,0,0,1-3.62.77,8.36,8.36,0,0,1-3.31-.59" transform="translate(0 0.04)"/><path class="cls-1" d="M160.15,49.24c0,2.12,0,3.85.1,4.76.08.65.15,1.06.83,1.16a9.18,9.18,0,0,0,1,.1.18.18,0,0,1,.18.18c0,.1-.1.18-.36.18-1.27,0-2.74-.08-2.84-.08s-1.55.08-2.25.08c-.23,0-.36,0-.36-.18a.17.17,0,0,1,.16-.18h0a3.24,3.24,0,0,0,.7-.1c.44-.1.52-.52.59-1.16.1-.9.13-2.64.13-4.76V45.36c0-3.41,0-4,0-4.73s-.23-1.09-.72-1.19a4.12,4.12,0,0,0-.7-.08.2.2,0,0,1-.18-.12c0-.13.1-.18.36-.18.75,0,2.17,0,2.3,0s1.58,0,2.28,0c.26,0,.36,0,.36.18a.22.22,0,0,1-.18.18,2.58,2.58,0,0,0-.57,0c-.62.13-.75.44-.8,1.22s0,1.32,0,4.73Z" transform="translate(0 0.04)"/><path class="cls-1" d="M172.59,49.24c0,2.12,0,3.85.1,4.76.08.65.18,1.06.88,1.16a8.69,8.69,0,0,0,1,.1.16.16,0,0,1,.18.14.16.16,0,0,1,0,0c0,.1-.1.18-.36.18-1.24,0-2.69-.08-2.82-.08s-1.68.08-2.35.08c-.26,0-.36,0-.36-.18s0-.15.18-.15a3,3,0,0,0,.67-.1c.46-.1.59-.54.67-1.19.1-.9.1-2.64.1-4.76V40l-3.28,0c-1.42,0-2,.18-2.3.7a3.6,3.6,0,0,0-.36.7c0,.18-.13.21-.23.21a.17.17,0,0,1-.15-.18c0-.23.47-2.2.49-2.38s.15-.41.23-.41a8.07,8.07,0,0,0,1,.26c.65.08,1.53.1,1.78.1h8.58a11.46,11.46,0,0,0,1.63-.1c.34,0,.54-.1.65-.1s.1.13.1.26c0,.67-.08,2.25-.08,2.51s-.1.29-.21.29-.15-.08-.18-.39V41.3c-.08-.67-.57-1.16-2.74-1.21l-2.84,0Z" transform="translate(0 0.04)"/><path class="cls-1" d="M187.53,49.92a3.93,3.93,0,0,0-.49-2.25c-.18-.34-3.26-5.22-4-6.39a5.69,5.69,0,0,0-1.5-1.6,2.23,2.23,0,0,0-1-.31.23.23,0,0,1-.23-.21c0-.1.08-.15.29-.15l2.25,0c.11,0,1.08,0,2,0,.26,0,.31,0,.31.15s-.15.16-.36.23a.38.38,0,0,0-.28.36,1.82,1.82,0,0,0,.31.85L189,47.45c.46-.93,3.31-5.64,3.72-6.36a2.34,2.34,0,0,0,.39-1.14c0-.31-.1-.49-.36-.57s-.33-.15-.33-.26.13-.13.36-.13c.6,0,1.4,0,1.58,0s1.78,0,2.23,0c.15,0,.29,0,.29.13a.26.26,0,0,1-.29.23h0a2.33,2.33,0,0,0-1.06.29,4,4,0,0,0-1.14,1.08,66.64,66.64,0,0,0-4.42,7,4.38,4.38,0,0,0-.28,2.2v1.89c0,.36,0,1.29.08,2.2,0,.65.21,1.06.88,1.16a8.66,8.66,0,0,0,1,.1.18.18,0,0,1,.18.18c0,.1-.13.18-.36.18-1.27,0-2.74-.08-2.87-.08s-1.55.08-2.22.08c-.26,0-.36,0-.36-.18a.18.18,0,0,1,.18-.18,3,3,0,0,0,.67-.1c.46-.1.62-.52.67-1.16,0-.9,0-1.84,0-2.2Z" transform="translate(0 0.04)"/><path class="cls-1" d="M243.26,52.32c.1.93.28,2.36,1.39,2.72a5.57,5.57,0,0,0,1.67.23c.13,0,.2,0,.2.13s-.23.23-.54.23c-.57,0-3.34-.08-4.29-.15-.59,0-.72-.13-.72-.26s0-.15.18-.18.15-.46.1-.92L240,40.87h-.08l-6.29,13.37c-.54,1.13-.61,1.36-.85,1.36s-.31-.26-.8-1.18c-.67-1.26-2.87-5.7-3-6-.23-.46-3.11-6.62-3.39-7.32h-.1l-1,11.91v1.31a.82.82,0,0,0,.67.8,4.7,4.7,0,0,0,1,.13c.1,0,.21,0,.21.13s-.16.23-.46.23c-1,0-2.18-.08-2.39-.08s-1.46.08-2.16.08c-.26,0-.43,0-.43-.23s.13-.13.26-.13a3.28,3.28,0,0,0,.77-.08c.85-.15.92-1.16,1-2.13l1.85-16.74c0-.28.13-.46.28-.46s.26.1.38.39l7.86,16.15,7.5-16.14c.1-.23.21-.41.39-.41s.26.21.31.69Z" transform="translate(0 0.04)"/><path class="cls-1" d="M254.53,39.56c.28-.72.39-.85.54-.85s.31.31.54.8c.41.92,4,9.94,5.42,13.25.82,2,1.44,2.23,1.93,2.39a3.11,3.11,0,0,0,.9.13c.13,0,.28,0,.28.18s-.26.18-.51.18h-3.57c-.44,0-.8,0-.8-.15s0-.1.15-.15a.41.41,0,0,0,.23-.53l0-.06-2-5a.18.18,0,0,0-.21-.13h-5.21a.24.24,0,0,0-.23.18l-1.3,3.44a4.46,4.46,0,0,0-.33,1.46c0,.44.38.59.77.59h.21c.18,0,.23.08.23.18s-.13.18-.34.18c-.54,0-1.77-.08-2-.08s-1.36.08-2.29.08c-.28,0-.44,0-.44-.18a.2.2,0,0,1,.21-.18,6,6,0,0,0,.67,0c1-.13,1.46-.9,1.9-2Zm2.52,9.09c.1,0,.1,0,.08-.15l-2.23-6q-.19-.5-.38,0l-2.11,6c0,.1,0,.15.08.15Z" transform="translate(0 0.04)"/><path class="cls-1" d="M266.09,45.44c0-3.39,0-4,0-4.7s-.18-1.1-.92-1.21a7.47,7.47,0,0,0-.77,0,.22.22,0,0,1-.18-.18c0-.13.1-.18.36-.18,1,0,2.54,0,2.67,0s2.13,0,2.82,0a7.4,7.4,0,0,1,4.21,1,3.82,3.82,0,0,1,1.57,3c0,1.62-.67,3.18-2.77,5,1.85,2.31,3.42,4.29,4.72,5.65a4.28,4.28,0,0,0,3.31,1.59.2.2,0,0,1,.2.18c0,.13-.13.18-.54.18h-1.41a4.54,4.54,0,0,1-2.41-.44c-1-.51-1.8-1.57-3.08-3.21-1-1.18-2-2.59-2.44-3.18a.34.34,0,0,0-.31-.13l-2.87,0c-.1,0-.15,0-.15.18v.51c0,2.1,0,3.8.1,4.7.08.64.2,1,.9,1.16a8.41,8.41,0,0,0,1,.1.16.16,0,0,1,.18.14.16.16,0,0,1,0,0c0,.1-.1.18-.36.18-1.23,0-2.67-.08-2.77-.08s-1.54.08-2.23.08c-.23,0-.36,0-.36-.18a.17.17,0,0,1,.16-.18h0a3.25,3.25,0,0,0,.69-.1c.44-.1.49-.51.59-1.16a43.64,43.64,0,0,0,.13-4.72Zm2,1.85a.32.32,0,0,0,.15.28,7.66,7.66,0,0,0,2.49.33,2.94,2.94,0,0,0,1.7-.39,3.9,3.9,0,0,0,1.36-3.34c0-2.72-1.49-4.29-3.9-4.29a9.93,9.93,0,0,0-1.62.13.28.28,0,0,0-.18.26Z" transform="translate(0 0.04)"/><path class="cls-1" d="M284.94,50a3.88,3.88,0,0,0-.49-2.23c-.18-.33-3.24-5.19-4-6.34A5.67,5.67,0,0,0,279,39.8a2.24,2.24,0,0,0-1-.31.23.23,0,0,1-.23-.21c0-.1.08-.15.28-.15l2.23,0c.1,0,1.08,0,2,0,.26,0,.31,0,.31.15s-.15.15-.36.23-.28.18-.28.36a1.81,1.81,0,0,0,.31.85l4.11,6.8c.46-.92,3.29-5.6,3.7-6.32a2.33,2.33,0,0,0,.39-1.13c0-.31-.1-.49-.36-.56s-.33-.15-.33-.26.13-.13.36-.13c.59,0,1.39,0,1.57,0l2.21,0c.16,0,.28,0,.28.13a.26.26,0,0,1-.28.23,2.3,2.3,0,0,0-1,.28,3.94,3.94,0,0,0-1.13,1.08,81,81,0,0,0-4.39,6.93,4.37,4.37,0,0,0-.28,2.18v1.87c0,.36,0,1.28.08,2.18,0,.64.21,1,.87,1.15a8.71,8.71,0,0,0,1,.1.17.17,0,0,1,.18.16.17.17,0,0,1,0,0c0,.1-.13.18-.36.18-1.26,0-2.72-.08-2.85-.08s-1.54.08-2.21.08c-.26,0-.36,0-.36-.18a.17.17,0,0,1,.16-.18h0a3,3,0,0,0,.67-.1c.46-.1.62-.51.67-1.15,0-.9,0-1.82,0-2.18Z" transform="translate(0 0.04)"/><path class="cls-1" d="M299.21,49.34c0,3.21,0,4.52.46,4.9s1.23.51,3,.51c1.18,0,2.18,0,2.72-.67a2.67,2.67,0,0,0,.54-1.23.26.26,0,0,1,.23-.28c.13,0,.15.1.15.33a13.85,13.85,0,0,1-.33,2.18c-.16.51-.23.59-1.44.59-1.62,0-2.88,0-3.93-.08s-1.8,0-2.46,0h-.92c-.43,0-1,0-1.31,0s-.36,0-.36-.18a.17.17,0,0,1,.16-.18h0a3.27,3.27,0,0,0,.7-.1c.44-.1.49-.51.59-1.16a45,45,0,0,0,.13-4.72V45.44c0-3.39,0-4,0-4.7s-.18-1.1-.93-1.21a7.4,7.4,0,0,0-.77,0,.22.22,0,0,1-.18-.18c0-.13.1-.18.36-.18,1,0,2.44,0,2.57,0s1.8,0,2.49,0c.23,0,.36,0,.36.18a.19.19,0,0,1-.18.15,4.32,4.32,0,0,0-.75,0c-.67.13-.8.46-.85,1.23s0,1.31,0,4.7Z" transform="translate(0 0.04)"/><path class="cls-1" d="M315.08,39.56c.28-.72.39-.85.54-.85s.31.31.54.8c.41.92,4,9.94,5.42,13.25.82,2,1.44,2.23,1.93,2.39a3.13,3.13,0,0,0,.9.13c.13,0,.28,0,.28.18s-.26.18-.51.18h-3.57c-.44,0-.8,0-.8-.15s0-.1.15-.15a.41.41,0,0,0,.24-.53l0-.06-2-5c0-.1-.08-.13-.2-.13h-5.21a.24.24,0,0,0-.23.18l-1.32,3.44a4.49,4.49,0,0,0-.33,1.46c0,.44.39.59.77.59h.2c.18,0,.23.08.23.18s-.13.18-.33.18c-.54,0-1.77-.08-2-.08s-1.36.08-2.29.08c-.28,0-.44,0-.44-.18a.2.2,0,0,1,.21-.18,6,6,0,0,0,.67,0c1-.13,1.46-.9,1.9-2Zm2.52,9.09c.1,0,.1,0,.08-.15l-2.23-6q-.2-.49-.39,0l-2.1,6c0,.1,0,.15.08.15Z" transform="translate(0 0.04)"/><path class="cls-1" d="M328.62,52.66c0,1.8.26,2.34.87,2.49a5.33,5.33,0,0,0,1.13.13.18.18,0,0,1,.18.18c0,.13-.15.18-.41.18-1.28,0-2.18-.08-2.39-.08s-1.15.08-2.18.08c-.23,0-.36,0-.36-.18a.18.18,0,0,1,.18-.18,3.54,3.54,0,0,0,.92-.13c.57-.15.64-.74.64-2.72V39.93c0-.87.13-1.1.31-1.1s.64.44.87.67S332,43.35,335.52,47c2.23,2.31,4.65,4.9,5.34,5.62l-.23-10.94c0-1.41-.15-1.9-.85-2a7.23,7.23,0,0,0-1.1-.1.18.18,0,0,1-.18-.18v0c0-.13.18-.15.44-.15,1,0,2.11,0,2.36,0s1,0,1.92,0c.23,0,.41,0,.41.15a.26.26,0,0,1-.26.2,2.58,2.58,0,0,0-.54,0c-.74.15-.8.59-.8,1.9l0,12.76c0,1.44,0,1.57-.18,1.57s-.46-.18-1.72-1.34c-.23-.21-3.49-3.42-5.88-5.9-2.62-2.75-5.16-5.42-5.85-6.19Z" transform="translate(0 0.04)"/><path class="cls-1" d="M346.49,45.44c0-3.39,0-4,0-4.7s-.18-1.1-.93-1.21a7.15,7.15,0,0,0-.77,0,.22.22,0,0,1-.18-.18c0-.13.1-.18.36-.18,1,0,2.49,0,2.62,0s1.69,0,3,0c2.26,0,6.39-.21,9.06,2.49a7.68,7.68,0,0,1,2.21,5.55,8.73,8.73,0,0,1-2.44,6.14,9.12,9.12,0,0,1-6.86,2.52c-1,0-2.18-.08-3.16-.13l-1.85-.13h-2.29c-.36,0-.36,0-.36-.18a.17.17,0,0,1,.16-.18h0a3.27,3.27,0,0,0,.69-.1c.43-.1.49-.51.59-1.15a44.34,44.34,0,0,0,.13-4.72Zm2,2.36v4.75a4.16,4.16,0,0,0,.26,1.57c.28.41,1.08.87,3.75.87a7.58,7.58,0,0,0,5.29-2,7.36,7.36,0,0,0,1.77-5.19,7.56,7.56,0,0,0-2.13-5.47c-2.13-2.16-4.62-2.44-7.32-2.44a6,6,0,0,0-1.36.15.38.38,0,0,0-.28.44Z" transform="translate(0 0.04)"/><path class="cls-1" d="M208,47.51a6.11,6.11,0,0,1-.78,2.93,5.93,5.93,0,0,1-2.18,2.3,5.25,5.25,0,0,1-2.72.85,2.93,2.93,0,0,1-3-3.09,5.81,5.81,0,0,1,.83-2.91,6.3,6.3,0,0,1,2.23-2.31,5.2,5.2,0,0,1,2.7-.85,2.88,2.88,0,0,1,2.14.86,3,3,0,0,1,.84,2.23m-1.64-.68a2,2,0,0,0-.45-1.4,1.5,1.5,0,0,0-1.16-.49q-1.45,0-2.67,2.07a8.1,8.1,0,0,0-1.22,4.13,2,2,0,0,0,.48,1.44,1.56,1.56,0,0,0,1.19.51q1.39,0,2.61-2.07a8.17,8.17,0,0,0,1.22-4.2" transform="translate(0 0.04)"/><path class="cls-1" d="M214.31,44.66l-.18.65h-1.44l-1.08,4.31A25.58,25.58,0,0,1,210.16,54a7.59,7.59,0,0,1-2.23,3,3.14,3.14,0,0,1-1.81.64,1.49,1.49,0,0,1-1-.35.78.78,0,0,1-.31-.64.72.72,0,0,1,.25-.55.88.88,0,0,1,.62-.23.63.63,0,0,1,.45.17.51.51,0,0,1,.18.39.54.54,0,0,1-.21.4c-.11.09-.16.16-.16.21a.16.16,0,0,0,.07.14.45.45,0,0,0,.28.07,1.81,1.81,0,0,0,.89-.27,2.6,2.6,0,0,0,.83-.79,6.13,6.13,0,0,0,.69-1.52q.14-.42.74-2.73l1.71-6.68H209.4l.14-.65a3.91,3.91,0,0,0,1.14-.11,1.38,1.38,0,0,0,.6-.43,6.68,6.68,0,0,0,.71-1.2,9.78,9.78,0,0,1,1.11-1.83,5.37,5.37,0,0,1,1.53-1.32,3.19,3.19,0,0,1,1.51-.44,1.82,1.82,0,0,1,1.2.38,1.07,1.07,0,0,1,.45.82.81.81,0,0,1-.23.58.77.77,0,0,1-.58.24.7.7,0,0,1-.5-.18.56.56,0,0,1-.19-.42.84.84,0,0,1,.13-.39.89.89,0,0,0,.13-.31.24.24,0,0,0-.09-.21.61.61,0,0,0-.37-.1,1.73,1.73,0,0,0-1.11.39,4.46,4.46,0,0,0-1.18,1.64q-.27.58-1,2.89Z" transform="translate(0 0.04)"/><path class="cls-2" d="M0,0V5.9A91.7,91.7,0,0,1,37.86,19.84V19C26.33,10.12,13.5,3.44,0,0" transform="translate(0 0.04)"/><path class="cls-3" d="M9.4,23.24s3.31-1.75,9.45-1.75a27.7,27.7,0,0,1,11.66,2.44,29.93,29.93,0,0,1,7.36,4.72V24.17A91.75,91.75,0,0,0,0,10.24V28.6a31,31,0,0,1,9.4-5.36" transform="translate(0 0.04)"/><polygon class="cls-3" points="18.97 25.94 3.03 33.25 35.09 33.25 18.97 25.94"/><path class="cls-4" d="M0,76.07a106.22,106.22,0,0,0,37.86,19V89.16A91.74,91.74,0,0,1,0,75.24Z" transform="translate(0 0.04)"/><path class="cls-3" d="M5.15,73.37V40.1s1.19-4.28,5.47-3.79v40a27,27,0,0,1-5.47-3" transform="translate(0 0.04)"/><path class="cls-3" d="M16.09,78.57V40.1s1.19-4.28,5.47-3.79V80.68a34.14,34.14,0,0,1-5.47-2.11" transform="translate(0 0.04)"/><path class="cls-3" d="M26.93,82.24V40.14s1.19-4.28,5.47-3.79V83.44a37.81,37.81,0,0,1-5.47-1.24" transform="translate(0 0.04)"/></svg>