<?xml version="1.0" encoding="utf-8"?>
<!-- Generator: Adobe Illustrator 22.0.1, SVG Export Plug-In . SVG Version: 6.00 Build 0)  -->
<svg version="1.1" id="Layer_1" xmlns="http://www.w3.org/2000/svg" xmlns:xlink="http://www.w3.org/1999/xlink" x="0px" y="0px"
	 viewBox="0 0 327.5 465.2" style="enable-background:new 0 0 327.5 465.2;" xml:space="preserve">
<style type="text/css">
	.st0{fill:#FFFFFF;}
	.st1{fill:#987C4D;}
</style>
<rect x="11.6" y="14.2" class="st0" width="302.6" height="436.2"/>
<g>
	<g>
		<polygon points="309.5,377.2 22.1,377.2 22.1,373.1 309.5,373.1 309.5,377.2 		"/>
	</g>
	<g>
		<polygon points="308.2,202.4 20.8,202.4 20.8,198.4 308.2,198.4 308.2,202.4 		"/>
	</g>
	<g>
		<polygon points="308.5,38.5 21.1,38.5 21.1,34.4 308.5,34.4 308.5,38.5 		"/>
	</g>
	<g>
		<path d="M323,459.8H4.6V5.1H323V459.8L323,459.8z M22.8,441.6h282V23.3h-282V441.6L22.8,441.6z"/>
	</g>
	<g>
		<polygon points="292.5,390.7 33.8,390.7 33.8,386.6 292.5,386.6 292.5,390.7 		"/>
	</g>
</g>
<g>
	<path class="st1" d="M262.1,293.5c-0.5-0.1-0.9-0.1-1.3-0.2c0,0-4.5-0.5-6,1.1c0.1,0.8-0.7,1.5-1.3,2c-0.5,0.4-0.9,0.8-0.9,1.2
		c0,0.3,0.2,0.5,0.5,0.9l0.2,0.1l-0.1,0.2c-1.2,2.1-7.3,12.1-8.9,13c-1.2,2.6-22.5,34-24.7,36.4c-1.2,0.7-3.5,2.8-5.3,4.5
		c-1.9,1.7-2.6,2.4-2.9,2.5l-0.2,0.1c-1.2,0.7-9.6,6.2-12.9,8.4l-0.1,0l-0.2,0c-0.6,0-2.4,0.5-4.5,1.2c-4.2,1.3-10.2,3.1-13.8,2.7
		c-1.2,0.6-4.8,0.8-7.2,1c-1,0.1-1.7,0.1-2.1,0.2c-0.3,0.1-1.2,0.2-2.2,0.2c-1.3,0-3.5-0.1-4.2-1c-0.4,0-1.8,0.1-3.2,0.1
		c-2.3,0-3.8-0.2-4.6-0.7c-0.4,0.1-0.8,0.2-1.4,0.2c-4.2,0-11.8-3.7-12.9-4.3c-1.9-0.6-6.9-13.8-7.4-19.5c-0.5-0.3-0.5-1.1-0.5-1.7
		c0-0.6,0-1.2-0.3-1.5l-0.3-124.2c0.1-0.7,0.1-1.3,0-2.1c-0.1-1.9-0.3-4,2.4-4.4c14-0.4,29.1-0.4,42.8,0c3,0.6,5.3,2.4,7.8,4.4
		c1.2,0.9,2.4,1.9,3.7,2.7c0.3,0.5,0.7,1,1.1,1.7c1.5,2.5,4.1,6.7,5.7,7.4l0.2,0.1c2.6,6.9,6.4,24.1,6.5,24.3
		c1.3,3.3,1.6,7.3,1.8,11.2c0.1,1.5,0.2,3,0.4,4.4c0.7,0.1,1.4,0.1,2.1,0.2c2.4,0.3,5,0.5,6.8,0l0.2-49.2l-0.2-80.5l-10.2-0.2
		l-0.5,10.5c-0.3,6-0.7,12.3-3,18.1c0,3.1-10.2,20.2-11.4,21.2c-1.6,2.5-4.4,3.8-7.3,5.2c-1.7,0.8-3.5,1.7-5.1,2.9
		c-1.4,0.1-2.7,0.4-3.9,0.8c-1.1,0.3-2.1,0.6-2.9,0.6c-12.9,0-24.1,0-36.6-0.2l-0.2,0v-0.2l-0.2-122l0.1-0.4
		c2.2-9.1,5.1-21.5,16.5-24.4c0.8-0.2,13.5-0.6,23.9-0.6c4.2,0,7.6,0.1,10.1,0.2c0.4,0.1,7.6,2.5,9.3,3.9
		c10.3,5.4,20.9,11.6,28,20.9c1.8,1.2,23.4,30.5,26.5,36.7c1.8,1.5,5.3,1.9,10.2,0.7c-0.3-1.1-0.9-4.2-1.8-8.8
		c-3.5-17-14.2-68.6-17.1-68.7H62.5v13.3c1.9,0.4,16.5,3.1,23.1,5c5.7,3.4,7.1,9.5,8.4,15.4c0.2,1,0.4,1.9,0.7,2.8l0.2,280.3
		l-0.1,0.1c-0.9,0.7-1.2,1.8-1.5,2.9c-0.2,0.6-0.4,1.3-0.7,1.9c-0.7,0.9-1.2,1.9-1.7,2.9c-0.8,1.6-1.5,3.2-3.1,4.2
		c0.1,1.5-0.9,1.7-1.7,1.8c-0.9,0.1-1.6,0.3-1.7,1.5l0,0.2l-0.2,0c-2.5,0.2-5,0.6-7.7,1.2c-4.1,0.8-8.3,1.6-12.9,1.3l-0.7,0.7
		l-0.3,12.9h185.3c0.8-5.6,17.6-84.8,17.8-85.4C265.6,293.9,263.8,293.7,262.1,293.5z M197,189.4l4.7-7.5c0,0.2,0.2,0.2,0.4,0.2
		c0,9.3-0.8,17.6,0,27.7c-0.2,3.2,0,7.3-0.2,9.9c-1-1.2-1.2-3.2-3.2-3.6c0-2.6-2.6-2.8-3.6-5.5c-3.6,0-3.6-4.9-6.9-5.3
		c-1.2-1.8-2-4.5-2.2-6.9C189.5,196.1,193,191.3,197,189.4z M205.1,46.6c4.9,0.6,10.3-0.2,15.2,0.2c2-1,4.3,0.6,6.3,0.6
		c0.4,3.4,2.8,6.3,2.6,9.9c2.8,6.3,4.7,13.4,6.3,20.2c0,0.6-0.8,0.2-1.2,0.2l0.2-0.2c-2.2-1.8-3.2-4-5.3-5.3c-1-1.8-2.2-3.2-4-4.9
		c0.6-1-1.2-1.4-1.6-2c-0.8-1.6-2-3-3.6-3.8c-1.8,0-1-2.6-2.8-2.4c-3-2.6-5.5-4.5-8.7-6.5c-0.2-0.6-1-0.8-1.4-1l-0.2,0.2
		c-0.6-0.4-0.2-0.6,0-1c-0.4-1-2.6-0.6-2-2.4h-0.8C203.7,47,203.7,47,205.1,46.6z M109,77.9l-0.2,271.2c-1.2,5.7-3.4,12.3-7.7,16.8
		c-1.4-0.2-1,1.6-2.4,1c-0.8,2.2-3.2,1.4-4.9,2c-0.8-0.2-1.4-1-1.4-1.8c2.6-2.4,2.4-6.3,5.3-8.9c2.6-7.1,3.2-15.6,2.8-23.1l0.2-267
		c0-0.2-0.4-0.2-0.6-0.2c-0.4-4.9-3-9.3-4.7-13.4c-1.6-0.4-0.6-2.2-2.2-2c-0.2-0.4-0.8-1.6-0.4-2.4c1.4-1.4,4-0.8,5.1,0.8
		c2.8,0.6,5.9,1.4,7.3,4.2c2,3,3,6.5,3.8,9.7C109,68.8,109,73.7,109,77.9z M241.8,336c-1.8,0.2-1.4,2.4-1.8,3.8
		c-1,4.5-2.6,9.7-3,13.8l-0.6,0.8l0.2,0.2c-1.8,4.9-2.8,9.5-3.8,14.4c-7.3-0.6-16,2.8-21.9-1.8c-0.4-2.8,3.2-4.5,4.5-7.3
		c1-1,3-1,3-2.6c9.5-6.9,17-17.2,22.9-26.5h0.6C241.8,332.5,240.4,334.6,241.8,336z"/>
	<path class="st1" d="M262.1,293c-0.5,0-0.9-0.1-1.3-0.2c0,0-4.8-0.7-6.6,1.5c0,0.8-0.6,1.3-1.2,1.8c-0.5,0.5-1.1,1-1,1.6
		c0,0.4,0.2,0.7,0.5,1.1c-2.9,4.8-7.7,12.4-8.7,12.7l-0.1,0l0,0.1c-0.5,1.6-22.4,33.9-24.6,36.3c-1.2,0.7-3.5,2.8-5.3,4.5
		c-1.2,1.1-2.5,2.3-2.7,2.3v0c-1.1,0.5-12.7,8.2-13.2,8.5c-0.7,0-2.4,0.5-4.7,1.2c-3.8,1.1-9,2.7-12.5,2.7c-0.4,0-0.7,0-1.2,0
		c-1.3,0.6-4.8,0.8-7.1,1c-1,0.1-1.8,0.1-2.1,0.2c-0.3,0.1-1.1,0.1-2.1,0.1c-2.1,0-3.6-0.3-3.9-0.8l-0.1-0.1l-0.2,0
		c0,0-1.6,0.2-3.3,0.2c-2.9,0-4-0.4-4.4-0.7l-0.1-0.1l-0.1,0c-0.4,0.1-0.8,0.2-1.3,0.2c-4,0-11.6-3.6-12.7-4.2
		c-1.7-0.6-6.7-13.5-7.1-19.2l0-0.2l-0.1-0.1c-0.3-0.1-0.3-0.6-0.3-1.3c0-0.7,0.1-1.4-0.3-1.7l-0.2-124c0.1-0.7,0.1-1.4,0-2.2
		c-0.1-1.9-0.2-3.5,2-3.9c13.9-0.4,29-0.4,42.7,0c2.8,0.5,5.1,2.4,7.5,4.3c1.2,0.9,2.4,1.9,3.6,2.7c0.2,0.4,0.6,1,1,1.6
		c1.6,2.7,4,6.7,5.9,7.5c2.6,6.9,6.4,24,6.4,24.2c1.3,3.3,1.6,7.2,1.8,11.1c0.1,1.6,0.2,3.1,0.4,4.7l0,0.2l0.2,0
		c0.7,0,1.5,0.1,2.3,0.2c2.5,0.3,5.3,0.5,7.1,0l0.2-0.1l0.2-49.6l-0.2-80.8v-0.2l-11.2-0.2l-0.4,9.4l-0.1,1.6
		c-0.3,6-0.7,12.2-2.9,18c0,3-10.1,19.9-11.3,20.9c-1.6,2.4-4.3,3.7-7.1,5.1c-1.8,0.9-3.6,1.7-5,2.9c-1.3,0-2.7,0.4-3.9,0.8
		c-1,0.3-2,0.6-2.8,0.6c-12.8,0-23.9,0-36.4-0.2l-0.2-121.7l0.1-0.3c2.3-9.5,5.1-21.2,16.1-24c0.7-0.1,13.1-0.6,23.8-0.6
		c4.2,0,7.6,0.1,10.1,0.2c0.1,0,7.5,2.4,9.1,3.8c10.3,5.4,20.9,11.6,27.9,20.8c1.9,1.2,23.3,30.4,26.5,36.6
		c2.1,1.8,5.7,2.1,10.9,0.9l0.3-0.1l-0.1-0.3c-0.2-0.7-0.9-4-1.9-9c-7.4-35.8-14.7-69-17.6-69.1H62v14.2l0.2,0
		c0.2,0,16.3,3.1,23.2,5c5.5,3.2,6.8,9.2,8.1,15c0.2,1,0.4,1.9,0.7,2.8l0.2,280c-0.9,0.8-1.2,2-1.6,3.1c-0.2,0.6-0.4,1.2-0.6,1.8
		c-0.7,0.9-1.2,1.9-1.7,2.9c-0.8,1.6-1.5,3.1-3.1,4.1l-0.1,0.1l0,0.2c0.2,1.2-0.4,1.3-1.3,1.4c-0.9,0.1-1.9,0.3-2.1,1.7
		c-2.5,0.2-4.9,0.7-7.6,1.2c-4.1,0.8-8.3,1.6-12.8,1.3l-0.1,0l-1,1.1L62,381.8h186.3l0-0.2c0.2-2.8,17.6-84.9,17.8-85.6
		C266.1,293.4,263.9,293.2,262.1,293z M248,381.5H62.2l0.4-13.4l0.8-0.8c7.5,0.6,14.2-2,20.6-2.4c0.2-2.8,3.8-0.6,3.4-3.4
		c2.6-1.6,3-4.9,4.9-7.1c0.8-1.6,0.8-3.6,2.2-4.9L94.4,69.4c-1.6-6.5-2.4-14.2-8.9-18c-7.1-2-23.3-5.1-23.3-5.1V32.6
		c0,0,155.8,0,176.7,0c3.8,0.2,18.2,74.1,19.2,77.9c-3.4,0.8-8.1,1.4-10.7-0.8c-3.2-6.3-24.7-35.4-26.5-36.6
		c-7.1-9.3-17.8-15.6-27.9-20.8c-1.6-1.4-9.1-3.8-9.1-3.8c-10.3-0.6-33,0.2-34,0.4c-11.3,2.8-14.2,15.2-16.4,24.5l0.2,122
		c12.5,0.2,23.9,0.2,36.6,0.2c1.8,0,4.3-1.4,6.7-1.4c4-3,9.7-4,12.3-8.1c1.2-1,11.3-18,11.3-21c2.4-6.3,2.6-13,3-19.6l0.4-9.1
		l10.7,0.2l0.2,80.8l-0.2,49.4c-2.8,0.8-6.5,0-9.3-0.2c-0.6-5.3-0.4-11.1-2.2-15.8c-0.4-1.8-4-17.8-6.5-24.3
		c-2.2-0.8-5.7-7.3-6.9-9.1c-4-2.6-7.1-6.3-11.3-7.1c-13.8-0.4-28.7-0.4-42.7,0c-3.4,0.6-1.8,4-2.2,6.3l0.2,124.1
		c0.8,0.8-0.2,2.8,0.8,3.2c0.4,5.7,5.5,18.8,7.3,19.4c1,0.6,10.7,5.3,14.2,4c1.6,1.2,7.9,0.6,7.9,0.6c0.8,1.2,5.5,1,6.3,0.8
		c1.2-0.2,7.5-0.4,9.3-1.2c5.5,0.6,16.8-4,18.4-3.8c3-2,13.2-8.7,13.2-8.5c0.6-0.2,6.1-5.7,8.1-6.9c2-2.2,24.1-34.6,24.7-36.4
		c1.4-0.4,8.9-13,8.9-13c-2-1.8,1.6-2.4,1.6-4.5c1.6-1.8,6.3-1.2,6.3-1.2c1.8,0.4,5.1,0,5.1,2.8C265.4,297.5,248.2,378.9,248,381.5z
		"/>
</g>
<g>
	<path class="st0" d="M149.1,367.1h1.4H149.1z"/>
</g>
<g>
	<path d="M49.7,405.1H39.4v6.8h9.7v4.8h-9.7v7.8h10.7v4.8H33.5v-28.9h16.2V405.1z"/>
	<path d="M58.6,400.4v28.9H53v-28.9H58.6z"/>
	<path d="M68.3,400.4v28.9h-5.6v-28.9H68.3z"/>
	<path d="M78.1,400v4.8h-5.6V400H78.1z M78.1,407.5v21.8h-5.6v-21.8H78.1z"/>
	<path d="M86.1,422.9c0,0.9,0.2,1.7,0.7,2.3c0.5,0.6,1.2,0.9,2.2,0.9c0.9,0,1.6-0.2,2.1-0.6c0.5-0.4,0.8-1.1,0.8-1.9
		c0-0.7-0.2-1.2-0.6-1.6c-0.4-0.4-0.9-0.7-1.4-0.9l-3.9-1.4c-1.5-0.5-2.7-1.3-3.5-2.3c-0.8-1-1.2-2.2-1.2-3.8c0-0.9,0.1-1.7,0.4-2.5
		c0.3-0.8,0.8-1.5,1.4-2.1c0.6-0.6,1.5-1.1,2.5-1.4c1-0.3,2.2-0.5,3.7-0.5c2.5,0,4.4,0.5,5.6,1.6c1.2,1.1,1.8,2.6,1.8,4.6v0.9h-5
		c0-1.1-0.2-2-0.5-2.5c-0.4-0.5-1-0.8-1.9-0.8c-0.7,0-1.3,0.2-1.8,0.6c-0.5,0.4-0.8,1-0.8,1.8c0,0.5,0.2,1,0.5,1.5
		c0.3,0.4,1,0.8,1.9,1.1l3.4,1.1c1.8,0.6,3,1.4,3.7,2.3c0.7,1,1.1,2.3,1.1,3.9c0,1.2-0.2,2.2-0.6,3c-0.4,0.8-1,1.6-1.7,2.1
		c-0.7,0.6-1.6,1-2.6,1.2c-1,0.2-2.1,0.4-3.3,0.4c-1.6,0-2.9-0.1-3.9-0.4c-1-0.3-1.9-0.7-2.5-1.3c-0.6-0.6-1-1.3-1.3-2.2
		c-0.2-0.8-0.4-1.8-0.4-2.9v-0.8h5V422.9z"/>
	<path d="M120,400.4c1.5,0,2.7,0.3,3.7,0.7c1,0.5,1.8,1.2,2.4,2c0.6,0.8,1.1,1.7,1.3,2.8c0.3,1,0.4,2.1,0.4,3.2
		c0,1.5-0.2,2.8-0.7,3.9c-0.4,1.1-1.1,2-1.9,2.7c-0.8,0.7-1.8,1.2-2.9,1.6c-1.1,0.4-2.4,0.5-3.8,0.5h-3.1v11.5h-5.8v-28.9H120z
		 M118.3,413.4c1.2,0,2.1-0.3,2.8-1.1c0.7-0.7,1.1-1.8,1.1-3.3c0-1.5-0.3-2.6-0.9-3.3c-0.6-0.8-1.7-1.1-3.1-1.1h-2.4v8.8H118.3z"/>
	<path d="M129.9,413.6c0-1.3,0.2-2.3,0.6-3.2c0.4-0.8,1-1.5,1.6-2.1c0.7-0.5,1.5-0.9,2.4-1.1c0.9-0.2,1.9-0.3,3-0.3
		c1.7,0,3,0.2,4,0.5c1,0.3,1.8,0.8,2.4,1.4c0.6,0.6,1,1.3,1.2,2.1c0.2,0.8,0.3,1.7,0.3,2.7v11.5c0,1,0,1.8,0.1,2.4
		c0.1,0.6,0.3,1.2,0.5,1.8h-5.3c-0.2-0.3-0.3-0.7-0.4-1.1c-0.1-0.4-0.2-0.8-0.3-1.2H140c-0.6,1.1-1.4,1.9-2.2,2.2
		c-0.8,0.3-1.9,0.5-3.3,0.5c-1,0-1.8-0.2-2.5-0.5c-0.7-0.3-1.2-0.8-1.6-1.4c-0.4-0.6-0.7-1.3-0.9-2c-0.2-0.7-0.3-1.5-0.3-2.2
		c0-1,0.1-1.9,0.3-2.7c0.2-0.7,0.5-1.4,1-1.9c0.4-0.5,1-1,1.7-1.3c0.7-0.3,1.5-0.7,2.5-0.9l3.2-0.8c0.8-0.2,1.4-0.5,1.7-0.9
		c0.3-0.4,0.5-0.9,0.5-1.7c0-0.8-0.2-1.5-0.6-2c-0.4-0.5-1.1-0.7-2-0.7c-0.9,0-1.5,0.3-1.9,0.8c-0.4,0.5-0.6,1.2-0.6,2.1v0.6h-5
		V413.6z M138.9,419.1c-0.4,0.2-0.8,0.3-1.2,0.4c-1.1,0.2-1.9,0.6-2.4,1.2c-0.5,0.6-0.7,1.3-0.7,2.3c0,0.8,0.2,1.6,0.5,2.1
		c0.3,0.6,0.9,0.9,1.6,0.9c0.4,0,0.8-0.1,1.2-0.2c0.4-0.1,0.8-0.3,1.1-0.6c0.3-0.3,0.6-0.6,0.8-1.1c0.2-0.4,0.3-0.9,0.3-1.5v-4.3
		C139.7,418.7,139.3,418.9,138.9,419.1z"/>
	<path d="M155.2,400v4.8h-5.6V400H155.2z M155.2,407.5v21.8h-5.6v-21.8H155.2z"/>
	<path d="M164.5,407.5v2.5h0.1c0.6-1.1,1.4-1.9,2.3-2.4c0.9-0.5,2-0.7,3.2-0.7c1.8,0,3.2,0.5,4.1,1.5c1,1,1.4,2.6,1.4,4.7v16.2h-5.6
		v-15c0-1.1-0.2-1.9-0.6-2.4c-0.4-0.4-1-0.7-1.8-0.7c-2,0-3,1.2-3,3.6v14.5h-5.6v-21.8H164.5z"/>
	<path d="M200.9,405.5c-0.5-1-1.4-1.4-2.7-1.4c-0.7,0-1.3,0.2-1.8,0.6c-0.5,0.4-0.8,1-1.1,1.9c-0.3,0.9-0.5,2-0.6,3.4
		c-0.1,1.4-0.2,3.2-0.2,5.2c0,2.2,0.1,4,0.2,5.3c0.1,1.3,0.4,2.4,0.7,3.1c0.3,0.7,0.7,1.2,1.2,1.5c0.5,0.3,1,0.4,1.6,0.4
		c0.5,0,1-0.1,1.4-0.3c0.4-0.2,0.8-0.5,1.2-1.1c0.3-0.5,0.6-1.3,0.8-2.2c0.2-1,0.3-2.2,0.3-3.8h5.8c0,1.6-0.1,3-0.4,4.5
		c-0.2,1.4-0.7,2.6-1.4,3.7c-0.7,1.1-1.6,1.9-2.8,2.5c-1.2,0.6-2.8,0.9-4.7,0.9c-2.2,0-3.9-0.3-5.2-1.1c-1.3-0.7-2.3-1.7-3-3
		c-0.7-1.3-1.1-2.9-1.3-4.7c-0.2-1.8-0.3-3.9-0.3-6.1c0-2.2,0.1-4.2,0.3-6.1c0.2-1.8,0.6-3.4,1.3-4.8c0.7-1.3,1.7-2.4,3-3.1
		c1.3-0.7,3-1.1,5.2-1.1c2.1,0,3.7,0.3,4.9,1c1.2,0.7,2.1,1.5,2.7,2.6c0.6,1,1,2.2,1.1,3.4c0.1,1.2,0.2,2.3,0.2,3.4h-5.8
		C201.6,408,201.4,406.5,200.9,405.5z"/>
	<path d="M215.6,421c0,0.6,0,1.3,0.1,1.9c0.1,0.6,0.2,1.1,0.5,1.6c0.2,0.5,0.5,0.9,0.8,1.1c0.3,0.3,0.8,0.4,1.3,0.4
		c0.9,0,1.6-0.3,2.1-1c0.4-0.7,0.7-1.7,0.9-3.1h5c-0.1,2.5-0.8,4.5-2,5.8c-1.2,1.3-3.2,2-5.9,2c-2,0-3.6-0.3-4.7-1
		c-1.1-0.7-2-1.6-2.5-2.7c-0.5-1.1-0.9-2.3-1-3.7c-0.1-1.4-0.2-2.8-0.2-4.1c0-1.5,0.1-2.9,0.3-4.2c0.2-1.3,0.6-2.6,1.2-3.6
		c0.6-1.1,1.5-1.9,2.6-2.5c1.1-0.6,2.6-0.9,4.5-0.9c1.6,0,2.9,0.3,4,0.8c1,0.5,1.9,1.3,2.5,2.2c0.6,1,1,2.1,1.2,3.5
		c0.2,1.4,0.3,2.9,0.3,4.6v1.3h-11.1V421z M221.2,413.7c-0.1-0.6-0.2-1.2-0.4-1.6c-0.2-0.4-0.5-0.8-0.8-1c-0.4-0.2-0.8-0.3-1.4-0.3
		s-1,0.1-1.4,0.4c-0.4,0.3-0.7,0.6-0.9,1c-0.2,0.4-0.4,0.9-0.5,1.4c-0.1,0.5-0.1,1-0.1,1.5v0.8h5.7
		C221.3,415.1,221.2,414.3,221.2,413.7z"/>
	<path d="M234.9,407.5v2.5h0.1c0.6-1.1,1.4-1.9,2.3-2.4c0.9-0.5,2-0.7,3.2-0.7c1.8,0,3.2,0.5,4.1,1.5c1,1,1.4,2.6,1.4,4.7v16.2h-5.6
		v-15c0-1.1-0.2-1.9-0.6-2.4c-0.4-0.4-1-0.7-1.8-0.7c-2,0-3,1.2-3,3.6v14.5h-5.6v-21.8H234.9z"/>
	<path d="M256.6,401.3v6.2h3.2v3.8h-3.2v11.8c0,0.9,0.1,1.5,0.4,1.8c0.3,0.4,0.8,0.5,1.6,0.5c0.2,0,0.4,0,0.6,0c0.2,0,0.4,0,0.6-0.1
		v3.9c-0.6,0-1.2,0-1.8,0.1c-0.6,0-1.2,0.1-1.8,0.1c-1.1,0-2-0.1-2.7-0.2c-0.7-0.1-1.2-0.4-1.6-0.9c-0.4-0.4-0.6-1-0.7-1.8
		c-0.1-0.7-0.2-1.6-0.2-2.8v-12.5h-2.8v-3.8h2.8v-6.2H256.6z"/>
	<path d="M266.6,421c0,0.6,0,1.3,0.1,1.9c0.1,0.6,0.2,1.1,0.5,1.6c0.2,0.5,0.5,0.9,0.8,1.1c0.3,0.3,0.8,0.4,1.3,0.4
		c0.9,0,1.6-0.3,2.1-1c0.4-0.7,0.7-1.7,0.9-3.1h5c-0.1,2.5-0.8,4.5-2,5.8s-3.2,2-5.9,2c-2,0-3.6-0.3-4.7-1c-1.1-0.7-2-1.6-2.5-2.7
		c-0.5-1.1-0.9-2.3-1-3.7c-0.1-1.4-0.2-2.8-0.2-4.1c0-1.5,0.1-2.9,0.3-4.2c0.2-1.3,0.6-2.6,1.2-3.6c0.6-1.1,1.5-1.9,2.6-2.5
		c1.1-0.6,2.6-0.9,4.5-0.9c1.6,0,2.9,0.3,4,0.8c1,0.5,1.9,1.3,2.5,2.2c0.6,1,1,2.1,1.2,3.5c0.2,1.4,0.3,2.9,0.3,4.6v1.3h-11.1V421z
		 M272.1,413.7c-0.1-0.6-0.2-1.2-0.4-1.6c-0.2-0.4-0.5-0.8-0.8-1c-0.4-0.2-0.8-0.3-1.4-0.3c-0.6,0-1,0.1-1.4,0.4
		c-0.4,0.3-0.7,0.6-0.9,1c-0.2,0.4-0.4,0.9-0.5,1.4c-0.1,0.5-0.1,1-0.1,1.5v0.8h5.7C272.3,415.1,272.2,414.3,272.1,413.7z"/>
	<path d="M285.9,407.5v2.9h0.1c0.6-1.1,1.3-1.9,2.1-2.5c0.8-0.6,1.8-1,3-1c0.2,0,0.3,0,0.5,0c0.2,0,0.3,0,0.5,0.1v5.3
		c-0.3,0-0.6,0-0.9-0.1c-0.3,0-0.6,0-0.9,0c-0.5,0-1,0.1-1.5,0.2c-0.5,0.1-0.9,0.4-1.3,0.7c-0.4,0.3-0.7,0.7-1,1.2
		c-0.2,0.5-0.4,1.1-0.4,1.8v13.1h-5.6v-21.8H285.9z"/>
</g>
</svg>
