<?xml version="1.0" encoding="UTF-8"?>
<svg width="296px" height="88px" viewBox="0 0 296 88" version="1.1" xmlns="http://www.w3.org/2000/svg" xmlns:xlink="http://www.w3.org/1999/xlink">
    <!-- Generator: Sketch 51.2 (57519) - http://www.bohemiancoding.com/sketch -->
    <title>Vitadox Logo</title>
    <desc>Vitadox Trademark</desc>
    <defs>
        <polygon id="path-1" points="0.1354 0.5287 43.157 0.5287 43.157 39.7857 0.1354 39.7857"></polygon>
        <polygon id="path-3" points="0.761559963 0.8331 34.7065833 0.8331 34.7065833 14 0.761559963 14"></polygon>
        <polygon id="path-5" points="0.0005 0.116 47.4685 0.116 47.4685 24.9709 0.0005 24.9709"></polygon>
    </defs>
    <g id="Symbols" stroke="none" stroke-width="1" fill="none" fill-rule="evenodd">
        <g id="brand/logo-color" transform="translate(0.000000, -1.000000)">
            <g id="logo">
                <path d="M127.1578,54.1498 C125.5438,52.7668 122.2408,51.3088 119.0128,51.3088 C115.1728,51.3088 111.7158,53.2298 111.7158,56.6858 C111.7158,60.7578 114.7878,63.3698 119.7048,63.3698 C122.7788,63.3698 125.3908,62.7538 127.1578,61.7558 L127.1578,54.1498 Z M136.7608,65.9818 C133.7638,68.3618 128.0028,70.8208 118.9358,70.8208 C106.8748,70.8208 101.3448,64.1388 101.3448,56.5328 C101.3448,47.5438 109.9498,44.1628 117.3238,44.1628 C120.0118,44.1628 124.9288,45.0858 127.1578,46.7748 L127.1578,42.7798 C127.1578,39.5548 124.7748,37.3258 119.3978,37.3258 C114.3278,37.3258 110.0248,38.9398 108.4888,39.6308 L105.5698,32.5618 C109.1018,30.8728 113.9438,29.2588 120.2428,29.2588 C133.3038,29.2588 136.7608,35.4828 136.7608,45.1628 L136.7608,65.9818 Z" id="Fill-4" fill="#242F3F"></path>
                <path d="M171.5699,40.6283 C169.8029,38.7863 166.4999,37.6323 163.5809,37.6323 C157.2819,37.6323 153.2859,42.9343 153.2859,50.5403 C153.2859,57.8373 158.4329,62.6003 164.3479,62.6003 C166.4999,62.6003 169.3429,62.2943 171.5699,60.9113 L171.5699,40.6283 Z M171.5699,6.6733 L181.6339,6.6733 L181.6339,66.0593 C176.1019,69.4383 169.9559,70.8203 164.3479,70.8203 C153.2859,70.8203 142.6849,63.8303 142.6849,50.5403 C142.6849,38.0173 151.2119,29.2593 163.2729,29.2593 C166.0399,29.2593 169.1119,29.9503 171.5699,31.5643 L171.5699,6.6733 Z" id="Fill-6" fill="#242F3F"></path>
                <path d="M219.9806,50.1557 C219.9806,42.7047 215.2176,37.4037 209.5336,37.4037 C203.2346,37.4037 198.5466,42.7047 198.5466,50.3867 C198.5466,57.6837 203.6946,62.9857 209.2256,62.9857 C215.6796,62.9857 219.9806,57.8377 219.9806,50.1557 M209.3026,70.8207 C197.3176,70.8207 188.0226,61.6797 188.0226,50.1557 C188.0226,38.5547 197.3176,29.2597 209.5336,29.2597 C221.5176,29.2597 230.5836,38.7857 230.5836,50.1557 C230.5836,61.5247 221.2106,70.8207 209.3026,70.8207" id="Fill-8" fill="#242F3F"></path>
                <g id="Group-12" transform="translate(230.000000, 29.883600)">
                    <mask id="mask-2" fill="white">
                        <use xlink:href="#path-1"></use>
                    </mask>
                    <g id="Clip-11"></g>
                    <polygon id="Fill-10" fill="#242F3F" mask="url(#mask-2)" points="31.4034 39.7857 21.6454 25.7257 11.8894 39.7857 0.1354 39.7857 15.9594 18.8897 1.9034 0.5287 13.8854 0.5287 21.7994 12.3587 29.6364 0.5287 41.1584 0.5287 27.1774 18.8117 43.1574 39.7857"></polygon>
                </g>
                <path d="M54.3121,17.5829 C54.3121,13.8169 57.0021,11.2819 60.6121,11.2819 C64.4531,11.2819 66.9111,13.8949 66.9111,17.5829 C66.9111,21.3459 64.2991,23.8819 60.6121,23.8819 C57.0021,23.8819 54.3121,21.3459 54.3121,17.5829" id="Fill-13" fill="#242F3F"></path>
                <path d="M55.6192,30.4125 L55.6192,70.6115 C62.2282,69.2105 65.6822,66.6175 65.6822,66.6175 L65.6822,30.4125 L55.6192,30.4125 Z" id="Fill-15" fill="#242F3F"></path>
                <path d="M89.734,30.4882 L89.734,17.1982 L79.671,17.1982 L79.671,30.4882 L72.218,30.4882 L72.218,38.4022 L79.671,38.4022 L79.671,70.6142 C86.244,69.2232 89.688,66.6612 89.734,66.6262 L89.734,38.4022 L99.414,38.4022 L99.414,30.4882 L89.734,30.4882 Z" id="Fill-17" fill="#242F3F"></path>
                <g id="Group">
                    <g id="Group-3" transform="translate(6.000000, 74.883600)">
                        <mask id="mask-4" fill="white">
                            <use xlink:href="#path-3"></use>
                        </mask>
                        <g id="Clip-2"></g>
                        <path d="M17.5577,14.0001 C23.6667,14.0001 29.5577,11.8501 33.3417,8.3001 C35.0817,6.6691 35.1697,3.9371 33.5387,2.1971 C32.6877,1.2911 31.5387,0.8331 30.3877,0.8331 C29.3287,0.8331 28.2677,1.2191 27.4357,2.0001 C25.2127,4.0841 21.4957,5.3181 17.6507,5.3181 C14.1677,5.3181 10.5787,4.3061 7.8977,1.9971 C7.0827,1.2951 6.0807,0.9511 5.0817,0.9511 C3.8697,0.9511 2.6627,1.4591 1.8077,2.4501 C0.2517,4.2571 0.4547,6.9821 2.2617,8.5401 C6.6837,12.3491 12.2037,14.0001 17.5577,14.0001" id="Fill-1" fill="#008CFF" mask="url(#mask-4)"></path>
                    </g>
                    <g id="Group-21" transform="translate(0.000000, 0.883600)">
                        <mask id="mask-6" fill="white">
                            <use xlink:href="#path-5"></use>
                        </mask>
                        <g id="Clip-20"></g>
                        <path d="M11.2345,24.9239 C10.5275,22.8879 10.0835,21.0869 10.0835,19.7499 C10.0835,19.7249 10.0915,19.7089 10.0915,19.6839 C10.0915,19.6559 10.0835,19.6299 10.0835,19.6009 C10.0835,15.7469 13.2085,12.6219 17.0635,12.6219 C20.2385,12.6219 22.8875,14.7549 23.7345,17.6569 C24.5805,14.7549 27.2305,12.6219 30.4045,12.6219 C34.2595,12.6219 37.3845,15.7469 37.3845,19.6009 C37.3845,19.6299 37.3765,19.6559 37.3765,19.6839 C37.3775,19.7089 37.3845,19.7249 37.3845,19.7499 C37.3845,21.0979 36.9355,22.9149 36.2185,24.9709 C39.2345,24.3569 42.9345,24.0799 47.3385,24.5089 C47.4145,23.9049 47.4685,23.3209 47.4685,22.7819 C47.4685,9.6739 36.8415,0.1159 23.7345,0.1159 C10.6265,0.1159 0.0005,9.6739 0.0005,22.7819 C0.0005,23.3259 0.0545,23.9169 0.1325,24.5269 C4.5235,24.0729 8.2075,24.3329 11.2345,24.9239" id="Fill-19" fill="#008CFF" mask="url(#mask-6)"></path>
                    </g>
                    <path d="M34.0445,31.1576 C30.0035,39.9726 23.7335,50.0096 23.7335,50.0096 C23.7335,50.0096 17.4195,39.9016 13.3795,31.0646 C10.5255,30.1296 6.4945,29.4466 1.1705,29.9076 C5.9355,45.1856 23.7335,71.4396 23.7335,71.4396 C23.7335,71.4396 41.5465,45.1666 46.3035,29.8896 C40.9135,29.4516 36.8705,30.1886 34.0445,31.1576" id="Fill-22" fill="#242F3F"></path>
                </g>
                <path d="M280.020906,20.6883386 L278.067567,20.6883386 L278.067567,12.0496299 L275,12.0496299 L275,10.288874 L283.102228,10.288874 L283.102228,12.0496299 L280.020906,12.0496299 L280.020906,20.6883386 Z M295.964,20.6883386 L293.873102,20.6883386 L293.336622,15.4060709 L289.773843,21.1010157 L286.224819,15.4610945 L285.71585,20.6883386 L283.611197,20.6883386 L285.028055,10 L289.787598,17.5382362 L294.533386,10.0137559 L295.964,20.6883386 Z" id="TM" fill="#656D78"></path>
            </g>
        </g>
    </g>
</svg>