<?xml version="1.0" encoding="utf-8"?>
<!-- Generator: Adobe Illustrator 23.0.1, SVG Export Plug-In . SVG Version: 6.00 Build 0)  -->
<svg version="1.1" id="CLINICA_LOGOMARK" xmlns="http://www.w3.org/2000/svg" xmlns:xlink="http://www.w3.org/1999/xlink" x="0px"
	 y="0px" viewBox="0 0 252.39 81" style="enable-background:new 0 0 252.39 81;" xml:space="preserve">
<style type="text/css">
	.aquas{fill:#14B1AA;}
	.reds{fill:#CA4636;}
	.turquois{fill:#007C91;}
	.oranges{fill:#F58347;}
	.maroons{fill:#9E2D44;}
	.purples{fill:#842E62;}
	.yellows{fill:#FFE06A;}
	.greens{fill:#B3BA35;}
	.typography_grey{fill:#5C5D60;}
  .typography{fill:#FFFFFF;}
</style>
<g id="logomark_colors">
	<g id="aquas">

			<rect id="aqual_left" x="2.29" y="34.29" transform="matrix(0.7072 -0.7071 0.7071 0.7072 -21.8812 23.0261)" class="aquas" width="29.14" height="7.29"/>
		<polygon id="aqua_right" class="aquas" points="76.08,35.35 55.48,55.95 50.34,50.8 70.93,30.2 		"/>
	</g>
	<g id="reds">

			<rect id="red_top" x="22.89" y="13.68" transform="matrix(0.7071 -0.7071 0.7071 0.7071 -1.2803 31.5642)" class="reds" width="29.14" height="7.29"/>
		<polygon id="red_bottom" class="reds" points="50.34,50.8 29.74,71.4 34.89,76.55 55.48,55.95 		"/>
	</g>
	<g id="turquois">
		<path id="turquois_right" class="turquois" d="M80.08,39.34l-4-3.99l-20.6,20.6l5.15,5.15l19.41-19.41C80.69,41.05,80.7,40,80.08,39.34
			z"/>
		<path id="turquois_left" class="turquois" d="M19.43,19.9L0,39.33c-0.63,0.66-0.62,1.72,0.03,2.36l1.4,1.4l0,0l2.55,2.56l20.61-20.6
			L19.43,19.9z"/>
	</g>
	<g id="oranges">
		<path id="orange_top" class="oranges" d="M38.87,0.46L19.43,19.9l5.15,5.15l20.6-20.6l-4-4C40.54-0.15,39.51-0.15,38.87,0.46z"/>
		<path id="orange_bottom" class="oranges" d="M41.23,80.51l19.4-19.4l-5.15-5.15l-20.59,20.6l3.96,3.97
			C39.51,81.16,40.58,81.16,41.23,80.51z"/>
	</g>
	<g id="maroons">
		<path id="maroon_top" class="maroons" d="M40.63,20.5l4.56,4.55l10.3-10.3L50.34,9.6L39.45,20.49C39.78,20.17,40.31,20.17,40.63,20.5z
			"/>
		<path id="maroon_bottom" class="maroons" d="M39.43,60.5l-4.55-4.55l-10.3,10.3l5.15,5.15l10.9-10.9
			C40.3,60.83,39.76,60.83,39.43,60.5z"/>
	</g>
	<g id="purples">

			<rect id="purple_top" x="45.63" y="18.84" transform="matrix(0.7069 -0.7073 0.7073 0.7069 -0.3888 44.0118)" class="purples" width="14.57" height="7.28"/>

			<rect id="purple_bottom" x="19.87" y="54.89" transform="matrix(0.7072 -0.707 0.707 0.7072 -33.4267 36.3371)" class="purples" width="14.57" height="7.28"/>
	</g>
	<g id="yellows">

			<rect id="yellow_right" x="50.78" y="23.98" transform="matrix(0.7072 -0.7071 0.7071 0.7072 -2.5292 49.1429)" class="yellows" width="14.57" height="7.29"/>

			<rect id="yellow_left" x="14.72" y="49.73" transform="matrix(0.7071 -0.7072 0.7072 0.7071 -31.2984 31.2003)" class="yellows" width="14.57" height="7.29"/>
	</g>
	<g id="greens">
		<path id="green_right" class="greens" d="M60.04,39.9c0.33,0.33,0.33,0.86,0,1.19L70.93,30.2l-5.14-5.15l-10.3,10.3L60.04,39.9z"/>
		<path id="green_left" class="greens" d="M20.03,41.1c-0.33-0.33-0.33-0.86,0-1.19L9.13,50.8l5.15,5.15l10.3-10.3L20.03,41.1z"/>
	</g>
</g>
<g id="typography">
	<g id="brand_name">
		<path id="C_1" class="typography" d="M103.58,14.92c3.1,0,5.43,1.04,7.4,2.83c0.15,0.15,0.19,0.39,0.03,0.55l-0.49,0.51
			c-0.18,0.18-0.33,0.15-0.52-0.03c-1.74-1.55-3.93-2.5-6.43-2.5c-5.33,0-9.5,4.35-9.5,9.62c0,5.24,4.17,9.57,9.5,9.57
			c2.62,0,4.6-1.04,6.43-2.56c0.18-0.15,0.37-0.15,0.49-0.06l0.52,0.52c0.16,0.12,0.16,0.36,0,0.51c-2.07,2.01-4.72,2.96-7.43,2.96
			c-6.09,0-11.03-4.81-11.03-10.94C92.55,19.81,97.49,14.92,103.58,14.92z"/>
		<path id="L_1" class="typography" d="M123.25,15.61c0-0.21,0.18-0.4,0.4-0.4h0.67c0.18,0,0.36,0.19,0.36,0.4v19.65h9.72
			c0.36,0,0.39,0.19,0.39,0.4v0.55c0,0.21-0.19,0.33-0.39,0.33h-10.75c-0.22,0-0.4-0.18-0.4-0.4V15.61z"/>
		<path id="I_1" class="typography" d="M145.45,15.61c0-0.21,0.18-0.4,0.4-0.4h0.67c0.22,0,0.4,0.19,0.4,0.4v20.53
			c0,0.25-0.21,0.4-0.43,0.4h-0.64c-0.21,0-0.4-0.18-0.4-0.4V15.61z"/>
		<path id="N" class="typography" d="M160.68,15.31c0-0.24,0.22-0.4,0.46-0.4h0.52l14.62,19.04c0.03,0,0.03,0,0.03,0V15.61
			c0-0.21,0.18-0.4,0.39-0.4h0.62c0.21,0,0.39,0.19,0.39,0.4v20.84c0,0.28-0.25,0.4-0.49,0.4h-0.39c-0.03,0-0.27-0.09-14.74-19.22
			h-0.04v18.52c0,0.22-0.18,0.4-0.39,0.4h-0.58c-0.22,0-0.41-0.18-0.41-0.4V15.31z"/>
		<path id="I_2" class="typography" d="M191.48,15.61c0-0.21,0.18-0.4,0.39-0.4h0.67c0.21,0,0.39,0.19,0.39,0.4v20.53
			c0,0.25-0.22,0.4-0.43,0.4h-0.64c-0.21,0-0.39-0.18-0.39-0.4V15.61z"/>
		<path id="C" class="typography" d="M216.21,14.92c3.11,0,5.42,1.04,7.4,2.83c0.15,0.15,0.18,0.39,0.03,0.55l-0.49,0.51
			c-0.18,0.18-0.33,0.15-0.52-0.03c-1.73-1.55-3.93-2.5-6.43-2.5c-5.33,0-9.5,4.35-9.5,9.62c0,5.24,4.17,9.57,9.5,9.57
			c2.62,0,4.6-1.04,6.43-2.56c0.19-0.15,0.37-0.15,0.49-0.06l0.52,0.52c0.15,0.12,0.15,0.36,0,0.51c-2.07,2.01-4.72,2.96-7.43,2.96
			c-6.09,0-11.03-4.81-11.03-10.94C205.18,19.81,210.12,14.92,216.21,14.92z"/>
		<path id="A_1" class="typography" d="M232.84,36.18l9.38-21.2c0.06-0.12,0.21-0.22,0.36-0.22h0.1c0.15,0,0.31,0.03,0.39,0.22l9.29,21.2
			c0.06,0.18,0.06,0.36-0.28,0.36h-0.79c-0.22,0-0.37-0.15-0.43-0.27l-2.47-5.61h-11.63l-2.44,5.61c-0.06,0.12-0.21,0.27-0.43,0.27
			h-0.85C232.84,36.54,232.75,36.42,232.84,36.18z M247.88,29.47l-5.21-12.27h-0.06l-5.31,12.27H247.88z"/>
	</g>
	<g id="family_health">
		<g>
			<path class="typography" d="M94,54.23h-1.45v-0.55H94V52.5c0-1.1,0.28-1.92,0.81-2.43c0.45-0.45,1.07-0.7,1.86-0.7
				c0.58,0,0.97,0.1,1.37,0.25v0.58c-0.43-0.16-0.89-0.25-1.37-0.25c-1.32,0-2.07,0.81-2.07,2.6v1.12h3.4v0.55h-3.4v8.94H94V54.23z"
				/>
			<path class="typography" d="M98.7,60.5v-0.04c0-1.97,1.8-3.05,4.2-3.05c1.32,0,2.47,0.22,3.39,0.53V57.3c0-2.14-1.29-3.19-3.39-3.19
				c-1.16,0-2.14,0.32-3.08,0.79l-0.23-0.52c1.05-0.51,2.09-0.83,3.35-0.83c1.29,0,2.31,0.34,3.01,1.03c0.6,0.62,0.94,1.53,0.94,2.7
				v5.9h-0.6v-1.98c-0.49,1.04-1.81,2.2-3.99,2.2C100.47,63.4,98.7,62.41,98.7,60.5z M106.31,59.67V58.5
				c-0.92-0.3-2.02-0.53-3.43-0.53c-2.09,0-3.54,0.88-3.54,2.45v0.04c0,1.56,1.41,2.37,2.99,2.37
				C104.63,62.83,106.31,61.36,106.31,59.67z"/>
			<path class="typography" d="M110.19,53.68h0.6v2.13c0.42-1.11,1.55-2.35,3.24-2.35c1.91,0,2.93,1.14,3.35,2.5
				c0.48-1.24,1.68-2.5,3.41-2.5c2.16,0,3.59,1.47,3.59,4.04v5.66h-0.6v-5.61c0-2.3-1.21-3.54-3.04-3.54
				c-1.62,0-3.16,1.47-3.16,3.61v5.53h-0.6v-5.63c0-2.25-1.23-3.52-3.01-3.52c-1.66,0-3.19,1.58-3.19,3.63v5.51h-0.6V53.68z"/>
			<path class="typography" d="M127.79,49.92h0.8v1.14h-0.8V49.92z M127.89,53.68h0.62v9.48h-0.62V53.68z"/>
			<path class="typography" d="M132.23,49.43h0.62v13.74h-0.62V49.43z"/>
			<path class="typography" d="M135.62,65.77l0.25-0.51c0.45,0.24,1,0.41,1.6,0.41c1.05,0,1.68-0.51,2.58-2.52l-4.55-9.47h0.68l4.18,8.83
				l3.82-8.83h0.64l-4.27,9.73c-1,2.26-1.81,2.82-3.09,2.82C136.75,66.24,136.12,66.03,135.62,65.77z"/>
			<path class="typography" d="M152.74,49.43h0.6v6.51c0.43-1.13,1.62-2.48,3.65-2.48c2.5,0,3.91,1.69,3.91,4.16v5.55h-0.6v-5.45
				c0-2.21-1.18-3.69-3.38-3.69c-2,0-3.58,1.64-3.58,3.8v5.34h-0.6V49.43z"/>
			<path class="typography" d="M163.55,58.43v-0.04c0-2.79,1.92-4.93,4.53-4.93c2.87,0,4.35,2.44,4.35,4.98c0,0.1,0,0.13,0,0.21h-8.23
				c0.11,2.58,1.94,4.18,4.06,4.18c1.47,0,2.66-0.78,3.41-1.75l0.46,0.36c-0.87,1.13-2.14,1.96-3.88,1.96
				C165.7,63.4,163.55,61.46,163.55,58.43z M171.78,58.1c-0.1-2.07-1.36-4.08-3.73-4.08c-2.14,0-3.73,1.75-3.84,4.08H171.78z"/>
			<path class="typography" d="M174.39,60.5v-0.04c0-1.97,1.79-3.05,4.2-3.05c1.32,0,2.47,0.22,3.39,0.53V57.3c0-2.14-1.28-3.19-3.39-3.19
				c-1.17,0-2.14,0.32-3.09,0.79l-0.23-0.52c1.06-0.51,2.09-0.83,3.35-0.83c1.3,0,2.32,0.34,3.01,1.03c0.6,0.62,0.94,1.53,0.94,2.7
				v5.9h-0.6v-1.98c-0.48,1.04-1.8,2.2-3.99,2.2C176.16,63.4,174.39,62.41,174.39,60.5z M181.99,59.67V58.5
				c-0.92-0.3-2.01-0.53-3.43-0.53c-2.09,0-3.54,0.88-3.54,2.45v0.04c0,1.56,1.42,2.37,2.99,2.37
				C180.32,62.83,181.99,61.36,181.99,59.67z"/>
			<path class="typography" d="M186,49.43h0.62v13.74H186V49.43z"/>
			<path class="typography" d="M190.74,60.75v-6.51h-1.45v-0.55h1.45V50.5h0.6v3.18h3.44v0.55h-3.44v6.46c0,1.39,0.74,2.09,1.98,2.09
				c0.47,0,0.94-0.11,1.43-0.34v0.58c-0.47,0.23-0.96,0.32-1.49,0.32C191.74,63.34,190.74,62.45,190.74,60.75z"/>
			<path class="typography" d="M197.46,49.43h0.6v6.51c0.43-1.13,1.61-2.48,3.65-2.48c2.5,0,3.91,1.69,3.91,4.16v5.55h-0.6v-5.45
				c0-2.21-1.19-3.69-3.39-3.69c-1.99,0-3.57,1.64-3.57,3.8v5.34h-0.6V49.43z"/>
		</g>
	</g>
</g>
</svg>
