<svg xmlns="http://www.w3.org/2000/svg" xmlns:xlink="http://www.w3.org/1999/xlink" viewBox="0 0 473.27 151.36">
	<defs>
		<style>
			.a{fill:url(#a);}.b{fill:#fff;}.c{isolation:isolate;}.d{fill:#007cb1;}
		</style>
		<linearGradient id="a" x1="549.31" y1="-248.5" x2="549.31" y2="-100.42" gradientTransform="matrix(1, 0, 0, -1, -131.75, -72.61)" gradientUnits="userSpaceOnUse">
			<stop offset="0" stop-color="#7fa76b" />
			<stop offset="0.82" stop-color="#b3d572" />
		</linearGradient>
	</defs>
	<title>ENTSOM_Logo</title>
	<path class="a" d="M439.31,151.33c-2.95-12.93-1-34.74,5.4-34.74,6.2,0,13.67,1,18.76-.55,2.28-.72,4.87-2.79,5.52-5.22a13.35,13.35,0,0,0-1.36-8.77c-4.55-9,.9-9.38-.4-13-.78-2.16-4.54-1.82-4.54-1.82s5.73-.62,4.78-5.08c-.83-3.9-.62-5.81.94-7.75,1.32-1.64,4.33-.83,6.09-4s-1.44-5.9-3.22-8.05c-3.32-4-10.56-10.23-11-12.76-.72-3.76,2.22-3.92,2.11-7.41C462.24,37.66,453,26.34,450,19.93,441.8,2.18,414.37-8.54,383.26,8.68c-40.2,22.24-17.74,67.62-8.8,83.48,4.83,8.57,7.82,23.12,5.08,31.74C374.14,140.74,412.06,143.87,439.31,151.33Z" transform="translate(-1.74 0.03)" />
	<path class="b" d="M430.1,144.33c-2.69-11.76-.94-31.6,4.91-31.6,5.63,0,12.43.94,17.06-.5,2.07-.65,4.42-2.53,5-4.74a12.21,12.21,0,0,0-1.24-8c-4.14-8.16.82-8.52-.36-11.79-.72-2-4.13-1.66-4.13-1.66s5.21-.56,4.35-4.61c-.76-3.55-.57-5.29.85-7.05,1.2-1.49,3.94-.76,5.53-3.64s-1.3-5.37-2.92-7.32c-3-3.64-9.6-9.3-10-11.61-.65-3.41,2-3.56,1.92-6.73-.14-4.11-8.56-14.4-11.26-20.23C432.34,8.7,407.4-1,379.11,14.61c-36.55,20.23-16.13,61.49-8,75.92,4.39,7.8,7.11,21,4.61,28.86C370.84,134.7,405.31,137.54,430.1,144.33Z" transform="translate(-1.74 0.03)" />
	<g class="c">
		<g class="c">
			<path class="d" d="M15.39,91.08H1.74V49.83H15.39v4.63h-9V67.53h5.21v4.64H6.38V86.44h9Z" transform="translate(-1.74 0.03)" />
			<path class="d" d="M34.35,91.08H30.24L22.71,66V91.08H18.34V49.83H23L30,75.27V49.83h4.32Z" transform="translate(-1.74 0.03)" />
			<path class="d" d="M50.84,54.46H46.05V91.08H41.41V54.46H36.72V49.83H50.84Z" transform="translate(-1.74 0.03)" />
			<path class="d" d="M78.61,57.15v2.26l-4.64-1V57.15a3.38,3.38,0,0,0-3.37-3.37c-2.79,0-3.42,2.42-3.42,4.63,0,3.38,3.37,7.22,5.64,10.22,3,4,6.16,8.33,6.16,13.49s-2.32,9.7-8.43,9.7a7.68,7.68,0,0,1-8-8V81.6l4.64,1v1.21a3.54,3.54,0,0,0,3.53,3.42c2.48,0,3.64-1.68,3.64-4a11.06,11.06,0,0,0-.74-4.53c-1.69-4.32-5-7.9-7.64-11.59-2.11-3-3.43-5.37-3.43-9.59,0-5,2.85-8.43,8-8.43C75.24,49.14,78.61,51.83,78.61,57.15Z" transform="translate(-1.74 0.03)" />
			<path class="d" d="M98.16,83.81c0,5.58-3.43,8-7,8A5.6,5.6,0,0,1,86.78,90v10.06H82.14V58.89H85.2l1,1.53a6.2,6.2,0,0,1,4.74-2c4.59,0,7.17,3,7.17,7.74ZM93.52,66.26a3.37,3.37,0,1,0-6.74,0V83.81a3.37,3.37,0,0,0,6.74,0Z" transform="translate(-1.74 0.03)" />
			<path class="d" d="M116.65,83.81c0,5.06-3.42,8-7.85,8s-7.85-2.95-7.85-8V66.26c0-5.05,3.48-7.79,8-7.79,4.37,0,8,3,8,8.43,0,8.69-3.37,11.22-11.38,15.33v1.58a3.19,3.19,0,1,0,6.37,0v-.53l4.69-1.53Zm-7.69-21a3.16,3.16,0,0,0-3.37,3.42V77.12c5.58-2.64,6.74-5.06,6.74-10C112.33,64,110.8,62.84,109,62.84Z" transform="translate(-1.74 0.03)" />
			<path class="d" d="M124.66,66.26V83.81a3.38,3.38,0,0,0,6.75,0v-.53L136,81.75v2.06c0,5.43-3.63,8-8,8-4.53,0-8-2.85-8-8V66.26c0-5.74,3.48-7.79,8-7.79,4.38,0,8,2.16,8,7.79v1.37h-4.63V66.26a3.38,3.38,0,1,0-6.75,0Z" transform="translate(-1.74 0.03)" />
			<path class="d" d="M141.47,53.88a2.92,2.92,0,1,1,2.37-2.9C143.79,52.62,142.84,53.88,141.47,53.88Zm2.21,37.2h-4.63V58.89h4.63Z" transform="translate(-1.74 0.03)" />
			<path class="d" d="M162.75,91.08H159.7l-1-1.84a5.39,5.39,0,0,1-5,2.58c-3.43,0-7-2.43-7-8.43,0-9.43,8.22-12,11.49-15.55V66.26c0-2-.84-3.42-2.74-3.42-1.74,0-2.9.63-3.43,2.16l-3.9-2.53c1.37-2.16,3.11-4,7.38-4s7.32,2.89,7.32,7.79Zm-4.53-17.23c-2.31,1.48-7.06,4.37-7.06,9.12,0,2.68,1.22,4.21,3.48,4.21,2.48,0,3.58-2,3.58-4.21Z" transform="translate(-1.74 0.03)" />
			<path class="d" d="M170.82,91.08h-4.64V49.67l4.64-1.53Z" transform="translate(-1.74 0.03)" />
			<path class="d" d="M176.67,53.88A2.92,2.92,0,1,1,179,51C179,52.62,178,53.88,176.67,53.88Zm2.21,37.2h-4.64V58.89h4.64Z" transform="translate(-1.74 0.03)" />
		</g>
		<g class="c">
			<path class="d" d="M190.06,91.82a7.68,7.68,0,0,1-8.06-8V81.6l4.64,1v1.21a3.22,3.22,0,0,0,3.42,3.37c2.38,0,3.59-1.16,3.59-3.37a5.71,5.71,0,0,0-1.21-3.74c-2.22-2.48-5.17-4.11-7.43-6.8a10.38,10.38,0,0,1-2.59-7,7.54,7.54,0,0,1,7.91-7.85c4.84,0,7.53,3.16,7.53,7.79v2.22l-4.53-1.06V66.26a3.09,3.09,0,0,0-3.16-3.42c-1.95,0-3.11,1.37-3.11,3.53,0,4.95,7.17,7.38,10.12,12.22A9,9,0,0,1,198.39,83C198.39,87.55,195.81,91.82,190.06,91.82Z" transform="translate(-1.74 0.03)" />
		</g>
		<g class="c">
			<path class="d" d="M212.4,86.13l3.21,3.47a7.13,7.13,0,0,1-5.11,2.22c-4.84,0-7.22-2.79-7.22-8V63h-2.95V58.89h2.95V53l4.64-1.58v7.43H214V63h-6.11V83.86c0,2.16.79,3.32,2.37,3.32A2.33,2.33,0,0,0,212.4,86.13Z" transform="translate(-1.74 0.03)" />
		</g>
		<g class="c">
			<path class="d" d="M224.94,91.82a7.68,7.68,0,0,1-8.06-8V81.6l4.64,1v1.21a3.22,3.22,0,0,0,3.42,3.37c2.37,0,3.59-1.16,3.59-3.37a5.66,5.66,0,0,0-1.22-3.74c-2.21-2.48-5.16-4.11-7.42-6.8a10.38,10.38,0,0,1-2.59-7,7.54,7.54,0,0,1,7.91-7.85c4.84,0,7.53,3.16,7.53,7.79v2.22l-4.53-1.06V66.26a3.09,3.09,0,0,0-3.16-3.42c-2,0-3.11,1.37-3.11,3.53,0,4.95,7.17,7.38,10.12,12.22A9,9,0,0,1,233.27,83C233.27,87.55,230.69,91.82,224.94,91.82Z" transform="translate(-1.74 0.03)" />
			<path class="d" d="M262,83.81a7.71,7.71,0,0,1-8,8,7.63,7.63,0,0,1-8-8V66.26c0-4.84,3.47-7.79,8-7.79,4.37,0,8,3,8,7.79Zm-4.63-17.55a3.38,3.38,0,1,0-6.75,0V83.81a3.38,3.38,0,0,0,6.75,0Z" transform="translate(-1.74 0.03)" />
			<path class="d" d="M278.58,48.88l-1.84,4.48a2.88,2.88,0,0,0-1.85-.58,3.19,3.19,0,0,0-3.42,3.37v2.74h3.42V63h-3.42V91.08h-4.64V63h-2.05V58.89h2.05V56.15c0-5.11,3.69-8,8.06-8A9.68,9.68,0,0,1,278.58,48.88Z" transform="translate(-1.74 0.03)" />
			<path class="d" d="M314,91.08h-4.27V67.84l-5.43,23.24h-4L295,67.84V91.08h-4.32V49.83h5.63l6.27,30.5,6.8-30.5H314Z" transform="translate(-1.74 0.03)" />
			<path class="d" d="M333,83.81c0,5.06-3.43,8-7.85,8s-7.85-2.95-7.85-8V66.26c0-5.05,3.47-7.79,8-7.79,4.37,0,8,3,8,8.43,0,8.69-3.37,11.22-11.38,15.33v1.58a3.19,3.19,0,1,0,6.38,0v-.53L333,81.75Zm-7.69-21a3.17,3.17,0,0,0-3.38,3.42V77.12c5.59-2.64,6.75-5.06,6.75-10C328.69,64,327.16,62.84,325.32,62.84Z" transform="translate(-1.74 0.03)" />
		</g>
		<g class="c">
			<path class="d" d="M347.93,86.13l3.21,3.47A7.13,7.13,0,0,1,346,91.82c-4.84,0-7.22-2.79-7.22-8V63h-2.95V58.89h2.95V53l4.64-1.58v7.43h6.11V63h-6.11V83.86c0,2.16.79,3.32,2.37,3.32A2.33,2.33,0,0,0,347.93,86.13Z" transform="translate(-1.74 0.03)" />
		</g>
		<g class="c">
			<path class="d" d="M368.38,91.08h-3.06l-1.05-1.84a5.37,5.37,0,0,1-5,2.58c-3.42,0-7-2.43-7-8.43,0-9.43,8.22-12,11.49-15.55V66.26c0-2-.84-3.42-2.74-3.42-1.74,0-2.9.63-3.42,2.16l-3.9-2.53c1.37-2.16,3.11-4,7.37-4s7.33,2.89,7.33,7.79Zm-4.53-17.23c-2.32,1.48-7.06,4.37-7.06,9.12,0,2.68,1.21,4.21,3.47,4.21,2.48,0,3.59-2,3.59-4.21Z" transform="translate(-1.74 0.03)" />
			<path class="d" d="M374.07,53.88a2.91,2.91,0,0,1,0-5.74A2.63,2.63,0,0,1,376.44,51C376.39,52.62,375.44,53.88,374.07,53.88Zm2.21,37.2h-4.64V58.89h4.64Z" transform="translate(-1.74 0.03)" />
			<path class="d" d="M390.45,59.36l-1.58,4.16a1.78,1.78,0,0,0-1.42-.42,3.4,3.4,0,0,0-3.11,3.64V91.08h-4.63V58.89h3.05l1.06,2a4.41,4.41,0,0,1,3.89-2.47A3.77,3.77,0,0,1,390.45,59.36Z" transform="translate(-1.74 0.03)" />
			<path class="d" d="M394.67,53.88A2.92,2.92,0,1,1,397,51C397,52.62,396,53.88,394.67,53.88Zm2.21,37.2h-4.63V58.89h4.63Z" transform="translate(-1.74 0.03)" />
			<path class="d" d="M415.85,83.81c0,5.06-3.43,8-7.85,8s-7.85-2.95-7.85-8V66.26c0-5.05,3.48-7.79,8-7.79,4.37,0,8,3,8,8.43,0,8.69-3.38,11.22-11.38,15.33v1.58a3.19,3.19,0,1,0,6.37,0v-.53l4.69-1.53Zm-7.69-21a3.16,3.16,0,0,0-3.37,3.42V77.12c5.58-2.64,6.74-5.06,6.74-10C411.53,64,410,62.84,408.16,62.84Z" transform="translate(-1.74 0.03)" />
		</g>
	</g>
	<g class="c">
		<g class="c">
			<path class="d" d="M47.39,104v1.09H41.74V109h4V110h-4v4.42h6v1.09H40.46V104Z" transform="translate(-1.74 0.03)" />
			<path class="d" d="M49.58,108.83a3.41,3.41,0,0,1,3.12-1.76c1.41,0,2.88.67,2.88,2.49v4.2a6.53,6.53,0,0,0,.19,1.79H54.59l-.13-1.15a3.71,3.71,0,0,1-2.75,1.31,2.2,2.2,0,0,1-2.37-2.29c0-1.82,1.39-2.74,5.09-3.39v-.45c0-1.11-.72-1.52-1.71-1.52a2.14,2.14,0,0,0-2.13,1.3Zm4.85,2.22c-2.64.47-3.94,1.23-3.94,2.39a1.37,1.37,0,0,0,1.38,1.28,3.87,3.87,0,0,0,2.56-1.38Z" transform="translate(-1.74 0.03)" />
		</g>
		<g class="c">
			<path class="d" d="M58,107.23H59.1v1.65h0a2.84,2.84,0,0,1,2.71-1.78v1.15c-1.44,0-2.19,1-2.74,2.69v4.61H58Z" transform="translate(-1.74 0.03)" />
		</g>
		<g class="c">
			<path class="d" d="M64.66,115.55l-1,2.37H63l.75-2.37h-.64v-1.76h1.57Z" transform="translate(-1.74 0.03)" />
			<path class="d" d="M73.25,115.55V104h1.84l5,8.9h.06V104h1.16v11.56H80.29l-5.86-10.31h0v10.31Z" transform="translate(-1.74 0.03)" />
			<path class="d" d="M87.23,115.71c-2.27,0-3.41-1.92-3.41-4.32s1.14-4.32,3.41-4.32,3.41,1.92,3.41,4.32S89.51,115.71,87.23,115.71Zm0-7.65c-1.37,0-2.25,1.18-2.25,3.33s.88,3.33,2.25,3.33,2.26-1.19,2.26-3.33S88.61,108.06,87.23,108.06Z" transform="translate(-1.74 0.03)" />
			<path class="d" d="M92.69,113.44a2.81,2.81,0,0,0,2.38,1.28c1.25,0,1.8-.68,1.8-1.38,0-2.11-4.93-1-4.84-4,0-1.44,1.15-2.26,2.76-2.24a3.63,3.63,0,0,1,2.84,1.45l-.8.71a2.57,2.57,0,0,0-2.14-1.17c-1,0-1.51.49-1.51,1.23,0,1.81,4.84.88,4.84,4,0,1.61-1.41,2.43-2.92,2.43a4.12,4.12,0,0,1-3.32-1.59Z" transform="translate(-1.74 0.03)" />
			<path class="d" d="M106.11,113.77a3.33,3.33,0,0,1-3.2,1.94c-1.85,0-3.61-1.28-3.61-4.32,0-2.69,1.34-4.32,3.39-4.32,1.73,0,3.17,1.12,3.17,3.77v.77h-5.41c0,1.83,1.09,3.11,2.46,3.11a2.58,2.58,0,0,0,2.31-1.41Zm-1.4-3.15c0-1.54-.74-2.56-2-2.56s-2.14,1-2.24,2.56Z" transform="translate(-1.74 0.03)" />
			<path class="d" d="M121.4,110a10.4,10.4,0,0,1-1.3,3.44,3.55,3.55,0,0,0,1.9,1v1.15h-.41a4.18,4.18,0,0,1-2.28-1.15,4.17,4.17,0,0,1-3.29,1.31,3.34,3.34,0,0,1-3.46-3.31c0-1.57,1.3-2.72,2.51-3.49a5.63,5.63,0,0,1-.91-2.77,2.34,2.34,0,0,1,2.59-2.31,2.15,2.15,0,0,1,2.37,2.15c0,1.34-1.37,2.4-2.43,3.17a19.68,19.68,0,0,0,2.61,3.49,7.77,7.77,0,0,0,1-2.92Zm-5.22,4.64a3.21,3.21,0,0,0,2.33-1,31.56,31.56,0,0,1-2.91-3.87,3.06,3.06,0,0,0-1.76,2.69A2.18,2.18,0,0,0,116.18,114.62Zm-.07-6.37c.8-.51,1.73-1.38,1.73-2.26a1.14,1.14,0,0,0-1.15-1.16,1.26,1.26,0,0,0-1.25,1.36A4.91,4.91,0,0,0,116.11,108.25Z" transform="translate(-1.74 0.03)" />
			<path class="d" d="M132.82,105.08v10.47h-1.28V105.08h-3.46V104h8.19v1.09Z" transform="translate(-1.74 0.03)" />
			<path class="d" d="M139.36,104v4.36h0a3.41,3.41,0,0,1,2.47-1.28,2.21,2.21,0,0,1,2.4,2.43v6h-1.15v-6c0-1.1-.53-1.47-1.37-1.47a3.84,3.84,0,0,0-2.38,1.26v6.23h-1.15V104Z" transform="translate(-1.74 0.03)" />
			<path class="d" d="M147,107.23h1.15v1.65h0a2.83,2.83,0,0,1,2.71-1.78v1.15c-1.44,0-2.19,1-2.74,2.69v4.61H147Z" transform="translate(-1.74 0.03)" />
			<path class="d" d="M155.33,115.71c-2.27,0-3.41-1.92-3.41-4.32s1.14-4.32,3.41-4.32,3.41,1.92,3.41,4.32S157.6,115.71,155.33,115.71Zm0-7.65c-1.38,0-2.26,1.18-2.26,3.33s.88,3.33,2.26,3.33,2.25-1.19,2.25-3.33S156.7,108.06,155.33,108.06Z" transform="translate(-1.74 0.03)" />
			<path class="d" d="M160.4,108.83a3.41,3.41,0,0,1,3.12-1.76c1.41,0,2.88.67,2.88,2.49v4.2a6.53,6.53,0,0,0,.19,1.79h-1.18l-.13-1.15a3.69,3.69,0,0,1-2.75,1.31,2.2,2.2,0,0,1-2.37-2.29c0-1.82,1.39-2.74,5.09-3.39v-.45c0-1.11-.72-1.52-1.71-1.52a2.14,2.14,0,0,0-2.13,1.3Zm4.85,2.22c-2.64.47-3.94,1.23-3.94,2.39a1.37,1.37,0,0,0,1.38,1.28,3.87,3.87,0,0,0,2.56-1.38Z" transform="translate(-1.74 0.03)" />
			<path class="d" d="M169.3,107.23v-2.74h1.15v2.74h1.92v1h-1.92v5.92c0,.39.27.58.94.58a6.34,6.34,0,0,0,1-.08v.94a5.08,5.08,0,0,1-1.35.13c-1.25,0-1.77-.32-1.77-1.38v-6.11h-1.36v-1Z" transform="translate(-1.74 0.03)" />
			<path class="d" d="M179.45,103.83h1v11.88h-1Z" transform="translate(-1.74 0.03)" />
			<path class="d" d="M187.31,115.55,190.86,104h1.91l3.55,11.56H195l-1.09-3.62h-4.15l-1.09,3.62Zm2.75-4.71h3.51l-1.67-6h-.17Z" transform="translate(-1.74 0.03)" />
			<path class="d" d="M203.18,115.55v-1.12h0a3.39,3.39,0,0,1-2.46,1.28,2.21,2.21,0,0,1-2.4-2.43v-6h1.15v6c0,1.1.53,1.47,1.36,1.47a3.83,3.83,0,0,0,2.38-1.27v-6.22h1.16v8.32Z" transform="translate(-1.74 0.03)" />
			<path class="d" d="M213.41,104v9.73a12.44,12.44,0,0,0,.06,1.83h-1.05l-.16-.82a2.75,2.75,0,0,1-2.2,1c-1.47,0-3.41-1-3.41-4.32s1.94-4.32,3.35-4.32a3.58,3.58,0,0,1,2.19.93l.07,0v-4Zm-1.15,5.22a3.11,3.11,0,0,0-2.1-1.15c-1.35,0-2.35.88-2.35,3.39,0,2.12.91,3.27,2.35,3.27a2.9,2.9,0,0,0,2.1-1.12Z" transform="translate(-1.74 0.03)" />
			<path class="d" d="M217.78,103.83v1.38h-1.16v-1.38Zm-1.16,3.4h1.16v8.32h-1.16Z" transform="translate(-1.74 0.03)" />
			<path class="d" d="M223.58,115.71c-2.27,0-3.41-1.92-3.41-4.32s1.14-4.32,3.41-4.32S227,109,227,111.39,225.86,115.71,223.58,115.71Zm0-7.65c-1.37,0-2.25,1.18-2.25,3.33s.88,3.33,2.25,3.33,2.26-1.19,2.26-3.33S225,108.06,223.58,108.06Z" transform="translate(-1.74 0.03)" />
			<path class="d" d="M230.54,104v11.56h-1.15V104Z" transform="translate(-1.74 0.03)" />
			<path class="d" d="M236.35,115.71c-2.27,0-3.41-1.92-3.41-4.32s1.14-4.32,3.41-4.32,3.41,1.92,3.41,4.32S238.62,115.71,236.35,115.71Zm0-7.65c-1.37,0-2.26,1.18-2.26,3.33s.89,3.33,2.26,3.33,2.26-1.19,2.26-3.33S237.73,108.06,236.35,108.06Z" transform="translate(-1.74 0.03)" />
			<path class="d" d="M248.19,108.06a3.31,3.31,0,0,0-1.28.22,2.82,2.82,0,0,1,.58,1.7,3,3,0,0,1-3,2.91,4.51,4.51,0,0,1-1.47-.22.78.78,0,0,0-.66.77c0,.38.27.6.69.6,3.94,0,5.2.71,5.2,2.34,0,1.22-1.2,2.24-3.79,2.24-2.34,0-3.59-.64-3.59-2,0-.84.51-1.24,1.41-1.7a1.33,1.33,0,0,1-1-1.19c0-.72.48-1,1.12-1.42a2.8,2.8,0,0,1-1.14-2.32,2.93,2.93,0,0,1,3.16-2.91,3.38,3.38,0,0,1,2.06.57,4,4,0,0,1,1.79-.73Zm-3.95,7.14c-1.81,0-2.32.8-2.32,1.39s.38,1,2.69,1c1.37,0,2.5-.38,2.51-1.2S246.27,115.2,244.24,115.2Zm0-7.14a1.84,1.84,0,0,0-2,1.92,2,2,0,0,0,2.15,1.92,1.81,1.81,0,0,0,2-1.86A1.85,1.85,0,0,0,244.29,108.06Z" transform="translate(-1.74 0.03)" />
		</g>
		<g class="c">
			<path class="d" d="M255.52,107.23l-2.93,9.06c-.61,1.85-1.71,2.33-2.8,2.33a4.85,4.85,0,0,1-.83-.09v-1a4.7,4.7,0,0,0,.62,0c.71,0,1.78-.16,2.18-2l-2.9-8.42h1.22l2.24,6.35h0l2-6.35Z" transform="translate(-1.74 0.03)" />
		</g>
		<g class="c">
			<path class="d" d="M258,115.55l-1,2.37h-.67l.75-2.37h-.64v-1.76H258Z" transform="translate(-1.74 0.03)" />
			<path class="d" d="M265.21,115.55,268.77,104h1.9l3.56,11.56h-1.35l-1.09-3.62h-4.14l-1.09,3.62Zm2.76-4.71h3.5l-1.66-6h-.18Z" transform="translate(-1.74 0.03)" />
			<path class="d" d="M277.57,104v11.56h-1.16V104Z" transform="translate(-1.74 0.03)" />
			<path class="d" d="M282.17,104v11.56H281V104Z" transform="translate(-1.74 0.03)" />
			<path class="d" d="M291.44,113.77a3.33,3.33,0,0,1-3.2,1.94c-1.86,0-3.62-1.28-3.62-4.32,0-2.69,1.35-4.32,3.4-4.32,1.72,0,3.16,1.12,3.16,3.77v.77h-5.41c0,1.83,1.09,3.11,2.47,3.11a2.58,2.58,0,0,0,2.3-1.41ZM290,110.62c0-1.54-.74-2.56-2-2.56-1.4,0-2.15,1-2.24,2.56Z" transform="translate(-1.74 0.03)" />
			<path class="d" d="M293.26,107.23h1.15v1.65h0a2.83,2.83,0,0,1,2.7-1.78v1.15c-1.44,0-2.19,1-2.74,2.69v4.61h-1.15Z" transform="translate(-1.74 0.03)" />
			<path class="d" d="M305.31,108.06a3.31,3.31,0,0,0-1.28.22,2.82,2.82,0,0,1,.58,1.7,3,3,0,0,1-3,2.91,4.58,4.58,0,0,1-1.48-.22.78.78,0,0,0-.65.77c0,.38.27.6.69.6,3.93,0,5.2.71,5.2,2.34,0,1.22-1.2,2.24-3.79,2.24-2.34,0-3.59-.64-3.59-2,0-.84.51-1.24,1.41-1.7a1.33,1.33,0,0,1-1-1.19c0-.72.48-1,1.12-1.42A2.78,2.78,0,0,1,298.3,110a2.93,2.93,0,0,1,3.16-2.91,3.38,3.38,0,0,1,2.06.57,4,4,0,0,1,1.79-.73Zm-3.95,7.14c-1.81,0-2.32.8-2.32,1.39s.38,1,2.69,1c1.37,0,2.49-.38,2.51-1.2S303.39,115.2,301.36,115.2Zm.05-7.14a1.84,1.84,0,0,0-2,1.92,2,2,0,0,0,2.15,1.92,1.81,1.81,0,0,0,2-1.86A1.85,1.85,0,0,0,301.41,108.06Z" transform="translate(-1.74 0.03)" />
			<path class="d" d="M312.64,107.23l-2.93,9.06c-.61,1.85-1.71,2.33-2.8,2.33a4.85,4.85,0,0,1-.83-.09v-1a4.7,4.7,0,0,0,.62,0c.71,0,1.78-.16,2.18-2l-2.9-8.42h1.22l2.24,6.35h0l1.95-6.35Z" transform="translate(-1.74 0.03)" />
			<path class="d" d="M327.63,110a10.18,10.18,0,0,1-1.29,3.44,3.55,3.55,0,0,0,1.9,1v1.15h-.41a4.15,4.15,0,0,1-2.28-1.15,4.2,4.2,0,0,1-3.3,1.31,3.34,3.34,0,0,1-3.45-3.31c0-1.57,1.29-2.72,2.51-3.49a5.63,5.63,0,0,1-.91-2.77,2.34,2.34,0,0,1,2.59-2.31,2.15,2.15,0,0,1,2.37,2.15c0,1.34-1.38,2.4-2.43,3.17a19.68,19.68,0,0,0,2.61,3.49,8,8,0,0,0,1-2.92Zm-5.21,4.64a3.21,3.21,0,0,0,2.33-1,31.56,31.56,0,0,1-2.91-3.87,3.06,3.06,0,0,0-1.76,2.69A2.17,2.17,0,0,0,322.42,114.62Zm-.07-6.37c.8-.51,1.73-1.38,1.73-2.26a1.14,1.14,0,0,0-1.15-1.16,1.26,1.26,0,0,0-1.25,1.36A4.77,4.77,0,0,0,322.35,108.25Z" transform="translate(-1.74 0.03)" />
			<path class="d" d="M341.14,106.94a2.63,2.63,0,0,0-2.69-2c-1.35,0-2.15.64-2.16,1.79,0,2.53,6.49,1.89,6.49,5.61,0,1.68-.94,3.39-3.89,3.39a4.25,4.25,0,0,1-4.12-3l1.16-.42a3.16,3.16,0,0,0,3,2.34c1.7,0,2.54-.9,2.54-2.08,0-2.94-6.49-2.08-6.49-5.73,0-1.66,1.39-3,3.47-3a3.8,3.8,0,0,1,3.81,2.85Z" transform="translate(-1.74 0.03)" />
			<path class="d" d="M346.7,104v11.56h-1.15V104Z" transform="translate(-1.74 0.03)" />
			<path class="d" d="M356,113.77a3.34,3.34,0,0,1-3.2,1.94c-1.86,0-3.62-1.28-3.62-4.32,0-2.69,1.34-4.32,3.39-4.32,1.73,0,3.17,1.12,3.17,3.77v.77H350.3c0,1.83,1.09,3.11,2.47,3.11a2.58,2.58,0,0,0,2.3-1.41Zm-1.41-3.15c0-1.54-.74-2.56-2-2.56s-2.14,1-2.24,2.56Z" transform="translate(-1.74 0.03)" />
			<path class="d" d="M364.13,113.77a3.34,3.34,0,0,1-3.2,1.94c-1.86,0-3.62-1.28-3.62-4.32,0-2.69,1.34-4.32,3.39-4.32,1.73,0,3.17,1.12,3.17,3.77v.77h-5.41c0,1.83,1.09,3.11,2.47,3.11a2.58,2.58,0,0,0,2.3-1.41Zm-1.41-3.15c0-1.54-.74-2.56-2-2.56s-2.14,1-2.24,2.56Z" transform="translate(-1.74 0.03)" />
			<path class="d" d="M366.24,118.62V107.23h1.15v1h0a2.88,2.88,0,0,1,2.16-1.13c1.47,0,3.41,1,3.41,4.32s-1.94,4.32-3.34,4.32a3.58,3.58,0,0,1-2.2-.93l-.06,0v3.87Zm1.15-5.05a3.13,3.13,0,0,0,2.1,1.15c1.34,0,2.35-.88,2.35-3.4,0-2.11-.91-3.26-2.35-3.26a2.9,2.9,0,0,0-2.1,1.12Z" transform="translate(-1.74 0.03)" />
		</g>
	</g>
</svg>