<?xml version="1.0" encoding="utf-8"?>
<!-- Generator: Adobe Illustrator 23.0.6, SVG Export Plug-In . SVG Version: 6.00 Build 0)  -->
<svg version="1.1" id="Layer_1" xmlns="http://www.w3.org/2000/svg" xmlns:xlink="http://www.w3.org/1999/xlink" x="0px" y="0px"
	 viewBox="0 0 294.5 107.4" style="enable-background:new 0 0 294.5 107.4;" xml:space="preserve">
<style type="text/css">
	.st0{fill:#008576;stroke:#008576;stroke-width:0.1874;}
	.st1{fill:none;stroke:#000000;stroke-width:0.9335;stroke-miterlimit:10;}
	.st2{fill:#FFFFFF;}
</style>
<g id="g4188_2_" transform="translate(-0.6224255,-0.10898595)">
	<g id="g3354_2_" transform="translate(298.30107,600.34283)">
		<path id="path3356_2_" d="M-166.4-569.8c0,1.8-0.8,1.8-1.7,1.9v0.3h16.4v-3.7h-0.2c-0.3,2.8-1.2,2.8-4.1,2.8h-4.2
			c-2.5,0-3.3-0.1-3.3-3.9v-8.2h7.5c0.8,0,1.3,0,1.5,0.9h0.2v-2.5h-0.2c-0.1,0.9-0.8,0.9-1.7,0.9h-7.3v-12h7.9c1.8,0,1.8,0,2.5,2.8
			h0.2v-3.7h-15.1v0.3c1.6,0,1.7,0.7,1.7,2.7V-569.8z"/>
	</g>
	<g id="g3358_2_" transform="translate(324.95727,614.75153)">
		<path id="path3360_2_" d="M-161.9-601l0.1-0.2c0.3-0.7,0.6-1.3,1.5-1.3v-0.2h-2.8v0.2c0.6-0.1,0.7,0.3,0.7,0.4
			c0,0.2-0.2,0.7-0.2,0.9c0,0.1,0,0.1,0,0.1l-5.6,15.4l-5.6-15.4c-0.1-0.3-0.3-0.7-0.3-0.9c0-0.4,0.2-0.5,0.6-0.5v-0.2h-4.3v0.2
			c0.7,0,1.3,0.3,2.1,2.6l6.6,18.2h0.2L-161.9-601z"/>
	</g>
	<g id="g3362_2_" transform="translate(328.68627,599.92873)">
		<path id="path3364_2_" d="M-161.3-568.9c0,1.4-0.6,1.4-1.3,1.5v0.2h12.7v-2.8h-0.2c-0.3,2.2-1,2.2-3.2,2.2h-3.3
			c-1.9,0-2.6-0.1-2.6-3v-6.4h5.8c0.6,0,1,0,1.2,0.7h0.2v-2h-0.2c-0.1,0.7-0.6,0.7-1.3,0.7h-5.7v-9.3h6.1c1.4,0,1.4,0,1.9,2.2h0.2
			v-2.8h-11.7v0.2c1.3,0,1.3,0.5,1.3,2.1V-568.9z"/>
	</g>
	<g id="g3366_2_" transform="translate(343.87377,615.71443)">
		<path id="path3368_2_" d="M-158.8-603.1c1.8,0,2.8,0.4,3.5,1.3c1,1.1,1.4,2.7,1.4,4c0,2-1,3.2-1.9,3.8c-0.6,0.4-2,0.5-2.6,0.5
			h-1.9v-9.6H-158.8z M-163.8-583h4.8v-0.2c-0.9,0-1.3-0.1-1.3-1.8v-7.9h1.5c0.1,0,0.8,0,1,0l0.7,0l1.9,3.2c0,0,0.1,0.1,0.1,0.1
			c0,0.1,1.8,2.9,3.2,4.8c1.3,1.8,2.7,2,3.6,2c1.1,0,2-0.3,2.5-0.5c0.5-0.2,0.9-0.5,1.4-0.9l-0.1-0.3c-0.2,0.1-0.5,0.3-0.9,0.5
			c-0.3,0.1-0.6,0.3-1.3,0.3c-1.5,0-2.7-1.1-3.1-1.7c-1.4-1.8-3.6-5.4-3.9-5.9l-1.4-2.4c1.7-1,3.3-3,3.3-5.4c0-2.3-1.1-3.6-2.7-4.2
			c-1.1-0.4-1.9-0.4-4-0.4h-5.3v0.2c0.9,0,1.3,0.1,1.3,1.9v16.4c0,1.6-0.2,1.9-1.3,2V-583z"/>
	</g>
	<g id="g3370_2_" transform="translate(368.23557,598.67433)">
		<path id="path3372_2_" d="M-154.8-566.2c-0.9,0-1.1-0.6-1.1-1.8v-3.2c0-1,0.1-1.7,1.3-1.7v-0.2h-4.8v0.2c0.7,0,1.3,0.2,1.3,1.5
			v3.1c0,1.6-0.4,1.7-2.5,1.8l-1,0c-0.4,0-3.3-0.1-5.3-1.3c-1.3-0.8-3.7-3.1-3.7-8.1c0-5.4,2.9-10.5,8.2-10.5c2.7,0,5.1,1.4,6.4,3.2
			h0.2l-0.8-2.4c-1.9-0.9-3.8-1.4-5.8-1.4c-6.7,0-10.5,5.8-10.5,10.5c0,3.5,1.9,6.8,4.8,8.8c2.4,1.7,4.7,1.7,6.1,1.7h7.5v-0.2
			H-154.8z"/>
	</g>
	<g id="g3374_2_" transform="translate(374.00557,615.71443)">
		<path id="path3376_2_" d="M-153.8-603.1c1.8,0,2.8,0.4,3.5,1.3c1,1.1,1.4,2.7,1.4,4c0,2-1,3.2-1.9,3.8c-0.6,0.4-2,0.5-2.6,0.5
			h-1.9v-9.6H-153.8z M-158.8-583h4.8v-0.2c-0.9,0-1.3-0.1-1.3-1.8v-7.9h1.5c0.1,0,0.8,0,1,0l0.7,0l1.9,3.2c0,0,0.1,0.1,0.1,0.1
			c0.1,0.1,1.8,2.9,3.2,4.8c1.3,1.8,2.7,2,3.6,2c1.1,0,2-0.3,2.5-0.5c0.5-0.2,0.9-0.5,1.4-0.9l-0.1-0.3c-0.2,0.1-0.5,0.3-0.9,0.5
			c-0.3,0.1-0.6,0.3-1.3,0.3c-1.5,0-2.7-1.1-3.1-1.7c-1.4-1.8-3.6-5.4-3.9-5.9l-1.4-2.4c1.7-1,3.3-3,3.3-5.4c0-2.3-1.1-3.6-2.7-4.2
			c-1.1-0.4-1.9-0.4-4-0.4h-5.3v0.2c0.9,0,1.3,0.1,1.3,1.9v16.4c0,1.6-0.2,1.9-1.3,2V-583z"/>
	</g>
	<g id="g3378_2_" transform="translate(387.50707,599.92873)">
		<path id="path3380_2_" d="M-151.5-568.9c0,1.4-0.6,1.4-1.3,1.5v0.2h12.7v-2.8h-0.2c-0.3,2.2-1,2.2-3.2,2.2h-3.3
			c-1.9,0-2.6-0.1-2.6-3v-6.4h5.8c0.6,0,1,0,1.2,0.7h0.2v-2h-0.2c-0.1,0.7-0.6,0.7-1.3,0.7h-5.7v-9.3h6.1c1.4,0,1.4,0,1.9,2.2h0.2
			v-2.8h-11.7v0.2c1.3,0,1.3,0.5,1.3,2.1V-568.9z"/>
	</g>
	<g id="g3382_2_" transform="translate(399.74777,599.92873)">
		<path id="path3384_2_" d="M-149.5-568.9c0,1.4-0.6,1.4-1.3,1.5v0.2h12.7v-2.8h-0.2c-0.3,2.2-1,2.2-3.2,2.2h-3.3
			c-1.9,0-2.6-0.1-2.6-3v-6.4h5.8c0.6,0,1,0,1.2,0.7h0.2v-2h-0.2c-0.1,0.7-0.6,0.7-1.3,0.7h-5.7v-9.3h6.1c1.4,0,1.4,0,1.9,2.2h0.2
			v-2.8h-11.7v0.2c1.3,0,1.3,0.5,1.3,2.1V-568.9z"/>
	</g>
	<g id="g3386_2_" transform="translate(423.71117,616.03473)">
		<path id="path3388_2_" d="M-145.5-603.8c0.8,0,1.3,0.2,1.3,1.7v14.6l-13.9-16.5h-3.5v0.2c2.6-0.1,2.6,2.7,2.6,4.1v14
			c0,1.7,0,2.1-1.4,2.2v0.2h3.6v-0.2c-1-0.1-1.3-0.2-1.3-1.8v-15.3l14.8,17.6v-18.8c0-1.6,0.4-1.9,1.5-1.9v-0.2h-3.6V-603.8z"/>
	</g>
	<g id="g3390_2_" transform="translate(298.28299,569.57445)">
		<path id="path3392_2_" d="M-166.4-503.1c0,1.8-0.8,1.8-1.7,1.9v0.3h16.4v-3.7h-0.2c-0.3,2.8-1.2,2.8-4.1,2.8h-4.2
			c-2.5,0-3.3-0.1-3.3-3.9v-8.2h7.5c0.8,0,1.3,0,1.5,0.9h0.2v-2.5h-0.2c-0.1,0.9-0.8,0.9-1.7,0.9h-7.3v-12h7.9c1.8,0,1.8,0,2.5,2.8
			h0.2v-3.7h-15.1v0.3c1.6,0,1.7,0.7,1.7,2.7V-503.1z"/>
	</g>
	<g id="g3394_2_" transform="translate(321.37039,585.26635)">
		<path id="path3396_2_" d="M-162.5-537.1L-162.5-537.1c0.2,0,0.6,0,0.6,0.5c0,0.3-0.3,0.6-0.3,0.8l-4.2,7l-3.8-6.9
			c0-0.1-0.3-0.6-0.3-0.8c0-0.5,0.4-0.5,0.6-0.5v-0.2h-4.4v0.2c0.9,0,1.4,0.9,1.6,1.3l4.5,8.4v8.7l0,0.5c0,1.4-0.9,1.4-1.4,1.4v0.2
			h5v-0.2c-1.2,0-1.4-0.3-1.4-1.9v-9.5l4.6-7.6c0.6-1,1-1.2,1.7-1.3v-0.2h-2.8V-537.1z"/>
	</g>
	<g id="g3398_2_" transform="translate(325.89769,569.16035)">
		<path id="path3400_2_" d="M-161.8-502.2c0,1.4-0.6,1.4-1.3,1.5v0.2h12.7v-2.8h-0.2c-0.3,2.2-1,2.2-3.2,2.2h-3.3
			c-1.9,0-2.6-0.1-2.6-3v-6.4h5.8c0.6,0,1,0,1.2,0.7h0.2v-2h-0.2c-0.1,0.7-0.6,0.7-1.3,0.7h-5.7v-9.3h6.1c1.4,0,1.4,0,1.9,2.2h0.2
			v-2.8h-11.7v0.2c1.3,0,1.3,0.5,1.3,2.1V-502.2z"/>
	</g>
	<g id="g3402_2_" transform="translate(363.05489,570.97095)">
		<path id="path3404_2_" d="M-155.6-506.2l-0.2-0.1c-1.7,2.2-5.6,3.6-9.2,3.6c-9.6,0-12.6-10.1-12.6-15c0-5.3,3.6-11.1,10.9-11.1
			c4.3,0,7.2,2.7,8.2,3.9h0.2l-0.9-2.8c0,0-0.2-0.1-0.3-0.1c-1.8-0.8-3.8-1.6-6.8-1.6c-9.1,0-13.7,7.4-13.7,14.3
			c0,4.4,1.8,8.3,4.4,10.4c1.9,1.5,4.6,2.8,9.7,2.8c3.2,0,4.4-0.3,8.5-1.3L-155.6-506.2z"/>
	</g>
	<g id="g3406_2_" transform="translate(365.26979,569.16035)">
		<path id="path3408_2_" d="M-155.2-502.2c0,1.4-0.6,1.4-1.3,1.5v0.2h12.7v-2.8h-0.2c-0.3,2.2-1,2.2-3.2,2.2h-3.3
			c-1.9,0-2.6-0.1-2.6-3v-6.4h5.8c0.6,0,1,0,1.2,0.7h0.2v-2h-0.2c-0.1,0.7-0.6,0.7-1.3,0.7h-5.7v-9.3h6.1c1.4,0,1.4,0,1.9,2.2h0.2
			v-2.8h-11.7v0.2c1.3,0,1.3,0.5,1.3,2.1V-502.2z"/>
	</g>
	<g id="g3410_2_" transform="translate(389.22969,585.26635)">
		<path id="path3412_2_" d="M-151.3-537.1c0.8,0,1.3,0.2,1.3,1.7v14.6l-13.9-16.5h-3.5v0.2c2.6-0.1,2.6,2.7,2.6,4.1v14
			c0,1.7,0,2.1-1.4,2.2v0.2h3.6v-0.2c-1-0.1-1.3-0.2-1.3-1.8V-534l14.8,17.6v-18.8c0-1.6,0.4-1.9,1.4-1.9v-0.2h-3.6V-537.1z"/>
	</g>
	<g id="g3414_2_" transform="translate(406.32539,586.05345)">
		<path id="path3416_2_" d="M-148.4-538.8c-0.3,0.8-0.8,0.7-1.5,0.7h-12.4c-0.4,0-0.7,0-0.9-0.1c-0.2-0.1-0.3-0.3-0.5-0.6h-0.2
			l0.9,2.5h0.2c-0.1-0.3-0.1-0.4-0.1-0.6c0-0.5,0.3-0.5,1.1-0.5h4.6v17.9c0,1.6-0.3,1.7-1.4,1.8v0.2h5v-0.2c-1.3,0-1.5-0.5-1.5-2.1
			v-17.7h4.9c0.4,0,0.9-0.1,0.9,0.5c0,0.2,0,0.3-0.1,0.6h0.2l0.9-2.5H-148.4z"/>
	</g>
	<g id="g3418_2_" transform="translate(408.46019,569.16035)">
		<path id="path3420_2_" d="M-148.1-502.2c0,1.4-0.6,1.4-1.3,1.5v0.2h12.7v-2.8h-0.2c-0.3,2.2-1,2.2-3.2,2.2h-3.3
			c-1.9,0-2.6-0.1-2.6-3v-6.4h5.8c0.6,0,1,0,1.2,0.7h0.2v-2h-0.2c-0.1,0.7-0.6,0.7-1.3,0.7h-5.7v-9.3h6.1c1.4,0,1.4,0,1.9,2.2h0.2
			v-2.8h-11.7v0.2c1.3,0,1.3,0.5,1.3,2.1V-502.2z"/>
	</g>
	<g id="g3422_2_" transform="translate(423.64379,584.94605)">
		<path id="path3424_2_" d="M-145.5-536.4c1.8,0,2.8,0.4,3.5,1.3c1,1.1,1.4,2.7,1.4,4c0,2-1,3.2-1.9,3.8c-0.6,0.4-2,0.5-2.6,0.5
			h-1.9v-9.6H-145.5z M-150.6-516.4h4.8v-0.2c-0.9,0-1.3-0.1-1.3-1.8v-7.9h1.5c0.1,0,0.8,0,1,0l0.7,0l1.9,3.2c0,0,0.1,0.1,0.1,0.1
			c0,0.1,1.8,2.9,3.2,4.8c1.3,1.8,2.7,2,3.6,2c1.1,0,2-0.3,2.5-0.5c0.5-0.2,0.9-0.5,1.4-0.9l-0.1-0.3c-0.2,0.1-0.5,0.3-0.9,0.5
			c-0.3,0.1-0.6,0.3-1.3,0.3c-1.5,0-2.7-1.1-3.1-1.7c-1.4-1.8-3.6-5.4-3.9-5.9l-1.4-2.4c1.7-1,3.3-3,3.3-5.4c0-2.3-1.1-3.6-2.7-4.2
			c-1.1-0.4-1.9-0.4-4-0.4h-5.3v0.2c0.9,0,1.3,0.1,1.3,1.9v16.4c0,1.6-0.2,1.9-1.3,2V-516.4L-150.6-516.4z"/>
	</g>
</g>
<rect id="rect4748_2_" x="2.8" y="3.8" class="st0" width="117.6" height="66.2"/>
<g>
	<path d="M4.9,100.7V88.2h1.2v11.3h7.2v1.1H4.9z"/>
	<path d="M18.4,100.8c-0.7,0-1.3-0.1-1.8-0.4c-0.6-0.3-1-0.6-1.5-1c-0.4-0.4-0.7-0.9-1-1.5c-0.2-0.6-0.3-1.2-0.3-1.8
		c0-0.6,0.1-1.2,0.3-1.8c0.2-0.6,0.5-1.1,1-1.5c0.4-0.4,0.9-0.8,1.4-1c0.6-0.3,1.2-0.4,1.8-0.4c0.7,0,1.3,0.1,1.8,0.4
		c0.6,0.3,1,0.6,1.4,1c0.4,0.4,0.7,0.9,0.9,1.5c0.2,0.6,0.3,1.2,0.3,1.8c0,0.1,0,0.2,0,0.3c0,0.1,0,0.2,0,0.2h-7.8
		c0,0.5,0.1,0.9,0.3,1.4c0.2,0.4,0.4,0.8,0.7,1.1c0.3,0.3,0.6,0.5,1,0.7c0.4,0.2,0.8,0.3,1.3,0.3c0.3,0,0.6,0,0.9-0.1
		c0.3-0.1,0.6-0.2,0.8-0.3c0.2-0.1,0.5-0.3,0.7-0.5c0.2-0.2,0.3-0.4,0.4-0.7l1,0.3c-0.1,0.3-0.3,0.6-0.6,0.9
		c-0.3,0.3-0.6,0.5-0.9,0.7c-0.3,0.2-0.7,0.4-1.1,0.5C19.3,100.8,18.9,100.8,18.4,100.8z M21.8,95.6c0-0.5-0.1-0.9-0.3-1.3
		c-0.2-0.4-0.4-0.7-0.7-1c-0.3-0.3-0.6-0.5-1-0.7c-0.4-0.2-0.8-0.2-1.3-0.2c-0.4,0-0.9,0.1-1.3,0.2c-0.4,0.2-0.7,0.4-1,0.7
		c-0.3,0.3-0.5,0.6-0.7,1c-0.2,0.4-0.3,0.9-0.3,1.3H21.8z"/>
	<path d="M26.7,100.8c-0.5,0-0.9-0.1-1.3-0.2c-0.4-0.1-0.7-0.3-1-0.6c-0.3-0.3-0.5-0.6-0.6-0.9c-0.2-0.3-0.2-0.7-0.2-1.1
		c0-0.4,0.1-0.8,0.3-1.1c0.2-0.3,0.4-0.6,0.8-0.9c0.3-0.2,0.7-0.4,1.2-0.6c0.5-0.1,1-0.2,1.6-0.2c0.5,0,0.9,0,1.4,0.1
		c0.5,0.1,0.9,0.2,1.3,0.4v-0.8c0-0.8-0.2-1.4-0.7-1.9c-0.5-0.5-1.1-0.7-1.9-0.7c-0.5,0-1,0.1-1.5,0.3c-0.5,0.2-1,0.5-1.5,0.8
		l-0.4-0.8c0.6-0.4,1.2-0.7,1.7-0.9c0.6-0.2,1.1-0.3,1.7-0.3c1.1,0,2,0.3,2.6,1c0.7,0.6,1,1.5,1,2.7v4.1c0,0.3,0.1,0.5,0.4,0.5v1.1
		c-0.1,0-0.2,0-0.3,0c-0.1,0-0.2,0-0.2,0c-0.2,0-0.4-0.1-0.6-0.2c-0.2-0.1-0.3-0.3-0.3-0.6l0-0.7c-0.4,0.5-0.9,1-1.6,1.3
		C28,100.7,27.4,100.8,26.7,100.8z M27,99.9c0.5,0,1-0.1,1.6-0.3c0.5-0.2,0.9-0.5,1.2-0.9c0.1-0.1,0.2-0.2,0.2-0.3
		c0.1-0.1,0.1-0.2,0.1-0.3v-1.5c-0.4-0.2-0.8-0.3-1.2-0.3C28.4,96.1,28,96,27.6,96c-0.9,0-1.5,0.2-2.1,0.5c-0.5,0.3-0.8,0.8-0.8,1.4
		c0,0.2,0,0.5,0.1,0.7c0.1,0.2,0.2,0.4,0.4,0.6c0.2,0.2,0.4,0.3,0.7,0.5C26.3,99.9,26.6,99.9,27,99.9z"/>
	<path d="M37.2,100.8c-0.6,0-1.2-0.1-1.7-0.4c-0.5-0.3-1-0.6-1.4-1c-0.4-0.4-0.7-0.9-0.9-1.5c-0.2-0.6-0.3-1.2-0.3-1.8
		c0-0.6,0.1-1.3,0.3-1.8c0.2-0.6,0.5-1.1,0.9-1.5c0.4-0.4,0.8-0.8,1.3-1c0.5-0.3,1.1-0.4,1.7-0.4c0.8,0,1.5,0.2,2,0.6
		c0.6,0.4,1.1,0.9,1.4,1.5v-5.6h1.2v11.2c0,0.3,0.1,0.5,0.4,0.5v1.1c-0.2,0-0.4,0.1-0.5,0.1c-0.3,0-0.5-0.1-0.7-0.3
		c-0.2-0.2-0.3-0.4-0.3-0.6v-1c-0.4,0.6-0.9,1.1-1.5,1.4C38.5,100.7,37.9,100.8,37.2,100.8z M37.5,99.8c0.3,0,0.6-0.1,1-0.2
		c0.3-0.1,0.6-0.3,0.9-0.5c0.3-0.2,0.5-0.4,0.7-0.7c0.2-0.3,0.3-0.6,0.4-0.9v-2.8c-0.1-0.3-0.3-0.6-0.5-0.9
		c-0.2-0.3-0.5-0.5-0.8-0.7c-0.3-0.2-0.6-0.4-0.9-0.5s-0.6-0.2-1-0.2c-0.5,0-0.9,0.1-1.3,0.3c-0.4,0.2-0.7,0.5-1,0.8
		c-0.3,0.3-0.5,0.7-0.7,1.2c-0.2,0.4-0.2,0.9-0.2,1.4c0,0.5,0.1,1,0.3,1.4c0.2,0.4,0.4,0.8,0.7,1.2s0.7,0.6,1.1,0.8
		C36.5,99.7,37,99.8,37.5,99.8z"/>
	<path d="M43.9,89.6v-1.7h1.2v1.7H43.9z M43.9,100.7v-9.1h1.2v9.1H43.9z"/>
	<path d="M54.9,100.7h-1.2v-5.1c0-1.1-0.2-1.9-0.5-2.4c-0.3-0.5-0.8-0.7-1.5-0.7c-0.3,0-0.7,0.1-1,0.2c-0.4,0.1-0.7,0.3-1,0.5
		c-0.3,0.2-0.6,0.5-0.8,0.8c-0.2,0.3-0.4,0.7-0.5,1v5.6h-1.2v-9.1h1.1v2.1c0.2-0.3,0.4-0.6,0.7-0.9c0.3-0.3,0.6-0.5,0.9-0.7
		c0.3-0.2,0.7-0.4,1.1-0.5c0.4-0.1,0.8-0.2,1.2-0.2c0.5,0,0.9,0.1,1.3,0.3c0.3,0.2,0.6,0.4,0.8,0.8c0.2,0.3,0.4,0.8,0.5,1.2
		c0.1,0.5,0.1,1,0.1,1.6V100.7z"/>
	<path d="M60.6,100.8c-0.6,0-1.2-0.1-1.7-0.4c-0.5-0.3-1-0.6-1.3-1c-0.4-0.4-0.7-0.9-0.9-1.5c-0.2-0.6-0.3-1.1-0.3-1.7
		c0-0.6,0.1-1.2,0.3-1.8s0.5-1.1,0.9-1.5c0.4-0.4,0.8-0.8,1.3-1c0.5-0.3,1.1-0.4,1.7-0.4c0.8,0,1.5,0.2,2,0.6
		c0.6,0.4,1.1,0.9,1.5,1.5v-1.9h1.1v9.2c0,0.6-0.1,1.2-0.4,1.7c-0.2,0.5-0.6,0.9-1,1.2c-0.4,0.3-0.9,0.6-1.4,0.7
		c-0.5,0.2-1.1,0.2-1.7,0.2c-1,0-1.9-0.2-2.5-0.6c-0.6-0.4-1.2-0.9-1.6-1.5l0.7-0.6c0.4,0.6,0.8,1,1.4,1.3c0.6,0.3,1.2,0.4,1.9,0.4
		c0.4,0,0.9-0.1,1.3-0.2c0.4-0.1,0.8-0.3,1.1-0.5c0.3-0.2,0.5-0.5,0.7-0.9c0.2-0.4,0.3-0.8,0.3-1.3v-1.8c-0.4,0.6-0.8,1-1.4,1.4
		C61.9,100.6,61.3,100.8,60.6,100.8z M60.9,99.8c0.3,0,0.7-0.1,1-0.2c0.3-0.1,0.6-0.3,0.9-0.5c0.3-0.2,0.5-0.5,0.7-0.7
		c0.2-0.3,0.3-0.5,0.4-0.8v-2.8c-0.1-0.3-0.3-0.6-0.5-0.9c-0.2-0.3-0.5-0.5-0.8-0.7c-0.3-0.2-0.6-0.4-0.9-0.5s-0.6-0.2-1-0.2
		c-0.5,0-1,0.1-1.4,0.3c-0.4,0.2-0.7,0.5-1,0.8c-0.3,0.3-0.5,0.7-0.6,1.2c-0.1,0.4-0.2,0.9-0.2,1.3c0,0.5,0.1,1,0.3,1.4
		c0.2,0.4,0.4,0.8,0.7,1.2c0.3,0.3,0.7,0.6,1.1,0.8C60,99.7,60.5,99.8,60.9,99.8z"/>
	<path d="M67.1,96.4v-1.1h5.1v1.1H67.1z"/>
	<path d="M78.2,100.8c-0.7,0-1.3-0.1-1.8-0.4c-0.6-0.3-1-0.6-1.5-1c-0.4-0.4-0.7-0.9-1-1.5c-0.2-0.6-0.3-1.2-0.3-1.8
		c0-0.6,0.1-1.2,0.3-1.8c0.2-0.6,0.5-1.1,1-1.5c0.4-0.4,0.9-0.8,1.4-1c0.6-0.3,1.2-0.4,1.8-0.4c0.7,0,1.3,0.1,1.8,0.4
		c0.6,0.3,1,0.6,1.4,1c0.4,0.4,0.7,0.9,0.9,1.5c0.2,0.6,0.3,1.2,0.3,1.8c0,0.1,0,0.2,0,0.3c0,0.1,0,0.2,0,0.2h-7.8
		c0,0.5,0.1,0.9,0.3,1.4c0.2,0.4,0.4,0.8,0.7,1.1c0.3,0.3,0.6,0.5,1,0.7c0.4,0.2,0.8,0.3,1.3,0.3c0.3,0,0.6,0,0.9-0.1
		c0.3-0.1,0.6-0.2,0.8-0.3c0.2-0.1,0.5-0.3,0.7-0.5c0.2-0.2,0.3-0.4,0.4-0.7l1,0.3c-0.1,0.3-0.3,0.6-0.6,0.9
		c-0.3,0.3-0.6,0.5-0.9,0.7c-0.3,0.2-0.7,0.4-1.1,0.5C79.1,100.8,78.6,100.8,78.2,100.8z M81.6,95.6c0-0.5-0.1-0.9-0.3-1.3
		c-0.2-0.4-0.4-0.7-0.7-1c-0.3-0.3-0.6-0.5-1-0.7c-0.4-0.2-0.8-0.2-1.3-0.2c-0.4,0-0.9,0.1-1.3,0.2c-0.4,0.2-0.7,0.4-1,0.7
		s-0.5,0.6-0.7,1c-0.2,0.4-0.3,0.9-0.3,1.3H81.6z"/>
	<path d="M87.8,100.8c-0.6,0-1.2-0.1-1.7-0.4c-0.5-0.3-1-0.6-1.4-1c-0.4-0.4-0.7-0.9-0.9-1.5c-0.2-0.6-0.3-1.2-0.3-1.8
		c0-0.6,0.1-1.3,0.3-1.8c0.2-0.6,0.5-1.1,0.9-1.5c0.4-0.4,0.8-0.8,1.3-1c0.5-0.3,1.1-0.4,1.7-0.4c0.8,0,1.5,0.2,2,0.6
		c0.6,0.4,1.1,0.9,1.4,1.5v-5.6h1.2v11.2c0,0.3,0.1,0.5,0.4,0.5v1.1c-0.2,0-0.4,0.1-0.5,0.1c-0.3,0-0.5-0.1-0.7-0.3
		c-0.2-0.2-0.3-0.4-0.3-0.6v-1c-0.4,0.6-0.9,1.1-1.5,1.4C89.1,100.7,88.5,100.8,87.8,100.8z M88.1,99.8c0.3,0,0.6-0.1,1-0.2
		c0.3-0.1,0.6-0.3,0.9-0.5c0.3-0.2,0.5-0.4,0.7-0.7c0.2-0.3,0.3-0.6,0.4-0.9v-2.8c-0.1-0.3-0.3-0.6-0.5-0.9
		c-0.2-0.3-0.5-0.5-0.8-0.7c-0.3-0.2-0.6-0.4-0.9-0.5c-0.3-0.1-0.6-0.2-1-0.2c-0.5,0-0.9,0.1-1.3,0.3c-0.4,0.2-0.7,0.5-1,0.8
		c-0.3,0.3-0.5,0.7-0.7,1.2c-0.2,0.4-0.2,0.9-0.2,1.4c0,0.5,0.1,1,0.3,1.4c0.2,0.4,0.4,0.8,0.7,1.2c0.3,0.3,0.7,0.6,1.1,0.8
		C87.2,99.7,87.6,99.8,88.1,99.8z"/>
	<path d="M98.2,100.8c-0.6,0-1.2-0.1-1.7-0.4c-0.5-0.3-1-0.6-1.3-1c-0.4-0.4-0.7-0.9-0.9-1.5c-0.2-0.6-0.3-1.1-0.3-1.7
		c0-0.6,0.1-1.2,0.3-1.8c0.2-0.6,0.5-1.1,0.9-1.5c0.4-0.4,0.8-0.8,1.3-1c0.5-0.3,1.1-0.4,1.7-0.4c0.8,0,1.5,0.2,2,0.6
		c0.6,0.4,1.1,0.9,1.5,1.5v-1.9h1.1v9.2c0,0.6-0.1,1.2-0.4,1.7c-0.2,0.5-0.6,0.9-1,1.2c-0.4,0.3-0.9,0.6-1.4,0.7
		c-0.5,0.2-1.1,0.2-1.7,0.2c-1,0-1.9-0.2-2.5-0.6c-0.6-0.4-1.2-0.9-1.6-1.5l0.7-0.6c0.4,0.6,0.8,1,1.4,1.3c0.6,0.3,1.2,0.4,1.9,0.4
		c0.4,0,0.9-0.1,1.3-0.2c0.4-0.1,0.8-0.3,1.1-0.5c0.3-0.2,0.5-0.5,0.7-0.9c0.2-0.4,0.3-0.8,0.3-1.3v-1.8c-0.4,0.6-0.8,1-1.4,1.4
		C99.5,100.6,98.9,100.8,98.2,100.8z M98.5,99.8c0.3,0,0.7-0.1,1-0.2c0.3-0.1,0.6-0.3,0.9-0.5c0.3-0.2,0.5-0.5,0.7-0.7
		c0.2-0.3,0.3-0.5,0.4-0.8v-2.8c-0.1-0.3-0.3-0.6-0.5-0.9c-0.2-0.3-0.5-0.5-0.8-0.7c-0.3-0.2-0.6-0.4-0.9-0.5s-0.6-0.2-1-0.2
		c-0.5,0-1,0.1-1.4,0.3c-0.4,0.2-0.7,0.5-1,0.8c-0.3,0.3-0.5,0.7-0.6,1.2c-0.1,0.4-0.2,0.9-0.2,1.3c0,0.5,0.1,1,0.3,1.4
		c0.2,0.4,0.4,0.8,0.7,1.2c0.3,0.3,0.7,0.6,1.1,0.8C97.6,99.7,98.1,99.8,98.5,99.8z"/>
	<path d="M108.9,100.8c-0.7,0-1.3-0.1-1.8-0.4c-0.6-0.3-1-0.6-1.5-1c-0.4-0.4-0.7-0.9-1-1.5c-0.2-0.6-0.3-1.2-0.3-1.8
		c0-0.6,0.1-1.2,0.3-1.8c0.2-0.6,0.5-1.1,1-1.5c0.4-0.4,0.9-0.8,1.4-1c0.6-0.3,1.2-0.4,1.8-0.4c0.7,0,1.3,0.1,1.8,0.4
		c0.6,0.3,1,0.6,1.4,1c0.4,0.4,0.7,0.9,0.9,1.5c0.2,0.6,0.3,1.2,0.3,1.8c0,0.1,0,0.2,0,0.3c0,0.1,0,0.2,0,0.2h-7.8
		c0,0.5,0.1,0.9,0.3,1.4c0.2,0.4,0.4,0.8,0.7,1.1c0.3,0.3,0.6,0.5,1,0.7c0.4,0.2,0.8,0.3,1.3,0.3c0.3,0,0.6,0,0.9-0.1
		c0.3-0.1,0.6-0.2,0.8-0.3c0.2-0.1,0.5-0.3,0.7-0.5c0.2-0.2,0.3-0.4,0.4-0.7l1,0.3c-0.1,0.3-0.3,0.6-0.6,0.9
		c-0.3,0.3-0.6,0.5-0.9,0.7c-0.3,0.2-0.7,0.4-1.1,0.5C109.7,100.8,109.3,100.8,108.9,100.8z M112.2,95.6c0-0.5-0.1-0.9-0.3-1.3
		c-0.2-0.4-0.4-0.7-0.7-1c-0.3-0.3-0.6-0.5-1-0.7c-0.4-0.2-0.8-0.2-1.3-0.2c-0.4,0-0.9,0.1-1.3,0.2c-0.4,0.2-0.7,0.4-1,0.7
		s-0.5,0.6-0.7,1c-0.2,0.4-0.3,0.9-0.3,1.3H112.2z"/>
	<path d="M114.4,100.9c0.1,0,0.2,0,0.2-0.1c0.1,0,0.1-0.1,0.1-0.3V99h1v1.8c0,0.2,0,0.4-0.1,0.5c-0.1,0.1-0.2,0.3-0.3,0.3
		c-0.1,0.1-0.3,0.2-0.4,0.2c-0.2,0-0.3,0.1-0.5,0.1V100.9z"/>
	<path d="M126.6,100.8c-0.8,0-1.5-0.2-2-0.6c-0.6-0.4-1.1-0.9-1.4-1.5v5.6h-1.2V91.5h1.1v1.8c0.4-0.6,0.9-1,1.5-1.4
		c0.6-0.4,1.2-0.5,1.9-0.5c0.6,0,1.2,0.1,1.7,0.4c0.5,0.3,1,0.6,1.4,1c0.4,0.4,0.7,0.9,0.9,1.5c0.2,0.6,0.3,1.2,0.3,1.8
		c0,0.6-0.1,1.2-0.3,1.8c-0.2,0.6-0.5,1.1-0.8,1.5c-0.4,0.4-0.8,0.8-1.3,1C127.7,100.7,127.2,100.8,126.6,100.8z M126.2,99.8
		c0.5,0,0.9-0.1,1.3-0.3c0.4-0.2,0.7-0.5,1-0.8c0.3-0.3,0.5-0.7,0.7-1.2c0.2-0.4,0.2-0.9,0.2-1.4c0-0.5-0.1-1-0.3-1.4
		c-0.2-0.4-0.4-0.8-0.7-1.2c-0.3-0.3-0.7-0.6-1.1-0.8c-0.4-0.2-0.9-0.3-1.3-0.3c-0.3,0-0.6,0.1-0.9,0.2c-0.3,0.1-0.6,0.3-0.9,0.5
		c-0.3,0.2-0.5,0.4-0.7,0.7c-0.2,0.3-0.3,0.6-0.4,0.9v2.8c0.1,0.3,0.3,0.6,0.5,0.9c0.2,0.3,0.5,0.5,0.7,0.7c0.3,0.2,0.6,0.4,0.9,0.5
		C125.6,99.7,125.9,99.8,126.2,99.8z"/>
	<path d="M134.6,100.8c-0.5,0-0.9-0.1-1.3-0.2c-0.4-0.1-0.7-0.3-1-0.6c-0.3-0.3-0.5-0.6-0.6-0.9c-0.2-0.3-0.2-0.7-0.2-1.1
		c0-0.4,0.1-0.8,0.3-1.1c0.2-0.3,0.4-0.6,0.8-0.9c0.3-0.2,0.7-0.4,1.2-0.6c0.5-0.1,1-0.2,1.6-0.2c0.5,0,0.9,0,1.4,0.1
		c0.5,0.1,0.9,0.2,1.3,0.4v-0.8c0-0.8-0.2-1.4-0.7-1.9c-0.5-0.5-1.1-0.7-1.9-0.7c-0.5,0-1,0.1-1.5,0.3c-0.5,0.2-1,0.5-1.5,0.8
		l-0.4-0.8c0.6-0.4,1.2-0.7,1.7-0.9c0.6-0.2,1.1-0.3,1.7-0.3c1.1,0,2,0.3,2.6,1c0.7,0.6,1,1.5,1,2.7v4.1c0,0.3,0.1,0.5,0.4,0.5v1.1
		c-0.1,0-0.2,0-0.3,0c-0.1,0-0.2,0-0.2,0c-0.2,0-0.4-0.1-0.6-0.2c-0.2-0.1-0.3-0.3-0.3-0.6l0-0.7c-0.4,0.5-0.9,1-1.6,1.3
		C136,100.7,135.3,100.8,134.6,100.8z M134.9,99.9c0.5,0,1-0.1,1.6-0.3c0.5-0.2,0.9-0.5,1.2-0.9c0.1-0.1,0.2-0.2,0.2-0.3
		c0.1-0.1,0.1-0.2,0.1-0.3v-1.5c-0.4-0.2-0.8-0.3-1.2-0.3c-0.4-0.1-0.9-0.1-1.3-0.1c-0.9,0-1.5,0.2-2.1,0.5
		c-0.5,0.3-0.8,0.8-0.8,1.4c0,0.2,0,0.5,0.1,0.7c0.1,0.2,0.2,0.4,0.4,0.6c0.2,0.2,0.4,0.3,0.7,0.5C134.2,99.9,134.5,99.9,134.9,99.9
		z"/>
	<path d="M145.7,100.2c-0.1,0-0.2,0.1-0.3,0.1c-0.1,0.1-0.3,0.1-0.5,0.2c-0.2,0.1-0.4,0.1-0.6,0.2c-0.2,0-0.5,0.1-0.7,0.1
		c-0.3,0-0.5,0-0.7-0.1c-0.2-0.1-0.4-0.2-0.6-0.3c-0.2-0.1-0.3-0.3-0.4-0.6c-0.1-0.2-0.2-0.5-0.2-0.8v-6.5h-1.3v-0.9h1.3v-3.1h1.2
		v3.1h2.1v0.9h-2.1v6.2c0,0.3,0.1,0.6,0.4,0.7c0.2,0.2,0.5,0.2,0.8,0.2c0.3,0,0.6-0.1,0.9-0.2c0.3-0.1,0.4-0.2,0.5-0.2L145.7,100.2z
		"/>
	<path d="M146.6,89.6v-1.7h1.2v1.7H146.6z M146.6,100.7v-9.1h1.2v9.1H146.6z"/>
	<path d="M153.9,100.8c-0.7,0-1.3-0.1-1.8-0.4c-0.6-0.3-1-0.6-1.5-1c-0.4-0.4-0.7-0.9-1-1.5c-0.2-0.6-0.3-1.2-0.3-1.8
		c0-0.6,0.1-1.2,0.3-1.8c0.2-0.6,0.5-1.1,1-1.5c0.4-0.4,0.9-0.8,1.4-1c0.6-0.3,1.2-0.4,1.8-0.4c0.7,0,1.3,0.1,1.8,0.4
		c0.6,0.3,1,0.6,1.4,1c0.4,0.4,0.7,0.9,0.9,1.5c0.2,0.6,0.3,1.2,0.3,1.8c0,0.1,0,0.2,0,0.3c0,0.1,0,0.2,0,0.2h-7.8
		c0,0.5,0.1,0.9,0.3,1.4c0.2,0.4,0.4,0.8,0.7,1.1c0.3,0.3,0.6,0.5,1,0.7c0.4,0.2,0.8,0.3,1.3,0.3c0.3,0,0.6,0,0.9-0.1
		c0.3-0.1,0.6-0.2,0.8-0.3c0.2-0.1,0.5-0.3,0.7-0.5c0.2-0.2,0.3-0.4,0.4-0.7l1,0.3c-0.1,0.3-0.3,0.6-0.6,0.9
		c-0.3,0.3-0.6,0.5-0.9,0.7c-0.3,0.2-0.7,0.4-1.1,0.5C154.8,100.8,154.4,100.8,153.9,100.8z M157.3,95.6c0-0.5-0.1-0.9-0.3-1.3
		c-0.2-0.4-0.4-0.7-0.7-1c-0.3-0.3-0.6-0.5-1-0.7c-0.4-0.2-0.8-0.2-1.3-0.2c-0.4,0-0.9,0.1-1.3,0.2c-0.4,0.2-0.7,0.4-1,0.7
		s-0.5,0.6-0.7,1c-0.2,0.4-0.3,0.9-0.3,1.3H157.3z"/>
	<path d="M167.4,100.7h-1.2v-5.1c0-1.1-0.2-1.9-0.5-2.4c-0.3-0.5-0.8-0.7-1.5-0.7c-0.3,0-0.7,0.1-1,0.2c-0.4,0.1-0.7,0.3-1,0.5
		s-0.6,0.5-0.8,0.8c-0.2,0.3-0.4,0.7-0.5,1v5.6h-1.2v-9.1h1.1v2.1c0.2-0.3,0.4-0.6,0.7-0.9c0.3-0.3,0.6-0.5,0.9-0.7
		c0.3-0.2,0.7-0.4,1.1-0.5c0.4-0.1,0.8-0.2,1.2-0.2c0.5,0,0.9,0.1,1.3,0.3c0.3,0.2,0.6,0.4,0.8,0.8c0.2,0.3,0.4,0.8,0.5,1.2
		c0.1,0.5,0.1,1,0.1,1.6V100.7z"/>
	<path d="M173.8,100.2c-0.1,0-0.2,0.1-0.3,0.1c-0.1,0.1-0.3,0.1-0.5,0.2c-0.2,0.1-0.4,0.1-0.6,0.2c-0.2,0-0.5,0.1-0.7,0.1
		c-0.3,0-0.5,0-0.7-0.1c-0.2-0.1-0.4-0.2-0.6-0.3c-0.2-0.1-0.3-0.3-0.4-0.6c-0.1-0.2-0.2-0.5-0.2-0.8v-6.5h-1.3v-0.9h1.3v-3.1h1.2
		v3.1h2.1v0.9H171v6.2c0,0.3,0.1,0.6,0.4,0.7c0.2,0.2,0.5,0.2,0.8,0.2c0.3,0,0.6-0.1,0.9-0.2c0.3-0.1,0.4-0.2,0.5-0.2L173.8,100.2z"
		/>
	<path d="M174.4,96.4v-1.1h5.1v1.1H174.4z"/>
	<path d="M180.9,96.1c0-0.6,0.1-1.2,0.3-1.8c0.2-0.6,0.5-1.1,0.9-1.5c0.4-0.4,0.9-0.8,1.4-1c0.6-0.2,1.2-0.4,1.9-0.4
		c0.9,0,1.6,0.2,2.3,0.6c0.6,0.4,1.1,0.9,1.5,1.6l-1.2,0.4c-0.3-0.5-0.6-0.8-1.1-1.1c-0.5-0.3-1-0.4-1.5-0.4c-0.5,0-0.9,0.1-1.3,0.3
		c-0.4,0.2-0.8,0.4-1.1,0.8c-0.3,0.3-0.5,0.7-0.7,1.1c-0.2,0.4-0.3,0.9-0.3,1.5c0,0.5,0.1,1,0.3,1.5c0.2,0.5,0.4,0.8,0.7,1.2
		c0.3,0.3,0.7,0.6,1.1,0.8c0.4,0.2,0.8,0.3,1.3,0.3c0.3,0,0.6,0,0.9-0.1c0.3-0.1,0.6-0.2,0.8-0.3c0.2-0.1,0.5-0.3,0.6-0.5
		c0.2-0.2,0.3-0.4,0.4-0.6l1.2,0.3c-0.1,0.3-0.3,0.6-0.6,0.9c-0.2,0.3-0.5,0.5-0.9,0.7c-0.3,0.2-0.7,0.4-1.1,0.5
		c-0.4,0.1-0.8,0.2-1.3,0.2c-0.7,0-1.3-0.1-1.8-0.4c-0.6-0.3-1-0.6-1.5-1c-0.4-0.4-0.7-0.9-1-1.5C181,97.3,180.9,96.7,180.9,96.1z"
		/>
	<path d="M194.7,100.8c-0.7,0-1.3-0.1-1.8-0.4c-0.6-0.3-1-0.6-1.5-1c-0.4-0.4-0.7-0.9-1-1.5c-0.2-0.6-0.3-1.2-0.3-1.8
		c0-0.6,0.1-1.2,0.3-1.8c0.2-0.6,0.5-1.1,1-1.5c0.4-0.4,0.9-0.8,1.4-1c0.6-0.3,1.2-0.4,1.8-0.4c0.7,0,1.3,0.1,1.8,0.4
		c0.6,0.3,1,0.6,1.4,1c0.4,0.4,0.7,0.9,0.9,1.5c0.2,0.6,0.3,1.2,0.3,1.8c0,0.1,0,0.2,0,0.3c0,0.1,0,0.2,0,0.2h-7.8
		c0,0.5,0.1,0.9,0.3,1.4c0.2,0.4,0.4,0.8,0.7,1.1c0.3,0.3,0.6,0.5,1,0.7c0.4,0.2,0.8,0.3,1.3,0.3c0.3,0,0.6,0,0.9-0.1
		c0.3-0.1,0.6-0.2,0.8-0.3c0.2-0.1,0.5-0.3,0.7-0.5c0.2-0.2,0.3-0.4,0.4-0.7l1,0.3c-0.1,0.3-0.3,0.6-0.6,0.9
		c-0.3,0.3-0.6,0.5-0.9,0.7c-0.3,0.2-0.7,0.4-1.1,0.5C195.5,100.8,195.1,100.8,194.7,100.8z M198,95.6c0-0.5-0.1-0.9-0.3-1.3
		c-0.2-0.4-0.4-0.7-0.7-1c-0.3-0.3-0.6-0.5-1-0.7c-0.4-0.2-0.8-0.2-1.3-0.2c-0.4,0-0.9,0.1-1.3,0.2c-0.4,0.2-0.7,0.4-1,0.7
		s-0.5,0.6-0.7,1c-0.2,0.4-0.3,0.9-0.3,1.3H198z"/>
	<path d="M208.2,100.7H207v-5.1c0-1.1-0.2-1.9-0.5-2.4c-0.3-0.5-0.8-0.7-1.5-0.7c-0.3,0-0.7,0.1-1,0.2c-0.4,0.1-0.7,0.3-1,0.5
		s-0.6,0.5-0.8,0.8c-0.2,0.3-0.4,0.7-0.5,1v5.6h-1.2v-9.1h1.1v2.1c0.2-0.3,0.4-0.6,0.7-0.9c0.3-0.3,0.6-0.5,0.9-0.7
		c0.3-0.2,0.7-0.4,1.1-0.5c0.4-0.1,0.8-0.2,1.2-0.2c0.5,0,0.9,0.1,1.3,0.3c0.3,0.2,0.6,0.4,0.8,0.8c0.2,0.3,0.4,0.8,0.5,1.2
		c0.1,0.5,0.1,1,0.1,1.6V100.7z"/>
	<path d="M214.5,100.2c-0.1,0-0.2,0.1-0.3,0.1c-0.1,0.1-0.3,0.1-0.5,0.2c-0.2,0.1-0.4,0.1-0.6,0.2c-0.2,0-0.5,0.1-0.7,0.1
		c-0.3,0-0.5,0-0.7-0.1c-0.2-0.1-0.4-0.2-0.6-0.3c-0.2-0.1-0.3-0.3-0.4-0.6c-0.1-0.2-0.2-0.5-0.2-0.8v-6.5h-1.3v-0.9h1.3v-3.1h1.2
		v3.1h2.1v0.9h-2.1v6.2c0,0.3,0.1,0.6,0.4,0.7c0.2,0.2,0.5,0.2,0.8,0.2c0.3,0,0.6-0.1,0.9-0.2c0.3-0.1,0.4-0.2,0.5-0.2L214.5,100.2z
		"/>
	<path d="M219.5,100.8c-0.7,0-1.3-0.1-1.8-0.4c-0.6-0.3-1-0.6-1.5-1c-0.4-0.4-0.7-0.9-1-1.5c-0.2-0.6-0.3-1.2-0.3-1.8
		c0-0.6,0.1-1.2,0.3-1.8c0.2-0.6,0.5-1.1,1-1.5c0.4-0.4,0.9-0.8,1.4-1c0.6-0.3,1.2-0.4,1.8-0.4c0.7,0,1.3,0.1,1.8,0.4
		c0.6,0.3,1,0.6,1.4,1c0.4,0.4,0.7,0.9,0.9,1.5c0.2,0.6,0.3,1.2,0.3,1.8c0,0.1,0,0.2,0,0.3c0,0.1,0,0.2,0,0.2h-7.8
		c0,0.5,0.1,0.9,0.3,1.4c0.2,0.4,0.4,0.8,0.7,1.1c0.3,0.3,0.6,0.5,1,0.7c0.4,0.2,0.8,0.3,1.3,0.3c0.3,0,0.6,0,0.9-0.1
		c0.3-0.1,0.6-0.2,0.8-0.3c0.2-0.1,0.5-0.3,0.7-0.5c0.2-0.2,0.3-0.4,0.4-0.7l1,0.3c-0.1,0.3-0.3,0.6-0.6,0.9
		c-0.3,0.3-0.6,0.5-0.9,0.7c-0.3,0.2-0.7,0.4-1.1,0.5C220.4,100.8,219.9,100.8,219.5,100.8z M222.9,95.6c0-0.5-0.1-0.9-0.3-1.3
		c-0.2-0.4-0.4-0.7-0.7-1c-0.3-0.3-0.6-0.5-1-0.7c-0.4-0.2-0.8-0.2-1.3-0.2c-0.4,0-0.9,0.1-1.3,0.2c-0.4,0.2-0.7,0.4-1,0.7
		c-0.3,0.3-0.5,0.6-0.7,1c-0.2,0.4-0.3,0.9-0.3,1.3H222.9z"/>
	<path d="M229.9,92.6c-0.8,0-1.5,0.2-2.1,0.7c-0.6,0.4-1,1-1.3,1.7v5.7h-1.2v-9.1h1.1v2.2c0.3-0.6,0.7-1.2,1.2-1.6
		c0.5-0.4,1.1-0.6,1.7-0.6c0.1,0,0.2,0,0.3,0c0.1,0,0.2,0,0.2,0V92.6z"/>
	<path d="M235,100.8c-0.7,0-1.3-0.1-1.8-0.4c-0.6-0.3-1-0.6-1.5-1c-0.4-0.4-0.7-0.9-1-1.5c-0.2-0.6-0.3-1.2-0.3-1.8
		c0-0.6,0.1-1.2,0.3-1.8c0.2-0.6,0.5-1.1,1-1.5c0.4-0.4,0.9-0.8,1.4-1c0.6-0.3,1.2-0.4,1.8-0.4c0.7,0,1.3,0.1,1.8,0.4
		c0.6,0.3,1,0.6,1.4,1c0.4,0.4,0.7,0.9,0.9,1.5c0.2,0.6,0.3,1.2,0.3,1.8c0,0.1,0,0.2,0,0.3c0,0.1,0,0.2,0,0.2h-7.8
		c0,0.5,0.1,0.9,0.3,1.4c0.2,0.4,0.4,0.8,0.7,1.1c0.3,0.3,0.6,0.5,1,0.7c0.4,0.2,0.8,0.3,1.3,0.3c0.3,0,0.6,0,0.9-0.1
		c0.3-0.1,0.6-0.2,0.8-0.3c0.2-0.1,0.5-0.3,0.7-0.5c0.2-0.2,0.3-0.4,0.4-0.7l1,0.3c-0.1,0.3-0.3,0.6-0.6,0.9
		c-0.3,0.3-0.6,0.5-0.9,0.7c-0.3,0.2-0.7,0.4-1.1,0.5C235.9,100.8,235.5,100.8,235,100.8z M238.4,95.6c0-0.5-0.1-0.9-0.3-1.3
		c-0.2-0.4-0.4-0.7-0.7-1c-0.3-0.3-0.6-0.5-1-0.7c-0.4-0.2-0.8-0.2-1.3-0.2c-0.4,0-0.9,0.1-1.3,0.2c-0.4,0.2-0.7,0.4-1,0.7
		s-0.5,0.6-0.7,1c-0.2,0.4-0.3,0.9-0.3,1.3H238.4z"/>
	<path d="M244.7,100.8c-0.6,0-1.2-0.1-1.7-0.4c-0.5-0.3-1-0.6-1.4-1c-0.4-0.4-0.7-0.9-0.9-1.5c-0.2-0.6-0.3-1.2-0.3-1.8
		c0-0.6,0.1-1.3,0.3-1.8c0.2-0.6,0.5-1.1,0.9-1.5c0.4-0.4,0.8-0.8,1.3-1c0.5-0.3,1.1-0.4,1.7-0.4c0.8,0,1.5,0.2,2,0.6
		c0.6,0.4,1.1,0.9,1.4,1.5v-5.6h1.2v11.2c0,0.3,0.1,0.5,0.4,0.5v1.1c-0.2,0-0.4,0.1-0.5,0.1c-0.3,0-0.5-0.1-0.7-0.3
		c-0.2-0.2-0.3-0.4-0.3-0.6v-1c-0.4,0.6-0.9,1.1-1.5,1.4C246,100.7,245.3,100.8,244.7,100.8z M244.9,99.8c0.3,0,0.6-0.1,1-0.2
		c0.3-0.1,0.6-0.3,0.9-0.5c0.3-0.2,0.5-0.4,0.7-0.7c0.2-0.3,0.3-0.6,0.4-0.9v-2.8c-0.1-0.3-0.3-0.6-0.5-0.9
		c-0.2-0.3-0.5-0.5-0.8-0.7c-0.3-0.2-0.6-0.4-0.9-0.5s-0.6-0.2-1-0.2c-0.5,0-0.9,0.1-1.3,0.3c-0.4,0.2-0.7,0.5-1,0.8
		c-0.3,0.3-0.5,0.7-0.7,1.2c-0.2,0.4-0.2,0.9-0.2,1.4c0,0.5,0.1,1,0.3,1.4c0.2,0.4,0.4,0.8,0.7,1.2s0.7,0.6,1.1,0.8
		C244,99.7,244.4,99.8,244.9,99.8z"/>
	<path d="M254.8,96.1c0-0.6,0.1-1.2,0.3-1.8c0.2-0.6,0.5-1.1,0.9-1.5c0.4-0.4,0.9-0.8,1.4-1c0.6-0.2,1.2-0.4,1.9-0.4
		c0.9,0,1.6,0.2,2.3,0.6c0.6,0.4,1.1,0.9,1.5,1.6l-1.2,0.4c-0.3-0.5-0.6-0.8-1.1-1.1c-0.5-0.3-1-0.4-1.5-0.4c-0.5,0-0.9,0.1-1.3,0.3
		c-0.4,0.2-0.8,0.4-1.1,0.8c-0.3,0.3-0.5,0.7-0.7,1.1c-0.2,0.4-0.3,0.9-0.3,1.5c0,0.5,0.1,1,0.3,1.5c0.2,0.5,0.4,0.8,0.7,1.2
		c0.3,0.3,0.7,0.6,1.1,0.8c0.4,0.2,0.8,0.3,1.3,0.3c0.3,0,0.6,0,0.9-0.1c0.3-0.1,0.6-0.2,0.8-0.3c0.2-0.1,0.5-0.3,0.6-0.5
		c0.2-0.2,0.3-0.4,0.4-0.6l1.2,0.3c-0.1,0.3-0.3,0.6-0.6,0.9c-0.2,0.3-0.5,0.5-0.9,0.7c-0.3,0.2-0.7,0.4-1.1,0.5
		c-0.4,0.1-0.8,0.2-1.3,0.2c-0.7,0-1.3-0.1-1.8-0.4c-0.6-0.3-1-0.6-1.5-1c-0.4-0.4-0.7-0.9-1-1.5C254.9,97.3,254.8,96.7,254.8,96.1z
		"/>
	<path d="M267,100.8c-0.5,0-0.9-0.1-1.3-0.2c-0.4-0.1-0.7-0.3-1-0.6c-0.3-0.3-0.5-0.6-0.6-0.9c-0.2-0.3-0.2-0.7-0.2-1.1
		c0-0.4,0.1-0.8,0.3-1.1c0.2-0.3,0.4-0.6,0.8-0.9c0.3-0.2,0.7-0.4,1.2-0.6c0.5-0.1,1-0.2,1.6-0.2c0.5,0,0.9,0,1.4,0.1
		c0.5,0.1,0.9,0.2,1.3,0.4v-0.8c0-0.8-0.2-1.4-0.7-1.9c-0.5-0.5-1.1-0.7-1.9-0.7c-0.5,0-1,0.1-1.5,0.3c-0.5,0.2-1,0.5-1.5,0.8
		l-0.4-0.8c0.6-0.4,1.2-0.7,1.7-0.9c0.6-0.2,1.1-0.3,1.7-0.3c1.1,0,2,0.3,2.6,1c0.7,0.6,1,1.5,1,2.7v4.1c0,0.3,0.1,0.5,0.4,0.5v1.1
		c-0.1,0-0.2,0-0.3,0c-0.1,0-0.2,0-0.2,0c-0.2,0-0.4-0.1-0.6-0.2c-0.2-0.1-0.3-0.3-0.3-0.6l0-0.7c-0.4,0.5-0.9,1-1.6,1.3
		C268.3,100.7,267.7,100.8,267,100.8z M267.3,99.9c0.5,0,1-0.1,1.6-0.3c0.5-0.2,0.9-0.5,1.2-0.9c0.1-0.1,0.2-0.2,0.2-0.3
		c0.1-0.1,0.1-0.2,0.1-0.3v-1.5c-0.4-0.2-0.8-0.3-1.2-0.3c-0.4-0.1-0.9-0.1-1.3-0.1c-0.9,0-1.5,0.2-2.1,0.5
		c-0.5,0.3-0.8,0.8-0.8,1.4c0,0.2,0,0.5,0.1,0.7c0.1,0.2,0.2,0.4,0.4,0.6c0.2,0.2,0.4,0.3,0.7,0.5C266.6,99.9,266.9,99.9,267.3,99.9
		z"/>
	<path d="M278.3,92.6c-0.8,0-1.5,0.2-2.1,0.7c-0.6,0.4-1,1-1.3,1.7v5.7h-1.2v-9.1h1.1v2.2c0.3-0.6,0.7-1.2,1.2-1.6
		c0.5-0.4,1.1-0.6,1.7-0.6c0.1,0,0.2,0,0.3,0c0.1,0,0.2,0,0.2,0V92.6z"/>
	<path d="M283.4,100.8c-0.7,0-1.3-0.1-1.8-0.4c-0.6-0.3-1-0.6-1.5-1c-0.4-0.4-0.7-0.9-1-1.5c-0.2-0.6-0.3-1.2-0.3-1.8
		c0-0.6,0.1-1.2,0.3-1.8c0.2-0.6,0.5-1.1,1-1.5c0.4-0.4,0.9-0.8,1.4-1c0.6-0.3,1.2-0.4,1.8-0.4c0.7,0,1.3,0.1,1.8,0.4
		c0.6,0.3,1,0.6,1.4,1s0.7,0.9,0.9,1.5c0.2,0.6,0.3,1.2,0.3,1.8c0,0.1,0,0.2,0,0.3c0,0.1,0,0.2,0,0.2h-7.8c0,0.5,0.1,0.9,0.3,1.4
		c0.2,0.4,0.4,0.8,0.7,1.1c0.3,0.3,0.6,0.5,1,0.7c0.4,0.2,0.8,0.3,1.3,0.3c0.3,0,0.6,0,0.9-0.1c0.3-0.1,0.6-0.2,0.8-0.3
		c0.2-0.1,0.5-0.3,0.7-0.5c0.2-0.2,0.3-0.4,0.4-0.7l1,0.3c-0.1,0.3-0.3,0.6-0.6,0.9c-0.3,0.3-0.6,0.5-0.9,0.7
		c-0.3,0.2-0.7,0.4-1.1,0.5C284.3,100.8,283.9,100.8,283.4,100.8z M286.8,95.6c0-0.5-0.1-0.9-0.3-1.3c-0.2-0.4-0.4-0.7-0.7-1
		c-0.3-0.3-0.6-0.5-1-0.7c-0.4-0.2-0.8-0.2-1.3-0.2c-0.4,0-0.9,0.1-1.3,0.2c-0.4,0.2-0.7,0.4-1,0.7c-0.3,0.3-0.5,0.6-0.7,1
		c-0.2,0.4-0.3,0.9-0.3,1.3H286.8z"/>
	<path d="M289.2,100.7V99h1v1.7H289.2z"/>
</g>
<line class="st1" x1="2.6" y1="80.7" x2="290.5" y2="80.7"/>
<path class="st2" d="M97.1,54.5c-14.8,5.9-23.5,6.4-25.9,6.4c9.4-3.8,16-12.9,16.1-23.7c0-14-11.2-25.4-25.2-25.6L62,3.7H51.5
	c-7.9,1.4-18.8,3.9-27.1,8.2C15.4,16.6,7,24.4,2.7,28.5v6.3c4.2-3.8,12.9-10.9,24-15.4C44.6,12.3,53.5,13,53.5,13l0,0
	c-10.1,3.4-17.3,12.9-17.3,24.1c0,14.1,11.4,25.5,25.5,25.6c0.1,0,0.2,0,0.2,0l0,7.4h10.6c7.9-1.4,18.6-3.9,26.9-8.2
	c9-4.7,17.1-12.5,21.1-16.6v-6C116.4,43.2,108,50.1,97.1,54.5z M61.6,49.3c-6.6,0-11.9-5.4-11.9-12c0-6.6,5.4-11.9,12-11.9
	c6.6,0,11.9,5.4,11.9,12C73.5,44,68.2,49.3,61.6,49.3z"/>
</svg>
