<svg xmlns="http://www.w3.org/2000/svg" width="335.282" height="87.742" viewBox="0 0 335.282 87.742">
  <g id="evergreen-logo" transform="translate(-64 -18.836)">
    <path id="Path_58" data-name="Path 58" d="M64,78v33.9H81.425v-3.867H68.62V96.277h12.2V92.562H68.62V81.815H81.425V78Z" transform="translate(0 -18.173)" fill="#485c69"/>
    <path id="Path_59" data-name="Path 59" d="M106.7,115.858h-4.67L92.636,90.9h5.071l5.274,14.865c.551,1.607,1.054,3.164,1.456,4.722h.1c.4-1.457.854-3.062,1.406-4.571L111.366,90.9h4.872Z" transform="translate(-8.796 -22.136)" fill="#485c69"/>
    <path id="Path_60" data-name="Path 60" d="M147.648,103.053H131.326c-.2,6.528,2.562,9.391,7.884,9.391a17.477,17.477,0,0,0,7.131-1.507l.653,3.615a23.608,23.608,0,0,1-8.637,1.557c-7.582,0-11.7-4.017-11.7-12.8,0-7.482,4.068-13.057,11.148-13.057,7.031,0,9.993,4.772,9.993,10.494,0,.6-.05,1.306-.15,2.311M137.6,93.562c-3.264,0-5.624,2.461-6.127,6.278h11.7c.1-3.817-2.058-6.278-5.574-6.278" transform="translate(-19.246 -21.936)" fill="#485c69"/>
    <path id="Path_61" data-name="Path 61" d="M174.547,94.278c-4.673-.76-7.324,3.235-7.324,11.222v10.043H162.7V90.583h4.37a33.324,33.324,0,0,1-.554,5.926h.1c.952-3.926,3.337-7.8,10.345-6.312Z" transform="translate(-30.319 -21.82)" fill="#485c69"/>
    <path id="Path_62" data-name="Path 62" d="M231.346,94.278c-4.674-.76-7.324,3.235-7.324,11.222v10.043H219.5V90.583h4.369a33.376,33.376,0,0,1-.552,5.926h.1c.951-3.926,3.337-7.8,10.343-6.312Z" transform="translate(-47.767 -21.82)" fill="#485c69"/>
    <path id="Path_63" data-name="Path 63" d="M192.317,128.514c-6.428,0-10.5-2.661-10.5-7.483a7.834,7.834,0,0,1,4.168-6.628,4,4,0,0,1-2.461-3.716,4.794,4.794,0,0,1,2.762-4.219,7.528,7.528,0,0,1-3.666-6.88c0-5.022,3.767-9.341,10.6-9.341a13.488,13.488,0,0,1,3.515.452h8.486v3.565h-4.117a5.8,5.8,0,0,1,2.009,4.622c0,5.121-3.466,9.039-10.546,9.039a9.245,9.245,0,0,1-2.662-.352,2.462,2.462,0,0,0-1.607,2.11c0,1.406,1.256,1.807,4.269,1.957l4.57.152c5.374.2,8.386,2.711,8.386,7.23,0,5.273-5.372,9.492-13.207,9.492m3.515-12.957-4.821-.2a13.541,13.541,0,0,1-1.456-.051c-1.959,1.355-3.213,3.014-3.213,4.922,0,2.964,2.812,4.72,6.729,4.72,5.07,0,7.883-2.311,7.883-5.374,0-2.41-1.606-3.916-5.122-4.018M193.02,93.612c-3.766,0-5.926,2.411-5.926,5.574,0,3.464,2.06,5.475,5.775,5.475,3.566,0,5.776-2.011,5.776-5.475,0-3.414-2.008-5.574-5.625-5.574" transform="translate(-36.192 -21.936)" fill="#485c69"/>
    <path id="Path_64" data-name="Path 64" d="M259.606,103.053H243.285c-.2,6.528,2.562,9.391,7.885,9.391a17.477,17.477,0,0,0,7.13-1.507l.653,3.615a23.61,23.61,0,0,1-8.637,1.557c-7.583,0-11.7-4.017-11.7-12.8,0-7.482,4.067-13.057,11.148-13.057,7.031,0,9.993,4.772,9.993,10.494,0,.6-.051,1.306-.15,2.311m-10.043-9.492c-3.264,0-5.625,2.461-6.127,6.278h11.7c.1-3.817-2.058-6.278-5.573-6.278" transform="translate(-53.637 -21.936)" fill="#485c69"/>
    <path id="Path_65" data-name="Path 65" d="M294.079,103.053h-16.32c-.2,6.528,2.561,9.391,7.884,9.391a17.475,17.475,0,0,0,7.131-1.507l.653,3.615a23.609,23.609,0,0,1-8.637,1.557c-7.583,0-11.7-4.017-11.7-12.8,0-7.482,4.068-13.057,11.148-13.057,7.031,0,9.993,4.772,9.993,10.494,0,.6-.05,1.306-.15,2.311m-10.044-9.492c-3.264,0-5.624,2.461-6.126,6.278h11.7c.1-3.817-2.058-6.278-5.574-6.278" transform="translate(-64.227 -21.936)" fill="#485c69"/>
    <path id="Path_66" data-name="Path 66" d="M323.4,115.658V99.587c0-3.564-.954-5.624-4.268-5.624-4.118,0-7.081,4.218-7.081,9.744v11.951h-4.52V90.7h4.37a31.16,31.16,0,0,1-.4,5.274h.1a9.157,9.157,0,0,1,8.788-5.725c5.726,0,7.532,3.565,7.532,7.984v17.426Z" transform="translate(-74.806 -21.936)" fill="#485c69"/>
    <path id="Path_67" data-name="Path 67" d="M376.543,80.36l.073-.017V78.031H364.151v2.308l.068.02a20.933,20.933,0,0,0,4.075.645V92.657H350.108V81a20.949,20.949,0,0,0,4.076-.645l.067-.02V78.031H341.789v2.312l.071.017a28.364,28.364,0,0,0,4.271.645v27.931a28.453,28.453,0,0,0-4.271.645l-.071.017v2.312h12.463V109.6l-.067-.02a21,21,0,0,0-4.076-.645v-12.9h18.185v12.9a20.984,20.984,0,0,0-4.075.645l-.068.02v2.308h12.465V109.6l-.073-.017a28.493,28.493,0,0,0-4.271-.645V81a28.4,28.4,0,0,0,4.271-.645" transform="translate(-85.33 -18.183)" fill="#6fb551"/>
    <path id="Path_68" data-name="Path 68" d="M403.754,90.209a10,10,0,0,0-8.095,3.734,14.71,14.71,0,0,0-2.878,9.334c0,8.508,3.893,12.821,11.572,12.821a21.75,21.75,0,0,0,8.222-1.506l.062-.026-.371-3.395-.119.061A16.624,16.624,0,0,1,405,112.82c-2.613,0-4.538-.678-5.886-2.07-1.639-1.695-2.378-4.4-2.261-8.279h16.563l.01-.078a13.584,13.584,0,0,0,.1-1.861c0-6.464-3.655-10.322-9.776-10.322m-.2,3.028a5.8,5.8,0,0,1,4.281,1.637,6.278,6.278,0,0,1,1.618,4.617H397.073c.632-3.86,3.108-6.254,6.483-6.254" transform="translate(-100.993 -21.924)" fill="#6fb551"/>
    <path id="Path_69" data-name="Path 69" d="M495.862,109.022s-1.932.025-3.563,0c-2.834-.034-3.654-1.354-3.654-5.885V89.855h7.288V86.726h-7.288V77.413l-3.927,1.1v8.213h-5.391v3.129h5.391v14.833c0,5.485,1.709,7.429,6.53,7.429a22.042,22.042,0,0,0,4.614-.4l.071-.017.024-2.678Z" transform="translate(-127.578 -17.993)" fill="#6fb551"/>
    <path id="Path_70" data-name="Path 70" d="M535.236,108.35a26.974,26.974,0,0,0-4.174-.645V93.265c0-5.36-2.55-8.078-7.578-8.078a9.173,9.173,0,0,0-8.766,5.678,28.368,28.368,0,0,0,.322-4.589V74.06l-.088,0c-.523-.021-1.089-.031-1.68-.031a51.535,51.535,0,0,0-6.372.381l-.08.01v2.312l.086.007c1.362.093,3.021.283,4.257.486V107.7a28.255,28.255,0,0,0-4.271.645l-.073.016v2.312h12.363V108.37l-.067-.019a20.874,20.874,0,0,0-4.076-.646V98.656c0-5.9,3.152-10.191,7.5-10.191,3.267,0,4.6,1.752,4.6,6.048v16.164h8.169v-2.31Z" transform="translate(-136.023 -16.953)" fill="#6fb551"/>
    <path id="Path_71" data-name="Path 71" d="M449.479,113.124a13.682,13.682,0,0,0-3.808-.655V98.386c0-5.579-2.82-8.178-8.876-8.178a24.612,24.612,0,0,0-8.518,1.354l-.061.022v6.795h2.466l.013-.078c.242-1.451.491-2.951.643-4.287a18.6,18.6,0,0,1,4.856-.627c3.907,0,5.5,1.665,5.5,5.749v2.005c-4.652.034-8.5.881-11.124,2.452a7.282,7.282,0,0,0-3.951,6.373c0,3.781,2.636,6.132,6.88,6.132a9.172,9.172,0,0,0,8.586-5.417,38.647,38.647,0,0,0-.193,4.866v.092l7.561-.066h.09v-2.43Zm-7.785-9.056v.258c0,4.109-2.751,8.544-7.2,8.544-2.4,0-3.953-1.413-3.953-3.6,0-1.935,1.451-5.178,11.148-5.2" transform="translate(-111.388 -21.924)" fill="#6fb551"/>
    <path id="Path_72" data-name="Path 72" d="M474.193,108.35a27.842,27.842,0,0,0-4.223-.645V74.06l-.088,0c-.522-.021-1.087-.031-1.68-.031a51.552,51.552,0,0,0-6.372.381l-.078.011v2.312l.085.006c1.362.092,3.021.283,4.257.486V107.7a28.282,28.282,0,0,0-3.513.486l-.073.014v2.473h11.756v-2.311Z" transform="translate(-122.179 -16.953)" fill="#6fb551"/>
    <path id="Path_73" data-name="Path 73" d="M301.725,18.836a1.774,1.774,0,0,1,1.017.214c.017.035.035.071.053.107h.107l.16.214a4.061,4.061,0,0,1,.535.588v.107l.107.053v.107l.108.107v.107h.053v.107h.053v.107h.053v.107h.055c.017.107.035.214.053.321h.053v.107h.054v.16h.053q.081.482.161.963h.053v.482c.009.095.053.107.053.107-.017.267-.035.536-.053.8H304.4v.214h-.053v.214h-.054v.107h-.054V24.4l-.107.053v.107l-.106.053c-.055.072-.108.143-.161.214-.091.062-.122,0-.214.108h-.589v-.053h-.106v-.055c-.108-.035-.214-.071-.322-.107-.053-.071-.106-.143-.16-.213h-.107v-.054l-.16-.107v-.107c-.09-.071-.179-.142-.268-.214v-.107l-.107-.053-.054-.161h-.053c-.018-.071-.035-.143-.053-.213l-.108-.053c-.017-.072-.035-.143-.053-.215h-.053l-.054-.213h-.053c-.018-.089-.035-.178-.053-.267h-.054V22.58h-.053v-.161h-.053v-.16h-.053V22.1h-.055c-.017-.16-.035-.321-.053-.481a3.241,3.241,0,0,1-.053-1.5v-.267h.053c.019-.108.036-.215.053-.321h.055c.017-.071.035-.143.053-.214l.321-.267.053-.107c.091-.062.122,0,.214-.107" transform="translate(-72.756)" fill="#25b0ab"/>
    <path id="Path_74" data-name="Path 74" d="M299.906,29.026a2.354,2.354,0,0,1,1.176.215v.053h.107c.017.036.035.072.053.107h.107l.054.108h.107l.214.267h.107l.053.107.214.16v.107l.267.215c.018.053.036.106.053.16l.107.054v.107l.107.053c.018.054.036.107.053.161h.054v.107l.107.053.107.321c.036.017.071.035.107.053v.106h.053v.108h.053v.16h.053l.054.214h.053c.017.089.035.177.053.267h.053c.053.232.107.464.161.7a3.916,3.916,0,0,1,.107,2.408v.159h-.053c-.035.108-.071.215-.107.321h-.054v.107l-.213.161-.054.106c-.089.062-.121,0-.213.107l-.642.054a2.823,2.823,0,0,1-1.391-.962l-.428-.375v-.107l-.16-.107v-.107l-.107-.053-.053-.161h-.053v-.107l-.107-.053-.054-.214-.107-.053c-.035-.107-.071-.213-.107-.321h-.054v-.107h-.053v-.106h-.053l-.107-.321h-.054v-.161h-.053v-.107h-.053l-.107-.481a3.92,3.92,0,0,1-.214-2.408v-.213h.053l.107-.321h.054v-.107l.16-.108.053-.106h.107l.053-.107.267-.054Z" transform="translate(-72.167 -3.13)" fill="#6fb551"/>
    <path id="Path_75" data-name="Path 75" d="M311.305,29.566c1.174.034,1.551.917,1.551,2.14q-.027.454-.053.909h-.054c-.017.161-.035.321-.053.482h-.053c-.019.125-.036.249-.054.375h-.053v.106h-.054c-.017.107-.035.215-.053.321h-.053v.107h-.054v.16h-.053c-.037.107-.072.214-.108.321h-.053c-.036.107-.071.213-.107.321l-.107.053c-.019.071-.035.143-.054.214h-.053c-.017.053-.036.107-.053.16l-.108.053V35.4l-.16.107v.107l-.213.159v.108c-.143.124-.285.249-.428.374l-.161.213h-.107c-.035.053-.072.107-.107.161h-.108c-.017.036-.035.071-.053.107a2.041,2.041,0,0,1-1.657.267,1.992,1.992,0,0,1-.91-1.337v-.428h-.054v-.589h.054v-.481q.213-.748.427-1.5h.053c.036-.107.071-.214.108-.321h.053v-.107h.054v-.107h.053v-.107h.054c.035-.107.072-.214.107-.321h.053c.019-.053.036-.107.054-.16l.107-.054v-.107l.107-.053v-.107c.054-.035.107-.072.161-.107V31.01l.321-.267v-.107l.213-.161v-.053h.107l.213-.267h.107l.107-.16.214-.055.054-.106h.107v-.053h.107v-.053h.161v-.054h.16V29.62h.321Z" transform="translate(-74.849 -3.296)" fill="#6fb551"/>
    <path id="Path_76" data-name="Path 76" d="M292.056,36.752a.455.455,0,0,0,.214-.106v-.054h.107v-.053h.107v-.053h.213v-.054a2.8,2.8,0,0,1,.91.107v.053l.214.054V36.7l.321.106c.017.037.035.072.053.107h.107l.107.161h.107c.036.053.071.107.107.161h.107l.16.213H295l.107.161h.107l.107.161h.107l.16.214.161.053.053.107h.107l.054.107.16.054.161.214h.107c.036.053.071.106.107.16h.107l.107.161h.107l.16.214h.107l.107.16h.107l.107.161h.107l.161.213h.107l.107.161h.107l.107.161h.107l.107.16h.107l.16.214h.107l.267.321h.107v.054l.161.106v.107l.374.321V41.3l.161.107v.107l.16.107v.107l.107.054c.017.053.035.107.053.16h.053v.107l.107.053c.036.106.071.214.107.321l.107.053c.018.071.036.143.053.214h.054c.017.071.035.143.053.214h.053v.16h.053l.054.214h.053c.017.089.035.179.053.267h.053v.161h.053v.16h.053v.16h.054v.161h.053c.018.125.035.249.053.374h.053v.213a5.739,5.739,0,0,1-.053,3.049v.161h-.053v.107H301.1V48.2l-.107.053v.107l-.107.053-.161.215-.214.053v.054a1.713,1.713,0,0,1-.695.107v-.054h-.267v-.053h-.161V48.68h-.107v-.053h-.161l-.053-.107-.214-.053c-.017-.036-.035-.071-.053-.107h-.107l-.107-.16h-.107l-.161-.214h-.107l-.214-.267h-.107l-.161-.214h-.107l-.161-.215h-.107l-.214-.267h-.107l-.16-.214h-.107l-.214-.267h-.107l-.16-.215h-.107l-.16-.213h-.107l-.214-.268h-.107l-.053-.107h-.053l-.053-.107h-.107l-.214-.267H295l-.053-.107h-.054l-.053-.108h-.107l-.214-.267h-.107l-.214-.267h-.107l-.054-.107-.213-.161v-.107l-.375-.321v-.107l-.16-.107V43.6l-.161-.107v-.107l-.107-.055v-.106l-.107-.053c-.018-.071-.035-.143-.053-.215l-.107-.053-.107-.321-.107-.053c-.018-.071-.036-.142-.053-.213h-.054c-.017-.071-.035-.143-.053-.214h-.053v-.161h-.053l-.054-.214h-.053c-.017-.089-.035-.178-.053-.267h-.053c-.018-.107-.036-.213-.053-.321h-.053v-.159H291.9v-.161h-.053v-.159h-.053v-.215h-.053q-.027-.214-.053-.427h-.054q-.026-.374-.053-.749a3.4,3.4,0,0,1-.053-1.123l.214-.909h.053c.018-.071.035-.143.053-.214h.053a.6.6,0,0,0,.161-.268" transform="translate(-69.88 -5.401)" fill="#6fb551"/>
    <path id="Path_77" data-name="Path 77" d="M315.8,37.9a2.09,2.09,0,0,1,1.123.161c.055.071.109.143.161.213l.213.161v.107h.055c.017.071.035.142.053.214h.053v.213a4.268,4.268,0,0,1-.321,2.781c-.018.107-.035.214-.053.322h-.053c-.037.106-.072.213-.109.321h-.053V42.5h-.053v.107h-.053v.107h-.054v.107h-.053v.107l-.107.107v.108c-.036.017-.071.035-.107.053-.017.071-.037.142-.054.213h-.053c-.019.054-.035.107-.053.16-.036.018-.071.037-.107.053v.107c-.035.019-.071.035-.107.053v.107l-.107.053-.054.16-.213.161v.106l-.321.268-.589.642h-.106c-.036.053-.071.106-.107.159h-.107l-.107.161h-.107c-.035.054-.072.107-.107.16h-.107c-.035.054-.071.107-.107.161h-.107c-.018.035-.036.071-.053.107h-.109l-.053.107-.161.053c-.035.053-.072.107-.107.161h-.107c-.035.053-.07.107-.107.159-.053.018-.107.037-.16.053l-.054.107h-.107l-.053.107h-.107l-.053.107-.16.053-.107.161h-.107c-.035.053-.071.107-.107.16h-.107c-.036.053-.072.107-.107.161h-.107c-.035.054-.071.107-.107.16h-.107l-.054.107h-.107c-.036.054-.071.108-.107.161H311.2l-.107.16h-.107l-.107.161-.161.054-.053.106a2.15,2.15,0,0,1-2.353.321l-.161-.214H308.1v-.107c-.768-1.14-.324-2.8.161-3.9v-.159l.8-1.445.107-.053v-.107l.107-.053c.019-.054.036-.107.054-.16l.214-.161v-.107l.267-.214c.16-.177.321-.355.482-.535h.106c.055-.071.107-.143.161-.214h.107c.018-.035.035-.071.053-.107l.161-.053v-.053h.107c.017-.037.036-.072.053-.108h.107l.107-.16h.107l.054-.107c.053-.019.107-.036.161-.053v-.054h.107l.053-.107h.106c.019-.035.037-.07.055-.107h.107c.018-.035.035-.071.053-.106h.107c.035-.055.071-.108.107-.161h.106l.054-.107.16-.053v-.053h.107l.054-.107h.107c.019-.036.036-.071.053-.107h.107l.107-.159h.107l.054-.108.16-.053V39.24h.107c.017-.035.035-.071.053-.106h.107c.017-.037.035-.072.054-.108h.106c.018-.035.035-.071.053-.107h.107l.107-.16h.107c.017-.036.036-.072.054-.107l.16-.053v-.053h.107c.017-.036.037-.072.054-.107l.159-.053v-.054l.215-.054c.018-.035.036-.07.053-.107h.107v-.053h.16v-.053h.107V38.01l.373-.054Z" transform="translate(-74.855 -5.856)" fill="#6fb551"/>
    <path id="Path_78" data-name="Path 78" d="M321.574,45.238c1.34-.024,1.659.778,1.659,2.086v.963h-.053v.321h-.054v.267h-.053v.267h-.054c-.017.125-.035.249-.053.374h-.053c-.019.107-.036.215-.053.321H322.8c-.018.107-.035.215-.054.322H322.7c-.017.089-.035.177-.053.267h-.054v.107h-.053c-.019.089-.037.178-.054.267h-.053c-.019.071-.035.143-.054.214h-.053c-.037.107-.071.214-.108.321l-.106.107v.107L322,51.6c-.019.07-.036.142-.054.213l-.107.054v.107l-.107.053v.107h-.055l-.053.161-.107.054v.106l-.161.107v.108l-.214.159v.107l-.375.321-.267.321H320.4q-.134.162-.268.321h-.107l-.214.268H319.7l-.268.321h-.107c-.089.107-.179.213-.267.321h-.108l-.214.267h-.107l-.267.321h-.107c-.037.053-.071.107-.107.161H318.1l-.054.107h-.107c-.088.107-.177.215-.267.321h-.106c-.071.089-.143.178-.214.267h-.107c-.089.107-.179.213-.267.32h-.107c-.089.108-.179.214-.268.321h-.107l-.213.267h-.107l-.267.321H315.8l-.213.269h-.108l-.267.321H315.1c-.071.089-.143.177-.214.267h-.107l-.267.321h-.108l-.213.267h-.107l-.267.321h-.107l-.267.321h-.107l-.214.267h-.107l-.267.321h-.107c-.036.054-.071.108-.108.161h-.053l-.054.107h-.106c-.054.072-.108.142-.161.214h-.054c-.017.035-.035.071-.054.107h-.106l-.215.268h-.106c-.089.106-.179.213-.267.321h-.107l-.213.267h-.107q-.133.161-.267.321h-.107l-.214.267h-.107c-.018.037-.037.071-.053.107h-.107l-.053.107c-.071.017-.143.035-.214.053v.053l-.215.053v.053h-.159v.053h-.214v.053a1.4,1.4,0,0,1-.75-.107v-.053h-.106c-.019-.036-.036-.071-.053-.107H308.2c-.019-.053-.035-.107-.054-.161l-.16-.107v-.106a4.013,4.013,0,0,1-.321-1.98,6.907,6.907,0,0,1,.429-2.621l.107-.48h.053c.017-.072.036-.143.054-.215h.053v-.16h.053c.035-.107.071-.214.107-.321h.053V56.2h.055V56.1h.053v-.106h.053v-.107h.053v-.108l.108-.053.053-.213.107-.054c.017-.071.035-.143.053-.213l.107-.053v-.107l.16-.107v-.106l.161-.108v-.107l.267-.213V54.33l.428-.375c.035-.053.071-.107.107-.159h.107c.054-.072.107-.143.16-.215h.107l.161-.213h.107l.16-.214h.107l.16-.214.161-.054.053-.107h.106l.161-.214H312c.053-.071.107-.143.161-.213h.107c.054-.072.107-.143.16-.215h.107l.161-.213h.107c.053-.072.107-.143.16-.215h.107l.107-.16h.107l.161-.214h.106c.054-.071.107-.143.161-.214,1.361-.978,2.593-2.073,3.957-3.049.055-.071.108-.142.161-.213h.106l.161-.214h.107l.161-.214h.107c.054-.071.107-.143.16-.213h.107L318.9,47h.107l.107-.16h.107l.161-.215h.106l.161-.213h.106l.161-.214h.107c.053-.071.107-.142.161-.214h.107c.035-.053.071-.107.107-.161h.107c.035-.053.071-.106.107-.16h.107l.053-.107h.107v-.053l.322-.106v-.055h.16v-.053h.213Z" transform="translate(-74.849 -8.11)" fill="#25b0ab"/>
    <path id="Path_79" data-name="Path 79" d="M286.015,46.628a2.891,2.891,0,0,1,1.6.535l.053.107h.107l.107.161h.107l.107.16h.107l.053.107h.107l.107.161h.107l.107.16h.107l.054.107h.107l.107.159h.107l.107.161h.107l.107.16h.107l.054.107h.107l.107.16h.107l.107.161h.107l.053.107h.107l.107.161h.107l.107.16.161.054.053.107h.107c.017.036.035.071.053.107h.107l.053.107.161.053.107.161h.107l.053.107h.107l.107.161h.107l.107.16h.107l.107.161h.107l.053.107h.107l.054.107.16.053.107.161h.107l.053.107h.107l.107.161h.107l.107.16h.107c.018.036.036.071.053.107h.107l.107.16h.107l.107.16.161.054.053.107h.107c.018.036.036.071.053.107h.107l.053.107.161.054.107.16h.107l.054.107h.107l.107.161h.107l.107.161h.107l.107.16h.107l.054.107h.107l.053.107.161.053.107.161h.107l.053.107h.107l.107.161h.107l.161.214h.107l.427.481.214.161v.107l.214.161v.107l.161.107.053.16.107.054v.107l.107.053c.017.071.035.143.053.214l.107.053.107.321.107.053v.107h.053v.107h.053l.054.267h.053v.107h.053c.018.071.035.143.053.214h.054c.017.107.035.213.053.321h.053v.16h.053v.161h.053v.16h.053v.161h.054v.214h.053v.267h.053v.267h.053v.427h.053a4.021,4.021,0,0,1-.053,1.284v1.07a3.858,3.858,0,0,1-.374,1.016l-.214.161-.107.16a1.843,1.843,0,0,1-1.6-.053l-.107-.107h-.107c-.018-.036-.036-.071-.053-.107h-.107l-.053-.107h-.107l-.161-.214h-.107l-.214-.267h-.107l-.16-.214H295.8l-.161-.214h-.107l-.214-.267h-.107l-.16-.215h-.107l-.16-.213h-.107l-.213-.267h-.107l-.053-.107h-.053c-.018-.035-.036-.071-.053-.107h-.107l-.053-.107h-.053l-.054-.107h-.107l-.214-.267H293.5c-.053-.071-.107-.143-.161-.213h-.107l-.214-.268h-.107l-.161-.213h-.107l-.161-.214h-.107l-.214-.267h-.107l-.161-.214h-.107l-.161-.214h-.107l-.214-.267H291.2l-.16-.214h-.107l-.16-.213h-.107l-.213-.267h-.107l-.16-.214h-.107l-.16-.214h-.107l-.214-.267h-.107l-.161-.214h-.107l-.161-.214h-.107l-.214-.267h-.107l-.161-.214h-.107l-.161-.214H288.1l-.214-.268h-.107c-.054-.071-.107-.142-.161-.213h-.107l-.482-.535-.321-.267v-.107L286.5,53.9V53.8l-.107-.054v-.107l-.16-.107V53.42l-.107-.054c-.017-.071-.035-.142-.053-.213l-.107-.053c-.018-.071-.036-.143-.053-.214l-.107-.053v-.107l-.107-.107v-.107h-.053V52.4h-.054l-.16-.482h-.053v-.107h-.053v-.16h-.054v-.108h-.053c-.018-.106-.035-.213-.053-.32h-.053a6.126,6.126,0,0,1-.214-3.53v-.161h.053q.054-.16.107-.321l.321-.267.053-.107h.107v-.053l.214-.054v-.053h.267Z" transform="translate(-67.797 -8.537)" fill="#6fb551"/>
    <path id="Path_80" data-name="Path 80" d="M317.184,65.156c1.973-.036,1.535,2.734,1.07,4.011v.213H318.2v.107h-.053c-.019.107-.037.214-.054.321h-.054c-.018.089-.035.179-.053.267h-.053c-.018.071-.036.143-.053.213h-.054v.161h-.053c-.019.071-.035.142-.054.213h-.053c-.018.072-.036.143-.053.215l-.107.054v.106h-.053v.107l-.107.107v.107l-.108.053v.108l-.106.053v.107l-.108.053v.108c-.035.018-.071.035-.107.053V72l-.107.053v.107l-.16.107c-.019.053-.035.107-.054.16l-.375.321v.107c-.088.054-.177.107-.267.161l-.375.428h-.107c-.018.035-.035.071-.054.106h-.053l-.213.268h-.107l-.321.375h-.107c-.106.125-.213.249-.321.374h-.106q-.162.187-.321.374h-.108c-.107.125-.214.249-.321.375h-.107l-.321.374h-.107l-.321.374h-.107q-.159.188-.321.375h-.106c-.108.125-.215.249-.321.374h-.107v.053l-.16.107-.213.267h-.108V77.3l-.16.107c-.053.071-.107.143-.161.213h-.107l-.321.376h-.107l-.107.16h-.107l-.054.107h-.107c-.018.036-.036.071-.053.107h-.107v.053l-.214.054v.053h-.161v.053h-.214v.053a1.4,1.4,0,0,1-.748-.107v-.053h-.107l-.161-.215-.107-.053V78.1c-.664-.993-.349-3,.053-4.011l.107-.482h.053V73.5h.054v-.161h.053c.018-.071.037-.142.054-.213h.053v-.107h.054c.053-.161.107-.321.16-.482l.108-.054.106-.32.107-.054c.019-.071.036-.142.054-.213h.054l.053-.161c.037-.017.072-.035.107-.053v-.107l.161-.107V71.36l.16-.107v-.107l.267-.213v-.107l.375-.321.106-.161h.108l.213-.267h.107l.161-.214h.106c.019-.036.036-.071.053-.107.053-.035.107-.072.161-.107v-.054h.106l.215-.267h.107l.16-.213h.107l.214-.268h.108l.159-.213h.107l.213-.267h.107l.215-.267h.106l.053-.107h.053c.019-.036.036-.072.054-.107h.107c.071-.089.143-.178.214-.267h.107c.071-.089.143-.178.214-.267h.107c.054-.071.108-.143.161-.214h.107c.072-.089.143-.178.214-.267h.107c.053-.072.107-.143.161-.213h.107c.071-.09.143-.179.214-.268h.107c.071-.089.143-.178.214-.267h.107c.054-.071.107-.142.161-.213h.107l.161-.214h.106c.019-.035.036-.071.053-.107h.107c.017-.035.035-.071.054-.107l.213-.053v-.054l.214-.053v-.054c.139-.06.324-.012.427-.107" transform="translate(-74.844 -14.228)" fill="#25b0ab"/>
  </g>
</svg>
