<?xml version="1.0" encoding="utf-8"?>
<!-- Generator: Adobe Illustrator 21.1.0, SVG Export Plug-In . SVG Version: 6.00 Build 0)  -->
<svg version="1.1" id="Layer_1" xmlns="http://www.w3.org/2000/svg" xmlns:xlink="http://www.w3.org/1999/xlink" x="0px" y="0px"
	 width="139px" height="45px" viewBox="0 0 139 45" style="enable-background:new 0 0 139 45;" xml:space="preserve">
<style type="text/css">
	.st0{fill:#FFFFFF;}
	.st1{fill:#1F7F9B;}
</style>
<g>
	<path id="path-1" class="st0" d="M2.9,43.2h5.6l0.1-2.3l-0.4,0c-0.3,1.4-1,1.9-2.4,1.9c-0.5,0-0.6,0-0.6-0.5v-2.1h0.1
		c0.7,0,1,0.3,1.2,1.2h0.4v-2.8H6.5c-0.1,0.9-0.4,1.2-1.2,1.2H5.2V38c0-0.4,0.1-0.5,0.6-0.5c1.3,0,1.9,0.5,2.2,1.8h0.4l-0.1-2.2H2.9
		v0.4h0.4c0.4,0,0.4,0.1,0.4,0.5v4.4c0,0.3-0.1,0.4-0.4,0.4H2.9V43.2z M13.2,42.2v-1.8c0-0.4,0-0.7-0.4-1C12.6,39.2,12,39,11.3,39
		c-1.2,0-1.9,0.4-1.9,1.1c0,0.4,0.3,0.6,0.7,0.6c0.4,0,0.7-0.2,0.7-0.5c0-0.3-0.2-0.4-0.2-0.5c0-0.1,0.2-0.3,0.6-0.3
		c0.6,0,0.8,0.2,0.8,0.8v0.5c-1.9,0.3-2.8,0.7-2.8,1.6c0,0.6,0.5,1,1.3,1c0.6,0,1.2-0.2,1.7-0.6c0,0.3,0.4,0.6,0.8,0.6
		c0.6,0,1-0.4,1-0.7c0-0.1,0-0.1-0.1-0.1s-0.2,0.1-0.3,0.1C13.3,42.6,13.2,42.5,13.2,42.2L13.2,42.2z M11.9,41.2v0.5
		c0,0.7-0.4,1.1-0.9,1.1c-0.3,0-0.5-0.2-0.5-0.6C10.6,41.6,11,41.3,11.9,41.2L11.9,41.2z M14.2,41.7l0,1.6h0.3l0.4-0.3
		c0.3,0.2,0.8,0.3,1.2,0.3c1.1,0,1.7-0.6,1.7-1.5c0-0.7-0.5-1.2-1.4-1.4c-0.8-0.1-1.2-0.2-1.2-0.6c0-0.3,0.3-0.5,0.7-0.5
		c0.5,0,1,0.4,1.3,1h0.4l0-1.4h-0.3l-0.3,0.2c-0.3-0.2-0.6-0.3-1-0.3c-1,0-1.6,0.5-1.6,1.4c0,0.8,0.5,1.2,1.7,1.4
		c0.6,0.1,0.9,0.2,0.9,0.6c0,0.3-0.3,0.5-0.7,0.5c-0.6,0-1.2-0.4-1.5-1.2H14.2z M21.3,41.6h-0.5c0,0.7-0.2,1-0.5,1
		c-0.3,0-0.4-0.2-0.4-0.7v-2.3h1.1v-0.5h-1.1v-1.7h-0.6c0,1.1-0.5,1.7-1.3,1.7v0.5h0.6V42c0,0.9,0.2,1.4,1.2,1.4
		c0.9,0,1.5-0.6,1.5-1.6C21.3,41.7,21.3,41.7,21.3,41.6L21.3,41.6z M23.1,40.8c0-0.9,0.3-1.3,0.9-1.3c0.5,0,0.7,0.3,0.7,1
		c0,0.2-0.1,0.3-0.2,0.3H23.1z M25.5,41.8c-0.3,0.6-0.7,1-1.3,1c-0.8,0-1.2-0.5-1.2-1.5v-0.1h2.8v-0.1c0-1.3-0.7-2.1-2-2.1
		c-1.4,0-2.3,0.9-2.3,2.2c0,1.3,0.9,2.2,2.3,2.2c1,0,1.7-0.5,1.9-1.4L25.5,41.8z M26.1,43.2h2.8v-0.4l-0.5,0c-0.2,0-0.3-0.1-0.3-0.3
		v-0.9c0-1.1,0.3-1.8,1-2c-0.1,0.1-0.2,0.2-0.2,0.4c0,0.4,0.3,0.7,0.6,0.7c0.4,0,0.7-0.3,0.7-0.8c0-0.5-0.4-0.8-0.9-0.8
		c-0.6,0-1,0.4-1.4,1.2v-1.2l-1.9,0.1v0.4c0.1,0,0.2,0,0.3,0c0.4,0,0.5,0.1,0.5,0.3v2.6c0,0.2-0.1,0.3-0.3,0.3l-0.4,0V43.2z
		 M30.5,43.2H33v-0.4l-0.3,0c-0.2,0-0.3-0.1-0.3-0.3v-1.3c0-0.9,0.2-1.4,0.9-1.4c0.5,0,0.6,0.3,0.6,0.8v1.8c0,0.3-0.1,0.3-0.3,0.3
		l-0.3,0v0.4h2.5v-0.4l-0.4,0c-0.2,0-0.3-0.1-0.3-0.3v-1.9c0-1-0.4-1.5-1.4-1.5c-0.6,0-1.1,0.3-1.5,0.8v-0.8l-2,0.1v0.4
		c0.1,0,0.2,0,0.3,0c0.4,0,0.5,0.1,0.5,0.3v2.6c0,0.2-0.1,0.3-0.3,0.3l-0.4,0V43.2z M41.8,43.4l1.9-4.8c0.3-0.7,0.6-1,1.1-1v-0.4
		h-2.4v0.5c0.6,0,0.8,0.2,0.8,0.5c0,0.1,0,0.3-0.1,0.4l-1.2,3L40.5,38c0-0.1-0.1-0.2-0.1-0.2c0-0.1,0.1-0.2,0.4-0.2h0.3v-0.4h-2.9
		v0.4c0.4,0,0.6,0.1,0.7,0.4l2.2,5.5H41.8z M46.6,42.5v-3.4l-2,0.1v0.4c0.1,0,0.2,0,0.3,0c0.4,0,0.5,0.1,0.5,0.3v2.6
		c0,0.2-0.1,0.3-0.3,0.3l-0.4,0v0.4h2.6v-0.4l-0.3,0C46.7,42.8,46.6,42.7,46.6,42.5L46.6,42.5z M45.2,37.7c0,0.4,0.3,0.8,0.7,0.8
		c0.4,0,0.7-0.3,0.7-0.8c0-0.4-0.3-0.8-0.7-0.8C45.5,36.9,45.2,37.3,45.2,37.7L45.2,37.7z M47.5,43.2h2.8v-0.4l-0.5,0
		c-0.2,0-0.3-0.1-0.3-0.3v-0.9c0-1.1,0.3-1.8,1-2c-0.1,0.1-0.2,0.2-0.2,0.4c0,0.4,0.3,0.7,0.6,0.7c0.4,0,0.7-0.3,0.7-0.8
		c0-0.5-0.4-0.8-0.9-0.8c-0.6,0-1,0.4-1.4,1.2v-1.2l-1.9,0.1v0.4c0.1,0,0.2,0,0.3,0c0.4,0,0.5,0.1,0.5,0.3v2.6
		c0,0.2-0.1,0.3-0.3,0.3l-0.4,0V43.2z M53.3,40.5c0-0.7,0.2-1,0.6-1c0.4,0,0.7,0.3,0.7,1c0,0.7-0.2,1-0.7,1
		C53.5,41.5,53.3,41.1,53.3,40.5L53.3,40.5z M53.2,43.6h1.2c0.5,0,0.8,0.1,0.8,0.4c0,0.4-0.4,0.5-1.3,0.5c-0.7,0-1-0.2-1-0.5
		C52.9,43.8,53,43.7,53.2,43.6L53.2,43.6z M52.8,43.4c-0.6,0.1-0.9,0.4-0.9,0.7c0,0.6,0.7,0.9,2,0.9c1.6,0,2.4-0.5,2.4-1.4
		c0-0.5-0.3-0.9-0.7-1.1c-0.2-0.1-0.6-0.1-1.3-0.1h-0.6c-0.3,0-0.4-0.1-0.4-0.3c0-0.2,0.1-0.3,0.4-0.3c0.1,0,0.3,0,0.4,0
		c1.3,0,1.9-0.6,1.9-1.4c0-0.4-0.2-0.8-0.6-1c0.1-0.2,0.2-0.3,0.3-0.3c0.1,0,0.1,0.1,0.1,0.2c0.1,0.2,0.2,0.3,0.4,0.3
		c0.3,0,0.5-0.2,0.5-0.6c0-0.3-0.3-0.6-0.6-0.6c-0.3,0-0.7,0.2-0.9,0.5L55,39.3c-0.4-0.2-0.7-0.2-1.1-0.2c-1.2,0-1.9,0.6-1.9,1.5
		c0,0.6,0.4,1,1,1.2c-0.7,0.1-1.1,0.4-1.1,0.9C51.9,43,52.2,43.2,52.8,43.4L52.8,43.4z M58.8,42.5v-3.4l-2,0.1v0.4
		c0.1,0,0.2,0,0.3,0c0.4,0,0.5,0.1,0.5,0.3v2.6c0,0.2-0.1,0.3-0.3,0.3l-0.4,0v0.4h2.6v-0.4l-0.3,0C58.9,42.8,58.8,42.7,58.8,42.5
		L58.8,42.5z M57.4,37.7c0,0.4,0.3,0.8,0.7,0.8c0.4,0,0.7-0.3,0.7-0.8c0-0.4-0.3-0.8-0.7-0.8C57.7,36.9,57.4,37.3,57.4,37.7
		L57.4,37.7z M59.7,43.2h2.6v-0.4l-0.3,0c-0.2,0-0.3-0.1-0.3-0.3v-1.3c0-0.9,0.2-1.4,0.9-1.4c0.5,0,0.6,0.3,0.6,0.8v1.8
		c0,0.3-0.1,0.3-0.3,0.3l-0.3,0v0.4h2.5v-0.4l-0.4,0c-0.2,0-0.3-0.1-0.3-0.3v-1.9c0-1-0.4-1.5-1.4-1.5c-0.6,0-1.1,0.3-1.5,0.8v-0.8
		l-2,0.1v0.4c0.1,0,0.2,0,0.3,0c0.4,0,0.5,0.1,0.5,0.3v2.6c0,0.2-0.1,0.3-0.3,0.3l-0.4,0V43.2z M67.4,42.5v-3.4l-2,0.1v0.4
		c0.1,0,0.2,0,0.3,0c0.4,0,0.5,0.1,0.5,0.3v2.6c0,0.2-0.1,0.3-0.3,0.3l-0.4,0v0.4H68v-0.4l-0.3,0C67.5,42.8,67.4,42.7,67.4,42.5
		L67.4,42.5z M66,37.7c0,0.4,0.3,0.8,0.7,0.8c0.4,0,0.7-0.3,0.7-0.8c0-0.4-0.3-0.8-0.7-0.8C66.3,36.9,66,37.3,66,37.7L66,37.7z
		 M72.4,42.2v-1.8c0-0.4,0-0.7-0.4-1c-0.3-0.3-0.9-0.4-1.5-0.4c-1.2,0-1.9,0.4-1.9,1.1c0,0.4,0.3,0.6,0.7,0.6c0.4,0,0.7-0.2,0.7-0.5
		c0-0.3-0.2-0.4-0.2-0.5c0-0.1,0.2-0.3,0.6-0.3c0.6,0,0.8,0.2,0.8,0.8v0.5c-1.9,0.3-2.8,0.7-2.8,1.6c0,0.6,0.5,1,1.3,1
		c0.6,0,1.2-0.2,1.7-0.6c0.1,0.3,0.4,0.6,0.8,0.6c0.6,0,1-0.4,1-0.7c0-0.1,0-0.1-0.1-0.1c-0.1,0-0.2,0.1-0.3,0.1
		C72.5,42.6,72.4,42.5,72.4,42.2L72.4,42.2z M71.2,41.2v0.5c0,0.7-0.4,1.1-0.9,1.1c-0.3,0-0.5-0.2-0.5-0.6
		C69.8,41.6,70.2,41.3,71.2,41.2L71.2,41.2z M77,37.8l1.9,5.5h0.4l1.8-5.5v4.6c0,0.3-0.1,0.4-0.4,0.4h-0.4v0.5h3.1v-0.5H83
		c-0.4,0-0.4-0.1-0.4-0.4V38c0-0.3,0.1-0.5,0.4-0.5h0.4v-0.4h-2.6l-1.2,3.7l-1.3-3.7h-2.7v0.4H76c0.4,0,0.4,0.1,0.4,0.5v3.7
		c0,0.8-0.1,1.1-0.9,1.1v0.5h2.4v-0.5c-0.8,0-1-0.3-1-1.1V37.8z M84.9,40.8c0-0.9,0.3-1.3,0.9-1.3c0.5,0,0.7,0.3,0.7,1
		c0,0.2-0.1,0.3-0.2,0.3H84.9z M87.4,41.8c-0.3,0.6-0.7,1-1.3,1c-0.8,0-1.2-0.5-1.2-1.5v-0.1h2.8v-0.1c0-1.3-0.7-2.1-2-2.1
		c-1.4,0-2.3,0.9-2.3,2.2c0,1.3,0.9,2.2,2.3,2.2c1,0,1.7-0.5,1.9-1.4L87.4,41.8z M91.4,41.2c0,1-0.3,1.5-0.9,1.5
		c-0.5,0-0.8-0.5-0.8-1.6c0-1,0.3-1.6,0.9-1.6C91.1,39.6,91.4,40.2,91.4,41.2L91.4,41.2z M91.3,37.8v1.9c-0.3-0.4-0.7-0.6-1.2-0.6
		c-1.1,0-1.9,0.9-1.9,2.2c0,1.2,0.8,2.1,1.8,2.1c0.6,0,1.1-0.2,1.4-0.7v0.7l2-0.1v-0.4c-0.1,0-0.2,0-0.3,0c-0.4,0-0.5-0.1-0.5-0.3
		v-5.6l-2,0.1v0.4H91C91.2,37.5,91.3,37.5,91.3,37.8L91.3,37.8z M95.6,42.5v-3.4l-2,0.1v0.4c0.1,0,0.2,0,0.3,0
		c0.4,0,0.5,0.1,0.5,0.3v2.6c0,0.2-0.1,0.3-0.3,0.3l-0.4,0v0.4h2.6v-0.4l-0.3,0C95.6,42.8,95.6,42.7,95.6,42.5L95.6,42.5z
		 M94.1,37.7c0,0.4,0.3,0.8,0.7,0.8c0.4,0,0.7-0.3,0.7-0.8c0-0.4-0.3-0.8-0.7-0.8C94.5,36.9,94.1,37.3,94.1,37.7L94.1,37.7z
		 M100.1,41.7c-0.2,0.7-0.6,1.1-1.2,1.1c-0.7,0-1.1-0.6-1.1-1.7c0-1.1,0.3-1.6,1-1.6c0.3,0,0.5,0.1,0.5,0.2c0,0.1-0.3,0.2-0.3,0.6
		c0,0.3,0.3,0.7,0.7,0.7c0.5,0,0.8-0.3,0.8-0.8c0-0.6-0.7-1.1-1.7-1.1c-1.4,0-2.4,0.9-2.4,2.2c0,1.3,0.9,2.2,2.2,2.2
		c1,0,1.7-0.5,1.9-1.5L100.1,41.7z M105,42.2v-1.8c0-0.4,0-0.7-0.4-1c-0.3-0.3-0.9-0.4-1.5-0.4c-1.2,0-1.9,0.4-1.9,1.1
		c0,0.4,0.3,0.6,0.7,0.6c0.4,0,0.7-0.2,0.7-0.5c0-0.3-0.2-0.4-0.2-0.5c0-0.1,0.2-0.3,0.6-0.3c0.6,0,0.8,0.2,0.8,0.8v0.5
		c-1.9,0.3-2.8,0.7-2.8,1.6c0,0.6,0.5,1,1.3,1c0.6,0,1.2-0.2,1.7-0.6c0,0.3,0.4,0.6,0.8,0.6c0.6,0,1-0.4,1-0.7c0-0.1,0-0.1-0.1-0.1
		c-0.1,0-0.2,0.1-0.3,0.1C105.1,42.6,105,42.5,105,42.2L105,42.2z M103.7,41.2v0.5c0,0.7-0.4,1.1-0.9,1.1c-0.3,0-0.5-0.2-0.5-0.6
		C102.4,41.6,102.8,41.3,103.7,41.2L103.7,41.2z M106.6,37.8v4.7c0,0.2-0.1,0.3-0.3,0.3l-0.4,0v0.4h2.6v-0.4l-0.3,0
		c-0.2,0-0.3-0.1-0.3-0.3v-5.6l-2,0.1v0.4c0.1,0,0.2,0,0.3,0C106.5,37.4,106.6,37.5,106.6,37.8L106.6,37.8z M111.7,43.3h0.4l0.5-0.5
		c0.5,0.4,1.1,0.6,1.7,0.6c1.4,0,2.2-0.8,2.2-2c0-0.6-0.2-1.1-0.5-1.4c-0.4-0.4-0.9-0.5-1.5-0.7c-1.2-0.3-1.8-0.3-1.8-1
		c0-0.6,0.4-0.9,1.1-0.9c0.9,0,1.5,0.6,2.1,1.8h0.4l-0.1-2.2h-0.4l-0.4,0.4c-0.5-0.3-1-0.5-1.6-0.5c-1.3,0-2.1,0.8-2.1,1.9
		c0,1.1,0.7,1.6,2.1,2c0.7,0.2,1.2,0.3,1.5,0.5c0.2,0.1,0.3,0.4,0.3,0.6c0,0.6-0.4,1-1.2,1c-1,0-1.8-0.7-2.3-2.1h-0.4L111.7,43.3z
		 M120.7,41.7c-0.2,0.7-0.6,1.1-1.2,1.1c-0.7,0-1.1-0.6-1.1-1.7c0-1.1,0.3-1.6,1-1.6c0.3,0,0.5,0.1,0.5,0.2c0,0.1-0.3,0.2-0.3,0.6
		c0,0.3,0.3,0.7,0.7,0.7c0.5,0,0.8-0.3,0.8-0.8c0-0.6-0.7-1.1-1.7-1.1c-1.4,0-2.4,0.9-2.4,2.2c0,1.3,0.9,2.2,2.2,2.2
		c1,0,1.7-0.5,1.9-1.5L120.7,41.7z M121.3,43.2h2.5v-0.4l-0.3,0c-0.2,0-0.3-0.1-0.3-0.3v-1.3c0-0.9,0.2-1.4,0.9-1.4
		c0.5,0,0.6,0.3,0.6,0.8v1.8c0,0.3-0.1,0.3-0.3,0.3l-0.3,0v0.4h2.5v-0.4l-0.3,0c-0.2,0-0.3-0.1-0.3-0.3v-1.9c0-1-0.4-1.5-1.4-1.5
		c-0.6,0-1.1,0.2-1.4,0.7v-2.9l-2,0.1v0.4c0.1,0,0.2,0,0.3,0c0.3,0,0.4,0.1,0.4,0.3v4.7c0,0.2-0.1,0.3-0.3,0.3l-0.4,0V43.2z
		 M128.2,41.2c0-1.1,0.2-1.7,0.8-1.7c0.6,0,0.8,0.5,0.8,1.7c0,1.1-0.3,1.7-0.9,1.7C128.4,42.9,128.2,42.3,128.2,41.2L128.2,41.2z
		 M126.7,41.2c0,1.3,0.9,2.2,2.3,2.2c1.4,0,2.3-0.9,2.3-2.2c0-1.3-0.9-2.2-2.3-2.2C127.7,39,126.7,39.9,126.7,41.2L126.7,41.2z
		 M133.1,41.2c0-1.1,0.2-1.7,0.8-1.7c0.6,0,0.8,0.5,0.8,1.7c0,1.1-0.3,1.7-0.9,1.7C133.3,42.9,133.1,42.3,133.1,41.2L133.1,41.2z
		 M131.6,41.2c0,1.3,0.9,2.2,2.3,2.2c1.4,0,2.3-0.9,2.3-2.2c0-1.3-0.9-2.2-2.3-2.2C132.6,39,131.6,39.9,131.6,41.2L131.6,41.2z
		 M137.1,37.8c0-0.3-0.1-0.3-0.4-0.3c-0.1,0-0.2,0-0.3,0V37l2-0.1v5.6c0,0.2,0.1,0.3,0.3,0.3l0.3,0v0.4h-2.6v-0.4l0.4,0
		c0.2,0,0.3-0.1,0.3-0.3V37.8z M0,32.9v-2.4h2.3c2,0,2.3-0.5,2.3-2.3V5.6c0-1.8-0.3-2.4-2.3-2.4H0V0.9h29.7l0.4,11.5h-2.2
		C26.2,5.6,23,3.2,16,3.2c-2.6,0-3.3,0.2-3.3,2.4v9.6h0.6c4.1,0,5.7-1.7,6.5-6.2H22v14.7h-2.3c-0.8-4.4-2.5-6.1-6.5-6.1h-0.6v10.7
		c0,2.2,0.7,2.4,3.5,2.4c7.7,0,11.1-2.6,12.9-9.9l2.3,0.2l-0.6,12H0z M50.9,33.7h-3.7L35.2,5.1c-0.6-1.4-1.6-1.9-3.6-1.9V0.9h16v2.3
		h-1.6c-1.4,0-2.1,0.4-2.1,1.1c0,0.3,0.1,0.7,0.4,1.3L51.7,24l6.4-15.8c0.3-0.8,0.5-1.6,0.5-2.2c0-2-1.3-2.7-4.5-2.8V0.9h13.3v2.3
		c-2.6,0.1-4.6,1.9-6,5.3L50.9,33.7z M76.4,4.4v20.4c0,4.1,0.9,5.6,5.1,5.7v2.4h-13v-2.4c4.1-0.2,4.8-1.7,4.8-5.7V5.6
		c0-1.7-0.3-2.4-2.3-2.4h-2.3V0.9h14.6l7,19.2L97,0.9h14.3v2.3h-2.3c-1.9,0-2.3,0.6-2.3,2.4v22.7c0,1.8,0.4,2.3,2.3,2.3h2.3v2.4
		H94.5v-2.4h2c1.9,0,2.3-0.5,2.3-2.3v-24l-9.8,28.6h-2.3L76.4,4.4z M112.9,33.5l-0.4-12.9h2.3c2.6,7.1,6.9,10.7,12.4,10.7
		c4,0,6.3-2,6.3-5.2c0-1.4-0.6-2.7-1.7-3.4c-1.5-1-4.3-1.5-8.2-2.4c-7.5-1.8-11.2-4.5-11.2-10.2c0-5.7,4.6-10,11.6-10
		c3.1,0,5.8,0.8,8.4,2.4l2.3-2.2h2l0.5,11.7H135c-3.1-6.5-6.3-9.6-11.1-9.6c-3.9,0-6,1.8-6,4.8c0,3.7,3.7,4,9.9,5.4
		c3.3,0.8,6,1.4,8.1,3.4c1.8,1.7,2.8,4.3,2.8,7.4c0,6.2-4.4,10.3-11.8,10.3c-3.7,0-6.6-0.8-9.4-2.9l-2.7,2.7H112.9z"/>
</g>
<title>logo/evms</title>
<desc>Created with Sketch.</desc>
<g id="Symbols">
	<g id="Header" transform="translate(-34.000000, -18.000000)">
		<g id="logo_x2F_evms" transform="translate(34.000000, 18.000000)">
			<g id="Combined-Shape">
				<path id="path-1_1_" class="st1" d="M2.9,43.2h5.6l0.1-2.3l-0.4,0c-0.3,1.4-1,1.9-2.4,1.9c-0.5,0-0.6,0-0.6-0.5v-2.1h0.1
					c0.7,0,1,0.3,1.2,1.2h0.4v-2.8H6.5c-0.1,0.9-0.4,1.2-1.2,1.2H5.2V38c0-0.4,0.1-0.5,0.6-0.5c1.3,0,1.9,0.5,2.2,1.8h0.4l-0.1-2.2
					H2.9v0.4h0.4c0.4,0,0.4,0.1,0.4,0.5v4.4c0,0.3-0.1,0.4-0.4,0.4H2.9V43.2z M13.2,42.2v-1.8c0-0.4,0-0.7-0.4-1
					C12.6,39.2,12,39,11.3,39c-1.2,0-1.9,0.4-1.9,1.1c0,0.4,0.3,0.6,0.7,0.6c0.4,0,0.7-0.2,0.7-0.5c0-0.3-0.2-0.4-0.2-0.5
					c0-0.1,0.2-0.3,0.6-0.3c0.6,0,0.8,0.2,0.8,0.8v0.5c-1.9,0.3-2.8,0.7-2.8,1.6c0,0.6,0.5,1,1.3,1c0.6,0,1.2-0.2,1.7-0.6
					c0,0.3,0.4,0.6,0.8,0.6c0.6,0,1-0.4,1-0.7c0-0.1,0-0.1-0.1-0.1s-0.2,0.1-0.3,0.1C13.3,42.6,13.2,42.5,13.2,42.2L13.2,42.2z
					 M11.9,41.2v0.5c0,0.7-0.4,1.1-0.9,1.1c-0.3,0-0.5-0.2-0.5-0.6C10.6,41.6,11,41.3,11.9,41.2L11.9,41.2z M14.2,41.7l0,1.6h0.3
					l0.4-0.3c0.3,0.2,0.8,0.3,1.2,0.3c1.1,0,1.7-0.6,1.7-1.5c0-0.7-0.5-1.2-1.4-1.4c-0.8-0.1-1.2-0.2-1.2-0.6c0-0.3,0.3-0.5,0.7-0.5
					c0.5,0,1,0.4,1.3,1h0.4l0-1.4h-0.3l-0.3,0.2c-0.3-0.2-0.6-0.3-1-0.3c-1,0-1.6,0.5-1.6,1.4c0,0.8,0.5,1.2,1.7,1.4
					c0.6,0.1,0.9,0.2,0.9,0.6c0,0.3-0.3,0.5-0.7,0.5c-0.6,0-1.2-0.4-1.5-1.2H14.2z M21.3,41.6h-0.5c0,0.7-0.2,1-0.5,1
					c-0.3,0-0.4-0.2-0.4-0.7v-2.3h1.1v-0.5h-1.1v-1.7h-0.6c0,1.1-0.5,1.7-1.3,1.7v0.5h0.6V42c0,0.9,0.2,1.4,1.2,1.4
					c0.9,0,1.5-0.6,1.5-1.6C21.3,41.7,21.3,41.7,21.3,41.6L21.3,41.6z M23.1,40.8c0-0.9,0.3-1.3,0.9-1.3c0.5,0,0.7,0.3,0.7,1
					c0,0.2-0.1,0.3-0.2,0.3H23.1z M25.5,41.8c-0.3,0.6-0.7,1-1.3,1c-0.8,0-1.2-0.5-1.2-1.5v-0.1h2.8v-0.1c0-1.3-0.7-2.1-2-2.1
					c-1.4,0-2.3,0.9-2.3,2.2c0,1.3,0.9,2.2,2.3,2.2c1,0,1.7-0.5,1.9-1.4L25.5,41.8z M26.1,43.2h2.8v-0.4l-0.5,0
					c-0.2,0-0.3-0.1-0.3-0.3v-0.9c0-1.1,0.3-1.8,1-2c-0.1,0.1-0.2,0.2-0.2,0.4c0,0.4,0.3,0.7,0.6,0.7c0.4,0,0.7-0.3,0.7-0.8
					c0-0.5-0.4-0.8-0.9-0.8c-0.6,0-1,0.4-1.4,1.2v-1.2l-1.9,0.1v0.4c0.1,0,0.2,0,0.3,0c0.4,0,0.5,0.1,0.5,0.3v2.6
					c0,0.2-0.1,0.3-0.3,0.3l-0.4,0V43.2z M30.5,43.2H33v-0.4l-0.3,0c-0.2,0-0.3-0.1-0.3-0.3v-1.3c0-0.9,0.2-1.4,0.9-1.4
					c0.5,0,0.6,0.3,0.6,0.8v1.8c0,0.3-0.1,0.3-0.3,0.3l-0.3,0v0.4h2.5v-0.4l-0.4,0c-0.2,0-0.3-0.1-0.3-0.3v-1.9c0-1-0.4-1.5-1.4-1.5
					c-0.6,0-1.1,0.3-1.5,0.8v-0.8l-2,0.1v0.4c0.1,0,0.2,0,0.3,0c0.4,0,0.5,0.1,0.5,0.3v2.6c0,0.2-0.1,0.3-0.3,0.3l-0.4,0V43.2z
					 M41.8,43.4l1.9-4.8c0.3-0.7,0.6-1,1.1-1v-0.4h-2.4v0.5c0.6,0,0.8,0.2,0.8,0.5c0,0.1,0,0.3-0.1,0.4l-1.2,3L40.5,38
					c0-0.1-0.1-0.2-0.1-0.2c0-0.1,0.1-0.2,0.4-0.2h0.3v-0.4h-2.9v0.4c0.4,0,0.6,0.1,0.7,0.4l2.2,5.5H41.8z M46.6,42.5v-3.4l-2,0.1
					v0.4c0.1,0,0.2,0,0.3,0c0.4,0,0.5,0.1,0.5,0.3v2.6c0,0.2-0.1,0.3-0.3,0.3l-0.4,0v0.4h2.6v-0.4l-0.3,0
					C46.7,42.8,46.6,42.7,46.6,42.5L46.6,42.5z M45.2,37.7c0,0.4,0.3,0.8,0.7,0.8c0.4,0,0.7-0.3,0.7-0.8c0-0.4-0.3-0.8-0.7-0.8
					C45.5,36.9,45.2,37.3,45.2,37.7L45.2,37.7z M47.5,43.2h2.8v-0.4l-0.5,0c-0.2,0-0.3-0.1-0.3-0.3v-0.9c0-1.1,0.3-1.8,1-2
					c-0.1,0.1-0.2,0.2-0.2,0.4c0,0.4,0.3,0.7,0.6,0.7c0.4,0,0.7-0.3,0.7-0.8c0-0.5-0.4-0.8-0.9-0.8c-0.6,0-1,0.4-1.4,1.2v-1.2
					l-1.9,0.1v0.4c0.1,0,0.2,0,0.3,0c0.4,0,0.5,0.1,0.5,0.3v2.6c0,0.2-0.1,0.3-0.3,0.3l-0.4,0V43.2z M53.3,40.5c0-0.7,0.2-1,0.6-1
					c0.4,0,0.7,0.3,0.7,1c0,0.7-0.2,1-0.7,1C53.5,41.5,53.3,41.1,53.3,40.5L53.3,40.5z M53.2,43.6h1.2c0.5,0,0.8,0.1,0.8,0.4
					c0,0.4-0.4,0.5-1.3,0.5c-0.7,0-1-0.2-1-0.5C52.9,43.8,53,43.7,53.2,43.6L53.2,43.6z M52.8,43.4c-0.6,0.1-0.9,0.4-0.9,0.7
					c0,0.6,0.7,0.9,2,0.9c1.6,0,2.4-0.5,2.4-1.4c0-0.5-0.3-0.9-0.7-1.1c-0.2-0.1-0.6-0.1-1.3-0.1h-0.6c-0.3,0-0.4-0.1-0.4-0.3
					c0-0.2,0.1-0.3,0.4-0.3c0.1,0,0.3,0,0.4,0c1.3,0,1.9-0.6,1.9-1.4c0-0.4-0.2-0.8-0.6-1c0.1-0.2,0.2-0.3,0.3-0.3
					c0.1,0,0.1,0.1,0.1,0.2c0.1,0.2,0.2,0.3,0.4,0.3c0.3,0,0.5-0.2,0.5-0.6c0-0.3-0.3-0.6-0.6-0.6c-0.3,0-0.7,0.2-0.9,0.5L55,39.3
					c-0.4-0.2-0.7-0.2-1.1-0.2c-1.2,0-1.9,0.6-1.9,1.5c0,0.6,0.4,1,1,1.2c-0.7,0.1-1.1,0.4-1.1,0.9C51.9,43,52.2,43.2,52.8,43.4
					L52.8,43.4z M58.8,42.5v-3.4l-2,0.1v0.4c0.1,0,0.2,0,0.3,0c0.4,0,0.5,0.1,0.5,0.3v2.6c0,0.2-0.1,0.3-0.3,0.3l-0.4,0v0.4h2.6
					v-0.4l-0.3,0C58.9,42.8,58.8,42.7,58.8,42.5L58.8,42.5z M57.4,37.7c0,0.4,0.3,0.8,0.7,0.8c0.4,0,0.7-0.3,0.7-0.8
					c0-0.4-0.3-0.8-0.7-0.8C57.7,36.9,57.4,37.3,57.4,37.7L57.4,37.7z M59.7,43.2h2.6v-0.4l-0.3,0c-0.2,0-0.3-0.1-0.3-0.3v-1.3
					c0-0.9,0.2-1.4,0.9-1.4c0.5,0,0.6,0.3,0.6,0.8v1.8c0,0.3-0.1,0.3-0.3,0.3l-0.3,0v0.4h2.5v-0.4l-0.4,0c-0.2,0-0.3-0.1-0.3-0.3
					v-1.9c0-1-0.4-1.5-1.4-1.5c-0.6,0-1.1,0.3-1.5,0.8v-0.8l-2,0.1v0.4c0.1,0,0.2,0,0.3,0c0.4,0,0.5,0.1,0.5,0.3v2.6
					c0,0.2-0.1,0.3-0.3,0.3l-0.4,0V43.2z M67.4,42.5v-3.4l-2,0.1v0.4c0.1,0,0.2,0,0.3,0c0.4,0,0.5,0.1,0.5,0.3v2.6
					c0,0.2-0.1,0.3-0.3,0.3l-0.4,0v0.4H68v-0.4l-0.3,0C67.5,42.8,67.4,42.7,67.4,42.5L67.4,42.5z M66,37.7c0,0.4,0.3,0.8,0.7,0.8
					c0.4,0,0.7-0.3,0.7-0.8c0-0.4-0.3-0.8-0.7-0.8C66.3,36.9,66,37.3,66,37.7L66,37.7z M72.4,42.2v-1.8c0-0.4,0-0.7-0.4-1
					c-0.3-0.3-0.9-0.4-1.5-0.4c-1.2,0-1.9,0.4-1.9,1.1c0,0.4,0.3,0.6,0.7,0.6c0.4,0,0.7-0.2,0.7-0.5c0-0.3-0.2-0.4-0.2-0.5
					c0-0.1,0.2-0.3,0.6-0.3c0.6,0,0.8,0.2,0.8,0.8v0.5c-1.9,0.3-2.8,0.7-2.8,1.6c0,0.6,0.5,1,1.3,1c0.6,0,1.2-0.2,1.7-0.6
					c0.1,0.3,0.4,0.6,0.8,0.6c0.6,0,1-0.4,1-0.7c0-0.1,0-0.1-0.1-0.1c-0.1,0-0.2,0.1-0.3,0.1C72.5,42.6,72.4,42.5,72.4,42.2
					L72.4,42.2z M71.2,41.2v0.5c0,0.7-0.4,1.1-0.9,1.1c-0.3,0-0.5-0.2-0.5-0.6C69.8,41.6,70.2,41.3,71.2,41.2L71.2,41.2z M77,37.8
					l1.9,5.5h0.4l1.8-5.5v4.6c0,0.3-0.1,0.4-0.4,0.4h-0.4v0.5h3.1v-0.5H83c-0.4,0-0.4-0.1-0.4-0.4V38c0-0.3,0.1-0.5,0.4-0.5h0.4
					v-0.4h-2.6l-1.2,3.7l-1.3-3.7h-2.7v0.4H76c0.4,0,0.4,0.1,0.4,0.5v3.7c0,0.8-0.1,1.1-0.9,1.1v0.5h2.4v-0.5c-0.8,0-1-0.3-1-1.1
					V37.8z M84.9,40.8c0-0.9,0.3-1.3,0.9-1.3c0.5,0,0.7,0.3,0.7,1c0,0.2-0.1,0.3-0.2,0.3H84.9z M87.4,41.8c-0.3,0.6-0.7,1-1.3,1
					c-0.8,0-1.2-0.5-1.2-1.5v-0.1h2.8v-0.1c0-1.3-0.7-2.1-2-2.1c-1.4,0-2.3,0.9-2.3,2.2c0,1.3,0.9,2.2,2.3,2.2c1,0,1.7-0.5,1.9-1.4
					L87.4,41.8z M91.4,41.2c0,1-0.3,1.5-0.9,1.5c-0.5,0-0.8-0.5-0.8-1.6c0-1,0.3-1.6,0.9-1.6C91.1,39.6,91.4,40.2,91.4,41.2
					L91.4,41.2z M91.3,37.8v1.9c-0.3-0.4-0.7-0.6-1.2-0.6c-1.1,0-1.9,0.9-1.9,2.2c0,1.2,0.8,2.1,1.8,2.1c0.6,0,1.1-0.2,1.4-0.7v0.7
					l2-0.1v-0.4c-0.1,0-0.2,0-0.3,0c-0.4,0-0.5-0.1-0.5-0.3v-5.6l-2,0.1v0.4H91C91.2,37.5,91.3,37.5,91.3,37.8L91.3,37.8z
					 M95.6,42.5v-3.4l-2,0.1v0.4c0.1,0,0.2,0,0.3,0c0.4,0,0.5,0.1,0.5,0.3v2.6c0,0.2-0.1,0.3-0.3,0.3l-0.4,0v0.4h2.6v-0.4l-0.3,0
					C95.6,42.8,95.6,42.7,95.6,42.5L95.6,42.5z M94.1,37.7c0,0.4,0.3,0.8,0.7,0.8c0.4,0,0.7-0.3,0.7-0.8c0-0.4-0.3-0.8-0.7-0.8
					C94.5,36.9,94.1,37.3,94.1,37.7L94.1,37.7z M100.1,41.7c-0.2,0.7-0.6,1.1-1.2,1.1c-0.7,0-1.1-0.6-1.1-1.7c0-1.1,0.3-1.6,1-1.6
					c0.3,0,0.5,0.1,0.5,0.2c0,0.1-0.3,0.2-0.3,0.6c0,0.3,0.3,0.7,0.7,0.7c0.5,0,0.8-0.3,0.8-0.8c0-0.6-0.7-1.1-1.7-1.1
					c-1.4,0-2.4,0.9-2.4,2.2c0,1.3,0.9,2.2,2.2,2.2c1,0,1.7-0.5,1.9-1.5L100.1,41.7z M105,42.2v-1.8c0-0.4,0-0.7-0.4-1
					c-0.3-0.3-0.9-0.4-1.5-0.4c-1.2,0-1.9,0.4-1.9,1.1c0,0.4,0.3,0.6,0.7,0.6c0.4,0,0.7-0.2,0.7-0.5c0-0.3-0.2-0.4-0.2-0.5
					c0-0.1,0.2-0.3,0.6-0.3c0.6,0,0.8,0.2,0.8,0.8v0.5c-1.9,0.3-2.8,0.7-2.8,1.6c0,0.6,0.5,1,1.3,1c0.6,0,1.2-0.2,1.7-0.6
					c0,0.3,0.4,0.6,0.8,0.6c0.6,0,1-0.4,1-0.7c0-0.1,0-0.1-0.1-0.1c-0.1,0-0.2,0.1-0.3,0.1C105.1,42.6,105,42.5,105,42.2L105,42.2z
					 M103.7,41.2v0.5c0,0.7-0.4,1.1-0.9,1.1c-0.3,0-0.5-0.2-0.5-0.6C102.4,41.6,102.8,41.3,103.7,41.2L103.7,41.2z M106.6,37.8v4.7
					c0,0.2-0.1,0.3-0.3,0.3l-0.4,0v0.4h2.6v-0.4l-0.3,0c-0.2,0-0.3-0.1-0.3-0.3v-5.6l-2,0.1v0.4c0.1,0,0.2,0,0.3,0
					C106.5,37.4,106.6,37.5,106.6,37.8L106.6,37.8z M111.7,43.3h0.4l0.5-0.5c0.5,0.4,1.1,0.6,1.7,0.6c1.4,0,2.2-0.8,2.2-2
					c0-0.6-0.2-1.1-0.5-1.4c-0.4-0.4-0.9-0.5-1.5-0.7c-1.2-0.3-1.8-0.3-1.8-1c0-0.6,0.4-0.9,1.1-0.9c0.9,0,1.5,0.6,2.1,1.8h0.4
					l-0.1-2.2h-0.4l-0.4,0.4c-0.5-0.3-1-0.5-1.6-0.5c-1.3,0-2.1,0.8-2.1,1.9c0,1.1,0.7,1.6,2.1,2c0.7,0.2,1.2,0.3,1.5,0.5
					c0.2,0.1,0.3,0.4,0.3,0.6c0,0.6-0.4,1-1.2,1c-1,0-1.8-0.7-2.3-2.1h-0.4L111.7,43.3z M120.7,41.7c-0.2,0.7-0.6,1.1-1.2,1.1
					c-0.7,0-1.1-0.6-1.1-1.7c0-1.1,0.3-1.6,1-1.6c0.3,0,0.5,0.1,0.5,0.2c0,0.1-0.3,0.2-0.3,0.6c0,0.3,0.3,0.7,0.7,0.7
					c0.5,0,0.8-0.3,0.8-0.8c0-0.6-0.7-1.1-1.7-1.1c-1.4,0-2.4,0.9-2.4,2.2c0,1.3,0.9,2.2,2.2,2.2c1,0,1.7-0.5,1.9-1.5L120.7,41.7z
					 M121.3,43.2h2.5v-0.4l-0.3,0c-0.2,0-0.3-0.1-0.3-0.3v-1.3c0-0.9,0.2-1.4,0.9-1.4c0.5,0,0.6,0.3,0.6,0.8v1.8
					c0,0.3-0.1,0.3-0.3,0.3l-0.3,0v0.4h2.5v-0.4l-0.3,0c-0.2,0-0.3-0.1-0.3-0.3v-1.9c0-1-0.4-1.5-1.4-1.5c-0.6,0-1.1,0.2-1.4,0.7
					v-2.9l-2,0.1v0.4c0.1,0,0.2,0,0.3,0c0.3,0,0.4,0.1,0.4,0.3v4.7c0,0.2-0.1,0.3-0.3,0.3l-0.4,0V43.2z M128.2,41.2
					c0-1.1,0.2-1.7,0.8-1.7c0.6,0,0.8,0.5,0.8,1.7c0,1.1-0.3,1.7-0.9,1.7C128.4,42.9,128.2,42.3,128.2,41.2L128.2,41.2z M126.7,41.2
					c0,1.3,0.9,2.2,2.3,2.2c1.4,0,2.3-0.9,2.3-2.2c0-1.3-0.9-2.2-2.3-2.2C127.7,39,126.7,39.9,126.7,41.2L126.7,41.2z M133.1,41.2
					c0-1.1,0.2-1.7,0.8-1.7c0.6,0,0.8,0.5,0.8,1.7c0,1.1-0.3,1.7-0.9,1.7C133.3,42.9,133.1,42.3,133.1,41.2L133.1,41.2z M131.6,41.2
					c0,1.3,0.9,2.2,2.3,2.2c1.4,0,2.3-0.9,2.3-2.2c0-1.3-0.9-2.2-2.3-2.2C132.6,39,131.6,39.9,131.6,41.2L131.6,41.2z M137.1,37.8
					c0-0.3-0.1-0.3-0.4-0.3c-0.1,0-0.2,0-0.3,0V37l2-0.1v5.6c0,0.2,0.1,0.3,0.3,0.3l0.3,0v0.4h-2.6v-0.4l0.4,0
					c0.2,0,0.3-0.1,0.3-0.3V37.8z M0,32.9v-2.4h2.3c2,0,2.3-0.5,2.3-2.3V5.6c0-1.8-0.3-2.4-2.3-2.4H0V0.9h29.7l0.4,11.5h-2.2
					C26.2,5.6,23,3.2,16,3.2c-2.6,0-3.3,0.2-3.3,2.4v9.6h0.6c4.1,0,5.7-1.7,6.5-6.2H22v14.7h-2.3c-0.8-4.4-2.5-6.1-6.5-6.1h-0.6
					v10.7c0,2.2,0.7,2.4,3.5,2.4c7.7,0,11.1-2.6,12.9-9.9l2.3,0.2l-0.6,12H0z M50.9,33.7h-3.7L35.2,5.1c-0.6-1.4-1.6-1.9-3.6-1.9
					V0.9h16v2.3h-1.6c-1.4,0-2.1,0.4-2.1,1.1c0,0.3,0.1,0.7,0.4,1.3L51.7,24l6.4-15.8c0.3-0.8,0.5-1.6,0.5-2.2c0-2-1.3-2.7-4.5-2.8
					V0.9h13.3v2.3c-2.6,0.1-4.6,1.9-6,5.3L50.9,33.7z M76.4,4.4v20.4c0,4.1,0.9,5.6,5.1,5.7v2.4h-13v-2.4c4.1-0.2,4.8-1.7,4.8-5.7
					V5.6c0-1.7-0.3-2.4-2.3-2.4h-2.3V0.9h14.6l7,19.2L97,0.9h14.3v2.3h-2.3c-1.9,0-2.3,0.6-2.3,2.4v22.7c0,1.8,0.4,2.3,2.3,2.3h2.3
					v2.4H94.5v-2.4h2c1.9,0,2.3-0.5,2.3-2.3v-24l-9.8,28.6h-2.3L76.4,4.4z M112.9,33.5l-0.4-12.9h2.3c2.6,7.1,6.9,10.7,12.4,10.7
					c4,0,6.3-2,6.3-5.2c0-1.4-0.6-2.7-1.7-3.4c-1.5-1-4.3-1.5-8.2-2.4c-7.5-1.8-11.2-4.5-11.2-10.2c0-5.7,4.6-10,11.6-10
					c3.1,0,5.8,0.8,8.4,2.4l2.3-2.2h2l0.5,11.7H135c-3.1-6.5-6.3-9.6-11.1-9.6c-3.9,0-6,1.8-6,4.8c0,3.7,3.7,4,9.9,5.4
					c3.3,0.8,6,1.4,8.1,3.4c1.8,1.7,2.8,4.3,2.8,7.4c0,6.2-4.4,10.3-11.8,10.3c-3.7,0-6.6-0.8-9.4-2.9l-2.7,2.7H112.9z"/>
			</g>
		</g>
	</g>
</g>
</svg>
