<?xml version="1.0" encoding="utf-8"?>
<!-- Generator: Adobe Illustrator 23.1.1, SVG Export Plug-In . SVG Version: 6.00 Build 0)  -->
<svg version="1.1" id="Layer_1" x="0px" y="0px" viewBox="246.34 120.186 1044.173 193.723" style="enable-background:new 0 0 1536 400;" xmlns="http://www.w3.org/2000/svg">
  <defs></defs>
  <style type="text/css">
        .st0{fill:#8DCF6A;}
        .st1{fill:#003262;}
</style>
  <polygon style="fill:none;" points="370.61,-276.89 375.11,-276.89 375.11,-276.89 370.61,-276.89 "></polygon>
  <g>
    <g>
      <path class="st0" d="M953.58,208.58c0.18-7.74-6.48-14.23-15.73-14.23c-11.26,0-17.42,6.96-18.12,14.23H953.58L953.58,208.58z
                         M975.29,241.61c-8.19,9.4-21.7,14.79-35.06,14.79c-25.61,0-46.14-15.42-46.14-39.35c0-23.93,20.53-39.36,46.14-39.36
                        c23.96,0,39.01,15.43,39.01,39.36v7.28h-59.51c2.06,8.78,9.41,14.51,19.35,14.51c8.36,0,13.99-3.87,18.26-9.12L975.29,241.61
                        L975.29,241.61z"></path>
      <path class="st0" d="M1041.37,221.69c-7.88,0-25.32,0.6-25.32,10.78c0,5.57,6.51,8.19,12.13,8.19c10.11,0,19.49-4.76,19.49-14.03
                        v-4.93H1041.37L1041.37,221.69z M1047.66,245.14h-0.33c-5.64,8.04-15.9,11.26-26.32,11.26c-15.55,0-29.58-8.01-29.58-23.15
                        c0-25.93,34.88-26.39,56.23-26.39c0-8.19-7.5-13.43-16.4-13.43c-8.37,0-15.38,3.41-20.85,8.96l-13.68-12.65
                        c9.4-8.01,23.08-12.04,36.59-12.04c29.93,0,37.93,13.75,37.93,38.76v38.11h-23.59V245.14L1047.66,245.14z"></path>
      <path class="st0" d="M808.14,142.83l0,46.22h42.17l0-43.44h25.54l0,108.9h-25.54v-44.43h-42.17v44.43H782.6l0-111.68H808.14z"></path>
      <path class="st0" d="M1091.15,142.83h25.54v111.68h-25.54V142.83z"></path>
      <path class="st0" d="M1170.08,156.16v21.03h18.31v17.71h-18.31v27.99c0,9.33,2.52,13.6,10.08,13.6c3.53,0,5.21-0.16,7.56-0.63
                        l0.17,18.18c-3.19,1.11-9.41,2.06-16.46,2.06c-8.23,0-15.12-2.69-19.32-6.64c-4.7-4.59-7.06-12.02-7.06-22.93V194.9h-10.92v-17.71
                        h10.92v-14.55L1170.08,156.16z"></path>
      <path class="st0" d="M1209.94,142.08h25.54v44.43h0.34c2.69-3.48,6.05-6.17,10.08-8.06c3.86-1.9,8.57-3,13.27-3
                        c16.3,0,28.73,10.59,28.73,33.99v45.06h-25.54v-42.53c0-10.12-3.7-17.08-13.27-17.08c-6.72,0-10.92,4.11-12.77,8.54
                        c-0.67,1.42-0.84,3.48-0.84,5.22v45.85h-25.54V142.08z"></path>
    </g>
    <g>
      <path class="st1" d="M504.94,203.2c-2.62-3.33-7.53-5.85-12.95-5.85c-13.16,0-21.04,7.9-21.04,19.45
                        c0,11.55,7.88,19.47,21.04,19.47c5.78,0,9.97-2.69,12.95-5.86l17.36,16.44c-8.25,7.6-20.33,10.29-30.3,10.29
                        c-26.31,0-47.34-15.81-47.34-40.34c0-24.53,21.03-40.35,47.34-40.35c9.97,0,22.06,2.7,30.3,10.3L504.94,203.2L504.94,203.2z"></path>
      <path class="st1" d="M589.24,208.12c0.19-7.93-6.65-14.59-16.13-14.59c-11.55,0-17.86,7.13-18.58,14.59H589.24L589.24,208.12z
                         M611.49,241.97c-8.4,9.64-22.25,15.16-35.94,15.16c-26.25,0-47.3-15.81-47.3-40.34c0-24.53,21.04-40.35,47.3-40.35
                        c24.57,0,39.99,15.82,39.99,40.35v7.46h-61c2.12,9,9.65,14.87,19.83,14.87c8.57,0,14.35-3.97,18.72-9.35L611.49,241.97
                        L611.49,241.97z"></path>
      <polygon class="st1" points="630.96,143.24 657.23,143.24 657.23,255.25 630.96,255.25 630.96,143.24                "></polygon>
      <path class="st1" d="M723.28,221.56c-8.08,0-25.96,0.62-25.96,11.05c0,5.71,6.68,8.39,12.44,8.39c10.36,0,19.98-4.88,19.98-14.38
                        v-5.06H723.28L723.28,221.56z M729.73,245.59h-0.33c-5.78,8.25-16.3,11.54-26.98,11.54c-15.94,0-30.32-8.21-30.32-23.73
                        c0-26.58,35.75-27.05,57.64-27.05c0-8.39-7.69-13.77-16.81-13.77c-8.58,0-15.77,3.5-21.37,9.18l-14.03-12.97
                        c9.64-8.21,23.66-12.35,37.51-12.35c30.68,0,38.88,14.1,38.88,39.73v39.07h-24.18V245.59L729.73,245.59z"></path>
      <polygon class="st1" points="379.82,214.11 351.42,178.35 382.43,178.35 397.52,199.25 412.06,178.35 441.33,178.35 
                        413.64,214.11 446.41,255.25 415.39,255.25 396.81,229.63 376.84,255.25 346.18,255.25 379.82,214.11               "></polygon>
      <polygon class="st1" points="248.1,143.24 332.4,143.24 332.4,166.02 275.44,166.02 275.44,186.89 329.24,186.89 329.24,209.69 
                        275.44,209.69 275.44,232.46 335.57,232.46 335.57,255.25 248.1,255.25 248.1,143.24               "></polygon>
    </g>
    <path class="st0" d="M510.27,122.05c-54.57-0.67-71.93,24.49-91.6,46.35l30.59,0.02C477.66,131.98,510.27,122.05,510.27,122.05z"></path>
    <g>
      <path class="st0" d="M279.46,312.47c54.57,0.67,71.93-24.49,91.6-46.35l-30.59-0.02C312.07,302.53,279.46,312.47,279.46,312.47z"></path>
    </g>
  </g>
</svg>