<?xml version="1.0" encoding="UTF-8" standalone="no"?>
<svg width="217px" height="37px" viewBox="0 0 217 37" version="1.1" xmlns="http://www.w3.org/2000/svg" xmlns:xlink="http://www.w3.org/1999/xlink">
    <!-- Generator: sketchtool 41.1 (35376) - http://www.bohemiancoding.com/sketch -->
    <title>681631F1-D076-40CA-9BA6-71AE60462323</title>
    <desc>Created with sketchtool.</desc>
    <defs></defs>
    <g id="HEADER-NAV-EXPLORATION" stroke="none" stroke-width="1" fill="none" fill-rule="evenodd">
        <g id="B2B-Landing" transform="translate(-152.000000, -38.000000)" fill="#008188">
            <g id="FV_Brand_Teal" transform="translate(152.000000, 38.000000)">
                <path d="M16.9166162,28.0735625 L16.9166162,19.8251875 L8.71753514,19.8251875 L8.71753514,22.712 L14.0651189,22.712 L14.0651189,28.0735625 L16.9166162,28.0735625 Z M27.514427,19.8251875 L19.3376324,19.8251875 L19.3376324,28.0735625 L22.1891297,28.0735625 L22.1891297,22.712 L27.514427,22.712 L27.514427,19.8251875 Z M14.0651189,30.946125 L14.0651189,31.15275 C14.0651189,32.670375 12.7912703,33.910125 11.2922108,33.910125 L3.05207568,33.910125 L3.05207568,25.4705625 C3.05207568,23.9529375 4.21918378,22.712 5.71824324,22.712 L5.97981622,22.712 L5.97981622,19.8251875 L5.36048649,19.8251875 C2.15827027,19.8251875 0,21.9745625 0,25.3351875 L0,37 L11.4611189,37 C14.9905946,37 16.9166162,34.8209375 16.9166162,31.6194375 L16.9166162,30.946125 L14.0651189,30.946125 Z M5.97981622,14.4220625 L5.77571892,14.4220625 C4.27665946,14.4220625 3.05207568,13.081375 3.05207568,11.566125 L3.05207568,3.22275 L11.3895676,3.22275 C12.888627,3.22275 14.0651189,4.4019375 14.0651189,5.92075 L14.0651189,6.184375 L16.9166162,6.184375 L16.9166162,5.557375 C16.9166162,2.3166875 14.8428,0.132875 11.5232865,0.132875 L0,0.132875 L0,11.73475 C0,15.3079375 2.15357838,17.308875 5.31591351,17.308875 L5.97981622,17.308875 L5.97981622,14.4220625 Z M22.1891297,6.184375 L22.1891297,5.9789375 C22.1891297,4.4625 23.4876108,3.22275 24.9866703,3.22275 L33.2268054,3.22275 L33.2268054,11.6635 C33.2268054,13.17875 32.0596973,14.4220625 30.5606378,14.4220625 L30.3002378,14.4220625 L30.3002378,17.308875 L30.9172216,17.308875 C34.1194378,17.308875 36.2788811,15.157125 36.2788811,11.7976875 L36.2788811,0.132875 L24.8177622,0.132875 C21.2871135,0.132875 19.3376324,2.3119375 19.3376324,5.51225 L19.3376324,6.184375 L22.1891297,6.184375 Z M30.3002378,22.712 L30.5019892,22.712 C32.0010486,22.712 33.2268054,24.0503125 33.2268054,25.5679375 L33.2268054,33.910125 L24.8916595,33.910125 C23.391427,33.910125 22.1891297,32.7309375 22.1891297,31.212125 L22.1891297,30.946125 L19.3376324,30.946125 L19.3376324,31.5743125 C19.3376324,34.815 21.4372541,37 24.7544216,37 L36.2788811,37 L36.2788811,25.3969375 C36.2788811,21.826125 34.1276486,19.8251875 30.9641405,19.8251875 L30.3002378,19.8251875 L30.3002378,22.712 Z M19.3376324,9.0593125 L19.3376324,17.308875 L27.514427,17.308875 L27.514427,14.4220625 L22.1891297,14.4220625 L22.1891297,9.0593125 L19.3376324,9.0593125 Z M8.71753514,14.4220625 L14.0651189,14.4220625 L14.0651189,9.0593125 L16.9166162,9.0593125 L16.9166162,17.308875 L8.71753514,17.308875 L8.71753514,14.4220625 L8.71753514,14.4220625 Z" id="Fill-1"></path>
                <path d="M105.302476,30.3975 C105.302476,31.8308125 104.51893,32.532625 103.2052,32.532625 L103.2052,33.4054375 C103.795205,33.3436875 106.100097,33.2106875 107.258995,33.2106875 C108.573897,33.2106875 110.423676,33.3484375 111.095789,33.4054375 L111.095789,32.532625 C109.780886,32.532625 109.13927,31.8711875 109.13927,30.3975 L109.13927,22.609875 C110.913978,22.6965625 112.122141,23.3568125 113.120341,24.543125 C113.120341,24.543125 117.128389,29.7705 117.372368,30.1018125 C117.94947,30.870125 118.32013,31.357 118.32013,31.748875 C118.32013,32.2511875 117.94947,32.50175 117.418114,32.532625 L117.418114,33.40425 C118.212216,33.3223125 120.897151,33.2106875 122.002092,33.2106875 C122.978005,33.2106875 125.176157,33.3436875 125.919822,33.4054375 L125.919822,32.532625 C124.954465,32.532625 124.188514,32.0540625 123.376816,31.164625 L115.806449,21.762 L115.806449,21.688375 C118.737708,21.3523125 122.014995,19.11625 122.014995,15.5288125 C122.014995,11.4984375 118.897232,8.3515625 111.694005,8.3515625 C109.936892,8.3515625 105.607449,8.5653125 102.881459,8.5653125 L102.881459,9.433375 C104.468492,9.433375 105.101897,10.264625 105.14647,12.11475 C105.212157,14.8661875 105.302476,17.7815 105.302476,20.9841875 L105.302476,30.3975 Z M109.13927,15.717625 C109.13927,13.6335625 109.193227,12.4009375 109.270643,11.24075 C109.346886,10.1043125 109.602595,9.70175 111.148573,9.70175 C115.878,9.70175 117.955335,12.4246875 117.955335,15.6475625 C117.955335,18.553375 116.130189,21.2596875 110.917497,21.2596875 C110.219578,21.2596875 109.519314,21.1456875 109.13927,21.0459375 L109.13927,15.717625 L109.13927,15.717625 Z" id="Fill-2"></path>
                <path d="M192.617411,33.8234375 L196.984389,24.8720625 L197.120454,24.8720625 L201.094486,33.8234375 L202.297957,33.8234375 C202.297957,33.8234375 210.173297,17.2364375 211.560924,14.264125 C212.957935,11.274 213.7016,9.4215 216.106195,9.4215 L216.106195,8.5558125 C215.265173,8.6531875 213.501022,8.74225 212.467632,8.74225 C211.435416,8.74225 210.057173,8.6389375 209.159849,8.5558125 L209.159849,9.4215 C210.13107,9.4868125 210.689405,10.027125 210.689405,10.9759375 C210.689405,11.4746875 210.491173,12.240625 210.179162,12.8878125 L202.886789,29.0140625 L202.75307,29.0140625 L199.340892,20.9735 L203.562422,12.3296875 C204.507838,10.4273125 205.726557,9.4215 207.005097,9.4215 L207.005097,8.5558125 C206.26847,8.6318125 204.872632,8.74225 203.913141,8.74225 C202.763627,8.74225 201.238762,8.6235 200.549054,8.5558125 L200.549054,9.4215 C201.4628,9.4215 202.063362,9.9404375 202.063362,10.6933125 C202.063362,11.1730625 201.88507,11.832125 201.534351,12.60875 L198.576114,19.0461875 L198.502216,19.0461875 L195.609665,12.240625 C195.35513,11.5981875 195.180357,11.1564375 195.180357,10.639875 C195.180357,10.0591875 195.57213,9.4215 196.467108,9.4215 L196.467108,8.5558125 C195.764497,8.6235 193.548751,8.74225 192.442638,8.74225 C191.296643,8.74225 189.840984,8.602125 188.848649,8.5558125 L188.848649,9.4215 C190.270292,9.4215 190.712503,10.1684375 191.083162,10.9165625 L196.327524,23.0599375 L193.4772,29.0591875 L193.320022,29.0591875 L186.285703,12.52325 C185.843492,11.4925 185.709773,11.06975 185.709773,10.5983125 C185.709773,9.9155 186.175443,9.4215 187.106784,9.4215 L187.106784,8.5558125 C186.483935,8.6033125 184.268189,8.74225 183.162076,8.74225 C182.053616,8.74225 179.94813,8.6270625 179.18687,8.5558125 L179.18687,9.4215 C180.075984,9.4215 180.972135,10.0971875 181.858903,12.0898125 L191.506605,33.8234375 L192.617411,33.8234375" id="Fill-3"></path>
                <path d="M152.014951,8.7434375 C153.999622,8.7434375 156.130914,8.6033125 156.672827,8.5558125 L156.672827,9.4250625 C155.164384,9.4250625 154.599011,10.2753125 154.599011,11.5601875 L154.500481,21.0245625 L154.500481,30.385625 C154.500481,32.041 155.271124,32.5266875 156.5872,32.5266875 L156.5872,33.3959375 C155.845881,33.3246875 153.626616,33.207125 152.387957,33.207125 C151.182141,33.207125 149.274886,33.3365625 148.642654,33.3959375 L148.642654,32.5266875 C150.079546,32.5266875 150.714124,31.7001875 150.714124,30.385625 L150.714124,20.9770625 L150.614422,11.5601875 C150.614422,10.074625 150.02207,9.4321875 148.80687,9.4321875 C147.638589,9.4321875 146.599335,10.117375 146.107859,11.3773125 L136.080114,33.8210625 L134.569324,33.8210625 L125.013114,11.057875 C124.542751,9.9451875 123.869465,9.4215 122.847805,9.4215 L122.847805,8.5558125 C123.368605,8.5914375 125.960876,8.74225 127.158481,8.74225 C128.358432,8.74225 130.47213,8.5914375 130.968297,8.5558125 L130.968297,9.4215 C129.744886,9.4215 129.461027,10.0116875 129.461027,10.5579375 C129.461027,11.0175 129.655741,11.6171875 129.795324,11.9544375 L136.478924,28.6055625 L136.640795,28.6055625 L142.764886,13.73925 C143.134373,12.8759375 143.44873,11.9496875 143.44873,11.1445625 C143.44873,10.112625 142.960773,9.4215 141.415968,9.4215 L141.415968,8.5558125 C142.228838,8.6270625 144.687389,8.7434375 145.813443,8.7434375 L152.014951,8.7434375" id="Fill-4"></path>
                <path d="M88.2146054,29.777625 L79.7316649,8.1425625 L78.0496216,8.1425625 L68.6001514,29.777625 C67.876427,31.40925 67.0154649,32.423375 65.1891459,32.5385625 L65.1891459,33.409 C65.8941027,33.3294375 67.3732216,33.207125 68.6834324,33.207125 C70.2950973,33.207125 71.8645351,33.3294375 72.4909027,33.409 L72.4909027,32.532625 C71.3237946,32.532625 70.5120973,32.1229375 70.5120973,30.9639375 C70.5120973,30.3975 70.7032919,29.78475 70.9202919,29.2325625 L72.0651135,26.291125 L82.5679135,26.291125 L83.8429351,29.525875 C84.1162378,30.271625 84.3062595,30.775125 84.3062595,31.32375 C84.3062595,31.938875 83.8147838,32.5266875 82.7731838,32.5266875 L82.7731838,33.409 C83.329173,33.3484375 86.8140757,33.2130625 87.9741459,33.2130625 L94.5181622,33.2130625 C95.7591676,33.2130625 98.5262108,33.3365625 99.2698757,33.409 L99.2698757,32.5385625 C97.952627,32.5385625 97.1843297,32.0540625 97.1843297,30.3975 L97.1843297,21.0364375 L97.2828595,11.5720625 C97.2828595,10.2871875 97.8470595,9.438125 99.3555027,9.438125 L99.3555027,8.5700625 C98.8112432,8.6045 96.4312811,8.758875 95.1163784,8.758875 C93.9551351,8.758875 91.7499459,8.602125 91.225627,8.5700625 L91.225627,9.438125 C92.7340703,9.438125 93.2970973,10.22425 93.2970973,11.5720625 L93.3968,20.990125 L93.3968,30.3975 C93.3968,31.71325 92.7751243,32.5266875 91.4954108,32.5266875 C90.2755189,32.5266875 88.8726432,31.487625 88.2146054,29.777625 Z M77.5018432,13.2785 L77.6883459,13.2785 L82.0635351,24.8316875 L72.5917784,24.8316875 L77.5018432,13.2785 L77.5018432,13.2785 Z" id="Fill-5"></path>
                <path d="M177.914195,8.5700625 C177.538843,8.64725 175.097886,8.7529375 173.094449,8.7529375 L165.039643,8.7529375 C163.971065,8.7529375 161.280265,8.633 160.099081,8.5486875 L160.099081,9.419125 C161.367065,9.46425 162.155303,9.856125 162.303097,11.3155625 C162.507195,13.3319375 162.586957,15.9040625 162.586957,18.893 L162.586957,30.019875 C162.586957,32.0659375 161.445654,32.5005625 160.143654,32.5005625 L160.143654,33.3721875 C161.004616,33.2890625 162.909524,33.1964375 164.542303,33.1964375 L174.494978,33.1964375 C177.049714,33.1964375 178.311832,33.31875 178.892454,33.3840625 L179.699459,27.8051875 L178.850227,27.6033125 C178.469011,29.2919375 177.727692,31.7453125 174.321378,31.7453125 L166.376832,31.7453125 L166.376832,21.2929375 L170.9092,21.2929375 C172.940789,21.2929375 173.760697,22.5991875 174.043384,23.8698125 L174.880886,23.8698125 C174.721362,23.0053125 174.625178,21.47225 174.625178,20.652875 C174.625178,19.835875 174.768281,18.059375 174.880886,17.370625 L174.043384,17.370625 C173.760697,18.7493125 172.907946,19.843 170.9092,19.843 L166.376832,19.843 L166.376832,10.198125 L172.273368,10.198125 C175.556519,10.198125 176.548854,11.2253125 176.9852,13.66325 L177.914195,13.66325 L177.914195,8.5700625" id="Fill-6"></path>
                <path d="M57.026427,5.1595625 L65.8061297,5.1595625 C68.6975081,5.1595625 69.3402973,7.17475 69.5314919,9.0711875 L70.5191351,9.0711875 L70.5191351,3.5505 C68.9414865,3.5505 66.8993405,3.7215 64.2085405,3.7215 L50.0331622,3.7215 L50.0331622,4.63825 C51.5357405,4.75225 52.4307189,5.04675 52.6617946,7.13675 C52.8377405,8.7268125 53.0477027,11.16475 53.0477027,16.8315 L53.0477027,29.6268125 C53.0477027,31.6051875 52.1820486,32.4839375 50.4284541,32.4839375 L50.4284541,33.4006875 C51.3644865,33.3199375 53.6728973,33.1940625 55.1238649,33.1940625 C56.6416919,33.1940625 58.8457081,33.3199375 59.6961135,33.4006875 L59.6961135,32.4839375 C57.8439892,32.4839375 57.026427,31.7025625 57.026427,29.6268125 L57.026427,18.7968125 L61.9775459,18.7968125 C64.5768541,18.7968125 65.619627,20.0864375 66.1134486,21.8320625 L66.9966973,21.8320625 C66.8406919,20.8868125 66.620173,19.522375 66.620173,18.0273125 C66.620173,16.6355625 66.7621027,15.033625 66.9028595,14.116875 L66.0196108,14.116875 C65.6430865,16.026375 64.5768541,17.4050625 61.9775459,17.4050625 L57.026427,17.4050625 L57.026427,5.1595625" id="Fill-7"></path>
            </g>
        </g>
    </g>
</svg>