<?xml version="1.0" encoding="UTF-8" standalone="no"?>
<svg
   xmlns:dc="http://purl.org/dc/elements/1.1/"
   xmlns:cc="http://creativecommons.org/ns#"
   xmlns:rdf="http://www.w3.org/1999/02/22-rdf-syntax-ns#"
   xmlns:svg="http://www.w3.org/2000/svg"
   xmlns="http://www.w3.org/2000/svg"
   xmlns:sodipodi="http://sodipodi.sourceforge.net/DTD/sodipodi-0.dtd"
   xmlns:inkscape="http://www.inkscape.org/namespaces/inkscape"
   version="1.1"
   id="svg2"
   xml:space="preserve"
   width="1201.5732"
   height="232.46667"
   viewBox="0 0 1201.5732 232.46667"
   sodipodi:docname="CS_AHS-Foundation-2c CMYK.eps"><metadata
     id="metadata8"><rdf:RDF><cc:Work
         rdf:about=""><dc:format>image/svg+xml</dc:format><dc:type
           rdf:resource="http://purl.org/dc/dcmitype/StillImage" /></cc:Work></rdf:RDF></metadata><defs
     id="defs6" /><sodipodi:namedview
     pagecolor="#ffffff"
     bordercolor="#666666"
     borderopacity="1"
     objecttolerance="10"
     gridtolerance="10"
     guidetolerance="10"
     inkscape:pageopacity="0"
     inkscape:pageshadow="2"
     inkscape:window-width="640"
     inkscape:window-height="480"
     id="namedview4" /><g
     id="g10"
     inkscape:groupmode="layer"
     inkscape:label="ink_ext_XXXXXX"
     transform="matrix(1.3333333,0,0,-1.3333333,0,232.46667)"><g
       id="g12"
       transform="scale(0.1)"><path
         d="M 15.832,-0.0117188 1348.07,1743.51 H 448.125 L 6.45703,0.0390625 15.832,-0.0117188"
         style="fill:#f9aa4a;fill-opacity:1;fill-rule:nonzero;stroke:none"
         id="path14" /><path
         d="m 1352.19,1743.51 h -4.17 L 15.7734,-0.0117188 H 29.7891 L 1352.19,718.289 V 1743.51 Z M 0,0.0390625 V 1743.51 H 448.066 L 6.49219,0.0390625 H 0"
         style="fill:#f68b11;fill-opacity:1;fill-rule:nonzero;stroke:none"
         id="path16" /><path
         d="M 29.8438,-0.0117188 H 1352.24 V 718.289 Z"
         style="fill:#1a3e7e;fill-opacity:1;fill-rule:nonzero;stroke:none"
         id="path18" /><path
         d="m 2308.08,1630.38 h -7.5 c -8.99,17.99 -35.22,70.45 -143.15,70.45 -125.17,0 -191.88,-82.44 -191.88,-224.1 0,-26.23 0,-95.94 45.72,-156.65 26.99,-35.23 67.45,-68.2 135.66,-68.2 92.19,0 139.41,45.72 173.14,85.44 l 8.24,-5.25 -8.24,-74.2 c -56.96,-31.48 -121.42,-47.22 -189.63,-47.22 -146.15,0 -267.58,90.7 -267.58,259.33 0,150.65 92.2,271.33 292.32,271.33 61.45,0 115.42,-10.5 175.38,-37.48 l -22.48,-73.45"
         style="fill:#1a3e7e;fill-opacity:1;fill-rule:nonzero;stroke:none"
         id="path20" /><path
         d="m 2629.66,1434.75 c 0,36.73 0,121.43 -74.95,121.43 -77.21,0 -81.7,-92.94 -83.2,-121.43 z m -159.65,-36.72 c 0,-27.73 0,-141.65 119.17,-141.65 33.73,0 81.7,18.73 106.43,47.21 l 8.25,-5.24 c -2.25,-5.25 -4.5,-10.5 -6,-15.74 l -6.74,-32.23 c -5.25,-6 -53.97,-38.23 -125.92,-38.23 -27.74,0 -94.44,7.5 -135.67,49.47 -49.46,50.22 -50.21,116.92 -50.21,143.15 0,124.43 85.44,181.39 173.89,181.39 27.73,0 103.43,0 140.9,-68.21 12.75,-23.98 23.99,-62.96 21.74,-119.92 h -245.84"
         style="fill:#1a3e7e;fill-opacity:1;fill-rule:nonzero;stroke:none"
         id="path22" /><path
         d="m 3097.38,1313.34 c 0,-37.48 2.24,-74.95 5.25,-92.2 -16.49,1.5 -32.24,4.5 -48.73,4.5 -16.48,0 -34.47,-3 -48.71,-4.5 5.99,35.98 8.99,106.44 8.99,141.66 0,38.98 0,100.44 -5.25,120.68 -8.99,35.22 -37.47,49.46 -69.7,49.46 -28.48,0 -54.71,-18.73 -66.71,-43.47 -10.49,-21.74 -12.74,-73.45 -12.74,-98.93 0,-68.21 1.5,-118.43 5.25,-169.4 -7.5,0.75 -40.48,4.5 -47.22,4.5 -14.99,0 -31.48,-2.24 -47.22,-4.5 6.75,99.69 7.49,110.93 7.49,200.13 0,95.18 -0.74,104.18 -5.99,159.64 7.49,-1.5 22.48,-4.5 49.47,-4.5 20.23,0 29.22,2.25 41.22,4.5 -3.75,-21.73 -3.75,-24.73 -3.75,-62.21 30.73,41.23 58.46,65.96 116.18,65.96 81.69,0 125.16,-46.47 125.16,-126.67 0,-20.99 -2.99,-107.93 -2.99,-144.65"
         style="fill:#1a3e7e;fill-opacity:1;fill-rule:nonzero;stroke:none"
         id="path24" /><path
         d="m 3299.02,1710.57 c -3,-10.48 -3,-23.23 -5.25,-135.66 33.73,0 38.23,0 51.72,0.75 l 27.74,2.25 c -1.5,-6.74 -2.25,-11.24 -2.25,-18.73 0,-8.25 0.75,-14.99 2.25,-22.49 -32.24,3 -40.48,3 -81.7,3 0,-32.23 -2.25,-112.42 -2.25,-143.91 0,-110.93 3.75,-143.15 53.97,-143.15 16.48,0 29.98,5.24 44.97,15.74 -0.76,-3.75 -3,-11.99 -3,-17.99 0,-7.5 1.5,-11.99 3,-17.24 -21.74,-11.25 -59.96,-21.73 -84.7,-21.73 -20.99,0 -50.22,5.99 -67.46,19.48 -25.48,20.24 -31.48,54.72 -31.48,84.7 0,32.97 4.5,164.14 4.5,224.1 h -22.48 c -14.24,0 -26.24,-1.5 -35.23,-2.25 0.75,3.75 2.25,8.99 2.25,16.49 0,8.25 -0.76,14.99 -2.25,23.98 5.24,-0.74 15.74,-3 25.48,-3 h 32.98 c 0,20.99 0,50.97 -1.5,85.45 42.72,19.49 71.96,40.47 85.44,52.46 l 5.25,-2.25"
         style="fill:#1a3e7e;fill-opacity:1;fill-rule:nonzero;stroke:none"
         id="path26" /><path
         d="m 3438.45,1294.6 c 1.49,32.98 1.49,90.69 1.49,119.92 0,81.7 -1.49,100.43 -5.24,166.39 17.24,-3 29.98,-4.5 49.47,-4.5 17.99,0 30.73,1.5 42.72,4.5 -4.49,-38.23 -4.49,-41.97 -4.49,-78.7 20.23,32.23 50.21,82.45 110.17,82.45 7.5,0 13.49,-0.75 19.49,-2.25 -6,-11.24 -6.74,-43.47 -6.74,-53.96 0,-12 1.49,-23.24 3.74,-32.23 l -5.25,-3.75 c -12.74,10.49 -40.47,10.49 -44.22,10.49 -33.73,0 -57.71,-20.98 -66.71,-40.47 -5.24,-11.24 -8.99,-22.49 -8.99,-74.2 0,-47.97 2.25,-120.67 6.75,-167.15 -9,0.75 -27.74,4.5 -43.47,4.5 -12.74,0 -29.24,-2.24 -51.72,-4.5 l 3,73.46"
         style="fill:#1a3e7e;fill-opacity:1;fill-rule:nonzero;stroke:none"
         id="path28" /><path
         d="m 3884.43,1407.02 c -85.45,-22.48 -116.17,-30.72 -116.17,-84.69 0,-39.72 19.48,-64.46 49.46,-64.46 40.48,0 66.71,32.23 66.71,71.2 z m -54.72,18.74 c 44.22,11.99 50.22,14.24 53.97,20.99 2.25,4.5 2.99,9.74 2.99,14.99 0,56.96 -32.22,79.45 -72.7,79.45 -56.96,0 -76.45,-35.23 -80.94,-53.22 -3.75,0.75 -7.5,1.5 -11.25,1.5 -3.74,0 -8.24,-0.75 -11.99,-1.5 2.25,14.24 3.75,23.99 3.75,36.73 0,6.75 0,13.49 -0.75,20.23 56.96,34.48 80.2,41.98 119.17,41.98 80.95,0 136.41,-36.73 136.41,-112.43 0,-27.73 -2.24,-103.43 -2.24,-128.16 0,-73.46 0.74,-91.45 26.23,-91.45 7.49,0 14.24,3 20.98,6 -1.5,-4.49 -2.99,-8.99 -2.99,-13.49 0,-4.5 1.49,-8.99 2.99,-13.49 -19.48,-7.5 -42.72,-16.49 -63.71,-16.49 -44.22,0 -53.21,21.73 -62.2,45.72 -23.24,-30.73 -61.46,-50.97 -100.44,-50.97 -86.94,0 -103.43,62.21 -103.43,91.44 0,83.2 50.96,96.69 120.67,115.43 l 25.48,6.74"
         style="fill:#1a3e7e;fill-opacity:1;fill-rule:nonzero;stroke:none"
         id="path30" /><path
         d="m 4089.08,1333.57 c 34.48,-74.95 71.95,-86.19 116.17,-86.19 59.22,0 98.19,39.72 98.19,93.69 0,59.21 -47.22,80.2 -61.46,86.2 -20.99,8.99 -56.21,22.48 -77.2,31.47 -72.71,32.23 -94.44,70.46 -94.44,132.67 0,65.95 38.97,149.9 174.63,149.9 54.72,0 87.7,-14.24 124.43,-30.74 -14.99,-36.72 -16.5,-42.71 -23.24,-71.19 h -10.49 c -11.24,42.72 -50.97,65.2 -98.19,65.2 -59.21,0 -88.44,-36.72 -88.44,-80.95 0,-54.71 38.22,-69.7 104.18,-95.18 57.71,-22.49 80.2,-30.74 101.93,-54.72 31.48,-33.73 36.73,-77.95 36.73,-98.94 0,-76.44 -53.21,-164.14 -190.37,-164.14 -64.47,0 -113.18,24.74 -140.16,38.23 12.74,38.97 13.49,48.72 17.24,84.69 h 10.49"
         style="fill:#1a3e7e;fill-opacity:1;fill-rule:nonzero;stroke:none"
         id="path32" /><path
         d="m 4588.27,1710.57 c -2.99,-10.48 -2.99,-23.23 -5.24,-135.66 33.73,0 38.22,0 51.71,0.75 l 27.74,2.25 c -1.5,-6.74 -2.25,-11.24 -2.25,-18.73 0,-8.25 0.75,-14.99 2.24,-22.49 -32.22,3 -40.46,3 -81.69,3 0,-32.23 -2.25,-112.42 -2.25,-143.91 0,-110.93 3.75,-143.15 53.96,-143.15 16.5,0 29.98,5.24 44.98,15.74 -0.75,-3.75 -3,-11.99 -3,-17.99 0,-7.5 1.5,-11.99 2.99,-17.24 -21.73,-11.25 -59.96,-21.73 -84.69,-21.73 -20.98,0 -50.22,5.99 -67.45,19.48 -25.49,20.24 -31.48,54.72 -31.48,84.7 0,32.97 4.49,164.14 4.49,224.1 h -22.48 c -14.25,0 -26.24,-1.5 -35.23,-2.25 0.75,3.75 2.25,8.99 2.25,16.49 0,8.25 -0.75,14.99 -2.25,23.98 5.25,-0.74 15.74,-3 25.49,-3 h 32.98 c 0,20.99 0,50.97 -1.51,85.45 42.73,19.49 71.95,40.47 85.45,52.46 l 5.24,-2.25"
         style="fill:#1a3e7e;fill-opacity:1;fill-rule:nonzero;stroke:none"
         id="path34" /><path
         d="m 4912.08,1407.02 c -85.45,-22.48 -116.17,-30.72 -116.17,-84.69 0,-39.72 19.48,-64.46 49.46,-64.46 40.48,0 66.71,32.23 66.71,71.2 z m -54.71,18.74 c 44.22,11.99 50.21,14.24 53.96,20.99 2.25,4.5 3,9.74 3,14.99 0,56.96 -32.23,79.45 -72.71,79.45 -56.96,0 -76.44,-35.23 -80.94,-53.22 -3.74,0.75 -7.49,1.5 -11.24,1.5 -3.75,0 -8.25,-0.75 -12,-1.5 2.25,14.24 3.75,23.99 3.75,36.73 0,6.75 0,13.49 -0.75,20.23 56.97,34.48 80.2,41.98 119.17,41.98 80.95,0 136.42,-36.73 136.42,-112.43 0,-27.73 -2.25,-103.43 -2.25,-128.16 0,-73.46 0.74,-91.45 26.23,-91.45 7.49,0 14.24,3 20.99,6 -1.5,-4.49 -3,-8.99 -3,-13.49 0,-4.5 1.5,-8.99 3,-13.49 -19.49,-7.5 -42.73,-16.49 -63.71,-16.49 -44.22,0 -53.21,21.73 -62.21,45.72 -23.23,-30.73 -61.46,-50.97 -100.44,-50.97 -86.94,0 -103.43,62.21 -103.43,91.44 0,83.2 50.97,96.69 120.68,115.43 l 25.48,6.74"
         style="fill:#1a3e7e;fill-opacity:1;fill-rule:nonzero;stroke:none"
         id="path36" /><path
         d="m 5201.42,1710.57 c -3,-10.48 -3,-23.23 -5.24,-135.66 33.73,0 38.22,0 51.71,0.75 l 27.74,2.25 c -1.51,-6.74 -2.26,-11.24 -2.26,-18.73 0,-8.25 0.75,-14.99 2.26,-22.49 -32.24,3 -40.48,3 -81.7,3 0,-32.23 -2.25,-112.42 -2.25,-143.91 0,-110.93 3.74,-143.15 53.97,-143.15 16.48,0 29.98,5.24 44.97,15.74 -0.75,-3.75 -3,-11.99 -3,-17.99 0,-7.5 1.49,-11.99 3,-17.24 -21.74,-11.25 -59.96,-21.73 -84.7,-21.73 -20.98,0 -50.21,5.99 -67.46,19.48 -25.48,20.24 -31.47,54.72 -31.47,84.7 0,32.97 4.49,164.14 4.49,224.1 H 5089 c -14.24,0 -26.23,-1.5 -35.23,-2.25 0.75,3.75 2.25,8.99 2.25,16.49 0,8.25 -0.75,14.99 -2.25,23.98 5.25,-0.74 15.74,-3 25.48,-3 h 32.98 c 0,20.99 0,50.97 -1.49,85.45 42.71,19.49 71.95,40.47 85.44,52.46 l 5.24,-2.25"
         style="fill:#1a3e7e;fill-opacity:1;fill-rule:nonzero;stroke:none"
         id="path38" /><path
         d="m 5564.2,1434.75 c 0,36.73 0,121.43 -74.95,121.43 -77.2,0 -81.7,-92.94 -83.19,-121.43 z m -159.65,-36.72 c 0,-27.73 0,-141.65 119.17,-141.65 33.73,0 81.7,18.73 106.44,47.21 l 8.24,-5.24 c -2.24,-5.25 -4.49,-10.5 -5.99,-15.74 l -6.75,-32.23 c -5.25,-6 -53.97,-38.23 -125.92,-38.23 -27.72,0 -94.43,7.5 -135.65,49.47 -49.48,50.22 -50.23,116.92 -50.23,143.15 0,124.43 85.45,181.39 173.89,181.39 27.73,0 103.44,0 140.91,-68.21 12.74,-23.98 23.98,-62.96 21.73,-119.92 h -245.84"
         style="fill:#1a3e7e;fill-opacity:1;fill-rule:nonzero;stroke:none"
         id="path40" /><path
         d="m 2263.86,680.059 c -40.47,1.511 -80.95,3 -121.42,3 -42.72,0 -85.44,-1.489 -128.17,-3 v -74.95 c 0,-96.687 3,-130.418 6.75,-177.64 -11.24,0.761 -30.73,4.5 -51.72,4.5 -17.99,0 -35.22,-2.989 -53.21,-4.5 5.99,113.929 6.75,227.101 6.75,341.031 0,58.465 -2.26,115.43 -7.5,173.145 14.99,-1.5 41.97,-4.497 53.96,-4.497 14.24,0 41.97,2.997 51.72,4.497 -3.75,-41.231 -6.75,-73.457 -6.74,-213.614 37.47,-1.492 75.69,-3 113.17,-3 45.72,0 90.69,1.508 136.41,3 0,19.481 -0.75,110.176 -1.5,128.914 0,23.235 -0.75,29.231 -3.74,84.7 14.24,-1.5 38.22,-4.497 54.71,-4.497 13.49,0 38.23,2.997 52.46,4.497 -9.74,-77.95 -10.49,-259.336 -10.49,-337.286 0,-59.211 0,-122.918 7.5,-176.89 -17.99,1.511 -36.73,4.5 -54.72,4.5 -15.74,0 -35.22,-2.989 -50.97,-4.5 0.75,13.5 6,104.179 6,131.922 l 0.75,120.668"
         style="fill:#1a3e7e;fill-opacity:1;fill-rule:nonzero;stroke:none"
         id="path42" /><path
         d="m 2671.63,641.09 c 0,36.73 0,121.414 -74.95,121.414 -77.2,0 -81.7,-92.945 -83.2,-121.414 z m -159.64,-36.731 c 0,-27.738 0,-141.66 119.17,-141.66 33.73,0 81.69,18.742 106.43,47.223 l 8.24,-5.25 c -2.25,-5.242 -4.5,-10.492 -5.99,-15.731 l -6.75,-32.242 c -5.24,-5.988 -53.97,-38.219 -125.92,-38.219 -27.73,0 -94.44,7.489 -135.66,49.461 -49.47,50.231 -50.22,116.938 -50.22,143.168 0,124.411 85.45,181.375 173.89,181.375 27.73,0 103.43,0 140.91,-68.203 12.74,-23.98 23.98,-62.961 21.74,-119.922 h -245.84"
         style="fill:#1a3e7e;fill-opacity:1;fill-rule:nonzero;stroke:none"
         id="path44" /><path
         d="m 3004.44,613.352 c -85.45,-22.481 -116.17,-30.731 -116.17,-84.692 0,-39.719 19.48,-64.461 49.46,-64.461 40.48,0 66.71,32.231 66.71,71.199 z m -54.72,18.738 c 44.22,12 50.22,14.238 53.96,20.992 2.26,4.488 3,9.746 3,14.988 0,56.961 -32.22,79.442 -72.7,79.442 -56.96,0 -76.45,-35.223 -80.94,-53.211 -3.75,0.75 -7.5,1.5 -11.25,1.5 -3.74,0 -8.24,-0.75 -11.99,-1.5 2.25,14.238 3.75,23.98 3.75,36.73 0,6.75 0,13.485 -0.75,20.231 56.96,34.484 80.2,41.972 119.17,41.972 80.95,0 136.41,-36.726 136.41,-112.425 0,-27.727 -2.24,-103.43 -2.24,-128.168 0,-73.45 0.74,-91.442 26.23,-91.442 7.49,0 14.23,3 20.98,6 -1.5,-4.5 -3,-8.988 -3,-13.5 0,-4.488 1.5,-8.988 3,-13.48 -19.48,-7.5 -42.72,-16.5 -63.71,-16.5 -44.22,0 -53.21,21.742 -62.21,45.73 -23.23,-30.738 -61.45,-50.969 -100.43,-50.969 -86.94,0 -103.43,62.211 -103.43,91.442 0,83.199 50.96,96.68 120.67,115.43 l 25.48,6.738"
         style="fill:#1a3e7e;fill-opacity:1;fill-rule:nonzero;stroke:none"
         id="path46" /><path
         d="m 3234.57,978.371 c 24.73,0 32.98,2.246 47.97,4.5 -7.5,-80.953 -7.5,-198.629 -7.5,-275.832 0,-14.988 -2.24,-194.867 6.75,-279.57 -14.99,1.511 -29.98,4.5 -45.72,4.5 -12.75,0 -25.49,-1.5 -51.72,-4.5 8.25,57.722 7.5,280.332 7.5,298.312 0,139.407 -3.75,198.621 -9,257.09 18.74,-3 27.73,-4.5 51.72,-4.5"
         style="fill:#1a3e7e;fill-opacity:1;fill-rule:nonzero;stroke:none"
         id="path48" /><path
         d="m 3482.66,916.91 c -2.99,-10.5 -2.99,-23.234 -5.24,-135.668 33.73,0 38.22,0 51.71,0.754 l 27.74,2.246 c -1.5,-6.738 -2.25,-11.242 -2.25,-18.73 0,-8.254 0.75,-14.992 2.25,-22.492 -32.23,3 -40.48,3 -81.7,3 0,-32.231 -2.25,-112.43 -2.25,-143.911 0,-110.929 3.75,-143.148 53.97,-143.148 16.48,0 29.98,5.238 44.97,15.73 -0.75,-3.742 -3,-11.992 -3,-17.992 0,-7.488 1.5,-11.988 3,-17.23 -21.74,-11.239 -59.96,-21.739 -84.7,-21.739 -20.98,0 -50.21,5.989 -67.45,19.489 -25.49,20.23 -31.48,54.711 -31.48,84.691 0,32.988 4.49,164.149 4.49,224.11 h -22.48 c -14.24,0 -26.23,-1.504 -35.23,-2.247 0.75,3.75 2.25,8.993 2.25,16.485 0,8.25 -0.75,14.988 -2.25,23.984 5.25,-0.754 15.74,-3 25.48,-3 h 32.98 c 0,20.988 0,50.969 -1.49,85.449 42.72,19.485 71.95,40.469 85.44,52.469 l 5.24,-2.25"
         style="fill:#1a3e7e;fill-opacity:1;fill-rule:nonzero;stroke:none"
         id="path50" /><path
         d="m 3724.77,958.887 c -5.25,-83.953 -5.25,-137.164 -5.25,-229.367 32.24,45.726 74.21,61.468 116.93,61.468 38.97,0 80.2,-12.742 104.18,-50.218 17.24,-26.981 17.24,-57.711 17.24,-91.438 0,-17.242 -1.5,-57.723 -1.5,-80.953 0,-41.219 2.25,-110.93 4.5,-140.91 -14.99,3 -29.98,4.5 -46.47,4.5 -16.49,0 -39.72,-3.739 -50.22,-4.5 4.5,41.98 8.25,104.941 8.25,156.652 0,69.707 -0.75,89.188 -5.25,106.43 -8.24,30.73 -33.73,46.469 -64.46,46.469 -27.73,0 -62.21,-11.239 -74.2,-48.719 -6,-18.742 -9,-35.969 -9,-87.692 0,-98.179 0,-105.679 3.75,-173.14 -14.99,2.25 -31.47,4.5 -47.21,4.5 -15.74,0 -38.23,-3.739 -45.72,-4.5 5.99,101.191 5.99,134.922 5.99,293.812 l -0.75,146.153 c 0,29.98 -3,75.711 -5.24,115.437 14.99,-3 31.47,-4.5 50.96,-4.5 18.74,0 30.73,1.5 44.97,4.5 l -1.5,-23.984"
         style="fill:#1a3e7e;fill-opacity:1;fill-rule:nonzero;stroke:none"
         id="path52" /><path
         d="m 4327.41,497.922 c -10.5,-14.981 -12,-34.473 -14.99,-52.461 -41.23,-21.742 -82.45,-26.981 -110.18,-26.981 -123.67,0 -186.63,92.942 -186.63,182.879 0,98.18 61.46,191.875 196.37,191.875 45.72,0 75.7,-9.746 114.67,-26.23 -5.24,-9.746 -13.48,-32.223 -17.23,-70.453 h -14.24 c -0.75,3.75 -14.99,62.211 -79.45,62.211 -35.23,0 -65.21,-20.981 -80.2,-43.473 -18.74,-27.738 -23.23,-62.207 -23.23,-101.187 0,-73.454 24.73,-153.653 111.67,-153.653 43.47,0 63.71,19.481 91.44,44.223 l 12,-6.75"
         style="fill:#1a3e7e;fill-opacity:1;fill-rule:nonzero;stroke:none"
         id="path54" /><path
         d="m 4568.02,613.352 c -85.44,-22.481 -116.17,-30.731 -116.17,-84.692 0,-39.719 19.48,-64.461 49.46,-64.461 40.48,0 66.71,32.231 66.71,71.199 z m -54.72,18.738 c 44.23,12 50.22,14.238 53.97,20.992 2.25,4.488 3,9.746 3,14.988 0,56.961 -32.23,79.442 -72.7,79.442 -56.97,0 -76.45,-35.223 -80.95,-53.211 -3.75,0.75 -7.5,1.5 -11.25,1.5 -3.74,0 -8.24,-0.75 -11.99,-1.5 2.25,14.238 3.75,23.98 3.75,36.73 0,6.75 0,13.485 -0.75,20.231 56.96,34.484 80.2,41.972 119.18,41.972 80.94,0 136.41,-36.726 136.41,-112.425 0,-27.727 -2.25,-103.43 -2.25,-128.168 0,-73.45 0.75,-91.442 26.23,-91.442 7.5,0 14.24,3 20.99,6 -1.5,-4.5 -3,-8.988 -3,-13.5 0,-4.488 1.5,-8.988 3,-13.48 -19.49,-7.5 -42.73,-16.5 -63.71,-16.5 -44.22,0 -53.22,21.742 -62.21,45.73 -23.23,-30.738 -61.46,-50.969 -100.44,-50.969 -86.94,0 -103.43,62.211 -103.43,91.442 0,83.199 50.97,96.68 120.68,115.43 l 25.47,6.738"
         style="fill:#1a3e7e;fill-opacity:1;fill-rule:nonzero;stroke:none"
         id="path56" /><path
         d="m 4744.19,500.93 c 1.5,32.98 1.5,90.679 1.5,119.922 0,81.687 -1.5,100.429 -5.25,166.386 17.24,-2.996 29.98,-4.492 49.47,-4.492 17.98,0 30.73,1.496 42.72,4.492 -4.49,-38.222 -4.49,-41.972 -4.49,-78.699 20.23,32.231 50.21,82.449 110.17,82.449 7.49,0 13.49,-0.75 19.49,-2.246 -6,-11.25 -6.74,-43.476 -6.74,-53.961 0,-11.992 1.49,-23.242 3.74,-32.242 l -5.25,-3.738 c -12.74,10.488 -40.46,10.488 -44.21,10.488 -33.74,0 -57.72,-20.988 -66.71,-40.469 -5.25,-11.25 -9,-22.492 -9,-74.211 0,-47.968 2.25,-120.668 6.75,-167.14 -8.99,0.761 -27.73,4.5 -43.48,4.5 -12.73,0 -29.22,-2.25 -51.71,-4.5 l 3,73.461"
         style="fill:#1a3e7e;fill-opacity:1;fill-rule:nonzero;stroke:none"
         id="path58" /><path
         d="m 5232.88,641.09 c 0,36.73 0,121.414 -74.95,121.414 -77.19,0 -81.69,-92.945 -83.19,-121.414 z m -159.63,-36.731 c 0,-27.738 0,-141.66 119.17,-141.66 33.73,0 81.69,18.742 106.42,47.223 l 8.25,-5.25 c -2.25,-5.242 -4.5,-10.492 -5.99,-15.731 l -6.75,-32.242 c -5.24,-5.988 -53.97,-38.219 -125.92,-38.219 -27.73,0 -94.44,7.489 -135.66,49.461 -49.47,50.231 -50.22,116.938 -50.22,143.168 0,124.411 85.44,181.375 173.89,181.375 27.73,0 103.43,0 140.91,-68.203 12.74,-23.98 23.98,-62.961 21.74,-119.922 h -245.84"
         style="fill:#1a3e7e;fill-opacity:1;fill-rule:nonzero;stroke:none"
         id="path60" /><path
         d="m 5657.89,720.531 h 51.72 c 56.21,0 89.19,2.258 119.92,3.75 -2.25,-7.492 -3.75,-15.73 -3.75,-24.73 0,-8.25 1.5,-15.742 3.75,-25.481 l -41.23,1.489 c -41.22,1.5 -50.21,1.5 -130.41,1.5 V 576.621 c 0,-76.441 0,-86.941 0.76,-110.172 0.74,-17.238 0.74,-23.23 2.99,-38.98 -17.24,3.75 -32.97,4.5 -53.96,4.5 -20.99,0 -34.48,-1.5 -48.72,-4.5 5.99,125.922 6.75,146.16 6.75,265.34 0,95.183 -3.75,176.882 -7.5,248.836 26.23,-1.5 104.93,-4.497 141.66,-4.497 47.97,0 100.43,2.997 141.66,4.497 -2.26,-10.493 -3.75,-19.489 -3.75,-28.489 0,-5.242 0,-12.734 3.75,-24.734 -67.46,4.5 -116.93,6.746 -183.64,6.746 V 720.531"
         style="fill:#1a3e7e;fill-opacity:1;fill-rule:nonzero;stroke:none"
         id="path62" /><path
         d="m 6055.91,448.461 c 81.7,0 94.45,93.687 94.45,157.398 0,63.7 -12.75,156.645 -94.45,156.645 -81.69,0 -94.43,-94.434 -94.43,-156.645 0,-63.711 12.74,-157.398 94.43,-157.398 z m 0,344.023 c 115.43,0 188.14,-65.203 188.14,-187.375 0,-116.168 -72.71,-186.629 -188.14,-186.629 -113.17,0 -188.12,70.461 -188.12,186.629 0,115.422 74.95,187.375 188.12,187.375"
         style="fill:#1a3e7e;fill-opacity:1;fill-rule:nonzero;stroke:none"
         id="path64" /><path
         d="m 6301.04,708.539 c 0,31.481 -0.75,45.723 -4.5,78.699 17.24,-2.996 32.22,-4.492 47.97,-4.492 16.49,0 32.22,1.496 48.72,4.492 -6.75,-34.472 -9,-129.668 -9,-163.386 0,-20.993 0.75,-83.204 5.25,-100.442 8.25,-30.73 35.97,-48.719 65.95,-48.719 46.48,0 65.21,32.239 70.46,42.731 9.75,19.488 12.74,63.707 12.74,92.18 0,51.718 0,131.918 -5.25,177.636 13.5,-2.246 29.24,-4.492 43.48,-4.492 11.99,0 25.48,0.754 50.97,4.492 -4.51,-66.707 -7.5,-133.41 -7.5,-200.867 0,-94.441 2.24,-117.68 5.99,-158.902 -20.98,1.511 -33.72,4.5 -47.21,4.5 -14.24,0 -26.24,-2.25 -42.73,-4.5 3,27.742 3,28.48 3,60.722 -20.24,-26.992 -53.97,-68.961 -121.42,-68.961 -43.47,0 -83.94,20.239 -104.93,59.211 -14.25,26.231 -14.99,62.957 -14.99,71.95 0,52.468 3,105.691 3,158.148"
         style="fill:#1a3e7e;fill-opacity:1;fill-rule:nonzero;stroke:none"
         id="path66" /><path
         d="m 7020.59,519.66 c 0,-37.469 2.25,-74.949 5.24,-92.191 -16.48,1.511 -32.22,4.5 -48.71,4.5 -16.49,0 -34.48,-2.989 -48.72,-4.5 6,35.98 9,106.441 9,141.66 0,38.98 0,100.43 -5.26,120.68 -8.98,35.222 -37.47,49.461 -69.69,49.461 -28.49,0 -54.72,-18.739 -66.71,-43.469 -10.49,-21.731 -12.75,-73.449 -12.75,-98.93 0,-68.211 1.51,-118.43 5.25,-169.402 -7.49,0.761 -40.47,4.5 -47.22,4.5 -14.99,0 -31.48,-2.25 -47.22,-4.5 6.75,99.691 7.5,110.929 7.5,200.121 0,95.199 -0.75,104.191 -5.99,159.648 7.49,-1.492 22.48,-4.492 49.46,-4.492 20.23,0 29.23,2.246 41.22,4.492 -3.75,-21.738 -3.75,-24.734 -3.75,-62.207 30.73,41.223 58.47,65.957 116.18,65.957 81.69,0 125.17,-46.472 125.17,-126.668 0,-20.988 -3,-107.929 -3,-144.66"
         style="fill:#1a3e7e;fill-opacity:1;fill-rule:nonzero;stroke:none"
         id="path68" /><path
         d="m 7337.66,608.109 c 0,71.2 -17.99,143.153 -89.94,143.153 -74.2,0 -91.44,-79.442 -91.44,-136.403 0,-57.718 11.24,-152.91 88.44,-152.91 55.47,0 92.94,47.223 92.94,146.16 z m 3,-128.918 c -17.99,-26.23 -55.47,-62.203 -113.93,-62.203 -98.18,0 -164.14,81.692 -164.14,182.883 0,125.16 75.7,191.117 167.89,191.117 55.46,0 81.7,-23.984 107.18,-49.468 0,96.687 -1.49,179.136 -8.99,241.351 16.49,-3 31.48,-4.5 53.21,-4.5 15.74,0 29.98,1.5 42.72,4.5 -5.24,-89.195 -8.24,-179.137 -8.24,-268.332 0,-11.988 1.5,-242.098 8.24,-287.07 -7.49,1.511 -23.98,4.5 -42.72,4.5 -18.73,0 -31.48,-2.989 -43.47,-4.5 l 2.25,51.722"
         style="fill:#1a3e7e;fill-opacity:1;fill-rule:nonzero;stroke:none"
         id="path70" /><path
         d="m 7671.97,613.352 c -85.45,-22.481 -116.18,-30.731 -116.18,-84.692 0,-39.719 19.49,-64.461 49.47,-64.461 40.48,0 66.71,32.231 66.71,71.199 z m -54.72,18.738 c 44.23,12 50.22,14.238 53.96,20.992 2.26,4.488 3,9.746 3,14.988 0,56.961 -32.22,79.442 -72.69,79.442 -56.98,0 -76.46,-35.223 -80.96,-53.211 -3.74,0.75 -7.49,1.5 -11.24,1.5 -3.74,0 -8.24,-0.75 -11.99,-1.5 2.25,14.238 3.75,23.98 3.75,36.73 0,6.75 0,13.485 -0.75,20.231 56.96,34.484 80.19,41.972 119.18,41.972 80.93,0 136.4,-36.726 136.4,-112.425 0,-27.727 -2.24,-103.43 -2.24,-128.168 0,-73.45 0.74,-91.442 26.23,-91.442 7.5,0 14.23,3 20.98,6 -1.49,-4.5 -3,-8.988 -3,-13.5 0,-4.488 1.51,-8.988 3,-13.48 -19.48,-7.5 -42.72,-16.5 -63.71,-16.5 -44.22,0 -53.21,21.742 -62.21,45.73 -23.23,-30.738 -61.45,-50.969 -100.43,-50.969 -86.94,0 -103.43,62.211 -103.43,91.442 0,83.199 50.96,96.68 120.67,115.43 l 25.48,6.738"
         style="fill:#1a3e7e;fill-opacity:1;fill-rule:nonzero;stroke:none"
         id="path72" /><path
         d="m 7956.07,916.91 c -3.01,-10.5 -3.01,-23.234 -5.26,-135.668 33.73,0 38.23,0 51.72,0.754 l 27.74,2.246 c -1.51,-6.738 -2.25,-11.242 -2.25,-18.73 0,-8.254 0.74,-14.992 2.25,-22.492 -32.23,3 -40.48,3 -81.7,3 0,-32.231 -2.25,-112.43 -2.25,-143.911 0,-110.929 3.75,-143.148 53.97,-143.148 16.48,0 29.98,5.238 44.97,15.73 -0.75,-3.742 -3,-11.992 -3,-17.992 0,-7.488 1.49,-11.988 3,-17.23 -21.74,-11.239 -59.96,-21.739 -84.7,-21.739 -20.99,0 -50.21,5.989 -67.46,19.489 -25.48,20.23 -31.48,54.711 -31.48,84.691 0,32.988 4.51,164.149 4.51,224.11 h -22.49 c -14.24,0 -26.23,-1.504 -35.23,-2.247 0.74,3.75 2.25,8.993 2.25,16.485 0,8.25 -0.75,14.988 -2.25,23.984 5.25,-0.754 15.74,-3 25.48,-3 h 32.98 c 0,20.988 0,50.969 -1.5,85.449 42.73,19.485 71.96,40.469 85.44,52.469 l 5.26,-2.25"
         style="fill:#1a3e7e;fill-opacity:1;fill-rule:nonzero;stroke:none"
         id="path74" /><path
         d="m 8093.24,508.422 c 1.5,38.219 2.24,65.207 2.24,92.937 0,53.211 -2.24,133.422 -7.49,185.879 14.99,-2.246 28.49,-4.492 50.22,-4.492 22.49,0 34.48,2.246 46.47,4.492 l -1.5,-33.73 c -1.5,-31.477 -4.49,-101.176 -4.49,-128.156 0,-32.981 1.49,-110.18 2.24,-136.411 0,-9.75 3,-52.472 3,-61.472 -14.24,2.25 -26.98,4.5 -43.47,4.5 -17.24,0 -33.73,-2.25 -50.97,-4.5 z m -9,399.492 c 0,27.734 23.99,52.465 51.72,52.465 27.74,0 52.47,-24.731 52.47,-52.465 0,-28.488 -25.49,-51.719 -52.47,-51.719 -26.98,0 -51.72,23.231 -51.72,51.719"
         style="fill:#1a3e7e;fill-opacity:1;fill-rule:nonzero;stroke:none"
         id="path76" /><path
         d="m 8437.27,448.461 c 81.7,0 94.44,93.687 94.44,157.398 0,63.7 -12.74,156.645 -94.44,156.645 -81.7,0 -94.44,-94.434 -94.44,-156.645 0,-63.711 12.74,-157.398 94.44,-157.398 z m 0,344.023 c 115.42,0 188.12,-65.203 188.12,-187.375 0,-116.168 -72.7,-186.629 -188.12,-186.629 -113.17,0 -188.13,70.461 -188.13,186.629 0,115.422 74.96,187.375 188.13,187.375"
         style="fill:#1a3e7e;fill-opacity:1;fill-rule:nonzero;stroke:none"
         id="path78" /><path
         d="m 9001.67,519.66 c 0,-37.469 2.25,-74.949 5.25,-92.191 -16.49,1.511 -32.23,4.5 -48.71,4.5 -16.5,0 -34.49,-2.989 -48.72,-4.5 5.99,35.98 8.99,106.441 8.99,141.66 0,38.98 0,100.43 -5.24,120.68 -9.01,35.222 -37.48,49.461 -69.71,49.461 -28.49,0 -54.72,-18.739 -66.71,-43.469 -10.5,-21.731 -12.74,-73.449 -12.74,-98.93 0,-68.211 1.5,-118.43 5.25,-169.402 -7.5,0.761 -40.48,4.5 -47.23,4.5 -14.99,0 -31.47,-2.25 -47.21,-4.5 6.74,99.691 7.49,110.929 7.49,200.121 0,95.199 -0.75,104.191 -6,159.648 7.5,-1.492 22.49,-4.492 49.47,-4.492 20.24,0 29.23,2.246 41.22,4.492 -3.74,-21.738 -3.74,-24.734 -3.74,-62.207 30.73,41.223 58.46,65.957 116.18,65.957 81.69,0 125.16,-46.472 125.16,-126.668 0,-20.988 -3,-107.929 -3,-144.66"
         style="fill:#1a3e7e;fill-opacity:1;fill-rule:nonzero;stroke:none"
         id="path80" /><path
         d="m 1898.31,207.922 v -25.121 l 7113.46,4.859 v 25.129 l -7113.46,-4.867"
         style="fill:#1a3e7e;fill-opacity:1;fill-rule:nonzero;stroke:none"
         id="path82" /></g></g></svg>
