<svg xmlns="http://www.w3.org/2000/svg" width="800" height="624" viewBox="0 0 800 624"><path d="M6.3,422.2H47.016L41.99,432.776Q36.1,431.363,31.717,430.7t-6.986-.925A55.631,55.631,0,0,0,19,429.506v26.7H42.367l-5.35,10.024A79.081,79.081,0,0,0,23.807,463.4l-4.8-.325v27.24a21.225,21.225,0,0,0,.223,3.21,26.152,26.152,0,0,0,.984,3.869l1.2,3.27H6.523l.762-1.635a19.209,19.209,0,0,0,1.2-3.758,28.7,28.7,0,0,0,.325-5.068V432.125a20.628,20.628,0,0,0-1.635-8.175ZM48.419,457.4l.762-2.286A28.137,28.137,0,0,0,50.106,452a13.219,13.219,0,0,0,.274-2.782,38.761,38.761,0,0,1,4.589-2.072,21.114,21.114,0,0,1,4.58-1.087,34.027,34.027,0,0,1,4.477-.325,16.471,16.471,0,0,1,11.737,3.869,14.346,14.346,0,0,1,4.092,10.949v30.193a20.246,20.246,0,0,0,1.524,8.389l.762,1.524H70.8v-6.318a51.443,51.443,0,0,0-6.309,4.905l-2.072,2.072a18.64,18.64,0,0,1-3.587.325,16.755,16.755,0,0,1-5-.651,26.507,26.507,0,0,1-2.988-1.087,48.625,48.625,0,0,1-4.349-2.722,10.286,10.286,0,0,1-3.424-9.151,13.94,13.94,0,0,1,1.464-6.318,11.5,11.5,0,0,1,3.7-4.469,27.4,27.4,0,0,1,4.024-2.346,38.549,38.549,0,0,1,4.186-1.584l5.873-1.96a24.228,24.228,0,0,0,6.9-2.722,5.313,5.313,0,0,0,1.575-4.469,24.129,24.129,0,0,0-.223-3.424,16.589,16.589,0,0,1-.214-2.346q-.758-5.881-8.039-5.881a23.51,23.51,0,0,0-10.864,3.27Zm12.113,19.287a7.888,7.888,0,0,0-5.239,1.575,7.138,7.138,0,0,0-2.346,4.392,28.919,28.919,0,0,0-.488,3.424,8.814,8.814,0,0,0,2.568,6.557A9.108,9.108,0,0,0,61.74,495.2h1.31a9.213,9.213,0,0,0,5.676-2.286,6.478,6.478,0,0,0,2.072-4.905V476.691Zm25.845,23.969a14.767,14.767,0,0,0,1.712-4.143,24.245,24.245,0,0,0,.548-5.667v-35.1a18.755,18.755,0,0,0-2.183-9.262H97.7v8.6l2.945-3.6,1.31-1.712,1.31-1.849c1.019-.437,2.037-.813,3.056-1.147a15.735,15.735,0,0,1,2.945-.651c.942-.111,1.712-.18,2.234-.214s.967-.051,1.258-.051a14.459,14.459,0,0,1,9.117,2.671,9.314,9.314,0,0,1,3.767,6.917c.882-.95,1.575-1.746,2.089-2.371s1.318-1.712,2.423-3.253l1.318-1.875a14.822,14.822,0,0,1,5.222-1.875c1.43-.146,2.44-.223,3.03-.223h1.318q12.546,0,12.541,13.431v31.674a21.518,21.518,0,0,0,2.072,9.716H142.493l.548-1.524a26,26,0,0,0,1.532-8.389v-33.18a5.972,5.972,0,0,0-2.483-3.809,7.966,7.966,0,0,0-4.8-1.49,10.165,10.165,0,0,0-5.47,1.472,20.714,20.714,0,0,0-4.28,3.493,5.653,5.653,0,0,0-1.875,3.424V490.7a22.465,22.465,0,0,0,.548,5.239,25.888,25.888,0,0,0,1.635,4.7H114.217a18.184,18.184,0,0,0,2.406-9.827V460.478q0-8.192-7.576-8.192a16.432,16.432,0,0,0-3.3.334,12.171,12.171,0,0,0-4.392,2.431l-1.318,1.216a6.02,6.02,0,0,0-2.3,3.758v30.732a22.076,22.076,0,0,0,1.969,9.913Zm75.882,0a18.456,18.456,0,0,0,1.635-4.357,24.232,24.232,0,0,0,.548-5.556V455.77a20.306,20.306,0,0,0-2.072-9.262h13.312l-.616,1.524a24.419,24.419,0,0,0-1.532,7.7v35.1a22.489,22.489,0,0,0,2.183,9.81Zm.984-68.869a6.018,6.018,0,0,1,1.635-4.28,5.456,5.456,0,0,1,4.152-1.712,6.018,6.018,0,0,1,4.28,1.635,5.549,5.549,0,0,1,1.712,4.28,6,6,0,0,1-1.712,4.143,5.448,5.448,0,0,1-4.2,1.849,5.738,5.738,0,0,1-4.092-1.712,5.551,5.551,0,0,1-1.8-4.143m18.38,68.869a14.58,14.58,0,0,0,1.712-4.195,24.681,24.681,0,0,0,.548-5.718V435.173a67.705,67.705,0,0,0-.223-6.848,19.818,19.818,0,0,0-1.2-4.357l-.659-1.712H195.1a18.421,18.421,0,0,0-1.712,5.136,51.437,51.437,0,0,0-.437,7.953v55.4a19.806,19.806,0,0,0,1.421,8.389l.856,1.524Zm11.925-54.154H207.6a18.526,18.526,0,0,0-.223,2.063,11.972,11.972,0,0,0,1.344,4.349l12.841,27.77,11.591-27.856a8.555,8.555,0,0,0,.745-3.6,7.956,7.956,0,0,0-.437-2.722h12.773l-1.1,1.524-.856,1.524q-1.528,2.286-2.234,3.6a39.239,39.239,0,0,0-1.712,3.707l-17.9,42.169a64.352,64.352,0,0,1-4.691,9.417,27.127,27.127,0,0,1-3.929,4.957c-1.241,1.138-2.132,1.943-2.671,2.4s-1.43,1.147-2.671,2.072h-7.859a52.724,52.724,0,0,0,11.514-14.168,77.736,77.736,0,0,0,5.188-12.1L200.749,456.42a49.355,49.355,0,0,0-3.544-6.378,15.453,15.453,0,0,0-3.655-3.544M270.3,500.652a20.7,20.7,0,0,0,2.62-10.461V431.98a19.122,19.122,0,0,0-1.712-8.064l-.762-1.712H285.86l-1.635,3.6a22.1,22.1,0,0,0-1.087,6.335v24.825H318.5V432.142a18.829,18.829,0,0,0-.856-5.684,20,20,0,0,0-1.806-4.28h15.409a20.441,20.441,0,0,0-2.508,9.81V490.2a20.976,20.976,0,0,0,1.712,8.826l.856,1.635H315.9l.762-1.627a22.824,22.824,0,0,0,1.712-8.8v-25.2H283.009v25.2a22.081,22.081,0,0,0,1.858,8.8l.762,1.627ZM376.98,474.063H345c-.077.514-.128,1.079-.163,1.712s-.051,1.113-.051,1.481q0,.989.385,5.042a14.759,14.759,0,0,0,4.366,8.381,13.253,13.253,0,0,0,10.2,4.323,21.8,21.8,0,0,0,9.417-2.217,34.112,34.112,0,0,0,7.1-4.212l-1.2,2.4a60.864,60.864,0,0,0-2.508,6.754,19.225,19.225,0,0,1-7.371,3c-2.072.248-3.5.437-4.28.548a20.783,20.783,0,0,1-2.731.163,21.551,21.551,0,0,1-16.7-6.54,26.753,26.753,0,0,1-5.993-18.739,73.5,73.5,0,0,1,1.036-10.786,25.887,25.887,0,0,1,4.529-11.445,17.885,17.885,0,0,1,8.561-6.592,27.5,27.5,0,0,1,9.117-1.8,15.78,15.78,0,0,1,13.483,6.848,32.636,32.636,0,0,1,4.965,19.4Zm-31.435-5.778h22.7a12.589,12.589,0,0,0,.111-2.722,16.542,16.542,0,0,0-2.945-10.684,9.779,9.779,0,0,0-7.97-3.6,9.91,9.91,0,0,0-7.859,3.381,21.058,21.058,0,0,0-3.929,11.129Zm36.957-10.9.762-2.286a26.4,26.4,0,0,0,.925-3.107,13.219,13.219,0,0,0,.274-2.782,38.764,38.764,0,0,1,4.589-2.072,21.114,21.114,0,0,1,4.58-1.087,34.033,34.033,0,0,1,4.477-.325,16.471,16.471,0,0,1,11.737,3.869,14.314,14.314,0,0,1,4.092,10.949v30.2a20.246,20.246,0,0,0,1.524,8.389l.762,1.524H404.871v-6.318a51.444,51.444,0,0,0-6.309,4.905L396.5,501.32a18.64,18.64,0,0,1-3.587.325,16.755,16.755,0,0,1-5-.651,26.506,26.506,0,0,1-2.988-1.087,48.621,48.621,0,0,1-4.349-2.722,10.286,10.286,0,0,1-3.424-9.151,13.94,13.94,0,0,1,1.464-6.318,11.5,11.5,0,0,1,3.7-4.469,27.4,27.4,0,0,1,4.024-2.346,38.548,38.548,0,0,1,4.186-1.584l5.873-1.96a24.228,24.228,0,0,0,6.9-2.722,5.313,5.313,0,0,0,1.575-4.469,24.134,24.134,0,0,0-.223-3.424,16.588,16.588,0,0,1-.214-2.346q-.758-5.881-8.039-5.881a23.509,23.509,0,0,0-10.864,3.27Zm12.113,19.287a7.841,7.841,0,0,0-5.239,1.575,7.138,7.138,0,0,0-2.346,4.392,28.927,28.927,0,0,0-.488,3.424,8.814,8.814,0,0,0,2.568,6.557,9.108,9.108,0,0,0,6.712,2.568h1.31a9.213,9.213,0,0,0,5.676-2.286A6.49,6.49,0,0,0,404.88,488V476.691Zm28.25,23.969a14.582,14.582,0,0,0,1.712-4.195,24.681,24.681,0,0,0,.548-5.718V435.173a67.705,67.705,0,0,0-.223-6.848,19.818,19.818,0,0,0-1.2-4.357l-.651-1.712h13.312a18.422,18.422,0,0,0-1.712,5.136,51.437,51.437,0,0,0-.437,7.953v55.4a19.806,19.806,0,0,0,1.421,8.389l.856,1.524Zm15.949-48.5a62.893,62.893,0,0,0,15.606-18.662v12.995h12.55v5.667h-12.55v38.368a5.047,5.047,0,0,0,1.652,3.587,8.063,8.063,0,0,0,4.623.976h1.764a12.41,12.41,0,0,0,3.245-.745,13.221,13.221,0,0,0,2.808-1.652,27.192,27.192,0,0,0-2.834,5.444l-.651,1.96-1.2.325-1.2.223-2.406.325h-2.834a11.019,11.019,0,0,1-9.494-3.476,11.549,11.549,0,0,1-2.508-6.746V452.174Zm28.747,48.5a20.6,20.6,0,0,0,2.294-9.922V435.276a36.051,36.051,0,0,0-.437-6.652,12.568,12.568,0,0,0-1.712-4.143,71.468,71.468,0,0,0,13.32-2.945A40.523,40.523,0,0,0,479.5,427.8a46.788,46.788,0,0,0-.548,7.576v20.545a46.2,46.2,0,0,0,4.837-5.667l1.652-2.286a16.469,16.469,0,0,1,4.837-1.712,22.389,22.389,0,0,1,3.3-.325h1.866a12.587,12.587,0,0,1,14.117,10.82,12.726,12.726,0,0,1-.043,3.561v30.433a21.369,21.369,0,0,0,2.183,9.913H498.277a18.518,18.518,0,0,0,1.635-4.366,24.349,24.349,0,0,0,.548-5.564V460.58a7.246,7.246,0,0,0-6.035-8.278,7.387,7.387,0,0,0-2.037-.026,20.722,20.722,0,0,0-4.417.548,11.28,11.28,0,0,0-4.589,2.243,15.517,15.517,0,0,0-3.27,3.424,5.831,5.831,0,0,0-1.147,3.219v29.054a23.4,23.4,0,0,0,2.072,9.939ZM602.9,425.637l.111,11.916-1.858-1.635a32.6,32.6,0,0,0-9.879-5.881,29.954,29.954,0,0,0-10.427-1.96,26.393,26.393,0,0,0-15.118,4.623,24.886,24.886,0,0,0-9.417,10.88,63.006,63.006,0,0,0-3.424,9.956,36.474,36.474,0,0,0-.856,7.944c0,1.233.034,2.5.111,3.809s.437,4.118,1.1,8.432a24.04,24.04,0,0,0,9.169,13.543,27.581,27.581,0,0,0,18.551,7.071,28.643,28.643,0,0,0,8.021-1.31,26.577,26.577,0,0,0,7.645-3.544,51.534,51.534,0,0,0,4.28-3.159c.693-.616,1.507-1.438,2.457-2.457L601.5,496.072l-2.183.984a46.352,46.352,0,0,1-10.864,3.321,57.69,57.69,0,0,1-9.554.925,36.9,36.9,0,0,1-24.449-8.278,31.791,31.791,0,0,1-11.839-17.712,77.973,77.973,0,0,1-1.909-13.346,38.269,38.269,0,0,1,.325-4.845q.321-2.568,2.346-10.786a31.727,31.727,0,0,1,12.841-16.453,41.527,41.527,0,0,1,25.811-8.227,55.216,55.216,0,0,1,16.479,2.568l2.62.856Zm42.281,48.427H613.2c-.077.514-.128,1.079-.163,1.712s-.051,1.113-.051,1.481q0,.989.385,5.042a14.759,14.759,0,0,0,4.366,8.381,13.266,13.266,0,0,0,10.2,4.323,21.8,21.8,0,0,0,9.417-2.217,34.11,34.11,0,0,0,7.1-4.212l-1.2,2.4a59.207,59.207,0,0,0-2.508,6.754,19.225,19.225,0,0,1-7.371,3c-2.072.248-3.5.437-4.28.548a20.783,20.783,0,0,1-2.731.163,21.551,21.551,0,0,1-16.7-6.54,26.752,26.752,0,0,1-5.993-18.739,73.506,73.506,0,0,1,1.036-10.786,25.888,25.888,0,0,1,4.529-11.445,17.885,17.885,0,0,1,8.561-6.592,27.5,27.5,0,0,1,9.117-1.8,15.78,15.78,0,0,1,13.483,6.848,32.636,32.636,0,0,1,4.965,19.4Zm-31.435-5.778h22.7a12.6,12.6,0,0,0,.111-2.722,16.542,16.542,0,0,0-2.945-10.684,9.754,9.754,0,0,0-7.97-3.6,9.91,9.91,0,0,0-7.859,3.381,21.058,21.058,0,0,0-3.929,11.129Zm34.928,32.359a15.525,15.525,0,0,0,1.8-4.417,23.379,23.379,0,0,0,.6-5.5V455.77a22.129,22.129,0,0,0-.325-3.758,19.564,19.564,0,0,0-1.1-3.869l-.762-1.635h11.24v9.374a31.784,31.784,0,0,0,4.931-5.778l1.532-2.183a17.183,17.183,0,0,1,5.368-1.712,35.862,35.862,0,0,1,4.6-.325q14.138,0,14.134,12.969v32.033a19.311,19.311,0,0,0,1.532,8.389l.856,1.421H679.653a22.463,22.463,0,0,0,1.5-4.426,27.052,27.052,0,0,0,.462-5.513V460.478a8.183,8.183,0,0,0-2.132-6.061,8.351,8.351,0,0,0-6.164-2.132c-1.087,0-1.858.017-2.294.051a19.007,19.007,0,0,0-2.406.488,11.7,11.7,0,0,0-4.366,2.731l-1.31,1.31a21.18,21.18,0,0,0-2.294,2.731,3.112,3.112,0,0,0-.548,1.635v29.6a21.484,21.484,0,0,0,1.96,9.827Zm46.322-48.5A62.893,62.893,0,0,0,710.6,433.486v12.995h12.55v5.667H710.6v38.368a5.048,5.048,0,0,0,1.652,3.587,8.064,8.064,0,0,0,4.623.976h1.763a12.41,12.41,0,0,0,3.245-.745,13.217,13.217,0,0,0,2.808-1.652,27.189,27.189,0,0,0-2.834,5.444l-.651,1.96-1.2.325-1.2.223-2.406.325h-2.868a11.019,11.019,0,0,1-9.494-3.476,11.55,11.55,0,0,1-2.508-6.746V452.174Zm68.546,21.906H731.514c-.077.514-.128,1.079-.163,1.712s-.051,1.113-.051,1.481q0,.989.385,5.042a14.759,14.759,0,0,0,4.366,8.381,13.266,13.266,0,0,0,10.2,4.323,21.8,21.8,0,0,0,9.417-2.217,34.109,34.109,0,0,0,7.1-4.212l-1.2,2.4a59.2,59.2,0,0,0-2.508,6.754,19.226,19.226,0,0,1-7.371,3c-2.072.248-3.5.437-4.28.548a20.788,20.788,0,0,1-2.731.163,21.551,21.551,0,0,1-16.7-6.54,26.752,26.752,0,0,1-5.993-18.739,72.355,72.355,0,0,1,1.036-10.786,25.888,25.888,0,0,1,4.529-11.445,17.885,17.885,0,0,1,8.561-6.592,27.5,27.5,0,0,1,9.117-1.8,15.78,15.78,0,0,1,13.483,6.848,32.636,32.636,0,0,1,4.965,19.4ZM732.1,468.276h22.7a12.592,12.592,0,0,0,.111-2.722,16.541,16.541,0,0,0-2.945-10.683,9.754,9.754,0,0,0-7.97-3.6,9.91,9.91,0,0,0-7.859,3.381,21.058,21.058,0,0,0-3.929,11.129Zm34.671,32.359a21.165,21.165,0,0,0,2.183-9.81v-35.1a19.709,19.709,0,0,0-.325-3.544,23.282,23.282,0,0,0-1.2-4.083l-.548-1.635h11.129v9.7a18.289,18.289,0,0,1,5.547-6.994,13.166,13.166,0,0,1,8.407-3.142h1.755l-.984,4.734c-.214,1.712-.342,2.816-.385,3.3s-.06,1.3-.051,2.423l-1.421-.856a9.4,9.4,0,0,0-4.041-.856,8.357,8.357,0,0,0-5.35,1.909,8.974,8.974,0,0,0-3.167,5.068L778,464.7V490.85a22.2,22.2,0,0,0,2.072,9.7ZM160.128,596.769a29.968,29.968,0,0,1,5.188-17.557,20.144,20.144,0,0,1,10.273-8.809,57.179,57.179,0,0,1,7.182-1.584,34.631,34.631,0,0,1,3.767-.214,24.1,24.1,0,0,1,17.978,7.4,27.452,27.452,0,0,1,7.208,20.006,29.19,29.19,0,0,1-5.291,17.566,20.912,20.912,0,0,1-11.352,8.86,41.825,41.825,0,0,1-9.417,1.524,23.326,23.326,0,0,1-15.409-5.547,22.47,22.47,0,0,1-8.081-11.129c-.95-3.732-1.515-6.232-1.712-7.508a18.441,18.441,0,0,1-.325-2.988m9.28-.214a8.851,8.851,0,0,0,.274,2.174c.18.728.514,2.012.984,3.861a20.709,20.709,0,0,0,2.628,5.813,20.461,20.461,0,0,0,6.189,5.873,17.415,17.415,0,0,0,9.853,2.825,13.175,13.175,0,0,0,5.034-.976,11.5,11.5,0,0,0,3.561-2.063,9.218,9.218,0,0,0,2.029-3.21,27.083,27.083,0,0,0,1.207-3.424c.214-.865.454-2.209.711-4.023a31.735,31.735,0,0,0-.865-13.8,18.832,18.832,0,0,0-6.224-9.836,17.6,17.6,0,0,0-15.991-3.861l-2.072.651a12.775,12.775,0,0,0-4.041,2.286,8.211,8.211,0,0,0-1.8,3.373,30.943,30.943,0,0,0-1.1,5.65,51.9,51.9,0,0,0-.385,5.65Zm43.317-21.864,1.421-1a16.619,16.619,0,0,0,4.041-4.665v-8.783a16.674,16.674,0,0,1,4.092-11.659,13.473,13.473,0,0,1,10.427-4.5,19.824,19.824,0,0,1,3.108.223,15.177,15.177,0,0,1,3.219.976l1.1.437-1.1,3.6-.651,4.683a7.568,7.568,0,0,0-2.406-2.4,6.045,6.045,0,0,0-3.424-1.087,4.7,4.7,0,0,0-3.767,1.96,9.013,9.013,0,0,0-1.584,5.778v10.786h10.915v5.667H227.21V613.4a20.374,20.374,0,0,0,2.072,9.81H215.859a19.2,19.2,0,0,0,2.294-9.81V574.709Zm41.374-29.962h15.717a11.5,11.5,0,0,0-.651,2.508,18.5,18.5,0,0,0-.223,2.833,22.036,22.036,0,0,0,.514,4.366l13.329,50.61,16.83-61.113,17.421,62.723,13.937-52.219a26.291,26.291,0,0,0,.856-5.992,21.536,21.536,0,0,0-.325-3.707H345.6a37.3,37.3,0,0,0-3.167,5.941,71.77,71.77,0,0,0-2.834,8.775l-17.575,63.75h-8.4l-14.005-50.413L285.98,623.153h-7.7L260.922,559.4a75.69,75.69,0,0,0-2.62-8.175,27.16,27.16,0,0,0-2.834-4.905Zm84.34,52.031a29.968,29.968,0,0,1,5.188-17.557,20.185,20.185,0,0,1,10.273-8.809,56.634,56.634,0,0,1,7.148-1.575,34.617,34.617,0,0,1,3.767-.214,24.1,24.1,0,0,1,17.978,7.4,27.452,27.452,0,0,1,7.208,20.006,29.19,29.19,0,0,1-5.291,17.566,20.912,20.912,0,0,1-11.352,8.86,41.821,41.821,0,0,1-9.417,1.524,23.325,23.325,0,0,1-15.409-5.547A22.47,22.47,0,0,1,340.46,607.3c-.95-3.732-1.515-6.232-1.712-7.508a18.435,18.435,0,0,1-.325-2.988m9.28-.214a8.851,8.851,0,0,0,.274,2.174c.18.728.514,2.012.984,3.861a19.384,19.384,0,0,0,8.818,11.685,17.415,17.415,0,0,0,9.853,2.825,13.175,13.175,0,0,0,5.034-.976,11.5,11.5,0,0,0,3.561-2.063,9.218,9.218,0,0,0,2.029-3.21,27.084,27.084,0,0,0,1.207-3.424c.214-.865.454-2.209.711-4.023a31.594,31.594,0,0,0-.873-13.8,18.832,18.832,0,0,0-6.224-9.836,17.6,17.6,0,0,0-15.991-3.861l-2.072.651a12.774,12.774,0,0,0-4.041,2.286,8.211,8.211,0,0,0-1.8,3.373,31.065,31.065,0,0,0-1.087,5.65,51.889,51.889,0,0,0-.385,5.65Zm48,26.64a21.167,21.167,0,0,0,2.183-9.81v-35.1a19.7,19.7,0,0,0-.325-3.544,23.272,23.272,0,0,0-1.2-4.083l-.548-1.635h11.129v9.7a18.289,18.289,0,0,1,5.547-6.994,13.119,13.119,0,0,1,8.407-3.142h1.755l-.984,4.734c-.214,1.712-.342,2.816-.385,3.3s-.06,1.3-.051,2.423l-1.421-.856a9.4,9.4,0,0,0-4.041-.856,8.357,8.357,0,0,0-5.35,1.909,8.929,8.929,0,0,0-3.167,5.068l-.325,2.945v26.152a22.2,22.2,0,0,0,2.072,9.7Zm63.606-53.392q0,2.5.051,4.905t.385,5.136l-1.1-.984a16.96,16.96,0,0,0-11.026-4.143,17.36,17.36,0,0,0-14.733,8.663,31.047,31.047,0,0,0-2.62,6.48,24.092,24.092,0,0,0-.762,6.1,22.174,22.174,0,0,0,5.188,15.306,16.961,16.961,0,0,0,13.261,5.83,21.674,21.674,0,0,0,4.2-.488,34.94,34.94,0,0,0,3.6-.856,28.859,28.859,0,0,0,3.544-1.421l1.712-.762c-.368.573-.728,1.173-1.087,1.8s-.83,1.481-1.421,2.568l-1.712,4.58-4.589.856-3.818.437a29.247,29.247,0,0,1-20.195-7.08,23.861,23.861,0,0,1-7.97-18.739,29.17,29.17,0,0,1,.325-4.143c.214-1.532.839-4.255,1.858-8.175a22.748,22.748,0,0,1,9.331-11.659,30.039,30.039,0,0,1,18.388-5.778A27.586,27.586,0,0,1,459.3,569.8m44.019,26.8H471.337c-.077.514-.128,1.079-.163,1.712s-.051,1.113-.051,1.481q0,.989.385,5.042a14.81,14.81,0,0,0,4.366,8.381,13.266,13.266,0,0,0,10.2,4.323,21.8,21.8,0,0,0,9.417-2.217,34.332,34.332,0,0,0,7.1-4.212l-1.2,2.4a60.871,60.871,0,0,0-2.508,6.754,19.36,19.36,0,0,1-7.371,3l-4.28.548a20.783,20.783,0,0,1-2.731.163,21.551,21.551,0,0,1-16.7-6.54,26.753,26.753,0,0,1-5.993-18.739,73.493,73.493,0,0,1,1.036-10.786,25.888,25.888,0,0,1,4.529-11.445,17.885,17.885,0,0,1,8.561-6.592,27.5,27.5,0,0,1,9.117-1.8,15.78,15.78,0,0,1,13.483,6.848,32.636,32.636,0,0,1,4.965,19.4Zm-31.435-5.778h22.7a12.592,12.592,0,0,0,.111-2.722,16.569,16.569,0,0,0-2.945-10.675,9.779,9.779,0,0,0-7.97-3.6,9.91,9.91,0,0,0-7.859,3.381A21.057,21.057,0,0,0,472,588.337Zm65.661-20.049v8.5l-1.524-1.087a20.21,20.21,0,0,0-8.364-3.707,5.787,5.787,0,0,0-1.575-.223h-1.25a13.135,13.135,0,0,0-5.65,1.472,5.836,5.836,0,0,0-3.039,5.83,6.614,6.614,0,0,0,1.9,5.068,31.184,31.184,0,0,0,2.448,2.183c.36.257,1.19.856,2.5,1.712l3.15,2.072a55.41,55.41,0,0,1,5.864,3.758,31.893,31.893,0,0,1,4.511,4.417,11.43,11.43,0,0,1,2.44,7.7,14.321,14.321,0,0,1-1.926,7.191,16.722,16.722,0,0,1-5.821,5.83,20.069,20.069,0,0,1-10.718,2.457,45.9,45.9,0,0,1-5.83-.488,28.312,28.312,0,0,1-7.585-2.234c.146-.728.248-1.43.325-2.123a23.5,23.5,0,0,0,.111-2.457,39.516,39.516,0,0,0-.437-5.778l.984.976a25.3,25.3,0,0,0,6.472,4.682,14.084,14.084,0,0,0,6.147,1.524,13.866,13.866,0,0,0,5.65-1.584,6.336,6.336,0,0,0,3.347-6.378,6.47,6.47,0,0,0-1.524-4.58,22.041,22.041,0,0,0-3.424-2.945,35,35,0,0,0-3.493-2.183l-2.508-1.413-1.2-.651a22.583,22.583,0,0,1-6.549-4.905,14.02,14.02,0,0,1-3.167-5.556,19.672,19.672,0,0,1-.762-5.136,12.982,12.982,0,0,1,4.82-10.461,20.245,20.245,0,0,1,13.363-4.032h3.724a13.281,13.281,0,0,1,4.049.659,31.59,31.59,0,0,1,4.494,1.849m.6,3.921A62.891,62.891,0,0,0,553.708,556v12.995h12.584v5.667h-12.55v38.419a5.048,5.048,0,0,0,1.652,3.587,8.064,8.064,0,0,0,4.623.976h1.763a12.412,12.412,0,0,0,3.245-.745,13.222,13.222,0,0,0,2.808-1.652A27.187,27.187,0,0,0,565,620.687l-.659,1.96-1.2.325-1.2.214-2.406.325H556.7a11.019,11.019,0,0,1-9.494-3.476,11.55,11.55,0,0,1-2.508-6.746V574.709Zm70.044,21.906H576.163c-.077.514-.128,1.079-.163,1.712s-.051,1.113-.051,1.481q0,.989.385,5.042a14.81,14.81,0,0,0,4.366,8.381,13.266,13.266,0,0,0,10.2,4.323,21.8,21.8,0,0,0,9.417-2.217,34.335,34.335,0,0,0,7.1-4.212l-1.2,2.4a60.849,60.849,0,0,0-2.508,6.754,19.362,19.362,0,0,1-7.371,3l-4.28.548a20.794,20.794,0,0,1-2.731.163,21.551,21.551,0,0,1-16.7-6.54,26.753,26.753,0,0,1-5.992-18.739,73.5,73.5,0,0,1,1.036-10.786,25.888,25.888,0,0,1,4.529-11.445,17.833,17.833,0,0,1,8.561-6.592,27.5,27.5,0,0,1,9.117-1.8,15.78,15.78,0,0,1,13.483,6.848,32.637,32.637,0,0,1,4.965,19.4Zm-31.435-5.778h22.7a12.588,12.588,0,0,0,.111-2.722,16.518,16.518,0,0,0-2.945-10.675,9.779,9.779,0,0,0-7.97-3.6,9.91,9.91,0,0,0-7.859,3.381,21.059,21.059,0,0,0-3.929,11.129Zm36.169,32.359a21.166,21.166,0,0,0,2.183-9.81v-35.1a19.7,19.7,0,0,0-.325-3.544,23.268,23.268,0,0,0-1.2-4.083l-.548-1.635H624.12v9.7a18.29,18.29,0,0,1,5.547-6.994,13.119,13.119,0,0,1,8.407-3.142h1.755l-.984,4.734c-.214,1.712-.342,2.816-.385,3.3,0,.514-.051,1.318-.051,2.423l-1.421-.856a9.4,9.4,0,0,0-4.041-.856,8.357,8.357,0,0,0-5.35,1.909,8.929,8.929,0,0,0-3.167,5.068l-.325,2.945V613.36a22.321,22.321,0,0,0,2.072,9.7ZM201.554,134.434l-.317-.291Zm122.23-8.561c1.592,2.277,5.453,1.258,7.5.137A28.424,28.424,0,0,0,341.3,113.084a27.171,27.171,0,0,0,2.106-14.613,2.8,2.8,0,0,0-.6-2.029c-.856-.856-2.329-.214-3.322.479a36.3,36.3,0,0,0-5.924,5.059,98.5,98.5,0,0,0-7.456,11c-1.883,3.578-4.957,8.9-2.346,12.841l.043.068m-146.6,44.6A76.833,76.833,0,0,0,195.3,164.1,11.662,11.662,0,0,0,202,156.221a20.955,20.955,0,0,0,1.224-9.947c-.368-1.806-1.207-3.518-1.644-5.29a8.448,8.448,0,0,1-.283-2.072,19.605,19.605,0,0,0-.137-4.854,3.238,3.238,0,0,0-2.748-2.474,7.8,7.8,0,0,0-5.487,1.789A65.784,65.784,0,0,0,165.119,162.2a7.042,7.042,0,0,0-.265,5.872c1.755,3.364,7.645,3.424,12.327,2.44m426.684-2.568c11.283-6.369-3.27-28.909-9.194-34.5a45.217,45.217,0,0,1-12.584-15.229,10.642,10.642,0,0,0-14.451-4.237q-.244.128-.488.283c-6.207,4.443-1.549,26.94.377,32.847,3.887,11.925,22.763,28.438,36.323,20.793M201.143,134.049h0l.1.094-.1-.094M800,364.926H0C0,163.386,179.082,0,400,0S800,163.386,800,364.926M548.991,156.8c7.191,19.612,30.074,33.386,50.62,24.971,22.729-9.28,21.162-40.945,9.751-58.092-3.964-5.992-11.608-15.811-19.6-15.674a8.721,8.721,0,0,1-3.125-.146,7.723,7.723,0,0,1-2.457-1.935,13.413,13.413,0,0,0-17.661-.616,45.8,45.8,0,0,0-19.758,33.977,40.836,40.836,0,0,0,2.234,17.506m-34.919,15.931a135.592,135.592,0,0,0,41.7,53.632c28.73,20.93,92.918,7.131,102.3-30.689l11.72-47.28,3.613-14.6c-4.34-3.424-10.547,2.157-13.466,5.042-11.66,11.522-12.6,32.222-16.008,47.588-8.081,36.545-64.265,21.247-85.556,7.7a215.217,215.217,0,0,1-42.187-34.867c-1.37-1.481-2.269-.77-2.816.539a18.18,18.18,0,0,0,.7,12.935m-79.461-4.957a20.234,20.234,0,0,0,17.978,7.371,3.9,3.9,0,0,0,2.774-4.528c-.419-1.284-1.549-1.712-2.765-2.106a22.473,22.473,0,0,1-11.514-18.5c-.437-6.557,3.75-12.6,3.2-19.33-.094-1.173-.6-4.066,1.224-4.212.616-.051,1.044.642,1.1,1.258.856,2.876,3.732,2.679,5.993,3.827,7.259,3.638,11.583,19.475,11.129,26.683a16.677,16.677,0,0,0,0,5.684c.531,1.832,2.568,3.424,4.28,2.679,2.962-1.275,4.186-7.944,4.28-10.718a50.159,50.159,0,0,0-4.46-20.879c-5.231-12.67-9.417-17.754-23.765-16.351-10.641,1.036-13.9,19.244-15.683,27.719a25.263,25.263,0,0,0,6.224,21.4m-121.074-49.24a25.25,25.25,0,0,0,11.728,18.619,26.2,26.2,0,0,0,23.251-2.286,30.115,30.115,0,0,0,16.642-29.679c0-11.129-14.022-32.53-27.831-28.438-6.592,1.943-9,10.178-13.843,14.365a33.218,33.218,0,0,0-9.956,27.394M156.4,169.155c4.52,14.433,17.19,17.361,31.007,15.948,11.78-1.2,26.41-4.734,31.675-16.907a36.223,36.223,0,0,0-1.472-25.613c-3.245-9.6-8.561-28.361-21.616-28.643a23.253,23.253,0,0,0-14.254,6.848A99.493,99.493,0,0,0,159.315,143.2a31.661,31.661,0,0,0-2.919,25.99M252.19,285.612a45.45,45.45,0,0,0-40.663-35.286c-28.293-2.568-53.171,17.5-72.929,35.175-9.2,8.227-21.256,16.462-26.915,27.736a18.579,18.579,0,0,0,3.33,20.922c7.105,6.1,15.606-.676,20.957-6.087,19.63-19.852,39.919-40.234,65.361-52.6,9.742-4.734,25.9-11.685,34.166-.7a15.344,15.344,0,0,1,.856,13.894l-5.6,21.025c-1.25,4.7,1.284,9.417,6.849,8.766a15.866,15.866,0,0,0,13.081-11.257,42.464,42.464,0,0,0,1.549-21.6m19.236-170.482c0-1.438-.856-18.833-4.614-11.642-8.509,16.453-12.268,34.824-20.922,51.115-17.019,32.033-57.973,63.091-95.88,56.371-18.106-3.21-20.409-18.884-19.69-34.893.505-11.129-.437-24.534-10.119-30.116-10.47-5.992-5.5,13.919-4.871,17.926,3.921,25.373,5.573,54.017,31.452,66.883,42.9,21.324,99.844-17.292,113.8-57.895A169.025,169.025,0,0,0,271.486,115.1m88.946,71.052A27.961,27.961,0,0,0,339.8,168.745c-11.232-1.549-26.042,10.084-33.686,16.154A160.05,160.05,0,0,0,279.1,212.7c-4.4,5.71,4.486,13.072,10.016,10.033a116.042,116.042,0,0,0,19.69-16.316,204.077,204.077,0,0,1,28.25-20.793c2.012-1.284,8.278-5.641,10.658-4.041,1.712,1.13,1.1,4.195,1.139,5.924a52.825,52.825,0,0,0,.539,6.78,17.3,17.3,0,0,0,5.453,11.48,4.545,4.545,0,0,0,4.152.728c1.96-.753,2.132-2.868,2.132-4.7a63.106,63.106,0,0,0-.711-15.606M383.7,118.323c-.094-.711-.325-1.549-.984-1.789h-.077c-.8-.223-1.49.574-1.943,1.267a74.686,74.686,0,0,1-28.011,25.39c-19.638,9.853-44.516,9.271-56.946-11.7-5.248-8.834-8.441-26.538-19.69-30.073,0,0-4.708-1.49-.856,6.848a258.243,258.243,0,0,0,19.27,37.409c13.7,19.92,46.228,24.218,66.662,13.449a41.722,41.722,0,0,0,22.549-40.739m9.057,50.738c12.31,33.275,53.154,51.449,86.515,50.045a31.372,31.372,0,0,0,29.235-22.728,71.364,71.364,0,0,0,1.892-33.711c-.565-3.15-2.705-1.4-2.928-1.216a21.294,21.294,0,0,0-3.784,10.82c-3.227,25.63-8.116,32.71-35.322,29.106a90.135,90.135,0,0,1-72.013-58.057A75.361,75.361,0,0,1,392,124.692c-.086-.856-.574-1.866-1.455-1.995-1.353-.2-2.012,1.592-2.132,2.953a100.643,100.643,0,0,0,4.28,43.487M525.2,281.931c-2.714-14.3-17.387-23.439-28.079-31.674A341.233,341.233,0,0,0,468.64,229.8c-10.8-6.686-24.15-11.908-36.3-5.393a55.877,55.877,0,0,0-23.473,24.406,26.932,26.932,0,0,0-2.448,15.931,4.39,4.39,0,0,0,3.852,4.16,7.538,7.538,0,0,0,6.977-4.563c3.108-6.266,1.772-13.954,4.785-20.391,2.174-4.657,7.345-10.521,13.184-8.749a124.144,124.144,0,0,1,37.111,19.783,120.325,120.325,0,0,1,33.25,34.37,38.513,38.513,0,0,0,5.83,9.785,7.342,7.342,0,0,0,12.053-3.3,24.61,24.61,0,0,0,1.712-13.868m146.072,23.3a192.061,192.061,0,0,0-103.114-58.631c-22.763-5.359-32.351,23.113-22.044,39.447,1.943,3.082,5.513,9.579,9.545,10.11,3.031.394,5.017-3.424,4.614-6.42l-5-19.561a20.949,20.949,0,0,1,14.664.471,199.1,199.1,0,0,1,82.757,52.27,17.3,17.3,0,0,0,16.779,2.414c7.773-3.6,6.566-15.049,1.789-20.1M201.28,138.911a8.45,8.45,0,0,0,.283,2.072v-6.54l-.317-.291-.1-.094a19.6,19.6,0,0,1,.137,4.854m0,0a8.45,8.45,0,0,0,.283,2.072v-6.54l-.317-.291-.1-.094a19.6,19.6,0,0,1,.137,4.854m366.262,8.2c3.887,11.925,22.763,28.438,36.323,20.793,11.283-6.369-3.27-28.909-9.194-34.5a45.218,45.218,0,0,1-12.584-15.229,10.646,10.646,0,0,0-14.468-4.195c-.154.086-.317.18-.471.274-6.207,4.443-1.549,26.94.377,32.847" fill="#fff"></path></svg>