<?xml version="1.0" encoding="utf-8"?>
<!-- Generator: Adobe Illustrator 23.1.1, SVG Export Plug-In . SVG Version: 6.00 Build 0)  -->
<svg version="1.1" id="Layer_1" xmlns="http://www.w3.org/2000/svg" xmlns:xlink="http://www.w3.org/1999/xlink" x="0px" y="0px"
	 viewBox="0 0 880.5 317.3" style="enable-background:new 0 0 880.5 317.3;" xml:space="preserve">
<style type="text/css">
	.st0{fill:#01656E;}
</style>
<g>
	<g>
		<path class="st0" d="M565.9,223.2c-5.5-6.3-11-12.6-16.6-18.9c-5.5-6.2-10.9-12.6-16.6-18.7c-0.2,0.1-0.5,0.2-0.7,0.3
			c-0.1,0.8-0.3,1.7-0.3,2.5c0,7.8,0,15.6,0.1,23.3c0,1.8,0.2,3.6,0.5,5.3c0.3,2.3,1.7,3.7,3.9,4.3c1.2,0.4,2.4,0.7,3.6,1.5
			c-5.6,0-11.1,0-16.7,0c0-0.1-0.1-0.2-0.1-0.4c0.5-0.2,1-0.5,1.5-0.6c3.1-0.7,5.1-2.5,5.3-5.8c0.1-1.5,0.3-3,0.3-4.5
			c0-8.5,0-17,0-25.5c0-4.5-1.6-6.4-6-7.6c-0.5-0.1-1-0.3-1.6-0.6c1.4-0.5,6.8-0.9,7.8-0.4c0.8,0.4,1.4,1,2,1.7
			c6.7,7.6,13.3,15.2,20,22.8c3.4,3.8,6.7,7.7,10.1,11.5c0.5,0.6,1.2,1.1,2.3,2.2c0.1-1.6,0.3-2.4,0.3-3.2c0-7.9,0-15.7,0-23.6
			c0-1.8-0.3-3.6-0.5-5.3c-0.4-2.8-1.9-4.5-4.8-5c-0.9-0.2-1.7-0.4-2.7-0.6c1.7-0.7,12.9-0.8,17-0.2c-1.2,0.4-2,0.7-2.8,0.9
			c-2.3,0.8-3.8,2.2-4.1,4.8c-0.2,2.1-0.5,4.3-0.5,6.4c-0.1,10.1,0,20.2,0,30.3c0,1,0,1.9,0,2.9C566.3,223,566.1,223.1,565.9,223.2z
			"/>
		<path class="st0" d="M454,201.2c2.2,4.5,5,8.4,8,12.1c3,3.6,6.1,7.2,10.1,9.8c-3.4,0.6-6.4-0.3-8.9-2.5c-1.7-1.5-3.3-3.3-4.7-5.1
			c-2.3-3.1-4.4-6.3-6.5-9.5c-1.9-2.8-6.7-4.7-9.9-3.7c-0.9,0.3-1.3,0.9-1.3,1.8c0,4.4-0.1,8.8,0.1,13.1c0.2,3.1,1.4,4.1,4.5,4.7
			c0.6,0.1,1.2,0.3,2,0.5c-2,0.7-13.4,0.9-17,0c0.6-0.2,1.2-0.4,1.8-0.5c3.6-0.6,4.4-1.3,4.9-4.9c0.1-0.8,0.2-1.6,0.2-2.4
			c0-9.8,0-19.7,0-29.5c0-1-0.2-1.9-0.3-2.9c-0.2-2.2-1.3-3.4-3.5-3.7c-0.8-0.1-1.6-0.4-3-0.8c8.3-0.5,16-1.1,23.5,0.4
			c6.6,1.3,8.4,5.1,8.7,10.1c0.2,4.4-1.4,8.2-5.2,10.8C456.4,199.6,455.3,200.3,454,201.2z M445.8,178.1c0,0.1,0,0.2-0.1,0.3
			c-0.7,0-1.4,0-2.1,0c-2.3,0.1-2.7,0.4-2.7,2.7c-0.1,5.9,0,11.8,0,17.7c0,1.9,0.4,2.4,2.4,2.4c1.9,0,3.7-0.1,5.6-0.3
			c4.7-0.3,7.8-2.9,9.1-7.4c1.4-4.9,0-10.2-3.4-12.7c-0.7-0.5-1.5-1-2.3-1.3C450.2,179,448,178.6,445.8,178.1z"/>
		<path class="st0" d="M309.6,176.1c8.8-0.4,20.5,4.9,23.5,17.4c3.2,13.3-4.6,27-19.7,29.9c-7.5,1.4-14.4-0.1-20.5-4.8
			c-5.3-4.1-8-9.6-8.6-16.3C283.3,187.8,294.9,175.8,309.6,176.1z M329.3,201.7c-0.3-2.3-0.4-4.6-0.9-6.9c-1-5.1-3.2-9.7-7.4-13
			c-4.8-3.7-10.2-5-16.1-4c-6.2,1-10.8,4.1-13.5,9.8c-2.4,5-2.8,10.3-1.9,15.7c1.9,12.1,11,19.8,22.1,19c6.5-0.4,11.6-3.3,15-9
			C328.5,209.7,329.3,205.8,329.3,201.7z"/>
		<path class="st0" d="M212,176.2c5.2,0.2,12.7,3.9,17.3,12.5c5.4,10.2,2.1,23.6-7.2,30.2c-9.5,6.8-22.5,6.8-31.4-0.5
			c-5-4.1-7.7-9.5-8.2-16C181.2,188,192.5,175.9,212,176.2z M227.4,201.9c-0.5-3.1-0.8-6.2-1.6-9.2c-2.5-9.5-11-16.5-22.9-14.8
			c-7.5,1.1-12.3,5.3-14.7,12.4c-1.4,4.2-1.6,8.6-0.9,13c1.8,12.1,10.8,20,22.2,19.2c6.4-0.4,11.5-3.2,14.8-8.8
			C226.5,209.9,227.3,206,227.4,201.9z"/>
		<path class="st0" d="M778.9,202.1c0.3,10-9.8,20.1-21.6,21.5c-8.4,1-15.6-1.1-21.5-7.1c-3.8-3.8-5.7-8.5-6.2-13.9
			c-1.1-13.3,7.9-24.3,21.1-26.3c4.9-0.7,9.8-0.4,14.4,1.8C774.1,182.5,778.8,189.5,778.9,202.1z M774.3,200.4
			c-0.1-3.4-0.9-8.1-3.2-12.5c-3.6-7-12-11.3-20.5-10.2c-9.1,1.2-14.1,7.2-15.8,14.3c-1.2,5.3-1,10.5,0.7,15.6
			c2.2,6.6,6.3,11.3,13,13.7c8.4,3,17.7,0.1,22.4-6.9C773.5,210.6,774.4,206.4,774.3,200.4z"/>
		<path class="st0" d="M682.7,199.6c0.2,14-11,22.8-21.5,24c-7.6,0.9-14.4-0.8-20.2-5.8c-11.5-9.8-10-29.5,3.8-38
			c9.4-5.8,23.5-5.3,31.9,3.6C679.8,186.9,683,192,682.7,199.6z M678.4,202.2c-0.3-2.5-0.4-4.8-0.8-7.1c-1.9-10-9.6-19.1-23.7-17.3
			c-7.3,1-12.8,5.9-14.8,13c-1.6,5.7-1.3,11.3,0.5,16.9c2.8,8.9,10.8,15,20.4,14.7c8.4-0.3,15.5-5.8,17.5-14
			C678,206.3,678.1,204.2,678.4,202.2z"/>
		<path class="st0" d="M621.7,188.2c-0.4-0.9-0.7-1.8-1.1-2.7c-2-4.6-5.5-7-10.5-7.7c-4-0.6-7.8-0.3-11.7,0.7
			c-6.8,1.7-11.2,6.1-13.1,12.8c-1.8,6.2-1.5,12.3,1,18.4c2.5,6,6.8,9.9,13.1,11.7c5.3,1.5,10.6,1.3,15.9,0c3-0.8,3.8-1.9,3.8-5
			c0-2.5,0-5,0-7.5c0-3.2-1.1-4.5-4.3-5.1c-1.2-0.2-2.4-0.4-4-0.6c2.1-0.7,12.2-0.9,16.2-0.3c-0.6,0.4-1,0.7-1.4,0.8
			c-1.8,0.5-2.7,1.5-2.7,3.4c0.1,4.1,0.1,8.2,0.1,12.3c0,0.4,0,0.9,0,1.6c-2.3,0.6-4.6,1.2-6.9,1.7c-7.1,1.7-14.2,1.8-21.1-0.8
			c-7.9-3-13.3-8.3-15.1-16.7c-2.4-11.4,3.3-22.5,15.1-26.9c5.9-2.3,12-2.5,18.2-1.8c2.1,0.2,4.2,0.7,6.3,1.1
			c0.9,0.2,1.8,0.5,1.9,1.6c0.4,3,0.7,5.9,1.1,8.9C622.2,188.1,622,188.1,621.7,188.2z"/>
		<path class="st0" d="M818.4,203c5.1-0.5,10.1-0.5,15.1-0.3c-3.8,2.5-3.8,2.5-3.8,7.5c0,3.1,0.2,6.2,0.4,9.4
			c0.1,1.1-0.4,1.6-1.4,1.9c-2.8,0.6-5.6,1.3-8.4,1.9c-6.8,1.4-13.6,0.8-19.9-2c-6.9-3-11.7-8-13.3-15.5
			c-2.5-12.2,2.5-21.9,13.3-26.9c6.2-2.9,12.8-3.2,19.4-2.5c2.2,0.2,4.4,0.7,6.6,1.1c1.4,0.2,2.1,1,2.2,2.5c0.2,2.7,0.6,5.4,0.9,8.5
			c-1.3-0.6-1.4-1.7-1.7-2.5c-1.6-4-4.4-6.7-8.6-7.7c-5.9-1.4-11.7-1-17.3,1.5c-4.6,2-7.6,5.6-9.2,10.3c-2.1,6.1-2.1,12.3,0.1,18.4
			c3.1,8.5,9.4,13,18.3,13.8c3.7,0.3,7.3,0.1,10.9-0.9c3.1-0.9,4-1.9,4.1-5.1c0.1-2.5,0.1-5,0-7.5c-0.1-3.2-1.5-4.6-4.8-5.1
			c-0.8-0.1-1.6-0.2-2.4-0.4C818.9,203.2,818.6,203.1,818.4,203z"/>
		<path class="st0" d="M346.7,123.9c0.9,2.8,0.9,11.5,0,13.6c-0.4-1.1-0.8-2-1.1-2.9c-0.7-1.7-1.9-2.8-3.8-2.9
			c-3.3-0.2-6.6-0.3-9.9-0.3c-2.3,0-2.6,0.4-2.7,2.7c0,4.1,0,8.2,0,12.3c0,0.9,0.2,1.8,0.4,2.6c0.4,2,1.6,3.2,3.6,3.5
			c4.4,0.8,8.7,0.7,13-0.3c2-0.5,3.5-1.7,4.6-3.4c1.2-1.9,2.2-3.8,3.7-5.6c0,0.5,0,0.9-0.1,1.4c-0.5,2.5-1.1,5.1-1.7,7.6
			c-0.4,1.8-0.6,2.1-2.5,2.1c-2.6,0.1-5.2,0-7.8,0c-7,0-14,0-20.9,0c-0.9,0-1.7,0-2.6,0c0-0.2,0-0.3-0.1-0.5c1-0.2,2-0.5,3-0.7
			c2-0.4,3.2-1.5,3.5-3.5c0.2-1.1,0.3-2.1,0.3-3.2c0-9.8,0-19.7,0-29.5c0-0.5,0-1.1,0-1.6c-0.3-4-1.3-5-5.3-5.7
			c-0.3-0.1-0.6-0.2-1.5-0.6c0.9-0.3,1.3-0.5,1.8-0.5c9.1,0,18.3,0,27.4,0c2.4,0,2.4,0.1,2.6,2.4c0.1,1.8,0.3,3.6,0.4,5.3
			c0.1,1,0,2.1-0.5,3.2c-0.2-0.4-0.4-0.8-0.6-1.2c-0.2-0.5-0.3-1-0.4-1.5c-0.9-4-3.6-6.2-7.6-6.4c-3.6-0.2-7.2-0.1-10.7-0.1
			c-1.6,0-2,0.5-2.1,2.5c-0.1,3.8,0,7.5,0,11.3c0,1.2,0,2.3,0,3.5c0,1.4,0.6,2.3,2,2.2c3.6-0.1,7.2-0.1,10.7-0.4
			c1.8-0.1,3.1-1.3,3.8-3C346,125.7,346.2,125.1,346.7,123.9z"/>
		<path class="st0" d="M450.6,153.8c0.8-0.2,1.6-0.3,2.3-0.5c3-0.7,3.9-1.6,4.3-4.6c0.1-0.8,0.1-1.6,0.1-2.4c0-9.7,0-19.3,0-29
			c0-1.2-0.1-2.5-0.4-3.7c-0.5-2.6-1.5-3.4-4.1-3.8c-0.6-0.1-1.2-0.2-1.7-0.7c0.5-0.1,1.1-0.3,1.6-0.3c9,0,18.1,0,27.1,0
			c2.1,0,2.2,0.2,2.4,2.3c0.1,1.7,0.3,3.4,0.4,5.1c0.1,1.1,0,2.3-0.4,3.5c-0.2-0.4-0.5-0.8-0.6-1.2c-0.2-0.5-0.3-1-0.4-1.5
			c-1.3-4.4-3.4-6.1-7.9-6.4c-3.4-0.2-6.8-0.1-10.2-0.1c-1.7,0-2.2,0.5-2.3,2.3c-0.1,5,0,10,0,15c0,1.4,0.7,2.2,2.1,2.2
			c3.5-0.1,7-0.1,10.4-0.4c1.9-0.1,3.3-1.3,4-3.1c0.2-0.6,0.5-1.2,0.9-2c0.9,1.7,1.1,10.1,0.2,13.5c-0.5-1.2-0.8-2-1.1-2.7
			c-0.8-2-2.1-3.2-4.4-3.3c-3.2-0.1-6.4-0.3-9.6-0.3c-2.1,0-2.5,0.5-2.5,2.6c0,4.2,0,8.4,0,12.6c0,0.8,0.2,1.6,0.4,2.4
			c0.4,2.1,1.7,3.3,3.7,3.7c4.3,0.8,8.6,0.6,12.8-0.3c2-0.5,3.6-1.6,4.7-3.4c1.2-1.9,2.3-3.8,3.7-6.2c0,1,0.1,1.5,0,1.9
			c-0.5,2.4-1.1,4.9-1.6,7.3c-0.5,2.2-0.6,2.3-2.8,2.4c-1.7,0-3.4,0-5.1,0c-7.8,0-15.6,0-23.4,0c-0.9,0-1.7,0-2.6,0
			C450.6,154.1,450.6,153.9,450.6,153.8z"/>
		<path class="st0" d="M678.1,119.5c-0.3-0.9-0.6-1.8-0.9-2.7c-1.4-4.8-3.6-6.1-8.1-6.5c-3.3-0.3-6.6-0.1-9.9-0.1
			c-1.8,0-2.3,0.4-2.3,2.2c-0.1,5.1,0,10.2,0,15.3c0,1.3,0.7,2,2,2c3.6-0.1,7.2-0.1,10.7-0.4c1.8-0.1,3.1-1.3,3.8-3
			c0.3-0.6,0.5-1.3,0.8-2c1,1.4,1.2,9.1,0.4,13.4c-0.5-1-0.8-1.5-0.9-2.1c-0.8-2.5-2.3-3.9-5.1-3.9c-2.9,0-5.9-0.3-8.8-0.3
			c-2.5,0-2.9,0.4-2.9,2.8c0,4.1,0,8.2,0,12.3c0,1,0.2,1.9,0.5,2.9c0.4,1.7,1.6,2.8,3.3,3.2c4.5,0.9,9.1,0.8,13.6-0.4
			c2.8-0.8,4.3-3.1,5.7-5.4c0.7-1.2,1.3-2.4,2-3.6c0.2,0.1,0.4,0.2,0.6,0.2c-0.7,3.3-1.4,6.5-2.2,9.8c-0.1,0.5-1,0.9-1.6,1.1
			c-0.7,0.2-1.4,0.1-2.1,0.1c-9,0-18.1,0-27.1,0c-0.9,0-1.8,0-2.7,0c0-0.2-0.1-0.3-0.1-0.5c1-0.2,2.1-0.5,3.1-0.7
			c1.9-0.4,3-1.5,3.3-3.4c0.2-1.1,0.3-2.1,0.3-3.2c0-9.9,0-19.8,0-29.8c0-0.4,0-0.9,0-1.3c-0.3-4.2-1.2-5.2-5.4-5.8
			c-0.2,0-0.5-0.2-1.1-0.5c0.7-0.3,1.1-0.5,1.6-0.5c9.2,0,18.4,0,27.6,0c1.9,0,2.1,0.2,2.2,2.2c0.2,2.8,0.4,5.7,0.6,8.5
			C678.6,119.4,678.3,119.4,678.1,119.5z"/>
		<path class="st0" d="M378.5,222.2c0.5-0.2,0.9-0.5,1.3-0.6c3.1-0.7,4.9-2.8,6-5.6c2.7-6.2,5.3-12.5,8-18.7
			c2.7-6.2,5.3-12.5,8-18.7c0.3-0.7,0.7-1.4,1.1-2.2c1.1,0.6,1.2,1.7,1.5,2.5c4.4,11.9,8.8,23.8,13.2,35.7c0.3,0.8,0.7,1.6,1,2.5
			c1,2.5,2.7,4.2,5.4,4.7c0.3,0.1,0.7,0.2,1,0.3c0.1,0,0.1,0.1,0.2,0.4c-1.7,0.9-3.4,0.3-5.1,0.4c-1.9,0.1-3.8,0-5.6,0
			c-1.7,0-3.5-0.1-5.2-0.1c0-0.2,0-0.4,0-0.6c0.9-0.2,1.8-0.4,2.7-0.7c2.5-0.7,3.2-1.8,2.4-4.1c-1.2-3.7-2.7-7.4-4-11.1
			c-0.4-1.2-1.2-1.6-2.4-1.6c-4.6,0.1-9.1,0.1-13.7,0c-1.3,0-2,0.5-2.4,1.6c-1.2,3.5-2.5,7.1-3.5,10.7c-0.7,2.3,0.2,3.5,2.5,4.3
			c0.8,0.3,1.7,0.6,2.5,0.8c0.1,0,0.1,0.1,0.1,0.2C391.9,223.2,380.6,223.2,378.5,222.2z M401.9,183.4c-1.6,1.8-2.1,4.1-3,6.2
			c-0.9,2-1.8,4.1-2.6,6.2c-0.8,2.1-2.1,4.1-2.1,6.7c5,0.1,9.8,0.2,14.6,0C408.6,199.5,403.5,185.4,401.9,183.4z"/>
		<path class="st0" d="M236.1,154.1c-5,0-9.9,0-14.9,0c0-0.1-0.1-0.2-0.1-0.3c0.4-0.2,0.8-0.5,1.3-0.6c2.8-0.6,4.5-2.4,5.6-4.9
			c3-7.1,6.1-14.1,9.1-21.2c2.4-5.6,4.8-11.2,7.2-16.8c0.3-0.8,0.8-1.6,1.5-2.9c0.5,1.3,0.9,2.1,1.2,2.8c4.3,11.7,8.7,23.5,13,35.2
			c0.4,1,0.8,2,1.2,3c1,2.6,2.7,4.4,5.5,4.9c0.3,0,0.5,0.3,1.2,0.8c-5.5,0-10.5,0-15.5,0c0-0.1,0-0.3-0.1-0.4c1-0.3,2-0.5,3-0.8
			c1.7-0.6,2.4-1.5,1.9-3.3c-1.3-4.2-2.8-8.3-4.4-12.3c-0.2-0.6-1.2-1.1-1.9-1.2c-4.7-0.1-9.3-0.1-14-0.1c-1.1,0-1.9,0.5-2.3,1.5
			c-1.2,3.6-2.6,7.2-3.7,10.9c-0.7,2.3,0.2,3.5,2.4,4.3c0.9,0.3,1.8,0.6,2.8,0.8C236.2,153.9,236.1,154,236.1,154.1z M251.3,134
			c-0.4-3.5-5.5-17.3-6.9-18.8c-1.8,1.8-7.6,15.8-7.6,18.8C241.6,134.3,246.3,134.3,251.3,134z"/>
		<path class="st0" d="M195.2,132.3c-0.2,0.7-0.3,1-0.3,1.4c0,5.1-0.1,10.2,0,15.3c0,2.4,1.2,3.6,3.5,4.1c1.3,0.3,2.6,0.5,3.9,1
			c-5.6,0-11.3,0-16.9,0c0-0.1-0.1-0.2-0.1-0.2c1-0.2,1.9-0.5,2.9-0.7c1.7-0.5,2.8-1.6,3-3.4c0.2-1.6,0.3-3.2,0.4-4.8
			c0-8.8,0-17.7,0-26.5c0-1.5-0.1-3-0.3-4.5c-0.3-2.7-1.4-3.7-4.1-4.1c-0.6-0.1-1.2-0.2-1.8-0.4c-0.1,0-0.1-0.2-0.1-0.2
			c1.8-0.6,27-0.8,30.1-0.1c0.2,3.4,0.9,6.8,0.6,10.9c-0.5-0.7-0.8-0.9-0.9-1.2c-0.2-0.7-0.4-1.4-0.5-2.1c-0.9-3.9-3.4-6-7.4-6.3
			c-3.4-0.2-6.8-0.1-10.2-0.1c-1.5,0-1.8,0.5-1.8,2.3c0,5.1,0,10.2,0,15.3c0,0.6,0.1,1.2,0.2,1.7c0.2,0.2,0.4,0.4,0.5,0.4
			c4.3,0.6,8.5,0.6,12.8-0.1c1.5-0.2,2.6-1.2,3.1-2.7c0.3-0.8,0.6-1.5,1.1-2.7c0.8,2.7,0.8,11.4,0.1,14.3c-0.4-1.1-0.7-1.8-1-2.5
			c-1.1-3.1-2.3-4.1-5.5-4.1C202.6,132.2,199,132.3,195.2,132.3z"/>
		<path class="st0" d="M513.7,155.5c-0.5-1.2-0.9-2-1.2-2.8c-5-12.5-9.9-25.1-14.9-37.6c-1.1-2.9-2.8-5.2-6.2-5.6
			c-0.1,0-0.2-0.3-0.3-0.4c1.9-0.6,11.7-0.7,14.7,0c-1,0.3-1.4,0.5-2,0.6c-3.2,0.6-3.8,1.6-2.7,4.6c1.5,4,3.1,8,4.7,12
			c2.5,6.1,5,12.3,7.5,18.4c0.4,0.9,0.9,1.8,1.5,3.1c0.6-0.8,1.1-1.2,1.3-1.8c4.1-10,8.2-20,12.3-30c0-0.1,0.1-0.2,0.1-0.3
			c1.1-3.3,1.5-5.2-3.5-6.1c-0.2,0-0.5-0.2-1-0.4c1.7-1.1,3.4-0.5,4.9-0.6c1.8-0.1,3.6,0,5.4,0c1.6,0,3.3,0.1,5.1,0.1
			c-0.3,0.5-0.4,0.8-0.5,0.8c-3.2,0.5-5.3,2.3-6.7,5.2c-3.8,8.1-7.6,16.1-11.4,24.3c-2.2,4.7-4.1,9.5-6.1,14.3
			C514.6,153.9,514.2,154.5,513.7,155.5z"/>
		<path class="st0" d="M271.5,109.3c2.5-0.9,12.9-0.8,15.1,0c-1.3,0.4-2.3,0.6-3.2,1c-1.8,0.7-2.3,1.8-1.4,3.3
			c3.4,5.8,7,11.5,10.5,17.2c0.1,0.2,0.4,0.3,0.7,0.5c0.3-0.3,0.8-0.4,1-0.8c3-5.2,5.9-10.4,8.8-15.6c0.2-0.4,0.4-0.8,0.5-1.2
			c0.6-1.9,0.2-2.7-1.8-3.4c-0.8-0.3-1.6-0.3-2.3-0.5c-0.4-0.1-0.7-0.3-1.3-0.5c2.5-0.7,13.5-0.7,15.5-0.1c-0.1,0.1-0.2,0.4-0.3,0.4
			c-3.4,0.5-5.5,2.7-7.3,5.4c-3.7,5.7-7.3,11.4-10.9,17.2c-0.6,1-1.2,2.3-1.2,3.5c-0.1,4.4-0.1,8.8,0.2,13.1
			c0.2,3.1,1.2,3.9,4.3,4.5c1,0.2,2.1,0.3,3.1,0.8c-6,0-12,0-18,0c0-0.1-0.1-0.2-0.1-0.2c1-0.2,2.1-0.4,3.1-0.7
			c2.6-0.7,3.7-1.8,3.7-4.5c0.1-4.3,0.1-8.6,0-12.9c-0.1-1.3-0.7-2.8-1.4-4c-3.4-5.7-6.8-11.3-10.3-17
			C276.9,112.2,275.2,109.6,271.5,109.3z"/>
		<path class="st0" d="M371.1,153.8c1.1-0.2,2.3-0.4,3.4-0.7c2.2-0.5,3.2-1.7,3.4-3.9c0.1-0.6,0.1-1.3,0.1-1.9c0-11.3,0-22.5,0-33.8
			c0-0.9,0-1.8,0-2.4c-0.4-0.4-0.5-0.6-0.7-0.6c-3.4,0.1-6.8,0-10.1,0.3c-2.7,0.2-4.3,2-5.3,4.4c-0.5,1.3-1,2.6-1.5,3.9
			c-0.2,0-0.4-0.1-0.6-0.1c0.2-3.8,0.4-7.7,0.7-11.4c0.3-0.1,0.6-0.3,0.6-0.2c1.7,1.4,3.7,1.4,5.8,1.4c8.1-0.1,16.1,0,24.2,0
			c2.7,0,5.5,0.5,8.2-1.9c0.3,4.5,0.5,8.4,0.7,12.2c-0.2,0.1-0.5,0.1-0.7,0.2c-0.3-0.8-0.5-1.6-0.8-2.3c-1.6-4.8-3.8-6.5-8.9-6.5
			c-2.5,0-5,0-7.7,0c-0.2,1.2-0.4,2.1-0.4,3.1c0,10.9-0.1,21.8,0,32.7c0.1,6.7,1.6,6.7,6.5,7.5c0.4,0.1,0.8,0.1,1.2,0.5
			c-6,0-12,0-18,0C371.1,154,371.1,153.9,371.1,153.8z"/>
		<path class="st0" d="M506.2,222.8c-6.5,0-12.6,0-18.6,0c0-0.2-0.1-0.3-0.1-0.5c0.7-0.2,1.4-0.4,2.1-0.5c3.6-0.5,4.9-1.8,4.9-5.4
			c0.1-3.8,0.1-7.7,0-11.5c-0.1-1.4-0.5-2.8-1.2-4c-3.4-5.8-6.8-11.5-10.4-17.2c-2.6-4.2-2.8-4.3-7.5-6.2c5.2,0,10,0,14.8,0
			c0,0.1,0.1,0.2,0.1,0.3c-0.9,0.3-1.9,0.6-2.8,0.9c-1.8,0.7-2.3,1.7-1.4,3.3c3.4,5.8,7,11.5,10.5,17.2c0.1,0.2,0.4,0.3,0.8,0.6
			c0.5-0.5,1-1,1.3-1.5c2.8-4.8,5.5-9.6,8.2-14.5c0.3-0.5,0.5-1,0.6-1.5c0.7-2.1,0.2-3.2-2-3.8c-0.9-0.2-1.9-0.4-3-0.7
			c1.8-0.7,11.7-0.9,15.4-0.2c-0.9,0.3-1.4,0.6-1.9,0.8c-1.8,0.5-3.2,1.5-4.3,3c-4.8,6.2-9,12.9-12.7,19.8c-0.6,1.1-0.9,2.5-1,3.8
			c-0.1,3.4-0.1,6.8,0,10.2c0,0.7,0.1,1.4,0.2,2.1c0.5,2.9,1.6,4,4.5,4.4c0.9,0.1,1.8,0.3,2.6,0.4
			C505.5,222.2,505.6,222.4,506.2,222.8z"/>
		<path class="st0" d="M868.5,222.7c-6.2,0-12.3,0-18.4,0c0-0.2-0.1-0.3-0.1-0.5c0.8-0.1,1.6-0.3,2.4-0.4c3.6-0.5,4.9-1.8,5-5.4
			c0.1-3.9,0.2-7.9,0-11.8c-0.1-1.5-0.8-3.1-1.6-4.5c-3.2-5.4-6.4-10.7-9.7-16c-2.8-4.5-2.9-4.5-7.5-6.7c4.9,0,9.6,0,14.2,0
			c0,0.1,0,0.3,0.1,0.4c-0.7,0.2-1.5,0.4-2.2,0.7c-2.1,0.8-2.6,1.9-1.5,3.9c1.8,3.2,3.7,6.3,5.6,9.4c1.4,2.3,2.8,4.6,4.2,6.8
			c0.2,0.4,0.5,0.8,0.8,1.4c0.8-0.8,1.4-1.2,1.7-1.8c2.8-5,5.6-10,8.4-14.9c0.2-0.4,0.4-0.8,0.5-1.2c0.7-1.9,0.2-2.9-1.7-3.5
			c-1-0.3-2.1-0.5-3.2-0.8c1.7-0.7,9.6-0.9,14.9-0.4c-0.7,0.4-1,0.7-1.5,0.8c-2.2,0.5-3.7,2-5,3.8c-4.5,5.9-8.3,12.3-12,18.7
			c-0.7,1.2-1,2.7-1.1,4.1c-0.1,3.7-0.1,7.3,0,11c0.1,4.2,1.3,5.5,5.6,6c0.5,0.1,1,0.2,1.6,0.3C868.1,222.2,868.2,222.4,868.5,222.7
			z"/>
		<path class="st0" d="M404.7,118.8c0.2-3.8,0.5-7.5,0.7-11.7c3.4,2.4,7.1,1.4,10.5,1.5c7.5,0.1,15,0,22.6,0c1.8,0,3.6-0.1,5.2-1.6
			c1.4,4.1,0.6,8.1,0.9,12.1c-0.2-0.4-0.6-0.7-0.7-1.1c-0.4-1-0.7-2-1.1-3c-1.3-3-3.6-4.6-6.9-4.7c-2.4-0.1-4.8-0.1-7.2,0
			c-1.7,0-2,0.3-2.1,2c-0.1,0.6,0,1.3,0,1.9c0,10.5,0,20.9,0,31.4c0,7,1.7,7.4,6.8,8.1c0.2,0,0.4,0.2,1.1,0.5c-6.6,0-12.6,0-18.6,0
			c0-0.1,0-0.2-0.1-0.3c1.2-0.2,2.3-0.4,3.5-0.7c2.5-0.6,3.4-1.7,3.8-4.2c0.1-0.8,0.1-1.6,0.1-2.4c0-10.9,0-21.8,0-32.7
			c0-0.4,0-0.7,0-1.1c-0.1-2.1-0.3-2.4-2.3-2.4c-2.8,0.1-5.7,0.2-8.5,0.5c-2.6,0.2-4.2,1.8-5.2,4.1c-0.6,1.3-1.1,2.7-1.7,4
			C405.1,118.9,404.9,118.8,404.7,118.8z"/>
		<path class="st0" d="M239.4,175.7c1.8,1.5,3.9,1.5,6.1,1.5c8.4,0,16.8,0,25.2,0c2.1,0,4.3,0.2,6-1.6c1.1,1.8,1.7,9.3,0.9,12.2
			c-0.5-1.5-0.9-2.6-1.3-3.7c-1.1-3-3.1-5-6.5-5.2c-2.5-0.1-5-0.4-7.5-0.4c-2.2,0-2.5,0.3-2.5,2.5c0,4.6,0,9.1,0,13.7
			c0,6.3,0,12.7,0,19c0,0.8,0,1.6,0,2.4c0.1,3.7,1.4,5.1,5.1,5.6c0.8,0.1,1.6,0.3,2.4,0.4c0,0.2-0.1,0.4-0.1,0.5
			c-6.1,0-12.1,0-18.2,0c0-0.2-0.1-0.4-0.1-0.5c0.8-0.1,1.6-0.3,2.4-0.4c3.3-0.5,4.5-1.7,4.9-5c0.1-0.9,0.1-1.8,0.1-2.7
			c0-10.5,0-20.9,0-31.4c0-0.7,0-1.4,0-2.1c-0.1-1.3-0.7-2.1-2-2c-3.1,0.1-6.3,0.2-9.3,0.7c-2.2,0.3-3.8,1.9-4.7,4
			c-0.6,1.5-1.2,3-1.9,4.6c-0.2,0-0.4-0.1-0.6-0.1c0.3-3.9,0.6-7.8,0.8-11.7C239,175.9,239.2,175.8,239.4,175.7z"/>
		<path class="st0" d="M374.9,211.9c-0.1,0.7-0.1,1.5-0.3,2.2c-0.5,2.1-1,4.2-1.5,6.3c-0.6,2.4-0.7,2.6-3.2,2.6c-8.5,0-17,0-25.5,0
			c-1,0-1.9,0-2.9,0c0-0.2-0.1-0.4-0.1-0.6c0.7-0.2,1.4-0.4,2.1-0.5c2.7-0.5,3.5-1.3,4-3.9c0.2-1,0.3-1.9,0.3-2.9c0-10,0-20,0-30
			c0-0.4,0-0.7,0-1.1c-0.2-3.8-1.1-4.8-4.7-5.7c-0.5-0.1-1-0.2-1.7-0.4c2.1-0.6,14-0.7,16.9-0.1c-1.3,0.3-2.3,0.6-3.3,0.7
			c-2.2,0.4-3.3,1.7-3.6,3.8c-0.2,0.9-0.2,1.8-0.2,2.7c0,9.7,0,19.3,0,29c0,1.2,0.2,2.3,0.4,3.5c0.4,2.4,1.9,3.7,4.2,3.9
			c3.7,0.3,7.3,0.4,10.9-0.5c2.3-0.6,4-2,5.1-4.1c0.9-1.6,1.8-3.2,2.6-4.8C374.5,211.8,374.7,211.8,374.9,211.9z"/>
		<path class="st0" d="M690.6,177.4c5.3,0,10.6,0,15.9,0c0,0.1,0.1,0.2,0.1,0.3c-0.8,0.2-1.7,0.5-2.5,0.7c-2.5,0.7-3.5,1.6-3.8,4.2
			c-0.1,0.8-0.1,1.6-0.1,2.4c0,9.6,0,19.1,0,28.7c0,6.2,1.4,7.6,7.6,7.6c2.3,0,4.6-0.2,6.9-0.5c2.8-0.3,4.8-1.8,6.1-4.3
			c0.8-1.5,1.6-3,2.7-4.9c0.2,0.9,0.4,1.4,0.3,1.8c-0.6,2.5-1.2,5-1.8,7.5c-0.5,2-0.5,2.1-2.7,2.1c-8.1,0-16.3,0-24.4,0
			c-1.4,0-2.8,0-4.2,0c0-0.2-0.1-0.4-0.1-0.6c0.7-0.2,1.4-0.4,2.1-0.5c2.6-0.5,3.5-1.3,3.9-4c0.2-1.3,0.4-2.7,0.4-4
			c0-9.3,0-18.6,0-27.9c0-1.2-0.2-2.5-0.3-3.7c-0.2-2.3-1.5-3.5-3.7-3.9c-0.8-0.1-1.5-0.4-2.2-0.6
			C690.6,177.6,690.6,177.5,690.6,177.4z"/>
		<path class="st0" d="M624.6,109.4c-0.6,0.1-1.2,0.3-1.9,0.4c-3.2,0.4-4.3,1.4-4.8,4.7c-0.2,1.1-0.2,2.1-0.2,3.2
			c0,8.8,0,17.7,0,26.5c0,1.6,0.2,3.2,0.4,4.8c0.3,2.1,1.6,3.3,3.7,3.7c3.7,0.6,7.5,0.5,11.2-0.4c2.4-0.6,4.2-1.9,5.3-4.1
			c0.8-1.5,1.7-3.1,3-4.5c0,0.5,0.1,0.9,0,1.4c-0.6,2.5-1.2,5-1.7,7.6c-0.2,1.1-0.8,1.7-2,1.7c-0.6,0-1.3,0-1.9,0
			c-8.2,0-16.4,0-24.7,0c-0.8,0-1.7-0.1-2.6-0.5c0.7-0.2,1.5-0.4,2.2-0.6c2.2-0.5,3.3-1.9,3.6-4.1c0.1-0.7,0.1-1.4,0.1-2.1
			c0-10.4,0-20.7,0-31.1c0-0.4,0-0.9,0-1.3c-0.2-3.1-1.5-4.4-4.6-4.9c-0.6-0.1-1.3-0.2-2.4-0.5C609.8,108.4,622.3,108.4,624.6,109.4
			z"/>
		<path class="st0" d="M569.1,109.4c2.7-1.1,14.6-1,16.7-0.1c-1,0.2-1.7,0.3-2.3,0.4c-3.1,0.4-4.4,1.8-4.6,4.9c-0.1,2,0,3.9,0,5.9
			c0,8.3,0,16.6,0,24.9c0,5.8,1.5,7.4,7.3,7.4c2.2,0,4.5-0.1,6.7-0.4c2.9-0.4,5.2-1.8,6.6-4.5c0.8-1.5,1.6-2.9,2.4-4.4
			c0.3,0.3,0.6,0.4,0.6,0.5c-0.7,3-1.3,6.1-2.1,9.1c-0.1,0.4-0.8,0.8-1.3,1c-0.5,0.2-1.1,0.1-1.6,0.1c-8.7,0-17.4,0-26,0
			c-0.7,0-1.4-0.1-2.1-0.4c1-0.2,2-0.5,2.9-0.7c1.6-0.5,2.6-1.5,2.8-3.2c0.2-1.6,0.4-3.2,0.4-4.8c0-9.1,0-18.2,0-27.3
			c0-1.2-0.2-2.5-0.3-3.7c-0.1-2.6-1.6-3.9-4.3-4.3C570.3,109.7,569.7,109.5,569.1,109.4z"/>
		<path class="st0" d="M561,154.1c-5.1,0-10.3,0-15.4,0c0-0.1-0.1-0.2-0.1-0.3c0.9-0.2,1.7-0.5,2.6-0.7c2-0.5,3-1.8,3.2-3.8
			c0.1-0.8,0.1-1.6,0.1-2.4c0-10.3,0-20.6,0-30.8c0-4.9-0.6-5.6-5.5-6.5c-0.1,0-0.3-0.2-0.5-0.5c1.7-1,3.5-0.4,5.2-0.5
			c1.8-0.1,3.6-0.1,5.4,0c1.7,0.1,3.5-0.3,5.2,0.8c-0.5,0.1-0.9,0.3-1.4,0.3c-3.3,0.5-4.5,1.8-4.5,5.2c0,7.2,0,14.5,0,21.7
			c0,3.7,0,7.3,0,11c0,4,0.8,5,4.7,5.9c0.4,0.1,0.8,0.2,1.2,0.3C561.1,153.9,561,154,561,154.1z"/>
	</g>
	<g>
		<path class="st0" d="M66.3,10.9c-2.6-3.4-5.9-6.2-9.1-9.4c0.7-0.3,1.1-0.6,1.6-0.6c1.4-0.1,2.9-0.2,4.3,0c0.8,0.1,1.7,0.4,2.4,0.9
			c2.7,1.9,5.2,3.9,7.9,5.9c1,0.7,1.9,1.5,2.9,2.2c1.9,1.3,3.9,1.9,6.3,1.9c14.6-0.1,29.3,0,43.9,0c0.6,0,1.3,0,1.9,0
			c2.6,0,2.7,0.1,2.8,2.7c0.1,20.1,0.3,40.2,0.3,60.4c0,12.1-0.2,24.3-0.2,36.4c0,53,0,105.9,0,158.9c0,3.1,0.3,6.2,0.2,9.3
			c0,4.9-0.2,9.9-0.3,14.8c0,1.7-0.3,1.9-2,1.9c-2.6,0-5.1,0-7.7,0c-13,0-25.9,0-38.9,0c-2.3,0-3.7,0.6-4.8,2.6
			c-3.1,5.3-6.4,10.5-9.5,15.8c-1.1,1.9-2.3,3-4.5,2.6c-0.9-0.1-1.9,0-3.2,0c2.3-7.1,5.9-13.4,7.6-20.1c-0.9-1.2-2-0.9-3-0.9
			c-8.3,0-16.6,0-24.9,0c-6.2,0-12.3,0-18.5,0c-2.5,0-2.6-0.1-2.6-2.5c0-0.6,0-1.1,0-1.7c0-53.8,0-107.7,0-161.5c0-0.5,0-1,0-1.4
			c0.1-0.9-0.3-2.2,0.8-2.5c1.1-0.3,2.4-0.1,3.5,0c0.3,0,0.6,0.7,0.7,1.1c0.1,0.9,0.1,1.8,0.1,2.6c0,51.8,0,103.7-0.1,155.5
			c0,4.5-0.2,4.1,4,4.1c13.4,0,26.7,0,40.1,0c2.3,0,2.4,0,3-1.9c3.3-10.2,7.1-20.2,9.7-30.6c2.3-9.1,4-18.4,4.9-27.8
			c0.6-6.4,0.8-12.9,0.9-19.4c0.1-6.1-0.4-12.3-0.2-18.4c0.2-5.6,1-11.3,1.6-16.9c0.2-2,0.6-3.9,1.1-5.9c2.2-8.6,7.9-14.4,15.2-18.9
			c3.7-2.3,7.4-4.4,11-6.8c2.2-1.5,4.2-3.2,6.2-4.9c3.9-3.3,4.9-7.4,3.4-12.3c-1.2-3.7-3.1-7-5.3-10.1c-1.1-1.6-2.4-3.2-3.6-4.7
			c-2.8-3.5-4.5-7.4-4-11.9c0.3-3.5,1.6-6.6,3.5-9.6c1.3-2.1,2.5-4.3,3.6-6.5c1.7-3.8,0.8-6.2-2.8-8.1c-1.6-0.8-3.3-1.5-5.1-2.1
			c-12.2-3.7-19.9-12-24.2-23.7C84.2,43,82,36.5,79.8,30.1c-1.3-3.8-3.5-7.2-5.9-10.4c-0.9-1.2-2-1.7-3.5-1.7c-14.6,0-29.3,0-43.9,0
			c-2.5,0-2.6,0.1-2.6,2.8c0,18,0,35.9,0,53.9c0,0.7,0,1.4,0,2.2c0,2.5-0.2,2.6-2.5,2.6c-2.3,0-2.4-0.1-2.4-3c0-19.1,0-38.2,0-57.3
			c0-1.8,0-3.7,0-5.5c0.1-1.7,0.3-1.9,1.9-2c0.7,0,1.4,0,2.2,0c13.4,0,26.7,0,40.1,0c1,0,2-0.1,3-0.2C66.1,11.3,66.2,11.1,66.3,10.9
			z"/>
		<path class="st0" d="M18.4,88.4c-0.5,0.1-0.9,0.2-1.3,0.1c-3-0.7-6-0.5-9,0.1c-1,0.2-2,0.4-3,0.8c-3.5,1.3-4.3,2.7-4.6,6.4
			c-0.5,5,1.8,8.6,5.6,11.5c4.5,3.4,9.6,5.7,14.8,7.7c5.4,2,10.9,3.5,16.6,4.4c0.7,0.1,1.4,0.3,2.1,0.4c0.1,0,0.2,0.2,0.4,0.4
			c-0.9,1.2-2.3,1.6-3.7,1.9c-1.9,0.3-3.8,0.6-5.7,0.5c-9.9-0.3-19-3.3-26.9-9.4c-0.8-0.6-1.4-1.3-2.1-1.9c-1.6-1.6-2.4-3.4-2.3-5.8
			c0.2-4.1,0.2-8.3,0-12.5c-0.4-6.1,3.9-8.4,7.9-9.1c3-0.5,6.1-0.2,9,0.6C18.4,85.1,18.7,85.8,18.4,88.4z"/>
		<path class="st0" d="M34.3,109.9c-2.5,2.6-3.3,2.8-5.9,1.1c-2.6-1.6-5.1-3.3-7.5-5.1c-2.5-1.9-5.1-3.5-8.2-4.3
			c-1.2-0.3-2.5-0.7-3-2.4c2-1.7,4.3-3.2,7.2-4c0.2,0.6,0.4,1,0.4,1.3c-0.3,2.2,0.9,3.7,2.6,4.7c3.8,2.4,7.7,4.8,11.6,7.1
			C32.2,108.9,33.2,109.3,34.3,109.9z"/>
	</g>
</g>
</svg>
