<?xml version="1.0" encoding="utf-8"?>
<!-- Generator: Adobe Illustrator 23.1.0, SVG Export Plug-In . SVG Version: 6.00 Build 0)  -->
<svg version="1.1" id="Layer_1" xmlns="http://www.w3.org/2000/svg" xmlns:xlink="http://www.w3.org/1999/xlink" x="0px" y="0px"
	 viewBox="0 0 278.9 64" style="enable-background:new 0 0 278.9 64;" xml:space="preserve">
<style type="text/css">
	.st0{fill:#002939;}
	.st1{fill:#58595B;}
	.st2{fill:url(#SVGID_1_);}
	.st3{fill:#FFFFFF;}
	.st4{opacity:0.6;fill:#0079C1;}
	.st5{opacity:0.7;}
	.st6{fill:#C7D8EF;}
	.st7{opacity:0.8;}
</style>
<g>
	<g>
		<path class="st0" d="M75.5,28.4c0-5.2,0-6.1-0.1-7.2c-0.1-1.1-0.3-1.7-1.4-1.9c-0.3-0.1-0.8-0.1-1.1-0.1c-0.1,0-0.3-0.1-0.3-0.2
			c0-0.2,0.2-0.3,0.5-0.3c0.8,0,1.7,0,2.4,0l1.4,0.1c0.7,0,7.4,0,8.2,0c0.6,0,1.2,0,1.5-0.1c0.2-0.1,0.3-0.2,0.5-0.2
			c0.1,0,0.2,0.1,0.2,0.3c0,0.2-0.2,0.6-0.3,1.6c0,0.3-0.1,1.8-0.2,2.2c0,0.2-0.1,0.4-0.3,0.4c-0.2,0-0.2-0.2-0.2-0.4
			c0-0.3-0.1-0.8-0.3-1.3c-0.2-0.4-1-1-2.3-1.1l-5.1-0.1c-0.2,0-0.3,0.1-0.3,0.4v9.1c0,0.2,0,0.3,0.2,0.3l4.2,0c0.6,0,1,0,1.5,0
			c0.8-0.1,1.2-0.2,1.5-0.6c0.1-0.2,0.2-0.3,0.4-0.3c0.1,0,0.2,0.1,0.2,0.3c0,0.2-0.2,0.8-0.3,1.9c-0.1,0.7-0.1,2-0.1,2.2
			c0,0.3,0,0.6-0.2,0.6c-0.2,0-0.2-0.1-0.2-0.3c0-0.3-0.1-0.8-0.2-1.2c-0.2-0.5-0.7-1.1-1.7-1.2c-0.8-0.1-4.4-0.1-5-0.1
			c-0.2,0-0.2,0.1-0.2,0.3v2.8c0,3.2,0,5.8,0.2,7.2c0.1,1,0.3,1.7,1.3,1.8c0.5,0.1,1.2,0.1,1.5,0.1c0.2,0,0.3,0.1,0.3,0.2
			c0,0.2-0.2,0.3-0.5,0.3c-1.8,0-3.9-0.1-4.1-0.1c-0.2,0-2.3,0.1-3.2,0.1c-0.4,0-0.5-0.1-0.5-0.3c0-0.1,0.1-0.2,0.3-0.2
			c0.3,0,0.7-0.1,1-0.1c0.7-0.1,0.8-0.9,1-1.8c0.2-1.4,0.2-4,0.2-7.2V28.4z"/>
		<path class="st0" d="M94,35.4c0,2.8,0,5.1,0.1,6.3c0.1,0.9,0.2,1.4,1.1,1.5c0.4,0.1,1.1,0.1,1.4,0.1c0.2,0,0.2,0.1,0.2,0.2
			c0,0.1-0.1,0.2-0.5,0.2c-1.7,0-3.6-0.1-3.8-0.1c-0.2,0-2.1,0.1-3,0.1c-0.3,0-0.5-0.1-0.5-0.2c0-0.1,0.1-0.2,0.2-0.2
			c0.3,0,0.6-0.1,0.9-0.1c0.6-0.1,0.7-0.7,0.8-1.5c0.1-1.2,0.2-3.5,0.2-6.3v-5.1c0-4.5,0-5.3-0.1-6.3c-0.1-1-0.3-1.4-1-1.6
			c-0.3-0.1-0.7-0.1-0.9-0.1c-0.1,0-0.2-0.1-0.2-0.2c0-0.2,0.1-0.2,0.5-0.2c1,0,2.9,0.1,3,0.1c0.1,0,2.1-0.1,3-0.1
			c0.3,0,0.5,0.1,0.5,0.2c0,0.1-0.1,0.2-0.2,0.2c-0.2,0-0.4,0-0.8,0.1c-0.8,0.2-1,0.6-1.1,1.6c0,0.9,0,1.7,0,6.3V35.4z"/>
		<path class="st0" d="M99.3,43.5c-0.4-0.2-0.4-0.3-0.4-1.1c0-1.4,0.1-2.6,0.2-3.1c0-0.3,0.1-0.5,0.2-0.5c0.2,0,0.3,0.1,0.3,0.3
			c0,0.2,0,0.6,0.1,1.1c0.5,2.1,2.7,2.9,4.8,2.9c3,0,4.5-1.7,4.5-3.9c0-2.1-1.1-3.1-3.8-5.1l-1.4-1c-3.2-2.4-4.3-4.2-4.3-6.2
			c0-3.4,2.7-5.5,6.7-5.5c1.2,0,2.4,0.2,3.1,0.3c0.6,0.1,0.8,0.1,1.1,0.1c0.2,0,0.3,0,0.3,0.2c0,0.1-0.1,1.1-0.1,3.1
			c0,0.4,0,0.7-0.2,0.7c-0.2,0-0.2-0.1-0.3-0.4c0-0.3-0.3-1.1-0.4-1.4c-0.2-0.3-1.2-1.4-3.9-1.4c-2.2,0-4,1.1-4,3.1
			c0,1.8,0.9,2.9,3.9,4.9l0.9,0.6c3.7,2.5,4.9,4.5,4.9,7c0,1.7-0.7,3.6-2.8,5c-1.3,0.8-3.1,1-4.8,1C102.2,44.3,100.5,44.1,99.3,43.5
			z"/>
		<path class="st0" d="M134,35.4c0,2.8,0,5.1,0.2,6.3c0.1,0.9,0.2,1.4,1.1,1.5c0.4,0.1,1.1,0.1,1.3,0.1c0.2,0,0.3,0.1,0.3,0.2
			c0,0.1-0.2,0.2-0.5,0.2c-1.6,0-3.6-0.1-3.7-0.1c-0.1,0-2.1,0.1-3,0.1c-0.3,0-0.5-0.1-0.5-0.2c0-0.1,0.1-0.2,0.2-0.2
			c0.3,0,0.6-0.1,0.9-0.1c0.6-0.1,0.7-0.7,0.8-1.6c0.1-1.2,0.1-3.4,0.1-6.2v-2.9c0-0.1-0.1-0.2-0.2-0.2h-12.6c-0.1,0-0.2,0-0.2,0.2
			v2.9c0,2.8,0,5,0.1,6.2c0.1,0.9,0.2,1.4,1.1,1.5c0.4,0.1,1.1,0.1,1.4,0.1c0.2,0,0.2,0.1,0.2,0.2c0,0.1-0.1,0.2-0.5,0.2
			c-1.7,0-3.6-0.1-3.7-0.1c-0.2,0-2.1,0.1-3,0.1c-0.3,0-0.5-0.1-0.5-0.2c0-0.1,0.1-0.2,0.2-0.2c0.3,0,0.7-0.1,0.9-0.1
			c0.6-0.1,0.7-0.7,0.8-1.5c0.2-1.2,0.2-3.5,0.2-6.3v-5.1c0-4.5,0-5.3-0.1-6.3c-0.1-1-0.2-1.5-1.2-1.6c-0.2,0-0.8-0.1-1-0.1
			c-0.1,0-0.2-0.1-0.2-0.2c0-0.2,0.1-0.2,0.5-0.2c1.4,0,3.3,0.1,3.5,0.1c0.1,0,2.1-0.1,3-0.1c0.3,0,0.5,0.1,0.5,0.2
			c0,0.1-0.1,0.2-0.2,0.2c-0.2,0-0.4,0-0.8,0.1c-0.8,0.2-1,0.6-1.1,1.6c0,0.9,0,1.8,0,6.3V31c0,0.2,0.1,0.2,0.2,0.2h12.6
			c0.1,0,0.2,0,0.2-0.2v-0.6c0-4.5,0-5.4-0.1-6.3c-0.1-1-0.2-1.5-1.2-1.6c-0.2,0-0.8-0.1-1-0.1c-0.1,0-0.2-0.1-0.2-0.2
			c0-0.2,0.1-0.2,0.5-0.2c1.3,0,3.3,0.1,3.4,0.1c0.2,0,2.1-0.1,3-0.1c0.3,0,0.5,0.1,0.5,0.2c0,0.1-0.1,0.2-0.3,0.2
			c-0.2,0-0.4,0-0.8,0.1c-0.8,0.2-1,0.6-1,1.6c-0.1,0.9-0.1,1.7-0.1,6.3V35.4z"/>
		<path class="st0" d="M140.5,30.3c0-4.5,0-5.3-0.1-6.3c-0.1-1-0.2-1.5-1.2-1.6c-0.2,0-0.8-0.1-1-0.1c-0.1,0-0.2-0.1-0.2-0.2
			c0-0.2,0.1-0.2,0.5-0.2c1.4,0,3.3,0.1,3.5,0.1c0.2,0,6.5,0,7.2,0c0.6,0,1.1-0.1,1.4-0.2c0.1,0,0.3-0.1,0.4-0.1
			c0.1,0,0.1,0.1,0.1,0.3c0,0.2-0.2,0.5-0.2,1.4c0,0.3-0.1,1.6-0.2,1.9c0,0.1-0.1,0.3-0.3,0.3c-0.2,0-0.2-0.1-0.2-0.4
			c0-0.2,0-0.7-0.2-1c-0.2-0.5-0.5-0.7-2.2-0.9c-0.5-0.1-4-0.1-4.3-0.1c-0.1,0-0.2,0.1-0.2,0.3v7.9c0,0.2,0,0.3,0.2,0.3
			c0.4,0,4.3,0,5-0.1c0.7-0.1,1.2-0.1,1.5-0.4c0.2-0.2,0.3-0.4,0.4-0.4c0.1,0,0.2,0.1,0.2,0.2c0,0.2-0.2,0.7-0.2,1.6
			c-0.1,0.6-0.1,1.7-0.1,1.9c0,0.2-0.1,0.5-0.3,0.5c-0.1,0-0.2-0.1-0.2-0.3c0-0.3,0-0.6-0.1-1c-0.1-0.4-0.4-0.8-1.5-0.9
			c-0.8-0.1-4-0.1-4.5-0.1c-0.2,0-0.2,0.1-0.2,0.2v2.4c0,1,0,4.4,0,5c0.1,2,0.6,2.3,3.6,2.3c0.8,0,2.2,0,3-0.3
			c0.8-0.3,1.2-0.9,1.4-2c0.1-0.3,0.1-0.4,0.3-0.4c0.2,0,0.2,0.2,0.2,0.4c0,0.2-0.2,2.2-0.4,2.8c-0.2,0.8-0.5,0.8-1.7,0.8
			c-2.3,0-4-0.1-5.2-0.1c-1.3-0.1-2.1-0.1-2.5-0.1c-0.1,0-0.7,0-1.3,0c-0.6,0-1.3,0.1-1.7,0.1c-0.3,0-0.5-0.1-0.5-0.2
			c0-0.1,0.1-0.2,0.2-0.2c0.3,0,0.6-0.1,0.9-0.1c0.6-0.1,0.7-0.7,0.8-1.5c0.2-1.2,0.2-3.5,0.2-6.3V30.3z"/>
		<path class="st0" d="M156.6,30.3c0-4.5,0-5.3-0.1-6.3c-0.1-1-0.2-1.5-1.2-1.6c-0.2,0-0.8-0.1-1-0.1c-0.1,0-0.2-0.1-0.2-0.2
			c0-0.2,0.1-0.2,0.5-0.2c1.4,0,3.4,0.1,3.6,0.1c0.3,0,2.8-0.1,3.8-0.1c1.9,0,4,0.2,5.6,1.3c0.8,0.5,2.1,1.9,2.1,4
			c0,2.2-0.9,4.2-3.7,6.6c2.5,3.1,4.5,5.7,6.3,7.5c1.6,1.6,2.6,1.9,3.4,2c0.6,0.1,0.9,0.1,1.1,0.1s0.3,0.1,0.3,0.2
			c0,0.2-0.2,0.2-0.7,0.2h-1.9c-1.7,0-2.5-0.2-3.2-0.6c-1.3-0.7-2.4-2.1-4.1-4.3c-1.3-1.6-2.6-3.5-3.3-4.2c-0.1-0.1-0.2-0.2-0.4-0.2
			l-3.8-0.1c-0.1,0-0.2,0.1-0.2,0.2v0.7c0,2.8,0,5.1,0.1,6.3c0.1,0.9,0.3,1.4,1.2,1.5c0.4,0.1,1.1,0.1,1.3,0.1
			c0.2,0,0.2,0.1,0.2,0.2c0,0.1-0.1,0.2-0.5,0.2c-1.6,0-3.6-0.1-3.7-0.1c0,0-2.1,0.1-3,0.1c-0.3,0-0.5-0.1-0.5-0.2
			c0-0.1,0.1-0.2,0.2-0.2c0.3,0,0.6-0.1,0.9-0.1c0.6-0.1,0.6-0.7,0.8-1.5c0.2-1.2,0.2-3.5,0.2-6.3V30.3z M159.2,32.8
			c0,0.2,0.1,0.3,0.2,0.4c0.4,0.2,2,0.4,3.3,0.4c0.7,0,1.5,0,2.3-0.5c1-0.7,1.8-2.2,1.8-4.4c0-3.6-2-5.7-5.2-5.7
			c-0.9,0-1.8,0.1-2.2,0.2c-0.1,0.1-0.2,0.2-0.2,0.3V32.8z"/>
		<path class="st1" d="M184.3,45.8V16.6h0.6v29.2H184.3z"/>
		<path class="st0" d="M205.9,34.3c0,3.2,0,5.8,0.2,7.2c0.1,1,0.3,1.7,1.3,1.8c0.5,0.1,1.2,0.1,1.5,0.1c0.2,0,0.3,0.1,0.3,0.2
			c0,0.2-0.2,0.3-0.5,0.3c-1.8,0-3.9-0.1-4.1-0.1c-0.2,0-2.3,0.1-3.2,0.1c-0.4,0-0.5-0.1-0.5-0.3c0-0.1,0.1-0.2,0.3-0.2
			c0.3,0,0.7-0.1,1-0.1c0.7-0.1,0.8-0.9,1-1.8c0.2-1.4,0.2-4,0.2-7.2v-14l-4.9,0.1c-2.1,0-2.8,0.3-3.4,1.1c-0.4,0.6-0.5,0.8-0.6,1
			c-0.1,0.3-0.2,0.3-0.3,0.3c-0.1,0-0.2-0.1-0.2-0.3c0-0.3,0.7-3.2,0.7-3.4c0.1-0.2,0.2-0.6,0.3-0.6c0.2,0,0.6,0.3,1.5,0.4
			c1,0.1,2.2,0.2,2.6,0.2h12.4c1.1,0,1.8-0.1,2.4-0.2c0.5-0.1,0.8-0.2,0.9-0.2c0.2,0,0.2,0.2,0.2,0.4c0,1-0.1,3.3-0.1,3.6
			c0,0.3-0.1,0.4-0.2,0.4c-0.2,0-0.2-0.1-0.3-0.6l0-0.4c-0.1-1-0.9-1.8-4.1-1.8l-4.2-0.1V34.3z"/>
		<path class="st0" d="M221.2,35.4c0,2.8,0,5.1,0.1,6.3c0.1,0.9,0.2,1.4,1.1,1.5c0.4,0.1,1.1,0.1,1.4,0.1c0.2,0,0.2,0.1,0.2,0.2
			c0,0.1-0.1,0.2-0.5,0.2c-1.7,0-3.6-0.1-3.8-0.1c-0.2,0-2.1,0.1-3,0.1c-0.3,0-0.5-0.1-0.5-0.2c0-0.1,0.1-0.2,0.2-0.2
			c0.3,0,0.7-0.1,0.9-0.1c0.6-0.1,0.7-0.7,0.8-1.5c0.1-1.2,0.2-3.5,0.2-6.3v-5.1c0-4.5,0-5.3-0.1-6.3c-0.1-1-0.3-1.4-1-1.6
			c-0.3-0.1-0.7-0.1-0.9-0.1c-0.1,0-0.2-0.1-0.2-0.2c0-0.2,0.1-0.2,0.5-0.2c1,0,2.9,0.1,3,0.1c0.1,0,2.1-0.1,3-0.1
			c0.3,0,0.5,0.1,0.5,0.2c0,0.1-0.1,0.2-0.2,0.2c-0.2,0-0.4,0-0.8,0.1c-0.8,0.2-1,0.6-1.1,1.6c0,0.9,0,1.7,0,6.3V35.4z"/>
		<path class="st0" d="M235.6,35.4c0,2.8,0,5.1,0.1,6.3c0.1,0.9,0.2,1.4,1.2,1.5c0.4,0.1,1.1,0.1,1.4,0.1c0.2,0,0.2,0.1,0.2,0.2
			c0,0.1-0.1,0.2-0.5,0.2c-1.6,0-3.6-0.1-3.7-0.1c-0.1,0-2.2,0.1-3.1,0.1c-0.3,0-0.5-0.1-0.5-0.2c0-0.1,0.1-0.2,0.2-0.2
			c0.3,0,0.6-0.1,0.9-0.1c0.6-0.1,0.8-0.7,0.9-1.6c0.1-1.2,0.1-3.5,0.1-6.3V23.2l-4.3,0.1c-1.9,0-2.6,0.2-3,0.9
			c-0.3,0.5-0.4,0.7-0.5,0.9c-0.1,0.2-0.2,0.3-0.3,0.3c-0.1,0-0.2-0.1-0.2-0.2c0-0.3,0.6-2.9,0.6-3.1c0.1-0.2,0.2-0.5,0.3-0.5
			c0.2,0,0.5,0.2,1.3,0.3c0.9,0.1,2,0.1,2.4,0.1h11.4c1,0,1.7-0.1,2.2-0.1c0.4-0.1,0.7-0.1,0.9-0.1c0.1,0,0.1,0.2,0.1,0.3
			c0,0.9-0.1,3-0.1,3.3c0,0.2-0.1,0.4-0.3,0.4c-0.1,0-0.2-0.1-0.2-0.5l0-0.3c-0.1-0.9-0.8-1.5-3.6-1.6l-3.8-0.1V35.4z"/>
		<path class="st0" d="M245.6,30.3c0-4.5,0-5.3-0.1-6.3c-0.1-0.9-0.2-1.5-1.2-1.6c-0.2,0-0.8-0.1-1-0.1c-0.1,0-0.2-0.1-0.2-0.2
			c0-0.2,0.1-0.2,0.5-0.2c1.4,0,3.2,0.1,3.5,0.1c0.3,0,2.2-0.1,3-0.1c0.3,0,0.5,0.1,0.5,0.2c0,0.1-0.1,0.2-0.3,0.2
			c-0.2,0-0.4,0-0.8,0.1c-0.8,0.1-1,0.6-1,1.6c-0.1,0.9-0.1,1.7-0.1,6.3v4.1c0,4.2,0.9,6,2.2,7.1c1.5,1.3,2.8,1.6,4.5,1.6
			c1.8,0,3.6-0.8,4.7-2.1c1.4-1.7,1.7-4.1,1.7-7v-3.7c0-4.5,0-5.3-0.1-6.3c0-0.9-0.2-1.5-1.2-1.6c-0.2,0-0.8-0.1-1-0.1
			c-0.1,0-0.2-0.1-0.2-0.2c0-0.2,0.1-0.2,0.5-0.2c1.3,0,3.1,0.1,3.3,0.1c0.2,0,1.6-0.1,2.5-0.1c0.3,0,0.5,0.1,0.5,0.2
			c0,0.1-0.1,0.2-0.2,0.2c-0.2,0-0.4,0-0.8,0.1c-0.8,0.2-1,0.6-1.1,1.6c-0.1,0.9,0,1.7,0,6.3v3.1c0,3.1-0.4,6.7-2.8,8.7
			c-2.2,1.9-4.5,2.1-6.3,2.1c-1,0-4.1-0.1-6.3-2.1c-1.5-1.4-2.6-3.4-2.6-7.6V30.3z"/>
		<path class="st0" d="M266.9,43.5c-0.4-0.2-0.4-0.3-0.4-1.1c0-1.4,0.1-2.6,0.2-3.1c0-0.3,0.1-0.5,0.2-0.5c0.2,0,0.3,0.1,0.3,0.3
			c0,0.2,0,0.6,0.1,1.1c0.5,2.1,2.7,2.9,4.8,2.9c3,0,4.5-1.7,4.5-3.9c0-2.1-1.1-3.1-3.8-5.1l-1.4-1c-3.2-2.4-4.3-4.2-4.3-6.2
			c0-3.4,2.7-5.5,6.7-5.5c1.2,0,2.4,0.2,3.1,0.3c0.6,0.1,0.8,0.1,1.1,0.1c0.2,0,0.3,0,0.3,0.2c0,0.1-0.1,1.1-0.1,3.1
			c0,0.4,0,0.7-0.2,0.7c-0.2,0-0.2-0.1-0.3-0.4c0-0.3-0.3-1.1-0.4-1.4c-0.2-0.3-1.2-1.4-3.9-1.4c-2.2,0-4,1.1-4,3.1
			c0,1.8,0.9,2.9,3.9,4.9l0.9,0.6c3.7,2.5,4.9,4.5,4.9,7c0,1.7-0.6,3.6-2.8,5c-1.3,0.8-3.1,1-4.8,1
			C269.9,44.3,268.2,44.1,266.9,43.5z"/>
	</g>
	<g>
		<g>
			<radialGradient id="SVGID_1_" cx="31.9797" cy="31.9799" r="32.479" gradientUnits="userSpaceOnUse">
				<stop  offset="0.1043" style="stop-color:#FFFFFF"/>
				<stop  offset="0.3252" style="stop-color:#7BACDC"/>
				<stop  offset="0.7975" style="stop-color:#0079C1"/>
			</radialGradient>
			<path class="st2" d="M32,64.5c-1.3,0-2.5-0.5-3.4-1.4L0.9,35.4c-1.9-1.9-1.9-4.9,0-6.8L28.6,0.9C29.5,0,30.7-0.5,32-0.5
				c1.3,0,2.5,0.5,3.4,1.4l27.7,27.7c1.9,1.9,1.9,4.9,0,6.8L35.4,63.1C34.5,64,33.3,64.5,32,64.5z"/>
			<path class="st3" d="M32,0c1.1,0,2.2,0.4,3,1.3L62.7,29c1.7,1.7,1.7,4.4,0,6L35,62.7c-0.8,0.8-1.9,1.3-3,1.3
				c-1.1,0-2.2-0.4-3-1.3L1.3,35c-1.7-1.7-1.7-4.4,0-6L29,1.3C29.8,0.4,30.9,0,32,0 M32-1c-1.4,0-2.7,0.5-3.7,1.5L0.5,28.2
				c-2.1,2.1-2.1,5.4,0,7.5l27.7,27.7c1,1,2.3,1.5,3.7,1.5c1.4,0,2.7-0.5,3.7-1.5l27.7-27.7c2.1-2.1,2.1-5.4,0-7.5L35.7,0.5
				C34.7-0.5,33.4-1,32-1L32-1z"/>
		</g>
		<path class="st4" d="M59.6,28.9c1.5,1.5,1.5,4,0,5.5L34.8,59.2c-1.5,1.5-4,1.5-5.5,0L4.5,34.5c-1.5-1.5-1.5-4,0-5.5L29.3,4.1
			c1.5-1.5,4-1.5,5.5,0L59.6,28.9z"/>
		<g class="st5">
			<path class="st6" d="M32,4.3L32,4.3c0.9,0,1.8,0.4,2.4,1l23.9,23.9c1.3,1.4,1.3,3.5,0,4.9L34.5,58c-0.7,0.7-1.5,1-2.4,1
				c-0.9,0-1.8-0.4-2.4-1L5.7,34.1c-0.7-0.7-1-1.5-1-2.4c0-0.9,0.4-1.8,1-2.4L29.6,5.4C30.2,4.7,31.1,4.3,32,4.3 M32,4
				c-1,0-1.9,0.4-2.7,1.1L5.5,29c-1.5,1.5-1.5,3.9,0,5.3l23.9,23.9c0.7,0.7,1.7,1.1,2.7,1.1c1,0,1.9-0.4,2.7-1.1l23.9-23.9
				c1.5-1.5,1.5-3.9,0-5.3L34.7,5.1C34,4.4,33,4,32,4L32,4z"/>
		</g>
		<path class="st6" d="M36.1,31.4c0,2.3-1.8,4.1-4.1,4.1c-2.3,0-4.1-1.8-4.1-4.1c0-2.3,1.8-4.1,4.1-4.1
			C34.3,27.3,36.1,29.2,36.1,31.4z"/>
		<g class="st7">
			<path class="st6" d="M35.4,21.9c0,1.8-1.5,3.3-3.3,3.3c-1.8,0-3.3-1.5-3.3-3.3c0-1.8,1.5-3.3,3.3-3.3
				C33.9,18.6,35.4,20.1,35.4,21.9z"/>
			<path class="st3" d="M26.5,23.2c0,1.5-1.2,2.8-2.8,2.8c-1.5,0-2.8-1.2-2.8-2.8c0-1.5,1.2-2.8,2.8-2.8
				C25.2,20.5,26.5,21.7,26.5,23.2z"/>
			<path class="st3" d="M43,23.2c0,1.5-1.2,2.8-2.8,2.8c-1.5,0-2.8-1.2-2.8-2.8c0-1.5,1.2-2.8,2.8-2.8C41.7,20.5,43,21.7,43,23.2z"
				/>
			<path class="st3" d="M37.4,39.6c0-1.5,1.2-2.8,2.8-2.8c1.5,0,2.8,1.2,2.8,2.8c0,1.5-1.2,2.8-2.8,2.8
				C38.7,42.4,37.4,41.1,37.4,39.6z"/>
			<path class="st3" d="M20.9,39.6c0-1.5,1.2-2.8,2.8-2.8c1.5,0,2.8,1.2,2.8,2.8c0,1.5-1.2,2.8-2.8,2.8
				C22.1,42.4,20.9,41.1,20.9,39.6z"/>
			<path class="st6" d="M34.4,14.1c0,1.3-1.1,2.4-2.4,2.4c-1.3,0-2.4-1.1-2.4-2.4c0-1.3,1.1-2.4,2.4-2.4
				C33.4,11.7,34.4,12.8,34.4,14.1z"/>
			<path class="st6" d="M28.7,40.9c0-1.8,1.5-3.3,3.3-3.3c1.8,0,3.3,1.5,3.3,3.3c0,1.8-1.5,3.3-3.3,3.3
				C30.2,44.2,28.7,42.7,28.7,40.9z"/>
			<path class="st6" d="M29.6,48.7c0-1.3,1.1-2.4,2.4-2.4c1.3,0,2.4,1.1,2.4,2.4c0,1.3-1.1,2.4-2.4,2.4C30.7,51.1,29.6,50,29.6,48.7
				z"/>
			<path class="st3" d="M32,27.3c2.3,0,4.1,1.8,4.1,4.1c0,2.3-1.8,4.1-4.1,4.1c-2.3,0-4.1-1.8-4.1-4.1C27.9,29.2,29.8,27.3,32,27.3z
				"/>
			<path class="st6" d="M22.6,28.1c1.8,0,3.3,1.5,3.3,3.3c0,1.8-1.5,3.3-3.3,3.3c-1.8,0-3.3-1.5-3.3-3.3
				C19.2,29.6,20.7,28.1,22.6,28.1z"/>
			<path class="st6" d="M14.8,29c1.3,0,2.4,1.1,2.4,2.4c0,1.3-1.1,2.4-2.4,2.4c-1.3,0-2.4-1.1-2.4-2.4C12.3,30.1,13.4,29,14.8,29z"
				/>
			<path class="st6" d="M41.5,34.8c-1.8,0-3.3-1.5-3.3-3.3c0-1.8,1.5-3.3,3.3-3.3c1.8,0,3.3,1.5,3.3,3.3
				C44.8,33.3,43.3,34.8,41.5,34.8z"/>
			<path class="st6" d="M49.3,33.8c-1.3,0-2.4-1.1-2.4-2.4c0-1.3,1.1-2.4,2.4-2.4c1.3,0,2.4,1.1,2.4,2.4
				C51.7,32.7,50.6,33.8,49.3,33.8z"/>
		</g>
	</g>
</g>
</svg>
