<?xml version="1.0" encoding="UTF-8"?>
<svg width="222px" height="98px" viewBox="0 0 222 98" version="1.1" xmlns="http://www.w3.org/2000/svg" xmlns:xlink="http://www.w3.org/1999/xlink">
    <title>Group 41</title>
    <defs>
        <polygon id="path-1" points="0 0.527093016 87.5042212 0.527093016 87.5042212 48.085015 0 48.085015"></polygon>
        <polygon id="path-3" points="0.118420469 0.280259794 18.5547805 0.280259794 18.5547805 22.6015963 0.118420469 22.6015963"></polygon>
        <polygon id="path-5" points="0 97.0167572 221.059671 97.0167572 221.059671 0.594778849 0 0.594778849"></polygon>
    </defs>
    <g id="Page-1" stroke="none" stroke-width="1" fill="none" fill-rule="evenodd">
        <g id="Fogg-Remington-EyeCare---home-page" transform="translate(-120.000000, -6.000000)">
            <g id="Group-41" transform="translate(120.000000, 6.000000)">
                <path d="M67.4153276,29.9008413 C67.4153276,29.9008413 59.5707894,21.2985548 52.9354365,19.2352669 C56.295937,22.0408388 58.4359513,26.1787152 58.4359513,30.8060947 C58.4359513,36.7164121 54.9570899,41.8368632 49.8687568,44.3783532 C56.6932493,43.0377217 65.2307049,39.3958908 74.6870938,30.9839336 C74.6870938,30.9839336 62.0081931,50.0876354 41.8523275,50.0876354 C32.3412189,50.0876354 21.1486705,43.4195697 21.1486705,43.4195697 C21.1486705,43.4195697 14.2498306,38.3722764 8.08732697,43.058539 C4.73872205,45.6065716 1.4977721,48.3247109 0.00011895577,49.6005115 L0.00011895577,49.6587999 C0.00011895577,55.5506791 4.94570509,60.3321063 11.0505152,60.3321063 L87.5093363,60.3321063 L87.5093363,12.7218438 L67.4153276,29.9008413" id="Fill-1" fill="#002D59"></path>
                <g id="Group-5" transform="translate(0.000000, 0.067805)">
                    <mask id="mask-2" fill="white">
                        <use xlink:href="#path-1"></use>
                    </mask>
                    <g id="Clip-4"></g>
                    <path d="M18.9071869,31.8160292 C18.9071869,31.8160292 26.6476389,41.4615578 33.3704242,43.2613586 C33.3704242,43.2613586 33.5197137,43.3333268 33.7962859,43.4421713 C29.5632448,40.7014304 26.7725424,36.0353903 26.7725424,30.7382899 C26.7725424,25.2365855 29.7856921,20.4289881 34.3012531,17.7376138 C28.139939,19.2465677 20.7010399,22.7991818 12.3818682,30.1940672 C12.3818682,30.1940672 23.7623667,9.47494603 43.5363843,9.47494603 C57.7153173,9.47494603 68.3481788,19.5635849 68.3481788,19.5635849 C68.3481788,19.5635849 73.1974107,22.9889163 77.4899297,19.2037437 C80.8450772,16.2447189 85.5878437,12.586829 87.5042212,11.1308103 C87.464371,5.26748045 82.5384126,0.527093016 76.4520406,0.527093016 L-0.00023791154,0.527093016 L-0.00023791154,48.085015 L18.9071869,31.8160292" id="Fill-3" fill="#002D59" mask="url(#mask-2)"></path>
                </g>
                <path d="M9.32886834,86.4211289 L12.3146582,86.474659 C12.8386583,86.474659 13.3305404,86.5020188 13.7278527,86.5020188 C15.8488341,86.5020188 16.5893338,86.2040346 17.871677,84.2287741 L18.331441,84.4732282 C18.2386555,84.7474212 17.7878131,86.2040346 16.8885075,87.3668273 C16.1265958,87.3156763 15.4152403,87.2556036 12.0660406,87.2556036 C10.564224,87.2556036 6.04985254,87.2556036 4.07816066,87.3965662 L3.98834905,86.7702641 C6.41861543,86.5817192 6.47630898,86.5561437 6.74990725,86.3955534 C7.27569175,86.0404704 7.5189563,85.1774463 7.82407785,83.9605288 L10.4684646,74.0015517 C10.5927734,73.5745005 10.8396066,72.4313356 10.8396066,72.053651 C10.8396066,71.5439255 10.4119606,71.4588722 9.70298424,71.3761979 C9.08738813,71.322073 8.47476591,71.322073 7.15138297,71.3524068 L7.27569175,70.7510853 L19.9308013,70.7510853 C19.9308013,71.6759664 19.6572031,72.9178647 19.5334891,73.3288569 L19.0755093,73.3288569 C18.8893436,71.8918712 18.7917998,71.7586407 18.5503196,71.620652 C18.1839358,71.4059368 16.3692656,71.4059368 15.8125526,71.4059368 C15.3593311,71.4059368 15.1428316,71.4059368 13.3864497,71.4856372 C13.0503996,72.2457646 12.4080384,74.5963306 12.3146582,74.8949096 L11.605087,77.6546834 C12.5579227,77.6546834 15.3872857,77.6546834 15.8125526,77.4120137 C16.1265958,77.2216844 16.5893338,76.0832777 16.650596,75.9482629 L17.3560037,75.9482629 C17.1960082,76.3556864 16.6726028,77.8973532 16.1527661,80.0088181 L15.5401439,80.0088181 C15.5752358,79.8999736 15.693002,79.0607406 15.693002,78.8704114 C15.693002,78.3303522 15.2956898,78.3303522 13.3864497,78.2994237 L11.4498497,78.2738482 L9.32886834,86.4211289" id="Fill-6" fill="#1D1D1B"></path>
                <path d="M30.4612419,81.0070949 C33.6956493,79.6747903 37.2887083,77.4990893 37.2887083,75.4358015 C37.2887083,73.734734 34.8168074,73.734734 34.5675951,73.734734 C33.3958807,73.734734 31.9303457,75.0295675 31.1345316,75.8402511 C29.1217999,78.0552075 27.6140356,82.6284621 27.6140356,84.8386603 C27.6140356,87.1297484 29.0010598,87.5330085 29.5821588,87.5330085 C30.7550627,87.5330085 33.7301465,85.8349149 35.823768,84.285516 L35.4496521,83.8447848 C33.5207843,85.0991734 32.0534649,85.7272599 31.2160163,85.7272599 C30.504066,85.7272599 29.8759795,85.3228103 29.8759795,84.3979292 C29.8759795,84.1421743 29.9610329,83.327922 30.1293553,82.4411068 L30.4612419,81.0070949 M35.3634092,76.3559243 C35.3634092,77.9427943 32.0112356,79.4547221 30.7092647,80.0465271 C31.3819596,77.6459997 31.9737645,75.3620489 33.6058377,75.3620489 C35.1980607,75.3620489 35.3634092,75.910435 35.3634092,76.3559243" id="Fill-8" fill="#1D1D1B"></path>
                <path d="M52.1706699,83.7687126 C51.8940977,84.2284767 51.3350056,85.2853987 50.9668375,86.338752 C49.8617384,86.7699667 47.4338511,87.6900896 44.857864,87.6900896 C40.1585163,87.6900896 36.74627,84.7114371 36.74627,80.6354176 C36.74627,75.6499813 41.5401875,70.4873009 48.816712,70.4873009 C49.8343786,70.4873009 52.1706699,70.5372623 54.9940851,72.3471744 C54.8727502,72.7861212 54.5057717,74.112478 54.4760327,75.1117065 L53.7379122,75.1343081 L53.7379122,75.0040515 C53.7379122,71.2997688 49.5584012,71.1588062 48.816712,71.1588062 C43.9020543,71.1588062 39.1111107,75.6273797 39.1111107,80.6027048 C39.1111107,84.9059298 42.4918337,86.9620803 45.1356257,86.9620803 C46.0866771,86.9620803 47.7425414,86.6111607 49.2800447,85.6672467 C50.110356,85.1771489 50.6046172,84.555605 51.4902429,83.4748919 L52.1706699,83.7687126" id="Fill-10" fill="#1D1D1B"></path>
                <path d="M63.8797837,84.2136072 C63.3730321,84.6947833 62.039538,85.9146747 61.4447591,85.9146747 C61.1961416,85.9146747 61.1110882,85.6523772 61.1110882,85.4317143 C61.1110882,84.4729308 61.4108567,83.4029236 63.8797837,73.6646095 C63.2053045,73.7722645 59.9001184,74.1767141 59.1465336,74.3997562 C54.4091201,75.8028395 51.5256322,81.3729434 51.5256322,84.8791647 C51.5256322,85.9473875 51.5256322,87.533068 53.4461731,87.533068 C54.4091201,87.533068 56.5027417,85.3228698 57.6774299,84.0292258 L58.5600817,83.1780972 L59.6033238,82.0379062 L59.6919458,82.1098744 C59.5658527,82.5202718 58.9776164,84.8071965 58.9776164,85.8712559 C58.9776164,87.4236286 60.1112649,87.533068 60.2772082,87.533068 C61.1556966,87.533068 62.9572817,86.2037372 64.4210325,84.5437095 L63.8797837,84.2136072 M53.6983594,84.3605176 C53.6983594,82.998474 54.5786321,78.7547269 56.128031,77.127412 C57.5097022,75.6904263 59.3184247,75.5792026 61.4108567,75.4685738 C60.9052947,76.7241519 60.6923639,77.9428538 60.3592877,79.1621504 C59.9001184,80.967899 59.6033238,81.3729434 56.8845897,83.6985287 C56.3367984,84.17911 54.8272496,85.4709697 54.4091201,85.4709697 C53.7810336,85.4709697 53.6983594,84.6947833 53.6983594,84.3605176" id="Fill-12" fill="#1D1D1B"></path>
                <path d="M65.4291826,87.3455342 L66.4355484,83.4753082 C66.7662455,82.187612 67.7738008,78.2019989 67.7738008,77.244405 C67.7738008,76.7620393 67.6566294,76.6496261 67.3128472,76.574684 C66.6835712,76.8714786 65.6807741,77.6084096 64.9694186,78.2364961 C64.1712254,78.935956 64.0897407,79.0126825 63.7542854,79.2702217 C63.6293818,79.1625668 63.5020992,79.0905985 63.3319924,79.0126825 C64.3877249,77.7927911 67.2724023,74.8409037 68.994287,73.7720861 C69.5396993,74.2157911 69.8715858,74.770125 69.8715858,75.6498029 C69.8715858,76.1696396 69.7407345,77.3865571 69.0323529,80.0464081 L69.1156219,80.1201607 L69.8275722,78.7551433 C70.4984828,77.5756968 72.6777525,73.8470282 74.4323501,73.8470282 C74.5251356,73.8470282 76.1102212,73.8470282 76.1102212,75.2483272 C76.1102212,75.8026611 74.9777623,76.4664343 74.8933037,76.4664343 C74.6916736,76.4664343 73.7626291,76.0946975 73.5508878,76.0946975 C72.7604267,76.0946975 71.6666284,77.4585254 71.3751868,77.833236 C68.994287,80.78096 68.3608476,83.2546453 67.353887,87.3455342 L65.4291826,87.3455342" id="Fill-14" fill="#1D1D1B"></path>
                <path d="M76.6948293,81.0070949 C79.9197203,79.6747903 83.5228905,77.4990893 83.5228905,75.4358015 C83.5228905,73.734734 81.0557479,73.734734 80.7964243,73.734734 C79.6312525,73.734734 78.1663122,75.0295675 77.3693085,75.8402511 C75.3559821,78.0552075 73.8500021,82.6284621 73.8500021,84.8386603 C73.8500021,87.1297484 75.2292942,87.5330085 75.8181253,87.5330085 C76.9886501,87.5330085 79.9613548,85.8349149 82.0579502,84.285516 L81.6802656,83.8447848 C79.75913,85.0991734 78.2864575,85.7272599 77.4490089,85.7272599 C76.7406273,85.7272599 76.1107565,85.3228103 76.1107565,84.3979292 C76.1107565,84.1421743 76.1898621,83.327922 76.3534263,82.4411068 L76.6948293,81.0070949 M81.5981862,76.3559243 C81.5981862,77.9427943 78.2454178,79.4547221 76.9482051,80.0465271 C77.6179261,77.6459997 78.2031885,75.3620489 79.8435886,75.3620489 C81.4251055,75.3620489 81.5981862,75.910435 81.5981862,76.3559243" id="Fill-16" fill="#1D1D1B"></path>
                <g id="Group-20" transform="translate(10.111240, 74.415161)">
                    <mask id="mask-4" fill="white">
                        <use xlink:href="#path-3"></use>
                    </mask>
                    <g id="Clip-19"></g>
                    <path d="M16.7888821,0.280259794 C17.0137085,0.485458497 17.2093907,0.869090855 17.2093907,1.60780619 C17.2093907,4.40980934 15.1585932,9.69085075 13.561612,12.1585882 L13.4813169,12.1585882 C13.1702475,7.14460249 11.5215206,2.51900738 10.2522625,0.500327968 L8.39893161,1.50728856 L8.39893161,1.8463125 C9.6842487,2.91929355 11.8034457,9.6414841 11.8034457,12.4553828 C11.8034457,16.4023353 5.86041548,21.0118714 3.55564744,21.0118714 C2.46125436,21.0118714 1.96342446,20.5711402 1.46202589,20.1310039 L0.118420469,21.386582 C0.957058646,22.6017152 2.16921794,22.6017152 2.54868685,22.6017152 C7.86957843,22.6017152 18.5547805,7.54964689 18.5547805,0.461667343 C18.5547805,0.404568573 18.545264,0.335574227 18.5375319,0.280259794 L16.7888821,0.280259794" id="Fill-18" fill="#1D1D1B" mask="url(#mask-4)"></path>
                </g>
                <path d="M109.027483,17.7302385 L109.027483,25.8043614 L108.573072,25.8043614 C108.330997,22.4634886 106.755428,22.5301039 104.212154,22.5301039 L100.911726,22.5301039 L100.911726,27.5244619 C100.911726,31.0669647 101.063989,31.7610716 105.27086,32.4557733 L105.27086,32.9518189 L94.4934674,32.9518189 L94.4934674,32.4557733 C98.1269714,31.9264201 98.1561156,30.9331394 98.2477115,27.5244619 L98.2477115,15.8775024 C98.1561156,12.4700144 98.1269714,11.4767337 94.4934674,10.9467858 L94.4934674,10.4507402 L110.512051,10.4507402 L110.027901,15.6800358 L109.571706,15.6800358 C109.389704,11.4107133 106.847024,11.2459595 103.667931,11.2459595 L100.911726,11.2459595 L100.911726,21.1401057 L104.212154,21.1401057 C106.755428,21.1401057 108.330997,20.8742395 108.573072,17.7302385 L109.027483,17.7302385 Z" id="Fill-21" fill="#1D1D1B"></path>
                <path d="M117.193797,18.7234597 C113.921324,18.7234597 112.591398,22.4301215 112.591398,25.4724153 C112.591398,28.5503959 114.165183,32.5544471 117.433493,32.5544471 C120.494225,32.5544471 121.855079,28.7484572 121.855079,25.9030352 C121.855079,22.8601466 120.494225,18.7234597 117.193797,18.7234597 M117.223536,33.283646 C113.074953,33.283646 109.774526,30.403132 109.774526,25.7049739 C109.774526,21.1400462 113.195694,17.9954504 117.25268,17.9954504 C121.369739,17.9954504 124.669572,20.9074877 124.669572,25.5735278 C124.669572,30.0736245 121.219855,33.283646 117.223536,33.283646" id="Fill-23" fill="#1D1D1B"></path>
                <path d="M133.72508,23.3893809 C133.72508,21.2392553 132.847187,18.7233408 130.577511,18.7233408 C128.607603,18.7233408 127.971785,20.9412711 127.971785,22.7267972 C127.971785,26.0040287 129.787644,27.4915706 131.152662,27.4915706 C133.179073,27.4915706 133.72508,25.2427118 133.72508,23.3893809 L133.72508,23.3893809 Z M129.637165,32.9522352 C128.546936,33.4815884 126.820887,34.8061609 126.820887,36.2615847 C126.820887,38.6763868 130.030909,39.3395653 131.727813,39.3395653 C133.908867,39.3395653 137.297917,38.3117874 137.297917,35.3670373 C137.297917,32.2575335 133.362265,32.7208662 132.603327,32.7523895 L129.637165,32.9522352 Z M134.087895,30.438105 C137.32944,30.3042798 139.115561,31.7942008 139.115561,34.0115363 C139.115561,37.2548654 135.088313,40.9609324 129.697833,40.9609324 C126.095257,40.9609324 124.611284,38.9749658 124.611284,37.5843729 C124.611284,35.1035503 126.942222,33.9455159 128.667676,32.9522352 C127.516779,32.7868867 125.580774,31.9589545 125.580774,30.438105 C125.580774,29.4121115 127.185487,28.1202518 127.881973,27.5248782 C126.426549,26.6327099 125.398771,25.1433837 125.398771,23.2912424 C125.398771,19.8813752 128.244193,17.9959263 131.091994,17.9959263 C132.574183,17.9959263 133.72508,18.3938333 135.058575,19.0540378 L139.387375,19.0540378 L139.387375,20.444036 L135.694988,20.3453027 C136.117876,21.1720453 136.297499,21.9333622 136.297499,22.9266429 C136.297499,26.3008233 133.512744,28.2213642 130.666728,28.2213642 C129.910169,28.2213642 129.122087,28.087539 128.396457,27.7901496 C127.396039,28.8149535 127.425183,30.7348997 130.212316,30.6028587 L134.087895,30.438105 Z" id="Fill-25" fill="#1D1D1B"></path>
                <path d="M147.804031,23.3893809 C147.804031,21.2392553 146.926732,18.7233408 144.654677,18.7233408 C142.686554,18.7233408 142.050735,20.9412711 142.050735,22.7267972 C142.050735,26.0040287 143.868379,27.4915706 145.231612,27.4915706 C147.260403,27.4915706 147.804031,25.2427118 147.804031,23.3893809 L147.804031,23.3893809 Z M143.716116,32.9522352 C142.626481,33.4815884 140.900433,34.8061609 140.900433,36.2615847 C140.900433,38.6763868 144.110454,39.3395653 145.805574,39.3395653 C147.986033,39.3395653 151.377462,38.3117874 151.377462,35.3670373 C151.377462,32.2575335 147.441811,32.7208662 146.684657,32.7523895 L143.716116,32.9522352 Z M148.166846,30.438105 C151.408986,30.3042798 153.193917,31.7942008 153.193917,34.0115363 C153.193917,37.2548654 149.167264,40.9609324 143.776783,40.9609324 C140.174803,40.9609324 138.690829,38.9749658 138.690829,37.5843729 C138.690829,35.1035503 141.021768,33.9455159 142.749006,32.9522352 C141.596324,32.7868867 139.660319,31.9589545 139.660319,30.438105 C139.660319,29.4121115 141.263248,28.1202518 141.959734,27.5248782 C140.507879,26.6327099 139.478317,25.1433837 139.478317,23.2912424 C139.478317,19.8813752 142.323739,17.9959263 145.169161,17.9959263 C146.653729,17.9959263 147.804031,18.3938333 149.136336,19.0540378 L153.467515,19.0540378 L153.467515,20.444036 L149.772154,20.3453027 C150.196826,21.1720453 150.377044,21.9333622 150.377044,22.9266429 C150.377044,26.3008233 147.59229,28.2213642 144.743894,28.2213642 C143.989714,28.2213642 143.201632,28.087539 142.476002,27.7901496 C141.475584,28.8149535 141.506513,30.7348997 144.291862,30.6028587 L148.166846,30.438105 Z" id="Fill-27" fill="#1D1D1B"></path>
                <mask id="mask-6" fill="white">
                    <use xlink:href="#path-5"></use>
                </mask>
                <g id="Clip-30"></g>
                <polygon id="Fill-29" fill="#002D59" mask="url(#mask-6)" points="180.636121 65.6415782 221.059671 65.6415782 221.059671 65.2282069 180.636121 65.2282069"></polygon>
                <polygon id="Fill-31" fill="#002D59" mask="url(#mask-6)" points="0.000594778849 65.6415782 169.766537 65.6415782 169.766537 65.2282069 0.000594778849 65.2282069"></polygon>
                <path d="M101.06393,49.0313677 C103.971804,48.9962757 107.363827,47.5420414 107.363827,43.8680925 C107.363827,39.9966769 104.243023,38.4425198 101.06393,38.4758274 L101.06393,49.0313677 Z M98.3999154,44.6633118 C98.3999154,39.6005542 98.2482468,38.8386425 94.8562231,38.5085403 L94.8562231,38.0446128 L102.245161,37.7793414 C109.877363,37.5158544 110.484037,41.5847365 110.484037,43.1733908 C110.484037,45.9533871 108.906684,47.5420414 106.726819,48.6007478 L106.879083,48.8321167 C109.210616,53.2989059 112.11849,58.9903447 117.114037,60.1168559 L117.022441,60.6117119 C113.814204,60.4463633 111.451743,60.5456914 109.694171,58.5609144 C107.695119,56.2763688 106.121334,53.3649264 105.484921,51.9434049 C104.272762,49.1961214 103.183127,49.9919355 101.06393,49.5940285 L101.06393,54.920273 C101.06393,58.5609144 101.125192,59.2229032 105.274964,59.8509897 L105.274964,60.34763 L94.6462661,60.34763 L94.6462661,59.8509897 C98.2791753,59.3216365 98.3083195,58.3283559 98.3999154,54.920273 L98.3999154,44.6633118 Z" id="Fill-32" fill="#1D1D1B" mask="url(#mask-6)"></path>
                <path d="M122.289505,49.3609941 C122.018286,47.8383602 121.170132,46.1200441 119.564823,46.1200441 C117.83937,46.1200441 116.809213,47.9727803 116.477921,49.6268602 L122.289505,49.3609941 Z M116.26499,51.9102162 C116.025294,55.3510119 118.173636,58.5610333 121.595398,58.5610333 C123.169183,58.5610333 124.259413,57.7991216 125.166451,56.4757387 L125.622646,56.8409329 C124.471749,58.9898689 122.411435,60.6790408 120.048379,60.6790408 C116.295324,60.6790408 113.692572,57.3024813 113.692572,53.3317377 C113.692572,49.0641995 116.417254,45.3908453 120.504574,45.3908453 C123.229851,45.3908453 125.0469,47.2762942 125.166451,50.2555415 L116.38692,50.2555415 L116.26499,51.9102162 Z" id="Fill-33" fill="#1D1D1B" mask="url(#mask-6)"></path>
                <path d="M129.465155,56.5088084 C129.465155,59.2227843 129.58649,59.4880557 131.586731,59.8514655 L131.586731,60.3475111 L124.926398,60.3475111 L124.926398,59.8514655 C127.014072,59.4880557 127.105668,59.0907434 127.136001,56.5088084 L127.136001,50.1874988 C127.136001,48.7986902 127.16693,48.3680703 125.650244,47.177323 L125.650244,46.8472208 L129.254604,45.3912021 L129.58649,45.5226483 L129.3462,48.0712756 C130.737982,46.7484875 132.433102,45.3912021 134.372676,45.3912021 C135.94646,45.3912021 137.520245,46.383888 138.065657,48.0712756 C139.490153,46.7484875 141.1252,45.3912021 143.091539,45.3912021 C147.573197,45.3912021 147.02838,50.3873445 147.02838,52.1734654 L147.02838,56.5088084 C147.02838,59.2227843 147.149715,59.4880557 149.147577,59.8514655 L149.147577,60.3475111 L142.486054,60.3475111 L142.486054,59.8514655 C144.577296,59.4880557 144.665918,59.0907434 144.696252,56.5088084 L144.696252,53.0019923 C144.696252,51.7434403 145.180402,47.1113026 141.273895,47.1113026 C139.974898,47.1113026 139.124364,47.7399838 138.249444,48.7326697 L138.249444,56.5088084 C138.249444,59.2227843 138.370184,59.4880557 140.366857,59.8514655 L140.366857,60.3475111 L133.707118,60.3475111 L133.707118,59.8514655 C135.794197,59.4880557 135.885793,59.0907434 135.916721,56.5088084 L135.916721,53.0019923 C135.916721,51.2134923 136.279537,47.1113026 132.525292,47.1113026 C131.222132,47.1113026 130.315094,47.8060043 129.465155,48.7659773 L129.465155,56.5088084 Z" id="Fill-34" fill="#1D1D1B" mask="url(#mask-6)"></path>
                <path d="M152.690615,41.6352332 C152.690615,42.5624934 151.994129,43.3226208 151.146569,43.3226208 C150.299009,43.3226208 149.601334,42.5624934 149.601334,41.6352332 C149.601334,40.7097573 150.299009,39.9502247 151.146569,39.9502247 C151.994129,39.9502247 152.690615,40.7097573 152.690615,41.6352332 L152.690615,41.6352332 Z M147.755735,60.3475706 L147.755735,59.8509302 C149.995672,59.4881151 150.084294,59.0908029 150.115223,56.5088679 L150.115223,50.1875583 C150.115223,48.7987497 150.146151,48.3681298 148.269624,47.1767877 L148.269624,46.8472802 L152.116059,45.3906668 L152.447351,45.5227077 L152.447351,56.5088679 C152.447351,59.2228438 152.568685,59.4881151 154.809217,59.8509302 L154.809217,60.3475706 L147.755735,60.3475706 Z" id="Fill-35" fill="#1D1D1B" mask="url(#mask-6)"></path>
                <path d="M155.868935,50.1874988 C155.868935,48.7986902 155.899863,48.3680703 154.386151,47.1767283 L154.386151,46.8472208 L157.988132,45.3912021 L158.322992,45.5226483 L158.078538,47.9392347 C159.805776,46.5486418 161.470562,45.3912021 163.409541,45.3912021 C167.041261,45.3912021 167.225047,48.6666493 167.225047,50.6204978 L167.225047,56.5088084 C167.225047,59.2227843 167.345193,59.4880557 169.585725,59.8514655 L169.585725,60.3475111 L162.530458,60.3475111 L162.530458,59.8514655 C164.77099,59.4880557 164.861991,59.0907434 164.892325,56.5088084 L164.892325,52.7034133 C164.892325,50.3873445 164.983326,47.1113026 161.287965,47.1113026 C160.048446,47.1113026 159.199696,47.5419225 158.201063,48.5352031 L158.201063,56.5088084 C158.201063,59.2227843 158.322992,59.4880557 160.564119,59.8514655 L160.564119,60.3475111 L153.506473,60.3475111 L153.506473,59.8514655 C155.7476,59.4880557 155.839196,59.0907434 155.868935,56.5088084 L155.868935,50.1874988 Z" id="Fill-36" fill="#1D1D1B" mask="url(#mask-6)"></path>
                <path d="M178.066319,50.7851921 C178.066319,48.633877 177.185452,46.1197468 174.915181,46.1197468 C172.948842,46.1197468 172.311239,48.335298 172.311239,50.1214189 C172.311239,53.3998399 174.128883,54.8873818 175.490332,54.8873818 C177.516149,54.8873818 178.066319,52.6373334 178.066319,50.7851921 L178.066319,50.7851921 Z M173.97662,60.3474516 C172.885796,60.8773996 171.160937,62.2001877 171.160937,63.6568011 C171.160937,66.072198 174.370364,66.7335921 176.065483,66.7335921 C178.245943,66.7335921 181.637372,65.7087882 181.637372,62.7628485 C181.637372,59.6533447 177.699936,60.1166774 176.944566,60.149985 L173.97662,60.3474516 Z M178.42735,57.8321319 C181.666516,57.700091 183.453826,59.1894172 183.453826,61.4067527 C183.453826,64.6500818 179.425984,68.3567436 174.037287,68.3567436 C170.432928,68.3567436 168.950144,66.370777 168.950144,64.9795893 C168.950144,62.4987667 171.283461,61.3407323 173.008915,60.3474516 C171.858613,60.1826979 169.918444,59.3547657 169.918444,57.8321319 C169.918444,56.8079227 171.523157,55.516063 172.219049,54.9206894 C170.767788,54.0279263 169.737036,52.5386001 169.737036,50.685864 C169.737036,47.2759968 172.582458,45.3911427 175.429665,45.3911427 C176.914233,45.3911427 178.066319,45.7884549 179.396245,46.4492542 L183.725045,46.4492542 L183.725045,47.8386576 L180.032658,47.7399243 C180.456141,48.5678565 180.638143,49.3279839 180.638143,50.3212645 C180.638143,53.6966345 177.852199,55.6165806 175.006182,55.6165806 C174.247244,55.6165806 173.461542,55.4833502 172.733532,55.1859608 C171.735493,56.2125491 171.766422,58.1307108 174.551771,57.9986699 L178.42735,57.8321319 Z" id="Fill-37" fill="#1D1D1B" mask="url(#mask-6)"></path>
                <path d="M186.936256,54.5226039 C186.936256,57.4691383 186.963616,59.3212797 190.268207,59.3212797 C190.872503,59.3212797 191.477393,59.255854 192.050165,59.0911002 L192.173284,59.6186691 C190.659572,60.2485399 189.056048,60.6791598 187.390667,60.6791598 C184.451865,60.6791598 184.604129,58.9899878 184.604129,56.4431448 L184.604129,47.4429513 L182.573554,47.4429513 L182.425454,47.2103927 L186.663253,42.6109679 L186.936256,42.6109679 L186.936256,46.0517635 L191.718873,46.0517635 L191.718873,47.4429513 L186.936256,47.4429513 L186.936256,54.5226039 Z" id="Fill-38" fill="#1D1D1B" mask="url(#mask-6)"></path>
                <path d="M198.31842,46.1199252 C195.05011,46.1199252 193.71959,49.8248026 193.71959,52.8700704 C193.71959,55.9462666 195.293375,59.9503178 198.56228,59.9503178 C201.620632,59.9503178 202.983866,56.1443279 202.983866,53.2989059 C202.983866,50.2554225 201.620632,46.1199252 198.31842,46.1199252 M198.349944,60.6795166 C194.20374,60.6795166 190.902718,57.7990027 190.902718,53.1008445 C190.902718,48.5353221 194.322696,45.3907263 198.380872,45.3907263 C202.499716,45.3907263 205.797764,48.3021688 205.797764,52.9670193 C205.797764,57.4694952 202.347452,60.6795166 198.349944,60.6795166" id="Fill-39" fill="#1D1D1B" mask="url(#mask-6)"></path>
                <path d="M207.340561,50.1874988 C207.340561,48.7986902 207.372679,48.3680703 205.858967,47.1767283 L205.858967,46.8472208 L209.460948,45.3912021 L209.794619,45.5226483 L209.552544,47.9392347 C211.276213,46.5486418 212.944567,45.3912021 214.882952,45.3912021 C218.514077,45.3912021 218.697863,48.6666493 218.697863,50.6204978 L218.697863,56.5088084 C218.697863,59.2227843 218.818603,59.4880557 221.059135,59.8514655 L221.059135,60.3475111 L214.003274,60.3475111 L214.003274,59.8514655 C216.242616,59.4880557 216.333617,59.0907434 216.364546,56.5088084 L216.364546,52.7034133 C216.364546,50.3873445 216.456737,47.1113026 212.760781,47.1113026 C211.521856,47.1113026 210.671917,47.5419225 209.673284,48.5352031 L209.673284,56.5088084 C209.673284,59.2227843 209.794619,59.4880557 212.035745,59.8514655 L212.035745,60.3475111 L204.979289,60.3475111 L204.979289,59.8514655 C207.220416,59.4880557 207.311417,59.0907434 207.340561,56.5088084 L207.340561,50.1874988 Z" id="Fill-40" fill="#1D1D1B" mask="url(#mask-6)"></path>
            </g>
        </g>
    </g>
</svg>