<?xml version="1.0" encoding="utf-8"?>
<!-- Generator: Adobe Illustrator 26.5.0, SVG Export Plug-In . SVG Version: 6.00 Build 0)  -->
<svg version="1.1" id="Layer_1" xmlns="http://www.w3.org/2000/svg" xmlns:xlink="http://www.w3.org/1999/xlink" x="0px" y="0px"
	 viewBox="0 0 215.6 61.5" style="enable-background:new 0 0 215.6 61.5;" xml:space="preserve">
<style type="text/css">
	.st0{fill:#00338E;}
	.st1{fill:#39892F;}
</style>
<path class="st0" d="M102.1,18c1.4,0.3,1.7,0.6,2.6,2.8c2,4.8,3.8,9.5,5.7,14.4h1.2c2.3-6.1,4.4-11.1,5.8-14.2
	c1.1-2.4,1.5-2.9,2.6-2.9s1.6,0.7,1.6,3v9.2c0,2.8-0.3,3-2.9,3.3v1.1h9.4v-1.1c-2.6-0.2-2.9-0.5-2.9-3.3V16.2
	c-2.6,0.5-4.8,0.6-11.5,0.6V18c1.6,0.2,2.2,0.4,2.2,1.2c0,0.5-0.2,0.9-0.3,1.3c-0.8,2.7-2.2,6.4-3.5,9.5c-1.1-2.8-2.7-7-3.7-9.8
	c-0.2-0.4-0.3-0.8-0.3-1.2c0-0.5,0.5-0.7,2-0.9v-1.2h-7.9L102.1,18z M204.6,22.9c0.6-3.3,2.3-5,4.1-5c2.1,0,3.4,2,3.4,4.1
	c0,0.6-0.2,0.8-1,0.8C208.8,22.9,206.7,22.9,204.6,22.9 M208.8,35.2c1.4,0,4.2-0.7,6.8-4l-0.7-0.9c-1.2,1.2-2.9,2-4.6,2
	c-2.9,0-6-2.3-6-7.6c4.7-0.2,9.7-0.5,10.5-0.7s1-0.5,1-1.4c0-3.4-2.8-6.2-6.2-6.3c-2.3,0.1-4.5,1.2-6,3c-1.8,1.9-2.8,4.5-2.7,7.1
	C200.8,31.1,203.8,35.2,208.8,35.2 M193.2,35.2c2.4,0,5.1-1.8,6.8-4l-0.7-0.9c-1.2,1.3-2.9,2-4.7,2c-2.2,0-6.1-1.9-6.1-7.5
	c0-4.3,2.3-6.4,4.8-6.4c1.5,0,3,0.6,4.1,1.7c0.3,0.3,0.5,0.5,0.8,0.5c0.8-0.3,1.4-1,1.4-1.8c0-0.5-0.3-1-0.7-1.3
	c-1.1-0.7-2.3-1.1-3.6-1.1c-2.3,0.1-4.5,1-6.3,2.4c-2.6,1.8-4.1,4.7-4.1,7.9C184.9,31,187.9,35.2,193.2,35.2 M164.2,34.7h9.1v-1.1
	c-2.3-0.2-2.6-0.4-2.6-3.1v-9.7c1.1-1.1,2.6-1.8,4.2-1.9c2.5,0,3.6,1.7,3.6,4.5v6.8c0,2.8-0.3,3.1-2.6,3.4v1.1h8.7v-1.1
	c-2.3-0.3-2.6-0.4-2.6-3.1v-7.9c0-3.9-2-6.2-5.3-6.2c-1.2,0-2.4,0.5-3.4,1.2c-1,0.7-1.9,1.3-2.7,1.9v-3.2c-2,0.8-4,1.3-6.1,1.7v1
	c2.2,0.4,2.5,0.6,2.5,3.1v8.4c0,2.7-0.2,2.9-2.9,3.2L164.2,34.7z M152.1,22.9c0.5-3.3,2.3-5,4.1-5c2.1,0,3.4,2,3.4,4.1
	c0,0.6-0.2,0.8-0.9,0.8C156.4,22.9,154.2,22.9,152.1,22.9 M156.4,35.1c1.4,0,4.2-0.7,6.8-4l-0.6-0.9c-1.2,1.2-2.9,2-4.6,2
	c-2.9,0-6-2.3-6-7.6c4.7-0.2,9.7-0.5,10.5-0.7s1-0.5,1-1.4c-0.1-3.4-2.8-6.2-6.2-6.3c-2.3,0.1-4.5,1.2-6,3c-1.8,1.9-2.8,4.5-2.8,7.2
	C148.3,31.1,151.3,35.2,156.4,35.1 M123.3,12.5c1.2-0.1,2.2-1.2,2.1-2.4c-0.1-1.1-1-2-2.1-2.1c-1.2,0-2.3,1-2.2,2.3l0,0
	C121.1,11.5,122.1,12.5,123.3,12.5C123.3,12.5,123.3,12.5,123.3,12.5 M137.9,32.5c-2.5,0-5.5-2.3-5.5-7.2c0-6,3.4-7.5,5.1-7.5
	c1.6,0,3.1,0.8,3.9,2.1v11.3C140.4,32,139.2,32.5,137.9,32.5z M93.9,33.7c-3.2,0-5.3-3.8-5.3-9c0-4.7,2.1-7.1,4.5-7.1
	c3.4,0,5.2,3.7,5.2,8.7C98.3,32.1,96.3,33.7,93.9,33.7L93.9,33.7z M93.5,35.1c4.2,0,8.9-3.1,8.9-9.7c0.1-4.9-3.7-9-8.6-9.1
	c-0.1,0-0.2,0-0.3,0c-5.2,0.2-9.2,4.5-9.1,9.7c0,0,0,0.1,0,0.1c-0.1,4.9,3.8,8.9,8.7,9C93.3,35.1,93.4,35.1,93.5,35.1 M71.3,34.6
	h9.8v-1.1c-3.1-0.2-3.3-0.5-3.3-3.1v-7.5c0.9-2.2,2.1-3.2,3-3.2c0.7,0,1.4,0.3,1.8,0.8c0.1,0.2,0.4,0.3,0.6,0.2c0.2,0,0.4,0,0.5-0.1
	c0.9-0.4,1.4-1.2,1.4-2.2c-0.1-1.3-1.2-2.2-2.5-2.1c-1.9,0-3.6,2.2-4.8,4.3h-0.1v-4.4c-2,0.8-4,1.3-6.1,1.6v1c2.3,0.4,2.5,0.5,2.5,3
	v8.5c0,2.6-0.3,2.9-2.9,3.1L71.3,34.6z M60.7,22.3c-1,0-1.9-0.1-2.8-0.5V11.8c0-1.1,0.1-1.5,0.4-1.8c0.6-0.4,1.4-0.6,2.1-0.5
	c3.7,0,6,2.3,6,6.3C66.4,19.9,64.2,22.3,60.7,22.3 M50.4,34.6H62v-1.1c-3.8-0.2-4.1-0.5-4.1-3.9v-6.3l3,0.8c0.6,0.1,1.2,0.1,1.8,0
	c5-0.7,8-3.8,8-8.4c0.1-2.3-0.9-4.4-2.7-5.8c-1.5-1.2-3.7-1.7-6.9-1.7H50.8v1.1c3,0.2,3.3,0.5,3.3,4.1v16.2c0,3.4-0.4,3.7-3.7,3.9
	L50.4,34.6z M136,35.1c1.1-0.1,2.1-0.5,3-1.1l2.5-1.5v2.6c2.2-0.7,4.4-1.2,6.7-1.5v-1l-1.3-0.1c-1.5-0.1-1.8-0.4-1.8-2.5V5.7
	c-2.2,0.6-4.4,1.1-6.7,1.4v1c2.8,0.2,3,0.4,3,3v5.6c-0.8-0.3-1.7-0.4-2.5-0.4c-5.7,0-10.6,4.5-10.6,10.1
	C128.3,32.2,132.7,35.1,136,35.1z"/>
<path class="st0" d="M16.7,40.6h7.4c-1.6-1.6-2.3-3.2-2.3-6.8v-9.6c-0.2-1.2,0.6-2.3,1.8-2.5c0.2,0,0.4,0,0.6,0h9.6
	c3.6,0,5.2,0.7,6.8,2.3v-7.4C39,18.4,37.4,19,33.8,19h-9.6c-1.2,0.2-2.3-0.7-2.5-1.9c0-0.2,0-0.4,0-0.6V7c0-3.6,0.7-5.1,2.3-6.8
	h-7.3C18.4,1.8,19,3.4,19,7v9.6c0.2,1.2-0.7,2.3-1.8,2.5c-0.2,0-0.4,0-0.6,0H7c-3.6,0-5.1-0.7-6.8-2.3v7.4c1.6-1.6,3.2-2.3,6.8-2.3
	h9.6c1.2-0.2,2.3,0.7,2.5,1.8c0,0.2,0,0.4,0,0.6v9.6C19,37.4,18.4,39,16.7,40.6"/>
<path class="st1" d="M23.6,33.9v-8.6c0-1.4,0.4-1.8,1.8-1.8h8.5c3.6,0,6.2,2,6.9,5.2h-12v12C25.6,40.1,23.6,37.5,23.6,33.9
	 M6.9,17.2h8.5c1.4,0,1.8-0.4,1.8-1.8V6.9c0-3.5-2-6.2-5.2-6.9v12H0C0.7,15.2,3.3,17.2,6.9,17.2 M40.8,12h-12V0
	c-3.2,0.7-5.2,3.3-5.2,6.9v8.5c0,1.4,0.4,1.8,1.8,1.8h8.5C37.5,17.2,40.1,15.2,40.8,12L40.8,12z M12,40.8c3.2-0.7,5.2-3.3,5.2-6.9
	v-8.5c0-1.4-0.4-1.8-1.8-1.8H6.9c-3.5,0-6.2,2-6.9,5.2h12L12,40.8z"/>
<path class="st1" d="M50.6,61.2v-1c0.4,0,0.7-0.1,1-0.3c0.2-0.2,0.4-0.5,0.4-0.8c0.1-0.4,0.1-0.9,0.1-1.3v-9.1c0-0.3,0-0.6,0-0.9
	s0-0.6,0-0.8h-0.8h-0.8v-1.1h5.4v1c-0.4,0-0.7,0.1-1,0.3c-0.2,0.2-0.4,0.5-0.4,0.8c0,0.4,0,0.9,0,1.3v3.6h7.3v-4.2
	c0-0.3,0-0.6,0-0.9s0-0.6,0-0.8h-0.8h-0.8v-1.1h5.4v1c-0.4,0-0.7,0.1-1,0.3c-0.2,0.2-0.4,0.5-0.4,0.8c-0.1,0.4-0.1,0.9-0.1,1.3v9
	c0,0.4,0,0.8,0,1.1c0,0.3,0,0.5,0,0.8c0.3,0,0.5,0,0.8-0.1c0.3,0,0.6,0,0.8,0v1.2h-5.5v-1c0.4,0,0.7-0.1,1-0.3
	c0.2-0.2,0.4-0.5,0.4-0.8c0.1-0.4,0.1-0.9,0.1-1.3v-3.8L54.5,54v4.2c0,0.4,0,0.8,0,1.1c0,0.3,0,0.5-0.1,0.8c0.2,0,0.5,0,0.8-0.1
	s0.6,0,0.8,0v1.2L50.6,61.2z"/>
<path class="st1" d="M71.9,61.5c-1,0-1.9-0.2-2.8-0.7c-0.8-0.5-1.5-1.2-1.9-2c-0.5-0.9-0.8-2-0.7-3.1c0-1,0.2-2,0.7-2.9
	c0.5-0.9,1.2-1.6,2-2.2c0.9-0.6,1.9-0.8,2.9-0.8c0.6,0,1.2,0.1,1.8,0.3c0.5,0.2,1.1,0.5,1.5,0.9c0.4,0.4,0.8,1,1,1.6
	c0.3,0.7,0.4,1.5,0.4,2.3L69.1,55c0,0.9,0.1,1.8,0.4,2.7c0.2,0.7,0.5,1.3,1.1,1.8c0.6,0.4,1.3,0.7,2,0.6c0.4,0,0.9-0.1,1.3-0.2
	c0.5-0.1,0.9-0.3,1.3-0.6c0.4-0.3,0.7-0.6,1-0.9l0.7,0.6c-0.4,0.6-0.9,1.1-1.5,1.5c-0.5,0.4-1.1,0.6-1.8,0.8
	C73,61.4,72.5,61.5,71.9,61.5z M69.2,53.8h5.1c0-0.5-0.1-1-0.2-1.5c-0.1-0.4-0.4-0.8-0.7-1.1c-0.4-0.3-0.8-0.4-1.2-0.4
	c-0.7,0-1.4,0.2-1.9,0.7C69.6,52.2,69.3,53,69.2,53.8L69.2,53.8z"/>
<path class="st1" d="M85.2,61.2c0-0.2-0.1-0.4-0.1-0.6s0-0.3-0.1-0.6c-0.5,0.5-1,0.9-1.6,1.1c-0.6,0.2-1.2,0.4-1.8,0.4
	c-0.9,0.1-1.7-0.2-2.4-0.8c-0.5-0.5-0.8-1.2-0.8-2c0-0.6,0.2-1.3,0.6-1.8c0.4-0.5,1-0.9,1.6-1.2c0.7-0.3,1.4-0.6,2.1-0.7
	c0.7-0.1,1.5-0.2,2.2-0.2v-1.2c0-0.4,0-0.9-0.1-1.3c-0.1-0.4-0.3-0.7-0.5-1c-0.4-0.3-0.8-0.4-1.3-0.4c-0.4,0-0.8,0.1-1.1,0.2
	c-0.4,0.1-0.7,0.4-0.9,0.8c0.1,0.1,0.2,0.2,0.2,0.4c0,0.1,0.1,0.3,0.1,0.4c0,0.3-0.1,0.5-0.3,0.7c-0.2,0.3-0.6,0.4-0.9,0.4
	c-0.3,0-0.6-0.1-0.8-0.4c-0.2-0.2-0.3-0.5-0.3-0.8c0-0.5,0.2-1,0.6-1.4c0.4-0.5,1-0.8,1.6-1c0.7-0.2,1.5-0.4,2.3-0.3
	c1-0.1,2.1,0.3,2.8,1c0.7,0.9,1,2,0.9,3.1v1.6c0,0.5,0,1,0,1.4s0,1,0,1.5c0,0.2,0,0.5,0,0.8c0,0.3,0,0.6-0.1,0.9H88h0.8v1.2
	L85.2,61.2z M85.1,55.9c-0.5,0-1,0.1-1.4,0.2c-0.5,0.1-0.9,0.2-1.3,0.5c-0.4,0.2-0.7,0.5-1,0.8c-0.2,0.3-0.4,0.8-0.4,1.2
	c0,0.4,0.2,0.8,0.5,1.1c0.3,0.2,0.7,0.4,1.1,0.3c0.5,0,0.9-0.1,1.4-0.3c0.4-0.2,0.8-0.5,1.2-0.8c0-0.2,0-0.3,0-0.5v-0.5
	c0-0.1,0-0.4,0-0.7S85,56.3,85.1,55.9z"/>
<path class="st1" d="M89.2,60.3c0.3,0,0.7-0.1,0.9-0.3c0.2-0.2,0.3-0.5,0.3-0.9c0-0.4,0.1-0.9,0.1-1.3v-9.9c0-0.2,0-0.5,0-0.8
	s0-0.5,0.1-0.8h-0.8h-0.8v-1.1c0.5,0,1.1,0,1.6-0.1c0.3,0,0.6-0.1,0.9-0.2c0.2-0.1,0.3-0.2,0.5-0.3h0.8v13.9c0,0.3,0,0.5,0,0.8
	s0,0.5-0.1,0.8h0.7h0.7v1.2h-4.9L89.2,60.3z"/>
<path class="st1" d="M99.3,61.5c-0.4,0-0.7,0-1.1-0.1c-0.4-0.1-0.7-0.3-1-0.6c-0.3-0.3-0.6-0.8-0.7-1.2c-0.2-0.7-0.3-1.4-0.3-2.2
	l0.1-6h-1.6v-1.2c0.4,0,0.9-0.2,1.2-0.4c0.4-0.3,0.8-0.7,1.1-1.1c0.3-0.5,0.5-1,0.6-1.5h1v3.1h3.4v1.2h-3.4v5.9c0,0.5,0,1,0.2,1.5
	c0.1,0.4,0.2,0.7,0.5,1c0.3,0.2,0.6,0.4,0.9,0.3c0.4,0,0.7-0.1,1-0.3c0.4-0.3,0.7-0.6,1-1l0.8,0.7c-0.3,0.4-0.6,0.9-1,1.2
	c-0.3,0.3-0.6,0.5-1,0.7c-0.3,0.1-0.6,0.2-0.9,0.3C99.8,61.5,99.6,61.5,99.3,61.5z"/>
<path class="st1" d="M110.1,60.3c0.3,0,0.7-0.1,0.9-0.3c0.2-0.2,0.3-0.5,0.3-0.9c0-0.4,0-0.8,0-1.3v-3.1c0.1-0.9-0.1-1.8-0.5-2.6
	c-0.4-0.6-1-0.9-1.7-0.8c-0.5,0-1,0.1-1.4,0.3c-0.4,0.2-0.8,0.5-1.2,0.9v6c0,0.3,0,0.5,0,0.8s0,0.5-0.1,0.8h0.7h0.7v1.2h-4.9v-0.9
	c0.3,0,0.7-0.1,0.9-0.3c0.2-0.3,0.3-0.5,0.3-0.9c0-0.4,0.1-0.9,0.1-1.3V47.9c0-0.2,0-0.5,0-0.8s0-0.5,0.1-0.8h-0.8h-0.8v-1.1
	c0.5,0,1.1,0,1.6-0.1c0.3,0,0.6-0.1,0.9-0.2c0.2-0.1,0.3-0.2,0.5-0.3h0.8v6.7c0.3-0.3,0.7-0.5,1.1-0.7c0.4-0.2,0.8-0.4,1.2-0.5
	c0.4-0.1,0.8-0.2,1.2-0.2c1.1-0.1,2.1,0.3,2.8,1.2c0.7,1.1,1,2.4,0.9,3.7v3.8c0,0.3,0,0.5,0,0.8c0,0.3,0,0.5-0.1,0.8h0.7h0.7v1.2
	H110L110.1,60.3z"/>
<path class="st1" d="M121.2,60.2c0.4,0,0.7-0.1,1.1-0.3c0.2-0.2,0.4-0.5,0.4-0.8c0.1-0.4,0.1-0.9,0.1-1.3v-9.2c0-0.3,0-0.6,0-0.9
	s0-0.6,0.1-0.8H122h-0.8v-1.1h2.6h2.7c1.2,0,2.4,0.1,3.5,0.5c0.9,0.3,1.6,0.8,2.2,1.5c0.5,0.7,0.8,1.6,0.8,2.5
	c0,0.6-0.1,1.2-0.3,1.8c-0.2,0.6-0.6,1.2-1.1,1.7c-0.6,0.6-1.4,1-2.2,1.2c-1.1,0.3-2.2,0.5-3.4,0.5c-0.2,0-0.3,0-0.5,0
	c-0.2,0-0.4,0-0.6,0v2.8c0,0.4,0,0.8,0,1.1c0,0.3,0,0.5-0.1,0.8h0.7h0.7h0.6v1.2h-5.8V60.2z M125.1,54.3h0.6h0.6
	c0.8,0,1.5-0.1,2.2-0.5c0.6-0.3,1.1-0.8,1.5-1.3c0.4-0.6,0.6-1.4,0.5-2.1c0-0.6-0.1-1.2-0.3-1.8c-0.2-0.4-0.5-0.8-0.9-1.1
	c-0.4-0.3-0.8-0.5-1.3-0.6c-0.5-0.1-1-0.2-1.5-0.2c-0.4,0-0.7,0.1-1,0.3c-0.2,0.2-0.4,0.5-0.4,0.8c-0.1,0.4-0.1,0.9-0.1,1.3
	L125.1,54.3z"/>
<path class="st1" d="M133.6,60.3c0.3,0,0.7-0.1,0.9-0.3c0.2-0.2,0.3-0.5,0.3-0.9c0-0.4,0.1-0.8,0.1-1.3v-9.9c0-0.2,0-0.5,0-0.8
	s0-0.5,0.1-0.8h-0.8h-0.8v-1.1c0.5,0,1,0,1.6-0.1c0.3,0,0.6-0.1,0.9-0.2c0.2-0.1,0.3-0.2,0.5-0.3h0.8v13.9c0,0.3,0,0.5,0,0.8
	s0,0.5-0.1,0.8h0.7h0.7v1.2h-4.9L133.6,60.3z"/>
<path class="st1" d="M146,61.2c0-0.2-0.1-0.4-0.1-0.6s0-0.3-0.1-0.6c-0.5,0.5-1,0.9-1.6,1.1c-0.6,0.2-1.2,0.3-1.8,0.3
	c-0.9,0.1-1.7-0.2-2.4-0.8c-0.5-0.5-0.8-1.2-0.8-2c0-0.6,0.2-1.3,0.6-1.8c0.4-0.5,1-0.9,1.6-1.2c0.7-0.3,1.4-0.6,2.1-0.7
	c0.7-0.1,1.5-0.2,2.2-0.2v-1.2c0-0.4,0-0.9-0.1-1.3c-0.1-0.4-0.3-0.7-0.5-1c-0.4-0.3-0.8-0.4-1.3-0.4c-0.4,0-0.8,0.1-1.1,0.2
	c-0.4,0.1-0.7,0.4-0.9,0.8c0.1,0.1,0.2,0.2,0.2,0.4c0,0.1,0.1,0.3,0.1,0.4c0,0.3-0.1,0.5-0.3,0.7c-0.2,0.3-0.6,0.4-0.9,0.4
	c-0.3,0-0.6-0.1-0.8-0.4c-0.2-0.2-0.3-0.5-0.3-0.8c0-0.5,0.2-1,0.6-1.4c0.4-0.5,1-0.8,1.6-1c0.7-0.2,1.5-0.4,2.3-0.3
	c1-0.1,2.1,0.3,2.8,1c0.7,0.9,1,2,0.9,3.1v1.6c0,0.5,0,1,0,1.4s0,1,0,1.5c0,0.2,0,0.5,0,0.8s0,0.6-0.1,0.9h0.8h0.7v1.2L146,61.2z
	 M145.8,55.9c-0.5,0-1,0.1-1.4,0.2c-0.5,0.1-0.9,0.2-1.3,0.5c-0.4,0.2-0.7,0.5-1,0.8c-0.2,0.3-0.4,0.8-0.4,1.2
	c0,0.4,0.2,0.8,0.5,1.1c0.3,0.2,0.7,0.4,1.1,0.3c0.5,0,0.9-0.1,1.4-0.3c0.4-0.2,0.8-0.5,1.2-0.8c0-0.2,0-0.3,0-0.5v-0.5
	c0-0.1,0-0.4,0-0.7S145.8,56.3,145.8,55.9z"/>
<path class="st1" d="M150.2,61.2v-0.9c0.3,0,0.7-0.1,0.9-0.3c0.2-0.2,0.3-0.5,0.3-0.9c0-0.4,0.1-0.8,0.1-1.3v-4.6c0-0.2,0-0.5,0-0.8
	c0-0.3,0-0.5,0.1-0.8h-0.8h-0.8v-1.1c0.5,0,1,0,1.6-0.1c0.3,0,0.6-0.1,0.9-0.2c0.2-0.1,0.3-0.2,0.4-0.3h0.8c0,0.1,0,0.3,0,0.4
	s0,0.2,0,0.4s0,0.3,0,0.5c0.3-0.3,0.7-0.5,1.1-0.7c0.4-0.2,0.8-0.4,1.2-0.5c0.4-0.1,0.8-0.2,1.2-0.2c1.1-0.1,2.1,0.3,2.8,1.2
	c0.7,1.1,1,2.4,0.9,3.7v3.8c0,0.3,0,0.5,0,0.8s0,0.5-0.1,0.8h0.7h0.7v1.2h-4.9v-0.9c0.3,0,0.7-0.1,0.9-0.3c0.2-0.2,0.3-0.5,0.3-0.9
	c0-0.4,0.1-0.8,0.1-1.3v-3.2c0-0.9-0.1-1.8-0.6-2.6c-0.4-0.6-1-0.9-1.7-0.9c-0.5,0-1,0.1-1.4,0.3c-0.4,0.2-0.8,0.5-1.1,0.9v6
	c0,0.3,0,0.5,0,0.8s0,0.5-0.1,0.8h0.7h0.7v1.2L150.2,61.2z"/>
</svg>
