<svg width="151" height="55" viewBox="0 0 151 55" xmlns="http://www.w3.org/2000/svg"><title>Group</title><g fill="#00385B" fill-rule="evenodd"><path d="M19.574 44.468c.008-.072.014-.143.02-.215l.28-3.004.02-.216C13.114 38.95 7.84 33.438 6.104 26.53l-.05-.2-.202.043c-.717.147-1.43.302-2.137.466l-.204.048.04.204c1.671 8.333 7.903 15.02 15.987 17.369l.036.01m26.051-18.1l-.202-.041-.05.2a20.494 20.494 0 0 1-13.777 14.487c.006.072.012.146.02.218l.27 3.017.02.216.036-.01c8.077-2.353 14.304-9.042 15.994-17.383l.043-.208-.207-.046a98.089 98.089 0 0 0-2.147-.45M6.705 14.628C9.057 9.106 13.834 4.84 19.72 3.15l.175-.051-.166-1.344-.238.063a22.585 22.585 0 0 0-14.81 12.61c.637.07 1.31.137 2.026.2m37.493 0c.71-.061 1.387-.125 2.023-.193C43.502 8.29 38.07 3.59 31.415 1.818l-.239-.063-.165 1.341.174.051c5.884 1.69 10.673 5.958 13.015 11.48"/><path d="M19.816 41.585c.52-5.947 1.058-12.91 1.366-18.778-9.424.487-17.494 2.286-20.996 3.172A26.08 26.08 0 0 1 0 22.862c0-3.095.543-6.065 1.541-8.82 4.586.823 13.834 1.386 24.496 1.386 10.663 0 19.909-.563 24.496-1.385a26.082 26.082 0 0 1 1.346 12.011c-3.329-.857-11.593-2.747-21.286-3.247.306 5.868.857 12.831 1.378 18.778l.272 3.014c.545 6.022.991 10.401.991 10.401H18.54s.45-4.379.995-10.4l.281-3.015M29.256.27l-1.063 10.35c-.7.295-1.542.498-2.45.498a6.353 6.353 0 0 1-2.449-.498L22.234.27a22.754 22.754 0 0 1 3.51-.27c1.195 0 2.367.092 3.511.27m33.74 33.632c1.883 0 3.05 1.61 3.05 4.473 0 2.59-1.124 3.787-2.586 3.787-1.997 0-3.122-1.927-3.122-4.42 0-2.436 1.167-3.84 2.657-3.84zm.436-.55c-3.304 0-4.92 2.573-4.92 4.83 0 2.507 1.826 4.53 4.596 4.53 2.67 0 4.765-1.913 4.765-4.845 0-2.685-2.01-4.516-4.441-4.516zm4.441.584v.378c1.026.082 1.138.19 1.138 1.647v4.725c0 1.459-.112 1.568-1.138 1.648v.379h4.079v-.379c-1.277-.08-1.388-.19-1.388-1.648v-2.105h1.388c1.193 0 1.22.055 1.358 1.066h.445V36.88h-.445c-.138 1-.165 1.08-1.358 1.08h-1.388v-2.996c0-.486.028-.486.555-.486h.722c.86 0 1.304.08 1.54.31.208.203.374.58.513 1.202l.416-.055c-.083-.783-.139-1.782-.166-1.998h-6.27m16.16-1.137c2.12 0 3.432 1.813 3.432 5.035 0 2.912-1.265 4.259-2.91 4.259-2.246 0-3.51-2.168-3.51-4.972 0-2.74 1.313-4.322 2.988-4.322zm.49-.618c-3.715 0-5.535 2.895-5.535 5.436 0 2.82 2.057 5.096 5.172 5.096 3.004 0 5.36-2.153 5.36-5.452 0-3.021-2.26-5.08-4.996-5.08zm4.997 1.755v.395c1.088.085 1.196.169 1.196 1.688v3.253c0 1.66.3 2.674 1.02 3.28.678.576 1.575.746 2.417.746.95 0 1.915-.38 2.513-1.056.747-.831.992-2 .992-3.365v-.999c0-1.605.068-2.393.122-2.816.069-.506.421-.703 1.102-.731v-.395h-3.316v.395c.87.056 1.25.225 1.318.731.054.423.122 1.211.122 2.816v.845c0 2.463-.816 3.758-2.46 3.758-1.602 0-2.308-1.253-2.308-3.49V36.02c0-1.52.108-1.603 1.114-1.688v-.395H89.52m10 0v.398c1.021.085 1.129.198 1.129 1.73v4.963c0 1.532-.108 1.647-1.182 1.731v.398h3.787v-.398c-1.02-.084-1.129-.199-1.129-1.731v-1.9h.43c.404 0 .564.143.78.54.388.737.832 1.645 1.262 2.297.523.794.98 1.192 2.443 1.305l.565.029.054-.37c-.39-.098-.605-.311-.927-.651-.255-.285-.604-.795-1.114-1.575-.43-.638-.954-1.631-1.17-2.029 1.089-.425 1.787-1.262 1.787-2.453 0-.837-.363-1.433-.886-1.8-.538-.37-1.236-.484-2.216-.484H99.52zm2.605 1.05c0-.454.027-.51.672-.51.86 0 1.826.51 1.826 1.985 0 .68-.188 1.361-.725 1.815-.349.284-.725.369-1.262.369h-.51v-3.658zm9.11-2.805v.453c1.296.098 1.427.227 1.427 1.977v5.671c0 1.75-.13 1.88-1.493 1.977v.454h7.607a63.14 63.14 0 0 0 .585-2.658l-.52-.097c-.259.777-.518 1.328-.794 1.637-.34.405-1.12.468-1.866.468-.518 0-1.054-.031-1.33-.225-.275-.195-.372-.649-.372-1.589v-5.638c0-1.75.13-1.879 1.427-1.977v-.453h-4.671m12.083 3.517h.041l1.05 3.111h-2.14l1.049-3.11zm.215-2.178l-2.718 7.354c-.472 1.273-.62 1.33-1.454 1.442v.397h2.988v-.397l-.377-.041c-.592-.072-.7-.256-.457-1.005.188-.593.43-1.386.605-1.811h2.49c.283.737.606 1.613.74 2.037.162.537.136.68-.376.764l-.377.056v.397h3.54v-.397c-.78-.084-.97-.184-1.427-1.442-.512-1.415-1.104-3.168-1.709-4.893l-.93-2.63-.538.17zm8.016 1.712c0-.35 0-.594.085-.66.082-.068.447-.122.909-.122 2.238 0 3.75.998 3.75 3.888 0 2.24-1.203 3.82-3.527 3.82-1.077 0-1.217-.255-1.217-1.498v-5.428zm-2.715-1.296v.378c1.036.082 1.147.19 1.147 1.647v4.725c0 1.459-.111 1.568-1.259 1.648v.379h3.428c3.276 0 5.934-1.458 5.934-4.78a3.938 3.938 0 0 0-1.175-2.808c-.924-.864-2.351-1.189-3.92-1.189h-4.155zm8.665 0v.378c.698.082.765.123 1.343 1.134.886 1.54 1.37 2.39 1.799 3.201.201.378.187.444.187.729v1.308c0 1.459-.107 1.568-1.262 1.648v.379h4.083v-.379c-1.208-.08-1.316-.19-1.316-1.648v-1.443c0-.46.04-.568.175-.811a35.7 35.7 0 0 1 1.692-2.984c.563-.89.685-1.052 1.49-1.134v-.378h-3.022v.378l.538.054c.47.055.55.19.322.703a38.79 38.79 0 0 1-1.557 3.092c-.55-.892-1.411-2.525-1.733-3.173-.215-.432-.188-.54.161-.594l.564-.082v-.378H137.5M58.832 16.383v.453c1.383.13 1.495.292 1.383 2.447l-.177 3.338c-.08 1.556-.208 2.512-.289 2.997-.113.617-.435.78-1.238.843v.454h3.81v-.454c-1.061-.097-1.398-.226-1.463-.843-.064-.485-.08-1.376-.049-2.835l.114-4.196h.063l3.522 8.134h.482l3.65-8.459h.065l.063 6.222c.016 1.814-.032 1.848-1.286 1.977v.454h4.486v-.454c-1.303-.129-1.35-.163-1.399-1.977l-.16-5.67c-.033-1.783.032-1.847 1.334-1.978v-.453h-3.038l-3.361 7.728-3.553-7.728h-2.959m13.721 1.17v.378c1.133.082 1.25.19 1.25 1.648v4.726c0 1.458-.117 1.566-1.25 1.646v.379h4.096v-.379c-1.104-.08-1.22-.188-1.22-1.646v-4.726c0-1.458.116-1.566 1.22-1.648v-.378h-4.096m10.166 2.23a28.83 28.83 0 0 1-.28-1.857c-.17-.07-.367-.097-.592-.18-.393-.138-.9-.193-1.28-.193-1.884 0-2.996 1.184-2.996 2.63 0 1.349 1.182 2.079 2.11 2.546l.45.221c1.112.537 1.492 1.087 1.492 1.86 0 .852-.563 1.554-1.477 1.554-1.45 0-2.208-1.529-2.49-2.244l-.422.139c.14.839.31 1.775.422 2.133.168.054.422.165.815.289a4.5 4.5 0 0 0 1.407.234c1.899 0 3.207-1.156 3.207-2.795 0-1.432-1.013-2.161-2.11-2.643l-.366-.165c-1.083-.482-1.645-.992-1.645-1.762 0-.786.506-1.446 1.434-1.446 1.183 0 1.618.964 1.871 1.762l.45-.083m7.023 0a27.665 27.665 0 0 1-.282-1.857c-.169-.07-.366-.097-.591-.18-.394-.138-.9-.193-1.279-.193-1.886 0-2.997 1.184-2.997 2.63 0 1.349 1.182 2.079 2.11 2.546l.45.221c1.111.537 1.491 1.087 1.491 1.86 0 .852-.562 1.554-1.477 1.554-1.449 0-2.208-1.529-2.489-2.244l-.423.139c.14.839.31 1.775.423 2.133.168.054.421.165.816.289a4.5 4.5 0 0 0 1.406.234c1.899 0 3.206-1.156 3.206-2.795 0-1.432-1.012-2.161-2.109-2.643l-.365-.165c-1.083-.482-1.647-.992-1.647-1.762 0-.786.507-1.446 1.435-1.446 1.182 0 1.618.964 1.871 1.762l.45-.083m.95-2.23v.378c1.134.082 1.25.19 1.25 1.648v4.726c0 1.458-.116 1.566-1.25 1.646v.379h4.096v-.379c-1.103-.08-1.22-.188-1.22-1.646v-4.726c0-1.458.117-1.566 1.22-1.648v-.378h-4.096m9.166.55c1.882 0 3.05 1.612 3.05 4.475 0 2.588-1.125 3.786-2.586 3.786-1.997 0-3.121-1.927-3.121-4.42 0-2.436 1.166-3.84 2.657-3.84zm.436-.55c-3.303 0-4.92 2.575-4.92 4.832 0 2.506 1.827 4.53 4.596 4.53 2.67 0 4.765-1.914 4.765-4.846 0-2.685-2.01-4.516-4.441-4.516zm4.441 0v.399c1.161.086 1.473.427 1.473 2.077v2.788c0 1.623-.07 2.42-.128 2.845-.07.513-.44.712-1.147.74v.398h3.456v-.398c-.905-.057-1.303-.227-1.373-.74-.057-.426-.127-1.222-.127-2.845v-3.073h.028l5.838 7.17h.651v-5.377c0-1.621.072-2.419.128-2.845.071-.512.44-.712 1.148-.74v-.399h-3.458v.399c.907.057 1.304.228 1.374.74.057.426.129 1.224.129 2.845v2.703h-.029l-5.654-6.687h-2.309m13.32 2.347h.04l1.05 3.112h-2.141l1.05-3.112zm.215-2.177l-2.72 7.354c-.47 1.272-.618 1.329-1.453 1.441v.397h2.988v-.397l-.377-.04c-.592-.072-.7-.256-.458-1.005.189-.594.431-1.386.607-1.81h2.49c.282.736.606 1.611.74 2.036.162.538.135.679-.377.763l-.377.056v.397h3.54v-.397c-.78-.084-.97-.183-1.427-1.441-.51-1.415-1.104-3.168-1.71-4.893l-.928-2.63-.538.169zm5.242-.17v.398c1.02.085 1.128.198 1.128 1.73v4.965c0 1.532-.107 1.645-1.182 1.73v.397h3.787v-.397c-1.02-.085-1.127-.198-1.127-1.73v-1.901h.428c.404 0 .565.142.78.54.39.737.832 1.645 1.262 2.297.524.794.98 1.191 2.445 1.306l.564.027.053-.368c-.39-.1-.604-.312-.927-.653-.254-.283-.604-.794-1.114-1.574-.43-.639-.954-1.63-1.168-2.029 1.087-.425 1.785-1.263 1.785-2.454 0-.836-.362-1.432-.886-1.8-.537-.37-1.236-.484-2.215-.484h-3.613zm2.606 1.05c0-.454.027-.51.671-.51.86 0 1.826.51 1.826 1.986 0 .68-.188 1.361-.725 1.816-.35.283-.725.368-1.263.368h-.51v-3.66zm6.117-1.05v.378c1.133.082 1.25.19 1.25 1.648v4.726c0 1.458-.117 1.566-1.25 1.646v.379h4.096v-.379c-1.104-.08-1.22-.188-1.22-1.646v-4.726c0-1.458.116-1.566 1.22-1.648v-.378h-4.096m4.815 0v.378c1.023.082 1.13.19 1.13 1.648v4.726c0 1.458-.107 1.566-1.264 1.646v.379h6.565c.107-.379.403-1.755.456-2.214l-.403-.08c-.23.647-.458 1.106-.686 1.363-.282.337-.901.39-1.574.39-.564 0-1.049-.013-1.291-.174-.242-.176-.296-.554-.296-1.338v-2.214h1.157c1.157 0 1.183.054 1.318 1.12h.43v-2.862h-.43c-.135 1.04-.161 1.122-1.318 1.122h-1.157V18.58c0-.487.027-.487.538-.487h.673c.834 0 1.264.08 1.492.311.202.202.364.58.498 1.228l.404-.026c-.081-.838-.135-1.836-.162-2.053h-6.08m12.959 2.23a29.038 29.038 0 0 1-.282-1.857c-.169-.07-.366-.097-.591-.18-.393-.138-.9-.193-1.28-.193-1.885 0-2.996 1.184-2.996 2.63 0 1.349 1.182 2.079 2.11 2.546l.45.221c1.111.537 1.492 1.087 1.492 1.86 0 .852-.563 1.554-1.478 1.554-1.448 0-2.208-1.529-2.49-2.244l-.422.139c.141.839.31 1.775.423 2.133.169.054.422.165.815.289.366.124.872.234 1.407.234 1.899 0 3.206-1.156 3.206-2.795 0-1.432-1.012-2.161-2.109-2.643l-.365-.165c-1.084-.482-1.646-.992-1.646-1.762 0-.786.507-1.446 1.434-1.446 1.183 0 1.618.964 1.871 1.762l.45-.083M58.512.585v.454c1.212.097 1.343.227 1.343 1.977v5.67c0 1.75-.13 1.88-1.343 1.977v.454h4.819v-.454c-1.509-.097-1.64-.227-1.64-1.976V6.16h1.64c1.41 0 1.443.064 1.607 1.279h.524V4.117h-.524c-.164 1.2-.197 1.297-1.607 1.297h-1.64V1.817c0-.584.033-.584.656-.584h.853c1.016 0 1.54.098 1.82.373.245.244.442.697.606 1.442l.492-.064c-.099-.94-.164-2.14-.197-2.399h-7.41m8.246 1.17v.397c1.02.086 1.128.199 1.128 1.731v4.965c0 1.531-.109 1.645-1.182 1.73v.398h3.787v-.398c-1.02-.085-1.128-.199-1.128-1.73V6.946h.43c.402 0 .564.142.779.54.39.738.832 1.645 1.262 2.298.523.794.98 1.192 2.444 1.305l.564.028.054-.37c-.39-.098-.605-.31-.927-.652-.255-.283-.604-.794-1.115-1.573-.429-.64-.953-1.631-1.168-2.03 1.088-.424 1.786-1.262 1.786-2.453 0-.836-.363-1.432-.886-1.801-.537-.37-1.236-.483-2.216-.483h-3.612zm2.605 1.05c0-.454.027-.51.672-.51.859 0 1.825.51 1.825 1.985 0 .681-.187 1.362-.724 1.816-.35.284-.725.368-1.262.368h-.511V2.805zm10.075 1.298h.04l1.052 3.11h-2.143l1.05-3.11zm.215-2.178l-2.72 7.355c-.47 1.273-.619 1.33-1.453 1.442v.396h2.988v-.396l-.377-.043c-.593-.07-.7-.254-.458-1.004.188-.594.43-1.385.606-1.81h2.49c.283.735.606 1.613.74 2.038.162.536.135.678-.376.762l-.377.057v.396h3.54v-.396c-.78-.085-.968-.184-1.426-1.442-.512-1.414-1.104-3.168-1.71-4.893l-.929-2.63-.54.17zm5.19-.17v.398c1.161.086 1.472.427 1.472 2.078v2.79c0 1.62-.07 2.417-.127 2.844-.071.513-.44.712-1.148.74v.399h3.458v-.4c-.907-.056-1.304-.226-1.375-.74-.057-.426-.128-1.222-.128-2.844V3.947h.028l5.838 7.17h.652V5.74c0-1.623.071-2.42.128-2.847.07-.512.44-.71 1.148-.74v-.398H91.33v.398c.906.058 1.303.228 1.374.74.056.428.127 1.224.127 2.847v2.702h-.028L87.15 1.755h-2.31m17.842 2.534c-.081-.799-.135-1.404-.244-2.175-.378-.083-1.27-.359-2.433-.359-3.027 0-5.218 1.941-5.218 4.833 0 2.176 1.434 4.529 4.975 4.529.945 0 2.162-.303 2.542-.413.216-.522.512-1.624.675-2.285l-.378-.082c-.703 1.46-1.38 2.23-2.84 2.23-1.972 0-3.216-1.777-3.216-4.337 0-2.038 1-3.923 3.217-3.923 1.257 0 2.109.467 2.542 2.037l.378-.055m.882-2.534v.378c1.133.082 1.25.19 1.25 1.648v4.725c0 1.458-.117 1.567-1.25 1.647v.379h4.096v-.379c-1.103-.08-1.22-.189-1.22-1.647V3.781c0-1.459.117-1.566 1.22-1.648v-.378h-4.096m10.166 2.231a28.627 28.627 0 0 1-.282-1.858c-.168-.07-.365-.097-.59-.18-.394-.137-.9-.193-1.28-.193-1.884 0-2.995 1.185-2.995 2.63 0 1.35 1.181 2.08 2.11 2.547l.45.22c1.11.537 1.49 1.088 1.49 1.859 0 .854-.563 1.555-1.477 1.555-1.448 0-2.208-1.528-2.489-2.243l-.422.137c.141.84.31 1.776.422 2.134.168.055.422.165.816.29.365.123.872.233 1.406.233 1.899 0 3.207-1.156 3.207-2.794 0-1.433-1.013-2.162-2.11-2.644l-.366-.165c-1.083-.481-1.646-.991-1.646-1.762 0-.785.507-1.445 1.436-1.445 1.18 0 1.617.963 1.87 1.762l.45-.083m9.43.303c-.08-.799-.136-1.404-.243-2.175-.378-.083-1.27-.359-2.433-.359-3.029 0-5.218 1.941-5.218 4.833 0 2.176 1.433 4.529 4.974 4.529.946 0 2.163-.303 2.541-.413.217-.522.515-1.624.676-2.285l-.378-.082c-.703 1.46-1.379 2.23-2.839 2.23-1.973 0-3.217-1.777-3.217-4.337 0-2.038 1-3.923 3.217-3.923 1.258 0 2.11.467 2.541 2.037l.38-.055M128 4.103h.04l1.05 3.11h-2.14l1.05-3.11zm.215-2.178l-2.72 7.354c-.47 1.273-.618 1.33-1.452 1.442v.396h2.987v-.396l-.376-.043c-.592-.07-.7-.254-.457-1.004.188-.594.43-1.385.605-1.81h2.49c.283.735.606 1.613.74 2.038.162.536.135.678-.377.762l-.376.057v.396h3.54v-.396c-.78-.085-.969-.184-1.427-1.442-.512-1.414-1.104-3.168-1.71-4.893l-.928-2.63-.54.17zm5.19-.17v.398c1.16.086 1.473.427 1.473 2.078v2.79c0 1.62-.071 2.417-.127 2.844-.071.513-.44.712-1.149.74v.399h3.458v-.4c-.907-.056-1.303-.226-1.375-.74-.056-.426-.127-1.222-.127-2.844V3.947h.028l5.838 7.17h.652V5.74c0-1.623.07-2.42.128-2.847.07-.512.439-.71 1.147-.74v-.398h-3.457v.398c.907.058 1.303.228 1.374.74.057.428.128 1.224.128 2.847v2.702h-.028l-5.654-6.687h-2.31m-73.138 52.66h.768v-2.4h2.561v2.4h.767v-5.266h-.767v2.203h-2.561v-2.203h-.768v5.266m7.606 0h2.926v-.664H68.62v-1.736h1.982v-.663H68.62v-1.54h2.177v-.663h-2.926v5.266m9.518-1.947h-2.097l1.049-2.61 1.048 2.61zm-3.667 1.947h.792l.536-1.328h2.58l.536 1.328h.822l-2.225-5.266h-.792l-2.249 5.266zm8.192 0h2.925v-.664h-2.179V49.15h-.746v5.266m6.93 0h.768v-4.602h1.664v-.664H87.18v.664h1.665v4.602m5.356 0h.767v-2.4h2.562v2.4h.767v-5.266h-.767v2.203H94.97v-2.203h-.767v5.266m14.39-5.084a3.328 3.328 0 0 0-1.073-.182c-.908 0-1.615.48-1.615 1.386 0 1.583 2.161 1.268 2.161 2.407 0 .598-.576.83-.986.83-.368 0-.8-.144-1.046-.247l-.071.679c.33.11.678.21 1.03.21 1.009 0 1.838-.43 1.838-1.516 0-1.678-2.162-1.452-2.162-2.43 0-.532.475-.677.879-.677.375 0 .576.065.944.211l.101-.671m5.144 5.084h.727v-2.203l1.973-3.063h-.85l-1.472 2.361-1.51-2.361h-.849l1.981 3.063v2.203m8.314-5.084a3.32 3.32 0 0 0-1.074-.182c-.908 0-1.614.48-1.614 1.386 0 1.583 2.161 1.268 2.161 2.407 0 .598-.576.83-.987.83-.367 0-.8-.144-1.045-.247l-.072.679c.331.11.677.21 1.03.21 1.01 0 1.838-.43 1.838-1.516 0-1.678-2.161-1.452-2.161-2.43 0-.532.476-.677.88-.677.374 0 .575.065.943.211l.1-.671m4.828 5.084h.767v-4.602h1.665v-.664h-4.096v.664h1.664v4.602m5.942 0h2.926v-.664h-2.178v-1.736h1.984v-.663h-1.984v-1.54h2.178v-.663h-2.926v5.266m6.436 0h.766v-4.557h.016l1.769 4.557h.75l1.77-4.557h.014v4.557h.766v-5.266h-1.263l-1.647 4.376-1.677-4.376h-1.264v5.266"/></g></svg>