<?xml version="1.0" encoding="utf-8"?>
<!-- Generator: Adobe Illustrator 23.1.1, SVG Export Plug-In . SVG Version: 6.00 Build 0)  -->
<svg version="1.1" id="Layer_1" xmlns="http://www.w3.org/2000/svg" xmlns:xlink="http://www.w3.org/1999/xlink" x="0px" y="0px"
	 viewBox="150 350 300 70" xml:space="preserve">
<style type="text/css">
	.st0{fill:#252F38;}
	.st1{fill:#006086;}
	.st2{fill:#FFFFFF;}
	.st3{fill:#FFFFFF;stroke:#FFFFFF;stroke-width:0.0875;stroke-miterlimit:3.8636;}
</style>
<g>
	<g>
		<g>
			<path class="st0" d="M218.29,369.64v-0.71c0.78-0.01,1.29-0.07,1.53-0.18c0.1-0.04,0.18-0.11,0.22-0.21
				c0.07-0.15,0.13-0.53,0.16-1.16c0.04-0.97,0.06-1.81,0.06-2.51v-8.98c0-0.24-0.01-0.4-0.04-0.47c-0.06-0.13-0.19-0.29-0.4-0.47
				c-0.13-0.12-0.29-0.19-0.46-0.23c-0.17-0.03-0.56-0.05-1.16-0.06v-0.71c1.27,0.03,2.07,0.04,2.4,0.04c0.56,0,1.11-0.01,1.66-0.04
				c0.62,0.82,1.07,1.42,1.36,1.81l2.26,2.81l3.29,4.01c1.05,1.28,1.9,2.28,2.54,3.02c0.41,0.48,0.75,0.87,1.03,1.15v-8.05
				c0-0.72-0.03-1.56-0.08-2.53c-0.03-0.61-0.08-0.99-0.14-1.13c-0.05-0.1-0.13-0.17-0.23-0.21c-0.24-0.1-0.75-0.16-1.51-0.17v-0.71
				c0.87,0.03,1.75,0.04,2.64,0.04c0.84,0,1.6-0.01,2.29-0.04v0.71c-0.77,0.01-1.28,0.06-1.52,0.17c-0.1,0.04-0.18,0.12-0.22,0.22
				c-0.07,0.14-0.13,0.53-0.16,1.16c-0.04,0.97-0.06,1.81-0.06,2.5v5.31c0,1.07,0.02,3.08,0.06,6.01l-1.14-0.33l-0.27-0.06
				c-0.04-0.01-0.09-0.04-0.12-0.07c-0.05-0.04-0.19-0.19-0.42-0.45c-0.61-0.7-1.06-1.23-1.35-1.59l-1.42-1.82l-7.83-9.46v8.56
				c0,0.73,0.03,1.59,0.08,2.58c0.03,0.62,0.08,1,0.14,1.14c0.05,0.1,0.13,0.18,0.23,0.22c0.24,0.1,0.75,0.16,1.51,0.17v0.71
				c-0.65-0.05-1.36-0.08-2.14-0.08C220.22,369.56,219.29,369.59,218.29,369.64z"/>
			<path class="st0" d="M235.65,361.9c0-1.16,0.17-2.24,0.53-3.23c0.35-0.99,0.93-1.87,1.74-2.66c0.81-0.79,1.73-1.38,2.75-1.78
				c1.02-0.4,2.2-0.6,3.51-0.6c1.21,0,2.32,0.17,3.31,0.51c0.99,0.34,1.81,0.8,2.45,1.36c0.64,0.56,1.14,1.18,1.51,1.85
				c0.28,0.5,0.5,1.09,0.67,1.77c0.17,0.68,0.25,1.4,0.25,2.18c0,2.48-0.83,4.55-2.5,6.2c-1.67,1.65-3.77,2.48-6.31,2.48
				c-1.16,0-2.24-0.19-3.24-0.56c-1-0.38-1.85-0.93-2.54-1.67c-0.69-0.74-1.22-1.64-1.58-2.7
				C235.83,363.97,235.65,362.93,235.65,361.9z M237.95,360.98c0,0.7,0.07,1.41,0.21,2.13c0.14,0.72,0.32,1.34,0.53,1.87
				c0.35,0.88,0.82,1.63,1.39,2.23c0.57,0.6,1.21,1.04,1.91,1.33c0.7,0.28,1.48,0.43,2.34,0.43c1.19,0,2.22-0.29,3.09-0.87
				c0.88-0.58,1.53-1.39,1.96-2.44c0.43-1.05,0.65-2.26,0.65-3.63c0-1.17-0.15-2.25-0.46-3.24c-0.19-0.6-0.45-1.15-0.76-1.64
				c-0.32-0.49-0.69-0.92-1.13-1.28c-0.44-0.36-1.01-0.67-1.71-0.92c-0.7-0.25-1.45-0.38-2.26-0.38c-1.17,0-2.2,0.26-3.08,0.78
				c-0.88,0.52-1.55,1.28-1.99,2.27C238.17,358.6,237.95,359.73,237.95,360.98z"/>
			<path class="st0" d="M252.94,354.66v-0.71c0.29,0.01,0.73,0.02,1.32,0.03l2.12,0.05c0.42,0,1.07-0.01,1.96-0.04
				c1.15-0.04,1.82-0.06,2-0.06c1.41,0,2.43,0.12,3.08,0.38c0.64,0.25,1.14,0.66,1.5,1.22c0.35,0.56,0.53,1.18,0.53,1.84
				c0,0.62-0.17,1.23-0.5,1.85c-0.33,0.61-0.81,1.12-1.44,1.52c-0.63,0.4-1.45,0.72-2.46,0.94c0.18,0.26,0.62,0.83,1.3,1.72
				l2.79,3.66c0.79,1.02,1.26,1.59,1.39,1.71c0.07,0.05,0.13,0.09,0.2,0.11c0.11,0.04,0.35,0.06,0.73,0.06v0.71
				c-0.56-0.05-1.04-0.08-1.46-0.08c-0.43,0-0.96,0.03-1.59,0.08c-0.48-0.55-1.29-1.63-2.42-3.23c-0.63-0.89-1.18-1.63-1.66-2.23
				c-0.78-0.99-1.51-1.88-2.22-2.68l0.11-0.33c0.38,0.02,0.67,0.03,0.87,0.03c1.34,0,2.36-0.32,3.05-0.95
				c0.69-0.63,1.04-1.47,1.04-2.51c0-0.91-0.3-1.63-0.89-2.16c-0.6-0.53-1.5-0.8-2.71-0.8c-0.76,0-1.5,0.11-2.23,0.34
				c-0.03,0.4-0.05,0.77-0.07,1.12c-0.01,0.1-0.03,1.17-0.08,3.21v4.9c0,1,0.02,1.98,0.06,2.93c0.01,0.7,0.06,1.12,0.15,1.25
				c0.08,0.13,0.22,0.23,0.41,0.29c0.19,0.06,0.72,0.1,1.58,0.12v0.71c-1.05-0.05-2.01-0.08-2.88-0.08c-0.71,0-1.9,0.03-3.57,0.08
				v-0.71c0.86-0.01,1.39-0.05,1.58-0.12c0.19-0.06,0.32-0.15,0.4-0.26c0.09-0.15,0.14-0.5,0.17-1.07c0.01-0.15,0.03-1.2,0.06-3.14
				v-5.11c0-1-0.01-1.98-0.03-2.94c-0.02-0.7-0.08-1.11-0.16-1.24c-0.08-0.13-0.22-0.22-0.41-0.29S253.82,354.67,252.94,354.66z"/>
			<path class="st0" d="M267.55,357.61h-0.68c-0.01-1.76-0.04-2.98-0.11-3.66c0.8,0.03,2.06,0.07,3.78,0.11
				c1.39,0.03,2.32,0.04,2.78,0.04c0.5,0,1.66-0.02,3.48-0.07c1.32-0.03,2.28-0.06,2.88-0.09c-0.09,0.83-0.15,2.04-0.18,3.66h-0.71
				l-0.09-1.06c-0.06-0.64-0.1-1.01-0.12-1.09c-0.02-0.09-0.05-0.15-0.09-0.19c-0.04-0.04-0.1-0.07-0.18-0.09
				c-0.1-0.02-0.47-0.05-1.1-0.09c-0.63-0.04-1.13-0.06-1.5-0.06h-1.35c-0.07,0.71-0.11,1.66-0.11,2.86v6.46
				c0,1,0.01,1.98,0.03,2.93c0.02,0.7,0.08,1.12,0.16,1.25c0.08,0.13,0.22,0.23,0.41,0.29s0.72,0.1,1.6,0.12v0.71
				c-1.32-0.06-2.31-0.09-2.97-0.09c-0.29,0-1.44,0.03-3.45,0.09v-0.71c0.87-0.01,1.4-0.05,1.59-0.12c0.19-0.06,0.32-0.15,0.38-0.26
				c0.09-0.15,0.15-0.5,0.18-1.07c0-0.15,0.02-1.2,0.05-3.14v-6.44c0-0.31-0.01-0.65-0.02-1.02l-0.07-1.87h-1.65
				c-0.95,0-1.71,0.04-2.26,0.11c-0.18,0.02-0.29,0.07-0.34,0.14c-0.08,0.13-0.16,0.53-0.22,1.2L267.55,357.61z"/>
			<path class="st0" d="M280.23,354.66v-0.71l3.38,0.08l3.12-0.08v0.71c-0.87,0.01-1.4,0.05-1.59,0.12
				c-0.19,0.06-0.32,0.15-0.39,0.26c-0.09,0.15-0.14,0.5-0.17,1.07c-0.01,0.15-0.03,1.19-0.05,3.14v1.54
				c1.45,0.05,3.22,0.08,5.3,0.08c1.6,0,2.88-0.03,3.83-0.08v-1.54c0-1-0.02-1.98-0.05-2.94c-0.02-0.7-0.08-1.11-0.16-1.24
				c-0.08-0.13-0.22-0.22-0.41-0.29c-0.19-0.06-0.72-0.1-1.59-0.12v-0.71c1.58,0.05,2.67,0.08,3.26,0.08c0.22,0,1.3-0.03,3.23-0.08
				v0.71c-0.87,0.01-1.39,0.05-1.58,0.12s-0.32,0.15-0.38,0.26c-0.09,0.15-0.15,0.5-0.18,1.07c-0.01,0.15-0.03,1.19-0.06,3.14v5.11
				c0,1,0.02,1.98,0.06,2.93c0.01,0.7,0.06,1.12,0.15,1.25c0.08,0.13,0.22,0.23,0.41,0.29s0.72,0.1,1.58,0.12v0.71
				c-1.42-0.05-2.59-0.08-3.49-0.08c-0.97,0-1.96,0.03-2.99,0.08v-0.71c0.88-0.01,1.41-0.05,1.6-0.12c0.19-0.06,0.32-0.15,0.39-0.26
				c0.1-0.15,0.15-0.5,0.17-1.07c0.01-0.15,0.03-1.2,0.05-3.13v-2.51c-2.06-0.05-3.63-0.08-4.7-0.08c-1.16,0-2.64,0.03-4.44,0.08
				v2.51c0,1,0.01,1.97,0.03,2.92c0.02,0.7,0.08,1.11,0.16,1.24c0.08,0.13,0.22,0.23,0.41,0.29c0.19,0.06,0.72,0.1,1.6,0.12v0.71
				c-0.99-0.05-2.02-0.08-3.07-0.08c-1.15,0-2.29,0.03-3.43,0.08v-0.71c0.87-0.01,1.39-0.05,1.58-0.12c0.19-0.06,0.32-0.15,0.4-0.26
				c0.09-0.15,0.14-0.5,0.16-1.07c0.01-0.15,0.03-1.2,0.06-3.14v-5.11c0-1-0.01-1.98-0.03-2.94c-0.02-0.7-0.08-1.11-0.16-1.24
				c-0.08-0.13-0.22-0.22-0.41-0.29C281.64,354.71,281.11,354.67,280.23,354.66z"/>
			<path class="st0" d="M305.24,369.1c0.12-0.71,0.19-1.85,0.21-3.43h0.74c0.04,1.08,0.1,1.71,0.18,1.91
				c0.08,0.2,0.29,0.4,0.61,0.62c0.33,0.22,0.76,0.42,1.31,0.59c0.55,0.17,1.07,0.26,1.58,0.26c0.75,0,1.43-0.17,2.06-0.51
				c0.63-0.34,1.08-0.79,1.37-1.35c0.29-0.56,0.43-1.15,0.43-1.79c0-0.49-0.07-0.91-0.22-1.26c-0.14-0.35-0.36-0.64-0.66-0.86
				c-0.29-0.22-0.66-0.37-1.09-0.46c-0.27-0.04-0.82-0.12-1.63-0.23c-0.82-0.11-1.51-0.22-2.09-0.35c-0.77-0.24-1.33-0.51-1.69-0.83
				c-0.36-0.32-0.65-0.73-0.88-1.25c-0.22-0.51-0.34-1.07-0.34-1.67c0-0.87,0.23-1.69,0.68-2.45c0.45-0.77,1.12-1.37,2.01-1.79
				c0.89-0.43,1.85-0.64,2.89-0.64c0.63,0,1.31,0.08,2.05,0.25c0.74,0.17,1.43,0.41,2.07,0.73c-0.1,0.46-0.18,0.9-0.22,1.3
				c-0.04,0.4-0.08,0.99-0.1,1.77h-0.74c-0.02-1.13-0.06-1.75-0.1-1.86c-0.18-0.27-0.44-0.5-0.75-0.72
				c-0.76-0.43-1.55-0.64-2.38-0.64c-1.07,0-1.92,0.33-2.56,0.98c-0.64,0.65-0.96,1.49-0.96,2.53c0,0.63,0.11,1.11,0.34,1.45
				c0.23,0.34,0.64,0.62,1.23,0.82c0.41,0.14,1.07,0.27,1.99,0.4c0.92,0.12,1.75,0.26,2.49,0.4c0.69,0.21,1.2,0.45,1.54,0.73
				c0.33,0.28,0.6,0.66,0.82,1.12c0.21,0.46,0.32,1,0.32,1.62c0,1.47-0.61,2.75-1.82,3.84c-1.21,1.09-2.79,1.64-4.72,1.64
				C307.75,369.96,306.42,369.67,305.24,369.1z"/>
			<path class="st0" d="M316.6,354.66v-0.71l3.38,0.08l3.12-0.08v0.71c-0.87,0.01-1.4,0.05-1.59,0.12
				c-0.19,0.06-0.32,0.15-0.39,0.26c-0.09,0.15-0.14,0.5-0.17,1.07c-0.01,0.15-0.03,1.19-0.05,3.14v1.54
				c1.45,0.05,3.22,0.08,5.3,0.08c1.6,0,2.88-0.03,3.83-0.08v-1.54c0-1-0.02-1.98-0.05-2.94c-0.02-0.7-0.08-1.11-0.16-1.24
				c-0.08-0.13-0.22-0.22-0.41-0.29c-0.19-0.06-0.72-0.1-1.59-0.12v-0.71c1.58,0.05,2.67,0.08,3.26,0.08c0.22,0,1.3-0.03,3.23-0.08
				v0.71c-0.87,0.01-1.39,0.05-1.58,0.12s-0.32,0.15-0.38,0.26c-0.09,0.15-0.15,0.5-0.18,1.07c-0.01,0.15-0.03,1.19-0.06,3.14v5.11
				c0,1,0.02,1.98,0.06,2.93c0.01,0.7,0.06,1.12,0.15,1.25c0.08,0.13,0.22,0.23,0.41,0.29s0.72,0.1,1.58,0.12v0.71
				c-1.42-0.05-2.59-0.08-3.49-0.08c-0.97,0-1.96,0.03-2.99,0.08v-0.71c0.88-0.01,1.41-0.05,1.6-0.12c0.19-0.06,0.32-0.15,0.39-0.26
				c0.1-0.15,0.15-0.5,0.17-1.07c0.01-0.15,0.03-1.2,0.05-3.13v-2.51c-2.06-0.05-3.63-0.08-4.7-0.08c-1.16,0-2.64,0.03-4.44,0.08
				v2.51c0,1,0.01,1.97,0.03,2.92c0.02,0.7,0.08,1.11,0.16,1.24c0.08,0.13,0.22,0.23,0.41,0.29c0.19,0.06,0.72,0.1,1.6,0.12v0.71
				c-0.99-0.05-2.02-0.08-3.07-0.08c-1.15,0-2.29,0.03-3.43,0.08v-0.71c0.87-0.01,1.39-0.05,1.58-0.12s0.32-0.15,0.4-0.26
				c0.09-0.15,0.14-0.5,0.16-1.07c0.01-0.15,0.03-1.2,0.06-3.14v-5.11c0-1-0.01-1.98-0.03-2.94c-0.02-0.7-0.08-1.11-0.16-1.24
				c-0.08-0.13-0.22-0.22-0.41-0.29C318.01,354.71,317.47,354.67,316.6,354.66z"/>
			<path class="st0" d="M334.52,361.9c0-1.16,0.17-2.24,0.53-3.23c0.35-0.99,0.93-1.87,1.74-2.66c0.81-0.79,1.73-1.38,2.75-1.78
				c1.02-0.4,2.2-0.6,3.51-0.6c1.21,0,2.32,0.17,3.31,0.51c0.99,0.34,1.81,0.8,2.45,1.36c0.64,0.56,1.14,1.18,1.51,1.85
				c0.28,0.5,0.5,1.09,0.67,1.77c0.17,0.68,0.25,1.4,0.25,2.18c0,2.48-0.84,4.55-2.5,6.2c-1.67,1.65-3.77,2.48-6.31,2.48
				c-1.16,0-2.24-0.19-3.24-0.56c-1-0.38-1.85-0.93-2.54-1.67c-0.69-0.74-1.22-1.64-1.58-2.7
				C334.7,363.97,334.52,362.93,334.52,361.9z M336.82,360.98c0,0.7,0.07,1.41,0.21,2.13c0.14,0.72,0.32,1.34,0.53,1.87
				c0.35,0.88,0.82,1.63,1.39,2.23c0.57,0.6,1.21,1.04,1.91,1.33c0.7,0.28,1.48,0.43,2.34,0.43c1.19,0,2.22-0.29,3.09-0.87
				c0.88-0.58,1.53-1.39,1.96-2.44c0.43-1.05,0.65-2.26,0.65-3.63c0-1.17-0.15-2.25-0.46-3.24c-0.19-0.6-0.45-1.15-0.76-1.64
				c-0.32-0.49-0.69-0.92-1.13-1.28c-0.44-0.36-1.01-0.67-1.71-0.92c-0.7-0.25-1.45-0.38-2.26-0.38c-1.17,0-2.2,0.26-3.08,0.78
				c-0.88,0.52-1.55,1.28-1.99,2.27C337.04,358.6,336.82,359.73,336.82,360.98z"/>
			<path class="st0" d="M351.81,354.66v-0.71c0.29,0.01,0.73,0.02,1.32,0.03l2.12,0.05c0.42,0,1.07-0.01,1.96-0.04
				c1.15-0.04,1.82-0.06,2-0.06c1.41,0,2.43,0.12,3.08,0.38c0.64,0.25,1.14,0.66,1.5,1.22c0.35,0.56,0.53,1.18,0.53,1.84
				c0,0.62-0.17,1.23-0.5,1.85c-0.33,0.61-0.81,1.12-1.44,1.52c-0.63,0.4-1.45,0.72-2.46,0.94c0.18,0.26,0.62,0.83,1.3,1.72
				l2.79,3.66c0.79,1.02,1.26,1.59,1.39,1.71c0.07,0.05,0.13,0.09,0.2,0.11c0.11,0.04,0.35,0.06,0.73,0.06v0.71
				c-0.56-0.05-1.04-0.08-1.46-0.08c-0.43,0-0.96,0.03-1.59,0.08c-0.48-0.55-1.29-1.63-2.42-3.23c-0.63-0.89-1.18-1.63-1.66-2.23
				c-0.78-0.99-1.51-1.88-2.22-2.68l0.11-0.33c0.38,0.02,0.67,0.03,0.87,0.03c1.34,0,2.36-0.32,3.05-0.95
				c0.69-0.63,1.04-1.47,1.04-2.51c0-0.91-0.3-1.63-0.89-2.16c-0.6-0.53-1.5-0.8-2.71-0.8c-0.76,0-1.5,0.11-2.23,0.34
				c-0.03,0.4-0.05,0.77-0.07,1.12c-0.01,0.1-0.03,1.17-0.08,3.21v4.9c0,1,0.02,1.98,0.06,2.93c0.01,0.7,0.06,1.12,0.15,1.25
				c0.08,0.13,0.22,0.23,0.41,0.29c0.19,0.06,0.72,0.1,1.58,0.12v0.71c-1.05-0.05-2.01-0.08-2.88-0.08c-0.71,0-1.9,0.03-3.57,0.08
				v-0.71c0.86-0.01,1.39-0.05,1.58-0.12c0.19-0.06,0.32-0.15,0.4-0.26c0.09-0.15,0.14-0.5,0.17-1.07c0.01-0.15,0.03-1.2,0.06-3.14
				v-5.11c0-1-0.01-1.98-0.03-2.94c-0.02-0.7-0.08-1.11-0.16-1.24c-0.08-0.13-0.22-0.22-0.41-0.29S352.69,354.67,351.81,354.66z"/>
			<path class="st0" d="M366.75,369.64v-0.71c0.77-0.01,1.28-0.07,1.52-0.18c0.1-0.04,0.18-0.11,0.22-0.21
				c0.07-0.15,0.12-0.53,0.15-1.16c0.04-0.97,0.07-1.81,0.07-2.52v-5.64c0-1-0.01-1.98-0.03-2.93c-0.02-0.7-0.08-1.11-0.16-1.24
				c-0.08-0.13-0.22-0.22-0.41-0.29c-0.19-0.06-0.72-0.1-1.6-0.12v-0.71l3.15,0.07l3.34-0.06c1.6-0.02,2.76-0.03,3.48-0.03
				c0.73,0,1.42,0.04,2.07,0.12c-0.12,0.42-0.2,0.78-0.24,1.09c-0.02,0.07-0.08,0.83-0.2,2.3h-0.7c0.01-0.75-0.04-1.44-0.14-2.05
				c-0.41-0.17-0.85-0.28-1.34-0.34c-0.83-0.1-1.65-0.15-2.47-0.15c-0.18,0-0.57,0.02-1.18,0.04s-1.05,0.06-1.31,0.08
				c-0.03,0.82-0.05,1.58-0.07,2.29l-0.04,3.72c0.86,0.05,1.65,0.08,2.38,0.08c0.88,0,1.62-0.04,2.24-0.12
				c0.24-0.03,0.39-0.09,0.45-0.18c0.07-0.09,0.12-0.39,0.18-0.91l0.07-0.77h0.66v0.21l-0.05,2.3l0.05,2.57h-0.77l-0.03-0.75
				c-0.02-0.54-0.07-0.88-0.15-1.02c-0.09-0.13-0.25-0.22-0.48-0.28c-0.42-0.09-1.23-0.13-2.44-0.13c-0.49,0-1.19,0.02-2.1,0.06
				c-0.04,0.74-0.06,1.83-0.06,3.28c0,1.36,0.02,2.4,0.06,3.1c1.06,0.08,2.25,0.12,3.56,0.12c0.93,0,1.6-0.03,2-0.09
				c0.4-0.06,0.76-0.16,1.1-0.3c0.09-0.23,0.18-0.54,0.26-0.93c0.16-0.66,0.27-1.15,0.32-1.48h0.74c-0.19,1.49-0.29,2.72-0.29,3.7
				c-0.63,0.1-1.4,0.15-2.31,0.15l-6.6-0.08C369.55,369.56,368.58,369.59,366.75,369.64z"/>
		</g>
		<g>
			<path class="st1" d="M218.12,376.17v-1.01c2.12,0.07,3.79,0.11,5.02,0.11c0.82,0,1.69-0.01,2.62-0.04l2.48-0.09
				c0.27-0.01,0.53-0.02,0.76-0.02c1.67,0,2.99,0.18,3.95,0.55c0.96,0.37,1.71,0.95,2.24,1.76c0.54,0.81,0.8,1.72,0.8,2.75
				c0,0.93-0.22,1.85-0.67,2.76c-0.45,0.92-1.1,1.69-1.95,2.33c-0.85,0.64-1.74,1.09-2.67,1.37c-0.63,0.19-1.35,0.28-2.15,0.28
				c-0.67,0-1.4-0.07-2.18-0.22l-0.33-1.17c0.94,0.22,1.67,0.33,2.21,0.33c0.79,0,1.54-0.19,2.25-0.58
				c0.71-0.38,1.26-0.96,1.66-1.74c0.39-0.77,0.59-1.63,0.59-2.57c0-0.91-0.19-1.73-0.58-2.46c-0.38-0.73-0.97-1.29-1.75-1.67
				c-0.78-0.38-1.73-0.57-2.85-0.57c-1,0-2.07,0.18-3.22,0.54c-0.09,1.12-0.14,2.86-0.14,5.24v7.95c0,1.43,0.02,2.82,0.05,4.18
				c0.03,1,0.11,1.59,0.23,1.78c0.12,0.19,0.32,0.33,0.58,0.42c0.27,0.09,1.03,0.14,2.28,0.17v1.01c-1.95-0.07-3.38-0.11-4.29-0.11
				c-0.36,0-2,0.04-4.94,0.11v-1.01c1.24-0.02,1.99-0.08,2.26-0.17c0.27-0.09,0.46-0.21,0.57-0.37c0.12-0.21,0.2-0.72,0.24-1.53
				c0.01-0.22,0.04-1.71,0.08-4.48v-7.3c0-1.43-0.02-2.83-0.05-4.2c-0.03-1-0.11-1.59-0.23-1.77c-0.12-0.18-0.32-0.32-0.58-0.41
				C220.14,376.25,219.38,376.19,218.12,376.17z"/>
			<path class="st1" d="M236.36,397.58v-0.9l1.48-0.02c0.23-0.01,0.41-0.05,0.53-0.12c0.12-0.07,0.21-0.15,0.28-0.26
				c0.12-0.21,0.18-0.58,0.21-1.12c0.01-0.14,0.05-1.65,0.11-4.53v-8.16c0-1.76-0.03-3.57-0.08-5.45c-0.04-1.26-0.1-1.97-0.17-2.12
				c-0.05-0.11-0.14-0.18-0.25-0.22c-0.16-0.07-0.89-0.11-2.19-0.11v-0.93c2.38-0.29,4.03-0.66,4.96-1.1
				c0.14-0.06,0.24-0.09,0.32-0.09c0.07,0,0.13,0.02,0.17,0.07c0.04,0.05,0.06,0.11,0.06,0.2c0,0.07-0.01,0.18-0.03,0.32l-0.01,0.52
				c-0.05,1.88-0.08,3.49-0.09,4.81l-0.03,2.46v4.61c0.15-0.12,0.56-0.47,1.25-1.07c0.68-0.6,1.09-0.96,1.21-1.07
				c0.2-0.19,0.36-0.32,0.47-0.38c0.2-0.11,0.5-0.21,0.9-0.32c0.55-0.15,1.08-0.22,1.59-0.22c0.97,0,1.88,0.23,2.75,0.69
				c0.87,0.46,1.47,1.03,1.81,1.73c0.34,0.69,0.5,1.72,0.5,3.08v2.78l0.04,2.18c0.03,1.36,0.04,2.12,0.04,2.29
				c0.02,0.51,0.09,0.87,0.19,1.11c0.04,0.11,0.11,0.19,0.19,0.26c0.09,0.07,0.21,0.12,0.38,0.15c0.06,0.01,0.61,0.03,1.65,0.05v0.9
				c-1.2-0.05-2.07-0.08-2.62-0.08c-0.46,0-1.42,0.03-2.86,0.08c0.15-1.56,0.22-3.07,0.22-4.55v-3.92c0-1.22-0.09-2.1-0.27-2.64
				c-0.18-0.54-0.54-1.02-1.1-1.44c-0.55-0.43-1.29-0.64-2.2-0.64c-0.58,0-1.09,0.08-1.55,0.25c-0.45,0.17-0.87,0.42-1.25,0.76
				c-0.38,0.34-0.7,0.7-0.96,1.09c-0.13,0.19-0.21,0.42-0.25,0.69c-0.04,0.27-0.06,0.81-0.06,1.62v1.85
				c0.04,2.73,0.07,4.2,0.08,4.42c0.02,0.53,0.08,0.91,0.19,1.15c0.04,0.11,0.11,0.19,0.19,0.26c0.08,0.07,0.21,0.12,0.38,0.15
				c0.07,0.01,0.66,0.03,1.76,0.05v0.9c-1.87-0.07-3.17-0.11-3.88-0.11C239.8,397.47,238.44,397.5,236.36,397.58z"/>
			<path class="st1" d="M254.39,406.02l0.81-2.43h0.38c0.2,0.17,0.37,0.3,0.51,0.4c0.14,0.1,0.29,0.18,0.46,0.23
				c0.16,0.05,0.4,0.08,0.72,0.08c0.33,0,0.64-0.07,0.96-0.21c0.31-0.14,0.6-0.37,0.87-0.67c0.27-0.3,0.59-0.83,0.96-1.58
				c0.56-1.13,1.06-2.28,1.5-3.45c-0.34-0.95-0.74-2.01-1.22-3.19l-2.51-6.22c-0.75-1.85-1.36-3.27-1.83-4.25
				c-0.19-0.39-0.39-0.65-0.61-0.78c-0.22-0.13-0.7-0.24-1.44-0.32v-0.9c1.31,0.07,2.6,0.11,3.87,0.11c1.24,0,2.44-0.04,3.59-0.11
				v0.9c-1.08,0.07-1.71,0.14-1.86,0.2c-0.27,0.1-0.41,0.29-0.41,0.56c0,0.17,0.09,0.51,0.27,1.03c0.41,1.3,0.8,2.4,1.17,3.32
				l1,2.47c0.6,1.48,1.11,2.67,1.52,3.59l0.83-1.87c0.33-0.74,0.9-2.14,1.72-4.21c0.82-2.07,1.3-3.34,1.43-3.82
				c0.04-0.17,0.06-0.32,0.06-0.44c0-0.2-0.08-0.35-0.25-0.47c-0.16-0.11-0.8-0.22-1.9-0.32v-0.95c1.22,0.07,2.3,0.11,3.24,0.11
				c0.95,0,1.88-0.04,2.81-0.11l-0.16,0.95c-0.54,0.02-0.95,0.14-1.25,0.35c-0.29,0.21-0.74,0.92-1.33,2.12
				c-0.59,1.21-1.7,3.58-3.31,7.11l-3.65,8.52c-0.59,1.38-1.1,2.36-1.53,2.95c-0.43,0.59-0.95,1.04-1.55,1.34
				c-0.6,0.3-1.26,0.46-1.97,0.46c-0.35,0-0.66-0.04-0.94-0.12C255.05,406.35,254.74,406.21,254.39,406.02z"/>
			<path class="st1" d="M272.46,392.81h0.95c0.01,0.61,0.04,1.09,0.09,1.45c0.05,0.36,0.14,0.71,0.27,1.05
				c0.13,0.34,0.32,0.63,0.59,0.87c0.26,0.24,0.55,0.42,0.86,0.55c0.31,0.13,0.63,0.22,0.95,0.26c0.32,0.04,0.81,0.06,1.46,0.06
				c1.08,0,1.96-0.28,2.65-0.85c0.69-0.57,1.04-1.35,1.04-2.34c0-0.44-0.11-0.83-0.32-1.17c-0.22-0.34-0.53-0.6-0.93-0.79
				c-0.41-0.19-1.28-0.44-2.62-0.74c-1.34-0.31-2.2-0.53-2.59-0.66c-0.59-0.22-1.06-0.49-1.41-0.81c-0.35-0.32-0.62-0.72-0.83-1.2
				c-0.21-0.48-0.31-1.01-0.31-1.58c0-0.83,0.22-1.6,0.66-2.3c0.44-0.7,1.12-1.27,2.06-1.71c0.94-0.44,1.96-0.66,3.07-0.66
				c0.66,0,1.43,0.09,2.31,0.28c0.88,0.18,1.59,0.41,2.13,0.69c-0.07,1.17-0.13,2.36-0.16,3.57h-0.9c-0.05-0.77-0.11-1.27-0.18-1.52
				c-0.07-0.24-0.16-0.46-0.28-0.65c-0.12-0.19-0.32-0.39-0.6-0.61c-0.29-0.22-0.65-0.41-1.1-0.58c-0.45-0.17-1-0.25-1.65-0.25
				c-0.93,0-1.67,0.27-2.24,0.82c-0.56,0.55-0.85,1.19-0.85,1.93c0,0.41,0.08,0.76,0.25,1.06c0.16,0.29,0.38,0.53,0.66,0.72
				c0.27,0.18,0.66,0.35,1.15,0.5l2.63,0.65c1.33,0.34,2.24,0.63,2.74,0.87c0.5,0.24,0.9,0.62,1.21,1.13
				c0.31,0.51,0.46,1.12,0.46,1.84c0,1.42-0.59,2.66-1.76,3.72c-1.18,1.06-2.75,1.59-4.72,1.59c-0.91,0-2.11-0.14-3.62-0.41
				c-0.83-0.16-1.28-0.27-1.34-0.33c-0.04-0.03-0.06-0.08-0.06-0.16c0-0.07,0.01-0.16,0.03-0.27c0.09-0.45,0.16-0.89,0.19-1.33
				C272.42,395.08,272.44,394.18,272.46,392.81z"/>
			<path class="st1" d="M284.78,384.58v-0.9c2.04-0.23,3.76-0.67,5.15-1.33l0.35,0.25c-0.08,2.24-0.13,3.96-0.13,5.15v2.87
				c0.05,2.74,0.08,4.22,0.09,4.44c0.01,0.53,0.07,0.91,0.17,1.15c0.05,0.09,0.12,0.18,0.21,0.24c0.08,0.07,0.21,0.12,0.38,0.17
				c0.06,0.01,0.65,0.03,1.75,0.05v0.9c-1.6-0.07-2.88-0.11-3.84-0.11c-0.84,0-2.22,0.04-4.14,0.11v-0.9l1.51-0.02
				c0.22-0.01,0.39-0.05,0.52-0.12c0.12-0.07,0.21-0.15,0.28-0.26c0.12-0.21,0.19-0.58,0.22-1.12c0-0.14,0.03-1.65,0.08-4.53v-2.78
				c0-1.57-0.05-2.5-0.16-2.79c-0.06-0.16-0.18-0.28-0.34-0.36C286.72,384.62,286.02,384.58,284.78,384.58z M288.63,375.35
				c0.49,0,0.91,0.17,1.25,0.52s0.51,0.77,0.51,1.26c0,0.48-0.17,0.9-0.52,1.25c-0.35,0.35-0.76,0.52-1.25,0.52
				c-0.5,0-0.92-0.17-1.26-0.52c-0.35-0.35-0.52-0.76-0.52-1.25c0-0.49,0.17-0.92,0.52-1.26
				C287.71,375.52,288.14,375.35,288.63,375.35z"/>
			<path class="st1" d="M306.53,395.78l-0.63,1.06c-0.73,0.39-1.44,0.67-2.16,0.85c-0.71,0.18-1.51,0.27-2.41,0.27
				c-2.21,0-3.97-0.67-5.28-2c-1.31-1.33-1.97-3.16-1.97-5.49c0-1.23,0.18-2.3,0.53-3.22c0.35-0.91,0.79-1.61,1.3-2.11
				c0.35-0.35,1.01-0.8,1.98-1.35c0.97-0.55,1.66-0.91,2.04-1.07c0.71-0.31,1.57-0.46,2.57-0.46c0.95,0,1.8,0.1,2.56,0.3
				c0.48,0.13,0.97,0.34,1.45,0.63c-0.12,0.81-0.21,1.42-0.26,1.84c-0.05,0.42-0.12,1.17-0.2,2.27h-0.9
				c-0.06-1.02-0.13-1.66-0.19-1.91c-0.04-0.16-0.14-0.3-0.29-0.43c-0.38-0.29-0.87-0.55-1.46-0.77c-0.6-0.22-1.25-0.32-1.95-0.32
				c-0.89,0-1.65,0.18-2.3,0.55c-0.65,0.36-1.15,0.94-1.51,1.73c-0.36,0.79-0.54,1.77-0.54,2.94c0,1.43,0.25,2.73,0.76,3.89
				c0.5,1.16,1.19,2,2.06,2.54c0.87,0.53,1.84,0.8,2.91,0.8c0.54,0,1.06-0.07,1.57-0.2c0.51-0.13,1.16-0.38,1.96-0.75L306.53,395.78
				z"/>
			<path class="st1" d="M307.24,384.58v-0.9c2.04-0.23,3.76-0.67,5.15-1.33l0.35,0.25c-0.08,2.24-0.13,3.96-0.13,5.15v2.87
				c0.05,2.74,0.08,4.22,0.09,4.44c0.01,0.53,0.07,0.91,0.17,1.15c0.05,0.09,0.12,0.18,0.21,0.24c0.08,0.07,0.21,0.12,0.38,0.17
				c0.06,0.01,0.65,0.03,1.75,0.05v0.9c-1.6-0.07-2.88-0.11-3.84-0.11c-0.84,0-2.22,0.04-4.14,0.11v-0.9l1.51-0.02
				c0.22-0.01,0.39-0.05,0.52-0.12c0.12-0.07,0.21-0.15,0.28-0.26c0.12-0.21,0.19-0.58,0.22-1.12c0-0.14,0.03-1.65,0.08-4.53v-2.78
				c0-1.57-0.05-2.5-0.16-2.79c-0.06-0.16-0.18-0.28-0.34-0.36C309.19,384.62,308.49,384.58,307.24,384.58z M311.1,375.35
				c0.49,0,0.91,0.17,1.25,0.52s0.51,0.77,0.51,1.26c0,0.48-0.17,0.9-0.52,1.25c-0.35,0.35-0.76,0.52-1.25,0.52
				c-0.5,0-0.92-0.17-1.26-0.52c-0.35-0.35-0.52-0.76-0.52-1.25c0-0.49,0.17-0.92,0.52-1.26
				C310.18,375.52,310.6,375.35,311.1,375.35z"/>
			<path class="st1" d="M318.72,386.76l-0.84-0.22c0.01-0.24,0.02-0.57,0.02-0.99c0-0.44,0-0.79-0.02-1.06
				c1.34-0.87,2.43-1.46,3.29-1.77c0.65-0.22,1.39-0.33,2.2-0.33c1.2,0,2.21,0.23,3.04,0.68c0.82,0.45,1.43,1.1,1.83,1.94
				c0.27,0.59,0.41,1.39,0.41,2.42l-0.08,2.89v4.7c0,0.51,0.04,0.87,0.13,1.09c0.06,0.16,0.16,0.27,0.3,0.35
				c0.1,0.06,0.33,0.1,0.66,0.13l1.03,0.09v0.9c-0.86-0.07-1.62-0.11-2.27-0.11c-0.63,0-1.47,0.04-2.53,0.11l0.08-2.78
				c-2.15,1.62-3.42,2.53-3.82,2.74c-0.4,0.21-0.91,0.31-1.52,0.31c-1.27,0-2.27-0.34-2.98-1.02c-0.71-0.68-1.07-1.58-1.07-2.71
				c0-0.73,0.12-1.39,0.37-1.99c0.25-0.6,0.54-1.08,0.89-1.43c0.35-0.35,0.7-0.61,1.06-0.78c0.61-0.28,1.6-0.59,2.98-0.92
				c1.37-0.33,2.73-0.57,4.08-0.73c0.01-1-0.11-1.78-0.36-2.34c-0.25-0.56-0.68-1.02-1.28-1.37c-0.6-0.36-1.33-0.54-2.19-0.54
				c-0.62,0-1.17,0.08-1.63,0.25c-0.47,0.17-0.76,0.31-0.86,0.43l-0.28,0.57C319.07,385.91,318.86,386.41,318.72,386.76z
				 M325.97,389.24c-1.37,0.23-2.54,0.49-3.5,0.77c-0.97,0.28-1.65,0.58-2.05,0.88c-0.24,0.18-0.45,0.45-0.63,0.81
				c-0.27,0.53-0.41,1.11-0.41,1.75c0,0.78,0.21,1.39,0.65,1.82c0.43,0.44,1.03,0.66,1.8,0.66c0.71,0,1.4-0.2,2.09-0.61
				c0.69-0.41,1.38-1.01,2.06-1.82V389.24z"/>
			<path class="st1" d="M331.26,397.58v-0.9l1.51-0.02c0.22-0.01,0.39-0.05,0.52-0.12c0.12-0.07,0.21-0.15,0.28-0.26
				c0.12-0.21,0.19-0.58,0.22-1.12c0-0.14,0.03-1.65,0.08-4.53v-1.88c0-0.84-0.02-1.75-0.05-2.72c-0.03-0.62-0.08-0.99-0.15-1.11
				c-0.07-0.12-0.19-0.2-0.36-0.26c-0.17-0.06-0.85-0.08-2.05-0.07v-0.9c2.12-0.29,3.68-0.68,4.66-1.15
				c0.21-0.1,0.35-0.16,0.43-0.16c0.07,0,0.13,0.03,0.17,0.08c0.04,0.05,0.06,0.13,0.06,0.24c0,0.07,0,0.16-0.02,0.25
				c-0.03,0.38-0.06,1.18-0.09,2.4l2.94-2.51c0.86-0.32,1.68-0.47,2.45-0.47c0.85,0,1.66,0.17,2.42,0.52
				c0.76,0.35,1.34,0.78,1.72,1.31c0.38,0.53,0.64,1.19,0.77,1.99c0.07,0.47,0.11,1.79,0.11,3.96v2.79c0,1.37,0.04,2.3,0.11,2.79
				c0.05,0.32,0.13,0.53,0.25,0.65c0.11,0.12,0.28,0.2,0.51,0.23l1.69,0.05v0.9c-1.03-0.07-1.89-0.11-2.57-0.11
				c-0.59,0-1.57,0.04-2.94,0.11c0.15-2.6,0.22-4.24,0.22-4.93V390c0-1.65-0.06-2.74-0.19-3.25c-0.18-0.71-0.58-1.27-1.22-1.71
				c-0.63-0.43-1.39-0.65-2.29-0.65c-0.79,0-1.51,0.19-2.16,0.56c-0.65,0.37-1.12,0.81-1.4,1.29c-0.28,0.49-0.42,1.31-0.42,2.47
				v1.91c0.05,2.74,0.08,4.22,0.08,4.44c0.02,0.53,0.08,0.91,0.19,1.15c0.04,0.09,0.11,0.18,0.19,0.24c0.08,0.07,0.22,0.12,0.4,0.17
				c0.06,0.01,0.65,0.03,1.75,0.05v0.9c-1.28-0.07-2.45-0.11-3.49-0.11C334.7,397.47,333.26,397.5,331.26,397.58z"/>
			<path class="st1" d="M350.44,392.81h0.95c0.01,0.61,0.04,1.09,0.09,1.45c0.05,0.36,0.14,0.71,0.27,1.05
				c0.13,0.34,0.32,0.63,0.59,0.87c0.26,0.24,0.55,0.42,0.86,0.55c0.31,0.13,0.63,0.22,0.95,0.26c0.32,0.04,0.81,0.06,1.46,0.06
				c1.08,0,1.96-0.28,2.65-0.85c0.69-0.57,1.04-1.35,1.04-2.34c0-0.44-0.11-0.83-0.32-1.17c-0.22-0.34-0.53-0.6-0.93-0.79
				c-0.41-0.19-1.28-0.44-2.62-0.74c-1.34-0.31-2.2-0.53-2.59-0.66c-0.59-0.22-1.06-0.49-1.41-0.81c-0.35-0.32-0.62-0.72-0.83-1.2
				c-0.21-0.48-0.31-1.01-0.31-1.58c0-0.83,0.22-1.6,0.66-2.3c0.44-0.7,1.12-1.27,2.06-1.71c0.94-0.44,1.96-0.66,3.07-0.66
				c0.66,0,1.43,0.09,2.31,0.28c0.88,0.18,1.59,0.41,2.13,0.69c-0.07,1.17-0.13,2.36-0.16,3.57h-0.9c-0.05-0.77-0.11-1.27-0.18-1.52
				c-0.07-0.24-0.16-0.46-0.28-0.65c-0.12-0.19-0.32-0.39-0.6-0.61c-0.29-0.22-0.65-0.41-1.1-0.58c-0.45-0.17-1-0.25-1.65-0.25
				c-0.93,0-1.67,0.27-2.24,0.82c-0.56,0.55-0.85,1.19-0.85,1.93c0,0.41,0.08,0.76,0.25,1.06c0.16,0.29,0.38,0.53,0.66,0.72
				c0.27,0.18,0.66,0.35,1.15,0.5l2.63,0.65c1.33,0.34,2.24,0.63,2.74,0.87c0.5,0.24,0.9,0.62,1.21,1.13
				c0.31,0.51,0.46,1.12,0.46,1.84c0,1.42-0.59,2.66-1.76,3.72c-1.18,1.06-2.75,1.59-4.72,1.59c-0.91,0-2.11-0.14-3.62-0.41
				c-0.83-0.16-1.28-0.27-1.34-0.33c-0.04-0.03-0.06-0.08-0.06-0.16c0-0.07,0.01-0.16,0.03-0.27c0.09-0.45,0.16-0.89,0.19-1.33
				C350.39,395.08,350.42,394.18,350.44,392.81z"/>
			<path class="st1" d="M391.31,396.35c-1.6,0.58-2.91,0.97-3.93,1.17c-1.8,0.35-3.5,0.52-5.11,0.52c-2.43,0-4.59-0.48-6.49-1.43
				c-1.89-0.95-3.36-2.29-4.39-4c-1.03-1.72-1.55-3.74-1.55-6.08c0-2.05,0.37-3.8,1.11-5.23c0.74-1.44,1.67-2.62,2.78-3.54
				c1.11-0.93,2.22-1.61,3.32-2.05c1.69-0.67,3.79-1.01,6.28-1.01c1.17,0.01,2.4,0.15,3.69,0.4c1.29,0.26,2.74,0.61,4.36,1.07
				c-0.16,0.54-0.28,1.06-0.36,1.58c-0.08,0.52-0.2,1.57-0.33,3.17h-0.96l-0.08-1.8c-0.01-0.27-0.02-0.49-0.03-0.66
				c-0.01-0.17-0.08-0.38-0.2-0.65c-0.28-0.38-0.74-0.72-1.36-1.03c-1.07-0.41-1.96-0.68-2.66-0.82c-0.7-0.14-1.53-0.21-2.5-0.21
				c-2,0-3.73,0.43-5.19,1.28c-1.46,0.85-2.57,2.07-3.32,3.66c-0.75,1.59-1.13,3.33-1.13,5.21c0,2.07,0.44,3.94,1.32,5.6
				c0.88,1.66,2.06,2.93,3.54,3.8c1.48,0.88,3.2,1.32,5.17,1.32c0.93,0,1.82-0.09,2.69-0.27c0.87-0.18,1.6-0.43,2.2-0.74
				c0.09-0.42,0.14-1.09,0.14-2.02v-1.75c0-0.93-0.05-1.47-0.14-1.63c-0.09-0.16-0.35-0.28-0.77-0.35
				c-0.42-0.08-1.37-0.14-2.87-0.18v-0.96l4.92,0.11c0.96,0,1.94-0.04,2.94-0.11l0.09,0.76l-1.18,0.69
				c-0.13,1.13-0.19,2.16-0.19,3.11C391.12,394.21,391.19,395.24,391.31,396.35z"/>
			<path class="st1" d="M393.6,397.58v-0.9c1.2-0.02,1.84-0.04,1.94-0.06c0.18-0.03,0.32-0.08,0.41-0.15
				c0.09-0.07,0.16-0.17,0.21-0.29c0.11-0.24,0.17-0.62,0.19-1.14c0.05-2.81,0.08-4.28,0.08-4.4v-1.88c0-0.84-0.02-1.75-0.05-2.72
				c-0.02-0.62-0.07-0.99-0.13-1.11c-0.07-0.12-0.19-0.2-0.36-0.26c-0.17-0.06-0.86-0.08-2.06-0.07v-0.9
				c2.13-0.29,3.68-0.68,4.66-1.15c0.21-0.1,0.35-0.16,0.43-0.16c0.07,0,0.13,0.03,0.17,0.08c0.04,0.05,0.06,0.13,0.06,0.24
				c0,0.07-0.01,0.16-0.02,0.25c-0.05,0.64-0.08,1.64-0.09,2.98c0.47-0.55,0.91-1.09,1.31-1.63c0.4-0.54,0.69-0.88,0.87-1.04
				c0.32-0.27,0.68-0.49,1.09-0.65c0.41-0.16,0.84-0.25,1.28-0.25c0.44,0,0.88,0.09,1.31,0.28l0.09,0.22
				c-0.16,1.4-0.25,2.63-0.27,3.69h-0.71c-0.24-0.5-0.52-0.87-0.84-1.1c-0.32-0.23-0.72-0.35-1.21-0.35c-0.81,0-1.5,0.33-2.07,1
				c-0.57,0.67-0.85,1.67-0.85,3.01v1.63c0,0.69,0.03,1.96,0.08,3.8c0.01,0.65,0.04,1.07,0.08,1.25c0.04,0.18,0.1,0.31,0.17,0.39
				c0.07,0.08,0.18,0.14,0.34,0.2c0.32,0.09,1.17,0.19,2.56,0.28v0.9c-1.85-0.07-3.43-0.11-4.74-0.11
				C396.17,397.47,394.87,397.5,393.6,397.58z"/>
			<path class="st1" d="M405.49,390.31c0-2.36,0.75-4.29,2.25-5.78c1.5-1.49,3.42-2.24,5.77-2.24c2.21,0,4.01,0.7,5.4,2.09
				c1.39,1.39,2.08,3.19,2.08,5.39c0,1.54-0.36,2.94-1.07,4.22c-0.72,1.27-1.73,2.27-3.03,2.99c-1.31,0.72-2.74,1.08-4.31,1.08
				c-1.22,0-2.26-0.21-3.1-0.62c-0.85-0.41-1.53-0.93-2.06-1.55c-0.53-0.62-0.93-1.26-1.2-1.91
				C405.73,392.84,405.49,391.61,405.49,390.31z M408.47,389.14c0,1.3,0.21,2.61,0.65,3.95c0.43,1.34,1.06,2.32,1.87,2.93
				c0.82,0.62,1.7,0.92,2.66,0.92c1.22,0,2.24-0.48,3.06-1.45c0.82-0.97,1.23-2.46,1.23-4.47c0-1.68-0.25-3.12-0.73-4.34
				c-0.49-1.22-1.11-2.08-1.87-2.58c-0.76-0.5-1.59-0.75-2.51-0.75c-1.29,0-2.34,0.47-3.15,1.41
				C408.88,385.7,408.47,387.16,408.47,389.14z"/>
			<path class="st1" d="M440.1,396.68v0.9c-1.38-0.07-2.42-0.11-3.13-0.11c-0.78,0-1.57,0.04-2.37,0.11
				c0.06-0.85,0.11-1.81,0.14-2.87c-0.63,0.5-1.38,1.19-2.26,2.07c-0.2,0.2-0.39,0.35-0.58,0.44c-0.45,0.25-0.9,0.43-1.36,0.54
				c-0.45,0.11-0.99,0.17-1.62,0.17c-0.85,0-1.56-0.12-2.14-0.35c-0.57-0.23-1.06-0.58-1.47-1.06c-0.31-0.35-0.54-0.8-0.71-1.35
				c-0.16-0.55-0.25-1.22-0.25-2c0-0.37,0.01-0.72,0.04-1.04c0.03-0.33,0.04-0.65,0.04-0.96v-2.7c0-0.27-0.02-0.96-0.05-2.07
				c-0.02-0.69-0.07-1.15-0.14-1.36c-0.04-0.11-0.11-0.19-0.21-0.25c-0.16-0.1-0.44-0.16-0.84-0.16c-0.58,0-1.04-0.01-1.37-0.02
				v-0.9c2.26-0.25,3.9-0.66,4.93-1.22c0.17-0.09,0.3-0.14,0.39-0.14c0.07,0,0.13,0.03,0.18,0.08c0.05,0.05,0.07,0.13,0.07,0.24
				c0,0.08-0.01,0.19-0.02,0.32c-0.04,0.34-0.08,0.98-0.11,1.94c-0.06,1.76-0.09,2.94-0.09,3.54v3.08c0,1.28,0.09,2.19,0.26,2.71
				s0.51,0.94,1.01,1.25c0.5,0.31,1.12,0.47,1.85,0.47c0.5,0,1.01-0.09,1.51-0.26c0.5-0.17,0.95-0.42,1.35-0.75
				c0.29-0.24,0.6-0.57,0.9-0.98c0.23-0.3,0.38-0.54,0.46-0.7c0.07-0.16,0.12-0.4,0.14-0.72c0.05-0.93,0.08-1.85,0.08-2.76v-1.33
				c0-0.27-0.02-0.96-0.05-2.07c-0.02-0.69-0.07-1.15-0.14-1.36c-0.04-0.11-0.11-0.19-0.21-0.25c-0.16-0.1-0.44-0.16-0.84-0.16
				c-0.58,0-1.04-0.01-1.37-0.02v-0.9c2.26-0.25,3.89-0.66,4.91-1.22c0.17-0.09,0.3-0.14,0.39-0.14c0.07,0,0.13,0.03,0.18,0.08
				c0.05,0.05,0.07,0.13,0.07,0.24c0,0.08,0,0.19-0.01,0.32c-0.03,0.34-0.06,1.01-0.1,2c-0.06,1.72-0.09,2.87-0.09,3.47v2.16
				l0.03,2.19c0.04,1.27,0.07,2.02,0.08,2.24c0.01,0.53,0.07,0.91,0.17,1.15c0.05,0.09,0.12,0.18,0.2,0.24
				c0.08,0.07,0.21,0.12,0.38,0.17C438.42,396.64,439,396.66,440.1,396.68z"/>
			<path class="st1" d="M440.19,384.57v-0.9c0.19,0,0.59-0.04,1.2-0.13c0.61-0.09,1.29-0.24,2.04-0.46
				c0.75-0.22,1.31-0.42,1.69-0.62c0.12-0.06,0.21-0.09,0.28-0.09c0.07,0,0.13,0.03,0.18,0.08c0.05,0.05,0.07,0.14,0.07,0.27
				c0,0.05,0,0.18-0.02,0.38c-0.02,0.31-0.03,0.58-0.03,0.84v1.67c1.78-1.65,2.89-2.58,3.33-2.79c0.58-0.28,1.44-0.43,2.59-0.43
				c1.34,0,2.49,0.3,3.46,0.91c0.97,0.61,1.67,1.39,2.11,2.35s0.66,1.99,0.66,3.09c0,0.66-0.08,1.29-0.23,1.88
				c-0.15,0.59-0.35,1.14-0.58,1.67c-0.24,0.52-0.5,1-0.79,1.44c-0.29,0.44-0.56,0.77-0.81,0.99c-0.15,0.14-0.53,0.45-1.14,0.95
				c-0.62,0.5-1.27,0.92-1.97,1.29c-0.7,0.36-1.19,0.59-1.46,0.67c-0.6,0.19-1.24,0.28-1.91,0.28c-0.53,0-1.04-0.06-1.54-0.19
				c-0.5-0.13-1.07-0.34-1.7-0.65v2.51c0.04,2.66,0.07,4.13,0.08,4.4c0.01,0.52,0.07,0.89,0.19,1.14c0.04,0.12,0.11,0.21,0.2,0.28
				c0.09,0.07,0.22,0.12,0.39,0.15c0.1,0.02,0.73,0.04,1.89,0.06v0.9c-1.32-0.05-3.06-0.08-5.22-0.08c-1.2,0-2.12,0.03-2.76,0.08
				v-0.9l1.51-0.02c0.22-0.01,0.39-0.05,0.52-0.12c0.12-0.07,0.21-0.16,0.28-0.26c0.12-0.21,0.19-0.58,0.22-1.12
				c0.01-0.14,0.04-1.64,0.08-4.52v-5.61c0-1.82-0.02-3.69-0.06-5.61c-0.04-1.92-0.09-2.96-0.13-3.14
				c-0.05-0.17-0.12-0.31-0.23-0.39c-0.11-0.09-0.24-0.15-0.41-0.18L440.19,384.57z M445.61,394.33c0.56,0.57,1.19,1.02,1.91,1.34
				c0.71,0.33,1.47,0.49,2.26,0.49c0.96,0,1.83-0.24,2.61-0.72c0.78-0.48,1.4-1.22,1.86-2.23c0.46-1.01,0.69-2.11,0.69-3.3
				c0-1.15-0.22-2.14-0.65-2.99c-0.44-0.85-1.06-1.48-1.86-1.91c-0.8-0.43-1.6-0.64-2.42-0.64c-0.6,0-1.19,0.12-1.78,0.36
				c-0.58,0.24-1.11,0.58-1.59,1.03c-0.47,0.45-0.79,0.88-0.95,1.29c-0.06,0.2-0.09,0.58-0.09,1.15V394.33z"/>
		</g>
	</g>
</g>
<g>
	<path class="st1" d="M178.14,414.71c0,0-11.47-5.82-19.11-16.29c-7.64-10.47-7.48-28.25-7.48-46.02h53.17
		c0,17.78,0.17,35.56-7.47,46.02C189.6,408.89,178.14,414.71,178.14,414.71z"/>
	<path class="st2" d="M178.13,413.8c0,0-11.15-5.66-18.59-15.84c-7.44-10.18-7.27-27.48-7.27-44.77h51.72
		c0,17.29,0.16,34.59-7.27,44.77C189.28,408.14,178.13,413.8,178.13,413.8z"/>
	<path class="st1" d="M178.15,412.48c0,0-10.53-5.39-17.56-15.09c-7.02-9.7-6.87-26.18-6.87-42.65h48.85
		c0,16.48,0.15,32.95-6.87,42.65C188.68,407.09,178.15,412.48,178.15,412.48z"/>
	<g>
		<polygon class="st2" points="179.71,362.78 203.3,364.86 203.3,359.91 		"/>
	</g>
	<g>
		<path class="st2" d="M179.62,395.77c2.54-1.48,3.59-1.9,5.58-1.84c1.09,0.03,2.82,0.66,3.72,1.34c0.14,0.1,0.22,0.03,0.11-0.11
			c-2.03-2.56-5.18-3.07-7.56-2.85c-1.7,0.15-3.13,0.71-4.68,1.57c-2.82,1.55-5.12,2.41-6.7,2.35c-0.92-0.04-1.87-0.46-2.46-0.95
			c-0.13-0.11-0.23-0.02-0.11,0.11c1.75,1.76,4.42,2.53,7.71,2.08C176.75,397.26,178.69,396.31,179.62,395.77z"/>
	</g>
	<g>
		<path class="st2" d="M181.51,398.56c1.49-0.91,2.11-1.18,3.27-1.14c0.64,0.02,1.65,0.4,2.18,0.82c0.08,0.06,0.12,0.01,0.06-0.07
			c-1.18-1.57-3.03-1.88-4.43-1.74c-1,0.1-1.83,0.44-2.74,0.97c-1.65,0.96-3,1.5-3.93,1.46c-0.54-0.02-1.09-0.28-1.44-0.58
			c-0.08-0.06-0.13-0.01-0.06,0.07c1.02,1.08,2.58,1.55,4.51,1.27C179.83,399.48,180.97,398.89,181.51,398.56z"/>
	</g>
	<g>
		<path class="st3" d="M159.55,379.79c0-0.95-0.05-1.06-1.12-1.02v-0.57c0.53,0.04,0.98,0.07,1.32,0.07c0.36,0,0.79-0.03,1.37-0.04
			l3.07,3.81l2.1,2.42l0.3,0.33v-5c0-0.95-0.05-1.06-1.12-1.02v-0.57c0.59,0.04,1.1,0.07,1.48,0.07c0.4,0,0.88-0.03,1.54-0.07v0.57
			c-1.07-0.04-1.12,0.07-1.12,1.02v6.26l0.03,0.99v0.33l-0.07,0.07l-1.09-0.17l-5.91-6.98v5.42c0,0.95,0.05,1.06,1.12,1.02v0.57
			c-0.63-0.04-1.12-0.07-1.52-0.07c-0.38,0-0.88,0.03-1.5,0.07v-0.57c1.07,0.04,1.12-0.07,1.12-1.02V379.79z"/>
		<path class="st3" d="M169.96,384.56l0.04,1.16c0.41,0.61,1.44,1.02,2.12,1.02c1.12,0,2.07-0.59,2.07-1.8
			c0-0.57-0.33-1.23-1.23-1.39l-1.29-0.22c-1.57-0.28-2.35-1.23-2.35-2.36c0-2.11,1.57-2.92,3.48-2.92c0.82,0,1.62,0.12,2.47,0.46
			l0.05,0.16c-0.13,0.61-0.15,1.25-0.18,1.89h-0.59l-0.03-1.06c-0.4-0.5-1.13-0.73-1.76-0.73c-1.1,0-1.89,0.66-1.89,1.54
			c0,1.03,0.7,1.24,1.54,1.39l1.07,0.2c1.48,0.28,2.36,1.1,2.36,2.36c0,1.32-0.69,2.39-2.1,2.93c-0.41,0.16-1.33,0.25-1.77,0.25
			c-0.95,0-1.92-0.2-2.76-0.65c0.16-0.74,0.2-1.49,0.2-2.24H169.96z"/>
		<path class="st3" d="M185.97,380l-1.43,2.88l-1.94,4.17l-0.15,0.3h-0.45c-0.03-0.12-0.31-0.73-0.48-1.1l-3.04-6.27v5.71
			c0,0.95,0.05,1.06,1.12,1.02v0.57c-0.62-0.04-1.11-0.07-1.49-0.07s-0.88,0.03-1.53,0.07v-0.57c1.07,0.04,1.12-0.07,1.12-1.02
			v-5.91c0-0.95-0.05-1.06-1.12-1.02v-0.57c0.78,0.04,1.27,0.07,1.65,0.07c0.4,0,0.87-0.03,1.52-0.07c0.24,0.57,0.68,1.57,0.99,2.15
			l2.09,4.36c0.21-0.38,0.39-0.77,0.58-1.16c0.96-2.06,2.12-4.51,2.48-5.35c0.65,0.04,1.13,0.07,1.52,0.07
			c0.4,0,0.87-0.03,1.53-0.07v0.57c-1.07-0.04-1.12,0.07-1.12,1.02v5.91c0,0.95,0.05,1.06,1.12,1.02v0.57
			c-0.87-0.04-1.53-0.07-2.05-0.07c-0.52,0-1.19,0.03-2.06,0.07v-0.55c1.06,0.03,1.11-0.08,1.12-1.03V380z"/>
		<path class="st3" d="M197.61,386.72c-0.91,0.55-1.98,0.73-3.04,0.73c-1.35,0-2.73-0.32-3.75-1.24c-1.03-0.92-1.48-2.24-1.48-3.6
			c0-3.04,2.47-4.55,5.28-4.55c1.08,0,1.95,0.15,3.01,0.49c0.11,0.04,0.25,0.07,0.21,0.27c-0.08,0.42-0.19,1.45-0.21,2.03h-0.51
			c-0.01-0.38-0.03-0.75-0.08-1.13c-0.63-0.67-1.47-0.91-2.36-0.91c-0.98,0-1.91,0.36-2.56,1.11c-0.58,0.67-0.78,1.65-0.78,2.53
			c0,1.11,0.28,2.18,1.04,3.01c0.81,0.87,1.68,1.15,2.84,1.15c0.78,0,1.85-0.28,2.52-0.67l0.16,0.16L197.61,386.72z"/>
	</g>
	<path class="st2" d="M181.65,365c-1.11-0.37-2.21-0.47-3.48-0.47c-1.28,0-2.43,0.15-3.5,0.48l0.59-3.94
		c0.85-0.38,1.85-0.6,2.91-0.6c1.07,0,2.07,0.22,2.92,0.61L181.65,365z"/>
	<path class="st2" d="M185.12,367.96c-2.03-0.82-4.41-1.29-6.96-1.29c-2.57,0-4.97,0.48-7.01,1.31l1.18-0.86
		c1.71-0.68,3.7-1.07,5.83-1.07c2.14,0,4.15,0.4,5.86,1.08L185.12,367.96z"/>
	<path class="st2" d="M185.12,369.55c-2.03-0.82-4.41-1.29-6.96-1.29c-2.57,0-4.97,0.48-7.01,1.31l2.02,1.38l-0.78,4.36
		c0,0,5.56-2.37,11.53,0.03l0,0l-0.72-4.4L185.12,369.55z"/>
	<path class="st2" d="M174.69,360.18c0,0,3.43-1.91,7.02,0.07l-3.56-2.33L174.69,360.18z"/>
	<path class="st2" d="M178.58,358.21c0,0-0.27-0.09-0.27-0.34c0-0.25,0.07-0.5,0.07-0.5s0.19-0.12-0.24-0.41
		c-0.42,0.29-0.24,0.41-0.24,0.41s0.07,0.25,0.07,0.5c0,0.25-0.27,0.34-0.27,0.34"/>
</g>
</svg>
