<?xml version="1.0" encoding="UTF-8"?> <!-- Generator: Adobe Illustrator 24.1.2, SVG Export Plug-In . SVG Version: 6.00 Build 0) --> <svg xmlns="http://www.w3.org/2000/svg" xmlns:xlink="http://www.w3.org/1999/xlink" version="1.1" id="Layer_1" x="0px" y="0px" viewBox="0 0 213 41" style="enable-background:new 0 0 213 41;" xml:space="preserve"> <style type="text/css"> .st0{fill:#00BF6F;} </style> <desc>Created with Sketch.</desc> <path id="Shape" class="st0" d="M32.2,0.1C30,0.1,28,0.9,26,1.9l0,0c-1.8,1.3-3.3,3-4,5c-1.8-4-5.8-6.8-10.3-6.8 c-6,0-11,4.8-11.3,10.8c0,0.3,0,0.3,0,0.5c0,3.8,2,7,4.8,9c1.5,1,3.5,1.8,5.5,2H3c-1.8,2-2.5,4.5-2.5,7.3C0.5,36,5.5,41,11.8,41 S23,35.9,23,29.6c-0.3-3.8-2-7-5-9.3c1.8-1,3-2.8,4-4.5c1.8,3.8,5.5,6.8,10.3,6.8c1.5,0,2.8-0.3,4-0.8v-21 C34.7,0.4,33.5,0.1,32.2,0.1z"></path> <path id="Shape_1_" class="st0" d="M119.7,31.6l-2.2-1c-1.2-0.5-1.7-1-1.7-1.5c0-0.8,0.7-1.3,1.7-1.3c1.2,0,2.5,0.5,3.7,1.5l2-2.6 c-1.5-1.5-3.2-2.6-5.4-2.6c-3.5,0-5.7,1.8-5.7,4.9c0,2.8,2,3.9,3.2,4.4l2.5,1c1.5,0.5,1.7,1,1.7,1.8c0,0.5-0.5,1.3-2,1.3 s-3.2-1-4.4-2.3l-2,2.6c1.2,2.1,3.7,3.1,6.4,3.1c3.7,0,5.9-2.1,5.9-5.1C123.4,34.2,122.1,32.7,119.7,31.6z"></path> <path id="Shape_2_" class="st0" d="M140.6,31.6l-2.2-1c-1.2-0.5-1.7-1-1.7-1.5c0-0.8,0.7-1.3,1.7-1.3c1.2,0,2.5,0.5,3.7,1.5l2-2.6 c-1.5-1.5-3.2-2.6-5.4-2.6c-3.5,0-5.7,1.8-5.7,4.9c0,2.8,2,3.9,3.2,4.4l2.5,1c1.5,0.5,1.7,1,1.7,1.8c0,0.5-0.5,1.3-2,1.3 s-3.2-1-4.4-2.3l-2,2.6c1.2,2.1,3.7,3.1,6.4,3.1c3.7,0,5.9-2.1,5.9-5.1C144.4,34.2,143.1,32.7,140.6,31.6z"></path> <path id="Shape_3_" class="st0" d="M179.9,25.7c-1.2-1.3-2.7-1.8-4.7-1.8c-4.2,0-7.7,3.6-7.7,8.5s3.2,8.5,7.4,8.5 c2.5,0,3.9-0.8,5.2-2.3v2h3.5V24.1h-3.9v1.6L179.9,25.7L179.9,25.7z M175.9,37c-2.5,0-4.2-2.1-4.2-4.9s1.7-4.9,4.2-4.9 s4.2,2.1,4.2,4.9C180.1,35.2,178.4,37,175.9,37z"></path> <path id="Shape_4_" class="st0" d="M127.6,17c-1.5,0-2.5,1-2.5,2.6c0,1.5,1,2.6,2.5,2.6c1.5,0,2.5-1,2.5-2.6 C130,18.1,129,17,127.6,17z"></path> <rect id="Rectangle-path" x="125.6" y="24.5" class="st0" width="3.9" height="16.1"></rect> <path id="Shape_5_" class="st0" d="M86.1,23.9c-1.7,0-3.2,0.5-4.4,1.8v-1.5h-3.5v16.4h3.9v-9.7c0-2.1,1.2-3.3,3.2-3.3 c1.7,0,3,1.3,3,3.3v9.7h3.9V30.4C92,26.5,89.6,23.9,86.1,23.9z"></path> <path id="Shape_6_" class="st0" d="M68.3,23.9c-4.4,0-7.9,3.6-7.9,8.5s3.5,8.5,8.4,8.5c2,0,4.4-0.8,6.2-2.6l-1.7-2.8 c-1.2,1-3,1.8-4.2,1.8c-2.5,0-3.9-1.3-4.7-3.6h11.1c0.2-0.5,0.2-1.3,0.2-2.3C75.5,27,72.5,23.9,68.3,23.9z M64.4,30.6 c0.5-2.1,2-3.3,3.9-3.3s3.5,1.3,3.5,3.3H64.4z"></path> <path id="Shape_7_" class="st0" d="M102.4,23.9c-4.4,0-7.9,3.6-7.9,8.5s3.5,8.5,8.4,8.5c2,0,4.4-0.8,6.2-2.6l-1.7-2.8 c-1.2,1-3,1.8-4.2,1.8c-2.5,0-3.9-1.3-4.7-3.6h11.1c0.2-0.5,0.2-1.3,0.2-2.3C109.6,27,106.6,23.9,102.4,23.9z M98.2,30.6 c0.5-2.1,2-3.3,3.9-3.3c2,0,3.5,1.3,3.5,3.3H98.2z"></path> <path id="Shape_8_" class="st0" d="M212.5,31.4c0-4.4-3-7.4-7.2-7.4c-4.4,0-7.9,3.6-7.9,8.5s3.5,8.5,8.4,8.5c2,0,4.4-0.8,6.2-2.6 l-1.7-2.8c-1.2,1-3,1.8-4.2,1.8c-2.5,0-3.9-1.3-4.7-3.6h11.1C212.2,33.2,212.5,32.4,212.5,31.4z M201.1,30.6c0.5-2.1,2-3.3,3.9-3.3 c2,0,3.5,1.3,3.5,3.3H201.1z"></path> <path id="Shape_9_" class="st0" d="M190.7,26.2v-2.1h-3.5v16.4h3.9v-8.3c0-1.5,0.5-2.4,1.2-3.2c1-0.8,2.5-1,3.9-0.8v-4.1h-0.1 c-0.8-0.2-1.6-0.2-2.3,0C192.6,24.5,191.5,25.1,190.7,26.2z"></path> <path id="Shape_10_" class="st0" d="M48.1,32.7H54v2.1c-1.2,1.5-3.5,2.6-5.7,2.6c-4.2,0-7.2-3.1-7.2-7.4s3-7.4,6.9-7.4 c2.2,0,3.9,1,5.7,3.3l3-2.3c-2-3.1-5.2-4.9-8.6-4.9c-6.2,0-11.1,4.9-11.1,11C37,36.1,41.9,41,48.1,41c4.2,0,7.7-2.1,9.6-5.9v-6.4 h-9.9v4.1L48.1,32.7L48.1,32.7z"></path> <path id="Shape_11_" class="st0" d="M157.2,37.5c-3.9,0-6.9-3.1-6.9-7.4c0-4.1,3-7.4,6.9-7.4c2.5,0,4.2,1.3,6.2,3.6l3-2.3 c-2-3.3-5.2-5.1-9.1-5.1c-6.2,0-11.1,4.9-11.1,11c0,6.4,4.9,11,11.1,11c3.9,0,7.2-1.8,9.1-5.1l-3-2.3 C161.9,36.3,159.7,37.5,157.2,37.5z"></path> </svg> 