<svg id="Layer_1" data-name="Layer 1" xmlns="http://www.w3.org/2000/svg" viewBox="0 0 200 72" width="200px" height="72px"><defs><style>.cls-1{fill:#0099d7;}</style></defs><path class="cls-1" d="M25.7,21.18c-.05.43-.2.43-.39.43A20,20,0,0,0,17,19.54c-2.71,0-10.81.32-10.81,12.49,0,8,2.42,12.3,9,12.3,2.7,0,5-.77,6-1.64a1,1,0,0,0,.44-.87v-7H15.09c-.39,0-.68-.15-.73-.53L14,30.68c0-.58.14-.82.67-.82H26.47c.53,0,.72.19.72.72V43.22A3.17,3.17,0,0,1,26,45.87c-1.93,1.79-6.32,3.48-10.66,3.48C6.23,49.35.52,44.76.52,32.18c0-16,10.82-17.76,16.16-17.76,4.77,0,8.68,1.45,9.45,2.13.28.27.22.5.1,1.44ZM44.56,49.25c-9.17,0-13.07-4.82-13.07-14.18,0-8.59,4.39-13.8,12.05-13.8,6.27,0,11.05,3.67,11.05,12.54,0,.44-.05,3.09-.14,3.43a.44.44,0,0,1-.44.34H37c.58,4.58,3,6.85,8.69,6.85a15.16,15.16,0,0,0,7.23-2c.19,0,.34.1.34.29l.24,3.95a.56.56,0,0,1-.24.53A19.29,19.29,0,0,1,44.56,49.25ZM36.94,33.33H49.28C49.14,28.12,47.07,26,43.35,26,39.4,26,37.32,28.56,36.94,33.33ZM61.78,19c-2.17,0-3.43-1.3-3.43-3.09s1.26-3.09,3.43-3.09S65.2,14,65.2,15.87,63.9,19,61.78,19Zm2.7,3.18v26.1a.42.42,0,0,1-.48.48H59.56c-.34,0-.48-.15-.48-.48V22.53c0-.24,0-.44.48-.48L64,21.66C64.38,21.66,64.48,21.8,64.48,22.14ZM88.06,41.05c0,4.73-3.66,8.2-10.41,8.2A18.06,18.06,0,0,1,69,47c-.24-.14-.29-.34-.24-.67l.48-3.81c0-.34.15-.44.29-.44.39,0,4.15,2.41,8.35,2.41,3.52,0,5-1.35,5-3.18s-1-2.61-5.45-4.05c-5.25-1.84-8.1-3.52-8.1-8.35,0-4.39,3.67-7.57,9.69-7.57a18.4,18.4,0,0,1,7.77,1.74c.34.14.43.33.39.77l-.29,3.81c0,.34-.24.43-.39.43-.58,0-3.66-2-7.62-2-2.89,0-4.39,1-4.39,2.55s1.16,2.42,5.16,3.62C85.17,34.06,88.06,36.08,88.06,41.05ZM95.49,19c-2.17,0-3.42-1.3-3.42-3.09s1.25-3.09,3.42-3.09,3.43,1.26,3.43,3.09S97.61,19,95.49,19Zm2.7,3.18v26.1c0,.33-.14.48-.48.48H93.27a.42.42,0,0,1-.48-.48V22.53c0-.24,0-.44.48-.48l4.39-.39C98.1,21.66,98.19,21.8,98.19,22.14Zm22,9.84c0-4.05-1.83-5.5-5.26-5.5a8.92,8.92,0,0,0-5.59,1.74.68.68,0,0,0-.24.58V48.24c0,.33-.15.48-.49.48h-4.43c-.34,0-.49-.15-.49-.48V26.1a1.56,1.56,0,0,1,.73-1.35c1.49-1.4,5.79-3.38,11-3.38,6.75,0,10.17,3,10.17,9.65V48.24c0,.33-.14.48-.48.48h-4.44c-.34,0-.48-.15-.48-.48Zm20.11,27.64a21.86,21.86,0,0,1-8.39-1.69c-.24-.09-.29-.38-.29-.67l.34-3.91c0-.29.14-.34.29-.34.43,0,3.18,1.88,7.38,1.88,5.79,0,7.81-2.46,7.81-6.07V47.56a17.6,17.6,0,0,1-7.18,1.59c-6.61,0-10.66-4.48-10.66-13.7,0-9.4,5.25-14.08,12.78-14.08,4.15,0,8.25,1.79,9.89,3.28a1.89,1.89,0,0,1,.57,1.54V48.72C152.79,55.52,148.41,59.62,140.25,59.62Zm1.5-15.19a15,15,0,0,0,5.64-1.31v-15a.68.68,0,0,0-.34-.58,8.92,8.92,0,0,0-5.16-1.44c-4.14,0-6.94,2.79-6.94,9.26C135,41.19,137.26,44.43,141.75,44.43Zm28.17,4.82c-9.17,0-13.07-4.82-13.07-14.18,0-8.59,4.39-13.8,12.05-13.8,6.27,0,11,3.67,11,12.54,0,.44,0,3.09-.14,3.43a.44.44,0,0,1-.44.34h-17c.58,4.58,3,6.85,8.69,6.85a15.16,15.16,0,0,0,7.23-2c.19,0,.34.1.34.29l.24,3.95a.56.56,0,0,1-.24.53A19.29,19.29,0,0,1,169.92,49.25ZM162.3,33.33h12.34c-.14-5.21-2.21-7.33-5.93-7.33C164.76,26,162.68,28.56,162.3,33.33Zm37.09-11.28-.24,4.34c0,.33-.15.53-.39.53a16.52,16.52,0,0,0-3.13-.39c-3,0-5.07.92-5.84,1.64a.86.86,0,0,0-.34.68V48.24c0,.33-.14.48-.48.48h-4.44c-.34,0-.48-.15-.48-.48V26.05a1.6,1.6,0,0,1,.72-1.35c1.84-1.69,6.08-3.33,10.23-3.33a18.8,18.8,0,0,1,4,.34C199.29,21.76,199.39,21.9,199.39,22.05Z"/></svg>