<?xml version="1.0" encoding="utf-8"?>
<!-- Generator: Adobe Illustrator 25.2.3, SVG Export Plug-In . SVG Version: 6.00 Build 0)  -->
<svg version="1.1" id="Layer_1" xmlns="http://www.w3.org/2000/svg" xmlns:xlink="http://www.w3.org/1999/xlink" x="0px" y="0px"
	 viewBox="0 0 465.9 123.7" style="enable-background:new 0 0 465.9 123.7;" xml:space="preserve">
<style type="text/css">
	.st0{display:none;}
	.st1{display:inline;fill:none;stroke:#DA1C5C;stroke-miterlimit:10;}
	.st2{display:inline;fill:#ED1C24;}
	.st3{fill:#007934;}
	.st4{clip-path:url(#SVGID_2_);}
	.st5{fill:#002F87;}
	.st6{clip-path:url(#SVGID_4_);}
	.st7{fill:url(#SVGID_5_);}
	.st8{fill:#FFFFFF;}
	.st9{clip-path:url(#SVGID_9_);}
	.st10{fill:url(#SVGID_10_);}
	.st11{fill:none;stroke:#FFFFFF;stroke-width:6.0111;stroke-miterlimit:10;}
</style>
<g class="st0">
	<line class="st1" x1="418.7" y1="2.5" x2="-32.5" y2="2.5"/>
	<line class="st1" x1="418.7" y1="44.7" x2="-32.5" y2="44.7"/>
	<line class="st1" x1="418.7" y1="23.5" x2="-32.5" y2="23.5"/>
</g>
<g class="st0">
	<rect x="216.2" y="84.7" class="st2" width="32.4" height="7.4"/>
</g>
<g>
	<g>
		<path class="st3" d="M174.9,52h-12.3c-0.7-4.1-3.4-6.5-8-6.5c-6.7,0-10.9,5.8-10.9,15.2c0,9.7,4.1,15.6,10.8,15.6
			c5.9,0,9.3-3.6,9.5-9.8h-10.1v-8.9h20.8V84h-9.8v-4.8h-0.1c-2.7,3.6-7.3,5.7-13.1,5.7c-12.2,0-19.9-9.2-19.9-24.3
			c0-15.4,8.7-24.8,22.8-24.8C166.5,35.9,174.1,42.2,174.9,52z"/>
		<path class="st3" d="M195.7,46.5v8.9h20.4v9.5h-20.4v9.5h22.4V84h-33.8V36.9h33.3v9.6H195.7z"/>
		<path class="st3" d="M272.4,84V61c0-5.8,0.1-11.6,0.4-17.4h-0.1c-1.3,5.7-2.9,11.5-4.5,17.1L261.5,84h-13.6l-6.7-23.3
			c-1.6-5.6-3.2-11.4-4.5-17.1h-0.1c0.3,5.8,0.4,11.6,0.4,17.4v23h-10.8V36.9h18.3l6,20.9c1.6,5.8,3,11.6,4.1,17.3h0.1
			c1.1-5.8,2.4-11.6,4-17.3l6.1-20.9h18.3V84H272.4z"/>
		<path class="st3" d="M293.2,84V36.9h11.4V84H293.2z"/>
		<path class="st3" d="M341.2,84L333,65.5c-2.7-6.1-5.4-12.5-7.7-18.9h-0.1c0.3,6.6,0.5,13.2,0.5,19.9V84h-11V36.9h16.5l8.3,18.6
			c2.6,6.1,5.3,12.5,7.7,18.9h0.1c-0.4-6.6-0.5-13.2-0.5-19.9V36.9h11V84H341.2z"/>
		<path class="st3" d="M406.1,65.8c0,12.4-6.9,19.3-19.4,19.3c-12.4,0-19.3-6.9-19.3-19.3V36.9h11.4v28.6c0,6.2,2.8,9.5,7.9,9.5
			c5.2,0,7.9-3.3,7.9-9.5V36.9h11.4V65.8z"/>
		<path class="st3" d="M450,51.3h-11.9c0-4.2-2.4-6.6-7-6.6c-3.8,0-6.2,1.8-6.2,4.4c0,3.1,2.5,4.1,9.4,5.8c9.1,2.2,17,4.7,17,15
			c0,9.2-7.5,15.1-19.3,15.1c-12.2,0-19.7-5.9-19.7-16.4h12.2c0,4.8,2.6,7.3,7.8,7.3c4.3,0,6.9-1.9,6.9-5c0-3.6-2.7-4.3-9-6
			c-9-2.3-17.1-4.6-17.1-14.8c0-8.6,7.1-14.4,18.5-14.4C443.4,35.9,450,41.2,450,51.3z"/>
	</g>
	<g>
		<defs>
			<path id="SVGID_1_" d="M14.6,22.8v89.1h107.5V22.8C122.1,22.8,72.6-2.1,14.6,22.8z"/>
		</defs>
		<clipPath id="SVGID_2_">
			<use xlink:href="#SVGID_1_"  style="overflow:visible;"/>
		</clipPath>
		<g class="st4">
			<path class="st5" d="M14.6,22.8v89.1H122V22.8C122,22.8,72.5-2.1,14.6,22.8z"/>
			<path class="st3" d="M14.6,82.8l0,29.1l107.5,0.2l0.1-29.5C122.1,82.6,73.4,59.3,14.6,82.8z"/>
			<g>
				<defs>
					<path id="SVGID_3_" d="M14.5,78.3c0,0,53.7-19.3,107.1-0.2l0.3-51.4c0,0-49.9-24.8-107.4-0.1C14.5,26.6,14.8,80,14.5,78.3z"/>
				</defs>
				<clipPath id="SVGID_4_">
					<use xlink:href="#SVGID_3_"  style="overflow:visible;"/>
				</clipPath>
				<g class="st6">
					
						<radialGradient id="SVGID_5_" cx="34.5422" cy="-8.0598" r="79.4976" gradientTransform="matrix(0.6918 0 0 0.6618 43.6833 78.7967)" gradientUnits="userSpaceOnUse">
						<stop  offset="0.25" style="stop-color:#FFFFFF"/>
						<stop  offset="0.3718" style="stop-color:#FCFCFD"/>
						<stop  offset="0.4696" style="stop-color:#F2F4F9"/>
						<stop  offset="0.5591" style="stop-color:#E1E6F1"/>
						<stop  offset="0.6437" style="stop-color:#C9D3E6"/>
						<stop  offset="0.7249" style="stop-color:#AABAD7"/>
						<stop  offset="0.8034" style="stop-color:#849BC5"/>
						<stop  offset="0.8799" style="stop-color:#5876B0"/>
						<stop  offset="0.9529" style="stop-color:#254D98"/>
						<stop  offset="1" style="stop-color:#002F87"/>
					</radialGradient>
					<polygon class="st7" points="67.6,16.2 69.6,51.7 78,17.4 73.5,52.7 87.9,21.1 77.1,54.5 96.9,27.1 80.3,57.2 104.7,35.1 
						83,60.6 110.8,44.8 85,64.6 115,55.8 86.2,68.9 117.2,67.5 86.6,73.5 117.2,79.5 86.2,78 115,91.2 85,82.4 110.8,102.1 
						83,86.3 104.7,111.8 80.3,89.7 96.9,119.8 77.1,92.4 87.9,125.8 73.5,94.3 78,129.5 69.6,95.2 67.6,130.7 65.6,95.2 
						57.2,129.5 61.7,94.3 47.3,125.8 58,92.4 38.2,119.8 54.8,89.7 30.5,111.8 52.2,86.3 24.4,102.1 50.2,82.4 20.1,91.2 48.9,78 
						17.9,79.5 48.5,73.5 17.9,67.5 48.9,68.9 20.1,55.8 50.2,64.6 24.4,44.8 52.2,60.6 30.5,35.1 54.8,57.2 38.2,27.1 58,54.5 
						47.3,21.1 61.7,52.7 57.2,17.4 65.6,51.7 					"/>
					<g>
						<path class="st8" d="M88.9,73.1c0,13.1-9.3,23.7-20.7,23.7c-11.4,0-20.7-10.6-20.7-23.7c0-13.1,9.3-23.7,20.7-23.7
							C79.6,49.4,88.9,60,88.9,73.1z"/>
					</g>
				</g>
			</g>
			<g>
				
					<image style="overflow:visible;opacity:0.75;" width="504" height="237" xlink:href="B281F8B1883D458C.png"  transform="matrix(0.24 0 0 0.24 10.0592 63.9944)">
				</image>
				<g>
					<g>
						<defs>
							<path id="SVGID_6_" d="M14.5,78.9c0,0,50.2-23.7,107.4,0.1l0,32.9l-107.4,0V78.9z"/>
						</defs>
						<clipPath id="SVGID_7_">
							<use xlink:href="#SVGID_6_"  style="overflow:visible;"/>
						</clipPath>
					</g>
					<g>
						<defs>
							<path id="SVGID_8_" d="M14.5,78.9c0,0,50.2-23.7,107.4,0.1l0,32.9l-107.4,0V78.9z"/>
						</defs>
						<clipPath id="SVGID_9_">
							<use xlink:href="#SVGID_8_"  style="overflow:visible;"/>
						</clipPath>
						<g class="st9">
							
								<radialGradient id="SVGID_10_" cx="34.8003" cy="-17.076" r="71.9469" gradientTransform="matrix(0.6918 0 0 0.6618 43.6833 78.7967)" gradientUnits="userSpaceOnUse">
								<stop  offset="0.25" style="stop-color:#FFFFFF"/>
								<stop  offset="0.3718" style="stop-color:#FCFDFC"/>
								<stop  offset="0.4696" style="stop-color:#F2F8F4"/>
								<stop  offset="0.5591" style="stop-color:#E1EFE7"/>
								<stop  offset="0.6437" style="stop-color:#C9E3D4"/>
								<stop  offset="0.7249" style="stop-color:#AAD2BC"/>
								<stop  offset="0.8034" style="stop-color:#84BF9D"/>
								<stop  offset="0.8799" style="stop-color:#58A77A"/>
								<stop  offset="0.9529" style="stop-color:#258C51"/>
								<stop  offset="1" style="stop-color:#007934"/>
							</radialGradient>
							<polygon class="st10" points="67.8,19.8 69.7,49.4 78.1,20.8 73.6,50.2 88.1,23.9 77.3,51.7 97.1,28.9 80.5,53.9 104.8,35.5 
								83.2,56.8 111,43.6 85.2,60.1 115.2,52.7 86.4,63.7 117.4,62.5 86.8,67.5 117.4,72.5 86.4,71.3 115.2,82.2 85.2,74.9 
								111,91.4 83.2,78.2 104.8,99.4 80.5,81 97.1,106.1 77.3,83.3 88.1,111.1 73.6,84.8 78.1,114.2 69.7,85.6 67.8,115.2 
								65.8,85.6 57.4,114.2 61.9,84.8 47.5,111.1 58.2,83.3 38.4,106.1 55,81 30.7,99.4 52.3,78.2 24.5,91.4 50.3,74.9 20.3,82.2 
								49.1,71.3 18.1,72.5 48.7,67.5 18.1,62.5 49.1,63.7 20.3,52.7 50.3,60.1 24.5,43.6 52.3,56.8 30.7,35.5 55,53.9 38.4,28.9 
								58.2,51.7 47.5,23.9 61.9,50.2 57.4,20.8 65.8,49.4 							"/>
							<g>
								<path class="st8" d="M89.1,67.2c0,10.9-9.3,19.8-20.7,19.8C57,87,47.7,78.1,47.7,67.2c0-10.9,9.3-19.8,20.7-19.8
									C79.8,47.4,89.1,56.3,89.1,67.2z"/>
							</g>
						</g>
					</g>
					<g>
						<defs>
							<path id="SVGID_11_" d="M14.5,78.9c0,0,50.2-23.7,107.4,0.1l0,32.9l-107.4,0V78.9z"/>
						</defs>
						<clipPath id="SVGID_12_">
							<use xlink:href="#SVGID_11_"  style="overflow:visible;"/>
						</clipPath>
					</g>
				</g>
			</g>
			<path class="st11" d="M127.4,80.8c0,0-54.5-27.4-118.2,0"/>
		</g>
	</g>
</g>
</svg>
