<svg id="a" xmlns="http://www.w3.org/2000/svg" viewBox="0 0 374.61 151.12"><path d="M156.5,128.8a2.3,2.3,0,0,1-.4,1.4,2.84,2.84,0,0,1-1,.9,12.4,12.4,0,0,0-2.3-1.2,7.14,7.14,0,0,0-3.1-.6,6.93,6.93,0,0,0-5.3,2.1,10.61,10.61,0,0,0,0,12.4,7.39,7.39,0,0,0,5.5,2.1,9.59,9.59,0,0,0,3.1-.5,12.29,12.29,0,0,0,2.3-1.1,2.19,2.19,0,0,1,.9,1,3.26,3.26,0,0,1,.4,1.4,1.75,1.75,0,0,1-.4,1.2,2.47,2.47,0,0,1-1.2,1,12.29,12.29,0,0,1-2.2.9,11.61,11.61,0,0,1-3.5.4,12.75,12.75,0,0,1-4.8-.8,10.9,10.9,0,0,1-3.9-2.3,9.91,9.91,0,0,1-2.6-3.9,15.47,15.47,0,0,1-.9-5.5,14.9,14.9,0,0,1,.9-5.4,9.91,9.91,0,0,1,2.6-3.9,10.21,10.21,0,0,1,3.8-2.4,11.73,11.73,0,0,1,4.6-.8,15.53,15.53,0,0,1,3.1.3,11.22,11.22,0,0,1,2.4.8,4.43,4.43,0,0,1,1.5,1.2,1.54,1.54,0,0,1,.5,1.3" transform="translate(0.01 0.02)" fill="#0b4860"/><path d="M169.2,149.6a6.15,6.15,0,0,1-1.4.1,2.93,2.93,0,0,1-2.1-.6,2.44,2.44,0,0,1-.6-1.8V125.7a5.63,5.63,0,0,1,1-.2,6.6,6.6,0,0,1,1.4-.1,4.06,4.06,0,0,1,2.1.5,2.4,2.4,0,0,1,.7,1.9v7.7h9.8v-9.8a5.63,5.63,0,0,1,1-.2,6.6,6.6,0,0,1,1.4-.1,4.06,4.06,0,0,1,2.1.5,2.4,2.4,0,0,1,.7,1.9v21.6a8.66,8.66,0,0,1-1,.2,6.15,6.15,0,0,1-1.4.1,2.93,2.93,0,0,1-2.1-.6,2.44,2.44,0,0,1-.6-1.8v-7.8h-9.8v9.9a5,5,0,0,1-1.2.2" transform="translate(0.01 0.02)" fill="#0b4860"/><path d="M197.7,149.8a2.93,2.93,0,0,1-2.1-.6,2.44,2.44,0,0,1-.6-1.8V125.8a8.66,8.66,0,0,1,1-.2,5.7,5.7,0,0,1,1.3-.1,4.06,4.06,0,0,1,2.1.5,2.4,2.4,0,0,1,.7,1.9v21.6a8.66,8.66,0,0,1-1,.2,6.15,6.15,0,0,1-1.4.1" transform="translate(0.01 0.02)" fill="#0b4860"/><path d="M210.7,148.8a2.72,2.72,0,0,1-.7-2V125.7a5.63,5.63,0,0,1,1-.2,6.6,6.6,0,0,1,1.4-.1,4.06,4.06,0,0,1,2.1.5,2.4,2.4,0,0,1,.7,1.9v17.6h10.1a5.94,5.94,0,0,1,.4.8,4.25,4.25,0,0,1,.2,1.1,2.54,2.54,0,0,1-.5,1.6,1.68,1.68,0,0,1-1.4.6H212.8a2.36,2.36,0,0,1-2.1-.7" transform="translate(0.01 0.02)" fill="#0b4860"/><path d="M254.8,137.5a15.09,15.09,0,0,1-.9,5.5,9.91,9.91,0,0,1-2.6,3.9,10.94,10.94,0,0,1-4.1,2.3,17.35,17.35,0,0,1-5.3.8h-1.4c-.5,0-1.1-.1-1.6-.1s-1.1-.1-1.7-.2a7.49,7.49,0,0,1-1.6-.4,2.52,2.52,0,0,1-1.9-2.4V127.7a1.37,1.37,0,0,1,.4-1.1,2,2,0,0,1,1.1-.6,15.54,15.54,0,0,1,3.1-.7c1.1-.1,2.2-.1,3.2-.1a15.33,15.33,0,0,1,5.4.8,14.17,14.17,0,0,1,4.2,2.3,11.87,11.87,0,0,1,2.7,3.8,14.45,14.45,0,0,1,1,5.4m-5.2,0a10.64,10.64,0,0,0-.6-3.7,5.7,5.7,0,0,0-1.6-2.5,5.79,5.79,0,0,0-2.5-1.5,10.07,10.07,0,0,0-3.1-.5,8.08,8.08,0,0,0-1.6.1,6.6,6.6,0,0,1-1.4.1v16.1a6.05,6.05,0,0,0,1.5.2c.6,0,1.1.1,1.7.1a7.31,7.31,0,0,0,5.6-2.1c1.3-1.4,2-3.5,2-6.3" transform="translate(0.01 0.02)" fill="#0b4860"/><path d="M268.5,149.4a8.66,8.66,0,0,1-1,.2,6.15,6.15,0,0,1-1.4.1,2.93,2.93,0,0,1-2.1-.6,2.44,2.44,0,0,1-.6-1.8V127.7a1.25,1.25,0,0,1,.4-1.1,2,2,0,0,1,1.1-.6,11.33,11.33,0,0,1,3-.6c1.1-.1,2.3-.2,3.5-.2q5.1,0,7.8,2.1a7.3,7.3,0,0,1,2.6,5.9,7.06,7.06,0,0,1-1.3,4.3,8.55,8.55,0,0,1-3.6,2.8q1.65,2.25,3.3,4.2c1.1,1.3,1.9,2.4,2.4,3.1a3.09,3.09,0,0,1-1.1,1.6,2.72,2.72,0,0,1-1.7.6,2.88,2.88,0,0,1-1.9-.6,6.39,6.39,0,0,1-1.3-1.5l-4.4-6.6h-3.6l-.1,8.3Zm3.1-12.2a5.7,5.7,0,0,0,3.6-1,3.49,3.49,0,0,0,1.4-3c0-2.6-1.8-3.9-5.3-3.9a7.57,7.57,0,0,0-1.5.1c-.5.1-.9.1-1.4.2v7.7l3.2-.1Z" transform="translate(0.01 0.02)" fill="#0b4860"/><path d="M291.5,148.8a2.72,2.72,0,0,1-.7-2V128.4a2.72,2.72,0,0,1,.7-2,2.58,2.58,0,0,1,2-.7h13a5.9,5.9,0,0,0,.4.8,2,2,0,0,1,.2,1.1,2.54,2.54,0,0,1-.5,1.6,1.49,1.49,0,0,1-1.3.6h-9.5v5.6h9.5a5.9,5.9,0,0,0,.4.8,3.59,3.59,0,0,1,.2,1.1q0,2.1-1.8,2.1h-8.3v6.1h10.9a5.9,5.9,0,0,0,.4.8,4.3,4.3,0,0,1,.2,1.2q0,2.1-1.8,2.1H293.6a2.71,2.71,0,0,1-2.1-.8" transform="translate(0.01 0.02)" fill="#0b4860"/><path d="M318.4,149.8a3.22,3.22,0,0,1-2-.5,2.29,2.29,0,0,1-.6-1.8V126.7a2.54,2.54,0,0,1,1.3-.9,5.82,5.82,0,0,1,1.9-.3,5.38,5.38,0,0,1,2.2.4,4,4,0,0,1,1.7,1.7l5.6,10.1c.5.9,1,1.9,1.5,2.9s.9,1.9,1.3,2.8h.2c-.1-1.5-.2-3-.2-4.5s-.1-2.9-.1-4.3v-8.9a5.63,5.63,0,0,1,1-.2,5.7,5.7,0,0,1,1.3-.1,3.22,3.22,0,0,1,2,.5,2.16,2.16,0,0,1,.6,1.8v21.1a3.46,3.46,0,0,1-1.2.7,5.55,5.55,0,0,1-1.9.2,4.64,4.64,0,0,1-2.1-.4,3.94,3.94,0,0,1-1.7-1.7l-5.6-10.1c-.5-.9-1-1.9-1.5-2.9s-.9-2-1.3-2.8h-.2c.1,1.4.2,2.9.2,4.4s.1,2.9.1,4.3v8.9a6.37,6.37,0,0,1-.9.2,7.77,7.77,0,0,1-1.6.2" transform="translate(0.01 0.02)" fill="#0b4860"/><path d="M347.5,133.3a2.1,2.1,0,0,1-2,1.2,4.55,4.55,0,0,1-2-.5,12.48,12.48,0,0,0,.2-2.1c0-.8.2-1.5.2-2.3s.1-1.5.2-2.2a14.08,14.08,0,0,0,.1-2,3.58,3.58,0,0,1,1.1-.4,5.07,5.07,0,0,1,1.3-.2,4.71,4.71,0,0,1,1.7.4,1.65,1.65,0,0,1,.7,1.6,5,5,0,0,1-.2,1.6,11.63,11.63,0,0,1-.4,1.8c-.2.6-.3,1.2-.5,1.7s-.3,1.1-.4,1.4" transform="translate(0.01 0.02)" fill="#0b4860"/><path d="M364,145.9a5,5,0,0,0,3.3-.9,2.79,2.79,0,0,0,1.1-2.2,2.56,2.56,0,0,0-.8-1.9,5.82,5.82,0,0,0-2.5-1.2l-2.5-.8a16.87,16.87,0,0,1-2.7-1.1,11,11,0,0,1-2.1-1.4,5,5,0,0,1-1.3-1.9,6.18,6.18,0,0,1-.5-2.5,5.94,5.94,0,0,1,2.4-5,10.68,10.68,0,0,1,6.5-1.9,26.61,26.61,0,0,1,3,.2,13.7,13.7,0,0,1,2.4.7,5,5,0,0,1,1.6,1.1,2,2,0,0,1,.6,1.5,2.12,2.12,0,0,1-.4,1.4,3.82,3.82,0,0,1-.9.9,9.81,9.81,0,0,0-2.5-1.1,12.13,12.13,0,0,0-3.4-.5,5.27,5.27,0,0,0-3.1.7,2.31,2.31,0,0,0-1.1,2,1.86,1.86,0,0,0,.7,1.6,8.21,8.21,0,0,0,2.3,1.1l2.2.7a13.26,13.26,0,0,1,5.3,2.8,6.78,6.78,0,0,1-.5,10,10.51,10.51,0,0,1-3,1.5,12.53,12.53,0,0,1-4,.5,16.86,16.86,0,0,1-3.3-.3,13.39,13.39,0,0,1-2.6-.8,8.31,8.31,0,0,1-1.7-1.2,2.46,2.46,0,0,1-.1-3.1,5.3,5.3,0,0,1,1.2-1,8.94,8.94,0,0,0,2.6,1.6,14.57,14.57,0,0,0,3.8.5" transform="translate(0.01 0.02)" fill="#0b4860"/><path d="M113.7,123.6c-7.7,0-13.9-1.7-18.8-5.1l4.3-8.5a26,26,0,0,0,6.1,2.8,25.74,25.74,0,0,0,7.9,1c4.6,0,8.2-1.2,10.7-3.6s3.7-5.8,3.7-10.2V96.4a14.8,14.8,0,0,1-5.7,5.4,18.32,18.32,0,0,1-8.7,2,19.87,19.87,0,0,1-10.7-2.8,18.78,18.78,0,0,1-7.1-7.9,25.52,25.52,0,0,1-2.5-11.7,26.1,26.1,0,0,1,2.6-11.9,20.42,20.42,0,0,1,7.2-7.9,19.65,19.65,0,0,1,10.5-2.8,18.2,18.2,0,0,1,9.2,2.3,13.11,13.11,0,0,1,5.8,6.3V60.2H144v9.1h-5.3V99.8c0,7.8-2.1,13.8-6.2,17.8s-10.5,6-18.8,6m2.5-29.3a11.22,11.22,0,0,0,8.7-3.5,13.29,13.29,0,0,0,3.2-9.3,13.29,13.29,0,0,0-3.2-9.3,12.56,12.56,0,0,0-17.5.1,13.37,13.37,0,0,0-3.2,9.2,13.64,13.64,0,0,0,3.2,9.3c2.1,2.3,5,3.5,8.8,3.5" transform="translate(0.01 0.02)" fill="#0b4860"/><path d="M149.4,102.8V93.7h5.3V69.2h-5.3V60.1h16.4V93.7h5.3v9.1ZM159,52a7.41,7.41,0,0,1-5.5-2,6.4,6.4,0,0,1-1.8-4.8,6.81,6.81,0,0,1,1.8-4.8,7.1,7.1,0,0,1,5.5-2,7.25,7.25,0,0,1,5.5,2,6.4,6.4,0,0,1,1.8,4.8,6.81,6.81,0,0,1-1.8,4.8,7.25,7.25,0,0,1-5.5,2" transform="translate(0.01 0.02)" fill="#0b4860"/><polygon points="175.11 102.82 175.11 93.82 180.41 93.82 180.41 44.92 174.91 44.92 174.91 35.92 191.41 35.92 191.41 93.82 196.71 93.82 196.71 102.82 175.11 102.82" fill="#0b4860"/><polygon points="201.21 102.82 201.21 93.82 206.61 93.82 206.61 44.92 201.11 44.92 201.11 35.92 217.61 35.92 217.61 93.82 222.81 93.82 222.81 102.82 201.21 102.82" fill="#0b4860"/><path d="M249.9,104.2a27.3,27.3,0,0,1-12.9-2.9,20.24,20.24,0,0,1-8.3-8.1,24.1,24.1,0,0,1-2.9-11.9,25.43,25.43,0,0,1,2.7-12.1,18.68,18.68,0,0,1,7.7-7.8,24,24,0,0,1,11.6-2.8c6.3,0,11.3,1.9,14.9,5.6s5.4,8.8,5.4,15.2a18.55,18.55,0,0,1-.1,2.2c-.1.9-.1,1.6-.2,2.2H237.4a12,12,0,0,0,4.1,7.8c2.3,2,5.5,3,9.5,3a16,16,0,0,0,6.5-1.2,12.63,12.63,0,0,0,4.5-3.2l6,6.9a19.38,19.38,0,0,1-7.5,5,26.05,26.05,0,0,1-10.6,2.1M248,67.5a10.29,10.29,0,0,0-10.6,9.3h20.2a11.1,11.1,0,0,0-2.8-6.7,9,9,0,0,0-6.8-2.6" transform="translate(0.01 0.02)" fill="#0b4860"/><path d="M299,92.4l3.5,8a13,13,0,0,1-4.1,2.2,16.62,16.62,0,0,1-6.1,1c-4.8,0-8.4-1.4-11.1-4.1s-3.9-6.8-3.9-12.3v-18h-7.1V60.1h7.1V49.8l10.9-2.6V60.1h16.6V49.8l11-2.6V60.1h12v9.1h-12V86.4c0,5.1,2.2,7.6,6.7,7.6a10.47,10.47,0,0,0,3-.5,9,9,0,0,0,2.4-1.1l3.4,8a14.31,14.31,0,0,1-4.3,2.2,18.3,18.3,0,0,1-6.4,1c-5,0-8.9-1.4-11.6-4.1s-4.1-6.8-4.1-12.3v-18H288.4V86.5a9.84,9.84,0,0,0,1.4,5.6,4.91,4.91,0,0,0,4.3,1.9,9.75,9.75,0,0,0,2.8-.5,10,10,0,0,0,2.1-1.1" transform="translate(0.01 0.02)" fill="#0b4860"/><path d="M356.4,104.2a27.3,27.3,0,0,1-12.9-2.9,20.24,20.24,0,0,1-8.3-8.1,24.1,24.1,0,0,1-2.9-11.9A25.43,25.43,0,0,1,335,69.2a18.68,18.68,0,0,1,7.7-7.8,24,24,0,0,1,11.6-2.8c6.3,0,11.3,1.9,14.9,5.6s5.4,8.8,5.4,15.2a18.55,18.55,0,0,1-.1,2.2c-.1.9-.1,1.6-.2,2.2H343.9a12,12,0,0,0,4.1,7.8c2.3,2,5.5,3,9.5,3a16,16,0,0,0,6.5-1.2,12.63,12.63,0,0,0,4.5-3.2l6,6.9a19.38,19.38,0,0,1-7.5,5,25.39,25.39,0,0,1-10.6,2.1m-1.9-36.7a10.43,10.43,0,0,0-7.2,2.6,10.84,10.84,0,0,0-3.4,6.7h20.2a11.1,11.1,0,0,0-2.8-6.7,8.81,8.81,0,0,0-6.8-2.6" transform="translate(0.01 0.02)" fill="#0b4860"/><path d="M86.2,151.1c-18.3-.6-44.5-6.5-58.5-18.8-16.3-14.2-2.8-30.6,14-16.2C54,126.7,68.6,138.8,86.5,146c7.3,3,13.3,5.1-.3,5.1" transform="translate(0.01 0.02)" fill="#7f4c87" fill-rule="evenodd"/><path d="M44.3,46.3C42.7,24.7,18.4,26.9,22,48.2c2.4,14.1,10.1,33.4,20.1,48.3,5.7,8.5,14.5,6.9,11.2-4a225,225,0,0,1-9-46.2" transform="translate(0.01 0.02)" fill="#1d909a"/><path d="M67.2,119.3c-1.6-2.8-3.2-5.5-4.6-8.3-5.2-10.1-15.4-4.5-8.5,4.1,2.2,2.8,4.5,5.4,6.9,8,4.9,5.1,10.2,2.9,6.2-3.8" transform="translate(0.01 0.02)" fill="#1d909a"/><path d="M.5,81.7C3.3,72,21,72.5,23.3,88.4c1.6,10.8-.5,14.8-3.8,15.6C9.7,106.5-2.7,92.7.5,81.7" transform="translate(0.01 0.02)" fill="#7f4c87" fill-rule="evenodd"/><path d="M58,69.8C65.5,51.3,77.8,36,86.1,25,102.5,3.4,77-11.4,65.9,11.5,59.5,24.7,54.1,48.1,55.7,69.6c.2,3.3,1.2,3,2.3.2" transform="translate(0.01 0.02)" fill="#bd275f" fill-rule="evenodd"/></svg>