<?xml version="1.0" encoding="utf-8"?>
<svg xmlns="http://www.w3.org/2000/svg" width="403" height="62" viewBox="0 0 403 62">
    <g fill="none">
        <g fill="#98999B">
            <path d="M8.077 8.383c0-1.27-1.066-2-3.098-2H1.3v4.084h3.913c1.766 0 2.865-.775 2.865-2.084m-.65-5.24c0-1.158-.915-1.902-2.582-1.902H1.298v3.985h3.446c1.582 0 2.683-.71 2.683-2.083m1.333-.181c0 1.519-.934 2.299-1.85 2.693 1.382.415 2.498 1.208 2.498 2.813 0 2-1.682 3.174-4.23 3.174H0V.068h4.962C7.26.068 8.76 1.193 8.76 2.962M20.563 1.827h-3.411v4.449h3.394c1.66 0 2.842-.846 2.842-2.27 0-1.362-1.043-2.179-2.825-2.179zm2.95 9.824L20.31 7.388h-3.16v4.263h-1.244V.684h4.751c2.43 0 3.99 1.302 3.99 3.274 0 1.834-1.26 2.898-2.997 3.212l3.393 4.48h-1.532zM35.763 2.038L33.237 7.63h5.034l-2.508-5.592zm5.635 9.603h-1.345L38.76 8.742h-6.01l-1.312 2.899H30.16L35.195.596h1.169l5.034 11.045zM47.581 11.64L48.829 11.64 48.829.675 47.581.675zM64.068.675L65.282.675 65.282 11.641 64.289 11.641 57.155 2.649 57.155 11.641 55.941 11.641 55.941.675 57.109.675 64.068 9.464zM86.74 2.285l-2.462 5.449h4.907l-2.445-5.45zm5.49 9.357h-1.308L89.66 8.817h-5.857l-1.276 2.825h-1.246L86.186.88h1.138l4.906 10.762zM104.774.956L105.956.956 105.956 11.641 104.988 11.641 98.04 2.878 98.04 11.641 96.856 11.641 96.856.956 97.994.956 104.774 9.521zM115.34 2.068h-2.522v8.458h2.522c2.72 0 4.456-1.83 4.456-4.213 0-2.382-1.737-4.245-4.456-4.245m0 9.574h-3.738V.955h3.738c3.38 0 5.72 2.306 5.72 5.327 0 3.023-2.34 5.36-5.72 5.36M141.99 5.277c2.574.556 3.765 1.49 3.765 3.258 0 1.986-1.65 3.262-3.945 3.262-1.832 0-3.334-.606-4.722-1.834l.808-.949c1.207 1.08 2.364 1.62 3.962 1.62 1.55 0 2.576-.802 2.576-1.964 0-1.084-.576-1.692-3.004-2.2-2.657-.573-3.88-1.424-3.88-3.325 0-1.834 1.601-3.145 3.797-3.145 1.685 0 2.887.475 4.06 1.407l-.759 1c-1.073-.866-2.146-1.246-3.335-1.246-1.504 0-2.459.82-2.459 1.868 0 1.1.594 1.709 3.136 2.248M156.564 1.817h-2.794v4.828h2.73c1.83 0 3.03-.973 3.03-2.429 0-1.582-1.186-2.399-2.966-2.399m-.11 5.956h-2.684v3.868h-1.246V.675h4.133c2.493 0 4.135 1.316 4.135 3.493 0 2.38-1.987 3.605-4.339 3.605M167.025 11.64L168.273 11.64 168.273.675 167.025.675zM183.486.675L184.7.675 184.7 11.641 183.705 11.641 176.571 2.649 176.571 11.641 175.356 11.641 175.356.675 176.525.675 183.486 9.464zM198.988 1.802L192.247 1.802 192.247 5.548 198.278 5.548 198.278 6.674 192.247 6.674 192.247 10.513 199.067 10.513 199.067 11.641 191.003 11.641 191.003.676 198.988.676z" transform="translate(137.018 44.78)"/>
        </g>
        <g fill="#616365">
            <path d="M15.326 5.495c-.65-.992-1.514-1.774-2.593-2.35-1.053-.593-2.175-.89-3.368-.89-1.936 0-3.599.695-4.988 2.085C2.987 5.72 2.29 7.369 2.29 9.279c0 1.922.696 3.572 2.087 4.953 1.39 1.383 3.055 2.072 4.988 2.072 2.248 0 4.102-.903 5.565-2.706v-3.172H9.37V8.153h7.854V18.35H14.93v-2.055c-1.293 1.499-3.15 2.246-5.566 2.246-2.578 0-4.781-.902-6.61-2.712C.918 14.006 0 11.826 0 9.282c0-2.531.92-4.708 2.759-6.534C4.603.918 6.804.001 9.365.001c1.567 0 3.055.383 4.463 1.153 1.41.771 2.546 1.811 3.41 3.118l-1.912 1.223zM38.877 9.28c0-1.91-.696-3.559-2.086-4.94-1.393-1.39-3.056-2.084-4.99-2.084-1.933 0-3.596.694-4.987 2.084-1.39 1.381-2.086 3.03-2.086 4.94 0 1.92.694 3.57 2.086 4.952 1.391 1.383 3.054 2.072 4.987 2.072 1.934 0 3.597-.689 4.99-2.072 1.39-1.382 2.086-3.032 2.086-4.953m2.29.004c0 2.55-.923 4.734-2.769 6.546-1.838 1.81-4.036 2.712-6.597 2.712-2.577 0-4.78-.902-6.609-2.712-1.837-1.822-2.755-4.003-2.755-6.546 0-2.532.918-4.709 2.755-6.534C27.038.918 29.241 0 31.802 0c2.56 0 4.758.918 6.596 2.749 1.846 1.825 2.77 4.002 2.77 6.534M62.019 9.28c0-1.91-.697-3.559-2.09-4.94-1.39-1.39-3.053-2.084-4.989-2.084-1.935 0-3.598.694-4.986 2.084-1.391 1.381-2.087 3.03-2.087 4.94 0 1.92.696 3.57 2.087 4.952 1.388 1.383 3.051 2.072 4.986 2.072 1.936 0 3.598-.689 4.988-2.072C61.322 12.85 62.02 11.2 62.02 9.28m2.291.004c0 2.55-.925 4.734-2.773 6.546-1.837 1.81-4.036 2.712-6.597 2.712-2.576 0-4.78-.902-6.609-2.712-1.837-1.822-2.755-4.003-2.755-6.546 0-2.532.918-4.709 2.755-6.534C50.18.918 52.381 0 54.941 0c2.56 0 4.76.918 6.596 2.749 1.848 1.825 2.773 4.002 2.773 6.534M84.082 9.28c0-1.857-.675-3.455-2.021-4.79-1.345-1.338-2.954-2.007-4.826-2.007h-4.572v13.592h4.572c1.872 0 3.48-.666 4.826-2.004 1.346-1.335 2.021-2.933 2.021-4.792m2.27.004c0 2.495-.895 4.63-2.686 6.412-1.783 1.77-3.926 2.655-6.43 2.655H70.39V.227h6.845c2.505 0 4.648.889 6.431 2.67 1.79 1.768 2.687 3.897 2.687 6.386M108.525 18.35L108.525 5.662 102.936 18.35 100.422 18.35 94.832 5.662 94.832 18.35 92.562 18.35 92.562.228 94.927.228 101.683 15.518 108.447.228 110.816.228 110.816 18.35zM124.97 2.58l-3.717 10.103h7.419L124.97 2.581zm5.774 15.77l-1.257-3.392h-9.05l-1.257 3.391h-2.42L123.402.228h3.144l6.645 18.121h-2.448zM150.495 18.35L141.371 4.4 141.371 18.35 139.095 18.35 139.095.228 141.371.228 150.495 14.178 150.495.228 152.786.228 152.786 18.35zM182.309 5.495c-.653-.973-1.516-1.758-2.597-2.36-1.058-.586-2.184-.88-3.365-.88-1.937 0-3.598.695-4.99 2.085-1.387 1.38-2.087 3.029-2.087 4.939 0 1.922.7 3.572 2.086 4.953 1.393 1.383 3.054 2.072 4.991 2.072 1.166 0 2.28-.29 3.34-.863 1.078-.577 1.942-1.36 2.594-2.35l1.912 1.25c-.435.644-.934 1.224-1.497 1.737-.563.514-1.197.961-1.898 1.345-1.409.744-2.895 1.118-4.45 1.118-2.58 0-4.781-.902-6.61-2.712-1.838-1.823-2.759-4.003-2.759-6.547 0-2.531.92-4.708 2.76-6.534 1.845-1.83 4.048-2.747 6.608-2.747 1.566 0 3.055.383 4.465 1.153 1.407.771 2.543 1.811 3.406 3.118l-1.909 1.223zM196.195 2.58l-3.719 10.103h7.42l-3.701-10.102zm5.773 15.77l-1.256-3.392h-9.05l-1.258 3.391h-2.42L194.629.228h3.142l6.646 18.121h-2.449zM226.608 18.35L226.608 5.662 221.019 18.35 218.509 18.35 212.915 5.662 212.915 18.35 210.645 18.35 210.645.228 213.012.228 219.766 15.518 226.534.228 228.899.228 228.899 18.35zM247.997 5.325c0-.77-.278-1.433-.838-1.992-.562-.567-1.229-.85-2.004-.85h-7.41v5.67h7.41c.775 0 1.442-.28 2.004-.837.56-.558.838-1.22.838-1.99m2.29.001c0 1.397-.502 2.599-1.506 3.601-1.007 1-2.215 1.499-3.623 1.499h-7.413v7.922h-2.274V.228h9.687c1.399 0 2.6.504 3.607 1.515 1.015.999 1.523 2.194 1.523 3.584M268.516 13.25c0-.768-.28-1.43-.84-1.989-.56-.558-1.229-.835-2.002-.835h-7.412v5.65h7.412c.773 0 1.441-.279 2.003-.837.559-.556.839-1.22.839-1.989m-.44-7.925c0-.77-.28-1.433-.84-1.993-.56-.567-1.23-.85-2.006-.85h-6.968v5.67h6.968c.775 0 1.445-.279 2.006-.835.56-.56.84-1.22.84-1.992m2.73 7.925c0 1.394-.509 2.592-1.522 3.601-1.008 1-2.21 1.499-3.607 1.499h-9.687V.227h9.242c1.4 0 2.603.504 3.61 1.515 1.017 1 1.524 2.196 1.524 3.583 0 1.693-.714 2.974-2.15 3.85 1.726.84 2.59 2.2 2.59 4.075M278.038 18.35L278.038.228 289.444.228 289.444 2.483 280.31 2.483 280.31 7.925 287.156 7.925 287.156 10.2 280.31 10.2 280.31 16.076 289.444 16.076 289.444 18.35zM296.725 18.35L296.725.228 298.997.228 298.997 16.076 308.128 16.076 308.128 18.35zM314.034 18.35L314.034.228 316.307.228 316.307 16.076 325.437 16.076 325.437 18.35z" transform="translate(77.355 14.89)"/>
        </g>
        <path fill="#55517B" d="M46.688 26.822c.155.544.067 1.02-.277 1.471-.345.45-1.01.32-1.581.315l-6.257-.041c-.711-.005-1.253.08-1.542-.565-1.103-2.465-3.572-4.054-6.29-4.054-3.79 0-6.876 3.06-6.876 6.827 0 3.766 3.085 6.83 6.877 6.83 2.62 0 4.837-1.541 5.975-4.107.071-.133.09-.395.109-.493-.932-.03-2.486-.062-3.318-.08l-.268.006c-.582.629-1.412 1.023-2.334 1.023-1.756 0-3.184-1.433-3.184-3.193 0-1.762 1.428-3.195 3.184-3.195 1.315 0 2.448.806 2.931 1.952l-.006.058.212-.005 4.964.103c.528.016 1.023.26 1.357.672.33.41.495 1.428.395 1.94l-.206 1.165c-.024.126-.39 1.226-.438 1.345-1.685 3.95-5.276 6.403-9.373 6.403-5.79 0-10.497-4.674-10.497-10.424 0-5.747 4.708-10.423 10.497-10.423 3.74 0 7.02 1.94 8.948 5.032.306.701 2.33 1.156 2.571.124-.038-.077-.005-.165-.043-.243-2.191-4.465-6.32-7.07-11.476-7.07-5.993 0-11.214 4.225-12.41 10.043-.173.833-.91 1.431-1.766 1.436l-5.75.035c-.54.001-1.06-.238-1.405-.655-.347-.415-.485-.968-.378-1.495C11.244 16.585 20.167 8.894 30.737 8.853c9.654-.037 18.59 6.932 21.446 16.387.38.96 1.904 1.148 2.069.244.022-.065.025-.157.025-.272C51.301 14.479 41.551 6.695 30.742 6.696 17.37 6.696 6.49 17.498 6.49 30.775c0 11.489 8.102 21.178 19.191 23.503.11.026.872-.176 1.028-.686.124-.41.165-1.269-.701-1.475-8.92-1.953-15.879-9.244-17.14-18.325-.011-.08-.016-.164-.016-.246 0-.427.155-.848.442-1.176.341-.391.839-.617 1.357-.619l5.744-.034c.866-.005 1.61.596 1.781 1.434 1.221 5.911 6.549 10.46 12.407 10.46 2.726 0 4.908-.784 6.792-2.188.383-.284 1.378-.513 2.258-.513l8.203.02c.685-.003 1.312.374 1.623.98.134.257.2.54.2.817 0 .377-.12.747-.35 1.06-3.557 4.833-8.771 7.882-14.49 8.583-.845.22-.978 1.948.013 2.21 6.628-.64 11.788-3.738 16.105-9.69.62-.892 1.144-1.924 1.654-2.991.2-.558.33-1.389-.325-1.98-.243-.216-.865-.316-1.485-.363H42.45c-.646 0-1.191-.411-1.516-.96-.324-.553-.285-1.308.03-1.862l1-2.053c.169-.557.643-2.012.697-2.503.096-.91.875-1.605 1.797-1.605h13.82s-.032-.005.04 0h.655c.71-.038 1.616-.234 2.179-.942.355-.444.355-1.743.338-2.321C59.889 11.958 46.729 0 30.826 0 13.801 0 0 13.704 0 30.606 0 47.506 13.8 61.21 30.826 61.21c15.197 0 27.502-10.197 30.333-25.105.004-.37-.105-.958-.7-1.514-.296-.279-1.009-.398-1.62-.425H45.983c-.915.229-1.113 1.056-.8 1.552.082.168.291.244.484.244l10.858.002c.601 0 1.162.293 1.497.787.337.49.42 1.116.207 1.67-4.905 12.74-13.82 19.742-25.16 19.93-.483.005-.951-.18-1.296-.512-.346-.335-.543-.793-.544-1.274l-.043-5.826c0-.968.768-1.762 1.742-1.795 2.569-.096 5.738-1.124 8.385-2.785 1.09-.682 1.618-.973 2.138-1.42.286-.247.578-.827.115-1.158-.535-.377-1.257-.33-2.023.059-.44.34-.836.5-2.54 1.591-2.598 1.85-6.592 2.058-8.21 2.058-7.137 0-13.618-5.065-15.724-11.973-.18-.942-2.036-.813-2.15-.112.012.047 0 .17.031.269 1.875 6.99 7.795 12.39 15.126 13.444.891.127 1.552.885 1.552 1.775v5.797c0 .512-.217 1-.602 1.34-.382.341-.896.505-1.41.448C13.509 56.71 2.872 44.89 2.872 30.775c0-15.26 12.505-27.673 27.87-27.673 13.459 0 25.075 9.963 27.618 23.686.098.532-.049.875-.399 1.288-.35.413-.868.64-1.412.636l-5.715-.104c-.829-.014-1.545-.389-1.735-1.193-1.98-8.567-9.869-15-18.346-14.97-8.044.035-14.768 5.27-17.348 13.24-.024.075-.041.221-.046.305.038.607 1.28 1.177 1.933-.127 2.06-6.722 8.257-11.262 15.45-11.262 2.385 0 4.62.455 6.63 1.304 4.457 1.888 7.82 5.725 9.317 10.917z"/>
    </g>
</svg>
