<svg id="MAYO_Logo" xmlns="http://www.w3.org/2000/svg" viewBox="0 0 54 58.91"><title>RGB_MayoClinic_PrimaryLogomark_Black</title><path d="M40,40.32v8.61a10.46,10.46,0,0,0,3.1,8h0V54.66a10.58,10.58,0,0,1-1.19-5.16V47.83h2.66v8.74c0,.84,0,1.29,0,1.47a10.79,10.79,0,0,1-7.19,9.88,10.8,10.8,0,0,1-7.19-9.86c3-2.07,4.51-5.07,4.51-9.13v-1.1h3.9V45.9H28.14V56.27h0a7,7,0,0,0,1.92-2V47.83h2.66V49.5a9.36,9.36,0,0,1-2.66,7.07,8.67,8.67,0,0,1-1.84,1.36,9.74,9.74,0,0,1-1.26.62c-3.88-1.61-5.77-4.68-5.77-9V42.26H32.72v2.18h1.9V40.32H19.29v8.61c0,5.27,2.48,8.77,7.67,10.73.49-.19,1-.39,1.41-.6.81,4.72,3.73,8,8.93,10,5.2-2,8.13-5.24,8.93-10,.45.22.92.42,1.42.61,5.18-2,7.66-5.46,7.66-10.73V40.32ZM53.41,49.5c0,4.37-1.88,7.44-5.76,9a9.35,9.35,0,0,1-1.27-.62c0-.56.08-1.14.08-1.74V45.9H41.88V42.26H53.41ZM63,27.34h.6l.48-2.44a8.15,8.15,0,0,0-3.37-.65c-3.56,0-6,2.28-6,5.33s2.13,5,5.55,5a5.88,5.88,0,0,0,4-1.43l-.44-.54a5.17,5.17,0,0,1-3.07,1c-2.43,0-4.24-1.67-4.24-4.5,0-2.55,1.45-4,3.82-4,1.86,0,2.6.56,2.6,1.95ZM49.13,25.15c1.24.05,1.35.14,1.35.83v6.84c0,.69-.11.78-1.35.83v.7h4.44v-.7c-1.25,0-1.35-.14-1.35-.83V26c0-.69.1-.78,1.35-.83v-.7H49.13Zm-2.58,1.57c0-1.32.24-1.55,1.35-1.57v-.7H44.32v.7c1.11,0,1.34.25,1.34,1.57v5l-6.4-7.27H36.41l.11.64c1.16.19,1.3.31,1.3,1.34v5.65c0,1.32-.24,1.55-1.35,1.57v.7h3.58v-.7c-1.11,0-1.35-.25-1.35-1.57V26.45l7.14,8h.71Zm-16-1.57c1.24.05,1.35.14,1.35.83v6.84c0,.69-.11.78-1.35.83v.7H35v-.7c-1.24,0-1.35-.14-1.35-.83V26c0-.69.11-.78,1.35-.83v-.7H30.56Zm-.91,6.35h-.57l-.21.45c-.61,1.29-1.11,1.6-2.23,1.6H24.79c-.62,0-.7-.27-.7-1.15V26c0-.7.12-.84,1.54-.86v-.7H21.06v.7c1.19.05,1.28.14,1.28.83v6.27c0,1.15-.07,1.24-1.17,1.45v.65h7.92ZM18.57,27.34h.61l.47-2.44a8.15,8.15,0,0,0-3.37-.65c-3.56,0-6,2.28-6,5.33s2.13,5,5.55,5a5.88,5.88,0,0,0,4-1.43l-.43-.54a5.22,5.22,0,0,1-3.08,1c-2.43,0-4.24-1.67-4.24-4.5,0-2.55,1.45-4,3.82-4,1.86,0,2.6.56,2.6,1.95ZM50.63,15c0-2.65,1.32-4.05,3.54-4.05s3.75,1.69,3.75,4.6c0,2.64-1.32,4-3.54,4S50.63,17.88,50.63,15m-1.85.46c0,3,2,5,5.31,5s5.67-2.22,5.67-5.33-2-5-5.3-5-5.68,2.22-5.68,5.34m-3.06,4.07c-1.24-.06-1.35-.15-1.35-.84V15.83l2.76-3.92c.51-.71.67-.88,1.4-.91v-.7H45.14V11c.87,0,1.08.17,1.08.49a1.28,1.28,0,0,1-.3.71L44,14.94,42,12.1a1.08,1.08,0,0,1-.28-.62c0-.32.22-.48,1.12-.49V10.3H38.47V11c.66,0,.83.2,1.32.9l2.84,4v2.74c0,.69-.1.78-1.35.84v.7h4.44Zm-13.4-3.43,1.6-3.61,1.58,3.61Zm.12,3.44c-1,0-1.24-.2-1.24-.68a1.85,1.85,0,0,1,.17-.6L32,16.88h3.87l.66,1.53a1.49,1.49,0,0,1,.14.53c0,.41-.26.57-1.12.58v.69h4.08v-.7c-.72,0-.86-.2-1.2-1L34.7,10.2H34l-3.71,8.33c-.35.78-.48.94-1.21,1v.7h3.33Zm-14,0c-1.11,0-1.35-.26-1.35-1.58v-5.7L21,19.89h.36l3.89-7.66v6.44c0,.69-.09.78-1.28.84v.7h4.29v-.7c-1.18-.06-1.28-.15-1.28-.84V11.83c0-.68.1-.78,1.28-.83v-.7h-3l-3.64,7.18L18.05,10.3H14.87V11c1.14.12,1.35.23,1.35,1.5v5.46c0,1.32-.24,1.55-1.35,1.58v.7h3.58Z" transform="translate(-10.3 -10.1)"/></svg>