<svg xmlns="http://www.w3.org/2000/svg" viewBox="0 0 170.37 134.61"><defs><style>.cls-1,.cls-2{fill:#022169;}.cls-2{fill-rule:evenodd;}</style></defs><title>Asset 1</title><g id="Layer_2" data-name="Layer 2"><g id="Layer_1-2" data-name="Layer 1"><path class="cls-1" d="M24.34,15.77H15.9V18c1.82.3,2.49,1.34,2.49,3.22,0,3.68-2.14,5.51-4.89,5.51-3.05,0-5.93-2.95-5.93-10.8C7.56,9.22,9.7,5,13.19,5c2.32,0,5,2,6.78,7.2l1.67-.65L19.77,2.83H18.3l-.53,1.49a7.59,7.59,0,0,0-5-2c-5.7,0-9.51,6.2-9.51,13.52S6.74,29.4,12.79,29.4a8.16,8.16,0,0,0,6.39-3.18l.8,2.68h2.17v-7.7c0-2.15.44-2.91,2.2-3.22V15.77"/><path class="cls-1" d="M2.87,98.14h9V95.92C10.12,95.8,9.33,95,9.33,93V85h8.39v8c0,2-.79,2.76-2.52,2.87v2.22h9V95.92C22.44,95.8,21.65,95,21.65,93V77.15c0-2,.79-2.76,2.52-2.87V72.06h-9v2.22c1.73.12,2.52.88,2.52,2.87v5.4H9.33v-5.4c0-2,.79-2.76,2.52-2.87V72.06h-9v2.22c1.73.12,2.52.88,2.52,2.87V93c0,2-.79,2.76-2.52,2.87v2.22"/><path class="cls-2" d="M2.45,132.59H9.75v-2.22c-1.65-.19-2.26-.92-2.26-1.61a7.54,7.54,0,0,1,.44-2.19L9,122.94h7.4l1.41,4.67a6.65,6.65,0,0,1,.35,1.57c0,.73-.62,1.11-2.58,1.19v2.22h9v-2.22c-1.62-.27-2.09-.92-2.85-3.37l-6.45-20.84h-3.4l-6.46,20c-1,3.1-1.61,3.72-3,4.22Zm10.3-22,3,9.88H9.78l3-9.88"/><path class="cls-2" d="M10.92,42.47c0-1.42.44-2.41,2.69-2.41,3.11,0,4.46,1.8,4.46,4.79,0,3.22-1,5.17-5.61,5.17a11.11,11.11,0,0,1-1.55-.11ZM7,58.59c0,2-.79,2.75-2.52,2.87v2.22h9V61.46c-1.73-.12-2.52-.88-2.52-2.87V52.46h3.31c5.54,0,7.95-2.72,7.95-7,0-6.2-3.38-7.85-8.48-7.85H4.46v2.22C6.19,39.94,7,40.71,7,42.7V58.59"/><path class="cls-1" d="M81.12,27.57H80.6l-.32,1A4.85,4.85,0,0,0,77,27.2a5.24,5.24,0,0,0-4.1,2.46A9.37,9.37,0,0,0,71.46,35c0,4.36,2.37,7.82,5.79,7.82A5,5,0,0,0,81,40.9l.52,1.5h.8V38.76a6.79,6.79,0,0,1,.17-2,1.17,1.17,0,0,1,1.1-.7l.14,0v-.65H79.13V36c1.07.15,1.61.59,1.61,2.09a3.33,3.33,0,0,1-3.35,3.59,3.62,3.62,0,0,1-3.1-2.33,10.51,10.51,0,0,1-.83-4.4c0-2.92,1-6.66,3.66-6.66,2,0,3.4,2.13,4.39,4.16l.64-.24-1-4.64"/><path class="cls-1" d="M86.79,34.45c.37-.52,1.07-1.2,1.64-1.2s.7.72,1.48.72c.52,0,.92-.48.92-1.18a1.13,1.13,0,0,0-1.24-1.16,3.84,3.84,0,0,0-2.8,1.85V31.86h-.53l-2.55.48V33H84c1.05.09,1.22.89,1.22,2.12v4.53c0,1.35-.19,2-1.29,2.11h-.18v.65h4.59v-.65l-.29,0c-1.07-.07-1.21-.85-1.24-2.09V34.45"/><path class="cls-2" d="M98.07,36.11c0-2.72-1.59-4.49-3.59-4.46-2.47,0-4,2.29-4,5.44a6.84,6.84,0,0,0,1.26,4.07,3.53,3.53,0,0,0,2.92,1.42A3.64,3.64,0,0,0,98.07,40l-.55-.37c-.54,1.29-1.32,2-2.45,2a2.41,2.41,0,0,1-2.12-1.35,7.18,7.18,0,0,1-.72-3l0-1.11Zm-5.77-.89c.12-1.39.9-2.68,2.08-2.68s1.92,1.07,1.92,2.68h-4"/><path class="cls-2" d="M107.49,41.27a1.1,1.1,0,0,1-.68.32c-.81,0-.92-1.37-.92-2.29V35c0-1.22-.08-2.05-1-2.68a4.14,4.14,0,0,0-2.24-.72,5.43,5.43,0,0,0-2.35.63,2.61,2.61,0,0,0-1.35,2,.9.9,0,0,0,.79,1c.63,0,.84-.59.84-1.31v-.28c0-.83,1.09-1.15,1.61-1.15a2.27,2.27,0,0,1,1.5.45,2.16,2.16,0,0,1,.58,1.66v1.57l-1.23.17a7.41,7.41,0,0,0-2.8.89A2.83,2.83,0,0,0,98.6,40a2.5,2.5,0,0,0,2.55,2.57A4.2,4.2,0,0,0,104.28,41a1.87,1.87,0,0,0,1.82,1.57,2.2,2.2,0,0,0,1.71-.74ZM104.28,40a3.73,3.73,0,0,1-2.48,1.46,1.6,1.6,0,0,1-1.52-1.77c0-2.16,2.74-2.61,4-2.76V40"/><path class="cls-1" d="M112.67,31.86H110.3v-4h-.71c0,2.13-.37,3.9-2.29,4v.7h1.4v7.12a2.84,2.84,0,0,0,.74,2.37,2.7,2.7,0,0,0,1.65.52,2.66,2.66,0,0,0,2.35-1.42l-.42-.48a1.94,1.94,0,0,1-1.45,1c-1.27,0-1.27-1.74-1.27-3V32.56h2.37v-.7"/><path class="cls-2" d="M120.4,36.11c0-2.72-1.59-4.49-3.59-4.46-2.46,0-4,2.29-4,5.44a6.85,6.85,0,0,0,1.25,4.07A3.53,3.53,0,0,0,117,42.58,3.64,3.64,0,0,0,120.4,40l-.55-.37c-.53,1.29-1.31,2-2.45,2a2.41,2.41,0,0,1-2.12-1.35,7.14,7.14,0,0,1-.72-3l0-1.11Zm-5.77-.89c.12-1.39.9-2.68,2.08-2.68s1.92,1.07,1.92,2.68h-4"/><path class="cls-1" d="M123.56,34.45c.37-.52,1.07-1.2,1.64-1.2s.7.72,1.48.72c.52,0,.92-.48.92-1.18a1.13,1.13,0,0,0-1.23-1.16,3.83,3.83,0,0,0-2.81,1.85V31.86H123l-2.55.48V33h.27c1.05.09,1.22.89,1.22,2.12v4.53c0,1.35-.18,2-1.29,2.11h-.18v.65h4.58v-.65l-.28,0c-1.07-.07-1.2-.85-1.24-2.09V34.45"/><path class="cls-2" d="M74.6,57.47H76.9a4.23,4.23,0,0,0,3.05-1,4.58,4.58,0,0,0,1.21-3.25,4.17,4.17,0,0,0-1.45-3.33,4.4,4.4,0,0,0-2.8-.78H71.46v.65l.23,0c1.35.13,1.24,1.29,1.24,2.72v8a6.87,6.87,0,0,1-.18,2,1.15,1.15,0,0,1-1.14.7l-.15,0V64h4.88v-.65l-.34,0c-.48,0-1-.09-1.25-.76a7,7,0,0,1-.15-2Zm0-.81v-5c0-.37,0-1.07.23-1.31A3.49,3.49,0,0,1,76.7,50a2.58,2.58,0,0,1,2,.78,4,4,0,0,1,.79,2.5,4,4,0,0,1-.67,2.48,2.27,2.27,0,0,1-2.17.91H74.6"/><path class="cls-1" d="M89.58,56.6a3.47,3.47,0,0,0-.67-2.66A2.74,2.74,0,0,0,87,53.21,4.6,4.6,0,0,0,83.66,55V48.35H83a7.5,7.5,0,0,1-2.42.72v.65l.23,0c1.37.13,1.25,1.28,1.25,2.72V61.2c0,1.39-.2,2-1.32,2.11h-.19V64H85v-.65H84.8c-1-.09-1.14-.91-1.14-2.11V56.06a4.43,4.43,0,0,1,2.94-1.72,1.35,1.35,0,0,1,1.12.61A3.7,3.7,0,0,1,88,56.71V61.2c0,1.39-.18,2-1.3,2.11h-.2V64H91v-.65h-.2c-1-.11-1.17-.91-1.17-2.11V56.6"/><path class="cls-2" d="M93.94,53.42h-.53l-2.55.48v.65h.27c1.05.09,1.21.89,1.21,2.11V61.2c0,1.33-.16,2-1.26,2.11h-.15V64h4.41v-.65h-.2c-1-.11-1.19-.91-1.19-2.11Zm.21-2.35c0-.74-.41-1.35-1-1.35a1.2,1.2,0,0,0-1,1.26c0,.74.4,1.35,1,1.35a1.16,1.16,0,0,0,1-1.26"/><path class="cls-1" d="M98.18,48.35h-.67a7.63,7.63,0,0,1-2.42.72v.65l.23,0c1.37.13,1.25,1.28,1.25,2.72V61.2c0,1.3-.18,2-1.26,2.11h-.15V64h4.37v-.65l-.19,0c-1-.09-1.15-.91-1.15-2.09V48.35"/><path class="cls-2" d="M108.4,62.83a1.1,1.1,0,0,1-.68.33c-.82,0-.92-1.37-.92-2.29V56.6c0-1.22-.08-2-1-2.68a4.1,4.1,0,0,0-2.24-.72,5.42,5.42,0,0,0-2.35.63,2.62,2.62,0,0,0-1.35,2,.9.9,0,0,0,.78,1c.64,0,.85-.59.85-1.31v-.28c0-.83,1.09-1.16,1.61-1.16a2.28,2.28,0,0,1,1.5.46,2.19,2.19,0,0,1,.58,1.66v1.57L104,58a7.34,7.34,0,0,0-2.8.89,2.83,2.83,0,0,0-1.65,2.72,2.5,2.5,0,0,0,2.55,2.57,4.22,4.22,0,0,0,3.14-1.57A1.86,1.86,0,0,0,107,64.14a2.16,2.16,0,0,0,1.7-.74Zm-3.2-1.22a3.75,3.75,0,0,1-2.49,1.46,1.6,1.6,0,0,1-1.51-1.77c0-2.15,2.73-2.61,4-2.76v3.07"/><path class="cls-2" d="M114.73,54.29a4.23,4.23,0,0,0-2.62-1.09c-2.47,0-3.89,2.5-3.89,5.55,0,2.9,1.35,5.38,3.7,5.38a3.51,3.51,0,0,0,2.8-1.66V64h2.73v-.65c-1.07-.11-1.13-1-1.13-2.11V48.35h-.67a7.58,7.58,0,0,1-2.42.72v.65l.23,0c1.37.13,1.25,1.28,1.25,2.72Zm0,7.17a2.88,2.88,0,0,1-2.32,1.65c-1.92,0-2.46-2.37-2.46-4.44s.62-4.44,2.57-4.44a2.9,2.9,0,0,1,2.2,1.18v6.06"/><path class="cls-2" d="M125.28,57.67c0-2.72-1.59-4.49-3.59-4.46-2.47,0-4,2.29-4,5.44A6.86,6.86,0,0,0,119,62.72a3.54,3.54,0,0,0,2.92,1.42,3.64,3.64,0,0,0,3.41-2.62l-.55-.37c-.54,1.28-1.32,2-2.46,2a2.41,2.41,0,0,1-2.12-1.35,7.22,7.22,0,0,1-.71-3l0-1.11Zm-5.77-.89c.12-1.39.9-2.68,2.08-2.68s1.92,1.07,1.92,2.68h-4"/><path class="cls-1" d="M128.56,48.35h-.67a7.61,7.61,0,0,1-2.42.72v.65l.23,0c1.36.13,1.25,1.28,1.25,2.72V61.2c0,1.3-.18,2-1.27,2.11h-.15V64h4.37v-.65l-.2,0c-1-.09-1.15-.91-1.15-2.09V48.35"/><path class="cls-1" d="M148.44,56.6a3.46,3.46,0,0,0-.67-2.66,2.73,2.73,0,0,0-1.86-.74A4.6,4.6,0,0,0,142.52,55V48.35h-.66a7.53,7.53,0,0,1-2.42.72v.65l.24,0c1.37.13,1.25,1.28,1.25,2.72V61.2c0,1.39-.2,2-1.32,2.11h-.18V64h4.45v-.65h-.21c-1-.09-1.14-.91-1.14-2.11V56.06a4.44,4.44,0,0,1,2.93-1.72,1.36,1.36,0,0,1,1.13.61,3.76,3.76,0,0,1,.26,1.76V61.2c0,1.39-.18,2-1.29,2.11h-.21V64h4.47v-.65h-.2c-1-.11-1.17-.91-1.17-2.11V56.6"/><path class="cls-2" d="M152.8,53.42h-.53l-2.55.48v.65H150c1,.09,1.21.89,1.21,2.11V61.2c0,1.33-.17,2-1.26,2.11h-.16V64h4.4v-.65H154c-1-.11-1.19-.91-1.19-2.11Zm.22-2.35c0-.74-.42-1.35-1-1.35A1.2,1.2,0,0,0,151,51c0,.74.4,1.35,1,1.35a1.17,1.17,0,0,0,1-1.26"/><path class="cls-2" d="M163.09,62.83a1.1,1.1,0,0,1-.68.33c-.82,0-.92-1.37-.92-2.29V56.6c0-1.22-.08-2-1-2.68a4.09,4.09,0,0,0-2.23-.72,5.39,5.39,0,0,0-2.35.63,2.62,2.62,0,0,0-1.36,2,.9.9,0,0,0,.79,1c.63,0,.85-.59.85-1.31v-.28c0-.83,1.08-1.16,1.6-1.16a2.29,2.29,0,0,1,1.5.46,2.17,2.17,0,0,1,.58,1.66v1.57l-1.23.17a7.34,7.34,0,0,0-2.8.89,2.84,2.84,0,0,0-1.65,2.72,2.5,2.5,0,0,0,2.55,2.57,4.21,4.21,0,0,0,3.14-1.57,1.87,1.87,0,0,0,1.82,1.57,2.17,2.17,0,0,0,1.7-.74Zm-3.2-1.22a3.74,3.74,0,0,1-2.48,1.46,1.6,1.6,0,0,1-1.52-1.77c0-2.15,2.73-2.61,4-2.76v3.07"/><path class="cls-1" d="M72.73,82.57a6.69,6.69,0,0,1-.17,2c-.23.59-.7.65-1.15.72h-.17V86h4.7v-.65l-.28,0c-1.37-.13-1.27-1.27-1.27-2.72V78.45h6v4.12a6.73,6.73,0,0,1-.18,2,1.18,1.18,0,0,1-1.15.72h-.17V86h4.67v-.65l-.25,0C81.93,85.16,82,84,82,82.57v-8a6.27,6.27,0,0,1,.19-2c.21-.59.7-.65,1.15-.72h.17v-.65H78.88v.65l.25,0c1.37.13,1.25,1.28,1.25,2.74v3h-6v-3a6.72,6.72,0,0,1,.18-2c.23-.61.71-.68,1.18-.72h.18v-.65h-4.7v.65l.25,0c1.35.13,1.24,1.28,1.24,2.72v8"/><path class="cls-2" d="M91.56,79.67C91.6,77,90,75.19,88,75.21c-2.46,0-4,2.28-4,5.44a6.88,6.88,0,0,0,1.25,4.07,3.53,3.53,0,0,0,2.92,1.42,3.64,3.64,0,0,0,3.41-2.61L91,83.16c-.53,1.28-1.32,2-2.45,2a2.41,2.41,0,0,1-2.12-1.35,7.15,7.15,0,0,1-.71-3l0-1.11Zm-5.78-.89c.12-1.39.9-2.68,2.08-2.68s1.92,1.07,1.92,2.68h-4"/><path class="cls-1" d="M103.14,70.35h-.67a7.55,7.55,0,0,1-2.42.72v.65l.23,0c1.37.13,1.25,1.28,1.25,2.72V83.2c0,1.3-.18,2-1.27,2.12h-.15V86h4.37v-.65l-.2,0c-1-.09-1.15-.92-1.15-2.09V70.35"/><path class="cls-1" d="M110,75.42h-2.36v-4h-.72c0,2.13-.37,3.9-2.29,4v.7H106v7.12a2.86,2.86,0,0,0,.74,2.37,2.7,2.7,0,0,0,1.65.53,2.78,2.78,0,0,0,2.68-1.42l-.06-.89c0,1.2-.77,1.49-1.81,1.49-1.76,0-1.6-1.87-1.6-3.08V76.12H110v-.7"/><path class="cls-1" d="M118.58,78.6a3.48,3.48,0,0,0-.67-2.65,2.74,2.74,0,0,0-1.87-.74A4.6,4.6,0,0,0,112.66,77V70.35H112a7.51,7.51,0,0,1-2.41.72v.66l.23,0c1.37.13,1.25,1.29,1.25,2.73V83.2c0,1.39-.2,2-1.32,2.12h-.19V86H114v-.65h-.22c-1-.09-1.13-.92-1.13-2.12V78.06a4.43,4.43,0,0,1,2.94-1.72,1.33,1.33,0,0,1,1.12.61,3.64,3.64,0,0,1,.27,1.77V83.2c0,1.39-.18,2-1.3,2.12h-.2V86H120v-.65h-.2c-1-.12-1.17-.92-1.17-2.12V78.6"/><path class="cls-2" d="M101,85.11a1.17,1.17,0,0,1-.76.22c-.81,0-1.08-1.54-1.08-2.46V78.6c0-1.22-.08-2-1-2.67A4.06,4.06,0,0,0,96,75.21a5.51,5.51,0,0,0-2.35.63,2.62,2.62,0,0,0-1.35,2,.9.9,0,0,0,.79,1c.63,0,.85-.59.85-1.3v-.28c0-.83,1.09-1.16,1.61-1.16a2.29,2.29,0,0,1,1.5.46,2.15,2.15,0,0,1,.58,1.65v1.57L96.34,80a7.46,7.46,0,0,0-2.8.9,2.84,2.84,0,0,0-1.65,2.72,2.5,2.5,0,0,0,2.55,2.57,4.22,4.22,0,0,0,3.14-1.57,1.86,1.86,0,0,0,1.81,1.57,2.17,2.17,0,0,0,1.71-.74Zm-3.43-1.49a3.75,3.75,0,0,1-2.49,1.46,1.6,1.6,0,0,1-1.52-1.76c0-2.16,2.74-2.62,4-2.77v3.07"/><path class="cls-2" d="M77.21,93.36H75.66l-2.78,9.34c-.29,1-.71,2.44-1.09,3.33s-.7,1.22-1.5,1.46l-.19,0v.65h4.47v-.65c-.8-.11-1.47-.33-1.47-1.42a8.28,8.28,0,0,1,.38-1.81l.47-1.63h4.29l.75,2.57a4.79,4.79,0,0,1,.25,1.2c0,.85-.75,1-1.3,1.09v.65h4.69v-.65c-1.32-.09-1.57-1.39-2-2.74Zm-3,8.34L76,95.23l1.9,6.47H74.19"/><path class="cls-1" d="M89.18,105.53c-.68,1.14-1.43,2-2.6,2-2,0-2.72-2.35-2.7-4.57,0-2,.36-4.68,2.28-4.68.57,0,1.65.43,1.65,1.39,0,.29-.06.55-.06.83a1,1,0,0,0,.85,1c.52,0,.85-.54.85-1.2a2.91,2.91,0,0,0-1.13-2.13,3.35,3.35,0,0,0-2.24-.76C83.5,97.43,82,99.7,82,103s1.64,5.38,4.12,5.38a3.8,3.8,0,0,0,3.57-2.42l-.48-.42"/><path class="cls-1" d="M95,97.65H92.62v-4H91.9c0,2.13-.37,3.89-2.28,4v.7H91v7.12a2.86,2.86,0,0,0,.73,2.37,2.71,2.71,0,0,0,1.65.53,2.65,2.65,0,0,0,2.35-1.42l-.42-.48a1.94,1.94,0,0,1-1.45,1c-1.27,0-1.27-1.75-1.27-3V98.35H95v-.7"/><path class="cls-2" d="M98.93,97.65H98.4l-2.56.48v.65h.27c1,.09,1.22.89,1.22,2.11v4.53c0,1.33-.17,2-1.27,2.11h-.15v.65h4.41v-.65h-.2c-1-.11-1.19-.91-1.19-2.11Zm.21-2.35c0-.74-.41-1.35-1-1.35a1.19,1.19,0,0,0-1,1.26c0,.74.4,1.36,1,1.36a1.17,1.17,0,0,0,1-1.27"/><path class="cls-2" d="M104.59,97.43c-2.57,0-4,2.35-4,5.6s1.6,5.34,4.07,5.34,4.08-2.14,4.08-5.43a7.07,7.07,0,0,0-1.21-4.14,3.64,3.64,0,0,0-2.92-1.37m.11.87a2.21,2.21,0,0,1,1.87,1.63,9.55,9.55,0,0,1,.42,3.18c0,1.91-.42,4.38-2.23,4.38-2,0-2.46-2.42-2.46-4.53s.47-4.7,2.4-4.66"/><path class="cls-1" d="M118,100.57a3.05,3.05,0,0,0-.65-2.26,2.41,2.41,0,0,0-1.8-.87A4.58,4.58,0,0,0,112,99.37V97.65h-.53l-2.55.48v.65h.27c1,.09,1.22.89,1.22,2.11v4.53c0,1.37-.2,2-1.3,2.11h-.18v.65h4.52v-.65h-.23c-1.06-.09-1.21-.89-1.21-2.11v-5.12a4.38,4.38,0,0,1,3-1.74,1.3,1.3,0,0,1,1.17.79,3.84,3.84,0,0,1,.27,1.59v4.48c0,1.22-.15,2-1.2,2.11h-.24v.65h4.44v-.65h-.21c-1-.09-1.19-.91-1.19-2.09v-4.88"/><path class="cls-1" d="M128,104.79c0,1.44.12,2.57-1.17,2.72l-.25,0v.65h4.66v-.65l-.4,0c-1.28-.15-1.17-1.28-1.17-2.72V96.73c0-1.44-.06-2.57,1.22-2.72h.2v-.66h-4.5V94h.2c1.29.15,1.22,1.28,1.22,2.72v8.06"/><path class="cls-1" d="M140.11,100.57a3.07,3.07,0,0,0-.65-2.26,2.38,2.38,0,0,0-1.8-.87,4.58,4.58,0,0,0-3.55,1.94V97.65h-.54l-2.55.48v.65h.27c1.05.09,1.22.89,1.22,2.11v4.53c0,1.37-.21,2-1.3,2.11h-.28v.65h4.62v-.65h-.23c-1.05-.09-1.2-.89-1.2-2.11v-5.12a4.37,4.37,0,0,1,3-1.74,1.3,1.3,0,0,1,1.17.79,3.79,3.79,0,0,1,.27,1.59v4.48c0,1.22-.15,2-1.2,2.11h-.24v.65h4.44v-.65h-.22c-1-.09-1.18-.91-1.18-2.09v-4.88"/><path class="cls-1" d="M148.8,105.53c-.68,1.14-1.43,2-2.6,2-2,0-2.72-2.35-2.7-4.57,0-2,.37-4.68,2.29-4.68.56,0,1.65.43,1.65,1.39,0,.29-.07.55-.07.83a1,1,0,0,0,.85,1c.52,0,.85-.54.85-1.2a2.9,2.9,0,0,0-1.13-2.13,3.35,3.35,0,0,0-2.24-.76c-2.57,0-4.1,2.26-4.1,5.55s1.63,5.38,4.12,5.38a3.81,3.81,0,0,0,3.57-2.42l-.49-.42"/><path class="cls-1" d="M152,106.88a1.24,1.24,0,0,0-1.08-1.37c-.58,0-1,.65-1,1.41a1.34,1.34,0,0,0,1.07,1.44,1.36,1.36,0,0,0,1.06-1.48"/><path class="cls-2" d="M132.89,55.93a2.61,2.61,0,0,1,2.19-1.66c2,0,2.39,2.42,2.39,4.48,0,2.22-.62,4.34-2.55,4.34a2.6,2.6,0,0,1-2-1.11Zm0,7.14a3.45,3.45,0,0,0,2.5,1.07c2.45,0,3.81-2.51,3.81-5.51s-1.25-5.42-3.67-5.42a3.16,3.16,0,0,0-2.63,1.61v-1.4h-.54l-2.55.48v.65h.27c1.05.09,1.22.9,1.22,2.11v7.63c0,1.68-.18,2.48-1.26,2.57h-.15v.92h4.6v-.92l-.33,0c-1.08-.06-1.25-.83-1.25-2.54V63.07"/><rect class="cls-1" x="67.36" y="66.79" width="61.66" height="0.88"/><rect class="cls-1" x="67.36" y="66.79" width="61.66" height="0.88"/><path class="cls-1" d="M119.45,109.58H67.17V90L26.7,103.67h0l-.22.14H4.56L21.8,100h4.66c.19,0,0,0,.19,0h.46L67.17,88.29V68.06L27.29,69.17h-.38l-.36,0H.44a.44.44,0,0,0-.44.44V99.56a.44.44,0,0,0,.44.44H17.69L.45,103.81h0a.45.45,0,0,0-.44.45v29.91a.44.44,0,0,0,.44.44H26.76l.1,0h0l.27-.08,39.66-24h53ZM.89,70.1H26.31v29H.89Zm0,34.6H26.31v29H.89Z"/><path class="cls-1" d="M119.45,109.58H67.17V90L26.7,103.67h0l-.22.14H4.56L21.8,100h4.66c.19,0,0,0,.19,0h.46L67.17,88.29V68.06L27.29,69.17h-.37l-.37,0H.44a.44.44,0,0,0-.44.44V99.56a.44.44,0,0,0,.44.44H17.69L.45,103.81h0a.44.44,0,0,0-.44.45v29.91a.44.44,0,0,0,.44.44H26.76l.1,0h0l.27-.08,39.66-24h53ZM.89,70.1H26.31v29H.89Zm0,34.6H26.31v29H.89Z"/><path class="cls-1" d="M169.93,24H67.17v0L27.13.1h0L26.94,0l-.18,0H.44A.44.44,0,0,0,0,.44V30.35a.44.44,0,0,0,.44.44h0L17.74,34.6H.44A.44.44,0,0,0,0,35V65a.44.44,0,0,0,.44.44h26c3.13,0-1.52,0-1.33,0l2.16,0,39.93.88V46.1L27,34.65h0l-.07,0-.18,0H21.82L4.59,30.8H26.43l.26.08.13,0L67.17,44.25V24.92H169.49V44.66H67.36v.89H169.49V66.79h-34.1v.88h34.1V88.92H67.36v.89H169.49v19.77H123.06l-.89.89h48.2V24ZM26.31,64.52H.88v-29H26.31ZM.89.89H26.31v29H.89Z"/><path class="cls-1" d="M169.93,24H67.17v0L27.13.1h0L26.94,0l-.18,0H.44A.44.44,0,0,0,0,.44V30.36a.44.44,0,0,0,.44.44h0L17.74,34.6H.44A.44.44,0,0,0,0,35V65a.44.44,0,0,0,.44.44h26c3.13,0-1.52,0-1.33,0l2.16,0,39.93.88V46.1L27,34.65h-.07l-.18,0H21.82L4.59,30.8H26.43l.26.09.13,0L67.17,44.24V24.92H169.49V44.66H67.36v.89H169.49V66.79h-34.1v.88h34.1V88.92H67.36v.89H169.49v19.78H123.06l-.89.88h48.2V24ZM26.31,64.52H.89v-29H26.31ZM.89.88H26.31v29H.89Z"/><path class="cls-1" d="M120.77,110.67a3.37,3.37,0,0,0,1.8-3.09c0-1-.39-1.87-1.2-1.87-.6,0-1,.67-1,1.44s.33,1.22.88,1.22a.91.91,0,0,0,.6-.3,3.05,3.05,0,0,1-1.25,2.17l.18.43"/></g></g></svg>