<svg id="Layer_1" data-name="Layer 1" xmlns="http://www.w3.org/2000/svg" viewBox="0 0 198.06 44"><defs><style>.cls-1{fill:#7c7b7b;}.cls-2{fill:#326f4f;}</style></defs><title>logo</title><path class="cls-1" d="M280.68,287.36q-.14,1.89-.14,4v7.19a22.36,22.36,0,0,0,.2,4.42q.2.41,1.44.41h.95v.79q-2.25-.08-3.81-.08t-3.78.08v-.79h1.06a1.8,1.8,0,0,0,1.09-.22,1.31,1.31,0,0,0,.32-.86q.13-1.48.13-3.81v-7.2q0-2.13-.09-3.91h-1.28a18.79,18.79,0,0,0-3.42.14q-.32.14-.42,1.12l-.18,1.68H272l0-1.49q0-.9-.14-2.6l8,.08,7-.08q-.24,2.12-.28,4.09h-.79l-.13-1.64a2.35,2.35,0,0,0-.21-1,1,1,0,0,0-.62-.19q-1.39-.1-3.15-.1Z" transform="translate(-200.59 -285.98)"/><path class="cls-1" d="M292.76,295.22v3.53q0,.91.06,2.14.08,1.72.13,1.91a.74.74,0,0,0,.37.37,2.07,2.07,0,0,0,1,.19h.86v.79q-1.65-.08-3.18-.08t-4.25.08v-.79h.79q1.33,0,1.57-.45a16.85,16.85,0,0,0,.24-4.11V291.2a14,14,0,0,0-.25-3.75q-.25-.45-1.41-.45h-.94v-.79q2.09.08,3.89.08t3.54-.08V287h-.54a3.27,3.27,0,0,0-1.45.19.86.86,0,0,0-.34.62,32.57,32.57,0,0,0-.1,3.38v2.89q2.25.08,5.72.08,2.94,0,4.78-.08v-2.47q0-2.17-.15-3.63a1,1,0,0,0-.34-.75,2.11,2.11,0,0,0-1.19-.23h-.91v-.79q1.94.08,3.68.08t3.91-.08V287h-1a2.31,2.31,0,0,0-1.25.21,1.1,1.1,0,0,0-.33.79q-.06.57-.06,3.61v7a20,20,0,0,0,.22,4.32q.22.45,1.39.45h1v.79q-1.75-.08-3.62-.08-2.13,0-4,.08v-.79h.87a2.25,2.25,0,0,0,1.24-.22,1.18,1.18,0,0,0,.34-.83q.14-1.3.14-3.8v-3.29q-1.78-.08-4.54-.08Q294.78,295.14,292.76,295.22Z" transform="translate(-200.59 -285.98)"/><path class="cls-1" d="M314.49,295.59v4.91q0,1.68,0,2.46,1.84.14,4,.14a18.69,18.69,0,0,0,2.37-.13,6,6,0,0,0,1.31-.33q.32-1.11.64-2.77h.83q-.34,2.73-.34,3.65l0,.56q-1.45.12-2.85.12l-2,0q-3.28-.08-4.82-.08t-3.92.08v-.79h.39a2.72,2.72,0,0,0,1.38-.21,1.5,1.5,0,0,0,.38-1q.09-.79.09-3.51v-6.92q0-1.7-.08-2.79a5.81,5.81,0,0,0-.18-1.29.73.73,0,0,0-.27-.32,3.48,3.48,0,0,0-1.09-.2l-1-.1v-.79h1.36l1.34,0,1.7,0,4.85-.07H321q1.17,0,2.37.08a14.21,14.21,0,0,0-.51,3.85H322a16,16,0,0,0-.14-2.31,10.62,10.62,0,0,0-3.68-.56q-1.74,0-3.64.15,0,1.19,0,2.39l0,2v2.58q1.27.08,2.24.08a13.77,13.77,0,0,0,3.45-.21q.4-.21.4-1.31v-.83h.83q-.09,1.92-.09,3.06t.09,2.84h-.83v-.73q0-1.21-.48-1.48a11,11,0,0,0-3.39-.27Q315.64,295.51,314.49,295.59Z" transform="translate(-200.59 -285.98)"/><path class="cls-1" d="M330.44,303.36h.8q1.17,0,1.41-.57a29.94,29.94,0,0,0,.23-5.44v-4.28a35.4,35.4,0,0,0-.2-5.56q-.2-.52-1.21-.52h-1v-.79q2.11.08,4.17.08,1.71,0,3.11-.08V287h-1a1.88,1.88,0,0,0-1.13.21,1.75,1.75,0,0,0-.27,1.08q-.06,1.35-.06,4.81v4.35a31.28,31.28,0,0,0,.22,5.4q.22.5,1.38.5h.84v.79q-1.56-.08-3.4-.08-2.15,0-3.87.08Z" transform="translate(-200.59 -285.98)"/><path class="cls-1" d="M339,295.18a8.75,8.75,0,0,1,2.67-6.67,9.94,9.94,0,0,1,7.12-2.53,9.55,9.55,0,0,1,6.84,2.35,8.18,8.18,0,0,1,2.48,6.23,9.42,9.42,0,0,1-2.87,7,9.93,9.93,0,0,1-7.25,2.82,9.52,9.52,0,0,1-4.72-1.11,7.9,7.9,0,0,1-3.13-3.23A10.09,10.09,0,0,1,339,295.18Zm2.6-1a11.65,11.65,0,0,0,1,4.94,7.21,7.21,0,0,0,2.61,3.15,6.76,6.76,0,0,0,3.73,1,6.39,6.39,0,0,0,3.4-.89,6,6,0,0,0,2.29-2.66,10,10,0,0,0,.84-4.31,10.27,10.27,0,0,0-.92-4.55A6.53,6.53,0,0,0,352,288a7.32,7.32,0,0,0-3.81-1,6.82,6.82,0,0,0-3.47.84,5.81,5.81,0,0,0-2.29,2.47A8.16,8.16,0,0,0,341.59,294.15Z" transform="translate(-200.59 -285.98)"/><path class="cls-1" d="M364.84,300.34l2.92-7.22q.74-1.85,2.69-7.07h.83q.74,2.33,2,5.91l3,8.56,2.3-8q.33-1.15,1.13-4.42a2,2,0,0,0,.08-.48.38.38,0,0,0-.19-.34,2.84,2.84,0,0,0-.93-.19l-1.15-.09v-.79q1.76.08,2.76.08t2.66-.08V287h-.66a.91.91,0,0,0-.64.2,28,28,0,0,0-1.92,5.3q-2,6.52-3.29,11.88h-1.32q-.23-.85-.38-1.26-.55-1.63-2.57-7.17l-2.06-5.68L367.79,296q-2.12,5.13-3.14,8.4h-1.29l-.66-3.11q-.28-1.38-.64-2.93l-2.18-9.44a4.44,4.44,0,0,0-.57-1.65,1.53,1.53,0,0,0-1-.25h-.53v-.79q1.8.08,3.12.08t3.44-.08V287h-.79a2.58,2.58,0,0,0-1.12.15.53.53,0,0,0-.26.5,2.09,2.09,0,0,0,.06.47l.87,4.19Z" transform="translate(-200.59 -285.98)"/><path class="cls-1" d="M392.29,298.05H385l-.87,2.08a10.39,10.39,0,0,0-.84,2.47.5.5,0,0,0,.16.42,1.9,1.9,0,0,0,.8.2l1.21.14v.79q-1.21-.08-2.72-.08-1.81,0-3.19.08v-.79H380a2.74,2.74,0,0,0,1.14-.18,1.84,1.84,0,0,0,.55-.78q.89-1.82,1.83-3.93l3.46-7.86q1.38-3.13,1.89-4.54h.87l6.37,14.86a14.57,14.57,0,0,0,.86,1.82,1.27,1.27,0,0,0,.49.44,4.06,4.06,0,0,0,1.25.18v.79q-1.64-.08-3.13-.08t-3.69.08v-.79l1.25-.08a2.23,2.23,0,0,0,.79-.14.42.42,0,0,0,.19-.35,5.05,5.05,0,0,0-.38-1.19Zm-6.8-1h6.35l-3.17-7.59Z" transform="translate(-200.59 -285.98)"/><path class="cls-1" d="M287.7,313.42l-.1-2.25a8.82,8.82,0,0,0-2.36-1.11,9,9,0,0,0-2.58-.37,7.09,7.09,0,0,0-7.54,7.58,8.83,8.83,0,0,0,1,4.32,7.68,7.68,0,0,0,3,3,8,8,0,0,0,4.05,1.11,14.31,14.31,0,0,0,3.35-.4,6.83,6.83,0,0,0,2.49-1.23l.27.25q-.27.58-.49,1.17a14.55,14.55,0,0,1-3,1.12,12.34,12.34,0,0,1-3,.38,11.92,11.92,0,0,1-5.47-1.2,8.68,8.68,0,0,1-3.62-3.3,9.08,9.08,0,0,1-1.26-4.76,8.94,8.94,0,0,1,1.28-4.75,8.54,8.54,0,0,1,3.61-3.25,12.86,12.86,0,0,1,5.73-1.15,17.76,17.76,0,0,1,4.17.59q1.19.28,1.93.42a11.09,11.09,0,0,0-.67,3.83Z" transform="translate(-200.59 -285.98)"/><path class="cls-1" d="M295.36,325.59q1.24.06,2.41.06,2.37,0,3.71-.13a12.86,12.86,0,0,0,1.93-.37l.76-3H305q-.33,2.4-.51,4.48a20.82,20.82,0,0,1-3.1.18l-6-.1q-1.21,0-3.77.08v-.63q1-.44,1.19-.95a21.84,21.84,0,0,0,.18-4v-7a23.1,23.1,0,0,0-.18-4.23q-.18-.44-1-.44h-1.38v-.79q3,.08,4,.08,1.32,0,3.58-.08v.79h-1.57q-.67,0-.85.39a14.31,14.31,0,0,0-.18,3.21v8.07l0,3.57Z" transform="translate(-200.59 -285.98)"/><path class="cls-1" d="M306.27,326h.8q1.17,0,1.41-.57a29.92,29.92,0,0,0,.23-5.44v-4.28a35.39,35.39,0,0,0-.2-5.56q-.2-.52-1.21-.52h-1v-.79q2.11.08,4.17.08,1.71,0,3.11-.08v.79h-1a1.88,1.88,0,0,0-1.13.21,1.75,1.75,0,0,0-.27,1.08q-.06,1.35-.06,4.81v4.35a31.28,31.28,0,0,0,.22,5.4q.22.5,1.38.5h.84v.79q-1.56-.08-3.4-.08-2.15,0-3.87.08Z" transform="translate(-200.59 -285.98)"/><path class="cls-1" d="M318.39,311.64v8.73q0,3,.11,4.16a2,2,0,0,0,.3,1.09,2.52,2.52,0,0,0,1.21.28l.81.06v.79q-1.38-.08-2.5-.08-.77,0-3.55.08V326h.91a1.73,1.73,0,0,0,1.07-.23,1.38,1.38,0,0,0,.32-.9q.14-1.39.14-3.77V314.8q0-1.77,0-3.49a2.21,2.21,0,0,0-.2-1,1.63,1.63,0,0,0-.5-.49,1.68,1.68,0,0,0-.92-.21h-.78v-.79q1.6.08,2.45.08t2-.08q1.25,1.53,2.35,3t2.28,2.91l4.3,5.29q2.33,2.85,3.36,4v-8.1a38.21,38.21,0,0,0-.18-5.56q-.18-.47-1.46-.6l-.95-.09v-.79q2,.08,3.17.08t3-.08v.79h-1q-1.18,0-1.35.78-.11.52-.11,5.53v5.69q0,2.3.2,5.49a14,14,0,0,1-2-.39,1.57,1.57,0,0,1-.53-.4q-1.4-1.55-2.93-3.45Z" transform="translate(-200.59 -285.98)"/><path class="cls-1" d="M336.44,326h.8q1.17,0,1.41-.57a29.92,29.92,0,0,0,.23-5.44v-4.28a35.39,35.39,0,0,0-.2-5.56q-.2-.52-1.21-.52h-1v-.79q2.11.08,4.16.08,1.71,0,3.11-.08v.79h-1a1.88,1.88,0,0,0-1.13.21,1.75,1.75,0,0,0-.27,1.08q-.06,1.35-.06,4.81v4.35a31.27,31.27,0,0,0,.22,5.4q.22.5,1.38.5h.84v.79q-1.56-.08-3.4-.08-2.15,0-3.87.08Z" transform="translate(-200.59 -285.98)"/><path class="cls-1" d="M360.68,313.42l-.1-2.25a8.82,8.82,0,0,0-2.36-1.11,9,9,0,0,0-2.58-.37,7.09,7.09,0,0,0-7.54,7.58,8.83,8.83,0,0,0,1,4.32,7.67,7.67,0,0,0,3,3,8,8,0,0,0,4.05,1.11,14.31,14.31,0,0,0,3.35-.4,6.83,6.83,0,0,0,2.49-1.23l.27.25q-.27.58-.49,1.17a14.55,14.55,0,0,1-3,1.12,12.33,12.33,0,0,1-3,.38,11.92,11.92,0,0,1-5.47-1.2,8.68,8.68,0,0,1-3.62-3.3,9.08,9.08,0,0,1-1.26-4.76A9,9,0,0,1,346.7,313a8.54,8.54,0,0,1,3.61-3.25,12.86,12.86,0,0,1,5.73-1.15,17.76,17.76,0,0,1,4.17.59q1.19.28,1.93.42a11.09,11.09,0,0,0-.67,3.83Z" transform="translate(-200.59 -285.98)"/><path class="cls-2" d="M267.62,307.18a5.61,5.61,0,0,0-1-2.39c-.48-.6-1.79-1-2.07-1.68a4.19,4.19,0,0,0-1.19-2c-.66-.54-1.24-.46-1.28-1.32-.1-2.09-1.24-2.4-3.13-2.47-.68,0-1.22-1.07-1.34-1.62-.17-.8-.82-1-.87-1.89s-.62-1.78-.14-2.42,1.47-1.65,1-2.46-1,0-1.3-.9-.27-1.74-1.24-1.82c-2.19-.19-4.46,0-6.65,0h-47a4.4,4.4,0,0,1,0,2.75c-.5,1.06.57,1.19.8,2,.16.61-.11.76-.4,1.26-.51.85-.47,2.14-.75,3.09-.19.64-.73,1-.51,1.75s.88,1.09,1.17,1.74c.21.47-.05,1,.17,1.49.36.87,1.09,1.63,1.16,2.6a20.25,20.25,0,0,0,0,2c.18.79,1,1.29,1.27,2s.58,1.61.91,2.4-.12,1.64,0,2.52c.21,1.66,1.32,2.87,1.57,4.58s1.27,3.53.85,5.08a9.88,9.88,0,0,0-.08,2.13c0,.74-.47,1.88.44,2,.16,0,.23.87.26,1,.11.44,2.18.18,2.61.18H249.4a5.68,5.68,0,0,1,2.66.82c.67.75,1.84,3.4,3.22,1.82.26-.3-.28-1.44-.37-1.77-.23-.84,1-1.5,1.72-1.66a1.77,1.77,0,0,0,1.36-1.59c.09-1.22.58-1.61,1.29-2.52,1.41-1.82-.26-3.3-1.61-4.34a2.23,2.23,0,0,0,.43-2.35c.94.14,1.9-.41,2.86-.45s1.66-.7,2.53-1a3.41,3.41,0,0,0,1.93-1.15c.44-.73.08-1.67.71-2.35.42-.46,1.28-.23,1.05-1.13C267,308.55,267.74,308,267.62,307.18Zm-38.25-20.45a3,3,0,1,1-3,3A3,3,0,0,1,229.37,286.73ZM230.45,326l-.63-.49s1.67-1.49-.81-2.79c-2.19-1.15-2.24-1.15-3.09-2.08,0,0-1.59-2,1.27-3l1,.47c-2.27,1-.57,2.26-.57,2.26a25.86,25.86,0,0,1,3.76,2.31C233.09,324.48,230.45,326,230.45,326Zm1.51-3.59-1-.74s2.21-2-1.35-3.82c-3.15-1.59-3.22-1.59-4.44-2.86,0,0-2.08-2.52,2-3.87l1,.45c-3.26,1.42-.63,3-.63,3,4.9,2.66,5.4,3.18,5.4,3.18C235.5,320.3,232,322.37,232,322.37Zm-.57-6.38-1.2-.64s4.36-1.92-.85-4c-4.32-1.73-5.25-1.72-6.66-3a2.73,2.73,0,0,1-.4-4.1A3,3,0,0,1,226,304c1.29,1.17.65,1.92-.14,2.27-1.16.51-1.81-.82-1.9-.72-1,1.08,1.39,2,1.39,2,2.8,1.18,4.87,2,6.28,2.59,2.54,1.12,2.69,1.94,2.69,1.94C235.52,314.47,231.38,316,231.38,316Zm4.67-7.81a12.32,12.32,0,0,1-3.62,1.66l-1.14-.51a20.13,20.13,0,0,0,2.34-1.45s2.18-1.23,1.18-2.31c-.09-.1-.74,1.23-1.9.72-.8-.35-1.43-1.1-.14-2.27a3,3,0,0,1,3.7.26S238.41,306.13,236,308.19Zm7.15-7h-10.5l-3.61,2.92-3.43-2.92h-9.73l-2.67-1.8h12.4l3.43,2.69,3.66-2.67h12.73Zm4.19-3.52H232.8l-3.72,2.65-3.41-2.65H211.34l-2.6-1.63h17l3.33,2.41,3.65-2.41H250Zm5.33-3.59h-20l-3.67,2.55-3.44-2.55H205.71l-2.53-1.79h22.39l3.55,2.29,3.58-2.29h22.86Z" transform="translate(-200.59 -285.98)"/><path class="cls-1" d="M368.15,312.71a2.7,2.7,0,1,1-2.7-2.7A2.7,2.7,0,0,1,368.15,312.71Zm-5.16,0a2.46,2.46,0,1,0,2.46-2.46A2.46,2.46,0,0,0,363,312.71Zm1.35-1c0-.33,0-.51-.35-.51V311h1.46c.7,0,1.13.37,1.13.86s-.29.7-.85.85l.79,1.13c.17.24.26.32.46.33v.13h-.69l-1.13-1.54h-.29V314c0,.18.17.24.45.24v.13h-1.39v-.13c.43,0,.4-.22.4-.52Zm.54.94H365c.63,0,1-.26,1-.69a.73.73,0,0,0-.78-.73.93.93,0,0,0-.32.05Z" transform="translate(-200.59 -285.98)"/></svg>