<?xml version="1.0" encoding="UTF-8"?> <!-- Generator: Adobe Illustrator 25.3.1, SVG Export Plug-In . SVG Version: 6.00 Build 0) --> <svg xmlns="http://www.w3.org/2000/svg" xmlns:xlink="http://www.w3.org/1999/xlink" version="1.1" id="Layer_1" x="0px" y="0px" viewBox="0 0 290.1 59.2" style="enable-background:new 0 0 290.1 59.2;" xml:space="preserve"> <style type="text/css"> .st0{fill:#BED630;} .st1{fill:#0094A9;} .st2{fill:#007C90;} .st3{fill:#48A742;} .st4{fill:#6CB541;} .st5{fill:#8EC63E;} .st6{fill:#00A4C4;} .st7{fill:#00646B;} .st8{fill:#95D4D1;} .st9{fill:#FFFFFF;} .st10{fill:#323031;} .st11{fill:none;stroke:#323031;stroke-width:0.789;stroke-miterlimit:10;} .st12{fill:#0083A7;} </style> <g> <path class="st0" d="M40.5,30.7c0-0.3,0-0.7,0-1C40,15.7,27.5,4.6,22.9,2.1c-1-0.6-1.5-0.6-1.5-0.6c-0.3,0-0.8,0.2-1.1,0.3 c0,0,0,0,0,0C16.1,3.9,2.8,15.4,2.2,29.7c0,0.3,0,0.7,0,1c0,9.6,7.1,17.6,16.3,19l0.4-0.6l7.4-0.2l-0.5,0.5 C34.2,47.4,40.5,39.8,40.5,30.7"></path> <path class="st1" d="M40.5,30.7c0-0.3,0-0.7,0-1c0-1-0.1-1.9-0.3-2.9c-1.3,0.5-4.8,1.9-7.7,4.2c-3.4,2.7-5.7,5.7-6.5,6.8 c0,0,0,0,0,0c0,1.9-0.1,3.6-0.4,5.1c1.6-1.3,6-4.2,13.7-5.5C40.1,35.3,40.5,33,40.5,30.7"></path> <path class="st2" d="M39.3,37.4c-2.4,0.4-4.5,1-6.3,1.6c-0.5,0.2-0.9,0.3-1.3,0.5c-0.8,0.3-1.6,0.7-2.3,1c-1.8,0.9-3.1,1.8-3.8,2.3 c-0.3,1.8-0.7,3.4-1.3,4.8c0.9-0.7,2.3-1.7,5-2.4c2.3-0.7,4.2-0.8,5.3-0.8C36.7,42.5,38.3,40.1,39.3,37.4"></path> <path class="st3" d="M21.2,50.4l1.8-5.8c0,0-0.8-14.9-1.9-15.9c-1.2-1-4.9-2.3-9.1-3.1c-3.4-0.7-7.5-0.8-9.1-0.9 c-0.4,1.6-0.6,3.2-0.7,4.9c0,0.3,0,0.7,0,1c0,9,6.2,16.6,14.6,18.7h0c1.2,0.3,2.4,0.5,3.7,0.5c0,0.1,0,0.1-0.1,0.2L20.3,50"></path> <path class="st4" d="M17.7,27.1c0.4,0.1,0.8,0.3,1.2,0.4c0.3-0.2,0.6-0.3,0.7-0.4l0-0.1c0-0.1-0.1-0.2-0.1-0.4l0,0 c0-0.1-0.1-0.2-0.1-0.3c-0.3,0-0.8,0.1-1.1,0.2C18,26.8,17.8,27,17.7,27.1 M16.4,21.4c-1.5-0.5-3.3-1.1-5-1.4 c-2.9-0.6-5.3-0.8-6.4-0.9c-0.8,1.8-1.5,3.7-2,5.7c1.6,0,5.7,0.2,9.1,0.9c1.8,0.4,3.5,0.8,5,1.3c0-0.4,0.1-0.9,0.4-1.1 c0.6-0.3,1.3-0.8,1.5-1c-0.1-0.2-0.1-0.4-0.2-0.6c-0.3,0-0.7,0-1.1,0.2c-0.6,0.2-0.6,0.7-1,0.7c-0.4,0-0.5-1.1,0.2-1.5 c0.6-0.3,1.5-1,1.5-1.1l0,0c0-0.1-0.1-0.3-0.1-0.4c0,0-0.1,0-0.1,0c-0.3,0-0.7,0-1.1,0.1c-0.6,0.2-0.7,0.7-1.1,0.6 C15.6,22.8,15.6,21.7,16.4,21.4C16.3,21.4,16.4,21.4,16.4,21.4"></path> <path class="st5" d="M18.2,22C18.2,22,18.2,22,18.2,22C18.2,22.1,18.2,22.1,18.2,22C18.2,22.1,18.2,22.1,18.2,22 M16,16.9 c-1.7-1-4.5-2.4-7.9-3.3c-1.2,1.7-2.2,3.5-3.1,5.4c1.1,0.1,3.5,0.3,6.4,0.9c1.7,0.4,3.5,0.9,5,1.4c0.7-0.3,1.6-1,1.6-1.2l0,0 c0-0.1,0-0.2,0-0.3c-0.3,0-0.7-0.1-1.1,0c-0.6,0.1-0.7,0.6-1.1,0.5c-0.3-0.1-0.2-1.2,0.5-1.7c0.6-0.4,1.5-0.6,1.5-0.8h0 c0,0,0,0,0-0.1c-0.1-0.1-0.3-0.2-0.5-0.3c-0.2,0-0.4,0-0.5,0c-0.6,0.1-0.8,0.5-1.1,0.4C15.2,17.9,15.5,17.4,16,16.9"></path> <path class="st6" d="M40.3,26.8C38.4,14.2,27.3,4.5,23,2c-1.5,3.4-2.2,6.9-2.2,10.5c0,4.7,1.2,8,2.6,12.1c1.4,4.2,2.7,9.3,2.7,13.2 c0.8-1.1,3.1-4.1,6.5-6.8C35.5,28.7,38.9,27.3,40.3,26.8C40.3,26.8,40.3,26.8,40.3,26.8L40.3,26.8z"></path> <path class="st7" d="M18.4,57.4c2.3-1.6,6.4-6.4,7.4-8c3.5-0.8,6.6-2.6,9-5l0,0c0,0,0,0-0.1,0.1c-1.1,0-3,0.1-5.3,0.8 c-2.7,0.8-4.1,1.7-5,2.4"></path> <path class="st8" d="M19.8,45.6"></path> <path class="st9" d="M23.3,24.5c-1.4-4.1-2.6-7.4-2.6-12.1c0-3.6,0.7-7.1,2.2-10.5c-1-0.6-1.5-0.6-1.5-0.6 c-0.1,0.1-0.2,0.4-0.3,0.5c-0.5,0.1-0.9,0.2-1,0.3C20,2.7,20,3.1,20.2,3c0.1,0,0.3-0.1,0.5-0.2c-0.1,0.1-0.1,0.3-0.2,0.4 c-0.4,0-0.7,0.1-0.8,0.2c-0.2,0.2-0.4,0.4-0.4,0.7c0,0.1,0.4,0.1,0.8,0c-0.1,0.1-0.1,0.3-0.2,0.4c-0.6,0.1-1.1,0.3-1.2,0.5 c-0.1,0.1-0.3,0.6-0.3,0.9c0,0.1,0.5-0.1,1-0.4c-0.1,0.2-0.2,0.4-0.3,0.7c-0.5,0.1-0.9,0.2-1,0.4c-0.4,0.6-0.4,1.1-0.1,0.9 c0.1-0.1,0.5-0.3,0.8-0.5c-0.1,0.3-0.2,0.6-0.3,1c-0.5,0.1-0.9,0.3-1,0.4c-0.3,0.6-0.4,1.1-0.1,0.9c0.1-0.1,0.5-0.3,0.8-0.4 c-0.1,0.3-0.2,0.7-0.2,1c-0.5,0.1-1,0.2-1.1,0.4c-0.4,0.5-0.6,0.9-0.4,1.2c0.1,0.2,0.9-0.6,1.4-0.7c-0.1,0.3-0.1,0.7-0.1,1.1 c-0.5,0.2-1.3,0.4-1.5,0.8c-0.1,0.3-0.4,0.6-0.2,0.7c0.1,0.1,0.4-0.1,0.7-0.3c0.4-0.2,0.7-0.4,0.7-0.1c-0.1,0.2,0,0.3,0.2,0.3 c0,0.1,0,0.1,0,0.2l0,0c-0.3,0.3-0.8,0.4-1.3,0.8c-0.6,0.5-1,1.2-0.7,1.3c0.1,0.1,0.4-0.1,0.7-0.2c0.3-0.2,0.6-0.4,0.7-0.1 c0,0.1,0.3,0.2,0.7,0.3c0,0.1,0,0.1,0,0.2h0c-0.3,0.4-0.9,0.4-1.4,0.9c-0.6,0.5-1,1.2-0.7,1.3c0.3,0.1,0.5-0.3,1.1-0.4 c0.3,0,0.7,0,1,0.1c0,0.1,0,0.2,0,0.3h0c0,0.1-0.9,0.4-1.5,0.8c-0.7,0.5-0.8,1.6-0.5,1.7c0.4,0.1,0.5-0.4,1.1-0.5 c0.4-0.1,0.8,0,1.1,0c0,0.1,0,0.2,0,0.3l0,0c0,0.1-0.9,0.9-1.6,1.2c-0.7,0.3-0.7,1.4-0.4,1.4c0.4,0,0.4-0.4,1.1-0.6 C17.5,22,18,22,18.3,22c0,0.2,0.1,0.3,0.1,0.5l0,0c0,0.1-0.8,0.8-1.5,1.1c-0.7,0.4-0.6,1.5-0.2,1.5c0.4,0,0.4-0.5,1-0.7 c0.3-0.1,0.8-0.2,1.1-0.2c0.1,0.2,0.1,0.4,0.2,0.6c-0.2,0.2-1,0.7-1.5,1c-0.7,0.4-0.5,1.6-0.1,1.7c0.4,0,0.4-0.5,1-0.8 c0.4-0.2,0.8-0.2,1.1-0.2c0,0.1,0.1,0.2,0.1,0.3l0,0c0,0.1,0.1,0.2,0.1,0.4l0,0.1c-0.2,0.2-1.1,0.7-1.8,0.8 c-0.8,0.2-0.4,1.9-0.1,1.9c0.4,0,0.4-0.6,1-0.9c0.4-0.2,1-0.2,1.3-0.3c0.1,0.2,0.1,0.4,0.2,0.6c-0.2,0.3-1.1,0.9-1.8,1.1 c-0.8,0.2-0.2,1.7,0,1.8c0.4,0.2,0.8-0.3,1.4-0.6c0.3-0.2,0.7-0.3,0.9-0.4c0.1,0.2,0.1,0.4,0.2,0.6c-0.2,0.2-0.9,0.8-1.6,0.9 c-0.8,0.2-0.4,1.1-0.4,1.2c0.1,0.1,0.4,0.6,1.1,0.3c0.3-0.2,0.9-0.3,1.4-0.5c0.1,0.3,0.1,0.5,0.2,0.8c-0.2,0.2-0.9,0.5-1.7,0.7 c-0.9,0.1-0.6,1.1-0.5,1.3c0,0.2,0.4,0.7,1.1,0.4c0.4-0.2,0.9-0.3,1.4-0.4c0,0.3,0.1,0.5,0.1,0.8c-0.2,0.2-0.6,0.4-1.2,0.5 c-0.9,0.1-0.6,1.1-0.6,1.2c0,0.2,0.3,0.7,1.1,0.5c0.2-0.1,0.6-0.1,0.9-0.2c0,0.3,0,0.5,0,0.7l0,0.2c-0.1,0.1-0.4,0.1-0.8,0.1 c-0.9,0-0.7,1-0.7,1.2c0,0.2,0.3,0.7,1.1,0.5c0.1,0,0.3-0.1,0.4-0.1c0,0.3,0,0.6-0.1,0.9c-0.2,0.1-0.4,0.1-0.6,0.2 c-1.1,0.2-0.6,1.6-0.5,1.8c0.1,0.2,0.4,0.1,0.8,0c-0.1,0.3-0.1,0.7-0.2,1c-0.1,0-0.3,0-0.5-0.1c-0.7-0.2-0.8,0.7-0.8,0.8 c0,0.1,0.1,0.7,0.7,0.7c0.1,0,0.1,0,0.2,0c-0.1,0.3-0.2,0.6-0.2,0.8c-0.1,0-0.3-0.1-0.5-0.1c-0.7-0.3-0.9,0.6-0.9,0.8 c0,0.1,0,0.7,0.7,0.8c0.1,0,0.2,0,0.2,0c-0.1,0.3-0.2,0.6-0.3,0.9l-0.1-0.1c-0.7-0.3-0.9,0.6-1,0.7c0,0.1,0,0.6,0.5,0.8 c-0.1,0.2-0.2,0.5-0.3,0.7c-0.6-0.1-0.8,0.6-0.8,0.7c0,0.1-0.1,0.4,0.2,0.6c-0.2,0.3-0.3,0.6-0.5,0.9c-0.6,0.1-0.7,1.2-0.7,1.2 c-0.6,1,0.7,1.7,0.7,1.7C22,52.1,26,48,26,37.8C26,33.8,24.7,28.7,23.3,24.5"></path> </g> <g> <path class="st10" d="M275.3,22.8h9.3c0-3.8-0.6-9.7-4-9.7C277.3,13.1,275.7,18.2,275.3,22.8 M280.6,39.1c-5.5,0-8.4-6.9-8.4-13.8 c0-6.7,2.6-13.9,8.2-13.9c6.5,0,7,6.3,7,12.7v0.3h-12.1c0,0.3,0,0.5,0,0.8c0,5.9,2,12.3,5.7,12.3c0.6,0,1.3-0.2,2.2-0.6l2.6-1.1 l1,1.9l-0.2,0.1C285.5,38.4,283,39.1,280.6,39.1"></path> <path class="st11" d="M275.3,22.8h9.3c0-3.8-0.6-9.7-4-9.7C277.3,13.1,275.7,18.2,275.3,22.8z M280.6,39.1c-5.5,0-8.4-6.9-8.4-13.8 c0-6.7,2.6-13.9,8.2-13.9c6.5,0,7,6.3,7,12.7v0.3h-12.1c0,0.3,0,0.5,0,0.8c0,5.9,2,12.3,5.7,12.3c0.6,0,1.3-0.2,2.2-0.6l2.6-1.1 l1,1.9l-0.2,0.1C285.5,38.4,283,39.1,280.6,39.1z"></path> <path class="st10" d="M266.8,39.1c-2.5,0-4.3-1.7-4.3-4.1V13.6h-2.2v-1.9h2.2V6.9l2.7-1v5.8h6.3v1.9h-6.3v15.9 c0,0.9-0.1,2.4-0.2,3.5c0,0.7-0.1,1.3-0.1,1.5c0,2,0.9,2.8,3.1,2.8c0.3,0,0.9-0.2,1.3-0.3l0.3-0.1l0.6,1.5l-0.2,0.1 C268.8,38.9,267.3,39.1,266.8,39.1"></path> <path class="st11" d="M266.8,39.1c-2.5,0-4.3-1.7-4.3-4.1V13.6h-2.2v-1.9h2.2V6.9l2.7-1v5.8h6.3v1.9h-6.3v15.9 c0,0.9-0.1,2.4-0.2,3.5c0,0.7-0.1,1.3-0.1,1.5c0,2,0.9,2.8,3.1,2.8c0.3,0,0.9-0.2,1.3-0.3l0.3-0.1l0.6,1.5l-0.2,0.1 C268.8,38.9,267.3,39.1,266.8,39.1z"></path> <path class="st10" d="M247.9,39.1c-2.4,0-4-1.6-4-4.1V11.7h2.7v23c0,2.1,1.4,2.5,2.6,2.5c0.3,0,1.1-0.1,1.5-0.2l4.3-1.4V11.7h2.7 v27.1h-1.8l-0.7-1.9l-3.8,1.5C250.1,39,248.4,39.1,247.9,39.1"></path> <path class="st11" d="M247.9,39.1c-2.4,0-4-1.6-4-4.1V11.7h2.7v23c0,2.1,1.4,2.5,2.6,2.5c0.3,0,1.1-0.1,1.5-0.2l4.3-1.4V11.7h2.7 v27.1h-1.8l-0.7-1.9l-3.8,1.5C250.1,39,248.4,39.1,247.9,39.1z"></path> <path class="st10" d="M236.9,39.1c-2.5,0-4.3-1.7-4.3-4.1V13.6h-2.2v-1.9h2.2V6.9l2.7-1v5.8h5.2v1.9h-5.2v15.9 c0,0.9-0.1,2.4-0.2,3.5c0,0.7-0.1,1.3-0.1,1.5c0,2,0.9,2.8,3.1,2.8c0.3,0,0.9-0.2,1.3-0.3l0.3-0.1l0.6,1.5l-0.2,0.1 C238.9,38.9,237.4,39.1,236.9,39.1"></path> <path class="st11" d="M236.9,39.1c-2.5,0-4.3-1.7-4.3-4.1V13.6h-2.2v-1.9h2.2V6.9l2.7-1v5.8h5.2v1.9h-5.2v15.9 c0,0.9-0.1,2.4-0.2,3.5c0,0.7-0.1,1.3-0.1,1.5c0,2,0.9,2.8,3.1,2.8c0.3,0,0.9-0.2,1.3-0.3l0.3-0.1l0.6,1.5l-0.2,0.1 C238.9,38.9,237.4,39.1,236.9,39.1z"></path> <path class="st10" d="M226.4,6.4c-1,0-1.5-0.4-1.5-0.8V3.7h3v1.9C227.9,5.9,227.7,6.4,226.4,6.4 M227.8,38.8H225V11.7h2.7V38.8z"></path> <path class="st11" d="M226.4,6.4c-1,0-1.5-0.4-1.5-0.8V3.7h3v1.9C227.9,5.9,227.7,6.4,226.4,6.4z M227.8,38.8H225V11.7h2.7V38.8z"></path> <path class="st10" d="M217.9,39.1c-2.5,0-4.3-1.7-4.3-4.1V13.6h-2.2v-1.9h2.2V6.9l2.7-1v5.8h5.2v1.9h-5.2v15.9 c0,0.9-0.1,2.4-0.2,3.5c0,0.7-0.1,1.3-0.1,1.5c0,2,0.9,2.8,3.1,2.8c0.3,0,0.9-0.2,1.3-0.3l0.3-0.1l0.6,1.5l-0.2,0.1 C219.9,38.9,218.4,39.1,217.9,39.1"></path> <path class="st11" d="M217.9,39.1c-2.5,0-4.3-1.7-4.3-4.1V13.6h-2.2v-1.9h2.2V6.9l2.7-1v5.8h5.2v1.9h-5.2v15.9 c0,0.9-0.1,2.4-0.2,3.5c0,0.7-0.1,1.3-0.1,1.5c0,2,0.9,2.8,3.1,2.8c0.3,0,0.9-0.2,1.3-0.3l0.3-0.1l0.6,1.5l-0.2,0.1 C219.9,38.9,218.4,39.1,217.9,39.1z"></path> <path class="st10" d="M203,39.1c-2.4,0-5.2-0.6-6.7-1.2l-0.3-0.1l1-2l0.2,0.1c0.6,0.2,1.1,0.4,1.7,0.6c1.4,0.5,2.7,1,4.1,1 c1.6,0,4.2-0.5,4.2-3.9c0-2.8-2.3-5.2-4.8-7.6c-2.8-2.9-5.8-5.9-5.8-10c0-2.2,2.1-4.5,6.1-4.5c2.2,0,4.4,0.3,5.9,0.9l0.2,0.1 l-0.7,1.9l-0.2-0.1c-0.5-0.2-1-0.3-1.4-0.5c-1.3-0.5-2.2-0.8-3.7-0.8c-2.5,0-3.4,2-3.4,2.9c0,2.8,2.3,5.2,4.8,7.7 c2.8,2.9,5.7,5.8,5.7,9.9C209.9,36.2,207.7,39.1,203,39.1"></path> <path class="st11" d="M203,39.1c-2.4,0-5.2-0.6-6.7-1.2l-0.3-0.1l1-2l0.2,0.1c0.6,0.2,1.1,0.4,1.7,0.6c1.4,0.5,2.7,1,4.1,1 c1.6,0,4.2-0.5,4.2-3.9c0-2.8-2.3-5.2-4.8-7.6c-2.8-2.9-5.8-5.9-5.8-10c0-2.2,2.1-4.5,6.1-4.5c2.2,0,4.4,0.3,5.9,0.9l0.2,0.1 l-0.7,1.9l-0.2-0.1c-0.5-0.2-1-0.3-1.4-0.5c-1.3-0.5-2.2-0.8-3.7-0.8c-2.5,0-3.4,2-3.4,2.9c0,2.8,2.3,5.2,4.8,7.7 c2.8,2.9,5.7,5.8,5.7,9.9C209.9,36.2,207.7,39.1,203,39.1z"></path> <path class="st10" d="M192.5,38.8h-2.7v-23c0-2.1-1.4-2.5-2.6-2.5c-0.3,0-1,0.1-1.5,0.2l-4.3,1.4v23.9h-2.7V11.7h1.8l0.7,1.9 l3.8-1.5c1.3-0.5,3-0.6,3.5-0.6c2.4,0,4,1.6,4,4.1V38.8z"></path> <path class="st11" d="M192.5,38.8h-2.7v-23c0-2.1-1.4-2.5-2.6-2.5c-0.3,0-1,0.1-1.5,0.2l-4.3,1.4v23.9h-2.7V11.7h1.8l0.7,1.9 l3.8-1.5c1.3-0.5,3-0.6,3.5-0.6c2.4,0,4,1.6,4,4.1V38.8z"></path> <rect x="171.1" y="2.8" class="st10" width="2.7" height="36"></rect> <rect x="171.1" y="2.8" class="st11" width="2.7" height="36"></rect> <path class="st10" d="M146.5,22.9h9.2c0-3.7-0.6-9.6-3.9-9.6C148.5,13.3,146.9,18.4,146.5,22.9 M151.7,39c-5.4,0-8.3-6.8-8.3-13.6 c0-6.6,2.5-13.7,8-13.7c6.4,0,6.9,6.2,6.9,12.6v0.3h-12c0,0.3,0,0.5,0,0.8c0,5.9,2,12.1,5.6,12.1c0.7,0,1.6-0.3,2.2-0.6l2.6-1.1 l1,1.9l-0.2,0.1C156.6,38.3,154.2,39,151.7,39"></path> <path class="st11" d="M146.5,22.9h9.2c0-3.7-0.6-9.6-3.9-9.6C148.5,13.3,146.9,18.4,146.5,22.9z M151.7,39c-5.4,0-8.3-6.8-8.3-13.6 c0-6.6,2.5-13.7,8-13.7c6.4,0,6.9,6.2,6.9,12.6v0.3h-12c0,0.3,0,0.5,0,0.8c0,5.9,2,12.1,5.6,12.1c0.7,0,1.6-0.3,2.2-0.6l2.6-1.1 l1,1.9l-0.2,0.1C156.6,38.3,154.2,39,151.7,39z"></path> <path class="st10" d="M140.1,38.7h-2.7V16.1c0-2.1-1.4-2.5-2.5-2.5c-0.3,0-1.1,0.1-1.5,0.2l-4.2,1.4v23.5h-2.7V12h1.8l0.7,1.9 l3.8-1.5c1.3-0.5,2.9-0.6,3.4-0.6c2.4,0,3.9,1.6,3.9,4V38.7z"></path> <path class="st11" d="M140.1,38.7h-2.7V16.1c0-2.1-1.4-2.5-2.5-2.5c-0.3,0-1.1,0.1-1.5,0.2l-4.2,1.4v23.5h-2.7V12h1.8l0.7,1.9 l3.8-1.5c1.3-0.5,2.9-0.6,3.4-0.6c2.4,0,3.9,1.6,3.9,4V38.7z"></path> <path class="st10" d="M120.3,6.8c-1,0-1.5-0.4-1.5-0.8V4.1h3V6C121.7,6.3,121.5,6.8,120.3,6.8 M121.6,38.7h-2.7V12h2.7V38.7z"></path> <path class="st11" d="M120.3,6.8c-1,0-1.5-0.4-1.5-0.8V4.1h3V6C121.7,6.3,121.5,6.8,120.3,6.8z M121.6,38.7h-2.7V12h2.7V38.7z"></path> <path class="st10" d="M103.4,36.8c1,0.3,3.1,0.6,4,0.6c3.8,0,5.1-6.3,5.1-11.6c0-6.3-1.6-12.2-3.3-12.2c-0.3,0-1.2,0.1-1.6,0.2 l-4.2,1.4V36.8z M103.4,44.9h-2.7V12h1.8l0.7,1.9l3.8-1.5c1.3-0.5,2.9-0.6,3.4-0.6c2.9,0,5,7.3,5,13.8c0,6.5-2.1,13.5-8,13.5 c-1.1,0-2.9-0.3-4-0.5V44.9z"></path> <path class="st11" d="M103.4,36.8c1,0.3,3.1,0.6,4,0.6c3.8,0,5.1-6.3,5.1-11.6c0-6.3-1.6-12.2-3.3-12.2c-0.3,0-1.2,0.1-1.6,0.2 l-4.2,1.4V36.8z M103.4,44.9h-2.7V12h1.8l0.7,1.9l3.8-1.5c1.3-0.5,2.9-0.6,3.4-0.6c2.9,0,5,7.3,5,13.8c0,6.5-2.1,13.5-8,13.5 c-1.1,0-2.9-0.3-4-0.5V44.9z"></path> <path class="st10" d="M92,39.5l-1.3-0.7l0.2-0.2c2.3-3.3,3.4-6.7,3.4-10.4c0-2.1-0.5-4.6-1.7-8.1c-1-3-1.3-5.1-1.3-8.3 c0-4.1,1.8-6.9,3.2-9.1l0.1-0.2l1.1,0.8l-0.1,0.2c-1.2,2.3-1.8,4.7-1.8,7.4c0,2.8,0.7,4.8,1.6,7.4l0.1,0.2c0.6,1.9,1.7,5.6,1.7,8.5 c0,5.8-2,8.5-4.1,11.4c-0.3,0.4-0.6,0.8-0.9,1.2L92,39.5z"></path> <path class="st11" d="M92,39.5l-1.3-0.7l0.2-0.2c2.3-3.3,3.4-6.7,3.4-10.4c0-2.1-0.5-4.6-1.7-8.1c-1-3-1.3-5.1-1.3-8.3 c0-4.1,1.8-6.9,3.2-9.1l0.1-0.2l1.1,0.8l-0.1,0.2c-1.2,2.3-1.8,4.7-1.8,7.4c0,2.8,0.7,4.8,1.6,7.4l0.1,0.2c0.6,1.9,1.7,5.6,1.7,8.5 c0,5.8-2,8.5-4.1,11.4c-0.3,0.4-0.6,0.8-0.9,1.2L92,39.5z"></path> <g> <path class="st5" d="M57.2,18.3c1.2-1.8,2.8-5.1,2.8-8.3c0-4.4-2-7.1-5.5-7.1h-8.1v36.2h10c3.2,0,6.2-4.8,6.2-10 C62.5,24.1,60.7,18.9,57.2,18.3z M58.9,28.9c0,4.2-1.5,7.9-3.3,7.9h-5.9V20.5h5.4C57.6,20.5,58.9,24.7,58.9,28.9z M49.7,18.2V5.1 h4c2.7,0,2.9,3.6,2.9,4.6c0,3.6-1.2,7.2-2.3,8.4H49.7z"></path> <path class="st5" d="M65.3,6c0,0.6,0.6,1.1,1.8,1.1c1.6,0,1.8-0.8,1.8-1.1V3.8h-3.6V6z"></path> <rect x="65.4" y="11.6" class="st5" width="3.4" height="27.4"></rect> <path class="st5" d="M80.3,11.4h-0.8c-5.4,0-7.8,7.3-7.8,14c0,6.7,2.4,13.9,7.8,13.9h0.8c5.4,0,7.8-7.3,7.8-14 C88.1,18.6,85.7,11.4,80.3,11.4z M84.5,25.4c0,5.6-1.6,11.6-4.6,11.6c-3,0-4.6-6.1-4.6-11.8c0-5.6,1.6-11.7,4.6-11.7 C82.9,13.6,84.5,19.7,84.5,25.4z"></path> </g> </g> <path class="st12" d="M285,53.7l-1.6-4.1h-1.4l2.3,5.5c-0.2,0.5-0.4,0.6-0.8,0.6c-0.3,0-0.5-0.1-0.7-0.2l-0.4,0.9 c0.4,0.2,0.8,0.3,1.3,0.3c0.9,0,1.4-0.4,1.8-1.5l2.2-5.7h-1.3L285,53.7z M278.4,55.1h1.3V53c0-1.5,0.8-2.2,1.9-2.2h0.1v-1.3 c-1,0-1.6,0.5-2,1.3v-1.2h-1.3V55.1z M273.1,52c0.1-0.9,0.7-1.5,1.4-1.5c0.8,0,1.3,0.6,1.4,1.5H273.1z M274.7,55.3 c1,0,1.7-0.4,2.3-1l-0.7-0.7c-0.4,0.4-0.9,0.7-1.5,0.7c-0.8,0-1.5-0.5-1.6-1.4h4c0-0.1,0-0.2,0-0.4c0-1.6-0.9-3-2.6-3 c-1.6,0-2.7,1.3-2.7,2.9v0C271.9,54.1,273.1,55.3,274.7,55.3 M267.8,53.6c-0.9,0-1.6-0.6-1.6-1.5v0c0-0.9,0.7-1.5,1.6-1.5 c0.9,0,1.6,0.6,1.6,1.5v0C269.4,53,268.7,53.6,267.8,53.6 M267.7,56.8c1,0,1.8-0.2,2.3-0.7c0.5-0.5,0.7-1.1,0.7-2.1v-4.4h-1.3v0.8 c-0.4-0.5-1-0.9-1.9-0.9c-1.3,0-2.5,1-2.5,2.6v0c0,1.6,1.2,2.6,2.5,2.6c0.9,0,1.5-0.4,1.9-1v0.4c0,1.1-0.6,1.7-1.7,1.7 c-0.8,0-1.4-0.2-2-0.6l-0.5,0.9C265.9,56.6,266.8,56.8,267.7,56.8 M261.2,55.1h1.3V53c0-1.5,0.8-2.2,1.9-2.2h0.1v-1.3 c-1,0-1.6,0.5-2,1.3v-1.2h-1.3V55.1z M256.7,55.2c0.9,0,1.4-0.4,1.7-1v0.9h1.3v-5.5h-1.3v3.1c0,0.9-0.5,1.4-1.2,1.4 c-0.8,0-1.2-0.5-1.2-1.3v-3.1h-1.3v3.5C254.7,54.4,255.4,55.2,256.7,55.2 M250.9,55.2c1.5,0,2.6-0.8,2.6-2.2v0 c0-1.2-0.8-1.8-2.3-2.1c-1.4-0.3-1.7-0.6-1.7-1.1v0c0-0.5,0.4-0.9,1.2-0.9c0.7,0,1.3,0.3,2,0.8l0.7-1c-0.7-0.6-1.6-0.9-2.7-0.9 c-1.5,0-2.5,0.9-2.5,2.1v0c0,1.3,0.9,1.8,2.4,2.2c1.4,0.3,1.6,0.6,1.6,1.1v0c0,0.5-0.5,0.9-1.3,0.9c-0.9,0-1.6-0.3-2.3-0.9l-0.8,0.9 C248.7,54.8,249.8,55.2,250.9,55.2 M240,54.2c-0.7,0-1.2-0.4-1.2-1.1v0c0-0.5,0.3-0.9,1-1.2l1.6,1.7C241,53.9,240.5,54.2,240,54.2 M240.2,50.7c-0.4-0.4-0.6-0.7-0.6-1.1v0c0-0.5,0.4-0.9,0.9-0.9c0.5,0,0.8,0.3,0.8,0.8v0C241.4,50.1,241,50.4,240.2,50.7 M243.1,55.3l1-0.7l-1.2-1.2c0.4-0.5,0.7-1.1,1-1.7l-1-0.5c-0.2,0.5-0.5,1-0.8,1.4l-1.3-1.3c1-0.4,1.6-0.9,1.6-1.9v0 c0-1-0.8-1.8-1.9-1.8c-1.3,0-2.1,0.9-2.1,1.8v0c0,0.5,0.2,1,0.6,1.5c-1,0.4-1.6,1.1-1.6,2v0c0,1.3,1,2.1,2.4,2.1 c0.9,0,1.6-0.4,2.2-0.9L243.1,55.3z M232.5,55.2c0.5,0,0.8-0.1,1.1-0.3v-1c-0.3,0.1-0.5,0.2-0.8,0.2c-0.4,0-0.7-0.2-0.7-0.7v-2.7 h1.5v-1.1h-1.5v-1.5h-1.3v1.5h-0.7v1.1h0.7v2.9C230.9,54.8,231.6,55.2,232.5,55.2 M224.3,55.1h1.3V52c0-0.9,0.5-1.4,1.2-1.4 c0.8,0,1.2,0.5,1.2,1.3v3.1h1.3v-3.5c0-1.3-0.7-2.1-2-2.1c-0.9,0-1.4,0.4-1.7,1v-0.8h-1.3V55.1z M219,52c0.1-0.9,0.7-1.5,1.4-1.5 c0.8,0,1.3,0.6,1.4,1.5H219z M220.5,55.3c1,0,1.7-0.4,2.3-1l-0.7-0.7c-0.4,0.4-0.9,0.7-1.5,0.7c-0.8,0-1.5-0.5-1.6-1.4h4 c0-0.1,0-0.2,0-0.4c0-1.6-0.9-3-2.6-3c-1.6,0-2.7,1.3-2.7,2.9v0C217.7,54.1,219,55.3,220.5,55.3 M208.2,55.1h1.3V52 c0-0.8,0.5-1.4,1.2-1.4c0.7,0,1.1,0.5,1.1,1.3v3.1h1.3V52c0-0.9,0.5-1.4,1.2-1.4c0.7,0,1.1,0.5,1.1,1.3v3.1h1.3v-3.5 c0-1.3-0.7-2.1-1.9-2.1c-0.8,0-1.4,0.4-1.9,1c-0.3-0.6-0.9-1-1.6-1c-0.8,0-1.3,0.5-1.7,0.9v-0.8h-1.3V55.1z M205.8,55.2 c0.5,0,0.8-0.1,1.1-0.3v-1c-0.3,0.1-0.5,0.2-0.8,0.2c-0.4,0-0.7-0.2-0.7-0.7v-2.7h1.5v-1.1h-1.5v-1.5h-1.3v1.5h-0.7v1.1h0.7v2.9 C204.2,54.8,204.9,55.2,205.8,55.2 M199.9,54.3c-0.6,0-1.1-0.3-1.1-0.8v0c0-0.6,0.5-0.9,1.3-0.9c0.5,0,0.9,0.1,1.3,0.2v0.4 C201.4,53.8,200.7,54.3,199.9,54.3 M199.6,55.2c0.8,0,1.4-0.4,1.8-0.8v0.7h1.2v-3.3c0-0.7-0.2-1.3-0.6-1.7c-0.4-0.4-1-0.6-1.8-0.6 c-0.9,0-1.5,0.2-2.1,0.4l0.3,1c0.5-0.2,1-0.3,1.6-0.3c0.9,0,1.4,0.4,1.4,1.2V52c-0.4-0.1-0.9-0.2-1.5-0.2c-1.3,0-2.3,0.6-2.3,1.8v0 C197.6,54.6,198.5,55.2,199.6,55.2 M192.7,52c0.1-0.9,0.7-1.5,1.4-1.5c0.8,0,1.3,0.6,1.4,1.5H192.7z M194.3,55.3c1,0,1.7-0.4,2.3-1 l-0.7-0.7c-0.4,0.4-0.9,0.7-1.5,0.7c-0.8,0-1.5-0.5-1.6-1.4h4c0-0.1,0-0.2,0-0.4c0-1.6-0.9-3-2.6-3c-1.6,0-2.7,1.3-2.7,2.9v0 C191.4,54.1,192.7,55.3,194.3,55.3 M187.7,55.1h1.3V53c0-1.5,0.8-2.2,1.9-2.2h0.1v-1.3c-1,0-1.6,0.5-2,1.3v-1.2h-1.3V55.1z M183.7,55.1h1.3V49h2.3v-1.2h-5.9V49h2.3V55.1z M175.7,56.6c1.1-0.1,1.6-0.6,1.6-1.7v-1.2h-1.4v1.4h0.5c0,0.5-0.3,0.9-0.9,1 L175.7,56.6z M170.8,52c0.1-0.9,0.7-1.5,1.4-1.5c0.8,0,1.3,0.6,1.4,1.5H170.8z M172.4,55.3c1,0,1.7-0.4,2.3-1l-0.7-0.7 c-0.4,0.4-0.9,0.7-1.5,0.7c-0.8,0-1.5-0.5-1.6-1.4h4c0-0.1,0-0.2,0-0.4c0-1.6-0.9-3-2.6-3c-1.6,0-2.7,1.3-2.7,2.9v0 C169.5,54.1,170.8,55.3,172.4,55.3 M165.8,55.1h1.3V53c0-1.5,0.8-2.2,1.9-2.2h0.1v-1.3c-1,0-1.6,0.5-2,1.3v-1.2h-1.3V55.1z M161.7,54.3c-0.6,0-1.1-0.3-1.1-0.8v0c0-0.6,0.5-0.9,1.3-0.9c0.5,0,0.9,0.1,1.3,0.2v0.4C163.2,53.8,162.5,54.3,161.7,54.3 M161.3,55.2c0.8,0,1.4-0.4,1.8-0.8v0.7h1.2v-3.3c0-0.7-0.2-1.3-0.6-1.7c-0.4-0.4-1-0.6-1.8-0.6c-0.9,0-1.5,0.2-2.1,0.4l0.3,1 c0.5-0.2,1-0.3,1.6-0.3c0.9,0,1.4,0.4,1.4,1.2V52c-0.4-0.1-0.9-0.2-1.5-0.2c-1.3,0-2.3,0.6-2.3,1.8v0 C159.4,54.6,160.3,55.2,161.3,55.2 M155.6,55.3c1.4,0,2.2-0.5,3-1.3l-0.8-0.8c-0.6,0.6-1.2,0.9-2.1,0.9c-1.4,0-2.4-1.2-2.4-2.6v0 c0-1.4,1-2.6,2.4-2.6c0.8,0,1.5,0.4,2,0.9l0.8-0.9c-0.7-0.7-1.5-1.1-2.9-1.1c-2.2,0-3.8,1.7-3.8,3.8v0 C151.9,53.6,153.5,55.3,155.6,55.3 M143.8,52c0.1-0.9,0.7-1.5,1.4-1.5c0.8,0,1.3,0.6,1.4,1.5H143.8z M145.3,55.3c1,0,1.7-0.4,2.3-1 l-0.7-0.7c-0.4,0.4-0.9,0.7-1.5,0.7c-0.8,0-1.5-0.5-1.6-1.4h4c0-0.1,0-0.2,0-0.4c0-1.6-0.9-3-2.6-3c-1.6,0-2.7,1.3-2.7,2.9v0 C142.5,54.1,143.8,55.3,145.3,55.3 M136.4,55.1h1.3V52c0-0.9,0.5-1.4,1.2-1.4c0.8,0,1.2,0.5,1.2,1.3v3.1h1.3v-3.5 c0-1.3-0.7-2.1-2-2.1c-0.9,0-1.4,0.4-1.7,1v-0.8h-1.3V55.1z M133.6,55.1h1.3v-5.5h-1.3V55.1z M133.5,48.8h1.4v-1.2h-1.4V48.8z M129.4,54.1c-0.9,0-1.6-0.7-1.6-1.8v0c0-1.1,0.8-1.8,1.6-1.8c0.9,0,1.6,0.7,1.6,1.8v0C131,53.5,130.3,54.1,129.4,54.1 M126.6,56.8 h1.3v-2.5c0.4,0.5,1,1,1.9,1c1.3,0,2.6-1,2.6-2.9v0c0-1.8-1.3-2.9-2.6-2.9c-0.9,0-1.5,0.5-1.9,1v-0.9h-1.3V56.8z M122.7,55.2 c1.5,0,2.6-0.8,2.6-2.2v0c0-1.2-0.8-1.8-2.3-2.1c-1.4-0.3-1.7-0.6-1.7-1.1v0c0-0.5,0.4-0.9,1.2-0.9c0.7,0,1.3,0.3,2,0.8l0.7-1 c-0.7-0.6-1.6-0.9-2.6-0.9c-1.5,0-2.5,0.9-2.5,2.1v0c0,1.3,0.9,1.8,2.4,2.2c1.4,0.3,1.6,0.6,1.6,1.1v0c0,0.5-0.5,0.9-1.3,0.9 c-0.9,0-1.6-0.3-2.3-0.9l-0.8,0.9C120.5,54.8,121.6,55.2,122.7,55.2 M111.6,52c0.1-0.9,0.7-1.5,1.4-1.5c0.8,0,1.3,0.6,1.4,1.5H111.6 z M113.2,55.3c1,0,1.7-0.4,2.3-1l-0.7-0.7c-0.4,0.4-0.9,0.7-1.5,0.7c-0.8,0-1.5-0.5-1.6-1.4h4c0-0.1,0-0.2,0-0.4c0-1.6-0.9-3-2.6-3 c-1.6,0-2.7,1.3-2.7,2.9v0C110.4,54.1,111.6,55.3,113.2,55.3 M106.6,55.2h1.1l2.3-5.6h-1.3l-1.5,4l-1.5-4h-1.4L106.6,55.2z M102,55.1h1.3v-5.5H102V55.1z M102,48.8h1.4v-1.2H102V48.8z M98.7,55.2c1.1,0,2-0.6,2-1.7v0c0-1-0.9-1.4-1.7-1.6 c-0.6-0.2-1.2-0.4-1.2-0.8v0c0-0.3,0.3-0.5,0.8-0.5c0.5,0,1,0.2,1.6,0.5l0.5-0.9c-0.6-0.4-1.3-0.6-2-0.6c-1.1,0-2,0.6-2,1.7v0 c0,1.1,0.9,1.4,1.7,1.6c0.6,0.2,1.2,0.3,1.2,0.8v0c0,0.4-0.3,0.6-0.9,0.6c-0.6,0-1.2-0.2-1.8-0.7l-0.6,0.9 C97,54.9,97.9,55.2,98.7,55.2 M90.4,55.1h1.3V52c0-0.9,0.5-1.4,1.2-1.4c0.8,0,1.2,0.5,1.2,1.3v3.1h1.3v-3.5c0-1.3-0.7-2.1-2-2.1 c-0.9,0-1.4,0.4-1.7,1v-0.8h-1.3V55.1z M85.1,52c0.1-0.9,0.7-1.5,1.4-1.5c0.8,0,1.3,0.6,1.4,1.5H85.1z M86.7,55.3c1,0,1.7-0.4,2.3-1 l-0.7-0.7c-0.4,0.4-0.9,0.7-1.5,0.7c-0.8,0-1.5-0.5-1.6-1.4h4c0-0.1,0-0.2,0-0.4c0-1.6-0.9-3-2.6-3c-1.6,0-2.7,1.3-2.7,2.9v0 C83.9,54.1,85.1,55.3,86.7,55.3 M77.8,55.1h1.3V52c0-0.9,0.5-1.4,1.2-1.4c0.8,0,1.2,0.5,1.2,1.3v3.1h1.3v-3.5c0-1.3-0.7-2.1-2-2.1 c-0.9,0-1.4,0.4-1.7,1v-3h-1.3V55.1z M72.5,52c0.1-0.9,0.7-1.5,1.4-1.5c0.8,0,1.3,0.6,1.4,1.5H72.5z M74.1,55.3c1,0,1.7-0.4,2.3-1 l-0.7-0.7c-0.4,0.4-0.9,0.7-1.5,0.7c-0.8,0-1.5-0.5-1.6-1.4h4c0-0.1,0-0.2,0-0.4c0-1.6-0.9-3-2.6-3c-1.6,0-2.7,1.3-2.7,2.9v0 C71.3,54.1,72.5,55.3,74.1,55.3 M67.5,55.1h1.3V53c0-1.5,0.8-2.2,1.9-2.2h0.1v-1.3c-1,0-1.6,0.5-2,1.3v-1.2h-1.3V55.1z M63.4,54.1 c-0.9,0-1.6-0.7-1.6-1.8v0c0-1.1,0.8-1.8,1.6-1.8c0.9,0,1.6,0.7,1.6,1.8v0C65,53.5,64.3,54.1,63.4,54.1 M60.6,56.8h1.3v-2.5 c0.4,0.5,1,1,1.9,1c1.3,0,2.6-1,2.6-2.9v0c0-1.8-1.3-2.9-2.6-2.9c-0.9,0-1.5,0.5-1.9,1v-0.9h-1.3V56.8z M50.7,55.1H52V52 c0-0.8,0.5-1.4,1.2-1.4c0.7,0,1.1,0.5,1.1,1.3v3.1h1.3V52c0-0.9,0.5-1.4,1.2-1.4c0.7,0,1.1,0.5,1.1,1.3v3.1h1.3v-3.5 c0-1.3-0.7-2.1-1.9-2.1c-0.8,0-1.4,0.4-1.9,1c-0.3-0.6-0.9-1-1.6-1c-0.8,0-1.3,0.5-1.7,0.9v-0.8h-1.3V55.1z M46.6,54.1 c-1,0-1.7-0.8-1.7-1.8v0c0-1,0.6-1.8,1.7-1.8c1,0,1.7,0.8,1.7,1.8v0C48.3,53.4,47.6,54.1,46.6,54.1 M46.6,55.3c1.7,0,3-1.3,3-2.9v0 c0-1.6-1.2-2.9-2.9-2.9c-1.7,0-2.9,1.3-2.9,2.9v0C43.7,54,44.9,55.3,46.6,55.3 M40,55.3c1.4,0,2.2-0.5,3-1.3l-0.8-0.8 c-0.6,0.6-1.2,0.9-2.1,0.9c-1.4,0-2.4-1.2-2.4-2.6v0c0-1.4,1-2.6,2.4-2.6c0.8,0,1.5,0.4,2,0.9l0.8-0.9c-0.7-0.7-1.5-1.1-2.9-1.1 c-2.2,0-3.8,1.7-3.8,3.8v0C36.3,53.6,37.8,55.3,40,55.3"></path> </svg> 