<?xml version="1.0" encoding="utf-8"?>
<!-- Generator: Adobe Illustrator 25.0.0, SVG Export Plug-In . SVG Version: 6.00 Build 0)  -->
<svg version="1.1" xmlns="http://www.w3.org/2000/svg" xmlns:xlink="http://www.w3.org/1999/xlink" x="0px" y="0px"
	 viewBox="0 0 1032 195.8" style="enable-background:new 0 0 1032 195.8;" xml:space="preserve">
	 <style type="text/css">
	 	.st0{opacity:0.3;fill:#000000;}
	 	.st1{fill:#000000;}

	 	#guiding {
	 		animation: move-text-in 1s forwards;
	 		animation-delay: 1s;
	 		fill-opacity: 0;
	 	}

		#better {
			animation: move-text-in 1s forwards;
			animation-delay: 2s;
			fill-opacity: 0;
		}

	 	#logo-1 {
	 		animation: fade-in 1s forwards;
	 		animation-delay: 0.25s;
			fill-opacity: 0;
	 	}

		#logo-2 {
	 		animation: fade-in 1s forwards;
	 		animation-delay: 0.5s;
	 		fill-opacity: 0;
	 	}

		#logo-3 {
	 		animation: fade-in 1s forwards;
	 		animation-delay: 0.75s;
	 		fill-opacity: 0;
	 	}

		#logo-4 {
	 		animation: fade-in 1s forwards;
	 		animation-delay: 1.0s;
	 		fill-opacity: 0;
	 	}

		#logo-5 {
			animation: fade-in 1s forwards;
			animation-delay: 1.25s;
			fill-opacity: 0;
		}

		#logo-6 {
			animation: fade-in 1s forwards;
			animation-delay: 1.5s;
			fill-opacity: 0;
		}

		#logo-7 {
			animation: fade-in 1s forwards;
			animation-delay: 1.75s;
			fill-opacity: 0;
		}

		#logo-8 {
			animation: fade-in 1s forwards;
			animation-delay: 2.0s;
			fill-opacity: 0;
		}

	 	<!-- Animations  -->

	 	@keyframes fade-in {
			0% {
				fill-opacity: 0;
			}
			100% {
				fill-opacity: 1;
			}
		}

	 	@keyframes move-text-in {
	 		0% {
	 			fill-opacity: 0;
	 			transform: translateY(20px);
	 		}
	 		100% {
	 			fill-opacity: 1;
	 			transform: translateY(0px);
	 		}
	 	}

	 </style>
<g id="Layer_1">
	<g id="logo-light">
		<path class="st0" d="M128,53.7V31.3c0-1.7-1.3-3.1-2.8-3.1h-40c-1.6,0-2.8,1.4-2.9,3v22.4l22.9,22.9L128,53.7z"/>
		<path class="st0" d="M160.3,86.4l16.2-16c1.2-1.2,1.3-3.1,0.2-4.2l-28.6-28.5c-1.1-1.1-3-1-4.2,0.2L128,53.7v32.7H160.3z"/>
		<path class="st0" d="M160.3,132.1h22.8c1.7,0,3.1-1.2,3.1-2.8V89.2c0-1.5-1.4-2.8-3.1-2.8h-22.8l-22.7,22.9L160.3,132.1z"/>
		<path class="st0" d="M128,164.4l16.2,15.8c1.2,1.2,3.1,1.3,4.2,0.2l28.4-27.9c1.1-1.1,1-2.2-0.4-3.5l-16.1-16.9H128V164.4z"/>
		<path class="st0" d="M82.3,164.4v22.8c0,1.7,1.3,3.1,2.8,3.1h40c1.6,0,2.8-1.4,2.8-3.1v-22.8l-22.8-22.8L82.3,164.4z"/>
		<path class="st0" d="M49.8,132.1l-16,15.9c-1.2,1.2-1.3,3.1-0.2,4.2l28.5,28.6c1.1,1.1,3,1,4.2-0.2l16-16.1v-32.4H49.8z"/>
		<path class="st0" d="M49.8,86.4H27.3c-1.7,0-3.1,1.3-3.1,2.8v40.1c0,1.5,1.4,2.8,3.1,2.8h22.5l22.7-22.8L49.8,86.4z"/>
		<path class="st0" d="M82.3,53.7L65.7,38.8c-1.2-1.2-3.1-1.3-4.2-0.2l-28.3,28c-1.1,1.1-1,2.9,0.2,4.1l16.4,15.6h32.5
			C82.3,86.3,82.3,53.7,82.3,53.7z"/>
	</g>
	<g id="hannibal">
		<g>
			<path class="st1" d="M264.1,104.3c-5.3,0-5.5,0.2-5.5,3.6v15.6c0,11.6,0.5,13.2,6.8,13.9l3.2,0.3c0.7,0.4,0.4,2.4-0.2,2.8
				c-6-0.2-9.8-0.3-14.1-0.3c-4.8,0-8.5,0.2-12.9,0.3c-0.7-0.3-0.9-2.1-0.2-2.8l1.9-0.3c6.2-1.1,6.4-2.2,6.4-13.9V83.6
				c0-11.7-0.8-13.5-6.5-14l-2.9-0.2c-0.7-0.4-0.4-2.5,0.2-2.8c5.4,0.1,9.2,0.3,14,0.3c4.3,0,8.1-0.1,12.9-0.3
				c0.7,0.3,0.9,2.3,0.2,2.8l-2.1,0.2c-6.5,0.7-6.7,2.3-6.7,14v12.8c0,3.4,0.2,3.5,5.5,3.5h31.7c5.3,0,5.6-0.1,5.6-3.5V83.6
				c0-11.7-0.2-13.3-6.8-14l-2.1-0.2c-0.7-0.4-0.5-2.5,0.2-2.8c5.1,0.2,8.9,0.3,13.4,0.3c4.3,0,8.1-0.1,13.1-0.3
				c0.7,0.3,0.9,2.3,0.2,2.8l-2.3,0.2c-6.4,0.7-6.6,2.3-6.6,14v39.9c0,11.6,0.2,13.1,6.6,13.9l2.7,0.3c0.7,0.4,0.4,2.4-0.2,2.8
				c-5.3-0.2-9.1-0.3-13.4-0.3c-4.5,0-8.5,0.1-13.4,0.3c-0.7-0.3-0.9-2.1-0.2-2.8l2.1-0.3c6.8-1.1,6.8-2.2,6.8-13.9v-15.6
				c0-3.3-0.2-3.6-5.6-3.6C295.9,104.3,264.1,104.3,264.1,104.3z"/>
			<path class="st1" d="M348,117.2c1.7-0.5,1.9-1.5,1.9-3.2l0.1-5.1c0.1-4.1-1.2-9.7-8.1-9.7c-3.1,0-6.9,1.6-7.1,5
				c-0.1,1.8-0.2,3.1-1.1,3.8c-1.7,1.3-4.7,2.1-6.3,2.1c-1,0-1.5-0.6-1.5-1.6c0-5.8,12.5-13.6,20.6-13.6c8,0,11.9,4.7,11.5,13
				l-0.7,19.3c-0.2,5.1,0.8,9.6,5.1,9.6c1.1,0,2.1-0.3,2.8-0.7c0.5-0.3,1.1-0.8,1.4-0.8c0.4,0,0.8,0.7,0.8,1.4
				c0,0.6-3.9,4.9-9.3,4.9c-2.7,0-5.3-1-7.2-3.4c-0.4-0.7-1.1-1.6-1.8-1.6c-0.8,0-2.1,1-4.3,2.2c-2.4,1.3-4.9,2.8-8,2.8
				c-3.2,0-5.9-0.9-7.8-2.6c-2.1-1.9-3.4-4.6-3.4-7.7c0-4.3,2.1-6.9,9.2-9.4L348,117.2z M341.1,136.7c2.2,0,5.7-1.7,6.8-2.8
				c1.3-1.3,1.3-2.9,1.4-5.2l0.2-6.5c0-1.2-0.4-1.4-1.1-1.4s-2.6,0.5-4.5,1.1c-6.5,2.2-9.8,3.9-9.8,8.2
				C334.2,131.9,335.5,136.7,341.1,136.7z"/>
			<path class="st1" d="M375.2,108.3c0-4.3,0-4.9-3-6.9l-1-0.7c-0.4-0.5-0.4-1.7,0.1-2c2.5-0.9,8.9-3.8,11.1-5.4
				c0.4,0,1,0.2,1.2,0.8c-0.2,2.6-0.2,4.2-0.2,5.2c0,0.7,0.4,1.2,1.2,1.2c4.6-2.9,9.9-5.6,15.5-5.6c9.2,0,13,6.3,13,13.7v19.1
				c0,8,0.2,9.1,4.2,9.7l2.4,0.3c0.8,0.5,0.6,2.4-0.2,2.8c-3.3-0.2-6.6-0.3-10.4-0.3c-4,0-7.3,0.1-10.3,0.3c-0.8-0.3-1-2.2-0.2-2.8
				l2.1-0.3c4.1-0.7,4.2-1.7,4.2-9.7v-16.5c0-6.3-2.9-11-10.4-11c-4.2,0-7.9,1.8-9.4,3.9c-1.4,1.9-1.7,3.5-1.7,6.7v17
				c0,8,0.2,9,4.2,9.7l2,0.3c0.8,0.5,0.5,2.4-0.2,2.8c-3-0.2-6.2-0.3-10.1-0.3c-4,0-7.3,0.1-10.4,0.3c-0.8-0.3-1-2.2-0.2-2.8
				l2.3-0.3c4.1-0.6,4.2-1.7,4.2-9.7L375.2,108.3L375.2,108.3z"/>
			<path class="st1" d="M431.2,108.3c0-4.3,0-4.9-3-6.9l-1-0.7c-0.4-0.5-0.4-1.7,0.1-2c2.6-0.9,8.9-3.8,11.1-5.4
				c0.4,0,1,0.2,1.2,0.8c-0.2,2.6-0.2,4.2-0.2,5.2c0,0.7,0.4,1.2,1.2,1.2c4.7-2.9,9.9-5.6,15.5-5.6c9.2,0,13,6.3,13,13.7v19.1
				c0,8,0.2,9.1,4.2,9.7l2.4,0.3c0.8,0.5,0.5,2.4-0.2,2.8c-3.3-0.2-6.5-0.3-10.4-0.3c-4,0-7.3,0.1-10.3,0.3c-0.8-0.3-1-2.2-0.2-2.8
				l2.1-0.3c4.1-0.7,4.2-1.7,4.2-9.7v-16.5c0-6.3-2.9-11-10.4-11c-4.2,0-7.9,1.8-9.4,3.9c-1.4,1.9-1.7,3.5-1.7,6.7v17
				c0,8,0.2,9,4.2,9.7l2,0.3c0.8,0.5,0.6,2.4-0.2,2.8c-3-0.2-6.2-0.3-10.1-0.3c-4,0-7.3,0.1-10.4,0.3c-0.8-0.3-1-2.2-0.2-2.8
				l2.3-0.3c4.1-0.6,4.2-1.7,4.2-9.7L431.2,108.3L431.2,108.3z"/>
			<path class="st1" d="M487.2,108.3c0-4.3,0-4.9-3-6.9l-1-0.7c-0.4-0.5-0.4-1.7,0.1-2c2.5-0.9,8.9-3.8,11.4-5.4
				c0.5,0,1,0.2,1.1,0.7c-0.2,3.9-0.4,9.2-0.4,13.8v20c0,8,0.2,9.1,4.2,9.7l2.3,0.3c0.8,0.5,0.5,2.4-0.2,2.8
				c-3.3-0.2-6.5-0.3-10.4-0.3c-4,0-7.3,0.1-10.4,0.3c-0.8-0.3-1-2.2-0.2-2.8l2.3-0.3c4.1-0.6,4.2-1.7,4.2-9.7V108.3z M496.4,76.7
				c0,4-2.8,5.8-5.9,5.8c-3.4,0-5.7-2.5-5.7-5.6c0-3.7,2.7-6,6-6C494.2,70.9,496.4,73.6,496.4,76.7z"/>
			<path class="st1" d="M510.9,77.6c0-6.5-0.1-7.2-3.4-9.2l-1.1-0.7c-0.5-0.3-0.5-1.9,0-2.2c2.6-1,7.9-2.5,12.1-4.7
				c0.4,0,0.9,0.2,1.1,0.7c-0.2,3.9-0.4,8.9-0.4,13.8v21c0,1.9,0.4,2.3,1.1,2.3c2.9-1.6,7.3-3.7,12.8-3.7c12.7,0,21.2,9.5,21.2,21.7
				c0,14.8-10.7,25.1-25.5,25.1c-4.1,0-7.2-0.8-9.4-1.4c-2.3-0.8-3.8-1.4-4.7-1.4s-1.8,0.9-2.3,1.7c-0.1,0.1-0.2,0.1-0.5,0.1
				c-0.4,0-0.9-0.2-1.1-0.7c0.1-1.6,0.2-3.7,0.2-9.4L510.9,77.6L510.9,77.6z M519.1,125.1c0,3.9,0.9,7.3,2.8,9.6
				c1.9,2.3,4.9,3.7,8.4,3.7c10.4,0,14.5-8.9,14.5-18.4c0-11.4-5.9-20.3-16.9-20.3c-3.3,0-6,0.8-7.5,1.8c-1.1,0.8-1.3,2-1.3,6.3
				V125.1z"/>
			<path class="st1" d="M582.1,117.2c1.7-0.5,1.9-1.5,1.9-3.2l0.1-5.1c0.1-4.1-1.2-9.7-8.1-9.7c-3.1,0-6.9,1.6-7.1,5
				c-0.1,1.8-0.2,3.1-1.1,3.8c-1.7,1.3-4.7,2.1-6.3,2.1c-1,0-1.6-0.6-1.6-1.6c0-5.8,12.5-13.6,20.6-13.6c8,0,11.9,4.7,11.6,13
				l-0.7,19.3c-0.2,5.1,0.8,9.6,5.1,9.6c1.1,0,2.1-0.3,2.8-0.7c0.5-0.3,1.1-0.8,1.4-0.8c0.4,0,0.8,0.7,0.8,1.4
				c0,0.6-3.9,4.9-9.3,4.9c-2.7,0-5.3-1-7.2-3.4c-0.4-0.7-1.1-1.6-1.8-1.6c-0.8,0-2.1,1-4.3,2.2c-2.4,1.3-4.9,2.8-8,2.8
				c-3.2,0-5.9-0.9-7.8-2.6c-2.1-1.9-3.4-4.6-3.4-7.7c0-4.3,2.1-6.9,9.2-9.4L582.1,117.2z M575.2,136.7c2.2,0,5.7-1.7,6.8-2.8
				c1.3-1.3,1.3-2.9,1.4-5.2l0.2-6.5c0-1.2-0.4-1.4-1.1-1.4c-0.7,0-2.6,0.5-4.6,1.1c-6.5,2.2-9.7,3.9-9.7,8.2
				C568.2,131.9,569.6,136.7,575.2,136.7z"/>
			<path class="st1" d="M616.4,127.7c0,8,0.2,9.1,4.2,9.7l2.7,0.3c0.8,0.5,0.6,2.4-0.2,2.8c-3.7-0.2-6.9-0.3-10.8-0.3
				c-4,0-7.3,0.1-10.7,0.3c-0.8-0.3-1-2.2-0.2-2.8l2.6-0.3c4.1-0.6,4.2-1.7,4.2-9.7V77.6c0-6.5-0.1-7.2-3.4-9.2l-1.1-0.7
				c-0.5-0.3-0.5-1.9,0-2.2c2.8-0.9,8-2.6,12-4.7c0.4,0,0.9,0.2,1.1,0.7c-0.1,3.3-0.3,8.9-0.3,13.8L616.4,127.7L616.4,127.7z"/>
			<path class="st1" d="M663.2,83.7c0-10.5-0.3-12.4-4.9-13l-3.6-0.4c-0.8-0.6-0.8-2.3,0.1-2.8c6.2-0.5,13.9-0.9,24.7-0.9
				c6.9,0,13.4,0.6,18.5,3.3c5.3,2.8,9.2,7.8,9.2,15.5c0,10.5-8.3,16.3-13.9,18.5c-0.5,0.7,0,1.8,0.5,2.7
				c8.9,14.3,14.8,23.2,22.3,29.5c1.9,1.7,4.7,2.9,7.6,3.1c0.6,0.2,0.7,1.1,0.1,1.6c-1,0.3-2.8,0.6-4.9,0.6c-9.4,0-15.1-2.8-23-14
				c-2.9-4.1-7.4-11.7-10.9-16.7c-1.7-2.4-3.4-3.6-7.9-3.6c-5,0-5.2,0.1-5.2,2.4v14c0,11.6,0.2,13,6.6,13.9l2.3,0.3
				c0.7,0.5,0.4,2.4-0.2,2.8c-5-0.2-8.8-0.3-13.2-0.3c-4.7,0-8.6,0.1-13.9,0.3c-0.6-0.3-0.9-2-0.2-2.8l2.8-0.3
				c6.5-0.8,6.7-2.2,6.7-13.9V83.7H663.2z M672.4,99.5c0,2,0,3.2,0.3,3.7c0.3,0.3,2,0.5,7.7,0.5c4,0,8.2-0.4,11.4-2.9
				c3-2.3,5.5-6.2,5.5-13.7c0-8.8-5.4-17.1-17.8-17.1c-6.9,0-7.2,0.4-7.2,3.6L672.4,99.5L672.4,99.5z"/>
			<path class="st1" d="M731.5,111.7c-2.9,0-3,0.2-3,3c0,11.2,6.5,20.8,18.4,20.8c3.7,0,6.8-1.1,10.2-5.4c1.1-0.3,1.9,0.3,2,1.3
				c-3.7,7.5-11.6,10.3-17.4,10.3c-7.2,0-12.9-3.1-16.1-7.3c-3.3-4.3-4.7-9.5-4.7-14.4c0-13.6,9-25.1,22.3-25.1
				c9.5,0,15.7,6.6,15.7,13.2c0,1.5-0.2,2.4-0.5,2.9c-0.3,0.7-1.9,0.8-6.5,0.8h-20.4V111.7z M738.3,108.4c8.2,0,10.7-0.4,11.5-1.1
				c0.3-0.2,0.7-0.7,0.7-2.1c0-3.1-2.1-7-8.5-7c-6.6,0-12.2,6-12.3,9.7c0,0.2,0,0.6,0.8,0.6L738.3,108.4L738.3,108.4z"/>
			<path class="st1" d="M808.2,98.9c1.2,0.5,1,4.3-0.7,4.5h-8c0.2,1.9,0.2,3.8,0.2,5.7c0,7.7-4.6,17.7-18.6,17.7
				c-2,0-3.6-0.2-4.9-0.3c-1.3,0.8-4.9,2.9-4.9,6.1c0,2.5,2.5,4.6,7.8,4.6c3.8,0,8.3-0.3,13.2-0.3c6.2,0,15.5,1.1,15.5,12.2
				c0,12.1-13.2,21-27.6,21c-13.6,0-18.4-7.3-18.4-12.9c0-1.8,0.4-3.2,1.2-4.1c1.9-2,5-4.9,7.5-7.4c1-1,1.9-2,0.9-2.7
				c-4.3-1.1-8.1-4.9-8.1-8.8c0-0.6,0.5-1,1.7-1.9c1.9-1.2,4-3.1,5.9-5.1c0.6-0.7,1.1-1.5,1.1-2.1c-3.8-2-8.3-6.3-8.3-13.4
				c0-9.5,8.2-16.7,18.1-16.7c4.2,0,8.1,1.1,10.7,2.2c3.5,1.5,4.3,1.8,6.8,1.8h8.9V98.9z M785,143.7c-3.6,0-8,0.2-9.5,1.2
				c-2.7,1.7-5.3,5.1-5.3,9.3c0,6,4.8,11,14.9,11c9.9,0,16.4-5.6,16.4-11.9c0-6.8-4.7-9.7-12.6-9.7L785,143.7L785,143.7z M791.9,112
				c0-7.5-3.1-13.9-9.9-13.9c-5.3,0-9.3,4.9-9.3,12.4c0,7.9,4.8,13,10.1,13C788.8,123.5,791.9,118.7,791.9,112z"/>
			<path class="st1" d="M816.8,108.3c0-4.3,0-4.9-3-6.9l-1-0.7c-0.4-0.5-0.4-1.7,0.1-2c2.5-0.9,8.9-3.8,11.4-5.4
				c0.5,0,1,0.2,1.1,0.7c-0.2,3.9-0.5,9.2-0.5,13.8v20c0,8,0.2,9.1,4.2,9.7l2.3,0.3c0.8,0.5,0.6,2.4-0.2,2.8
				c-3.3-0.2-6.5-0.3-10.4-0.3c-4,0-7.3,0.1-10.4,0.3c-0.8-0.3-1-2.2-0.2-2.8l2.3-0.3c4.1-0.6,4.2-1.7,4.2-9.7v-19.5H816.8z
				 M826,76.7c0,4-2.8,5.8-5.9,5.8c-3.4,0-5.7-2.5-5.7-5.6c0-3.7,2.7-6,6-6C823.8,70.9,826,73.6,826,76.7z"/>
			<path class="st1" d="M882.3,117.8c0,13.9-9.6,23.8-23.4,23.8c-12.8,0-22.8-9-22.8-22.8c0-14,10.5-24,23.6-24
				C872.2,94.9,882.3,104.2,882.3,117.8z M858.4,98.2c-7.3,0-12.8,7-12.8,19.2c0,10.1,4.5,21,14.3,21s12.7-10.2,12.7-18.8
				C872.7,110.2,868.9,98.2,858.4,98.2z"/>
			<path class="st1" d="M894.8,108.3c0-4.3,0-4.9-3-6.9l-1-0.7c-0.4-0.5-0.4-1.7,0.1-2c2.6-0.9,8.9-3.8,11.1-5.4
				c0.4,0,1,0.2,1.2,0.8c-0.2,2.6-0.2,4.2-0.2,5.2c0,0.7,0.4,1.2,1.2,1.2c4.7-2.9,9.9-5.6,15.5-5.6c9.2,0,13,6.3,13,13.7v19.1
				c0,8,0.2,9.1,4.2,9.7l2.4,0.3c0.8,0.5,0.6,2.4-0.2,2.8c-3.3-0.2-6.6-0.3-10.4-0.3c-4,0-7.3,0.1-10.3,0.3c-0.8-0.3-1-2.2-0.2-2.8
				l2.1-0.3c4.1-0.7,4.2-1.7,4.2-9.7v-16.5c0-6.3-2.9-11-10.4-11c-4.2,0-7.9,1.8-9.4,3.9c-1.4,1.9-1.7,3.5-1.7,6.7v17
				c0,8,0.2,9,4.2,9.7l2,0.3c0.8,0.5,0.6,2.4-0.2,2.8c-3-0.2-6.2-0.3-10.1-0.3c-4,0-7.3,0.1-10.4,0.3c-0.8-0.3-1-2.2-0.2-2.8
				l2.3-0.3c4.1-0.6,4.2-1.7,4.2-9.7L894.8,108.3L894.8,108.3z"/>
			<path class="st1" d="M966.2,117.2c1.7-0.5,1.9-1.5,1.9-3.2l0.1-5.1c0.1-4.1-1.2-9.7-8.1-9.7c-3.1,0-6.9,1.6-7.1,5
				c-0.1,1.8-0.2,3.1-1.1,3.8c-1.6,1.3-4.6,2.1-6.3,2.1c-1,0-1.5-0.6-1.5-1.6c0-5.8,12.5-13.6,20.6-13.6c8,0,11.9,4.7,11.5,13
				l-0.7,19.3c-0.2,5.1,0.8,9.6,5.1,9.6c1.1,0,2.1-0.3,2.8-0.7c0.6-0.3,1.1-0.8,1.5-0.8s0.8,0.7,0.8,1.4c0,0.6-3.9,4.9-9.3,4.9
				c-2.7,0-5.3-1-7.2-3.4c-0.4-0.7-1.1-1.6-1.8-1.6c-0.8,0-2.1,1-4.3,2.2c-2.4,1.3-4.9,2.8-8,2.8c-3.2,0-5.9-0.9-7.8-2.6
				c-2.1-1.9-3.4-4.6-3.4-7.7c0-4.3,2.1-6.9,9.2-9.4L966.2,117.2z M959.3,136.7c2.2,0,5.7-1.7,6.8-2.8c1.4-1.3,1.4-2.9,1.5-5.2
				l0.2-6.5c0-1.2-0.4-1.4-1.1-1.4c-0.7,0-2.6,0.5-4.6,1.1c-6.5,2.2-9.7,3.9-9.7,8.2C952.3,131.9,953.7,136.7,959.3,136.7z"/>
			<path class="st1" d="M1000.4,127.7c0,8,0.2,9.1,4.2,9.7l2.7,0.3c0.8,0.5,0.6,2.4-0.2,2.8c-3.6-0.2-6.9-0.3-10.8-0.3
				c-4,0-7.3,0.1-10.7,0.3c-0.8-0.3-1-2.2-0.2-2.8l2.6-0.3c4.1-0.6,4.2-1.7,4.2-9.7V77.6c0-6.5-0.1-7.2-3.4-9.2l-1.1-0.7
				c-0.5-0.3-0.5-1.9,0-2.2c2.8-0.9,8-2.6,12-4.7c0.5,0,0.9,0.2,1.1,0.7c-0.1,3.3-0.3,8.9-0.3,13.8L1000.4,127.7L1000.4,127.7z"/>
		</g>
	</g>
	<g id="guiding">
		<path class="st1" d="M253.1,23.2h6.2v7c-1.6,0.5-3.3,0.8-5,0.8c-7.9-0.2-9.6-4-9.9-10.6c-0.1-3.4,0.9-6.4,2.7-8.3
			c1.5-1.5,3.4-2.3,5.8-2.3c3.5,0,5.5,1.3,6,3.8L259,14h4.9v-0.5c-0.2-5.4-5.4-7.9-10.5-7.9c-5.3,0-9.2,2.1-11.5,6.1
			c-1.5,2.7-2.4,5.9-2.4,8.7c0,2.3,0.4,8.1,4.3,11.5c3.1,2.7,6.4,3.3,10.4,3.3c2.8,0,6-0.5,9.6-1.6l0.3-0.1V19h-11V23.2z"/>
		<path class="st1" d="M288.1,24.1c-0.1,4.3-2.6,6.8-6.8,6.8c-4.2,0-6.7-2.5-6.8-6.8v-18h-4.7v17.1c-0.1,3.8,0.9,6.8,3,8.9
			c2,2,4.9,3.1,8.6,3.1s6.6-1,8.6-3.1s3-5.1,3-8.9V6.1h-4.7v18H288.1z"/>
		<rect x="299.6" y="6.1" class="st1" width="4.7" height="28.4"/>
		<path class="st1" d="M328,7.8c-2.3-1.5-5.1-1.7-7.7-1.7h-9.6v28.4h9.6l0,0c2.6-0.1,5.4-0.3,7.7-1.8c4-2.5,6-6.8,6-12.5
			C334.1,14.7,332,10.4,328,7.8z M329.2,20.3c0,2.9-0.6,5.1-2,7.1c-0.9,1.3-2.8,2.9-6.6,2.9h-5.1v-20h5.1c3.8,0,5.7,1.6,6.6,2.9
			C328.5,15.2,329.2,17.4,329.2,20.3z"/>
		<rect x="338.1" y="6.1" class="st1" width="4.7" height="28.4"/>
		<polygon class="st1" points="368.3,27.7 355.7,6.3 355.6,6.1 349.6,6.1 349.6,34.5 353.9,34.5 353.9,12.3 367.1,34.3 367.2,34.5
			372.6,34.5 372.6,6.1 368.3,6.1 		"/>
		<path class="st1" d="M392.2,23.2h6.2v7c-1.6,0.5-3.3,0.8-5,0.8c-7.9-0.2-9.6-4-9.9-10.6c-0.1-3.4,0.9-6.4,2.7-8.3
			c1.5-1.5,3.4-2.3,5.8-2.3c3.5,0,5.5,1.3,6,3.8l0.1,0.4h4.9v-0.5c-0.2-5.4-5.4-7.9-10.5-7.9c-5.3,0-9.2,2.1-11.5,6.1
			c-1.5,2.7-2.4,5.9-2.4,8.7c0,2.3,0.4,8.1,4.3,11.5c3.1,2.7,6.4,3.3,10.4,3.3c2.8,0,6-0.5,9.6-1.6l0.3-0.1V19h-11V23.2z"/>
		<polygon class="st1" points="438.7,6.1 430.8,19.2 422.5,6.1 417.1,6.1 428.2,24.5 428.2,34.5 433,34.5 433,24.5 444.1,6.1 		"/>
		<path class="st1" d="M456.6,5.5c-8,0-13,5.7-13,14.8s5,14.8,13,14.8s13-5.7,13-14.8S464.6,5.5,456.6,5.5z M456.6,30.9
			c-5.5,0-8.1-3.4-8.1-10.6s2.6-10.6,8.1-10.6s8.1,3.4,8.1,10.6S462.1,30.9,456.6,30.9z"/>
		<path class="st1" d="M492.9,24.1c-0.1,4.3-2.6,6.8-6.8,6.8c-4.2,0-6.7-2.5-6.8-6.8v-18h-4.7v17.1c-0.1,3.8,0.9,6.8,3,8.9
			c2,2,4.9,3.1,8.6,3.1s6.6-1,8.6-3.1s3-5.1,3-8.9V6.1h-4.7v18H492.9z"/>
		<polygon class="st1" points="512.7,10.3 521.9,10.3 521.9,34.5 526.6,34.5 526.6,10.3 535.9,10.3 535.9,6.1 512.7,6.1 		"/>
		<path class="st1" d="M549,5.5c-8,0-13,5.7-13,14.8s5,14.8,13,14.8s13-5.7,13-14.8S557,5.5,549,5.5z M549,30.9
			c-5.5,0-8.1-3.4-8.1-10.6s2.6-10.6,8.1-10.6s8.1,3.4,8.1,10.6S554.5,30.9,549,30.9z"/>
	</g>
	<g id="better">
		<path class="st1" d="M596.9,19.2c2.1-1.1,3.6-3,3.6-5.5c0-5.6-5.1-6.9-9.8-6.8H578v27.2h13c5.8,0,10.6-2,10.6-8.5
			C601.6,22.5,599.8,20.1,596.9,19.2z M585.1,12.4h5.5c1.5,0,2.9,0.6,2.9,2.6c0,1.9-1.7,2.6-2.9,2.6h-5.5V12.4z M590.7,28.4H585
			v-6.2h5.7c2.1,0,3.8,0.8,3.8,3.2C594.6,27.6,593,28.4,590.7,28.4z"/>
		<polygon class="st1" points="612.4,22.8 625.7,22.8 625.7,17.3 612.4,17.3 612.4,12.6 627,12.6 627,6.9 605.3,6.9 605.3,34.1
			627.4,34.1 627.4,28 612.4,28 		"/>
		<polygon class="st1" points="630.2,13 638.3,13 638.3,34.1 645.4,34.1 645.4,13 653.5,13 653.5,6.9 630.2,6.9 		"/>
		<polygon class="st1" points="657,13 665.1,13 665.1,34.1 672.2,34.1 672.2,13 680.3,13 680.3,6.9 657,6.9 		"/>
		<polygon class="st1" points="691.1,22.8 704.4,22.8 704.4,17.3 691.1,17.3 691.1,12.6 705.7,12.6 705.7,6.9 684,6.9 684,34.1
			706.1,34.1 706.1,28 691.1,28 		"/>
		<path class="st1" d="M733,27.9c-0.2-2.6-1.1-5.8-4-6.5v-0.1c2.9-1.1,4.3-3.9,4.3-6.8c0-5.5-4.8-7.7-9.5-7.7h-13.9V34h7.1v-9.9h5.4
			c3.4,0,3.8,2.8,4,5.6c0.1,0.8,0.2,3.4,0.8,4.3h7C733.2,33,733.1,29.1,733,27.9z M722.9,18.7H717v-6.1h5.6c2,0,3.6,0.9,3.6,2.9
			C726.2,17.6,725.1,18.7,722.9,18.7z"/>
	</g>
	<path id="logo-8" class="st1" d="M82.3,53.7L65.7,38.8c-1.2-1.2-3.1-1.3-4.2-0.2l-28.3,28c-1.1,1.1-1,2.9,0.2,4.1l16.4,15.6h32.5
		C82.3,86.3,82.3,53.7,82.3,53.7z"/>
	<path id="logo-7" class="st1" d="M49.8,86.4H27.3c-1.7,0-3.1,1.3-3.1,2.8v40.1c0,1.5,1.4,2.8,3.1,2.8h22.5l22.7-22.8L49.8,86.4z"/>
	<path id="logo-6" class="st1" d="M49.8,132.1l-16,15.9c-1.2,1.2-1.3,3.1-0.2,4.2l28.5,28.6c1.1,1.1,3,1,4.2-0.2l16-16.1v-32.4H49.8
		z"/>
	<path id="logo-5" class="st1" d="M82.3,164.4v22.8c0,1.7,1.3,3.1,2.8,3.1h40c1.6,0,2.8-1.4,2.8-3.1v-22.8l-22.8-22.8L82.3,164.4z"
		/>
	<path id="logo-4" class="st1" d="M128,164.4l16.2,15.8c1.2,1.2,3.1,1.3,4.2,0.2l28.4-27.9c1.1-1.1,1-2.2-0.4-3.5l-16.1-16.9H128
		V164.4z"/>
	<path id="logo-3" class="st1" d="M160.3,132.1h22.8c1.7,0,3.1-1.2,3.1-2.8V89.2c0-1.5-1.4-2.8-3.1-2.8h-22.8l-22.7,22.9
		L160.3,132.1z"/>
	<path id="logo-2" class="st1" d="M160.3,86.4l16.2-16c1.2-1.2,1.3-3.1,0.2-4.2l-28.6-28.5c-1.1-1.1-3-1-4.2,0.2L128,53.7v32.7
		H160.3z"/>
	<path id="logo-1" class="st1" d="M128,53.7V31.3c0-1.7-1.3-3.1-2.8-3.1h-40c-1.6,0-2.8,1.4-2.9,3v22.4l22.9,22.9L128,53.7z"/>
</g>
</svg>
