<?xml version="1.0" encoding="UTF-8"?> <svg xmlns="http://www.w3.org/2000/svg" xmlns:xlink="http://www.w3.org/1999/xlink" id="a" viewBox="0 0 195.56 147.71"><defs><clipPath id="b"><rect x="0" width="195.56" height="147.71" style="fill:none;"></rect></clipPath><clipPath id="c"><rect x="0" width="195.56" height="147.71" style="fill:none;"></rect></clipPath></defs><polygon points="194.18 111.5 28.55 111.5 28.55 0 194.18 0 194.18 111.5 194.18 111.5" style="fill:#004027;"></polygon><polygon points="31.68 111.5 0 111.5 0 0 31.68 0 31.68 111.5 31.68 111.5" style="fill:#b9ab97;"></polygon><g style="clip-path:url(#b);"><path d="M.05,22H165.26M.02,44.99H165.2M.02,67.87H165.2M0,90.22H165.2" style="fill:none; stroke:#fff;"></path></g><path d="M42.93,33.13c1.39,.04,1.95,.06,2.86,.06,1.45,0,2.75-.04,5.06-.15v-1.43c0-1.22-.1-3.76-.17-4.03-.06-.32-.23-.38-1.13-.44l-1.01-.06c.06-.15,.1-.27,.1-.34s-.04-.19-.1-.34l1.2,.08c.42,.02,1.11,.04,1.93,.04s1.51-.02,1.93-.04l1.2-.08c-.06,.15-.11,.27-.11,.34s.04,.19,.11,.34l-1.01,.06c-.97,.06-1.09,.13-1.16,.55-.04,.36-.15,2.94-.15,3.93v3.76c0,1.24,.11,3.76,.17,4.03,.06,.32,.23,.38,1.13,.44l1.01,.06c-.06,.15-.11,.25-.11,.34,0,.06,.04,.19,.11,.31l-1.2-.06c-.44-.02-1.11-.04-1.93-.04s-1.49,.02-1.93,.04l-1.2,.06c.06-.13,.1-.25,.1-.31,0-.08-.04-.19-.1-.34l1.01-.06c.97-.08,1.09-.15,1.16-.55,.04-.38,.15-2.94,.15-3.93v-1.57c-1.47-.04-2.08-.04-3.02-.04-1.83,0-2.94,.04-4.89,.15v1.47c0,1.24,.11,3.76,.17,4.03,.06,.32,.23,.38,1.13,.44l1.01,.06c-.06,.15-.11,.25-.11,.34,0,.06,.04,.19,.11,.31l-1.2-.06c-.44-.02-1.11-.04-1.93-.04s-1.49,.02-1.93,.04l-1.2,.06c.06-.13,.11-.25,.11-.31,0-.08-.04-.19-.11-.34l1.01-.06c.97-.08,1.09-.15,1.15-.55,.04-.36,.15-2.94,.15-3.93v-3.76c0-1.24-.11-3.76-.17-4.03-.06-.32-.23-.38-1.13-.44l-1.01-.06c.06-.15,.11-.27,.11-.34s-.04-.19-.11-.34l1.2,.08c.42,.02,1.11,.04,1.93,.04s1.51-.02,1.93-.04l1.2-.08c-.06,.15-.11,.27-.11,.34s.04,.19,.11,.34l-1.01,.06c-.97,.06-1.09,.13-1.15,.55-.04,.36-.15,2.94-.15,3.93v1.51h0Z" style="fill:#fff;"></path><path d="M58.98,35.95c-.48,1.28-1.28,3.28-1.34,3.36-.21,.38-.4,.48-.9,.55l-.71,.06c.06,.15,.1,.25,.1,.34,0,.06-.04,.19-.1,.31,1.36-.08,1.91-.1,2.41-.1,.55,0,1.07,.02,2.37,.1-.08-.13-.11-.25-.11-.31,0-.08,.02-.19,.11-.34l-1.16-.06c-.55-.04-.78-.19-.78-.48,0-.23,.21-.97,.67-2.37l.67-2.1c1.24-.08,1.72-.1,3.09-.1h1.45l.92,2.84c.42,1.22,.48,1.47,.48,1.7,0,.34-.21,.48-.8,.52l-1.16,.06c.06,.15,.11,.25,.11,.34,0,.06-.04,.19-.11,.31,1.28-.08,1.87-.1,2.6-.1,.69,0,1.34,.02,2.86,.1-.08-.13-.13-.25-.13-.31,0-.08,.04-.19,.13-.34l-.73-.06c-.38-.02-.53-.08-.67-.21-.1-.1-.59-1.28-.99-2.44l-2.77-7.73c-.76-2.16-.94-2.83-1.03-3.63-.13,.06-.23,.11-.29,.11s-.15-.04-.27-.11c-.15,.74-.55,1.47-.99,1.81-.1,.65-.27,1.2-.97,3.07l-1.97,5.23h0Zm5.56-1.83l-.92,.02c-.92,0-1.49,0-1.72-.02l-1.37-.11c.46-1.49,1.05-3.19,2.02-5.67,.59,1.49,.88,2.29,1.18,3.15l.82,2.62h0Z" style="fill:#fff;"></path><path d="M74.8,33.57c.25-.02,.46-.02,.55-.02,.9,0,1.26,.06,1.51,.25,.21,.17,.69,.9,1.07,1.62l2.73,5.12c.67-.04,1.03-.06,1.39-.06,.29,0,.48,0,.67,.02l.88,.06c-.06-.13-.1-.25-.1-.31,0-.08,.04-.19,.1-.34l-.67-.06-.27-.04c-.15,0-.23-.02-.27-.04-.19-.08-.32-.23-.71-.95l-2.27-3.99c-.63-1.13-.78-1.3-1.39-1.64,2.14-.42,3.3-1.6,3.3-3.34,0-1.24-.65-2.33-1.7-2.83-.8-.38-1.79-.57-3.07-.57h-.48q-2.04,.08-2.16,.08c-.76,0-1.43-.02-1.85-.04l-1.2-.08c.06,.15,.11,.27,.11,.34s-.04,.19-.11,.34l1.01,.06c.9,.06,1.07,.13,1.13,.44,.06,.27,.17,2.79,.17,4.03v3.76c0,.99-.11,3.57-.15,3.93-.06,.4-.19,.48-1.16,.55l-1.05,.06c.06,.15,.11,.25,.11,.34,0,.06-.04,.19-.11,.31l1.2-.06c.4-.02,1.22-.04,1.95-.04s1.55,.02,1.95,.04l1.2,.06c-.06-.13-.1-.25-.1-.31,0-.08,.04-.19,.1-.34l-1.01-.06c-.9-.06-1.07-.13-1.13-.44-.06-.27-.17-2.79-.17-4.03v-1.81h0Zm0-2.06c0-2.52,.06-3.97,.17-4.18,.1-.19,.27-.23,.97-.23,2.5,0,3.61,.88,3.61,2.86,0,1.55-.59,2.39-1.91,2.79-.61,.19-1.26,.27-2.04,.27-.25,0-.44-.02-.8-.06v-1.45h0Z" style="fill:#fff;"></path><path d="M89.26,33.57c.25-.02,.46-.02,.55-.02,.9,0,1.26,.06,1.51,.25,.21,.17,.69,.9,1.07,1.62l2.73,5.12c.67-.04,1.03-.06,1.39-.06,.29,0,.48,0,.67,.02l.88,.06c-.06-.13-.1-.25-.1-.31,0-.08,.04-.19,.1-.34l-.67-.06-.27-.04c-.15,0-.23-.02-.27-.04-.19-.08-.32-.23-.71-.95l-2.27-3.99c-.63-1.13-.78-1.3-1.39-1.64,2.14-.42,3.3-1.6,3.3-3.34,0-1.24-.65-2.33-1.7-2.83-.8-.38-1.78-.57-3.06-.57h-.48q-2.04,.08-2.16,.08c-.76,0-1.43-.02-1.85-.04l-1.2-.08c.06,.15,.11,.27,.11,.34s-.04,.19-.11,.34l1.01,.06c.9,.06,1.07,.13,1.13,.44,.06,.27,.17,2.79,.17,4.03v3.76c0,.99-.11,3.57-.15,3.93-.06,.4-.19,.48-1.15,.55l-1.05,.06c.06,.15,.11,.25,.11,.34,0,.06-.04,.19-.11,.31l1.2-.06c.4-.02,1.22-.04,1.95-.04s1.55,.02,1.95,.04l1.2,.06c-.06-.13-.11-.25-.11-.31,0-.08,.04-.19,.11-.34l-1.01-.06c-.9-.06-1.07-.13-1.13-.44-.06-.27-.17-2.79-.17-4.03v-1.81h0Zm0-2.06c0-2.52,.06-3.97,.17-4.18,.11-.19,.27-.23,.97-.23,2.5,0,3.61,.88,3.61,2.86,0,1.55-.59,2.39-1.91,2.79-.61,.19-1.26,.27-2.04,.27-.25,0-.44-.02-.8-.06v-1.45h0Z" style="fill:#fff;"></path><path d="M104.44,35.4c0,1.22,.1,3.74,.17,4.01,.06,.32,.23,.38,1.13,.44l1.01,.06c-.06,.15-.1,.25-.1,.34,0,.06,.04,.19,.1,.31l-1.19-.06c-.44-.02-1.11-.04-1.94-.04s-1.49,.02-1.93,.04l-1.2,.06c.07-.13,.11-.25,.11-.31,0-.08-.04-.19-.11-.34l1.01-.06c.97-.08,1.11-.15,1.16-.55,.04-.34,.15-2.96,.15-3.93v-3.76c0-1.22-.11-3.78-.17-4.03-.06-.32-.23-.38-1.14-.44l-1.01-.06c.07-.15,.11-.27,.11-.34s-.04-.19-.11-.34l1.2,.08c.42,.02,1.11,.04,1.93,.04s1.52-.02,1.94-.04l1.19-.08c-.06,.15-.1,.27-.1,.34s.04,.19,.1,.34l-1.01,.06c-.92,.06-1.09,.15-1.15,.55-.08,.9-.08,1.16-.14,3.93v3.78h0Z" style="fill:#fff;"></path><path d="M117.05,29.5c-.17-.06-.29-.11-.38-.11-.06,0-.21,.04-.36,.11l-.12-.71c-.21-1.3-1.11-2.04-2.54-2.04-1.53,0-2.65,.97-2.65,2.27,0,1.07,.51,1.7,2.14,2.65l1.59,.92c2.41,1.41,3.17,2.37,3.17,4.05,0,2.42-2.05,4.22-4.83,4.22-1.15,0-2.12-.25-3.48-.92l-.04-3.04c.17,.08,.31,.15,.42,.15,.08,0,.23-.06,.4-.15l.23,1.22c.12,.71,.33,1.15,.67,1.41,.54,.42,1.45,.74,2.16,.74,1.64,0,3.03-1.3,3.03-2.84,0-1.11-.53-1.79-2.16-2.75l-1.57-.94c-2.42-1.47-3.13-2.35-3.13-3.99,0-2.04,1.8-3.59,4.18-3.59,1.07,0,2.08,.27,3.28,.88v2.48h0Z" style="fill:#fff;"></path><path d="M128.23,26.14c-4.01,0-7.16,3.23-7.16,7.37s3.07,7.35,7.12,7.35,7.22-3.13,7.22-7.33-3.13-7.39-7.18-7.39h0Zm.02,.63c3.02,0,5.17,2.83,5.17,6.82,0,1.91-.51,3.74-1.32,4.85-.78,1.03-2.27,1.74-3.72,1.74-3.13,0-5.36-2.77-5.36-6.68,0-4.14,2.02-6.74,5.23-6.74h0Z" style="fill:#fff;"></path><path d="M138.36,26.5c.32,.02,.78,.04,1.45,.04,.27,0,.48,0,.9-.04,1.74,2.37,3.57,4.73,6.68,8.55l2.27,2.75c.02-1.24,.04-1.89,.04-2.94,0-2.33-.1-5.31-.27-7.06-.04-.48-.17-.57-1.03-.65l-.71-.06c.08-.15,.13-.27,.13-.34s-.04-.19-.13-.34l1.22,.08c.44,.02,.8,.04,1.05,.04,.27,0,.63-.02,1.07-.04l1.2-.08c-.06,.15-.11,.27-.11,.34s.04,.19,.11,.34l-.61,.06q-.99,.13-1.07,1.09c-.08,1.3-.21,6.76-.21,10.37,0,.9,.02,1.39,.04,2.39-.08-.04-.17-.06-.23-.06-.04,0-.12,.02-.23,.06-2.27-3.04-4.49-5.86-7.6-9.68l-2.23-2.73-.02,1.64c0,4.52,.06,7.18,.19,8.82,.04,.65,.13,.71,1.03,.8l.76,.06c-.06,.15-.1,.25-.1,.34,0,.06,.04,.19,.1,.31l-1.2-.06c-.46-.02-.82-.04-1.07-.04-.23,0-.59,.02-1.05,.04l-1.2,.06c.06-.13,.1-.25,.1-.31,0-.08-.04-.19-.1-.34l.65-.06c.86-.1,.96-.15,1.01-.55,.04-.38,.14-2.94,.14-3.93v-3.76c0-1.22-.1-3.76-.17-4.03-.06-.29-.19-.36-.98-.44l-.65-.06c.06-.15,.1-.27,.1-.34s-.04-.19-.1-.34l.84,.08h0Z" style="fill:#fff;"></path><path d="M51.17,52.69c-.15-.06-.27-.1-.34-.1-.08,0-.21,.04-.36,.1-.13-.88-.27-1.3-.65-1.72-.59-.69-1.64-1.09-2.88-1.09-3.28,0-5.42,2.65-5.42,6.66s2.27,6.85,5.46,6.85c1.53,0,2.71-.5,3.25-1.39,.25-.42,.42-.92,.65-1.87,.15,.06,.27,.1,.34,.1,.08,0,.21-.04,.36-.1l-.29,2.92c-1.32,.63-2.96,.99-4.45,.99-4.16,0-7.25-3.09-7.25-7.25s3.21-7.5,7.62-7.5c1.09,0,1.97,.15,3.91,.67l.04,2.73h0Z" style="fill:#fff;"></path><path d="M62.34,49.3c-4.01,0-7.16,3.23-7.16,7.37s3.07,7.35,7.12,7.35,7.22-3.13,7.22-7.33-3.13-7.39-7.18-7.39h0Zm.02,.63c3.02,0,5.17,2.83,5.17,6.83,0,1.91-.5,3.74-1.32,4.85-.78,1.03-2.27,1.74-3.72,1.74-3.13,0-5.35-2.77-5.35-6.68,0-4.14,2.02-6.74,5.23-6.74h0Z" style="fill:#fff;"></path><path d="M74.64,58.48c0,1.89,.04,2.25,.27,2.86,.46,1.16,1.68,1.81,3.36,1.81,1.55,0,2.94-.65,3.51-1.66,.38-.71,.61-1.89,.61-3.3v-3.4c0-1.41-.08-3.74-.15-4.03-.08-.31-.21-.36-1.13-.44l-.9-.06c.08-.15,.13-.27,.13-.34s-.04-.19-.13-.34l1.2,.08c.46,.02,.9,.04,1.32,.04s.86-.02,1.3-.04l1.2-.08c-.06,.15-.11,.27-.11,.34s.04,.19,.11,.34l-.63,.06c-.8,.08-.97,.17-1.03,.55-.06,.52-.19,2.35-.25,3.93l-.1,3.65c-.04,1.55-.27,2.67-.76,3.49-.73,1.28-2.41,2.1-4.35,2.1-2.27,0-4.2-1.03-4.89-2.58-.29-.69-.36-1.26-.36-2.96v-3.7c0-1.24-.1-3.76-.17-4.03-.06-.27-.27-.38-.99-.44l-.8-.06c.06-.15,.11-.27,.11-.34s-.04-.19-.11-.34l.99,.08c.38,.02,.95,.04,1.85,.04s1.58-.02,2.02-.04l1.2-.08c-.06,.15-.1,.27-.1,.34s.04,.19,.1,.34l-1.01,.06c-.97,.06-1.09,.13-1.15,.55-.04,.36-.15,2.94-.15,3.93v3.7h0Z" style="fill:#fff;"></path><path d="M89.85,49.66c.32,.02,.78,.04,1.45,.04,.27,0,.48,0,.9-.04,1.74,2.37,3.57,4.72,6.68,8.55l2.27,2.75c.02-1.24,.04-1.89,.04-2.94,0-2.33-.11-5.31-.27-7.06-.04-.48-.17-.57-1.03-.65l-.71-.06c.08-.15,.13-.27,.13-.34s-.04-.19-.13-.34l1.22,.08c.44,.02,.8,.04,1.05,.04,.27,0,.63-.02,1.07-.04l1.2-.08c-.06,.15-.1,.27-.1,.34s.04,.19,.1,.34l-.61,.06q-.99,.13-1.07,1.09c-.08,1.3-.21,6.76-.21,10.37,0,.9,.02,1.39,.04,2.39-.08-.04-.17-.06-.23-.06-.04,0-.12,.02-.23,.06-2.27-3.05-4.49-5.86-7.6-9.68l-2.23-2.73-.02,1.64c0,4.51,.06,7.18,.19,8.82,.04,.65,.13,.71,1.03,.8l.76,.06c-.06,.15-.1,.25-.1,.34,0,.06,.04,.19,.1,.31l-1.2-.06c-.46-.02-.82-.04-1.07-.04-.23,0-.59,.02-1.05,.04l-1.2,.06c.06-.13,.11-.25,.11-.31,0-.08-.04-.19-.11-.34l.65-.06c.86-.1,.97-.15,1.01-.55,.04-.38,.15-2.94,.15-3.93v-3.76c0-1.22-.1-3.76-.17-4.03-.06-.29-.19-.36-.99-.44l-.65-.06c.06-.15,.11-.27,.11-.34s-.04-.19-.11-.34l.84,.08h0Z" style="fill:#fff;"></path><path d="M115.66,51.8c0-.1-.04-.29-.15-.71-.17-.65-.54-.78-2.29-.78-.74,0-1.07,.02-1.53,.15-.08,2.35-.08,2.9-.08,4.26v3.82c0,1.22,.11,3.74,.17,4.03,.06,.29,.23,.38,1.13,.44l1.01,.06c-.06,.15-.11,.25-.11,.34,0,.06,.04,.19,.11,.31l-1.2-.06c-.44-.02-1.11-.04-1.93-.04s-1.49,.02-1.93,.04l-1.2,.06c.06-.13,.11-.25,.11-.31,0-.08-.04-.19-.11-.34l1.01-.06c.97-.08,1.09-.15,1.15-.55,.04-.36,.15-2.94,.15-3.93v-3.8c0-2.12-.02-2.83-.08-4.28-.42-.13-.7-.15-1.91-.15s-1.87,.46-2.44,1.76l-.4,.95c-.11-.04-.21-.08-.25-.08-.06,0-.15,.04-.25,.08l.9-3.91c.11,.06,.17,.08,.21,.08,.06,0,.13-.02,.23-.08,.21,.55,.25,.55,2.58,.55h5.48c.61,0,1.3-.04,1.72-.08,.36-.06,.46-.13,.65-.46,.11,.06,.19,.08,.23,.08s.12-.02,.23-.08l-.57,3.91c-.11-.04-.19-.08-.25-.08-.04,0-.15,.04-.25,.08l-.15-1.22h0Z" style="fill:#fff;"></path><path d="M122.4,50.31c-.78,.08-.95,.15-.95,.38,0,.21,.06,.36,.55,1.26q1.74,3.28,3.04,5.31c.76-.97,1.51-2.27,2.73-4.7,.53-1.03,.76-1.64,.76-1.87,0-.25-.15-.31-.71-.38l-.86-.06c.06-.15,.11-.27,.11-.34s-.04-.19-.11-.34l1.18,.08c.44,.02,.88,.04,1.34,.04,.4,0,.78-.02,1.11-.04l.84-.08c-.06,.15-.11,.27-.11,.34s.04,.19,.11,.34l-.63,.06c-.65,.1-.78,.23-1.55,1.51-.17,.27-.34,.52-.5,.78l-3.44,5.38v.57c0,1.24,.11,3.76,.17,4.03,.06,.31,.23,.38,1.13,.44l1.01,.06c-.06,.15-.11,.25-.11,.34,0,.06,.04,.19,.11,.31l-1.2-.06c-.44-.02-1.11-.04-1.93-.04s-1.49,.02-1.93,.04l-1.2,.06c.06-.13,.1-.25,.1-.31,0-.08-.04-.19-.1-.34l1.01-.06c.96-.08,1.09-.15,1.16-.55,.04-.38,.14-2.94,.14-3.93v-.57l-3.06-5.14c-.17-.29-.34-.59-.5-.86-.8-1.43-.84-1.45-1.7-1.66l-.69-.06c.08-.15,.11-.27,.11-.34s-.02-.19-.11-.34l1.07,.08c.4,.02,.96,.04,1.68,.04s1.26-.02,1.66-.04l1.03-.08c-.06,.15-.11,.27-.11,.34,0,.08,.04,.19,.11,.34l-.74,.06h0Z" style="fill:#fff;"></path><path d="M42.83,78.82c1.39,.04,1.95,.06,2.86,.06,1.45,0,2.75-.04,5.06-.15v-1.43c0-1.22-.11-3.76-.17-4.03-.06-.31-.23-.38-1.13-.44l-1.01-.06c.06-.15,.11-.27,.11-.34s-.04-.19-.11-.34l1.2,.08c.42,.02,1.11,.04,1.93,.04s1.51-.02,1.93-.04l1.2-.08c-.06,.15-.1,.27-.1,.34s.04,.19,.1,.34l-1.01,.06c-.97,.06-1.09,.13-1.16,.55-.04,.36-.15,2.94-.15,3.93v3.76c0,1.24,.1,3.76,.17,4.03,.06,.31,.23,.38,1.13,.44l1.01,.06c-.06,.15-.1,.25-.1,.34,0,.06,.04,.19,.1,.31l-1.2-.06c-.44-.02-1.11-.04-1.93-.04s-1.49,.02-1.93,.04l-1.2,.06c.06-.13,.11-.25,.11-.31,0-.08-.04-.19-.11-.34l1.01-.06c.97-.08,1.09-.15,1.16-.55,.04-.38,.15-2.94,.15-3.93v-1.58c-1.47-.04-2.08-.04-3.02-.04-1.83,0-2.94,.04-4.89,.15v1.47c0,1.24,.1,3.76,.17,4.03,.06,.31,.23,.38,1.13,.44l1.01,.06c-.06,.15-.11,.25-.11,.34,0,.06,.04,.19,.11,.31l-1.2-.06c-.44-.02-1.11-.04-1.93-.04s-1.49,.02-1.93,.04l-1.2,.06c.06-.13,.1-.25,.1-.31,0-.08-.04-.19-.1-.34l1.01-.06c.97-.08,1.09-.15,1.16-.55,.04-.36,.15-2.94,.15-3.93v-3.76c0-1.24-.1-3.76-.17-4.03-.06-.31-.23-.38-1.13-.44l-1.01-.06c.06-.15,.1-.27,.1-.34s-.04-.19-.1-.34l1.2,.08c.42,.02,1.11,.04,1.93,.04s1.51-.02,1.93-.04l1.2-.08c-.06,.15-.11,.27-.11,.34s.04,.19,.11,.34l-1.01,.06c-.97,.06-1.09,.13-1.16,.55-.04,.36-.15,2.94-.15,3.93v1.51h0Z" style="fill:#fff;"></path><path d="M64.33,71.83c-4.01,0-7.16,3.23-7.16,7.37s3.07,7.35,7.12,7.35,7.22-3.13,7.22-7.33-3.13-7.39-7.18-7.39h0Zm.02,.63c3.02,0,5.17,2.83,5.17,6.83,0,1.91-.5,3.74-1.32,4.85-.78,1.03-2.27,1.74-3.72,1.74-3.13,0-5.35-2.77-5.35-6.68,0-4.14,2.02-6.74,5.23-6.74h0Z" style="fill:#fff;"></path><path d="M81.83,75.19c-.17-.06-.29-.11-.38-.11-.06,0-.21,.04-.36,.11l-.13-.71c-.21-1.3-1.11-2.04-2.54-2.04-1.53,0-2.65,.97-2.65,2.27,0,1.07,.5,1.7,2.14,2.65l1.6,.92c2.41,1.41,3.17,2.37,3.17,4.05,0,2.41-2.06,4.22-4.83,4.22-1.16,0-2.12-.25-3.49-.92l-.04-3.05c.17,.08,.32,.15,.42,.15,.08,0,.23-.06,.4-.15l.23,1.22c.13,.71,.34,1.15,.67,1.41,.55,.42,1.45,.74,2.16,.74,1.64,0,3.02-1.3,3.02-2.83,0-1.11-.53-1.79-2.16-2.75l-1.58-.95c-2.42-1.47-3.13-2.35-3.13-3.99,0-2.04,1.81-3.59,4.18-3.59,1.07,0,2.08,.27,3.28,.88v2.48h0Z" style="fill:#fff;"></path><path d="M85.93,72.19c.46,.02,.95,.04,1.64,.04,.55,0,1.01-.02,1.76-.04,.65-.02,1.18-.04,1.62-.04,3.04,0,5.02,1.64,5.02,4.14s-2.1,4.22-5.17,4.22c-.46,0-.78-.02-1.49-.13,.06-.15,.11-.25,.11-.31,0-.08-.04-.19-.11-.34,.4,.04,.8,.06,1.01,.06,2.31,0,3.78-1.34,3.78-3.46,0-2.27-1.41-3.53-3.95-3.53-1.03,0-1.24,.06-1.34,.4-.06,.23-.13,2.25-.13,4.14v3.74c0,1.22,.1,3.74,.17,4.03,.06,.29,.23,.38,1.13,.44l1.01,.06c-.06,.15-.1,.25-.1,.34,0,.06,.04,.19,.1,.31l-1.2-.06c-.44-.02-1.11-.04-1.93-.04s-1.49,.02-1.93,.04l-1.2,.06c.06-.13,.11-.25,.11-.31,0-.08-.04-.19-.11-.34l1.01-.06c.97-.08,1.09-.15,1.16-.55,.04-.36,.15-2.94,.15-3.93v-3.76c0-1.24-.11-3.76-.17-4.03-.06-.31-.23-.38-1.13-.44l-1.01-.06c.06-.15,.11-.27,.11-.34s-.04-.19-.11-.34l1.2,.08h0Z" style="fill:#fff;"></path><path d="M115.97,74.33c0-.1-.04-.29-.15-.71-.17-.65-.55-.78-2.29-.78-.73,0-1.07,.02-1.53,.15-.08,2.35-.08,2.9-.08,4.26v3.82c0,1.22,.1,3.74,.17,4.03,.06,.29,.23,.38,1.13,.44l1.01,.06c-.06,.15-.11,.25-.11,.34,0,.06,.04,.19,.11,.31l-1.2-.06c-.44-.02-1.11-.04-1.93-.04s-1.49,.02-1.93,.04l-1.2,.06c.06-.13,.1-.25,.1-.31,0-.08-.04-.19-.1-.34l1.01-.06c.96-.08,1.09-.15,1.16-.55,.04-.36,.14-2.94,.14-3.93v-3.8c0-2.12-.02-2.83-.08-4.28-.42-.13-.69-.15-1.91-.15s-1.87,.46-2.44,1.76l-.4,.95c-.1-.04-.21-.08-.25-.08-.06,0-.14,.04-.25,.08l.9-3.91c.1,.06,.17,.08,.21,.08,.06,0,.12-.02,.23-.08,.21,.55,.25,.55,2.58,.55h5.48c.61,0,1.3-.04,1.72-.08,.36-.06,.46-.13,.65-.46,.11,.06,.19,.08,.23,.08s.12-.02,.23-.08l-.57,3.91c-.1-.04-.19-.08-.25-.08-.04,0-.14,.04-.25,.08l-.14-1.22h0Z" style="fill:#fff;"></path><path d="M101.72,81.09c0,1.22,.1,3.74,.17,4.01,.06,.31,.23,.38,1.13,.44l1.01,.06c-.06,.15-.1,.25-.1,.34,0,.06,.04,.19,.1,.31l-1.2-.06c-.44-.02-1.11-.04-1.93-.04s-1.49,.02-1.93,.04l-1.2,.06c.06-.13,.11-.25,.11-.31,0-.08-.04-.19-.11-.34l1.01-.06c.96-.08,1.11-.15,1.16-.55,.04-.34,.14-2.96,.14-3.93v-3.76c0-1.22-.1-3.78-.17-4.03-.06-.31-.23-.38-1.13-.44l-1.01-.06c.06-.15,.11-.27,.11-.34s-.04-.19-.11-.34l1.2,.08c.42,.02,1.11,.04,1.93,.04s1.51-.02,1.93-.04l1.2-.08c-.06,.15-.1,.27-.1,.34s.04,.19,.1,.34l-1.01,.06c-.92,.06-1.09,.15-1.16,.55-.08,.9-.08,1.15-.14,3.93v3.78h0Z" style="fill:#fff;"></path><path d="M119.74,81.64c-.48,1.28-1.28,3.28-1.34,3.36-.21,.38-.4,.48-.9,.55l-.71,.06c.06,.15,.11,.25,.11,.34,0,.06-.04,.19-.11,.31,1.37-.08,1.91-.1,2.41-.1,.55,0,1.07,.02,2.37,.1-.08-.13-.1-.25-.1-.31,0-.08,.02-.19,.1-.34l-1.15-.06c-.55-.04-.78-.19-.78-.48,0-.23,.21-.97,.67-2.37l.67-2.1c1.24-.08,1.72-.1,3.09-.1h1.45l.92,2.83c.42,1.22,.48,1.47,.48,1.7,0,.34-.21,.48-.8,.52l-1.15,.06c.06,.15,.1,.25,.1,.34,0,.06-.04,.19-.1,.31,1.28-.08,1.87-.1,2.6-.1,.7,0,1.35,.02,2.86,.1-.08-.13-.12-.25-.12-.31,0-.08,.04-.19,.12-.34l-.74-.06c-.38-.02-.52-.08-.67-.21-.1-.1-.59-1.28-.99-2.44l-2.77-7.73c-.76-2.16-.95-2.83-1.03-3.63-.13,.06-.23,.11-.29,.11s-.15-.04-.27-.11c-.15,.74-.55,1.47-.99,1.81-.11,.65-.28,1.2-.97,3.06l-1.97,5.23h0Zm5.57-1.83l-.93,.02c-.92,0-1.49,0-1.72-.02l-1.36-.11c.46-1.49,1.05-3.19,2.02-5.67,.59,1.49,.88,2.29,1.18,3.15l.82,2.62h0Z" style="fill:#fff;"></path><path d="M142.81,86.24c-3.74-.06-5.96-.08-6.64-.08h-1.89l-1.11,.04-1.2,.06c.06-.13,.1-.25,.1-.31,0-.08-.04-.19-.1-.34l1.01-.06c.96-.08,1.09-.15,1.15-.55,.04-.36,.15-2.94,.15-3.93v-3.76c0-1.24-.1-3.76-.17-4.03-.06-.31-.23-.38-1.13-.44l-1.01-.06c.06-.15,.1-.27,.1-.34s-.04-.19-.1-.34l1.2,.08c.42,.02,1.11,.04,1.93,.04s1.51-.02,1.93-.04l1.2-.08c-.06,.15-.11,.27-.11,.34s.04,.19,.11,.34l-1.01,.06c-.97,.06-1.09,.13-1.16,.55-.04,.36-.15,2.94-.15,3.93v3.76c.02,2.79,.02,3.11,.04,3.38,.02,1.01,.04,1.01,1.36,1.01h1.09c1.8,0,2.81-.13,3.15-.36,.29-.21,.5-.55,.97-1.58l.46-1.03c.13,.06,.23,.08,.27,.08,.06,0,.15-.02,.27-.06l-.73,3.72h0Z" style="fill:#fff;"></path><path d="M5.17,121.77l-.3-2.15c-.03-.39-.09-.94-.12-1.36h-.03c-.2,.44-.39,.9-.6,1.35l-1.1,2.16h2.16Zm-2.5,.73l-1.18,2.34H.53l3.83-7.42h1.08l1.02,7.42h-.94l-.3-2.34H2.67Z" style="fill:#231f20;"></path><path d="M7.41,124.84l.7-3.77c.12-.59,.2-1.11,.25-1.55h.82l-.14,1.04h.02c.48-.75,1.2-1.17,1.98-1.17,.63,0,1.34,.36,1.34,1.47,0,.24-.04,.58-.1,.86l-.59,3.11h-.9l.58-3.08c.03-.2,.07-.45,.07-.68,0-.53-.21-.92-.84-.92s-1.57,.78-1.82,2.1l-.48,2.59h-.9Z" style="fill:#231f20;"></path><path d="M19.4,120.2c-.13-.04-.32-.08-.63-.08-1.38,0-2.51,1.43-2.51,2.92,0,.59,.21,1.18,.9,1.18,.77,0,1.67-.99,1.93-2.41l.31-1.61h0Zm-.58,4.64c0-.32,.06-.83,.12-1.38h-.02c-.58,1.11-1.32,1.5-2.07,1.5-.95,0-1.53-.75-1.53-1.76,0-1.86,1.36-3.81,3.67-3.81,.51,0,1.07,.09,1.43,.2l-.54,2.78c-.18,.92-.24,1.87-.22,2.46h-.85Z" style="fill:#231f20;"></path><path d="M21.15,124.84l.87-4.61h-.7l.13-.71h.71l.04-.29c.13-.74,.4-1.42,.87-1.85,.34-.31,.8-.47,1.27-.47,.37,0,.61,.07,.74,.14l-.2,.73c-.14-.07-.33-.1-.54-.1-.73,0-1.08,.7-1.23,1.58l-.04,.25h1.19l-.14,.71h-1.18l-.87,4.61h-.91Z" style="fill:#231f20;"></path><path d="M24.26,124.84l.87-4.61h-.7l.13-.71h.71l.04-.29c.13-.74,.4-1.42,.87-1.85,.34-.31,.8-.47,1.27-.47,.37,0,.61,.07,.74,.14l-.2,.73c-.14-.07-.33-.1-.54-.1-.73,0-1.08,.7-1.23,1.58l-.04,.25h1.19l-.14,.71h-1.18l-.87,4.61h-.91Z" style="fill:#231f20;"></path><path d="M28.95,118.54c-.32,0-.54-.25-.54-.59,.01-.36,.29-.65,.63-.65s.57,.25,.57,.59c-.01,.38-.29,.65-.65,.65h-.01Zm-1.71,6.3l1.01-5.33h.91l-1.01,5.33h-.91Z" style="fill:#231f20;"></path><polygon points="29.77 124.84 31.26 117.03 32.17 117.03 30.68 124.84 29.77 124.84 29.77 124.84" style="fill:#231f20;"></polygon><path d="M33.98,118.54c-.32,0-.54-.25-.54-.59,.01-.36,.29-.65,.63-.65s.57,.25,.57,.59c-.01,.38-.29,.65-.65,.65h-.01Zm-1.71,6.3l1.01-5.33h.91l-1.01,5.33h-.91Z" style="fill:#231f20;"></path><path d="M38.92,120.2c-.13-.04-.32-.08-.63-.08-1.38,0-2.51,1.43-2.51,2.92,0,.59,.21,1.18,.9,1.18,.77,0,1.67-.99,1.93-2.41l.31-1.61h0Zm-.58,4.64c0-.32,.06-.83,.12-1.38h-.02c-.58,1.11-1.32,1.5-2.07,1.5-.95,0-1.53-.75-1.53-1.76,0-1.86,1.36-3.81,3.67-3.81,.51,0,1.07,.09,1.43,.2l-.54,2.78c-.18,.92-.24,1.87-.22,2.46h-.85Z" style="fill:#231f20;"></path><path d="M42.89,118.24l-.24,1.28h1.28l-.14,.71h-1.28l-.48,2.6c-.07,.3-.11,.57-.11,.85,0,.32,.15,.52,.51,.52,.16,0,.31-.01,.43-.04l-.04,.71c-.17,.07-.44,.1-.7,.1-.8,0-1.12-.48-1.12-1.03,0-.31,.04-.62,.12-1l.52-2.7h-.76l.13-.71h.76l.19-.98,.96-.3h0Z" style="fill:#231f20;"></path><path d="M47.58,120.78c0-.43-.33-.67-.81-.67-.87,0-1.52,.85-1.74,1.68,1.43,.02,2.55-.18,2.55-1h0Zm.2,3.75c-.4,.22-1.04,.42-1.76,.42-1.41,0-2.02-.97-2.02-2.15,0-1.61,1.19-3.42,2.9-3.42,1.01,0,1.56,.61,1.56,1.38,0,1.4-1.57,1.76-3.54,1.73-.04,.23-.01,.73,.11,1.01,.21,.48,.64,.71,1.19,.71,.63,0,1.1-.19,1.43-.36l.13,.68h0Z" style="fill:#231f20;"></path><path d="M53.18,124.23c1.08,0,1.89-1.39,1.89-2.63,0-.62-.29-1.48-1.24-1.48-1.14,0-1.9,1.4-1.9,2.62,0,.87,.48,1.5,1.24,1.5h.01Zm-.11,.73c-1.33,0-2.08-.99-2.08-2.19,0-1.76,1.22-3.38,2.95-3.38,1.44,0,2.09,1.09,2.09,2.21,0,1.65-1.17,3.36-2.95,3.36h-.01Z" style="fill:#231f20;"></path><g style="clip-path:url(#c);"><path d="M56.8,124.84l.87-4.61h-.7l.13-.71h.71l.04-.29c.13-.74,.4-1.42,.87-1.85,.34-.31,.8-.47,1.27-.47,.37,0,.61,.07,.74,.14l-.2,.73c-.14-.07-.33-.1-.54-.1-.73,0-1.08,.7-1.23,1.58l-.04,.25h1.19l-.14,.71h-1.18l-.87,4.61h-.91Z" style="fill:#231f20;"></path><path d="M16.15,131.09v3.72l-5.82-3.72h-.28l13.47,12.06v-12.06h-7.38Zm-8.76,0l15.74,16.61h.4s-14.18-16.61-14.18-16.61h-1.96Zm-6,0v16.61h7.37v-7.18l5.16,7.18h.39s-10.19-16.61-10.19-16.61H1.39Zm5.34,0l12.2,16.61h-.42s-13.75-16.61-13.75-16.61h1.96Z" style="fill:#005cab;"></path></g><path d="M83.21,135.55h-.24c-.21,0-.33,.08-.33,.23,0,.11,.1,.2,.23,.2l.39,.03c.33,.07,.42,.18,.44,.59v.43s.01,.14,.01,.14c0,0,0,5.7,0,5.7,0,0,0,.58,0,.58-.01,1.09-.07,1.38-.31,1.45-.18,.05-.42,.06-.54,.06-.29,0-.33,.14-.33,.23,0,.25,.28,.25,.41,.25l1.17-.03h.21s.35,0,.35,0l1.23,.02c.11,0,.42,0,.42-.25,0-.15-.12-.23-.35-.23-.18,0-.42,0-.62-.08-.14-.05-.33-.24-.36-1.29,0,0-.1-3.91-.13-5.02,.04,.05,.1,.1,.1,.1,.54,.58,1.65,1.8,2.76,2.88l1.72,1.7,2.05,2.02c.16,.15,.33,.31,.53,.31,.29,0,.29-.38,.29-.52l.14-7.98c.01-.73,.13-.89,.38-.96,0,0,.35-.03,.35-.03,.31,0,.36-.15,.36-.24,0-.24-.29-.24-.42-.24l-1.02,.03h-.23s-.45,0-.45,0l-1.1-.03c-.16,0-.46,0-.46,.24,0,.11,.06,.24,.33,.24,.16,0,.46,0,.63,.07,.23,.1,.34,.27,.35,1.02,0,0,.1,4.32,.12,5.43-.21-.22-.75-.77-.75-.77l-1.9-1.95c-1.95-1.91-3.74-3.82-3.76-3.84-.21-.22-.48-.36-.67-.38,0,0,0-.01,0-.01l-.24-.07c-.23-.03-.53-.03-.79-.03h0Z" style="fill:#231f20;"></path><path d="M29.35,133.92h0Zm-.13-.74h-.28c-.25,0-.38,.1-.38,.28,0,.14,.12,.25,.27,.25l.46,.04c.39,.09,.49,.23,.51,.73l.02,.54v.17s0,7.04,0,7.04c0,0,0,.73,0,.73-.01,1.36-.08,1.72-.36,1.81-.21,.06-.49,.07-.64,.07-.34,0-.39,.18-.39,.29,0,.32,.33,.32,.48,.32l1.37-.04h.25s.41,0,.41,0l1.45,.03c.12,0,.5,0,.5-.32,0-.19-.14-.29-.41-.29-.21,0-.49,0-.73-.1-.17-.06-.39-.3-.42-1.61,0,0-.12-4.88-.16-6.27,.05,.06,.11,.13,.11,.13,.63,.73,1.95,2.24,3.24,3.6l2.02,2.13,2.42,2.52c.19,.19,.39,.39,.62,.39,.34,0,.34-.47,.34-.65l.17-9.97c.02-.91,.15-1.11,.45-1.2,0,0,.41-.04,.41-.04,.36,0,.42-.19,.42-.3,0-.3-.34-.3-.49-.3l-1.21,.03h-.27s-.53,0-.53,0l-1.29-.03c-.19,0-.54,0-.54,.3,0,.14,.07,.3,.39,.3,.19,0,.54,0,.74,.08,.27,.12,.4,.34,.42,1.28,0,0,.11,5.4,.14,6.78-.25-.28-.89-.96-.89-.96l-2.24-2.44c-2.29-2.39-4.4-4.7-4.42-4.72-.25-.27-.57-.45-.79-.48,0,0,0-.01,0-.01l-.28-.08c-.27-.04-.62-.04-.93-.03h0Z" style="fill:#231f20;"></path><path d="M46.65,136.05c-1.17,0-3.13,.52-3.13,4.01,0,2.83,1.62,4.81,3.94,4.81,.88,0,2.94-.41,2.94-4.15,0-2.75-1.54-4.67-3.75-4.67h0Zm.25,9.73c-3.75,0-5.45-2.75-5.45-5.3s1.75-5.3,5.58-5.3c3.37,0,5.46,1.94,5.46,5.07s-2.3,5.54-5.59,5.54h0Z" style="fill:#231f20;"></path><path d="M56.66,136.22c-.22,0-.52,0-.66,.05-.02,0-.03,.02-.03,.07v4.02c0,.11,0,.11,.05,.12,.23,.08,.59,.12,.96,.12,.51,0,.65-.05,.87-.2,.27-.2,.73-.71,.73-1.88,0-1.81-1.19-2.3-1.9-2.3h0Zm5.21,9.37c-.74,0-1.1-.07-1.47-.27-.57-.31-1.07-.91-1.85-1.98-.23-.31-.46-.65-.68-.95-.28-.4-.53-.75-.62-.86-.03-.04-.06-.05-.14-.05l-1.13-.03v.17c0,1.21,0,2.27,.06,2.81,.04,.39,.11,.58,.41,.62,.19,.03,.48,.05,.63,.05,.21,0,.28,.12,.28,.23,0,.1-.05,.25-.39,.25-.51,0-1.12-.02-1.52-.03-.2,0-.36,0-.42,0-.1,0-.3,0-.53,.01-.34,.01-.77,.03-1.08,.03-.34,0-.39-.16-.39-.25,0-.11,.06-.23,.33-.23,.2,0,.35-.03,.45-.05,.18-.04,.24-.24,.29-.62,.07-.55,.07-1.59,.07-2.8v-2.33c0-2.01,0-2.38-.03-2.79-.03-.43-.12-.57-.47-.64-.09-.02-.29-.04-.49-.04-.23,0-.35-.08-.35-.24,0-.24,.29-.24,.41-.24,.43,0,.91,.02,1.29,.03,.23,0,.42,.01,.53,.01,.23,0,.6-.01,.97-.02,.35-.01,.69-.02,.9-.02,.81,0,1.74,.07,2.5,.59,.46,.31,.95,1.04,.95,1.91,0,1.1-.51,1.99-1.7,2.98l.38,.48c.97,1.22,1.73,2.19,2.4,2.89,.69,.72,1.21,.82,1.4,.86,.15,.03,.26,.04,.36,.04,.21,0,.28,.12,.28,.23,0,.25-.28,.25-.37,.25h-1.26Z" style="fill:#231f20;"></path><path d="M68.38,145.59c-.53,0-1.04-.01-1.45-.03-.26,0-.48-.01-.62-.01-.13,0-.36,0-.62,.01-.35,.01-.75,.02-1.05,.02-.34,0-.39-.16-.39-.25,0-.11,.06-.23,.33-.23,.2,0,.35-.03,.45-.05,.16-.03,.25-.21,.29-.62,.07-.55,.07-1.59,.07-2.8v-5.29l-1.84,.05c-.77,.03-1.03,.1-1.18,.33-.14,.21-.19,.36-.21,.42-.04,.17-.13,.25-.26,.25-.24,0-.24-.25-.24-.33,0-.23,.26-1.47,.28-1.55,.03-.12,.08-.34,.28-.34,.06,0,.12,.03,.19,.06,.09,.04,.2,.09,.39,.1,.39,.04,.9,.07,1.31,.07h5.23c.41,0,.68-.04,.88-.06l.15-.03c.12-.03,.18-.04,.24-.04,.23,0,.23,.24,.23,.4,0,.13,0,.41-.02,.7,0,.32-.02,.66-.02,.84,0,.1-.03,.33-.24,.33-.24,0-.26-.24-.27-.38v-.14c-.04-.38-.57-.61-1.45-.63l-1.54-.04v5.29c0,1.21,0,2.25,.06,2.81,.04,.38,.11,.57,.41,.61,.18,.03,.46,.05,.66,.05,.3,0,.33,.16,.33,.23,0,.06-.03,.25-.37,.25h0Z" style="fill:#231f20;"></path><path d="M76.05,136.05c-1.17,0-3.13,.52-3.13,4.01,0,2.83,1.62,4.81,3.94,4.81,.88,0,2.94-.41,2.94-4.15,0-2.75-1.54-4.67-3.75-4.67h0Zm.25,9.73c-3.75,0-5.45-2.75-5.45-5.3s1.75-5.3,5.58-5.3c3.37,0,5.46,1.94,5.46,5.07s-2.3,5.54-5.59,5.54h0Z" style="fill:#231f20;"></path><path d="M111.35,145.6c-.64,0-1.26-.02-1.77-.03-.33,0-.6-.02-.78-.02-.16,0-.45,0-.77,.02-.43,.01-.91,.03-1.27,.03-.31,0-.46-.1-.46-.29,0-.11,.07-.25,.38-.25,.25,0,.44-.04,.56-.06,.23-.05,.31-.3,.38-.79,.08-.67,.08-1.96,.08-3.45v-1.41h-6.17v1.41c0,1.49,0,2.78,.08,3.47,.05,.47,.15,.72,.53,.77,.22,.03,.58,.06,.81,.06,.35,0,.38,.18,.38,.25,0,.09-.04,.29-.45,.29-.64,0-1.26-.02-1.77-.03-.32,0-.6-.02-.78-.02-.16,0-.44,0-.76,.02-.43,.01-.92,.03-1.29,.03s-.45-.16-.45-.29c0-.11,.07-.25,.38-.25,.25,0,.44-.04,.56-.06,.23-.05,.31-.3,.38-.79,.08-.67,.08-1.96,.08-3.45v-2.87c0-2.48,0-2.93-.03-3.45-.03-.55-.16-.72-.6-.82-.11-.03-.36-.05-.61-.05-.1,0-.4,0-.4-.27s.32-.27,.46-.27c.52,0,1.09,.02,1.55,.03,.33,.01,.61,.02,.79,.02,.17,0,.46,0,.79-.02,.42-.01,.9-.03,1.26-.03,.14,0,.46,0,.46,.27s-.3,.27-.42,.27-.25,.01-.45,.05c-.35,.06-.47,.25-.5,.81-.03,.52-.03,.97-.03,3.45v.33h6.17v-.33c0-2.48,0-2.93-.03-3.45-.03-.55-.16-.72-.61-.82-.11-.03-.36-.05-.61-.05-.1,0-.4,0-.4-.27s.33-.27,.47-.27c.52,0,1.09,.02,1.55,.03,.33,.01,.61,.02,.8,.02,.17,0,.46,0,.79-.02,.42-.01,.9-.03,1.26-.03,.14,0,.47,0,.47,.27s-.3,.27-.42,.27-.26,.01-.45,.05c-.35,.06-.47,.25-.5,.81-.03,.52-.03,.97-.03,3.45v2.87c0,1.49,0,2.78,.08,3.47,.05,.47,.15,.72,.53,.77,.22,.03,.58,.06,.82,.06,.35,0,.38,.18,.38,.25,0,.09-.04,.29-.45,.29h0Z" style="fill:#231f20;"></path><path d="M118.48,145.63c-1.23,0-2.03-.03-2.66-.05-.38-.02-.7-.03-1-.03-.13,0-.36,0-.62,.01-.34,.01-.74,.02-1.05,.02-.34,0-.38-.16-.38-.25,0-.11,.06-.23,.33-.23,.2,0,.35-.03,.45-.05,.18-.04,.23-.24,.29-.62,.06-.55,.06-1.59,.06-2.8v-2.33c0-2.01,0-2.38-.03-2.79-.02-.43-.12-.57-.47-.64-.09-.02-.29-.04-.49-.04-.23,0-.35-.08-.35-.24,0-.24,.29-.24,.42-.24,.41,0,.86,.01,1.24,.03,.27,0,.51,.02,.66,.02,.92,0,3.07,0,3.3-.01,.18-.02,.43-.05,.54-.08,.03,0,.05-.01,.07-.02,.05-.02,.11-.04,.17-.04,.05,0,.2,.02,.2,.24,0,.04,0,.08-.02,.15-.02,.12-.06,.32-.09,.72,0,.05-.01,.15-.02,.27-.02,.24-.03,.5-.05,.61-.04,.22-.18,.25-.25,.25-.09,0-.24-.04-.24-.31,0-.1-.02-.3-.07-.43-.07-.17-.13-.32-.79-.4-.21-.02-1.49-.05-1.83-.05v3.38c1.13,0,1.88,0,2.08-.03,.28-.02,.46-.06,.55-.16,.11-.13,.19-.21,.3-.21,.13,0,.22,.09,.22,.23,0,.03,0,.07-.02,.14-.02,.13-.06,.37-.09,.84-.03,.26-.05,.79-.05,.88,0,.1,0,.37-.24,.37-.15,0-.24-.09-.24-.24,0-.03,0-.07,0-.11,0-.1-.02-.22-.04-.33-.04-.18-.16-.37-.63-.42-.23-.02-1.41-.04-1.82-.04v1.05c0,.13,0,.33,0,.54,0,.55,0,1.23,0,1.5,.02,.82,.15,.99,1.46,.99,.33,0,.87,0,1.19-.15,.29-.14,.44-.38,.53-.89,.02-.11,.06-.3,.27-.3,.23,0,.23,.24,.23,.36,0,.31-.1,1.22-.18,1.5-.12,.44-.33,.44-.83,.44h0Z" style="fill:#231f20;"></path><path d="M125.72,141.24l-1.12-3.06-1.14,3.06h2.26Zm4.11,4.36c-.47,0-1.44,0-2.5-.03h-.06c-.23-.02-.46-.03-.46-.23s.22-.23,.3-.24h0s0-.01,.02-.04c.01-.03,.01-.06,0-.1l-1.06-2.81h-2.96s-.72,1.9-.72,1.9c-.12,.31-.19,.62-.19,.76s.03,.29,.4,.29h.2c.09,0,.32,0,.32,.23,0,.17-.12,.25-.35,.25-.21,0-.46,0-.71-.02-.24-.01-.48-.02-.69-.02-.05,0-.15,0-.29,0-.32,.01-.8,.03-1.28,.03-.1,0-.37,0-.37-.25,0-.09,.04-.23,.28-.23,.12,0,.29-.01,.39-.03,.52-.07,.75-.43,1.03-1.11l3.32-8.3c.16-.39,.26-.61,.48-.61,.21,0,.32,.21,.44,.5,.14,.32,.63,1.55,1.2,2.96,.72,1.8,1.61,4.04,2.08,5.16,.52,1.24,.9,1.33,1.08,1.37,.21,.04,.4,.05,.53,.05,.2,0,.29,.08,.29,.23,0,.25-.31,.25-.73,.25h0Z" style="fill:#231f20;"></path><path d="M136.62,145.63c-1.09,0-1.83-.03-2.49-.05-.48-.02-.9-.03-1.36-.03-.13,0-.36,0-.62,.01-.35,.01-.75,.02-1.05,.02-.34,0-.39-.16-.39-.25,0-.11,.06-.23,.34-.23,.2,0,.35-.03,.45-.05,.18-.04,.23-.24,.29-.62,.06-.55,.06-1.59,.06-2.8v-2.33c0-2.01,0-2.38-.03-2.79-.03-.43-.12-.57-.47-.64-.1-.02-.25-.04-.41-.04-.23,0-.35-.08-.35-.24,0-.24,.29-.24,.41-.24,.36,0,.78,.01,1.14,.02,.28,0,.52,.02,.67,.02,.14,0,.4,0,.7-.02,.38,0,.81-.02,1.1-.02,.11,0,.4,0,.4,.24s-.27,.24-.36,.24c-.13,0-.34,.01-.49,.04-.24,.04-.36,.15-.39,.64-.03,.42-.03,.78-.03,2.79v2.33c0,1.53,0,2.55,.23,2.75,.19,.17,.5,.26,1.52,.26,.72,0,1.17-.02,1.46-.33,.14-.15,.29-.5,.31-.72,0-.08,.03-.31,.27-.31s.23,.23,.23,.35c0,.16-.09,1.16-.2,1.55-.1,.38-.25,.45-.95,.45h0Z" style="fill:#231f20;"></path><path d="M143.23,145.59c-.53,0-1.04-.01-1.45-.03-.26,0-.48-.01-.62-.01-.13,0-.36,0-.62,.01-.35,.01-.74,.02-1.05,.02-.34,0-.39-.16-.39-.25,0-.11,.06-.23,.33-.23,.2,0,.35-.03,.45-.05,.16-.03,.25-.21,.29-.62,.06-.55,.06-1.59,.06-2.8v-5.29l-1.84,.05c-.77,.03-1.03,.1-1.19,.33-.14,.21-.19,.36-.21,.42-.04,.17-.13,.25-.26,.25-.24,0-.24-.25-.24-.33,0-.24,.26-1.46,.29-1.55,.03-.12,.08-.34,.28-.34,.06,0,.12,.03,.19,.06,.09,.04,.2,.09,.38,.1,.39,.04,.89,.07,1.31,.07h5.24c.41,0,.68-.04,.88-.06l.15-.03c.12-.03,.18-.04,.23-.04,.23,0,.23,.24,.23,.4,0,.13,0,.41-.02,.7,0,.32-.02,.66-.02,.84,0,.1-.04,.33-.24,.33-.24,0-.26-.24-.27-.38l-.02-.14c-.03-.38-.55-.61-1.44-.63l-1.54-.04v5.29c0,1.21,0,2.25,.06,2.81,.04,.38,.11,.57,.41,.61,.18,.03,.47,.05,.66,.05,.3,0,.34,.16,.34,.23,0,.06-.03,.25-.37,.25h0Z" style="fill:#231f20;"></path><path d="M157.4,145.59c-.52,0-1.03-.01-1.43-.03-.27,0-.48-.01-.63-.01-.13,0-.36,0-.62,.01-.34,.01-.74,.02-1.03,.02-.33,0-.4-.14-.4-.25,0-.11,.06-.23,.33-.23,.2,0,.35-.03,.45-.05,.17-.04,.24-.24,.29-.62,.07-.55,.07-1.59,.07-2.8v-1.12h-4.96v1.12c0,1.21,0,2.25,.06,2.81,.04,.38,.11,.57,.41,.61,.18,.03,.47,.05,.66,.05,.3,0,.34,.16,.34,.23,0,.08-.04,.25-.39,.25-.52,0-1.03-.01-1.43-.03-.26,0-.48-.01-.63-.01-.13,0-.36,0-.62,.01-.35,.01-.75,.02-1.05,.02-.34,0-.39-.16-.39-.25,0-.11,.06-.23,.33-.23,.2,0,.35-.03,.45-.05,.18-.04,.24-.24,.29-.62,.07-.55,.07-1.59,.07-2.8v-2.33c0-2.01,0-2.38-.03-2.79-.02-.43-.12-.57-.47-.64-.08-.02-.29-.04-.49-.04-.23,0-.35-.08-.35-.24,0-.24,.29-.24,.4-.24,.42,0,.88,.01,1.26,.03,.27,0,.5,.02,.64,.02s.38,0,.64-.02c.34,0,.73-.02,1.02-.02,.11,0,.4,0,.4,.24s-.27,.24-.36,.24c-.1,0-.2,.01-.36,.04-.24,.04-.36,.15-.39,.64-.03,.42-.03,.78-.03,2.79v.25h4.96v-.25c0-2.01,0-2.38-.03-2.79-.03-.43-.12-.57-.47-.64-.09-.02-.29-.04-.49-.04-.23,0-.35-.08-.35-.24,0-.24,.29-.24,.4-.24,.42,0,.88,.01,1.26,.03,.27,0,.49,.02,.64,.02,.14,0,.38,0,.64-.02,.35,0,.73-.02,1.03-.02,.11,0,.4,0,.4,.24s-.27,.24-.36,.24-.2,.01-.36,.04c-.24,.04-.36,.15-.38,.64-.03,.42-.03,.78-.03,2.79v2.33c0,1.21,0,2.25,.06,2.81,.04,.38,.11,.57,.41,.61,.18,.03,.46,.05,.66,.05,.3,0,.33,.16,.33,.23,0,.08-.04,.25-.39,.25h0Z" style="fill:#231f20;"></path><path d="M164.24,145.78c-1.99,0-3.46-.47-4.62-1.47-1.11-.98-1.68-2.32-1.68-3.99,0-.53,.12-2.36,1.59-3.71,1.07-.98,2.42-1.43,4.26-1.43,.84,0,1.35,.06,1.93,.13,.25,.03,.47,.08,.68,.12,.22,.04,.44,.09,.63,.11,.29,.03,.31,.22,.31,.28,0,.04,0,.1-.02,.18-.02,.11-.03,.28-.05,.55-.01,.21-.01,.49-.02,.75,0,.28,0,.54-.02,.68,0,.14-.03,.42-.28,.42s-.26-.3-.26-.41c-.01-.41-.19-.83-.48-1.13-.37-.39-1.31-.78-2.59-.78-1.06,0-1.8,.24-2.4,.79-.8,.74-1.17,1.79-1.17,3.33,0,3.13,2.41,4.58,4.04,4.58,1.11,0,1.82-.11,2.33-.7,.21-.23,.37-.59,.42-.82,.03-.17,.07-.36,.29-.36,.06,0,.24,.02,.24,.32,0,.18-.16,1.34-.29,1.79-.08,.27-.16,.36-.42,.46-.58,.23-1.63,.31-2.43,.31h0Z" style="fill:#231f20;"></path><path d="M173.44,141.24l-1.12-3.06-1.14,3.06h2.26Zm4.12,4.36c-.47,0-1.44,0-2.5-.03h-.06c-.23-.02-.46-.03-.46-.23s.22-.23,.29-.24h0s.01-.01,.02-.04c.02-.03,.01-.06,0-.1l-1.06-2.81h-2.96s-.72,1.9-.72,1.9c-.12,.31-.19,.62-.19,.76s.03,.29,.4,.29h.2c.1,0,.32,0,.32,.23,0,.17-.12,.25-.35,.25-.22,0-.47,0-.72-.02-.24-.01-.48-.02-.68-.02-.04,0-.15,0-.29,0-.32,.01-.8,.03-1.27,.03-.1,0-.37,0-.37-.25,0-.09,.04-.23,.28-.23,.12,0,.3-.01,.39-.03,.52-.07,.75-.43,1.02-1.11l3.32-8.3c.16-.39,.26-.61,.48-.61,.21,0,.32,.21,.44,.5,.14,.32,.63,1.55,1.2,2.96,.72,1.8,1.61,4.04,2.09,5.16,.52,1.24,.9,1.33,1.08,1.37,.2,.04,.4,.05,.52,.05,.2,0,.3,.08,.3,.23,0,.25-.31,.25-.73,.25h0Z" style="fill:#231f20;"></path><path d="M182.08,136.22c-.22,0-.52,0-.67,.05-.03,0-.03,.02-.03,.07v4.02c0,.11,0,.11,.04,.12,.22,.08,.59,.12,.96,.12,.51,0,.65-.05,.87-.2,.27-.2,.73-.71,.73-1.88,0-1.81-1.2-2.3-1.9-2.3h0Zm5.21,9.37c-.74,0-1.1-.07-1.47-.27-.57-.31-1.07-.91-1.85-1.98-.22-.31-.46-.65-.68-.95-.29-.41-.53-.76-.63-.87-.03-.04-.06-.05-.14-.05l-1.13-.03v.17c0,1.21,0,2.27,.06,2.81,.04,.39,.11,.58,.41,.62,.19,.03,.48,.05,.63,.05,.21,0,.28,.12,.28,.23,0,.1-.05,.25-.39,.25-.51,0-1.12-.02-1.52-.03-.2,0-.36,0-.42,0-.1,0-.3,0-.53,.01-.34,.01-.77,.03-1.08,.03-.34,0-.39-.16-.39-.25,0-.11,.06-.23,.34-.23,.2,0,.35-.03,.45-.05,.17-.04,.24-.24,.29-.62,.06-.55,.06-1.59,.06-2.8v-2.33c0-2.01,0-2.38-.03-2.79-.03-.43-.12-.57-.47-.64-.09-.02-.29-.04-.49-.04-.23,0-.35-.08-.35-.24,0-.24,.29-.24,.41-.24,.43,0,.91,.02,1.29,.03,.23,0,.42,.01,.53,.01,.23,0,.6-.01,.97-.02,.35-.01,.7-.02,.9-.02,.81,0,1.74,.07,2.5,.59,.46,.31,.95,1.04,.95,1.91,0,1.1-.51,1.99-1.7,2.98l.38,.48c.96,1.22,1.73,2.19,2.4,2.89,.7,.72,1.21,.82,1.4,.86,.15,.03,.26,.04,.36,.04,.21,0,.28,.12,.28,.23,0,.25-.28,.25-.37,.25h-1.26Z" style="fill:#231f20;"></path><path d="M194.56,145.63c-1.23,0-2.03-.03-2.66-.05-.39-.02-.7-.03-1-.03-.13,0-.36,0-.62,.01-.34,.01-.74,.02-1.05,.02-.33,0-.38-.16-.38-.25,0-.11,.06-.23,.33-.23,.2,0,.35-.03,.45-.05,.18-.04,.23-.24,.29-.62,.06-.55,.06-1.59,.06-2.8v-2.33c0-2.01,0-2.38-.03-2.79-.02-.43-.12-.57-.47-.64-.08-.02-.29-.04-.49-.04-.23,0-.35-.08-.35-.24,0-.24,.29-.24,.41-.24,.41,0,.86,.01,1.24,.03,.27,0,.51,.02,.66,.02,.92,0,3.07,0,3.3-.01,.18-.02,.43-.05,.54-.08,.03,0,.05-.01,.07-.02,.05-.02,.11-.04,.17-.04,.05,0,.2,.02,.2,.24,0,.04,0,.08-.02,.15-.02,.12-.06,.32-.09,.72,0,.05-.01,.15-.02,.27-.01,.24-.03,.5-.05,.61-.04,.22-.18,.25-.25,.25-.09,0-.24-.04-.24-.31,0-.1-.02-.3-.07-.43-.07-.17-.13-.32-.79-.4-.21-.02-1.49-.05-1.83-.05v3.38c1.13,0,1.88,0,2.08-.03,.28-.02,.46-.06,.55-.16,.11-.13,.18-.21,.3-.21,.13,0,.22,.09,.22,.23,0,.03,0,.07-.02,.14-.02,.13-.06,.37-.09,.84-.03,.26-.05,.79-.05,.88,0,.1,0,.37-.24,.37-.15,0-.24-.09-.24-.24,0-.03,0-.07,0-.11,0-.1-.02-.22-.04-.33-.04-.18-.16-.37-.63-.42-.23-.02-1.41-.04-1.82-.04v1.05c0,.13,0,.33,0,.54,0,.55,0,1.23,0,1.5,.02,.82,.15,.99,1.46,.99,.33,0,.87,0,1.19-.15,.29-.14,.44-.38,.53-.89,.02-.11,.06-.3,.27-.3,.23,0,.23,.24,.23,.36,0,.31-.1,1.22-.17,1.5-.12,.44-.33,.44-.83,.44h0Z" style="fill:#231f20;"></path></svg> 