<?xml version="1.0" encoding="UTF-8"?><svg id="a" xmlns="http://www.w3.org/2000/svg" width="5.25in" height="1.15in" viewBox="0 0 378.34 82.94"><g><g><g><path d="M10.78,56.14h9.01c3.54,0,6.42,2.87,6.42,6.42v9.01c0,5.54,4.5,10.79,10.04,10.78,.34,0,.61-.29,.61-.63v-22.54c0-7.56-6.13-13.69-13.69-13.69H.63c-.34,0-.63,.27-.63,.61-.01,5.54,5.24,10.04,10.78,10.04Z" fill="#e05929"/><path d="M10.78,27.55h9.01c3.54,0,6.42-2.87,6.42-6.42V12.12c0-5.54,4.5-10.79,10.04-10.78,.34,0,.61,.29,.61,.63V24.51c0,7.56-6.13,13.69-13.69,13.69H.63c-.34,0-.63-.27-.63-.61-.01-5.54,5.24-10.04,10.78-10.04Z" fill="#e05929"/><path d="M70.22,56.14h-9.01c-3.54,0-6.42,2.87-6.42,6.42v9.01c0,5.54-4.5,10.79-10.04,10.78-.34,0-.61-.29-.61-.63v-22.54c0-7.56,6.13-13.69,13.69-13.69h22.54c.34,0,.63,.27,.63,.61,.01,5.54-5.24,10.04-10.78,10.04Z" fill="#e05929"/><path d="M70.22,27.55h-9.01c-3.54,0-6.42-2.87-6.42-6.42V12.12c0-5.54-4.5-10.79-10.04-10.78-.34,0-.61,.29-.61,.63V24.51c0,7.56,6.13,13.69,13.69,13.69h22.54c.34,0,.63-.27,.63-.61,.01-5.54-5.24-10.04-10.78-10.04Z" fill="#e05929"/></g><path d="M42.09,35.22c1.34,2.02,3.02,3.7,5.04,5.04,1.56,1,1.56,2.17,0,3.17-2.02,1.34-3.7,3.02-5.04,5.04-1,1.56-2.17,1.56-3.17,0-1.34-2.02-3.02-3.7-5.04-5.04-1.56-1-1.56-2.17,0-3.17,2.02-1.34,3.7-3.02,5.04-5.04,1.01-1.56,2.17-1.56,3.17,0Z" fill="#e05929"/></g><g><g><g><path d="M106.51,15.85h15.77c.18,0,.33-.15,.33-.33V2.03c0-.38,.31-.69,.69-.69h5.8c.38,0,.69,.31,.69,.69V36.66c0,.38-.31,.69-.69,.69h-5.8c-.38,0-.69-.31-.69-.69v-13.8c0-.18-.15-.33-.33-.33h-15.77c-.18,0-.33,.15-.33,.33v13.8c0,.38-.31,.69-.69,.69h-5.8c-.38,0-.69-.31-.69-.69V2.03c0-.38,.31-.69,.69-.69h5.85c.35,0,.64,.29,.64,.64V15.52c0,.18,.15,.33,.33,.33Z" fill="#fff"/><path d="M167.55,11.49l-4.82,2.62c-.29,.18-.67,.11-.87-.17s-.73-1.24-2.08-2.87c-1.92-2.33-4.74-3.51-8.04-3.51-6.34,0-11.02,4.78-11.02,11.78,.02,7.23,4.86,11.78,11.02,11.78,3.1,0,5.69-1.19,7.73-3.22,.86-.86,1.91-2.55,2.27-3.08,.2-.3,.62-.35,.9-.13l5.07,2.41c.3,.22,.34,.63,.15,.95-.24,.39-1.43,2.65-2.49,3.89-3.19,3.75-7.94,6.07-13.59,6.07-10.75,0-18.33-7.84-18.33-18.67S141.04,.68,151.79,.68c5.88,0,11.05,2.53,14.06,6.82,1.5,2.13,1.76,2.82,1.89,3.04,.2,.32,.11,.75-.21,.95Z" fill="#fff"/><path d="M204.46,36.48L190.93,1.75c-.09-.24-.33-.4-.59-.4h-7.88c-.26,0-.49,.16-.59,.4l-13.52,34.74c-.16,.41,.14,.86,.59,.86h6.12c.26,0,.5-.16,.59-.41l2.9-7.76c.05-.13,.17-.22,.31-.22h5.45c3.26-.17,5.47-2.9,5.46-6.23,0-.21-.18-.38-.39-.38h-7.81c-.23,0-.39-.23-.31-.45l4.74-12.63c.11-.29,.52-.29,.62,0l10.33,27.66c.09,.25,.33,.41,.59,.41h6.3c.44,0,.75-.45,.59-.86Z" fill="#fff"/></g><g><path d="M225.3,8v8.2h18.05v6.61h-18.05v14.58h-7.17V1.39h26.43V8h-19.26Z" fill="#fff"/><path d="M249.03,.36h6.71V37.38h-6.71V.36Z" fill="#fff"/><path d="M260.6,24.91c0-7.51,5.71-13.11,13.45-13.11s13.5,5.61,13.5,13.11-5.73,13.11-13.5,13.11-13.45-5.61-13.45-13.11Zm20.08,0c0-4.04-2.85-6.87-6.63-6.87s-6.61,2.83-6.61,6.87,2.83,6.86,6.61,6.86,6.63-2.83,6.63-6.86Z" fill="#fff"/><path d="M309.42,12.34l-1,6.66c-1.11-.49-2.7-.8-4.06-.8-3.19,0-5.25,1.98-5.25,5.61v13.58h-6.71V12.47h6.5v2.7c1.57-2.31,3.99-3.37,7.02-3.37,1.44,0,2.57,.21,3.5,.54Z" fill="#fff"/><path d="M312.11,4.32c0-2.42,1.85-4.32,4.27-4.32s4.29,1.9,4.29,4.32-1.88,4.27-4.29,4.27-4.27-1.85-4.27-4.27Zm7.64,33.06h-6.71V12.47h6.71v24.91Z" fill="#fff"/><path d="M350.57,.36V37.38h-6.56v-2.75c-1.62,2-4.04,3.39-7.46,3.39-6.87,0-12.06-5.63-12.06-13.11s5.19-13.11,12.06-13.11c3.34,0,5.71,1.31,7.33,3.24V.36h6.69Zm-6.35,24.55c0-3.93-2.6-6.87-6.43-6.87s-6.43,3.06-6.43,6.87,2.49,6.86,6.43,6.86,6.43-2.93,6.43-6.86Z" fill="#fff"/><path d="M378.34,22.7v14.68h-6.5v-2.55c-1.47,1.7-3.86,3.19-7.58,3.19-5.53,0-8.82-3.19-8.82-7.84,0-4.91,3.73-7.82,10.31-7.82h5.84c-.26-3.01-2.06-4.65-5.55-4.65-2.8,0-5.09,1.13-6.81,2.34l-2.62-5.12c2.67-1.98,6.12-3.14,10.18-3.14,7.07,0,11.57,3.68,11.57,10.9Zm-6.61,5.27v-1.08h-5.12c-3.11,0-4.22,1.31-4.22,2.88s1.11,2.7,3.57,2.7c2.67,0,5.76-1.34,5.76-4.5Z" fill="#fff"/></g></g><g><path d="M118.56,82.34v-1.6c1.72-.15,2.73-.29,3.05-.42,.32-.13,.58-.36,.8-.69,.21-.33,.32-.81,.32-1.47v-11.23h-14.76v10.95c0,.9,.27,1.57,.82,2.01,.55,.44,1.63,.72,3.26,.85v1.6h-13.05v-1.6c2.03-.09,3.24-.36,3.64-.82,.4-.46,.6-1.04,.6-1.75v-22.73c0-1.78-1.41-2.78-4.24-3.02v-1.58h13.05v1.58c-1.55,.13-2.62,.37-3.21,.71-.59,.34-.88,1.03-.88,2.06v9.79h14.76v-9.55c0-1.78-1.39-2.78-4.17-3.02v-1.58h13.05v1.58c-1.57,.13-2.65,.38-3.25,.73s-.9,1.04-.9,2.04v22.69c0,.93,.3,1.61,.9,2.03,.6,.42,1.68,.7,3.25,.83v1.6h-13.05Z" fill="#fff"/><path d="M150.33,77.22c-2.04,3.82-5.04,5.73-8.99,5.73-3.29,0-5.85-1.08-7.69-3.23-1.84-2.15-2.76-4.99-2.76-8.51,0-3.11,.94-5.78,2.81-8.01,1.87-2.23,4.27-3.35,7.18-3.35s5.1,.84,6.63,2.52c1.53,1.68,2.3,3.98,2.3,6.89v1.47h-14.52c0,3.11,.63,5.51,1.9,7.22,1.27,1.7,3.07,2.55,5.43,2.55,1.3,0,2.42-.29,3.34-.87,.92-.58,1.88-1.69,2.85-3.35l1.53,.95Zm-4.91-8.37c0-4.88-1.53-7.33-4.6-7.33-1.54,0-2.83,.65-3.86,1.95-1.04,1.3-1.6,3.09-1.69,5.37h10.15Z" fill="#fff"/><path d="M172.62,81.94c-1.54,.56-2.74,.84-3.6,.84-2.32,0-3.69-1.06-4.11-3.17h-.13c-1.97,2.19-4.33,3.29-7.08,3.29-1.64,0-2.99-.5-4.05-1.5-1.06-1-1.59-2.32-1.59-3.96,0-1.83,.5-3.24,1.51-4.21,1.01-.97,2.74-1.86,5.2-2.68,3.51-1.15,5.53-1.89,6.06-2.22v-2.18c0-1.27-.35-2.37-1.05-3.3-.7-.92-1.74-1.39-3.12-1.39s-2.46,.35-3.13,1.04c0,.37,.07,.81,.2,1.31,.13,.5,.2,1.04,.2,1.6s-.26,1.06-.77,1.45c-.51,.39-1.14,.59-1.88,.59-1.42,0-2.13-.84-2.13-2.53,0-1.32,.83-2.5,2.49-3.54,1.66-1.04,3.42-1.57,5.28-1.57,3.03,0,5.14,.6,6.33,1.79,1.18,1.19,1.78,3.01,1.78,5.45l-.13,10.95c0,.8,.19,1.39,.57,1.78,.38,.39,.72,.6,1.02,.65,.3,.05,1.02,.08,2.14,.08v1.42Zm-7.75-11.74c-3.23,.95-5.43,1.92-6.59,2.93-1.17,1.01-1.75,2.26-1.75,3.75,0,2.37,1.13,3.55,3.4,3.55,1.75,0,3.35-.85,4.82-2.55l.13-7.68Z" fill="#fff"/><path d="M173.9,82.34v-1.47l1.11-.11c1.45-.09,2.18-.81,2.18-2.15v-22.94c0-.7-.23-1.38-.7-2.06-.47-.68-1.71-1.1-3.72-1.24v-1.47l8.24-.49,.31,.31v27.62c0,1.51,1.1,2.35,3.29,2.53v1.47h-10.7Z" fill="#fff"/><path d="M199.33,81.39c-2.13,.93-4.1,1.4-5.91,1.4-3.35,0-5.02-1.75-5.02-5.26v-14.87h-3.95v-2.09h4.06v-6.82h4.04v6.82h6.26v2.09h-6.22v12.23c0,2.03,.23,3.41,.69,4.14,.46,.73,1.41,1.1,2.86,1.1,1.26,0,2.32-.13,3.17-.38v1.64Z" fill="#fff"/><path d="M214.79,82.34v-1.47c.41-.04,.8-.08,1.15-.11,1.48-.09,2.22-.81,2.22-2.15v-11.28c0-1.47-.35-2.64-1.05-3.53-.7-.89-1.61-1.33-2.72-1.33-2.53,0-4.43,1.11-5.68,3.33v12.59c0,1.5,1.12,2.32,3.37,2.49v1.47h-10.75v-1.47l1.09-.11c1.44-.1,2.15-.82,2.15-2.15v-23.07c0-.58-.14-1.14-.43-1.7s-.65-.91-1.1-1.08c-.44-.16-1.36-.3-2.75-.4v-1.47l8.1-.49,.31,.31v12.84h.09c1.61-1.63,2.95-2.66,4.02-3.09,1.07-.43,2.21-.64,3.44-.64,4.05,0,6.08,2.41,6.08,7.24v11.37c0,1.47,1.07,2.28,3.2,2.44v1.47h-10.75Z" fill="#fff"/><path d="M244.73,77.26c-.93,1.69-2.2,3.06-3.81,4.11-1.61,1.05-3.28,1.58-5.03,1.58-3.17,0-5.65-1.05-7.44-3.16-1.79-2.11-2.69-4.94-2.69-8.49,0-3.14,.98-5.83,2.94-8.08,1.96-2.25,4.45-3.37,7.47-3.37,2.23,0,4,.53,5.31,1.59,1.3,1.06,1.95,2.44,1.95,4.14,0,1.88-.75,2.82-2.26,2.82-.86,0-1.54-.21-2.03-.64-.5-.43-.74-.92-.74-1.49,0-.59,.09-1.26,.27-2,.18-.75,.29-1.29,.33-1.6-.43-.75-1.4-1.13-2.91-1.13-1.67,0-3.05,.83-4.12,2.48-1.07,1.65-1.61,4.02-1.61,7.12,0,2.8,.62,5.06,1.85,6.78,1.24,1.72,2.83,2.59,4.78,2.59,2.53,0,4.62-1.39,6.26-4.17l1.47,.95Z" fill="#fff"/><path d="M266.51,81.94c-1.54,.56-2.74,.84-3.6,.84-2.32,0-3.69-1.06-4.11-3.17h-.13c-1.97,2.19-4.33,3.29-7.08,3.29-1.64,0-2.99-.5-4.05-1.5-1.06-1-1.59-2.32-1.59-3.96,0-1.83,.5-3.24,1.51-4.21,1.01-.97,2.74-1.86,5.2-2.68,3.51-1.15,5.53-1.89,6.06-2.22v-2.18c0-1.27-.35-2.37-1.05-3.3-.7-.92-1.74-1.39-3.12-1.39s-2.46,.35-3.13,1.04c0,.37,.07,.81,.2,1.31,.13,.5,.2,1.04,.2,1.6s-.26,1.06-.77,1.45c-.51,.39-1.14,.59-1.88,.59-1.42,0-2.13-.84-2.13-2.53,0-1.32,.83-2.5,2.49-3.54,1.66-1.04,3.42-1.57,5.28-1.57,3.03,0,5.14,.6,6.33,1.79,1.18,1.19,1.78,3.01,1.78,5.45l-.13,10.95c0,.8,.19,1.39,.57,1.78,.38,.39,.72,.6,1.02,.65,.3,.05,1.02,.08,2.14,.08v1.42Zm-7.75-11.74c-3.23,.95-5.43,1.92-6.59,2.93-1.17,1.01-1.75,2.26-1.75,3.75,0,2.37,1.13,3.55,3.4,3.55,1.75,0,3.35-.85,4.82-2.55l.13-7.68Z" fill="#fff"/><path d="M280.24,62.43c-1.95,.1-3.57,1.18-4.84,3.22v12.74c0,.8,.26,1.38,.77,1.75,.51,.37,1.65,.61,3.43,.73v1.47h-11.54v-1.47l1.07-.11c1.44-.1,2.15-.82,2.15-2.15v-13.5c0-1.92-1.15-2.92-3.46-3v-1.47l7.28-.44,.31,.31v3.04h.11c1.91-2.43,3.95-3.64,6.13-3.64,.93,0,1.69,.3,2.29,.9,.59,.6,.89,1.42,.89,2.48,0,.84-.2,1.53-.61,2.06-.41,.53-.96,.8-1.65,.8-.77,0-1.39-.2-1.85-.59-.47-.39-.7-.88-.7-1.45,0-.44,.08-1.01,.24-1.69Z" fill="#fff"/><path d="M304.38,77.22c-2.04,3.82-5.04,5.73-8.99,5.73-3.29,0-5.85-1.08-7.69-3.23s-2.76-4.99-2.76-8.51c0-3.11,.94-5.78,2.81-8.01,1.87-2.23,4.27-3.35,7.18-3.35s5.1,.84,6.63,2.52c1.53,1.68,2.3,3.98,2.3,6.89v1.47h-14.52c0,3.11,.63,5.51,1.9,7.22,1.27,1.7,3.07,2.55,5.43,2.55,1.3,0,2.42-.29,3.34-.87,.92-.58,1.88-1.69,2.85-3.35l1.53,.95Zm-4.91-8.37c0-4.88-1.53-7.33-4.6-7.33-1.54,0-2.83,.65-3.86,1.95-1.04,1.3-1.6,3.09-1.69,5.37h10.15Z" fill="#fff"/></g></g></g><path d="M315,56.61c0,2.74-2.15,4.89-4.95,4.89s-4.98-2.15-4.98-4.89,2.21-4.83,4.98-4.83,4.95,2.15,4.95,4.83Zm-8.69,0c0,2.15,1.59,3.86,3.77,3.86s3.68-1.71,3.68-3.83-1.56-3.89-3.71-3.89-3.74,1.74-3.74,3.86Zm2.97,2.53h-1.12v-4.83c.44-.09,1.06-.15,1.85-.15,.91,0,1.33,.15,1.68,.35,.26,.21,.47,.59,.47,1.06,0,.53-.41,.94-1,1.12v.06c.47,.18,.74,.53,.88,1.18,.15,.74,.24,1.03,.35,1.21h-1.21c-.15-.18-.24-.62-.38-1.18-.09-.53-.38-.77-1-.77h-.53v1.94Zm.03-2.74h.53c.62,0,1.12-.21,1.12-.71,0-.44-.32-.74-1.03-.74-.29,0-.5,.03-.62,.06v1.38Z" fill="#fff"/></svg>