<?xml version="1.0" encoding="utf-8"?>
<!-- Generator: Adobe Illustrator 22.1.0, SVG Export Plug-In . SVG Version: 6.00 Build 0)  -->
<svg version="1.1" id="Layer_1" xmlns="http://www.w3.org/2000/svg" xmlns:xlink="http://www.w3.org/1999/xlink" x="0px" y="0px"
	 viewBox="0 0 317.7 141.9" style="enable-background:new 0 0 317.7 141.9;" xml:space="preserve">
<style type="text/css">
	.st0{fill:none;}
	.st1{fill:#FFFFFF;}
	.st2{fill:#58595B;}
	.st3{fill:#F0534A;}
</style>
<g>
	<rect x="0" y="426" class="st0" width="317.7" height="141.9"/>
	<g>
		<path class="st1" d="M27.8,483.9h3.9c0.4,0,0.7,0.3,0.7,0.7v16.2c0,1.3-0.1,2.4-0.1,2.4h0.1c1.2-2.7,4.8-6.3,10.5-6.3
			c6.7,0,9.7,3.6,9.7,10.9v17.4c0,0.4-0.3,0.7-0.7,0.7H48c-0.4,0-0.7-0.3-0.7-0.7v-16.2c0-4-0.8-7.1-5.4-7.1c-4.3,0-7.8,2.9-9,7
			c-0.3,1.1-0.4,2.4-0.4,3.8v12.5c0,0.4-0.3,0.7-0.7,0.7h-3.9c-0.4,0-0.7-0.3-0.7-0.7v-40.5C27,484.2,27.4,483.9,27.8,483.9z"/>
		<path class="st1" d="M71.3,496.8c8,0,12.3,5.9,12.3,13.3c0,0.4,0,1-0.1,1.5c0,0.5-0.5,0.9-1,0.9H62.8c0.3,6.2,4.7,9.4,9.7,9.4
			c3.5,0,6.3-1.7,7.6-2.7c0.4-0.3,1-0.2,1.3,0.3l1.3,2.3c0.3,0.5,0.1,1.1-0.3,1.4c-1.5,1.1-5.1,3.4-10.3,3.4c-8.9,0-15-6.4-15-14.8
			C57.2,502.7,63.3,496.8,71.3,496.8z M78.1,508.4c-0.2-4.9-3.2-7.2-6.8-7.2c-4.1,0-7.5,2.6-8.3,7.2H78.1z"/>
		<path class="st1" d="M103.3,508.1h1.2v-0.5c0-4.6-2.6-6.2-6.2-6.2c-3.3,0-6.1,1.5-7.3,2.3c-0.3,0.2-0.8,0.1-1-0.2l-1.6-2.8
			c-0.2-0.3-0.1-0.7,0.2-0.9c1.3-0.9,4.9-3,10.1-3c6.2,0,11.2,5.1,11.2,11.3l0,17c0,0.4-0.3,0.7-0.7,0.7h-3.5
			c-0.4,0-0.7-0.3-0.7-0.7v-1.9c0-1.3,0.1-2.2,0.1-2.2h-0.1c0,0-2.3,5.6-9.1,5.6c-4.9,0-9.6-3-9.6-8.6
			C86.2,508.5,98.6,508.1,103.3,508.1z M97,522.1c4.6,0,7.6-4.8,7.6-9v-0.9h-1.4c-4.1,0-11.5,0.3-11.5,5.4
			C91.7,519.9,93.5,522.1,97,522.1z"/>
		<path class="st1" d="M121.5,517.2v-26.1c0-0.4-0.4-0.7-0.8-0.6l-3.8,0.8c-0.5,0.1-0.9,0.6-0.9,1.1v25.8c0,7.1,4.5,8,7.6,8
			c0.4,0,0.7,0,1,0c0.4,0,0.7-0.4,0.7-0.8c0,0,0-3.4,0-3.7s-0.1-0.3-0.3-0.3c-0.2,0-0.4,0-0.7,0
			C122.9,521.2,121.5,520.6,121.5,517.2z"/>
		<path class="st1" d="M136.2,514.9v-12.6h6.1c0.4,0,0.7-0.3,0.7-0.7v-2.9c0-0.4-0.3-0.7-0.7-0.7h-6.1v-10c0-0.4-0.4-0.7-0.8-0.6
			l-3.6,0.8c-0.5,0.1-0.9,0.6-0.9,1.1v8.8h-3.1c-0.4,0-0.7,0.3-0.7,0.7v2.9c0,0.4,0.3,0.7,0.7,0.7h3v13.2c0,9.5,7.2,10.6,10.9,10.6
			c0.5,0,0.9,0,1.2,0c0.4,0,0.7-0.4,0.7-0.8v-3.7c0-0.4-0.1-0.4-0.4-0.4c-0.2,0-0.5,0.1-0.9,0.1
			C140.2,521.3,136.2,520.5,136.2,514.9z"/>
		<path class="st1" d="M163.9,496.8c-5.7,0-9.2,3.6-10.5,6.3h-0.1c0,0,0.1-1,0.1-2.4v-16.7c0-0.4-0.4-0.7-0.8-0.6l-3.8,0.8
			c-0.5,0.1-0.9,0.6-0.9,1.1v39.7c0,0.4,0.3,0.7,0.7,0.7h3.9c0.4,0,0.7-0.3,0.7-0.7v-12.5c0-1.3,0.1-2.6,0.4-3.8c1.2-4.1,4.7-7,9-7
			c4.5,0,5.4,3.1,5.4,7.1v16.2c0,0.4,0.3,0.7,0.7,0.7h3.9c0.4,0,0.7-0.3,0.7-0.7v-17.4C173.6,500.5,170.5,496.8,163.9,496.8z"/>
		<path class="st1" d="M177.7,497.3h5.9c0.5,0,0.9,0.3,1,0.8l4.8,18c0.4,1.5,0.6,3,0.6,3h0.1c0,0,0.3-1.5,0.7-3l5-17.9
			c0.1-0.5,0.5-0.8,1-0.8h4.7c0.5,0,0.9,0.3,1,0.8l5,17.9c0.4,1.5,0.6,3,0.6,3h0.1c0,0,0.2-1.5,0.6-3l4.8-18c0.1-0.5,0.5-0.8,1-0.8
			h5.8c0.4,0,0.7,0.4,0.6,0.8l-8.3,27.2c-0.1,0.4-0.5,0.6-0.8,0.6h-6.6c-0.4,0-0.7-0.3-0.9-0.6l-4.6-15.7c-0.4-1.5-0.7-3.1-0.7-3.1
			h-0.1c0,0-0.2,1.6-0.7,3.1l-4.6,15.7c-0.1,0.4-0.5,0.6-0.9,0.6h-6.6c-0.4,0-0.7-0.3-0.8-0.6l-8.3-27.2
			C177,497.7,177.3,497.3,177.7,497.3z"/>
		<path class="st1" d="M226.8,497.3h5.6c0.4,0,0.7,0.3,0.7,0.7v27.1c0,0.4-0.3,0.7-0.7,0.7h-5.6c-0.4,0-0.7-0.3-0.7-0.7V498
			C226,497.6,226.4,497.3,226.8,497.3z"/>
		<path class="st1" d="M240.9,518c0.2-0.3,0.7-0.4,1-0.2c1.1,0.9,3.7,2.6,7.2,2.6c2,0,3.8-0.9,3.8-2.6c0-4.3-13.9-3.7-13.9-12.9
			c0-5.3,4.8-8.4,10.9-8.4c4.6,0,7.5,1.7,8.8,2.6c0.5,0.3,0.6,1,0.3,1.5l-1.8,3.7c-0.2,0.4-0.6,0.5-1,0.3c-1-0.7-3.3-2-6.4-2
			c-1.8,0-3.6,0.8-3.6,2.6c0,4,13.9,3.5,13.9,12.7c0,4.8-4.1,8.6-10.9,8.6c-5.3,0-8.8-2.3-10.3-3.5c-0.5-0.4-0.6-1-0.3-1.6
			L240.9,518z"/>
		<path class="st1" d="M277.1,496.6c8.2,0,12.7,6,12.7,13.6c0,0.6-0.1,1.6-0.1,2.2c0,0.3-0.3,0.6-0.6,0.6h-19.2
			c0.4,5,4.3,7.6,8.6,7.6c3.4,0,6.3-1.8,7.6-2.6c0.4-0.3,0.9-0.1,1.1,0.3l1.9,3.5c0.3,0.5,0.1,1.1-0.3,1.4
			c-1.5,1.1-5.3,3.5-10.7,3.5c-9.5,0-15.3-6.8-15.3-15C262.6,502.8,268.6,496.6,277.1,496.6z M282.6,508c-0.1-3.9-2.5-5.9-5.7-5.9
			c-3.6,0-6.2,2.2-6.8,5.9H282.6z"/>
		<g>
			<path class="st1" d="M291.5,488.4c2.5,0,4.5,2,4.5,4.6c0,2.6-2,4.6-4.5,4.6c-2.5,0-4.5-2-4.5-4.6
				C287.1,490.5,289.1,488.4,291.5,488.4z M291.5,496.8c2,0,3.6-1.6,3.6-3.7c0-2.1-1.6-3.7-3.6-3.7c-2,0-3.5,1.6-3.5,3.7
				C288,495.1,289.5,496.8,291.5,496.8z M290,491.1c0-0.3,0.1-0.4,0.4-0.4h1.4c0.9,0,1.5,0.6,1.5,1.4c0,0.7-0.5,1.2-0.9,1.3v0
				c0,0,0,0,0.2,0.3l0.7,1.3c0.2,0.3,0.1,0.5-0.2,0.5h-0.2c-0.2,0-0.4-0.1-0.5-0.3l-0.7-1.5h-0.8v1.4c0,0.3-0.1,0.4-0.4,0.4h-0.1
				c-0.3,0-0.4-0.1-0.4-0.4V491.1z M291.6,492.9c0.5,0,0.8-0.3,0.8-0.8c0-0.5-0.3-0.8-0.8-0.8h-0.8v1.6H291.6z"/>
		</g>
	</g>
	<g>
		<path class="st1" d="M57.1,538.1h-0.8c-0.3,0-0.5-0.2-0.5-0.5v-0.2c0-0.3,0.2-0.5,0.5-0.5h0.8v-0.4c0-3.1,2.3-3.6,3.2-3.6h0.2
			c0.3,0,0.5,0.2,0.5,0.5v0.2c0,0.3-0.2,0.4-0.5,0.5c-0.8,0-2.1,0.3-2.1,2.4v0.4h2c0.3,0,0.5,0.2,0.5,0.5v0.2c0,0.3-0.2,0.5-0.5,0.5
			h-2v8c0,0.3-0.2,0.5-0.5,0.5h-0.4c-0.3,0-0.5-0.2-0.5-0.5V538.1z"/>
		<path class="st1" d="M66.6,536.7c2.8,0,5.1,2.1,5.1,5c0,2.9-2.3,5.1-5.1,5.1c-2.8,0-5.1-2.2-5.1-5.1
			C61.5,538.9,63.8,536.7,66.6,536.7z M66.6,545.6c2.1,0,3.7-1.7,3.7-3.9c0-2.2-1.7-3.8-3.7-3.8c-2.1,0-3.8,1.7-3.8,3.8
			C62.9,544,64.6,545.6,66.6,545.6z"/>
		<path class="st1" d="M73.5,537.4c0-0.3,0.2-0.5,0.5-0.5h0.3c0.3,0,0.5,0.2,0.5,0.5v1.3c0,0.4-0.1,0.8-0.1,0.8h0
			c0.5-1.4,1.6-2.6,3.1-2.6c0.3,0,0.5,0.2,0.5,0.5v0.3c0,0.3-0.2,0.5-0.5,0.5c-2,0-3,2.3-3,4.3v3.6c0,0.3-0.2,0.5-0.5,0.5H74
			c-0.3,0-0.5-0.2-0.5-0.5V537.4z"/>
		<path class="st1" d="M89.4,536.7c2.6,0,4,1.9,4,4.6c0,0.3-0.2,0.5-0.5,0.5H86c0.1,2.5,1.7,3.9,3.7,3.9c1.2,0,2.1-0.5,2.5-0.9
			c0.3-0.2,0.5-0.1,0.6,0.1l0.2,0.2c0.1,0.2,0.1,0.5-0.1,0.6c-0.5,0.4-1.7,1.1-3.2,1.1c-2.9,0-5-2.1-5-5
			C84.7,538.6,86.8,536.7,89.4,536.7z M92.1,540.8c-0.1-2-1.3-3-2.7-3c-1.6,0-3,1.1-3.3,3H92.1z"/>
		<path class="st1" d="M94.7,537.5c-0.1-0.3,0-0.6,0.4-0.6h0.4c0.2,0,0.4,0.1,0.5,0.4l2.6,6.7c0.2,0.5,0.3,1.2,0.3,1.2h0
			c0,0,0.2-0.7,0.3-1.2l2.5-6.7c0.1-0.3,0.3-0.4,0.5-0.4h0.4c0.4,0,0.5,0.2,0.4,0.6l-3.4,8.7c-0.1,0.2-0.3,0.4-0.5,0.4h-0.6
			c-0.3,0-0.4-0.1-0.5-0.4L94.7,537.5z"/>
		<path class="st1" d="M109,536.7c2.6,0,4,1.9,4,4.6c0,0.3-0.2,0.5-0.5,0.5h-6.9c0.1,2.5,1.7,3.9,3.7,3.9c1.2,0,2.1-0.5,2.5-0.9
			c0.3-0.2,0.5-0.1,0.6,0.1l0.2,0.2c0.1,0.2,0.1,0.5-0.1,0.6c-0.5,0.4-1.7,1.1-3.2,1.1c-2.9,0-5-2.1-5-5
			C104.2,538.6,106.4,536.7,109,536.7z M111.7,540.8c-0.1-2-1.3-3-2.7-3c-1.6,0-3,1.1-3.3,3H111.7z"/>
		<path class="st1" d="M115.5,537.4c0-0.3,0.2-0.5,0.5-0.5h0.3c0.3,0,0.5,0.2,0.5,0.5v1.3c0,0.4-0.1,0.8-0.1,0.8h0
			c0.5-1.4,1.6-2.6,3.1-2.6c0.3,0,0.5,0.2,0.5,0.5v0.3c0,0.3-0.2,0.5-0.5,0.5c-2,0-3,2.3-3,4.3v3.6c0,0.3-0.2,0.5-0.5,0.5H116
			c-0.3,0-0.5-0.2-0.5-0.5V537.4z"/>
		<path class="st1" d="M121.4,549.2c0.2,0.1,0.5,0.2,0.8,0.2c0.9,0,1.4-0.7,1.8-1.6l0.6-1.4l-3.8-9c-0.1-0.3,0-0.6,0.4-0.6h0.4
			c0.3,0,0.4,0.1,0.5,0.4l2.7,6.7c0.2,0.5,0.3,1,0.3,1h0c0,0,0.1-0.5,0.3-1l2.6-6.7c0.1-0.3,0.2-0.4,0.5-0.4h0.4
			c0.3,0,0.5,0.2,0.4,0.6l-4.5,11.1c-0.5,1.2-1.5,2.1-2.8,2.1c-0.6,0-1-0.2-1.3-0.3c-0.2-0.1-0.3-0.4-0.2-0.6l0.1-0.2
			C121,549.2,121.2,549.1,121.4,549.2z"/>
		<path class="st1" d="M136.2,533.6c0-0.3,0.2-0.5,0.5-0.5h0.4c0.3,0,0.5,0.2,0.5,0.5v4.8c0,0.4-0.1,0.8-0.1,0.8h0
			c0.4-0.9,1.7-2.5,3.9-2.5c2.4,0,3.2,1.4,3.2,3.7v5.7c0,0.3-0.2,0.5-0.5,0.5h-0.4c-0.3,0-0.5-0.2-0.5-0.5v-5.3
			c0-1.5-0.2-2.9-2.1-2.9c-2,0-3.6,1.7-3.6,4v4.2c0,0.3-0.2,0.5-0.5,0.5h-0.4c-0.3,0-0.5-0.2-0.5-0.5V533.6z"/>
		<path class="st1" d="M151.4,536.7c2.6,0,4,1.9,4,4.6c0,0.3-0.2,0.5-0.5,0.5H148c0.1,2.5,1.7,3.9,3.7,3.9c1.2,0,2.1-0.5,2.5-0.9
			c0.3-0.2,0.5-0.1,0.6,0.1l0.2,0.2c0.1,0.2,0.1,0.5-0.1,0.6c-0.5,0.4-1.7,1.1-3.2,1.1c-2.9,0-5-2.1-5-5
			C146.6,538.6,148.8,536.7,151.4,536.7z M154.1,540.8c-0.1-2-1.3-3-2.7-3c-1.6,0-3,1.1-3.3,3H154.1z"/>
		<path class="st1" d="M162.6,540.7h0.6v-0.3c0-1.9-1-2.5-2.4-2.5c-1.1,0-1.9,0.4-2.3,0.7c-0.3,0.1-0.5,0.1-0.7-0.2l-0.1-0.2
			c-0.2-0.2-0.1-0.5,0.1-0.7c0.5-0.3,1.6-0.8,3.1-0.8c2.3,0,3.6,1.3,3.6,3.7v5.7c0,0.3-0.2,0.5-0.5,0.5h-0.3c-0.3,0-0.5-0.2-0.5-0.5
			v-0.8c0-0.4,0.1-0.7,0.1-0.7h0c0,0-0.9,2.2-3.3,2.2c-1.6,0-3.3-1-3.3-2.8C156.7,540.8,160.7,540.7,162.6,540.7z M160.2,545.7
			c1.9,0,3-1.9,3-3.6v-0.5h-0.5c-1.5,0-4.6,0.1-4.6,2.2C158,544.8,158.7,545.7,160.2,545.7z"/>
		<path class="st1" d="M167.3,533.6c0-0.3,0.2-0.5,0.5-0.5h0.4c0.3,0,0.5,0.2,0.5,0.5v10.5c0,1.2,0.6,1.3,1,1.4
			c0.2,0,0.4,0.1,0.4,0.4v0.3c0,0.3-0.1,0.5-0.5,0.5c-0.8,0-2.2-0.2-2.2-2.4V533.6z"/>
		<path class="st1" d="M172.3,538.1h-0.8c-0.3,0-0.5-0.2-0.5-0.5v-0.2c0-0.3,0.2-0.5,0.5-0.5h0.8v-2.3c0-0.3,0.2-0.5,0.5-0.5h0.3
			c0.3,0,0.5,0.2,0.5,0.5v2.3h2c0.3,0,0.5,0.2,0.5,0.5v0.2c0,0.3-0.2,0.5-0.5,0.5h-2v4.8c0,2.2,1.4,2.5,2.1,2.5
			c0.4,0,0.5,0.2,0.5,0.5v0.3c0,0.3-0.2,0.5-0.5,0.5c-2.1,0-3.4-1.3-3.4-3.6V538.1z"/>
		<path class="st1" d="M178,533.6c0-0.3,0.2-0.5,0.5-0.5h0.4c0.3,0,0.5,0.2,0.5,0.5v4.8c0,0.4-0.1,0.8-0.1,0.8h0
			c0.4-0.9,1.7-2.5,3.9-2.5c2.4,0,3.2,1.4,3.2,3.7v5.7c0,0.3-0.2,0.5-0.5,0.5h-0.4c-0.3,0-0.5-0.2-0.5-0.5v-5.3
			c0-1.5-0.2-2.9-2.1-2.9c-2,0-3.6,1.7-3.6,4v4.2c0,0.3-0.2,0.5-0.5,0.5h-0.4c-0.3,0-0.5-0.2-0.5-0.5V533.6z"/>
		<path class="st1" d="M197.8,536.7c2.3,0,3.2,1.9,3.2,1.9h0c0,0-0.1-0.3-0.1-0.7v-4.3c0-0.3,0.2-0.5,0.5-0.5h0.4
			c0.3,0,0.5,0.2,0.5,0.5v12.5c0,0.3-0.2,0.5-0.5,0.5h-0.3c-0.3,0-0.5-0.2-0.5-0.5v-0.7c0-0.3,0.1-0.6,0.1-0.6h0c0,0-0.8,2-3.4,2
			c-2.6,0-4.2-2.1-4.2-5.1C193.4,538.7,195.2,536.7,197.8,536.7z M197.8,545.6c1.6,0,3.1-1.2,3.1-3.9c0-2-1-3.9-3.1-3.9
			c-1.7,0-3.1,1.4-3.1,3.9C194.8,544.1,196,545.6,197.8,545.6z"/>
		<path class="st1" d="M209.1,536.7c2.6,0,4,1.9,4,4.6c0,0.3-0.2,0.5-0.5,0.5h-6.9c0.1,2.5,1.7,3.9,3.7,3.9c1.2,0,2.1-0.5,2.5-0.9
			c0.3-0.2,0.5-0.1,0.6,0.1l0.2,0.2c0.1,0.2,0.1,0.5-0.1,0.6c-0.5,0.4-1.7,1.1-3.2,1.1c-2.9,0-5-2.1-5-5
			C204.4,538.6,206.5,536.7,209.1,536.7z M211.8,540.8c-0.1-2-1.3-3-2.7-3c-1.6,0-3,1.1-3.3,3H211.8z"/>
		<path class="st1" d="M219.7,536.7c1.7,0,2.7,0.7,3.2,1.1c0.2,0.2,0.2,0.4,0.1,0.7l-0.1,0.2c-0.2,0.3-0.4,0.3-0.7,0.1
			c-0.4-0.3-1.3-0.9-2.4-0.9c-2.1,0-3.8,1.6-3.8,3.9c0,2.3,1.6,3.9,3.8,3.9c1.3,0,2.3-0.6,2.7-1c0.3-0.2,0.5-0.2,0.6,0.1l0.1,0.2
			c0.2,0.2,0.1,0.5-0.1,0.7c-0.5,0.4-1.7,1.2-3.4,1.2c-2.9,0-5.1-2.1-5.1-5C214.6,538.8,216.8,536.7,219.7,536.7z"/>
		<path class="st1" d="M225.4,534.3v-0.7c0-0.3,0.2-0.5,0.5-0.5h0.5c0.3,0,0.5,0.2,0.5,0.5v0.7c0,0.3-0.2,0.5-0.5,0.5h-0.5
			C225.6,534.7,225.4,534.6,225.4,534.3z M225.5,537.4c0-0.3,0.2-0.5,0.5-0.5h0.4c0.3,0,0.5,0.2,0.5,0.5v8.7c0,0.3-0.2,0.5-0.5,0.5
			H226c-0.3,0-0.5-0.2-0.5-0.5V537.4z"/>
		<path class="st1" d="M229.2,545.1l0.2-0.2c0.2-0.2,0.4-0.2,0.7-0.1c0.4,0.3,1.3,0.9,2.6,0.9c1.1,0,2-0.5,2-1.6
			c0-2.2-5.2-1.5-5.2-4.7c0-1.8,1.5-2.7,3.3-2.7c1.4,0,2.2,0.5,2.6,0.8c0.2,0.2,0.3,0.4,0.1,0.6l-0.1,0.2c-0.2,0.3-0.4,0.3-0.7,0.1
			c-0.4-0.2-1.1-0.6-2.1-0.6c-1,0-1.9,0.4-1.9,1.5c0,2.2,5.1,1.5,5.1,4.7c0,1.6-1.3,2.7-3.3,2.7c-1.7,0-2.8-0.7-3.3-1.1
			C229,545.5,229,545.3,229.2,545.1z"/>
		<path class="st1" d="M238,534.3v-0.7c0-0.3,0.2-0.5,0.5-0.5h0.5c0.3,0,0.5,0.2,0.5,0.5v0.7c0,0.3-0.2,0.5-0.5,0.5h-0.5
			C238.1,534.7,238,534.6,238,534.3z M238,537.4c0-0.3,0.2-0.5,0.5-0.5h0.4c0.3,0,0.5,0.2,0.5,0.5v8.7c0,0.3-0.2,0.5-0.5,0.5h-0.4
			c-0.3,0-0.5-0.2-0.5-0.5V537.4z"/>
		<path class="st1" d="M246.7,536.7c2.8,0,5.1,2.1,5.1,5c0,2.9-2.3,5.1-5.1,5.1c-2.8,0-5.1-2.2-5.1-5.1
			C241.6,538.9,243.9,536.7,246.7,536.7z M246.7,545.6c2.1,0,3.7-1.7,3.7-3.9c0-2.2-1.7-3.8-3.7-3.8c-2.1,0-3.8,1.7-3.8,3.8
			C243,544,244.7,545.6,246.7,545.6z"/>
		<path class="st1" d="M253.8,537.4c0-0.3,0.2-0.5,0.5-0.5h0.3c0.3,0,0.5,0.2,0.5,0.5v1.1c0,0.4-0.1,0.7-0.1,0.7h0
			c0.4-0.9,1.6-2.5,3.9-2.5c2.4,0,3.2,1.4,3.2,3.7v5.7c0,0.3-0.2,0.5-0.5,0.5h-0.4c-0.3,0-0.5-0.2-0.5-0.5v-5.3
			c0-1.5-0.2-2.9-2.1-2.9c-2.1,0-3.7,1.7-3.7,3.9v4.2c0,0.3-0.2,0.5-0.5,0.5h-0.4c-0.3,0-0.5-0.2-0.5-0.5V537.4z"/>
		<g>
			<path class="st1" d="M264.7,532.5c1.4,0,2.4,1.1,2.4,2.5c0,1.4-1.1,2.5-2.4,2.5c-1.3,0-2.4-1.1-2.4-2.5
				C262.3,533.6,263.4,532.5,264.7,532.5z M264.7,537c1.1,0,1.9-0.9,1.9-2c0-1.1-0.8-2-1.9-2c-1.1,0-1.9,0.9-1.9,2
				C262.8,536.1,263.6,537,264.7,537z M263.9,533.9c0-0.1,0.1-0.2,0.2-0.2h0.8c0.5,0,0.8,0.3,0.8,0.8c0,0.4-0.3,0.6-0.5,0.7v0
				c0,0,0,0,0.1,0.1l0.4,0.7c0.1,0.2,0,0.3-0.1,0.3h-0.1c-0.1,0-0.2,0-0.3-0.2l-0.4-0.8h-0.4v0.8c0,0.1-0.1,0.2-0.2,0.2h-0.1
				c-0.1,0-0.2-0.1-0.2-0.2V533.9z M264.8,534.9c0.3,0,0.4-0.2,0.4-0.4c0-0.3-0.2-0.4-0.4-0.4h-0.4v0.9H264.8z"/>
		</g>
	</g>
	<g>
		<path class="st1" d="M180.8,440.2C167.2,440,156,451,156,464.6c0,4,1,7.8,2.7,11.2c0,0.1,0.2,0,0.1-0.1c-1-2.4-1.5-5-1.4-7.8
			c0.3-10.4,8.9-18.7,19.3-18.6c10.5,0.1,18.9,8.5,19,19c0.1,10.4-8.2,19-18.6,19.3c-2.8,0.1-5.4-0.4-7.8-1.4
			c-0.1,0-0.1,0.1-0.1,0.1c3.4,1.7,7.2,2.7,11.2,2.7c13.6,0,24.7-11.2,24.5-24.8C204.8,451,194.1,440.3,180.8,440.2z"/>
		<path class="st1" d="M176,453.4c-7.8,0.2-14.3,6.5-14.7,14.4c-0.1,2.7,0.4,5.3,1.5,7.6c0,0.1,0.1,0,0.1,0c-0.3-1-0.4-2.2-0.4-3.3
			c0.3-5.1,4.4-9.3,9.5-9.5c5.9-0.3,10.8,4.6,10.5,10.5c-0.2,5.1-4.4,9.3-9.5,9.5c-1.2,0.1-2.3-0.1-3.3-0.4c-0.1,0-0.1,0.1,0,0.1
			c2.3,1.1,4.9,1.7,7.6,1.6c7.8-0.4,14.1-6.9,14.4-14.7C192,460.3,184.8,453.1,176,453.4z"/>
		<circle class="st1" cx="172.6" cy="472.5" r="5.9"/>
	</g>
</g>
<g>
	<rect x="0" y="212.4" class="st0" width="317.7" height="141.9"/>
	<g>
		<path d="M27.8,270.2h3.9c0.4,0,0.7,0.3,0.7,0.7v16.2c0,1.3-0.1,2.4-0.1,2.4h0.1c1.2-2.7,4.8-6.3,10.5-6.3c6.7,0,9.7,3.6,9.7,10.9
			v17.4c0,0.4-0.3,0.7-0.7,0.7H48c-0.4,0-0.7-0.3-0.7-0.7v-16.2c0-4-0.8-7.1-5.4-7.1c-4.3,0-7.8,2.9-9,7c-0.3,1.1-0.4,2.4-0.4,3.8
			v12.5c0,0.4-0.3,0.7-0.7,0.7h-3.9c-0.4,0-0.7-0.3-0.7-0.7V271C27,270.6,27.4,270.2,27.8,270.2z"/>
		<path d="M71.3,283.2c8,0,12.3,5.9,12.3,13.3c0,0.4,0,1-0.1,1.5c0,0.5-0.5,0.9-1,0.9H62.8c0.3,6.2,4.7,9.4,9.7,9.4
			c3.5,0,6.3-1.7,7.6-2.7c0.4-0.3,1-0.2,1.3,0.3l1.3,2.3c0.3,0.5,0.1,1.1-0.3,1.4c-1.5,1.1-5.1,3.4-10.3,3.4c-8.9,0-15-6.4-15-14.8
			C57.2,289,63.3,283.2,71.3,283.2z M78.1,294.7c-0.2-4.9-3.2-7.2-6.8-7.2c-4.1,0-7.5,2.6-8.3,7.2H78.1z"/>
		<path d="M103.3,294.5h1.2V294c0-4.6-2.6-6.2-6.2-6.2c-3.3,0-6.1,1.5-7.3,2.3c-0.3,0.2-0.8,0.1-1-0.2l-1.6-2.8
			c-0.2-0.3-0.1-0.7,0.2-0.9c1.3-0.9,4.9-3,10.1-3c6.2,0,11.2,5.1,11.2,11.3l0,17c0,0.4-0.3,0.7-0.7,0.7h-3.5
			c-0.4,0-0.7-0.3-0.7-0.7v-1.9c0-1.3,0.1-2.2,0.1-2.2h-0.1c0,0-2.3,5.6-9.1,5.6c-4.9,0-9.6-3-9.6-8.6
			C86.2,294.9,98.6,294.5,103.3,294.5z M97,308.5c4.6,0,7.6-4.8,7.6-9v-0.9h-1.4c-4.1,0-11.5,0.3-11.5,5.4
			C91.7,306.3,93.5,308.5,97,308.5z"/>
		<path d="M121.5,303.5v-26.1c0-0.4-0.4-0.7-0.8-0.6l-3.8,0.8c-0.5,0.1-0.9,0.6-0.9,1.1v25.8c0,7.1,4.5,8,7.6,8c0.4,0,0.7,0,1,0
			c0.4,0,0.7-0.4,0.7-0.8c0,0,0-3.4,0-3.7c0-0.3-0.1-0.3-0.3-0.3c-0.2,0-0.4,0-0.7,0C122.9,307.5,121.5,306.9,121.5,303.5z"/>
		<path d="M136.2,301.2v-12.6h6.1c0.4,0,0.7-0.3,0.7-0.7V285c0-0.4-0.3-0.7-0.7-0.7h-6.1v-10c0-0.4-0.4-0.7-0.8-0.6l-3.6,0.8
			c-0.5,0.1-0.9,0.6-0.9,1.1v8.8h-3.1c-0.4,0-0.7,0.3-0.7,0.7v2.9c0,0.4,0.3,0.7,0.7,0.7h3v13.2c0,9.5,7.2,10.6,10.9,10.6
			c0.5,0,0.9,0,1.2,0c0.4,0,0.7-0.4,0.7-0.8v-3.7c0-0.4-0.1-0.4-0.4-0.4c-0.2,0-0.5,0.1-0.9,0.1
			C140.2,307.6,136.2,306.9,136.2,301.2z"/>
		<path d="M163.9,283.2c-5.7,0-9.2,3.6-10.5,6.3h-0.1c0,0,0.1-1,0.1-2.4v-16.7c0-0.4-0.4-0.7-0.8-0.6l-3.8,0.8
			c-0.5,0.1-0.9,0.6-0.9,1.1v39.7c0,0.4,0.3,0.7,0.7,0.7h3.9c0.4,0,0.7-0.3,0.7-0.7v-12.5c0-1.3,0.1-2.6,0.4-3.8c1.2-4.1,4.7-7,9-7
			c4.5,0,5.4,3.1,5.4,7.1v16.2c0,0.4,0.3,0.7,0.7,0.7h3.9c0.4,0,0.7-0.3,0.7-0.7v-17.4C173.6,286.8,170.5,283.2,163.9,283.2z"/>
		<path d="M177.7,283.6h5.9c0.5,0,0.9,0.3,1,0.8l4.8,18c0.4,1.5,0.6,3,0.6,3h0.1c0,0,0.3-1.5,0.7-3l5-17.9c0.1-0.5,0.5-0.8,1-0.8
			h4.7c0.5,0,0.9,0.3,1,0.8l5,17.9c0.4,1.5,0.6,3,0.6,3h0.1c0,0,0.2-1.5,0.6-3l4.8-18c0.1-0.5,0.5-0.8,1-0.8h5.8
			c0.4,0,0.7,0.4,0.6,0.8l-8.3,27.2c-0.1,0.4-0.5,0.6-0.8,0.6h-6.6c-0.4,0-0.7-0.3-0.9-0.6l-4.6-15.7c-0.4-1.5-0.7-3.1-0.7-3.1h-0.1
			c0,0-0.2,1.6-0.7,3.1l-4.6,15.7c-0.1,0.4-0.5,0.6-0.9,0.6h-6.6c-0.4,0-0.7-0.3-0.8-0.6l-8.3-27.2C177,284,177.3,283.6,177.7,283.6
			z"/>
		<path d="M226.8,283.6h5.6c0.4,0,0.7,0.3,0.7,0.7v27.1c0,0.4-0.3,0.7-0.7,0.7h-5.6c-0.4,0-0.7-0.3-0.7-0.7v-27.1
			C226,284,226.4,283.6,226.8,283.6z"/>
		<path d="M240.9,304.3c0.2-0.3,0.7-0.4,1-0.2c1.1,0.9,3.7,2.6,7.2,2.6c2,0,3.8-0.9,3.8-2.6c0-4.3-13.9-3.7-13.9-12.9
			c0-5.3,4.8-8.4,10.9-8.4c4.6,0,7.5,1.7,8.8,2.6c0.5,0.3,0.6,1,0.3,1.5l-1.8,3.7c-0.2,0.4-0.6,0.5-1,0.3c-1-0.7-3.3-2-6.4-2
			c-1.8,0-3.6,0.8-3.6,2.6c0,4,13.9,3.5,13.9,12.7c0,4.8-4.1,8.6-10.9,8.6c-5.3,0-8.8-2.3-10.3-3.5c-0.5-0.4-0.6-1-0.3-1.6
			L240.9,304.3z"/>
		<path d="M277.1,283c8.2,0,12.7,6,12.7,13.6c0,0.6-0.1,1.6-0.1,2.2c0,0.3-0.3,0.6-0.6,0.6h-19.2c0.4,5,4.3,7.6,8.6,7.6
			c3.4,0,6.3-1.8,7.6-2.6c0.4-0.3,0.9-0.1,1.1,0.3l1.9,3.5c0.3,0.5,0.1,1.1-0.3,1.4c-1.5,1.1-5.3,3.5-10.7,3.5
			c-9.5,0-15.3-6.8-15.3-15C262.6,289.1,268.6,283,277.1,283z M282.6,294.4c-0.1-3.9-2.5-5.9-5.7-5.9c-3.6,0-6.2,2.2-6.8,5.9H282.6z
			"/>
		<g>
			<path d="M291.5,274.8c2.5,0,4.5,2,4.5,4.6c0,2.6-2,4.6-4.5,4.6c-2.5,0-4.5-2-4.5-4.6C287.1,276.8,289.1,274.8,291.5,274.8z
				 M291.5,283.1c2,0,3.6-1.6,3.6-3.7c0-2.1-1.6-3.7-3.6-3.7c-2,0-3.5,1.6-3.5,3.7C288,281.5,289.5,283.1,291.5,283.1z M290,277.4
				c0-0.3,0.1-0.4,0.4-0.4h1.4c0.9,0,1.5,0.6,1.5,1.4c0,0.7-0.5,1.2-0.9,1.3v0c0,0,0,0,0.2,0.3l0.7,1.3c0.2,0.3,0.1,0.5-0.2,0.5
				h-0.2c-0.2,0-0.4-0.1-0.5-0.3l-0.7-1.5h-0.8v1.4c0,0.3-0.1,0.4-0.4,0.4h-0.1c-0.3,0-0.4-0.1-0.4-0.4V277.4z M291.6,279.2
				c0.5,0,0.8-0.3,0.8-0.8c0-0.5-0.3-0.8-0.8-0.8h-0.8v1.6H291.6z"/>
		</g>
	</g>
	<g>
		<path class="st2" d="M57.1,324.5h-0.8c-0.3,0-0.5-0.2-0.5-0.5v-0.2c0-0.3,0.2-0.5,0.5-0.5h0.8v-0.4c0-3.1,2.3-3.6,3.2-3.6h0.2
			c0.3,0,0.5,0.2,0.5,0.5v0.2c0,0.3-0.2,0.4-0.5,0.5c-0.8,0-2.1,0.3-2.1,2.4v0.4h2c0.3,0,0.5,0.2,0.5,0.5v0.2c0,0.3-0.2,0.5-0.5,0.5
			h-2v8c0,0.3-0.2,0.5-0.5,0.5h-0.4c-0.3,0-0.5-0.2-0.5-0.5V324.5z"/>
		<path class="st2" d="M66.6,323.1c2.8,0,5.1,2.1,5.1,5c0,2.9-2.3,5.1-5.1,5.1c-2.8,0-5.1-2.2-5.1-5.1
			C61.5,325.2,63.8,323.1,66.6,323.1z M66.6,332c2.1,0,3.7-1.7,3.7-3.9c0-2.2-1.7-3.8-3.7-3.8c-2.1,0-3.8,1.7-3.8,3.8
			C62.9,330.3,64.6,332,66.6,332z"/>
		<path class="st2" d="M73.5,323.8c0-0.3,0.2-0.5,0.5-0.5h0.3c0.3,0,0.5,0.2,0.5,0.5v1.3c0,0.4-0.1,0.8-0.1,0.8h0
			c0.5-1.4,1.6-2.6,3.1-2.6c0.3,0,0.5,0.2,0.5,0.5v0.3c0,0.3-0.2,0.5-0.5,0.5c-2,0-3,2.3-3,4.3v3.6c0,0.3-0.2,0.5-0.5,0.5H74
			c-0.3,0-0.5-0.2-0.5-0.5V323.8z"/>
		<path class="st2" d="M89.4,323.1c2.6,0,4,1.9,4,4.6c0,0.3-0.2,0.5-0.5,0.5H86c0.1,2.5,1.7,3.9,3.7,3.9c1.2,0,2.1-0.5,2.5-0.9
			c0.3-0.2,0.5-0.1,0.6,0.1l0.2,0.2c0.1,0.2,0.1,0.5-0.1,0.6c-0.5,0.4-1.7,1.1-3.2,1.1c-2.9,0-5-2.1-5-5
			C84.7,325,86.8,323.1,89.4,323.1z M92.1,327.2c-0.1-2-1.3-3-2.7-3c-1.6,0-3,1.1-3.3,3H92.1z"/>
		<path class="st2" d="M94.7,323.8c-0.1-0.3,0-0.6,0.4-0.6h0.4c0.2,0,0.4,0.1,0.5,0.4l2.6,6.7c0.2,0.5,0.3,1.2,0.3,1.2h0
			c0,0,0.2-0.7,0.3-1.2l2.5-6.7c0.1-0.3,0.3-0.4,0.5-0.4h0.4c0.4,0,0.5,0.2,0.4,0.6l-3.4,8.7c-0.1,0.2-0.3,0.4-0.5,0.4h-0.6
			c-0.3,0-0.4-0.1-0.5-0.4L94.7,323.8z"/>
		<path class="st2" d="M109,323.1c2.6,0,4,1.9,4,4.6c0,0.3-0.2,0.5-0.5,0.5h-6.9c0.1,2.5,1.7,3.9,3.7,3.9c1.2,0,2.1-0.5,2.5-0.9
			c0.3-0.2,0.5-0.1,0.6,0.1l0.2,0.2c0.1,0.2,0.1,0.5-0.1,0.6c-0.5,0.4-1.7,1.1-3.2,1.1c-2.9,0-5-2.1-5-5
			C104.2,325,106.4,323.1,109,323.1z M111.7,327.2c-0.1-2-1.3-3-2.7-3c-1.6,0-3,1.1-3.3,3H111.7z"/>
		<path class="st2" d="M115.5,323.8c0-0.3,0.2-0.5,0.5-0.5h0.3c0.3,0,0.5,0.2,0.5,0.5v1.3c0,0.4-0.1,0.8-0.1,0.8h0
			c0.5-1.4,1.6-2.6,3.1-2.6c0.3,0,0.5,0.2,0.5,0.5v0.3c0,0.3-0.2,0.5-0.5,0.5c-2,0-3,2.3-3,4.3v3.6c0,0.3-0.2,0.5-0.5,0.5H116
			c-0.3,0-0.5-0.2-0.5-0.5V323.8z"/>
		<path class="st2" d="M121.4,335.6c0.2,0.1,0.5,0.2,0.8,0.2c0.9,0,1.4-0.7,1.8-1.6l0.6-1.4l-3.8-9c-0.1-0.3,0-0.6,0.4-0.6h0.4
			c0.3,0,0.4,0.1,0.5,0.4l2.7,6.7c0.2,0.5,0.3,1,0.3,1h0c0,0,0.1-0.5,0.3-1l2.6-6.7c0.1-0.3,0.2-0.4,0.5-0.4h0.4
			c0.3,0,0.5,0.2,0.4,0.6l-4.5,11.1c-0.5,1.2-1.5,2.1-2.8,2.1c-0.6,0-1-0.2-1.3-0.3c-0.2-0.1-0.3-0.4-0.2-0.6l0.1-0.2
			C121,335.5,121.2,335.5,121.4,335.6z"/>
		<path class="st2" d="M136.2,319.9c0-0.3,0.2-0.5,0.5-0.5h0.4c0.3,0,0.5,0.2,0.5,0.5v4.8c0,0.4-0.1,0.8-0.1,0.8h0
			c0.4-0.9,1.7-2.5,3.9-2.5c2.4,0,3.2,1.4,3.2,3.7v5.7c0,0.3-0.2,0.5-0.5,0.5h-0.4c-0.3,0-0.5-0.2-0.5-0.5v-5.3
			c0-1.5-0.2-2.9-2.1-2.9c-2,0-3.6,1.7-3.6,4v4.2c0,0.3-0.2,0.5-0.5,0.5h-0.4c-0.3,0-0.5-0.2-0.5-0.5V319.9z"/>
		<path class="st2" d="M151.4,323.1c2.6,0,4,1.9,4,4.6c0,0.3-0.2,0.5-0.5,0.5H148c0.1,2.5,1.7,3.9,3.7,3.9c1.2,0,2.1-0.5,2.5-0.9
			c0.3-0.2,0.5-0.1,0.6,0.1l0.2,0.2c0.1,0.2,0.1,0.5-0.1,0.6c-0.5,0.4-1.7,1.1-3.2,1.1c-2.9,0-5-2.1-5-5
			C146.6,325,148.8,323.1,151.4,323.1z M154.1,327.2c-0.1-2-1.3-3-2.7-3c-1.6,0-3,1.1-3.3,3H154.1z"/>
		<path class="st2" d="M162.6,327h0.6v-0.3c0-1.9-1-2.5-2.4-2.5c-1.1,0-1.9,0.4-2.3,0.7c-0.3,0.1-0.5,0.1-0.7-0.2l-0.1-0.2
			c-0.2-0.2-0.1-0.5,0.1-0.7c0.5-0.3,1.6-0.8,3.1-0.8c2.3,0,3.6,1.3,3.6,3.7v5.7c0,0.3-0.2,0.5-0.5,0.5h-0.3c-0.3,0-0.5-0.2-0.5-0.5
			v-0.8c0-0.4,0.1-0.7,0.1-0.7h0c0,0-0.9,2.2-3.3,2.2c-1.6,0-3.3-1-3.3-2.8C156.7,327.2,160.7,327,162.6,327z M160.2,332.1
			c1.9,0,3-1.9,3-3.6V328h-0.5c-1.5,0-4.6,0.1-4.6,2.2C158,331.1,158.7,332.1,160.2,332.1z"/>
		<path class="st2" d="M167.3,319.9c0-0.3,0.2-0.5,0.5-0.5h0.4c0.3,0,0.5,0.2,0.5,0.5v10.5c0,1.2,0.6,1.3,1,1.4
			c0.2,0,0.4,0.1,0.4,0.4v0.3c0,0.3-0.1,0.5-0.5,0.5c-0.8,0-2.2-0.2-2.2-2.4V319.9z"/>
		<path class="st2" d="M172.3,324.5h-0.8c-0.3,0-0.5-0.2-0.5-0.5v-0.2c0-0.3,0.2-0.5,0.5-0.5h0.8v-2.3c0-0.3,0.2-0.5,0.5-0.5h0.3
			c0.3,0,0.5,0.2,0.5,0.5v2.3h2c0.3,0,0.5,0.2,0.5,0.5v0.2c0,0.3-0.2,0.5-0.5,0.5h-2v4.8c0,2.2,1.4,2.5,2.1,2.5
			c0.4,0,0.5,0.2,0.5,0.5v0.3c0,0.3-0.2,0.5-0.5,0.5c-2.1,0-3.4-1.3-3.4-3.6V324.5z"/>
		<path class="st2" d="M178,319.9c0-0.3,0.2-0.5,0.5-0.5h0.4c0.3,0,0.5,0.2,0.5,0.5v4.8c0,0.4-0.1,0.8-0.1,0.8h0
			c0.4-0.9,1.7-2.5,3.9-2.5c2.4,0,3.2,1.4,3.2,3.7v5.7c0,0.3-0.2,0.5-0.5,0.5h-0.4c-0.3,0-0.5-0.2-0.5-0.5v-5.3
			c0-1.5-0.2-2.9-2.1-2.9c-2,0-3.6,1.7-3.6,4v4.2c0,0.3-0.2,0.5-0.5,0.5h-0.4c-0.3,0-0.5-0.2-0.5-0.5V319.9z"/>
		<path class="st2" d="M197.8,323.1c2.3,0,3.2,1.9,3.2,1.9h0c0,0-0.1-0.3-0.1-0.7v-4.3c0-0.3,0.2-0.5,0.5-0.5h0.4
			c0.3,0,0.5,0.2,0.5,0.5v12.5c0,0.3-0.2,0.5-0.5,0.5h-0.3c-0.3,0-0.5-0.2-0.5-0.5v-0.7c0-0.3,0.1-0.6,0.1-0.6h0c0,0-0.8,2-3.4,2
			c-2.6,0-4.2-2.1-4.2-5.1C193.4,325.1,195.2,323.1,197.8,323.1z M197.8,332c1.6,0,3.1-1.2,3.1-3.9c0-2-1-3.9-3.1-3.9
			c-1.7,0-3.1,1.4-3.1,3.9C194.8,330.5,196,332,197.8,332z"/>
		<path class="st2" d="M209.1,323.1c2.6,0,4,1.9,4,4.6c0,0.3-0.2,0.5-0.5,0.5h-6.9c0.1,2.5,1.7,3.9,3.7,3.9c1.2,0,2.1-0.5,2.5-0.9
			c0.3-0.2,0.5-0.1,0.6,0.1l0.2,0.2c0.1,0.2,0.1,0.5-0.1,0.6c-0.5,0.4-1.7,1.1-3.2,1.1c-2.9,0-5-2.1-5-5
			C204.4,325,206.5,323.1,209.1,323.1z M211.8,327.2c-0.1-2-1.3-3-2.7-3c-1.6,0-3,1.1-3.3,3H211.8z"/>
		<path class="st2" d="M219.7,323.1c1.7,0,2.7,0.7,3.2,1.1c0.2,0.2,0.2,0.4,0.1,0.7l-0.1,0.2c-0.2,0.3-0.4,0.3-0.7,0.1
			c-0.4-0.3-1.3-0.9-2.4-0.9c-2.1,0-3.8,1.6-3.8,3.9c0,2.3,1.6,3.9,3.8,3.9c1.3,0,2.3-0.6,2.7-1c0.3-0.2,0.5-0.2,0.6,0.1l0.1,0.2
			c0.2,0.2,0.1,0.5-0.1,0.7c-0.5,0.4-1.7,1.2-3.4,1.2c-2.9,0-5.1-2.1-5.1-5C214.6,325.1,216.8,323.1,219.7,323.1z"/>
		<path class="st2" d="M225.4,320.6v-0.7c0-0.3,0.2-0.5,0.5-0.5h0.5c0.3,0,0.5,0.2,0.5,0.5v0.7c0,0.3-0.2,0.5-0.5,0.5h-0.5
			C225.6,321.1,225.4,320.9,225.4,320.6z M225.5,323.8c0-0.3,0.2-0.5,0.5-0.5h0.4c0.3,0,0.5,0.2,0.5,0.5v8.7c0,0.3-0.2,0.5-0.5,0.5
			H226c-0.3,0-0.5-0.2-0.5-0.5V323.8z"/>
		<path class="st2" d="M229.2,331.4l0.2-0.2c0.2-0.2,0.4-0.2,0.7-0.1c0.4,0.3,1.3,0.9,2.6,0.9c1.1,0,2-0.5,2-1.6
			c0-2.2-5.2-1.5-5.2-4.7c0-1.8,1.5-2.7,3.3-2.7c1.4,0,2.2,0.5,2.6,0.8c0.2,0.2,0.3,0.4,0.1,0.6l-0.1,0.2c-0.2,0.3-0.4,0.3-0.7,0.1
			c-0.4-0.2-1.1-0.6-2.1-0.6c-1,0-1.9,0.4-1.9,1.5c0,2.2,5.1,1.5,5.1,4.7c0,1.6-1.3,2.7-3.3,2.7c-1.7,0-2.8-0.7-3.3-1.1
			C229,331.9,229,331.7,229.2,331.4z"/>
		<path class="st2" d="M238,320.6v-0.7c0-0.3,0.2-0.5,0.5-0.5h0.5c0.3,0,0.5,0.2,0.5,0.5v0.7c0,0.3-0.2,0.5-0.5,0.5h-0.5
			C238.1,321.1,238,320.9,238,320.6z M238,323.8c0-0.3,0.2-0.5,0.5-0.5h0.4c0.3,0,0.5,0.2,0.5,0.5v8.7c0,0.3-0.2,0.5-0.5,0.5h-0.4
			c-0.3,0-0.5-0.2-0.5-0.5V323.8z"/>
		<path class="st2" d="M246.7,323.1c2.8,0,5.1,2.1,5.1,5c0,2.9-2.3,5.1-5.1,5.1c-2.8,0-5.1-2.2-5.1-5.1
			C241.6,325.2,243.9,323.1,246.7,323.1z M246.7,332c2.1,0,3.7-1.7,3.7-3.9c0-2.2-1.7-3.8-3.7-3.8c-2.1,0-3.8,1.7-3.8,3.8
			C243,330.3,244.7,332,246.7,332z"/>
		<path class="st2" d="M253.8,323.8c0-0.3,0.2-0.5,0.5-0.5h0.3c0.3,0,0.5,0.2,0.5,0.5v1.1c0,0.4-0.1,0.7-0.1,0.7h0
			c0.4-0.9,1.6-2.5,3.9-2.5c2.4,0,3.2,1.4,3.2,3.7v5.7c0,0.3-0.2,0.5-0.5,0.5h-0.4c-0.3,0-0.5-0.2-0.5-0.5v-5.3
			c0-1.5-0.2-2.9-2.1-2.9c-2.1,0-3.7,1.7-3.7,3.9v4.2c0,0.3-0.2,0.5-0.5,0.5h-0.4c-0.3,0-0.5-0.2-0.5-0.5V323.8z"/>
		<g>
			<path class="st2" d="M264.7,318.9c1.4,0,2.4,1.1,2.4,2.5c0,1.4-1.1,2.5-2.4,2.5c-1.3,0-2.4-1.1-2.4-2.5
				C262.3,320,263.4,318.9,264.7,318.9z M264.7,323.4c1.1,0,1.9-0.9,1.9-2c0-1.1-0.8-2-1.9-2c-1.1,0-1.9,0.9-1.9,2
				C262.8,322.5,263.6,323.4,264.7,323.4z M263.9,320.3c0-0.1,0.1-0.2,0.2-0.2h0.8c0.5,0,0.8,0.3,0.8,0.8c0,0.4-0.3,0.6-0.5,0.7v0
				c0,0,0,0,0.1,0.1l0.4,0.7c0.1,0.2,0,0.3-0.1,0.3h-0.1c-0.1,0-0.2,0-0.3-0.2l-0.4-0.8h-0.4v0.8c0,0.1-0.1,0.2-0.2,0.2h-0.1
				c-0.1,0-0.2-0.1-0.2-0.2V320.3z M264.8,321.3c0.3,0,0.4-0.2,0.4-0.4c0-0.3-0.2-0.4-0.4-0.4h-0.4v0.9H264.8z"/>
		</g>
	</g>
	<g>
		<path d="M180.8,226.5c-13.6-0.2-24.8,10.9-24.8,24.5c0,4,1,7.8,2.7,11.2c0,0.1,0.2,0,0.1-0.1c-1-2.4-1.5-5-1.4-7.8
			c0.3-10.4,8.9-18.7,19.3-18.6c10.5,0.1,18.9,8.5,19,19c0.1,10.4-8.2,19-18.6,19.3c-2.8,0.1-5.4-0.4-7.8-1.4
			c-0.1,0-0.1,0.1-0.1,0.1c3.4,1.7,7.2,2.7,11.2,2.7c13.6,0,24.7-11.2,24.5-24.8C204.8,237.4,194.1,226.7,180.8,226.5z"/>
		<path d="M176,239.8c-7.8,0.2-14.3,6.5-14.7,14.4c-0.1,2.7,0.4,5.3,1.5,7.6c0,0.1,0.1,0,0.1,0c-0.3-1-0.4-2.2-0.4-3.3
			c0.3-5.1,4.4-9.3,9.5-9.5c5.9-0.3,10.8,4.6,10.5,10.5c-0.2,5.1-4.4,9.3-9.5,9.5c-1.2,0.1-2.3-0.1-3.3-0.4c-0.1,0-0.1,0.1,0,0.1
			c2.3,1.1,4.9,1.7,7.6,1.6c7.8-0.4,14.1-6.9,14.4-14.7C192,246.7,184.8,239.5,176,239.8z"/>
		<circle cx="172.6" cy="258.9" r="5.9"/>
	</g>
</g>
<g>
	<rect x="0" y="0" class="st0" width="317.7" height="141.9"/>
	<g>
		<path d="M27.8,57.9h3.9c0.4,0,0.7,0.3,0.7,0.7v16.2c0,1.3-0.1,2.4-0.1,2.4h0.1c1.2-2.7,4.8-6.3,10.5-6.3c6.7,0,9.7,3.6,9.7,10.9
			v17.4c0,0.4-0.3,0.7-0.7,0.7H48c-0.4,0-0.7-0.3-0.7-0.7V82.9c0-4-0.8-7.1-5.4-7.1c-4.3,0-7.8,2.9-9,7c-0.3,1.1-0.4,2.4-0.4,3.8
			v12.5c0,0.4-0.3,0.7-0.7,0.7h-3.9c-0.4,0-0.7-0.3-0.7-0.7V58.6C27,58.2,27.4,57.9,27.8,57.9z"/>
		<path d="M71.3,70.8c8,0,12.3,5.9,12.3,13.3c0,0.4,0,1-0.1,1.5c0,0.5-0.5,0.9-1,0.9H62.8c0.3,6.2,4.7,9.4,9.7,9.4
			c3.5,0,6.3-1.7,7.6-2.7c0.4-0.3,1-0.2,1.3,0.3l1.3,2.3c0.3,0.5,0.1,1.1-0.3,1.4c-1.5,1.1-5.1,3.4-10.3,3.4c-8.9,0-15-6.4-15-14.8
			C57.2,76.6,63.3,70.8,71.3,70.8z M78.1,82.3c-0.2-4.9-3.2-7.2-6.8-7.2c-4.1,0-7.5,2.6-8.3,7.2H78.1z"/>
		<path d="M103.3,82.1h1.2v-0.5c0-4.6-2.6-6.2-6.2-6.2c-3.3,0-6.1,1.5-7.3,2.3c-0.3,0.2-0.8,0.1-1-0.2l-1.6-2.8
			c-0.2-0.3-0.1-0.7,0.2-0.9c1.3-0.9,4.9-3,10.1-3c6.2,0,11.2,5.1,11.2,11.3l0,17c0,0.4-0.3,0.7-0.7,0.7h-3.5
			c-0.4,0-0.7-0.3-0.7-0.7v-1.9c0-1.3,0.1-2.2,0.1-2.2h-0.1c0,0-2.3,5.6-9.1,5.6c-4.9,0-9.6-3-9.6-8.6
			C86.2,82.5,98.6,82.1,103.3,82.1z M97,96.1c4.6,0,7.6-4.8,7.6-9v-0.9h-1.4c-4.1,0-11.5,0.3-11.5,5.4C91.7,93.9,93.5,96.1,97,96.1z
			"/>
		<path d="M121.5,91.1V65c0-0.4-0.4-0.7-0.8-0.6l-3.8,0.8c-0.5,0.1-0.9,0.6-0.9,1.1v25.8c0,7.1,4.5,8,7.6,8c0.4,0,0.7,0,1,0
			c0.4,0,0.7-0.4,0.7-0.8c0,0,0-3.4,0-3.7c0-0.3-0.1-0.3-0.3-0.3c-0.2,0-0.4,0-0.7,0C122.9,95.2,121.5,94.6,121.5,91.1z"/>
		<path d="M136.2,88.8V76.2h6.1c0.4,0,0.7-0.3,0.7-0.7v-2.9c0-0.4-0.3-0.7-0.7-0.7h-6.1v-10c0-0.4-0.4-0.7-0.8-0.6l-3.6,0.8
			c-0.5,0.1-0.9,0.6-0.9,1.1v8.8h-3.1c-0.4,0-0.7,0.3-0.7,0.7v2.9c0,0.4,0.3,0.7,0.7,0.7h3v13.2c0,9.5,7.2,10.6,10.9,10.6
			c0.5,0,0.9,0,1.2,0c0.4,0,0.7-0.4,0.7-0.8v-3.7c0-0.4-0.1-0.4-0.4-0.4c-0.2,0-0.5,0.1-0.9,0.1C140.2,95.2,136.2,94.5,136.2,88.8z"
			/>
		<path d="M163.9,70.8c-5.7,0-9.2,3.6-10.5,6.3h-0.1c0,0,0.1-1,0.1-2.4V58.1c0-0.4-0.4-0.7-0.8-0.6l-3.8,0.8
			c-0.5,0.1-0.9,0.6-0.9,1.1v39.7c0,0.4,0.3,0.7,0.7,0.7h3.9c0.4,0,0.7-0.3,0.7-0.7V86.6c0-1.3,0.1-2.6,0.4-3.8c1.2-4.1,4.7-7,9-7
			c4.5,0,5.4,3.1,5.4,7.1v16.2c0,0.4,0.3,0.7,0.7,0.7h3.9c0.4,0,0.7-0.3,0.7-0.7V81.7C173.6,74.5,170.5,70.8,163.9,70.8z"/>
		<path d="M177.7,71.3h5.9c0.5,0,0.9,0.3,1,0.8l4.8,18c0.4,1.5,0.6,3,0.6,3h0.1c0,0,0.3-1.5,0.7-3l5-17.9c0.1-0.5,0.5-0.8,1-0.8h4.7
			c0.5,0,0.9,0.3,1,0.8l5,17.9c0.4,1.5,0.6,3,0.6,3h0.1c0,0,0.2-1.5,0.6-3l4.8-18c0.1-0.5,0.5-0.8,1-0.8h5.8c0.4,0,0.7,0.4,0.6,0.8
			l-8.3,27.2c-0.1,0.4-0.5,0.6-0.8,0.6h-6.6c-0.4,0-0.7-0.3-0.9-0.6l-4.6-15.7c-0.4-1.5-0.7-3.1-0.7-3.1h-0.1c0,0-0.2,1.6-0.7,3.1
			l-4.6,15.7c-0.1,0.4-0.5,0.6-0.9,0.6h-6.6c-0.4,0-0.7-0.3-0.8-0.6L177.1,72C177,71.6,177.3,71.3,177.7,71.3z"/>
		<path d="M226.8,71.3h5.6c0.4,0,0.7,0.3,0.7,0.7v27.1c0,0.4-0.3,0.7-0.7,0.7h-5.6c-0.4,0-0.7-0.3-0.7-0.7V72
			C226,71.6,226.4,71.3,226.8,71.3z"/>
		<path d="M240.9,92c0.2-0.3,0.7-0.4,1-0.2c1.1,0.9,3.7,2.6,7.2,2.6c2,0,3.8-0.9,3.8-2.6c0-4.3-13.9-3.7-13.9-12.9
			c0-5.3,4.8-8.4,10.9-8.4c4.6,0,7.5,1.7,8.8,2.6c0.5,0.3,0.6,1,0.3,1.5l-1.8,3.7c-0.2,0.4-0.6,0.5-1,0.3c-1-0.7-3.3-2-6.4-2
			c-1.8,0-3.6,0.8-3.6,2.6c0,4,13.9,3.5,13.9,12.7c0,4.8-4.1,8.6-10.9,8.6c-5.3,0-8.8-2.3-10.3-3.5c-0.5-0.4-0.6-1-0.3-1.6L240.9,92
			z"/>
		<path d="M277.1,70.6c8.2,0,12.7,6,12.7,13.6c0,0.6-0.1,1.6-0.1,2.2c0,0.3-0.3,0.6-0.6,0.6h-19.2c0.4,5,4.3,7.6,8.6,7.6
			c3.4,0,6.3-1.8,7.6-2.6c0.4-0.3,0.9-0.1,1.1,0.3l1.9,3.5c0.3,0.5,0.1,1.1-0.3,1.4c-1.5,1.1-5.3,3.5-10.7,3.5
			c-9.5,0-15.3-6.8-15.3-15C262.6,76.7,268.6,70.6,277.1,70.6z M282.6,82c-0.1-3.9-2.5-5.9-5.7-5.9c-3.6,0-6.2,2.2-6.8,5.9H282.6z"
			/>
		<g>
			<path d="M291.5,62.4c2.5,0,4.5,2,4.5,4.6c0,2.6-2,4.6-4.5,4.6c-2.5,0-4.5-2-4.5-4.6C287.1,64.4,289.1,62.4,291.5,62.4z
				 M291.5,70.7c2,0,3.6-1.6,3.6-3.7c0-2.1-1.6-3.7-3.6-3.7c-2,0-3.5,1.6-3.5,3.7C288,69.1,289.5,70.7,291.5,70.7z M290,65
				c0-0.3,0.1-0.4,0.4-0.4h1.4c0.9,0,1.5,0.6,1.5,1.4c0,0.7-0.5,1.2-0.9,1.3v0c0,0,0,0,0.2,0.3l0.7,1.3c0.2,0.3,0.1,0.5-0.2,0.5
				h-0.2c-0.2,0-0.4-0.1-0.5-0.3l-0.7-1.5h-0.8v1.4c0,0.3-0.1,0.4-0.4,0.4h-0.1c-0.3,0-0.4-0.1-0.4-0.4V65z M291.6,66.9
				c0.5,0,0.8-0.3,0.8-0.8c0-0.5-0.3-0.8-0.8-0.8h-0.8v1.6H291.6z"/>
		</g>
	</g>
	<g>
		<path class="st2" d="M57.1,112.1h-0.8c-0.3,0-0.5-0.2-0.5-0.5v-0.2c0-0.3,0.2-0.5,0.5-0.5h0.8v-0.4c0-3.1,2.3-3.6,3.2-3.6h0.2
			c0.3,0,0.5,0.2,0.5,0.5v0.2c0,0.3-0.2,0.4-0.5,0.5c-0.8,0-2.1,0.3-2.1,2.4v0.4h2c0.3,0,0.5,0.2,0.5,0.5v0.2c0,0.3-0.2,0.5-0.5,0.5
			h-2v8c0,0.3-0.2,0.5-0.5,0.5h-0.4c-0.3,0-0.5-0.2-0.5-0.5V112.1z"/>
		<path class="st2" d="M66.6,110.7c2.8,0,5.1,2.1,5.1,5c0,2.9-2.3,5.1-5.1,5.1c-2.8,0-5.1-2.2-5.1-5.1
			C61.5,112.8,63.8,110.7,66.6,110.7z M66.6,119.6c2.1,0,3.7-1.7,3.7-3.9c0-2.2-1.7-3.8-3.7-3.8c-2.1,0-3.8,1.7-3.8,3.8
			C62.9,117.9,64.6,119.6,66.6,119.6z"/>
		<path class="st2" d="M73.5,111.4c0-0.3,0.2-0.5,0.5-0.5h0.3c0.3,0,0.5,0.2,0.5,0.5v1.3c0,0.4-0.1,0.8-0.1,0.8h0
			c0.5-1.4,1.6-2.6,3.1-2.6c0.3,0,0.5,0.2,0.5,0.5v0.3c0,0.3-0.2,0.5-0.5,0.5c-2,0-3,2.3-3,4.3v3.6c0,0.3-0.2,0.5-0.5,0.5H74
			c-0.3,0-0.5-0.2-0.5-0.5V111.4z"/>
		<path class="st2" d="M89.4,110.7c2.6,0,4,1.9,4,4.6c0,0.3-0.2,0.5-0.5,0.5H86c0.1,2.5,1.7,3.9,3.7,3.9c1.2,0,2.1-0.5,2.5-0.9
			c0.3-0.2,0.5-0.1,0.6,0.1l0.2,0.2c0.1,0.2,0.1,0.5-0.1,0.6c-0.5,0.4-1.7,1.1-3.2,1.1c-2.9,0-5-2.1-5-5
			C84.7,112.6,86.8,110.7,89.4,110.7z M92.1,114.8c-0.1-2-1.3-3-2.7-3c-1.6,0-3,1.1-3.3,3H92.1z"/>
		<path class="st2" d="M94.7,111.5c-0.1-0.3,0-0.6,0.4-0.6h0.4c0.2,0,0.4,0.1,0.5,0.4l2.6,6.7c0.2,0.5,0.3,1.2,0.3,1.2h0
			c0,0,0.2-0.7,0.3-1.2l2.5-6.7c0.1-0.3,0.3-0.4,0.5-0.4h0.4c0.4,0,0.5,0.2,0.4,0.6l-3.4,8.7c-0.1,0.2-0.3,0.4-0.5,0.4h-0.6
			c-0.3,0-0.4-0.1-0.5-0.4L94.7,111.5z"/>
		<path class="st2" d="M109,110.7c2.6,0,4,1.9,4,4.6c0,0.3-0.2,0.5-0.5,0.5h-6.9c0.1,2.5,1.7,3.9,3.7,3.9c1.2,0,2.1-0.5,2.5-0.9
			c0.3-0.2,0.5-0.1,0.6,0.1l0.2,0.2c0.1,0.2,0.1,0.5-0.1,0.6c-0.5,0.4-1.7,1.1-3.2,1.1c-2.9,0-5-2.1-5-5
			C104.2,112.6,106.4,110.7,109,110.7z M111.7,114.8c-0.1-2-1.3-3-2.7-3c-1.6,0-3,1.1-3.3,3H111.7z"/>
		<path class="st2" d="M115.5,111.4c0-0.3,0.2-0.5,0.5-0.5h0.3c0.3,0,0.5,0.2,0.5,0.5v1.3c0,0.4-0.1,0.8-0.1,0.8h0
			c0.5-1.4,1.6-2.6,3.1-2.6c0.3,0,0.5,0.2,0.5,0.5v0.3c0,0.3-0.2,0.5-0.5,0.5c-2,0-3,2.3-3,4.3v3.6c0,0.3-0.2,0.5-0.5,0.5H116
			c-0.3,0-0.5-0.2-0.5-0.5V111.4z"/>
		<path class="st2" d="M121.4,123.2c0.2,0.1,0.5,0.2,0.8,0.2c0.9,0,1.4-0.7,1.8-1.6l0.6-1.4l-3.8-9c-0.1-0.3,0-0.6,0.4-0.6h0.4
			c0.3,0,0.4,0.1,0.5,0.4l2.7,6.7c0.2,0.5,0.3,1,0.3,1h0c0,0,0.1-0.5,0.3-1l2.6-6.7c0.1-0.3,0.2-0.4,0.5-0.4h0.4
			c0.3,0,0.5,0.2,0.4,0.6l-4.5,11.1c-0.5,1.2-1.5,2.1-2.8,2.1c-0.6,0-1-0.2-1.3-0.3c-0.2-0.1-0.3-0.4-0.2-0.6l0.1-0.2
			C121,123.2,121.2,123.1,121.4,123.2z"/>
		<path class="st2" d="M136.2,107.6c0-0.3,0.2-0.5,0.5-0.5h0.4c0.3,0,0.5,0.2,0.5,0.5v4.8c0,0.4-0.1,0.8-0.1,0.8h0
			c0.4-0.9,1.7-2.5,3.9-2.5c2.4,0,3.2,1.4,3.2,3.7v5.7c0,0.3-0.2,0.5-0.5,0.5h-0.4c-0.3,0-0.5-0.2-0.5-0.5v-5.3
			c0-1.5-0.2-2.9-2.1-2.9c-2,0-3.6,1.7-3.6,4v4.2c0,0.3-0.2,0.5-0.5,0.5h-0.4c-0.3,0-0.5-0.2-0.5-0.5V107.6z"/>
		<path class="st2" d="M151.4,110.7c2.6,0,4,1.9,4,4.6c0,0.3-0.2,0.5-0.5,0.5H148c0.1,2.5,1.7,3.9,3.7,3.9c1.2,0,2.1-0.5,2.5-0.9
			c0.3-0.2,0.5-0.1,0.6,0.1l0.2,0.2c0.1,0.2,0.1,0.5-0.1,0.6c-0.5,0.4-1.7,1.1-3.2,1.1c-2.9,0-5-2.1-5-5
			C146.6,112.6,148.8,110.7,151.4,110.7z M154.1,114.8c-0.1-2-1.3-3-2.7-3c-1.6,0-3,1.1-3.3,3H154.1z"/>
		<path class="st2" d="M162.6,114.7h0.6v-0.3c0-1.9-1-2.5-2.4-2.5c-1.1,0-1.9,0.4-2.3,0.7c-0.3,0.1-0.5,0.1-0.7-0.2l-0.1-0.2
			c-0.2-0.2-0.1-0.5,0.1-0.7c0.5-0.3,1.6-0.8,3.1-0.8c2.3,0,3.6,1.3,3.6,3.7v5.7c0,0.3-0.2,0.5-0.5,0.5h-0.3c-0.3,0-0.5-0.2-0.5-0.5
			v-0.8c0-0.4,0.1-0.7,0.1-0.7h0c0,0-0.9,2.2-3.3,2.2c-1.6,0-3.3-1-3.3-2.8C156.7,114.8,160.7,114.7,162.6,114.7z M160.2,119.7
			c1.9,0,3-1.9,3-3.6v-0.5h-0.5c-1.5,0-4.6,0.1-4.6,2.2C158,118.8,158.7,119.7,160.2,119.7z"/>
		<path class="st2" d="M167.3,107.6c0-0.3,0.2-0.5,0.5-0.5h0.4c0.3,0,0.5,0.2,0.5,0.5V118c0,1.2,0.6,1.3,1,1.4
			c0.2,0,0.4,0.1,0.4,0.4v0.3c0,0.3-0.1,0.5-0.5,0.5c-0.8,0-2.2-0.2-2.2-2.4V107.6z"/>
		<path class="st2" d="M172.3,112.1h-0.8c-0.3,0-0.5-0.2-0.5-0.5v-0.2c0-0.3,0.2-0.5,0.5-0.5h0.8v-2.3c0-0.3,0.2-0.5,0.5-0.5h0.3
			c0.3,0,0.5,0.2,0.5,0.5v2.3h2c0.3,0,0.5,0.2,0.5,0.5v0.2c0,0.3-0.2,0.5-0.5,0.5h-2v4.8c0,2.2,1.4,2.5,2.1,2.5
			c0.4,0,0.5,0.2,0.5,0.5v0.3c0,0.3-0.2,0.5-0.5,0.5c-2.1,0-3.4-1.3-3.4-3.6V112.1z"/>
		<path class="st2" d="M178,107.6c0-0.3,0.2-0.5,0.5-0.5h0.4c0.3,0,0.5,0.2,0.5,0.5v4.8c0,0.4-0.1,0.8-0.1,0.8h0
			c0.4-0.9,1.7-2.5,3.9-2.5c2.4,0,3.2,1.4,3.2,3.7v5.7c0,0.3-0.2,0.5-0.5,0.5h-0.4c-0.3,0-0.5-0.2-0.5-0.5v-5.3
			c0-1.5-0.2-2.9-2.1-2.9c-2,0-3.6,1.7-3.6,4v4.2c0,0.3-0.2,0.5-0.5,0.5h-0.4c-0.3,0-0.5-0.2-0.5-0.5V107.6z"/>
		<path class="st2" d="M197.8,110.7c2.3,0,3.2,1.9,3.2,1.9h0c0,0-0.1-0.3-0.1-0.7v-4.3c0-0.3,0.2-0.5,0.5-0.5h0.4
			c0.3,0,0.5,0.2,0.5,0.5v12.5c0,0.3-0.2,0.5-0.5,0.5h-0.3c-0.3,0-0.5-0.2-0.5-0.5v-0.7c0-0.3,0.1-0.6,0.1-0.6h0c0,0-0.8,2-3.4,2
			c-2.6,0-4.2-2.1-4.2-5.1C193.4,112.7,195.2,110.7,197.8,110.7z M197.8,119.6c1.6,0,3.1-1.2,3.1-3.9c0-2-1-3.9-3.1-3.9
			c-1.7,0-3.1,1.4-3.1,3.9C194.8,118.1,196,119.6,197.8,119.6z"/>
		<path class="st2" d="M209.1,110.7c2.6,0,4,1.9,4,4.6c0,0.3-0.2,0.5-0.5,0.5h-6.9c0.1,2.5,1.7,3.9,3.7,3.9c1.2,0,2.1-0.5,2.5-0.9
			c0.3-0.2,0.5-0.1,0.6,0.1l0.2,0.2c0.1,0.2,0.1,0.5-0.1,0.6c-0.5,0.4-1.7,1.1-3.2,1.1c-2.9,0-5-2.1-5-5
			C204.4,112.6,206.5,110.7,209.1,110.7z M211.8,114.8c-0.1-2-1.3-3-2.7-3c-1.6,0-3,1.1-3.3,3H211.8z"/>
		<path class="st2" d="M219.7,110.7c1.7,0,2.7,0.7,3.2,1.1c0.2,0.2,0.2,0.4,0.1,0.7l-0.1,0.2c-0.2,0.3-0.4,0.3-0.7,0.1
			c-0.4-0.3-1.3-0.9-2.4-0.9c-2.1,0-3.8,1.6-3.8,3.9c0,2.3,1.6,3.9,3.8,3.9c1.3,0,2.3-0.6,2.7-1c0.3-0.2,0.5-0.2,0.6,0.1l0.1,0.2
			c0.2,0.2,0.1,0.5-0.1,0.7c-0.5,0.4-1.7,1.2-3.4,1.2c-2.9,0-5.1-2.1-5.1-5C214.6,112.8,216.8,110.7,219.7,110.7z"/>
		<path class="st2" d="M225.4,108.2v-0.7c0-0.3,0.2-0.5,0.5-0.5h0.5c0.3,0,0.5,0.2,0.5,0.5v0.7c0,0.3-0.2,0.5-0.5,0.5h-0.5
			C225.6,108.7,225.4,108.5,225.4,108.2z M225.5,111.4c0-0.3,0.2-0.5,0.5-0.5h0.4c0.3,0,0.5,0.2,0.5,0.5v8.7c0,0.3-0.2,0.5-0.5,0.5
			H226c-0.3,0-0.5-0.2-0.5-0.5V111.4z"/>
		<path class="st2" d="M229.2,119l0.2-0.2c0.2-0.2,0.4-0.2,0.7-0.1c0.4,0.3,1.3,0.9,2.6,0.9c1.1,0,2-0.5,2-1.6
			c0-2.2-5.2-1.5-5.2-4.7c0-1.8,1.5-2.7,3.3-2.7c1.4,0,2.2,0.5,2.6,0.8c0.2,0.2,0.3,0.4,0.1,0.6l-0.1,0.2c-0.2,0.3-0.4,0.3-0.7,0.1
			c-0.4-0.2-1.1-0.6-2.1-0.6c-1,0-1.9,0.4-1.9,1.5c0,2.2,5.1,1.5,5.1,4.7c0,1.6-1.3,2.7-3.3,2.7c-1.7,0-2.8-0.7-3.3-1.1
			C229,119.5,229,119.3,229.2,119z"/>
		<path class="st2" d="M238,108.2v-0.7c0-0.3,0.2-0.5,0.5-0.5h0.5c0.3,0,0.5,0.2,0.5,0.5v0.7c0,0.3-0.2,0.5-0.5,0.5h-0.5
			C238.1,108.7,238,108.5,238,108.2z M238,111.4c0-0.3,0.2-0.5,0.5-0.5h0.4c0.3,0,0.5,0.2,0.5,0.5v8.7c0,0.3-0.2,0.5-0.5,0.5h-0.4
			c-0.3,0-0.5-0.2-0.5-0.5V111.4z"/>
		<path class="st2" d="M246.7,110.7c2.8,0,5.1,2.1,5.1,5c0,2.9-2.3,5.1-5.1,5.1c-2.8,0-5.1-2.2-5.1-5.1
			C241.6,112.8,243.9,110.7,246.7,110.7z M246.7,119.6c2.1,0,3.7-1.7,3.7-3.9c0-2.2-1.7-3.8-3.7-3.8c-2.1,0-3.8,1.7-3.8,3.8
			C243,117.9,244.7,119.6,246.7,119.6z"/>
		<path class="st2" d="M253.8,111.4c0-0.3,0.2-0.5,0.5-0.5h0.3c0.3,0,0.5,0.2,0.5,0.5v1.1c0,0.4-0.1,0.7-0.1,0.7h0
			c0.4-0.9,1.6-2.5,3.9-2.5c2.4,0,3.2,1.4,3.2,3.7v5.7c0,0.3-0.2,0.5-0.5,0.5h-0.4c-0.3,0-0.5-0.2-0.5-0.5v-5.3
			c0-1.5-0.2-2.9-2.1-2.9c-2.1,0-3.7,1.7-3.7,3.9v4.2c0,0.3-0.2,0.5-0.5,0.5h-0.4c-0.3,0-0.5-0.2-0.5-0.5V111.4z"/>
		<g>
			<path class="st2" d="M264.7,106.5c1.4,0,2.4,1.1,2.4,2.5c0,1.4-1.1,2.5-2.4,2.5c-1.3,0-2.4-1.1-2.4-2.5
				C262.3,107.6,263.4,106.5,264.7,106.5z M264.7,111c1.1,0,1.9-0.9,1.9-2c0-1.1-0.8-2-1.9-2c-1.1,0-1.9,0.9-1.9,2
				C262.8,110.1,263.6,111,264.7,111z M263.9,107.9c0-0.1,0.1-0.2,0.2-0.2h0.8c0.5,0,0.8,0.3,0.8,0.8c0,0.4-0.3,0.6-0.5,0.7v0
				c0,0,0,0,0.1,0.1l0.4,0.7c0.1,0.2,0,0.3-0.1,0.3h-0.1c-0.1,0-0.2,0-0.3-0.2l-0.4-0.8h-0.4v0.8c0,0.1-0.1,0.2-0.2,0.2h-0.1
				c-0.1,0-0.2-0.1-0.2-0.2V107.9z M264.8,108.9c0.3,0,0.4-0.2,0.4-0.4c0-0.3-0.2-0.4-0.4-0.4h-0.4v0.9H264.8z"/>
		</g>
	</g>
	<g>
		<path class="st3" d="M180.8,14.1C167.2,14,156,25,156,38.6c0,4,1,7.8,2.7,11.2c0,0.1,0.2,0,0.1-0.1c-1-2.4-1.5-5-1.4-7.8
			c0.3-10.4,8.9-18.7,19.3-18.6c10.5,0.1,18.9,8.5,19,19c0.1,10.4-8.2,19-18.6,19.3c-2.8,0.1-5.4-0.4-7.8-1.4
			c-0.1,0-0.1,0.1-0.1,0.1c3.4,1.7,7.2,2.7,11.2,2.7c13.6,0,24.7-11.2,24.5-24.8C204.8,25,194.1,14.3,180.8,14.1z"/>
		<path class="st3" d="M176,27.4c-7.8,0.2-14.3,6.5-14.7,14.4c-0.1,2.7,0.4,5.3,1.5,7.6c0,0.1,0.1,0,0.1,0c-0.3-1-0.4-2.2-0.4-3.3
			c0.3-5.1,4.4-9.3,9.5-9.5c5.9-0.3,10.8,4.6,10.5,10.5c-0.2,5.1-4.4,9.3-9.5,9.5c-1.2,0.1-2.3-0.1-3.3-0.4c-0.1,0-0.1,0.1,0,0.1
			c2.3,1.1,4.9,1.7,7.6,1.6c7.8-0.4,14.1-6.9,14.4-14.7C192,34.3,184.8,27.1,176,27.4z"/>
		<circle class="st3" cx="172.6" cy="46.5" r="5.9"/>
	</g>
</g>
</svg>
