<svg xmlns="http://www.w3.org/2000/svg" xmlns:xlink="http://www.w3.org/1999/xlink" viewBox="0 0 157 34" ><title>Texas Health Practice Group</title><desc>Logo image for Texas Health Practice Groups</desc><defs><path id="a" d="M0 34h156.217V.433H0z"/></defs><g fill="none" fill-rule="evenodd"><path fill="#00539B" d="M115.494 31.172c-1.327.688-2.391.934-4.012.934-2.228 0-3.718-.508-4.816-1.622-.95-.982-1.425-2.293-1.425-3.898 0-3.488 2.424-5.798 6.109-5.798 1.343 0 2.489.246 3.538.77v1.458c-1.113-.639-2.326-.95-3.668-.95-2.9 0-4.44 1.572-4.44 4.537 0 2.833 1.475 4.241 4.456 4.241 1.113 0 2.047-.147 2.849-.442v-2.244h-2.277v-1.277h3.686v4.291zM117.019 24.064h1.26v1.54c.59-1.065 1.327-1.605 2.244-1.605.328 0 .475.033.852.18v1.162c-.328-.114-.443-.13-.82-.13-1.391 0-2.275.818-2.275 2.112v4.586h-1.261v-7.845zM123.06 28.028c0 1.916.835 2.883 2.506 2.883 1.704 0 2.522-.934 2.522-2.883 0-1.95-.818-2.915-2.456-2.915-1.737 0-2.572.95-2.572 2.915m-1.343-.016c0-2.523 1.458-4.08 3.833-4.08 2.472 0 3.88 1.476 3.88 4.064 0 2.554-1.424 4.045-3.848 4.045-2.456 0-3.865-1.458-3.865-4.03M130.545 24.064h1.278v5.045c0 1.261.54 1.867 1.654 1.867 1.36 0 2.162-.77 2.162-2.047v-4.865h1.261v7.845h-1.261v-1.048c-.639.802-1.393 1.18-2.391 1.18-1.687 0-2.703-1.082-2.703-2.883v-5.094zM139.302 27.973c0 1.867.787 2.834 2.294 2.834 1.588 0 2.276-.852 2.276-2.867 0-1.9-.737-2.834-2.227-2.834-1.524 0-2.343 1-2.343 2.867zm0 5.992h-1.261v-9.939h1.26v1.097c.657-.868 1.378-1.229 2.49-1.229 2.13 0 3.408 1.54 3.408 4.112 0 2.522-1.23 3.996-3.325 3.996-1.032 0-1.785-.328-2.572-1.13v3.093zM95.853 30.092c.9.475 1.884.754 2.736.754.835 0 1.293-.328 1.293-.95 0-.59-.115-.705-1.163-1.147l-1.064-.458c-1.392-.59-1.802-1.065-1.802-2.097 0-1.49.967-2.261 2.834-2.261.785 0 1.326.099 2.258.41v1.327c-.735-.361-1.504-.524-2.356-.524-1.016 0-1.392.262-1.392.967 0 .49.178.703.85.982l1.457.622c1.261.524 1.72 1.08 1.72 2.08 0 1.376-1.08 2.244-2.767 2.244-.834 0-1.77-.23-2.603-.64v-1.31zM40.849 26.357h2.653c1.474 0 2.178-.672 2.178-2.064 0-1.376-.721-2.063-2.161-2.063h-2.67v4.127zm0 1.261v4.291h-1.393V20.985h4.226c1.26 0 1.982.246 2.588.901.573.606.884 1.441.884 2.358 0 2.031-1.36 3.374-3.423 3.374h-2.882zM48.138 20.985H49.4v4.03c.753-.754 1.523-1.082 2.555-1.082 1.654 0 2.604 1.015 2.604 2.785v5.191h-1.261v-4.995c0-1.327-.476-1.834-1.72-1.834-1.442 0-2.178.671-2.178 2.014v4.815h-1.262V20.985zM62.695 30.092c.901.475 1.884.754 2.735.754.835 0 1.294-.328 1.294-.95 0-.59-.115-.705-1.163-1.147l-1.065-.458c-1.392-.59-1.8-1.065-1.8-2.097 0-1.49.965-2.261 2.832-2.261.787 0 1.327.099 2.261.41v1.327c-.738-.36-1.508-.524-2.359-.524-1.016 0-1.392.262-1.392.967 0 .49.18.703.852.982l1.457.622c1.261.525 1.72 1.08 1.72 2.08 0 1.376-1.08 2.244-2.768 2.244-.835 0-1.769-.23-2.604-.64v-1.31z"/><mask id="b" fill="#fff"><use xlink:href="#a"/></mask><path fill="#00539B" d="M69.119 31.91h1.261v-7.846h-1.261v7.846zm0-9.648h1.261v-1.277h-1.261v1.277zM77.376 30.436v1.145a4.936 4.936 0 0 1-2.162.46c-2.31 0-3.734-1.54-3.734-4.03 0-2.456 1.556-4.078 3.947-4.078.72 0 1.294.131 1.949.41v1.277c-.64-.344-1.146-.475-1.867-.475-1.737 0-2.687 1.015-2.687 2.884 0 .982.312 1.85.82 2.308.409.345.933.509 1.686.509.72 0 1.475-.148 2.048-.41M78.49 31.91h1.261v-7.846H78.49v7.846zm0-9.648h1.261v-1.277H78.49v1.277zM85.79 28.42h-1.9c-1.217 0-1.724.362-1.724 1.197 0 .852.458 1.26 1.476 1.26 1.412 0 2.149-.54 2.149-1.572v-.884zm0-1.064v-.851c0-.918-.572-1.36-1.752-1.36-.906 0-1.594.13-2.348.426v-1.195a6.372 6.372 0 0 1 2.397-.443c1.933 0 2.98.868 2.98 2.473V29.6c0 1.114.067 1.343.509 1.884l-1.13.622c-.278-.425-.442-.524-.835-.524-.164 0-.344.017-.525.082l-.736.213a3.413 3.413 0 0 1-1.087.164c-1.475 0-2.441-.934-2.441-2.375 0-.705.295-1.36.786-1.77.459-.408.95-.54 1.869-.54h2.314zM88.543 24.064h1.261v1.114c.672-.835 1.507-1.245 2.572-1.245.752 0 1.473.262 1.932.721.475.458.655 1.015.655 1.95v5.306h-1.261v-5.094c0-1.212-.523-1.769-1.654-1.769-1.376 0-2.244.737-2.244 1.932v4.931h-1.261v-7.846zM54.966 24.064h1.392l2.457 5.11 2.277-5.11h1.343L57.898 34h-1.31l1.523-3.368z" mask="url(#b)"/><path fill="#00A160" d="M22.1 3.875l.046.094.096.04a12.6 12.6 0 0 1 4.212 2.788c2.898 2.922 4.25 7.292 3.145 10.162a3.925 3.925 0 0 1-.877 1.386c-.725.727-1.762 1.132-3.08 1.196H22.97v.27l.002 2.237v.268h.269l2.504.003c3.128-.144 5.406-1.693 6.43-4.359 1.499-3.894-.085-9.414-3.766-13.126-2.28-2.296-5.448-3.892-8.481-4.27l-1.06-.132.87.621A7.369 7.369 0 0 1 22.1 3.875zM32.144 20.17a7.397 7.397 0 0 1-2.82 2.361l-.096.045-.04.098a12.569 12.569 0 0 1-2.791 4.212c-2.92 2.897-7.29 4.25-10.16 3.145-1.594-.613-2.488-1.98-2.584-3.956l.002-2.4v-.272h-2.78v.271c0 2.522 0 2.524.003 2.55.144 3.087 1.69 5.36 4.357 6.382 3.894 1.5 9.416-.084 13.127-3.766 2.295-2.28 3.89-5.449 4.27-8.479l.135-1.057-.623.866zM3.446 11.095l.092-.045.039-.099a12.58 12.58 0 0 1 2.79-4.209c2.917-2.899 7.286-4.25 10.16-3.145 1.593.612 2.485 1.982 2.582 3.957-.001-.014-.001 2.396-.001 2.396v.271h2.78V7.436c-.15-3.116-1.693-5.39-4.358-6.415-3.898-1.5-9.42.085-13.127 3.768C2.106 7.067.51 10.24.132 13.27L0 14.328l.62-.87a7.355 7.355 0 0 1 2.826-2.364zm7.217 18.658l-.044-.095-.098-.038a12.617 12.617 0 0 1-4.211-2.789c-2.898-2.92-4.254-7.29-3.147-10.163a4.044 4.044 0 0 1 .876-1.387c.728-.726 1.763-1.129 3.083-1.195H9.79V11.31H7.012a3.755 3.755 0 0 0-.043.004h.029C3.886 11.454 1.614 13 .587 15.665c-1.498 3.895.087 9.415 3.768 13.128 2.277 2.291 5.448 3.887 8.48 4.268l1.063.133-.868-.62a7.374 7.374 0 0 1-2.367-2.822z" mask="url(#b)"/><path fill="#00539B" d="M14.652 11.31v2.727h10.945c1.202.058 2.184.4 2.904 1.014l.436.373.012-.573c.019-.898-.148-1.89-.48-2.87l-.041-.123-.121-.044a8.653 8.653 0 0 0-2.607-.505H14.652zM19.044 26.964a4.528 4.528 0 0 1-.487 1.383 3.552 3.552 0 0 1-.408.587l-.37.434.57.01c.893.019 1.883-.146 2.864-.474l.125-.042.044-.122c.293-.802.466-1.68.507-2.61l-.007-10.776v-.27h-2.73v.27l.003 4.318v1l.004 5.377c-.015.298-.05.583-.098.853-.004.022-.012.04-.017.062M13.605 18.272c0-8.567 0-10.551.003-10.68.06-1.214.4-2.182 1.007-2.898l.37-.434-.57-.01c-.896-.018-1.89.145-2.866.473l-.124.042-.044.124a8.734 8.734 0 0 0-.505 2.608l-.001 10.775v.27h2.73v-.27zM4.334 21.77l.123.045a8.798 8.798 0 0 0 2.607.503l10.776-.004.269-.001v-.268l-.002-2.19-.001-.271h-.267l-10.699.008c-1.189-.061-2.161-.402-2.878-1.014l-.433-.372-.011.573c-.02.896.145 1.887.476 2.867l.04.124zM49.522 1.77V4.57h-3.96v12.377h-3.525V4.569h-3.868V1.77z" mask="url(#b)"/><path fill="#00539B" d="M51.113 10.53h3.64v-.569c0-1.092-.659-1.75-1.75-1.75-1.116 0-1.89.704-1.89 1.773v.546zm6.44 3.686v2.343l-.274.068-.819.251c-.523.16-1.525.273-2.48.273-3.936 0-6.12-2.07-6.12-5.802 0-3.39 2.025-5.483 5.392-5.483 1.57 0 2.617.455 3.527 1.48.886 1.023 1.137 1.91 1.137 3.958v1.001H51.16c.068 1.57 1.16 2.32 3.413 2.32 1.251 0 1.82-.09 2.98-.409zM58.325 6.048h3.731l2.048 3.231 1.957-3.23h3.572l-3.8 5.414 3.89 5.483h-3.776l-2.025-3.253-2.024 3.253H58.28l3.913-5.483zM76.503 12.532h-1.547c-1.024 0-1.547.41-1.547 1.183 0 .683.455 1.092 1.25 1.092h.57c.842 0 1.274-.432 1.274-1.342v-.933zm-5.414-5.756c1.114-.569 2.593-.91 3.98-.91 1.16 0 2.162.204 2.98.57 1.093.5 1.503 1.182 1.503 2.433v5.073c0 .683.182 1.07.773 1.616l-2.002 1.638c-.068-.046-.137-.114-.182-.136-.591-.524-.751-.592-1.342-.592-.341 0-.614.068-1.047.205-1.32.432-1.478.477-2.434.477-2.002 0-3.253-1.206-3.253-3.162 0-2.093 1.637-3.367 4.299-3.367h.978c.775 0 1.16-.34 1.16-1.07 0-.91-.522-1.25-1.797-1.25-1.183 0-2.934.363-3.616.773V6.776zM81.416 14.034c1.161.57 2.571.955 3.595.955.91 0 1.365-.34 1.365-1.023 0-.547-.228-.774-1-1.115l-1.48-.637c-1.866-.797-2.57-1.639-2.57-3.072 0-2.138 1.614-3.276 4.64-3.276 1.39 0 2.208.137 2.912.478V8.62c-.84-.409-1.75-.615-2.82-.615-1.002 0-1.479.296-1.479.865 0 .455.228.683 1.024 1.002l1.957.818c1.432.592 2.047 1.48 2.047 2.912 0 2.185-1.66 3.527-4.39 3.527-1.526 0-2.845-.25-3.8-.705v-2.389zM96.591 1.77h3.526v5.962h6.325V1.77h3.572l-.068 15.175h-3.504V10.44h-6.325v6.506h-3.526zM114.426 10.53h3.64v-.569c0-1.092-.659-1.75-1.75-1.75-1.117 0-1.89.704-1.89 1.773v.546zm6.44 3.686v2.343l-.274.068-.82.251c-.523.16-1.524.273-2.479.273-3.937 0-6.119-2.07-6.119-5.802 0-3.39 2.024-5.483 5.391-5.483 1.57 0 2.616.455 3.527 1.48.886 1.023 1.137 1.91 1.137 3.958v1.001h-6.758c.07 1.57 1.161 2.32 3.413 2.32 1.251 0 1.82-.09 2.981-.409zM128.759 12.532h-1.547c-1.024 0-1.547.41-1.547 1.183 0 .683.455 1.092 1.25 1.092h.57c.842 0 1.274-.432 1.274-1.342v-.933zm-5.415-5.756c1.115-.569 2.594-.91 3.982-.91 1.16 0 2.16.204 2.98.57 1.092.5 1.502 1.182 1.502 2.433v5.073c0 .683.18 1.07.773 1.616l-2.002 1.638c-.068-.046-.136-.114-.182-.136-.591-.524-.751-.592-1.342-.592-.341 0-.614.068-1.047.205-1.32.432-1.478.477-2.434.477-2.002 0-3.253-1.206-3.253-3.162 0-2.093 1.638-3.367 4.299-3.367h.979c.774 0 1.16-.34 1.16-1.07 0-.91-.523-1.25-1.798-1.25-1.182 0-2.934.363-3.617.773V6.776zM136.837 1.77l-.013 15.176h-3.15l-.022-15.175zM137.926 6.048h1.48V2.703h3.161v3.345h2.435v1.866h-2.435v5.301c0 1.001.295 1.32 1.251 1.32h1.184v2.411h-2.73c-1.867 0-2.867-.978-2.867-2.798V7.914h-1.479V6.048zM149.415 7.277c1.251-1.092 2.002-1.41 3.344-1.41 2.184 0 3.46 1.16 3.46 3.162v7.918h-3.278V9.939c0-.91-.592-1.456-1.592-1.456-1.206 0-1.934.75-1.934 2.002v6.462h-3.208V1.77h3.208v5.506zM145.928 22.239c.232 0 .437-.023.437-.296 0-.227-.223-.254-.41-.254h-.372v.55h.345zm-.345 1.068h-.31v-1.882h.715c.455 0 .686.159.686.54 0 .342-.21.483-.491.515l.528.827h-.35l-.487-.804h-.291v.804zm.336-2.378c-.737 0-1.31.578-1.31 1.405 0 .773.5 1.406 1.31 1.406.728 0 1.3-.573 1.3-1.406 0-.827-.572-1.405-1.3-1.405zm0 3.106c-.977 0-1.674-.732-1.674-1.701 0-1.023.774-1.701 1.674-1.701.89 0 1.664.678 1.664 1.7 0 1.025-.773 1.702-1.664 1.702z" mask="url(#b)"/></g></svg>