<?xml version="1.0" encoding="utf-8"?>
<!-- Generator: Adobe Illustrator 23.1.1, SVG Export Plug-In . SVG Version: 6.00 Build 0)  -->
<svg version="1.1" id="Layer_1" xmlns="http://www.w3.org/2000/svg" xmlns:xlink="http://www.w3.org/1999/xlink" x="0px" y="0px"
	 viewBox="0 0 343.81 354.42" style="enable-background:new 0 0 343.81 354.42;" xml:space="preserve">
<style type="text/css">
	.st0{fill-rule:evenodd;clip-rule:evenodd;fill:#0E6674;}
	.st1{fill-rule:evenodd;clip-rule:evenodd;fill:#FEFEFE;stroke:#0E6674;stroke-width:0.5149;stroke-miterlimit:2.6131;}
	.st2{fill:#0E6674;}
	.st3{font-family:'ZapfHumanist601BT-Roman';}
	.st4{font-size:23.5693px;}
	.st5{font-family:'ZapfHumanist601BT-Ultra';}
	.st6{font-size:27.5502px;}
	.st7{font-size:34.0887px;}
</style>
<g>
	<polygon class="st0" points="138.16,60.81 138.16,115.49 76.99,115.49 76.99,170.71 138.16,170.71 138.16,312.3 206.71,312.3 
		206.71,170.71 267.42,170.71 267.42,115.49 206.71,115.49 206.71,60.81 138.16,60.81 	"/>
	<path class="st1" d="M115.04,128.95c-47.33,39.2-60.41,161.07,69.01,171.04c82.86-10.33,99.52-75.14,54.06-155.34
		c-2.33-4.11-5.67-9.52-14.28-10.41c-1.89-28.04-25.26-35.13-36.78-26.5c-18.45,10.85-6.52,31.53,15.78,40.41
		c-18.04,13.26-47.94,0.33-60.79-15.22c39.69-30.84,30.28-56.17,7.5-59.67C108.41,68.91,126.54,110.39,115.04,128.95L115.04,128.95z
		 M180.63,167.18c34.29,5.08,56.15,24.11,59.54,52.39c3.39,28.27-18.87,65.93-58.06,62.86c-39.19-3.07-67.08-34.72-63.24-66.14
		C122.71,184.87,146.34,162.1,180.63,167.18L180.63,167.18z"/>
	<text transform="matrix(0.1736 0.9848 -0.9848 0.1736 2.4489 200.3922)" class="st2 st3 st4">M</text>
	<text transform="matrix(0.2588 0.9659 -0.9659 0.2588 6.6186 220.6151)" class="st2 st3 st4">i</text>
	<text transform="matrix(0.3256 0.9455 -0.9455 0.3256 7.9732 226.2769)" class="st2 st3 st4">n</text>
	<text transform="matrix(0.3584 0.9336 -0.9336 0.3584 12.3782 238.2841)" class="st2 st3 st4">i</text>
	<text transform="matrix(0.4067 0.9135 -0.9135 0.4067 14.4531 243.7351)" class="st2 st3 st4">s</text>
	<text transform="matrix(0.4384 0.8988 -0.8988 0.4384 18.1556 251.2502)" class="st2 st3 st4">t</text>
	<text transform="matrix(0.5 0.866 -0.866 0.5 21.1936 257.39)" class="st2 st3 st4">e</text>
	<text transform="matrix(0.5299 0.848 -0.848 0.5299 27.2525 267.778)" class="st2 st3 st4">r</text>
	<text transform="matrix(0.5736 0.8192 -0.8192 0.5736 31.652 274.1238)" class="st2 st3 st4">i</text>
	<text transform="matrix(0.6157 0.788 -0.788 0.6157 34.9194 278.8322)" class="st2 st3 st4">n</text>
	<text transform="matrix(0.682 0.7314 -0.7314 0.682 43.0554 288.9767)" class="st2 st3 st4">g</text>
	<text transform="matrix(0.7547 0.6561 -0.6561 0.7547 55.1003 301.1978)" class="st2 st3 st4">t</text>
	<text transform="matrix(0.7771 0.6293 -0.6293 0.7771 60.27 305.7121)" class="st2 st3 st4">h</text>
	<text transform="matrix(0.809 0.5878 -0.5878 0.809 70.3312 313.7149)" class="st2 st3 st4">e</text>
	<text transform="matrix(0.8572 0.515 -0.515 0.8572 85.6864 323.6166)" class="st2 st3 st4">l</text>
	<text transform="matrix(0.891 0.454 -0.454 0.891 90.4307 326.4204)" class="st2 st3 st4">o</text>
	<text transform="matrix(0.9272 0.3746 -0.3746 0.9272 102.1269 332.0922)" class="st2 st3 st4">v</text>
	<text transform="matrix(0.9455 0.3256 -0.3256 0.9455 111.9582 336.1118)" class="st2 st3 st4">e</text>
	<text transform="matrix(0.9816 0.1908 -0.1908 0.9816 129.6542 341.5395)" class="st2 st3 st4">o</text>
	<text transform="matrix(0.9925 0.1219 -0.1219 0.9925 142.2841 344.1182)" class="st2 st3 st4">f</text>
	<text transform="matrix(0.9994 0.0349 -0.0349 0.9994 154.9782 345.77)" class="st2 st3 st4">C</text>
	<text transform="matrix(0.9994 -0.0349 0.0349 0.9994 170.4559 346.2443)" class="st2 st3 st4">h</text>
	<text transform="matrix(0.9903 -0.1392 0.1392 0.9903 183.3322 345.7659)" class="st2 st3 st4">r</text>
	<text transform="matrix(0.9903 -0.1392 0.1392 0.9903 191.0255 344.8207)" class="st2 st3 st4">i</text>
	<text transform="matrix(0.9816 -0.1908 0.1908 0.9816 196.8737 344.1024)" class="st2 st3 st4">s</text>
	<text transform="matrix(0.9703 -0.2419 0.2419 0.9703 205.0399 342.4576)" class="st2 st3 st4">t</text>
	<text transform="matrix(0.9397 -0.342 0.342 0.9397 218.0726 339.1636)" class="st2 st3 st4">t</text>
	<text transform="matrix(0.9272 -0.3746 0.3746 0.9272 224.416 337.0483)" class="st2 st3 st4">h</text>
	<text transform="matrix(0.9063 -0.4226 0.4226 0.9063 236.3499 332.3354)" class="st2 st3 st4">r</text>
	<text transform="matrix(0.891 -0.454 0.454 0.891 243.3484 329.032)" class="st2 st3 st4">o</text>
	<text transform="matrix(0.8387 -0.5446 0.5446 0.8387 254.8254 323.1324)" class="st2 st3 st4">u</text>
	<text transform="matrix(0.8192 -0.5736 0.5736 0.8192 265.6326 316.0656)" class="st2 st3 st4">g</text>
	<text transform="matrix(0.7431 -0.6691 0.6691 0.7431 274.5313 309.7111)" class="st2 st3 st4">h</text>
	<text transform="matrix(0.682 -0.7314 0.7314 0.682 288.6846 296.7348)" class="st2 st3 st4">h</text>
	<text transform="matrix(0.6018 -0.7986 0.7986 0.6018 297.7603 287.5685)" class="st2 st3 st4">e</text>
	<text transform="matrix(0.5736 -0.8192 0.8192 0.5736 304.9785 278.1218)" class="st2 st3 st4">a</text>
	<text transform="matrix(0.5299 -0.848 0.848 0.5299 311.3923 268.7027)" class="st2 st3 st4">l</text>
	<text transform="matrix(0.5 -0.866 0.866 0.5 314.2797 263.981)" class="st2 st3 st4">t</text>
	<text transform="matrix(0.4384 -0.8988 0.8988 0.4384 317.7639 258.0817)" class="st2 st3 st4">h</text>
	<text transform="matrix(0.3584 -0.9336 0.9336 0.3584 326.024 240.6292)" class="st2 st3 st4">c</text>
	<text transform="matrix(0.2588 -0.9659 0.9659 0.2588 329.8832 230.4905)" class="st2 st3 st4">a</text>
	<text transform="matrix(0.225 -0.9744 0.9744 0.225 332.9441 219.4311)" class="st2 st3 st4">r</text>
	<text transform="matrix(0.1736 -0.9848 0.9848 0.1736 334.8138 212.1205)" class="st2 st3 st4">e</text>
	<text transform="matrix(1 0 0 1 4.0056 191.6894)" class="st2 st5 st6">•                                        </text>
	<text transform="matrix(1 0 0 1 322.1325 191.6894)" class="st2 st5 st6">•</text>
	<text transform="matrix(0.126 -0.992 0.992 0.126 26.897 170.332)" class="st2 st5 st7">H</text>
	<text transform="matrix(0.2731 -0.962 0.962 0.2731 30.2572 144.4227)" class="st2 st5 st7">E</text>
	<text transform="matrix(0.3668 -0.9303 0.9303 0.3668 34.8486 127.4002)" class="st2 st5 st7">A</text>
	<text transform="matrix(0.4985 -0.8669 0.8669 0.4985 42.6436 108.2973)" class="st2 st5 st7">R</text>
	<text transform="matrix(0.6179 -0.7863 0.7863 0.6179 53.3101 90.2441)" class="st2 st5 st7">T</text>
	<text transform="matrix(0.7863 -0.6179 0.6179 0.7863 70.7922 68.0773)" class="st2 st5 st7">O</text>
	<text transform="matrix(0.8669 -0.4985 0.4985 0.8669 93.2224 50.703)" class="st2 st5 st7">F</text>
	<text transform="matrix(0.9303 -0.3668 0.3668 0.9303 116.6098 38.4343)" class="st2 st5 st7">I</text>
	<text transform="matrix(0.962 -0.2731 0.2731 0.962 126.7911 34.3268)" class="st2 st5 st7">L</text>
	<text transform="matrix(0.9844 -0.1759 0.1759 0.9844 142.6936 29.8915)" class="st2 st5 st7">L</text>
	<text transform="matrix(0.9971 -0.0758 0.0758 0.9971 158.5527 27.1611)" class="st2 st5 st7">I</text>
	<text transform="matrix(0.9971 0.0758 -0.0758 0.9971 169.7996 25.7976)" class="st2 st5 st7">N</text>
	<text transform="matrix(0.9744 0.2248 -0.2248 0.9744 194.977 27.5104)" class="st2 st5 st7">O</text>
	<text transform="matrix(0.9303 0.3668 -0.3668 0.9303 222.4785 34.2928)" class="st2 st5 st7">I</text>
	<text transform="matrix(0.89 0.456 -0.456 0.89 232.7335 38.3973)" class="st2 st5 st7">S</text>
	<text transform="matrix(0.7238 0.69 -0.69 0.7238 255.8645 57.1516)" class="st2 st5 st7">O</text>
	<text transform="matrix(0.5796 0.8149 -0.8149 0.5796 276.2501 76.5882)" class="st2 st5 st7">B</text>
	<text transform="matrix(0.4985 0.8669 -0.8669 0.4985 288.6508 94.3159)" class="st2 st5 st7">-</text>
	<text transform="matrix(0.4118 0.9113 -0.9113 0.4118 294.7286 103.857)" class="st2 st5 st7">G</text>
	<text transform="matrix(0.2731 0.962 -0.962 0.2731 304.3951 127.378)" class="st2 st5 st7">Y</text>
	<text transform="matrix(0.126 0.992 -0.992 0.126 309.0601 145.4565)" class="st2 st5 st7">N</text>
</g>
</svg>
