<?xml version="1.0" encoding="UTF-8"?>
<svg xmlns="http://www.w3.org/2000/svg" viewBox="0 0 234.84 46.31">
  <defs>
    <style>.cls-1,.cls-2{fill:#fff;}.cls-1{fill-rule:evenodd;}</style>
  </defs>
  <g id="Layer_2" data-name="Layer 2">
    <g id="Layer_1-2" data-name="Layer 1">
      <path class="cls-1" d="M21.55,0C27.05,0,32.32.12,37.79.09c-.88,3.4-1.67,6.88-2.5,10.32-4-1.48-8.12,0-11.24,1.82a22.06,22.06,0,0,0-6.67,5.31c-.24.31-.33.91-.84.91C18,12.39,19.84,6.07,21.55,0"></path>
      <path class="cls-1" d="M10.47,14.73c-1,7.32,3.11,12.13,8.2,14.27.21.09.77.05.76.45-6.16.36-13,.06-19.43.16.9-4.9,1.69-9.9,2.58-14.8,2.67,0,5.32,0,7.89-.08"></path>
      <path class="cls-1" d="M49.63,14.73c-.69,4.81-1.69,10-2.51,14.88H39.23c.76-7.2-2.79-12-7.89-14-.32-.13-.93-.13-1.06-.61,6.12-.38,13.11,0,19.35-.23"></path>
      <path class="cls-1" d="M32.86,27.86c.42.25,0,.73-.08,1C31.21,34.56,29.64,40.63,28,46.3c-5.46,0-10.74-.13-16.24-.08.8-3.42,1.68-6.76,2.43-10.24a14.91,14.91,0,0,0,4.63.46,16.76,16.76,0,0,0,8-3.12,20.47,20.47,0,0,0,6-5.46Z"></path>
      <polygon class="cls-2" points="80.11 29.45 76.95 29.45 76.95 20.96 61.65 20.96 61.65 29.45 58.49 29.45 58.49 10.36 61.65 10.36 61.65 18.11 76.95 18.11 76.95 10.36 80.11 10.36 80.11 29.45"></polygon>
      <polygon class="cls-2" points="105.62 29.45 85.63 29.45 85.63 10.36 104.88 10.36 104.88 13.21 88.79 13.21 88.79 18.11 99.97 18.11 99.97 20.96 88.79 20.96 88.79 26.6 105.62 26.6 105.62 29.45"></polygon>
      <path class="cls-2" d="M132,29.45h-3.68l-5.17-7.28h-9.63v7.28h-3.17V10.36h15.06A6.6,6.6,0,0,1,130.17,12a5.77,5.77,0,0,1,1.71,4.39,5.43,5.43,0,0,1-1.39,3.9A6,6,0,0,1,126.93,22ZM125,19.33q3.68,0,3.67-3,0-3.17-4-3.16H113.56v6.12Z"></path>
      <rect class="cls-2" x="136.97" y="10.36" width="3.16" height="19.09"></rect>
      <polygon class="cls-2" points="165.27 13.21 156.15 13.21 156.15 29.45 152.98 29.45 152.98 13.21 143.86 13.21 143.86 10.36 165.27 10.36 165.27 13.21"></polygon>
      <path class="cls-2" d="M186.42,29.45H183l-2.2-4.27H167.9l-2.2,4.27h-3.46l10.1-19.09h4Zm-7.2-7.12-4.86-9.25-4.92,9.25Z"></path>
      <path class="cls-2" d="M211.05,19.61a9.45,9.45,0,0,1-3.33,7.53A13.12,13.12,0,0,1,198.87,30a13.55,13.55,0,0,1-8.41-2.56,9.08,9.08,0,0,1-3.83-7.57,9.1,9.1,0,0,1,3.88-7.54,13.81,13.81,0,0,1,8.62-2.59,13.1,13.1,0,0,1,10.34,4.62l-2.95,1.47a10.95,10.95,0,0,0-13.74-1.39,6.42,6.42,0,0,0-2.85,5.43,6.45,6.45,0,0,0,2.45,5.22,9.93,9.93,0,0,0,6.49,2q6.33,0,8.23-4.93h-8.89V19.33h12.84Z"></path>
      <polygon class="cls-2" points="234.84 29.45 214.85 29.45 214.85 10.36 234.1 10.36 234.1 13.21 218.02 13.21 218.02 18.11 229.2 18.11 229.2 20.96 218.02 20.96 218.02 26.6 234.84 26.6 234.84 29.45"></polygon>
      <polygon class="cls-2" points="65.69 36.28 62.76 41.58 61.57 41.58 58.64 36.28 59.78 36.28 62.17 40.68 64.55 36.28 65.69 36.28"></polygon>
      <rect class="cls-2" x="66.64" y="36.28" width="1.03" height="5.3"></rect>
      <path class="cls-2" d="M75.82,37.56l-.95.32A3,3,0,0,0,72.71,37a2.83,2.83,0,0,0-1.8.52,1.71,1.71,0,0,0,0,2.71,3.25,3.25,0,0,0,4-.35l.88.48a3.9,3.9,0,0,1-3.07,1.32,4,4,0,0,1-2.56-.79,2.56,2.56,0,0,1,.13-4.12,3.89,3.89,0,0,1,2.37-.7,3.94,3.94,0,0,1,3.18,1.45"></path>
      <polygon class="cls-2" points="82.67 37.21 80.14 37.21 80.14 41.58 79.11 41.58 79.11 37.21 76.57 37.21 76.57 36.28 82.67 36.28 82.67 37.21"></polygon>
      <path class="cls-2" d="M90.44,38.92A2.51,2.51,0,0,1,89.33,41a3.85,3.85,0,0,1-2.37.7,3.9,3.9,0,0,1-2.38-.7,2.55,2.55,0,0,1,0-4.22A4,4,0,0,1,87,36.1a3.93,3.93,0,0,1,2.36.71,2.5,2.5,0,0,1,1.12,2.11m-1.08,0a1.63,1.63,0,0,0-.67-1.35,3.12,3.12,0,0,0-3.48,0,1.67,1.67,0,0,0-.68,1.35,1.64,1.64,0,0,0,.67,1.37A2.75,2.75,0,0,0,87,40.8a2.71,2.71,0,0,0,1.74-.52,1.66,1.66,0,0,0,.66-1.37"></path>
      <path class="cls-2" d="M98.17,41.58H97l-1.39-1.95H93v1.95h-1v-5.3h4.28a1.88,1.88,0,0,1,1.34.46,1.54,1.54,0,0,1,.5,1.22,1.5,1.5,0,0,1-1.31,1.61ZM96.05,38.7c.63,0,.94-.24.94-.72s-.33-.77-1-.77H93V38.7Z"></path>
      <polygon class="cls-2" points="108.4 36.28 105.47 41.58 104.28 41.58 101.35 36.28 102.49 36.28 104.88 40.68 107.26 36.28 108.4 36.28"></polygon>
      <path class="cls-2" d="M115.6,41.58h-1.13l-.61-1.14H110.3l-.61,1.14h-1.14l2.89-5.3h1.28Zm-2.26-2.07-1.26-2.35-1.27,2.35Z"></path>
      <polygon class="cls-2" points="121.75 41.58 116.62 41.58 116.62 36.28 117.65 36.28 117.65 40.65 121.75 40.65 121.75 41.58"></polygon>
      <polygon class="cls-2" points="127.99 41.58 122.86 41.58 122.86 36.28 123.9 36.28 123.9 40.65 127.99 40.65 127.99 41.58"></polygon>
      <polygon class="cls-2" points="134.81 41.58 129.11 41.58 129.11 36.28 134.61 36.28 134.61 37.21 130.14 37.21 130.14 38.36 133.25 38.36 133.25 39.29 130.14 39.29 130.14 40.65 134.81 40.65 134.81 41.58"></polygon>
      <polygon class="cls-2" points="142.33 36.28 139.31 39.49 139.31 41.58 138.28 41.58 138.28 39.49 135.28 36.28 136.54 36.28 138.81 38.7 141.08 36.28 142.33 36.28"></polygon>
      <polygon class="cls-2" points="153.29 41.58 152.26 41.58 152.23 37.22 149.57 40.83 146.92 37.19 146.89 37.22 146.89 41.58 145.86 41.58 145.86 36.28 147.41 36.28 149.57 39.28 151.74 36.28 153.29 36.28 153.29 41.58"></polygon>
      <polygon class="cls-2" points="160.8 41.58 155.1 41.58 155.1 36.28 160.6 36.28 160.6 37.21 156.13 37.21 156.13 38.36 159.24 38.36 159.24 39.29 156.13 39.29 156.13 40.65 160.8 40.65 160.8 41.58"></polygon>
      <path class="cls-2" d="M165.56,36.28a3.27,3.27,0,0,1,2.24.73,2.37,2.37,0,0,1,.85,1.88,2.93,2.93,0,0,1-.89,2,2,2,0,0,1-.79.47,3.47,3.47,0,0,1-1.23.22h-3.6v-5.3Zm.25,4.37a1.69,1.69,0,0,0,1.24-.48,1.64,1.64,0,0,0,.49-1.21,1.66,1.66,0,0,0-.52-1.27,1.93,1.93,0,0,0-1.38-.48h-2.47v3.44Z"></path>
      <rect class="cls-2" x="170.06" y="36.28" width="1.03" height="5.3"></rect>
      <path class="cls-2" d="M179.24,37.56l-1,.32a2.94,2.94,0,0,0-2.16-.84,2.85,2.85,0,0,0-1.8.52,1.71,1.71,0,0,0,0,2.71,3,3,0,0,0,1.82.52,2.87,2.87,0,0,0,2.16-.87l.89.48a3.92,3.92,0,0,1-3.08,1.32,4,4,0,0,1-2.56-.79,2.56,2.56,0,0,1,.13-4.12,4.27,4.27,0,0,1,5.55.75"></path>
      <path class="cls-2" d="M187,41.58h-1.14l-.61-1.14h-3.56L181,41.58H179.9l2.88-5.3h1.28Zm-2.26-2.07-1.26-2.35-1.27,2.35Z"></path>
      <polygon class="cls-2" points="193.09 41.58 187.97 41.58 187.97 36.28 189 36.28 189 40.65 193.09 40.65 193.09 41.58"></polygon>
      <path class="cls-2" d="M203.41,38.68v.17a2.59,2.59,0,0,1-.95,2.08,3.69,3.69,0,0,1-2.51.8,3.84,3.84,0,0,1-2.36-.7,2.55,2.55,0,0,1,0-4.22A4,4,0,0,1,200,36.1a3.79,3.79,0,0,1,2.91,1.23l-1,.48a3,3,0,0,0-3.74-.25,1.71,1.71,0,0,0,0,2.72,2.72,2.72,0,0,0,1.75.52,2.13,2.13,0,0,0,2.17-1.19h-2.39v-.93Z"></path>
      <path class="cls-2" d="M211.13,41.58H210l-1.39-1.95h-2.63v1.95h-1v-5.3h4.28a1.88,1.88,0,0,1,1.34.46A1.58,1.58,0,0,1,211,38a1.5,1.5,0,0,1-1.32,1.61ZM209,38.7c.63,0,.94-.24.94-.72s-.33-.77-1-.77h-3V38.7Z"></path>
      <path class="cls-2" d="M219.25,38.92A2.52,2.52,0,0,1,218.13,41a3.84,3.84,0,0,1-2.36.7,3.9,3.9,0,0,1-2.38-.7,2.55,2.55,0,0,1,0-4.22,4.29,4.29,0,0,1,4.73,0,2.53,2.53,0,0,1,1.12,2.11m-1.08,0a1.66,1.66,0,0,0-.67-1.35,2.75,2.75,0,0,0-1.74-.53,2.8,2.8,0,0,0-1.75.53,1.72,1.72,0,0,0,0,2.72,2.75,2.75,0,0,0,1.76.52,2.72,2.72,0,0,0,1.75-.52,1.66,1.66,0,0,0,.66-1.37"></path>
      <path class="cls-2" d="M226.83,39.84A1.58,1.58,0,0,1,226,41.2a5,5,0,0,1-4.49,0,1.57,1.57,0,0,1-.84-1.36V36.28h1v3.35c0,.78.68,1.17,2,1.17s2-.39,2-1.17V36.28h1Z"></path>
      <path class="cls-2" d="M232.86,36.28a1.92,1.92,0,0,1,1.35.46,1.58,1.58,0,0,1,.5,1.22,1.53,1.53,0,0,1-.53,1.24,2.24,2.24,0,0,1-1.49.43h-3.07v1.95h-1v-5.3Zm-.15,2.42q.93,0,.93-.72c0-.51-.33-.77-1-.77h-3V38.7Z"></path>
    </g>
  </g>
</svg>
