<svg xmlns="http://www.w3.org/2000/svg" viewBox="0 0 279.32659 72.00312"><defs><style>.cls-1{fill:#003c78;}.cls-2{fill:#f1bf84;}.cls-3{fill:#eaa551;}.cls-4{fill:#e38d1a;}</style></defs><title>hdh-logo</title><g id="Layer_2" data-name="Layer 2"><g id="Layer_1-2" data-name="Layer 1"><path class="cls-1" d="M46.9946,39.10952c0,4.3965.5264,5.1436,4.1729,5.1436v.9102H39.3022v-.9102c3.6514,0,4.1758-.7471,4.1758-5.1436V24.80092c0-4.4033-.5244-5.1074-4.1758-5.1074v-.9267H51.1675v.9267c-3.6465,0-4.1729.7041-4.1729,5.1074v5.5489H61.9223v-5.5489c0-4.4033-.5703-5.1074-4.2148-5.1074v-.9267H69.6167v.9267c-3.6944,0-4.2207.7041-4.2207,5.1074v14.3086c0,4.3965.5263,5.1436,4.2207,5.1436v.9102H57.7075v-.9102c3.6445,0,4.2148-.7471,4.2148-5.1436v-7.1318H46.9946Z"/><path class="cls-1" d="M73.5156,45.15742V44.383c3.0664,0,3.5098-.6289,3.5098-4.3242V28.03922c0-3.6972-.4434-4.2881-3.5098-4.2881v-.7783h9.959v.7783c-3.0684,0-3.5117.5909-3.5117,4.2881v12.0196c0,3.6953.4433,4.3242,3.5117,4.3242v.7744Z"/><path class="cls-1" d="M103.0508,36.74142v-.7432h9.6914v.7432c-3.0684,0-3.5098.6289-3.5098,4.334v2.8125c-4.1172,0-5.7754,1.9091-9.6133,1.9091a11.707,11.707,0,0,1,0-23.4013,9.39766,9.39766,0,0,1,6.8613,3.1201,3.76987,3.76987,0,0,0,1.2637-2.1006h.7461v8.1182h-.7461c-1.0039-4.8008-3.8828-7.7158-8.0156-7.7158-5.9043,0-8.043,5.6894-8.043,10.2626,0,4.587,1.918,10.1397,8.7442,10.1397,3.2109,0,6.0879-1.7412,6.0879-5.0742C106.5176,37.55582,105.5957,36.74142,103.0508,36.74142Z"/><path class="cls-1" d="M121.0117,40.05292c0,3.7012.4434,4.3301,3.5254,4.3301v.7744h-9.9746V44.383c3.0664,0,3.5097-.6289,3.5097-4.3301v-12.002c0-3.705-.4433-4.2998-3.5097-4.2998v-.7783h9.9746v.7783c-3.082,0-3.5254.5948-3.5254,4.2998V32.714h12.623v-4.6631c0-3.705-.4843-4.2998-3.5664-4.2998v-.7783H140.082v.7783c-3.1035,0-3.5449.5948-3.5449,4.2998v12.002c0,3.7012.4414,4.3301,3.5449,4.3301v.7744H130.0683V44.383c3.0821,0,3.5664-.6289,3.5664-4.3301v-5.9932h-12.623Z"/><path class="cls-1" d="M143.5678,44.39862c3.0625,0,3.5079-.6182,3.5079-4.3184V28.047c0-3.7011-.4454-4.2959-3.5079-4.2959v-.7783h9.961v.7783c-3.0684,0-3.5117.5948-3.5117,4.2959v11.4795c0,3.7012.4433,4.292,3.5117,4.292h4.4316c3.3633,0,3.7656-.8535,4.2442-2.8154l.1894-.7393h.7715l-.293,4.8995H143.5678Z"/><path class="cls-1" d="M178.6225,36.09592h-7.7382l3.8515-8.9131Zm-8.3261,1.3437h8.955l1.7676,4.1211c.8887,2.044.1914,2.8223-2.8769,2.8223v.7744h10.2265V44.383c-3.0664,0-3.25-.6309-4.3926-3.2276l-8.1718-18.8173h-.4766l-8.1289,18.8173c-1.1426,2.5967-1.3281,3.2276-4.4199,3.2276v.7744h8.6191V44.383c-3.0566,0-3.7578-.8154-2.873-2.8223Z"/><path class="cls-1" d="M208.50339,28.03922c0-3.6972-.4434-4.2881-3.5137-4.2881v-.7783h8.4336v.7783c-3.0683,0-3.5449.5909-3.5449,4.2881v17.7491h-.8594L193.9702,27.19162v12.8672c0,3.6953.4805,4.3242,3.5508,4.3242v.7744h-8.4375V44.383c3.0703,0,3.5136-.6289,3.5136-4.3242V28.03922c0-3.6972-.4433-4.2881-3.5136-4.2881v-.7783h5.2168l14.20309,17.6026Z"/><path class="cls-1" d="M223.05609,24.37912h3.59381c7.22459,0,8.78119,5.3945,8.78119,9.7187,0,4.3262-1.5566,9.7207-8.78119,9.7207h-.14851c-3.0371,0-3.4453-.5908-3.4453-4.2881Zm-6.44919,20.7842h10.00779c8.6289,0,12.3477-4.9678,12.3477-11.0655,0-6.0967-3.7188-11.0674-12.3477-11.0674H216.6069v.7666c3.06639,0,3.50779.5821,3.50779,4.2784v12.0097c0,3.6953-.4414,4.3135-3.50779,4.3135Z"/><path class="cls-2" d="M101.2558,1.85372s-32.5014-9.0879-62.6772,12.9805c0,0,23.5781-11.0459,50.9429-9.0997A60.45535,60.45535,0,0,1,101.2558,1.85372Z"/><path class="cls-3" d="M152.226,3.02952s-40.0991-10.9639-76.3334,11.9668c0,0,26.7167-13.4278,65.1113-9.8575A93.17219,93.17219,0,0,1,152.226,3.02952Z"/><path class="cls-4" d="M119.7011,14.77952s48.5601-26.5547,116.48589.4873C236.187,15.26682,176.8081-4.58278,119.7011,14.77952Z"/><path class="cls-1" d="M6.2939,51.28432H9.7827c7.0132,0,8.5234,5.25,8.5234,9.459,0,4.2071-1.5102,9.459-8.5234,9.459H9.6386c-2.9492,0-3.3447-.5762-3.3447-4.1719ZM0,71.53242H9.7466c8.3798,0,12.0122-4.8555,12.0122-10.7891,0-5.9345-3.6324-10.79-12.0122-10.79H0v.7549c2.9853,0,3.417.5761,3.417,4.1719v11.6894c0,3.5957-.4317,4.207-3.417,4.207Z"/><path class="cls-1" d="M24.249,71.53242v-.5811c2.2959,0,2.6279-.4697,2.6279-3.2373v-8.9902c0-2.7676-.332-3.21-2.6279-3.21v-.581h7.4697v.581c-2.2964,0-2.6284.4424-2.6284,3.21V67.714c0,2.7676.332,3.2373,2.6284,3.2373v.5811Z"/><path class="cls-1" d="M35.7573,72.00312h-.5532v-6.0869h.5532s.0557,4.9795,5.1182,4.9795a3.18084,3.18084,0,0,0,3.4585-3.043c0-1.2725-1.273-2.3516-3.1817-3.3476l-2.6557-1.3555a5.3217,5.3217,0,0,1-3.0713-4.5645,4.27455,4.27455,0,0,1,4.5927-4.123,5.16514,5.16514,0,0,1,3.375,1.1347,2.35807,2.35807,0,0,0,.8023-1.2724h.5537v6.0869h-.5811c-.1938-2.2139-1.0239-4.8418-4.2329-4.8418a2.52364,2.52364,0,0,0-2.6836,2.4619c0,1.4385.9683,2.1856,3.3477,3.4307l2.6558,1.3555a4.63083,4.63083,0,0,1,2.8769,4.205,4.99048,4.99048,0,0,1-5.2563,4.9805c-2.1026,0-3.4302-1.1074-4.316-1.3008A2.34428,2.34428,0,0,0,35.7573,72.00312Z"/><path class="cls-1" d="M64.6953,58.66722h-.5811l-.1382-.5528c-.3872-1.4668-.664-2.1025-3.2094-2.1025h-3.624V67.714c0,2.7676.3593,3.2373,2.6557,3.2373v.5811H52.3012v-.5811c2.2959,0,2.6558-.4697,2.6558-3.2373V56.01192H51.333c-2.5454,0-2.8223.6357-3.2095,2.1025l-.1382.5528h-.581l.249-3.7344h16.793Z"/><path class="cls-1" d="M73.5205,63.26092H71.0859v-7.3047h2.4346a3.33044,3.33044,0,0,1,3.5137,3.6524A3.31768,3.31768,0,0,1,73.5205,63.26092Zm1.0508.9961c3.1269-.332,4.9248-2.2422,4.9248-4.6484,0-2.5723-2.1026-4.6758-5.9483-4.6758H66.2441v.581c2.2964,0,2.6284.4424,2.6284,3.21V67.714c0,2.7676-.332,3.2373-2.6284,3.2373v.5811h7.4697v-.5811c-2.2959,0-2.6279-.4697-2.6279-3.2373V64.257h1.2998l5.4785,7.2754h4.5645v-.5811c-1.6602-.1933-3.5137-1.5771-5.1455-3.5136Z"/><path class="cls-1" d="M84.2265,71.53242v-.5811c2.2959,0,2.628-.4697,2.628-3.2373v-8.9902c0-2.7676-.3321-3.21-2.628-3.21v-.581h7.4698v.581c-2.2959,0-2.628.4424-2.628,3.21V67.714c0,2.7676.3321,3.2373,2.628,3.2373v.5811Z"/><path class="cls-1" d="M109.0146,71.22772a2.83228,2.83228,0,0,0-.9404-1.5762,7.16474,7.16474,0,0,1-5.1455,2.3516,8.775,8.775,0,0,1,0-17.541,7.06106,7.06106,0,0,1,5.1455,2.3515,2.83162,2.83162,0,0,0,.9404-1.5761h.5537v6.0859h-.5537c-.7744-3.5957-2.9043-5.7812-5.9756-5.7812-4.4267,0-6.0312,4.2597-6.0312,7.6904s1.6045,7.6631,6.0312,7.6631c3.0713,0,5.2012-2.2129,5.9756-5.7539h.5537v6.0859Z"/><path class="cls-1" d="M129.957,58.66722h-.581l-.1377-.5528c-.3877-1.4668-.6641-2.1025-3.21-2.1025h-3.624V67.714c0,2.7676.3593,3.2373,2.6562,3.2373v.5811h-7.497v-.5811c2.2958,0,2.6552-.4697,2.6552-3.2373V56.01192h-3.624c-2.5449,0-2.8223.6357-3.209,2.1025l-.1387.5528h-.581l.249-3.7344h16.793Z"/><path class="cls-1" d="M148.3706,66.56952c0,3.5957.4316,4.207,3.417,4.207v.7559h-9.71v-.7559c2.9844,0,3.416-.6113,3.416-4.207V54.88012c0-3.5958-.4316-4.1719-3.416-4.1719v-.7549h9.71v.7549c-2.9854,0-3.417.5761-3.417,4.1719v4.5322h12.2285v-4.5322c0-3.5958-.4678-4.1719-3.4522-4.1719v-.7549h9.7461v.7549c-3.0214,0-3.4531.5761-3.4531,4.1719v11.6894c0,3.5957.4317,4.207,3.4531,4.207v.7559h-9.7461v-.7559c2.9844,0,3.4522-.6113,3.4522-4.207v-5.8262H148.3706Z"/><path class="cls-1" d="M177.602,55.54222c4.7862,0,6.6123,4.2597,6.6123,7.6904s-1.8261,7.6631-6.6123,7.6631c-4.7578,0-6.584-4.2324-6.584-7.6631S172.8442,55.54222,177.602,55.54222Zm9.2403,7.6904a9.23793,9.23793,0,1,0-9.2403,8.7705A9.04233,9.04233,0,0,0,186.8423,63.23262Z"/><path class="cls-1" d="M190.6606,72.00312h-.5537v-6.0869h.5537s.0547,4.9795,5.1182,4.9795a3.18061,3.18061,0,0,0,3.458-3.043c0-1.2725-1.2725-2.3516-3.18159-3.3476l-2.6563-1.3555a5.32167,5.32167,0,0,1-3.0703-4.5645,4.27464,4.27464,0,0,1,4.5928-4.123,5.16655,5.16655,0,0,1,3.375,1.1347,2.35515,2.35515,0,0,0,.8017-1.2724h.5537v6.0869h-.581c-.1934-2.2139-1.0235-4.8418-4.23239-4.8418a2.52328,2.52328,0,0,0-2.6836,2.4619c0,1.4385.9677,2.1856,3.3466,3.4307l2.65629,1.3555a4.6315,4.6315,0,0,1,2.8769,4.205,4.99006,4.99006,0,0,1-5.25579,4.9805c-2.1026,0-3.4307-1.1074-4.3164-1.3008A2.33791,2.33791,0,0,0,190.6606,72.00312Z"/><path class="cls-1" d="M211.437,63.26092h-2.4346v-7.3047h2.4346a3.33044,3.33044,0,0,1,3.5137,3.6524A3.31768,3.31768,0,0,1,211.437,63.26092Zm.0273-8.3281h-7.3037v.581c2.2959,0,2.6279.4424,2.6279,3.21V67.714c0,2.7676-.332,3.2373-2.6279,3.2373v.5811h7.4697v-.5811c-2.2959,0-2.6279-.4697-2.6279-3.2373V64.257h2.4619c3.8457,0,5.9483-2.0762,5.9483-4.6484S215.31,54.93282,211.46429,54.93282Z"/><path class="cls-1" d="M219.93019,71.53242v-.5811c2.2958,0,2.6279-.4697,2.6279-3.2373v-8.9902c0-2.7676-.3321-3.21-2.6279-3.21v-.581h7.46971v.581c-2.29691,0-2.62891.4424-2.62891,3.21V67.714c0,2.7676.332,3.2373,2.62891,3.2373v.5811Z"/><path class="cls-1" d="M246.79339,58.66722h-.581l-.1387-.5528c-.3877-1.4668-.6641-2.1025-3.209-2.1025h-3.624V67.714c0,2.7676.3594,3.2373,2.6553,3.2373v.5811H234.3989v-.5811c2.29589,0,2.65629-.4697,2.65629-3.2373V56.01192h-3.625c-2.545,0-2.82129.6357-3.209,2.1025l-.1387.5528h-.5801l.249-3.7344h16.793Z"/><path class="cls-1" d="M255.94969,64.75412h-5.7822l2.8779-6.667Zm-6.2246,1.0244h6.6953l1.3281,3.0703c.6641,1.5215.1377,2.1025-2.1582,2.1025v.5811h7.6631v-.5811c-2.2959,0-2.4346-.4697-3.292-2.4072l-6.1143-14.082h-.3593l-6.08689,14.082c-.85751,1.9375-.99521,2.4072-3.31941,2.4072v.5811h6.4737v-.5811c-2.2959,0-2.82229-.6084-2.15829-2.1025Z"/><path class="cls-1" d="M264.63619,70.95132c2.2969,0,2.6289-.4697,2.6289-3.2373v-8.9902c0-2.7676-.332-3.21-2.6289-3.21v-.581h7.46971v.581c-2.29591,0-2.62791.4424-2.62791,3.21V67.3c0,2.7656.332,3.209,2.62791,3.209h3.32029c2.5176,0,2.8223-.6368,3.18171-2.1026l.13769-.5537h.581l-.22069,3.6797H264.63619Z"/></g></g></svg>