<?xml version="1.0" encoding="utf-8"?>
<!-- Generator: Adobe Illustrator 23.0.4, SVG Export Plug-In . SVG Version: 6.00 Build 0)  -->
<svg version="1.1" id="Layer_1" xmlns="http://www.w3.org/2000/svg" xmlns:xlink="http://www.w3.org/1999/xlink" x="0px" y="0px"
	 viewBox="0 0 1075 192" style="enable-background:new 0 0 1075 192;" xml:space="preserve">
<style type="text/css">
	.Arched_x0020_Green{fill:url(#SVGID_1_);stroke:#FFFFFF;stroke-width:0.25;stroke-miterlimit:1;}
	.st0{fill:#3F3E29;}
	.st1{fill:#B8B308;}
	.st2{fill:#5E6E66;}
</style>
<linearGradient id="SVGID_1_" gradientUnits="userSpaceOnUse" x1="145" y1="422" x2="145.7071" y2="421.2929">
	<stop  offset="0" style="stop-color:#1EAB4B"/>
	<stop  offset="0.9831" style="stop-color:#19361A"/>
</linearGradient>
<path class="st0" d="M151.3,160c0,0-7.8-33.8,18.6-35.4l-7.5-6.8c0,0-15,2.9-17,5.4c0,0-10.7-9.3-22.8-9.1l-15.6,4.9
	c0,0,32.1,1.7,18.9,41L151.3,160z"/>
<path class="st0" d="M199.4,74.8c0,0,7.3-31.4,43.9-24.7C243.3,50,230.2,82.9,199.4,74.8"/>
<path class="st1" d="M103.7,80.6c0,0-30.5-10.3-20.4-46.1C83.3,34.5,114.8,50.8,103.7,80.6"/>
<path class="st0" d="M78.2,105.7c0,0-24.3,21.1-50-5.8C28.2,99.9,58.1,81,78.2,105.7"/>
<path class="st0" d="M211,110.8c0,0,21.1-24.4,50.3-1.4C261.3,109.4,234.3,132.4,211,110.8"/>
<path class="st0" d="M144,90.6c0,0-12-29.9,21.7-45.4C165.7,45.1,173.9,79.6,144,90.6"/>
<path class="st1" d="M183.2,106.5c0,0,8.3-31.1,44.7-23.3C227.9,83.2,213.7,115.7,183.2,106.5"/>
<path class="st0" d="M84.5,78.8c0,0-30.2,11.1-44.7-23.2C39.9,55.6,74.6,48.6,84.5,78.8"/>
<path class="st0" d="M171.5,77.5c0,0-1.9-32.2,35.1-36.1C206.6,41.3,203.3,76.6,171.5,77.5"/>
<path class="st0" d="M133,106.6c0,0-30-11.6-18.2-47C114.8,59.7,145.5,77.3,133,106.6"/>
<path class="st0" d="M221.5,132.2c0,0-27.8,16.2-48-15C173.4,117.1,206.4,104.2,221.5,132.2"/>
<path class="st1" d="M53.5,131.8c0,0,14.3-28.8,48.4-13.9C101.9,117.9,81.5,146.9,53.5,131.8"/>
<path class="st0" d="M135.7,66.6c0,0-26.7-17.9-7.6-49.8C128,16.8,154.2,40.7,135.7,66.6"/>
<path class="st0" d="M143,110.1c0,0,8.3-31.1,44.7-23.3C187.7,86.9,173.4,119.4,143,110.1"/>
<path class="st0" d="M118.5,108.4c0,0-30,11.8-45.3-22.2C73.2,86.3,107.8,78.4,118.5,108.4"/>
<g>
	<path class="st2" d="M366.4,158.8c-4.2,0-7.6-3.4-7.6-7.6v-31h-44.9v37.7h-15.4v-84c0-4.2,3.5-7.6,7.7-7.6c4.2,0,7.6,3.4,7.6,7.6
		v31h44.9V67.2h15.3v84C374.1,155.4,370.6,158.8,366.4,158.8"/>
	<path class="st2" d="M451.2,80.9c8.8,0,17.3,3.2,25.6,9.6l0.8,0.6V74l-0.3-0.1c-8-4.3-16.5-6.5-25.1-6.5
		c-15.8,0-28.9,5.5-38.8,16.4c-8.1,8.9-12.2,19.1-12.2,30.4c0,12.6,4.9,23.6,14.6,32.5c9.7,8.9,21.6,13.3,35.3,13.3
		c9.1,0,17.9-2.2,26.2-6.5l0.3-0.1v-17.4l-0.8,0.6c-2.3,1.8-4.6,3.4-6.7,4.7c-2.1,1.3-4.1,2.3-6.1,3.1c-3.5,1.5-7.7,2.3-12.7,2.3
		c-9.6,0-17.9-3.2-24.5-9.4c-6.6-6.2-10-14-10-23.1c0-9.2,3.4-17.1,10-23.4C433.4,84.1,441.6,80.9,451.2,80.9"/>
	<path class="st2" d="M586.3,157.9v-55.8l-26.6,46c-1.3,2.1-3.5,3.9-6.6,3.9c-3.2,0-5.4-1.8-6.6-3.9l-26.6-46v55.8h-15.4v-84
		c0-4.2,3.4-7.6,7.6-7.6c3.4,0,5.7,2.2,6.9,4.2l34,58.8l34-58.8c1.2-2,3.4-4.2,6.8-4.2c4.3,0,7.6,3.4,7.6,7.6v84H586.3z"/>
</g>
<g>
	<path class="st2" d="M717,106c-1.3,0-2.4-1.1-2.4-2.4v-9.8h-14.1v11.8h-4.8V79.4c0-1.3,1.1-2.4,2.4-2.4c1.3,0,2.4,1.1,2.4,2.4v9.7
		h14.1V77.3h4.8v26.4C719.5,105,718.4,106,717,106"/>
	<path class="st2" d="M734.7,106c-1.3,0-2.4-1.1-2.4-2.4V77.3h4.8v26.4C737.1,105,736,106,734.7,106"/>
	<path class="st2" d="M750,105.8V79.4c0-1.3,1.1-2.4,2.4-2.4c1.3,0,2.4,1.1,2.4,2.4V101h15.7v4.8H750z"/>
	<path class="st2" d="M780.6,105.8V79.4c0-1.3,1.1-2.4,2.4-2.4c1.3,0,2.4,1.1,2.4,2.4V101H801v4.8H780.6z"/>
	<path class="st2" d="M837.3,106c-6.6,0-11.4-3.3-11.4-7.5v-14c0-4.2,4.9-7.5,11.4-7.5c4.2,0,7.4,0.8,9.9,2.1l0,5.1
		c-2.6-1.1-5.8-2.4-9.9-2.4c-3.8,0-5.7,1.8-6.6,2.9v13.7c0.8,1.1,2.8,2.9,6.6,2.9c4.1,0,7.3-1.3,9.9-2.4l0,5.1
		C844.6,105.3,841.5,106,837.3,106"/>
	<path class="st2" d="M876.6,84.7c-0.8-1.1-2.8-2.9-6.6-2.9c-3.8,0-5.7,1.8-6.6,2.9v13.7c0.8,1.1,2.8,2.9,6.6,2.9
		c3.9,0,5.8-1.8,6.6-2.9V84.7z M870,106c-6.5,0-11.4-3.3-11.4-7.5v-14c0-4.2,4.9-7.5,11.4-7.5c6.6,0,11.4,3.3,11.4,7.5v14
		C881.4,102.7,876.6,106,870,106"/>
	<path class="st2" d="M905.1,106c-6.5,0-11.4-3.3-11.4-7.5V79.4c0-1.3,1.1-2.4,2.4-2.4s2.4,1.1,2.4,2.4v19c0.8,1.1,2.8,2.9,6.6,2.9
		c3.9,0,5.8-1.8,6.6-2.9v-19c0-1.3,1.1-2.4,2.4-2.4c1.3,0,2.4,1.1,2.4,2.4v19.1C916.5,102.7,911.7,106,905.1,106"/>
	<path class="st2" d="M949.9,106c-0.7,0-1.4-0.3-1.9-0.9l-14.3-18.7v17.2c0,1.3-1.1,2.4-2.4,2.4c-1.3,0-2.4-1.1-2.4-2.4V79.4
		c0-2.2,2.9-3.3,4.3-1.4l14.3,18.7V77.3h4.8v26.4C952.3,105,951.2,106,949.9,106"/>
	<path class="st2" d="M976.8,82.1v21.6c0,1.3-1,2.4-2.4,2.4c-1.3,0-2.4-1.1-2.4-2.4V82.1h-9.5v-4.8h23.7v4.8H976.8z"/>
	<path class="st2" d="M1013.3,82.1h-12v8.2h12c0.9-0.9,1.5-2,1.5-4.2C1014.8,83.9,1014.2,83,1013.3,82.1 M1015.4,105.8l-8.2-10.6
		h-5.9v8.5c0,1.3-1.1,2.4-2.4,2.4c-1.3,0-2.4-1.1-2.4-2.4V77.3h16.8c4.7,0,6.3,5.3,6.3,8.9c0,3.5-1.6,9-6.3,9h-0.1l8.1,10.6H1015.4z
		"/>
	<path class="st2" d="M1044.5,92.2v13.5h-4.8V92.2l-8.8-11.4c-1.9-2.5,1.8-5.3,3.7-2.9l7.5,9.8l7.5-9.8c1.9-2.4,5.6,0.4,3.7,2.8
		L1044.5,92.2z"/>
	<path class="st2" d="M721.4,156v-17.5l-8.3,14.5c-0.4,0.7-1.1,1.2-2.1,1.2c-1,0-1.7-0.6-2.1-1.2l-8.3-14.5V156h-4.8v-26.4
		c0-1.3,1.1-2.4,2.4-2.4c1.1,0,1.8,0.7,2.2,1.3L711,147l10.7-18.5c0.4-0.6,1.1-1.3,2.1-1.3c1.4,0,2.4,1.1,2.4,2.4V156H721.4z"/>
	<path class="st2" d="M738.5,156v-26.1c0-1.3,1.1-2.4,2.4-2.4h16.7v4.8h-14.3v7.1h12c1.3,0,2.4,1.1,2.4,2.4c0,1.3-1.1,2.4-2.4,2.4
		h-12v7.1h14.3v4.8H738.5z"/>
	<path class="st2" d="M794.7,156v-17.5l-8.4,14.5c-0.4,0.7-1.1,1.2-2.1,1.2c-1,0-1.7-0.6-2.1-1.2l-8.3-14.5V156H769v-26.4
		c0-1.3,1.1-2.4,2.4-2.4c1.1,0,1.8,0.7,2.2,1.3l10.7,18.5l10.7-18.5c0.4-0.6,1.1-1.3,2.1-1.3c1.4,0,2.4,1.1,2.4,2.4V156H794.7z"/>
	<path class="st2" d="M829.8,134.9c-0.8-1.1-2.8-2.9-6.6-2.9c-3.8,0-5.7,1.8-6.6,2.9v13.7c0.8,1.1,2.8,2.9,6.6,2.9
		c3.9,0,5.8-1.8,6.6-2.9V134.9z M823.2,156.3c-6.5,0-11.4-3.3-11.4-7.5v-14c0-4.2,4.9-7.5,11.4-7.5c6.6,0,11.4,3.3,11.4,7.5v14
		C834.6,153,829.8,156.3,823.2,156.3"/>
	<path class="st2" d="M863.7,132.3h-12v8.2h12c0.9-0.9,1.5-1.9,1.5-4.2C865.2,134.2,864.6,133.3,863.7,132.3 M865.8,156l-8.2-10.6
		h-5.9v8.5c0,1.3-1.1,2.4-2.4,2.4c-1.3,0-2.4-1.1-2.4-2.4v-26.4h16.8c4.7,0,6.3,5.3,6.3,8.9c0,3.5-1.6,9-6.3,9h-0.1l8.1,10.6H865.8z
		"/>
	<path class="st2" d="M884.8,156.3c-1.3,0-2.4-1.1-2.4-2.4v-26.4h4.8v26.4C887.2,155.2,886.1,156.3,884.8,156.3"/>
	<path class="st2" d="M911.9,135.4l-3.9,9h7.8L911.9,135.4z M920.3,154.9l-2.5-5.7h-12l-2.5,5.7c-1.2,2.8-5.5,1-4.3-1.9l10.6-24.3
		c0.4-0.8,1.1-1.5,2.2-1.5c1.1,0,1.8,0.7,2.2,1.5l10.6,24.3C925.8,155.9,921.5,157.7,920.3,154.9"/>
	<path class="st2" d="M935.9,156v-26.4c0-1.3,1.1-2.4,2.4-2.4c1.3,0,2.4,1.1,2.4,2.4v21.6h15.7v4.8H935.9z"/>
</g>
<g>
	<line class="st2" x1="648.7" y1="51" x2="648.7" y2="177.2"/>
	<rect x="647.9" y="51" class="st2" width="1.5" height="126.2"/>
</g>
</svg>
