<?xml version="1.0" encoding="UTF-8"?> <!-- Generator: Adobe Illustrator 24.3.0, SVG Export Plug-In . SVG Version: 6.00 Build 0) --> <svg xmlns="http://www.w3.org/2000/svg" xmlns:xlink="http://www.w3.org/1999/xlink" version="1.1" id="Layer_1" x="0px" y="0px" viewBox="0 0 784.8 364.5" style="enable-background:new 0 0 784.8 364.5;" xml:space="preserve"> <style type="text/css"> .st0{fill:#FFD354;} .st1{fill:#C2B59B;} .st2{fill-rule:evenodd;clip-rule:evenodd;fill:#662D91;} .st3{fill:#662D91;} </style> <path class="st0" d="M541.4,164.3c8.5-1.7,16.8-4.7,25.4-5.7c9.2-1.1,18.4-1,27.5-2.5c6-1,12-1.8,18-1.4c0.9-3.9,1.3-7.9,1.3-12 c0-28.8-22.3-52.1-49.8-52.1c-27.5,0-49.8,23.3-49.8,52.1c0,9.2,2.3,17.9,6.3,25.4C527.3,165.2,534.4,165.7,541.4,164.3z"></path> <g> <path class="st1" d="M622,154.8c-74.2-3-148.4,28.7-213.3,37.6c-71.1,8.9-148.4,13.9-219.5,21.8c-40.2,4-80.4,12.9-120.6,14.8"></path> <g> <path class="st2" d="M317.4,200.1c-31.1,2.7-62.2,5.3-91.5,8.3c-14.6,1.5-28.7,3.1-42.1,4.6c-13.4,1.5-26,3.5-37.6,5.3 c-11.6,1.8-22.2,3.6-31.7,5c-9.4,1.4-17.7,2.5-24.5,3.4c-6.8,0.8-12.2,1.3-15.8,1.7c-1.8,0.2-3.2,0.3-4.2,0.4 c-0.9,0.1-1.4,0.2-1.4,0.2c0,0,0.5,0.1,1.4,0.1c1,0,2.4,0.1,4.2,0.1c3.7,0.1,9.1,0.2,16.1,0.3c6.9,0.1,15.4,0.1,25.1,0.1 c9.7-0.1,20.6-0.3,32.4-0.7c11.8-0.3,24.5-0.7,37.7-0.8c6.6,0,13.7-0.2,20.7-0.4c7-0.2,14.2-0.4,21.5-0.7 c14.6-0.6,29.7-1.5,45-2.7c15.3-1.2,30.9-3,46.4-5.1c16-2.2,30.7-4.5,44.5-6.9c6.9-1.2,13.5-2.4,20-3.5c6.4-1.2,12.7-2.4,18.8-3.6 c3.1-0.6,6-1.2,9.1-1.9c3-0.7,6-1.4,9-2.1c0.7-0.2,1.5-0.4,2.2-0.5l2.2-0.6c1.4-0.4,2.9-0.8,4.3-1.2c2.8-0.8,5.7-1.5,8.5-2.4 c5.6-1.7,11-3.3,16.4-5c5.4-1.7,10.7-3.5,16-5.2c21.3-7,42.4-14.2,66.7-20.5c12.2-3,25.1-6.1,39.2-8c14.1-2,29.4-3.4,46-2.8 c-16.6-0.6-31.9,0.4-46.1,2c-14.2,1.6-27.2,4-39.6,6.5c-24.6,5.1-46.3,10.7-67.9,15.9c-21.6,5.1-43.2,10.2-67.6,12.8 C376.4,194.8,349.5,197.3,317.4,200.1z"></path> </g> </g> <g> <path d="M76.2,90c10.4,0.3,16.2,0.5,17.5,0.5c1.3,0,7.2-0.2,17.5-0.5l0.5,0.4v3.1l-0.5,0.4c-2.8,0.1-5,0.2-6.5,0.4 c-1.5,0.2-2.6,0.5-3.3,0.9c-0.7,0.4-1.1,1.5-1.4,3.1c-0.2,1.6-0.3,3.9-0.3,6.9l-0.1,14v8.5c8.9,0.2,17.4,0.4,25.3,0.4 c10.9,0,19.2-0.1,24.9-0.4v-8.5l-0.1-11.9c0-4.6-0.2-7.6-0.4-9c-0.2-1.3-0.5-2.2-0.9-2.7c-0.4-0.4-1.1-0.8-2.2-1.1 c-1.1-0.3-3.8-0.5-8.2-0.7l-0.4-0.4v-3.1L138,90c10.4,0.3,16.3,0.5,17.5,0.5c1.4,0,7.2-0.2,17.5-0.5l0.5,0.4v3.1l-0.5,0.4 c-2.8,0.1-5,0.2-6.6,0.4c-1.5,0.2-2.6,0.5-3.3,0.9c-0.7,0.4-1.1,1.5-1.3,3.1c-0.2,1.6-0.3,3.9-0.4,6.9l-0.1,14v28.3l0.1,11.9 c0,4.6,0.2,7.6,0.4,8.9c0.2,1.3,0.5,2.2,0.9,2.7c0.4,0.4,1.1,0.8,2.2,1.1c1.1,0.3,3.8,0.5,8.1,0.7l0.5,0.4v3.1l-0.5,0.5 c-10.4-0.3-16.3-0.5-17.5-0.5c-1.3,0-7.1,0.2-17.5,0.5l-0.4-0.5v-3.1l0.4-0.4c3.8-0.2,6.4-0.4,7.6-0.6c1.3-0.2,2.1-0.6,2.5-0.9 c0.4-0.4,0.8-1.2,1-2.5c0.3-1.3,0.4-4.1,0.4-8.4l0.1-12.9v-13.9c-12-0.2-20.5-0.4-25.3-0.4c-5,0-13.3,0.1-24.9,0.4v13.9l0.1,11.9 c0,4.6,0.2,7.6,0.4,8.9c0.2,1.3,0.5,2.2,0.9,2.7c0.4,0.4,1.1,0.8,2.2,1.1c1.1,0.3,3.8,0.5,8.1,0.7l0.5,0.4v3.1l-0.5,0.5 c-10.4-0.3-16.2-0.5-17.5-0.5c-1.3,0-7.1,0.2-17.5,0.5l-0.5-0.5v-3.1l0.5-0.4c3.8-0.2,6.3-0.4,7.6-0.6c1.3-0.2,2.1-0.6,2.5-0.9 c0.4-0.4,0.8-1.2,1-2.5c0.3-1.3,0.4-4.1,0.5-8.4l0.1-12.9v-28.3l-0.1-11.9c0-4.6-0.2-7.6-0.3-9c-0.2-1.3-0.5-2.2-0.9-2.7 c-0.4-0.4-1.1-0.8-2.2-1.1c-1.1-0.3-3.8-0.5-8.1-0.7l-0.5-0.4v-3.1L76.2,90z"></path> <path d="M188.5,134.2c0-6.1,0.9-11.8,2.6-17.1c1.7-5.3,4.7-10.2,8.9-14.7c4.2-4.5,9.3-8,15.2-10.4c5.9-2.5,12.7-3.7,20.1-3.7 c13.9,0,24.9,3.8,33.1,11.3c8.2,7.5,12.3,17.9,12.3,30.9c0,9.2-2,17.5-6,24.8c-4,7.3-9.8,13-17.3,17.1c-7.5,4.1-15.9,6.1-25.3,6.1 c-6.6,0-12.7-1.1-18.3-3.3c-5.6-2.2-10.3-5.5-14.3-9.9c-3.9-4.4-6.8-9.5-8.5-15.3C189.4,144.2,188.5,139,188.5,134.2z M201.2,130.2 c0,5,0.8,10.3,2.4,16c1.6,5.7,4,10.6,7.2,14.7c3.2,4.1,6.9,7.1,11,9.1c4.2,2,8.9,3,14.3,3c6.3,0,11.9-1.4,16.8-4.3 c4.9-2.9,8.7-7.4,11.2-13.5c2.6-6.1,3.8-12.9,3.8-20.5c0-8.2-1.5-15.6-4.4-22.3c-2.9-6.6-7.1-11.5-12.5-14.5 c-5.4-3-11.4-4.5-18-4.5c-9.9,0-17.7,3.1-23.4,9.3C204.1,109,201.2,118.1,201.2,130.2z"></path> <path d="M295.4,90.4l0.5-0.4c7.4,0.3,13.2,0.5,17.4,0.5c4.6,0,10.8-0.1,18.6-0.4c2.9-0.1,5-0.1,6.3-0.1c10.3,0,17.3,1.9,20.9,5.6 c3.7,3.7,5.5,8.2,5.5,13.3c0,3.4-0.9,6.8-2.7,10.1c-1.8,3.3-4.4,6.1-7.9,8.5c-3.5,2.3-8.3,4.1-14.5,5.3c1.1,1.6,3.2,4.3,6.2,8.2 l8.7,11.5c2.8,3.8,5.8,7.8,9,12c3.2,4.2,5.3,6.6,6.2,7.1c0.9,0.5,1.7,0.9,2.4,1c0.7,0.1,1.7,0.2,3.2,0.2l0.5,0.5v2.9l-0.5,0.5 c-2-0.2-4.3-0.4-7-0.4c-2.9,0-6,0.1-9.5,0.4c-2.8-3.4-7.2-9.3-13.2-17.8c-7-9.8-14.2-18.8-21.5-27.2l0.6-1.9 c2.1,0.1,3.8,0.2,4.9,0.2c7,0,12.6-1.7,16.5-5.1c4-3.4,6-8.1,6-14c0-5.4-1.8-9.4-5.4-12.2c-3.6-2.7-8.4-4.1-14.5-4.1 c-4.3,0-8.3,0.6-12.1,1.8c-0.6,0.9-0.9,8.5-0.9,22.9v28.3l0.1,11.9c0,4.6,0.2,7.6,0.4,8.9c0.2,1.3,0.5,2.2,0.9,2.7 c0.4,0.4,1.1,0.8,2.2,1.1c1.1,0.3,3.8,0.5,8.1,0.7l0.5,0.4v3.1l-0.5,0.5c-0.2,0-3.8-0.1-10.7-0.4c-2.9-0.1-5.1-0.1-6.8-0.1 c-1.3,0-7.1,0.2-17.5,0.5l-0.5-0.5v-3.1l0.5-0.4c3.8-0.2,6.3-0.4,7.6-0.6c1.3-0.2,2.1-0.6,2.5-0.9c0.4-0.4,0.8-1.2,1-2.5 c0.3-1.3,0.4-4.1,0.5-8.4l0.1-12.9v-28.3l-0.1-11.9c0-4.6-0.2-7.6-0.3-9c-0.2-1.3-0.5-2.2-0.9-2.7c-0.4-0.4-1.1-0.8-2.2-1.1 c-1.1-0.3-3.8-0.5-8.1-0.7l-0.5-0.4V90.4z"></path> <path d="M389,90l7.6,0.2c5,0.2,8.3,0.2,9.8,0.2c1.4,0,7.2-0.2,17.5-0.5l0.5,0.4v3.1l-0.5,0.4c-2.8,0.1-5,0.2-6.5,0.4 c-1.5,0.2-2.6,0.5-3.3,0.9c-0.7,0.4-1.1,1.5-1.4,3.1c-0.2,1.6-0.3,3.9-0.3,6.9l-0.1,14v28.3l0.1,11.9c0,4.6,0.2,7.6,0.4,8.9 c0.2,1.3,0.5,2.2,0.9,2.7c0.4,0.4,1.1,0.8,2.2,1.1c1.1,0.3,3.8,0.5,8.1,0.7l0.5,0.4v3.1l-0.5,0.5c-0.2,0-3.8-0.1-10.7-0.4 c-2.9-0.1-5.1-0.1-6.8-0.1c-1.3,0-7.1,0.2-17.5,0.5l-0.5-0.5v-3.1l0.5-0.4c3.8-0.2,6.3-0.4,7.6-0.6c1.3-0.2,2.1-0.6,2.5-0.9 c0.4-0.4,0.8-1.2,1-2.5c0.3-1.3,0.4-4.1,0.5-8.4l0.1-12.9v-28.3l-0.1-11.9c0-4.6-0.2-7.6-0.3-9c-0.2-1.3-0.5-2.2-0.9-2.7 c-0.4-0.4-1.1-0.8-2.2-1.1c-1.1-0.3-3.8-0.5-8.1-0.7l-0.5-0.4v-3.1L389,90z"></path> <path d="M438.7,176.2v-2.9l14.7-18.2l34.9-44.9c5.3-6.8,8.8-11.6,10.7-14.5h-2.5l-9.8-0.1c-8.6,0-15.6,0.1-20.8,0.4 c-5.3,0.3-8.7,0.5-10.4,0.8c-1.7,0.3-2.7,0.7-3.1,1.2c-0.4,0.5-0.7,1.7-0.9,3.6l-0.9,8.1l-0.5,0.5H447l-0.5-0.5 c0.2-3.1,0.3-5.6,0.3-7.4c0-5-0.1-8.9-0.3-11.8L447,90c14.5,0.3,24.7,0.5,30.5,0.5c9.6,0,22.2-0.2,37.8-0.5l0.5,0.5v3.1 c-4.5,5.3-7.6,9.1-9.4,11.4l-50.8,65.5l24.7,0.4c4.9,0,9.9-0.1,14.9-0.4c5-0.2,8.3-0.5,9.9-0.7c1.6-0.2,2.7-0.6,3.3-1.1 c0.6-0.5,1-0.9,1.2-1.4c0.2-0.5,0.5-1.9,1-4.2l1.3-8.2l0.5-0.5h2.9l0.5,0.5c-0.3,2.6-0.6,9.7-0.9,21.2l-0.5,0.5 c-17.2-0.3-30.7-0.5-40.6-0.5c-7,0-18.5,0.2-34.5,0.5L438.7,176.2z"></path> <path d="M613.4,176.7l-0.5-0.5v-2.8l0.5-0.5c2.5,0,4.5-0.2,6-0.4c1.5-0.2,2.4-0.7,2.9-1.2c0.4-0.6,0.7-1.5,0.9-2.7 c0.1-1.3,0.3-4.1,0.4-8.5c0.1-4.4,0.2-7.6,0.2-9.5v-49.3c0-2.1-0.4-3.6-1.1-4.6c-0.8-1-1.8-1.6-3.1-1.9c-1.3-0.3-3.5-0.4-6.7-0.5 l-0.5-0.5v-2.9l0.5-0.5c5.6,0.2,9.3,0.3,11,0.3c4.1,0,7.5-0.1,10.1-0.3l19.5,25.3l28.6,35.9c3.5,4.4,7,8.5,10.6,12.4v-47.2 c0-1.5-0.1-4.6-0.2-9.4c-0.1-4.8-0.3-7.8-0.5-9.1c-0.2-1.3-0.6-2.1-1.1-2.6c-0.5-0.4-1.5-0.8-2.9-1c-1.4-0.2-3.3-0.4-5.7-0.4 l-0.5-0.5v-2.8l0.5-0.5c3.3,0.2,8,0.3,14.1,0.3c5.6,0,9.6-0.1,12.1-0.3l0.5,0.5v2.8l-0.5,0.5c-2.7,0-4.8,0.2-6.2,0.5 c-1.5,0.3-2.4,0.7-2.7,1.3c-0.4,0.6-0.6,1.5-0.8,2.7c-0.1,1.2-0.3,4-0.4,8.4c-0.1,4.4-0.2,7.6-0.2,9.6v29l0.1,16.8 c0.1,5.5,0.2,11,0.2,16.5c-2-0.7-5.6-1.5-10.6-2.6l-4.3-5.1l-13-15.9l-41.4-51.7v46.8c0,1.9,0.1,5.2,0.2,10 c0.1,4.8,0.3,7.7,0.5,8.7c0.2,1,0.5,1.7,0.8,2.1c0.3,0.4,1,0.7,2.1,1.1c1.1,0.3,3.3,0.5,6.7,0.5l0.5,0.5v2.9l-0.5,0.5 c-2.1-0.3-5.5-0.4-10.3-0.4C623.2,176.3,617.9,176.4,613.4,176.7z"></path> </g> <g id="Brush_Stroke_3"> <g> <g> <path d="M458.1,197.4v15.2h17.6v-15.2h4.8v36.4h-4.8v-17.1h-17.6v17.1h-4.7v-36.4H458.1z"></path> <path d="M490,221.6c0.1,6.4,4.2,9.1,9,9.1c3.4,0,5.5-0.6,7.2-1.4l0.8,3.4c-1.7,0.8-4.5,1.6-8.7,1.6c-8,0-12.9-5.3-12.9-13.2 s4.6-14.1,12.3-14.1c8.5,0,10.8,7.5,10.8,12.3c0,1-0.1,1.7-0.2,2.2H490z M503.9,218.2c0.1-3-1.2-7.7-6.6-7.7 c-4.8,0-6.9,4.4-7.3,7.7H503.9z"></path> <path d="M527.7,233.8l-0.4-3.3h-0.2c-1.5,2.1-4.3,3.9-8,3.9c-5.3,0-8-3.7-8-7.5c0-6.3,5.6-9.8,15.7-9.7v-0.5c0-2.2-0.6-6-5.9-6 c-2.4,0-5,0.8-6.8,1.9l-1.1-3.1c2.2-1.4,5.3-2.3,8.6-2.3c8,0,9.9,5.5,9.9,10.7v9.8c0,2.3,0.1,4.5,0.4,6.3H527.7z M527,220.5 c-5.2-0.1-11.1,0.8-11.1,5.9c0,3.1,2.1,4.5,4.5,4.5c3.4,0,5.6-2.2,6.3-4.4c0.2-0.5,0.3-1,0.3-1.5V220.5z"></path> <path d="M538.2,195.5h4.8v38.3h-4.8V195.5z"></path> <path d="M555.5,200.2v7.5h6.8v3.6h-6.8v14.1c0,3.2,0.9,5.1,3.6,5.1c1.2,0,2.2-0.2,2.8-0.3l0.2,3.6c-0.9,0.4-2.4,0.6-4.2,0.6 c-2.2,0-4-0.7-5.1-2c-1.4-1.4-1.8-3.7-1.8-6.8v-14.3h-4.1v-3.6h4.1v-6.3L555.5,200.2z"></path> <path d="M566.5,195.5h4.8v16.3h0.1c0.8-1.4,1.9-2.5,3.4-3.3c1.4-0.8,3.1-1.4,4.9-1.4c3.5,0,9.1,2.2,9.1,11.2v15.6H584v-15 c0-4.2-1.6-7.8-6-7.8c-3.1,0-5.5,2.2-6.4,4.8c-0.3,0.6-0.3,1.4-0.3,2.3v15.8h-4.8V195.5z"></path> <path d="M631.3,232.6c-1.7,0.9-5.2,1.7-9.6,1.7c-10.3,0-18-6.5-18-18.4c0-11.4,7.7-19.1,19-19.1c4.5,0,7.4,1,8.6,1.6l-1.1,3.8 c-1.8-0.9-4.3-1.5-7.3-1.5c-8.5,0-14.2,5.5-14.2,15c0,8.9,5.1,14.6,14,14.6c2.9,0,5.8-0.6,7.7-1.5L631.3,232.6z"></path> <path d="M649.9,233.8l-0.4-3.3h-0.2c-1.5,2.1-4.3,3.9-8,3.9c-5.3,0-8-3.7-8-7.5c0-6.3,5.6-9.8,15.7-9.7v-0.5c0-2.2-0.6-6-5.9-6 c-2.4,0-5,0.8-6.8,1.9l-1.1-3.1c2.2-1.4,5.3-2.3,8.6-2.3c8,0,9.9,5.5,9.9,10.7v9.8c0,2.3,0.1,4.5,0.4,6.3H649.9z M649.2,220.5 c-5.2-0.1-11.1,0.8-11.1,5.9c0,3.1,2.1,4.5,4.5,4.5c3.4,0,5.6-2.2,6.3-4.4c0.2-0.5,0.3-1,0.3-1.5V220.5z"></path> <path d="M660.4,215.8c0-3.1-0.1-5.7-0.2-8.2h4.2l0.2,5.1h0.2c1.2-3.5,4.1-5.7,7.2-5.7c0.5,0,0.9,0.1,1.4,0.2v4.5 c-0.5-0.1-1-0.2-1.6-0.2c-3.3,0-5.7,2.5-6.4,6.1c-0.1,0.6-0.2,1.4-0.2,2.2v13.9h-4.7V215.8z"></path> <path d="M679,221.6c0.1,6.4,4.2,9.1,9,9.1c3.4,0,5.5-0.6,7.2-1.4l0.8,3.4c-1.7,0.8-4.5,1.6-8.7,1.6c-8,0-12.9-5.3-12.9-13.2 s4.6-14.1,12.3-14.1c8.5,0,10.8,7.5,10.8,12.3c0,1-0.1,1.7-0.2,2.2H679z M692.9,218.2c0.1-3-1.2-7.7-6.6-7.7 c-4.8,0-6.9,4.4-7.3,7.7H692.9z"></path> </g> </g> </g> <g> <path class="st3" d="M239.3,275.8l7.8,12.1c1.4,2.1,2.6,3.5,3.5,4.1c0.9,0.6,2.1,0.9,3.6,0.9l-0.3,0.9h-13.5l0.2-0.9 c1.1-0.1,1.8-0.4,2.3-0.8c0.4-0.4,0.7-0.9,0.7-1.4c0-0.5-0.1-0.9-0.2-1.4c-0.1-0.3-0.6-1.1-1.3-2.3l-6.4-10.1l-3.1,10.5 c-0.5,1.7-0.8,2.8-0.8,3.4c0,0.6,0.2,1,0.7,1.4c0.4,0.3,1.5,0.5,3.2,0.6l-0.4,0.9h-12.5l0.3-0.9c1.2,0,2-0.1,2.4-0.3 c0.6-0.3,1.1-0.6,1.4-1.1c0.4-0.6,0.9-2,1.5-4l5.6-19.1c0.4-1.5,0.6-2.6,0.6-3.5c0-0.6-0.2-1.1-0.6-1.4c-0.4-0.3-1.2-0.5-2.3-0.5 h-0.5l0.3-0.9h11.8l-0.2,0.9c-1,0-1.7,0.1-2.2,0.3c-0.7,0.3-1.2,0.7-1.5,1.3c-0.3,0.5-0.8,1.8-1.4,3.9l-2.4,8.1l11.2-8.5 c1.5-1.1,2.5-2,2.9-2.7c0.3-0.4,0.4-0.8,0.4-1.1c0-0.3-0.1-0.6-0.4-0.8c-0.3-0.3-0.7-0.4-1.3-0.5l0.2-0.9h10.1l-0.2,0.9 c-1.1,0.2-2,0.4-2.8,0.7c-0.8,0.3-1.5,0.7-2.3,1.3c-0.2,0.2-1.7,1.3-4.5,3.5L239.3,275.8z"></path> <path class="st3" d="M257.7,285c-0.1,0.8-0.2,1.4-0.2,1.9c0,1.4,0.5,2.6,1.5,3.5s2.2,1.5,3.6,1.5c1.1,0,2.2-0.2,3.2-0.7 c1-0.5,2.6-1.5,4.6-3l0.5,0.7c-3.7,3.6-7.2,5.5-10.5,5.5c-2.3,0-4-0.7-5.1-2.1c-1.2-1.4-1.7-3-1.7-4.7c0-2.3,0.7-4.7,2.1-7.1 c1.4-2.4,3.2-4.3,5.4-5.6c2.2-1.3,4.4-2,6.7-2c1.6,0,2.9,0.3,3.7,1c0.8,0.7,1.2,1.5,1.2,2.4c0,1.3-0.5,2.5-1.5,3.7 c-1.4,1.5-3.3,2.8-6,3.7C263.3,284.2,260.8,284.7,257.7,285z M257.8,283.9c2.3-0.3,4.2-0.7,5.6-1.3c1.9-0.9,3.3-1.9,4.3-3.1 c1-1.2,1.4-2.3,1.4-3.4c0-0.7-0.2-1.2-0.6-1.6c-0.4-0.4-1-0.6-1.8-0.6c-1.6,0-3.3,0.8-5.1,2.5C260,278.1,258.7,280.6,257.8,283.9z"></path> <path class="st3" d="M278,285c-0.1,0.8-0.2,1.4-0.2,1.9c0,1.4,0.5,2.6,1.5,3.5s2.2,1.5,3.6,1.5c1.1,0,2.2-0.2,3.2-0.7 c1-0.5,2.6-1.5,4.6-3l0.5,0.7c-3.7,3.6-7.2,5.5-10.5,5.5c-2.3,0-4-0.7-5.1-2.1c-1.2-1.4-1.7-3-1.7-4.7c0-2.3,0.7-4.7,2.1-7.1 c1.4-2.4,3.2-4.3,5.4-5.6c2.2-1.3,4.4-2,6.7-2c1.6,0,2.9,0.3,3.7,1c0.8,0.7,1.2,1.5,1.2,2.4c0,1.3-0.5,2.5-1.5,3.7 c-1.4,1.5-3.3,2.8-6,3.7C283.6,284.2,281.2,284.7,278,285z M278.2,283.9c2.3-0.3,4.2-0.7,5.6-1.3c1.9-0.9,3.3-1.9,4.3-3.1 c1-1.2,1.4-2.3,1.4-3.4c0-0.7-0.2-1.2-0.6-1.6c-0.4-0.4-1-0.6-1.8-0.6c-1.6,0-3.3,0.8-5.1,2.5C280.3,278.1,279,280.6,278.2,283.9z"></path> <path class="st3" d="M303.2,272.7l-1.6,5.3c1.7-2,3.2-3.4,4.5-4.2c1.3-0.8,2.7-1.2,4-1.2c1.4,0,2.5,0.5,3.5,1.6s1.5,2.5,1.5,4.3 c0,3.4-1.4,6.9-4.1,10.4c-2.8,3.5-6,5.3-9.7,5.3c-0.8,0-1.5-0.1-2-0.3c-0.6-0.2-1.3-0.5-2-0.9l-1.7,6c-0.3,1.2-0.5,1.9-0.5,2.3 c0,0.3,0.1,0.6,0.3,0.9c0.2,0.2,0.5,0.4,0.9,0.6s1.2,0.2,2.4,0.2l-0.2,0.9h-10.9l0.2-0.9c1.4-0.1,2.4-0.3,2.9-0.7 c0.5-0.4,1-1.6,1.6-3.6l5.9-20.4c0.4-1.3,0.5-2.1,0.5-2.4c0-0.4-0.1-0.7-0.4-1c-0.2-0.2-0.6-0.3-1.1-0.3c-0.4,0-1.1,0.1-1.9,0.2 v-0.9L303.2,272.7z M297.8,291.3c1,1.1,2.2,1.7,3.9,1.7c0.8,0,1.6-0.2,2.5-0.7c0.8-0.4,1.6-1.1,2.4-2c0.8-0.9,1.5-1.9,2.1-3.1 c0.6-1.2,1.2-2.5,1.7-4.1c0.5-1.6,0.8-3.1,0.8-4.7c0-1.2-0.3-2.2-0.8-2.8c-0.6-0.7-1.2-1-2-1c-1.7,0-3.3,1-4.9,2.9 c-1.6,1.9-2.8,4.2-3.6,6.7L297.8,291.3z"></path> <path class="st3" d="M325.6,272.7l-4.7,16.3c-0.3,1.1-0.5,1.8-0.5,2c0,0.2,0.1,0.5,0.2,0.6c0.1,0.2,0.3,0.2,0.5,0.2 c0.2,0,0.5-0.1,0.8-0.4c0.9-0.7,1.8-1.7,2.7-3l0.8,0.5c-1.1,1.6-2.3,3-3.8,4.1c-1.1,0.8-2.1,1.2-3.1,1.2c-0.6,0-1.2-0.2-1.6-0.6 c-0.4-0.4-0.6-0.9-0.6-1.4c0-0.6,0.2-1.5,0.6-2.9l3.1-10.4c0.5-1.7,0.8-2.8,0.8-3.2c0-0.3-0.1-0.6-0.4-0.8c-0.2-0.2-0.6-0.3-1-0.3 c-0.3,0-1.1,0.1-2.1,0.3V274L325.6,272.7z M325.3,263.5c0.7,0,1.2,0.2,1.7,0.7c0.5,0.4,0.7,1,0.7,1.7c0,0.6-0.2,1.2-0.7,1.6 c-0.5,0.5-1,0.7-1.7,0.7c-0.6,0-1.2-0.2-1.7-0.7c-0.5-0.5-0.7-1-0.7-1.6c0-0.7,0.2-1.2,0.7-1.7 C324.1,263.7,324.6,263.5,325.3,263.5z"></path> <path class="st3" d="M337.4,272.7l-3.1,10.6c2.9-4.3,5.1-7.2,6.7-8.5c1.5-1.4,3-2,4.5-2c0.8,0,1.4,0.3,1.9,0.8 c0.5,0.5,0.8,1.2,0.8,2c0,0.9-0.2,2.2-0.7,3.7l-2.8,9.8c-0.3,1.1-0.5,1.8-0.5,2.1c0,0.2,0.1,0.4,0.2,0.5c0.1,0.1,0.3,0.2,0.4,0.2 c0.2,0,0.4-0.1,0.7-0.3c0.8-0.7,1.7-1.6,2.7-3l0.7,0.4c-1.4,2.1-2.8,3.5-4.1,4.4c-0.9,0.6-1.7,0.9-2.4,0.9c-0.6,0-1-0.2-1.4-0.5 c-0.3-0.3-0.5-0.8-0.5-1.4c0-0.7,0.3-2,0.8-3.8l2.7-9.3c0.3-1.2,0.5-2.1,0.5-2.7c0-0.3-0.1-0.6-0.3-0.8c-0.2-0.2-0.4-0.3-0.7-0.3 c-0.4,0-1,0.2-1.6,0.6c-1.1,0.7-2.3,1.8-3.6,3.5c-1.2,1.6-2.5,3.7-3.9,6.2c-0.7,1.3-1.3,2.8-1.8,4.3l-1.2,3.8h-3.5l4.2-14.6 c0.5-1.8,0.7-2.8,0.7-3.2c0-0.3-0.1-0.6-0.4-0.9s-0.6-0.4-1-0.4c-0.2,0-0.5,0-1,0.1l-0.9,0.1l-0.1-0.8L337.4,272.7z"></path> <path class="st3" d="M374.6,274.2l-0.7,2.4h-3.9c0.3,0.8,0.4,1.6,0.4,2.3c0,2-0.9,3.9-2.6,5.5c-1.8,1.6-4.2,2.5-7.2,2.7 c-1.6,0.5-2.9,1.1-3.7,1.8c-0.3,0.2-0.5,0.5-0.5,0.8c0,0.3,0.1,0.6,0.4,0.8c0.3,0.3,1,0.5,2.1,0.8l4.5,1c2.5,0.6,4.1,1.3,5,2.1 c0.8,0.8,1.2,1.8,1.2,2.8c0,1.3-0.5,2.4-1.4,3.5c-0.9,1.1-2.3,1.9-4.1,2.5s-3.8,0.9-6,0.9c-1.9,0-3.7-0.2-5.3-0.7 c-1.6-0.5-2.7-1.1-3.4-1.8s-1-1.6-1-2.4c0-0.7,0.2-1.4,0.7-2.1s1-1.3,1.7-1.8c0.4-0.3,1.6-1,3.6-2.1c-0.7-0.6-1.1-1.2-1.1-1.8 c0-0.6,0.3-1.3,0.9-2c0.6-0.7,2-1.5,4-2.3c-1.7-0.3-3.1-1-4.1-2.1c-1-1.1-1.5-2.3-1.5-3.7c0-2.2,1-4.2,2.9-5.9 c1.9-1.7,4.5-2.6,7.7-2.6c1.2,0,2.1,0.1,2.9,0.3c0.7,0.2,1.5,0.6,2.2,1.1H374.6z M355.4,293.8c-1.3,0.6-2.2,1.3-2.8,2.2 c-0.6,0.9-1,1.8-1,2.7c0,1,0.5,1.9,1.4,2.5c1.3,1,3.3,1.4,5.9,1.4c2.2,0,4.1-0.4,5.7-1.1c1.6-0.8,2.4-1.7,2.4-2.9 c0-0.6-0.3-1.2-0.9-1.7c-0.6-0.5-1.7-1-3.4-1.3C361.8,295.3,359.3,294.8,355.4,293.8z M366.6,277.8c0-1.2-0.3-2.2-1-2.9 c-0.7-0.7-1.6-1.1-2.7-1.1c-1.8,0-3.2,0.9-4.3,2.6c-1.1,1.8-1.7,3.6-1.7,5.5c0,1.2,0.4,2.2,1.1,2.9c0.7,0.8,1.6,1.1,2.7,1.1 c0.8,0,1.6-0.2,2.4-0.7c0.8-0.4,1.4-1.1,1.9-1.9c0.5-0.8,0.9-1.8,1.3-3C366.4,279.3,366.6,278.4,366.6,277.8z"></path> <path class="st3" d="M402.2,288.7c-1.6,1.9-3.2,3.4-4.9,4.3c-1.6,0.9-3.4,1.4-5.2,1.4c-2.2,0-3.9-0.6-5.2-1.9 c-1.2-1.2-1.9-2.9-1.9-5c0-2.4,0.7-4.7,2-7c1.3-2.3,3.1-4.2,5.4-5.6c2.2-1.4,4.4-2.2,6.6-2.2c1.7,0,3,0.4,3.8,1.1 c0.8,0.7,1.3,1.6,1.3,2.6c0,1-0.3,1.8-0.9,2.5c-0.4,0.5-1,0.8-1.6,0.8c-0.5,0-0.9-0.2-1.2-0.5s-0.5-0.7-0.5-1.2 c0-0.3,0.1-0.6,0.2-0.8s0.4-0.5,0.7-0.9c0.4-0.3,0.6-0.6,0.7-0.8c0.1-0.2,0.1-0.3,0.1-0.5c0-0.3-0.1-0.6-0.4-0.8 c-0.4-0.3-1.1-0.5-1.9-0.5c-1.5,0-3,0.5-4.5,1.6c-1.5,1.1-2.8,2.6-3.8,4.6c-1.3,2.4-1.9,4.8-1.9,7.2c0,1.6,0.4,2.8,1.4,3.8 c0.9,0.9,2.1,1.4,3.7,1.4c1.2,0,2.4-0.3,3.6-0.9c1.2-0.6,2.5-1.7,3.9-3.2L402.2,288.7z"></path> <path class="st3" d="M426,280c0,2.3-0.6,4.6-1.9,6.9c-1.2,2.3-3,4.1-5.2,5.4c-2.2,1.3-4.4,2-6.4,2c-2.1,0-3.9-0.7-5.2-2 c-1.3-1.4-2-3.1-2-5.3c0-2.3,0.7-4.6,2-6.9c1.3-2.3,3.1-4.1,5.3-5.4c2.2-1.3,4.3-2,6.4-2c2.1,0,3.7,0.7,5.1,2S426,277.9,426,280z M422.2,278.4c0-1.4-0.4-2.5-1.1-3.3c-0.7-0.8-1.6-1.2-2.7-1.2c-2.3,0-4.4,1.6-6.3,4.9c-1.9,3.3-2.9,6.5-2.9,9.7 c0,1.5,0.4,2.6,1.1,3.4c0.7,0.8,1.7,1.2,2.8,1.2c2.2,0,4.2-1.6,6.2-4.9S422.2,281.8,422.2,278.4z"></path> <path class="st3" d="M437.3,272.7l-3,10.5c1.4-2.5,2.5-4.3,3.4-5.6c1.5-1.9,2.9-3.3,4.3-4.2c0.8-0.5,1.7-0.7,2.6-0.7 c0.8,0,1.4,0.2,1.9,0.7c0.5,0.5,0.8,1.1,0.8,1.9c0,0.8-0.2,1.8-0.5,3l-1.7,5.9c2.5-4.7,4.9-8,7.2-10c1.3-1.1,2.5-1.6,3.7-1.6 c0.7,0,1.3,0.2,1.8,0.7c0.5,0.5,0.7,1.2,0.7,2.3c0,0.9-0.1,1.9-0.4,2.9l-2.6,9c-0.6,2-0.8,3.1-0.8,3.3s0.1,0.4,0.2,0.6 c0.1,0.1,0.2,0.2,0.4,0.2s0.4-0.1,0.8-0.4c0.9-0.7,1.7-1.6,2.5-2.7l0.8,0.5c-0.4,0.6-1.1,1.5-2.1,2.6c-1,1.1-1.8,1.8-2.5,2.2 c-0.7,0.4-1.3,0.6-1.9,0.6c-0.5,0-1-0.2-1.4-0.6c-0.4-0.4-0.5-0.8-0.5-1.4c0-0.7,0.3-2.2,1-4.5l2.1-7.5c0.5-1.7,0.7-2.7,0.8-2.9 c0-0.3,0.1-0.6,0.1-0.9c0-0.4-0.1-0.7-0.3-0.9c-0.2-0.2-0.4-0.3-0.6-0.3c-0.7,0-1.3,0.3-2.1,1c-2.1,2-4.1,4.7-6,8.3 c-1.2,2.3-2.4,5.3-3.4,9h-3.5l4-14.1c0.4-1.5,0.7-2.5,0.7-3c0-0.4-0.1-0.7-0.3-0.9c-0.2-0.2-0.4-0.3-0.6-0.3 c-0.5,0-1.1,0.2-1.6,0.6c-0.9,0.6-2.1,1.9-3.6,3.9c-1.5,2-2.6,3.9-3.4,5.7c-0.4,0.9-1.3,3.6-2.8,8.2h-3.4l4.3-15.1l0.6-2 c0.1-0.3,0.2-0.5,0.2-0.7c0-0.3-0.2-0.6-0.5-0.9c-0.3-0.3-0.7-0.4-1.2-0.4c-0.2,0-0.8,0.1-1.7,0.3l-0.2-0.9L437.3,272.7z"></path> <path class="st3" d="M469.9,272.7l-3,10.5c1.3-2.5,2.5-4.3,3.4-5.6c1.5-1.9,2.9-3.3,4.3-4.2c0.8-0.5,1.7-0.7,2.6-0.7 c0.8,0,1.4,0.2,1.9,0.7c0.5,0.5,0.8,1.1,0.8,1.9c0,0.8-0.2,1.8-0.5,3l-1.7,5.9c2.5-4.7,4.9-8,7.2-10c1.3-1.1,2.5-1.6,3.7-1.6 c0.7,0,1.3,0.2,1.8,0.7c0.5,0.5,0.7,1.2,0.7,2.3c0,0.9-0.1,1.9-0.4,2.9l-2.6,9c-0.6,2-0.8,3.1-0.8,3.3s0.1,0.4,0.2,0.6 c0.1,0.1,0.2,0.2,0.4,0.2c0.2,0,0.4-0.1,0.8-0.4c0.9-0.7,1.7-1.6,2.5-2.7l0.8,0.5c-0.4,0.6-1.1,1.5-2.1,2.6c-1,1.1-1.8,1.8-2.5,2.2 c-0.7,0.4-1.3,0.6-1.9,0.6c-0.5,0-1-0.2-1.4-0.6c-0.4-0.4-0.5-0.8-0.5-1.4c0-0.7,0.3-2.2,1-4.5l2.1-7.5c0.5-1.7,0.7-2.7,0.8-2.9 c0-0.3,0.1-0.6,0.1-0.9c0-0.4-0.1-0.7-0.3-0.9c-0.2-0.2-0.4-0.3-0.6-0.3c-0.7,0-1.3,0.3-2.1,1c-2.1,2-4.1,4.7-6,8.3 c-1.2,2.3-2.4,5.3-3.4,9h-3.5l4-14.1c0.4-1.5,0.7-2.5,0.7-3c0-0.4-0.1-0.7-0.3-0.9c-0.2-0.2-0.4-0.3-0.6-0.3 c-0.5,0-1.1,0.2-1.6,0.6c-0.9,0.6-2.1,1.9-3.6,3.9c-1.5,2-2.6,3.9-3.4,5.7c-0.4,0.9-1.3,3.6-2.8,8.2h-3.4l4.3-15.1l0.6-2 c0.1-0.3,0.2-0.5,0.2-0.7c0-0.3-0.2-0.6-0.5-0.9c-0.3-0.3-0.7-0.4-1.2-0.4c-0.2,0-0.8,0.1-1.7,0.3l-0.2-0.9L469.9,272.7z"></path> <path class="st3" d="M515.5,273.3l-4.1,13.9c-0.6,2.1-0.9,3.4-0.9,3.9c0,0.3,0.1,0.5,0.2,0.6c0.1,0.1,0.2,0.2,0.4,0.2 c0.3,0,0.6-0.1,0.9-0.4c0.3-0.2,1.1-1.2,2.4-2.9l0.7,0.5c-1.2,1.9-2.5,3.4-3.8,4.3c-0.9,0.6-1.7,0.9-2.5,0.9 c-0.6,0-1.1-0.2-1.4-0.5c-0.3-0.3-0.5-0.8-0.5-1.3c0-0.5,0.1-1.2,0.3-2.1c0.2-1.1,1-3.6,2.1-7.5c-2.6,4.3-4.9,7.3-6.6,9 c-1.8,1.6-3.4,2.5-5,2.5c-0.7,0-1.3-0.2-1.8-0.7c-0.5-0.5-0.7-1.1-0.7-1.9c0-1.2,0.3-2.9,1-5.3l2-7.2c0.5-1.7,0.7-2.8,0.7-3.2 c0-0.2-0.1-0.3-0.2-0.5c-0.1-0.1-0.3-0.2-0.4-0.2c-0.3,0-0.7,0.1-1,0.3c-0.3,0.2-1.1,1.1-2.2,2.6l-0.7-0.5c1.2-1.8,2.4-3.1,3.7-4 c1-0.7,1.9-1,2.8-1c0.6,0,1,0.2,1.4,0.5c0.4,0.4,0.5,0.8,0.5,1.4c0,0.8-0.3,2.3-0.9,4.5l-2.2,7.5c-0.6,2-0.9,3.3-0.9,3.9 c0,0.3,0.1,0.5,0.3,0.7c0.2,0.2,0.5,0.3,0.8,0.3c0.5,0,1.2-0.3,2-0.8c0.8-0.5,1.9-1.6,3.3-3.4c1.4-1.8,2.5-3.4,3.4-5 c0.9-1.5,1.8-4,2.9-7.4l0.5-1.8H515.5z"></path> <path class="st3" d="M526.5,272.7l-3.1,10.6c2.9-4.3,5.1-7.2,6.7-8.5c1.5-1.4,3-2,4.5-2c0.8,0,1.4,0.3,1.9,0.8 c0.5,0.5,0.8,1.2,0.8,2c0,0.9-0.2,2.2-0.7,3.7l-2.8,9.8c-0.3,1.1-0.5,1.8-0.5,2.1c0,0.2,0.1,0.4,0.2,0.5c0.1,0.1,0.3,0.2,0.4,0.2 c0.2,0,0.4-0.1,0.7-0.3c0.8-0.7,1.7-1.6,2.7-3l0.7,0.4c-1.4,2.1-2.8,3.5-4.1,4.4c-0.9,0.6-1.7,0.9-2.4,0.9c-0.6,0-1-0.2-1.4-0.5 c-0.3-0.3-0.5-0.8-0.5-1.4c0-0.7,0.3-2,0.8-3.8l2.7-9.3c0.3-1.2,0.5-2.1,0.5-2.7c0-0.3-0.1-0.6-0.3-0.8c-0.2-0.2-0.5-0.3-0.7-0.3 c-0.4,0-1,0.2-1.6,0.6c-1.1,0.7-2.3,1.8-3.6,3.5c-1.2,1.6-2.6,3.7-3.9,6.2c-0.7,1.3-1.3,2.8-1.8,4.3l-1.2,3.8h-3.5l4.2-14.6 c0.5-1.8,0.7-2.8,0.7-3.2c0-0.3-0.1-0.6-0.4-0.9s-0.6-0.4-1-0.4c-0.2,0-0.5,0-1,0.1l-0.9,0.1l-0.1-0.8L526.5,272.7z"></path> <path class="st3" d="M550,272.7l-4.6,16.3c-0.3,1.1-0.5,1.8-0.5,2c0,0.2,0.1,0.5,0.2,0.6c0.1,0.2,0.3,0.2,0.5,0.2 c0.2,0,0.5-0.1,0.8-0.4c0.9-0.7,1.8-1.7,2.7-3l0.8,0.5c-1.1,1.6-2.3,3-3.7,4.1c-1.1,0.8-2.1,1.2-3,1.2c-0.6,0-1.2-0.2-1.6-0.6 c-0.4-0.4-0.6-0.9-0.6-1.4c0-0.6,0.2-1.5,0.6-2.9l3-10.4c0.5-1.7,0.7-2.8,0.7-3.2c0-0.3-0.1-0.6-0.4-0.8c-0.2-0.2-0.6-0.3-1-0.3 c-0.3,0-1.1,0.1-2.1,0.3V274L550,272.7z M549.7,263.5c0.7,0,1.2,0.2,1.7,0.7c0.5,0.4,0.7,1,0.7,1.7c0,0.6-0.2,1.2-0.7,1.6 c-0.5,0.5-1,0.7-1.7,0.7s-1.2-0.2-1.7-0.7c-0.5-0.5-0.7-1-0.7-1.6c0-0.7,0.2-1.2,0.7-1.7C548.5,263.7,549,263.5,549.7,263.5z"></path> <path class="st3" d="M563.6,267l-1.8,6.3h3.6l-0.4,1.5h-3.6l-4,13.7c-0.4,1.5-0.6,2.4-0.6,2.9c0,0.3,0.1,0.5,0.2,0.6 c0.1,0.1,0.3,0.2,0.4,0.2c0.4,0,0.9-0.3,1.5-0.8c0.4-0.3,1.2-1.3,2.5-2.9l0.8,0.6c-1.4,2.1-2.8,3.5-4,4.4c-0.9,0.6-1.7,0.9-2.6,0.9 c-0.7,0-1.2-0.2-1.7-0.6c-0.4-0.4-0.6-1-0.6-1.6c0-0.8,0.2-2.1,0.7-3.8l3.9-13.5h-3.5l0.2-0.9c1.7-0.5,3.1-1.2,4.2-2.1 c1.1-0.9,2.4-2.5,3.8-4.8H563.6z"></path> <path class="st3" d="M574.6,272.7L570,289c-0.3,1.1-0.5,1.8-0.5,2c0,0.2,0.1,0.5,0.2,0.6c0.1,0.2,0.3,0.2,0.5,0.2 c0.2,0,0.5-0.1,0.8-0.4c0.9-0.7,1.8-1.7,2.7-3l0.8,0.5c-1.1,1.6-2.3,3-3.7,4.1c-1.1,0.8-2.1,1.2-3,1.2c-0.6,0-1.2-0.2-1.6-0.6 c-0.4-0.4-0.6-0.9-0.6-1.4c0-0.6,0.2-1.5,0.6-2.9l3-10.4c0.5-1.7,0.7-2.8,0.7-3.2c0-0.3-0.1-0.6-0.4-0.8c-0.2-0.2-0.6-0.3-1-0.3 c-0.3,0-1.1,0.1-2.1,0.3V274L574.6,272.7z M574.3,263.5c0.7,0,1.2,0.2,1.7,0.7c0.5,0.4,0.7,1,0.7,1.7c0,0.6-0.2,1.2-0.7,1.6 c-0.5,0.5-1,0.7-1.7,0.7s-1.2-0.2-1.7-0.7c-0.5-0.5-0.7-1-0.7-1.6c0-0.7,0.2-1.2,0.7-1.7C573.1,263.7,573.6,263.5,574.3,263.5z"></path> <path class="st3" d="M581.6,285c-0.1,0.8-0.2,1.4-0.2,1.9c0,1.4,0.5,2.6,1.5,3.5s2.2,1.5,3.6,1.5c1.1,0,2.2-0.2,3.2-0.7 c1-0.5,2.6-1.5,4.6-3l0.5,0.7c-3.7,3.6-7.2,5.5-10.5,5.5c-2.3,0-4-0.7-5.1-2.1c-1.2-1.4-1.7-3-1.7-4.7c0-2.3,0.7-4.7,2.1-7.1 c1.4-2.4,3.2-4.3,5.4-5.6c2.2-1.3,4.4-2,6.7-2c1.6,0,2.9,0.3,3.7,1c0.8,0.7,1.2,1.5,1.2,2.4c0,1.3-0.5,2.5-1.5,3.7 c-1.4,1.5-3.3,2.8-6,3.7C587.2,284.2,584.7,284.7,581.6,285z M581.7,283.9c2.3-0.3,4.2-0.7,5.6-1.3c1.9-0.9,3.3-1.9,4.3-3.1 c1-1.2,1.4-2.3,1.4-3.4c0-0.7-0.2-1.2-0.6-1.6c-0.4-0.4-1-0.6-1.8-0.6c-1.6,0-3.3,0.8-5.1,2.5C583.9,278.1,582.6,280.6,581.7,283.9 z"></path> <path class="st3" d="M613.4,272.7l-1.4,7.1h-0.9c-0.1-2.1-0.5-3.6-1.3-4.5c-0.8-0.9-1.8-1.4-3-1.4c-1,0-1.7,0.3-2.3,0.8 c-0.6,0.5-0.8,1.2-0.8,1.9c0,0.5,0.1,1,0.3,1.5c0.2,0.5,0.7,1.1,1.5,2c2,2.2,3.3,3.9,3.9,5c0.6,1.1,0.9,2.2,0.9,3.2 c0,1.6-0.7,3-2,4.3c-1.3,1.2-3,1.9-5.1,1.9c-1.1,0-2.4-0.3-3.9-0.8c-0.5-0.2-0.9-0.3-1.2-0.3c-0.7,0-1.2,0.4-1.6,1.1h-0.9l1.4-7.5 h0.9c0.1,2.4,0.6,4,1.5,5c0.9,1,2.1,1.5,3.6,1.5c1.2,0,2.1-0.3,2.8-1c0.7-0.7,1-1.5,1-2.4c0-0.6-0.1-1.2-0.4-1.7 c-0.4-0.9-1.3-2.2-2.7-3.9c-1.4-1.6-2.3-2.9-2.7-3.7c-0.4-0.8-0.6-1.6-0.6-2.5c0-1.5,0.5-2.8,1.6-3.8c1.1-1,2.5-1.6,4.2-1.6 c0.5,0,0.9,0,1.3,0.1c0.2,0,0.7,0.2,1.5,0.5c0.8,0.3,1.3,0.5,1.6,0.5c0.7,0,1.2-0.4,1.7-1.1H613.4z"></path> <path class="st3" d="M644.8,272.7l1.6,17.4c2.7-3.2,4.9-6.1,6.5-8.9c0.9-1.6,1.4-2.8,1.4-3.5c0-0.3-0.1-0.6-0.2-0.9 c-0.1-0.1-0.3-0.3-0.7-0.6c-0.4-0.3-0.7-0.6-0.9-0.8c-0.2-0.3-0.3-0.6-0.3-0.9c0-0.5,0.2-0.9,0.5-1.2c0.4-0.3,0.8-0.5,1.4-0.5 c0.6,0,1.2,0.2,1.6,0.7c0.4,0.5,0.7,1.1,0.7,1.9c0,0.8-0.1,1.6-0.3,2.3c-0.5,1.3-1.4,3.1-2.7,5.2c-1.6,2.5-3.3,4.9-5.1,7 s-3.1,3.7-3.9,4.5h-0.9l-1.5-16.1l-9.6,16.1h-1c-0.1-6.6-0.4-11.8-1-15.7c-0.2-1.6-0.6-2.6-1.2-3.1c-0.4-0.4-1-0.5-1.8-0.5 c-0.5,0-1,0-1.7,0.1v-0.8l6.7-1.6c0.9,2.6,1.5,6.6,1.8,11.9c0.1,2,0.2,3.3,0.2,3.8l9.6-15.8H644.8z"></path> <path class="st3" d="M660.4,285c-0.1,0.8-0.2,1.4-0.2,1.9c0,1.4,0.5,2.6,1.5,3.5s2.2,1.5,3.6,1.5c1.1,0,2.2-0.2,3.2-0.7 c1-0.5,2.6-1.5,4.6-3l0.5,0.7c-3.7,3.6-7.2,5.5-10.6,5.5c-2.3,0-4-0.7-5.1-2.1c-1.2-1.4-1.7-3-1.7-4.7c0-2.3,0.7-4.7,2.1-7.1 s3.2-4.3,5.4-5.6c2.2-1.3,4.4-2,6.7-2c1.7,0,2.9,0.3,3.7,1c0.8,0.7,1.2,1.5,1.2,2.4c0,1.3-0.5,2.5-1.5,3.7c-1.4,1.5-3.4,2.8-6,3.7 C666,284.2,663.6,284.7,660.4,285z M660.6,283.9c2.3-0.3,4.2-0.7,5.6-1.3c1.9-0.9,3.4-1.9,4.3-3.1c1-1.2,1.4-2.3,1.4-3.4 c0-0.7-0.2-1.2-0.6-1.6c-0.4-0.4-1-0.6-1.8-0.6c-1.6,0-3.3,0.8-5.1,2.5S661.4,280.6,660.6,283.9z"></path> <path class="st3" d="M689.2,260.7l-8,27.7c-0.4,1.4-0.6,2.2-0.6,2.5c0,0.2,0.1,0.4,0.2,0.6c0.1,0.2,0.3,0.2,0.6,0.2 c0.3,0,0.6-0.1,1-0.4c0.8-0.6,1.7-1.6,2.6-3l0.7,0.7c-1.5,2.1-2.9,3.5-4.1,4.3c-0.9,0.6-1.8,0.9-2.6,0.9c-0.6,0-1.1-0.2-1.5-0.6 c-0.4-0.4-0.6-0.9-0.6-1.4c0-0.6,0.2-1.7,0.7-3.4l6.4-21.8c0.5-1.8,0.8-2.8,0.8-3.1c0-0.4-0.1-0.7-0.4-0.9 c-0.3-0.2-0.8-0.4-1.4-0.4c-0.4,0-0.9,0.1-1.6,0.2V262L689.2,260.7z"></path> <path class="st3" d="M701.6,260.7l-8.1,27.7c-0.4,1.4-0.6,2.2-0.6,2.5c0,0.2,0.1,0.4,0.2,0.6c0.1,0.2,0.3,0.2,0.6,0.2 c0.3,0,0.6-0.1,1-0.4c0.8-0.6,1.7-1.6,2.6-3l0.7,0.7c-1.5,2.1-2.9,3.5-4.1,4.3c-0.9,0.6-1.8,0.9-2.6,0.9c-0.6,0-1.1-0.2-1.5-0.6 c-0.4-0.4-0.6-0.9-0.6-1.4c0-0.6,0.3-1.7,0.8-3.4l6.4-21.8c0.5-1.8,0.8-2.8,0.8-3.1c0-0.4-0.1-0.7-0.4-0.9 c-0.3-0.2-0.8-0.4-1.4-0.4c-0.4,0-0.9,0.1-1.7,0.2V262L701.6,260.7z"></path> </g> </svg> 