<svg xmlns="http://www.w3.org/2000/svg" xmlns:xlink="http://www.w3.org/1999/xlink" width="264.176" height="119.683" viewBox="0 0 264.176 119.683">
  <defs>
    <clipPath id="clip-path">
      <rect width="264.176" height="119.683" fill="none"/>
    </clipPath>
  </defs>
  <g id="Repeat_Grid_5" data-name="Repeat Grid 5" transform="translate(0)" clip-path="url(#clip-path)">
    <g id="Group_335" data-name="Group 335" transform="translate(-111.225 -55.65)">
      <g id="Group_325" data-name="Group 325" transform="translate(211.544 123.279)">
        <path id="Path_711" data-name="Path 711" d="M271.979,174.659v-8.74h-9.961v8.74h-2.633V156.3h2.633v7.37h9.961v-7.736h2.633v18.728Z" transform="translate(-259.386 -155.66)" fill="#00375f"/>
        <path id="Path_712" data-name="Path 712" d="M299.088,171.49h-9.934a3.975,3.975,0,0,0,4.153,4.1,7.131,7.131,0,0,0,4.262-1.493l1.085,1.493c-.162.136-1.818,2.035-5.672,2.035-3.828,0-6.46-2.66-6.46-6.758a6.4,6.4,0,0,1,6.541-6.677,5.886,5.886,0,0,1,6.107,6.162A11.256,11.256,0,0,1,299.088,171.49Zm-6.107-5.428a3.793,3.793,0,0,0-3.8,3.691H296.7A3.726,3.726,0,0,0,292.981,166.062Z" transform="translate(-268.148 -158.327)" fill="#00375f"/>
        <path id="Path_713" data-name="Path 713" d="M316.181,177.326l-.027-1.629a5.319,5.319,0,0,1-4.1,1.927c-2.388,0-4.451-1.492-4.451-3.989,0-2.524,2.063-3.8,5.048-3.936l3.447-.135v-.515c0-1.955-1.33-2.932-3.2-2.932a7.919,7.919,0,0,0-3.882,1.113l-.787-1.737a9.933,9.933,0,0,1,4.831-1.3c3.773,0,5.646,1.9,5.646,5.646v7.491Zm-3.067-6c-2.09.108-2.932,1-2.932,2.226s.95,2.226,2.66,2.226a4.049,4.049,0,0,0,3.285-1.873v-2.769Z" transform="translate(-274.956 -158.327)" fill="#00375f"/>
        <path id="Path_714" data-name="Path 714" d="M329.327,174.659V155.931h2.579v18.728Z" transform="translate(-281.971 -155.66)" fill="#00375f"/>
        <path id="Path_715" data-name="Path 715" d="M342.076,175.915c-3.23,0-3.393-2.66-3.393-5.184v-5.889h-1.9v-2.09h1.9V158.9h2.605v3.854h3.094v2.09h-3.094v5.835a5.063,5.063,0,0,0,.326,2.361,1.349,1.349,0,0,0,1.33.652,3.139,3.139,0,0,0,1.33-.3l.163,2.09A5.821,5.821,0,0,1,342.076,175.915Z" transform="translate(-284.378 -156.618)" fill="#00375f"/>
        <path id="Path_716" data-name="Path 716" d="M360.3,174.659v-7.3c0-1.846-.3-3.691-2.66-3.691s-3.365,2.035-3.365,4.614v6.378h-2.579V155.931h2.579V163.8h.054a4.4,4.4,0,0,1,3.962-2.28c3.719,0,4.614,2.389,4.614,5.456v7.681Z" transform="translate(-289.193 -155.66)" fill="#00375f"/>
        <path id="Path_717" data-name="Path 717" d="M390.226,174.856A9.665,9.665,0,1,1,396.9,158l-1.112,2.117a7.421,7.421,0,0,0-5.428-2.28c-4.044,0-6.976,2.9-6.976,7.3s2.958,7.3,6.976,7.3a7.413,7.413,0,0,0,5.591-2.28l1.14,1.927A8.848,8.848,0,0,1,390.226,174.856Z" transform="translate(-298.55 -155.531)" fill="#00375f"/>
        <path id="Path_718" data-name="Path 718" d="M419.974,171.49H410.04a3.975,3.975,0,0,0,4.153,4.1,7.131,7.131,0,0,0,4.262-1.493l1.085,1.493c-.163.136-1.818,2.035-5.672,2.035-3.828,0-6.46-2.66-6.46-6.758a6.4,6.4,0,0,1,6.541-6.677,5.886,5.886,0,0,1,6.107,6.162A11.264,11.264,0,0,1,419.974,171.49Zm-6.107-5.428a3.792,3.792,0,0,0-3.8,3.691h7.518A3.726,3.726,0,0,0,413.867,166.062Z" transform="translate(-307.183 -158.327)" fill="#00375f"/>
        <path id="Path_719" data-name="Path 719" d="M438.7,177.326v-7.193c0-2.171-.38-3.8-2.687-3.8-2.416,0-3.312,2.035-3.312,4.505v6.487h-2.605V164.433H432.7l-.027,2.035h.082a4.355,4.355,0,0,1,3.935-2.28c3.664,0,4.614,2.416,4.614,5.509v7.627Z" transform="translate(-314.509 -158.327)" fill="#00375f"/>
        <path id="Path_720" data-name="Path 720" d="M455.226,175.915c-3.23,0-3.393-2.66-3.393-5.184v-5.889h-1.9v-2.09h1.9V158.9h2.605v3.854h3.094v2.09h-3.094v5.835a5.064,5.064,0,0,0,.326,2.361,1.351,1.351,0,0,0,1.331.652,3.134,3.134,0,0,0,1.329-.3l.163,2.09A5.817,5.817,0,0,1,455.226,175.915Z" transform="translate(-320.915 -156.618)" fill="#00375f"/>
        <path id="Path_721" data-name="Path 721" d="M475.927,171.49h-9.934a3.975,3.975,0,0,0,4.153,4.1,7.131,7.131,0,0,0,4.262-1.493l1.085,1.493c-.163.136-1.818,2.035-5.672,2.035-3.828,0-6.46-2.66-6.46-6.758a6.4,6.4,0,0,1,6.541-6.677,5.886,5.886,0,0,1,6.107,6.162A11.26,11.26,0,0,1,475.927,171.49Zm-6.107-5.428a3.792,3.792,0,0,0-3.8,3.691h7.518A3.726,3.726,0,0,0,469.82,166.062Z" transform="translate(-325.251 -158.327)" fill="#00375f"/>
        <path id="Path_722" data-name="Path 722" d="M493.076,166.822h-.109a3.416,3.416,0,0,0-1.411-.271c-2.334,0-2.9,2.469-2.9,4.342v6.433h-2.605V164.433h2.605l-.027,1.981h.082a3.365,3.365,0,0,1,3.176-2.226,3.617,3.617,0,0,1,1.357.217Z" transform="translate(-332.576 -158.327)" fill="#00375f"/>
      </g>
      <g id="Group_330" data-name="Group 330" transform="translate(115.627 55.65)">
        <g id="Group_327" data-name="Group 327" transform="translate(0 31.037)">
          <path id="Path_723" data-name="Path 723" d="M181.449,191.226a50.6,50.6,0,0,1-8.289-3.27c-8.8-4.875-13.322-13.681-13.322-13.681a29.615,29.615,0,0,0,5.483,8.32,38.333,38.333,0,0,0,7.319,6.487,55.144,55.144,0,0,0,11.035,5.419C182.583,193.7,181.96,191.945,181.449,191.226Z" transform="translate(-131.324 -124.992)" fill="#e6af10"/>
          <g id="Group_326" data-name="Group 326">
            <path id="Path_724" data-name="Path 724" d="M161.025,164.139c-1.026,1.757-1.793,1.793-2.254,3.509-.493,1.834.561,4.311,1.01,3.889a5.766,5.766,0,0,0,1.879-3.3C162.013,166.582,161.319,163.636,161.025,164.139Z" transform="translate(-130.938 -121.701)" fill="#e6af10"/>
            <path id="Path_725" data-name="Path 725" d="M158.019,158.885c-1.026,1.758-1.794,1.793-2.254,3.51-.493,1.834.561,4.311,1.01,3.889a5.762,5.762,0,0,0,1.879-3.3C159.007,161.328,158.313,158.383,158.019,158.885Z" transform="translate(-129.967 -120.004)" fill="#e6af10"/>
            <path id="Path_726" data-name="Path 726" d="M154.989,153.165c-1.026,1.758-1.794,1.793-2.255,3.51-.492,1.834.561,4.311,1.011,3.889a5.772,5.772,0,0,0,1.879-3.3C155.977,155.608,155.282,152.663,154.989,153.165Z" transform="translate(-128.989 -118.157)" fill="#e6af10"/>
            <path id="Path_727" data-name="Path 727" d="M144.833,125.366c1.051,3.116,2.561,7.2,3.435,9.217a23.691,23.691,0,0,1,1.752,4.792h0c-.961,1.467-1.671,1.58-2.13,3.192-.521,1.827.494,4.319.951,3.9a5.765,5.765,0,0,0,1.929-3.271,8.528,8.528,0,0,0-.15-3.431c-.244-1.1-1.491-3.859-2.9-7.2-1.419-3.375-3.784-10.4-4.163-11.417A34.177,34.177,0,0,0,144.833,125.366Z" transform="translate(-126.065 -107.834)" fill="#e6af10"/>
            <path id="Path_728" data-name="Path 728" d="M138.04,115.21c1.1,3.1,2.672,7.162,3.577,9.163a23.727,23.727,0,0,1,1.825,4.765c-.939,1.481-1.646,1.606-2.081,3.224-.492,1.834.561,4.312,1.01,3.89a5.764,5.764,0,0,0,1.879-3.3,8.526,8.526,0,0,0-.2-3.427c-.261-1.1-1.55-3.836-3.008-7.157-1.471-3.352-3.943-10.341-4.338-11.351A34.043,34.043,0,0,0,138.04,115.21Z" transform="translate(-123.851 -104.561)" fill="#e6af10"/>
            <path id="Path_729" data-name="Path 729" d="M132.863,118.7c-.387,1.859-1.057,2.18-.922,3.9.148,1.894,1.969,3.876,2.251,3.329a5.767,5.767,0,0,0,.669-3.738,8.574,8.574,0,0,0-1.416-3.274c-.5-1.191-1.957-3.633-3.613-6.566-1.8-3.187-4.961-9.893-5.455-10.859a34.333,34.333,0,0,0,1.753,4.039c1.4,2.974,3.377,6.857,4.478,8.757A26.815,26.815,0,0,1,132.863,118.7Z" transform="translate(-119.871 -101.489)" fill="#e6af10"/>
            <path id="Path_730" data-name="Path 730" d="M156.022,174.419c.608-.1-.726-2.44-2.484-3.159-1.645-.672-2.138-.083-4.158-.33-.577-.07,1.346,2.266,2.878,2.987A5.773,5.773,0,0,0,156.022,174.419Z" transform="translate(-127.913 -123.91)" fill="#e6af10"/>
            <path id="Path_731" data-name="Path 731" d="M152.632,168.74c.6-.147-.9-2.38-2.711-2.966-1.691-.549-2.139.075-4.172-.021-.58-.028,1.511,2.159,3.092,2.765A5.768,5.768,0,0,0,152.632,168.74Z" transform="translate(-126.743 -122.173)" fill="#e6af10"/>
            <path id="Path_732" data-name="Path 732" d="M149.5,163.2c.588-.184-1.049-2.32-2.887-2.8-1.722-.444-2.13.207-4.165.235-.582.008,1.639,2.063,3.255,2.57A5.763,5.763,0,0,0,149.5,163.2Z" transform="translate(-125.678 -120.464)" fill="#e6af10"/>
            <path id="Path_733" data-name="Path 733" d="M145.814,157.916c.588-.183-1.049-2.32-2.888-2.8-1.721-.444-2.13.207-4.165.235-.582.008,1.639,2.063,3.255,2.57A5.765,5.765,0,0,0,145.814,157.916Z" transform="translate(-124.488 -118.757)" fill="#e6af10"/>
            <path id="Path_734" data-name="Path 734" d="M140.342,146.41c.514-.16-.915-2.025-2.519-2.439-1.5-.387-1.859.181-3.635.2-.508.007,1.431,1.8,2.84,2.244A5.026,5.026,0,0,0,140.342,146.41Z" transform="translate(-123.015 -115.163)" fill="#e6af10"/>
            <path id="Path_735" data-name="Path 735" d="M132.9,132.522c.485.232.7-2.107-.192-3.5-.838-1.3-1.486-1.131-2.805-2.32-.377-.339-.174,2.293.559,3.576A5.034,5.034,0,0,0,132.9,132.522Z" transform="translate(-121.597 -109.62)" fill="#e6af10"/>
            <path id="Path_736" data-name="Path 736" d="M141.832,138.81c-.343.416-1.534-1.618-1.31-3.266.21-1.542.873-1.658,1.569-3.3.2-.468,1.129,2.012,1.006,3.489A5.048,5.048,0,0,1,141.832,138.81Z" transform="translate(-125.078 -111.402)" fill="#e6af10"/>
            <path id="Path_737" data-name="Path 737" d="M147.937,149.7c-.432.375-1.32-1.96-.8-3.643.49-1.576,1.2-1.58,2.217-3.173.29-.455.829,2.3.441,3.824A5.345,5.345,0,0,1,147.937,149.7Z" transform="translate(-127.172 -114.84)" fill="#e6af10"/>
            <path id="Path_738" data-name="Path 738" d="M134.416,144.965a5.764,5.764,0,0,0,3.794.148c.6-.159-.951-2.362-2.769-2.913-1.6-.485-2.083.049-3.837.064h0a23.718,23.718,0,0,1-3.082-4.067c-1.221-1.825-3.839-5.307-5.89-7.877a34.26,34.26,0,0,0-2.855-3.352c.649.869,5.278,6.66,7.347,9.68,4.15,6.057,5.516,7.371,4.487,6.333A8.527,8.527,0,0,0,134.416,144.965Z" transform="translate(-118.386 -109.712)" fill="#e6af10"/>
            <path id="Path_739" data-name="Path 739" d="M129.378,131.594a5.763,5.763,0,0,0,3.5,1.476c.613.061-.058-2.545-1.565-3.7-1.372-1.053-2.007-.666-3.777-1.354a26.762,26.762,0,0,1-2.467-4.291c-.994-1.958-3.176-5.728-4.9-8.526a34.335,34.335,0,0,0-2.433-3.671c.54.94,4.442,7.245,6.134,10.49,1.557,2.986,2.81,5.541,3.538,6.606A8.548,8.548,0,0,0,129.378,131.594Z" transform="translate(-117.725 -104.726)" fill="#e6af10"/>
          </g>
        </g>
        <g id="Group_329" data-name="Group 329" transform="translate(15.714)">
          <g id="Group_328" data-name="Group 328">
            <path id="Path_740" data-name="Path 740" d="M161.687,121.855c-1.668,1.167-2.379.878-3.516,2.245-1.215,1.46-1.295,4.151-.71,3.955a5.763,5.763,0,0,0,3.088-2.211C161.563,124.487,162.163,121.522,161.687,121.855Z" transform="translate(-146.156 -77.02)" fill="#e6af10"/>
            <path id="Path_741" data-name="Path 741" d="M161.154,115.826c-1.667,1.167-2.379.878-3.516,2.245-1.215,1.46-1.294,4.151-.71,3.955a5.759,5.759,0,0,0,3.088-2.211C161.03,118.458,161.631,115.493,161.154,115.826Z" transform="translate(-145.984 -75.073)" fill="#e6af10"/>
            <path id="Path_742" data-name="Path 742" d="M160.8,109.363c-1.668,1.167-2.38.878-3.517,2.244-1.214,1.46-1.294,4.151-.709,3.956a5.767,5.767,0,0,0,3.088-2.211C160.671,111.994,161.271,109.03,160.8,109.363Z" transform="translate(-145.868 -72.986)" fill="#e6af10"/>
            <path id="Path_743" data-name="Path 743" d="M161.437,79.376c-.349,3.27-.687,7.613-.736,9.808a23.679,23.679,0,0,1-.414,5.086h0c-1.487.93-2.178.737-3.27,2.008-1.237,1.441-1.358,4.13-.771,3.944a5.768,5.768,0,0,0,3.121-2.164,8.529,8.529,0,0,0,1.3-3.179c.241-1.105.261-4.129.382-7.753.123-3.658.914-11.03,1-12.111A33.967,33.967,0,0,0,161.437,79.376Z" transform="translate(-145.768 -61.899)" fill="#e6af10"/>
            <path id="Path_744" data-name="Path 744" d="M159.7,67.31c-.3,3.275-.569,7.622-.585,9.819a23.735,23.735,0,0,1-.335,5.092c-1.473.952-2.167.77-3.239,2.058-1.215,1.46-1.294,4.151-.71,3.956a5.759,5.759,0,0,0,3.088-2.211,8.523,8.523,0,0,0,1.249-3.2,77.528,77.528,0,0,0,.262-7.758c.066-3.66.745-11.043.809-12.125A33.98,33.98,0,0,0,159.7,67.31Z" transform="translate(-145.306 -58)" fill="#e6af10"/>
            <path id="Path_745" data-name="Path 745" d="M155.131,63.393c.277,3.356.581,6.185.534,7.474a8.57,8.57,0,0,1-.083,3.566,5.77,5.77,0,0,1-2.171,3.116c-.486.379-1.309-2.184-.653-3.965.6-1.624,1.342-1.634,2.471-3.162a26.758,26.758,0,0,0-.2-4.945c-.205-2.187-.372-6.539-.4-9.828Z" transform="translate(-144.673 -55.65)" fill="#e6af10"/>
            <path id="Path_746" data-name="Path 746" d="M153.976,128.624c.6.162.362-2.52-.934-3.908-1.213-1.3-1.907-.97-3.639-2.039-.495-.305.275,2.621,1.364,3.916A5.762,5.762,0,0,0,153.976,128.624Z" transform="translate(-143.619 -77.286)" fill="#e6af10"/>
            <path id="Path_747" data-name="Path 747" d="M153.237,122.136c.605.116.174-2.54-1.221-3.828-1.306-1.206-1.974-.826-3.78-1.764-.516-.267.469,2.593,1.651,3.805A5.77,5.77,0,0,0,153.237,122.136Z" transform="translate(-143.246 -75.307)" fill="#e6af10"/>
            <path id="Path_748" data-name="Path 748" d="M152.673,115.873c.611.08.018-2.546-1.453-3.746-1.378-1.123-2.021-.7-3.881-1.53-.532-.236.626,2.56,1.881,3.7A5.763,5.763,0,0,0,152.673,115.873Z" transform="translate(-142.959 -73.388)" fill="#e6af10"/>
            <path id="Path_749" data-name="Path 749" d="M151.537,109.532c.611.08.018-2.546-1.454-3.746-1.377-1.123-2.021-.7-3.88-1.53-.532-.236.626,2.56,1.881,3.7A5.763,5.763,0,0,0,151.537,109.532Z" transform="translate(-142.592 -71.341)" fill="#e6af10"/>
            <path id="Path_750" data-name="Path 750" d="M151.393,96.769c.534.069.016-2.222-1.268-3.27-1.2-.98-1.764-.614-3.387-1.335-.464-.206.546,2.234,1.641,3.226A5.035,5.035,0,0,0,151.393,96.769Z" transform="translate(-142.77 -67.437)" fill="#e6af10"/>
            <path id="Path_751" data-name="Path 751" d="M150.126,80.906c.345.414,1.521-1.619,1.291-3.26-.216-1.536-.877-1.649-1.578-3.281-.2-.466-1.117,2.01-.988,3.482A5.031,5.031,0,0,0,150.126,80.906Z" transform="translate(-143.486 -61.675)" fill="#e6af10"/>
            <path id="Path_752" data-name="Path 752" d="M155.066,90.661c-.486.235-.716-2.11.177-3.513.836-1.313,1.486-1.141,2.8-2.339.377-.343.184,2.3-.545,3.59A5.045,5.045,0,0,1,155.066,90.661Z" transform="translate(-145.359 -65.056)" fill="#e6af10"/>
            <path id="Path_753" data-name="Path 753" d="M155.9,103.265c-.549.16-.379-2.333.8-3.643,1.1-1.226,1.754-.932,3.341-1.955.454-.292-.21,2.437-1.2,3.658A5.353,5.353,0,0,1,155.9,103.265Z" transform="translate(-145.67 -69.211)" fill="#e6af10"/>
            <path id="Path_754" data-name="Path 754" d="M146.7,92.82a5.77,5.77,0,0,0,3.385,1.722c.607.1.124-2.543-1.3-3.8-1.253-1.112-1.913-.827-3.512-1.547h0a23.685,23.685,0,0,1-1.1-4.983c-.346-2.169-1.267-6.426-2.055-9.619a34.154,34.154,0,0,0-1.19-4.239c.226,1.061,2.008,8.257,2.624,11.866,1.236,7.237,1.927,9,1.426,7.629A8.528,8.528,0,0,0,146.7,92.82Z" transform="translate(-140.933 -60.392)" fill="#e6af10"/>
            <path id="Path_755" data-name="Path 755" d="M147.041,69.645c.165,3.363.234,6.208.45,7.479a8.569,8.569,0,0,0,.55,3.526,5.769,5.769,0,0,0,2.561,2.8c.532.312,1.013-2.336.127-4.017-.806-1.53-1.544-1.444-2.863-2.81a26.772,26.772,0,0,1-.446-4.929c-.084-2.2-.488-6.532-.888-9.8Z" transform="translate(-142.741 -57.669)" fill="#e6af10"/>
          </g>
          <path id="Path_756" data-name="Path 756" d="M173.862,157.593l-1.223-3.889c-1.22-1.106-5.883-4.157-9.6-9.334-5.86-8.172-6.178-18.068-6.178-18.068a29.618,29.618,0,0,0,1.391,9.867,38.35,38.35,0,0,0,3.835,9C165.465,150.654,172.624,156.47,173.862,157.593Z" transform="translate(-146.076 -78.464)" fill="#e6af10"/>
        </g>
        <path id="Path_757" data-name="Path 757" d="M190.236,167.2c-1.647-1.79-5.77-5.023-12.88-2.986-9.556,2.738-22.668,14.09-32.814,10.064a14.773,14.773,0,0,1-9.527-13.641s-5.077,14.2,6.883,19.661c14.249,6.5,26.563-11.407,40.564-14.371C186.87,164.993,189.156,166.2,190.236,167.2Z" transform="translate(-122.963 -89.551)" fill="#0090c2"/>
        <path id="Path_758" data-name="Path 758" d="M179.373,184.818c2.309-4.4,4.678-8.825,8.229-11.783,2.968-2.473,5.195-2.49,6.428-2.171-1.989-.7-6.426-1.484-11.017,2.923-6.193,5.944-10.687,17.126-19.635,19.152-10.643,2.41-12.5-4.166-12.5-4.166s1.743,11.31,13.06,10.414c7.889-.625,11.364-6.606,15.116-13.764C179.272,185.01,179.151,185.23,179.373,184.818Z" transform="translate(-128.431 -92.677)" fill="#0090c2"/>
        <path id="Path_759" data-name="Path 759" d="M219.326,144.145c-2.166-5.512-7.076-9.093-12.917-10.466l.005.007c-6.376-1.649-12.065-.131-18.506.03-5.182.129-10.746-.713-13.685-5.481-5.377-8.726,1.261-19.918,7.1-26.589-9.628,7.449-20.694,27.117-6,35.542,7.543,4.325,16.105,1.309,24.237,1.325,5.5.01,12.656,2.053,12.321,9.437-.326,7.2-10.537,11.274-16.721,10.326a16.661,16.661,0,0,1-5.983-2.083c.053.055.116.1.171.152-.129-.077-.2-.125-.2-.125,1.385,5.4,7.271,7.726,12.387,6.964,5.683-.848,10.875-5.172,13.461-10.2-1.153,8.393-8.445,14.031-15.621,17.493,6.414-1.419,13.518-3.916,17.739-9.249A17.029,17.029,0,0,0,219.326,144.145Z" transform="translate(-134.024 -70.502)" fill="#0090c2"/>
      </g>
      <g id="Group_331" data-name="Group 331" transform="translate(189.939 152.549)">
        <path id="Path_760" data-name="Path 760" d="M227.575,202.293c-.276.239.093.077.431.05Z" transform="translate(-227.479 -199.902)" fill="#db6616"/>
        <path id="Path_761" data-name="Path 761" d="M228.258,202.365l.305.036A.6.6,0,0,0,228.258,202.365Z" transform="translate(-227.73 -199.923)" fill="#db6616"/>
        <path id="Path_762" data-name="Path 762" d="M231.58,202.611c-.654.189-1.433-.072-1.842.219C230.4,203,231.417,202.931,231.58,202.611Z" transform="translate(-228.208 -200.004)" fill="#db6616"/>
        <path id="Path_763" data-name="Path 763" d="M230.968,202.291l-.082.159.574-.247Z" transform="translate(-228.579 -199.872)" fill="#db6616"/>
        <path id="Path_764" data-name="Path 764" d="M230.4,202.07l.082.058.9-.162Z" transform="translate(-228.423 -199.796)" fill="#db6616"/>
        <path id="Path_765" data-name="Path 765" d="M234.788,202.593l-.655.044c-.614-.216.406-.29,0-.436-.819,0-.282.451-1.3.379.081.2,1.638,0,1.473.318C235.156,203,234.338,202.71,234.788,202.593Z" transform="translate(-229.204 -199.872)" fill="#db6616"/>
        <path id="Path_766" data-name="Path 766" d="M294.013,200.222c.034.014.062.02.093.03C294.069,200.218,294.032,200.193,294.013,200.222Z" transform="translate(-248.963 -199.229)" fill="#db6616"/>
        <path id="Path_767" data-name="Path 767" d="M309.977,199.884a3.415,3.415,0,0,0,.442.066.607.607,0,0,0-.175-.087Z" transform="translate(-254.118 -199.117)" fill="#db6616"/>
        <path id="Path_768" data-name="Path 768" d="M283.814,201.079c-.156-.036-.3-.061-.427-.079A.9.9,0,0,0,283.814,201.079Z" transform="translate(-245.532 -199.484)" fill="#db6616"/>
        <path id="Path_769" data-name="Path 769" d="M385.675,202.821a.168.168,0,0,0-.056.093l.02.007.119-.087Z" transform="translate(-278.543 -200.072)" fill="#db6616"/>
        <path id="Path_770" data-name="Path 770" d="M327.854,199.145a4.045,4.045,0,0,0,.488-.033A1.61,1.61,0,0,0,327.854,199.145Z" transform="translate(-259.891 -198.874)" fill="#db6616"/>
        <path id="Path_771" data-name="Path 771" d="M278.24,201.139c.06,0,.111,0,.162,0a1.926,1.926,0,0,0-.2-.032l.03.03Z" transform="translate(-243.857 -199.519)" fill="#db6616"/>
        <path id="Path_772" data-name="Path 772" d="M304.764,199.257a2.556,2.556,0,0,0,.392.039A2.251,2.251,0,0,0,304.764,199.257Z" transform="translate(-252.435 -198.921)" fill="#db6616"/>
        <path id="Path_773" data-name="Path 773" d="M250.529,203.277a1.108,1.108,0,0,0,.477-.028A.606.606,0,0,0,250.529,203.277Z" transform="translate(-234.922 -200.199)" fill="#db6616"/>
        <path id="Path_774" data-name="Path 774" d="M256.229,203.259h-.022C256.229,203.3,256.241,203.291,256.229,203.259Z" transform="translate(-236.755 -200.213)" fill="#db6616"/>
        <path id="Path_775" data-name="Path 775" d="M259.87,203.3c-.016,0-.029.005-.044.008C259.854,203.338,259.87,203.343,259.87,203.3Z" transform="translate(-237.924 -200.227)" fill="#db6616"/>
        <path id="Path_776" data-name="Path 776" d="M251.233,203.152c.32.126.416.532.829.087l-.082-.06c.248.1.615-.073.9-.087a.5.5,0,0,0-.1-.108c-.145-.005-.336-.018-.63-.047C251.8,202.844,251.572,203.056,251.233,203.152Z" transform="translate(-235.149 -200.102)" fill="#db6616"/>
        <path id="Path_777" data-name="Path 777" d="M293.885,200.327c-.037-.082-.3-.04,0,0Z" transform="translate(-248.877 -199.251)" fill="#db6616"/>
        <path id="Path_778" data-name="Path 778" d="M289.032,200.838c.108.006.217.012.328.014A1.047,1.047,0,0,0,289.032,200.838Z" transform="translate(-247.355 -199.429)" fill="#db6616"/>
        <path id="Path_779" data-name="Path 779" d="M270.485,200.664c.021.007.039.01.06.018C270.562,200.636,270.514,200.642,270.485,200.664Z" transform="translate(-241.366 -199.37)" fill="#db6616"/>
        <path id="Path_780" data-name="Path 780" d="M289.818,200.866c-.1,0-.2,0-.3,0A.763.763,0,0,0,289.818,200.866Z" transform="translate(-247.511 -199.44)" fill="#db6616"/>
        <path id="Path_781" data-name="Path 781" d="M276.054,201.028a.331.331,0,0,0,.051.012A.122.122,0,0,0,276.054,201.028Z" transform="translate(-243.164 -199.493)" fill="#db6616"/>
        <path id="Path_782" data-name="Path 782" d="M461.592,204.827c-.254.039-.4-.079-.641-.114-.536.295,1.105.007.328.269a2.527,2.527,0,0,0,.6-.082l-.339-.278C461.071,204.731,461.853,204.716,461.592,204.827Z" transform="translate(-302.834 -200.654)" fill="#db6616"/>
        <path id="Path_783" data-name="Path 783" d="M390.285,203.437l-.108-.025c.074.127.007.167.421.234.353-.193-.2-.484.42-.7a1.55,1.55,0,0,1-.465-.014C390.806,203.108,390.556,203.288,390.285,203.437Z" transform="translate(-280.015 -200.109)" fill="#db6616"/>
        <path id="Path_784" data-name="Path 784" d="M390.563,202.88a.091.091,0,0,1-.018-.015.449.449,0,0,0-.09-.068,1.072,1.072,0,0,1-.246-.031A.9.9,0,0,0,390.563,202.88Z" transform="translate(-280.026 -200.054)" fill="#db6616"/>
        <path id="Path_785" data-name="Path 785" d="M449.435,204.731l-.282-.026A.365.365,0,0,0,449.435,204.731Z" transform="translate(-299.059 -200.68)" fill="#db6616"/>
        <path id="Path_786" data-name="Path 786" d="M326.544,204.39c-.123.028-.242.058-.339.087A.7.7,0,0,0,326.544,204.39Z" transform="translate(-259.358 -200.579)" fill="#db6616"/>
        <path id="Path_787" data-name="Path 787" d="M381.293,203.25a2.228,2.228,0,0,0-.3-.043c-.062,0-.114.01-.189.013Z" transform="translate(-276.989 -200.197)" fill="#db6616"/>
        <path id="Path_788" data-name="Path 788" d="M410.863,199.3c-.213.316.163-.026.588.157l.394-.168A5.374,5.374,0,0,0,410.863,199.3Z" transform="translate(-286.675 -198.925)" fill="#db6616"/>
        <path id="Path_789" data-name="Path 789" d="M462.4,205.05a.072.072,0,0,1,0-.029l-.03.008Z" transform="translate(-303.328 -200.782)" fill="#db6616"/>
        <path id="Path_790" data-name="Path 790" d="M428.147,199.216c.067.017.127.03.19.043A.6.6,0,0,0,428.147,199.216Z" transform="translate(-292.276 -198.908)" fill="#db6616"/>
        <path id="Path_791" data-name="Path 791" d="M386.558,202.725l-1.5-.019.439.078C385.7,202.628,386.349,202.915,386.558,202.725Z" transform="translate(-278.361 -200.035)" fill="#db6616"/>
        <path id="Path_792" data-name="Path 792" d="M347.952,198.953l-.134-.192c-1.5.408-3.213-.177-4.4.4-1.823-.674-1.2.6-2.866,0l.056.1c-5.495-.113-11.324-.466-16.459-.141l.011-.135c-8.279-.232-16.341.051-24.545-.054-.765.125-.3.422-.963.573-.286-.012-.934,0-.938-.162.555-.091.242-.238.432-.3a15.5,15.5,0,0,0-2.937.028l.689.214a4.128,4.128,0,0,1-1.112.018c.122-.11-.3-.343-.049-.4-1.737.532-1.355-.229-2.817-.018-.292.455-2.123.827-3.328,1.152l-.633-.119c.842,0-.016-.332,1.028-.31-.871-.131-1.679.064-2.5-.009.16.114.119.263-.212.315-.506-.062-.55-.29-1.128-.313l.571-.142c-.385-.171-.715.054-1.073.082-.116-.19-.979-.225-.826-.437a11.908,11.908,0,0,1-1.891.278c.871.2-.223.251-.126.409l.982-.076c-1.384-.127.45-.034.346-.358.651.15-.893.535.2.484a28.655,28.655,0,0,0-2.91.288c.8-.061-.154.211.278.31-1.02.012-.253-.113-.568-.322-.555.009-.76-.175-1.27.064-.9-.1.135-.244-.32-.376.333-.223,2.505.276,2.259-.437.469-.008,1.043-.28,1.719-.266a5.956,5.956,0,0,0-2.166-.165l-.037.4c-.555.009-.669.282-1.069.247.213-.116-.171-.286-.617-.253.127.057.3.044.256.114-.826.03-.94.3-1.924.38a13.321,13.321,0,0,1,1.738.4c-.2.282-.535.041-.982.075.067-.038.16-.045.029-.1l-.475.135c-1.012-.121.126-.408-.708-.544-.577-.236-.79.132-1.232,0,.029.025.06.053.086.071a2.112,2.112,0,0,1-.22-.02.044.044,0,0,1,.008.02c-.536.041-1.113.018-1.265.229-.057-.1-.47.028-.645.093-.3.085-1.016.333-1.462-.005.012,0,.022,0,.033,0-.669-.04-1.19-.146-1.046-.26l-1.079-.084.116-.274c-.983.074-.886.234-1.559.517a7.116,7.116,0,0,0-2.4.07,2,2,0,0,0-.391,0l.41.108a11.043,11.043,0,0,0-1.181.134c.106.026.121.041-.163,0-.086,0-.179-.009-.291-.02.026-.029.14-.024.253-.01l-.092-.091c-.614-.291-.941.165-1.6.064a1.33,1.33,0,0,1,.235-.027c-.369-.073-.9-.461-1.051-.225a.534.534,0,0,0-.342.077l-.271-.041c.111.013.2.027.267.042-.169.079-.328.176-.35.118l-.942-.049a1.659,1.659,0,0,0-.618.033l-.16-.114c-.343.017-.346-.051-.3-.082-1.192-.395-1.843.2-3.132-.14-.246.19.286.276.328.378a7.047,7.047,0,0,1-1.307.38c-.573-.263-2.333-.494-2.05-.872-1.061-.029.331.233-.2.364l-.122-.015a1.866,1.866,0,0,1,.859.319c.081.2-.857.263-1.144.2l.2-.29c-.979.1-.775.538-1.385.829-.779-.114-.33-.378-.495-.638l-.819.072v-.218a3.9,3.9,0,0,1-1.392.176c.532-.205-1.1-.2-.369-.48-.408-.073-.527.349-.736.058-.284.233.367.116.573.189.167.334-.9.16-1.389.248-.041-.173.327-.2-.251-.319a.763.763,0,0,1-.815.072c0,.218-.655.044-.983.03.369.043.9.2.661.391a3.086,3.086,0,0,1-1.188.1l.45.1c-.571.32-.943-.232-1.72-.13a6.053,6.053,0,0,0,.818-.29c-.367.1-1.064.261-1.637.363l-.655-.318c-.081.16-.737-.014-.737.2-.815-.146.656-.262.737-.422-1.024-.144-.819.364-1.8.03l.326-.2c-.326-.015-.981.1-1.022,0,0,.073.165.044.368.044-.2.436-1.511.3-1.389.756l.452.03c-.692.087-1.185.393-1.716.234-.409-.145.286-.305.529-.422-.651-.029-.529.494-1.307.451.409.073.331.233.085.349.45.029,1.389.115,1.224-.074l-.163-.044c.041-.116.286-.16.408-.218.615,0,.286.2.41.29,1.024.072.083-.45,1.02-.436l.122.087c.451-.116,1.147-.132,1.27-.409.41.292,1.061-.116,1.511.058.085.64-1.592-.043-2.125.307.491.131-.282.305-.487.451l1.551-.277c.124.087.578.406.86.173l-.122-.014c.615-.073.45-.335.982-.248.083.058-.081.16-.122.2.491.058.408-.146.737-.2.491.058-.246.262.164.333.569-.247.9.059,1.393.043-.21-.363,1.959-.495.9-.814l1.184-.248c.369.189-.815.508-.487.814l-.942-.013c.156.451,1.973-.3,2.6.209a3.958,3.958,0,0,1,1.332.181l-.163-.4c.494.092.654.312.676.386a5.253,5.253,0,0,1,.82,0,.627.627,0,0,1-.347.135c.372.223.48.139.61.02a1.933,1.933,0,0,1,.815-.084l-.279.15c.189-.034.421-.077.442-.15a1.882,1.882,0,0,0,.366-.036,1.489,1.489,0,0,0-.73-.41,15.968,15.968,0,0,1,3.026.4c-.037.116-.447.261-.324.276.491.058,1.024-.145.979-.32.111-.012.2-.016.271-.017a.617.617,0,0,0,.442.225.631.631,0,0,0,.31.081c.164-.32,1.105-.16,1.309-.305a4.348,4.348,0,0,0-.769-.02c.395-.213.748-.458,1.054-.286-.733.2.782.333-.323.422.777.406.4-.29,1.228-.147l.532.16c-.081.233-.861.116-.737.2l.369-.03c-.369.175-1.761.06-2.618.322l1.72.13c2.167-.278,4.87.041,6.708-.47l-.078.007c.032-.022.047-.066.073-.154l.083.058.364-.176a11.965,11.965,0,0,0,1.847.435c-.414-.144-.414-.144-.455-.318.083-.234.146-.332.761-.246.006.165-.373.161.081.293-.234-.081-.026-.2.242-.219.346.108.922.13.93.3a.732.732,0,0,1-.4-.037c-.16.044.651.149.175.285l.625-.047c.364.139-.242.218-.1.307,1.039-.112,1.572-.494,2.513-.606a1.155,1.155,0,0,0-.045.351c.724.111,1.553-.4,2.376-.432-.121.11-.429.066-.679.118,2.52.141,4.583.148,6.946.5l.615-.379.617.253a42.6,42.6,0,0,0,6.76-.116c.736-.024.441.265.788.371,1.616.043,2.011-.385,3.551-.471-.212.116-.573.444.09.459a.568.568,0,0,1,.623-.214l-.213.116c.383.17.752.009,1.544.082a11.658,11.658,0,0,0,3.887-.7c1.238.039-.128.409.107.491-.873-.139-.607.067-.8.2.462-.108,1.02-.173,1.258.1a5.085,5.085,0,0,0,1.57-.187c-.32.091-.594-.054-.295-.177.526.095,1.866-.009,1.792.33,3.047-.066,6.457,0,9.722-.011.551-.174-.418-.068-.115-.19.8-.228.632.118,1.273-.063l-.264.185a14.35,14.35,0,0,0,2.888-.485c-.153.211.758.174-.009.3.452-.035,1,.907,1.348.714l-.508-.877c.025-.086.658-.033.594-.091a3.8,3.8,0,0,0,1.151.376c.133.222-.552.174-.928.169-.056.37,1.266.237.721.576.805-.06-.114-.19.367-.326l.7.079-.542-.124c.586-.111.787-.393,1.569-.186l.811-.362c.083.292.592.053,1.01.122l-.261.186a2.931,2.931,0,0,1,1.117.148c-.313.257-.5-.062-.637.181l.609.087c0-.166.385-.3-.051-.4a3.456,3.456,0,0,1,2.293-.54c.641.283-.689.251-.422.53,1.472.121,1.8-.735,2.66-.7,1.1.115,1.034-.146,2.147-.164-.353.192.778.206.982.389l-.439.2c.339-.06.663.016.563.156-.062-.261,1.444-.243,2.211-.368l-.134-.222a10.672,10.672,0,0,1,2.066-.157c.945-.072.731-.269,1.459-.511.4.2.358.438.224.681a6.472,6.472,0,0,0-1.1-.116,12.812,12.812,0,0,1-3.317.553c-.517.539.8-.063,1.384.127-.017.032-.059.043-.1.048a.679.679,0,0,1,.146.016c-.428.066-1.124.152-1.24.427.716-.056.519-.538,1.408-.307.659-.15,1.2.274,1.593.311.439-.2.458-.634,1.537-.55l-.473.3c1.221.007.573-.442,1.7-.429-.4-.036.384-.3-.372-.3a4.189,4.189,0,0,1,1.809-.1c.16-.046.034-.1.063-.205-.68-.209-1.075.2-1.633-.1l-.473.326c-.632-.119-.7-.38-.309-.508a1.033,1.033,0,0,1-.465,0c-.108-.49.76.175.978-.241l-.446.035c-.194-.318,1.043-.28,1.619-.257.651.149,1.247.2,1.292.434l-.875.1c.454.184,1.117-.108,1.626-.1a.35.35,0,0,0,.142.072.086.086,0,0,1-.041-.064.62.62,0,0,1,.287.095,12.59,12.59,0,0,1,1.518-.056l-.051-.206-.056.116c-.409-.008-.964-.134-.655-.288a1.245,1.245,0,0,1,1.328.432c-.213.316-.9,0-1.37.1.282.311.938.033,1.891.239-.38.343-1.1-.005-1.314.31.767.059.968-.184,1.776-.1-.1.159-.89.173-.839.377l.519.1c-1.273.02.223.425-.77.508.468.141.654-.279,1.32-.062-.186-.149-.718-.42-.081-.554l.721.1c.3.165-.752.364-.282.5l.754-.116c-.025-.1-.387-.154-.16-.294.436.11.715-.394,1.229-.545a1.681,1.681,0,0,1,.878.149c1.031-.3,2.337-.292,3.287-.578-.648.2.026.349.413.5-.745.043-.752.363-.7.568.454-.034.751-.364.522-.471.758.131.523-.222,1.19-.006.432.111-.216.316-.067.436.819.015.223-.389,1.112-.313-.049.043-.129.056-.059.115a1.4,1.4,0,0,0,1.1-.242c.511.417,1.442-.045,1.341.36,1.162-.108-.173-.221.056-.363a3.585,3.585,0,0,1,1.63.032,3.205,3.205,0,0,1-.826.057l.245.282c1.446.2.917-.637,2.313-.393-.719.147-.239.213-.6.412.216-.07,1.31.009.648-.207a11.884,11.884,0,0,1,1.25.125,4.356,4.356,0,0,0,1.242-.37,5.267,5.267,0,0,1,1.628.352c1.544-.2,2.97.144,4.6-.072l-.121-.018c1.263.053-.558-.374.753-.364-.175.345.785.233,1.209.416,1.609.177,2.781-.253,4.262-.02-.012.072-.108.158-.394.167,1.131.108,2.043.039,3.062.058l-.044.042a21.5,21.5,0,0,0,4.812-.139c-.137.043-.173.173-.28.219a6.544,6.544,0,0,0,2.815-.187c1.012.34.67-.1,1.973.226.074.061-.13.057-.216.07a13.712,13.712,0,0,0,1.741.119c1.429-.219,1.783-.664,3.444-.53.085.469-1.021.116-1.058.49a1.944,1.944,0,0,1,1.075-.067c-.274.183-.06.115-.249.286.349.123,1.41-.489,1.4-.444.019-.091-.1-.14-.429-.127.388-.288,1.632-.024,2.436-.14-.261-.007-1.083-.1-.775-.321,1.079.1,1.437-.352,2.192-.539.994.213-.733.395-.546.723.167.12.566.383.148.511a12.079,12.079,0,0,0,2.334-.283l-.022.093a16.67,16.67,0,0,1,3.234-.258l-.5-.106a3.634,3.634,0,0,0,1.054-.218c-.033.155.692.294.395.421.5-.495,2.531-.3,3.086-.769.3.124.06.325-.031.437-.7-.043-.94-.141-1.31.057.584-.007,1.012.12.923.233.585-.307,1.977-.429,2.271-.737.427.154.835.238.685.494,1.793-.159-.886-.791,1.138-.787.923.248-.9.337.372.422l-.235.04c.919.661.645-.471,1.686-.449.139.36-.725.257-.007.515.953-.091,1.37-.624,2.323-.509l-.15.153c.61-.028,1.795.045,2.4.016.029.071-.06.061-.175.081,1.123.136.469-.184,1.389.065l.264-.175a3.807,3.807,0,0,0-1.94-.095c.584-.205-.915-.456-.625-.762l-.116.123a26.012,26.012,0,0,0-5.426-.792c-1.221.368-2.077-.148-3.387.106-.2.42-.245.085-1.37.169.6-.053.07-.32-.306-.376a2.527,2.527,0,0,1-.754.186,3.532,3.532,0,0,0-2.164-.2c-.684-.135.16-.135.31-.222-.279-.215-.558.169-.785.024,0,0,.011-.046.083-.067-1.047.017-1.672-.093-2.763-.146-.089.413-1.071.156-1.556.3.157-.133-.613-.154-.923-.233l-.584.307c-.578.261-.8-.183-1.551-.043l.18.074a6.339,6.339,0,0,1-2.52-.347c-5.044.807-7.8-.453-13.117-.234-.346.125.253.209-.018.393a10.975,10.975,0,0,1-1.154.036c.434.111.364-.026.309.088l.753-.116c.037.03-.047.043.025.1a3.886,3.886,0,0,1,.875-.1c-.466.107-.6.412-1.234.3a.652.652,0,0,1,.3-.081c-.525-.024-.552.122-.947.041-.483-.068-.364.026-.427-.106l-1.5-.164a3,3,0,0,1-1.913-.017c.163-.273.994-.084,1.363-.352l-.541-.2-.032.219-.771-.06.043-.042a.315.315,0,0,1-.383.095c-.033-.03-.108-.09-.022-.1l-.551.12c.32-.226-.483-.067-.4-.328-1.793-.131-2.28.351-3.859,0,.257.123-.5.412-.985.364-.28-.064-.351-.123-.173-.223l-.636.134c-.8-.408-1.575-.146-2.743-.284l.06-.115a3.978,3.978,0,0,1-1.549.2l.118-.23c-.795-.161-.607.483-1.485.336,0,.247.557.374.643.609-.207-.251-1.15-.289-.93-.11-.875.1-.607-.006-.681-.066l-.514.15c-.615-.012-.2-.324.03-.465a3.738,3.738,0,0,1-1.849.037l.263-.11-.856-.045a4.73,4.73,0,0,1-2.062.106l.5-.325c-.506-.169-.26.112-.394.168A1.7,1.7,0,0,1,351.6,199C350.32,199.337,349.05,198.465,347.952,198.953Zm-88.35,1.257.119.049C259.454,200.314,259.3,200.366,259.6,200.209Zm7.038.092c-.848.127-.579-.026-.643-.116.834.089,1.3-.015,2.037.092a.462.462,0,0,1-.179-.207.891.891,0,0,1,.689.253C268.179,200.649,266.273,200.112,266.64,200.3ZM250.8,201.91a.772.772,0,0,1,.1-.072h0Zm4.195-.29a.508.508,0,0,0,.29.135A.3.3,0,0,0,254.991,201.62Zm8.349.4a1.752,1.752,0,0,0,.953.064A8.2,8.2,0,0,0,263.34,202.023Zm52.672-.147c-.253.053-.729.189-.295.288.209-.117.611.085.787-.093a.32.32,0,0,1,.043.016A3.276,3.276,0,0,0,316.012,201.876Zm24.761-1.107c-.045.134-.232.279-.112.381l-.071-.01c.063.045.116.083.067.112a1.62,1.62,0,0,0,.555.02C341.279,200.835,341.706,200.765,340.772,200.769Z" transform="translate(-230.179 -198.761)" fill="#db6616"/>
        <path id="Path_793" data-name="Path 793" d="M378.6,204.372c.1-.007.171,0,.23-.011C378.768,204.361,378.7,204.365,378.6,204.372Z" transform="translate(-276.277 -200.569)" fill="#db6616"/>
        <path id="Path_794" data-name="Path 794" d="M391.161,202.409a1.509,1.509,0,0,0-.511-.121A.939.939,0,0,0,391.161,202.409Z" transform="translate(-280.168 -199.9)" fill="#db6616"/>
        <path id="Path_795" data-name="Path 795" d="M237.147,201.151l.245-.044-.491-.131c-.819.146-.86.334-1.061.553a9.4,9.4,0,0,1,2.125-.161Z" transform="translate(-230.179 -199.476)" fill="#db6616"/>
        <path id="Path_796" data-name="Path 796" d="M238.384,203.38a1.257,1.257,0,0,0,.411.219l.121-.132Z" transform="translate(-231 -200.253)" fill="#db6616"/>
        <path id="Path_797" data-name="Path 797" d="M252.319,204.266l-.777-.116C251.3,204.266,252.2,204.47,252.319,204.266Z" transform="translate(-235.235 -200.501)" fill="#db6616"/>
        <path id="Path_798" data-name="Path 798" d="M247.419,200.926l-.408.146c.367.116.86.1.94-.058C247.461,201.1,247.83,200.926,247.419,200.926Z" transform="translate(-233.786 -199.46)" fill="#db6616"/>
        <path id="Path_799" data-name="Path 799" d="M255.794,204.3c.242-.262.778.116.938-.131C256.528,204.238,255.833,204.035,255.794,204.3Z" transform="translate(-236.622 -200.504)" fill="#db6616"/>
        <path id="Path_800" data-name="Path 800" d="M254.441,200.629c-.246-.248-.655-.029-1.148-.087C253.7,200.542,254.276,200.8,254.441,200.629Z" transform="translate(-235.814 -199.325)" fill="#db6616"/>
        <path id="Path_801" data-name="Path 801" d="M261.229,203.245c-.04.187-.368.174-.736.13a1.264,1.264,0,0,1,.368-.174c-.613.146-.655.116-1.146.2.491.131,1.229.217,1.15.45C261.229,203.679,261.681,203.418,261.229,203.245Z" transform="translate(-237.888 -200.195)" fill="#db6616"/>
        <path id="Path_802" data-name="Path 802" d="M256.189,200.531a4.523,4.523,0,0,0-1.146-.232c.085.131.248.32.822.29l-.2.218C256.193,200.968,255.451,200.518,256.189,200.531Z" transform="translate(-236.379 -199.258)" fill="#db6616"/>
        <path id="Path_803" data-name="Path 803" d="M264.383,203.965l-.247-.1c-.573.175-1.309.087-1.632.364A7.137,7.137,0,0,0,264.383,203.965Z" transform="translate(-238.788 -200.409)" fill="#db6616"/>
        <path id="Path_804" data-name="Path 804" d="M259.411,201.092l.078-.3c-.573-.043.041.1-.164.175a.944.944,0,0,0-.529-.014C259.447,200.9,258.838,201.194,259.411,201.092Z" transform="translate(-237.591 -199.413)" fill="#db6616"/>
        <path id="Path_805" data-name="Path 805" d="M262.366,200.524l.733-.131-.573-.333C261.667,200.176,262.486,200.25,262.366,200.524Z" transform="translate(-238.667 -199.18)" fill="#db6616"/>
        <path id="Path_806" data-name="Path 806" d="M263.812,200.859l.082.058,1.1-.451A5.462,5.462,0,0,0,263.812,200.859Z" transform="translate(-239.211 -199.312)" fill="#db6616"/>
        <path id="Path_807" data-name="Path 807" d="M283.367,203.878c.124-.131-.521-.294-.245-.148C283,203.838,283.859,204.007,283.367,203.878Z" transform="translate(-245.424 -200.347)" fill="#db6616"/>
        <path id="Path_808" data-name="Path 808" d="M279.631,200.28a6.184,6.184,0,0,0,1.79-.177C280.885,200.166,279.555,200.1,279.631,200.28Z" transform="translate(-244.318 -199.194)" fill="#db6616"/>
        <path id="Path_809" data-name="Path 809" d="M282.458,200.05l-.183.036A.79.79,0,0,0,282.458,200.05Z" transform="translate(-245.173 -199.177)" fill="#db6616"/>
        <path id="Path_810" data-name="Path 810" d="M310.478,199.04a.371.371,0,0,0,.137-.035C310.567,199.018,310.526,199.026,310.478,199.04Z" transform="translate(-254.28 -198.84)" fill="#db6616"/>
        <path id="Path_811" data-name="Path 811" d="M309.327,199.125a1.654,1.654,0,0,0-1.016.177,11.4,11.4,0,0,0,1.467-.254C309.567,199.065,309.308,198.965,309.327,199.125Z" transform="translate(-253.58 -198.849)" fill="#db6616"/>
        <path id="Path_812" data-name="Path 812" d="M316,199.269c-.226.083-.535.041-.458.168C315.672,199.494,316.152,199.358,316,199.269Z" transform="translate(-255.912 -198.925)" fill="#db6616"/>
        <path id="Path_813" data-name="Path 813" d="M359.436,204.822c.418.069.663.016.551-.175C359.519,204.65,359.775,204.764,359.436,204.822Z" transform="translate(-270.089 -200.662)" fill="#db6616"/>
        <path id="Path_814" data-name="Path 814" d="M361.041,204.588l.056.095.274.146Z" transform="translate(-270.607 -200.643)" fill="#db6616"/>
        <path id="Path_815" data-name="Path 815" d="M365.212,205a.36.36,0,0,1-.174.083C365.2,205.057,365.34,205.03,365.212,205Z" transform="translate(-271.898 -200.776)" fill="#db6616"/>
        <path id="Path_816" data-name="Path 816" d="M364.917,205.134a.681.681,0,0,0,.082-.012Z" transform="translate(-271.859 -200.815)" fill="#db6616"/>
        <path id="Path_817" data-name="Path 817" d="M364.621,205.05l-.032.1a1.962,1.962,0,0,1,.222-.041C364.733,205.118,364.651,205.1,364.621,205.05Z" transform="translate(-271.753 -200.792)" fill="#db6616"/>
        <path id="Path_818" data-name="Path 818" d="M366.235,204.911l-.55-.29c-.571.143.65.149.087.458Z" transform="translate(-272.056 -200.653)" fill="#db6616"/>
        <path id="Path_819" data-name="Path 819" d="M369.4,204.575c.524.094,1.28-.362,1.578-.02,1.485-.179-.343-.573,1.356-.7-1.606-.177-.817.662-2.242.471C370.779,204.536,369.628,204.492,369.4,204.575Z" transform="translate(-273.306 -200.397)" fill="#db6616"/>
        <path id="Path_820" data-name="Path 820" d="M369.02,204.044c-.085.172.581.188.788.072C369.615,204.1,369.281,203.857,369.02,204.044Z" transform="translate(-273.181 -200.444)" fill="#db6616"/>
        <path id="Path_821" data-name="Path 821" d="M373.685,204.7l.454.132.119-.11Z" transform="translate(-274.69 -200.68)" fill="#db6616"/>
        <path id="Path_822" data-name="Path 822" d="M376.018,204.8l-.442.2C375.722,204.926,376.384,204.942,376.018,204.8Z" transform="translate(-275.301 -200.713)" fill="#db6616"/>
        <path id="Path_823" data-name="Path 823" d="M379.73,205.025c.416.067.793-.393-.085-.293l.2.018C379.793,204.822,380.266,204.984,379.73,205.025Z" transform="translate(-276.614 -200.685)" fill="#db6616"/>
        <path id="Path_824" data-name="Path 824" d="M387.694,204.1c-.286-.01-.625.049-.565.144l.785-.094Z" transform="translate(-279.029 -200.485)" fill="#db6616"/>
        <path id="Path_825" data-name="Path 825" d="M387.2,202.39c-.264-.28-.736.023-1.258-.07A6.2,6.2,0,0,0,387.2,202.39Z" transform="translate(-278.646 -199.894)" fill="#db6616"/>
        <path id="Path_826" data-name="Path 826" d="M388.94,204.691a1.387,1.387,0,0,1-.737.022C388.3,204.872,388.839,204.832,388.94,204.691Z" transform="translate(-279.378 -200.676)" fill="#db6616"/>
        <path id="Path_827" data-name="Path 827" d="M390.65,204.36c.256.113-.056.156.137.234a2.424,2.424,0,0,0,1.441-.045c-.145-.119-.343-.443-.115-.584-.879.1-1.328.618-1.756.219l-.733.488C390.325,204.751,390.163,204.331,390.65,204.36Z" transform="translate(-279.836 -200.441)" fill="#db6616"/>
        <path id="Path_828" data-name="Path 828" d="M388.517,203.074l.471.163c-.094-.159.263-.187.513-.238C389.377,202.641,388.785,203.052,388.517,203.074Z" transform="translate(-279.479 -200.082)" fill="#db6616"/>
        <path id="Path_829" data-name="Path 829" d="M398.334,204.182l1-.083-.325-.02Z" transform="translate(-282.649 -200.478)" fill="#db6616"/>
        <path id="Path_830" data-name="Path 830" d="M399.28,204.359l.026.1.763-.189Z" transform="translate(-282.955 -200.541)" fill="#db6616"/>
        <path id="Path_831" data-name="Path 831" d="M400.488,204.572l-.118-.016-.588.09Z" transform="translate(-283.117 -200.632)" fill="#db6616"/>
        <path id="Path_832" data-name="Path 832" d="M403.47,204.6l-.183-.15c-.253.039-.759-.13-.711.074A1.415,1.415,0,0,1,403.47,204.6Z" transform="translate(-284.018 -200.588)" fill="#db6616"/>
        <path id="Path_833" data-name="Path 833" d="M414.035,199.035c-.18.1-.072.188.036.277l.287-.256C414.273,199.069,414.1,199.094,414.035,199.035Z" transform="translate(-287.688 -198.849)" fill="#db6616"/>
        <path id="Path_834" data-name="Path 834" d="M415.4,199.508l.741-.292a9.64,9.64,0,0,0-1.716.23c.316.093.756-.116,1.154-.037Z" transform="translate(-287.844 -198.906)" fill="#db6616"/>
        <path id="Path_835" data-name="Path 835" d="M437.558,199.911c-.067.188.1.162-.45.284a18.342,18.342,0,0,1,2.268-.1c-.147-.118.5-.324.166-.273l-.963.113.145-.128C438.046,199.659,438.281,200.013,437.558,199.911Z" transform="translate(-295.17 -199.086)" fill="#db6616"/>
        <path id="Path_836" data-name="Path 836" d="M495.007,202.922c-.09.091.026.174.143.256C495.725,203.076,494.891,202.942,495.007,202.922Z" transform="translate(-313.855 -200.105)" fill="#db6616"/>
      </g>
      <g id="Group_332" data-name="Group 332" transform="translate(111.225 153.109)">
        <path id="Path_837" data-name="Path 837" d="M111.239,202.236c-.038.179.013.058.06.038Z" transform="translate(-111.225 -200.443)" fill="#db6616"/>
        <path id="Path_838" data-name="Path 838" d="M111.333,202.291l.042.027C111.364,202.288,111.349,202.284,111.333,202.291Z" transform="translate(-111.26 -200.46)" fill="#db6616"/>
        <path id="Path_839" data-name="Path 839" d="M111.79,202.475c-.09.141-.2-.054-.253.165C111.628,202.77,111.768,202.715,111.79,202.475Z" transform="translate(-111.326 -200.52)" fill="#db6616"/>
        <path id="Path_840" data-name="Path 840" d="M111.706,202.235l-.011.119.079-.185Z" transform="translate(-111.377 -200.421)" fill="#db6616"/>
        <path id="Path_841" data-name="Path 841" d="M111.628,202.069l.011.044.123-.121Z" transform="translate(-111.355 -200.364)" fill="#db6616"/>
        <path id="Path_842" data-name="Path 842" d="M112.232,202.462l-.091.033c-.084-.163.056-.219,0-.328-.112,0-.039.339-.179.285.012.152.225,0,.2.238C112.282,202.766,112.17,202.549,112.232,202.462Z" transform="translate(-111.463 -200.421)" fill="#db6616"/>
        <path id="Path_843" data-name="Path 843" d="M120.383,200.683a.2.2,0,0,0,.013.022C120.391,200.68,120.386,200.662,120.383,200.683Z" transform="translate(-114.182 -199.939)" fill="#db6616"/>
        <path id="Path_844" data-name="Path 844" d="M122.58,200.43a.183.183,0,0,0,.061.049.271.271,0,0,0-.024-.065Z" transform="translate(-114.892 -199.855)" fill="#db6616"/>
        <path id="Path_845" data-name="Path 845" d="M118.979,201.326a.349.349,0,0,0-.058-.06C118.932,201.3,118.949,201.324,118.979,201.326Z" transform="translate(-113.71 -200.13)" fill="#db6616"/>
        <path id="Path_846" data-name="Path 846" d="M133,202.633a.448.448,0,0,0-.008.07l0,.005.017-.065Z" transform="translate(-118.254 -200.571)" fill="#db6616"/>
        <path id="Path_847" data-name="Path 847" d="M125.041,199.876a.132.132,0,0,0,.067-.025C125.069,199.847,125.05,199.857,125.041,199.876Z" transform="translate(-115.687 -199.672)" fill="#db6616"/>
        <path id="Path_848" data-name="Path 848" d="M118.212,201.371a.087.087,0,0,0,.022,0,.108.108,0,0,0-.028-.024l0,.022Z" transform="translate(-113.48 -200.157)" fill="#db6616"/>
        <path id="Path_849" data-name="Path 849" d="M121.863,199.96c.02.016.039.03.054.028A.085.085,0,0,0,121.863,199.96Z" transform="translate(-114.66 -199.708)" fill="#db6616"/>
        <path id="Path_850" data-name="Path 850" d="M114.4,202.974c.026.022.047.007.066-.021C114.447,202.917,114.426,202.91,114.4,202.974Z" transform="translate(-112.25 -200.666)" fill="#db6616"/>
        <path id="Path_851" data-name="Path 851" d="M115.183,202.961h0C115.183,202.991,115.185,202.985,115.183,202.961Z" transform="translate(-112.502 -200.677)" fill="#db6616"/>
        <path id="Path_852" data-name="Path 852" d="M115.684,202.993l-.006.006C115.682,203.02,115.684,203.024,115.684,202.993Z" transform="translate(-112.663 -200.687)" fill="#db6616"/>
        <path id="Path_853" data-name="Path 853" d="M114.495,202.881c.044.095.058.4.114.065l-.012-.045c.034.077.085-.055.124-.065a.76.76,0,0,0-.014-.081.334.334,0,0,1-.087-.035C114.573,202.649,114.542,202.809,114.495,202.881Z" transform="translate(-112.281 -200.594)" fill="#db6616"/>
        <path id="Path_854" data-name="Path 854" d="M120.366,200.762c-.005-.062-.041-.03,0,0Z" transform="translate(-114.171 -199.956)" fill="#db6616"/>
        <path id="Path_855" data-name="Path 855" d="M119.7,201.145a.267.267,0,0,0,.045.011C119.728,201.144,119.714,201.132,119.7,201.145Z" transform="translate(-113.961 -200.089)" fill="#db6616"/>
        <path id="Path_856" data-name="Path 856" d="M117.145,201.014l.008.014C117.156,200.993,117.149,201,117.145,201.014Z" transform="translate(-113.137 -200.045)" fill="#db6616"/>
        <path id="Path_857" data-name="Path 857" d="M119.806,201.167a.174.174,0,0,1-.042,0C119.777,201.175,119.79,201.184,119.806,201.167Z" transform="translate(-113.983 -200.097)" fill="#db6616"/>
        <path id="Path_858" data-name="Path 858" d="M117.911,201.288l.007.009A.011.011,0,0,0,117.911,201.288Z" transform="translate(-113.384 -200.137)" fill="#db6616"/>
        <path id="Path_859" data-name="Path 859" d="M143.448,204.138c-.035.028-.055-.059-.088-.085-.074.221.152,0,.045.2.032,0,.058-.03.082-.062l-.046-.208C143.376,204.065,143.484,204.054,143.448,204.138Z" transform="translate(-121.597 -201.007)" fill="#db6616"/>
        <path id="Path_860" data-name="Path 860" d="M133.634,203.1l-.015-.019c.01.1,0,.125.058.175.049-.145-.027-.363.058-.523-.016.016-.041.009-.064-.011A.662.662,0,0,1,133.634,203.1Z" transform="translate(-118.457 -200.599)" fill="#db6616"/>
        <path id="Path_861" data-name="Path 861" d="M133.672,202.677l0-.011a.537.537,0,0,0-.013-.052.045.045,0,0,1-.034-.023A.168.168,0,0,0,133.672,202.677Z" transform="translate(-118.458 -200.558)" fill="#db6616"/>
        <path id="Path_862" data-name="Path 862" d="M141.775,204.065l-.039-.02C141.755,204.086,141.766,204.085,141.775,204.065Z" transform="translate(-121.078 -201.027)" fill="#db6616"/>
        <path id="Path_863" data-name="Path 863" d="M124.861,203.809a.532.532,0,0,0-.047.066A.09.09,0,0,0,124.861,203.809Z" transform="translate(-115.613 -200.951)" fill="#db6616"/>
        <path id="Path_864" data-name="Path 864" d="M132.4,202.954a.107.107,0,0,0-.041-.033.185.185,0,0,1-.026.009Z" transform="translate(-118.04 -200.665)" fill="#db6616"/>
        <path id="Path_865" data-name="Path 865" d="M136.466,199.993c-.029.237.022-.019.081.118l.054-.126C136.551,199.948,136.505,199.987,136.466,199.993Z" transform="translate(-119.373 -199.711)" fill="#db6616"/>
        <path id="Path_866" data-name="Path 866" d="M143.559,204.3v-.021l0,.005Z" transform="translate(-121.665 -201.104)" fill="#db6616"/>
        <path id="Path_867" data-name="Path 867" d="M138.845,199.929a.276.276,0,0,0,.026.033A.056.056,0,0,0,138.845,199.929Z" transform="translate(-120.144 -199.698)" fill="#db6616"/>
        <path id="Path_868" data-name="Path 868" d="M133.12,202.56l-.206-.014.06.059C133,202.488,133.092,202.7,133.12,202.56Z" transform="translate(-118.229 -200.543)" fill="#db6616"/>
        <path id="Path_869" data-name="Path 869" d="M127.807,199.732l-.018-.144c-.206.306-.442-.133-.606.3-.251-.506-.165.452-.395,0l.008.072a5.323,5.323,0,0,0-2.266-.106v-.1c-1.14-.174-2.249.039-3.378-.041-.106.093-.042.316-.133.429-.04-.009-.129,0-.129-.121.077-.068.033-.178.06-.227-.127.013-.291-.131-.4.021l.095.16c-.044.067-.113.022-.153.014.017-.082-.041-.257-.007-.3-.239.4-.187-.171-.388-.014a2.055,2.055,0,0,1-.458.864l-.087-.089c.116,0,0-.248.142-.232-.12-.1-.231.048-.345-.007a.269.269,0,0,1-.029.236c-.07-.047-.076-.218-.155-.235l.079-.107c-.053-.129-.1.041-.148.061-.016-.142-.135-.169-.114-.327-.107.194-.145.085-.26.209.12.15-.031.188-.018.306l.135-.056c-.19-.1.062-.026.048-.269.089.112-.123.4.027.363-.179.124-.217.015-.4.217.111-.046-.021.158.039.232-.14.009-.035-.085-.079-.242-.076.007-.1-.131-.175.049-.124-.074.019-.183-.044-.282.046-.168.345.206.311-.328.065-.005.144-.211.237-.2-.081-.07-.2-.246-.3-.124l-.005.3c-.077.007-.092.212-.147.186.029-.087-.024-.215-.085-.19.018.043.042.033.035.085-.114.022-.129.228-.265.285.112.078.135.169.24.3-.028.211-.074.03-.135.056.009-.028.022-.035,0-.077l-.066.1c-.139-.091.018-.306-.1-.408-.079-.177-.108.1-.169,0,0,.019.008.04.012.054a.068.068,0,0,1-.03-.014v.014c-.074.031-.153.014-.174.172-.007-.072-.064.021-.089.07-.041.063-.139.25-.2,0l0,0a.182.182,0,0,1-.144-.2l-.148-.063.016-.205c-.135.056-.122.175-.215.387-.1-.122-.267-.024-.33.053-.011-.008-.027-.009-.054,0l.057.081c-.106-.009-.093.1-.162.1.014.019.016.03-.022,0a.173.173,0,0,1-.04-.015c0-.022.019-.018.035-.007l-.013-.069c-.085-.218-.129.124-.22.047.009-.007.024-.022.033-.02-.051-.055-.123-.346-.144-.169-.012-.023-.03.013-.047.058l-.037-.031a.155.155,0,0,1,.037.031c-.023.059-.045.132-.048.089l-.129-.037c-.024-.029-.058,0-.085.025l-.022-.085c-.047.013-.048-.038-.042-.062-.165-.3-.254.152-.431-.1-.034.142.04.206.045.283a1.041,1.041,0,0,1-.18.284c-.079-.2-.321-.37-.282-.653-.146-.022.046.175-.027.273l-.017-.012a.445.445,0,0,1,.118.24c.011.152-.118.2-.158.154l.028-.219c-.135.077-.106.4-.19.622-.108-.086-.046-.284-.068-.479l-.113.054v-.164c-.073.043-.09.2-.192.132.074-.154-.152-.152-.051-.36-.056-.055-.072.261-.1.043-.039.175.05.087.079.142.023.251-.123.12-.191.186-.005-.13.045-.153-.035-.24-.016.1-.067.175-.112.055,0,.163-.091.033-.135.023a.291.291,0,0,1,.091.293c-.039.065-.073.1-.163.077l.062.076c-.079.24-.13-.173-.237-.1a1.309,1.309,0,0,0,.113-.218,1.911,1.911,0,0,1-.225.272l-.09-.238c-.012.12-.1-.011-.1.152-.112-.11.09-.2.1-.316-.141-.108-.113.272-.248.022l.045-.152c-.045-.011-.135.077-.141,0,0,.055.022.033.051.033-.028.328-.208.229-.191.567l.062.022c-.095.066-.163.295-.236.176-.057-.109.039-.23.072-.317-.089-.022-.072.371-.18.339a.264.264,0,0,1,.012.261c.062.022.191.087.169-.055l-.022-.033a.4.4,0,0,1,.056-.164c.085,0,.039.153.056.219.141.053.012-.338.14-.327l.017.065c.062-.087.158-.1.175-.307.057.219.146-.087.208.043.012.479-.219-.032-.292.23.068.1-.039.23-.067.339l.214-.207c.017.065.079.3.118.13l-.016-.012c.085-.054.062-.251.135-.186a.424.424,0,0,1-.017.153c.068.044.056-.109.1-.153.068.043-.034.2.023.25.078-.185.123.044.192.033-.029-.272.269-.371.123-.611l.162-.186c.051.141-.112.381-.067.611l-.129-.01c.022.339.272-.221.358.157.069.014.052-.033.183.135l-.022-.3a.543.543,0,0,1,.093.29.135.135,0,0,1,.113,0,.166.166,0,0,1-.048.1c.051.168.066.1.084.016s.07-.066.112-.063l-.039.112a.164.164,0,0,0,.061-.112.071.071,0,0,0,.051-.027.9.9,0,0,0-.1-.307c.158.119.282.053.416.3,0,.087-.061.2-.044.207.067.044.141-.109.135-.24a.084.084,0,0,1,.037-.013c.013.075.028.156.061.169a.086.086,0,0,0,.043.062c.022-.24.152-.12.18-.23a.122.122,0,0,0-.106-.014c.055-.16.1-.343.146-.215-.1.152.107.25-.045.316.107.3.056-.218.169-.11l.073.12c-.011.175-.118.087-.1.153l.051-.022c-.051.131-.242.045-.36.241l.236.1c.3-.209.67.03.924-.352l-.011,0a.812.812,0,0,0,.01-.116l.012.043.05-.131c.057.163.163.2.254.326a.374.374,0,0,1-.062-.238c.011-.175.02-.249.1-.185,0,.124-.051.121.012.219a.133.133,0,0,1,.033-.164c.047.08.127.1.128.222-.022.034-.04-.009-.055-.028-.022.033.089.112.024.214l.086-.035c.05.1-.033.163-.014.23.143-.085.217-.37.346-.455-.006.066-.007.343-.006.263.1.084.213-.3.327-.324-.017.082-.06.049-.093.089a2.282,2.282,0,0,1,.956.374l.085-.284.085.189c.343.182.605,0,.93-.087.1-.018.061.2.109.279.222.032.276-.289.488-.353-.029.087-.079.332.013.344.017-.082.028-.211.085-.16l-.029.087c.053.127.1.007.213.062.192-.006.376-.208.535-.522.17.029-.018.306.015.368-.121-.1-.084.05-.11.148.064-.081.14-.13.173.074.089-.013.129,0,.217-.14-.044.068-.082-.041-.041-.133.072.07.257-.007.246.247.42-.05.889,0,1.338-.008.076-.131-.058-.051-.016-.143.11-.171.087.089.175-.047l-.037.139c.131.02.27-.236.4-.364-.021.158.1.131,0,.225.062-.026.137.68.186.535l-.07-.657c0-.065.091-.025.082-.068.054.13.121.282.158.282.018.167-.077.131-.128.127-.007.277.175.177.1.432.11-.045-.016-.142.05-.245l.1.06-.074-.093c.081-.083.108-.294.216-.139l.112-.271c.011.219.081.04.139.091l-.036.139c.077-.007.106.03.154.111-.043.192-.069-.046-.087.136l.084.064c0-.124.053-.221-.007-.3.078-.231.121-.423.316-.4.088.213-.095.188-.058.4.2.09.248-.551.366-.525.151.087.142-.11.3-.123-.048.145.108.155.135.292l-.06.15c.047-.045.091.012.077.117-.009-.2.2-.182.3-.276l-.019-.167c.083-.055.2-.161.284-.118.13-.053.1-.2.2-.383a1.156,1.156,0,0,1,.03.511c-.035-.085-.093-.035-.151-.087-.165.144-.292.5-.456.414-.071.4.11-.047.19.095,0,.024-.008.033-.014.037a.026.026,0,0,1,.02.012.392.392,0,0,0-.171.32c.1-.041.071-.4.194-.23.091-.113.165.205.219.234.06-.152.063-.475.211-.413l-.065.226c.168,0,.079-.331.234-.321-.055-.027.053-.223-.051-.229a.156.156,0,0,1,.249-.078c.022-.035,0-.077.008-.154-.093-.157-.148.153-.225-.073l-.065.244a.378.378,0,0,1-.043-.381c-.024.01-.046.044-.064,0-.015-.368.1.131.135-.181l-.062.026c-.026-.238.144-.21.223-.193.09.112.172.152.178.326l-.121.074c.062.138.154-.081.223-.074a.156.156,0,0,0,.02.053.221.221,0,0,1-.005-.048c.015.009.028.03.039.071.062.009.152-.1.209-.041l-.007-.154-.007.087a.159.159,0,0,1-.09-.217c.127-.107.152.19.183.324-.029.237-.124,0-.189.079.039.234.129.024.261.179-.052.257-.152,0-.181.233.106.044.133-.138.244-.073-.014.119-.123.13-.116.283l.072.073c-.175.015.03.319-.106.382.064.1.09-.209.181-.047-.025-.112-.1-.316-.011-.416l.1.075c.041.124-.1.274-.039.378l.1-.087c0-.076-.053-.114-.022-.22.06.083.1-.3.169-.408a.12.12,0,0,1,.121.111c.142-.226.322-.219.452-.433-.089.154,0,.261.057.377-.1.032-.1.272-.1.427.063-.026.1-.274.072-.353.1.1.072-.167.163,0,.06.083-.029.237-.009.327.112.011.03-.292.153-.235a.145.145,0,0,0-.008.086c.066.051.137-.062.152-.181.07.313.2-.033.184.27.16-.081-.024-.166.008-.272.065-.135.186-.024.224.024-.039.007-.076.089-.114.043l.034.211c.2.15.126-.479.318-.3-.1.11-.033.16-.082.309.03-.053.18.006.089-.155a.449.449,0,0,1,.172.094.686.686,0,0,0,.171-.278c.1.022.176.172.224.264.213-.152.409.108.633-.054l-.017-.013c.174.039-.077-.281.1-.274-.024.259.108.175.167.312.221.133.383-.19.586-.016,0,.054-.014.119-.054.125.156.082.282.03.422.043l-.006.032c.225.21.429-.043.662-.1-.019.033-.024.13-.039.165a.248.248,0,0,0,.387-.14c.139.255.093-.077.272.169.011.045-.018.043-.029.053.088.085.15.059.24.089.2-.165.245-.5.474-.4.012.352-.141.087-.146.368.045-.062.085-.134.148-.051a1.484,1.484,0,0,0-.034.215c.048.092.194-.367.193-.334,0-.068-.014-.1-.059-.095.053-.217.224-.018.335-.1a.183.183,0,0,1-.107-.242c.149.074.2-.263.3-.4.137.159-.1.3-.075.542.023.09.078.287.02.383.123.053.211-.158.321-.212l0,.069c.153-.028.317-.333.445-.193l-.068-.08c.025-.042.1-.022.145-.164,0,.116.1.221.054.316.068-.371.349-.225.425-.577a.678.678,0,0,1,0,.328c-.1-.032-.129-.106-.18.043.081-.005.139.09.127.175.081-.231.272-.322.313-.553a.518.518,0,0,1,.094.37c.247-.12-.122-.594.157-.59.127.186-.124.253.051.316l-.032.03c.127.5.089-.353.232-.337.02.27-.1.192,0,.386.131-.068.189-.468.32-.382l-.02.115c.084-.022.247.033.33.012,0,.053-.008.045-.024.06.155.1.065-.138.192.048l.036-.131c-.064-.093-.186-.225-.267-.071.081-.154-.126-.341-.086-.571l-.016.092c-.21-.4-.48-.445-.747-.594-.168.276-.286-.11-.466.08-.028.316-.034.064-.189.127.082-.039.01-.24-.042-.282a.278.278,0,0,1-.1.14c-.031-.108-.227-.362-.3-.148-.094-.1.022-.1.043-.167-.039-.162-.077.127-.108.018a.144.144,0,0,1,.011-.05c-.144.013-.23-.07-.38-.109-.013.309-.148.116-.215.227.022-.1-.084-.116-.127-.175l-.081.23c-.08.195-.11-.138-.213-.033l.024.056c-.075.092-.273-.093-.347-.26-.694.6-1.074-.34-1.805-.176-.047.093.035.157,0,.3a.3.3,0,0,1-.158.027c.06.083.05-.02.042.066l.1-.087c.005.023-.006.033,0,.077.035-.028.075-.09.12-.074-.064.08-.082.308-.169.221a.093.093,0,0,1,.041-.061c-.072-.018-.076.091-.13.03s-.05.02-.059-.079l-.206-.123c-.1.273-.23.013-.263-.012.022-.2.137-.063.188-.264l-.074-.15,0,.163-.106-.045.006-.031c-.013.064-.026.127-.053.071,0-.023-.015-.068,0-.077l-.076.09c.044-.169-.066-.051-.056-.246-.247-.1-.314.263-.532,0,.036.092-.068.309-.135.273a.155.155,0,0,1-.024-.167l-.087.1c-.11-.305-.217-.109-.378-.213l.008-.086c-.06.1-.123.183-.213.151l.017-.172c-.11-.121-.084.362-.2.252,0,.186.077.28.089.456-.029-.189-.158-.217-.129-.083-.12.076-.083,0-.093-.049l-.071.113c-.084-.009-.027-.243,0-.349-.079.2-.165.059-.255.028l.036-.083-.118-.034c-.077.145-.184.156-.284.079l.068-.244c-.069-.127-.035.085-.054.126-.11.119-.133-.047-.192-.184C128.133,200.02,127.958,199.365,127.807,199.732Zm-12.16.943.016.037C115.626,200.753,115.605,200.792,115.647,200.674Zm.968.069c-.116.1-.079-.02-.088-.087.114.066.179-.012.28.068a.811.811,0,0,1-.025-.154c.041.012.081.065.095.189C116.827,201,116.565,200.6,116.615,200.743Zm-2.18,1.206c0-.018.008-.037.014-.054h0Zm.577-.217a.184.184,0,0,0,.04.1C115.041,201.768,115.031,201.714,115.012,201.732Zm1.149.3c.027.1.087.071.131.047A.265.265,0,0,0,116.161,202.034Zm7.25-.11c-.035.039-.1.141-.04.216.028-.088.084.064.108-.07a.085.085,0,0,1,.005.012A.768.768,0,0,0,123.411,201.924Zm3.408-.831a1.258,1.258,0,0,0-.016.286l-.01-.008a.171.171,0,0,1,.009.085c.028.02.057.044.077.015C126.889,201.143,126.947,201.09,126.819,201.093Z" transform="translate(-111.597 -199.588)" fill="#db6616"/>
        <path id="Path_870" data-name="Path 870" d="M132.025,203.8c.014,0,.024,0,.032-.007A.1.1,0,0,0,132.025,203.8Z" transform="translate(-117.942 -200.944)" fill="#db6616"/>
        <path id="Path_871" data-name="Path 871" d="M133.754,202.323c0-.02-.03-.053-.07-.09A.111.111,0,0,0,133.754,202.323Z" transform="translate(-118.477 -200.442)" fill="#db6616"/>
        <path id="Path_872" data-name="Path 872" d="M112.556,201.379l.034-.033-.068-.1a.677.677,0,0,0-.146.415c.1-.153.163-.076.293-.121Z" transform="translate(-111.597 -200.124)" fill="#db6616"/>
        <path id="Path_873" data-name="Path 873" d="M112.727,203.052a.607.607,0,0,0,.056.164l.017-.1Z" transform="translate(-111.71 -200.707)" fill="#db6616"/>
        <path id="Path_874" data-name="Path 874" d="M114.644,203.716l-.107-.087C114.5,203.716,114.628,203.869,114.644,203.716Z" transform="translate(-112.293 -200.893)" fill="#db6616"/>
        <path id="Path_875" data-name="Path 875" d="M113.97,201.211l-.056.11c.051.087.118.077.129-.043C113.976,201.343,114.026,201.211,113.97,201.211Z" transform="translate(-112.094 -200.112)" fill="#db6616"/>
        <path id="Path_876" data-name="Path 876" d="M115.123,203.739c.033-.2.107.087.129-.1C115.224,203.7,115.128,203.542,115.123,203.739Z" transform="translate(-112.484 -200.895)" fill="#db6616"/>
        <path id="Path_877" data-name="Path 877" d="M114.937,200.989c-.034-.186-.09-.022-.158-.066C114.835,200.923,114.914,201.119,114.937,200.989Z" transform="translate(-112.373 -200.011)" fill="#db6616"/>
        <path id="Path_878" data-name="Path 878" d="M115.871,202.95c-.005.14-.051.131-.1.1a.519.519,0,0,1,.05-.131.8.8,0,0,1-.158.153c.068.1.169.162.158.337A.652.652,0,0,0,115.871,202.95Z" transform="translate(-112.658 -200.663)" fill="#db6616"/>
        <path id="Path_879" data-name="Path 879" d="M115.177,200.915c-.056-.054-.09-.184-.158-.173.012.1.035.24.114.217l-.028.163C115.177,201.243,115.075,200.906,115.177,200.915Z" transform="translate(-112.45 -199.96)" fill="#db6616"/>
        <path id="Path_880" data-name="Path 880" d="M116.3,203.491l-.034-.076c-.079.131-.18.066-.225.273A.37.37,0,0,0,116.3,203.491Z" transform="translate(-112.782 -200.824)" fill="#db6616"/>
        <path id="Path_881" data-name="Path 881" d="M115.621,201.336l.011-.229c-.079-.032.005.077-.022.131-.023-.032-.057-.053-.073-.01C115.625,201.194,115.542,201.413,115.621,201.336Z" transform="translate(-112.617 -200.077)" fill="#db6616"/>
        <path id="Path_882" data-name="Path 882" d="M116.027,200.91l.1-.1-.079-.251C115.931,200.648,116.044,200.7,116.027,200.91Z" transform="translate(-112.765 -199.902)" fill="#db6616"/>
        <path id="Path_883" data-name="Path 883" d="M116.226,201.161l.011.044.152-.339A1.051,1.051,0,0,0,116.226,201.161Z" transform="translate(-112.84 -200.001)" fill="#db6616"/>
        <path id="Path_884" data-name="Path 884" d="M118.918,203.425c.017-.1-.072-.22-.034-.11C118.868,203.4,118.985,203.522,118.918,203.425Z" transform="translate(-113.696 -200.777)" fill="#db6616"/>
        <path id="Path_885" data-name="Path 885" d="M118.4,200.727c.043.074.184-.066.246-.133C118.576,200.641,118.393,200.594,118.4,200.727Z" transform="translate(-113.543 -199.913)" fill="#db6616"/>
        <path id="Path_886" data-name="Path 886" d="M118.793,200.554l-.025.027A.065.065,0,0,0,118.793,200.554Z" transform="translate(-113.661 -199.9)" fill="#db6616"/>
        <path id="Path_887" data-name="Path 887" d="M122.649,199.8a.041.041,0,0,0,.019-.026Z" transform="translate(-114.914 -199.647)" fill="#db6616"/>
        <path id="Path_888" data-name="Path 888" d="M122.49,199.861c-.042-.033-.125.026-.139.133a.708.708,0,0,0,.2-.19C122.524,199.815,122.488,199.741,122.49,199.861Z" transform="translate(-114.818 -199.654)" fill="#db6616"/>
        <path id="Path_889" data-name="Path 889" d="M123.409,199.969c-.03.062-.073.03-.063.126C123.364,200.138,123.43,200.035,123.409,199.969Z" transform="translate(-115.139 -199.711)" fill="#db6616"/>
        <path id="Path_890" data-name="Path 890" d="M129.388,204.133c.058.051.091.012.076-.131C129.4,204,129.434,204.089,129.388,204.133Z" transform="translate(-117.09 -201.013)" fill="#db6616"/>
        <path id="Path_891" data-name="Path 891" d="M129.609,203.958l.008.071.038.109Z" transform="translate(-117.161 -200.999)" fill="#db6616"/>
        <path id="Path_892" data-name="Path 892" d="M130.183,204.266a.139.139,0,0,1-.024.062C130.181,204.309,130.2,204.289,130.183,204.266Z" transform="translate(-117.339 -201.099)" fill="#db6616"/>
        <path id="Path_893" data-name="Path 893" d="M130.142,204.367l.012-.009Z" transform="translate(-117.334 -201.128)" fill="#db6616"/>
        <path id="Path_894" data-name="Path 894" d="M130.1,204.3l0,.077a.144.144,0,0,1,.03-.03C130.117,204.355,130.106,204.345,130.1,204.3Z" transform="translate(-117.319 -201.111)" fill="#db6616"/>
        <path id="Path_895" data-name="Path 895" d="M130.324,204.2l-.076-.217c-.079.107.089.112.012.343Z" transform="translate(-117.361 -201.007)" fill="#db6616"/>
        <path id="Path_896" data-name="Path 896" d="M130.759,203.948c.072.07.176-.272.217-.015.2-.135-.047-.429.187-.527-.221-.133-.112.5-.309.353C130.949,203.919,130.79,203.886,130.759,203.948Z" transform="translate(-117.533 -200.815)" fill="#db6616"/>
        <path id="Path_897" data-name="Path 897" d="M130.707,203.55c-.012.129.08.141.109.055C130.788,203.59,130.742,203.41,130.707,203.55Z" transform="translate(-117.516 -200.85)" fill="#db6616"/>
        <path id="Path_898" data-name="Path 898" d="M131.349,204.044l.063.1.016-.083Z" transform="translate(-117.723 -201.027)" fill="#db6616"/>
        <path id="Path_899" data-name="Path 899" d="M131.67,204.12l-.061.15C131.629,204.211,131.72,204.223,131.67,204.12Z" transform="translate(-117.807 -201.051)" fill="#db6616"/>
        <path id="Path_900" data-name="Path 900" d="M132.181,204.285c.057.051.109-.295-.012-.219l.028.014C132.189,204.133,132.254,204.255,132.181,204.285Z" transform="translate(-117.988 -201.03)" fill="#db6616"/>
        <path id="Path_901" data-name="Path 901" d="M133.277,203.594c-.04-.007-.086.037-.078.108l.108-.07Z" transform="translate(-118.321 -200.881)" fill="#db6616"/>
        <path id="Path_902" data-name="Path 902" d="M133.208,202.309c-.037-.21-.1.017-.173-.052C133.117,202.3,133.107,202.326,133.208,202.309Z" transform="translate(-118.268 -200.437)" fill="#db6616"/>
        <path id="Path_903" data-name="Path 903" d="M133.449,204.035c-.029.087-.074.03-.1.016C133.361,204.171,133.434,204.141,133.449,204.035Z" transform="translate(-118.369 -201.024)" fill="#db6616"/>
        <path id="Path_904" data-name="Path 904" d="M133.684,203.787c.035.085-.007.118.019.175.076.1.156.083.2-.033a1.241,1.241,0,0,1-.016-.438c-.121.074-.183.463-.242.164l-.1.366C133.639,204.08,133.616,203.765,133.684,203.787Z" transform="translate(-118.432 -200.848)" fill="#db6616"/>
        <path id="Path_905" data-name="Path 905" d="M133.39,202.822l.065.123a.176.176,0,0,1,.07-.179C133.508,202.5,133.427,202.806,133.39,202.822Z" transform="translate(-118.383 -200.579)" fill="#db6616"/>
        <path id="Path_906" data-name="Path 906" d="M134.742,203.653l.137-.062-.045-.015Z" transform="translate(-118.819 -200.876)" fill="#db6616"/>
        <path id="Path_907" data-name="Path 907" d="M134.872,203.786l0,.077.105-.142Z" transform="translate(-118.861 -200.923)" fill="#db6616"/>
        <path id="Path_908" data-name="Path 908" d="M135.038,203.946l-.016-.012-.081.067Z" transform="translate(-118.883 -200.991)" fill="#db6616"/>
        <path id="Path_909" data-name="Path 909" d="M135.448,203.964l-.025-.112c-.035.03-.1-.1-.1.056C135.356,203.856,135.428,203.875,135.448,203.964Z" transform="translate(-119.007 -200.958)" fill="#db6616"/>
        <path id="Path_910" data-name="Path 910" d="M136.9,199.793a.367.367,0,0,0,0,.208l.039-.192C136.935,199.819,136.912,199.837,136.9,199.793Z" transform="translate(-119.512 -199.654)" fill="#db6616"/>
        <path id="Path_911" data-name="Path 911" d="M137.09,200.147l.1-.219c-.117-.034-.133.139-.236.173.044.07.1-.087.159-.027Z" transform="translate(-119.534 -199.696)" fill="#db6616"/>
        <path id="Path_912" data-name="Path 912" d="M140.14,200.45c-.009.142.014.121-.062.213.1-.088.193-.057.312-.078-.02-.089.068-.243.023-.205l-.133.085.02-.1C140.207,200.261,140.24,200.526,140.14,200.45Z" transform="translate(-120.542 -199.832)" fill="#db6616"/>
        <path id="Path_913" data-name="Path 913" d="M148.047,202.708a.445.445,0,0,0,.02.192C148.146,202.824,148.031,202.723,148.047,202.708Z" transform="translate(-123.114 -200.595)" fill="#db6616"/>
      </g>
      <g id="Group_333" data-name="Group 333" transform="translate(168.759 78.052)">
        <path id="Path_914" data-name="Path 914" d="M207.856,109.268h-4.012V121.3H196.2V88.735h11.659c6.655,0,11.9,2.974,11.9,10.243S214.511,109.268,207.856,109.268ZM206.77,94.635H203.8v8.732h2.974c2.973,0,5.239-1.039,5.239-4.39C212.009,95.673,209.7,94.635,206.77,94.635Z" transform="translate(-196.197 -88.735)" fill="#00375f"/>
        <path id="Path_915" data-name="Path 915" d="M249.02,125.536l-.142-2.454a8.679,8.679,0,0,1-6.655,2.974c-4.107,0-8.449-2.219-8.449-7.411s4.768-6.939,9.063-7.128l5.853-.236v-.519c0-2.455-1.747-3.729-4.768-3.729a14.873,14.873,0,0,0-7.128,2.077l-1.982-4.91a22.919,22.919,0,0,1,9.959-2.36c7.269,0,11.471,3.02,11.471,10.573v13.123Zm-4.013-10.007c-2.312.094-3.681,1.085-3.681,2.832,0,1.794,1.463,2.88,3.54,2.88a4.637,4.637,0,0,0,3.871-2.123v-3.824Z" transform="translate(-208.331 -92.967)" fill="#00375f"/>
        <path id="Path_916" data-name="Path 916" d="M281.555,105.233v8.355c0,2.029.142,3.446,2.455,3.446a7.032,7.032,0,0,0,2.266-.425l.377,5.9a20.439,20.439,0,0,1-5.381.755c-6.042,0-7.316-3.681-7.316-9.016v-9.015h-3.3V99.521h3.3V93.2h7.6v6.325H286.7v5.712Z" transform="translate(-220.239 -90.175)" fill="#00375f"/>
        <path id="Path_917" data-name="Path 917" d="M308.605,105.233v8.355c0,2.029.142,3.446,2.455,3.446a7.032,7.032,0,0,0,2.266-.425l.377,5.9a20.438,20.438,0,0,1-5.38.755c-6.042,0-7.317-3.681-7.317-9.016v-9.015h-3.3V99.521h3.3V93.2h7.6v6.325h5.146v5.712Z" transform="translate(-228.974 -90.175)" fill="#00375f"/>
        <path id="Path_918" data-name="Path 918" d="M347.964,115.719H331.4c.331,3.351,2.88,4.862,5.948,4.862a13.093,13.093,0,0,0,6.986-2.219l2.974,3.918c-.755.566-3.823,3.776-11.045,3.776-7.175,0-12.415-4.437-12.415-12.131s5.665-12.083,12.556-12.083,11.66,4.578,11.66,11.376C348.059,114.35,347.964,115.719,347.964,115.719Zm-11.706-8.969a4.74,4.74,0,0,0-4.815,4.673h9.582A4.691,4.691,0,0,0,336.258,106.75Z" transform="translate(-237.415 -92.967)" fill="#00375f"/>
        <path id="Path_919" data-name="Path 919" d="M380.061,109.205h-.33a6.07,6.07,0,0,0-2.738-.567c-3.729,0-4.673,3.494-4.673,6.562v10.337h-7.552V102.266h7.552l-.047,3.3h.095a6.154,6.154,0,0,1,5.758-3.729,5.439,5.439,0,0,1,2.36.425Z" transform="translate(-250.63 -92.967)" fill="#00375f"/>
        <path id="Path_920" data-name="Path 920" d="M397.66,126.033a14.285,14.285,0,0,1-9.819-3.587l2.832-4.484a12.7,12.7,0,0,0,6.891,2.832c1.888,0,3.21-.471,3.21-1.982s-3.4-2.266-4.248-2.549c-3.87-.991-7.269-2.36-7.269-7.174,0-4.531,3.965-7.317,8.827-7.317a13.444,13.444,0,0,1,8.921,2.88l-2.454,4.437a11.41,11.41,0,0,0-5.853-2.266c-1.794,0-2.785.472-2.785,1.7s1.794,1.793,3.4,2.265c4.012,1.18,8.213,2.408,8.213,7.552C407.526,123.909,402.475,126.033,397.66,126.033Z" transform="translate(-258.081 -92.944)" fill="#00375f"/>
        <path id="Path_921" data-name="Path 921" d="M433.054,126.056c-7.363,0-12.934-4.579-12.934-12.083s5.57-12.131,12.934-12.131,12.886,4.626,12.886,12.131S440.418,126.056,433.054,126.056Zm0-18.268c-3.352,0-5.287,2.6-5.287,6.042s1.935,6.042,5.287,6.042c3.3,0,5.287-2.6,5.287-6.042S436.358,107.788,433.054,107.788Z" transform="translate(-268.504 -92.967)" fill="#00375f"/>
        <path id="Path_922" data-name="Path 922" d="M478.986,125.536V113.406c0-3.069-.472-5.381-3.587-5.381-3.257,0-4.154,2.643-4.154,5.994v11.517h-7.552V102.266h7.552l-.047,3.352h.094a7.548,7.548,0,0,1,6.75-3.776c6.75,0,8.5,4.343,8.5,9.96v13.735Z" transform="translate(-282.574 -92.967)" fill="#00375f"/>
      </g>
      <g id="Group_334" data-name="Group 334" transform="translate(276.171 163.937)">
        <path id="Path_923" data-name="Path 923" d="M360.839,220.318H355.79v4.245h-.956v-8.8h.956v3.723h5.049v-3.723h.955v8.8h-.955Z" transform="translate(-354.834 -215.64)" fill="#1a1818"/>
        <path id="Path_924" data-name="Path 924" d="M371.441,225.062a2.522,2.522,0,0,1-1.963.918,1.891,1.891,0,0,1-2.053-1.823c0-1.02.752-1.733,2.384-1.81l1.619-.077V222a1.389,1.389,0,0,0-1.581-1.453,3.545,3.545,0,0,0-1.771.471l-.319-.675a4.387,4.387,0,0,1,2.129-.586c1.747,0,2.5.9,2.5,2.588v3.505h-.931Zm-1.555-2.027c-1.109.051-1.479.5-1.479,1.109a1.142,1.142,0,0,0,1.262,1.083,2.314,2.314,0,0,0,1.772-.854v-1.415Z" transform="translate(-358.9 -216.929)" fill="#1a1818"/>
        <path id="Path_925" data-name="Path 925" d="M377.214,219.873h.943v1.02a1.623,1.623,0,0,1,1.517-1.134,1.794,1.794,0,0,1,.638.1l-.064.892h-.039a1.752,1.752,0,0,0-.65-.114,1.3,1.3,0,0,0-1.007.523,2.381,2.381,0,0,0-.4,1.593v3.1h-.943Z" transform="translate(-362.061 -216.929)" fill="#1a1818"/>
        <path id="Path_926" data-name="Path 926" d="M383.275,219.861h.943v1.058h.013a2.558,2.558,0,0,1,2.18-1.16,2.836,2.836,0,0,1,2.907,3.1,2.932,2.932,0,0,1-2.881,3.123,2.442,2.442,0,0,1-2.205-1.148l-.013-.013v3.429h-.943Zm5.061,3a2.08,2.08,0,0,0-2.079-2.308,2.153,2.153,0,0,0-2.078,2.308,2.05,2.05,0,0,0,2.052,2.295A2.1,2.1,0,0,0,388.336,222.857Z" transform="translate(-364.018 -216.929)" fill="#1a1818"/>
        <path id="Path_927" data-name="Path 927" d="M396.515,225.98a2.859,2.859,0,0,1-2.945-3.136,2.925,2.925,0,0,1,2.945-3.085,2.691,2.691,0,0,1,2.779,2.83,4.425,4.425,0,0,1-.039.5h-4.717a2.032,2.032,0,0,0,2.142,2.1,3.306,3.306,0,0,0,2.014-.752l.408.561A3.21,3.21,0,0,1,396.515,225.98Zm-.039-5.431a1.88,1.88,0,0,0-1.925,1.823h3.786A1.77,1.77,0,0,0,396.477,220.549Z" transform="translate(-367.342 -216.929)" fill="#1a1818"/>
        <path id="Path_928" data-name="Path 928" d="M403.961,219.873h.943v1.02a1.623,1.623,0,0,1,1.517-1.134,1.794,1.794,0,0,1,.638.1l-.064.892h-.039a1.752,1.752,0,0,0-.65-.114,1.3,1.3,0,0,0-1.007.523,2.377,2.377,0,0,0-.4,1.593v3.1h-.943Z" transform="translate(-370.698 -216.929)" fill="#1a1818"/>
        <path id="Path_929" data-name="Path 929" d="M417.545,224.655a4.27,4.27,0,0,1-4.437-4.538,4.528,4.528,0,0,1,7.623-3.315l-.484.752a3.535,3.535,0,0,0-2.639-1.122,3.661,3.661,0,0,0,0,7.317,3.582,3.582,0,0,0,2.715-1.1l.485.676A4.253,4.253,0,0,1,417.545,224.655Z" transform="translate(-373.651 -215.579)" fill="#1a1818"/>
        <path id="Path_930" data-name="Path 930" d="M425.589,222.882a3.117,3.117,0,1,1,3.111,3.1A3.039,3.039,0,0,1,425.589,222.882Zm5.265-.025a2.153,2.153,0,1,0-2.154,2.295A2.123,2.123,0,0,0,430.854,222.857Z" transform="translate(-377.681 -216.929)" fill="#1a1818"/>
        <path id="Path_931" data-name="Path 931" d="M441.62,219.909V225.9H440.7l-.013-.956A2,2,0,0,1,438.8,226c-1.708,0-2.129-1.045-2.129-2.473v-3.62h.955v3.557c0,1.109.358,1.721,1.467,1.721,1.07,0,1.593-.918,1.593-1.964v-3.314Z" transform="translate(-381.261 -216.977)" fill="#1a1818"/>
        <path id="Path_932" data-name="Path 932" d="M451.534,222.232v3.62h-.944V222.3c0-1.109-.357-1.72-1.466-1.72-1.071,0-1.606.88-1.606,1.912v3.365h-.943v-5.979h.943v.969h.038a1.98,1.98,0,0,1,1.861-1.083C451.126,219.759,451.534,220.8,451.534,222.232Z" transform="translate(-384.458 -216.929)" fill="#1a1818"/>
        <path id="Path_933" data-name="Path 933" d="M457.8,225.159c-1.428,0-1.428-1.339-1.428-2.423v-2.881h-.892v-.79h.892v-1.848h.956v1.848h1.466v.79h-1.479v3.073a2.187,2.187,0,0,0,.192,1.186.719.719,0,0,0,.612.23,1.7,1.7,0,0,0,.663-.14l.05.764A2.487,2.487,0,0,1,457.8,225.159Z" transform="translate(-387.333 -216.108)" fill="#1a1818"/>
        <path id="Path_934" data-name="Path 934" d="M460.765,219.909l.982.013,1.938,4.921,1.9-4.934.981.013-2.919,7.063c-.459,1.1-.867,1.389-1.5,1.389a2.222,2.222,0,0,1-.931-.2l.191-.8a1.877,1.877,0,0,0,.6.14c.306,0,.523-.013.867-.829l.331-.778Z" transform="translate(-389.04 -216.977)" fill="#1a1818"/>
        <path id="Path_935" data-name="Path 935" d="M470.046,227.008h1.008l-1.1,2.97h-.739C469.5,228.984,469.779,228,470.046,227.008Z" transform="translate(-391.77 -219.27)" fill="#1a1818"/>
        <path id="Path_936" data-name="Path 936" d="M479.642,224.563h-.957v-8.8h.957v3.99l3.85-3.99H484.7l-3.417,3.455,3.671,5.342h-1.186l-3.161-4.653-.969.982Z" transform="translate(-394.827 -215.64)" fill="#1a1818"/>
        <path id="Path_937" data-name="Path 937" d="M491.329,223.833c1.058,0,1.823-.561,1.823-1.555,0-.918-.74-1.364-1.556-1.721L490.3,220a2.138,2.138,0,0,1-1.479-2.142,2.439,2.439,0,0,1,2.7-2.257,3.083,3.083,0,0,1,2.41,1.135l-.562.638a2.426,2.426,0,0,0-1.9-.944c-.943,0-1.683.5-1.683,1.364a1.584,1.584,0,0,0,1.224,1.5l1.2.51c1.071.459,1.925,1.071,1.925,2.333,0,1.555-1.211,2.524-2.92,2.524a3.392,3.392,0,0,1-2.741-1.567l.651-.625A2.967,2.967,0,0,0,491.329,223.833Z" transform="translate(-397.987 -215.585)" fill="#1a1818"/>
      </g>
    </g>
  </g>
</svg>
