<svg width="210" height="74" viewBox="0 0 210 74" fill="none" xmlns="http://www.w3.org/2000/svg">
<g clip-path="url(#clip0)">
<path fill-rule="evenodd" clip-rule="evenodd" d="M2.85954 57.401V16.111C2.90549 13.3174 2.68877 10.5257 2.21225 7.77267C1.75857 5.45316 1.01533 3.19992 0 1.06592H27.1206C26.1079 3.19452 25.3674 5.44235 24.9165 7.75627C24.436 10.495 24.2165 13.2733 24.261 16.0536V28.8932H47.8911V16.0536C47.9357 13.2733 47.7162 10.495 47.2357 7.75627C46.7953 5.44383 46.0658 3.19606 45.0644 1.06592H72.1849C71.1685 3.19873 70.4279 5.45247 69.9809 7.77267C69.4861 10.5238 69.2556 13.316 69.2926 16.111V57.401C69.2477 60.1786 69.4672 62.9542 69.9481 65.6901C70.3926 68.011 71.1334 70.265 72.1522 72.3969H45.0644C46.0796 70.2636 46.8202 68.01 47.2684 65.6901C47.7493 62.9542 47.9688 60.1786 47.9239 57.401V43.1676H24.261V57.401C24.2161 60.1786 24.4356 62.9542 24.9165 65.6901C25.3648 68.01 26.1054 70.2636 27.1206 72.3969H0C1.0134 70.2591 1.76712 68.0074 2.24503 65.6901C2.68951 62.9501 2.89512 60.1766 2.85954 57.401Z" fill="#6A003A"/>
<path fill-rule="evenodd" clip-rule="evenodd" d="M107.943 73.6748C94.8935 73.6748 84.2036 70.4417 75.8735 63.9754C67.5435 57.5092 63.3784 49.2118 63.3784 39.0834C63.3784 27.6048 67.6746 18.2252 76.2668 10.9445C84.8591 3.66387 95.8821 0.0180618 109.336 0.00712988C113.17 -0.0429385 117.002 0.170738 120.807 0.646649C124.363 1.21652 127.87 2.06359 131.295 3.18013V21.6524C128.152 19.1884 124.61 17.2831 120.823 16.0197C116.999 14.6509 112.971 13.9411 108.91 13.9208C102.355 13.9208 96.9555 16.0689 92.7932 20.3652C88.6309 24.6614 86.5415 30.2039 86.5415 36.8861C86.5415 43.5682 88.4834 49.0697 92.3835 53.3496C96.2836 57.6294 101.298 59.7612 107.427 59.7612C109.457 59.7204 111.478 59.4898 113.465 59.0724V49.6436C113.51 46.866 113.291 44.0905 112.81 41.3545C112.341 39.0327 111.581 36.7793 110.549 34.6477H137.669C136.672 36.7968 135.943 39.0602 135.498 41.3873C135.021 44.0934 134.801 46.8387 134.842 49.5862V62.0651C134.833 63.2891 135.041 64.5051 135.457 65.6562C136.008 66.9519 136.739 68.1635 137.628 69.2556V69.6245C129.058 72.2536 119.163 73.6037 107.943 73.6748Z" fill="#6A003A"/>
<path fill-rule="evenodd" clip-rule="evenodd" d="M108.007 73.8725C94.9574 73.8725 84.2676 70.6394 75.9375 64.1732C67.6074 57.7069 63.4424 49.4096 63.4424 39.2811C63.4424 27.8026 67.7385 18.423 76.3308 11.1423C84.9231 3.86162 95.9461 0.215816 109.4 0.204884C113.234 0.154815 117.066 0.368492 120.871 0.844403C124.427 1.41427 127.934 2.26134 131.359 3.37788V21.8501C128.216 19.3861 124.674 17.4808 120.887 16.2175C117.063 14.8486 113.035 14.1389 108.974 14.1185C102.419 14.1185 97.0194 16.2666 92.8571 20.5629C88.6948 24.8592 86.6055 30.4017 86.6055 37.0838C86.6055 43.766 88.5473 49.2675 92.4475 53.5473C96.3476 57.8272 101.362 59.9589 107.491 59.9589C109.521 59.9181 111.542 59.6876 113.529 59.2702V49.8414C113.574 47.0638 113.355 44.2882 112.874 41.5522C112.405 39.2304 111.645 36.977 110.612 34.8455H137.733C136.736 36.9945 136.007 39.258 135.562 41.585C135.085 44.2911 134.865 47.0364 134.906 49.784V62.2628C134.897 63.4869 135.105 64.7029 135.521 65.854C136.072 67.1496 136.803 68.3613 137.692 69.4533V69.8223C129.122 72.4514 119.227 73.8015 108.007 73.8725Z" stroke="#6A003A" stroke-width="0.5" stroke-miterlimit="2.61"/>
<path fill-rule="evenodd" clip-rule="evenodd" d="M140.707 57.5567V16.2257C140.751 13.4403 140.534 10.6569 140.06 7.91193C139.607 5.59474 138.864 3.34406 137.848 1.21338H164.968C163.953 3.34363 163.212 5.59456 162.764 7.91193C162.284 10.648 162.064 13.4235 162.109 16.2011V29.0489H185.739V16.2093C185.783 13.4317 185.564 10.6562 185.083 7.92013C184.635 5.60556 183.894 3.35743 182.879 1.22978H210C208.984 3.3541 208.243 5.59968 207.796 7.91193C207.315 10.6507 207.096 13.429 207.14 16.2093V57.5567C207.095 60.337 207.315 63.1153 207.796 65.854C208.243 68.1742 208.983 70.4279 210 72.5608H182.879C183.892 70.4265 184.633 68.1732 185.083 65.854C185.564 63.1153 185.784 60.337 185.739 57.5567V43.3315H162.109V57.5567C162.064 60.337 162.283 63.1153 162.764 65.854C163.215 68.1732 163.955 70.4265 164.968 72.5608H137.848C138.864 70.4227 139.623 68.1713 140.109 65.854C140.548 63.1107 140.748 60.3345 140.707 57.5567Z" fill="#6A003A"/>
</g>
<defs>
<clipPath id="clip0">
<rect width="210" height="74" fill="white"/>
</clipPath>
</defs>
</svg>
