<?xml version="1.0" encoding="UTF-8"?> <svg xmlns="http://www.w3.org/2000/svg" xmlns:xlink="http://www.w3.org/1999/xlink" version="1.1" id="Logo_art" x="0px" y="0px" viewBox="0 0 797.3 127.2" style="enable-background:new 0 0 797.3 127.2;" xml:space="preserve"> <style type="text/css"> .st0{fill:#565759;} .st1{fill:#7FBC42;} .st2{fill:#3585C6;} .st3{fill:#757679;} .st4{fill:#DF1F36;} .st5{fill:#231F20;} </style> <g> <path class="st0" d="M180.7,112.9V110h6.3V91.5h-26.3V110h6.3v2.9h-17.5V110h6.3V76.2c0-5.8-0.8-5.9-2-5.9h-4.2v-2.8h17.6v2.8h-6.4 V89H187V70.3h-6.5v-2.8h17.7v2.8h-6.3v33.8c0,5.8,0.8,5.9,2,5.9h4.2v2.9H180.7z"></path> <path class="st0" d="M208.5,96.6c-0.5,7.3,3.7,13.9,11.5,13.9c3.2-0.1,6.2-1.3,8.6-3.3l1.2,1.3c-2.6,3.2-6.5,5.1-10.6,5.1 c-10.3,0-15.3-8.1-15.3-16.1c0-8.2,5.7-16.3,14.6-16.3c6.4,0,10.9,4.3,10.9,10.1c-0.1,1.8-0.5,3.6-1.2,5.3L208.5,96.6z M225.3,90.8 c0-3.3-2.4-7.2-6.5-7.2c-6.2,0-9.2,6-9.9,10.5h15.7C225,93.1,225.3,92,225.3,90.8L225.3,90.8z"></path> <path class="st0" d="M259.1,113.7c-2.5,0.2-4.6-1.6-5-4l-0.3-1.5h-0.1c-2.1,3.3-5.7,5.4-9.6,5.6c-4.7,0-8.2-3.1-8.2-7.9 s4.8-11,17.7-11.3v-3.8c0-4.7-1.7-7.7-7-7.7c-0.8,2.6-2.7,5.3-5.1,5.3c-1.5,0-2.9-0.9-3.6-3.8c2.8-2.2,6.4-3.4,10-3.3 c7.1,0,9.9,4,9.9,10.5v13c0,4.8,0.3,6.1,1.9,6.1c1.2,0,2.4-0.2,3.5-0.6v2.4C261.9,113.3,260.5,113.6,259.1,113.7z M253.7,96.8 c-7.6-0.1-13.2,3.9-13.2,8.7c0,3.1,1.9,5,5.1,5c4,0,7-3.4,8.1-4.6V96.8z"></path> <path class="st0" d="M266.9,112.9v-2.4h5.5v-38c0-5.8-0.8-5.8-2.1-5.8h-3.7v-2.8l9.9-0.4v47.1h5.5v2.4L266.9,112.9z"></path> <path class="st0" d="M299.7,113.7c-4.4,0-8-2.2-8-8.5V84.5h-6.4v-2.7l6.4-0.5l1-9.1h3.1l0.1,9.7h9.5v2.7h-9.5v20.7 c0,4,2.1,5.3,5.4,5.3c1.9-0.1,3.9-0.5,5.6-1.3l0.8,2.2C305.2,112.8,302.5,113.6,299.7,113.7z"></path> <path class="st0" d="M333,112.9v-2.4h4.7V90.7c0-4.1-1.7-6.5-5.3-6.5c-2.8,0-4.2,1.5-5.2,2.3l-6.5,5.8v18.1h4.7v2.4H312v-2.4h4.5 v-38c0-5.8-0.8-5.8-2.1-5.8h-2.7v-2.8l8.9-0.4v25.5l5.3-4.6c1.9-1.9,4.4-2.9,7.1-2.9c4.6,0,8.7,2.5,8.7,8.3v20.9h4.7v2.4L333,112.9 z"></path> <polygon class="st1" points="63,4.5 43.9,8.4 63,12.9 "></polygon> <polygon class="st2" points="63,4.5 82.2,8.4 63,12.9 "></polygon> <path class="st1" d="M42.4,28.9v26.2L21.2,47V22.6l20.4-4.7l-19-5L2.5,17v60.9C2.4,83.4,5.3,88.5,10,91.2l11.2,6.2V68.6l21.2,9.7 v31L63,120.7V23.5L42.4,28.9z"></path> <path class="st0" d="M180.8,54.2v-3.4h5.2V33.6h-22v17.3h5.2v3.4h-19.8v-3.4h5.3V18.1c0-5.8-0.8-5.9-2.1-5.9h-3.2V8.8H169v3.4h-5 v17.5h22V12.2h-5V8.8h19.5v3.4h-5.3V45c0,5.8,0.8,5.9,2,5.9h3.2v3.4L180.8,54.2z"></path> <path class="st0" d="M233.7,55c-2.2,0-5.6-0.9-6.5-4l-0.7-2.5l-3.3,2.9c-3.4,3-5.5,3.6-8.9,3.6c-4.8,0-9.1-2.9-9.1-8.2V32.2 c0-5.8-0.8-5.8-2-5.8H201v-3.2l12.5-0.5v22.7c0,4.1,1.1,5.7,3.1,5.7c1.8,0,4.3-2.6,5.3-3.4l4.2-3.8V32.2c0-5.8-0.8-5.8-2.1-5.8 h-1.8v-3.2l12.2-0.5v22.9c0,4.8,0.3,6,2,6c0.8-0.1,1.6-0.3,2.3-0.5v3C237.1,54.6,235.4,54.9,233.7,55z"></path> <path class="st0" d="M262.1,54.2v-3h3.7V32.4c0-4.1-1.1-5.8-3.1-5.8c-1.6,0-3.8,2.3-5.3,3.6l-4.2,3.8v17.3h3.7v3h-15.9v-3h3.9v-19 c0-5.8-0.7-5.8-2-5.8h-2.2v-3.2l11.9-0.5l0.7,6.2l2.9-2.5c3.5-3,5.4-3.6,8.9-3.6c4.8,0,9.1,2.9,9.1,8.1v20.5h3.9v3L262.1,54.2z"></path> <path class="st0" d="M293.2,55c-4.8,0-9.6-2.4-9.6-8.5V26.4h-5.4v-3.2l5.9-0.5l1.1-9.1h6.8v9.7h8.5v3.2h-8.5v19.9 c0,3.4,1.9,4.6,4,4.6c2.1-0.2,4.1-0.9,5.9-2l1.3,3C300.1,53.7,296.7,54.8,293.2,55z"></path> <path class="st0" d="M304.1,54.2v-3h5v-19c0-5.8-0.8-5.8-2-5.8h-3.3v-3.2l13.6-0.5v28.6h5v3L304.1,54.2z M313,17.7 c-2.7,0.1-4.9-2-5-4.7c0.1-2.7,2.3-4.8,5-4.8c2.7-0.1,4.9,2.1,5,4.8c0,0,0,0,0,0C317.9,15.7,315.7,17.8,313,17.7 C313,17.7,313,17.7,313,17.7z"></path> <path class="st0" d="M345.4,54.2v-3h3.7V32.4c0-4.1-1.1-5.8-3.1-5.8c-1.6,0-3.8,2.3-5.3,3.6l-4.2,3.8v17.3h3.7v3h-15.9v-3h3.9v-19 c0-5.8-0.7-5.8-2-5.8H324v-3.2l11.9-0.5l0.7,6.2l2.8-2.5c3.5-3,5.4-3.6,8.9-3.6c4.8,0,9.1,2.9,9.1,8.1v20.5h3.9v3L345.4,54.2z"></path> <path class="st0" d="M378.8,69.7c-10.5,0-16.1-4.4-16.1-8.7c0-2.8,2.5-5.8,7.8-7c-2.7-1-4-2.8-4-4.8c0-2.4,1.9-4.8,5.3-5.3 c-4.8-2.3-7-6.4-7-10.1c0-5.7,5-11,14.1-11c2.2,0,4.3,0.4,6.3,1.2l10.1-0.7v2.9l-4.5,1c1.4,2,2.1,4.4,2,6.8 c0,5.8-5.3,11.3-13.8,11.3c-0.8,0-1.3-0.1-1.7-0.1c-2,0-3.1,0.9-3.1,2.1s1.1,2.3,2.8,2.6l10.9,1.7c7,1.1,9.9,4.8,9.9,8.3 C397.7,64.6,390.6,69.7,378.8,69.7z M384.8,56.7l-8.6-1.4c-4.4,0.9-5.9,3-5.9,5.2c0,3.2,3.9,5.9,8.9,5.9s10.1-1.5,10.1-5.8 C389.3,58.7,387.7,57.1,384.8,56.7L384.8,56.7z M379,25.7c-3,0-6,2.8-6,8.3s2.9,8,6,8s5.9-2.4,5.9-8S382,25.7,379,25.7z"></path> <path class="st0" d="M411.8,55c-4.8,0-9.6-2.4-9.6-8.5V26.4h-5.4v-3.2l5.9-0.5l1.1-9.1h6.8v9.7h8.5v3.2h-8.5v19.9 c0,3.4,1.9,4.6,4,4.6c2.1-0.2,4.1-0.9,5.9-2l1.3,3C418.7,53.7,415.3,54.8,411.8,55z"></path> <path class="st0" d="M437.1,55c-8.8,0-15.8-6.6-15.8-16.2c-0.3-8.6,6.5-15.9,15.2-16.2c0.2,0,0.5,0,0.7,0c7.4,0,15.7,5.4,15.7,16.2 C452.8,48.5,445.9,55,437.1,55z M437.1,25.5c-4.9,0-7.3,6.6-7.3,13.1c0,6.3,2.2,12.6,7.3,12.6s7.1-6.4,7.1-12.8 S441.8,25.5,437.1,25.5L437.1,25.5z"></path> <path class="st0" d="M477.7,54.2v-3h3.7V32.4c0-4.1-1.1-5.8-3.1-5.8c-1.6,0-3.8,2.3-5.3,3.6l-4.2,3.8v17.3h3.7v3h-15.9v-3h3.9v-19 c0-5.8-0.7-5.8-2-5.8h-2.2v-3.2l11.8-0.5l0.7,6.2l2.8-2.5c3.5-3,5.4-3.6,8.9-3.6c4.8,0,9.1,2.9,9.1,8.1v20.5h3.9v3L477.7,54.2z"></path> <path class="st2" d="M83.6,28.9v26.2l21.2-8.1V22.6l-20.4-4.7l19-5l20.1,4.2v60.9c0.1,5.5-2.7,10.6-7.4,13.3l-11.2,6.3V68.6 l-21.2,9.7v31L63,120.7V23.5L83.6,28.9z"></path> <path class="st0" d="M505.7,54.9c-3.3,0.1-6-2.5-6.1-5.7c-0.1-3.3,2.5-6,5.7-6.1c3.3-0.1,6,2.5,6.1,5.7c0,0.1,0,0.2,0,0.2 c0.1,3.2-2.4,5.8-5.6,5.9C505.8,54.9,505.7,54.9,505.7,54.9z M505.7,43.7c-2.9-0.1-5.4,2.1-5.5,5s2.1,5.4,5,5.5 c2.9,0.1,5.4-2.1,5.5-5c0-0.1,0-0.2,0-0.3c0.1-2.8-2-5.1-4.7-5.3C505.8,43.7,505.7,43.7,505.7,43.7z M506,49.3h-1.7v3.1h-0.7v-6.9 h2.7c1-0.1,2,0.6,2.1,1.6c0.1,1-0.6,2-1.6,2.1l1.7,3.2h-0.8L506,49.3z M504.2,46.2v2.5h1.9c0.8,0,1.5-0.4,1.5-1.3s-0.7-1.2-1.4-1.2 H504.2z"></path> <path class="st3" d="M691.7,52.1l-4.7,2.9c-1.5-2.4-4.2-3.8-7-3.8c-5,0-8.6,3.6-8.6,8.9c0,5.5,3.8,8.9,8.6,8.9 c2.9,0.1,5.5-1.4,7.1-3.7l4.4,3.2c-2.6,3.7-7,5.9-11.5,5.8c-8.4,0-14.3-5.9-14.3-14.1s5.9-14.1,14.3-14.1 C685,45.9,689.5,48.2,691.7,52.1"></path> <path class="st3" d="M712.3,64.2c0,0.6,0,1.1-0.1,1.7h-13.4c0.3,2.4,2.5,4.1,4.8,3.9c1.8,0,3.4-0.7,4.8-1.8l3,3.3 c-2.2,1.9-5.1,3-8,2.9c-5.8,0-9.8-3.9-9.8-9.9s3.9-10,9.5-10C708.6,54.3,712.4,58.3,712.3,64.2 M698.9,62.5h8.4 c-0.5-2.4-1.9-3.8-4.1-3.8C700.8,58.7,699.4,60.1,698.9,62.5"></path> <path class="st3" d="M729.5,56.8V45.7h5.1v28h-5v-2.1c-1.4,1.7-3.5,2.7-5.6,2.6c-5.2,0-9.1-4.3-9.1-9.9s3.9-9.9,9.1-9.9 C726.1,54.2,728.1,55.1,729.5,56.8 M720,64.3c0,2.9,1.9,5.2,4.9,5.2s4.9-2.2,4.9-5.2s-2-5.2-4.9-5.2S720,61.4,720,64.3"></path> <path class="st3" d="M757.5,73.7h-5v-2.1c-1.4,1.7-3.5,2.7-5.7,2.6c-5.2,0-9.1-4.3-9.1-9.9s3.9-9.9,9.1-9.9 c2.2-0.1,4.3,0.9,5.7,2.6v-2.1h5V73.7z M743,64.3c0,2.9,1.9,5.2,4.9,5.2s4.9-2.2,4.9-5.2s-2-5.2-4.9-5.2S743,61.4,743,64.3"></path> <path class="st3" d="M774.8,54.7l-0.8,5c-1-0.4-2-0.6-3.1-0.6c-2.4,0-4,1.4-4,4.2v10.3h-5.1V54.8h4.9v2.1c1.2-1.7,3.2-2.7,5.3-2.6 C773,54.3,773.9,54.4,774.8,54.7"></path> <path class="st3" d="M790.6,60.1c-1.9-0.9-3.9-1.4-6-1.5c-1.9,0-2.9,0.7-2.9,1.7s1.4,1.4,3.1,1.6l1.7,0.3c4.1,0.6,6.4,2.4,6.4,5.6 c0,3.9-3.2,6.4-8.7,6.4c-2.6,0-5.9-0.5-8.4-2.2l2-3.9c1.9,1.3,4.1,1.9,6.4,1.9c2.4,0,3.5-0.7,3.5-1.8c0-0.9-1-1.4-3.1-1.7l-1.5-0.2 c-4.4-0.6-6.5-2.5-6.5-5.7c0-3.9,3-6.2,8-6.2c2.7,0,5.4,0.6,7.9,1.8L790.6,60.1z"></path> <path class="st3" d="M704.9,88.3c-2.3-1.5-5-2.3-7.7-2.3c-3.1,0-5.2,1.2-5.2,3.3s2.4,2.6,5.6,3.2l1.5,0.2c4.9,0.8,8.7,2.9,8.7,7.6 c0,6-5.3,8.9-11.2,8.9c-4.1,0-8.6-1.2-11.5-3.6l2.8-4.4c2.5,1.9,5.5,2.9,8.7,2.9c3,0,5.4-1.2,5.4-3.3c0-1.9-2-2.6-5.8-3.2l-1.7-0.3 c-4.8-0.8-8.3-2.9-8.3-7.8c0-5.7,5.1-8.6,10.9-8.6c3.7-0.1,7.3,1,10.4,2.9L704.9,88.3z"></path> <path class="st3" d="M717.2,83.6c0,1.8-1.5,3.2-3.3,3.2c-1.8,0-3.2-1.5-3.2-3.3c0-1.8,1.5-3.2,3.2-3.2c1.8,0,3.2,1.4,3.3,3.1 C717.2,83.5,717.2,83.6,717.2,83.6"></path> <rect x="711.4" y="89.8" class="st3" width="5.1" height="18.9"></rect> <path class="st3" d="M738.7,96.6v12h-5.1V98.3c0-2.7-1.4-4.2-3.7-4.2s-4,1.4-4,4.3v10.3h-5.1V89.8h4.9V92c1.3-1.8,3.4-2.8,5.6-2.7 c3.9-0.2,7.1,2.8,7.3,6.6C738.7,96.2,738.7,96.4,738.7,96.6"></path> <path class="st3" d="M761.5,108.7h-5v-2.1c-1.4,1.7-3.5,2.6-5.7,2.6c-5.2,0-9.1-4.3-9.1-9.9s3.9-9.9,9.1-9.9 c2.2-0.1,4.3,0.9,5.7,2.6v-2.1h5V108.7z M746.9,99.2c0,2.9,1.9,5.2,4.9,5.2s4.9-2.2,4.9-5.2s-2-5.2-4.9-5.2S746.9,96.3,746.9,99.2"></path> <path class="st3" d="M771.6,83.6c0,1.8-1.5,3.2-3.3,3.2c-1.8,0-3.2-1.5-3.2-3.3c0-1.8,1.5-3.2,3.2-3.2c1.8,0,3.2,1.4,3.3,3.1 C771.6,83.5,771.6,83.6,771.6,83.6"></path> <rect x="765.8" y="89.8" class="st3" width="5.1" height="18.9"></rect> <path class="st4" d="M601.6,88c-8.2,0-14.9-6.6-14.9-14.8c0-8.2,6.6-14.9,14.8-14.9c4,0,7.7,1.6,10.5,4.4l3.1,3.1l-4.3,4.3 l-3.1-3.1c-3.4-3.4-8.9-3.4-12.3,0c-3.4,3.4-3.4,8.9,0,12.3c3.4,3.4,8.9,3.4,12.3,0c0,0,0,0,0,0l4.3,4.3 C609.3,86.4,605.5,88,601.6,88 M601.6,99.3c-14.4,0-26.1-11.7-26.1-26.1S587.2,47,601.6,47c6.9,0,13.5,2.7,18.4,7.6l3.1,3.1 l-4.3,4.3l-3.1-3.1c-7.8-7.8-20.5-7.8-28.3,0s-7.8,20.5,0,28.3s20.5,7.8,28.3,0c0,0,0,0,0,0l5.7-5.7l4.3,4.3l-5.7,5.7 C615.1,96.5,608.5,99.3,601.6,99.3 M635,103.7c-3.9,0-7.7-1.6-10.5-4.3l-3.1-3.1l4.3-4.4l3.1,3.1c3.4,3.4,8.9,3.4,12.3,0 c3.4-3.4,3.4-8.9,0-12.3c-3.4-3.4-8.9-3.4-12.3,0c0,0,0,0,0,0l-4.3-4.4c5.8-5.8,15.2-5.8,21,0c5.8,5.8,5.8,15.2,0,21 C642.7,102.2,639,103.7,635,103.7 M635,115c-6.9,0-13.6-2.7-18.5-7.6l-3.1-3.1l4.3-4.3l3.1,3.1c7.8,7.8,20.5,7.8,28.3,0 s7.8-20.5,0-28.3c-7.8-7.8-20.5-7.8-28.3,0c0,0,0,0,0,0l-5.7,5.7l-4.3-4.3l5.7-5.7c10.2-10.2,26.7-10.2,36.9,0s10.2,26.7,0,36.9 C648.5,112.2,641.9,115,635,115"></path> <path class="st5" d="M773.3,16.8h-5v-2.1c0-0.7,0.2-1.4,0.5-2c0.4-0.5,1.1-0.8,1.8-0.7c0.5,0,0.9,0.1,1.4,0.2 c0.4,0.1,0.8,0.3,1.2,0.5L774,11c-1-0.6-2.2-1-3.4-0.9c-0.7,0-1.3,0.1-1.9,0.3c-0.5,0.2-1,0.6-1.3,1c-0.3,0.4-0.6,0.9-0.7,1.4 c-0.2,0.6-0.2,1.2-0.2,1.8v2.1h-2.9v1.8h2.9v10.7h2V18.6h5L773.3,16.8z M756.7,18.7c1.1,0.4,2,1.3,2.4,2.4c0.5,1.2,0.5,2.5,0,3.7 c-0.2,0.5-0.6,1-1,1.5c-0.4,0.4-0.9,0.8-1.5,1c-1.2,0.5-2.5,0.5-3.6,0c-0.5-0.2-1-0.6-1.5-1c-0.4-0.4-0.8-0.9-1-1.5 c-0.5-1.2-0.5-2.5,0-3.7c0.2-0.6,0.6-1.1,1-1.5c0.4-0.4,0.9-0.8,1.5-1C754.2,18.2,755.5,18.2,756.7,18.7 M752.3,17 c-0.8,0.3-1.5,0.8-2.1,1.4c-0.6,0.6-1.1,1.3-1.4,2c-0.7,1.6-0.7,3.5,0,5.1c0.3,0.8,0.8,1.5,1.4,2.1c0.6,0.6,1.3,1,2.1,1.4 c1.7,0.7,3.6,0.7,5.3,0c0.8-0.3,1.5-0.8,2.1-1.4c0.6-0.6,1-1.2,1.4-2c0.7-1.6,0.7-3.5,0-5.1c-0.6-1.6-1.9-2.8-3.5-3.4 C755.8,16.3,754,16.3,752.3,17 M734,18.6c0.4,0.2,0.9,0.4,1.2,0.8c0.3,0.3,0.6,0.8,0.8,1.2c0.2,0.5,0.4,1,0.4,1.6h-8.1 c0.1-0.5,0.2-1.1,0.5-1.5c0.2-0.4,0.5-0.9,0.9-1.2c0.4-0.3,0.8-0.6,1.2-0.8c0.5-0.2,1-0.3,1.6-0.3C733,18.3,733.5,18.4,734,18.6 M730,17c-1.5,0.6-2.7,1.8-3.3,3.4c-0.6,1.7-0.6,3.6,0,5.2c0.3,0.7,0.7,1.4,1.3,2c0.6,0.6,1.2,1,2,1.3c0.8,0.3,1.7,0.5,2.6,0.5 c0.5,0,0.9,0,1.4-0.1c0.5-0.1,0.9-0.2,1.3-0.3c0.4-0.2,0.9-0.4,1.3-0.6c0.4-0.3,0.8-0.6,1.2-0.9l-1.1-1.3c-0.5,0.5-1.1,0.9-1.8,1.2 c-0.7,0.3-1.4,0.4-2.2,0.4c-0.5,0-1.1-0.1-1.6-0.3c-0.5-0.2-1-0.4-1.4-0.8c-0.4-0.4-0.8-0.8-1-1.3c-0.3-0.6-0.4-1.2-0.5-1.8h10.2 c0-0.2,0-0.5,0-0.7c0-0.9-0.2-1.8-0.5-2.6c-0.3-0.7-0.7-1.4-1.2-2c-0.5-0.6-1.1-1-1.8-1.3c-0.7-0.3-1.5-0.5-2.4-0.5 C731.7,16.5,730.8,16.7,730,17 M723.8,16.8h-5.4v-4h-2v4h-2.8v1.8h2.8v6.3c0,0.7,0.1,1.4,0.3,2c0.2,0.5,0.5,1,0.8,1.4 c0.4,0.4,0.8,0.7,1.4,0.8c0.6,0.2,1.2,0.3,1.8,0.3c0.7,0,1.4-0.1,2.1-0.3c0.6-0.2,1.1-0.5,1.6-0.9l-0.9-1.5 c-0.4,0.3-0.8,0.5-1.2,0.6c-0.5,0.2-0.9,0.2-1.4,0.2c-0.3,0-0.7-0.1-1-0.2c-0.3-0.1-0.6-0.3-0.8-0.5c-0.2-0.2-0.4-0.5-0.5-0.9 c-0.1-0.4-0.2-0.8-0.2-1.2v-6.2h5.4L723.8,16.8z M706,18.7c1.1,0.5,1.9,1.3,2.3,2.4c0.2,0.6,0.3,1.2,0.3,1.8c0,0.6-0.1,1.3-0.3,1.8 c-0.2,0.5-0.5,1-0.9,1.5c-0.4,0.4-0.9,0.8-1.4,1c-0.6,0.2-1.2,0.4-1.8,0.4c-0.6,0-1.2-0.1-1.8-0.4c-0.5-0.2-1-0.6-1.4-1 c-0.4-0.4-0.7-0.9-0.9-1.5c-0.2-0.6-0.3-1.2-0.3-1.8c0-0.6,0.1-1.2,0.3-1.8c0.2-0.5,0.5-1,0.9-1.5c0.4-0.4,0.9-0.8,1.4-1 C703.5,18.3,704.8,18.3,706,18.7 M710.6,16.8h-2v1.8c-0.5-0.6-1.2-1.2-1.9-1.5c-0.8-0.4-1.8-0.6-2.7-0.6c-1.7,0-3.3,0.6-4.5,1.8 c-0.6,0.6-1,1.3-1.3,2.1c-0.6,1.7-0.6,3.5,0,5.2c0.3,0.7,0.8,1.4,1.3,2c0.6,0.6,1.2,1,2,1.3c0.8,0.3,1.6,0.5,2.5,0.5 c0.9,0,1.9-0.2,2.7-0.6c0.7-0.4,1.4-0.9,1.9-1.5v1.8h2V16.8z M692,11.4c-0.3,0.3-0.4,0.6-0.4,1c0,0.4,0.1,0.7,0.4,1 c0.3,0.3,0.6,0.4,1,0.4c0.2,0,0.4,0,0.5-0.1c0.2-0.1,0.3-0.2,0.4-0.3c0.1-0.1,0.2-0.3,0.3-0.4c0.1-0.2,0.1-0.4,0.1-0.6 c0-0.2,0-0.4-0.1-0.5c-0.1-0.2-0.2-0.3-0.3-0.4c-0.1-0.1-0.3-0.2-0.4-0.3c-0.2-0.1-0.4-0.1-0.5-0.1C692.6,11,692.3,11.1,692,11.4 M694,16.8h-2v12.4h2V16.8z M687.4,10.3h-2v18.9h2V10.3z M678.7,11.4c-0.3,0.3-0.4,0.6-0.4,1c0,0.4,0.1,0.7,0.4,1 c0.3,0.3,0.6,0.4,1,0.4c0.2,0,0.4,0,0.5-0.1c0.2-0.1,0.3-0.2,0.5-0.3c0.1-0.1,0.2-0.3,0.3-0.4c0.1-0.2,0.1-0.4,0.1-0.6 c0-0.2,0-0.4-0.1-0.5c-0.1-0.3-0.4-0.6-0.7-0.7c-0.2-0.1-0.4-0.1-0.5-0.1C679.3,11,679,11.2,678.7,11.4 M680.7,16.8h-2v12.4h2V16.8 z M675.5,16.8h-5v-2.1c0-0.7,0.2-1.4,0.5-2c0.4-0.5,1.1-0.8,1.8-0.7c0.5,0,1,0.1,1.4,0.2c0.4,0.1,0.8,0.3,1.2,0.5l0.7-1.6 c-0.5-0.3-1-0.5-1.5-0.7c-0.6-0.2-1.3-0.3-1.9-0.3c-0.7,0-1.3,0.1-1.9,0.3c-0.5,0.2-1,0.6-1.3,1c-0.3,0.4-0.6,0.9-0.7,1.4 c-0.2,0.6-0.2,1.2-0.2,1.8v2h-2.9v1.8h2.9v10.7h2V18.6h5L675.5,16.8z M664,16.8h-5v-2.1c0-0.7,0.2-1.4,0.5-2 c0.4-0.5,1.1-0.8,1.8-0.7c0.5,0,0.9,0.1,1.4,0.2c0.4,0.1,0.8,0.3,1.2,0.5l0.7-1.7c-0.5-0.3-1-0.5-1.5-0.7c-0.6-0.2-1.3-0.3-1.9-0.3 c-0.7,0-1.3,0.1-1.9,0.3c-0.5,0.2-1,0.6-1.3,1c-0.3,0.4-0.6,0.9-0.7,1.4c-0.2,0.6-0.2,1.2-0.2,1.8v2.1h-2.9v1.8h2.9v10.7h2V18.6h5 L664,16.8z M644.2,13l3.8,9.2h-7.5L644.2,13z M645.6,10.9H643l-7.6,18.4h2.2l2.1-5.1h9.2l2.1,5.1h2.3L645.6,10.9z M619.5,16.7 c-0.4,0.1-0.8,0.2-1.1,0.3c-0.4,0.2-0.7,0.4-1,0.6c-0.3,0.3-0.6,0.6-0.9,0.9v-1.8h-2v12.4h2v-7c0-0.5,0.1-1.1,0.3-1.6 c0.2-0.5,0.5-0.9,0.8-1.2c0.4-0.3,0.8-0.6,1.2-0.8c0.5-0.2,1-0.3,1.5-0.3c1-0.1,2,0.3,2.7,1c0.7,0.8,1,1.8,0.9,2.8v7.1h2v-7.7 c0-0.7-0.1-1.4-0.4-2c-0.2-0.6-0.6-1.1-1.1-1.6c-0.5-0.4-1-0.8-1.7-1c-0.7-0.2-1.4-0.4-2.1-0.4C620.3,16.6,619.9,16.6,619.5,16.7 M602.7,13l3.8,9.2H599L602.7,13z M604.1,10.9h-2.6l-7.6,18.4h2.2l2.1-5.1h9.2l2.1,5.1h2.3L604.1,10.9z"></path> <rect x="535.5" y="4.5" class="st3" width="1.6" height="116.2"></rect> </g> </svg> 