<?xml version="1.0" encoding="utf-8"?>
<!-- Generator: Adobe Illustrator 24.1.0, SVG Export Plug-In . SVG Version: 6.00 Build 0)  -->
<svg version="1.1" id="Layer_1" xmlns="http://www.w3.org/2000/svg" xmlns:xlink="http://www.w3.org/1999/xlink" x="0px" y="0px"
	 viewBox="0 0 675.4 162" style="enable-background:new 0 0 675.4 162;" xml:space="preserve">
<style type="text/css">
	.st0{fill:#0071CE;}
	.st1{fill:#00B2E3;}
	.st2{fill:#004A98;}
	.st3{fill:#616366;}
	.st4{fill:#FFFFFF;}
</style>
<g>
	<g>
		<g>
			<g>
				<g>
					<g>
						<g>
							<rect x="46.3" y="23.1" class="st0" width="69.4" height="23.1"/>
							<rect x="69.4" class="st1" width="23.1" height="69.4"/>
							<rect x="69.4" y="92.6" class="st1" width="23.1" height="69.4"/>
							<rect x="124.6" y="69.4" class="st1" width="37.4" height="23.1"/>
							<rect y="69.4" class="st1" width="38" height="23.1"/>
							<rect x="23.1" y="46.3" class="st0" width="23.1" height="69.4"/>
							<rect x="115.7" y="46.3" class="st0" width="23.1" height="69.4"/>
							<rect x="23.1" y="69.4" class="st2" width="23.1" height="23.1"/>
							<rect x="115.7" y="69.4" class="st2" width="23.1" height="23.1"/>
							<rect x="46.3" y="115.7" class="st0" width="69.4" height="23.1"/>
							<rect x="69.4" y="115.7" class="st2" width="23.1" height="23.1"/>
							<rect x="69.4" y="23.1" class="st2" width="23.1" height="23.1"/>
						</g>
					</g>
				</g>
			</g>
		</g>
		<g>
			<g>
				<g>
					<path class="st3" d="M559.1,103.1c-2.3-3-5.8-4.6-10.1-4.6c-3,0-5.7,0.9-7.7,2.4c-2.4,1.8-3.6,4.1-3.6,6.9c0,2.9,1.2,5.2,3.5,7
						c1.9,1.5,4.7,2.3,7.7,2.3c4.4,0,7.4-1.2,10-4.2l-2.5-1.4c-1.9,2-4.2,2.9-7.3,2.9c-5.2,0-8.4-2.7-8.4-6.6c0-3.8,3.3-6.6,8.2-6.6
						c3.2,0,5.6,0.9,7.5,2.8L559.1,103.1z"/>
					<polygon class="st3" points="582.4,116.7 582.4,114 566.9,114 566.9,108.9 577.2,108.9 577.2,106.2 566.9,106.2 566.9,101.8 
						581.7,101.8 581.7,99.1 564,99.1 564,116.7 					"/>
					<polygon class="st3" points="606.7,116.7 606.7,99.1 603.7,99.1 603.7,113.5 590.4,99.1 586.7,99.1 586.7,116.7 589.6,116.7 
						589.6,102.3 603.1,116.7 					"/>
					<polygon class="st3" points="629.4,101.8 629.4,99.1 609.7,99.1 609.7,101.8 618.1,101.8 618.1,116.7 621,116.7 621,101.8 
											"/>
					<polygon class="st3" points="650.8,116.7 650.8,114 635.3,114 635.3,108.9 645.6,108.9 645.6,106.2 635.3,106.2 635.3,101.8 
						650.1,101.8 650.1,99.1 632.4,99.1 632.4,116.7 					"/>
					<path class="st3" d="M675,116.7l-4.7-6.8c2.6-0.4,4.6-2.1,4.6-5.2c0-3.4-2.2-5.5-5.9-5.5h-13.8v17.5h2.9V110h8.9l4.7,6.7H675z
						 M668.6,107.3h-10.5v-5.6h10.2c2.4,0,3.6,0.9,3.6,2.9C671.9,106.4,670.7,107.3,668.6,107.3z"/>
				</g>
				<path class="st3" d="M211.6,116.7l-4.7-6.8c2.6-0.4,4.6-2.1,4.6-5.2c0-3.4-2.2-5.5-5.9-5.5h-13.8v17.5h2.9V110h8.9l4.7,6.7
					H211.6z M205.1,107.3h-10.5v-5.6h10.2c2.4,0,3.6,0.9,3.6,2.9C208.5,106.4,207.3,107.3,205.1,107.3z"/>
				<polygon class="st3" points="234.5,116.7 234.5,114 219,114 219,108.9 229.3,108.9 229.3,106.2 219,106.2 219,101.8 
					233.8,101.8 233.8,99.1 216.1,99.1 216.1,116.7 				"/>
				<path class="st3" d="M259.2,107.6v-0.3h-11.8v2.6h8.2c-1.1,2.9-3.8,4.5-7.6,4.5c-5,0-8.2-2.7-8.2-6.6c0-2,0.9-3.7,2.6-5
					c1.4-1,3.4-1.6,5.6-1.6c3,0,5.3,1,7,2.9l2.7-1.4c-2.5-2.9-5.6-4.2-9.5-4.2c-3.2,0-5.9,0.8-7.9,2.4c-2.4,1.8-3.6,4.1-3.6,6.9
					c0,2.9,1.2,5.2,3.5,7c1.9,1.5,4.7,2.4,7.7,2.4C254.7,117.2,259.2,113.3,259.2,107.6z"/>
				<rect x="264.1" y="99.1" class="st3" width="2.9" height="17.5"/>
				<path class="st3" d="M294.1,107.9c0-2.8-1.2-5.1-3.6-6.9c-1.9-1.5-4.7-2.4-7.7-2.4c-3,0-5.7,0.9-7.7,2.4
					c-2.4,1.8-3.6,4.1-3.6,6.9c0,2.9,1.2,5.2,3.5,7c1.9,1.5,4.7,2.4,7.8,2.4c3.1,0,5.8-0.9,7.7-2.3
					C292.9,113.1,294.1,110.7,294.1,107.9z M291.1,107.9c0,3.9-3.2,6.6-8.2,6.6c-5,0-8.3-2.7-8.3-6.6c0-3.8,3.4-6.6,8.3-6.6
					c2.2,0,4.2,0.6,5.6,1.6C290.2,104.2,291.1,105.8,291.1,107.9z"/>
				<polygon class="st3" points="318.9,116.7 318.9,99.1 316,99.1 316,113.5 302.6,99.1 299,99.1 299,116.7 301.9,116.7 
					301.9,102.3 315.4,116.7 				"/>
				<path class="st3" d="M344.4,116.7l-9.3-17.5h-3.7l-9.3,17.5h3.2l2-3.9h11.8l2,3.9H344.4z M337.8,110.1h-8.9l4.5-8.5L337.8,110.1
					z"/>
				<polygon class="st3" points="364,116.7 364,114 350.4,114 350.4,99.1 347.5,99.1 347.5,116.7 				"/>
				<g>
					<polygon class="st3" points="401.2,116.7 401.2,99.1 397.6,99.1 389.1,109.7 380.7,99.1 377.1,99.1 377.1,116.7 380,116.7 
						380,102.3 380.1,102.3 389.1,113.8 398.2,102.3 398.3,102.3 398.3,116.7 					"/>
					<polygon class="st3" points="425.4,116.7 425.4,114 409.9,114 409.9,108.9 420.2,108.9 420.2,106.2 409.9,106.2 409.9,101.8 
						424.7,101.8 424.7,99.1 407,99.1 407,116.7 					"/>
					<path class="st3" d="M440.9,99.1h-11.1v17.5h11.7c2.5,0,4.8-0.8,6.5-2.3c1.9-1.6,2.8-3.8,2.8-6.2
						C450.8,102.7,447,99.1,440.9,99.1z M441.7,114h-9v-12.3h8.4c3.9,0,6.5,2.5,6.5,6.3C447.7,111.5,445.2,114,441.7,114z"/>
					<rect x="455.6" y="99.1" class="st3" width="2.9" height="17.5"/>
					<path class="st3" d="M484.8,103.1c-2.3-3-5.8-4.6-10.1-4.6c-3,0-5.7,0.9-7.7,2.4c-2.4,1.8-3.6,4.1-3.6,6.9c0,2.9,1.2,5.2,3.5,7
						c1.9,1.5,4.7,2.3,7.7,2.3c4.4,0,7.4-1.2,10-4.2l-2.5-1.4c-1.9,2-4.2,2.9-7.3,2.9c-5.2,0-8.4-2.7-8.4-6.6c0-3.8,3.3-6.6,8.2-6.6
						c3.2,0,5.6,0.9,7.5,2.8L484.8,103.1z"/>
					<path class="st3" d="M508.8,116.7l-9.3-17.5h-3.7l-9.3,17.5h3.2l2-3.9h11.8l2,3.9H508.8z M502.1,110.1h-8.9l4.5-8.5
						L502.1,110.1z"/>
					<polygon class="st3" points="528.3,116.7 528.3,114 514.8,114 514.8,99.1 511.8,99.1 511.8,116.7 					"/>
				</g>
			</g>
			<g>
				<polygon class="st2" points="234.9,81.7 234.9,46 226.2,46 226.2,59 200.4,59 200.4,46 191.7,46 191.7,81.7 200.4,81.7 
					200.4,66.3 226.2,66.3 226.2,81.7 				"/>
				<path class="st2" d="M289,69.6V45.9h-8.7v22.5c0,4.3-4.7,7.4-12.9,7.4c-8.2,0-12.9-3-12.9-7.4V45.9h-8.7v23.7
					c0,7.6,8.2,13.1,21.6,13.1C280.8,82.7,289,77.2,289,69.6z"/>
				<polygon class="st2" points="338.4,52.8 338.4,45.9 295.6,45.9 295.6,52.8 312.7,52.8 312.7,81.7 321.4,81.7 321.4,52.8 				"/>
				<path class="st2" d="M387.9,55.4c-5.8-7.2-13.2-10.6-22.8-10.6c-7.2,0-13.6,2.2-18.1,5.9c-4,3.4-6.2,7.9-6.2,13
					c0,6,3.1,11.4,7.9,14.4c5.1,3.2,10.5,4.6,16.8,4.6c9.3,0,16.1-2.9,22-9.6l-7.4-4c-4.2,4.5-9,6.7-15,6.7c-9.5,0-15.6-5-15.6-12.1
					c0-6.9,6-12,14.9-12c6.4,0,11.6,2.5,15.6,6.5L387.9,55.4z"/>
				<polygon class="st2" points="440,81.7 440,46 431.3,46 431.3,59 405.5,59 405.5,46 396.8,46 396.8,81.7 405.5,81.7 405.5,66.3 
					431.3,66.3 431.3,81.7 				"/>
				<rect x="451.5" y="45.9" class="st2" width="8.7" height="35.8"/>
				<polygon class="st2" points="514.4,81.7 514.4,45.9 505.7,45.9 505.7,71.5 505.5,71.5 481.3,45.9 471.2,45.9 471.2,81.7 
					479.9,81.7 479.9,56.1 480,56.1 504.3,81.7 				"/>
				<path class="st2" d="M560.8,56l4.9-5.7c-5.2-3.5-12.3-5.2-21-5.2c-12.9,0-20,4.4-20,11.5c0,7.2,6.9,9.9,20.8,10.5
					c7.6,0.3,12.3,0.3,12.3,3.5c0,2.9-4.1,5-11.3,5c-6.7,0-12.7-1.8-18.9-5.5l-4.7,5.8c6.9,4.7,14.3,6.7,23.2,6.7
					c13.6,0,20.9-4.6,20.9-12.3c0-7-5.4-9.7-16.6-10.8c-5.5-0.5-10.1-0.2-13.5-1.1c-2.1-0.5-3.1-1.3-3.1-2.6c0-2.3,3.9-3.8,11.3-3.8
					C550.7,52,555.8,53.3,560.8,56z"/>
				<path class="st2" d="M622.2,63.7c0-5.2-2.1-9.6-6.2-13c-4.5-3.7-11-5.9-18.1-5.9c-7.1,0-13.6,2.2-18.1,5.9
					c-4.1,3.4-6.2,7.8-6.2,13c0,5.2,2.1,9.7,6.1,13.1c4.4,3.7,10.9,5.9,18.1,5.9c7.3,0,13.7-2.2,18.2-5.9
					C620.1,73.5,622.2,69,622.2,63.7z M613.3,63.7c0,7.2-5.9,12.1-15.4,12.1c-9.4,0-15.3-4.8-15.3-12.1c0-7.1,6-12,15.4-12
					C607.3,51.7,613.3,56.7,613.3,63.7z"/>
				<polygon class="st2" points="675.1,81.7 675.1,45.9 666.5,45.9 666.5,71.5 666.3,71.5 642,45.9 631.9,45.9 631.9,81.7 
					640.6,81.7 640.6,56.1 640.7,56.1 665,81.7 				"/>
			</g>
		</g>
	</g>
	<polygon class="st4" points="46.3,46.3 69.4,46.3 69.4,69.4 92.6,69.4 92.6,46.3 115.7,46.3 115.7,115.7 92.6,115.7 92.6,92.6 
		69.4,92.6 69.4,115.7 46.3,115.7 	"/>
</g>
</svg>
