<svg width="214" height="88" viewBox="0 0 214 88" xmlns="http://www.w3.org/2000/svg"><defs><linearGradient x1="5.46%" y1="51.54%" x2="313.16%" y2="51.54%" id="a"><stop stop-color="#FFF" offset="0%"/><stop stop-color="#A4A4A4" offset="100%"/></linearGradient><linearGradient x1="52.61%" y1="59.91%" x2="19.2%" y2="-52.15%" id="b"><stop stop-color="#CCC" offset="0%"/><stop stop-color="gray" offset="100%"/></linearGradient><linearGradient x1="7.72%" y1="136.61%" x2="114.31%" y2="-80.49%" id="c"><stop stop-color="#CCC" offset="0%"/><stop stop-color="gray" offset="100%"/></linearGradient><linearGradient x1="50.07%" y1="-21.01%" x2="50.07%" y2="144.58%" id="d"><stop stop-color="#FFF" offset="0%"/><stop stop-color="#A4A4A4" offset="100%"/></linearGradient><linearGradient x1="50.96%" y1="383.65%" x2="50.96%" y2="140.73%" id="e"><stop stop-color="#FFF" offset="0%"/><stop stop-color="#A4A4A4" offset="100%"/></linearGradient><linearGradient x1="3.67%" y1="51.36%" x2="235.26%" y2="51.36%" id="f"><stop stop-color="#FFF" offset="0%"/><stop stop-color="#A4A4A4" offset="100%"/></linearGradient><linearGradient x1="53.01%" y1="59.55%" x2="19.6%" y2="-52.5%" id="g"><stop stop-color="#CCC" offset="0%"/><stop stop-color="gray" offset="100%"/></linearGradient><linearGradient x1="6.94%" y1="136.25%" x2="113.53%" y2="-80.85%" id="h"><stop stop-color="#CCC" offset="0%"/><stop stop-color="gray" offset="100%"/></linearGradient><linearGradient x1="50.11%" y1="96.27%" x2="50.11%" y2="-178.24%" id="i"><stop stop-color="#FFF" offset="0%"/><stop stop-color="#A4A4A4" offset="100%"/></linearGradient><linearGradient x1="119.77%" y1="310.09%" x2="46.32%" y2="14.63%" id="j"><stop stop-color="#FFF" offset="0%"/><stop stop-color="#A4A4A4" offset="100%"/></linearGradient><linearGradient x1="10.03%" y1="51.36%" x2="227.71%" y2="51.36%" id="k"><stop stop-color="#FFF" offset="0%"/><stop stop-color="#A4A4A4" offset="100%"/></linearGradient><linearGradient x1="53%" y1="59.55%" x2="19.6%" y2="-52.5%" id="l"><stop stop-color="#CCC" offset="0%"/><stop stop-color="gray" offset="100%"/></linearGradient><linearGradient x1="6.93%" y1="136.25%" x2="113.53%" y2="-80.85%" id="m"><stop stop-color="#CCC" offset="0%"/><stop stop-color="gray" offset="100%"/></linearGradient><linearGradient x1="50.1%" y1="96.19%" x2="50.1%" y2="-183.82%" id="n"><stop stop-color="#FFF" offset="0%"/><stop stop-color="#A4A4A4" offset="100%"/></linearGradient><linearGradient x1="48.96%" y1="245.51%" x2="48.96%" y2="2.64%" id="o"><stop stop-color="#FFF" offset="0%"/><stop stop-color="#A4A4A4" offset="100%"/></linearGradient><linearGradient x1="39.61%" y1="2.29%" x2="91.26%" y2="225.37%" id="p"><stop stop-color="#F2F2F2" offset="0%"/><stop stop-color="#A4A4A4" offset="100%"/></linearGradient><linearGradient x1="49.73%" y1="127.78%" x2="49.73%" y2="-.68%" id="q"><stop stop-color="#CCC" offset="0%"/><stop stop-color="gray" offset="100%"/></linearGradient><linearGradient x1="170.3%" y1="132.61%" x2="21.1%" y2="30.32%" id="r"><stop stop-color="#CCC" offset="0%"/><stop stop-color="gray" offset="100%"/></linearGradient><linearGradient x1="82.88%" y1="19.72%" x2="-30.4%" y2="228.76%" id="s"><stop stop-color="#F2F2F2" offset="0%"/><stop stop-color="#A4A4A4" offset="100%"/></linearGradient><linearGradient x1="121.56%" y1="41.15%" x2="9.43%" y2="52.96%" id="t"><stop stop-color="#CCC" offset="0%"/><stop stop-color="gray" offset="100%"/></linearGradient><linearGradient x1=".53%" y1=".3%" x2="318.94%" y2="330.51%" id="u"><stop stop-color="#FFF" offset="0%"/><stop stop-color="#A4A4A4" offset="100%"/></linearGradient><linearGradient x1="46.41%" y1="59.06%" x2="79.82%" y2="-52.99%" id="v"><stop stop-color="#CCC" offset="0%"/><stop stop-color="gray" offset="100%"/></linearGradient><linearGradient x1="91.91%" y1="135.77%" x2="-14.7%" y2="-81.34%" id="w"><stop stop-color="#CCC" offset="0%"/><stop stop-color="gray" offset="100%"/></linearGradient><linearGradient x1="50.88%" y1="-21.46%" x2="50.88%" y2="144.13%" id="x"><stop stop-color="#CCC" offset="0%"/><stop stop-color="gray" offset="100%"/></linearGradient><linearGradient x1="4.79%" y1="97.86%" x2="170.53%" y2="-168.91%" id="y"><stop stop-color="#FFF" offset="0%"/><stop stop-color="#A4A4A4" offset="100%"/></linearGradient><linearGradient x1="134.44%" y1="161.24%" x2="15.92%" y2="8.35%" id="z"><stop stop-color="#CCC" offset="0%"/><stop stop-color="gray" offset="100%"/></linearGradient><linearGradient x1="11.41%" y1="11.33%" x2="268.02%" y2="226.93%" id="A"><stop stop-color="#F2F2F2" offset="0%"/><stop stop-color="#A4A4A4" offset="100%"/></linearGradient><linearGradient x1="194.01%" y1="124.68%" x2="142.29%" y2="103.43%" id="B"><stop stop-color="#F2F2F2" offset="0%"/><stop stop-color="#A4A4A4" offset="100%"/></linearGradient><linearGradient x1="-30.2%" y1="-35.78%" x2="264.79%" y2="247.13%" id="C"><stop stop-color="#F2F2F2" offset="0%"/><stop stop-color="#A4A4A4" offset="100%"/></linearGradient><linearGradient x1="49.76%" y1="127.78%" x2="49.76%" y2="-.68%" id="D"><stop stop-color="#CCC" offset="0%"/><stop stop-color="gray" offset="100%"/></linearGradient><linearGradient x1="-19.6%" y1="9.33%" x2="423.62%" y2="269.71%" id="E"><stop stop-color="#F2F2F2" offset="0%"/><stop stop-color="#A4A4A4" offset="100%"/></linearGradient><linearGradient x1="96.84%" y1="101.72%" x2="-17.69%" y2="5.07%" id="F"><stop stop-color="#CCC" offset="0%"/><stop stop-color="gray" offset="100%"/></linearGradient><linearGradient x1="161.83%" y1="589.22%" x2="-46.27%" y2="-380.49%" id="G"><stop stop-color="#F2F2F2" offset="0%"/><stop stop-color="#A4A4A4" offset="100%"/></linearGradient><linearGradient x1="87.21%" y1="51.55%" x2="-219.63%" y2="43.22%" id="H"><stop stop-color="#F2F2F2" offset="0%"/><stop stop-color="#A4A4A4" offset="100%"/></linearGradient><linearGradient x1="95.29%" y1="133.93%" x2="-3.54%" y2="-73.33%" id="I"><stop stop-color="#CCC" offset="0%"/><stop stop-color="gray" offset="100%"/></linearGradient></defs><g fill="none"><path fill="#000" d="M82.52.57h48.35v54.98H82.52z"/><path fill="#FFF" d="M83.16 1.2h47.07v53.72H83.16z"/><path fill="#000" d="M84.77 2.8h43.84v50.53H84.77z"/><path d="M94.12 45.05l-.06-.25-2.58.06.06.26c.71 0 .84.19.84 1.33l.07.58-2.52.06v-.64c0-1.14.13-1.33.9-1.4l-.06-.25-2.64.06.06.26c.71 0 .84.19.84 1.33v1.91c0 1.15-.13 1.34-.9 1.4l.06.25 2.58-.06-.06-.25c-.71 0-.84-.2-.84-1.34l-.06-.83 2.51-.06v.89c0 1.14-.13 1.33-.9 1.4l.06.25h2.58L94 49.7c-.71 0-.84-.19-.84-1.33v-1.91c.07-1.2.26-1.34.97-1.4zm5.42 3.5l-.07.26c-.13.57-.26.76-1.29.76h-.13c-.7 0-.84-.19-.84-1.33l-.06-.64h.06c1.1 0 1.16.13 1.23.96l.26-.07-.07-2.35-.26.06c0 .77-.06.9-1.16.9l-.06.06-.07-1.72h.78c.96 0 1.16.2 1.28.76l.07.26.26-.06-.13-1.47-4 .07.07.25c.7 0 .83.2.83 1.34v1.9c0 1.15-.13 1.34-.9 1.4l.07.26h4.25l.06-1.4v-.13l-.19-.06zm6 .13l-1.68-4.07h-.2L102 48.68c-.39.9-.45 1.02-1.16 1.02l.06.26 2.2-.07-.07-.25c-.39 0-.65-.06-.71-.13-.07-.13 0-.32.13-.7l.2-.5h1.8l.19.57c.13.38.2.57.13.7-.07.12-.26.19-.71.19l.06.25h2.58l-.06-.32c-.58 0-.71-.12-1.1-1.01zm-2.72-.83l.71-1.71.52 1.2.2.51-1.04.07h-.38v-.07zm9.22.7l-.06.26c-.13.57-.26.76-1.29.76h-.39c-.7 0-.83-.19-.83-1.33v-1.78c0-1.15.12-1.34.9-1.4l-.07-.26-2.64.07.06.25c.71 0 .84.2.84 1.34v1.9c0 1.15-.13 1.34-.9 1.4l.06.26h4.52l.06-1.4v-.13l-.26.07zm.97-3.75l-.06 1.4v.13h.26l.06-.26c.13-.57.2-.76 1.22-.76l.58-.06v3.05c0 1.15-.12 1.34-.9 1.4l.07.25h2.64l-.06-.31c-.71 0-.84-.2-.84-1.34l-.07-3h.65c1.03 0 1.1.2 1.22.77l.07.26.25-.07-.12-1.52-4.97.06zm11.48 3.56v-1.9c0-1.21.2-1.34.9-1.4l-.06-.26-2.58.06.06.26c.71 0 .84.19.84 1.33l.06.58-2.51.06v-.64c0-1.14.13-1.33.9-1.4l-.06-.25-2.58.06.06.26c.71 0 .84.19.84 1.33v1.91c0 1.15-.13 1.34-.9 1.4l.06.25 2.65-.06-.07-.25c-.7 0-.83-.2-.83-1.34l-.07-.83 2.52-.06v.89c0 1.14-.13 1.33-.9 1.4l.06.25h2.64l-.06-.32c-.84 0-.97-.19-.97-1.33z" fill="#FFF"/><path fill="#981E33" d="M89.29 7.25h34.81v32.33H89.3z"/><path fill="url(#a)" d="M0 .25h8.25v2.61H0z" transform="translate(102.632 11.455)"/><path fill="url(#b)" d="M0 1.6h8.25v1.33H0z" transform="translate(102.632 11.455)"/><path fill="url(#c)" d="M4.06 1.6H8.2v1.33H4.06z" transform="translate(102.632 11.455)"/><path fill="url(#d)" d="M0 .25L1.55 1.6 0 2.93z" transform="translate(102.632 11.455)"/><path fill="url(#e)" d="M8.19.25L6.58 1.6l1.6 1.34z" transform="translate(102.632 11.455)"/><path fill="url(#f)" d="M.2.13h8.25v2.6H.19z" transform="translate(93.605 15.273)"/><path fill="url(#g)" d="M.2 1.46h8.25V2.8H.19z" transform="translate(93.605 15.273)"/><path fill="url(#h)" d="M4.32 1.46h4.13V2.8H4.32z" transform="translate(93.605 15.273)"/><path fill="url(#i)" d="M.2.13l1.6 1.33L.2 2.8z" transform="translate(93.605 15.273)"/><path fill="url(#j)" d="M8.45.13L6.83 1.46 8.45 2.8z" transform="translate(93.605 15.273)"/><path fill="url(#k)" d="M.39.13h8.25v2.6H.39z" transform="translate(111.013 15.273)"/><path fill="url(#l)" d="M.39 1.46h8.25V2.8H.39z" transform="translate(111.013 15.273)"/><path fill="url(#m)" d="M4.51 1.46h4.13V2.8H4.51z" transform="translate(111.013 15.273)"/><path fill="url(#n)" d="M.39.2l1.6 1.26L.4 2.8z" transform="translate(111.013 15.273)"/><path fill="url(#o)" d="M8.64.13L7.03 1.46l1.6 1.34z" transform="translate(111.013 15.273)"/><path fill="url(#p)" d="M24.37 21.7l-2.45-1.53-2.45-.89V6.62l2.45-1.34 2.45 1.34z" transform="translate(93.605 11.455)"/><path fill="url(#q)" d="M24.37 21.7l-2.45-1.53V5.28l2.45 1.34z" transform="translate(93.605 11.455)"/><path fill="url(#r)" d="M21.92 24.12H15.6l-2.5-2.42 2.51-2.42h3.87l1.23 2.42z" transform="translate(93.605 11.455)"/><path fill="#FFF" d="M115.53 31.63l-1.23 1.53h-7.6l2.5-2.42h3.88z"/><path fill="url(#s)" d="M20.7 21.7h-7.61l2.51-2.42h3.87z" transform="translate(93.605 11.455)"/><path fill="url(#t)" d="M20.7 21.7l1.22 2.42 2.45-2.42-2.45-1.53z" transform="translate(93.605 11.455)"/><path fill="url(#u)" d="M9.03 28.13h8.25v2.6H9.03z" transform="translate(93.605 11.455)"/><path fill="url(#v)" d="M9.03 29.46h8.25v1.34H9.03z" transform="translate(93.605 11.455)"/><path fill="url(#w)" d="M9.03 29.46h4.12v1.34H9.03z" transform="translate(93.605 11.455)"/><path fill="url(#x)" d="M17.21 28.13l-1.6 1.33 1.6 1.34z" transform="translate(93.605 11.455)"/><path fill="url(#y)" d="M9.03 28.13l1.54 1.33-1.54 1.34z" transform="translate(93.605 11.455)"/><path fill="url(#z)" d="M15.6 19.28l-2.5 2.42V1.6l2.51 1.33z" transform="translate(93.605 11.455)"/><path fill="url(#A)" d="M10.64 19.28l2.45 2.42V1.6l-2.45 1.33z" transform="translate(93.605 11.455)"/><path fill="url(#B)" d="M15.6 28.13l-2.51 1.33V21.7l2.51 2.42z" transform="translate(93.605 11.455)"/><path fill="url(#C)" d="M10.64 28.13l2.45 1.33V21.7l-2.45 2.42z" transform="translate(93.605 11.455)"/><path fill="url(#D)" d="M1.87 21.7l2.45-1.53 2.45-.89V6.62L4.32 5.28 1.87 6.62z" transform="translate(93.605 11.455)"/><path fill="url(#E)" d="M1.87 21.7l2.45-1.53V5.28L1.87 6.62z" transform="translate(93.605 11.455)"/><path fill="url(#F)" d="M4.32 24.12h6.32l2.45-2.42-2.45-2.42H6.77z" transform="translate(93.605 11.455)"/><path fill="url(#G)" d="M4.32 20.17l1.22 1.53h7.55l-2.45-2.42H6.77z" transform="translate(93.605 11.455)"/><path fill="url(#H)" d="M5.54 21.7h7.55l-2.45-2.42H6.77z" transform="translate(93.605 11.455)"/><path fill="url(#I)" d="M5.54 21.7l-1.22 2.42-2.45-2.42 2.45-1.53z" transform="translate(93.605 11.455)"/><g fill="#FFF"><path opacity=".5" d="M102.63 11.7l1.61 1.35h4.97l1.6-1.34v.06l-1.6 1.28h-5.03l-1.55-1.28z"/><path d="M104.18 13.05l-1.55-1.28v-.06l1.61 1.34h4.97l1.6-1.34v.06l-1.6 1.28z"/></g><g fill="#FFF"><path opacity=".5" d="M97.92 31.63l1.23 1.52h15.15l1.23-1.52-1.23 1.52H99.15z"/><path d="M99.15 33.15l-1.23-1.52 1.23 1.52h15.15l1.23-1.52-1.23 1.52z"/></g><g fill="#FFF"><path opacity=".5" d="M106.63 13.05h1v20.1h-1z"/><path d="M106.63 13.05h1v20.1h-1z"/></g><g fill="#FFF"><path opacity=".5" d="M102.63 39.58l1.61 1.27h4.97l1.6-1.27v.07l-1.6 1.27h-5.03l-1.55-1.27z"/><path d="M104.18 40.92l-1.55-1.34 1.61 1.34h4.97l1.6-1.34-1.6 1.34z"/></g><g fill="#FFF"><path opacity=".5" d="M106.63 33.15h1v7.77h-1z"/><path d="M106.63 33.15h1v7.77h-1z"/></g><g fill="#FFF"><path opacity=".5" d="M115.46 16.74h1v14.89h-1z"/><path d="M115.46 16.74h1v14.89h-1z"/></g><g fill="#FFF"><path opacity=".5" d="M97.92 16.74v14.89z"/><path d="M97.92 31.63v-14.9z"/></g><g fill="#FFF"><path opacity=".5" d="M93.8 15.4l1.61 1.34h5.03l1.55-1.34h.06v.06l-1.61 1.28H95.4l-1.61-1.28z"/><path d="M95.41 16.74L93.8 15.4l1.61 1.34h5.03l1.61-1.34v.06l-1.61 1.28z"/></g><g fill="#FFF"><path opacity=".5" d="M111.4 15.4l1.61 1.34h5.03l1.55-1.34h.06v.06l-1.6 1.28H113l-1.61-1.28z"/><path d="M113.01 16.74l-1.61-1.28v-.06l1.61 1.34h5.03l1.55-1.34h.06v.06l-1.6 1.28z"/></g><path d="M2.27 81.04V67.8H.52v-.6h5.7v.6H4.55v13.25H6.3v.6H.59v-.6zm6.61 0V73.7H7.46v-.59h3.3v1.12a3.1 3.1 0 0 1 2.66-1.38c.98 0 1.69.33 2.2.99.27.32.46.78.46 1.24.07.33.07.8.07 1.32v4.66h1.36v.59h-4.54v-.6h1.23V77.9c0-2.1-.13-3.35-.39-3.74-.2-.33-.58-.53-1.03-.53-.65 0-1.17.26-1.56.85-.2.33-.32.73-.39 1.32-.06.72-.13 1.64-.13 2.82v2.5h1.23v.58H7.4v-.59h1.5v-.06zM26.13 67.2v13.84h1.43v.6h-3.3v-1.65a4.2 4.2 0 0 1-.53.92c-.51.6-1.16.92-1.88.92-.9 0-1.68-.4-2.4-1.25a5.12 5.12 0 0 1-1.1-3.28c0-1.44.45-2.62 1.36-3.47a2.96 2.96 0 0 1 2.14-.99c1.04 0 1.82.6 2.53 1.77v-6.89h-1.42v-.59h3.17v.07zm-4.15 6.36c-.32 0-.64.13-.9.33s-.4.4-.46.6c-.13.52-.26 1.44-.26 2.68 0 1.7.07 2.76.2 3.09.26.59.71.91 1.36.91.52 0 .97-.26 1.36-.72.58-.72.84-1.77.84-3.08 0-1.25-.26-2.23-.77-2.96-.4-.59-.85-.85-1.37-.85zm8.04 7.48V73.7H28.6v-.59h3.3v7.94h1.37v.6H28.6v-.6h1.42zm.91-13.52c.4 0 .65.14.91.4.2.26.32.52.32.79 0 .32-.12.65-.38.92-.2.2-.52.32-.78.32s-.59-.13-.78-.32c-.26-.27-.32-.53-.32-.92 0-.33.12-.66.32-.92.06-.2.32-.27.71-.27zm11.42 13.26l.26.4c-.46.45-.91.65-1.43.65-1.04 0-1.62-.59-1.75-1.7-.2.32-.4.65-.65.85-.58.59-1.3.85-2.08.85-.7 0-1.3-.2-1.75-.65a1.8 1.8 0 0 1-.45-1.32c0-1.11.65-1.97 1.88-2.5a8.83 8.83 0 0 1 3.05-.52v-1.37c0-.6 0-.99-.07-1.19-.13-.59-.58-.85-1.36-.85-.45 0-.9.13-1.3.4-.19.13-.26.26-.26.39 0 .06.07.13.13.26.2.26.26.46.26.66 0 .26-.06.46-.26.65-.2.2-.39.27-.65.27s-.45-.07-.58-.27a.94.94 0 0 1-.32-.72c0-.46.2-.85.64-1.25.72-.59 1.56-.91 2.66-.91s1.95.32 2.47.91c.26.33.45.66.45 1.05v3.88c0 1.3 0 1.96.07 2.1.06.13.2.26.39.26.19-.07.38-.13.64-.33zm-2.92-3.41c-.97.06-1.69.2-2.14.46-.65.4-.97.92-.97 1.57 0 .46.12.8.38.99.2.2.52.33.91.33.65 0 1.1-.33 1.5-.92.19-.4.32-1.05.32-2.1v-.33zm5.7 3.67V73.7h-1.42v-.59H47v1.12a3.1 3.1 0 0 1 2.66-1.38c.98 0 1.69.33 2.2.99.27.32.46.78.46 1.24.07.33.07.8.07 1.32v4.66h1.36v.59h-4.54v-.6h1.23V77.9c0-2.1-.13-3.35-.39-3.74-.2-.33-.58-.53-1.03-.53-.65 0-1.17.26-1.56.85-.2.33-.32.73-.39 1.32a30.9 30.9 0 0 0-.13 2.82v2.5h1.23v.58h-4.54v-.59h1.5v-.06zm17.7-.26l.27.4c-.46.45-.91.65-1.43.65-1.04 0-1.62-.59-1.75-1.7-.2.32-.39.65-.65.85-.58.59-1.3.85-2.07.85-.72 0-1.3-.2-1.76-.65a1.8 1.8 0 0 1-.45-1.32c0-1.11.65-1.97 1.88-2.5a8.83 8.83 0 0 1 3.05-.52v-1.37c0-.6 0-.99-.07-1.19-.13-.59-.58-.85-1.36-.85-.45 0-.9.13-1.3.4-.19.13-.26.26-.26.39 0 .06.07.13.13.26.2.26.26.46.26.66 0 .26-.06.46-.26.65-.2.2-.39.27-.65.27s-.45-.07-.58-.27a.94.94 0 0 1-.32-.72c0-.46.19-.85.64-1.25.72-.59 1.56-.91 2.66-.91s1.95.32 2.47.91c.26.33.45.66.45 1.05v3.88c0 1.3 0 1.96.06 2.1.07.13.2.26.4.26.19-.07.38-.13.64-.33zm-2.97-3.41c-.98.06-1.7.2-2.14.46-.65.4-.98.92-.98 1.57 0 .46.13.8.4.99.19.2.51.33.9.33.65 0 1.1-.33 1.5-.92.18-.4.31-1.05.31-2.1v-.33zm20.03-9.58h-1.68v-.6h3.95v.6h-1.68v8.2c0 1.64-.07 2.69-.26 3.21-.59 1.84-1.95 2.76-3.96 2.76-1.1 0-2.07-.2-2.92-.66A3.58 3.58 0 0 1 71.4 79c-.13-.52-.2-1.5-.2-3.01v-8.2h-1.75v-.6h5.7v.6h-1.74v8.2c0 1.77.06 2.82.2 3.21.19.72.64 1.31 1.23 1.64.51.27 1.1.46 1.81.46 1.36 0 2.27-.59 2.79-1.7.2-.4.32-.8.39-1.19.06-.39.13-1.24.13-2.42v-8.2h-.07zm4.22 13.25V73.7h-1.43v-.59h3.3v1.12a3.11 3.11 0 0 1 2.67-1.38c.97 0 1.68.33 2.2.99.26.32.46.78.46 1.24.06.33.06.8.06 1.32v4.66h1.36v.59H88.2v-.6h1.24V77.9c0-2.1-.13-3.35-.4-3.74-.19-.33-.58-.53-1.03-.53-.65 0-1.17.26-1.56.85-.19.33-.32.73-.38 1.32-.07.72-.13 1.64-.13 2.82v2.5h1.23v.58h-4.54v-.59h1.49v-.06zm11.15 0V73.7h-1.42v-.59h3.3v7.94h1.36v.6h-4.66v-.6h1.42zm.85-13.52c.38 0 .64.14.9.4.2.26.33.52.33.79 0 .32-.13.65-.4.92-.19.2-.51.32-.77.32-.32 0-.58-.13-.78-.32-.26-.27-.32-.53-.32-.92 0-.33.13-.66.32-.92.07-.2.33-.27.72-.27zm10.7 6.17l-3.05 8.14h-.78L99.8 73.7h-.9v-.59h4.47v.6h-1.43l2.14 5.5 2.14-5.5h-1.55v-.6h2.98v.6zm8.88 3.02h-5.45v.6c0 .91 0 1.57.07 1.9.06 1.31.71 1.9 1.94 1.9.78 0 1.5-.33 2.01-.98.33-.33.52-.86.65-1.45h.65a4.27 4.27 0 0 1-1.04 2.1c-.65.66-1.42.99-2.33.99-.98 0-1.82-.4-2.6-1.12a4.4 4.4 0 0 1-1.42-3.34c0-1.38.52-2.5 1.55-3.48a3.42 3.42 0 0 1 4.6-.2c.65.53 1.1 1.18 1.3 1.97-.06.26 0 .66.07 1.12zm-2.2-.59c0-.98-.07-1.57-.2-1.84-.2-.52-.65-.78-1.36-.78-.71 0-1.23.26-1.5.72-.12.26-.19.65-.19 1.11v.72h3.24v.07zm4.73 4.92V73.7h-1.43v-.59h3.31v2.04c.58-1.51 1.3-2.24 2.27-2.24.39 0 .65.14.9.33.27.26.4.53.4.99 0 .32-.13.65-.33.85-.2.2-.45.33-.71.33-.32 0-.65-.13-.78-.46a1.24 1.24 0 0 1-.13-.53c0-.26-.06-.46-.2-.46-.19 0-.38.2-.57.53a5.47 5.47 0 0 0-.65 1.9c-.13.72-.2 1.64-.2 2.82v1.84h1.37v.6h-4.67v-.6h1.42zm12.26-8.07l.06 2.56h-.45a2.1 2.1 0 0 0-.65-1.31 2.58 2.58 0 0 0-1.82-.66c-.52 0-.9.13-1.23.4-.32.26-.52.58-.52.98 0 .33.2.59.52.78.26.14.84.27 1.62.46.78.13 1.36.27 1.69.46.9.46 1.3 1.25 1.3 2.36 0 .8-.27 1.45-.78 2.04-.52.59-1.24.85-2.08.85a3.4 3.4 0 0 1-1.62-.4c-.2-.06-.39-.26-.71-.45l-.46.65h-.39l-.06-3.21h.45c.2.79.46 1.38.78 1.84.46.65 1.17.98 2.08.98.58 0 1.1-.2 1.49-.6.32-.32.45-.65.45-.98 0-.32-.13-.65-.39-.85-.25-.2-.84-.4-1.68-.52a8.3 8.3 0 0 1-1.62-.4c-.91-.4-1.43-1.18-1.43-2.36 0-.79.26-1.38.78-1.9.52-.53 1.1-.8 1.95-.8.7 0 1.42.27 2.14.73l.26-.66h.32zm3.17 8.07V73.7h-1.36v-.59h3.3v7.94h1.37v.6h-4.67v-.6h1.36zm.91-13.52c.39 0 .65.13.9.4.2.26.33.52.33.78 0 .33-.13.66-.39.92-.2.2-.52.33-.77.33-.33 0-.59-.13-.78-.33-.26-.26-.33-.52-.33-.92 0-.33.13-.66.33-.92.06-.2.32-.26.71-.26zm6.16 2.3v3.21h2.14v.6h-2.14v6.1c0 .46.07.79.2.92.19.26.45.4.77.4.59 0 .91-.34 1.04-1h.52c-.06.47-.2.8-.39 1.06-.39.52-1.04.78-1.81.78-.78 0-1.37-.26-1.82-.78a2.1 2.1 0 0 1-.39-.86c0-.2-.06-.59-.06-1.18v-5.51h-1.3v-.46a4.77 4.77 0 0 0 1.88-1.25 8.2 8.2 0 0 0 .97-2.03h.4zm8.43 9.32l1.95-5.45h-1.62v-.59h3.17v.6h-.84l-4.34 12a2.34 2.34 0 0 1-1.3 1.5c-.2.07-.46.14-.65.14-.32 0-.58-.06-.78-.26a.94.94 0 0 1-.39-.79c0-.33.13-.59.33-.79.2-.2.39-.26.65-.26.38 0 .64.13.9.46.13.13.2.26.33.26s.26-.13.39-.46l1.36-3.87-3.5-7.94h-.91v-.6h4.47v.6h-1.49l2.27 5.45zm19.26-4.6h-5.64v6.5h1.75v.59h-5.7v-.59h1.74V67.79h-1.75v-.6h5.71v.6h-1.75v6.17h5.64v-6.17h-1.75v-.6h5.7v.6h-1.75v13.25h1.76v.6h-5.71v-.6h1.75zm12.39 2.17h-5.45v.59c0 .92 0 1.57.07 1.9.06 1.31.7 1.9 1.94 1.9.78 0 1.5-.32 2.01-.98a3 3 0 0 0 .65-1.44h.65c-.13.78-.52 1.5-1.04 2.1a3.2 3.2 0 0 1-2.34.98c-.97 0-1.81-.4-2.59-1.12a4.4 4.4 0 0 1-1.43-3.34c0-1.38.52-2.5 1.56-3.48a3.42 3.42 0 0 1 4.6-.2c.65.53 1.1 1.18 1.3 1.97 0 .26.06.66.06 1.12zm-2.14-.6c0-.98-.07-1.57-.2-1.83-.2-.53-.65-.79-1.36-.79-.71 0-1.23.26-1.49.72-.13.27-.2.66-.2 1.12v.72h3.25v.07zM190 80.79l.26.4c-.46.45-.91.65-1.43.65-1.04 0-1.62-.6-1.75-1.7-.2.32-.4.65-.65.84-.58.6-1.3.86-2.08.86-.7 0-1.3-.2-1.75-.66a1.8 1.8 0 0 1-.45-1.31c0-1.12.65-1.97 1.88-2.5a8.82 8.82 0 0 1 3.05-.52v-1.38c0-.59 0-.98-.07-1.18-.13-.59-.58-.85-1.36-.85-.45 0-.9.13-1.3.4-.19.12-.26.25-.26.39 0 .06.07.13.13.26.2.26.26.46.26.65 0 .27-.06.46-.26.66s-.39.26-.65.26-.45-.06-.58-.26a.94.94 0 0 1-.32-.72c0-.46.2-.86.64-1.25.72-.6 1.56-.92 2.66-.92s1.95.33 2.47.92c.26.33.45.66.45 1.05v3.87c0 1.31 0 1.97.07 2.1.06.13.2.26.39.26.19-.06.38-.13.64-.33zm-2.92-3.42c-.97.07-1.69.2-2.14.46-.65.4-.97.92-.97 1.58 0 .46.12.79.38.98.2.2.52.33.91.33.65 0 1.1-.33 1.5-.92.19-.39.32-1.05.32-2.1v-.33zm5.64 3.68V67.79h-1.43v-.6h3.31v13.85h1.36v.6h-4.67v-.6zm7.26-11.22v3.21h2.14v.6H200v6.1c0 .45.07.78.2.91.2.27.45.4.78.4.58 0 .9-.33 1.03-.99h.52c-.06.46-.2.79-.39 1.05-.39.53-1.03.79-1.81.79s-1.36-.26-1.82-.79a2 2 0 0 1-.39-.85c0-.2-.06-.6-.06-1.18v-5.51h-1.3v-.46a4.7 4.7 0 0 0 1.88-1.25c.32-.46.65-1.11.97-2.03h.4zm5 11.22V67.79h-1.43v-.6h3.3v7.42c.27-.46.53-.72.78-.92a3.6 3.6 0 0 1 2.34-.78c.97 0 1.69.26 2.14.78.2.26.32.53.39.92.06.2.06.66.06 1.38v5.05h1.37v.6h-4.54v-.6h1.3V76c0-.72 0-1.18-.07-1.38-.13-.65-.52-.98-1.3-.98-.58 0-1.1.2-1.56.59-.45.4-.7.92-.84 1.57-.06.46-.13 1.18-.13 2.1v3.02h1.23v.6h-4.54v-.6h1.5v.13z" fill="#000"/></g></svg>