<svg id="Layer_1" data-name="Layer 1" xmlns="http://www.w3.org/2000/svg" viewBox="0 0 139.68 51.34"><defs><style>.cls-1{fill:#4aa851;}.cls-2{fill:#231f20;}</style></defs><path class="cls-1" d="M139.3,50.73c-14.88-3.68-40.85-5.88-69.46-5.88S15.26,47.05.38,50.73A.22.22,0,0,0,.26,51c0,.12.09.2.16.18,14.87-3,40.82-4.8,69.42-4.8s54.55,1.8,69.42,4.8c.07,0,.15-.06.16-.18A.22.22,0,0,0,139.3,50.73Z"/><path class="cls-2" d="M8,14c0-6.92,0-8.2-.09-9.65S7.36,2.06,6.36,1.83a6.3,6.3,0,0,0-1.64-.18c-.45,0-.72-.1-.72-.46S4.36.83,5.09.83C6.82.83,9.69,1,11,1c1.13,0,3.82-.13,5.55-.13.59,0,1,.09,1,.36s-.28.46-.73.46a7.78,7.78,0,0,0-1.37.13c-1.23.23-1.59,1-1.68,2.6-.09,1.45-.09,2.73-.09,9.65v8c0,4.41,0,8,.18,10,.14,1.23.45,2.05,1.82,2.23a19.46,19.46,0,0,0,2.32.18c.5,0,.73.14.73.36s-.36.46-.87.46c-3,0-5.87-.14-7.1-.14-1,0-3.91.14-5.73.14-.59,0-.91-.14-.91-.46s.18-.36.73-.36a7.44,7.44,0,0,0,1.63-.18c.91-.18,1.19-1,1.32-2.28C8,30.05,8,26.45,8,22Z"/><path class="cls-2" d="M28.58,14c0-6.92,0-8.2-.09-9.65s-.46-2.28-2-2.6a9.61,9.61,0,0,0-1.78-.13c-.5,0-.77-.1-.77-.41s.32-.41,1-.41c2.41,0,5.28.13,6.24.13,1.55,0,5-.13,6.42-.13,2.86,0,5.91.27,8.37,1.95A7.89,7.89,0,0,1,49.11,9c0,3.37-1.41,6.46-6,10.2,4,5.1,7.19,9.15,9.88,12,2.55,2.64,4.41,3,5.09,3.09a6.61,6.61,0,0,0,1.28.14c.36,0,.55.14.55.36s-.32.46-.87.46H54.71c-2.55,0-3.69-.23-4.87-.86-2-1.05-3.69-3.19-6.24-6.7-1.82-2.5-3.92-5.6-4.51-6.28a1,1,0,0,0-.82-.32l-4-.09c-.22,0-.36.09-.36.37V22c0,4.24,0,7.83.23,9.74.13,1.33.41,2.33,1.77,2.51a21.23,21.23,0,0,0,2.23.18c.37,0,.55.14.55.36s-.32.46-.91.46c-2.64,0-6-.14-6.69-.14-.87,0-3.74.14-5.56.14-.59,0-.91-.14-.91-.46s.18-.36.73-.36A7.55,7.55,0,0,0,27,34.24c.91-.18,1.14-1.18,1.32-2.51.23-1.91.23-5.5.23-9.69ZM34,17.62c0,.5.09.69.41.82a11.92,11.92,0,0,0,3.46.46c1.82,0,2.41-.18,3.23-.78,1.37-1,2.69-3.09,2.69-6.82,0-6.47-4.28-8.33-7-8.33a9.78,9.78,0,0,0-2.41.18c-.32.09-.41.27-.41.64Z"/><path class="cls-2" d="M65.47,1.37c.13-.77.4-1.18.77-1.18s.64.23,1.23,1.41L79.9,26.91,92.28,1.28c.36-.73.59-1.09,1-1.09s.68.45.82,1.41l4.14,27.86c.41,2.87.87,4.19,2.23,4.6a9,9,0,0,0,2.82.45c.41,0,.73.05.73.32s-.54.5-1.18.5c-1.14,0-7.42-.09-9.24-.23-1-.09-1.32-.22-1.32-.5s.18-.36.5-.5.41-.68.23-2l-2.74-19.8h-.18L80.17,32.65c-1,2.13-1.28,2.54-1.69,2.54s-.86-.91-1.59-2.27c-1.09-2.1-4.69-9.06-5.23-10.33-.41-1-3.14-6.33-4.74-9.75h-.18L64.37,30.6a18.15,18.15,0,0,0-.13,2.14c0,.86.59,1.27,1.36,1.45a8.37,8.37,0,0,0,1.91.23c.37,0,.69.09.69.32,0,.41-.41.5-1.1.5-1.91,0-4-.14-4.78-.14s-3,.14-4.5.14c-.46,0-.82-.09-.82-.5,0-.23.27-.32.73-.32a5.68,5.68,0,0,0,1.36-.14c1.28-.27,1.64-2,1.87-3.59Z"/><path class="cls-2" d="M110.46,30.92c-4.46-3.92-5.65-9-5.65-13.43A17.15,17.15,0,0,1,110.14,5c3.28-3,7.6-4.82,14.39-4.82a45.59,45.59,0,0,1,6.6.45c1.73.23,3.18.64,4.55.78.5,0,.68.27.68.54s-.14.91-.23,2.51,0,4-.13,4.91c-.05.69-.14,1-.55,1s-.45-.36-.45-1a6.54,6.54,0,0,0-1.78-4.19c-1.5-1.59-5.05-2.82-9.24-2.82-4,0-6.56,1-8.56,2.82-3.32,3-4.19,7.38-4.19,11.79,0,10.84,8.24,16.21,14.34,16.21,4.05,0,6.51-.46,8.33-2.55a7.54,7.54,0,0,0,1.55-3c.14-.72.23-.91.59-.91s.41.32.41.69a42.66,42.66,0,0,1-1,6,1.62,1.62,0,0,1-1.18,1.32,26.32,26.32,0,0,1-8.2,1.05C119.84,35.88,114.6,34.51,110.46,30.92Z"/></svg>