<svg xmlns="http://www.w3.org/2000/svg" xmlns:xlink="http://www.w3.org/1999/xlink" viewBox="0 0 465.3 127.66"><defs><style>.cls-1{fill:#fff;}.cls-2{fill:url(#linear-gradient);}</style><linearGradient id="linear-gradient" x1="138.14" y1="63.96" x2="332.93" y2="63.96" gradientUnits="userSpaceOnUse"><stop offset="0" stop-color="#9c5d9e"/><stop offset="0.27" stop-color="#985a9d"/><stop offset="0.52" stop-color="#8d5199"/><stop offset="0.76" stop-color="#7a4292"/><stop offset="1" stop-color="#602d89"/></linearGradient></defs><g id="Layer_2" data-name="Layer 2"><g id="Nav_1:1_" data-name="Nav (1:1)"><rect class="cls-1" y="24.39" width="344.05" height="79.13" transform="translate(344.05 127.92) rotate(180)"/><path class="cls-2" d="M169.42,47.25l-6.22,3.69A10.65,10.65,0,0,0,159.88,47a8.81,8.81,0,0,0-9.55.76,5.58,5.58,0,0,0-2.11,4.47q0,3.72,5.53,6l5.07,2.07q6.19,2.51,9.06,6.11a13.75,13.75,0,0,1,2.86,8.84,15.56,15.56,0,0,1-4.67,11.59,16.07,16.07,0,0,1-11.69,4.61,15.64,15.64,0,0,1-10.93-3.92c-2.84-2.61-4.6-6.29-5.31-11l7.77-1.71c.36,3,1,5,1.85,6.19a8.76,8.76,0,0,0,12.87.89,9.07,9.07,0,0,0,2-8.81,6.84,6.84,0,0,0-1.28-2.27,10.53,10.53,0,0,0-2.26-2,21.31,21.31,0,0,0-3.29-1.72l-4.91-2q-10.44-4.41-10.43-12.9a12.23,12.23,0,0,1,4.38-9.58,15.82,15.82,0,0,1,10.89-3.89Q164.48,38.69,169.42,47.25Zm39.32,0-6.23,3.69A10.65,10.65,0,0,0,199.19,47a8.81,8.81,0,0,0-9.55.76,5.61,5.61,0,0,0-2.11,4.47q0,3.72,5.54,6l5.07,2.07q6.18,2.51,9.05,6.11a13.76,13.76,0,0,1,2.87,8.84,15.53,15.53,0,0,1-4.68,11.59,16.07,16.07,0,0,1-11.69,4.61,15.66,15.66,0,0,1-10.93-3.92q-4.24-3.92-5.3-11l7.77-1.71c.35,3,1,5,1.84,6.19a8.78,8.78,0,0,0,12.88.89,8.34,8.34,0,0,0,2.37-6.09,8.67,8.67,0,0,0-.41-2.72,7.05,7.05,0,0,0-1.29-2.27,10.46,10.46,0,0,0-2.25-2,21.44,21.44,0,0,0-3.3-1.72l-4.9-2q-10.44-4.41-10.44-12.9a12.23,12.23,0,0,1,4.38-9.58A15.82,15.82,0,0,1,195,38.69Q203.8,38.69,208.74,47.25Zm25.55-.36V90.52h-7.67V46.89H214.93V39.68h31v7.21Zm45.6,31.28H258.13l-5.67,12.35H244.2l25.16-54,24.26,54h-8.4ZM276.76,71l-7.54-17.29L261.32,71Zm40.44-2.11,15.73,21.67h-9.38L309,69.71h-1.38V90.52H300V39.68h9q10.08,0,14.56,3.78a13.92,13.92,0,0,1,4.94,11.13,14.48,14.48,0,0,1-3.1,9.29A13.75,13.75,0,0,1,317.2,68.85ZM307.65,63h2.43Q321,63,321,54.69q0-7.8-10.6-7.8h-2.73Z"/><polygon class="cls-1" points="418.69 0 416.35 47.73 465.3 63.66 415.83 74.06 419.17 127.66 392.35 82.12 344.04 103.56 374.93 63.03 344.08 24.44 391.87 39.88 418.69 0"/></g></g></svg>