<svg version="1.1" xmlns="http://www.w3.org/2000/svg" x="0" y="0" width="245" height="57" xml:space="preserve">
  <style>
    .st0{fill:#0099d8}.st1{fill:#231f20}
  </style>
  <path class="st0" d="M142.7 29.4h4.5l-1 6h4.6l1.1-6h4.5l-2.8 15.9H149l1.1-6.2h-4.6l-1.1 6.2h-4.5l2.8-15.9zM162.1 29.4h11.8l-.7 3.8h-7.3l-.5 2.4h6.5l-.6 3.3h-6.5l-.5 2.7h7.4l-.7 3.8h-11.9l3-16zM185.3 43h-4.9l-1.1 2.4h-5l8.2-15.9h5l2.5 15.9h-4.5l-.2-2.4zm-.3-3.3-.6-5.2-2.4 5.2h3zM196.8 29.4h4.5l-2.1 12.2h6.9l-.7 3.8H194l2.8-16zM213.3 33.3h-4.9l.7-3.9h14l-.7 3.9h-4.7l-2.1 12.1h-4.5l2.2-12.1zM227.2 29.4h4.5l-1 6h4.6l1.1-6h4.5L238 45.3h-4.5l1.1-6.2H230l-1.1 6.2h-4.5l2.8-15.9z"/>
  <path class="st1" d="M29.4 30.7c.2-.7.5-1.6.6-2.2.2-1.3-.2-2.2-1.7-2.2-1.9 0-4.2 1.7-6.5 4.6l-4.4 13.9H11L18.2 22h5.4l-.6 3.6c2.3-2.3 5-3.9 8.3-3.9 3.9 0 5.8 2.5 5.3 5.9-.1 1-.5 2.5-.9 3.8L31.3 45h-6.4l4.5-14.3zM38.4 38.4c1.8 1.3 3.9 2.2 6.2 2.2 2.1 0 3.8-.9 4-2.3.2-1.5-1.5-2.1-3.7-2.7-3.4-.9-6.1-2.8-5.5-6.7.7-4.9 5.6-7.3 10.8-7.3 2.7 0 5.6.7 8.1 2.4l-3.4 4c-1.7-1-3.8-1.6-5.5-1.6-1.7 0-3.5.9-3.7 2.3-.2 1.6 1.7 2.1 3.9 2.6 3.5.8 5.9 2.4 5.4 6.4-.7 5-5.4 7.7-11.4 7.7-3.6 0-6.5-1.2-8.7-2.9l3.5-4.1zM58.7 56.2h-6.4l10.8-34h5.6l-.4 2.8c2.2-2 4.6-3.4 7.4-3.4 4.2 0 7 3.1 6.1 9.4-1.2 8.4-7 14.3-13.1 14.3-2.6 0-4.4-1.1-5.7-2.8l-4.3 13.7zm5.6-17.3c1 1.1 2.1 1.7 3.8 1.7 3.7 0 6.6-4.9 7.3-9.4.5-3.3-.7-4.6-2.6-4.6-1.9 0-3.8 1.5-5.8 3.7l-2.7 8.6zM88.2 22.5h6.4l-7.1 22.4h-6.4l7.1-22.4zM99 22.1h5.3l-.5 3.7c2.4-2.9 5-4.3 7.8-4.3 1.1 0 2.2.2 2.9.5l-2.7 5.6c-.6-.3-1.6-.5-2.6-.5-2.5 0-4.8 2.2-7 5.2l-4 12.5h-6.4L99 22.1zM130.1 45.1c-3.9 0-5.7-.9-6.3-2.7-2.1 1.8-4.5 3.1-7.7 3.1-3.5 0-6.1-2.1-5.6-6 .8-5.8 7.3-8 15.7-8.3l.6-1.9c.1-.3.2-.6.2-.9.2-1.2-.5-1.8-2.2-1.8-2.1 0-4.9.9-8 2.2l-1.1-4.6c3.3-1.5 7.1-2.6 10.4-2.6 5.8 0 7.8 2.7 7.3 6.2-.1.6-.3 1.5-.5 2.2l-2.7 8.4c-.1.3-.2.7-.3 1-.1.9.4 1.2 1.4 1.2l-1.2 4.5zm-5-10.4c-4.2.2-7.5 1.6-7.9 4.2-.2 1.4.6 2 2.1 2 1.6 0 3.4-.9 4.5-2l1.3-4.2zM7.5 22.5h6.4L6.8 44.9H.4l7.1-22.4zm2.9-9.3h6.4l-1.7 5.4H8.8l1.6-5.4z"/>
  <path class="st0" d="M95.8 11.2c-5.4-2.3-11-3.6-17-4.1l-.3 1.5c6 .5 11.6 1.9 17 4.2l.3-1.6zm-.6 3.3c-1.7-.8-3.5-1.5-5.2-2l-.3 1.6c1.8.6 3.5 1.3 5.2 2.1l.3-1.7zm1.6-8.3.3-1.7C84.3-.1 70-.4 52.7 3.7c-1.5.4-3 .7-4.4 1.1L48 6.4c1.5-.4 3.2-.8 4.8-1.2 17.2-4.1 31.3-3.8 44 1zm-.3 1.7C85.7 3.6 74.1 2.8 60.1 5.2l-.3 1.6c14.1-2.5 25.6-1.6 36.3 2.8l.4-1.7z"/>
  <path class="st1" d="M241.5 31c0-.3.1-.5.2-.8.1-.2.3-.4.6-.6.2-.1.5-.2.8-.2.3 0 .5.1.8.2.2.1.4.3.6.6.1.2.2.5.2.8 0 .3-.1.5-.2.8-.1.2-.3.4-.6.6s-.5.2-.8.2c-.3 0-.5-.1-.8-.2s-.4-.3-.6-.6c-.1-.2-.2-.5-.2-.8zm.2 0c0 .2.1.5.2.7.1.2.3.4.5.5.2.1.4.2.7.2.2 0 .5-.1.7-.2.2-.1.4-.3.5-.5.1-.2.2-.4.2-.7s-.1-.5-.2-.7c-.1-.2-.3-.4-.5-.5-.2-.1-.4-.2-.7-.2-.2 0-.5.1-.7.2-.2.1-.4.3-.5.5-.1.3-.2.5-.2.7zm2-.3c0 .1 0 .2-.1.3l-.2.2.5.8h-.3l-.4-.7h-.3v.7h-.3v-1.8h.5c.2 0 .4 0 .5.1 0 .1.1.2.1.4zm-.9.3h.2c.1 0 .2 0 .3-.1.1-.1.1-.1.1-.2s0-.2-.1-.2-.1-.1-.3-.1h-.2v.6z"/>
</svg>
