<svg xmlns="http://www.w3.org/2000/svg" viewBox="0 0 1448.89 207.39">
  <path fill="#fff" d="M331.78 1028.9c-.22-.09-.54-.12-.65-.28-1.81-2.66-3.75-5.26-5.36-8a59.47 59.47 0 0 1-5.47-12.34 70.07 70.07 0 0 1-3.2-17.36 86.84 86.84 0 0 1 .33-11.07 39.9 39.9 0 0 1 2-9.86c.85-2.52 1.6-5.09 2.63-7.53a89 89 0 0 1 4.07-8.33c1.17-2.09 2.66-4 4-6a7 7 0 0 0 .78-1.61c-17.51 15.37-27.37 42.53-23 68.35a76.91 76.91 0 0 0 9.38 26 78.47 78.47 0 0 0 41.82 34.61c8.85 3.15 18 4.25 27.3 4.55a96.4 96.4 0 0 1-13.49 0c-2.47-.25-5-.46-7.39-.94-3.78-.73-7.62-1.3-11.22-2.84-2.21-1-4.55-1.59-6.82-2.4a33.71 33.71 0 0 1-3.53-1.41c-2.21-1.1-4.45-2.19-6.56-3.47-2.69-1.64-5.33-3.38-7.89-5.22a69.68 69.68 0 0 1-7-5.54c-2.63-2.46-5-5.15-7.47-7.83a82.12 82.12 0 0 1-9.82-14 93.25 93.25 0 0 1-4.87-10.31 61.79 61.79 0 0 1-3.92-12.88c-.52-2.81-1.13-5.59-1.69-8.39a5 5 0 0 1-.1-1c-.16-3.63-.43-7.25-.44-10.88a50.23 50.23 0 0 1 .54-8.77c1-5.74 1.92-11.51 3.85-17.07a90.68 90.68 0 0 1 4.73-11.41 83.56 83.56 0 0 1 6.68-11.1 86.4 86.4 0 0 1 6.8-8.43c2.38-2.53 5-4.88 7.57-7.18 2.33-2.05 4.75-4 7.26-5.83 1.84-1.34 3.87-2.42 5.83-3.59 1.14-.68 2.27-1.37 3.46-1.95a104 104 0 0 1 15.85-6.29c2.6-.77 5.33-1.14 8-1.65a82.32 82.32 0 0 1 11.9-1.57 78.92 78.92 0 0 1 14.5.68 98.18 98.18 0 0 1 9.71 2c3.13.76 6.26 1.63 9.3 2.7a58.85 58.85 0 0 1 7.81 3.42c3.63 1.91 7.17 4 10.69 6.15 1.39.84 2.64 1.93 4.21 2.69a5.07 5.07 0 0 0-.65-.92 74.77 74.77 0 0 0-13.11-10c-2.4-1.43-4.77-2.89-7.22-4.22a76.44 76.44 0 0 0-14.58-6c-3.32-1-6.63-2-10-2.72a98.59 98.59 0 0 0-10.95-1.47 87.67 87.67 0 0 0-10.12-.32c-4.57.15-9.17.13-13.66 1.28a16.14 16.14 0 0 1-2.62.22c1.69-1.25 3.42-1.15 5-1.57a90.5 90.5 0 0 1 27.47-2.52 100.27 100.27 0 0 1 15.15 1.83 87.56 87.56 0 0 1 16.66 4.68 121.54 121.54 0 0 1 13.41 6.24c4 2.28 7.89 4.82 11.7 7.42a55.22 55.22 0 0 1 6.21 5c3.06 2.83 6.08 5.73 8.93 8.77 2.2 2.36 4.15 5 6.14 7.49 2.19 2.79 4 5.83 5.94 8.81 2.35 3.64 4 7.6 6 11.42a50.83 50.83 0 0 1 2.66 6.93c.94 2.75 1.88 5.51 2.61 8.32.8 3.07 1.41 6.18 2 9.29.33 1.69.51 3.4.71 5.1a112.31 112.31 0 0 1 .46 18.15c-.14 3.17-.54 6.34-1 9.49a90.64 90.64 0 0 1-1.76 9.55c-.91 3.63-2.1 7.18-3.28 10.73a93.16 93.16 0 0 1-7.33 15.87c-1.66 3-3.71 5.72-5.63 8.53a53.5 53.5 0 0 1-3.38 4.61c-2.63 3.07-5.2 6.22-8.1 9-3.31 3.21-6.85 6.19-10.46 9.06-2.52 2-5.32 3.66-8 5.46a88.32 88.32 0 0 1-13.59 7.12c-2.89 1.27-6 2-9 3.19a51.09 51.09 0 0 1-8.4 2.47c-2.86.62-5.74 1.1-8.63 1.53-2.45.36-4.93.57-7.41.82a76.75 76.75 0 0 1-15.08 0c-2.79-.27-5.59-.46-8.36-.87-2.57-.38-5.12-1-7.67-1.51a90.06 90.06 0 0 1-15.94-5.13 66.11 66.11 0 0 1-12.7-6.42c-1.77-1.22-3.76-2.13-5.52-3.38-3-2.12-5.95-4.26-8.77-6.63a103.61 103.61 0 0 1-8.45-7.9c-2.41-2.51-4.57-5.25-6.78-7.94a91.3 91.3 0 0 1-10.94-17.32c-1.44-2.88-2.62-5.91-3.87-8.89a82.94 82.94 0 0 1-4.85-17c-.17-.93-.49-1.82-.68-2.75a9.56 9.56 0 0 1 0-1.65c.36.42.56.56.61.73 1.22 4.07 2.13 8.27 3.72 12.19 1.71 4.21 3.37 8.5 6 12.29 1.22 1.77 2.09 3.78 3.33 5.53a64.77 64.77 0 0 0 6.16 8.15c2 2.08 3.85 4.36 5.81 6.52a25.58 25.58 0 0 0 2.58 2.52c2.18 1.83 4.42 3.57 6.61 5.38a74.91 74.91 0 0 0 12.18 8 94.74 94.74 0 0 0 17.67 7.45 84.83 84.83 0 0 0 10.1 2.55 114.69 114.69 0 0 0 12.11 1.48 99.89 99.89 0 0 0 11.08 0 94.4 94.4 0 0 0 9.48-1 66.82 66.82 0 0 0 9.35-1.8c5-1.49 9.87-3.2 14.68-5.11a63.42 63.42 0 0 0 8.8-4.5 96 96 0 0 0 12-8.29 109.44 109.44 0 0 0 9.58-8.94 95.11 95.11 0 0 0 10.11-12.78 85.41 85.41 0 0 0 7.22-12.93 107.17 107.17 0 0 0 5.13-13.91 77.52 77.52 0 0 0 .44-36.66 52.92 52.92 0 0 0-3.54-10.8c-1.11-2.28-1.86-4.74-3.07-7-1.61-3-3.42-5.8-5.31-8.57a69.66 69.66 0 0 0-8.41-10.06 74.66 74.66 0 0 0-8.56-7.52c-.13-.1-.35-.08-.84-.18a6.08 6.08 0 0 0 .7 1.14 59.86 59.86 0 0 1 8.34 10.31 63.81 63.81 0 0 1 6.87 13.72 59.55 59.55 0 0 1 3.75 21.67c-.13 3.88.16 7.79-.64 11.63-.61 3-1.25 5.95-2.1 8.86a56 56 0 0 1-2.82 7.68 59.17 59.17 0 0 1-6.73 11.67c-.81 1-1.44 2.27-2.34 3.23-2.33 2.5-4.83 4.83-7.14 7.34s-5.24 4.18-7.86 6.27a28.73 28.73 0 0 1-3.75 2.23 66.87 66.87 0 0 1-15.95 6.54 65.8 65.8 0 0 1-8.77 1.77c-.73.09-1.48.1-2.59.16 3.63-1 6.88-1.92 10.11-2.89a53.3 53.3 0 0 0 13.89-6.89A54.4 54.4 0 0 0 425 1034a61.64 61.64 0 0 0 7.87-11.83 66.47 66.47 0 0 0 5.4-16 52.06 52.06 0 0 0 .55-18.78c-.45-3.37-1.62-6.63-2.43-10-1-4.25-3.13-8-5.26-11.77a55.37 55.37 0 0 0-9.48-12.09A60 60 0 0 0 406.67 943a62.79 62.79 0 0 0-14.51-5 51.85 51.85 0 0 0-20.12-.66 73.68 73.68 0 0 0-8.51 2 46.93 46.93 0 0 0-6.45 2.26 57.74 57.74 0 0 0-13.44 8.14 60.27 60.27 0 0 0-13.54 15.54 65.42 65.42 0 0 0-6.22 14.6 54.77 54.77 0 0 0-2.22 16 46.4 46.4 0 0 0 1.67 13.61 64 64 0 0 0 4.48 12.13c1.07 2 2.3 3.93 3.42 5.91a8.85 8.85 0 0 1 .51 1.36zM1702.28 948.48a8.17 8.17 0 0 0-.86 1.31c-1.71 4.18-3.37 8.38-5.09 12.55-1.11 2.67-2.33 5.29-3.43 8-2.28 5.54-4.48 11.11-6.77 16.65-1.79 4.36-3.69 8.67-5.47 13-.38.93-.84 1.33-1.94 1l-21.82-53.22-.41.06a2.6 2.6 0 0 0-.23.68c-.2 3.92-.37 7.84-.58 11.76-.25 4.66-.3 9.35-.86 14-.8 6.59-.81 13.21-1.17 19.82a33.84 33.84 0 0 0 0 4.83 4.25 4.25 0 0 0 4.59 4.12h4.08c.39 1.21-.14 1.66-1.11 1.67a43.89 43.89 0 0 1-5.26-.16 39.34 39.34 0 0 0-10.73 0 28.62 28.62 0 0 1-4.25.16 1.54 1.54 0 0 1-1.75-1.56 17.52 17.52 0 0 1 3.22-.06c3.1.52 4.73-1.2 6.08-3.61a23.51 23.51 0 0 0 2.69-9.89c.51-6.88.84-13.78 1.21-20.68.31-5.74.55-11.49.84-17.23.13-2.64.34-5.27.47-7.91a6.45 6.45 0 0 0-.18-2c-.51-1.86-1.25-2.41-3.21-2.44h-5a4.8 4.8 0 0 1 .48-1.14 1.3 1.3 0 0 1 .74-.26c4.39-.4 8.77-.86 13.07.61a3.56 3.56 0 0 1 2.24 2.16q3.78 9.25 7.58 18.5c1.7 4.17 3.37 8.35 5.08 12.52s3.48 8.46 5.26 12.68c.65 1.52 1.42 3 2.32 4.89.82-2 1.5-3.54 2.16-5.13l5.48-13.26 4.92-11.93c1.82-4.42 3.63-8.85 5.47-13.26.7-1.67 1.47-3.31 2.22-5a5.44 5.44 0 0 1 4-3.06c3.7-.82 7.42-.32 11.13 0 .89.08 1.12.6.82 1.63-.63-.06-1.28-.07-1.91-.19-4-.78-7 1.48-6.85 5.51s.75 7.93 1.14 11.89c.27 2.69.54 5.39.78 8.08.31 3.44.58 6.88.88 10.32.53 6 1 12 1.61 18 .34 3.56 1.17 7 4 9.43a8 8 0 0 0 2.88 1.27 6.9 6.9 0 0 0 1.82 0c.59 0 1.59-.58 1.6.49 0 .91-1 .64-1.67.62-2.16-.08-4.32-.21-6.47-.36a59.91 59.91 0 0 0-11.36.2 42.52 42.52 0 0 1-5.87.13c-.35 0-1-.45-1-.72 0-.73.59-.72 1.16-.72a35.55 35.55 0 0 0 4.62-.18 3.43 3.43 0 0 0 2.78-2.87 18.81 18.81 0 0 0 .34-5c-.23-3.92-.6-7.83-1-11.73-.3-3.23-.71-6.45-1-9.68-.36-3.77-.66-7.54-1-11.32q-.63-6.76-1.27-13.53c.09-.13-.05-.22-.24-.44zM861.45 1005.58a41.15 41.15 0 0 1-12.65-1.53 20.37 20.37 0 0 1-6.38-2.49c-1.43-1-3.08-1.66-4.54-2.61A29 29 0 0 1 827 985.56c-3-6.9-2.87-13.93-1.18-21a37 37 0 0 1 9.82-18.23 34.22 34.22 0 0 1 5-4.08 29.05 29.05 0 0 1 8.14-3.93 52.87 52.87 0 0 1 11.57-1.91 48.86 48.86 0 0 1 11.5 1 35.91 35.91 0 0 1 9.77 3.15 31.56 31.56 0 0 1 11.53 9.55 36.66 36.66 0 0 1 3.81 7.33c2.17 5 2.41 10.26 1.69 15.69a42.11 42.11 0 0 1-4.88 14.87 32.23 32.23 0 0 1-12.84 13 38.58 38.58 0 0 1-12 4.09 62.27 62.27 0 0 1-7.48.49zm29.28-30.82a32.38 32.38 0 0 0-1.4-10.69 35.76 35.76 0 0 0-3.29-7.53 32.27 32.27 0 0 0-9.3-11 29.12 29.12 0 0 0-31.08-3 22 22 0 0 0-6.66 5.06 23.42 23.42 0 0 0-6 11.28 37.91 37.91 0 0 0-.76 12.46 39.89 39.89 0 0 0 5.77 16.6 33 33 0 0 0 8.25 9 29.6 29.6 0 0 0 16.45 6 30.89 30.89 0 0 0 11.29-1.84 23.56 23.56 0 0 0 14.16-12.65 27.16 27.16 0 0 0 2.57-13.69zM1456.19 965.62c3.32 1.19 6.65 2.19 9.83 3.57a15.32 15.32 0 0 1 8 7.91c2.79 6.07 2.17 12-1.08 17.66a15.51 15.51 0 0 1-6.59 6.36c-1.39.67-2.68 1.55-4.11 2.12a21.37 21.37 0 0 1-8.33 1.45c-6-.1-11.9-.36-17.85-.43-2.83 0-5.66.23-8.5.35a25.7 25.7 0 0 1-3 0c-1-.07-1-.71-.57-1.62 1.38 0 2.79.05 4.2 0a4.45 4.45 0 0 0 4.13-3 14.21 14.21 0 0 0 1-4.9q.12-24.58 0-49.16a13.12 13.12 0 0 0-.68-3.76 4.53 4.53 0 0 0-4.54-3.3c-.81 0-1.63.15-2.43.08-.35 0-.66-.46-1-.7.27-.24.5-.58.81-.7a3.24 3.24 0 0 1 1.21-.1c3.65.14 7.29.34 10.94.43a75.67 75.67 0 0 0 8.52 0 49.7 49.7 0 0 1 16.33 1c4.83 1.22 8.64 4.74 8.73 10.53a21.81 21.81 0 0 1-.34 5.24c-1 4.36-4 7.13-7.94 8.83-2.12.86-4.43 1.41-6.74 2.14zm-15.31 1.92c-.06.7-.14 1.29-.14 1.89v27.63a5.27 5.27 0 0 0 4.74 5.39 34.93 34.93 0 0 0 12.66-.81c5.23-1.48 7.79-5.26 8.87-10a23.09 23.09 0 0 0-.71-13 16.06 16.06 0 0 0-6.74-8.79 18.34 18.34 0 0 0-8.9-2.42c-2.7-.11-5.42 0-8.12 0-.54-.04-1.05.05-1.66.11zm-.06-2.86c.68 0 1.21.11 1.73.11 2.38 0 4.75-.06 7.12 0a16 16 0 0 0 7.31-1.37 10.31 10.31 0 0 0 5.6-6.32 13.8 13.8 0 0 0 .08-8.41 10 10 0 0 0-5.46-6.65 26.1 26.1 0 0 0-11.89-2 7.78 7.78 0 0 0-1.78.34 3.72 3.72 0 0 0-2.79 3.71v19.1c0 .44.04.81.08 1.49zM909.48 939.15c.17-1.28.81-1.56 1.61-1.56 3.73 0 7.46-.15 11.17 0a8.56 8.56 0 0 1 5.9 3.23c3.12 3.52 6.14 7.14 9.25 10.68 2.44 2.77 5 5.46 7.41 8.22 2.63 3 5.19 6 7.81 9q10.23 11.6 20.48 23.14a13.85 13.85 0 0 0 1.52 1.26c.06-1.14.12-1.84.12-2.55V948.9a17.67 17.67 0 0 0-2.16-8.13 3.4 3.4 0 0 0-3.43-2.07 29.36 29.36 0 0 1-3.25 0c-.28 0-.54-.36-1.1-.76a7.8 7.8 0 0 1 1.42-.41 32.9 32.9 0 0 1 8.69.45 8.12 8.12 0 0 0 3.4-.07 26.83 26.83 0 0 1 7.48-.37c.83.05 1.27.36 1 1.4a7.81 7.81 0 0 1-1.53 0c-5-1-7 2.52-7.57 6.28a32.93 32.93 0 0 0-.2 5.07v51.83a6.63 6.63 0 0 1 0 1.41c-.15.62-.33 1.63-.68 1.71a4.44 4.44 0 0 1-2.49-.23c-.57-.22-1-.87-1.44-1.38-2.68-3.1-5.31-6.24-8-9.32-4.08-4.64-8.22-9.23-12.3-13.88-2.75-3.13-5.41-6.35-8.16-9.49-2.22-2.53-4.54-5-6.76-7.5-2.71-3.08-5.36-6.22-8-9.32-1.76-2-3.56-4.05-5.35-6.06a4.44 4.44 0 0 0-.68-.48c-.65.76-.4 1.6-.41 2.36V994.46a11.54 11.54 0 0 0 1.85 6.32c1.43 2.26 3.6 2.89 6.09 2.82a7.57 7.57 0 0 1 1.4-.12c.35.07.65.42 1.3.89a7.87 7.87 0 0 1-1.72.48c-2.56-.08-5.12-.26-7.68-.32h-6.06c-2.06 0-4 .35-6.07.42a14.44 14.44 0 0 1-2.67-.36c-.17-1 .36-1.15.94-1.14 1 0 2 .11 3 .16a4.77 4.77 0 0 0 5-3.55 30 30 0 0 0 1.33-5.48 32.81 32.81 0 0 0 .27-5.06v-43.5a4.65 4.65 0 0 0-1.31-3.86c-1.5-1.37-2.78-3-5.06-3-1.39-.03-2.78-.01-4.36-.01zM716.72 971a9.85 9.85 0 0 0-.23 1.48v23.17a8.75 8.75 0 0 0 3.24 7.08 3.76 3.76 0 0 0 3 1 17.88 17.88 0 0 1 2.64-.08c.31 0 .62.3 1.32.67a7.33 7.33 0 0 1-1.64.47c-3.31 0-6.64.09-9.93-.2a41.75 41.75 0 0 0-8.29.06c-2 .22-4 .29-6.08.33-.67 0-1.51.1-2-.93a3.75 3.75 0 0 1 1.06-.41h3.86a3.49 3.49 0 0 0 2.92-1.49c1.88-2.22 2.26-4.86 2.27-7.59v-18.69-28a15.17 15.17 0 0 0-1.37-6.49 4 4 0 0 0-4-2.61h-3.09c-.29-1.09.26-1.2.84-1.18 2.57.06 5.15 0 7.69.29a26.91 26.91 0 0 0 7.06 0 69.68 69.68 0 0 1 7.09-.31c.72 0 1.2.25.88 1.34-.72 0-1.5-.08-2.28-.14-2.73-.2-4.63 1.12-5.17 4.51a10.92 10.92 0 0 0 0 1.62v20.93c0 .58.07 1.16.14 2.08a16.2 16.2 0 0 0 1.28-1c2-2.07 4-4.18 6-6.22 2.85-2.86 5.75-5.67 8.6-8.52a65.08 65.08 0 0 0 4.61-4.79 23 23 0 0 0 2.93-4.56 3 3 0 0 0-2.68-4 9.66 9.66 0 0 1-1.62 0c-.24-.05-.39-.51-.73-1a19.11 19.11 0 0 1 7.3.17 19.94 19.94 0 0 0 6.45 0 57 57 0 0 1 6.67-.33c1 0 1 .13 1.1 1.56a9.15 9.15 0 0 0-6.05.82 10.76 10.76 0 0 0-1.95 1.05c-1.22.86-2.42 1.74-3.56 2.69s-1.94 1.84-2.93 2.75-1.91 1.69-2.86 2.54c-.2.18-.39.38-.58.57-2.32 2.44-4.61 4.9-7 7.29s-5 5.07-7.66 7.48c-1.18 1.08-1.73 1.67-.31 3.38 3.4 4.08 6.86 8.12 10.26 12.2s6.54 8.21 10.08 12.07c3.08 3.36 5.46 7.4 9.4 10 2.17 1.42 4.4 2.3 7 1.43a5.73 5.73 0 0 1 1.58-.3c.21 0 .43.37.93.84a12.22 12.22 0 0 1-2.87.87 94.45 94.45 0 0 1-9.52-.11c-3.87-.32-7-2.38-9.47-5.25-3.44-4-6.78-8-10.17-12-2.66-3.14-5.33-6.26-8-9.41-1.9-2.25-3.78-4.53-5.67-6.8.02-.24-.16-.23-.49-.33zM1259.19 976.12c-.35-1.5.37-1.75 1.29-1.73 2 .05 3.94 0 5.88.24a39.62 39.62 0 0 0 8.91 0 58.63 58.63 0 0 1 6.08-.19c.83 0 1.64.19 1.54 1.6-.75-.07-1.46-.1-2.16-.2-2.13-.29-3.55.43-4.3 2.45a11.31 11.31 0 0 0-.75 3.52c-.1 3.72-.22 7.46 0 11.17a4.26 4.26 0 0 1-1.81 4.14 40.21 40.21 0 0 1-17.39 7.7 64.07 64.07 0 0 1-13.76.43 30.84 30.84 0 0 1-9.07-2 33.25 33.25 0 0 1-12.8-8.16 34.25 34.25 0 0 1-7.88-13.71 37.41 37.41 0 0 1-1.51-10.95 34.19 34.19 0 0 1 2.47-11.59c2.45-6.92 7.06-12.15 13-16.25a36.85 36.85 0 0 1 14.1-5.72c6.33-1.22 12.35-.09 18.39 1.58 2.34.64 4.69 1.26 7 1.93 1.69.49 3.18-.08 4.77-1a8.42 8.42 0 0 1 .52 1.34c.66 3.51 1.23 7 1.94 10.53.48 2.31-.24 4.42-.78 6.57 0 .2-.5.29-1 .52a7.26 7.26 0 0 1 0-1.34c.62-3.8-1-6.67-3.72-9.1-.8-.71-1.37-1.68-2.21-2.33a29.9 29.9 0 0 0-12.28-5.87 28.81 28.81 0 0 0-12.27.32 27.38 27.38 0 0 0-8.14 3.49 25 25 0 0 0-9.86 11.43 36.08 36.08 0 0 0-3 17.79 30.07 30.07 0 0 0 2.49 10.56 47 47 0 0 0 3.76 7.59 28.22 28.22 0 0 0 12.27 10.37c5.33 2.26 10.69 2.21 16.09 1.21a19.19 19.19 0 0 0 8.68-4.09 9.53 9.53 0 0 0 3.66-7.18c.09-3.46 0-6.91 0-10.37a4.38 4.38 0 0 0-.18-1.4c-1-3.14-2.57-3.81-5.82-3.69a21.24 21.24 0 0 0-2.15.39zM1294.46 938.62v-1.51c1-.05 2-.14 3-.14h31.9c1.21 0 2.42-.24 3.63-.35l4.06-.35c.45 1.24.81 2.31 1.23 3.37.72 1.81 1.52 3.59 2.21 5.4a8.36 8.36 0 0 1 .35 5.55c-.55-1.08-1.15-2.14-1.63-3.25-1.18-2.69-3.51-4-6-5.13a25.16 25.16 0 0 0-5.57-1.8c-4.31-.75-8.64-1.64-13.05-.48-1.69.44-2.46 1.09-2.73 2.8a10.92 10.92 0 0 0-.05 1.62v20.12c0 .72.08 1.45.12 2.25.78.05 1.37.12 2 .12 3.25 0 6.5-.06 9.75 0a10.66 10.66 0 0 0 4.65-1.2c2.21-1 2.83-2.9 2.08-5.66a11.26 11.26 0 0 1-.44-1.12c0-.27.2-.56.36-.94a3.77 3.77 0 0 1 1.78 3.12 9.24 9.24 0 0 1 .09 2.23c-.24 3.83 1.06 7.28 2.4 10.76a17.23 17.23 0 0 1 .58 3.86c-1.17.36-1.49-.09-1.71-.87a11.53 11.53 0 0 0-.91-2.44 7.9 7.9 0 0 0-6.45-4c-4.3-.46-8.64-.48-13-.68a6.86 6.86 0 0 0-1.16.2c0 .59-.15 1.17-.15 1.76v26c0 2.33.36 2.8 2.6 3.37a12.55 12.55 0 0 0 2.59.38 74.61 74.61 0 0 0 13.36-.66 23.68 23.68 0 0 0 9.24-2.86 12.57 12.57 0 0 0 5.75-6.74 11.57 11.57 0 0 1 .93-1.6 5.34 5.34 0 0 1-.35 4.76 29.06 29.06 0 0 1-2.27 3.57l-4.9 7.35c-2-.19-4.06-.49-6.15-.57-3-.12-6-.06-8.93-.13-5.21-.13-10.42-.39-15.63-.4-4 0-8 .27-12 .41a9.75 9.75 0 0 1-1.62-.05c-.78-.1-.78-.13-.85-1.56 1.28 0 2.55-.07 3.81 0 4.19.26 5.82-3 6.2-6.05a19.88 19.88 0 0 0 .06-2.44v-49.4a11.27 11.27 0 0 0-.62-4.17 3.44 3.44 0 0 0-3.36-2.43c-1.6-.06-3.29-.02-5.2-.02zM1046.35 980.22v6a9.23 9.23 0 0 0 3.59 7.59 20.14 20.14 0 0 1 1.92 1.78 23.92 23.92 0 0 0 9.27 5.85 18.21 18.21 0 0 0 10.37.93c5.47-1.22 10.33-3.65 12.75-9.2 1.22-2.79 2.12-5.76 1.56-8.85a24.33 24.33 0 0 0-5.22-11.68 85.27 85.27 0 0 0-10.92-10.4c-4-3.23-7.86-6.57-11.5-10.15-2.18-2.14-4.54-4.18-5.84-7.14-3.52-8-1.55-17 6.59-21.81 3.51-2.06 7.54-2.5 11.58-2.21a32.54 32.54 0 0 1 10 2.45c1.24.51 2.56.84 3.78 1.41a2.73 2.73 0 0 1 1.37 1.37 15.34 15.34 0 0 1 .81 4 27.45 27.45 0 0 1-.62 8.66c-.28 1-.73 1.35-1.93 1a8.29 8.29 0 0 1 .19-2.13c1.47-4-.6-6.77-3.17-9.32a17.93 17.93 0 0 0-3.81-3 15.08 15.08 0 0 0-11.52-1.65 11.1 11.1 0 0 0-7.11 5.2 10.09 10.09 0 0 0-.36 9.36 22.4 22.4 0 0 0 4.11 6 77.1 77.1 0 0 0 9.48 9c3 2.48 6.2 4.75 9 7.4a50.4 50.4 0 0 1 8.16 9.2 25.13 25.13 0 0 1 4 15.81c-.43 6.61-3.56 11.49-9 15.16-3.78 2.56-8 3.42-12.41 3.82a33.35 33.35 0 0 1-17.55-3.08 21.63 21.63 0 0 0-5.26-1.35c-1.72-.31-1.82-.38-2.13-2.1-.59-3.38-1.43-6.73-1.9-10.13a36.77 36.77 0 0 1-.05-6.47c.03-.68.52-1.36 1.77-1.32zM1183.24 958.05c1.23.44 1.49 1.48 1.66 2.52a17.2 17.2 0 0 1 .21 3c-.12 3.95 1.42 7.49 2.59 11.13a20.71 20.71 0 0 1 .53 3c-.91.48-1.39.45-1.64-.37a13.68 13.68 0 0 0-.8-2.28 8.16 8.16 0 0 0-6.75-4.6c-4.3-.43-8.64-.47-13-.67a9 9 0 0 0-1.2.14c0 .68-.15 1.33-.15 2v25.41a10 10 0 0 0 .14 1.81 2.15 2.15 0 0 0 1.67 1.85 10.44 10.44 0 0 0 2.35.52 79.68 79.68 0 0 0 11.76-.4 60.9 60.9 0 0 0 7.57-1.34c4.9-1.39 8.56-4.1 10.28-9.05a.94.94 0 0 1 .23-.32 2.44 2.44 0 0 1 .49-.24 3.62 3.62 0 0 1 0 3.4 52.16 52.16 0 0 1-2.73 4.67c-1.21 2-2.52 3.83-3.68 5.8a2 2 0 0 1-2.28 1.26c-6.53-1.05-13.11-.47-19.67-.64-2.57-.07-5.13-.38-7.7-.4s-5.4.21-8.11.29c-2.37.07-4.74.1-7.1.11-.91 0-1.64-.23-1.28-1.65h4.58a4.65 4.65 0 0 0 4.07-2.27 4.9 4.9 0 0 0 .82-1.82 42.37 42.37 0 0 0 .75-6.23q.11-23 0-45.94a26.25 26.25 0 0 0-.84-5.6 3 3 0 0 0-3-2.52c-1.74-.06-3.49 0-5.3 0-.31-.92-.34-1.57.76-1.65.75-.06 1.49-.07 2.24-.06 6.64 0 13.28.08 19.92.06 5.81 0 11.64.26 17.43-.63 2-.3 2-.11 2.61 1.67.92 2.46 1.86 4.91 2.86 7.33a13.76 13.76 0 0 1 .81 5.47c-.52-.37-1-.51-1-.74-1-4.3-4-6.58-7.86-8.23-4.34-1.85-8.88-2.28-13.46-2.48a25.55 25.55 0 0 0-4.82.56 2.56 2.56 0 0 0-2.24 2.28 14.11 14.11 0 0 0-.2 2.42v19.72c0 .73.12 1.45.19 2.3.74.05 1.33.12 1.92.12 2.85 0 5.7-.08 8.54 0a14.82 14.82 0 0 0 5.53-1 4 4 0 0 0 2.58-5c-.52-1.58-.52-1.58-.28-2.71zM504.06 1033.85c-.07-1.24.67-1.48 1.36-1.76a15.91 15.91 0 0 0 8.32-7.59 25.27 25.27 0 0 0 1.57-3.72 39.91 39.91 0 0 0 2.21-13.1c0-23.64.15-47.29.21-70.93 0-2.3-.21-4.6-.3-6.9a6.82 6.82 0 0 0-6.36-6.41h-3.65c-.34-1.27.18-1.71 1.15-1.7a71.78 71.78 0 0 1 8.93.23 47.5 47.5 0 0 0 9.31.1c2.43-.16 4.87-.26 7.3-.36a2.58 2.58 0 0 1 2.78 1.53 6.33 6.33 0 0 1-1.36.31c-.81 0-1.63-.17-2.43-.12-3.94.24-5.2 1.53-6.4 5.28-1 3-.69 6.17-.7 9.26v63.42a49.31 49.31 0 0 1-.5 7.48 31.55 31.55 0 0 1-12.32 20.51 28.47 28.47 0 0 1-8.17 4.37 5.49 5.49 0 0 1-.95.1zM682.08 939.94c.73 3.52 1.53 6.73 2 10a16.24 16.24 0 0 1-.43 8.41 9.8 9.8 0 0 1-.91 1.36c-.23-.75-.48-1.12-.41-1.44.68-3.33-1-5.92-2.77-8.37a20.71 20.71 0 0 0-6.25-6.22 31.69 31.69 0 0 0-19-4.3 26.62 26.62 0 0 0-10 3.15 25.88 25.88 0 0 0-10.55 10.74c-2.87 5.09-3.92 10.55-4.2 16.27a38.8 38.8 0 0 0 1.3 12.05 31 31 0 0 0 6.65 12.58 26 26 0 0 0 11.67 7.61 24 24 0 0 0 7.32 1.32c3.65 0 7.33.26 10.92-.59 4.27-1 8.56-2.1 12.39-4.27a14.91 14.91 0 0 0 6.3-6.35c.14-.29.32-.57.47-.86 1.35.72 1.35.72.79 1.87a18.73 18.73 0 0 1-8.55 8.55 38.85 38.85 0 0 1-10.58 3.25 65.34 65.34 0 0 1-16.4.57 37.23 37.23 0 0 1-20-7 30 30 0 0 1-7.9-9.08c-3.61-6.12-4.09-12.74-3.82-19.57a27.94 27.94 0 0 1 2.52-10.78 42.7 42.7 0 0 1 4.73-8.4 35.91 35.91 0 0 1 30.38-14 46.33 46.33 0 0 1 13.25 2.72c2.49.86 5 1.79 7.69 1.47 1.12-.14 2.22-.45 3.39-.69zM1609.69 938.71c0-1.19.61-1.2 1.13-1.19 2.43.09 4.87.08 7.28.37a20.65 20.65 0 0 0 5 0c2.6-.3 5.25-.3 7.88-.39.6 0 1.3 0 1 1.24-.51 0-1.08 0-1.64.07-4.08.41-5.28 1.36-6.82 5.25a16.41 16.41 0 0 0-.92 5.76c-.1 8.06 0 16.12 0 24.19 0 2.84 0 5.69-.14 8.53a25 25 0 0 1-2.7 10.91 20.22 20.22 0 0 1-6 7c-4.76 3.43-10.11 4.63-15.78 4.88a65.06 65.06 0 0 1-7.52 0 25.42 25.42 0 0 1-10.33-2.59c-5.06-2.69-8.7-6.68-10.13-12.43a40.37 40.37 0 0 1-1.26-10v-29.47a22.65 22.65 0 0 0-2-9.41 4.1 4.1 0 0 0-3.94-2.65c-1.08 0-2.17.12-3.25.16-.73 0-.73 0-1-1.26.87 0 1.72-.16 2.56-.12 2.9.15 5.79.41 8.69.53 1.47.06 3-.12 4.44-.17 3.51-.11 7-.23 10.54-.32.81 0 1.53.18 1.28 1.48-.62-.08-1.25-.16-1.88-.26a5.42 5.42 0 0 0-5.45 2.32 12.11 12.11 0 0 0-2.54 7.72c0 11.11 0 22.22.07 33.33a21.53 21.53 0 0 0 6.07 15 18.26 18.26 0 0 0 7.59 4.44 24.26 24.26 0 0 0 16.28-.21 18.07 18.07 0 0 0 5.76-2.86c3.71-3 5.7-7 6.83-11.58s1.11-9.35 1.12-14.07v-16.66a75.73 75.73 0 0 0-.43-8.52 12.59 12.59 0 0 0-3.23-7.07c-1.27-1.37-3.08-1.59-4.84-1.8-.5-.08-1.08-.11-1.72-.15zM578.05 936.59c1.2 3.1 2.41 6.24 3.63 9.38q2.58 6.59 5.17 13.15t5.28 13.32c1.48 3.75 3 7.51 4.46 11.25 1.7 4.25 3.32 8.53 5.13 12.73a52.39 52.39 0 0 0 3.2 5.83 2 2 0 0 0 1.32.74 25.66 25.66 0 0 0 3 .08H611c.45.95.09 1.44-.74 1.49a20.55 20.55 0 0 1-3.84 0 56.26 56.26 0 0 0-14.78 0 20.2 20.2 0 0 1-3.65.08c-1 0-1-.1-.86-1.58h3.18a3.66 3.66 0 0 0 3.69-4.72 21.17 21.17 0 0 0-1.06-3.48c-1.68-4.18-3.42-8.33-5.12-12.49-.92-2.25-1.81-4.5-2.71-6.75a1.9 1.9 0 0 0-2-1.38c-5.62.05-11.24 0-16.87 0-1.47 0-1.69.27-2.18 1.59-1.72 4.75-3.5 9.48-5.23 14.22-.81 2.21-1.65 4.41-2.31 6.66a5.8 5.8 0 0 0 1.7 5.74c.59.62 1.83.69 2.8.85a8.67 8.67 0 0 0 1.81-.15c.64 0 .64 0 .93 1.45-1.85 0-3.66.13-5.45 0a46.78 46.78 0 0 0-10.71 0 21.18 21.18 0 0 1-3.65 0c-.24 0-.47-.36-.71-.55a10.16 10.16 0 0 1 .75-.72c.08-.07.26 0 .4 0 3 .34 4.83-1.17 6.59-3.43 2.51-3.22 3.68-7 5.06-10.69 1.8-4.85 3.68-9.67 5.51-14.52 1.71-4.52 3.37-9.06 5.08-13.59 1.07-2.83 2.18-5.64 3.26-8.47 1.89-5 3.8-9.91 5.64-14.88.47-1.08.99-1.75 2.52-1.16zm5.53 35.08c-3-7.35-5.88-14.53-8.79-21.74-.33.12-.63.13-.67.25-2.71 7.12-5.39 14.25-8.09 21.4 1.74.51 15.09.59 17.55.09zM1553.88 1003c.33 1.13-.17 1.47-.84 1.51a23.85 23.85 0 0 1-4 .05 55.83 55.83 0 0 0-14.78 0 19.33 19.33 0 0 1-3.65 0c-.78 0-.78-.11-.94-1.55h3.2c2.85-.08 4.26-1.62 3.73-4.43a33.54 33.54 0 0 0-1.77-5.78c-2.16-5.59-4.43-11.14-6.64-16.71-.59-1.5-1-1.86-2.73-1.86h-16.06c-1.75 0-2 .19-2.64 1.85q-2.07 5.61-4.1 11.23c-1 2.77-2.07 5.54-3 8.35a7.31 7.31 0 0 0 .2 5.34 3.78 3.78 0 0 0 3.89 2.31c.54 0 1.07-.13 1.61-.15s.65 0 .82 1.43h-5.22c-.81 0-1.62-.16-2.43-.15-2.7 0-5.4.08-8.1.12-1.21 0-2.43.11-3.65 0-.35 0-.67-.47-1-.72l1.11-.6h.2c3.57.5 5.67-1.58 7.37-4.28a51.56 51.56 0 0 0 4.51-9.88c2.11-5.75 4.33-11.47 6.47-17.21s4.12-11.23 6.21-16.83c1.65-4.4 3.35-8.8 5-13.19.58-1.49 1.26-3 1.82-4.45.37-1 1-1.42 2.17-1 1.39 3.52 2.84 7.14 4.27 10.77q2.53 6.39 5 12.77c2.27 5.76 4.5 11.54 6.77 17.3 1.59 4 3.19 8 4.83 12 1.19 2.92 2.41 5.84 3.7 8.72.57 1.29 1.39 2.47 2 3.74a1.92 1.92 0 0 0 2 1.16zm-27.57-31.17c-1.23-3.14-2.32-6-3.43-8.74-1.6-4-3.23-8-4.82-12-.19-.48-.09-1.14-.86-1.17s-.75.58-.93 1.08c-.67 2-1.37 3.94-2.09 5.9-1.63 4.48-3.29 9-4.92 13.43a8.75 8.75 0 0 0-.27 1.49zM804.3 940v10.77a7.14 7.14 0 0 1-1.17 3.55c-.89-.06-.94-.53-.77-1.14 1.43-4.88-1.11-8.3-4.37-11.31-3.84-3.54-8.43-3.45-12.92-1.75a6.65 6.65 0 0 0-4.26 5.72 10 10 0 0 0 3.2 8.59c2.25 2.21 4.7 4.23 7.07 6.33 3 2.63 5.83 5.38 8.93 7.85a43.12 43.12 0 0 1 6.51 6.87 18.57 18.57 0 0 1 3.8 15.07 15.78 15.78 0 0 1-2.63 6.73 20.38 20.38 0 0 1-3.54 3.59c-3.69 3.2-8.1 4.32-12.89 4.52a29.34 29.34 0 0 1-12.46-2.22c-2.56-1-5.16-2-7.76-3a2.06 2.06 0 0 1-1.5-1.92c-.42-3.9-1.08-7.78-.78-11.72a16.61 16.61 0 0 1 .71-3.33c.08-.28.58-.44.89-.66l.38.27a8.35 8.35 0 0 1-.35 1.68 5.27 5.27 0 0 0 0 4.07 19 19 0 0 0 4.39 7.66 40.56 40.56 0 0 0 5.4 4.47c3.4 2.34 7.3 2.51 11.29 2.3a12.1 12.1 0 0 0 6.62-2.76 12.76 12.76 0 0 0 5.16-9.46 14.65 14.65 0 0 0-4.77-12.58c-4-3.79-8.25-7.33-12.4-11a82.24 82.24 0 0 1-8.2-7.75 13.36 13.36 0 0 1-2.64-14.17 12.26 12.26 0 0 1 10.9-8.39 30 30 0 0 1 13.59 1.5c1.48.62 2.96 1.11 4.57 1.62zM1359.12 938.72c-.21-.72 0-1.09.74-1.12a38.13 38.13 0 0 1 3.85-.16c2.29.13 4.58.43 6.87.58a30.75 30.75 0 0 0 3.84 0c3.31-.17 6.61-.42 9.92-.59.68 0 1.53-.16 1.82 1.16l-2 .1a17.91 17.91 0 0 0-3.21.25c-2.64.68-3.82 3.1-4.1 5.91a26.87 26.87 0 0 0 0 2.84v48.17c0 2.06.44 3.92 2.33 4.82a17.28 17.28 0 0 0 5.59 1.68 39.25 39.25 0 0 0 20.14-3.46c1.58-.71 3.07-1.6 4.58-2.45a9.08 9.08 0 0 0 4.39-6 6.19 6.19 0 0 1 .47-1.55c.13-.25.54-.36 1.17-.74a23.87 23.87 0 0 1-1.55 6.38 15 15 0 0 1-3.55 5.57 10.87 10.87 0 0 0-1.93 3.07 3.21 3.21 0 0 1-3.49 1.82c-3.17-.16-6.36-.18-9.54-.24-5.08-.1-10.15-.17-15.23-.28-1.42 0-2.84-.26-4.25-.21-4.26.16-8.52.43-12.78.62a16.59 16.59 0 0 1-2.82-.07c-.28 0-.5-.51-.75-.77.32-.2.62-.51 1-.55a12.69 12.69 0 0 1 1.61.11c4.33.06 6.41-2.5 7-6.37a9.63 9.63 0 0 0 0-1.42v-48.38a12.31 12.31 0 0 0-2.24-7.23 3.12 3.12 0 0 0-2.88-1.53c-1.64.08-3.25.04-5 .04zM1134 938.82h-2.59c-4.23 0-6.83 2.61-6.84 6.85v49.17a10.27 10.27 0 0 0 2.56 7.25 2.78 2.78 0 0 0 1.67.89c1.41.14 2.84 0 4.26.07.32 0 .65.09 1 .13.38 1.3-.46 1.51-1.31 1.5-2 0-3.91-.22-5.87-.24-4.19-.05-8.38 0-12.57 0-1.89 0-3.78.18-5.67.18-.7 0-1.53-.14-1.44-1.52a29 29 0 0 1 3.95 0 3.77 3.77 0 0 0 4.48-2.81 13.22 13.22 0 0 0 .86-3.06c.25-3.17.48-6.34.49-9.51q.09-18.2 0-36.38c0-2.29-.29-4.58-.49-6.87a8.53 8.53 0 0 0-2-4.13 3.83 3.83 0 0 0-3.4-1.47c-1.22 0-2.44.08-3.66 0-.26 0-.5-.45-.76-.69.23-.2.45-.54.7-.57a22 22 0 0 1 3.24-.16c2.91.12 5.81.36 8.71.49 1.08.05 2.16-.07 3.24-.1 3.44-.09 6.89-.19 10.34-.24.88-.03.88.07 1.1 1.22zM1081.49 1037.89v3.79a30.82 30.82 0 0 0-15.36-4.38 19.39 19.39 0 0 0-13.75 32.82q5.4 5.45 14.68 5.45a25.61 25.61 0 0 0 11.89-2.67v-11.7h-9.16v-2.79h12.54V1075a35.43 35.43 0 0 1-15.39 3.66 23.55 23.55 0 0 1-16.84-6.39 22.2 22.2 0 0 1-.12-31.77 23.22 23.22 0 0 1 16.65-6.31 35.86 35.86 0 0 1 14.86 3.7zM1128.67 1073.15v2.54q-3.95 3-5.77 3a1.53 1.53 0 0 1-1.46-.7 7.76 7.76 0 0 1-.59-2.84 14.48 14.48 0 0 1-8.94 3.54 7.64 7.64 0 0 1-5.46-2.11 6.76 6.76 0 0 1-2.23-5.12 8.26 8.26 0 0 1 4.31-7.34q4.31-2.68 12.32-3.09v-3.63q0-5.84-6.33-5.83-4 0-8.72 3.63v-3.2a17.51 17.51 0 0 1 9.22-3 10.3 10.3 0 0 1 6.39 1.91 6.54 6.54 0 0 1 2.51 5.54v17.78c0 1 .23 1.46.68 1.46s1.94-.85 4.07-2.54zm-7.82-.68v-8.91a17.54 17.54 0 0 0-9.73 2.06c-2.58 1.52-3.86 3.46-3.86 5.82a4.2 4.2 0 0 0 1.61 3.35 6 6 0 0 0 4 1.37q3.95 0 7.98-3.69zM1164.71 1051.42v3.29q-4.35-2.91-7.83-2.91a6.8 6.8 0 0 0-4.34 1.39 4.22 4.22 0 0 0-1.77 3.43 4 4 0 0 0 1.08 2.68c.71.82 2.69 1.85 5.92 3.1s5.35 2.55 6.35 3.89a7.42 7.42 0 0 1 1.49 4.5 7.06 7.06 0 0 1-2.7 5.6 10 10 0 0 1-6.68 2.28 16.29 16.29 0 0 1-8.56-2.6v-3a20.14 20.14 0 0 0 9 2.6 6.6 6.6 0 0 0 4.33-1.39 4.44 4.44 0 0 0 1.69-3.57 4 4 0 0 0-1.11-2.74c-.73-.84-2.72-1.9-6-3.19s-5.34-2.55-6.3-3.8a6.64 6.64 0 0 1-1.45-4.18 7 7 0 0 1 2.69-5.54 9.74 9.74 0 0 1 6.53-2.28 15.37 15.37 0 0 1 7.66 2.44zM1193.1 1040.1v9.46h8v2.44h-8v17c0 2.73.23 4.53.67 5.39s1.64 1.28 3.59 1.28a12.61 12.61 0 0 0 5.21-1.39v2.91a13.37 13.37 0 0 1-5.9 1.46 7 7 0 0 1-4.71-1.61 5.55 5.55 0 0 1-1.9-4.47V1052h-7.69v-2.48h7.69v-6.8l2.08-2.66zM1242.48 1052.39l-1.76 2.85q-3.57-3.26-5.75-3.26-4.28 0-9.15 8.2v17.93h-3v-28.55h3v7.51h.12q5.13-8.07 10-8.07 2.79 0 6.54 3.39zM1273.18 1049a13.84 13.84 0 0 1 10.35 4.26 15.61 15.61 0 0 1 0 21.18 14.81 14.81 0 0 1-20.73 0 15.53 15.53 0 0 1 0-21.18 13.94 13.94 0 0 1 10.38-4.26zm0 26.69a10.69 10.69 0 0 0 8-3.36 12.68 12.68 0 0 0 0-16.93 10.6 10.6 0 0 0-8-3.42 10.71 10.71 0 0 0-8.08 3.39 12.69 12.69 0 0 0 0 17 10.76 10.76 0 0 0 8.08 3.32zM1334.7 1062.78h-22.5a11.28 11.28 0 0 0 3.32 9.59 11.14 11.14 0 0 0 8.07 3.32q5.43 0 10.61-4.25v3.45a17.55 17.55 0 0 1-11 3.78 13.45 13.45 0 0 1-10.21-4.28 15.26 15.26 0 0 1-4-10.89 14.88 14.88 0 0 1 3.72-10.38 12.71 12.71 0 0 1 18.34-.41q3.64 3.71 3.65 10.07zm-22.1-2.45h18.5q-1.62-8.34-9-8.35a9 9 0 0 0-6.06 2.19 10.7 10.7 0 0 0-3.44 6.16zM1359.87 1049.56v5h.12q3.57-5.54 9.41-5.53a10 10 0 0 1 7.72 3.11q2.89 3.11 2.89 8.59v17.41h-3v-16.26q0-9.87-7.76-9.87-5.68 0-9.34 6.12v20h-3v-28.55zM1409.59 1040.1v9.46h8v2.44h-8v17q0 4.1.67 5.39c.44.85 1.64 1.28 3.58 1.28a12.57 12.57 0 0 0 5.21-1.39v2.91a13.33 13.33 0 0 1-5.89 1.46 7.05 7.05 0 0 1-4.72-1.61 5.57 5.57 0 0 1-1.89-4.47V1052h-7.7v-2.48h7.7v-6.8l2.08-2.66zM1463.53 1062.78H1441a12.54 12.54 0 0 0-.09 1.49 10.84 10.84 0 0 0 3.41 8.1 11.18 11.18 0 0 0 8.07 3.32q5.43 0 10.61-4.25v3.45a17.54 17.54 0 0 1-11 3.78 13.44 13.44 0 0 1-10.21-4.28 15.27 15.27 0 0 1-4-10.89 14.84 14.84 0 0 1 3.73-10.38 12.71 12.71 0 0 1 18.34-.41q3.67 3.71 3.67 10.07zm-22.1-2.45h18.5q-1.62-8.34-9-8.35a9 9 0 0 0-6.07 2.19 10.76 10.76 0 0 0-3.43 6.16zM1505.43 1052.39l-1.77 2.85q-3.57-3.26-5.74-3.26c-2.85 0-5.91 2.73-9.15 8.2v17.93h-3v-28.55h3v7.51h.12q5.11-8.07 10-8.07c1.85 0 4.04 1.13 6.54 3.39zM1536.13 1049a13.84 13.84 0 0 1 10.35 4.26 15.61 15.61 0 0 1 0 21.18 14.81 14.81 0 0 1-20.73 0 15.5 15.5 0 0 1 0-21.18 13.94 13.94 0 0 1 10.38-4.26zm0 26.69a10.72 10.72 0 0 0 8-3.36 12.71 12.71 0 0 0 0-16.93 10.61 10.61 0 0 0-8-3.42 10.73 10.73 0 0 0-8.09 3.39 12.72 12.72 0 0 0 0 17 10.78 10.78 0 0 0 8.09 3.32zM1576.88 1034.76v43.35h-3.07v-43.35zM1614.56 1049a13.84 13.84 0 0 1 10.35 4.26 15.61 15.61 0 0 1 0 21.18 14.81 14.81 0 0 1-20.73 0 15.5 15.5 0 0 1 0-21.18 13.94 13.94 0 0 1 10.38-4.26zm0 26.69a10.7 10.7 0 0 0 8-3.36 12.71 12.71 0 0 0 0-16.93 10.61 10.61 0 0 0-8-3.42 10.75 10.75 0 0 0-8.09 3.39 12.72 12.72 0 0 0 0 17 10.8 10.8 0 0 0 8.09 3.32zM1674.3 1049.56v2.44h-6.48q3.95 3.6 3.94 7.58a9.28 9.28 0 0 1-1.54 5.65 9.16 9.16 0 0 1-3.66 3 37.45 37.45 0 0 1-5.66 1.86 12.41 12.41 0 0 0-4.44 1.73 2.41 2.41 0 0 0-.9 1.86 2.25 2.25 0 0 0 1.16 2q1.17.75 7.23 1.09c4 .23 6.77 1 8.18 2.33a7.38 7.38 0 0 1-1.27 11.37q-3.39 2.22-9.4 2.22t-9.25-2.09a6.34 6.34 0 0 1-3.26-5.54q0-5.6 8.32-6.92v-.13c-3.09-.72-4.63-2.08-4.63-4.06s1.91-3.56 5.71-4.66v-.12a10.63 10.63 0 0 1-5.69-3.71 9.89 9.89 0 0 1 1.19-13.1q3.14-2.84 9-2.84zm-12.66 40.63a14.09 14.09 0 0 0 7.06-1.52 4.54 4.54 0 0 0 2.62-4q0-5-9.09-5-10.37 0-10.36 5.28t9.77 5.24zm-.43-22.88a7.68 7.68 0 0 0 7.63-7.63 7.24 7.24 0 0 0-2.25-5.35 7.46 7.46 0 0 0-5.44-2.22 7.41 7.41 0 0 0-7.51 7.45 7.58 7.58 0 0 0 2.2 5.49 7.21 7.21 0 0 0 5.37 2.26zM1717.85 1049.56l-21.37 43.17h-3.12l10-20.17-12-23h3.2l10.35 19.94 9.87-19.94z" transform="translate(-275.43 -897.31)"/>
  <path fill="#fff" d="M734.44 25.64h5.2v156.12h-5.2z"/>
</svg>
