<?xml version="1.0" encoding="utf-8"?>
<!-- Generator: Adobe Illustrator 24.1.2, SVG Export Plug-In . SVG Version: 6.00 Build 0)  -->
<svg version="1.1" id="Layer_1" xmlns="http://www.w3.org/2000/svg" xmlns:xlink="http://www.w3.org/1999/xlink" x="0px" y="0px"
	 viewBox="0 0 370 138" style="enable-background:new 0 0 370 138;" xml:space="preserve">
<style type="text/css">
	.st0{fill:#00649D;}
	.st1{fill:#231F20;}
</style>
<path class="st0" d="M50.1,87.8c0,12.3-11.8,35.1-27.8,35.1c-6.2,0-8.7-3.1-8.7-7.8c0-3.6,2.6-6.7,6-6.7c7.4,0,6,9.1,9,9.1
	c3.5,0,8.3-7.4,8.3-20.1V24.1c0-6-1.3-8-6.2-8.4c-4.4-0.4-5.2-0.3-5.2-2c0-1.1,0.4-1.8,3.2-1.8c4.2,0,9.2,0.5,14.5,0.5
	c9.9,0,12.1-0.5,14.2-0.5c1.2,0,2.5,0.4,2.5,1.8c0,1.6-1.1,1.6-5,2c-3,0.3-5,1.7-5,5.9L50.1,87.8z"/>
<path class="st0" d="M94.9,82.9c0,5.4,2.4,7,4.4,7c2.8,0,3.2-4.3,5.4-4.3c0.8,0,1.2,0.5,1.2,1.6c0,4.4-5.9,10.7-11.7,10.7
	c-8.6,0-9.5-10-11.1-10S77.4,98.5,67,98.5c-7,0-11.3-3.8-11.3-11.7c0-14.8,28.2-24.1,28.2-32.6V42.7c0-3.5-2-5.9-5.6-5.9
	c-5.1,0-9.5,4.3-10.3,11.4c-0.7,5.9-3.3,9.5-8.3,9.5c-3.2,0-4.8-1.8-4.8-4.4c0-5.2,10.7-19.7,26.8-19.7c10.5,0,13.3,1.9,13.3,9.1
	L94.9,82.9z M83.9,64.4c0-1.6-0.4-1.9-1.3-1.9c-1.8,0-14.1,10.6-14.5,20c0,4.2,2.3,7.4,6,7.4c6.3,0,9.8-4.8,9.8-16.9L83.9,64.4z"/>
<path class="st0" d="M132.3,91.8c11.5,0,12.3-11,15-11c0.8,0,1.5,0.5,1.5,2.4c0,4-6.6,15.3-21,15.3c-15,0-25.2-13.4-25.2-33.5
	c0-17.7,11.3-31.4,27.9-31.4c4.7,0,11.3,1.1,13.7,2.5c1.9,1.1,2.1,1.5,2.1,7.2c0,9.2-0.3,9.8-3,9.8c-2.4,0-3.2-0.9-5.2-4.7
	c-4.8-8.8-5.5-11.7-9.1-11.7c-6.3,0-14.1,9.1-14.1,24.9C114.8,78.7,122.4,91.8,132.3,91.8"/>
<path class="st0" d="M166.2,69.9v17.7c0,3.6,1.2,4.6,5.5,6c1.5,0.5,2.5,0.5,2.5,1.6c0,0.8-0.6,1.5-1.3,1.6c-4,0-8-0.5-12.1-0.5
	c-3.8,0-7.5,0.5-11.3,0.5c-1.2,0-1.6-0.4-1.6-1.5s0.5-1.5,1.9-1.7c4.6-0.8,5.4-2,5.4-5.4V17.8c0-7.1-2.3-7-3.9-7.2s-3-0.5-3-1.9
	c0-1.1,1.8-1.3,3-1.6c3.5-0.8,7-2,10.2-3.6c1.7-0.9,3.1-2,3.6-2c0.8,0,1.1,0.4,1.1,1.9v59.3c0,1.2,0.3,1.3,0.5,1.3s1.4-1.1,5.1-4.8
	c14.9-14.9,16.4-15.5,16.4-18.1c0-1.6-1.5-2.3-5.1-2.5c-1.7-0.1-3.2-0.5-3.2-1.7c0-0.7,0.8-1.5,2.3-1.5c4.2,0,7.8,0.5,11.4,0.5
	c4,0,10.1-0.5,11.1-0.5c1.5,0,1.6,0.4,1.6,1.1c0,1.5-0.5,1.1-4.3,2.2c-6.2,1.7-6.7,3.5-20.9,17.7c20.8,33.8,20,36.5,24.9,37.5
	c1.7,0.4,2.4,0.8,2.4,1.6c0,1.1-0.8,1.6-2.4,1.6c-3.8,0-7.5-0.5-11.3-0.5c-2.8,0-5.6,0.5-9,0.5c-1.5,0-2-0.7-2-1.6s0.5-1.2,2.1-1.6
	c2.6-0.7,2.8-1.1,2.8-2.8c0-1.2-2.4-4.7-15.4-27.3L166.2,69.9z"/>
<path class="st0" d="M204,80.1c0-1.7,0.7-2.6,2-2.6s2,1.2,3.8,6.2c2.4,7.1,6,11.5,12.5,11.5c6.2,0,9.9-5.1,9.9-11.7
	c0-15.7-28.4-15-28.4-32c0-11.8,11.4-18,20.6-18c4.7,0,10.2,0.9,12.3,1.9c1.6,0.7,1.7,1.5,1.7,9.5c0,4.3-0.4,5.1-2.4,5.1
	c-3.8,0-1.7-13.3-13.8-13.3c-5.6,0-9.1,3.8-9.1,9c0,14.1,28.4,12.5,28.4,32.7c0,11.3-9.6,20-23.6,20c-5.6,0-13.9-2.2-13.9-4.6
	L204,80.1z"/>
<path class="st0" d="M268.5,98.5c-14.9,0-25.8-15.2-25.8-32.5s10.9-32.5,25.8-32.5c14.9,0,25.7,15.2,25.7,32.4
	S283.4,98.5,268.5,98.5 M281.9,66c0-12.5-4.7-29.2-13.4-29.2S255.1,53.6,255.1,66s4.7,29.2,13.4,29.2S281.9,78.5,281.9,66"/>
<path class="st0" d="M329.9,51.2c0-7.8-3.5-10.9-8.3-10.9c-5.1,0-9.2,3.5-11.5,10v37.3c0,4.2,1.6,5.2,4.4,6s3.1,1.2,3.1,1.9
	s-0.4,1.3-1.6,1.3c-2.5,0-6.2-0.5-11.7-0.5c-4.3,0-8.4,0.5-10.6,0.5c-1.5,0-2.1-0.3-2.1-1.5s1.1-1.6,2.8-2c3.6-0.8,4.7-1.8,4.7-6.3
	V49.5c0-4-0.7-4.4-2.8-5.1c-1.9-0.5-4,0-4-1.5c0-1.9,2.7-1.6,8.2-4.6c7.6-4.2,6.8-5.6,8.6-5.6c0.8,0,1.1,0.5,1.1,2.1v9.3h0.3
	c4.4-5.4,8-10.6,15.8-10.6c8.3,0,14.8,4.6,14.8,16.9v38.3c0,2.7,1.2,4.3,4.4,4.8c2.7,0.5,3.1,1.1,3.1,2.1c0,0.5-0.7,1.1-1.7,1.1
	c-1.6,0-4.7-0.5-11.5-0.5c-3.2,0-6.6,0.5-9.8,0.5c-1.6,0-2.4-0.4-2.4-1.3s0.4-1.3,2.3-1.9c4-1.2,4.7-1.9,4.7-4.8L329.9,51.2z"/>
<path class="st1" d="M69.8,122.1c0,1.1,0,1.1,1.2,1.1h7.9c1.2,0,1.3,0,1.3-1.1v-5.1c0-1.5,0-2.5-1.8-2.6c-0.8-0.1-1.3-0.1-1.3-0.6
	s0.5-0.5,0.8-0.5c1.2,0,2.3,0.2,4.2,0.2s3-0.2,4.3-0.2c0.3,0,0.8,0,0.8,0.5s-0.6,0.6-1.3,0.6c-1.8,0.1-1.8,1.1-1.8,2.6v15.5
	c0,1.5,0,2.5,1.8,2.6c0.8,0,1.3,0.1,1.3,0.6s-0.5,0.5-0.8,0.5c-0.6,0-1.8-0.1-4.3-0.1c-2.2,0-3.8,0.1-4.3,0.1c-0.3,0-0.8,0-0.8-0.6
	s0.6-0.6,1.3-0.6c1.8-0.1,1.8-1.1,1.8-2.6v-7.1c0-0.9-0.2-0.9-1.2-0.9h-7.8c-1.3,0-1.4,0-1.4,0.8v7.1c0,1.5,0,2.5,1.8,2.6
	c0.8,0,1.3,0.1,1.3,0.6s-0.5,0.5-0.8,0.5c-0.6,0-1.5-0.1-4.3-0.1c-2.2,0-3.6,0.1-4.3,0.1c-0.3,0-0.8,0-0.8-0.6s0.5-0.6,1.3-0.6
	c1.8-0.1,1.8-1.1,1.8-2.6v-15.5c0-1.5,0-2.5-1.8-2.6c-0.8-0.1-1.3-0.1-1.3-0.6s0.4-0.5,0.8-0.5c1.1,0,2.5,0.2,4.2,0.2
	s3.2-0.2,4.3-0.2c0.3,0,0.8,0,0.8,0.5s-0.6,0.6-1.3,0.6c-1.8,0.1-1.8,1.1-1.8,2.6V122.1z"/>
<path class="st1" d="M91.9,116.9c0-1.5,0-2.5-1.8-2.6c-0.8,0-1.3-0.1-1.3-0.6s0.5-0.5,0.7-0.5c0.3,0,0.6,0.1,0.9,0.1
	c0.8,0,2.4,0.1,5.5,0.1h1.8c3.8,0,5.6,0,6.6-0.1s1-0.1,1.1-0.1c0.4,0,0.4,0.3,0.4,1.1v3.4c0,0.2,0,0.6-0.4,0.6s-0.5-0.1-1.1-1.5
	c-0.4-1-1.3-2.3-6.5-2.3c-1.8,0-2,0.3-2,2.1v5.3c0,1.2,0,1.5,2.1,1.5c4.1,0,4.4-0.8,5.1-2.8c0.2-0.5,0.4-0.6,0.6-0.6
	s0.4,0.1,0.4,0.5s-0.3,4.3-0.3,5.1c0,0.3,0.1,1.5,0.1,1.8s0,0.7-0.4,0.7s-0.5-0.2-0.7-0.9c-0.8-2.8-1.8-2.8-4.8-2.8
	c-1.8,0-2,0-2,1.1v6.3c0,2.6,0.8,3,3.8,3c1.6,0,3.9,0,5.5-3.1c0.7-1.3,0.7-1.4,1.1-1.4s0.4,0.3,0.4,0.6c0,0.5-0.4,2.8-0.5,4.2
	c0,0.7-0.4,1.1-1.5,1.1c-1.9,0-4.4,0-6.6-0.1l-4-0.1h-0.4c-1.5,0-2.4,0-3,0.1s-0.9,0.1-1.1,0.1s-0.8,0-0.8-0.6s0.6-0.6,1.3-0.6
	c1.8-0.1,1.8-1.1,1.8-2.6L91.9,116.9z"/>
<path class="st1" d="M114.5,127.6c-1.1,0-1.1,0-1.4,1l-1.2,3.9c-0.1,0.5-0.3,1-0.3,1.5c0,0.9,0.9,1,1.8,1s1.4,0.1,1.4,0.6
	s-0.4,0.5-1.3,0.5c-0.4,0-2.5-0.1-3.6-0.1c-0.4,0-2.6,0.1-3,0.1c-0.2,0-0.7,0-0.7-0.6s0.5-0.6,1.1-0.6c1.2-0.1,1.5-0.1,2.2-1.4
	c1.2-2.3,4.4-10.8,6.8-17.2c1.4-3.6,1.4-3.6,1.7-3.6s0.5,0.3,1.1,1.8c0.4,1,0.8,2,1.1,2.7l5.7,13.9c1.2,2.8,1.5,3.6,3,3.8
	c0.6,0.1,1,0.1,1,0.6s-0.6,0.5-0.8,0.5c-0.6,0-3.7-0.1-4.3-0.1c-2.2,0-4.1,0.1-4.2,0.1c-0.4,0-0.8,0-0.8-0.5s0.6-0.6,1.3-0.7
	c1-0.1,1.3-0.3,1.3-0.8c0-0.4-0.1-0.7-0.2-1.1l-1.6-4.4c-0.4-1.1-0.5-1.1-1.5-1.1L114.5,127.6z M118.4,126.3c0.8,0,0.8-0.2,0.8-0.3
	c0-0.2-0.1-0.5-0.2-0.7l-2.6-6.3l-2.3,6.2c-0.1,0.2-0.1,0.5-0.2,0.7c0,0.4,0.2,0.4,0.9,0.4H118.4z"/>
<path class="st1" d="M133.3,116.9c0-1.5,0-2.5-1.9-2.6c-0.8,0-1.3-0.1-1.3-0.6s0.5-0.5,0.8-0.5c0.6,0,2.6,0.2,4.5,0.2
	c2.3,0,3.6-0.2,4.3-0.2c0.3,0,0.8,0,0.8,0.5s-0.6,0.6-1.3,0.6c-1.9,0.1-1.9,1.1-1.9,2.5v14.6c0,2.3,0.7,3.6,2.9,3.6
	c1.8,0,4.4-0.4,6.3-4c0.1-0.3,0.3-0.4,0.5-0.4s0.5,0.3,0.5,0.6s-0.5,3.6-0.5,4.2s-0.3,0.9-0.9,0.9c-0.3,0-0.3-0.1-8.6-0.1
	c-2.2-0.1-4.4,0-6.6,0.1c-0.2,0-0.7,0-0.7-0.5s0.6-0.6,1.3-0.6c1.9-0.1,1.9-1.1,1.9-2.6V116.9z"/>
<path class="st1" d="M157.4,132.4c0,1.5,0,2.5,1.8,2.6c0.8,0,1.3,0.1,1.3,0.6s-0.5,0.6-0.8,0.6c-1.2,0-3.1-0.1-4.3-0.1
	c-0.6,0-3.6,0.1-4.3,0.1c-0.3,0-0.8,0-0.8-0.6s0.5-0.6,1.3-0.6c1.8-0.1,1.8-1.1,1.8-2.5v-17c0-1-0.3-1-1-1c-2.2,0-4.6,0-6.5,3.5
	c-0.3,0.6-0.5,0.7-0.8,0.7c-0.3,0-0.5-0.2-0.5-0.5c0-0.2,0.1-0.4,0.1-0.6l1.5-5.2c0.1-0.4,0.2-0.7,0.5-0.7s0.4,0.2,0.4,0.5
	c0.2,1,0.8,1,1.6,1h11.7c3.8,0,4-0.5,4.2-1.1c0.1-0.3,0.2-0.5,0.5-0.5c0.5,0,0.5,0.6,0.5,1.5l-0.2,4.5c0,0.7-0.1,1.2-0.6,1.2
	c-0.2,0-0.4,0-0.6-0.8c-0.6-3.5-2.4-3.5-4.8-3.5c-2.1,0-2.3,0-2.3,1.2V132.4z"/>
<path class="st1" d="M173.7,122.1c0,1.1,0,1.1,1.2,1.1h7.9c1.2,0,1.3,0,1.3-1.1v-5.1c0-1.5,0-2.5-1.8-2.6c-0.8-0.1-1.3-0.1-1.3-0.6
	s0.5-0.5,0.8-0.5c1.2,0,2.3,0.2,4.2,0.2s3-0.2,4.3-0.2c0.3,0,0.8,0,0.8,0.5s-0.5,0.6-1.3,0.6c-1.8,0.1-1.8,1.1-1.8,2.6v15.5
	c0,1.5,0,2.5,1.8,2.6c0.8,0,1.3,0.1,1.3,0.6s-0.5,0.5-0.8,0.5c-0.6,0-1.8-0.1-4.3-0.1c-2.2,0-3.9,0.1-4.3,0.1c-0.3,0-0.8,0-0.8-0.6
	s0.6-0.6,1.3-0.6c1.8-0.1,1.8-1.1,1.8-2.6v-7.1c0-0.9-0.2-0.9-1.2-0.9h-7.8c-1.3,0-1.4,0-1.4,0.8v7.1c0,1.5,0,2.5,1.8,2.6
	c0.8,0,1.3,0.1,1.3,0.6s-0.5,0.5-0.8,0.5c-0.6,0-1.5-0.1-4.3-0.1c-2.2,0-3.6,0.1-4.3,0.1c-0.3,0-0.8,0-0.8-0.6s0.5-0.6,1.3-0.6
	c1.8-0.1,1.8-1.1,1.8-2.6v-15.5c0-1.5,0-2.5-1.8-2.6c-0.8-0.1-1.3-0.1-1.3-0.6s0.4-0.5,0.8-0.5c1.1,0,2.4,0.2,4.2,0.2
	s3.2-0.2,4.3-0.2c0.3,0,0.8,0,0.8,0.5s-0.6,0.6-1.3,0.6c-1.8,0.1-1.8,1.1-1.8,2.6V122.1z"/>
<path class="st1" d="M208.9,136.4c-2,0-4-0.5-5.8-1.5c-0.4-0.3-0.4-0.8-0.4-1.7c0-0.1,0-2,0.1-3.3c0-0.1,0-0.7,0.5-0.7
	s0.4,0.3,0.5,0.6c0.7,3.2,3.2,5.6,5.8,5.6c1.5,0,4.4-1.1,4.4-4.1s-2.5-4.2-5.1-5.4c-3-1.3-5.9-2.8-5.9-6.6c0-3.4,2.6-6.3,7.2-6.3
	c1.6,0,3.3,0.3,4.8,0.8c0.4,0.3,0.4,0.6,0.4,3.8c0,0.8,0,1.1-0.5,1.1c-0.4,0-0.5-0.2-0.9-1.4c-0.4-1.4-1.1-3.5-4.1-3.5s-4,2.1-4,3.5
	c0,2.6,2.1,3.5,5.1,4.7c2,0.9,5.9,2.7,5.9,6.8C216.7,133,213.7,136.4,208.9,136.4z"/>
<path class="st1" d="M221.7,116.9c-1.6-2.4-2.5-2.5-3-2.6c-1.4-0.1-1.5-0.2-1.5-0.7s0.5-0.5,1.2-0.5s1.4,0.2,4.2,0.2
	c3.4,0,4.2-0.2,4.6-0.2c0.6,0,1,0,1,0.5s-0.4,0.6-1.5,0.6s-1.3,0.2-1.3,0.6s0,0.4,0.7,1.4l5.3,7.9l4.2-6.4c0.6-0.8,0.9-1.7,1.2-2.6
	c0-0.9-0.7-0.9-2-1c-0.2,0-0.9,0-0.9-0.6s0.7-0.6,1-0.6c0.8,0,1.4,0.2,3.5,0.2c1.4,0,2.9-0.2,3.2-0.2s0.6,0.2,0.6,0.5
	s-0.5,0.5-0.7,0.5c-1.6,0-2.5,0.8-4.6,4l-4.5,6.8c-0.2,0.2-0.3,0.5-0.3,0.8v6.6c0,1.5,0,2.5,1.8,2.6c0.8,0,1.3,0.1,1.3,0.7
	s-0.5,0.5-0.8,0.5c-1,0-2.7-0.1-3.9-0.1c-2.3,0-4.5,0.1-4.8,0.1s-0.8,0-0.8-0.6s0.6-0.6,1.3-0.6c1.8-0.1,1.8-1.1,1.8-2.6v-5.6
	c0-0.3-0.1-0.7-0.3-0.9L221.7,116.9z"/>
<path class="st1" d="M249.1,136.4c-2,0-4-0.5-5.8-1.5c-0.4-0.3-0.4-0.8-0.4-1.7c0-0.1,0-2,0.1-3.3c0-0.1,0-0.7,0.5-0.7
	s0.4,0.3,0.5,0.6c0.7,3.2,3.2,5.6,5.8,5.6c1.5,0,4.4-1.1,4.4-4.1s-2.5-4.2-5.1-5.4c-3-1.3-5.9-2.8-5.9-6.6c0-3.4,2.6-6.3,7.2-6.3
	c1.6,0,3.3,0.3,4.8,0.8c0.4,0.3,0.4,0.6,0.4,3.8c0,0.8,0,1.1-0.5,1.1c-0.4,0-0.5-0.2-0.9-1.4c-0.4-1.4-1.1-3.5-4.1-3.5s-4,2.1-4,3.5
	c0,2.6,2.1,3.5,5.1,4.7c2,0.9,5.9,2.7,5.9,6.8C257,133,254,136.4,249.1,136.4z"/>
<path class="st1" d="M270.8,132.4c0,1.5,0,2.5,1.8,2.6c0.8,0,1.3,0.1,1.3,0.6s-0.5,0.6-0.8,0.6c-1.2,0-3.1-0.1-4.3-0.1
	c-0.6,0-3.6,0.1-4.3,0.1c-0.3,0-0.8,0-0.8-0.6s0.5-0.6,1.3-0.6c1.8-0.1,1.8-1.1,1.8-2.5v-17c0-1-0.3-1-1-1c-2.2,0-4.6,0-6.5,3.5
	c-0.3,0.6-0.5,0.7-0.8,0.7c-0.3,0-0.5-0.2-0.5-0.5c0-0.2,0.1-0.4,0.1-0.6l1.5-5.2c0.1-0.4,0.2-0.7,0.5-0.7s0.4,0.2,0.4,0.5
	c0.2,1,0.9,1,1.6,1h11.7c3.8,0,4-0.5,4.2-1.1c0.1-0.3,0.2-0.5,0.5-0.5c0.5,0,0.5,0.6,0.5,1.5l-0.2,4.5c0,0.7-0.1,1.2-0.6,1.2
	c-0.2,0-0.4,0-0.6-0.8c-0.6-3.5-2.4-3.5-4.8-3.5c-2.1,0-2.3,0-2.3,1.2L270.8,132.4z"/>
<path class="st1" d="M283.6,116.9c0-1.5,0-2.5-1.8-2.6c-0.8,0-1.3-0.1-1.3-0.6s0.5-0.5,0.7-0.5c0.3,0,0.6,0.1,0.9,0.1
	c0.8,0,2.4,0.1,5.5,0.1h1.8c3.8,0,5.6,0,6.6-0.1s1-0.1,1.1-0.1c0.4,0,0.4,0.3,0.4,1.1v3.4c0,0.2,0,0.6-0.4,0.6s-0.5-0.1-1.1-1.5
	c-0.4-1-1.3-2.3-6.5-2.3c-1.8,0-2,0.3-2,2.1v5.3c0,1.2,0,1.5,2.1,1.5c4.1,0,4.4-0.8,5-2.8c0.2-0.5,0.4-0.6,0.5-0.6s0.4,0.1,0.4,0.5
	s-0.3,4.3-0.3,5.1c0,0.3,0.1,1.5,0.1,1.8s0,0.7-0.4,0.7s-0.5-0.2-0.7-0.9c-0.8-2.8-1.8-2.8-4.8-2.8c-1.8,0-2,0-2,1.1v6.3
	c0,2.6,0.8,3,3.8,3c1.6,0,3.9,0,5.5-3.1c0.6-1.3,0.7-1.4,1.1-1.4s0.4,0.3,0.4,0.6c0,0.5-0.4,2.8-0.5,4.2c0,0.7-0.4,1.1-1.5,1.1
	c-1.9,0-4.4,0-6.5-0.1l-4-0.1h-0.4c-1.5,0-2.4,0-3,0.1s-0.9,0.1-1.1,0.1s-0.8,0-0.8-0.6s0.5-0.6,1.3-0.6c1.8-0.1,1.8-1.1,1.8-2.6
	L283.6,116.9z"/>
<path class="st1" d="M313.2,134.4c-0.3,0.9-0.5,1.2-0.9,1.2s-0.6-0.3-0.8-0.9l-7.2-17.6h-0.1c-0.2,4.1-0.5,8.2-0.5,12
	c0,5.7,0.3,5.9,2.2,6c0.8,0,1.4,0,1.4,0.6s-0.7,0.6-1.1,0.6s-1.7-0.1-3.3-0.1c-1.3,0-2.7,0.1-3.3,0.1c-0.3,0-0.6-0.1-0.6-0.5
	s0.4-0.5,1.4-0.7c1.2-0.2,1.8-0.4,1.8-3c0-0.2,0.8-11.1,0.8-15.9c0-1.8-0.1-1.8-1.7-1.8c-1.2,0-1.5-0.3-1.5-0.7s0.3-0.5,0.8-0.5
	c0.4,0,2.4,0.2,3.4,0.2c1.3,0,2.1-0.2,2.5-0.2s0.7,0,1,0.9l6.2,15.3l5.8-14.8c0.5-1.2,0.9-1.3,1.5-1.3c0.8,0,2.2,0.2,3,0.2
	s1.8-0.2,2.2-0.2s0.9,0,0.9,0.5s-0.3,0.5-1.4,0.6c-1.7,0.1-1.8,0.6-1.7,2.5l0.5,15.5c0,2.3,0.1,2.8,1.7,2.8c0.8,0,1.1,0.1,1.1,0.6
	s-0.6,0.5-1,0.5c-0.5,0-2.5-0.1-3.8-0.1c-1.8,0-3.8,0.1-4.5,0.1c-0.3,0-0.7,0-0.7-0.5s0.3-0.6,1.4-0.6c1.7-0.1,1.7-1.1,1.7-2.8
	l-0.3-15.8h-0.1L313.2,134.4z"/>
</svg>
