<?xml version="1.0" encoding="UTF-8"?>
<svg width="189px" height="32px" viewBox="0 0 189 32" version="1.1" xmlns="http://www.w3.org/2000/svg" xmlns:xlink="http://www.w3.org/1999/xlink">
    <title>Atoms/Logo/logo light tagline</title>
    <defs>
        <path d="M17.5679089,4.63229251 C17.5679089,4.63229251 17.9063723,4.9226226 18.1767034,5.31157626 C18.4470345,5.70496245 18.7679153,6.52276247 19.0887961,7.15218036 C19.408578,7.78159826 19.9151741,8.68472429 20.1338566,9.07589422 C20.14045,9.08697552 20.4426494,9.32300723 20.1393511,9.80947635 C20.010779,10.0144804 19.7294589,10.6427902 20.0679222,10.9320121 C20.4063855,11.220126 20.9294652,11.7498122 21.5536443,12.6706683 C22.1789224,13.5882 22.5833201,14.0646959 22.8536512,14.4392439 C23.1239823,14.8149 22.8712337,15.274774 22.5503529,15.462048 C22.2294721,15.649322 21.4701274,15.6149699 21.4184788,16.02387 C21.3668302,16.4316618 21.4690285,16.7729659 21.5206771,17.0788098 C21.5712268,17.3846537 21.3844127,17.6916058 21.3503466,17.8267976 C21.3173793,17.9630976 21.6547438,18.3221318 21.6547438,18.5437578 C21.6547438,18.7653838 21.4008963,19.1565538 21.451446,19.4114237 C21.5030946,19.6674017 22.2459557,20.4840936 22.076724,21.1644855 C21.9085913,21.8459855 21.5371607,22.2537774 20.9294652,22.4765115 C20.3206708,22.6992457 20.1338566,22.5097554 19.290995,22.7491115 C18.4470345,22.9873595 17.3327429,23.2400132 17.3327429,23.2400132 L17.401974,22.0266107 C17.401974,22.0266107 15.2656989,21.0603213 11.1052374,20.6625026 C6.25576112,20.1993042 4.07772761,22.0653953 4.07772761,22.0653953 L4.11618935,22.3446441 C4.11618935,22.3446441 3.26343758,22.2293985 2.71728084,22.0676115 C2.18980552,21.9124733 2.04255199,21.7407132 1.82386951,21.3949766 C1.34035047,20.6259343 1.81507826,19.1055798 1.24144885,18.2024537 C0.667819436,17.2993277 -0.160756381,16.3474439 0.0271567024,14.7118439 C0.211773065,13.077352 0.683204133,12.021304 0.683204133,12.021304 C0.683204133,12.021304 0.496389957,11.203504 0.617269718,10.5740861 C1.03924997,8.3611503 1.34254828,8.77005031 1.54474716,7.67965029 C1.75573729,6.54824946 2.59749999,5.02900309 3.06563433,4.51372259 C3.60409872,3.9175486 3.58871403,2.91247459 4.63377451,1.94175263 C5.30190991,1.3223079 6.94807248,0.0523908026 9.05907267,0.00141681798 C10.4436954,-0.0318270851 12.183265,0.529994876 12.6898611,0.630834716 C13.1953583,0.733890815 13.9558019,0.563238779 15.087676,1.27909083 C16.2173523,1.99272661 16.5722993,2.40273475 17.0448292,2.65649654 C17.5184581,2.91247459 17.6646127,3.2293998 17.8228553,3.61170469 C18.0250542,4.10482258 17.5679089,4.63229251 17.5679089,4.63229251" id="path-1"></path>
        <radialGradient cx="94.1171117%" cy="55.4969672%" fx="94.1171117%" fy="55.4969672%" r="83.9331593%" gradientTransform="translate(0.941171,0.554970),scale(1.000000,0.988296),rotate(-177.820831),translate(-0.941171,-0.554970)" id="radialGradient-3">
            <stop stop-color="#FFFFFE" offset="0%"></stop>
            <stop stop-color="#5CAECD" offset="100%"></stop>
        </radialGradient>
        <path d="M7.68355718,1.02951572 C11.5165445,2.47119298 12.9769918,4.96337758 12.9769918,4.96337758 L13.3341366,2.05786045 L15.2275532,8.59250366 L13.2242459,7.99632967 L12.9846842,10.1316964 L12.9262616,10.1319147 C12.5730392,9.68484244 10.4064192,7.04816971 7.40663263,5.68698654 C3.88024033,4.08684667 0,4.95562067 0,4.95562067 L0.226374825,0.115308386 C0.226374825,0.115308386 3.67584364,-0.478649348 7.68355718,1.02951572 Z" id="path-4"></path>
        <radialGradient cx="12.6735951%" cy="40.3075218%" fx="12.6735951%" fy="40.3075218%" r="60.2440683%" gradientTransform="translate(0.126736,0.403075),scale(0.172431,1.000000),rotate(-177.821086),translate(-0.126736,-0.403075)" id="radialGradient-6">
            <stop stop-color="#FFFFFE" offset="0%"></stop>
            <stop stop-color="#5CAECD" offset="100%"></stop>
        </radialGradient>
        <path d="M3.28552274,0 C3.28552274,0 3.53497461,0.398926837 4.12948325,0.571795132 C4.72289299,0.744663428 5.20860984,0.784556112 5.20860984,0.784556112 L5.20860984,0.784556112 L4.9635536,4.54222529 C4.9635536,4.54222529 4.50750723,5.38883668 3.33717136,6.53353508 C2.0096918,7.83337169 0.237154943,8.2865969 0.0448462322,8.11040421 C-0.148561385,7.93421153 0.32726531,7.13857411 0.640453782,6.31412532 C0.944850999,5.50851474 0.806388727,5.19269766 0.721772894,3.70447893 C0.592101878,1.38073011 3.28552274,0 3.28552274,0 Z" id="path-7"></path>
        <radialGradient cx="12.673299%" cy="40.3141017%" fx="12.673299%" fy="40.3141017%" r="60.2409797%" gradientTransform="translate(0.126733,0.403141),scale(0.172431,1.000000),rotate(-177.820974),translate(-0.126733,-0.403141)" id="radialGradient-9">
            <stop stop-color="#FFFFFE" offset="0%"></stop>
            <stop stop-color="#5CAECD" offset="100%"></stop>
        </radialGradient>
    </defs>
    <g id="Atoms/Logo/logo-light-tagline" stroke="none" stroke-width="1" fill="none" fill-rule="evenodd">
        <g id="branding-/-logo-light">
            <g id="head">
                <g id="Group-3" transform="translate(2.031986, 0.000000)">
                    <mask id="mask-2" fill="white">
                        <use xlink:href="#path-1"></use>
                    </mask>
                    <g id="Clip-2"></g>
                    <path d="M17.5679089,4.63229251 C17.5679089,4.63229251 17.9063723,4.9226226 18.1767034,5.31157626 C18.4470345,5.70496245 18.7679153,6.52276247 19.0887961,7.15218036 C19.408578,7.78159826 19.9151741,8.68472429 20.1338566,9.07589422 C20.14045,9.08697552 20.4426494,9.32300723 20.1393511,9.80947635 C20.010779,10.0144804 19.7294589,10.6427902 20.0679222,10.9320121 C20.4063855,11.220126 20.9294652,11.7498122 21.5536443,12.6706683 C22.1789224,13.5882 22.5833201,14.0646959 22.8536512,14.4392439 C23.1239823,14.8149 22.8712337,15.274774 22.5503529,15.462048 C22.2294721,15.649322 21.4701274,15.6149699 21.4184788,16.02387 C21.3668302,16.4316618 21.4690285,16.7729659 21.5206771,17.0788098 C21.5712268,17.3846537 21.3844127,17.6916058 21.3503466,17.8267976 C21.3173793,17.9630976 21.6547438,18.3221318 21.6547438,18.5437578 C21.6547438,18.7653838 21.4008963,19.1565538 21.451446,19.4114237 C21.5030946,19.6674017 22.2459557,20.4840936 22.076724,21.1644855 C21.9085913,21.8459855 21.5371607,22.2537774 20.9294652,22.4765115 C20.3206708,22.6992457 20.1338566,22.5097554 19.290995,22.7491115 C18.4470345,22.9873595 17.3327429,23.2400132 17.3327429,23.2400132 L17.401974,22.0266107 C17.401974,22.0266107 15.2656989,21.0603213 11.1052374,20.6625026 C6.25576112,20.1993042 4.07772761,22.0653953 4.07772761,22.0653953 L4.11618935,22.3446441 C4.11618935,22.3446441 3.26343758,22.2293985 2.71728084,22.0676115 C2.18980552,21.9124733 2.04255199,21.7407132 1.82386951,21.3949766 C1.34035047,20.6259343 1.81507826,19.1055798 1.24144885,18.2024537 C0.667819436,17.2993277 -0.160756381,16.3474439 0.0271567024,14.7118439 C0.211773065,13.077352 0.683204133,12.021304 0.683204133,12.021304 C0.683204133,12.021304 0.496389957,11.203504 0.617269718,10.5740861 C1.03924997,8.3611503 1.34254828,8.77005031 1.54474716,7.67965029 C1.75573729,6.54824946 2.59749999,5.02900309 3.06563433,4.51372259 C3.60409872,3.9175486 3.58871403,2.91247459 4.63377451,1.94175263 C5.30190991,1.3223079 6.94807248,0.0523908026 9.05907267,0.00141681798 C10.4436954,-0.0318270851 12.183265,0.529994876 12.6898611,0.630834716 C13.1953583,0.733890815 13.9558019,0.563238779 15.087676,1.27909083 C16.2173523,1.99272661 16.5722993,2.40273475 17.0448292,2.65649654 C17.5184581,2.91247459 17.6646127,3.2293998 17.8228553,3.61170469 C18.0250542,4.10482258 17.5679089,4.63229251 17.5679089,4.63229251" id="Fill-1" fill="url(#radialGradient-3)" mask="url(#mask-2)"></path>
                </g>
                <g id="Group-6" transform="translate(5.769052, 21.868085)">
                    <mask id="mask-5" fill="white">
                        <use xlink:href="#path-4"></use>
                    </mask>
                    <g id="Clip-5"></g>
                    <polygon id="Fill-4" fill="url(#radialGradient-6)" mask="url(#mask-5)" points="-5.76926132 10.1305882 179.80315 10.1305882 179.80315 -21.8677766 -5.76926132 -21.8677766"></polygon>
                </g>
                <g id="Group-9" transform="translate(0.000000, 22.441051)">
                    <mask id="mask-8" fill="white">
                        <use xlink:href="#path-7"></use>
                    </mask>
                    <g id="Clip-8"></g>
                    <polygon id="Fill-7" fill="url(#radialGradient-9)" mask="url(#mask-8)" points="-0.000208951449 9.55762213 185.572202 9.55762213 185.572202 -22.4407427 -0.000208951449 -22.4407427"></polygon>
                </g>
            </g>
            <path d="M32.774,29.798122 L32.774,28.010122 L34.724,28.010122 L34.724,29.798122 L35.498,29.798122 L35.498,25.538122 L34.724,25.538122 L34.724,27.344122 L32.774,27.344122 L32.774,25.538122 L32,25.538122 L32,29.798122 L32.774,29.798122 Z M39.1288571,29.870122 C40.3828571,29.870122 41.3308571,28.892122 41.3308571,27.638122 C41.3308571,26.420122 40.3828571,25.466122 39.1288571,25.466122 C37.8748571,25.466122 36.9268571,26.420122 36.9268571,27.638122 C36.9268571,28.892122 37.8748571,29.870122 39.1288571,29.870122 Z M39.1288571,29.162122 C38.3488571,29.162122 37.7248571,28.514122 37.7248571,27.638122 C37.7248571,26.798122 38.3488571,26.174122 39.1288571,26.174122 C39.9088571,26.174122 40.5328571,26.798122 40.5328571,27.638122 C40.5328571,28.514122 39.9088571,29.162122 39.1288571,29.162122 Z M43.4017143,29.798122 L43.5817143,27.416122 C43.5877143,27.322122 43.590381,27.2167887 43.5912698,27.118122 L43.5911382,26.9350109 C43.5900847,26.8259739 43.5877143,26.750122 43.5877143,26.750122 L43.5997143,26.750122 C43.5997143,26.750122 43.7317143,27.170122 43.8337143,27.416122 L44.5177143,29.066122 L45.1957143,29.066122 L45.8857143,27.416122 C45.9877143,27.170122 46.1137143,26.756122 46.1137143,26.756122 L46.1257143,26.756122 C46.1257143,26.756122 46.1137143,27.134122 46.1317143,27.416122 L46.3117143,29.798122 L47.0797143,29.798122 L46.7377143,25.538122 L45.9097143,25.538122 L45.0757143,27.644122 C44.9797143,27.896122 44.8657143,28.268122 44.8657143,28.268122 L44.8537143,28.268122 C44.8537143,28.268122 44.800381,28.1027887 44.736381,27.9178998 L44.6704056,27.7318915 C44.6593439,27.7016035 44.648381,27.672122 44.6377143,27.644122 L43.8037143,25.538122 L42.9757143,25.538122 L42.6277143,29.798122 L43.4017143,29.798122 Z M51.3165714,29.798122 L51.3165714,29.132122 L49.4445714,29.132122 L49.4445714,27.986122 L50.8785714,27.986122 L50.8785714,27.320122 L49.4445714,27.320122 L49.4445714,26.204122 L51.2205714,26.204122 L51.2205714,25.538122 L48.6705714,25.538122 L48.6705714,29.798122 L51.3165714,29.798122 Z M56.7722857,29.870122 C58.0262857,29.870122 58.9742857,28.892122 58.9742857,27.638122 C58.9742857,26.420122 58.0262857,25.466122 56.7722857,25.466122 C55.5182857,25.466122 54.5702857,26.420122 54.5702857,27.638122 C54.5702857,28.892122 55.5182857,29.870122 56.7722857,29.870122 Z M56.7722857,29.162122 C55.9922857,29.162122 55.3682857,28.514122 55.3682857,27.638122 C55.3682857,26.798122 55.9922857,26.174122 56.7722857,26.174122 C57.5522857,26.174122 58.1762857,26.798122 58.1762857,27.638122 C58.1762857,28.514122 57.5522857,29.162122 56.7722857,29.162122 Z M61.1771429,29.798122 L61.1771429,28.076122 L62.5871429,28.076122 L62.5871429,27.410122 L61.1771429,27.410122 L61.1771429,26.204122 L62.8511429,26.204122 L62.8511429,25.538122 L60.4031429,25.538122 L60.4031429,29.798122 L61.1771429,29.798122 Z M67.4668571,29.870122 C68.3548571,29.870122 68.8708571,29.300122 68.8708571,28.622122 C68.8708571,27.260122 66.8668571,27.446122 66.8668571,26.690122 C66.8668571,26.390122 67.1488571,26.180122 67.5088571,26.180122 C68.0428571,26.180122 68.4508571,26.552122 68.4508571,26.552122 L68.7868571,25.922122 C68.7868571,25.922122 68.3548571,25.466122 67.5148571,25.466122 C66.6988571,25.466122 66.0868571,25.994122 66.0868571,26.702122 C66.0868571,28.010122 68.0968571,27.878122 68.0968571,28.640122 C68.0968571,28.988122 67.8028571,29.156122 67.4788571,29.156122 C66.8788571,29.156122 66.4168571,28.706122 66.4168571,28.706122 L65.9968571,29.288122 C65.9968571,29.288122 66.5188571,29.870122 67.4668571,29.870122 Z M71.0617143,29.798122 L71.0617143,25.538122 L70.2877143,25.538122 L70.2877143,29.798122 L71.0617143,29.798122 Z M74.2365714,29.798122 C75.5505714,29.798122 76.4085714,29.006122 76.4085714,27.662122 C76.4085714,26.318122 75.5505714,25.538122 74.2365714,25.538122 L72.7845714,25.538122 L72.7845714,29.798122 L74.2365714,29.798122 Z M74.1945714,29.132122 L73.5585714,29.132122 L73.5585714,26.204122 L74.1945714,26.204122 C75.0465714,26.204122 75.6105714,26.714122 75.6105714,27.662122 C75.6105714,28.622122 75.0585714,29.132122 74.1945714,29.132122 Z M78.6354286,29.798122 L78.6354286,27.344122 C78.6354286,27.092122 78.5934286,26.684122 78.5934286,26.684122 L78.6054286,26.684122 C78.6054286,26.684122 78.7974286,27.098122 78.9594286,27.344122 L80.5734286,29.798122 L81.3414286,29.798122 L81.3414286,25.538122 L80.5734286,25.538122 L80.5734286,27.998122 C80.5734286,28.250122 80.6154286,28.658122 80.6154286,28.658122 L80.6034286,28.658122 C80.6034286,28.658122 80.4114286,28.244122 80.2494286,27.998122 L78.6354286,25.538122 L77.8614286,25.538122 L77.8614286,29.798122 L78.6354286,29.798122 Z M85.7102857,29.798122 L85.7102857,29.132122 L83.8382857,29.132122 L83.8382857,27.986122 L85.2722857,27.986122 L85.2722857,27.320122 L83.8382857,27.320122 L83.8382857,26.204122 L85.6142857,26.204122 L85.6142857,25.538122 L83.0642857,25.538122 L83.0642857,29.798122 L85.7102857,29.798122 Z M88.8191429,29.798122 L88.8191429,28.016122 L90.2351429,25.538122 L89.3591429,25.538122 L88.6991429,26.792122 C88.5611429,27.056122 88.4411429,27.362122 88.4411429,27.362122 L88.4291429,27.362122 C88.4231429,27.368122 88.3091429,27.056122 88.1711429,26.792122 L87.5051429,25.538122 L86.6291429,25.538122 L88.0451429,28.016122 L88.0451429,29.798122 L88.8191429,29.798122 Z M94.3048571,29.798122 L94.3048571,27.938122 L94.8568571,27.938122 L95.9008571,29.798122 L96.7708571,29.798122 L95.4928571,27.578122 L95.4928571,27.566122 L96.6988571,25.538122 L95.8588571,25.538122 L94.8568571,27.272122 L94.3048571,27.272122 L94.3048571,25.538122 L93.5308571,25.538122 L93.5308571,29.798122 L94.3048571,29.798122 Z M98.8297143,29.798122 L98.8297143,25.538122 L98.0557143,25.538122 L98.0557143,29.798122 L98.8297143,29.798122 Z M101.194571,29.798122 L101.374571,27.416122 C101.380571,27.322122 101.383238,27.2167887 101.384127,27.118122 L101.383995,26.9350109 C101.382942,26.8259739 101.380571,26.750122 101.380571,26.750122 L101.392571,26.750122 C101.392571,26.750122 101.524571,27.170122 101.626571,27.416122 L102.310571,29.066122 L102.988571,29.066122 L103.678571,27.416122 C103.780571,27.170122 103.906571,26.756122 103.906571,26.756122 L103.918571,26.756122 C103.918571,26.756122 103.906571,27.134122 103.924571,27.416122 L104.104571,29.798122 L104.872571,29.798122 L104.530571,25.538122 L103.702571,25.538122 L102.868571,27.644122 C102.772571,27.896122 102.658571,28.268122 102.658571,28.268122 L102.646571,28.268122 C102.646571,28.268122 102.593238,28.1027887 102.529238,27.9178998 L102.463263,27.7318915 C102.452201,27.7016035 102.441238,27.672122 102.430571,27.644122 L101.596571,25.538122 L100.768571,25.538122 L100.420571,29.798122 L101.194571,29.798122 Z M107.105429,29.798122 L107.285429,27.416122 C107.303429,27.134122 107.291429,26.750122 107.291429,26.750122 L107.303429,26.750122 C107.303429,26.750122 107.435429,27.170122 107.537429,27.416122 L108.221429,29.066122 L108.899429,29.066122 L109.589429,27.416122 C109.691429,27.170122 109.817429,26.756122 109.817429,26.756122 L109.829429,26.756122 C109.829429,26.756122 109.817429,27.134122 109.835429,27.416122 L110.015429,29.798122 L110.783429,29.798122 L110.441429,25.538122 L109.613429,25.538122 L108.779429,27.644122 C108.683429,27.896122 108.569429,28.268122 108.569429,28.268122 L108.557429,28.268122 C108.557429,28.268122 108.504095,28.1027887 108.440095,27.9178998 L108.37412,27.7318915 C108.363058,27.7016035 108.352095,27.672122 108.341429,27.644122 L107.507429,25.538122 L106.679429,25.538122 L106.331429,29.798122 L107.105429,29.798122 Z M115.020286,29.798122 L115.020286,29.132122 L113.148286,29.132122 L113.148286,27.986122 L114.582286,27.986122 L114.582286,27.320122 L113.148286,27.320122 L113.148286,26.204122 L114.924286,26.204122 L114.924286,25.538122 L112.374286,25.538122 L112.374286,29.798122 L115.020286,29.798122 Z M119.083143,29.798122 L119.083143,29.132122 L117.241143,29.132122 L117.241143,25.538122 L116.467143,25.538122 L116.467143,29.798122 L119.083143,29.798122 Z M123.086857,29.798122 L123.266857,27.416122 C123.272857,27.322122 123.275524,27.2167887 123.276413,27.118122 L123.276281,26.9350109 C123.275228,26.8259739 123.272857,26.750122 123.272857,26.750122 L123.284857,26.750122 C123.284857,26.750122 123.416857,27.170122 123.518857,27.416122 L124.202857,29.066122 L124.880857,29.066122 L125.570857,27.416122 C125.672857,27.170122 125.798857,26.756122 125.798857,26.756122 L125.810857,26.756122 C125.810857,26.756122 125.808487,26.8307887 125.807433,26.9385088 L125.807302,27.1196776 C125.80819,27.2174553 125.810857,27.322122 125.816857,27.416122 L125.996857,29.798122 L126.764857,29.798122 L126.422857,25.538122 L125.594857,25.538122 L124.760857,27.644122 C124.664857,27.896122 124.550857,28.268122 124.550857,28.268122 L124.538857,28.268122 C124.538857,28.268122 124.485524,28.1027887 124.421524,27.9178998 L124.355549,27.7318915 C124.344487,27.7016035 124.333524,27.672122 124.322857,27.644122 L123.488857,25.538122 L122.660857,25.538122 L122.312857,29.798122 L123.086857,29.798122 Z M131.001714,29.798122 L131.001714,29.132122 L129.129714,29.132122 L129.129714,27.986122 L130.563714,27.986122 L130.563714,27.320122 L129.129714,27.320122 L129.129714,26.204122 L130.905714,26.204122 L130.905714,25.538122 L128.355714,25.538122 L128.355714,29.798122 L131.001714,29.798122 Z M133.900571,29.798122 C135.214571,29.798122 136.072571,29.006122 136.072571,27.662122 C136.072571,26.318122 135.214571,25.538122 133.900571,25.538122 L132.448571,25.538122 L132.448571,29.798122 L133.900571,29.798122 Z M133.858571,29.132122 L133.222571,29.132122 L133.222571,26.204122 L133.858571,26.204122 C134.710571,26.204122 135.274571,26.714122 135.274571,27.662122 C135.274571,28.622122 134.722571,29.132122 133.858571,29.132122 Z M138.299429,29.798122 L138.299429,25.538122 L137.525429,25.538122 L137.525429,29.798122 L138.299429,29.798122 Z M141.930286,29.870122 C143.016286,29.870122 143.604286,29.180122 143.604286,29.180122 L143.196286,28.622122 L143.166548,28.6520345 C143.049102,28.7653873 142.592857,29.162122 141.960286,29.162122 C141.072286,29.162122 140.526286,28.448122 140.526286,27.638122 C140.526286,26.846122 141.054286,26.174122 141.954286,26.174122 C142.632286,26.174122 143.118286,26.624122 143.118286,26.624122 L143.490286,26.048122 L143.465313,26.0231142 C143.348911,25.9117157 142.826536,25.466122 141.918286,25.466122 C140.664286,25.466122 139.728286,26.414122 139.728286,27.650122 C139.728286,28.904122 140.628286,29.870122 141.930286,29.870122 Z M145.225143,29.798122 L145.585143,28.706122 L147.079143,28.706122 L147.439143,29.798122 L148.237143,29.798122 L146.737143,25.538122 L145.927143,25.538122 L144.427143,29.798122 L145.225143,29.798122 Z M146.887143,28.076122 L145.771143,28.076122 L146.149143,26.936122 C146.233143,26.696122 146.329143,26.276122 146.329143,26.276122 L146.341143,26.276122 C146.341143,26.276122 146.431143,26.696122 146.509143,26.936122 L146.887143,28.076122 Z M152.042,29.798122 L152.042,29.132122 L150.2,29.132122 L150.2,25.538122 L149.426,25.538122 L149.426,29.798122 L152.042,29.798122 Z M157.311714,29.870122 C158.397714,29.870122 158.985714,29.180122 158.985714,29.180122 L158.577714,28.622122 C158.577714,28.622122 158.079714,29.162122 157.341714,29.162122 C156.453714,29.162122 155.907714,28.448122 155.907714,27.638122 C155.907714,26.846122 156.435714,26.174122 157.335714,26.174122 C158.013714,26.174122 158.499714,26.624122 158.499714,26.624122 L158.871714,26.048122 L158.846742,26.0231142 C158.730339,25.9117157 158.207964,25.466122 157.299714,25.466122 C156.045714,25.466122 155.109714,26.414122 155.109714,27.650122 C155.109714,28.904122 156.009714,29.870122 157.311714,29.870122 Z M162.226571,29.870122 C163.480571,29.870122 164.428571,28.892122 164.428571,27.638122 C164.428571,26.420122 163.480571,25.466122 162.226571,25.466122 C160.972571,25.466122 160.024571,26.420122 160.024571,27.638122 C160.024571,28.892122 160.972571,29.870122 162.226571,29.870122 Z M162.226571,29.162122 C161.446571,29.162122 160.822571,28.514122 160.822571,27.638122 C160.822571,26.798122 161.446571,26.174122 162.226571,26.174122 C163.006571,26.174122 163.630571,26.798122 163.630571,27.638122 C163.630571,28.514122 163.006571,29.162122 162.226571,29.162122 Z M168.473429,29.798122 L168.473429,29.132122 L166.631429,29.132122 L166.631429,25.538122 L165.857429,25.538122 L165.857429,29.798122 L168.473429,29.798122 Z M172.350286,29.798122 L172.350286,29.132122 L170.508286,29.132122 L170.508286,25.538122 L169.734286,25.538122 L169.734286,29.798122 L172.350286,29.798122 Z M176.257143,29.798122 L176.257143,29.132122 L174.385143,29.132122 L174.385143,27.986122 L175.819143,27.986122 L175.819143,27.320122 L174.385143,27.320122 L174.385143,26.204122 L176.161143,26.204122 L176.161143,25.538122 L173.611143,25.538122 L173.611143,29.798122 L176.257143,29.798122 Z M179.48,29.870122 C180.272,29.870122 180.716,29.414122 180.716,29.414122 L180.728,29.414122 C180.728,29.414122 180.72416,29.471722 180.722624,29.540842 L180.722,29.798122 L181.382,29.798122 L181.382,27.554122 L180.032,27.554122 L180.032,28.220122 L180.686,28.220122 L180.686,28.718122 C180.686,28.718122 180.26,29.162122 179.618,29.162122 C178.82,29.162122 178.19,28.562122 178.19,27.638122 C178.19,26.834122 178.7,26.174122 179.654,26.174122 C180.332,26.174122 180.788,26.582122 180.788,26.582122 L181.172,26.006122 C181.172,26.006122 180.632,25.466122 179.588,25.466122 C178.322,25.466122 177.392,26.426122 177.392,27.662122 C177.392,29.000122 178.358,29.870122 179.48,29.870122 Z M185.528857,29.798122 L185.528857,29.132122 L183.656857,29.132122 L183.656857,27.986122 L185.090857,27.986122 L185.090857,27.320122 L183.656857,27.320122 L183.656857,26.204122 L185.432857,26.204122 L185.432857,25.538122 L182.882857,25.538122 L182.882857,29.798122 L185.528857,29.798122 Z" id="HOMEOFSIDNEYKIMMELMEDICALCOLLEGE" fill="#FFFFFF" fill-rule="nonzero"></path>
            <g id="letters" transform="translate(32.000000, 4.000000)" fill="#FFFFFE">
                <path d="M0,13.228866 C0.399641641,13.372921 0.819376995,13.478488 1.40544365,13.478488 C3.31657909,13.478488 3.31657909,11.9675601 3.31657909,10.9349828 L3.31657909,0.465154639 L6.25361026,0.465154639 L6.25361026,12.3205498 C6.25361026,13.8501718 5.24669193,16 2.24603067,16 C1.44898003,16 0.819376995,15.9373196 0,15.7294845 L0,13.228866" id="Fill-10"></path>
                <path d="M17.5853485,15.1510653 C16.5583365,15.7096907 15.3817379,16 13.8724767,16 C10.3047262,16 8.22725948,13.9733333 8.22725948,10.4808247 C8.22725948,7.40068729 9.88499086,4.85938144 13.2428737,4.85938144 C17.249337,4.85938144 18.3823992,7.56563574 18.3823992,11.2868729 L10.9131192,11.2868729 C11.0392631,13.0023368 12.2560491,13.9733333 13.9986206,13.9733333 C15.3616442,13.9733333 16.5371264,13.478488 17.5853485,12.8989691 L17.5853485,15.1510653 Z M15.6976557,9.38446735 C15.6128156,8.04068729 14.9832126,6.88494845 13.4103213,6.88494845 C11.8363137,6.88494845 11.0392631,7.95821306 10.9131192,9.38446735 L15.6976557,9.38446735 L15.6976557,9.38446735 Z" id="Fill-11"></path>
                <path d="M21.1955191,7.13127148 L19.116936,7.13127148 L19.116936,5.10570447 L21.1955191,5.10570447 L21.1955191,3.61786942 C21.1955191,1.48783505 22.4111888,0 24.6360094,0 C25.3493363,0 26.1463869,0.104467354 26.6922661,0.22652921 L26.4611884,2.52151203 C26.2089007,2.37745704 25.8539117,2.14982818 25.2444024,2.14982818 C24.2999979,2.14982818 24.0052901,2.95697595 24.0052901,3.78171821 L24.0052901,5.10570447 L26.4611884,5.10570447 L26.4611884,7.13127148 L24.0052901,7.13127148 L24.0052901,15.750378 L21.1955191,15.750378 L21.1955191,7.13127148" id="Fill-12"></path>
                <path d="M29.2151435,7.13237113 L27.1376768,7.13237113 L27.1376768,5.10680412 L29.2151435,5.10680412 L29.2151435,3.61896907 C29.2151435,1.48893471 30.4330458,0 32.6567502,0 C33.370077,0 34.1671277,0.104467354 34.7118906,0.228728522 L34.4819292,2.52371134 C34.2307577,2.3785567 33.8735362,2.14982818 33.2651432,2.14982818 C32.3207386,2.14982818 32.0271471,2.95587629 32.0271471,3.78281787 L32.0271471,5.10680412 L34.4819292,5.10680412 L34.4819292,7.13237113 L32.0271471,7.13237113 L32.0271471,15.750378 L29.2151435,15.750378 L29.2151435,7.13237113" id="Fill-13"></path>
                <path d="M44.4841334,15.1510653 C43.4548887,15.7096907 42.2805227,16 40.7679126,16 C37.2012784,16 35.124928,13.9733333 35.124928,10.4808247 C35.124928,7.40068729 36.7804268,4.85938144 40.1383096,4.85938144 C44.1481218,4.85938144 45.281184,7.56563574 45.281184,11.2868729 L37.8096714,11.2868729 C37.9358153,13.0023368 39.1537176,13.9733333 40.8940565,13.9733333 C42.2593127,13.9733333 43.4336787,13.478488 44.4841334,12.8989691 L44.4841334,15.1510653 Z M42.5953243,9.38446735 C42.5127168,8.04068729 41.8819974,6.88494845 40.3057572,6.88494845 C38.7328659,6.88494845 37.9358153,7.95821306 37.8096714,9.38446735 L42.5953243,9.38446735 L42.5953243,9.38446735 Z" id="Fill-14"></path>
                <path d="M46.6643013,5.10570447 L49.163736,5.10570447 L49.163736,7.5238488 L49.2050398,7.5238488 C49.328951,6.53305842 50.4843396,4.85938144 52.163281,4.85938144 C52.4367787,4.85938144 52.7303702,4.85938144 53.025078,4.94075601 L53.025078,7.73168385 C52.771674,7.58652921 52.2682148,7.50405498 51.7647557,7.50405498 C49.4774212,7.50405498 49.4774212,10.313677 49.4774212,11.843299 L49.4774212,15.750378 L46.6643013,15.750378 L46.6643013,5.10570447" id="Fill-15"></path>
                <path d="M61.194289,7.33910653 C60.3336083,7.04989691 59.7040052,6.88494845 58.6781095,6.88494845 C57.9223626,6.88494845 57.0203781,7.1532646 57.0203781,8.06268041 C57.0203781,9.7561512 61.9098485,8.68178694 61.9098485,12.5261856 C61.9098485,15.0059107 59.6627015,16 57.3753671,16 C56.305935,16 55.2141765,15.8141581 54.1882808,15.5447423 L54.3557284,13.2706529 C55.2365029,13.7050172 56.1596974,13.9733333 57.1241956,13.9733333 C57.8375225,13.9733333 58.9705847,13.7050172 58.9705847,12.6713402 C58.9705847,10.5830928 54.0811143,12.0093471 54.0811143,8.16604811 C54.0811143,5.86996564 56.1183936,4.85938144 58.3208879,4.85938144 C59.6414915,4.85938144 60.5021722,5.06611684 61.384063,5.25085911 L61.194289,7.33910653" id="Fill-16"></path>
                <path d="M68.7182685,4.85938144 C71.9265648,4.85938144 74.3824632,6.98611684 74.3824632,10.5006186 C74.3824632,13.5609622 72.3061127,16 68.7182685,16 C65.1516343,16 63.0719349,13.5609622 63.0719349,10.5006186 C63.0719349,6.98611684 65.5278333,4.85938144 68.7182685,4.85938144 M68.7182685,13.8501718 C70.879459,13.8501718 71.445432,11.948866 71.445432,10.1707216 C71.445432,8.5366323 70.5635412,7.00810997 68.7182685,7.00810997 C66.8919732,7.00810997 66.0089661,8.5795189 66.0089661,10.1707216 C66.0089661,11.9268729 66.5760553,13.8501718 68.7182685,13.8501718" id="Fill-17"></path>
                <path d="M76.1495936,5.10570447 L78.8142434,5.10570447 L78.8142434,6.55285223 L78.8577797,6.55285223 C79.7374379,5.33333333 80.9341302,4.85938144 82.4020876,4.85938144 C84.9651524,4.85938144 86.0758883,6.63532646 86.0758883,9.03477663 L86.0758883,15.750378 L83.2627683,15.750378 L83.2627683,10.067354 C83.2627683,8.76426117 83.2437909,7.00701031 81.4375893,7.00701031 C79.4025426,7.00701031 78.9627136,9.17773196 78.9627136,10.5435052 L78.9627136,15.750378 L76.1495936,15.750378 L76.1495936,5.10570447" id="Fill-18"></path>
                <path d="M92.4109897,15.7371821 L95.3067171,15.7371821 L95.3067171,8.96 L101.100405,8.96 L101.100405,15.7371821 L103.996132,15.7371821 L103.996132,0.444261168 L101.100405,0.444261168 L101.100405,6.71890034 L95.3067171,6.71890034 L95.3067171,0.444261168 L92.4109897,0.444261168 L92.4109897,15.7371821 Z M108.387725,9.46034364 C108.512752,8.05498282 109.29864,6.99491409 110.849205,6.99491409 C112.402002,6.99491409 113.021558,8.13635739 113.104166,9.46034364 L108.387725,9.46034364 Z M114.966183,12.9253608 C113.932473,13.4960825 112.773736,13.9854296 111.428573,13.9854296 C109.711677,13.9854296 108.512752,13.0276289 108.387725,11.3352577 L115.753187,11.3352577 C115.753187,7.66680412 114.635753,4.99793814 110.685106,4.99793814 C107.374109,4.99793814 105.73982,7.50405498 105.73982,10.5402062 C105.73982,13.9854296 107.788262,15.9824055 111.305779,15.9824055 C112.794946,15.9824055 113.953683,15.6964948 114.966183,15.1466667 L114.966183,12.9253608 Z M118.122013,8.13635739 C119.051905,7.44247423 120.232969,6.99491409 121.4118,6.99491409 C123.046089,6.99491409 123.811883,7.56563574 123.811883,9.25690722 L122.280295,9.25690722 C121.121558,9.25690722 119.756302,9.35917526 118.701382,9.86831615 C117.645345,10.377457 116.880668,11.2945704 116.880668,12.8637801 C116.880668,14.860756 118.721475,15.9824055 120.604703,15.9824055 C121.866141,15.9824055 123.252608,15.3292096 123.89449,14.1690722 L123.934678,14.1690722 C123.957004,14.4945704 123.957004,15.1862543 124.058589,15.7371821 L126.499975,15.7371821 C126.438578,14.9223368 126.397274,14.188866 126.376064,13.3927148 C126.35597,12.6196564 126.33476,11.8246048 126.33476,10.7645361 L126.33476,9.41965636 C126.33476,6.32302405 124.989598,4.99793814 121.74223,4.99793814 C120.562283,4.99793814 119.114419,5.30364261 118.039405,5.79189003 L118.122013,8.13635739 Z M119.528573,12.7021306 C119.528573,11.091134 121.36938,10.8865979 122.610725,10.8865979 L123.811883,10.8865979 C123.811883,11.7014433 123.685739,12.4558076 123.231398,13.0474227 C122.79715,13.6181443 122.13629,13.9854296 121.286773,13.9854296 C120.29325,13.9854296 119.528573,13.5983505 119.528573,12.7021306 L119.528573,12.7021306 Z M128.762751,15.7371821 L131.535683,15.7371821 L131.535683,0.453058419 L128.762751,0.453058419 L128.762751,15.7371821 Z M134.919241,12.5789691 C134.919241,14.6573196 136.118166,15.9824055 138.29052,15.9824055 C139.118827,15.9824055 139.759594,15.9010309 140.337846,15.7371821 L140.255239,13.5763574 C139.966112,13.76 139.490561,13.862268 138.9938,13.862268 C137.93888,13.862268 137.691057,13.0276289 137.691057,12.1303093 L137.691057,7.2390378 L140.152537,7.2390378 L140.152537,5.24206186 L137.691057,5.24206186 L137.691057,2.26639175 L134.919241,3.14391753 L134.919241,5.24206186 L132.870799,5.24206186 L132.870799,7.2390378 L134.919241,7.2390378 L134.919241,12.5789691 Z M141.79464,15.7371821 L144.566456,15.7371821 L144.566456,10.6017869 C144.566456,9.25690722 145.00182,7.11697595 147.007843,7.11697595 C148.788369,7.11697595 148.808463,8.84893471 148.808463,10.1333333 L148.808463,15.7371821 L151.580279,15.7371821 L151.580279,9.11395189 C151.580279,6.74969072 150.484055,4.99793814 147.958945,4.99793814 C146.512198,4.99793814 145.312156,5.65003436 144.608877,6.66941581 L144.566456,6.66941581 L144.566456,0.453058419 L141.79464,0.453058419 L141.79464,15.7371821 L141.79464,15.7371821 Z" id="Fill-19"></path>
                <path d="M154.860019,13.7116151 C155.060957,13.7116151 155.181519,13.5862543 155.181519,13.3828179 C155.181519,13.1738832 155.060957,13.0628179 154.866717,13.0628179 L154.576475,13.0628179 L154.576475,13.7116151 L154.860019,13.7116151 Z M154.061853,12.691134 L154.982814,12.691134 C155.418178,12.691134 155.710653,12.9660481 155.710653,13.3828179 C155.710653,13.7237113 155.471761,13.9084536 155.314361,13.9491409 L155.314361,13.9623368 C155.314361,13.9623368 155.340036,13.9865292 155.393619,14.0843986 L155.813355,14.8750515 L155.242916,14.8750515 L154.866717,14.0701031 L154.576475,14.0701031 L154.576475,14.8750515 L154.061853,14.8750515 L154.061853,12.691134 Z M154.817599,15.5733333 C155.791028,15.5733333 156.535612,14.7892784 156.535612,13.795189 C156.535612,12.8021993 155.791028,12.0203436 154.817599,12.0203436 C153.864264,12.0203436 153.12303,12.8021993 153.12303,13.795189 C153.12303,14.7892784 153.864264,15.5733333 154.817599,15.5733333 Z M154.817599,11.6079725 C156.02992,11.6079725 157,12.5833677 157,13.795189 C157,15.0059107 156.02992,15.9857045 154.817599,15.9857045 C153.625372,15.9857045 152.656409,15.0059107 152.656409,13.795189 C152.656409,12.5833677 153.625372,11.6079725 154.817599,11.6079725 L154.817599,11.6079725 Z" id="Fill-20"></path>
            </g>
        </g>
    </g>
</svg>