<svg xmlns="http://www.w3.org/2000/svg" viewBox="0 0 278.84 126.1"><path fill="#07456b" d="M278.84 66.44c0 10.42-8.94 15.3-18.4 15.3-6.06 0-12.56-2-16.11-7.24l5.32-4.36C251.87 74 256.3 76 260.81 76c5.32 0 11.38-3.1 11.38-9.09 0-6.43-4.36-7.54-13.67-10.64-7.39-2.44-13-5.69-13-14.41 0-10 8.65-15.08 17.81-15.08 5.84 0 10.79 1.63 14.63 6.13l-5.1 4.43c-2.07-3.33-5.76-4.8-9.53-4.8-5.47 0-11.16 2.59-11.16 8.79 0 4.8 2.66 6.95 11 9.61 8.13 2.57 15.67 5.23 15.67 15.5zm-97-1.7c0 5.69-1.55 11.23-8.65 11.23-4.36 0-7-2.59-7.83-6.73l-6.21 1.26c1.33 7.46 6.58 11.23 14 11.23 11.16 0 14.93-7.83 14.93-14.85V28.09h-6.21v36.65zm21.56 15.67h6.21v-23.5H234v-5.76h-24.35v-17.3h26.23v-5.76h-32.43v52.32z"/><path fill="#a2def9" d="M129.6 50.74v24.52c0 5.25-5.25 5.25-5.25 5.25H94.84v.06l14.55 25.32s2.62 4.55-1.92 7.18l-21.12 12.27a6.44 6.44 0 01-2.91.76 4.72 4.72 0 01-4.24-2.68L64.64 98.1l-14.56 25.32a4.72 4.72 0 01-4.24 2.68 6.44 6.44 0 01-2.91-.75l-21.16-12.28c-4.53-2.63-1.92-7.18-1.92-7.18l14.56-25.32v-.06H5.26C0 80.52 0 75.26 0 75.26V50.74c0-5.25 5.26-5.25 5.26-5.25h29.13L44.49 63l-10 17.47h20.04v.06L64.64 98.1l10.08-17.52v-.06h20.12L84.79 63l10.08-17.48H74.7L64.64 28 79.2 2.68A4.72 4.72 0 0183.43 0a6.44 6.44 0 012.91.76L107.51 13c4.53 2.63 1.92 7.18 1.92 7.18L94.89 45.49h29.46c5.25 0 5.25 5.25 5.25 5.25zm-95.21-5.25h20.19L64.64 28 50.09 2.68A4.73 4.73 0 0045.85 0a6.44 6.44 0 00-2.91.76L21.78 13c-4.54 2.63-1.92 7.18-1.92 7.18z"/><path fill="#63cdf6" d="M44.49 63l10 17.47H34.45zm30.42-17.51h-.21L84.79 63l10.08-17.48h-20zm-20.35 0H34.39L44.49 63zm20.19 35h20.09L84.79 63zm-20.17-35H74.7L64.64 28zm-.05 35v.06L64.64 98.1l10.08-17.53v-.06H54.53z"/><path fill="#12c3f4" d="M74.72 45.52l-.02-.03H54.58l-.02.03-10.07 17.53 10.04 17.47h20.22l10.04-17.47-10.07-17.53"/></svg>