<svg xmlns="http://www.w3.org/2000/svg" xmlns:xlink="http://www.w3.org/1999/xlink">
  <title>Wolfson Children's Hospital</title>
  <defs>
    <style>
      #line1,
      #line2 {
        fill: #4d4d4f;
      }

      #stacked,
      #wide {
        visibility: hidden;
      }

      @media all and (min-aspect-ratio: 2/1) {
        #minimal {
          visibility: hidden;
        }

        #stacked {
          visibility: visible;
        }
      }

      @media all and (min-aspect-ratio: 3/1) {
        #stacked {
          visibility: hidden;
        }

        #wide {
          visibility: visible;
        }
      }
    </style>
  </defs>
  <symbol id="mark" viewBox="0 0 220 120">
    <path d="M4.33,52.26c-3.66,0-5-2.47-2.89-5.5L31.79,2.53c2.08-3,5.43-3,7.45.06L68.48,46.71c2,3,.68,5.55-3,5.55Z" fill="#00aeef"/>
    <path d="M63.4,119.72a6.22,6.22,0,0,0,6.2-6.2V64a6.21,6.21,0,0,0-6.2-6.2H6.49A6.22,6.22,0,0,0,.28,64v49.54a6.22,6.22,0,0,0,6.21,6.2Z" fill="#e31837"/>
    <path d="M154.46,52.26c-3.66,0-5-2.47-2.89-5.5L181.9,2.53c2.08-3,5.43-3,7.46.06l29.25,44.12c2,3,.69,5.55-3,5.55Z" fill="#00aeef"/>
    <path d="M156.61,57.79h56.92a6.2,6.2,0,0,1,6.2,6.2v49.54a6.19,6.19,0,0,1-6.19,6.19H156.61a6.2,6.2,0,0,1-6.2-6.2V64A6.2,6.2,0,0,1,156.61,57.79Z" fill="#00907e"/>
    <path d="M79.39,52.26c-3.67,0-5-2.47-2.89-5.5L106.84,2.53c2.08-3,5.43-3,7.45.06l29.26,44.12c2,3,.69,5.55-3,5.55Z" fill="#00aeef"/>
    <path d="M138.45,119.72a6.21,6.21,0,0,0,6.21-6.2V64a6.21,6.21,0,0,0-6.21-6.2H81.54a6.21,6.21,0,0,0-6.2,6.2v49.54a6.21,6.21,0,0,0,6.2,6.2Z" fill="#ffd65a"/>
  </symbol>
  <symbol id="line1" viewBox="0 0 223 56">
    <path d="M19.71,39.48h.13L29.3,6.43h5.49l9.84,33.05h.13L54.08,7.06H63.8L47.71,55.56H40.9L31.45,24.47h-.13l-9,31.09H15.55L.41,7.06h9.71Z"/>
    <path d="M92.17,39.16c0,9.59-6.56,16.47-16.27,16.47S59.63,48.75,59.63,39.16,66.25,22.64,75.9,22.64,92.17,29.51,92.17,39.16Zm-23.59,0c0,4.16,2.77,8.65,7.32,8.65s7.31-4.48,7.31-8.65-2.77-8.7-7.31-8.7S68.59,34.87,68.59,39.16Z"/>
    <path d="M105.8,54.62H97V1.13h8.83Z"/>
    <path d="M122.74,54.62h-8.83V31.09h-3V23.65h3V14.56C113.91,7,117.07.37,125.58.37a9.1,9.1,0,0,1,4.23,1V9.27a7.93,7.93,0,0,0-3.59-1.07c-3.91,0-3.47,5.11-3.47,7.63v7.82h7.07v7.44h-7.07Z"/>
    <path d="M149.23,31a7,7,0,0,0-4.67-2.14,2.84,2.84,0,0,0-2.9,2.64c0,2.27,3.22,2.91,6.37,4.29s6.37,3.53,6.37,8.89c0,6.88-5.56,11-12.05,11a14.22,14.22,0,0,1-10.91-5.18l4-5.23c1.7,1.89,4,3.59,6.56,3.59a3.33,3.33,0,0,0,3.53-3.34c0-2.71-3.09-3.34-6.18-4.67s-6.19-3.15-6.19-8.14c0-5.8,4-10,9.84-10,3.28,0,7.44,1,10,3.22Z"/>
    <path d="M190.14,39.16c0,9.59-6.56,16.47-16.27,16.47S157.6,48.75,157.6,39.16s6.62-16.52,16.27-16.52S190.14,29.51,190.14,39.16Zm-23.58,0c0,4.16,2.77,8.65,7.31,8.65s7.31-4.48,7.31-8.65-2.77-8.7-7.31-8.7S166.56,34.87,166.56,39.16Z"/>
    <path d="M203.67,26.49h.13c1.83-2.77,4.92-3.85,8.07-3.85,8.32,0,10.72,5.87,10.72,13.06V54.62h-8.82V38.22c0-3.73.19-8.51-4.79-8.51-5.24,0-5.3,5.86-5.3,9.58V54.62h-8.83v-31h8.83Z"/>
  </symbol>
  <symbol id="line2" viewBox="0 0 256 56">
    <path d="M34.06,19.17a13.7,13.7,0,0,0-10.47-5c-8.89,0-14,8.2-14,16.4,0,8,5.3,16,13.94,16a14.5,14.5,0,0,0,10.53-5v11a25,25,0,0,1-10.79,2.84C9.9,55.37,0,43.83,0,30.71,0,17.21,9.52,5.29,23.46,5.29A22.15,22.15,0,0,1,34.06,8.07Z"/>
    <path d="M48.76.63v25.1h.13c1.83-2.52,4.92-3.59,8.07-3.59,8.33,0,10.72,5.87,10.72,13.06V54.11H58.85V37.71c0-3.72.19-8.51-4.8-8.51-5.23,0-5.3,5.87-5.3,9.58V54.11H39.93V.63Z"/>
    <path d="M84.09,12.81a5.24,5.24,0,1,1-5.23-5.23A5.23,5.23,0,0,1,84.09,12.81Zm-.82,41.29H74.44v-31h8.83Z"/>
    <path d="M98.88,54.11H90.05V.63h8.83Z"/>
    <path d="M126.73,51.21h-.13a10.37,10.37,0,0,1-8.33,3.91c-9.08,0-14.26-8.26-14.26-16.65,0-8.2,5.23-16.33,14.13-16.33A10.92,10.92,0,0,1,126.6,26h.13V.63h8.83V54.11h-8.83Zm.88-12.61c0-4.16-2.77-8.65-7.31-8.65S113,34.43,113,38.59s2.77,8.71,7.31,8.71S127.61,42.76,127.61,38.59Z"/>
    <path d="M151.33,26.36h.13a8.85,8.85,0,0,1,7.69-4.23,10.29,10.29,0,0,1,3.66.76l-1.07,8.2a6.3,6.3,0,0,0-3.66-1.14c-6.12,0-6.75,5.43-6.75,10.22V54.11H142.5v-31h8.83Z"/>
    <path d="M172,40c0,3.91,1.52,8.32,6.12,8.32,2.9,0,4.73-1.77,5.93-4.23l8.14,1.33c-2.15,6.18-7.57,9.65-14.07,9.65-9.59,0-15.45-6.81-15.45-16.21s5-16.77,15-16.77S192.35,29.64,192.35,39V40Zm12-5.49c-.44-3.15-2.45-6.24-5.86-6.24s-5.49,3-5.93,6.24Z"/>
    <path d="M205.82,26h.12c1.83-2.77,4.92-3.85,8.08-3.85,8.33,0,10.72,5.87,10.72,13.06V54.11h-8.83V37.71c0-3.72.19-8.51-4.79-8.51-5.23,0-5.3,5.87-5.3,9.58V54.11H197v-31h8.83Z"/>
    <path d="M239.54,6.24l-9.08,18.93-5.87-.7,6.87-19.17Z"/>
    <path d="M250.83,30.45a7,7,0,0,0-4.67-2.14,2.85,2.85,0,0,0-2.9,2.65c0,2.27,3.22,2.9,6.38,4.29S256,38.78,256,44.14c0,6.87-5.55,11-12,11A14.24,14.24,0,0,1,233,49.95l4-5.23c1.7,1.89,4,3.59,6.56,3.59A3.33,3.33,0,0,0,247.17,45c0-2.71-3.09-3.35-6.18-4.66s-6.19-3.16-6.19-8.15c0-5.8,4-10,9.84-10,3.28,0,7.44,1,10,3.22Z"/>
  </symbol>
  <svg id="minimal" viewBox="0 0 220 130">
    <use xlink:href="#mark" width="220" height="120"/>
  </svg>
  <svg id="stacked" viewBox="0 0 107 48">
    <use xlink:href="#mark" height="26"/>
    <use xlink:href="#line1" y="30" width="48" height="13"/>
    <use xlink:href="#line2" x="52" y="30" width="55" height="13"/>
  </svg>
  <svg id="wide" viewBox="0 0 456 136">
    <use xlink:href="#mark" width="220" height="120"/>
    <use xlink:href="#line1" x="237" y="12" width="191" height="48"/>
    <use xlink:href="#line2" x="236" y="72" width="220" height="48"/>
  </svg>
</svg>
