<?xml version="1.0" encoding="utf-8"?>
<!-- Generator: Adobe Illustrator 25.4.1, SVG Export Plug-In . SVG Version: 6.00 Build 0)  -->
<svg version="1.1" id="Layer_1" shape-rendering="geometricPrecision"
	 xmlns="http://www.w3.org/2000/svg" xmlns:xlink="http://www.w3.org/1999/xlink" x="0px" y="0px" viewBox="0 0 200 50"
	 style="enable-background:new 0 0 200 50;" xml:space="preserve">
<style type="text/css">
	.st0{fill:#00467F;}
	.st1{fill:#008FC5;}
</style>
<g>
	<g>
		<polygon class="st0" points="71.4,10.8 59.8,10.8 59.8,1.2 58,1.2 58,21.7 59.8,21.7 59.8,12.4 71.4,12.4 71.4,21.7 73.3,21.7 
			73.3,1.2 71.4,1.2 		"/>
		<path class="st0" d="M82.9,6.1c-1.8,0-3.4,0.7-4.7,2.2c-1.3,1.5-1.9,3.3-1.9,5.4v0.8c0,2.2,0.6,4,1.9,5.4c1.3,1.4,2.9,2.2,4.9,2.2
			c1.2,0,2.3-0.2,3.2-0.5c0.9-0.4,1.6-0.9,2.2-1.5l0,0l-0.8-1.4l-0.1,0.1c-0.5,0.5-1.2,1-1.9,1.2c-0.7,0.3-1.6,0.4-2.7,0.4
			c-1.5,0-2.7-0.6-3.6-1.7c-0.9-1.1-1.4-2.6-1.4-4.2v-0.3h10.9v-1.5c0-2-0.6-3.6-1.6-4.7C86.3,6.7,84.8,6.1,82.9,6.1z M82.9,7.7
			c1.3,0,2.4,0.4,3.1,1.3c0.8,0.9,1.2,2,1.2,3.3v0.3h-8.9l0,0c0.1-1.4,0.6-2.6,1.5-3.5C80.6,8.2,81.6,7.7,82.9,7.7z"/>
		<path class="st0" d="M98.1,6.1c-1.2,0-2.2,0.3-3,0.8c-0.8,0.5-1.4,1.1-1.9,2l-0.1-2.5h-1.7v15.3h1.9V11.1c0.3-1,0.9-1.9,1.6-2.5
			s1.7-0.9,2.9-0.9c1.2,0,2.1,0.4,2.7,1.1c0.6,0.7,1,2,1,3.7v9.3h1.9v-9.3c0-2.2-0.4-3.8-1.3-4.7C101,6.6,99.8,6.1,98.1,6.1z"/>
		<path class="st0" d="M113.1,6.2c-0.2,0-0.4,0-0.6,0c-1,0-2,0.3-2.7,0.8c-0.7,0.5-1.2,1.1-1.7,2l-0.2-2.5h-1.6v15.2h1.9V11.3
			c0.3-1,0.8-1.8,1.4-2.4c0.7-0.6,1.5-0.9,2.6-0.9l1.3,0.1l0.2-1.7h-0.1C113.5,6.2,113.3,6.2,113.1,6.2z"/>
		<path class="st0" d="M121.3,19.3l-0.5-1.7l-4.2-11.1V6.4h-2.1l6,15.1l-0.8,2c-0.3,0.8-0.7,1.5-1.1,2c-0.4,0.5-1,0.8-1.7,0.8
			c-0.1,0-0.3,0-0.5,0s-0.4,0-0.5-0.1h-0.1l-0.2,1.6h0.1c0.1,0,0.3,0.1,0.6,0.1s0.5,0.1,0.7,0.1c1.2,0,2.2-0.4,2.8-1.1
			s1.2-1.6,1.6-2.7L128,6.5V6.4h-2L121.3,19.3z"/>
		<polygon class="st0" points="145.9,19.2 138.3,1.2 138.3,1.2 135.9,1.2 135.9,21.7 137.8,21.7 137.8,12.6 137.6,4 145.3,21.7 
			146.6,21.7 154.2,3.9 154.1,12.6 154.1,21.7 155.9,21.7 155.9,1.2 153.5,1.2 		"/>
		<path class="st0" d="M171.2,20.2c-0.1-0.5-0.1-1-0.1-1.6v-7.5c0-1.6-0.5-2.9-1.6-3.8c-1-0.9-2.4-1.3-4.1-1.3
			c-1.7,0-3.2,0.5-4.3,1.4s-1.7,2-1.6,3.1l0.1,0.2h1.7v-0.1c0-0.8,0.4-1.5,1.1-2.1c0.8-0.6,1.7-0.9,2.9-0.9c1.2,0,2.2,0.3,2.9,0.9
			c0.7,0.6,1,1.5,1,2.5v1.8H166c-2.1,0-3.8,0.4-5,1.3c-1.2,0.9-1.9,2-1.9,3.5c0,1.4,0.4,2.4,1.3,3.3c0.8,0.8,2,1.2,3.5,1.2
			c1.2,0,2.3-0.3,3.2-0.8c0.9-0.5,1.6-1.1,2.2-1.8c0,0.3,0,0.6,0.1,0.9c0.1,0.4,0.1,0.9,0.2,1.4v0.1h1.9v-0.1
			C171.4,21.2,171.3,20.7,171.2,20.2z M162.3,15.3c0.9-0.6,2.1-1,3.7-1h3.3v3.1c-0.4,0.9-1.1,1.6-2,2.1c-0.9,0.6-2,0.8-3.2,0.8
			c-1,0-1.8-0.3-2.3-0.8c-0.6-0.5-0.8-1.2-0.8-2C160.9,16.8,161.4,16,162.3,15.3z"/>
		<path class="st0" d="M179.5,19.3l-0.5-1.7l-4.2-11.1V6.4h-2.1l6,15.1l-0.8,2c-0.3,0.8-0.7,1.5-1.1,2c-0.4,0.5-1,0.8-1.7,0.8
			c-0.1,0-0.2,0-0.5,0c-0.2,0-0.4,0-0.5-0.1H174l-0.2,1.6h0.1c0.1,0,0.3,0.1,0.6,0.1s0.5,0.1,0.7,0.1c1.2,0,2.2-0.4,2.8-1.1
			c0.6-0.7,1.2-1.6,1.6-2.7l6.7-17.6V6.5h-2.1L179.5,19.3z"/>
		<path class="st0" d="M198.1,8.3c-1.3-1.5-2.9-2.2-5-2.2s-3.7,0.7-5,2.2c-1.2,1.5-1.9,3.3-1.9,5.5v0.5c0,2.3,0.6,4.2,1.9,5.5
			c1.3,1.5,2.9,2.2,5,2.2s3.7-0.7,5-2.2c1.2-1.5,1.9-3.3,1.9-5.5v-0.5C200,11.7,199.4,9.8,198.1,8.3z M193.1,20.5
			c-1.6,0-2.8-0.6-3.7-1.8c-0.9-1.2-1.3-2.7-1.3-4.3v-0.5c0-1.7,0.4-3.2,1.3-4.3s2.1-1.8,3.7-1.8c1.6,0,2.8,0.6,3.7,1.8
			c0.9,1.2,1.4,2.7,1.4,4.3v0.5c0,1.8-0.5,3.3-1.3,4.3C195.9,19.9,194.7,20.5,193.1,20.5z"/>
	</g>
	<path class="st0" d="M12.9,6.4c0,2.9-2.3,5.1-5.2,5.1S2.5,9.3,2.5,6.4s2.3-5.1,5.2-5.1C10.5,1.2,12.9,3.6,12.9,6.4z"/>
	<path class="st0" d="M23.8,0.4C20.3,0.5,17,1.3,14,2.7c0.6,1.1,1,2.4,1,3.8c0,4.1-3.3,7.3-7.4,7.3c-1.6,0-3.1-0.5-4.3-1.4
		C1.4,15.5,0.3,19.2,0,23c8.6-8.8,18.6-4.8,18.6-4.8V8.7c0,0,8.6,0.1,10.3,0.1C27.8,3.5,24.1,0.6,23.8,0.4z"/>
	<path class="st1" d="M43,12.6c-2.9,0-5.2-2.3-5.2-5.1s2.3-5.1,5.2-5.1s5.2,2.3,5.2,5.1C48.2,10.3,45.9,12.6,43,12.6z"/>
	<path class="st1" d="M49.1,23.4c-0.1-3.5-0.9-6.7-2.3-9.7c-1.1,0.6-2.4,1-3.8,1c-4.1,0-7.4-3.3-7.4-7.3c0-1.6,0.5-3.1,1.4-4.2
		c-3.3-1.8-6.9-3-10.8-3.2c8.9,8.5,4.9,18.4,4.9,18.4h9.6c0,0-0.1,8.5-0.1,10.2C46,27.4,48.8,23.7,49.1,23.4z"/>
	<path class="st0" d="M36.3,42.3c0-2.9,2.3-5.1,5.2-5.1c2.9,0,5.2,2.3,5.2,5.1c0,2.9-2.3,5.1-5.2,5.1C38.6,47.4,36.3,45.2,36.3,42.3
		z"/>
	<path class="st0" d="M25.3,48.3c3.5-0.1,6.8-0.9,9.8-2.3c-0.6-1.1-1-2.4-1-3.8c0-4.1,3.3-7.3,7.4-7.3c1.6,0,3.1,0.5,4.3,1.4
		c1.9-3.2,3-6.8,3.3-10.7c-8.6,8.8-18.6,4.8-18.6,4.8V40c0,0-8.6-0.1-10.3-0.1C21.3,45.3,25,48,25.3,48.3z"/>
	<ellipse class="st1" cx="6.2" cy="41.2" rx="5.2" ry="5.1"/>
	<path class="st1" d="M0.1,25.2c0.1,3.5,0.9,6.7,2.3,9.7c1.1-0.6,2.4-1,3.8-1c4.1,0,7.4,3.3,7.4,7.3c0,1.6-0.5,3.1-1.4,4.2
		c3.2,1.9,6.9,3,10.8,3.3c-8.9-8.5-4.9-18.4-4.9-18.4H8.5c0,0,0.1-8.5,0.1-10.2C3.2,21.2,0.3,24.9,0.1,25.2z"/>
	<g>
		<polygon class="st1" points="67.7,42.9 59.6,30.8 58.1,30.8 58.1,45.8 59.7,45.8 59.7,33.7 67.8,45.8 69.4,45.8 69.4,30.8 
			67.7,30.8 		"/>
		<path class="st1" d="M76,34.4c-1.3,0-2.5,0.5-3.4,1.6c-0.9,1.1-1.4,2.4-1.4,4v0.6c0,1.6,0.5,2.9,1.4,4s2.2,1.6,3.6,1.6
			c0.9,0,1.7-0.1,2.3-0.4c0.7-0.3,1.2-0.6,1.6-1.1l0.1-0.1l-0.8-1.2l-0.1,0.2c-0.4,0.4-0.8,0.7-1.3,0.9s-1.1,0.3-1.9,0.3
			c-1,0-1.8-0.4-2.4-1.2c-0.6-0.8-0.9-1.8-0.9-3v-0.1h7.7v-1.3c0-1.5-0.4-2.7-1.2-3.6C78.6,34.8,77.4,34.4,76,34.4z M76,35.8
			c0.9,0,1.6,0.3,2.1,0.9c0.5,0.6,0.8,1.3,0.8,2.2v0.1h-6c0.1-0.9,0.5-1.7,1-2.3C74.5,36.1,75.2,35.8,76,35.8z"/>
		<polygon class="st1" points="92,42 91.7,43.3 91.4,42 89,34.6 87.7,34.6 85.3,42 85,43.2 84.7,42 82.6,34.6 80.9,34.6 84.2,45.8 
			85.6,45.8 88,38.2 88.3,37.1 88.6,38.2 91.1,45.8 92.5,45.8 95.8,34.6 94.1,34.6 		"/>
		<path class="st1" d="M101.9,34.4c-0.8,0-1.6,0.2-2.2,0.6c-0.4,0.3-0.8,0.6-1.1,1v-5.5H97v15.4h1.7V38c0.2-0.7,0.6-1.2,1.1-1.6
			s1.2-0.6,1.9-0.6c0.8,0,1.3,0.2,1.8,0.7c0.4,0.5,0.6,1.3,0.6,2.4v6.9h1.7v-6.9c0-1.6-0.3-2.7-1-3.5
			C104.1,34.7,103.1,34.4,101.9,34.4z"/>
		<path class="st1" d="M116.2,44.5c0-0.4-0.1-0.7-0.1-1.1V38c0-1.2-0.4-2.2-1.2-2.8s-1.8-1-3.1-1s-2.3,0.3-3.1,1
			c-0.8,0.7-1.2,1.5-1.2,2.4l0.1,0.3h1.5v-0.2c0-0.5,0.2-1,0.8-1.4c0.5-0.4,1.2-0.6,2-0.6c0.8,0,1.5,0.2,2,0.6
			c0.5,0.4,0.7,1,0.7,1.7v1.1h-2.2c-1.5,0-2.8,0.3-3.7,0.9c-0.9,0.6-1.4,1.5-1.4,2.6c0,1,0.3,1.8,1,2.4c0.6,0.6,1.5,0.9,2.6,0.9
			c0.9,0,1.7-0.2,2.4-0.6c0.5-0.3,1-0.6,1.3-1c0,0.1,0,0.2,0,0.3c0,0.3,0.1,0.6,0.2,1v0.2h1.7l-0.1-0.3
			C116.4,45.2,116.3,44.9,116.2,44.5z M109.8,41.2c0.6-0.4,1.5-0.7,2.5-0.7h2.2v2c-0.3,0.6-0.7,1.1-1.3,1.4
			c-0.6,0.4-1.4,0.6-2.2,0.6c-0.7,0-1.2-0.2-1.5-0.5c-0.4-0.3-0.5-0.8-0.5-1.3C108.9,42.1,109.2,41.6,109.8,41.2z"/>
		<polygon class="st1" points="118.5,45.8 120.1,45.8 120.1,36.7 120.1,30.3 118.5,30.3 118.5,39.4 		"/>
		<polygon class="st1" points="122.6,45.8 124.2,45.8 124.2,35.4 124.2,30.3 122.6,30.3 122.6,39.3 		"/>
		<polygon class="st1" points="140.9,37.4 132.9,37.4 132.9,30.3 131.3,30.3 131.3,45.8 132.9,45.8 132.9,38.8 140.9,38.8 
			140.9,45.8 142.5,45.8 142.5,30.3 140.9,30.3 		"/>
		<path class="st1" d="M149.4,34.4c-1.5,0-2.8,0.5-3.7,1.6c-0.9,1.1-1.4,2.5-1.4,4.1v0.3c0,1.7,0.5,3.1,1.4,4.1
			c0.9,1.1,2.2,1.6,3.7,1.6s2.8-0.5,3.7-1.6c0.9-1.1,1.4-2.5,1.4-4.1V40c0-1.7-0.5-3-1.4-4.1C152.1,34.9,150.9,34.4,149.4,34.4z
			 M149.4,44.6c-1.1,0-1.9-0.4-2.5-1.2c-0.6-0.8-0.9-1.9-0.9-3.1V40c0-1.2,0.3-2.2,0.9-3c0.6-0.8,1.4-1.2,2.5-1.2s1.9,0.4,2.5,1.2
			c0.6,0.8,0.9,1.9,0.9,3v0.3c0,1.2-0.3,2.2-0.9,3.1C151.3,44.2,150.5,44.6,149.4,44.6z"/>
		<path class="st1" d="M163.1,40.6c-0.7-0.5-1.7-0.9-3-1.2c-1.1-0.2-1.8-0.5-2.2-0.8c-0.3-0.3-0.5-0.6-0.5-1.1
			c0-0.4,0.2-0.8,0.6-1.2c0.4-0.3,1-0.5,1.8-0.5c0.8,0,1.4,0.2,1.9,0.6c0.5,0.4,0.7,0.9,0.7,1.4V38h1.5v-0.2v-0.1
			c0-1-0.3-1.8-1.1-2.5c-0.8-0.6-1.8-1-3.1-1c-1.2,0-2.2,0.3-2.9,0.9c-0.8,0.6-1.1,1.4-1.1,2.3s0.3,1.6,1,2.2c0.6,0.5,1.7,0.9,3,1.2
			c1.1,0.2,1.8,0.5,2.2,0.9c0.4,0.3,0.6,0.7,0.6,1.2c0,0.5-0.2,0.9-0.7,1.2c-0.5,0.4-1.1,0.5-1.9,0.5s-1.4-0.2-2-0.5
			c-0.5-0.3-0.8-0.8-0.9-1.5v-0.2h-1.5v0.2v0.1c0,0.9,0.3,1.8,1.2,2.4c0.8,0.7,1.9,1,3.3,1c1.3,0,2.3-0.3,3.1-0.9
			c0.8-0.6,1.2-1.4,1.2-2.4C164.1,41.9,163.8,41.1,163.1,40.6z"/>
		<path class="st1" d="M170.7,34.4c-0.8,0-1.5,0.2-2.1,0.5c-0.4,0.3-0.8,0.6-1.1,1l-0.1-1.3H166V50h1.7v-5.2
			c0.3,0.3,0.7,0.6,1.1,0.8c0.6,0.3,1.3,0.5,2.1,0.5c1.4,0,2.5-0.5,3.2-1.5c0.8-1,1.2-2.4,1.2-4.1v-0.2c0-1.8-0.4-3.2-1.2-4.2
			C173.2,34.9,172.1,34.4,170.7,34.4z M173.5,40.2v0.3c0,1.3-0.3,2.3-0.8,3.1c-0.5,0.7-1.2,1.1-2.2,1.1c-0.7,0-1.4-0.2-1.8-0.5
			c-0.5-0.3-0.8-0.7-1.1-1.3v-5.1c0.2-0.6,0.6-1,1.1-1.4c0.5-0.4,1.1-0.5,1.9-0.5c1,0,1.7,0.4,2.2,1.2
			C173.2,37.8,173.5,38.9,173.5,40.2z"/>
		<polygon class="st1" points="176.9,33.1 178.6,33.1 178.6,32.2 178.6,31.9 178.6,31 176.9,31 176.9,32 		"/>
		<polygon class="st1" points="176.9,45.8 178.6,45.8 178.6,37.8 178.6,34.6 176.9,34.6 176.9,42.1 		"/>
		<path class="st1" d="M185.6,44.5c-0.2,0-0.4,0.1-0.6,0.1c-0.2,0-0.4,0-0.6,0c-0.4,0-0.7-0.1-0.9-0.4c-0.2-0.3-0.3-0.7-0.3-1.4V36
			h2.4v-1.4h-2.4v-2.8h-1.7v2.8h-1.9V36h1.9v6.8c0,1.1,0.2,1.9,0.7,2.5c0.5,0.5,1.1,0.8,2,0.8c0.3,0,0.6,0,0.9-0.1
			c0.3-0.1,0.6-0.1,0.8-0.2l0.2-0.1l-0.3-1.3L185.6,44.5z"/>
		<path class="st1" d="M195.6,44.5c0-0.4-0.1-0.7-0.1-1.1V38c0-1.2-0.4-2.2-1.2-2.8c-0.8-0.6-1.8-1-3.1-1c-1.3,0-2.3,0.3-3.1,1
			c-0.8,0.7-1.2,1.5-1.2,2.4l0.1,0.3h1.5v-0.2c0-0.5,0.2-1,0.7-1.4c0.5-0.4,1.2-0.6,2-0.6s1.5,0.2,2,0.6c0.5,0.4,0.7,1,0.7,1.7v1.1
			h-2.2c-1.5,0-2.8,0.3-3.7,0.9c-0.9,0.6-1.4,1.5-1.4,2.6c0,1,0.3,1.8,1,2.4c0.6,0.6,1.5,0.9,2.6,0.9c0.9,0,1.7-0.2,2.4-0.6
			c0.5-0.3,1-0.6,1.3-1c0,0.1,0,0.2,0,0.3c0,0.3,0.1,0.6,0.2,1v0.2h1.7l-0.1-0.3C195.7,45.2,195.6,44.9,195.6,44.5z M189.1,41.2
			c0.6-0.4,1.5-0.7,2.5-0.7h2.2v2c-0.3,0.6-0.7,1.1-1.3,1.4c-0.6,0.4-1.4,0.6-2.2,0.6c-0.7,0-1.2-0.2-1.5-0.5
			c-0.4-0.3-0.5-0.8-0.5-1.3C188.2,42.1,188.5,41.6,189.1,41.2z"/>
		<polygon class="st1" points="197.8,30.3 197.8,34.5 197.8,45.8 199.5,45.8 199.5,37.3 199.5,30.3 		"/>
	</g>
</g>
</svg>
