<?xml version="1.0" encoding="utf-8"?><svg version="1.1" id="Layer_1" xmlns="http://www.w3.org/2000/svg" x="0" y="0" viewBox="0 0 530 108" xml:space="preserve"><style>.st0{fill:#626366}.st1{fill:#0202ea}</style><path class="st0" d="M133.5 45.7c-2.3 0-6.2.5-9.2 3.5V33.8c0-1.6-1.3-2.9-2.9-2.9h-.4c-1.6 0-2.9 1.3-2.9 2.9v40.6c0 1.6 1.3 2.9 2.9 2.9h.4c1.6 0 2.9-1.3 2.9-2.9V60c0-4.9 3.4-8.3 8.3-8.3s7.6 3 7.6 8.2v14.5c0 1.6 1.3 2.9 2.9 2.9h.5c1.6 0 2.9-1.3 2.9-2.9V58.2c0-7.5-5.2-12.5-13-12.5m42.2 13.2h-17c1-4.7 4.2-7.6 8.7-7.6 4.4.1 7.5 2.9 8.3 7.6m-8.2-13.2c-8.9 0-15.4 6.8-15.4 16.1 0 9.5 6.5 16.1 15.7 16.1 4.4 0 7.9-1.1 11-3.3.5-.4.9-1 1-1.7.1-.7-.1-1.4-.5-2-1-1.3-2.7-1.6-4.1-.7-2.2 1.4-4.6 2.1-7.1 2.1-5.1 0-8.7-3.1-9.5-8.1h21c1.4 0 2.5-1.1 2.5-2.5-.1-9.4-6.1-16-14.6-16M201.8 72c-5.6 0-9.7-4.3-9.7-10.2 0-5.9 4.1-10.2 9.7-10.2s9.7 4.3 9.7 10.2c0 5.9-4 10.2-9.7 10.2m12.8-25.7h-.5c-1.6 0-2.9 1.3-2.9 2.9v.3c-2.6-2.5-6-3.8-10-3.8-8.8 0-15.5 6.9-15.5 16.1s6.7 16.1 15.5 16.1c4 0 7.4-1.3 10-3.8v.2c0 1.6 1.3 2.9 2.9 2.9h.5c1.6 0 2.9-1.3 2.9-2.9V49.2c0-1.6-1.3-2.9-2.9-2.9M228 30.9h-.4c-1.6 0-2.9 1.3-2.9 2.9v40.6c0 1.6 1.3 2.9 2.9 2.9h.4c1.6 0 2.9-1.3 2.9-2.9V33.8c-.1-1.6-1.4-2.9-2.9-2.9m29 40.2c-1.4.6-2.8.9-4.1.9-3.3 0-5.1-2.1-5.1-5.9v-14h9.6c1.6 0 2.9-1.3 2.9-2.9s-1.3-2.9-2.9-2.9h-9.6v-6.5c0-1.6-1.3-2.9-2.9-2.9h-.5c-1.6 0-2.9 1.3-2.9 2.9v6.5H238c-1.6 0-2.9 1.3-2.9 2.9s1.3 2.9 2.9 2.9h3.5v14.1c0 7.6 3.9 11.7 10.9 11.7 2.5 0 4.9-.6 7.1-1.7.7-.4 1.2-1 1.4-1.8.2-.8.1-1.6-.3-2.3-.7-1.2-2.3-1.7-3.6-1m24.4-25.4c-2.3 0-6.2.5-9.2 3.5V33.8c0-1.6-1.3-2.9-2.9-2.9h-.4c-1.6 0-2.9 1.3-2.9 2.9v40.6c0 1.6 1.3 2.9 2.9 2.9h.4c1.6 0 2.9-1.3 2.9-2.9V60c0-4.9 3.4-8.3 8.3-8.3s7.6 3 7.6 8.2v14.5c0 1.6 1.3 2.9 2.9 2.9h.5c1.6 0 2.9-1.3 2.9-2.9V58.2c0-7.5-5.3-12.5-13-12.5m44.1 15.9c0 5.8-4 9.9-9.6 9.9-5.5 0-9.6-4.2-9.6-9.9s4-9.9 9.6-9.9c5.5-.1 9.6 4.1 9.6 9.9m2.9-15.3h-.5c-1.6 0-2.9 1.3-2.9 2.9v.3c-2.5-2.5-5.8-3.8-9.7-3.8-8.9 0-15.3 6.7-15.3 15.9s6.4 15.9 15.3 15.9c3.9 0 7.3-1.3 9.7-3.7V75c0 6.1-3.8 9.7-10.2 9.7-2.8 0-5.6-.7-8.1-2.1-.7-.4-1.4-.4-2.1-.2-.7.2-1.3.7-1.7 1.4l-.1.1c-.7 1.4-.2 3.1 1.1 3.9 3 1.7 7 2.7 10.9 2.7 10.1 0 16.4-6 16.4-15.7V49.2c.1-1.6-1.2-2.9-2.8-2.9m27.4-.4c-.9-.2-1.9-.2-3-.2-3.2 0-6.1 1.2-8.2 3.5 0-1.6-1.3-2.9-2.9-2.9h-.4c-1.6 0-2.9 1.3-2.9 2.9v25.2c0 1.6 1.3 2.9 2.9 2.9h.4c1.6 0 2.9-1.3 2.9-2.9V60.1c0-5 2.9-8.4 7.2-8.4.9 0 1.8.1 2.7.3 1.6.4 3.2-.6 3.6-2.1v-.2c.2-.8.1-1.7-.4-2.4-.4-.7-1.1-1.2-1.9-1.4M375.7 72c-5.6 0-9.7-4.3-9.7-10.2 0-5.9 4.1-10.2 9.7-10.2s9.7 4.3 9.7 10.2c0 5.9-4 10.2-9.7 10.2m12.8-25.7h-.5c-1.6 0-2.9 1.3-2.9 2.9v.3c-2.6-2.5-6-3.8-10-3.8-8.8 0-15.5 6.9-15.5 16.1s6.7 16.1 15.5 16.1c4 0 7.4-1.3 10-3.8v.2c0 1.6 1.3 2.9 2.9 2.9h.5c1.6 0 2.9-1.3 2.9-2.9V49.2c0-1.6-1.3-2.9-2.9-2.9m34.6 15.5c0 5.9-4.1 10.2-9.7 10.2s-9.7-4.3-9.7-10.2c0-5.9 4.1-10.2 9.7-10.2s9.7 4.3 9.7 10.2m3-30.9h-.5c-1.6 0-2.9 1.3-2.9 2.9v15.7c-2.6-2.5-6-3.8-10-3.8-8.8 0-15.5 6.9-15.5 16.1 0 9.2 6.7 16.1 15.5 16.1 4 0 7.4-1.3 10-3.8v.2c0 1.6 1.3 2.9 2.9 2.9h.5c1.6 0 2.9-1.3 2.9-2.9V33.8c0-1.6-1.3-2.9-2.9-2.9M484.5 59l-3.5-.4c-4.7-.6-5.3-2.1-5.3-3.4 0-2.4 2.4-3.9 6.2-3.9 2.4 0 5.1.6 7.4 1.6 1.4.6 3.1.1 3.8-1.2.4-.7.5-1.5.2-2.2-.2-.7-.7-1.3-1.4-1.6-2.9-1.4-6.5-2.1-10.1-2.1-7.6 0-12.6 3.8-12.6 9.7 0 3.5 1.8 7.9 10.4 8.9l3.5.4c5.5.7 5.5 2.8 5.5 3.5 0 2.5-2.7 4-7.4 4-3.2 0-5.9-.6-8.1-1.9-1.3-.8-3-.3-3.8 1-.4.6-.5 1.4-.3 2.1.2.7.7 1.4 1.3 1.7 4.2 2.3 8.6 2.6 10.9 2.6 8.4 0 13.8-3.9 13.8-9.9 0-3.4-1.8-7.7-10.5-8.9m-26-.1h-17c1-4.7 4.2-7.6 8.7-7.6 4.4.1 7.5 2.9 8.3 7.6m-8.2-13.2c-8.9 0-15.4 6.8-15.4 16.1 0 9.5 6.5 16.1 15.7 16.1 4.4 0 7.9-1.1 11-3.3.5-.4.9-1 1-1.7.1-.7-.1-1.4-.5-2-1-1.2-2.7-1.6-4.1-.7-2.2 1.4-4.6 2.1-7.1 2.1-5.1 0-8.7-3.1-9.5-8.1h21c1.4 0 2.5-1.1 2.5-2.5 0-9.4-6.1-16-14.6-16"/><path class="st1" d="M74.9 43.4c.9.9 2 1.3 3.1 1.3s2.2-.4 3.1-1.3l15.7-15.7c1.7-1.7 1.7-4.5 0-6.2-1.7-1.7-4.5-1.7-6.2 0L74.9 37.2c-1.7 1.7-1.7 4.5 0 6.2z"/><path class="st1" d="M89 50.9c-1.7-1.7-4.3-1.7-6-.2L60.5 73.3c-1.3 1.3-3.3 1.3-4.6 0-1.3-1.3-1.3-3.3 0-4.6l8.1-8.1 8.4-8.4c1.7-1.7 1.7-4.5 0-6.2-1.7-1.7-4.5-1.7-6.2 0l-4.9 4.9-.8.8c-1.3 1.3-3.3 1.3-4.6 0-1.3-1.3-1.3-3.3 0-4.6l3.4-3.4 16.1-16.1c1.7-1.7 1.7-4.5 0-6.2-1.7-1.7-4.5-1.7-6.2 0l-9.5 9.5c-.9.8-2 1.3-3.1 1.3s-2.1-.4-2.9-1.1l-9-9c-7.7-7.7-20.2-7.7-27.9 0C13 25.7 11 30.6 11 35.9c0 5.3 2.1 10.2 5.8 13.9l36.6 36.6.1.1c.9.9 2 1.3 3.1 1.3s2.2-.4 3.1-1.3L89 57.1c1.7-1.7 1.7-4.5 0-6.2z"/><circle class="st1" cx="94.1" cy="44.7" r="4.4"/><path class="st0" d="M508.8 74.7c0 2.4-2 4.4-4.4 4.4-2.5 0-4.5-2-4.5-4.4 0-2.4 2-4.4 4.5-4.4 2.4 0 4.4 2 4.4 4.4zm-1.1 0c0-1.9-1.5-3.4-3.4-3.4s-3.4 1.5-3.4 3.4 1.5 3.4 3.4 3.4 3.4-1.5 3.4-3.4zm-1.5-.8c0 .7-.5 1.1-1.3 1.2l1.3 1.5h-1l-1.2-1.5h-.4v1.5h-.9v-4h1.9c1.1 0 1.6.5 1.6 1.3zm-2.6-.5v1.1h1c.5 0 .7-.2.7-.5 0-.4-.3-.5-.7-.5h-1z"/></svg>