<?xml version="1.0" encoding="utf-8"?>
<!-- Generator: Adobe Illustrator 25.0.1, SVG Export Plug-In . SVG Version: 6.00 Build 0)  -->
<svg version="1.1" id="Layer_1" xmlns="http://www.w3.org/2000/svg" xmlns:xlink="http://www.w3.org/1999/xlink" x="0px" y="0px"
	 viewBox="0 0 368 85.2" style="enable-background:new 0 0 368 85.2;" xml:space="preserve">
<style type="text/css">
	.st0{fill:none;stroke:#000000;stroke-width:0.5;stroke-miterlimit:2.6131;}
	.st1{fill-rule:evenodd;clip-rule:evenodd;fill:#154887;}
	.st2{fill-rule:evenodd;clip-rule:evenodd;fill:#1B1B1B;}
</style>
<path class="st0" d="M393,173.9v9.6h-9.6 M383.4-56.6h9.6v9.6 M162.5,183.4H153v-9.6 M153-47v-9.6h9.6"/>
<g>
	<path class="st1" d="M6.1,69.4l23.6,13.6v-31c0-3.3,2.2-8,5.9-8H12c-3.8,0-5.9,4.7-5.9,8V69.4L6.1,69.4z M6.1,15.2L29.6,1.5v31
		c0,3.3,2.2,8,5.9,8H12c-3.8,0-5.9-4.7-5.9-8V15.2L6.1,15.2z M43.9,78.6L32.4,64.3V52.1c0-6.4,7.7-7.5,11.5-2.8l10.2,12.7l5.9,7.3
		L43.9,78.6L43.9,78.6z M43.9,6L32.4,20.3v12.3c0,6.4,7.7,7.5,11.5,2.8l11.2-14l4.8-6L43.9,6z"/>
	<path class="st1" d="M194.9,17.5c2.2,0,4.4,0.4,6.5,1.3c2.1,0.9,3.9,2,5.5,3.6l-3.1,3.9c-1.1-1.2-2.5-2.2-4-2.9
		c-1.6-0.7-3.1-1.1-4.7-1.1c-3.1,0-5.8,1.1-8,3.2c-2.2,2.1-3.3,4.8-3.3,7.8c0,3.1,1.1,5.7,3.3,7.9c2.2,2.1,4.8,3.2,8,3.2
		c3.3,0,6.2-1.2,8.8-3.7l3.1,3.5c-1.6,1.6-3.5,2.8-5.7,3.8c-2.2,0.9-4.3,1.4-6.5,1.4c-4.6,0-8.5-1.5-11.6-4.6
		c-3.1-3.1-4.7-6.9-4.7-11.4c0-4.5,1.6-8.2,4.8-11.3C186.4,19,190.3,17.5,194.9,17.5L194.9,17.5z M217.6,44.3h13.6v4.8h-18.9V17.6
		h5.3V44.3L217.6,44.3z M241.7,49.1h-5.3V17.6h5.3V49.1L241.7,49.1z M277.2,49.1H272l-16.8-22.6v22.6h-5.3V17.6h5.2L272,40.2V17.6
		h5.2V49.1L277.2,49.1z M290.9,49.1h-5.3V17.6h5.3V49.1L290.9,49.1z M313.1,17.5c2.2,0,4.4,0.4,6.5,1.3c2.1,0.9,3.9,2,5.5,3.6
		l-3.1,3.9c-1.1-1.2-2.5-2.2-4-2.9c-1.6-0.7-3.1-1.1-4.7-1.1c-3.1,0-5.8,1.1-8,3.2c-2.2,2.1-3.3,4.8-3.3,7.8c0,3.1,1.1,5.7,3.3,7.9
		c2.2,2.1,4.8,3.2,8,3.2c3.3,0,6.2-1.2,8.8-3.7l3.1,3.5c-1.6,1.6-3.5,2.8-5.7,3.8s-4.3,1.4-6.5,1.4c-4.6,0-8.5-1.5-11.6-4.6
		c-3.1-3.1-4.7-6.9-4.7-11.4c0-4.5,1.6-8.2,4.8-11.3C304.5,19,308.4,17.5,313.1,17.5L313.1,17.5z M340.8,17.4c4.1,0,7.7,1.1,11,3.2
		l-2.2,4.7c-3.2-1.9-6.3-2.9-9.2-2.9c-1.6,0-2.8,0.3-3.8,0.9c-0.9,0.6-1.4,1.4-1.4,2.4c0,1,0.4,1.9,1.3,2.7c0.8,0.7,1.9,1.3,3.1,1.6
		c1.3,0.3,2.6,0.8,4.1,1.3c1.5,0.5,2.8,1.1,4.1,1.7c1.3,0.6,2.3,1.5,3.1,2.7c0.8,1.2,1.2,2.8,1.2,4.5c0,2.8-1.1,5-3.3,6.6
		c-2.2,1.6-5.1,2.5-8.6,2.5c-2.4,0-4.7-0.4-7-1.3c-2.2-0.9-4.2-2.1-5.9-3.6l2.3-4.6c1.6,1.5,3.3,2.6,5.2,3.4
		c1.9,0.8,3.7,1.2,5.4,1.2c1.9,0,3.3-0.3,4.3-1c1-0.7,1.6-1.6,1.6-2.8c0-1.1-0.4-2-1.3-2.7c-0.8-0.7-1.9-1.3-3.1-1.6
		c-1.3-0.3-2.6-0.8-4.1-1.3c-1.5-0.5-2.8-1-4.1-1.6c-1.3-0.6-2.3-1.4-3.1-2.7c-0.8-1.2-1.3-2.7-1.3-4.5c0-2.7,1-4.8,3.1-6.4
		C334.6,18.2,337.4,17.4,340.8,17.4z"/>
	<path class="st1" d="M104.1,49L93.8,35.1L88.4,41v8h-5.3V17.5h5.3v16.3l15-16.3h6.3L97.5,31l13,18H104.1L104.1,49z M137.9,22.3
		h-17.2v8.5h15.4v4.8h-15.4v8.7h17.7V49h-23V17.5h22.5V22.3L137.9,22.3z M157.8,38.5V49h-5.3V38.7l-11.7-21.2h5.4l9,15.3l8.8-15.3
		h5.4L157.8,38.5z"/>
	<path class="st2" d="M91,67.1h-1.5l-4.8-6.5v6.5h-1.5v-9.1h1.5l4.9,6.5v-6.5H91V67.1L91,67.1z M99.9,59.5h-4.9v2.4h4.4v1.4h-4.4
		v2.5h5.1v1.4h-6.6v-9.1h6.5V59.5L99.9,59.5z M109.6,58.1v5.3c0,1.2-0.3,2.1-1,2.8c-0.7,0.7-1.7,1-2.9,1c-1.2,0-2.2-0.3-2.9-1
		c-0.7-0.7-1.1-1.6-1.1-2.8v-5.3h1.5v5.3c0,0.8,0.2,1.4,0.7,1.8c0.4,0.4,1,0.7,1.8,0.7c0.7,0,1.3-0.2,1.8-0.6c0.4-0.4,0.6-1,0.6-1.8
		v-5.3H109.6L109.6,58.1z M117.5,67.1l-1.7-2.7c-0.1,0-0.2,0-0.4,0h-2.1v2.7h-1.5v-9.1h3.7c1.2,0,2.1,0.3,2.7,0.8
		c0.6,0.5,1,1.3,1,2.3c0,0.7-0.2,1.3-0.5,1.8c-0.3,0.5-0.8,0.9-1.4,1.1l2,3H117.5L117.5,67.1z M113.3,63h2.1c1.5,0,2.2-0.6,2.2-1.8
		c0-1.2-0.7-1.8-2.2-1.8h-2.1V63L113.3,63z M121.8,59.4c0.9-0.9,2.1-1.3,3.4-1.3c1.4,0,2.5,0.4,3.4,1.3c0.9,0.9,1.4,2,1.4,3.3
		c0,1.3-0.5,2.4-1.4,3.3c-0.9,0.9-2.1,1.3-3.4,1.3c-1.4,0-2.5-0.4-3.4-1.3c-0.9-0.9-1.4-2-1.4-3.3C120.4,61.3,120.8,60.2,121.8,59.4
		L121.8,59.4z M125.2,59.4c-0.9,0-1.7,0.3-2.3,0.9c-0.6,0.6-1,1.4-1,2.3c0,0.9,0.3,1.7,1,2.3c0.6,0.6,1.4,0.9,2.3,0.9
		c0.9,0,1.6-0.3,2.3-0.9c0.6-0.6,0.9-1.4,0.9-2.3c0-0.9-0.3-1.7-0.9-2.3C126.8,59.7,126.1,59.4,125.2,59.4L125.2,59.4z M134.6,58
		c1.2,0,2.2,0.3,3.2,0.9l-0.6,1.3c-0.9-0.6-1.8-0.8-2.7-0.8c-0.5,0-0.8,0.1-1.1,0.2c-0.3,0.2-0.4,0.4-0.4,0.7c0,0.3,0.1,0.6,0.4,0.8
		c0.2,0.2,0.5,0.4,0.9,0.5c0.4,0.1,0.8,0.2,1.2,0.4c0.4,0.2,0.8,0.3,1.2,0.5c0.4,0.2,0.7,0.4,0.9,0.8c0.2,0.4,0.4,0.8,0.4,1.3
		c0,0.8-0.3,1.4-1,1.9c-0.6,0.5-1.5,0.7-2.5,0.7c-0.7,0-1.4-0.1-2-0.4c-0.6-0.3-1.2-0.6-1.7-1l0.7-1.3c0.5,0.4,1,0.7,1.5,1
		c0.5,0.2,1.1,0.3,1.6,0.3c0.5,0,1-0.1,1.2-0.3c0.3-0.2,0.4-0.5,0.4-0.8c0-0.3-0.1-0.6-0.4-0.8c-0.2-0.2-0.5-0.4-0.9-0.5
		c-0.4-0.1-0.8-0.2-1.2-0.4c-0.4-0.1-0.8-0.3-1.2-0.5c-0.4-0.2-0.7-0.4-0.9-0.8c-0.2-0.4-0.4-0.8-0.4-1.3c0-0.8,0.3-1.4,0.9-1.8
		C132.8,58.2,133.6,58,134.6,58L134.6,58z M147.4,58.1v5.3c0,1.2-0.3,2.1-1,2.8c-0.7,0.7-1.7,1-2.9,1c-1.2,0-2.2-0.3-2.9-1
		c-0.7-0.7-1.1-1.6-1.1-2.8v-5.3h1.5v5.3c0,0.8,0.2,1.4,0.7,1.8c0.4,0.4,1,0.7,1.8,0.7c0.7,0,1.3-0.2,1.8-0.6c0.4-0.4,0.6-1,0.6-1.8
		v-5.3H147.4L147.4,58.1z M155.3,67.1l-1.7-2.7c-0.1,0-0.2,0-0.4,0h-2.1v2.7h-1.5v-9.1h3.7c1.2,0,2.1,0.3,2.7,0.8
		c0.6,0.5,1,1.3,1,2.3c0,0.7-0.2,1.3-0.5,1.8s-0.8,0.9-1.4,1.1l2,3H155.3L155.3,67.1z M151.1,63h2.1c1.5,0,2.2-0.6,2.2-1.8
		c0-1.2-0.7-1.8-2.2-1.8h-2.1V63L151.1,63z M165.1,62.7h1.3V66c-0.5,0.4-1,0.6-1.7,0.9c-0.6,0.2-1.3,0.3-1.9,0.3
		c-1.3,0-2.5-0.4-3.4-1.3c-0.9-0.9-1.4-2-1.4-3.3c0-1.3,0.5-2.4,1.4-3.3c0.9-0.9,2.1-1.3,3.5-1.3c0.6,0,1.3,0.1,1.9,0.3
		c0.6,0.2,1.1,0.5,1.6,0.9l-0.9,1.1c-0.7-0.7-1.6-1-2.6-1c-0.9,0-1.7,0.3-2.3,0.9c-0.6,0.6-1,1.4-1,2.3c0,0.9,0.3,1.7,1,2.3
		c0.6,0.6,1.4,0.9,2.3,0.9c0.7,0,1.4-0.2,2.1-0.6V62.7L165.1,62.7z M175.1,59.5h-4.9v2.4h4.4v1.4h-4.4v2.5h5.1v1.4h-6.6v-9.1h6.5
		V59.5L175.1,59.5z M182.9,67.1l-1.7-2.7c-0.1,0-0.2,0-0.4,0h-2.1v2.7h-1.5v-9.1h3.7c1.2,0,2.1,0.3,2.7,0.8c0.6,0.5,1,1.3,1,2.3
		c0,0.7-0.2,1.3-0.5,1.8c-0.3,0.5-0.8,0.9-1.4,1.1l2,3H182.9L182.9,67.1z M178.6,63h2.1c1.5,0,2.2-0.6,2.2-1.8
		c0-1.2-0.7-1.8-2.2-1.8h-2.1V63L178.6,63z M190.1,64.1v3h-1.5v-3l-3.4-6.1h1.5l2.6,4.4l2.5-4.4h1.6L190.1,64.1L190.1,64.1z
		 M203.8,65.1h-4.6l-0.9,2h-1.6l4-9.1h1.6l4,9.1h-1.6L203.8,65.1L203.8,65.1z M203.2,63.7l-1.7-4l-1.7,4H203.2L203.2,63.7z
		 M215.4,67.1h-1.5l-4.8-6.5v6.5h-1.5v-9.1h1.5l4.9,6.5v-6.5h1.5V67.1L215.4,67.1z M217.8,58.1h3.7c1.4,0,2.5,0.4,3.4,1.3
		c0.9,0.9,1.3,1.9,1.3,3.2c0,1.3-0.4,2.4-1.3,3.2c-0.9,0.9-2,1.3-3.4,1.3h-3.7V58.1L217.8,58.1z M219.3,59.5v6.3h2.2
		c0.9,0,1.6-0.3,2.2-0.9c0.6-0.6,0.9-1.3,0.9-2.3c0-0.9-0.3-1.7-0.9-2.3c-0.6-0.6-1.4-0.9-2.3-0.9H219.3L219.3,59.5z M234.1,58
		c1.2,0,2.2,0.3,3.2,0.9l-0.6,1.3c-0.9-0.6-1.8-0.8-2.7-0.8c-0.5,0-0.8,0.1-1.1,0.2c-0.3,0.2-0.4,0.4-0.4,0.7c0,0.3,0.1,0.6,0.4,0.8
		c0.2,0.2,0.5,0.4,0.9,0.5s0.8,0.2,1.2,0.4c0.4,0.2,0.8,0.3,1.2,0.5c0.4,0.2,0.7,0.4,0.9,0.8c0.2,0.4,0.4,0.8,0.4,1.3
		c0,0.8-0.3,1.4-1,1.9c-0.6,0.5-1.5,0.7-2.5,0.7c-0.7,0-1.4-0.1-2-0.4c-0.6-0.3-1.2-0.6-1.7-1l0.7-1.3c0.5,0.4,1,0.7,1.5,1
		c0.5,0.2,1.1,0.3,1.6,0.3c0.5,0,1-0.1,1.2-0.3c0.3-0.2,0.4-0.5,0.4-0.8c0-0.3-0.1-0.6-0.4-0.8c-0.2-0.2-0.5-0.4-0.9-0.5
		c-0.4-0.1-0.8-0.2-1.2-0.4c-0.4-0.1-0.8-0.3-1.2-0.5c-0.4-0.2-0.7-0.4-0.9-0.8c-0.2-0.4-0.4-0.8-0.4-1.3c0-0.8,0.3-1.4,0.9-1.8
		C232.3,58.2,233.1,58,234.1,58L234.1,58z M239.2,58.1h3.6c1.1,0,2,0.3,2.6,0.8c0.6,0.5,0.9,1.3,0.9,2.3c0,1-0.3,1.8-0.9,2.4
		c-0.6,0.6-1.5,0.8-2.6,0.8h-2.1v2.7h-1.5V58.1L239.2,58.1z M240.7,59.5V63h2c1.5,0,2.2-0.6,2.2-1.8c0-1.2-0.7-1.8-2.2-1.8H240.7
		L240.7,59.5z M249.4,67.1h-1.5v-9.1h1.5V67.1L249.4,67.1z M259.7,67.1h-1.5l-4.8-6.5v6.5h-1.5v-9.1h1.5l4.9,6.5v-6.5h1.5V67.1
		L259.7,67.1z M268.5,59.5h-4.9v2.4h4.4v1.4h-4.4v2.5h5.1v1.4h-6.6v-9.1h6.5V59.5L268.5,59.5z M276.9,58c1.2,0,2.2,0.3,3.2,0.9
		l-0.6,1.3c-0.9-0.6-1.8-0.8-2.7-0.8c-0.5,0-0.8,0.1-1.1,0.2c-0.3,0.2-0.4,0.4-0.4,0.7c0,0.3,0.1,0.6,0.4,0.8
		c0.2,0.2,0.5,0.4,0.9,0.5s0.8,0.2,1.2,0.4c0.4,0.2,0.8,0.3,1.2,0.5c0.4,0.2,0.7,0.4,0.9,0.8c0.2,0.4,0.4,0.8,0.4,1.3
		c0,0.8-0.3,1.4-1,1.9c-0.6,0.5-1.5,0.7-2.5,0.7c-0.7,0-1.4-0.1-2-0.4c-0.6-0.3-1.2-0.6-1.7-1l0.7-1.3c0.5,0.4,1,0.7,1.5,1
		c0.5,0.2,1.1,0.3,1.6,0.3c0.5,0,1-0.1,1.2-0.3c0.3-0.2,0.4-0.5,0.4-0.8c0-0.3-0.1-0.6-0.4-0.8c-0.2-0.2-0.5-0.4-0.9-0.5
		c-0.4-0.1-0.8-0.2-1.2-0.4c-0.4-0.1-0.8-0.3-1.2-0.5c-0.4-0.2-0.7-0.4-0.9-0.8c-0.2-0.4-0.4-0.8-0.4-1.3c0-0.8,0.3-1.4,0.9-1.8
		C275.1,58.2,275.9,58,276.9,58L276.9,58z M281.9,58.1h3.6c1.1,0,2,0.3,2.6,0.8c0.6,0.5,0.9,1.3,0.9,2.3c0,1-0.3,1.8-0.9,2.4
		c-0.6,0.6-1.5,0.8-2.6,0.8h-2.1v2.7h-1.5V58.1L281.9,58.1z M283.5,59.5V63h2c1.5,0,2.2-0.6,2.2-1.8c0-1.2-0.7-1.8-2.2-1.8H283.5
		L283.5,59.5z M297.1,59.5h-4.9v2.4h4.4v1.4h-4.4v2.5h5.1v1.4h-6.6v-9.1h6.5V59.5L297.1,59.5z M303.2,58c0.6,0,1.3,0.1,1.9,0.4
		c0.6,0.2,1.1,0.6,1.6,1l-0.9,1.1c-0.3-0.4-0.7-0.6-1.2-0.8c-0.4-0.2-0.9-0.3-1.4-0.3c-0.9,0-1.7,0.3-2.3,0.9
		c-0.6,0.6-0.9,1.4-0.9,2.3c0,0.9,0.3,1.7,0.9,2.3c0.6,0.6,1.4,0.9,2.3,0.9c0.9,0,1.8-0.4,2.5-1.1l0.9,1c-0.5,0.5-1,0.8-1.6,1.1
		c-0.6,0.3-1.2,0.4-1.9,0.4c-1.3,0-2.4-0.4-3.4-1.3c-0.9-0.9-1.4-2-1.4-3.3c0-1.3,0.5-2.4,1.4-3.2C300.7,58.5,301.8,58,303.2,58
		L303.2,58z M309.7,67.1h-1.5v-9.1h1.5V67.1L309.7,67.1z M317.9,65.1h-4.6l-0.9,2h-1.6l4-9.1h1.6l4,9.1h-1.6L317.9,65.1L317.9,65.1z
		 M317.4,63.7l-1.7-4l-1.7,4H317.4L317.4,63.7z M323.2,65.8h3.9v1.4h-5.5v-9.1h1.5V65.8L323.2,65.8z M330.1,67.1h-1.5v-9.1h1.5V67.1
		L330.1,67.1z M335.4,58c1.2,0,2.2,0.3,3.2,0.9l-0.6,1.3c-0.9-0.6-1.8-0.8-2.7-0.8c-0.5,0-0.8,0.1-1.1,0.2c-0.3,0.2-0.4,0.4-0.4,0.7
		c0,0.3,0.1,0.6,0.4,0.8c0.2,0.2,0.5,0.4,0.9,0.5s0.8,0.2,1.2,0.4c0.4,0.2,0.8,0.3,1.2,0.5c0.4,0.2,0.7,0.4,0.9,0.8
		c0.2,0.4,0.4,0.8,0.4,1.3c0,0.8-0.3,1.4-1,1.9c-0.6,0.5-1.5,0.7-2.5,0.7c-0.7,0-1.4-0.1-2-0.4c-0.6-0.3-1.2-0.6-1.7-1l0.7-1.3
		c0.5,0.4,1,0.7,1.5,1c0.5,0.2,1.1,0.3,1.6,0.3c0.5,0,1-0.1,1.2-0.3c0.3-0.2,0.4-0.5,0.4-0.8c0-0.3-0.1-0.6-0.4-0.8
		c-0.2-0.2-0.5-0.4-0.9-0.5c-0.4-0.1-0.8-0.2-1.2-0.4c-0.4-0.1-0.8-0.3-1.2-0.5c-0.4-0.2-0.7-0.4-0.9-0.8c-0.2-0.4-0.4-0.8-0.4-1.3
		c0-0.8,0.3-1.4,0.9-1.8C333.6,58.2,334.4,58,335.4,58L335.4,58z M346.7,59.5h-2.9v7.7h-1.5v-7.7h-2.9v-1.4h7.3V59.5L346.7,59.5z
		 M351,58c1.2,0,2.2,0.3,3.2,0.9l-0.6,1.3c-0.9-0.6-1.8-0.8-2.7-0.8c-0.5,0-0.8,0.1-1.1,0.2c-0.3,0.2-0.4,0.4-0.4,0.7
		c0,0.3,0.1,0.6,0.4,0.8c0.2,0.2,0.5,0.4,0.9,0.5s0.8,0.2,1.2,0.4c0.4,0.2,0.8,0.3,1.2,0.5c0.4,0.2,0.7,0.4,0.9,0.8
		c0.2,0.4,0.4,0.8,0.4,1.3c0,0.8-0.3,1.4-1,1.9c-0.6,0.5-1.5,0.7-2.5,0.7c-0.7,0-1.4-0.1-2-0.4c-0.6-0.3-1.2-0.6-1.7-1l0.7-1.3
		c0.5,0.4,1,0.7,1.5,1c0.5,0.2,1.1,0.3,1.6,0.3c0.5,0,1-0.1,1.2-0.3c0.3-0.2,0.4-0.5,0.4-0.8c0-0.3-0.1-0.6-0.4-0.8
		c-0.2-0.2-0.5-0.4-0.9-0.5c-0.4-0.1-0.8-0.2-1.2-0.4c-0.4-0.1-0.8-0.3-1.2-0.5c-0.4-0.2-0.7-0.4-0.9-0.8c-0.2-0.4-0.4-0.8-0.4-1.3
		c0-0.8,0.3-1.4,0.9-1.8C349.2,58.2,350,58,351,58z"/>
</g>
</svg>
