<svg xmlns="http://www.w3.org/2000/svg" xmlns:xlink="http://www.w3.org/1999/xlink" id="Layer_1" x="0px" y="0px" viewBox="0 0 454.21 130.83" style="enable-background:new 0 0 454.21 130.83;" xml:space="preserve"><style type="text/css">	.st0{fill:#41463F;}	.st1{fill:#0076A9;}</style><g>	<path class="st0" d="M143.38,96.27c0.66-0.23,1.4-0.34,2.22-0.34l0,0C144.79,95.93,144.05,96.05,143.38,96.27z"></path>	<path class="st0" d="M145.81,93.74c0.39,0.03,0.8,0.08,1.22,0.17C146.61,93.82,146.2,93.76,145.81,93.74z"></path>	<path class="st0" d="M118.14,117.43L118.14,117.43l0-18.47c0.57-0.52,1.13-0.96,1.69-1.35c-0.56,0.38-1.13,0.83-1.69,1.35V117.43z"></path>	<path class="st0" d="M178.27,84.44L178.27,84.44c0.88,0,1.76,0.06,2.59,0.2C180.04,84.5,179.16,84.44,178.27,84.44z"></path>	<path class="st0" d="M145.81,93.74c-0.2-0.01-0.39-0.02-0.58-0.02l0,0C145.42,93.72,145.61,93.73,145.81,93.74z"></path>	<path class="st0" d="M150.61,115.36c-1.41,1.3-2.54,2.16-4.26,2.52C148.07,117.53,149.2,116.66,150.61,115.36z"></path>	<path class="st0" d="M142.99,115.41c-0.59-0.26-1.11-0.64-1.56-1.14C141.88,114.77,142.4,115.16,142.99,115.41z"></path>	<path class="st0" d="M123.25,96.11c-0.58,0.12-1.15,0.31-1.72,0.56C122.09,96.42,122.67,96.24,123.25,96.11z"></path>	<path class="st0" d="M144.94,115.8c-0.71,0-1.36-0.13-1.95-0.39C143.57,115.67,144.22,115.8,144.94,115.8L144.94,115.8z"></path>	<path class="st0" d="M139.22,103.25c0.07-0.69,0.17-1.33,0.3-1.92C139.38,101.92,139.28,102.56,139.22,103.25z"></path>	<path class="st0" d="M139.12,105.46L139.12,105.46c0-0.78,0.03-1.52,0.1-2.2C139.15,103.94,139.12,104.67,139.12,105.46z"></path>	<path class="st0" d="M142.75,96.54c-0.41,0.2-0.78,0.45-1.12,0.76C141.97,96.99,142.34,96.74,142.75,96.54z"></path>	<path class="st0" d="M196.11,114.1c0.32,0.35,0.67,0.64,1.05,0.88C196.77,114.74,196.42,114.45,196.11,114.1z"></path>	<path class="st0" d="M195.25,112.91c0.25,0.45,0.54,0.85,0.86,1.19C195.79,113.76,195.5,113.36,195.25,112.91z"></path>	<path class="st0" d="M194.59,111.41c0.19,0.55,0.41,1.06,0.66,1.51C195,112.46,194.78,111.96,194.59,111.41z"></path>	<path class="st0" d="M203.1,115.56c0.95-0.26,1.85-0.68,2.72-1.22C204.95,114.88,204.05,115.3,203.1,115.56z"></path>	<polygon class="st0" points="207.76,115.51 206.8,113.68 206.8,113.68  "></polygon>	<path class="st0" d="M203.1,115.56c-0.79,0.22-1.62,0.33-2.5,0.33c-1.34,0-2.49-0.3-3.44-0.91c0.95,0.61,2.1,0.91,3.44,0.91  C201.48,115.89,202.31,115.78,203.1,115.56z"></path>	<path class="st0" d="M201.72,95.96c0.81,0.27,1.51,0.77,2.08,1.5C203.23,96.73,202.53,96.22,201.72,95.96z"></path>	<path class="st0" d="M195.83,97.94c1.12-1.44,2.68-2.2,4.53-2.2c0.38,0,0.74,0.05,1.08,0.13c-0.34-0.08-0.7-0.13-1.08-0.13  C198.5,95.74,196.95,96.5,195.83,97.94z"></path>	<path class="st0" d="M183.37,100.57c-0.79,0.49-1.68,0.85-2.64,1.09l8.56,15.78l-2.64,0.29l2.64-0.29l-8.56-15.78  C181.69,101.42,182.58,101.05,183.37,100.57z"></path>	<path class="st0" d="M195.07,99.15c-0.23,0.45-0.42,0.93-0.59,1.46C194.64,100.08,194.84,99.59,195.07,99.15z"></path>	<path class="st0" d="M206.17,96.8c0.5,0.74,0.9,1.59,1.22,2.56C207.08,98.4,206.67,97.54,206.17,96.8z"></path>	<path class="st0" d="M204.65,98.91c-0.13-0.31-0.28-0.6-0.44-0.86C204.37,98.31,204.51,98.61,204.65,98.91z"></path>	<path class="st0" d="M180.87,84.63c1.38,0.23,2.63,0.67,3.57,1.39C183.5,85.3,182.25,84.86,180.87,84.63z"></path>	<path class="st0" d="M43.25,97.72c-0.28-0.9-0.69-1.64-1.24-2.24C42.55,96.07,42.97,96.82,43.25,97.72z"></path>	<path class="st0" d="M39.42,116.75c-0.51,0.3-1.06,0.55-1.64,0.75C38.36,117.3,38.9,117.05,39.42,116.75z"></path>	<path class="st0" d="M42,95.48c-0.83-0.89-1.97-1.43-3.42-1.65C40.03,94.05,41.17,94.59,42,95.48z"></path>	<path class="st0" d="M77.83,98.05c-0.67-1.11-1.57-1.85-2.68-2.16C76.26,96.19,77.16,96.94,77.83,98.05z"></path>	<polygon class="st0" points="54.6,105.17 63.26,94.34 60.71,94.06 63.25,94.34  "></polygon>	<path class="st0" d="M77.83,98.05c0.34,0.55,0.62,1.2,0.84,1.93C78.45,99.25,78.17,98.6,77.83,98.05z"></path>	<path class="st0" d="M41.45,115.17c-0.38,0.4-0.82,0.77-1.29,1.11C40.63,115.94,41.06,115.57,41.45,115.17L41.45,115.17z"></path>	<polygon class="st0" points="29.57,95.74 29.57,95.74 29.8,96.32  "></polygon>	<path class="st0" d="M117.81,96.94c-0.04-0.3-0.09-0.62-0.16-0.93C117.71,96.33,117.77,96.64,117.81,96.94L117.81,96.94z"></path>	<path class="st0" d="M33.28,96.55c-0.54,0.17-1.06,0.36-1.55,0.57C32.21,96.91,32.73,96.71,33.28,96.55z"></path>	<path class="st0" d="M36.78,95.98c-0.31,0-0.61,0.01-0.91,0.04C36.17,95.99,36.48,95.98,36.78,95.98L36.78,95.98z"></path>	<path class="st0" d="M30.39,97.76c0.41-0.22,0.86-0.44,1.34-0.64C31.24,97.32,30.79,97.54,30.39,97.76L30.39,97.76z"></path>	<polygon class="st0" points="95.1,95.74 95.92,97.76 95.1,95.74  "></polygon>	<path class="st0" d="M102.42,117.75c-0.61,0.14-1.24,0.21-1.89,0.21C101.18,117.96,101.81,117.88,102.42,117.75z"></path>	<path class="st0" d="M76.91,115.5c0.98-0.29,1.91-0.74,2.8-1.32C78.82,114.76,77.9,115.21,76.91,115.5z"></path>	<path class="st0" d="M105.69,116.28c-0.47,0.34-0.99,0.63-1.53,0.88C104.7,116.91,105.21,116.61,105.69,116.28z"></path>	<path class="st0" d="M129.02,94.6c-0.89-0.61-2.03-0.89-3.42-0.89l0,0C126.99,93.72,128.13,93.99,129.02,94.6z"></path>	<path class="st0" d="M69.45,97.94c1.12-1.44,2.68-2.2,4.53-2.2c0.42,0,0.81,0.05,1.18,0.15c-0.37-0.1-0.76-0.15-1.18-0.15  C72.13,95.74,70.58,96.5,69.45,97.94z"></path>	<path class="st0" d="M68.1,100.61c0.17-0.53,0.36-1.01,0.59-1.46C68.46,99.59,68.27,100.08,68.1,100.61z"></path>	<path class="st0" d="M68.87,112.91c0.25,0.45,0.54,0.85,0.86,1.19C69.41,113.76,69.13,113.36,68.87,112.91z"></path>	<path class="st0" d="M68.21,111.41c0.19,0.55,0.41,1.06,0.66,1.51C68.62,112.46,68.4,111.96,68.21,111.41z"></path>	<path class="st0" d="M76.57,115.59c-0.75,0.19-1.53,0.3-2.36,0.3c-1.34,0-2.49-0.3-3.44-0.91c0.95,0.61,2.1,0.91,3.44,0.91  C75.05,115.89,75.83,115.79,76.57,115.59z"></path>	<path class="st0" d="M69.73,114.1c0.32,0.35,0.67,0.64,1.05,0.88C70.4,114.74,70.05,114.45,69.73,114.1z"></path>	<path class="st0" d="M267.61,93.82c0.07,0.12,0.15,0.3,0.24,0.52C267.76,94.12,267.68,93.94,267.61,93.82z"></path>	<path class="st0" d="M268.4,96.48c-0.05-0.28-0.11-0.57-0.17-0.85C268.3,95.91,268.36,96.2,268.4,96.48z"></path>	<path class="st0" d="M268.47,96.94c-0.02-0.15-0.04-0.3-0.07-0.46C268.43,96.64,268.45,96.79,268.47,96.94L268.47,96.94z"></path>	<path class="st0" d="M267.84,94.34c0.11,0.3,0.23,0.69,0.34,1.1C268.07,95.02,267.96,94.64,267.84,94.34z"></path>	<path class="st0" d="M279.22,94.33c0.32,0.17,0.62,0.37,0.89,0.62C279.84,94.7,279.54,94.49,279.22,94.33z"></path>	<path class="st0" d="M274.79,95.98c-0.88,0.09-1.75,0.32-2.6,0.69C273.04,96.3,273.91,96.07,274.79,95.98z"></path>	<path class="st0" d="M245.99,101.87c-0.25,1.22-0.37,2.58-0.37,4.02c0,1.45,0.11,2.82,0.36,4.04c-0.24-1.22-0.36-2.59-0.36-4.04  C245.62,104.45,245.74,103.09,245.99,101.87z"></path>	<path class="st0" d="M275.68,95.93c-0.3,0-0.6,0.01-0.89,0.05C275.09,95.95,275.38,95.93,275.68,95.93L275.68,95.93z"></path>	<path class="st0" d="M249.11,96.51c-0.6,0.38-1.12,0.88-1.56,1.49C247.99,97.39,248.51,96.89,249.11,96.51z"></path>	<path class="st0" d="M256.45,98c-0.34-0.46-0.72-0.86-1.16-1.19C255.72,97.14,256.11,97.54,256.45,98z"></path>	<path class="st0" d="M246.74,112.43c0.44,0.99,1.02,1.82,1.75,2.42C247.76,114.25,247.18,113.43,246.74,112.43z"></path>	<path class="st0" d="M256.45,98c0.44,0.61,0.8,1.33,1.09,2.14C257.25,99.33,256.89,98.61,256.45,98z"></path>	<path class="st0" d="M290.09,114.78c-0.36-0.38-0.63-0.84-0.81-1.38C289.46,113.94,289.73,114.4,290.09,114.78z"></path>	<path class="st0" d="M281.12,96.31c-0.18-0.37-0.39-0.69-0.63-0.98C280.73,95.62,280.94,95.95,281.12,96.31z"></path>	<path class="st0" d="M300,95.48c-0.55-0.59-1.24-1.03-2.07-1.32C298.75,94.45,299.44,94.89,300,95.48z"></path>	<path class="st0" d="M301.66,100.89v16.55l0,0V100.89c0-2.43-0.55-4.22-1.66-5.4C301.1,96.67,301.66,98.46,301.66,100.89z"></path>	<path class="st0" d="M207.4,99.36c0.21,0.64,0.38,1.33,0.51,2.06C207.78,100.69,207.61,100,207.4,99.36z"></path>	<path class="st0" d="M298.15,116.28c-0.95,0.67-2.06,1.2-3.27,1.47C296.1,117.47,297.21,116.95,298.15,116.28z"></path>	<path class="st0" d="M291.44,115.64c-0.54-0.2-0.99-0.49-1.35-0.86C290.45,115.16,290.9,115.45,291.44,115.64z"></path>	<polygon class="st0" points="287.56,95.74 288.38,97.76 287.56,95.74  "></polygon>	<path class="st0" d="M254.54,96.34c-0.74-0.38-1.59-0.6-2.57-0.6c-1.11,0-2.06,0.27-2.86,0.77c0.8-0.5,1.75-0.77,2.86-0.77  C252.95,95.74,253.8,95.96,254.54,96.34z"></path>	<path class="st0" d="M289.28,113.4c-0.18-0.54-0.27-1.15-0.27-1.84C289.01,112.25,289.1,112.87,289.28,113.4z"></path>	<path class="st0" d="M291.44,115.64c0.54,0.2,1.17,0.3,1.89,0.3C292.61,115.94,291.98,115.84,291.44,115.64z"></path>	<path class="st0" d="M279.22,94.33c-0.81-0.42-1.8-0.61-2.96-0.61l0,0C277.42,93.72,278.41,93.91,279.22,94.33z"></path>	<path class="st0" d="M220.84,124.89c-0.28,0-0.57-0.01-0.86-0.04C220.27,124.87,220.56,124.89,220.84,124.89L220.84,124.89z"></path>	<path class="st0" d="M228.56,94.76c-0.17,0.62-0.32,1.51-0.42,2.71C228.24,96.26,228.39,95.37,228.56,94.76z"></path>	<path class="st0" d="M219.11,116.81c0.88,0,1.72-0.11,2.53-0.34C220.83,116.7,220,116.81,219.11,116.81L219.11,116.81z"></path>	<path class="st0" d="M225.61,125.93c-0.71,0.54-1.61,0.9-2.73,1.08C224,126.83,224.9,126.47,225.61,125.93z"></path>	<path class="st0" d="M218.18,124.53c-1.53-0.38-3.09-1.03-4.5-1.81l0,0C215.09,123.5,216.65,124.15,218.18,124.53z"></path>	<path class="st0" d="M223.24,115.85c-0.53,0.26-1.06,0.47-1.6,0.62C222.19,116.32,222.72,116.11,223.24,115.85z"></path>	<path class="st0" d="M226.09,95.79c-0.32-0.28-0.71-0.54-1.14-0.79C225.38,95.24,225.76,95.51,226.09,95.79L226.09,95.79z"></path>	<path class="st0" d="M218.97,114.46c-1.15-0.13-2.04-0.6-2.73-1.36C216.93,113.86,217.82,114.32,218.97,114.46z"></path>	<path class="st0" d="M204.43,94.96c0.45,0.32,0.85,0.71,1.22,1.14C205.28,95.67,204.87,95.29,204.43,94.96z"></path>	<path class="st0" d="M219.69,114.5c-0.25,0-0.49-0.01-0.72-0.04C219.2,114.48,219.44,114.5,219.69,114.5L219.69,114.5z"></path>	<path class="st0" d="M220.46,95.88L220.46,95.88c-4.38,0-6.11,3.46-6.11,9.33c0,2.55,0.26,4.64,0.88,6.19  c-0.62-1.55-0.88-3.65-0.88-6.19C214.35,99.35,216.08,95.88,220.46,95.88z"></path>	<path class="st0" d="M216.24,113.09c-0.41-0.46-0.75-1.02-1.01-1.69C215.5,112.07,215.83,112.64,216.24,113.09z"></path>	<path class="st0" d="M200.4,93.72c1.56,0,2.91,0.44,4.02,1.24C203.31,94.16,201.97,93.72,200.4,93.72L200.4,93.72z"></path>	<path class="st0" d="M236.38,83.76L236.38,83.76c1.15,0,2.07,0.91,2.07,2.07c0,1.15-0.92,2.07-2.07,2.07l0,0  c1.15,0,2.07-0.91,2.07-2.07C238.45,84.68,237.54,83.76,236.38,83.76z"></path>	<path class="st0" d="M246.46,100.14c0.29-0.81,0.65-1.53,1.09-2.14C247.11,98.61,246.75,99.33,246.46,100.14z"></path>	<path class="st0" d="M246.74,112.43c-0.33-0.74-0.58-1.59-0.77-2.5C246.16,110.85,246.41,111.69,246.74,112.43z"></path>	<path class="st0" d="M228.01,118.59c0,3.19-0.5,5.5-1.9,6.91C227.51,124.09,228.01,121.78,228.01,118.59l0-17.84  c0-1.28,0.05-2.37,0.12-3.27c-0.08,0.91-0.12,1.99-0.12,3.27V118.59z"></path>	<path class="st0" d="M245.99,101.87c0.12-0.61,0.28-1.19,0.47-1.73C246.27,100.68,246.11,101.26,245.99,101.87z"></path>	<polygon class="st0" points="14.16,114.81 14.16,84.44 14.16,84.13 13.85,84.13 11.35,84.13 11.04,84.13 11.04,84.44 11.04,117.43   11.04,117.74 11.35,117.74 25.88,117.74 26.14,117.74 26.18,117.48 26.52,115.17 26.57,114.81 26.21,114.81  "></polygon>	<path class="st0" d="M37.02,93.41c-3.5,0-6.01,1.17-7.6,2.06l-0.24,0.13l0.1,0.25l0.82,2.02l0.13,0.32l0.3-0.16  c1.5-0.8,3.81-1.74,6.25-1.74c2.88,0,4.16,1.36,4.16,4.41v2.92c-8.54,0.2-12.7,2.85-12.7,8.09c0,3.99,2.65,6.56,6.75,6.56  c2.29,0,4.55-0.91,6.28-2.5l0.44,1.74l0.06,0.23h0.24h1.64h0.31v-0.31v-16.55C43.97,95.93,41.63,93.41,37.02,93.41z M29.57,95.74  l0.24,0.58L29.57,95.74L29.57,95.74z M31.73,97.12c-0.48,0.21-0.94,0.43-1.34,0.64l0,0C30.79,97.54,31.24,97.32,31.73,97.12  c0.48-0.21,1-0.4,1.55-0.57C32.73,96.71,32.21,96.91,31.73,97.12z M36.78,95.98L36.78,95.98c-0.31,0-0.61,0.01-0.91,0.04  C36.17,95.99,36.48,95.98,36.78,95.98z M40.95,106.2v6.78c-1.69,1.74-3.62,2.65-5.61,2.65c-2.63,0-4.02-1.41-4.02-4.07  C31.32,108,34.2,106.39,40.95,106.2z M37.78,117.5c0.58-0.2,1.13-0.45,1.64-0.75C38.9,117.05,38.36,117.3,37.78,117.5z   M40.16,116.28c0.47-0.34,0.91-0.71,1.29-1.11v0C41.06,115.57,40.63,115.94,40.16,116.28z M42,95.48  c-0.83-0.89-1.97-1.43-3.42-1.65C40.03,94.05,41.17,94.59,42,95.48c0.55,0.59,0.97,1.34,1.24,2.24  C42.97,96.82,42.55,96.07,42,95.48z"></path>	<path class="st0" d="M54.99,105.17l8.51-10.63l0.35-0.44l-0.55-0.06l-2.55-0.29l-0.17-0.02l-0.11,0.13l-8.95,11.21l-0.08,0.09  v-21.5v-0.36l-0.36,0.06l-2.4,0.38l-0.26,0.04v0.26v33.38v0.31h0.31h2.4h0.31v-0.31v-12.08l0.07,0.09l9.52,12.51l0.11,0.14  l0.18-0.02l2.65-0.34l0.53-0.07l-0.32-0.42L54.99,105.17z M63.26,94.34l-8.66,10.82L63.26,94.34l-2.55-0.29L63.26,94.34z"></path>	<path class="st0" d="M74.03,93.41c-5.83,0-9.45,4.78-9.45,12.48c0,8.05,3.42,12.48,9.64,12.48c3.1,0,5.83-1.35,7.36-2.62l0.19-0.16  l-0.12-0.22l-0.96-1.83l-0.17-0.32l-0.29,0.21c-1.97,1.47-3.89,2.15-6.02,2.15c-4.15,0-6.26-2.96-6.46-9.05h14.06h0.31v-0.31v-1.25  C82.13,97.84,79.02,93.41,74.03,93.41z M77.83,98.05c0.34,0.55,0.62,1.2,0.84,1.93C78.45,99.25,78.17,98.6,77.83,98.05  c-0.67-1.11-1.57-1.85-2.68-2.16c-0.37-0.1-0.76-0.15-1.18-0.15c-1.85,0-3.4,0.76-4.53,2.2c1.12-1.44,2.68-2.2,4.53-2.2  c0.42,0,0.81,0.05,1.18,0.15C76.26,96.19,77.16,96.94,77.83,98.05z M67.81,103.94c0.35-4.95,2.64-7.9,6.16-7.9  c2.96,0,4.81,2.94,4.97,7.9H67.81z M68.69,99.15c-0.23,0.45-0.42,0.93-0.59,1.46C68.27,100.08,68.46,99.59,68.69,99.15z   M68.87,112.91c0.25,0.45,0.54,0.85,0.86,1.19c0.32,0.35,0.67,0.64,1.05,0.88c0.95,0.61,2.1,0.91,3.44,0.91  c0.83,0,1.61-0.11,2.36-0.3c-0.75,0.19-1.53,0.3-2.36,0.3c-1.34,0-2.49-0.3-3.44-0.91c-0.38-0.24-0.73-0.54-1.05-0.88  C69.41,113.76,69.13,113.36,68.87,112.91c-0.25-0.45-0.47-0.95-0.66-1.51C68.4,111.96,68.62,112.46,68.87,112.91z M79.72,114.18  c-0.89,0.59-1.82,1.03-2.8,1.32C77.9,115.21,78.82,114.76,79.72,114.18z"></path>	<polygon class="st0" points="86.78,83.75 86.52,83.79 86.52,84.05 86.52,117.43 86.52,117.74 86.82,117.74 89.23,117.74   89.54,117.74 89.54,117.43 89.54,83.67 89.54,83.31 89.18,83.36  "></polygon>	<path class="st0" d="M102.55,93.41c-3.5,0-6.01,1.17-7.6,2.06l-0.24,0.13l0.1,0.25l0.82,2.02l0.13,0.32l0.3-0.16  c1.5-0.8,3.81-1.74,6.25-1.74c2.88,0,4.16,1.36,4.16,4.41v2.92c-8.54,0.2-12.7,2.85-12.7,8.09c0,3.99,2.65,6.56,6.75,6.56  c2.29,0,4.55-0.91,6.28-2.5l0.44,1.74l0.06,0.23h0.24h1.64h0.31v-0.31v-16.55C109.5,95.93,107.16,93.41,102.55,93.41z   M106.48,112.98c-1.68,1.74-3.62,2.65-5.61,2.65c-2.63,0-4.02-1.41-4.02-4.07c0-3.56,2.88-5.17,9.63-5.36V112.98z M95.1,95.74  L95.1,95.74l0.82,2.02L95.1,95.74z M100.53,117.96c0.65,0,1.28-0.08,1.89-0.21C101.81,117.88,101.18,117.96,100.53,117.96z   M104.15,117.16c0.55-0.25,1.06-0.55,1.53-0.88C105.21,116.61,104.7,116.91,104.15,117.16z"></path>	<path class="st0" d="M125.6,93.41c-2.52,0-5,0.97-7.57,2.96c-0.2-1.13-0.56-2.27-0.83-2.71l-0.12-0.21l-0.23,0.07l-2.07,0.63  l-0.31,0.1l0.12,0.31c0.57,1.52,0.85,3.4,0.85,5.76v17.12v0.31h0.31h2.4h0.31v-0.31V99.1c2.16-1.95,4.25-2.86,6.57-2.86  c2.62,0,3.59,1.27,3.59,4.69v16.5v0.31h0.31h2.36h0.31v-0.31v-16.55C131.58,95.79,129.68,93.41,125.6,93.41z M129.02,94.6  c-0.89-0.61-2.03-0.89-3.42-0.89l0,0C126.99,93.72,128.13,93.99,129.02,94.6z M117.81,96.94L117.81,96.94  c-0.04-0.3-0.09-0.62-0.16-0.93C117.71,96.33,117.77,96.64,117.81,96.94z M118.14,98.96v18.47h0L118.14,98.96  c0.57-0.52,1.13-0.96,1.69-1.35C119.27,98,118.71,98.44,118.14,98.96z M121.53,96.67c0.57-0.25,1.14-0.43,1.72-0.56  C122.67,96.24,122.09,96.42,121.53,96.67z"></path>	<path class="st0" d="M150.37,83.75l-0.26,0.04v0.26v10.83c-1.61-1-3.18-1.47-4.89-1.47c-5.45,0-8.96,4.8-8.96,12.24  c0,7.84,3.12,12.72,8.15,12.72c2.93,0,4.43-0.99,6.03-2.43l0.4,1.57l0.06,0.23h0.24h1.68h0.31v-0.31V83.67v-0.36l-0.36,0.06  L150.37,83.75z M141.42,114.27c0.46,0.5,0.98,0.88,1.56,1.14c0.59,0.26,1.24,0.39,1.95,0.39h0c-0.71,0-1.36-0.13-1.95-0.39  C142.4,115.16,141.88,114.77,141.42,114.27z M139.12,105.46c0-0.78,0.03-1.52,0.1-2.2c0.07-0.69,0.17-1.33,0.3-1.92  c-0.13,0.59-0.23,1.23-0.3,1.92C139.15,103.94,139.12,104.67,139.12,105.46L139.12,105.46z M145.61,96.24c1.88,0,2.89,0.42,4.5,1.4  v15.38c-1.74,1.64-3.04,2.47-5.18,2.47c-3.55,0-5.51-3.56-5.51-10.03C139.42,99.25,141.45,96.24,145.61,96.24z M143.38,96.27  c0.66-0.23,1.4-0.34,2.22-0.34l0,0C144.79,95.93,144.05,96.05,143.38,96.27z M141.63,97.3c0.34-0.3,0.71-0.55,1.12-0.76  C142.34,96.74,141.97,96.99,141.63,97.3z M145.81,93.74c0.39,0.03,0.8,0.08,1.22,0.17C146.61,93.82,146.2,93.76,145.81,93.74  c-0.2-0.01-0.39-0.02-0.58-0.02l0,0C145.42,93.72,145.61,93.73,145.81,93.74z M146.35,117.88c1.72-0.35,2.85-1.22,4.26-2.52  C149.2,116.66,148.07,117.53,146.35,117.88z"></path>	<path class="st0" d="M181.18,101.85c4.1-1.18,6.34-4.41,6.34-9.14c0-2.92-1.09-5.51-2.91-6.93c-1.76-1.37-4.42-1.65-6.35-1.65  h-7.36h-0.31v0.31v33v0.31h0.31h2.5h0.31v-0.31v-15.18h4.32l8.33,15.61l0.1,0.18l0.21-0.02l2.64-0.29l0.46-0.05l-0.22-0.4  L181.18,101.85z M173.72,87.05h4.26c4.38,0,6.33,1.83,6.33,5.94c0,4.38-2.06,6.42-6.47,6.42h-4.12V87.05z M178.27,84.44  c0.88,0,1.76,0.06,2.59,0.2c1.38,0.23,2.63,0.67,3.57,1.39c-0.93-0.72-2.18-1.16-3.57-1.39C180.04,84.5,179.16,84.44,178.27,84.44  L178.27,84.44z M186.64,117.72l2.64-0.29l-8.56-15.78c0.96-0.24,1.85-0.6,2.64-1.09c-0.79,0.49-1.68,0.85-2.64,1.09l8.56,15.78  L186.64,117.72z"></path>	<path class="st0" d="M200.4,93.41c-5.83,0-9.45,4.78-9.45,12.48c0,8.05,3.42,12.48,9.64,12.48c3.1,0,5.83-1.35,7.36-2.62l0.19-0.16  l-0.12-0.22l-0.96-1.83l-0.17-0.32l-0.29,0.21c-1.97,1.47-3.89,2.15-6.02,2.15c-4.15,0-6.26-2.96-6.46-9.05h14.06h0.31v-0.31v-1.25  C208.5,97.84,205.4,93.41,200.4,93.41z M194.19,103.94c0.35-4.95,2.64-7.9,6.16-7.9c2.96,0,4.81,2.94,4.97,7.9H194.19z   M194.48,100.61c0.17-0.53,0.36-1.01,0.59-1.46C194.84,99.59,194.64,100.08,194.48,100.61z M204.21,98.05  c0.16,0.27,0.3,0.56,0.44,0.86C204.51,98.61,204.37,98.31,204.21,98.05z M201.72,95.96c0.81,0.27,1.51,0.77,2.08,1.5  C203.23,96.73,202.53,96.22,201.72,95.96z M200.35,95.74c-1.85,0-3.4,0.76-4.53,2.2C196.95,96.5,198.5,95.74,200.35,95.74  c0.38,0,0.74,0.05,1.08,0.13C201.09,95.79,200.74,95.74,200.35,95.74z M207.76,115.51l-0.96-1.83h0L207.76,115.51z M195.25,112.91  c0.25,0.45,0.54,0.85,0.86,1.19c0.32,0.35,0.67,0.64,1.05,0.88c0.95,0.61,2.1,0.91,3.44,0.91c0.88,0,1.71-0.11,2.5-0.33  c0.95-0.26,1.85-0.68,2.72-1.22c-0.87,0.54-1.76,0.96-2.72,1.22c-0.79,0.22-1.62,0.33-2.5,0.33c-1.34,0-2.49-0.3-3.44-0.91  c-0.38-0.24-0.73-0.54-1.05-0.88C195.79,113.76,195.5,113.36,195.25,112.91c-0.25-0.45-0.47-0.95-0.66-1.51  C194.78,111.96,195,112.46,195.25,112.91z M207.4,99.36c0.21,0.64,0.38,1.33,0.51,2.06C207.78,100.69,207.61,100,207.4,99.36  c-0.32-0.96-0.72-1.82-1.22-2.56C206.67,97.54,207.08,98.4,207.4,99.36z M204.43,94.96c-1.11-0.81-2.46-1.24-4.02-1.24h0  C201.97,93.72,203.31,94.16,204.43,94.96c0.45,0.32,0.85,0.71,1.22,1.14C205.28,95.67,204.87,95.29,204.43,94.96z"></path>	<path class="st0" d="M226.84,93.52l-0.23-0.06l-0.12,0.2c-0.28,0.48-0.48,1.07-0.61,1.58c-1.31-0.95-3.42-1.83-5.57-1.83  c-5.83,0-8.92,4.41-8.92,12.77c0,6.75,2.96,10.94,7.72,10.94c2.28,0,4.21-0.69,6.19-2.21v3.73c0,3.8-0.21,5.94-4.45,5.94  c-2.02,0-4.58-0.77-7.02-2.13l-0.31-0.17l-0.13,0.33l-0.82,2.07l-0.09,0.24l0.22,0.14c2.41,1.51,5.53,2.4,8.34,2.4  c5.17,0,7.28-2.57,7.28-8.87v-17.84c0-3.99,0.46-5.73,0.66-6.3l0.11-0.31l-0.32-0.09L226.84,93.52z M226.09,95.79L226.09,95.79  c-0.32-0.28-0.71-0.54-1.14-0.79C225.38,95.24,225.76,95.51,226.09,95.79z M216.24,113.09c-0.41-0.46-0.75-1.02-1.01-1.69  c-0.62-1.55-0.88-3.65-0.88-6.19c0-5.87,1.73-9.33,6.11-9.33l0,0c-4.38,0-6.11,3.46-6.11,9.33c0,2.55,0.26,4.64,0.88,6.19  C215.5,112.07,215.83,112.64,216.24,113.09c0.68,0.76,1.58,1.23,2.73,1.36c0.23,0.03,0.47,0.04,0.72,0.04h0  c-0.25,0-0.49-0.01-0.72-0.04C217.82,114.32,216.93,113.86,216.24,113.09z M225.3,97.74v14.28c-2.09,1.45-3.93,2.16-5.61,2.16  c-3.48,0-5.03-2.77-5.03-8.97c0-6.07,1.9-9.02,5.8-9.02C222.41,96.19,223.77,96.86,225.3,97.74z M221.64,116.47  c-0.81,0.23-1.65,0.34-2.53,0.34l0,0C220,116.81,220.83,116.7,221.64,116.47c0.54-0.15,1.07-0.36,1.6-0.62  C222.72,116.11,222.19,116.32,221.64,116.47z M220.84,124.89L220.84,124.89c-0.28,0-0.57-0.01-0.86-0.04  C220.27,124.87,220.56,124.89,220.84,124.89z M218.18,124.53c-1.53-0.38-3.09-1.03-4.5-1.81l0,0  C215.09,123.5,216.65,124.15,218.18,124.53z M222.88,127.01c1.12-0.18,2.02-0.54,2.73-1.08C224.9,126.47,224,126.83,222.88,127.01z   M228.13,97.47c-0.08,0.91-0.12,1.99-0.12,3.27v17.84c0,3.19-0.5,5.5-1.9,6.91c1.4-1.41,1.9-3.72,1.9-6.91v-17.84  C228.01,99.46,228.06,98.38,228.13,97.47c0.1-1.21,0.26-2.1,0.42-2.71C228.39,95.37,228.24,96.26,228.13,97.47z"></path>	<polygon class="st0" points="235.18,94.04 234.87,94.04 234.87,94.34 234.87,117.43 234.87,117.74 235.18,117.74 237.58,117.74   237.89,117.74 237.89,117.43 237.89,94.34 237.89,94.04 237.58,94.04  "></polygon>	<path class="st0" d="M236.38,83.45c-1.33,0-2.37,1.04-2.37,2.38c0,1.33,1.04,2.38,2.37,2.38c1.33,0,2.38-1.04,2.38-2.38  C238.76,84.5,237.72,83.45,236.38,83.45z M236.38,87.9L236.38,87.9c1.15,0,2.07-0.91,2.07-2.07c0-1.15-0.92-2.07-2.07-2.07l0,0  c1.15,0,2.07,0.91,2.07,2.07C238.45,86.99,237.54,87.9,236.38,87.9z"></path>	<path class="st0" d="M251.97,93.41c-5.68,0-9.21,4.78-9.21,12.48c0,7.81,3.44,12.48,9.21,12.48c5.68,0,9.21-4.78,9.21-12.48  S257.65,93.41,251.97,93.41z M246.74,112.43c-0.33-0.74-0.58-1.59-0.77-2.5c-0.24-1.22-0.36-2.59-0.36-4.04  c0-1.44,0.12-2.8,0.37-4.02c0.12-0.61,0.28-1.19,0.47-1.73c0.29-0.81,0.65-1.53,1.09-2.14c0.44-0.61,0.96-1.11,1.56-1.49  c0.8-0.5,1.75-0.77,2.86-0.77c0.98,0,1.83,0.22,2.57,0.6c-0.74-0.38-1.59-0.6-2.57-0.6c-1.11,0-2.06,0.27-2.86,0.77  c-0.6,0.38-1.12,0.88-1.56,1.49c-0.44,0.61-0.8,1.33-1.09,2.14c-0.19,0.54-0.35,1.12-0.47,1.73c-0.25,1.22-0.37,2.58-0.37,4.02  c0,1.45,0.11,2.82,0.36,4.04C246.16,110.85,246.41,111.69,246.74,112.43c0.44,0.99,1.02,1.82,1.75,2.42  C247.76,114.25,247.18,113.43,246.74,112.43z M251.97,115.73c-5.26,0-6.04-6.17-6.04-9.84c0-2.96,0.59-9.84,6.04-9.84  c5.3,0,6.09,6.17,6.09,9.84C258.06,110.38,257,115.73,251.97,115.73z M256.45,98c0.44,0.61,0.8,1.33,1.09,2.14  C257.25,99.33,256.89,98.61,256.45,98c-0.34-0.46-0.72-0.86-1.16-1.19C255.72,97.14,256.11,97.54,256.45,98z"></path>	<path class="st0" d="M276.26,93.41c-2.52,0-5,0.97-7.57,2.96c-0.2-1.13-0.56-2.27-0.83-2.71l-0.12-0.21l-0.23,0.07l-2.07,0.63  l-0.32,0.1l0.12,0.31c0.57,1.51,0.85,3.4,0.85,5.76v17.12v0.31h0.31h2.41h0.31v-0.31V99.1c2.16-1.95,4.25-2.86,6.57-2.86  c2.62,0,3.59,1.27,3.59,4.69v16.5v0.31h0.31h2.36h0.31v-0.31v-16.55C282.25,95.79,280.34,93.41,276.26,93.41z M279.22,94.33  c0.32,0.17,0.62,0.37,0.89,0.62C279.84,94.7,279.54,94.49,279.22,94.33c-0.81-0.42-1.8-0.61-2.96-0.61l0,0  C277.42,93.72,278.41,93.91,279.22,94.33z M268.47,96.94L268.47,96.94c-0.02-0.15-0.04-0.3-0.07-0.46  c-0.05-0.28-0.11-0.57-0.17-0.85c0.07,0.28,0.13,0.56,0.17,0.85C268.43,96.64,268.45,96.79,268.47,96.94z M267.84,94.34  c0.11,0.3,0.23,0.69,0.34,1.1C268.07,95.02,267.96,94.64,267.84,94.34c-0.08-0.22-0.16-0.4-0.24-0.52  C267.68,93.94,267.76,94.12,267.84,94.34z M272.19,96.67c0.85-0.37,1.71-0.6,2.6-0.69c0.29-0.03,0.59-0.05,0.89-0.05l0,0  c-0.3,0-0.6,0.01-0.89,0.05C273.91,96.07,273.04,96.3,272.19,96.67z M280.49,95.34c0.24,0.28,0.45,0.61,0.63,0.98  C280.94,95.95,280.73,95.62,280.49,95.34z"></path>	<path class="st0" d="M295.02,93.41c-3.5,0-6.01,1.17-7.6,2.06l-0.24,0.13l0.1,0.25l0.82,2.02l0.13,0.32l0.3-0.16  c1.5-0.8,3.81-1.74,6.25-1.74c2.88,0,4.16,1.36,4.16,4.41v2.92c-8.54,0.2-12.7,2.85-12.7,8.09c0,3.99,2.65,6.56,6.75,6.56  c2.29,0,4.54-0.91,6.28-2.5l0.44,1.74l0.06,0.23h0.24h1.64h0.31v-0.31v-16.55C301.97,95.93,299.63,93.41,295.02,93.41z   M287.56,95.74L287.56,95.74l0.82,2.02L287.56,95.74z M290.09,114.78c-0.36-0.38-0.63-0.84-0.81-1.38  c-0.18-0.54-0.27-1.15-0.27-1.84c0,0.69,0.09,1.3,0.27,1.84C289.46,113.94,289.73,114.4,290.09,114.78  c0.36,0.38,0.81,0.67,1.35,0.86c0.54,0.2,1.17,0.3,1.89,0.3c-0.72,0-1.35-0.1-1.89-0.3C290.9,115.45,290.45,115.16,290.09,114.78z   M298.94,106.2v6.78c-1.69,1.74-3.62,2.65-5.61,2.65c-2.63,0-4.02-1.41-4.02-4.07C289.31,108,292.2,106.39,298.94,106.2z   M294.89,117.75c1.21-0.28,2.32-0.8,3.27-1.47C297.21,116.95,296.1,117.47,294.89,117.75z M301.66,117.43L301.66,117.43v-16.55  c0-2.43-0.55-4.22-1.66-5.4c-0.55-0.59-1.24-1.03-2.07-1.32c0.83,0.29,1.52,0.73,2.07,1.32c1.11,1.18,1.66,2.98,1.66,5.4V117.43z"></path>	<polygon class="st0" points="310.56,83.36 308.15,83.75 307.89,83.79 307.89,84.05 307.89,117.43 307.89,117.74 308.2,117.74   310.6,117.74 310.91,117.74 310.91,117.43 310.91,83.67 310.91,83.31  "></polygon></g><path class="st1" d="M343.03,117.43v-14.62h-8.99v14.62h-6.59v-33h6.59V97.9h8.99V84.44h6.59v33H343.03z"></path><path class="st1" d="M359.24,107.62c0.14,3.8,1.78,5.58,5.1,5.58c2.98,0,4.95-1.2,6.16-1.88l1.97,4.38 c-1.39,0.96-4.38,2.55-8.75,2.55c-7.26,0-10.63-4.86-10.63-12.17c0-7.65,3.85-12.55,10.39-12.55c4.38,0,7.12,2.12,8.42,6.01 c0.67,2.07,0.91,4.57,0.91,8.08H359.24z M363.23,98.05c-2.31,0-3.61,1.68-3.85,5.05h7.21C366.55,99.64,365.54,98.05,363.23,98.05z"></path><path class="st1" d="M387.81,117.43l-0.48-1.73c-1.78,1.78-3.51,2.41-6.01,2.41c-4.23,0-7.07-2.69-7.07-7.07 c0-7.12,6.59-7.94,12.6-8.03v-1.35c0-2.45-0.77-3.32-3.13-3.32c-2.21,0-4.95,1.06-6.35,1.68l-1.54-4.38 c1.92-1.11,4.57-2.12,8.76-2.12c5.82,0,8.46,2.5,8.46,7.7v16.21H387.81z M386.85,107.04c-4.62,0-6.4,0.96-6.4,3.61 c0,1.83,1.06,3.03,2.7,3.03c1.25,0,2.6-0.63,3.7-1.73V107.04z"></path><path class="st1" d="M397.39,117.43V84.2l6.25-0.48v33.72H397.39z"></path><path class="st1" d="M414.85,118.25c-4.95,0-6.4-2.93-6.4-7.45V98.91h-2.74v-4.57h2.74v-6.59l6.25-0.48v7.07h4.18l-0.48,4.57h-3.7 v11.11c0,2.31,0.53,2.84,1.64,2.84c0.96,0,1.68-0.29,2.31-0.58l0.67,5.1C418.74,117.62,416.77,118.25,414.85,118.25z"></path><path class="st1" d="M433.66,117.43v-15.2c0-2.69-0.72-3.75-2.5-3.75c-1.39,0-2.4,0.53-3.85,1.83v17.12h-6.25V84.2l6.25-0.48v12.46 c1.83-1.68,3.8-2.65,6.35-2.65c2.31,0,4.19,0.96,5.24,2.5c0.77,1.15,0.96,2.5,0.96,4.86v16.55H433.66z"></path><path class="st1" d="M312.59,64.3c0,0-16.08-3.7-30.77-1.57c-14.69,2.12-27.99,7.86-27.99,7.86C280.29,34.5,312.59,64.3,312.59,64.3 z M340.64,64.3c0,0,16.08-3.7,30.77-1.57c14.69,2.12,27.99,7.86,27.99,7.86C372.94,34.5,340.64,64.3,340.64,64.3z M326.65,7.66 c-3.78-0.02-6.86,3.03-6.88,6.81c-0.02,3.78,3.03,6.86,6.81,6.88c3.78,0.02,6.86-3.03,6.88-6.81 C333.48,10.76,330.43,7.68,326.65,7.66z M348.52,17.41c0,0-11.06,0.34-21.9,10.78c-10.84-10.44-21.9-10.78-21.9-10.78 s13.5,9.13,21.79,34.21c0.04,0.13,0.07,0.25,0.11,0.38c0-0.01,0.01-0.02,0.01-0.03c0,0.01,0.01,0.02,0.01,0.03 c0.04-0.13,0.07-0.25,0.11-0.38C335.02,26.54,348.52,17.41,348.52,17.41z M281.5,36.43c2.76,2.59,7.09,2.45,9.68-0.31 c2.59-2.76,2.45-7.09-0.31-9.68c-2.76-2.59-7.09-2.45-9.68,0.31C278.6,29.51,278.74,33.84,281.5,36.43z M313.04,57.03 c0.12,0.06,0.23,0.12,0.35,0.18c-0.01-0.01-0.01-0.02-0.01-0.03c0.01,0,0.02,0.01,0.03,0.01c-0.07-0.12-0.13-0.22-0.2-0.34 c-12.51-23.26-9.86-39.34-9.86-39.34s-7.36,8.27-7.23,23.32c-15.04,0.69-21.73,7.5-22.89,8.49 C284.38,46.78,297.93,47.52,313.04,57.03z M372.05,26.75c-2.59-2.76-6.92-2.9-9.68-0.31c-2.76,2.59-2.9,6.92-0.31,9.68 c2.59,2.76,6.92,2.9,9.68,0.31C374.49,33.84,374.63,29.51,372.05,26.75z M380.01,49.33c-1.16-0.99-7.85-7.8-22.89-8.49 c0.13-15.05-7.23-23.32-7.23-23.32s2.65,16.08-9.86,39.34c-0.07,0.11-0.13,0.22-0.2,0.34c0.01,0,0.02-0.01,0.03-0.01 c0,0.01-0.01,0.02-0.01,0.03c0.12-0.06,0.23-0.12,0.35-0.18C355.3,47.52,368.85,46.78,380.01,49.33z"></path><g>	<path class="st1" d="M442.99,92.45c-2.38,0-4.35-1.98-4.35-4.38c0-2.41,1.97-4.39,4.35-4.39c2.41,0,4.36,1.98,4.36,4.39  C447.35,90.47,445.39,92.45,442.99,92.45z M442.99,84.18c-2.19,0-3.78,1.75-3.78,3.89c0,2.13,1.59,3.88,3.78,3.88  c2.21,0,3.8-1.75,3.8-3.88C446.79,85.93,445.2,84.18,442.99,84.18z M444.2,90.83l-1.31-2.49h-0.61v2.42h-0.55v-5.41h1.05  c1.16,0,1.6,0.51,1.6,1.47c0,0.74-0.3,1.23-0.94,1.45l1.35,2.41L444.2,90.83z M442.96,85.85h-0.67v2.02h0.66  c0.63,0,0.9-0.42,0.9-1.05C443.85,86.21,443.61,85.85,442.96,85.85z"></path></g></svg>