<svg width="172" height="30" viewBox="0 0 172 30" fill="none" xmlns="http://www.w3.org/2000/svg">
<g clip-path="url(#clip0_116_31)">
<path d="M35.0359 4.19321C35.0359 2.74778 34.9579 2.37749 34.0809 2.29954L33.454 2.24107C33.4221 2.20885 33.3973 2.17031 33.3812 2.12792C33.3651 2.08553 33.358 2.04023 33.3605 1.99495C33.3629 1.94966 33.3748 1.90539 33.3954 1.86498C33.416 1.82458 33.4448 1.78893 33.48 1.76034C34.5357 1.6629 35.8642 1.60443 37.6799 1.60443C38.9109 1.60443 40.0835 1.70188 40.9638 2.15012C41.4255 2.36415 41.8132 2.71067 42.0776 3.14561C42.3419 3.58056 42.4709 4.08428 42.4482 4.59274C42.4482 5.99919 41.6264 6.72028 40.4538 7.26922C40.4538 7.46411 40.6097 7.52258 40.8241 7.56156C41.5724 7.7094 42.2448 8.11588 42.7235 8.70977C43.2022 9.30366 43.4566 10.0471 43.4421 10.8097C43.4421 13.0834 41.7628 14.6003 38.2451 14.6003C37.6766 14.6003 36.7217 14.5418 35.8999 14.5418C35.0781 14.5418 34.3765 14.5808 33.6522 14.6003C33.5892 14.5361 33.5507 14.4518 33.5436 14.3622C33.5365 14.2725 33.5611 14.1832 33.6132 14.1098L33.9672 14.0514C35.0002 13.876 35.0391 13.6616 35.0391 11.612L35.0359 4.19321ZM36.6405 6.79174C36.6405 7.34068 36.6567 7.37966 37.6539 7.34068C39.6483 7.26272 40.7202 6.67481 40.7202 4.8396C40.7202 2.92643 39.2942 2.20209 37.7968 2.20209C37.4933 2.18386 37.189 2.22354 36.9003 2.31903C36.7054 2.37749 36.6275 2.47494 36.6275 2.82574L36.6405 6.79174ZM36.6405 11.3392C36.6405 12.044 36.6795 13.0412 37.0498 13.47C37.42 13.8987 38.0047 14.0156 38.5926 14.0156C40.3304 14.0156 41.6589 13.2361 41.6589 11.2807C41.6589 9.73782 40.8793 7.94159 37.7611 7.94159C36.7087 7.94159 36.6307 8.05852 36.6307 8.4483L36.6405 11.3392Z" fill="#003DA6"/>
<path d="M48.652 10.5044C48.9444 10.407 48.9769 10.2316 48.9769 9.93599L48.9964 9.0395C49.0158 8.31516 48.782 7.34071 47.5704 7.34071C47.0247 7.34071 46.3621 7.61355 46.3199 8.21771C46.3004 8.54253 46.2841 8.76665 46.125 8.88359C45.7973 9.10993 45.412 9.23836 45.0141 9.25388C44.977 9.25854 44.9394 9.25473 44.904 9.24271C44.8686 9.2307 44.8364 9.21081 44.8098 9.18453C44.7832 9.15826 44.7629 9.12629 44.7505 9.09104C44.738 9.05578 44.7338 9.01817 44.738 8.98103C44.738 7.96436 46.9468 6.57739 48.3727 6.57739C49.7986 6.57739 50.4613 7.39918 50.4028 8.8511L50.2859 12.2487C50.2469 13.1484 50.4223 13.9475 51.1856 13.9475C51.3548 13.9458 51.5213 13.9058 51.6728 13.8305C51.7703 13.7721 51.8677 13.6941 51.9262 13.6941C51.9847 13.6941 52.0626 13.811 52.0626 13.9475C51.8778 14.2077 51.6347 14.421 51.3527 14.5705C51.0707 14.7199 50.7576 14.8013 50.4385 14.8082C50.194 14.8137 49.9517 14.7615 49.7311 14.656C49.5104 14.5505 49.3177 14.3946 49.1685 14.2008C49.0905 14.0839 48.9736 13.928 48.8437 13.928C48.5724 14.021 48.3163 14.1534 48.0836 14.321C47.6647 14.602 47.1802 14.7699 46.6772 14.8082C46.1811 14.8324 45.6938 14.6715 45.3097 14.3567C45.1177 14.1845 44.9644 13.9736 44.8597 13.738C44.755 13.5023 44.7014 13.2471 44.7023 12.9893C44.7023 12.2292 45.0758 11.7809 46.3264 11.3327L48.652 10.5044ZM47.447 13.941C47.884 13.9008 48.299 13.7311 48.6391 13.4537C48.8729 13.2199 48.8729 12.947 48.8924 12.5345L48.9314 11.3814C48.9314 11.167 48.8534 11.1281 48.7365 11.1281C48.4637 11.1629 48.1957 11.2283 47.9374 11.323C46.7844 11.716 46.2159 12.0083 46.2159 12.7684C46.2166 12.9271 46.2494 13.0841 46.3123 13.2299C46.3752 13.3757 46.4668 13.5073 46.5818 13.6168C46.6967 13.7263 46.8326 13.8115 46.9813 13.8672C47.13 13.9229 47.2884 13.948 47.447 13.941" fill="#003DA6"/>
<path d="M52.0695 18.1929C52.0612 18.088 52.0757 17.9825 52.1121 17.8838C52.1485 17.785 52.2059 17.6953 52.2803 17.6209C52.3547 17.5465 52.4444 17.4891 52.5431 17.4527C52.6419 17.4163 52.7474 17.4018 52.8523 17.4101H53.2226C53.3526 17.417 53.4821 17.3879 53.5967 17.3261C53.7113 17.2642 53.8067 17.1719 53.8722 17.0593C54.2577 16.5005 54.5791 15.9002 54.8304 15.2696C54.936 15.0012 55.0016 14.7189 55.0253 14.4315C55.0253 14.0385 54.9473 13.8046 54.7005 13.0835L53.1641 8.90641C52.8393 7.98718 52.6964 7.51944 52.0143 7.38302L51.5238 7.28558C51.4068 7.18813 51.4263 6.85357 51.5822 6.7951C52.2091 6.83408 52.7938 6.85357 53.4369 6.85357C53.9664 6.85357 54.5121 6.83408 55.139 6.7951C55.2949 6.85357 55.3144 7.18813 55.178 7.28558L54.6875 7.38302C54.4146 7.44149 54.2587 7.49995 54.2587 7.63638C54.4068 8.26017 54.5967 8.87329 54.8272 9.47159L55.4508 11.2678C55.6068 11.7427 55.7957 12.2061 56.016 12.6548C56.299 12.1949 56.5413 11.7113 56.7403 11.2094L57.3899 9.66648C57.6923 9.04524 57.9222 8.39132 58.0753 7.71758C58.0753 7.58116 57.9584 7.44474 57.6043 7.39277L57.0002 7.29532C56.8637 7.19788 56.8832 6.86332 57.0391 6.80485C57.6628 6.84383 58.2507 6.86332 58.7574 6.86332C59.2641 6.86332 59.6961 6.84383 60.2418 6.80485C60.2795 6.83244 60.3108 6.86784 60.3335 6.90862C60.3563 6.9494 60.37 6.9946 60.3737 7.04116C60.3774 7.08771 60.371 7.13451 60.355 7.17837C60.3389 7.22223 60.3136 7.26212 60.2808 7.29532L59.956 7.35379C59.3064 7.47072 58.9588 8.0359 58.2962 9.42286L57.2016 11.6706C56.5519 12.9699 55.1325 15.9971 54.1743 18.1279C53.8495 18.8685 53.372 19.0439 52.9237 19.0439C52.8099 19.0551 52.695 19.0412 52.587 19.0034C52.4791 18.9656 52.3807 18.9046 52.2987 18.8248C52.2168 18.745 52.1532 18.6483 52.1125 18.5414C52.0718 18.4345 52.0549 18.32 52.063 18.2059" fill="#003DA6"/>
<path d="M62.2685 12.3592C62.2685 13.7657 62.3074 13.9606 63.009 14.058L63.48 14.1165C63.5101 14.151 63.533 14.1913 63.5474 14.2348C63.5617 14.2783 63.5672 14.3242 63.5636 14.3699C63.56 14.4156 63.5473 14.4601 63.5262 14.5008C63.5052 14.5415 63.4762 14.5776 63.441 14.607C62.7914 14.568 62.2295 14.5485 61.5441 14.5485C60.8588 14.5485 60.2449 14.568 59.6699 14.607C59.6348 14.5776 59.6058 14.5415 59.5847 14.5008C59.5637 14.4601 59.551 14.4156 59.5473 14.3699C59.5437 14.3242 59.5492 14.2783 59.5636 14.2348C59.578 14.1913 59.6009 14.151 59.6309 14.1165L60.0792 14.058C60.8035 13.9606 60.823 13.7657 60.823 12.3592V3.53074C60.823 2.37764 60.8035 2.26071 60.2156 1.90666L60.0207 1.78972C59.9735 1.73581 59.9474 1.66655 59.9474 1.59484C59.9474 1.52313 59.9735 1.45386 60.0207 1.39994C60.7451 1.18232 61.4511 0.907527 62.132 0.578161C62.1722 0.577426 62.2118 0.588 62.2462 0.608676C62.2807 0.629351 62.3087 0.659296 62.3269 0.695095C62.3074 1.27976 62.2685 2.25746 62.2685 3.11822V12.3592Z" fill="#003DA6"/>
<path d="M72.2504 10.6214C72.2504 13.064 70.5711 14.8213 68.1285 14.8213C65.8807 14.8213 64.1235 13.2394 64.1235 10.7968C64.1072 10.2431 64.2032 9.69179 64.4058 9.17619C64.6083 8.66058 64.9132 8.19134 65.302 7.79676C65.6908 7.40217 66.1555 7.09042 66.6681 6.88031C67.1807 6.67019 67.7305 6.56606 68.2844 6.57419C68.8145 6.56454 69.341 6.66314 69.8317 6.86396C70.3224 7.06478 70.7669 7.3636 71.1382 7.74214C71.5094 8.12068 71.7995 8.57097 71.9908 9.06549C72.182 9.56 72.2703 10.0883 72.2504 10.6182V10.6214ZM68.0505 7.16211C66.7512 7.16211 65.8028 8.39316 65.8028 10.5434C65.8028 12.3202 66.6051 14.2334 68.3233 14.2334C70.0416 14.2334 70.5711 12.4371 70.5711 10.9332C70.5711 9.27341 69.9052 7.16211 68.0505 7.16211Z" fill="#003DA6"/>
<path d="M74.358 8.94201C74.358 8.1787 74.358 8.08125 73.8318 7.73045L73.6564 7.61352C73.6165 7.56264 73.5965 7.49899 73.6001 7.43445C73.6036 7.3699 73.6306 7.30887 73.6758 7.26272C74.3552 6.98472 75.014 6.65909 75.6475 6.28827C75.7449 6.30776 75.8034 6.34674 75.8034 6.42469V7.57454C75.8034 7.67198 75.8229 7.73045 75.8619 7.74994C76.5472 7.18476 77.2878 6.57736 78.0121 6.57736C78.1218 6.56803 78.2322 6.58118 78.3366 6.616C78.441 6.65082 78.5372 6.70657 78.6193 6.77985C78.7013 6.85313 78.7676 6.94239 78.814 7.04217C78.8604 7.14196 78.886 7.25016 78.8891 7.36016C78.8935 7.47417 78.8752 7.58791 78.8353 7.69482C78.7955 7.80173 78.7348 7.89968 78.6569 7.98303C78.579 8.06638 78.4854 8.13347 78.3814 8.18044C78.2774 8.2274 78.1652 8.2533 78.0511 8.25665C77.8976 8.25632 77.7479 8.20868 77.6224 8.12023C77.3727 7.93126 77.0738 7.81846 76.7616 7.79541C76.6218 7.79878 76.485 7.836 76.3628 7.90389C76.2406 7.97178 76.1367 8.06831 76.06 8.18519C75.8619 8.45804 75.8034 9.02647 75.8034 9.68909V12.3461C75.8034 13.7525 75.8424 13.9864 76.5862 14.0449L77.2878 14.1033C77.3183 14.1377 77.3416 14.1779 77.3562 14.2214C77.3708 14.265 77.3765 14.3111 77.3728 14.3569C77.3692 14.4027 77.3563 14.4473 77.335 14.488C77.3137 14.5287 77.2844 14.5647 77.2488 14.5938C76.3328 14.5548 75.7644 14.5353 75.0823 14.5353C74.4002 14.5353 73.783 14.5548 73.2861 14.5938C73.2484 14.5662 73.2171 14.5308 73.1944 14.49C73.1716 14.4493 73.1579 14.4041 73.1542 14.3575C73.1505 14.311 73.1569 14.2642 73.1729 14.2203C73.189 14.1764 73.2142 14.1365 73.2471 14.1033L73.6174 14.0449C74.3385 13.9279 74.358 13.7525 74.358 12.3461V8.94201Z" fill="#003DA6"/>
<path d="M82.9499 14.8603C81.8875 14.8883 80.8362 14.6386 79.8999 14.136C79.666 13.7072 79.4126 12.3203 79.3737 11.4043C79.4711 11.2646 79.7634 11.2256 79.8414 11.3426C80.137 12.3398 80.936 14.2659 83.2032 14.2659C84.8435 14.2659 85.6426 13.1908 85.6426 12.0182C85.6426 11.1574 85.4672 10.1992 84.0413 9.28324L82.2028 8.06193C81.2284 7.4123 80.0915 6.30468 80.0915 4.70334C80.0915 2.84539 81.5369 1.34149 84.077 1.34149C84.6916 1.35141 85.3026 1.4376 85.896 1.5981C86.1171 1.66709 86.3465 1.70641 86.5781 1.71503C86.8067 2.48815 86.9248 3.28973 86.9289 4.09593C86.8509 4.21611 86.5391 4.27133 86.4416 4.1544C86.1883 3.21893 85.6588 1.9489 83.7847 1.9489C81.9105 1.9489 81.4622 3.21893 81.4622 4.11542C81.4622 5.24903 82.3977 6.06432 83.122 6.51906L84.6844 7.49351C85.9122 8.25358 87.127 9.38718 87.127 11.2419C87.127 13.3922 85.5029 14.8571 82.9661 14.8571" fill="#003DA6"/>
<path d="M94.8054 6.9087C95.0008 7.12183 95.1056 7.40253 95.0978 7.69151C95.0978 8.04231 94.9029 8.4126 94.669 8.4126C94.6159 8.41394 94.5632 8.4022 94.5156 8.37841C94.468 8.35463 94.427 8.31952 94.3962 8.27618C94.1635 7.97527 93.8693 7.72747 93.5332 7.54935C93.1972 7.37122 92.8269 7.26687 92.4473 7.24326C91.0798 7.24326 89.7546 8.31516 89.7546 10.3875C89.7546 11.9109 90.807 13.7266 92.8988 13.7266C93.3326 13.7476 93.7638 13.6495 94.1457 13.4428C94.5277 13.2361 94.8457 12.9287 95.0653 12.554C95.1064 12.5476 95.1484 12.5497 95.1887 12.5602C95.229 12.5706 95.2667 12.5892 95.2996 12.6147C95.3325 12.6403 95.3597 12.6723 95.3798 12.7087C95.3998 12.7452 95.4122 12.7854 95.4161 12.8269C95.12 13.4335 94.6573 13.9432 94.082 14.2964C93.5068 14.6496 92.8429 14.8316 92.1679 14.8212C91.1797 14.8516 90.2189 14.4936 89.4915 13.824C89.1145 13.4456 88.8194 12.9937 88.6244 12.4964C88.4294 11.9991 88.3387 11.467 88.3579 10.9332C88.3579 8.82512 89.8423 6.57739 93.0872 6.57739C93.6814 6.57879 94.2703 6.68887 94.8249 6.90221" fill="#003DA6"/>
<path d="M103.771 10.6213C103.771 13.064 102.091 14.8212 99.6486 14.8212C97.4042 14.8212 95.6469 13.2394 95.6469 10.7967C95.6306 10.243 95.7266 9.69174 95.9292 9.17613C96.1317 8.66053 96.4366 8.19128 96.8254 7.7967C97.2143 7.40212 97.679 7.09037 98.1915 6.88025C98.7041 6.67013 99.2539 6.566 99.8078 6.57414C100.338 6.56493 100.864 6.66386 101.354 6.86488C101.844 7.0659 102.289 7.36478 102.66 7.74328C103.03 8.12177 103.32 8.57191 103.511 9.0662C103.702 9.56049 103.791 10.0885 103.771 10.6181V10.6213ZM99.5707 7.16205C98.2714 7.16205 97.3262 8.39311 97.3262 10.5434C97.3262 12.3201 98.1285 14.2333 99.8468 14.2333C101.565 14.2333 102.091 12.4371 102.091 10.9332C102.091 9.27336 101.442 7.16205 99.5707 7.16205Z" fill="#003DA6"/>
<path d="M107.483 7.6721C107.158 7.6721 107.132 7.73057 107.132 8.13984V11.794C107.132 12.9276 107.268 13.9605 108.558 13.9605C108.738 13.9601 108.916 13.9271 109.084 13.8631C109.259 13.8046 109.516 13.5902 109.575 13.5902C109.73 13.5902 109.808 13.8046 109.769 13.9151C109.511 14.2028 109.194 14.432 108.84 14.5872C108.486 14.7424 108.103 14.82 107.717 14.8148C106.037 14.8148 105.686 13.8761 105.686 12.7067V8.23728C105.686 7.71108 105.667 7.6721 105.277 7.6721H104.728C104.672 7.6211 104.635 7.55186 104.624 7.47645C104.613 7.40105 104.63 7.32429 104.67 7.25959C105.118 7.13612 105.54 6.93133 105.914 6.65543C106.243 6.31392 106.52 5.9253 106.736 5.50233C106.833 5.46335 107.06 5.46335 107.145 5.60303V6.48003C107.145 6.83083 107.164 6.85032 107.496 6.85032H109.665C109.767 6.96197 109.825 7.10659 109.829 7.25757C109.832 7.40855 109.781 7.55575 109.685 7.6721H107.483Z" fill="#003DA6"/>
<path d="M113.385 7.6721C113.06 7.6721 113.034 7.73057 113.034 8.13984V11.794C113.034 12.9276 113.17 13.9605 114.46 13.9605C114.64 13.9601 114.818 13.9271 114.986 13.8631C115.161 13.8046 115.418 13.5902 115.476 13.5902C115.632 13.5902 115.71 13.8046 115.671 13.9151C115.413 14.2028 115.096 14.432 114.742 14.5872C114.388 14.7424 114.005 14.82 113.618 14.8148C111.939 14.8148 111.588 13.8761 111.588 12.7067V8.23728C111.588 7.71108 111.569 7.6721 111.179 7.6721H110.63C110.574 7.6211 110.537 7.55186 110.526 7.47645C110.515 7.40105 110.532 7.32429 110.572 7.25959C111.022 7.13686 111.446 6.93205 111.822 6.65543C112.152 6.31392 112.429 5.9253 112.644 5.50233C112.741 5.46335 112.969 5.46335 113.053 5.60303V6.48003C113.053 6.83083 113.073 6.85032 113.404 6.85032H115.574C115.676 6.96197 115.733 7.10659 115.737 7.25757C115.741 7.40855 115.69 7.55575 115.593 7.6721H113.385Z" fill="#003DA6"/>
<path d="M118.907 6.41164C118.906 6.09128 118.969 5.77396 119.092 5.47822C119.215 5.18249 119.396 4.91427 119.624 4.68926C119.852 4.46425 120.123 4.28696 120.42 4.16776C120.718 4.04855 121.036 3.98982 121.356 3.99501C122.269 3.99501 123.172 4.54719 123.172 5.44368C123.159 5.79664 123.017 6.13247 122.771 6.38666C122.526 6.64086 122.196 6.79551 121.843 6.82091C121.772 6.82091 121.467 6.82091 121.684 6.49609C121.785 6.37663 121.853 6.23307 121.883 6.07939C121.912 5.92571 121.9 5.76714 121.85 5.61908C121.77 5.40057 121.626 5.21146 121.436 5.07687C121.246 4.94227 121.02 4.86856 120.788 4.86551C120.634 4.84405 120.478 4.85502 120.329 4.89771C120.18 4.9404 120.042 5.01386 119.923 5.11335C119.804 5.21284 119.708 5.33615 119.64 5.47529C119.571 5.61444 119.533 5.76633 119.527 5.92116C119.527 6.5708 119.911 6.98331 121.246 7.71415C122.964 8.64637 124.458 9.45191 125.738 12.0667C126.176 11.5524 126.408 10.8938 126.388 10.2185C126.4 9.74823 126.247 9.28856 125.956 8.91922C125.869 8.80857 125.761 8.71689 125.637 8.64984C125.514 8.58279 125.378 8.54181 125.238 8.52944C125.063 8.50074 124.885 8.51279 124.715 8.56463C124.546 8.61646 124.392 8.7067 124.263 8.82827C124.232 8.86302 124.19 8.88725 124.144 8.8977C124.098 8.90815 124.05 8.90432 124.007 8.88673C123.877 8.84126 123.854 8.64637 123.883 8.43524C123.971 7.78561 124.647 7.28214 125.618 7.28214C125.946 7.29516 126.272 7.33865 126.592 7.41207C126.838 7.46577 127.088 7.50159 127.339 7.51926C127.427 7.53389 127.517 7.52299 127.599 7.48787C127.681 7.45274 127.751 7.39486 127.801 7.32112C127.801 7.32112 127.849 7.23992 127.921 7.23992C127.967 7.2411 128.011 7.2551 128.05 7.28035C128.088 7.30561 128.119 7.3411 128.138 7.38284C128.138 8.11367 127.719 8.53593 126.787 8.78929C126.994 9.17749 127.095 9.61328 127.079 10.0528C127.083 11.0003 126.714 11.9112 126.053 12.5896C126.638 13.668 127.206 14.0708 128.155 14.0708C128.328 14.0767 128.502 14.0525 128.668 13.9993C128.773 13.9613 128.882 13.9362 128.993 13.9246C129.084 13.9246 129.123 13.9636 129.123 14.0546C129.123 14.4183 128.297 14.7042 127.239 14.7042C126.232 14.7042 125.722 14.4833 124.861 13.7297C123.562 14.4801 122.74 14.7367 121.613 14.7367C119.255 14.7367 117.426 13.2003 117.426 11.2254C117.426 9.15958 118.979 8.40601 119.674 8.11367C119.108 7.49002 118.907 7.01904 118.907 6.41813V6.41164ZM120.096 8.5002C119.31 8.66586 118.943 9.14984 118.943 10.0918C118.943 12.1024 120.629 13.8597 122.516 13.8597C123.212 13.8607 123.895 13.6708 124.491 13.3107C124.181 12.9619 123.898 12.5894 123.646 12.1966L123.224 11.5924C122.513 10.4997 121.599 9.55357 120.531 8.80553L120.096 8.5002Z" fill="#003DA6"/>
<path d="M126.377 2.0657C126.349 2.03162 126.329 1.99219 126.316 1.94982C126.304 1.90745 126.301 1.86303 126.306 1.81927C126.312 1.7755 126.326 1.73331 126.348 1.69526C126.371 1.65722 126.4 1.62411 126.436 1.59797C126.965 1.63694 127.842 1.65318 128.45 1.65318C128.995 1.65318 129.993 1.63694 130.675 1.59797C130.85 1.65319 130.831 1.92278 130.714 2.0657L130.265 2.10468C129.856 2.14366 129.616 2.26059 129.616 2.42949C129.616 2.66336 130.028 3.66055 130.632 5.04751C131.727 7.49013 132.88 9.91975 134.011 12.3331C134.482 11.3587 135.008 10.2641 135.518 9.16943C135.657 8.91556 135.766 8.6463 135.843 8.36713C135.818 8.19107 135.765 8.02006 135.687 7.86042C135.001 6.29805 134.28 4.73569 133.536 3.17332C133.244 2.56592 132.952 2.15665 132.286 2.09818L131.818 2.0592C131.786 2.02808 131.76 1.9901 131.745 1.94803C131.729 1.90596 131.722 1.86087 131.726 1.81605C131.73 1.77122 131.743 1.7278 131.766 1.68895C131.789 1.65009 131.82 1.61679 131.857 1.59147C132.422 1.63045 133.156 1.64669 133.946 1.64669C134.92 1.64669 135.648 1.63045 136.096 1.59147C136.232 1.64669 136.252 1.91629 136.135 2.0592L135.628 2.09818C134.865 2.15665 134.845 2.29307 135.216 3.17332C135.628 4.12828 136.174 5.35933 136.723 6.5709C137.093 5.81083 137.444 5.067 137.873 4.01135C138.577 2.35154 138.48 2.13716 137.853 2.09818L137.268 2.0592C137.132 1.86432 137.171 1.64669 137.307 1.59147C137.834 1.63045 138.418 1.64669 139.143 1.64669C139.792 1.64669 140.569 1.63045 141.017 1.59147C141.157 1.64669 141.173 1.91629 141.056 2.0592L140.491 2.09818C139.669 2.15665 139.318 3.0369 138.889 3.83595C138.48 4.56029 137.658 6.25907 137.366 6.94119C137.283 7.08797 137.224 7.24692 137.191 7.41217C137.21 7.57456 137.256 7.73262 137.327 7.87991C137.977 9.3838 138.675 10.8487 139.318 12.3331C139.925 10.9657 140.51 9.59818 141.075 8.21122C141.468 7.27575 142.501 4.67722 142.638 4.31343C142.882 3.73822 143.078 3.14399 143.226 2.53668C143.226 2.26384 142.992 2.10793 142.576 2.08844L142.011 2.04946C141.855 1.87406 141.874 1.65968 142.03 1.58173C142.774 1.6207 143.3 1.63694 143.908 1.63694C144.648 1.63694 145.207 1.6207 145.723 1.58173C145.879 1.63694 145.899 1.90654 145.762 2.04946L145.389 2.08844C144.414 2.18588 144.239 2.7738 143.066 5.48601L141.64 8.78939C140.78 10.7805 140 12.6872 139.198 14.7855C139.127 14.8277 139.046 14.848 138.964 14.844C138.87 14.8453 138.777 14.8253 138.691 14.7855C138.064 13.0477 136.931 10.6051 136.327 9.23764C135.625 10.6636 134.452 13.1647 133.884 14.7855C133.813 14.8277 133.732 14.848 133.65 14.844C133.55 14.8434 133.45 14.8235 133.358 14.7855C133.033 13.9637 132.263 12.2065 132.01 11.6413C130.759 8.92581 129.548 6.21035 128.281 3.49489C127.907 2.6926 127.673 2.16639 126.855 2.08844L126.377 2.0657Z" fill="#003DA6"/>
<path d="M145.234 3.53057C145.234 2.29303 145.146 2.13711 144.867 2.23131L144.431 1.78956C144.334 1.73109 143.697 1.65314 143.944 1.65314C145.506 1.65314 145.857 0.984018 146.543 0.577999C146.563 0.566389 146.585 0.560364 146.609 0.560551C146.632 0.560738 146.655 0.56713 146.674 0.579063C146.694 0.590995 146.711 0.608034 146.722 0.628409C146.733 0.648784 146.738 0.671754 146.737 0.694932C146.708 1.2796 146.679 2.2573 146.679 3.11806V7.22373C146.679 7.39913 146.698 7.54855 146.757 7.59402C147.501 6.97561 148.428 6.61846 149.394 6.57735C151.249 6.57735 151.912 7.73044 151.912 9.09792V12.3461C151.912 13.7525 151.951 13.9702 152.656 14.0449L153.182 14.1033C153.212 14.1379 153.235 14.1781 153.249 14.2216C153.263 14.2651 153.269 14.3111 153.265 14.3568C153.262 14.4024 153.249 14.4469 153.228 14.4876C153.207 14.5283 153.178 14.5644 153.143 14.5938C152.441 14.5548 151.873 14.5353 151.194 14.5353C150.515 14.5353 149.895 14.5548 149.375 14.5938C149.34 14.5645 149.311 14.5283 149.29 14.4875C149.269 14.4466 149.256 14.402 149.253 14.3562C149.249 14.3104 149.255 14.2644 149.27 14.2209C149.285 14.1775 149.309 14.1375 149.339 14.1033L149.729 14.0449C150.453 13.9279 150.47 13.7525 150.47 12.3461V9.55591C150.47 8.30537 149.865 7.46734 148.615 7.46734C148.061 7.45642 147.521 7.64293 147.092 7.99355C146.741 8.28588 146.682 8.38333 146.682 9.06869V12.3493C146.682 13.7558 146.721 13.9507 147.423 14.0481L147.816 14.1033C147.952 14.1813 147.917 14.5353 147.78 14.5938C147.192 14.5548 146.624 14.5353 145.942 14.5353C145.26 14.5353 144.642 14.5548 144.028 14.5938C143.993 14.5644 143.964 14.5283 143.943 14.4876C143.922 14.4469 143.91 14.4024 143.906 14.3568C143.902 14.3111 143.908 14.2651 143.922 14.2216C143.937 14.1781 143.959 14.1379 143.99 14.1033L144.477 14.0449C145.201 13.9669 145.221 13.7525 145.221 12.3461L145.234 3.53057Z" fill="#003DA6"/>
<path d="M155 8.94217C155 8.17885 155 8.0814 154.471 7.7306L154.312 7.60717C154.272 7.55629 154.252 7.49265 154.256 7.42811C154.259 7.36356 154.286 7.30252 154.331 7.25637C155.028 6.98593 155.701 6.66007 156.345 6.28192C156.386 6.27577 156.428 6.28407 156.464 6.3054C156.499 6.32674 156.526 6.35978 156.54 6.39886C156.501 7.08097 156.462 8.02294 156.462 8.82199V12.3592C156.462 13.7657 156.501 13.9606 157.203 14.058L157.612 14.1165C157.642 14.1508 157.666 14.191 157.68 14.2346C157.695 14.2781 157.701 14.3242 157.697 14.37C157.693 14.4158 157.68 14.4604 157.659 14.5012C157.638 14.5419 157.609 14.5779 157.573 14.607C156.988 14.568 156.423 14.5485 155.738 14.5485C155.052 14.5485 154.439 14.568 153.903 14.607C153.867 14.5776 153.838 14.5415 153.817 14.5008C153.796 14.4601 153.784 14.4156 153.78 14.3699C153.776 14.3242 153.782 14.2783 153.796 14.2348C153.811 14.1913 153.834 14.151 153.864 14.1165L154.273 14.058C154.994 13.9606 155.017 13.7657 155.017 12.3592L155 8.94217ZM156.625 3.99847C156.63 4.26811 156.528 4.52876 156.341 4.72307C156.154 4.91739 155.897 5.02946 155.627 5.03463C155.358 5.0398 155.097 4.93765 154.903 4.75064C154.708 4.56363 154.596 4.30709 154.591 4.03745C154.586 3.89735 154.609 3.75763 154.66 3.62707C154.711 3.49651 154.789 3.37794 154.888 3.27879C154.987 3.17965 155.106 3.10209 155.236 3.05098C155.367 2.99987 155.507 2.97631 155.647 2.9818C155.778 2.98167 155.909 3.00821 156.03 3.0598C156.151 3.11139 156.26 3.18696 156.351 3.28197C156.442 3.37698 156.513 3.48944 156.56 3.61258C156.606 3.73573 156.627 3.86699 156.621 3.99847" fill="#003DA6"/>
<path d="M161.133 7.6721C160.808 7.6721 160.782 7.73057 160.782 8.13984V11.794C160.782 12.9276 160.918 13.9605 162.208 13.9605C162.388 13.9601 162.566 13.9271 162.734 13.8631C162.909 13.8046 163.163 13.5902 163.224 13.5902C163.38 13.5902 163.458 13.8046 163.419 13.9151C163.161 14.2025 162.844 14.4315 162.49 14.5866C162.136 14.7418 161.753 14.8196 161.366 14.8148C159.687 14.8148 159.336 13.8761 159.336 12.7067V8.23728C159.336 7.71108 159.317 7.6721 158.924 7.6721H158.378C158.322 7.6211 158.285 7.55186 158.274 7.47645C158.263 7.40105 158.28 7.32429 158.32 7.25959C158.77 7.13617 159.194 6.93141 159.57 6.65543C159.899 6.31376 160.175 5.92514 160.389 5.50233C160.489 5.46335 160.714 5.46335 160.801 5.60303V6.48003C160.801 6.83083 160.821 6.85032 161.152 6.85032H163.319C163.422 6.96132 163.48 7.10615 163.484 7.25752C163.488 7.40889 163.436 7.55634 163.338 7.6721H161.133Z" fill="#003DA6"/>
<path d="M165.68 9.55595C165.173 9.55595 165.154 9.59493 165.154 10.0854C165.154 12.057 166.304 13.7363 168.402 13.7363C169.052 13.7363 169.594 13.5414 170.198 12.7814C170.237 12.7662 170.279 12.7605 170.32 12.7649C170.361 12.7693 170.4 12.7836 170.435 12.8065C170.469 12.8295 170.498 12.8605 170.518 12.8969C170.538 12.9332 170.548 12.9738 170.549 13.0152C169.899 14.3405 168.5 14.831 167.483 14.831C166.942 14.848 166.405 14.7396 165.914 14.5141C165.423 14.2887 164.99 13.9524 164.65 13.5317C164.105 12.7982 163.818 11.9053 163.832 10.9916C163.832 8.588 165.414 6.57739 167.759 6.57739C169.438 6.57739 170.53 7.73049 170.53 8.90307C170.542 9.07569 170.515 9.24887 170.452 9.40979C170.396 9.52672 170.127 9.54621 169.302 9.54621L165.68 9.55595ZM166.892 8.97128C168.337 8.97128 168.766 8.89333 168.922 8.7764C168.98 8.73742 169.039 8.65621 169.039 8.40286C169.039 7.85717 168.668 7.17181 167.535 7.17181C166.401 7.17181 165.388 8.22746 165.368 8.87384C165.368 8.91282 165.368 8.97128 165.505 8.97128H166.892Z" fill="#003DA6"/>
<path d="M35.6779 21.113V23.0262H37.695V21.113H38.7929V26.1022H37.695V23.9487H35.6779V26.1022H34.58V21.113H35.6779Z" fill="#003DA6"/>
<path d="M47.1566 21.113V22.0355H44.5223V23.1042H46.9389V23.9552H44.5223V25.1797H47.2118V26.1022H43.4277V21.113H47.1566Z" fill="#003DA6"/>
<path d="M54.1112 21.113L55.9756 26.1022H54.8355L54.4717 24.9913H52.6073L52.198 26.1022H51.0969L52.9808 21.113H54.1112ZM54.1729 24.1728L53.5427 22.3408L52.8931 24.1728H54.1729Z" fill="#003DA6"/>
<path d="M61.1757 21.113V25.1797H63.6053V26.1022H60.0778V21.113H61.1757Z" fill="#003DA6"/>
<path d="M67.4965 22.0355V21.113H71.586V22.0355H70.0918V26.1022H68.9939V22.0355H67.4965Z" fill="#003DA6"/>
<path d="M76.9264 21.113V23.0262H78.9435V21.113H80.0414V26.1022H78.9435V23.9487H76.9264V26.1022H75.8286V21.113H76.9264Z" fill="#003DA6"/>
<path d="M4.6582 15.3281H14.6743L9.6159 20.3823H4.6582V15.3281Z" fill="#007FA9"/>
<path d="M14.6714 30.0001V15.3281L9.61621 20.3855V30.0001H14.6714Z" fill="#003DA6"/>
<path d="M30 15.3281H15.3283L20.3835 20.3823H30V15.3281Z" fill="#003DA6"/>
<path d="M15.3283 25.3422V15.3281L20.3835 20.3855V25.3422H15.3283Z" fill="#FFB71B"/>
<path d="M0 14.6719H14.6749L9.61651 9.6178H0V14.6719Z" fill="#003DA6"/>
<path d="M14.6714 4.65771V14.6718L9.61621 9.61441V4.65771H14.6714Z" fill="#FFB71B"/>
<path d="M25.3444 14.6718H15.3283L20.3867 9.61768H25.3444V14.6718Z" fill="#007FA9"/>
<path d="M15.3283 0V14.6719L20.3835 9.61455V0H15.3283Z" fill="#003DA6"/>
<path d="M15.3156 26.6445C15.3156 26.516 15.3537 26.3904 15.4251 26.2836C15.4965 26.1768 15.5979 26.0935 15.7166 26.0443C15.8353 25.9952 15.966 25.9823 16.092 26.0074C16.218 26.0324 16.3338 26.0943 16.4246 26.1851C16.5155 26.276 16.5773 26.3918 16.6024 26.5178C16.6275 26.6438 16.6146 26.7744 16.5654 26.8931C16.5163 27.0118 16.433 27.1133 16.3262 27.1847C16.2193 27.256 16.0937 27.2941 15.9652 27.2941C15.793 27.2941 15.6277 27.2257 15.5059 27.1039C15.3841 26.982 15.3156 26.8168 15.3156 26.6445ZM15.9652 27.1837C16.0724 27.1863 16.1779 27.1569 16.2683 27.0992C16.3586 27.0416 16.4298 26.9583 16.4726 26.86C16.5154 26.7617 16.5279 26.6529 16.5086 26.5475C16.4893 26.4421 16.439 26.3448 16.3641 26.2681C16.2893 26.1914 16.1932 26.1387 16.0883 26.1168C15.9834 26.0949 15.8743 26.1048 15.775 26.1452C15.6757 26.1856 15.5907 26.2547 15.5309 26.3436C15.4711 26.4326 15.4391 26.5373 15.439 26.6445C15.4362 26.7166 15.4485 26.7885 15.475 26.8556C15.5015 26.9228 15.5417 26.9836 15.5931 27.0343C15.6444 27.0851 15.7057 27.1245 15.7732 27.1503C15.8406 27.176 15.9127 27.1874 15.9847 27.1837H15.9652ZM15.8288 27.018H15.7379V26.271H16.0205C16.1959 26.271 16.2836 26.3359 16.2836 26.4853C16.2853 26.5116 16.2817 26.5379 16.2729 26.5627C16.2641 26.5875 16.2502 26.6101 16.2322 26.6293C16.2143 26.6485 16.1925 26.6638 16.1684 26.6743C16.1443 26.6847 16.1182 26.69 16.0919 26.69L16.3031 27.0148H16.1764L15.9782 26.69H15.8483L15.8288 27.018ZM15.9652 26.599C16.0594 26.599 16.1471 26.599 16.1471 26.4789C16.1471 26.3587 16.0627 26.3684 15.9847 26.3684H15.8288V26.599H15.9652Z" fill="#003DA6"/>
</g>
<defs>
<clipPath id="clip0_116_31">
<rect width="170.223" height="30" fill="white"/>
</clipPath>
</defs>
</svg>
