<svg version="1.1" id="full color transition logo" xmlns="http://www.w3.org/2000/svg" xmlns:xlink="http://www.w3.org/1999/xlink" x="0px" y="0px"
	 width="586px" height="82px" viewBox="0 0 586 82" enable-background="new 0 0 586 82" xml:space="preserve">
<path fill="#EC2024" d="M341.027,73.813"/>
<path fill="#EE3A42" d="M365.241,14.486h-48.428c0,4.742,0.671,15.333,4.165,26.966h20.049v5.395h-18.24
	c0.67,1.794,1.41,3.599,2.232,5.392h16.008v5.395h-13.262c1.035,1.833,2.166,3.637,3.4,5.393h9.861v5.395h-5.586
	c1.705,1.9,3.562,3.709,5.586,5.393C362.648,55.815,365.241,23.818,365.241,14.486"/>
<path fill="#FFFFFF" d="M341.027,63.026h-9.861c1.306,1.861,2.725,3.667,4.275,5.395h5.586V63.026z"/>
<path fill="#FFFFFF" d="M341.027,52.239H325.02c0.83,1.814,1.744,3.617,2.746,5.395h13.262V52.239z"/>
<path fill="#FFFFFF" d="M341.027,41.452h-20.049c0.535,1.779,1.135,3.582,1.809,5.395h18.24V41.452z"/>
<path fill="#FFFFFF" d="M338.344,21.253v5.44h-5.391v-5.44h-2.695v7.774c0,2.297-0.73,3.802-2.79,3.802
	c-2.061,0-2.792-1.505-2.792-3.802v-7.774h-2.694v8.605c0,3.609,2.04,5.094,5.486,5.094c3.351,0,5.371-1.405,5.479-4.8h0.006v-1.336
	h5.391v5.904h2.694V21.253H338.344z"/>
<path fill="#EE3A42" d="M359.849,7.734c0,2.235-1.204,4.047-2.69,4.047c-1.484,0-2.691-1.812-2.691-4.047
	c0-2.234,1.207-4.044,2.691-4.044C358.645,3.69,359.849,5.5,359.849,7.734"/>
<path fill="#231F20" d="M346.95,52.237c5.83-6.726,9.43-15.976,9.43-26.187c0-3.987-0.548-7.825-1.565-11.425
	c-1.441-5.112-3.432-9.742-6.526-13.625h-3.228c3.094,3.882,5.083,8.512,6.526,13.625c1.017,3.601,1.565,7.438,1.565,11.425
	c0,10.211-3.601,19.461-9.43,26.187H346.95z"/>
<path fill="#231F20" d="M370.645,22.625h3.234v9.316c0,2.752,0.878,4.555,3.35,4.555c2.473,0,3.35-1.803,3.35-4.555v-9.316h3.234
	v10.311c0,4.324-2.448,6.103-6.584,6.103c-4.135,0-6.584-1.779-6.584-6.103V22.625z"/>
<path fill="#231F20" d="M387.162,26.855h2.934v1.619h0.047c0.971-1.364,2.286-1.895,3.903-1.895c2.819,0,4.044,1.987,4.044,4.669
	v7.512h-3.096v-6.356c0-1.458-0.023-3.422-2.01-3.422c-2.242,0-2.727,2.427-2.727,3.953v5.825h-3.096V26.855z"/>
<path fill="#231F20" d="M401.346,21.724h3.096v2.959h-3.096V21.724z M401.346,26.855h3.096v11.906h-3.096V26.855z"/>
<polygon fill="#231F20" points="406.383,26.855 409.709,26.855 412.666,35.525 412.712,35.525 415.576,26.855 418.672,26.855 
	414.281,38.761 410.795,38.761 "/>
<path fill="#231F20" d="M430.084,38.091c-1.131,0.624-2.426,0.947-4.088,0.947c-3.928,0-6.215-2.266-6.215-6.172
	c0-3.444,1.826-6.288,5.521-6.288c4.41,0,5.66,3.028,5.66,7.19h-8.225c0.139,1.918,1.479,3.004,3.396,3.004
	c1.502,0,2.795-0.555,3.949-1.202V38.091z M428.006,31.641c-0.094-1.502-0.787-2.797-2.52-2.797c-1.73,0-2.609,1.202-2.748,2.797
	H428.006z"/>
<path fill="#231F20" d="M433.457,26.855h2.749v2.706h0.046c0.14-1.11,1.41-2.982,3.258-2.982c0.301,0,0.623,0,0.947,0.091v3.122
	c-0.277-0.162-0.832-0.255-1.386-0.255c-2.519,0-2.519,3.146-2.519,4.855v4.369h-3.096V26.855z"/>
<path fill="#231F20" d="M449.443,29.353c-0.949-0.323-1.642-0.508-2.773-0.508c-0.83,0-1.825,0.3-1.825,1.317
	c0,1.896,5.384,0.694,5.384,4.994c0,2.774-2.473,3.884-4.99,3.884c-1.178,0-2.379-0.208-3.512-0.508l0.186-2.544
	c0.971,0.486,1.986,0.786,3.049,0.786c0.785,0,2.033-0.3,2.033-1.457c0-2.334-5.383-0.739-5.383-5.04
	c0-2.566,2.241-3.698,4.668-3.698c1.455,0,2.401,0.23,3.372,0.438L449.443,29.353z"/>
<path fill="#231F20" d="M452.7,21.724h3.095v2.959H452.7V21.724z M452.7,26.855h3.095v11.906H452.7V26.855z"/>
<path fill="#231F20" d="M460.068,29.122h-2.287v-2.266h2.287v-2.382l3.098-0.994v3.375h2.748v2.266h-2.748v5.548
	c0,1.018,0.275,1.966,1.455,1.966c0.553,0,1.085-0.118,1.41-0.325l0.092,2.451c-0.648,0.185-1.364,0.278-2.288,0.278
	c-2.426,0-3.767-1.503-3.767-3.862V29.122z"/>
<path fill="#231F20" d="M472.982,35.548h0.047l2.865-8.692h3.141l-4.458,11.813c-0.995,2.635-1.71,5.224-4.944,5.224
	c-0.738,0-1.479-0.114-2.194-0.322l0.208-2.29c0.393,0.139,0.831,0.208,1.593,0.208c1.248,0,2.011-0.856,2.011-2.127l-4.551-12.507
	h3.419L472.982,35.548z"/>
<polygon fill="#231F20" points="487.584,22.625 490.816,22.625 490.816,29.144 497.285,29.144 497.285,22.625 500.52,22.625 
	500.52,38.761 497.285,38.761 497.285,31.688 490.816,31.688 490.816,38.761 487.584,38.761 "/>
<path fill="#231F20" d="M509.438,26.579c3.533,0,6.236,2.381,6.236,6.311c0,3.422-2.287,6.15-6.236,6.15
	c-3.928,0-6.215-2.728-6.215-6.15C503.223,28.959,505.926,26.579,509.438,26.579 M509.438,36.635c2.379,0,3.002-2.127,3.002-4.115
	c0-1.827-0.971-3.538-3.002-3.538c-2.01,0-2.98,1.757-2.98,3.538C506.457,34.484,507.08,36.635,509.438,36.635"/>
<path fill="#231F20" d="M525.168,29.353c-0.947-0.323-1.639-0.508-2.771-0.508c-0.832,0-1.824,0.3-1.824,1.317
	c0,1.896,5.383,0.694,5.383,4.994c0,2.774-2.473,3.884-4.99,3.884c-1.18,0-2.379-0.208-3.512-0.508l0.184-2.544
	c0.971,0.486,1.988,0.786,3.051,0.786c0.784,0,2.032-0.3,2.032-1.457c0-2.334-5.382-0.739-5.382-5.04
	c0-2.566,2.24-3.698,4.666-3.698c1.455,0,2.402,0.23,3.371,0.438L525.168,29.353z"/>
<path fill="#231F20" d="M528.355,26.855h2.959v1.688h0.045c0.693-1.155,1.871-1.964,3.697-1.964c3.648,0,4.99,2.913,4.99,6.195
	c0,3.26-1.342,6.265-5.061,6.265c-1.316,0-2.402-0.324-3.488-1.642h-0.047v6.22h-3.096V26.855z M531.477,32.774
	c0,1.688,0.668,3.861,2.725,3.861c2.033,0,2.611-2.219,2.611-3.861c0-1.595-0.555-3.792-2.566-3.792
	C532.26,28.982,531.477,31.11,531.477,32.774"/>
<path fill="#231F20" d="M542.539,21.724h3.098v2.959h-3.098V21.724z M542.539,26.855h3.098v11.906h-3.098V26.855z"/>
<path fill="#231F20" d="M549.908,29.122h-2.287v-2.266h2.287v-2.382l3.1-0.994v3.375h2.746v2.266h-2.746v5.548
	c0,1.018,0.273,1.966,1.453,1.966c0.555,0,1.086-0.118,1.41-0.325l0.092,2.451c-0.648,0.185-1.365,0.278-2.287,0.278
	c-2.426,0-3.768-1.503-3.768-3.862V29.122z"/>
<path fill="#231F20" d="M558.41,27.48c1.203-0.555,2.82-0.901,4.137-0.901c3.627,0,5.129,1.502,5.129,5.016v1.526
	c0,1.202,0.023,2.104,0.045,2.982c0.023,0.902,0.07,1.735,0.139,2.659h-2.727c-0.115-0.624-0.115-1.411-0.139-1.78h-0.047
	c-0.715,1.318-2.262,2.058-3.672,2.058c-2.102,0-4.158-1.272-4.158-3.538c0-1.78,0.854-2.819,2.033-3.398
	c1.178-0.577,2.703-0.693,3.996-0.693h1.711c0-1.919-0.855-2.566-2.682-2.566c-1.316,0-2.633,0.508-3.674,1.295L558.41,27.48z
	 M562.037,36.773c0.947,0,1.688-0.416,2.172-1.063c0.51-0.67,0.648-1.526,0.648-2.451h-1.342c-1.385,0-3.441,0.231-3.441,2.059
	C560.074,36.333,560.93,36.773,562.037,36.773"/>
<rect x="570.793" y="21.422" fill="#231F20" width="3.096" height="17.338"/>
<path fill="#231F20" d="M584.217,29.353c-0.949-0.323-1.641-0.508-2.773-0.508c-0.832,0-1.826,0.3-1.826,1.317
	c0,1.896,5.383,0.694,5.383,4.994c0,2.774-2.471,3.884-4.99,3.884c-1.176,0-2.379-0.208-3.512-0.508l0.188-2.544
	c0.969,0.486,1.986,0.786,3.047,0.786c0.787,0,2.033-0.3,2.033-1.457c0-2.334-5.381-0.739-5.381-5.04
	c0-2.566,2.24-3.698,4.666-3.698c1.455,0,2.402,0.23,3.373,0.438L584.217,29.353z"/>
<path fill="#005596" d="M61.213,31.447v5.288c0,1.149,0.131,1.216,1.8,1.303v0.757h-6.591v-0.757
	c1.67-0.087,1.798-0.154,1.798-1.303V25.853c0-1.149-0.128-1.212-1.798-1.3v-0.758h6.591v0.758c-1.669,0.087-1.8,0.151-1.8,1.3
	v4.642h6.375v-4.642c0-1.149-0.13-1.212-1.8-1.3v-0.758h6.589v0.758c-1.668,0.087-1.798,0.151-1.798,1.3v10.882
	c0,1.149,0.13,1.216,1.798,1.303v0.757h-6.589v-0.757c1.67-0.087,1.8-0.154,1.8-1.303v-5.288H61.213z"/>
<path fill="#005596" d="M82.276,35.936c-0.695,1.842-2.04,3.121-4.553,3.121c-3.792,0.022-5.225-2.406-5.225-5.55
	c0-1.517,0.391-2.927,1.255-3.947c0.869-1.018,2.169-1.647,3.949-1.647c4.419,0,4.726,3.231,4.726,4.446
	c0,0.714-0.392,0.888-1.063,0.888h-5.833c0,2.275,0.651,4.357,3.014,4.357c1.476,0,2.363-0.824,2.993-2.082L82.276,35.936z
	 M78.719,32.292c0.542,0,0.693-0.153,0.693-0.714c0-0.957-0.216-2.754-1.777-2.754c-1.713,0-2.081,2.145-2.081,3.468H78.719z"/>
<path fill="#005596" d="M94.282,38.405c-0.759,0.324-1.972,0.651-2.97,0.651c-0.954,0-1.3-0.564-1.604-1.279
	c-0.736,0.497-1.777,1.279-3.1,1.279c-2.124,0-3.249-1.477-3.249-3.122c0-1.214,0.54-2.126,2.271-2.688
	c1.434-0.458,3.019-0.91,4.035-1.496v-1.13c0-1.408-0.758-1.796-1.451-1.796c-0.717,0-1.476,0.388-2.041,2.145
	c-0.151,0.477-0.388,0.781-0.843,0.781c-0.477,0-1.648-0.37-1.648-1.237c0-1.345,1.93-2.603,4.833-2.603
	c3.622,0,3.905,1.736,3.905,3.079v4.988c0,1.322,0.389,1.625,0.715,1.71c0.325,0.089,0.76,0.11,1.06,0.067L94.282,38.405z
	 M89.665,32.727c-0.5,0.259-1.323,0.542-2.125,0.933c-0.869,0.412-1.259,0.889-1.259,1.928c0,1.217,0.716,1.975,1.736,1.975
	c0.671,0,1.626-0.368,1.647-1.736V32.727z"/>
<path fill="#005596" d="M99.143,36.91c0,0.975,0.151,1.061,1.496,1.127v0.758h-5.83v-0.758c1.341-0.066,1.493-0.153,1.493-1.127
	V25.161c0-0.847-0.151-0.997-0.583-1.063l-0.783-0.129v-0.694l4.057-0.564l0.15,0.131V36.91z"/>
<path fill="#005596" d="M107.239,29.17h-2.428v6.374c0,1.476,0.606,2.061,1.388,2.061c0.498,0,0.953-0.088,1.345-0.239l0.216,0.584
	c-0.997,0.63-2.234,1.107-3.208,1.107c-1.041,0-2.583-0.63-2.583-2.689V29.17h-1.364v-0.998h1.453l1.714-2.729h1.04v2.729h2.428
	V29.17z"/>
<path fill="#005596" d="M108.218,38.037c1.321-0.065,1.474-0.153,1.474-1.127V25.161c0-0.825-0.153-1-0.586-1.064l-0.78-0.129
	v-0.694l4.055-0.564l0.153,0.131v6.632c1.28-0.89,2.34-1.561,3.729-1.561c2.188,0,3.272,1.28,3.294,3.382v5.616
	c0,0.974,0.148,1.062,1.474,1.127v0.757h-5.637v-0.757l0.541-0.045c0.608-0.042,0.783-0.214,0.783-0.996v-5.354
	c-0.024-1.52-0.676-2.235-1.911-2.235c-0.972,0-1.689,0.565-2.035,1.192c-0.197,0.37-0.238,0.781-0.238,1.301v5.095
	c0,0.781,0.193,0.953,0.777,0.996l0.545,0.045v0.757h-5.638V38.037z"/>
<path fill="#FFFFFF" d="M24.964,78.332c8.073-2.29,17.354-5.153,29.282-2.106V12.443H0v68.791
	C10.6,82.586,18.053,80.292,24.964,78.332"/>
<path fill="#005596" d="M29.28,53.565c-8.21-2.335-16.676-4.738-27.039-2.609V14.746h49.756v41.983
	C43.585,57.627,36.321,55.567,29.28,53.565"/>
<path fill="#6CADDE" d="M29.28,68.538c-4.644-1.323-9.371-2.664-14.476-3.197c3.508-0.663,6.868-1.619,10.179-2.559
	c8.584-2.439,16.728-4.75,27.014-2.451v11.37C43.585,72.6,36.321,70.536,29.28,68.538"/>
<path fill="#FFC425" d="M28.902,55.295c3.311,0.944,6.669,1.898,10.179,2.562c-5.105,0.532-9.83,1.872-14.477,3.192
	c-6.943,1.975-14.101,4.009-22.362,3.201V52.77C12.36,50.596,20.416,52.884,28.902,55.295"/>
<path fill="#439539" d="M28.902,70.267c3.334,0.948,6.72,1.909,10.257,2.575c-5.134,0.525-9.884,1.873-14.555,3.201
	c-6.943,1.974-14.101,4.006-22.362,3.202V67.738C12.36,65.568,20.416,67.856,28.902,70.267"/>
<path fill="#FFFFFF" d="M4.146,37.994c1.671-0.088,1.8-0.15,1.8-1.3V25.808c0-1.148-0.129-1.214-1.8-1.302v-0.758h6.722v0.758
	c-1.799,0.088-1.93,0.154-1.93,1.302v10.321c0,0.954,0.175,1.409,0.631,1.56c0.475,0.131,1.104,0.154,1.907,0.154
	c2.427,0,3.035-0.87,3.686-3.277h0.78l-0.26,4.187H4.146V37.994z"/>
<path fill="#FFFFFF" d="M27.741,38.362c-0.76,0.325-1.974,0.652-2.972,0.652c-0.953,0-1.3-0.565-1.604-1.28
	c-0.737,0.498-1.775,1.28-3.1,1.28c-2.126,0-3.251-1.476-3.251-3.124c0-1.213,0.541-2.124,2.274-2.688
	c1.431-0.455,3.014-0.911,4.034-1.497v-1.128c0-1.407-0.759-1.797-1.453-1.797c-0.716,0-1.475,0.39-2.037,2.146
	c-0.153,0.478-0.391,0.78-0.849,0.78c-0.475,0-1.646-0.369-1.646-1.234c0-1.347,1.93-2.603,4.835-2.603
	c3.623,0,3.904,1.734,3.904,3.079v4.989c0,1.32,0.391,1.625,0.716,1.711c0.325,0.087,0.759,0.11,1.061,0.065L27.741,38.362z
	 M23.122,32.683c-0.499,0.257-1.324,0.54-2.125,0.93c-0.868,0.414-1.259,0.89-1.259,1.931c0,1.213,0.716,1.972,1.735,1.972
	c0.671,0,1.626-0.369,1.648-1.736V32.683z"/>
<path fill="#FFFFFF" d="M29.75,25.113c0-0.845-0.152-0.997-0.585-1.062l-0.783-0.129v-0.694l4.056-0.565l0.153,0.131v10.191h0.043
	c0.975-1.454,2.059-2.993,3.1-4.229c0.39-0.499,0.759-0.629,1.279-0.629h2.842v0.651c-0.849,0.151-1.627,0.433-2.257,0.866
	c-0.714,0.5-1.951,1.671-2.625,2.388c1.063,1.626,2.471,3.402,3.902,4.963c0.608,0.673,1.087,0.956,1.519,1.129v0.627h-1.842
	c-1.281,0-2.083-0.281-2.885-1.191c-0.78-0.89-2.167-2.775-3.034-4.316h-0.043v3.622c0,0.977,0.15,1.062,1.496,1.127v0.758h-5.833
	v-0.758c1.344-0.066,1.496-0.151,1.496-1.127V25.113z"/>
<path fill="#FFFFFF" d="M50.015,35.891c-0.694,1.843-2.04,3.122-4.555,3.122c-3.795,0.022-5.226-2.406-5.226-5.55
	c0-1.52,0.391-2.927,1.257-3.947c0.87-1.019,2.17-1.648,3.948-1.648c4.423,0,4.727,3.231,4.727,4.444
	c0,0.716-0.391,0.888-1.063,0.888h-5.833c0,2.279,0.651,4.36,3.014,4.36c1.475,0,2.363-0.826,2.99-2.082L50.015,35.891z
	 M46.458,32.247c0.543,0,0.694-0.151,0.694-0.715c0-0.954-0.216-2.753-1.777-2.753c-1.713,0-2.083,2.146-2.083,3.469H46.458z"/>
<rect x="147.392" y="26.398" fill="#4B4A4A" width="1.511" height="12.991"/>
<path fill="#4B4A4A" d="M159.797,35.933c0,1.143-0.415,2.035-1.243,2.675c-0.83,0.639-1.956,0.959-3.376,0.959
	c-1.541,0-2.727-0.2-3.555-0.596v-1.457c0.533,0.225,1.114,0.403,1.742,0.533c0.627,0.131,1.25,0.196,1.865,0.196
	c1.008,0,1.766-0.19,2.274-0.572c0.509-0.383,0.764-0.916,0.764-1.596c0-0.451-0.09-0.819-0.271-1.106
	c-0.18-0.287-0.482-0.553-0.906-0.796c-0.424-0.242-1.067-0.518-1.933-0.826c-1.208-0.432-2.071-0.945-2.59-1.537
	s-0.777-1.365-0.777-2.319c0-1.001,0.376-1.798,1.127-2.39c0.753-0.593,1.749-0.889,2.986-0.889c1.292,0,2.479,0.237,3.563,0.711
	l-0.471,1.316c-1.073-0.452-2.115-0.675-3.127-0.675c-0.8,0-1.425,0.171-1.875,0.514c-0.452,0.343-0.676,0.821-0.676,1.432
	c0,0.45,0.083,0.819,0.249,1.106c0.166,0.287,0.446,0.551,0.839,0.791c0.395,0.24,0.997,0.504,1.809,0.796
	c1.363,0.485,2.3,1.007,2.812,1.563C159.541,34.322,159.797,35.044,159.797,35.933"/>
<path fill="#4B4A4A" d="M177.329,39.389h-1.724l-7.101-10.903h-0.07c0.095,1.279,0.142,2.453,0.142,3.519v7.384h-1.395V26.398h1.706
	l7.082,10.86h0.072c-0.012-0.162-0.039-0.673-0.081-1.542c-0.041-0.868-0.056-1.489-0.043-1.863v-7.455h1.412V39.389z"/>
<path fill="#4B4A4A" d="M192.177,32.876c0,2.08-0.526,3.714-1.578,4.905c-1.052,1.19-2.514,1.786-4.385,1.786
	c-1.914,0-3.39-0.584-4.43-1.755c-1.039-1.169-1.559-2.821-1.559-4.955c0-2.114,0.522-3.753,1.564-4.917
	c1.042-1.164,2.524-1.747,4.442-1.747c1.867,0,3.323,0.593,4.373,1.776C191.653,29.156,192.177,30.791,192.177,32.876
	 M181.825,32.876c0,1.759,0.375,3.095,1.125,4.003c0.749,0.909,1.838,1.364,3.265,1.364c1.44,0,2.527-0.455,3.261-1.36
	c0.735-0.907,1.103-2.242,1.103-4.007c0-1.748-0.367-3.072-1.097-3.977c-0.732-0.903-1.815-1.354-3.249-1.354
	c-1.438,0-2.533,0.455-3.282,1.364C182.2,29.819,181.825,31.141,181.825,32.876"/>
<path fill="#4B4A4A" d="M206.412,39.389h-1.494l-2.62-8.698c-0.125-0.385-0.264-0.871-0.417-1.458
	c-0.155-0.587-0.235-0.939-0.241-1.058c-0.13,0.783-0.337,1.639-0.622,2.568l-2.542,8.646h-1.492l-3.457-12.991h1.6l2.053,8.024
	c0.284,1.125,0.491,2.145,0.621,3.057c0.162-1.084,0.397-2.144,0.712-3.181l2.328-7.9h1.599l2.444,7.971
	c0.286,0.918,0.525,1.956,0.72,3.11c0.113-0.841,0.325-1.865,0.64-3.074l2.044-8.007h1.6L206.412,39.389z"/>
<path fill="#4B4A4A" d="M224.885,30.184c0,1.315-0.449,2.328-1.346,3.035c-0.897,0.709-2.182,1.062-3.852,1.062h-1.528v5.109h-1.51
	V26.398h3.368C223.262,26.398,224.885,27.66,224.885,30.184 M218.159,32.983h1.36c1.339,0,2.307-0.216,2.906-0.649
	c0.598-0.431,0.896-1.125,0.896-2.079c0-0.859-0.28-1.5-0.844-1.92c-0.562-0.42-1.439-0.631-2.63-0.631h-1.688V32.983z"/>
<path fill="#4B4A4A" d="M235.77,39.39l-1.617-4.131h-5.208l-1.6,4.131h-1.527l5.135-13.044h1.271l5.108,13.044H235.77z
	 M233.683,33.898l-1.511-4.024c-0.195-0.51-0.397-1.136-0.604-1.875c-0.13,0.569-0.317,1.194-0.561,1.875l-1.528,4.024H233.683z"/>
<path fill="#4B4A4A" d="M240.631,33.987v5.402h-1.51V26.398h3.563c1.593,0,2.771,0.306,3.532,0.917
	c0.761,0.61,1.141,1.527,1.141,2.754c0,1.718-0.871,2.879-2.612,3.484l3.529,5.837h-1.787l-3.145-5.402H240.631z M240.631,32.69
	h2.071c1.066,0,1.848-0.211,2.346-0.635c0.497-0.424,0.746-1.06,0.746-1.907c0-0.858-0.253-1.478-0.759-1.857
	c-0.506-0.379-1.319-0.568-2.439-0.568h-1.963V32.69z"/>
<polygon fill="#4B4A4A" points="254.368,39.389 252.858,39.389 252.858,27.741 248.744,27.741 248.744,26.398 258.482,26.398 
	258.482,27.741 254.368,27.741 "/>
<path fill="#4B4A4A" d="M276.44,32.876c0,2.08-0.526,3.714-1.577,4.905c-1.052,1.19-2.514,1.786-4.385,1.786
	c-1.914,0-3.39-0.584-4.43-1.755c-1.038-1.169-1.559-2.821-1.559-4.955c0-2.114,0.522-3.753,1.564-4.917
	c1.043-1.164,2.523-1.747,4.442-1.747c1.867,0,3.323,0.593,4.373,1.776C275.917,29.156,276.44,30.791,276.44,32.876 M266.088,32.876
	c0,1.759,0.374,3.095,1.125,4.003c0.749,0.909,1.838,1.364,3.266,1.364c1.44,0,2.526-0.455,3.26-1.36
	c0.735-0.907,1.102-2.242,1.102-4.007c0-1.748-0.366-3.072-1.098-3.977c-0.73-0.903-1.813-1.354-3.247-1.354
	c-1.438,0-2.534,0.455-3.283,1.364C266.462,29.819,266.088,31.141,266.088,32.876"/>
<polygon fill="#4B4A4A" points="280.848,39.389 279.338,39.389 279.338,26.398 286.579,26.398 286.579,27.741 280.848,27.741 
	280.848,32.495 286.233,32.495 286.233,33.836 280.848,33.836 "/>
<line fill="#FFFFFF" x1="145.607" y1="22.542" x2="286.233" y2="22.542"/>
<line fill="none" stroke="#4B4A4A" x1="145.607" y1="22.542" x2="286.233" y2="22.542"/>
<line fill="#FFFFFF" x1="145.607" y1="43.48" x2="286.233" y2="43.48"/>
<line fill="none" stroke="#4B4A4A" x1="145.607" y1="43.48" x2="286.233" y2="43.48"/>
</svg>
