<?xml version="1.0" encoding="utf-8"?>
<!-- Generator: Adobe Illustrator 22.0.1, SVG Export Plug-In . SVG Version: 6.00 Build 0)  -->
<svg version="1.1" xmlns="http://www.w3.org/2000/svg" xmlns:xlink="http://www.w3.org/1999/xlink" x="0px" y="0px"
	 viewBox="0 0 770.8 250.8" style="enable-background:new 0 0 770.8 250.8;" xml:space="preserve">
<style type="text/css">
	.st0{fill:#FFFFFF;}
	.st1{fill:#004B8D;}
	.st2{fill:#B30838;}
	.st3{fill:#004B8A;}
	.st4{fill:none;stroke:#004B8D;stroke-miterlimit:10;}
</style>
<g id="Layer_1">
	<g>
		<g>
			<g>
				<g>
					<path class="st0" d="M53.4,111.2l-1.3-0.6C42,105.9,33.6,99,28,90.5c-5-7.4-7.7-15.7-7.7-23.4V34.8h66.2v32.3
						c0,7.7-2.7,16-7.7,23.4c-5.7,8.5-14,15.4-24.1,20L53.4,111.2z"/>
				</g>
				<path class="st1" d="M53.4,109.3l-0.5-0.2c-9.8-4.5-18-11.2-23.4-19.4C24.6,82.5,22,74.5,22,67.2V36.6h62.7v30.6
					c0,7.4-2.6,15.3-7.4,22.4c-5.5,8.2-13.6,14.9-23.4,19.4L53.4,109.3z"/>
				<path id="Bar_11_" class="st2" d="M83.5,37.7H23.3v19.5h60.1V37.7z"/>
				<path class="st1" d="M37.9,51.9v1.7H24.5V52c-0.4-0.5-0.6-1-0.6-1.4c0-0.8,0.6-1.4,0.6-1.4v-3.7c-0.3-0.5-0.4-1-0.4-1.4
					c0-1.3,1.2-1.9,1.2-1.9h0.9c0.9-0.9,2-1.1,2.9-1.1c1.2,0,2.1,0.4,2.1,0.4c0.8-0.3,1.6-0.5,2.2-0.5c1.9,0,2.8,1.1,2.8,1.1h0.8
					c2.2,1.3,0.8,3.3,0.8,3.3v3.7C39.2,50.8,37.9,51.9,37.9,51.9z M66.3,46.6C66,46.3,66,46,66,45.6c0-1.2,1.2-2.5,1.4-2.8
					c0,0,0,0,0,0c0-0.2-0.8-0.6-1.7-0.6c-1.2,0-2.7,0.7-2.6,3.9c0,0-2.6,0.3-2.6,2.8c0,0.6,0.1,1.2,0.4,2c0,0.1,0.1,0.1,0.1,0.1
					c0.3,0,1.1-1.1,1.7-1.5c0.4-0.2,0.7-0.4,1.1-0.4c0.5,0,0.9,0.4,0.9,0.8c0,0.8-1,2.3-2.7,2.3c-0.8,0-1.6-0.4-2.3-1.4
					c0,0,0.4-0.6,0.4-1.4c0-0.5-0.2-1.1-0.8-1.6c0,0,0.1-0.3,0.1-0.7c0-0.5-0.2-1.1-1-1.2c0,0,0.1-2-1.6-2c0,0-0.2-1-1.2-1
					c-0.1,0-0.3,0-0.5,0c0,0-0.2-1.2-1.4-1.2c-0.2,0-0.4,0-0.7,0.1c0,0-0.4-1-1.5-1c-0.4,0-0.8,0.1-1.3,0.5c0,0-0.8-1.6-2.5-0.3
					c0,0-0.5-0.5-1.3-0.5c-0.6,0-1.4,0.3-2.3,1.2c0,0-0.1-0.4-0.3-0.4c-0.1,0-0.1,0-0.2,0.2c-0.2,0.5-0.1,0.7-0.3,1.2
					c-0.1,0.2-3.3,4-3.3,6.9c0,0.6,0.1,1.2,0.5,1.7c0.1,0.1,0.1,0.2,0.1,0.3c0,0.1-0.1,0.1-0.2,0.2c-0.2,0.1-0.8,0.6-0.8,1.1
					c0,0.1,0,0.1,0,0.2c0.4,1.2,1,0.8,1.9,1.5c0.3,0.2,0.7,0.4,1.3,0.4c1.3,0,3.2-0.6,5.2-2.9c0.8-0.9,1.7-1.3,2.5-1.3
					c3,0,6.2,4.4,11,4.2c4.1-0.1,5.9-3.3,5.9-5.3C67.4,49.2,67.5,48.3,66.3,46.6z M82.3,49.2v-3.7c0,0,0.4-0.7,0.4-1.5
					c0-0.6-0.3-1.3-1.2-1.9h-0.8c0,0-0.9-1.1-2.8-1.1c-0.6,0-1.4,0.1-2.2,0.5c0,0-0.9-0.4-2.1-0.4c-0.9,0-2,0.2-2.9,1.1h-0.9
					c0,0-1.2,0.6-1.2,1.9c0,0.4,0.1,0.9,0.4,1.4v3.7c0,0-0.6,0.6-0.6,1.4c0,0.4,0.1,0.9,0.6,1.4v1.6h13.3v-1.7c0,0,0.6-0.5,0.6-1.3
					C82.9,50.2,82.7,49.7,82.3,49.2z"/>
				<path class="st0" d="M47.1,50.6l0.9,0.6c-1.1,1.8-3.6,3-4.9,3c-0.6,0-1.4-0.1-1.4-0.3c0,0,0-0.1,0.1-0.1
					c2.3-0.9,3.3-1.6,3.6-2.1c0.2-0.2,0.4-0.5,0.4-0.7c0-0.2-0.1-0.3-0.3-0.3c-0.2,0-0.3,0.1-0.5,0.3c-0.7,1.1-2.7,1.9-3.1,2
					c-0.2,0.1-0.5,0.1-0.8,0.1c-0.4,0-0.7-0.1-0.9-0.4c0-0.1,0-0.1,0-0.2c0-0.5,1.1-0.5,1.1-1.2c0-0.8-0.7-1-0.7-2.3
					c0-2.4,2.8-5.8,3.2-6.2c1,0.7,1.3,1.6,1.3,2.4c0,1.3-0.8,2.5-0.8,2.5l0.2,0.1c0.6-0.6,1.6-1.5,2.3-1.5c0.7,0,0.9,0.6,0.9,0.8
					c0,0.2-0.1,0.4-0.1,0.4s0.1,0,0.3,0c0.5,0,0.8,0.4,0.8,0.9C48.7,49.7,47.1,50.6,47.1,50.6z M43.3,49.6c-0.3,0.1-0.4,0.3-0.4,0.6
					c0,0.3,0.2,0.6,0.2,0.7c0,0,0,0,0.1,0c0.3,0,1.1-0.8,1.3-1c0,0,0,0,0,0C44.5,49.7,43.3,49.6,43.3,49.6z M65.3,45.7
					C65.3,45.7,65.3,45.8,65.3,45.7c0,1.3,1.5,1.8,1.5,3.8c0,2-1.9,4.7-5.2,4.7c-6,0-6.9-4.2-10.8-4.2c-1.5,0-2.5,0.7-2.5,0.7
					l-0.4-0.3c0.8-0.7,1.1-1.3,1.1-1.8c0-1.1-1.1-2-1.1-2c0.3-0.3,0.6-0.4,0.9-0.4c0.6,0,0.7,0.9,1.4,0.9c0.4,0,0.7-0.3,1-0.3
					c0.3,0,0.5,0.3,0.8,0.8c0.5,0.8,1.8,0,2,1c0.2,0.9,0.3,0.7,0.8,0.7c0.5,0.1,0.6,1,0.6,1l0.6-0.2c0-0.3-0.1-0.6-0.4-1.1
					c-0.3-0.4-1,0.1-1.1-0.9c-0.1-0.7-0.6-0.8-0.9-0.8c-0.2,0-0.4,0-0.5,0c-0.3,0-0.4-0.4-0.5-0.7c-0.1-0.4-0.4-0.7-0.8-0.7
					c-0.4,0-0.8,0.4-1.3,0.4c-0.6,0-0.6-1.1-1.7-1.1c-0.8,0-1.5,0.9-1.5,0.9c-0.2,0-0.4-0.1-0.5-0.1c-0.5,0-0.9,0.1-0.9,0.1
					c0.1-0.3,0.1-0.6,0.1-0.9c0-0.9-0.2-1.4-0.3-1.6c0.4-0.1,1.6-0.4,3.2-0.4c1.3,0,3,0.2,4.7,0.9c4.3,1.7,5.2,8.5,8.3,8.5
					c3.1,0,3.5-2.3,3.5-2.9s-0.3-1.5-1.6-1.5c-1.4,0-2.3,1.7-2.5,1.7c0,0,0,0,0,0c-0.1-0.4-0.1-0.7-0.1-1c0-2.7,2.8-2.4,2.8-2.4
					c0-0.3,0-0.6,0-0.8c0-2.5,1.2-3,2-3c0.4,0,0.7,0.2,0.7,0.3c0,0,0,0,0,0.1C66.1,43.4,65.3,44.4,65.3,45.7z M75.3,50.4v-8.3
					c0,0-0.8-0.3-1.8-0.3c-0.8,0-1.7,0.2-2.4,0.9v7.8c0,0,1.1-0.3,2.5-0.3C74.2,50.2,74.7,50.3,75.3,50.4z M37.2,45.3
					c0,0,1.2-1.4-0.3-2.5h-0.5v8.6h-4.1l-1.1,0.4l-1-0.4H26v-8.6h-0.5c0,0-0.7,0.5-0.7,1.3c0,0.3,0.1,0.7,0.5,1.2v4.2
					c0,0-0.6,0.5-0.6,1.1c0,0.3,0.1,0.7,0.6,1.1v1.3h12v-1.3c0,0,1.3-0.9,0-2.2V45.3z M45.2,43.2c0.4-0.1,1.8-0.5,3.8-0.5
					c3.2,0,7.6,1.1,9.6,6.5c0.1,0.3,0.2,0.4,0.3,0.4c0.1,0,0.2-0.3,0.2-0.6c0-0.4-0.1-0.8-0.7-1c0,0,0.1-0.2,0.1-0.5
					c0-0.5-0.2-1.1-1.1-1.3c0,0,0-0.1,0-0.3c0-0.5-0.2-1.5-1.3-1.5c-0.1,0-0.2,0-0.3,0c0,0,0.1-0.9-0.9-0.9c-0.1,0-0.3,0-0.5,0.1
					c0,0-0.1-1.2-1.2-1.2c-0.3,0-0.6,0.1-1.1,0.3c0,0-0.3-0.9-1.1-0.9c-0.3,0-0.7,0.1-1.2,0.4c0,0-0.5-0.8-1.2-0.8
					c-0.4,0-0.8,0.2-1.3,0.8c0,0-0.4-0.8-1.3-0.8c-0.4,0-0.9,0.2-1.5,0.8C44.4,42.3,45,42.8,45.2,43.2z M35.7,50.5v-7.8
					c-0.7-0.7-1.6-0.9-2.4-0.9c-1,0-1.8,0.3-1.8,0.3v8.3c0.5-0.1,1.1-0.2,1.6-0.2C34.5,50.2,35.7,50.5,35.7,50.5z M30.9,50.4v-8.3
					c0,0-0.8-0.3-1.8-0.3c-0.8,0-1.7,0.2-2.4,0.9v7.8c0,0,1.2-0.3,2.7-0.3C29.8,50.2,30.4,50.3,30.9,50.4z M81.6,45.3
					c0,0,0.5-0.6,0.5-1.2c0-0.4-0.2-0.8-0.8-1.2h-0.5v8.6h-4.1l-1.1,0.4l-1-0.4h-4.3v-8.6h-0.5c0,0-0.7,0.4-0.7,1.3
					c0,0.3,0.1,0.7,0.5,1.2v4.2c0,0-0.6,0.5-0.6,1.1c0,0.3,0.1,0.7,0.6,1.1v1.3h12v-1.3c0,0,0.6-0.4,0.6-1.1c0-0.3-0.2-0.7-0.6-1.1
					V45.3z M80.1,50.5v-7.8c-0.7-0.7-1.6-0.9-2.4-0.9c-1,0-1.8,0.3-1.8,0.3v8.3c0.6-0.1,1.2-0.2,1.7-0.2
					C79,50.2,80.1,50.5,80.1,50.5z M53.4,76.4c-2.5,0-4.5-2-4.5-4.5s2-4.5,4.5-4.5c2.5,0,4.4,2,4.4,4.5S55.9,76.4,53.4,76.4z
					 M67.9,80c-2.5,0-4.5,2-4.5,4.5s2,4.4,4.5,4.4c2.5,0,4.5-2,4.5-4.4S70.4,80,67.9,80z M34.4,84.4c0,2.5,2,4.4,4.5,4.4
					c2.5,0,4.5-2,4.5-4.4s-2-4.5-4.5-4.5C36.4,80,34.4,82,34.4,84.4z M69.5,96.9L53.4,81.5L37.3,96.9c6.2,6,12.9,9.4,16.1,10.9
					C56.6,106.3,63.3,103,69.5,96.9z M79.3,83.6c2.4-4.5,4.2-10.9,4.2-16.4c0-3,0-9,0-9H23.3c0,0,0,6,0,9c0,5.6,1.8,11.9,4.2,16.4
					l25.9-24.4L79.3,83.6z"/>
			</g>
		</g>
	</g>
	<path class="st1" d="M337.8,56.8h-1c-0.9-3.9-3.6-6.4-7.2-6.4c-4.2,0-7.2,3.6-7.2,8.9c0,5.9,3.7,10.8,8.1,10.8c2.6,0,5.8-1.4,8-4.5
		v1.6c-2.3,3.2-5.6,4.7-9.5,4.7c-6.4,0-10.8-4.4-10.8-10.8c0-6.6,5-11.9,11.1-11.9c3.2,0,5,1.2,6.1,1.2c0.5,0,1.1-0.4,1.5-1.2h1
		V56.8z M111.3,64.8c0,4.3,1,5.5,3.9,5.5v1h-12.5v-1c2.4,0,3.9-0.8,3.9-5.4V43.1c0-4.2-1-5.5-3.9-5.5v-1h12.7
		c9.6,0,13.5,5.1,13.5,9.9c0,5.8-4.4,9-12.2,9c-1.5,0-2.8-0.1-5.3-0.4V64.8z M111.3,53.5c1.6,0.5,2.5,0.6,4.3,0.6
		c5.2,0,8.4-2.8,8.4-7.5c0-3.7-2.1-8.7-8.4-8.7h-4.3V53.5z M132.4,58.2c-0.1,9.6,5.6,12.1,8.5,12.1c3,0,4.5-1,7.6-4.5v1.6
		c-2.6,3.3-5.1,4.6-8.8,4.6c-6.7,0-11.6-4.7-11.6-11.1c0-6.5,4.7-11.6,10.8-11.6c5,0,9.6,4,9.3,9H132.4z M144.1,57.2
		c0.2-4.7-3-6.7-5.8-6.7c-3.6,0-5.7,2.7-5.9,6.7H144.1z M172.5,66.6c0,2.8,0.6,3.6,3.6,3.6v1h-11.5v-1c2.9,0,3.7-0.7,3.7-2.7V56.4
		c0-3.5-2.5-4.9-4.8-4.9c-2.1,0-4,1.3-6.1,4.2v10.5c0,3.3,0.4,4.1,3.6,4.1v1h-11.3v-1c2.8,0,3.6-0.2,3.6-4.1V54.1
		c0-2.6-0.7-3.2-3.6-3.2v-1l6.7-0.7h1v4.3c2.5-2.9,5-4.3,7.8-4.3c3.6,0,7.3,2.5,7.3,7.7V66.6z M199.7,66.6c0,2.8,0.6,3.6,3.6,3.6v1
		h-11.5v-1c2.9,0,3.7-0.7,3.7-2.7V56.4c0-3.5-2.5-4.9-4.8-4.9c-2.1,0-4,1.3-6.1,4.2v10.5c0,3.3,0.4,4.1,3.6,4.1v1H177v-1
		c2.8,0,3.6-0.2,3.6-4.1V54.1c0-2.6-0.7-3.2-3.6-3.2v-1l6.7-0.7h1v4.3c2.5-2.9,5-4.3,7.8-4.3c3.6,0,7.3,2.5,7.3,7.7V66.6z M251,37.6
		c-3,0.1-4.1,2.1-3.9,5.4l1.8,21.4c0.4,4.2,1.1,5.6,4.3,5.9v1h-12.5v-1c2.8-0.5,3.8-1.8,3.6-5.2l-1.7-22.4h-0.1l-11.9,28.7h-0.9
		L218,42.6h-0.1L216,64c-0.3,3.5,1,5.6,4.5,6.2v1h-10.8v-1c3.5-0.5,4.1-2.5,4.4-6.4l2.1-23.9c-1.3-1.5-2.5-2.1-4.5-2.4v-1h8.8
		l11.1,27.3l11.3-27.3h8.2V37.6z M258.7,58.2c-0.1,9.6,5.6,12.1,8.5,12.1c3,0,4.5-1,7.6-4.5v1.6c-2.6,3.3-5.1,4.6-8.8,4.6
		c-6.7,0-11.6-4.7-11.6-11.1c0-6.5,4.7-11.6,10.8-11.6c5,0,9.6,4,9.3,9H258.7z M270.4,57.2c0.2-4.7-3-6.7-5.8-6.7
		c-3.6,0-5.7,2.7-5.9,6.7H270.4z M299.3,67.1c0,2.4,0.8,3.2,3.6,3.2v1h-12.5c-9.1,0-12.5-6.1-12.5-11.1c0-6.1,4.5-10.9,10.1-10.9
		c2.3,0,4.5,0.8,7.2,2.6V38.7c0-3.1-0.7-3.7-2.8-3.7h-1.2v-1l7.1-0.7h1V67.1z M295.2,54.2c-1.7-2.3-4.1-3.6-6.2-3.6
		c-3.9,0-6.5,3.5-6.5,8.7c0,5.2,2.4,11.1,9.4,11.1c2.4,0,3.4-1,3.4-3.3V54.2z M313,67.3c0,2.1,0.5,3,3.6,3v1h-11.8v-1
		c3.3,0,4.1-0.4,4.1-3V54.2c0-3-0.9-3.2-4.1-3.2v-1l7.2-0.7h1V67.3z M313.6,40.8c0,1.5-1.2,2.7-2.6,2.7c-1.5,0-2.7-1.2-2.7-2.7
		c0-1.5,1.2-2.6,2.7-2.6C312.5,38.2,313.6,39.3,313.6,40.8z M348.1,67.3c0,2.1,0.5,3,3.6,3v1h-11.8v-1c3.3,0,4.1-0.4,4.1-3V54.2
		c0-3-0.9-3.2-4.1-3.2v-1l7.1-0.7h1V67.3z M348.7,40.8c0,1.5-1.2,2.7-2.6,2.7c-1.5,0-2.7-1.2-2.7-2.7c0-1.5,1.2-2.6,2.7-2.6
		C347.6,38.2,348.7,39.3,348.7,40.8z M375.7,66.6c0,2.8,0.6,3.6,3.6,3.6v1h-11.5v-1c2.9,0,3.7-0.7,3.7-2.7V56.4
		c0-3.5-2.5-4.9-4.8-4.9c-2.1,0-4,1.3-6.1,4.2v10.5c0,3.3,0.4,4.1,3.6,4.1v1H353v-1c2.8,0,3.6-0.2,3.6-4.1V54.1
		c0-2.6-0.7-3.2-3.6-3.2v-1l6.7-0.7h1v4.3c2.5-2.9,5-4.3,7.8-4.3c3.6,0,7.3,2.5,7.3,7.7V66.6z M384.9,58.2
		c-0.1,9.6,5.6,12.1,8.5,12.1c3,0,4.5-1,7.6-4.5v1.6c-2.6,3.3-5.1,4.6-8.8,4.6c-6.7,0-11.6-4.7-11.6-11.1c0-6.5,4.7-11.6,10.8-11.6
		c5,0,9.6,4,9.3,9H384.9z M396.6,57.2c0.2-4.7-3-6.7-5.8-6.7c-3.6,0-5.7,2.7-5.9,6.7H396.6z"/>
	<g>
		<path class="st1" d="M104.4,81.8h5.4v25h12.1v4.5h-17.5V81.8z"/>
		<path class="st1" d="M136.9,111.3l-0.4-2.4h-0.1c-1.3,1.7-3.5,2.8-6.3,2.8c-4.3,0-6.7-3.1-6.7-6.3c0-5.4,4.8-8.1,12.6-8V97
			c0-1.4-0.6-3.7-4.3-3.7c-2.1,0-4.3,0.7-5.7,1.6l-1-3.5c1.6-1,4.3-1.9,7.7-1.9c6.8,0,8.8,4.3,8.8,9v7.7c0,1.9,0.1,3.8,0.3,5.1
			H136.9z M136.2,100.8c-3.8-0.1-7.4,0.7-7.4,4c0,2.1,1.4,3.1,3.1,3.1c2.1,0,3.7-1.4,4.2-2.9c0.1-0.4,0.2-0.8,0.2-1.2V100.8z"/>
		<path class="st1" d="M146.3,96.3c0-2.4,0-4.5-0.2-6.3h4.7l0.3,3.2h0.1c0.9-1.7,3.2-3.7,6.8-3.7c3.7,0,7.6,2.4,7.6,9.1v12.6h-5.4
			v-12c0-3.1-1.1-5.4-4.1-5.4c-2.1,0-3.6,1.5-4.2,3.1c-0.2,0.5-0.2,1.1-0.2,1.8v12.5h-5.4V96.3z"/>
		<path class="st1" d="M186.1,110.6c-1.1,0.5-3.4,1.1-6,1.1c-6.6,0-11-4.2-11-10.8c0-6.4,4.4-11.4,11.9-11.4c2,0,4,0.4,5.2,1l-1,4
			c-0.9-0.4-2.1-0.8-4.1-0.8c-4.1,0-6.6,3-6.5,6.9c0,4.4,2.8,6.9,6.5,6.9c1.9,0,3.2-0.4,4.2-0.8L186.1,110.6z"/>
		<path class="st1" d="M201.1,111.3l-0.4-2.4h-0.1c-1.3,1.7-3.5,2.8-6.3,2.8c-4.3,0-6.7-3.1-6.7-6.3c0-5.4,4.8-8.1,12.6-8V97
			c0-1.4-0.6-3.7-4.3-3.7c-2.1,0-4.3,0.7-5.7,1.6l-1-3.5c1.6-1,4.3-1.9,7.7-1.9c6.8,0,8.8,4.3,8.8,9v7.7c0,1.9,0.1,3.8,0.3,5.1
			H201.1z M200.4,100.8c-3.8-0.1-7.4,0.7-7.4,4c0,2.1,1.4,3.1,3.1,3.1c2.1,0,3.7-1.4,4.2-2.9c0.1-0.4,0.2-0.8,0.2-1.2V100.8z"/>
		<path class="st1" d="M210.2,106.3c1.2,0.7,3.5,1.5,5.5,1.5c2.4,0,3.4-1,3.4-2.4c0-1.4-0.9-2.2-3.5-3.1c-4.2-1.4-5.9-3.7-5.9-6.2
			c0-3.8,3.1-6.7,8-6.7c2.4,0,4.4,0.6,5.6,1.3l-1,3.8c-0.9-0.5-2.6-1.2-4.5-1.2c-1.9,0-3,0.9-3,2.2c0,1.4,1,2,3.7,3
			c3.8,1.4,5.6,3.4,5.7,6.5c0,3.8-3,6.6-8.7,6.6c-2.6,0-4.9-0.6-6.5-1.5L210.2,106.3z"/>
		<path class="st1" d="M234,83.9v6.1h5.1v4H234v9.4c0,2.6,0.7,3.9,2.8,3.9c0.9,0,1.6-0.1,2.1-0.3l0.1,4.1c-0.8,0.3-2.2,0.5-3.9,0.5
			c-2,0-3.6-0.7-4.6-1.8c-1.1-1.2-1.7-3.1-1.7-5.9V94h-3.1v-4h3.1v-4.8L234,83.9z"/>
		<path class="st1" d="M245.9,102.1c0.1,3.9,3.2,5.5,6.6,5.5c2.5,0,4.3-0.4,5.9-1l0.8,3.7c-1.8,0.7-4.4,1.3-7.4,1.3
			c-6.9,0-11-4.2-11-10.8c0-5.9,3.6-11.5,10.4-11.5c6.9,0,9.2,5.7,9.2,10.4c0,1-0.1,1.8-0.2,2.3H245.9z M255.3,98.3
			c0-2-0.8-5.2-4.4-5.2c-3.3,0-4.7,3-4.9,5.2H255.3z"/>
		<path class="st1" d="M263.8,96.8c0-2.9,0-4.9-0.2-6.9h4.7l0.2,4.1h0.2c1-3,3.5-4.5,5.8-4.5c0.5,0,0.8,0,1.3,0.1v5.1
			c-0.4-0.1-0.9-0.2-1.6-0.2c-2.6,0-4.3,1.7-4.8,4.1c-0.1,0.5-0.2,1-0.2,1.7v11h-5.4V96.8z"/>
		<path class="st1" d="M310.5,109.9c-1.9,0.7-5.6,1.7-9.5,1.7c-5,0-8.7-1.3-11.5-3.9c-2.6-2.5-4.2-6.4-4.1-10.8
			c0-9.3,6.6-15.3,16.4-15.3c3.6,0,6.5,0.7,7.8,1.4l-1.2,4.3c-1.6-0.7-3.6-1.3-6.7-1.3c-6.3,0-10.7,3.7-10.7,10.6
			c0,6.7,4.1,10.7,10.2,10.7c1.9,0,3.4-0.3,4.1-0.6v-7.3h-5.2V95h10.4V109.9z"/>
		<path class="st1" d="M319,102.1c0.1,3.9,3.1,5.5,6.6,5.5c2.5,0,4.3-0.4,5.9-1l0.8,3.7c-1.8,0.7-4.4,1.3-7.4,1.3
			c-6.9,0-11-4.2-11-10.8c0-5.9,3.6-11.5,10.4-11.5c6.9,0,9.2,5.7,9.2,10.4c0,1-0.1,1.8-0.2,2.3H319z M328.3,98.3
			c0-2-0.8-5.2-4.4-5.2c-3.3,0-4.7,3-4.9,5.2H328.3z"/>
		<path class="st1" d="M336.9,96.3c0-2.4,0-4.5-0.2-6.3h4.7l0.3,3.2h0.1c0.9-1.7,3.2-3.7,6.8-3.7c3.7,0,7.6,2.4,7.6,9.1v12.6h-5.4
			v-12c0-3.1-1.1-5.4-4.1-5.4c-2.1,0-3.6,1.5-4.2,3.1c-0.2,0.5-0.2,1.1-0.2,1.8v12.5h-5.4V96.3z"/>
		<path class="st1" d="M364.8,102.1c0.1,3.9,3.1,5.5,6.6,5.5c2.5,0,4.3-0.4,5.9-1l0.8,3.7c-1.8,0.7-4.4,1.3-7.4,1.3
			c-6.9,0-11-4.2-11-10.8c0-5.9,3.6-11.5,10.4-11.5c6.9,0,9.2,5.7,9.2,10.4c0,1-0.1,1.8-0.2,2.3H364.8z M374.2,98.3
			c0-2-0.8-5.2-4.4-5.2c-3.3,0-4.7,3-4.9,5.2H374.2z"/>
		<path class="st1" d="M382.7,96.8c0-2.9,0-4.9-0.2-6.9h4.7l0.2,4.1h0.2c1-3,3.5-4.5,5.8-4.5c0.5,0,0.8,0,1.3,0.1v5.1
			c-0.4-0.1-0.9-0.2-1.6-0.2c-2.6,0-4.3,1.7-4.8,4.1c-0.1,0.5-0.2,1-0.2,1.7v11h-5.4V96.8z"/>
		<path class="st1" d="M409,111.3l-0.3-2.4h-0.1c-1.3,1.7-3.5,2.8-6.3,2.8c-4.3,0-6.7-3.1-6.7-6.3c0-5.4,4.8-8.1,12.6-8V97
			c0-1.4-0.6-3.7-4.3-3.7c-2.1,0-4.3,0.7-5.7,1.6l-1.1-3.5c1.6-1,4.3-1.9,7.7-1.9c6.8,0,8.8,4.3,8.8,9v7.7c0,1.9,0.1,3.8,0.3,5.1
			H409z M408.3,100.8c-3.8-0.1-7.4,0.7-7.4,4c0,2.1,1.4,3.1,3.1,3.1c2.1,0,3.7-1.4,4.2-2.9c0.1-0.4,0.2-0.8,0.2-1.2V100.8z"/>
		<path class="st1" d="M418.4,80.2h5.4v31.1h-5.4V80.2z"/>
		<path class="st1" d="M442.5,81.8v11.8H455V81.8h5.4v29.5H455v-13h-12.5v13h-5.4V81.8H442.5z"/>
		<path class="st1" d="M469.2,102.1c0.1,3.9,3.1,5.5,6.6,5.5c2.5,0,4.3-0.4,5.9-1l0.8,3.7c-1.8,0.7-4.4,1.3-7.4,1.3
			c-6.9,0-11-4.2-11-10.8c0-5.9,3.6-11.5,10.4-11.5c6.9,0,9.2,5.7,9.2,10.4c0,1-0.1,1.8-0.2,2.3H469.2z M478.6,98.3
			c0-2-0.8-5.2-4.4-5.2c-3.3,0-4.7,3-4.9,5.2H478.6z"/>
		<path class="st1" d="M499.1,111.3l-0.3-2.4h-0.1c-1.3,1.7-3.5,2.8-6.3,2.8c-4.3,0-6.7-3.1-6.7-6.3c0-5.4,4.8-8.1,12.6-8V97
			c0-1.4-0.6-3.7-4.3-3.7c-2.1,0-4.3,0.7-5.7,1.6l-1.1-3.5c1.6-1,4.3-1.9,7.7-1.9c6.8,0,8.8,4.3,8.8,9v7.7c0,1.9,0.1,3.8,0.3,5.1
			H499.1z M498.4,100.8c-3.8-0.1-7.4,0.7-7.4,4c0,2.1,1.4,3.1,3.1,3.1c2.1,0,3.7-1.4,4.2-2.9c0.1-0.4,0.2-0.8,0.2-1.2V100.8z"/>
		<path class="st1" d="M508.5,80.2h5.4v31.1h-5.4V80.2z"/>
		<path class="st1" d="M525,83.9v6.1h5.1v4H525v9.4c0,2.6,0.7,3.9,2.8,3.9c0.9,0,1.6-0.1,2.1-0.3l0.1,4.1c-0.8,0.3-2.2,0.5-3.9,0.5
			c-2,0-3.6-0.7-4.6-1.8c-1.1-1.2-1.7-3.1-1.7-5.9V94h-3.1v-4h3.1v-4.8L525,83.9z"/>
		<path class="st1" d="M533.3,80.2h5.4v12.7h0.1c0.7-1,1.5-1.8,2.7-2.4c1-0.6,2.3-1,3.7-1c3.6,0,7.4,2.4,7.4,9.2v12.6h-5.4V99.3
			c0-3.1-1.1-5.4-4.1-5.4c-2.1,0-3.6,1.4-4.2,3c-0.2,0.4-0.2,1-0.2,1.6v12.7h-5.4V80.2z"/>
		<path class="st1" d="M565.8,82.2c1.9-0.3,4.6-0.6,8.2-0.6c3.9,0,6.8,0.8,8.7,2.4c1.8,1.4,2.9,3.8,2.9,6.5c0,2.8-0.9,5.1-2.5,6.7
			c-2.1,2.1-5.5,3.2-9.3,3.2c-1,0-1.9,0-2.6-0.2v11.1h-5.3V82.2z M571.2,95.9c0.7,0.2,1.5,0.2,2.6,0.2c4,0,6.5-2,6.5-5.4
			c0-3.3-2.3-5-6-5c-1.5,0-2.5,0.1-3.1,0.3V95.9z"/>
		<path class="st1" d="M589.1,80.2h5.4v12.7h0.1c0.7-1,1.5-1.8,2.7-2.4c1-0.6,2.3-1,3.7-1c3.6,0,7.4,2.4,7.4,9.2v12.6H603V99.3
			c0-3.1-1.1-5.4-4.1-5.4c-2.1,0-3.6,1.4-4.2,3c-0.2,0.4-0.2,1-0.2,1.6v12.7h-5.4V80.2z"/>
		<path class="st1" d="M615.9,89.9l3.8,11.4c0.4,1.3,0.9,2.9,1.2,4.2h0.1c0.3-1.2,0.7-2.8,1.1-4.2l3.3-11.4h5.8l-5.3,14.5
			c-2.9,8-4.9,11.5-7.4,13.7c-2.1,1.9-4.3,2.6-5.6,2.8l-1.2-4.5c0.9-0.2,2.1-0.7,3.1-1.5c1-0.7,2.2-1.9,2.9-3.4
			c0.2-0.4,0.4-0.7,0.4-1c0-0.2,0-0.5-0.3-1L610,89.9H615.9z"/>
		<path class="st1" d="M632.7,106.3c1.2,0.7,3.5,1.5,5.5,1.5c2.4,0,3.4-1,3.4-2.4c0-1.4-0.9-2.2-3.5-3.1c-4.2-1.4-5.9-3.7-5.9-6.2
			c0-3.8,3.1-6.7,8-6.7c2.4,0,4.4,0.6,5.6,1.3l-1,3.8c-0.9-0.5-2.6-1.2-4.5-1.2c-1.9,0-3,0.9-3,2.2c0,1.4,1,2,3.7,3
			c3.8,1.4,5.6,3.4,5.7,6.5c0,3.8-3,6.6-8.7,6.6c-2.6,0-4.9-0.6-6.5-1.5L632.7,106.3z"/>
		<path class="st1" d="M656.1,84c0,1.6-1.2,2.9-3.1,2.9c-1.8,0-3-1.3-3-2.9c0-1.7,1.2-2.9,3-2.9C654.9,81.1,656,82.3,656.1,84z
			 M650.3,111.3V89.9h5.4v21.3H650.3z"/>
		<path class="st1" d="M676.3,110.6c-1.1,0.5-3.4,1.1-6,1.1c-6.6,0-11-4.2-11-10.8c0-6.4,4.4-11.4,11.9-11.4c2,0,4,0.4,5.2,1l-1,4
			c-0.9-0.4-2.1-0.8-4.1-0.8c-4.1,0-6.6,3-6.5,6.9c0,4.4,2.8,6.9,6.5,6.9c1.9,0,3.2-0.4,4.2-0.8L676.3,110.6z"/>
		<path class="st1" d="M685.2,84c0,1.6-1.2,2.9-3.1,2.9c-1.8,0-3-1.3-3-2.9c0-1.7,1.2-2.9,3-2.9C684,81.1,685.1,82.3,685.2,84z
			 M679.4,111.3V89.9h5.4v21.3H679.4z"/>
		<path class="st1" d="M701.7,111.3l-0.3-2.4h-0.1c-1.3,1.7-3.5,2.8-6.3,2.8c-4.3,0-6.7-3.1-6.7-6.3c0-5.4,4.8-8.1,12.6-8V97
			c0-1.4-0.6-3.7-4.3-3.7c-2.1,0-4.3,0.7-5.7,1.6l-1.1-3.5c1.6-1,4.3-1.9,7.7-1.9c6.8,0,8.8,4.3,8.8,9v7.7c0,1.9,0.1,3.8,0.3,5.1
			H701.7z M701,100.8c-3.8-0.1-7.4,0.7-7.4,4c0,2.1,1.4,3.1,3.1,3.1c2.1,0,3.7-1.4,4.2-2.9c0.1-0.4,0.2-0.8,0.2-1.2V100.8z"/>
		<path class="st1" d="M711.1,96.3c0-2.4,0-4.5-0.2-6.3h4.7l0.3,3.2h0.1c0.9-1.7,3.2-3.7,6.8-3.7c3.7,0,7.6,2.4,7.6,9.1v12.6H725
			v-12c0-3.1-1.1-5.4-4.1-5.4c-2.1,0-3.6,1.5-4.2,3.1c-0.2,0.5-0.2,1.1-0.2,1.8v12.5h-5.4V96.3z"/>
		<path class="st1" d="M735,106.3c1.2,0.7,3.5,1.5,5.5,1.5c2.4,0,3.4-1,3.4-2.4c0-1.4-0.9-2.2-3.5-3.1c-4.2-1.4-5.9-3.7-5.9-6.2
			c0-3.8,3.1-6.7,8-6.7c2.4,0,4.4,0.6,5.6,1.3l-1,3.8c-0.9-0.5-2.6-1.2-4.5-1.2c-1.9,0-3,0.9-3,2.2c0,1.4,1,2,3.7,3
			c3.8,1.4,5.6,3.4,5.7,6.5c0,3.8-3,6.6-8.7,6.6c-2.6,0-4.9-0.6-6.5-1.5L735,106.3z"/>
	</g>
	<g>
		<path class="st3" d="M25.5,209.5v-33.3h6.9l8.6,14.3c2.2,3.7,4.1,7.6,5.7,11.2h0.1c-0.4-4.4-0.5-8.7-0.5-13.8v-11.6h5.6v33.3h-6.3
			l-8.7-14.6c-2.1-3.7-4.3-7.7-6-11.5l-0.1,0c0.2,4.3,0.3,8.7,0.3,14.2v11.9H25.5z"/>
		<path class="st3" d="M63.9,199.2c0.1,4.3,3.6,6.2,7.4,6.2c2.8,0,4.8-0.4,6.7-1.1l0.9,4.2c-2.1,0.8-4.9,1.5-8.4,1.5
			c-7.8,0-12.4-4.8-12.4-12.1c0-6.7,4-12.9,11.7-12.9c7.8,0,10.4,6.4,10.4,11.7c0,1.1-0.1,2-0.2,2.6H63.9z M74.5,194.9
			c0-2.2-0.9-5.9-5-5.9c-3.8,0-5.3,3.4-5.6,5.9H74.5z"/>
		<path class="st3" d="M107.6,202.3c0,2.9,0.1,5.2,0.2,7.2h-5.3l-0.3-3.7h-0.1c-1,1.7-3.4,4.2-7.7,4.2c-4.4,0-8.4-2.6-8.4-10.5
			v-14.1h6.1v13.1c0,4,1.3,6.6,4.5,6.6c2.4,0,4-1.7,4.6-3.3c0.2-0.5,0.3-1.2,0.3-1.9v-14.5h6.1V202.3z"/>
		<path class="st3" d="M115.2,193.2c0-3.3,0-5.6-0.2-7.7h5.3l0.2,4.6h0.2c1.2-3.4,4-5.1,6.6-5.1c0.6,0,0.9,0,1.4,0.1v5.7
			c-0.5-0.1-1-0.2-1.8-0.2c-2.9,0-4.9,1.9-5.4,4.6c-0.1,0.5-0.2,1.2-0.2,1.9v12.4h-6.1V193.2z"/>
		<path class="st3" d="M156.1,197.3c0,8.8-6.2,12.8-12.3,12.8c-6.8,0-12-4.7-12-12.4c0-7.9,5.2-12.7,12.4-12.7
			C151.3,184.9,156.1,190,156.1,197.3z M138,197.5c0,4.6,2.3,8.1,6,8.1c3.5,0,5.9-3.4,5.9-8.2c0-3.8-1.7-8-5.8-8
			C139.7,189.4,138,193.5,138,197.5z"/>
		<path class="st3" d="M162.2,202.9c2,1.1,4.9,2.1,8,2.1c3.9,0,6.1-1.8,6.1-4.5c0-2.5-1.7-4-5.9-5.5c-5.5-2-9-4.9-9-9.7
			c0-5.4,4.5-9.6,11.7-9.6c3.6,0,6.3,0.8,8,1.7l-1.5,4.9c-1.2-0.6-3.5-1.6-6.6-1.6c-3.8,0-5.5,2.1-5.5,4c0,2.6,1.9,3.8,6.4,5.5
			c5.8,2.2,8.6,5.1,8.6,9.9c0,5.3-4,10-12.6,10c-3.5,0-7.2-1-9-2.1L162.2,202.9z"/>
		<path class="st3" d="M206.6,208.8c-1.3,0.6-3.8,1.2-6.8,1.2c-7.5,0-12.4-4.8-12.4-12.2c0-7.2,4.9-12.8,13.4-12.8
			c2.2,0,4.5,0.5,5.9,1.1l-1.1,4.5c-1-0.4-2.4-0.9-4.6-0.9c-4.6,0-7.4,3.4-7.4,7.8c0,4.9,3.2,7.7,7.4,7.7c2.1,0,3.6-0.4,4.8-0.9
			L206.6,208.8z"/>
		<path class="st3" d="M218.6,178.7c0,1.8-1.3,3.3-3.5,3.3c-2,0-3.4-1.4-3.4-3.3c0-1.9,1.4-3.3,3.4-3.3
			C217.3,175.4,218.5,176.9,218.6,178.7z M212.1,209.5v-24h6.1v24H212.1z"/>
		<path class="st3" d="M230,199.2c0.1,4.3,3.6,6.2,7.4,6.2c2.8,0,4.8-0.4,6.7-1.1l0.9,4.2c-2.1,0.8-4.9,1.5-8.4,1.5
			c-7.8,0-12.4-4.8-12.4-12.1c0-6.7,4-12.9,11.7-12.9c7.8,0,10.4,6.4,10.4,11.7c0,1.1-0.1,2-0.2,2.6H230z M240.6,194.9
			c0-2.2-0.9-5.9-5-5.9c-3.8,0-5.3,3.4-5.6,5.9H240.6z"/>
		<path class="st3" d="M252.2,192.6c0-2.8,0-5.1-0.2-7.2h5.3l0.3,3.6h0.1c1-1.9,3.7-4.1,7.6-4.1c4.2,0,8.5,2.7,8.5,10.3v14.3h-6.1
			v-13.6c0-3.5-1.3-6.1-4.6-6.1c-2.4,0-4.1,1.7-4.7,3.6c-0.2,0.5-0.2,1.3-0.2,2v14.1h-6.1V192.6z"/>
		<path class="st3" d="M299.1,208.8c-1.3,0.6-3.8,1.2-6.8,1.2c-7.5,0-12.4-4.8-12.4-12.2c0-7.2,4.9-12.8,13.4-12.8
			c2.2,0,4.5,0.5,5.9,1.1l-1.1,4.5c-1-0.4-2.4-0.9-4.6-0.9c-4.6,0-7.4,3.4-7.4,7.8c0,4.9,3.2,7.7,7.4,7.7c2.1,0,3.6-0.4,4.8-0.9
			L299.1,208.8z"/>
		<path class="st3" d="M308.4,199.2c0.1,4.3,3.6,6.2,7.4,6.2c2.8,0,4.8-0.4,6.7-1.1l0.9,4.2c-2.1,0.8-4.9,1.5-8.4,1.5
			c-7.8,0-12.4-4.8-12.4-12.1c0-6.7,4-12.9,11.7-12.9c7.8,0,10.4,6.4,10.4,11.7c0,1.1-0.1,2-0.2,2.6H308.4z M319,194.9
			c0-2.2-0.9-5.9-5-5.9c-3.8,0-5.3,3.4-5.6,5.9H319z"/>
		<path class="st3" d="M363,209.5c-0.8-0.8-1.6-1.7-2.6-2.8c-2.5,2.1-5.6,3.3-9.4,3.3c-7.4,0-11-4.6-11-9.4c0-4.4,2.6-7.6,6.4-9.6
			v-0.1c-1.6-1.9-2.7-4.3-2.7-6.7c0-4.1,3.2-8.5,9.3-8.5c4.7,0,8.2,2.9,8.2,7.5c0,3.5-2,6.3-6.9,8.7l0,0.2c2.3,2.7,4.9,5.6,6.7,7.6
			c1.4-2.2,2.4-5.3,3-8.8h5.4c-0.9,5.1-2.4,9.3-5.2,12.5c1.8,2,3.7,4,5.7,6.2H363z M357.5,203.3c-2-2.1-5.2-5.6-8.3-9.2
			c-1.6,1.1-3.4,2.8-3.4,5.6c0,3.3,2.4,5.9,6.1,5.9C354.3,205.5,356.3,204.6,357.5,203.3z M349.3,183.6c0,2,0.9,3.7,2.4,5.3
			c2.8-1.8,4.4-3.3,4.4-5.6c0-1.8-1-3.8-3.3-3.8S349.3,181.6,349.3,183.6z"/>
		<path class="st3" d="M385.9,202.9c2,1.1,4.9,2.1,8,2.1c3.9,0,6.1-1.8,6.1-4.5c0-2.5-1.7-4-5.9-5.5c-5.5-2-9-4.9-9-9.7
			c0-5.4,4.5-9.6,11.7-9.6c3.6,0,6.3,0.8,8,1.7l-1.5,4.9c-1.2-0.6-3.5-1.6-6.6-1.6c-3.8,0-5.5,2.1-5.5,4c0,2.6,1.9,3.8,6.4,5.5
			c5.8,2.2,8.6,5.1,8.6,9.9c0,5.3-4,10-12.6,10c-3.5,0-7.2-1-9-2.1L385.9,202.9z"/>
		<path class="st3" d="M412.4,193.5c0-3.2-0.1-5.7-0.2-8h5.3l0.3,3.7h0.1c1.8-2.7,4.6-4.2,8.2-4.2c5.5,0,10.1,4.7,10.1,12.2
			c0,8.7-5.5,12.9-11,12.9c-3,0-5.5-1.3-6.8-3.2h-0.1v12.4h-6.1V193.5z M418.5,199.4c0,0.6,0,1.1,0.2,1.7c0.6,2.5,2.8,4.2,5.3,4.2
			c3.8,0,6.1-3.2,6.1-7.9c0-4.2-2.1-7.7-6-7.7c-2.5,0-4.8,1.8-5.4,4.5c-0.1,0.5-0.2,1-0.2,1.5V199.4z"/>
		<path class="st3" d="M448.7,178.7c0,1.8-1.3,3.3-3.5,3.3c-2,0-3.4-1.4-3.4-3.3c0-1.9,1.4-3.3,3.4-3.3
			C447.4,175.4,448.7,176.9,448.7,178.7z M442.2,209.5v-24h6.1v24H442.2z"/>
		<path class="st3" d="M455.9,192.6c0-2.8,0-5.1-0.2-7.2h5.3l0.3,3.6h0.1c1-1.9,3.7-4.1,7.6-4.1c4.2,0,8.5,2.7,8.5,10.3v14.3h-6.1
			v-13.6c0-3.5-1.3-6.1-4.6-6.1c-2.4,0-4.1,1.7-4.7,3.6c-0.2,0.5-0.2,1.3-0.2,2v14.1h-6.1V192.6z"/>
		<path class="st3" d="M489.4,199.2c0.1,4.3,3.6,6.2,7.4,6.2c2.8,0,4.8-0.4,6.7-1.1l0.9,4.2c-2.1,0.8-4.9,1.5-8.4,1.5
			c-7.8,0-12.4-4.8-12.4-12.1c0-6.7,4-12.9,11.7-12.9c7.8,0,10.4,6.4,10.4,11.7c0,1.1-0.1,2-0.2,2.6H489.4z M499.9,194.9
			c0-2.2-0.9-5.9-5-5.9c-3.8,0-5.3,3.4-5.6,5.9H499.9z"/>
		<path class="st3" d="M529.6,200.1l-2.9,9.4h-6.3l10.7-33.3h7.7l10.8,33.3h-6.5l-3-9.4H529.6z M539.2,195.5l-2.6-8.2
			c-0.6-2-1.2-4.3-1.7-6.2h-0.1c-0.5,1.9-1,4.2-1.6,6.2l-2.6,8.2H539.2z"/>
		<path class="st3" d="M554.6,203.9c1.4,0.8,4,1.7,6.2,1.7c2.7,0,3.8-1.1,3.8-2.7c0-1.6-1-2.5-3.9-3.5c-4.7-1.6-6.7-4.2-6.6-7
			c0-4.2,3.5-7.6,9.1-7.6c2.7,0,5,0.7,6.4,1.4l-1.2,4.3c-1-0.6-3-1.4-5.1-1.4c-2.2,0-3.4,1-3.4,2.5c0,1.5,1.1,2.3,4.2,3.4
			c4.3,1.6,6.4,3.8,6.4,7.4c0,4.3-3.4,7.5-9.8,7.5c-2.9,0-5.5-0.7-7.3-1.7L554.6,203.9z"/>
		<path class="st3" d="M576.2,203.9c1.4,0.8,4,1.7,6.2,1.7c2.7,0,3.8-1.1,3.8-2.7c0-1.6-1-2.5-3.9-3.5c-4.7-1.6-6.7-4.2-6.6-7
			c0-4.2,3.5-7.6,9.1-7.6c2.7,0,5,0.7,6.4,1.4l-1.2,4.3c-1-0.6-3-1.4-5.1-1.4c-2.2,0-3.4,1-3.4,2.5c0,1.5,1.1,2.3,4.2,3.4
			c4.3,1.6,6.4,3.8,6.4,7.4c0,4.3-3.4,7.5-9.8,7.5c-2.9,0-5.5-0.7-7.3-1.7L576.2,203.9z"/>
		<path class="st3" d="M620.9,197.3c0,8.8-6.2,12.8-12.3,12.8c-6.8,0-12-4.7-12-12.4c0-7.9,5.2-12.7,12.4-12.7
			C616.1,184.9,620.9,190,620.9,197.3z M602.8,197.5c0,4.6,2.3,8.1,6,8.1c3.5,0,5.9-3.4,5.9-8.2c0-3.8-1.7-8-5.8-8
			C604.5,189.4,602.8,193.5,602.8,197.5z"/>
		<path class="st3" d="M644.5,208.8c-1.3,0.6-3.8,1.2-6.8,1.2c-7.5,0-12.4-4.8-12.4-12.2c0-7.2,4.9-12.8,13.4-12.8
			c2.2,0,4.5,0.5,5.9,1.1l-1.1,4.5c-1-0.4-2.4-0.9-4.6-0.9c-4.6,0-7.4,3.4-7.4,7.8c0,4.9,3.2,7.7,7.4,7.7c2.1,0,3.6-0.4,4.8-0.9
			L644.5,208.8z"/>
		<path class="st3" d="M656.5,178.7c0,1.8-1.3,3.3-3.5,3.3c-2,0-3.4-1.4-3.4-3.3c0-1.9,1.4-3.3,3.4-3.3
			C655.1,175.4,656.4,176.9,656.5,178.7z M650,209.5v-24h6.1v24H650z"/>
		<path class="st3" d="M677.2,209.5l-0.4-2.7h-0.1c-1.5,1.9-4,3.2-7.1,3.2c-4.8,0-7.5-3.5-7.5-7.2c0-6.1,5.4-9.1,14.3-9.1v-0.4
			c0-1.6-0.6-4.2-4.9-4.2c-2.4,0-4.8,0.7-6.5,1.8l-1.2-3.9c1.8-1.1,4.9-2.1,8.7-2.1c7.7,0,9.9,4.9,9.9,10.1v8.7
			c0,2.2,0.1,4.3,0.3,5.8H677.2z M676.4,197.7c-4.3-0.1-8.4,0.8-8.4,4.5c0,2.4,1.5,3.5,3.5,3.5c2.4,0,4.2-1.6,4.7-3.3
			c0.1-0.4,0.2-0.9,0.2-1.3V197.7z"/>
		<path class="st3" d="M696.3,178.6v6.9h5.8v4.5h-5.8v10.6c0,2.9,0.8,4.4,3.1,4.4c1,0,1.8-0.1,2.4-0.3l0.1,4.6
			c-0.9,0.3-2.5,0.6-4.4,0.6c-2.2,0-4.1-0.7-5.2-2c-1.3-1.4-1.9-3.6-1.9-6.7V190H687v-4.5h3.5V180L696.3,178.6z"/>
		<path class="st3" d="M711.7,199.2c0.1,4.3,3.6,6.2,7.4,6.2c2.8,0,4.8-0.4,6.7-1.1l0.9,4.2c-2.1,0.8-4.9,1.5-8.4,1.5
			c-7.8,0-12.4-4.8-12.4-12.1c0-6.7,4-12.9,11.7-12.9c7.8,0,10.4,6.4,10.4,11.7c0,1.1-0.1,2-0.2,2.6H711.7z M722.3,194.9
			c0-2.2-0.9-5.9-5-5.9c-3.8,0-5.3,3.4-5.6,5.9H722.3z"/>
		<path class="st3" d="M733.6,203.9c1.4,0.8,4,1.7,6.2,1.7c2.7,0,3.8-1.1,3.8-2.7c0-1.6-1-2.5-3.9-3.5c-4.7-1.6-6.7-4.2-6.6-7
			c0-4.2,3.5-7.6,9.1-7.6c2.7,0,5,0.7,6.4,1.4l-1.2,4.3c-1-0.6-3-1.4-5.1-1.4c-2.2,0-3.4,1-3.4,2.5c0,1.5,1.1,2.3,4.2,3.4
			c4.3,1.6,6.4,3.8,6.4,7.4c0,4.3-3.4,7.5-9.8,7.5c-2.9,0-5.5-0.7-7.3-1.7L733.6,203.9z"/>
	</g>
	
		<image style="display:none;overflow:visible;" width="465" height="138" xlink:href="NeuroSSpine&amp;Assoc_website_tempLogo.png"  transform="matrix(1.6192 0 0 1.6192 10.1667 1.3439)">
	</image>
	<line class="st4" x1="22" y1="144.6" x2="746.3" y2="144.6"/>
</g>
<g id="Layer_3">
</g>
</svg>
