<?xml version="1.0" encoding="utf-8"?>
<!-- Generator: Adobe Illustrator 26.0.1, SVG Export Plug-In . SVG Version: 6.00 Build 0)  -->
<svg version="1.1" id="Layer_1" xmlns="http://www.w3.org/2000/svg" xmlns:xlink="http://www.w3.org/1999/xlink" x="0px" y="0px"
	 viewBox="0 0 350.63 103.77" style="enable-background:new 0 0 350.63 103.77;" xml:space="preserve">
<style type="text/css">
	.st0{fill:#00407A;}
	.st1{fill:#739DD2;}
</style>
<g>
	<path class="st0" d="M91.7,35.41h-2.59c-0.63,0-0.86,0.4-0.86,0.92v24.73c0,7.15,0.63,7.15,2.36,7.15h3.86
		c9.8,0,12.05-1.44,13.03-3.06c0.17-0.29,0.29-0.63,0.69-0.63c0.23,0,0.46,0.35,0.46,0.63c0,0.52-0.75,2.82-1.44,5.13H79.77v-1.73
		h2.71c0.63,0,0.86-0.4,0.86-0.92v-24.1c0-5.94-0.12-8.13-1.61-8.13h-3.4v-1.73H91.7V35.41z"/>
	<path class="st0" d="M123.82,54.78v-2.94c0-2.59-0.17-4.73-4.27-4.73c-1.44,0-3.46,0.46-4.67,1.38c0,3.11-1.27,5.36-3.23,5.36
		c-0.86,0-1.56-0.69-1.56-1.56c0-4.04,6.11-7.5,12.22-7.5c5.71,0,6,2.77,6,7.44v8.82c0,4.79,0.35,6.34,3.81,7.21l-1.73,2.94
		c-2.65,0-5.53-2.13-6.23-5.25c-2.25,2.25-6.11,5.25-9.34,5.25c-3.29,0-5.19-2.25-5.19-5.42c0-4.96,4.9-7.21,12.11-10.15
		L123.82,54.78z M123.82,56.57c-5.88,2.25-9.51,4.21-9.51,8.13c0,1.9,1.04,3.11,3,3.11c2.65,0,5.02-1.79,6.51-3.8V56.57z"/>
	<path class="st0" d="M140.3,59.68c0,6.28,0.06,9.05,1.79,9.05h2.77v1.56h-12.28v-1.56h2.02c0.52,0,1.21-0.23,1.21-0.92V54.2
		c0-6.92-0.46-6.92-2.36-6.92h-2.19v-1.56c0.86,0,2.82-0.23,4.67-0.46c1.9-0.23,3.75-0.46,4.38-0.46v5.02
		c2.31-2.42,4.96-5.02,7.44-5.02c1.04,0,2.13,0.4,2.82,1.21c-0.75,4.38-0.81,4.5-1.33,4.5c-0.86,0-0.35-1.84-3.4-1.84
		c-2.36,0-4.09,1.61-5.53,3.17V59.68z"/>
	<path class="st0" d="M171.61,66.66c-2.94,3-6.69,4.55-10.84,4.55c-7.26,0-11.01-5.71-11.01-12.45c0-6.63,3.63-13.95,11.18-13.95
		c5.36,0,8.07,3.63,10.2,8.19l-16.89,4.55c0.29,5.65,2.65,10.95,9.28,10.95c2.82,0,5.13-1.04,7.26-2.88L171.61,66.66z M166.02,52.7
		c-0.92-2.54-2.88-6.17-5.94-6.17c-3.98,0-5.82,5.65-5.82,9.28L166.02,52.7z"/>
	<path class="st0" d="M196.17,59.68c0,6.28,0.06,9.05,1.79,9.05h2.77v1.56c-3,0.12-6.05,0.52-9.05,0.92v-4.27
		c-2.83,2.19-5.42,4.27-8.76,4.27c-6.98,0-10.2-5.94-10.2-12.28c0-9.51,6.57-14.13,12.22-14.13c2.54,0,4.61,0.75,6.75,2.08v-7.55
		c0-6.92-0.46-6.92-2.36-6.92h-2.19v-1.56c1.44,0,6.05-0.69,9.05-1.21V59.68z M191.67,48.73c-1.61-1.27-3.63-2.19-5.71-2.19
		c-6.23,0-8.59,5.25-8.59,10.84c0,5.42,1.61,10.72,7.96,10.72c2.42,0,4.73-1.38,6.34-3.17V48.73z"/>
	<path class="st0" d="M224.19,57.49c0,4.61-3,13.72-13.09,13.72c-7.44,0-11.7-5.48-11.7-12.68c0-4.61,3-13.72,13.09-13.72
		C219.92,44.81,224.19,50.28,224.19,57.49z M219.52,58.93c0-5.02-2.19-12.4-8.36-12.4c-5.77,0-7.09,6-7.09,10.61
		c0,5.02,2.19,12.34,8.36,12.34C218.19,69.48,219.52,63.54,219.52,58.93z"/>
	<path class="st1" d="M79.41,75.49h3.07l8.89,10.37l8.89-10.37h3.07v24.67h-3.43V80.9l-8.52,9.93l-8.52-9.93v19.25h-3.43V75.49z"/>
	<path class="st1" d="M106.97,75.49h14.85v3.14h-11.34v7.48h11.02v3.18h-11.02v7.69h11.7v3.18h-15.21V75.49z"/>
	<path class="st1" d="M142.37,77.62c3.32,2.24,5.24,5.92,5.24,10.19c0,4.26-1.91,7.98-5.24,10.22c-2.31,1.59-4.98,2.13-8.31,2.13
		h-9.07V75.49h9.07C137.34,75.49,139.98,75.99,142.37,77.62z M128.5,78.85V96.8h5.56c6.28,0,9.79-3.58,9.79-8.96
		c0-5.38-3.5-8.99-9.79-8.99H128.5z"/>
	<path class="st1" d="M149.52,75.49h3.54v24.67h-3.54V75.49z"/>
	<path class="st1" d="M177.11,98.28c-2.89,1.52-5.92,2.31-8.89,2.31c-2.85,0-5.42-0.76-7.66-2.2c-3.68-2.38-5.82-6.28-5.82-10.66
		c0-3.32,1.41-6.57,3.87-8.92c2.64-2.49,5.89-3.72,9.86-3.72c3.4,0,6.14,0.94,8.42,1.99v3.83c-3-1.63-5.71-2.49-8.42-2.49
		c-5.89,0-9.97,4.15-9.97,9.43c0,5.27,4.08,9.39,9.75,9.39c2.89,0,5.82-0.98,8.85-2.93V98.28z"/>
	<path class="st1" d="M187.51,75.49h2.56l10.84,24.67h-3.65l-3.18-7.26h-10.51l-3.14,7.26h-3.61L187.51,75.49z M192.64,89.72
		l-3.9-8.89l-3.79,8.89H192.64z"/>
	<path class="st1" d="M201.24,75.49h3.5v21.49h11.74v3.18h-15.24V75.49z"/>
	<path class="st1" d="M246.24,98.28c-2.89,1.52-5.92,2.31-8.89,2.31c-2.85,0-5.42-0.76-7.66-2.2c-3.68-2.38-5.82-6.28-5.82-10.66
		c0-3.32,1.41-6.57,3.86-8.92c2.64-2.49,5.89-3.72,9.86-3.72c3.4,0,6.14,0.94,8.42,1.99v3.83c-3-1.63-5.71-2.49-8.42-2.49
		c-5.89,0-9.97,4.15-9.97,9.43c0,5.27,4.08,9.39,9.75,9.39c2.89,0,5.81-0.98,8.85-2.93V98.28z"/>
	<path class="st1" d="M248.66,75.49h14.85v3.14h-11.34v7.48h11.02v3.18h-11.02v7.69h11.7v3.18h-15.21V75.49z"/>
	<path class="st1" d="M266.68,75.49h3.07l16.25,19.14V75.49h3.5v24.67h-3.14l-16.18-19.18v19.18h-3.5V75.49z"/>
	<path class="st1" d="M299.84,78.7h-9.07v-3.21h21.64v3.21h-9.07v21.45h-3.5V78.7z"/>
	<path class="st1" d="M313.68,75.49h14.84v3.14h-11.34v7.48h11.02v3.18h-11.02v7.69h11.7v3.18h-15.21V75.49z"/>
	<path class="st1" d="M331.66,75.49h7.22c5.06,0,7.8,2.49,7.8,6.75c0,3.21-1.41,5.13-4.62,6.14c1.08,0.58,1.77,1.55,2.56,2.75
		l6,9.03h-4.26l-4.23-6.47c-1.91-2.93-3.11-4.55-5.89-4.55h-1.05v11.02h-3.54V75.49z M338.13,86.18c3.29,0,4.91-1.26,4.91-3.87
		c0-2.78-1.59-3.83-4.91-3.83h-2.93v7.69H338.13z"/>
	<g>
		<path class="st1" d="M25.74,13.81L25.74,13.81c-4.58,2.92-7.21,7.29-7.21,11.98l0.03,1.04l0.23-0.09l2.66-1.04l0.01-0.11
			c0.38-5.85,2.21-7.84,3.97-9.77l0.82-0.91c0.3-0.35,0.66-0.84,0.41-1.12C26.45,13.51,25.93,13.69,25.74,13.81z"/>
		<path class="st1" d="M18.73,26.57c-0.02-0.26-0.02-0.52-0.02-0.78c0-4.89,2.87-9.12,7.12-11.84c0.29-0.18,1.33-0.4,0.29,0.83
			c-1.91,2.25-4.38,3.93-4.83,10.79L18.73,26.57z"/>
		<path class="st1" d="M22.36,24.84l-7.42,2.86l0.1,1.3c0,0,2.15,1.62,2.27,1.71c0.01,0.15,0.1,2.58,0.1,2.82
			c-0.21,0.07-1.48,0.45-1.48,0.45l0.15,0.88l0.91,0.91l4.49-1.96c0.45-0.2,1.52-0.71,1.6-1.13c0.02-0.1-0.01-0.2-0.09-0.28
			c-0.34-0.34-2.46,0.18-3.86,0.56c0.04-0.42,0.28-2.94,0.3-3.12c1.58-0.59,4.52-1.67,5.03-1.75c0.35-0.06,0.57-0.32,0.57-0.67
			c0-0.02,0-0.05,0-0.07c-0.03-0.33-0.26-0.67-0.6-0.67l0,0c-0.16,0-0.65,0.11-1.58,0.31c-1.01,0.22-2.76,0.61-3.38,0.63
			c0.34-0.25,1.3-0.68,1.93-0.97c0.83-0.37,1.31-0.59,1.47-0.74c0.1-0.1,0.15-0.21,0.15-0.33c0-0.01,0-0.03,0-0.05
			c-0.03-0.35-0.46-0.64-0.51-0.67l-0.07-0.05L22.36,24.84z"/>
		<path class="st1" d="M15.12,27.81l7.3-2.81c0,0,0.67,0.45,0.34,0.79c-0.34,0.34-3.48,1.46-3.6,1.91
			c-0.11,0.45,4.83-0.84,5.28-0.84c0.45,0,0.67,0.96,0,1.07c-0.67,0.11-5.17,1.8-5.17,1.8l-0.34,3.48c0,0,3.6-1.01,3.93-0.67
			c0.34,0.34-1.46,1.12-1.46,1.12l-4.38,1.91l-0.79-0.79l-0.11-0.67l1.46-0.45l-0.11-3.03l-2.28-1.71L15.12,27.81z"/>
		<path class="st1" d="M48.14,24.71c-0.05,0.05-0.48,0.45-0.49,0.84l0.15,0.36c0.15,0.15,0.63,0.37,1.47,0.74
			c0.68,0.3,1.74,0.78,2,1.02c-0.33,0.02-1.2-0.14-1.65-0.23l-0.9-0.14c-0.36,0-0.64,0.37-0.66,0.71c0,0.02,0,0.04,0,0.06
			c0,0.3,0.2,0.53,0.53,0.59c0.57,0.09,2.3,0.98,2.67,1.17c0.02,0.16,0.26,2.7,0.3,3.13c-2.56-0.8-5.55-1.64-5.88-1.31l-0.07,0.07
			l0,0.16c0.09,0.46,2.3,1.41,3.61,1.94l0,0c0,0,2.15,0.94,2.4,1.05c0.05,0.08,1.25,1.89,1.25,1.89l1.75-2.06l0.16-0.7
			c0,0-1.27-0.39-1.49-0.46c0.01-0.23,0.1-2.26,0.1-2.38c0.09-0.09,2.1-2.15,2.1-2.15l0.29-1.46l-7.54-2.9L48.14,24.71z"/>
		<path class="st1" d="M55.56,27.64l-7.3-2.81c0,0-0.67,0.62-0.34,0.96c0.34,0.34,3.48,1.46,3.59,1.91
			c0.11,0.45-2.36-0.22-2.81-0.22c-0.45,0-0.79,0.9-0.11,1.01c0.67,0.11,2.81,1.24,2.81,1.24l0.34,3.48c0,0-5.62-1.77-5.95-1.43
			c-0.34,0.34,3.48,1.88,3.48,1.88l2.45,1.07l1.15,1.74l1.57-1.85l0.11-0.51l-1.46-0.45l0.11-2.58l2.11-2.16L55.56,27.64z"/>
		<path class="st1" d="M48.04,24.63H24.42c-0.48,0.05-0.71,0.2-0.7,0.45c0.02,0.37,0.69,0.69,1.11,0.69l2.87-0.01
			c5.7-0.03,19.06-0.09,19.51-0.02l0,0c0,0.03-0.02,0.24-0.08,0.47c-0.27,0-16.35,0.08-16.35,0.08l-0.16,0
			c-0.37-0.01-0.93-0.02-1.03,0.57c-0.03,0.16,0.01,0.3,0.11,0.42c0.24,0.28,0.76,0.29,0.82,0.29c0,0,14.94,0,15.26,0
			c0.02,0.29,0.25,3.52,0.25,3.52l0.98,0.12c0,0,0.44-2.33,0.5-2.66c0.34,0.11,4.33,1.41,4.33,1.41l1.42-2.47l-5.19-2.86H48.04z"/>
		<path class="st1" d="M24.44,24.81h23.59l5,2.75l-1.26,2.19l-4.38-1.43l-0.51,2.7l-0.67-0.08l-0.25-3.54H30.54c0,0-0.84,0-0.76-0.5
			c0.08-0.51,0.59-0.42,1.01-0.42c0.42,0,16.49-0.08,16.49-0.08s0.22-0.73-0.03-0.81C47,25.48,26.07,25.6,24.83,25.6
			C24.24,25.6,23.29,24.92,24.44,24.81z"/>
		<path class="st1" d="M23.66,27.77l-0.32,0.22l-0.13,0.06c-0.16,0.19-0.05,1.31,0.32,3.33l0.03,0.16l0.16-0.02
			c0.12-0.02,0.7-0.12,0.81-0.46c0.06-0.19,0.52-2.92,0.33-3.4c-0.08-0.21-0.21-0.29-0.31-0.32C24.28,27.27,23.95,27.53,23.66,27.77
			z"/>
		<path class="st1" d="M24.72,27.73c0.15,0.4-0.25,3.03-0.34,3.29c-0.08,0.25-0.67,0.34-0.67,0.34s-0.59-3.2-0.34-3.2
			C23.63,28.15,24.47,27.05,24.72,27.73z"/>
		<path class="st1" d="M26.06,31.97c-0.03,0.06-0.05,0.12-0.05,0.18c0,0.09,0.04,0.17,0.1,0.24c0.7,0.7,1.62,0.89,4.25,0.89
			c0.28,0,0.46-0.17,0.63-0.34c0.17-0.16,0.32-0.31,0.57-0.34c0.55-0.08,9.18-0.08,10.9-0.03c0.75,0.03,1.6-1.09,1.69-1.22
			l0.21-0.28l-0.35,0c-4.3,0.02-15.55,0.07-15.98,0C27.64,31.01,26.31,31.5,26.06,31.97z"/>
		<path class="st1" d="M26.24,32.28c-0.38-0.38,1.35-1.1,1.77-1.01c0.42,0.08,16.01,0,16.01,0s-0.87,1.17-1.54,1.15
			c-1.69-0.06-10.34-0.06-10.93,0.03s-0.75,0.67-1.18,0.67C27.81,33.12,26.91,32.95,26.24,32.28z"/>
		<polygon class="st1" points="51.09,34.22 51.09,58.2 53.12,58.71 53.21,34.95 51.09,33.94 		"/>
		<polygon class="st1" points="51.27,34.22 51.27,58.06 52.95,58.49 53.03,35.06 		"/>
		<g>
			<path class="st1" d="M30.88,40.54v17.53h1.8v-12.9c0-1.98,1.61-3.59,3.59-3.59c1.36,0,2.59,0.76,3.2,1.98l0.33-0.08v-2.95
				c0-2.46-2-4.46-4.46-4.46S30.88,38.08,30.88,40.54z"/>
			<path class="st1" d="M35.34,36.25c-2.37,0-4.28,1.92-4.28,4.28V57.9h1.45V45.17c0-2.08,1.68-3.76,3.76-3.76
				c1.47,0,2.74,0.84,3.36,2.07v-2.95C39.62,38.17,37.7,36.25,35.34,36.25z"/>
		</g>
		<g>
			<path class="st1" d="M20.29,42.56v15.49h1.24v-11.4c0-1.73,0.96-3.14,2.13-3.14c0.8,0,1.52,0.66,1.89,1.71l0.34-0.06v-2.6
				c0-2.18-1.25-3.95-2.8-3.95C21.54,38.61,20.29,40.38,20.29,42.56z"/>
			<path class="st1" d="M23.08,38.79c-1.45,0-2.62,1.69-2.62,3.78v15.31h0.89V46.65c0-1.83,1.03-3.32,2.3-3.32
				c0.9,0,1.68,0.74,2.06,1.83v-2.6C25.71,40.48,24.53,38.79,23.08,38.79z"/>
		</g>
		<g>
			<path class="st1" d="M43.87,42.44v15.61h1.25V46.56c0-1.75,0.97-3.17,2.17-3.17c0.81,0,1.55,0.66,1.93,1.72l0.34-0.06v-2.62
				c0-2.2-1.28-3.98-2.84-3.98C45.15,38.45,43.87,40.24,43.87,42.44z"/>
			<path class="st1" d="M46.72,38.63c-1.47,0-2.67,1.71-2.67,3.81v15.44h0.9V46.56c0-1.85,1.05-3.34,2.34-3.34
				c0.92,0,1.71,0.75,2.09,1.84v-2.62C49.39,40.33,48.19,38.63,46.72,38.63z"/>
		</g>
		<path class="st1" d="M18.57,58.36c0,0.49,0.4,0.89,0.89,0.89h30.71c1.02,0.03,1.05,0.21,1.06,0.33c-0.05,0.16-0.91,0.67-1.4,0.67
			H23.5c-0.4,0-0.72,0.32-0.72,0.72c0,0.4,0.32,0.72,0.72,0.72h24.52c0.4,0,0.7,0.1,0.87,0.31c0.25,0.3,0.18,0.74,0.18,0.75l0,12.9
			l0.14,0.02c0.03,0,0.62,0.1,1-0.19c0.17-0.13,0.28-0.32,0.3-0.55c0.01-0.12,0.18-12.16-0.13-12.24l0.13,0.17
			c0-0.54,0.07-0.7,0.13-0.74c0.03-0.02,0.1-0.03,0.3,0.05c0,0,0.87,0.56,1.07,0.69c0,0.19,0,18.29,0,18.29l2.03-0.1
			c0,0,0-15.35,0-15.51c0.11-0.1,3.82-3.36,3.82-3.36L58,62.1c0.24-0.17,0.61-0.43,0.64-0.8c0-0.02,0-0.03,0-0.05
			c0-0.18-0.09-0.36-0.25-0.53c-0.6-0.6-5.4-3.05-5.61-3.15c-0.07-0.02-1.29-0.1-1.29-0.1H19.27
			C18.82,57.47,18.57,57.79,18.57,58.36z"/>
		<path class="st1" d="M50.34,62.87c0,0,0.08,11.29,0,12.05c-0.08,0.76-1.1,0.59-1.1,0.59V62.78c0,0,0.23-1.26-1.22-1.26H23.5
			c-0.3,0-0.55-0.25-0.55-0.55c0-0.3,0.25-0.55,0.55-0.55h26.33c0.56,0,1.61-0.6,1.57-0.87c-0.04-0.3-0.29-0.45-1.24-0.48H19.46
			c-0.4,0-0.72-0.32-0.72-0.71c0-0.4,0.14-0.72,0.53-0.72h32.2l1.22,0.08c0,0,4.97,2.53,5.56,3.12c0.59,0.59-0.27,1.02-0.51,1.22
			c-0.29,0.25-3.88,3.41-3.88,3.41V80.9l-1.69,0.08v-18.2l-1.18-0.76C50.51,61.81,50.34,62,50.34,62.87z"/>
		<path class="st1" d="M17.07,58l-2.41,1.32c-1.24,0.67-2.06,1.11-2.36,1.4l0,0c-0.18,0.18-0.26,0.38-0.25,0.58
			c0.03,0.42,0.46,0.73,0.71,0.91l0.1,0.07l4.09,3.55c0,0,0.12-2.04,0.13-2.2c0.14-0.09,3.13-1.97,3.13-1.97l-1.55-1.79l-0.06-0.01
			c-0.64-0.11-1.28-1.27-1.28-1.65c0-0.01,0-0.03,0-0.04l0.06-0.35L17.07,58z"/>
		<path class="st1" d="M19.95,61.63l-3.03,1.91l-0.11,1.94c0,0-3.41-2.99-3.83-3.33c-0.24-0.19-1.14-0.72-0.55-1.31
			c0.44-0.44,2.19-1.26,4.73-2.69c-0.07,0.44,0.66,1.77,1.42,1.89L19.95,61.63z"/>
		<g>
			<path class="st1" d="M25.29,75.63c-0.02,0.06-0.03,0.14-0.03,0.23h0c0,0,0.01,25.93,0.01,25.93c0,1.33,0.24,1.97,0.74,1.97
				c0.67,0,1.37-1.37,1.37-1.97l-0.01-23.06c0.01-5.35,4.37-9.71,9.73-9.71c2.78,0,5.44,1.2,7.29,3.29l0.29-0.18
				c-1.54-3.84-5.22-6.32-9.35-6.32C29.87,65.81,25.43,70.2,25.29,75.63z"/>
			<path class="st1" d="M25.45,101.8c-0.01-30.51-0.02-25.72-0.02-25.91c0-5.47,4.43-9.9,9.9-9.9c4.17,0,7.73,2.57,9.19,6.21
				c-1.82-2.05-4.47-3.35-7.42-3.35c-5.47,0-9.9,4.43-9.9,9.9c0,0.18,0.01-4.62,0.01,23.04C27.22,102.72,25.45,105.34,25.45,101.8z"
				/>
		</g>
		<g>
			<path class="st1" d="M59.19,71.79c0.77,0.36,1.26,1.14,1.26,1.98c0,1.2-0.98,2.19-2.19,2.19c-1.21,0-2.19-0.98-2.19-2.19
				c0-0.3,0.06-0.59,0.18-0.87l-0.27-0.2c-1.09,0.95-1.72,2.33-1.72,3.77c0,2.76,2.25,5,5,5c2.76,0,5.01-2.25,5.01-5
				c0-2.76-2.25-5-5.01-5L59.19,71.79z"/>
			<path class="st1" d="M59.27,71.63c0,0-0.01,0-0.01,0c0.8,0.38,1.36,1.19,1.36,2.14c0,1.3-1.06,2.36-2.36,2.36
				c-1.3,0-2.36-1.06-2.36-2.36c0-0.33,0.07-0.65,0.19-0.94c-1.01,0.89-1.66,2.18-1.66,3.63c0,2.67,2.16,4.83,4.83,4.83
				c2.67,0,4.83-2.16,4.83-4.83C64.1,73.79,61.94,71.63,59.27,71.63z"/>
		</g>
		<g>
			<path class="st1" d="M11.21,71.79c0.76,0.36,1.26,1.14,1.26,1.98c0,1.2-0.98,2.19-2.19,2.19c-1.21,0-2.19-0.98-2.19-2.19
				c0-0.3,0.06-0.59,0.18-0.87l-0.27-0.2c-1.09,0.95-1.72,2.33-1.72,3.77c0,2.76,2.25,5,5,5c2.76,0,5.01-2.25,5.01-5
				c0-2.76-2.25-5-5.01-5L11.21,71.79z"/>
			<path class="st1" d="M11.3,71.63c0,0-0.01,0-0.01,0c0.8,0.38,1.36,1.19,1.36,2.14c0,1.3-1.06,2.36-2.36,2.36
				c-1.3,0-2.36-1.06-2.36-2.36c0-0.33,0.07-0.65,0.19-0.94c-1.01,0.89-1.66,2.18-1.66,3.63c0,2.67,2.16,4.83,4.83,4.83
				s4.83-2.16,4.83-4.83C16.13,73.79,13.96,71.63,11.3,71.63z"/>
		</g>
		<path class="st1" d="M1.02,82.02C0.46,82.02,0,82.47,0,83.03c0,0.56,0.46,1.02,1.02,1.02c0,0,13.08,0,13.16,0
			c0.07,0.03,1.72,0.86,1.89,0.94c0,0.21,0,16.97,0,16.97c0,0.29,0.25,0.5,0.59,0.5l0,0c0.59,0,1.22-0.58,1.22-1.85
			c0-1.84,0.32-14.45,0.34-15.21c0.09-0.09,0.96-0.96,0.96-0.96c0.88-0.43,1.06-0.86,1.06-1.41c0-0.56-0.46-1.02-1.02-1.02H1.02z"/>
		<path class="st1" d="M20.06,83.03c0-0.47-0.38-0.84-0.84-0.84H1.02c-0.47,0-0.84,0.38-0.84,0.84c0,0.47,0.38,0.84,0.84,0.84h13.2
			l2.02,1.01v17.08c0,0.56,1.46,0.56,1.46-1.35s0.34-15.28,0.34-15.28l1.01-1.01C19.95,83.88,20.06,83.49,20.06,83.03z"/>
		<path class="st1" d="M49.22,82.02c-0.56,0-1.02,0.46-1.02,1.02c0,0.56,0.46,1.02,1.02,1.02c0,0,13.08,0,13.16,0
			c0.07,0.03,1.72,0.86,1.89,0.94c0,0.21,0,16.97,0,16.97c0,0.29,0.25,0.5,0.59,0.5l0,0c0.59,0,1.22-0.58,1.22-1.85
			c0-1.85,0.32-14.54,0.34-15.22c0.07-0.09,1.14-1.39,1.16-1.41c0.48-0.08,0.87-0.46,0.87-0.96c0-0.56-0.46-1.02-1.02-1.02H49.22z"
			/>
		<path class="st1" d="M68.26,83.03c0-0.47-0.38-0.84-0.84-0.84h-18.2c-0.47,0-0.84,0.38-0.84,0.84c0,0.47,0.38,0.84,0.84,0.84h13.2
			l2.02,1.01v17.08c0,0.56,1.46,0.56,1.46-1.35s0.34-15.28,0.34-15.28l1.21-1.46C67.89,83.86,68.26,83.49,68.26,83.03z"/>
		<g>
			<path class="st1" d="M31.87,7.34l0.2,0.28l0.97-0.42l-0.09-0.34C32.47,6.98,32.11,7.14,31.87,7.34z"/>
			<path class="st1" d="M31.98,7.48c0.3-0.17,0.64-0.33,1.01-0.44C32.58,7.13,32.21,7.28,31.98,7.48z"/>
			<path class="st1" d="M32.95,0.58l0.08,0.33c1.07,0.01,2.05,0.45,2.69,1.21c0.54,0.64,0.82,1.45,0.82,2.38
				c0,0.22-0.02,0.44-0.05,0.67c-0.24,0-0.97,0-0.97,0l-0.39,0c-3.41,0-7.03,0.69-7.03,1.97c0,0.84,1.78,1.35,2.83,1.57l0.15,0.03
				l0.05-0.15c0.14-0.42,1.09-1.24,1.9-1.39c0.47-0.14,0.93-0.19,1.39-0.15c2.72,0,2.99,1.72,3,4.16c-0.32-0.02-1.52-0.1-1.52-0.1
				l-0.33,0c-2.2,0-4.71,0.09-6.7,1.18c-0.67,0.37-0.78,0.75-0.67,0.96c0.08,0.15,0.3,0.25,0.6,0.1c0.73-0.37,1.95-0.76,2.18-0.54
				c0.06,0.06,0.04,0.22-0.05,0.43l-0.33,0.71c-0.29,0.6-0.52,1.06-0.69,1.91c-0.09,0.47,0.07,1.38,0.41,1.48
				c0.07,0.02,0.26,0.04,0.37-0.26l0.08-0.19c1.65-3.75,3.47-4.53,4.7-4.53c7.19,0,9.36,10.43,9.38,10.53
				c0.09,0.47,0.28,0.8,0.55,0.95c0.28,0.16,0.54,0.09,0.57,0.08l0.11-0.04l0.01-0.11c0.02-0.28,0.04-0.59,0.04-0.91
				c0-2.25-0.56-5.17-1.04-6.63c2.51,2.11,3.17,5.2,3.17,7.79c0,0.37-0.01,0.73-0.04,1.07l-0.01,0.13l4.29,1.47v-0.24
				c0-6.98-4.69-12.69-12.24-14.95c0-0.22,0.05-2.79,0.05-3.01c1.24-0.34,1.86-0.79,1.86-1.36c0-0.59-0.91-1.15-1.8-1.45
				c0-0.19,0.01-0.63,0.01-0.63l-0.01-0.28c0-2.82-2.06-4.78-5-4.78C34.5,0,33.7,0.2,32.95,0.58z"/>
			<path class="st1" d="M52.3,26.46c0-7.19-4.94-12.7-12.25-14.83l0.06-3.26c1.24-0.33,1.85-0.74,1.85-1.24
				c0-0.44-0.78-1.02-1.8-1.33c0.04-0.24,0-0.77,0-1.03c0-2.79-2.04-4.61-4.83-4.61c-0.83,0-1.62,0.21-2.31,0.56
				c2.18,0.02,4.06,1.74,3.61,4.6c-0.31-0.01-1.19,0-1.52,0c-3.79,0-6.85,0.8-6.85,1.8c0,0.56,1.17,1.07,2.7,1.4
				c0.17-0.51,1.18-1.35,2.04-1.51c0.44-0.13,0.93-0.19,1.43-0.15c3.05,0,3.16,2.16,3.16,4.52c-0.88-0.13-1.1-0.11-2.02-0.11
				c-2.35,0-4.72,0.12-6.62,1.16c-0.89,0.48-0.69,0.97-0.24,0.75c0.45-0.23,3-1.34,2.36,0.11c-0.45,1.01-0.79,1.46-1.01,2.58
				c-0.12,0.59,0.22,1.69,0.45,1.12c0.02-0.04,0.05-0.11,0.08-0.19c0.42-0.96,2.07-4.64,4.86-4.64c6.97,0,9.33,9.55,9.55,10.67
				c0.22,1.12,0.9,0.9,0.9,0.9c0.22-2.58-0.67-6.97-1.24-8.09c3.15,2.25,3.93,5.95,3.71,9.44L52.3,26.46z"/>
			<path class="st1" d="M32.95,6.87l0.09,0.34c0.41-0.09,0.89-0.14,1.39-0.14l0.01-0.35C33.95,6.67,33.44,6.72,32.95,6.87z"/>
			<path class="st1" d="M32.99,7.04c0.44-0.1,0.95-0.15,1.43-0.15C33.92,6.85,33.44,6.91,32.99,7.04z"/>
		</g>
	</g>
</g>
</svg>
