<?xml version="1.0" encoding="UTF-8"?> <!-- Generator: Adobe Illustrator 23.1.1, SVG Export Plug-In . SVG Version: 6.00 Build 0) --> <svg xmlns="http://www.w3.org/2000/svg" xmlns:xlink="http://www.w3.org/1999/xlink" id="Layer_1" x="0px" y="0px" viewBox="0 0 377 94" style="enable-background:new 0 0 377 94;" xml:space="preserve"> <style type="text/css"> .st0{fill:#282829;} .st1{fill:#007539;} .st2{fill:#2F8F44;} </style> <g> <g> <polygon class="st0" points="21.3,28.5 17.9,29.3 28.9,77.8 32.5,77.8 "></polygon> <polygon class="st1" points="28.5,20.3 25.1,21 38.1,77.8 41.6,77.8 "></polygon> <polygon class="st0" points="38.6,24.5 35.2,25.3 47.2,77.8 50.7,77.8 "></polygon> <polygon class="st1" points="45.8,16.2 42.4,17 56.3,77.8 59.8,77.8 "></polygon> <polygon class="st0" points="55.9,20.4 52.5,21.2 65.4,77.8 68.9,77.8 "></polygon> <polygon class="st0" points="21.3,28.5 17.9,29.3 28.9,77.8 32.5,77.8 "></polygon> <polygon class="st1" points="28.5,20.3 25.1,21 38.1,77.8 41.6,77.8 "></polygon> <polygon class="st0" points="38.6,24.5 35.2,25.3 47.2,77.8 50.7,77.8 "></polygon> <polygon class="st1" points="45.8,16.2 42.4,17 56.3,77.8 59.8,77.8 "></polygon> <polygon class="st0" points="55.9,20.4 52.5,21.2 65.4,77.8 68.9,77.8 "></polygon> </g> <g> <g> <path class="st2" d="M87.3,67.3c-1.1-0.3-1.9-0.6-2.4-1.1c-0.5-0.4-0.8-0.9-0.8-1.6c0-0.7,0.3-1.3,0.9-1.7 c0.6-0.5,1.4-0.7,2.4-0.7c0.7,0,1.3,0.1,1.8,0.4c0.5,0.2,0.9,0.6,1.2,1c0.3,0.4,0.4,0.9,0.4,1.4h-1.3c0-0.5-0.2-1-0.6-1.3 c-0.4-0.3-0.9-0.5-1.6-0.5c-0.6,0-1.1,0.1-1.5,0.4c-0.4,0.3-0.5,0.6-0.5,1.1c0,0.4,0.2,0.7,0.5,0.9c0.3,0.3,0.9,0.5,1.7,0.7 c0.8,0.2,1.5,0.4,1.9,0.7c0.5,0.3,0.8,0.5,1,0.9c0.2,0.3,0.3,0.7,0.3,1.2c0,0.7-0.3,1.3-0.9,1.7c-0.6,0.4-1.4,0.7-2.5,0.7 c-0.7,0-1.3-0.1-1.9-0.4c-0.6-0.2-1-0.6-1.4-1c-0.3-0.4-0.5-0.9-0.5-1.4h1.3c0,0.5,0.2,1,0.7,1.3c0.4,0.3,1,0.5,1.8,0.5 c0.7,0,1.2-0.1,1.6-0.4c0.4-0.3,0.5-0.6,0.5-1s-0.2-0.8-0.5-1C88.8,67.8,88.2,67.5,87.3,67.3z"></path> <path class="st2" d="M102.3,62.4v6.1c0,0.8-0.3,1.5-0.9,2.1c-0.6,0.5-1.4,0.8-2.3,0.9l-0.3,0c-1.1,0-1.9-0.3-2.6-0.8 c-0.6-0.5-1-1.3-1-2.2v-6.1h1.3v6c0,0.6,0.2,1.1,0.6,1.5c0.4,0.4,0.9,0.5,1.7,0.5c0.7,0,1.3-0.2,1.7-0.5c0.4-0.4,0.6-0.9,0.6-1.5 v-6H102.3z"></path> <path class="st2" d="M110.7,67.7h-2.3v3.6h-1.3v-8.9h3.2c1.1,0,2,0.2,2.5,0.7c0.6,0.5,0.9,1.1,0.9,2c0,0.6-0.2,1-0.5,1.5 c-0.3,0.4-0.8,0.7-1.4,0.9l2.3,3.8v0.1h-1.4L110.7,67.7z M108.4,66.7h2c0.6,0,1.2-0.2,1.5-0.5c0.4-0.3,0.6-0.7,0.6-1.2 c0-0.6-0.2-1-0.5-1.3c-0.4-0.3-0.9-0.4-1.6-0.4h-2V66.7z"></path> <path class="st2" d="M125.6,70.1c-0.3,0.4-0.8,0.8-1.4,1c-0.6,0.2-1.3,0.3-2.1,0.3c-0.8,0-1.5-0.2-2.1-0.5 c-0.6-0.3-1.1-0.8-1.4-1.5c-0.3-0.6-0.5-1.4-0.5-2.2v-0.8c0-1.3,0.3-2.4,1-3.1c0.7-0.7,1.7-1.1,2.9-1.1c1,0,1.8,0.2,2.5,0.7 c0.6,0.5,1,1.2,1.1,2h-1.3c-0.2-1.2-1-1.8-2.3-1.8c-0.9,0-1.5,0.3-2,0.8c-0.4,0.6-0.7,1.4-0.7,2.4v0.7c0,1,0.3,1.8,0.8,2.4 c0.5,0.6,1.2,0.9,2,0.9c0.5,0,0.9,0,1.3-0.1c0.4-0.1,0.7-0.3,0.9-0.5v-2H122v-1h3.6V70.1z"></path> <path class="st2" d="M136.1,67.2h-4.3v3.2h4.9v1h-6.2v-8.9h6.2v1h-4.9v2.9h4.3V67.2z"></path> <path class="st2" d="M144.7,67.7h-2.3v3.6h-1.3v-8.9h3.2c1.1,0,2,0.2,2.5,0.7c0.6,0.5,0.9,1.1,0.9,2c0,0.6-0.2,1-0.5,1.5 c-0.3,0.4-0.8,0.7-1.4,0.9l2.3,3.8v0.1h-1.4L144.7,67.7z M142.4,66.7h2c0.6,0,1.2-0.2,1.5-0.5c0.4-0.3,0.6-0.7,0.6-1.2 c0-0.6-0.2-1-0.5-1.3c-0.4-0.3-0.9-0.4-1.6-0.4h-2V66.7z"></path> <path class="st2" d="M155,66.8l2.6-4.5h1.5l-3.4,5.6v3.3h-1.3v-3.3l-3.4-5.6h1.5L155,66.8z"></path> <path class="st2" d="M176.5,68.4c-0.1,0.9-0.5,1.7-1.1,2.2c-0.6,0.5-1.5,0.8-2.6,0.8c-1.2,0-2.1-0.4-2.8-1.1c-0.7-0.8-1-1.8-1-3 v-0.9c0-0.8,0.2-1.6,0.5-2.2c0.3-0.6,0.8-1.1,1.4-1.4c0.6-0.3,1.3-0.5,2.1-0.5c1,0,1.9,0.3,2.5,0.8c0.6,0.5,1,1.3,1.1,2.2h-1.3 c-0.1-0.7-0.4-1.2-0.7-1.5c-0.4-0.3-0.9-0.5-1.6-0.5c-0.8,0-1.5,0.3-1.9,0.8c-0.5,0.6-0.7,1.3-0.7,2.4v0.9c0,1,0.2,1.7,0.7,2.3 c0.4,0.6,1.1,0.9,1.9,0.9c0.7,0,1.3-0.1,1.7-0.4c0.4-0.3,0.6-0.8,0.8-1.5H176.5z"></path> <path class="st2" d="M186.6,67.2h-4.3v3.2h4.9v1H181v-8.9h6.2v1h-4.9v2.9h4.3V67.2z"></path> <path class="st2" d="M199.2,71.3h-1.3l-4.9-6.9v6.9h-1.3v-8.9h1.3l5,6.9v-6.9h1.3V71.3z"></path> <path class="st2" d="M210.8,63.3h-3.2v8h-1.3v-8h-3.1v-1h7.6V63.3z"></path> <path class="st2" d="M220.6,67.2h-4.3v3.2h4.9v1H215v-8.9h6.2v1h-4.9v2.9h4.3V67.2z"></path> <path class="st2" d="M229.2,67.7h-2.3v3.6h-1.3v-8.9h3.2c1.1,0,2,0.2,2.5,0.7c0.6,0.5,0.9,1.1,0.9,2c0,0.6-0.2,1-0.5,1.5 c-0.3,0.4-0.8,0.7-1.4,0.9l2.3,3.8v0.1h-1.4L229.2,67.7z M226.9,66.7h2c0.6,0,1.2-0.2,1.5-0.5c0.4-0.3,0.6-0.7,0.6-1.2 c0-0.6-0.2-1-0.5-1.3c-0.4-0.3-0.9-0.4-1.6-0.4h-2V66.7z"></path> <path class="st2" d="M250.6,67.1c0,0.9-0.2,1.6-0.5,2.3c-0.3,0.7-0.8,1.1-1.4,1.5c-0.6,0.3-1.3,0.5-2.1,0.5 c-0.8,0-1.5-0.2-2.1-0.5c-0.6-0.3-1.1-0.8-1.4-1.5c-0.3-0.6-0.5-1.4-0.5-2.2v-0.6c0-0.9,0.2-1.6,0.5-2.3c0.3-0.7,0.8-1.2,1.4-1.5 c0.6-0.3,1.3-0.5,2.1-0.5c0.8,0,1.5,0.2,2.1,0.5c0.6,0.3,1.1,0.8,1.4,1.5c0.3,0.7,0.5,1.4,0.5,2.3V67.1z M249.3,66.5 c0-1.1-0.2-1.9-0.7-2.4c-0.5-0.6-1.1-0.8-2-0.8c-0.8,0-1.5,0.3-1.9,0.8c-0.5,0.6-0.7,1.4-0.7,2.4v0.7c0,1,0.2,1.8,0.7,2.4 c0.5,0.6,1.1,0.9,2,0.9c0.8,0,1.5-0.3,1.9-0.8c0.5-0.6,0.7-1.3,0.7-2.4V66.5z"></path> <path class="st2" d="M260.7,67.3h-4.1v3.9h-1.3v-8.9h6.1v1h-4.8v3.1h4.1V67.3z"></path> <path class="st2" d="M279.4,71.3h-1.3l-4.9-6.9v6.9h-1.3v-8.9h1.3l5,6.9v-6.9h1.3V71.3z"></path> <path class="st2" d="M290,67.2h-4.3v3.2h4.9v1h-6.2v-8.9h6.2v1h-4.9v2.9h4.3V67.2z"></path> <path class="st2" d="M297.2,68.5l0.2,1.2l0.3-1.1l1.9-6.2h1.1l1.9,6.2l0.3,1.1l0.2-1.2l1.5-6.1h1.3l-2.4,8.9h-1.2l-2-6.5 l-0.2-0.7l-0.2,0.7l-2.1,6.5h-1.2l-2.4-8.9h1.3L297.2,68.5z"></path> <path class="st2" d="M319.2,66.8l2.6-4.5h1.5l-3.4,5.6v3.3h-1.3v-3.3l-3.4-5.6h1.5L319.2,66.8z"></path> <path class="st2" d="M334.7,67.1c0,0.9-0.2,1.6-0.5,2.3c-0.3,0.7-0.8,1.1-1.4,1.5c-0.6,0.3-1.3,0.5-2.1,0.5 c-0.8,0-1.5-0.2-2.1-0.5c-0.6-0.3-1.1-0.8-1.4-1.5c-0.3-0.6-0.5-1.4-0.5-2.2v-0.6c0-0.9,0.2-1.6,0.5-2.3c0.3-0.7,0.8-1.2,1.4-1.5 c0.6-0.3,1.3-0.5,2.1-0.5c0.8,0,1.5,0.2,2.1,0.5c0.6,0.3,1.1,0.8,1.4,1.5c0.3,0.7,0.5,1.4,0.5,2.3V67.1z M333.4,66.5 c0-1.1-0.2-1.9-0.7-2.4c-0.5-0.6-1.1-0.8-2-0.8c-0.8,0-1.5,0.3-1.9,0.8c-0.5,0.6-0.7,1.4-0.7,2.4v0.7c0,1,0.2,1.8,0.7,2.4 c0.5,0.6,1.1,0.9,2,0.9c0.8,0,1.5-0.3,1.9-0.8c0.5-0.6,0.7-1.3,0.7-2.4V66.5z"></path> <path class="st2" d="M343,67.7h-2.3v3.6h-1.3v-8.9h3.2c1.1,0,2,0.2,2.5,0.7c0.6,0.5,0.9,1.1,0.9,2c0,0.6-0.2,1-0.5,1.5 c-0.3,0.4-0.8,0.7-1.4,0.9l2.3,3.8v0.1h-1.4L343,67.7z M340.6,66.7h2c0.6,0,1.2-0.2,1.5-0.5c0.4-0.3,0.6-0.7,0.6-1.2 c0-0.6-0.2-1-0.5-1.3c-0.4-0.3-0.9-0.4-1.6-0.4h-2V66.7z"></path> <path class="st2" d="M353.1,67.1l-1.2,1.1v3h-1.3v-8.9h1.3v4.4l4.4-4.4h1.6l-3.9,3.9l4.2,5h-1.6L353.1,67.1z"></path> </g> <g> <path class="st0" d="M99.4,45.1L98,51.5H82.8v-1.1h2.1l0.2-0.2v-18L84.9,32h-2.1v-1.1h8.3V32h-2.1l-0.2,0.2v18l0.2,0.2h2.8 c3.2,0,5.3-1.9,6.5-5.4H99.4z"></path> <path class="st0" d="M127.6,50.4v1.1h-8.2v-1.1h1.9l0.2-0.2l-2.2-5.8h-7.4l-2.3,5.8l0.2,0.2h2.6v1.1h-6.2v-1.1h1.8l7.7-19.5h2.3 l7.5,19.5H127.6z M118.9,43.3l-3.1-8.4h-0.2l-3.3,8.4H118.9z"></path> <path class="st0" d="M150,45.8c0,3.8-2.9,6-7.2,6c-2.1,0-3.8-0.6-5.3-1.4l-0.6,1.1h-1.1c-0.2-2.1-0.6-4.9-1.1-6.8l1-0.3 c2,4.8,4.9,6.2,7.2,6.2c1.9,0,4-1,4-3.3c0-5.4-11.3-3.8-11.3-10.8c0-3.6,2.9-5.9,7-5.9c1.8,0,3.2,0.5,4.6,1.4l0.6-1.1h1.1 c0.2,2.1,0.6,4.3,1,6.2l-1,0.3c-1.7-4.6-4.5-5.6-6.5-5.6c-2.2,0-3.7,1.2-3.7,3.1C138.7,40.1,150,38.3,150,45.8z"></path> <path class="st0" d="M176.1,45.7l-1.3,5.8h-15.6v-1.1h2.1l0.2-0.2v-18l-0.2-0.2h-2.1v-1.1h15.3l1.1,4.9l-1,0.3 c-1.1-3.2-3.1-4.2-6.4-4.2h-2.8l-0.2,0.2v8.1h2.4c1.8,0,3-1,3.1-3.4h1.1v7.8h-1.1c-0.1-2.4-1.3-3.4-3.1-3.4h-2.4v8.9l0.2,0.2h3.1 c3.3,0,5.4-1.5,6.5-4.8H176.1z"></path> <path class="st0" d="M205.1,50.4v1.1h-9.1v-1.1h2.2l0.2-0.2l-5.8-8.2h-2v8.2l0.2,0.2h2.1v1.1h-8.3v-1.1h2.1l0.2-0.2v-18l-0.2-0.2 h-2.1v-1.1h9.6c3.7,0,7.7,1.4,7.7,5.3c0,2.9-2.6,4.8-5.3,5.5l6.3,8.8H205.1z M190.5,40.9h2.7c2.6,0,4.7-1,4.7-4.5 c0-2.9-2.2-4.5-4.7-4.5h-2.5l-0.2,0.2V40.9z"></path> <path class="st0" d="M246.1,50.4v1.1h-5.7l-1.6-1.7c-1.7,1.2-3.8,2-6.3,2c-4.3,0-7.5-2.2-7.5-5.7c0-2.8,2.1-4.6,5.2-5.7 c-1.7-1.9-2.5-3.3-2.5-5c0-2.9,2.4-4.9,5.7-4.9c3,0,5.3,1.6,5.3,4.1c0,1.9-1.3,3.9-4.2,5.2l5.7,6.1c0.7-1.6,0.8-3.4,0.1-5h-1.8 v-1.1h7v1.1h-1.7l-0.2,0.2c0,1.8-0.7,4.1-2.2,6.2l3,3.2H246.1z M238,48.9l-7-7.5c0,0-0.1-0.1-0.1-0.1c-1.6,1.1-2.2,2.7-2.2,4.5 c0,2.7,1.7,4.7,4.8,4.7C235.3,50.4,236.8,49.8,238,48.9z M231.1,34.5c0,1.4,0.8,2.6,2.5,4.4l0.1,0.2c1.5-1,2.1-3,2.1-4.3 c0-1.8-1.1-2.9-2.4-2.9C231.9,31.8,231.1,33.1,231.1,34.5z"></path> <path class="st0" d="M283.1,45.8c0,3.8-2.9,6-7.2,6c-2.1,0-3.8-0.6-5.3-1.4l-0.6,1.1h-1.1c-0.2-2.1-0.6-4.9-1.1-6.8l1-0.3 c2,4.8,4.9,6.2,7.2,6.2c1.9,0,4-1,4-3.3c0-5.4-11.3-3.8-11.3-10.8c0-3.6,2.9-5.9,7-5.9c1.8,0,3.2,0.5,4.6,1.4l0.6-1.1h1.1 c0.2,2.1,0.6,4.3,1,6.2l-1,0.3c-1.7-4.6-4.5-5.6-6.5-5.6c-2.2,0-3.7,1.2-3.7,3.1C271.8,40.1,283.1,38.3,283.1,45.8z"></path> <path class="st0" d="M313,50.4v1.1h-9v-1.1h2.1l0.2-0.2l-6-9l-2.1,2v7l0.2,0.2h2.1v1.1h-8.3v-1.1h2.1l0.2-0.2v-18l-0.2-0.2h-2.1 v-1.1h8.3V32h-2.1l-0.2,0.2v9.2l9.7-9.2l-0.2-0.2h-3.2v-1.1h7.3V32h-1.7l-7,6.6l7.9,11.8H313z"></path> <path class="st0" d="M326.9,32.2v18l0.2,0.2h2.1v1.1h-8.4v-1.1h2.1l0.2-0.2v-18L323,32h-2.1v-1.1h8.4V32h-2.1L326.9,32.2z"></path> <path class="st0" d="M359.1,30.9V32h-1.9l-0.2,0.2v19.3h-2.3l-12.3-15.6h-0.2v14.3l0.2,0.2h2.5v1.1h-6.5v-1.1h2.1l0.2-0.2v-18 l-0.2-0.2h-2.1v-1.1h4.6l12.3,15.6h0.2V32.2l-0.2-0.2h-2.5v-1.1H359.1z"></path> </g> </g> </g> </svg> 