<?xml version="1.0" encoding="utf-8"?>
<!-- Generator: Adobe Illustrator 16.0.0, SVG Export Plug-In . SVG Version: 6.00 Build 0)  -->
<!DOCTYPE svg PUBLIC "-//W3C//DTD SVG 1.1//EN" "http://www.w3.org/Graphics/SVG/1.1/DTD/svg11.dtd">
<svg version="1.1" id="Layer_1" xmlns="http://www.w3.org/2000/svg" xmlns:xlink="http://www.w3.org/1999/xlink" x="0px" y="0px"
	 width="168px" height="68px" viewBox="41.5 17.5 168 68" enable-background="new 41.5 17.5 168 68" xml:space="preserve">
<path fill="#0C51A3" d="M69.099,42.612c0,1.759-0.327,3.275-0.979,4.551c-0.652,1.275-1.513,2.325-2.58,3.147
	c-1.069,0.822-2.275,1.429-3.615,1.815c-1.343,0.388-2.704,0.583-4.085,0.583h-7.486V32.631h7.259c1.419,0,2.817,0.166,4.198,0.497
	c1.378,0.332,2.609,0.879,3.687,1.643c1.076,0.766,1.944,1.791,2.607,3.077C68.767,39.133,69.099,40.723,69.099,42.612
	 M64.049,42.612c0-1.135-0.183-2.074-0.552-2.822c-0.37-0.746-0.86-1.342-1.474-1.787c-0.615-0.444-1.315-0.76-2.1-0.948
	c-0.784-0.19-1.593-0.284-2.424-0.284h-2.41v11.74h2.297c0.87,0,1.705-0.1,2.509-0.299c0.803-0.196,1.512-0.523,2.127-0.978
	c0.613-0.454,1.104-1.058,1.473-1.815C63.866,44.663,64.049,43.727,64.049,42.612"/>
<path fill="#0C51A3" d="M79.142,42.412c-0.208-0.057-0.411-0.092-0.61-0.114c-0.198-0.017-0.393-0.026-0.583-0.026
	c-0.624,0-1.147,0.114-1.572,0.339c-0.425,0.227-0.765,0.5-1.022,0.82c-0.256,0.32-0.438,0.67-0.553,1.047
	c-0.112,0.376-0.169,0.707-0.169,0.989v7.24h-4.651V38.603h4.482v2.042h0.054c0.358-0.724,0.87-1.314,1.534-1.77
	c0.66-0.458,1.426-0.687,2.295-0.687c0.189,0,0.373,0.01,0.555,0.028c0.178,0.019,0.325,0.048,0.439,0.085L79.142,42.412z"/>
<path fill="#0C51A3" d="M117.79,51.375c0,1.378-0.198,2.581-0.596,3.6c-0.394,1.021-0.955,1.866-1.672,2.538
	c-0.719,0.671-1.592,1.171-2.623,1.504c-1.032,0.33-2.169,0.496-3.417,0.496s-2.529-0.189-3.842-0.566
	c-1.314-0.38-2.455-0.929-3.417-1.646l2.324-3.316c0.681,0.604,1.433,1.053,2.255,1.346c0.821,0.293,1.631,0.44,2.424,0.44
	c1.362,0,2.37-0.36,3.021-1.079c0.651-0.72,0.977-1.674,0.977-2.864v-0.851h-0.085c-0.435,0.568-1.021,1.021-1.757,1.362
	c-0.738,0.339-1.58,0.509-2.525,0.509c-1.076,0-2.031-0.192-2.864-0.581c-0.833-0.387-1.535-0.913-2.111-1.574
	c-0.579-0.662-1.018-1.433-1.32-2.312c-0.303-0.879-0.455-1.811-0.455-2.793s0.152-1.919,0.455-2.807
	c0.302-0.889,0.741-1.674,1.32-2.353c0.576-0.682,1.278-1.224,2.111-1.633c0.833-0.406,1.777-0.609,2.836-0.609
	c0.889,0,1.738,0.181,2.553,0.54c0.811,0.358,1.464,0.917,1.955,1.673h0.059v-1.816h4.394L117.79,51.375L117.79,51.375z
	 M113.367,45.561c0-0.471-0.08-0.925-0.241-1.361c-0.161-0.435-0.392-0.817-0.694-1.148c-0.303-0.331-0.663-0.591-1.078-0.779
	c-0.417-0.19-0.888-0.285-1.418-0.285c-0.53,0-0.996,0.094-1.403,0.285c-0.409,0.188-0.752,0.443-1.034,0.765
	c-0.287,0.321-0.504,0.699-0.655,1.134s-0.227,0.896-0.227,1.389c0,0.474,0.077,0.926,0.227,1.361
	c0.15,0.436,0.369,0.818,0.655,1.149c0.282,0.33,0.625,0.594,1.034,0.794c0.407,0.198,0.873,0.297,1.403,0.297
	s1.007-0.099,1.433-0.297c0.424-0.2,0.783-0.459,1.076-0.781c0.294-0.321,0.52-0.7,0.681-1.133
	C113.287,46.516,113.367,46.054,113.367,45.561"/>
<path fill="#0C51A3" d="M119.15,40.512c0.833-0.792,1.801-1.389,2.907-1.785c1.105-0.397,2.234-0.596,3.387-0.596
	c1.191,0,2.198,0.146,3.021,0.439c0.823,0.293,1.49,0.748,2,1.361c0.511,0.615,0.884,1.39,1.12,2.326
	c0.236,0.935,0.355,2.047,0.355,3.332v7.12h-4.256v-1.504h-0.084c-0.359,0.585-0.903,1.039-1.631,1.36
	c-0.728,0.32-1.517,0.482-2.369,0.482c-0.566,0-1.154-0.077-1.757-0.226c-0.606-0.151-1.159-0.398-1.659-0.738
	c-0.501-0.339-0.912-0.793-1.235-1.361c-0.32-0.567-0.48-1.267-0.48-2.101c0-1.019,0.277-1.843,0.836-2.465
	c0.558-0.625,1.277-1.106,2.155-1.447c0.882-0.338,1.857-0.566,2.936-0.68c1.077-0.112,2.126-0.17,3.147-0.17v-0.227
	c0-0.699-0.245-1.215-0.737-1.544c-0.493-0.332-1.098-0.496-1.814-0.496c-0.662,0-1.301,0.141-1.915,0.425
	c-0.614,0.281-1.14,0.623-1.573,1.02L119.15,40.512z M127.685,46.552h-0.595c-0.511,0-1.025,0.025-1.545,0.073
	c-0.521,0.047-0.983,0.136-1.39,0.268c-0.406,0.134-0.742,0.327-1.007,0.583c-0.264,0.255-0.397,0.591-0.397,1.007
	c0,0.265,0.062,0.493,0.185,0.681c0.123,0.188,0.278,0.34,0.47,0.452c0.188,0.115,0.405,0.195,0.649,0.242
	c0.246,0.047,0.483,0.072,0.709,0.072c0.944,0,1.668-0.261,2.168-0.781c0.501-0.519,0.752-1.224,0.752-2.113V46.552L127.685,46.552z
	"/>
<path fill="#0C51A3" d="M142.325,42.412c-0.211-0.057-0.413-0.092-0.61-0.114c-0.2-0.017-0.394-0.026-0.582-0.026
	c-0.624,0-1.149,0.114-1.573,0.339c-0.426,0.227-0.767,0.5-1.021,0.82c-0.256,0.32-0.441,0.67-0.553,1.047
	c-0.114,0.376-0.168,0.707-0.168,0.989v7.24h-4.651V38.603h4.48v2.042h0.058c0.356-0.724,0.869-1.314,1.53-1.77
	c0.661-0.458,1.427-0.687,2.295-0.687c0.191,0,0.373,0.01,0.555,0.028c0.18,0.019,0.325,0.048,0.44,0.085L142.325,42.412z"/>
<polygon fill="#0C51A3" points="162.996,52.708 158.318,52.708 155.538,43.917 155.481,43.917 152.759,52.708 148.082,52.708 
	143.203,38.584 148.222,38.584 150.661,47.518 150.747,47.518 153.269,38.584 157.949,38.584 160.556,47.518 160.614,47.518 
	163.08,38.584 167.9,38.584 "/>
<path fill="#0C51A3" d="M167.816,40.512c0.832-0.792,1.801-1.389,2.907-1.785c1.105-0.397,2.233-0.596,3.388-0.596
	c1.19,0,2.198,0.146,3.021,0.439c0.821,0.293,1.489,0.748,1.998,1.361c0.513,0.615,0.884,1.39,1.121,2.326
	c0.236,0.935,0.356,2.047,0.356,3.332v7.12h-4.256v-1.504h-0.086c-0.359,0.585-0.903,1.039-1.629,1.36
	c-0.729,0.32-1.517,0.482-2.368,0.482c-0.567,0-1.154-0.077-1.759-0.226c-0.604-0.151-1.158-0.398-1.658-0.738
	c-0.501-0.339-0.911-0.793-1.233-1.361c-0.321-0.567-0.482-1.267-0.482-2.101c0-1.019,0.279-1.843,0.837-2.465
	c0.557-0.625,1.275-1.106,2.155-1.447c0.879-0.338,1.857-0.566,2.936-0.68c1.077-0.112,2.126-0.17,3.146-0.17v-0.227
	c0-0.699-0.246-1.215-0.735-1.544c-0.493-0.332-1.097-0.496-1.815-0.496c-0.664,0-1.3,0.141-1.914,0.425
	c-0.616,0.281-1.14,0.623-1.574,1.02L167.816,40.512z M176.352,46.552h-0.595c-0.51,0-1.025,0.025-1.547,0.073
	c-0.52,0.047-0.984,0.136-1.389,0.268c-0.406,0.134-0.743,0.327-1.008,0.583c-0.266,0.255-0.396,0.591-0.396,1.007
	c0,0.265,0.06,0.493,0.185,0.681c0.122,0.188,0.277,0.34,0.469,0.452c0.188,0.115,0.404,0.195,0.65,0.242
	c0.247,0.047,0.483,0.072,0.709,0.072c0.947,0,1.671-0.261,2.171-0.781c0.499-0.519,0.751-1.224,0.751-2.113V46.552L176.352,46.552z
	"/>
<rect x="181.83" y="31.27" fill="#0C51A3" width="4.733" height="21.439"/>
<path fill="#0C51A3" d="M196.983,42.752c-0.381-0.357-0.823-0.66-1.332-0.907c-0.513-0.244-1.05-0.368-1.618-0.368
	c-0.436,0-0.836,0.084-1.205,0.256c-0.369,0.17-0.553,0.463-0.553,0.879c0,0.396,0.204,0.679,0.608,0.851
	c0.407,0.169,1.063,0.359,1.972,0.566c0.53,0.114,1.064,0.275,1.603,0.483s1.025,0.481,1.46,0.822
	c0.433,0.338,0.784,0.755,1.049,1.248c0.267,0.492,0.397,1.077,0.397,1.758c0,0.889-0.179,1.639-0.539,2.255
	c-0.359,0.614-0.826,1.111-1.403,1.488c-0.578,0.377-1.226,0.651-1.943,0.82c-0.717,0.172-1.437,0.257-2.154,0.257
	c-1.153,0-2.282-0.185-3.389-0.553c-1.107-0.369-2.028-0.911-2.766-1.631l2.609-2.75c0.416,0.452,0.925,0.833,1.531,1.133
	c0.604,0.303,1.248,0.454,1.927,0.454c0.38,0,0.752-0.09,1.123-0.27c0.367-0.179,0.552-0.496,0.552-0.949
	c0-0.435-0.229-0.757-0.681-0.965c-0.454-0.207-1.163-0.425-2.128-0.652c-0.493-0.113-0.984-0.265-1.474-0.453
	c-0.492-0.189-0.93-0.445-1.318-0.765c-0.389-0.322-0.704-0.72-0.95-1.192c-0.245-0.472-0.37-1.039-0.37-1.702
	c0-0.849,0.181-1.573,0.54-2.169c0.359-0.596,0.823-1.083,1.39-1.46c0.568-0.378,1.194-0.656,1.887-0.836
	c0.688-0.179,1.374-0.269,2.057-0.269c1.058,0,2.093,0.165,3.104,0.495c1.011,0.332,1.865,0.828,2.564,1.489L196.983,42.752z"/>
<path fill="#0C51A3" d="M95.021,32.631h-2.278h-2.278L82.01,52.708h1.438h3.856h0.341c1.163-1.644,3.011-2.713,5.099-2.713
	c2.088,0,3.936,1.069,5.099,2.713h0.341h3.856h1.438L95.021,32.631z M92.743,47.067c-1.166,0-2.392,0.241-3.652,0.805l3.652-9.883
	l3.652,9.883C95.135,47.308,93.91,47.067,92.743,47.067"/>
<path fill="#63D0DF" d="M124.736,68.459h-4.171v1.188c0,1.244,0.863,1.696,2.418,1.696c1.074,0,2.291-0.212,2.291-0.212v1.584
	c0,0-1.188,0.24-2.645,0.24c-2.983,0-4.058-1.272-4.058-3.38v-6.828h6.702v1.626h-4.708v2.474h4.171V68.459L124.736,68.459z"/>
<path fill="#63D0DF" d="M128.454,64.967v4.92c0,1.314,0.792,1.456,1.569,1.456c0.861,0,1.386-0.184,1.386-0.184v-6.192h1.952v7.141
	c0,2.502-1.146,3.789-3.72,3.789c-1.329,0-2.305-0.369-2.305-0.369l0.242-1.498c0,0,0.763,0.312,1.852,0.312
	c1.556,0,2.092-0.707,2.12-1.642c-0.423,0.099-0.961,0.169-1.61,0.169c-2.192,0-3.423-0.706-3.423-3.166v-4.736L128.454,64.967
	L128.454,64.967z"/>
<path fill="#63D0DF" d="M136.569,69.363c0,0.948,0.396,2.036,2.021,2.036c1.146,0,2.079-0.338,2.079-0.338l0.241,1.47
	c0,0-1.033,0.424-2.518,0.424c-2.518,0-3.774-1.414-3.774-4.085c0-2.306,1.003-4.073,3.478-4.073c2.374,0,3.21,1.442,3.21,3.21
	c0,0.438-0.058,0.891-0.157,1.356H136.569z M139.454,67.893c0-0.791-0.185-1.583-1.357-1.583c-1.159,0-1.456,0.891-1.512,1.781
	h2.869V67.893z"/>
<polygon fill="#63D0DF" points="153.026,62.747 153.026,72.786 151.033,72.786 151.033,68.516 147.033,68.516 147.033,72.786 
	145.038,72.786 145.038,62.747 147.033,62.747 147.033,66.833 151.033,66.833 151.033,62.747 "/>
<path fill="#63D0DF" d="M157.947,72.955c-2.701,0-3.578-1.754-3.578-4.072s0.877-4.086,3.578-4.086c2.672,0,3.563,1.768,3.563,4.086
	S160.619,72.955,157.947,72.955 M157.947,66.366c-1.527,0-1.627,1.428-1.627,2.517c0,1.104,0.099,2.502,1.627,2.502
	c1.513,0,1.611-1.398,1.611-2.502C159.559,67.794,159.46,66.366,157.947,66.366"/>
<path fill="#63D0DF" d="M165.935,68.007c1.343,0.353,2.545,0.905,2.545,2.531c0,1.725-1.357,2.417-3.322,2.417
	c-1.484,0-2.445-0.395-2.445-0.395l0.255-1.472c0,0,0.918,0.34,2.163,0.34c1.018,0,1.513-0.228,1.513-0.722
	c0-0.579-0.664-0.777-1.541-1.003c-1.202-0.313-2.588-0.878-2.588-2.561c0-1.795,1.569-2.347,3.28-2.347
	c1.116,0,2.163,0.239,2.348,0.312l-0.283,1.471c0,0-0.807-0.255-1.952-0.255c-0.988,0-1.568,0.185-1.568,0.707
	C164.338,67.582,165.016,67.767,165.935,68.007"/>
<path fill="#63D0DF" d="M173.074,72.955c-0.565,0-1.018-0.099-1.357-0.184v2.954h-1.965V65.447c0,0,1.371-0.65,3.166-0.65
	c2.701,0,3.762,1.457,3.762,4.086S175.563,72.955,173.074,72.955 M172.933,66.366c-0.621,0-1.046,0.113-1.216,0.169v4.666
	c0.17,0.071,0.622,0.184,1.216,0.184c1.429,0,1.796-0.989,1.796-2.502C174.729,67.369,174.39,66.366,172.933,66.366"/>
<path fill="#63D0DF" d="M180.06,62.932c0,0.678-0.453,1.018-1.104,1.018c-0.678,0-1.117-0.34-1.117-1.018
	c0-0.651,0.439-1.005,1.117-1.005C179.606,61.927,180.06,62.28,180.06,62.932 M179.918,72.786h-1.952v-7.819h1.952V72.786z"/>
<path fill="#63D0DF" d="M183.834,66.522v3.436c0,0.905,0.311,1.427,1.145,1.427c0.538,0,1.047-0.197,1.047-0.197l0.226,1.428
	c0,0-0.622,0.34-1.712,0.34c-1.483,0-2.658-0.678-2.658-2.997v-3.436h-0.96v-1.556h0.96v-1.98l1.953-0.281v2.262h2.078v1.556
	H183.834z"/>
<path fill="#63D0DF" d="M191.624,68.501v-0.862c0-0.918-0.622-1.258-1.682-1.258c-1.217,0-2.15,0.424-2.15,0.424l-0.367-1.442
	c0.27-0.128,1.314-0.566,2.842-0.566c1.966,0,3.295,0.722,3.295,2.885v4.623c0,0-1.245,0.65-3.323,0.65
	c-2.063,0-3.224-0.665-3.224-2.277c0-1.512,1.074-2.274,3.252-2.274C190.747,68.403,191.186,68.431,191.624,68.501 M191.624,71.499
	v-1.726c-0.368-0.042-0.806-0.085-1.158-0.085c-0.864,0-1.486,0.169-1.486,1.004c0,0.819,0.595,0.99,1.345,0.99
	C191.045,71.683,191.624,71.499,191.624,71.499"/>
<rect x="195.03" y="62.04" fill="#63D0DF" width="1.953" height="10.746"/>
</svg>
