<?xml version="1.0" encoding="utf-8"?>
<!-- Generator: Adobe Illustrator 25.4.1, SVG Export Plug-In . SVG Version: 6.00 Build 0)  -->
<svg version="1.1" id="Layer_1" xmlns="http://www.w3.org/2000/svg" xmlns:xlink="http://www.w3.org/1999/xlink" x="0px" y="0px"
	 viewBox="0 0 200 32" style="enable-background:new 0 0 200 32;" xml:space="preserve">
<style type="text/css">
	.st0{fill-rule:evenodd;clip-rule:evenodd;fill:#626466;}
	.st1{fill:none;}
	.st2{clip-path:url(#SVGID_00000138536447406485160410000014732461871086069922_);}
	.st3{clip-path:url(#SVGID_00000175315028133737846300000013067679134673760413_);}
	.st4{fill-rule:evenodd;clip-rule:evenodd;fill:#C3C230;}
	.st5{fill-rule:evenodd;clip-rule:evenodd;fill:#E76827;}
	.st6{clip-path:url(#SVGID_00000054258297228559116000000010201982688870819204_);}
	.st7{fill-rule:evenodd;clip-rule:evenodd;fill:#713788;}
	.st8{clip-path:url(#SVGID_00000082332777006017023940000011996688909404843925_);}
	.st9{fill-rule:evenodd;clip-rule:evenodd;fill:#029CBB;}
</style>
<g id="BH-Logo">
	<g id="Group-18">
		<path id="Fill-1" class="st0" d="M45.5,20.9c1.6,0,2.3-0.9,2.3-2.2c0-1.3-0.8-2.2-2.4-2.2h-2.8v4.3H45.5z M45.1,14.8
			c1.4,0,2.1-0.8,2.1-1.9c0-1.1-0.6-1.9-2.1-1.9h-2.6v3.8H45.1z M40.4,9.2h4.8c2.7,0,4,1.6,4,3.5c0,1.4-0.7,2.5-2,2.9
			c1.6,0.4,2.7,1.4,2.7,3.3c0,2.2-1.5,3.9-4.3,3.9h-5.2V9.2z"/>
		<path id="Fill-3" class="st0" d="M59.6,18.5l-1.5-3.7c-0.3-0.7-0.7-1.9-0.7-2c0,0.1-0.3,1.2-0.7,2l-1.5,3.7H59.6z M57.4,9.1h0.2
			l6,13.7h-2.2l-1-2.5h-5.8l-1,2.5h-2L57.4,9.1z"/>
		<path id="Fill-5" class="st0" d="M70.5,16.1c1.8,0,2.9-0.8,2.9-2.5c0-1.7-1-2.5-2.9-2.5h-2.2v5.1H70.5z M66.2,9.2h4.4
			c2.8,0,4.9,1.4,4.9,4.4c0,3-2.1,4.4-4.9,4.4h-2.3v4.8h-2.1V9.2z"/>
		<path id="Fill-7" class="st0" d="M80.8,11.1h-4V9.2H87v1.9h-4v11.7h-2.1V11.1z"/>
		<path id="Clip-10" class="st1" d="M0.5,31.6h199V0.4H0.5V31.6z"/>
		<g>
			<defs>
				<rect id="SVGID_1_" x="0.5" y="0.4" width="199" height="31.1"/>
			</defs>
			<clipPath id="SVGID_00000023242948249679985310000009512449469059518394_">
				<use xlink:href="#SVGID_1_"  style="overflow:visible;"/>
			</clipPath>
			<g style="clip-path:url(#SVGID_00000023242948249679985310000009512449469059518394_);">
				<path id="Fill-9" class="st0" d="M89.7,22.8h2.1V9.2h-2.1V22.8z"/>
				<path id="Fill-11" class="st0" d="M94.3,20.1l1.7-1c0.6,1.1,1.5,1.9,3.1,1.9c1.4,0,2.4-0.7,2.4-1.9c0-1.2-0.8-1.7-2.3-2.4
					l-0.9-0.4c-2-0.9-3.2-1.9-3.2-4c0-2,1.6-3.5,3.8-3.5c1.8,0,3,0.7,3.8,2.1l-1.7,1c-0.5-0.9-1.1-1.3-2.2-1.3
					c-1.1,0-1.8,0.7-1.8,1.6c0,1,0.6,1.5,2,2.1l0.9,0.4c2.3,1,3.6,2.1,3.6,4.3c0,2.4-1.9,3.8-4.4,3.8C96.6,23,95.1,21.7,94.3,20.1"
					/>
				<path id="Fill-12" class="st0" d="M109.2,11.1h-4V9.2h10.2v1.9h-4v11.7h-2.1V11.1z"/>
				<path id="Fill-13" class="st0" d="M122.4,9.2h2.1v6.1h6.5V9.2h2.1v13.6h-2.1v-5.7h-6.5v5.7h-2.1V9.2z"/>
				<path id="Fill-14" class="st0" d="M136.8,9.2h8.6v1.9H139v4h5.8v1.8H139v4.1h6.8v1.9h-8.9V9.2z"/>
				<path id="Fill-15" class="st0" d="M155.7,18.5l-1.5-3.7c-0.3-0.7-0.7-1.9-0.7-2c0,0.1-0.3,1.2-0.7,2l-1.5,3.7H155.7z M153.5,9.1
					h0.2l6,13.7h-2.2l-1-2.5h-5.8l-1,2.5h-2L153.5,9.1z"/>
				<path id="Fill-16" class="st0" d="M162.1,9.2h2.1v11.7h6.3v1.9h-8.4V9.2z"/>
				<path id="Fill-17" class="st0" d="M174.2,11.1h-4V9.2h10.2v1.9h-4v11.7h-2.1V11.1z"/>
			</g>
		</g>
	</g>
	<path id="Fill-19" class="st0" d="M182.4,9h2.2v6.3h6.7V9h2.2v14h-2.2v-5.8h-6.7V23h-2.2V9z"/>
	<g id="Group-27">
		<g id="Group-22" transform="translate(319.2145 14.178678)">
			<path id="Clip-21" class="st1" d="M-123.9-5.1h4.1v4.2h-4.1V-5.1z"/>
			<g>
				<defs>
					<rect id="SVGID_00000075865695936770681240000010584092919979144887_" x="-123.9" y="-5.1" width="4.1" height="4.2"/>
				</defs>
				<clipPath id="SVGID_00000082365055971210685350000006745847627177231033_">
					<use xlink:href="#SVGID_00000075865695936770681240000010584092919979144887_"  style="overflow:visible;"/>
				</clipPath>
				<g style="clip-path:url(#SVGID_00000082365055971210685350000006745847627177231033_);">
					<path id="Fill-20" class="st0" d="M-121.4-3.8c-0.1-0.1-0.3-0.1-0.5-0.1h-0.3v0.8h0.4c0.2,0,0.3,0,0.4-0.1
						c0.2-0.1,0.2-0.2,0.2-0.4C-121.2-3.6-121.3-3.7-121.4-3.8L-121.4-3.8z M-121.8-4.2c0.3,0,0.5,0,0.6,0.1
						c0.2,0.1,0.4,0.3,0.4,0.6c0,0.2-0.1,0.4-0.2,0.4c-0.1,0.1-0.2,0.1-0.3,0.1c0.2,0,0.3,0.1,0.4,0.2c0.1,0.1,0.1,0.2,0.1,0.4v0.2
						c0,0.1,0,0.1,0,0.2c0,0.1,0,0.1,0,0.1l0,0h-0.4c0,0,0,0,0,0c0,0,0,0,0,0l0-0.1v-0.2c0-0.3-0.1-0.4-0.2-0.5
						c-0.1,0-0.2-0.1-0.4-0.1h-0.3v0.9h-0.4v-2.3H-121.8z M-123-4.3c-0.3,0.3-0.5,0.8-0.5,1.3c0,0.5,0.2,0.9,0.5,1.3
						c0.3,0.4,0.8,0.5,1.3,0.5c0.5,0,0.9-0.2,1.3-0.5c0.3-0.4,0.5-0.8,0.5-1.3c0-0.5-0.2-0.9-0.5-1.3c-0.4-0.4-0.8-0.5-1.3-0.5
						C-122.3-4.8-122.7-4.6-123-4.3L-123-4.3z M-120.3-1.5c-0.4,0.4-0.9,0.6-1.5,0.6c-0.6,0-1.1-0.2-1.5-0.6
						c-0.4-0.4-0.6-0.9-0.6-1.5c0-0.6,0.2-1.1,0.6-1.5c0.4-0.4,0.9-0.6,1.5-0.6c0.6,0,1.1,0.2,1.5,0.6c0.4,0.4,0.6,0.9,0.6,1.5
						C-119.7-2.4-119.9-1.9-120.3-1.5L-120.3-1.5z"/>
				</g>
			</g>
		</g>
		<path id="Fill-23" class="st4" d="M5.2,5.4C4.9,5.1,5.1,4.9,5.4,5.1c0.3,0.2,5.4,4.5,7.1,5.9l0-7.7c0,0-5.4-2.9-12.1-2.9
			c0,7,3.9,12.1,3.9,12.1l7.1,0C9.7,10.3,5.4,5.6,5.2,5.4"/>
		<path id="Fill-25" class="st5" d="M26.9,5.4c0.3-0.3,0.1-0.5-0.2-0.3c-0.3,0.2-5.4,4.5-7.2,5.9l0-7.7c0,0,5.4-2.9,12.1-2.9
			c0,7-3.9,12.1-3.9,12.1l-7.1,0C22.4,10.3,26.7,5.6,26.9,5.4"/>
	</g>
	<g id="Group-34" transform="translate(0 31)">
		<g id="Group-30">
			<path id="Clip-29" class="st1" d="M0.5-11.6h12.1V0.6H0.5V-11.6z"/>
			<g>
				<defs>
					<rect id="SVGID_00000003816611111162004030000006157261493413211053_" x="0.5" y="-11.6" width="12.1" height="12.2"/>
				</defs>
				<clipPath id="SVGID_00000060730061419114071220000002666440452201850558_">
					<use xlink:href="#SVGID_00000003816611111162004030000006157261493413211053_"  style="overflow:visible;"/>
				</clipPath>
				<g style="clip-path:url(#SVGID_00000060730061419114071220000002666440452201850558_);">
					<path id="Fill-28" class="st7" d="M5.2-4.5C4.9-4.2,5.1-4,5.4-4.2c0.3-0.2,5.4-4.5,7.2-6l0,7.8c0,0-5.4,3-12.1,3
						c0-7,3.9-12.2,3.9-12.2l7.1,0C9.7-9.5,5.4-4.7,5.2-4.5"/>
				</g>
			</g>
		</g>
		<g id="Group-33" transform="translate(31.232096 0)">
			<path id="Clip-32" class="st1" d="M-11.7-11.6H0.4V0.6h-12.1V-11.6z"/>
			<g>
				<defs>
					<rect id="SVGID_00000075874887062363169780000010552206233385821098_" x="-11.7" y="-11.6" width="12.1" height="12.2"/>
				</defs>
				<clipPath id="SVGID_00000139984685578573160120000006284695710940800653_">
					<use xlink:href="#SVGID_00000075874887062363169780000010552206233385821098_"  style="overflow:visible;"/>
				</clipPath>
				<g style="clip-path:url(#SVGID_00000139984685578573160120000006284695710940800653_);">
					<path id="Fill-31" class="st9" d="M-4.3-4.5C-4-4.2-4.2-4-4.5-4.2c-0.3-0.2-5.5-4.5-7.2-6l0,7.8c0,0,5.4,3,12.1,3
						c0-7-3.9-12.2-3.9-12.2l-7.1,0C-8.8-9.5-4.5-4.7-4.3-4.5"/>
				</g>
			</g>
		</g>
	</g>
</g>
</svg>
