<svg xmlns="http://www.w3.org/2000/svg" viewBox="0 0 535.49 156.1"><defs><style>.cls-1{isolation:isolate;}.cls-2{fill:#f4ac85;}.cls-2,.cls-3{opacity:0.55;mix-blend-mode:multiply;}.cls-3{fill:#fcde80;}.cls-3,.cls-4{fill-rule:evenodd;}.cls-4,.cls-5{fill:#777bbb;}.cls-6{fill:#777cb9;}</style></defs><g class="cls-1"><g id="Layer_2" data-name="Layer 2"><g id="Layer_1-2" data-name="Layer 1"><ellipse class="cls-2" cx="118.8" cy="77.12" rx="80.07" ry="43.6" transform="translate(7.63 164.89) rotate(-71.28)"/><ellipse class="cls-2" cx="74.68" cy="79.25" rx="42.63" ry="78.01" transform="translate(-21.79 28.74) rotate(-19.07)"/><path class="cls-3" d="M87.17,65.15c30.14,25.83,37.31,57.68,25.9,77C99.82,164.7,64.34,152.81,34.19,127S-8.53,66.39,6.1,49.31,57,39.33,87.17,65.15Z"/><path class="cls-3" d="M170.18,121.45c-28.35,27.58-79.09,43-96.36,25.25s2.9-63.92,31.25-91.5S173,21.61,190.24,39.36,198.53,93.87,170.18,121.45Z"/><path class="cls-4" d="M127.38,78.58s3.46-1.14,6.09-2.28,11.14-3,12.17-3,1.29-1.28.76-3-1.81-2.71-5.32-3-8.4,1.93-9.89,1.52-.45-.82,0-3S139.38,44,143.36,36s5.61-9.89,6.09-9.13-2.17,11.28-3,16,4.6,6.29,6.85,0,4.05-18.83,3-22.06-4.16-6-7.61-3.8-9.82,8.76-12.93,16-13,37-13.69,38-1.25.79-3.81.76-7.15.26-7.6,1.52a5.94,5.94,0,0,0,.76,6.09c1.9,2.3,7.6,0,7.6,0s-.9,5-2.28,10.65-6.84,25.87-6.84,25.87-5.42,3.68-7.61,6.08-8.27,8.47-9.89,8.37-1.21,1.71-2.29-3-.14-11.28,1.53-19,.62-10.71,3-17.5S98.73,82.59,100,80.1s1.9-5.47-1.53-6.85-5.29-.51-6.08,1.52a129.4,129.4,0,0,0-6.09,19c-2.82,11.3-3.8,27.39-3.8,27.39a5.66,5.66,0,0,1-2.29.76c-1.26.12-29.56,7.45-32.71,8.37s-3.32,1.35-6.08-2.28.41-18,1.52-22.82,3.87-14.87,5.32-20.55,3.82-14,4.57-17.49,1.32-2.23,3.8-9.89S63.7,39,64.24,36s1.3-4.78-1.52-5.33-5.67.51-8.37,3.8c-1.74,2.13-1.37,4.34-2.28,9.89s-7.42,19-13.7,41.09S31,127.28,31.53,129.55s2.29,5.8,3.8,6.09,3.51,3.43,7.61,3.8,12.92-1.64,17.49-3.8S82.5,128,82.5,128a14.5,14.5,0,0,0,0,3.8c.31,1,1.94,2.34,3.8,3.81s3.92,2.2,6.09,1.52,6.94-2.14,9.13-5.33a93,93,0,0,1,6.84-8.37s-2.51,9.24-3.8,14.46-3.1,11.54-.76,14.45,4.57,4.81,6.09,3,3.43-5.24,2.28-10.65-.58-9,3.8-23.59S127.38,78.58,127.38,78.58ZM186,125.75c-.94.87-6.13,4.65-7.61,4.56s-2,.12-1.52-6.08c1.08-13,4.83-28.67,7.61-39.57s9.09-32.82,13.69-44.88,5.27-9.8,6.09-12.93c1.11-4.22-3.11-4.63-3.8-4.57s-2.89.16-5.33,4.57-10.31,18-16,43.36S170,120.42,170,120.42A105.17,105.17,0,0,0,160.1,125c-4,2.19-8.81,5.14-16,6.84s-11.5-6.36-11.41-10.65,4.56-10.65,4.56-10.65A41,41,0,0,0,142.6,109c2.12-.84,11.05-8.9,14.45-12.17s7.15-8.32,8.37-12.94.32-9-2.28-10.65-6-.64-8.37.76c-10.73,6.44-19.32,21-21.3,25.11s-6.85,14.21-6.85,22.06,3.68,16.74,15.22,16.74,27.39-12.17,27.39-12.17.42,3,.76,4.56,4.54,6.1,6.84,6.85,4.29-1.13,6.85-3,7.61-9.13,7.61-9.13S186.9,124.87,186,125.75ZM148.68,88.47c3.62-4.52,8.42-7.56,9.89-6.85s-.14,2.75-3.8,7.61-14.69,14.4-14.45,12.93C140.88,98.69,145.07,93,148.68,88.47Zm116.4-2.28C264.71,83,260.26,82,259,82.38s-5.63,2.06-13.7,12.17S228.59,117,227.81,116.62s3.74-14.2,4.56-18.26c1.3-6.42,4.37-12.72,2.28-16.74s-6.27-2.06-6.84-1.52S227,83,226.28,87.71s-7.6,28.91-7.6,28.91a12.17,12.17,0,0,0-4.57,3c-2.39,2.39-10.17,9.88-11.41,10.65s-2.57.06-3-1.52-.32-9.62,0-15.22S204.3,92.88,206.5,87s4.5-7.78,4.57-9.89c.14-4.76-5.2-4.91-7.61-3.81-1.17.54-1,2.24-1.52,3s-6.87,14.61-8.37,26.62-1.75,27.35-.76,28.91,5.1,5.21,7.61,5.33,9.35-2.6,10.65-4.57,6.08-8.36,6.08-8.36-.08,5.71.77,6.84,3.41,2.79,7.6,0,8-7.78,18.26-22.82S257.48,93,257.48,93a180.54,180.54,0,0,0-4.57,23.59c-1.4,12,4.51,19.55,6.85,19.78s4.78.3,4.56-.76-.31-.91-3-6.09-.59-14.49,1.52-23.58S265.46,89.42,265.08,86.19Zm44.13,35c-1.74.76-16.51,10.73-23.59,10.65s-15.44-7-9.13-19c1.84-3.5,6.7-2.63,8.37-3.8s21.94-15.37,22.83-25.87-3.48-11-6.85-10.65S287.75,78.58,280.57,90c-9.39,14.86-12.28,24.91-12.25,32.25s3.37,16,17.3,15.72,24.54-13.91,25.87-16S310.94,120.42,309.21,121.18ZM291,88.47c4.83-5.16,7.06-8,9.13-6.85S297.8,88.88,294,92.27s-9.55,9.65-11.41,9.89C281.43,102.31,282.87,97.1,291,88.47Z"/><path class="cls-5" d="M327.34,73.38H332l8.09,22.7,8.12-22.7h4.68v27h-3.24V77.92h-.07l-8,22.48h-2.91l-8-22.48h-.08V100.4h-3.23Z"/><path class="cls-5" d="M362.18,91.62a6.6,6.6,0,0,0,6.65,6.28,6,6,0,0,0,5.83-3.52h3.66a9.76,9.76,0,0,1-9.31,6.7c-7,0-10.49-4.88-10.49-10.6S362,79.89,369,79.89c4.75,0,9.79,3,9.79,11.24v.49Zm13-3a6.11,6.11,0,0,0-6.31-5.6,6.42,6.42,0,0,0-6.55,5.6Z"/><path class="cls-5" d="M399.66,97.86h-.07c-1.34,2.08-4.2,3.22-6.86,3.22-5.45,0-9.83-3.82-9.83-10.48s4.38-10.48,9.83-10.48c2.69,0,5.48,1.06,6.86,3.21h.07V73.15h3.45V100.4h-3.45Zm-6.48,0c4.69,0,6.69-3.56,6.69-7.3,0-4.54-2.66-7.31-6.69-7.31s-6.62,2.77-6.62,7.31C386.56,94.34,388.52,97.9,393.18,97.9Z"/><path class="cls-5" d="M410.77,73.15h3.45v4.17h-3.45Zm0,7.42h3.45V100.4h-3.45Z"/><path class="cls-5" d="M439.29,93.13c-1.45,5.94-4.73,8-9.42,8-7.17,0-9.83-5.34-9.83-10.48,0-5.87,3.28-10.71,9.8-10.71,4.82,0,8.65,2.38,9.38,7.3h-3.66c-.41-2.57-2.27-4.12-5.48-4.12-4.42,0-6.38,3.18-6.38,7.41s2,7.42,6.38,7.42c3.1,0,4.79-1.47,5.55-4.77Z"/><path class="cls-5" d="M444.94,86.78c.45-5,3.55-6.89,9-6.89,3.69,0,8.31,1,8.31,5.64V96.2c0,1.17.48,1.7,1.55,1.7a6,6,0,0,0,1.21-.15v2.65a16.38,16.38,0,0,1-2.69.23c-1.73,0-2.87-.53-3.11-2.77-1.38,2-4.76,3.22-7.69,3.22-6,0-7.34-3.41-7.34-6,0-3.63,2-5.49,7.76-6.17l3.93-.45c1.93-.23,3.14-.61,3.14-2.39,0-2.72-2.42-3.25-5.21-3.25-3,0-5.48.87-5.59,3.94ZM459,90c-.52.64-1.45.91-3.38,1.17l-3.9.53c-2.69.38-4.1,1.18-4.1,3.26,0,1.85,1.69,3.14,4.2,3.14,3.9,0,7.18-2.27,7.18-5.56Z"/><path class="cls-5" d="M470.43,73.15h3.44V100.4h-3.44Z"/><path class="cls-5" d="M342.73,130h-11.6l-3,7.67h-3.78L335,111.33h4l10.71,26.31h-4Zm-5.83-15-4.45,11.64h9Z"/><path class="cls-5" d="M355.42,131.4c0,1.77,1.29,4,5.62,4s5.45-1.7,5.45-3.1-.65-2.24-3.38-2.65l-5.62-.84a5.28,5.28,0,0,1-4.83-5.26c0-4,3.13-6.39,8.14-6.39,5.86,0,8.41,2.8,8.72,6.66h-3.41c-.1-2-1.8-3.71-5.35-3.71-2.18,0-4.7.68-4.7,3,0,1.32.55,2.08,3,2.46l4.83.72c4.5.68,6.24,2.46,6.24,5.26,0,4.61-3.51,6.77-9,6.77-4.09,0-8.75-1.17-9.13-6.92Z"/><path class="cls-5" d="M378,131.4c0,1.77,1.3,4,5.62,4s5.45-1.7,5.45-3.1-.65-2.24-3.37-2.65l-5.62-.84a5.28,5.28,0,0,1-4.83-5.26c0-4,3.13-6.39,8.13-6.39,5.86,0,8.42,2.8,8.72,6.66h-3.4c-.1-2-1.81-3.71-5.35-3.71-2.18,0-4.7.68-4.7,3,0,1.32.55,2.08,3,2.46l4.84.72c4.5.68,6.23,2.46,6.23,5.26,0,4.61-3.51,6.77-8.95,6.77-4.09,0-8.76-1.17-9.13-6.92Z"/><path class="cls-5" d="M406.74,117.13c6.94,0,10.35,4.88,10.35,10.59s-3.41,10.6-10.35,10.6-10.36-4.88-10.36-10.6S399.79,117.13,406.74,117.13Zm0,3.18c-4.94,0-6.75,3.82-6.75,7.41s1.81,7.42,6.75,7.42,6.74-3.82,6.74-7.42S411.67,120.31,406.74,120.31Z"/><path class="cls-5" d="M440,130.37c-1.43,5.95-4.66,7.95-9.3,7.95-7.08,0-9.7-5.33-9.7-10.48,0-5.87,3.23-10.71,9.67-10.71,4.77,0,8.55,2.38,9.26,7.3h-3.61c-.4-2.57-2.24-4.12-5.41-4.12-4.36,0-6.3,3.18-6.3,7.41s1.94,7.42,6.3,7.42c3.06,0,4.73-1.47,5.48-4.77Z"/><path class="cls-5" d="M445.32,110.39h3.4v4.17h-3.4Zm0,7.42h3.4v19.83h-3.4Z"/><path class="cls-5" d="M455.23,124c.44-5,3.51-6.89,8.85-6.89,3.65,0,8.21,1,8.21,5.64v10.67c0,1.17.48,1.7,1.53,1.7A5.88,5.88,0,0,0,475,135v2.65a15.93,15.93,0,0,1-2.66.23c-1.7,0-2.83-.53-3.07-2.77-1.36,2.05-4.7,3.22-7.59,3.22-5.93,0-7.26-3.41-7.26-6,0-3.63,1.95-5.49,7.67-6.17l3.88-.45c1.91-.23,3.1-.61,3.1-2.38,0-2.73-2.39-3.26-5.14-3.26-2.93,0-5.42.87-5.52,3.94Zm13.86,3.25c-.51.64-1.43.91-3.34,1.17l-3.85.53c-2.65.38-4,1.18-4,3.26,0,1.85,1.67,3.14,4.16,3.14,3.84,0,7.08-2.27,7.08-5.56Z"/><path class="cls-5" d="M481.21,114h3.41v3.77h5.11v3h-5.11V131c0,1.59,1,4.1,2.76,4.1a4.92,4.92,0,0,0,1.44-.26v3.18a11.84,11.84,0,0,1-2.91.26c-3.34,0-4.7-3.76-4.7-6.64V120.76h-1.56v-3h1.56Z"/><path class="cls-5" d="M496.5,128.86a6.55,6.55,0,0,0,6.57,6.28,5.91,5.91,0,0,0,5.76-3.52h3.61a9.64,9.64,0,0,1-9.2,6.7c-6.94,0-10.35-4.88-10.35-10.6s3.41-10.59,10.35-10.59c4.71,0,9.68,3,9.68,11.24v.49Zm12.81-3a6.06,6.06,0,0,0-6.24-5.6,6.36,6.36,0,0,0-6.47,5.6Z"/><path class="cls-5" d="M520.82,131.4c0,1.77,1.29,4,5.62,4s5.44-1.7,5.44-3.1-.64-2.24-3.37-2.65l-5.62-.84a5.28,5.28,0,0,1-4.83-5.26c0-4,3.13-6.39,8.14-6.39,5.85,0,8.41,2.8,8.72,6.66h-3.41c-.1-2-1.81-3.71-5.35-3.71-2.18,0-4.7.68-4.7,3,0,1.32.55,2.08,3,2.46l4.83.72c4.5.68,6.23,2.46,6.23,5.26,0,4.61-3.5,6.77-9,6.77-4.09,0-8.76-1.17-9.13-6.92Z"/><circle class="cls-6" cx="212.82" cy="60.7" r="4.25"/><circle class="cls-6" cx="102.58" cy="60.7" r="4.25"/></g></g></g></svg>