<svg id="Layer_1" data-name="Layer 1" xmlns="http://www.w3.org/2000/svg" viewBox="0 0 792 120"><defs><style>.cls-1{fill:#000000;}.cls-2{fill:#c2d500;}</style></defs><title>Artboard 1</title><path class="cls-1" d="M16.28,78.58c-1.16-.65-2.36-1.37-3.61-2.14v0c1.24-.77,2.44-1.49,3.6-2.13L18,73.35a40.5,40.5,0,0,1,6.37-2.77,29.65,29.65,0,0,1,5.06-1.26c.46-.08.9-.13,1.34-.17l.66-.05c.44,0,.87,0,1.29,0a20.56,20.56,0,0,1,3.71.34,19.49,19.49,0,0,1-3.6-1c-.4-.15-.81-.32-1.21-.5l-.6-.29a23.22,23.22,0,0,1-2.38-1.36,39.83,39.83,0,0,1-8-7.17l-1.23-1.48c-.83-1-1.68-2.12-2.55-3.29h0c1.41-.29,2.72-.56,4.06-.73l1.95-.25a46,46,0,0,1,7-.28,28.28,28.28,0,0,1,5.16.66c.46.1.89.21,1.33.34l.63.19c.42.14.83.28,1.22.43a20.1,20.1,0,0,1,3.35,1.66,19.18,19.18,0,0,1-3-2.26c-.32-.28-.63-.59-.94-.9l-.45-.49a24.31,24.31,0,0,1-1.77-2.16,40.13,40.13,0,0,1-4.86-9.57c-.23-.6-.42-1.2-.63-1.83-.4-1.24-.79-2.57-1.16-4h0c1.42.24,2.77.51,4.05.79.63.14,1.26.3,1.89.46a45.72,45.72,0,0,1,6.61,2.28,26.59,26.59,0,0,1,4.56,2.45c.39.26.75.52,1.11.79l.53.41c.34.28.67.56,1,.85A20.41,20.41,0,0,1,51,45.89a20.38,20.38,0,0,1-2-3.18c-.19-.38-.37-.78-.55-1.18l-.25-.61a26.56,26.56,0,0,1-.86-2.65,38.25,38.25,0,0,1-1.1-10.67c0-.64,0-1.3.06-2,.07-1.32.2-2.68.35-4.11h0c1.24.74,2.41,1.48,3.51,2.21l1.59,1.09a45.51,45.51,0,0,1,5.36,4.52,31.28,31.28,0,0,1,3.35,3.9c.27.37.51.76.75,1.15.11.19.22.38.34.57.22.38.42.77.62,1.15a20.24,20.24,0,0,1,1.35,3.49,20.59,20.59,0,0,1-.68-3.66c0-.42-.06-.86-.07-1.29,0-.23,0-.44,0-.66A22.07,22.07,0,0,1,63,31.22a32.61,32.61,0,0,1,1-4.94,49.74,49.74,0,0,1,1.9-5.4l.77-1.8c.55-1.2,1.15-2.53,1.81-3.77h0c.88,1.16,1.7,2.29,2.45,3.38L72,20.31a39.68,39.68,0,0,1,3.34,6.11c.31.7.57,1.38.82,2.06V5.15h-48V32.57H.68v48h19.5c-.71-.34-1.43-.69-2.19-1.08Z"/><path class="cls-2" d="M76.17,81h27.09V39.21a58.84,58.84,0,0,0-6.4-.34,60.37,60.37,0,0,0-59.73,69.21h39Z"/><path class="cls-1" d="M127.48,11.55h21V87.93h47.6V107H127.48Z"/><path class="cls-1" d="M204.46,11.55H227.1l25.1,40.37,25.1-40.37h22.64V107H279.07V44.69L252.2,85.47h-.54L225.06,45.1V107h-20.6Z"/><path class="cls-1" d="M310,11.55h21V49.33H369.7V11.55h21V107h-21V68.7H331V107H310Z"/><path class="cls-1" d="M412.94,11.55h10.78V54h55.1V11.55H489.6V107H478.82v-43h-55.1v43H412.94Z"/><path class="cls-1" d="M501.29,72V71.7c0-20.33,14.32-36.69,33.82-36.69C556,35,568,51.65,568,72.24a28.7,28.7,0,0,1-.13,3.41H511.93c1.5,15.28,12.27,23.87,24.82,23.87,9.68,0,16.5-4,22.23-10l6.55,5.87c-7.09,7.91-15.69,13.23-29,13.23C517.11,108.66,501.29,93.79,501.29,72Zm56.05-4.09c-1.09-12.82-8.45-24-22.5-24-12.28,0-21.55,10.23-22.91,24Z"/><path class="cls-1" d="M575.59,86.56v-.27c0-14.87,12.27-22.78,30.14-22.78a75,75,0,0,1,21.69,3V64.06c0-12.69-7.78-19.23-21-19.23C598.09,44.83,591.54,47,585,50l-3.14-8.59a58.15,58.15,0,0,1,25.64-5.87c10,0,17.6,2.59,22.78,7.78,4.78,4.77,7.23,11.59,7.23,20.59V107H627.42V96.38c-4.91,6.41-13.1,12.14-25.51,12.14C588.82,108.52,575.59,101,575.59,86.56Zm52-5.45V74.29a73.56,73.56,0,0,0-20.73-3c-13.23,0-20.59,5.72-20.59,14.59v.28c0,8.86,8.18,14,17.73,14C616.91,100.2,627.55,92.29,627.55,81.11Z"/><path class="cls-1" d="M650.94,7.45h10.5V107h-10.5Z"/><path class="cls-1" d="M681.86,88.34V45.78H672V36.51h9.82V15.23h10.5V36.51h22.37v9.27H692.36V87c0,8.6,4.77,11.73,11.86,11.73a22.17,22.17,0,0,0,10.24-2.45v9a26.44,26.44,0,0,1-12.69,3C690.45,108.25,681.86,102.66,681.86,88.34Z"/><path class="cls-1" d="M727.83,7.45h10.5V48.78C743,41.14,750.33,35,762.47,35c17,0,27,11.45,27,28.23V107H779V65.83c0-13.09-7.1-21.28-19.51-21.28-12.14,0-21.14,8.87-21.14,22.1V107h-10.5Z"/></svg>