<svg id="Group_21" data-name="Group 21" xmlns="http://www.w3.org/2000/svg" width="1355" height="561.154" viewBox="0 0 1355 561.154">
  <g id="Group_15" data-name="Group 15" transform="translate(0 64.021)">
    <path id="Path_7" data-name="Path 7" d="M0,7.28H22.953V189.494h114.5v21.194H0Z" transform="translate(0 -7.28)" fill="#000f"/>
  </g>
  <g id="Group_16" data-name="Group 16" transform="translate(300.32 58.393)">
    <path id="Path_8" data-name="Path 8" d="M34.15,112.433v-.616C34.15,55.711,76.274,6.64,138.185,6.64S241.692,55.184,241.692,111.29v.616c0,56.107-42.124,105.178-104.035,105.178S34.15,168.54,34.15,112.433Zm183.709,0v-.616c0-46.169-33.682-83.984-80.2-83.984s-79.675,37.2-79.675,83.456v.616c0,46.257,33.682,83.984,80.2,83.984S217.859,158.691,217.859,112.433Z" transform="translate(-34.15 -6.64)" fill="#000f"/>
  </g>
  <g id="Group_17" data-name="Group 17" transform="translate(671.432 64.021)">
    <path id="Path_9" data-name="Path 9" d="M76.35,7.28H223.388V28.21H99.3V97.684h111.07v20.93H99.3v71.232h125.58v20.93H76.35Z" transform="translate(-76.35 -7.28)" fill="#000f"/>
  </g>
  <g id="Group_18" data-name="Group 18" transform="translate(915.909 64.109)">
    <path id="Path_10" data-name="Path 10" d="M188.75,130.232,104.15,7.29h27.877l68.594,101.748L269.832,7.29h26.734l-84.6,122.678v80.818H188.75Z" transform="translate(-104.15 -7.29)" fill="#000f"/>
  </g>
  <g id="Group_19" data-name="Group 19" transform="translate(1206.467 64.021)">
    <path id="Path_11" data-name="Path 11" d="M137.19,7.28H284.228V28.21H160.143V97.684h111.07v20.93H160.143v71.232h125.58v20.93H137.19Z" transform="translate(-137.19 -7.28)" fill="#000f"/>
  </g>
  <rect id="Rectangle_61" data-name="Rectangle 61" width="8.794" height="344.73" transform="translate(219.853)" fill="#000f"/>
  <rect id="Rectangle_62" data-name="Rectangle 62" width="8.794" height="344.73" transform="translate(576.455)" fill="#000f"/>
  <g id="Group_20" data-name="Group 20" transform="translate(173.948 446.126)">
    <path id="Path_12" data-name="Path 12" d="M129.795,132.427c-3.518,24.1-26.207,33.33-52.941,33.33-39.046,0-57.074-27.438-57.074-57.514,0-26.031,15.566-57.514,61.471-57.514,25.855,0,45.729,13.015,47.049,31.659H110.711C107.985,68.142,95.146,63.13,80.02,63.13,55.044,63.13,36.4,77.464,36.4,108.244c0,30.692,18.644,45.114,43.619,45.114,14.95,0,29.548-6.684,32.274-20.93Z" transform="translate(-19.78 -50.73)" fill="#000f"/>
    <path id="Path_13" data-name="Path 13" d="M152.548,131.868h-67.1L71.378,160.361H53.79L109.985,51.05h18.468l56.195,109.311H166.619Zm-6.068-12.4L119.218,64.417,91.781,119.468Z" transform="translate(245.298 -48.236)" fill="#000f"/>
    <path id="Path_14" data-name="Path 14" d="M106.411,160.361H90.67V51.05H144.4c33.769,0,41.332,11.344,41.332,28.933,0,13.279-9.674,23.3-24.975,25.415v.264c14.686,1.847,18.644,7.739,21.458,26.206,1.847,11.7,3.166,21.37,6.244,28.493H171.84c-2.9-7.739-4.573-23.041-7.387-35.264-1.847-7.827-6.947-13.455-27.526-13.455H106.5v48.719Zm0-61.207h35.88c16.621,0,26.822-3.957,26.822-17.852,0-13.279-7.3-17.852-26.47-17.852H106.5v35.7Z" transform="translate(532.746 -48.236)" fill="#000f"/>
    <path id="Path_15" data-name="Path 15" d="M125.54,51.05h81.7v12.4H141.281V97.923h61.735v12.4H141.282v37.551h67.8v12.4H125.54Z" transform="translate(804.527 -48.236)" fill="#000f"/>
  </g>
</svg>
