<svg xmlns="http://www.w3.org/2000/svg" xmlns:xlink="http://www.w3.org/1999/xlink" width="209" height="66" viewBox="0 0 209 66">
  <defs>
    <polygon id="logo-inverse-a" points=".814 .213 33.317 .213 33.317 8.987 .814 8.987"/>
    <polygon id="logo-inverse-c" points=".814 .213 33.317 .213 33.317 8.987 .814 8.987"/>
    <polygon id="logo-inverse-e" points=".054 .392 50.622 .392 50.622 31.16 .054 31.16"/>
  </defs>
  <g fill="none" fill-rule="evenodd">
    <polyline fill="#000" points="61.121 13.927 62.755 13.927 62.755 21.158 66.438 21.158 66.438 22.463 61.121 22.463 61.121 13.927"/>
    <path fill="#000" d="M74.2737143 18.2205205C74.2737143 19.9681644 75.1902381 21.3487397 76.76 21.3487397 78.3415238 21.3487397 79.2318095 19.9428493 79.2318095 18.1572329 79.2318095 16.5488219 78.394 15.0290137 76.76 15.0290137 75.1377619 15.0290137 74.2737143 16.4602192 74.2737143 18.2205205zM80.9599048 18.1066027C80.9599048 20.9681096 79.1395238 22.6027397 76.680381 22.6027397 74.1407143 22.6027397 72.545619 20.7529315 72.545619 18.2584932 72.545619 15.6239178 74.286381 13.7750137 76.8124762 13.7750137 79.4181905 13.7750137 80.9599048 15.6618904 80.9599048 18.1066027zM95.4044286 22.0702192C94.832619 22.2727397 93.7161429 22.5512055 92.5327143 22.5512055 91.0172381 22.5512055 89.8609524 22.184137 89.0095714 21.4120274 88.2124762 20.6896438 87.7600952 19.5631233 87.7600952 18.2702466 87.7736667 15.5606301 89.7813333 13.8383014 92.7462381 13.8383014 93.8500476 13.8383014 94.7140952 14.0534795 95.1257619 14.2433425L94.7665714 15.4973425C94.274381 15.2821644 93.6763333 15.130274 92.7326667 15.130274 90.8181905 15.130274 89.4755238 16.2061644 89.4755238 18.1952055 89.4755238 20.1327123 90.725 21.2845479 92.5860952 21.2845479 93.1850476 21.2845479 93.6102857 21.2086027 93.8229048 21.12L93.8229048 18.9799726 92.2404762 18.9799726 92.2404762 17.7512877 95.4044286 17.7512877 95.4044286 22.0702192M107.295714 18.8660548L106.590905 16.764C106.418095 16.244137 106.272429 15.6618904 106.139429 15.1682466L106.112286 15.1682466C105.979286 15.6618904 105.833619 16.2567945 105.687952 16.764L104.99581 18.8660548 107.295714 18.8660548zM104.72981 20.0441096L103.958952 22.4626027 102.269762 22.4626027 105.141476 13.9269041 107.229667 13.9269041 110.140286 22.4626027 108.372381 22.4626027 107.561714 20.0441096 104.72981 20.0441096zM117.232714 22.4626027L117.232714 13.9269041 119.107381 13.9269041 121.419952 17.5867397C122.005333 18.5369589 122.537333 19.5242466 122.949905 20.4491507L122.976143 20.4491507C122.856714 19.3090685 122.830476 18.207863 122.830476 16.9032329L122.830476 13.9269041 124.345952 13.9269041 124.345952 22.4626027 122.644095 22.4626027 120.303476 18.7015068C119.732571 17.7639452 119.14719 16.7260274 118.708381 15.7631507L118.655905 15.7758082C118.721952 16.8779178 118.74819 18.0053425 118.74819 19.4103288L118.74819 22.4626027 117.232714 22.4626027M132.061762 20.765589C132.58019 21.0567123 133.391762 21.309863 134.228667 21.309863 135.265524 21.309863 135.85 20.8415342 135.85 20.1453699 135.85 19.4989315 135.398524 19.1192055 134.268476 18.7268219 132.780143 18.2205205 131.835571 17.4728219 131.835571 16.244137 131.835571 14.8391507 133.057905 13.7876712 135.013095 13.7876712 135.983905 13.7876712 136.68781 13.9901918 137.153762 14.2180274L136.768333 15.4720274C136.435381 15.3074795 135.811095 15.0669863 134.97419 15.0669863 133.936429 15.0669863 133.498524 15.5859452 133.498524 16.0922466 133.498524 16.7513425 134.016048 17.0551233 135.212143 17.498137 136.768333 18.0559726 137.512952 18.8027671 137.512952 20.0314521 137.512952 21.4120274 136.422714 22.6027397 134.121905 22.6027397 133.165571 22.6027397 132.182095 22.3486849 131.689905 22.0575616L132.061762 20.765589M146.465571 18.0053425C146.67819 18.067726 146.929714 18.0812877 147.263571 18.0812877 148.485905 18.0812877 149.230524 17.498137 149.230524 16.5108493 149.230524 15.5606301 148.54019 15.0669863 147.409238 15.0669863 146.957762 15.0669863 146.638381 15.1049589 146.465571 15.1429315L146.465571 18.0053425zM144.843333 14.0408219C145.442286 13.9395616 146.252952 13.8636164 147.34319 13.8636164 148.54019 13.8636164 149.404238 14.1041096 149.975143 14.5597808 150.507143 14.9783836 150.852762 15.6492329 150.852762 16.4466575 150.852762 17.2576438 150.586762 17.9158356 150.095476 18.372411 149.430476 18.9926301 148.419857 19.296411 147.263571 19.296411 146.957762 19.296411 146.691762 19.2837534 146.465571 19.2331233L146.465571 22.4626027 144.843333 22.4626027 144.843333 14.0408219zM159.393714 18.2205205C159.393714 19.9681644 160.311143 21.3487397 161.88 21.3487397 163.461524 21.3487397 164.35181 19.9428493 164.35181 18.1572329 164.35181 16.5488219 163.514905 15.0290137 161.88 15.0290137 160.257762 15.0290137 159.393714 16.4602192 159.393714 18.2205205zM166.08081 18.1066027C166.08081 20.9681096 164.258619 22.6027397 161.798571 22.6027397 159.258905 22.6027397 157.665619 20.7529315 157.665619 18.2584932 157.665619 15.6239178 159.406381 13.7750137 161.933381 13.7750137 164.537286 13.7750137 166.08081 15.6618904 166.08081 18.1066027zM174.967381 17.8154795L175.937286 17.8154795C177.04019 17.8154795 177.718762 17.2576438 177.718762 16.4086849 177.718762 15.4846849 177.04019 15.0416712 175.978 15.0416712 175.458667 15.0416712 175.126619 15.0796438 174.967381 15.1176164L174.967381 17.8154795zM173.345143 14.0534795C173.970333 13.9395616 174.873286 13.8636164 175.816952 13.8636164 177.107143 13.8636164 177.97119 14.066137 178.58281 14.5471233 179.075905 14.940411 179.354571 15.5353151 179.354571 16.2703562 179.354571 17.3715616 178.570143 18.1183562 177.718762 18.397726L177.718762 18.4356986C178.37019 18.6635342 178.755619 19.2584384 178.968238 20.0820822 179.261381 21.1453151 179.500238 22.1335068 179.673048 22.4626027L177.997429 22.4626027C177.865333 22.2094521 177.639143 21.5123836 177.400286 20.4491507 177.133381 19.3343836 176.721714 18.9799726 175.790714 18.9546575L174.967381 18.9546575 174.967381 22.4626027 173.345143 22.4626027 173.345143 14.0534795z"/>
    <polyline fill="#000" points="188.546 15.232 185.994 15.232 185.994 13.927 192.76 13.927 192.76 15.232 190.182 15.232 190.182 22.463 188.546 22.463 188.546 15.232"/>
    <g transform="translate(121.238 56.959)">
      <mask id="logo-inverse-b" fill="#000">
        <use xlink:href="#logo-inverse-a"/>
      </mask>
      <polyline fill="#000" points="2.449 .365 2.449 3.785 6.239 3.785 6.239 .365 7.874 .365 7.874 8.902 6.239 8.902 6.239 5.141 2.449 5.141 2.449 8.902 .814 8.902 .814 .365 2.449 .365" mask="url(#logo-inverse-b)"/>
      <path fill="#000" d="M15.4035714 4.6579726C15.4035714 6.40652055 16.321 7.78709589 17.8898571 7.78709589 19.471381 7.78709589 20.3634762 6.38120548 20.3634762 4.59468493 20.3634762 2.98717808 19.5256667 1.46736986 17.8898571 1.46736986 16.267619 1.46736986 15.4035714 2.89767123 15.4035714 4.6579726zM22.0915714 4.5449589C22.0915714 7.40646575 20.2702857 9.04109589 17.8111429 9.04109589 15.2714762 9.04109589 13.6754762 7.19128767 13.6754762 4.69684932 13.6754762 2.06227397 15.4180476.213369863 17.9432381.213369863 20.5498571.213369863 22.0915714 2.10024658 22.0915714 4.5449589zM27.8666667 7.20484932C28.3850952 7.4959726 29.1966667 7.74821918 30.0335714 7.74821918 31.0713333 7.74821918 31.6558095 7.28079452 31.6558095 6.58282192 31.6558095 5.93728767 31.2034286 5.55756164 30.0742857 5.16517808 28.5850476 4.6579726 27.641381 3.91117808 27.641381 2.68249315 27.641381 1.27660274 28.8637143.226027397 30.8189048.226027397 31.7888095.226027397 32.493619.429452055 32.9586667.657287671L32.5732381 1.91038356C32.2411905 1.74673973 31.6150952 1.50443836 30.7781905 1.50443836 29.7404286 1.50443836 29.3025238 2.02430137 29.3025238 2.53060274 29.3025238 3.18879452 29.8218571 3.49257534 31.0179524 3.93558904 32.5732381 4.49432877 33.3169524 5.24112329 33.3169524 6.46980822 33.3169524 7.85038356 32.2267143 9.04109589 29.9277143 9.04109589 28.9704762 9.04109589 27.9860952 8.7870411 27.4948095 8.4950137L27.8666667 7.20484932" mask="url(#logo-inverse-b)"/>
    </g>
    <path fill="#000" d="M162.044667,61.4016986 C162.25819,61.4649863 162.510619,61.4776438 162.842667,61.4776438 C164.065905,61.4776438 164.809619,60.8944932 164.809619,59.9081096 C164.809619,58.9578904 164.119286,58.4633425 162.988333,58.4633425 C162.536857,58.4633425 162.217476,58.5022192 162.044667,58.5401918 L162.044667,61.4016986 Z M160.422429,57.4380822 C161.021381,57.3368219 161.832048,57.2608767 162.922286,57.2608767 C164.119286,57.2608767 164.983333,57.5013699 165.553333,57.9579452 C166.085333,58.3747397 166.431857,59.0464932 166.431857,59.8439178 C166.431857,60.6549041 166.166762,61.3130959 165.673667,61.7687671 C165.009571,62.3907945 163.998952,62.6945753 162.842667,62.6945753 C162.536857,62.6945753 162.270857,62.6810137 162.044667,62.6303836 L162.044667,65.8607671 L160.422429,65.8607671 L160.422429,57.4380822 Z"/>
    <polygon fill="#000" points="172.246 65.86 173.883 65.86 173.883 57.324 172.246 57.324"/>
    <polyline fill="#000" points="181.861 58.629 179.309 58.629 179.309 57.324 186.075 57.324 186.075 58.629 183.497 58.629 183.497 65.861 181.861 65.861 181.861 58.629"/>
    <path fill="#000" d="M194.909238,62.2633151 L194.203524,60.1612603 C194.030714,59.6413973 193.884143,59.0591507 193.751143,58.5655068 L193.724905,58.5655068 C193.59281,59.0591507 193.446238,59.6549589 193.298762,60.1612603 L192.608429,62.2633151 L194.909238,62.2633151 Z M192.343333,63.4413699 L191.570667,65.8607671 L189.883286,65.8607671 L192.755,57.3241644 L194.842286,57.3241644 L197.75381,65.8607671 L195.985,65.8607671 L195.174333,63.4413699 L192.343333,63.4413699 Z"/>
    <polyline fill="#000" points="203.395 57.324 205.029 57.324 205.029 64.555 208.712 64.555 208.712 65.861 203.395 65.861 203.395 57.324"/>
    <polyline fill="#000" points="61.121 13.927 62.755 13.927 62.755 21.158 66.438 21.158 66.438 22.463 61.121 22.463 61.121 13.927"/>
    <path fill="#000" d="M74.2737143 18.2205205C74.2737143 19.9681644 75.1902381 21.3487397 76.76 21.3487397 78.3415238 21.3487397 79.2318095 19.9428493 79.2318095 18.1572329 79.2318095 16.5488219 78.394 15.0290137 76.76 15.0290137 75.1377619 15.0290137 74.2737143 16.4602192 74.2737143 18.2205205zM80.9599048 18.1066027C80.9599048 20.9681096 79.1395238 22.6027397 76.680381 22.6027397 74.1407143 22.6027397 72.545619 20.7529315 72.545619 18.2584932 72.545619 15.6239178 74.286381 13.7750137 76.8124762 13.7750137 79.4181905 13.7750137 80.9599048 15.6618904 80.9599048 18.1066027zM95.4044286 22.0702192C94.832619 22.2727397 93.7161429 22.5512055 92.5327143 22.5512055 91.0172381 22.5512055 89.8609524 22.184137 89.0095714 21.4120274 88.2124762 20.6896438 87.7600952 19.5631233 87.7600952 18.2702466 87.7736667 15.5606301 89.7813333 13.8383014 92.7462381 13.8383014 93.8500476 13.8383014 94.7140952 14.0534795 95.1257619 14.2433425L94.7665714 15.4973425C94.274381 15.2821644 93.6763333 15.130274 92.7326667 15.130274 90.8181905 15.130274 89.4755238 16.2061644 89.4755238 18.1952055 89.4755238 20.1327123 90.725 21.2845479 92.5860952 21.2845479 93.1850476 21.2845479 93.6102857 21.2086027 93.8229048 21.12L93.8229048 18.9799726 92.2404762 18.9799726 92.2404762 17.7512877 95.4044286 17.7512877 95.4044286 22.0702192M107.295714 18.8660548L106.590905 16.764C106.418095 16.244137 106.272429 15.6618904 106.139429 15.1682466L106.112286 15.1682466C105.979286 15.6618904 105.833619 16.2567945 105.687952 16.764L104.99581 18.8660548 107.295714 18.8660548zM104.72981 20.0441096L103.958952 22.4626027 102.269762 22.4626027 105.141476 13.9269041 107.229667 13.9269041 110.140286 22.4626027 108.372381 22.4626027 107.561714 20.0441096 104.72981 20.0441096zM117.232714 22.4626027L117.232714 13.9269041 119.107381 13.9269041 121.419952 17.5867397C122.005333 18.5369589 122.537333 19.5242466 122.949905 20.4491507L122.976143 20.4491507C122.856714 19.3090685 122.830476 18.207863 122.830476 16.9032329L122.830476 13.9269041 124.345952 13.9269041 124.345952 22.4626027 122.644095 22.4626027 120.303476 18.7015068C119.732571 17.7639452 119.14719 16.7260274 118.708381 15.7631507L118.655905 15.7758082C118.721952 16.8779178 118.74819 18.0053425 118.74819 19.4103288L118.74819 22.4626027 117.232714 22.4626027M132.061762 20.765589C132.58019 21.0567123 133.391762 21.309863 134.228667 21.309863 135.265524 21.309863 135.85 20.8415342 135.85 20.1453699 135.85 19.4989315 135.398524 19.1192055 134.268476 18.7268219 132.780143 18.2205205 131.835571 17.4728219 131.835571 16.244137 131.835571 14.8391507 133.057905 13.7876712 135.013095 13.7876712 135.983905 13.7876712 136.68781 13.9901918 137.153762 14.2180274L136.768333 15.4720274C136.435381 15.3074795 135.811095 15.0669863 134.97419 15.0669863 133.936429 15.0669863 133.498524 15.5859452 133.498524 16.0922466 133.498524 16.7513425 134.016048 17.0551233 135.212143 17.498137 136.768333 18.0559726 137.512952 18.8027671 137.512952 20.0314521 137.512952 21.4120274 136.422714 22.6027397 134.121905 22.6027397 133.165571 22.6027397 132.182095 22.3486849 131.689905 22.0575616L132.061762 20.765589M146.465571 18.0053425C146.67819 18.067726 146.929714 18.0812877 147.263571 18.0812877 148.485905 18.0812877 149.230524 17.498137 149.230524 16.5108493 149.230524 15.5606301 148.54019 15.0669863 147.409238 15.0669863 146.957762 15.0669863 146.638381 15.1049589 146.465571 15.1429315L146.465571 18.0053425zM144.843333 14.0408219C145.442286 13.9395616 146.252952 13.8636164 147.34319 13.8636164 148.54019 13.8636164 149.404238 14.1041096 149.975143 14.5597808 150.507143 14.9783836 150.852762 15.6492329 150.852762 16.4466575 150.852762 17.2576438 150.586762 17.9158356 150.095476 18.372411 149.430476 18.9926301 148.419857 19.296411 147.263571 19.296411 146.957762 19.296411 146.691762 19.2837534 146.465571 19.2331233L146.465571 22.4626027 144.843333 22.4626027 144.843333 14.0408219zM159.393714 18.2205205C159.393714 19.9681644 160.311143 21.3487397 161.88 21.3487397 163.461524 21.3487397 164.35181 19.9428493 164.35181 18.1572329 164.35181 16.5488219 163.514905 15.0290137 161.88 15.0290137 160.257762 15.0290137 159.393714 16.4602192 159.393714 18.2205205zM166.08081 18.1066027C166.08081 20.9681096 164.258619 22.6027397 161.798571 22.6027397 159.258905 22.6027397 157.665619 20.7529315 157.665619 18.2584932 157.665619 15.6239178 159.406381 13.7750137 161.933381 13.7750137 164.537286 13.7750137 166.08081 15.6618904 166.08081 18.1066027zM174.967381 17.8154795L175.937286 17.8154795C177.04019 17.8154795 177.718762 17.2576438 177.718762 16.4086849 177.718762 15.4846849 177.04019 15.0416712 175.978 15.0416712 175.458667 15.0416712 175.126619 15.0796438 174.967381 15.1176164L174.967381 17.8154795zM173.345143 14.0534795C173.970333 13.9395616 174.873286 13.8636164 175.816952 13.8636164 177.107143 13.8636164 177.97119 14.066137 178.58281 14.5471233 179.075905 14.940411 179.354571 15.5353151 179.354571 16.2703562 179.354571 17.3715616 178.570143 18.1183562 177.718762 18.397726L177.718762 18.4356986C178.37019 18.6635342 178.755619 19.2584384 178.968238 20.0820822 179.261381 21.1453151 179.500238 22.1335068 179.673048 22.4626027L177.997429 22.4626027C177.865333 22.2094521 177.639143 21.5123836 177.400286 20.4491507 177.133381 19.3343836 176.721714 18.9799726 175.790714 18.9546575L174.967381 18.9546575 174.967381 22.4626027 173.345143 22.4626027 173.345143 14.0534795z"/>
    <polyline fill="#000" points="188.546 15.232 185.994 15.232 185.994 13.927 192.76 13.927 192.76 15.232 190.182 15.232 190.182 22.463 188.546 22.463 188.546 15.232"/>
    <g transform="translate(121.238 56.959)">
      <mask id="logo-inverse-d" fill="#000">
        <use xlink:href="#logo-inverse-c"/>
      </mask>
      <polyline fill="#000" points="2.449 .365 2.449 3.785 6.239 3.785 6.239 .365 7.874 .365 7.874 8.902 6.239 8.902 6.239 5.141 2.449 5.141 2.449 8.902 .814 8.902 .814 .365 2.449 .365" mask="url(#logo-inverse-d)"/>
      <path fill="#000" d="M15.4035714 4.6579726C15.4035714 6.40652055 16.321 7.78709589 17.8898571 7.78709589 19.471381 7.78709589 20.3634762 6.38120548 20.3634762 4.59468493 20.3634762 2.98717808 19.5256667 1.46736986 17.8898571 1.46736986 16.267619 1.46736986 15.4035714 2.89767123 15.4035714 4.6579726zM22.0915714 4.5449589C22.0915714 7.40646575 20.2702857 9.04109589 17.8111429 9.04109589 15.2714762 9.04109589 13.6754762 7.19128767 13.6754762 4.69684932 13.6754762 2.06227397 15.4180476.213369863 17.9432381.213369863 20.5498571.213369863 22.0915714 2.10024658 22.0915714 4.5449589zM27.8666667 7.20484932C28.3850952 7.4959726 29.1966667 7.74821918 30.0335714 7.74821918 31.0713333 7.74821918 31.6558095 7.28079452 31.6558095 6.58282192 31.6558095 5.93728767 31.2034286 5.55756164 30.0742857 5.16517808 28.5850476 4.6579726 27.641381 3.91117808 27.641381 2.68249315 27.641381 1.27660274 28.8637143.226027397 30.8189048.226027397 31.7888095.226027397 32.493619.429452055 32.9586667.657287671L32.5732381 1.91038356C32.2411905 1.74673973 31.6150952 1.50443836 30.7781905 1.50443836 29.7404286 1.50443836 29.3025238 2.02430137 29.3025238 2.53060274 29.3025238 3.18879452 29.8218571 3.49257534 31.0179524 3.93558904 32.5732381 4.49432877 33.3169524 5.24112329 33.3169524 6.46980822 33.3169524 7.85038356 32.2267143 9.04109589 29.9277143 9.04109589 28.9704762 9.04109589 27.9860952 8.7870411 27.4948095 8.4950137L27.8666667 7.20484932" mask="url(#logo-inverse-d)"/>
    </g>
    <path fill="#000" d="M162.044667,61.4016986 C162.25819,61.4649863 162.510619,61.4776438 162.842667,61.4776438 C164.065905,61.4776438 164.809619,60.8944932 164.809619,59.9081096 C164.809619,58.9578904 164.119286,58.4633425 162.988333,58.4633425 C162.536857,58.4633425 162.217476,58.5022192 162.044667,58.5401918 L162.044667,61.4016986 Z M160.422429,57.4380822 C161.021381,57.3368219 161.832048,57.2608767 162.922286,57.2608767 C164.119286,57.2608767 164.983333,57.5013699 165.553333,57.9579452 C166.085333,58.3747397 166.431857,59.0464932 166.431857,59.8439178 C166.431857,60.6549041 166.166762,61.3130959 165.673667,61.7687671 C165.009571,62.3907945 163.998952,62.6945753 162.842667,62.6945753 C162.536857,62.6945753 162.270857,62.6810137 162.044667,62.6303836 L162.044667,65.8607671 L160.422429,65.8607671 L160.422429,57.4380822 Z"/>
    <polygon fill="#000" points="172.246 65.86 173.883 65.86 173.883 57.324 172.246 57.324"/>
    <polyline fill="#000" points="181.861 58.629 179.309 58.629 179.309 57.324 186.075 57.324 186.075 58.629 183.497 58.629 183.497 65.861 181.861 65.861 181.861 58.629"/>
    <path fill="#000" d="M194.909238,62.2633151 L194.203524,60.1612603 C194.030714,59.6413973 193.884143,59.0591507 193.751143,58.5655068 L193.724905,58.5655068 C193.59281,59.0591507 193.446238,59.6549589 193.298762,60.1612603 L192.608429,62.2633151 L194.909238,62.2633151 Z M192.343333,63.4413699 L191.570667,65.8607671 L189.883286,65.8607671 L192.755,57.3241644 L194.842286,57.3241644 L197.75381,65.8607671 L195.985,65.8607671 L195.174333,63.4413699 L192.343333,63.4413699 Z"/>
    <polyline fill="#000" points="203.395 57.324 205.029 57.324 205.029 64.555 208.712 64.555 208.712 65.861 203.395 65.861 203.395 57.324"/>
    <path fill="#000" d="M66.6239524 36.836137C66.6782381 34.6391507 65.584381 31.0245205 61.0958571 31.0245205 56.9375714 31.0245205 55.1859524 34.394137 54.9127143 36.836137L66.6239524 36.836137zM54.9127143 41.0348219C55.077381 45.3329589 58.7977619 47.1872877 63.121619 47.1872877 66.2403333 47.1872877 68.4298571 46.7478904 70.5099048 46.1141096L71.4942857 50.2142466C69.1961905 51.0939452 66.021381 51.7295342 62.190619 51.7295342 53.5447143 51.7295342 48.4554286 46.992 48.4554286 39.7175342 48.4554286 33.1247671 52.9430476 26.9234795 61.4794762 26.9234795 70.1262857 26.9234795 72.9717619 33.272137 72.9717619 38.4960822 72.9717619 39.6189863 72.8622857 40.4977808 72.7528095 41.0348219L54.9127143 41.0348219zM75.924 34.5406027C75.924 31.8065753 75.8145238 29.5119452 75.7050476 27.4605205L81.4511905 27.4605205 81.779619 30.9756986 81.943381 30.9756986C83.2028095 29.1213699 85.610381 26.9234795 90.1531905 26.9234795 93.6555238 26.9234795 96.390619 28.6810685 97.5405714 31.3183562L97.6500476 31.3183562C98.5801429 30.0001644 99.674 29.023726 100.879143 28.3393151 102.410905 27.4126027 104.107333 26.9234795 106.351143 26.9234795 110.729286 26.9234795 115.21781 29.6086849 115.21781 37.2258082L115.21781 51.2413151 108.649238 51.2413151 108.649238 38.1046027C108.649238 34.1500274 107.117476 31.8065753 103.888381 31.8065753 101.589381 31.8065753 99.8929524 33.272137 99.1827143 34.98 98.9637619 35.5170411 98.8542857 36.2981918 98.8542857 36.9826027L98.8542857 51.2413151 92.286619 51.2413151 92.286619 37.4699178C92.286619 34.1500274 90.8091429 31.8065753 87.6895238 31.8065753 85.173381 31.8065753 83.4769524 33.5650685 82.8191905 35.1752877 82.6002381 35.8099726 82.4907619 36.4943836 82.4907619 37.1769863L82.4907619 51.2413151 75.924 51.2413151 75.924 34.5406027M125.117714 39.3757808C125.117714 43.9650411 127.689952 47.4323014 131.738762 47.4323014 135.570429 47.4323014 138.252143 44.1115068 138.252143 39.2772329 138.252143 35.5667671 136.391048 31.2686301 131.793952 31.2686301 127.033095 31.2686301 125.117714 35.4193973 125.117714 39.3757808zM145.201619 39.1307671C145.201619 47.8707945 138.306429 51.7783562 131.520714 51.7783562 124.022952 51.7783562 118.167333 47.1872877 118.167333 39.5213425 118.167333 31.7080274 123.913476 26.9234795 131.958619 26.9234795 139.893381 26.9234795 145.201619 31.9033151 145.201619 39.1307671zM148.263333 35.1264658C148.263333 31.9033151 148.209048 29.559863 148.044381 27.4605205L153.84481 27.4605205 154.118952 31.9530411 154.282714 31.9530411C155.596429 28.6322466 158.716048 26.9234795 161.616714 26.9234795 162.272667 26.9234795 162.655381 26.9723014 163.203667 27.0699452L163.203667 32.6853699C162.601095 32.587726 161.999429 32.5389041 161.17881 32.5389041 158.004905 32.5389041 155.76019 34.3453151 155.158524 37.0811507 155.049048 37.6163836 154.994762 38.2528767 154.994762 38.8875616L154.994762 51.2413151 148.263333 51.2413151 148.263333 35.1264658"/>
    <polygon fill="#000" points="165.281 51.241 172.012 51.241 172.012 27.461 165.281 27.461"/>
    <path fill="#000" d="M190.945476,39.6189863 C186.183714,39.5710685 181.64181,40.4480548 181.64181,44.0617808 C181.64181,46.4070411 183.338238,47.4811233 185.472571,47.4811233 C188.209476,47.4811233 190.124857,45.9188219 190.78081,44.2091507 C190.945476,43.7688493 190.945476,43.3312603 190.945476,42.8909589 L190.945476,39.6189863 Z M197.512238,45.5273425 C197.512238,47.6755068 197.621714,49.7757534 197.950143,51.2413151 L191.875571,51.2413151 L191.382476,48.6040274 L191.218714,48.6040274 C189.631762,50.4601644 186.840571,51.7783562 183.338238,51.7783562 C177.975714,51.7783562 174.965571,48.3110959 174.965571,44.6973699 C174.965571,38.7401918 180.930667,35.664411 190.78081,35.7123288 L190.78081,35.3217534 C190.78081,33.7603562 190.069667,31.1718904 185.363095,31.1718904 C182.736571,31.1718904 179.999667,31.9033151 178.193762,32.9303836 L176.880952,29.023726 C178.851524,27.9487397 182.298667,26.9234795 186.513048,26.9234795 C195.049476,26.9234795 197.512238,31.7577534 197.512238,36.9826027 L197.512238,45.5273425 Z"/>
    <polygon fill="#000" points="202.161 51.241 208.892 51.241 208.892 13.633 202.161 13.633"/>
    <path fill="#000" d="M23.5165714 17.151863C23.7364286 17.1346849 23.955381 17.1229315 24.1743333 17.110274 27.0569048 16.9366849 29.8272857 17.0668767 32.3678571 17.4393699 32.5605714 16.6310959 32.7125714 15.9105205 32.8256667 15.2731233 29.700619 14.9666301 26.334 14.9720548 22.8660476 15.3327945 21.6400952 15.5217534 20.4449048 15.7586301 19.281381 16.0343836 19.3691429 16.5298356 19.4740952 17.0668767 19.5971429 17.646411 20.843 17.4249041 22.1485714 17.2540274 23.5165714 17.151863M26.4461905 37.6181918C26.1548571 38.8351233 25.9594286 39.8441096 25.8526667 40.6587123 26.033619 40.6686575 26.2091429 40.6885479 26.3919048 40.697589 27.075 40.730137 27.7490476 40.7455068 28.4149524 40.7455068 29.1677143 40.7455068 29.9069048 40.7201918 30.6343333 40.680411 30.6922381 40.5095342 30.7474286 40.3431781 30.8062381 40.1686849 31.0659048 39.3929589 31.315619 38.6416438 31.555381 37.9147397 30.8768095 37.9147397 30.1891905 37.8984658 29.4934286 37.867726 28.4457143 37.8207123 27.4341905 37.7303014 26.4461905 37.6181918"/>
    <path fill="#000" d="M24.7027143 37.3858356C23.9463333 37.2683014 23.2035238 37.1408219 22.4878571 36.9916438 23.1863333 37.0033973 23.8956667 36.9943562 24.6122381 36.9708493 24.076619 34.5451233 23.2587143 31.4060548 22.150381 27.5409863 20.9778095 23.4489863 20.1273333 20.1535068 19.5971429 17.646411 19.4740952 17.0668767 19.3691429 16.5298356 19.281381 16.0343836 19.0542857 14.7613973 18.9384762 13.7632603 18.9384762 13.0499178L8.78795238 13.0499178C8.78795238 14.3644932 8.61604762 16.8408493 8.27766667 20.46 8.21433333 21.1380822 8.14557143 21.854137 8.07047619 22.613589 7.79452381 25.3910137 7.43804762 28.7163288 7.00285714 32.5768767 8.21795238 34.3145753 10.0709048 35.8759726 12.4350476 37.1589041 12.4630952 36.5775616 12.4938571 35.986274 12.5255238 35.3723836 12.935381 27.3348493 13.1507143 22.0946301 13.167 19.6499178L13.5605714 19.6499178C13.9288095 22.0946301 14.4182857 24.5583288 15.029 27.0419178 15.6261429 29.4576986 16.875619 33.6482466 18.7701905 39.5810137 20.7742381 40.0927397 22.9547143 40.4426301 25.2727143 40.6162192 25.1704762 39.7600274 24.9804762 38.684137 24.7027143 37.3858356M4.9852381 51.2413151L11.9084762 51.2413151C11.9084762 49.5985479 11.9953333 46.8048493 12.1663333 42.8746849 9.8872381 42.3276986 7.83885714 41.5573973 6.099 40.5918082 5.35709524 47.2343014 4.9852381 50.7928767 4.9852381 51.2413151M44.5061429 36.5404932C42.594381 37.9671781 40.2872381 39.2709041 37.6607143 40.3865753 37.8552381 45.2054795 37.9520476 48.8282466 37.9520476 51.2413151L45.5828095 51.2413151C45.5828095 50.6536438 45.2254286 45.7515616 44.5061429 36.5404932"/>
    <path fill="#000" d="M44.4310476 35.5848493C42.5093333 36.4329041 40.1497143 37.0793425 37.5385714 37.4726301 37.5702381 38.2076712 37.601 38.9173973 37.6299524 39.6063288 40.3768095 38.8622466 42.7255714 37.7746027 44.4961905 36.4012603 44.4744762 36.1354521 44.4536667 35.8569863 44.4310476 35.5848493M20.0938571 43.8140548C21.2971905 47.7867123 21.9015714 50.2666849 21.9015714 51.2413151L27.6974762 51.2413151C27.6974762 50.2142466 28.443 47.4006575 29.9313333 42.8159178 29.0374286 43.0057808 28.1362857 43.1784658 27.2242857 43.3158904 24.7769048 43.6865753 22.3847143 43.8429863 20.0938571 43.8140548"/>
    <g transform="translate(0 12.658)">
      <mask id="logo-inverse-f" fill="#000">
        <use xlink:href="#logo-inverse-e"/>
      </mask>
      <path fill="#000" d="M44.004,17.2938082 C43.7868571,14.3075342 43.6104286,11.6422192 43.4765238,9.30057534 C43.3914762,7.81873973 43.3227143,6.46076712 43.2693333,5.23750685 C43.187,3.3 43.145381,1.68254795 43.145381,0.392383562 L33.0735714,0.392383562 C33.0735714,0.954739726 32.9903333,1.69882192 32.8256667,2.61558904 C32.7125714,3.2529863 32.5605714,3.97356164 32.3678571,4.78183562 C31.7670952,7.30520548 30.783619,10.6612603 29.415619,14.8527123 C28.1688571,18.6689589 27.242381,21.7818082 26.6334762,24.2003014 C28.5732857,24.0438904 30.4289524,23.7609041 32.1679048,23.3748493 C33.5078571,19.214137 34.4678095,15.9186575 35.0405238,13.5046849 C35.7932857,10.337589 36.255619,8.16591781 36.4311429,6.99238356 L36.8247143,6.99238356 C36.841,8.94706849 37.0337143,13.8690411 37.4010476,21.7564932 C40.3234286,20.5549315 42.6179048,19.0134247 44.004,17.2938082" mask="url(#logo-inverse-f)"/>
      <path fill="#000" d="M50.1717619,11.7344384 C49.1937143,9.03747945 46.7228095,6.82964384 43.2693333,5.23750685 C43.3227143,6.46076712 43.3914762,7.81873973 43.4765238,9.30057534 C43.9976667,9.80687671 44.4319524,10.3412055 44.7585714,10.9044658 C45.0734286,11.4478356 45.2878571,12.0183288 45.3991429,12.6078082 C45.4127143,12.6774247 45.4308095,12.7470411 45.4416667,12.8166575 C45.6678571,14.3672055 45.1367619,15.8888219 44.004,17.2938082 C42.6179048,19.0134247 40.3234286,20.5549315 37.4010476,21.7564932 C35.8249524,22.4038356 34.0660952,22.9526301 32.1679048,23.3748493 C30.4289524,23.7609041 28.5732857,24.0438904 26.6334762,24.2003014 C26.5529524,24.205726 26.4733333,24.2147671 26.3928095,24.2210959 C25.7938571,24.2663014 25.2012381,24.2934247 24.6122381,24.3133151 C23.8956667,24.3368219 23.1863333,24.345863 22.4878571,24.3341096 C23.2035238,24.4832877 23.9463333,24.6107671 24.7027143,24.7283014 C25.2727143,24.8150959 25.8535714,24.8928493 26.4461905,24.9606575 C27.4341905,25.0727671 28.4457143,25.1631781 29.4934286,25.2101918 C30.1891905,25.2409315 30.8768095,25.2572055 31.555381,25.2572055 C33.6354286,25.2572055 35.6512381,25.1016986 37.5385714,24.8150959 C40.1497143,24.4218082 42.5093333,23.7753699 44.4310476,22.9273151 C45.1367619,22.6172055 45.7854762,22.2808767 46.363619,21.9183288 C46.1817619,22.1497808 45.9890476,22.3767123 45.7782381,22.5973151 C45.394619,22.9987397 44.9630476,23.3793699 44.4961905,23.743726 C42.7255714,25.1170685 40.3768095,26.2047123 37.6299524,26.9487945 C35.5082857,27.522 33.1468571,27.8863562 30.6343333,28.0228767 C29.9069048,28.0626575 29.1677143,28.0879726 28.4149524,28.0879726 C27.7490476,28.0879726 27.075,28.0726027 26.3919048,28.0400548 C26.2091429,28.0310137 26.033619,28.0111233 25.8526667,28.0011781 C25.6572381,27.9885205 25.4654286,27.9722466 25.2727143,27.9586849 C22.9547143,27.7850959 20.7742381,27.4352055 18.7701905,26.9234795 C16.3906667,26.3168219 14.2626667,25.4931781 12.4350476,24.5013699 C10.0709048,23.2184384 8.21795238,21.6570411 7.00285714,19.9193425 C6.23019048,18.8136164 5.70271429,17.6409863 5.48014286,16.4222466 C5.41590476,16.0678356 5.37338095,15.7116164 5.36614286,15.3508767 C5.35619048,14.8924932 5.39509524,14.4386301 5.47652381,13.9901918 C5.82938095,12.5616986 6.72419048,11.1919726 8.07047619,9.95605479 C8.14557143,9.19660274 8.21433333,8.48054795 8.27766667,7.80246575 C2.66542857,11.2661096 -0.597142857,15.8906301 0.0913809524,20.4373973 C0.55552381,23.5086575 2.75590476,26.0799452 6.099,27.934274 C7.83885714,28.899863 9.8872381,29.6701644 12.1663333,30.2171507 C14.5838571,30.7966849 17.2592381,31.1212603 20.0938571,31.1565205 C22.3847143,31.1854521 24.7769048,31.0290411 27.2242857,30.6583562 C28.1362857,30.5209315 29.0374286,30.3482466 29.9313333,30.1583836 C30.9844762,29.9341644 32.0258571,29.6819178 33.044619,29.3926027 C34.6722857,28.9025753 36.214,28.3438356 37.6607143,27.7290411 C40.2872381,26.6133699 42.594381,25.3096438 44.5061429,23.8829589 C45.8352381,22.8920548 46.9734286,21.8432877 47.8944762,20.7556438 C48.3649524,20.1996164 48.7793333,19.6336438 49.1330952,19.0613425 C50.6132857,16.6663562 51.0484762,14.1520274 50.1717619,11.7344384" mask="url(#logo-inverse-f)"/>
    </g>
    <path fill="#000" d="M31.9037143,6.90378082 C31.9037143,10.642274 28.8691429,13.6746575 25.1279524,13.6746575 C21.3858571,13.6746575 18.3512857,10.642274 18.3512857,6.90378082 C18.3512857,3.16528767 21.3858571,0.132 25.1279524,0.132 C28.8691429,0.132 31.9037143,3.16528767 31.9037143,6.90378082"/>
  </g>
</svg>
