<?xml version="1.0" encoding="utf-8"?>
<!-- Generator: Adobe Illustrator 20.1.0, SVG Export Plug-In . SVG Version: 6.00 Build 0)  -->
<svg version="1.1" id="Layer_1" xmlns="http://www.w3.org/2000/svg" xmlns:xlink="http://www.w3.org/1999/xlink" x="0px" y="0px"
	 viewBox="0 0 135.6 43.2" style="enable-background:new 0 0 135.6 43.2;" xml:space="preserve">
<style type="text/css">
	.st0{fill:#1D386D;}
</style>
<g>
	<polygon class="st0" points="1.2,1.4 1.2,19.2 11.9,19.2 11.9,16.2 4.7,16.2 4.7,1.4 	"/>
	<g>
		<path class="st0" d="M19.8,16.8c-1.9,0-3.5-1.4-3.5-4c0-2.3,1.4-3.8,3.3-3.8c2.2,0,3.4,1.8,3.5,3.8C23.1,14.9,22,16.8,19.8,16.8
			 M19.6,6.2C15.8,6.2,13,9,13,12.8c0,3.8,2.7,6.7,6.7,6.7c3.9,0,6.6-2.8,6.6-6.7C26.3,8.7,23.2,6.2,19.6,6.2"/>
		<path class="st0" d="M36,6.2c-1,0-2.2,0.3-3,0.9c-0.5,0.4-0.9,0.8-1,1V6.6h-3.1v12.6H32v-5.4c0-0.9,0-2.2,0.5-3.1
			c0.4-0.8,1.4-1.4,2.4-1.4c1,0,1.8,0.6,2.1,1.7c0.1,0.4,0.1,1,0.1,1.9v6.4h3.1v-7.4c0-1.6,0-3-0.8-4C38.7,6.9,37.4,6.2,36,6.2"/>
		<path class="st0" d="M49.2,8.6c1.4,0,2.6,0.7,2.9,2.6h-6.1C46.4,9.6,47.6,8.6,49.2,8.6 M49.3,19.5c2.6,0,4.7-1.1,6.3-3.2L53,14.9
			c-0.4,0.5-1.2,1.7-3.4,1.7c-2,0-3.3-1.1-3.7-3.1h9.6c0-1.3-0.3-3.4-1.3-4.9c-0.3-0.4-1.7-2.4-5.1-2.4c-3.7,0-6.5,2.4-6.5,6.6
			C42.7,17.5,45.9,19.5,49.3,19.5"/>
		<path class="st0" d="M95.9,16.3c-0.6,0.3-1.3,0.3-2,0.3c-3.9,0-5.2-2-5.7-2.7l-2.9,2c1.4,2.2,3.5,3,4.7,3.4
			c1.1,0.3,2.3,0.4,3.3,0.4c3.9,0,7.8-1.6,7.8-5.7c0-3.8-3.5-4.8-5.9-5.3l-1.9-0.4C91.7,7.9,90,7.6,90,6.1C90,4.8,91.6,4,93.4,4
			c2.9,0,4.1,1.8,4.7,2.6l2.8-2C99.7,2.9,97.6,1,93.6,1c-4.3,0-7.2,2.2-7.2,5.5c0,2.9,2.3,4,3.1,4.3c0.6,0.2,1.1,0.4,2.3,0.6
			l2.2,0.5c1.7,0.4,1.7,0.4,2.1,0.6c0.6,0.2,1.4,0.6,1.4,1.8C97.5,14.8,97.3,15.7,95.9,16.3"/>
		<path class="st0" d="M104.1,2.2v4.4h-1.9v2.2h1.9v6.4c0,1.3,0,2.1,0.2,2.6c0.6,1.5,2.8,1.5,3.4,1.5c0.7,0,1.3-0.1,2.3-0.2v-2.5
			c-0.4,0.1-0.8,0.2-1.3,0.2c-1.5,0-1.5-0.7-1.5-2.2V8.8h2.8V6.6h-2.8V2.2H104.1z"/>
		<path class="st0" d="M120,12.9v1.4c0,0.4,0,0.8-0.2,1.1c-0.3,0.8-1.5,1.5-3,1.5c-1.2,0-2.1-0.5-2.1-1.5c0-1.3,1.5-1.6,2.6-1.7
			C118.7,13.4,119.4,13.2,120,12.9 M111.8,13.8c-0.3,0.5-0.4,1.1-0.4,1.7c0,2.2,1.8,3.9,4.7,3.9c1.8,0,3.2-0.7,3.8-1.3
			c0,0.2,0.1,0.7,0.1,1h3.7c-0.6-0.8-0.6-1.1-0.6-2v-6.7c0-1.4,0-2.5-1.6-3.4c-1.1-0.7-2.6-0.8-3.9-0.8c-0.8,0-3.9,0-5.2,2.2
			c-0.4,0.7-0.5,1.3-0.5,1.9l3.2,0.2c0-0.4,0-0.7,0.3-1.1c0.3-0.4,1-0.8,2.3-0.8c2.2,0,2.2,1.3,2.2,1.9c-1.1,0.4-1.3,0.4-4,0.9
			C114.8,11.6,112.8,12,111.8,13.8"/>
		<path class="st0" d="M126.5,6.6v12.6h3v-4.6c0-2.1,0-3.4,1.3-4.3c1-0.7,2.1-0.7,2.8-0.8V6.3c-2.9-0.1-3.8,1.4-4.1,2.1V6.6H126.5z"
			/>
	</g>
	<polygon class="st0" points="67.9,8.5 59.8,8.5 66.3,13.1 63.9,20.5 70.3,15.9 76.8,20.5 74.4,13.1 80.8,8.5 72.8,8.5 70.3,1.1 	
		"/>
	<g>
		<path class="st0" d="M51.4,35l-0.2-0.1l-2.1,2.5c-0.4,0.2-0.9,0.2-1.4,0.2c-1.8,0-3.4-1.6-3.4-4c0-3.7,2-6.1,4-6.1
			c1.5,0,2.6,1,3.2,3.1l0.3,0l0.5-3.5h-0.2l-0.9,0.7c-0.7-0.4-1.7-0.7-2.9-0.7c-3.4,0-5.8,3.1-5.8,6.2c0,2.9,2.2,4.8,5,4.8
			c1.2,0,2.2-0.2,3.3-0.7L51.4,35z"/>
		<path class="st0" d="M54.5,38.1c0.6,0,1.4-0.3,2.1-0.7l0-0.1c-1.4,0-1.6-0.2-1.5-0.7l1.1-6.3l-0.1,0L53.5,31v0.2l1.1,0.5l-0.9,5.2
			C53.6,37.5,53.8,38.1,54.5,38.1"/>
		<path class="st0" d="M56.2,26.8c-0.6,0-1,0.6-1,1.3c0,0.5,0.3,0.8,0.7,0.8c0.6,0,1-0.6,1-1.3C56.9,27,56.5,26.8,56.2,26.8"/>
		<path class="st0" d="M57.9,31.2l1.1,0.5l-1.1,6.2h1.3l0.9-5.5c0.5-0.5,0.8-0.8,1.4-0.9c0.4,0.3,0.7,0.5,1.1,0.5
			c0.5,0,0.9-0.3,0.9-0.8c0-0.5-0.4-0.8-1-0.8c-0.7,0-1.6,0.7-2.2,1.7l-0.1,0l0.2-1.7l-0.1,0L57.9,31V31.2z"/>
		<path class="st0" d="M68.8,32.5c0.5,0,0.8-0.4,0.8-0.9c0-0.6-0.5-1.3-1.8-1.3c-2.4,0-4.4,2.5-4.4,4.9c0,1.6,1,2.9,2.8,2.9
			c1.1,0,2.3-0.7,2.8-1.7l-0.1-0.1c-0.6,0.6-1.3,0.9-2,0.9c-1.1,0-2-0.6-2-2.2c0-2.1,1.4-4.2,3.2-4.3c-0.1,0.3-0.2,0.6-0.2,0.9
			C67.9,32.1,68.2,32.5,68.8,32.5"/>
		<path class="st0" d="M73.9,25.8L73.9,25.8l-2.7,0.8v0.2l1.1,0.5l-1.7,9.7c-0.1,0.6,0.2,1.2,0.9,1.2c0.6,0,1.4-0.3,2.1-0.7l0-0.1
			c-1.4,0-1.6-0.2-1.5-0.7L73.9,25.8z"/>
		<path class="st0" d="M78.5,30.7c0.5,0,0.8,0.4,0.8,1c0,1-1,2.4-3.3,2.1C76.3,32.2,77.3,30.7,78.5,30.7 M80.6,31.8
			c0-0.8-0.7-1.5-1.9-1.5c-2.6,0-4.3,2.7-4.3,4.9c0,1.6,1,2.9,2.8,2.9c1,0,2.2-0.7,2.8-1.7l-0.1-0.1c-0.5,0.6-1.3,0.9-2,0.9
			c-1.4,0-2.1-1.1-1.9-3C79.4,34.3,80.6,32.9,80.6,31.8"/>
		<path class="st0" d="M88.5,30.8c1.3,0,1.7,1.4,1.7,2.7c0,1.4-0.6,4.1-2.2,4.1c-1.3,0-1.6-1.4-1.6-2.8
			C86.3,33.4,86.9,30.8,88.5,30.8 M87.4,38.1c2.7,0,4.1-2.7,4.1-4.9c0-1.9-1-2.9-2.5-2.9c-2.7,0-4.2,2.7-4.2,4.9
			C84.8,37,85.9,38.1,87.4,38.1"/>
		<path class="st0" d="M97.3,26.3c0.3,0.8,0.9,1.2,1.5,1.2c0.6,0,0.9-0.4,0.9-0.8c0-0.5-0.5-0.9-1.4-0.9c-0.8,0-1.4,0.3-2,0.7
			c-1.1,0.8-1.6,1.7-1.9,3.5l-0.1,0.6L92.5,31l-0.1,0.3h1.8l-1,7c-0.2,1.2-0.4,1.9-0.8,2.5c-0.3-0.5-0.8-0.9-1.3-0.9
			c-0.5,0-0.9,0.3-0.9,0.7c0,0.4,0.4,0.9,1.2,0.9c0.6,0,1.2-0.3,1.7-0.8c1-1,1.3-1.8,1.7-4.2l0.7-5.2h1.9l0.1-0.7h-1.9l0.1-0.7
			C96.1,27.6,96.6,26.8,97.3,26.3"/>
		<path class="st0" d="M106.4,38.1c1.2,0,2.2-0.2,3.4-0.7l0.5-2.4l-0.2-0.1l-2.1,2.5c-0.4,0.2-0.9,0.2-1.4,0.2c-1.8,0-3.4-1.6-3.4-4
			c0-3.7,2-6.1,4-6.1c1.5,0,2.6,1,3.2,3.1l0.3,0l0.5-3.5h-0.2l-0.9,0.7c-0.7-0.4-1.7-0.7-2.9-0.7c-3.4,0-5.8,3.1-5.8,6.2
			C101.3,36.3,103.6,38.1,106.4,38.1"/>
		<path class="st0" d="M116.2,36.4c-0.4,0.4-0.9,0.7-1.5,0.7c-0.9,0-1.4-0.9-1.4-2c0-2.3,1.2-4,2.2-4c0.6,0,1.1,0.3,1.5,0.8
			L116.2,36.4z M118.7,30.1l-0.1-0.1l-0.7,0.6c-0.5-0.2-0.8-0.3-1.2-0.3c-2.6,0-4.8,2.6-4.8,5.1c0,1.7,1.1,2.6,2.1,2.6
			c0.8,0,1.5-0.5,2.1-1.2l0.1,0c0,0.7,0.2,1.2,0.8,1.2c0.6,0,1.4-0.3,2-0.7l0-0.1c-1.6,0-1.6-0.3-1.5-0.7L118.7,30.1z"/>
		<path class="st0" d="M124.6,30.2c-0.7,0-1.6,0.7-2.1,1.7l-0.1,0l0.2-1.7l-0.1,0L120,31v0.2l1.1,0.5l-1.1,6.2h1.3l0.9-5.5
			c0.5-0.5,0.8-0.8,1.4-0.9c0.4,0.3,0.7,0.5,1.1,0.5c0.5,0,0.9-0.3,0.9-0.8C125.6,30.6,125.2,30.2,124.6,30.2"/>
		<path class="st0" d="M129.7,30.7c0.5,0,0.8,0.4,0.8,1c0,1-1,2.4-3.3,2.1C127.5,32.2,128.4,30.7,129.7,30.7 M128.3,38.1
			c1,0,2.2-0.7,2.8-1.7l-0.1-0.1c-0.5,0.6-1.3,0.9-2,0.9c-1.4,0-2.1-1.1-1.9-3c3.4,0.1,4.7-1.2,4.7-2.3c0-0.8-0.7-1.5-1.9-1.5
			c-2.6,0-4.3,2.7-4.3,4.9C125.6,36.8,126.6,38.1,128.3,38.1"/>
	</g>
</g>
</svg>
