<?xml version="1.0" encoding="UTF-8"?> <svg xmlns="http://www.w3.org/2000/svg" xmlns:xlink="http://www.w3.org/1999/xlink" width="300px" height="58px" viewBox="0 0 300 58" version="1.1"><!-- Generator: Sketch 54.1 (76490) - https://sketchapp.com --><title>dhs_logo</title><desc>Created with Sketch.</desc><g id="symbols" stroke="none" stroke-width="1" fill="none" fill-rule="evenodd"><g id="Header" transform="translate(-48.000000, -50.000000)" fill="#5E8AB4" fill-rule="nonzero"><g id="Group-5"><g id="dhs_logo" transform="translate(48.000000, 50.000000)"><path d="M30.8337017,57.2743094 C27.7135359,56.7546961 24.9406077,54.6414365 23.7273481,51.4748619 L13.0135359,33.5453039 C11.3751381,30.8353591 11.1803867,27.3563536 12.7947514,24.3762431 L24.2834254,4.72707182 C25.708011,2.30138122 28.2107735,0.589226519 31.1312155,0.237845304 L20.6635359,0.270165746 C17.2732044,0.270165746 13.3740331,1.99889503 11.7737569,4.72707182 L1.21740331,24.4781768 C-0.398618785,27.4616022 -0.201381215,30.939779 1.43370166,33.648895 L12.1508287,51.5792818 C13.3640884,54.7458564 16.1378453,56.8582873 19.2571823,57.3754144 L31.1933702,57.2776243 L31.1933702,57.2734807 L30.8337017,57.2734807 L30.8337017,57.2743094 Z" id="Path" opacity="0.247000558"></path><path d="M78.0895028,24.1019337 L67.3425414,6.11933702 C66.1259669,2.94364641 63.3464088,0.825414365 60.2171271,0.306629834 L35.9544199,0.296685083 C32.5649171,0.593370166 29.7638122,2.6801105 28.4005525,5.54917127 L18.3265193,23.5524862 C16.2522099,26.2466851 15.890884,29.721547 17.0792818,32.6651934 L28.2058011,52.4146409 C29.7464088,55.4453039 32.7298343,57.2643646 35.8980663,57.4541436 L47.109116,57.5121547 C45.7707182,56.7024862 44.8756906,55.2323204 44.8756906,53.5533149 C44.8756906,51.0348066 46.891989,48.9853591 49.3972376,48.9281768 L49.3972376,42.541989 L49.451105,42.541989 C52.0060773,42.541989 54.0770718,44.6138122 54.0770718,47.1687845 C54.0770718,49.7229282 52.0052486,51.7964088 49.451105,51.7964088 L49.451105,57.5245856 L58.8049724,57.5726519 C62.2069061,57.5726519 65.1803867,55.7378453 66.7839779,52.9997238 L78.3049724,33.3 C79.9276243,30.309116 79.7287293,26.8168508 78.0895028,24.1019337 L78.0895028,24.1019337 Z M43.111326,13.9765193 L44.7994475,10.9624309 C45.0273481,10.4825967 45.4955801,10.1328729 46.0624309,10.0831492 L50.1248619,10.0848066 C50.6477901,10.1718232 51.1118785,10.5265193 51.3174033,11.0585635 L53.1174033,14.0676796 C53.390884,14.5218232 53.4240331,15.1069061 53.1522099,15.6066298 L51.2229282,18.9049724 C50.9544199,19.3632597 50.458011,19.668232 49.8878453,19.6707182 L46.0541436,19.6524862 C45.5229282,19.619337 45.0232044,19.3127072 44.7638122,18.8063536 L42.9024862,15.5005525 C42.7027624,15.0082873 42.7649171,14.4265193 43.111326,13.9765193 L43.111326,13.9765193 Z M28.1933702,14.7165746 C28.1933702,14.6892265 28.1941989,14.660221 28.1941989,14.6312155 L32.3303867,14.6312155 L32.3635359,14.6312155 L40.698895,14.6312155 C40.6450276,15.0132597 40.6864641,15.4044199 40.8314917,15.7607735 L43.4303867,20.3776243 C43.6359116,20.7787293 43.9475138,21.0837017 44.3146409,21.2850829 L34.0168508,21.2875691 C30.7359116,20.8955801 28.1933702,18.1044199 28.1933702,14.7165746 L28.1933702,14.7165746 Z M32.1082873,22.509116 L45.6099448,22.509116 C45.5900552,22.5853591 45.578453,22.6665746 45.578453,22.7502762 L45.578453,23.3469613 C44.1638122,23.6975138 43.4527624,24.9737569 43.4527624,26.4969613 C43.4527624,26.5450276 43.4552486,26.5947514 43.460221,26.6403315 L43.4610497,26.6403315 L43.4676796,26.6950276 L36.4143646,26.6950276 C34.1486188,26.5292818 32.3337017,24.7541436 32.1082873,22.509116 L32.1082873,22.509116 Z M39.1773481,30.8701657 L39.1773481,30.881768 C37.490884,30.8593923 36.1118785,29.5665746 35.9560773,27.9165746 L43.6781768,27.9165746 C43.8356354,28.2414365 44.0469613,28.5364641 44.3013812,28.790884 C43.3964088,29.2748619 42.6422652,29.9975138 42.1135359,30.8701657 L39.1773481,30.8701657 Z M47.2930939,29.1174033 L47.2930939,28.6856354 C47.2151934,28.6947514 47.1364641,28.7104972 47.0535912,28.7104972 C45.820442,28.7104972 44.8218232,27.7110497 44.8218232,26.4787293 C44.8218232,25.2455801 45.820442,24.2453039 47.0535912,24.2453039 C47.1364641,24.2453039 47.2151934,24.2610497 47.2930939,24.269337 L47.2930939,22.729558 L47.3461326,22.729558 C49.9019337,22.729558 51.9737569,24.8030387 51.9737569,27.3571823 C51.9737569,29.9138122 49.9019337,31.9864641 47.3461326,31.9864641 L47.3461326,38.3701657 C44.8168508,38.3411602 42.7707182,36.2801105 42.7707182,33.7433702 C42.7707182,31.2232044 44.788674,29.1737569 47.2930939,29.1174033 L47.2930939,29.1174033 Z M48.4044199,41.6229282 L48.4044199,48.0041436 C45.8743094,47.9776243 43.830663,45.9165746 43.830663,43.3790055 C43.830663,40.858011 45.8461326,38.8077348 48.3522099,38.7513812 L48.3522099,32.3676796 C48.3696133,32.3676796 48.3903315,32.3660221 48.4044199,32.3660221 C50.9618785,32.3660221 53.0345304,34.4370166 53.0345304,36.9928177 C53.0345304,39.5486188 50.9618785,41.6229282 48.4044199,41.6229282 L48.4044199,41.6229282 Z M56.8069061,30.8353591 L56.8069061,30.8262431 L54.4259669,30.8262431 L54.4259669,30.8353591 L52.3143646,30.8353591 C52.9533149,30.0116022 53.3262431,28.9765193 53.430663,27.8842541 L60.0232044,27.9157459 C59.8450276,29.5433702 58.4767956,30.8138122 56.8069061,30.8353591 L56.8069061,30.8353591 Z M60.3165746,26.6950276 L60.1922652,26.6917127 L53.3759669,26.6635359 L53.3759669,26.6320442 L53.3320442,26.6320442 C53.1074586,24.8643646 52.0765193,23.378453 50.5930939,22.5082873 L64.0632597,22.5082873 C63.8303867,24.5361878 62.2947514,26.3096685 60.3165746,26.6950276 L60.3165746,26.6950276 Z M61.2058011,21.2892265 L61.1618785,21.2850829 L51.6754144,21.2850829 C51.9944751,21.0986188 52.2596685,20.8325967 52.4469613,20.5135359 L55.138674,15.9107735 C55.3582873,15.5030387 55.4353591,15.0571823 55.3848066,14.6312155 L67.7428177,14.6312155 C67.7378453,18.2552486 64.8223757,21.2444751 61.2058011,21.2892265 L61.2058011,21.2892265 Z" id="Shape"></path><polygon id="Path" points="90.7972376 19.818232 90.7972376 28.3790055 99.0604972 28.3790055 99.0604972 19.818232 104.066022 19.818232 104.066022 42.009116 99.0604972 42.009116 99.0604972 32.7563536 90.7972376 32.7563536 90.7972376 42.009116 85.7917127 42.009116 85.7917127 19.818232"></polygon><path d="M111.538674,35.5558011 C111.702762,37.6301105 113.74558,38.6179558 116.082597,38.6179558 C117.793923,38.6179558 119.176243,38.3867403 120.527901,37.9259669 L121.185083,41.3179558 C119.539227,42.009116 117.530387,42.3389503 115.357459,42.3389503 C109.891989,42.3389503 106.764365,39.1781768 106.764365,34.1395028 C106.764365,30.058011 109.333425,25.5464088 114.896685,25.5464088 C120.098619,25.5464088 122.074309,29.5964088 122.074309,33.5801105 C122.074309,34.4361878 121.975691,35.1936464 121.910221,35.5558011 L111.538674,35.5558011 Z M117.434254,32.1314917 C117.434254,30.9124309 116.906354,28.8720994 114.633978,28.8720994 C112.494199,28.8720994 111.63895,30.8154696 111.507182,32.1314917 L117.434254,32.1314917 Z" id="Shape"></path><path d="M137.879834,38.1232044 C137.879834,39.6381215 137.945304,41.1198895 138.14337,42.009116 L133.632597,42.009116 L133.335912,40.3955801 L133.237293,40.3955801 C132.183149,41.6801105 130.537293,42.3720994 128.627072,42.3720994 C125.36768,42.3720994 123.425138,40.001105 123.425138,37.4328729 C123.425138,33.251105 127.179282,31.2762431 132.874309,31.2762431 L132.874309,31.0781768 C132.874309,30.2220994 132.413536,29.0046961 129.943923,29.0046961 C128.298066,29.0046961 126.552762,29.5640884 125.499448,30.189779 L124.577901,26.9958564 C125.696685,26.3701657 127.902762,25.5464088 130.833149,25.5464088 C136.199171,25.5464088 137.879006,28.7071823 137.879006,32.4936464 L137.879006,38.1232044 L137.879834,38.1232044 Z M133.039227,34.4038674 C130.406354,34.4038674 128.363536,35.0287293 128.363536,36.9406077 C128.363536,38.2234807 129.219613,38.8491713 130.339227,38.8491713 C131.557459,38.8491713 132.610773,38.0262431 132.941436,37.0052486 C133.006077,36.7425414 133.039227,36.4458564 133.039227,36.15 L133.039227,34.4038674 L133.039227,34.4038674 Z" id="Shape"></path><rect id="Rectangle" x="141.270166" y="18.5991713" width="5.00469613" height="23.4107735"></rect><path d="M155.329558,21.5303867 L155.329558,25.9093923 L158.917956,25.9093923 L158.917956,29.5972376 L155.329558,29.5972376 L155.329558,35.4256906 C155.329558,37.3674033 155.823481,38.2566298 157.305249,38.2566298 C157.996409,38.2566298 158.325414,38.2234807 158.787017,38.1240331 L158.820166,41.9104972 C158.194475,42.140884 156.976243,42.339779 155.593094,42.339779 C153.980387,42.339779 152.630387,41.779558 151.80663,40.9558011 C150.885083,40.0019337 150.425138,38.4546961 150.425138,36.1831492 L150.425138,29.5980663 L148.285359,29.5980663 L148.285359,25.910221 L150.425138,25.910221 L150.425138,22.8820442 L155.329558,21.5303867 Z" id="Path"></path><path d="M161.222652,18.5991713 L166.227348,18.5991713 L166.227348,27.851105 L166.293646,27.851105 C166.820718,27.1267956 167.479558,26.568232 168.270166,26.1720994 C169.026796,25.7767956 169.949171,25.5464088 170.86989,25.5464088 C174.063812,25.5464088 176.500276,27.7533149 176.500276,32.6254144 L176.500276,42.009116 L171.496409,42.009116 L171.496409,33.1524862 C171.496409,31.0441989 170.771271,29.5964088 168.895028,29.5964088 C167.578177,29.5964088 166.755249,30.4524862 166.391436,31.3740331 C166.259669,31.6707182 166.227348,32.0991713 166.227348,32.4596685 L166.227348,42.009116 L161.222652,42.009116 L161.222652,18.5991713 Z" id="Path"></path><path d="M186.309945,36.8403315 C187.627624,37.5314917 189.734254,38.2226519 191.874033,38.2226519 C194.178729,38.2226519 195.39779,37.2679558 195.39779,35.819337 C195.39779,34.4361878 194.344475,33.6455801 191.677624,32.7240331 C187.989779,31.408011 185.554144,29.3660221 185.554144,26.139779 C185.554144,22.3524862 188.746409,19.4883978 193.95,19.4883978 C196.485083,19.4883978 198.295856,19.9831492 199.612707,20.6088398 L198.493923,24.6256906 C197.637017,24.1964088 196.023481,23.5707182 193.883702,23.5707182 C191.711602,23.5707182 190.65663,24.5925414 190.65663,25.711326 C190.65663,27.1276243 191.874862,27.7541436 194.772928,28.839779 C198.691989,30.2875691 200.501934,32.329558 200.501934,35.458011 C200.501934,39.1781768 197.670166,42.3389503 191.579006,42.3389503 C189.043923,42.3389503 186.541989,41.6477901 185.290608,40.9549724 L186.309945,36.8403315 Z" id="Path"></path><path d="M207.249448,35.5558011 C207.414365,37.6301105 209.456354,38.6179558 211.794199,38.6179558 C213.504696,38.6179558 214.887845,38.3867403 216.237845,37.9259669 L216.896685,41.3179558 C215.25,42.009116 213.241989,42.3389503 211.068232,42.3389503 C205.602762,42.3389503 202.475138,39.1781768 202.475138,34.1395028 C202.475138,30.058011 205.04337,25.5464088 210.607459,25.5464088 C215.809392,25.5464088 217.785083,29.5964088 217.785083,33.5801105 C217.785083,34.4361878 217.685635,35.1936464 217.620166,35.5558011 L207.249448,35.5558011 Z M213.14337,32.1314917 C213.14337,30.9124309 212.616298,28.8720994 210.344751,28.8720994 C208.204972,28.8720994 207.348895,30.8154696 207.217127,32.1314917 L213.14337,32.1314917 Z" id="Shape"></path><path d="M220.190055,31.209116 C220.190055,28.839779 220.156077,27.290884 220.057459,25.9085635 L224.337017,25.9085635 L224.535083,28.9044199 L224.666851,28.9044199 C225.489779,26.5342541 227.433149,25.5455801 229.012707,25.5455801 C229.475138,25.5455801 229.703867,25.5779006 230.066851,25.6450276 L230.066851,30.3538674 C229.671547,30.2867403 229.277072,30.2212707 228.716851,30.2212707 C226.872928,30.2212707 225.622376,31.1759669 225.292541,32.7563536 C225.227072,33.0870166 225.193094,33.4475138 225.193094,33.8767956 L225.193094,42.009116 L220.190055,42.009116 L220.190055,31.209116 L220.190055,31.209116 Z" id="Path"></path><path d="M236.421547,25.9093923 L238.593646,33.3837017 C238.98895,34.7337017 239.252486,36.018232 239.516022,37.301105 L239.61547,37.301105 C239.879006,35.9850829 240.142541,34.7660221 240.503867,33.3837017 L242.579006,25.9093923 L247.846409,25.9093923 L241.854696,42.0099448 L236.849171,42.0099448 L230.989227,25.9093923 L236.421547,25.9093923 L236.421547,25.9093923 Z" id="Path"></path><path d="M252.027348,23.9337017 C250.44779,23.9337017 249.425138,22.8132597 249.425138,21.4309392 C249.425138,20.0154696 250.48011,18.9281768 252.091989,18.9281768 C253.705525,18.9281768 254.69337,20.0154696 254.726519,21.4309392 C254.726519,22.8132597 253.705525,23.9337017 252.059669,23.9337017 L252.027348,23.9337017 Z M249.558564,25.9093923 L254.56326,25.9093923 L254.56326,42.0099448 L249.558564,42.0099448 L249.558564,25.9093923 Z" id="Shape"></path><path d="M270.068785,41.5823204 C269.179558,42.0099448 267.501381,42.3389503 265.591989,42.3389503 C260.389227,42.3389503 257.063536,39.1450276 257.063536,34.1063536 C257.063536,29.430663 260.289779,25.5787293 266.283149,25.5787293 C267.599171,25.5787293 269.048619,25.8099448 270.101105,26.2052486 L269.310497,29.9262431 C268.718785,29.6627072 267.830387,29.4314917 266.513536,29.4314917 C263.879006,29.4314917 262.166851,31.3093923 262.199171,33.9099448 C262.199171,36.8726519 264.176519,38.4198895 266.612983,38.4198895 C267.797238,38.4198895 268.719613,38.2226519 269.477072,37.8928177 L270.068785,41.5823204 Z" id="Path"></path><path d="M275.73232,35.5558011 C275.897238,37.6301105 277.938398,38.6179558 280.276243,38.6179558 C281.988398,38.6179558 283.370718,38.3867403 284.720718,37.9259669 L285.378729,41.3179558 C283.732873,42.009116 281.724033,42.3389503 279.551934,42.3389503 C274.086464,42.3389503 270.95884,39.1781768 270.95884,34.1395028 C270.95884,30.058011 273.526243,25.5464088 279.090331,25.5464088 C284.293094,25.5464088 286.267956,29.5964088 286.267956,33.5801105 C286.267956,34.4361878 286.168508,35.1936464 286.103867,35.5558011 L275.73232,35.5558011 Z M281.625414,32.1314917 C281.625414,30.9124309 281.099171,28.8720994 278.828453,28.8720994 C276.687845,28.8720994 275.831768,30.8154696 275.700829,32.1314917 L281.625414,32.1314917 Z" id="Shape"></path><path d="M288.63895,37.6301105 C289.561326,38.1895028 291.470718,38.8151934 292.952486,38.8151934 C294.467403,38.8151934 295.092265,38.3220994 295.092265,37.4983425 C295.092265,36.6754144 294.599171,36.2477901 292.755249,35.6544199 C289.396409,34.5356354 288.112707,32.7240331 288.145856,30.8486188 C288.145856,27.8179558 290.714088,25.5472376 294.69779,25.5472376 C296.574033,25.5472376 298.220718,26.0096685 299.208564,26.501105 L298.352486,29.9262431 C297.627348,29.5632597 296.212707,29.0370166 294.861878,29.0370166 C293.642818,29.0370166 292.952486,29.5292818 292.952486,30.3198895 C292.952486,31.0781768 293.578177,31.5058011 295.553039,32.1638122 C298.615193,33.2179558 299.867403,34.7651934 299.899724,37.1030387 C299.899724,40.1328729 297.562707,42.3381215 292.953315,42.3381215 C290.845856,42.3381215 288.969613,41.8433702 287.751381,41.1853591 L288.63895,37.6301105 Z" id="Path"></path><polygon id="Path" points="86.1082873 48.030663 87.2469613 48.030663 87.2469613 55.8132597 90.9762431 55.8132597 90.9762431 56.7571823 86.1082873 56.7571823"></polygon><path d="M100.504972,56.9005525 C98.1878453,56.9005525 96.581768,55.1138122 96.581768,52.4726519 C96.581768,49.7022099 98.2922652,47.8889503 100.621823,47.8889503 C103.016022,47.8889503 104.558287,49.7146409 104.558287,52.3052486 C104.558287,55.2944751 102.731768,56.9005525 100.518232,56.9005525 L100.504972,56.9005525 Z M100.570442,55.980663 C102.356354,55.980663 103.366575,54.3372928 103.366575,52.3558011 C103.366575,50.6212707 102.460773,48.808011 100.58453,48.808011 C98.7058011,48.808011 97.7743094,50.5558011 97.7743094,52.4469613 C97.7743094,54.2850829 98.7837017,55.980663 100.558011,55.980663 L100.570442,55.980663 Z" id="Shape"></path><path d="M111.252762,55.3848066 C111.75663,55.6955801 112.482597,55.9417127 113.259116,55.9417127 C114.412707,55.9417127 115.085635,55.3458564 115.085635,54.4649171 C115.085635,53.6502762 114.619061,53.170442 113.440608,52.7303867 C112.016022,52.2389503 111.135083,51.4872928 111.135083,50.2698895 C111.135083,48.9107735 112.262155,47.9005525 113.958564,47.9005525 C114.838674,47.9005525 115.499171,48.1077348 115.874586,48.3157459 L115.563812,49.2480663 C115.291989,49.0798343 114.710221,48.8337017 113.920442,48.8337017 C112.728729,48.8337017 112.276243,49.5447514 112.276243,50.1414365 C112.276243,50.9436464 112.80663,51.3447514 114.010773,51.811326 C115.487569,52.3930939 116.224309,53.0925414 116.224309,54.3754144 C116.224309,55.708011 115.239779,56.8864641 113.182873,56.8864641 C112.340055,56.8864641 111.420994,56.6279006 110.955249,56.3162983 L111.252762,55.3848066 Z" id="Path"></path><path d="M132.680387,54.0124309 L131.775414,56.7571823 L130.610221,56.7571823 L133.574586,48.030663 L134.933702,48.030663 L137.912983,56.7571823 L136.70884,56.7571823 L135.776519,54.0124309 L132.680387,54.0124309 Z M135.54116,53.1323204 L134.675138,50.620442 C134.493646,50.0502762 134.364365,49.5323204 134.234254,49.0276243 L134.195304,49.0276243 C134.079282,49.5323204 133.935912,50.0767956 133.768508,50.6071823 L132.912431,53.1323204 L135.54116,53.1323204 Z" id="Shape"></path><path d="M144.56768,56.7571823 L144.56768,48.030663 L145.810773,48.030663 L148.594475,52.4469613 C149.229282,53.4687845 149.747238,54.3895028 150.148343,55.2820442 L150.187293,55.2687845 C150.083702,54.1035912 150.057182,53.0411602 150.057182,51.6953039 L150.057182,48.030663 L151.118785,48.030663 L151.118785,56.7571823 L149.979282,56.7571823 L147.208011,52.328453 C146.600552,51.358011 146.017127,50.3618785 145.589503,49.4162983 L145.551381,49.4287293 C145.616022,50.5301105 145.628453,51.578453 145.628453,53.0287293 L145.628453,56.7571823 L144.56768,56.7571823 Z" id="Path"></path><path d="M165.115193,56.369337 C164.611326,56.5632597 163.601105,56.8491713 162.422652,56.8491713 C161.101657,56.8491713 160.014365,56.5127072 159.159116,55.6964088 C158.409116,54.9712707 157.942541,53.8060773 157.942541,52.4469613 C157.942541,49.8439227 159.742541,47.9411602 162.669613,47.9411602 C163.679006,47.9411602 164.482044,48.1599448 164.857459,48.3414365 L164.573204,49.2596685 C164.10663,49.040884 163.523204,48.8850829 162.643094,48.8850829 C160.51989,48.8850829 159.134254,50.2060773 159.134254,52.3930939 C159.134254,54.6074586 160.455249,55.9151934 162.500552,55.9151934 C163.23895,55.9151934 163.743646,55.8116022 164.003039,55.6823204 L164.003039,53.0801105 L162.241989,53.0801105 L162.241989,52.1734807 L165.116022,52.1734807 L165.116022,56.369337 L165.115193,56.369337 Z" id="Path"></path><polygon id="Path" points="176.703315 52.6657459 173.324586 52.6657459 173.324586 55.8132597 177.106077 55.8132597 177.106077 56.7571823 172.185912 56.7571823 172.185912 48.030663 176.910497 48.030663 176.910497 48.9762431 173.324586 48.9762431 173.324586 51.7342541 176.703315 51.7342541"></polygon><polygon id="Path" points="183.928177 48.030663 185.066851 48.030663 185.066851 55.8132597 188.796961 55.8132597 188.796961 56.7571823 183.928177 56.7571823"></polygon><polygon id="Path" points="199.931768 52.6657459 196.55221 52.6657459 196.55221 55.8132597 200.333702 55.8132597 200.333702 56.7571823 195.413536 56.7571823 195.413536 48.030663 200.13895 48.030663 200.13895 48.9762431 196.55221 48.9762431 196.55221 51.7342541 199.931768 51.7342541"></polygon><path d="M207.028177,55.3848066 C207.532873,55.6955801 208.258011,55.9417127 209.033702,55.9417127 C210.187293,55.9417127 210.860221,55.3458564 210.860221,54.4649171 C210.860221,53.6502762 210.394475,53.170442 209.216022,52.7303867 C207.791436,52.2389503 206.912155,51.4872928 206.912155,50.2698895 C206.912155,48.9107735 208.037569,47.9005525 209.734807,47.9005525 C210.614917,47.9005525 211.275414,48.1077348 211.65,48.3157459 L211.339227,49.2480663 C211.067403,49.0798343 210.483978,48.8337017 209.694199,48.8337017 C208.504972,48.8337017 208.050829,49.5447514 208.050829,50.1414365 C208.050829,50.9436464 208.581215,51.3447514 209.786188,51.811326 C211.262155,52.3930939 212.000552,53.0925414 212.000552,54.3754144 C212.000552,55.708011 211.016022,56.8864641 208.958287,56.8864641 C208.117127,56.8864641 207.197238,56.6279006 206.730663,56.3162983 L207.028177,55.3848066 Z" id="Path"></path><path d="M233.130663,56.4729282 C232.729558,56.6801105 231.887569,56.8872928 230.826796,56.8872928 C228.367127,56.8872928 226.527348,55.3342541 226.527348,52.4718232 C226.527348,49.7395028 228.379558,47.9005525 231.085359,47.9005525 C232.159392,47.9005525 232.85884,48.1334254 233.157182,48.2759669 L232.872928,49.209116 C232.458564,49.001105 231.850276,48.8461326 231.125138,48.8461326 C229.079006,48.8461326 227.71989,50.1530387 227.71989,52.4328729 C227.71989,54.5685083 228.948895,55.928453 231.060497,55.928453 C231.759116,55.928453 232.459392,55.7867403 232.912707,55.5654696 L233.130663,56.4729282 Z" id="Path"></path><path d="M243.060497,56.9005525 C240.742541,56.9005525 239.137293,55.1138122 239.137293,52.4726519 C239.137293,49.7022099 240.846133,47.8889503 243.176519,47.8889503 C245.573204,47.8889503 247.113812,49.7146409 247.113812,52.3052486 C247.113812,55.2944751 245.288122,56.9005525 243.073757,56.9005525 L243.060497,56.9005525 Z M243.125967,55.980663 C244.912707,55.980663 245.922928,54.3372928 245.922928,52.3558011 C245.922928,50.6212707 245.017127,48.808011 243.139227,48.808011 C241.262983,48.808011 240.329006,50.5558011 240.329006,52.4469613 C240.329006,54.2850829 241.340055,55.980663 243.112707,55.980663 L243.125967,55.980663 Z" id="Shape"></path><path d="M255.077072,48.030663 L255.077072,53.210221 C255.077072,55.1519337 255.944751,55.9798343 257.109116,55.9798343 C258.39116,55.9798343 259.23232,55.1254144 259.23232,53.210221 L259.23232,48.030663 L260.371823,48.030663 L260.371823,53.1323204 C260.371823,55.8124309 258.960497,56.8997238 257.070994,56.8997238 C255.284254,56.8997238 253.937569,55.8895028 253.937569,53.170442 L253.937569,48.0298343 L255.077072,48.0298343 L255.077072,48.030663 Z" id="Path"></path><path d="M267.701105,56.7571823 L267.701105,48.030663 L268.944199,48.030663 L271.727901,52.4469613 C272.362707,53.4687845 272.880663,54.3895028 273.281768,55.2820442 L273.320718,55.2687845 C273.217127,54.1035912 273.191436,53.0411602 273.191436,51.6953039 L273.191436,48.030663 L274.253039,48.030663 L274.253039,56.7571823 L273.113536,56.7571823 L270.343094,52.328453 C269.733978,51.358011 269.151381,50.3618785 268.724586,49.4162983 L268.685635,49.4287293 C268.750276,50.5301105 268.762707,51.578453 268.762707,53.0287293 L268.762707,56.7571823 L267.701105,56.7571823 Z" id="Path"></path><polygon id="Path" points="283.25221 48.988674 280.596961 48.988674 280.596961 48.030663 287.057735 48.030663 287.057735 48.988674 284.391713 48.988674 284.391713 56.7571823 283.25221 56.7571823"></polygon><path d="M295.707182,56.7571823 L295.707182,53.0535912 L292.935083,48.0298343 L294.230387,48.0298343 L295.460221,50.4381215 C295.783425,51.0977901 296.056077,51.6298343 296.328729,52.2389503 L296.35442,52.2389503 C296.586464,51.6679558 296.898066,51.0986188 297.233702,50.4381215 L298.490884,48.0298343 L299.759669,48.0298343 L296.845856,53.0411602 L296.845856,56.7563536 L295.707182,56.7563536 L295.707182,56.7571823 Z" id="Path"></path></g></g></g></g></svg> 