<?xml version="1.0" encoding="utf-8"?>
<!-- Generator: Adobe Illustrator 23.1.1, SVG Export Plug-In . SVG Version: 6.00 Build 0)  -->
<svg version="1.1" id="Layer_1" xmlns="http://www.w3.org/2000/svg" xmlns:xlink="http://www.w3.org/1999/xlink" x="0px" y="0px"
	 viewBox="0 0 500 175.4" style="enable-background:new 0 0 500 175.4;" xml:space="preserve">
<style type="text/css">
	.st0{fill:#000000;}
</style>
<g>
	<path class="st0" d="M88.1,0C39.4,0,0,39.4,0,88.1s39.4,88.1,88.1,88.1s88.1-39.4,88.1-88.1C176.2,39.5,136.7,0,88.1,0z M151.5,101
		c-3.8-1.4-8.3-6.8-9.8-10.1c-0.5-1-0.4-2.4,1.3-3.1c2.2-0.9,6.1-2,8.3-4.9c2.5-3.4,2.5-9.6,0.8-14.3c0,0,0,0-0.1,0
		c-7.1-4.4-19.5-7.8-34.6-8.4c-1.4-0.1-4-0.3-6.6,0c-4,0.5-8.1,2.5-8.2,7.6c-0.1,4.9,4,8.5,8.9,8.5c4.3,0,8-3.1,8.8-7.2
		c0.3-1.6,1.8-1.8,2.8-0.6c3.9,4.8,6.3,10.9,6.3,17.6c0,15.3-12.4,27.7-27.7,27.7S74,101.4,74,86.1c0-9.8,5.1-18.4,12.8-23.3
		c-34.5,7.3-63.1,31-70.1,36.4c-1.7,1.3-3.9,1.3-4.4-0.5c-0.4-1.5-0.4-3.6-0.3-5.2c0.2-1.6,1.5-3.7,2.7-4.9
		c11-11.2,63.2-54.4,113.7-38.9c11.3,3.5,19.8,10.6,24.2,18.1c0,0,0,0,0,0.1c0,0,0.1,0,0.1,0.1c7.1,5.9,12.7,12.8,11.2,21.5
		C162.7,96.5,154,101.9,151.5,101z"/>
	<g>
		<path class="st0" d="M203.8,41.2h8.4v30.4h19v7.6h-27.3v-38H203.8z"/>
		<path class="st0" d="M236.2,68.9V50.1h8.3v16.2c0,3.9,1.8,5.9,5,5.9s5.2-2,5.2-5.9V50.1h8.3v29.1h-8.3v-4.1
			c-1.9,2.4-4.3,4.7-8.5,4.7C239.8,79.7,236.2,75.6,236.2,68.9z"/>
		<path class="st0" d="M269.2,64.7v-0.1c0-9.7,6.4-15,13.2-15c4.4,0,7.1,2,9.1,4.3V39.6h8.3v39.6h-8.3V75c-2,2.7-4.8,4.7-9.1,4.7
			C275.7,79.7,269.2,74.4,269.2,64.7z M291.6,64.7v-0.1c0-4.8-3.2-8-7.1-8s-7.1,3.1-7.1,8v0.1c0,4.8,3.3,8,7.1,8
			C288.4,72.7,291.6,69.5,291.6,64.7z"/>
		<path class="st0" d="M304.5,50.1h8.4l4.7,17.6l5.5-17.8h7.1l5.5,17.8l4.8-17.7h8.2l-9.1,29.3h-7.4l-5.6-17.9l-5.7,17.9h-7.4
			L304.5,50.1z"/>
		<path class="st0" d="M353.3,39.5h8.7v7.3h-8.7V39.5z M353.5,50.1h8.3v29.1h-8.3V50.1z"/>
		<path class="st0" d="M368,64.8v-0.1c0-8.3,6.4-15.1,15.3-15.1c5.5,0,8.9,1.8,11.6,4.9l-5,5.4c-1.8-2-3.7-3.2-6.6-3.2
			c-4.1,0-7.1,3.6-7.1,7.9v0.1c0,4.5,2.9,8,7.4,8c2.8,0,4.7-1.2,6.7-3.1l4.8,4.9c-2.8,3.1-6.1,5.3-11.9,5.3
			C374.4,79.8,368,73.1,368,64.8z"/>
		<path class="st0" d="M400.3,39.5h8.3v21.2l9.7-10.6h9.9L417,61.5l11.5,17.6h-9.6l-7.4-11.9l-2.9,3.1v8.9h-8.3V39.5z"/>
		<path class="st0" d="M203.8,95.5h28.7v7.4h-20.4v7.7H230v7.4h-17.9v8h20.6v7.4h-28.9L203.8,95.5L203.8,95.5z"/>
		<path class="st0" d="M258.1,104.4h8.6l-11.2,29.8c-2.2,5.9-4.6,8.1-9.6,8.1c-3,0-5.2-0.8-7.3-2l2.8-6c1.1,0.7,2.4,1.1,3.5,1.1
			c1.4,0,2.2-0.4,2.9-1.9l-11.4-29.2h8.7l6.6,19.8L258.1,104.4z"/>
		<path class="st0" d="M268.6,119.1V119c0-8.3,5.9-15.1,14.4-15.1c9.7,0,14.2,7.5,14.2,15.8c0,0.7-0.1,1.4-0.1,2.2h-20.3
			c0.8,3.7,3.4,5.7,7.1,5.7c2.8,0,4.8-0.9,7.1-3l4.7,4.2c-2.7,3.4-6.6,5.4-11.9,5.4C275.1,134.1,268.6,128,268.6,119.1z
			 M289.2,116.7c-0.5-3.7-2.7-6.2-6.1-6.2s-5.6,2.4-6.3,6.2H289.2z"/>
		<path class="st0" d="M319.3,114.6v-0.1c0-10.8,8.1-19.7,19.8-19.7c7.2,0,11.5,2.4,15,5.9l-5.3,6.1c-2.9-2.7-5.9-4.3-9.7-4.3
			c-6.4,0-11,5.3-11,11.8v0.1c0,6.5,4.5,11.9,11,11.9c4.3,0,7-1.7,10-4.5l5.3,5.4c-3.9,4.2-8.3,6.8-15.6,6.8
			C327.7,134.1,319.3,125.5,319.3,114.6z"/>
		<path class="st0" d="M358.2,119.1V119c0-8.3,5.9-15.1,14.4-15.1c9.7,0,14.2,7.5,14.2,15.8c0,0.7-0.1,1.4-0.1,2.2h-20.3
			c0.8,3.7,3.4,5.7,7.1,5.7c2.8,0,4.8-0.9,7.1-3l4.7,4.2c-2.7,3.4-6.6,5.4-11.9,5.4C364.6,134.1,358.2,128,358.2,119.1z
			 M378.7,116.7c-0.5-3.7-2.7-6.2-6.1-6.2c-3.4,0-5.6,2.4-6.3,6.2H378.7z"/>
		<path class="st0" d="M393,104.4h8.3v4.1c1.9-2.4,4.3-4.7,8.5-4.7c6.2,0,9.9,4.1,9.9,10.8v18.8h-8.3v-16.2c0-3.9-1.8-5.9-5-5.9
			s-5.2,2-5.2,5.9v16.2H393V104.4z"/>
		<path class="st0" d="M428.2,125.2v-13.8h-3.5v-7.1h3.5v-7.4h8.3v7.4h6.8v7.1h-6.8v12.4c0,1.9,0.8,2.8,2.7,2.8c1.5,0,2.9-0.4,4.1-1
			v6.6c-1.7,1-3.7,1.7-6.5,1.7C431.6,134,428.2,132,428.2,125.2z"/>
		<path class="st0" d="M447.7,119.1V119c0-8.3,5.9-15.1,14.4-15.1c9.7,0,14.2,7.5,14.2,15.8c0,0.7-0.1,1.4-0.1,2.2h-20.3
			c0.8,3.7,3.4,5.7,7.1,5.7c2.8,0,4.8-0.9,7.1-3l4.7,4.2c-2.7,3.4-6.6,5.4-11.9,5.4C454.2,134.1,447.7,128,447.7,119.1z
			 M468.3,116.7c-0.5-3.7-2.7-6.2-6.1-6.2c-3.4,0-5.6,2.4-6.3,6.2H468.3z"/>
		<path class="st0" d="M482.5,104.4h8.3v5.9c1.7-4,4.4-6.6,9.3-6.4v8.6h-0.4c-5.5,0-8.8,3.3-8.8,10.3v10.8h-8.3L482.5,104.4
			L482.5,104.4z"/>
	</g>
</g>
</svg>
