<?xml version="1.0" encoding="utf-8"?>
<!-- Generator: Adobe Illustrator 26.0.3, SVG Export Plug-In . SVG Version: 6.00 Build 0)  -->
<svg version="1.1" id="Layer_1" xmlns="http://www.w3.org/2000/svg" xmlns:xlink="http://www.w3.org/1999/xlink" x="0px" y="0px"
	 viewBox="0 0 576 288" style="enable-background:new 0 0 576 288;" xml:space="preserve">
<style type="text/css">
	.st0{fill:#26ABB2;}
	.st1{fill:#172849;}
	.st2{fill:#FFFFFF;}
</style>
<g>
	<path class="st0" d="M187.6,22.8H52.1c-8.9,0-16.1,7.4-16.1,16.1v70.4c0,8.9,7.4,16.1,16.1,16.1h135.2c8.9,0,16.1-7.4,16.1-16.1
		h0.2V38.9C203.7,29.9,196.3,22.8,187.6,22.8"/>
	<path class="st1" d="M126.8,48.1c10.7,3,18.5,12.8,18.5,24.5c0,14.1-11.4,25.5-25.5,25.5S94.3,86.7,94.3,72.6
		c0-11.7,7.9-21.6,18.7-24.5C90.2,49.7,69.7,60,54.6,75.5c13-22.4,37.3-37.3,65.1-37.3c27.7,0,51.9,15,65.1,37.3
		C169.9,60.1,149.4,49.9,126.8,48.1"/>
	<polygon class="st1" points="353.9,199.8 334.7,199.8 334.7,236.8 382,236.8 382,229.1 353.9,229.1 	"/>
	<rect x="388.5" y="199.8" class="st1" width="19.2" height="37"/>
	<path class="st1" d="M292.3,231c-7,0-12.7-5.7-12.7-12.7c0-7,5.7-12.7,12.7-12.7c6,0,11.1,4.2,12.4,9.8h23.8
		c-2.6-9.3-17.8-16.4-36.2-16.4c-20.2,0-36.6,8.6-36.6,19.2c0,10.6,16.4,19.2,36.6,19.2c18.3,0,33.5-7.1,36.2-16.4h-23.8
		C303.4,226.8,298.3,231,292.3,231"/>
	<path class="st1" d="M213.8,231c-7,0-12.7-5.7-12.7-12.7c0-7,5.7-12.7,12.7-12.7c7,0,12.7,5.7,12.7,12.7
		C226.5,225.3,220.8,231,213.8,231 M213.8,199.1c-20.2,0-36.6,8.6-36.6,19.2s16.4,19.2,36.6,19.2s36.6-8.6,36.6-19.2
		S234,199.1,213.8,199.1"/>
	<polygon class="st1" points="184.8,251.2 187.6,251.2 191.3,260.7 195.1,251.2 197.9,251.2 192.3,265 190.4,265 	"/>
	<rect x="231.3" y="251.2" class="st1" width="2.7" height="13.8"/>
	<path class="st1" d="M269.1,261.4c0.8,0.9,2,1.5,3.3,1.5c1.2,0,2-0.7,2-1.7c0-1.8-2.6-2-4.4-3.1c-1.1-0.6-2-1.6-2-3.1
		c0-2.5,2.3-3.9,4.6-3.9c1.4,0,2.7,0.3,4,1.3l-1.4,2c-0.6-0.5-1.5-0.9-2.4-0.9c-1,0-2.1,0.4-2.1,1.5c0,2.2,6.4,1.5,6.4,6.2
		c0,2.4-2.2,4.1-4.7,4.1c-1.9,0-3.6-0.8-5-2.1L269.1,261.4z"/>
	<rect x="310.9" y="251.2" class="st1" width="2.7" height="13.8"/>
	<path class="st1" d="M354.5,262.9c2.6,0,4.5-2.1,4.5-4.7c0-2.6-1.9-4.7-4.5-4.7c-2.6,0-4.5,2.1-4.5,4.7
		C350,260.7,351.9,262.9,354.5,262.9 M354.5,251c4.3,0,7.2,3.2,7.2,7.1c0,3.9-2.9,7.1-7.2,7.1c-4.3,0-7.2-3.2-7.2-7.1
		C347.3,254.2,350.3,251,354.5,251"/>
	<polygon class="st1" points="395.5,251.2 397.4,251.2 405.1,260.2 405.1,251.2 407.8,251.2 407.8,265 405.9,265 398.2,256 
		398.2,265 395.5,265 	"/>
	<polygon class="st1" points="263.8,81.3 256,81.3 256,50.7 247.5,81.3 239,81.3 230.5,50.7 230.5,81.3 222.7,81.3 222.7,39.5 
		234.5,39.5 243.2,70.8 251.9,39.5 263.8,39.5 	"/>
	<path class="st1" d="M293.5,48.5l-5.8,17.2h11.6L293.5,48.5z M285.3,72.8l-2.9,8.3h-8.5l14.5-41.8h10.1L313,81.1h-8.5l-2.9-8.3
		H285.3z"/>
	<path class="st1" d="M336,82c-11.4,0-20.1-9.6-20.1-21.7c0-12.3,8.9-21.7,20.1-21.7c9.4,0,16.3,5.4,19,13.9h-8.5
		c-1.8-3.8-5.6-6.7-10.5-6.7c-6.9,0-12.3,6.7-12.3,14.5c0,7.8,5.4,14.5,12.3,14.5c4.7,0,8.5-2.9,10.5-6.7h8.5
		C352.3,76.6,345.2,82,336,82"/>
	<polygon class="st1" points="372.9,67 372.9,81.3 364.8,81.3 364.8,39.5 372.9,39.5 372.9,56.3 388.5,39.5 399.5,39.5 382.5,57 
		400.2,81.3 389.9,81.3 376.9,62.8 	"/>
	<path class="st1" d="M437.3,60.3c0-7.8-5.6-14.1-12.3-14.1c-6.9,0-12.5,6.5-12.5,14.1c0,7.8,5.6,14.3,12.5,14.3
		C431.7,74.4,437.3,68.1,437.3,60.3 M445.3,60.3c0,12.1-8.5,21.7-20.3,21.7c-11.8,0-20.3-9.6-20.3-21.7c0-12.1,8.5-21.7,20.3-21.7
		C436.6,38.6,445.3,48.2,445.3,60.3"/>
	<path class="st1" d="M485.6,60.3c0-7.8-5.6-14.1-12.3-14.1c-6.9,0-12.5,6.5-12.5,14.1c0,7.8,5.6,14.3,12.5,14.3
		C480.2,74.4,485.6,68.1,485.6,60.3 M493.6,60.3c0,12.1-8.5,21.7-20.3,21.7c-11.9,0-20.3-9.6-20.3-21.7c0-12.1,8.5-21.7,20.3-21.7
		C485.1,38.6,493.6,48.2,493.6,60.3"/>
	<polygon class="st1" points="512.4,73.9 533.2,73.9 533.2,81.3 504.6,81.3 504.6,39.5 512.6,39.5 512.6,73.9 	"/>
	<polygon class="st1" points="233.4,110.8 220.6,110.8 220.6,93.6 233.2,93.6 233.2,96.8 223.8,96.8 223.8,100.3 231.8,100.3 
		231.8,103.5 223.8,103.5 223.8,107.9 233.4,107.9 	"/>
	<polygon class="st1" points="249.3,110.8 245.9,110.8 245.9,104.1 240.1,93.6 243.9,93.6 247.7,101 251.5,93.6 255.3,93.6 
		249.5,104.4 249.5,110.8 	"/>
	<polygon class="st1" points="275.6,110.8 262.9,110.8 262.9,93.6 275.4,93.6 275.4,96.8 266,96.8 266,100.3 274.1,100.3 
		274.1,103.5 266,103.5 266,107.9 275.4,107.9 275.4,110.8 	"/>
	<rect x="298" y="93.6" class="st1" width="3.4" height="17.2"/>
	<polygon class="st1" points="325,110.8 321,110.8 314.1,98.5 314.1,110.8 310.7,110.8 310.7,93.6 314.8,93.6 321.7,105.9 
		321.7,93.6 325,93.6 	"/>
	<path class="st1" d="M347.4,99H344c0-1.6-1.3-2.7-3.4-2.7c-1.8,0-3.4,0.7-3.4,2c0,1.1,1.1,1.6,3.8,2.2c4,0.9,6.7,1.8,6.7,5.4
		c0,3.4-2.7,5.4-7.2,5.4c-3.4,0-7.2-1.8-7.2-6h3.4c0,2,2,2.9,3.8,2.9s3.8-0.7,3.8-2.2c0-1.1-0.9-1.8-4-2.5c-3.1-0.7-6.5-1.6-6.5-5.4
		c0-2.9,2.7-4.9,6.7-4.9C345.4,93.2,347.4,96.1,347.4,99"/>
	<polygon class="st1" points="362.6,96.8 362.6,110.8 359.2,110.8 359.2,96.8 354.6,96.8 354.6,93.6 367.1,93.6 367.1,96.8 	"/>
	<rect x="375.6" y="93.6" class="st1" width="3.4" height="17.2"/>
	<polygon class="st1" points="395,96.8 395,110.8 391.7,110.8 391.7,96.8 387,96.8 387,93.6 399.5,93.6 399.5,96.8 	"/>
	<path class="st1" d="M420.9,104.1c0,4.5-2.2,7.2-6.7,7.2c-4.2,0-6.7-2.7-6.7-7.2V93.6h3.4v10.5c0,2.5,1.1,3.8,3.4,3.8
		c2.2,0,3.4-1.3,3.4-3.8V93.6h3.4V104.1z"/>
	<polygon class="st1" points="436.8,96.8 436.8,110.8 433.5,110.8 433.5,96.8 428.8,96.8 428.8,93.6 441.3,93.6 441.3,96.8 	"/>
	<polygon class="st1" points="462.5,110.8 449.8,110.8 449.8,93.6 462.3,93.6 462.3,96.8 452.9,96.8 452.9,100.3 461,100.3 
		461,103.5 452.9,103.5 452.9,107.9 462.3,107.9 462.3,110.8 	"/>
	<g>
		<rect x="36.3" y="167" class="st1" width="503.7" height="1.8"/>
	</g>
	<path class="st1" d="M119.6,107C95,107,73.3,95.4,59.5,77.3c16.1,14.1,37.1,22.8,60.1,22.8c23.2,0,44.3-8.5,60.1-22.8
		C165.9,95.4,144.2,107,119.6,107"/>
	<polygon class="st2" points="131.9,84.9 127.2,84.9 127.2,66.8 122.3,84.9 117.1,84.9 112.2,66.8 112.2,84.9 107.5,84.9 
		107.5,60.3 114.5,60.3 119.6,78.9 124.7,60.3 131.7,60.3 131.7,84.9 	"/>
</g>
</svg>
