<?xml version="1.0" encoding="utf-8"?>
<!-- Generator: Adobe Illustrator 25.0.0, SVG Export Plug-In . SVG Version: 6.00 Build 0)  -->
<svg version="1.1" id="Layer_1" xmlns="http://www.w3.org/2000/svg" xmlns:xlink="http://www.w3.org/1999/xlink" x="0px" y="0px"
	 viewBox="0 0 400 80" style="enable-background:new 0 0 400 80;" xml:space="preserve">
<style type="text/css">
	.st0{fill:#000000;}
</style>
<path class="st0" d="M56.3,39.9c0,1.1-15.5,14.1-26.1,14.5s-14.6-3-16.5-4.2c-1.9-1.3-2-2.7-2-2.7s0-1.2,1.3-0.2
	c1.4,1,10.6,7,19.9,3.4c9-3.4,18-10.8,20.3-12.1C53.6,38.4,56.3,37.2,56.3,39.9z"/>
<path class="st0" d="M4.4,41.4c0-1.1,15.5-14.1,26.1-14.5s14.6,3,16.5,4.2c1.9,1.3,2,2.7,2,2.7s0,1.2-1.3,0.2
	c-1.4-1-10.6-7-19.9-3.4c-9,3.4-18,10.8-20.3,12.1C7,42.8,4.3,44.1,4.4,41.4z"/>
<path class="st0" d="M37.7,40.2c0,3.6-2.9,6.5-6.5,6.5s-6.5-2.9-6.5-6.5s2.9-6.5,6.5-6.5S37.7,36.6,37.7,40.2z"/>
<g>
	<path class="st0" d="M79.2,5.7c5.5,0,10.5,11.1,10.5,28.2s-5,28.2-10.5,28.2S68.7,51,68.7,33.9S73.7,5.7,79.2,5.7z M79.2,60.3
		c4,0,6-6.1,6-26.5s-1.9-26.5-6-26.5c-4,0-6,6.1-6,26.5C73.2,54.3,75.2,60.3,79.2,60.3z"/>
	<path class="st0" d="M93.4,25.4h4.8v4.5h0.1c1.1-4.2,2.7-5.7,4.7-5.7s4,2.5,4.6,5.7c1.1-4.2,2.7-5.7,4.7-5.7c2.9,0,5.1,3,5.1,9.9
		v25.6h1.9v1.6h-7.2v-1.6h1.9v-26c0-5.1-0.9-6.9-2.4-6.9c-2.2,0-3.7,3.7-3.7,10.9v22.1h1.9v1.6h-7.2v-1.6h1.9v-26
		c0-5.1-0.9-6.9-2.4-6.9c-2.2,0-3.7,3.7-3.7,10.9v22.1h1.9v1.6h-7.2v-1.6H95V27h-1.5v-1.6H93.4z"/>
	<path class="st0" d="M121.8,25.4h5.1v4.8h0.1c0.9-3,2.6-5.9,5.1-5.9c2.9,0,4.9,2.7,4.9,10.4v25.1h2v1.6h-7.5v-1.6h2.1v-26
		c0-5.2-0.8-7-2.5-7c-2,0-3.9,3.4-3.9,10.8v22.2h2.1v1.6h-7.5v-1.6h2V27h-2L121.8,25.4L121.8,25.4z"/>
	<path class="st0" d="M146.9,59.8h1.7v1.6h-6.9v-1.6h1.7V27h-1.7v-1.6h5.2V59.8z M145.2,13.4c1.2,0,2.1,1.6,2.1,4s-0.9,4-2.1,4
		c-1.2,0-2.1-1.6-2.1-4S144,13.4,145.2,13.4z"/>
	<path class="st0" d="M161.8,60.8v-1.7h2.2V8.7h-2.2V7h18.5v17.3h-0.8c-2-14.6-2.5-15.6-4.4-15.6h-7.2V32h2.8
		c1.8,0,2.7-2.4,3.4-10.7h0.8v23.2h-0.8c-0.7-8.3-1.6-10.7-3.4-10.7h-2.8v25.4h6.4c2.6,0,3.3-2.1,5.5-18.2h0.8v19.9L161.8,60.8
		L161.8,60.8z"/>
	<path class="st0" d="M182.5,25.4h7.8V27h-2.7l5.3,24.7l4.4-24.7h-3.2v-1.6h5.8V27h-1.6l-6.7,37.3c-1.4,7.9-2.5,9.4-4.6,9.4
		c-1.3,0-2.3-0.6-2.8-1.7V61h0.8l1,6.9c0.5,3.7,1.1,4.3,1.7,4.3c1.5,0,2.6-4.9,3.5-11L183.9,27h-1.4V25.4z"/>
	<path class="st0" d="M204.1,40c0,0.7,0,1.4,0,2.1c0,13.7,1.7,18.4,4.5,18.4c3.1,0,5.3-3.8,5.7-12.6h0.8c-0.2,9.8-3.1,14.6-6.8,14.6
		c-4.6,0-7.9-7.8-7.9-19.1s3.5-19.1,7.8-19.1c4.1,0,6.8,5.7,6.8,15.7H204.1z M211.1,38.4v-2.8c0-7.1-1.2-9.8-3.1-9.8
		c-2.3,0-3.6,4.4-3.9,12.6C204.1,38.4,211.1,38.4,211.1,38.4z"/>
	<path class="st0" d="M230,40.6c1.5,14.5,2.9,19.8,6.4,19.8c3.3,0,5.9-4.7,5.9-11.4c0-15.4-13.5-9.4-13.5-27.9
		c0-9.2,3.3-15.4,8.3-15.4c2.7,0,5,1.3,6.8,3.1v15.6h-0.8l-1.3-9c-0.9-6.1-2.7-7.9-5.1-7.9c-3.2,0-5.5,4.6-5.5,10.3
		c0,5.8,1.9,7.4,6.8,11.4c5.4,4.4,7.3,7.3,7.3,15.9c0,9.8-3.9,17.1-9.5,17.1c-2.1,0-5.2-2-6.8-4.4V40.7L230,40.6L230,40.6z"/>
	<path class="st0" d="M248.6,73.7v-1.6h1.7V27h-1.7v-1.6h5v4.2h0.1c0.7-3.3,2.2-5.3,4.3-5.3c4.4,0,7.1,8.5,7.1,19.1
		c0,12.5-3.4,19.1-7.1,19.1c-1.9,0-3.3-1.7-4.1-5.1h-0.2v14.7h2v1.6L248.6,73.7L248.6,73.7z M257.4,26.3c-2.2,0-3.6,3.2-3.6,17.1
		c0,12.3,1.3,17.1,3.8,17.1c2.4,0,3.8-3.7,3.8-17.1C261.3,31.6,259.9,26.3,257.4,26.3z"/>
	<path class="st0" d="M272.1,40c0,0.7,0,1.4,0,2.1c0,13.7,1.7,18.4,4.5,18.4c3.1,0,5.3-3.8,5.7-12.6h0.8c-0.2,9.8-3.1,14.6-6.8,14.6
		c-4.6,0-7.9-7.8-7.9-19.1s3.5-19.1,7.8-19.1c4.1,0,6.8,5.7,6.8,15.7H272.1z M279.1,38.4v-2.8c0-7.1-1.2-9.8-3.1-9.8
		c-2.3,0-3.6,4.4-3.9,12.6C272.1,38.4,279.1,38.4,279.1,38.4z"/>
	<path class="st0" d="M300.2,39.4h-1c-1.7-12.5-2.5-13.6-4.4-13.6c-2.3,0-4.6,4.4-4.6,16.8c0,13,1.7,17.8,4.7,17.8
		c2.8,0,4.6-3.9,4.7-12.5h0.8c0,10-2.6,14.4-6,14.4c-4.9,0-8-7.8-8-19.1s3.3-19.1,8.8-19.1c1.6,0,3.3,1.2,5,2.3V39.4z"/>
	<path class="st0" d="M308.9,59.8h1.7v1.6h-6.9v-1.6h1.7V27h-1.7v-1.6h5.2L308.9,59.8L308.9,59.8z M307.2,13.4c1.2,0,2.1,1.6,2.1,4
		s-0.9,4-2.1,4s-2.1-1.6-2.1-4C305.2,15,306.1,13.4,307.2,13.4z"/>
	<path class="st0" d="M316.1,38.3V26.8c1.9-1.5,3.6-2.5,5.6-2.5c4.5,0,6.6,4.7,6.6,9.1v26.5h1.7v1.6h-5v-6.2h-0.1
		c-0.9,4.4-2.9,7.4-5.5,7.4c-3.3,0-5.5-3.7-5.5-9.8c0-12.4,7.5-8.8,11.1-13.1v-7.4c0-4.5-1.2-6.3-3.2-6.3c-2.5,0-3.2,2.5-5,12.5
		h-0.7V38.3z M325.1,41.4c-4.1,3.8-7.5,1.1-7.5,11.2c0,5.3,1,7.3,2.9,7.3c2.7-0.1,4.5-5.4,4.5-13.2v-5.3H325.1z"/>
	<path class="st0" d="M337.9,59.8h1.7v1.6h-6.9v-1.6h1.7V14h-1.7v-1.6h5.2V59.8z"/>
	<path class="st0" d="M348,59.8h1.7v1.6h-6.9v-1.6h1.7V27h-1.7v-1.6h5.2L348,59.8L348,59.8z M346.3,13.4c1.2,0,2.1,1.6,2.1,4
		s-0.9,4-2.1,4s-2.1-1.6-2.1-4S345.1,13.4,346.3,13.4z"/>
	<path class="st0" d="M353.9,46.9c1.3,11.9,2,14,5.3,14c2.8,0,4.9-2.8,4.9-8c0-6.9-11.3-5.4-11.3-17.3c0-7.1,2.9-11.3,7.1-11.3
		c2,0,3.9,1.1,5.2,2.5v11.4h-1c-1.6-10.5-2-12.3-4.5-12.3c-2.3,0-4.5,2.5-4.5,6.4c0,8.9,11.3,5.9,11.3,18.3c0,7.2-3.2,12-7.6,12
		c-1.9,0-4.2-1.1-6-3.1V47L353.9,46.9L353.9,46.9z"/>
	<path class="st0" d="M368.9,25.4h2.3v-8.5h3.4v8.5h4.2V27h-4.2v29.2c0,2.7,0.6,3.8,2,3.8c1.6,0,2.5-1.8,2.5-7.1v-5.7h0.8v5.2
		c0,7.5-1.6,10-4.6,10c-2.6,0-4.1-2.7-4.1-8.5v-27h-2.3L368.9,25.4L368.9,25.4z"/>
	<path class="st0" d="M382.8,46.9c1.3,11.9,2,14,5.3,14c2.8,0,4.9-2.8,4.9-8c0-6.9-11.3-5.4-11.3-17.3c0-7.1,2.9-11.3,7.1-11.3
		c2,0,3.9,1.1,5.2,2.5v11.4h-1c-1.6-10.5-2-12.3-4.5-12.3c-2.3,0-4.5,2.5-4.5,6.4c0,8.9,11.3,5.9,11.3,18.3c0,7.2-3.2,12-7.6,12
		c-1.9,0-4.2-1.1-6-3.1V47L382.8,46.9L382.8,46.9z"/>
</g>
</svg>
