<?xml version="1.0" encoding="utf-8"?>
<!-- Generator: Adobe Illustrator 25.4.1, SVG Export Plug-In . SVG Version: 6.00 Build 0)  -->
<svg version="1.1" id="Layer_1" xmlns="http://www.w3.org/2000/svg" xmlns:xlink="http://www.w3.org/1999/xlink" x="0px" y="0px"
	 viewBox="0 0 400.3 106.4" style="enable-background:new 0 0 400.3 106.4;" xml:space="preserve">
<style type="text/css">
	.st0{fill:#0B3254;stroke:#0B3254;stroke-width:0.594;stroke-linecap:square;}
	.st1{fill:#0B3254;stroke:#0B3254;stroke-width:0.59;}
	.st2{fill:#0B3254;}
	.st3{fill:#00A7E0;}
</style>
<g>
	<path class="st0" d="M202,55.6l-10.9-23.9h-0.9l-9,20.6c-1.8,4.1-3,7.3-5.7,7.5v0.8h8.8v-0.8c-1.5,0-3-0.4-3-1.8
		c0-1.6,1.8-5,2.4-6.6h11.6L197,55c1.7,3.8,1.7,4.6-2,4.8v0.8h11.3v-0.8C203.8,59.9,202.8,57.4,202,55.6z M184.5,49.6l5.1-11.8
		l5.2,11.8H184.5z"/>
	<path class="st1" d="M209.7,81.8c-0.2-0.6-0.6-1-1-1.4c-0.5-0.4-1.1-0.7-1.9-1.1c-0.8-0.3-1.4-0.6-1.8-0.7l-3.4-1
		c-1.1-0.3-1.9-0.6-2.3-0.9c-0.5-0.3-0.8-0.6-1.1-1c-0.2-0.4-0.3-0.8-0.3-1.2c0-0.5,0.1-0.9,0.4-1.3c0.3-0.4,0.7-0.8,1.4-1.1
		c0.6-0.3,1.3-0.4,2.1-0.4c1.3,0,2.4,0.4,3.5,1.1c1.3,0.9,2.3,2.2,3,3.7l1.2-0.3l-1.4-5.6h-0.9l-0.6,1.3c-0.5-0.5-1.1-0.8-1.8-1
		c-0.9-0.3-1.9-0.5-2.9-0.5c-1.2,0-2.3,0.2-3.3,0.7c-1,0.5-1.8,1.1-2.2,1.8c-0.5,0.7-0.7,1.5-0.7,2.3c0,1.1,0.4,2,1.1,2.8
		c0.7,0.8,2,1.5,3.9,2l3.3,0.9c1.5,0.4,2.5,0.9,3.1,1.4c0.6,0.5,0.9,1.1,0.9,2c0,0.8-0.4,1.6-1.2,2.2c-0.9,0.7-2,1.1-3.3,1.1
		c-0.9,0-1.8-0.2-2.7-0.6c-0.9-0.4-1.7-1.1-2.4-1.9c-0.7-0.8-1.3-1.9-1.8-3.1l-1.2,0.2l1.2,6.5h0.9l0.6-1.7c1,0.8,1.8,1.3,2.6,1.6
		c0.8,0.3,1.8,0.4,2.8,0.4c2,0,3.6-0.6,4.9-1.6c1.3-1.1,1.9-2.3,1.9-3.8C210.1,83,210,82.4,209.7,81.8z"/>
	<path class="st0" d="M163.1,55.4L163,22.6c0-1.9,1-4,5.9-4v-1.2h-13.3l-14.7,33l-15.4-33h-13.2v1.2c5.3,0,6.3,2.1,6.3,4v32.8
		c0,1.9-1,4-6.5,4v1.2H128v-1.2c-5.5,0-6.5-2.1-6.5-4V24.9l16.7,35.7h0.9l17.1-37.2v32c0,1.9-1,4-5.9,4v1.2H169v-1.2
		C164.1,59.4,163.1,57.3,163.1,55.4z"/>
	<path class="st0" d="M265.8,57.3L257,46.7c4.2-0.6,8-2.7,8-7.3c0-5.1-4.4-7.6-11.8-7.6h-11.7v0.8c3.1,0,3.8,1.4,3.8,2.7v21.9
		c0,1.3-0.7,2.7-3.8,2.7v0.8h12.2v-0.8c-3.3,0-3.9-1.4-3.9-2.7v-9.8l2.5-0.1l10.6,13.4h7.2v-0.8C268,59.6,267,58.8,265.8,57.3z
		 M249.8,45.7V35.5c0-2,0.4-2,3.3-2c4,0,7.1,1.7,7.1,6C260.2,44.1,256.3,45.4,249.8,45.7z"/>
	<path class="st0" d="M291.3,31.8v0.8c3.5,0,4.2,1.4,4.2,2.7V49c0,4.1,0,10.3-8.4,10.3c-5.6,0-7.7-2.6-7.7-9.4V35.2
		c0-1.3,0.7-2.7,3.9-2.7v-0.8H271v0.8c3.2,0,3.9,1.4,3.9,2.7v14.3c0,8,3.3,11.6,11.4,11.6c1.9,0,4.3-0.5,5.7-1.1
		c5-2.4,5.5-6.2,5.5-11.1V35.2c0-1.3,0.7-2.7,4.2-2.7v-0.8H291.3z"/>
	<path class="st0" d="M319.5,31.8H308v0.8c3.2,0,3.9,1.4,3.9,2.7v21.9c0,1.3-0.7,2.7-3.9,2.7v0.8h11.8c11.9,0,17.9-5.5,17.9-14.3
		C337.8,36.5,330.9,31.8,319.5,31.8z M318.6,58.8c-1,0-2.1-0.5-2.1-2.1V35.6c0-2.1,0.4-2.2,2.5-2.2c8.2,0,13.9,4.4,13.9,12.9
		C332.9,54.4,327.7,59.2,318.6,58.8z"/>
	<path class="st0" d="M365.5,53.2c-2.4,5.5-5.7,5.6-9.3,5.6h-5.9c-0.9,0-1.2-0.9-1.2-1.7V46.4h6.3c3,0,5.5,0.8,5.5,4.2h0.9V40.4H361
		c0,3.4-2.5,4.2-5.5,4.2h-6.3v-9.4c0-1.1,0.9-1.7,2-1.7h7.2c3.1,0,4.6,2.1,5.1,4.4h1v-6.2h-23.6v0.8c3.2,0,3.9,1.4,3.9,2.7v21.9
		c0,1.3-0.7,2.7-3.9,2.7v0.8h24l2-7.4H365.5z"/>
	<path class="st0" d="M395.7,57.3l-8.8-10.6c4.2-0.6,8-2.7,8-7.3c0-5.1-4.4-7.6-11.8-7.6h-11.7v0.8c3.1,0,3.8,1.4,3.8,2.7v21.9
		c0,1.3-0.7,2.7-3.8,2.7v0.8h12.2v-0.8c-3.2,0-3.9-1.4-3.9-2.7v-9.8l2.5-0.1l10.6,13.4h7.2v-0.8C397.9,59.6,396.9,58.8,395.7,57.3z
		 M379.7,45.7V35.5c0-2,0.4-2,3.3-2c4,0,7.1,1.7,7.1,6C390.1,44.1,386.2,45.4,379.7,45.7z"/>
	<path class="st0" d="M131.5,70.7v-0.5h-8v0.5c2.1,0,2.5,0.9,2.5,1.7v6.3h-8.8v-6.3c0-0.8,0.4-1.7,2.5-1.7v-0.5h-8v0.5
		c2.1,0,2.5,0.9,2.5,1.7v14.2c0,0.8-0.4,1.7-2.5,1.7v0.5h8v-0.5c-2.1,0-2.5-0.9-2.5-1.7v-6.7h8.8v6.7c0,0.8-0.4,1.7-2.5,1.7v0.5h8
		v-0.5c-2.1,0-2.5-0.9-2.5-1.7V72.4C129,71.6,129.4,70.7,131.5,70.7z"/>
	<path class="st0" d="M162.4,70.2c-5.4-0.1-9.1,4-9.1,9.3c0,5.7,4.2,9.3,9.1,9.3c5.5,0,9-4.1,9-9.3C171.4,73.8,167.2,70,162.4,70.2z
		 M162.4,87.9c-3.3,0.2-5.9-2.8-5.9-8.4c0-5.2,1.8-8.1,5.9-8.4c4.3-0.1,5.9,4.1,5.9,8.4C168.4,82.4,167.3,87.5,162.4,87.9z"/>
	<path class="st0" d="M242,80.7c3.7,0,7.3-1.4,7.3-5.6c0-3.3-3.5-4.9-7.9-4.9h-7.3v0.5c2,0,2.4,0.9,2.4,1.7v14.2
		c0,0.8-0.4,1.7-2.5,1.7v0.5h8v-0.5c-2.1,0-2.5-0.9-2.5-1.7v-6.1C240.3,80.7,241.2,80.7,242,80.7z M239.5,72.5
		c0-1.2,0.1-1.3,1.3-1.3c2.8,0,5.4,0.9,5.4,4.1c0,3.3-2.2,4.3-5.3,4.3c-0.5,0-1-0.1-1.4-0.1V72.5z"/>
	<path class="st0" d="M280.2,70.7v-0.5h-8.6v0.5c2.4,0,2.8,0.9,2.8,1.7v14.2c0,0.8-0.4,1.7-2.8,1.7v0.5h8.6v-0.5
		c-2.4,0-2.8-0.9-2.8-1.7V72.4C277.4,71.6,277.8,70.7,280.2,70.7z"/>
	<path class="st0" d="M320.1,70.2h-16.4l-0.2,4.8h0.7c0.6-3.6,2-3.6,4.1-3.6h2.1v15.3c0,0.8-0.4,1.7-2.5,1.7v0.5h8v-0.5
		c-2.1,0-2.5-0.9-2.5-1.7V71.4h2.1c2.1,0,3.5,0,4.1,3.6h0.7L320.1,70.2z"/>
	<path class="st0" d="M358.5,85.7l-7.1-15.6h-0.6L345,83.5c-1.2,2.7-1.9,4.7-3.7,4.9v0.5h5.7v-0.5c-1,0-2-0.2-2-1.2
		c0-1,1.2-3.3,1.6-4.3h7.6l1,2.4c1.1,2.5,1.1,3-1.3,3.1v0.5h7.4v-0.5C359.7,88.5,359,86.8,358.5,85.7z M347.1,81.8l3.3-7.7l3.3,7.7
		H347.1z"/>
	<path class="st1" d="M226.8,46v1.7c1.5,0,2.5,0.1,2.8,0.2c0.4,0.2,0.8,0.5,1.1,0.9c0.2,0.4,0.4,1.2,0.4,2.2v1.3
		c0,0.9-0.1,1.7-0.2,2.3c-0.2,0.6-0.5,1.1-1,1.5c-0.7,0.6-1.5,1.1-2.6,1.6c-1.1,0.4-2.2,0.7-3.4,0.7c-1.8,0-3.6-0.5-5.2-1.6
		c-1.6-1-2.9-2.5-3.9-4.5c-1-2-1.5-4.1-1.5-6.5c0-3.3,0.9-6.1,2.9-8.4c1.9-2.4,4.3-3.6,7.1-3.6c2,0,3.8,0.6,5.3,1.8
		c1.6,1.1,2.9,3.1,4.1,5.8l1.8-0.6l-2.3-8.6h-1.5l-0.7,1.8c-0.7-0.6-1.4-1-2-1.3c-0.8-0.3-1.6-0.6-2.5-0.8c-0.9-0.2-1.8-0.3-2.8-0.3
		c-3.8,0-7,1.4-9.7,4.2c-2.7,2.7-4,6.2-4,10.3c0,4.1,1.3,7.5,4,10.3c2.7,2.7,5.9,4.1,9.6,4.1c1.9,0,3.7-0.4,5.6-1
		c1.3-0.4,2.5-1.1,3.6-1.9l1.1,2.4h2v-9.6c0-0.9,0.1-1.6,0.2-1.9c0.1-0.3,0.3-0.5,0.6-0.7c0.3-0.2,0.8-0.2,1.6-0.2h0.9V46H226.8z"/>
	<path class="st1" d="M399.2,84c-1.6,3.9-4.2,3.8-7.8,3.8c-1.8,0-2.9-0.3-2.9-1.1V72.4c0-0.8,0.4-1.7,2.5-1.7v-0.5h-8v0.5
		c2.1,0,2.5,0.9,2.5,1.7v14.2c0,0.8-0.4,1.7-2.5,1.7v0.5h15.5l1.4-4.9H399.2z"/>
	<path class="st2" d="M36.2,80.7c-3,3.1-8,3.1-11,0.1c-3.1-3-3.1-8-0.1-11c3-3.1,8-3.1,11-0.1C39.1,72.7,39.2,77.6,36.2,80.7z"/>
	<path class="st2" d="M36.2,35.7c-3,3.1-8,3.1-11,0.1s-3.1-8-0.1-11c3-3.1,8-3.1,11-0.1C39.1,27.7,39.2,32.6,36.2,35.7z"/>
	<path class="st2" d="M81,80.7c-3,3.1-8,3.1-11,0.1c-3.1-3-3.1-8-0.1-11s8-3.1,11-0.1C83.9,72.7,84,77.6,81,80.7z"/>
	<path class="st2" d="M81,35.7c-3,3.1-8,3.1-11,0.1c-3.1-3-3.1-8-0.1-11c3-3.1,8-3.1,11-0.1C83.9,27.7,84,32.6,81,35.7z"/>
	<path class="st2" d="M49.8,89.9c-0.1-1.4-0.3-3.2-0.5-5.1c-0.6-0.1-1.2-0.2-1.8-0.3c-3.3-0.6-6.4-1.7-9.3-3.2
		c-0.2,0.2-0.4,0.5-0.6,0.7c-1.2,1.2-2.7,2.1-4.2,2.5c4.4,2.8,9.2,4.5,14.2,5.3c0.8,0.1,1.5,0.2,2.3,0.3
		C49.8,90.1,49.8,90,49.8,89.9z"/>
	<path class="st2" d="M21.2,49.3c0.4-4,1.6-7.9,3.4-11.4c-0.3-0.2-0.6-0.5-0.9-0.8c-1.2-1.2-2-2.5-2.5-4c-3.2,5.1-5,10.9-5.5,16.7
		c0.2,0,0.4,0,0.6,0C17.8,49.7,19.4,49.5,21.2,49.3z"/>
	<polygon class="st2" points="53.2,20.6 53.2,20.6 53.2,20.6 	"/>
	<path class="st2" d="M85.1,57.1c-0.5,3.7-1.6,7.3-3.3,10.6c0.2,0.2,0.4,0.4,0.7,0.6c1.3,1.3,2.1,2.8,2.6,4.4
		c3.1-5,4.9-10.5,5.5-16.1c-0.2,0-0.4,0-0.6,0C88.5,56.7,86.9,56.9,85.1,57.1z"/>
	<path class="st2" d="M68.8,82.1c-0.2-0.2-0.5-0.5-0.7-0.8c-3,1.5-6.1,2.6-9.5,3.2c-0.5,0.1-1,0.2-1.5,0.2c-0.2,1.9-0.4,3.7-0.5,5.1
		c0,0.1,0,0.2,0,0.2c0.7-0.1,1.4-0.1,2-0.2c5-0.7,10-2.5,14.4-5.3C71.4,84.2,70,83.3,68.8,82.1z"/>
	<path class="st2" d="M24.6,67.6c-1.7-3.3-2.8-6.8-3.3-10.5c-1.8-0.2-3.4-0.4-4.8-0.5c-0.2,0-0.4,0-0.6,0c0.5,5.6,2.3,11,5.4,15.9
		c0.4-1.5,1.2-2.9,2.4-4.1C24,68.1,24.3,67.8,24.6,67.6z"/>
	<path class="st2" d="M58.6,15.8c-0.7-0.1-1.4-0.2-2.1-0.2c0,0.3,0.1,0.6,0.1,1c0.1,1.3,0.2,2.8,0.4,4.4c0.5,0.1,1.1,0.1,1.6,0.2
		c3.3,0.6,6.4,1.6,9.3,3.1c0.2-0.3,0.4-0.5,0.7-0.8c1.2-1.2,2.6-2,4.2-2.5C68.4,18.2,63.6,16.5,58.6,15.8z"/>
	<path class="st2" d="M81.7,37.8c1.9,3.6,3.1,7.5,3.5,11.5c1.8,0.2,3.4,0.4,4.7,0.5c0.2,0,0.4,0,0.6,0.1c-0.5-5.9-2.3-11.7-5.6-16.9
		c-0.4,1.5-1.2,2.9-2.4,4.1C82.2,37.3,82,37.6,81.7,37.8z"/>
	<path class="st2" d="M47.5,15.8c-4.9,0.7-9.7,2.5-14,5.1c1.5,0.5,2.8,1.2,3.9,2.3c0.3,0.3,0.6,0.6,0.9,1c2.9-1.5,6-2.6,9.2-3.1
		c0.6-0.1,1.2-0.2,1.9-0.3c0.2-1.6,0.3-3.1,0.4-4.4c0-0.3,0.1-0.6,0.1-1C49.1,15.6,48.3,15.7,47.5,15.8z"/>
	<path class="st3" d="M101.8,52.6c-2.9-0.3-7.1-0.7-12.1-1.1c-6.9-0.5-20.9-2.6-27.5-3.6c0.9-1.4,1.7-2.7,2.2-3.6
		c1.1-1.6,2-3.1,2.5-4.1c0.6-1,0.2-1.4-0.8-0.8c-1,0.6-2.5,1.4-4.1,2.5c-0.9,0.6-2.3,1.5-3.9,2.6c-0.8-6.2-2.8-20.7-3.3-27.9
		c-0.3-5-0.8-9.1-1.1-12.1C53.5,1.7,53.2,0,53.2,0S53,1.7,52.6,4.6c-0.3,2.9-0.7,7.1-1.1,12.1c-0.5,6.9-2.5,20.4-3.5,27
		c-1.7-1-3.4-2.1-4.6-2.9c-1.8-1.2-3.4-2.2-4.5-2.8c-1.1-0.6-1.5-0.2-0.9,0.9c0.6,1.1,1.6,2.7,2.8,4.5c0.7,1.1,1.7,2.7,2.8,4.5
		c-6.7,1-20.2,3-27,3.6c-5,0.3-9.1,0.8-12.1,1.1C1.7,52.9,0,53.2,0,53.2s1.7,0.3,4.6,0.6c2.9,0.3,7.1,0.7,12.1,1.1
		c7.1,0.5,21.3,2.5,27.7,3.4c-0.9,1.5-1.7,2.9-2.4,3.9c-1.1,1.6-2,3.1-2.5,4.1c-0.6,1-0.2,1.4,0.8,0.8c1-0.6,2.5-1.4,4.1-2.5
		c0.9-0.6,2.2-1.4,3.7-2.3c1,6.6,3,20.6,3.5,27.6c0.3,5,0.8,9.1,1.1,12.1c0.3,2.9,0.6,4.6,0.6,4.6s0.3-1.7,0.6-4.6
		c0.3-2.9,0.7-7.1,1.1-12.1c0.5-6.8,2.3-20.4,3.2-27.2c1.9,1.1,3.7,2.2,4.9,3c1.8,1.2,3.4,2.2,4.5,2.8c1.1,0.6,1.5,0.2,0.9-0.9
		c-0.6-1.1-1.6-2.7-2.8-4.5c-0.7-1.1-1.9-2.9-3.2-4.8c6.7-0.9,20.5-2.7,27.4-3.2c5-0.3,9.1-0.8,12.1-1.1c2.9-0.3,4.6-0.6,4.6-0.6
		S104.7,53,101.8,52.6z"/>
</g>
</svg>
