<?xml version="1.0" encoding="utf-8"?>
<!-- Generator: Adobe Illustrator 24.0.1, SVG Export Plug-In . SVG Version: 6.00 Build 0)  -->
<svg version="1.1" id="Artboard_1" xmlns="http://www.w3.org/2000/svg" xmlns:xlink="http://www.w3.org/1999/xlink" x="0px" y="0px"
	 width="1153.2218018px" height="218.9895782px" viewBox="0 0 1153.2218018 218.9895782"
	 style="enable-background:new 0 0 1153.2218018 218.9895782;" xml:space="preserve">
<style type="text/css">
	.st0{fill:#003A96;}
	.st1{fill:#009CA6;}
</style>
<g id="_x3C_Group_x3E__1_">
	<g>
		<path class="st0" d="M215.1963959,104.8704453l28.7988281,68.806633l28.0790863-68.806633H292.23349v90.1445236h-15.8398438
			v-70.4853439l-26.6386566,65.9306564h-14.1591797l-26.6386719-65.9306564v70.4853439h-14.1591797v-90.1445236H215.1963959z"/>
		<path class="st0" d="M311.5557556,131.0032501c0,0,8.1601562-2.8769531,21.1191406-2.8769531
			c9.8398438,0,18.7197266,1.6777344,23.2792969,8.1503906c3.5996094,5.0351562,3.5996094,11.7480469,3.5996094,17.7421875
			v22.5351562c0,2.7578125,0,7.671875,5.6396484,7.671875c1.7998047,0,3.4804688-0.4785156,3.4804688-0.4785156v11.0273438
			c0,0-3.6005859,0.9589844-8.3994141,0.9589844c-8.4003906,0-13.6796875-2.8769531-14.6396484-11.7470703
			c-2.4003906,7.671875-9.8398438,11.9873047-19.4394531,11.9873047c-12.9599609,0-21.1191406-7.9121094-21.1191406-19.7792969
			c0-14.2646484,11.7597656-21.2167969,32.6386719-21.2167969c3.8398438,0,6.2392578,0.2392578,6.2392578,0.2392578
			c0-5.5146484,0-8.1513672-1.9199219-11.0283203c-1.9199219-2.7568359-5.1591797-4.3154297-11.6386719-4.3154297
			c-9.4804688,0-17.8798828,3.3564453-17.8798828,3.3564453h-0.9599609V131.0032501z M330.6348572,184.2259064
			c4.6806641,0,9-2.1572266,11.1601562-6.2324219c2.1591797-4.0761719,2.1591797-8.8710938,2.1591797-11.5078125v-1.4394531
			h-3.5996094c-6.9589844,0-18.9589844,0-18.9589844,10.3095703
			C321.3955994,180.6302032,324.5157166,184.2259064,330.6348572,184.2259064z"/>
		<path class="st0" d="M418.3536072,143.2298126h-0.9599609c0,0-8.3994141-3.3564453-15.8388672-3.3564453
			c-6.7197266,0-9.8398438,2.6376953-9.8398438,5.9931641c0,10.1894531,29.7587891,7.1933594,29.7587891,29.96875
			c0,14.0253906-11.1591797,20.1386719-26.9990234,20.1386719c-11.3994141,0-18.5986328-3.1171875-18.5986328-3.1171875v-12.7060547
			h0.9599609c0,0,10.0791016,4.0751953,18.4785156,4.0751953c7.2001953,0,10.3203125-2.8769531,10.3203125-6.7128906
			c0-11.8671875-29.7587891-8.390625-29.7587891-29.8476562c0-11.9873047,9.359375-19.5390625,26.0390625-19.5390625
			c9.359375,0,16.4384766,2.3964844,16.4384766,2.3964844V143.2298126z"/>
		<path class="st0" d="M471.7539978,143.2298126h-0.9599609c0,0-8.3994141-3.3564453-15.8388672-3.3564453
			c-6.7197266,0-9.8398438,2.6376953-9.8398438,5.9931641c0,10.1894531,29.7587891,7.1933594,29.7587891,29.96875
			c0,14.0253906-11.1591797,20.1386719-26.9990234,20.1386719c-11.3994141,0-18.5986328-3.1171875-18.5986328-3.1171875v-12.7060547
			h0.9599609c0,0,10.0791016,4.0751953,18.4785156,4.0751953c7.2001953,0,10.3203125-2.8769531,10.3203125-6.7128906
			c0-11.8671875-29.7587891-8.390625-29.7587891-29.8476562c0-11.9873047,9.359375-19.5390625,26.0390625-19.5390625
			c9.359375,0,16.4384766,2.3964844,16.4384766,2.3964844V143.2298126z"/>
		<path class="st0" d="M565.9503174,104.8704453v12.2265625h-38.1582031v24.9335861h32.3984375v12.2275391h-32.3984375v28.5302734
			h40.078125v12.2265625H511.95224v-90.1445236H565.9503174z"/>
		<path class="st0" d="M612.9903564,193.5764923c-5.0390625,13.4257812-9.9589844,25.4130859-28.1982422,25.4130859
			c-5.1601562,0-8.7597656-0.9589844-8.7597656-0.9589844V205.563797h0.9599609c0,0,4.5595703,1.6777344,8.1591797,1.6777344
			c6.7197266,0,10.0800781-5.7539062,13.4394531-14.3847656l-26.3984375-63.7714844h17.7587891l16.7998047,45.5507812
			l16.3193359-45.5507812h14.3994141L612.9903564,193.5764923z"/>
		<path class="st0" d="M697.710083,193.0970001c0,0-9,2.8769531-20.8798828,2.8769531
			c-12.7197266,0-20.1591797-3.3564453-25.1982422-8.1513672c-6-5.7539062-8.8798828-14.3847656-8.8798828-25.2929688
			c0-21.4580078,11.0390625-35.1230392,30.71875-35.1230392c10.7998047,0,18.9589844,4.0751877,23.5185547,11.5078049
			c4.5605469,7.4326172,4.5605469,17.2617188,4.5605469,27.5712891h-42.4785156
			c0,11.2675781,6.4794922,17.9804688,18.9589844,17.9804688c9.1191406,0,18.71875-3.5957031,18.71875-3.5957031h0.9609375
			V193.0970001z M685.4698486,155.6966095c0-11.0283203-3.359375-17.2617188-12.4794922-17.2617188
			c-9.2392578,0-12.9589844,6.5927734-13.9189453,17.2617188H685.4698486z"/>
		<path class="st0" d="M739.2286377,131.0032501c0,0,8.1601562-2.8769531,21.1191406-2.8769531
			c9.8398438,0,18.7197266,1.6777344,23.2792969,8.1503906c3.5996094,5.0351562,3.5996094,11.7480469,3.5996094,17.7421875
			v22.5351562c0,2.7578125,0,7.671875,5.6396484,7.671875c1.8007812,0,3.4804688-0.4785156,3.4804688-0.4785156v11.0273438
			c0,0-3.5996094,0.9589844-8.4003906,0.9589844c-8.3994141,0-13.6787109-2.8769531-14.6386719-11.7470703
			c-2.4003906,7.671875-9.8398438,11.9873047-19.4394531,11.9873047c-12.9589844,0-21.1191406-7.9121094-21.1191406-19.7792969
			c0-14.2646484,11.7597656-21.2167969,32.6386719-21.2167969c3.8398438,0,6.2402344,0.2392578,6.2402344,0.2392578
			c0-5.5146484,0-8.1513672-1.9199219-11.0283203c-1.9199219-2.7568359-5.1601562-4.3154297-11.6396484-4.3154297
			c-9.4794922,0-17.8798828,3.3564453-17.8798828,3.3564453h-0.9599609V131.0032501z M758.3077393,184.2259064
			c4.6796875,0,9-2.1572266,11.1601562-6.2324219c2.1601562-4.0761719,2.1601562-8.8710938,2.1601562-11.5078125v-1.4394531
			h-3.6005859c-6.9599609,0-18.9589844,0-18.9589844,10.3095703
			C749.0684814,180.6302032,752.1885986,184.2259064,758.3077393,184.2259064z"/>
		<path class="st0" d="M818.5479736,129.0852814l2.8798828,11.2675781
			c2.1601562-7.671875,8.1591797-12.7070236,19.5595703-12.7070236c10.1992188,0,15.9589844,4.0761642,19.0791016,8.6308517
			c3.8398438,5.5146484,3.8398438,11.9882812,3.8398438,19.8994141v38.8388672h-15.8398438v-39.078125
			c0-3.8359375,0-7.671875-2.1591797-10.7890625c-2.1601562-3.1171875-5.2802734-4.7949219-10.4404297-4.7949219
			c-11.8789062,0-13.3193359,9.1103516-13.3193359,14.3847656v40.2773438h-15.8388672v-65.9296875H818.5479736z"/>
		<path class="st0" d="M939.1446533,101.5139999v93.5009689h-12.2392578l-3.1201172-11.0283203
			c-2.0400391,7.5517578-8.8798828,12.4667969-19.7988281,12.4667969c-18.359375,0-27.9589844-13.9052734-27.9589844-34.0439453
			c0-20.3789062,9.8388672-34.7636642,29.0380859-34.7636642c9.5996094,0,15.8398438,3.5966721,18.4794922,11.2685471v-37.400383
			H939.1446533z M892.8262939,162.0501251c0,13.0664062,4.3203125,22.4160156,15.4794922,22.4160156
			c11.1601562,0,15.4794922-9.4697266,15.4794922-22.5361328s-4.3193359-22.2958984-15.4794922-22.2958984
			C897.1466064,139.6341095,892.8262939,148.9837189,892.8262939,162.0501251z"/>
		<path class="st0" d="M1033.9425049,104.8704453v12.2265625h-38.1582031v24.9335861h32.3984375v12.2275391h-32.3984375v28.5302734
			h40.078125v12.2265625H979.944458v-90.1445236H1033.9425049z"/>
		<path class="st0" d="M1049.1837158,131.0032501c0,0,8.1601562-2.8769531,21.1191406-2.8769531
			c9.8398438,0,18.7197266,1.6777344,23.2792969,8.1503906c3.5996094,5.0351562,3.5996094,11.7480469,3.5996094,17.7421875
			v22.5351562c0,2.7578125,0,7.671875,5.6396484,7.671875c1.8007812,0,3.4804688-0.4785156,3.4804688-0.4785156v11.0273438
			c0,0-3.5996094,0.9589844-8.4003906,0.9589844c-8.3994141,0-13.6787109-2.8769531-14.6386719-11.7470703
			c-2.4003906,7.671875-9.8398438,11.9873047-19.4394531,11.9873047c-12.9589844,0-21.1191406-7.9121094-21.1191406-19.7792969
			c0-14.2646484,11.7597656-21.2167969,32.6386719-21.2167969c3.8398438,0,6.2402344,0.2392578,6.2402344,0.2392578
			c0-5.5146484,0-8.1513672-1.9199219-11.0283203c-1.9199219-2.7568359-5.1601562-4.3154297-11.6396484-4.3154297
			c-9.4794922,0-17.8798828,3.3564453-17.8798828,3.3564453h-0.9599609V131.0032501z M1068.2628174,184.2259064
			c4.6796875,0,9-2.1572266,11.1601562-6.2324219c2.1601562-4.0761719,2.1601562-8.8710938,2.1601562-11.5078125v-1.4394531
			h-3.6005859c-6.9599609,0-18.9589844,0-18.9589844,10.3095703
			C1059.0235596,180.6302032,1062.1436768,184.2259064,1068.2628174,184.2259064z"/>
		<path class="st0" d="M1153.2218018,143.2298126c0,0-3.2392578-0.71875-6.9589844-0.71875
			c-14.1601562,0-14.1601562,10.4287109-14.1601562,15.5830078v36.9208984h-15.8388672v-65.9296875h11.9990234l3.1201172,12.9453125
			c2.3994141-11.0273438,10.5595703-13.6650391,20.1591797-13.6650391h1.6796875V143.2298126z"/>
	</g>
	<g>
		<g id="Mass_General_1_">
			<path class="st0" d="M207.0371552,10.2186861l17.2792969,41.2845726l16.8474731-41.2845726h12.0955048v54.0867195h-9.5033264
				V22.0141945l-15.9837799,39.5578117h-8.4955139l-15.9832001-39.5578117v42.2912102h-8.4960938V10.2186861H207.0371552z"/>
			<path class="st0" d="M264.1349182,25.8975163c0,0,4.8961182-1.7261715,12.6715088-1.7261715
				c5.9039001,0,11.2318115,1.0072269,13.9675598,4.891407c2.1597595,3.0205078,2.1597595,7.0482407,2.1597595,10.6441383
				v13.5222664c0,1.6541023,0,4.6031265,3.3837891,4.6031265c1.079895,0,2.0882874-0.2882805,2.0882874-0.2882805v6.6175728
				c0,0-2.1603394,0.5753937-5.0396423,0.5753937c-5.0402222,0-8.2078247-1.7261696-8.783783-7.0488281
				c-1.4402466,4.6031265-5.9039001,7.1923828-11.6636658,7.1923828c-7.776001,0-12.6715088-4.7466774-12.6715088-11.8675766
				c0-8.5587883,7.0558777-12.7306633,19.5832214-12.7306633c2.303894,0,3.7435608,0.1441383,3.7435608,0.1441383
				c0-3.3082008,0-4.8908195-1.1519775-6.616993c-1.151947-1.6540985-3.0954895-2.5892563-6.9831848-2.5892563
				c-5.6882935,0-10.7279358,2.0138664-10.7279358,2.0138664h-0.5759888V25.8975163z M275.5823975,57.832283
				c2.8083801,0,5.3999939-1.2949219,6.6960754-3.7406273c1.2955322-2.4451141,1.2955322-5.3220673,1.2955322-6.904686v-0.8624992
				h-2.15979c-4.1753845,0-11.3753662,0-11.3753662,6.185154C270.0388489,55.6742744,271.9109192,57.832283,275.5823975,57.832283z"
				/>
			<path class="st0" d="M328.9331665,33.2340393h-0.5759583c0,0-5.0396729-2.0138664-9.5033264-2.0138664
				c-4.0318298,0-5.9039001,1.5820312-5.9039001,3.5964851c0,6.1130867,17.8552551,4.3148422,17.8552551,17.9806633
				c0,8.4152336-6.6954956,12.0832024-16.1994019,12.0832024c-6.8396606,0-11.1591797-1.8697243-11.1591797-1.8697243v-7.6242218
				h0.5759583c0,0,6.0474854,2.4457054,11.0871277,2.4457054c4.3200989,0,6.1921692-1.7261734,6.1921692-4.0277367
				c0-7.1208954-17.8552551-5.0349579-17.8552551-17.9091797c0-7.1923809,5.6156311-11.7240219,15.6234436-11.7240219
				c5.6156006,0,9.8630676,1.4390621,9.8630676,1.4390621V33.2340393z"/>
			<path class="st0" d="M362.0527039,33.2340393h-0.5759888c0,0-5.0396423-2.0138664-9.5032959-2.0138664
				c-4.0318604,0-5.9039307,1.5820312-5.9039307,3.5964851c0,6.1130867,17.8552856,4.3148422,17.8552856,17.9806633
				c0,8.4152336-6.6954956,12.0832024-16.1994019,12.0832024c-6.8396606,0-11.1591797-1.8697243-11.1591797-1.8697243v-7.6242218
				h0.5759583c0,0,6.0474548,2.4457054,11.0871277,2.4457054c4.3200989,0,6.1921692-1.7261734,6.1921692-4.0277367
				c0-7.1208954-17.8552551-5.0349579-17.8552551-17.9091797c0-7.1923809,5.6156006-11.7240219,15.6234131-11.7240219
				c5.6156311,0,9.8630981,1.4390621,9.8630981,1.4390621V33.2340393z"/>
			<path class="st0" d="M429.5146179,35.6791573v26.467968c0,0-7.0558472,2.8769531-16.6312561,2.8769531
				c-16.6312561,0-28.0072327-8.6308594-28.0072327-27.3304672c0-19.1320324,11.9513855-28.0505867,29.2306824-28.0505867
				c7.920105,0,13.6798706,1.8697262,13.6798706,1.8697262v7.6242199h-0.5759583c0,0-5.6156311-2.3015633-12.8156433-2.3015633
				c-11.951355,0-19.2949219,6.3292961-19.2949219,20.282814c0,13.9529266,7.3435669,20.7140617,17.8547058,20.7140617
				c4.0324097,0,7.0558472-1.0072289,7.0558472-1.0072289V42.8721275h-9.6474609v-7.1929703H429.5146179z"/>
			<path class="st0" d="M469.834137,63.1543541c0,0-5.3999939,1.7261696-12.5279236,1.7261696
				c-7.6318359,0-12.0954895-2.0138664-15.118927-4.8908195c-3.6000061-3.452343-5.3279419-8.6308594-5.3279419-15.1757812
				c0-12.874218,6.6234436-21.0738277,18.4312439-21.0738277c6.4798889,0,11.3753967,2.4457035,14.111145,6.9046879
				c2.7363281,4.4589844,2.7363281,10.357029,2.7363281,16.5421867h-25.4871216
				c0,6.7611313,3.8876953,10.788868,11.3753967,10.788868c5.4714966,0,11.2312622-2.1580086,11.2312622-2.1580086h0.5765381
				V63.1543541z M462.4900208,40.714119c0-6.616993-2.015625-10.3570328-7.4877014-10.3570328
				c-5.5435486,0-7.7753906,3.9556656-8.3513794,10.3570328H462.4900208z"/>
			<path class="st0" d="M487.4743958,24.7467346l1.7279053,6.7611332c1.2961121-4.6031246,4.8955078-7.6236324,11.7357483-7.6236324
				c6.1195374,0,9.5754089,2.445118,11.4474487,5.1785164c2.303894,3.3082008,2.303894,7.1917953,2.303894,11.9390602V64.30513
				h-9.5038757V40.8576736c0-2.3015633,0-4.6031265-1.2955017-6.4728508
				c-1.2961121-1.8697281-3.1681824-2.876955-6.2642517-2.876955c-7.1273499,0-7.9916077,5.4662113-7.9916077,8.6308613V64.30513
				h-9.5033264V24.7467346H487.4743958z"/>
			<path class="st0" d="M554.9368896,63.1543541c0,0-5.4000244,1.7261696-12.5279541,1.7261696
				c-7.6318359,0-12.09552-2.0138664-15.1189575-4.8908195c-3.5999756-3.452343-5.3278809-8.6308594-5.3278809-15.1757812
				c0-12.874218,6.6234131-21.0738277,18.4312134-21.0738277c6.4799194,0,11.3754272,2.4457035,14.111145,6.9046879
				c2.7363281,4.4589844,2.7363281,10.357029,2.7363281,16.5421867h-25.4871216
				c0,6.7611313,3.8876953,10.788868,11.3754272,10.788868c5.4714355,0,11.2312012-2.1580086,11.2312012-2.1580086h0.5765991
				V63.1543541z M547.5927124,40.714119c0-6.616993-2.015625-10.3570328-7.4876709-10.3570328
				c-5.5435791,0-7.7753906,3.9556656-8.3513794,10.3570328H547.5927124z"/>
			<path class="st0" d="M587.4083862,33.2340393c0,0-1.9436035-0.4318352-4.175415-0.4318352
				c-8.4960938,0-8.4960938,6.2578125-8.4960938,9.3503914V64.30513h-9.5032959V24.7467346h7.1994019l1.8720703,7.7683601
				c1.4396362-6.6175785,6.3357544-8.1996098,12.09552-8.1996098h1.0078125V33.2340393z"/>
			<path class="st0" d="M593.6005249,25.8975163c0,0,4.8961182-1.7261715,12.6715088-1.7261715
				c5.9039307,0,11.2318115,1.0072269,13.9675903,4.891407c2.159729,3.0205078,2.159729,7.0482407,2.159729,10.6441383v13.5222664
				c0,1.6541023,0,4.6031265,3.3837891,4.6031265c1.079895,0,2.0883179-0.2882805,2.0883179-0.2882805v6.6175728
				c0,0-2.1603394,0.5753937-5.0396729,0.5753937c-5.0402222,0-8.2078247-1.7261696-8.7837524-7.0488281
				c-1.4402466,4.6031265-5.9039307,7.1923828-11.6636963,7.1923828c-7.776001,0-12.6715088-4.7466774-12.6715088-11.8675766
				c0-8.5587883,7.0559082-12.7306633,19.583252-12.7306633c2.303894,0,3.7435303,0.1441383,3.7435303,0.1441383
				c0-3.3082008,0-4.8908195-1.1519775-6.616993c-1.1519165-1.6540985-3.095459-2.5892563-6.9831543-2.5892563
				c-5.6882935,0-10.7279663,2.0138664-10.7279663,2.0138664h-0.5759888V25.8975163z M605.0480347,57.832283
				c2.8083496,0,5.3999634-1.2949219,6.6960449-3.7406273c1.2955322-2.4451141,1.2955322-5.3220673,1.2955322-6.904686v-0.8624992
				h-2.15979c-4.175354,0-11.3753662,0-11.3753662,6.185154C599.5044556,55.6742744,601.3765259,57.832283,605.0480347,57.832283z"
				/>
			<path class="st0" d="M643.208374,8.2045479v15.9667988V64.30513h-9.3598022V8.2045479H643.208374z"/>
			<path class="st0" d="M687.2697144,10.2184153c4.1759644,0,8.7837524,0,12.6714478,2.3015623
				c3.3117065,1.9417963,5.9039307,5.3220711,5.9039307,11.0044918c0,10.7882824-9.5039062,11.8675785-9.5039062,11.8675785
				s12.6714478,0.5753899,12.6714478,13.3775406c0,6.1857414-2.8792725,10.0693359-6.7675781,12.5150375
				c-4.7519531,3.020504-10.2233887,3.020504-14.6870728,3.020504h-17.711731V10.2184153H687.2697144z M679.3501587,32.5150948
				h6.6234131c2.1604004,0,4.3922119,0,6.4799194-1.1507816c2.0161743-1.1507816,3.4558716-3.1652336,3.4558716-6.4734364
				s-1.4396973-5.4662113-3.4558716-6.616993c-2.0877075-1.1507816-4.319519-1.1507816-6.4799194-1.1507816h-6.6234131V32.5150948z
				 M679.3501587,57.4004478h7.7753906c2.4480591,0,5.2558594,0,8.0636597-1.5826187
				c2.5201416-1.4378891,3.8883057-3.7394524,3.8883057-7.1917953c0-3.4523468-1.3681641-5.7539062-3.8883057-7.1929703
				c-2.8078003-1.5820312-5.6156006-1.5820312-8.0636597-1.5820312h-7.7753906V57.4004478z"/>
			<path class="st0" d="M738.4613037,33.2340393c0,0-1.9435425-0.4318352-4.1759644-0.4318352
				c-8.4955444,0-8.4955444,6.2578125-8.4955444,9.3503914V64.30513h-9.5032959V24.7467346h7.1994019l1.8720703,7.7683601
				c1.4402466-6.6175785,6.3357544-8.1996098,12.09552-8.1996098h1.0078125V33.2340393z"/>
			<path class="st0" d="M754.5177612,13.5272036c0,3.1640635-2.3039551,5.609767-5.6882935,5.609767
				c-3.3837891,0-5.6876831-2.4457035-5.6876831-5.609767c0-3.1652336,2.303894-5.6103511,5.6876831-5.6103511
				C752.2138062,7.9168525,754.5177612,10.3619699,754.5177612,13.5272036z M753.5093384,24.7467346v11.7957916V64.30513h-9.3591919
				V24.7467346H753.5093384z"/>
			<path class="st0" d="M778.7087402,49.3449783c-1.9441528,0-3.7441406-0.1435547-5.3999634-0.5033226
				c-0.935791,0.5033226-2.0877075,1.4384766-2.0877075,3.236721c0,3.0205078,3.1675415,3.0205078,5.3279419,3.0205078h6.7675781
				c4.8955078,0,15.5513306,0,15.5513306,10.644722c0,8.6308594-6.9116821,13.2339859-21.3831787,13.2339859
				c-12.6715088,0-18.2150269-3.5244141-18.2150269-9.5660172c0-6.9761696,7.3435059-7.9113235,7.7033081-7.9833946
				c-0.2156372-0.0720711-5.1117554-1.7261734-5.1117554-6.7611313c0-5.1064453,4.8961182-6.7605476,7.4156494-7.2638702
				c-4.319519-2.1580048-6.8396606-5.9701157-6.8396606-10.8603516c0-7.7683582,6.3357544-12.8027325,16.2714844-12.8027325
				c4.8955078,0,8.9273682,1.2228508,11.7351685,3.452343c1.7999878-5.0343742,5.9759521-5.0343742,8.4240112-5.0343742h0.8637085
				v7.7671871c0,0-1.4396973-0.2871094-3.1676025-0.2871094c-1.8720703,0-2.8078003,0.3591805-3.3117065,0.5753899
				c1.079895,1.797657,1.7279053,3.9556656,1.7279053,6.3292961
				C794.9802246,44.3100166,788.6444702,49.3449783,778.7087402,49.3449783z M770.6450806,62.8666573
				c0,0-2.7357178,1.4384727-2.7357178,4.7472649c0,3.4523468,3.0234375,5.0343781,9.9351196,5.0343781
				c7.6318359,0,11.6636963-1.8703156,11.6636963-5.6097717c0-4.027729-4.8955078-4.1718712-7.1994019-4.1718712H770.6450806z
				 M785.3322144,36.5428276c0-4.0277328-2.4475098-6.1857414-6.6234741-6.1857414s-6.6240234,2.1580086-6.6240234,6.1857414
				s2.4480591,6.1851578,6.6240234,6.1851578S785.3322144,40.5705643,785.3322144,36.5428276z"/>
			<path class="st0" d="M815.2126465,8.2045479V30.932478c1.2955322-4.1712894,4.4636841-7.0482426,11.2312622-7.0482426
				c6.1915894,0,9.6474609,2.445118,11.5195312,5.1785164c2.303894,3.3082008,2.303894,7.1917953,2.303894,11.9390602V64.30513
				h-9.5039062V40.8576736c0-2.3015633,0-4.6031265-1.2954712-6.4728508
				c-1.2961426-1.8697281-3.1682129-2.876955-6.2636719-2.876955c-7.1279297,0-7.9916382,5.4662113-7.9916382,8.6308613V64.30513
				h-9.3597412V8.2045479H815.2126465z"/>
			<path class="st0" d="M850.7075806,25.8975163c0,0,4.8961182-1.7261715,12.6715088-1.7261715
				c5.9038696,0,11.2318115,1.0072269,13.9675293,4.891407c2.15979,3.0205078,2.15979,7.0482407,2.15979,10.6441383v13.5222664
				c0,1.6541023,0,4.6031265,3.3837891,4.6031265c1.079895,0,2.0882568-0.2882805,2.0882568-0.2882805v6.6175728
				c0,0-2.1603394,0.5753937-5.0396118,0.5753937c-5.0402222,0-8.2078247-1.7261696-8.7838135-7.0488281
				c-1.4402466,4.6031265-5.9038696,7.1923828-11.6636353,7.1923828c-7.776001,0-12.6715088-4.7466774-12.6715088-11.8675766
				c0-8.5587883,7.0558472-12.7306633,19.5831909-12.7306633c2.303894,0,3.7435913,0.1441383,3.7435913,0.1441383
				c0-3.3082008,0-4.8908195-1.1519775-6.616993c-1.1519775-1.6540985-3.09552-2.5892563-6.9832153-2.5892563
				c-5.6882935,0-10.7279053,2.0138664-10.7279053,2.0138664h-0.5759888V25.8975163z M862.1550293,57.832283
				c2.8084106,0,5.4000244-1.2949219,6.696106-3.7406273c1.2955322-2.4451141,1.2955322-5.3220673,1.2955322-6.904686v-0.8624992
				h-2.15979c-4.175415,0-11.3753662,0-11.3753662,6.185154C856.6115112,55.6742744,858.4835815,57.832283,862.1550293,57.832283z"
				/>
			<path class="st0" d="M898.298584,24.7467346l1.7279663,6.7611332c1.1519165-4.4595699,4.463623-7.6236324,11.4474487-7.6236324
				c6.8396606,0,10.2954712,3.0205078,12.0234375,7.9113274c1.8720703-5.3226547,5.4720459-7.9113274,11.5195312-7.9113274
				c6.1921997,0,9.5039062,2.7328129,11.0877075,5.1785164c2.159729,3.3082008,2.159729,7.1917953,2.159729,11.9390602V64.30513
				h-9.5032959V40.8576736c0-2.3015633,0-4.6031265-1.1519775-6.4728508
				c-1.0078125-1.5826187-2.7363281-2.876955-5.9038696-2.876955c-6.4799194,0-7.3435669,5.4662113-7.3435669,8.6308613V64.30513
				h-9.5039062V40.8576736c0-2.3015633,0-4.6031265-1.1519775-6.4728508
				c-1.0078125-1.5826187-2.7357178-2.876955-5.9033203-2.876955c-6.4798584,0-7.3441162,5.4662113-7.3441162,8.6308613V64.30513
				h-9.5033569V24.7467346H898.298584z"/>
		</g>
		<g>
			<polygon class="st1" points="18.902441,75.7510681 0.0000268,75.7510681 0.0000268,107.8169785 0.0000268,136.8668671 
				18.902441,136.8668671 			"/>
			<polygon class="st1" points="40.603302,75.7510681 40.603302,107.8169785 40.603302,136.8668671 59.5057182,136.8668671 
				59.5057182,75.7510681 			"/>
			<polygon class="st1" points="81.2065811,75.7510681 81.2065811,107.8169785 81.2065811,136.8668671 100.1089935,136.8668671 
				100.1089935,75.7510681 			"/>
			<polygon class="st1" points="0.0000268,64.3054047 70.3559875,64.3054047 140.7119446,64.3054047 140.7119446,47.0916481 
				0.0000268,47.0916481 			"/>
			<polygon class="st1" points="70.3559875,0 0.0000268,23.4519882 0.0000268,41.2286491 70.3559875,17.7766628 
				140.7119446,41.2286491 140.7119446,23.4519882 			"/>
			<path class="st1" d="M140.7120056,135.5079041c-0.3740387,1.0343628-7.1938629,12.8046265-52.1156158,12.8046265
				l-36.4807663-0.0000153C6.0393538,148.6659393,0.8772915,154.6625671,0,155.3012238v17.5889435
				c0.8772915-0.6386414,6.0393538-6.6352844,52.1156235-6.9886932l36.4807663,0.0000153
				c44.9217529,0,51.7415771-11.7702637,52.1156158-12.8046265V135.5079041z"/>
			<path class="st1" d="M140.7120056,164.822998c-0.3740387,1.0343628-7.1938629,12.8046265-52.1156158,12.8046265
				l-36.4807663-0.0000153C6.0393538,177.9810181,0.8772915,183.9776611,0,184.6163177v17.5889435
				c0.8772915-0.6386414,6.0393538-6.6352844,52.1156235-6.9886932l36.4807663,0.0000153
				c44.9217529,0,51.7415771-11.7702637,52.1156158-12.8046417V164.822998z"/>
			<path class="st1" d="M121.8103485,75.750946v57.9710693c15.496933-3.5631561,18.651413-9.0567169,18.9015045-9.7486572V75.750946
				H121.8103485z"/>
		</g>
	</g>
</g>
</svg>
