<svg xmlns="http://www.w3.org/2000/svg" width="534" height="198" viewBox="0 0 534 198" fill="none"><g clip-path="url(#clip0_213_774)"><path d="M102.8 140.3C103 138.7 101.8 137.4 100.2 137.3H100H99.8002H82.3002L85.2002 107.5H55.4002H1.9002L0.700195 120.2H71.3002L66.4002 169.9H100L102.8 140.3Z" fill="#C3D941"></path><path d="M94.6 50.0999C94.4 51.7999 95.7 53.0999 97.3 53.0999H115.1L112.2 83H142H193.4L194.6 70.4H125.8L130.7 20.7H97.5L94.6 50.0999Z" fill="#C3D941"></path><path d="M52.8001 103.8H53.4001C54.7001 103.5 55.8001 102.4 56.1001 101.1V100.8V100.6L57.8001 83H87.7001L90.6001 53.2L95.8001 0H83.0001L76.1001 70.4H26.4001L23.1001 103.7H52.2001H52.8001V103.8Z" fill="#1BA8E1"></path><path d="M144.7 86.7H144.6C143 86.8 141.6 88.1 141.4 89.7L139.7 107.5H109.8L106.9 137.3L101.6 190.5H114L121 120.1H170.7L174 86.7H144.9H144.7V86.7Z" fill="#1BA8E1"></path><path d="M112.2 83L115.1 53.2H97.3C95.6 53.2 94.4 51.8 94.6 50.2L99.5 0H95.8L87.6 83H57.8L56 101C55.7 102.4 54.6 103.5 53.3 103.7H2.3L2 107.5H85.3L82.4 137.3H100.3C101.9 137.4 103 138.7 102.9 140.3L98 190.5H101.7L109.9 107.5H139.8L141.5 89.7C141.7 88.1 143.1 86.8 144.7 86.7H193L193.4 83H112.2Z" fill="#E21D3F"></path><path d="M200.7 142.8L208.2 70.3H227.9L241.1 122.3L264.8 70.3H284.6L277.1 142.8H263.6L270 84.7L243.7 142.8H234.1L219.7 84.7L214.1 142.8H200.7Z" fill="#E21D3F"></path><path d="M293 70.4001H333.7L332.4 83.2001H306.3L304.6 99.6001H330.2L328.9 112.4H303.3L301.5 129.9H327.6L326.3 142.7H285.6L293 70.4001Z" fill="#E21D3F"></path><path d="M342.2 70.4001H365.2C374.2 70.4001 387.3 71.3001 394.7 82.9001C399.3 89.6001 400.6 97.6001 399.7 106.5C397.6 127 385.2 142.8 358.8 142.8H334.7L342.2 70.4001ZM350.6 130H360.9C376.6 130 383.7 119.7 385.1 106.7C385.7 101 384.9 95.0001 381.9 90.4001C379.3 86.5001 374.7 83.2001 365.9 83.2001H355.5L350.6 130Z" fill="#E21D3F"></path><path d="M406.7 142.8H390.8L427.7 70.3H440.5L461.7 142.8H445.7L441.9 128.6H413.3L406.7 142.8ZM431.7 87.6L418.4 117H439.2L431.7 87.6Z" fill="#E21D3F"></path><path d="M531.3 118.6C525.3 133.6 510.1 144.3 493.2 144.3C471.1 144.3 457 126.8 459.1 106.6C461.1 87.3001 478 69.1001 500.9 69.1001C521.8 69.2001 532 84.6001 533.8 95.1001H518.4C516.7 90.1001 511 82.0001 499.5 81.9001C485.4 81.9001 475.1 93.7001 473.7 106.6C472.3 119.8 480.6 131.5 494.4 131.5C507.3 131.5 514.3 121.3 515.9 118.7H531.3V118.6Z" fill="#E21D3F"></path><path d="M526.1 157.8H198.7L199.2 153.6H526.6L526.1 157.8Z" fill="#1BA8E1"></path><path d="M218.8 190C215.8 196.5 208.4 196.9 206.8 196.9C205.6 196.9 200.9 196.7 198.1 193.6C195.7 190.9 196 187.5 196.3 184L197.9 168.5H204.9L203.1 185.8C202.8 188.3 202.9 189.2 203.9 190.1C205.2 191.2 207 191.2 207.5 191.2C208.8 191.2 210 191 211 190.2C212.4 189.1 212.6 187.4 212.8 185.8L214.6 168.5H221.6L220 184C220 186.1 219.7 188.1 218.8 190Z" fill="#E21D3F"></path><path d="M245.8 196.3L241.3 186.4H237L236 196.3H229L231.9 168.5H244.5C245.3 168.5 246.1 168.5 246.9 168.5C248.2 168.6 252.5 168.9 254.3 172.8C254.6 173.5 255.2 175.2 254.9 177.4C254.6 180.5 253.2 182.2 252.1 183.1C251.7 183.5 251.1 183.8 250.7 184.1C250.2 184.4 249.5 184.6 248.3 185.1L253.6 196.2H245.8V196.3ZM244.1 173.7H238.2L237.4 181.3H243.2C243.5 181.3 244.3 181.3 245.1 181C247.4 180.3 247.7 178.1 247.8 177.4C248.1 173.8 245.3 173.7 244.1 173.7Z" fill="#E21D3F"></path><path d="M281.3 196.3L281.6 193.7C280.8 194.4 280.1 194.8 279.8 195.1C277 196.8 274.2 196.9 273.1 196.9C272.1 196.9 270.1 196.8 267.9 195.7C263.1 193.3 261.6 187.7 262.1 182.4C262.3 180.4 263.5 173 270.3 169.3C271.5 168.6 274 167.5 277.4 167.5C282.6 167.5 285.6 169.9 286.9 171.2C287.8 172.1 288.3 172.9 289 173.9L283.4 177.1C283.3 176.9 282.6 175.6 281.9 174.9C280.3 173.3 278.2 173.2 277.4 173.2C276.9 173.2 275 173.2 273.5 174.2C271.7 175.3 269.7 177.7 269.2 182.1C269.1 182.7 268.7 186.6 270.4 188.9C271 189.8 271.9 190.2 272.3 190.4C272.8 190.6 274 191.1 275.6 191.1C276.1 191.1 276.9 191.1 278 190.8C278.6 190.6 280.3 189.9 281.4 188.2C281.9 187.3 282.2 186.2 282.2 185.9H276L276.6 180.6H288.7L287.1 196H281.3V196.3Z" fill="#E21D3F"></path><path d="M295.9 196.3L298.8 168.5H319.4L318.8 173.8H305.1L304.6 178.9H317.4L316.8 184.2H304.1L303.4 190.8H318.3L317.7 196.3H295.9Z" fill="#E21D3F"></path><path d="M342.7 196.3L334.4 179.1L332.8 196.3H326.1L329 168.5H335.8L344.2 185.9L345.7 168.5H352.4L349.5 196.3H342.7Z" fill="#E21D3F"></path><path d="M374 174L371.7 196.3H364.7L367 174H359.7L360.3 168.5H381.8L381.2 174H374Z" fill="#E21D3F"></path><path d="M425.8 192.6C424.4 194 420.6 197.2 415.1 197.2C414.1 197.2 411.8 197.1 409.5 196C402.5 192.7 403 184.6 403.2 182.4C403.4 180.7 404 176.3 407.6 172.5C409 170.9 412.5 167.7 418.2 167.7C421.9 167.7 425.4 169.2 427.6 172C428.5 173.2 429 174.4 429.2 174.9L423.4 177.6C423.1 176.8 422.9 176.4 422.7 176.1C422.3 175.3 420.8 173.4 417.9 173.4C417.1 173.4 415.2 173.6 413.5 175C412.2 176.1 410.5 178.4 410.1 182.2C410.1 182.6 410 183.2 410 184.1C410.1 187.9 411.5 189.6 413 190.5C413.5 190.8 414.5 191.3 416 191.3C419.9 191.3 421.7 188.3 422.5 187.2L427.7 190C426.9 191.3 426.2 192.1 425.8 192.6Z" fill="#E21D3F"></path><path d="M453.1 196.3L452.2 191.9H442L440.2 196.3H432.8L446.1 168.5H453.4L460.8 196.3H453.1ZM448.8 175.2L444.1 186.9H451.2L448.8 175.2Z" fill="#E21D3F"></path><path d="M485 196.3L480.5 186.4H476.2L475.2 196.3H468.2L471.1 168.5H483.6C484.4 168.5 485.2 168.5 486 168.5C487.3 168.6 491.6 168.9 493.4 172.8C493.7 173.5 494.2 175.2 494 177.4C493.7 180.5 492.3 182.2 491.2 183.1C490.8 183.5 490.2 183.8 489.8 184.1C489.3 184.4 488.6 184.6 487.4 185.1L492.7 196.2H485V196.3ZM483.4 173.7H477.5L476.7 181.3H482.5C482.8 181.3 483.6 181.3 484.4 181C486.7 180.3 487 178.1 487.1 177.4C487.4 173.8 484.6 173.7 483.4 173.7Z" fill="#E21D3F"></path><path d="M500.8 196.3L503.7 168.5H524.3L523.7 173.8H510L509.5 178.9H522.3L521.8 184.2H509L508.3 190.8H523.2L522.6 196.3H500.8Z" fill="#E21D3F"></path></g><defs><clipPath id="clip0_213_774"><rect width="533.8" height="197.2" fill="white"></rect></clipPath></defs></svg>