<?xml version="1.0" encoding="utf-8"?>
<!-- Generator: Adobe Illustrator 18.1.1, SVG Export Plug-In . SVG Version: 6.00 Build 0)  -->
<svg version="1.1" id="Layer_1" xmlns="http://www.w3.org/2000/svg" xmlns:xlink="http://www.w3.org/1999/xlink" x="0px" y="0px"
	 viewBox="0 0 671.9 143.8" enable-background="new 0 0 671.9 143.8" xml:space="preserve">
<path fill="#FAC610" d="M68.5,143.5H40.8c0-3.5,0-139.6,0-143.5h27.7C68.5,3.1,68.5,139.7,68.5,143.5z M27.7,71.7H0
	c0,4.7,0,68.7,0,71.8h27.7C27.7,139.5,27.7,76.1,27.7,71.7z M109.2,0H81.5c0,3.2,0,69.5,0,71.8h27.7C109.2,67.9,109.2,2.9,109.2,0z"
	/>
<path fill="#FFFFFF" d="M310.5,64.8v38.6h-8.9V64.7c0-11.8-4.8-17.2-15.1-17.2c-12.3,0-18.7,9.1-18.7,18v37.9h-8.9V40h8.9v6.9
	c4.4-4.4,11-7.8,19.2-7.8C302.2,39.1,310.5,48.2,310.5,64.8z M415.7,39.1c-8.3,0-14.9,3.4-19.2,7.8V12h-8.9v91.4h8.9V65.5
	c0-8.9,6.4-18,18.7-18c10.3,0,15.1,5.5,15.1,17.2v38.7h8.9V64.8C439.1,48.2,430.8,39.1,415.7,39.1z M547.7,71.2v0.9
	c0,18.4-13.1,32.3-30.5,32.3c-17,0-30.4-14.1-30.4-32.1v-0.9c0-18.3,13.1-32.1,30.6-32.1C535,39.2,547.7,52.7,547.7,71.2z
	 M538.7,72.1v-0.9c0-14-8.7-23.7-21.2-23.7c-12.5,0-21.6,10-21.6,23.8v0.9c0,13.7,9,23.7,21.5,23.7C530,95.9,538.7,86.1,538.7,72.1z
	 M585.8,39.1c-8.3,0-14.9,3.4-19.2,7.8V40h-8.9v63.5h8.9V65.5c0-8.9,6.4-18,18.7-18c10.3,0,15.1,5.5,15.1,17.2v38.7h8.9V64.8
	C609.3,48.2,601,39.1,585.8,39.1z M349.7,95.9c-12.4,0-21.5-10-21.5-23.7v-0.9c0-13.8,9.1-23.8,21.6-23.8c8.7,0,15.5,4.7,18.9,12.2
	h9.5c-4.1-12.4-14.8-20.5-28.5-20.5c-17.4,0-30.6,13.8-30.6,32.1v0.9c0,18,13.3,32.1,30.4,32.1c14.7,0,26.4-10,29.6-24.3H370
	C367.3,89.7,359.7,95.9,349.7,95.9z M480.2,39.1c-8.3,0-14.9,3.4-19.2,7.8V40h-8.9v63.5h8.9V65.5c0-8.9,6.4-18,18.7-18
	c2.4,0,4.4,0.3,6.2,0.9v-8.8C484.1,39.2,482.2,39.1,480.2,39.1z M167.8,66.7c-14.1-2.3-16.6-4.9-16.6-10c0-5.5,5.7-9.2,14-9.2
	c8.6,0,13.5,3.1,14.9,9.9l0.1,0.4h9.3l-0.2-1.2c-1.9-11.2-10.4-17.3-23.9-17.3c-13.4,0-23.2,7.4-23.2,17.5
	c0,13.3,11.3,16.3,23.8,18.4c11.8,2,15.4,3.7,15.4,10.7c0,6.4-5.8,10.4-14.8,10.4c-12.3,0-16.1-6.5-17.1-12.2h-9.5
	c1.1,12.7,11.3,20.5,26.5,20.5c14.2,0,24.2-7.8,24.2-19C190.6,71.7,179.8,68.8,167.8,66.7z M662.8,40l-19.3,52.2L621.1,40h-9.2
	l26.8,63.2l-8.4,24.8h9.3l32.3-88H662.8z M242.3,40l-19.3,52.2L200.6,40h-9.2l26.8,63.2l-8.4,24.8h9.3l32.3-88H242.3z"/>
</svg>
