<?xml version="1.0" encoding="UTF-8"?>
<svg width="323px" height="62px" viewBox="0 0 323 62" version="1.1" xmlns="http://www.w3.org/2000/svg" xmlns:xlink="http://www.w3.org/1999/xlink">
    <!-- Generator: Sketch 56.2 (81672) - https://sketch.com -->
    <title>logo white</title>
    <desc>Created with Sketch.</desc>
    <g id="The-Encore-Difference" stroke="none" stroke-width="1" fill="none" fill-rule="evenodd">
        <g id="Encore-Difference_4-23-19" transform="translate(-205.000000, -34.000000)" fill="#000000">
            <g id="temp-navigation" transform="translate(-5.000000, -1.000000)">
                <g id="logo-white" transform="translate(210.843312, 35.500000)">
                    <path d="M318.290623,16.8633719 L318.758724,16.8633719 C319.155407,16.8633719 319.517934,16.8439647 319.517934,16.3882839 C319.517934,16.0047979 319.188011,15.9465763 318.884483,15.9465763 L318.290623,15.9465763 L318.290623,16.8633719 Z M317.840376,15.5824974 L318.956678,15.5824974 C319.643692,15.5824974 319.96818,15.8534218 319.96818,16.4076911 C319.96818,16.9301326 319.636706,17.1474931 319.207419,17.1932941 L320.033389,18.4671819 L319.551314,18.4671819 L318.765711,17.2266745 L318.290623,17.2266745 L318.290623,18.4671819 L317.840376,18.4671819 L317.840376,15.5824974 Z M318.806078,19.1347892 C319.947221,19.1347892 320.832188,18.2234277 320.832188,17.0155242 C320.832188,15.8332383 319.947221,14.922653 318.806078,14.922653 C317.649409,14.922653 316.765218,15.8332383 316.765218,17.0155242 C316.765218,18.2234277 317.649409,19.1347892 318.806078,19.1347892 L318.806078,19.1347892 Z M318.806078,14.5593505 C320.152161,14.5593505 321.280883,15.6220881 321.280883,17.0155242 C321.280883,18.4345779 320.152161,19.4980918 318.806078,19.4980918 C317.452232,19.4980918 316.316524,18.4345779 316.316524,17.0155242 C316.316524,15.6220881 317.452232,14.5593505 318.806078,14.5593505 L318.806078,14.5593505 Z" id="Fill-81"></path>
                    <polygon id="Fill-84" points="100.535525 34.1367012 113.708348 34.1367012 113.708348 29.1079105 107.408774 29.1079105 107.408774 26.7573119 112.970098 26.7573119 112.970098 21.9916826 107.408774 21.9916826 107.408774 19.6938715 113.497974 19.6938715 113.497974 14.6666334 100.535525 14.6666334"></polygon>
                    <path d="M131.003336,34.1367012 L137.594793,34.1367012 L137.594793,14.6666334 L131.091832,14.6666334 L131.091832,20.4212529 C131.091832,22.1073495 131.100372,24.8158167 131.100372,24.8158167 L131.1027,25.556395 L124.68746,14.6666334 L118.071161,14.6666334 L118.071161,34.1367012 L124.575675,34.1367012 L124.575675,27.8798236 C124.575675,26.5624637 124.562478,24.268534 124.562478,24.268534 L124.558596,23.5442577 L131.003336,34.1367012 Z" id="Fill-86"></path>
                    <path d="M152.228745,14.3495976 C146.517597,14.3495976 142.045405,18.845855 142.045405,24.5857251 C142.045405,30.1191027 146.391839,34.453116 151.93919,34.453116 C153.101292,34.453116 155.683224,34.2411895 156.881036,33.7303923 L157.075108,26.9021671 C155.867204,27.960247 154.579343,28.4749257 153.151751,28.4749257 C150.816678,28.4749257 148.918655,26.6475448 148.918655,24.4009687 C148.918655,22.1551688 150.7701,20.3262354 153.046176,20.3262354 C154.371298,20.3262354 155.725144,20.9123324 157.075108,22.0697772 L156.881812,15.1111356 C155.389788,14.612759 153.783649,14.3495976 152.228745,14.3495976" id="Fill-88"></path>
                    <path d="M171.248566,28.580656 C168.942992,28.580656 167.332971,26.9271636 167.332971,24.5594866 C167.332971,22.1987962 168.979477,20.4855296 171.248566,20.4855296 C173.517654,20.4855296 175.16416,22.1987962 175.16416,24.5594866 C175.16416,26.9271636 173.554916,28.580656 171.248566,28.580656 M171.248566,14.3497528 C164.99557,14.3497528 160.458169,18.5991508 160.458169,24.4539115 C160.458169,30.3412762 164.895429,34.4532713 171.248566,34.4532713 C177.600927,34.4532713 182.03741,30.3412762 182.03741,24.4539115 C182.03741,18.5991508 177.500009,14.3497528 171.248566,14.3497528" id="Fill-90"></path>
                    <path d="M193.429197,23.324646 L192.727433,23.324646 L192.727433,19.5511122 L193.480432,19.5511122 C194.361518,19.5511122 195.999485,19.5511122 195.999485,21.4654373 C195.999485,23.324646 194.198498,23.324646 193.429197,23.324646 L193.429197,23.324646 Z M196.346485,33.9931657 L204.162148,33.9931657 L198.696308,26.2877355 L198.952483,26.2015676 C201.692778,25.2894297 202.66469,23.9875955 202.66469,21.2278933 C202.66469,19.2118746 201.877534,14.5230978 194.58897,14.5230978 L186.06611,14.5230978 L186.06611,33.9931657 L192.727433,33.9931657 L192.727433,27.6159635 L193.18389,27.6159635 L193.240559,27.7269726 L196.346485,33.9931657 Z" id="Fill-92"></path>
                    <polygon id="Fill-94" points="207.166071 33.9935538 220.338118 33.9935538 220.338118 28.9647631 214.040097 28.9647631 214.040097 26.6141644 219.601421 26.6141644 219.601421 21.8485352 214.040097 21.8485352 214.040097 19.5507241 220.126967 19.5507241 220.126967 14.523486 207.166071 14.523486"></polygon>
                    <polygon id="Fill-96" points="251.962908 33.9935538 257.958953 33.9935538 264.829097 14.523486 257.761776 14.523486 255.110754 27.0892524 252.06693 14.523486 246.847173 14.523486 243.804126 27.0892524 241.149998 14.523486 234.111399 14.523486 240.92798 33.9935538 246.767215 33.9935538 249.429105 22.4765518"></polygon>
                    <polygon id="Fill-98" points="267.880528 33.9936314 274.700991 33.9936314 274.700991 14.5235636 267.880528 14.5235636"></polygon>
                    <path d="M286.882495,23.324646 L286.180731,23.324646 L286.180731,19.5511122 L286.936059,19.5511122 C287.816369,19.5511122 289.455112,19.5511122 289.455112,21.4654373 C289.455112,23.324646 287.653348,23.324646 286.882495,23.324646 L286.882495,23.324646 Z M289.799783,33.9931657 L297.617775,33.9931657 L292.149606,26.2877355 L292.405781,26.2015676 C295.146076,25.2894297 296.117988,23.9875955 296.117988,21.2278933 C296.117988,19.2118746 295.331608,14.5230978 288.042268,14.5230978 L279.519408,14.5230978 L279.519408,33.9931657 L286.180731,33.9931657 L286.180731,27.6159635 L286.637188,27.6159635 L286.693857,27.7269726 L289.799783,33.9931657 Z" id="Fill-100"></path>
                    <polygon id="Fill-101" points="300.379962 33.9935538 313.552009 33.9935538 313.552009 28.9647631 307.253988 28.9647631 307.253988 26.6141644 312.815312 26.6141644 312.815312 21.8485352 307.253988 21.8485352 307.253988 19.5507241 313.340858 19.5507241 313.340858 14.523486 300.379962 14.523486"></polygon>
                    <path d="M83.4546369,14.0254199 C78.9420774,5.21145115 69.4286736,0.219145973 58.9371474,0.156266682 L0.102314698,0.155490395 L0.102314698,3.40580633 L49.9159099,3.38639914 C49.7971379,3.39881974 46.800668,3.71865021 44.2202882,4.5601459 C42.6653843,5.06473281 41.5273468,5.53749192 40.7440726,5.96445007 C36.973644,6.61420274 34.6533206,7.59853534 33.3281977,8.35774455 C33.1985577,8.38103318 33.0735754,8.40276923 32.9478169,8.42528157 C30.6383614,8.80566247 27.492068,9.77058788 25.734553,10.7712225 C24.3123942,10.9878067 22.8972221,11.3130712 21.5006808,11.7586603 C21.185508,11.8580251 20.8889662,11.9573899 20.6087264,12.0583073 C20.575346,12.0722804 20.5419657,12.0815959 20.5085853,12.0940165 L20.4930595,12.1017794 C17.5377329,13.1862531 16.5402034,14.3141989 16.5402034,14.3141989 C28.9095691,9.86374238 43.0713827,14.7706559 49.7590998,26.4995844 C56.4491459,38.2277366 51.0912093,52.7792465 40.8605158,60.9838295 C40.8605158,60.9838295 64.9572573,47.0968217 53.7662961,24.2568897 C49.3686272,15.2814531 40.2146445,11.2214693 30.3852917,10.4645889 C40.9831692,9.28540817 51.7580403,14.3188566 57.3364425,24.098527 C64.0264886,35.8266792 58.6669994,50.3797417 48.4378585,58.5819959 C47.5319309,59.2022496 73.0516075,45.3781211 61.3428625,21.8558323 C56.8877483,12.9075658 47.343293,8.23897256 37.9603055,8.06275529 C48.5597356,6.8843508 59.2010852,11.3588722 64.9130089,21.6966934 C71.4415872,33.5148949 66.2435658,47.9786844 56.0152011,56.1809385 C56.0152011,56.1809385 80.3370661,42.8474237 68.9217578,19.454775 C64.5372858,10.4739044 54.9245171,5.8379152 45.5423059,5.66169792 C56.1394071,4.48406972 66.7310744,8.84758199 72.4903516,19.2979649 C79.0049567,31.1208241 73.8209085,45.577627 63.590215,53.7798812 C64.0808287,53.3692251 87.21575,40.0139742 76.4967716,17.0529413 C72.6184391,8.7474409 64.2213367,4.75266521 55.4407484,3.4011486 L57.0802676,3.40580633 L57.0810439,3.4073589 C57.0810439,3.4073589 74.7470195,3.09529131 81.0722104,18.6777111 C85.9014952,29.5938665 79.9566852,44.972899 71.7738382,50.3704263 C77.8319862,48.2100181 93.1854012,33.0351492 83.4546369,14.0254199" id="Fill-102"></path>
                </g>
            </g>
        </g>
    </g>
</svg>