<svg role="img" aria-labelledby="medicare-gov-logo--1" width="273" height="39" class="" xml:space="preserve" preserveAspectRatio="xMidYMid meet" viewBox="0 0 198 29" version="1.1" xmlns="http://www.w3.org/2000/svg" xmlns:xlink="http://www.w3.org/1999/xlink"><title id="medicare-gov-logo--1">Medicare.gov</title><g stroke="none" stroke-width="1" fill="none" fill-rule="evenodd"><g transform="translate(0.000000, -7.000000)"><g transform="translate(0.000000, 7.000000)"><path d="M4.38964844,1.17041016 L8.26953125,1.17041016 L13.0839844,15.6987305 L17.9692383,1.17041016 L21.7924805,1.17041016 L25.3041992,22 L21.480957,22 L19.2436523,8.84521484 L14.8115234,22 L11.3139648,22 L6.93847656,8.84521484 L4.65869141,22 L0.79296875,22 L4.38964844,1.17041016 Z M43.4858398,15.4155273 L31.0673828,15.4155273 C31.2467457,16.5105849 31.7258262,17.3814258 32.5046387,18.0280762 C33.2834512,18.6747265 34.2770122,18.9980469 35.4853516,18.9980469 C36.9296947,18.9980469 38.171056,18.4930064 39.2094727,17.4829102 L42.4663086,19.012207 C41.6544556,20.1639055 40.6821346,21.0158664 39.5493164,21.5681152 C38.4164982,22.1203641 37.0712969,22.3964844 35.5136719,22.3964844 C33.0969931,22.3964844 31.1287511,21.6342036 29.6088867,20.1096191 C28.0890223,18.5850347 27.3291016,16.6757927 27.3291016,14.3818359 C27.3291016,12.0312382 28.0866623,10.0795162 29.6018066,8.52661133 C31.1169509,6.97370643 33.0167529,6.19726562 35.3012695,6.19726562 C37.7273884,6.19726562 39.7003505,6.97370643 41.2202148,8.52661133 C42.7400792,10.0795162 43.5,12.1303583 43.5,14.6791992 L43.4858398,15.4155273 Z M39.605957,12.3710938 C39.3510729,11.51204 38.8483924,10.8134793 38.0979004,10.2753906 C37.3474084,9.737302 36.4765675,9.46826172 35.4853516,9.46826172 C34.4091743,9.46826172 33.4651733,9.77034203 32.6533203,10.3745117 C32.1435521,10.7521178 31.6715517,11.4176385 31.2373047,12.3710938 L39.605957,12.3710938 Z M58,0.646484375 L61.8515625,0.646484375 L61.8515625,22 L58,22 L58,20.371582 C57.2447879,21.0890335 56.4872271,21.6058741 55.7272949,21.9221191 C54.9673627,22.2383642 54.1437219,22.3964844 53.2563477,22.3964844 C51.2644757,22.3964844 49.5416739,21.6247636 48.0878906,20.0812988 C46.6341073,18.5378341 45.9072266,16.6191521 45.9072266,14.3251953 C45.9072266,11.9462772 46.6105073,9.99691515 48.0170898,8.47705078 C49.4236724,6.95718641 51.1323142,6.19726562 53.1430664,6.19726562 C54.0682012,6.19726562 54.9366821,6.37190581 55.7485352,6.72119141 C56.5603882,7.07047701 57.310869,7.59439755 58,8.29296875 L58,0.646484375 Z M53.9360352,9.765625 C52.7371359,9.765625 51.7412149,10.1880654 50.9482422,11.032959 C50.1552695,11.8778525 49.7587891,12.9610937 49.7587891,14.2827148 C49.7587891,15.6137762 50.1623495,16.7088173 50.9694824,17.5678711 C51.7766154,18.4269249 52.7701764,18.8564453 53.9501953,18.8564453 C55.1679748,18.8564453 56.1780559,18.4340049 56.9804688,17.5891113 C57.7828816,16.7442178 58.184082,15.6373766 58.184082,14.2685547 C58.184082,12.9280532 57.7828816,11.8424521 56.9804688,11.0117188 C56.1780559,10.1809854 55.1632548,9.765625 53.9360352,9.765625 Z M67.2749023,0.25 C67.9545932,0.25 68.5375138,0.495440254 69.0236816,0.986328125 C69.5098494,1.477216 69.7529297,2.07193661 69.7529297,2.77050781 C69.7529297,3.45963886 69.5122094,4.04727947 69.0307617,4.53344727 C68.549314,5.01961506 67.9734734,5.26269531 67.3032227,5.26269531 C66.6140916,5.26269531 66.026451,5.01489506 65.5402832,4.51928711 C65.0541154,4.02367916 64.8110352,3.42187854 64.8110352,2.71386719 C64.8110352,2.03417629 65.0517554,1.45361569 65.5332031,0.972167969 C66.0146508,0.490720249 66.5952114,0.25 67.2749023,0.25 Z M65.3349609,6.59375 L69.2148438,6.59375 L69.2148438,22 L65.3349609,22 L65.3349609,6.59375 Z M87.7929688,9.70898438 L84.5786133,11.4790039 C83.9744436,10.8465138 83.377363,10.4075533 82.7873535,10.1621094 C82.1973441,9.91666544 81.5058633,9.79394531 80.7128906,9.79394531 C79.2685475,9.79394531 78.1003463,10.2258258 77.208252,11.0895996 C76.3161576,11.9533735 75.8701172,13.0602146 75.8701172,14.4101562 C75.8701172,15.7223373 76.2996376,16.7937784 77.1586914,17.6245117 C78.0177452,18.455245 79.1458263,18.8706055 80.5429688,18.8706055 C82.2705165,18.8706055 83.6157178,18.2806049 84.5786133,17.1005859 L87.6230469,19.1821289 C85.9710204,21.3250433 83.639338,22.3964844 80.6279297,22.3964844 C77.9186062,22.3964844 75.7969641,21.5940835 74.2629395,19.9892578 C72.7289149,18.3844321 71.9619141,16.5058701 71.9619141,14.3535156 C71.9619141,12.8619717 72.3347944,11.4884503 73.0805664,10.2329102 C73.8263384,8.97737002 74.8670994,7.990889 76.2028809,7.2734375 C77.5386623,6.555986 79.0325438,6.19726562 80.6845703,6.19726562 C82.2138748,6.19726562 83.5873963,6.50170594 84.8051758,7.1105957 C86.0229553,7.71948547 87.0188763,8.58560636 87.7929688,9.70898438 Z M102.661133,6.59375 L106.512695,6.59375 L106.512695,22 L102.661133,22 L102.661133,20.371582 C101.905921,21.0890335 101.14836,21.6058741 100.388428,21.9221191 C99.6284955,22.2383642 98.8048547,22.3964844 97.9174805,22.3964844 C95.9256085,22.3964844 94.2028067,21.6247636 92.7490234,20.0812988 C91.2952401,18.5378341 90.5683594,16.6191521 90.5683594,14.3251953 C90.5683594,11.9462772 91.2716401,9.99691515 92.6782227,8.47705078 C94.0848052,6.95718641 95.793447,6.19726562 97.8041992,6.19726562 C98.7293341,6.19726562 99.597815,6.37190581 100.409668,6.72119141 C101.221521,7.07047701 101.972002,7.59439755 102.661133,8.29296875 L102.661133,6.59375 Z M98.597168,9.765625 C97.3982687,9.765625 96.4023477,10.1880654 95.609375,11.032959 C94.8164023,11.8778525 94.4199219,12.9610937 94.4199219,14.2827148 C94.4199219,15.6137762 94.8234823,16.7088173 95.6306152,17.5678711 C96.4377482,18.4269249 97.4313092,18.8564453 98.6113281,18.8564453 C99.8291077,18.8564453 100.839189,18.4340049 101.641602,17.5891113 C102.444014,16.7442178 102.845215,15.6373766 102.845215,14.2685547 C102.845215,12.9280532 102.444014,11.8424521 101.641602,11.0117188 C100.839189,10.1809854 99.8243876,9.765625 98.597168,9.765625 Z M109.514648,6.59375 L112.828125,6.59375 L112.828125,8.53369141 C113.186851,7.76903915 113.663571,7.18847854 114.258301,6.79199219 C114.85303,6.39550583 115.504391,6.19726562 116.212402,6.19726562 C116.71273,6.19726562 117.236651,6.32942576 117.78418,6.59375 L116.580566,9.92138672 C116.127439,9.69482309 115.754559,9.58154297 115.461914,9.58154297 C114.867185,9.58154297 114.364504,9.94970335 113.953857,10.6860352 C113.543211,11.422367 113.337891,12.8666885 113.337891,15.019043 L113.352051,15.7695312 L113.352051,22 L109.514648,22 L109.514648,6.59375 Z M135.130371,15.4155273 L122.711914,15.4155273 C122.891277,16.5105849 123.370357,17.3814258 124.14917,18.0280762 C124.927982,18.6747265 125.921543,18.9980469 127.129883,18.9980469 C128.574226,18.9980469 129.815587,18.4930064 130.854004,17.4829102 L134.11084,19.012207 C133.298987,20.1639055 132.326666,21.0158664 131.193848,21.5681152 C130.061029,22.1203641 128.715828,22.3964844 127.158203,22.3964844 C124.741524,22.3964844 122.773282,21.6342036 121.253418,20.1096191 C119.733554,18.5850347 118.973633,16.6757927 118.973633,14.3818359 C118.973633,12.0312382 119.731194,10.0795162 121.246338,8.52661133 C122.761482,6.97370643 124.661284,6.19726562 126.945801,6.19726562 C129.37192,6.19726562 131.344882,6.97370643 132.864746,8.52661133 C134.38461,10.0795162 135.144531,12.1303583 135.144531,14.6791992 L135.130371,15.4155273 Z M131.250488,12.3710938 C130.995604,11.51204 130.492924,10.8134793 129.742432,10.2753906 C128.99194,9.737302 128.121099,9.46826172 127.129883,9.46826172 C126.053706,9.46826172 125.109705,9.77034203 124.297852,10.3745117 C123.788083,10.7521178 123.316083,11.4176385 122.881836,12.3710938 L131.250488,12.3710938 Z" class="MgovLogoMedicare" fill="#146A5D"></path><path d="M140.389648,18.8847656 C140.871096,18.8847656 141.281737,19.0546858 141.621582,19.3945312 C141.961427,19.7343767 142.131348,20.1497371 142.131348,20.640625 C142.131348,21.1220727 141.961427,21.5350731 141.621582,21.8796387 C141.281737,22.2242042 140.871096,22.3964844 140.389648,22.3964844 C139.908201,22.3964844 139.49756,22.2242042 139.157715,21.8796387 C138.817869,21.5350731 138.647949,21.1220727 138.647949,20.640625 C138.647949,20.1497371 138.817869,19.7343767 139.157715,19.3945312 C139.49756,19.0546858 139.908201,18.8847656 140.389648,18.8847656 Z M159.505859,6.59375 L161.502441,6.59375 L161.502441,18.8706055 C161.502441,21.0324001 161.313641,22.6136018 160.936035,23.6142578 C160.416827,25.0302805 159.515306,26.1206016 158.231445,26.8852539 C156.947585,27.6499062 155.404143,28.0322266 153.601074,28.0322266 C152.279453,28.0322266 151.092372,27.8457864 150.039795,27.4729004 C148.987218,27.1000144 148.130537,26.5996939 147.469727,25.9719238 C146.808916,25.3441538 146.200035,24.4261128 145.643066,23.2177734 L147.79541,23.2177734 C148.3807,24.2373098 149.1359,24.9925106 150.061035,25.4833984 C150.98617,25.9742863 152.133131,26.2197266 153.501953,26.2197266 C154.851895,26.2197266 155.991776,25.9672063 156.921631,25.4621582 C157.851486,24.9571101 158.514646,24.3222694 158.911133,23.5576172 C159.307619,22.7929649 159.505859,21.5610437 159.505859,19.8618164 L159.505859,19.0688477 C158.760087,20.0128628 157.849126,20.7373835 156.772949,21.2424316 C155.696772,21.7474797 154.554531,22 153.346191,22 C151.930169,22 150.599127,21.6483596 149.353027,20.9450684 C148.106927,20.2417771 147.144046,19.2954161 146.464355,18.105957 C145.784665,16.916498 145.444824,15.6090566 145.444824,14.1835938 C145.444824,12.7581309 145.798825,11.4294495 146.506836,10.1975098 C147.214847,8.96557001 148.194248,7.990889 149.445068,7.2734375 C150.695888,6.555986 152.01513,6.19726562 153.402832,6.19726562 C154.55453,6.19726562 155.628332,6.43562587 156.624268,6.91235352 C157.620204,7.38908116 158.580725,8.17496197 159.505859,9.27001953 L159.505859,6.59375 Z M153.657715,8.10888672 C152.534337,8.10888672 151.491216,8.380287 150.52832,8.9230957 C149.565425,9.46590441 148.810224,10.2163852 148.262695,11.1745605 C147.715167,12.1327359 147.441406,13.168777 147.441406,14.2827148 C147.441406,15.9725019 148.007807,17.3696234 149.140625,18.4741211 C150.273443,19.5786188 151.741365,20.1308594 153.544434,20.1308594 C155.366383,20.1308594 156.831944,19.5833388 157.941162,18.4882812 C159.05038,17.3932237 159.60498,15.9536222 159.60498,14.1694336 C159.60498,13.008295 159.3501,11.9722539 158.840332,11.0612793 C158.330564,10.1503047 157.608403,9.43050395 156.673828,8.90185547 C155.739253,8.37320699 154.733892,8.10888672 153.657715,8.10888672 Z M173.042969,6.19726562 C175.412447,6.19726562 177.375969,7.05630651 178.933594,8.77441406 C180.349616,10.3414792 181.057617,12.1964411 181.057617,14.3393555 C181.057617,16.49171 180.309496,18.3726319 178.813232,19.9821777 C177.316968,21.5917235 175.393566,22.3964844 173.042969,22.3964844 C170.682931,22.3964844 168.754809,21.5917235 167.258545,19.9821777 C165.762281,18.3726319 165.01416,16.49171 165.01416,14.3393555 C165.01416,12.2058813 165.722161,10.3556393 167.138184,8.78857422 C168.695809,7.06102652 170.664051,6.19726562 173.042969,6.19726562 Z M173.042969,8.13720703 C171.400382,8.13720703 169.989101,8.74608766 168.809082,9.96386719 C167.629063,11.1816467 167.039062,12.6542882 167.039062,14.3818359 C167.039062,15.4957738 167.308103,16.5341749 167.846191,17.4970703 C168.38428,18.4599658 169.111161,19.2033665 170.026855,19.7272949 C170.94255,20.2512233 171.947911,20.5131836 173.042969,20.5131836 C174.138026,20.5131836 175.143387,20.2512233 176.059082,19.7272949 C176.974777,19.2033665 177.701657,18.4599658 178.239746,17.4970703 C178.777835,16.5341749 179.046875,15.4957738 179.046875,14.3818359 C179.046875,12.6542882 178.454514,11.1816467 177.269775,9.96386719 C176.085036,8.74608766 174.676115,8.13720703 173.042969,8.13720703 Z M183.280762,6.59375 L185.390625,6.59375 L190.544922,17.8085938 L195.656738,6.59375 L197.780762,6.59375 L190.729004,22 L190.375,22 L183.280762,6.59375 Z" class="MgovLogoGov" fill="#323A45"></path></g></g></g></svg>