<svg xmlns="http://www.w3.org/2000/svg" viewBox="0 0 107 24">
    <g fill="none" fill-rule="evenodd">
        <g fill="#000" fill-rule="nonzero">
            <g>
                <g>
                    <path d="M100.408 2.64C97.434.34 91.79.455 91.79.455h-9.744c-1.135 0-1.525.077-1.454.548.039.258.435.331.61.378.701.194 1.217.563 1.246 1.249.036.79.126 3.273.126 4.134v10.508l-.015 4.395c.001.955.786 1.73 1.758 1.735h5.786s4.172 0 7.181-1.366c4.526-2.022 7.133-5.907 7.133-10.669 0-3.554-1.507-6.815-4.01-8.729zm-9.791 18.735h-.22c-1.35 0-2.745 0-3.47-.703-.372-.37-.556-.912-.556-1.659V8.468c0-2.175-.054-3.197.02-5.635 1.333-.186 2.677-.277 4.023-.273 2.554 0 5.223.337 7.45 2.77 1.525 1.687 2.267 3.809 2.267 6.446.006 5.828-3.734 9.599-9.514 9.599zm-10.009 1.157c-.7-.24-1.234-1.049-1.245-1.465-.012-.416-.444-18.817-.444-18.817-.021-.953.026-1.647-.236-1.74C78.37.391 77.044.42 76.693.42c-.846 0-1.472-.023-1.627.153-.336.548-.608 1.132-.81 1.74l-1.72 3.74-1.645 3.137-2.604 4.952c-.447.847-1.192.856-1.653.018l-2.72-4.894-1.687-3.044L60.32 2.27c-.385-.879-.572-1.556-.76-1.717-.188-.161-.84-.14-1.812-.135h-2.282c-1.132 0-1.645 0-1.57.484.038.258.435.33.595.378.704.193.96 1.034.96 1.465 0 .43 0 17.18-.095 17.912 0 .123-.06.366-.063.38l-.015.045c-.082.692-.577 1.27-1.257 1.465-.176.047-.57.123-.596.38-.072.47.453.487 1.585.487h3.754c1.133 0 1.66-.014 1.585-.486-.038-.258-.435-.331-.595-.381-.704-.193-.99-.627-1.246-1.465-.086-.42-.147-.843-.182-1.269-.038-.955-.06-2.514-.05-3.466v-.293c0-.953.035-2.514.06-3.464l.089-3.756c.023-.953.417-1.046.876-.208l2.508 4.568c.462.84 2.882 5.333 3.314 6.183.37.723.444.993 1.579 1.007 1.272.015 1.272-.33 1.788-1.43.384-.808 5.798-11.263 5.798-11.263.441-.85.823-.765.85.19 0 0 .068 12.75-.024 13.321 0 .088-.027.147-.033.19-.156.55-.588.98-1.144 1.14-.176.047-.57.123-.596.381-.072.469.453.487 1.585.487h4.717c1.138 0 1.66-.015 1.588-.487-.054-.266-.45-.33-.623-.38zM28.959 2.718c.16-.4.52-1.17 1.026-1.418.26-.13.768-.124.853-.46.085-.337-.227-.426-1.48-.426H25.6c-1.15 0-1.682.015-1.61.478.04.25.442.325.606.37 1.089.288 1.815.817 1.48 1.898C25.738 4.242 21 17.498 21 17.498c-.185.477-.645.612-.793-.098L17.705 6.252c-.205-.915-.438-2.088-.52-2.606-.13-.448-.57-.75-1.06-.73-.44-.013-.848.223-1.037.601-.318.627-.944 1.82-1.39 2.654L7.433 17.578c-.257.423-.584.288-.623-.21L6.034 5.807c0-.912-.094-2.683-.088-2.988.004-.732.532-1.367 1.28-1.541.179-.046.605-.141.645-.394C7.943.42 7.384.426 6.234.426H1.504C.726.446.369.52.424.903c.04.25.442.325.605.371.49.13.892.465 1.09.912.061.155.115.313.16.474 0 .026 0 .058.018.086.018.03 0 .046.015.072.005.03.012.06.021.09.229 1.027.392 2.067.487 3.114L3.831 20.14c.064.934.033 2.3.33 2.875.296.575 1.682.552 2.23-.233.151-.224 7.952-14.148 7.952-14.148.454-.83.99-.759 1.187.159l2.46 11.482c.152.854.366 1.698.641 2.524.336.832 2.01.685 2.454-.123.44-.831.824-1.688 1.15-2.565 0 0 6.434-16.664 6.724-17.394zm20.616 5.446c-3.053 0-5.84 2.64-7.674 4.635.097-.574.246-1.14.445-1.69l2.863-9.053c.158-.388.093-.826-.17-1.157-.264-.332-.69-.511-1.125-.473h-2.406c-1.153 0-1.683.014-1.613.477.04.253.442.325.605.371 1.141.302 1.513 1.518 1.21 2.827 0-.107-2.847 10.703-2.847 10.703-.357 1.065-.973 2.035-1.797 2.832 0 0-3.429 3.988-6.909 3.988-1.594 0-2.784-.862-2.784-2.478-.011-.809.078-1.616.267-2.404 3.63-.322 10.125-1.913 10.125-6.292 0-1.771-1.8-2.3-3.329-2.3-4.923 0-9.78 5.699-9.78 10.852 0 2.157 1.053 4.348 4.179 4.348 5.873 0 9.078-5.438 9.244-5.62-.15.718-.245 1.444-.284 2.175 0 2.352 1.816 3.45 4.043 3.45 1.637 0 3.356-.555 4.972-1.475 1.28-.743 2.434-1.67 3.419-2.746 1.903-2.042 3.19-4.549 3.19-6.901-.004-2.427-1.123-4.07-3.844-4.07zm-15.92 1.02c.884 0 1.395.55 1.395 1.384 0 3.51-4.109 5.055-7.235 5.25.542-2.116 3.226-6.633 5.84-6.633zm15.488 7.653c-.752 1.419-1.732 2.718-2.905 3.85-1.193 1.11-2.524 1.832-3.859 1.832-1.561 0-2.072-1.415-2.072-2.738 0-3.6 4.142-10.309 8.354-10.309 1.562 0 2.037 1.03 2.037 2.258 0 1.403-.6 3.295-1.555 5.107zM103.697 1.906c.033-.649.57-1.158 1.22-1.158s1.187.51 1.22 1.158c.023.45-.205.877-.592 1.109-.387.232-.87.232-1.257 0-.387-.232-.614-.658-.591-1.109zm1.224 1.508c.4.003.782-.155 1.064-.437.281-.282.437-.666.433-1.064 0-.828-.671-1.499-1.5-1.499-.828 0-1.5.671-1.5 1.499-.003.399.154.783.437 1.065.282.283.667.44 1.066.436zm-.316-1.384h.316l.443.752h.301l-.494-.759c.124-.001.241-.053.326-.143.084-.09.128-.21.12-.334 0-.341-.202-.493-.613-.493h-.658v1.729h.262l-.003-.752zm0-.222v-.54h.354c.184 0 .38.038.38.253 0 .265-.2.281-.424.281l-.31.006z" transform="translate(-805 -6112) translate(0 6028) translate(805 84)"/>
                </g>
            </g>
        </g>
    </g>
</svg>
