<svg id="Layer_1" data-name="Layer 1" xmlns="http://www.w3.org/2000/svg" viewBox="0 0 755.6462 136.1904">
  <g>
    <g id="logoMark">
      <polygon id="logoMark_PathItem_" data-name="logoMark &lt;PathItem&gt;" points="103.333 46.424 92.433 35.523 67.915 35.507 67.915 67.874 35.804 67.852 35.804 92.543 46.745 103.486 35.804 103.494 35.804 103.515 0 103.491 35.639 67.852 35.544 67.852 67.888 35.507 67.845 35.507 103.35 0 103.35 35.531 103.341 35.531 103.333 46.424" style="fill: #00a19b"/>
      <polygon id="logoMark_PathItem_2" data-name="logoMark &lt;PathItem&gt;" points="135.933 67.648 135.933 35.402 103.501 67.834 125.088 67.852 135.944 78.707 135.944 67.648 135.933 67.648" style="fill: #daa900"/>
      <polygon id="logoMark_PathItem_3" data-name="logoMark &lt;PathItem&gt;" points="68.108 103.858 35.808 136.156 68.108 136.178 68.108 136.167 79.042 136.159 68.108 125.225 68.108 103.858" style="fill: #007473"/>
      <polygon id="logoMark_PathItem_4" data-name="logoMark &lt;PathItem&gt;" points="103.156 136.19 135.788 103.56 103.132 103.56 103.156 136.19" style="fill: #00a19b"/>
    </g>
    <path id="type" d="M237.1185,27.7905h30.5283l-.1312,97.0877H243.0415l.1149-86.4171-32.1339,80.2836h-.5076L176.2607,54.8689,176.534,83.47c-.0127,12.5851.54,25.8536,4.6374,37.83l1.2174,3.5565h-6.4443l.0073.0219H163.1507l.0037-.0219h-.5951l.6306-3.2066c2.3418-11.9071,3.4737-26.147,3.5611-44.8165l.1067-39.2978-5.2251-9.3448v-.4h27.6605L216.828,78.5328Zm106.0139,77.412,2.3614,1.6228c-9.62,14.2312-21.7943,18.8457-34.3629,18.8457-20.2546,0-35.3873-13.0792-35.3873-34.6215,0-23.5909,16.4124-38.2067,38.8482-38.2067,23.591,0,31.67,16.0278,30.642,32.1785H300.619c.2506,22.313,8.8413,31.4143,21.9189,31.4143C329.8505,116.4356,336.4659,112.9,343.1324,105.2025ZM300.7005,80.4547h24.0457c1.4377-15.4007-4.0033-23.4378-11.308-23.4378C305.5718,57.0169,301.3563,66.4421,300.7005,80.4547ZM554.534,88.8678c0,22.1853-16.9213,36.8026-39.2327,36.8026-21.9251,0-38.0774-13.7222-38.0774-36.0271,0-22.1869,16.92-36.8011,39.2327-36.8011C538.3833,52.8422,554.534,66.5645,554.534,88.8678Zm-25.3844.8649c0-19.3931-4.1023-32.6-13.4637-32.6-10.1273,0-13.0776,12.851-13.0776,31.8866,0,19.27,4.1039,32.3572,13.4637,32.3572C526.0733,121.3766,529.15,108.77,529.15,89.7327ZM721.1374,120.29a14.57,14.57,0,0,0,2.5642-.2617v.7707a32.4944,32.4944,0,0,1-17.18,4.873c-11.5409,0-14.6157-6.2867-15.3847-9.87-5.382,5.7665-12.9515,9.61-21.0269,9.61-11.5378,0-18.2059-7.6908-18.2059-16.9246,0-11.4133,10.129-20.0025,27.6917-21.6651,4.873-.5121,7.5633-.769,11.2826-1.0292v-6.794c0-8.9753,0-20.2578-14.6141-20.2578-6.2836,0-11.7517,2.8338-17.9011,7.5807L656.391,64.123c6.7956-6.4094,14.3572-11.2792,28.9778-11.2792,19.7408,0,29.6176,7.9445,29.6176,24.8754v32.8231C714.9864,116.569,714.9864,120.29,721.1374,120.29ZM690.8784,90.216c-11.1565,1.6307-15.8938,7.1865-15.8938,15.2443,0,7.1882,3.7177,10.3476,7.9476,10.3476,2.4366,0,5.13-2.0744,7.9462-4.9081ZM444.7469,52.8411c-11.7932,0-18.0751,5.3836-23.5911,12.0517-3.4577-8.2078-10.6427-12.0517-20.6391-12.0517-10.1353,0-16.2863,4.3624-21.4162,10.0045V53.2672H355.05l-.051.0479v70.8177h24.1016V73.15a9.2569,9.2569,0,0,1,3.705-7.56,11.505,11.505,0,0,1,6.9408-2.4c9.3567,0,9.4844,10.523,9.4844,15.0082v45.9343h24.1078V77.4007a45.3188,45.3188,0,0,1,.1565-5.1394c.3016-5.6787,4.6815-9.071,10.48-9.071,9.36,0,9.4938,10.523,9.4938,15.0082v45.9343h24.1V77.5859C467.5686,60.6644,458.978,52.8411,444.7469,52.8411Zm162.89.0028a16.1223,16.1223,0,0,0-11.7708,5.5192,33.23,33.23,0,0,0-8.0992,11.8059V53.1024H564.433v71.03h24.1016V81.8216c.7691-7.9525,5.6389-12.6914,11.798-12.6914a16.9973,16.9973,0,0,1,6.6679,1.6627l6.1511-17.1815s-.2314-.07-.6526-.158A22.3973,22.3973,0,0,0,607.6372,52.8439Zm11.5616,71.2875h24.1V53.1942L619.89,61.3924Zm112.34-91.5048v91.5063h24.1079V24.7715Zm-100.29,19.284A10.9044,10.9044,0,1,0,620.344,41.0063,10.905,10.905,0,0,0,631.2485,51.9106Z" style="fill: #007473"/>
  </g>
</svg>
