<svg id="Layer_1" data-name="Layer 1" xmlns="http://www.w3.org/2000/svg" width="232.03" height="70.79" viewBox="0 0 232.03 70.79">
  <g id="Group_1676" data-name="Group 1676">
    <g id="Group_1" data-name="Group 1">
      <path id="Path_37" data-name="Path 37" d="M54.36,67.32V61h1.5V67.4c0,2.3-1.15,3.38-3.25,3.38s-3.12-.89-3.12-3.25V61H51v6.3c0,1.55.4,2.21,1.69,2.21s1.68-.65,1.68-2.21" style="fill: #803e28"/>
      <path id="Path_38" data-name="Path 38" d="M58.73,70.62V61h3c2.06,0,2.7,1.39,2.7,2.92,0,2.31-1.1,3.3-3.17,3.3h-1v3.38ZM62.86,64c0-1.45-.72-1.8-1.62-1.8h-1V66h.87c1,0,1.76-.31,1.76-2" style="fill: #803e28"/>
      <path id="Path_39" data-name="Path 39" d="M71.63,70.62V66.39H68.22v4.23h-1.5V61h1.5v4.09h3.41V61h1.5v9.6Z" style="fill: #803e28"/>
      <path id="Path_40" data-name="Path 40" d="M75.67,65.83c0-2.9,1.34-5,3.92-5s3.66,2.13,3.66,4.8c0,2.91-1.1,5.14-3.84,5.14-2.41,0-3.74-1.79-3.74-5m6.07,0c0-2.47-.81-3.68-2.19-3.68s-2.32,1.2-2.32,3.72.8,3.7,2.24,3.7,2.27-1.22,2.27-3.74" style="fill: #803e28"/>
      <path id="Path_41" data-name="Path 41" d="M90.87,69.34v1.28H85.8V61h1.5v8.32Z" style="fill: #803e28"/>
      <path id="Path_42" data-name="Path 42" d="M93.17,61h2.74c3,0,4,1.79,4,4.65,0,3-1.26,5-4.22,5H93.17Zm5.21,4.8c0-2.75-.81-3.6-2.61-3.6h-1.1v7.2h1c2,0,2.72-1.3,2.72-3.61" style="fill: #803e28"/>
      <rect id="Rectangle_3" data-name="Rectangle 3" x="102.49" y="61.02" width="1.5" height="9.6" style="fill: #803e28"/>
      <path id="Path_43" data-name="Path 43" d="M108.29,63h0v7.6h-1.36V61h1.85l3.35,7.56h0V61h1.35v9.6h-1.76Z" style="fill: #803e28"/>
      <path id="Path_44" data-name="Path 44" d="M119.53,70.78c-2.42,0-3.5-2-3.5-4.83,0-3.24,1.43-5.11,3.94-5.11,1.79,0,3,.92,3.14,3.24l-1.38.13c-.11-1.38-.58-2.13-1.79-2.13-1.58,0-2.36,1.46-2.36,3.74,0,2.75.85,3.73,2.25,3.73a1.94,1.94,0,0,0,1.87-2,.53.53,0,0,0,0-.13v-.65H120V65.64h3.18v5h-1.1l-.16-1.26a2.43,2.43,0,0,1-2.36,1.42" style="fill: #803e28"/>
      <path id="Path_45" data-name="Path 45" d="M136.8,70.62V62.56h0l-2.08,8.06H133.2l-2.1-8.08h0v8.08H129.7V61h2.24l2,7.81h0L136,61h2.23v9.6Z" style="fill: #803e28"/>
      <path id="Path_46" data-name="Path 46" d="M146.36,69.36v1.26h-5.22V61h5v1.26h-3.53v2.89H146v1.25h-3.32v3Z" style="fill: #803e28"/>
      <path id="Path_47" data-name="Path 47" d="M150.06,63h0v7.6h-1.36V61h1.85l3.35,7.56h0V61h1.35v9.6h-1.76Z" style="fill: #803e28"/>
      <path id="Path_48" data-name="Path 48" d="M159.83,62.3h-2.4V61h6.25V62.3h-2.35v8.32h-1.5Z" style="fill: #803e28"/>
      <path id="Path_49" data-name="Path 49" d="M171.75,70.62h-1.64l-.73-2.68h-2.85l-.69,2.68H164.3L167,61h1.9Zm-3.82-8.24-1.12,4.31h2.25L168,62.38Z" style="fill: #803e28"/>
      <path id="Path_50" data-name="Path 50" d="M179,69.34v1.28H174V61h1.5v8.32Z" style="fill: #803e28"/>
      <path id="Path_51" data-name="Path 51" d="M190.17,70.62V66.39h-3.41v4.23h-1.5V61h1.5v4.09h3.41V61h1.5v9.6Z" style="fill: #803e28"/>
      <path id="Path_52" data-name="Path 52" d="M199.82,69.36v1.26H194.6V61h5v1.26H196.1v2.89h3.32v1.25H196.1v3Z" style="fill: #803e28"/>
      <path id="Path_53" data-name="Path 53" d="M209.26,70.62h-1.65l-.73-2.68H204l-.69,2.68H201.8l2.71-9.6h1.9Zm-3.82-8.24-1.13,4.31h2.25l-1.1-4.31Z" style="fill: #803e28"/>
      <path id="Path_54" data-name="Path 54" d="M216.54,69.34v1.28h-5.06V61H213v8.32Z" style="fill: #803e28"/>
      <path id="Path_55" data-name="Path 55" d="M219.59,62.3h-2.4V61h6.25V62.3h-2.35v8.32h-1.5Z" style="fill: #803e28"/>
      <path id="Path_56" data-name="Path 56" d="M230.53,70.62V66.39h-3.41v4.23h-1.5V61h1.5v4.09h3.41V61H232v9.6Z" style="fill: #803e28"/>
      <path id="Path_57" data-name="Path 57" d="M67.12,1.36a1.7,1.7,0,0,0-1.7,1.7V33.54a1.7,1.7,0,1,0,3.4,0V3.06a1.7,1.7,0,0,0-1.7-1.7" style="fill: #425d72"/>
      <path id="Path_58" data-name="Path 58" d="M173.25,1.36a1.7,1.7,0,0,0-1.7,1.7h0V33.54a1.69,1.69,0,0,0,1.69,1.7,1.71,1.71,0,0,0,1.71-1.7h0V3.06a1.7,1.7,0,0,0-1.7-1.7h0" style="fill: #425d72"/>
      <path id="Path_59" data-name="Path 59" d="M40.63,0c-7,0-12,4.2-14.49,6.4a11.08,11.08,0,0,0-2.25-3.89A9.4,9.4,0,0,0,16.94,0C11,0,6.21,3.52,3.4,5.72V2A1.7,1.7,0,0,0,0,2V33.36a1.7,1.7,0,0,0,3.4,0V9.59C4.45,8.53,9.83,3.42,16.94,3.42a6.06,6.06,0,0,1,4.54,1.51c2,2,2,5.93,1.94,8.8V33.35a1.7,1.7,0,1,0,3.4,0h0V13.75c0-1.16,0-2.46-.09-3.8a1.45,1.45,0,0,0,.18-.17c.06,0,5.82-6.36,13.72-6.36a6,6,0,0,1,4.54,1.51c2,2,2,5.93,1.94,8.8V33.36a1.7,1.7,0,1,0,3.4,0V13.76c0-3.47.07-8.21-2.93-11.23A9.37,9.37,0,0,0,40.63,0" style="fill: #425d72"/>
      <path id="Path_60" data-name="Path 60" d="M144.29,36.09a17.76,17.76,0,0,0,13.63-6.41,1.7,1.7,0,1,0-2.61-2.18,14.36,14.36,0,1,1-1.88-20.23c.25.21.48.42.72.64a1.7,1.7,0,0,0,2.34-2.47,17.76,17.76,0,1,0-12.2,30.65" style="fill: #425d72"/>
      <path id="Path_61" data-name="Path 61" d="M163.84,37a1.68,1.68,0,0,0-2.32.6,14.3,14.3,0,0,1-4.66,4.16c-4.41,2.64-10.31,3.75-17.08,3.21-5.4-.43-13.84-3-23.38-12.76a73,73,0,0,1-8.13-10,11,11,0,0,0-4.27-21H85.41a1.7,1.7,0,0,0-1.7,1.7V33.54a1.7,1.7,0,0,0,3.4,0V23.08H104l.75,0a75.69,75.69,0,0,0,9.16,11.5c8.15,8.35,17,13.14,25.6,13.83,1.27.1,2.48.14,3.63.14,15.71,0,21.07-8.78,21.3-9.18a1.7,1.7,0,0,0-.6-2.33h0M87.11,4.57H104a7.56,7.56,0,0,1,0,15.11H87.11Z" style="fill: #425d72"/>
      <rect id="Rectangle_4" data-name="Rectangle 4" y="0.02" width="232.03" height="70.76" style="fill: none"/>
    </g>
  </g>
</svg>
