<?xml version="1.0" encoding="utf-8"?>
<!-- Generator: Adobe Illustrator 25.2.1, SVG Export Plug-In . SVG Version: 6.00 Build 0)  -->
<svg version="1.1" id="Layer_2_1_" xmlns="http://www.w3.org/2000/svg" xmlns:xlink="http://www.w3.org/1999/xlink" x="0px" y="0px"
	 viewBox="0 0 282 80.6" style="enable-background:new 0 0 282 80.6;" xml:space="preserve">
<style type="text/css">
	.st0{fill:#23346B;}
	.st1{fill:#5CB8E8;}
	.st2{fill:#6A76B9;}
</style>
<path class="st0" d="M112.5,37.7L111,26.4l-5.2,11.3h-1.6L99,26.4l-1.5,11.3H92l3-19.6h5.4l4.6,10.7l4.6-10.7h5.4l2.9,19.6H112.5z"
	/>
<path class="st0" d="M135.7,30c0,0.5,0,0.9-0.1,1.4h-11.2c0.2,1.6,1.5,2.7,3.1,2.6c1.1,0,2.1-0.5,2.7-1.5h5.2
	c-1.2,4.4-5.8,6.9-10.2,5.7c-4.4-1.2-6.9-5.8-5.7-10.2c1-3.6,4.3-6,8-6c4.3-0.2,8,3.1,8.2,7.4C135.8,29.7,135.8,29.8,135.7,30
	L135.7,30z M124.5,28.5h6.1c-0.3-1.5-1.6-2.5-3.1-2.4C126.1,26.1,124.8,27.1,124.5,28.5z"/>
<path class="st0" d="M148.1,33.1v4.6h-3.5c-3.3,0-5.4-2-5.4-5.4v-5.8h-2.8v-1.2l6.8-7.2h1.1v4.4h3.8v4h-3.7v4.8
	c-0.1,0.9,0.6,1.7,1.5,1.7c0.1,0,0.2,0,0.3,0L148.1,33.1z"/>
<path class="st0" d="M160.4,22.5v4.8h-2c-1.8,0-2.6,0.8-2.6,2.7v7.7h-5.2V22.5h3.5l0.8,1.7c1-1.2,2.6-1.8,4.1-1.7H160.4z"/>
<path class="st0" d="M161.2,30.1c0-4.7,3.6-8,8.5-8s8.5,3.4,8.5,8s-3.6,8.1-8.5,8.1S161.2,34.8,161.2,30.1z M169.7,33.5
	c1.9,0.1,3.4-1.4,3.5-3.3c0.1-1.9-1.4-3.4-3.3-3.5c-1.9-0.1-3.4,1.4-3.5,3.3c0,0,0,0.1,0,0.1c-0.1,1.8,1.2,3.3,3,3.4
	C169.5,33.5,169.6,33.5,169.7,33.5z"/>
<path class="st0" d="M197.3,30.1c0.2,4.3-3.1,7.9-7.3,8.1c-0.2,0-0.4,0-0.6,0c-1.3,0-2.6-0.3-3.7-1v6h-5.2V22.5h3.5l0.6,1.2
	c1.3-1.1,2.9-1.7,4.6-1.7c4.2-0.2,7.8,3.2,8,7.4C197.3,29.6,197.3,29.9,197.3,30.1z M192.1,30.1c0-1.9-1.6-3.4-3.5-3.3
	c-1.9,0-3.4,1.6-3.3,3.5c0,1.8,1.5,3.3,3.4,3.3c1.8,0,3.4-1.4,3.4-3.3C192.1,30.2,192.1,30.2,192.1,30.1z"/>
<path class="st0" d="M198.8,30.1c0-4.7,3.6-8,8.5-8s8.5,3.4,8.5,8s-3.6,8.1-8.5,8.1S198.8,34.8,198.8,30.1z M207.3,33.5
	c1.9,0.1,3.4-1.4,3.5-3.3c0.1-1.9-1.4-3.4-3.3-3.5c-1.9-0.1-3.4,1.4-3.5,3.3c0,0,0,0.1,0,0.1c-0.1,1.8,1.2,3.3,3,3.4
	C207.1,33.5,207.2,33.5,207.3,33.5z"/>
<path class="st0" d="M218.2,17.1h5.2v20.6h-5.2V17.1z"/>
<path class="st0" d="M226.7,22.5h5.2v15.2h-5.2V22.5z M226.7,16.2h5.1v4.4h-5.1V16.2z"/>
<path class="st0" d="M245.3,33.1v4.6h-3.6c-3.3,0-5.4-2-5.4-5.4v-5.8h-2.8v-1.2l6.8-7.2h1.1v4.4h3.8v4h-3.7v4.8
	c-0.1,0.9,0.6,1.7,1.5,1.7c0.1,0,0.2,0,0.3,0L245.3,33.1z"/>
<path class="st0" d="M263.7,22.5v15.1h-4l-0.4-1.1c-1.3,1-2.9,1.6-4.6,1.6c-4.3,0.1-7.8-3.2-7.9-7.5c0-0.2,0-0.4,0-0.6
	c-0.2-4.2,3.1-7.8,7.3-8c0.2,0,0.4,0,0.6,0c1.7,0,3.3,0.6,4.6,1.6l0.5-1.2L263.7,22.5z M258.8,30.1c0-1.9-1.6-3.4-3.4-3.3
	c-1.9,0-3.4,1.6-3.3,3.4c0,1.9,1.5,3.3,3.4,3.3c1.8,0,3.4-1.4,3.4-3.3C258.8,30.2,258.8,30.2,258.8,30.1L258.8,30.1z"/>
<path class="st0" d="M282,28.4v9.2h-5.2v-8.5c0-1.8-0.7-2.6-2-2.6c-1.6,0-2.6,1.1-2.6,3.1v8.1H267V22.5h3.7l0.7,1.6
	c1.2-1.3,3-2,4.8-2C279.7,22.1,282,24.6,282,28.4z"/>
<path class="st0" d="M108.7,55.2c0.1,3.9-3,7-6.9,7.1c-0.1,0-0.3,0-0.4,0h-2.9v5.4h-5.4V48.1h8.3c3.9-0.1,7.1,2.9,7.3,6.7
	C108.7,54.9,108.7,55,108.7,55.2z M103.2,55.2c0.1-1.2-0.9-2.3-2.1-2.4c-0.1,0-0.2,0-0.2,0h-2.3v4.7h2.3c1.2,0.1,2.3-0.9,2.3-2.2
	C103.2,55.3,103.2,55.2,103.2,55.2L103.2,55.2z"/>
<path class="st0" d="M126.3,61.3h-11.2c0.2,1.6,1.5,2.7,3.1,2.6c1.1,0.1,2.2-0.5,2.7-1.5h5.2c-1.5,4.3-6.2,6.6-10.5,5.2
	c-3.3-1.1-5.5-4.2-5.6-7.6c0-4.5,3.6-8.3,8.2-8.3s8.3,3.6,8.3,8.2C126.4,60.4,126.4,60.9,126.3,61.3z M115.2,58.5h6.1
	c-0.3-1.4-1.6-2.4-3.1-2.3C116.7,56.1,115.5,57.1,115.2,58.5z"/>
<path class="st0" d="M144.8,47.1v20.6h-3.9l-0.5-1.2c-1.3,1.1-2.9,1.7-4.6,1.6c-4.5-0.2-7.9-3.9-7.8-8.3c0.1-4.2,3.5-7.6,7.8-7.8
	c1.3,0,2.6,0.3,3.8,1v-6L144.8,47.1z M139.9,60.1c0-1.9-1.6-3.3-3.5-3.3c-1.9,0-3.3,1.6-3.3,3.5c0,1.8,1.6,3.3,3.4,3.3
	c1.8,0,3.4-1.4,3.4-3.3C139.9,60.2,139.9,60.2,139.9,60.1L139.9,60.1z"/>
<path class="st0" d="M148,52.5h5.2v15.1H148V52.5z M148,46.2h5.1v4.4H148V46.2z"/>
<path class="st0" d="M172.6,52.5v15.1h-4l-0.4-1.1c-1.3,1-2.9,1.6-4.6,1.6c-4.4,0-8-3.6-8-8s3.6-8,8-8c1.7,0,3.3,0.6,4.6,1.6
	l0.5-1.2L172.6,52.5z M167.6,60.1c0-1.9-1.6-3.4-3.4-3.3c-1.9,0-3.4,1.6-3.3,3.4c0,1.9,1.5,3.3,3.4,3.3c1.8,0,3.4-1.4,3.4-3.3
	C167.7,60.2,167.7,60.2,167.6,60.1L167.6,60.1z"/>
<path class="st0" d="M186.1,63.1v4.6h-3.5c-3.4,0-5.4-2-5.4-5.4v-5.7h-2.8v-1.2l6.8-7.2h1.1v4.4h3.8v4h-3.7v4.8
	c-0.1,0.9,0.6,1.7,1.5,1.7c0.1,0,0.2,0,0.3,0L186.1,63.1z"/>
<path class="st0" d="M198.4,52.5v4.8h-2c-1.8,0-2.6,0.8-2.6,2.7v7.7h-5.2V52.5h3.5l0.8,1.7c1-1.2,2.6-1.8,4.1-1.7H198.4z"/>
<path class="st0" d="M200.3,52.5h5.2v15.1h-5.2V52.5z M200.3,46.2h5.2v4.4h-5.1L200.3,46.2z"/>
<path class="st0" d="M207.9,60.1c0-4.7,3.5-8,8.4-8c4-0.2,7.5,2.7,8,6.7h-5.1c-0.5-1.2-1.6-2-2.9-2c-1.7,0-3.1,1.4-3.1,3.1
	c0,0.1,0,0.2,0,0.3c-0.1,1.7,1.2,3.2,2.9,3.4c0.1,0,0.1,0,0.2,0c1.4,0.1,2.6-0.9,3-2.2h5.1c-0.5,4-4,7-8.1,6.9
	C211.4,68.2,207.9,64.8,207.9,60.1z"/>
<path class="st0" d="M232.4,68.2c-4.1,0-6.6-2.2-6.7-5.4h5c0,0.9,0.6,1.6,1.5,1.6c0.1,0,0.2,0,0.3,0c0.8,0,1.5-0.4,1.5-1.2
	s-1.1-1.1-2.6-1.4c-2.3-0.4-5.4-1.1-5.4-4.8c0-3,2.6-5,6.5-5s6.4,2,6.4,5.1H234c0-1-0.6-1.4-1.6-1.4s-1.4,0.4-1.4,1.1
	c0,0.9,1.1,1.1,2.6,1.3c2.4,0.4,5.6,0.9,5.6,4.8C239.1,66.1,236.5,68.2,232.4,68.2L232.4,68.2z"/>
<path class="st1" d="M23.2,47.3c4.9,1.2,8.1-5.3,12.1-6.4c2.7-0.7,5.1,1.6,3.7,3.7c-4.6,7-9.8,11.8-7.8,19c0.3,1-0.3,2.1-1.3,2.4
	c-0.5,0.1-0.9,0.1-1.4-0.1C6.6,55.3,11.6,22.9,19,27.9c1.2,0.9,1.8,2.4,1.6,3.8C19.9,37.2,17,46.1,23.2,47.3z"/>
<path class="st2" d="M65.6,12.2c4.4-2.1,10.9,11.9,11.2,21.7C77,45.3,71.9,53.6,62.3,59c-0.8,0.5-4.7,2.6-4.4-0.1
	c5.8-19.9-5.5-14.8-10.7-23.7c-0.9-3.7,2-5.7,6.1-3.2c3.5,1.2,7.7,5.6,10.9,3.1C73.8,28.5,60.5,14.6,65.6,12.2z"/>
<path class="st2" d="M63.5,22.9c1.4,6.5-8.9,8.5-10.1,2C52.1,18.3,62.3,16.4,63.5,22.9z"/>
<path class="st1" d="M36.7,31.4c1.5,8.2-10.8,10.6-12.5,2.4S35.1,23.3,36.7,31.4z"/>
<path class="st0" d="M78.3,51c-2.7,3.5-5.9,6.6-9.4,9.3c-3.4,2.3-22.7,12.5-20.3,2.7c2.4-3.9,8.1-8.4,4.3-13.2
	c-0.7-0.9-1.8-0.9-2.1,0.1c-3.3,8.5-13.3,11.6-16.2,20.4c-0.3,0.7-1,1-1.7,0.9C11.1,66.6-0.3,38.7,12.7,20.5
	C23.4,3.4,45.1,3.1,57,9.5c3,1.6,5.3-2.3,2.3-4.1C35.2-9.2,0,6.9,0,38.9C0,71.2,35.8,92,62.6,73.8c5.2-3.4,9.8-7.7,13.6-12.6
	c2.2-3,4.3-5.9,4.8-8.5C81.2,51.2,79.3,49.8,78.3,51z"/>
</svg>
