<?xml version="1.0" encoding="utf-8"?>
<!-- Generator: Adobe Illustrator 23.0.6, SVG Export Plug-In . SVG Version: 6.00 Build 0)  -->
<svg version="1.1" id="Layer_1" xmlns="http://www.w3.org/2000/svg" xmlns:xlink="http://www.w3.org/1999/xlink" x="0px" y="0px"
	 width="333" height="44" viewBox="0 0 333 44" style="enable-background:new 0 0 333 44;" xml:space="preserve">
<style type="text/css">
	.st0{fill:#1D2D5C;}
	.st1{fill:#00205C;}
</style>
<g>
	<path class="st0" d="M31.6,9.3"/>
	<g>
		<path class="st1" d="M328.3,34.9c0.1-0.2,0.2-0.4,0.4-0.6c0.2-0.2,0.4-0.3,0.6-0.4c0.2-0.1,0.5-0.1,0.8-0.1s0.5,0,0.8,0.1
			c0.2,0.1,0.4,0.2,0.6,0.4c0.2,0.2,0.3,0.4,0.4,0.6c0.1,0.2,0.2,0.5,0.2,0.8c0,0.3-0.1,0.5-0.2,0.8c-0.1,0.2-0.2,0.4-0.4,0.6
			c-0.2,0.2-0.4,0.3-0.6,0.4c-0.2,0.1-0.5,0.1-0.8,0.1s-0.5,0-0.8-0.1c-0.2-0.1-0.4-0.2-0.6-0.4c-0.2-0.2-0.3-0.4-0.4-0.6
			c-0.1-0.2-0.2-0.5-0.2-0.8C328.1,35.4,328.2,35.2,328.3,34.9z M328.6,36.4c0.1,0.2,0.2,0.4,0.3,0.5c0.1,0.1,0.3,0.3,0.5,0.4
			c0.2,0.1,0.4,0.1,0.6,0.1c0.2,0,0.4,0,0.6-0.1c0.2-0.1,0.4-0.2,0.5-0.4c0.1-0.1,0.3-0.3,0.3-0.5c0.1-0.2,0.1-0.4,0.1-0.7
			c0-0.2,0-0.4-0.1-0.7c-0.1-0.2-0.2-0.4-0.3-0.5c-0.1-0.1-0.3-0.3-0.5-0.3c-0.2-0.1-0.4-0.1-0.6-0.1c-0.2,0-0.4,0-0.6,0.1
			c-0.2,0.1-0.4,0.2-0.5,0.3c-0.1,0.1-0.3,0.3-0.3,0.5c-0.1,0.2-0.1,0.4-0.1,0.7C328.5,35.9,328.5,36.2,328.6,36.4z M330.2,34.6
			c0.3,0,0.5,0.1,0.6,0.2c0.1,0.1,0.2,0.3,0.2,0.5c0,0.2-0.1,0.4-0.2,0.5c-0.1,0.1-0.3,0.2-0.4,0.2l0.7,1h-0.4l-0.6-1h-0.4v1h-0.4
			v-2.3H330.2z M330,35.6c0.1,0,0.2,0,0.2,0c0.1,0,0.1,0,0.2,0c0.1,0,0.1-0.1,0.1-0.1c0,0,0-0.1,0-0.2c0-0.1,0-0.1,0-0.2
			c0,0-0.1-0.1-0.1-0.1c0,0-0.1,0-0.2,0c-0.1,0-0.1,0-0.2,0h-0.5v0.7H330z"/>
		<g>
			<g>
				<path class="st1" d="M3.4,31c2.9-2.4,13.6-8,18.1-4.4c0.7,0.5,0.6,1.2,0.9,1.8c0.9,1.5,15.2-1.3,17.6-11.5c0.1-0.5-0.6-2-0.6-2
					c-0.5,5.9-9.8,11.5-16.3,9.3c-1-0.3-0.5-1.9-1.7-2.7C17,18.7,8.6,21,1.8,24.9C1.8,24.9,2.5,28.1,3.4,31z"/>
				<path class="st1" d="M8.1,43.3c0,0,1.9-2.5,3.6-3.7c3.6-2.8,8.8-5.8,9.6-3.2c0,0,0.1,0.4,0,0.8c-0.1,0.3,0.2,0.6,0.5,0.5
					c13.9-3.8,18.5-11.8,18.4-18.1c-2.1,7.8-9.7,11.8-17.5,12.7c-0.8,0,0.1-1.4-1.1-2.2c-3.4-2.2-14.5,4.6-16.1,7
					C5.5,37.2,7.5,42.2,8.1,43.3z"/>
				<path class="st1" d="M1.1,19.2c10.6-5.2,17.4-4.2,20.2-0.7c1.1,1.4,1,2.4,1.6,2.8c5.6,2.6,15.9-2.7,15.4-8.1
					c0-0.2-0.2-0.5-0.2-0.5c-0.3-0.4-1-1-1-1c2,7.3-12.5,9.2-14.7,5.8c-0.4-0.7-1-2.5-1.4-3c-1.5-2.4-8.2-7-19.8-1.2
					C1.1,13.3,0.8,15.2,1.1,19.2z"/>
				<path class="st1" d="M31.7,9.3c0,0,4.8,0.9,1.8,3.6c-1.8,1.6-10.4,3.1-10.9-1.4C21-1.6,7.9-2.7,2.4,8c0,0,0.7-0.3,1-0.5
					c11.7-5.2,16.9,2.3,17.8,3.9c0.3,0.6,0.6,1.3,0.9,1.9c0.4,1.1,0.5,5.2,8.9,2.9C37.1,14.6,37.3,9.3,31.7,9.3"/>
			</g>
			<g>
				<g>
					<path class="st1" d="M48.2,37.6v-1.3c4-0.3,4-0.4,4-2.9V10.7c0-2.5-0.1-2.6-4-2.9V6.5h13c3.5,0,6.2,0.5,8,1.6
						C71,9.4,72,11.2,72,13.7c0,3.5-2.5,6.1-6.7,6.9v0.1c4.4,0.6,8.1,2.9,8.1,8.2c0,6.3-4.4,8.7-11.2,8.7H48.2z M56.7,20.1h3
						c4.7,0,7.5-1.8,7.5-6.2c0-4.6-3.6-5.9-6.9-5.8c-3.5,0-3.6,0.3-3.6,2.2V20.1z M56.7,32.6c0,2.8,0.7,3.5,4.3,3.5
						c3.9,0,7.6-1.4,7.6-6.8c0-4.8-3.1-7.6-8.6-7.6h-3.2V32.6z"/>
					<path class="st1" d="M93.5,31.9c0,2.8,0.8,3.7,1.6,3.9c0.7,0.2,1.7,0.1,2.3,0l0.3,1.1c-1.7,0.9-3.6,1.3-5.3,1.3
						c-1.6,0-2.3-1-2.9-2.7c-1.4,0.9-3.9,2.6-6.7,2.7c-4.2,0-6.5-3-6.5-6.4c0-2.1,0.9-4.4,4.2-5.4c3.6-1.1,7.9-2.2,9-3.4v-1.9
						c0-3.6-2.1-4.5-3.8-4.5c-1.8,0-3.6,1.1-4.6,4.4c-0.2,0.8-0.5,1.3-1.4,1.3c-0.9,0-2.5-0.7-2.5-2.1c0-2.5,4-5.1,9.1-5.1
						c6.8,0,7.4,3.4,7.4,6V31.9z M89.5,24.9c-1,0.6-3.4,1.5-5.2,2.2c-2.5,0.9-3.5,2-3.5,4.1c0,2.7,1.3,4.6,4.1,4.6
						c1.8,0,4.5-0.9,4.5-4.6V24.9z"/>
					<path class="st1" d="M120.2,33.7c0,2.3,0.2,2.4,3.4,2.6v1.3h-11v-1.3c3.2-0.2,3.4-0.3,3.4-2.6V23.1c0-3.9-1.7-5.6-4.7-5.6
						c-2.4,0-4.4,1.5-5.4,3.2c-0.4,0.7-0.5,1.3-0.5,2.5v10.5c0,2.3,0.2,2.4,3.4,2.6v1.3h-11v-1.3c3.2-0.2,3.4-0.3,3.4-2.6V19.6
						c0-1.6-0.3-1.8-1.4-2l-1.7-0.2v-1.1l6.7-1.1l0.6,3.4c2.8-1.8,4.9-3.4,8.2-3.4c4.1,0,6.6,2.6,6.6,7.2V33.7z"/>
					<path class="st1" d="M147,33.7c0,2.3,0.2,2.4,3.4,2.6v1.3h-11v-1.3c3.2-0.2,3.4-0.3,3.4-2.6V23.1c0-3.9-1.7-5.6-4.7-5.6
						c-2.4,0-4.4,1.5-5.4,3.2c-0.4,0.7-0.4,1.3-0.4,2.5v10.5c0,2.3,0.2,2.4,3.4,2.6v1.3h-11v-1.3c3.2-0.2,3.4-0.3,3.4-2.6V19.6
						c0-1.6-0.3-1.8-1.4-2l-1.7-0.2v-1.1l6.7-1.1l0.6,3.4c2.8-1.8,4.9-3.4,8.2-3.4c4.1,0,6.6,2.6,6.6,7.2V33.7z"/>
					<path class="st1" d="M156.8,25.8c-0.1,4.7,1,10.1,6.6,10.1c3.6,0,5.3-2.2,6.5-4.8l1.3,0.7c-1.2,3.6-3.8,6.3-8.8,6.3
						c-7.3,0.1-10.4-4.3-10.4-11.4c0-6.7,3.3-11.7,10.3-11.7c8.2,0,9.1,6.4,9.1,9c0,1.5-0.9,1.7-1.8,1.7H156.8z M165.3,24.1
						c1.3,0,1.5-0.6,1.5-1.4c0-1.8-0.5-6-4.7-6c-4.7,0-5.4,5.6-5.4,7.5H165.3z"/>
					<path class="st1" d="M180.9,18.7c3-2.6,4.3-3.6,5.9-3.6c1.8,0,2.4,1.2,2.4,2.2c0,1.4-1,2.5-2.1,2.5c-0.2,0-0.6,0-0.9-0.2
						c-1.3-0.7-2.1-1-2.8-1c-1,0-2.6,1.2-2.6,4.6v10.5c0,2.3,0.3,2.4,4.3,2.6v1.3h-11.9v-1.3c3.1-0.2,3.4-0.3,3.4-2.6V19.6
						c0-1.6-0.3-1.8-1.4-2l-1.7-0.2v-1.1l6.8-1.1L180.9,18.7z"/>
				</g>
				<g>
					<path class="st1" d="M207.3,22.2v11c0,2.5,0.1,2.6,4,2.9v1.5h-12.8v-1.5c3.9-0.3,4-0.4,4-2.9V10.8c0-2.5-0.1-2.6-4-2.9V6.4
						h12.8v1.5c-3.9,0.2-4,0.4-4,2.9v9.7h15.4v-9.7c0-2.5-0.1-2.6-4-2.9V6.4h12.8v1.5c-3.9,0.2-4,0.3-4,2.9v22.5
						c0,2.5,0.1,2.6,4,2.9v1.5h-12.8v-1.5c3.9-0.3,4-0.4,4-2.9v-11H207.3z"/>
					<path class="st1" d="M236.6,26c-0.1,4.6,1.1,9.8,6.6,9.8c3.5,0,5.2-2.1,6.4-4.7l1.4,0.8c-1.2,3.5-3.8,6.3-8.8,6.3
						c-7.6,0-10.4-4.3-10.4-11.4c0-6.7,3.3-11.8,10.4-11.8c8.2,0,9.1,6.4,9.1,9.1c0,1.5-0.9,1.8-1.9,1.8H236.6z M245,24.1
						c1.2,0,1.5-0.5,1.5-1.4c0-1.8-0.5-6-4.6-6c-4.6,0-5.3,5.5-5.3,7.4H245z"/>
					<path class="st1" d="M271.3,31.7c0,2.8,0.7,3.6,1.5,3.8c0.5,0.1,1.1,0.1,1.8,0l0.2,1.4c-1.1,0.7-3.1,1.3-4.8,1.3
						c-1.6,0-2.4-0.9-3-2.7c-1.4,1-3.9,2.7-6.6,2.7c-4.3,0-6.5-3-6.5-6.4c0-2.2,1-4.5,4.2-5.5c3.5-1.1,7.8-2.2,9-3.4v-1.6
						c0-3.5-1.8-4.6-4-4.6c-1.8,0-3.4,1-4.4,4.3c-0.2,0.8-0.6,1.3-1.5,1.3c-0.9,0-2.5-0.7-2.5-2.2c0-2.5,3.6-5.2,8.8-5.2
						c6.8,0,7.8,3.5,7.8,6.2V31.7z M267.1,24.9c-1,0.6-3.3,1.5-5.1,2.2c-2.4,1-3.4,2.1-3.4,4.2c0,2.6,1.4,4.5,4.1,4.5
						c1.7,0,4.4-0.9,4.4-4.4V24.9z"/>
					<path class="st1" d="M278.4,8.6c0-1.7-0.2-2-1.4-2.1l-1.7-0.1V5.1l7.2-1.1l0.3,0.3v29.3c0,2.2,0.1,2.3,3.3,2.6v1.5h-11.1v-1.5
						c3.2-0.2,3.3-0.3,3.3-2.6V8.6z"/>
					<path class="st1" d="M294.5,17.6v13.6c0,3.4,1.4,4.4,2.9,4.4c1.1,0,1.8-0.1,2.9-0.6l0.4,1.2c-1.5,1-3.3,1.9-5.5,1.9
						c-1.6,0-5-0.6-5-5.2V17.6h-3.2v-2h3.4l2.8-5.6h1.4v5.6h5.7v2H294.5z"/>
					<path class="st1" d="M303.7,8.7c0-1.6-0.2-1.9-1.4-2.1l-1.7-0.2V5.1l7.1-1.1l0.3,0.2v14.2c2.8-1.9,4.8-3.4,8.1-3.4
						c4.2,0,6.6,2.6,6.6,7.2v11.4c0,2.2,0.3,2.4,3.3,2.6v1.5h-11v-1.5c3.1-0.2,3.3-0.4,3.3-2.6V23c0-3.8-1.7-5.4-4.7-5.4
						c-2.3,0-4.3,1.4-5.3,3.3c-0.3,0.6-0.4,1.3-0.4,2.4v10.3c0,2.2,0.3,2.3,3.3,2.6v1.5h-11v-1.5c3.2-0.2,3.3-0.4,3.3-2.6V8.7z"/>
				</g>
			</g>
		</g>
	</g>
</g>
</svg>
