<?xml version="1.0" encoding="utf-8"?>
<!-- Generator: Adobe Illustrator 26.0.1, SVG Export Plug-In . SVG Version: 6.00 Build 0)  -->
<svg version="1.1" xmlns="http://www.w3.org/2000/svg" xmlns:xlink="http://www.w3.org/1999/xlink" x="0px" y="0px"
	 viewBox="0 0 412.8 179.5" style="enable-background:new 0 0 412.8 179.5;" xml:space="preserve">
<style type="text/css">
	.st0{fill:#96A8C6;}
	.st1{fill:#627FA7;}
	.st2{fill:#003767;}
	.st3{fill:#FFFFFF;}
	.st4{fill:none;stroke:#FFFFFF;stroke-width:1.2677;}
</style>
<g id="Layer_1">
</g>
<g id="Layer_2">
	<g>
		<rect x="4" y="3.5" class="st0" width="60.5" height="60.5"/>
		<rect x="4" y="69" class="st1" width="60.5" height="60.5"/>
		<rect x="71.7" y="3.5" class="st1" width="60.5" height="60.5"/>
		<rect x="71.7" y="69" class="st2" width="60.5" height="60.5"/>
		
			<ellipse transform="matrix(1.569348e-03 -1 1 1.569348e-03 0.9683 134.2535)" class="st3" cx="67.7" cy="66.6" rx="7.6" ry="7.6"/>
		<path class="st4" d="M47.6,66.6c0-11.1,9-20.1,20.1-20.1c11.1,0,20.1,9,20.1,20.1c0,11.1-9,20.1-20.1,20.1
			C56.6,86.7,47.6,77.7,47.6,66.6z"/>
		<g>
			<path class="st3" d="M23.7,19.7c0.1-0.6,0.3-0.9,0.6-0.9c0.3,0,0.5,0.2,0.9,1.1l9.3,19.3l9.3-19.5c0.3-0.5,0.4-0.8,0.8-0.8
				c0.3,0,0.5,0.3,0.6,1.1l3.1,21.2c0.3,2.2,0.7,3.1,1.7,3.5c1,0.3,1.7,0.3,2.1,0.3c0.3,0,0.5,0,0.5,0.2c0,0.3-0.4,0.4-0.9,0.4
				c-0.9,0-5.6-0.1-6.9-0.2c-0.8-0.1-1-0.2-1-0.4c0-0.2,0.1-0.3,0.4-0.4c0.2-0.1,0.3-0.5,0.2-1.5L42.4,28h-0.1l-7.5,15.5
				c-0.8,1.6-1,1.9-1.3,1.9c-0.3,0-0.7-0.7-1.2-1.7c-0.8-1.6-3.5-6.8-3.9-7.8c-0.3-0.7-2.4-5-3.6-7.6h-0.1L22.9,42
				c-0.1,0.6-0.1,1.1-0.1,1.6c0,0.7,0.4,1,1,1.1c0.6,0.1,1.1,0.2,1.4,0.2c0.3,0,0.5,0.1,0.5,0.2c0,0.3-0.3,0.4-0.8,0.4
				c-1.4,0-3-0.1-3.6-0.1c-0.7,0-2.3,0.1-3.4,0.1c-0.3,0-0.6-0.1-0.6-0.4c0-0.2,0.2-0.2,0.5-0.2c0.3,0,0.5,0,1-0.1
				c1-0.2,1.2-1.5,1.4-2.7L23.7,19.7z"/>
		</g>
		<g>
			<path class="st3" d="M107,29.2c0.1,0,0.2-0.1,0.2-0.2v-0.7c0-5.2,0-6.2-0.1-7.3c-0.1-1.2-0.3-1.7-1.5-2c-0.3-0.1-0.9-0.1-1.3-0.1
				c-0.4,0-0.6-0.1-0.6-0.3c0-0.2,0.2-0.3,0.7-0.3c1.8,0,4,0.1,4.9,0.1c0.8,0,3-0.1,4.3-0.1c0.5,0,0.7,0.1,0.7,0.3
				c0,0.2-0.2,0.3-0.6,0.3c-0.3,0-0.6,0-1,0.1c-0.9,0.2-1.2,0.8-1.3,2c-0.1,1.1-0.1,2.1-0.1,7.3v6c0,3.1,0,5.9,0.2,7.3
				c0.1,1,0.3,1.7,1.3,1.8c0.5,0.1,1.2,0.1,1.7,0.1c0.4,0,0.5,0.1,0.5,0.3c0,0.2-0.3,0.3-0.7,0.3c-2.2,0-4.4-0.1-5.3-0.1
				c-0.8,0-2.9,0.1-4.3,0.1c-0.5,0-0.7-0.1-0.7-0.3c0-0.2,0.1-0.3,0.5-0.3c0.5,0,0.9-0.1,1.2-0.1c0.7-0.1,0.9-0.9,1-1.9
				c0.2-1.4,0.2-4.1,0.2-7.3v-3c0-0.1-0.1-0.2-0.2-0.2H93.9c-0.1,0-0.2,0-0.2,0.2v3c0,3.1,0,5.9,0.2,7.3c0.1,1,0.3,1.7,1.3,1.8
				c0.5,0.1,1.2,0.1,1.7,0.1c0.4,0,0.5,0.1,0.5,0.3c0,0.2-0.3,0.3-0.7,0.3c-2.2,0-4.4-0.1-5.3-0.1c-0.8,0-2.9,0.1-4.3,0.1
				c-0.4,0-0.7-0.1-0.7-0.3c0-0.2,0.1-0.3,0.5-0.3c0.5,0,0.9-0.1,1.2-0.1c0.7-0.1,0.9-0.9,1-1.9c0.2-1.4,0.2-4.1,0.2-7.3v-6
				c0-5.2,0-6.2-0.1-7.3c-0.1-1.2-0.3-1.7-1.5-2c-0.3-0.1-0.9-0.1-1.3-0.1c-0.4,0-0.6-0.1-0.6-0.3c0-0.2,0.2-0.3,0.7-0.3
				c1.8,0,4,0.1,4.9,0.1c0.8,0,3-0.1,4.3-0.1c0.5,0,0.7,0.1,0.7,0.3c0,0.2-0.2,0.3-0.6,0.3c-0.3,0-0.6,0-1,0.1
				c-0.9,0.2-1.2,0.8-1.3,2c-0.1,1.1-0.1,2.1-0.1,7.3V29c0,0.2,0.1,0.2,0.2,0.2H107z"/>
		</g>
		<g>
			<path class="st3" d="M26.6,112.6c-0.5-0.2-0.6-0.4-0.6-1.2c0-1.9,0.1-3.9,0.2-4.5c0-0.5,0.1-0.9,0.4-0.9c0.3,0,0.3,0.3,0.3,0.6
				c0,0.4,0.1,1.2,0.3,1.7c0.8,2.5,2.8,3.5,4.9,3.5c3.1,0,4.6-2.1,4.6-3.9c0-1.7-0.5-3.3-3.4-5.5l-1.6-1.2c-3.8-2.9-5.1-5.3-5.1-8.1
				c0-3.8,3.2-6.5,7.9-6.5c2.2,0,3.7,0.3,4.6,0.6c0.3,0.1,0.5,0.2,0.5,0.4c0,0.4-0.1,1.4-0.1,4.1c0,0.8-0.1,1-0.4,1
				c-0.2,0-0.3-0.2-0.3-0.6c0-0.3-0.2-1.4-0.9-2.3c-0.5-0.7-1.5-1.7-3.7-1.7c-2.5,0-4.1,1.5-4.1,3.5c0,1.6,0.8,2.8,3.6,4.9l1,0.7
				c4.1,3.1,5.6,5.5,5.6,8.7c0,2-0.8,4.3-3.2,6c-1.7,1.1-3.6,1.4-5.4,1.4C29.7,113.5,28.1,113.3,26.6,112.6z"/>
		</g>
		<g>
			<path class="st3" d="M100.8,95.8c0-5.2,0-6.2-0.1-7.3c-0.1-1.2-0.4-1.7-1.2-1.9c-0.4-0.1-0.8-0.1-1.2-0.1c-0.3,0-0.5-0.1-0.5-0.3
				c0-0.2,0.3-0.3,0.8-0.3c1.3,0,3.5,0.1,4.4,0.1c0.9,0,2.9-0.1,4.2-0.1c0.4,0,0.7,0.1,0.7,0.3c0,0.3-0.2,0.3-0.5,0.3
				c-0.3,0-0.6,0-1,0.1c-0.9,0.2-1.2,0.8-1.3,2c-0.1,1.1-0.1,2.1-0.1,7.3v6c0,3.3,0,6,0.1,7.5c0.1,0.9,0.3,1.5,1.4,1.7
				c0.5,0.1,1.2,0.1,1.7,0.1c0.4,0,0.5,0.1,0.5,0.3c0,0.2-0.3,0.3-0.7,0.3c-2.3,0-4.4-0.1-5.3-0.1c-0.8,0-2.9,0.1-4.3,0.1
				c-0.4,0-0.7-0.1-0.7-0.3c0-0.2,0.1-0.3,0.5-0.3c0.5,0,0.9-0.1,1.2-0.1c0.7-0.1,0.9-0.7,1-1.7c0.2-1.4,0.2-4.1,0.2-7.5V95.8z"/>
		</g>
	</g>
</g>
<g id="Layer_3">
	<g>
		<path class="st2" d="M180.6,30.3c0.2,1.4,0.4,3.6,2.1,4.1c1.1,0.4,2.1,0.4,2.5,0.4c0.2,0,0.3,0,0.3,0.2c0,0.2-0.4,0.4-0.8,0.4
			c-0.9,0-5.1-0.1-6.5-0.2c-0.9-0.1-1.1-0.2-1.1-0.4c0-0.2,0.1-0.2,0.3-0.3c0.2,0,0.2-0.7,0.2-1.4l-1.9-20.2h-0.1L166,33.2
			c-0.8,1.7-0.9,2.1-1.3,2.1c-0.3,0-0.5-0.4-1.2-1.8c-1-1.9-4.4-8.7-4.6-9.1c-0.4-0.7-4.7-10.1-5.2-11.1h-0.2l-1.6,18.1
			c0,0.6,0,1.3,0,2c0,0.6,0.4,1.1,1,1.2c0.7,0.2,1.2,0.2,1.5,0.2c0.2,0,0.3,0.1,0.3,0.2c0,0.3-0.2,0.4-0.7,0.4
			c-1.4,0-3.3-0.1-3.6-0.1c-0.4,0-2.2,0.1-3.3,0.1c-0.4,0-0.7-0.1-0.7-0.4c0-0.1,0.2-0.2,0.4-0.2c0.3,0,0.6,0,1.2-0.1
			c1.3-0.2,1.4-1.8,1.6-3.2l2.8-25.5c0-0.4,0.2-0.7,0.4-0.7c0.2,0,0.4,0.2,0.6,0.6l12,24.6l11.5-24.5c0.2-0.4,0.3-0.6,0.6-0.6
			c0.3,0,0.4,0.3,0.5,1.1L180.6,30.3z"/>
		<path class="st2" d="M192.5,24c0,3.7,0,6.8,0.2,8.5c0.1,1.1,0.4,2,1.5,2.1c0.5,0.1,1.4,0.2,1.8,0.2c0.2,0,0.3,0.1,0.3,0.2
			c0,0.2-0.2,0.3-0.6,0.3c-2.1,0-4.6-0.1-4.8-0.1s-2.7,0.1-3.8,0.1c-0.4,0-0.6-0.1-0.6-0.3c0-0.1,0.1-0.2,0.3-0.2
			c0.4,0,0.8-0.1,1.2-0.2c0.8-0.2,1-1,1.1-2.1c0.2-1.6,0.2-4.7,0.2-8.5v-6.9c0-6.1,0-7.2-0.1-8.4c-0.1-1.3-0.5-2-1.3-2.2
			c-0.4-0.1-0.9-0.2-1.2-0.2c-0.2,0-0.3-0.1-0.3-0.2c0-0.2,0.2-0.3,0.6-0.3c1.3,0,3.8,0.1,3.9,0.1s2.7-0.1,3.8-0.1
			c0.4,0,0.6,0.1,0.6,0.3c0,0.2-0.2,0.2-0.3,0.2c-0.3,0-0.5,0-1,0.1c-1.1,0.2-1.4,0.9-1.4,2.2c-0.1,1.2-0.1,2.3-0.1,8.4V24z"/>
		<path class="st2" d="M201.4,31.6c-3.8-3.4-4.7-7.8-4.7-11.6c0-2.6,0.9-7.2,4.4-10.7c2.3-2.3,5.9-4.2,11.9-4.2
			c1.6,0,3.7,0.1,5.7,0.5c1.5,0.3,2.7,0.5,4,0.6c0.4,0,0.5,0.2,0.5,0.4c0,0.3-0.1,0.8-0.2,2.2c-0.1,1.3-0.1,3.4-0.1,4
			c0,0.6-0.1,0.8-0.4,0.8c-0.3,0-0.3-0.3-0.3-0.8c0-1.5-0.6-3.1-1.6-4c-1.4-1.2-4.4-2.2-7.8-2.2c-5.2,0-7.6,1.5-9,2.9
			c-2.9,2.7-3.5,6.2-3.5,10.2c0,7.5,5.7,14.3,14.1,14.3c2.9,0,5.2-0.4,6.8-2c0.8-0.9,1.3-2.6,1.4-3.3c0.1-0.4,0.2-0.6,0.4-0.6
			c0.2,0,0.3,0.3,0.3,0.6c0,0.3-0.5,3.7-0.9,5c-0.2,0.7-0.3,0.8-1,1.1c-1.6,0.6-4.5,0.9-7,0.9C208.4,35.9,204.5,34.4,201.4,31.6z"/>
		<path class="st2" d="M252.8,24c0,3.7,0,6.8,0.2,8.5c0.1,1.1,0.4,2,1.5,2.1c0.5,0.1,1.4,0.2,1.8,0.2c0.2,0,0.3,0.1,0.3,0.2
			c0,0.2-0.2,0.3-0.6,0.3c-2.1,0-4.6-0.1-4.8-0.1c-0.2,0-2.7,0.1-3.8,0.1c-0.4,0-0.6-0.1-0.6-0.3c0-0.1,0.1-0.2,0.3-0.2
			c0.4,0,0.8-0.1,1.2-0.2c0.8-0.2,1-1,1.1-2.1c0.2-1.6,0.2-4.7,0.2-8.5v-4.1c0-0.2-0.1-0.2-0.2-0.2h-16.6c-0.1,0-0.2,0-0.2,0.2V24
			c0,3.7,0,6.8,0.2,8.5c0.1,1.1,0.4,2,1.5,2.1c0.5,0.1,1.4,0.2,1.8,0.2c0.2,0,0.3,0.1,0.3,0.2c0,0.2-0.2,0.3-0.6,0.3
			c-2.1,0-4.6-0.1-4.8-0.1s-2.7,0.1-3.8,0.1c-0.4,0-0.6-0.1-0.6-0.3c0-0.1,0.1-0.2,0.3-0.2c0.4,0,0.8-0.1,1.2-0.2
			c0.8-0.2,1-1,1.1-2.1c0.2-1.6,0.2-4.7,0.2-8.5v-6.9c0-6.1,0-7.2-0.1-8.4c-0.1-1.3-0.4-2-1.7-2.2c-0.3-0.1-1-0.1-1.3-0.1
			c-0.2,0-0.3-0.1-0.3-0.2c0-0.2,0.2-0.3,0.6-0.3c1.8,0,4.2,0.1,4.4,0.1s2.7-0.1,3.8-0.1c0.4,0,0.6,0.1,0.6,0.3
			c0,0.2-0.2,0.2-0.3,0.2c-0.3,0-0.5,0-1,0.1c-1.1,0.2-1.4,0.9-1.4,2.2c-0.1,1.2-0.1,2.3-0.1,8.4v0.8c0,0.2,0.1,0.2,0.2,0.2h16.6
			c0.1,0,0.2,0,0.2-0.2v-0.8c0-6.1,0-7.2-0.1-8.4c-0.1-1.3-0.4-2-1.7-2.2c-0.3-0.1-1-0.1-1.3-0.1c-0.2,0-0.3-0.1-0.3-0.2
			c0-0.2,0.2-0.3,0.6-0.3c1.8,0,4.2,0.1,4.4,0.1c0.2,0,2.7-0.1,3.8-0.1c0.4,0,0.6,0.1,0.6,0.3c0,0.2-0.2,0.2-0.3,0.2
			c-0.3,0-0.5,0-1,0.1c-1.1,0.2-1.4,0.9-1.4,2.2c-0.1,1.2-0.1,2.3-0.1,8.4V24z"/>
		<path class="st2" d="M265.1,24c0,3.7,0,6.8,0.2,8.5c0.1,1.1,0.4,2,1.5,2.1c0.5,0.1,1.4,0.2,1.8,0.2c0.2,0,0.3,0.1,0.3,0.2
			c0,0.2-0.2,0.3-0.6,0.3c-2.1,0-4.6-0.1-4.8-0.1c-0.2,0-2.7,0.1-3.8,0.1c-0.4,0-0.6-0.1-0.6-0.3c0-0.1,0.1-0.2,0.3-0.2
			c0.4,0,0.8-0.1,1.2-0.2c0.8-0.2,1-1,1.1-2.1c0.2-1.6,0.2-4.7,0.2-8.5v-6.9c0-6.1,0-7.2-0.1-8.4c-0.1-1.3-0.5-2-1.3-2.2
			c-0.4-0.1-0.9-0.2-1.2-0.2c-0.2,0-0.3-0.1-0.3-0.2c0-0.2,0.2-0.3,0.6-0.3c1.3,0,3.7,0.1,3.9,0.1c0.2,0,2.7-0.1,3.8-0.1
			c0.4,0,0.6,0.1,0.6,0.3c0,0.2-0.2,0.2-0.3,0.2c-0.3,0-0.5,0-1,0.1c-1.1,0.2-1.4,0.9-1.4,2.2c-0.1,1.2-0.1,2.3-0.1,8.4V24z"/>
		<path class="st2" d="M292.9,25.4c0-3.2-0.2-3.6-1.8-4c-0.3-0.1-1-0.1-1.3-0.1c-0.2,0-0.3-0.1-0.3-0.2c0-0.2,0.2-0.3,0.6-0.3
			c1.8,0,4.2,0.1,4.4,0.1s2.7-0.1,3.8-0.1c0.4,0,0.6,0.1,0.6,0.3c0,0.2-0.2,0.2-0.3,0.2c-0.3,0-0.5,0-1,0.1
			c-1.1,0.2-1.4,0.9-1.4,2.2c-0.1,1.2-0.1,2.4-0.1,4.1V32c0,1.8,0,1.8-0.5,2.1c-2.5,1.3-6,1.8-8.3,1.8c-3,0-8.5-0.4-12.8-4.2
			c-2.4-2.1-4.6-6.2-4.6-11.1c0-6.2,3-10.7,6.5-12.8c3.5-2.2,7.4-2.5,10.4-2.5c2.5,0,5.2,0.5,6,0.7c0.8,0.2,2.2,0.4,3.2,0.4
			c0.4,0,0.5,0.2,0.5,0.4c0,0.5-0.3,1.6-0.3,5.5c0,0.6-0.1,0.8-0.4,0.8c-0.2,0-0.2-0.2-0.3-0.6c0-0.5-0.2-1.6-0.8-2.6
			c-1-1.5-4.1-3.2-9.2-3.2c-2.5,0-5.4,0.2-8.4,2.6c-2.3,1.8-3.9,5.4-3.9,9.9c0,5.5,2.8,9.5,4.1,10.8c3.1,3,6.6,4.2,10.2,4.2
			c1.4,0,3.4-0.2,4.5-0.8c0.5-0.3,0.8-0.7,0.8-1.4V25.4z"/>
		<path class="st2" d="M310.3,6.8c0.5-1.3,0.6-1.5,0.9-1.5c0.2,0,0.4,0.2,0.9,1.4c0.6,1.5,6.7,17.6,9.1,23.5
			c1.4,3.5,2.5,4.1,3.4,4.3c0.6,0.2,1.2,0.2,1.6,0.2c0.2,0,0.4,0,0.4,0.2c0,0.2-0.4,0.3-0.8,0.3c-0.6,0-3.4,0-6.1-0.1
			c-0.7,0-1.2,0-1.2-0.3c0-0.2,0.1-0.2,0.3-0.3c0.2-0.1,0.5-0.4,0.2-1.1l-3.6-9.6c-0.1-0.2-0.2-0.2-0.4-0.2h-8.4
			c-0.2,0-0.3,0.1-0.4,0.3l-2.3,6.9c-0.4,1-0.5,1.9-0.5,2.6c0,0.8,0.8,1.1,1.5,1.1h0.4c0.3,0,0.4,0.1,0.4,0.2c0,0.2-0.2,0.3-0.6,0.3
			c-0.9,0-2.6-0.1-3-0.1c-0.4,0-2.6,0.1-4.4,0.1c-0.5,0-0.7-0.1-0.7-0.3c0-0.2,0.2-0.2,0.3-0.2c0.3,0,0.8,0,1.1-0.1
			c1.8-0.2,2.6-1.7,3.3-3.7L310.3,6.8z M314.4,22.4c0.2,0,0.2-0.1,0.2-0.3l-3.7-10.5c-0.2-0.6-0.4-0.6-0.6,0l-3.4,10.5
			c-0.1,0.2,0,0.3,0.1,0.3H314.4z"/>
		<path class="st2" d="M329.7,30c0.1,3.2,0.5,4.2,1.5,4.5c0.7,0.2,1.6,0.2,2,0.2c0.2,0,0.3,0.1,0.3,0.2c0,0.2-0.2,0.3-0.7,0.3
			c-2.2,0-3.8-0.1-4.1-0.1c-0.4,0-2,0.1-3.7,0.1c-0.4,0-0.6,0-0.6-0.3c0-0.2,0.1-0.2,0.3-0.2c0.3,0,1,0,1.6-0.2c1-0.3,1.2-1.4,1.2-5
			l0-22.4c0-1.5,0.1-2,0.4-2c0.3,0,1,0.9,1.4,1.2c0.6,0.7,6.4,7,12.4,13.4c3.9,4.1,8.1,8.9,9.4,10.2l-0.4-19.8
			c0-2.5-0.3-3.4-1.5-3.7c-0.7-0.2-1.6-0.2-1.9-0.2c-0.3,0-0.3-0.1-0.3-0.3c0-0.2,0.3-0.3,0.8-0.3c1.8,0,3.6,0.1,4.1,0.1
			c0.4,0,1.7-0.1,3.3-0.1c0.4,0,0.7,0,0.7,0.3c0,0.2-0.2,0.3-0.4,0.3c-0.2,0-0.5,0-0.9,0.1c-1.3,0.3-1.4,1.1-1.4,3.5l-0.1,22.9
			c0,2.6-0.1,2.8-0.4,2.8c-0.3,0-0.8-0.4-2.9-2.5c-0.4-0.4-6.1-6.1-10.2-10.6c-4.5-4.9-8.9-9.8-10.2-11.2L329.7,30z"/>
		<path class="st2" d="M175.2,70.9c0,3.7,0,6.8,0.2,8.5c0.1,1.1,0.4,2,1.5,2.1c0.5,0.1,1.4,0.2,1.8,0.2c0.2,0,0.3,0.1,0.3,0.2
			c0,0.2-0.2,0.3-0.6,0.3c-2.1,0-4.6-0.1-4.8-0.1c-0.2,0-2.7,0.1-3.8,0.1c-0.4,0-0.6-0.1-0.6-0.3c0-0.1,0.1-0.2,0.3-0.2
			c0.4,0,0.8-0.1,1.2-0.2c0.8-0.2,1-1,1.1-2.1c0.2-1.6,0.2-4.7,0.2-8.5v-4.1c0-0.2-0.1-0.2-0.2-0.2h-16.6c-0.1,0-0.2,0-0.2,0.2v4.1
			c0,3.7,0,6.8,0.2,8.5c0.1,1.1,0.4,2,1.5,2.1c0.5,0.1,1.4,0.2,1.8,0.2c0.2,0,0.3,0.1,0.3,0.2c0,0.2-0.2,0.3-0.6,0.3
			c-2.1,0-4.6-0.1-4.8-0.1s-2.7,0.1-3.8,0.1c-0.4,0-0.6-0.1-0.6-0.3c0-0.1,0.1-0.2,0.3-0.2c0.4,0,0.8-0.1,1.2-0.2
			c0.8-0.2,1-1,1.1-2.1c0.2-1.6,0.2-4.7,0.2-8.5V64c0-6.1,0-7.2-0.1-8.4c-0.1-1.3-0.4-2-1.7-2.2c-0.3-0.1-1-0.1-1.3-0.1
			c-0.2,0-0.3-0.1-0.3-0.2c0-0.2,0.2-0.3,0.6-0.3c1.8,0,4.2,0.1,4.4,0.1s2.7-0.1,3.8-0.1c0.4,0,0.6,0.1,0.6,0.3
			c0,0.2-0.2,0.2-0.3,0.2c-0.3,0-0.5,0-1,0.1c-1.1,0.2-1.4,0.9-1.4,2.2c-0.1,1.2-0.1,2.3-0.1,8.4v0.8c0,0.2,0.1,0.2,0.2,0.2h16.6
			c0.1,0,0.2,0,0.2-0.2V64c0-6.1,0-7.2-0.1-8.4c-0.1-1.3-0.4-2-1.7-2.2c-0.3-0.1-1-0.1-1.3-0.1c-0.2,0-0.3-0.1-0.3-0.2
			c0-0.2,0.2-0.3,0.6-0.3c1.8,0,4.2,0.1,4.4,0.1c0.2,0,2.7-0.1,3.8-0.1c0.4,0,0.6,0.1,0.6,0.3c0,0.2-0.2,0.2-0.3,0.2
			c-0.3,0-0.5,0-1,0.1c-1.1,0.2-1.4,0.9-1.4,2.2c-0.1,1.2-0.1,2.3-0.1,8.4V70.9z"/>
		<path class="st2" d="M183.5,64c0-6.1,0-7.2-0.1-8.4c-0.1-1.3-0.4-2-1.7-2.2c-0.3-0.1-1-0.1-1.3-0.1c-0.2,0-0.3-0.1-0.3-0.2
			c0-0.2,0.2-0.3,0.6-0.3c0.9,0,2,0,2.8,0l1.6,0.1c0.3,0,8,0,8.9,0c0.7,0,1.4-0.1,1.7-0.2c0.2,0,0.4-0.2,0.5-0.2
			c0.1,0,0.2,0.2,0.2,0.4c0,0.3-0.2,0.7-0.3,1.8c0,0.4-0.1,2.1-0.2,2.6c0,0.2-0.1,0.4-0.3,0.4c-0.2,0-0.3-0.2-0.3-0.5
			c0-0.3,0-0.9-0.2-1.4c-0.3-0.6-0.7-1.1-2.8-1.3c-0.7-0.1-4.9-0.1-5.4-0.1c-0.2,0-0.2,0.1-0.2,0.4v10.8c0,0.3,0,0.4,0.2,0.4
			c0.5,0,5.3,0,6.2-0.1c0.9-0.1,1.5-0.2,1.8-0.5c0.3-0.3,0.4-0.5,0.6-0.5c0.1,0,0.2,0.1,0.2,0.3c0,0.2-0.2,0.9-0.3,2.2
			c-0.1,0.8-0.2,2.2-0.2,2.5c0,0.3,0,0.7-0.3,0.7c-0.2,0-0.3-0.2-0.3-0.4c0-0.4,0-0.8-0.2-1.3c-0.2-0.5-0.5-1.2-2-1.4
			c-1.1-0.1-4.9-0.2-5.6-0.2c-0.2,0-0.3,0.1-0.3,0.3v3.4c0,1.3,0,5.9,0,6.7c0.1,2.7,0.7,3.2,4.5,3.2c1,0,2.7,0,3.7-0.4
			c1-0.4,1.5-1.2,1.8-2.8c0.1-0.4,0.2-0.6,0.4-0.6c0.2,0,0.2,0.3,0.2,0.6c0,0.3-0.3,3-0.5,3.8c-0.3,1-0.6,1-2.1,1
			c-2.9,0-5.1-0.1-6.6-0.1c-1.5-0.1-2.5-0.1-3-0.1c-0.1,0-0.7,0-1.6,0c-0.8,0-1.7,0.1-2.3,0.1c-0.4,0-0.6-0.1-0.6-0.3
			c0-0.1,0.1-0.2,0.3-0.2c0.4,0,0.8-0.1,1.2-0.2c0.8-0.2,1-1,1.1-2.1c0.2-1.6,0.2-4.7,0.2-8.5V64z"/>
		<path class="st2" d="M209.6,53.6c0.5-1.3,0.6-1.5,0.9-1.5c0.2,0,0.4,0.2,0.9,1.4c0.6,1.5,6.7,17.6,9.1,23.5
			c1.4,3.5,2.5,4.1,3.4,4.3c0.6,0.2,1.2,0.2,1.6,0.2c0.2,0,0.4,0,0.4,0.2c0,0.2-0.4,0.3-0.8,0.3c-0.6,0-3.4,0-6.1-0.1
			c-0.7,0-1.2,0-1.2-0.3c0-0.2,0.1-0.2,0.3-0.3c0.2-0.1,0.5-0.4,0.2-1.1l-3.6-9.6c-0.1-0.2-0.2-0.2-0.4-0.2h-8.4
			c-0.2,0-0.3,0.1-0.4,0.3l-2.3,6.9c-0.4,1-0.5,1.9-0.5,2.6c0,0.8,0.8,1.1,1.5,1.1h0.4c0.3,0,0.4,0.1,0.4,0.2c0,0.2-0.2,0.3-0.6,0.3
			c-0.9,0-2.6-0.1-3-0.1c-0.4,0-2.6,0.1-4.4,0.1c-0.5,0-0.7-0.1-0.7-0.3c0-0.2,0.2-0.2,0.4-0.2c0.3,0,0.8,0,1.1-0.1
			c1.8-0.2,2.6-1.7,3.3-3.7L209.6,53.6z M213.7,69.3c0.2,0,0.2-0.1,0.2-0.3l-3.7-10.5c-0.2-0.6-0.4-0.6-0.6,0L206.1,69
			c-0.1,0.2,0,0.3,0.1,0.3H213.7z"/>
		<path class="st2" d="M228,64c0-6.1,0-7.2-0.1-8.4c-0.1-1.3-0.4-2-1.7-2.2c-0.3-0.1-1-0.1-1.3-0.1c-0.2,0-0.3-0.1-0.3-0.2
			c0-0.2,0.2-0.3,0.6-0.3c1.8,0,4.2,0.1,4.4,0.1c0.5,0,2.9-0.1,5.3-0.1c3.9,0,11-0.4,15.7,4.5c2,2,3.8,5.3,3.8,9.9
			c0,4.9-2,8.7-4.2,11c-1.7,1.8-5.2,4.5-11.8,4.5c-1.7,0-3.8-0.1-5.4-0.2c-1.7-0.1-3-0.2-3.2-0.2c-0.1,0-0.7,0-1.6,0
			c-0.8,0-1.7,0.1-2.3,0.1c-0.4,0-0.6-0.1-0.6-0.3c0-0.1,0.1-0.2,0.3-0.2c0.4,0,0.8-0.1,1.2-0.2c0.8-0.2,1-1,1.1-2.1
			c0.2-1.6,0.2-4.7,0.2-8.5V64z M231.2,68.2c0,4.1,0,7.7,0.1,8.5c0,1,0.1,2.5,0.4,3c0.5,0.7,2,1.6,6.6,1.6c3.6,0,7-1.3,9.3-3.6
			c2-2,3.1-5.7,3.1-9.3c0-5-2.1-8.2-3.7-9.8c-3.7-3.9-8.1-4.4-12.8-4.4c-0.8,0-2.2,0.1-2.5,0.3c-0.4,0.2-0.5,0.4-0.5,0.8
			c0,1.3,0,5.3,0,8.3V68.2z"/>
		<path class="st2" d="M264.8,74.1c0-4.6,2.9-7.6,6-9.4c-1.4-2-1.9-3.6-1.9-5.4c0-3.1,3.2-7.2,8.4-7.2c2,0,3.7,0.4,4.7,1
			c0.5,0.3,0.5,0.5,0.5,1c0,1.2-0.2,3.9-0.3,4.5c-0.1,0.6-0.2,0.7-0.4,0.7c-0.2,0-0.2-0.2-0.2-0.7c0-1-0.2-2.3-1.2-3.3
			c-0.9-0.9-2.2-1.7-3.9-1.7c-2.3,0-5,1.4-5,5.1c0,3,2.1,5.6,6.2,10c1.3,1.4,6.1,5.9,7.4,7c1.1-1.5,2-4.1,2-6.5
			c0-0.6-0.2-1.3-0.7-1.9c-0.5-0.5-1.3-0.6-1.9-0.6c-0.2,0-0.5-0.1-0.5-0.3c0-0.2,0.3-0.3,0.6-0.3c0.9,0,2.5,0,4.7,0.3
			c0.6,0.1,0.7,0.4,0.7,0.8c0,3.2-2.1,7.1-3.9,9.2c2.6,2.2,4.3,3.2,5.4,3.9c1.3,0.7,3.2,1.5,4.6,1.5c0.4,0,0.5,0,0.5,0.3
			c0,0.2-0.3,0.3-0.7,0.3h-3.8c-2.9,0-3.8-0.3-8.1-3.7c-0.9,0.9-4,4.2-9.8,4.2C267.4,82.7,264.8,77.5,264.8,74.1z M283,77.8
			c-2.2-1.8-6.1-5.5-7.1-6.6c-1-1.1-3.5-3.9-4.6-5.5c-2,1.3-3.5,3.4-3.5,6.6c0,4.9,3.4,8.4,7.8,8.4C279.3,80.7,281.7,79.1,283,77.8z
			"/>
		<path class="st2" d="M303.5,81.7c-0.5-0.3-0.6-0.4-0.6-1.5c0-2,0.2-3.5,0.2-4.1c0-0.4,0.1-0.6,0.3-0.6c0.2,0,0.3,0.1,0.3,0.4
			c0,0.4,0,0.9,0.1,1.4c0.6,2.9,3.2,4,5.8,4c3.7,0,5.6-2.7,5.6-5.2c0-2.7-1.1-4.3-4.5-7l-1.8-1.4c-4.1-3.4-5.1-5.8-5.1-8.5
			c0-4.2,3.1-7,8.1-7c1.5,0,2.7,0.2,3.6,0.4c0.7,0.2,1.1,0.2,1.4,0.2c0.3,0,0.4,0.1,0.4,0.3s-0.2,1.5-0.2,4.1c0,0.6-0.1,0.9-0.3,0.9
			c-0.2,0-0.3-0.2-0.3-0.5c0-0.5-0.3-1.5-0.5-2c-0.2-0.4-1.3-2.1-4.9-2.1c-2.7,0-4.8,1.7-4.8,4.5c0,2.2,1,3.6,4.8,6.6l1.1,0.9
			c4.6,3.6,5.7,6.1,5.7,9.2c0,1.6-0.6,4.6-3.3,6.5c-1.7,1.2-3.8,1.6-5.9,1.6C306.9,82.7,305.1,82.5,303.5,81.7z"/>
		<path class="st2" d="M324.9,64c0-6.1,0-7.2-0.1-8.4c-0.1-1.3-0.4-2-1.7-2.2c-0.3-0.1-1-0.1-1.3-0.1c-0.2,0-0.3-0.1-0.3-0.2
			c0-0.2,0.2-0.3,0.6-0.3c1.8,0,4.1,0.1,4.4,0.1c0.9,0,3.1-0.1,4.9-0.1c4.9,0,6.6,1.6,7.3,2.2c0.9,0.8,2,2.6,2,4.6
			c0,5.5-4.1,9.3-9.6,9.3c-0.2,0-0.6,0-0.8,0c-0.2,0-0.4-0.1-0.4-0.3c0-0.3,0.2-0.4,1.1-0.4c3.8,0,6.8-2.8,6.8-6.4
			c0-1.3-0.1-3.9-2.2-6c-2.1-2.1-4.5-2-5.4-2c-0.7,0-1.3,0.1-1.7,0.2c-0.2,0.1-0.3,0.4-0.3,0.7v16.1c0,3.7,0,6.8,0.2,8.5
			c0.1,1.1,0.4,2,1.5,2.1c0.5,0.1,1.4,0.2,1.8,0.2c0.2,0,0.3,0.1,0.3,0.2c0,0.2-0.2,0.3-0.6,0.3c-2.1,0-4.6-0.1-4.8-0.1
			c-0.1,0-2.6,0.1-3.7,0.1c-0.4,0-0.6-0.1-0.6-0.3c0-0.1,0.1-0.2,0.3-0.2c0.4,0,0.8-0.1,1.2-0.2c0.8-0.2,1-1,1.1-2.1
			c0.2-1.6,0.2-4.7,0.2-8.5V64z"/>
		<path class="st2" d="M349.3,70.9c0,3.7,0,6.8,0.2,8.5c0.1,1.1,0.4,2,1.5,2.1c0.5,0.1,1.4,0.2,1.8,0.2c0.2,0,0.3,0.1,0.3,0.2
			c0,0.2-0.2,0.3-0.6,0.3c-2.1,0-4.6-0.1-4.8-0.1c-0.2,0-2.7,0.1-3.8,0.1c-0.4,0-0.6-0.1-0.6-0.3c0-0.1,0.1-0.2,0.3-0.2
			c0.4,0,0.8-0.1,1.2-0.2c0.8-0.2,1-1,1.1-2.1c0.2-1.6,0.2-4.7,0.2-8.5V64c0-6.1,0-7.2-0.1-8.4c-0.1-1.3-0.5-2-1.3-2.2
			c-0.4-0.1-0.9-0.2-1.2-0.2c-0.2,0-0.3-0.1-0.3-0.2c0-0.2,0.2-0.3,0.6-0.3c1.3,0,3.8,0.1,3.9,0.1c0.2,0,2.7-0.1,3.8-0.1
			c0.4,0,0.6,0.1,0.6,0.3c0,0.2-0.2,0.2-0.3,0.2c-0.3,0-0.5,0-1,0.1c-1.1,0.2-1.4,0.9-1.4,2.2c-0.1,1.2-0.1,2.3-0.1,8.4V70.9z"/>
		<path class="st2" d="M360.2,76.9c0.1,3.2,0.5,4.2,1.5,4.5c0.7,0.2,1.6,0.2,2,0.2c0.2,0,0.3,0.1,0.3,0.2c0,0.2-0.2,0.3-0.7,0.3
			c-2.2,0-3.8-0.1-4.1-0.1c-0.4,0-2,0.1-3.7,0.1c-0.4,0-0.6,0-0.6-0.3c0-0.2,0.1-0.2,0.3-0.2c0.3,0,1,0,1.6-0.2c1-0.3,1.2-1.4,1.2-5
			l0-22.4c0-1.5,0.1-2,0.4-2c0.3,0,1,0.9,1.4,1.2c0.6,0.7,6.4,7,12.4,13.4c3.9,4.1,8.1,8.9,9.4,10.2L381,57.1c0-2.5-0.3-3.4-1.5-3.7
			c-0.7-0.2-1.6-0.2-1.9-0.2c-0.3,0-0.3-0.1-0.3-0.3c0-0.2,0.3-0.3,0.8-0.3c1.8,0,3.6,0.1,4.1,0.1c0.4,0,1.7-0.1,3.3-0.1
			c0.4,0,0.7,0,0.7,0.3c0,0.2-0.2,0.3-0.4,0.3c-0.2,0-0.5,0-0.9,0.1c-1.3,0.3-1.4,1.1-1.4,3.5l-0.1,22.9c0,2.6-0.1,2.8-0.4,2.8
			c-0.3,0-0.8-0.4-2.8-2.5c-0.4-0.4-6.1-6.1-10.2-10.6c-4.5-4.9-8.9-9.8-10.2-11.2L360.2,76.9z"/>
		<path class="st2" d="M391.8,64c0-6.1,0-7.2-0.1-8.4c-0.1-1.3-0.4-2-1.7-2.2c-0.3-0.1-1-0.1-1.3-0.1c-0.2,0-0.3-0.1-0.3-0.2
			c0-0.2,0.2-0.3,0.6-0.3c0.9,0,2,0,2.8,0l1.6,0.1c0.3,0,8,0,8.9,0c0.7,0,1.4-0.1,1.7-0.2c0.2,0,0.4-0.2,0.5-0.2
			c0.1,0,0.2,0.2,0.2,0.4c0,0.3-0.2,0.7-0.3,1.8c0,0.4-0.1,2.1-0.2,2.6c0,0.2-0.1,0.4-0.3,0.4c-0.2,0-0.3-0.2-0.3-0.5
			c0-0.3,0-0.9-0.2-1.4c-0.3-0.6-0.7-1.1-2.8-1.3c-0.7-0.1-4.9-0.1-5.3-0.1c-0.2,0-0.2,0.1-0.2,0.4v10.8c0,0.3,0,0.4,0.2,0.4
			c0.5,0,5.3,0,6.2-0.1c0.9-0.1,1.5-0.2,1.8-0.5c0.3-0.3,0.4-0.5,0.6-0.5c0.1,0,0.2,0.1,0.2,0.3c0,0.2-0.2,0.9-0.3,2.2
			c-0.1,0.8-0.2,2.2-0.2,2.5c0,0.3,0,0.7-0.3,0.7c-0.2,0-0.3-0.2-0.3-0.4c0-0.4,0-0.8-0.2-1.3c-0.2-0.5-0.5-1.2-2-1.4
			c-1.1-0.1-4.9-0.2-5.6-0.2c-0.2,0-0.3,0.1-0.3,0.3v3.4c0,1.3,0,5.9,0,6.7c0.1,2.7,0.7,3.2,4.5,3.2c1,0,2.7,0,3.8-0.4
			c1-0.4,1.5-1.2,1.8-2.8c0.1-0.4,0.2-0.6,0.4-0.6c0.2,0,0.2,0.3,0.2,0.6c0,0.3-0.3,3-0.5,3.8c-0.3,1-0.6,1-2.1,1
			c-2.9,0-5.1-0.1-6.6-0.1c-1.5-0.1-2.5-0.1-3-0.1c-0.1,0-0.7,0-1.6,0c-0.8,0-1.7,0.1-2.3,0.1c-0.4,0-0.6-0.1-0.6-0.3
			c0-0.1,0.1-0.2,0.3-0.2c0.4,0,0.8-0.1,1.2-0.2c0.8-0.2,1-1,1.1-2.1c0.2-1.6,0.2-4.7,0.2-8.5V64z"/>
		<path class="st2" d="M154.8,117.7c0,3.8,0,6.8,0.2,8.5c0.1,1.1,0.4,2,1.5,2.1c0.5,0.1,1.4,0.2,1.8,0.2c0.2,0,0.3,0.1,0.3,0.2
			c0,0.2-0.2,0.3-0.6,0.3c-2.1,0-4.6-0.1-4.8-0.1s-2.7,0.1-3.8,0.1c-0.4,0-0.6-0.1-0.6-0.3c0-0.1,0.1-0.2,0.3-0.2
			c0.4,0,0.8-0.1,1.2-0.2c0.8-0.2,1-1,1.1-2.1c0.2-1.6,0.2-4.7,0.2-8.5v-6.9c0-6.1,0-7.2-0.1-8.4c-0.1-1.3-0.5-2-1.3-2.2
			c-0.4-0.1-0.9-0.2-1.2-0.2c-0.2,0-0.3-0.1-0.3-0.2c0-0.2,0.2-0.3,0.6-0.3c1.3,0,3.7,0.1,3.9,0.1s2.7-0.1,3.8-0.1
			c0.4,0,0.6,0.1,0.6,0.3c0,0.2-0.2,0.2-0.3,0.2c-0.3,0-0.5,0-1,0.1c-1.1,0.2-1.4,0.9-1.4,2.2c-0.1,1.2-0.1,2.3-0.1,8.4V117.7z"/>
		<path class="st2" d="M167.3,123.8c0.1,3.2,0.5,4.2,1.5,4.5c0.7,0.2,1.6,0.2,2,0.2c0.2,0,0.3,0.1,0.3,0.2c0,0.2-0.2,0.3-0.7,0.3
			c-2.2,0-3.8-0.1-4.1-0.1c-0.4,0-2,0.1-3.8,0.1c-0.4,0-0.6,0-0.6-0.3c0-0.2,0.1-0.2,0.3-0.2c0.3,0,1,0,1.6-0.2c1-0.3,1.2-1.4,1.2-5
			l0-22.4c0-1.5,0.1-2,0.4-2s1,0.9,1.4,1.2c0.6,0.7,6.4,7,12.4,13.4c3.9,4.1,8.1,8.9,9.4,10.2l-0.4-19.8c0-2.5-0.3-3.4-1.5-3.7
			c-0.7-0.2-1.6-0.2-1.9-0.2c-0.3,0-0.3-0.1-0.3-0.3c0-0.2,0.3-0.3,0.8-0.3c1.8,0,3.6,0.1,4.1,0.1c0.4,0,1.7-0.1,3.3-0.1
			c0.4,0,0.7,0,0.7,0.3c0,0.2-0.2,0.3-0.4,0.3c-0.2,0-0.5,0-0.9,0.1c-1.3,0.3-1.4,1.1-1.4,3.5l-0.1,22.9c0,2.6-0.1,2.8-0.4,2.8
			c-0.3,0-0.8-0.4-2.9-2.5c-0.4-0.4-6.1-6.1-10.2-10.6c-4.5-4.9-8.9-9.8-10.2-11.2L167.3,123.8z"/>
		<path class="st2" d="M196.5,128.6c-0.5-0.3-0.6-0.4-0.6-1.5c0-2,0.2-3.5,0.2-4.1c0-0.4,0.1-0.6,0.3-0.6c0.2,0,0.3,0.1,0.3,0.4
			c0,0.3,0,0.9,0.1,1.4c0.6,2.9,3.2,4,5.8,4c3.7,0,5.6-2.7,5.6-5.2c0-2.7-1.1-4.3-4.5-7l-1.8-1.4c-4.1-3.4-5.1-5.8-5.1-8.5
			c0-4.2,3.1-7,8.1-7c1.5,0,2.7,0.2,3.6,0.4c0.7,0.2,1.1,0.2,1.4,0.2s0.4,0.1,0.4,0.3s-0.2,1.5-0.2,4.1c0,0.6-0.1,0.9-0.3,0.9
			c-0.2,0-0.3-0.2-0.3-0.5c0-0.5-0.3-1.5-0.5-2c-0.2-0.4-1.3-2.1-4.9-2.1c-2.7,0-4.8,1.7-4.8,4.5c0,2.2,1,3.6,4.8,6.6l1.1,0.9
			c4.6,3.6,5.7,6.1,5.7,9.2c0,1.6-0.6,4.6-3.3,6.5c-1.7,1.2-3.8,1.6-5.9,1.6C199.9,129.6,198.1,129.3,196.5,128.6z"/>
		<path class="st2" d="M227,117.7c0,3.8,0,6.8,0.2,8.5c0.1,1.1,0.4,2,1.5,2.1c0.5,0.1,1.4,0.2,1.8,0.2c0.2,0,0.3,0.1,0.3,0.2
			c0,0.2-0.2,0.3-0.6,0.3c-2.1,0-4.6-0.1-4.8-0.1s-2.7,0.1-3.8,0.1c-0.4,0-0.6-0.1-0.6-0.3c0-0.1,0.1-0.2,0.3-0.2
			c0.4,0,0.8-0.1,1.2-0.2c0.8-0.2,1-1,1.1-2.1c0.2-1.6,0.2-4.7,0.2-8.5v-16.5l-5.8,0.1c-2.4,0-3.4,0.3-4,1.2
			c-0.4,0.7-0.5,0.9-0.7,1.2c-0.1,0.3-0.2,0.4-0.4,0.4c-0.1,0-0.2-0.1-0.2-0.4c0-0.4,0.8-3.7,0.9-4.1c0.1-0.2,0.2-0.7,0.4-0.7
			c0.3,0,0.7,0.4,1.7,0.5c1.1,0.1,2.6,0.2,3.1,0.2h14.6c1.2,0,2.1-0.1,2.8-0.2c0.6-0.1,0.9-0.2,1.1-0.2c0.2,0,0.2,0.2,0.2,0.5
			c0,1.2-0.1,3.9-0.1,4.3c0,0.4-0.1,0.5-0.3,0.5c-0.2,0-0.3-0.1-0.3-0.7l0-0.4c-0.1-1.2-1.1-2.1-4.8-2.1l-4.9-0.1V117.7z"/>
		<path class="st2" d="M246.4,117.7c0,3.8,0,6.8,0.2,8.5c0.1,1.1,0.4,2,1.5,2.1c0.5,0.1,1.4,0.2,1.8,0.2c0.2,0,0.3,0.1,0.3,0.2
			c0,0.2-0.2,0.3-0.6,0.3c-2.1,0-4.6-0.1-4.8-0.1s-2.7,0.1-3.8,0.1c-0.4,0-0.6-0.1-0.6-0.3c0-0.1,0.1-0.2,0.3-0.2
			c0.4,0,0.8-0.1,1.2-0.2c0.8-0.2,1-1,1.1-2.1c0.2-1.6,0.2-4.7,0.2-8.5v-6.9c0-6.1,0-7.2-0.1-8.4c-0.1-1.3-0.5-2-1.3-2.2
			c-0.4-0.1-0.9-0.2-1.2-0.2c-0.2,0-0.3-0.1-0.3-0.2c0-0.2,0.2-0.3,0.6-0.3c1.3,0,3.8,0.1,3.9,0.1s2.7-0.1,3.8-0.1
			c0.4,0,0.6,0.1,0.6,0.3c0,0.2-0.2,0.2-0.3,0.2c-0.3,0-0.5,0-1,0.1c-1.1,0.2-1.4,0.9-1.4,2.2c-0.1,1.2-0.1,2.3-0.1,8.4V117.7z"/>
		<path class="st2" d="M266.1,117.7c0,3.8,0,6.8,0.2,8.5c0.1,1.1,0.3,2,1.5,2.1c0.5,0.1,1.4,0.2,1.8,0.2c0.2,0,0.3,0.1,0.3,0.2
			c0,0.2-0.2,0.3-0.6,0.3c-2.1,0-4.6-0.1-4.8-0.1c-0.2,0-2.7,0.1-3.8,0.1c-0.4,0-0.6-0.1-0.6-0.3c0-0.1,0.1-0.2,0.3-0.2
			c0.4,0,0.8-0.1,1.2-0.2c0.8-0.2,1-1,1.1-2.1c0.2-1.6,0.2-4.7,0.2-8.5v-16.5l-5.8,0.1c-2.4,0-3.4,0.3-4,1.2
			c-0.4,0.7-0.5,0.9-0.7,1.2c-0.1,0.3-0.2,0.4-0.4,0.4c-0.1,0-0.2-0.1-0.2-0.4c0-0.4,0.8-3.7,0.9-4.1c0.1-0.2,0.2-0.7,0.4-0.7
			c0.3,0,0.7,0.4,1.7,0.5c1.1,0.1,2.6,0.2,3.1,0.2h14.6c1.2,0,2.1-0.1,2.8-0.2c0.6-0.1,0.9-0.2,1.1-0.2c0.2,0,0.2,0.2,0.2,0.5
			c0,1.2-0.1,3.9-0.1,4.3c0,0.4-0.1,0.5-0.3,0.5c-0.2,0-0.3-0.1-0.3-0.7l0-0.4c-0.1-1.2-1.1-2.1-4.8-2.1l-4.9-0.1V117.7z"/>
		<path class="st2" d="M280.5,110.9c0-6.1,0-7.2-0.1-8.4c-0.1-1.3-0.4-2-1.7-2.2c-0.3-0.1-1-0.1-1.3-0.1c-0.2,0-0.3-0.1-0.3-0.2
			c0-0.2,0.2-0.3,0.6-0.3c1.8,0,4.1,0.1,4.5,0.1c0.4,0,2.7-0.1,3.9-0.1c0.4,0,0.6,0.1,0.6,0.3c0,0.2-0.2,0.2-0.3,0.2
			c-0.3,0-0.5,0-1,0.1c-1.1,0.2-1.4,0.9-1.4,2.2c-0.1,1.2-0.1,2.3-0.1,8.4v5.5c0,5.6,1.2,8,2.9,9.6c1.9,1.8,3.7,2.1,5.9,2.1
			c2.4,0,4.7-1.1,6.1-2.8c1.8-2.2,2.3-5.5,2.3-9.6v-4.9c0-6.1,0-7.2-0.1-8.4c-0.1-1.3-0.4-2-1.7-2.2c-0.3-0.1-1-0.1-1.3-0.1
			c-0.2,0-0.3-0.1-0.3-0.2c0-0.2,0.2-0.3,0.6-0.3c1.8,0,3.9,0.1,4.1,0.1c0.3,0,2.1-0.1,3.3-0.1c0.4,0,0.6,0.1,0.6,0.3
			c0,0.2-0.2,0.2-0.3,0.2c-0.3,0-0.5,0-1,0.1c-1.1,0.2-1.4,0.9-1.4,2.2c-0.1,1.2-0.1,2.3-0.1,8.4v4.2c0,4.2-0.5,8.9-3.6,11.7
			c-2.8,2.5-5.7,2.9-8,2.9c-1.3,0-5.3-0.2-8-2.8c-1.9-1.8-3.4-4.6-3.4-10.3V110.9z"/>
		<path class="st2" d="M321.4,117.7c0,3.8,0,6.8,0.2,8.5c0.1,1.1,0.4,2,1.5,2.1c0.5,0.1,1.4,0.2,1.8,0.2c0.2,0,0.3,0.1,0.3,0.2
			c0,0.2-0.2,0.3-0.6,0.3c-2.1,0-4.6-0.1-4.8-0.1c-0.2,0-2.7,0.1-3.8,0.1c-0.4,0-0.6-0.1-0.6-0.3c0-0.1,0.1-0.2,0.3-0.2
			c0.4,0,0.8-0.1,1.2-0.2c0.8-0.2,1-1,1.1-2.1c0.2-1.6,0.2-4.7,0.2-8.5v-16.5l-5.8,0.1c-2.4,0-3.4,0.3-4,1.2
			c-0.4,0.7-0.5,0.9-0.7,1.2c-0.1,0.3-0.2,0.4-0.4,0.4c-0.1,0-0.2-0.1-0.2-0.4c0-0.4,0.8-3.7,0.9-4.1c0.1-0.2,0.2-0.7,0.4-0.7
			c0.3,0,0.7,0.4,1.7,0.5c1.1,0.1,2.6,0.2,3.1,0.2h14.6c1.2,0,2.1-0.1,2.8-0.2c0.6-0.1,0.9-0.2,1.1-0.2c0.2,0,0.2,0.2,0.2,0.5
			c0,1.2-0.1,3.9-0.1,4.3c0,0.4-0.1,0.5-0.3,0.5c-0.2,0-0.3-0.1-0.3-0.7l0-0.4c-0.1-1.2-1.1-2.1-4.8-2.1l-4.9-0.1V117.7z"/>
		<path class="st2" d="M337.5,110.9c0-6.1,0-7.2-0.1-8.4c-0.1-1.3-0.4-2-1.7-2.2c-0.3-0.1-1-0.1-1.3-0.1c-0.2,0-0.3-0.1-0.3-0.2
			c0-0.2,0.2-0.3,0.6-0.3c0.9,0,2,0,2.8,0l1.6,0.1c0.3,0,8,0,8.9,0c0.7,0,1.4-0.1,1.7-0.2c0.2,0,0.4-0.2,0.5-0.2
			c0.1,0,0.2,0.2,0.2,0.4c0,0.3-0.2,0.7-0.3,1.8c0,0.4-0.1,2.1-0.2,2.6c0,0.2-0.1,0.4-0.3,0.4c-0.2,0-0.3-0.2-0.3-0.5
			c0-0.3,0-0.9-0.2-1.4c-0.3-0.6-0.7-1.1-2.8-1.3c-0.7-0.1-4.9-0.1-5.4-0.1c-0.2,0-0.2,0.1-0.2,0.4v10.8c0,0.3,0,0.4,0.2,0.4
			c0.5,0,5.3,0,6.2-0.1c0.9-0.1,1.5-0.2,1.8-0.5c0.3-0.3,0.4-0.5,0.6-0.5c0.1,0,0.2,0.1,0.2,0.3c0,0.2-0.2,0.9-0.3,2.2
			c-0.1,0.8-0.2,2.2-0.2,2.5c0,0.3,0,0.7-0.3,0.7c-0.2,0-0.3-0.2-0.3-0.4c0-0.4,0-0.8-0.2-1.3c-0.2-0.5-0.5-1.2-2-1.4
			c-1.1-0.1-4.9-0.2-5.6-0.2c-0.2,0-0.3,0.1-0.3,0.3v3.4c0,1.3,0,5.9,0,6.7c0.1,2.7,0.7,3.2,4.5,3.2c1,0,2.7,0,3.8-0.4
			c1-0.4,1.5-1.2,1.8-2.8c0.1-0.4,0.2-0.6,0.4-0.6c0.2,0,0.2,0.3,0.2,0.6c0,0.3-0.3,3-0.5,3.8c-0.3,1-0.6,1-2.1,1
			c-2.9,0-5.1-0.1-6.6-0.1c-1.5-0.1-2.5-0.1-3-0.1c-0.1,0-0.7,0-1.6,0c-0.8,0-1.7,0.1-2.3,0.1c-0.4,0-0.6-0.1-0.6-0.3
			c0-0.1,0.1-0.2,0.3-0.2c0.4,0,0.8-0.1,1.2-0.2c0.8-0.2,1-1,1.1-2.1c0.2-1.6,0.2-4.7,0.2-8.5V110.9z"/>
	</g>
	<g>
		<path d="M8,154.7l3.6,10.1h0v-10.1h2.7v14.8H11l-3.6-10.4h0v10.4H4.6v-14.8H8z"/>
		<path d="M18.6,164.4v0.9c0,1.3,0.4,2.6,1.4,2.6c1,0,1.3-0.7,1.5-2.1h2.6c-0.1,2.6-1.3,4-4,4c-4.1,0-4.3-3.2-4.3-6
			c0-3,0.6-5.8,4.4-5.8c3.3,0,4.1,2.2,4.1,5.7v0.6H18.6z M21.5,162.7c-0.1-1.7-0.3-2.7-1.4-2.7c-1.1,0-1.5,1.2-1.5,2.2v0.4H21.5z"/>
		<path d="M31.2,168.2L31.2,168.2c-0.6,1.1-1.7,1.6-2.9,1.6c-1.8,0-2.8-1-2.8-3.2v-8.3h2.9v7.7c0,1.1,0.4,1.6,1.2,1.6
			c1,0,1.5-0.6,1.5-1.8v-7.4h2.9v11.1h-2.7V168.2z"/>
		<path d="M35.6,158.4h2.7v1.5h0c0.6-1.1,1.4-1.8,2.6-1.8c0.2,0,0.4,0,0.5,0v2.7c-0.3,0-0.6,0-0.9,0c-1,0-2.1,0.5-2.1,2v6.7h-2.9
			V158.4z"/>
		<path d="M46.2,158.1c3.4-0.1,4.4,2,4.4,5.9c0,3.8-1.1,5.9-4.4,5.9c-3.4,0.1-4.4-2-4.4-5.9C41.8,160.1,43,158.1,46.2,158.1z
			 M46.2,167.9c1.2,0,1.5-1.1,1.5-3.9c0-2.8-0.4-3.9-1.5-3.9c-1.4,0-1.5,1.6-1.5,3.9C44.7,166.2,44.8,167.9,46.2,167.9z"/>
		<path d="M54,165.9v0.4c0,1,0.5,1.6,1.5,1.6c0.9,0,1.4-0.4,1.4-1.3c0-0.7-0.5-1.1-1-1.3l-2-0.7c-1.6-0.6-2.4-1.5-2.4-3.1
			c0-1.8,1.2-3.4,4.1-3.4c2.6,0,3.8,1.2,3.8,3.2v0.5h-2.6c0-1.1-0.3-1.7-1.3-1.7c-0.7,0-1.3,0.4-1.3,1.2c0,0.5,0.3,1,1.2,1.3
			l1.7,0.6c1.8,0.6,2.5,1.5,2.5,3.2c0,2.3-1.7,3.5-4.1,3.5c-3.2,0-4.1-1.4-4.1-3.5v-0.4H54z"/>
		<path d="M66.6,168.2L66.6,168.2c-0.6,1.1-1.7,1.6-2.9,1.6c-1.8,0-2.8-1-2.8-3.2v-8.3h2.9v7.7c0,1.1,0.4,1.6,1.2,1.6
			c1,0,1.5-0.6,1.5-1.8v-7.4h2.9v11.1h-2.7V168.2z"/>
		<path d="M71,158.4h2.7v1.5h0c0.6-1.1,1.4-1.8,2.6-1.8c0.2,0,0.4,0,0.5,0v2.7c-0.3,0-0.6,0-0.9,0c-1,0-2.1,0.5-2.1,2v6.7H71V158.4z
			"/>
		<path d="M85.9,158.4V169c0,2.9-1.3,4.4-4.6,4.4c-2.4,0-3.8-1.1-3.8-3h2.7c0,0.4,0.2,0.7,0.4,0.8c0.3,0.2,0.6,0.3,1,0.3
			c1.2,0,1.6-0.9,1.6-2V168h0c-0.6,0.8-1.5,1.4-2.4,1.4c-2.3,0-3.4-1.6-3.4-5.6c0-2.6,0.4-5.7,3.5-5.7c0.8,0,1.8,0.4,2.3,1.5h0v-1.2
			H85.9z M81.7,167.2c1.2,0,1.6-1.3,1.6-3.2c0-2.7-0.4-3.7-1.5-3.7c-1.3,0-1.5,1-1.5,4C80.2,165.8,80.5,167.2,81.7,167.2z"/>
		<path d="M90.1,164.4v0.9c0,1.3,0.4,2.6,1.4,2.6c1,0,1.3-0.7,1.5-2.1h2.6c-0.1,2.6-1.3,4-4,4c-4.1,0-4.3-3.2-4.3-6
			c0-3,0.6-5.8,4.4-5.8c3.3,0,4.1,2.2,4.1,5.7v0.6H90.1z M93.1,162.7c-0.1-1.7-0.3-2.7-1.4-2.7c-1.1,0-1.5,1.2-1.5,2.2v0.4H93.1z"/>
		<path d="M97,158.4h2.7v1.5h0c0.6-1.1,1.4-1.8,2.6-1.8c0.2,0,0.4,0,0.5,0v2.7c-0.3,0-0.6,0-0.9,0c-1,0-2.1,0.5-2.1,2v6.7H97V158.4z
			"/>
		<path d="M104,171c0.2,0,0.5,0.1,0.7,0.1c1.1,0,1.4-0.6,1.5-1.6l-3.1-11.1h3l1.7,7.7h0l1.4-7.7h2.9l-2.7,10.4
			c-1,3.9-1.6,4.4-4.3,4.4H104V171z"/>
		<path class="st1" d="M121.9,158.4c2,0,3.7,1.7,3.7,3.7c0,2-1.7,3.7-3.7,3.7c-2,0-3.7-1.7-3.7-3.7
			C118.2,160.1,119.9,158.4,121.9,158.4z"/>
		<path d="M132.6,154.7h5.2c3,0,4.1,2.2,4.1,4.4c0,3.1-1.9,4.5-4.7,4.5h-1.6v5.9h-3V154.7z M135.6,161.4h1.3c1.2,0,2-0.7,2-2.2
			c0-1.4-0.6-2.3-2.1-2.3h-1.2V161.4z"/>
		<path d="M143,154.7h2.9v4.8h0c0.5-1,1.5-1.4,2.7-1.4c1.8,0,2.8,1,2.8,3.2v8.3h-2.9v-7.7c0-1.1-0.4-1.6-1.2-1.6
			c-1,0-1.5,0.6-1.5,1.8v7.4H143V154.7z"/>
		<path d="M153.1,171c0.2,0,0.5,0.1,0.7,0.1c1.1,0,1.4-0.6,1.5-1.6l-3.1-11.1h3l1.7,7.7h0l1.4-7.7h2.9l-2.7,10.4
			c-1,3.9-1.6,4.4-4.3,4.4h-1.2V171z"/>
		<path d="M164.2,165.9v0.4c0,1,0.5,1.6,1.5,1.6c0.9,0,1.5-0.4,1.5-1.3c0-0.7-0.5-1.1-1-1.3l-2-0.7c-1.6-0.6-2.4-1.5-2.4-3.1
			c0-1.8,1.2-3.4,4.1-3.4c2.6,0,3.8,1.2,3.8,3.2v0.5H167c0-1.1-0.3-1.7-1.3-1.7c-0.7,0-1.3,0.4-1.3,1.2c0,0.5,0.3,1,1.2,1.3l1.7,0.6
			c1.8,0.6,2.5,1.5,2.5,3.2c0,2.3-1.7,3.5-4.1,3.5c-3.2,0-4.1-1.4-4.1-3.5v-0.4H164.2z"/>
		<path d="M171.1,154.6h2.9v2.4h-2.9V154.6z M171.1,158.4h2.9v11.1h-2.9V158.4z"/>
		<path d="M181.1,162.4c0-1.1-0.2-2.2-1.3-2.2c-1.4,0-1.6,1.2-1.6,3.8c0,2.8,0.2,3.9,1.5,3.9c1,0,1.4-0.8,1.4-2.6h2.7
			c0,2.9-1.2,4.6-4.2,4.6c-2.9,0-4.3-1.4-4.3-5.9c0-4.6,1.9-5.9,4.5-5.9c2.6,0,4,1.7,4,4.3H181.1z"/>
		<path d="M185,161.8v-0.3c0-2.6,1.8-3.4,3.9-3.4c3.4,0,4,1.4,4,3.4v5.9c0,1,0.1,1.5,0.4,2.2h-2.7c-0.2-0.4-0.3-0.8-0.4-1.2h0
			c-0.7,1.2-1.5,1.4-2.8,1.4c-2,0-2.7-1.7-2.7-3.2c0-2.1,0.8-2.9,2.8-3.5l1.6-0.4c0.8-0.2,1.1-0.6,1.1-1.3c0-0.8-0.4-1.4-1.3-1.4
			c-0.9,0-1.3,0.6-1.3,1.4v0.3H185z M190.3,164c-0.4,0.3-0.9,0.5-1.2,0.6c-1.2,0.2-1.6,0.8-1.6,1.8c0,0.8,0.3,1.6,1.1,1.6
			c0.8,0,1.8-0.5,1.8-1.7V164z"/>
		<path d="M194.9,154.7h2.9v14.8h-2.9V154.7z"/>
		<path d="M204.4,154.7h4.4l2.1,10.4h0l2.1-10.4h4.4v14.8h-2.7v-11.8h0l-2.6,11.8h-2.3l-2.6-11.8h0v11.8h-2.7V154.7z"/>
		<path d="M221.7,164.4v0.9c0,1.3,0.4,2.6,1.4,2.6c1,0,1.3-0.7,1.5-2.1h2.6c-0.1,2.6-1.3,4-4,4c-4.1,0-4.3-3.2-4.3-6
			c0-3,0.6-5.8,4.4-5.8c3.3,0,4.1,2.2,4.1,5.7v0.6H221.7z M224.6,162.7c-0.1-1.7-0.3-2.7-1.4-2.7c-1.1,0-1.5,1.2-1.5,2.2v0.4H224.6z
			"/>
		<path d="M234.3,168.3L234.3,168.3c-0.7,1-1.4,1.5-2.6,1.5c-2.3,0-3.4-1.7-3.4-5.9c0-4.1,1.1-5.9,3.4-5.9c1.1,0,1.8,0.4,2.4,1.3h0
			v-4.7h2.9v14.8h-2.7V168.3z M232.7,167.6c1.3,0,1.5-1.2,1.5-3.7c0-2.4-0.2-3.7-1.5-3.7c-1.2,0-1.5,1.2-1.5,3.7
			C231.2,166.4,231.5,167.6,232.7,167.6z"/>
		<path d="M238.8,154.6h2.9v2.4h-2.9V154.6z M238.8,158.4h2.9v11.1h-2.9V158.4z"/>
		<path d="M248.8,162.4c0-1.1-0.2-2.2-1.3-2.2c-1.4,0-1.6,1.2-1.6,3.8c0,2.8,0.2,3.9,1.5,3.9c1,0,1.4-0.8,1.4-2.6h2.7
			c0,2.9-1.2,4.6-4.2,4.6c-2.9,0-4.3-1.4-4.3-5.9c0-4.6,1.9-5.9,4.5-5.9c2.6,0,4,1.7,4,4.3H248.8z"/>
		<path d="M252.9,154.6h2.9v2.4h-2.9V154.6z M252.9,158.4h2.9v11.1h-2.9V158.4z"/>
		<path d="M257.5,158.4h2.7v1.3h0c0.6-1.1,1.6-1.6,2.8-1.6c1.8,0,2.8,1,2.8,3.2v8.3h-2.9v-7.7c0-1.1-0.4-1.6-1.2-1.6
			c-1,0-1.5,0.6-1.5,1.8v7.4h-2.9V158.4z"/>
		<path d="M270,164.4v0.9c0,1.3,0.4,2.6,1.4,2.6c1,0,1.3-0.7,1.5-2.1h2.6c-0.1,2.6-1.3,4-4,4c-4.1,0-4.3-3.2-4.3-6
			c0-3,0.6-5.8,4.4-5.8c3.3,0,4.1,2.2,4.1,5.7v0.6H270z M273,162.7c-0.1-1.7-0.3-2.7-1.4-2.7c-1.1,0-1.5,1.2-1.5,2.2v0.4H273z"/>
		<path d="M289.5,164.7c0.3-0.6,0.5-1.6,0.5-2.2h2.6c0,1.6-0.6,3.1-1.5,4.4l1.9,2.7h-3.2l-0.8-1.1c-0.7,0.9-2.1,1.4-3.6,1.4
			c-3.7,0-4.5-2.6-4.5-4.3c0-1.7,1.1-3.1,3-4.3l-0.5-0.8c-0.8-1.2-1-1.8-1-2.7c0-1.9,1.6-3.1,3.8-3.1c2.5,0,3.7,1.4,3.7,3.1
			c0,1.5-0.8,2.6-2.6,3.8L289.5,164.7z M285.3,163c-1.1,0.9-1.5,1.6-1.5,2.5c0,0.9,0.7,1.9,2.1,1.9c0.8,0,1.4-0.3,1.9-0.9L285.3,163
			z M285.6,159.4l0.4,0.5l0.5-0.5c0.7-0.5,0.9-1.1,0.9-1.6c0-0.8-0.5-1.2-1.3-1.2c-0.7,0-1.3,0.4-1.3,1.2
			C284.9,158.2,285.1,158.7,285.6,159.4z"/>
		<path d="M298.5,154.7h5.5c2.4,0,3.9,1.3,3.9,3.8c0,2-0.8,3.3-2.5,3.6v0c2,0.3,2.3,1.4,2.4,4.5c0,1.6,0.1,2.4,0.7,2.7v0.1h-3.2
			c-0.3-0.4-0.4-1-0.4-1.6l-0.1-2.8c0-1.2-0.6-1.9-1.8-1.9h-1.6v6.3h-3V154.7z M301.5,161.2h1.2c1.4,0,2.2-0.6,2.2-2.2
			c0-1.4-0.7-2-2.1-2h-1.4V161.2z"/>
		<path d="M312.1,164.4v0.9c0,1.3,0.4,2.6,1.4,2.6c1,0,1.3-0.7,1.5-2.1h2.6c-0.1,2.6-1.3,4-4,4c-4.1,0-4.3-3.2-4.3-6
			c0-3,0.6-5.8,4.4-5.8c3.3,0,4.1,2.2,4.1,5.7v0.6H312.1z M315,162.7c-0.1-1.7-0.3-2.7-1.4-2.7c-1.1,0-1.5,1.2-1.5,2.2v0.4H315z"/>
		<path d="M319,154.7h2.9v4.8h0c0.5-1,1.5-1.4,2.7-1.4c1.8,0,2.8,1,2.8,3.2v8.3h-2.9v-7.7c0-1.1-0.4-1.6-1.2-1.6
			c-1,0-1.5,0.6-1.5,1.8v7.4H319V154.7z"/>
		<path d="M329.1,161.8v-0.3c0-2.6,1.8-3.4,3.9-3.4c3.4,0,4,1.4,4,3.4v5.9c0,1,0.1,1.5,0.4,2.2h-2.7c-0.2-0.4-0.3-0.8-0.4-1.2h0
			c-0.7,1.2-1.5,1.4-2.8,1.4c-2,0-2.7-1.7-2.7-3.2c0-2.1,0.8-2.9,2.8-3.5l1.6-0.4c0.8-0.2,1.1-0.6,1.1-1.3c0-0.8-0.4-1.4-1.3-1.4
			c-0.9,0-1.3,0.6-1.3,1.4v0.3H329.1z M334.3,164c-0.4,0.3-0.9,0.5-1.2,0.6c-1.2,0.2-1.6,0.8-1.6,1.8c0,0.8,0.3,1.6,1.1,1.6
			c0.8,0,1.8-0.5,1.8-1.7V164z"/>
		<path d="M338.8,154.7h2.9v4.7h0c0.6-0.9,1.3-1.3,2.4-1.3c2.3,0,3.4,1.7,3.4,5.9c0,4.1-1.1,5.9-3.4,5.9c-1.1,0-1.9-0.4-2.5-1.5h0
			v1.2h-2.7V154.7z M343.2,167.6c1.2,0,1.5-1.2,1.5-3.7c0-2.4-0.2-3.7-1.5-3.7c-1.3,0-1.5,1.2-1.5,3.7
			C341.7,166.4,341.9,167.6,343.2,167.6z"/>
		<path d="M349,154.6h2.9v2.4H349V154.6z M349,158.4h2.9v11.1H349V158.4z"/>
		<path d="M353.7,154.7h2.9v14.8h-2.9V154.7z"/>
		<path d="M358.4,154.6h2.9v2.4h-2.9V154.6z M358.4,158.4h2.9v11.1h-2.9V158.4z"/>
		<path d="M363.7,155.2h2.9v3.2h1.7v1.9h-1.7v6c0,0.9,0.2,1.2,1,1.2c0.2,0,0.5,0,0.6,0v2c-0.6,0.1-1.2,0.1-1.9,0.1
			c-2.2,0-2.7-0.7-2.7-2.9v-6.4h-1.4v-1.9h1.4V155.2z"/>
		<path d="M368.9,161.8v-0.3c0-2.6,1.8-3.4,3.9-3.4c3.4,0,4,1.4,4,3.4v5.9c0,1,0.1,1.5,0.4,2.2h-2.7c-0.2-0.4-0.3-0.8-0.4-1.2h0
			c-0.7,1.2-1.5,1.4-2.8,1.4c-2,0-2.7-1.7-2.7-3.2c0-2.1,0.8-2.9,2.8-3.5l1.6-0.4c0.8-0.2,1.1-0.6,1.1-1.3c0-0.8-0.4-1.4-1.3-1.4
			c-0.9,0-1.3,0.6-1.3,1.4v0.3H368.9z M374.1,164c-0.4,0.3-0.9,0.5-1.2,0.6c-1.2,0.2-1.6,0.8-1.6,1.8c0,0.8,0.3,1.6,1.1,1.6
			c0.8,0,1.8-0.5,1.8-1.7V164z"/>
		<path d="M379.3,155.2h2.9v3.2h1.7v1.9h-1.7v6c0,0.9,0.2,1.2,1,1.2c0.2,0,0.5,0,0.6,0v2c-0.6,0.1-1.2,0.1-1.9,0.1
			c-2.2,0-2.7-0.7-2.7-2.9v-6.4h-1.4v-1.9h1.4V155.2z"/>
		<path d="M384.6,154.6h2.9v2.4h-2.9V154.6z M384.6,158.4h2.9v11.1h-2.9V158.4z"/>
		<path d="M393.3,158.1c3.4-0.1,4.4,2,4.4,5.9c0,3.8-1.1,5.9-4.4,5.9c-3.4,0.1-4.4-2-4.4-5.9C388.9,160.1,390,158.1,393.3,158.1z
			 M393.3,167.9c1.2,0,1.5-1.1,1.5-3.9c0-2.8-0.4-3.9-1.5-3.9c-1.4,0-1.5,1.6-1.5,3.9C391.7,166.2,391.9,167.9,393.3,167.9z"/>
		<path d="M398.9,158.4h2.7v1.3h0c0.6-1.1,1.6-1.6,2.8-1.6c1.8,0,2.8,1,2.8,3.2v8.3h-2.9v-7.7c0-1.1-0.4-1.6-1.2-1.6
			c-1,0-1.5,0.6-1.5,1.8v7.4h-2.9V158.4z"/>
	</g>
</g>
</svg>
