<?xml version="1.0" encoding="utf-8"?>
<!-- Generator: Adobe Illustrator 25.1.0, SVG Export Plug-In . SVG Version: 6.00 Build 0)  -->
<svg version="1.1" xmlns="http://www.w3.org/2000/svg" xmlns:xlink="http://www.w3.org/1999/xlink" x="0px" y="0px"
	 viewBox="0 0 173.86 31.48" style="enable-background:new 0 0 173.86 31.48;" xml:space="preserve">
<style type="text/css">
	.st0{fill:#FFFFFF;}
	.st1{fill:#0A99D6;}
</style>
<g id="Layer_1">
</g>
<g id="Layer_2_copy">
	<path d="M156.31,31.07h4.42c3.72,0,6.56-0.47,9.4-2.99c2.62-2.34,3.88-5.4,3.88-8.86c0-3.53-1.23-6.72-3.94-9.05
		c-2.81-2.4-5.71-2.87-9.27-2.87h-4.48V31.07z M158.96,28.61V9.75h1.92c2.81,0,5.2,0.38,7.38,2.3c2.05,1.8,3.09,4.42,3.09,7.13
		c0,2.65-1.01,5.14-2.96,6.97c-2.18,2.05-4.6,2.46-7.51,2.46H158.96z"/>
	<polygon points="142.39,31.07 154.72,31.07 154.72,28.61 145.04,28.61 145.04,19.27 154.43,19.27 154.43,16.81 145.04,16.81 
		145.04,9.75 154.72,9.75 154.72,7.29 142.39,7.29 	"/>
	<polygon points="108,31.42 111.39,31.42 115.21,11.31 115.29,11.31 124.83,32.64 134.4,11.31 134.48,11.31 138.31,31.42 
		141.7,31.42 135.67,0 124.83,24.95 114.03,0 	"/>
	<polygon points="86.2,31.07 88.85,31.07 88.85,12.74 107.39,32.14 107.39,7.29 104.74,7.29 104.74,25.71 86.2,6.28 	"/>
	<path d="M72.98,6.88c-6.78,0-12.39,5.52-12.39,12.33c0,6.84,5.61,12.27,12.39,12.27c6.78,0,12.39-5.42,12.39-12.27
		C85.37,12.4,79.76,6.88,72.98,6.88z M72.98,9.34c5.46,0,9.74,4.45,9.74,9.84c0,5.36-4.35,9.84-9.74,9.84
		c-5.39,0-9.74-4.48-9.74-9.84C63.23,13.78,67.52,9.34,72.98,9.34z"/>
	<path d="M60.37,3.84c-2.64-1.97-5.56-2.92-8.87-2.92c-8.51,0-15.49,6.98-15.49,15.49c0,8.43,7.09,15.25,15.49,15.25
		c3.15,0,6.31-1.07,8.87-2.92v-4.1c-2.36,2.37-5.64,3.94-8.99,3.94c-6.66,0-12.06-5.76-12.06-12.3c0-6.54,5.36-12.3,11.98-12.3
		c3.43,0,6.7,1.5,9.06,3.94V3.84z"/>
	<rect y="0.82" class="st0" width="31.33" height="30.65"/>
	<path class="st1" d="M14.75,16.89c3.28,3.53,12.49-0.74,16.59-3.75V0.82h-4.69C20.95,3.96,9.71,11.5,14.75,16.89z"/>
	<path class="st1" d="M3.01,25.81c-5.54-7.95,9.83-19.78,23.14-24.99H0v30.65h31.33v-6.81C22.84,28.72,8.15,33.25,3.01,25.81z"/>
</g>
</svg>
