<?xml version="1.0" encoding="utf-8"?><!DOCTYPE svg PUBLIC "-//W3C//DTD SVG 1.0//EN" "http://www.w3.org/TR/2001/REC-SVG-20010904/DTD/svg10.dtd"><svg version="1.0" id="logo" xmlns="http://www.w3.org/2000/svg" xmlns:xlink="http://www.w3.org/1999/xlink" x="0px" y="0px"  width="284px" height="131px" viewBox="-253 225.7 284 131" style="enable-background:new -253 225.7 284 131;"  xml:space="preserve"><path style="fill:#FFFFFF;" d="M-224.2,356.7H2.2C20.3,343,31,325.9,31,307.3c0-45.1-63.6-81.7-142-81.7s-142,36.6-142,81.7 C-253,325.9-242.3,343-224.2,356.7z"/><g> <path id="XMLID_250_" style="fill:#446DB5;" d="M-229.6,293.1c0.6-1.2,1.1-2.4,1.7-3.6c1.3-2.3,2.7-4.5,4.5-6.4  c4-4.2,8.5-8,13.5-11c2.5-1.5,4.9-3,7.5-4.4c1.2-0.7,2.5-1.2,3.8-1.8c1-0.4,2.4-1.5,3.5-1.6c1,0,1.3,0.7,0.7,1.5  c-0.7,1-2.5,1.3-3.5,1.8c-2.7,1.2-5.2,2.7-7.6,4.3c-4.5,3-8.9,6.3-11.9,10.9c-1.5,2.4-3,4.7-3.5,7.5c-0.2,1.1-0.4,2.3-0.5,3.4  c-0.1,1.4,1,7.9,2.9,10.9c1.4,2.3,2.9,4.6,4.7,6.6c3.8,4.1,8.4,7.6,13.2,10.5c2.4,1.5,4.8,2.9,7.3,4.2c2.8,1.4,5.7,2.4,8.4,3.8  c4.7,2.3,9.6,3.8,14.5,5.6c2.5,0.9,5.2,1.6,7.8,2.3c2.6,0.7,5.3,1.7,8,2.1c2.9,0.5,5.9,0.8,8.9,1.1c1.5,0.1,3,0.2,4.5,0.3  c1.6,0.1,3,0.5,4.6,0.7c6,0.5,12.1,0.1,18.2,0.1c3,0,6.1,0.1,9.1-0.4c2.6-0.5,5.5-0.7,8.1-0.9c5-0.5,10.1-1.7,14.9-3.1  c3-0.8,5.9-2,8.8-3c2.3-0.8,4.3-2,6.4-3.2c2.6-1.5,5.3-2.9,7.7-4.7c0.5-0.4,0.9-0.7,1.4-1c0.4-0.3,0.5-0.5,0.9-0.8  c0.4-0.4,0.6-0.3,1.2-0.3c0.2,0,0.4,0.2,0.7,0.2c0.5,0,0.6-0.3,1.1-0.4c2.4-1,5-1.7,7.5-2.5c1.3-0.4,2.7-1,4.1-1.3  c1.5-0.3,1.5,0.4,1.7,1.7c0.2,1,0.7,1.9,1,2.8c0.4,1.1,0.9,2.3,1.4,3.3c1.1,2.2,2.1,4.6,3.5,6.6c0.8,1.1,1.6,2.1,2.3,3.3  c0.3,0.5,0.6,1.1,1.1,1.5c0.6,0.6,0.9,0.9,1.3,1.5c0.5,0.8,1.7,0.8,2.7,0.8c0.3,0,1.3-0.2,1.5,0c0.4,0.3,0.1,0.5,0.2,0.9  c0.2,0.9,0.4,0.6,1.5,0.6c1,0,2.5,0,3.5,0.5c-0.7,0.7-2.5,0.7-3.4,0.7c-1.2,0.1-2.2-0.6-3.4-0.8c-1.3-0.2-2.1-0.2-3.3,0  c-1.2,0.2-2.7,0.1-3.9-0.2c-1.1-0.3-2-0.8-3.1-1.3c-0.6-0.3-1.3-0.3-1.9-0.6c-0.3-0.2-1-1.2-1.2-1.2c-0.8-0.1-0.6,2.6-0.5,3.1  c0.1,1.6,1,1.2,2.4,1.3c6.1,0.2,12.3,0.2,18.4,0.2c3.1,0,6.2,0,9.3,0c1.1,0,2.1-0.2,3.2-0.2c1.5,0.1,3.2,0.1,4.7,0.4  c1.1,0.2,2.3,0.1,3.3,0.4c0.2,0.1,0.7,0,0.7,0.3c0.1,0.6-1.5,0.3-1.6,0.3c-1.2-0.1-2.2,0.6-3.4,0.6c-1.3,0.1-2.7,0-4.1,0  c-6,0.1-12,0.1-18,0.1c-3.1,0-6.1,0-9.2,0c-1.4,0-2.8,0-4.1,0c-1.4-0.1-1.6,0.3-1.5,1.7c0,0.7-0.1,2.3-1.1,1.5  c-0.8-0.6-0.5-2.4-1.3-3c-0.7-0.5-2.4-0.1-3.2-0.1c-1.5,0-3,0.1-4.5,0c-1,0-1.8-0.5-2.2,0.6c-0.4,1,0.3,2.3-0.2,3.3s-1,0.2-1.4-0.5  c-0.5-0.9-0.1-2.6-0.7-3.2c-0.6-0.7-2.8-0.2-3.7-0.2c-1.6,0-3.1,0.1-4.7,0.1c-3,0-6-0.2-8.9,0.1c-5.8,0.5-12,0.3-17.8,0.1  c-3-0.1-6-0.4-9-0.4s-6.1,0.1-9.1,0.1c-3.1,0-6.2-0.1-9.2-0.2c-2.6-0.1-5.4,0.2-7.9-0.4c-1.4-0.3-2.8-0.3-4.2-0.4  c-1.3-0.1-2.4-0.5-3.7-0.7c-2.9-0.4-5.8-0.4-8.6-0.9c-5.3-1-10.7-1.1-16-2.4c-2.6-0.6-5.4-1-8-1.5s-5.2-1.2-7.7-1.9  c-11-2.8-21.8-6.6-31.6-12.3c-4.9-2.9-9.2-6.1-13.2-10.2c-1.7-1.8-3.3-3.8-4.4-5.9c-0.5-1-0.9-1.9-1.2-2.9  C-231.4,300.7-229.9,293.8-229.6,293.1z M-98.3,344.6c0,0,5.9,0,6.3,0c2,0,4-0.6,6-0.5c4,0,7.8-1.5,11.7-2.1  c3.7-0.6,7.8-2.6,11-4.5c0.7-0.4,1.6-0.7,2-1.5c0.3-0.7,0-1.8,0-2.5c0-0.9,0-1.9,0-2.8c0-0.5,0-1,0.1-1.4c0.1-0.5,0.4-1,0.5-1.5  c0.1-0.7-0.2-1.2-0.9-1c-0.4,0.1-1.3,1.2-1.7,1.5c-1.5,1.2-3.2,2.3-4.9,3.3c-3.7,2.2-7.5,4.1-11.5,5.8c-1.7,0.7-3.5,1.3-5.3,1.8  c-1.9,0.5-3.8,1.2-5.7,1.6c-3.7,0.7-7.4,1.7-11.1,1.9c-1.1,0.1-2,0.5-3,0.6c-1.1,0.1-2.1,0.1-3.2,0.2c-2.4,0.2-4.8,0.4-7.2,0.4  c-2.5,0.1-5,0.1-7.5,0.1c-2.4,0-5-0.2-7.4,0.2c2.4,0.8,5.4,0.4,7.9,0.4c2.6,0,5.3,0,7.9,0C-108.9,344.6-103.6,344.6-98.3,344.6  C-98.3,344.6-100.8,344.6-98.3,344.6z M-48.1,334.4c-0.4,0,0.3-4.3,0.3-4.7c0.1-0.5,0-1,0-1.6c0-0.7,0.3-1.3,0.4-2.1  c0.2-0.8,0.8-3.5-0.3-3.5c-0.6,0-1.5,0.7-2,0.9c-0.9,0.3-1.8,0.6-2.7,0.8c-1.4,0.4-2.9,0.7-4.3,1.2c-1.3,0.4-2.8-0.3-2.1,1.5  c0.4,1.2,1.7,2.2,2.4,3.2c1.5,2,1.7,0,3.4-0.4c0,0.5,0,0.8-0.2,1.2c-0.3,0.5-1.1,0.5-1.1,1.2c-0.1,1,1.7,2.1,2.4,2.7  c0.6,0.5,2.4,2.7,3.2,2.7C-47.8,337.6-48.1,335.1-48.1,334.4C-48.1,334.4-48.1,335.2-48.1,334.4z M-48.2,341.6c0.1,0,0-1.4-0.1-1.5  c-0.2-0.7-0.6-1-1.2-1.3c-1.4-0.8-2.7-1.9-3.9-3c-0.6-0.5-1.1-1.4-1.7-1.9c-0.9-0.6-1.3,0.2-2,0.8c-1.4,1.3-1.9,2-1.7,4  c0.1,1.1,0.1,2.1,0.1,3.2c0,0.7-0.3,2,0.1,2.6c0.6,1,2.9,0.5,3.9,0.5s2,0,3.1,0c0.8,0,2,0.3,2.8,0.1  C-47.5,344.9-48.2,342.8-48.2,341.6C-48.2,341.6-48.2,342.5-48.2,341.6z M-45.8,334.2c0,0,0.1,4.6,0.2,5.1c0.2,0.9,0.4,0.8,1.1,0.9  s1.2,0.4,1.8,0.7c1.4,0.8,3.3,1.1,4.9,1.3c0.6,0.1,1.7,0.1,2.2-0.1c0.9-0.3,0.5-0.5-0.2-1.2c-2.2-2.4-4.3-5-6-7.8  c-0.7-1.3-1.2-2.8-1.8-4.1c-0.3-0.6-0.7-1.1-0.9-1.8c-0.2-0.8-0.2-1-0.8-1.7C-46.1,328.2-45.7,331.5-45.8,334.2  C-45.8,334.2-45.7,331.6-45.8,334.2z M-61.1,339.8c0-0.6,0-1.1-0.2-1.7c-1.2,0.6-2.2,1.5-3.4,2.1c-1.2,0.6-2.4,1.2-3.6,1.7  c-1.3,0.6-2.6,1.1-4,1.4s-2.9,0.4-4.1,1.2c1.8,0.3,3.7,0.1,5.5,0.1c2,0,3.9,0,5.9,0c0.9,0,4,0.6,4.5-0.2c0.4-0.6-0.2-1.5-0.3-2.1  C-61.1,341.6-61.2,340.7-61.1,339.8C-61.1,339.5-61.2,341.1-61.1,339.8z M-56.5,332.1c-0.8-1.1-1.7-2.5-2.7-3.3  c-0.4,0.8-0.3,1.4-0.2,2.2c0.1,0.6-0.1,2.1,0.2,2.6s0.7,0.3,1.2-0.1C-57.4,333.2-57,332.6-56.5,332.1  C-56.7,331.8-56.8,332.4-56.5,332.1z M-134.5,343.4c-0.2,0.1-0.4,0.2-0.6,0.3c0.5,0.3,0.6,0.4,1.2,0.2  C-134.2,343.7-134.4,343.5-134.5,343.4C-134.8,343.5-134.4,343.5-134.5,343.4z"/> <path id="XMLID_249_" style="fill:#446DB5;" d="M-151,247.8c6.7-1.5,13.6-2.6,20.5-3.3c1.8-0.2,3.7-0.3,5.5-0.5  c0.9-0.1,1.8-0.1,2.7-0.1s1.7-0.4,2.6-0.5c3.7-0.4,7.7,0,11.5,0c4,0,8.1,0,12.1,0c1.8,0,3.6-0.2,5.3,0.3c1.7,0.4,3.5,0.3,5.3,0.5  c1.7,0.1,3.5,0.1,5.2,0.5c1.8,0.4,3.6,0.4,5.5,0.7c3.4,0.5,6.7,1.4,10.1,1.8c3.2,0.3,6.5,1.4,9.7,2.1c3,0.6,5.9,1.9,8.9,2.6  c6.7,1.7,13.3,4.7,19.6,7.8c12.2,6.1,24.6,15.5,29.5,28.6c0.4,1.1,1.6,3.2,1.4,4.4c-0.5,2.3-2.2-0.5-2.7-1.1  c-2-2.8-4.6-5.2-7.1-7.5c-5.3-4.9-11.3-8.8-17.5-12.4c-12-6.8-25.3-12.2-38.8-15.3c-1.4-0.3-2.9-0.7-4.3-1.1  c-1.5-0.4-3.1-0.7-4.7-1.2c-3.2-0.9-6.6-1-9.7-1.9c-3.4-0.9-6.9-1-10.3-1.5c-3.6-0.6-7.3-1-10.9-1.2c-7.6-0.5-15.2-0.9-22.8-0.7  c-3.9,0.1-7.9,0.1-11.7,0.4c-3.5,0.3-7.2,0.4-10.6,1c-12.8,2.1-25.6,4.3-37.6,9.4c-1.1,0.5-2.5,1.4-3.7,1.5  c-1.9,0.2-0.7-1.7,0.2-2.1c3.2-1.5,6.7-2.9,10-4c2.8-0.9,5.6-1.7,8.4-2.7c2.9-1.1,6.1-1.4,9-2.4c3.1-1,6.4-1.4,9.5-2.3  C-151,247.7-151,247.7-151,247.8C-150.2,247.6-151,247.7-151,247.8z"/> <path id="XMLID_248_" style="fill:#446DB5;" d="M-163.1,271.6c0-1.6,0-3.1,0-4.7c0-1.4-0.2-3.1,0-4.5c0.4-2.4,3.3-1.8,4,0.1  c1,2.8,2.4,5.6,3.3,8.4c0.3,1,0.6,1.9,1,2.8c0.6,1.5,1,1.2,1.4-0.2c0.9-2.5,2-4.8,2.9-7.3c0.5-1.5,1.6-6.3,3.8-5.5  c1.2,0.4,1.3,1.8,1.3,2.9c0,1.6,0,3.2,0,4.7c0,3.3,0,6.5,0,9.8c0,1,0.4,2.9-0.4,3.7c-0.5,0.5-2.8,0.7-3.3,0.2  c-0.8-0.7-0.5-3.6-0.5-4.6c0-1.7,0.4-3.5,0-5.1c-1.3,1-1.4,3.1-2,4.6c-0.6,1.4-1,4.3-2.4,5.1c-3.3,2.1-4.1-8.3-5.8-9.6  c-0.5,0.7-0.2,2.2-0.1,3c0,1.2,0,2.4,0.1,3.6c0,1.7,0.3,3.4-1.9,3.2c-1.9-0.2-1.4-2.5-1.4-4C-163.1,277.7-163.1,271.6-163.1,271.6  C-163.1,268.7-163.1,271.6-163.1,271.6z"/> <path id="XMLID_247_" style="fill:#446DB5;" d="M-100.6,297.7c0-1.9,0-3.8,0-5.7c0-1.2-0.5-3.7,0.5-4.6c0.7-0.6,2.9-0.7,3.6,0  c0.9,1,0.3,3.8,0.3,5c0,1.5-0.7,3.2,1.2,3.3c1.9,0.1,2.1-0.3,2.1-2.1c0-1.5-0.2-3.2-0.2-4.7c0.1-1.6,1-2,2.4-1.9  c1.6,0.1,2.1,0.6,2.1,2.3c0,2.1,0,4.2,0,6.3c0,1.9,0,3.9,0,5.8c0,1.1,0,2.2,0,3.2c0,0.9,0.3,2.1-0.1,2.9c-0.5,1.1-2.4,1.3-3.5,0.8  c-1.5-0.7-0.9-3.3-0.8-4.6c0-1.2,0.7-3.4-0.6-3.9c-0.4-0.2-1.8-0.3-2.2-0.1c-0.7,0.4-0.4,1.6-0.4,2.3c0,1.1,0,2.3,0.1,3.4  c0,0.7,0.3,1.6-0.1,2.3c-0.5,1.1-2.7,1.1-3.6,0.6c-1.3-0.7-0.7-3.1-0.7-4.3C-100.5,303.2-100.5,297.7-100.6,297.7  C-100.6,294.7-100.5,297.7-100.6,297.7z"/> <path id="XMLID_244_" style="fill:#446DB5;" d="M-198.8,297.9c0-1.5,0-3,0-4.6c0-1.5-0.3-3.1-0.1-4.6c0.1-1.1,0.5-1.6,1.6-1.7  c1.7-0.2,3.6,0,5.3,0.1c2.9,0.1,4.4,2.8,4.4,5.6c0,1.1-0.3,2.3-1,3.2c-0.3,0.4-1,0.8-1.3,1.2c-0.4,0.6-0.1,0.7,0.4,1.3  c1.8,2,1.9,4.8,1.9,7.4c0,1.1,0.3,2.3-1,2.7c-1.2,0.4-2.9-0.1-3.2-1.5c-0.4-2,0.9-6.5-1.9-7.6c-1.1-0.4-0.9,0.5-0.8,1.4  c0.2,1.6,0.1,3.3,0.1,4.9c0,1,0.1,2.4-1,2.8c-0.9,0.3-2.8,0.2-3.3-0.7C-199.3,306.8-198.6,297.9-198.8,297.9  C-198.8,295.9-198.8,297.9-198.8,297.9z M-192.2,292.6c0-0.9-0.4-1.9-1.4-1.9c-1.5,0-0.8,1.7-0.8,2.7c0,0.9-0.4,2.5,1.2,2  C-192,295-192.1,293.7-192.2,292.6C-192.2,291.4-192.2,292.9-192.2,292.6z"/> <path id="XMLID_241_" style="fill:#446DB5;" d="M-161.1,299.7c0,3,0.6,6.9-0.7,9.7c-1.2,2.8-4,4.3-7,3.9c-1.4-0.2-2.9-0.5-3.1-2.1  c-0.2-1.3-0.1-2.9,1.5-2.3c1.2,0.4,2.5,0.9,3.8,0.4c1.1-0.4,1.8-1.5,1.6-2.6c-1.5,0.5-2.4,1.9-4.2,1.3c-1.6-0.5-2.8-2.1-3.3-3.6  c-0.5-1.6-0.8-3.8-0.5-5.5s0.3-3.3,1.2-4.7c0.8-1.3,2.1-2.6,3.7-2.8c0.8-0.1,1.4,0.2,2.1,0.5c0.8,0.3,1,0.1,1.8-0.1  C-159.8,290.5-161.1,297.2-161.1,299.7C-161.1,301.7-161.1,297.7-161.1,299.7z M-165.3,299c0,0,0.4-3.8-1.5-3.9  c-2.3-0.2-2,3.1-2,4.5c0,1.5-0.5,5,1.9,4.9C-164.7,304.2-165.3,300.4-165.3,299C-165.3,299-165.3,300-165.3,299z"/> <path id="XMLID_238_" style="fill:#446DB5;" d="M-74.5,274.1c0,4.5,0.8,11.1-4.6,12.9c-1.8,0.6-5.4,0.6-6.3-1.6  c-0.2-0.6-0.3-2.1,0.3-2.5c0.5-0.4,0.9,0,1.4,0.1c0.7,0.3,1.3,0.4,2.2,0.4c1.2,0,2.1-0.2,2.8-1.2c0.7-1.1,0.3-1.7-0.8-1  c-1,0.6-2,1.3-3.3,0.8c-1-0.4-2.2-1.4-2.7-2.4c-1.2-2.4-1.2-5.4-1-7.9c0.2-2.2,1.7-5.1,4-5.7c1.1-0.3,2.2-0.1,3.3,0.2  c1.3,0.3,2.3-0.5,3.7-0.3c1.4,0.3,1.1,1.6,1.1,2.9C-74.5,270.5-74.5,272.2-74.5,274.1z M-78.7,273.2c0.3,0,0.3-4.4-1.6-4.5  c-2-0.1-2.1,3.8-2.1,5.1c0,1.3-0.3,4.9,2,4.4C-78.1,277.8-78.7,274.9-78.7,273.2C-78.7,273.2-78.7,274.2-78.7,273.2z"/> <path id="XMLID_235_" style="fill:#446DB5;" d="M-62.9,302.5c0-2.7,0-5.3,0-8c0-1.9,0.5-3.2,2.8-2.8c0.4,0.1,0.6,0.1,0.9,0.4  c0.2,0.2,0.2,0.7,0.5,0.8c0.5,0.1,1.7-0.9,2.2-1.1c1.8-0.6,3.5,0.6,4.5,2.2c0.5,0.8,0.4,1.8,0.6,2.7c0.3,1.1,0.4,2,0.3,3.2  c-0.1,2.1-0.4,4.4-1.4,6.3c-0.5,0.9-1.2,1.6-2.1,2.1c-1.3,0.6-2.1,0.1-3.3,0.1c-1.8,0-0.1,3.3-1,4.4c-1.1,1.2-3.7,0.5-3.8-1  C-63.2,308.7-62.9,305.5-62.9,302.5z M-58.8,300.6c0,1.4-0.7,5.1,1.7,4.9c2.1-0.2,1.7-3.7,1.6-5.1c0-1.3,0.6-5-1.6-4.9  C-59.4,295.7-58.8,299.1-58.8,300.6C-58.8,301.6-58.8,299.5-58.8,300.6z"/> <path id="XMLID_232_" style="fill:#446DB5;" d="M-88.3,271c0,1.7,0,3.5,0,5.2c0,1.5,0.3,3.5,0,5c-0.2,1-0.8,1.1-1.8,1.1  c-0.8,0-1-0.2-1.7-0.5c-0.7-0.4-0.6-0.4-1.3,0c-2.1,1.2-3.9,0.7-5.4-1.2c-1.5-2-1.5-4.9-1.4-7.3s0.9-5.8,3.2-7  c0.6-0.3,1.2-0.3,1.8-0.3c0.5,0,1.7,0.4,2.2,0.1c0.8-0.4,0.4-1.9,0.3-2.7c-0.1-1.2,0.3-2.2,1.6-2.5c0.8-0.2,1.9,0,2.4,0.7  c0.6,1,0.1,3.2,0.1,4.2C-88.3,267.6-88.3,269.2-88.3,271C-88.3,273.8-88.3,269.1-88.3,271z M-92.4,273.6c-0.1,0,0.6-4.6-1.1-4.9  c-2-0.4-2.1,3.1-2.2,4.2c-0.1,1.4-0.6,5.4,1.5,5.6C-91.7,278.8-92.4,275.1-92.4,273.6C-92.4,273.6-92.4,274.7-92.4,273.6z"/> <path id="XMLID_229_" style="fill:#446DB5;" d="M-118.1,271.2c0,2.9,0.4,5.6-0.7,8.3c-0.5,1.2-1.5,2.3-2.8,2.8  c-1.5,0.6-2.8-0.2-4.3-0.1c-1.1,0.1-2.8,0.7-3.4-0.5c-0.5-1-0.1-2.6-0.1-3.6c0.1-3.4,0-6.8,0-10.2c0-1.6-0.1-3.2,0-4.8  c0-1,0.1-1.8,1.1-2.1c3-1,3,2.8,2.8,4.7c-0.1,1.4-0.2,1.4,0.9,0.7c0.8-0.5,1.8-0.8,2.6-0.6c1.3,0.3,2.1,1.1,2.8,2.2  C-118.8,268.2-117.5,271.2-118.1,271.2C-118.1,272.4-118,271.2-118.1,271.2z M-122.2,274.9c0-1.3,0.7-5.3-1.4-5.6  c-2.2-0.3-1.8,3.5-1.8,4.6c0,1.3-0.7,4.7,0.9,5.4C-122,280.2-122.2,276.2-122.2,274.9C-122.2,273.6-122.2,275.7-122.2,274.9z"/> <path id="XMLID_228_" style="fill:#446DB5;" d="M-131.5,302.2c0-1.4,0.9-7.1-1.7-6.2c-1,0.3-1,1-1,1.9c0.1,1.6,0.1,3.3,0.1,4.9  c0,2.2,0.8,5.9-2.5,5.6c-2.8-0.2-1.7-4.2-1.7-6.1c0-1.5,0-3,0-4.5c0-1.4-0.4-3.3-0.1-4.6c0.3-1.1,1.5-1.7,2.5-1.3  c0.9,0.3,1.1,1.5,1.9,1.3c0.4-0.1,0.9-0.8,1.3-1c0.5-0.3,1-0.5,1.5-0.5c1.2,0,2.3,0.8,2.9,1.8c0.6,1.1,0.6,2.3,0.6,3.5  c0,1.7,0.1,3.4,0.1,5c0.1,2.2,1.2,6.5-2,6.5c-1.1,0-1.9-0.3-2.1-1.4C-131.7,306.5-131.7,302.2-131.5,302.2  C-131.5,300.4-131.5,302.2-131.5,302.2z"/> <path id="XMLID_225_" style="fill:#446DB5;" d="M-74.3,300.1c-0.1,1.2,0.1,3-0.3,4.2c-0.3,0.8-1,1.8-1.6,2.5c-1.4,1.6-3.2,2-5.2,2  c-2,0-3.5-1.9-4.4-3.4s-1.2-3.3-1.2-5.1c0-3.8,1.6-8.5,6.2-8.6c2.1-0.1,3.8,0.8,5,2.6c0.6,0.9,1,1.9,1.3,2.9  C-74.4,297.4-74.3,300.1-74.3,300.1C-74.4,301.4-74.3,300.1-74.3,300.1z M-78.6,300.2c0,0,0-3.3-0.1-3.5c-0.2-0.8-0.9-1.5-1.7-1.6  c-2.5-0.4-2.3,3.4-2.3,4.9c0,1.6-0.4,5.3,2.1,5.3C-78,305.2-78.6,301.7-78.6,300.2C-78.6,300.2-78.6,301.2-78.6,300.2z"/> <path id="XMLID_222_" style="fill:#446DB5;" d="M-23.6,302.1c0,1.5,0.8,5.5-0.9,6.3c-0.6,0.3-1.7,0-2.3-0.3c-1.1-0.6-1-0.5-2.2,0.1  c-2,1-4.1,0-5.2-1.7s-1-3.8-0.6-5.7c0.4-2.1,2.2-3.4,4.2-4c0.5-0.2,1-0.2,1.6,0c0.3,0.1,0.8,0.5,1.1,0.4c0.5-0.2,0.2-1.3-0.2-1.7  c-1.4-1.2-4.1,1.1-5.1-0.2c-1.5-1.9,1.9-3.4,3.2-3.5c2.4-0.1,4.4,0,5.7,2.4C-23.8,295-23.5,302.1-23.6,302.1  C-23.6,303.6-23.6,302.1-23.6,302.1z M-30.9,302.4c0,1,0,2.3,1.2,2.7c1.4,0.5,1.9-1.2,1.9-2.3s0.2-2.8-1.2-3  C-30.4,299.6-31.1,301.2-30.9,302.4C-30.9,302.8-31,301.6-30.9,302.4z"/> <path id="XMLID_219_" style="fill:#446DB5;" d="M-114.5,301c0,1.6,0.1,3.3,0,4.9c0,1,0,2.1-1.1,2.6c-0.4,0.2-1.1,0.1-1.5,0  c-0.5-0.2-0.8-0.9-1.4-1c-0.6,0-1.1,0.7-1.5,0.9c-0.6,0.3-1.2,0.3-1.8,0.3c-2.9-0.2-4.2-3.4-4.1-5.9c0.1-2.6,1.6-4.9,4.1-5.8  c0.6-0.2,1.1-0.2,1.8-0.1c0.3,0.1,1.2,0.5,1.4,0.3c1-0.7-0.8-2-1.4-2c-1-0.1-2.7,1-3.6,0.4c-0.9-0.6-0.3-2.1,0.2-2.7  c1.9-1.9,5.8-1.5,7.5,0.4c1,1.1,1.2,2.2,1.3,3.6C-114.5,297.1-114.5,301-114.5,301C-114.5,302.8-114.5,301-114.5,301z   M-121.6,302.5c0,0,0,1.4,0.1,1.6c0.2,0.5,0.7,0.9,1.2,1c1.6,0.3,2-1.4,2-2.6c0-1-0.2-2.6-1.6-2.7  C-121.5,299.7-121.6,301.4-121.6,302.5C-121.6,302.5-121.6,302.2-121.6,302.5z"/> <path id="XMLID_216_" style="fill:#446DB5;" d="M-140.2,300.2c-0.3,2-0.2,4.3-1.4,6c-1.1,1.5-3,2.6-4.9,2.6c-1.8,0-3.5-0.9-4.6-2.3  c-1.5-2-1.7-4.1-1.7-6.5c0-2.2,0.2-3.8,1.4-5.6s3-2.7,5.2-2.7c1.9,0.1,3.3,0.9,4.3,2.5C-140.6,296-140.5,297.9-140.2,300.2  C-140.4,301.5-140.4,299.2-140.2,300.2z M-146.6,305.2c2.4,0,1.9-3.2,2.1-4.9c0.2-1.4,0.2-5.2-1.8-5.4c-2.6-0.2-2.3,2.9-2.3,4.6  C-148.6,301.2-149.3,305.2-146.6,305.2C-145.6,305.2-147.6,305.2-146.6,305.2z"/> <path id="XMLID_213_" style="fill:#446DB5;" d="M-143.9,273.9c0-2.3,0.4-4,1.7-6c1-1.5,2.8-2.5,4.6-2.6s3.7,1.4,4.8,2.7  c1.3,1.6,1.5,3.6,1.6,5.6c0,2.3-0.1,4.2-1.3,6.2c-1.1,1.9-3.2,2.9-5.3,2.7C-142.4,282.2-143.9,277.8-143.9,273.9  C-143.9,273.2-143.9,274.6-143.9,273.9z M-139.8,273.8c-0.3,1.6-0.1,5.4,2.1,5.4c2.3-0.1,2.4-3.3,2.4-4.9c0-1.5-0.1-5.5-2.4-5.4  C-139.8,268.8-139.8,272.4-139.8,273.8C-140.1,275.2-139.8,272.4-139.8,273.8z"/> <path id="XMLID_210_" style="fill:#446DB5;" d="M-178.6,301.5c-0.7,0-3-0.4-3.5,0.1c-0.4,0.4-0.1,1.3,0.1,1.9  c0.3,0.9,1,1.7,1.9,1.8c0.5,0.1,1.2,0.1,1.6,0c0.7-0.1,1.1-0.6,1.7-0.8c2.5-0.8,1.5,2.7,0.3,3.5c-1.6,1.1-4.3,1.1-6,0.3  c-2.2-1-2.9-2.8-3.5-4.9c-0.3-1.2-0.5-2.2-0.6-3.5s0.4-2.4,0.7-3.6c0.6-2,1.5-3.5,3.5-4.3c1.6-0.7,3.5-0.6,5,0.4  c2,1.3,3.1,4.3,3.3,6.6C-173.7,302.1-176.4,301.5-178.6,301.5C-179.7,301.5-177.7,301.5-178.6,301.5z M-180.1,298.2  c0-0.2,2.2,0.5,2.1-0.9c0-1-1.2-2.6-2.2-2.6c-1.1,0-2,1.5-2.1,2.5C-182.5,298.7-181.1,298.2-180.1,298.2  C-180.1,298.2-180.7,298.2-180.1,298.2z"/> <path id="XMLID_207_" style="fill:#446DB5;" d="M-64.6,275.4c-0.9,0-2.8-0.5-3.5-0.1s-0.5,1.5-0.3,2.2c0.6,2,2.9,1.9,4.5,1.3  c0.7-0.2,1.6-0.9,2.2-0.2c0.5,0.5,0.3,1.8,0,2.4c-1.1,1.8-4.5,1.7-6.3,1.4c-4.5-0.8-5.3-7.2-4.5-10.7c0.4-2,1.3-4.2,3-5.4  c1.8-1.2,4-1,5.7,0c2.3,1.3,3,4,3.2,6.4c0.1,0.8,0.2,1.8-0.6,2.4C-61.6,275.2-64.6,275.2-64.6,275.4  C-65.6,275.2-64.6,275.2-64.6,275.4z M-66.5,272.1c0,0,1.2,0.1,1.4,0c0.7-0.2,0.6-0.3,0.6-1c0-1-0.8-2.4-1.9-2.4  c-1.2-0.1-2,1.3-2.1,2.4C-68.6,272.5-67.7,272.2-66.5,272.1C-66.5,272.1-67,272.1-66.5,272.1z"/> <path id="XMLID_206_" style="fill:#446DB5;" d="M-42.7,300.2c0-1.2,0.1-2.5,0-3.8c-0.1-1.2-1-1-1.5-1.9c-0.5-1.1,0.3-1.7,1-2.2  s0.7-0.9,1-1.8c0.3-0.8,0.1-1.9,0.6-2.6c0.4-0.8,1.6-1.3,2.4-0.8s0.5,1.8,0.5,2.7c0,0.5-0.3,1.8,0,2.2c0.4,0.6,1.4,0.1,2,0.3  c1,0.3,1.4,1.5,0.8,2.4c-0.7,0.9-1.3,0.4-2.2,0.7s-0.7,0.7-0.7,1.6c0,1.2,0,2.4,0.1,3.6c0,1-0.3,2.5,0,3.5c0.3,1.1,0.9,0.8,1.8,0.9  c1.1,0.1,1.7,1.3,1.2,2.3c-1,2.1-4.5,1.5-5.7,0c-0.7-0.9-1.2-2.2-1.4-3.3C-42.9,303.6-43,300.2-42.7,300.2  C-42.7,298.8-42.8,300.2-42.7,300.2z"/> <path id="XMLID_205_" style="fill:#446DB5;" d="M-69.6,308.8c-1.9-0.3-4.9-0.7-3.8-3.5c0.5-1.1,1.1-0.5,2-0.2  c0.8,0.3,2.4,0.5,3.1-0.2c2-1.9-2.2-3.3-3.2-4c-1.7-1.3-2.1-4-1.5-6s2.4-3.5,4.6-3.5c1.6,0,4,1,3.3,3c-0.7,2.1-4.5-1-5,1.3  c-0.2,0.9,1.3,1.5,2,1.8c1,0.4,1.9,0.8,2.6,1.7c1.5,1.8,1.7,4.3,0.7,6.4c-0.5,1-1.1,1.9-2.1,2.4C-67.2,308.5-69.6,308.8-69.6,308.8  C-70.4,308.7-69.6,308.8-69.6,308.8z"/> <path id="XMLID_204_" style="fill:#446DB5;" d="M-112,275.9c0,1.4,0,2.8,0,4.3c0,0.9,0,1.7-0.9,2c-0.6,0.2-2.1,0.3-2.7-0.1  c-0.9-0.5-0.7-1.9-0.7-2.7c0-2.9,0-5.8,0-8.7c0-1.6-0.8-4.7,1.5-4.8c0.5,0,1.1,0,1.5,0.1s0.7,0.6,1.1,0.7c1,0.2,1.7-1.3,2.7-1.2  c2.1,0.2,3.2,3,2.8,4.8c-0.3,1.1-1.6,1.7-2.6,1.1c-0.8-0.4-0.9-1.5-1.9-1.5C-113.1,270-111.4,275.9-112,275.9  C-112,277.5-112,275.9-112,275.9z"/> <path id="XMLID_201_" style="fill:#446DB5;" d="M-125.8,321.7c0,1.3,0,2.6,0,3.9c0,0.9,0.3,2.3,0,3.2c-0.3,0.8-1,1.1-1.8,0.9  c-0.5-0.1-0.8-0.5-1.3-0.5s-0.9,0.4-1.4,0.5c-4.1,0.7-3.8-7-3.2-9.3c0.4-1.4,1.8-3.2,3.4-3.2c0.8,0,1.2,0.5,1.4-0.4  s-0.5-1.5,0.1-2.4c0.4-0.6,1.3-0.9,2-0.6c0.8,0.4,0.8,1.1,0.8,1.8C-125.8,316.1-125.8,321.7-125.8,321.7  C-125.8,323.8-125.8,321.7-125.8,321.7z M-128.8,323.1c0-0.8,0.5-3.4-0.8-3.4s-0.9,2.7-1,3.5c0,0.7-0.5,3.7,0.9,3.6  C-128.5,326.7-128.8,323.9-128.8,323.1C-128.8,322.2-128.8,323.8-128.8,323.1z"/> <path id="XMLID_200_" style="fill:#446DB5;" d="M-108.1,297.7c0,2.5,0,5,0,7.5c0,2-0.2,3.8-2.7,3.2c-2.2-0.5-1.5-2.7-1.5-4.4  c0-2.5,0-5.1,0-7.6c0-2.4,0-4.7-0.1-7.1c-0.1-1.7,0.7-2.5,2.5-2.4c2.2,0.2,1.8,2,1.8,3.8C-108,291.2-108,297.7-108.1,297.7  C-108.1,300.6-108.1,297.7-108.1,297.7z"/> <path id="XMLID_199_" style="fill:#446DB5;" d="M-21.3,297.6c0-2.5,0-5,0-7.5c0-1.7-0.1-3.2,1.9-3.2c2.4,0,2.3,1.9,2.3,3.8  c0,2.5-0.1,5-0.1,7.4s-0.1,4.8,0,7.2c0.1,1.9-0.4,3.4-2.7,3c-1.8-0.3-1.4-2.4-1.4-3.8C-21.3,304-21.3,297.6-21.3,297.6  C-21.3,294.7-21.3,297.6-21.3,297.6z"/> <path id="XMLID_196_" style="fill:#446DB5;" d="M-13.7,340.1c0.2-1.4,0.4-2.5-0.5-3.8c-0.3-0.5-0.8-0.8-1.1-1.3  c-0.2-0.2-0.2-0.5-0.4-0.8s-0.5-0.4-0.7-0.7c-0.4-0.5-0.2-0.6-0.5-1.2c-0.3-0.6-1-0.8-1.1-1.6c-0.3-1.5,1.5-1.6,2.6-1.6  s2.8-0.3,3.5,0.8c0.3,0.5,0.3,1.2,0.5,1.7c0.3,0.8,0.9,1.5,1.5,2.3c0.8,1.1,1.2,2.3,2.1,3.3c0.9,1,1.9,2.1,2.8,3  c2.1,1.9,4.1,3.9,7.1,4.2c1.1,0.1,3.5-0.2,4.1,1.1c0.6,1.7-2.6,1.1-3.4,1c-1.6-0.2-2.6-0.4-3.9-1.3c-0.4-0.3-1-0.5-1.4-0.9  c-0.5-0.6-0.5-0.9-1.2-1.4c-2.5-1.6-4.3-4.1-6-6.4c-0.4-0.6-0.9-1-1.2-1.7c-0.2-0.3-0.3-1.2-0.7-1.3c-1.1-0.4-0.5,2.8-0.3,3.4  c0.5,1.4,2.1,2.1,3.2,3c1.3,1.2,3.1,2.2,4.1,3.6c-1.3,0.2-2.9-1.1-4-1.8c-1.2-0.8-2-1.9-3.1-2.8c-0.7,1.3,0.9,4.6-0.6,5.4  C-13.8,345.1-13.6,341-13.7,340.1C-13.6,339.8-13.6,341.5-13.7,340.1z M-14.9,331.2c-1.2,0-1.3,0.4-0.6,1.3s1.4,2.1,2.3,2.7  c0-0.4-0.3-1-0.1-1.4c0.2-0.5,0.9-0.4,1.1-0.8C-11.7,331.8-14.1,330.9-14.9,331.2C-15.2,331.2-13.9,330.9-14.9,331.2z"/> <path id="XMLID_195_" style="fill:#446DB5;" d="M-142.2,323.2c0-1.4-0.9-6,1.2-6.2c1.2-0.1,1.2,1,2.3,0.5c1.1-0.6,1.7-1,2.9,0.1  c1.7,1.5,1,5.4,1,7.4c0,1.1,0.3,6.3-2.4,4.2c-0.8-0.7-0.6-2.1-0.6-3c0-1.2,0-2.5,0-3.7c0-0.6,0.2-2.7-0.9-2.2  c-1,0.4-0.6,2.8-0.6,3.7c0,1.3,0.7,6.5-2.1,5.5c-1.1-0.4-0.9-1.6-0.9-2.6C-142.2,326.6-142.2,323.2-142.2,323.2  C-142.2,321.7-142.2,323.2-142.2,323.2z"/> <path id="XMLID_194_" style="fill:#446DB5;" d="M-103.6,322.9c0-1.4-0.8-6.3,1.7-5.9c0.4,0.1,0.9,0.6,1.3,0.6  c0.5,0,0.8-0.5,1.3-0.8c1-0.5,2,0.2,2.6,1.1c1.4,1.9,0.7,5.4,0.7,7.6c0,0.9,0.3,2.7-0.3,3.5c-0.4,0.5-1.5,0.7-2,0.2  c-0.6-0.6-0.3-2.3-0.3-3.1c0-1.5,0-2.9-0.1-4.4c0-0.7-0.5-2.6-1.5-1.4c-0.7,0.8-0.2,3-0.2,4c0,1.4,0.8,5.4-1.7,5.1  C-104.4,329.2-103.2,322.9-103.6,322.9C-103.6,321.6-103.6,322.9-103.6,322.9z"/> <path id="XMLID_191_" style="fill:#446DB5;" d="M-143.2,324.6c0,1.2,0.6,4.5-0.8,5c-0.8,0.3-1.6-0.4-2.4-0.4c-0.9,0-2,0.6-2.8,0.2  c-1.7-0.8-1.7-3-1.7-4.5c0-1.7,1.1-3.6,2.8-4c0.5-0.1,1.8,0.3,1.9-0.4c0.3-1-1.6-0.7-2-0.6c-0.7,0.1-1.3,0.4-1.7-0.3  c-0.5-0.9,0.3-1.7,1-2.1c1.7-1,4-0.6,5,1.2c0.5,1,0.7,1.9,0.7,3.1C-143.3,322-143.3,324.6-143.2,324.6  C-143.2,325.7-143.2,324.6-143.2,324.6z M-147.9,325c-0.2,0,0,1.8,0.6,1.9s1.3-1,1.4-1.4c0.1-0.5-0.4-1.9-0.9-2.1  C-147.9,322.8-147.9,324.4-147.9,325C-147.9,325-147.9,324.7-147.9,325z"/> <path id="XMLID_190_" style="fill:#446DB5;" d="M-154.5,300.1c0,2,0,4,0,6c0,1.5-0.1,2.2-1.7,2.3c-1.3,0.1-2.3-0.1-2.5-1.5  c-0.3-2,0-4.3,0-6.3s0-4.1,0-6.1c0-0.6-0.2-1.7,0.3-2.2c0.4-0.5,1.6-0.3,2.2-0.3c2.1,0,1.8,1.2,1.8,3  C-154.5,295.5-154.6,300.1-154.5,300.1C-154.5,302.2-154.5,300.1-154.5,300.1z"/> <path id="XMLID_189_" style="fill:#446DB5;" d="M-45.2,300.1c0,2.1,0.2,4.2,0,6.2c-0.1,1.4-0.6,1.9-2,2.1c-1.4,0.1-2.1-0.4-2.2-1.8  c-0.2-1.9,0-3.9,0-5.8c0-2.1-0.1-4.1,0-6.2c0.1-1.8,0.1-2.6,2-2.7s2.1,0.8,2.1,2.5C-45.2,295-45.2,300.1-45.2,300.1  C-45.2,302.2-45.2,300.1-45.2,300.1z"/> <path id="XMLID_188_" style="fill:#446DB5;" d="M-117.2,321.6c0,1.7-0.4,4.5,1.9,4.7c0.7,0.1,1.7-0.7,2.3,0.1  c0.4,0.5,0.2,2.3-0.2,2.7c-0.6,0.6-2.1,0.5-2.9,0.4c-1.1-0.1-1.8-0.7-2.5-1.5c-1.5-1.8-1.9-3.9-1.8-6.2c0.1-2.3,0.1-4.6,1.4-6.5  c1-1.4,3.4-2.9,5.1-2c0.7,0.4,1.2,1.2,1.1,2c-0.2,1.3-0.9,1-1.9,1C-117.5,316.2-117.2,319.8-117.2,321.6  C-117.2,322.5-117.2,321-117.2,321.6z"/> <path id="XMLID_187_" style="fill:#446DB5;" d="M-101.5,273.9c0,2,0,4,0,6.1c0,1.3-0.1,2.1-1.5,2.3c-2.2,0.2-2.5-0.5-2.6-2.5  c0-2,0-3.9-0.1-5.9c0-1.9,0-3.7,0-5.6c0-1.8,0-2.2,1.9-2.3c1.7,0,2.1,0.1,2.1,1.9C-101.5,269.9-101.5,271.9-101.5,273.9  C-101.5,276.1-101.5,271.7-101.5,273.9z"/> <path id="XMLID_186_" style="fill:#446DB5;" d="M-77.3,325.1c0,1.7-0.9,3.8-2.6,4.4c-1.2,0.4-5-0.3-3.7-2.3c0.7-1.2,3.9,1,3.4-1.5  c-0.2-0.9-1.3-1.3-2-1.8c-0.8-0.7-1.3-1.5-1.5-2.5c-0.4-1.7,0.4-3.4,2-4.3c1.2-0.7,3.9-0.3,3.7,1.6c-0.2,1.8-3.8,0.3-3.1,1.9  c0.3,0.7,2,1.2,2.6,1.8C-77.8,323.2-77.4,324.1-77.3,325.1C-77.2,326.7-77.4,324-77.3,325.1z"/> <path id="XMLID_185_" style="fill:#446DB5;" d="M-90.9,323.4c0.1-2.1,0.2-3.8,1.8-5.4c1.3-1.3,3.6-2.1,4.8-0.2  c0.4,0.6,0.5,1.6-0.3,1.9c-0.7,0.3-1.5-0.2-2.2,0.1c-1.4,0.7-1,3.2-0.9,4.4c0,0.8-0.1,1.6,0.7,2s1.4-0.2,2.2-0.1  c1.5,0.4,0.7,2.4-0.2,3c-1.4,0.8-3.2,0.4-4.2-0.8c-0.6-0.7-1.1-1.6-1.4-2.5C-90.8,325.7-90.9,323.4-90.9,323.4  C-90.9,322.5-90.9,323.4-90.9,323.4z"/> <path id="XMLID_184_" style="fill:#446DB5;" d="M-111.8,326.7c0-3.5,0-7.1,0.1-10.6c0-1.1-0.2-2.8,1.4-2.8c1.8,0,1.6,2.2,1.6,3.4  c-0.1,3.5,0.1,7-0.1,10.5c-0.1,1.1-0.3,2.6-1.7,2.3C-111.7,329.2-112.1,326.7-111.8,326.7C-111.8,324.8-111.9,326.7-111.8,326.7z"  /> <path id="XMLID_183_" style="fill:#446DB5;" d="M-104.7,323c0,1.5,0.9,6.1-1.2,6.5c-2.7,0.4-1.9-4.3-1.9-5.8s0-3,0-4.5  c0-1.1,0.1-1.9,1.4-1.9c1.4,0,1.7,0.5,1.7,1.8C-104.7,319.4-104.7,323-104.7,323C-104.7,324.4-104.7,323-104.7,323z"/> <path id="XMLID_182_" style="fill:#446DB5;" d="M-91.9,323.2c0,1.4,0.8,6-1.2,6.2c-2.6,0.3-1.7-4.5-1.7-6c0-1.6-1-6.3,1.5-6.3  C-90.7,317.2-92.5,323.2-91.9,323.2C-91.9,324.9-91.9,323.2-91.9,323.2z"/> <path id="XMLID_181_" style="fill:#446DB5;" d="M-101.5,262.7c0.1,3.1-4,3.3-4.1,0.2c-0.1-1.1,0.6-2.6,1.8-2.8  C-102.6,259.8-101.3,261.5-101.5,262.7C-101.5,263.5-101.4,261.7-101.5,262.7z"/> <path id="XMLID_180_" style="fill:#446DB5;" d="M-156.6,291.2c-3.1,0-2.6-5.4,0-5.1C-154,286.2-153.8,291.2-156.6,291.2  C-157.5,291.2-155.4,291.2-156.6,291.2z"/> <path id="XMLID_179_" style="fill:#446DB5;" d="M-47.4,286c1,0.5,2.3,1.5,2.2,2.8c-0.1,1.1-0.9,2.6-2.1,2.6c-1.3,0-1.9-1.1-2-2.2  C-49.5,287.6-48.7,286.7-47.4,286C-47.1,286.2-47.7,286.2-47.4,286z"/> <path id="XMLID_178_" style="fill:#446DB5;" d="M-16.3,340.6c-0.1,0.9,0,2-0.5,2.8c-0.6-0.5-1-1.3-1.1-2.1  c-0.1-0.9,0.5-1.6,0.4-2.4c-0.1-0.7-0.4-1.3-0.2-2.1c0.1-0.7,0.3-1.9,0.7-2.5c0.9,0.8,0.7,1.7,0.7,2.8  C-16.4,337.2-16.5,340.6-16.3,340.6C-16.4,341.4-16.3,340.6-16.3,340.6z"/> <path id="XMLID_177_" style="fill:#446DB5;" d="M-91.8,314.8c-0.2,2.4-3.4,1.9-3.1-0.3c0.1-0.9,1-1.9,2-1.7  C-92,313.1-92,313.9-91.8,314.8C-91.9,315.7-91.9,314.6-91.8,314.8z"/> <path id="XMLID_176_" style="fill:#446DB5;" d="M-106.3,316.4c-2.2,0.1-1.8-3.3,0-3.6C-104.4,312.4-104.1,316.5-106.3,316.4  C-107,316.5-105.5,316.4-106.3,316.4z"/> <path id="XMLID_175_" style="fill:#446DB5;" d="M-29.1,342.1c-0.1-0.1-0.3-0.1-0.4-0.2c0.4-0.6,0.7-0.7,1.4-0.6  C-28.4,341.8-28.5,341.9-29.1,342.1C-29.3,342-28.9,342-29.1,342.1z"/></g></svg>