<?xml version="1.0" encoding="utf-8"?>
<!-- Generator: Adobe Illustrator 16.0.0, SVG Export Plug-In . SVG Version: 6.00 Build 0)  -->
<!DOCTYPE svg PUBLIC "-//W3C//DTD SVG 1.1//EN" "http://www.w3.org/Graphics/SVG/1.1/DTD/svg11.dtd">
<svg version="1.1" id="Layer_1" xmlns="http://www.w3.org/2000/svg" xmlns:xlink="http://www.w3.org/1999/xlink" x="0px" y="0px"
	 width="127.169px" height="39.656px" viewBox="0 0 127.169 39.656" enable-background="new 0 0 127.169 39.656"
	 xml:space="preserve">
<g>
	<g>
		<path fill="#224099" d="M47.635,24.167c0,1.925,0.25,2.251,1.847,2.251v0.404h-4.387v-0.404c1.597,0,1.828-0.326,1.828-2.251
			v-6.253c0-1.925-0.231-2.232-1.828-2.232v-0.404h3.271l4.08,9.371l4.06-9.371h3.021v0.404c-1.616,0-1.847,0.308-1.847,2.232v6.253
			c0,1.925,0.231,2.251,1.847,2.251v0.404h-5.195v-0.404c1.597,0,1.828-0.326,1.828-2.251v-6.272l-4.002,9.255h-0.25l-4.271-9.832
			V24.167z"/>
		<path fill="#224099" d="M60.836,26.418c1.597,0,1.828-0.326,1.828-2.251v-6.253c0-1.925-0.231-2.232-1.828-2.232v-0.404h8.774
			l0.174,2.54H69.38l-0.096-0.385c-0.27-1-0.463-1.443-2.232-1.443h-2.848v4.368h0.962c1.924,0,2.231-0.23,2.231-1.848h0.404v4.407
			h-0.404c0-1.617-0.308-1.848-2.231-1.848h-0.962v2.81c0,1.924,0.23,2.231,1.828,2.231h1.654c1.77,0,1.982-0.442,2.232-1.462
			l0.096-0.385h0.404l-0.154,2.559h-9.428V26.418z"/>
		<path fill="#224099" d="M71.921,26.418c1.598,0,1.828-0.326,1.828-2.251v-6.253c0-1.925-0.23-2.232-1.828-2.232v-0.404h5.215
			c4.482,0,6.426,2.598,6.426,5.772s-1.943,5.772-6.426,5.772h-5.215V26.418z M75.288,23.879c0,1.924,0.212,2.231,1.789,2.231h0.078
			c3.752,0,4.56-2.809,4.56-5.061c0-2.251-0.808-5.061-4.56-5.061c-0.231,0-1.867,0-1.867,0V23.879z"/>
		<path fill="#224099" d="M85.507,26.822v-0.404c1.598,0,1.828-0.326,1.828-2.251v-6.253c0-1.925-0.23-2.232-1.828-2.232v-0.404
			h5.195v0.404c-1.598,0-1.828,0.308-1.828,2.232v6.253c0,1.925,0.23,2.251,1.828,2.251v0.404H85.507z"/>
		<path fill="#224099" d="M102.806,26.611c-0.096-0.462-0.404-0.924-0.654-1.098c-0.981,1.021-2.232,1.636-3.578,1.636
			c-3.252,0-5.908-2.751-5.908-6.1c0-3.348,2.656-6.1,5.908-6.1c1.346,0,2.597,0.597,3.578,1.636
			c0.25-0.192,0.559-0.615,0.654-1.097h0.385v4.233h-0.385c-0.539-2.502-2.021-4.021-4.156-4.021c-3.078,0-4.194,2.963-4.194,5.349
			s1.116,5.33,4.194,5.33c2.136,0,3.617-1.539,4.156-4.002h0.385v4.233H102.806z"/>
		<path fill="#224099" d="M106.751,24.956c-0.461,1.039-0.096,1.462,1.502,1.462v0.404h-4.503v-0.404
			c1.616,0,1.712-0.326,2.309-1.674l4.233-9.794h0.25l4.252,9.794c0.597,1.348,0.693,1.674,2.29,1.674v0.404h-5.329v-0.404
			c1.596,0,1.962-0.403,1.5-1.462l-0.924-2.136h-4.656L106.751,24.956z M109.983,17.472l-2,4.637h4.021L109.983,17.472z"/>
		<path fill="#224099" d="M116.95,26.418c1.598,0,1.828-0.326,1.828-2.251v-6.253c0-1.925-0.23-2.232-1.828-2.232v-0.404h5.195
			v0.404c-1.597,0-1.827,0.308-1.827,2.232v5.965c0,1.924,0.23,2.231,1.827,2.231h2.31c1.751,0,1.962-0.442,2.213-1.462l0.097-0.385
			h0.403l-0.153,2.559H116.95V26.418z"/>
	</g>
</g>
<g>
	<g>
		<path fill="#224099" d="M47.677,9.048c0,1.925,0.25,2.251,1.847,2.251v0.404h-4.387v-0.404c1.597,0,1.828-0.326,1.828-2.251V2.795
			c0-1.925-0.231-2.232-1.828-2.232V0.158h3.271l4.079,9.371l4.06-9.371h3.021v0.404c-1.616,0-1.847,0.308-1.847,2.232v6.253
			c0,1.925,0.231,2.251,1.847,2.251v0.404h-5.195v-0.404c1.597,0,1.828-0.326,1.828-2.251V2.775l-4.002,9.255h-0.25l-4.271-9.832
			V9.048z"/>
		<path fill="#224099" d="M68.056,12.03c-3.521,0-6.408-2.751-6.408-6.1c0-3.348,2.886-6.1,6.408-6.1c3.54,0,6.426,2.752,6.426,6.1
			C74.481,9.279,71.596,12.03,68.056,12.03z M63.476,5.931c0,2.386,1.27,5.33,4.58,5.33c3.328,0,4.598-2.944,4.598-5.33
			s-1.27-5.349-4.598-5.349C64.746,0.582,63.476,3.545,63.476,5.931z"/>
		<path fill="#224099" d="M84.239,8.855c1.135,1.347,2.424,2.31,3.578,2.443v0.404h-3.174l-3.811-5.061h-0.904v2.405
			c0,1.925,0.23,2.251,1.828,2.251v0.404h-5.195v-0.404c1.598,0,1.828-0.326,1.828-2.251V2.795c0-1.925-0.23-2.232-1.828-2.232
			V0.158h5.08c2.674,0,4.137,1.463,4.137,3.252c0,1.674-1.25,3.002-3.425,3.232L84.239,8.855z M84.065,3.41
			c0-1.385-0.77-2.54-2.443-2.54h-1.693v5.08h1.693C83.296,5.95,84.065,4.815,84.065,3.41z"/>
		<path fill="#224099" d="M96.824,7.316V6.932h5.042v0.385c-1.598,0-1.828,0.327-1.828,2.251v1.463c-2.137,0-3.002,1-5.003,1
			c-3.252,0-5.907-2.751-5.907-6.1c0-3.348,2.655-6.1,5.907-6.1c1.347,0,2.597,0.597,3.579,1.636
			c0.25-0.192,0.558-0.615,0.654-1.097h0.385v4.233h-0.385c-0.52-2.502-2.021-4.021-4.176-4.021c-3.078,0-4.195,2.963-4.195,5.349
			s1.001,5.272,4.561,5.272c1.674,0,3.176-0.904,3.176-2.636C98.634,7.739,98.151,7.316,96.824,7.316z"/>
		<path fill="#224099" d="M103.983,9.837c-0.461,1.039-0.096,1.462,1.502,1.462v0.404h-4.503v-0.404
			c1.616,0,1.712-0.326,2.309-1.674l4.233-9.794h0.25l4.252,9.794c0.597,1.348,0.693,1.674,2.29,1.674v0.404h-5.329v-0.404
			c1.596,0,1.962-0.403,1.5-1.462l-0.924-2.136h-4.656L103.983,9.837z M107.216,2.353l-2,4.637h4.021L107.216,2.353z"/>
		<path fill="#224099" d="M124.419,2.795c0-1.925-0.23-2.232-1.828-2.232V0.158h4.388v0.404c-1.597,0-1.847,0.308-1.847,2.232v9.235
			h-0.443l-7.831-9.678v6.695c0,1.925,0.25,2.251,1.847,2.251v0.404h-4.387v-0.404c1.598,0,1.828-0.326,1.828-2.251V2.795
			c0-1.925-0.23-2.232-1.828-2.232V0.158h2.713l7.389,9.159V2.795z"/>
	</g>
</g>
<g>
	<path fill="#224099" d="M67.421,39.408c-0.072-0.347-0.303-0.692-0.49-0.822c-0.736,0.765-1.675,1.227-2.685,1.227
		c-2.439,0-4.432-2.064-4.432-4.576s1.992-4.575,4.432-4.575c1.01,0,1.949,0.447,2.685,1.227c0.188-0.145,0.418-0.462,0.49-0.822
		h0.289v3.175h-0.289c-0.404-1.876-1.516-3.017-3.118-3.017c-2.31,0-3.147,2.223-3.147,4.013s0.837,3.999,3.147,3.999
		c1.602,0,2.713-1.155,3.118-3.003h0.289v3.176H67.421z"/>
	<path fill="#224099" d="M69.325,39.264c1.197,0,1.371-0.245,1.371-1.688v-4.691c0-1.443-0.174-1.675-1.371-1.675v-0.303h6.582
		l0.13,1.905h-0.304l-0.072-0.289c-0.201-0.75-0.346-1.082-1.674-1.082h-2.137v3.276h0.723c1.443,0,1.674-0.173,1.674-1.386h0.303
		v3.306h-0.303c0-1.212-0.23-1.386-1.674-1.386h-0.723v2.107c0,1.443,0.174,1.675,1.371,1.675h1.242
		c1.328,0,1.486-0.332,1.674-1.098l0.072-0.288h0.304l-0.116,1.92h-7.072V39.264z"/>
	<path fill="#224099" d="M85.317,32.884c0-1.443-0.174-1.675-1.371-1.675v-0.303h3.291v0.303c-1.198,0-1.386,0.231-1.386,1.675
		v6.929H85.52l-5.875-7.261v5.023c0,1.443,0.188,1.688,1.386,1.688v0.304h-3.291v-0.304c1.197,0,1.371-0.245,1.371-1.688v-4.691
		c0-1.443-0.174-1.675-1.371-1.675v-0.303h2.035l5.543,6.871V32.884z"/>
	<path fill="#224099" d="M96.552,32.854h-0.303l-0.072-0.288c-0.202-0.766-0.347-1.098-1.675-1.098h-1.891v6.106
		c0,1.443,0.188,1.688,1.386,1.688v0.304h-3.912v-0.304c1.198,0,1.386-0.245,1.386-1.688v-6.106h-1.892
		c-1.327,0-1.472,0.332-1.674,1.098l-0.072,0.288H87.53l0.13-1.948h8.762L96.552,32.854z"/>
	<path fill="#224099" d="M97.214,39.264c1.199,0,1.372-0.245,1.372-1.688v-4.691c0-1.443-0.173-1.675-1.372-1.675v-0.303h6.583
		l0.13,1.905h-0.303l-0.072-0.289c-0.203-0.75-0.347-1.082-1.675-1.082h-2.136v3.276h0.721c1.443,0,1.675-0.173,1.675-1.386h0.304
		v3.306h-0.304c0-1.212-0.231-1.386-1.675-1.386h-0.721v2.107c0,1.443,0.173,1.675,1.371,1.675h1.241
		c1.327,0,1.487-0.332,1.675-1.098l0.072-0.288h0.303l-0.115,1.92h-7.074V39.264z"/>
	<path fill="#224099" d="M111.388,37.431c0.852,1.011,1.819,1.732,2.686,1.833v0.304h-2.382l-2.858-3.797h-0.678v1.805
		c0,1.443,0.173,1.688,1.371,1.688v0.304h-3.898v-0.304c1.199,0,1.372-0.245,1.372-1.688v-4.691c0-1.443-0.173-1.675-1.372-1.675
		v-0.303h3.812c2.007,0,3.104,1.097,3.104,2.439c0,1.256-0.938,2.252-2.569,2.425L111.388,37.431z M111.259,33.346
		c0-1.039-0.578-1.905-1.834-1.905h-1.27v3.811h1.27C110.681,35.251,111.259,34.399,111.259,33.346z"/>
</g>
<line fill="none" stroke="#224099" x1="45.029" y1="34.832" x2="56.382" y2="34.832"/>
<line fill="none" stroke="#224099" x1="115.815" y1="34.832" x2="127.169" y2="34.832"/>
<polyline fill="none" stroke="#224099" stroke-width="2" points="0.099,38.672 7.973,38.672 7.973,2.519 19.771,14.313 
	31.555,2.519 31.555,9.814 "/>
<polyline fill="none" stroke="#71AFC5" stroke-width="2" points="30.541,38.671 38.38,38.671 38.38,7.553 19.802,25.5 
	10.833,16.844 "/>
<g>
	<polyline fill="none" stroke="#71AFC5" stroke-width="2" points="5.114,11.344 1.083,7.531 1.099,37.688 	"/>
	<line fill="none" stroke="#224099" stroke-width="2" x1="31.555" y1="18.292" x2="31.555" y2="37.669"/>
</g>
</svg>
