<?xml version="1.0" encoding="utf-8"?>
<!-- Generator: Adobe Illustrator 26.0.1, SVG Export Plug-In . SVG Version: 6.00 Build 0)  -->
<svg version="1.1" id="artwork" xmlns="http://www.w3.org/2000/svg" xmlns:xlink="http://www.w3.org/1999/xlink" x="0px" y="0px"
	 viewBox="0 0 239.5 183.8" style="enable-background:new 0 0 239.5 183.8;" xml:space="preserve">
<style type="text/css">
	.st0{fill:#004263;}
	.st1{fill:#4B9CD3;}
</style>
<g>
	<g>
		<g id="XMLID_00000132074162250871013840000005790190801458598799_">
			<g id="XMLID_00000111895391671796648990000004537882584523637423_">
				<path id="XMLID_00000033352983813503846870000005569922633826426247_" class="st0" d="M174.4,37.7c0,14.3,9.3,24,23,24
					c8.3,0,15.8-2.8,22.1-8.4l1.9-1.7v16.1L221,68c-6,4.5-15.6,7.4-25.1,7.4c-10.4,0-20.1-3.6-27.2-10.1c-7.6-7-11.6-16.5-11.6-27.6
					s4-20.7,11.6-27.6C175.8,3.6,185.5,0,195.9,0c9.5,0,19.1,2.8,25.1,7.4l0.5,0.3v16.1l-1.9-1.7c-6.3-5.5-13.8-8.4-22.1-8.4
					C183.4,13.7,174.4,23.1,174.4,37.7z M144.1,34.1L144.1,34.1l0-32.2H130v18.6c-3.7-3.1-23.5-18.6-48.9-18.6c0,4.6,0,13.5,0,13.5
					c30.3,0,51.6,22,63,37.9L144.1,34.1z"/>
				<path id="XMLID_00000052105599268932155230000008416829166224620210_" class="st1" d="M24.6,127.8v-14.3H9.3v14.3H2.7V95.4h6.6
					V108h15.3V95.4h6.6v32.4H24.6z M45.5,127.8V95.4h21.1v5.1H52.1v7.6h11.8v5.1H52.1v9.4h15.4l-1,5.1H45.5z M104.9,127.8l-3.3-8
					H88.5l-3.3,8h-6.4l13.8-32.4h5.1l13.8,32.4H104.9z M95,103.5l-4.8,11.8h9.6L95,103.5z M123.9,127.8V95.4h6.6v27.3H145l-1,5.1
					H123.9z M167.1,100.6v27.3h-6.6v-27.3h-11v-5.1H178v5.1H167.1z M212.1,127.8v-14.3h-15.3v14.3h-6.6V95.4h6.6V108h15.3V95.4h6.6
					v32.4H212.1z M50.2,1.8v38.2c0,14.1-5.6,21.3-16.8,21.3c-11.1,0-16.8-7.2-16.8-21.3V1.8H0v38.7c0,22.1,12.4,35.3,33.2,35.3
					c21,0,33.1-12.9,33.1-35.3V1.8H50.2z M81.1,73.8l14.1,0l0-32c0,0,19.7,5.3,33.2,32l15.7,0c0,0-22.9-47.7-63-47.7V73.8z"/>
			</g>
		</g>
		<g>
			<path class="st0" d="M2.7,147.5h7.2l16.5,23.2c-0.1-1.5-0.2-3.2-0.2-4.9v-18.3h7.6v35.5h-7.2l-16.5-23.2c0.1,1.5,0.2,3.2,0.2,4.9
				v18.3H2.7V147.5z"/>
			<path class="st0" d="M63.8,178.4c0.4,0,0.9-0.1,1.3-0.2v4.6c-1.1,0.4-2.5,0.7-3.9,0.7c-2.5,0-4.4-0.9-5.4-2.7
				c-2.4,1.9-5.2,3-8.8,3c-4.6,0-8.5-2.6-8.5-7.5c0-6.2,5.8-8.1,10.7-8.1c1.9,0,4.1,0.3,5.8,0.7V168c0-2.4-1.9-4.1-5.7-4.1
				c-3.3,0-6.3,0.9-8.6,1.8v-6.1c2-0.7,5.7-1.6,9.4-1.6c7.3,0,12,3,12,11v7.8C62,178,62.9,178.4,63.8,178.4z M45.7,175.8
				c0,1.8,1.7,3,3.8,3c2,0,3.9-0.6,5.5-2V173c-1.1-0.3-2.7-0.6-4.2-0.6C48.2,172.4,45.7,173.3,45.7,175.8z"/>
			<path class="st0" d="M77.5,158c3.4,0,6.5,0.9,9,2.1v5.8c-2.1-1.4-5.6-2.5-8.5-2.5c-1.6,0-3.4,0.5-3.4,1.9c0,4.1,13.7,2,13.7,11
				c0,5.7-5.2,7.5-11.1,7.5c-3.7,0-7.2-0.8-9.7-2.3v-5.8c2.6,1.7,6.3,2.6,9.3,2.6c2.6,0,4.3-0.5,4.3-1.8c0-3.9-13.7-2.2-13.7-10.9
				C67.4,159.9,72.4,158,77.5,158z"/>
			<path class="st0" d="M99.7,160.9c1.8-1.7,4.3-2.9,7.3-2.9c6.4,0,9.9,4.4,9.9,10v15.1h-7.1v-14.2c0-3.3-2-4.8-4.7-4.8
				c-2.5,0-4.4,1.6-5.4,3.1v15.9h-7.1v-35.5h7.1V160.9z"/>
		</g>
	</g>
	<g>
		<path class="st1" d="M232.5,127.7c-3.4,0-7-2.3-7-6.7s3.6-6.7,7-6.7c3.4,0,7,2.3,7,6.7S235.9,127.7,232.5,127.7z M232.6,127
			c3.1,0,6.3-2,6.3-6c0-4-3.2-6-6.3-6c-3.1,0-6.3,2-6.3,6C226.3,125,229.4,127,232.6,127z M229.8,117.3h3.3c1.3,0,2.8,0.5,2.8,2.4
			c0,1.2-0.7,1.9-1.6,2.1l2,2.7h-1.6l-1.8-2.6h-0.2h-1.5v2.6h-1.4V117.3z M232.9,120.8c0.6,0,1.5,0,1.5-1.1c0-1-0.9-1.1-1.5-1.1
			h-1.7v2.1H232.9z"/>
	</g>
</g>
</svg>
