<svg id="Layer_1" data-name="Layer 1" xmlns="http://www.w3.org/2000/svg" viewBox="0 0 427.29 154.32"><defs><style>.cls-1{fill:#fff;}.cls-2{fill:#7d903a;}</style></defs><path class="cls-1" d="M11.63,120.37c0,3.38-.06,5.79,3.14,7.66v.18H4.09V128c3.2-1.87,3.2-4.28,3.2-7.66V96.31c0-3.38,0-5.79-3.14-7.6v-.18H13v.06a3.72,3.72,0,0,0,.9,1.5l.85,1.21,22.07,27.87V96.31c0-3.38.06-5.79-3.14-7.6v-.18H44.26v.18c-3.14,1.81-3.14,4.22-3.14,7.6v33.83c-4.28-1.44-6.15-3.44-8.8-6.87L11.63,97Z" transform="translate(-3.12 -12.82)"/><path class="cls-1" d="M49,124l6.39.6a12.52,12.52,0,0,0,9.29-3h.15l-2.26,6.58h-21v-.15c2.57-.9,2.27-4.62,2.27-6.88v-19c0-2.32.3-6-2.27-6.94v-.15H57.69a5.14,5.14,0,0,0,2.36-.25h.15v5.88h-.15c-1.56-1.81-3.62-2-5.93-2a28.52,28.52,0,0,0-5.13.35v9.35h6a5.14,5.14,0,0,0,2.21-.3h.16v5.32h-.16c-.8-1.45-2.91-1.4-4.47-1.4H49Z" transform="translate(-3.12 -12.82)"/><path class="cls-1" d="M80.25,97.91c7.94,0,12.62,7.08,12.62,14.42S88,125.4,80.35,125.4c-7.89,0-12.86-7.24-12.86-14.28C67.49,103.53,72.46,97.91,80.25,97.91Zm.36-3.62C70.05,94,61.76,102,61.76,111.58c0,10.3,8.39,17.44,18.34,17.44s18.5-7.44,18.5-17.7C98.6,102.28,91.16,94.24,80.61,94.29Z" transform="translate(-3.12 -12.82)"/><path class="cls-1" d="M117.55,101.12A11.45,11.45,0,0,0,109.66,98c-2.87,0-6.49,1.11-6.49,4.58,0,6.88,17.29,6.78,17.29,16.08C120.46,124,114.83,129,107,129a26.22,26.22,0,0,1-9-1.51l-1.45-6.29a17.34,17.34,0,0,0,11,4.18c2.87,0,7.19-1.71,7.19-5.23,0-7.84-17.29-6.43-17.29-17.09,0-6.33,6.49-8.75,12.62-8.75a25.45,25.45,0,0,1,7.49,1.11Z" transform="translate(-3.12 -12.82)"/><path class="cls-1" d="M126.14,112.08v9.1c0,2.26-.3,5.92,2.21,6.88v.15H118.8v-.15c2.51-1,2.21-4.62,2.21-6.88v-19c0-2.27.36-5.93-2.21-6.89v-.15h9.55v.15c-2.51,1-2.21,4.62-2.21,6.94v6.23h18.14v-6.23c0-2.32.36-6-2.21-6.94v-.15h9.6v.15c-2.56,1-2.26,4.62-2.26,6.89v19c0,2.26-.3,5.92,2.26,6.88v.15h-9.6v-.15c2.57-1,2.21-4.62,2.21-6.88v-9.1Z" transform="translate(-3.12 -12.82)"/><path class="cls-1" d="M169.21,97.91c7.94,0,12.62,7.08,12.62,14.42S177,125.4,169.31,125.4c-7.89,0-12.86-7.24-12.86-14.28C156.45,103.53,161.42,97.91,169.21,97.91Zm.35-3.62C159,94,150.72,102,150.72,111.58c0,10.3,8.39,17.44,18.34,17.44s18.5-7.44,18.5-17.7C187.56,102.28,180.12,94.24,169.56,94.29Z" transform="translate(-3.12 -12.82)"/><path class="cls-1" d="M228.44,92.33a10.7,10.7,0,0,0,.9-3.74v-.06h10.44v.18c-1.45.42-1.87,2.17-1.87,3.56l4,29.61c.36,2.83.66,4.46,3.08,6.15v.18H233.33V128c2.11-.66,2.47-2.47,2.47-4.52l-3.44-29.07L218.85,129c-3-2.29-3.86-3.91-5.31-7.29L202.08,94.5l-3.43,25.93c-.49,3.68-.91,6.33,1.93,7.6v.18h-9.84V128c2.54-2.23,2.9-5.19,3.38-8.44l3.44-25.27c.24-1.69.9-4.11-1.87-5.61v-.18h10.55v.06a7.16,7.16,0,0,0,.85,2.71l11.34,26.6Z" transform="translate(-3.12 -12.82)"/><path class="cls-1" d="M249.88,124l6.38.6a12.53,12.53,0,0,0,9.3-3h.15l-2.26,6.58h-21v-.15c2.57-.9,2.26-4.62,2.26-6.88v-19c0-2.32.31-6-2.26-6.94v-.15h16.09a5.16,5.16,0,0,0,2.36-.25h.15v5.88h-.15c-1.56-1.81-3.62-2-5.93-2a28.52,28.52,0,0,0-5.13.35v9.35h6a5.14,5.14,0,0,0,2.21-.3h.15v5.32h-.15c-.8-1.45-2.91-1.4-4.47-1.4h-3.72Z" transform="translate(-3.12 -12.82)"/><path class="cls-1" d="M294.26,98.31a8.89,8.89,0,0,0,.75-3.12v0h8.7v.15c-1.21.35-1.56,1.81-1.56,3l3.32,24.68c.3,2.36.55,3.71,2.56,5.12v.15h-9.7v-.15c1.76-.55,2.06-2.06,2.06-3.77l-2.86-24.22-11.26,28.79c-2.51-1.91-3.22-3.26-4.42-6.08l-9.55-22.66-2.87,21.61c-.4,3.06-.75,5.27,1.61,6.33v.15h-8.19v-.15c2.11-1.86,2.41-4.32,2.81-7L268.53,100c.2-1.4.75-3.41-1.56-4.67v-.15h8.79v0a6,6,0,0,0,.71,2.26l9.45,22.17Z" transform="translate(-3.12 -12.82)"/><path class="cls-1" d="M323.86,97.91c7.94,0,12.62,7.08,12.62,14.42S331.6,125.4,324,125.4c-7.89,0-12.86-7.24-12.86-14.28C311.1,103.53,316.07,97.91,323.86,97.91Zm.35-3.62c-10.55-.25-18.84,7.74-18.84,17.29,0,10.3,8.39,17.44,18.34,17.44s18.5-7.44,18.5-17.7C342.21,102.28,334.77,94.24,324.21,94.29Z" transform="translate(-3.12 -12.82)"/><path class="cls-1" d="M353.57,95.14c6.73,0,10.4,3.52,10.4,8.09s-3.87,7.89-8,8.85l7.24,9.1a35.19,35.19,0,0,0,8.14,7h-4.63c-2.66,0-4.32-.65-5.82-2.51l-6.14-7.59L350.15,111c4-.6,8.69-2.46,8.69-7.19,0-3.61-3.11-5.73-6.48-5.57a26.55,26.55,0,0,0-3.42.4v22.52c0,2.31-.3,6,2.26,6.88v.15h-9.6v-.15c2.57-.9,2.22-4.62,2.22-6.88v-19c0-2.32.35-6-2.22-6.94v-.15Z" transform="translate(-3.12 -12.82)"/><path class="cls-1" d="M367.09,102.23c0-2.32.35-6-2.22-6.94v-.15h9.55v.15c-2.51,1-2.21,4.67-2.21,6.94v19c0,2.26-.3,5.92,2.21,6.88v.15h-9.55v-.15c2.52-.9,2.22-4.62,2.22-6.88Z" transform="translate(-3.12 -12.82)"/><path class="cls-1" d="M394.63,112.08h-9.9l5-12.67Zm1.46,3.72,2.71,7.08c1.36,3.52,1.76,4.07-.7,5.18v.15h10.3v-.15c-2.86-1.46-3.77-4.27-4.93-7.14L393,95.14h-7.94v.15c2.41.75,1.46,2.87.75,4.67l-8.39,21c-1.1,2.87-2,5.68-4.87,7.14v.15h9.24v-.15c-2.41-.9-2.06-2.36-1-5.18l2.61-7.08Z" transform="translate(-3.12 -12.82)"/><path class="cls-1" d="M421.12,124.59a12.36,12.36,0,0,0,8.89-3.06h.15l-2.61,6.68H406.89v-.15c2.57-.9,2.26-4.62,2.26-6.88v-19c0-2.32.31-6-2.26-6.94v-.15h9.6v.15c-2.56,1-2.21,4.67-2.21,6.94v21.91Z" transform="translate(-3.12 -12.82)"/><path class="cls-1" d="M14.49,134.59c6.4,0,9.88,3.35,9.88,7.69s-3.68,7.5-7.59,8.41l6.88,8.64A33.46,33.46,0,0,0,31.39,166H27c-2.53,0-4.11-.62-5.54-2.39l-5.83-7.21-4.39-6.73c3.82-.57,8.26-2.34,8.26-6.82,0-3.44-3-5.45-6.16-5.31a25.35,25.35,0,0,0-3.24.39v21.39c0,2.19-.29,5.68,2.14,6.54V166H3.12v-.14c2.44-.86,2.11-4.39,2.11-6.54v-18c0-2.2.33-5.69-2.11-6.59v-.15Z" transform="translate(-3.12 -12.82)"/><path class="cls-1" d="M31.31,163.06l4.47.42a8.74,8.74,0,0,0,6.5-2.08h.11L40.81,166H26.14v-.1c1.79-.64,1.58-3.24,1.58-4.82V147.82c0-1.62.21-4.18-1.58-4.85v-.11H37.39a3.71,3.71,0,0,0,1.66-.17h.1v4.11h-.1c-1.09-1.26-2.54-1.4-4.15-1.4a19.93,19.93,0,0,0-3.59.24v6.55h4.18A3.45,3.45,0,0,0,37,152h.11v3.73H37c-.56-1-2-1-3.13-1h-2.6Z" transform="translate(-3.12 -12.82)"/><path class="cls-1" d="M62,146.94h-.11c-1.44-1.62-4.12-2.11-6.26-2.11-5.49,0-9.68,3.59-9.68,9.25A9.91,9.91,0,0,0,56,164a17.69,17.69,0,0,0,4.89-.67v-5.06c0-1.62,0-3.34-1.61-4v-.1h5.38v.1a4.07,4.07,0,0,0-.18,1.51v8.1a4,4,0,0,0,.18,1.58,45.31,45.31,0,0,1-8.41,1c-9,0-14.32-4.92-14.32-12,0-7.57,6-12.28,14.53-12.28a26.38,26.38,0,0,1,5.53.6Z" transform="translate(-3.12 -12.82)"/><path class="cls-1" d="M66.21,147.82c0-1.62.24-4.18-1.55-4.85v-.11h6.68V143c-1.76.67-1.54,3.27-1.54,4.85v13.27c0,1.58-.22,4.15,1.54,4.82v.1H64.66v-.1c1.76-.64,1.55-3.24,1.55-4.82Z" transform="translate(-3.12 -12.82)"/><path class="cls-1" d="M84.5,144.8c5.56,0,8.83,5,8.83,10.1S89.92,164,84.57,164c-5.52,0-9-5.06-9-10C75.57,148.74,79.05,144.8,84.5,144.8Zm.25-2.54c-7.39-.17-13.19,5.42-13.19,12.11,0,7.21,5.87,12.2,12.84,12.2s12.94-5.2,12.94-12.38C97.34,147.86,92.14,142.23,84.75,142.26Z" transform="translate(-3.12 -12.82)"/><path class="cls-1" d="M102,161.44c0,2,0,3.38,1.83,4.47v.1H97.59v-.1c1.87-1.09,1.87-2.5,1.87-4.47v-14c0-2,0-3.38-1.83-4.43v-.11h5.13v0a2.14,2.14,0,0,0,.53.88l.49.7,12.88,16.26V147.4c0-2,0-3.38-1.83-4.43v-.11H121V143c-1.83,1.05-1.83,2.46-1.83,4.43v19.74c-2.5-.85-3.59-2-5.14-4L102,147.82Z" transform="translate(-3.12 -12.82)"/><path class="cls-1" d="M135.62,154.72h-6.93l3.48-8.87Zm1,2.6,1.9,5c1,2.47,1.23,2.85-.49,3.63v.1h7.21v-.1c-2-1-2.64-3-3.45-5l-7.32-18h-5.55V143c1.69.53,1,2,.52,3.27l-5.87,14.67c-.78,2-1.37,4-3.41,5v.1h6.47v-.1c-1.69-.64-1.44-1.66-.7-3.63l1.83-5Z" transform="translate(-3.12 -12.82)"/><path class="cls-1" d="M155,163.48a8.66,8.66,0,0,0,6.23-2.15h.1L159.54,166H145.08v-.1c1.8-.64,1.59-3.24,1.59-4.82V147.82c0-1.62.21-4.18-1.59-4.85v-.11h6.72V143c-1.79.67-1.54,3.27-1.54,4.85v15.34Z" transform="translate(-3.12 -12.82)"/><path class="cls-1" d="M191.8,137.6a8.23,8.23,0,0,0,.72-3v0h8.26v.15c-1.15.33-1.48,1.72-1.48,2.81L202.45,161c.29,2.24.53,3.53,2.44,4.87V166h-9.22v-.14c1.67-.53,2-2,2-3.58l-2.72-23-10.7,27.36c-2.39-1.81-3.05-3.1-4.2-5.77l-9.07-21.54-2.72,20.53c-.38,2.92-.72,5,1.52,6V166H162v-.14c2-1.77,2.29-4.11,2.67-6.69l2.73-20c.19-1.34.71-3.25-1.48-4.44v-.15h8.35v0a5.57,5.57,0,0,0,.67,2.15l9,21.06Z" transform="translate(-3.12 -12.82)"/><path class="cls-1" d="M207.91,163.06l4.47.42a8.75,8.75,0,0,0,6.5-2.08H219L217.41,166H202.74v-.1c1.79-.64,1.58-3.24,1.58-4.82V147.82c0-1.62.21-4.18-1.58-4.85v-.11H214a3.71,3.71,0,0,0,1.66-.17h.1v4.11h-.1c-1.09-1.26-2.54-1.4-4.15-1.4a19.87,19.87,0,0,0-3.59.24v6.55h4.18a3.45,3.45,0,0,0,1.55-.22h.11v3.73h-.11c-.56-1-2-1-3.13-1h-2.6Z" transform="translate(-3.12 -12.82)"/><path class="cls-1" d="M223.32,145.78a14.21,14.21,0,0,1,3.16-.38c5.88,0,9.33,3.09,9.33,9.25s-4.68,8.83-9.93,8.83a12.08,12.08,0,0,1-2.56-.25ZM219.73,161c0,2.07.21,3.76-1.55,5v.1h8.44c7.88,0,13.2-4.85,13.2-11.78s-5-11.37-13-11.37h-8.62V143c1.79.53,1.55,3.1,1.55,4.71Z" transform="translate(-3.12 -12.82)"/><path class="cls-1" d="M241.05,147.82c0-1.62.24-4.18-1.55-4.85v-.11h6.69V143c-1.76.67-1.55,3.27-1.55,4.85v13.27c0,1.58-.21,4.15,1.55,4.82v.1H239.5v-.1c1.76-.64,1.55-3.24,1.55-4.82Z" transform="translate(-3.12 -12.82)"/><path class="cls-1" d="M264.16,147.23a12.15,12.15,0,0,0-6.51-2c-4.85,0-8.23,3.55-8.23,8.65s3.52,9.78,8.94,9.78a15.56,15.56,0,0,0,7.49-2.21H266l-1.8,4.08a12.51,12.51,0,0,1-5.31,1c-8.3,0-13.44-4.64-13.44-12.17,0-7.28,5.14-12.1,12.35-12.1a28.12,28.12,0,0,1,6.4.88Z" transform="translate(-3.12 -12.82)"/><path class="cls-1" d="M278.8,154.72h-6.93l3.48-8.87Zm1,2.6,1.9,5c.95,2.47,1.23,2.85-.49,3.63v.1h7.21v-.1c-2-1-2.64-3-3.45-5l-7.32-18h-5.56V143c1.69.53,1,2,.53,3.27l-5.87,14.67c-.78,2-1.38,4-3.42,5v.1h6.48v-.1c-1.69-.64-1.45-1.66-.71-3.63l1.83-5Z" transform="translate(-3.12 -12.82)"/><path class="cls-1" d="M297.34,163.48a8.66,8.66,0,0,0,6.23-2.15h.1L301.84,166H287.38v-.1c1.8-.64,1.59-3.24,1.59-4.82V147.82c0-1.62.21-4.18-1.59-4.85v-.11h6.72V143c-1.79.67-1.55,3.27-1.55,4.85v15.34Z" transform="translate(-3.12 -12.82)"/><path class="cls-1" d="M334.09,140.51a16.63,16.63,0,0,0-8.84-2.72c-6.59,0-11.17,4.83-11.17,11.75s4.77,13.27,12.13,13.27a21.14,21.14,0,0,0,10.17-3h.14l-2.43,5.53a16.82,16.82,0,0,1-7.21,1.44c-11.27,0-18.24-6.31-18.24-16.52,0-9.89,7-16.43,16.76-16.43a38.62,38.62,0,0,1,8.69,1.19Z" transform="translate(-3.12 -12.82)"/><path class="cls-1" d="M339.4,163.06l4.47.42a8.78,8.78,0,0,0,6.51-2.08h.1L348.9,166H334.23v-.1c1.79-.64,1.58-3.24,1.58-4.82V147.82c0-1.62.21-4.18-1.58-4.85v-.11h11.25a3.71,3.71,0,0,0,1.66-.17h.1v4.11h-.1c-1.09-1.26-2.53-1.4-4.15-1.4a19.93,19.93,0,0,0-3.59.24v6.55h4.18a3.45,3.45,0,0,0,1.55-.22h.11v3.73h-.11c-.56-1-2-1-3.13-1h-2.6Z" transform="translate(-3.12 -12.82)"/><path class="cls-1" d="M355.72,161.44c0,2,0,3.38,1.83,4.47v.1h-6.23v-.1c1.87-1.09,1.87-2.5,1.87-4.47v-14c0-2,0-3.38-1.83-4.43v-.11h5.14v0a2.24,2.24,0,0,0,.52.88l.5.7,12.87,16.26V147.4c0-2,0-3.38-1.83-4.43v-.11h6.2V143c-1.83,1.05-1.83,2.46-1.83,4.43v19.74c-2.5-.85-3.59-2-5.14-4l-12.07-15.31Z" transform="translate(-3.12 -12.82)"/><path class="cls-1" d="M385.17,161.44c0,2,0,3.38,1.83,4.47v.1h-7v-.1c1.76-.67,1.55-3.24,1.55-4.82V145.4h-3.1a6.09,6.09,0,0,0-4.18,1.4h-.11l1.23-4.18h.11a5.88,5.88,0,0,0,1.34.24h14a4,4,0,0,0,1.62-.24h.1l-1.12,4.18h-.11c-.46-1.23-1.86-1.4-3-1.4h-3.17Z" transform="translate(-3.12 -12.82)"/><path class="cls-1" d="M397.45,163.06l4.47.42a8.74,8.74,0,0,0,6.5-2.08h.11L407,166H392.28v-.1c1.79-.64,1.58-3.24,1.58-4.82V147.82c0-1.62.21-4.18-1.58-4.85v-.11h11.25a3.71,3.71,0,0,0,1.66-.17h.1v4.11h-.1c-1.09-1.26-2.53-1.4-4.15-1.4a19.93,19.93,0,0,0-3.59.24v6.55h4.18a3.45,3.45,0,0,0,1.55-.22h.11v3.73h-.11c-.56-1-2-1-3.13-1h-2.6Z" transform="translate(-3.12 -12.82)"/><path class="cls-1" d="M418,142.86c4.71,0,7.28,2.46,7.28,5.67s-2.71,5.52-5.59,6.19l5.06,6.37a24.89,24.89,0,0,0,5.7,4.92h-3.23a4.59,4.59,0,0,1-4.08-1.76l-4.3-5.31-3.23-5c2.81-.42,6.08-1.72,6.08-5,0-2.53-2.18-4-4.54-3.91a19.45,19.45,0,0,0-2.39.28v15.77c0,1.61-.21,4.18,1.58,4.82v.1h-6.71v-.1c1.79-.64,1.54-3.24,1.54-4.82V147.82c0-1.62.25-4.18-1.54-4.85v-.11Z" transform="translate(-3.12 -12.82)"/><polygon class="cls-2" points="190.38 56.1 173.58 72.88 156.67 56.02 173.54 39.27 190.38 56.1"/><polygon class="cls-2" points="230.43 56.1 213.63 72.88 196.72 56.02 213.6 39.27 230.43 56.1"/><polygon class="cls-2" points="250.07 36.47 233.26 53.24 216.35 36.39 233.23 19.63 250.07 36.47"/><polygon class="cls-2" points="230.43 16.84 213.63 33.61 196.72 16.75 213.6 0 230.43 16.84"/><polygon class="cls-2" points="210.57 36.71 193.76 53.48 176.85 36.62 193.73 19.87 210.57 36.71"/><polygon class="cls-2" points="269.7 56.1 252.89 72.88 235.99 56.02 252.86 39.27 269.7 56.1"/><polygon class="cls-2" points="151.64 56.65 162.74 68.38 0.9 68.42 1.07 56.86 151.64 56.65"/><polygon class="cls-2" points="427.29 68.77 265.02 68.42 276.83 56.35 427.29 56.35 427.29 68.77"/><polygon class="cls-1" points="161.69 121.98 161.69 124.71 22.85 124.92 19.75 121.94 161.69 121.98"/><polygon class="cls-1" points="308.28 124.92 198.91 124.8 198.66 121.78 312.51 121.94 308.28 124.92"/><polygon class="cls-1" points="424.09 122.19 424.09 125.55 333.88 125.46 334.04 122.41 424.09 122.19"/></svg>