<?xml version="1.0" encoding="utf-8"?>
<!-- Generator: Adobe Illustrator 23.0.1, SVG Export Plug-In . SVG Version: 6.00 Build 0)  -->
<svg version="1.1" id="Layer_1" xmlns="http://www.w3.org/2000/svg" xmlns:xlink="http://www.w3.org/1999/xlink" x="0px" y="0px"
	 viewBox="0 0 353 106" style="enable-background:new 0 0 353 106;" xml:space="preserve">
<style type="text/css">
	.st0{clip-path:url(#SVGID_2_);fill:#93CC86;}
	.st1{clip-path:url(#SVGID_2_);fill:#0454A5;}
	.st2{clip-path:url(#SVGID_2_);fill:#512774;}
	.st3{clip-path:url(#SVGID_2_);fill-rule:evenodd;clip-rule:evenodd;fill:#14B1E7;}
	.st4{clip-path:url(#SVGID_2_);fill-rule:evenodd;clip-rule:evenodd;fill:#FFFFFF;}
	.st5{clip-path:url(#SVGID_2_);fill-rule:evenodd;clip-rule:evenodd;}
	.st6{clip-path:url(#SVGID_2_);}
</style>
<g>
	<defs>
		<rect id="SVGID_1_" x="-225" y="-386" width="792" height="612"/>
	</defs>
	<clipPath id="SVGID_2_">
		<use xlink:href="#SVGID_1_"  style="overflow:visible;"/>
	</clipPath>
	<polygon class="st0" points="161.9,70.7 159.8,70.7 159.8,59.4 145.5,59.4 145.5,70.7 143.3,70.7 143.3,46.3 145.5,46.3 
		145.5,57.3 159.8,57.3 159.8,46.3 161.9,46.3 	"/>
	<path class="st0" d="M166.5,58.5c0-1.7,0.3-3.3,1-4.9c0.7-1.5,1.5-2.8,2.7-4c1.1-1.1,2.5-2,4-2.7c1.5-0.7,3.1-1,4.8-1
		c1.7,0,3.3,0.3,4.9,1c1.5,0.7,2.8,1.5,4,2.7c1.1,1.1,2,2.4,2.7,4c0.7,1.5,1,3.1,1,4.9c0,1.7-0.3,3.3-1,4.9c-0.7,1.5-1.5,2.8-2.7,4
		c-1.1,1.1-2.4,2-4,2.7c-1.5,0.7-3.1,1-4.9,1c-1.7,0-3.3-0.3-4.8-1c-1.5-0.7-2.8-1.5-4-2.7c-1.1-1.1-2-2.4-2.7-4
		S166.5,60.2,166.5,58.5 M168.6,58.5c0,1,0.1,1.9,0.4,2.7c0.2,0.9,0.6,1.7,1,2.5c0.4,0.8,1,1.5,1.6,2.1c0.6,0.6,1.3,1.2,2.1,1.6
		c0.8,0.5,1.6,0.8,2.5,1c0.9,0.2,1.8,0.4,2.7,0.4c1,0,1.9-0.1,2.7-0.4c0.9-0.2,1.7-0.6,2.5-1c0.8-0.5,1.5-1,2.1-1.6
		c0.6-0.6,1.2-1.3,1.6-2.1c0.5-0.8,0.8-1.6,1-2.5c0.2-0.9,0.4-1.8,0.4-2.7c0-1.4-0.3-2.8-0.8-4c-0.5-1.3-1.3-2.3-2.2-3.3
		s-2-1.7-3.3-2.2c-1.3-0.5-2.6-0.8-4-0.8c-1,0-1.9,0.1-2.7,0.4c-0.9,0.2-1.7,0.6-2.5,1c-0.8,0.5-1.5,1-2.1,1.6s-1.2,1.3-1.6,2.1
		c-0.4,0.8-0.8,1.6-1,2.5C168.7,56.6,168.6,57.5,168.6,58.5"/>
	<path class="st0" d="M205.2,49.5c-0.3-0.2-0.5-0.4-0.7-0.5c-0.2-0.2-0.4-0.3-0.6-0.4c-0.2-0.1-0.5-0.2-0.8-0.3
		c-0.3-0.1-0.7-0.1-1.1-0.1c-0.7,0-1.3,0.1-1.9,0.3c-0.6,0.2-1.1,0.5-1.6,0.9c-0.4,0.4-0.8,0.8-1.1,1.3c-0.3,0.5-0.4,1-0.4,1.6
		c0,0.6,0.1,1.2,0.2,1.6c0.2,0.4,0.4,0.8,0.8,1.1c0.4,0.3,0.9,0.6,1.5,0.9c0.6,0.3,1.4,0.6,2.4,0.9c0.5,0.2,1,0.4,1.4,0.5
		c0.4,0.2,0.8,0.3,1.2,0.5s0.7,0.3,1.1,0.5c0.3,0.2,0.7,0.4,1,0.6c0.8,0.6,1.4,1.4,1.7,2.2s0.5,1.9,0.5,2.9c0,1.1-0.2,2-0.6,2.9
		c-0.4,0.9-1,1.6-1.7,2.2c-0.7,0.6-1.6,1.1-2.5,1.4c-1,0.3-2,0.5-3.1,0.5c-2.1,0-3.9-0.6-5.4-1.9c-0.4-0.4-0.7-0.7-1-1.1
		c-0.3-0.4-0.5-0.7-0.7-1l0.3-0.2c0.4-0.2,0.7-0.3,1.1-0.3c0.3,0,0.5,0,0.8,0.1c0.2,0.1,0.5,0.2,0.7,0.4c0.5,0.4,0.9,0.8,1.3,1
		c0.4,0.2,0.7,0.4,1.1,0.5c0.3,0.1,0.7,0.2,1,0.2c0.3,0,0.6,0,1,0.1c0.7,0,1.4-0.1,2-0.2c0.7-0.2,1.3-0.5,1.9-0.8
		c0.5-0.4,1-0.9,1.3-1.5c0.3-0.6,0.5-1.3,0.5-2.2c0-0.9-0.1-1.7-0.4-2.2c-0.3-0.6-0.6-1-1.1-1.4c-0.5-0.4-1.1-0.6-1.7-0.9
		c-0.7-0.2-1.4-0.5-2.1-0.8c-1-0.4-1.8-0.7-2.6-1.1c-0.8-0.3-1.5-0.7-2-1.2c-0.6-0.4-1-1-1.3-1.7c-0.3-0.7-0.5-1.5-0.5-2.6
		c0-1,0.2-1.8,0.6-2.6c0.4-0.8,1-1.4,1.6-2s1.4-1,2.2-1.3c0.8-0.3,1.7-0.4,2.5-0.4c0.7,0,1.4,0.1,1.9,0.3c0.6,0.2,1.1,0.4,1.6,0.7
		c0.5,0.3,0.9,0.6,1.3,1c0.4,0.4,0.8,0.7,1.1,1.1l-0.5,0.4c-0.1,0.1-0.3,0.2-0.5,0.2c-0.2,0.1-0.4,0.1-0.6,0.1
		C205.9,49.8,205.5,49.7,205.2,49.5"/>
	<path class="st0" d="M215.5,70.7h-2.1V46.3h8.5c1,0,2,0.2,2.9,0.6s1.7,0.9,2.3,1.6c0.7,0.7,1.2,1.5,1.6,2.3
		c0.4,0.9,0.6,1.9,0.6,2.9c0,1-0.2,2-0.6,2.9c-0.4,0.9-0.9,1.7-1.6,2.3c-0.7,0.7-1.5,1.2-2.3,1.6c-0.9,0.4-1.9,0.6-2.9,0.6h-6.4
		V70.7z M221.8,59c0.7,0,1.4-0.1,2-0.4c0.6-0.3,1.2-0.6,1.7-1.1c0.5-0.5,0.8-1,1.1-1.7c0.3-0.6,0.4-1.3,0.4-2.1c0-0.7-0.1-1.4-0.4-2
		c-0.3-0.6-0.6-1.2-1.1-1.7c-0.5-0.5-1-0.8-1.7-1.1c-0.6-0.3-1.3-0.4-2-0.4h-6.4V59H221.8z"/>
	<rect x="234" y="46.3" class="st0" width="2.1" height="24.4"/>
	<polygon class="st0" points="240.1,48.4 240.1,46.3 258.3,46.3 258.3,48.4 250.3,48.4 250.3,70.7 248.2,70.7 248.2,48.4 	"/>
	<path class="st0" d="M265.9,46.3h1.8c0.9,2.1,1.8,4.1,2.7,6.1c0.9,2,1.8,4,2.7,6.1c0.9,2,1.8,4,2.6,6.1c0.9,2,1.8,4.1,2.7,6.1h-1
		c-0.4,0-0.8-0.1-1.1-0.3c-0.3-0.2-0.6-0.5-0.8-0.9l-2-4.5h-13.4l-2,4.5c-0.2,0.4-0.4,0.7-0.8,0.9c-0.3,0.2-0.7,0.3-1.1,0.3h-1
		L265.9,46.3z M261.1,62.8h11.6l-5.5-12.5c-0.1-0.1-0.1-0.3-0.2-0.4c0-0.2-0.1-0.3-0.1-0.5c0-0.2-0.1-0.3-0.1-0.5
		c0,0.2-0.1,0.3-0.1,0.5c0,0.1-0.1,0.3-0.1,0.5c0,0.2-0.1,0.3-0.1,0.4L261.1,62.8z"/>
	<polygon class="st0" points="280.8,70.7 280.8,46.3 282.9,46.3 282.9,68.5 294,68.5 294,70.7 	"/>
	<path class="st0" d="M306.9,49.5c-0.3-0.2-0.5-0.4-0.7-0.5c-0.2-0.2-0.4-0.3-0.6-0.4c-0.2-0.1-0.5-0.2-0.8-0.3
		c-0.3-0.1-0.7-0.1-1.1-0.1c-0.7,0-1.3,0.1-1.9,0.3c-0.6,0.2-1.1,0.5-1.6,0.9c-0.4,0.4-0.8,0.8-1.1,1.3c-0.3,0.5-0.4,1-0.4,1.6
		c0,0.6,0.1,1.2,0.2,1.6c0.2,0.4,0.4,0.8,0.8,1.1c0.4,0.3,0.9,0.6,1.5,0.9c0.6,0.3,1.4,0.6,2.4,0.9c0.5,0.2,1,0.4,1.4,0.5
		c0.4,0.2,0.8,0.3,1.2,0.5s0.7,0.3,1.1,0.5c0.3,0.2,0.7,0.4,1,0.6c0.8,0.6,1.4,1.4,1.7,2.2s0.5,1.9,0.5,2.9c0,1.1-0.2,2-0.6,2.9
		c-0.4,0.9-1,1.6-1.7,2.2c-0.7,0.6-1.5,1.1-2.5,1.4c-1,0.3-2,0.5-3.1,0.5c-2.1,0-3.9-0.6-5.4-1.9c-0.4-0.4-0.7-0.7-1-1.1
		c-0.3-0.4-0.5-0.7-0.7-1l0.3-0.2c0.4-0.2,0.7-0.3,1.1-0.3c0.3,0,0.5,0,0.8,0.1c0.2,0.1,0.5,0.2,0.7,0.4c0.5,0.4,0.9,0.8,1.3,1
		c0.4,0.2,0.7,0.4,1.1,0.5c0.3,0.1,0.7,0.2,1,0.2c0.3,0,0.6,0,1,0.1c0.7,0,1.4-0.1,2-0.2c0.7-0.2,1.3-0.5,1.9-0.8
		c0.5-0.4,1-0.9,1.3-1.5c0.3-0.6,0.5-1.3,0.5-2.2c0-0.9-0.1-1.7-0.4-2.2c-0.3-0.6-0.6-1-1.1-1.4c-0.5-0.4-1.1-0.6-1.7-0.9
		c-0.7-0.2-1.4-0.5-2.1-0.8c-1-0.4-1.8-0.7-2.6-1.1c-0.8-0.3-1.5-0.7-2-1.2c-0.6-0.4-1-1-1.3-1.7c-0.3-0.7-0.5-1.5-0.5-2.6
		c0-1,0.2-1.8,0.6-2.6c0.4-0.8,1-1.4,1.6-2c0.7-0.6,1.4-1,2.2-1.3c0.8-0.3,1.7-0.4,2.5-0.4c0.7,0,1.4,0.1,1.9,0.3
		c0.6,0.2,1.1,0.4,1.6,0.7c0.5,0.3,0.9,0.6,1.3,1c0.4,0.4,0.8,0.7,1.1,1.1l-0.5,0.4c-0.1,0.1-0.3,0.2-0.5,0.2
		c-0.2,0.1-0.4,0.1-0.6,0.1C307.6,49.8,307.3,49.7,306.9,49.5"/>
	<path class="st1" d="M138.9,20c-0.5,0.3-0.8,0.7-1,1.3c-0.1,0.3-0.2,0.9-0.3,1.7c0,0.8-0.1,1.7-0.1,2.6c0,0.9-0.1,1.9-0.1,3
		c0,1.2,0,2.4,0,3.8v1.9c0,0.7,0,1.4,0,2.1c0,0.7,0,1.5,0,2.2v1.9c0,0.1,0,0.1-0.1,0.2c0,0.1-0.1,0.1-0.2,0.1
		c-0.2,0-0.3-0.1-0.5-0.3c-1.7-2-3.2-3.8-4.6-5.4c-1.4-1.6-2.7-3.2-4-4.7c-1.3-1.5-2.5-2.9-3.7-4.4c-1.2-1.4-2.5-2.9-3.9-4.4v12.7
		c0,1,0,1.9,0.1,2.8c0,0.8,0.2,1.4,0.4,1.8c0.2,0.5,0.6,0.8,1,1s1.1,0.4,1.9,0.5v0.3h-7.4v-0.3c0.5-0.1,1-0.2,1.4-0.4
		c0.5-0.2,0.9-0.5,1.1-0.9c0.3-0.4,0.5-1,0.5-1.9c0.1-0.8,0.1-1.8,0.2-2.9c0-0.9,0.1-1.9,0.1-3c0-1.2,0-2.4,0-3.8V26v-1.1v-1.1
		c0-0.4,0-0.9,0-1.5c-0.1-0.6-0.2-1.1-0.4-1.4s-0.5-0.7-0.8-0.9c-0.3-0.2-0.6-0.4-1-0.5c-0.4-0.1-0.7-0.2-1-0.2v-0.3h6.1l14.2,16.6
		V25.5c0-0.8,0-1.6,0-2.3c0-0.7-0.1-1.3-0.3-1.7c-0.2-0.6-0.6-1-1.1-1.4c-0.5-0.4-1.2-0.6-2.2-0.7v-0.3h7.4v0.3
		C140,19.5,139.4,19.7,138.9,20"/>
	<path class="st1" d="M152,37.6c-0.3,0.6-0.7,1.1-1.1,1.5c-0.5,0.5-1.1,0.8-1.7,1.1c-0.7,0.3-1.4,0.4-2.2,0.4c-1,0-1.9-0.2-2.8-0.6
		c-0.8-0.4-1.6-0.9-2.1-1.6c-0.6-0.7-1-1.5-1.4-2.4c-0.3-0.9-0.5-1.9-0.5-3c0-0.8,0.1-1.7,0.4-2.5c0.3-0.8,0.7-1.6,1.3-2.2
		c0.5-0.7,1.2-1.2,2-1.6c0.8-0.4,1.7-0.6,2.6-0.6c0.8,0,1.5,0.1,2.2,0.3c0.7,0.2,1.3,0.5,1.8,0.9c0.5,0.4,0.9,0.9,1.2,1.5
		c0.3,0.6,0.5,1.4,0.6,2.2h-9.6c0,0.2,0,0.3,0,0.6c0,0.2,0,0.4,0,0.6c0,0.8,0.1,1.6,0.4,2.4c0.2,0.8,0.6,1.4,1,2
		c0.5,0.6,1,1.1,1.7,1.4c0.7,0.3,1.5,0.5,2.4,0.5c1,0,1.9-0.3,2.6-0.8c0.8-0.5,1.2-1.1,1.5-1.9l0.2,0.1
		C152.5,36.6,152.3,37.1,152,37.6 M148.6,27.5c-0.5-0.5-1.2-0.8-2.1-0.8c-0.6,0-1.1,0.2-1.5,0.5c-0.5,0.3-0.8,0.7-1.2,1.2
		c-0.3,0.4-0.6,0.9-0.8,1.3c-0.2,0.5-0.3,0.8-0.3,1h1.2c0.4,0,0.7,0,1.1,0s0.7,0,1.1,0c0.4,0,0.8,0,1.3,0c0.3,0,0.6,0,0.8,0
		c0.3,0,0.5-0.1,0.7-0.2c0.1-0.2,0.2-0.3,0.3-0.4c0.1-0.1,0.1-0.3,0.1-0.6C149.4,28.7,149.1,28.1,148.6,27.5"/>
	<path class="st1" d="M164.6,40.7h-0.2v-3l0,0c-0.2,0.3-0.5,0.7-0.8,1.1c-0.3,0.4-0.7,0.7-1.1,1c-0.4,0.3-0.8,0.6-1.3,0.7
		c-0.5,0.2-1,0.3-1.6,0.3c-1.3,0-2.2-0.4-2.8-1.1c-0.6-0.8-0.9-1.9-0.9-3.3V29v-0.3c0-0.1,0-0.3,0-0.4c0-0.2,0-0.3,0-0.4
		c0-0.1,0-0.2-0.1-0.3c-0.1-0.2-0.2-0.3-0.3-0.4c-0.2-0.1-0.3-0.1-0.5-0.2c-0.2,0-0.4-0.1-0.6-0.1c-0.2,0-0.4,0-0.6,0v-0.3h4.6v8.7
		c0,1.3,0.2,2.3,0.6,2.9c0.4,0.6,1.2,0.9,2.3,0.9c0.4,0,0.8-0.1,1.1-0.2s0.6-0.2,0.8-0.4c0.3-0.2,0.5-0.4,0.7-0.6s0.4-0.4,0.6-0.7
		v-8.6c0-0.2,0-0.5-0.1-0.8c0-0.3-0.1-0.5-0.2-0.7c-0.2-0.1-0.6-0.2-1-0.2c-0.4-0.1-0.8-0.1-1.3-0.2v-0.3h5v11.9c0,0.2,0,0.3,0,0.4
		c0,0.1,0.1,0.2,0.3,0.3c0.2,0.1,0.4,0.2,0.8,0.4c0.3,0.2,0.6,0.3,0.9,0.4V40L164.6,40.7z"/>
	<path class="st1" d="M180,28.9c-0.3,0.3-0.6,0.4-0.9,0.4c-0.3,0-0.6-0.1-0.8-0.2c-0.2-0.1-0.4-0.2-0.5-0.4
		c-0.1-0.1-0.3-0.3-0.5-0.4c-0.2-0.1-0.4-0.2-0.7-0.2c-0.2,0-0.5,0.1-0.7,0.3c-0.2,0.2-0.4,0.4-0.6,0.6c-0.2,0.3-0.4,0.6-0.5,0.9
		c-0.2,0.3-0.3,0.6-0.4,0.9v8.6c0.1,0.2,0.2,0.3,0.4,0.4c0.2,0.1,0.4,0.2,0.7,0.2c0.2,0,0.5,0.1,0.8,0.1s0.5,0,0.7,0.1v0.3h-6.7
		v-0.3c0.5,0,0.9-0.1,1.2-0.3c0.3-0.1,0.5-0.4,0.5-0.7V29.3c0-0.2,0-0.3,0-0.4c0-0.1-0.1-0.2-0.3-0.3c-0.2-0.1-0.4-0.2-0.6-0.4
		c-0.2-0.1-0.5-0.3-0.7-0.4v-0.2l3.9-1.5h0.2l-0.1,4.2h0.1c0.1-0.2,0.3-0.6,0.5-1c0.2-0.5,0.5-0.9,0.8-1.4c0.3-0.5,0.8-0.9,1.2-1.2
		c0.5-0.3,1-0.5,1.7-0.5c0.5,0,0.9,0.2,1.3,0.5c0.4,0.3,0.5,0.7,0.5,1.1C180.3,28.3,180.2,28.6,180,28.9"/>
	<path class="st1" d="M194.2,36.3c-0.4,0.9-0.9,1.7-1.5,2.4c-0.6,0.7-1.4,1.2-2.2,1.6c-0.9,0.4-1.7,0.6-2.7,0.6
		c-0.8,0-1.6-0.1-2.4-0.4c-0.8-0.3-1.6-0.7-2.3-1.3c-0.7-0.6-1.3-1.4-1.7-2.3c-0.5-0.9-0.7-2.1-0.7-3.3c0-0.9,0.2-1.8,0.5-2.7
		c0.3-0.9,0.8-1.6,1.5-2.3c0.6-0.7,1.4-1.2,2.3-1.6c0.9-0.4,1.9-0.6,3-0.6c0.8,0,1.6,0.2,2.4,0.5c0.8,0.3,1.6,0.7,2.2,1.3
		c0.7,0.6,1.2,1.3,1.7,2.2c0.4,0.9,0.6,1.9,0.6,3.1C194.8,34.4,194.6,35.3,194.2,36.3 M191.8,31.1c-0.2-0.8-0.4-1.5-0.7-2.2
		c-0.3-0.7-0.8-1.2-1.4-1.6c-0.6-0.4-1.2-0.6-2.1-0.6c-0.7,0-1.2,0.2-1.8,0.6c-0.5,0.4-1,0.9-1.3,1.6c-0.4,0.7-0.6,1.4-0.8,2.2
		c-0.2,0.8-0.3,1.6-0.3,2.5c0,0.9,0.1,1.8,0.2,2.6c0.2,0.8,0.4,1.5,0.8,2.2c0.4,0.6,0.8,1.1,1.4,1.5c0.6,0.4,1.2,0.6,2,0.6
		c0.8,0,1.4-0.2,2-0.7c0.5-0.5,1-1.1,1.3-1.8c0.3-0.7,0.6-1.5,0.7-2.3c0.1-0.8,0.2-1.6,0.2-2.3C192,32.7,191.9,31.9,191.8,31.1"/>
	<path class="st1" d="M214.1,27.4c-0.2,0.6-0.6,1.1-0.9,1.6c-0.4,0.5-0.8,0.9-1.4,1.2s-1,0.6-1.6,0.8c-0.6,0.2-1.2,0.4-1.8,0.5
		c-0.6,0.1-1.3,0.2-1.9,0.2c-0.7,0.1-1.3,0.1-1.9,0.1h-1.6v1.7v1.2c0,0.3,0,0.7,0,0.9c0,0.3,0,0.6,0,0.9c0,0.6,0,1.2,0.1,1.7
		c0,0.5,0.1,0.8,0.3,1.1c0.2,0.3,0.5,0.5,0.9,0.8c0.5,0.3,1.1,0.4,1.9,0.4v0.3h-9.6v-0.3c0.5-0.1,1-0.2,1.4-0.4
		c0.5-0.2,0.8-0.4,1.1-0.7c0.1-0.1,0.2-0.3,0.2-0.5c0.1-0.2,0.1-0.5,0.1-0.8c0-0.3,0.1-0.6,0.1-1c0-0.3,0-0.7,0-1c0-0.3,0-0.7,0-1.1
		c0-0.5,0-1,0-1.6c0-0.6,0-1.2,0-1.8v-1.7V24c0-0.4,0-0.7,0-1.1c0-0.4,0-0.7-0.1-1.1c0-0.3-0.1-0.6-0.1-0.9
		c-0.1-0.3-0.2-0.5-0.3-0.6c-0.3-0.3-0.7-0.5-1.2-0.6c-0.5-0.1-1-0.2-1.5-0.3v-0.3h0.7c0.4,0,0.8,0,1.3,0c0.5,0,1.1,0,1.7,0
		c0.6,0,1.2,0,1.8,0c0.6,0,1.1,0,1.7,0h1.4c1.3,0,2.5,0.1,3.5,0.2c1,0.1,2,0.4,2.9,0.9c0.9,0.5,1.6,1.2,2.2,2
		c0.6,0.9,0.9,1.9,0.9,3.1C214.5,26.1,214.3,26.8,214.1,27.4 M210.3,22.1c-0.6-0.9-1.4-1.6-2.3-2c-0.5-0.2-1-0.4-1.5-0.4
		c-0.5-0.1-1.1-0.1-1.7-0.1c-0.4,0-0.7,0-1,0c-0.2,0-0.4,0.1-0.6,0.1c0,0.1,0,0.2-0.1,0.3c0,0.1-0.1,0.2-0.1,0.3
		c0,0.1,0,0.3-0.1,0.6c0,0.2,0,0.6-0.1,1.1c0,0.7,0,1.6,0,2.6c0,1,0,2,0,2.9v2.5v1.3c0.8,0,1.6,0,2.3-0.1c0.7,0,1.4-0.2,2-0.4
		c1.3-0.4,2.3-1.2,2.9-2.2c0.7-1,1-2.1,1-3.4C211.2,24,210.9,23,210.3,22.1"/>
	<path class="st1" d="M224.7,38.4c-0.3,0.6-0.7,1-1.2,1.4c-0.5,0.4-1.1,0.6-1.8,0.8c-0.7,0.2-1.4,0.2-2.1,0.2
		c-0.9,0-1.7-0.1-2.5-0.2c-0.8-0.2-1.5-0.4-2.2-0.7v-4h0.2c0.2,0.5,0.4,1,0.6,1.5c0.2,0.5,0.5,1,0.9,1.5c0.3,0.5,0.7,0.8,1.2,1.1
		c0.5,0.3,1,0.4,1.7,0.4c1,0,1.7-0.3,2.3-0.8c0.6-0.5,0.9-1.4,0.9-2.5c0-0.6-0.2-1.1-0.6-1.5c-0.4-0.4-0.9-0.7-1.6-0.8
		c-0.5-0.1-1.1-0.2-1.6-0.3c-0.5-0.1-0.9-0.2-1.3-0.4c-0.8-0.3-1.4-0.7-1.8-1.3c-0.5-0.6-0.7-1.4-0.7-2.3c0-0.6,0.1-1.2,0.4-1.7
		s0.6-0.9,1.1-1.3c0.4-0.4,0.9-0.6,1.5-0.8c0.6-0.2,1.2-0.3,1.9-0.3c0.8,0,1.6,0.1,2.2,0.2c0.6,0.1,1.2,0.3,1.8,0.6l0.4,3.7
		l-0.2,0.1c-0.3-0.6-0.6-1.2-0.8-1.7c-0.3-0.5-0.6-0.9-0.9-1.3c-0.3-0.4-0.7-0.7-1.2-0.9c-0.4-0.2-0.9-0.3-1.5-0.3
		c-0.3,0-0.7,0.1-1,0.2c-0.3,0.1-0.6,0.3-0.9,0.5c-0.2,0.2-0.5,0.5-0.6,0.9c-0.2,0.4-0.2,0.8-0.2,1.2c0,0.7,0.2,1.3,0.6,1.6
		c0.4,0.3,0.9,0.6,1.6,0.7c0.4,0.1,0.9,0.2,1.4,0.3c0.5,0.1,1,0.2,1.3,0.3c0.9,0.2,1.7,0.7,2.3,1.4c0.6,0.7,0.9,1.6,0.9,2.6
		C225.1,37.1,225,37.8,224.7,38.4"/>
	<path class="st1" d="M239.1,26.9c-0.2,0-0.5,0.1-0.7,0.1c-0.2,0.1-0.4,0.2-0.6,0.4c-0.2,0.2-0.3,0.4-0.4,0.7
		c-0.1,0.3-0.3,0.8-0.5,1.5c-0.2,0.7-0.5,1.5-0.8,2.5c-0.3,0.9-0.6,2-1,3.1c-0.4,1.1-0.7,2.3-1.1,3.5c-0.4,1.2-0.7,2.4-1.1,3.6
		c-0.4,1.2-0.7,2.3-1.1,3.4c-0.2,0.8-0.6,1.3-1,1.6c-0.4,0.3-0.9,0.5-1.4,0.5c-0.4,0-0.8-0.1-1.1-0.4c-0.3-0.3-0.5-0.6-0.5-1
		c0-0.4,0.1-0.7,0.4-1c0.2-0.3,0.6-0.4,1-0.4c0.4,0,0.7,0.1,1,0.4c0.3,0.2,0.5,0.5,0.8,0.8h0.1c0.2-0.5,0.4-1.1,0.6-1.6
		c0.2-0.5,0.3-1,0.4-1.4c0.1-0.4,0.2-0.8,0.3-1.1c0.1-0.3,0.1-0.5,0.1-0.6c0-0.1-0.1-0.4-0.3-0.9s-0.4-1.1-0.7-1.9
		c-0.3-0.8-0.6-1.6-1-2.6c-0.4-1-0.7-1.9-1.1-3c-0.4-1-0.7-2-1.1-3c-0.4-1-0.7-1.9-1-2.7c-0.2-0.2-0.4-0.4-0.6-0.5s-0.7-0.2-1.4-0.2
		v-0.3h6.5v0.3c-0.4,0.1-0.8,0.1-1.1,0.2c-0.3,0.1-0.5,0.3-0.5,0.7c0,0.1,0.1,0.3,0.2,0.7c0.1,0.4,0.3,0.9,0.5,1.5
		c0.2,0.6,0.4,1.2,0.7,1.9s0.5,1.4,0.8,2.1c0.2,0.7,0.5,1.4,0.7,2c0.2,0.7,0.5,1.2,0.6,1.7c0.1-0.2,0.2-0.5,0.3-1
		c0.2-0.5,0.3-1.1,0.6-1.8c0.2-0.7,0.5-1.5,0.7-2.2c0.2-0.8,0.5-1.5,0.7-2.2c0.2-0.7,0.4-1.3,0.5-1.8c0.1-0.5,0.2-0.8,0.2-0.9
		c0-0.2,0-0.3-0.1-0.4c-0.1-0.1-0.2-0.2-0.4-0.3c-0.2-0.1-0.4-0.1-0.6-0.1c-0.2,0-0.4,0-0.6-0.1v-0.3h4.6v0.3
		C239.6,26.9,239.3,26.9,239.1,26.9"/>
	<path class="st1" d="M251.4,38.1c-0.4,0.5-0.8,1-1.3,1.4c-0.5,0.4-1.1,0.7-1.8,0.9c-0.6,0.2-1.4,0.3-2.1,0.3c-1,0-1.9-0.2-2.7-0.6
		c-0.8-0.4-1.5-0.9-2.1-1.6c-0.6-0.7-1-1.5-1.4-2.4c-0.3-0.9-0.5-1.9-0.5-2.9c0-1,0.2-1.9,0.5-2.7c0.3-0.9,0.8-1.6,1.4-2.3
		c0.6-0.7,1.3-1.2,2.1-1.6c0.8-0.4,1.7-0.6,2.7-0.6c0.7,0,1.3,0.1,1.9,0.2c0.6,0.2,1.2,0.4,1.7,0.7c0.5,0.3,0.9,0.7,1.2,1.1
		c0.3,0.4,0.5,0.9,0.5,1.5c0,0.4-0.2,0.8-0.5,1.1c-0.3,0.3-0.7,0.5-1.1,0.5c-0.3,0-0.6-0.1-0.9-0.3c-0.3-0.2-0.4-0.5-0.5-0.8
		c0.1-0.3,0.1-0.6,0.1-1c0-0.7-0.2-1.4-0.6-1.8c-0.4-0.5-1-0.7-1.8-0.7c-0.6,0-1.2,0.2-1.7,0.5c-0.5,0.3-1,0.8-1.4,1.3
		c-0.4,0.5-0.7,1.2-0.9,1.9c-0.2,0.7-0.3,1.5-0.3,2.3c0,0.9,0.1,1.7,0.4,2.5c0.2,0.8,0.6,1.4,1,1.9c0.4,0.5,1,0.9,1.6,1.2
		c0.6,0.3,1.3,0.4,2.1,0.4c1.2,0,2.2-0.2,2.9-0.6c0.7-0.4,1.3-1,1.8-1.8l0.2,0.1C252,37,251.8,37.6,251.4,38.1"/>
	<path class="st1" d="M261.2,40.7v-0.3c0.5,0,1-0.1,1.3-0.2c0.4-0.1,0.5-0.3,0.5-0.6v-7.5c0-0.6,0-1.1-0.1-1.6
		c-0.1-0.5-0.2-0.9-0.4-1.3s-0.5-0.6-0.9-0.8c-0.4-0.2-0.8-0.3-1.4-0.3c-0.7,0-1.3,0.1-1.8,0.4c-0.5,0.3-0.9,0.6-1.2,1
		c0,0.1-0.1,0.2-0.2,0.4c-0.1,0.2-0.1,0.4-0.1,0.5v9.2c0,0.2,0,0.3,0.1,0.4c0.1,0.1,0.2,0.2,0.4,0.2s0.3,0.1,0.5,0.1
		c0.2,0,0.4,0.1,0.6,0.1v0.3h-6v-0.3c0.5,0,0.9-0.1,1.2-0.2c0.4-0.1,0.6-0.4,0.6-0.7v-17c0-0.2,0-0.3,0-0.4c0-0.1-0.1-0.2-0.3-0.3
		c-0.2-0.1-0.4-0.3-0.6-0.4c-0.3-0.1-0.5-0.3-0.8-0.4v-0.2l4-1.8h0.2l-0.1,10.4l0.1,0c0.1-0.3,0.4-0.6,0.6-1s0.7-0.7,1.1-1
		c0.4-0.3,0.9-0.6,1.5-0.8c0.6-0.2,1.2-0.3,1.9-0.3c0.7,0,1.2,0.1,1.7,0.3c0.4,0.2,0.8,0.6,1.1,1c0.3,0.4,0.5,0.9,0.6,1.5
		c0.1,0.6,0.2,1.2,0.2,1.8v8.9c0,0.1,0.1,0.3,0.2,0.4c0.1,0.1,0.3,0.2,0.4,0.2c0.2,0.1,0.4,0.1,0.6,0.1c0.2,0,0.4,0.1,0.6,0.1v0.3
		H261.2z"/>
	<path class="st1" d="M268.2,40.7v-0.3c0.2,0,0.5,0,0.7-0.1c0.2,0,0.5-0.1,0.6-0.2c0.2-0.1,0.3-0.2,0.5-0.3c0.1-0.1,0.2-0.3,0.2-0.5
		V29.2c0-0.2,0-0.3,0-0.4c0-0.1-0.1-0.2-0.3-0.3c-0.2-0.1-0.4-0.2-0.6-0.4s-0.5-0.2-0.8-0.3v-0.2l4-1.3h0.2v13.4
		c0,0.2,0.1,0.3,0.3,0.4c0.1,0.1,0.3,0.2,0.5,0.2c0.2,0,0.4,0.1,0.6,0.1c0.2,0,0.4,0,0.6,0.1v0.3H268.2z M272.5,22.6
		c-0.3,0.3-0.7,0.5-1.2,0.5c-0.4,0-0.8-0.2-1.1-0.5c-0.3-0.3-0.5-0.7-0.5-1.1c0-0.5,0.2-0.8,0.5-1.1c0.3-0.3,0.7-0.4,1.2-0.4
		c0.5,0,0.8,0.2,1.2,0.4c0.3,0.3,0.5,0.7,0.5,1.1C273,21.9,272.8,22.3,272.5,22.6"/>
	<path class="st1" d="M289,38.9c-0.2,0.4-0.4,0.7-0.6,1c-0.3,0.3-0.6,0.5-0.9,0.7c-0.4,0.1-0.7,0.2-1.2,0.2c-0.7,0-1.3-0.2-1.8-0.6
		c-0.5-0.4-0.8-1.1-0.8-2.1l-0.1,0c-0.2,0.3-0.4,0.6-0.6,0.9c-0.3,0.3-0.6,0.6-1,0.9c-0.4,0.3-0.8,0.5-1.2,0.7
		c-0.4,0.2-0.9,0.3-1.5,0.3c-0.3,0-0.6,0-1-0.1c-0.3-0.1-0.6-0.2-0.9-0.5c-0.3-0.2-0.5-0.5-0.7-0.9c-0.2-0.4-0.3-0.8-0.3-1.3
		c0-0.6,0.2-1.1,0.7-1.6c0.5-0.5,1-1,1.7-1.4c0.7-0.4,1.2-0.8,1.8-1.1s1-0.6,1.3-0.8c0.4-0.2,0.7-0.4,1-0.5c0.3-0.1,0.5-0.3,0.7-0.4
		V29c0,0,0-0.1-0.1-0.3c-0.1-0.2-0.2-0.3-0.4-0.5c-0.2-0.2-0.4-0.3-0.7-0.4c-0.3-0.1-0.7-0.2-1.2-0.2c-0.3,0-0.6,0.1-0.9,0.2
		c-0.3,0.1-0.6,0.3-0.8,0.4c-0.2,0.2-0.4,0.3-0.6,0.5c-0.1,0.2-0.2,0.3-0.2,0.4v1.4c0,0.3-0.1,0.5-0.4,0.8s-0.6,0.3-0.9,0.3
		c-0.3,0-0.6-0.1-0.8-0.3c-0.2-0.2-0.3-0.5-0.3-0.8c0-0.2,0.1-0.5,0.2-0.7c0.1-0.2,0.3-0.4,0.4-0.5c0.2-0.2,0.4-0.3,0.6-0.4
		c0.2-0.1,0.4-0.2,0.6-0.3c0.5-0.3,1-0.6,1.6-0.9c0.5-0.3,1.1-0.5,1.5-0.7c0.5-0.2,0.9-0.4,1.3-0.5c0.4-0.1,0.7-0.2,1-0.2
		c0.5,0,1,0.1,1.5,0.4c0.5,0.3,0.8,0.6,1,1c0.1,0.1,0.1,0.4,0.1,0.7c0,0.4,0,0.7,0,1c0,0.7,0,1.4,0,1.9c0,0.6,0,1.1,0,1.7
		c0,0.5,0,1.1,0,1.7c0,0.6,0,1.2,0,1.9c0,0.9,0.2,1.5,0.5,1.8c0.3,0.3,0.7,0.4,1.1,0.4c0.5,0,0.8-0.1,1-0.3c0.2-0.2,0.4-0.4,0.4-0.7
		h0.2C289.2,38.2,289.1,38.5,289,38.9 M283.7,32.6c-0.4,0.3-0.8,0.5-1.4,0.8c-0.5,0.3-1.1,0.6-1.6,0.9c-0.5,0.3-0.9,0.7-1.3,1.1
		c-0.4,0.4-0.6,0.9-0.6,1.4c0,0.5,0.2,1,0.5,1.4c0.4,0.4,0.8,0.6,1.4,0.6c0.5,0,1-0.1,1.4-0.2c0.4-0.1,0.8-0.3,1.1-0.7
		c0.2-0.2,0.4-0.5,0.4-0.8V32.6z"/>
	<path class="st1" d="M298.3,28.4h-4.6v7.9c0,1,0.2,1.8,0.7,2.2c0.4,0.5,1,0.7,1.7,0.7c0.6,0,1.1-0.1,1.4-0.3c0.4-0.2,0.7-0.5,1-0.9
		l0.2,0.1c-0.1,0.3-0.3,0.6-0.5,0.9c-0.2,0.3-0.5,0.6-0.8,0.9c-0.4,0.3-0.8,0.5-1.2,0.6c-0.5,0.2-1,0.2-1.7,0.2
		c-0.4,0-0.8-0.1-1.2-0.2c-0.4-0.1-0.7-0.3-1-0.6c-0.3-0.2-0.5-0.5-0.7-0.8c-0.2-0.3-0.3-0.6-0.3-0.9c0-1.9,0-3.7,0-5.4
		c0-1.7,0-3.2,0-4.5h-2.2V28l4.3-4.1h0.2v2.6h5.6L298.3,28.4z"/>
	<path class="st1" d="M310.1,28.9c-0.3,0.3-0.6,0.4-0.9,0.4c-0.3,0-0.6-0.1-0.8-0.2c-0.2-0.1-0.4-0.2-0.5-0.4
		c-0.1-0.1-0.3-0.3-0.5-0.4c-0.2-0.1-0.4-0.2-0.7-0.2c-0.2,0-0.5,0.1-0.7,0.3c-0.2,0.2-0.4,0.4-0.6,0.6c-0.2,0.3-0.4,0.6-0.5,0.9
		c-0.2,0.3-0.3,0.6-0.4,0.9v8.6c0.1,0.2,0.2,0.3,0.4,0.4c0.2,0.1,0.4,0.2,0.7,0.2c0.2,0,0.5,0.1,0.8,0.1c0.3,0,0.5,0,0.7,0.1v0.3
		h-6.7v-0.3c0.5,0,0.9-0.1,1.2-0.3c0.3-0.1,0.5-0.4,0.5-0.7V29.3c0-0.2,0-0.3,0-0.4c0-0.1-0.1-0.2-0.3-0.3c-0.2-0.1-0.4-0.2-0.6-0.4
		c-0.2-0.1-0.5-0.3-0.7-0.4v-0.2l3.9-1.5h0.2l-0.1,4.2h0.1c0.1-0.2,0.3-0.6,0.5-1c0.2-0.5,0.5-0.9,0.8-1.4c0.3-0.5,0.8-0.9,1.2-1.2
		c0.5-0.3,1-0.5,1.7-0.5c0.5,0,0.9,0.2,1.3,0.5c0.3,0.3,0.5,0.7,0.5,1.1C310.5,28.3,310.3,28.6,310.1,28.9"/>
	<path class="st1" d="M310.7,40.7v-0.3c0.2,0,0.5,0,0.7-0.1s0.5-0.1,0.6-0.2c0.2-0.1,0.3-0.2,0.5-0.3c0.1-0.1,0.2-0.3,0.2-0.5V29.2
		c0-0.2,0-0.3,0-0.4c0-0.1-0.1-0.2-0.3-0.3c-0.2-0.1-0.4-0.2-0.6-0.4s-0.5-0.2-0.8-0.3v-0.2l4-1.3h0.2v13.4c0,0.2,0.1,0.3,0.3,0.4
		c0.1,0.1,0.3,0.2,0.5,0.2c0.2,0,0.4,0.1,0.6,0.1c0.2,0,0.4,0,0.6,0.1v0.3H310.7z M315,22.6c-0.3,0.3-0.7,0.5-1.2,0.5
		c-0.4,0-0.8-0.2-1.1-0.5c-0.3-0.3-0.5-0.7-0.5-1.1c0-0.5,0.2-0.8,0.5-1.1c0.3-0.3,0.7-0.4,1.2-0.4c0.5,0,0.8,0.2,1.2,0.4
		c0.3,0.3,0.5,0.7,0.5,1.1C315.5,21.9,315.3,22.3,315,22.6"/>
	<path class="st1" d="M329.2,38.1c-0.4,0.5-0.8,1-1.3,1.4c-0.5,0.4-1.1,0.7-1.8,0.9c-0.7,0.2-1.4,0.3-2.1,0.3c-1,0-1.9-0.2-2.7-0.6
		c-0.8-0.4-1.5-0.9-2.1-1.6c-0.6-0.7-1-1.5-1.4-2.4c-0.3-0.9-0.5-1.9-0.5-2.9c0-1,0.2-1.9,0.5-2.7c0.3-0.9,0.8-1.6,1.4-2.3
		c0.6-0.7,1.3-1.2,2.1-1.6c0.8-0.4,1.7-0.6,2.7-0.6c0.7,0,1.3,0.1,2,0.2c0.6,0.2,1.2,0.4,1.7,0.7c0.5,0.3,0.9,0.7,1.2,1.1
		c0.3,0.4,0.5,0.9,0.5,1.5c0,0.4-0.2,0.8-0.5,1.1c-0.3,0.3-0.7,0.5-1.1,0.5c-0.3,0-0.6-0.1-0.9-0.3c-0.3-0.2-0.4-0.5-0.5-0.8
		c0.1-0.3,0.1-0.6,0.1-1c0-0.7-0.2-1.4-0.6-1.8c-0.4-0.5-1-0.7-1.8-0.7c-0.6,0-1.2,0.2-1.7,0.5c-0.5,0.3-1,0.8-1.4,1.3
		c-0.4,0.5-0.7,1.2-0.9,1.9c-0.2,0.7-0.3,1.5-0.3,2.3c0,0.9,0.1,1.7,0.4,2.5s0.6,1.4,1,1.9c0.4,0.5,1,0.9,1.6,1.2s1.3,0.4,2.1,0.4
		c1.2,0,2.2-0.2,2.9-0.6c0.7-0.4,1.3-1,1.8-1.8l0.2,0.1C329.8,37,329.6,37.6,329.2,38.1"/>
	<path class="st2" d="M110.5,86c0,0,0,0.1,0,0.1c0,0.1,0,0.1,0,0.2c0,0.1,0,0.1,0,0.2c0-0.1,0-0.1,0-0.2c0,0,0-0.1,0-0.1
		c0-0.1,0-0.1,0-0.1l2.7-6.2c0.1-0.1,0.1-0.2,0.2-0.3c0.1-0.1,0.2-0.1,0.4-0.1h0.3l-1.6,3.6l1.4,3c0,0,0,0.1,0,0.1
		c0,0.1,0,0.1,0,0.2c0,0.1,0,0.1,0,0.2c0-0.1,0-0.1,0-0.2c0,0,0-0.1,0-0.1c0-0.1,0-0.1,0-0.1l2.7-6.2c0.1-0.1,0.1-0.2,0.2-0.3
		c0.1-0.1,0.2-0.1,0.4-0.1h0.3l-3.4,7.9h-0.6l-1.4-3c0-0.1-0.1-0.2-0.1-0.3c0-0.1,0-0.1,0-0.2c0-0.1,0-0.1,0-0.1c0,0,0-0.1,0-0.1
		l-1.6,3.7h-0.6l-3.6-7.9h0.3c0.1,0,0.3,0,0.4,0.1c0.1,0.1,0.2,0.2,0.2,0.3L110.5,86z"/>
	<path class="st2" d="M120.1,81.4c0.3,0,0.7,0.1,1,0.2c0.3,0.1,0.6,0.3,0.8,0.5c0.2,0.2,0.5,0.4,0.6,0.7c0.2,0.3,0.3,0.6,0.4,0.9
		c0,0.1,0,0.1,0,0.2c0,0.1,0,0.2-0.1,0.3c0,0.1-0.1,0.2-0.1,0.2c-0.1,0.1-0.1,0.1-0.2,0.2c-0.1,0-0.2,0.1-0.3,0.1h-4.5
		c0,0.3,0.1,0.6,0.2,0.8c0.1,0.3,0.3,0.5,0.5,0.7c0.2,0.2,0.4,0.3,0.7,0.4c0.3,0.1,0.6,0.2,0.9,0.2c0.1,0,0.2,0,0.3,0
		s0.2-0.1,0.3-0.1c0.1,0,0.2-0.1,0.3-0.1c0.1-0.1,0.2-0.1,0.3-0.2c0,0,0.1-0.1,0.2-0.1c0.1,0,0.1,0,0.2,0c0.1,0,0.1,0,0.2,0
		c0,0,0.1,0,0.1,0.1c0,0,0.1,0.1,0.1,0.1c0,0,0.1,0.1,0.1,0.1c-0.1,0.1-0.3,0.3-0.5,0.4s-0.3,0.2-0.5,0.3c-0.2,0.1-0.4,0.2-0.6,0.2
		c-0.2,0.1-0.4,0.1-0.6,0.1c-0.3,0-0.5,0-0.8-0.1c-0.3-0.1-0.5-0.2-0.7-0.3c-0.2-0.1-0.4-0.3-0.6-0.5c-0.2-0.2-0.3-0.4-0.5-0.6
		c-0.1-0.2-0.2-0.5-0.3-0.7c-0.1-0.3-0.1-0.5-0.1-0.8c0-0.4,0.1-0.8,0.2-1.2c0.2-0.4,0.4-0.7,0.6-0.9c0.3-0.3,0.6-0.5,0.9-0.6
		C119.3,81.5,119.7,81.4,120.1,81.4 M120.1,82.1c-0.3,0-0.6,0.1-0.8,0.1c-0.3,0.1-0.5,0.2-0.7,0.4c-0.2,0.2-0.4,0.4-0.5,0.6
		c-0.1,0.2-0.2,0.5-0.2,0.8c0,0,0-0.1,0.1-0.2c0-0.1,0.1-0.1,0.2-0.1h4.1c-0.1-0.3-0.2-0.5-0.3-0.7c-0.1-0.2-0.3-0.4-0.5-0.5
		c-0.2-0.1-0.4-0.3-0.6-0.3C120.6,82.2,120.4,82.1,120.1,82.1"/>
	<path class="st2" d="M130.2,82.1c-0.3,0-0.6,0.1-0.9,0.2c-0.3,0.1-0.5,0.3-0.7,0.5c-0.2,0.2-0.4,0.4-0.5,0.7
		c-0.1,0.3-0.2,0.6-0.2,0.9c0,0.3,0.1,0.6,0.2,0.9c0.1,0.3,0.3,0.5,0.5,0.7c0.2,0.2,0.4,0.4,0.7,0.5c0.3,0.1,0.6,0.2,0.9,0.2
		c0.2,0,0.4,0,0.6-0.1c0.2-0.1,0.4-0.1,0.5-0.2c0.1,0,0.1-0.1,0.2-0.1c0.1,0,0.1,0,0.2,0c0.1,0,0.2,0,0.3,0.1c0.1,0,0.2,0.1,0.2,0.2
		l0.1,0.1c-0.1,0.1-0.2,0.2-0.4,0.3c-0.1,0.1-0.3,0.2-0.5,0.3c-0.2,0.1-0.4,0.1-0.6,0.2c-0.2,0-0.4,0.1-0.6,0.1
		c-0.3,0-0.5,0-0.8-0.1c-0.3-0.1-0.5-0.2-0.7-0.3c-0.2-0.1-0.4-0.3-0.6-0.5c-0.2-0.2-0.3-0.4-0.5-0.6c-0.1-0.2-0.2-0.5-0.3-0.7
		c-0.1-0.3-0.1-0.5-0.1-0.8c0-0.3,0-0.5,0.1-0.8c0.1-0.3,0.2-0.5,0.3-0.7c0.1-0.2,0.3-0.4,0.5-0.6c0.2-0.2,0.4-0.3,0.6-0.5
		c0.2-0.1,0.5-0.2,0.7-0.3c0.3-0.1,0.5-0.1,0.8-0.1c0.2,0,0.4,0,0.6,0.1c0.2,0,0.4,0.1,0.5,0.2c0.2,0.1,0.3,0.2,0.5,0.3
		c0.1,0.1,0.3,0.2,0.4,0.3l-0.1,0.1c-0.1,0.1-0.1,0.1-0.2,0.2c-0.1,0-0.2,0.1-0.3,0.1c-0.1,0-0.1,0-0.2,0c-0.1,0-0.1,0-0.2-0.1
		c-0.2-0.1-0.4-0.2-0.5-0.2C130.6,82.2,130.4,82.1,130.2,82.1"/>
	<path class="st2" d="M133,82.4c0.1-0.1,0.1-0.1,0.2-0.2c0.1-0.1,0.1-0.1,0.2-0.2c0.1-0.1,0.1-0.1,0.2-0.1c0.2-0.1,0.5-0.2,0.7-0.3
		c0.2-0.1,0.5-0.1,0.9-0.1c0.3,0,0.6,0,0.8,0.1c0.2,0.1,0.4,0.2,0.6,0.3c0.2,0.1,0.3,0.3,0.4,0.5c0.1,0.2,0.2,0.4,0.3,0.6
		c0.1,0.2,0.1,0.5,0.1,0.7c0,0.2,0,0.5,0,0.7v2.9h-0.6c0,0,0-0.1-0.1-0.1c0-0.1,0-0.1,0-0.2v-0.3c-0.2,0.1-0.3,0.3-0.5,0.3
		c-0.2,0.1-0.4,0.2-0.5,0.2c-0.2,0.1-0.3,0.1-0.5,0.1c-0.2,0-0.3,0-0.5,0h-0.1c-0.2,0-0.5-0.1-0.7-0.1c-0.2-0.1-0.4-0.2-0.6-0.3
		c-0.2-0.1-0.3-0.3-0.4-0.5c-0.1-0.2-0.2-0.4-0.2-0.7c0-0.3,0.1-0.5,0.2-0.7c0.1-0.2,0.3-0.4,0.5-0.6c0.2-0.2,0.5-0.3,0.8-0.4
		c0.3-0.1,0.7-0.1,1.2-0.1c0.1,0,0.3,0,0.4,0c0.1,0,0.3,0,0.4,0c0.1,0,0.2,0,0.3,0c0.1,0,0.2,0,0.2,0c0-0.4-0.1-0.7-0.2-1
		c-0.1-0.3-0.2-0.5-0.3-0.6c-0.1-0.1-0.3-0.2-0.5-0.3c-0.2-0.1-0.4-0.1-0.5-0.1c-0.2,0-0.4,0-0.6,0.1c-0.2,0.1-0.3,0.1-0.5,0.2
		c-0.1,0-0.1,0.1-0.2,0.1c-0.1,0-0.1,0.1-0.3,0.1c-0.1,0-0.3-0.1-0.4-0.2L133,82.4z M134.5,86.7c0.1,0,0.3,0,0.5,0
		c0.2,0,0.4-0.1,0.5-0.1c0.2-0.1,0.4-0.1,0.6-0.2c0.2-0.1,0.4-0.2,0.5-0.3v-1.3c0,0-0.1,0-0.2,0s-0.2,0-0.3,0c-0.1,0-0.3,0-0.4,0
		c-0.1,0-0.3,0-0.4,0c-0.3,0-0.5,0-0.8,0.1c-0.2,0-0.4,0.1-0.6,0.2c-0.2,0.1-0.3,0.2-0.4,0.3c-0.1,0.1-0.1,0.3-0.1,0.5
		c0,0.1,0,0.3,0.1,0.4c0.1,0.1,0.1,0.2,0.2,0.3c0.1,0.1,0.2,0.2,0.4,0.2C134.1,86.7,134.3,86.7,134.5,86.7"/>
	<path class="st2" d="M139.1,81.5c0,0,0,0.1,0,0.1c0,0,0,0.1,0,0.1v0.6c0.1-0.1,0.2-0.3,0.3-0.4c0.1-0.1,0.3-0.2,0.5-0.3
		c0.2-0.1,0.4-0.2,0.6-0.2c0.2,0,0.4-0.1,0.6-0.1c0.2,0,0.4,0,0.6,0.1l-0.1,0.3c0,0.1,0,0.1-0.1,0.2c0,0-0.1,0.1-0.1,0.1
		c0,0-0.1,0-0.2,0c-0.1,0-0.1,0-0.2,0h-0.1c-0.3,0-0.5,0-0.8,0.1c-0.2,0.1-0.5,0.2-0.6,0.3c-0.2,0.1-0.3,0.3-0.4,0.5
		c-0.1,0.2-0.2,0.3-0.2,0.5v3.7h-0.7v-5.8H139.1z"/>
	<path class="st2" d="M145.1,81.4c0.3,0,0.7,0.1,1,0.2c0.3,0.1,0.6,0.3,0.8,0.5c0.2,0.2,0.5,0.4,0.6,0.7c0.2,0.3,0.3,0.6,0.4,0.9
		c0,0.1,0,0.1,0,0.2c0,0.1,0,0.2-0.1,0.3c0,0.1-0.1,0.2-0.1,0.2c-0.1,0.1-0.1,0.1-0.2,0.2c-0.1,0-0.2,0.1-0.3,0.1h-4.5
		c0,0.3,0.1,0.6,0.2,0.8c0.1,0.3,0.3,0.5,0.5,0.7c0.2,0.2,0.4,0.3,0.7,0.4c0.3,0.1,0.6,0.2,0.9,0.2c0.1,0,0.2,0,0.3,0
		s0.2-0.1,0.3-0.1c0.1,0,0.2-0.1,0.3-0.1c0.1-0.1,0.2-0.1,0.3-0.2c0,0,0.1-0.1,0.2-0.1c0.1,0,0.1,0,0.2,0c0.1,0,0.1,0,0.2,0
		c0,0,0.1,0,0.1,0.1c0,0,0.1,0.1,0.1,0.1c0,0,0.1,0.1,0.1,0.1c-0.1,0.1-0.3,0.3-0.5,0.4s-0.3,0.2-0.5,0.3c-0.2,0.1-0.4,0.2-0.6,0.2
		c-0.2,0.1-0.4,0.1-0.6,0.1c-0.3,0-0.5,0-0.8-0.1c-0.3-0.1-0.5-0.2-0.7-0.3c-0.2-0.1-0.4-0.3-0.6-0.5c-0.2-0.2-0.3-0.4-0.5-0.6
		c-0.1-0.2-0.2-0.5-0.3-0.7c-0.1-0.3-0.1-0.5-0.1-0.8c0-0.4,0.1-0.8,0.2-1.2c0.2-0.4,0.4-0.7,0.6-0.9c0.3-0.3,0.6-0.5,0.9-0.6
		C144.3,81.5,144.7,81.4,145.1,81.4 M145.1,82.1c-0.3,0-0.6,0.1-0.8,0.1c-0.3,0.1-0.5,0.2-0.7,0.4c-0.2,0.2-0.4,0.4-0.5,0.6
		c-0.1,0.2-0.2,0.5-0.2,0.8c0,0,0-0.1,0.1-0.2c0-0.1,0.1-0.1,0.2-0.1h4.1c-0.1-0.3-0.2-0.5-0.3-0.7c-0.1-0.2-0.3-0.4-0.5-0.5
		c-0.2-0.1-0.4-0.3-0.6-0.3C145.6,82.2,145.3,82.1,145.1,82.1"/>
	<path class="st2" d="M152.8,87.3v-5.1h-1v-0.4c0-0.2,0.2-0.3,0.7-0.3h0.4v-0.7c0-0.2,0-0.4,0.1-0.6c0.1-0.2,0.2-0.3,0.3-0.5
		c0.1-0.1,0.3-0.2,0.4-0.3c0.2-0.1,0.4-0.1,0.6-0.1c0.1,0,0.2,0,0.3,0c0.1,0,0.2,0,0.3,0.1c0.1,0,0.2,0.1,0.3,0.1
		c0.1,0,0.2,0.1,0.3,0.1l-0.1,0.2c-0.1,0.1-0.1,0.1-0.2,0.2c-0.1,0-0.1,0-0.3,0c-0.1,0-0.2,0-0.4-0.1c0,0,0,0-0.1,0c0,0,0,0-0.1,0
		s-0.1,0-0.1,0c-0.1,0-0.2,0-0.3,0.1c-0.1,0-0.2,0.1-0.2,0.2c-0.1,0.1-0.1,0.2-0.1,0.3c0,0.1,0,0.2,0,0.3v0.7h1.6v0.6h-1.6v5.1
		H152.8z"/>
	<path class="st2" d="M155.4,84.4c0-0.3,0-0.5,0.1-0.8c0.1-0.3,0.2-0.5,0.3-0.7c0.1-0.2,0.3-0.4,0.5-0.6c0.2-0.2,0.4-0.3,0.6-0.5
		c0.2-0.1,0.5-0.2,0.7-0.3s0.5-0.1,0.8-0.1c0.4,0,0.8,0.1,1.2,0.2c0.4,0.2,0.7,0.4,0.9,0.6c0.3,0.3,0.5,0.6,0.6,0.9
		c0.2,0.4,0.2,0.7,0.2,1.2c0,0.4-0.1,0.8-0.2,1.2c-0.2,0.4-0.4,0.7-0.6,0.9c-0.3,0.3-0.6,0.5-0.9,0.6c-0.4,0.2-0.7,0.2-1.2,0.2
		c-0.3,0-0.5,0-0.8-0.1c-0.3-0.1-0.5-0.2-0.7-0.3c-0.2-0.1-0.4-0.3-0.6-0.5c-0.2-0.2-0.3-0.4-0.5-0.6c-0.1-0.2-0.2-0.5-0.3-0.7
		C155.4,84.9,155.4,84.7,155.4,84.4 M156.1,84.4c0,0.3,0.1,0.6,0.2,0.9c0.1,0.3,0.3,0.5,0.5,0.7c0.2,0.2,0.4,0.4,0.7,0.5
		c0.3,0.1,0.6,0.2,0.9,0.2c0.3,0,0.6-0.1,0.9-0.2c0.3-0.1,0.5-0.3,0.7-0.5c0.2-0.2,0.4-0.4,0.5-0.7c0.1-0.3,0.2-0.6,0.2-0.9
		c0-0.3-0.1-0.6-0.2-0.9c-0.1-0.3-0.3-0.5-0.5-0.7c-0.2-0.2-0.4-0.4-0.7-0.5c-0.3-0.1-0.6-0.2-0.9-0.2c-0.3,0-0.6,0.1-0.9,0.2
		c-0.3,0.1-0.5,0.3-0.7,0.5c-0.2,0.2-0.4,0.4-0.5,0.7C156.1,83.8,156.1,84.1,156.1,84.4"/>
	<path class="st2" d="M162.9,81.5c0,0,0,0.1,0,0.1c0,0,0,0.1,0,0.1v0.6c0.1-0.1,0.2-0.3,0.3-0.4c0.1-0.1,0.3-0.2,0.5-0.3
		c0.2-0.1,0.4-0.2,0.6-0.2c0.2,0,0.4-0.1,0.6-0.1c0.2,0,0.4,0,0.6,0.1l-0.1,0.3c0,0.1,0,0.1-0.1,0.2c0,0-0.1,0.1-0.1,0.1
		c0,0-0.1,0-0.2,0c-0.1,0-0.1,0-0.2,0H165c-0.3,0-0.5,0-0.8,0.1c-0.2,0.1-0.5,0.2-0.6,0.3c-0.2,0.1-0.3,0.3-0.4,0.5
		c-0.1,0.2-0.2,0.3-0.2,0.5v3.7h-0.7v-5.8H162.9z"/>
	<path class="st2" d="M170.6,81.5c0,0,0,0.1,0.1,0.1c0,0,0,0.1,0,0.1v0.4c0.1-0.1,0.2-0.3,0.4-0.4c0.2-0.1,0.3-0.2,0.5-0.2
		c0.2-0.1,0.4-0.1,0.5-0.1c0.2,0,0.3,0,0.4,0c0.4,0,0.8,0.1,1.1,0.2c0.3,0.2,0.7,0.4,0.9,0.6c0.3,0.3,0.5,0.6,0.6,0.9
		c0.1,0.4,0.2,0.7,0.2,1.2c0,0.4-0.1,0.8-0.2,1.2c-0.1,0.4-0.3,0.7-0.6,0.9c-0.3,0.3-0.6,0.5-0.9,0.6c-0.4,0.2-0.7,0.2-1.1,0.2
		c-0.1,0-0.3,0-0.4,0c-0.1,0-0.3-0.1-0.5-0.1c-0.2-0.1-0.3-0.2-0.5-0.3c-0.2-0.1-0.3-0.3-0.5-0.5v2.9H170v-7.8H170.6z M172.5,86.7
		c0.3,0,0.6-0.1,0.9-0.2c0.3-0.1,0.5-0.3,0.7-0.5c0.2-0.2,0.3-0.4,0.4-0.7c0.1-0.3,0.2-0.6,0.2-0.9s-0.1-0.6-0.2-0.9
		c-0.1-0.3-0.3-0.5-0.4-0.7c-0.2-0.2-0.4-0.4-0.7-0.5c-0.3-0.1-0.6-0.2-0.9-0.2c-0.3,0-0.7,0.1-1,0.2s-0.6,0.3-0.9,0.6v2.7
		c0.1,0.2,0.2,0.3,0.4,0.5c0.1,0.1,0.3,0.2,0.5,0.3c0.2,0.1,0.3,0.2,0.5,0.2C172.2,86.7,172.4,86.7,172.5,86.7"/>
	<path class="st2" d="M176.5,82.4c0.1-0.1,0.1-0.1,0.2-0.2c0.1-0.1,0.1-0.1,0.2-0.2c0.1-0.1,0.1-0.1,0.2-0.1
		c0.2-0.1,0.5-0.2,0.7-0.3c0.2-0.1,0.5-0.1,0.9-0.1c0.3,0,0.6,0,0.8,0.1c0.2,0.1,0.4,0.2,0.6,0.3c0.2,0.1,0.3,0.3,0.4,0.5
		c0.1,0.2,0.2,0.4,0.3,0.6c0.1,0.2,0.1,0.5,0.1,0.7c0,0.2,0,0.5,0,0.7v2.9h-0.6c0,0,0-0.1-0.1-0.1c0-0.1,0-0.1,0-0.2v-0.3
		c-0.2,0.1-0.3,0.3-0.5,0.3c-0.2,0.1-0.4,0.2-0.5,0.2c-0.2,0.1-0.3,0.1-0.5,0.1c-0.2,0-0.3,0-0.5,0h-0.1c-0.2,0-0.5-0.1-0.7-0.1
		c-0.2-0.1-0.4-0.2-0.6-0.3c-0.2-0.1-0.3-0.3-0.4-0.5c-0.1-0.2-0.2-0.4-0.2-0.7c0-0.3,0.1-0.5,0.2-0.7c0.1-0.2,0.3-0.4,0.5-0.6
		c0.2-0.2,0.5-0.3,0.8-0.4c0.3-0.1,0.7-0.1,1.2-0.1c0.1,0,0.3,0,0.4,0c0.1,0,0.3,0,0.4,0c0.1,0,0.2,0,0.3,0c0.1,0,0.2,0,0.2,0
		c0-0.4-0.1-0.7-0.2-1c-0.1-0.3-0.2-0.5-0.3-0.6c-0.1-0.1-0.3-0.2-0.5-0.3c-0.2-0.1-0.4-0.1-0.5-0.1c-0.2,0-0.4,0-0.6,0.1
		c-0.2,0.1-0.3,0.1-0.5,0.2c-0.1,0-0.1,0.1-0.2,0.1c-0.1,0-0.1,0.1-0.3,0.1c-0.1,0-0.3-0.1-0.4-0.2L176.5,82.4z M177.9,86.7
		c0.1,0,0.3,0,0.5,0c0.2,0,0.4-0.1,0.5-0.1c0.2-0.1,0.4-0.1,0.6-0.2c0.2-0.1,0.4-0.2,0.5-0.3v-1.3c0,0-0.1,0-0.2,0s-0.2,0-0.3,0
		c-0.1,0-0.3,0-0.4,0c-0.1,0-0.3,0-0.4,0c-0.3,0-0.5,0-0.8,0.1c-0.2,0-0.4,0.1-0.6,0.2c-0.2,0.1-0.3,0.2-0.4,0.3
		c-0.1,0.1-0.1,0.3-0.1,0.5c0,0.1,0,0.3,0.1,0.4c0.1,0.1,0.1,0.2,0.2,0.3c0.1,0.1,0.2,0.2,0.4,0.2C177.6,86.7,177.8,86.7,177.9,86.7
		"/>
	<path class="st2" d="M183.3,86c0,0.1,0,0.2,0,0.3c0,0.1,0.1,0.2,0.1,0.3c0.1,0.1,0.1,0.1,0.2,0.2c0.1,0,0.2,0.1,0.3,0.1l0.2,0
		c0.2,0,0.3-0.1,0.4-0.1c0.1,0,0.2,0,0.3,0.1c0.1,0.1,0.2,0.1,0.2,0.2l0,0c-0.1,0.1-0.2,0.1-0.3,0.1c-0.1,0-0.2,0.1-0.3,0.1
		c-0.1,0-0.2,0.1-0.3,0.1c-0.1,0-0.2,0-0.3,0c-0.2,0-0.4,0-0.6-0.1c-0.2-0.1-0.3-0.2-0.4-0.3c-0.1-0.1-0.2-0.3-0.3-0.5
		c-0.1-0.2-0.1-0.4-0.1-0.6v-3.8h-1v-0.4c0-0.2,0.2-0.3,0.7-0.3h0.4v-1.3c0-0.2,0-0.3,0.1-0.4c0-0.1,0.1-0.2,0.1-0.2h0.5v2h1.7v0.7
		h-1.7V86z"/>
	<path class="st2" d="M186,79.9c0-0.1,0-0.2,0-0.2c0-0.1,0.1-0.1,0.1-0.2c0.1-0.1,0.1-0.1,0.2-0.1c0.1,0,0.1,0,0.2,0s0.2,0,0.2,0
		c0.1,0,0.1,0.1,0.2,0.1c0.1,0.1,0.1,0.1,0.1,0.2c0,0.1,0,0.1,0,0.2c0,0.1,0,0.2,0,0.2c0,0.1-0.1,0.1-0.1,0.2
		c-0.1,0.1-0.1,0.1-0.2,0.1c-0.1,0-0.1,0-0.2,0s-0.1,0-0.2,0s-0.1-0.1-0.2-0.1c-0.1-0.1-0.1-0.1-0.1-0.2C186,80,186,80,186,79.9
		 M186.9,87.3h-0.7v-5.8h0.7V87.3z"/>
	<path class="st2" d="M191.2,81.4c0.3,0,0.7,0.1,1,0.2c0.3,0.1,0.6,0.3,0.8,0.5c0.2,0.2,0.5,0.4,0.6,0.7c0.2,0.3,0.3,0.6,0.4,0.9
		c0,0.1,0,0.1,0,0.2c0,0.1,0,0.2-0.1,0.3c0,0.1-0.1,0.2-0.1,0.2c-0.1,0.1-0.1,0.1-0.2,0.2c-0.1,0-0.2,0.1-0.3,0.1H189
		c0,0.3,0.1,0.6,0.2,0.8c0.1,0.3,0.3,0.5,0.5,0.7c0.2,0.2,0.4,0.3,0.7,0.4c0.3,0.1,0.6,0.2,0.9,0.2c0.1,0,0.2,0,0.3,0
		s0.2-0.1,0.3-0.1c0.1,0,0.2-0.1,0.3-0.1c0.1-0.1,0.2-0.1,0.3-0.2c0,0,0.1-0.1,0.2-0.1c0.1,0,0.1,0,0.2,0c0.1,0,0.1,0,0.2,0
		c0,0,0.1,0,0.1,0.1c0,0,0.1,0.1,0.1,0.1c0,0,0.1,0.1,0.1,0.1c-0.1,0.1-0.3,0.3-0.5,0.4s-0.3,0.2-0.5,0.3c-0.2,0.1-0.4,0.2-0.6,0.2
		c-0.2,0.1-0.4,0.1-0.6,0.1c-0.3,0-0.5,0-0.8-0.1c-0.3-0.1-0.5-0.2-0.7-0.3c-0.2-0.1-0.4-0.3-0.6-0.5c-0.2-0.2-0.3-0.4-0.5-0.6
		c-0.1-0.2-0.2-0.5-0.3-0.7c-0.1-0.3-0.1-0.5-0.1-0.8c0-0.4,0.1-0.8,0.2-1.2c0.2-0.4,0.4-0.7,0.6-0.9c0.3-0.3,0.6-0.5,0.9-0.6
		C190.4,81.5,190.8,81.4,191.2,81.4 M191.2,82.1c-0.3,0-0.6,0.1-0.8,0.1c-0.3,0.1-0.5,0.2-0.7,0.4c-0.2,0.2-0.4,0.4-0.5,0.6
		c-0.1,0.2-0.2,0.5-0.2,0.8c0,0,0-0.1,0.1-0.2c0-0.1,0.1-0.1,0.2-0.1h4.1c-0.1-0.3-0.2-0.5-0.3-0.7c-0.1-0.2-0.3-0.4-0.5-0.5
		c-0.2-0.1-0.4-0.3-0.6-0.3C191.7,82.2,191.5,82.1,191.2,82.1"/>
	<path class="st2" d="M195.9,81.5c0,0,0,0.1,0,0.1c0,0,0,0.1,0,0.2v0.5c0.1-0.2,0.3-0.3,0.4-0.4c0.2-0.1,0.3-0.2,0.5-0.3
		c0.2-0.1,0.3-0.1,0.5-0.2c0.2,0,0.4-0.1,0.5-0.1c0.3,0,0.6,0.1,0.8,0.2c0.3,0.1,0.5,0.3,0.6,0.5c0.2,0.2,0.3,0.5,0.4,0.8
		c0.1,0.3,0.1,0.7,0.1,1.1v3.3h-0.7V84c0-0.6-0.1-1-0.3-1.4s-0.6-0.5-1.1-0.5c-0.3,0-0.5,0-0.7,0.1c-0.2,0.1-0.4,0.2-0.6,0.3
		c-0.2,0.1-0.3,0.3-0.4,0.4c-0.1,0.2-0.2,0.3-0.2,0.5v3.8h-0.7v-5.8H195.9z"/>
	<path class="st2" d="M202.8,86c0,0.1,0,0.2,0,0.3c0,0.1,0.1,0.2,0.1,0.3c0.1,0.1,0.1,0.1,0.2,0.2c0.1,0,0.2,0.1,0.3,0.1l0.2,0
		c0.2,0,0.3-0.1,0.4-0.1c0.1,0,0.2,0,0.3,0.1c0.1,0.1,0.2,0.1,0.2,0.2l0,0c-0.1,0.1-0.2,0.1-0.3,0.1c-0.1,0-0.2,0.1-0.3,0.1
		c-0.1,0-0.2,0.1-0.3,0.1c-0.1,0-0.2,0-0.3,0c-0.2,0-0.4,0-0.6-0.1c-0.2-0.1-0.3-0.2-0.4-0.3c-0.1-0.1-0.2-0.3-0.3-0.5
		c-0.1-0.2-0.1-0.4-0.1-0.6v-3.8h-1v-0.4c0-0.2,0.2-0.3,0.7-0.3h0.4v-1.3c0-0.2,0-0.3,0.1-0.4c0-0.1,0.1-0.2,0.1-0.2h0.5v2h1.7v0.7
		h-1.7V86z"/>
	<path class="st2" d="M204.9,86.5c0.1-0.1,0.2-0.1,0.3-0.1c0.1,0,0.1-0.1,0.2-0.1c0.1,0,0.1,0,0.2,0c0.1,0,0.1,0.1,0.2,0.1
		c0.1,0.1,0.2,0.1,0.4,0.2c0.1,0,0.3,0.1,0.4,0.1c0.1,0,0.3,0,0.5-0.1c0.2,0,0.3-0.1,0.4-0.2c0.1-0.1,0.2-0.2,0.3-0.3
		c0.1-0.1,0.1-0.3,0.1-0.5c0-0.1,0-0.2-0.1-0.3c0-0.1-0.1-0.2-0.2-0.3c-0.1-0.1-0.2-0.2-0.4-0.2c-0.1-0.1-0.3-0.2-0.6-0.2l-0.1,0
		c-0.2-0.1-0.4-0.1-0.6-0.2c-0.2-0.1-0.4-0.2-0.5-0.3c-0.1-0.1-0.3-0.3-0.4-0.4c-0.1-0.2-0.1-0.4-0.1-0.7c0-0.2,0-0.4,0.1-0.6
		c0.1-0.2,0.2-0.3,0.4-0.4c0.2-0.1,0.3-0.2,0.5-0.3c0.2-0.1,0.4-0.1,0.6-0.1h0c0.2,0,0.4,0,0.5,0.1c0.2,0.1,0.3,0.1,0.4,0.2
		c0.1,0.1,0.2,0.2,0.3,0.3c0.1,0.1,0.2,0.2,0.2,0.2l-0.1,0.1c-0.1,0.1-0.1,0.1-0.2,0.1c-0.1,0-0.1,0.1-0.2,0.1c0,0-0.1,0-0.1,0
		c0,0-0.1,0-0.1-0.1c0,0-0.1-0.1-0.1-0.1c0,0-0.1-0.1-0.1-0.1c-0.1-0.1-0.2-0.1-0.3-0.1c-0.1,0-0.2,0-0.2,0c-0.2,0-0.3,0-0.4,0.1
		c-0.1,0.1-0.2,0.1-0.3,0.2c-0.1,0.1-0.1,0.2-0.2,0.2c0,0.1,0,0.1,0,0.2c0,0.2,0,0.3,0.1,0.4c0.1,0.1,0.1,0.2,0.3,0.3
		c0.1,0.1,0.2,0.1,0.4,0.2c0.1,0.1,0.3,0.1,0.4,0.1l0.1,0c0.2,0.1,0.4,0.2,0.6,0.2c0.2,0.1,0.4,0.2,0.5,0.3c0.2,0.1,0.3,0.3,0.4,0.5
		c0.1,0.2,0.1,0.4,0.1,0.7c0,0.2-0.1,0.5-0.2,0.7s-0.2,0.4-0.4,0.6c-0.2,0.2-0.4,0.3-0.6,0.4c-0.2,0.1-0.5,0.1-0.8,0.1
		c-0.3,0-0.7-0.1-1-0.2C205.3,87,205.1,86.8,204.9,86.5"/>
	<path class="st2" d="M214.2,86c0,0.1,0,0.2,0,0.3c0,0.1,0.1,0.2,0.1,0.3c0.1,0.1,0.1,0.1,0.2,0.2c0.1,0,0.2,0.1,0.3,0.1l0.2,0
		c0.2,0,0.3-0.1,0.4-0.1c0.1,0,0.2,0,0.3,0.1c0.1,0.1,0.2,0.1,0.2,0.2l0,0c-0.1,0.1-0.2,0.1-0.3,0.1c-0.1,0-0.2,0.1-0.3,0.1
		c-0.1,0-0.2,0.1-0.3,0.1c-0.1,0-0.2,0-0.3,0c-0.2,0-0.4,0-0.6-0.1c-0.2-0.1-0.3-0.2-0.4-0.3c-0.1-0.1-0.2-0.3-0.3-0.5
		c-0.1-0.2-0.1-0.4-0.1-0.6v-3.8h-1v-0.4c0-0.2,0.2-0.3,0.7-0.3h0.4v-1.3c0-0.2,0-0.3,0.1-0.4c0-0.1,0.1-0.2,0.1-0.2h0.5v2h1.7v0.7
		h-1.7V86z"/>
	<path class="st2" d="M217.6,79.4C217.6,79.4,217.6,79.4,217.6,79.4c0.1,0.1,0.1,0.1,0.1,0.2c0,0,0,0.1,0,0.1v2.7
		c0-0.1,0.1-0.2,0.2-0.3c0.1-0.1,0.2-0.2,0.4-0.3c0.2-0.1,0.4-0.2,0.6-0.3c0.2-0.1,0.5-0.1,0.8-0.1c0.4,0,0.7,0.1,0.9,0.2
		c0.3,0.1,0.5,0.3,0.7,0.5c0.2,0.2,0.3,0.5,0.4,0.8c0.1,0.3,0.1,0.7,0.1,1v3.3h-0.7V84c0-0.3,0-0.6-0.1-0.8
		c-0.1-0.2-0.1-0.4-0.2-0.6c-0.1-0.2-0.3-0.3-0.4-0.4c-0.2-0.1-0.4-0.1-0.6-0.1h-0.1c-0.3,0-0.6,0-0.8,0.1c-0.2,0.1-0.4,0.2-0.6,0.3
		c-0.2,0.1-0.3,0.3-0.4,0.4c-0.1,0.2-0.1,0.3-0.1,0.4v3.9H217v-7.9H217.6z"/>
	<path class="st2" d="M223.3,82.4c0.1-0.1,0.1-0.1,0.2-0.2c0.1-0.1,0.1-0.1,0.2-0.2c0.1-0.1,0.1-0.1,0.2-0.1
		c0.2-0.1,0.5-0.2,0.7-0.3c0.2-0.1,0.5-0.1,0.9-0.1c0.3,0,0.6,0,0.8,0.1c0.2,0.1,0.4,0.2,0.6,0.3c0.2,0.1,0.3,0.3,0.4,0.5
		c0.1,0.2,0.2,0.4,0.3,0.6c0.1,0.2,0.1,0.5,0.1,0.7c0,0.2,0,0.5,0,0.7v2.9H227c0,0,0-0.1-0.1-0.1c0-0.1,0-0.1,0-0.2v-0.3
		c-0.2,0.1-0.3,0.3-0.5,0.3c-0.2,0.1-0.4,0.2-0.5,0.2c-0.2,0.1-0.3,0.1-0.5,0.1c-0.2,0-0.3,0-0.5,0h-0.1c-0.2,0-0.5-0.1-0.7-0.1
		c-0.2-0.1-0.4-0.2-0.6-0.3c-0.2-0.1-0.3-0.3-0.4-0.5c-0.1-0.2-0.2-0.4-0.2-0.7c0-0.3,0.1-0.5,0.2-0.7c0.1-0.2,0.3-0.4,0.5-0.6
		c0.2-0.2,0.5-0.3,0.8-0.4c0.3-0.1,0.7-0.1,1.2-0.1c0.1,0,0.3,0,0.4,0c0.1,0,0.3,0,0.4,0c0.1,0,0.2,0,0.3,0c0.1,0,0.2,0,0.2,0
		c0-0.4-0.1-0.7-0.2-1c-0.1-0.3-0.2-0.5-0.3-0.6c-0.1-0.1-0.3-0.2-0.5-0.3c-0.2-0.1-0.4-0.1-0.5-0.1c-0.2,0-0.4,0-0.6,0.1
		c-0.2,0.1-0.3,0.1-0.5,0.2c-0.1,0-0.1,0.1-0.2,0.1c-0.1,0-0.1,0.1-0.3,0.1c-0.1,0-0.3-0.1-0.4-0.2L223.3,82.4z M224.8,86.7
		c0.1,0,0.3,0,0.5,0c0.2,0,0.4-0.1,0.5-0.1c0.2-0.1,0.4-0.1,0.6-0.2c0.2-0.1,0.4-0.2,0.5-0.3v-1.3c0,0-0.1,0-0.2,0s-0.2,0-0.3,0
		c-0.1,0-0.3,0-0.4,0c-0.1,0-0.3,0-0.4,0c-0.3,0-0.5,0-0.8,0.1c-0.2,0-0.4,0.1-0.6,0.2c-0.2,0.1-0.3,0.2-0.4,0.3
		c-0.1,0.1-0.1,0.3-0.1,0.5c0,0.1,0,0.3,0.1,0.4c0.1,0.1,0.1,0.2,0.2,0.3c0.1,0.1,0.2,0.2,0.4,0.2C224.5,86.7,224.6,86.7,224.8,86.7
		"/>
	<path class="st2" d="M230.1,86c0,0.1,0,0.2,0,0.3c0,0.1,0.1,0.2,0.1,0.3c0.1,0.1,0.1,0.1,0.2,0.2c0.1,0,0.2,0.1,0.3,0.1l0.2,0
		c0.2,0,0.3-0.1,0.4-0.1c0.1,0,0.2,0,0.3,0.1c0.1,0.1,0.2,0.1,0.2,0.2l0,0c-0.1,0.1-0.2,0.1-0.3,0.1c-0.1,0-0.2,0.1-0.3,0.1
		c-0.1,0-0.2,0.1-0.3,0.1c-0.1,0-0.2,0-0.3,0c-0.2,0-0.4,0-0.6-0.1c-0.2-0.1-0.3-0.2-0.4-0.3c-0.1-0.1-0.2-0.3-0.3-0.5
		c-0.1-0.2-0.1-0.4-0.1-0.6v-3.8h-1v-0.4c0-0.2,0.2-0.3,0.7-0.3h0.4v-1.3c0-0.2,0-0.3,0.1-0.4c0-0.1,0.1-0.2,0.1-0.2h0.5v2h1.7v0.7
		h-1.7V86z"/>
	<path class="st2" d="M236,84.4c0-0.3,0-0.5,0.1-0.8c0.1-0.3,0.2-0.5,0.3-0.7c0.1-0.2,0.3-0.4,0.5-0.6c0.2-0.2,0.4-0.3,0.6-0.5
		c0.2-0.1,0.5-0.2,0.7-0.3s0.5-0.1,0.8-0.1c0.4,0,0.8,0.1,1.2,0.2c0.4,0.2,0.7,0.4,0.9,0.6c0.3,0.3,0.5,0.6,0.6,0.9
		c0.2,0.4,0.2,0.7,0.2,1.2c0,0.4-0.1,0.8-0.2,1.2c-0.2,0.4-0.4,0.7-0.6,0.9c-0.3,0.3-0.6,0.5-0.9,0.6c-0.4,0.2-0.7,0.2-1.2,0.2
		c-0.3,0-0.5,0-0.8-0.1c-0.3-0.1-0.5-0.2-0.7-0.3c-0.2-0.1-0.4-0.3-0.6-0.5c-0.2-0.2-0.3-0.4-0.5-0.6c-0.1-0.2-0.2-0.5-0.3-0.7
		C236,84.9,236,84.7,236,84.4 M236.7,84.4c0,0.3,0.1,0.6,0.2,0.9c0.1,0.3,0.3,0.5,0.5,0.7c0.2,0.2,0.4,0.4,0.7,0.5
		c0.3,0.1,0.6,0.2,0.9,0.2c0.3,0,0.6-0.1,0.9-0.2c0.3-0.1,0.5-0.3,0.7-0.5c0.2-0.2,0.4-0.4,0.5-0.7c0.1-0.3,0.2-0.6,0.2-0.9
		c0-0.3-0.1-0.6-0.2-0.9c-0.1-0.3-0.3-0.5-0.5-0.7c-0.2-0.2-0.4-0.4-0.7-0.5c-0.3-0.1-0.6-0.2-0.9-0.2c-0.3,0-0.6,0.1-0.9,0.2
		c-0.3,0.1-0.5,0.3-0.7,0.5c-0.2,0.2-0.4,0.4-0.5,0.7C236.7,83.8,236.7,84.1,236.7,84.4"/>
	<path class="st2" d="M244,86c0,0.1,0,0.2,0,0.3c0,0.1,0.1,0.2,0.1,0.3c0.1,0.1,0.1,0.1,0.2,0.2c0.1,0,0.2,0.1,0.3,0.1l0.2,0
		c0.2,0,0.3-0.1,0.4-0.1c0.1,0,0.2,0,0.3,0.1c0.1,0.1,0.2,0.1,0.2,0.2l0,0c-0.1,0.1-0.2,0.1-0.3,0.1c-0.1,0-0.2,0.1-0.3,0.1
		c-0.1,0-0.2,0.1-0.3,0.1c-0.1,0-0.2,0-0.3,0c-0.2,0-0.4,0-0.6-0.1c-0.2-0.1-0.3-0.2-0.4-0.3c-0.1-0.1-0.2-0.3-0.3-0.5
		c-0.1-0.2-0.1-0.4-0.1-0.6v-3.8h-1v-0.4c0-0.2,0.2-0.3,0.7-0.3h0.4v-1.3c0-0.2,0-0.3,0.1-0.4c0-0.1,0.1-0.2,0.1-0.2h0.5v2h1.7v0.7
		H244V86z"/>
	<path class="st2" d="M247.4,79.4C247.4,79.4,247.4,79.4,247.4,79.4c0.1,0.1,0.1,0.1,0.1,0.2c0,0,0,0.1,0,0.1v2.7
		c0-0.1,0.1-0.2,0.2-0.3c0.1-0.1,0.2-0.2,0.4-0.3c0.2-0.1,0.4-0.2,0.6-0.3c0.2-0.1,0.5-0.1,0.8-0.1c0.4,0,0.7,0.1,0.9,0.2
		c0.3,0.1,0.5,0.3,0.7,0.5c0.2,0.2,0.3,0.5,0.4,0.8c0.1,0.3,0.1,0.7,0.1,1v3.3h-0.7V84c0-0.3,0-0.6-0.1-0.8
		c-0.1-0.2-0.1-0.4-0.2-0.6c-0.1-0.2-0.3-0.3-0.4-0.4c-0.2-0.1-0.4-0.1-0.6-0.1h-0.1c-0.3,0-0.6,0-0.8,0.1c-0.2,0.1-0.4,0.2-0.6,0.3
		c-0.2,0.1-0.3,0.3-0.4,0.4c-0.1,0.2-0.1,0.3-0.1,0.4v3.9h-0.7v-7.9H247.4z"/>
	<path class="st2" d="M255.8,81.4c0.3,0,0.7,0.1,1,0.2c0.3,0.1,0.6,0.3,0.8,0.5c0.2,0.2,0.5,0.4,0.6,0.7c0.2,0.3,0.3,0.6,0.4,0.9
		c0,0.1,0,0.1,0,0.2c0,0.1,0,0.2-0.1,0.3c0,0.1-0.1,0.2-0.1,0.2c-0.1,0.1-0.1,0.1-0.2,0.2c-0.1,0-0.2,0.1-0.3,0.1h-4.5
		c0,0.3,0.1,0.6,0.2,0.8c0.1,0.3,0.3,0.5,0.5,0.7c0.2,0.2,0.4,0.3,0.7,0.4c0.3,0.1,0.6,0.2,0.9,0.2c0.1,0,0.2,0,0.3,0
		s0.2-0.1,0.3-0.1c0.1,0,0.2-0.1,0.3-0.1c0.1-0.1,0.2-0.1,0.3-0.2c0,0,0.1-0.1,0.2-0.1c0.1,0,0.1,0,0.2,0c0.1,0,0.1,0,0.2,0
		c0,0,0.1,0,0.1,0.1c0,0,0.1,0.1,0.1,0.1c0,0,0.1,0.1,0.1,0.1c-0.1,0.1-0.3,0.3-0.5,0.4s-0.3,0.2-0.5,0.3c-0.2,0.1-0.4,0.2-0.6,0.2
		c-0.2,0.1-0.4,0.1-0.6,0.1c-0.3,0-0.5,0-0.8-0.1c-0.3-0.1-0.5-0.2-0.7-0.3c-0.2-0.1-0.4-0.3-0.6-0.5c-0.2-0.2-0.3-0.4-0.5-0.6
		c-0.1-0.2-0.2-0.5-0.3-0.7c-0.1-0.3-0.1-0.5-0.1-0.8c0-0.4,0.1-0.8,0.2-1.2c0.2-0.4,0.4-0.7,0.6-0.9c0.3-0.3,0.6-0.5,0.9-0.6
		C255,81.5,255.4,81.4,255.8,81.4 M255.8,82.1c-0.3,0-0.6,0.1-0.8,0.1c-0.3,0.1-0.5,0.2-0.7,0.4c-0.2,0.2-0.4,0.4-0.5,0.6
		c-0.1,0.2-0.2,0.5-0.2,0.8c0,0,0-0.1,0.1-0.2c0-0.1,0.1-0.1,0.2-0.1h4.1c-0.1-0.3-0.2-0.5-0.3-0.7c-0.1-0.2-0.3-0.4-0.5-0.5
		c-0.2-0.1-0.4-0.3-0.6-0.3C256.3,82.2,256,82.1,255.8,82.1"/>
	<path class="st2" d="M260.2,81.5c0,0,0,0.1,0,0.1c0,0,0,0.1,0,0.1v0.6c0.1-0.1,0.2-0.3,0.3-0.4c0.1-0.1,0.3-0.2,0.5-0.3
		c0.2-0.1,0.4-0.2,0.6-0.2c0.2,0,0.4-0.1,0.6-0.1c0.2,0,0.4,0,0.6,0.1l-0.1,0.3c0,0.1,0,0.1-0.1,0.2c0,0-0.1,0.1-0.1,0.1
		c0,0-0.1,0-0.2,0c-0.1,0-0.1,0-0.2,0h-0.1c-0.3,0-0.5,0-0.8,0.1c-0.2,0.1-0.5,0.2-0.6,0.3c-0.2,0.1-0.3,0.3-0.4,0.5
		c-0.1,0.2-0.2,0.3-0.2,0.5v3.7h-0.7v-5.8H260.2z"/>
	<path class="st2" d="M267.8,79.4C267.9,79.4,267.9,79.4,267.8,79.4c0.1,0.1,0.1,0.1,0.1,0.2c0,0,0,0.1,0,0.1v2.7
		c0-0.1,0.1-0.2,0.2-0.3c0.1-0.1,0.2-0.2,0.4-0.3c0.2-0.1,0.4-0.2,0.6-0.3c0.2-0.1,0.5-0.1,0.8-0.1c0.4,0,0.7,0.1,0.9,0.2
		c0.3,0.1,0.5,0.3,0.7,0.5c0.2,0.2,0.3,0.5,0.4,0.8c0.1,0.3,0.1,0.7,0.1,1v3.3h-0.7V84c0-0.3,0-0.6-0.1-0.8
		c-0.1-0.2-0.1-0.4-0.2-0.6c-0.1-0.2-0.3-0.3-0.4-0.4c-0.2-0.1-0.4-0.1-0.6-0.1h-0.1c-0.3,0-0.6,0-0.8,0.1c-0.2,0.1-0.4,0.2-0.6,0.3
		c-0.2,0.1-0.3,0.3-0.4,0.4c-0.1,0.2-0.1,0.3-0.1,0.4v3.9h-0.7v-7.9H267.8z"/>
	<path class="st2" d="M273.2,84.4c0-0.3,0-0.5,0.1-0.8c0.1-0.3,0.2-0.5,0.3-0.7c0.1-0.2,0.3-0.4,0.5-0.6c0.2-0.2,0.4-0.3,0.6-0.5
		c0.2-0.1,0.5-0.2,0.7-0.3s0.5-0.1,0.8-0.1c0.4,0,0.8,0.1,1.2,0.2c0.4,0.2,0.7,0.4,0.9,0.6c0.3,0.3,0.5,0.6,0.6,0.9
		c0.2,0.4,0.2,0.7,0.2,1.2c0,0.4-0.1,0.8-0.2,1.2c-0.2,0.4-0.4,0.7-0.6,0.9c-0.3,0.3-0.6,0.5-0.9,0.6c-0.4,0.2-0.7,0.2-1.2,0.2
		c-0.3,0-0.5,0-0.8-0.1c-0.3-0.1-0.5-0.2-0.7-0.3c-0.2-0.1-0.4-0.3-0.6-0.5c-0.2-0.2-0.3-0.4-0.5-0.6c-0.1-0.2-0.2-0.5-0.3-0.7
		C273.3,84.9,273.2,84.7,273.2,84.4 M273.9,84.4c0,0.3,0.1,0.6,0.2,0.9c0.1,0.3,0.3,0.5,0.5,0.7c0.2,0.2,0.4,0.4,0.7,0.5
		c0.3,0.1,0.6,0.2,0.9,0.2c0.3,0,0.6-0.1,0.9-0.2c0.3-0.1,0.5-0.3,0.7-0.5c0.2-0.2,0.4-0.4,0.5-0.7c0.1-0.3,0.2-0.6,0.2-0.9
		c0-0.3-0.1-0.6-0.2-0.9c-0.1-0.3-0.3-0.5-0.5-0.7c-0.2-0.2-0.4-0.4-0.7-0.5c-0.3-0.1-0.6-0.2-0.9-0.2c-0.3,0-0.6,0.1-0.9,0.2
		c-0.3,0.1-0.5,0.3-0.7,0.5c-0.2,0.2-0.4,0.4-0.5,0.7C274,83.8,273.9,84.1,273.9,84.4"/>
	<path class="st2" d="M279.7,86.5c0.1-0.1,0.2-0.1,0.3-0.1c0.1,0,0.1-0.1,0.2-0.1c0.1,0,0.1,0,0.2,0c0.1,0,0.1,0.1,0.2,0.1
		c0.1,0.1,0.2,0.1,0.4,0.2c0.1,0,0.3,0.1,0.4,0.1c0.1,0,0.3,0,0.5-0.1c0.2,0,0.3-0.1,0.4-0.2c0.1-0.1,0.2-0.2,0.3-0.3
		c0.1-0.1,0.1-0.3,0.1-0.5c0-0.1,0-0.2-0.1-0.3c0-0.1-0.1-0.2-0.2-0.3c-0.1-0.1-0.2-0.2-0.4-0.2c-0.1-0.1-0.3-0.2-0.6-0.2l-0.1,0
		c-0.2-0.1-0.4-0.1-0.6-0.2c-0.2-0.1-0.4-0.2-0.5-0.3c-0.1-0.1-0.3-0.3-0.4-0.4c-0.1-0.2-0.1-0.4-0.1-0.7c0-0.2,0-0.4,0.1-0.6
		c0.1-0.2,0.2-0.3,0.4-0.4c0.2-0.1,0.3-0.2,0.5-0.3c0.2-0.1,0.4-0.1,0.6-0.1h0c0.2,0,0.4,0,0.5,0.1c0.2,0.1,0.3,0.1,0.4,0.2
		c0.1,0.1,0.2,0.2,0.3,0.3c0.1,0.1,0.2,0.2,0.2,0.2l-0.1,0.1c-0.1,0.1-0.1,0.1-0.2,0.1c-0.1,0-0.1,0.1-0.2,0.1c0,0-0.1,0-0.1,0
		c0,0-0.1,0-0.1-0.1c0,0-0.1-0.1-0.1-0.1c0,0-0.1-0.1-0.1-0.1c-0.1-0.1-0.2-0.1-0.3-0.1c-0.1,0-0.2,0-0.2,0c-0.2,0-0.3,0-0.4,0.1
		c-0.1,0.1-0.2,0.1-0.3,0.2c-0.1,0.1-0.1,0.2-0.2,0.2c0,0.1,0,0.1,0,0.2c0,0.2,0,0.3,0.1,0.4c0.1,0.1,0.1,0.2,0.3,0.3
		c0.1,0.1,0.2,0.1,0.4,0.2c0.1,0.1,0.3,0.1,0.4,0.1l0.1,0c0.2,0.1,0.4,0.2,0.6,0.2c0.2,0.1,0.4,0.2,0.5,0.3c0.2,0.1,0.3,0.3,0.4,0.5
		c0.1,0.2,0.1,0.4,0.1,0.7c0,0.2-0.1,0.5-0.2,0.7s-0.2,0.4-0.4,0.6c-0.2,0.2-0.4,0.3-0.6,0.4c-0.2,0.1-0.5,0.1-0.8,0.1
		c-0.3,0-0.7-0.1-1-0.2C280.1,87,279.8,86.8,279.7,86.5"/>
	<path class="st2" d="M285.2,81.5c0,0,0,0.1,0.1,0.1c0,0,0,0.1,0,0.1v0.4c0.1-0.1,0.2-0.3,0.4-0.4c0.2-0.1,0.3-0.2,0.5-0.2
		c0.2-0.1,0.4-0.1,0.5-0.1c0.2,0,0.3,0,0.4,0c0.4,0,0.8,0.1,1.1,0.2c0.3,0.2,0.7,0.4,0.9,0.6c0.3,0.3,0.5,0.6,0.6,0.9
		c0.1,0.4,0.2,0.7,0.2,1.2c0,0.4-0.1,0.8-0.2,1.2c-0.1,0.4-0.3,0.7-0.6,0.9c-0.3,0.3-0.6,0.5-0.9,0.6c-0.4,0.2-0.7,0.2-1.1,0.2
		c-0.1,0-0.3,0-0.4,0s-0.3-0.1-0.5-0.1c-0.2-0.1-0.3-0.2-0.5-0.3c-0.2-0.1-0.3-0.3-0.5-0.5v2.9h-0.7v-7.8H285.2z M287.1,86.7
		c0.3,0,0.6-0.1,0.9-0.2s0.5-0.3,0.7-0.5c0.2-0.2,0.3-0.4,0.4-0.7c0.1-0.3,0.2-0.6,0.2-0.9s-0.1-0.6-0.2-0.9
		c-0.1-0.3-0.3-0.5-0.4-0.7s-0.4-0.4-0.7-0.5c-0.3-0.1-0.6-0.2-0.9-0.2c-0.3,0-0.7,0.1-1,0.2c-0.3,0.1-0.6,0.3-0.9,0.6v2.7
		c0.1,0.2,0.2,0.3,0.4,0.5c0.1,0.1,0.3,0.2,0.5,0.3c0.2,0.1,0.3,0.2,0.5,0.2C286.7,86.7,286.9,86.7,287.1,86.7"/>
	<path class="st2" d="M291,79.9c0-0.1,0-0.2,0-0.2c0-0.1,0.1-0.1,0.1-0.2c0.1-0.1,0.1-0.1,0.2-0.1c0.1,0,0.1,0,0.2,0
		c0.1,0,0.2,0,0.2,0c0.1,0,0.1,0.1,0.2,0.1c0.1,0.1,0.1,0.1,0.1,0.2c0,0.1,0,0.1,0,0.2c0,0.1,0,0.2,0,0.2c0,0.1-0.1,0.1-0.1,0.2
		c-0.1,0.1-0.1,0.1-0.2,0.1c-0.1,0-0.1,0-0.2,0c-0.1,0-0.2,0-0.2,0c-0.1,0-0.1-0.1-0.2-0.1c-0.1-0.1-0.1-0.1-0.1-0.2
		C291,80,291,80,291,79.9 M291.9,87.3h-0.7v-5.8h0.7V87.3z"/>
	<path class="st2" d="M294.7,86c0,0.1,0,0.2,0,0.3c0,0.1,0.1,0.2,0.1,0.3c0.1,0.1,0.1,0.1,0.2,0.2c0.1,0,0.2,0.1,0.3,0.1l0.2,0
		c0.2,0,0.3-0.1,0.4-0.1c0.1,0,0.2,0,0.3,0.1c0.1,0.1,0.2,0.1,0.2,0.2l0,0c-0.1,0.1-0.2,0.1-0.3,0.1c-0.1,0-0.2,0.1-0.3,0.1
		c-0.1,0-0.2,0.1-0.3,0.1c-0.1,0-0.2,0-0.3,0c-0.2,0-0.4,0-0.6-0.1c-0.2-0.1-0.3-0.2-0.4-0.3c-0.1-0.1-0.2-0.3-0.3-0.5
		c-0.1-0.2-0.1-0.4-0.1-0.6v-3.8h-1v-0.4c0-0.2,0.2-0.3,0.7-0.3h0.4v-1.3c0-0.2,0-0.3,0.1-0.4c0-0.1,0.1-0.2,0.1-0.2h0.5v2h1.7v0.7
		h-1.7V86z"/>
	<path class="st2" d="M297.5,82.4c0.1-0.1,0.1-0.1,0.2-0.2c0.1-0.1,0.1-0.1,0.2-0.2c0.1-0.1,0.1-0.1,0.2-0.1
		c0.2-0.1,0.5-0.2,0.7-0.3c0.2-0.1,0.5-0.1,0.9-0.1c0.3,0,0.6,0,0.8,0.1c0.2,0.1,0.4,0.2,0.6,0.3c0.2,0.1,0.3,0.3,0.4,0.5
		c0.1,0.2,0.2,0.4,0.3,0.6c0.1,0.2,0.1,0.5,0.1,0.7c0,0.2,0,0.5,0,0.7v2.9h-0.6c0,0,0-0.1-0.1-0.1c0-0.1,0-0.1,0-0.2v-0.3
		c-0.2,0.1-0.3,0.3-0.5,0.3c-0.2,0.1-0.4,0.2-0.5,0.2c-0.2,0.1-0.3,0.1-0.5,0.1c-0.2,0-0.3,0-0.5,0H299c-0.2,0-0.5-0.1-0.7-0.1
		c-0.2-0.1-0.4-0.2-0.6-0.3c-0.2-0.1-0.3-0.3-0.4-0.5c-0.1-0.2-0.2-0.4-0.2-0.7c0-0.3,0.1-0.5,0.2-0.7c0.1-0.2,0.3-0.4,0.5-0.6
		c0.2-0.2,0.5-0.3,0.8-0.4c0.3-0.1,0.7-0.1,1.2-0.1c0.1,0,0.3,0,0.4,0c0.1,0,0.3,0,0.4,0c0.1,0,0.2,0,0.3,0c0.1,0,0.2,0,0.2,0
		c0-0.4-0.1-0.7-0.2-1c-0.1-0.3-0.2-0.5-0.3-0.6c-0.1-0.1-0.3-0.2-0.5-0.3c-0.2-0.1-0.4-0.1-0.5-0.1c-0.2,0-0.4,0-0.6,0.1
		c-0.2,0.1-0.3,0.1-0.5,0.2c-0.1,0-0.1,0.1-0.2,0.1c-0.1,0-0.1,0.1-0.3,0.1c-0.2,0-0.3-0.1-0.4-0.2L297.5,82.4z M299,86.7
		c0.1,0,0.3,0,0.5,0c0.2,0,0.4-0.1,0.5-0.1c0.2-0.1,0.4-0.1,0.6-0.2c0.2-0.1,0.4-0.2,0.5-0.3v-1.3c0,0-0.1,0-0.2,0
		c-0.1,0-0.2,0-0.3,0c-0.1,0-0.3,0-0.4,0c-0.1,0-0.3,0-0.4,0c-0.3,0-0.5,0-0.8,0.1c-0.2,0-0.4,0.1-0.6,0.2c-0.2,0.1-0.3,0.2-0.4,0.3
		c-0.1,0.1-0.1,0.3-0.1,0.5c0,0.1,0,0.3,0.1,0.4c0.1,0.1,0.1,0.2,0.2,0.3c0.1,0.1,0.2,0.2,0.4,0.2C298.6,86.7,298.8,86.7,299,86.7"
		/>
	<rect x="303.3" y="79.4" class="st2" width="0.7" height="7.9"/>
	<path class="st2" d="M305,86.5c0.1-0.1,0.2-0.1,0.3-0.1c0.1,0,0.1-0.1,0.2-0.1c0.1,0,0.1,0,0.2,0c0.1,0,0.1,0.1,0.2,0.1
		c0.1,0.1,0.2,0.1,0.4,0.2c0.1,0,0.3,0.1,0.4,0.1c0.2,0,0.3,0,0.5-0.1c0.2,0,0.3-0.1,0.4-0.2c0.1-0.1,0.2-0.2,0.3-0.3
		c0.1-0.1,0.1-0.3,0.1-0.5c0-0.1,0-0.2-0.1-0.3c0-0.1-0.1-0.2-0.2-0.3c-0.1-0.1-0.2-0.2-0.4-0.2c-0.1-0.1-0.3-0.2-0.6-0.2l-0.1,0
		c-0.2-0.1-0.4-0.1-0.6-0.2c-0.2-0.1-0.4-0.2-0.5-0.3c-0.2-0.1-0.3-0.3-0.4-0.4c-0.1-0.2-0.1-0.4-0.1-0.7c0-0.2,0-0.4,0.1-0.6
		c0.1-0.2,0.2-0.3,0.4-0.4c0.2-0.1,0.3-0.2,0.5-0.3c0.2-0.1,0.4-0.1,0.6-0.1h0c0.2,0,0.4,0,0.5,0.1c0.2,0.1,0.3,0.1,0.4,0.2
		c0.1,0.1,0.2,0.2,0.3,0.3c0.1,0.1,0.2,0.2,0.2,0.2l-0.1,0.1c-0.1,0.1-0.1,0.1-0.2,0.1c-0.1,0-0.1,0.1-0.2,0.1c0,0-0.1,0-0.1,0
		c0,0-0.1,0-0.1-0.1c0,0-0.1-0.1-0.1-0.1c0,0-0.1-0.1-0.1-0.1c-0.1-0.1-0.2-0.1-0.3-0.1c-0.1,0-0.2,0-0.2,0c-0.2,0-0.3,0-0.4,0.1
		c-0.1,0.1-0.2,0.1-0.3,0.2c-0.1,0.1-0.1,0.2-0.2,0.2c0,0.1,0,0.1,0,0.2c0,0.2,0,0.3,0.1,0.4c0.1,0.1,0.1,0.2,0.3,0.3
		c0.1,0.1,0.2,0.1,0.4,0.2c0.1,0.1,0.3,0.1,0.4,0.1l0.1,0c0.2,0.1,0.4,0.2,0.6,0.2c0.2,0.1,0.4,0.2,0.5,0.3c0.2,0.1,0.3,0.3,0.4,0.5
		c0.1,0.2,0.1,0.4,0.1,0.7c0,0.2-0.1,0.5-0.2,0.7c-0.1,0.2-0.2,0.4-0.4,0.6c-0.2,0.2-0.4,0.3-0.6,0.4c-0.2,0.1-0.5,0.1-0.8,0.1
		c-0.3,0-0.7-0.1-1-0.2C305.5,87,305.2,86.8,305,86.5"/>
	<path class="st2" d="M317.7,87.3C317.7,87.3,317.6,87.2,317.7,87.3c-0.1-0.1-0.1-0.2-0.1-0.2c0-0.1,0-0.1,0-0.2v-0.2
		c-0.2,0.2-0.4,0.3-0.5,0.4c-0.2,0.1-0.3,0.2-0.5,0.2c-0.2,0.1-0.3,0.1-0.4,0.1c-0.1,0-0.3,0-0.4,0c-0.4,0-0.8-0.1-1.1-0.2
		c-0.3-0.2-0.6-0.4-0.9-0.6c-0.3-0.3-0.5-0.6-0.6-0.9c-0.1-0.4-0.2-0.7-0.2-1.2c0-0.4,0.1-0.8,0.2-1.2c0.1-0.4,0.3-0.7,0.6-0.9
		c0.3-0.3,0.6-0.5,0.9-0.6c0.3-0.2,0.7-0.2,1.1-0.2c0.1,0,0.3,0,0.4,0c0.1,0,0.3,0,0.4,0.1c0.2,0.1,0.3,0.1,0.5,0.2
		c0.2,0.1,0.4,0.2,0.5,0.4v-2.8h0.7v7.9H317.7z M315.7,82.1c-0.3,0-0.6,0.1-0.9,0.2c-0.3,0.1-0.5,0.3-0.7,0.5
		c-0.2,0.2-0.3,0.5-0.4,0.7c-0.1,0.3-0.2,0.6-0.2,0.8c0,0.3,0.1,0.6,0.2,0.9c0.1,0.3,0.3,0.5,0.4,0.7c0.2,0.2,0.4,0.4,0.7,0.5
		c0.3,0.1,0.6,0.2,0.9,0.2c0.3,0,0.7-0.1,1-0.2c0.3-0.1,0.6-0.3,0.9-0.6V83c-0.3-0.3-0.5-0.5-0.9-0.6
		C316.4,82.2,316,82.1,315.7,82.1"/>
	<path class="st2" d="M319.5,84.4c0-0.3,0-0.5,0.1-0.8c0.1-0.3,0.2-0.5,0.3-0.7c0.1-0.2,0.3-0.4,0.5-0.6c0.2-0.2,0.4-0.3,0.6-0.5
		c0.2-0.1,0.5-0.2,0.7-0.3s0.5-0.1,0.8-0.1c0.4,0,0.8,0.1,1.2,0.2c0.4,0.2,0.7,0.4,0.9,0.6c0.3,0.3,0.5,0.6,0.6,0.9
		c0.2,0.4,0.2,0.7,0.2,1.2c0,0.4-0.1,0.8-0.2,1.2c-0.2,0.4-0.4,0.7-0.6,0.9c-0.3,0.3-0.6,0.5-0.9,0.6c-0.4,0.2-0.7,0.2-1.2,0.2
		c-0.3,0-0.5,0-0.8-0.1c-0.3-0.1-0.5-0.2-0.7-0.3c-0.2-0.1-0.4-0.3-0.6-0.5c-0.2-0.2-0.3-0.4-0.5-0.6c-0.1-0.2-0.2-0.5-0.3-0.7
		C319.6,84.9,319.5,84.7,319.5,84.4 M320.2,84.4c0,0.3,0.1,0.6,0.2,0.9c0.1,0.3,0.3,0.5,0.5,0.7c0.2,0.2,0.4,0.4,0.7,0.5
		c0.3,0.1,0.6,0.2,0.9,0.2c0.3,0,0.6-0.1,0.9-0.2s0.5-0.3,0.7-0.5c0.2-0.2,0.4-0.4,0.5-0.7c0.1-0.3,0.2-0.6,0.2-0.9
		c0-0.3-0.1-0.6-0.2-0.9c-0.1-0.3-0.3-0.5-0.5-0.7c-0.2-0.2-0.4-0.4-0.7-0.5c-0.3-0.1-0.6-0.2-0.9-0.2c-0.3,0-0.6,0.1-0.9,0.2
		c-0.3,0.1-0.5,0.3-0.7,0.5s-0.4,0.4-0.5,0.7C320.3,83.8,320.2,84.1,320.2,84.4"/>
	<path class="st2" d="M330.7,81.5c0,0,0,0.1,0,0.1c0,0,0,0.1,0,0.2v0.5c0.1-0.2,0.3-0.3,0.4-0.4c0.2-0.1,0.3-0.2,0.5-0.3
		c0.2-0.1,0.3-0.1,0.5-0.2c0.2,0,0.4-0.1,0.5-0.1c0.3,0,0.6,0.1,0.8,0.2c0.3,0.1,0.5,0.3,0.6,0.5c0.2,0.2,0.3,0.5,0.4,0.8
		c0.1,0.3,0.1,0.7,0.1,1.1v3.3h-0.7V84c0-0.6-0.1-1-0.3-1.4s-0.6-0.5-1.1-0.5c-0.3,0-0.5,0-0.7,0.1c-0.2,0.1-0.4,0.2-0.6,0.3
		c-0.2,0.1-0.3,0.3-0.4,0.4c-0.1,0.2-0.2,0.3-0.2,0.5v3.8h-0.7v-5.8H330.7z"/>
	<path class="st2" d="M336,84.4c0-0.3,0-0.5,0.1-0.8c0.1-0.3,0.2-0.5,0.3-0.7c0.1-0.2,0.3-0.4,0.5-0.6c0.2-0.2,0.4-0.3,0.6-0.5
		c0.2-0.1,0.5-0.2,0.7-0.3s0.5-0.1,0.8-0.1c0.4,0,0.8,0.1,1.2,0.2c0.4,0.2,0.7,0.4,0.9,0.6c0.3,0.3,0.5,0.6,0.6,0.9
		c0.2,0.4,0.2,0.7,0.2,1.2c0,0.4-0.1,0.8-0.2,1.2c-0.2,0.4-0.4,0.7-0.6,0.9c-0.3,0.3-0.6,0.5-0.9,0.6c-0.4,0.2-0.7,0.2-1.2,0.2
		c-0.3,0-0.5,0-0.8-0.1c-0.3-0.1-0.5-0.2-0.7-0.3c-0.2-0.1-0.4-0.3-0.6-0.5c-0.2-0.2-0.3-0.4-0.5-0.6c-0.1-0.2-0.2-0.5-0.3-0.7
		C336.1,84.9,336,84.7,336,84.4 M336.7,84.4c0,0.3,0.1,0.6,0.2,0.9c0.1,0.3,0.3,0.5,0.5,0.7c0.2,0.2,0.4,0.4,0.7,0.5
		c0.3,0.1,0.6,0.2,0.9,0.2c0.3,0,0.6-0.1,0.9-0.2s0.5-0.3,0.7-0.5c0.2-0.2,0.4-0.4,0.5-0.7c0.1-0.3,0.2-0.6,0.2-0.9
		c0-0.3-0.1-0.6-0.2-0.9c-0.1-0.3-0.3-0.5-0.5-0.7c-0.2-0.2-0.4-0.4-0.7-0.5c-0.3-0.1-0.6-0.2-0.9-0.2c-0.3,0-0.6,0.1-0.9,0.2
		c-0.3,0.1-0.5,0.3-0.7,0.5s-0.4,0.4-0.5,0.7C336.8,83.8,336.7,84.1,336.7,84.4"/>
	<path class="st2" d="M344.1,86c0,0.1,0,0.2,0,0.3c0,0.1,0.1,0.2,0.1,0.3c0.1,0.1,0.1,0.1,0.2,0.2c0.1,0,0.2,0.1,0.3,0.1l0.2,0
		c0.2,0,0.3-0.1,0.4-0.1c0.1,0,0.2,0,0.3,0.1c0.1,0.1,0.2,0.1,0.2,0.2l0,0c-0.1,0.1-0.2,0.1-0.3,0.1c-0.1,0-0.2,0.1-0.3,0.1
		c-0.1,0-0.2,0.1-0.3,0.1c-0.1,0-0.2,0-0.3,0c-0.2,0-0.4,0-0.6-0.1c-0.2-0.1-0.3-0.2-0.4-0.3c-0.1-0.1-0.2-0.3-0.3-0.5
		c-0.1-0.2-0.1-0.4-0.1-0.6v-3.8h-1v-0.4c0-0.2,0.2-0.3,0.7-0.3h0.4v-1.3c0-0.2,0-0.3,0.1-0.4c0-0.1,0.1-0.2,0.1-0.2h0.5v2h1.7v0.7
		h-1.7V86z"/>
	<path class="st2" d="M346.8,86.8c0-0.1,0-0.1,0-0.2c0-0.1,0.1-0.1,0.1-0.2c0.1,0,0.1-0.1,0.2-0.1c0.1,0,0.1,0,0.2,0
		c0.1,0,0.1,0,0.2,0c0.1,0,0.1,0.1,0.2,0.1c0,0,0.1,0.1,0.1,0.2c0,0.1,0,0.1,0,0.2c0,0.1,0,0.1,0,0.2c0,0.1-0.1,0.1-0.1,0.2
		c0,0-0.1,0.1-0.2,0.1c-0.1,0-0.1,0-0.2,0c-0.1,0-0.2,0-0.2,0c-0.1,0-0.1-0.1-0.2-0.1c0-0.1-0.1-0.1-0.1-0.2
		C346.8,87,346.8,86.9,346.8,86.8"/>
	<path class="st3" d="M73.8,74.2c0,0,0.2-3-1.3-5.6c-1.5-2.6-0.1-6.4,2.1-10.3c2.1-3.9,4.8-11.8,2.8-18.2c-2-6.4-9-12.6-20.7-12.4
		C45.1,27.9,40.3,35,40.3,35s-4.5,5.7-2.9,13.8c0,0,0.2,1.2,0.5,2c0,0,0.2,1.2-0.4,2.4s-1.5,3-2.2,4.3c-0.7,1.3-0.9,1.9,0.4,2.2
		c1.3,0.3,3,0.8,2.9,1.9c0,0,0,0.3-0.3,0.6c-0.4,0.4-0.3,0.8,0.2,1.1c0,0,0.4,0.2,0.4,0.6c0,0.4,0.6,0.9,0.6,0.9s1.4,1.4,1.2,3.2
		c-0.2,1.8,0.8,3.5,2.8,4c2,0.4,4.1,0.1,6.6-1.1c0,0,0.6-0.5,1.1-0.1c0,0,1.5,1.1,1,2.4l-0.2,0.8H73.8z"/>
	<path class="st1" d="M56,3C38.5,3,24.3,24.9,24.3,52c0,27.1,14.2,49,31.7,49c17.5,0,31.7-21.9,31.7-49C87.8,24.9,73.6,3,56,3
		 M56,100.2c-16.5,0-29.9-20.7-29.9-46.1S39.6,7.9,56,7.9c16.5,0,29.9,20.7,29.9,46.1S72.5,100.2,56,100.2"/>
	<path class="st2" d="M57.1,13.7c-4.3,0-8.5,0.4-12.5,1c-0.6,0.6-1.2,1.2-1.8,1.9c3.9-0.7,8.1-1,12.3-1c28.5,0,51.5,16.3,51.5,36.4
		c0,12.3-8.6,23.2-21.8,29.8c-0.6,1.5-1.2,2.9-1.9,4.3c17.3-6.4,29.1-19.2,29-34C111.8,30.9,87.2,13.7,57.1,13.7"/>
	<path class="st2" d="M78.5,84.4c-7,2.6-15,4-23.5,4C26.6,88.4,3.5,72.1,3.5,52c0-14.4,11.8-26.8,29-32.8c0.4-0.6,0.7-1.2,1.1-1.8
		C15.2,23.6,2.6,36.8,2.8,52.1c0.2,21.2,24.7,38.4,54.9,38.4c6.5,0,12.7-0.8,18.5-2.3C77,87,77.8,85.7,78.5,84.4"/>
	<path class="st4" d="M43.5,34.1c0,0,2.7-2.5,6.5-3.6c3.8-1.1,3.7-0.3,3.8,0.1c0,0.4,0.3,0.9,0.3,0.9s0.7,1.5-0.2,2.1
		c-0.9,0.6-1.1,2-0.8,2.9c0.4,0.9,0.8,3.3,0.3,3.5c0,0-0.5-0.1-0.7-1.4c0,0-0.2-0.2-0.4-0.7c-0.2-0.5-0.3-1.2-0.2-1.4
		c0.1-0.2,0.1-0.6,0-0.8c-0.1-0.2-0.1-0.6,0.2-1.1c0.3-0.5,0.3-0.9,0.4-1.8c0.1-0.9,0-2-1.5-1.8c-1.5,0.2-5.9,1.5-8.3,5.3
		c0,0-0.7,1.1-0.3,1.5c0.4,0.4,0.9-1,0.9-1s0.2-1,1-1.4c0,0,1.1-1.1,0.4,0.6c0,0-0.2,0.7-0.7,1.1c-0.5,0.4-0.8,1.4-0.3,1.9
		c0,0-1.1-0.8-1.7,0.1c-0.6,1-1.5,2.5-0.3,2.4c0,0,0.9-0.5,1,0.3c0.1,0.8-0.2,0.9-0.8,0.5c-0.6-0.5-1.2-0.6-1.2,0.2
		c0,0.8-0.1,1.9,0.5,2.6c0.6,0.7,0.6,1.6,0.6,1.6s0.2,0.9,0.7,1.5c0,0,1.2,1.3-0.5,0.5c0,0-0.7-0.3-1.1-1.3c-0.4-1-0.9-1.7-0.9-1.7
		s-1.1-1-0.4-2.2c0,0,0.3-0.7,0.1-1.6c0,0-0.5-0.9,0.3-2.8C40.8,37.3,41.4,36.2,43.5,34.1"/>
	<path class="st4" d="M46.1,36.6c-0.1,0-0.2,0-0.3,0c-0.1,0.1-0.1,0.2-0.1,0.3c0,0.3,0.2,0.6,0.3,0.8c0.2,0.2,0.4,0.4,0.5,0.7
		c0.1,0.3,0.1,0.6,0.2,0.9c0.1,0.3,0.3,0.6,0.6,0.6c0.2,0,0.4-0.2,0.5-0.4c0.1-0.2,0.1-0.4,0.2-0.6c0.1-0.3,0.3-0.7,0.6-0.9
		c-0.2,0.1-0.5,0.2-0.7,0.4c-0.1,0.1-0.3,0.1-0.4,0.2c-0.2,0-0.3-0.1-0.4-0.2c-0.1-0.3,0.1-0.6-0.1-1C46.7,36.9,46.4,36.6,46.1,36.6
		"/>
	<path class="st4" d="M50.3,35.1c0.3-0.1,0.7,0,1,0c0.1,0,0.1,0,0.2,0c0,0,0-0.1,0.1-0.1c0.1-0.5-0.2-1-0.7-1.1
		c-0.3-0.1-0.7,0-1-0.2c-0.1-0.1-0.2-0.3-0.3-0.5c-0.1-0.2-0.1-0.4-0.2-0.5c-0.1-0.1-0.4-0.2-0.5,0c-0.1,0.2,0,0.4,0.1,0.6
		c0.2,0.4,0.4,0.8,0.3,1.2c-0.1,0.2-0.3,0.4-0.4,0.6c-0.1,0.2-0.2,0.5-0.1,0.7c0.2,0.3,0.6,0.3,0.7,0.5c0.1,0.2,0.1,0.8,0.5,0.6
		C50.5,36.6,49.4,35.5,50.3,35.1"/>
	<path class="st4" d="M47.8,43.5c0-0.1,0-0.2-0.1-0.3c-0.1-0.3-0.5-0.4-0.8-0.3c0,0.3,0.1,0.7,0.2,1c0.1,0.2,0.2,0.6,0.5,0.5
		C47.9,44.3,47.8,43.7,47.8,43.5"/>
	<path class="st4" d="M59.5,40.6c-0.1,0-0.2-0.1-0.3,0c0,0-0.1,0.1-0.1,0.1c-0.1,0.3-0.1,0.6,0,0.8c0.2,0.2,0.5,0.5,0.8,0.3
		C60.3,41.8,60.2,40.9,59.5,40.6"/>
	<path class="st4" d="M64.3,41.1c-0.1-0.2-0.3-0.4-0.5-0.6c-0.1-0.1-0.2-0.1-0.3-0.1c-0.1,0-0.1,0.1-0.1,0.2c0,0.1,0,0.2,0,0.3
		c0,0.2-0.2,0.3-0.3,0.3c-0.2,0.1-0.3,0-0.5,0c-0.1,0-0.3,0-0.3,0.1c-0.1,0.1-0.1,0.2,0,0.3c0.1,0.1,0.2,0.2,0.3,0.2
		c0.3,0.1,0.6,0.2,0.9,0.2c0.1,0,0.2,0,0.4,0C64.3,42.1,64.5,41.6,64.3,41.1"/>
	<path class="st4" d="M71.5,51.2c-0.4-0.5-0.7-0.9-1.3-1.2c0,0-0.1,0-0.1,0c0,0-0.1,0-0.1,0.1c-0.2,0.2-0.1,0.5,0,0.8
		c0.2,0.5,0.6,0.9,1.1,1.1C71.8,52.2,71.8,51.7,71.5,51.2"/>
	<path class="st4" d="M40.8,51.5c-0.3,0-0.5-0.1-0.7-0.2c-0.2-0.1-0.4-0.3-0.5-0.5c-0.1-0.2,0-0.5,0.2-0.6c0.3-0.1,0.6,0.1,0.7,0.4
		c0.1,0.3,0.2,0.5,0.3,0.8L40.8,51.5z"/>
	<path class="st4" d="M56.4,43.7c0.1-0.2,0.2-0.5,0-0.6c-0.1,0-0.2-0.1-0.3,0c-0.2,0-0.5,0.1-0.7,0.2c-0.1,0.1-0.3,0.1-0.3,0.2
		c-0.1,0.1-0.1,0.3-0.1,0.4c0.1,0.2,0.2,0.2,0.4,0.2C55.6,44.1,56.3,43.9,56.4,43.7"/>
	<path class="st4" d="M48,46.6c-0.3,0.4-0.7,0.9-1.2,0.8c-0.2-0.1-0.4-0.2-0.5-0.3c-0.2-0.2-0.5-0.3-0.8-0.3c-0.1,0-0.2,0-0.3,0
		c-0.2,0.1-0.2,0.4-0.1,0.7c0.2,0.4,0.7,0.5,1.1,0.6c0.2,0,0.4,0.1,0.5,0.2c0,0.1,0.1,0.2,0.1,0.3c0.1,0.6,0,1.2,0.1,1.7
		c0.2,1.3,1,2.4,2.1,3c-0.2-0.8,0-1.6-0.3-2.4c-0.1-0.3-0.4-0.6-0.5-0.9c-0.3-0.7-0.3-1.5,0-2.2c0.3-0.7,1-1.1,1.5-1.6
		c0.3-0.3,1.9-2.3,0.6-1.7C49.3,45,48.6,45.8,48,46.6"/>
	<path class="st4" d="M59,52.9c-0.2,0.2-0.1,0.5,0.1,0.8c0.3,0.5,0.7,1.1,1,1.6c0.2,0.3,0.4,0.6,0.6,0.9c0.3,0.4,0.6,0.9,1,1.2
		c0.2,0.2,0.4,0.3,0.7,0.4c0.3,0,0.6,0,0.7-0.2c0-0.1,0.1-0.1,0.1-0.2c0-0.2-0.3-0.3-0.5-0.4c-0.6-0.2-1.2-0.6-1.6-1.2
		C60.4,54.8,60.3,53.3,59,52.9"/>
	<path class="st4" d="M56.8,30.3c-0.4-0.4-0.9-0.9-1.5-0.6c-0.4,0.2-0.5,0.8-0.5,1.3c0,0.4,0.1,0.9,0.4,1.2c0.2,0.2,0.4,0.3,0.7,0.5
		c0.2,0.2,0.4,0.5,0.2,0.7c-0.1,0.2-0.4,0.3-0.5,0.5c-0.2,0.3,0,0.6,0.1,0.9c0.1,0.3,0.2,0.7-0.1,0.9c-0.3,0.3-1-1-1.2-0.7
		c0,0.3,0.1,0.6,0.3,0.9c0.4,0.6,0.7,1.1,1.1,1.7c0.2,0.3,0.6,0.7,0.9,0.5c0.3-0.2,0.3-0.6,0.2-0.9c-0.1-0.3-0.1-0.6-0.2-1
		c-0.1-0.3-0.1-0.6,0-0.9c0-0.2,0.1-0.3,0.2-0.5c0.1-0.2,0-0.5,0.1-0.8c0.2-0.7,1.1-1,1.2-1.7c0-0.3-0.1-0.5-0.2-0.8
		c-0.1-0.3,0-0.6,0.2-0.7c0.2-0.1,0.5,0,0.7,0.2c0.1,0.2,0.2,0.5,0.2,0.7c0.1,0.8,0.2,1.7,0.3,2.5c0.1,0.4,0.1,0.8-0.1,1.1
		c-0.1,0.1-0.2,0.2-0.3,0.3c-0.1,0.2-0.1,0.5,0,0.7c0.1,0.4,0.1,0.8,0.2,1.2c0,0.2,0.1,0.4,0.2,0.4c0.3,0.1,0.4-0.3,0.5-0.5
		c0.4-1.2,0.2-2.7,0.7-2.9c0.1,0,0.1,0,0.2,0c0.5,0,1.1,0.1,1.4,0.5c0.1,0.2,0.2,0.4,0.4,0.5c0.2,0.1,0.5-0.2,0.5-0.4
		c0-0.3-0.2-0.5-0.4-0.7c-0.3-0.2-0.7-0.3-1-0.5c-0.3-0.2-0.6-0.5-0.6-0.8c0-0.2,0-0.3,0.1-0.5c0.1-0.3,0.2-0.6,0.3-0.8
		c0.1-0.1,0.1-0.3,0.2-0.3c0.3-0.2,0.7-0.1,0.9,0.2c0.2,0.3,0.2,0.7,0,1c-0.1,0.1-0.1,0.2-0.1,0.4c0,0.3,0.4,0.3,0.6,0.3
		c0.3,0,0.5-0.1,0.7,0.1c0.1,0.1,0.2,0.3,0.3,0.4c0.3,0.2,0.7,0,1-0.2c0.2-0.1,0.4-0.3,0.5-0.4c0.2-0.3,0.1-0.6,0-0.8
		c0.7,0.1,1.3,0.5,1.6,1.1c-0.3,0.1-0.5,0.3-0.6,0.5c-0.1,0.3,0,0.6,0.3,0.8c0.2,0,0.3-0.3,0.4-0.4c0.2-0.3,0.7-0.2,1,0
		c0.3,0.2,0.5,0.6,0.7,0.9c0.7,0.8,1.9,1.1,2.6,1.9c0.5,0.5,0.7,1.3,1.4,1.6c0.2,0.1,0.4,0.1,0.6,0.2c0.2,0.1,0.3,0.3,0.3,0.5
		c0,0.2-0.2,0.3-0.2,0.5c-0.1,0.3,0.3,0.6,0.4,1c0.2,0.4,0.1,1,0.5,1.2c0.2,0.1,0.5,0.1,0.7,0c0.2-0.1,0.3-0.4,0.2-0.6
		c0,0-0.5-5.1-7.8-9.2c0,0-3.9-2.2-9.8-2.4c0,0-0.7,0-0.8,0.3c-0.1,0.5,0.6,1.2-0.2,0.6L56.8,30.3z"/>
	<path class="st5" d="M46.1,39.6c0-0.2-0.2-0.4-0.4-0.4c-0.1,0-0.3,0.1-0.4,0.1c-0.4,0.3-0.8,0.5-1.1,0.8c-0.1,0-0.1,0.1-0.1,0.2
		c0,0.1,0.1,0.2,0.2,0.3c0.1,0.1,0.2,0.2,0.4,0.2c0,0,0.1,0,0.1,0c0.2,0,0.6-0.4,0.8-0.6C45.8,40.2,46.1,40,46.1,39.6"/>
	<path class="st5" d="M51.9,38.6c-0.2-0.2-0.4-0.3-0.6-0.5c-0.2-0.1-0.3-0.3-0.4-0.4c0-0.1-0.1-0.1-0.2-0.1c0,0,0,0,0,0.1
		c-0.1,0.4,0.1,0.9,0.5,1.1c0.1,0.1,0.3,0.1,0.4,0.3c0.1,0.1,0.1,0.4,0.2,0.4C52.2,39.6,52,38.8,51.9,38.6"/>
	<path class="st5" d="M53.3,41.7c-0.2-0.2-0.4-0.4-0.5-0.6c-0.1-0.2-0.2-0.4-0.4-0.6c-0.2-0.2-0.5-0.2-0.7,0
		c-0.1,0.1-0.1,0.3-0.1,0.4c0,0.1,0.1,0.3,0.2,0.4c0.1,0.2,0.1,0.5,0.1,0.7c0,0.1,0,0.2,0,0.2c0,0.1,0.1,0.2,0.2,0.2
		c0.1-0.2,0.4-0.4,0.7-0.3c0.4,0.1,0.6,0.6,1,0.8C54.1,42.7,53.5,42,53.3,41.7"/>
	<path class="st5" d="M50.9,43c0-0.2,0-0.4-0.1-0.6c-0.2-0.6-0.6-1.2-0.5-1.8c-0.2,0-0.3,0.2-0.3,0.4c-0.2,0.6-0.2,1.2,0.1,1.7
		c0.1,0.1,0.2,0.2,0.3,0.4c0.1,0.1,0.1,0.4,0.2,0.5C50.7,43.4,50.8,43.3,50.9,43"/>
	<path class="st5" d="M47.5,45.7c-0.2-0.2-0.5-0.4-0.6-0.7c-0.2-0.3-0.2-0.6-0.4-0.9c-0.3-0.6-0.9-1-1.5-1.3c0.1,0.3,0.2,0.6,0.2,1
		c0.1,0.6,0.1,1.3-0.3,1.7c-0.1,0.1-0.1,0.1-0.1,0.2c0,0,0,0.1,0.1,0.1c0.3,0.3,0.9,0.1,1.3,0.3c0.4,0.2,0.5,0.7,0.9,0.8
		C48,47.1,47.9,46.1,47.5,45.7"/>
	<path class="st5" d="M54,41c-0.2-0.3,0-0.8,0.2-1.1c0.4-0.5,1.2-0.7,1.8-0.6c0.4,0.1,0.7,0.3,1,0.4c0.3,0.1,0.8,0.1,1-0.2
		c0.2-0.2,0.3-0.4,0.4-0.6c0.2-0.2,0.5-0.3,0.8-0.3c0.3,0,0.6,0.1,0.8,0.2c0.2,0.1,0.4,0.1,0.6,0.3c0.1,0.1,0.1,0.3,0.2,0.4
		c0,0.5-0.2,1-0.6,1.2c0.1-0.4-0.1-0.8-0.5-1.1s-0.8-0.2-1.2,0c-0.5,0.3-0.6,1-0.9,1.5c-0.1,0.1-0.1,0.3-0.3,0.3
		c-0.1,0-0.2,0-0.2-0.1c-0.3-0.2-0.6-0.5-0.9-0.7c-0.2-0.2-0.3-0.3-0.5-0.4s-0.5-0.1-0.6,0.1c-0.2,0.2-0.1,0.5,0,0.8
		c0.1,0.3,0.1,0.5,0.1,0.8c0,0.1,0,0.3-0.1,0.4c-0.1,0.1-0.3,0.1-0.5,0c-0.2-0.2,0-0.6-0.2-0.8C54.5,41.4,54.2,41.2,54,41"/>
	<path class="st5" d="M61.7,37.8c0.1-0.1,0.3-0.3,0.3-0.5c0.1-0.2,0-0.4-0.1-0.5c-0.1-0.1-0.3-0.2-0.5-0.2c-0.1,0-0.2,0-0.3,0.1
		c0,0.1,0,0.1-0.1,0.2c0,0.2,0,0.4,0.1,0.6C61.2,37.8,61.5,37.9,61.7,37.8"/>
	<path class="st5" d="M65,37c0-0.1-0.1-0.1-0.2-0.1c-0.3-0.1-0.7,0-1,0.1c-0.3,0.1-0.6,0.4-0.8,0.6c-0.2,0.2-0.5,0.4-0.7,0.7
		c-0.1,0.1-0.1,0.1-0.1,0.2c0,0.1,0.1,0.2,0.2,0.2c0.1,0,0.2,0,0.3,0c0.5-0.1,1-0.3,1.4-0.6C64.4,37.9,65.2,37.3,65,37"/>
	<path class="st5" d="M68.8,37.4c-0.1-0.2-0.3-0.4-0.6-0.4c0,0-0.1,0-0.1,0c0,0,0,0,0,0.1c0,0.2-0.1,0.4-0.1,0.6
		c0,0.1,0,0.3,0.1,0.4C68.4,38.6,69.1,37.9,68.8,37.4"/>
	<path class="st5" d="M69.1,40.2c0.2-0.3,0.4-0.7,0.3-1.1c-0.2,0.1-0.5,0-0.8,0.1c-0.2,0.1-0.4,0.2-0.5,0.5c0,0.2,0.1,0.5,0.3,0.6
		C68.7,40.4,69,40.4,69.1,40.2"/>
	<path class="st5" d="M67.9,40.6c-0.2-0.2-0.5-0.3-0.6-0.5c-0.1-0.2-0.1-0.5-0.1-0.7c0-0.3-0.1-0.6-0.2-0.9
		c-0.1-0.2-0.2-0.4-0.4-0.5c-0.2-0.1-0.4-0.1-0.6,0c-0.2,0.2-0.1,0.5-0.2,0.7c-0.2,0.3-0.6,0.2-0.8,0.4c-0.3,0.3-0.2,0.7,0,1.1
		c0.2,0.5,0.6,1.1,1.1,1.2c0.4,0.1,0.8,0,1.1,0.1c0.5,0.1,0.7,0.5,1,0.8C68.7,42,68.3,41,67.9,40.6"/>
	<path class="st5" d="M72.9,44.1c-0.1-0.4,0-0.8,0.2-1.1c0.1-0.2,0.2-0.3,0.3-0.5c0-0.2,0-0.5-0.3-0.5c-0.2,0-0.3,0.1-0.4,0.2
		c-0.1,0.1-0.2,0.3-0.3,0.4c-0.2,0.2-0.5,0.2-0.7,0.1c-0.2-0.1-0.4-0.3-0.5-0.6c-0.1,0.1-0.1,0.2-0.1,0.3c0,0.6,0.2,1.2,0.6,1.7
		c0.4,0.5,0.9,0.8,1.6,0.9c0.4,0.1,0.1-0.2,0-0.3C73.1,44.6,72.9,44.4,72.9,44.1"/>
	<path class="st5" d="M52.1,46.9c-0.2-0.2-0.5-0.3-0.8-0.3c-0.1,0-0.2,0-0.3,0.1c-0.1,0.1-0.1,0.3,0,0.5c0.1,0.2,0.2,0.4,0.5,0.6
		C52,48.1,52.5,47.3,52.1,46.9"/>
	<path class="st5" d="M55.5,45.2c0-0.1-0.1-0.3-0.2-0.4c-0.1-0.1-0.2-0.1-0.3-0.2c-0.4-0.1-0.8,0.1-1.2,0.2
		c-0.4,0.1-0.8,0.3-1.2,0.1c-0.1-0.1-0.2-0.2-0.4-0.2c-0.3-0.1-0.5,0.2-0.6,0.4c0.1,0.2,0.4,0.3,0.7,0.3c0.2,0,0.5,0,0.7,0.1
		c0.3,0.1,0.5,0.5,0.6,0.8c0.2,0.3,0.4,0.6,0.7,0.7C55.3,47.1,55.5,45.8,55.5,45.2"/>
	<path class="st5" d="M57.7,43c-0.5,0.3-0.6,1-1.1,1.3c-0.2,0.1-0.5,0.2-0.5,0.4c0,0.1,0,0.2,0,0.3c0.1,0.4-0.3,0.8-0.3,1.2
		c0,0.3,0.1,0.6,0.3,0.8c0.2,0.2,0.5,0.3,0.8,0.4c0.1,0,0.2,0,0.3,0c0.2-0.1,0.3-0.3,0.3-0.5c0-0.2-0.1-0.4-0.1-0.6
		c-0.1-0.4-0.2-0.9-0.1-1.3c0,0.6,0.5,1.2,1.1,1.5c0.1,0,0.2,0,0.2,0c0.1-0.1,0.1-0.2,0.1-0.3c0-0.6-0.2-1.2,0-1.8
		c0.2-0.3,1.1-0.9,0.6-1.2c-0.2-0.1-0.6-0.1-0.9-0.1C58.3,42.9,58,42.8,57.7,43"/>
	<path class="st5" d="M59.9,44.1c-0.1,0.3-0.2,0.7-0.4,0.9c-0.1,0.1-0.2,0.2-0.2,0.3c0,0.2,0.2,0.4,0.4,0.4c0.2,0,0.4,0,0.6,0
		c0.2,0.1,0.3,0.3,0.5,0.4c0.3,0.1,0.7,0,0.8-0.3c0.2-0.4,0-0.9,0.2-1.2c0.2-0.3,0.5-0.3,0.7-0.6c0.2-0.2,0.1-0.5,0-0.8
		c-0.1-0.2-0.4-0.4-0.6-0.6c-0.1,0.2-0.1,0.5-0.2,0.7c0,0.1-0.1,0.2-0.1,0.3c-0.1,0.1-0.2,0.1-0.3,0.1c-0.2-0.1-0.2-0.3-0.3-0.4
		C60.7,42.8,60.1,43.7,59.9,44.1"/>
	<path class="st5" d="M66,44.2c0.3-0.1,0.7-0.3,0.9-0.5c0.2-0.3,0.2-0.8-0.1-1c-0.1-0.1-0.3-0.1-0.5-0.1c-0.4,0-0.8,0.1-1.2-0.1
		c-0.1-0.1-0.2-0.2-0.3-0.2c-0.2,0-0.3,0.2-0.5,0.3c-0.2,0.2-0.5,0.2-0.7,0.3c0,0-0.1,0-0.1,0.1c0,0,0,0.1,0,0.2
		c0.1,0.4-0.1,0.7-0.2,1.1c-0.1,0.3-0.2,0.7-0.1,1.1c0.1,0.1,0.1,0.2,0.2,0.2c0.2,0.1,0.3,0,0.5-0.1C64.7,45.1,65.2,44.5,66,44.2"/>
	<path class="st5" d="M69.2,44.6c0-0.3,0.1-0.5,0.3-0.7c0.2-0.2,0.4-0.4,0.5-0.6c0-0.1,0.1-0.2,0-0.3c-0.1-0.1-0.2-0.1-0.4-0.1
		c-0.3,0.1-0.7,0.3-0.9,0.6c-0.2,0.2-0.3,0.5-0.5,0.8c-0.3,0.4-0.7,0.8-1.2,1c0,0-0.1,0-0.1,0.1c-0.1,0.1,0,0.2,0.1,0.3l1.1,0.9
		c0.1,0.1,0.1,0.1,0.2,0.1c0.2,0,0.4-0.1,0.5-0.2c0.3-0.3,0.4-0.6,0.5-1C69.4,45.2,69.3,45,69.2,44.6"/>
	<path class="st5" d="M39.9,46.2c-0.1-0.1-0.2-0.2-0.3-0.1c-0.1,0-0.2,0.1-0.2,0.2c0,0.1,0,0.2,0,0.3c0.1,0.3,0.8,2,1.2,1.7
		c0.2-0.1-0.1-0.8-0.1-1C40.4,46.9,40.2,46.5,39.9,46.2"/>
	<path class="st5" d="M39.1,48.2c-0.1,0.3,0,0.6,0.2,0.8c0.2,0.2,0.4,0.4,0.6,0.5c0.4,0.3,0.9,0.4,1.4,0.7c0.4,0.3,0.8,0.7,0.8,1.2
		c0,0.1,0,0.2,0,0.4c0,0.1,0.1,0.2,0.3,0.3c0.3,0.2,0.7,0.1,1.1,0c0.3-0.2,0.7-0.4,1-0.5c0.4-0.2,0.7-0.2,1.1-0.2
		c0.3,0,0.5,0.1,0.7,0.3c0.2,0.2,0.2,0.6,0.4,0.9c0.2,0.2,0.4,0.3,0.7,0.5c0.3,0.2,0.5,0.4,0.7,0.7c0.2,0.3,0.5,0.8,0.2,1.1
		c-0.2,0.2-0.6,0.2-0.9,0c-0.2-0.2-0.4-0.5-0.4-0.8c-0.1-0.3-0.2-0.7-0.5-0.8c-0.1,0-0.3,0.1-0.4,0.1c-0.4,0.2-0.9,0.5-1.3,0.7
		c-0.5,0.2-1,0.3-1.5,0.2c-0.4-0.1-0.7-0.3-1-0.6c0,0-0.1-0.1-0.2-0.1c-0.1,0-0.2,0.1-0.2,0.2c0,0.1,0,0.2,0.1,0.3
		c0.4,0.6,1.2,0.8,1.5,1.5c0.1,0.2,0.1,0.6,0.4,0.7c0.1-0.3,0.2-0.5,0.5-0.7c0.2-0.2,0.6-0.2,0.8-0.1c0.1,0.1,0.2,0.2,0.2,0.2
		c0.2,0.2,0.6,0,0.6-0.3c0-0.3-0.2-0.5-0.1-0.8c0.3-0.1,0.6,0.1,0.8,0.3c0.2,0.2,0.4,0.5,0.6,0.7c0.5,0.4,1.4,0.3,1.7-0.3
		c0.1-0.2,0.1-0.4,0.2-0.6c0.1-0.2,0.3-0.4,0.5-0.3c0.2,0,0.4,0.2,0.5,0.3c0.2,0.1,0.4,0.3,0.6,0.1c0.2-0.1,0.1-0.5,0.1-0.7
		c0-0.4,0.3-0.7,0.3-1.1c0-0.3-0.2-0.5-0.4-0.7c-0.2-0.2-0.4-0.5-0.5-0.8c-0.1-0.3,0-0.7,0.2-0.9c0.2-0.2,0.4-0.2,0.6-0.4
		c0.2-0.1,0.4-0.4,0.4-0.6c0-0.1-0.2-0.3-0.3-0.3c-0.4-0.3-1-0.5-1.3-0.9c-0.1-0.2-0.2-0.5-0.4-0.6c-0.2-0.2-0.6-0.2-0.6,0.1
		c-0.1,0.2,0.1,0.3,0.2,0.5c0.2,0.2,0.4,0.4,0.7,0.5c0.2,0.1,0.3,0.2,0.5,0.4c0.1,0.2,0.2,0.4,0.1,0.6c-0.2,0.4-0.8,0.3-1,0.6
		c-0.1,0.2-0.1,0.5,0,0.7c0.1,0.2,0.3,0.4,0.4,0.6c0.3,0.3,0.6,0.7,0.8,1.1c0.1,0.2,0.2,0.4,0.2,0.6c0,0.2-0.1,0.4-0.3,0.5
		c-0.2,0.1-0.4,0-0.6-0.1c-1.3-0.6-2.3-1.8-2.7-3.2c0-0.2-0.1-0.3-0.2-0.4c-0.3-0.3-0.8-0.2-1.2-0.2c-0.8,0.1-1.7-0.1-2.4-0.5
		c-0.1,0.1,0,0.3,0.1,0.4c0.2,0.2,0.4,0.3,0.5,0.6c0.1,0.2,0.1,0.6-0.1,0.7c-0.1,0.1-0.3,0.1-0.5,0.1c-0.3-0.1-0.5-0.2-0.7-0.4
		c-0.2-0.3-0.4-0.7-0.6-0.9c-0.4-0.4-1-0.4-1.4-0.6C39.8,49.2,39.5,48.6,39.1,48.2"/>
	<path class="st5" d="M55.9,52c-0.2,0.1-0.5,0.1-0.7,0.2c-0.2,0-0.3,0.1-0.5,0s-0.3-0.2-0.3-0.3c0-0.2,0.2-0.3,0.4-0.4
		c0.2-0.1,0.4-0.1,0.5-0.2c0.1-0.1,0.1-0.3,0.1-0.4c-0.1-0.4-0.5-0.6-0.8-0.8c-0.3-0.1-0.5-0.3-0.8-0.4c-0.2-0.1-0.5-0.2-0.7-0.2
		c-0.2,0.1-0.3,0.3-0.4,0.5c-0.1,0.2-0.1,0.4-0.2,0.6c-0.2,0.2-0.5,0.4-0.6,0.6c-0.1,0.2,0,0.4,0.2,0.6c0.1,0.1,0.3,0.2,0.5,0.3
		c0.1,0.1,0.3,0.1,0.5,0.1c0.2,0,0.3-0.1,0.4-0.2c0.1-0.3-0.3-0.7-0.2-1c0.1-0.1,0.3-0.2,0.4-0.2c0.2,0,0.3,0.1,0.4,0.2
		c0.1,0,0.1,0.1,0.2,0.2c0.1,0.1,0,0.3,0,0.5c-0.1,0.1-0.2,0.3-0.3,0.4c-0.2,0.3,0,0.8,0.3,1c0.3,0.2,0.7,0.3,1.1,0.2
		c0.3-0.1,0.7-0.3,0.9-0.5C56.3,52.3,56.2,51.9,55.9,52"/>
	<path class="st5" d="M58.2,51.2c0.2-0.3,0.5-0.7,0.4-1.1c-0.1-0.3-0.3-0.5-0.2-0.8c0.1-0.3,0.5-0.4,0.8-0.3c0.1,0,0.3,0.1,0.4,0.2
		c0.2,0.2,0.3,0.6,0.4,0.9c0.1,0.3,0.4,0.6,0.7,0.5c-0.2-0.2-0.2-0.5-0.1-0.8c0.1-0.3,0.3-0.5,0.5-0.7c0.1-0.1,0.3-0.2,0.5-0.3
		c0.2,0,0.4,0,0.5,0.2C62,49,62,49.1,62,49.3c0,0.2,0,0.5,0,0.7c0,0.3,0,0.6-0.2,0.8c-0.4,0.5-1.4,0-1.8,0.5
		c-0.1,0.1-0.1,0.2-0.2,0.3c-0.1,0.1-0.2,0.1-0.2,0.2c0,0.1,0,0.2,0.1,0.3c0.2,0.2,0.3,0.4,0.5,0.5c0.2,0.1,0.5,0.2,0.7,0
		c-0.1-0.1-0.3-0.2-0.4-0.4c-0.1-0.2-0.1-0.4,0.1-0.5c0.3-0.2,0.7,0.2,1,0.1c0.1,0,0.1-0.1,0.2-0.1c0.2-0.1,0.4-0.1,0.6-0.1
		c0.4,0,0.8,0,1.2-0.1c0.4-0.1,0.7-0.3,0.9-0.6c0.3-0.4,0.3-1,0.6-1.4c0.2-0.2,0.5-0.4,0.5-0.7c0-0.1,0-0.2-0.1-0.3
		c-0.1-0.3-0.3-0.6-0.5-0.7c-0.2-0.1-0.5,0-0.7-0.2c-0.1-0.1-0.2-0.3-0.4-0.3c-0.3-0.2-0.6,0-0.8,0.2c-0.2,0.2-0.4,0.5-0.8,0.5
		c-0.2,0-0.4-0.1-0.6-0.2c-0.7-0.3-1.3-0.5-2-0.7c0.1,0.3,0.5,0.4,0.6,0.6c0.1,0.1,0.1,0.3,0.1,0.4c0,0.2-0.2,0.5-0.4,0.5
		c-0.1,0-0.2,0-0.3-0.1c-0.3-0.2-0.4-0.6-0.6-0.9c-0.2-0.3-0.5-0.6-0.9-0.4c-0.4,0.2-0.4,1-0.8,1.1c-0.4,0.1-0.7-0.2-1.1-0.4
		c-0.3-0.1-0.6-0.1-0.9,0c-0.1,0-0.2,0.1-0.2,0.2c-0.1,0.2,0.1,0.3,0.2,0.5c0.4,0.6,0.3,1.4,0.2,2c0.3-0.2,0.7-0.3,1.1-0.3
		c0.2,0,0.4,0,0.5,0.2c0.1,0.2,0,0.4-0.1,0.6c-0.1,0.2-0.2,0.5-0.1,0.6c0.1,0.1,0.1,0.1,0.2,0.1c0.1,0.1,0.2,0.3,0.3,0.4
		c0.1,0.4,0.3,0.8,0.6,1.2c0.1,0.2,0.6,1,0.9,0.8c0.2-0.1-0.2-0.7-0.3-0.8C57.9,53,57.8,52,58.2,51.2"/>
	<path class="st5" d="M65,54.7c0.1-0.3,0.2-0.6,0-0.8c-0.3,0.1-0.6,0.2-0.9,0.3c-0.1,0.1-0.2,0.1-0.3,0.2c-0.2,0.2-0.3,0.6-0.1,0.9
		c0.1,0.3,0.5,0.6,0.8,0.4C64.7,55.5,64.9,54.9,65,54.7"/>
	<path class="st5" d="M66.4,54.4c0.3-0.1,0.5-0.3,0.6-0.6c0-0.1,0-0.2-0.1-0.3c0,0-0.1,0-0.1,0c-0.2,0-0.4,0.1-0.5,0.2
		c-0.1,0.1-0.2,0.3-0.2,0.5c0,0.1,0,0.2,0.1,0.2C66.4,54.5,66.5,54.5,66.4,54.4"/>
	<path class="st5" d="M56.6,53.9c0-0.1-0.1-0.2-0.1-0.3c-0.1-0.1-0.3-0.1-0.4,0c-0.5,0.1-1,0.2-1.5,0.4c-0.2,0-0.3,0.1-0.5,0.2
		c-0.2,0.2-0.2,0.6,0,0.9c0.2,0.2,0.6,0.2,0.9,0.1c0.3-0.1,0.6-0.4,1-0.3c0.3,0.1,0.5,0.4,0.7,0.7c0.3,0.5,0.7,0.9,1.2,1.2
		c0.2,0.1,1.2,0.6,0.7,0C57.8,55.8,56.9,55,56.6,53.9"/>
	<path class="st5" d="M61.4,59.8c0-0.2,0-0.3-0.2-0.4c-0.1,0-0.1,0-0.2-0.1c-0.3,0-0.5,0-0.8,0c0,0-0.1,0-0.1,0c0,0,0,0.1,0,0.1
		c0.1,0.5,0.2,1.1,0.5,1.5c0,0.1,0.1,0.1,0.1,0.1c0.1,0,0.2,0,0.3,0C61.4,61,61.4,60.2,61.4,59.8"/>
	<path class="st5" d="M57.8,57.9c-0.1-0.2-0.3-0.3-0.5-0.4c-0.2-0.1-0.6-0.1-0.6,0.1c-0.1,0.2,0.3,0.5,0.1,0.7c0,0-0.1,0.1-0.2,0.1
		c-0.3,0-0.6-0.3-0.7-0.5c-0.1-0.3,0-0.6,0-0.9c0-0.3-0.1-0.6-0.3-0.9c-0.2-0.2-0.5-0.2-0.7-0.2c-0.4,0-0.9,0-1.3,0.2
		c-0.1,0-0.3,0.1-0.3,0.3c0,0.1,0.1,0.2,0.2,0.3c0.3,0.2,0.6,0.4,0.9,0.6c0.1,0.1,0.3,0.2,0.4,0.3c0.1,0.1,0,0.3,0,0.5
		c-0.1,0.2-0.1,0.4-0.3,0.5c-0.2,0.1-0.4,0.2-0.6,0c-0.1-0.1-0.2-0.3-0.2-0.5c-0.1-0.6-0.8-0.9-1.3-0.8c0,0-0.1,0-0.1,0
		c-0.1,0.1,0,0.2,0,0.2c0.4,1,1.3,1.8,2.3,2c0.1,0,0.3,0,0.4,0.1c0.2,0.1,0.4,0.4,0.5,0.7c0.2,0.5,0.4,1,0.6,1.5
		c0-0.3,0-0.5,0.1-0.8c0-0.4,0.1-0.7-0.1-1c-0.1-0.1-0.1-0.2-0.2-0.4c0-0.1,0-0.3,0.1-0.4c0.1,0,0.1-0.1,0.2-0.1
		c0.3-0.1,0.6,0,0.9-0.1C57.6,58.9,58.1,58.4,57.8,57.9"/>
	<path class="st5" d="M53.5,59.2c0.1,0,0.2,0.1,0.3,0.2c0,0.1,0,0.2-0.1,0.3c-0.2,0.3-0.4,0.6-0.5,0.9c-0.2,0.7,0.1,1.5-0.2,2.1
		c-0.1,0.3-0.4,0.5-0.6,0.7c-0.8,0.8-1.7,1.6-2.5,2.4c-0.1-0.2,0.1-0.5,0.3-0.7c0.5-0.5,0.9-1.1,1.1-1.8c-0.1,0-0.2-0.1-0.3-0.3
		c-0.6,1-1.4,1.8-2.2,2.6c-0.2,0.2-0.3,0.3-0.5,0.5c0,0-0.1,0-0.1,0c0,0-0.1,0-0.1-0.1l-0.7-0.8c0,0-0.1-0.1-0.1-0.1
		c0-0.1,0.1-0.2,0.2-0.3c0.4-0.2,0.9-0.4,1.3-0.6c0.8-0.5,1.4-1.3,2-2.2c0-0.1,0.1-0.1,0.1-0.2c0.2-0.1,0.4,0,0.6,0
		c0.2,0,0.4-0.2,0.4-0.4c0-0.2,0-0.4-0.1-0.6c-0.2-0.5-0.6-0.9-0.8-1.3c-0.5-0.8-0.6-1.9-0.3-2.8c0-0.1,0.1-0.3,0.2-0.3
		c0.1,0,0.2,0.1,0.3,0.2c0,0.1,0,0.2,0,0.4c0,0.2-0.1,0.4,0,0.6c0.1,0.2,0.2,0.4,0.5,0.4c0.2,0,0.4-0.2,0.4-0.4c0,0,0.3,0.3,0.3,0.3
		c0.1,0.2,0.2,0.3,0.4,0.5C52.8,58.8,53.1,59,53.5,59.2"/>
	<path class="st5" d="M50.2,60.5c-0.1-0.3-0.4-0.5-0.6-0.7c-0.2-0.2-0.4-0.5-0.4-0.8c0-0.3,0.1-0.6,0-0.8c0-0.1-0.1-0.2-0.1-0.2
		c0-0.1,0.1-0.2,0.2-0.2c0.2-0.1,0.4-0.3,0.6-0.5c0.1-0.2,0.1-0.5-0.1-0.7c-0.2-0.1-0.4-0.1-0.6,0s-0.3,0.3-0.4,0.4
		c-0.1,0.2-0.2,0.3-0.4,0.5c-0.1,0.1-0.1,0.2-0.1,0.3c0,0.1,0,0.2,0.1,0.3c0.3,0.7,0.6,1.4,0.9,2.2c0.1,0.3,0.5,1.6,0.8,1.4
		C50.3,61.5,50.3,60.7,50.2,60.5"/>
	<path class="st5" d="M48.9,61.3c-0.2-0.3-0.4-0.6-0.6-0.9c-0.3-0.4-0.5-0.8-0.6-1.3c-0.1-0.3,0-0.6,0-1c0-0.3-0.1-0.7-0.3-0.9
		c-0.4-0.3-1-0.3-1.5-0.1c-0.1,0-0.3,0.1-0.4,0.1c-0.2,0.1-0.3,0.3-0.4,0.5c-0.1,0.3-0.2,0.6-0.3,0.9c-0.1,0.3-0.2,0.6-0.4,0.7
		c-0.2,0.2-0.5,0.1-0.8,0.1c-0.1,0-0.1,0-0.2,0c-0.3-0.2-0.1-0.8-0.4-1c-0.1-0.1-0.3,0-0.4,0.1c-0.1,0.1-0.2,0.3-0.2,0.4
		c-0.1,0.2-0.1,0.5-0.2,0.7c0,0.2,0,0.3,0,0.5c0.1,0.2,0.4,0.4,0.6,0.4c0.3,0,0.5-0.1,0.7-0.2c0.7-0.2,1.3-0.5,2-0.7
		c0.2,0.4,0.4,0.8,0.1,1.1c-0.1,0.2-0.3,0.3-0.6,0.4c-1,0.4-2.2,0.3-3.2,0.8c0,0.5,0.5,0.9,1,0.8c0.2,0,0.4-0.1,0.4,0.1
		c0,0,0,0.1,0,0.1C43.2,63.6,43,64.3,43,65c0,0.1,0,0.3,0.1,0.4c0.2,0.3,0.6,0.4,1,0.2c0.3-0.2,0.6-0.5,0.9-0.6c0.3-0.1,0.7-0.1,1,0
		c0.1,0,0.2,0.1,0.3,0c0.1,0,0.2-0.2,0.2-0.4c0-0.3,0-0.7,0-1c0.4,0.1,0.8,0.2,1.2,0.1c0.4-0.1,0.7-0.4,1-0.7
		C49.1,62.4,49.5,62.1,48.9,61.3"/>
	<path class="st5" d="M47.3,66.5c-0.2-0.2-0.4-0.2-0.6-0.4c-0.1-0.1-0.2-0.2-0.4-0.1c-0.1,0.1-0.1,0.2-0.1,0.3
		c0,0.2,0.1,0.4,0.2,0.6c0.1,0.2,0.4,0.4,0.6,0.3C47.3,67.2,47.4,66.7,47.3,66.5"/>
	<path class="st5" d="M45.5,66.7c-0.1-0.1-0.2-0.1-0.2-0.1c-0.3,0-0.6,0-0.9,0.1c-0.2,0.1-0.3,0.2-0.4,0.3c0,0-0.1,0.1-0.1,0.1
		c0,0.1,0,0.1,0.1,0.1c0.3,0.2,0.7,0.3,1.1,0.2C45.2,67.3,45.8,67,45.5,66.7"/>
	<path class="st5" d="M54.9,59.9c0.9,1.4,1.5,3.1,1.5,4.7c-1-0.1-2.1,0.1-3,0.5c-0.9,0.4-1.8,0.9-2.7,1.5c0.1-0.4,0.5-0.7,0.8-0.9
		c0.5-0.4,1-0.8,1.4-1.3c0.5-0.5,0.9-1.2,1.1-1.9c0.1-0.6,0.1-1.2,0.2-1.8C54.3,60.4,54.5,59.3,54.9,59.9"/>
	<path class="st5" d="M70.4,58.1c-0.7,0.5-1.3,1.1-2.1,1.4c-0.6,0.2-1.3,0.2-2,0.1c-0.2,0.9-0.4,1.8-0.4,2.7c0,0.3,0,0.7,0.2,1
		c0.1,0.1,0.3,0.2,0.4,0.3c0.4,0.3,0.7,0.7,1.1,1c0.7,0.6,1.5,0.9,2.3,1.3c0.1,0.1,0.3,0.1,0.4,0c0,0,0-0.1,0-0.1
		c0.1-0.7-0.1-1.5,0.2-2.2c0-0.1,0.1-0.1,0.1-0.2c0-0.2-0.2-0.2-0.4-0.2c-0.7-0.1-1.4-0.1-2.1,0c-0.4,0-0.8,0-1-0.2
		c-0.1-0.1-0.1-0.3-0.2-0.4c-0.1-0.4-0.2-0.9-0.3-1.3c0-0.1,0-0.1,0-0.2c0.1-0.1,0.2-0.1,0.3,0c0.1,0.1,0.1,0.2,0.1,0.3
		c0.2,0.3,0.6,0.5,0.9,0.2c0.1-0.1,0.2-0.1,0.2-0.2c0.1-0.1,0.3-0.1,0.5-0.1c0.8-0.1,1.6,0,2.4,0.1c0-0.2,0.1-0.4,0.2-0.5
		c-0.5-0.4-0.6-1.1-0.4-1.6c0.2-0.6,0.7-1,1.2-1.3c0.3-0.2,1-1,0.2-0.7C71.8,57.4,71,57.7,70.4,58.1"/>
	<path class="st5" d="M63.1,62.6c-0.3,0.2-0.6,0.5-0.9,0.7c-0.3,0.1-0.6,0.2-0.8,0.4c-0.1,0.2,0,0.5,0.1,0.7
		c0.3,0.5,0.9,0.8,1.5,1.1c0.2,0.1,0.3,0.1,0.5,0.3c0.1,0.1,0.2,0.3,0.1,0.5c-0.1,0.3-0.5,0.2-0.8,0.2c-0.5-0.1-1.1,0-1.4,0.5
		c-0.2,0.4-0.1,0.9,0.3,1.3c0.3,0.3,0.8,0.5,1.2,0.7c0.1,0,0.2,0.1,0.3,0.2c0,0.1,0.1,0.2,0.1,0.2c0,0.5-0.3,0.9-0.3,1.4
		c-0.1,0.5,0.2,1,0.6,1.3c0.4,0.3,1,0.4,1.5,0.3c0.1,0,0.2,0,0.3-0.1c0.2-0.1,0.2-0.4,0.2-0.6c-0.1-0.2-0.2-0.4-0.3-0.6
		c-0.2-0.3-0.4-0.7-0.4-1.1c0-0.3,0.1-0.6,0.1-0.9c0-0.3,0-0.7-0.2-0.9c-0.2-0.2-0.5-0.3-0.8-0.3c-0.3,0-0.6,0-0.9,0
		c-0.3,0-0.7-0.3-0.7-0.6c0.3-0.1,0.6-0.2,0.9-0.2c0.2,0,0.5,0.1,0.7,0c0.2,0,0.5-0.1,0.6-0.3c0.1-0.1,0.1-0.3,0.1-0.4
		c0.1-0.3,0.5-0.4,0.8-0.3c0.3,0.1,0.6,0.2,0.8,0.4c1.2,0.9,2.6,1.6,4,1.9c0.1,0,0.2,0,0.3,0c0,0,0.1-0.1,0.1-0.2
		c0.1-0.6-0.5-1.1-1.1-1.4c-1-0.4-2.1-0.4-3-1c-0.2-0.2-0.4-0.4-0.6-0.5c-0.3-0.2-0.7-0.2-1-0.3c-0.3-0.1-0.6-0.2-0.9-0.4
		c-0.3-0.2-0.4-0.5-0.4-0.9c0-0.5,0.7-0.7,0.7-1C64.2,62.1,63.3,62.5,63.1,62.6"/>
	<path class="st5" d="M70.9,69.5c-0.3-0.2-0.7-0.2-1.1-0.2c-0.7-0.1-1.5-0.3-2.1-0.7c-0.5-0.3-1.1-0.6-1.6-0.5
		c0,0.3,0.2,0.6,0.5,0.8c0.3,0.2,0.6,0.3,0.8,0.4c0.7,0.4,1.2,1,1.9,1.3c0.5,0.2,1.2,0.2,1.7,0c0.2-0.1,0.5-0.2,0.5-0.5
		C71.5,69.9,71.1,69.6,70.9,69.5"/>
	<path class="st5" d="M71.2,71.5c-0.2-0.2-0.4-0.4-0.7-0.4c-0.1,0-0.2,0-0.3,0c-0.2,0-0.5,0.1-0.7,0.1c-0.1,0-0.2,0-0.3,0.1
		c-0.1,0.1-0.2,0.2-0.1,0.3c0,0.1,0,0.1,0.1,0.2c0.1,0.2,0.2,0.3,0.3,0.4c0.2,0.1,0.3,0.1,0.5,0.1c0.3,0,1,0.2,1.3,0
		C71.6,72.2,71.4,71.8,71.2,71.5"/>
	<path class="st5" d="M67.6,70.9c-0.1-0.1-0.2-0.1-0.3-0.2c-0.2-0.1-0.5-0.1-0.8,0c-0.2,0.1-0.5,0.2-0.7,0.4c-0.1,0-0.1,0.1-0.2,0.2
		c0,0.1,0,0.2,0,0.3c0.1,0.2,0.2,0.4,0.3,0.6c0.2,0.1,0.5,0.1,0.7,0.1c0-0.2,0.1-0.3,0.2-0.4c0.3-0.1,0.7-0.1,0.8-0.3
		C68,71.4,67.8,71.1,67.6,70.9"/>
	<path class="st5" d="M59.5,61.5c-0.2-0.1-0.4-0.2-0.6-0.1c-0.3,0.2-0.1,0.7-0.2,1.1c-0.1,0.3-0.4,0.5-0.6,0.8
		c-0.1,0.1-0.2,0.2-0.2,0.3c0,0.1,0.1,0.2,0.2,0.2c0.3,0.2,0.6,0,1,0c0.2,0,0.4,0.3,0.5,0.5c0.1,0.2,0.1,0.5,0.1,0.7
		c0,0.1,0,0.3-0.1,0.4c-0.2,0.5-1.1,0.4-1.5,0.8c-0.2,0.2-0.3,0.5-0.2,0.7c0,0.3,0.1,0.5,0.2,0.8c0.5,1.3,1.2,2.5,1.8,3.7
		c0.1,0.2,0.3,0.5,0.5,0.6c0.3,0.2,0.7,0.2,1.1,0.2c0.1,0,0.1,0,0.2,0c0.1,0,0.1-0.1,0.1-0.2c0-0.5,0-1-0.2-1.4
		c-0.2-0.4-0.5-0.6-0.6-1c-0.1-0.3-0.1-0.6-0.2-0.9c-0.1-0.4-0.3-0.7-0.5-1c-0.2-0.3-0.3-0.7-0.1-1.1c0.1-0.3,0.5-0.5,0.6-0.9
		c0-0.1,0-0.3,0-0.4c-0.1-0.7-0.2-1.4-0.4-2.1c-0.1-0.3-0.3-0.7-0.4-1C59.7,62,59.7,61.7,59.5,61.5"/>
	<path class="st5" d="M52.2,67.2c0.4-0.3,0.7-0.6,1.1-0.8c0.4-0.2,0.8-0.3,1.3-0.5c0.5-0.1,1-0.3,1.5-0.3c0.1,0,0.3,0,0.4,0
		c0.3,0.1,0.4,0.4,0.5,0.6c0.4,1,0.8,2,1.3,3.1c0.2,0.5,0.4,1,0.6,1.4c0.3,0.5,0.6,1,0.9,1.4c-0.3,0.2-0.7,0.1-1,0
		c-0.4-0.1-0.7-0.1-1.1,0c-0.1,0-0.2,0-0.3,0c-0.1-0.1-0.1-0.1-0.1-0.2c0-1.2,0.3-2.4-0.2-3.5c0-0.1-0.1-0.2-0.2-0.3
		c-0.1,0-0.3,0.1-0.3,0.3c-0.4,0.6-0.5,1.4-0.6,2.1c0,0.6,0.1,1.2-0.1,1.8c-0.4,0-0.8-0.1-1.2-0.1c0.1-0.2,0.2-0.4,0.4-0.6
		c-0.5,0.1-1,0.2-1.5,0.4c0-0.7-0.4-1.4-1-1.8c0.7-0.9,1.9-1.4,2.4-2.4c0-0.1,0.1-0.2,0-0.3c0,0-0.1,0-0.2,0c-1.3,0-2.7,0.4-3.7,1.3
		c-0.1,0.1-0.6,0.6-0.8,0.4c-0.2-0.1,0.3-0.6,0.4-0.7C51.1,68,51.7,67.6,52.2,67.2"/>
	<path class="st5" d="M49,66.2c-0.6,0.4-1.1,0.9-1.6,1.4c-0.8,0.7-1.6,1.2-2.6,1.6c-0.6,0.3-1.3,0.5-1.8,0.3c-0.1-0.1-0.4-0.1-0.4,0
		c0,0.1,0,0.1,0.1,0.2c0.3,0.3,0.5,0.5,0.9,0.6c0.5,0.2,1.1-0.1,1.6-0.4c1.1-0.6,2.1-1.3,3-2c0.5-0.4,0.9-0.8,1.3-1.2
		C49.8,66.5,49.6,65.9,49,66.2"/>
	<path class="st5" d="M57.9,60c-0.1-0.1,0-0.3-0.1-0.4c0-0.2-0.2-0.3-0.3-0.4c-0.1-0.1-0.3-0.2-0.4-0.1c-0.1,0-0.1,0.1-0.1,0.2
		c-0.1,0.3,0,0.6,0.2,0.8c0.1,0.1,0.2,0.2,0.3,0.3c0.1,0.1,0.1,0.2,0.1,0.3c-0.1,0.1-0.2,0.2-0.3,0.2c-0.2,0.2-0.2,0.5-0.1,0.7
		c0.1,0.4,0.2,0.7,0.4,1c0,0.1,0.1,0.2,0.2,0.2c0.1,0,0.2,0,0.3,0c0.1,0,0.3-0.1,0.4-0.2c0.1-0.1,0.2-0.3,0.1-0.4
		c0-0.1-0.1-0.1-0.1-0.1c-0.2-0.2-0.3-0.4-0.4-0.6c0-0.1,0-0.2,0-0.3c0.2-0.4,1,0,1.1-0.7C59,59.8,58.1,60.3,57.9,60"/>
	<path class="st5" d="M61.2,57.7c-0.4-0.4-0.8-0.8-1.1-1.3c-0.1-0.1-0.1-0.3-0.2-0.4c-0.1-0.1-0.3-0.2-0.4-0.1
		c-0.1,0.1-0.1,0.2-0.1,0.3c0,0.1,0.1,0.2,0.1,0.3c0.3,0.6,0.7,1.1,1.2,1.6c0.1,0.1,0.1,0.1,0.2,0.1C61.5,58.6,61.5,58,61.2,57.7"/>
	<path class="st5" d="M66,49.8c-0.1,0.2-0.3,0.4-0.4,0.6l-0.9,1.5c0.1,0.3,0.5,0.4,0.7,0.2c0.3-0.1,0.4-0.4,0.5-0.7
		c0.1-0.3,0.1-0.6,0.3-0.9c0.2-0.5,0.8-0.7,1.2-1c0.2-0.1,0.4-0.2,0.3-0.4C67.6,48.5,66.2,49.6,66,49.8"/>
	<path class="st5" d="M70.8,45.6c-0.2,0.1-0.2,0.3-0.2,0.4c0,0.2,0.1,0.3,0.2,0.5c0.3,0.6,0.4,1.2,0.2,1.8c-0.1,0.3-0.2,0.6-0.2,0.9
		c0,0.5,0.4,0.8,0.8,1.1c0.1,0.1,0.2,0.1,0.3,0.2c0.1,0,0.3,0,0.3-0.1c0-0.1,0-0.2,0-0.2c-0.1-0.2-0.3-0.4-0.4-0.6
		c-0.2-0.2-0.2-0.5-0.2-0.8c0-0.2,0.1-0.4,0.1-0.7c0.1-0.6-0.2-1.1-0.3-1.7C71.4,46.1,71.3,45.4,70.8,45.6"/>
	<path class="st5" d="M68.1,54.6c-0.6,0.4-1.3,0.8-1.9,1.3c-0.1,0.1-0.3,0.2-0.3,0.4c0,0.2,0.3,0.3,0.5,0.3c0.4,0,0.7-0.3,1.1-0.6
		c0.3-0.3,0.6-0.5,1-0.8c0.2-0.1,0.3-0.2,0.5-0.4C69.4,54,68.4,54.4,68.1,54.6"/>
	<path class="st6" d="M75.9,43.8c-0.2,0-0.4,0.2-0.4,0.4c-0.1,0.2-0.1,0.4-0.1,0.6c0,0.4,0,0.8,0,1.2c0,0.6,0,1.2-0.1,1.8
		c-0.1,0.6-0.4,1.2-0.6,1.8c-0.2,0.5-0.4,1-0.7,1.5c-0.6,1-1.6,1.7-2.6,2.2c-0.1,0.1-0.3,0.1-0.4,0.3c-0.1,0.1-0.1,0.3,0,0.4
		c0.1,0.1,0.3,0,0.4,0c0.6-0.2,1.2-0.5,1.7-0.9c0.3-0.2,0.5-0.5,0.8-0.8c0.5-0.5,0.9-1,1.3-1.6c0.6-1,0.9-2.1,1-3.2
		C76.3,47,76.6,43.8,75.9,43.8"/>
	<path class="st6" d="M40.7,52.4c0.2,0.4,0.2,0.9,0.4,1.3c0.1,0.5,0.4,0.9,0.7,1.3c0.3,0.3,0.7,0.5,0.9,0.9c0.1,0.2,0.2,0.4,0.2,0.6
		c0.1,0.4,0.3,0.8,0.4,1.2c-0.5-0.3-1.2-0.1-1.6,0.4c-0.1-0.1-0.2-0.3-0.3-0.4c-0.1-0.1-0.3-0.1-0.4,0C41,57.8,41,58,41,58.2
		c0.1,0.7,0.4,1.4,0.1,2c-0.3,0.1-0.6-0.2-0.6-0.5c-0.1-0.3,0-0.6-0.2-0.9c-0.3-0.5-1-0.5-1.4-0.8c0.3-0.1,0.5-0.1,0.8-0.3
		c0.2-0.2,0.4-0.4,0.3-0.7c0-0.3-0.4-0.5-0.7-0.5c-0.3,0-0.6,0.2-0.8,0.4c-0.2,0.2-0.3,0.5-0.5,0.8c-0.1,0.3-0.4,0.7-0.7,0.7
		c-0.2,0-0.4-0.3-0.4-0.5c0-0.2,0.1-0.5,0.2-0.7c0.5-1.1,1.3-2.2,1.8-3.3c0.1-0.3,0.2-0.6,0.3-0.9c0.1-0.3,0.1-0.7,0.2-0.9
		C39.8,51.7,40.5,52,40.7,52.4"/>
</g>
</svg>
