<svg xmlns="http://www.w3.org/2000/svg" width="83" height="58" viewBox="0 0 102.882 74.325">
    <g id="Group_94" data-name="Group 94" transform="translate(-115.481 -108)">
        <path id="Path_73" data-name="Path 73"
            d="M131.073,260.614H126.7L115.481,232.22h4.665l8.8,23.905h.119l8.8-23.905H142.3Z"
            transform="translate(0 -89.541)" fill="#000000" />
        <path id="Path_74" data-name="Path 74"
            d="M339.747,239.2c0-2.547-.119-4.732-.236-8.857h3.839v5.279h.118a9.105,9.105,0,0,1,8.86-6.007,10.175,10.175,0,0,1,2.894.365l-.769,3.945a6.385,6.385,0,0,0-2.245-.3c-5.906,0-8.564,5.279-8.564,9.1v16.017h-3.9Z"
            transform="translate(-161.486 -87.661)" fill="#000000" />
        <path id="Path_75" data-name="Path 75"
            d="M418.933,241.321v-.729c0-4.912-2.3-7.34-7.086-7.34a12.1,12.1,0,0,0-8.447,3.337l-2.362-2.851c2.539-2.669,6.5-4.126,11.694-4.126,5.433,0,10.1,3.155,10.1,10.072v12.678a47.51,47.51,0,0,0,.473,6.372h-3.779a29,29,0,0,1-.355-4.612h-.118c-2.244,3.762-5.316,5.34-9.745,5.34-4.9,0-9.51-2.793-9.51-8.312,0-9.222,10.573-9.83,17.188-9.83Zm-2.008,3.277c-3.956,0-12.876.3-12.876,6.006,0,3.763,3.367,5.219,6.5,5.219,5.67,0,8.387-4.128,8.387-9.162V244.6Z"
            transform="translate(-204.942 -87.661)" fill="#000000" />
        <path id="Path_76" data-name="Path 76"
            d="M234.343,229.613c-7.855,0-13.939,6.371-13.939,14.925s6.084,14.924,14.293,14.924a15.308,15.308,0,0,0,4.086-.53v-3.94a10.366,10.366,0,0,1-4.086.831c-5.493,0-9.686-4.489-10.159-10.193h23.035v-1.82c0-7.765-4.844-14.137-13.23-14.2m-9.686,12.74c0-4.672,4.606-9.1,9.686-9.1,5.61,0,8.977,3.7,8.977,9.1Z"
            transform="translate(-75.631 -87.662)" fill="#000000" />
        <path id="Path_77" data-name="Path 77"
            d="M249.794,154.5a4.3,4.3,0,0,0,4.244,4.362h8.735V148.809a4.3,4.3,0,0,0-4.246-4.36h-8.733Z"
            transform="translate(-96.816 -26.273)" fill="#000000" />
        <path id="Path_78" data-name="Path 78"
            d="M302.613,115.441v17.145h14.9a7.345,7.345,0,0,0,7.246-7.441V108h-14.9a7.343,7.343,0,0,0-7.242,7.441"
            transform="translate(-134.889)" fill="#000000" />
        <path id="Path_79" data-name="Path 79"
            d="M141.249,359.539h-.588l-1.159-2.557-1.129,2.557h-.587l-2.538-5.61h.829l2,4.418,1-2.292-.951-2.126h.829l2,4.418,1.941-4.418h.829Z"
            transform="translate(-14.248 -177.272)" fill="#000000" />
        <path id="Path_80" data-name="Path 80"
            d="M180.922,359.539v-2.557H177.3v2.557h-.774v-5.61h.774v2.333h3.617v-2.333h.774v5.61Z"
            transform="translate(-44.006 -177.272)" fill="#000000" />
        <path id="Path_81" data-name="Path 81"
            d="M212.357,358.89a3.685,3.685,0,0,1-4.5,0,2.707,2.707,0,0,1-.826-2.089,2.612,2.612,0,0,1,.846-2.069,3.25,3.25,0,0,1,2.231-.72,3.284,3.284,0,0,1,2.24.72,2.612,2.612,0,0,1,.845,2.069,2.7,2.7,0,0,1-.833,2.085m-.544-3.62a2.492,2.492,0,0,0-1.707-.534,2.459,2.459,0,0,0-1.7.538,1.956,1.956,0,0,0-.6,1.531,2.044,2.044,0,0,0,.6,1.563,2.363,2.363,0,0,0,1.691.571,2.394,2.394,0,0,0,1.707-.567,2.044,2.044,0,0,0,.6-1.568,1.938,1.938,0,0,0-.6-1.534"
            transform="translate(-65.989 -177.334)" fill="#000000" />
        <path id="Path_82" data-name="Path 82" d="M241.076,359.539v-5.61h.774v4.89H245.3v.72Z"
            transform="translate(-90.531 -177.272)" fill="#000000" />
        <path id="Path_83" data-name="Path 83"
            d="M267.186,359.539v-5.61h4.519v.72h-3.754v1.613h3.326v.72h-3.326v1.837h3.794v.72Z"
            transform="translate(-109.352 -177.272)" fill="#000000" />
        <path id="Path_84" data-name="Path 84"
            d="M321.143,359.539v-2.557h-3.617v2.557h-.774v-5.61h.774v2.333h3.617v-2.333h.774v5.61Z"
            transform="translate(-145.081 -177.272)" fill="#000000" />
        <path id="Path_85" data-name="Path 85"
            d="M347.914,359.539v-5.61h4.519v.72h-3.754v1.613H352v.72h-3.326v1.837h3.794v.72Z"
            transform="translate(-167.543 -177.272)" fill="#000000" />
        <path id="Path_86" data-name="Path 86"
            d="M378.73,359.538l-.781-1.654h-2.691l-.8,1.654h-.869l2.738-5.61h.6l2.642,5.61Zm-2.1-4.443-1.015,2.069h2Z"
            transform="translate(-186.052 -177.271)" fill="#000000" />
        <path id="Path_87" data-name="Path 87" d="M405.617,359.539v-5.61h.774v4.89h3.447v.72Z"
            transform="translate(-209.137 -177.272)" fill="#000000" />
        <path id="Path_88" data-name="Path 88" d="M433.007,354.651v4.89h-.774v-4.89H430.14v-.72h4.954v.72Z"
            transform="translate(-226.813 -177.273)" fill="#000000" />
        <path id="Path_89" data-name="Path 89"
            d="M463.38,359.539v-2.557h-3.617v2.557h-.774v-5.61h.774v2.333h3.617v-2.333h.774v5.61Z"
            transform="translate(-247.609 -177.272)" fill="#000000" />
    </g>
</svg>