<svg id="b62f1e53-12c2-494f-b353-d1de2434f1a3" data-name="f8bea887-47db-46ee-b35c-4b6c639c3b16" xmlns="http://www.w3.org/2000/svg" width="8.59in" height="1.58in" viewBox="0 0 618.32 113.5">
  <rect x="188.45" y="4.36" width="1.83" height="108.43"/>
  <g>
    <polygon points="46.04 58.52 77.03 27.53 54.01 4.51 0 58.51 54.01 112.52 77.03 89.5 46.04 58.52" style="fill: #009b49"/>
    <polygon points="161.07 58.51 107.07 4.51 84.05 27.53 115.03 58.52 84.05 89.5 107.07 112.52 161.07 58.51" style="fill: #3d7edb"/>
    <rect x="61.11" y="39.08" width="38.85" height="38.85" transform="translate(-17.78 74.08) rotate(-45)" style="fill: #522398"/>
  </g>
  <path d="M120.48,106.11a3.19,3.19,0,1,1-3.26,3.17,3.15,3.15,0,0,1,3.15-3.17Zm0,.56a2.62,2.62,0,0,0,0,5.23,2.48,2.48,0,0,0,2.49-2.49v-.11a2.52,2.52,0,0,0-2.41-2.63h-.08Zm-.55,4.36h-.62V107.7a6.3,6.3,0,0,1,1.15-.1,1.65,1.65,0,0,1,1.06.26.84.84,0,0,1,.34.7.83.83,0,0,1-.66.79v.05a1,1,0,0,1,.56.79,2.46,2.46,0,0,0,.24.84h-.64a2.24,2.24,0,0,1-.26-.88c-.08-.36-.3-.52-.78-.52h-.39Zm0-1.87h.41c.46,0,.86-.14.86-.54s-.2-.54-.8-.54a1.85,1.85,0,0,0-.47,0Z" style="fill: #3d7edb"/>
  <g>
    <path d="M269.17,93c0-3.6-2.11-5-4.9-5-3.59,0-4.52.93-4.77,4.4-.12,1.67-3.47,2.48-4.4,2.48-.68,0-1.18-.5-1.18-1.42a5.85,5.85,0,0,1,3.41-5.21c2.05-1.06,4.34-2.24,6.7-3.6a6.47,6.47,0,0,1,3.72-.87c5.45,0,8.36,2.85,8.36,8.25V104.7c0,2.66.19,4.58,1.93,4.58a3,3,0,0,0,1.73-.8l.81,1.11c-1.86,2.3-3.53,3.91-6.51,3.91s-4.46-2-4.71-4.9c-2.73,2.67-5.52,4.9-9.49,4.9-3.72,0-6.76-2.29-6.76-6.39,0-4.83,4-6.32,8.37-7.93l7.69-2.67Zm0,5.58c-3.41,1.12-9.11,2.29-9.11,6.63,0,2.67,1.36,4,3.78,4,2.85,0,4.65-2.35,5.33-3.28Z"/>
    <path d="M294,109.28c0,1.43,1.68,1.43,4.59,1.43h.93v1.86c-2.91-.06-5.83-.25-8.74-.25-2.6,0-5.15.19-7.75.25v-1.86h.62c2.11,0,3.41-.25,3.41-1.61V92.23c0-2-.37-2.66-1.92-2.91l-2-.37V87.46a45.42,45.42,0,0,0,10.17-3.66l.68.38v4.27h.13c1.11-1.8,3.9-4.65,7.13-4.65,2.1,0,4,1,4,3.66a3.37,3.37,0,0,1-3.07,3.65h-.4c-2.42,0-2.42-2.36-4.34-2.36C296,88.76,294,89.94,294,93Z"/>
    <path d="M316.52,108.79c0,1.92,1.67,1.92,3.72,1.92v1.86c-2.48-.12-4.9-.25-7.38-.25-2.29,0-4.59.06-6.94.25v-1.86c2,0,3.66,0,3.66-1.92V73.64c0-1.37-.19-1.93-1.61-2.48-.69-.25-1.37-.56-2.05-.81V68.86a60.2,60.2,0,0,0,9.92-3.66l.68.56V98a2.38,2.38,0,0,0,1.61-.62l7.5-7.13c1-1,1.74-1.86,1.74-2.48,0-.87-1.67-1.18-2.67-1.18h-.43V84.73c2.29.13,4.65.25,6.94.25,2,0,4-.12,6-.25v1.86h-.68c-4.53,0-7.88,3.85-10.79,6.76l-2.23,2.17,10.23,12.65c1.11,1.42,2.54,2.54,4.09,2.54h.37v1.86c-1.86-.12-3.78-.25-5.64-.25-1.49,0-3,.13-4.53.25-1.3-1.49-9.42-13-10.6-13-.5,0-.93.25-.93,1.24Z"/>
    <path d="M389.62,100.36l.12-.13V77c0-5.08-3.53-5.82-5.39-5.82H383V69.3c2.92,0,5.77.24,8.68.24,2.54,0,5.09-.24,7.63-.24v1.86h-.93c-2.61,0-5.52.49-5.52,7.87v28.21a39.71,39.71,0,0,0,.37,6.26h-2.35L358.93,77.91v25.55c0,5.39,1.05,7.25,5.83,7.25h1.05v1.86c-2.67,0-5.33-.25-8-.25s-5.64.25-8.43.25v-1.86h.87c4.28,0,5.58-2.91,5.58-7.87V76.74a5.56,5.56,0,0,0-5.54-5.58h-.91V69.3c2.36,0,4.77.24,7.13.24,1.86,0,3.66-.24,5.52-.24Z"/>
    <path d="M410.57,109.22c0,1.49,1.43,1.49,3,1.49h.93v1.86c-2.36-.12-4.71-.25-7.07-.25-2.54,0-5,.13-7.44.25v-1.86h.44c1.79,0,3.22,0,3.22-1.86V91.31c0-1-.12-1.37-1.49-1.74-.74-.19-1.42-.43-2.17-.62V87.46c1.93-.49,4-1.24,5.64-1.8,1.43-.49,2.92-1.3,4.28-1.86l.68.56Zm-3.47-34.1a3.75,3.75,0,0,1-3.78-3.72v-.06a3.78,3.78,0,0,1,7.56,0h0a3.75,3.75,0,0,1-3.72,3.78Z"/>
    <path d="M441,106c-3,4.34-6,7.5-11.71,7.5-8.31,0-13-5.64-13-13.83A15.82,15.82,0,0,1,432,83.8c4.16,0,8.12,1,8.12,4.65a3.28,3.28,0,0,1-3.27,3.29h-.07c-3.29,0-2.73-5.21-7.32-5.21-4.4,0-6.57,3.6-6.57,8.74,0,6,2.66,13.27,9.55,13.27,3.34,0,5-1.3,7.5-3.78Z"/>
    <path d="M457.78,83.8c9,0,14.94,5.77,14.94,14.45A15,15,0,0,1,458,113.5h-.19C449,113.5,443,107.18,443,98.62A14.41,14.41,0,0,1,457,83.8Zm-7.25,15c0,5.2,1.61,12.46,7.62,12.46,5.77,0,7-6,7-11.53,0-4.47-1.49-13.71-7.5-13.71-6.57,0-7.12,7.76-7.12,12.79Z"/>
    <path d="M478.23,73.64c0-1.37-.18-1.93-1.61-2.48-.68-.25-1.36-.56-2-.81V68.86a60.2,60.2,0,0,0,9.92-3.66l.68.56v43c0,1.8,1.49,1.92,3.22,1.92h.68v1.86c-2.35-.12-4.71-.25-7.13-.25s-5.08.13-7.37.25v-1.86c2,0,3.65,0,3.65-1.92Z"/>
    <path d="M495.27,73.64c0-1.37-.18-1.93-1.61-2.48-.68-.25-1.36-.56-2.05-.81V68.86a60.2,60.2,0,0,0,9.92-3.66l.68.56v43c0,1.8,1.49,1.92,3.23,1.92h.68v1.86c-2.35-.12-4.71-.25-7.13-.25s-5.08.13-7.38.25v-1.86c2,0,3.66,0,3.66-1.92Z"/>
    <path d="M531.84,105.75c-2.48,4.34-6.7,7.75-11.91,7.75-7.81,0-12-7.19-12-14.26,0-7.81,5.27-15.44,13.7-15.44,6.38,0,9.86,4.72,9.73,10.85l-.74.68H513.86c0,6.33,2.91,12.59,9.61,12.59a9.43,9.43,0,0,0,7.38-3.35ZM521.05,93.48c3.35,0,3.84-.07,3.84-2.3S523.34,86,520.55,86c-3.78,0-5.89,3.6-6.57,7.45Z"/>
    <path d="M551.56,88.2h-7.38v17c0,2.61,1.55,3.35,3.29,3.35a6.07,6.07,0,0,0,3.66-1.12l.8,1.06c-2.29,3-4.9,5-8.43,5-4.71,0-6.26-3-6.26-6.39V88.2h-3.72V86.72a35.78,35.78,0,0,0,9.92-8.87l.74.37v6.51h7.38Z"/>
    <path d="M557.74,78.1a3.19,3.19,0,0,1,.36,6.37,2.16,2.16,0,0,1-.36,0,3.19,3.19,0,0,1-.36-6.37Zm0,.56a2.62,2.62,0,0,0,0,5.23,2.48,2.48,0,0,0,2.48-2.5v-.11a2.52,2.52,0,0,0-2.42-2.62h-.06Zm-.6,4.34h-.62V79.69a6.41,6.41,0,0,1,1.16-.1,1.69,1.69,0,0,1,1.05.26.84.84,0,0,1-.32,1.49h0a1,1,0,0,1,.56.8,2.46,2.46,0,0,0,.24.84h-.64a2.24,2.24,0,0,1-.26-.88c-.08-.36-.3-.52-.77-.52h-.4Zm0-1.87h.42c.45,0,.85-.15.85-.54s-.2-.54-.79-.54a1.93,1.93,0,0,0-.48,0Z"/>
    <path d="M239.5,69.58H227.84c-3.15,0-6.42-.24-8.65-.24V71.2h.74c3,0,4.15.73,4.15,4.88V105.7c0,5-2.05,5-3.9,5h-1v1.85c3.53,0,6.87-.25,10.26-.25,3.16,0,6.25.25,9.41.25V110.7h-1c-3.16,0-5.88-.13-5.88-5.14V71.78l5.17.06c5.84.31,8.58,4.11,8.58,9.8,0,6.07-2.26,10.48-7.17,10.56h-3.16V94h3.16s2.47,0,3.52-.1c6.8-.67,11.94-5.31,11.94-12.55C254,72.36,247.91,69.58,239.5,69.58Z"/>
  </g>
  <path d="M418.08,4.37H406.43c-3.15,0-6.43-.24-8.66-.24V6.05h.75c3,0,4.14.74,4.14,4.89V40.5c0,5-2,5-3.9,5h-1v1.86c3.53,0,6.87-.25,10.27-.25,3.15,0,6.25.25,9.4.25V45.51h-1c-3.15,0-5.88-.12-5.88-5.13V6.57l5.17.06c5.85.31,8.58,4.11,8.58,9.8,0,6.07-2.25,10.49-7.17,10.57H414v1.83h3.17s2.47,0,3.52-.09c6.8-.68,11.93-5.32,11.93-12.56C432.61,7.15,426.49,4.37,418.08,4.37Z"/>
  <path d="M232.58,42c0,3.35,2.6,3.53,4.83,3.53h1.18V47.4c-2.73,0-6.69-.25-10-.25-3.16,0-6.88.25-9.36.25V45.5h.86c2.24,0,4.59-.3,4.59-3.53V9.49c0-3.23-2.35-3.54-4.59-3.54h-.86V4.09c2.48,0,6.2.25,9.36.25,3.35,0,7.31-.25,10-.25V6h-1.18c-2.23,0-4.83.19-4.83,3.54V23.06h22.5V9.49c0-3.35-2.6-3.54-4.83-3.54h-1.18V4.09c2.73,0,6.69.25,10,.25s6.88-.25,9.36-.25V6h-.86c-2.24,0-4.59.31-4.59,3.54V42c0,3.23,2.35,3.53,4.59,3.53h.86V47.4c-2.48,0-6.2-.25-9.36-.25-3.35,0-7.31.25-10,.25V45.5h1.18c2.23,0,4.83-.18,4.83-3.53V26.53h-22.5Z"/>
  <path d="M293.77,40.54c-2.48,4.34-6.69,7.75-11.9,7.75-7.81,0-12-7.19-12-14.25,0-7.82,5.27-15.44,13.7-15.44,6.39,0,9.86,4.71,9.74,10.85l-.75.68H275.79c0,6.32,2.92,12.58,9.61,12.58a9.39,9.39,0,0,0,7.38-3.34ZM283,28.27c3.35,0,3.85-.06,3.85-2.29s-1.55-5.15-4.34-5.15c-3.78,0-5.89,3.6-6.57,7.44Z"/>
  <path d="M313.34,27.84c0-3.6-2.11-5-4.9-5-3.6,0-4.53.93-4.77,4.41-.13,1.67-3.48,2.48-4.41,2.48-.68,0-1.17-.5-1.17-1.43a5.85,5.85,0,0,1,3.41-5.21c2-1,4.34-2.23,6.69-3.59a6.55,6.55,0,0,1,3.72-.87c5.46,0,8.37,2.85,8.37,8.24V39.49c0,2.67.19,4.59,1.92,4.59a3,3,0,0,0,1.74-.81l.81,1.12c-1.87,2.29-3.54,3.9-6.51,3.9s-4.47-2-4.72-4.89c-2.72,2.66-5.51,4.89-9.48,4.89-3.72,0-6.76-2.29-6.76-6.38,0-4.84,4-6.32,8.37-7.94l7.69-2.66Zm0,5.58c-3.41,1.11-9.12,2.29-9.12,6.63,0,2.66,1.37,4,3.79,4,2.85,0,4.65-2.36,5.33-3.29Z"/>
  <path d="M331,8.43c0-1.36-.19-1.92-1.61-2.48-.69-.25-1.37-.56-2.05-.8V3.66a60.52,60.52,0,0,0,10-3.66l.68.56v43c0,1.8,1.49,1.92,3.22,1.92h.69v1.87c-2.36-.13-4.72-.25-7.13-.25s-5.09.12-7.38.25V45.5c2,0,3.66,0,3.66-1.92Z"/>
  <path d="M360.7,23h-7.38V40c0,2.6,1.55,3.34,3.29,3.34a6.13,6.13,0,0,0,3.66-1.11l.8,1.05c-2.29,3-4.9,5-8.43,5-4.71,0-6.26-3-6.26-6.38V23h-3.72V21.51a35.74,35.74,0,0,0,9.92-8.86l.74.37v6.51h7.38Z"/>
  <path d="M373.88,44c0,1.48,1.43,1.48,3,1.48h.93v1.87c-2.36-.13-4.72-.25-7.07-.25-2.54,0-5,.12-7.44.25V45.5c2,0,3.66,0,3.66-1.92V8.43c0-1.36-.19-1.92-1.61-2.48l-2.05-.8V3.66A60.32,60.32,0,0,0,373.2,0l.68.56V23.12c2.73-1.86,5.89-4.52,9.67-4.52,4.47,0,7.69,2.17,7.69,8V43.77c0,1.73,1.55,1.73,3,1.73H395v1.87c-2.35-.13-4.65-.25-7-.25s-4.9.12-7.38.25V45.5h.62c1.24,0,3,0,3-1.61V28.39c0-3.78-1.93-5.2-4.72-5.2-2,0-4.34,1.24-5.7,2.1Z"/>
  <path d="M447.43,27.84c0-3.6-2.11-5-4.9-5-3.59,0-4.52.93-4.77,4.41-.12,1.67-3.47,2.48-4.4,2.48-.68,0-1.18-.5-1.18-1.43a5.85,5.85,0,0,1,3.41-5.21c2.05-1,4.34-2.23,6.7-3.59a6.52,6.52,0,0,1,3.71-.9c5.45,0,8.36,2.85,8.36,8.24V39.49c0,2.67.19,4.59,1.93,4.59a2.91,2.91,0,0,0,1.73-.81l.81,1.12c-1.86,2.29-3.53,3.9-6.51,3.9s-4.46-2-4.71-4.89c-2.73,2.66-5.52,4.89-9.49,4.89-3.72,0-6.76-2.29-6.76-6.38,0-4.84,4-6.32,8.37-7.94l7.69-2.66Zm0,5.58c-3.41,1.11-9.11,2.29-9.11,6.63,0,2.66,1.36,4,3.78,4,2.85,0,4.65-2.36,5.33-3.29Z"/>
  <path d="M472.26,44.08c0,1.42,1.68,1.42,4.59,1.42h.93v1.87c-2.91-.07-5.83-.25-8.74-.25-2.6,0-5.15.18-7.75.25V45.5h.62c2.11,0,3.41-.24,3.41-1.61V27c0-2.05-.37-2.67-1.92-2.91l-2-.38V22.26a45.92,45.92,0,0,0,10.17-3.66l.68.37v4.28h.13c1.11-1.8,3.9-4.65,7.13-4.65,2.1,0,4,1,4,3.66a3.37,3.37,0,0,1-3.07,3.64,3.23,3.23,0,0,1-.44,0c-2.42,0-2.42-2.35-4.34-2.35-1.48,0-3.41,1.18-3.41,4.21Z"/>
  <path d="M504.17,23H496.8V40c0,2.6,1.55,3.34,3.28,3.34a6.13,6.13,0,0,0,3.66-1.11l.81,1.05c-2.3,3-4.9,5-8.44,5-4.71,0-6.26-3-6.26-6.38V23h-3.72V21.51a35.74,35.74,0,0,0,9.92-8.86l.75.37v6.51h7.37Z"/>
  <path d="M507,45.5h.43c1.8,0,3.22,0,3.22-1.85V26.1c0-1-.12-1.36-1.48-1.74-.75-.18-1.43-.43-2.17-.62V22.26c1.92-.5,4-1.24,5.64-1.8,1.42-.5,2.91-1.3,4.27-1.86l.69.56v4c2.73-1.86,5.89-4.52,9.67-4.52,4.46,0,7.69,2.17,7.69,8V43.77c0,1.73,1.55,1.73,3,1.73h.75v1.87c-2.36-.13-4.65-.25-7-.25s-4.9.12-7.38.25V45.5H525c1.24,0,3,0,3-1.61V28.39c0-3.78-1.92-5.2-4.71-5.2-2,0-4.34,1.24-5.7,2.1V44c0,1.48,1.42,1.48,3,1.48h.93v1.87c-2.35-.13-4.71-.25-7.06-.25-2.55,0-5,.12-7.44.25Z"/>
  <path d="M564.86,40.54c-2.48,4.34-6.69,7.75-11.9,7.75-7.81,0-12-7.19-12-14.25,0-7.82,5.27-15.44,13.7-15.44,6.39,0,9.86,4.71,9.74,10.85l-.75.68H546.89c0,6.32,2.91,12.58,9.6,12.58a9.39,9.39,0,0,0,7.38-3.34ZM554.08,28.27c3.34,0,3.84-.06,3.84-2.29s-1.55-5.15-4.34-5.15c-3.78,0-5.89,3.6-6.57,7.44Z"/>
  <path d="M577.75,44.08c0,1.42,1.67,1.42,4.58,1.42h.94v1.87c-2.92-.07-5.83-.25-8.75-.25-2.6,0-5.14.18-7.75.25V45.5h.62c2.11,0,3.41-.24,3.41-1.61V27c0-2.05-.37-2.67-1.92-2.91l-2-.38V22.26a46.62,46.62,0,0,0,10.17-3.66l.68.37v4.28h.12c1.12-1.8,3.91-4.65,7.13-4.65,2.11,0,4,1,4,3.66a3.37,3.37,0,0,1-3.08,3.64h-.39c-2.42,0-2.42-2.35-4.34-2.35-1.49,0-3.41,1.18-3.41,4.21Z"/>
  <path d="M607.4,27c-.31-3.47-1.61-6.14-5.58-6.14-2.11,0-4.21,1.3-4.21,3.72,0,6.76,12.83,5.21,12.83,14.63,0,6.7-5.39,9.11-10.54,9.11a20.48,20.48,0,0,1-7.32-1.61L592,39.8l1.73-.37c.37,3.41,2.42,6.63,6.08,6.63,2.42,0,4.65-1.36,4.65-4.09,0-6-12.46-5-12.46-14.51,0-5.45,4.21-8.86,9.92-8.86a19.92,19.92,0,0,1,7.31,1.49,37.94,37.94,0,0,0-.12,6.57Z"/>
  <path d="M615.2,18.57a3.22,3.22,0,1,1-.09,0Zm0,.56a2.62,2.62,0,0,0,0,5.24,2.48,2.48,0,0,0,2.49-2.49v-.12a2.53,2.53,0,0,0-2.43-2.63h-.06Zm-.55,4.36H614V20.17a6.3,6.3,0,0,1,1.15-.1,1.65,1.65,0,0,1,1.06.26.85.85,0,0,1,.17,1.18.83.83,0,0,1-.49.31h0a1,1,0,0,1,.56.8,2.4,2.4,0,0,0,.24.83H616a2.43,2.43,0,0,1-.26-.87c-.08-.36-.3-.52-.78-.52h-.39Zm0-1.87H615c.46,0,.86-.14.86-.54s-.2-.53-.8-.53a1.85,1.85,0,0,0-.47,0Z"/>
</svg>
