<?xml version="1.0" encoding="utf-8"?>
<!-- Generator: Adobe Illustrator 27.0.1, SVG Export Plug-In . SVG Version: 6.00 Build 0)  -->
<svg version="1.1" id="Layer_2_00000160881983663678003430000014615809456264839823_"
	 xmlns="http://www.w3.org/2000/svg" xmlns:xlink="http://www.w3.org/1999/xlink" x="0px" y="0px" viewBox="0 0 1733.2 500"
	 style="enable-background:new 0 0 1733.2 500;" xml:space="preserve">
<style type="text/css">
	.st0{fill:#E0231A;}
	.st1{fill:#FFFFFF;}
</style>
<g id="Layer_1-2">
	<g>
		<rect class="st0" width="500" height="500"/>
		<g>
			<path class="st1" d="M136.7,243.1h-14.2l-16.2-28.9c-1.4-2.7-2.5-4.9-3.4-7c0.2,5.7,0.4,15,0.4,21.3V243H92.5v-53.1h14.2
				l15.9,28.2c1.3,2.2,2.6,4.8,3.8,7.5c-0.2-6.1-0.4-15.9-0.4-22.1v-13.7h10.8L136.7,243.1L136.7,243.1z"/>
			<path class="st1" d="M160.4,202.9c-11.2,0-18.7,8.4-18.7,20.8c0,13.4,6.5,20.1,19.4,20.1c4.6,0,9.8-0.9,14.1-2.5l0.4-0.2
				l-1.2-8.6l-0.7,0.3c-3.5,1.4-7.3,2.2-10.9,2.2s-6.1-0.8-7.7-2.4c-1.5-1.5-2.2-3.8-2.3-6.9h23.5l0.1-0.5c0.4-2,0.4-4.5,0.4-5.5
				C176.8,209.2,170.6,202.9,160.4,202.9L160.4,202.9z M153,218c0.7-4.1,3.2-6.7,6.8-6.7c1.8,0,3.3,0.6,4.3,1.6
				c1.1,1.2,1.7,2.9,1.8,5.1L153,218L153,218z"/>
			<path class="st1" d="M226.5,243.1H215l-5.7-17.3c-0.6-2.2-1.2-4.2-1.6-6.4c-0.7,2.8-1.4,5.2-2.1,7.4l-5,16.3h-11l-12.1-39.4h12
				l4.2,14.9c0.2,0.9,0.5,1.9,0.8,2.8c0.6,2.1,1.1,4.2,1.7,6.4c0.7-3.1,1.4-5.8,2.3-8.7l4.8-15.3h10.3l4.8,14.9
				c1,3.3,1.9,6.3,2.6,9.3c0.6-3,1.3-5.7,2.2-8.8l4.5-15.4h11.3L226.5,243.1L226.5,243.1z"/>
			<path class="st1" d="M260,243.1h-11.2v-18.8L232.2,190h12.2l7,15.3c1.1,2.5,2.1,4.9,3.1,7.4c1-2.7,2.4-5.6,3.7-8.4l6.7-14.3h11.9
				L260,224.2L260,243.1L260,243.1z"/>
			<path class="st1" d="M289.2,202.9c-11.9,0-20.1,8.7-20.1,21.1s6.4,19.8,18.4,19.8s20.1-8.9,20.1-21.2S301.1,202.9,289.2,202.9
				L289.2,202.9z M288.4,234.3c-5.4,0-8-3.7-8-11.3s4.4-10.7,8.1-10.7c5.3,0,7.8,3.5,7.8,10.8C296.3,230,293.3,234.3,288.4,234.3
				L288.4,234.3z"/>
			<path class="st1" d="M323.9,243.1h-11v-39.4h10.5v0.6c0,1.2-0.1,2.8-0.3,4.6c2.6-4.3,6.5-6.4,11.4-5.9l0.5,0.1l-0.5,10.8
				l-0.6-0.1c-2.7-0.5-4.8-0.2-6.4,1.1c-2.3,1.9-3.5,6-3.5,12.1L323.9,243.1L323.9,243.1z"/>
			<polygon class="st1" points="374.5,243.1 360.8,243.1 349.8,225.6 349.8,243.1 338.8,243.1 338.8,185.7 349.8,185.7 349.8,218.3 
				360.1,203.6 373.6,203.6 359.8,221.7 			"/>
			<rect x="373.6" y="216.6" class="st1" width="20.1" height="9.1"/>
			<path class="st1" d="M107,256c-5.7,0-10.1,0.1-14,0.3l-0.5,0v53.1h11.2v-18.2c1,0.1,2,0.1,2.8,0.1c12.3,0,20.9-7.6,20.9-18.6
				S120,256,107,256L107,256z M106,281.8c-0.8,0-1.6,0-2.3-0.1v-16.3c1,0,1.9,0,3,0c6.1,0,9.2,2.7,9.2,8S112.1,281.7,106,281.8
				L106,281.8z"/>
			<path class="st1" d="M142.5,309.4h-11V270h10.5v0.6c0,1.2-0.1,2.8-0.3,4.6c2.6-4.3,6.5-6.4,11.4-5.9l0.6,0l-0.5,10.8l-0.6-0.1
				c-2.7-0.5-4.8-0.2-6.4,1.1c-2.3,1.9-3.5,6-3.5,12.1L142.5,309.4L142.5,309.4z"/>
			<path class="st1" d="M173.7,269.2c-11.2,0-18.7,8.4-18.7,20.8c0,13.4,6.5,20.1,19.4,20.1c4.6,0,9.8-0.9,14.1-2.5l0.4-0.2
				l-1.2-8.6l-0.7,0.3c-3.5,1.4-7.3,2.2-10.9,2.2s-6.1-0.8-7.7-2.4c-1.5-1.5-2.2-3.8-2.3-6.9h23.5l0.1-0.5c0.4-2,0.4-4.5,0.4-5.5
				C190.1,275.5,184,269.3,173.7,269.2L173.7,269.2z M166.4,284.3c0.7-4.1,3.2-6.7,6.8-6.7c1.8,0,3.3,0.6,4.3,1.6
				c1.1,1.2,1.7,2.9,1.8,5.1L166.4,284.3L166.4,284.3z"/>
			<path class="st1" d="M204.3,310.2c-3.3,0-6.4-0.4-8.7-1l-0.5-0.1l0.8-9.5l0.7,0.3c2.2,1,5.1,1.5,7.9,1.5c3.4,0,5.6-1.4,5.6-3.6
				c0-2.3-2.1-3.1-5.5-4.3c-4.5-1.5-10-3.5-10-11.4c0-6.2,4.4-12.8,16.8-12.8c2.1,0,4.8,0.3,7.1,0.8l0.5,0.1l-0.5,8.9l-0.7-0.2
				c-2.1-0.6-4.5-1-6.8-1s-5,0.6-5,3.4c0,2.2,2.1,3.1,5.6,4.3c4.5,1.7,10.2,3.7,10.2,11.4S214.7,310.2,204.3,310.2"/>
			<path class="st1" d="M247.9,269.2c-4.5,0-8.3,1.8-10.7,4.8c0.2-1.6,0.3-3.4,0.3-5v-17.1h-11v56.1l0.4,0.1c4.6,1.3,9,1.9,14.4,1.9
				c13.1,0,21.3-8.6,21.3-22.4C262.6,276,257.2,269.2,247.9,269.2L247.9,269.2z M242.1,301.2c-1.8,0-3.3-0.2-4.6-0.5v-10.4
				c0-5.7,2.7-11.7,7.7-11.7c2.6,0,6,1.1,6,10.2C251.1,296.9,248,301.2,242.1,301.2L242.1,301.2z"/>
			<path class="st1" d="M342.8,269.2c-11.2,0-18.7,8.4-18.7,20.8c0,13.4,6.5,20.1,19.4,20.1c4.6,0,9.8-0.9,14-2.5l0.4-0.2l-1.2-8.6
				l-0.7,0.3c-3.5,1.4-7.3,2.2-10.9,2.2s-6.1-0.8-7.7-2.4c-1.5-1.5-2.2-3.8-2.3-6.9h23.5l0.1-0.5c0.4-2,0.4-4.5,0.4-5.5
				C359.2,275.5,353.1,269.3,342.8,269.2L342.8,269.2z M335.5,284.3c0.7-4.1,3.2-6.7,6.8-6.7c1.8,0,3.3,0.6,4.3,1.6
				c1.1,1.2,1.7,2.9,1.8,5.1L335.5,284.3L335.5,284.3z"/>
			<path class="st1" d="M374.6,309.4h-11V270h10.5v0.6c0,1.2-0.1,2.8-0.3,4.6c2.6-4.3,6.5-6.4,11.4-5.9l0.5,0l-0.5,10.8l-0.7-0.1
				c-2.7-0.5-4.8-0.2-6.4,1.1c-2.3,1.9-3.5,6-3.5,12.1L374.6,309.4L374.6,309.4z"/>
			<rect x="390.2" y="270" class="st1" width="11" height="39.4"/>
			<path class="st1" d="M395.7,265.5c-3.7,0-6.7-2.9-6.7-6.5s3-6.6,6.7-6.6s6.7,2.9,6.7,6.6S399.4,265.5,395.7,265.5"/>
			<path class="st1" d="M429.4,309.4H440l0-0.6c-0.2-3.5-0.3-7.2-0.3-9.8v-15.8c0-9.9-4.8-14-16-14c-5,0-10.6,1-14.7,2.7l-0.5,0.2
				l1.9,8.7l0.6-0.3c3.6-1.5,8.1-2.6,11.3-2.6c4.6,0,6.3,1.7,6.3,6.1v0.8c-14.2,0.1-22.1,5-22.1,13.9c0,6.9,4.6,11.5,11.5,11.5
				c4.8,0,9-2.1,11.5-5.4c-0.1,1.5-0.1,3-0.1,4.1L429.4,309.4L429.4,309.4z M428.6,292.8c0,4.2-2.8,8.7-7.4,8.7c-2.4,0-4-1.6-4-3.9
				s1.2-5.1,11.5-5.2L428.6,292.8L428.6,292.8z"/>
			<path class="st1" d="M480.5,309.4h-10.9v-25c0-4.1-1.2-5.7-4.2-5.7c-4.6,0-8.3,5.3-8.3,11.7v19h-11V270h10.5v0.6
				c0,1.2-0.1,2.9-0.2,4.4c2.8-3.7,7.1-5.8,12.2-5.8c7.8,0,12,4.4,12,12.7V309.4L480.5,309.4z"/>
			<path class="st1" d="M321.7,300l-0.7,0.2c-1.2,0.4-2.6,0.5-4.2,0.5c-2.8,0-4-0.8-4-5.7v-16.2h9.3V270h-9.3v-14.6l-10.9,2.9V270
				h-11.2l-4.7,13.4c-1,2.8-2.3,6.8-3.2,10.2c-0.7-2.9-1.6-5.8-2.5-8.6l-5.3-15h-12.2l14.4,38.8l-1.2,3.2c-1.7,4.8-4.3,7.2-8.1,7.2
				c-1.5,0-3.2-0.3-4.7-0.7l-0.6-0.2l-1.3,9.7l0.5,0.1c1.5,0.3,3.9,0.5,5.5,0.5c9.6,0,15-4.7,19.8-17.4l14.8-39.5v25.9
				c0,9.4,2.9,12.6,11.7,12.6c2.5,0,5.7-0.4,8.5-1.1l0.5-0.1L321.7,300L321.7,300z"/>
			<polygon class="st1" points="19.5,263 19.5,274.6 54.3,274.6 54.3,309.4 66,309.4 66,263 			"/>
			<polygon class="st1" points="66,189.9 61.6,189.9 61.6,232.1 19.5,232.1 19.5,236.4 66,236.4 			"/>
		</g>
	</g>
	<g>
		<path class="st1" d="M578,128.9h7l5.8,27.8c0.2,1.1,0.3,1.8,0.3,2.6h0.2c0-0.8,0.2-1.4,0.4-2.6l6.7-27.8h7l6.7,27.8
			c0.3,1.1,0.4,1.8,0.4,2.6h0.2c0-0.8,0.1-1.4,0.3-2.6l5.8-27.8h7l-9,38h-8l-6.4-27.8c-0.2-0.8-0.3-1.4-0.3-2.2h-0.2
			c0,0.8-0.2,1.4-0.3,2.2l-6.4,27.8h-8L578,128.9L578,128.9z"/>
		<rect x="636.5" y="128.9" class="st1" width="6.9" height="38"/>
		<polygon class="st1" points="683.7,134.5 672.2,134.5 672.2,166.9 665.3,166.9 665.3,134.5 653.8,134.5 653.8,128.9 683.7,128.9 
					"/>
		<polygon class="st1" points="724.9,166.9 718,166.9 718,150.3 701,150.3 701,166.9 694.1,166.9 694.1,128.9 701,128.9 701,144.8 
			718,144.8 718,128.9 724.9,128.9 		"/>
		<path class="st1" d="M762.2,129.8h7l5.8,27.8c0.2,1.1,0.3,1.8,0.3,2.6h0.2c0-0.8,0.2-1.4,0.4-2.6l6.7-27.8h7l6.7,27.8
			c0.3,1.1,0.4,1.8,0.4,2.6h0.2c0-0.8,0.1-1.4,0.3-2.6l5.8-27.8h7l-9,38h-8l-6.4-27.8c-0.2-0.8-0.3-1.4-0.3-2.2h-0.2
			c0,0.8-0.2,1.4-0.3,2.2l-6.4,27.8h-8L762.2,129.8L762.2,129.8z"/>
		<path class="st1" d="M846.6,148.8c0-8.9-4-14.3-10.8-14.3s-10.8,5.4-10.8,14.3s4,14.3,10.8,14.3S846.6,157.7,846.6,148.8
			 M817.9,148.8c0-12.4,7.1-19.9,18-19.9s18,7.5,18,19.9s-7.1,19.9-18,19.9S817.9,160.9,817.9,148.8"/>
		<path class="st1" d="M872.8,147.4h7.2c5.2,0,7.1-2.6,7.1-6.2s-1.9-6.2-7.1-6.2h-7.2V147.4z M879.5,152.5h-6.7v15.2h-6.9v-38h15.3
			c9.8,0,13.2,5.1,13.2,11.4c0,4.5-2.4,8.8-8,10.4l9,16.1h-7.6L879.5,152.5L879.5,152.5z"/>
		<polygon class="st1" points="907,129.8 913.9,129.8 913.9,162.1 930.5,162.1 930.5,167.8 907,167.8 		"/>
		<path class="st1" d="M954.5,162.4c7.4,0,11.5-6.2,11.5-13.8s-4-13.4-11.4-13.4H948v27.2H954.5L954.5,162.4z M941.1,129.8h13.7
			c11.1,0,18.4,7.6,18.4,18.8s-7.2,19.1-18.5,19.1h-13.6V129.8z"/>
		<rect x="984.7" y="145.9" class="st1" width="16.4" height="5.7"/>
		<path class="st1" d="M1012.6,148.7c0-11.8,6.5-19.8,17.9-19.8c9.5,0,14.9,5.4,15.9,13.5l-7.1,1c-0.7-5.4-3.8-8.8-9-8.8
			c-6.7,0-10.5,5.6-10.5,14.1s3.7,14.2,10.7,14.2c4.9,0,8.2-3.3,9.2-8.6l6.8,1.4c-1.6,7.6-6.8,13-16.1,13
			C1018.4,168.7,1012.6,160.2,1012.6,148.7"/>
		<polygon class="st1" points="1058.3,129.8 1065.2,129.8 1065.2,162.1 1081.8,162.1 1081.8,167.8 1058.3,167.8 		"/>
		<path class="st1" d="M1114,152.5l-4.4-12.8c-0.4-1.2-0.8-2.6-1.1-4.1h-0.1c-0.3,1.5-0.7,2.8-1.1,4.1l-4.4,12.8H1114L1114,152.5z
			 M1115.8,157.8H1101l-3.4,10h-7l14.1-38h7.5l14.1,38h-7L1115.8,157.8L1115.8,157.8z"/>
		<path class="st1" d="M1133.4,158l5.9-2.6c1.3,4.3,4.4,7.7,10.3,7.7c3.9,0,7.5-1.6,7.5-5.5c0-3.7-2.2-5-6.4-5.8l-5.3-1.1
			c-6-1.2-9.9-4.4-9.9-10.9s5.3-10.9,13.9-10.9c7.2,0,12.9,2.9,14.6,9.2l-5.5,2.9c-1.2-4.4-4.4-6.9-9.4-6.9c-4.1,0-6.9,1.9-6.9,5.1
			s1.7,4.7,5.9,5.6l5.5,1.2c6.3,1.3,10.4,4.2,10.4,11s-4.9,11.7-14.6,11.7C1140.3,168.7,1134.9,164.2,1133.4,158"/>
		<path class="st1" d="M1173,158l5.9-2.6c1.3,4.3,4.4,7.7,10.3,7.7c3.9,0,7.5-1.6,7.5-5.5c0-3.7-2.2-5-6.4-5.8l-5.3-1.1
			c-6-1.2-9.9-4.4-9.9-10.9s5.3-10.9,13.9-10.9c7.2,0,12.9,2.9,14.6,9.2l-5.5,2.9c-1.2-4.4-4.4-6.9-9.4-6.9c-4.1,0-6.9,1.9-6.9,5.1
			s1.7,4.7,5.9,5.6l5.5,1.2c6.3,1.3,10.4,4.2,10.4,11s-4.9,11.7-14.6,11.7C1180,168.7,1174.6,164.2,1173,158"/>
		<path class="st1" d="M1260.1,161.1c7.4,0,11.5-6.2,11.5-13.7s-4-13.4-11.4-13.4h-6.6v27.2L1260.1,161.1L1260.1,161.1z
			 M1246.8,128.6h13.7c11.1,0,18.4,7.6,18.4,18.8s-7.2,19.1-18.5,19.1h-13.6V128.6z"/>
		<path class="st1" d="M1317.4,147.6c0-8.9-3.9-14.3-10.8-14.3s-10.8,5.4-10.8,14.3s4,14.3,10.8,14.3S1317.4,156.5,1317.4,147.6
			 M1288.7,147.6c0-12.4,7.1-19.9,18-19.9s18,7.5,18,19.9s-7.1,19.9-18,19.9S1288.7,159.7,1288.7,147.6"/>
		<path class="st1" d="M1334.5,147.5c0-11.8,6.5-19.8,17.9-19.8c9.5,0,14.9,5.4,15.9,13.5l-7.1,1c-0.7-5.4-3.8-8.8-9-8.8
			c-6.7,0-10.5,5.6-10.5,14.1s3.7,14.2,10.7,14.2c4.9,0,8.2-3.3,9.2-8.6l6.8,1.4c-1.6,7.6-6.8,13-16.1,13
			C1340.3,167.5,1334.5,159,1334.5,147.5"/>
		<polygon class="st1" points="1406.3,134.2 1394.8,134.2 1394.8,166.6 1387.9,166.6 1387.9,134.2 1376.4,134.2 1376.4,128.6 
			1406.3,128.6 		"/>
		<path class="st1" d="M1442.6,147.6c0-8.9-3.9-14.3-10.8-14.3s-10.8,5.4-10.8,14.3s4,14.3,10.8,14.3S1442.6,156.5,1442.6,147.6
			 M1413.8,147.6c0-12.4,7.1-19.9,18-19.9s18,7.5,18,19.9s-7.1,19.9-18,19.9S1413.8,159.7,1413.8,147.6"/>
		<path class="st1" d="M1468.8,146.2h7.2c5.2,0,7.1-2.6,7.1-6.2s-1.9-6.1-7.1-6.1h-7.2V146.2z M1475.5,151.3h-6.7v15.2h-6.9v-38
			h15.3c9.8,0,13.2,5.1,13.2,11.4c0,4.5-2.3,8.8-8,10.4l9,16.1h-7.6L1475.5,151.3L1475.5,151.3z"/>
		<path class="st1" d="M1499.3,156.8l5.9-2.6c1.3,4.3,4.4,7.7,10.3,7.7c3.9,0,7.5-1.6,7.5-5.5c0-3.7-2.2-5-6.4-5.8l-5.3-1.1
			c-6-1.2-9.9-4.4-9.9-10.9s5.3-10.9,13.9-10.9c7.2,0,12.9,2.9,14.6,9.2l-5.5,2.9c-1.2-4.4-4.4-6.9-9.4-6.9c-4.1,0-6.9,1.9-6.9,5.1
			s1.7,4.7,5.9,5.6l5.5,1.2c6.2,1.3,10.4,4.2,10.4,11s-4.9,11.7-14.6,11.7C1506.3,167.5,1500.9,163,1499.3,156.8"/>
		<polygon class="st1" points="1577.5,134 1577.5,144.6 1594.4,144.6 1594.4,150 1577.5,150 1577.5,166.6 1570.6,166.6 
			1570.6,128.6 1595.3,128.6 1595.3,134 		"/>
		<path class="st1" d="M1613.2,146.2h7.2c5.2,0,7.1-2.6,7.1-6.2s-1.9-6.1-7.1-6.1h-7.2V146.2z M1619.9,151.3h-6.7v15.2h-6.9v-38
			h15.3c9.8,0,13.2,5.1,13.2,11.4c0,4.5-2.4,8.8-8,10.4l9,16.1h-7.6L1619.9,151.3L1619.9,151.3z"/>
		<path class="st1" d="M1673.7,147.6c0-8.9-3.9-14.3-10.8-14.3s-10.8,5.4-10.8,14.3s4,14.3,10.8,14.3S1673.7,156.5,1673.7,147.6
			 M1644.9,147.6c0-12.4,7.1-19.9,18-19.9s18,7.5,18,19.9s-7.1,19.9-18,19.9S1644.9,159.7,1644.9,147.6"/>
		<path class="st1" d="M1693,128.6h9.6l8.6,26.4c0.6,1.9,0.8,2.7,1,4.1h0.1c0.2-1.4,0.4-2.2,1-4.1l8.5-26.4h9.7v38h-6.3v-27.7
			c0-1.5,0.1-2.8,0.2-4.2h-0.2c-0.1,0.9-0.6,2.9-1,4l-9,27.9h-6.2l-9.1-27.9c-0.4-1.1-0.9-3.1-1-4h-0.2c0.2,1.3,0.2,2.6,0.2,4.2
			v27.7h-6L1693,128.6L1693,128.6z"/>
	</g>
	<g>
		<path class="st1" d="M1099.6,327.9h-11.8c-0.3,0-0.3-0.2-0.3-0.4l5.9-15.4c0.1-0.2,0.2-0.6,0.4-0.6s0.2,0.3,0.3,0.6l5.8,15.5
			C1100,327.8,1099.9,327.9,1099.6,327.9 M1121.2,346.3c-0.8,0-1.7-0.1-2.7-0.2c-1.3-0.3-3.2-1.2-5.6-6.8
			c-4.1-9.5-14.3-35.1-15.8-38.5c-0.6-1.4-1-2-1.6-2c-0.6,0-1,0.7-1.8,2.5l-16,39.3c-1.3,3.1-2.5,5.3-5.4,5.6
			c-0.5,0.1-1.4,0.1-2,0.1c-0.5,0-0.8,0.1-0.8,0.5c0,0.5,0.4,0.6,1.2,0.6c3.3,0,6.8-0.2,7.5-0.2c2,0,4.7,0.2,6.8,0.2
			c0.7,0,1.1-0.1,1.1-0.6c0-0.4-0.2-0.5-1-0.5h-1c-2,0-2.6-0.8-2.6-2c0-0.7,0.3-2.2,1-3.8l3.4-9c0.1-0.4,0.2-0.5,0.6-0.5h14.2
			c0.3,0,0.5,0.1,0.6,0.4l5.1,13.3c0.3,0.8-0.1,1.3-0.6,1.4c-0.6,0.1-0.9,0.2-0.9,0.6c0,0.4,0.8,0.4,1.9,0.5
			c5.1,0.1,9.8,0.1,12.1,0.1s2.9-0.1,2.9-0.6C1122,346.4,1121.7,346.3,1121.2,346.3 M1044.6,301.2c0.8,0,1.6,0.1,2.3,0.2
			c1.4,0.3,2,1.4,2.2,3.5c0.1,2,0.1,3.8,0.1,13.3v11c0,6.1,0,11-0.3,13.6c-0.2,1.8-0.6,2.9-1.9,3.1c-0.6,0.1-1.3,0.2-2.3,0.2
			c-0.8,0-1,0.2-1,0.5c0,0.4,0.4,0.6,1.3,0.6c2.6,0,6.6-0.2,8.1-0.2c1.7,0,5.7,0.2,10,0.2c0.7,0,1.2-0.2,1.2-0.6
			c0-0.3-0.3-0.5-1-0.5c-1,0-2.4-0.1-3.3-0.2c-1.9-0.2-2.4-1.4-2.6-3.1c-0.2-2.7-0.2-7.6-0.2-13.7v-11c0-9.5,0-11.3,0.1-13.3
			c0.1-2.2,0.6-3.2,2.4-3.6c0.8-0.1,1.3-0.2,1.9-0.2s1-0.1,1-0.6c0-0.4-0.5-0.5-1.3-0.5c-2.4,0-6.2,0.2-7.8,0.2
			c-1.9,0-5.9-0.2-8.3-0.2c-1,0-1.5,0.1-1.5,0.5C1043.6,301.1,1044,301.2,1044.6,301.2 M1018.7,344.8c-1.5,0-2.9-0.1-4.7-0.8
			c-2-0.8-2.2-1.9-2.2-6v-14.8c0-0.3,0.1-0.4,0.4-0.4c1,0,1.6,0,2.8,0.1c2.5,0.1,4,0.6,5.3,1.5c4.8,3.3,6.2,8.6,6.2,12.5
			C1026.4,343.3,1021.6,344.8,1018.7,344.8 M1011.8,303.8c0-0.7,0.1-0.9,0.6-1.1c0.6-0.1,1.2-0.1,2.1-0.1c5.5,0,8,5.5,8,9.7
			c0,3.1-1,5.3-2.6,6.6c-1.1,0.9-2.5,1.2-4.6,1.2c-1.5,0-2.4-0.1-3-0.2c-0.3-0.1-0.5-0.2-0.5-0.7L1011.8,303.8L1011.8,303.8z
			 M1022.7,320.4c3.5-2.8,6.5-5.8,6.5-11c0-3.3-2-9.4-13.6-9.4c-2.2,0-4.7,0.2-7.8,0.2c-1.3,0-5.3-0.2-8.7-0.2c-1,0-1.4,0.1-1.4,0.6
			s0.4,0.6,1.1,0.6c0.9,0,2,0.1,2.5,0.2c2.1,0.4,2.6,1.4,2.8,3.6c0.1,2,0.1,3.8,0.1,13.3v11c0,5.8,0,10.7-0.3,13.3
			c-0.2,1.8-0.6,3.2-1.8,3.4c-0.6,0.1-1.3,0.2-2.3,0.2c-0.8,0-1,0.2-1,0.5c0,0.4,0.5,0.6,1.3,0.6c2.6,0,6.6-0.2,8-0.2
			c1.9,0,7.7,0.4,9.2,0.4c11.7,0,17-7,17-13.7C1034.3,326.6,1027.9,322.2,1022.7,320.4 M990.6,346.3c-0.8,0-2.1-0.1-4-0.6
			c-1.9-0.6-2.5-2.4-3.1-6.3l-5.8-38.7c-0.2-1.3-0.6-1.9-1.2-1.9s-1,0.5-1.4,1.5L957.8,336l-17.4-35.3c-0.8-1.6-1.2-1.9-1.7-1.9
			s-0.9,0.6-1.1,1.6l-6.3,40.8c-0.3,2.1-0.8,4.6-2.6,5c-1,0.2-1.4,0.2-1.9,0.2c-0.6,0-1,0.1-1,0.4c0,0.6,0.5,0.7,1.2,0.7
			c2,0,5.1-0.2,6.3-0.2c1.2,0,4,0.2,6.7,0.2c1,0,1.5-0.1,1.5-0.7c0-0.3-0.5-0.4-1-0.4c-0.6,0-1.5-0.1-2.7-0.3
			c-1.1-0.2-1.9-0.8-1.9-2c0-1,0.1-1.8,0.2-3l3.3-24.9h0.3c2.2,4.7,6.1,12.6,6.6,13.9c0.8,1.8,5.8,11.3,7.3,14.2
			c1,1.9,1.7,3.1,2.2,3.1s0.9-0.6,2.4-3.5l13.9-28.4h0.3l3.8,27.6c0.2,1.8,0.1,2.6-0.3,2.7c-0.5,0.2-0.7,0.4-0.7,0.7
			c0,0.4,0.4,0.6,1.8,0.7c2.6,0.2,11.4,0.4,13,0.4c0.9,0,1.7-0.2,1.7-0.7C991.6,346.4,991.2,346.3,990.6,346.3 M916.7,324.9v-6.7
			c0-9.5,0-11.3,0.1-13.3c0.1-2.2,0.6-3.2,2.4-3.6c0.8-0.1,1.2-0.2,1.8-0.2c0.8,0,1.2-0.1,1.2-0.6s-0.4-0.6-1.3-0.6
			c-2.5,0-6.5,0.2-7.3,0.2c-0.1,0-4.1-0.2-7.3-0.2c-0.9,0-1.3,0.1-1.3,0.6s0.4,0.6,1.1,0.6s1.8,0.1,2.3,0.2c2.1,0.4,2.6,1.4,2.8,3.6
			c0.1,2,0.1,3.8,0.1,13.3v7.8c0,6.5-0.2,12.1-3.7,15.5c-2.5,2.5-6,3.4-8.8,3.4c-2.2,0-5.1-0.2-8-2.6c-3.1-2.5-5-6.3-5-15.4v-8.8
			c0-9.5,0-11.3,0.1-13.3c0.1-2.2,0.6-3.2,2.4-3.6c0.8-0.1,1.2-0.2,1.8-0.2c0.6,0,1-0.1,1-0.6s-0.5-0.6-1.4-0.6
			c-2.3,0-6.3,0.2-7.8,0.2c-1.9,0-5.9-0.2-9.3-0.2c-1,0-1.4,0.1-1.4,0.6s0.4,0.6,1.1,0.6c0.9,0,2,0.1,2.5,0.2
			c2.1,0.4,2.6,1.4,2.8,3.6c0.1,2,0.1,3.8,0.1,13.3v9.1c0,9.1,2.4,13.7,5.7,16.6c4.7,4.1,10.8,4.3,14.2,4.3c4.2,0,8.8-0.7,13.3-4.5
			C916,339.3,916.7,331.9,916.7,324.9 M864.7,337.6c-0.5,0-0.6,0.4-0.7,0.9c-0.1,1.2-0.9,2.9-1.7,3.8c-1.6,1.7-4.1,1.8-7.5,1.8
			c-5,0-6.6-0.4-7.7-1.4c-1.3-1.1-1.3-5.5-1.3-13.5v-11c0-9.5,0-11.3,0.1-13.3c0.1-2.2,0.6-3.2,2.4-3.6c0.8-0.1,1.8-0.2,2.5-0.2
			c0.8,0,1.1-0.1,1.1-0.6s-0.4-0.6-1.3-0.6c-2.5,0-7.2,0.2-8.7,0.2c-1.7,0-5.8-0.2-8.7-0.2c-1,0-1.4,0.1-1.4,0.6s0.4,0.6,1.1,0.6
			c0.8,0,1.6,0.1,2.1,0.2c2.1,0.4,2.6,1.4,2.8,3.6c0.1,2,0.1,3.8,0.1,13.3v11c0,5.8,0,10.7-0.3,13.3c-0.2,1.8-0.6,3.2-1.8,3.4
			c-0.6,0.1-1.3,0.2-2.3,0.2c-0.8,0-1,0.2-1,0.5c0,0.4,0.5,0.6,1.3,0.6c2.5,0,6.6-0.2,8-0.2c5.2,0,9.4,0.4,18.6,0.4
			c3.3,0,3.6-0.3,4-1.7c0.5-1.8,1-6.5,1-7.2C865.2,337.9,865.2,337.6,864.7,337.6 M779.6,321.8c0-15.6,8.4-19.6,15.7-19.6
			c10.5,0,18.7,8.7,18.7,22.7c0,18.1-10.3,20.2-14.8,20.2C786.9,345.2,779.6,334.8,779.6,321.8 M822.9,322.6
			c0-14.3-9.9-23.4-25.8-23.4c-19.2,0-26.4,13.8-26.4,24.5s7.4,24.5,25.7,24.5C812.7,348.3,822.9,336.9,822.9,322.6 M717.6,340.3
			c6.9,5.9,15.7,8.2,26.2,8.2c4.9,0,10.7-0.5,13.7-1.7c1.3-0.5,1.6-0.9,2-2.2c0.8-2.5,1.7-9.1,1.7-10c0-0.6-0.2-1.1-0.7-1.1
			c-0.6,0-0.8,0.3-1,1.5c-0.3,1.4-1.3,3.5-2.6,4.9c-3,3.5-7.2,4.2-14,4.2c-10.2,0-24-8.8-24-26.6c0-7.3,1.5-14.4,7-19.4
			c3.4-3,7.7-4.6,14.3-4.6c7,0,13,2,15.5,4.6c1.9,2,2.9,4.6,3,6.9c0,1,0.2,1.6,0.8,1.6c0.7,0,0.8-0.6,0.9-1.7
			c0.2-1.5,0.1-5.6,0.2-8.1c0.2-2.6,0.4-3.5,0.4-4.1c0-0.5-0.3-0.8-1.2-0.9c-2.3-0.2-4.7-0.9-7.6-1.3c-3.5-0.5-6.3-0.7-11.1-0.7
			c-11.4,0-18.6,3-24.1,7.9c-7.3,6.6-8.9,15.4-8.9,20.5C708.1,325.5,710.1,333.9,717.6,340.3"/>
		<path class="st1" d="M1099.6,327.9h-11.8c-0.3,0-0.3-0.2-0.3-0.4l5.9-15.4c0.1-0.2,0.2-0.6,0.4-0.6s0.2,0.3,0.3,0.6l5.8,15.5
			C1100,327.8,1099.9,327.9,1099.6,327.9 M1121.2,346.3c-0.8,0-1.7-0.1-2.7-0.2c-1.3-0.3-3.2-1.2-5.6-6.8
			c-4.1-9.5-14.3-35.1-15.8-38.5c-0.6-1.4-1-2-1.6-2c-0.6,0-1,0.7-1.8,2.5l-16,39.3c-1.3,3.1-2.5,5.3-5.4,5.6
			c-0.5,0.1-1.4,0.1-2,0.1c-0.5,0-0.8,0.1-0.8,0.5c0,0.5,0.4,0.6,1.2,0.6c3.3,0,6.8-0.2,7.5-0.2c2,0,4.7,0.2,6.8,0.2
			c0.7,0,1.1-0.1,1.1-0.6c0-0.4-0.2-0.5-1-0.5h-1c-2,0-2.6-0.8-2.6-2c0-0.7,0.3-2.2,1-3.8l3.4-9c0.1-0.4,0.2-0.5,0.6-0.5h14.2
			c0.3,0,0.5,0.1,0.6,0.4l5.1,13.3c0.3,0.8-0.1,1.3-0.6,1.4c-0.6,0.1-0.9,0.2-0.9,0.6c0,0.4,0.8,0.4,1.9,0.5
			c5.1,0.1,9.8,0.1,12.1,0.1s2.9-0.1,2.9-0.6C1122,346.4,1121.7,346.3,1121.2,346.3 M1044.6,301.2c0.8,0,1.6,0.1,2.3,0.2
			c1.4,0.3,2,1.4,2.2,3.5c0.1,2,0.1,3.8,0.1,13.3v11c0,6.1,0,11-0.3,13.6c-0.2,1.8-0.6,2.9-1.9,3.1c-0.6,0.1-1.3,0.2-2.3,0.2
			c-0.8,0-1,0.2-1,0.5c0,0.4,0.4,0.6,1.3,0.6c2.6,0,6.6-0.2,8.1-0.2c1.7,0,5.7,0.2,10,0.2c0.7,0,1.2-0.2,1.2-0.6
			c0-0.3-0.3-0.5-1-0.5c-1,0-2.4-0.1-3.3-0.2c-1.9-0.2-2.4-1.4-2.6-3.1c-0.2-2.7-0.2-7.6-0.2-13.7v-11c0-9.5,0-11.3,0.1-13.3
			c0.1-2.2,0.6-3.3,2.4-3.6c0.8-0.1,1.3-0.2,1.9-0.2s1-0.1,1-0.6c0-0.4-0.5-0.5-1.3-0.5c-2.4,0-6.2,0.2-7.8,0.2
			c-1.9,0-5.9-0.2-8.3-0.2c-1,0-1.5,0.1-1.5,0.5C1043.6,301.1,1044,301.2,1044.6,301.2 M1018.7,344.8c-1.5,0-2.9-0.1-4.7-0.8
			c-2-0.8-2.2-1.9-2.2-6v-14.8c0-0.3,0.1-0.4,0.4-0.4c1,0,1.6,0,2.8,0.1c2.5,0.1,4,0.6,5.3,1.5c4.8,3.3,6.2,8.6,6.2,12.5
			C1026.4,343.3,1021.6,344.8,1018.7,344.8 M1011.8,303.8c0-0.7,0.1-0.9,0.6-1.1c0.6-0.1,1.2-0.1,2.1-0.1c5.5,0,8,5.5,8,9.7
			c0,3.1-1,5.3-2.6,6.6c-1.1,0.9-2.5,1.2-4.6,1.2c-1.5,0-2.4-0.1-3-0.2c-0.3-0.1-0.5-0.2-0.5-0.7L1011.8,303.8L1011.8,303.8z
			 M1022.7,320.4c3.5-2.8,6.5-5.8,6.5-11c0-3.3-2-9.4-13.6-9.4c-2.2,0-4.7,0.2-7.8,0.2c-1.3,0-5.3-0.2-8.7-0.2c-1,0-1.4,0.1-1.4,0.6
			s0.4,0.6,1.1,0.6c0.9,0,2,0.1,2.5,0.2c2.1,0.4,2.6,1.4,2.8,3.6c0.1,2,0.1,3.8,0.1,13.3v11c0,5.8,0,10.7-0.3,13.3
			c-0.2,1.8-0.6,3.2-1.8,3.4c-0.6,0.1-1.3,0.2-2.3,0.2c-0.8,0-1,0.2-1,0.5c0,0.4,0.5,0.6,1.3,0.6c2.6,0,6.6-0.2,8-0.2
			c1.9,0,7.7,0.4,9.2,0.4c11.7,0,17-7,17-13.7C1034.3,326.6,1027.9,322.2,1022.7,320.4 M990.6,346.3c-0.8,0-2.1-0.1-4-0.6
			c-1.9-0.6-2.5-2.4-3.1-6.3l-5.8-38.7c-0.2-1.3-0.6-1.9-1.2-1.9s-1,0.5-1.4,1.5L957.8,336l-17.4-35.3c-0.8-1.6-1.2-1.9-1.7-1.9
			s-0.9,0.6-1.1,1.6l-6.3,40.8c-0.3,2.1-0.8,4.6-2.6,5c-1,0.2-1.4,0.2-1.9,0.2c-0.6,0-1,0.1-1,0.4c0,0.6,0.5,0.7,1.2,0.7
			c2,0,5.1-0.2,6.3-0.2c1.1,0,4,0.2,6.7,0.2c1,0,1.5-0.1,1.5-0.7c0-0.3-0.5-0.4-1-0.4c-0.6,0-1.5-0.1-2.7-0.3
			c-1.1-0.2-1.9-0.8-1.9-2c0-1,0.1-1.8,0.2-3l3.3-24.9h0.3c2.2,4.7,6.1,12.6,6.6,13.9c0.8,1.8,5.8,11.3,7.3,14.2
			c1,1.9,1.7,3.1,2.2,3.1s0.9-0.6,2.4-3.5l13.9-28.4h0.3l3.8,27.6c0.2,1.8,0.1,2.6-0.3,2.7c-0.5,0.2-0.7,0.4-0.7,0.7
			c0,0.4,0.4,0.6,1.8,0.7c2.6,0.2,11.4,0.4,13,0.4c0.9,0,1.7-0.2,1.7-0.7C991.6,346.4,991.2,346.3,990.6,346.3 M916.7,324.9v-6.7
			c0-9.5,0-11.3,0.1-13.3c0.1-2.2,0.6-3.3,2.4-3.6c0.8-0.1,1.2-0.2,1.8-0.2c0.8,0,1.2-0.1,1.2-0.6s-0.4-0.6-1.3-0.6
			c-2.5,0-6.5,0.2-7.3,0.2c-0.1,0-4.1-0.2-7.3-0.2c-0.9,0-1.3,0.1-1.3,0.6s0.4,0.6,1.1,0.6s1.8,0.1,2.3,0.2c2.1,0.4,2.6,1.4,2.8,3.6
			c0.1,2,0.1,3.8,0.1,13.3v7.8c0,6.5-0.2,12.1-3.7,15.5c-2.5,2.5-6,3.4-8.8,3.4c-2.2,0-5.1-0.2-8-2.6c-3.1-2.5-5-6.3-5-15.4v-8.8
			c0-9.5,0-11.3,0.1-13.3c0.1-2.2,0.6-3.3,2.4-3.6c0.8-0.1,1.2-0.2,1.8-0.2c0.6,0,1-0.1,1-0.6s-0.5-0.6-1.4-0.6
			c-2.3,0-6.3,0.2-7.8,0.2c-1.9,0-5.9-0.2-9.3-0.2c-1,0-1.4,0.1-1.4,0.6s0.4,0.6,1.1,0.6c0.9,0,2,0.1,2.5,0.2
			c2.1,0.4,2.6,1.4,2.8,3.6c0.1,2,0.1,3.8,0.1,13.3v9.1c0,9.1,2.4,13.7,5.7,16.6c4.7,4.1,10.8,4.3,14.2,4.3c4.2,0,8.8-0.7,13.3-4.5
			C916,339.3,916.7,331.9,916.7,324.9 M864.7,337.6c-0.5,0-0.6,0.4-0.7,0.9c-0.1,1.2-0.9,2.9-1.7,3.8c-1.6,1.7-4.1,1.8-7.5,1.8
			c-5,0-6.6-0.4-7.7-1.4c-1.3-1.1-1.3-5.5-1.3-13.5v-11c0-9.5,0-11.3,0.1-13.3c0.1-2.2,0.6-3.3,2.4-3.6c0.8-0.1,1.8-0.2,2.5-0.2
			c0.8,0,1.1-0.1,1.1-0.6s-0.4-0.6-1.3-0.6c-2.5,0-7.2,0.2-8.7,0.2c-1.7,0-5.8-0.2-8.7-0.2c-1,0-1.4,0.1-1.4,0.6s0.4,0.6,1.1,0.6
			c0.8,0,1.6,0.1,2.1,0.2c2.1,0.4,2.6,1.4,2.8,3.6c0.1,2,0.1,3.8,0.1,13.3v11c0,5.8,0,10.7-0.3,13.3c-0.2,1.8-0.6,3.2-1.8,3.4
			c-0.6,0.1-1.3,0.2-2.3,0.2c-0.8,0-1,0.2-1,0.5c0,0.4,0.5,0.6,1.3,0.6c2.5,0,6.6-0.2,8-0.2c5.2,0,9.4,0.4,18.6,0.4
			c3.3,0,3.6-0.3,4-1.7c0.5-1.8,1-6.5,1-7.2C865.2,337.9,865.2,337.6,864.7,337.6 M779.6,321.8c0-15.6,8.4-19.6,15.7-19.6
			c10.5,0,18.7,8.7,18.7,22.7c0,18.1-10.3,20.2-14.8,20.2C786.9,345.2,779.6,334.8,779.6,321.8 M822.9,322.6
			c0-14.3-9.9-23.4-25.8-23.4c-19.2,0-26.4,13.8-26.4,24.5s7.4,24.5,25.7,24.5C812.7,348.3,822.9,336.9,822.9,322.6 M717.6,340.3
			c6.9,5.9,15.7,8.2,26.2,8.2c4.9,0,10.7-0.5,13.7-1.7c1.3-0.5,1.6-0.9,2-2.2c0.8-2.5,1.7-9.1,1.7-10c0-0.6-0.2-1.1-0.7-1.1
			c-0.6,0-0.8,0.3-1,1.5c-0.3,1.4-1.3,3.5-2.6,4.9c-3,3.5-7.2,4.2-14,4.2c-10.2,0-24-8.8-24-26.6c0-7.3,1.5-14.4,7-19.4
			c3.4-3,7.7-4.6,14.3-4.6c7,0,13,2,15.5,4.6c1.9,2,2.9,4.6,3,6.9c0,1,0.2,1.6,0.8,1.6c0.7,0,0.8-0.6,0.9-1.7
			c0.2-1.5,0.1-5.6,0.2-8.1c0.2-2.6,0.4-3.5,0.4-4.1c0-0.5-0.3-0.8-1.2-0.9c-2.3-0.2-4.7-0.9-7.6-1.3c-3.5-0.5-6.3-0.7-11.1-0.7
			c-11.4,0-18.6,3-24.1,7.9c-7.3,6.6-8.9,15.4-8.9,20.5C708.1,325.5,710.1,333.9,717.6,340.3"/>
		<path class="st1" d="M669.1,315.7c-4.8,8-9.4,15.8-15.2,15.8c-1.7,0-4.6-1.5-3.5-5.8l5.5-5.4c0.4-0.4,0.7-0.9,0.4-1.5l-3.5-7.2
			c-0.2-0.4-0.6-0.4-1,0l-7.3,7.2c-0.4,0.4-0.6,0.9-0.3,1.5l2.3,5.3c-0.9,3.5-3.2,6.1-6.1,5.9c-5.2-0.3-9.5-10.1-3.2-24
			c1.1-2.3,1.5-4.3,1.4-6c12-5.4,27.4-11.1,33.3-3.8C675.4,302,673.8,307.8,669.1,315.7 M618.2,331.4c-2.8,0.2-5.2-2.4-6-5.9
			l2.3-5.3c0.2-0.6,0.1-1.1-0.3-1.5l-7.3-7.2c-0.4-0.4-0.8-0.4-1,0l-3.5,7.2c-0.3,0.6,0,1.1,0.4,1.5l5.5,5.4
			c1.2,4.3-1.8,5.8-3.5,5.8c-5.8,0-10.5-7.8-15.2-15.8c-4.7-7.9-6.3-13.7-2.8-18c5.9-7.3,21.3-1.5,33.3,3.8c-0.1,1.7,0.3,3.6,1.3,6
			C627.7,321.3,623.4,331.1,618.2,331.4 M637.8,296c-0.9,0.3-1.8,0-2.6-0.6c-0.7-0.6-1.4-1-2.1-1.4c2.2-1.3,3.7-3.6,3.7-6.3
			c0-3.7-2.7-6.7-6.3-7.2l2.8-3.5c0.3-0.4,0.3-0.9,0-1.3l-3.4-4.3c-0.1-0.2-0.3-0.2-0.5-0.2s-0.4,0.1-0.5,0.2l-3.4,4.3
			c-0.3,0.4-0.3,0.9,0,1.3l2.7,3.5c-3.6,0.5-6.3,3.6-6.3,7.2c0,2.7,1.5,5,3.7,6.3c-0.7,0.4-1.4,0.9-2.1,1.4
			c-0.8,0.6-1.7,0.9-2.6,0.6c-15.6-4.9-29.3-9.6-37.1-2.1c-9.3,9,1.5,23.5,5,29.5c2.4,4.2,4.1,9.1,4.1,13h73c0-3.9,1.7-8.8,4.1-13
			c3.4-6,14.3-20.5,5-29.5C667.1,286.4,653.4,291.1,637.8,296 M592.8,347.4h73v-5.9h-73V347.4z"/>
	</g>
	<g>
		<path class="st1" d="M1490,315.1c0-0.5,0.3-0.8,0.8-0.8h9.3c0.5,0,0.8,0.3,0.8,0.8v7.7c0,0.5-0.3,0.8-0.8,0.8h-9.3
			c-0.5,0-0.8-0.3-0.8-0.8V315.1z M1490,367.8c0,0.5,0.3,0.8,0.8,0.8h9.3c0.5,0,0.8-0.3,0.8-0.8v-40c0-0.5-0.3-0.8-0.8-0.8h-9.3
			c-0.5,0-0.8,0.3-0.8,0.8V367.8z M1440.6,356.1c0.5,0,0.7,0.2,0.9,0.7l1.2,3.9c-0.9,2-4.8,9-16.8,9c-14.8,0-21-9.7-21-22
			s5.9-22,18.9-22s18.9,10.5,18.9,20l-1.2,3.9c-0.2,0.5-0.4,0.7-0.9,0.7h-24.7c0.5,6.7,3.4,10,9.8,10c5.3,0,7.4-2.9,7.9-3.5
			c0.3-0.4,0.5-0.6,0.9-0.6L1440.6,356.1 M1423.8,335.2c-4.8,0-7.1,3-7.5,7.3h14.9C1430.8,338.2,1428.5,335.2,1423.8,335.2
			 M1514.8,347.7c0-8.9,3.5-12.6,9.9-12.6c4.7,0,6.7,2.9,7.2,3.5c0.3,0.4,0.5,0.6,0.9,0.6h6.1c0.5,0,0.7-0.2,0.9-0.7l1.2-3.9
			c-1.2-2.6-4.7-9-16-9c-14.6,0-21,8.6-21,22s6.4,22,21,22c11.3,0,14.8-6.4,16-9l-1.2-3.9c-0.2-0.5-0.4-0.7-0.9-0.7h-6.1
			c-0.4,0-0.6,0.2-0.9,0.6c-0.5,0.6-2.4,3.5-7.2,3.5C1518.3,360.3,1514.8,356.6,1514.8,347.7 M1544.1,322.9c0,0.5,0.3,0.8,0.8,0.8
			h9.3c0.5,0,0.8-0.3,0.8-0.8v-7.7c0-0.5-0.3-0.8-0.8-0.8h-9.3c-0.5,0-0.8,0.3-0.8,0.8V322.9z M1544.1,367.8c0,0.5,0.3,0.8,0.8,0.8
			h9.3c0.5,0,0.8-0.3,0.8-0.8v-40c0-0.5-0.3-0.8-0.8-0.8h-9.3c-0.5,0-0.8,0.3-0.8,0.8V367.8z M1581.9,325.8c-6,0-9.9,2.4-12.2,5.8
			l-1.2-3.9c-0.2-0.5-0.4-0.7-0.9-0.7h-7.4c-0.5,0-0.8,0.3-0.8,0.8v40.1c0,0.5,0.3,0.8,0.8,0.8h9.3c0.5,0,0.8-0.3,0.8-0.8v-22.5
			c0-7.2,3.8-10,9-10c4.6,0,6.2,3.2,6.2,7.1v25.5c0,0.5,0.3,0.8,0.8,0.8h9.3c0.5,0,0.8-0.3,0.8-0.8v-26.2
			C1596.4,331,1590.7,325.8,1581.9,325.8 M1635.2,356.2c0.5,0,0.7,0.2,0.9,0.7l1.2,3.9c-0.9,2-4.8,9-16.8,9c-14.8,0-21-9.7-21-22
			s5.9-22,18.9-22s18.9,10.5,18.9,20l-1.2,3.9c-0.2,0.5-0.4,0.7-0.9,0.7h-24.7c0.5,6.7,3.4,10,9.8,10c5.3,0,7.5-2.9,7.9-3.5
			c0.3-0.4,0.5-0.6,0.9-0.6L1635.2,356.2 M1618.3,335.2c-4.8,0-7.1,3-7.5,7.3h14.9C1625.4,338.2,1623.1,335.2,1618.3,335.2
			 M1485.2,314.4c0.5,0,0.8,0.3,0.8,0.8v52.6c0,0.5-0.3,0.8-0.8,0.8h-7.4c-0.5,0-0.7-0.2-0.9-0.7l-1.1-3.7c-3,3.3-7.1,5.5-12.4,5.5
			c-12.2,0-18.3-9.7-18.3-22s6.1-22,18.3-22c4.9,0,8.8,1.9,11.7,4.8v-15.4c0-0.5,0.3-0.8,0.8-0.8H1485.2 M1465.7,360.3
			c6.2,0,9.5-4.7,9.5-12.6v0c0-7.8-3.3-12.5-9.5-12.5c-6.6,0-9.5,4.7-9.5,12.6S1459.1,360.3,1465.7,360.3 M1400.4,314.4h-11.1
			c-0.6,0-0.8,0.2-0.9,0.7l-15.8,38.1l-15.8-38.1c-0.2-0.5-0.4-0.7-0.9-0.7h-11.2c-0.5,0-0.8,0.3-0.8,0.8v52.6
			c0,0.5,0.3,0.8,0.8,0.8h8.3c0.5,0,0.7-0.2,0.9-0.7l1.2-3.9v-26.3l12.6,30.2c0.2,0.5,0.4,0.7,0.9,0.7h4.1l0,0h4.1
			c0.6,0,0.8-0.2,0.9-0.7l12.6-30.2v26.2l1.2,3.9c0.2,0.5,0.4,0.7,0.9,0.7h8.3c0.5,0,0.8-0.3,0.8-0.8v-52.6
			C1401.2,314.7,1400.9,314.4,1400.4,314.4"/>
		<path class="st1" d="M1408.4,255.2l-12.3,48.9c-0.1,0.4-0.3,0.7-0.8,0.7H1384c-0.5,0-0.7-0.3-0.8-0.7l-10.8-36.8l-10.8,36.8
			c-0.1,0.4-0.3,0.7-0.8,0.7h-11.3c-0.5,0-0.7-0.3-0.8-0.7l-12.3-48.9l0.6-3.9c0.1-0.5,0.4-0.7,0.9-0.7h8.6c0.5,0,0.7,0.3,0.8,0.7
			l8.2,35.8l10.6-35.8c0.1-0.4,0.3-0.7,0.8-0.7h11c0.5,0,0.7,0.3,0.8,0.7l10.6,35.8l8.2-35.8c0.1-0.4,0.3-0.7,0.8-0.7h8.6
			c0.5,0,0.8,0.2,0.9,0.7L1408.4,255.2L1408.4,255.2z M1503.8,277.7c0,17.7,9.7,28.3,25.8,28.3s21.1-7.9,22.8-13.4l-1.2-3.9
			c-0.2-0.5-0.4-0.7-0.9-0.7h-7.4c-0.5,0-0.6,0.2-0.8,0.6c-0.8,2-3.1,7.2-12.1,7.2c-10,0-14.7-5.7-14.7-18.1s4.7-18.1,14.7-18.1
			c9,0,11.3,5.3,12.1,7.2c0.2,0.4,0.3,0.6,0.8,0.6h7.4c0.5,0,0.7-0.2,0.9-0.7l1.2-3.9c-1.7-5.6-7.5-13.4-22.8-13.4
			C1513.6,249.4,1503.8,260,1503.8,277.7 M1621.9,263.2h-3.7c-4.9,0-8.7,1.5-11.2,4.6l-1.2-3.9c-0.2-0.5-0.4-0.7-0.9-0.7h-7.4
			c-0.5,0-0.8,0.3-0.8,0.8v40c0,0.5,0.3,0.8,0.8,0.8h9.3c0.5,0,0.8-0.3,0.8-0.8v-21c0-7.2,4.2-10,9.4-10h4.9c0.5,0,0.8-0.4,0.8-0.8
			V264C1622.7,263.5,1622.4,263.2,1621.9,263.2 M1648.7,262c-6,0-9.9,2.4-12.2,5.8l-1.2-3.9c-0.2-0.5-0.4-0.7-0.9-0.7h-7.4
			c-0.5,0-0.8,0.3-0.8,0.8v40c0,0.5,0.3,0.8,0.8,0.8h9.3c0.5,0,0.8-0.3,0.8-0.8v-22.5c0-7.2,3.8-10,9-10c4.6,0,6.2,3.2,6.2,7.1V304
			c0,0.5,0.3,0.8,0.8,0.8h9.3c0.5,0,0.8-0.3,0.8-0.8v-26.2C1663.2,267.2,1657.5,262,1648.7,262 M1472.7,251.4c0-0.5-0.3-0.8-0.8-0.8
			h-9.3c-0.5,0-0.8,0.3-0.8,0.8v48.8l1.2,3.9c0.2,0.5,0.4,0.7,0.9,0.7h8c0.5,0,0.8-0.3,0.8-0.8V251.4z M1487.7,251.4
			c0-0.5-0.3-0.8-0.8-0.8h-9.3c-0.5,0-0.8,0.3-0.8,0.8v48.8l1.2,3.9c0.2,0.5,0.4,0.7,0.9,0.7h8c0.5,0,0.8-0.3,0.8-0.8L1487.7,251.4
			L1487.7,251.4z M1733.2,251.4c0-0.5-0.3-0.8-0.8-0.8h-9.3c-0.5,0-0.8,0.3-0.8,0.8v48.8l1.2,3.9c0.2,0.5,0.4,0.7,0.9,0.7h8
			c0.5,0,0.8-0.3,0.8-0.8V251.4z M1718.3,251.4c0-0.5-0.3-0.8-0.8-0.8h-9.3c-0.5,0-0.8,0.3-0.8,0.8v48.8l1.2,3.9
			c0.2,0.5,0.4,0.7,0.9,0.7h8c0.5,0,0.8-0.3,0.8-0.8L1718.3,251.4L1718.3,251.4z M1574.1,262c14.6,0,19.7,9.7,19.7,22
			s-5.1,22-19.7,22s-19.7-9.7-19.7-22S1559.5,262,1574.1,262 M1574.1,296.6c6.2,0,8.7-4.7,8.7-12.6s-2.5-12.6-8.7-12.6
			s-8.7,4.7-8.7,12.6S1567.9,296.6,1574.1,296.6 M1447,304c0,0.5,0.3,0.8,0.8,0.8h9.3c0.5,0,0.8-0.3,0.8-0.8v-40
			c0-0.5-0.3-0.8-0.8-0.8h-9.3c-0.5,0-0.8,0.3-0.8,0.8V304z M1447,259.1c0,0.5,0.3,0.8,0.8,0.8h9.3c0.5,0,0.8-0.3,0.8-0.8v-7.7
			c0-0.5-0.3-0.8-0.8-0.8h-9.3c-0.5,0-0.8,0.3-0.8,0.8V259.1z M1702.3,292.4c0.5,0,0.7,0.2,0.9,0.7l1.2,3.9c-0.9,2-4.8,9-16.8,9
			c-14.8,0-21-9.7-21-22s5.9-22,18.9-22s18.9,10.5,18.9,20l-1.2,3.9c-0.2,0.5-0.4,0.7-0.9,0.7h-24.7c0.5,6.7,3.4,10,9.8,10
			c5.3,0,7.5-2.9,7.9-3.5c0.3-0.4,0.5-0.6,0.9-0.6L1702.3,292.4 M1685.4,271.4c-4.8,0-7.1,3-7.4,7.3h14.9
			C1692.5,274.4,1690.2,271.4,1685.4,271.4 M1441.5,292.4c0.5,0,0.7,0.2,0.9,0.7l1.2,3.9c-0.9,2-4.8,9-16.8,9c-14.8,0-21-9.7-21-22
			s5.9-22,18.9-22s18.9,10.5,18.9,20l-1.2,3.9c-0.2,0.5-0.4,0.7-0.9,0.7h-24.7c0.5,6.7,3.4,10,9.8,10c5.3,0,7.5-2.9,7.9-3.5
			c0.3-0.4,0.5-0.6,0.9-0.6L1441.5,292.4 M1424.6,271.4c-4.8,0-7.1,3-7.4,7.3h14.9C1431.7,274.4,1429.4,271.4,1424.6,271.4"/>
		<path class="st1" d="M1215,338.4c-0.4-0.4-0.7-0.9-1-1.5c-1.1-2.2-0.7-4.3,1.6-5.5c2.3-1.2,4.4-0.4,5.5,2c0.2,0.5,0.4,1.1,0.5,1.7
			l-1.2,0.5c0-0.7-0.1-1.2-0.4-1.7c-0.7-1.4-2.2-1.8-3.6-1.1c-1.4,0.7-2,2.1-1.3,3.5c0.3,0.5,0.7,1.1,1,1.4L1215,338.4L1215,338.4z"
			/>
		<path class="st1" d="M1224.6,339c1.4,2,0.9,4-1,5.3c-1.9,1.3-4,1.2-5.4-0.7c-1.4-2-0.8-4,1.1-5.4
			C1221.1,336.8,1223.2,337,1224.6,339 M1219.1,342.9c0.9,1.3,2.4,1,3.5,0.1c1.1-0.8,1.9-2.1,1-3.3c-0.9-1.2-2.4-1-3.5-0.2
			C1219,340.3,1218.2,341.6,1219.1,342.9"/>
		<path class="st1" d="M1227.7,343.2l1.2,1.2c1.2,1.2,2.6,2.5,1.1,4c-0.6,0.6-1.6,0.7-2.4,0.1l0,0c0.3,0.3,0.1,0.8,0,1.1l-1.3,3
			l-1.2-1.2l1.1-2.3c0.2-0.6,0.3-0.9-0.2-1.3l-0.3-0.4l-2.3,2.2l-1.1-1.1L1227.7,343.2L1227.7,343.2z M1226.5,346.6l0.3,0.4
			c0.5,0.5,1.2,1.1,1.9,0.4c0.7-0.6,0.1-1.3-0.4-1.9l-0.4-0.4L1226.5,346.6z"/>
		<polygon class="st1" points="1232.7,348.1 1234.2,349.2 1233.2,355.6 1233.2,355.6 1236.6,351 1237.8,351.9 1233.2,358 
			1231.7,356.9 1232.8,350.5 1232.8,350.5 1229.4,355.1 1228.2,354.3 		"/>
		<polygon class="st1" points="1239.5,352.8 1243.5,354.9 1242.9,356 1240.3,354.6 1239.4,356.3 1241.8,357.6 1241.3,358.6 
			1238.8,357.4 1237.8,359.3 1240.5,360.7 1239.9,361.7 1235.9,359.6 		"/>
		<polygon class="st1" points="1245.1,355.6 1246.6,356.2 1244.3,362.2 1247.1,363.3 1246.6,364.4 1242.4,362.8 		"/>
		<polygon class="st1" points="1208.9,326.9 1208.6,325.2 1214.5,322.5 1214.5,322.5 1208,322.4 1207.6,320.3 1213.5,317.6 
			1213.5,317.6 1207,317.4 1206.7,315.9 1214.9,316.4 1215.3,318.4 1209.3,321 1209.3,321.1 1215.9,321.2 1216.3,323.2 		"/>
		<polygon class="st1" points="1206.7,313.5 1206.6,308.8 1207.8,308.8 1207.9,311.9 1209.9,311.9 1209.8,309 1211.1,309 
			1211.1,311.8 1213.3,311.8 1213.3,308.6 1214.5,308.6 1214.6,313.3 		"/>
		<polygon class="st1" points="1206.7,306.6 1214.6,307.2 1214.8,305.6 1206.8,305 		"/>
		<polygon class="st1" points="1207,302.7 1207.3,301.1 1213.9,302.2 1214.4,299.1 1215.6,299.3 1214.9,304 		"/>
		<polygon class="st1" points="1208.2,296.3 1208.6,294.8 1215.1,296.5 1215.9,293.6 1217.1,293.9 1215.9,298.4 		"/>
		<path class="st1" d="M1221.1,284.9c-0.1,0.6-0.3,1.2-0.6,1.7c-1.1,2.3-3.1,3.3-5.5,2.1c-2.4-1.2-3.1-3.4-1.9-5.8
			c0.2-0.5,0.6-1,1.1-1.5l1.2,0.7c-0.6,0.4-0.9,0.8-1.1,1.4c-0.7,1.5-0.1,2.9,1.4,3.7c1.4,0.7,3,0.4,3.7-1.1
			c0.3-0.6,0.5-1.3,0.5-1.7L1221.1,284.9L1221.1,284.9z"/>
		<path class="st1" d="M1217.2,276.4c1.5-2,3.6-2.2,5.6-0.8c1.9,1.4,2.6,3.5,1.1,5.6c-1.5,2.1-3.7,2.2-5.6,0.8
			C1216.3,280.5,1215.7,278.5,1217.2,276.4 M1222.9,280.5c0.9-1.3,0.1-2.7-1-3.5c-1.1-0.8-2.7-1.1-3.6,0.1c-0.9,1.3-0.1,2.6,1,3.5
			C1220.4,281.4,1221.9,281.8,1222.9,280.5"/>
		<path class="st1" d="M1221.3,271.4l1.2-1.2c1.2-1.2,2.6-2.7,4.2-1.1c0.7,0.7,0.8,1.6,0.2,2.5h0c0.3-0.3,0.8-0.1,1.2,0l3.1,1.3
			l-1.2,1.3l-2.4-1.1c-0.6-0.2-0.9-0.3-1.3,0.2l-0.4,0.4l2.3,2.3l-1.1,1.1L1221.3,271.4L1221.3,271.4z M1224.8,272.7l0.4-0.4
			c0.6-0.6,1.1-1.3,0.4-2c-0.7-0.7-1.4-0.1-1.9,0.5l-0.4,0.4L1224.8,272.7L1224.8,272.7z"/>
		<polygon class="st1" points="1227.2,265.8 1228.7,264.6 1234.7,267.6 1234.7,267.6 1231.2,262.8 1232.4,261.9 1237.1,268.3 
			1235.6,269.4 1229.6,266.5 1229.6,266.5 1233.1,271.2 1231.9,272.1 		"/>
		<polygon class="st1" points="1234.9,260.4 1239,258.2 1239.6,259.3 1236.9,260.7 1237.8,262.5 1240.3,261.1 1240.9,262.2 
			1238.4,263.6 1239.5,265.5 1242.2,264.1 1242.8,265.2 1238.6,267.4 		"/>
		<polygon class="st1" points="1241.3,257.1 1242.8,256.6 1245.2,262.8 1248.1,261.7 1248.6,262.8 1244.2,264.5 		"/>
		<path class="st1" d="M1263.9,356.6c-25.8,0-46.9-21-46.9-46.9s21-46.9,46.9-46.9s46.9,21,46.9,46.9S1289.7,356.6,1263.9,356.6
			 M1263.9,265.7c-24.2,0-44,19.8-44,44s19.7,44,44,44s44-19.7,44-44S1288.1,265.7,1263.9,265.7"/>
		<polygon class="st1" points="1250.5,357.6 1252,357.9 1250.4,364.2 1253.3,364.9 1253,366.1 1248.6,365 		"/>
		<path class="st1" d="M1259.1,359.3l1.5,0.1l-0.2,4.4c-0.1,1.3,0.3,2.2,1.5,2.2c1.2,0,1.6-0.8,1.7-2.1l0.2-4.4l1.5,0l-0.2,4.9
			c-0.1,2-1.3,2.9-3.2,2.8c-2-0.1-3.1-1-3-3L1259.1,359.3L1259.1,359.3z"/>
		<polygon class="st1" points="1267.3,359.5 1269.2,359.2 1272.8,364.5 1272.8,364.5 1272.1,358.9 1273.6,358.7 1274.5,366.3 
			1272.7,366.5 1269,361.2 1269,361.2 1269.8,366.9 1268.3,367.1 		"/>
		<polygon class="st1" points="1275.3,358.2 1276.8,357.8 1278.6,365.2 1277.1,365.6 		"/>
		<polygon class="st1" points="1277.8,357.7 1279.4,357.1 1283.3,362 1283.3,362 1283,355.7 1284.5,355.2 1284.7,363.3 
			1282.9,363.9 		"/>
		<polygon class="st1" points="1285.6,354.6 1289.6,352.4 1290.1,353.5 1287.5,354.9 1288.4,356.5 1290.8,355.2 1291.4,356.3 
			1289,357.6 1290,359.5 1292.7,358 1293.2,359.1 1289.2,361.3 		"/>
		<path class="st1" d="M1290.9,351.5l1.3-1c1.3-1,2.9-2.2,4.1-0.5c0.5,0.7,0.5,1.7-0.2,2.4v0c0.4-0.2,0.8,0,1.1,0.1l2.8,1.7l-1.4,1
			l-2.2-1.4c-0.5-0.3-0.8-0.4-1.3,0l-0.4,0.3l1.9,2.6l-1.2,0.9L1290.9,351.5L1290.9,351.5z M1294.1,353.2l0.4-0.3
			c0.6-0.4,1.2-1,0.7-1.8c-0.6-0.7-1.3-0.3-1.9,0.1l-0.4,0.3L1294.1,353.2z"/>
		<path class="st1" d="M1300.4,345.4c-0.5,0.2-1,0.5-1.3,0.9c-0.4,0.4-0.7,1-0.1,1.6c0.9,1,2.9-1.8,4.7,0.1c1.2,1.2,0.7,2.6-0.4,3.7
			c-0.6,0.6-0.9,0.8-1.6,1.2l-0.9-1.1c0.6-0.2,1.1-0.4,1.6-0.9c0.4-0.4,0.8-1.2,0.3-1.7c-1-1-3,1.7-4.8-0.1
			c-1.2-1.2-0.7-2.6,0.3-3.5c0.5-0.5,1-0.8,1.5-1.1L1300.4,345.4L1300.4,345.4z"/>
		<polygon class="st1" points="1300.8,342.8 1301.8,341.7 1307.6,346.6 1306.7,347.8 		"/>
		<polygon class="st1" points="1304.8,339.8 1303.5,341.6 1302.5,340.9 1305.9,336 1306.9,336.7 1305.6,338.5 1310.9,342.2 
			1310.1,343.5 		"/>
		<polygon class="st1" points="1311.5,335.3 1306.2,335.7 1306.9,334.1 1310.6,333.9 1308.6,330.8 1309.3,329.4 1312.2,333.9 
			1314.9,335.3 1314.2,336.6 		"/>
		<polygon class="st1" points="1247.5,254.9 1249.1,254.5 1250.8,261 1253.7,260.2 1254.1,261.4 1249.5,262.6 		"/>
		<polygon class="st1" points="1257.9,252.7 1260.4,252.6 1262.5,258.6 1262.5,258.6 1264.2,252.5 1266.8,252.5 1267,260.4 
			1265.4,260.5 1265.3,253.9 1265.2,253.9 1263.3,260.5 1261.8,260.5 1259.4,254.1 1259.4,254.1 1259.6,260.6 1258.1,260.6 		"/>
		<polygon class="st1" points="1269.8,252.8 1274.5,253.5 1274.3,254.7 1271.3,254.3 1271,256.2 1273.8,256.6 1273.6,257.9 
			1270.8,257.5 1270.5,259.7 1273.6,260.1 1273.4,261.4 1268.7,260.7 		"/>
		<path class="st1" d="M1277.2,254.1l2.1,0.6c2.3,0.7,4.2,2.1,3.3,5.1c-0.9,3-3.2,3.2-5.5,2.5l-2.1-0.6L1277.2,254.1L1277.2,254.1z
			 M1276.8,260.9l0.8,0.2c1.3,0.4,2.8-0.2,3.3-1.9c0.5-1.7-0.5-3-1.7-3.4l-0.8-0.2L1276.8,260.9L1276.8,260.9z"/>
		<polygon class="st1" points="1285.7,256.9 1287.1,257.5 1284,264.8 1282.5,264.2 		"/>
		<path class="st1" d="M1290.7,268.2c-0.6-0.2-1.2-0.4-1.7-0.7c-2.2-1.2-3.2-3.2-1.9-5.6c1.3-2.4,3.5-2.9,5.9-1.6
			c0.5,0.3,1,0.7,1.4,1.2l-0.8,1.1c-0.4-0.6-0.8-0.9-1.3-1.2c-1.4-0.8-2.9-0.2-3.7,1.2c-0.8,1.4-0.5,3,1,3.8
			c0.5,0.3,1.3,0.5,1.7,0.5L1290.7,268.2L1290.7,268.2z"/>
		<path class="st1" d="M1298.2,264l1.4,1.1l-2.4,8.2l-1.4-1.1l0.6-1.9l-2.5-2l-1.7,1l-1.3-1L1298.2,264L1298.2,264z M1297.9,265.8
			L1297.9,265.8l-2.9,1.9l1.8,1.4L1297.9,265.8L1297.9,265.8z"/>
		<polygon class="st1" points="1303.5,268.5 1304.6,269.6 1299.8,274.3 1302,276.5 1301.1,277.4 1297.8,274 		"/>
		<path class="st1" d="M1306.9,285.4c-0.4-0.4-0.9-0.9-1.2-1.4c-1.4-2.1-1.3-4.3,0.9-5.8c2.3-1.5,4.5-1,5.9,1.3
			c0.3,0.4,0.6,1.1,0.7,1.7l-1.2,0.6c0-0.7-0.3-1.2-0.6-1.7c-0.9-1.4-2.5-1.5-3.9-0.6c-1.3,0.9-1.8,2.4-0.9,3.8
			c0.3,0.5,0.9,1.1,1.2,1.3L1306.9,285.4L1306.9,285.4z"/>
		<path class="st1" d="M1316.2,286.2c1,2.3,0.1,4.2-2.1,5.2c-2.2,1-4.3,0.4-5.4-1.9c-1-2.3-0.1-4.2,2.2-5.2
			C1313.1,283.4,1315.1,283.9,1316.2,286.2 M1309.8,289.1c0.7,1.5,2.2,1.4,3.5,0.9c1.3-0.6,2.3-1.8,1.7-3.2
			c-0.7-1.4-2.2-1.4-3.5-0.9C1310.2,286.4,1309.2,287.6,1309.8,289.1"/>
		<polygon class="st1" points="1318.4,292.3 1318.8,293.8 1312.4,295.7 1313.2,298.6 1312,299 1310.8,294.5 		"/>
		<polygon class="st1" points="1320,298.7 1320.3,300.2 1313.7,301.3 1314.2,304.4 1312.9,304.5 1312.2,299.9 		"/>
		<polygon class="st1" points="1321,305.2 1321.1,309.9 1319.9,310 1319.8,306.9 1317.8,306.9 1317.9,309.8 1316.7,309.8 
			1316.6,307 1314.3,307.1 1314.5,310.2 1313.2,310.2 1313,305.5 		"/>
		<path class="st1" d="M1318.9,318.6c0.3-0.6,0.6-1.4,0.6-2c0.2-1.9-0.9-3-2.6-3.1c-1.6-0.2-2.9,0.7-3.1,2.4c-0.1,0.4,0,0.8,0,1
			l2.1,0.2l0.2-1.7l1.2,0.1l-0.3,3.2l-4.3-0.5c-0.1-0.9-0.2-1.8-0.1-2.6c0.3-2.6,1.7-4.2,4.4-3.9c2.7,0.3,4.1,2.1,3.8,4.8
			c-0.1,0.9-0.3,1.6-0.6,2.3L1318.9,318.6L1318.9,318.6z"/>
		<polygon class="st1" points="1319.9,321.9 1318.7,326.4 1317.5,326.1 1318.3,323.1 1316.4,322.6 1315.7,325.4 1314.5,325 
			1315.2,322.3 1313,321.8 1312.2,324.8 1311,324.5 1312.2,319.9 		"/>
		<path class="st1" d="M1263.9,372.6c-34.7,0-62.9-28.2-62.9-62.9s28.2-62.9,62.9-62.9s62.9,28.2,62.9,62.9
			S1298.5,372.6,1263.9,372.6 M1263.9,249.7c-33.1,0-60,26.9-60,60s26.9,60,60,60s60-26.9,60-60S1296.9,249.7,1263.9,249.7"/>
		<path class="st1" d="M1252.3,330.1l0-1.5c0.5,0,1.9,0,3.1-0.1l0.6,0c0.6,0,1.2-0.1,2-0.2l1.2-0.1c0.3,0,0.5,0,0.8,0l0,1.5
			c-0.2,0-0.4,0-0.6,0l-1.2,0.1c-0.8,0.1-1.5,0.2-2.1,0.2h-0.6C1254.3,330.1,1252.8,330.1,1252.3,330.1"/>
		<path class="st1" d="M1252.3,325.4l0-1.5c0.5,0,1.9,0,3.1-0.1h0.6c0.6,0,1.2-0.1,1.9-0.2c0.4,0,0.8-0.1,1.3-0.1c0.3,0,0.5,0,0.8,0
			l0,1.5c-0.2,0-0.4,0-0.6,0c-0.5,0-0.9,0.1-1.3,0.1c-0.8,0.1-1.4,0.1-2,0.2h-0.6C1254.3,325.4,1252.8,325.5,1252.3,325.4"/>
		<path class="st1" d="M1252.3,320.8l0-1.5c0.3,0,1.1,0,1.9,0l1.7,0c0.6,0,1.2-0.1,2-0.2l1.2-0.1c0.3,0,0.6,0,0.8,0l-0.1,1.5
			c-0.2,0-0.4,0-0.6,0l-1.1,0.1c-0.8,0.1-1.5,0.2-2.1,0.2l-1.7,0C1253.4,320.7,1252.7,320.8,1252.3,320.8"/>
		<path class="st1" d="M1252.3,316.1l0-1.5l3.7-0.1c0.6,0,1.2-0.1,1.9-0.2l1.2-0.1c0.3,0,0.5-0.1,0.8,0l0,1.5c-0.2,0-0.4,0-0.6,0
			l-1.2,0.1c-0.8,0.1-1.5,0.2-2.1,0.2L1252.3,316.1L1252.3,316.1z"/>
		<path class="st1" d="M1275.3,330.1c-0.5,0-1.9,0-3.1-0.1h-0.6c-0.6,0-1.3-0.1-2.1-0.2l-1.2-0.1c-0.2,0-0.4,0-0.6,0l0-1.5
			c0.2,0,0.5,0,0.8,0l1.2,0.1c0.8,0.1,1.4,0.1,2,0.2l0.6,0c1.1,0,2.6,0.1,3.1,0.1L1275.3,330.1"/>
		<path class="st1" d="M1275.3,325.4c-0.5,0-1.9,0-3.1-0.1h-0.6c-0.6,0-1.2-0.1-2-0.2c-0.4,0-0.8-0.1-1.3-0.1c-0.2,0-0.4,0-0.6,0
			l0-1.5c0.2,0,0.5,0,0.8,0c0.5,0,0.9,0.1,1.3,0.1c0.7,0.1,1.3,0.1,1.9,0.2h0.6c1.1,0,2.6,0.1,3.1,0.1L1275.3,325.4"/>
		<path class="st1" d="M1275.3,320.8c-0.3,0-1.1,0-1.9,0l-1.7,0c-0.6,0-1.3-0.1-2.1-0.2l-1.1-0.1c-0.2,0-0.4,0-0.6,0l-0.1-1.5
			c0.2,0,0.5,0,0.8,0l1.2,0.1c0.8,0.1,1.4,0.2,2,0.2l1.7,0c0.8,0,1.6,0,1.9,0L1275.3,320.8"/>
		<path class="st1" d="M1271.6,316c-0.6,0-1.3-0.1-2.1-0.2l-1.2-0.1c-0.2,0-0.4,0-0.6,0l0-1.5c0.2,0,0.5,0,0.8,0l1.2,0.1
			c0.7,0.1,1.4,0.1,1.9,0.2l3.7,0.1l0,1.5L1271.6,316L1271.6,316z"/>
		<path class="st1" d="M1258.8,283.9v-1.2H1242v1.2c0,3,0,9.9,0,10.2c0.1,1.3,0.9,2.4,2.6,3.5c2,1.3,5,3.1,5.2,3.2l0.6,0.3l0.6-0.3
			c0,0,3.4-1.8,5.5-3.2c1.6-1.1,2.4-2.2,2.4-3.5C1258.8,293.8,1258.8,290.1,1258.8,283.9 M1256.5,285v3.1h-12.2V285H1256.5z
			 M1256.5,294c0,0.5-0.5,1-1.4,1.6c-1.3,0.9-3.2,2-4.6,2.7l-0.2,0.1l-0.1-0.1c-0.6-0.4-2.8-1.7-4.4-2.7c-0.9-0.6-1.5-1.2-1.6-1.7
			c0-0.2,0-1.4,0-3v-0.5h12.2v0C1256.5,291.7,1256.5,293.7,1256.5,294"/>
		<path class="st1" d="M1286,283.9v-1.2h-16.9v1.2c0,3,0,9.9,0,10.2c0.1,1.3,0.9,2.4,2.6,3.5c2,1.3,5,3.1,5.2,3.2l0.6,0.3l0.6-0.3
			c0,0,3.4-1.8,5.5-3.2c1.6-1.1,2.4-2.2,2.4-3.5C1286,293.8,1286,290.1,1286,283.9 M1271.5,285h12.2v1.8l0,0v3.4l-6.1-4.5l0,0l0,0
			l-6.1,4.4L1271.5,285L1271.5,285z M1283.7,294c0,0.5-0.5,1-1.4,1.6c-1.3,0.9-3.2,2-4.6,2.7l-0.2,0.1l-0.1-0.1
			c-0.6-0.4-2.8-1.7-4.4-2.7c-0.9-0.6-1.4-1.2-1.5-1.6h0v-1l6.1-4.4l6.2,4.5L1283.7,294L1283.7,294L1283.7,294z"/>
		<path class="st1" d="M1293.7,277.4h-59.6v40.1c0,22.3,28.1,35.6,29.3,36l0.6,0.3l0.6-0.3c1.2-0.5,29.2-14,29.2-35.3L1293.7,277.4
			L1293.7,277.4z M1237,280.3h53.8v22.2H1237V280.3z M1262,311c0.2,0.1,0.5,0.1,0.7,0.3v22.3l-0.1,0c-0.5-0.2-1-0.3-1.6-0.3
			c-1.7,0-3,0.1-4.3,0.2c-1.4,0.1-2.7,0.2-4.8,0.3c-0.4,0-0.8,0-1.2,0c-0.4,0-0.7,0-1.1,0h-0.3v-22.2h0.8c0.8,0,1.7,0,2.7,0
			c1.1,0,2.4-0.2,3.7-0.3c0.8-0.1,1.6-0.2,2.5-0.2c0.3,0,0.7-0.1,1-0.1C1261.1,310.8,1261.9,310.9,1262,311L1262,311L1262,311
			L1262,311z M1265.1,311.2c0.2-0.1,0.4-0.2,0.7-0.3c0,0,0.8-0.2,1.9-0.2c0.4,0,0.7,0,1,0.1c0.9,0.1,1.7,0.2,2.4,0.2h0.1
			c1.3,0.2,2.6,0.3,3.7,0.3c1,0,1.9,0,2.7,0h0.6l0.3,0v22.2h-0.3c-0.3,0-0.6,0-1,0s-0.8,0-1.2,0c-2,0-3.4-0.2-4.7-0.3
			c-1.4-0.1-2.7-0.2-4.4-0.2h0c-0.6,0-1.1,0.1-1.6,0.3l-0.1,0.1L1265.1,311.2L1265.1,311.2z M1237,317.4v-12h25.7l0,3.3l-0.2,0
			c0,0-1-0.2-2.3-0.2c-0.4,0-0.8,0-1.2,0.1c-0.9,0.1-1.7,0.2-2.4,0.2l-0.2,0c-1.3,0.1-2.4,0.3-3.4,0.3c-0.9,0-1.8,0-2.4,0h-0.7
			c-0.6,0-1.1,0-1.5,0l-1.1,0v4.2h-2.9v2.3h2.9v5.3h-2.9v2.3h2.9v5.3h-2.9v2.3h2.9v5l1.1,0c0.1,0,1.7,0.1,3.8,0
			c2.1,0,3.6-0.2,4.9-0.3c1.4-0.1,2.5-0.2,4.1-0.2c0.7,0,0.9,0.2,1.2,0.6c0.1,0.1,0.2,0.3,0.4,0.5l0,13.3
			C1256.6,346.7,1237,334.7,1237,317.4 M1265.1,349.9l0-13.4c0.1-0.1,0.2-0.2,0.4-0.4c0.4-0.4,0.6-0.7,1.3-0.7
			c1.7,0,2.8,0.1,4.2,0.2c1.3,0.1,2.8,0.3,4.9,0.3c2,0,3.6,0,3.8,0l1.1,0v-5h2.9v-2.3h-2.9v-5.3h2.9V321h-2.9v-5.3h2.9v-2.3h-2.9
			v-4.2l-1.1,0c-0.4,0-0.9,0-1.5,0h-0.3c-0.8,0-1.7,0-2.8,0c-1,0-2.1-0.1-3.5-0.3h-0.1c-0.8-0.1-1.6-0.2-2.4-0.2
			c-0.4,0-0.8-0.1-1.3-0.1c-1.4,0-2.3,0.2-2.4,0.2c0,0-0.1,0-0.1,0l-0.1,0l0-3.4h25.7v12.8C1290.8,334.7,1271.2,346.7,1265.1,349.9"
			/>
	</g>
</g>
</svg>
