<?xml version="1.0" encoding="UTF-8" standalone="no"?>
<!-- Generator: Adobe Illustrator 26.5.1, SVG Export Plug-In . SVG Version: 6.00 Build 0)  -->

<svg
   version="1.1"
   id="Layer_1"
   x="0px"
   y="0px"
   viewBox="0 0 363.5 147.50001"
   xml:space="preserve"
   width="363.5"
   height="147.5"
   xmlns="http://www.w3.org/2000/svg"
   xmlns:svg="http://www.w3.org/2000/svg"><defs
   id="defs67" />
<style
   type="text/css"
   id="style2">
	.st0{fill:#41273B;}
	.st1{fill:url(#SVGID_1_);}
	.st2{fill:url(#SVGID_00000150790388222788337810000003317578276551177349_);}
	.st3{fill:#FFFFFF;}
	.st4{fill:#41273B;stroke:#41273B;stroke-width:0.75;stroke-miterlimit:10;}
</style>
<path
   class="st0"
   d="m 242.9,49.2 5.4,5.4 c -3.5,2.5 -6.1,3.4 -9.5,3.4 -1.5,0 -2.8,-0.2 -3.8,-0.7 2.3,2.8 3.4,6 3.4,9.6 0,6.3 -3.2,12.2 -8.4,15.5 -2.8,1.8 -6.4,2.5 -10.5,2.5 -7.6,2.7 -10.2,4.6 -10.2,6.6 0,1.7 1.7,2.7 4.5,2.7 h 9 c 6.6,0 10.2,0.8 13.6,3.2 4.4,3.1 6.2,7 6.2,11.9 0,12.2 -8.7,17.7 -22.4,17.7 -17.6,0 -24.4,-6.3 -24.4,-14.3 0,-2 0.3,-3.7 1.1,-6 l 9.3,-0.8 c -0.8,1.2 -1.6,3.3 -1.6,5.1 0,2.9 1.2,5.3 3.3,6.6 2.7,1.6 6.9,2.6 11.4,2.6 8.7,0 13.7,-2.8 13.7,-9.8 0,-3.1 -1,-5.4 -3.1,-6.8 -2.1,-1.5 -5.5,-2 -11.1,-2 -2.3,0 -6.9,0.1 -8.7,0.1 -6.7,0 -10.6,-3.1 -10.6,-8.1 0,-4.5 2.5,-7.2 10.2,-9.6 -7.6,-2.4 -12.7,-8.8 -12.7,-16.3 0,-11.3 8.5,-19 20.8,-19 8.6,0 10.3,3.2 17.2,3.2 3.1,-0.2 5.3,-0.9 7.9,-2.7 z M 217.7,56 c -7,0 -10.6,3.6 -10.6,11.4 0,7.2 3.7,11 10.9,11 7.2,0 10.2,-3.7 10.2,-11.3 0,-7.6 -3,-11.1 -10.5,-11.1 z"
   id="path4"
   clip-path="none" />
<path
   class="st0"
   d="m 288,94.6 3.4,5.7 c -5,4.5 -11.8,7 -19,7 -15.6,0 -25,-11.3 -25,-29.9 0,-9.5 2,-15.6 6.8,-21.2 4.5,-5.3 10.1,-7.8 16.8,-7.8 6.1,0 11.4,2.2 15.3,6.1 4.9,5 6.2,10.3 6.4,23.7 v 1.2 h -35.1 v 1.4 c 0,5.3 0.7,9.4 2.6,12.3 3.2,4.9 8.4,6.9 14,6.9 5.6,0 9.9,-1.8 13.8,-5.4 z m -30.4,-22 h 25.8 c -0.1,-6.1 -0.9,-9.8 -2.6,-12.5 -1.9,-3 -5.9,-5 -10.2,-5 -8,0 -12.5,5.9 -13,17.5 z"
   id="path6"
   clip-path="none" />
<path
   class="st0"
   d="m 296.1,50.3 8.8,-1.9 c 0,0 2,4.2 2,8.8 5.9,-5.9 11.8,-8.7 17.7,-8.7 5.9,0 11.5,3.3 13.8,8.2 0.9,2 1.4,4.3 1.4,6.6 V 106 h -8.9 V 67.9 c 0,-6 -0.5,-7.5 -2,-9.4 -1.2,-1.5 -3.6,-2.4 -6.2,-2.4 -4.5,0 -11.5,3.6 -15.6,7.9 v 42 h -8.6 V 62.6 c -0.1,-8.1 -2.4,-12.3 -2.4,-12.3 z"
   id="path8"
   clip-path="none" />
<path
   class="st0"
   d="M 260.6,135.7 V 128 c 0,-0.7 -0.1,-1.2 -0.4,-1.4 -0.2,-0.2 -0.6,-0.4 -1.1,-0.4 -0.4,0 -0.9,0.1 -1.4,0.4 -0.5,0.2 -0.9,0.6 -1.4,1 v 8.2 H 254 v -13.5 c 0,-0.5 0,-1 -0.1,-1.4 -0.1,-0.4 -0.1,-0.8 -0.2,-1.1 l 2.5,-0.5 c 0.1,0.3 0.1,0.7 0.2,1.2 0.1,0.5 0.1,0.9 0.1,1.5 v 2.4 c 0,0.3 0,0.6 0,0.8 0,0.2 0,0.4 0,0.4 1.1,-1 2.2,-1.5 3.5,-1.5 0.7,0 1.2,0.1 1.7,0.4 0.5,0.3 0.8,0.6 1,1 0.1,0.3 0.2,0.6 0.3,0.9 0.1,0.3 0.1,0.8 0.1,1.3 v 8 z"
   id="path10"
   clip-path="none" />
<path
   class="st0"
   d="m 269.1,130.7 v 0.2 c 0,0.4 0,0.8 0.1,1.2 0.1,0.4 0.2,0.7 0.5,1 0.3,0.3 0.5,0.6 0.9,0.7 0.4,0.2 0.8,0.3 1.4,0.3 1,0 2,-0.4 2.8,-1.1 l 1,1.5 c -1.2,1 -2.5,1.5 -4.1,1.5 -0.8,0 -1.5,-0.1 -2.2,-0.4 -0.6,-0.3 -1.2,-0.7 -1.6,-1.2 -0.4,-0.5 -0.8,-1.1 -1,-1.9 -0.2,-0.7 -0.4,-1.6 -0.4,-2.5 0,-1 0.1,-1.9 0.3,-2.6 0.2,-0.7 0.6,-1.3 1.1,-1.9 0.5,-0.5 1,-0.9 1.5,-1.2 0.6,-0.2 1.2,-0.4 1.9,-0.4 0.6,0 1.1,0.1 1.6,0.3 0.5,0.2 1,0.5 1.5,0.9 0.5,0.4 0.9,1.1 1.1,1.8 0.2,0.7 0.4,1.8 0.4,3.1 v 0.5 z m 4.2,-1.9 c 0,-0.9 -0.2,-1.7 -0.5,-2.2 -0.3,-0.5 -0.9,-0.8 -1.5,-0.8 -0.7,0 -1.2,0.3 -1.6,0.8 -0.4,0.5 -0.5,1.2 -0.5,2.2 z"
   id="path12"
   clip-path="none" />
<path
   class="st0"
   d="m 287.5,136.1 c -0.3,-0.1 -0.6,-0.3 -0.9,-0.6 -0.3,-0.3 -0.5,-0.6 -0.6,-0.9 -0.5,0.5 -1,0.9 -1.5,1.1 -0.5,0.2 -1.1,0.3 -1.7,0.3 -1.3,0 -2.3,-0.3 -2.9,-1 -0.6,-0.7 -0.9,-1.5 -0.9,-2.4 0,-1.3 0.5,-2.3 1.4,-3 0.9,-0.7 2.4,-1 4.2,-1 h 0.8 V 128 c 0,-0.7 -0.1,-1.2 -0.3,-1.5 -0.2,-0.3 -0.6,-0.5 -1.3,-0.5 -0.4,0 -0.7,0.1 -1.1,0.2 -0.4,0.1 -0.7,0.2 -1,0.4 -0.3,0.2 -0.6,0.3 -0.8,0.4 l -0.5,0.3 -1.1,-1.8 c 0.9,-0.5 1.7,-0.9 2.4,-1.2 0.8,-0.2 1.6,-0.4 2.4,-0.4 1.8,0 3,0.6 3.5,1.9 0,0.1 0.1,0.2 0.1,0.4 0,0.2 0,0.3 0.1,0.5 0,0.2 0,0.5 0,0.8 v 1.1 3.3 c 0,0.4 0,0.7 0,1 0,0.3 0.1,0.5 0.1,0.7 0.1,0.2 0.2,0.4 0.3,0.5 0.1,0.1 0.3,0.3 0.5,0.4 z m -2.1,-5.8 c 0,0 -0.1,0 -0.2,0 -0.1,0 -0.2,0 -0.3,0 -0.6,0 -1.1,0.1 -1.5,0.1 -0.4,0 -0.7,0.2 -1,0.4 -0.3,0.2 -0.4,0.4 -0.5,0.7 -0.1,0.3 -0.2,0.6 -0.2,0.9 0,0.5 0.1,1 0.4,1.3 0.3,0.3 0.7,0.5 1.2,0.5 0.4,0 0.8,-0.1 1.1,-0.3 0.3,-0.2 0.7,-0.5 0.9,-0.9 z"
   id="path14"
   clip-path="none" />
<path
   class="st0"
   d="m 296.2,135.6 c -0.5,0.2 -0.9,0.3 -1.5,0.3 -0.6,0 -1.1,-0.1 -1.5,-0.4 -0.3,-0.2 -0.6,-0.5 -0.7,-0.9 -0.2,-0.3 -0.2,-0.7 -0.3,-1.1 -0.1,-0.4 0,-0.7 0,-0.9 V 123 c 0,-0.4 0,-0.7 0,-1 0,-0.3 0,-0.6 0,-0.8 0,-0.2 0,-0.5 -0.1,-0.7 0,-0.2 -0.1,-0.5 -0.1,-0.7 l 2.5,-0.6 c 0.1,0.3 0.1,0.8 0.2,1.3 0.1,0.5 0,1.1 0,1.9 v 9.6 c 0,0.4 0,0.7 0,0.9 0,0.2 0,0.4 0,0.6 0,0.1 0,0.2 0.1,0.3 0,0.1 0.1,0.1 0.1,0.2 0.1,0.1 0.2,0.2 0.4,0.2 0.2,0 0.3,0 0.5,0 z"
   id="path16"
   clip-path="none" />
<path
   class="st0"
   d="m 305.5,135.5 c -0.7,0.3 -1.5,0.5 -2.2,0.5 -0.5,0 -1,-0.1 -1.4,-0.2 -0.4,-0.1 -0.7,-0.4 -0.9,-0.6 -0.2,-0.2 -0.4,-0.6 -0.5,-0.9 -0.1,-0.4 -0.2,-0.7 -0.2,-1.1 v -7 H 299 v -1.7 h 1.3 c 0,-0.5 0,-1 0,-1.4 0,-0.5 0,-1 0.1,-1.4 l 2.5,-0.6 c -0.1,0.5 -0.1,1 -0.1,1.6 0,0.6 -0.1,1.2 -0.1,1.8 h 2.7 l -0.6,1.7 h -2.1 v 6.4 c 0,0.7 0.1,1.2 0.3,1.4 0.2,0.2 0.6,0.4 1.1,0.4 0.3,0 0.6,-0.1 1.1,-0.2 z"
   id="path18"
   clip-path="none" />
<path
   class="st0"
   d="M 315.8,135.7 V 128 c 0,-0.7 -0.1,-1.2 -0.4,-1.4 -0.2,-0.2 -0.6,-0.4 -1.1,-0.4 -0.4,0 -0.9,0.1 -1.4,0.4 -0.5,0.2 -0.9,0.6 -1.4,1 v 8.2 H 309 v -13.5 c 0,-0.5 0,-1 -0.1,-1.4 -0.1,-0.4 -0.1,-0.8 -0.2,-1.1 l 2.5,-0.5 c 0.1,0.3 0.1,0.7 0.2,1.2 0.1,0.5 0.1,0.9 0.1,1.5 v 2.4 c 0,0.3 0,0.6 0,0.8 0,0.2 0,0.4 0,0.4 1.1,-1 2.2,-1.5 3.5,-1.5 0.7,0 1.2,0.1 1.7,0.4 0.5,0.3 0.8,0.6 1,1 0.1,0.3 0.2,0.6 0.3,0.9 0.1,0.3 0.1,0.8 0.1,1.3 v 8 z"
   id="path20"
   clip-path="none" />
<path
   class="st0"
   d="m 330,134.5 c -0.5,0.5 -1.1,0.9 -1.6,1.1 -0.5,0.2 -1.2,0.4 -2,0.4 -1.6,0 -2.8,-0.5 -3.6,-1.5 -0.8,-1 -1.2,-2.5 -1.2,-4.3 0,-1 0.1,-1.9 0.4,-2.7 0.3,-0.8 0.7,-1.4 1.1,-1.9 0.4,-0.5 1,-0.9 1.6,-1.1 0.6,-0.2 1.2,-0.4 1.9,-0.4 0.7,0 1.2,0.1 1.7,0.3 0.5,0.2 1,0.5 1.5,1 l -1.2,1.6 c -0.6,-0.6 -1.3,-0.9 -1.9,-0.9 -0.8,0 -1.4,0.4 -1.8,1.2 -0.2,0.3 -0.3,0.8 -0.4,1.3 -0.1,0.5 -0.1,1.1 -0.1,1.9 0,1.5 0.2,2.5 0.8,3.1 0.4,0.4 0.9,0.6 1.5,0.6 0.8,0 1.5,-0.4 2.3,-1.1 z"
   id="path22"
   clip-path="none" />
<path
   class="st0"
   d="m 341.2,136.1 c -0.3,-0.1 -0.6,-0.3 -0.9,-0.6 -0.3,-0.3 -0.5,-0.6 -0.6,-0.9 -0.5,0.5 -1,0.9 -1.5,1.1 -0.5,0.2 -1.1,0.3 -1.7,0.3 -1.3,0 -2.3,-0.3 -2.9,-1 -0.6,-0.7 -0.9,-1.5 -0.9,-2.4 0,-1.3 0.5,-2.3 1.4,-3 0.9,-0.7 2.4,-1 4.2,-1 h 0.8 V 128 c 0,-0.7 -0.1,-1.2 -0.3,-1.5 -0.2,-0.3 -0.6,-0.5 -1.3,-0.5 -0.4,0 -0.7,0.1 -1.1,0.2 -0.4,0.1 -0.7,0.2 -1,0.4 -0.3,0.2 -0.6,0.3 -0.8,0.4 l -0.5,0.3 -1.1,-1.8 c 0.9,-0.5 1.7,-0.9 2.4,-1.2 0.8,-0.2 1.6,-0.4 2.4,-0.4 1.8,0 3,0.6 3.5,1.9 0,0.1 0.1,0.2 0.1,0.4 0,0.2 0,0.3 0.1,0.5 0,0.2 0,0.5 0,0.8 v 1.1 3.3 c 0,0.4 0,0.7 0,1 0,0.3 0.1,0.5 0.1,0.7 0.1,0.2 0.2,0.4 0.3,0.5 0.1,0.1 0.3,0.3 0.5,0.4 z m -2.1,-5.8 c 0,0 -0.1,0 -0.2,0 -0.1,0 -0.2,0 -0.3,0 -0.6,0 -1.1,0.1 -1.5,0.1 -0.4,0 -0.7,0.2 -1,0.4 -0.3,0.2 -0.4,0.4 -0.5,0.7 -0.1,0.3 -0.2,0.6 -0.2,0.9 0,0.5 0.1,1 0.4,1.3 0.3,0.3 0.7,0.5 1.2,0.5 0.4,0 0.8,-0.1 1.1,-0.3 0.3,-0.2 0.7,-0.5 0.9,-0.9 z"
   id="path24"
   clip-path="none" />
<path
   class="st0"
   d="m 351.3,126.5 c -0.1,0 -0.2,-0.1 -0.3,-0.1 -0.1,0 -0.2,0 -0.4,0 -0.5,0 -1,0.2 -1.4,0.5 -0.4,0.3 -0.6,0.7 -0.8,1.2 v 7.7 H 346 v -8 c 0,-0.7 0,-1.3 -0.1,-1.8 -0.1,-0.5 -0.2,-1 -0.3,-1.3 l 2.3,-0.5 c 0.3,0.5 0.4,1.1 0.4,1.8 0.5,-0.6 0.9,-1.1 1.4,-1.4 0.5,-0.3 1,-0.4 1.5,-0.4 0.3,0 0.6,0.1 0.9,0.2 z"
   id="path26"
   clip-path="none" />
<path
   class="st0"
   d="m 356.7,130.7 v 0.2 c 0,0.4 0,0.8 0.1,1.2 0.1,0.4 0.2,0.7 0.5,1 0.3,0.3 0.5,0.6 0.9,0.7 0.4,0.2 0.8,0.3 1.4,0.3 1,0 2,-0.4 2.8,-1.1 l 1,1.5 c -1.2,1 -2.5,1.5 -4.1,1.5 -0.8,0 -1.5,-0.1 -2.2,-0.4 -0.6,-0.3 -1.2,-0.7 -1.6,-1.2 -0.4,-0.5 -0.8,-1.1 -1,-1.9 -0.2,-0.7 -0.4,-1.6 -0.4,-2.5 0,-1 0.1,-1.9 0.3,-2.6 0.2,-0.7 0.6,-1.3 1.1,-1.9 0.5,-0.5 1,-0.9 1.5,-1.2 0.6,-0.2 1.2,-0.4 1.9,-0.4 0.6,0 1.1,0.1 1.6,0.3 0.5,0.2 1,0.5 1.5,0.9 0.5,0.4 0.9,1.1 1.1,1.8 0.2,0.7 0.4,1.8 0.4,3.1 v 0.5 z m 4.2,-1.9 c 0,-0.9 -0.2,-1.7 -0.5,-2.2 -0.3,-0.5 -0.9,-0.8 -1.5,-0.8 -0.7,0 -1.2,0.3 -1.6,0.8 -0.4,0.5 -0.5,1.2 -0.5,2.2 z"
   id="path28"
   clip-path="none" />
<g
   id="g48">
	
		<linearGradient
   id="SVGID_1_"
   gradientUnits="userSpaceOnUse"
   x1="0"
   y1="76.279999"
   x2="190.27"
   y2="76.279999"
   gradientTransform="matrix(1,0,0,-1,0,150)">
		<stop
   offset="0"
   style="stop-color:#DC6B2F"
   id="stop30" />
		<stop
   offset="0.39"
   style="stop-color:#C45433"
   id="stop32" />
		<stop
   offset="1"
   style="stop-color:#A4343A"
   id="stop34" />
	</linearGradient>
	<path
   class="st1"
   d="M 51,0 0,51.6 v 95.9 h 139.2 l 37.2,-37.7 c -0.1,0 -0.3,0 -0.4,0 -2.9,0 -5.2,-0.6 -7.4,-1.6 -4,-1.9 -5.4,-5.5 -5.4,-11.2 V 58.3 h -10.4 l 4.3,-6.7 h 6.1 c 0,-5.4 0.9,-14.2 0.9,-14.2 l 9.3,-2 c 0,0 -1.1,8.8 -1.1,16.3 h 14.1 v 6.7 H 172 v 36.3 c 0,6.2 1.7,8.4 7.2,8.4 2,0 3.4,-0.2 4.6,-0.7 l 6.4,-6.5 V 0 Z m 3.1,107.9 H 45.2 V 69.8 c 0,-6 -0.5,-7.5 -2,-9.4 C 42,58.9 39.6,58 37,58 32.5,58 25.5,61.6 21.4,65.9 v 41.9 H 12.8 V 64.5 c 0,-8 -2.4,-12.3 -2.4,-12.3 l 8.8,-1.9 c 0,0 2,4.2 2,8.8 5.9,-5.9 11.8,-8.7 17.7,-8.7 5.9,0 11.5,3.3 13.8,8.2 0.9,2 1.4,4.3 1.4,6.6 z M 104.6,81.2 H 69.5 v 1.4 c 0,5.3 0.7,9.4 2.6,12.3 3.2,4.9 8.4,6.9 14,6.9 5.6,0 9.8,-1.7 13.8,-5.3 l 3.4,5.7 c -5,4.5 -11.8,7 -19,7 -15.6,0 -25,-11.3 -25,-29.9 0,-9.5 2,-15.6 6.8,-21.2 4.5,-5.3 10.1,-7.8 16.8,-7.8 6.1,0 11.4,2.2 15.3,6.1 4.9,5 6.2,10.3 6.4,23.7 z m 52,26.7 h -10.7 l -15.3,-24 -15.3,24 h -10.4 l 21,-31.2 -17.4,-25.1 h 10.8 l 11.2,18.8 10.9,-18.8 h 10.3 L 135,76.7 Z"
   id="path37"
   clip-path="none"
   style="fill:url(#SVGID_1_)" />
	
		<linearGradient
   id="SVGID_00000028324097258246691090000017474825849204876211_"
   gradientUnits="userSpaceOnUse"
   x1="3.8599999"
   y1="84.199997"
   x2="190.28"
   y2="84.199997"
   gradientTransform="matrix(1,0,0,-1,0,150)">
		<stop
   offset="0"
   style="stop-color:#DC6B2F"
   id="stop39" />
		<stop
   offset="0.39"
   style="stop-color:#C45433"
   id="stop41" />
		<stop
   offset="1"
   style="stop-color:#A4343A"
   id="stop43" />
	</linearGradient>
	<path
   style="fill:url(#SVGID_00000028324097258246691090000017474825849204876211_)"
   d="m 82.5,57 c -8,0 -12.6,5.9 -13,17.5 H 95.3 C 95.2,68.4 94.4,64.7 92.7,62 90.7,59 86.8,57 82.5,57 Z"
   id="path46"
   clip-path="none" />
</g>
<path
   class="st3"
   d="m 39,50.4 c -6,0 -11.9,2.8 -17.7,8.7 0,-4.6 -2,-8.8 -2,-8.8 l -8.8,1.9 c 0,0 2.4,4.3 2.4,12.3 v 43.4 h 8.6 V 66 c 3.9,-4.3 10.9,-8 15.5,-8 2.6,0 5,0.9 6.2,2.4 1.6,1.9 2,3.4 2,9.4 v 38.1 h 8.9 V 65.2 c 0,-2.3 -0.5,-4.5 -1.4,-6.6 -2.2,-5 -7.6,-8.2 -13.7,-8.2 z"
   id="path50"
   clip-path="none" />
<path
   class="st3"
   d="m 82.9,50.2 c -6.8,0 -12.3,2.5 -16.8,7.8 -4.8,5.7 -6.8,11.7 -6.8,21.2 0,18.7 9.4,29.9 25,29.9 7.2,0 14,-2.5 19,-7 l -3.4,-5.7 c -4,3.6 -8.4,5.3 -13.8,5.3 -5.4,0 -10.8,-2 -14,-6.9 -1.9,-2.9 -2.6,-7 -2.6,-12.3 v -1.4 h 35.2 V 80 C 104.5,66.6 103.1,61.2 98.3,56.3 94.4,52.3 89.1,50.2 82.9,50.2 Z M 69.5,74.6 c 0.4,-11.6 5,-17.5 13,-17.5 4.3,0 8.2,1.9 10.2,5 1.7,2.7 2.5,6.4 2.6,12.5 z"
   id="path52"
   clip-path="none" />
<polygon
   class="st3"
   points="130.6,70.4 119.4,51.6 108.6,51.6 126,76.7 105,107.9 115.4,107.9 130.6,83.9 145.9,107.9 156.6,107.9 135,76.7 151.8,51.6 141.5,51.6 "
   id="polygon54"
   clip-path="none" />
<path
   class="st3"
   d="M 172,94.6 V 58.3 h 14.5 v -6.7 h -14.1 c 0,-7.5 1.1,-16.3 1.1,-16.3 l -9.3,2 c 0,0 -0.9,8.8 -0.9,14.2 h -6.1 l -4.3,6.7 h 10.4 v 38.7 c 0,5.7 1.5,9.3 5.4,11.2 2.1,1 4.4,1.6 7.4,1.6 0.1,0 0.3,0 0.4,0 l 7.4,-7.5 c -1.3,0.5 -2.6,0.7 -4.6,0.7 -5.6,0 -7.3,-2.1 -7.3,-8.3 z"
   id="path56"
   clip-path="none" />
<g
   id="g62">
	<path
   class="st4"
   d="m 357.6,97.4 c -0.3,-0.8 -0.8,-1.4 -1.3,-1.9 -0.6,-0.5 -1.2,-1 -2,-1.3 -0.7,-0.3 -1.5,-0.5 -2.4,-0.5 -0.9,0 -1.6,0.2 -2.4,0.5 -0.7,0.3 -1.4,0.7 -2,1.3 -0.6,0.6 -1,1.2 -1.3,1.9 -0.3,0.7 -0.5,1.6 -0.5,2.4 0,0.8 0.2,1.7 0.5,2.4 0.3,0.8 0.8,1.4 1.3,2 0.6,0.5 1.2,1 2,1.3 0.7,0.3 1.5,0.5 2.4,0.5 0.9,0 1.6,-0.2 2.4,-0.5 0.7,-0.3 1.4,-0.7 2,-1.3 0.6,-0.6 1,-1.2 1.3,-2 0.3,-0.8 0.5,-1.6 0.5,-2.4 0,-0.8 -0.1,-1.6 -0.5,-2.4 z m -0.7,4.7 c -0.3,0.7 -0.7,1.3 -1.2,1.7 -0.5,0.5 -1,0.9 -1.7,1.2 -0.7,0.3 -1.3,0.4 -2.1,0.4 -0.7,0 -1.4,-0.1 -2.1,-0.4 -0.7,-0.3 -1.2,-0.7 -1.7,-1.2 -0.5,-0.5 -0.9,-1.1 -1.1,-1.7 -0.3,-0.7 -0.4,-1.4 -0.4,-2.2 0,-0.8 0.1,-1.5 0.4,-2.2 0.3,-0.7 0.7,-1.3 1.1,-1.7 0.5,-0.5 1,-0.9 1.7,-1.2 0.7,-0.3 1.4,-0.4 2.1,-0.4 0.7,0 1.4,0.1 2.1,0.4 0.7,0.3 1.2,0.7 1.7,1.2 0.5,0.5 0.9,1.1 1.2,1.7 0.3,0.7 0.4,1.4 0.4,2.2 0,0.8 -0.1,1.5 -0.4,2.2 z"
   id="path58"
   clip-path="none" />
	<path
   class="st4"
   d="m 353.4,101.6 c -0.1,-0.2 -0.2,-0.3 -0.3,-0.5 -0.1,-0.1 -0.2,-0.3 -0.3,-0.4 -0.1,-0.1 -0.2,-0.2 -0.3,-0.3 -0.1,-0.1 -0.2,-0.2 -0.4,-0.3 0.5,0 0.9,-0.2 1.2,-0.5 0.3,-0.3 0.4,-0.7 0.4,-1.2 0,-0.3 -0.1,-0.6 -0.2,-0.8 -0.1,-0.2 -0.2,-0.4 -0.4,-0.5 -0.2,-0.1 -0.3,-0.2 -0.6,-0.3 -0.2,-0.1 -0.5,-0.1 -0.9,-0.1 h -1.4 v 6 h 0.6 V 100 h 0.2 c 0.1,0 0.2,0 0.3,0.1 0.1,0.1 0.2,0.1 0.3,0.2 0.2,0.2 0.4,0.5 0.5,0.7 0.1,0.2 0.3,0.5 0.5,0.9 0.1,0.2 0.2,0.4 0.3,0.5 0.1,0.1 0.1,0.3 0.2,0.4 h 0.7 z m -1.6,-1.9 h -0.7 v -2.4 h 0.7 c 0.2,0 0.4,0 0.6,0 0.2,0 0.3,0.1 0.4,0.2 0.1,0.1 0.3,0.2 0.4,0.4 0.1,0.2 0.2,0.4 0.2,0.6 0,0.4 -0.1,0.7 -0.4,0.9 -0.3,0.2 -0.7,0.3 -1.2,0.3 z"
   id="path60"
   clip-path="none" />
</g>
</svg>
