<svg xmlns="http://www.w3.org/2000/svg" xmlns:xlink="http://www.w3.org/1999/xlink" id="Layer_1" x="0px" y="0px" viewBox="0 0 720 216" style="enable-background:new 0 0 720 216;" xml:space="preserve"><style type="text/css">	.st0{fill:#00264B;}	.st1{fill:#0077B5;}	.st2{fill:#00305F;}	.st3{fill:#1579A0;}	.st4{fill:#FFFFFF;}</style><g>	<path class="st0" d="M274.1,112.2V80h4.6L289,99.2c0.1,0.2,0.3,0.5,0.4,0.8c0.2,0.3,0.3,0.7,0.4,1.1c0.1,0.4,0.3,0.7,0.4,1h0.2  c0-0.5,0-1.1,0-1.6c0-0.5,0-1,0-1.3V80h4.7v32.2h-4.6l-10.3-19.4c-0.2-0.3-0.4-0.8-0.6-1.4c-0.3-0.6-0.5-1.1-0.7-1.7h-0.2v1.5v1.5  v19.4H274.1z"></path>	<path class="st0" d="M312.5,108.6c1.2,0,2.3-0.2,3.2-0.7c0.9-0.5,1.7-1.2,2.4-2.1c0.6-0.9,1.1-2.1,1.5-3.5c0.3-1.4,0.5-3.1,0.5-5  v-2.4c0-1.9-0.2-3.6-0.5-5c-0.3-1.4-0.8-2.6-1.5-3.5s-1.4-1.6-2.4-2.1c-0.9-0.5-2-0.7-3.2-0.7c-1.2,0-2.3,0.2-3.3,0.7  c-1,0.5-1.8,1.1-2.4,2.1c-0.6,0.9-1.1,2.1-1.4,3.5c-0.3,1.4-0.5,3.1-0.5,5v2.4c0,1.9,0.2,3.6,0.5,5c0.3,1.4,0.8,2.6,1.4,3.5  c0.6,0.9,1.4,1.6,2.4,2.1C310.2,108.4,311.3,108.6,312.5,108.6 M312.5,112.8c-2.7,0-5-0.6-6.8-1.8c-1.9-1.2-3.3-3-4.2-5.5  c-1-2.5-1.5-5.6-1.5-9.4c0-3.8,0.5-6.9,1.5-9.4c1-2.5,2.4-4.3,4.2-5.5c1.9-1.2,4.1-1.8,6.8-1.8c2.7,0,5,0.6,6.8,1.8  c1.9,1.2,3.3,3,4.2,5.5c1,2.5,1.5,5.6,1.5,9.4c0,3.8-0.5,6.9-1.5,9.4c-1,2.5-2.4,4.3-4.2,5.5C317.4,112.2,315.2,112.8,312.5,112.8"></path>	<path class="st0" d="M334.8,95.5h6.6c1.7,0,2.9-0.5,3.7-1.6c0.8-1,1.1-2.5,1.1-4.4c0-1.2-0.2-2.1-0.5-2.9c-0.3-0.8-0.8-1.4-1.6-1.8  c-0.7-0.4-1.7-0.6-3-0.6h-6.3V95.5z M329.9,112.2V80h11.9c2.3,0,4.2,0.4,5.5,1.2c1.4,0.8,2.3,1.9,2.9,3.3c0.6,1.4,0.9,3,0.9,4.8  c0,2.2-0.4,4-1.1,5.6c-0.8,1.6-1.9,2.7-3.3,3.4l5.7,13.8h-5.2l-5.1-12.5h-7.3v12.5H329.9z"></path>	<polygon class="st0" points="361.5,112.2 361.5,84.3 353.2,84.3 353.2,80 374.7,80 374.7,84.3 366.3,84.3 366.3,112.2  "></polygon>	<polygon class="st0" points="378.4,112.2 378.4,80 383.3,80 383.3,93.7 394.5,93.7 394.5,80 399.3,80 399.3,112.2 394.5,112.2   394.5,98 383.3,98 383.3,112.2  "></polygon>	<polygon class="st0" points="405.3,112.2 405.3,80 424.7,80 424.7,84.2 410.2,84.2 410.2,93.7 423.1,93.7 423.1,97.9 410.2,97.9   410.2,108 424.9,108 424.9,112.2  "></polygon>	<path class="st0" d="M434.5,95.5h6.6c1.7,0,2.9-0.5,3.7-1.6c0.8-1,1.1-2.5,1.1-4.4c0-1.2-0.2-2.1-0.5-2.9c-0.3-0.8-0.8-1.4-1.6-1.8  c-0.7-0.4-1.7-0.6-3-0.6h-6.3V95.5z M429.6,112.2V80h11.9c2.3,0,4.2,0.4,5.5,1.2c1.4,0.8,2.3,1.9,2.9,3.3c0.6,1.4,0.9,3,0.9,4.8  c0,2.2-0.4,4-1.1,5.6c-0.8,1.6-1.9,2.7-3.3,3.4l5.7,13.8h-5.2l-5.1-12.5h-7.3v12.5H429.6z"></path>	<path class="st0" d="M456,112.2V80h4.6l10.2,19.2c0.1,0.2,0.3,0.5,0.4,0.8c0.2,0.3,0.3,0.7,0.4,1.1c0.1,0.4,0.3,0.7,0.4,1h0.2  c0-0.5,0-1.1,0-1.6c0-0.5,0-1,0-1.3V80h4.7v32.2h-4.5l-10.3-19.4c-0.2-0.3-0.4-0.8-0.6-1.4c-0.3-0.6-0.5-1.1-0.7-1.7h-0.2v1.5v1.5  v19.4H456z"></path>	<path class="st0" d="M501,112.8c-2.7,0-5-0.6-6.7-1.8c-1.8-1.2-3.1-3-3.9-5.5c-0.8-2.5-1.2-5.6-1.2-9.4c0-5.7,1-9.9,3.1-12.6  c2.1-2.7,5.1-4,9.2-4c2.3,0,4.2,0.4,5.8,1.3c1.6,0.9,2.9,2.2,3.7,4.1c0.9,1.8,1.3,4.2,1.3,7.1h-4.8c0-1.8-0.2-3.3-0.7-4.6  c-0.5-1.3-1.1-2.2-2.1-2.8c-0.9-0.6-2.1-0.9-3.5-0.9c-1.6,0-2.9,0.4-4,1.2c-1.1,0.8-1.9,2-2.4,3.7c-0.5,1.7-0.8,3.8-0.8,6.5v2.4  c0,2.6,0.3,4.7,0.8,6.4c0.5,1.7,1.3,2.9,2.3,3.7c1,0.8,2.4,1.2,4,1.2c1.4,0,2.6-0.3,3.6-0.9c1-0.6,1.7-1.5,2.2-2.7  c0.5-1.2,0.7-2.8,0.7-4.6h4.7c0,2.9-0.5,5.2-1.4,7.1c-0.9,1.8-2.3,3.2-3.9,4.1C505.3,112.3,503.3,112.8,501,112.8"></path>	<path class="st0" d="M528.4,108.6c1.2,0,2.3-0.2,3.2-0.7c0.9-0.5,1.7-1.2,2.4-2.1c0.6-0.9,1.1-2.1,1.5-3.5c0.3-1.4,0.5-3.1,0.5-5  v-2.4c0-1.9-0.2-3.6-0.5-5c-0.3-1.4-0.8-2.6-1.5-3.5c-0.6-0.9-1.4-1.6-2.4-2.1c-0.9-0.5-2-0.7-3.2-0.7c-1.2,0-2.3,0.2-3.3,0.7  c-1,0.5-1.8,1.1-2.4,2.1c-0.6,0.9-1.1,2.1-1.4,3.5c-0.3,1.4-0.5,3.1-0.5,5v2.4c0,1.9,0.2,3.6,0.5,5c0.3,1.4,0.8,2.6,1.4,3.5  c0.6,0.9,1.4,1.6,2.4,2.1C526.1,108.4,527.2,108.6,528.4,108.6 M528.4,112.8c-2.7,0-5-0.6-6.8-1.8c-1.9-1.2-3.3-3-4.2-5.5  c-1-2.5-1.5-5.6-1.5-9.4c0-3.8,0.5-6.9,1.5-9.4c1-2.5,2.4-4.3,4.2-5.5c1.9-1.2,4.1-1.8,6.8-1.8s5,0.6,6.8,1.8  c1.9,1.2,3.3,3,4.2,5.5c1,2.5,1.5,5.6,1.5,9.4c0,3.8-0.5,6.9-1.5,9.4c-1,2.5-2.4,4.3-4.2,5.5C533.3,112.2,531.1,112.8,528.4,112.8"></path>	<polygon class="st0" points="545.8,112.2 545.8,80 550.7,80 550.7,108 562.6,108 562.6,112.2  "></polygon>	<path class="st0" d="M576,108.6c1.2,0,2.3-0.2,3.2-0.7c0.9-0.5,1.7-1.2,2.4-2.1c0.6-0.9,1.1-2.1,1.5-3.5c0.3-1.4,0.5-3.1,0.5-5  v-2.4c0-1.9-0.2-3.6-0.5-5c-0.3-1.4-0.8-2.6-1.5-3.5c-0.6-0.9-1.4-1.6-2.4-2.1c-0.9-0.5-2-0.7-3.2-0.7c-1.2,0-2.3,0.2-3.3,0.7  c-1,0.5-1.8,1.1-2.4,2.1c-0.6,0.9-1.1,2.1-1.4,3.5c-0.3,1.4-0.5,3.1-0.5,5v2.4c0,1.9,0.2,3.6,0.5,5c0.3,1.4,0.8,2.6,1.4,3.5  c0.6,0.9,1.4,1.6,2.4,2.1C573.7,108.4,574.8,108.6,576,108.6 M576,112.8c-2.7,0-5-0.6-6.8-1.8c-1.9-1.2-3.3-3-4.2-5.5  c-1-2.5-1.5-5.6-1.5-9.4c0-3.8,0.5-6.9,1.5-9.4c1-2.5,2.4-4.3,4.2-5.5c1.9-1.2,4.1-1.8,6.8-1.8c2.7,0,5,0.6,6.8,1.8  c1.9,1.2,3.3,3,4.2,5.5c1,2.5,1.5,5.6,1.5,9.4c0,3.8-0.5,6.9-1.5,9.4c-1,2.5-2.4,4.3-4.2,5.5C581,112.2,578.7,112.8,576,112.8"></path>	<path class="st0" d="M598.3,95.5h6.6c1.7,0,2.9-0.5,3.7-1.6c0.8-1,1.1-2.5,1.1-4.4c0-1.2-0.2-2.1-0.5-2.9c-0.3-0.8-0.8-1.4-1.6-1.8  c-0.7-0.4-1.7-0.6-3-0.6h-6.3V95.5z M593.4,112.2V80h11.9c2.3,0,4.2,0.4,5.5,1.2c1.4,0.8,2.3,1.9,2.9,3.3c0.6,1.4,0.9,3,0.9,4.8  c0,2.2-0.4,4-1.1,5.6c-0.8,1.6-1.9,2.7-3.3,3.4l5.7,13.8h-5.2l-5.1-12.5h-7.3v12.5H593.4z"></path>	<path class="st0" d="M625.1,100.2h8.2l-2.7-10.1c-0.1-0.3-0.2-0.6-0.3-1c-0.1-0.4-0.2-0.9-0.3-1.4c-0.1-0.5-0.2-1-0.4-1.5  c-0.1-0.5-0.2-0.9-0.3-1.3h-0.3c-0.1,0.5-0.2,1.1-0.4,1.7c-0.2,0.7-0.3,1.3-0.5,1.9c-0.2,0.6-0.3,1.1-0.4,1.5L625.1,100.2z   M616.9,112.2l9.3-32.2h6.1l9.3,32.2h-5.1l-2.2-7.9h-10.3l-2.2,7.9H616.9z"></path>	<path class="st0" d="M649.7,108h4.5c1.2,0,2.3-0.2,3.3-0.5c1-0.3,1.8-0.9,2.4-1.7c0.7-0.8,1.2-1.9,1.5-3.3c0.4-1.4,0.5-3.1,0.5-5.2  v-2.2c0-2.1-0.2-3.8-0.5-5.2c-0.3-1.4-0.8-2.5-1.5-3.4c-0.7-0.8-1.5-1.5-2.4-1.8c-1-0.4-2.1-0.6-3.3-0.6h-4.5V108z M644.8,112.2V80  h9.9c2.8,0,5,0.6,6.8,1.7c1.8,1.1,3.2,2.8,4.1,5.2c0.9,2.4,1.3,5.4,1.3,9.2c0,3.7-0.4,6.8-1.3,9.1c-0.9,2.4-2.3,4.1-4.1,5.3  c-1.8,1.1-4.1,1.7-6.9,1.7H644.8z"></path>	<path class="st0" d="M683.1,108.6c1.2,0,2.3-0.2,3.2-0.7c0.9-0.5,1.7-1.2,2.4-2.1c0.6-0.9,1.1-2.1,1.5-3.5c0.3-1.4,0.5-3.1,0.5-5  v-2.4c0-1.9-0.2-3.6-0.5-5c-0.3-1.4-0.8-2.6-1.5-3.5c-0.6-0.9-1.4-1.6-2.4-2.1c-0.9-0.5-2-0.7-3.2-0.7c-1.2,0-2.3,0.2-3.3,0.7  c-1,0.5-1.8,1.1-2.4,2.1c-0.6,0.9-1.1,2.1-1.4,3.5c-0.3,1.4-0.5,3.1-0.5,5v2.4c0,1.9,0.2,3.6,0.5,5c0.3,1.4,0.8,2.6,1.4,3.5  c0.6,0.9,1.4,1.6,2.4,2.1C680.8,108.4,681.9,108.6,683.1,108.6 M683.1,112.8c-2.7,0-5-0.6-6.8-1.8c-1.9-1.2-3.3-3-4.2-5.5  c-1-2.5-1.5-5.6-1.5-9.4c0-3.8,0.5-6.9,1.5-9.4c1-2.5,2.4-4.3,4.2-5.5c1.9-1.2,4.1-1.8,6.8-1.8c2.7,0,5,0.6,6.8,1.8  c1.9,1.2,3.3,3,4.2,5.5c1,2.5,1.5,5.6,1.5,9.4c0,3.8-0.5,6.9-1.5,9.4c-1,2.5-2.4,4.3-4.2,5.5C688.1,112.2,685.8,112.8,683.1,112.8"></path>	<polygon class="st0" points="274,164 274,131.8 280.4,131.8 280.4,144.9 289.6,144.9 289.6,131.8 296,131.8 296,164 289.6,164   289.6,150.4 280.4,150.4 280.4,164  "></polygon>	<path class="st0" d="M313.4,159.2c1.1,0,2-0.2,2.8-0.6c0.8-0.4,1.4-1,1.9-1.8c0.5-0.8,0.9-1.8,1.1-3c0.3-1.2,0.4-2.6,0.4-4.1v-3.4  c0-1.6-0.1-2.9-0.4-4.1c-0.3-1.2-0.6-2.2-1.1-3c-0.5-0.8-1.2-1.4-1.9-1.8c-0.8-0.4-1.7-0.6-2.8-0.6c-1.1,0-2,0.2-2.8,0.6  c-0.8,0.4-1.5,1-2,1.8c-0.5,0.8-0.9,1.8-1.1,3c-0.3,1.2-0.4,2.6-0.4,4.1v3.4c0,1.6,0.1,2.9,0.4,4.1c0.2,1.2,0.6,2.2,1.1,3  c0.5,0.8,1.2,1.4,2,1.8C311.4,158.9,312.3,159.2,313.4,159.2 M313.4,164.6c-2.8,0-5.1-0.6-7.1-1.8c-1.9-1.2-3.4-3-4.4-5.5  c-1-2.5-1.5-5.6-1.5-9.4c0-3.8,0.5-7,1.5-9.5c1-2.5,2.4-4.3,4.4-5.5c1.9-1.2,4.3-1.8,7.1-1.8c2.8,0,5.1,0.6,7.1,1.8  c1.9,1.2,3.4,3,4.3,5.5c1,2.5,1.5,5.6,1.5,9.5c0,3.8-0.5,7-1.5,9.4c-1,2.5-2.4,4.3-4.3,5.5C318.5,164,316.2,164.6,313.4,164.6"></path>	<path class="st0" d="M340.4,164.6c-1.5,0-2.9-0.2-4.2-0.5c-1.3-0.3-2.5-0.8-3.5-1.6c-1-0.8-1.8-1.8-2.3-3.1  c-0.6-1.3-0.8-2.9-0.8-4.8v-0.4c0-0.2,0-0.3,0-0.4h6.2v0.4v0.5c0,1.1,0.2,2,0.5,2.7c0.3,0.7,0.8,1.2,1.5,1.5  c0.7,0.3,1.5,0.4,2.5,0.4c0.6,0,1.1,0,1.6-0.1c0.5-0.1,0.9-0.2,1.2-0.5c0.4-0.2,0.7-0.5,0.9-0.8c0.3-0.3,0.4-0.7,0.5-1.1  c0.1-0.4,0.2-0.9,0.2-1.4c0-0.8-0.2-1.5-0.6-2.1c-0.4-0.6-1-1-1.7-1.4c-0.7-0.4-1.5-0.7-2.4-1.1c-0.9-0.3-1.8-0.7-2.7-1  c-0.9-0.3-1.8-0.8-2.7-1.2c-0.9-0.5-1.6-1-2.3-1.7c-0.7-0.7-1.3-1.5-1.7-2.5c-0.4-1-0.6-2.2-0.6-3.6c0-1.7,0.3-3.1,0.8-4.2  c0.5-1.2,1.3-2.1,2.3-2.9c1-0.8,2.1-1.3,3.4-1.7c1.3-0.4,2.6-0.5,4-0.5c1.4,0,2.8,0.2,4,0.5c1.2,0.3,2.3,0.9,3.2,1.6  c0.9,0.7,1.6,1.7,2.1,2.8c0.5,1.2,0.8,2.5,0.8,4.2v0.9h-6.1v-0.6c0-0.8-0.1-1.6-0.4-2.1c-0.3-0.6-0.7-1-1.3-1.4  c-0.6-0.3-1.3-0.5-2.3-0.5c-0.8,0-1.5,0.1-2.1,0.4c-0.6,0.2-1.1,0.6-1.4,1.1c-0.3,0.5-0.5,1.1-0.5,1.9c0,0.8,0.2,1.5,0.6,2.1  c0.4,0.6,1,1,1.7,1.4c0.7,0.4,1.5,0.7,2.4,1.1c0.9,0.3,1.8,0.7,2.7,1c0.9,0.3,1.8,0.7,2.7,1.2c0.9,0.5,1.7,1,2.4,1.7  c0.7,0.7,1.3,1.5,1.7,2.5c0.4,1,0.6,2.2,0.6,3.6c0,2.4-0.5,4.3-1.4,5.8c-0.9,1.5-2.2,2.6-3.8,3.3  C344.5,164.2,342.6,164.6,340.4,164.6"></path>	<path class="st0" d="M361.7,147.4h5c1.3,0,2.3-0.5,2.9-1.4c0.6-0.9,0.9-2.2,0.9-3.8c0-1.2-0.1-2.1-0.4-2.8  c-0.3-0.7-0.7-1.3-1.3-1.6c-0.6-0.4-1.4-0.5-2.3-0.5h-4.8V147.4z M355.3,164v-32.2h12.6c2.2,0,4,0.4,5.3,1.3s2.3,2.1,3,3.6  c0.6,1.5,0.9,3.3,0.9,5.4c0,2.1-0.3,3.9-1,5.6c-0.7,1.6-1.7,2.9-3.1,3.8c-1.4,0.9-3.1,1.3-5.1,1.3h-6.1V164H355.3z"></path>	<rect x="380.5" y="131.8" class="st0" width="6.4" height="32.2"></rect>	<polygon class="st0" points="398.6,164 398.6,137.3 390.5,137.3 390.5,131.8 413,131.8 413,137.3 405,137.3 405,164  "></polygon>	<path class="st0" d="M420,152h7l-2.2-9c-0.1-0.2-0.2-0.6-0.3-1c-0.1-0.4-0.2-0.9-0.3-1.4c-0.1-0.5-0.2-1-0.3-1.5  c-0.1-0.5-0.2-1-0.3-1.4h-0.3c-0.1,0.5-0.2,1.1-0.4,1.8c-0.1,0.7-0.3,1.3-0.4,1.9c-0.1,0.6-0.3,1.1-0.4,1.5L420,152z M410.5,164  l8.9-32.2h8.4l8.9,32.2h-6.8l-1.7-6.7h-9.4l-1.7,6.7H410.5z"></path>	<polygon class="st0" points="439.5,164 439.5,131.8 445.9,131.8 445.9,158.5 457.8,158.5 457.8,164  "></polygon>	<rect x="461.2" y="131.8" class="st0" width="6.4" height="32.2"></rect>	<path class="st0" d="M482.9,164.6c-1.5,0-2.9-0.2-4.2-0.5c-1.3-0.3-2.5-0.8-3.5-1.6c-1-0.8-1.8-1.8-2.3-3.1  c-0.6-1.3-0.8-2.9-0.8-4.8v-0.4c0-0.2,0-0.3,0-0.4h6.2v0.4v0.5c0,1.1,0.2,2,0.5,2.7c0.3,0.7,0.8,1.2,1.5,1.5  c0.7,0.3,1.5,0.4,2.5,0.4c0.6,0,1.1,0,1.6-0.1c0.5-0.1,0.9-0.2,1.2-0.5c0.4-0.2,0.7-0.5,0.9-0.8c0.2-0.3,0.4-0.7,0.5-1.1  c0.1-0.4,0.2-0.9,0.2-1.4c0-0.8-0.2-1.5-0.6-2.1c-0.4-0.6-1-1-1.7-1.4c-0.7-0.4-1.5-0.7-2.4-1.1c-0.9-0.3-1.8-0.7-2.7-1  c-0.9-0.3-1.8-0.8-2.7-1.2c-0.9-0.5-1.6-1-2.3-1.7c-0.7-0.7-1.3-1.5-1.7-2.5c-0.4-1-0.6-2.2-0.6-3.6c0-1.7,0.3-3.1,0.8-4.2  c0.5-1.2,1.3-2.1,2.3-2.9c1-0.8,2.1-1.3,3.4-1.7c1.3-0.4,2.6-0.5,4-0.5c1.4,0,2.8,0.2,4,0.5c1.2,0.3,2.3,0.9,3.2,1.6  c0.9,0.7,1.6,1.7,2.1,2.8c0.5,1.2,0.8,2.5,0.8,4.2v0.9h-6.1v-0.6c0-0.8-0.1-1.6-0.4-2.1c-0.3-0.6-0.7-1-1.3-1.4  c-0.6-0.3-1.3-0.5-2.3-0.5c-0.8,0-1.5,0.1-2.1,0.4c-0.6,0.2-1.1,0.6-1.4,1.1c-0.3,0.5-0.5,1.1-0.5,1.9c0,0.8,0.2,1.5,0.6,2.1  c0.4,0.6,1,1,1.7,1.4c0.7,0.4,1.5,0.7,2.4,1.1c0.9,0.3,1.8,0.7,2.7,1c0.9,0.3,1.8,0.7,2.7,1.2c0.9,0.5,1.7,1,2.4,1.7  c0.7,0.7,1.3,1.5,1.7,2.5c0.4,1,0.6,2.2,0.6,3.6c0,2.4-0.5,4.3-1.4,5.8c-0.9,1.5-2.2,2.6-3.8,3.3  C486.9,164.2,485,164.6,482.9,164.6"></path>	<polygon class="st0" points="503.8,164 503.8,137.3 495.8,137.3 495.8,131.8 518.2,131.8 518.2,137.3 510.3,137.3 510.3,164  "></polygon>	<path class="st0" d="M531.5,164.6c-1.5,0-2.9-0.2-4.2-0.5c-1.3-0.3-2.5-0.8-3.5-1.6c-1-0.8-1.8-1.8-2.3-3.1  c-0.6-1.3-0.8-2.9-0.8-4.8v-0.4c0-0.2,0-0.3,0-0.4h6.2v0.4v0.5c0,1.1,0.2,2,0.5,2.7c0.3,0.7,0.8,1.2,1.5,1.5  c0.7,0.3,1.5,0.4,2.5,0.4c0.6,0,1.1,0,1.6-0.1c0.5-0.1,0.9-0.2,1.2-0.5c0.4-0.2,0.7-0.5,0.9-0.8c0.2-0.3,0.4-0.7,0.5-1.1  c0.1-0.4,0.2-0.9,0.2-1.4c0-0.8-0.2-1.5-0.6-2.1c-0.4-0.6-1-1-1.7-1.4c-0.7-0.4-1.5-0.7-2.4-1.1c-0.9-0.3-1.8-0.7-2.7-1  c-0.9-0.3-1.8-0.8-2.7-1.2c-0.9-0.5-1.6-1-2.3-1.7c-0.7-0.7-1.3-1.5-1.7-2.5c-0.4-1-0.6-2.2-0.6-3.6c0-1.7,0.3-3.1,0.8-4.2  c0.5-1.2,1.3-2.1,2.3-2.9c1-0.8,2.1-1.3,3.4-1.7c1.3-0.4,2.6-0.5,4-0.5c1.4,0,2.8,0.2,4,0.5c1.2,0.3,2.3,0.9,3.2,1.6  c0.9,0.7,1.6,1.7,2.1,2.8c0.5,1.2,0.8,2.5,0.8,4.2v0.9h-6.1v-0.6c0-0.8-0.1-1.6-0.4-2.1c-0.3-0.6-0.7-1-1.3-1.4  c-0.6-0.3-1.3-0.5-2.3-0.5c-0.8,0-1.5,0.1-2.1,0.4c-0.6,0.2-1.1,0.6-1.4,1.1c-0.3,0.5-0.5,1.1-0.5,1.9c0,0.8,0.2,1.5,0.6,2.1  c0.4,0.6,1,1,1.7,1.4c0.7,0.4,1.5,0.7,2.4,1.1c0.9,0.3,1.8,0.7,2.7,1c0.9,0.3,1.8,0.7,2.7,1.2c0.9,0.5,1.7,1,2.4,1.7  c0.7,0.7,1.3,1.5,1.7,2.5c0.4,1,0.6,2.2,0.6,3.6c0,2.4-0.5,4.3-1.4,5.8c-0.9,1.5-2.2,2.6-3.8,3.3  C535.5,164.2,533.6,164.6,531.5,164.6"></path>	<path class="st1" d="M105.6,179.5l-4.2-1.1c0,0-1.2,0.8-1.4,0.9c-0.2,0.1-1.6,0.5-1.8,0.7c-0.1,0.2-0.8,1.9-0.8,1.9l0.1,1.6  l-3.9,3.8l-2.5,1.1c0,0-0.8,1.9-1,2.1c-0.2,0.2-4.4,1.2-4.4,1.2s-1.1-0.1-1.1-0.3v-0.9c0,0-0.1-1.1-0.4-1.2c-0.3-0.1-3-0.9-3-0.9  v-0.6l2.1-2.9l1.9-1.4l1.9-1.6c0,0,2.6-1.3,3-1.4c0.4-0.1,1.5-1.6,1.6-1.7c0.1-0.1,0.7-1.8,0.9-2c0.2-0.2,1.8-2.5,1.8-2.5  s0.5,0.1,0.8,0c0.3-0.1,1.4-0.4,1.4-0.4s1.8-0.3,1.4-0.6c-0.4-0.4-0.5-0.7-0.9-0.8c-0.4-0.1-1.5,0-1.5,0l-0.3-0.6l0.9-1.1l2.2-1.7  l1.2-1.1c0,0-1.1-0.4-1.4-0.4s0-0.7,0-0.7l1.4-1.5l0.5-0.5l0.7-0.6c0,0,0.8-1,0.8-1.1c0-0.1,1.6,0.7,1.6,0.7s0.3,0.3,0.6,0.4  c0.2,0.1-0.1,1.5,0,1.8c0.1,0.3,2.9,3.6,2.9,3.6s0.7,1.1,0.8,1.6c0.1,0.6,2.4,2.3,2.4,2.3l1.3,0.1l0.3,0.2L105.6,179.5z"></path>	<path class="st1" d="M151.8,185.2v1.9c0,0.1,0,0.1,0.1,0.1c0.3,0.3,1.4,1.4,2.9,2.8c1.7,1.6,1.2,1.1,2.6,1.7c1.4,0.6,2.2,1.1,3.7,2  c1.4,0.8,2.3,2.8,2.5,3.1c0,0,0,0.1,0,0.1v0.5c0,0.1-0.1,0.2-0.1,0.2l-1.5,0.6c0,0-0.1,0-0.1,0c-0.2,0-1,0.1-1.7,0.1  c-0.4,0-0.7,0-0.9-0.1c-0.4-0.1-3.2,0-3.5,0c0,0,0,0-0.1,0l-2.5-0.6l-0.7-0.2c0,0,0,0,0,0l-1.8-0.7l-1.3-0.5  c-0.1,0-0.1-0.1-0.1-0.1c-0.1-0.2-0.2-0.7-0.1-1.1c0.1-0.3,0.2-0.6,0.3-1c0.1-0.2,0.1-0.5,0.2-0.7c0.2-0.6,0.9-1.1,1.1-1.9  c0.1-0.4-0.1-0.7-0.3-1c-0.1-0.1-0.1-0.1-0.2-0.1c-0.1,0-0.2,0.1-0.2,0.2c0,0.1-0.1,0.2-0.2,0.2l-2.4,0.7c0,0,0,0-0.1,0h-0.7  c-0.1,0-0.2-0.1-0.2-0.1c-0.1-0.2-0.2-0.6-0.2-0.9c0-0.4,0.6-1,0.6-1l2.1-1.8c0,0,0,0,0.1-0.1l1-1.8c0,0,0-0.1,0-0.1v-1.3  c0-0.1,0-0.2-0.1-0.2l-1-0.6c-0.1-0.1-0.2-0.1-0.2,0l-1.7,1c0,0-0.1,0.1-0.1,0.1l-1.2,2.9c0,0,0,0,0,0.1l-2,2.4l-0.2,0.2  c0,0-0.1,0.1-0.2,0.1h-1.3c-0.1,0-0.2-0.1-0.2-0.2c0-0.4-0.1-1.6,0-2.2c0-0.1,0-0.3,0-0.4c-0.1-0.5-0.5-1.1-0.7-1.3  c-0.1-0.1-0.1-0.2,0-0.3l2.2-2.2c0,0,0.1-0.1,0.1-0.2v-1.4c0-0.1,0-0.1-0.1-0.2l-2.8-1.5c-0.2-0.1-0.2-0.3,0-0.4l1.8-1.3  c0.1,0,0.1-0.1,0.1-0.1l1-5.6v-0.6c0-0.2,0.2-0.2,0.3-0.2l1.5,0.4h0l1.9,0.3c0.1,0,0.1,0.1,0.2,0.1l1.3,2c0,0,0,0,0.1,0.1  c0.2,0.1,0.9,0.8,1.1,1.3c0.2,0.6,0.9,1.9,1.1,2.3c0.2,0.4,1.6,1.4,2,1.7c0.5,0.3,3.1,1.7,5,2.3c1.9,0.6,2.8,1.3,3.4,1.4  c0.6,0.2,1.2,1,1.6,1.4c0.3,0.4,0.5,2.1,1.1,2.5c0.6,0.4-1.1,1.1-1.6,1.3c-0.5,0.1-1.7,0.4-2.3,0.3c-0.6-0.2-1.2-0.7-1.5-1.2  c-0.3-0.4-1.4-1.9-1.4-1.9l-1.2-1.7l0,0l-1.3-1c-0.1-0.1-0.2-0.1-0.3,0l-2.1,0.9C151.8,185,151.8,185.1,151.8,185.2"></path>	<path class="st1" d="M174,185.6c0.1,0.5,0.2,2.1,0,2.4c-0.3,0.4-1.2,1.7-1.7,2c-0.4,0.2-2.2,0.1-2.9,0c-0.1,0-0.3-0.1-0.3-0.2  l-5.7-7.4c-0.1-0.1-0.2-0.2-0.3-0.2l-7-1.8c-0.1,0-0.2-0.1-0.2-0.2l-2.7-3.2l-4.6-5.4c0,0-0.1-0.1-0.1-0.1l-4.9-2.7  c-0.2-0.1-0.5-0.1-0.7,0.1l-0.4,0.6c0,0,0,0.1-0.1,0.1c-0.3,0.3-2.5,2.1-2.6,2.5c-0.1,0.4-1,1.5-1.2,1.7c0,0,0,0.1-0.1,0.1  l-5.1,3.8c0,0,0,0,0,0l-3.2,2l-0.9,0.6c0,0,0,0-0.1,0.1l-0.9,0.8c-0.3,0.3-0.1,0.8,0.3,0.8c0.4,0,0.7,0.1,0.9,0.2  c0.4,0.4,1.2,0.6,1.8,0.7c0.3,0.1,0.4,0.4,0.3,0.6l-0.5,1.1c-0.1,0.2-0.2,0.3-0.4,0.3h-3.6l-2.5,0.4c-0.1,0-0.1,0-0.2,0.1l-2.7,1.6  c0,0-0.1,0-0.1,0.1l-0.9,0.9l-1.2,1.2c-0.1,0.1-0.2,0.1-0.2,0.1l-2.8,0.6c-0.1,0-0.2,0.1-0.2,0.1l-2.1,2c-0.2,0.1-0.2,0.4-0.1,0.5  l0.6,1.1c0.1,0.2,0,0.4-0.2,0.6l-1.1,0.7c-0.1,0.1-0.2,0.1-0.3,0.1h-2.9c0,0-0.1,0-0.1,0l-6.9-1.5c-0.2,0-0.4-0.2-0.4-0.4v-0.5  c0-0.2,0.1-0.3,0.3-0.4c0.9-0.3,3.2-1.2,3.7-1.5c0.6-0.3,4.3-3.3,4.9-3.8c0,0,0.1-0.1,0.2-0.1l3.1-1c0,0,0,0,0,0l1.3-0.3l0.6-0.1  c0.1,0,0.1,0,0.2-0.1l1.8-1.2l0.9-0.7c0,0,0.1,0,0.1-0.1l2.6-1.2c0.1,0,0.2-0.1,0.2-0.2l0.8-1.2l1.3-2c0.1-0.1,0.1-0.2,0-0.4  l-0.4-1.1c-0.1-0.2-0.3-0.3-0.6-0.3l-0.9,0.2c-0.1,0-0.1,0-0.2,0.1l-1.5,0.9l-1.8,0.4c0,0,0.1,0.1,0.1,0.3l-2,0.7  c0,0-0.1,0-0.1,0.1l-1.6,1.2l-0.7,0.5c0,0-0.1,0.1-0.1,0.1l-1.5,0.5c-0.1,0-0.1,0-0.2,0H113c-0.1,0-0.2,0-0.2-0.1  c-0.1,0-0.1-0.1-0.2-0.1v0c0,0,0,0,0-0.1l-0.5-1c-0.1-0.2,0-0.4,0.1-0.5l2-1.6l1.7-1.6c0.1-0.1,0.1-0.1,0.2-0.1l2.8-0.9  c0,0,0.1,0,0.1,0c0.2,0,1.1-0.1,1.3-0.9c0.3-0.7,0.8-1.4,0.9-1.5l0.1-0.1l0,0l1.1-0.8c0,0,0.1-0.1,0.1-0.1l1-1.4l1.5-2.1  c0,0,0,0,0-0.1l0.2-0.5c0.1-0.2,0.4-0.3,0.7-0.2l1.5,0.6c0.1,0,0.1,0.1,0.2,0.1l1.1,1.3c0,0,0.1,0.1,0.1,0.1l1.5,1  c0.1,0.1,0.1,0.1,0.2,0.2l0.3,0.8c0.1,0.2,0.3,0.3,0.5,0.3h1c0.1,0,0.2,0,0.3-0.1l0.9-0.6c0,0,0.1-0.1,0.1-0.1l1-0.4  c0,0,0.1,0,0.1,0l1.1-0.3c0.1,0,0.1,0,0.2-0.1l0.5-0.3c0.2-0.1,0.3-0.4,0.2-0.6l-0.4-0.7c0-0.1-0.1-0.1-0.2-0.2  c-0.2-0.1-0.7-0.3-1.7-0.5l-1.7-0.3H131c-0.2,0-0.4-0.1-0.5-0.3l-0.5-1.4c0-0.1,0-0.2,0-0.2l0.2-0.7c0-0.2,0.2-0.3,0.4-0.3  c0.5-0.1,1.3-0.3,1.3-0.5c0-0.3,1.1-0.7,1.5-0.9c0.4-0.1,1.4-0.6,1.7-0.8c0.1,0,0.2-0.1,0.2-0.2l0.4-0.8c0.1-0.2,0.1-0.3,0-0.5  l-0.7-1c-0.1-0.2-0.3-0.2-0.5-0.2l-1.8,0.2c-0.1,0-0.1,0-0.2,0.1l-0.6,0.4c0,0,0,0-0.1,0l-1.7,1.2c0,0,0,0-0.1,0l-0.8,0.5  c-0.2,0.1-0.5,0.1-0.7-0.2l0-0.1c-0.1-0.2-0.1-0.4,0-0.5l2.1-2.5c0,0,0.5-0.6,1.1-0.7c0.6-0.1,1.3-0.3,1.4-0.3h0l1-0.1  c0.1,0,0.3-0.1,0.3-0.2l0.9-1.2c0.1-0.2,0.1-0.3,0-0.5l-0.7-1c-0.1-0.1-0.2-0.2-0.4-0.2c-0.1,0-0.3,0-0.5,0.1l-0.5,0.2l-0.6,0.2  c-0.4,0.1-0.8-0.2-0.6-0.6l0.7-1.3c0-0.1,0.1-0.1,0.1-0.2l1-0.8c0,0,0,0,0,0l0.7-0.6c0-0.1,0.1-0.1,0.1-0.2l0.7-1.6  c0.1-0.2,0.4-0.4,0.7-0.2l1.5,0.8c0.1,0.1,0.2,0.1,0.2,0.2l1.4,3.7c0,0,0.1,0.1,0.1,0.1c0.4,0.5,3.2,3.6,3.4,4.4  c0.2,0.9,1.9,3.4,2.2,4.3c0.3,0.7,1.7,2.2,2.2,2.7c0.1,0.1,0.2,0.2,0.4,0.2h2.9c0.2,0,0.4,0.1,0.4,0.3c0.3,0.5,0.9,1.7,1.3,2.2  c0.4,0.6,3.4,4.1,3.7,4.4c0,0,0,0,0,0.1l1.5,2.5c0.1,0.1,0.2,0.2,0.4,0.2h1c0.4,0,0.6-0.4,0.4-0.7l-0.5-0.7c0,0,0,0,0,0l-1.1-2.1  l-0.8-1.7c0,0,0,0,0,0c0,0,0-0.1,0-0.1c0-0.3,0.3-0.5,0.7-0.4c0.8,0.3,2,0.7,2.2,1.2c0.3,0.7,5.3,6.2,5.7,6.7c0,0,0,0,0.1,0.1  l5.8,4.4c0,0,0,0,0.1,0.1l2,2C173.9,185.4,173.9,185.5,174,185.6"></path>	<path class="st2" d="M226.9,122.9c0,28.4-12.2,54-31.7,71.7c-0.5-0.5-1-0.9-1-0.9s-5.6-1.9-5.9-2c-0.3-0.1-4.6-4.6-4.8-5.4  c-0.2-0.9-2.2-2.4-2.2-2.4s-3.6-2.6-4-2.9c-0.5-0.3-3.7-1.1-4.2-1.1c-0.5,0-2.5-2-2.5-2s-1.7-2.7-1.9-3.3c-0.2-0.6-5.1-4.6-5.1-4.6  s-9.5-2.3-9.9-2.4c-0.5-0.2-1.4-0.7-1.9-1.4c-0.5-0.7-3.1-5.7-3.6-6.7c-0.5-1-5.3-5.2-5.6-5.6c-0.3-0.4-1.9-2.6-2.3-2.7  c-0.5-0.1-3.7-5.2-3.7-5.2l-2.2,1c0,0-0.9,1.3-1.2,1.7c-0.3,0.4-1.7,1.9-2,2.6c-0.3,0.7-0.6,2-0.8,2.6c-0.2,0.6-1.4,1.6-1.7,2  c-0.3,0.4-2.2,3.3-2.2,3.3l-4.3,7.3l-4.3,5.3l-1,1c0,0-0.1,0-0.1,0c-0.4-0.1-1.2-0.6-1.6-1.2c-0.4-0.6-2.6-4.8-3-5.7  c-0.4-0.9-4.5-4.4-4.7-4.7c-0.3-0.4-1.6-2.2-2-2.3c-0.4-0.1-3.2-4.4-3.2-4.4l-1.8,0.9c0,0-0.8,1.1-1,1.5c-0.3,0.4-1.4,1.6-1.7,2.2  c-0.3,0.6-0.5,1.7-0.6,2.2c-0.1,0.5-1.2,1.3-1.4,1.7c-0.3,0.4-1.8,2.8-1.8,2.8l-3.7,6.2l-3.7,4.5l-4.2,4l-4.7,4l-5.1,2.5l-3.9,6.4  l-2.1,2.2l-0.9,0.5C45.4,178,32.7,152,32.7,122.9c0-53.6,43.5-97.1,97.1-97.1C183.4,25.8,226.9,69.3,226.9,122.9"></path>	<path class="st1" d="M124,17.6c-53.8,2.9-97.2,46.7-99.6,100.5c-1.4,31.1,10.8,59.5,31.2,79.6c0.4,0.4,0.9,0.6,1.5,0.6  c1.8,0,2.8-2.2,1.4-3.5C40,176.5,28.5,151,28.5,122.9c0-56.8,46.9-102.8,104-101.3c52.7,1.4,96,43.6,98.5,96.3  c1.4,30.1-10.3,57.5-29.9,76.9c-1.3,1.3-0.4,3.5,1.4,3.5c0.5,0,1.1-0.2,1.5-0.6c19.3-19.1,31.3-45.6,31.3-74.9  C235.2,62.9,184.8,14.4,124,17.6"></path>	<path class="st3" d="M62.3,198.4h0.2l-0.1,0.1C62.3,198.5,62.3,198.5,62.3,198.4"></path>	<path class="st3" d="M197.3,198.4C197.3,198.4,197.2,198.5,197.3,198.4c-0.1,0.1-0.1,0-0.1,0H197.3z"></path>	<path class="st4" d="M85.5,98.1v21c0,0.8,0,1.8,0.1,3c0.1,1.2,0.1,2.3,0.2,3.1h-0.5c-0.6-0.6-1.2-1.3-1.9-2.1  c-0.8-0.8-1.5-1.5-2.2-2.3c-0.7-0.7-1.3-1.3-1.8-1.7l-21.8-21h-8.3V138h8.5v-20.5c0-1.6,0-3.1-0.1-4.3c0-1.3-0.1-2.1-0.1-2.6H58  c0.7,0.7,1.6,1.7,2.8,2.9c1.1,1.2,2.2,2.3,3.3,3.3L85.9,138H94V98.1H85.5z"></path>	<path class="st4" d="M142.3,122.6c0,1.9-0.6,3.5-1.8,4.8c-1.2,1.3-2.8,2.3-5,2.9c-2.1,0.6-4.7,1-7.7,1c-3.1,0-5.8-0.5-8.1-1.5  c-2.3-1-4-2.4-5.3-4.3c-1.2-1.9-1.9-4.2-1.9-6.8v-1.4c0-2.6,0.6-4.9,1.9-6.7c1.2-1.9,3-3.3,5.2-4.3c2.3-1,4.9-1.5,8-1.5  c2.9,0,5.4,0.3,7.5,1c2.1,0.7,3.8,1.6,5,2.9c1.2,1.3,1.8,2.9,1.8,4.8h8.6c0-3.4-1-6.3-2.9-8.7c-1.9-2.4-4.6-4.2-8-5.5  c-3.4-1.3-7.4-1.9-11.9-1.9c-7.9,0-13.9,1.8-18.1,5.4c-4.2,3.6-6.3,8.7-6.3,15.2c0,4.5,0.9,8.3,2.7,11.3c1.8,3.1,4.5,5.4,8.2,7  c3.6,1.6,8.1,2.4,13.5,2.4c4.6,0,8.6-0.6,12-1.9c3.4-1.3,6.1-3.1,8-5.5c1.9-2.4,2.8-5.3,2.8-8.6H142.3z"></path>	<polygon class="st4" points="196.1,98.1 196.1,113.8 169,113.8 169,98.1 160.2,98.1 160.2,138 169,138 169,121.5 196.1,121.5   196.1,138 205,138 205,98.1  "></polygon></g></svg>