<svg width="197" height="64" viewBox="0 0 197 64" fill="none" xmlns="http://www.w3.org/2000/svg">
<g id="Logo / Childrens / Full Color">
<path id="Logo" fill-rule="evenodd" clip-rule="evenodd" d="M66.8696 8.00852L67.1943 8.00254L67.2209 8.00224C67.5722 7.99829 67.9694 7.99382 68.2715 8.04342L68.5932 8.13815C68.5932 8.13815 68.5862 8.15111 68.5842 8.15311C68.842 8.19399 69.2217 8.39342 69.5085 8.7115C69.5304 8.73842 71.9835 11.4187 74.6443 14.1897L77.2432 17.0156C77.2432 17.0156 77.9766 17.8103 78.2714 18.1314C78.2364 16.532 78.1045 10.274 78.1045 10.274C78.0875 9.18613 77.9337 8.92887 77.6219 8.79027C77.3881 8.69355 76.9804 8.69355 76.7586 8.69355C76.3839 8.69355 76.305 8.50509 76.305 8.34655C76.305 8.00055 76.7116 8.00055 76.9315 8.00055L78.4362 8.03345L79.0478 8.0514L79.3615 8.03844L80.7634 8.00055C80.9492 8.00055 81.3379 8.00055 81.3379 8.34655C81.3379 8.47418 81.272 8.69355 80.8473 8.69355L80.3727 8.74042C80.026 8.84611 79.8691 9.06748 79.8501 10.1274L79.6573 21.6931C79.6573 21.8946 79.6573 22.442 79.2596 22.442C78.9978 22.442 78.76 22.2117 78.5432 21.9873L75.7344 19.0597L73.3853 16.5948C71.9131 15.0624 70.4246 13.3505 69.6711 12.4838L69.6711 12.4838L69.6164 12.4208C69.6164 12.4208 69.5434 12.3361 69.4835 12.2713C69.5254 13.8766 69.6663 19.5393 69.6663 19.5393C69.7013 21.063 69.9671 21.3342 70.1589 21.407C70.4417 21.5117 70.7624 21.5226 71.0112 21.5226C71.323 21.5226 71.4849 21.6363 71.4849 21.8527C71.4849 22.2186 71.0482 22.2186 70.9053 22.2186L69.2217 22.1827L68.7391 22.1668L68.4503 22.1778L66.8526 22.2186C66.6827 22.2186 66.2951 22.2186 66.2951 21.8527C66.2951 21.733 66.352 21.5226 66.7467 21.5226C66.9146 21.5226 67.2403 21.5137 67.4851 21.4419C67.8028 21.3362 67.8838 20.9244 67.8988 19.3449L67.8898 18.5013L67.8838 10.3368L67.8818 10.1364L67.8638 9.51818C67.8328 8.93585 67.7169 8.77033 67.2673 8.67062L66.7367 8.62276C66.5578 8.62276 66.423 8.49712 66.423 8.33259C66.423 8.11721 66.5758 8.00852 66.8696 8.00852ZM129.936 10.7599L129.661 10.7649C129.41 10.7649 129.28 10.8516 129.28 11.0241C129.28 11.1558 129.394 11.2575 129.547 11.2575L129.997 11.2954C130.38 11.3731 130.479 11.5078 130.504 11.9734L130.52 12.47L130.523 12.6275L130.528 19.2335L130.535 19.9106C130.523 21.1749 130.454 21.506 130.182 21.5858C129.974 21.6466 129.698 21.6536 129.556 21.6536C129.219 21.6536 129.172 21.8221 129.172 21.9178C129.172 22.21 129.501 22.21 129.646 22.21L131.001 22.179L131.249 22.1691L131.659 22.183L133.09 22.21C133.212 22.21 133.582 22.21 133.582 21.9178C133.582 21.7453 133.445 21.6536 133.18 21.6536C132.968 21.6536 132.695 21.6446 132.455 21.5588C132.291 21.504 132.067 21.2836 132.038 20.0641C132.038 20.0641 131.917 15.5312 131.881 14.2459C131.932 14.2987 131.993 14.3655 131.993 14.3655L132.075 14.4546L132.075 14.4547C132.727 15.1598 133.969 16.5025 135.198 17.7079L137.195 19.6812L139.581 22.0265C139.765 22.206 139.967 22.3894 140.192 22.3894C140.53 22.3894 140.53 21.9517 140.53 21.7902L140.693 12.5288C140.71 11.6813 140.844 11.5028 141.137 11.418L141.54 11.3811C141.902 11.3811 141.959 11.2056 141.959 11.1019C141.959 10.8227 141.627 10.8227 141.469 10.8227L140.278 10.8556L140.009 10.8656L139.491 10.8516L138.212 10.8227C138.026 10.8227 137.679 10.8227 137.679 11.1019C137.679 11.2306 137.745 11.3811 138.067 11.3811C138.255 11.3811 138.6 11.3811 138.799 11.4569C139.064 11.5686 139.194 11.774 139.21 12.6455C139.21 12.6455 139.323 17.6571 139.351 18.9384C139.101 18.6801 138.476 18.0449 138.476 18.0449L136.268 15.7835C134.005 13.5618 131.921 11.3492 131.901 11.3263C131.659 11.071 131.337 10.9145 131.117 10.8796C131.118 10.8792 131.119 10.8776 131.12 10.8757L131.124 10.8686L130.852 10.7908C130.59 10.7535 130.251 10.7568 129.95 10.7598L129.936 10.7599ZM185.426 30.5026C184.734 31.5516 183.598 32.0302 183.598 32.0302L183.95 32.6554C183.95 32.6554 187.147 31.5446 187.015 28.3647C186.95 26.7943 186.049 26.1531 184.853 26.2249C183.849 26.2847 183.092 27.0445 183.092 28.1633C183.092 29.2931 183.963 30.0838 184.942 30.0838C185.014 30.0838 185.154 30.0818 185.271 30.0629C185.271 30.0629 185.497 30.021 185.611 29.9841C185.765 29.9332 185.687 30.1067 185.426 30.5026ZM109.447 30.0841C108.925 30.0841 108.47 29.8937 108.094 29.5167C107.719 29.1398 107.529 28.6841 107.529 28.1636C107.529 27.6302 107.719 27.1695 108.095 26.7946C108.471 26.4167 108.926 26.2242 109.447 26.2242C109.978 26.2242 110.437 26.4167 110.814 26.7946C111.19 27.1695 111.38 27.6302 111.38 28.1636C111.38 28.6841 111.19 29.1398 110.814 29.5167C110.438 29.8937 109.979 30.0841 109.447 30.0841ZM108.198 49.4504H110.711V32.8741H108.198V49.4504ZM67.8327 46.1112C70.0759 48.6918 73.1784 50 77.0533 50C79.0896 50 80.9581 49.6111 82.6088 48.8453C84.2654 48.0745 85.6663 46.9727 86.7704 45.5697L86.9053 45.3972L84.844 43.8357L84.7121 43.9903C82.7017 46.3226 80.1707 47.5072 77.1872 47.5072C74.4724 47.5072 72.1932 46.6287 70.4136 44.8977C68.6381 43.1657 67.7358 40.975 67.7358 38.3874C67.7358 36.6733 68.1395 35.1088 68.9338 33.7388C69.7292 32.3677 70.8663 31.2609 72.3101 30.4503C73.7599 29.6366 75.3556 29.2238 77.0533 29.2238C78.609 29.2238 80.0558 29.5389 81.3548 30.1611C82.6487 30.7783 83.7758 31.7026 84.7051 32.9092L84.836 33.0797L86.8983 31.5012L86.7744 31.3317C85.7063 29.854 84.3194 28.6893 82.6507 27.8727C80.9831 27.055 79.0896 26.6412 77.0233 26.6412C73.5991 26.6412 70.7094 27.762 68.4342 29.9746C66.1551 32.1882 65 34.9543 65 38.195C65 41.2711 65.9532 43.9345 67.8327 46.1112ZM101.842 41.5346V49.4508H104.356V40.9243C104.356 38.7007 104.124 37.0365 103.668 35.9805C103.208 34.9106 102.483 34.0471 101.513 33.4139C100.547 32.7807 99.4238 32.4597 98.1758 32.4597C96.9648 32.4597 95.8247 32.7449 94.7855 33.3102C93.9053 33.7878 93.0789 34.4799 92.3245 35.3693V26.6414H89.8106V49.4508H92.3245V43.3144C92.3245 41.2035 92.4225 39.7437 92.6153 38.9749C92.9191 37.7983 93.5575 36.7982 94.5148 36.0005C95.466 35.2068 96.5571 34.8039 97.7591 34.8039C98.8043 34.8039 99.6586 35.0602 100.295 35.5657C100.933 36.0723 101.379 36.8431 101.624 37.8591C101.769 38.4654 101.842 39.7028 101.842 41.5346ZM117.138 49.4512H114.625V26.6418H117.138V49.4512ZM128.105 34.8916C126.99 34.8916 125.947 35.1688 125.004 35.7152C124.061 36.2626 123.301 37.0414 122.745 38.0295C122.186 39.0207 121.903 40.0836 121.903 41.1855C121.903 42.2813 122.189 43.3423 122.752 44.3394C123.314 45.3385 124.08 46.1272 125.027 46.6836C125.973 47.239 127.003 47.5212 128.089 47.5212C129.186 47.5212 130.24 47.241 131.221 46.6896C132.201 46.1402 132.965 45.3854 133.494 44.4461C134.023 43.5018 134.291 42.4249 134.291 41.2443C134.291 39.4445 133.689 37.9189 132.502 36.7103C131.316 35.5038 129.836 34.8916 128.105 34.8916ZM127.874 49.8675C125.535 49.8675 123.509 49.0089 121.853 47.3148C120.199 45.6247 119.361 43.5397 119.361 41.1177C119.361 38.7455 120.207 36.6864 121.877 35.0003C123.547 33.3141 125.585 32.4596 127.933 32.4596C129.293 32.4596 130.541 32.7517 131.64 33.3291C132.573 33.8187 133.417 34.5216 134.158 35.423V26.6413H136.64V49.4507H134.158V47.0366C133.365 47.9011 132.482 48.5752 131.531 49.0429C130.418 49.5903 129.187 49.8675 127.874 49.8675ZM140.473 32.8745V49.4508H143.031V43.7741C143.031 41.0061 143.159 39.1494 143.408 38.254C143.733 37.1033 144.207 36.2468 144.816 35.7063C145.418 35.1759 146.045 34.9076 146.681 34.9076C146.949 34.9076 147.29 34.9964 147.696 35.1719L147.866 35.2457L149.17 33.1457L148.973 33.036C148.288 32.6531 147.633 32.4597 147.023 32.4597C146.221 32.4597 145.441 32.703 144.704 33.1846C144.124 33.5625 143.563 34.099 143.031 34.785V32.8745H140.473ZM163.264 39.3158C162.997 38.3666 162.627 37.5908 162.161 37.0075C161.655 36.3753 160.972 35.8568 160.131 35.4649C159.291 35.076 158.396 34.8776 157.469 34.8776C155.944 34.8776 154.615 35.3732 153.518 36.3514C152.771 37.0155 152.185 38.0126 151.773 39.3158H163.264ZM157.559 49.8675C154.867 49.8675 152.727 48.9711 151.204 47.2021C149.687 45.4432 148.919 43.426 148.919 41.2064C148.919 39.1204 149.57 37.2328 150.855 35.5985C152.487 33.5165 154.702 32.4596 157.439 32.4596C160.254 32.4596 162.536 33.5405 164.217 35.6723C165.413 37.177 166.031 39.0795 166.05 41.3241L166.052 41.5404H151.499C151.578 43.2545 152.161 44.6834 153.232 45.7882C154.344 46.9379 155.74 47.5212 157.379 47.5212C158.175 47.5212 158.959 47.3806 159.71 47.1054C160.46 46.8312 161.107 46.4623 161.63 46.0076C162.156 45.5519 162.737 44.7991 163.359 43.768L163.464 43.5935L165.587 44.7063L165.491 44.8958C164.908 46.0395 164.22 46.9808 163.451 47.6878C162.676 48.3967 161.798 48.9421 160.836 49.3101C159.872 49.68 158.77 49.8675 157.559 49.8675ZM180.321 41.5346V49.4508H182.834V40.9243C182.834 38.7107 182.603 37.0485 182.148 35.9885C181.687 34.9136 180.963 34.0481 179.993 33.4139C179.026 32.7807 177.902 32.4597 176.655 32.4597C175.434 32.4597 174.289 32.7458 173.25 33.3102C172.371 33.7868 171.552 34.4769 170.804 35.3653V32.8745H168.29V49.4508H170.804V43.3144C170.804 41.2115 170.902 39.7517 171.095 38.9749C171.399 37.7983 172.038 36.7982 172.994 36.0005C173.945 35.2068 175.038 34.8039 176.24 34.8039C177.287 34.8039 178.141 35.0602 178.783 35.5667C179.424 36.0713 179.866 36.8411 180.095 37.8611C180.246 38.4664 180.321 39.7038 180.321 41.5346ZM191.81 49.8676C190.851 49.8676 189.919 49.6552 189.042 49.2374C188.167 48.8196 187.433 48.2343 186.858 47.4984L186.749 47.3568L188.335 45.557L188.499 45.7385C189.513 46.8822 190.597 47.4625 191.721 47.4625C192.508 47.4625 193.156 47.2182 193.706 46.7166C194.25 46.2201 194.516 45.6557 194.516 44.9906C194.516 44.4532 194.336 43.9656 193.984 43.5408C193.621 43.114 192.761 42.5516 191.429 41.8736C189.945 41.1098 188.916 40.338 188.371 39.5832C187.82 38.8164 187.543 37.9299 187.543 36.9488C187.543 35.6654 187.987 34.5846 188.866 33.737C189.742 32.8894 190.863 32.4597 192.197 32.4597C193.738 32.4597 195.301 33.2135 196.845 34.7012L197 34.8508L195.361 36.5409L195.205 36.3904C194.139 35.3573 193.091 34.8328 192.091 34.8328C191.465 34.8328 190.945 35.0333 190.5 35.4441C190.061 35.8509 189.846 36.3076 189.846 36.8431C189.846 37.3197 190.025 37.7654 190.392 38.2051C190.771 38.6668 191.59 39.2222 192.829 39.8574C194.425 40.683 195.483 41.4608 196.063 42.2355C196.635 43.0253 196.925 43.9217 196.925 44.9029C196.925 46.2809 196.432 47.4665 195.46 48.4247C194.489 49.383 193.259 49.8676 191.81 49.8676ZM88.7299 21.3514C86.146 21.3514 84.3405 19.1687 84.3405 16.0437C84.3405 12.1958 86.5227 11.6194 87.8247 11.6194C90.2867 11.6194 92.0063 13.7413 92.0063 16.7786C92.0063 20.9077 89.7151 21.3514 88.7299 21.3514ZM88.2553 10.5804C83.9248 10.5804 81.9544 13.6496 81.9544 16.4984C81.9544 19.3502 83.8789 22.4194 88.1054 22.4194C91.8264 22.4194 94.4233 19.8767 94.4233 16.2371C94.4233 12.7462 92.0612 10.5804 88.2553 10.5804ZM100.081 16.6105C100.644 16.6105 100.804 16.5596 101.036 16.3931C101.338 16.1767 101.842 15.6183 101.842 14.329C101.842 12.3388 100.522 11.8093 99.7419 11.8093C99.4991 11.8093 99.1574 11.8153 98.9995 11.8621C98.9995 11.8621 98.9965 11.8631 98.9925 11.8651C98.9925 11.8771 98.9896 11.908 98.9896 11.908V16.3642C98.9896 16.3642 98.9975 16.4649 98.9995 16.4699C99.0015 16.4699 99.0095 16.4739 99.0115 16.4749C99.2703 16.5596 99.679 16.6105 100.081 16.6105ZM106.718 21.5732L107.105 21.6141C107.361 21.6141 107.453 21.7696 107.453 21.8983C107.453 22.1106 107.301 22.2104 107.002 22.2104H105.591C104.751 22.2104 104.346 22.1396 103.922 21.9132C103.275 21.5722 102.711 20.9051 101.831 19.7076L101.066 18.6456L100.369 17.6944C100.344 17.6644 100.316 17.6515 100.227 17.6515C100.227 17.6515 99.2334 17.6265 98.9896 17.6216V17.7781C98.9896 19.1262 98.9896 20.2929 99.0615 20.9001C99.1105 21.3728 99.2094 21.5203 99.4971 21.5562L100.201 21.6141C100.456 21.6141 100.547 21.7696 100.547 21.8983C100.547 22.0169 100.487 22.2104 100.081 22.2104L98.375 22.1814L97.8994 22.1685L97.3009 22.1844L96.0869 22.2104C95.6812 22.2104 95.6213 22.0169 95.6213 21.8983C95.6213 21.7946 95.6742 21.6141 96.0279 21.6141C96.0279 21.6141 96.5245 21.5592 96.5285 21.5592C96.6864 21.5263 96.7604 21.3608 96.8253 20.8971C96.8972 20.2929 96.8972 19.1312 96.8972 17.7921V15.2095C96.8972 12.9749 96.8972 12.5731 96.8703 12.1074C96.8403 11.6358 96.7424 11.5032 96.3577 11.4224C96.2668 11.3995 96.0399 11.3835 95.8201 11.3835C95.4724 11.3835 95.3995 11.221 95.3995 11.0834C95.3995 10.7852 95.7582 10.7852 95.8941 10.7852L97.3369 10.8161L97.9294 10.8281L99.0155 10.8062L100.023 10.7852C100.937 10.7852 101.989 10.865 102.848 11.4453C103.371 11.7953 103.932 12.619 103.932 13.5932C103.932 14.8097 103.35 15.8058 102.034 16.8986C102.159 17.0572 102.436 17.4022 102.436 17.4022L102.45 17.4196L102.45 17.4197C103.536 18.7735 104.393 19.8415 105.147 20.6229C105.91 21.4068 106.474 21.523 106.708 21.5711L106.718 21.5732ZM105.437 10.9906C105.412 11.0864 105.12 12.4524 105.12 12.7117C105.12 12.9809 105.221 13.1165 105.423 13.1165C105.589 13.1165 105.698 13.0148 105.748 12.8134C105.768 12.7396 105.822 12.5851 105.978 12.3507C106.146 12.1044 106.429 12.0267 107.283 11.9997C107.283 11.9997 108.815 11.9599 109.323 11.9479V17.7921C109.323 19.1312 109.323 20.2929 109.249 20.9001C109.202 21.3359 109.117 21.5263 108.954 21.5592C108.95 21.5592 108.45 21.6141 108.45 21.6141C108.096 21.6141 108.046 21.7946 108.046 21.8983C108.046 22.0169 108.105 22.2104 108.509 22.2104L109.69 22.1864L110.381 22.1685L111.082 22.1844L112.714 22.2104C113.131 22.2104 113.164 21.972 113.164 21.8983C113.164 21.8314 113.136 21.6141 112.758 21.6141L112.025 21.5562C111.741 21.5203 111.637 21.3698 111.591 20.9131C111.513 20.2929 111.513 19.1312 111.513 17.7921V11.9479C111.801 11.9529 113.211 11.9868 113.211 11.9868C114.193 12.0077 114.767 12.252 114.802 12.6529L114.817 12.8164C114.826 12.969 114.846 13.2621 115.149 13.2621C115.41 13.2621 115.439 12.9808 115.449 12.8808L115.45 12.8762C115.451 12.8613 115.495 11.1572 115.495 11.1572C115.495 10.9807 115.495 10.6855 115.206 10.6855L114.938 10.7294L114.772 10.7603L114.76 10.7619C114.553 10.7879 114.234 10.8281 113.782 10.8281H107.902C107.428 10.8281 106.865 10.8022 106.434 10.7583C106.231 10.7424 106.108 10.6887 106.009 10.6459L106.008 10.6456L105.778 10.5798C105.532 10.5798 105.469 10.8461 105.437 10.9906ZM118.134 15.8582C118.134 18.9822 119.941 21.164 122.523 21.164C123.509 21.164 125.804 20.7183 125.804 16.5921C125.804 13.5509 124.084 11.43 121.62 11.43C120.318 11.43 118.134 12.0053 118.134 15.8582ZM115.75 16.3109C115.75 13.4611 117.719 10.394 122.051 10.394C125.854 10.394 128.218 12.5597 128.218 16.0467C128.218 19.6872 125.622 22.2279 121.903 22.2279C117.673 22.2279 115.75 19.1607 115.75 16.3109Z" fill="#231F20"/>
<g id="Mark / Balloon">
<g id="Mark">
<path id="Fill 21" fill-rule="evenodd" clip-rule="evenodd" d="M46.2984 54.2908L42.8544 54.6178L42.5204 52.8898L45.8184 51.6328L46.2984 54.2908ZM39.1644 56.5048L38.4094 53.3898L41.6214 53.1858L41.9134 54.8738L39.1644 56.5048ZM56.9994 21.0148C56.8944 20.0958 56.6584 17.4278 54.9454 14.2098C55.0534 14.3468 55.0034 14.2478 54.5934 13.6228C54.1484 13.0178 53.9804 12.8018 53.9684 12.8028C52.2534 10.6138 50.5064 8.86781 47.6514 7.53681C47.0284 7.24681 44.8114 6.70181 44.4034 6.76581C43.3194 5.63281 41.7844 4.73181 39.9734 4.28781C37.5844 3.70081 35.2554 4.04181 33.5784 5.04081C33.5684 5.04281 33.5584 5.04681 33.5474 5.04981C33.1024 5.19081 32.7774 5.04781 32.3264 4.96381C31.8284 4.86981 31.3234 4.81281 30.8174 4.79481C30.4794 4.78381 30.1334 4.79381 29.7854 4.81581C29.7634 4.81781 29.7414 4.81881 29.7194 4.81981C29.5594 4.83181 29.4004 4.84781 29.2394 4.86581C29.1214 4.87881 29.0034 4.89181 28.8874 4.90881C28.8504 4.91381 28.8144 4.92181 28.7784 4.92781C28.5354 4.96581 28.2974 5.01281 28.0634 5.06881C27.2534 5.25581 26.4674 5.53581 25.7684 5.91781C25.6104 6.00381 25.4744 6.11681 25.3424 6.23581C24.9674 6.48781 24.6274 6.76681 24.3254 7.06981C24.2594 7.10081 24.1924 7.12381 24.1234 7.14281C22.7394 7.11081 21.2394 7.43081 19.8004 8.14181C17.8864 9.08681 16.4544 10.5378 15.6904 12.1088C14.1304 12.4578 12.5224 13.3198 11.1544 14.6608C9.1304 16.6468 8.1464 19.1788 8.3394 21.3258C8.3084 21.4028 8.2734 21.4778 8.2244 21.5448C8.0244 21.8228 7.7594 22.0548 7.5634 22.3418C7.1204 22.9878 6.7964 23.7118 6.5474 24.4528C6.3294 25.0998 6.1674 25.7678 6.0634 26.4418C6.0224 26.7048 5.9784 28.0828 6.0114 28.4468C6.0764 29.1548 6.0204 29.8818 6.2114 30.5738C6.4534 31.4468 6.5704 32.3618 6.8374 33.2398C7.3384 34.8888 8.0624 36.5078 9.0164 37.9458C10.8754 40.7468 13.3234 43.2858 16.1504 45.0438C16.8214 45.4608 21.4634 47.4828 22.3414 47.7728C24.0044 48.3238 26.5664 48.9688 28.2604 49.4058C30.3504 49.9448 32.1774 50.0468 33.8934 50.5958C34.3884 50.7538 34.4994 50.9268 34.9954 51.1088C35.9104 51.4468 36.7354 52.0278 37.2824 52.8438C37.5914 53.3038 37.8684 53.9338 37.9564 54.4898C38.0184 54.8838 38.3014 56.2038 38.3714 56.6378C38.4864 57.3448 38.6084 60.7858 38.7684 60.8878C39.2234 61.1768 43.5474 61.6538 43.7204 61.6378C44.0244 61.6078 44.5904 61.0378 44.8454 60.8568C45.2184 60.5938 45.5884 60.3258 45.9514 60.0488C46.3124 59.7738 46.6684 59.4908 47.0134 59.1958C47.1844 59.0498 47.6064 58.7488 47.7724 58.5958C47.7464 58.2168 47.3794 55.4088 47.1414 54.3168C47.0764 54.0198 46.8084 52.6378 46.7614 52.3838C46.6724 51.8918 46.5624 51.3998 46.4644 50.9098C46.3404 50.2878 46.2764 49.6698 46.2924 49.0328C46.3834 45.6188 48.5854 43.4678 50.3604 40.7228C51.0304 39.6858 51.8974 38.2138 52.4894 37.1418C52.9034 36.3948 53.2704 35.6168 53.6584 34.8558C54.0194 34.1508 54.3754 33.4438 54.7404 32.7408C55.2764 31.7108 56.4534 27.6618 56.5984 26.7708C56.7514 25.8278 56.8644 24.8768 56.9294 23.9238C56.9914 23.0108 57.1194 22.0718 56.9994 21.0148Z" fill="#231F20"/>
<path id="Fill 22" fill-rule="evenodd" clip-rule="evenodd" d="M8.85121 21.9715C8.85121 21.9715 3.21121 29.4515 11.7532 39.9045C16.2652 45.4245 21.6232 46.5985 25.7832 47.9475C30.0052 49.3155 34.1362 49.7965 34.1362 49.7965L34.8382 48.9905C34.8382 48.9905 26.3462 44.8135 21.9162 41.6485C18.2932 39.0595 15.0372 36.6575 12.2112 30.8115C9.93421 26.0975 8.85121 21.9715 8.85121 21.9715Z" fill="#EB1946"/>
<path id="Fill 23" fill-rule="evenodd" clip-rule="evenodd" d="M15.588 13.4359C15.588 13.4359 13.053 13.3699 11.239 15.5699C8.865 18.4519 9.114 20.5909 9.173 21.0109C9.231 21.4319 10.297 25.1589 11.902 28.7899C13.507 32.4219 16.046 35.7209 18.417 37.8619C20.788 40.0039 23.91 42.4589 25.863 43.4859C27.816 44.5139 35.253 48.5739 35.253 48.5739L36.392 47.5969C36.392 47.5969 31.362 43.0539 25.816 36.3659C20.271 29.6779 19.88 27.4559 17.993 22.2829C16.04 16.9299 15.588 13.4359 15.588 13.4359Z" fill="#00A6CE"/>
<path id="Fill 24" fill-rule="evenodd" clip-rule="evenodd" d="M16.4293 13.2767C16.4293 13.2767 16.7733 10.8907 19.2823 9.5107C21.7903 8.1307 24.4193 8.0387 24.4193 8.0387C24.4193 8.0387 26.5433 11.1897 28.4423 15.1867C30.4023 19.3117 32.8833 24.7217 33.9213 27.7487C35.0073 30.9167 36.0723 34.4357 37.4093 38.7517C38.3143 41.6717 38.7823 46.1767 38.7823 46.1767L37.4403 46.9477C37.4403 46.9477 36.5553 46.6297 32.6513 42.5737C29.6113 39.4167 23.9073 33.6337 21.1693 27.8807C18.7373 22.7687 17.0853 16.4257 16.9603 15.8667C16.8363 15.3077 16.4293 13.2767 16.4293 13.2767Z" fill="#F58A1E"/>
<path id="Fill 25" fill-rule="evenodd" clip-rule="evenodd" d="M33.8565 6.2122C33.8565 6.2122 32.7585 5.3992 30.0605 5.6802C27.3625 5.9612 25.0865 7.5322 25.0865 7.5322C25.0865 7.5322 26.4185 9.6432 28.3695 13.4232C30.3215 17.2052 31.9975 20.5162 33.8005 25.0692C35.6035 29.6242 37.2565 35.6592 38.0155 38.1062C38.8225 40.7092 39.5555 45.9252 39.5555 45.9252L41.4675 45.5572C41.4675 45.5572 43.3025 37.3952 43.0325 32.6262C43.5285 27.1572 42.7805 23.0732 41.9435 19.5082C41.6155 17.5612 39.5595 13.2582 37.4685 10.2802C36.3735 8.7182 33.8565 6.2122 33.8565 6.2122Z" fill="#265EAB"/>
<path id="Fill 26" fill-rule="evenodd" clip-rule="evenodd" d="M34.4903 5.7249C34.4903 5.7249 36.1073 4.3109 38.7163 4.6749C40.9733 4.9899 43.0863 6.1789 43.6483 6.8389C44.2103 7.4979 48.9423 11.9059 49.8033 17.3899C50.6263 24.4839 49.7803 28.9499 49.1873 31.4249C48.1223 35.8659 46.2293 40.8199 45.9063 41.8429C45.5833 42.8649 44.6183 45.2579 44.6183 45.2579L42.2923 45.4779C42.2923 45.4779 43.8113 38.7129 44.0853 35.1919C44.3593 31.6699 44.5293 25.8039 43.4373 20.7709C42.3453 15.7379 41.8213 14.6379 40.0713 12.0259C38.3213 9.4139 36.8323 8.0429 36.3053 7.5019C35.8513 7.0369 34.4903 5.7249 34.4903 5.7249Z" fill="#FFD500"/>
<path id="Fill 27" fill-rule="evenodd" clip-rule="evenodd" d="M45.2472 45.2498L46.3302 45.3938C46.3302 45.3938 54.7902 33.7348 55.8182 27.7668C56.8462 21.7978 56.9412 19.8408 54.7982 15.3738C52.6542 10.9058 49.5432 9.5148 48.3612 8.8258C47.1792 8.1368 45.3142 7.8418 45.3142 7.8418C45.3142 7.8418 49.0992 10.7548 50.0362 16.4008C50.9722 22.0478 50.3092 28.9308 49.7282 31.3238C49.0662 34.0518 48.0212 37.9688 47.7202 38.7778C47.4172 39.5878 45.2472 45.2498 45.2472 45.2498Z" fill="#77BC43"/>
<path id="Fill 28" fill-rule="evenodd" clip-rule="evenodd" d="M34.7916 50.1463C34.7916 50.1463 37.5606 47.4223 40.2566 46.7953C42.9526 46.1683 45.9766 46.1343 45.9766 46.1343L45.1296 49.5963C45.1296 49.5963 42.8466 49.6283 41.2426 50.4353C39.6396 51.2423 37.8516 52.4523 37.8516 52.4523C37.8516 52.4523 37.1026 51.4613 36.4966 51.0373C35.9236 50.6353 34.7916 50.1463 34.7916 50.1463Z" fill="#265EAB"/>
<path id="Fill 29" fill-rule="evenodd" clip-rule="evenodd" d="M38.3033 53.0643L40.4293 51.6273L41.0463 51.2683L41.5113 52.8213L38.3033 53.0643Z" fill="#00A6CE"/>
<path id="Fill 30" fill-rule="evenodd" clip-rule="evenodd" d="M42.4137 52.5135L42.0467 50.9965L45.5357 50.4095L45.6637 51.2055L42.4137 52.5135Z" fill="#00A6CE"/>
<path id="Fill 31" fill-rule="evenodd" clip-rule="evenodd" d="M43.2721 56.7664L42.9001 55.0964L46.3361 54.6844L43.2721 56.7664Z" fill="#00A6CE"/>
<path id="Fill 32" fill-rule="evenodd" clip-rule="evenodd" d="M42.3146 56.9354L41.9816 55.5064L39.2206 57.1514L42.3146 56.9354Z" fill="#00A6CE"/>
<path id="Fill 33" fill-rule="evenodd" clip-rule="evenodd" d="M42.6017 57.6346L39.2127 57.7266L39.4517 60.2446L43.0557 60.7496L42.6017 57.6346Z" fill="#265EAB"/>
<path id="Fill 34" fill-rule="evenodd" clip-rule="evenodd" d="M43.4361 57.5164L43.8571 60.6034L46.9421 58.2314L46.5941 55.2554L43.4361 57.5164Z" fill="#265EAB"/>
<path id="Fill 35" fill-rule="evenodd" clip-rule="evenodd" d="M49.6398 16.5799C49.5808 16.3719 49.4638 15.5129 49.3268 15.1909C49.2148 14.8169 49.3038 14.8099 49.0658 14.4839C48.9768 14.3349 49.1068 14.3999 49.0208 14.2919C48.6028 13.7709 48.0528 13.4349 47.4328 13.1969C46.3528 12.6719 45.0118 12.4029 43.5768 12.5009C42.2988 12.5879 41.1338 12.9519 40.1888 13.4999C39.4788 13.3529 38.7888 13.2789 38.1238 13.2669C36.8988 13.1429 35.5258 13.2059 34.1038 13.4939C32.0598 13.9079 30.2898 14.7069 29.0278 15.6819C27.3758 15.6089 25.3588 16.0399 23.3608 16.9959C20.9468 18.1509 19.1178 19.8079 18.2588 21.4179C16.9458 21.5299 15.5218 22.1129 14.2828 23.1539C12.7538 24.4379 11.8618 26.1189 11.7318 27.6549C11.6928 27.9289 11.6248 28.0879 11.7228 28.6149C11.7378 28.6329 11.7468 28.6539 11.7608 28.6729C11.8328 29.0229 12.2368 29.9089 12.5598 30.4419C12.8948 30.9959 12.8338 30.8949 12.9178 31.0719C14.1408 33.3679 15.5288 35.1879 17.2168 37.0789C18.3548 38.1789 23.2248 42.2639 25.5938 43.3469C26.4678 41.6109 27.3148 40.1319 29.3678 39.7359C30.0408 38.9679 30.3918 38.2699 32.8928 37.0169C35.4438 35.7389 36.9748 36.6559 37.1128 36.5229C39.2748 34.4219 42.5898 34.2679 43.7088 35.0979C43.9318 35.2639 44.8068 33.9369 46.4368 34.3149C47.9938 34.4019 48.0428 35.3969 48.1398 35.1789C48.9098 33.4519 49.2268 30.9249 49.6758 29.0539C50.2998 25.6529 50.1328 23.4809 50.0718 20.5409C49.9378 18.9399 49.9638 17.8929 49.6398 16.5799Z" fill="#FEFEFE"/>
<path id="Stroke 36" fill-rule="evenodd" clip-rule="evenodd" d="M49.6398 16.5799C49.5808 16.3719 49.4638 15.5129 49.3268 15.1909C49.2148 14.8169 49.3038 14.8099 49.0658 14.4839C48.9768 14.3349 49.1068 14.3999 49.0208 14.2919C48.6028 13.7709 48.0528 13.4349 47.4328 13.1969C46.3528 12.6719 45.0118 12.4029 43.5768 12.5009C42.2988 12.5879 41.1338 12.9519 40.1888 13.4999C39.4788 13.3529 38.7888 13.2789 38.1238 13.2669C36.8988 13.1429 35.5258 13.2059 34.1038 13.4939C32.0598 13.9079 30.2898 14.7069 29.0278 15.6819C27.3758 15.6089 25.3588 16.0399 23.3608 16.9959C20.9468 18.1509 19.1178 19.8079 18.2588 21.4179C16.9458 21.5299 15.5218 22.1129 14.2828 23.1539C12.7538 24.4379 11.8618 26.1189 11.7318 27.6549C11.6928 27.9289 11.6248 28.0879 11.7228 28.6149C11.7378 28.6329 11.7468 28.6539 11.7608 28.6729C11.8328 29.0229 12.2368 29.9089 12.5598 30.4419C12.8948 30.9959 12.8338 30.8949 12.9178 31.0719C14.1408 33.3679 15.5288 35.1879 17.2168 37.0789C18.3548 38.1789 23.2248 42.2639 25.5938 43.3469C26.4678 41.6109 27.3148 40.1319 29.3678 39.7359C30.0408 38.9679 30.3918 38.2699 32.8928 37.0169C35.4438 35.7389 36.9748 36.6559 37.1128 36.5229C39.2748 34.4219 42.5898 34.2679 43.7088 35.0979C43.9318 35.2639 44.8068 33.9369 46.4368 34.3149C47.9938 34.4019 48.0428 35.3969 48.1398 35.1789C48.9098 33.4519 49.2268 30.9249 49.6758 29.0539C50.2998 25.6529 50.1328 23.4809 50.0718 20.5409C49.9378 18.9399 49.9638 17.8929 49.6398 16.5799Z" stroke="#231F20"/>
<path id="Fill 37" fill-rule="evenodd" clip-rule="evenodd" d="M48.3956 20.5316L48.1186 20.5926L47.8566 19.4056L47.8536 19.4066L47.8496 20.6516L47.5596 20.7156L47.0396 19.5866H47.0356L47.2956 20.7736L47.0196 20.8346L46.7066 19.4146L47.1396 19.3196L47.6426 20.3826L47.6476 20.3816L47.6536 19.2056L48.0826 19.1116L48.3956 20.5316ZM45.8306 20.6386C45.8506 20.7176 45.9226 20.8586 46.1816 20.8016C46.3226 20.7706 46.4706 20.7026 46.4376 20.5516C46.4136 20.4416 46.2996 20.4346 46.1426 20.4326L45.9816 20.4306C45.7406 20.4276 45.5076 20.4256 45.4386 20.1136C45.4046 19.9546 45.4276 19.6566 45.8886 19.5546C46.3236 19.4596 46.5026 19.7186 46.5436 19.8916L46.2596 19.9546C46.2366 19.8926 46.1796 19.7476 45.9206 19.8046C45.8076 19.8296 45.6826 19.9016 45.7106 20.0296C45.7356 20.1406 45.8326 20.1446 45.8946 20.1456L46.2596 20.1546C46.4626 20.1586 46.6576 20.1986 46.7146 20.4536C46.8086 20.8806 46.3816 21.0146 46.2576 21.0416C45.7406 21.1566 45.5846 20.8766 45.5466 20.7006L45.8306 20.6386Z" fill="#231F20"/>
<path id="Fill 38" fill-rule="evenodd" clip-rule="evenodd" d="M39.5904 25.7362C38.4694 26.7052 40.4324 29.0312 41.0854 27.8912C41.4334 27.3192 40.7374 24.8082 39.5904 25.7362ZM44.0164 28.1302C44.0684 28.6712 44.0164 29.2302 43.1544 29.2382C42.8124 29.3032 42.5144 28.8132 42.1494 28.6982C42.1904 29.5312 40.8424 30.4692 39.6204 29.9852C39.1534 29.7992 38.7914 29.2152 38.3404 28.4222C37.1414 26.3682 38.3694 25.1782 39.6294 24.2162C39.4214 23.6912 38.7494 21.9362 39.2804 21.5032C40.2544 20.8742 40.8114 22.2952 41.1984 23.2802C41.7994 24.6962 42.3104 25.9422 42.9534 27.4922C43.0964 27.8652 43.6544 27.6722 44.0164 28.1302ZM30.4934 23.4672C29.0994 23.1392 29.7314 25.4502 31.5124 25.1042C31.9604 25.0182 32.4654 24.8652 32.6354 24.6652C33.1074 24.2102 33.2384 24.0662 33.4184 23.5222C33.7504 22.8522 33.1524 21.0392 32.1714 20.9262C31.4974 20.8492 30.9404 21.2572 30.4774 20.6172C29.8004 19.6822 31.6174 20.0072 31.5634 19.2602C31.5004 18.4052 30.8944 18.4502 29.8414 19.0012C29.4394 19.2112 29.1414 20.0342 29.0984 20.3372C29.0804 20.8862 29.3294 21.4562 29.8244 21.7542C30.2534 22.1002 32.1034 22.0582 32.1244 22.6652C32.1674 23.8662 31.2644 23.6492 30.4934 23.4672Z" fill="#F58A1E"/>
<path id="Fill 39" fill-rule="evenodd" clip-rule="evenodd" d="M21.5411 32.1229C22.5391 31.7579 22.7101 31.6229 22.4781 31.1169C22.3791 30.9009 21.4591 31.3859 21.2071 31.2279C21.0431 31.1259 20.9711 30.8349 20.9971 30.4639C21.0041 30.3629 21.8421 30.2789 22.2651 30.2939C22.5451 30.3049 22.6831 29.7029 22.1801 29.6069C19.3441 29.0689 20.2281 31.1649 20.1971 31.5259C19.8921 31.7449 19.1241 31.7229 19.2611 32.2009C19.3941 32.6639 19.8491 32.4269 20.1961 32.4209C20.4661 33.3449 20.9631 36.7529 21.8881 36.3389C22.7571 35.9639 22.2731 35.4729 22.0221 34.6029C21.8301 33.9799 21.5991 32.3939 21.5411 32.1229Z" fill="#77BC43"/>
<path id="Fill 40" fill-rule="evenodd" clip-rule="evenodd" d="M26.8302 29.9241C26.5922 29.8581 26.3672 29.5581 26.0062 29.7991C25.6102 30.1451 25.7622 30.4291 26.0112 31.0321C26.1472 31.5141 26.4832 33.1341 26.8762 33.5731C27.0612 33.8001 27.3242 34.1891 27.7372 33.8781C27.9732 33.6931 28.0222 33.4011 27.9352 33.0921C27.6842 32.2041 26.7892 30.8021 27.7332 30.4241C27.7722 30.6201 27.6562 30.8711 27.8502 30.9401C28.4812 31.1641 28.7122 30.2851 28.4532 29.7831C28.1862 29.2681 27.6942 29.2971 27.2422 29.5401C27.0452 29.6341 26.9772 29.9381 26.8302 29.9241ZM29.1782 26.0691C29.5322 26.6581 30.2962 26.0181 30.2262 25.8581C29.3162 23.8051 29.2012 22.5541 28.5032 20.2551C28.2682 19.4811 27.2462 20.2361 27.3672 20.7951C27.4872 21.3501 28.9542 24.3641 27.9542 24.7371C26.4362 25.3011 27.0042 20.5741 25.4872 21.1261C24.6882 21.4171 25.3122 22.5591 25.4232 23.1421C26.6522 29.0041 29.0702 26.1641 29.0702 26.1641L29.2502 26.0621L29.1782 26.0691Z" fill="#00A6CE"/>
<path id="Fill 41" fill-rule="evenodd" clip-rule="evenodd" d="M38.1593 32.5726C38.1633 32.6116 38.1593 32.6496 38.1523 32.6886C37.8903 33.9006 35.8923 34.0136 35.3453 33.9356L34.6503 33.8056C34.6503 33.8056 33.5553 33.5876 33.2543 33.5276C33.4873 34.0116 33.6613 34.4426 33.6943 34.7906C33.7153 35.0086 33.6863 35.1986 33.5943 35.3606C33.4203 35.6636 33.0403 35.8316 32.4343 35.8716C31.4573 35.9676 30.4373 32.7646 30.2913 32.1736C30.1763 31.7506 29.9563 31.2566 29.7253 30.7316C29.2613 29.6776 28.7813 28.5886 29.1463 28.0116C29.3663 27.6636 29.6233 27.5056 29.9083 27.5446C30.6073 27.6396 31.1673 28.8576 31.3893 29.4846C31.7163 28.8036 32.1993 28.1546 32.6113 27.6276C32.6113 27.6276 32.8623 27.3026 32.8783 27.2806C33.1003 26.9736 33.7753 26.0426 34.4193 26.0066C34.6273 25.9936 34.8143 26.0746 34.9713 26.2476C35.0643 26.3536 35.1063 26.4586 35.1163 26.5636C35.1313 26.7216 35.0743 26.8796 35.0203 27.0336L34.9323 27.3316C34.7183 28.2386 33.9283 29.3046 33.2933 30.1636C33.2933 30.1636 32.7693 30.9296 32.6303 31.1326C33.2323 31.1556 33.7263 31.2686 34.1923 31.3886C34.6083 31.4966 35.0373 31.6066 35.5503 31.6446C35.5703 31.6466 37.6263 31.7746 38.0733 32.3616C38.1223 32.4276 38.1523 32.4986 38.1593 32.5726ZM24.4353 31.7446C24.0693 31.7406 23.3683 31.6996 23.1523 32.2416C22.8573 32.9056 22.8783 33.5486 23.5423 33.7656C23.9813 33.9536 24.8663 33.5226 24.9493 32.9856C24.9983 32.7166 24.9503 31.9266 24.4353 31.7446ZM25.5573 34.5306C25.1023 34.9946 24.5063 35.2356 23.8803 35.2056C23.3563 35.1816 22.8763 34.9626 22.6123 34.6336C21.8923 34.0446 22.0263 32.7316 22.5623 31.8536L22.6513 31.6636L22.8943 31.2966L22.8783 31.3066L22.8953 31.2946C23.4773 30.9066 24.1123 30.7656 24.6863 30.8986C25.2153 31.0206 25.6583 31.3656 25.9673 31.8946C26.5833 32.9436 26.4343 33.8836 25.5573 34.5306ZM26.2633 19.7056C26.2653 19.7296 26.2653 19.7546 26.2643 19.7786C26.2423 20.1176 25.8553 20.3766 25.5733 20.5666C25.5733 20.5666 25.3653 20.7156 25.3623 20.7186L24.6853 21.1336C24.6853 21.1336 24.2233 21.4006 24.1063 21.4686C24.6563 22.4596 24.9633 23.2276 25.3813 24.4266C25.6283 25.0406 25.8083 25.7066 25.8653 26.3066C25.9373 27.0686 25.8133 27.7276 25.3753 28.0476C23.8853 29.1246 22.7723 28.3766 22.2413 27.8346C21.5433 27.1196 21.1083 25.9586 21.3973 25.5756C21.4633 25.4896 21.6203 25.3686 21.9433 25.5456C22.2823 25.7286 22.5073 26.0356 22.7063 26.3076C23.0443 26.7676 23.3123 27.1326 23.9893 26.8726C24.1033 26.8216 24.1333 26.6206 24.1053 26.3286C24.0243 25.4776 23.4593 23.8426 23.0833 22.7526C23.0833 22.7526 22.8553 22.0816 22.7993 21.9206C22.6923 21.9626 22.5153 22.0306 22.5153 22.0306C21.6903 22.3546 20.7553 22.7206 20.1893 22.3996C19.9593 22.2686 19.8153 22.0316 19.7603 21.6966C19.6853 21.1176 21.0483 20.7136 22.5733 20.3156L24.0503 19.7626C24.7663 19.3886 25.5783 18.9676 26.0143 19.2876C26.1653 19.4196 26.2493 19.5596 26.2633 19.7056Z" fill="#EB1946"/>
<path id="Fill 42" fill-rule="evenodd" clip-rule="evenodd" d="M35.8736 26.1776C35.2856 26.3456 34.5366 25.2666 35.0986 24.8946C35.4446 24.6456 36.0696 24.7956 36.2636 25.0006C36.6036 25.4646 36.4396 26.0136 35.8736 26.1776ZM33.9186 18.5446C34.1046 18.2996 34.7266 18.1726 34.7496 17.7106C34.8256 17.0166 33.7966 17.0436 33.4076 17.3576C33.2086 16.9866 33.0096 15.7916 32.0626 16.3636C31.6956 16.5856 32.1466 17.5916 32.3316 18.0796C31.8356 18.2606 31.5866 18.5856 31.8686 19.0846C32.0076 19.3206 32.5636 19.2676 32.8556 19.1726C33.3286 20.4346 33.5056 21.5846 34.1626 22.5746C34.7366 23.4596 36.4926 23.2686 37.1756 22.0826C37.2776 21.9136 37.1176 21.2186 36.7396 21.1836C36.3686 21.2196 36.3176 21.6826 36.1246 21.8636C35.3726 22.5316 34.8696 20.4256 34.4676 19.6596C34.2296 19.3396 34.0296 18.7406 33.9186 18.5446Z" fill="#265EAB"/>
<path id="Fill 43" fill-rule="evenodd" clip-rule="evenodd" d="M44.3707 26.4539C42.9397 26.4099 44.0177 28.5489 45.6957 27.8559C46.1167 27.6829 46.5817 27.4329 46.7077 27.2029C47.0797 26.6629 47.1807 26.4959 47.2487 25.9279C47.4417 25.2039 46.4957 23.5459 45.5117 23.6309C44.8357 23.6889 44.3707 24.1989 43.7897 23.6639C42.9407 22.8819 44.7867 22.8389 44.5847 22.1179C44.3537 21.2929 43.7677 21.4569 42.8467 22.2059C42.4937 22.4919 42.3647 23.3569 42.3827 23.6629C42.4747 24.2049 42.8307 24.7139 43.3757 24.9069C43.8647 25.1619 45.6697 24.7539 45.8107 25.3449C46.0917 26.5129 45.1627 26.4789 44.3707 26.4539Z" fill="#77BC43"/>
<path id="Fill 44" fill-rule="evenodd" clip-rule="evenodd" d="M36.3106 26.4857C35.9906 26.5767 35.7896 26.6707 35.7566 26.9017C35.6156 27.5947 36.1436 28.2457 36.3756 28.9627C36.6336 29.6777 37.8236 32.4097 38.5886 31.9167C39.5346 31.3067 38.4146 29.4347 37.9946 28.7097C37.6806 28.2257 37.3796 27.4917 37.1196 27.0977C36.9386 26.8327 36.6576 26.3947 36.3106 26.4857Z" fill="#265EAB"/>
</g>
</g>
</g>
</svg>
