<svg xmlns="http://www.w3.org/2000/svg" width="309.281" height="96.99" viewBox="0 0 309.281 96.99">
  <g id="NPS_MRI_Logo" transform="translate(-37.86 -21.369)">
    <g id="Group_33" data-name="Group 33" transform="translate(112.894 97.386)">
      <path id="Path_34" data-name="Path 34" d="M195.482,170.84v14.426H193.12l-7.108-10.757v10.757H183.65V170.84h2.362l7.108,10.736V170.84Z" transform="translate(-183.65 -169.929)" fill="#282c63"/>
      <path id="Path_35" data-name="Path 35" d="M216.918,188.106A5.567,5.567,0,0,1,211.2,182.2a5.826,5.826,0,1,1,11.652,0A5.732,5.732,0,0,1,216.918,188.106Zm0-2.054a3.521,3.521,0,0,0,3.5-3.855c0-2.589-1.678-3.834-3.438-3.834-1.781,0-3.376,1.246-3.376,3.834S215.132,186.053,216.918,186.053Z" transform="translate(-197.021 -172.584)" fill="#282c63"/>
      <path id="Path_36" data-name="Path 36" d="M240.742,187.926H238.38V176.505h2.362v1.657a3.711,3.711,0,0,1,3.417-1.843v2.445h-.6c-1.74,0-2.82.726-2.82,3.15v6.011Z" transform="translate(-210.212 -172.589)" fill="#282c63"/>
      <path id="Path_37" data-name="Path 37" d="M253.3,175.926H251.95V174H253.3V171.16h2.383V174h2.779v1.925h-2.779v6.32c0,.849.329,1.2,1.328,1.2h1.451v1.971H256.6c-2.033,0-3.294-.849-3.294-3.17v-6.325Z" transform="translate(-216.798 -170.084)" fill="#282c63"/>
      <path id="Path_38" data-name="Path 38" d="M268.83,169.07h2.362v5.244a4.534,4.534,0,0,1,3.546-1.513c2.548,0,4.539,1.678,4.539,4.869v6.737h-2.342v-6.382c0-2.095-1.143-3.17-2.862-3.17-1.74,0-2.882,1.076-2.882,3.17v6.382H268.83V169.07Z" transform="translate(-224.99 -169.07)" fill="#282c63"/>
      <path id="Path_39" data-name="Path 39" d="M310.412,179.439H307.8v5.847H305.44V170.88h4.972c3.417,0,5.1,1.951,5.1,4.292C315.512,177.221,314.164,179.439,310.412,179.439Zm0-1.925c1.842,0,2.676-.89,2.676-2.342,0-1.493-.829-2.362-2.676-2.362H307.8v4.7Z" transform="translate(-242.758 -169.948)" fill="#282c63"/>
      <path id="Path_40" data-name="Path 40" d="M339.643,188.1H337.28v-1.369a4.257,4.257,0,0,1-3.376,1.534c-2.676,0-4.7-1.678-4.7-4.869V176.68h2.342v6.361c0,2.095,1.143,3.17,2.862,3.17,1.74,0,2.882-1.076,2.882-3.17V176.68h2.362V188.1Z" transform="translate(-254.29 -172.763)" fill="#282c63"/>
      <path id="Path_41" data-name="Path 41" d="M359.4,176.32a4.842,4.842,0,0,1,3.958,1.843v-1.657h2.383v11.606a5.179,5.179,0,0,1-5.574,5.45c-3.047,0-5.306-1.513-5.594-4.04h2.342a3.185,3.185,0,0,0,3.253,1.992,3.041,3.041,0,0,0,3.191-3.4v-1.9a4.907,4.907,0,0,1-3.958,1.9c-3.006,0-5.389-2.424-5.389-5.95S356.393,176.32,359.4,176.32Zm.494,2.048a3.5,3.5,0,0,0-3.459,3.793,3.6,3.6,0,0,0,3.459,3.9,3.866,3.866,0,0,0,0-7.689Z" transform="translate(-266.331 -172.589)" fill="#282c63"/>
      <path id="Path_42" data-name="Path 42" d="M387.017,188.106a5.54,5.54,0,0,1-5.7-5.908c0-3.587,2.321-5.888,5.7-5.888a5.325,5.325,0,0,1,5.553,5.615,7.26,7.26,0,0,1-.082,1.158h-8.724a3.142,3.142,0,0,0,3.253,3.026,2.771,2.771,0,0,0,2.7-1.6h2.548A5.215,5.215,0,0,1,387.017,188.106Zm-3.232-6.922h6.32a2.967,2.967,0,0,0-3.191-2.882A3.112,3.112,0,0,0,383.785,181.184Z" transform="translate(-279.585 -172.584)" fill="#282c63"/>
      <path id="Path_43" data-name="Path 43" d="M407.148,175.926H405.8V174h1.348V171.16h2.383V174h2.779v1.925h-2.779v6.32c0,.849.329,1.2,1.328,1.2h1.451v1.971h-1.863c-2.033,0-3.294-.849-3.294-3.17v-6.325Z" transform="translate(-291.466 -170.084)" fill="#282c63"/>
      <path id="Path_44" data-name="Path 44" d="M437.56,185.26c-2.882,0-5.1-1.575-5.1-4.123h2.527a2.312,2.312,0,0,0,2.568,2.136c1.657,0,2.589-.89,2.589-2.115,0-3.479-7.648-1.225-7.648-6.526,0-2.527,2.007-4.1,4.951-4.1,2.759,0,4.7,1.451,4.91,3.917h-2.609a2.251,2.251,0,0,0-2.424-1.9c-1.369-.041-2.424.623-2.424,2.012,0,3.253,7.627,1.225,7.627,6.485C442.537,183.186,440.772,185.26,437.56,185.26Z" transform="translate(-304.405 -169.779)" fill="#282c63"/>
      <path id="Path_45" data-name="Path 45" d="M461.708,188.106a5.567,5.567,0,0,1-5.718-5.908,5.826,5.826,0,1,1,11.652,0A5.729,5.729,0,0,1,461.708,188.106Zm0-2.054a3.521,3.521,0,0,0,3.5-3.855c0-2.589-1.678-3.834-3.438-3.834-1.781,0-3.376,1.246-3.376,3.834S459.927,186.053,461.708,186.053Z" transform="translate(-315.825 -172.584)" fill="#282c63"/>
      <path id="Path_46" data-name="Path 46" d="M493.413,188.1H491.05v-1.369a4.257,4.257,0,0,1-3.376,1.534c-2.676,0-4.7-1.678-4.7-4.869V176.68h2.342v6.361c0,2.095,1.143,3.17,2.862,3.17,1.74,0,2.882-1.076,2.882-3.17V176.68h2.362V188.1Z" transform="translate(-328.919 -172.763)" fill="#282c63"/>
      <path id="Path_47" data-name="Path 47" d="M517.406,181.534c0-2.095-1.137-3.17-2.862-3.17-1.74,0-2.882,1.076-2.882,3.17v6.382H509.3V176.5h2.362V177.8a4.4,4.4,0,0,1,3.4-1.493c2.671,0,4.684,1.678,4.684,4.869v6.737H517.4v-6.382Z" transform="translate(-341.698 -172.584)" fill="#282c63"/>
      <path id="Path_48" data-name="Path 48" d="M539.329,172.8a5.263,5.263,0,0,1,3.937,1.781V169.07h2.383v15.337h-2.383v-1.719a4.74,4.74,0,0,1-3.958,1.9c-3.006,0-5.389-2.424-5.389-5.95S536.3,172.8,539.329,172.8Zm.474,2.048a3.5,3.5,0,0,0-3.459,3.793,3.6,3.6,0,0,0,3.459,3.9,3.866,3.866,0,0,0,0-7.689Z" transform="translate(-353.647 -169.07)" fill="#282c63"/>
      <path id="Path_49" data-name="Path 49" d="M573.225,170.88h2.548l5.059,11.3,5.034-11.3h2.527v14.406H586.03v-9.866l-4.4,9.866H580l-4.416-9.866v9.866H573.22V170.88Z" transform="translate(-372.72 -169.948)" fill="#282c63"/>
      <path id="Path_50" data-name="Path 50" d="M613.727,170.88c3.423,0,5.1,1.971,5.1,4.313a4.1,4.1,0,0,1-3.335,4.123l3.567,5.97h-2.82l-3.315-5.759h-1.8v5.759H608.76V170.88Zm0,1.925h-2.609v4.828h2.609c1.843,0,2.676-1.014,2.676-2.445C616.4,173.742,615.574,172.8,613.727,172.8Z" transform="translate(-389.969 -169.948)" fill="#282c63"/>
      <path id="Path_51" data-name="Path 51" d="M634.2,170.88h2.362v14.406H634.2Z" transform="translate(-402.315 -169.948)" fill="#282c63"/>
    </g>
    <g id="Group_1" transform="translate(37.86 21.369)">
      <path id="Path_1" d="M15.62,75.785H-11.75a1.39,1.39,0,0,1-1.39-1.39V68.07a1.39,1.39,0,0,1,1.39-1.39H15.62a1.39,1.39,0,0,1,1.39,1.39h0v6.325a1.384,1.384,0,0,1-1.39,1.39" transform="translate(13.14 -33.664)" fill="#282c63"/>
      <path id="Path_2" d="M27.87,31.29V3.92a1.39,1.39,0,0,1,1.39-1.39h6.325A1.4,1.4,0,0,1,36.98,3.92V31.285a1.39,1.39,0,0,1-1.39,1.39H29.265A1.384,1.384,0,0,1,27.87,31.29h0" transform="translate(-6.763 -2.53)" fill="#b5d710"/>
      <path id="Path_3" d="M27.87,97.475V91.315a1.4,1.4,0,0,1,1.39-1.395h6.325a1.4,1.4,0,0,1,1.395,1.39h0V97.47a1.39,1.39,0,0,1-1.39,1.39H29.265a1.384,1.384,0,0,1-1.395-1.384h0" transform="translate(-6.763 -44.943)" fill="#4babc9"/>
      <path id="Path_4" d="M52.64,43.47H80a1.39,1.39,0,0,1,1.39,1.39v6.325A1.39,1.39,0,0,1,80,52.575H52.64a1.39,1.39,0,0,1-1.39-1.39V44.86a1.387,1.387,0,0,1,1.39-1.39" transform="translate(-18.11 -22.399)" fill="#7b93c5"/>
      <path id="Path_5" d="M60.235,68.12V95.485a1.39,1.39,0,0,1-1.39,1.39H52.52a1.39,1.39,0,0,1-1.39-1.39h0V68.12a1.39,1.39,0,0,1,1.39-1.39h6.325a1.384,1.384,0,0,1,1.39,1.39h0" transform="translate(-18.052 -33.688)" fill="#324fa2"/>
      <path id="Path_6" d="M60.235,21.915v6.161a1.4,1.4,0,0,1-1.39,1.395H52.52a1.391,1.391,0,0,1-1.39-1.395h0V21.915a1.4,1.4,0,0,1,1.39-1.395h6.325a1.4,1.4,0,0,1,1.39,1.395h0" transform="translate(-18.052 -11.261)" fill="#282c63"/>
      <path id="Path_7" d="M83.365,68.18V74.34a1.4,1.4,0,0,1-1.39,1.395H75.65a1.391,1.391,0,0,1-1.39-1.395V68.18a1.39,1.39,0,0,1,1.39-1.39h6.325a1.39,1.39,0,0,1,1.39,1.39h0" transform="translate(-29.278 -33.717)" fill="#ff6601"/>
      <path id="Path_8" d="M13.965,45.06V51.22a1.4,1.4,0,0,1-1.39,1.395H6.25A1.391,1.391,0,0,1,4.86,51.22h0V45.06a1.386,1.386,0,0,1,1.384-1.39h6.33a1.384,1.384,0,0,1,1.39,1.39h0" transform="translate(4.404 -22.496)" fill="#319b4b"/>
      <path id="Path_9" d="M153.59,30.033a9.777,9.777,0,0,1-9.748,9.8h-5.353v9.6H132.73V20.228h10.89a9.778,9.778,0,0,1,9.969,9.583v.221m-5.718,0a4.208,4.208,0,0,0-3.994-4.416c-.087-.005-.175-.005-.262-.005h-5.131v8.847h5.131a4.236,4.236,0,0,0,4.261-4.21c0-.077,0-.144-.005-.216" transform="translate(-57.655 -11.118)" fill="#282c63"/>
      <path id="Path_10" d="M191.784,35.618v6.006c-2.795-.335-6.341.921-6.341,5.3V56.89H180.06V36.03h5.383v3.587a6.406,6.406,0,0,1,6.341-4" transform="translate(-80.626 -18.583)" fill="#282c63"/>
      <path id="Path_11" d="M206.805,46.318A10.9,10.9,0,0,1,217.582,35.3h.232a10.937,10.937,0,0,1,11.055,10.813v.2a10.93,10.93,0,0,1-10.854,11.014h-.2A10.9,10.9,0,0,1,206.8,46.545c0-.072,0-.154.005-.226m16.686-.005a5.543,5.543,0,0,0-5.332-5.754c-.113-.005-.232-.005-.345,0a5.536,5.536,0,0,0-5.636,5.435c0,.108,0,.216.005.319a5.535,5.535,0,0,0,5.311,5.754c.108.005.211.005.319.005a5.548,5.548,0,0,0,5.677-5.414c.005-.113.005-.232,0-.345" transform="translate(-93.603 -18.434)" fill="#282c63"/>
      <path id="Path_12" d="M257.06,17.79h5.378V48.243H257.06Z" transform="translate(-117.996 -9.936)" fill="#282c63"/>
      <path id="Path_13" d="M275.87,22.02a3.317,3.317,0,1,1,3.294,3.294,3.324,3.324,0,0,1-3.294-3.294m.623,5.8h5.378V48.68h-5.378Z" transform="translate(-127.125 -10.368)" fill="#282c63"/>
      <path id="Path_14" d="M317.316,35.884v20.86h-5.383v-2.46a8.307,8.307,0,0,1-6.8,3.047c-5.548,0-10.134-4.8-10.134-11.014S299.591,35.3,305.134,35.3a8.307,8.307,0,0,1,6.8,3.047v-2.46Zm-5.383,10.427a5.61,5.61,0,0,0-5.327-5.878c-.16-.01-.314-.01-.473-.005a5.6,5.6,0,0,0-5.764,5.43,4.457,4.457,0,0,0,.005.453,5.6,5.6,0,0,0,5.306,5.878,4.434,4.434,0,0,0,.453.005,5.612,5.612,0,0,0,5.805-5.409c.005-.154.005-.314-.005-.473" transform="translate(-136.41 -18.432)" fill="#282c63"/>
      <path id="Path_15" d="M367.33,43.926v12.81h-5.383V44.595a3.889,3.889,0,0,0-4.128-4.3c-2.63,0-4.591,1.544-4.591,5.172V56.736H347.85V35.876h5.378v2.337a7.093,7.093,0,0,1,6.217-2.918c4.421,0,7.885,3.083,7.885,8.631" transform="translate(-162.059 -18.424)" fill="#282c63"/>
      <path id="Path_16" d="M392.5,46.32a10.773,10.773,0,0,1,10.525-11.014c.16-.005.324-.005.484,0a10.491,10.491,0,0,1,9.346,5.383L408.22,43.4a5.157,5.157,0,0,0-4.756-2.795,5.465,5.465,0,0,0-5.594,5.342c-.005.124,0,.247.005.376A5.459,5.459,0,0,0,403.114,52c.118.005.237.005.355.005a5.139,5.139,0,0,0,4.8-2.753l4.673,2.671A10.981,10.981,0,0,1,392.5,46.814c-.005-.17-.005-.329,0-.494" transform="translate(-183.726 -18.435)" fill="#282c63"/>
      <path id="Path_17" d="M447.452,52.446a5.8,5.8,0,0,0,4.673-2.084l4.339,2.5a10.556,10.556,0,0,1-9.1,4.467c-7.01,0-11.431-4.8-11.431-11.014A10.651,10.651,0,0,1,446.207,35.3q.371-.015.741,0c6.176,0,10.556,4.879,10.556,11.014a12.3,12.3,0,0,1-.211,2.213H441.564c.751,2.748,3.047,3.917,5.888,3.917m4.673-8.091a5.07,5.07,0,0,0-5.172-4.215,5.2,5.2,0,0,0-5.466,4.215Z" transform="translate(-204.806 -18.432)" fill="#282c63"/>
      <path id="Path_18" d="M129.21,104.809l2-1.153a4.477,4.477,0,0,0,4.684,3.181c2.481,0,3.706-1.127,3.706-2.7,0-1.8-1.549-2.4-4.128-3.2-2.8-.9-5.507-1.776-5.507-5.033,0-3.155,2.579-4.951,5.507-4.951a6.3,6.3,0,0,1,5.934,3.829L139.452,95.9a4.076,4.076,0,0,0-3.984-2.7c-1.879,0-3.181,1-3.181,2.6,0,1.626,1.225,2.229,3.685,3.006,3.052,1,5.929,1.9,5.929,5.281,0,3.078-2.476,5.033-6.058,5.033a6.6,6.6,0,0,1-6.634-4.318" transform="translate(-55.947 -45.441)" fill="#282c63"/>
      <path id="Path_19" d="M172.4,103.192V91.55h2.326v11.539c0,2.429,1.451,4.03,4.256,4.03s4.261-1.6,4.261-4.03V91.55h2.306v11.642c0,3.8-2.728,6.207-6.562,6.207s-6.588-2.4-6.588-6.207" transform="translate(-76.908 -45.734)" fill="#282c63"/>
      <path id="Path_20" d="M224.914,102.368h-4.128v6.706H218.46V91.55h7.01a5.4,5.4,0,0,1,1.822,10.51l4.133,7.01h-2.578l-3.932-6.7Zm-4.133-2.105h4.684a3.271,3.271,0,0,0,.005-6.536h-4.689Z" transform="translate(-99.262 -45.734)" fill="#282c63"/>
      <path id="Path_21" d="M277.8,101.14c0,4.457-3.3,7.962-8.585,7.962a8.982,8.982,0,0,1-9.233-8.724c-.005-.118-.005-.242-.005-.36a8.971,8.971,0,0,1,8.847-9.089h.34a8.742,8.742,0,0,1,7.586,4.231l-2,1.179a6.281,6.281,0,0,0-5.6-3.155,6.653,6.653,0,0,0-6.861,6.439c-.005.134-.005.262,0,.4a6.653,6.653,0,0,0,6.49,6.814c.154.005.314,0,.468-.005,3.634,0,5.785-2,6.233-4.632h-6.433v-2.1h8.76v1.05Z" transform="translate(-119.413 -45.433)" fill="#282c63"/>
      <path id="Path_22" d="M324.183,106.877v2.2H313.72V91.56h10.34v2.2h-8.013v5.383h7.386v2.177h-7.386v5.558Z" transform="translate(-145.495 -45.739)" fill="#282c63"/>
      <path id="Path_23" d="M351.31,100.014a9,9,0,0,1,8.914-9.084h.144a9.025,9.025,0,0,1,9.089,8.96v.129a9.041,9.041,0,0,1-8.991,9.089h-.093a9.011,9.011,0,0,1-9.058-8.976,1,1,0,0,1-.005-.118m15.821,0a6.69,6.69,0,0,0-6.536-6.835h-.221a6.685,6.685,0,0,0-6.758,6.614v.221a6.68,6.68,0,0,0,6.547,6.809h.211a6.68,6.68,0,0,0,6.763-6.6c-.005-.072-.005-.139-.005-.211" transform="translate(-163.738 -45.433)" fill="#282c63"/>
      <path id="Path_24" d="M418.847,91.55v17.519h-1.879l-9.012-13.088v13.088H405.63V91.55h1.879l9.012,13.067V91.55Z" transform="translate(-190.102 -45.734)" fill="#282c63"/>
      <path id="Path_25" d="M450.32,104.809l2-1.153a4.477,4.477,0,0,0,4.684,3.181c2.481,0,3.706-1.127,3.706-2.7,0-1.8-1.554-2.4-4.128-3.2-2.8-.9-5.507-1.776-5.507-5.033,0-3.155,2.578-4.951,5.507-4.951a6.3,6.3,0,0,1,5.934,3.829L460.562,95.9a4.074,4.074,0,0,0-3.978-2.7c-1.879,0-3.181,1-3.181,2.6,0,1.626,1.23,2.229,3.685,3.006,3.052,1,5.934,1.9,5.934,5.281,0,3.078-2.481,5.033-6.058,5.033a6.606,6.606,0,0,1-6.644-4.318" transform="translate(-211.791 -45.441)" fill="#282c63"/>
      <path id="Path_26" d="M481.085,93.162a2.012,2.012,0,0,1-2.012,2.012h0a2.012,2.012,0,0,1-2.012-2.012h0a2.012,2.012,0,0,1,2.012-2.012h0a2.012,2.012,0,0,1,2.012,2.012h0m-.19,0a1.826,1.826,0,0,0-1.812-1.837h-.005a1.823,1.823,0,0,0-1.817,1.832h0a1.817,1.817,0,1,0,3.634.005h0m-1.3.257.422.772h-.556l-.329-.648h-.252v.648h-.515V92.138h.762a.716.716,0,0,1,.787.633.087.087,0,0,0,.005.036.674.674,0,0,1-.324.612m-.715-.324h.221c.2,0,.309-.1.309-.242,0-.16-.113-.247-.309-.247h-.221Z" transform="translate(-224.769 -45.54)" fill="#282c63"/>
    </g>
  </g>
</svg>
