<svg height="72" viewBox="0 0 327 72" width="327" xmlns="http://www.w3.org/2000/svg"><g fill="none" fill-rule="evenodd"><path d="m89.095 21.6505h-3.215l-9.733-15.723h-.046v15.723h-1.966v-17.342h3.238l9.711 15.84h.045v-15.84h1.966z" fill="#00446b"/><path d="m99.4952 5.9054c-2.914 0-3.677.716-3.677 4.093v6.173c0 3.444 1.133 3.861 3.677 3.885h2.3348c2.544-.024 3.676-.441 3.676-3.885v-6.173c0-3.377-.762-4.093-3.676-4.093zm2.3348-1.734c4.323.046 5.642 1.48 5.642 5.827v6.173c0 4.092-1.481 5.619-5.642 5.619h-2.3348c-4.163 0-5.642-1.527-5.642-5.619v-6.173c0-4.347 1.319-5.781 5.642-5.827z" fill="#00446b"/><path d="m120.277 12.9799c3.031-.092 3.4-1.017 3.4-3.885 0-2.219-.301-3.052-3.4-3.052h-6.059v6.937zm-6.059 8.671h-1.963v-17.342h7.999c3.745 0 5.389 1.041 5.389 4.995 0 2.427-.277 4.232-3.03 4.577v.047c1.943.139 2.798 1.249 2.798 3.121v4.602h-1.966v-3.677c0-2.197-.533-3.26-2.914-3.26h-6.313z" fill="#00446b"/><path d="m136.669 21.6505h-1.965v-15.606h-5.618v-1.736h13.201v1.736h-5.618z" fill="#00446b"/><path d="m160.342 21.6505h-1.965v-7.977h-10.15v7.977h-1.967v-17.342h1.967v7.631h10.15v-7.631h1.965z" fill="#00446b"/><path d="m167.114 11.9394h8.785v1.619h-8.785v6.358h9.178v1.734h-11.145v-17.341h11.145v1.735h-9.178z" fill="#00446b"/><path d="m189.006 12.9799c3.028-.092 3.398-1.017 3.398-3.885 0-2.219-.299-3.052-3.398-3.052h-6.059v6.937zm-6.059 8.671h-1.963v-17.342h7.999c3.744 0 5.387 1.041 5.387 4.995 0 2.427-.278 4.232-3.03 4.577v.047c1.942.139 2.798 1.249 2.798 3.121v4.602h-1.965v-3.677c0-2.197-.532-3.26-2.913-3.26h-6.313z" fill="#00446b"/><path d="m214.366 21.6505h-3.213l-9.736-15.723h-.044v15.723h-1.967v-17.342h3.236l9.713 15.84h.045v-15.84h1.966z" fill="#00446b"/><path d="m78.6441 46.8327c-3.168 0-5.042-1.989-5.042-5.456v-6.705c0-4.902 3.031-5.458 7.239-5.458h1.618c3.631 0 4.739 1.574 4.739 4.994v.556h-1.965v-.486c0-2.428-.51-3.33-3.052-3.33h-1.109c-4.07 0-5.504.486-5.504 3.654v4.763c0 3.953.162 5.734 3.446 5.734h2.335c3.145 0 4.116-.44 4.116-2.913v-1.387h1.965v1.618c0 3.976-2.545 4.416-6.012 4.416z" fill="#005542"/><path d="m96.9758 30.9713-3.813 10.428h7.6742zm-4.345 12.046-1.343 3.677h-2.057l6.313-17.341h2.772l6.4752 17.341h-2.035l-1.364-3.677z" fill="#005542"/><path d="m109.782 44.9602h8.831v1.734h-10.796v-17.342h1.965z" fill="#005542"/><path d="m121.801 46.6946h1.966v-17.342h-1.966z" fill="#005542"/><path d="m130.032 37.1447h8.439v1.619h-8.439v7.931h-1.966v-17.342h10.636v1.735h-8.67z" fill="#005542"/><path d="m147 30.9485c-2.914 0-3.677.716-3.677 4.093v6.172c0 3.445 1.133 3.862 3.677 3.886h2.335c2.544-.024 3.677-.441 3.677-3.886v-6.172c0-3.377-.763-4.093-3.677-4.093zm2.335-1.734c4.325.046 5.642 1.48 5.642 5.827v6.172c0 4.094-1.479 5.62-5.642 5.62h-2.335c-4.163 0-5.64-1.526-5.64-5.62v-6.172c0-4.347 1.317-5.781 5.64-5.827z" fill="#005542"/><path d="m166.696 38.023c3.029-.092 3.4-1.017 3.4-3.885 0-2.219-.302-3.05-3.4-3.05h-6.06v6.935zm-6.06 8.671h-1.963v-17.342h8c3.744 0 5.387 1.041 5.387 4.995 0 2.427-.278 4.23-3.029 4.577v.047c1.943.139 2.797 1.249 2.797 3.121v4.602h-1.967v-3.677c0-2.197-.531-3.26-2.913-3.26h-6.312z" fill="#005542"/><path d="m190.97 46.6943h-3.215l-9.733-15.723h-.046v15.723h-1.966v-17.342h3.238l9.709 15.838h.047v-15.838h1.966z" fill="#005542"/><path d="m195.357 46.6946h1.967v-17.342h-1.967z" fill="#005542"/><path d="m208.004 30.9713-3.814 10.428h7.676zm-4.345 12.046-1.342 3.677h-2.058l6.313-17.341h2.774l6.474 17.341h-2.036l-1.364-3.677z" fill="#005542"/><g fill="#00446b"><path d="m78.9147 54.417-3.073 8.399h6.182zm-3.501 9.703-1.081 2.962h-1.658l5.084-13.969h2.236l5.214 13.969h-1.638l-1.1-2.962z"/><path d="m93.2535 62.2017c0-2.681-.316-3.818-2.721-3.818-2.252 0-2.773.391-2.773 3.818 0 3.389.67 3.799 2.773 3.799 2.292 0 2.721-.781 2.721-3.799zm0 3.651-.038-.038c-.578 1.174-1.824 1.377-3.147 1.377-3.482 0-3.837-2.01-3.837-4.99 0-2.941.335-5.01 3.837-5.01 1.08 0 2.72.13 3.147 1.323h.038v-5.402h1.471v13.969h-1.471z"/><path d="m101.242 67.0818h-2.0681l-3.241-9.777h1.491l2.7741 8.659h.038l2.681-8.659h1.602z"/><path d="m112.302 64.1759c0-1.843-1.1-1.8260028-2.959-1.8260028-1.753 0-2.461.1130028-2.461 1.6950028 0 1.864.764 1.955 2.461 1.955 1.471 0 2.959-.037 2.959-1.824zm.037 2.906v-1.006l-.037-.038c-.56 1.118-1.992 1.154-3.221 1.154-2.199 0-3.725-.409-3.725-2.96 0-2.701 1.398-3.074 3.817-3.074.969 0 2.869.094 3.073.987h.093v-1.806c0-1.788-.949-1.956-2.607-1.956-1.155 0-2.571 0-2.551 1.342v.334h-1.528v-.204c0-2.515 1.733-2.683 3.912-2.664 2.457-.019 4.265.243 4.246 3.223v6.668z"/><path d="m117.814 58.4959h.036c.466-1.175 1.9-1.304 3.017-1.304 2.516 0 3.724.669 3.689 3.389v6.5h-1.473v-6.611c0-1.789-.687-2.085-2.345-2.085-2.403 0-2.924.744-2.924 2.998v5.698h-1.473v-9.778h1.473z"/><path d="m135.263 63.5423v.541c0 2.756-1.825 3.11-4.154 3.11-4.06 0-4.338-1.565-4.338-5.197 0-3.184.558-4.804 4.096-4.804 2.365 0 4.228.26 4.228 3.036v.26h-1.472v-.298c0-1.77-.967-1.806-2.662-1.806-2.608 0-2.663.893-2.663 4.023 0 2.755.111 3.593 2.98 3.593 1.843 0 2.514-.204 2.514-1.974v-.484z"/><path d="m144.033 61.3259c-.075-2.774-.408-2.941-2.645-2.941-2.664 0-2.757.687-2.868 2.941zm1.528 2.795v.352c0 2.589-1.992 2.72-4.173 2.72-3.816 0-4.395-1.267-4.395-4.991 0-4.061.895-5.01 4.395-5.01 3.167 0 4.173.727 4.173 4.339v.988h-7.041c0 3.091.224 3.482 2.868 3.482 2.013 0 2.664-.13 2.664-1.508v-.372z"/><path d="m154.48 62.2017c0-2.681-.316-3.818-2.721-3.818-2.251 0-2.773.391-2.773 3.818 0 3.389.671 3.799 2.773 3.799 2.292 0 2.721-.781 2.721-3.799zm0 3.651-.038-.038c-.579 1.174-1.825 1.377-3.147 1.377-3.482 0-3.836-2.01-3.836-4.99 0-2.941.334-5.01 3.836-5.01 1.081 0 2.72.13 3.147 1.323h.038v-5.402h1.471v13.969h-1.471z"/><path d="m164.329 57.0603c0-3.725 1.713-4.059 5.16-4.059 3.016 0 5.196.13 5.027 3.93h-1.581c-.074-2.439-.54-2.532-3.502-2.532-3.091 0-3.52.389-3.52 2.326 0 2.664 1.265 2.441 3.872 2.515 3.316.186 4.993.093 4.993 3.873 0 3.949-1.861 4.079-5.384 4.079-3.556 0-5.4-.429-5.101-4.47h1.582c-.037 3.074.559 3.074 3.519 3.074 2.982 0 3.801 0 3.801-2.738 0-2.664-1.191-2.217-3.744-2.422-2.756-.223-5.122.111-5.122-3.576"/><path d="m183.195 65.7779h-.038c-.523 1.193-1.77 1.414-3.056 1.414-2.588 0-3.501-1.041-3.501-3.612v-6.275h1.473v6.275c0 1.583.112 2.421 2.011 2.421 2.067 0 3.129-.334 3.129-2.663v-6.033h1.47v9.777h-1.488z"/><path d="m188.501 57.3038-.077 1.21.041.037c.501-1.079 1.676-1.358 2.772-1.358 1.881 0 2.72.931 2.72 2.756v.707h-1.396v-.652c0-1.211-.41-1.62-1.64-1.62-1.824 0-2.42.876-2.384 2.606v6.091h-1.47v-9.777z"/><path d="m202.206 62.2017c0-2.72-.187-3.818-2.831-3.818-2.717 0-2.682 1.248-2.682 3.818 0 2.347-.168 3.799 2.682 3.799 2.831 0 2.831-1.621 2.831-3.799zm1.473 6.034c0 2.608-1.937 3.185-4.304 3.185-2.271 0-4.059-.354-3.91-3.185h1.472c0 1.882.893 1.993 2.438 1.993 1.751 0 2.813-.185 2.831-2.104v-2.254h-.036c-.411 1.193-1.994 1.321-3.149 1.321-3.165 0-3.855-1.637-3.855-4.99 0-3.26.502-5.01 3.855-5.01 1.361 0 2.571.187 3.149 1.359l.036-.018v-1.228h1.473z"/><path d="m212.896 61.3259c-.077-2.774-.409-2.941-2.645-2.941-2.662 0-2.756.687-2.869 2.941zm1.527 2.795v.352c0 2.589-1.992 2.72-4.172 2.72-3.818 0-4.395-1.267-4.395-4.991 0-4.061.893-5.01 4.395-5.01 3.167 0 4.172.727 4.172 4.339v.988h-7.041c0 3.091.224 3.482 2.869 3.482 2.012 0 2.663-.13 2.663-1.508v-.372z"/><path d="m217.922 57.3038-.075 1.21.037.037c.503-1.079 1.678-1.358 2.776-1.358 1.88 0 2.718.931 2.718 2.756v.707h-1.396v-.652c0-1.211-.409-1.62-1.639-1.62-1.825 0-2.421.876-2.384 2.606v6.091h-1.469v-9.777z"/><path d="m229.558 67.7711c-.522 1.843-.949 3.651-3.296 3.651-.242 0-.466-.058-.671-.093v-1.137c.167.037.335.057.522.057 1.527 0 1.694-2.049 2.029-3.167h-.52l-3.541-9.778h1.51l3.018 8.697h.036l2.199-8.697h1.527z"/><path d="m243.617 67.1924c-2.553 0-4.06-1.601-4.06-4.396v-5.399c0-3.949 2.44-4.396 5.828-4.396h1.305c2.923 0 3.817 1.266 3.817 4.023v.447h-1.583v-.393c0-1.954-.41-2.679-2.459-2.679h-.893c-3.278 0-4.431.39-4.431 2.941v3.836c0 3.186.129 4.62 2.772 4.62h1.884c2.532 0 3.314-.354 3.314-2.348v-1.117h1.584v1.303c0 3.204-2.049 3.558-4.844 3.558z"/><path d="m259.111 61.3259c-.077-2.774-.409-2.941-2.645-2.941-2.662 0-2.756.687-2.869 2.941zm1.527 2.795v.352c0 2.589-1.992 2.72-4.172 2.72-3.818 0-4.397-1.267-4.397-4.991 0-4.061.895-5.01 4.397-5.01 3.166 0 4.172.727 4.172 4.339v.988h-7.041c0 3.091.225 3.482 2.869 3.482 2.012 0 2.663-.13 2.663-1.508v-.372z"/><path d="m264.379 58.4959h.037c.467-1.175 1.9-1.304 3.018-1.304 2.514 0 3.725.669 3.687 3.389v6.5h-1.472v-6.611c0-1.789-.688-2.085-2.344-2.085-2.404 0-2.926.744-2.926 2.998v5.698h-1.471v-9.778h1.471z"/><path d="m278.868 58.4959h-3.782v6.202c.02 1.06.298 1.303 1.379 1.303 1.379 0 1.379-.726 1.379-1.657v-.727h1.396v.727c0 1.937-.801 2.849-2.812 2.849-2.291 0-2.813-.652-2.813-2.943v-5.754h-1.303v-1.193h1.303v-2.366h1.471v2.366h3.782z"/><path d="m287.247 61.3259c-.075-2.774-.408-2.941-2.645-2.941-2.662 0-2.756.687-2.868 2.941zm1.528 2.795v.352c0 2.589-1.992 2.72-4.173 2.72-3.818 0-4.395-1.267-4.395-4.991 0-4.061.893-5.01 4.395-5.01 3.167 0 4.173.727 4.173 4.339v.988h-7.041c0 3.091.224 3.482 2.868 3.482 2.013 0 2.664-.13 2.664-1.508v-.372z"/><path d="m292.275 57.3038-.076 1.21.038.037c.502-1.079 1.676-1.358 2.775-1.358 1.88 0 2.719.931 2.719 2.756v.707h-1.396v-.652c0-1.211-.41-1.62-1.641-1.62-1.823 0-2.419.876-2.383 2.606v6.091h-1.47v-9.777z"/><path d="m297.453 67.0818v-1.9h1.658v2.255c0 .985-.187 1.73-1.434 1.73h-.429v-.838c.67-.019.912-.204.912-.892v-.355z"/><path d="m307.303 65.6842h7.114v1.397h-8.697v-13.969h1.583z"/><path d="m317.396 54.5093v5.7360042h4.098c2.104 0 3.184.0199958 3.184-2.6990042 0-2.682-.484-3.037-2.44-3.037zm-1.583-1.396h7.114c2.701 0 3.335 1.825 3.335 4.227 0 1.25-.02 4.304-3.41 4.304h-5.456v5.438h-1.583z"/><path d="m33.7574 59.0665-.3807.0096c-14.2834 0-25.906-11.385-26.2817-25.5729 3.2097 2.5635 7.2787 4.0928 11.705 4.0928 10.383 0 18.799-8.415 18.799-18.797 0-4.7093-1.7316-9.0142-4.5972-12.3094l.3749-.0095c14.2374 0 25.8307 11.3124 26.2763 25.4392-3.2685-2.7579-7.4911-4.4174-12.1009-4.4174-10.384 0-18.801 8.414-18.801 18.799 0 4.929 1.8983 9.4155 5.0063 12.7656z"/></g><path d="m59.653 31.9193c4.095 3.4446 6.6961 8.6086 6.6961 14.3816 0 10.379-8.417 18.796-18.797 18.796-5.4526 0-10.3629-2.3208-13.7947-6.0304 14.3506-.1979 25.9173-11.8932 25.9173-26.2884z" fill="#00624a"/><path d="m33.7574 59.0665c-3.108-3.3501-5.0063-7.8366-5.0063-12.7656 0-10.385 8.417-18.799 18.801-18.799 4.6098 0 8.8324 1.6595 12.1009 4.4174l.0217.8588c0 14.3952-11.5667 26.0905-25.9173 26.2884z" fill="#005542"/><path d="m7.095 33.5032c-4.3247-3.4393-7.095-8.748-7.095-14.7042 0-10.382 8.417-18.799 18.8-18.799 5.6733 0 10.7593 2.5129 14.2018 6.4896-14.3527.1932-25.9251 11.8894-25.9251 26.2885z" fill="#006f9d"/><path d="m33.0018 6.4896c2.8656 3.2952 4.5972 7.6001 4.5972 12.3094 0 10.382-8.416 18.797-18.799 18.797-4.4263 0-8.4953-1.5293-11.705-4.0928l-.0183-.7251c0-14.3991 11.5724-26.0953 25.9251-26.2885z" fill="#006190"/><path d="m28.5115 28.0591-.2137-14.1642c-.039-2.646 2.076-4.824 4.722-4.863 2.643-.04 4.822 2.071 4.862 4.718l.2137 14.1648 14.1653-.2133c2.646-.04 4.824 2.072 4.863 4.718.04 2.648-2.075 4.825-4.721 4.865l-14.1627.2133.2137 14.1662c.041 2.646-2.073 4.823-4.719 4.861-2.647.042-4.823-2.069-4.865-4.715l-.2138-14.1678-14.1652.2133c-2.645.042-4.824-2.072-4.863-4.719-.039-2.646 2.072-4.823 4.718-4.864z" fill="#fff"/></g></svg>