<?xml version="1.0" encoding="UTF-8"?><svg xmlns="http://www.w3.org/2000/svg" viewBox="0 0 425.19 63.92"><defs><style>.cls-1,.cls-2{fill:#0057bf;}.cls-3,.cls-4{fill:#00B142;}.cls-5{fill:#DF1AA0;}.cls-5,.cls-2,.cls-4{mix-blend-mode:multiply;}.cls-6{isolation:isolate;}</style></defs><g class="cls-6"><g id="Layer_1_copy"><g><path class="cls-2" d="M16.72,52.01C7.5,52.01,0,44.5,0,35.28S7.5,18.56,16.72,18.56s16.72,7.5,16.72,16.72-7.5,16.72-16.72,16.72Zm0-29.93c-7.28,0-13.21,5.93-13.21,13.21s5.93,13.21,13.21,13.21,13.21-5.93,13.21-13.21-5.93-13.21-13.21-13.21Z"/><path class="cls-5" d="M24.33,41.38c-9.22,0-16.72-7.5-16.72-16.72S15.1,7.93,24.33,7.93s16.72,7.5,16.72,16.72-7.5,16.72-16.72,16.72Zm0-29.93c-7.28,0-13.21,5.93-13.21,13.21s5.93,13.21,13.21,13.21,13.21-5.93,13.21-13.21-5.93-13.21-13.21-13.21Z"/><path class="cls-4" d="M31.93,52.01c-9.22,0-16.72-7.5-16.72-16.72s7.5-16.72,16.72-16.72,16.72,7.5,16.72,16.72-7.5,16.72-16.72,16.72Zm0-29.93c-7.28,0-13.21,5.93-13.21,13.21s5.93,13.21,13.21,13.21,13.21-5.93,13.21-13.21-5.93-13.21-13.21-13.21Z"/><path class="cls-1" d="M136.11,10.07c-2.28,0-3.97,1.59-3.97,4.05,0,2.24,1.68,3.92,4.01,3.92s3.97-1.59,3.97-4.05c0-2.24-1.68-3.92-4.01-3.92Z"/><path class="cls-1" d="M70.23,20.33c-2.37,0-4.78,.86-6.68,2.41l-.39-1.94h-5.82v30.65h6.25v-10.99c1.64,1.72,3.79,2.5,6.03,2.5,5,0,10.22-4.1,10.22-11.38,0-7.76-4.74-11.25-9.61-11.25Zm-1.85,16.85c-3.36,0-4.78-2.84-4.78-5.65s1.29-5.35,4.7-5.35c3.19,0,5.22,2.33,5.22,5.82,0,3.23-2.07,5.17-5.13,5.17Z"/><rect class="cls-1" x="133.22" y="20.8" width="6.21" height="21.55"/><path class="cls-1" d="M93.04,20.15c-6.85,0-11.38,4.53-11.38,11.64s4.61,11.42,11.51,11.42c3.75,0,8.28-1.47,10.13-5.39l-4.4-2.76c-1.29,2.5-4.48,2.54-5.78,2.54-2.5,0-4.53-1.72-5.26-4.18h15.86s.56-1.25,.56-2.89c0-6.08-5-10.39-11.25-10.39Zm-5,8.84c.86-1.94,2.76-3.23,5-3.23,3.15,0,4.74,1.16,5.35,3.23h-10.35Z"/><path class="cls-1" d="M122.33,22.78c-1.9-1.59-4.35-2.46-6.73-2.46-4.87,0-9.61,3.49-9.61,11.25,0,7.29,5.22,11.38,10.22,11.38,2.24,0,4.44-.82,6.12-2.54l.34,1.94h5.82V13.69h-6.16v9.1Zm-4.87,14.4c-3.06,0-5.13-1.94-5.13-5.17,0-3.49,2.03-5.82,5.22-5.82,3.41,0,4.7,2.63,4.7,5.35s-1.42,5.65-4.78,5.65Z"/><path class="cls-1" d="M177.3,33.13v-6.25h3.45v-6.08h-3.41v-7.11h-6.25v7.11h-3.02v6.08h3.02v6.51c0,6.25,2.37,9.23,7.37,9.23,.99,0,2.8-.09,3.75-.26v-6.08c-.47,.09-1.85,.17-2.54,.17-1.81,0-2.37-.78-2.37-3.32Z"/><path class="cls-1" d="M243.64,46.79c0-.37-.3-.62-.76-.62h-.89v1.98h.38v-.71h.41l.54,.71h.47l-.6-.78c.29-.09,.45-.3,.45-.59Zm-.78,.31h-.49v-.57h.51c.24,0,.38,.1,.38,.28s-.15,.29-.4,.29Z"/><path class="cls-1" d="M244.11,39.46c.16-.3,.3-.6,.42-1,.16-.52,.26-1.31-.32-1.59-.36-.14-.65,.02-.89,.26-7.06,9.78-11.45,5.47-15.09-3.68l9.27-12.64h-7.35l-4.78,6.8-3.02-6.8h-7.73l5.48,11.08-8.41,10.46h8.11l3.3-4.47c.81,1.59,1.75,3.13,2.8,4.58,1.09,1.51,2.58,3.27,4.39,3.93,3.42,1.26,7.04,.22,9.81-2.01,1.25-1,2.32-2.21,3.21-3.53,.36-.53,.7-1.19,.81-1.4Z"/><path class="cls-1" d="M242.77,45.34c-1.04,0-1.89,.85-1.89,1.89s.84,1.88,1.88,1.88,1.89-.85,1.89-1.89-.84-1.88-1.88-1.88Zm0,3.45c-.87,0-1.55-.68-1.55-1.56s.68-1.57,1.56-1.57,1.55,.68,1.55,1.56-.68,1.57-1.56,1.57Z"/><rect class="cls-1" x="202.67" y="20.8" width="6.21" height="21.55"/><path class="cls-1" d="M205.56,10.07c-2.28,0-3.97,1.6-3.97,4.05,0,2.24,1.68,3.92,4.01,3.92s3.97-1.6,3.97-4.05c0-2.24-1.68-3.92-4.01-3.92Z"/><path class="cls-1" d="M191.41,25.1l-.05-4.3h-5.78v21.61h6.22v-10.41c0-2.72,4.53-4.83,8.02-4.83v-6.34c-2.59,0-6.6,2.07-8.41,4.27Z"/><path class="cls-1" d="M158.84,22.74c-1.9-1.55-4.31-2.41-6.64-2.41-4.87,0-9.61,3.49-9.61,11.25,0,7.29,5.22,11.38,10.22,11.38,2.2,0,4.4-.82,6.08-2.5l.39,1.9h5.82V20.8h-5.82l-.43,1.94Zm-4.78,14.44c-3.06,0-5.13-1.94-5.13-5.17,0-3.49,2.03-5.82,5.22-5.82,3.41,0,4.7,2.63,4.7,5.35s-1.42,5.65-4.78,5.65Z"/><path class="cls-3" d="M292.54,.25h2.58V15.05h-2.17l-8.14-10.53V15.05h-2.58V.25h2.41l7.91,10.23V.25Z"/><path class="cls-3" d="M313.25,10.59c-.38,.93-.92,1.74-1.61,2.44-.69,.7-1.51,1.25-2.45,1.66-.94,.41-1.99,.61-3.13,.61s-2.18-.2-3.13-.6c-.95-.4-1.76-.95-2.43-1.64-.68-.69-1.21-1.5-1.58-2.43-.38-.93-.57-1.92-.57-2.96s.19-2.03,.57-2.96c.38-.93,.92-1.74,1.61-2.44,.69-.7,1.51-1.25,2.45-1.66,.95-.41,1.99-.61,3.13-.61s2.18,.2,3.13,.6c.94,.4,1.75,.95,2.43,1.64,.68,.69,1.21,1.5,1.59,2.43,.38,.93,.57,1.92,.57,2.96s-.19,2.03-.57,2.96Zm-2.53-4.96c-.25-.64-.59-1.2-1.04-1.68-.45-.48-.98-.86-1.6-1.14-.62-.28-1.29-.42-2.03-.42s-1.4,.14-2.02,.41c-.61,.27-1.14,.65-1.57,1.12-.44,.47-.78,1.03-1.03,1.67-.25,.64-.37,1.32-.37,2.04s.12,1.4,.37,2.04c.25,.64,.59,1.2,1.04,1.68,.44,.48,.98,.86,1.6,1.14,.62,.28,1.3,.42,2.03,.42s1.41-.14,2.02-.41c.61-.28,1.14-.65,1.57-1.12,.44-.47,.78-1.03,1.03-1.67,.25-.64,.37-1.32,.37-2.04s-.12-1.4-.37-2.04Z"/><path class="cls-3" d="M326.52,15.05l-3.65-5.16h-3.26v5.16h-2.58V.25h6.59c.85,0,1.61,.11,2.29,.33s1.26,.53,1.73,.93c.47,.4,.83,.9,1.09,1.48,.25,.58,.38,1.24,.38,1.96,0,.62-.09,1.17-.26,1.66-.18,.49-.42,.92-.73,1.29-.31,.37-.68,.69-1.11,.95s-.91,.46-1.43,.6l4,5.6h-3.06Zm-.85-11.82c-.54-.42-1.29-.63-2.27-.63h-3.79V7.59h3.82c.93,0,1.67-.23,2.23-.68,.55-.45,.83-1.06,.83-1.83,0-.82-.27-1.44-.81-1.86Z"/><path class="cls-3" d="M338.5,15.05h-2.62V2.66h-4.69V.25h12.01V2.66h-4.69V15.05Z"/><path class="cls-3" d="M348.32,8.81v6.24h-2.58V.25h2.58V6.4h7.1V.25h2.58V15.05h-2.58v-6.24h-7.1Z"/><path class="cls-3" d="M370.49,.21h2.2l3.64,11.01,3.53-10.97h2.73l-5.16,14.9h-2.24l-3.64-10.63-3.64,10.63h-2.24l-5.16-14.9h2.81l3.53,10.97,3.64-11.01Z"/><path class="cls-3" d="M396.03,2.6h-8.37v3.8h7.42v2.35h-7.42v3.95h8.48v2.35h-11.05V.25h10.95V2.6Z"/><path class="cls-3" d="M401.68,4.88c.1,.21,.28,.41,.54,.59,.26,.18,.62,.35,1.08,.51,.46,.16,1.04,.32,1.75,.49,.78,.2,1.47,.42,2.07,.66,.6,.24,1.1,.53,1.49,.88,.4,.35,.7,.75,.9,1.21,.21,.46,.31,1,.31,1.62,0,.71-.13,1.33-.39,1.88-.26,.55-.62,1.01-1.08,1.4s-1.01,.67-1.66,.87c-.65,.2-1.36,.3-2.13,.3-1.14,0-2.23-.19-3.28-.58-1.04-.39-2.01-.98-2.9-1.79l1.56-1.86c.72,.62,1.44,1.1,2.18,1.43,.73,.33,1.56,.5,2.49,.5,.8,0,1.44-.17,1.91-.51,.47-.34,.71-.8,.71-1.37,0-.27-.05-.51-.14-.72-.09-.21-.26-.41-.51-.58-.25-.18-.59-.34-1.02-.5s-.99-.32-1.68-.49c-.79-.18-1.49-.39-2.11-.61-.62-.22-1.13-.51-1.55-.84-.42-.34-.74-.75-.95-1.23-.22-.48-.33-1.06-.33-1.75,0-.65,.12-1.24,.38-1.77s.6-.98,1.04-1.36c.44-.38,.97-.67,1.59-.88,.62-.2,1.29-.31,2.03-.31,1.08,0,2.06,.16,2.93,.48,.87,.32,1.68,.78,2.44,1.38l-1.39,1.97c-.68-.49-1.35-.87-2.01-1.13s-1.33-.39-2.01-.39c-.76,0-1.35,.17-1.78,.52-.42,.34-.63,.76-.63,1.26,0,.3,.05,.55,.15,.76Z"/><path class="cls-3" d="M419.08,15.05h-2.62V2.66h-4.69V.25h12.01V2.66h-4.69V15.05Z"/><path class="cls-3" d="M293.9,38.08c-.42,.32-.86,.59-1.34,.83-.48,.23-1,.41-1.58,.53-.57,.12-1.2,.18-1.89,.18-1.08,0-2.09-.2-3-.59-.92-.39-1.71-.93-2.38-1.62s-1.19-1.49-1.57-2.42c-.38-.93-.57-1.93-.57-3s.19-2.05,.56-2.98c.37-.93,.9-1.74,1.57-2.44,.68-.7,1.48-1.25,2.41-1.65,.93-.4,1.96-.6,3.09-.6,.68,0,1.29,.06,1.85,.17,.56,.11,1.07,.27,1.53,.48,.47,.2,.9,.45,1.29,.73s.77,.59,1.12,.93l-1.67,1.92c-.59-.55-1.22-.99-1.88-1.33-.66-.34-1.42-.51-2.26-.51-.71,0-1.36,.14-1.96,.41-.6,.27-1.12,.65-1.55,1.12-.44,.47-.77,1.03-1.01,1.66-.24,.63-.36,1.32-.36,2.05s.12,1.42,.36,2.06c.24,.64,.58,1.2,1.01,1.68,.44,.48,.96,.86,1.55,1.13,.6,.27,1.25,.41,1.96,.41,.9,0,1.68-.17,2.32-.52,.65-.35,1.29-.81,1.92-1.41l1.67,1.69c-.38,.41-.78,.77-1.19,1.09Z"/><path class="cls-3" d="M311.57,34.9c-.38,.93-.92,1.74-1.61,2.44s-1.51,1.25-2.45,1.66-1.99,.61-3.13,.61-2.18-.2-3.13-.6-1.75-.95-2.43-1.64c-.68-.69-1.21-1.5-1.58-2.43-.38-.93-.57-1.92-.57-2.96s.19-2.03,.57-2.96c.38-.93,.92-1.74,1.61-2.44,.69-.7,1.51-1.25,2.45-1.66,.94-.41,1.99-.61,3.13-.61s2.18,.2,3.13,.6c.94,.4,1.75,.95,2.43,1.64,.68,.69,1.21,1.5,1.59,2.43,.38,.93,.57,1.92,.57,2.96s-.19,2.03-.57,2.96Zm-2.53-4.96c-.25-.64-.59-1.2-1.04-1.68-.44-.48-.98-.86-1.6-1.14-.62-.28-1.3-.42-2.03-.42s-1.41,.14-2.02,.41c-.61,.27-1.14,.65-1.57,1.12-.44,.47-.78,1.03-1.03,1.67-.25,.64-.37,1.32-.37,2.04s.12,1.4,.37,2.04c.25,.64,.59,1.2,1.04,1.68,.44,.48,.98,.86,1.6,1.14s1.3,.42,2.03,.42,1.41-.14,2.02-.41c.61-.28,1.14-.65,1.57-1.12,.44-.47,.78-1.03,1.03-1.67,.25-.64,.37-1.32,.37-2.04s-.12-1.4-.37-2.04Z"/><path class="cls-3" d="M325.67,24.56h2.58v14.8h-2.17l-8.14-10.53v10.53h-2.58v-14.8h2.41l7.91,10.23v-10.23Z"/><path class="cls-3" d="M344.11,38.2c-.44,.28-.92,.53-1.44,.74-.51,.21-1.07,.38-1.66,.5-.59,.12-1.21,.18-1.86,.18-1.16,0-2.21-.19-3.15-.58-.94-.39-1.75-.92-2.42-1.61-.67-.68-1.19-1.49-1.55-2.42-.37-.93-.55-1.94-.55-3.02s.19-2.03,.56-2.96c.37-.93,.9-1.74,1.57-2.44,.68-.7,1.48-1.25,2.42-1.66,.94-.41,1.96-.61,3.08-.61,.65,0,1.24,.05,1.76,.14,.53,.09,1.02,.22,1.47,.39,.45,.17,.88,.38,1.28,.62,.4,.25,.79,.53,1.17,.86l-1.65,1.97c-.28-.24-.57-.46-.87-.66s-.61-.36-.93-.5c-.32-.13-.68-.24-1.07-.32s-.81-.12-1.28-.12c-.68,0-1.31,.14-1.89,.41s-1.09,.65-1.52,1.13-.77,1.04-1.01,1.67c-.25,.64-.37,1.31-.37,2.03,0,.76,.12,1.47,.36,2.12,.24,.65,.58,1.21,1.03,1.68,.44,.47,.97,.84,1.58,1.11,.61,.27,1.3,.4,2.06,.4,.7,0,1.36-.1,1.98-.31,.61-.21,1.14-.48,1.6-.82v-2.78h-3.78v-2.26h6.3v6.21c-.37,.31-.77,.61-1.22,.89Z"/><path class="cls-3" d="M359.86,26.91h-8.37v3.8h7.42v2.35h-7.42v3.95h8.48v2.35h-11.05v-14.8h10.95v2.35Z"/><path class="cls-3" d="M373.57,24.56h2.58v14.8h-2.17l-8.14-10.53v10.53h-2.58v-14.8h2.41l7.91,10.23v-10.23Z"/><path class="cls-3" d="M382.77,24.56v14.8h-2.58v-14.8h2.58Z"/><path class="cls-3" d="M392.72,39.36h-2.62v-12.39h-4.69v-2.41h12.01v2.41h-4.69v12.39Z"/><path class="cls-3" d="M412.38,39.36h-2.75l-1.5-3.57h-7l-1.52,3.57h-2.66l6.51-14.9h2.41l6.51,14.9Zm-7.76-11.79l-2.54,5.92h5.09l-2.56-5.92Z"/><path class="cls-3" d="M414.83,24.56h2.58v12.45h7.78v2.35h-10.36v-14.8Z"/><path class="cls-3" d="M284.8,57.44v6.24h-2.58v-14.8h2.58v6.15h7.1v-6.15h2.58v14.8h-2.58v-6.24h-7.1Z"/><path class="cls-3" d="M309.4,51.22h-8.37v3.8h7.42v2.35h-7.42v3.95h8.47v2.35h-11.05v-14.8h10.95v2.35Z"/><path class="cls-3" d="M327.05,63.67h-2.75l-1.5-3.57h-7l-1.52,3.57h-2.66l6.51-14.9h2.41l6.51,14.9Zm-7.76-11.79l-2.54,5.92h5.09l-2.56-5.92Z"/><path class="cls-3" d="M338.99,63.67l-3.65-5.16h-3.26v5.16h-2.58v-14.8h6.59c.85,0,1.61,.11,2.29,.33s1.26,.53,1.73,.93c.47,.4,.83,.9,1.09,1.48,.25,.58,.38,1.24,.38,1.96,0,.62-.09,1.17-.26,1.66-.18,.49-.42,.92-.73,1.29-.31,.37-.68,.69-1.11,.95s-.91,.46-1.43,.6l4,5.6h-3.06Zm-.85-11.82c-.54-.42-1.29-.63-2.27-.63h-3.79v4.99h3.82c.93,0,1.67-.23,2.23-.68,.55-.45,.83-1.06,.83-1.83,0-.82-.27-1.44-.81-1.86Z"/><path class="cls-3" d="M350.96,63.67h-2.62v-12.39h-4.69v-2.41h12.01v2.41h-4.69v12.39Z"/><path class="cls-3" d="M376.42,62.39c-.42,.32-.86,.59-1.34,.83-.48,.23-1,.41-1.57,.53-.57,.12-1.2,.18-1.89,.18-1.09,0-2.09-.2-3-.59-.92-.39-1.71-.93-2.38-1.62-.67-.68-1.19-1.49-1.58-2.42-.38-.93-.57-1.93-.57-3s.19-2.05,.56-2.98c.37-.93,.9-1.74,1.57-2.44,.68-.7,1.48-1.25,2.41-1.65,.93-.4,1.96-.6,3.09-.6,.68,0,1.29,.06,1.85,.17,.56,.11,1.07,.27,1.53,.48s.89,.45,1.29,.73,.77,.59,1.12,.93l-1.67,1.92c-.59-.55-1.22-.99-1.88-1.33s-1.42-.51-2.26-.51c-.7,0-1.36,.14-1.96,.41-.6,.27-1.12,.65-1.55,1.12-.44,.47-.78,1.03-1.01,1.66s-.36,1.32-.36,2.05,.12,1.42,.36,2.06c.24,.64,.58,1.2,1.01,1.68s.96,.86,1.55,1.13c.6,.27,1.25,.41,1.96,.41,.9,0,1.68-.17,2.33-.52,.65-.35,1.29-.81,1.92-1.41l1.67,1.69c-.38,.41-.78,.77-1.19,1.09Z"/><path class="cls-3" d="M394.53,63.67h-2.75l-1.5-3.57h-7l-1.52,3.57h-2.66l6.51-14.9h2.41l6.51,14.9Zm-7.76-11.79l-2.54,5.92h5.09l-2.56-5.92Z"/><path class="cls-3" d="M406.47,63.67l-3.65-5.16h-3.26v5.16h-2.58v-14.8h6.59c.85,0,1.61,.11,2.29,.33s1.26,.53,1.73,.93c.47,.4,.83,.9,1.09,1.48,.25,.58,.38,1.24,.38,1.96,0,.62-.09,1.17-.26,1.66-.18,.49-.42,.92-.73,1.29-.31,.37-.68,.69-1.11,.95s-.91,.46-1.43,.6l4,5.6h-3.06Zm-.85-11.82c-.54-.42-1.29-.63-2.27-.63h-3.79v4.99h3.82c.93,0,1.67-.23,2.23-.68,.55-.45,.83-1.06,.83-1.83,0-.82-.27-1.44-.81-1.86Z"/><path class="cls-3" d="M423.3,51.22h-8.37v3.8h7.42v2.35h-7.42v3.95h8.48v2.35h-11.05v-14.8h10.95v2.35Z"/><rect class="cls-1" x="261.98" y=".26" width="2.5" height="63.38"/></g></g></g></svg>