<?xml version="1.0" standalone="no"?>
<!DOCTYPE svg PUBLIC "-//W3C//DTD SVG 1.1//EN" "http://www.w3.org/Graphics/SVG/1.1/DTD/svg11.dtd">
<!--Generator: Xara Designer (www.xara.com), SVG filter version: 6.7.0.0-->
<svg fill="none" fill-rule="evenodd" stroke="black" stroke-width="0.501" stroke-linejoin="bevel" stroke-miterlimit="10" font-family="Times New Roman" font-size="16" style="font-variant-ligatures:none" xmlns:xlink="http://www.w3.org/1999/xlink" xmlns="http://www.w3.org/2000/svg" version="1.1" overflow="visible" width="144.246pt" height="66.441pt" viewBox="254.25 -502.191 144.246 66.441">
 <defs>
	</defs>
 <g id="Layer 1" transform="scale(1 -1)">
  <g id="Group" stroke="none">
   <path d="M 358.657,459.497 L 357.183,459.507 L 357.183,464.696 L 352.222,464.68 L 352.222,459.497 L 350.81,459.497 L 350.81,470.015 L 352.222,470.015 L 352.222,465.938 L 357.183,465.938 L 357.183,470.015 L 358.657,470.015 L 358.657,459.497 Z" fill="#0e2657" stroke-width="0.766" stroke-linejoin="round" stroke-linecap="round" marker-start="none" marker-end="none"/>
   <path d="M 365.986,459.497 L 360.451,459.497 L 360.423,470.015 L 365.986,470.015 L 365.986,468.621 L 361.823,468.621 L 361.823,465.938 L 365.927,465.938 L 365.927,464.696 L 361.823,464.696 L 361.823,460.894 L 365.986,460.894 L 365.986,459.497 Z" fill="#0e2657" stroke-width="0.766" stroke-linejoin="round" stroke-linecap="round" marker-start="none" marker-end="none"/>
   <path d="M 376.898,459.497 L 375.347,459.497 L 374.092,462.217 L 369.547,462.217 L 368.329,459.497 L 366.824,459.497 L 371.73,470.421 L 376.898,459.497 Z M 373.534,463.381 L 371.73,467.178 L 370.056,463.381 L 373.534,463.381 Z" fill="#0e2657" stroke-width="0.766" stroke-linejoin="round" stroke-linecap="round" marker-start="none" marker-end="none"/>
   <path d="M 382.682,459.497 L 378.069,459.497 L 378.069,470.015 L 379.494,470.015 L 379.494,460.894 L 382.682,460.894 L 382.682,459.497 Z" fill="#0e2657" stroke-width="0.766" stroke-linejoin="round" stroke-linecap="round" marker-start="none" marker-end="none"/>
   <path d="M 389.209,470.015 L 389.203,468.621 L 386.807,468.621 L 386.807,459.497 L 385.306,459.497 L 385.306,468.621 L 382.879,468.621 L 382.879,470.015 L 389.209,470.015 Z" fill="#0e2657" stroke-width="0.766" stroke-linejoin="round" stroke-linecap="round" marker-start="none" marker-end="none"/>
   <path d="M 398.496,459.497 L 397.022,459.507 L 397.022,464.696 L 392.061,464.68 L 392.061,459.497 L 390.649,459.497 L 390.649,470.015 L 392.061,470.015 L 392.061,465.938 L 397.022,465.938 L 397.022,470.015 L 398.496,470.015 L 398.496,459.497 Z" fill="#0e2657" stroke-width="0.766" stroke-linejoin="round" stroke-linecap="round" marker-start="none" marker-end="none"/>
   <path d="M 275.05,441.096 L 271.063,441.096 L 261.329,454.817 L 261.329,441.096 L 257.053,441.096 L 257.053,461.517 L 261.194,461.517 L 270.891,448.219 L 270.891,461.517 L 275.05,461.517 L 275.05,441.096 Z" fill="#0e2657" stroke-width="0.766" stroke-linejoin="round" stroke-linecap="round" marker-start="none" marker-end="none"/>
   <path d="M 292.474,447.648 C 292.461,445.607 291.729,443.896 290.266,442.53 C 288.805,441.161 287.035,440.473 284.96,440.476 C 282.937,440.473 281.195,441.198 279.737,442.644 C 278.275,444.084 277.551,445.808 277.56,447.802 C 277.572,449.813 278.334,451.512 279.848,452.893 C 281.325,454.271 283.11,454.956 285.2,454.956 C 287.186,454.956 288.897,454.237 290.334,452.797 C 291.775,451.364 292.483,449.643 292.474,447.648 Z M 288.436,447.719 C 288.379,448.724 288.015,449.557 287.346,450.223 C 286.677,450.883 285.869,451.197 284.923,451.166 C 284.013,451.129 283.236,450.769 282.604,450.09 C 281.969,449.406 281.661,448.604 281.685,447.685 C 281.707,446.76 282.046,445.965 282.7,445.308 C 283.35,444.654 284.133,444.321 285.043,444.321 C 285.976,444.321 286.788,444.664 287.476,445.336 C 288.163,446.011 288.482,446.803 288.436,447.719 Z" fill="#0e2657" stroke-width="0.766" stroke-linejoin="round" stroke-linecap="round" marker-start="none" marker-end="none"/>
   <path d="M 303.524,450.935 C 303.154,451.006 302.763,451.043 302.347,451.043 C 301.446,451.043 300.759,450.858 300.287,450.489 C 299.454,449.84 299.038,448.906 299.038,447.685 L 299.038,441.096 L 294.968,441.096 L 294.968,454.435 L 299.038,454.435 L 299.038,452.621 C 299.627,453.414 300.287,453.988 301.015,454.336 C 301.798,454.703 302.636,454.872 303.524,454.842 L 303.524,450.935 Z" fill="#0e2657" stroke-width="0.766" stroke-linejoin="round" stroke-linecap="round" marker-start="none" marker-end="none"/>
   <path d="M 313.474,451.102 L 311.22,451.102 L 311.22,441.096 L 307.203,441.096 L 307.203,451.102 L 305.797,451.102 L 305.797,454.431 L 307.203,454.431 L 307.203,458.554 L 311.31,458.554 L 311.31,454.431 L 313.474,454.431 L 313.474,451.102 Z" fill="#0e2657" stroke-width="0.766" stroke-linejoin="round" stroke-linecap="round" marker-start="none" marker-end="none"/>
   <path d="M 329.319,441.096 L 325.351,441.096 L 325.351,449.224 C 325.351,450.577 324.648,451.268 323.239,451.302 C 322.582,451.317 321.99,451.083 321.457,450.611 C 320.923,450.136 320.661,449.581 320.661,448.946 L 320.661,441.096 L 316.607,441.096 L 316.607,463.335 L 320.606,463.335 L 320.606,452.979 C 321.821,454.231 323.19,454.851 324.71,454.842 C 326.051,454.826 327.155,454.37 328.021,453.47 C 328.884,452.569 329.319,451.478 329.319,450.195 L 329.319,441.096 Z" fill="#0e2657" stroke-width="0.766" stroke-linejoin="round" stroke-linecap="round" marker-start="none" marker-end="none"/>
   <path d="M 347.301,447.047 C 347.289,445.323 346.721,443.901 345.602,442.777 C 344.483,441.648 343.049,441.09 341.307,441.09 L 332.544,441.09 L 332.544,461.508 L 340.542,461.508 C 341.914,461.508 343.08,461.017 344.033,460.031 C 344.985,459.056 345.503,457.789 345.584,456.244 C 345.627,455.387 345.454,454.598 345.056,453.88 C 344.656,453.155 344.119,452.597 343.435,452.212 C 344.498,451.882 345.399,451.259 346.139,450.334 C 346.925,449.344 347.31,448.243 347.301,447.047 Z M 341.221,455.881 C 341.242,456.476 341.063,456.997 340.681,457.438 C 340.265,457.922 339.701,458.162 338.985,458.162 L 336.627,458.162 L 336.627,453.399 L 338.951,453.399 C 340.416,453.399 341.174,454.231 341.221,455.881 Z M 342.883,447.287 C 342.861,448.034 342.624,448.65 342.173,449.134 C 341.674,449.643 341.023,449.899 340.216,449.899 L 336.676,449.899 L 336.676,444.534 L 340.182,444.534 C 340.999,444.534 341.662,444.802 342.164,445.336 C 342.667,445.875 342.907,446.523 342.883,447.287 Z" fill="#0e2657" stroke-width="0.766" stroke-linejoin="round" stroke-linecap="round" marker-start="none" marker-end="none"/>
   <path d="M 363.834,441.053 L 359.838,441.053 L 359.838,442.293 C 358.657,441.198 357.291,440.634 355.731,440.597 C 353.93,440.55 352.398,441.226 351.124,442.626 C 349.876,443.988 349.237,445.61 349.203,447.494 C 349.169,449.406 349.761,451.083 350.989,452.517 C 352.256,453.984 353.81,454.703 355.644,454.681 C 357.238,454.657 358.694,454.055 360.01,452.874 L 360.01,454.385 L 363.834,454.385 L 363.834,441.053 Z M 360.161,447.667 C 360.149,448.623 359.81,449.443 359.141,450.124 C 358.469,450.806 357.652,451.126 356.68,451.092 C 355.675,451.058 354.867,450.71 354.248,450.044 C 353.631,449.381 353.31,448.567 353.286,447.599 C 353.264,446.649 353.601,445.841 354.3,445.179 C 354.997,444.503 355.808,444.161 356.733,444.152 C 357.667,444.139 358.478,444.485 359.156,445.191 C 359.838,445.894 360.174,446.723 360.161,447.667 Z" fill="#0e2657" stroke-width="0.766" stroke-linejoin="round" stroke-linecap="round" marker-start="none" marker-end="none"/>
   <path d="M 381.137,454.379 L 372.615,435.75 L 368.462,435.75 L 371.388,442.067 L 365.706,454.379 L 370.173,454.379 L 373.534,446.696 L 376.857,454.379 L 381.137,454.379 Z" fill="#0e2657" stroke-width="0.766" stroke-linejoin="round" stroke-linecap="round" marker-start="none" marker-end="none"/>
   <path d="M 274.276,495.23 L 276.9,498.109 C 281.099,502.719 287.685,503.547 291.641,499.966 L 296.849,495.239 L 286.643,484.003 L 274.276,495.23 Z" fill="#a6cf4f" stroke-width="0.555" fill-rule="evenodd" marker-start="none" marker-end="none"/>
   <path d="M 254.25,473.153 L 265.23,485.24 L 273.052,493.861 L 285.422,482.634 L 274.199,470.255 C 269.997,465.652 263.414,464.819 259.461,468.411 L 254.25,473.153 Z" fill="#009ee0" stroke-width="33.404" stroke-linejoin="round" stroke-linecap="round" marker-start="none" marker-end="none"/>
   <path d="M 288,482.773 L 299.075,494.983 C 303.278,499.586 309.86,500.416 313.816,496.833 L 319.027,492.106 L 308.044,480.023 L 300.379,471.565 L 288,482.773 Z" fill="#6ba818" stroke-width="0.392" fill-rule="evenodd" marker-start="none" marker-end="none"/>
   <path d="M 276.444,470.015 L 286.788,481.413 L 299.161,470.193 L 296.396,467.138 C 292.193,462.531 285.61,461.699 281.654,465.288 L 276.444,470.015 Z" fill="#008045" stroke-width="0.395" fill-rule="evenodd" marker-start="none" marker-end="none"/>
  </g>
 </g>
</svg>
