<?xml version="1.0" encoding="utf-8"?>
<!-- Generator: Adobe Illustrator 25.2.3, SVG Export Plug-In . SVG Version: 6.00 Build 0)  -->
<svg version="1.1" id="Layer_1" xmlns="http://www.w3.org/2000/svg" xmlns:xlink="http://www.w3.org/1999/xlink" x="0px" y="0px"
	 viewBox="0 0 225.4 69.5" style="enable-background:new 0 0 225.4 69.5;" xml:space="preserve">
<style type="text/css">
	.st0{fill:#6DC4BC;}
	.st1{fill:#004A7C;}
	.st2{fill:#FFFFFF;}
	.st3{fill:#C3E4E0;}
	.st4{fill:none;}
</style>
<g>
	<g>
		<g>
			<g>
				<path class="st0" d="M18.9,38.2c-0.7-0.8-1.4-1.6-1.9-2.5c-1.3-2.1-2.2-4.4-2.7-6.9c-0.2-1-0.3-2.1-0.3-3.2
					c0-2.6,0.5-5.1,1.5-7.4c-0.4-0.2-0.9-0.3-1.5-0.5c-1.1-0.4-2.3-0.8-3.5-1.1c-0.9-0.2-1.7-0.5-2.5-0.6c0,0,0,0.1-0.1,0.3
					c-0.1,0.4-0.2,1.1-0.3,2c0,0.3,0,0.7,0,1c0,7.9,4.1,14.9,10.2,19c0.5,0.3,1.1,0.7,1.6,1c0.1,0.1,0.5,0.3,0.6,0.3
					C19.8,39.1,19.2,38.5,18.9,38.2z"/>
				<path class="st0" d="M5.8,18c-1.2-0.1-2.4-0.2-3.5-0.2c-0.1,0-0.3,0-0.4,0c0,0,0,0.2,0,0.7c0.1,0.9,0.2,1.8,0.4,2.6
					C3.5,27,6.9,31.8,11.5,35c-3.6-4.4-5.7-9.9-5.7-15.8C5.7,18.8,5.8,18.4,5.8,18z"/>
				<path class="st0" d="M27.8,27.4c-0.7-4.4-4.4-8.8-8.7-11.6c-0.3,0.4-0.5,0.8-0.7,1.2c-1.5,2.5-2.3,5.4-2.3,8.5
					c0,3.2,0.9,6.2,2.4,8.7c0.7,1.2,1.5,2.2,2.5,3.2c0.2,0.2,0.4,0.3,0.5,0.5c0.5,0.5,1.1,0.9,1.6,1.3c0,0,0,0,0,0
					c0.2,0.1,0.4,0.3,0.7,0.4c0.3,0.2,0.5,0.3,0.8,0.5c1.1,0.6,2.3,1.1,3.6,1.4c0.1-1.7,0.2-6.5-0.1-10.6
					C28,29.6,27.9,28.4,27.8,27.4z"/>
			</g>
			<g>
				<path class="st0" d="M39.5,38.2c0.7-0.8,1.4-1.6,1.9-2.5c1.3-2.1,2.2-4.4,2.7-6.9c0.2-1,0.3-2.1,0.3-3.2c0-2.6-0.5-5.1-1.5-7.4
					c0.4-0.2,0.9-0.3,1.5-0.5c1.1-0.4,2.3-0.8,3.5-1.1c0.9-0.2,1.7-0.5,2.5-0.6c0,0,0,0.1,0.1,0.3c0.1,0.4,0.2,1.1,0.3,2
					c0,0.3,0,0.7,0,1c0,7.9-4.1,14.9-10.2,19c-0.5,0.3-1.1,0.7-1.6,1c-0.1,0.1-0.5,0.3-0.6,0.3C38.6,39.1,39.2,38.5,39.5,38.2z"/>
				<path class="st0" d="M52.6,18c1.2-0.1,2.4-0.2,3.5-0.2c0.1,0,0.3,0,0.4,0c0,0,0,0.2,0,0.7c-0.1,0.9-0.2,1.8-0.4,2.6
					C54.9,27,51.5,31.8,47,35c3.6-4.4,5.7-9.9,5.7-15.8C52.7,18.8,52.7,18.4,52.6,18z"/>
				<path class="st0" d="M30.7,27.4c0.7-4.4,4.4-8.8,8.7-11.6c0.3,0.4,0.5,0.8,0.7,1.2c1.5,2.5,2.3,5.4,2.3,8.5
					c0,3.2-0.9,6.2-2.4,8.7c-0.7,1.2-1.5,2.2-2.5,3.2c-0.2,0.2-0.4,0.3-0.5,0.5c-0.5,0.5-1.1,0.9-1.6,1.3c0,0,0,0,0,0
					c-0.2,0.1-0.4,0.3-0.7,0.4c-0.3,0.2-0.5,0.3-0.8,0.5c-1.1,0.6-2.3,1.1-3.6,1.4c-0.1-1.7-0.2-6.5,0.1-10.6
					C30.4,29.6,30.5,28.4,30.7,27.4z"/>
			</g>
		</g>
		<path class="st1" d="M29.2,44.8C16.1,44.8,4.9,36.6,0.5,25c2.9,13.2,14.7,23.1,28.7,23.1c14,0,25.8-9.9,28.8-23.1
			C53.5,36.6,42.3,44.8,29.2,44.8z"/>
		<g>
			<path class="st1" d="M16.4,16.4c0.3-0.5,0.6-1.1,1-1.6l1.1-1.6l1.6,1.1c4.4,2.9,7.7,6.9,9,10.8c1.4-4,4.7-8,9-10.8l1.6-1.1
				l1.1,1.6c0.4,0.5,0.7,1.1,1,1.6c1.6-0.6,4-1.4,6.1-1.9C45.9,6.1,38.3,0,29.2,0S12.6,6.1,10.3,14.5C12.5,15,14.9,15.9,16.4,16.4z"
				/>
		</g>
	</g>
	<g>
		<polygon class="st1" points="78,20.1 68.6,6.8 65.5,6.8 65.5,25.7 68.7,25.7 68.7,12.4 78.2,25.7 81.3,25.7 81.3,6.8 78,6.8 		"/>
		<path class="st1" d="M93.7,6.5c-5.6,0-9.9,4.2-9.9,9.7s4.2,9.7,9.9,9.7c5.6,0,9.9-4.2,9.9-9.7S99.4,6.5,93.7,6.5z M100.2,16.2
			c0,3.3-2.4,6.7-6.5,6.7s-6.5-3.4-6.5-6.7s2.4-6.7,6.5-6.7S100.2,12.9,100.2,16.2z"/>
		<path class="st1" d="M118.5,12.6c0-3.4-2.7-5.8-6.8-5.8h-5.4v18.8h3.2v-7.3h1l5.1,7.3h3.9l-5.4-7.7
			C115.6,17.6,118.5,16.3,118.5,12.6z M115.3,12.6c0,1.8-1.3,2.8-3.5,2.8h-2.3V9.8h2.3C114,9.8,115.3,10.8,115.3,12.6z"/>
		<polygon class="st1" points="120,9.8 125.4,9.8 125.4,25.7 128.7,25.7 128.7,9.8 134.1,9.8 134.1,6.8 120,6.8 		"/>
		<polygon class="st1" points="148.3,14.5 139.7,14.5 139.7,6.8 136.4,6.8 136.4,25.7 139.7,25.7 139.7,17.5 148.3,17.5 148.3,25.7 
			151.5,25.7 151.5,6.8 148.3,6.8 		"/>
		<polygon class="st1" points="185.7,17.5 193.7,17.5 193.7,14.5 185.7,14.5 185.7,9.8 194.4,9.8 194.4,6.8 182.4,6.8 182.4,25.7 
			194.5,25.7 194.5,22.7 185.7,22.7 		"/>
		<path class="st1" d="M204.5,14.9c-2.7-1.2-4-1.8-4-3.2c0-1.1,1-2.2,2.7-2.2c2.1,0,3.3,1.6,3.3,1.7l0.3,0.4l2.5-1.9l-0.3-0.4
			c-0.1-0.1-2-2.8-5.8-2.8c-3.7,0-6,2.6-6,5.2c0,3.5,3.1,4.8,5.5,5.9c2.2,0.9,3.4,1.6,3.4,3.1c0,1.6-1.6,2.3-3.1,2.3
			c-2.7,0-3.7-2.4-3.7-2.5l-0.2-0.5l-2.7,1.5l0.2,0.4c0.1,0.2,1.7,4,6.5,4c3.7,0,6.4-2.2,6.4-5.3C209.6,17.3,207.3,16.1,204.5,14.9z
			"/>
		<polygon class="st1" points="211.3,6.8 211.3,9.8 216.8,9.8 216.8,25.7 220,25.7 220,9.8 225.4,9.8 225.4,6.8 		"/>
		<polygon class="st1" points="161.9,25.8 167,12.9 172,25.8 172.9,25.8 180.5,6.8 177,6.8 172.5,18.4 168.2,6.8 165.9,6.8 
			161.5,18.4 157,6.8 153.5,6.8 161,25.8 		"/>
	</g>
	<g>
		<polygon class="st1" points="73.2,38.3 67.5,38.3 67.5,33.2 65.5,33.2 65.5,45.5 67.5,45.5 67.5,40.1 73.2,40.1 73.2,45.5 
			75.2,45.5 75.2,33.2 73.2,33.2 		"/>
		<polygon class="st1" points="85.5,40.1 90.8,40.1 90.8,38.3 85.5,38.3 85.5,35.1 91.2,35.1 91.2,33.2 83.5,33.2 83.5,45.5 
			91.3,45.5 91.3,43.6 85.5,43.6 		"/>
		<path class="st1" d="M103.4,33.2l-5.1,12.2h2.2l1.3-3.2h5l1.3,3.2h2.2l-5.1-12.2H103.4z M106,40.4h-3.4l1.7-4.2L106,40.4z"/>
		<polygon class="st1" points="119.6,33.2 117.5,33.2 117.5,45.5 125.1,45.5 125.1,43.6 119.6,43.6 		"/>
		<polygon class="st1" points="130.1,35.1 133.6,35.1 133.6,45.5 135.7,45.5 135.7,35.1 139.3,35.1 139.3,33.2 130.1,33.2 		"/>
		<polygon class="st1" points="154.7,38.3 149,38.3 149,33.2 147,33.2 147,45.5 149,45.5 149,40.1 154.7,40.1 154.7,45.5 
			156.8,45.5 156.8,33.2 154.7,33.2 		"/>
		<path class="st1" d="M174,42.3c0,0-1.3,1.5-3.4,1.5c-2.7,0-4.3-2.3-4.3-4.4s1.6-4.4,4.3-4.4c2.1,0,3.2,1.3,3.2,1.3l0.2,0.2
			l1.4-1.3l-0.2-0.2c-0.1-0.1-1.7-1.9-4.7-1.9c-3.7,0-6.4,2.7-6.4,6.3c0,3.6,2.8,6.3,6.4,6.3c3,0,4.7-1.9,4.8-2l0.2-0.2l-1.4-1.4
			L174,42.3z"/>
		<path class="st1" d="M186.5,33.2l-5.1,12.2h2.2l1.3-3.2h5l1.3,3.2h2.2l-5.1-12.2H186.5z M189.1,40.4h-3.4l1.7-4.2L189.1,40.4z"/>
		<path class="st1" d="M208.5,37c0-2.2-1.8-3.7-4.4-3.7h-3.5v12.2h2v-4.8h0.7l3.4,4.8h2.5l-3.5-5C206.6,40.2,208.5,39.4,208.5,37z
			 M206.5,37c0,1.2-0.8,1.8-2.3,1.8h-1.6v-3.7h1.6C205.6,35.1,206.5,35.8,206.5,37z"/>
		<polygon class="st1" points="218.7,43.6 218.7,40.1 224,40.1 224,38.3 218.7,38.3 218.7,35.1 224.4,35.1 224.4,33.2 216.7,33.2 
			216.7,45.5 224.5,45.5 224.5,43.6 		"/>
	</g>
	<rect y="53.7" class="st0" width="225" height="15.8"/>
	<g>
		<path class="st2" d="M7.5,65.9v-8.4h1.2l1.4,3.6c0.3,0.8,0.7,1.8,1,2.7h0c-0.1-1.1-0.1-2.4-0.1-3.9v-2.4h1.2v8.4H11l-1.4-3.6
			c-0.3-0.8-0.7-1.8-0.9-2.7h0c0.1,1,0.1,2.2,0.1,3.9v2.3H7.5z"/>
		<path class="st2" d="M15.8,66c-1.7,0-2.5-1.8-2.5-4.3c0-2.5,0.9-4.3,2.6-4.3c1.8,0,2.5,1.9,2.5,4.2C18.4,64.7,17.2,66,15.8,66
			L15.8,66z M15.8,64.8c0.9,0,1.1-1.5,1.1-3.2c0-1.5-0.2-3.1-1.1-3.1c-0.9,0-1.2,1.6-1.2,3.1C14.6,63.3,14.9,64.8,15.8,64.8
			L15.8,64.8z"/>
		<path class="st2" d="M19.4,57.6c0.5-0.1,1-0.2,1.6-0.2c0.9,0,1.6,0.1,2.1,0.6c0.5,0.4,0.6,1,0.6,1.7c0,1-0.5,1.7-1.3,2.1v0
			c0.6,0.2,0.9,0.8,1.1,1.8c0.2,1,0.4,1.9,0.5,2.2h-1.4c-0.1-0.2-0.3-1.1-0.4-2c-0.2-1.1-0.5-1.4-1.1-1.4h-0.3v3.5h-1.3V57.6z
			 M20.7,61.3h0.4c0.8,0,1.3-0.6,1.3-1.5c0-0.8-0.3-1.4-1.2-1.4c-0.2,0-0.3,0-0.4,0.1V61.3z"/>
		<path class="st2" d="M25.8,58.7h-1.5v-1.2h4.4v1.2h-1.5v7.2h-1.3V58.7z"/>
		<path class="st2" d="M30.8,57.4v3.5h2v-3.5h1.3v8.4h-1.3v-3.7h-2v3.7h-1.3v-8.4H30.8z"/>
		<path class="st2" d="M36.5,65.9L35,57.4h1.4l0.5,3.7c0.1,1,0.2,2,0.4,3h0c0.1-1,0.3-2,0.5-3l0.7-3.7h1.1l0.6,3.6
			c0.2,1,0.3,1.9,0.5,3h0c0.1-1.1,0.2-2.1,0.4-3l0.5-3.6h1.3l-1.5,8.4H40l-0.6-3.3c-0.1-0.8-0.3-1.8-0.4-2.8h0
			c-0.1,1-0.3,1.9-0.5,2.8l-0.7,3.3H36.5z"/>
		<path class="st2" d="M47.1,62h-2v2.7h2.3v1.2h-3.6v-8.4h3.5v1.2h-2.1v2.3h2V62z"/>
		<path class="st2" d="M48.3,64.4c0.3,0.2,0.9,0.3,1.3,0.3c0.8,0,1.3-0.5,1.3-1.2c0-0.7-0.4-1.1-1.1-1.5c-0.9-0.6-1.6-1.4-1.6-2.3
			c0-1.3,0.9-2.3,2.5-2.3c0.5,0,1,0.2,1.2,0.3l-0.2,1.2c-0.2-0.2-0.6-0.3-1-0.3c-0.8,0-1.1,0.5-1.1,1c0,0.6,0.3,0.9,1.2,1.5
			c1.1,0.7,1.5,1.5,1.5,2.4c0,1.5-1.1,2.5-2.6,2.5c-0.6,0-1.3-0.2-1.5-0.4L48.3,64.4z"/>
		<path class="st2" d="M54.1,58.7h-1.5v-1.2h4.4v1.2h-1.5v7.2h-1.3V58.7z"/>
		<path class="st3" d="M60.7,57.4h0.5v8.4h-0.5V57.4z"/>
		<path class="st2" d="M67,66c-1.7,0-2.5-1.8-2.5-4.3c0-2.5,0.9-4.3,2.6-4.3c1.8,0,2.5,1.9,2.5,4.2C69.6,64.7,68.5,66,67,66L67,66z
			 M67.1,64.8c0.9,0,1.1-1.5,1.1-3.2c0-1.5-0.2-3.1-1.1-3.1c-0.9,0-1.2,1.6-1.2,3.1C65.9,63.3,66.2,64.8,67.1,64.8L67.1,64.8z"/>
		<path class="st2" d="M70.7,57.6c0.5-0.1,1-0.2,1.6-0.2c0.9,0,1.6,0.1,2.1,0.6c0.5,0.4,0.6,1,0.6,1.7c0,1-0.5,1.7-1.3,2.1v0
			c0.6,0.2,0.9,0.8,1.1,1.8c0.2,1,0.4,1.9,0.5,2.2h-1.4c-0.1-0.2-0.3-1.1-0.4-2c-0.2-1.1-0.5-1.4-1.1-1.4H72v3.5h-1.3V57.6z
			 M72,61.3h0.4c0.8,0,1.3-0.6,1.3-1.5c0-0.8-0.3-1.4-1.2-1.4c-0.2,0-0.3,0-0.4,0.1V61.3z"/>
		<path class="st2" d="M78.2,66c-1.7,0-2.5-1.8-2.5-4.3c0-2.5,0.9-4.3,2.6-4.3c1.8,0,2.5,1.9,2.5,4.2C80.8,64.7,79.7,66,78.2,66
			L78.2,66z M78.3,64.8c0.9,0,1.1-1.5,1.1-3.2c0-1.5-0.2-3.1-1.1-3.1c-0.9,0-1.2,1.6-1.2,3.1C77.1,63.3,77.4,64.8,78.3,64.8
			L78.3,64.8z"/>
		<path class="st2" d="M85.1,65.9l-1.9-8.4h1.5l0.7,3.8c0.2,0.9,0.4,2,0.5,3.1h0c0.1-1,0.3-2.1,0.5-3.1l0.7-3.7h1.4l-1.9,8.4H85.1z"
			/>
		<path class="st2" d="M89.7,63.7l-0.4,2.2H88l1.9-8.4h1.6l1.7,8.4h-1.3l-0.4-2.2H89.7z M91.2,62.6l-0.3-1.9
			c-0.1-0.5-0.2-1.3-0.3-1.9h0c-0.1,0.6-0.2,1.4-0.3,1.9l-0.4,1.9H91.2z"/>
		<path class="st2" d="M94,57.4h1.3v7.3h2.2v1.1H94V57.4z"/>
		<path class="st2" d="M98.4,57.4h1.3v7.3h2.2v1.1h-3.6V57.4z"/>
		<path class="st2" d="M106.1,62h-2v2.7h2.3v1.2h-3.6v-8.4h3.5v1.2h-2.1v2.3h2V62z"/>
		<path class="st2" d="M108.7,65.9v-3.4l-1.8-5h1.4l0.6,2c0.2,0.6,0.4,1.2,0.5,1.8h0c0.1-0.6,0.3-1.3,0.5-1.9l0.6-2h1.4l-1.9,5v3.4
			H108.7z"/>
		<path class="st3" d="M115.6,57.4h0.5v8.4h-0.5V57.4z"/>
		<path class="st2" d="M120.1,64.4c0.3,0.2,0.9,0.3,1.3,0.3c0.8,0,1.3-0.5,1.3-1.2c0-0.7-0.4-1.1-1.1-1.5c-0.9-0.6-1.6-1.4-1.6-2.3
			c0-1.3,0.9-2.3,2.5-2.3c0.5,0,1,0.2,1.2,0.3l-0.2,1.2c-0.2-0.2-0.6-0.3-1-0.3c-0.8,0-1.1,0.5-1.1,1c0,0.6,0.3,0.9,1.2,1.5
			c1.1,0.7,1.5,1.5,1.5,2.4c0,1.5-1.1,2.5-2.6,2.5c-0.6,0-1.3-0.2-1.5-0.4L120.1,64.4z"/>
		<path class="st2" d="M126.1,63.7l-0.5,2.2h-1.3l1.9-8.4h1.6l1.7,8.4h-1.3l-0.5-2.2H126.1z M127.7,62.6l-0.4-1.9
			c-0.1-0.5-0.2-1.3-0.3-1.9h0c-0.1,0.6-0.2,1.4-0.3,1.9l-0.4,1.9H127.7z"/>
		<path class="st2" d="M131.7,57.4v3.5h2v-3.5h1.3v8.4h-1.3v-3.7h-2v3.7h-1.3v-8.4H131.7z"/>
		<path class="st2" d="M137.7,57.4V63c0,1.4,0.4,1.8,0.9,1.8c0.6,0,1-0.4,1-1.8v-5.5h1.3v5.3c0,2.2-0.9,3.2-2.3,3.2
			c-1.5,0-2.3-1-2.3-3.1v-5.4H137.7z"/>
		<path class="st2" d="M143.3,63.7l-0.5,2.2h-1.3l1.9-8.4h1.6l1.7,8.4h-1.3l-0.5-2.2H143.3z M144.8,62.6l-0.4-1.9
			c-0.1-0.5-0.2-1.3-0.3-1.9h0c-0.1,0.6-0.2,1.4-0.3,1.9l-0.4,1.9H144.8z"/>
		<path class="st2" d="M147.5,57.6c0.5-0.1,1-0.2,1.6-0.2c0.9,0,1.6,0.1,2.1,0.6c0.5,0.4,0.6,1,0.6,1.7c0,1-0.5,1.7-1.3,2.1v0
			c0.6,0.2,0.9,0.8,1.1,1.8c0.2,1,0.4,1.9,0.5,2.2h-1.4c-0.1-0.2-0.3-1.1-0.4-2c-0.2-1.1-0.5-1.4-1.1-1.4h-0.3v3.5h-1.3V57.6z
			 M148.9,61.3h0.4c0.8,0,1.3-0.6,1.3-1.5c0-0.8-0.3-1.4-1.2-1.4c-0.2,0-0.3,0-0.5,0.1V61.3z"/>
		<path class="st2" d="M154.3,57.4v8.4H153v-8.4H154.3z"/>
		<path class="st2" d="M156.6,58.7h-1.5v-1.2h4.4v1.2H158v7.2h-1.3V58.7z"/>
		<path class="st2" d="M161,63.7l-0.5,2.2h-1.3l1.9-8.4h1.6l1.7,8.4h-1.3l-0.4-2.2H161z M162.5,62.6l-0.4-1.9
			c-0.1-0.5-0.2-1.3-0.3-1.9h0c-0.1,0.6-0.2,1.4-0.3,1.9l-0.4,1.9H162.5z"/>
		<path class="st3" d="M168.5,57.4h0.5v8.4h-0.5V57.4z"/>
		<path class="st2" d="M174.5,57.4v3.5h2v-3.5h1.3v8.4h-1.3v-3.7h-2v3.7h-1.3v-8.4H174.5z"/>
		<path class="st2" d="M181.3,66c-1.7,0-2.5-1.8-2.5-4.3c0-2.5,1-4.3,2.6-4.3c1.8,0,2.5,1.9,2.5,4.2C183.9,64.7,182.8,66,181.3,66
			L181.3,66z M181.4,64.8c0.9,0,1.1-1.5,1.1-3.2c0-1.5-0.2-3.1-1.2-3.1c-0.9,0-1.2,1.6-1.2,3.1C180.2,63.3,180.5,64.8,181.4,64.8
			L181.4,64.8z"/>
		<path class="st2" d="M186.3,57.4V63c0,1.4,0.4,1.8,0.9,1.8c0.6,0,1-0.4,1-1.8v-5.5h1.3v5.3c0,2.2-0.9,3.2-2.3,3.2
			c-1.5,0-2.3-1-2.3-3.1v-5.4H186.3z"/>
		<path class="st2" d="M195.3,65.6c-0.4,0.1-1,0.3-1.6,0.3c-0.9,0-1.6-0.2-2.1-0.8c-0.7-0.7-1.1-1.9-1-3.4c0-3.2,1.8-4.4,3.4-4.4
			c0.6,0,1,0.1,1.3,0.2l-0.3,1.1c-0.2-0.1-0.5-0.2-1-0.2c-1.1,0-2.1,0.8-2.1,3.2c0,2.3,0.9,3.1,1.8,3.1c0.2,0,0.4,0,0.4-0.1v-2.4
			h-0.9v-1.1h2.1V65.6z"/>
		<path class="st2" d="M197.8,57.4v3.5h2v-3.5h1.3v8.4h-1.3v-3.7h-2v3.7h-1.3v-8.4H197.8z"/>
		<path class="st2" d="M203.5,58.7h-1.5v-1.2h4.4v1.2h-1.5v7.2h-1.3V58.7z"/>
		<path class="st2" d="M209.1,66c-1.7,0-2.5-1.8-2.5-4.3c0-2.5,1-4.3,2.6-4.3c1.8,0,2.5,1.9,2.5,4.2C211.7,64.7,210.6,66,209.1,66
			L209.1,66z M209.2,64.8c0.9,0,1.1-1.5,1.1-3.2c0-1.5-0.2-3.1-1.2-3.1c-0.9,0-1.2,1.6-1.2,3.1C208,63.3,208.3,64.8,209.2,64.8
			L209.2,64.8z"/>
		<path class="st2" d="M212.8,65.9v-8.4h1.2l1.4,3.6c0.3,0.8,0.7,1.8,1,2.7h0c-0.1-1.1-0.1-2.4-0.1-3.9v-2.4h1.2v8.4h-1.2l-1.4-3.6
			c-0.3-0.8-0.7-1.8-0.9-2.7h0c0.1,1,0.1,2.2,0.1,3.9v2.3H212.8z"/>
	</g>
</g>
<rect x="-12" y="-10.4" class="st4" width="249.5" height="90.4"/>
</svg>
