<?xml version="1.0" encoding="UTF-8"?> <svg xmlns="http://www.w3.org/2000/svg" version="1.1" id="Layer_1" x="0" y="0" viewBox="0 0 1027.9 180.3" xml:space="preserve"> <style> .st1{fill:#003976} </style> <g id="LOGO"> <path d="M306.9 85.5c-3.8.2-5.4.3-6.9.3-1.6 0-3.1-.1-6.9-.3V87c2.4.3 3.9.8 4.7 1.8.7.9.9 1.6.9 4.4v25l-29.4-32.7c-3.2.2-4.6.3-5.9.3s-2.7-.1-5.8-.3V87l.5.1c2.2.1 3.1.4 4 1.5.7 1 .9 1.5.9 4.5v27.6c0 3.2-.3 4.4-1 5.4-1 1.3-2.2 1.8-4.5 2v1.5c3.9-.2 5.5-.3 7.1-.3 1.7 0 3.2.1 7.2.3v-1.5c-2.4-.2-3.5-.5-4.4-1.5-1.2-1.2-1.5-2.5-1.5-5.9V92.9l34.1 37.5h1.8V92.9c0-4.5 1-5.6 5.5-5.9v-1.5h-.4zm15.3 15.9c-8.5 0-14.3 5.9-14.3 14.5 0 8.7 5.7 14.3 14.3 14.3 8.5 0 14.7-5.9 14.7-13.8 0-8.6-6.2-15-14.7-15zm-1.6 1.8c2.8 0 5.2 1.9 6.5 5.2 1.4 3.4 2.4 8.8 2.4 12.5 0 4.8-1.9 7.4-5.6 7.4-2 0-3.6-.9-5-2.7-2.2-3-4-9.4-4-14.9.1-4.7 2.2-7.5 5.7-7.5zm30.7-2.3c-3.5 2-8.6 3.9-10.8 4v1.6l.8-.1h.8c1.1 0 1.5.1 2 .7.3.5.4.7.4 2.5v10.2c0 4.4-.1 5.6-.2 6.3-.4 1.3-1.3 1.9-3.5 2v1.5c4-.2 5.6-.3 7.3-.3 1.7 0 3.3.1 7.3.3v-1.5c-2.4-.1-3.4-.5-3.8-1.8-.2-.7-.3-1.8-.3-6.5v-8.2c1.4-2.4 3.8-4 6.1-4 1.8 0 2.7.9 3 3h1.7v-9c-.8-.2-1.1-.3-1.7-.3-3.4 0-6.6 2.7-9.1 7.7v-8.1zm32.5 1.2h-8.6v-8.7h-1.4c-2.4 4.2-6 7.5-10.6 9.8v1.4h5.2v15.5c0 4.2.3 5.9 1.5 7.7 1.2 1.8 3.6 2.8 6.4 2.8h.7l6.8-5.2-1-1.5c-2.4 1.9-3.1 2.2-4.3 2.2-1.1 0-2.4-.8-2.8-1.8-.4-.9-.5-1.6-.5-4.5v-15.3h7.5l1.1-2.4zm10.9-19.9c-4.5 1.9-8.1 3-10.5 3.3V87c3.6 0 3.7.1 3.7 3.3v29.5c0 4.4-.1 5.6-.2 6.3-.4 1.3-1.4 1.9-3.5 2v1.5c3.8-.2 5.4-.3 7-.3s3.2.1 7 .3v-1.5c-1.9-.1-2.8-.7-3.2-1.8-.2-.7-.3-1.8-.3-6.5v-11.2c2.7-2.2 4.2-2.8 6.3-2.8 2 0 3.9 1 4.5 2.5.3.7.5 2 .5 3.6v7.9c0 4.4-.1 5.6-.2 6.3-.4 1.3-1.3 1.9-3.4 2v1.5c3.8-.2 5.4-.3 7.1-.3s3.2.1 7.2.3v-1.5c-2.2-.1-3.1-.6-3.6-1.8-.2-.7-.3-1.7-.3-6.5v-6.3c0-3.7-.2-5.9-.6-7.4-.8-2.8-3.6-4.7-6.9-4.7-3.2 0-6.1 1.5-10.6 5.4V82.2zm50 40.3c-2.6 3.9-5 5.8-7.7 5.8-2.5 0-5-1.4-6.8-3.9-1.9-2.5-2.7-5.3-3-9.9h17.7c0-3.3-.3-5.1-1.3-7.1-1.7-3.6-6.1-5.9-10.9-5.9-7.6 0-13 6-13 14.4 0 8.6 6.1 14.5 15 14.5 3.9 0 7.1-1 10.4-3.2l-.4-4.7zm-17.6-10c.1-3 .3-4.6.9-5.9.9-2.2 2.6-3.4 4.6-3.4 1.7 0 3.1.9 4 2.4.8 1.4 1 2.8 1.1 6.9h-10.6zm32.2-11.6c-3.5 2-8.6 3.9-10.8 4v1.6l.8-.1h.8c1.1 0 1.5.1 2 .7.3.5.4.7.4 2.5v10.2c0 4.4-.1 5.6-.2 6.3-.4 1.3-1.3 1.9-3.5 2v1.5c4-.2 5.6-.3 7.3-.3 1.7 0 3.3.1 7.3.3v-1.5c-2.4-.1-3.4-.5-3.8-1.8-.2-.7-.3-1.8-.3-6.5v-8.2c1.4-2.4 3.8-4 6.1-4 1.8 0 2.7.9 3 3h1.7v-9c-.8-.2-1.1-.3-1.7-.3-3.4 0-6.6 2.7-9.1 7.7v-8.1zm24.1 0c-3.5 2-8.6 3.9-10.8 4v1.6l.8-.1h.8c1.1 0 1.5.1 2 .7.3.5.4.7.4 2.4v10.2c0 4.4-.1 5.6-.2 6.3-.4 1.3-1.3 1.9-3.5 2v1.5c4-.2 5.6-.3 7.3-.3s3.3.1 7.3.3v-1.4c-2.4-.1-3.4-.5-3.8-1.8-.2-.7-.3-1.7-.3-6.5v-11.2c2.6-2.1 4.2-2.8 6.3-2.8s3.9 1.1 4.5 2.5c.3.7.5 2 .5 3.6v7.9c0 4.4-.1 5.6-.2 6.3-.4 1.3-1.3 1.9-3.4 2v1.5c3.8-.2 5.4-.3 7.1-.3 1.7 0 3.2.1 7.2.3v-1.5c-2.2-.1-3.1-.6-3.6-1.8-.2-.7-.3-1.7-.3-6.5v-6.3c0-3.7-.2-5.8-.6-7.4-.8-2.8-3.6-4.7-6.9-4.7-3.2 0-6.1 1.5-10.6 5.4v-5.9zm56.8-17L525.1 121c-2.2 5.4-4.2 7.2-7.9 7.1v1.5c4.1-.2 5.8-.3 7.5-.3s3.4.1 7.5.3v-1.5l-.8-.1c-2.7-.1-3.9-.9-3.9-2.6 0-.6.2-1.6.7-2.8l3-8.4h14.1l3.6 8.9c.4.9.5 1.5.5 2.2 0 1.9-1.3 2.8-3.7 2.8h-.5v1.5c5.2-.2 7.2-.3 9.3-.3 2.2 0 4.2.1 9.4.3v-1.5c-4-.5-5.8-2.2-8.1-7.9l-15.6-36.3zm-2.7 12.2 6.7 15.9h-12.4l5.7-15.9zm37.7 4.8c-3.5 2-8.6 3.9-10.8 4v1.6l.8-.1h.8c1.1 0 1.5.1 2 .7.3.5.4.7.4 2.5v10.2c0 4.4-.1 5.6-.2 6.3-.4 1.3-1.3 1.9-3.5 2v1.5c4-.2 5.6-.3 7.3-.3s3.3.1 7.3.3v-1.5c-2.4-.1-3.4-.5-3.8-1.8-.2-.7-.3-1.8-.3-6.5v-8.2c1.4-2.4 3.8-4 6.1-4 1.8 0 2.7.9 3 3h1.7v-9c-.8-.2-1.1-.3-1.7-.3-3.4 0-6.6 2.7-9.1 7.7v-8.1zm20.1-13.6c-2.2 0-4.1 1.9-4.1 4.1 0 2.2 1.9 4.1 4.1 4.1s4.1-1.9 4.1-4c0-2.4-1.8-4.2-4.1-4.2zm3.6 13.6c-3.4 1.9-7.9 3.6-10.5 4v1.5h1.4c1 0 1.5.2 1.9.7.3.5.4.7.4 2.4v10.2c0 4.4-.1 5.6-.2 6.3-.4 1.3-1.4 1.9-3.5 2v1.5c3.8-.2 5.4-.3 7-.3 1.7 0 3.2.1 7 .3v-1.4c-1.9-.1-2.8-.7-3.2-1.8-.2-.7-.3-1.8-.3-6.5v-18.9zm31 1.2h-23.2l-.6 9.8 2 .2c.2-2.3.6-3.7 1.4-5 1.4-2.2 3-2.9 7.3-2.9h4.6l-16.7 24.3v1.3H630l.5-10.9h-1.7c-.5 3.2-1 4.6-2.4 6.1-1.9 2-3.8 2.6-9 2.6h-3.9l16.3-24v-1.5h.1zm17.3-.7c-8.5 0-14.3 5.9-14.3 14.5 0 8.7 5.7 14.3 14.3 14.3 8.5 0 14.7-5.9 14.7-13.8.1-8.6-6.2-15-14.7-15zm-1.6 1.8c2.8 0 5.2 1.9 6.5 5.2 1.4 3.4 2.4 8.8 2.4 12.5 0 4.8-1.9 7.4-5.6 7.4-2 0-3.6-.9-5-2.7-2.2-3-4-9.4-4-14.9.2-4.7 2.2-7.5 5.7-7.5zm30.7-2.3c-3.5 2-8.6 3.9-10.8 4v1.6l.8-.1h.8c1.1 0 1.5.1 2 .7.3.5.4.7.4 2.4v10.2c0 4.4-.1 5.6-.2 6.3-.4 1.3-1.3 1.9-3.5 2v1.5c4-.2 5.6-.3 7.3-.3s3.3.1 7.3.3v-1.4c-2.4-.1-3.4-.5-3.8-1.8-.2-.7-.3-1.7-.3-6.5v-11.2c2.6-2.1 4.2-2.8 6.3-2.8s3.9 1.1 4.5 2.5c.3.7.5 2 .5 3.6v7.9c0 4.4-.1 5.6-.2 6.3-.4 1.3-1.3 1.9-3.4 2v1.5c3.8-.2 5.4-.3 7.1-.3 1.7 0 3.2.1 7.2.3v-1.5c-2.2-.1-3.1-.6-3.6-1.8-.2-.7-.3-1.7-.3-6.5v-6.3c0-3.7-.2-5.8-.6-7.4-.8-2.8-3.6-4.7-6.9-4.7-3.2 0-6.1 1.5-10.6 5.4v-5.9zm51.2 24.5c-.9.4-1.4.5-1.9.5-1.2 0-1.5-.7-1.5-3.7v-11.4c0-5.8-3.1-9.4-8.2-9.4-3.4 0-7.3 1.2-10.7 3.3-2.4 1.5-3.4 3.1-3.4 5.2 0 1.1.2 2 .8 3.2l7.1-2.9c-.7-1.7-.9-2.2-.9-3.2 0-2.1 1.3-3.6 3.2-3.6s4 1.3 4.8 2.8c.4.7.4.8.5 3.8v4.8c-5.9.9-5.9.9-8.3 1.6-5 1.5-7.7 4.1-7.7 7.6 0 3.6 3 6.2 7.1 6.2 2.9 0 5.5-1 9.1-3.5.3 1.7.3 2 .9 3.8 3.4-1.5 4.6-2 9.2-3.6l-.1-1.5zm-10.3-8.9v8.7c-1.7 1-2.9 1.4-4.4 1.4-2.6 0-4.4-1.6-4.4-4 0-3 2.5-4.9 7.9-5.9l.9-.2zm73.4-31c-4.8.2-6.7.3-8.7.3s-4-.1-8.7-.3V87c4 .1 5 1.3 5 5.9v12h-23.5v-12c0-4.7 1-5.9 5-5.9v-1.5c-4.8.2-6.7.3-8.7.3s-4-.1-8.7-.3V87c4 .1 5 1.3 5 5.9v29.2c0 4.7-1 5.9-5 5.9v1.5c4.8-.2 6.7-.3 8.7-.3s4 .1 8.7.3v-1.4c-4-.1-5-1.3-5-5.9v-14.7h23.5v14.7c0 4.7-1 5.9-5 5.9v1.5c4.8-.2 6.7-.3 8.7-.3s4 .1 8.7.3v-1.5c-4-.1-5-1.3-5-5.9V93c0-4.7 1-5.9 5-5.9v-1.6zm28.2 37c-2.6 3.9-5 5.8-7.7 5.8-2.5 0-5-1.4-6.8-3.9-1.9-2.5-2.7-5.3-3-9.9H819c0-3.3-.3-5.1-1.3-7.1-1.7-3.6-6.1-5.9-10.9-5.9-7.6 0-13 6-13 14.4 0 8.6 6.1 14.5 15 14.5 3.9 0 7.1-1 10.4-3.2l-.4-4.7zm-17.6-10c.1-3 .3-4.6.9-5.9.9-2.2 2.6-3.4 4.6-3.4 1.7 0 3.1.9 4 2.4.8 1.4 1 2.8 1.1 6.9h-10.6zm47 12.9c-.9.4-1.4.5-1.9.5-1.2 0-1.5-.7-1.5-3.7v-11.4c0-5.8-3.1-9.4-8.2-9.4-3.4 0-7.3 1.2-10.7 3.3-2.4 1.5-3.4 3.1-3.4 5.2 0 1.1.2 2 .8 3.2l7.1-2.9c-.7-1.7-.9-2.2-.9-3.2 0-2.1 1.3-3.6 3.2-3.6s4 1.3 4.8 2.8c.4.7.4.8.5 3.8v4.8c-5.9.9-5.9.9-8.3 1.6-5 1.5-7.7 4.1-7.7 7.6 0 3.6 3 6.2 7.1 6.2 2.9 0 5.5-1 9.1-3.5.3 1.7.3 2 .9 3.8 3.4-1.5 4.6-2 9.2-3.6l-.1-1.5zm-10.2-8.9v8.7c-1.7 1-2.9 1.4-4.4 1.4-2.6 0-4.4-1.6-4.4-4 0-3 2.5-4.9 7.9-5.9l.9-.2zm23.1-34.3c-4.5 1.9-8.1 3-10.5 3.3v1.6c3.6 0 3.7.1 3.7 3.2v29.5c0 4.4-.1 5.6-.2 6.3-.4 1.3-1.4 1.9-3.5 2v1.5c3.8-.2 5.4-.3 7-.3 1.7 0 3.2.1 7 .3v-1.5c-1.9-.1-2.8-.7-3.2-1.8-.2-.7-.3-1.8-.3-6.5V82.2zm25 19.9h-8.6v-8.7h-1.4c-2.4 4.2-6 7.5-10.6 9.8v1.4h5.2v15.5c0 4.2.3 5.9 1.5 7.7 1.2 1.8 3.6 2.8 6.4 2.8h.7l6.8-5.2-1-1.5c-2.4 1.9-3.1 2.2-4.3 2.2-1.1 0-2.4-.8-2.8-1.8-.4-.9-.5-1.6-.5-4.5v-15.3h7.5l1.1-2.4zM897 82.2c-4.5 1.9-8.1 3-10.5 3.3V87c3.6 0 3.7.1 3.7 3.3v29.5c0 4.4-.1 5.6-.2 6.3-.4 1.3-1.4 1.9-3.5 2v1.5c3.8-.2 5.4-.3 7-.3s3.2.1 7 .3v-1.5c-1.9-.1-2.8-.7-3.2-1.8-.2-.7-.3-1.8-.3-6.5v-11.2c2.7-2.2 4.2-2.8 6.3-2.8 2 0 3.9 1 4.5 2.5.3.7.5 2 .5 3.6v7.9c0 4.4-.1 5.6-.2 6.3-.4 1.3-1.3 1.9-3.4 2v1.5c3.8-.2 5.4-.3 7.1-.3s3.2.1 7.2.3v-1.5c-2.2-.1-3.1-.6-3.6-1.8-.2-.7-.3-1.7-.3-6.5v-6.3c0-3.7-.2-5.9-.6-7.4-.8-2.8-3.6-4.7-6.9-4.7-3.2 0-6.1 1.5-10.6 5.4V82.2zm49 20.7c-3.3-1.1-5.7-1.5-8.7-1.5-9.3 0-15.3 5.8-15.3 14.6 0 8.6 5.8 14.3 14.3 14.3 3.3 0 5.6-.6 9.9-2.6l.6-4.7c-1.1 1.3-1.4 1.7-1.9 2.2-1.7 1.9-3.8 3-5.9 3-5.4 0-9.7-6.5-9.7-14.5 0-6.4 3-10.6 7.7-10.6 4.2 0 6.8 2.3 7.9 7l1.7-.1-.6-7.1zm29.5 22.5c-.9.4-1.4.5-1.9.5-1.2 0-1.5-.7-1.5-3.7v-11.4c0-5.8-3.1-9.4-8.2-9.4-3.4 0-7.3 1.2-10.7 3.3-2.4 1.5-3.4 3.1-3.4 5.2 0 1.1.2 2 .8 3.2l7.1-2.9c-.7-1.7-.9-2.2-.9-3.2 0-2.1 1.3-3.6 3.2-3.6s4 1.3 4.8 2.8c.4.7.4.8.5 3.8v4.8c-5.9.9-5.9.9-8.3 1.6-5 1.5-7.7 4.1-7.7 7.6 0 3.6 3 6.2 7.1 6.2 2.9 0 5.5-1 9.1-3.5.3 1.7.3 2 .9 3.8 3.4-1.5 4.6-2 9.2-3.6l-.1-1.5zm-10.2-8.9v8.7c-1.7 1-2.9 1.4-4.4 1.4-2.6 0-4.4-1.6-4.4-4 0-3 2.5-4.9 7.9-5.9l.9-.2zm24.5-15.6c-3.5 2-8.6 3.9-10.8 4v1.6l.8-.1h.8c1.1 0 1.5.1 2 .7.3.5.4.7.4 2.5v10.2c0 4.4-.1 5.6-.2 6.3-.4 1.3-1.3 1.9-3.5 2v1.5c4-.2 5.6-.3 7.3-.3 1.7 0 3.3.1 7.3.3v-1.5c-2.4-.1-3.4-.5-3.8-1.8-.2-.7-.3-1.8-.3-6.5v-8.2c1.4-2.4 3.8-4 6.1-4 1.8 0 2.7.9 3 3h1.7v-9c-.8-.2-1.1-.3-1.7-.3-3.4 0-6.6 2.7-9.1 7.7v-8.1zm37.7 21.6c-2.6 3.9-5 5.8-7.7 5.8-2.5 0-5-1.4-6.8-3.9-1.9-2.5-2.7-5.3-3-9.9h17.7c0-3.3-.3-5.1-1.3-7.1-1.7-3.6-6.1-5.9-10.9-5.9-7.6 0-13 6-13 14.4 0 8.6 6.1 14.5 15 14.5 3.9 0 7.1-1 10.4-3.2l-.4-4.7zm-17.6-10c.1-3 .3-4.6.9-5.9.9-2.2 2.6-3.4 4.6-3.4 1.7 0 3.1.9 4 2.4.8 1.4 1 2.8 1.1 6.9h-10.6z" fill="#231f20"></path> <path class="st1" d="M102.2 179.1s.1 0 0 0c2 .4 3.9.7 5.9.9h.1c4.1.4 8.1.4 12.2 0h.1c2-.2 4-.5 5.9-.9l-12-70.5-12.2 70.5zm-32.3-17.4c0 .1.1.1.2.1 1.3 1.3 2.6 2.5 4 3.7.1.1.3.2.4.3 1.4 1.2 2.9 2.3 4.5 3.4.1.1.2.2.3.2 1.6 1.1 3.2 2.1 4.9 3 .1 0 .2.1.3.1 1.7.9 3.5 1.8 5.3 2.6 0 0 .1 0 .1.1l24.5-66.7-44.5 53.2zm-16.7-31.5c.1.3.2.6.2.9.3 1.4.6 2.8 1 4.1.2.6.3 1.1.5 1.7l1.5 4.2c.2.5.4 1 .6 1.4.6 1.4 1.3 2.8 2 4.2l.6 1.2c.8 1.4 1.6 2.8 2.5 4.1.1.2.2.4.4.6l51.7-44.1-61 21.7zm85.5 45.1s.1 0 .1-.1c1.8-.8 3.6-1.6 5.3-2.6.1 0 .2-.1.3-.2 1.7-.9 3.3-1.9 4.9-3 .1-.1.2-.2.3-.2 1.5-1.1 3-2.2 4.5-3.4.1-.1.2-.2.4-.3 1.4-1.2 2.7-2.4 4-3.7.1-.1.1-.1.2-.1l-44.3-53.1 24.3 66.7z"></path> <path class="st1" d="M166 152.6c.3-.4.6-.9.8-1.4 3.6-5.7 6.3-12.1 7.9-18.8l.5-2.2-61-21.7 51.8 44.1z"></path> <path class="st1" d="M151.9 25c-2.2-.2-4.4-.2-6.6-.2-46.9 0-85.8 34.7-92.3 79.8h42.6v-.1l-36.2-9.7c-1.4-.4-2-1.8-1.5-3.1.1-.1.1-.2.2-.3.3-.4.7-.8 1.1-1 .1 0 .2-.1.3-.1h.8c.1 0 .3 0 .4.1l36.2 9.7v-.1L66.6 82.5c-.2-.1-.3-.2-.4-.3s-.1-.1-.1-.2l-.2-.2c-.1-.1-.1-.2-.2-.3l-.1-.1c-.1-.1-.1-.3-.1-.4-.1-.6 0-1.3.4-1.8l.1-.1c0-.1.1-.1.1-.2.4-.4.8-.6 1.3-.7h.7c.1 0 .1 0 .2.1h.2c.1 0 .2.1.4.2L99.2 96l.1-.1L76 72.6c-1-1-.9-2.5.1-3.4l.1-.1.1-.1.1-.1c.5-.3 1-.4 1.5-.4.1 0 .2 0 .4.1h.1c.1 0 .2.1.3.1.1 0 .1.1.2.1s.1.1.2.1l.3.3 23.3 23.3c.1 0 0 0 .1-.1L87 65.1c-.1-.1-.1-.3-.2-.4v-.8c0-.1 0-.3.1-.4v-.1c.2-.6.6-1.1 1.1-1.4 0 0 .1 0 .1-.1.1 0 .2-.1.3-.1 1-.3 2.2.1 2.7 1L106.8 90c.1 0 .1 0 .1-.1L99 60.4c-.3-1.2.4-2.4 1.6-2.8h.5c1.1-.1 2.2.6 2.5 1.7l7.9 29.5h.2V58.6c0-1.3 1-2.3 2.3-2.3h.1c1.3 0 2.3 1 2.3 2.3v30.1h.2l7.9-29.5c.3-1.1 1.4-1.8 2.5-1.7.1 0 .2.1.4.1 1.2.4 2 1.6 1.6 2.8l-7.9 29.4c.1 0 .1 0 .2.1L137 62.7c.6-1 1.7-1.4 2.7-1 .1.1.3.1.4.2 1.1.6 1.6 2 .9 3.2l-15.7 27.2c.1.1.1.1.2.1l23.3-23.3c.8-.8 2-.9 2.9-.3.1.1.2.2.3.2 1 .9 1.1 2.4.2 3.4L129 95.7l.2.2 30.3-17.5c.9-.5 2.1-.4 2.9.4l.2.2c.8 1.1.6 2.7-.7 3.4l-30.2 17.5c.1.1 0 .1.1.2l36.2-9.7c1-.3 2.1.2 2.6 1.1 0 .1.1.2.1.2.6 1.3-.1 2.8-1.5 3.2l-36.2 9.7v.3h42.1c.3 1.2.5 2.4.7 3.7H52.6c-.3 3.2-.6 6.5-.5 9.8v2.8l62.1-12.3 62.1 12.3c-.1 3.2-.5 6.3-1.1 9.3h62.6c.5-4 .8-8 .8-12.1 0-49.6-38.2-90-86.7-93.4z"></path> <path d="m81.7 178.2-.3-.1-.3-.2c-.4-.2-.7-.4-1.1-.7-.1-.1-.2-.2-.4-.2l-.3-.1c-1.1-.7-2.3-1.3-3.4-2.1l-.2-.1-.3-.2c-.4-.2-.7-.5-1-.8-.1-.1-.3-.2-.4-.3l-.4-.3c-1-.7-1.9-1.4-2.9-2.2l-.2-.1-.4-.4c-.3-.3-.7-.6-1-.9-.1-.1-.3-.2-.4-.4l-.5-.4c-.8-.7-1.6-1.5-2.5-2.3l-.1-.1-.2-.2-3.5-3.6c-.3-.3-.6-.7-.9-1.1l-3.6-5.3c-.2-.2-.3-.5-.4-.7-.8-1.2-1.5-2.4-2.1-3.4l-.3-.5c-.3-.4-.5-.9-.8-1.4l-.2-.3-.1-.2c-.6-1.1-1.2-2.4-1.9-3.9l-.1-.3c-.2-.4-.4-.9-.6-1.4l-.1-.3-.1-.3c-.6-1.4-1.1-2.8-1.6-4.3-.2-.5-.3-1-.5-1.5l-.1-.2-.1-.4c-.4-1.5-.8-3.1-1.1-4.5v-.3c-.1-.2-.1-.5-.2-.7l-.9-4.8c-.1-.4-.1-.7-.1-1.1l-.1-1.4v-.5l-.1-2.7v-3.1c0-30.7 14-58.2 35.9-76.5l-8.5-14.8L58 0c-3.7 1.5-7.4 3.3-11 5.3C2.3 30.9-13.3 87.8 12.3 132.6c14.9 26.1 40.6 42.3 68.2 46.1.9.1 1.9.2 2.8.3-.5-.2-1.1-.5-1.6-.8z" fill="#00a886"></path> </g> </svg> 