<?xml version="1.0" encoding="utf-8"?>
<!-- Generator: Adobe Illustrator 24.0.3, SVG Export Plug-In . SVG Version: 6.00 Build 0)  -->
<svg version="1.1" id="Layer_1" xmlns="http://www.w3.org/2000/svg" xmlns:xlink="http://www.w3.org/1999/xlink" x="0px" y="0px"
	 viewBox="0 0 2400 1050" style="enable-background:new 0 0 2400 1050;" xml:space="preserve">
<style type="text/css">
	.st0{clip-path:url(#SVGID_2_);fill:url(#SVGID_3_);}
	.st1{fill:#434142;}
	.st2{fill:#817774;}
</style>
<g>
	<g>
		<defs>
			<path id="SVGID_1_" d="M348,719.4c9.6,1.2,20.1,1.7,20.1,1.7l12.8-67.8l12.8,67.8c0,0,10.5-0.5,20.1-1.7l-32.9-182.5L348,719.4z
				 M447.2,713c9.3-2.5,19.2-6.1,19.2-6.1l-14.1-67.5l37.8,57.7c0,0,9.5-4.4,17.9-9.2l-100.2-156L447.2,713z M254,687.4
				c8.4,4.8,17.9,9.2,17.9,9.2l37.8-57.7l-14.1,67.5c0,0,9.9,3.6,19.2,6.1l39.4-181.2L254,687.4z M536.3,669.2
				c7.6-5.9,15.4-13,15.4-13l-38.9-57l57,38.9c0,0,7.1-7.8,13-15.4L430.6,516.9L536.3,669.2z M179.4,621.8c5.9,7.6,13,15.4,13,15.4
				l57-38.9l-38.9,57c0,0,7.8,7.1,15.4,13L331.7,516L179.4,621.8z M601.9,594.5c4.8-8.4,9.2-17.9,9.2-17.9l-57.7-37.8l67.5,14.1
				c0,0,3.6-9.9,6.1-19.2l-181.2-39.4L601.9,594.5z M135.5,532.7c2.5,9.3,6.2,19.2,6.2,19.2l67.5-14.1l-57.7,37.8
				c0,0,4.4,9.5,9.2,17.9l156-100.2L135.5,532.7z M451.5,467.6L634,500.5c1.2-9.6,1.7-20.1,1.7-20.1l-67.8-12.8l67.8-12.8
				c0,0-0.5-10.5-1.7-20.1L451.5,467.6z M127.5,453.6l67.8,12.8l-67.8,12.8c0,0,0.5,10.5,1.7,20.1l182.5-32.9l-182.5-32.9
				C127.9,443.1,127.5,453.6,127.5,453.6 M446.4,440.8l181.2-39.5c-2.5-9.3-6.1-19.2-6.1-19.2L554,396.2l57.7-37.8
				c0,0-4.4-9.5-9.2-17.9L446.4,440.8z M151.9,357.4l57.7,37.8l-67.5-14.1c0,0-3.6,9.9-6.1,19.2l181.2,39.4l-156-100.2
				C156.4,347.9,151.9,357.4,151.9,357.4 M431.4,418l152.3-105.8c-5.9-7.7-13-15.4-13-15.4l-57,38.9l38.9-57c0,0-7.8-7.1-15.4-13
				L431.4,418z M211.4,277.9l38.9,57l-57-38.9c0,0-7.1,7.8-13,15.4l152.3,105.8L226.8,264.9C219.1,270.8,211.4,277.9,211.4,277.9
				 M408.8,402.7l100.2-156c-8.4-4.8-17.9-9.2-17.9-9.2l-37.7,57.7l14.1-67.5c0,0-9.9-3.6-19.2-6.1L408.8,402.7z M296.7,227.2
				l14.1,67.5L273.1,237c0,0-9.5,4.4-17.9,9.2l100.2,156L315.9,221C306.6,223.6,296.7,227.2,296.7,227.2 M382.2,280.7L369.4,213
				c0,0-10.5,0.5-20.1,1.7l32.9,182.5L415,214.6c-9.6-1.2-20.1-1.7-20.1-1.7L382.2,280.7z"/>
		</defs>
		<clipPath id="SVGID_2_">
			<use xlink:href="#SVGID_1_"  style="overflow:visible;"/>
		</clipPath>
		
			<radialGradient id="SVGID_3_" cx="1010.4376" cy="222.997" r="6.5691" gradientTransform="matrix(38.6735 0 0 -38.6735 -38695.6094 9091.126)" gradientUnits="userSpaceOnUse">
			<stop  offset="0" style="stop-color:#FEE000"/>
			<stop  offset="0.1094" style="stop-color:#FEDE03"/>
			<stop  offset="0.1976" style="stop-color:#FED711"/>
			<stop  offset="0.2783" style="stop-color:#FFCC1F"/>
			<stop  offset="0.3127" style="stop-color:#FFC624"/>
			<stop  offset="0.4004" style="stop-color:#FEC127"/>
			<stop  offset="0.5267" style="stop-color:#FAB22E"/>
			<stop  offset="0.6755" style="stop-color:#F59C35"/>
			<stop  offset="0.7934" style="stop-color:#F18739"/>
			<stop  offset="1" style="stop-color:#F18739"/>
		</radialGradient>
		<rect x="127.5" y="213" class="st0" width="508.1" height="508.1"/>
	</g>
</g>
<path class="st1" d="M748.8,754.4h30.8c15.4,0,26.5,10.4,26.5,26.4s-11.1,26.8-26.5,26.8h-19v31.2h-11.8V754.4z M777.7,797.3
	c10.1,0,16.4-6.3,16.4-16.5s-6.2-16.1-16.3-16.1h-17.2v32.6H777.7z"/>
<path class="st1" d="M818.2,778.3h11.2v10.5c0,2.5-0.2,4.5-0.2,4.5h0.2c2.7-8.8,9.8-15.8,19.1-15.8c1.6,0,3,0.2,3,0.2v11.5
	c0,0-1.6-0.4-3.4-0.4c-7.4,0-14.2,5.3-17,14.2c-1.1,3.5-1.4,7.2-1.4,10.9v24.7h-11.6v-60.3H818.2z"/>
<path class="st1" d="M888,776.8c17.1,0,26.2,12.7,26.2,28.3c0,1.6-0.4,5-0.4,5h-44.1c0.6,13.3,10,20,20.8,20c10.4,0,17.9-7,17.9-7
	l4.8,8.5c0,0-9,8.6-23.4,8.6c-19,0-32-13.7-32-31.7C857.8,789.3,870.8,776.8,888,776.8 M902.3,801.5c-0.4-10.4-6.8-15.4-14.6-15.4
	c-8.8,0-16,5.5-17.7,15.4H902.3z"/>
<path class="st1" d="M955.6,776.8c15.2,0,22.7,8.8,22.7,8.8l-5.5,8.1c0,0-6.5-6.9-16.7-6.9c-12.2,0-21,9.1-21,21.5
	c0,12.3,8.8,21.7,21.4,21.7c11.2,0,18.6-8.1,18.6-8.1l4.7,8.5c0,0-8.4,9.7-24.1,9.7c-19,0-32.4-13.5-32.4-31.7
	C923.2,790.6,936.6,776.8,955.6,776.8"/>
<path class="st1" d="M992.1,754.4h11.7v11.8h-11.7V754.4z M992.2,778.3h11.6v60.5h-11.6V778.3z"/>
<path class="st1" d="M1021.9,823.1c0,0,6.8,7,17.3,7c5,0,10-2.6,10-7.5c0-11.1-31.1-8.8-31.1-28.6c0-11,9.8-17.2,21.9-17.2
	c13.3,0,19.5,6.7,19.5,6.7l-4.7,8.7c0,0-5.4-5.4-14.9-5.4c-5,0-9.9,2.1-9.9,7.4c0,10.9,31.1,8.5,31.1,28.3c0,10-8.6,17.6-21.9,17.6
	c-14.8,0-22.9-8.8-22.9-8.8L1021.9,823.1z"/>
<path class="st1" d="M1073.9,754.4h11.7v11.8h-11.7V754.4z M1074,778.3h11.6v60.5H1074V778.3z"/>
<path class="st1" d="M1131.3,776.8c18,0,32.6,13.3,32.6,31.5c0,18.4-14.6,31.8-32.6,31.8s-32.6-13.4-32.6-31.8
	C1098.6,790.1,1113.2,776.8,1131.3,776.8 M1131.3,830.1c11.5,0,20.8-9.1,20.8-21.7c0-12.5-9.3-21.5-20.8-21.5
	c-11.4,0-20.8,9-20.8,21.5C1110.5,821,1119.9,830.1,1131.3,830.1"/>
<path class="st1" d="M1176.9,778.3h11.2v8c0,2.4-0.2,4.4-0.2,4.4h0.2c2.4-5.3,9.6-13.9,22.7-13.9c14.2,0,20.8,7.8,20.8,23.2v38.7
	H1220v-36.1c0-8.5-1.8-15.2-11.5-15.2c-9.2,0-16.6,6.1-19.1,14.8c-0.7,2.4-1,5.1-1,8.1v28.3h-11.6L1176.9,778.3L1176.9,778.3z"/>
<path class="st1" d="M1280.6,754.4h30.8c15.4,0,26.5,10.4,26.5,26.4s-11.1,26.8-26.5,26.8h-19v31.2h-11.8V754.4z M1309.5,797.3
	c10.1,0,16.4-6.3,16.4-16.5s-6.2-16.1-16.3-16.1h-17.2v32.6H1309.5z"/>
<path class="st1" d="M1380.2,801h2.6v-1.1c0-9.9-5.6-13.3-13.3-13.3c-9.3,0-16.8,5.9-16.8,5.9l-4.8-8.5c0,0,8.7-7.2,22.6-7.2
	c15.3,0,23.9,8.4,23.9,23.7v38.2h-10.8V833c0-2.8,0.2-4.8,0.2-4.8h-0.2c0,0-4.9,12-19.4,12c-10.4,0-20.6-6.3-20.6-18.4
	C1343.7,801.8,1370,801,1380.2,801 M1366.8,830.8c9.8,0,16.1-10.3,16.1-19.2v-1.9h-3c-8.7,0-24.5,0.6-24.5,11.5
	C1355.4,826.1,1359.2,830.8,1366.8,830.8"/>
<path class="st1" d="M1410.9,754.4h11.7v11.8h-11.7V754.4z M1411,778.3h11.6v60.5H1411V778.3z"/>
<path class="st1" d="M1440,778.3h11.2v8c0,2.4-0.2,4.4-0.2,4.4h0.2c2.4-5.3,9.6-13.9,22.7-13.9c14.2,0,20.8,7.8,20.8,23.2v38.7
	h-11.6v-36.1c0-8.5-1.8-15.2-11.5-15.2c-9.2,0-16.6,6.1-19.1,14.8c-0.7,2.4-1,5.1-1,8.1v28.3H1440V778.3z"/>
<path class="st1" d="M1547.9,754.4h12.4l19.4,45.6c1.9,4.7,4.2,11.3,4.2,11.3h0.2c0,0,2.3-6.7,4.2-11.3l19.4-45.6h12.4l6.8,84.4
	h-11.7l-4.2-53.2c-0.3-5.1-0.1-12.4-0.1-12.4h-0.2c0,0-2.5,7.8-4.6,12.4l-16.8,38h-10.5l-16.7-38c-1.9-4.5-4.5-12.7-4.5-12.7h-0.2
	c0,0,0.1,7.5-0.2,12.7l-4.1,53.2h-11.8L1547.9,754.4z"/>
<path class="st1" d="M1675.7,801h2.6v-1.1c0-9.9-5.6-13.3-13.3-13.3c-9.3,0-16.8,5.9-16.8,5.9l-4.8-8.5c0,0,8.7-7.2,22.6-7.2
	c15.3,0,23.9,8.4,23.9,23.7v38.2h-10.8V833c0-2.8,0.2-4.8,0.2-4.8h-0.2c0,0-4.9,12-19.4,12c-10.4,0-20.6-6.3-20.6-18.4
	C1639.2,801.8,1665.5,801,1675.7,801 M1662.3,830.8c9.8,0,16.1-10.3,16.1-19.2v-1.9h-3c-8.7,0-24.5,0.6-24.5,11.5
	C1650.9,826.1,1654.7,830.8,1662.3,830.8"/>
<path class="st1" d="M1706.5,778.3h11.2v8c0,2.4-0.2,4.4-0.2,4.4h0.2c2.4-5.3,9.6-13.9,22.7-13.9c14.2,0,20.8,7.8,20.8,23.2v38.7
	h-11.6v-36.1c0-8.5-1.8-15.2-11.5-15.2c-9.2,0-16.6,6.1-19.1,14.8c-0.7,2.4-1,5.1-1,8.1v28.3h-11.6L1706.5,778.3L1706.5,778.3z"/>
<path class="st1" d="M1809.4,801h2.6v-1.1c0-9.9-5.6-13.3-13.3-13.3c-9.3,0-16.8,5.9-16.8,5.9l-4.8-8.5c0,0,8.7-7.2,22.6-7.2
	c15.3,0,23.9,8.4,23.9,23.7v38.2h-10.8V833c0-2.8,0.2-4.8,0.2-4.8h-0.2c0,0-4.9,12-19.4,12c-10.4,0-20.6-6.3-20.6-18.4
	C1772.9,801.8,1799.2,801,1809.4,801 M1796,830.8c9.8,0,16.1-10.3,16.1-19.2v-1.9h-3c-8.7,0-24.5,0.6-24.5,11.5
	C1784.6,826.1,1788.5,830.8,1796,830.8"/>
<path class="st1" d="M1862.2,853.8c10.5,0,19.1-4.7,19.1-17v-4.4c0-1.9,0.1-3.8,0.1-3.8h-0.2c-3.6,6-9.2,9.4-17.9,9.4
	c-16.9,0-27-13.5-27-30.9c0-17.3,9.7-30.2,26.4-30.2c14.6,0,19,9,19,9h0.2c0,0-0.1-0.8-0.1-1.9v-5.6h11.1v57.9
	c0,20-15.2,27.6-30.5,27.6c-7.3,0-14.8-2-20.7-5l3.8-9.1C1845.6,849.7,1853.1,853.8,1862.2,853.8 M1881.5,807.2
	c0-15.8-7.6-20.3-17.1-20.3c-10.5,0-16.5,7.7-16.5,20c0,12.5,6.7,21.2,17.6,21.2C1873.9,828,1881.5,823,1881.5,807.2"/>
<path class="st1" d="M1936.4,776.8c17.1,0,26.2,12.7,26.2,28.3c0,1.6-0.4,5-0.4,5h-44.1c0.6,13.3,10,20,20.8,20
	c10.4,0,17.9-7,17.9-7l4.8,8.5c0,0-9,8.6-23.4,8.6c-19,0-32-13.7-32-31.7C1906.1,789.3,1919.2,776.8,1936.4,776.8 M1950.7,801.5
	c-0.4-10.4-6.8-15.4-14.6-15.4c-8.8,0-16,5.5-17.7,15.4H1950.7z"/>
<path class="st1" d="M1975.9,778.3h11.2v8c0,2.4-0.2,4.4-0.2,4.4h0.2c2.9-7,11.4-13.9,20.8-13.9c10.2,0,16.1,4.7,18.2,13.7h0.2
	c3.3-7.3,11.7-13.7,21.5-13.7c13.6,0,20,7.8,20,23.2v38.7h-11.6v-36.2c0-8.5-1.7-15.2-10.8-15.2c-8.5,0-14.8,7.2-17,15.4
	c-0.6,2.5-0.8,5.3-0.8,8.4v27.6H2016v-36.2c0-7.9-1.2-15.2-10.5-15.2c-8.8,0-15.1,7.3-17.3,15.9c-0.6,2.4-0.7,5.1-0.7,7.9v27.6
	h-11.6L1975.9,778.3L1975.9,778.3z"/>
<path class="st1" d="M2110.5,776.8c17.1,0,26.2,12.7,26.2,28.3c0,1.6-0.4,5-0.4,5h-44.1c0.6,13.3,10,20,20.8,20
	c10.4,0,17.9-7,17.9-7l4.8,8.5c0,0-9,8.6-23.4,8.6c-19,0-32-13.7-32-31.7C2080.2,789.3,2093.3,776.8,2110.5,776.8 M2124.8,801.5
	c-0.4-10.4-6.8-15.4-14.6-15.4c-8.8,0-16,5.5-17.7,15.4H2124.8z"/>
<path class="st1" d="M2150,778.3h11.2v8c0,2.4-0.2,4.4-0.2,4.4h0.2c2.4-5.3,9.6-13.9,22.7-13.9c14.2,0,20.8,7.8,20.8,23.2v38.7
	h-11.6v-36.1c0-8.5-1.8-15.2-11.5-15.2c-9.2,0-16.6,6.1-19.1,14.8c-0.7,2.4-1,5.1-1,8.1v28.3H2150V778.3z"/>
<path class="st1" d="M2223.9,788.4h-7.9v-9.3h8.2v-17.4h11.2v17.4h14.6v9.3h-14.6v26.9c0,12.1,8.5,13.6,12.9,13.6
	c1.7,0,2.7-0.2,2.7-0.2V839c0,0-1.7,0.2-4.1,0.2c-7.8,0-23.2-2.4-23.2-22.6v-28.2H2223.9z"/>
<path class="st1" d="M750.3,285.9h45.2v69.2c30.1-45.2,83.5-76,143-76c103.8,0,188.1,84.3,188.1,188.1V663h-45.2V467.3
	c0-79-64-143-143-143s-143,64-143,143V663h-45.2L750.3,285.9L750.3,285.9z"/>
<path class="st1" d="M1197.6,481.6V286h45.2v195.7c0,79,64,143,143,143s143-64,143-143V286h45.2v377h-45.2v-69.2
	c-30.1,45.2-82.8,76.8-143,76.8C1281.9,670.5,1197.6,585.5,1197.6,481.6"/>
<path class="st1" d="M1708.6,286.7v68.5c30.1-45.2,83.5-76,143-76v45.1c-79,0-143,64-143,143V663h-45.2V286.7H1708.6z"/>
<path class="st1" d="M2053.9,670.5c-107.6,0-195.7-85-195.7-196.4s88-195.7,195.7-195.7c107.6,0,195.7,84.3,195.7,195.7V663h-45.2
	v-73C2174.4,635.9,2117.9,670.5,2053.9,670.5 M2204.5,474.1c0-86.5-67.7-150.5-150.5-150.5s-150.5,64-150.5,150.5
	s67.7,150.5,150.5,150.5C2136.7,624.6,2204.5,559.1,2204.5,474.1"/>
<polygon class="st2" points="1729.2,1028.8 1729.2,1028.8 1729.2,1026.7 "/>
<g>
	<path class="st1" d="M2290.2,284.4c21.8,0,38.8,17,38.8,38.6c0,22.1-17,39.1-39.1,39.1s-39.6-17-39.6-39.1
		c0-21.6,17.5-38.6,39.6-38.6H2290.2z M2289.7,291.2c-17.5,0-30.8,14.3-30.8,31.8c0,18,13.4,32,31.3,32
		c17.2,0.2,30.3-14.1,30.3-31.8c0-17.7-13.1-32-30.6-32H2289.7z M2282.9,344.4h-7.5v-40.5c4.1-0.7,8.5-1.2,14.1-1.2
		c6.8,0,10.2,1.2,12.6,3.2c2.4,1.7,4.1,4.9,4.1,8.7c0,4.9-3.6,8-7.8,9.5v0.5c3.4,1.5,5.3,4.6,6.6,10c1.2,6.1,2.2,8.5,3.2,10h-7.8
		c-1.2-1.5-2.2-5.1-3.4-10.4c-1-4.6-3.6-6.6-9.2-6.6h-4.9L2282.9,344.4L2282.9,344.4z M2282.9,321.5h5.1c5.3,0,10.4-1.7,10.4-6.3
		c0-3.9-2.7-6.8-9.7-6.8c-2.9,0-4.6,0.2-5.8,0.5V321.5z"/>
</g>
</svg>
