<svg id="Layer_1" xmlns="http://www.w3.org/2000/svg" viewBox="0 0 494.9 90"><style>.st0{fill:#00338e}.st1{fill:#39892f}</style><path class="st0" d="M311.9 77.4c1.1 0 3.4-.4 6.9-2.4l5.6-3.3v5.7c3.6-1.2 9.1-2.4 15.3-3.4v-2.3l-3-.3c-3.5-.3-4-.8-4-5.6V12.5c-3.8 1.1-10.3 2.4-15.2 3.1v2.3c6.4.5 7 .8 7 6.5v12.4c-2.2-.7-4.6-.9-5.7-.9-13.2 0-24.4 9.9-24.4 22.3-.1 12.7 9.9 19.2 17.5 19.2m-196.3-1.1h26.6v-2.6c-8.7-.5-9.4-1.1-9.4-8.6V51.3l6.8 1.7c1 .1 2.7.1 4.1-.1 11.4-1.5 18.4-8.5 18.4-18.6 0-5.6-2.2-9.8-6.2-12.8-3.5-2.5-8.6-3.7-15.8-3.7h-23.5v2.4c7 .5 7.5 1.2 7.5 9V65c0 7.4-.8 8.1-8.5 8.7-.1 0-.1 2.6 0 2.6zm23.6-27.1c-2.7 0-5.3-.5-6.4-1V25.9c0-2.4.3-3.4.9-4s2.4-1.1 4.8-1.1c8.6 0 13.7 5.2 13.7 13.9.1 9.2-5 14.5-13 14.5m24.3 27.1h22.4v-2.4c-7.1-.5-7.5-1.1-7.5-6.9V50.5c2-4.8 4.8-7.2 7-7.2 1.6 0 2.7.5 4.1 1.8.4.4.8.5 1.3.5.4 0 .8-.1 1.2-.3 2.1-.8 3.3-2.7 3.3-4.8 0-2.3-2.3-4.7-5.6-4.7-4.3 0-8.2 4.8-11.1 9.5h-.2v-9.7c-4.8 1.8-9.1 2.9-13.9 3.6v2.3c5.2.8 5.6 1.1 5.6 6.6v18.8c0 5.8-.7 6.3-6.6 6.9v2.5zm50.9 1.1c9.6 0 20.5-6.9 20.5-21.5 0-11-8.6-20.1-20.4-20.1-8.9 0-20.8 6.9-20.8 21.6 0 10.1 7.5 20 20.7 20m1-3.1c-7.4 0-12.2-8.4-12.2-19.7 0-10.3 4.8-15.7 10.3-15.7 7.7 0 11.9 8.2 11.9 19.1 0 12.7-4.6 16.3-10 16.3m100.7-2.7c-5.7 0-12.5-5.1-12.5-15.8 0-13.1 7.7-16.5 11.8-16.5 3.3 0 6.9 1.5 9 4.6v24.9c-2.3 1.6-5.2 2.8-8.3 2.8m-33.3-44.1c2.8 0 5.1-2.2 5.1-4.8 0-2.9-2.3-5.1-5-5.1-2.8 0-5.2 2.2-5.2 5.1 0 2.6 2.3 4.8 5.1 4.8m75.7 49.9c3.1 0 9.6-1.6 15.5-8.9l-1.5-2c-3.4 3-6.9 4.4-10.6 4.4-6.6 0-13.7-5.1-13.7-16.8 10.8-.4 22.3-1.2 24-1.5 1.9-.3 2.3-1.2 2.3-3 0-7.2-6.3-13.9-14.2-13.9-4.9 0-9.7 2.4-13.8 6.6-4 4.1-6.3 9.6-6.3 15.8-.1 10.4 6.7 19.3 18.3 19.3m-9.8-27c1.2-7.3 5.2-11.1 9.3-11.1 4.9 0 7.8 4.3 7.8 9 0 1.4-.5 1.7-2.2 1.8-5.1.3-10 .3-14.9.3m27.8 25.9h20.8v-2.4c-5.3-.5-5.8-.9-5.8-6.9V45.8c2.7-2.3 6.2-4.3 9.6-4.3 5.7 0 8.2 3.6 8.2 10v15c0 6.2-.7 6.9-5.9 7.4v2.4h20v-2.4c-5.4-.6-5.9-.9-5.9-6.9V49.6c0-8.7-4.6-13.8-12.1-13.8-2.7 0-5.1 1-7.7 2.7-2.4 1.5-4.2 2.8-6.1 4.2v-7.2c-4.4 1.7-9.1 2.9-13.9 3.7v2.3c5.1.9 5.6 1.4 5.6 6.8v18.6c0 5.9-.5 6.3-6.7 7l-.1 2.4zm66.5 1.1c5.5 0 11.7-4 15.5-8.8l-1.7-2c-3.8 3.3-6.8 4.3-10.7 4.3-5 0-13.9-4.2-13.9-16.6 0-9.5 5.2-14.1 10.9-14.1 3.1 0 6.5 1 9.4 3.8.8.7 1.2 1 1.8 1 1.1 0 3.3-2.1 3.3-4.1 0-1-.3-1.8-1.6-2.8-1.5-1.2-4.5-2.3-8.3-2.3-3.6 0-9.2 1.5-14.4 5.2-6.1 4.4-9.4 10.6-9.4 17.4 0 9.9 7 19 19.1 19m35.9 0c3.1 0 9.6-1.6 15.5-8.9l-1.5-2c-3.4 3-6.9 4.4-10.6 4.4-6.6 0-13.7-5.1-13.7-16.8 10.8-.4 22.3-1.2 24-1.5 1.9-.3 2.3-1.2 2.3-3 0-7.2-6.3-13.9-14.2-13.9-4.9 0-9.8 2.4-13.8 6.6-4 4-6.3 9.5-6.3 15.8-.2 10.4 6.6 19.3 18.3 19.3m-9.8-27c1.3-7.3 5.2-11.1 9.3-11.1 4.9 0 7.8 4.3 7.8 9 0 1.4-.5 1.7-2.2 1.8-5.1.3-10 .3-14.9.3M234 39.7c3.1.7 3.9 1.4 6 6.1 4.6 10.5 8.8 20.8 13 31.7h2.7c5.4-13.4 10.1-24.5 13.3-31.4 2.5-5.3 3.5-6.3 6-6.3 2.7 0 3.6 1.6 3.6 6.6v20.4c0 6.1-.7 6.7-6.6 7.2v2.4h21.5V74c-5.9-.5-6.6-1.2-6.6-7.2V35.6c-5.8 1.1-10.9 1.4-26.4 1.4v2.7c3.7.5 5 .9 5 2.5 0 .7-.3 1.7-.7 2.9-1.9 5.9-5 14-8 20.9-2.5-6.2-6.2-15.4-8.6-21.6-.5-1.2-.8-2.1-.8-2.7 0-1.1 1.2-1.5 4.5-2V37h-18.1v2.7h.2zM38.4 89.6h16.9c-3.8-3.6-5.2-7.1-5.2-15V53.5c0-3.6 1.9-5.4 5.6-5.4h22c8.2 0 11.8 1.4 15.6 5V36.9c-3.8 3.6-7.4 5-15.6 5h-22c-3.8 0-5.6-1.8-5.6-5.4V15.3c0-7.8 1.5-11.4 5.2-15H38.4c3.8 3.6 5.2 7.1 5.2 15v21.2c0 3.6-1.9 5.4-5.6 5.4H16c-8.1 0-11.8-1.4-15.6-5v16.2c3.8-3.6 7.4-5 15.6-5h22c3.8 0 5.6 1.8 5.6 5.4v21.2c0 7.8-1.5 11.3-5.2 14.9"/><path class="st1" d="M27.6 90c7.4-1.5 11.9-7.3 11.9-15.1V56c0-3.1-.9-4-4.1-4H15.8C7.7 52 1.7 56.3 0 63.5h27.6V90zm66-63.5H66V0c-7.4 1.5-11.9 7.3-11.9 15.1v18.8c0 3.1.9 4 4.1 4h19.6C86 38 92 33.6 93.6 26.5M15.8 38h19.6c3.2 0 4.1-.9 4.1-4V15.1C39.5 7.3 35 1.5 27.6 0v26.5H0C1.6 33.6 7.6 38 15.8 38m38.3 36.8V56c0-3.1.9-4 4.1-4h19.6C86 52 92 56.3 93.6 63.5H66V90c-7.4-1.6-11.9-7.3-11.9-15.2"/></svg>