<?xml version="1.0" encoding="UTF-8"?><svg xmlns="http://www.w3.org/2000/svg" viewBox="0 0 383.67 63.73"><defs><style>.cls-1,.cls-2{fill:#0057bf;}.cls-3,.cls-4{fill:#DF1AA0;}.cls-4,.cls-2,.cls-5{mix-blend-mode:multiply;}.cls-5{fill:#00B142;}.cls-6{isolation:isolate;}</style></defs><g class="cls-6"><g id="Layer_1_copy"><g><path class="cls-3" d="M7.29,11.27h-.08L2.58,4.33V14.9H0V.11H2.77L7.27,7.1,11.77,.11h2.77V14.9h-2.58V4.29l-4.67,6.98Z"/><path class="cls-3" d="M32.42,14.9h-2.75l-1.5-3.57h-7l-1.52,3.57h-2.66L23.5,0h2.41l6.51,14.9ZM24.67,3.11l-2.54,5.92h5.09l-2.56-5.92Z"/><path class="cls-3" d="M39.29,14.9h-2.62V2.52h-4.69V.11h12.01V2.52h-4.69V14.9Z"/><path class="cls-3" d="M57.48,2.45h-8.37v3.8h7.42v2.35h-7.42v3.95h8.48v2.35h-11.06V.11h10.95V2.45Z"/><path class="cls-3" d="M70.36,14.9l-3.65-5.16h-3.27v5.16h-2.58V.11h6.6c.85,0,1.61,.11,2.29,.33,.68,.22,1.26,.53,1.73,.93,.47,.4,.83,.9,1.09,1.48,.25,.58,.38,1.24,.38,1.96,0,.62-.09,1.17-.26,1.66-.18,.49-.42,.92-.73,1.29-.31,.37-.68,.69-1.11,.95-.43,.26-.91,.46-1.43,.6l3.99,5.6h-3.06Zm-.85-11.82c-.54-.42-1.29-.63-2.27-.63h-3.8V7.44h3.82c.93,0,1.67-.23,2.23-.68s.83-1.06,.83-1.83c0-.82-.27-1.44-.81-1.86Z"/><path class="cls-3" d="M86.56,.11h2.58V14.9h-2.17l-8.14-10.53V14.9h-2.58V.11h2.4l7.91,10.23V.11Z"/><path class="cls-3" d="M107.03,14.9h-2.75l-1.5-3.57h-7l-1.52,3.57h-2.66L98.11,0h2.41l6.51,14.9Zm-7.76-11.79l-2.54,5.92h5.09l-2.56-5.92Z"/><path class="cls-3" d="M109.48,.11h2.58V12.56h7.78v2.35h-10.36V.11Z"/><path class="cls-3" d="M121.02,9.68v-2.52h6.26v2.52h-6.26Z"/><path class="cls-3" d="M141.81,2.45h-8.41V6.53h7.46v2.35h-7.46v6.02h-2.58V.11h10.99V2.45Z"/><path class="cls-3" d="M155.49,2.45h-8.37v3.8h7.42v2.35h-7.42v3.95h8.48v2.35h-11.06V.11h10.95V2.45Z"/><path class="cls-3" d="M165.07,14.9h-2.62V2.52h-4.69V.11h12.01V2.52h-4.69V14.9Z"/><path class="cls-3" d="M184.73,14.9h-2.75l-1.5-3.57h-7l-1.52,3.57h-2.66l6.51-14.9h2.41l6.51,14.9Zm-7.76-11.79l-2.54,5.92h5.09l-2.56-5.92Z"/><path class="cls-3" d="M187.18,.11h2.58V12.56h7.78v2.35h-10.36V.11Z"/><path class="cls-3" d="M53.65,35.58h-.08l-4.63-6.93v10.57h-2.58v-14.8h2.77l4.5,7,4.5-7h2.77v14.8h-2.58v-10.61l-4.67,6.98Z"/><path class="cls-3" d="M75.83,26.76h-8.37v3.8h7.42v2.35h-7.42v3.95h8.48v2.35h-11.06v-14.8h10.95v2.35Z"/><path class="cls-3" d="M92.03,34.72c-.38,.91-.92,1.7-1.62,2.36-.7,.66-1.53,1.18-2.49,1.56-.97,.38-2.03,.57-3.18,.57h-5.52v-14.8h5.52c1.16,0,2.22,.19,3.18,.56,.96,.37,1.8,.89,2.49,1.55,.7,.66,1.24,1.44,1.62,2.35,.38,.9,.57,1.87,.57,2.92s-.19,2.02-.57,2.93Zm-2.53-4.91c-.25-.62-.59-1.15-1.04-1.6-.45-.45-.99-.81-1.62-1.06-.64-.25-1.34-.38-2.12-.38h-2.92v10.1h2.92c.78,0,1.48-.12,2.12-.37,.64-.25,1.18-.59,1.62-1.04,.44-.45,.79-.98,1.04-1.59,.25-.62,.37-1.29,.37-2.03s-.12-1.41-.37-2.03Z"/><path class="cls-3" d="M98.42,24.42v14.8h-2.58v-14.8h2.58Z"/><path class="cls-3" d="M114.09,37.93c-.42,.32-.86,.59-1.34,.83-.48,.23-1,.41-1.57,.53-.57,.12-1.2,.18-1.89,.18-1.08,0-2.09-.2-3-.59-.92-.39-1.71-.93-2.38-1.62-.67-.68-1.19-1.49-1.57-2.42-.38-.93-.57-1.93-.57-3s.19-2.05,.56-2.98,.9-1.74,1.57-2.44c.68-.7,1.48-1.25,2.41-1.65,.93-.4,1.96-.6,3.09-.6,.68,0,1.29,.06,1.85,.17,.56,.11,1.07,.27,1.53,.48,.47,.2,.9,.45,1.29,.73s.77,.59,1.12,.93l-1.67,1.92c-.59-.55-1.22-.99-1.88-1.33-.66-.34-1.42-.51-2.26-.51-.71,0-1.36,.14-1.96,.41-.6,.27-1.12,.65-1.55,1.12-.44,.47-.77,1.03-1.01,1.66s-.36,1.32-.36,2.05,.12,1.42,.36,2.06c.24,.64,.58,1.2,1.01,1.68s.95,.86,1.55,1.13c.6,.27,1.25,.41,1.96,.41,.9,0,1.68-.17,2.32-.52,.65-.35,1.29-.81,1.92-1.41l1.67,1.69c-.38,.41-.78,.77-1.19,1.09Z"/><path class="cls-3" d="M120.59,24.42v14.8h-2.58v-14.8h2.58Z"/><path class="cls-3" d="M134.96,24.42h2.58v14.8h-2.17l-8.14-10.53v10.53h-2.58v-14.8h2.4l7.91,10.23v-10.23Z"/><path class="cls-3" d="M152.47,26.76h-8.37v3.8h7.42v2.35h-7.42v3.95h8.48v2.35h-11.06v-14.8h10.95v2.35Z"/><path class="cls-3" d="M176.27,34.75c-.38,.93-.92,1.74-1.61,2.44-.69,.7-1.51,1.25-2.45,1.66-.94,.41-1.99,.61-3.13,.61s-2.18-.2-3.13-.6c-.94-.4-1.75-.95-2.43-1.64-.68-.69-1.21-1.5-1.59-2.43-.38-.93-.57-1.92-.57-2.96s.19-2.03,.57-2.96c.38-.93,.92-1.74,1.61-2.44,.69-.7,1.51-1.25,2.45-1.66,.94-.41,1.99-.61,3.13-.61s2.18,.2,3.13,.6c.94,.4,1.75,.95,2.43,1.64,.68,.69,1.21,1.5,1.59,2.43,.38,.93,.57,1.92,.57,2.96s-.19,2.03-.57,2.96Zm-2.53-4.96c-.25-.64-.59-1.2-1.04-1.68-.44-.48-.98-.86-1.6-1.14-.62-.28-1.3-.42-2.03-.42s-1.41,.14-2.02,.41c-.61,.27-1.14,.65-1.57,1.12-.44,.47-.78,1.03-1.03,1.67s-.37,1.32-.37,2.04,.12,1.4,.37,2.04c.25,.64,.59,1.2,1.04,1.68,.44,.48,.98,.86,1.6,1.14,.62,.28,1.3,.42,2.03,.42s1.41-.14,2.02-.41c.61-.28,1.14-.65,1.57-1.12,.44-.47,.78-1.03,1.02-1.67,.25-.64,.37-1.32,.37-2.04s-.12-1.4-.37-2.04Z"/><path class="cls-3" d="M191.05,26.76h-8.41v4.08h7.46v2.35h-7.46v6.02h-2.58v-14.8h10.99v2.35Z"/><path class="cls-3" d="M34.5,48.68h2.2l3.64,11.01,3.53-10.97h2.73l-5.16,14.9h-2.24l-3.64-10.63-3.64,10.63h-2.24l-5.16-14.9h2.81l3.53,10.97,3.64-11.01Z"/><path class="cls-3" d="M60.04,51.07h-8.37v3.8h7.42v2.35h-7.42v3.95h8.48v2.35h-11.06v-14.8h10.95v2.35Z"/><path class="cls-3" d="M65.7,53.36c.1,.21,.28,.41,.54,.59s.62,.35,1.08,.51c.46,.16,1.04,.32,1.75,.49,.78,.2,1.47,.42,2.07,.66,.6,.24,1.1,.53,1.49,.88,.4,.35,.7,.75,.9,1.21s.31,1,.31,1.62c0,.71-.13,1.33-.39,1.88-.26,.55-.62,1.01-1.08,1.4-.46,.38-1.02,.67-1.66,.87-.65,.2-1.36,.3-2.13,.3-1.14,0-2.23-.19-3.28-.58-1.04-.39-2.01-.98-2.9-1.79l1.56-1.86c.72,.62,1.44,1.1,2.18,1.43,.73,.33,1.56,.5,2.49,.5,.8,0,1.44-.17,1.91-.51,.47-.34,.71-.8,.71-1.37,0-.27-.05-.51-.14-.72-.09-.21-.26-.41-.51-.58-.25-.18-.59-.34-1.02-.5s-.99-.32-1.68-.49c-.79-.18-1.49-.39-2.11-.61-.61-.22-1.13-.51-1.55-.84-.42-.34-.73-.75-.95-1.23-.22-.48-.33-1.06-.33-1.75,0-.65,.13-1.24,.38-1.77s.6-.98,1.04-1.36c.44-.38,.97-.67,1.59-.88,.62-.2,1.29-.31,2.03-.31,1.08,0,2.06,.16,2.93,.48s1.68,.78,2.44,1.38l-1.4,1.97c-.68-.49-1.35-.87-2.01-1.13-.66-.26-1.33-.39-2.01-.39-.76,0-1.35,.17-1.78,.52-.42,.34-.63,.76-.63,1.26,0,.3,.05,.55,.15,.76Z"/><path class="cls-3" d="M83.09,63.52h-2.62v-12.39h-4.69v-2.41h12.01v2.41h-4.69v12.39Z"/><path class="cls-3" d="M111.04,63.52h-2.75l-1.5-3.57h-7l-1.52,3.57h-2.66l6.51-14.9h2.41l6.51,14.9Zm-7.76-11.79l-2.54,5.92h5.09l-2.56-5.92Z"/><path class="cls-3" d="M117.9,63.52h-2.62v-12.39h-4.69v-2.41h12.01v2.41h-4.69v12.39Z"/><path class="cls-3" d="M125.14,48.73h2.58v12.45h7.78v2.35h-10.36v-14.8Z"/><path class="cls-3" d="M152.85,63.52h-2.75l-1.5-3.57h-7l-1.52,3.57h-2.66l6.51-14.9h2.41l6.51,14.9Zm-7.76-11.79l-2.54,5.92h5.09l-2.56-5.92Z"/><path class="cls-3" d="M165.62,48.73h2.58v14.8h-2.17l-8.14-10.53v10.53h-2.58v-14.8h2.4l7.91,10.23v-10.23Z"/><path class="cls-3" d="M178.07,63.52h-2.62v-12.39h-4.69v-2.41h12.01v2.41h-4.69v12.39Z"/><path class="cls-3" d="M197.73,63.52h-2.75l-1.5-3.57h-7l-1.52,3.57h-2.66l6.51-14.9h2.41l6.51,14.9Zm-7.76-11.79l-2.54,5.92h5.09l-2.56-5.92Z"/><path class="cls-2" d="M243.7,43.32c-5.42,0-9.83-4.41-9.83-9.83s4.41-9.83,9.83-9.83,9.83,4.41,9.83,9.83-4.41,9.83-9.83,9.83Zm0-17.6c-4.28,0-7.77,3.48-7.77,7.76s3.48,7.76,7.77,7.76,7.76-3.48,7.76-7.76-3.48-7.76-7.76-7.76Z"/><path class="cls-4" d="M248.17,37.07c-5.42,0-9.83-4.41-9.83-9.83s4.41-9.83,9.83-9.83,9.83,4.41,9.83,9.83-4.41,9.83-9.83,9.83Zm0-17.6c-4.28,0-7.77,3.48-7.77,7.77s3.48,7.77,7.77,7.77,7.77-3.48,7.77-7.77-3.48-7.77-7.77-7.77Z"/><path class="cls-5" d="M252.64,43.32c-5.42,0-9.83-4.41-9.83-9.83s4.41-9.83,9.83-9.83,9.83,4.41,9.83,9.83-4.41,9.83-9.83,9.83Zm0-17.6c-4.28,0-7.77,3.48-7.77,7.77s3.48,7.77,7.77,7.77,7.77-3.48,7.77-7.77-3.48-7.77-7.77-7.77Z"/><path class="cls-1" d="M317.83,18.52c-1.39,0-2.41,.97-2.41,2.46,0,1.36,1.02,2.38,2.43,2.38s2.41-.97,2.41-2.46c0-1.36-1.02-2.38-2.43-2.38Z"/><path class="cls-1" d="M277.88,24.75c-1.44,0-2.9,.52-4.05,1.46l-.24-1.18h-3.53v18.59h3.79v-6.67c.99,1.05,2.3,1.52,3.66,1.52,3.03,0,6.2-2.48,6.2-6.9,0-4.71-2.88-6.82-5.83-6.82Zm-1.12,10.22c-2.04,0-2.9-1.73-2.9-3.43s.78-3.24,2.85-3.24c1.93,0,3.16,1.41,3.16,3.53,0,1.96-1.25,3.14-3.11,3.14Z"/><rect class="cls-1" x="316.08" y="25.03" width="3.77" height="13.07"/><path class="cls-1" d="M291.71,24.64c-4.16,0-6.9,2.75-6.9,7.06s2.8,6.93,6.98,6.93c2.27,0,5.02-.89,6.14-3.27l-2.67-1.67c-.78,1.52-2.72,1.54-3.5,1.54-1.52,0-2.75-1.05-3.19-2.54h9.62s.34-.76,.34-1.75c0-3.69-3.03-6.3-6.82-6.3Zm-3.03,5.36c.52-1.18,1.67-1.96,3.03-1.96,1.91,0,2.88,.71,3.24,1.96h-6.28Z"/><path class="cls-1" d="M309.48,26.24c-1.15-.97-2.64-1.49-4.08-1.49-2.95,0-5.83,2.12-5.83,6.82,0,4.42,3.16,6.9,6.2,6.9,1.36,0,2.69-.5,3.71-1.54l.21,1.18h3.53V20.72h-3.74v5.52Zm-2.95,8.73c-1.86,0-3.11-1.18-3.11-3.14,0-2.12,1.23-3.53,3.16-3.53,2.07,0,2.85,1.6,2.85,3.24s-.86,3.43-2.9,3.43Z"/><path class="cls-1" d="M342.82,32.51v-3.79h2.09v-3.69h-2.07v-4.31h-3.79v4.31h-1.83v3.69h1.83v3.95c0,3.79,1.44,5.6,4.47,5.6,.6,0,1.7-.05,2.27-.16v-3.69c-.29,.05-1.12,.1-1.54,.1-1.1,0-1.44-.47-1.44-2.01Z"/><path class="cls-1" d="M383.06,40.8c0-.22-.18-.37-.46-.37h-.54v1.2h.23v-.43h.25l.33,.43h.28l-.36-.47c.18-.05,.28-.18,.28-.36Zm-.48,.19h-.3v-.35h.31c.15,0,.23,.06,.23,.17s-.09,.18-.24,.18Z"/><path class="cls-1" d="M383.34,36.35c.1-.18,.18-.36,.25-.6,.09-.31,.16-.79-.2-.96-.22-.09-.39,.01-.54,.16-4.29,5.93-6.94,3.32-9.15-2.23l5.62-7.67h-4.46l-2.9,4.13-1.83-4.13h-4.69l3.32,6.72-5.1,6.35h4.92l2-2.71c.49,.97,1.06,1.9,1.7,2.78,.66,.91,1.57,1.98,2.66,2.39,2.08,.77,4.27,.13,5.95-1.22,.76-.61,1.41-1.34,1.95-2.14,.22-.32,.43-.72,.49-.85Z"/><path class="cls-1" d="M382.53,39.91c-.63,0-1.15,.51-1.15,1.15s.51,1.14,1.14,1.14,1.15-.51,1.15-1.15-.51-1.14-1.14-1.14Zm0,2.09c-.53,0-.94-.41-.94-.94s.41-.95,.94-.95,.94,.41,.94,.94-.41,.95-.94,.95Z"/><rect class="cls-1" x="358.21" y="25.03" width="3.77" height="13.07"/><path class="cls-1" d="M359.96,18.52c-1.39,0-2.41,.97-2.41,2.46,0,1.36,1.02,2.38,2.43,2.38s2.41-.97,2.41-2.46c0-1.36-1.02-2.38-2.43-2.38Z"/><path class="cls-1" d="M351.37,27.64l-.03-2.61h-3.51v13.1h3.77v-6.31c0-1.65,2.75-2.93,4.86-2.93v-3.84c-1.57,0-4,1.26-5.1,2.59Z"/><path class="cls-1" d="M331.62,26.21c-1.15-.94-2.61-1.46-4.03-1.46-2.95,0-5.83,2.12-5.83,6.82,0,4.42,3.16,6.9,6.2,6.9,1.33,0,2.67-.5,3.69-1.52l.24,1.15h3.53v-13.07h-3.53l-.26,1.18Zm-2.9,8.76c-1.86,0-3.11-1.18-3.11-3.14,0-2.12,1.23-3.53,3.16-3.53,2.07,0,2.85,1.6,2.85,3.24s-.86,3.43-2.9,3.43Z"/><rect class="cls-1" x="214.53" y=".12" width="2.5" height="63.38"/></g></g></g></svg>