<?xml version="1.0" encoding="utf-8"?>
<!-- Generator: Adobe Illustrator 24.0.1, SVG Export Plug-In . SVG Version: 6.00 Build 0)  -->
<svg version="1.1" id="Layer_1" xmlns="http://www.w3.org/2000/svg" xmlns:xlink="http://www.w3.org/1999/xlink" x="0px" y="0px"
	 viewBox="0 0 370 77.2" style="enable-background:new 0 0 370 77.2;" xml:space="preserve">
<style type="text/css">
	.st0{clip-path:url(#SVGID_2_);fill-rule:evenodd;clip-rule:evenodd;fill:url(#SVGID_3_);stroke:#FFFFFF;stroke-width:0.9284;}
	.st1{clip-path:url(#SVGID_2_);fill-rule:evenodd;clip-rule:evenodd;fill:#FFFFFF;}
	.st2{clip-path:url(#SVGID_2_);fill-rule:evenodd;clip-rule:evenodd;fill:url(#SVGID_4_);stroke:#FFFFFF;stroke-width:0.9284;}
	.st3{clip-path:url(#SVGID_2_);}
	.st4{fill:#FFFFFF;stroke:#FFFFFF;stroke-width:0.5158;stroke-linecap:round;stroke-linejoin:round;stroke-miterlimit:2;}
	.st5{clip-path:url(#SVGID_2_);fill:#FFFFFF;}
	.st6{clip-path:url(#SVGID_2_);fill:#005B94;stroke:#FFFFFF;stroke-width:0.5158;}
	.st7{fill:#00538B;}
</style>
<g>
	<g>
		<defs>
			<rect id="SVGID_1_" x="-0.1" y="-0.2" width="110.8" height="77.4"/>
		</defs>
		<clipPath id="SVGID_2_">
			<use xlink:href="#SVGID_1_"  style="overflow:visible;"/>
		</clipPath>
		<radialGradient id="SVGID_3_" cx="74.1396" cy="14.5213" r="70.2048" gradientUnits="userSpaceOnUse">
			<stop  offset="0.4479" style="stop-color:#D1E2E6"/>
			<stop  offset="0.4873" style="stop-color:#CBDEE4"/>
			<stop  offset="0.6693" style="stop-color:#B5D0DC"/>
			<stop  offset="0.8434" style="stop-color:#A8C8D8"/>
			<stop  offset="1" style="stop-color:#A4C5D6"/>
		</radialGradient>
		<rect x="-0.7" y="-0.7" class="st0" width="111.8" height="78.7"/>
		<path class="st1" d="M61.6,24.4c1.2-0.9-0.1-2.3-0.1-3.9c0-2.9-2.5-5.2-5.5-5.2c-2.6,0-4.8,1.7-5.4,4.1c-0.4-0.2-0.9-0.4-1.4-0.4
			c-1.4,0-2.6,1.1-2.6,2.5c0,0.2,0,0.5,0.1,0.7c0,0-0.1,0-0.1,0c0-0.1,0-0.2,0-0.3c0-0.9-0.8-1.6-1.7-1.6c-0.9,0-1.6,0.6-1.7,1.4
			c-0.3-0.3-0.8-0.5-1.2-0.5c-0.9,0-1.7,0.7-1.8,1.5c-0.3-0.2-0.7-0.3-1-0.3c-1.1,0-2,0.8-2,1.9c0,0,0,0,0,0.1H61.6z"/>
		<path class="st1" d="M99.6,22.9c-0.4-1.3-1.7-2.3-3.2-2.3c-0.7,0-1.3,0.2-1.9,0.5c-0.4-1.4-1.4-2.4-2.6-2.4
			c-1.5,0-2.8,1.6-2.8,3.6c0,0.2,0,0.4,0,0.6H99.6z"/>
		<path class="st1" d="M87.1,12.8h23.4c0,0,0-0.1,0-0.1c0-0.7-0.6-1.3-1.3-1.3c-0.2,0-0.3,0-0.5,0.1c-0.3-0.6-0.9-1-1.6-1
			c-0.7,0-1.3,0.4-1.5,0.9c-0.2-0.7-0.9-1.2-1.6-1.2c-0.2,0-0.4,0-0.6,0.1c-0.1-1.1-1-1.9-2.1-1.9c-1,0-1.8,0.6-2.1,1.5
			c-0.4-0.3-0.9-0.5-1.4-0.5c-0.4,0-0.8,0.1-1.1,0.3c0-0.1,0-0.1,0-0.2c0-1.4-1.1-2.5-2.5-2.5c-1.1,0-2.1,0.7-2.4,1.7
			c-0.4-0.4-1-0.7-1.7-0.7c-1.3,0-2.4,1.1-2.4,2.5c0,0.5,0.2,1.1,0.4,1.5C87.7,12.3,87.3,12.5,87.1,12.8z"/>
		<path class="st1" d="M110.7,17.9v-1.4l-20.3,0c0-0.7-0.1-1.3-0.2-2L110.7,7V5.5l-20.9,7.6c-0.3-1-0.7-2-1.1-2.9l19.6-11.3h-2.9
			L88,8.9c-0.6-0.9-1.2-1.7-1.9-2.5l9.1-7.6h-2.2l-7.9,6.6c-1-0.9-2.1-1.6-3.3-2.2l2.5-4.4h-1.6l-2.2,3.8c-1.6-0.6-3.2-1-5-1
			l-0.2-2.8h-1.4l0.2,2.8c-1.9,0.1-3.7,0.5-5.3,1.2l-2.8-4h-1.7l3.2,4.6c-1.4,0.7-2.6,1.7-3.7,2.8L53.2-1.1h-2.5l12.1,8.5
			c-0.7,0.9-1.3,1.8-1.8,2.8L30-1.1h-4.2l34.5,12.5c-0.4,1-0.7,2-0.9,3.1L-0.7,9.5l0.3,1.4l59.7,5c0,0.4-0.1,0.9-0.1,1.3
			c0,0.7,0.1,1.5,0.2,2.2L-0.4,32.8v1.5l60.1-13.4c0.2,1.1,0.6,2.1,1.1,3L0.6,59.1v1.7l60.8-35.7c0.5,0.8,1,1.6,1.6,2.3l-30.9,31
			l1,1l30.9-31c0.8,0.8,1.8,1.5,2.8,2.1l-17.4,31l1.1,0.8L68,31.2c0.8,0.4,1.7,0.8,2.7,1l-9.2,31.4l1.3,0.6L72,32.6
			c0.8,0.1,1.6,0.2,2.5,0.3l-0.8,31.9l1.4,0.2l0.8-32.2c0.8-0.1,1.6-0.2,2.4-0.3L83,64l1.4,0l-4.8-31.8c0.8-0.3,1.6-0.6,2.3-1l21,43
			l1.3-0.6l-21-43.1c0.8-0.5,1.5-1,2.2-1.6L110.7,58v-2.2L86.3,27.8c0.6-0.6,1.1-1.3,1.5-1.9l22.9,16.6v-1.8L88.6,24.6
			c0.5-0.9,0.9-1.8,1.2-2.8l21,7.6v-1.5l-20.6-7.5c0.2-0.8,0.3-1.7,0.3-2.5L110.7,17.9z"/>
		<linearGradient id="SVGID_4_" gradientUnits="userSpaceOnUse" x1="55.2392" y1="63.6688" x2="55.2392" y2="81.6732">
			<stop  offset="0" style="stop-color:#005B94"/>
			<stop  offset="8.191222e-02" style="stop-color:#005792"/>
			<stop  offset="0.3763" style="stop-color:#144E8C"/>
			<stop  offset="0.679" style="stop-color:#1F4889"/>
			<stop  offset="1" style="stop-color:#214688"/>
		</linearGradient>
		<path class="st2" d="M100.3,57.5c-4.1-2.7-9.8-2.8-13.4-0.1c-3.5,2.7-8.1,2.5-11.3,0.4c-3.2-2.1-8.2-4.2-13.4-0.6
			c-4.8,3.4-9.6,1.9-12.9-0.5c-2.8-2-8.1-2-11.7,0.3c-4.5,2.9-8.5,2.9-12,0.4c-4.3-3-9.6-2.9-14.3,0.4c-3.3,2.4-8.5,1.6-12-1V78
			h111.8V57.7C108.1,59,103.8,59.8,100.3,57.5z"/>
		<g class="st3">
			<g>
				<path class="st4" d="M41.6,70.8c0-0.1-1.9,0.8-5.8,0.7c-3.9,0-7.7-2.1-9.3-3.9c-1-1-1.6-1.9-2.4-3.2c-0.7-1.2-1.5-2.8-2.6-4.4
					c-2.1-3.4-6.6-5-7.4-5.2c-4-1.1-6.4-1.1-6.5-1.2c-0.1,0,2,0.1,5.8,1.4c0.8,0.2,5.1,1.9,7,5.3c1,1.6,1.7,3.2,2.5,4.6
					c0.8,1.4,1.5,2.4,2.7,3.4c2,2,6.3,3.7,10.2,3.6C39.7,71.7,41.6,70.7,41.6,70.8z"/>
			</g>
		</g>
		<path class="st5" d="M4.8-0.7c0,4.4,6.9,17.8,9.8,22.8C17.5,27,18.5,34.3,15,37c-3.2,2.4-3.9,6.8-2.1,9.1c2.2,2.7,7.9,5.3,9.9,8.5
			c1.5,2.5,4.8,9.7,6.8,11.3c1.4,1.1,3.9,1.6,4.9,1.6c0,0,1.8,0.6,4.6,0.6c2.8,0.1,5.2-1.2,5-2.2c-0.2-1.5-0.5-0.7-4.1-2
			c-2.7-0.9-4.4-1.8-4.9-4.1c-0.7-3.2-1-8.6-2.1-12.3c-1.1-3.7-2.6-7.8-3.3-12.9c-1.2-8.7-2.9-14.5-3.8-20.6
			c-1.2-8-2.1-14.5-2.1-14.5L4.8-0.7z"/>
		<path class="st6" d="M5.3-1.3c0,4.4,7.6,17.8,10.3,22.8c2.7,4.9,3.7,12.2,0.3,14.8c-3,2.4-4.1,6.8-2.4,9.1
			c2.1,2.7,7.9,5.3,9.8,8.5c1.5,2.5,4.5,9.7,6.4,11.3c1.3,1.1,3.7,1.6,4.6,1.6c0,0,1.7,0.6,4.3,0.6c2.6,0.1,4.9-1.2,4.7-2.2
			c-0.2-1.5-0.4-0.7-3.9-2c-2.5-0.9-4.1-1.8-4.6-4.1c-0.7-3.2-0.9-8.6-2-12.3c-1.1-3.7-1.9-7.8-2.6-12.9c-1.2-8.7-2.7-14.5-3.6-20.6
			c-1.1-8-2.5-14.4-2.5-14.4L5.3-1.3z"/>
		<path class="st5" d="M20.1,39.6c-1.9,0.7-2.7,2.2-1.3,4c-0.2,0-0.3-0.1-0.5-0.3c-0.3-0.3-0.6-0.7-0.8-1.1
			c-0.3-0.6-0.2-1.2,0.2-1.7C17.8,40.5,18.5,39.5,20.1,39.6z"/>
		<rect x="-4" y="-4.5" class="st5" width="115.7" height="4.2"/>
		<rect x="58.5" y="15.6" class="st5" width="1.3" height="1.3"/>
		<rect x="88.6" y="11.7" class="st5" width="2.4" height="1.6"/>
		<rect x="91.5" y="8" class="st5" width="1" height="1.6"/>
	</g>
	<g>
		<path class="st7" d="M124.4,26.8c0-5,3.8-8.6,8.7-8.6c3.8,0,6.4,2.3,6.4,6.3c0,4.3-3.1,8.5-8.7,8.5
			C126.9,33.2,124.4,30.9,124.4,26.8z M126.6,27c0,2.9,1.3,5.5,4.6,5.5c4.5,0,6.1-4.6,6.1-8.6c0-2.8-1.5-5-4.4-5
			C129,18.9,126.6,22.9,126.6,27z"/>
		<path class="st7" d="M147.9,29.9c-0.7,1.1-2.2,3.3-4.9,3.3c-1.5,0-2.3-1.2-2.3-2.9c0-4.8,3.3-7.6,6.2-7.6c0.4,0,1.3,0.1,1.7,0.8
			c-0.2,0.6-0.4,1-0.8,1.4h-0.2c-0.3-0.8-1-1.4-1.9-1.4c-2.1,0-3.1,3.3-3.1,5.8c0,1.6,0.3,2.7,1.6,2.7c1.2,0,2.6-1.6,3.3-2.6
			L147.9,29.9z"/>
		<path class="st7" d="M156.6,29.8c-0.4,1-2.5,3.4-4.9,3.4c-1.9,0-2.6-1.1-2.6-3c0-4.4,3.5-7.4,6-7.4c1.2,0,2.1,0.6,2.1,1.6
			c0,2.8-4.9,4.5-6.2,5c0,1,0.3,2.8,1.6,2.8c1.6,0,3.1-2,3.5-2.6L156.6,29.8z M151,28.7c1.3-0.5,4.4-1.9,4.4-4.1c0-0.8-0.6-1-1.1-1
			C152.4,23.6,151.1,26.8,151,28.7z"/>
		<path class="st7" d="M167.2,30.9c-0.5,0.6-1.8,2.3-3.1,2.3c-0.5,0-0.8-0.3-0.8-0.9c0-0.5,0.3-2.1,0.4-2.5l0,0
			c-0.9,1.3-2.6,3.5-4.7,3.5c-0.9,0-1.4-0.9-1.4-2c0-4.1,3.8-8.4,7.2-8.4c0.6,0,1,0,1.6,0.1l-0.8,4c-0.3,1.5-0.7,4.1-0.7,4.6
			c0,0.2,0,0.4,0.3,0.4c0.4,0,1.2-1,1.4-1.4L167.2,30.9z M164.8,23.8c-0.2-0.1-0.6-0.2-1-0.2c-2,0-4.2,3.6-4.2,7
			c0,1.1,0.4,1.6,0.8,1.6c1.3,0,3.4-3.1,4-6L164.8,23.8z"/>
		<path class="st7" d="M170.1,26.8c0.2-1,0.4-2.1,0.4-2.3c0-0.2,0-0.4-0.3-0.4c-0.4,0-1.2,1-1.4,1.3l-0.4-0.4
			c0.5-0.6,1.9-2.2,3.2-2.2c0.5,0,0.6,0.3,0.6,0.7c0,1.1-0.5,2.7-0.7,3.3l0,0c0.7-1.5,3.3-4,5.3-4c0.7,0,1.1,0.4,1.1,1.2
			c0,0.4-0.1,1.1-0.2,1.6l-0.9,4.9c-0.1,0.5-0.2,0.8-0.2,1.1c0,0.2,0,0.4,0.3,0.4c0.4,0,1.2-1,1.4-1.4l0.4,0.4
			c-0.5,0.6-1.8,2.3-3.1,2.3c-0.5,0-0.7-0.3-0.7-0.9c0-0.5,0.3-2.1,0.4-2.6l0.8-4c0.1-0.4,0.2-0.7,0.2-1.1c0-0.4-0.3-0.6-0.6-0.6
			c-1.6,0-3.8,2.8-4.6,6.6l-0.4,2.2l-1.6,0.3L170.1,26.8z"/>
		<path class="st7" d="M198.9,28.9c-0.2,1.1-0.6,2.6-1.3,3.4c-0.4,0.3-2.6,0.9-4.1,0.9c-4.1,0-7.1-1.8-7.1-6.2
			c0-5.1,3.5-8.7,8.9-8.7c2.5,0,3.7,0.5,4.4,1c0,1.2-0.1,2.4-0.2,3.1l-0.5,0.1c0-0.6-0.2-1.9-0.7-2.6c-0.5-0.5-1.7-0.9-2.9-0.9
			c-4.6,0-6.7,3.5-6.7,7.9c0,3.2,1.5,5.7,4.9,5.7c3.3,0,4.5-2.6,5-3.7L198.9,28.9z"/>
		<path class="st7" d="M200.3,29.6c0-3.5,2.6-6.9,5.7-6.9c1.5,0,2.7,0.9,2.7,3.2c0,3.7-2.7,7.2-5.7,7.2
			C201.2,33.2,200.3,32,200.3,29.6z M204,32.3c1.8,0,2.8-3.1,2.8-5.6c0-2.1-0.4-3.1-1.6-3.1c-1.9,0-3,2.6-3,5.8
			C202.2,31.1,202.7,32.3,204,32.3z"/>
		<path class="st7" d="M219.9,31c-0.5,0.6-1.9,2.2-3.2,2.2c-0.4,0-0.6-0.3-0.6-0.7c0-1.1,0.5-2.7,0.7-3.3l0,0c-0.6,1.5-3.2,4-5,4
			c-0.7,0-1.1-0.4-1.1-1.2c0-0.4,0.1-1.1,0.2-1.6l0.9-4.9c0.1-0.5,0.2-0.8,0.2-1.1c0-0.2,0-0.4-0.3-0.4c-0.4,0-1.2,1-1.4,1.4
			l-0.4-0.4c0.5-0.6,1.8-2.3,3.1-2.3c0.5,0,0.7,0.3,0.7,0.9c0,0.5-0.3,2.1-0.4,2.6l-0.8,4c-0.1,0.4-0.2,0.7-0.2,1.1
			c0,0.4,0.3,0.6,0.6,0.6c1.6,0,3.6-2.8,4.4-6.6l0.4-2.2l1.6-0.3l-1.2,6.4c-0.2,1-0.4,2.1-0.4,2.3c0,0.2,0,0.4,0.3,0.4
			c0.4,0,1.2-1,1.4-1.3L219.9,31z"/>
		<path class="st7" d="M222.8,26.8c0.2-1,0.4-2.1,0.4-2.3c0-0.2,0-0.4-0.3-0.4c-0.4,0-1.2,1-1.4,1.3l-0.4-0.4
			c0.5-0.6,1.9-2.2,3.2-2.2c0.5,0,0.6,0.3,0.6,0.7c0,1.1-0.5,2.7-0.7,3.3l0,0c0.7-1.5,3.3-4,5.3-4c0.7,0,1.1,0.4,1.1,1.2
			c0,0.4-0.1,1.1-0.2,1.6l-0.9,4.9c-0.1,0.5-0.2,0.8-0.2,1.1c0,0.2,0,0.4,0.3,0.4c0.4,0,1.2-1,1.4-1.4l0.4,0.4
			c-0.5,0.6-1.8,2.3-3.1,2.3c-0.5,0-0.7-0.3-0.7-0.9c0-0.5,0.3-2.1,0.4-2.6l0.8-4c0.1-0.4,0.2-0.7,0.2-1.1c0-0.4-0.3-0.6-0.6-0.6
			c-1.6,0-3.8,2.8-4.6,6.6l-0.4,2.2l-1.6,0.3L222.8,26.8z"/>
		<path class="st7" d="M238.2,30.8c-0.7,1-2.1,2.4-3.5,2.4c-0.8,0-1.3-0.5-1.3-1.4c0-0.4,0.3-1.9,0.3-2.3l1-5.7c-0.5,0-1,0-1.6-0.2
			l0.1-0.4c0.3-0.1,1.5-0.2,1.7-0.2l0.2-0.8c0.6-0.6,1.1-1.1,1.9-1.6h0.3c-0.3,0.8-0.5,1.6-0.7,2.4c0.7,0,1.8,0.1,2.5,0.2l-0.1,0.4
			c-0.6,0.1-1.9,0.1-2.6,0.2l-1.1,5.8c-0.1,0.6-0.2,1-0.2,1.4c0,0.5,0,1.1,0.6,1.1c0.8,0,1.7-1.2,2.1-1.8L238.2,30.8z"/>
		<path class="st7" d="M240.7,36.4c0,0.8,0.6,0.8,0.9,0.9l0,0.2c-0.7,0.3-1.4,0.5-1.8,0.5c-0.5,0-0.9-0.3-0.9-0.7
			c0-0.5,0.2-1,0.8-1.8l0.7-1c0.3-0.5,0.6-0.8,0.6-1c0.1-0.6,0.1-1.3,0.1-2.3c0-1.7-0.5-7-1.2-7c-0.4,0-0.8,0.8-1.1,1.1l-0.5-0.4
			c0.4-0.7,1.6-2,2.6-2c1.5,0,1.5,5.7,1.5,7.9v0.8h0c0.2-0.4,3-4.1,3-5.9c0-0.6,0-0.9-0.2-1.4c0.3-0.5,0.6-1.3,1.4-1.3
			c0.7,0,0.7,0.9,0.7,1.1c0,1.1-0.5,1.9-1.5,3.5l-1.5,2.4C243.4,31.2,240.7,35.3,240.7,36.4z"/>
		<path class="st7" d="M253.4,32.4l0.9-0.1c0.6-0.1,0.8-0.7,1-1.7l1.5-9.6c0.1-0.4,0.1-1,0.1-1.1c0-0.3,0-0.6-0.5-0.7l-0.9-0.1
			l0.1-0.5h9.5c0,1.1-0.2,2.7-0.4,3.4h-0.5c0-2.1-0.2-2.8-2.3-2.8h-2.9l-1,6.1h2.8c1.5,0,1.8-0.1,2.1-0.9l0.2-0.7h0.5l-0.6,4h-0.5
			v-0.9c0-0.8-0.3-0.8-1.7-0.8h-2.9l-0.8,4.9c0,0.3-0.1,0.6-0.1,0.9c0,0.4,0.3,0.5,0.7,0.6l1.2,0.1l-0.1,0.5h-5.5L253.4,32.4z"/>
		<path class="st7" d="M264.3,29.6c0-3.5,2.6-6.9,5.7-6.9c1.5,0,2.7,0.9,2.7,3.2c0,3.7-2.7,7.2-5.7,7.2
			C265.2,33.2,264.3,32,264.3,29.6z M268,32.3c1.8,0,2.8-3.1,2.8-5.6c0-2.1-0.4-3.1-1.6-3.1c-1.9,0-3,2.6-3,5.8
			C266.1,31.1,266.7,32.3,268,32.3z"/>
		<path class="st7" d="M273.9,29.6c0-3.5,2.6-6.9,5.7-6.9c1.5,0,2.7,0.9,2.7,3.2c0,3.7-2.7,7.2-5.7,7.2
			C274.8,33.2,273.9,32,273.9,29.6z M277.5,32.3c1.8,0,2.8-3.1,2.8-5.6c0-2.1-0.4-3.1-1.6-3.1c-1.9,0-3,2.6-3,5.8
			C275.7,31.1,276.3,32.3,277.5,32.3z"/>
		<path class="st7" d="M289,30.8c-0.7,1-2.1,2.4-3.5,2.4c-0.8,0-1.3-0.5-1.3-1.4c0-0.4,0.3-1.9,0.3-2.3l1-5.7c-0.5,0-1,0-1.6-0.2
			l0.1-0.4c0.3-0.1,1.5-0.2,1.7-0.2l0.2-0.8c0.6-0.6,1.1-1.1,1.9-1.6h0.3c-0.3,0.8-0.5,1.6-0.7,2.4c0.7,0,1.8,0.1,2.5,0.2l-0.1,0.4
			c-0.6,0.1-1.9,0.1-2.6,0.2l-1.1,5.8c-0.1,0.6-0.2,1-0.2,1.4c0,0.5,0,1.1,0.6,1.1c0.8,0,1.7-1.2,2.1-1.8L289,30.8z"/>
		<path class="st7" d="M308.8,34.1c-0.6-1-1.5-1.9-2.3-2.7c-1.2,1-2.7,1.8-5.5,1.8c-2.6,0-4.7-1.4-4.7-3.9c0-2.6,2.9-3.9,4-4.6
			c-0.2-0.3-0.5-0.9-0.5-2c0-2.6,2-4.4,4-4.4c1.1,0,2,0.6,2,1.7c0,2.4-2.8,3.7-3.8,4.3c0.8,1.5,3.7,4.3,5,5.4c0.3-0.4,1-1.3,1-2.8
			c0-2.1-1.8-3-2.7-3.3v-0.2c0.2-0.1,1-0.4,1.6-0.4c1.3,0,2.4,1.3,2.4,2.9c0,2.3-1.2,3.9-1.8,4.4c0.8,0.9,1.4,1.9,1.4,3.7
			L308.8,34.1z M302.5,32.3c1.5,0,3.1-1,3.5-1.3c-2.1-1.7-4-3.3-5.4-5.7c-0.7,0.4-2.4,1.3-2.4,3.5C298.2,30.9,299.7,32.3,302.5,32.3
			z M301.8,23.9c0.9-0.5,2.7-1.6,2.7-3.2c0-1-0.5-1.6-1.4-1.6c-0.9,0-1.9,1.1-1.9,2.5C301.2,22.9,301.4,23.4,301.8,23.9z"/>
		<path class="st7" d="M315.7,32.4l0.6,0c0.2,0,0.4-0.1,0.6-0.3c0.5-0.4,1.7-2.9,2.8-4.8l1.8-3.2c1-1.8,2.1-3.7,3.1-5.6
			c0.1-0.1,0.4-0.2,0.6-0.2l2.9,13c0.2,0.9,0.3,1,1,1.1l0.5,0.1l-0.1,0.5h-5.1l0.1-0.5l1.2-0.2c0.3,0,0.6-0.1,0.6-0.4
			c0-0.1,0-0.3-0.1-0.4l-0.9-4.3c-0.8-0.2-1.5-0.2-2.3-0.2c-0.8,0-1.6,0-2.4,0.2c-0.5,0.9-2.2,4-2.2,4.7c0,0.2,0.3,0.3,0.5,0.3
			l1.1,0.2l-0.1,0.5h-4.4L315.7,32.4z M321.1,26.5c0.6-0.1,1.3-0.1,2-0.1c0.7,0,1.3,0,2,0.1l-1.2-5.3L321.1,26.5z"/>
		<path class="st7" d="M332.4,26.8c0.2-1,0.4-2.1,0.4-2.3c0-0.2,0-0.4-0.3-0.4c-0.4,0-1.2,1-1.4,1.3l-0.4-0.4
			c0.5-0.6,1.9-2.2,3.2-2.2c0.5,0,0.6,0.3,0.6,0.7c0,1.1-0.5,2.7-0.7,3.3l0,0c0.7-1.5,3.3-4,5.3-4c0.7,0,1.1,0.4,1.1,1.2
			c0,0.4-0.1,1.1-0.2,1.6l-0.9,4.9c-0.1,0.5-0.2,0.8-0.2,1.1c0,0.2,0,0.4,0.3,0.4c0.4,0,1.2-1,1.4-1.4l0.4,0.4
			c-0.5,0.6-1.8,2.3-3.1,2.3c-0.5,0-0.7-0.3-0.7-0.9c0-0.5,0.3-2.1,0.4-2.6l0.8-4c0.1-0.4,0.2-0.7,0.2-1.1c0-0.4-0.3-0.6-0.6-0.6
			c-1.6,0-3.8,2.8-4.6,6.6l-0.4,2.2l-1.6,0.3L332.4,26.8z"/>
		<path class="st7" d="M344.5,20.3c0.1-0.4,0.2-0.8,0.2-1.2c0-0.3-0.1-0.5-0.3-0.5c-0.3,0-1,0.3-1.4,0.5l-0.2-0.5
			c0.6-0.4,2.4-1.3,3.1-1.3c0.3,0,0.5,0.2,0.5,0.6c0,0.3-0.1,0.7-0.2,1.3l-1.3,6.9l0,0c0.5-1.2,3.1-3.5,5-3.5c0.8,0,1.3,0.5,1.3,1.2
			c0,1.8-2.8,3.7-3.5,4.3c0.3,1.3,0.8,3.6,1.5,3.6c0.4,0,1-0.8,1.2-1.2l0.4,0.3c-0.4,0.6-1.3,2.2-2.4,2.2c-1.6,0-1.7-3.9-2.3-3.9
			c-0.2,0-0.3,0.1-0.5,0.2l-0.2-0.4c0.9-0.5,3.9-2.4,3.9-4.3c0-0.6-0.3-1-0.8-1c-1.7,0-3.8,2.9-4.4,6.1l-0.5,2.9l-1.6,0.3
			L344.5,20.3z"/>
		<path class="st7" d="M356.5,30.9c-0.5,0.6-1.8,2.3-3.1,2.3c-0.5,0-0.7-0.3-0.7-0.9c0-0.3,0.1-1.3,0.2-1.5l2-10.5
			c0.1-0.4,0.2-0.9,0.2-1.2c0-0.3-0.1-0.5-0.3-0.5c-0.3,0-1,0.3-1.4,0.5l-0.2-0.5c0.6-0.4,2.4-1.3,3.1-1.3c0.4,0,0.6,0.2,0.6,0.6
			c0,0.2-0.1,0.8-0.2,1.4l-2,11c-0.1,0.5-0.2,1-0.2,1.1c0,0.2,0,0.4,0.3,0.4c0.4,0,1.2-1,1.4-1.4L356.5,30.9z"/>
		<path class="st7" d="M365.2,29.8c-0.4,1-2.5,3.4-4.9,3.4c-1.9,0-2.6-1.1-2.6-3c0-4.4,3.5-7.4,6-7.4c1.2,0,2.1,0.6,2.1,1.6
			c0,2.8-4.9,4.5-6.2,5c0,1,0.3,2.8,1.6,2.8c1.6,0,3.1-2,3.5-2.6L365.2,29.8z M359.6,28.7c1.3-0.5,4.4-1.9,4.4-4.1
			c0-0.8-0.6-1-1.1-1C361.1,23.6,359.8,26.8,359.6,28.7z"/>
		<path class="st7" d="M132.9,48.1c0-0.1,0-1.1-0.2-1.7c-0.2-0.8-1-1.5-2.4-1.5c-1.6,0-2.7,1-2.7,2.5c0,2.3,2.2,2.7,3.8,4
			c1.2,1,2,2.1,2,3.5c0,2.8-2.4,4.3-5.2,4.3c-2,0-3.3-0.8-3.6-1.1c-0.2-0.6-0.2-1.3-0.2-2c0-0.4,0.1-1.1,0.2-1.6l0.6-0.1
			c0,0.3,0.2,0.9,0.3,1.7c0.2,1,1.2,2.5,3.4,2.5c1.8,0,2.9-1.2,2.9-3c0-2.3-2.6-3.1-3.8-4.1c-1.2-0.9-1.9-1.8-1.9-3.4
			c0-2.4,2.1-3.8,4.8-3.8c1.8,0,2.9,0.6,3.2,0.9c0,0.3,0,0.5,0,0.8c0,0.8-0.2,1.7-0.3,2.1L132.9,48.1z"/>
		<path class="st7" d="M145.2,56.9c-0.5,0.6-1.9,2.2-3.2,2.2c-0.4,0-0.6-0.3-0.6-0.7c0-1.1,0.5-2.7,0.7-3.3l0,0c-0.6,1.5-3.2,4-5,4
			c-0.7,0-1.1-0.4-1.1-1.2c0-0.4,0.1-1.1,0.2-1.6l0.9-4.9c0.1-0.5,0.2-0.8,0.2-1.1c0-0.2,0-0.4-0.3-0.4c-0.4,0-1.2,1-1.4,1.4
			l-0.4-0.4c0.5-0.6,1.8-2.3,3.1-2.3c0.5,0,0.7,0.3,0.7,0.9c0,0.5-0.3,2.1-0.4,2.6l-0.8,4c-0.1,0.4-0.2,0.7-0.2,1.1
			c0,0.4,0.3,0.6,0.6,0.6c1.6,0,3.6-2.8,4.4-6.6l0.4-2.2l1.6-0.3l-1.2,6.4c-0.2,1-0.4,2.1-0.4,2.3c0,0.2,0,0.4,0.3,0.4
			c0.4,0,1.2-1,1.4-1.3L145.2,56.9z"/>
		<path class="st7" d="M148.1,52.7c0.2-0.9,0.3-2.1,0.3-2.3c0-0.2-0.1-0.4-0.4-0.4c-0.4,0-1.2,1-1.4,1.3l-0.4-0.4
			c0.5-0.6,1.7-2.2,3-2.2c0.5,0,0.6,0.3,0.6,0.7c0,0.7-0.2,1.6-0.3,2l0,0c0.5-0.7,1.6-2.7,2.9-2.7c0.6,0,1.2,0.3,1.6,0.5
			c-0.2,0.4-0.6,1.3-1.2,1.3c-0.4,0-1.2-0.5-1.5-0.5c-1.1,0-2.1,4.7-2.5,6.7l-0.4,2.2l-1.6,0.3L148.1,52.7z"/>
		<path class="st7" d="M161.1,50.3c0.1,0.2,0.4,0.4,0.4,1.2c0,3.2-4,3.7-4,4.8c0,0.7,1.1,1.1,2.3,2.1c1,0.8,1.9,1.7,1.9,2.6
			c0,1.9-2.1,3-5.3,3c-2.6,0-4.1-0.6-4.1-2.2c0-1.5,3-3.4,4.2-3.8c-0.3-0.2-0.7-0.5-0.7-0.9c0-0.4,1.1-1.1,1.5-1.4v0
			c-0.1,0-0.3,0-0.6,0c-1.3,0-2.3-0.9-2.3-2.4c0-2.5,2.3-4.7,4.6-4.7c1.5,0,3.6,1.1,4,1.3l-0.1,0.4H161.1z M157.1,63.2
			c1.5,0,2.7-0.9,2.7-1.7c0-1.3-2.2-2.7-2.7-3c-1,0.2-3,1-3,2.7C154.1,62.9,155.6,63.2,157.1,63.2z M157.5,55.3
			c0.9-0.6,2.1-2.2,2.1-4.2c0-1-0.4-1.7-1.4-1.7c-1.3,0-2.1,2-2.1,3.9C156.2,54.5,156.8,55.3,157.5,55.3z"/>
		<path class="st7" d="M167.9,56.8c-0.5,0.6-1.8,2.3-3.1,2.3c-0.5,0-0.7-0.3-0.7-0.9c0-0.3,0.1-1.3,0.2-1.5l1.2-6.3
			c0-0.2,0-0.4-0.3-0.4c-0.4,0-1.2,1-1.4,1.4l-0.4-0.5c0.5-0.6,2-2.2,3.3-2.2c0.4,0,0.6,0.3,0.6,0.7c0,0.2-0.2,1.2-0.2,1.6l-1,5.4
			c-0.1,0.5-0.2,1-0.2,1.1c0,0.2,0,0.4,0.3,0.4c0.4,0,1.2-1,1.4-1.4L167.9,56.8z M166,45.4c0-0.6,0.5-1.2,1.2-1.2
			c0.5,0,0.9,0.3,0.9,0.9c0,0.6-0.5,1.2-1.3,1.2C166.4,46.3,166,46,166,45.4z"/>
		<path class="st7" d="M176.3,55.8c-0.7,1.1-2.2,3.3-4.9,3.3c-1.5,0-2.3-1.2-2.3-2.9c0-4.8,3.3-7.6,6.2-7.6c0.4,0,1.3,0.1,1.7,0.8
			c-0.2,0.6-0.4,1-0.8,1.4H176c-0.3-0.8-1-1.4-1.9-1.4c-2.1,0-3.1,3.3-3.1,5.8c0,1.6,0.3,2.7,1.6,2.7c1.2,0,2.6-1.6,3.3-2.6
			L176.3,55.8z"/>
		<path class="st7" d="M186.8,56.8c-0.5,0.6-1.8,2.3-3.1,2.3c-0.5,0-0.8-0.3-0.8-0.9c0-0.5,0.3-2.1,0.4-2.5l0,0
			c-0.9,1.3-2.6,3.5-4.7,3.5c-0.9,0-1.4-1-1.4-2c0-4.1,3.8-8.4,7.2-8.4c0.6,0,1,0,1.6,0.1l-0.8,4c-0.3,1.5-0.7,4.1-0.7,4.6
			c0,0.2,0,0.4,0.3,0.4c0.4,0,1.2-1,1.4-1.4L186.8,56.8z M184.4,49.7c-0.2-0.1-0.6-0.2-1-0.2c-2,0-4.2,3.6-4.2,7
			c0,1.1,0.4,1.6,0.8,1.6c1.3,0,3.4-3.1,4-6L184.4,49.7z"/>
		<path class="st7" d="M192.2,56.8c-0.5,0.6-1.8,2.3-3.1,2.3c-0.5,0-0.7-0.3-0.7-0.9c0-0.3,0.1-1.3,0.2-1.5l2-10.5
			c0.1-0.4,0.2-0.9,0.2-1.2c0-0.3-0.1-0.5-0.3-0.5c-0.3,0-1,0.3-1.4,0.5l-0.2-0.5c0.6-0.4,2.4-1.3,3.1-1.3c0.4,0,0.6,0.2,0.6,0.6
			c0,0.2-0.1,0.8-0.2,1.4l-2,11c-0.1,0.5-0.2,1-0.2,1.1c0,0.2,0,0.4,0.3,0.4c0.4,0,1.2-1,1.4-1.4L192.2,56.8z"/>
		<path class="st7" d="M198.2,58.3l0.6,0c0.2,0,0.4-0.1,0.6-0.3c0.5-0.4,1.7-2.9,2.8-4.8l1.8-3.2c1-1.8,2.1-3.7,3.1-5.6
			c0.1-0.1,0.4-0.2,0.6-0.2l2.9,13c0.2,0.9,0.3,1,1,1.1l0.5,0.1l-0.1,0.5h-5.1l0.1-0.5l1.2-0.2c0.3,0,0.6-0.1,0.6-0.4
			c0-0.1,0-0.3-0.1-0.4l-0.9-4.3c-0.8-0.2-1.5-0.2-2.3-0.2c-0.8,0-1.6,0-2.4,0.2c-0.5,0.9-2.2,4-2.2,4.7c0,0.2,0.3,0.3,0.5,0.3
			l1.1,0.2l-0.1,0.5h-4.4L198.2,58.3z M203.6,52.4c0.6-0.1,1.3-0.1,2-0.1c0.7,0,1.3,0,2,0.1l-1.2-5.3L203.6,52.4z"/>
		<path class="st7" d="M217.8,50.7c-0.2-0.4-0.8-1.2-1.7-1.2c-0.7,0-1.1,0.6-1.1,1.1c0,1.9,3.2,2.3,3.2,5.2c0,1.9-1.6,3.3-3.8,3.3
			c-1.3,0-2-0.5-2.4-1.2c0.1-0.6,0.6-1.1,1-1.3h0.2c0.4,0.7,1.1,1.6,2.3,1.6c0.7,0,1.3-0.6,1.3-1.4c0-2.3-3.2-2.5-3.2-5.1
			c0-1.8,1.6-3.2,3.2-3.2c0.8,0,1.6,0.3,1.9,0.8c-0.1,0.4-0.3,0.8-0.8,1.2H217.8z"/>
		<path class="st7" d="M225,50.7c-0.2-0.4-0.8-1.2-1.7-1.2c-0.7,0-1.1,0.6-1.1,1.1c0,1.9,3.2,2.3,3.2,5.2c0,1.9-1.6,3.3-3.8,3.3
			c-1.3,0-2-0.5-2.4-1.2c0.1-0.6,0.6-1.1,1-1.3h0.2c0.4,0.7,1.1,1.6,2.3,1.6c0.7,0,1.3-0.6,1.3-1.4c0-2.3-3.2-2.5-3.2-5.1
			c0-1.8,1.6-3.2,3.2-3.2c0.8,0,1.6,0.3,1.9,0.8c-0.1,0.4-0.3,0.8-0.8,1.2H225z"/>
		<path class="st7" d="M227.1,55.5c0-3.5,2.6-6.9,5.7-6.9c1.5,0,2.7,0.9,2.7,3.2c0,3.7-2.7,7.2-5.7,7.2
			C228,59.1,227.1,57.9,227.1,55.5z M230.8,58.2c1.8,0,2.8-3.1,2.8-5.6c0-2.1-0.4-3.1-1.6-3.1c-1.9,0-3,2.6-3,5.8
			C229,57,229.5,58.2,230.8,58.2z"/>
		<path class="st7" d="M243.9,55.8c-0.7,1.1-2.2,3.3-4.9,3.3c-1.5,0-2.3-1.2-2.3-2.9c0-4.8,3.3-7.6,6.2-7.6c0.4,0,1.3,0.1,1.7,0.8
			c-0.2,0.6-0.4,1-0.8,1.4h-0.2c-0.3-0.8-1-1.4-1.9-1.4c-2.1,0-3.1,3.3-3.1,5.8c0,1.6,0.3,2.7,1.6,2.7c1.2,0,2.6-1.6,3.3-2.6
			L243.9,55.8z"/>
		<path class="st7" d="M249.8,56.8c-0.5,0.6-1.8,2.3-3.1,2.3c-0.5,0-0.7-0.3-0.7-0.9c0-0.3,0.1-1.3,0.2-1.5l1.2-6.3
			c0-0.2,0-0.4-0.3-0.4c-0.4,0-1.2,1-1.4,1.4l-0.4-0.5c0.5-0.6,2-2.2,3.3-2.2c0.4,0,0.6,0.3,0.6,0.7c0,0.2-0.2,1.2-0.2,1.6l-1,5.4
			c-0.1,0.5-0.2,1-0.2,1.1c0,0.2,0,0.4,0.3,0.4c0.4,0,1.2-1,1.4-1.4L249.8,56.8z M248,45.4c0-0.6,0.5-1.2,1.2-1.2
			c0.5,0,0.9,0.3,0.9,0.9c0,0.6-0.5,1.2-1.3,1.2C248.3,46.3,248,46,248,45.4z"/>
		<path class="st7" d="M260.4,56.8c-0.5,0.6-1.8,2.3-3.1,2.3c-0.5,0-0.8-0.3-0.8-0.9c0-0.5,0.3-2.1,0.4-2.5l0,0
			c-0.9,1.3-2.6,3.5-4.7,3.5c-0.9,0-1.4-1-1.4-2c0-4.1,3.8-8.4,7.2-8.4c0.6,0,1,0,1.6,0.1l-0.8,4c-0.3,1.5-0.7,4.1-0.7,4.6
			c0,0.2,0,0.4,0.3,0.4c0.4,0,1.2-1,1.4-1.4L260.4,56.8z M257.9,49.7c-0.2-0.1-0.6-0.2-1-0.2c-2,0-4.2,3.6-4.2,7
			c0,1.1,0.4,1.6,0.8,1.6c1.3,0,3.4-3.1,4-6L257.9,49.7z"/>
		<path class="st7" d="M267,56.7c-0.7,1-2.1,2.4-3.5,2.4c-0.8,0-1.3-0.5-1.3-1.4c0-0.4,0.3-1.9,0.3-2.3l1-5.7c-0.5,0-1,0-1.6-0.2
			l0.1-0.4c0.3-0.1,1.5-0.2,1.7-0.2l0.2-0.8c0.6-0.6,1.1-1.1,1.9-1.6h0.3c-0.3,0.8-0.5,1.6-0.7,2.4c0.7,0,1.8,0.1,2.5,0.2l-0.1,0.4
			c-0.6,0.1-1.9,0.1-2.6,0.2l-1.1,5.8c-0.1,0.6-0.2,1-0.2,1.4c0,0.5,0,1.1,0.6,1.1c0.8,0,1.7-1.2,2.1-1.8L267,56.7z"/>
		<path class="st7" d="M275.3,55.7c-0.4,1-2.5,3.4-4.9,3.4c-1.9,0-2.6-1.1-2.6-3c0-4.4,3.5-7.4,6-7.4c1.2,0,2.1,0.6,2.1,1.6
			c0,2.8-4.9,4.5-6.2,5c0,1,0.3,2.8,1.6,2.8c1.6,0,3.1-2,3.5-2.6L275.3,55.7z M269.7,54.6c1.3-0.5,4.4-1.9,4.4-4.1
			c0-0.8-0.6-1-1.1-1C271.1,49.5,269.8,52.7,269.7,54.6z"/>
		<path class="st7" d="M281.7,50.7c-0.2-0.4-0.8-1.2-1.7-1.2c-0.7,0-1.1,0.6-1.1,1.1c0,1.9,3.2,2.3,3.2,5.2c0,1.9-1.6,3.3-3.8,3.3
			c-1.3,0-2-0.5-2.4-1.2c0.1-0.6,0.6-1.1,1-1.3h0.2c0.4,0.7,1.1,1.6,2.3,1.6c0.7,0,1.3-0.6,1.3-1.4c0-2.3-3.2-2.5-3.2-5.1
			c0-1.8,1.6-3.2,3.2-3.2c0.8,0,1.6,0.3,1.9,0.8c-0.1,0.4-0.3,0.8-0.8,1.2H281.7z"/>
		<path class="st7" d="M282.5,61.5c0.3-0.6,1.6-4.2,1.7-5c0.6-0.3,1.1-0.4,1.9-0.5c0,1.1-1.7,3.9-2.4,5.1L282.5,61.5z"/>
		<path class="st7" d="M294.6,58.3l0.9-0.1c0.6-0.1,0.8-0.7,0.9-1.7l1.5-9.6c0.1-0.4,0.1-1,0.1-1.1c0-0.3,0-0.6-0.5-0.7l-0.9-0.1
			l0.1-0.5h5.4c2.2,0,4.8,0.7,4.8,3.5c0,3.4-3.6,4.7-6,4.7h-0.5l0.1-0.5c1.8,0,4.2-0.9,4.2-4.1c0-2-1.3-2.9-3-2.9
			c-0.6,0-1.2,0.1-1.7,0.2l-1.8,11.4c0,0.3-0.1,0.6-0.1,0.9c0,0.4,0.3,0.5,0.7,0.6l1.2,0.1l-0.1,0.5h-5.5L294.6,58.3z"/>
		<path class="st7" d="M305.6,58c0-0.7,0.5-1.2,1.3-1.2c0.5,0,1,0.3,1,1.1c0,0.7-0.5,1.2-1.3,1.2C306.1,59.1,305.6,58.8,305.6,58z"
			/>
		<path class="st7" d="M324.1,54.8c-0.2,1.1-0.6,2.6-1.3,3.4c-0.4,0.3-2.6,0.9-4.1,0.9c-4.1,0-7.1-1.8-7.1-6.2
			c0-5.1,3.5-8.7,8.9-8.7c2.5,0,3.7,0.5,4.4,1c0,1.2-0.1,2.4-0.2,3.1l-0.5,0.1c0-0.6-0.2-1.9-0.7-2.6c-0.5-0.5-1.7-0.9-2.9-0.9
			c-4.6,0-6.7,3.5-6.7,7.9c0,3.2,1.5,5.7,4.9,5.7c3.3,0,4.5-2.6,5-3.7L324.1,54.8z"/>
		<path class="st7" d="M326,58c0-0.7,0.5-1.2,1.3-1.2c0.5,0,1,0.3,1,1.1c0,0.7-0.5,1.2-1.3,1.2C326.5,59.1,326,58.8,326,58z"/>
	</g>
</g>
</svg>
