<?xml version="1.0" encoding="utf-8"?>
<!-- Generator: Adobe Illustrator 23.1.1, SVG Export Plug-In . SVG Version: 6.00 Build 0)  -->
<svg version="1.1" id="Layer_1" xmlns="http://www.w3.org/2000/svg" xmlns:xlink="http://www.w3.org/1999/xlink" x="0px" y="0px"
	 viewBox="0 0 463 175.4" style="enable-background:new 0 0 463 175.4;" xml:space="preserve">
<style type="text/css">
	.st0{fill:#000000;}
</style>
<g>
	<g>
		<path class="st0" d="M202.2,60.3v-0.1c0-10.8,8.5-19.7,20.3-19.7c11.7,0,20.1,8.7,20.1,19.5v0.1c0,10.8-8.5,19.7-20.3,19.7
			C210.6,79.8,202.2,71.1,202.2,60.3z M233.8,60.3v-0.1c0-6.5-4.8-11.9-11.5-11.9s-11.4,5.3-11.4,11.8v0.1c0,6.5,4.8,11.9,11.5,11.9
			S233.8,66.8,233.8,60.3z"/>
		<path class="st0" d="M249.6,50.1h8.3v4.1c1.9-2.4,4.4-4.7,8.6-4.7c3.8,0,6.7,1.7,8.2,4.6c2.6-3,5.6-4.6,9.6-4.6
			c6.1,0,9.8,3.7,9.8,10.7v19h-8.3V63c0-3.9-1.7-5.9-4.8-5.9s-5,2-5,5.9v16.2h-8.3V63c0-3.9-1.7-5.9-4.8-5.9c-3.1,0-5,2-5,5.9v16.2
			h-8.3L249.6,50.1L249.6,50.1z"/>
		<path class="st0" d="M301.7,50.1h8.3v4.1c1.9-2.4,4.3-4.7,8.5-4.7c6.2,0,9.9,4.1,9.9,10.8v18.8h-8.3V62.9c0-3.9-1.8-5.9-5-5.9
			s-5.2,2-5.2,5.9v16.2h-8.3v-29H301.7z"/>
		<path class="st0" d="M335.8,39.5h8.7v7.3h-8.7V39.5z M336,50.1h8.3v29.1H336V50.1z"/>
		<path class="st0" d="M369.7,41.2h28.7v7.4H378v7.7h17.9v7.4H378v8h20.6v7.4h-28.9L369.7,41.2L369.7,41.2z"/>
		<path class="st0" d="M423.9,50.1h8.6l-11.2,29.8c-2.2,5.9-4.6,8.1-9.6,8.1c-3,0-5.2-0.8-7.3-2l2.8-6c1.1,0.7,2.4,1.1,3.5,1.1
			c1.4,0,2.2-0.4,2.9-1.9L402.2,50h8.7l6.6,19.8L423.9,50.1z"/>
		<path class="st0" d="M434.5,64.8v-0.1c0-8.3,5.9-15.1,14.4-15.1c9.7,0,14.2,7.5,14.2,15.8c0,0.7-0.1,1.4-0.1,2.2h-20.3
			c0.8,3.7,3.4,5.7,7.1,5.7c2.8,0,4.8-0.9,7.1-3l4.7,4.2c-2.7,3.4-6.6,5.4-11.9,5.4C441,79.8,434.5,73.7,434.5,64.8z M455,62.4
			c-0.5-3.7-2.7-6.2-6.1-6.2c-3.4,0-5.6,2.4-6.3,6.2H455z"/>
		<path class="st0" d="M201.2,128l4.9-5.9c3.4,2.8,7,4.6,11.3,4.6c3.4,0,5.5-1.4,5.5-3.6V123c0-2.1-1.3-3.2-7.7-4.8
			c-7.7-2-12.6-4.1-12.6-11.6v-0.1c0-6.9,5.5-11.5,13.3-11.5c5.5,0,10.3,1.7,14.1,4.8l-4.3,6.3c-3.4-2.3-6.7-3.7-9.9-3.7
			c-3.2,0-4.9,1.5-4.9,3.3v0.1c0,2.5,1.6,3.3,8.2,5c7.7,2,12.1,4.8,12.1,11.4v0.1c0,7.5-5.8,11.8-14,11.8
			C211.6,134,205.8,132,201.2,128z"/>
		<path class="st0" d="M236.3,119.1V119c0-8.3,5.9-15.1,14.4-15.1c9.7,0,14.2,7.5,14.2,15.8c0,0.7-0.1,1.4-0.1,2.2h-20.3
			c0.8,3.7,3.4,5.7,7.1,5.7c2.8,0,4.8-0.9,7.1-3l4.7,4.2c-2.7,3.4-6.6,5.4-11.9,5.4C242.8,134.1,236.3,128,236.3,119.1z
			 M256.9,116.7c-0.5-3.7-2.7-6.2-6.1-6.2s-5.6,2.4-6.3,6.2H256.9z"/>
		<path class="st0" d="M271.1,104.4h8.3v5.9c1.7-4,4.4-6.6,9.3-6.4v8.6h-0.4c-5.5,0-8.8,3.3-8.8,10.3v10.8h-8.3v-29.2H271.1z"/>
		<path class="st0" d="M292.1,104.4h8.7l6.5,19.5l6.6-19.5h8.6l-11.4,29.3h-7.5L292.1,104.4z"/>
		<path class="st0" d="M327.1,93.9h8.7v7.3h-8.7V93.9z M327.3,104.4h8.3v29.1h-8.3V104.4z"/>
		<path class="st0" d="M341.8,119.1V119c0-8.3,6.4-15.1,15.3-15.1c5.5,0,8.9,1.8,11.6,4.9l-5,5.4c-1.8-2-3.7-3.2-6.6-3.2
			c-4.1,0-7.1,3.6-7.1,7.9v0.1c0,4.5,2.9,8,7.4,8c2.8,0,4.7-1.2,6.7-3.1l4.8,4.9c-2.8,3.1-6.1,5.3-11.9,5.3
			C348.2,134.1,341.8,127.4,341.8,119.1z"/>
		<path class="st0" d="M372,119.1V119c0-8.3,5.9-15.1,14.4-15.1c9.7,0,14.2,7.5,14.2,15.8c0,0.7-0.1,1.4-0.1,2.2h-20.3
			c0.8,3.7,3.4,5.7,7.1,5.7c2.8,0,4.8-0.9,7.1-3l4.7,4.2c-2.7,3.4-6.6,5.4-11.9,5.4C378.4,134.1,372,128,372,119.1z M392.5,116.7
			c-0.5-3.7-2.7-6.2-6.1-6.2c-3.4,0-5.6,2.4-6.3,6.2H392.5z"/>
		<path class="st0" d="M404.2,129.6l3.5-5.4c3.1,2.3,6.5,3.5,9.2,3.5c2.4,0,3.5-0.9,3.5-2.2v-0.1c0-1.8-2.8-2.4-6-3.4
			c-4.1-1.2-8.7-3.1-8.7-8.7v-0.1c0-5.9,4.8-9.2,10.6-9.2c3.7,0,7.7,1.2,10.9,3.4l-3.1,5.7c-2.9-1.7-5.8-2.7-7.9-2.7c-2,0-3,0.9-3,2
			v0.1c0,1.6,2.8,2.4,5.9,3.5c4.1,1.4,8.8,3.3,8.8,8.6v0.1c0,6.5-4.8,9.4-11.1,9.4C412.6,134,408,132.7,404.2,129.6z"/>
	</g>
	<path class="st0" d="M88.1,0C39.4,0,0,39.4,0,88.1s39.4,88.1,88.1,88.1s88.1-39.4,88.1-88.1C176.2,39.5,136.7,0,88.1,0z
		 M138.1,91.4c-2.2-25.3-16.4-53.8-50.1-53.8c-33.5,0-47.8,28.3-50,53.6c2.2,25.3,16.5,53.6,50,53.6v1.5
		c-35.8,0-65.8-20.7-71.4-54.8v-0.4c5.6-34.2,35.6-61,71.4-61c36,0,66.1,27,71.5,61.4h-21.4V91.4z"/>
</g>
</svg>
