<?xml version="1.0" encoding="utf-8"?>
<!-- Generator: Adobe Illustrator 22.1.0, SVG Export Plug-In . SVG Version: 6.00 Build 0)  -->
<svg version="1.1" id="Layer_1" xmlns="http://www.w3.org/2000/svg" xmlns:xlink="http://www.w3.org/1999/xlink" x="0px" y="0px"
	 viewBox="0 0 428.1 122.9" style="enable-background:new 0 0 428.1 122.9;" xml:space="preserve">
<style type="text/css">
	.st0{fill:#000000;}
</style>
<g>
	<g>
		<g>
			<g>
				<polygon class="st0" points="328,1.4 292.3,1.4 292.3,70 380.2,70 380.2,55.7 328,55.7 				"/>
				<rect x="392.4" y="1.4" class="st0" width="35.7" height="68.6"/>
				<path class="st0" d="M213.7,59.3c-13,0-23.6-10.6-23.6-23.6s10.6-23.6,23.6-23.6c11.2,0,20.5,7.8,23,18.2h44.2
					C275.9,13.2,247.7,0,213.7,0c-37.5,0-67.9,16-67.9,35.7s30.4,35.7,67.9,35.7c34,0,62.2-13.2,67.1-30.4h-44.2
					C234.2,51.5,224.9,59.3,213.7,59.3z"/>
				<path class="st0" d="M67.9,0C30.4,0,0,16,0,35.7s30.4,35.7,67.9,35.7s67.9-16,67.9-35.7S105.4,0,67.9,0z M67.9,59.3
					c-13,0-23.6-10.6-23.6-23.6s10.6-23.6,23.6-23.6s23.6,10.6,23.6,23.6S80.9,59.3,67.9,59.3z"/>
			</g>
		</g>
	</g>
	<g>
		<path class="st0" d="M14.1,96.8h5.1l7,17.5l7-17.5h5.1L28,122.5h-3.5L14.1,96.8z"/>
		<path class="st0" d="M100.4,96.8h5v25.7h-5V96.8z"/>
		<path class="st0" d="M170.5,115.6c1.5,1.6,3.7,2.8,6.1,2.8c2.2,0,3.7-1.4,3.7-3.2c0-3.3-4.8-3.7-8.2-5.7c-2-1.2-3.6-2.9-3.6-5.8
			c0-4.6,4.2-7.2,8.5-7.2c2.6,0,5,0.6,7.4,2.4l-2.6,3.7c-1-1-2.8-1.7-4.4-1.7c-1.9,0-4,0.8-4,2.8c0,4.1,11.8,2.9,11.8,11.5
			c0,4.5-4.1,7.7-8.7,7.7c-3.4,0-6.6-1.4-9.3-3.9L170.5,115.6z"/>
		<path class="st0" d="M248.2,96.8h5v25.7h-5V96.8z"/>
		<path class="st0" d="M329.2,96.5c7.9,0,13.4,5.9,13.4,13.2c0,7.3-5.5,13.2-13.4,13.2s-13.4-5.9-13.4-13.2
			C315.9,102.4,321.3,96.5,329.2,96.5z M329.2,118.5c4.8,0,8.4-4,8.4-8.8s-3.6-8.8-8.4-8.8s-8.4,4-8.4,8.8S324.4,118.5,329.2,118.5z
			"/>
		<path class="st0" d="M405.4,96.8h3.5l14.3,16.7V96.8h5v25.7h-3.5l-14.3-16.7v16.7h-5V96.8z"/>
	</g>
</g>
</svg>
