<?xml version="1.0" encoding="UTF-8"?><svg id="a" xmlns="http://www.w3.org/2000/svg" viewBox="0 0 550 110"><g><path d="M55.4779,77.6717v-.04c0-3.9404,3.04-7.2412,7.3418-7.2412s7.3018,3.2607,7.3018,7.2021v.0391c0,3.9414-3.041,7.2422-7.3418,7.2422s-7.3018-3.2607-7.3018-7.2021Zm12.0625,0v-.04c0-2.7197-1.9805-4.9805-4.7607-4.9805s-4.7207,2.2207-4.7207,4.9414v.0391c0,2.7207,1.9805,4.9814,4.7607,4.9814s4.7207-2.2207,4.7207-4.9414Z" style="fill:#003865;"/><path d="M72.7182,74.0711h2.4209v2.3809c.6602-1.5801,1.8799-2.6611,3.7402-2.5811v2.5605h-.1406c-2.1191,0-3.5996,1.3809-3.5996,4.1816v4.0205h-2.4209v-10.5625Z" style="fill:#003865;"/><path d="M81.018,70.0301h2.4199v14.6035h-2.4199v-14.6035Z" style="fill:#003865;"/><path d="M92.9594,84.6336v-1.2998c-.7207,.8594-1.8203,1.5195-3.4209,1.5195-2.001,0-3.7607-1.1396-3.7607-3.2607v-.04c0-2.3398,1.8203-3.46,4.2812-3.46,1.2793,0,2.0996,.1797,2.9199,.4395v-.2002c0-1.46-.9199-2.2598-2.5996-2.2598-1.1816,0-2.0605,.2598-3.0215,.6602l-.6602-1.9404c1.1602-.5205,2.3008-.8809,4.0215-.8809,3.1201,0,4.6406,1.6406,4.6406,4.4609v6.2617h-2.4004Zm.0596-4.4209c-.6201-.2402-1.4795-.4199-2.4209-.4199-1.5195,0-2.4199,.6201-2.4199,1.6396v.04c0,1.001,.9004,1.5605,2.041,1.5605,1.5996,0,2.7998-.9004,2.7998-2.2207v-.5996Z" style="fill:#003865;"/><path d="M98.1371,74.0711h2.4209v1.6406c.6807-1,1.6602-1.8604,3.3008-1.8604,2.3799,0,3.7607,1.6006,3.7607,4.0605v6.7217h-2.4199v-6.001c0-1.6406-.8203-2.5811-2.2617-2.5811-1.4004,0-2.3799,.9805-2.3799,2.6211v5.9609h-2.4209v-10.5625Z" style="fill:#003865;"/><path d="M109.8969,79.3729v-.04c0-3.501,2.3809-5.4814,4.9014-5.4814,1.7402,0,2.8408,.8799,3.6006,1.8604v-5.6816h2.4199v14.6035h-2.4199v-1.7607c-.7803,1.1006-1.8809,1.9805-3.6006,1.9805-2.4805,0-4.9014-1.9805-4.9014-5.4805Zm8.542,0v-.04c0-2.041-1.4404-3.3809-3.0605-3.3809-1.6602,0-3.04,1.2803-3.04,3.3809v.04c0,2.04,1.3994,3.3799,3.04,3.3799,1.6201,0,3.0605-1.3594,3.0605-3.3799Z" style="fill:#003865;"/><path d="M123.1566,79.4129v-.04c0-3.0215,2.4004-5.5215,5.6416-5.5215s5.6211,2.46,5.6211,5.4814v.04c0,3-2.4004,5.501-5.6611,5.501-3.2207,0-5.6016-2.4609-5.6016-5.4609Zm8.8418,0v-.04c0-1.8604-1.3398-3.4014-3.2402-3.4014-1.9404,0-3.1807,1.5205-3.1807,3.3613v.04c0,1.8398,1.3408,3.4004,3.2207,3.4004,1.96,0,3.2002-1.54,3.2002-3.3604Z" style="fill:#003865;"/><path d="M142.3363,77.6717v-.04c0-3.9805,2.9814-7.2412,7.2227-7.2412,2.5801,0,4.1406,.9004,5.4805,2.1807l-1.5801,1.8203c-1.1201-1.04-2.3203-1.7402-3.9209-1.7402-2.6807,0-4.6211,2.2002-4.6211,4.9414v.0391c0,2.7412,1.9404,4.9814,4.6211,4.9814,1.7197,0,2.8203-.7002,4.0205-1.8203l1.5801,1.6006c-1.46,1.5205-3.0605,2.4805-5.6807,2.4805-4.0811,0-7.1221-3.1807-7.1221-7.2021Z" style="fill:#003865;"/><path d="M156.7563,79.3924v-.04c0-3.0205,2.1406-5.501,5.1611-5.501,3.3604,0,5.0615,2.6406,5.0615,5.6807,0,.2207-.0195,.4404-.04,.6807h-7.7617c.2598,1.7207,1.4795,2.6807,3.04,2.6807,1.1807,0,2.0215-.4404,2.8613-1.2607l1.4199,1.2607c-1,1.2002-2.3809,1.9805-4.3203,1.9805-3.0605,0-5.4219-2.2207-5.4219-5.4814Zm7.8223-.7803c-.1602-1.5605-1.0801-2.7803-2.6807-2.7803-1.4805,0-2.5205,1.1396-2.7412,2.7803h5.4219Z" style="fill:#003865;"/><path d="M169.3168,74.0711h2.4199v1.6406c.6797-1,1.6602-1.8604,3.3008-1.8604,2.3809,0,3.7607,1.6006,3.7607,4.0605v6.7217h-2.4209v-6.001c0-1.6406-.8203-2.5811-2.2598-2.5811-1.4004,0-2.3809,.9805-2.3809,2.6211v5.9609h-2.4199v-10.5625Z" style="fill:#003865;"/><path d="M182.1156,81.7127v-5.5605h-1.3398v-2.0811h1.3398v-2.9004h2.4209v2.9004h2.8408v2.0811h-2.8408v5.1807c0,.9404,.4795,1.3203,1.2998,1.3203,.541,0,1.0205-.1201,1.501-.3604v1.9805c-.6006,.3408-1.2803,.54-2.1807,.54-1.7803,0-3.041-.7803-3.041-3.1006Z" style="fill:#003865;"/><path d="M189.1352,79.3924v-.04c0-3.0205,2.1406-5.501,5.1611-5.501,3.3604,0,5.0615,2.6406,5.0615,5.6807,0,.2207-.0195,.4404-.04,.6807h-7.7617c.2598,1.7207,1.4795,2.6807,3.04,2.6807,1.1807,0,2.0215-.4404,2.8613-1.2607l1.4199,1.2607c-1,1.2002-2.3809,1.9805-4.3203,1.9805-3.0605,0-5.4219-2.2207-5.4219-5.4814Zm7.8223-.7803c-.1602-1.5605-1.0801-2.7803-2.6807-2.7803-1.4805,0-2.5205,1.1396-2.7412,2.7803h5.4219Z" style="fill:#003865;"/><path d="M201.6957,74.0711h2.4199v2.3809c.6602-1.5801,1.8809-2.6611,3.7412-2.5811v2.5605h-.1396c-2.1211,0-3.6016,1.3809-3.6016,4.1816v4.0205h-2.4199v-10.5625Z" style="fill:#003865;"/><path d="M216.2953,76.1522h-1.3398v-2.0205h1.3398v-.7607c0-1.1797,.2998-2.0605,.8594-2.6201,.5605-.5605,1.3408-.8398,2.3809-.8398,.8398,0,1.4209,.1191,1.9609,.2793v2.041c-.4805-.1602-.9004-.2607-1.4199-.2607-.9209,0-1.4004,.501-1.4004,1.6006v.5801h2.8008v2.001h-2.7617v8.4814h-2.4199v-8.4814Z" style="fill:#003865;"/><path d="M222.5951,79.4129v-.04c0-3.0215,2.4004-5.5215,5.6416-5.5215s5.6211,2.46,5.6211,5.4814v.04c0,3-2.4004,5.501-5.6621,5.501-3.2207,0-5.6006-2.4609-5.6006-5.4609Zm8.8418,0v-.04c0-1.8604-1.3408-3.4014-3.2412-3.4014-1.9395,0-3.1797,1.5205-3.1797,3.3613v.04c0,1.8398,1.3398,3.4004,3.2207,3.4004,1.96,0,3.2002-1.54,3.2002-3.3604Z" style="fill:#003865;"/><path d="M236.2152,74.0711h2.4199v2.3809c.6602-1.5801,1.8809-2.6611,3.7412-2.5811v2.5605h-.1396c-2.1211,0-3.6016,1.3809-3.6016,4.1816v4.0205h-2.4199v-10.5625Z" style="fill:#003865;"/><path d="M249.935,77.6717v-.04c0-3.9404,3.04-7.2412,7.3418-7.2412s7.3018,3.2607,7.3018,7.2021v.0391c0,3.9414-3.041,7.2422-7.3418,7.2422s-7.3018-3.2607-7.3018-7.2021Zm12.0625,0v-.04c0-2.7197-1.9805-4.9805-4.7607-4.9805s-4.7207,2.2207-4.7207,4.9414v.0391c0,2.7207,1.9805,4.9814,4.7607,4.9814s4.7207-2.2207,4.7207-4.9414Z" style="fill:#003865;"/><path d="M267.0551,80.7928v-6.7217h2.4199v6.002c0,1.6396,.8203,2.5801,2.2607,2.5801,1.4004,0,2.3809-.9805,2.3809-2.6201v-5.9619h2.4209v10.5625h-2.4209v-1.6406c-.6807,1-1.6611,1.8604-3.3008,1.8604-2.3799,0-3.7607-1.5996-3.7607-4.0605Z" style="fill:#003865;"/><path d="M279.975,81.7127v-5.5605h-1.3398v-2.0811h1.3398v-2.9004h2.4199v2.9004h2.8418v2.0811h-2.8418v5.1807c0,.9404,.4805,1.3203,1.3008,1.3203,.54,0,1.0195-.1201,1.5-.3604v1.9805c-.5996,.3408-1.2793,.54-2.1797,.54-1.7812,0-3.041-.7803-3.041-3.1006Z" style="fill:#003865;"/><path d="M287.5746,74.0711h2.4199v1.7607c.7812-1.1006,1.8809-1.9805,3.5811-1.9805,2.501,0,4.9209,1.9805,4.9209,5.4814v.04c0,3.5-2.4004,5.4805-4.9209,5.4805-1.7402,0-2.8408-.8799-3.5811-1.8604v4.8418h-2.4199v-13.7637Zm8.4609,5.3018v-.04c0-2.041-1.3789-3.3809-3.0195-3.3809s-3.0811,1.3604-3.0811,3.3809v.04c0,2.04,1.4404,3.3799,3.0811,3.3799,1.6602,0,3.0195-1.2998,3.0195-3.3799Z" style="fill:#003865;"/><path d="M307.3363,84.6336v-1.2998c-.7207,.8594-1.8203,1.5195-3.4209,1.5195-2,0-3.7607-1.1396-3.7607-3.2607v-.04c0-2.3398,1.8203-3.46,4.2812-3.46,1.2803,0,2.0996,.1797,2.9199,.4395v-.2002c0-1.46-.9199-2.2598-2.6006-2.2598-1.1797,0-2.0605,.2598-3.0205,.6602l-.6602-1.9404c1.1602-.5205,2.3008-.8809,4.0215-.8809,3.1201,0,4.6406,1.6406,4.6406,4.4609v6.2617h-2.4004Zm.0596-4.4209c-.6201-.2402-1.4805-.4199-2.4199-.4199-1.5205,0-2.4209,.6201-2.4209,1.6396v.04c0,1.001,.9004,1.5605,2.04,1.5605,1.6006,0,2.8008-.9004,2.8008-2.2207v-.5996Z" style="fill:#003865;"/><path d="M313.0141,81.7127v-5.5605h-1.3408v-2.0811h1.3408v-2.9004h2.4209v2.9004h2.8398v2.0811h-2.8398v5.1807c0,.9404,.4795,1.3203,1.2998,1.3203,.54,0,1.0205-.1201,1.5-.3604v1.9805c-.5996,.3408-1.2803,.54-2.1797,.54-1.7812,0-3.041-.7803-3.041-3.1006Z" style="fill:#003865;"/><path d="M320.6547,70.1502h2.6006v2.3008h-2.6006v-2.3008Zm.0996,3.9209h2.4209v10.5625h-2.4209v-10.5625Z" style="fill:#003865;"/><path d="M325.6547,79.3924v-.04c0-3.0205,2.1406-5.501,5.1611-5.501,3.3604,0,5.0605,2.6406,5.0605,5.6807,0,.2207-.0195,.4404-.04,.6807h-7.7617c.2607,1.7207,1.4805,2.6807,3.041,2.6807,1.1807,0,2.0205-.4404,2.8604-1.2607l1.4209,1.2607c-1.001,1.2002-2.3809,1.9805-4.3213,1.9805-3.0605,0-5.4209-2.2207-5.4209-5.4814Zm7.8213-.7803c-.1602-1.5605-1.0801-2.7803-2.6807-2.7803-1.4805,0-2.5205,1.1396-2.7402,2.7803h5.4209Z" style="fill:#003865;"/><path d="M338.2143,74.0711h2.4199v1.6406c.6807-1,1.6611-1.8604,3.3008-1.8604,2.3809,0,3.7607,1.6006,3.7607,4.0605v6.7217h-2.4199v-6.001c0-1.6406-.8203-2.5811-2.2607-2.5811-1.4004,0-2.3809,.9805-2.3809,2.6211v5.9609h-2.4199v-10.5625Z" style="fill:#003865;"/><path d="M351.015,81.7127v-5.5605h-1.3408v-2.0811h1.3408v-2.9004h2.4209v2.9004h2.8398v2.0811h-2.8398v5.1807c0,.9404,.4795,1.3203,1.2998,1.3203,.54,0,1.0205-.1201,1.5-.3604v1.9805c-.5996,.3408-1.2803,.54-2.1797,.54-1.7812,0-3.041-.7803-3.041-3.1006Z" style="fill:#003865;"/><path d="M363.8549,82.5936l1.4805-1.7607c1.3398,1.1602,2.6807,1.8203,4.4209,1.8203,1.5205,0,2.4805-.7002,2.4805-1.7607v-.04c0-1-.5605-1.54-3.1611-2.1396-2.9805-.7207-4.6611-1.6006-4.6611-4.1816v-.04c0-2.4004,2.001-4.0605,4.7812-4.0605,2.041,0,3.6611,.6201,5.0811,1.7607l-1.3203,1.8604c-1.2598-.9404-2.5205-1.4404-3.8008-1.4404-1.4404,0-2.2803,.7402-2.2803,1.6602v.04c0,1.0801,.6396,1.5605,3.3203,2.2002,2.9609,.7207,4.501,1.7803,4.501,4.1016v.04c0,2.6201-2.0605,4.1807-5.001,4.1807-2.1406,0-4.1602-.7402-5.8408-2.2402Z" style="fill:#003865;"/><path d="M377.0951,80.7928v-6.7217h2.4209v6.002c0,1.6396,.8193,2.5801,2.2598,2.5801,1.4004,0,2.3809-.9805,2.3809-2.6201v-5.9619h2.4209v10.5625h-2.4209v-1.6406c-.6807,1-1.6602,1.8604-3.3008,1.8604-2.3809,0-3.7607-1.5996-3.7607-4.0605Z" style="fill:#003865;"/><path d="M389.515,74.0711h2.4199v2.3809c.6602-1.5801,1.8809-2.6611,3.7412-2.5811v2.5605h-.1396c-2.1211,0-3.6016,1.3809-3.6016,4.1816v4.0205h-2.4199v-10.5625Z" style="fill:#003865;"/><path d="M397.6547,86.6141l.9004-1.8203c1.1201,.7002,2.3203,1.1201,3.7607,1.1201,2.1602,0,3.3408-1.1201,3.3408-3.2402v-.8203c-.8799,1.1396-1.9805,1.9404-3.7207,1.9404-2.4805,0-4.8008-1.8408-4.8008-4.9414v-.04c0-3.1211,2.3398-4.9609,4.8008-4.9609,1.7803,0,2.8809,.8203,3.7012,1.8008v-1.5811h2.4199v8.4023c0,1.7803-.46,3.1006-1.3398,3.9805-.96,.96-2.4404,1.4199-4.3408,1.4199-1.7402,0-3.3613-.4395-4.7217-1.2598Zm8.0225-7.7617v-.04c0-1.7402-1.4209-2.9209-3.1016-2.9209-1.6797,0-3,1.1602-3,2.9014v.04c0,1.7402,1.3398,2.9199,3,2.9199,1.6807,0,3.1016-1.2002,3.1016-2.9004Z" style="fill:#003865;"/><path d="M410.3949,79.3924v-.04c0-3.0205,2.1406-5.501,5.1611-5.501,3.3604,0,5.0605,2.6406,5.0605,5.6807,0,.2207-.0195,.4404-.04,.6807h-7.7617c.2607,1.7207,1.4805,2.6807,3.041,2.6807,1.1807,0,2.0205-.4404,2.8604-1.2607l1.4209,1.2607c-1.001,1.2002-2.3809,1.9805-4.3213,1.9805-3.0605,0-5.4209-2.2207-5.4209-5.4814Zm7.8213-.7803c-.1602-1.5605-1.0801-2.7803-2.6807-2.7803-1.4805,0-2.5205,1.1396-2.7402,2.7803h5.4209Z" style="fill:#003865;"/><path d="M422.9555,74.0711h2.4199v2.3809c.6602-1.5801,1.8809-2.6611,3.7412-2.5811v2.5605h-.1396c-2.1211,0-3.6016,1.3809-3.6016,4.1816v4.0205h-2.4199v-10.5625Z" style="fill:#003865;"/><path d="M430.7758,87.2537l.8193-1.7998c.4404,.2402,.9209,.4004,1.4209,.4004,.6797,0,1.0996-.3008,1.5-1.2207l-4.4004-10.5625h2.5801l3.001,7.8418,2.7402-7.8418h2.5205l-4.2012,10.8623c-.8398,2.1611-1.7803,2.9609-3.4805,2.9609-1.0205,0-1.7607-.2402-2.5-.6406Z" style="fill:#003865;"/></g><g id="b"><polygon id="c" points="38.239 40.6487 38.239 34.7646 52.9488 25.3459 52.9488 30.7775 38.239 40.6487" style="fill:#f78021;"/><polygon id="d" points="36.2518 41.9417 28 35.7761 28.0039 41.17 32.319 44.5843 36.2518 41.9417" style="fill:#f2b411;"/><polygon id="e" points="38.1822 44.1294 28.0222 50.976 28.0222 56.4071 38.1822 50.0135 38.1822 44.1294" style="fill:#42b8bf;"/><polygon id="f" points="39.9234 42.945 48.2131 49.1921 48.1701 43.761 43.8621 40.307 39.9234 42.945" style="fill:#003865;"/><path id="g" d="M67.8949,53.46c-.3077,.6594-.7363,1.2132-1.2863,1.661-.5504,.448-1.2069,.79-1.9694,1.026-.763,.2359-1.6085,.3541-2.5367,.3541-1.3031,0-2.5814-.224-3.8353-.6718-1.2542-.4475-2.3939-1.1359-3.4198-2.0641l2.2229-2.6627c.7817,.6351,1.5837,1.14,2.4062,1.5146,.8221,.3748,1.7222,.5619,2.6993,.5619,.7817,0,1.3882-.1425,1.8199-.4276,.4314-.2846,.6474-.6798,.6474-1.1848v-.0486c0-.2444-.045-.46-.1348-.6475-.0901-.187-.2615-.3622-.5144-.5251-.2531-.1627-.6043-.3257-1.0531-.4887-.4492-.1625-1.0329-.3335-1.7513-.513-.8657-.2114-1.6492-.4478-2.3516-.7083-.7022-.2603-1.2981-.5821-1.7878-.9649-.4901-.3826-.8696-.8589-1.1389-1.429-.2695-.5699-.4043-1.2784-.4043-2.1254v-.0489c0-.7817,.1455-1.4859,.4366-2.113,.2913-.6267,.6997-1.1684,1.2256-1.6244,.526-.4558,1.1539-.8062,1.884-1.0504,.7298-.2443,1.5348-.3664,2.4142-.3664,1.2539,0,2.4062,.1874,3.4566,.5619,1.0504,.3748,2.0153,.9122,2.8947,1.6121l-1.9542,2.8338c-.7657-.521-1.5145-.9321-2.2473-1.2337-.7329-.3011-1.4657-.4519-2.1986-.4519s-1.2824,.1428-1.6489,.4274c-.3664,.2853-.5496,.6395-.5496,1.0627v.0489c0,.277,.053,.5171,.1592,.7207,.106,.2038,.2977,.387,.5755,.5495,.2775,.1632,.6573,.3177,1.1391,.4643,.4816,.1464,1.0897,.3174,1.8248,.513,.8652,.2282,1.6366,.4848,2.3145,.7693,.6775,.2851,1.2489,.6271,1.7145,1.026,.4653,.3994,.8164,.8674,1.0531,1.4047,.2367,.5375,.3554,1.1809,.3554,1.9298v.0489c0,.8469-.1538,1.6-.461,2.2596Zm16.4858,1.3069c-.4726,.3748-.9893,.6961-1.5512,.9649-.5619,.2685-1.1768,.4724-1.8443,.6108-.6679,.1382-1.4168,.2075-2.2473,.2075-1.2542,0-2.4185-.2282-3.4932-.684-1.0748-.4558-2.0031-1.0787-2.7849-1.8687-.7816-.7898-1.3924-1.7221-1.832-2.7969-.4398-1.0748-.6595-2.2229-.6595-3.4444v-.0489c0-1.2213,.2198-2.3652,.6595-3.432,.4396-1.0666,1.0504-2.0031,1.832-2.8092,.7817-.8062,1.7181-1.4413,2.8092-1.9054,1.0909-.4642,2.2962-.6963,3.6154-.6963,.7977,0,1.5268,.0653,2.1863,.1954,.6595,.1305,1.258,.3095,1.7954,.5374,.5374,.2283,1.034,.505,1.4902,.8305,.4557,.3259,.8794,.684,1.2702,1.0748l-2.3939,2.7604c-.6679-.6025-1.3477-1.0748-2.0397-1.4168-.6924-.3422-1.4698-.5131-2.3328-.5131-.7168,0-1.3802,.1388-1.9909,.4153-.6108,.277-1.1359,.6596-1.5757,1.1481-.4396,.4887-.7816,1.0547-1.026,1.6978-.2442,.6436-.3664,1.3314-.3664,2.0641v.0489c0,.7329,.1222,1.4253,.3664,2.0765,.2443,.6516,.5821,1.2213,1.0138,1.7099,.4312,.4887,.9526,.8756,1.5634,1.1605,.6106,.2851,1.2824,.4274,2.0153,.4274,.9771,0,1.8034-.179,2.4794-.5373,.6756-.358,1.3474-.8467,2.0153-1.4657l2.394,2.4182c-.4398,.4726-.8958,.8958-1.3679,1.2704Zm16.342,1.49l-1.5634-3.8353h-7.2307l-1.5634,3.8353h-3.8352l7.3283-17.2217h3.4687l7.3284,17.2217h-3.9329Zm-5.1788-12.7025l-2.2718,5.5452h4.5436l-2.2718-5.5452Zm16.7115,5.0551v7.6949h-1.9298v-17.0995h1.9298v7.5972h9.8686v-7.5972h1.9298v17.0995h-1.9298v-7.6949h-9.8686Zm16.5619,3.8963c.2603,.5295,.5942,.9771,1.0014,1.3436,.4069,.3663,.8632,.6433,1.3682,.8304,.5045,.1875,1.034,.2809,1.5878,.2809,.8793,0,1.6323-.1625,2.2594-.4884,.6268-.3257,1.2008-.7574,1.7223-1.2947l1.1724,1.0503c-.6351,.7168-1.3599,1.2911-2.174,1.7223-.8146,.4312-1.824,.6472-3.029,.6472-.8635,0-1.6776-.1588-2.4428-.4762-.7657-.3177-1.4353-.7654-2.0089-1.3436-.574-.5779-1.0298-1.274-1.3679-2.0886-.3383-.8141-.5074-1.7099-.5074-2.687,0-.9119,.1506-1.771,.4519-2.577,.3011-.8063,.7207-1.5063,1.258-2.1008,.5375-.5945,1.1765-1.0627,1.9176-1.4047,.7409-.342,1.5511-.513,2.4306-.513,.9282,0,1.7588,.1751,2.4917,.5251,.7329,.3505,1.3516,.8267,1.8566,1.429,.5045,.6027,.8873,1.311,1.1481,2.1254,.2603,.8143,.3909,1.6854,.3909,2.6138v.2685c0,.0978-.0085,.2038-.0246,.3177h-9.991c.0649,.684,.2279,1.2908,.4887,1.8199Zm7.5971-3.2124c-.0489-.5696-.1661-1.1152-.3524-1.6365-.1861-.521-.4449-.9773-.7766-1.3679-.332-.3909-.7367-.7044-1.2142-.9406-.4777-.2359-1.032-.3541-1.6632-.3541-.5504,0-1.0605,.1099-1.5299,.3298-.4694,.2196-.882,.5212-1.238,.9036-.3563,.3828-.6475,.8348-.8742,1.3558-.2267,.5215-.3726,1.0914-.4371,1.7099h8.0857Zm6.979-3.8718c-.6108,.171-1.2093,.395-1.7955,.6718l-.5619-1.5389c.7-.3257,1.4083-.5821,2.1251-.7696,.7166-.187,1.5393-.2809,2.4675-.2809,1.726,0,3.0535,.4276,3.9817,1.2826s1.3925,2.1215,1.3925,3.7985v7.7192h-1.8077v-1.9055c-.4398,.5704-1.0303,1.0748-1.771,1.5146-.7414,.4398-1.6734,.6596-2.7972,.6596-.5863,0-1.1603-.0817-1.7222-.2444-.5619-.1625-1.0668-.4111-1.5146-.745-.448-.3335-.8061-.745-1.0748-1.2334-.2685-.4887-.403-1.0666-.403-1.7345s.1301-1.258,.3909-1.771c.2603-.513,.6309-.9406,1.1116-1.2826,.4801-.342,1.0503-.6022,1.7099-.7817,.6594-.179,1.3882-.2685,2.1863-.2685,.8143,0,1.5226,.0489,2.1254,.1464,.6022,.0978,1.1884,.2284,1.7588,.3909v-.4398c0-1.1395-.3298-1.9989-.9895-2.577-.6594-.5779-1.5839-.8671-2.7724-.8671-.7494,0-1.4294,.0854-2.0399,.2564Zm-.6018,5.191c-.6331,.4724-.9496,1.1157-.9496,1.9298,0,.4072,.0851,.7657,.2559,1.0748,.17,.3094,.4013,.574,.6937,.7939,.2921,.2199,.6288,.387,1.0104,.5006,.3815,.1143,.7833,.171,1.2056,.171,.584,0,1.1318-.0854,1.643-.2564,.5115-.171,.9578-.4069,1.3395-.7085,.3811-.3011,.6815-.6594,.9007-1.0746,.2192-.4154,.3286-.8754,.3286-1.3803v-1.2213c-.4709-.1301-1.0106-.2525-1.6189-.3666-.6088-.1136-1.3027-.171-2.0818-.171-1.1848,0-2.0941,.2364-2.727,.7085Zm11.5942,5.6916v-17.8323h1.8809v17.8323h-1.8809Zm8.4761-3.5908c0,.7817,.1953,1.3273,.5862,1.6367s.9038,.4641,1.5389,.4641c.3257,0,.6309-.0326,.916-.0978,.2848-.0649,.5901-.179,.9163-.342v1.6121c-.3262,.1795-.6718,.3138-1.0384,.4033-.3663,.0893-.7779,.1343-1.2337,.1343-.5049,0-.9771-.0652-1.4166-.1956-.4398-.1301-.8185-.3376-1.1361-.6229-.3174-.2846-.566-.6553-.745-1.1113-.1793-.4558-.2685-1.0016-.2685-1.6367v-7.6214h-1.7588v-1.6613h1.7588v-3.8106h1.8809v3.8106h4.006v1.6613h-4.006v7.3772Zm8.7692,3.5908h-1.8809v-17.8323h1.8809v7.4015c.4232-.684,.9771-1.266,1.661-1.7466,.684-.4801,1.5715-.7205,2.6627-.7205,.7654,0,1.445,.1221,2.0397,.3663,.5945,.2444,1.0994,.5906,1.5146,1.0381,.4152,.4483,.7329,.9814,.9527,1.6002,.2199,.619,.3298,1.303,.3298,2.0519v7.8413h-1.8811v-7.3772c0-1.1726-.3014-2.1008-.9038-2.7848s-1.4655-1.026-2.5892-1.026c-.5375,0-1.0381,.0939-1.5024,.2809-.4641,.1873-.8671,.4561-1.2091,.8061-.342,.3505-.6069,.7696-.7939,1.258-.1873,.4887-.2809,1.026-.2809,1.6124v7.2305Z" style="fill:#003865;"/></g></svg>