<?xml version="1.0" encoding="utf-8"?>
<!-- Generator: Adobe Illustrator 22.1.0, SVG Export Plug-In . SVG Version: 6.00 Build 0)  -->
<svg version="1.1" id="Layer_2_1_" xmlns="http://www.w3.org/2000/svg" xmlns:xlink="http://www.w3.org/1999/xlink" x="0px" y="0px"
	 viewBox="0 0 155.8 48" style="enable-background:new 0 0 155.8 48;" xml:space="preserve">
<style type="text/css">
	.st0{fill:#316094;}
	.st1{fill:#76777A;}
</style>
<path class="st0" d="M48.7,32.5c-0.3,0-0.5,0-0.8,0c-1.6-0.1-2.5-0.6-3.5-2c-0.8-1.1-1.5-2.4-2.2-3.5c-0.4-0.6-0.7-0.9-1.9-0.9h-0.7
	v3.5c0,1.9,0.2,2,1.9,2.1v0.6h-5.7v-0.6c1.8-0.1,2-0.3,2-2.1v-8.7c0-1.9-0.2-1.9-1.9-2.1v-0.6h5.4c1.6,0,2.7,0.2,3.5,0.7
	c0.9,0.6,1.4,1.5,1.4,2.9c0,1.9-1.2,3-2.8,3.7c0.4,0.7,1.3,2.2,1.9,3.2c0.8,1.1,1.2,1.7,1.8,2.3c0.6,0.7,1.1,0.9,1.6,1L48.7,32.5z
	 M40.7,25.4c1.1,0,1.8-0.2,2.4-0.6c0.8-0.7,1.2-1.5,1.2-2.7c0-2.4-1.5-3.2-3.2-3.2c-0.6,0-1,0.1-1.2,0.2c-0.2,0.1-0.2,0.4-0.2,1v5.4
	H40.7z"/>
<path class="st0" d="M59.1,21.5c-0.2-1-0.4-1.6-0.7-1.9C58,19,57.6,18.9,56,18.9h-1.5v10.7c0,1.7,0.2,1.9,2.2,2.1v0.6h-6.2v-0.6
	c2-0.1,2.2-0.3,2.2-2.1V18.9h-1.3c-1.8,0-2.2,0.2-2.5,0.7c-0.3,0.4-0.4,1-0.7,1.9h-0.6c0.1-1.3,0.2-2.7,0.3-3.9h0.4
	c0.3,0.5,0.6,0.5,1.2,0.5h8.6c0.6,0,0.8-0.1,1.1-0.5h0.5c0,1,0.1,2.6,0.2,3.9L59.1,21.5z"/>
<path class="st0" d="M75.5,18.7c-1.8,0.2-2,0.3-2,2.1v8.8c0,1.8,0.2,1.9,1.9,2.1v0.6h-5.8v-0.6c1.8-0.1,2-0.2,2-2.1v-4.4h-7.4v4.4
	c0,1.8,0.2,1.9,2,2.1v0.6h-5.7v-0.6c1.7-0.1,1.9-0.2,1.9-2.1v-8.8c0-1.8-0.2-1.9-2-2.1v-0.6h5.6v0.6c-1.7,0.2-1.8,0.3-1.8,2.1v3.5
	h7.4v-3.5c0-1.8-0.2-1.9-1.9-2.1v-0.6h5.7V18.7z"/>
<path class="st0" d="M89.5,25c0,4.7-3.3,7.6-7.3,7.6c-3.9,0-7.1-3.1-7.1-7.2c0-3.9,2.7-7.6,7.3-7.6C86.2,17.8,89.5,20.7,89.5,25z
	 M77.4,24.8c0,4.1,2.2,7.1,5.3,7.1c2.4,0,4.6-2,4.6-6.2c0-4.6-2.4-7-5.2-7C79.6,18.6,77.4,20.7,77.4,24.8z"/>
<path class="st0" d="M35.8,25c0,4.7-3.3,7.6-7.3,7.6c-3.9,0-7.1-3.1-7.1-7.2c0-3.9,2.7-7.6,7.3-7.6C32.4,17.8,35.8,20.7,35.8,25z
	 M23.6,24.8c0,4.1,2.2,7.1,5.3,7.1c2.4,0,4.6-2,4.6-6.2c0-4.6-2.4-7-5.2-7C25.9,18.6,23.6,20.7,23.6,24.8z"/>
<path class="st0" d="M94.8,18.1c1.5,0,2.8,0.3,3.7,0.9c0.8,0.6,1.4,1.6,1.4,3.1c0,2.8-2.1,4.2-4.2,4.5c-0.3,0-0.7,0-1,0l-1.6-0.4
	v3.4c0,1.9,0.2,2,2.2,2.1v0.6h-5.9v-0.6c1.7-0.1,1.9-0.3,1.9-2.1v-8.7c0-1.9-0.2-2-1.8-2.1v-0.6H94.8z M93.1,25.4
	c0.3,0.1,0.9,0.3,1.6,0.3c1.4,0,3.2-0.8,3.2-3.5c0-2.3-1.5-3.4-3.3-3.4c-0.6,0-1.1,0.1-1.2,0.3c-0.2,0.2-0.2,0.4-0.2,1V25.4z"/>
<path class="st0" d="M111.4,28.8c-0.1,0.7-0.6,2.8-0.8,3.4h-10.5v-0.6c2-0.2,2.2-0.3,2.2-2.1v-8.7c0-2-0.2-2-1.9-2.2v-0.6h9.7
	c0,0.5,0.1,2,0.2,3.1l-0.6,0.1c-0.2-0.9-0.4-1.4-0.7-1.9c-0.3-0.5-0.9-0.6-2.5-0.6h-1.7c-0.7,0-0.7,0-0.7,0.7v4.9h2
	c2,0,2.1-0.2,2.4-1.6h0.6v4.2h-0.6c-0.3-1.6-0.4-1.7-2.3-1.7h-2.1v4.1c0,1,0.1,1.5,0.5,1.8c0.4,0.3,1.2,0.3,2.3,0.3
	c1.7,0,2.3-0.2,2.7-0.7c0.4-0.4,0.8-1.2,1.1-2L111.4,28.8z"/>
<path class="st0" d="M118.3,18.1c2.8,0,4.8,0.6,6.2,1.8c1.1,1,1.8,2.6,1.8,4.7c0,2.6-1,4.6-2.7,5.8c-1.6,1.3-3.8,1.8-6.5,1.8H112
	v-0.6c1.9-0.1,2-0.3,2-2.1v-8.7c0-1.9-0.2-2-1.8-2.1v-0.6H118.3z M115.9,29.4c0,1.7,0.7,2.1,2.3,2.1c4.1,0,5.9-3,5.9-6.5
	c0-2.2-0.8-4.2-2.6-5.2c-1-0.6-2.2-0.9-3.7-0.9c-0.9,0-1.5,0.1-1.7,0.3c-0.2,0.2-0.3,0.4-0.3,1.2V29.4z"/>
<path class="st0" d="M126.7,32.3v-0.6c1.8-0.1,2-0.3,2-2.1v-8.7c0-1.8-0.2-2-2-2.1v-0.6h5.8v0.6c-1.8,0.1-2,0.3-2,2.1v8.7
	c0,1.9,0.2,2,2,2.1v0.6H126.7z"/>
<path class="st0" d="M145.8,28.7c-0.3,1-0.8,2.6-1.2,3.3c-0.6,0.2-2.4,0.6-4,0.6c-5.4,0-7.8-3.7-7.8-7.2c0-4.6,3.5-7.6,8.4-7.6
	c1.8,0,3.2,0.5,3.9,0.6c0.2,1.2,0.3,2.1,0.4,3.3l-0.7,0.2c-0.6-2.3-1.9-3.2-4.2-3.2c-3.6,0-5.6,3.1-5.6,6.4c0,4.1,2.4,6.9,5.7,6.9
	c2.2,0,3.4-1.2,4.5-3.4L145.8,28.7z"/>
<path class="st0" d="M154.5,21.4c-0.4-1.4-1-2.9-2.9-2.9c-1.7,0-2.4,1.2-2.4,2.4c0,1.6,1,2.3,2.8,3.2c1.7,0.9,3.8,1.9,3.8,4.3
	c0,2.3-1.9,4.1-4.8,4.1c-0.9,0-1.6-0.2-2.1-0.3c-0.5-0.2-0.9-0.3-1.1-0.5c-0.2-0.5-0.5-2.3-0.6-3.4l0.6-0.2c0.3,1.3,1.3,3.5,3.6,3.5
	c1.6,0,2.6-1,2.6-2.6c0-1.6-1.2-2.4-2.8-3.2c-1.4-0.7-3.6-1.8-3.6-4.3c0-2.1,1.7-3.9,4.5-3.9c1,0,1.9,0.2,2.7,0.5
	c0.1,0.8,0.2,1.6,0.4,3L154.5,21.4z"/>
<g>
	<g>
		<path class="st0" d="M26.4,39c0,0,1.1,2.6-0.3,5.3c0,0-1.6,3.4-5.6,3.6c0,0-0.3,0-0.7,0c-0.1,0-7.2-0.7-13.2-6.9
			c-0.1,0-5.1-4.9-6.4-12.7c0-0.1-1.6-8.1,3.1-16c0,0,1.9-3.3,5.9-6.5c-0.7,0.9-1.5,2-2.2,3.3c-2.2,4.1-3.9,10.7,0.3,19
			c0,0,0.6,1.1,1.7,2.6c2.4,3,7.4,7.6,15.9,7.8h0.7C25.9,38.5,26.3,38.6,26.4,39z"/>
	</g>
	<g id="XMLID_2_">
		<g>
			<path class="st1" d="M33.5,2.6c-1.5-0.3-3.1-0.5-4.8-0.5c-12,0-21.8,9.8-21.8,21.8c0,0.1,0,0.3,0,0.4c-0.4-1.7-0.7-3.5-0.7-5.3
				c0-5.1,1.7-9.7,4.6-13.2C14.3,2.2,19,0,24.1,0C27.5,0,30.7,0.9,33.5,2.6z"/>
		</g>
	</g>
</g>
<g>
	<path class="st1" d="M44.5,43.8c-0.7,0.7-1.4,1.1-1.8,1.1c-0.3,0-0.5-0.3-0.3-1.1l0.6-2.5c0.1-0.5,0.1-0.6-0.1-0.6
		c-0.4,0-1.4,1-1.9,1.9c-0.1,0.5-0.3,1.5-0.4,2.1c-0.4,0-0.8,0.1-1.1,0.2l-0.1-0.1c0.5-2,1-4.5,1.4-6.7c-0.6-0.1-1.2-0.1-1.9-0.1
		h-0.5l-1.1,5.3c-0.2,0.9-0.1,1,0.9,1.1l-0.1,0.3h-3.3l0.1-0.3c0.9-0.1,1-0.2,1.2-1.1l1.2-5.3h-0.7c-0.9,0-1.2,0.1-1.4,0.3
		c-0.2,0.2-0.4,0.5-0.6,1H34c0.2-0.7,0.4-1.5,0.6-2.1h0.3c0.1,0.3,0.2,0.3,0.5,0.3h4.6c0.7,0,0.9,0,0.9-0.2l0-0.2
		c0.4-0.1,0.9-0.3,1.1-0.3c0.1,0,0.1,0.1,0.1,0.4c-0.3,1.5-0.6,2.9-0.9,4.5h0c0.7-0.9,1.4-1.4,1.8-1.7c0.3-0.2,0.6-0.3,0.8-0.3
		c0.3,0,0.7,0.2,0.4,1.4l-0.5,2.4c-0.1,0.3-0.1,0.4,0,0.4c0.1,0,0.4-0.2,0.7-0.5L44.5,43.8z"/>
	<path class="st1" d="M49,43.6c-1,1-1.8,1.3-2.5,1.3c-0.6,0-1.3-0.3-1.3-1.7c0-1,0.5-2.2,1.3-2.8c0.5-0.4,1.2-0.7,1.7-0.7
		c0.7,0,1.1,0.4,1.1,0.9c0,1.1-1.8,1.7-2.9,2c0,0.1,0,0.2,0,0.3c0,0.6,0.2,1.1,0.8,1.1c0.4,0,1.1-0.3,1.6-0.8L49,43.6z M47.4,40.4
		c-0.3,0.2-0.7,0.7-0.9,1.9c1.3-0.4,1.8-0.9,1.8-1.4c0-0.4-0.3-0.6-0.5-0.6C47.6,40.3,47.5,40.3,47.4,40.4z"/>
	<path class="st1" d="M52.3,42.5c0.1,0.8,0.6,2,1.8,2c0.8,0,1.3-0.6,1.3-1.3c0-0.6-0.3-1-0.9-1.5l-0.3-0.2c-0.6-0.5-1.3-1.1-1.3-2
		c0-1.3,1-2.1,2.4-2.1c0.4,0,0.8,0.1,1.2,0.2c0.2,0.1,0.4,0.1,0.5,0.2c0,0.4,0,1-0.1,1.6l-0.4,0c-0.1-0.7-0.4-1.7-1.3-1.7
		c-0.7,0-1.1,0.6-1.1,1.2c0,0.6,0.4,1,0.9,1.4l0.3,0.2c0.8,0.6,1.4,1.2,1.4,2.1c0,1.4-1.2,2.2-2.6,2.2c-0.9,0-1.7-0.4-2-0.7
		c0-0.3,0-0.9,0-1.7L52.3,42.5z"/>
	<path class="st1" d="M60.4,40.4l-1.1,0.1l-0.6,2.9c-0.1,0.5-0.1,0.7,0.1,0.7c0.2,0,0.7-0.3,0.9-0.6l0.2,0.3c-0.4,0.5-1.3,1.3-2,1.3
		c-0.4,0-0.6-0.4-0.3-1.5l0.6-3h-0.8l0-0.1l0.3-0.4h0.7l0.2-1l1.1-0.8l0.1,0.1L59.5,40h1.2L60.4,40.4z"/>
	<path class="st1" d="M60.6,40.9c0.6-0.7,1.3-1.1,1.7-1.1c0.3,0,0.4,0.4,0.2,1.3l-0.1,0.5h0c0.5-1,1.1-1.8,1.6-1.8
		c0.2,0,0.4,0.1,0.5,0.3c0.1,0.2,0.1,0.4,0,0.6c-0.1,0.2-0.2,0.3-0.4,0.4c-0.1,0.1-0.2,0.1-0.3,0c-0.1-0.1-0.3-0.2-0.4-0.2
		c-0.1,0-0.3,0.1-0.5,0.4c-0.3,0.4-0.6,0.9-0.7,1.3c-0.1,0.6-0.3,1.5-0.4,2.1c-0.4,0-0.8,0.1-1.1,0.2l-0.1-0.1
		c0.3-1.2,0.5-2.4,0.8-3.6c0.1-0.4,0.1-0.5,0-0.5c-0.1,0-0.5,0.2-0.7,0.5L60.6,40.9z"/>
	<path class="st1" d="M68.4,43.6c-1,1-1.8,1.3-2.5,1.3c-0.6,0-1.3-0.3-1.3-1.7c0-1,0.5-2.2,1.3-2.8c0.5-0.4,1.2-0.7,1.7-0.7
		c0.7,0,1.1,0.4,1.1,0.9c0,1.1-1.8,1.7-2.9,2c0,0.1,0,0.2,0,0.3c0,0.6,0.2,1.1,0.8,1.1c0.4,0,1.1-0.3,1.6-0.8L68.4,43.6z M66.7,40.4
		c-0.3,0.2-0.7,0.7-0.9,1.9c1.3-0.4,1.8-0.9,1.8-1.4c0-0.4-0.3-0.6-0.5-0.6C67,40.3,66.8,40.3,66.7,40.4z"/>
	<path class="st1" d="M74.3,43.8c-0.8,0.8-1.4,1.1-1.8,1.1c-0.3,0-0.5-0.3-0.3-1.2c0.2-0.8,0.4-1.6,0.6-2.4c0.1-0.6,0.1-0.7-0.1-0.7
		c-0.4,0-1.5,1.2-2,2c-0.2,0.6-0.3,1.3-0.5,2c-0.4,0-0.8,0.1-1.1,0.2l-0.1-0.1c0.3-1.2,0.6-2.4,0.9-3.7c0.1-0.3,0.1-0.4,0-0.4
		c-0.1,0-0.5,0.2-0.7,0.5l-0.2-0.3c0.7-0.7,1.4-1.1,1.8-1.1c0.3,0,0.4,0.3,0.2,1.3l-0.2,0.7h0c0.6-0.8,1.3-1.4,1.8-1.7
		c0.3-0.2,0.6-0.3,0.9-0.3c0.3,0,0.7,0.2,0.3,1.7c-0.2,0.7-0.3,1.4-0.5,2.1c-0.1,0.3-0.1,0.4,0,0.4c0.1,0,0.4-0.2,0.7-0.5L74.3,43.8
		z"/>
	<path class="st1" d="M80,40.1c-0.4,0.4-0.7,0.6-0.9,0.6c-0.1,0-0.1,0-0.2,0c0.1,0.2,0.1,0.3,0.1,0.5c0,0.7-0.4,1.3-0.8,1.6
		c-0.3,0.3-0.9,0.5-1.6,0.7c-0.1,0.1-0.2,0.2-0.2,0.3c0,0.1,0.2,0.3,0.8,0.6c1.1,0.6,1.6,1,1.6,1.5c0,1-1.6,1.7-2.8,1.7
		c-1.1,0-2.1-0.6-2.1-1.2c0-0.5,0.7-1,1.8-1.5c-0.2-0.2-0.4-0.4-0.4-0.6c0-0.2,0.2-0.4,0.8-0.8c-0.7-0.1-1.1-0.6-1.1-1.3
		c0-0.7,0.3-1.4,1-1.8c0.5-0.3,1.1-0.6,1.5-0.6c0.4,0,0.7,0.1,1,0.3c0.7,0,1.1-0.2,1.3-0.3L80,40.1z M77.7,46.3
		c0-0.3-0.2-0.5-0.7-0.8c-0.4-0.2-0.7-0.4-0.9-0.5c-0.5,0.3-0.9,0.7-0.9,1.1c0,0.5,0.7,0.9,1.4,0.9C77.2,47.1,77.7,46.7,77.7,46.3z
		 M77.8,41.1c0-0.5-0.2-0.9-0.6-0.9c-0.3,0-0.6,0.3-0.7,0.6c-0.2,0.4-0.3,0.9-0.3,1.4c0,0.5,0.2,0.8,0.5,0.8
		C77.3,43.1,77.8,42.3,77.8,41.1z"/>
	<path class="st1" d="M83.1,40.4l-1.1,0.1l-0.6,2.9c-0.1,0.5-0.1,0.7,0.1,0.7c0.2,0,0.7-0.3,0.9-0.6l0.2,0.3c-0.4,0.5-1.3,1.3-2,1.3
		c-0.4,0-0.6-0.4-0.3-1.5l0.6-3h-0.8l0-0.1l0.3-0.4h0.7l0.2-1l1.1-0.8l0.1,0.1L82.2,40h1.2L83.1,40.4z"/>
	<path class="st1" d="M88.4,43.8c-0.7,0.7-1.4,1.1-1.8,1.1c-0.3,0-0.5-0.3-0.3-1.2l0.5-2.4c0.1-0.5,0.1-0.7-0.1-0.7
		c-0.4,0-1.4,1-2,1.9c-0.1,0.5-0.3,1.6-0.4,2.2c-0.4,0-0.8,0.1-1.1,0.2l-0.1-0.1c0.5-2.1,0.9-4.3,1.3-6.6c0.1-0.5,0-0.6-0.4-0.6
		l-0.3,0l0.1-0.3c1-0.1,1.7-0.4,1.9-0.4c0.1,0,0.2,0.1,0.1,0.4l-0.9,4.4h0c0.7-0.9,1.3-1.4,1.8-1.7c0.3-0.2,0.6-0.3,0.9-0.3
		c0.3,0,0.7,0.2,0.4,1.6l-0.5,2.2c-0.1,0.3,0,0.4,0,0.4c0.1,0,0.4-0.2,0.7-0.4L88.4,43.8z"/>
	<path class="st1" d="M91.4,43.2c0-1.5,0.8-2.5,1.7-3c0.4-0.2,0.9-0.4,1.4-0.4c1,0,1.6,0.7,1.6,1.8c0,1-0.4,2-1.2,2.7
		c-0.5,0.4-1.2,0.7-1.8,0.7C91.8,44.9,91.4,44,91.4,43.2z M93.8,44.4c0.5-0.2,1-1.4,1-2.9c0-0.9-0.3-1.3-0.7-1.3
		c-0.1,0-0.2,0-0.3,0.1c-0.3,0.2-1,1.1-1,2.9c0,0.8,0.3,1.3,0.8,1.3C93.6,44.5,93.7,44.4,93.8,44.4z"/>
	<path class="st1" d="M97.7,40c0.2-0.9,0.5-1.6,1-2.1c0.6-0.6,1.3-0.9,1.7-0.9c0.5,0,0.8,0.3,0.8,0.5c0,0.2-0.2,0.5-0.4,0.6
		c-0.1,0.1-0.2,0.1-0.3,0c-0.3-0.3-0.5-0.5-0.7-0.5c-0.3,0-0.5,0.3-0.9,2.4h1.3l-0.2,0.4l-1.1,0.1c-0.2,1.1-0.3,2-0.6,3.2
		c-0.4,1.9-0.9,2.6-1.6,3.3c-0.5,0.4-0.9,0.6-1.2,0.6c-0.3,0-0.7-0.2-0.7-0.5c0-0.2,0.2-0.4,0.4-0.6c0.1-0.1,0.2-0.1,0.2,0
		c0.2,0.2,0.6,0.4,0.8,0.4c0.2,0,0.3-0.1,0.4-0.3c0.1-0.2,0.3-0.6,0.6-2.5c0.3-1.5,0.4-2.5,0.6-3.6h-0.9l0-0.1L97,40H97.7z"/>
	<path class="st1" d="M108,37.6c0,0.3-0.1,1.1-0.2,1.7l-0.4,0c0-0.4-0.1-0.8-0.2-1c-0.1-0.2-0.3-0.3-1-0.3h-0.7
		c-0.4,0-0.4,0-0.5,0.5l-0.4,2.3h0.9c0.9,0,1-0.1,1.3-0.8h0.4l-0.4,2.2h-0.4c0-0.8,0-0.9-0.9-0.9h-0.9l-0.4,1.9
		c-0.1,0.5-0.1,0.8,0,1c0.1,0.2,0.4,0.2,1,0.2c0.7,0,1.1-0.1,1.4-0.4c0.2-0.2,0.5-0.6,0.8-1.1l0.4,0.1c-0.1,0.4-0.5,1.4-0.7,1.7
		h-5.3l0.1-0.3c0.9-0.1,0.9-0.1,1.1-1l0.9-4.5c0.2-0.9,0.1-1-0.8-1l0.1-0.3H108z"/>
	<path class="st1" d="M108.5,41.1c0.6-0.8,1.1-1.3,1.5-1.3c0.3,0,0.5,0.4,0.7,1.1l0.2,0.6c0.9-1.3,1.3-1.7,1.8-1.7
		c0.3,0,0.5,0.3,0.5,0.6c0,0.3-0.3,0.6-0.5,0.6c-0.1,0-0.1,0-0.2-0.1c-0.1-0.1-0.1-0.1-0.3-0.1c-0.1,0-0.3,0.1-0.5,0.4
		c-0.2,0.2-0.4,0.5-0.7,0.8l0.4,1.3c0.2,0.5,0.3,0.8,0.5,0.8c0.2,0,0.4-0.2,0.8-0.6l0.2,0.3c-0.6,1-1.2,1.3-1.6,1.3
		c-0.3,0-0.6-0.3-0.8-1.1l-0.3-0.9c-0.9,1.5-1.3,2-1.9,2c-0.3,0-0.6-0.2-0.6-0.6c0-0.4,0.3-0.6,0.5-0.6c0.1,0,0.1,0,0.2,0.1
		c0.1,0.1,0.2,0.1,0.3,0.1c0.3,0,0.7-0.5,1.3-1.5l-0.3-1.1c-0.2-0.6-0.3-0.7-0.4-0.7c-0.1,0-0.3,0.1-0.7,0.6L108.5,41.1z"/>
	<path class="st1" d="M115.9,39.9c0.3-0.1,0.7-0.1,1-0.1c1.2,0,1.6,0.6,1.6,1.6c0,0.7-0.3,1.6-0.9,2.2c-0.5,0.6-1.4,1.1-2.1,1.3
		c-0.2,0-0.4,0-0.6-0.1l-0.3,1.4c-0.1,0.6,0,0.7,0.5,0.7l0.3,0l-0.1,0.3l-2.9,0.1l0.1-0.3c0.7-0.1,0.8-0.3,0.9-0.9
		c0.4-1.9,0.8-3.8,1.2-5.6c-0.3,0.1-0.6,0.2-0.9,0.4l-0.1-0.3c0.3-0.2,0.7-0.4,1.1-0.5l0.1-0.5c0.2-0.3,0.8-0.6,1.1-0.8l0.1,0.1
		L115.9,39.9z M115.1,44.1c0.1,0.2,0.4,0.4,0.6,0.4c0.7,0,1.6-1.5,1.6-2.9c0-0.9-0.5-1.2-1-1.2c-0.2,0-0.4,0-0.5,0.1L115.1,44.1z"/>
	<path class="st1" d="M122.9,43.6c-1,1-1.8,1.3-2.5,1.3c-0.6,0-1.3-0.3-1.3-1.7c0-1,0.5-2.2,1.3-2.8c0.5-0.4,1.2-0.7,1.7-0.7
		c0.7,0,1.1,0.4,1.1,0.9c0,1.1-1.8,1.7-2.9,2c0,0.1,0,0.2,0,0.3c0,0.6,0.2,1.1,0.8,1.1c0.4,0,1.1-0.3,1.6-0.8L122.9,43.6z
		 M121.2,40.4c-0.3,0.2-0.7,0.7-0.9,1.9c1.3-0.4,1.8-0.9,1.8-1.4c0-0.4-0.3-0.6-0.5-0.6C121.5,40.3,121.3,40.3,121.2,40.4z"/>
	<path class="st1" d="M123.6,40.9c0.6-0.7,1.3-1.1,1.7-1.1c0.3,0,0.4,0.4,0.2,1.3l-0.1,0.5h0c0.5-1,1.1-1.8,1.6-1.8
		c0.2,0,0.4,0.1,0.5,0.3c0.1,0.2,0.1,0.4,0,0.6c-0.1,0.2-0.2,0.3-0.4,0.4c-0.1,0.1-0.2,0.1-0.3,0c-0.1-0.1-0.3-0.2-0.4-0.2
		c-0.1,0-0.3,0.1-0.5,0.4c-0.3,0.4-0.6,0.9-0.7,1.3c-0.1,0.6-0.3,1.5-0.4,2.1c-0.4,0-0.8,0.1-1.1,0.2l-0.1-0.1
		c0.3-1.2,0.5-2.4,0.8-3.6c0.1-0.4,0.1-0.5,0-0.5c-0.1,0-0.5,0.2-0.7,0.5L123.6,40.9z"/>
	<path class="st1" d="M130.3,43.8c-0.6,0.7-1.5,1.2-1.8,1.2c-0.3,0-0.5-0.2-0.3-1.2l0.6-2.6c0.1-0.3,0.1-0.4,0-0.4
		c-0.1,0-0.4,0.2-0.7,0.4l-0.1-0.3c0.7-0.7,1.5-1.1,1.9-1.1c0.3,0,0.3,0.4,0.2,1l-0.7,2.8c-0.1,0.3,0,0.4,0,0.4
		c0.1,0,0.4-0.2,0.7-0.5L130.3,43.8z M130.5,38.2c0,0.4-0.3,0.8-0.8,0.8c-0.3,0-0.6-0.2-0.6-0.6c0-0.3,0.3-0.8,0.7-0.8
		C130.3,37.6,130.5,37.9,130.5,38.2z"/>
	<path class="st1" d="M134.7,43.6c-1,1-1.8,1.3-2.5,1.3c-0.6,0-1.3-0.3-1.3-1.7c0-1,0.5-2.2,1.3-2.8c0.5-0.4,1.2-0.7,1.7-0.7
		c0.7,0,1.1,0.4,1.1,0.9c0,1.1-1.8,1.7-2.9,2c0,0.1,0,0.2,0,0.3c0,0.6,0.2,1.1,0.8,1.1c0.4,0,1.1-0.3,1.6-0.8L134.7,43.6z
		 M133.1,40.4c-0.3,0.2-0.7,0.7-0.9,1.9c1.3-0.4,1.8-0.9,1.8-1.4c0-0.4-0.3-0.6-0.5-0.6C133.3,40.3,133.2,40.3,133.1,40.4z"/>
	<path class="st1" d="M140.7,43.8c-0.8,0.8-1.4,1.1-1.8,1.1c-0.3,0-0.5-0.3-0.3-1.2c0.2-0.8,0.4-1.6,0.6-2.4
		c0.1-0.6,0.1-0.7-0.1-0.7c-0.4,0-1.5,1.2-2,2c-0.2,0.6-0.3,1.3-0.5,2c-0.4,0-0.8,0.1-1.1,0.2l-0.1-0.1c0.3-1.2,0.6-2.4,0.9-3.7
		c0.1-0.3,0.1-0.4,0-0.4c-0.1,0-0.5,0.2-0.7,0.5l-0.2-0.3c0.7-0.7,1.4-1.1,1.8-1.1c0.3,0,0.4,0.3,0.2,1.3l-0.2,0.7h0
		c0.6-0.8,1.3-1.4,1.8-1.7c0.3-0.2,0.6-0.3,0.9-0.3c0.3,0,0.7,0.2,0.3,1.7c-0.2,0.7-0.3,1.4-0.5,2.1c-0.1,0.3-0.1,0.4,0,0.4
		c0.1,0,0.4-0.2,0.7-0.5L140.7,43.8z"/>
	<path class="st1" d="M144.9,43.7c-0.7,0.8-1.6,1.3-2.3,1.3c-0.8,0-1.3-0.6-1.3-1.7c0-0.9,0.4-2,1.2-2.7c0.5-0.4,1.3-0.8,1.9-0.8
		c0.5,0,0.9,0.3,0.9,0.6c0,0.2-0.1,0.4-0.4,0.6c-0.1,0.1-0.2,0.1-0.3-0.1c-0.3-0.4-0.6-0.6-0.9-0.6c-0.3,0-0.5,0.2-0.7,0.6
		c-0.3,0.5-0.4,1.2-0.4,2c0,0.8,0.3,1.2,0.7,1.2c0.5,0,1.2-0.5,1.4-0.8L144.9,43.7z"/>
	<path class="st1" d="M149.3,43.6c-1,1-1.8,1.3-2.5,1.3c-0.6,0-1.3-0.3-1.3-1.7c0-1,0.5-2.2,1.3-2.8c0.5-0.4,1.2-0.7,1.7-0.7
		c0.7,0,1.1,0.4,1.1,0.9c0,1.1-1.8,1.7-2.9,2c0,0.1,0,0.2,0,0.3c0,0.6,0.2,1.1,0.8,1.1c0.4,0,1.1-0.3,1.6-0.8L149.3,43.6z
		 M147.7,40.4c-0.3,0.2-0.7,0.7-0.9,1.9c1.3-0.4,1.8-0.9,1.8-1.4c0-0.4-0.3-0.6-0.5-0.6C148,40.3,147.8,40.3,147.7,40.4z"/>
</g>
<g>
	<path class="st0" d="M39,8c-0.2-0.8-0.7-1.8-1.7-1.8c-0.8,0-1.2,0.6-1.2,1.3c0,0.8,0.5,1.2,1.5,1.8c1.2,0.6,2.1,1.3,2.1,2.7
		c0,1.4-1.1,2.6-2.9,2.6c-0.5,0-0.9-0.1-1.2-0.2c-0.3-0.1-0.5-0.2-0.7-0.3c-0.1-0.3-0.3-1.4-0.4-2.1l0.4-0.1
		c0.2,0.8,0.9,2.2,2.1,2.2c0.8,0,1.3-0.6,1.3-1.4c0-0.8-0.6-1.3-1.5-1.8c-1.1-0.6-2.1-1.3-2.1-2.6c0-1.4,1-2.5,2.7-2.5
		c0.7,0,1.3,0.2,1.6,0.3c0,0.5,0.1,1,0.2,1.8L39,8z"/>
	<path class="st0" d="M48.7,10.1c0,2.8-1.9,4.5-4.1,4.5c-2.3,0-4-1.9-4-4.4c0-2.3,1.5-4.5,4.2-4.5C46.8,5.7,48.7,7.5,48.7,10.1z
		 M42.1,9.9c0,2.3,1,4.2,2.7,4.2c1.2,0,2.3-1.2,2.3-3.6c0-2.6-1.1-4.2-2.6-4.2C43.2,6.2,42.1,7.6,42.1,9.9z"/>
	<path class="st0" d="M57.5,6.3c-0.7,0-1,0.3-1,0.8c0,0.4-0.1,0.9-0.1,1.9v1.3c0,1.4-0.2,2.5-0.9,3.3c-0.6,0.6-1.4,0.9-2.2,0.9
		c-0.8,0-1.5-0.2-2.1-0.7c-0.7-0.6-1-1.5-1-3.1V7.7c0-1.2-0.1-1.3-1-1.4V5.9h3.5v0.4c-0.9,0.1-1,0.2-1,1.4v2.9c0,2,0.7,3.2,2.1,3.2
		c1.6,0,2.2-1.3,2.2-3.5V9c0-1-0.1-1.5-0.1-1.9c-0.1-0.5-0.3-0.7-1.2-0.7V5.9h3V6.3z"/>
	<path class="st0" d="M64.6,8.1c-0.1-0.7-0.3-1.1-0.5-1.3c-0.2-0.3-0.5-0.3-1.3-0.3h-0.7v6.2c0,1.1,0.1,1.2,1.2,1.3v0.4h-3.8V14
		c1-0.1,1.2-0.2,1.2-1.3V6.4h-0.5c-1,0-1.2,0.1-1.4,0.4c-0.2,0.2-0.3,0.6-0.5,1.3H58c0-0.9,0.1-1.8,0.1-2.5h0.3
		c0.2,0.3,0.3,0.3,0.7,0.3h4.9c0.3,0,0.5-0.1,0.7-0.3h0.3c0,0.6,0.1,1.6,0.1,2.4L64.6,8.1z"/>
	<path class="st0" d="M74.2,6.3c-1,0.1-1,0.2-1,1.3v5.1c0,1.1,0.1,1.2,1,1.3v0.4h-3.6V14c1-0.1,1.1-0.2,1.1-1.3v-2.5h-3.6v2.5
		c0,1.1,0.1,1.2,1,1.3v0.4h-3.5V14c0.9-0.1,1-0.2,1-1.3V7.6c0-1.1-0.1-1.2-1.1-1.3V5.9h3.5v0.4c-0.9,0.1-1,0.2-1,1.3v2h3.6v-2
		c0-1.1-0.1-1.2-1-1.3V5.9h3.5V6.3z"/>
	<path class="st0" d="M81.4,12.3c-0.1,0.5-0.3,1.7-0.4,2.1h-6.1V14c1.1-0.1,1.2-0.2,1.2-1.3V7.6c0-1.1-0.1-1.2-1-1.3V5.9h5.6
		c0,0.3,0.1,1.2,0.1,1.9l-0.4,0.1C80.3,7.4,80.2,7,80,6.8c-0.2-0.2-0.5-0.3-1.3-0.3H78c-0.4,0-0.5,0-0.5,0.4v2.8h0.9
		c1,0,1.2-0.1,1.3-1h0.4v2.6h-0.4c-0.2-0.9-0.3-1-1.3-1h-0.9v2.3c0,0.6,0.1,0.9,0.3,1.1c0.2,0.1,0.6,0.1,1.1,0.1
		c0.7,0,1.1-0.1,1.4-0.4c0.2-0.3,0.5-0.7,0.7-1.2L81.4,12.3z"/>
	<path class="st0" d="M89.3,14.5c-0.1,0-0.2,0-0.4,0c-1.3-0.1-1.8-0.4-2.3-1.2c-0.4-0.6-0.7-1.3-1.1-2c-0.2-0.4-0.4-0.5-0.9-0.5
		h-0.3v2c0,1.1,0.1,1.2,1,1.3v0.4h-3.5V14c0.9-0.1,1.1-0.2,1.1-1.3V7.6c0-1.1-0.1-1.2-1-1.2V5.9h3.3c1,0,1.6,0.1,2.1,0.5
		c0.5,0.4,0.8,0.9,0.8,1.7c0,1.1-0.7,1.8-1.5,2.1c0.2,0.4,0.7,1.3,1,1.9c0.4,0.7,0.7,1.1,1,1.4c0.3,0.3,0.5,0.5,0.8,0.6L89.3,14.5z
		 M84.8,10.2c0.6,0,1-0.1,1.2-0.4c0.4-0.4,0.6-0.9,0.6-1.6c0-1.4-0.8-1.9-1.6-1.9c-0.3,0-0.5,0.1-0.6,0.1c-0.1,0.1-0.1,0.2-0.1,0.5
		v3.2H84.8z"/>
	<path class="st0" d="M98.3,6.3c-0.7,0-0.9,0.2-1,0.8c0,0.4-0.1,1-0.1,2.2v5.2h-0.5l-5.1-6.6h0v3.1c0,1.2,0,1.7,0.1,2.1
		c0.1,0.6,0.3,0.8,1.2,0.9v0.4h-2.9V14c0.7-0.1,1-0.2,1-0.8c0-0.4,0.1-1,0.1-2.2V8.2c0-0.9,0-1.1-0.2-1.4c-0.2-0.3-0.5-0.4-1-0.5
		V5.9h2.1l4.8,6h0V9.3c0-1.2-0.1-1.8-0.1-2.2c-0.1-0.6-0.3-0.8-1.2-0.8V5.9h2.9V6.3z"/>
	<g>
		<path class="st0" d="M104.1,14.4V14c0.9-0.1,1-0.2,1-1.3V7.6c0-1.1-0.1-1.2-1-1.3V5.9h3.5v0.4c-0.9,0.1-1,0.2-1,1.3v5.1
			c0,1.1,0.1,1.2,1,1.3v0.4H104.1z"/>
		<path class="st0" d="M116.8,6.3c-0.7,0-0.9,0.2-1,0.8c0,0.4-0.1,1-0.1,2.2v5.2h-0.5l-5.1-6.6h0v3.1c0,1.2,0,1.7,0.1,2.1
			c0.1,0.6,0.3,0.8,1.2,0.9v0.4h-2.9V14c0.7-0.1,1-0.2,1-0.8c0-0.4,0.1-1,0.1-2.2V8.2c0-0.9,0-1.1-0.2-1.4c-0.2-0.3-0.5-0.4-1-0.5
			V5.9h2.1l4.8,6h0V9.3c0-1.2-0.1-1.8-0.1-2.2c-0.1-0.6-0.3-0.8-1.2-0.8V5.9h2.9V6.3z"/>
		<path class="st0" d="M121.1,5.9c1.5,0,2.7,0.3,3.5,1.1c0.6,0.6,1.1,1.5,1.1,2.8c0,1.6-0.6,2.7-1.5,3.5c-0.9,0.7-2.2,1.1-3.7,1.1
			h-3V14c1-0.1,1.1-0.2,1.1-1.3V7.6c0-1.1-0.1-1.2-1-1.3V5.9H121.1z M119.9,12.6c0,1,0.3,1.2,1.1,1.2c1.9,0,3-1.6,3-3.8
			c0-1.3-0.4-2.3-1.1-2.9c-0.5-0.5-1.2-0.7-2-0.7c-0.5,0-0.7,0.1-0.8,0.2c-0.1,0.1-0.1,0.3-0.1,0.7V12.6z"/>
		<path class="st0" d="M126.1,14.4V14c0.9-0.1,1-0.2,1-1.3V7.6c0-1.1-0.1-1.2-1-1.3V5.9h3.5v0.4c-0.9,0.1-1,0.2-1,1.3v5.1
			c0,1.1,0.1,1.2,1,1.3v0.4H126.1z"/>
		<path class="st0" d="M135.1,14.4V14c0.7-0.1,0.8-0.3,0.6-0.8c-0.1-0.4-0.3-1-0.6-1.7h-2.4c-0.2,0.5-0.3,1-0.5,1.5
			c-0.2,0.7-0.1,0.9,0.7,1v0.4h-2.7V14c0.8-0.1,0.9-0.2,1.4-1.4l2.5-6.7l0.5-0.2c0.8,2.3,1.5,4.6,2.3,6.8c0.4,1.1,0.6,1.3,1.3,1.4
			v0.4H135.1z M134,7.9L134,7.9c-0.4,1-0.7,2-1.1,3h2L134,7.9z"/>
		<path class="st0" d="M147.4,6.3c-0.7,0-0.9,0.2-1,0.8c0,0.4-0.1,1-0.1,2.2v5.2h-0.5l-5.1-6.6h0v3.1c0,1.2,0,1.7,0.1,2.1
			c0.1,0.6,0.3,0.8,1.2,0.9v0.4H139V14c0.7-0.1,1-0.2,1-0.8c0-0.4,0.1-1,0.1-2.2V8.2c0-0.9,0-1.1-0.2-1.4c-0.2-0.3-0.5-0.4-1-0.5
			V5.9h2.1l4.8,6h0V9.3c0-1.2-0.1-1.8-0.1-2.2c-0.1-0.6-0.3-0.8-1.2-0.8V5.9h2.9V6.3z"/>
		<path class="st0" d="M152.2,14.4V14c0.7-0.1,0.8-0.3,0.6-0.8c-0.1-0.4-0.3-1-0.6-1.7h-2.4c-0.2,0.5-0.3,1-0.5,1.5
			c-0.2,0.7-0.1,0.9,0.7,1v0.4h-2.7V14c0.8-0.1,0.9-0.2,1.4-1.4l2.5-6.7l0.5-0.2c0.8,2.3,1.5,4.6,2.3,6.8c0.4,1.1,0.6,1.3,1.3,1.4
			v0.4H152.2z M151.1,7.9L151.1,7.9c-0.4,1-0.7,2-1.1,3h2L151.1,7.9z"/>
	</g>
</g>
</svg>
