<svg width="212" height="70" viewBox="0 0 212 70" fill="none" xmlns="http://www.w3.org/2000/svg">
<path fill-rule="evenodd" clip-rule="evenodd" d="M10.9324 17.9141C14.0087 14.0713 17.9386 11.3284 22.4664 9.37228C19.3461 5.827 23.7205 3.82851 27.0461 3.59519C27.3241 3.57642 27.7571 3.58479 28.2767 3.59484C30.5433 3.63865 34.4585 3.71434 34.3512 1.7086C34.2265 -0.751593 29.8161 0.0707646 28.3113 0.400159C10.0919 4.4037 -1.43333 19.8962 0.143809 38.4925C1.266 51.6725 7.92117 61.0402 19.988 66.4608C23.9525 68.2431 28.1207 69.3689 32.4491 69.8688C32.5813 69.8838 32.7141 69.9027 32.8457 69.9214C33.8581 70.0653 34.8046 70.1998 34.8928 68.4995C34.9751 66.9433 34.9101 65.7783 32.8867 65.774C31.7813 65.7703 30.6727 65.5805 29.5719 65.392C29.3912 65.3611 29.2107 65.3302 29.0305 65.3002C7.21492 61.6531 -2.89783 35.1802 10.9324 17.9141ZM11.4611 51.2546C17.7784 59.1183 25.846 63.5087 33.6104 63.6261C43.4285 63.6348 49.8843 61.2005 55.4 56.3015C57.7874 54.1802 59.8195 51.7458 61.4226 48.9725C61.4746 48.8821 61.5398 48.7865 61.6073 48.6875C61.9164 48.234 62.2753 47.7073 61.6565 47.2685C61.0173 46.8138 60.7371 47.2994 60.4739 47.7556C60.3999 47.8838 60.3273 48.0098 60.2484 48.1118C60.0266 48.3979 59.8184 48.6949 59.6101 48.992C59.3626 49.3449 59.1151 49.698 58.8446 50.0331C47.7309 63.8043 24.3772 63.9434 12.5487 50.3374C12.4461 50.2194 12.3473 50.0598 12.2445 49.8937C11.9042 49.3438 11.52 48.723 10.8112 49.3072C10.1269 49.8718 10.6875 50.4448 11.1533 50.9208C11.2684 51.0386 11.3778 51.1504 11.4611 51.2546Z" fill="#5E843A"/>
<path fill-rule="evenodd" clip-rule="evenodd" d="M128.293 25.7564C128.01 26.3868 127.626 26.9339 127.138 27.3935C126.65 27.8575 126.083 28.2383 125.433 28.5447C124.783 28.8512 124.094 29.0875 123.362 29.2539L123.316 29.2607C123.263 29.2686 123.202 29.2778 123.135 29.2845C123.048 29.2933 122.952 29.302 122.852 29.3064C122.751 29.3108 122.651 29.3151 122.546 29.3151H122.311C121.884 29.3151 121.439 29.2364 120.977 29.0788C120.515 28.9212 120.07 28.7067 119.642 28.4397C119.215 28.1727 118.81 27.8531 118.426 27.4855C118.042 27.1178 117.711 26.7195 117.427 26.2949C117.144 25.8703 116.922 25.4238 116.752 24.9642C116.586 24.5002 116.499 24.0406 116.499 23.5766C116.499 22.653 116.599 21.8344 116.795 21.1166C116.996 20.4031 117.314 19.7815 117.754 19.2562C118.195 18.731 118.757 18.2932 119.451 17.9387C120.14 17.5885 120.977 17.304 121.962 17.0939C122.11 17.0632 122.263 17.037 122.424 17.0239C122.586 17.0107 122.743 17.002 122.887 17.002C123.872 17.002 124.727 17.2033 125.459 17.6016C126.192 18 126.798 18.5165 127.282 19.1468C127.761 19.7771 128.123 20.4819 128.359 21.2654C128.594 22.0489 128.712 22.8237 128.712 23.5897C128.716 24.4083 128.577 25.1261 128.293 25.7564ZM126.833 21.528C126.632 20.8496 126.34 20.2455 125.947 19.7071C125.555 19.1731 125.075 18.7353 124.504 18.3983C123.933 18.0612 123.279 17.8949 122.533 17.8949C121.831 17.8949 121.212 18.0219 120.671 18.2801C120.131 18.5384 119.677 18.8886 119.307 19.335C118.936 19.7815 118.653 20.3024 118.461 20.8933C118.269 21.4886 118.169 22.119 118.169 22.7931C118.169 23.4759 118.269 24.1588 118.474 24.8416C118.679 25.5245 118.98 26.1373 119.376 26.6844C119.773 27.2316 120.262 27.6737 120.846 28.0151C121.426 28.3565 122.089 28.5272 122.83 28.5272C123.532 28.5272 124.147 28.3916 124.683 28.1245C125.215 27.8575 125.664 27.4986 126.026 27.0434C126.388 26.5925 126.663 26.0629 126.85 25.4588C127.038 24.8547 127.134 24.22 127.134 23.5591C127.134 22.885 127.033 22.2065 126.833 21.528ZM50.8389 29.1053L50.8406 29.1053C51.1415 29.1097 51.4467 29.1053 51.7476 29.0746V28.7901C51.4467 28.7726 51.1589 28.6982 50.893 28.5712C50.627 28.4443 50.422 28.2298 50.2738 27.9234C50.0558 27.4507 49.8334 26.9473 49.6067 26.4176C49.3799 25.8836 49.1619 25.3409 48.9395 24.7849C48.7172 24.229 48.5078 23.6775 48.3029 23.1303C48.098 22.5832 47.9018 22.0579 47.7143 21.5545C47.5791 21.1868 47.4352 20.8279 47.2826 20.4821C47.1343 20.1363 46.9948 19.7949 46.8684 19.4578C46.8466 19.4141 46.8291 19.3615 46.8117 19.3002C46.7942 19.239 46.7681 19.1733 46.7245 19.112C46.6111 18.7881 46.4803 18.4379 46.332 18.0571C46.1838 17.6807 46.0225 17.3918 45.8437 17.1904C45.8044 17.1379 45.7565 17.1291 45.7042 17.1598C45.6518 17.1904 45.617 17.2254 45.5951 17.2692C45.2071 18.2891 44.8234 19.3046 44.4484 20.3114C44.069 21.3225 43.6984 22.3337 43.3321 23.3536C43.0792 24.0496 42.8307 24.7587 42.5865 25.4897C42.3423 26.2207 42.0807 26.9342 41.8104 27.6258C41.758 27.7527 41.6839 27.8884 41.5967 28.0285C41.5095 28.1685 41.4048 28.2999 41.2828 28.4224C41.165 28.5406 41.0386 28.6413 40.9078 28.7201C40.777 28.7989 40.6418 28.8383 40.5066 28.8383C40.4997 28.8383 40.4891 28.837 40.4735 28.8352C40.4597 28.8336 40.442 28.8316 40.4194 28.8295C40.3758 28.8251 40.3409 28.8383 40.3191 28.8689C40.2799 28.9127 40.2668 28.9521 40.2886 28.9959C40.2973 29.0177 40.3235 29.0484 40.3671 29.0921L43.633 29.1097C43.7376 29.1097 43.7943 29.0703 43.7987 28.9915C43.803 28.9127 43.7551 28.8645 43.6504 28.8427C43.4935 28.8208 43.3321 28.7814 43.1708 28.7245C43.0095 28.6676 42.9266 28.5494 42.9266 28.3699C42.9266 28.2342 42.9746 27.9935 43.0618 27.652C43.1534 27.3106 43.258 26.9517 43.3844 26.5665C43.5109 26.1813 43.6374 25.8092 43.7682 25.4459C43.899 25.0826 44.008 24.8068 44.0908 24.6186H47.1823C47.4221 25.2839 47.6707 25.9449 47.9279 26.6059C48.1845 27.2693 48.4366 27.9284 48.6888 28.5875L48.6892 28.5885L48.6894 28.589L48.691 28.5932L48.1416 28.8777C48.0762 28.9302 48.0631 28.9783 48.0936 29.0177C48.1285 29.0615 48.1852 29.0878 48.268 29.0965C48.4861 29.1184 48.7608 29.1228 49.0834 29.114C49.4105 29.1009 49.6851 29.0965 49.9162 29.0965C50.2296 29.0965 50.5342 29.1009 50.8389 29.1053ZM45.5382 20.1304L45.5821 19.9919L46.8684 23.7913H44.3394C44.5705 23.1303 44.7841 22.4957 44.976 21.8916C45.1584 21.33 45.3446 20.742 45.538 20.131L45.5381 20.1306L45.5382 20.1304ZM38.9413 22.7578C39.2466 22.4033 39.482 22.0093 39.6477 21.5672C39.8134 21.1251 39.8962 20.6743 39.9093 20.219C39.9093 19.58 39.796 19.0722 39.5649 18.7001C39.3338 18.3281 39.0373 18.0435 38.671 17.8553C38.3047 17.6671 37.8861 17.5445 37.4152 17.492C36.9443 17.4395 36.4646 17.4132 35.985 17.4132H34.7118C34.5551 17.4132 34.3984 17.422 34.2418 17.4307L34.2409 17.4307C34.0839 17.4395 33.9182 17.4395 33.7525 17.4307C33.5737 17.4176 33.3993 17.4132 33.2336 17.4132H32.7322H32.4008C32.3136 17.4132 32.2569 17.4307 32.2264 17.4745C32.1959 17.5139 32.1959 17.5621 32.2264 17.6146C32.2787 17.7328 32.3616 17.8028 32.4837 17.8291C32.6057 17.8553 32.7278 17.8772 32.8543 17.8991C32.924 17.9079 32.9982 17.921 33.0723 17.9385C33.1464 17.9516 33.2118 17.9823 33.2685 18.0304C33.3252 18.0786 33.3732 18.1486 33.408 18.2449C33.4473 18.3368 33.4647 18.4638 33.4647 18.6213V27.4152C33.4647 27.6779 33.456 27.888 33.4473 28.0456C33.4386 28.2031 33.3993 28.3257 33.3383 28.422C33.2729 28.5139 33.1813 28.5883 33.0549 28.6409C32.9284 28.6934 32.754 28.7372 32.536 28.7809C32.4313 28.8028 32.3834 28.851 32.3877 28.9298C32.3921 29.0085 32.4488 29.0567 32.5534 29.0654C33.19 29.0961 33.8266 29.1048 34.4589 29.0961C35.0911 29.083 35.7234 29.0786 36.3513 29.0786C36.4254 29.0786 36.4821 29.0611 36.517 29.0261C36.5562 28.9867 36.5562 28.9429 36.5257 28.8904C36.4734 28.7766 36.3949 28.7109 36.2902 28.6934C36.1856 28.6759 36.0635 28.6627 35.9152 28.654C35.8702 28.6492 35.8212 28.6419 35.769 28.634C35.7254 28.6275 35.6795 28.6206 35.6318 28.6146C35.5272 28.6015 35.4487 28.5665 35.3964 28.5139C35.3746 28.492 35.3484 28.422 35.3179 28.3082C35.2874 28.1944 35.2568 28.0674 35.2307 27.9318C35.2102 27.8255 35.1924 27.7247 35.1752 27.6271L35.1609 27.5466C35.1391 27.424 35.1304 27.3452 35.1304 27.3014V18.2405C35.2786 18.1924 35.4356 18.1442 35.6013 18.1004C35.7713 18.0611 35.9414 18.0392 36.1202 18.0392C36.4864 18.0392 36.8135 18.1223 37.1012 18.2974C37.389 18.4725 37.6289 18.6957 37.8294 18.9671C38.0257 19.2385 38.1783 19.545 38.2829 19.8951C38.3876 20.2453 38.4399 20.5911 38.4399 20.9369C38.4399 21.7029 38.2262 22.3026 37.7902 22.7316C37.3542 23.1649 36.7524 23.3794 35.9763 23.3794H35.8193C35.767 23.3794 35.7147 23.3707 35.6623 23.3619C35.61 23.3619 35.5664 23.3838 35.5359 23.4188C35.5054 23.4538 35.4836 23.502 35.4748 23.5589C35.4661 23.6158 35.4661 23.6683 35.4836 23.7165C35.4967 23.7646 35.5315 23.7953 35.5839 23.804C35.8673 23.8872 36.1725 23.9309 36.4952 23.9309C36.9879 23.9309 37.4414 23.8215 37.86 23.607C38.2786 23.3925 38.6361 23.108 38.9413 22.7578ZM62.8713 27.7914C62.7841 28.1591 62.6576 28.483 62.5006 28.7675C62.4701 28.8201 62.4221 28.8463 62.3611 28.8463C61.7027 28.9514 61.0399 29.0389 60.3771 29.1046C59.7144 29.1746 59.0385 29.2053 58.3583 29.2053C57.4993 29.2053 56.7057 29.0652 55.9819 28.7851C55.2537 28.5093 54.6302 28.111 54.1069 27.6032C53.5837 27.0954 53.1738 26.4826 52.873 25.7735C52.5765 25.0644 52.4239 24.2809 52.4239 23.4186C52.4239 22.495 52.5983 21.6064 52.9515 20.7484C53.3003 19.8905 53.8017 19.1332 54.4514 18.4723C54.6912 18.2184 54.9965 18.0083 55.3627 17.8419C55.729 17.6756 56.1171 17.5355 56.5226 17.4305C56.9325 17.3254 57.3423 17.251 57.7566 17.2116C58.1708 17.1679 58.5458 17.1503 58.8772 17.1503C59.2652 17.1503 59.6446 17.1722 60.0239 17.2204C60.3989 17.2685 60.7739 17.3167 61.1402 17.3692C61.4105 17.413 61.6852 17.4524 61.9556 17.4874C62.2259 17.5224 62.4963 17.553 62.7579 17.5749C62.8625 17.5749 62.9149 17.6231 62.9149 17.715C62.9061 18.1965 62.8713 18.678 62.8189 19.1551C62.7666 19.6322 62.6968 20.1093 62.614 20.5821C62.5922 20.6652 62.5311 20.709 62.4265 20.709C62.3306 20.709 62.2739 20.6652 62.2521 20.5821C62.178 20.1312 62.0384 19.7329 61.8291 19.3915C61.6198 19.0501 61.3626 18.7655 61.0617 18.5335C60.7565 18.3015 60.412 18.1308 60.0239 18.0126C59.6359 17.8988 59.2216 17.8376 58.7856 17.8376C58.0618 17.8376 57.4121 17.9557 56.8322 18.1834C56.2522 18.411 55.7552 18.7393 55.3409 19.1507C54.9267 19.5666 54.6084 20.0699 54.3816 20.6653C54.1549 21.2606 54.0459 21.9172 54.0459 22.6438C54.0459 23.401 54.1811 24.132 54.4471 24.8324C54.713 25.5371 55.088 26.1631 55.5677 26.7059C56.0473 27.253 56.6185 27.6907 57.2726 28.0147C57.9266 28.343 58.6461 28.5049 59.4309 28.5049C59.8801 28.5049 60.2638 28.4568 60.5864 28.3648C60.9047 28.2685 61.1838 28.1241 61.428 27.9315C61.6678 27.7389 61.8814 27.4938 62.0646 27.2005C62.2477 26.9072 62.4352 26.5658 62.6227 26.1762L62.9672 26.2069C62.9977 26.3863 63.0152 26.5702 63.0152 26.7584C63.0064 27.0823 62.9585 27.4237 62.8713 27.7914ZM68.9619 29.0659C69.0447 29.0659 69.1014 29.044 69.1276 28.9958C69.1538 28.9477 69.1407 28.8995 69.0971 28.8514C69.0011 28.7551 68.8965 28.7026 68.7831 28.6851C68.6698 28.6719 68.552 28.6632 68.4387 28.6632C68.3864 28.6632 68.3166 28.6544 68.2337 28.6325C68.1509 28.615 68.0811 28.5931 68.0288 28.5712C67.9983 28.5275 67.9634 28.4487 67.9285 28.3261C67.8936 28.2079 67.8587 28.0766 67.8282 27.9409C67.7977 27.8052 67.7715 27.6783 67.7497 27.5557C67.7279 27.4376 67.7192 27.35 67.7192 27.2975V18.613C67.7192 18.2847 67.8064 18.0702 67.9852 17.9652C68.1596 17.8601 68.3907 17.7814 68.6741 17.7288C68.7788 17.7069 68.8224 17.6588 68.8137 17.58C68.8006 17.5012 68.7439 17.453 68.6392 17.4443C68.3384 17.4224 68.0375 17.418 67.7454 17.4268C67.4489 17.4399 67.1567 17.4443 66.8646 17.4443C66.5593 17.4443 66.2585 17.4443 65.962 17.4355C65.6655 17.4268 65.3646 17.4356 65.0594 17.4574C64.9678 17.4662 64.9199 17.5143 64.9199 17.5975C64.9199 17.6807 64.9635 17.7288 65.0594 17.7376C65.3298 17.7682 65.5652 17.8426 65.7658 17.9652C65.962 18.0834 66.0623 18.3022 66.0623 18.6174V27.2231C66.0623 27.3281 66.0579 27.4551 66.0405 27.6083C66.023 27.7615 65.9925 27.9103 65.9445 28.0591C65.9009 28.2036 65.8399 28.3305 65.7658 28.4355C65.6917 28.5406 65.5957 28.5932 65.4823 28.5932C65.4518 28.5932 65.3646 28.615 65.2251 28.6501C65.0812 28.6851 64.9853 28.6938 64.9329 28.6719C64.8893 28.6501 64.8501 28.6544 64.8065 28.6807C64.7629 28.7069 64.7324 28.7376 64.7106 28.7814C64.6888 28.8251 64.68 28.8645 64.68 28.9083C64.68 28.9521 64.6975 28.9827 64.7411 29.0046C64.8152 29.0353 65.0376 29.044 65.4082 29.0265C65.7789 29.0134 66.1931 29.0046 66.6553 29.0046C66.9387 29.0046 67.2178 29.009 67.4881 29.0133C67.7584 29.0177 68.007 29.0265 68.225 29.0352C68.3033 29.0384 68.3854 29.0421 68.4712 29.0459C68.6242 29.0528 68.7886 29.0603 68.9619 29.0659ZM77.8791 17.6281C77.8747 17.7244 77.866 17.8251 77.8573 17.9258C77.8534 17.9924 77.8486 18.0598 77.8438 18.1285L77.8437 18.1291C77.8377 18.2138 77.8316 18.3005 77.8268 18.3898C77.8181 18.5517 77.7963 18.7093 77.7701 18.8538C77.7439 19.0026 77.7047 19.1339 77.6524 19.2565C77.6 19.379 77.5303 19.471 77.4474 19.5322C77.3733 19.5629 77.3079 19.5673 77.2512 19.5497C77.1945 19.5279 77.164 19.4885 77.164 19.4228C77.164 18.972 77.0419 18.6568 76.8021 18.4773C76.5623 18.2978 76.2352 18.2103 75.8297 18.2103C75.651 18.2103 75.4722 18.2191 75.2978 18.241C75.119 18.2628 74.9359 18.2847 74.7484 18.3022C74.5827 18.3241 74.4388 18.346 74.3254 18.3635C74.2121 18.3854 74.0682 18.3941 73.9025 18.3941V22.43H76.6015C76.6844 22.43 76.789 22.3862 76.9155 22.2943C77.0419 22.2067 77.1291 22.1279 77.1815 22.0667C77.2425 22.0141 77.3123 21.9966 77.3864 22.0185C77.4605 22.0404 77.4954 22.0886 77.4954 22.1586C77.4736 22.5482 77.4387 22.929 77.3864 23.3098C77.3341 23.6863 77.2643 24.0627 77.1815 24.4304C77.1727 24.4742 77.1466 24.5004 77.1117 24.5179C77.0768 24.5354 77.0376 24.5398 76.994 24.5354C76.9504 24.5311 76.9111 24.5179 76.8762 24.496C76.8413 24.4741 76.8195 24.4435 76.8195 24.3997C76.8283 23.9489 76.7236 23.6425 76.4969 23.4761C76.2701 23.3142 75.9562 23.231 75.5463 23.231C75.4541 23.231 75.3658 23.2351 75.2739 23.2393L75.2629 23.2398C75.1811 23.2435 75.0993 23.2504 75.0121 23.2578L74.9664 23.2617L74.9384 23.2638C74.8351 23.2718 74.7357 23.2795 74.6437 23.2835C74.5434 23.2879 74.4388 23.2923 74.3211 23.2923H74.1031C74.0507 23.2923 73.9809 23.2879 73.8981 23.2748V27.3106C73.8981 27.814 73.9722 28.1861 74.1248 28.4224C74.2775 28.6588 74.6132 28.7682 75.1365 28.7463L75.167 29.0133C74.5391 29.044 73.9068 29.0615 73.2658 29.0615C72.6074 29.0615 71.9578 29.044 71.3211 29.0133C71.2165 29.0133 71.1598 28.974 71.1554 28.8952C71.1511 28.8164 71.199 28.7682 71.3037 28.7463C71.5348 28.7026 71.7136 28.6588 71.8357 28.6063C71.9621 28.5537 72.0537 28.4793 72.1191 28.3786C72.1801 28.278 72.2194 28.1467 72.2281 27.9847C72.2368 27.8227 72.2455 27.6126 72.2455 27.3631V18.6349C72.2455 18.4773 72.2281 18.3548 72.1976 18.2628C72.1671 18.1753 72.1234 18.1053 72.0711 18.0571C72.0188 18.009 71.9578 17.9739 71.8923 17.9564C71.8226 17.9345 71.7484 17.9127 71.6656 17.8952C71.5697 17.8733 71.4738 17.847 71.3691 17.8076C71.2645 17.7726 71.1598 17.7201 71.0552 17.6588C70.9723 17.615 70.9418 17.5625 70.968 17.4924C70.9941 17.4224 71.0508 17.3918 71.1337 17.3918C71.8139 17.4137 72.4854 17.4268 73.1525 17.4312C73.8153 17.4356 74.4911 17.4399 75.1713 17.4399H76.8195C77.0899 17.4399 77.3689 17.383 77.6524 17.2648L77.9053 17.3918C77.8951 17.4395 77.8902 17.4979 77.8844 17.5669L77.8791 17.6281ZM83.8963 29.0659C83.9791 29.0659 84.0358 29.044 84.062 28.9958C84.0881 28.9477 84.0751 28.8995 84.0314 28.8514C83.9355 28.7551 83.8309 28.7026 83.7175 28.6851C83.6041 28.6719 83.4864 28.6632 83.3731 28.6632C83.3207 28.6632 83.251 28.6544 83.1681 28.6325C83.0853 28.615 83.0155 28.5931 82.9632 28.5712C82.9327 28.5275 82.8978 28.4487 82.8629 28.3261C82.828 28.2079 82.7931 28.0766 82.7626 27.9409C82.7321 27.8052 82.7059 27.6783 82.6841 27.5557C82.6623 27.4376 82.6536 27.35 82.6536 27.2975V18.613C82.6536 18.2847 82.7408 18.0702 82.9196 17.9652C83.094 17.8601 83.3251 17.7814 83.6085 17.7288C83.7132 17.7069 83.7568 17.6588 83.748 17.58C83.735 17.5012 83.6783 17.453 83.5736 17.4443C83.2728 17.4224 82.9719 17.418 82.6797 17.4268C82.3832 17.4399 82.0911 17.4443 81.799 17.4443C81.4937 17.4443 81.1929 17.4443 80.8964 17.4355C80.5998 17.4268 80.299 17.4356 79.9938 17.4574C79.9022 17.4662 79.8543 17.5143 79.8543 17.5975C79.8543 17.6807 79.8979 17.7288 79.9938 17.7376C80.2641 17.7682 80.4996 17.8426 80.7002 17.9652C80.8964 18.0834 80.9967 18.3022 80.9967 18.6174V27.2231C80.9967 27.3281 80.9923 27.4551 80.9749 27.6083C80.9574 27.7615 80.9269 27.9103 80.8789 28.0591C80.8353 28.2036 80.7743 28.3305 80.7002 28.4355C80.626 28.5406 80.5301 28.5932 80.4167 28.5932C80.3862 28.5932 80.299 28.615 80.1595 28.6501C80.0156 28.6851 79.9196 28.6938 79.8673 28.6719C79.8237 28.6501 79.7845 28.6544 79.7409 28.6807C79.6973 28.7069 79.6667 28.7376 79.6449 28.7814C79.6231 28.8251 79.6144 28.8645 79.6144 28.9083C79.6144 28.9521 79.6319 28.9827 79.6755 29.0046C79.7496 29.0353 79.972 29.044 80.3426 29.0265C80.7132 29.0134 81.1275 29.0046 81.5897 29.0046C81.8731 29.0046 82.1521 29.009 82.4225 29.0133C82.6928 29.0177 82.9414 29.0265 83.1594 29.0352C83.2376 29.0384 83.3198 29.0421 83.4055 29.0459C83.5586 29.0528 83.723 29.0603 83.8963 29.0659ZM95.9965 27.7914C95.9093 28.1591 95.7829 28.483 95.6259 28.7675C95.5954 28.8201 95.5474 28.8463 95.4864 28.8463C94.8279 28.9514 94.1652 29.0389 93.5024 29.1046C92.8396 29.1746 92.1638 29.2053 91.4836 29.2053C90.6246 29.2053 89.831 29.0652 89.1072 28.7851C88.379 28.5093 87.7555 28.111 87.2322 27.6032C86.709 27.0954 86.2991 26.4826 85.9982 25.7735C85.7017 25.0644 85.5491 24.2809 85.5491 23.4186C85.5491 22.495 85.7235 21.6064 86.0767 20.7484C86.4255 19.8905 86.927 19.1332 87.5767 18.4723C87.8165 18.2184 88.1217 18.0083 88.488 17.8419C88.8543 17.6756 89.2423 17.5355 89.6479 17.4305C90.0577 17.3254 90.4676 17.251 90.8818 17.2116C91.2961 17.1679 91.6711 17.1503 92.0024 17.1503C92.3905 17.1503 92.7699 17.1722 93.1492 17.2204C93.5242 17.2685 93.8992 17.3167 94.2655 17.3692C94.5358 17.413 94.8105 17.4524 95.0809 17.4874C95.3512 17.5224 95.6215 17.553 95.8831 17.5749C95.9878 17.5749 96.0401 17.6231 96.0401 17.715C96.0314 18.1965 95.9965 18.678 95.9442 19.1551C95.8919 19.6322 95.8221 20.1093 95.7393 20.5821C95.7175 20.6652 95.6564 20.709 95.5518 20.709C95.4558 20.709 95.3992 20.6652 95.3774 20.5821C95.3032 20.1312 95.1637 19.7329 94.9544 19.3915C94.7451 19.0501 94.4879 18.7655 94.187 18.5335C93.8818 18.3015 93.5373 18.1308 93.1492 18.0126C92.7612 17.8988 92.3469 17.8376 91.9109 17.8376C91.1871 17.8376 90.5374 17.9557 89.9574 18.1834C89.3775 18.411 88.8804 18.7393 88.4662 19.1507C88.052 19.5666 87.7337 20.0699 87.5069 20.6653C87.2802 21.2606 87.1712 21.9172 87.1712 22.6438C87.1712 23.401 87.3063 24.132 87.5723 24.8324C87.8383 25.5371 88.2133 26.1631 88.6929 26.7059C89.1726 27.253 89.7438 27.6907 90.3978 28.0147C91.0519 28.343 91.7714 28.5049 92.5562 28.5049C93.0053 28.5049 93.389 28.4568 93.7117 28.3648C94.03 28.2685 94.3091 28.1241 94.5532 27.9315C94.7931 27.7389 95.0067 27.4938 95.1899 27.2005C95.373 26.9072 95.5605 26.5658 95.748 26.1762L96.0925 26.2069C96.123 26.3863 96.1404 26.5702 96.1404 26.7584C96.1317 27.0823 96.0837 27.4237 95.9965 27.7914ZM115.343 18.018C115.374 18.0092 115.409 17.9873 115.444 17.9567C115.469 17.9371 115.492 17.921 115.51 17.9086C115.52 17.9016 115.529 17.8958 115.535 17.8911L115.505 17.6241C115.13 17.6065 114.75 17.5978 114.375 17.6021L114.347 17.6025C113.978 17.6067 113.616 17.6109 113.259 17.6109H112.13C112.047 17.6109 111.99 17.6372 111.964 17.6897C111.938 17.7422 111.96 17.786 112.021 17.8298C112.073 17.8954 112.147 17.9348 112.234 17.9567L112.322 17.9745C112.389 17.9881 112.462 18.003 112.54 18.018C112.62 18.0327 112.698 18.0506 112.778 18.0689L112.823 18.0793C112.915 18.1012 113.002 18.1449 113.08 18.215C113.159 18.2806 113.224 18.3857 113.276 18.5214C113.329 18.6615 113.355 18.8497 113.355 19.0904C113.355 20.246 113.377 21.3929 113.412 22.5397C113.451 23.6822 113.468 24.8334 113.468 25.989C113.468 26.0721 113.464 26.1553 113.46 26.2341C113.455 26.3129 113.451 26.396 113.451 26.4792C110.686 23.4239 107.857 20.408 104.957 17.4358C104.87 17.3745 104.787 17.3745 104.704 17.4358C104.643 17.4971 104.591 17.5584 104.547 17.6153C104.508 17.6766 104.486 17.7466 104.486 17.8298V27.7574C104.486 28.02 104.412 28.2345 104.259 28.3965C104.107 28.5584 103.91 28.6678 103.671 28.7204L103.453 28.7685C103.357 28.786 103.304 28.8342 103.287 28.9086C103.27 28.9786 103.309 29.0268 103.405 29.0487C103.658 29.1012 103.924 29.1056 104.207 29.0705C104.49 29.0355 104.769 29.0224 105.04 29.0312L107.032 29.0793C107.12 29.0793 107.172 29.0487 107.207 28.9918C107.242 28.9348 107.22 28.8867 107.146 28.8429C107.032 28.7685 106.919 28.7116 106.81 28.6766C106.701 28.6372 106.592 28.6109 106.487 28.5891C106.391 28.5672 106.3 28.5365 106.204 28.5015C106.108 28.4665 106.03 28.4052 105.96 28.322C105.89 28.2389 105.833 28.1251 105.794 27.9762C105.755 27.8274 105.733 27.6304 105.733 27.3765C105.733 26.8513 105.724 26.3304 105.703 25.8095C105.686 25.3131 105.665 24.8088 105.645 24.3004L105.645 24.2993L105.644 24.2982L105.644 24.2971L105.644 24.2959L105.644 24.2947L105.644 24.2934L105.642 24.2249C105.624 23.7084 105.602 23.1919 105.58 22.6798C105.559 22.1676 105.55 21.6467 105.55 21.1215C105.55 20.8501 105.567 20.5612 105.598 20.2548C105.785 20.4649 105.942 20.64 106.069 20.7757C106.191 20.9113 106.344 21.0864 106.522 21.2965C107.12 21.9619 107.726 22.636 108.345 23.3232C108.96 24.0104 109.588 24.6933 110.22 25.3718C110.852 26.0502 111.497 26.7112 112.152 27.3503C112.806 27.9894 113.464 28.5934 114.135 29.1625C114.197 29.2019 114.262 29.215 114.332 29.1931C114.401 29.1712 114.441 29.1274 114.449 29.0662C114.585 27.3196 114.646 25.5731 114.628 23.8178C114.615 22.0669 114.606 20.3117 114.606 18.5564C114.606 18.3769 114.689 18.2544 114.851 18.1931C115.012 18.1274 115.178 18.0705 115.343 18.018ZM140.127 29.4154C140.402 29.4154 140.668 29.3803 140.93 29.3191C141.191 29.2534 141.444 29.1659 141.697 29.0608L141.601 28.7938C141.204 28.8551 140.812 28.785 140.424 28.5793C140.036 28.3736 139.657 28.0934 139.286 27.7433C138.915 27.3887 138.558 26.9904 138.218 26.5439C137.878 26.0974 137.551 25.6641 137.237 25.2438C137.18 25.1678 137.124 25.0922 137.068 25.0167L137.068 25.0167C136.937 24.8401 136.807 24.6644 136.678 24.4866C136.495 24.2327 136.317 24.0182 136.151 23.8387C136.382 23.6199 136.604 23.3748 136.818 23.1078C137.032 22.8407 137.224 22.5562 137.389 22.2498C137.559 21.9478 137.694 21.6326 137.799 21.3131C137.904 20.9936 137.956 20.6696 137.956 20.3457C137.956 20.2756 137.952 20.2016 137.948 20.1237L137.948 20.1233L137.947 20.1093C137.943 20.0262 137.93 19.9561 137.908 19.9036C137.782 19.3783 137.59 18.9538 137.328 18.6342C137.067 18.3147 136.757 18.0652 136.395 17.8945C136.033 17.7238 135.641 17.6055 135.218 17.5486C134.795 17.4917 134.363 17.4611 133.923 17.4611H133.09C132.994 17.4611 132.902 17.4655 132.815 17.4699C132.728 17.4742 132.636 17.4786 132.54 17.4786C132.37 17.4786 132.209 17.483 132.052 17.4874C131.895 17.4918 131.729 17.4874 131.551 17.4786H130.513H130.23C130.155 17.4786 130.103 17.5005 130.073 17.5355C130.042 17.5749 130.042 17.6187 130.073 17.6712C130.103 17.7763 130.173 17.8463 130.277 17.8769C130.382 17.9076 130.504 17.9295 130.652 17.9382C130.722 17.947 130.796 17.9601 130.87 17.9776C130.945 17.9951 131.014 18.0258 131.075 18.0739C131.136 18.1221 131.193 18.1965 131.232 18.3015C131.272 18.4066 131.293 18.5467 131.293 18.7261V27.4544C131.293 27.7039 131.285 27.914 131.276 28.0759C131.267 28.2379 131.232 28.3648 131.176 28.4611C131.119 28.553 131.027 28.6274 130.901 28.68C130.779 28.7325 130.6 28.7763 130.369 28.8201C130.264 28.8419 130.216 28.8901 130.221 28.9689C130.225 29.0477 130.282 29.0958 130.386 29.1046C131.023 29.1352 131.664 29.1527 132.301 29.1527H134.215C134.302 29.1527 134.359 29.1265 134.389 29.0739C134.42 29.0214 134.402 28.9689 134.341 28.9164C134.245 28.8332 134.141 28.7807 134.019 28.7588C133.897 28.7369 133.779 28.7194 133.665 28.7106L133.65 28.708C133.599 28.6994 133.531 28.6879 133.452 28.68C133.36 28.6668 133.29 28.6537 133.238 28.6318C133.203 28.6099 133.173 28.5399 133.142 28.4261C133.107 28.3123 133.077 28.181 133.046 28.0409C133.016 27.8965 132.994 27.7652 132.977 27.6382C132.963 27.5113 132.955 27.4237 132.955 27.3712V24.4384C133.038 24.4253 133.125 24.4209 133.221 24.4209H133.504C133.722 24.4209 133.971 24.4384 134.25 24.4822C134.524 24.526 134.76 24.631 134.947 24.7974C135.196 25.0162 135.44 25.2876 135.676 25.6072C135.911 25.9267 136.151 26.255 136.391 26.592C136.631 26.9379 136.879 27.2793 137.136 27.6163C137.394 27.9534 137.673 28.2554 137.969 28.5224C138.266 28.7894 138.593 29.0083 138.941 29.1703C139.295 29.3322 139.687 29.4154 140.127 29.4154ZM135.636 19.05C135.837 19.3389 135.985 19.6672 136.085 20.0349C136.186 20.4026 136.238 20.7703 136.238 21.138C136.238 21.3262 136.225 21.5188 136.199 21.7202C136.173 21.9171 136.125 22.1141 136.064 22.3024C135.998 22.495 135.92 22.67 135.82 22.832C135.719 22.9939 135.593 23.134 135.449 23.2478C135.301 23.366 135.113 23.4317 134.882 23.4535C134.655 23.4754 134.45 23.4842 134.272 23.4842C133.822 23.4842 133.386 23.4492 132.968 23.3879V18.2052C133.251 18.1133 133.543 18.0652 133.849 18.0652C134.245 18.0652 134.594 18.1571 134.891 18.3409C135.187 18.5248 135.436 18.7611 135.636 19.05ZM149.899 18.6742C149.873 18.9631 149.829 19.2433 149.764 19.519C149.742 19.5934 149.681 19.6284 149.576 19.6284C149.48 19.6284 149.424 19.5934 149.402 19.519C149.306 19.0375 149.105 18.7136 148.796 18.556C148.486 18.3985 148.111 18.3197 147.675 18.3197C147.562 18.3197 147.457 18.324 147.361 18.3284C147.279 18.3322 147.197 18.3391 147.109 18.3465L147.065 18.3503C146.969 18.3591 146.864 18.3678 146.742 18.3722L146.678 18.3745C146.585 18.378 146.505 18.3809 146.437 18.3809H146.171C146.088 18.3809 146.01 18.3766 145.935 18.3634V27.3149C145.935 27.3453 145.944 27.4232 145.957 27.54L145.957 27.5425C145.966 27.6074 145.974 27.6724 145.983 27.7379L145.983 27.7384L145.983 27.7388L145.983 27.7391L145.983 27.7411C145.99 27.7982 145.997 27.8559 146.005 27.9146C146.023 28.0415 146.04 28.1553 146.062 28.2604C146.084 28.3654 146.097 28.4223 146.11 28.4355C146.214 28.5405 146.319 28.6018 146.424 28.6237C146.515 28.6427 146.602 28.6551 146.683 28.6666L146.72 28.6719C146.869 28.6806 146.991 28.6981 147.095 28.72C147.2 28.7419 147.278 28.8032 147.331 28.9082C147.361 28.9607 147.361 29.0045 147.331 29.0439C147.3 29.0789 147.248 29.1008 147.174 29.1008C146.537 29.1008 145.901 29.1052 145.268 29.1183C144.636 29.1271 143.999 29.1227 143.363 29.1008C143.258 29.0921 143.201 29.0483 143.188 28.9739C143.18 28.8995 143.223 28.8513 143.328 28.8338C143.546 28.79 143.72 28.7463 143.847 28.6981C143.973 28.65 144.065 28.5799 144.13 28.4836C144.191 28.3873 144.231 28.2691 144.248 28.1203C144.265 27.9715 144.27 27.7745 144.27 27.5206V18.3328H141.837C141.531 18.3328 141.265 18.4422 141.034 18.6567C140.803 18.8712 140.625 19.1163 140.502 19.3877C140.472 19.449 140.411 19.4796 140.324 19.4753C140.236 19.4709 140.18 19.4315 140.158 19.3571L140.153 19.3303C140.146 19.2971 140.14 19.2666 140.136 19.2389C140.132 19.2039 140.127 19.1557 140.127 19.1032C140.127 18.915 140.158 18.7049 140.223 18.4816C140.284 18.254 140.354 18.0264 140.428 17.7944C140.459 17.6981 140.485 17.6105 140.498 17.5274L140.498 17.5273L140.498 17.5271C140.516 17.444 140.533 17.3609 140.555 17.2735C140.577 17.221 140.616 17.186 140.672 17.1728C140.729 17.1553 140.786 17.1597 140.838 17.1816C140.899 17.2254 140.991 17.2647 141.104 17.2998C141.218 17.3348 141.344 17.3698 141.475 17.4004C141.606 17.4311 141.732 17.4573 141.85 17.4705C141.972 17.488 142.063 17.4924 142.124 17.4924H148.844C148.905 17.4924 148.988 17.4792 149.088 17.453C149.138 17.44 149.185 17.428 149.231 17.4166L149.232 17.4164L149.232 17.4163C149.278 17.4048 149.321 17.3939 149.363 17.3829C149.415 17.361 149.476 17.3479 149.541 17.3435C149.611 17.3392 149.668 17.3304 149.72 17.3217C149.772 17.3129 149.82 17.3173 149.868 17.3392C149.916 17.361 149.938 17.3961 149.938 17.4486V17.7944C149.938 18.092 149.925 18.3853 149.899 18.6742ZM163.656 29.0832C163.743 29.0832 163.8 29.0613 163.83 29.0132C163.861 28.965 163.848 28.9169 163.778 28.8644C163.682 28.7724 163.577 28.7111 163.455 28.6849L163.434 28.6809C163.319 28.6604 163.209 28.6406 163.102 28.6323C163.05 28.6236 162.984 28.6148 162.906 28.6105C162.827 28.6061 162.779 28.5929 162.758 28.5711C162.714 28.5623 162.675 28.4966 162.631 28.3828C162.592 28.269 162.553 28.1377 162.522 27.9976C162.492 27.8532 162.466 27.7175 162.444 27.5862C162.422 27.4549 162.413 27.363 162.413 27.3104V18.6128C162.413 18.2845 162.5 18.0744 162.679 17.9738C162.858 17.8731 163.085 17.7987 163.355 17.7461C163.451 17.7242 163.495 17.6761 163.49 17.5973C163.486 17.5185 163.438 17.4704 163.342 17.4616C162.736 17.4179 162.125 17.3959 161.515 17.3828C160.905 17.3697 160.29 17.3653 159.671 17.3653C159.618 17.3653 159.575 17.3828 159.531 17.4135C159.487 17.4441 159.474 17.4791 159.483 17.5229C159.501 17.663 159.588 17.7461 159.74 17.7768C159.893 17.8074 160.046 17.8293 160.203 17.8381C160.255 17.8381 160.316 17.8468 160.377 17.8687C160.534 17.9125 160.639 18.0044 160.691 18.1445C160.743 18.2889 160.769 18.4465 160.769 18.626V22.2328H154.538V18.6085C154.538 18.3371 154.63 18.1313 154.813 17.9956C154.996 17.8599 155.21 17.7855 155.45 17.7768C155.541 17.7768 155.594 17.7286 155.598 17.6411C155.602 17.5535 155.559 17.5054 155.463 17.4922C154.857 17.4397 154.251 17.4047 153.649 17.3916C153.047 17.3784 152.441 17.3697 151.822 17.3697C151.748 17.3697 151.691 17.3872 151.656 17.431C151.617 17.4704 151.617 17.5185 151.648 17.5711C151.691 17.6761 151.761 17.7461 151.861 17.7768C151.961 17.8074 152.084 17.8293 152.232 17.8381C152.306 17.8468 152.38 17.8599 152.459 17.8774C152.537 17.895 152.611 17.9256 152.672 17.9738C152.733 18.0219 152.786 18.0963 152.82 18.2014C152.86 18.3064 152.877 18.4465 152.877 18.626V27.3542C152.877 27.6168 152.868 27.8269 152.86 27.9845C152.851 28.1421 152.812 28.2647 152.751 28.361C152.685 28.4529 152.589 28.5273 152.467 28.5798C152.345 28.6323 152.166 28.6761 151.935 28.7199C151.839 28.7418 151.796 28.7856 151.8 28.8687C151.804 28.9519 151.852 28.9957 151.948 29.0044C152.585 29.0351 153.235 29.0526 153.893 29.0526C154.534 29.0526 155.166 29.0351 155.794 29.0044C155.899 28.9957 155.942 28.9431 155.934 28.8468C155.921 28.7505 155.864 28.7111 155.759 28.7199C155.498 28.7374 155.284 28.7199 155.123 28.663C154.961 28.6061 154.835 28.5186 154.748 28.4047C154.661 28.2866 154.6 28.1377 154.569 27.9539C154.538 27.77 154.521 27.5556 154.521 27.3017V23.0163H160.769V27.3498C160.769 27.4549 160.765 27.5818 160.748 27.735C160.73 27.8882 160.7 28.0371 160.652 28.1859C160.608 28.3303 160.547 28.4573 160.473 28.5623C160.399 28.6674 160.303 28.7199 160.189 28.7199C160.124 28.7199 160.041 28.7024 159.937 28.6586C159.849 28.628 159.78 28.6499 159.723 28.7287C159.666 28.8074 159.684 28.8643 159.78 28.9081C159.862 28.9475 159.976 28.9825 160.124 29.0088C160.272 29.035 160.429 29.0569 160.595 29.0657C160.761 29.0788 160.918 29.0832 161.066 29.0832H161.441H163.656ZM180.505 17.768C180.444 17.7593 180.378 17.7549 180.317 17.7593C180.256 17.7637 180.195 17.768 180.143 17.768C180.03 17.768 179.938 17.7943 179.868 17.8468C179.798 17.8993 179.733 17.9781 179.672 18.0832C179.537 18.3152 179.393 18.6522 179.24 19.0987C179.088 19.5452 178.935 20.0354 178.787 20.5738C178.634 21.1079 178.49 21.655 178.346 22.2065L178.29 22.4281L178.29 22.4282C178.173 22.8915 178.066 23.3128 177.976 23.6948C177.932 23.8524 177.902 24.0012 177.876 24.1457C177.849 24.2857 177.819 24.4171 177.788 24.5309C177.579 25.2969 177.361 26.0717 177.139 26.8552C176.912 27.6387 176.637 28.4179 176.315 29.197C176.293 29.2583 176.24 29.2933 176.158 29.2933C176.075 29.2933 176.018 29.2671 175.983 29.2145C175.512 28.3216 175.085 27.3498 174.697 26.2993C174.309 25.2487 173.947 24.2157 173.615 23.1958C173.437 22.6793 173.284 22.2153 173.153 21.7907C173.023 21.3705 172.861 20.9065 172.674 20.4031C172.412 21.0334 172.15 21.6857 171.889 22.3641C171.627 23.0426 171.374 23.6992 171.134 24.3426C171.008 24.6884 170.864 25.0737 170.703 25.4939L170.623 25.7027L170.622 25.7051L170.62 25.7105L170.615 25.7225C170.482 26.0695 170.346 26.4229 170.21 26.7852C170.06 27.186 169.906 27.576 169.755 27.9585L169.754 27.9615L169.753 27.9634L169.753 27.9646L169.752 27.9654L169.709 28.0765C169.543 28.4967 169.386 28.8731 169.238 29.2101C169.207 29.2714 169.15 29.3021 169.072 29.2977C168.993 29.2933 168.932 29.2627 168.893 29.2101C168.558 28.1377 168.27 27.1572 168.021 26.273C167.777 25.3844 167.568 24.5046 167.402 23.6335C167.236 22.7843 167.062 21.9352 166.883 21.0904C166.704 20.2455 166.482 19.4533 166.207 18.7179C166.207 18.7091 166.199 18.6741 166.177 18.6172C166.155 18.5603 166.129 18.4946 166.098 18.4202C166.068 18.3458 166.037 18.2758 166.002 18.2057C165.967 18.1357 165.95 18.0919 165.941 18.07L165.972 18.0876C165.889 18.0044 165.797 17.9431 165.706 17.9081C165.614 17.8731 165.518 17.8424 165.422 17.8205C165.204 17.7899 165.008 17.7155 164.842 17.6017C164.76 17.5579 164.733 17.5098 164.764 17.4529C164.794 17.396 164.86 17.3653 164.951 17.3653C165.588 17.3653 166.229 17.3697 166.866 17.3828L166.881 17.3831C167.512 17.3962 168.148 17.4093 168.78 17.431C168.885 17.4397 168.941 17.4835 168.954 17.5579C168.963 17.6323 168.924 17.6805 168.828 17.698C168.745 17.7286 168.68 17.7505 168.632 17.7593C168.61 17.7632 168.588 17.768 168.566 17.773L168.566 17.773C168.54 17.779 168.512 17.7851 168.483 17.7899L168.483 17.79C168.4 17.8119 168.318 17.8337 168.239 17.8599C168.161 17.8862 168.091 17.9256 168.026 17.9781C168.078 18.4509 168.152 18.9849 168.244 19.5758L168.337 20.1554L168.337 20.1579C168.402 20.5639 168.468 20.974 168.536 21.388C168.636 22.0008 168.736 22.6005 168.841 23.1827C168.946 23.7648 169.041 24.2857 169.133 24.741C169.165 24.9087 169.199 25.0836 169.234 25.2654C169.295 25.577 169.359 25.9088 169.425 26.2599C169.656 25.6602 169.861 25.1218 170.044 24.6359C170.228 24.1544 170.437 23.5985 170.672 22.9726C170.88 22.4194 171.095 21.8594 171.314 21.2896L171.4 21.0641C171.653 20.4163 171.898 19.7816 172.137 19.1556C172.377 18.5297 172.591 17.9781 172.783 17.4922C172.813 17.431 172.865 17.396 172.94 17.396C173.014 17.396 173.07 17.4222 173.114 17.4747C173.563 18.3983 173.982 19.4139 174.37 20.5169C174.758 21.62 175.133 22.7231 175.499 23.8261C175.582 24.08 175.656 24.3076 175.717 24.5134C175.768 24.6836 175.821 24.8479 175.873 25.0061L175.905 25.1043C175.966 25.2925 176.031 25.4807 176.101 25.6733C176.171 25.8659 176.245 26.0717 176.328 26.3036C176.506 25.7258 176.698 25.078 176.899 24.3558C177.104 23.6379 177.291 22.9025 177.466 22.1496C177.64 21.3968 177.784 20.6701 177.897 19.9654C178.011 19.2607 178.072 18.6347 178.072 18.0919C178.072 17.9562 178.002 17.8687 177.858 17.8337C177.714 17.7987 177.575 17.768 177.426 17.7461L177.416 17.744C177.376 17.736 177.34 17.7286 177.3 17.7286C177.269 17.7286 177.243 17.7242 177.221 17.7111C177.126 17.6892 177.082 17.6411 177.086 17.5623C177.091 17.4835 177.143 17.4397 177.235 17.4266C177.54 17.396 177.841 17.396 178.146 17.4266C178.451 17.4572 178.752 17.4747 179.057 17.4747C179.319 17.4747 179.576 17.4529 179.833 17.4135C180.091 17.3697 180.339 17.3916 180.579 17.4747L180.505 17.768ZM188.51 28.5138C188.54 28.2599 188.575 28.0104 188.61 27.7652C188.645 27.5201 188.697 27.275 188.758 27.0299C188.767 26.9905 188.754 26.9554 188.719 26.9292C188.684 26.9029 188.645 26.8854 188.601 26.881C188.558 26.8767 188.518 26.881 188.475 26.8898C188.431 26.8986 188.405 26.9248 188.396 26.9686C188.283 27.4413 188.061 27.8003 187.729 28.041C187.402 28.2818 187.01 28.4043 186.561 28.4043C186.212 28.4043 185.854 28.3299 185.484 28.1898C185.109 28.0498 184.83 27.8134 184.642 27.4895V23.2348H184.908H185.475C185.702 23.2348 185.937 23.2392 186.173 23.2567C186.408 23.2742 186.622 23.3005 186.822 23.3355C187.023 23.3705 187.154 23.423 187.215 23.4843C187.267 23.5281 187.306 23.5937 187.332 23.69C187.359 23.7863 187.389 23.8826 187.42 23.9745C187.441 24.0358 187.472 24.1102 187.507 24.1934C187.542 24.2766 187.594 24.351 187.655 24.4123C187.72 24.4648 187.786 24.4823 187.86 24.4604C187.934 24.4385 187.969 24.3948 187.969 24.3335C188 23.922 188.048 23.5237 188.109 23.1341C188.126 22.9784 188.147 22.8185 188.169 22.6584L188.169 22.6575L188.169 22.6567L188.17 22.6526C188.187 22.4907 188.209 22.3287 188.231 22.1711C188.244 22.1186 188.222 22.0748 188.17 22.0442C188.117 22.0135 188.056 22.0048 187.995 22.0135C187.943 22.0223 187.869 22.0486 187.782 22.0836L187.743 22.101L187.7 22.1198L187.675 22.1305L187.671 22.1323L187.67 22.1327C187.61 22.159 187.545 22.1876 187.476 22.2193C187.372 22.2718 187.267 22.3156 187.162 22.355C187.058 22.3944 186.979 22.4119 186.927 22.4119H184.62V18.2053C184.703 18.2272 184.76 18.2316 184.786 18.2229C184.812 18.2097 184.869 18.2053 184.952 18.2053H185.283C185.401 18.2053 185.51 18.1966 185.614 18.1878C185.71 18.1747 185.802 18.1703 185.898 18.1703H186.164C186.591 18.1703 186.944 18.2447 187.223 18.3979C187.502 18.5511 187.659 18.8707 187.703 19.3522C187.716 19.4353 187.773 19.4791 187.877 19.4791C187.982 19.4791 188.043 19.4353 188.065 19.3522C188.073 19.3039 188.085 19.263 188.093 19.2329L188.095 19.2252C188.098 19.2162 188.101 19.2067 188.104 19.1967C188.112 19.1731 188.12 19.1466 188.126 19.1158C188.18 18.8745 188.231 18.6262 188.285 18.3649L188.305 18.2666C188.366 17.969 188.409 17.6757 188.44 17.3824C188.453 17.3299 188.427 17.2905 188.37 17.2642C188.313 17.238 188.248 17.2336 188.174 17.2555C188.048 17.3299 187.952 17.3649 187.891 17.3649H181.865C181.777 17.3649 181.721 17.3956 181.69 17.4612C181.66 17.5269 181.686 17.575 181.769 17.6188C181.873 17.6932 181.978 17.7501 182.083 17.7939C182.187 17.8376 182.301 17.8683 182.414 17.8902C182.488 17.9077 182.558 17.9295 182.627 17.9514L182.627 17.9514L182.628 17.9515C182.693 17.969 182.758 18.004 182.815 18.0521C182.876 18.1003 182.92 18.1616 182.95 18.2491C182.981 18.3367 182.998 18.4461 182.998 18.5818V27.3582C182.998 27.5376 182.989 27.7083 182.968 27.8703C182.946 28.0323 182.902 28.1767 182.841 28.3036C182.78 28.4262 182.689 28.5269 182.567 28.6013C182.444 28.6757 182.288 28.7195 182.087 28.7282C181.982 28.7282 181.926 28.772 181.921 28.8639C181.917 28.9559 181.965 28.9996 182.069 28.9996C182.444 29.0434 182.85 29.0697 183.277 29.0784C183.709 29.0916 184.141 29.0959 184.581 29.0959C184.825 29.0959 185.065 29.0916 185.305 29.0872L185.319 29.0869L185.319 29.0869C185.559 29.0826 185.794 29.0784 186.029 29.0784H188.021L188.305 28.9996C188.388 28.9996 188.44 28.9646 188.462 28.8902L188.51 28.5138ZM196.477 27.3327C196.211 27.7441 195.871 28.0943 195.465 28.3876C195.055 28.6808 194.606 28.9128 194.113 29.0748C193.621 29.2368 193.15 29.3199 192.701 29.3199C192.483 29.3199 192.251 29.2981 192.012 29.2499C191.772 29.2018 191.549 29.1229 191.353 29.0135C191.153 28.9041 190.991 28.7553 190.861 28.5627C190.73 28.3745 190.664 28.1424 190.664 27.8711C190.664 27.7047 190.682 27.5471 190.712 27.3983C190.739 27.2668 190.773 27.1387 190.808 27.008L190.808 27.0063L190.809 27.0036L190.809 27.0028L190.821 26.9562L190.837 26.8748C190.853 26.7902 190.869 26.7087 190.882 26.6323C190.892 26.5868 190.902 26.543 190.911 26.5011C190.923 26.4503 190.934 26.4021 190.943 26.3565C190.952 26.3128 190.978 26.2865 191.013 26.269C191.048 26.2515 191.087 26.2471 191.131 26.2471C191.183 26.2471 191.227 26.2558 191.257 26.2777C191.288 26.2996 191.305 26.3303 191.305 26.374L191.288 26.6279C191.266 26.9124 191.31 27.1663 191.423 27.3939C191.536 27.6215 191.689 27.8098 191.885 27.9674C192.086 28.125 192.308 28.2431 192.561 28.3307C192.814 28.4138 193.071 28.4576 193.346 28.4576C193.586 28.4576 193.834 28.4138 194.083 28.3307C194.336 28.2475 194.562 28.125 194.767 27.9674C194.972 27.8098 195.138 27.6215 195.269 27.3983C195.4 27.1794 195.465 26.9299 195.465 26.6586C195.465 26.3959 195.404 26.1333 195.278 25.8707C195.151 25.608 194.985 25.3498 194.785 25.0915C194.584 24.8333 194.349 24.575 194.087 24.3124L193.285 23.507V23.5245C192.98 23.2312 192.679 22.9379 192.382 22.6402C192.086 22.347 191.82 22.0449 191.589 21.7429C191.358 21.4365 191.174 21.1301 191.031 20.8193C190.891 20.5085 190.817 20.1934 190.817 19.8651C190.817 19.3836 190.956 18.9677 191.231 18.6219C191.506 18.2761 191.85 17.9872 192.26 17.764C192.67 17.5364 193.106 17.3744 193.577 17.2694C194.048 17.1643 194.484 17.1118 194.881 17.1118C195.435 17.1118 195.953 17.1818 196.433 17.3175C196.516 17.3394 196.559 17.3876 196.559 17.4576V18.0266C196.559 18.3112 196.551 18.6001 196.529 18.9021C196.507 19.2041 196.424 19.4493 196.276 19.6506C196.224 19.7031 196.154 19.7206 196.071 19.6987C195.988 19.6769 195.945 19.6287 195.945 19.5587C195.945 19.296 195.901 19.0597 195.81 18.8496C195.722 18.6395 195.592 18.46 195.426 18.3155C195.26 18.1667 195.068 18.0573 194.855 17.9785C194.641 17.8997 194.405 17.8603 194.157 17.8603C193.917 17.8603 193.69 17.9041 193.472 17.9872C193.259 18.0704 193.071 18.193 192.906 18.3505C192.744 18.5081 192.613 18.6964 192.522 18.9108C192.43 19.1253 192.382 19.3661 192.382 19.6287C192.382 19.9001 192.439 20.1583 192.557 20.3991C192.67 20.6398 192.827 20.8762 193.019 21.0995C193.211 21.3271 193.433 21.5416 193.677 21.7517C193.921 21.9618 194.17 22.1763 194.423 22.3995C194.728 22.6534 195.025 22.9073 195.317 23.1699C195.609 23.4325 195.871 23.7083 196.102 23.9972C196.333 24.2861 196.516 24.5925 196.66 24.9208C196.799 25.2447 196.873 25.5993 196.873 25.9757C196.878 26.466 196.743 26.9256 196.477 27.3327ZM207.975 19.519C208.041 19.2433 208.084 18.9631 208.11 18.6742C208.136 18.3853 208.15 18.092 208.15 17.7944V17.4486C208.15 17.3961 208.128 17.361 208.08 17.3392C208.032 17.3173 207.984 17.3129 207.932 17.3217C207.879 17.3304 207.823 17.3392 207.753 17.3435C207.687 17.3479 207.626 17.361 207.574 17.3829C207.533 17.3938 207.49 17.4046 207.444 17.416L207.444 17.4161L207.443 17.4163L207.443 17.4164L207.443 17.4165L207.442 17.4167C207.396 17.4281 207.349 17.44 207.299 17.453C207.199 17.4792 207.116 17.4924 207.055 17.4924H200.336C200.275 17.4924 200.183 17.488 200.061 17.4705C199.943 17.4573 199.817 17.4311 199.686 17.4004C199.555 17.3698 199.429 17.3348 199.315 17.2998C199.202 17.2647 199.111 17.2254 199.049 17.1816C198.997 17.1597 198.94 17.1553 198.884 17.1728C198.827 17.186 198.788 17.221 198.766 17.2735C198.744 17.361 198.727 17.4442 198.709 17.5274C198.696 17.6105 198.67 17.6981 198.64 17.7944C198.565 18.0264 198.496 18.254 198.435 18.4816C198.369 18.7049 198.339 18.915 198.339 19.1032C198.339 19.1557 198.343 19.2039 198.347 19.2389C198.351 19.2663 198.357 19.2964 198.364 19.3291L198.364 19.3301L198.369 19.3571C198.391 19.4315 198.448 19.4709 198.535 19.4753C198.622 19.4796 198.683 19.449 198.714 19.3877C198.836 19.1163 199.015 18.8712 199.246 18.6567C199.477 18.4422 199.743 18.3328 200.048 18.3328H202.481V27.5206C202.481 27.7745 202.477 27.9715 202.459 28.1203C202.442 28.2691 202.403 28.3873 202.342 28.4836C202.276 28.5799 202.185 28.65 202.058 28.6981C201.932 28.7463 201.757 28.79 201.539 28.8338C201.435 28.8513 201.391 28.8995 201.4 28.9739C201.413 29.0483 201.469 29.0921 201.574 29.1008C202.211 29.1227 202.847 29.1271 203.48 29.1183C204.112 29.1052 204.748 29.1008 205.385 29.1008C205.459 29.1008 205.512 29.0789 205.542 29.0439C205.573 29.0045 205.573 28.9607 205.542 28.9082C205.49 28.8032 205.411 28.7419 205.307 28.72C205.202 28.6981 205.08 28.6806 204.932 28.6719L204.895 28.6666C204.813 28.6551 204.726 28.6427 204.635 28.6237C204.53 28.6018 204.426 28.5405 204.321 28.4355C204.308 28.4223 204.295 28.3654 204.273 28.2604C204.251 28.1553 204.234 28.0415 204.217 27.9146C204.208 27.8555 204.201 27.7974 204.194 27.7398L204.194 27.7395L204.194 27.7391L204.194 27.7376C204.186 27.6721 204.178 27.6073 204.169 27.5425L204.168 27.54C204.155 27.4232 204.147 27.3453 204.147 27.3149V18.3634C204.221 18.3766 204.299 18.3809 204.382 18.3809H204.648C204.716 18.3809 204.796 18.378 204.89 18.3745L204.953 18.3722C205.075 18.3678 205.18 18.3591 205.276 18.3503L205.321 18.3466C205.408 18.3391 205.49 18.3322 205.573 18.3284C205.669 18.324 205.773 18.3197 205.887 18.3197C206.323 18.3197 206.698 18.3985 207.007 18.556C207.317 18.7136 207.517 19.0375 207.613 19.519C207.635 19.5934 207.692 19.6284 207.788 19.6284C207.892 19.6284 207.953 19.5934 207.975 19.519ZM92.5858 60.2409C92.0058 60.381 91.4129 60.451 90.8068 60.451C89.83 60.451 88.9536 60.2715 88.1731 59.9082C87.3926 59.5449 86.6732 59.0678 86.0104 58.4725C85.3476 57.8772 84.7328 57.2075 84.1616 56.4589C83.5904 55.7104 83.041 54.9532 82.5046 54.1828C81.9683 53.4343 81.4407 52.7076 80.9175 51.9941C80.3942 51.2807 79.8536 50.681 79.2954 50.1907C78.8768 49.8187 78.358 49.5823 77.7432 49.4904C77.1283 49.3985 76.5746 49.3503 76.0862 49.3503H75.4583C75.249 49.3503 75.0528 49.3634 74.8653 49.3853V55.8987C74.8653 56.0169 74.8828 56.2138 74.9177 56.494C74.9525 56.7741 75.0049 57.0718 75.0746 57.3869C75.1444 57.7021 75.2141 57.9866 75.2839 58.2449C75.3537 58.5031 75.4234 58.6519 75.4932 58.7001C75.6109 58.7482 75.7679 58.7833 75.9641 58.8051C76.1603 58.827 76.3173 58.8533 76.435 58.8752C76.6923 58.8971 76.9539 58.9321 77.2199 58.9802C77.4859 59.0284 77.7257 59.1422 77.935 59.3304C78.0745 59.4486 78.1094 59.5624 78.0396 59.6806C77.9699 59.7988 77.8434 59.8557 77.6559 59.8557H73.4002C71.9831 59.8557 70.5616 59.8207 69.1445 59.7506C68.9134 59.7288 68.7914 59.6281 68.7783 59.453C68.7652 59.2779 68.8786 59.1685 69.1097 59.1203C69.6198 59.0284 70.0166 58.9233 70.2957 58.8051C70.5747 58.687 70.7797 58.525 70.9061 58.3149C71.0326 58.1048 71.111 57.8203 71.1328 57.457C71.1546 57.0937 71.1677 56.634 71.1677 56.0737V36.6738C71.1677 36.2755 71.1198 35.9603 71.0282 35.7283C70.9366 35.4963 70.8189 35.3256 70.6794 35.2205C70.5398 35.1155 70.3872 35.0455 70.2259 35.0104C70.0646 34.9754 69.8989 34.9448 69.7376 34.9229C69.4105 34.901 69.1314 34.8529 68.9003 34.7828C68.6693 34.7128 68.5166 34.5596 68.4469 34.3276C68.3771 34.2094 68.3771 34.1131 68.4469 34.0299C68.5166 33.9468 68.6344 33.9074 68.7957 33.9074H69.4236H71.7259C72.1227 33.9293 72.4933 33.938 72.8421 33.9249C73.1909 33.9118 73.5528 33.9074 73.9235 33.9074C74.1328 33.9074 74.3377 33.903 74.5339 33.8899C74.7302 33.8767 74.9351 33.8724 75.1444 33.8724H76.9932C77.9699 33.8724 78.9292 33.938 79.871 34.065C80.8128 34.1919 81.6849 34.4501 82.4872 34.8353C83.2895 35.2205 83.9828 35.7677 84.5627 36.4812C85.1427 37.1947 85.5743 38.1314 85.8534 39.3001C85.9014 39.4183 85.9275 39.5672 85.9406 39.7554C85.9537 39.9436 85.958 40.1187 85.958 40.2806C85.958 41.0029 85.8403 41.7208 85.6092 42.4343C85.3781 43.1477 85.0729 43.8394 84.7023 44.5178C84.3316 45.1963 83.9043 45.831 83.429 46.4263C82.9538 47.0216 82.4567 47.5644 81.9465 48.0546C82.3172 48.453 82.7096 48.9301 83.1151 49.4904C83.5206 50.0507 83.9348 50.6109 84.3534 51.1712C85.0511 52.1036 85.7793 53.0666 86.5336 54.0602C87.2879 55.0539 88.0815 55.938 88.9056 56.7216C89.7297 57.5051 90.5757 58.1223 91.4347 58.5775C92.2936 59.0328 93.1657 59.1903 94.0509 59.0503L94.2602 59.6456C93.7238 59.8995 93.1657 60.1008 92.5858 60.2409ZM81.8244 39.6153C81.6021 38.7968 81.2707 38.0701 80.8303 37.4267C80.3899 36.7832 79.8361 36.2579 79.1733 35.8509C78.5106 35.4438 77.7388 35.2381 76.8536 35.2381C76.1778 35.2381 75.5281 35.3431 74.9002 35.5532V47.0741C75.8289 47.2142 76.797 47.2842 77.7955 47.2842C78.1923 47.2842 78.6457 47.2624 79.1559 47.2142C79.6661 47.1661 80.0847 47.0172 80.4117 46.759C80.7387 46.5007 81.0091 46.1943 81.2314 45.831C81.4538 45.4677 81.6326 45.0781 81.7721 44.6579C81.9116 44.2377 82.0119 43.8043 82.0686 43.3622C82.1253 42.9201 82.1558 42.4868 82.1558 42.0666C82.1558 41.248 82.0424 40.4339 81.8244 39.6153ZM111.688 58.4543C111.758 57.894 111.832 57.3381 111.915 56.7909C111.998 56.2438 112.107 55.701 112.246 55.1626C112.268 55.0707 112.242 54.9919 112.159 54.935C112.076 54.8781 111.989 54.8431 111.897 54.8299C111.806 54.8168 111.71 54.8256 111.618 54.8474C111.527 54.8693 111.466 54.9306 111.444 55.0225C111.187 56.0731 110.694 56.8654 109.961 57.4038C109.229 57.9422 108.361 58.2092 107.363 58.2092C106.595 58.2092 105.797 58.0516 104.973 57.7364C104.149 57.4213 103.525 56.9004 103.107 56.1781V46.7233H103.7H104.956C105.466 46.7233 105.985 46.7408 106.508 46.7758C107.031 46.8108 107.515 46.8677 107.956 46.9509C108.396 47.0341 108.688 47.1435 108.828 47.2836C108.945 47.3755 109.033 47.5287 109.089 47.7388C109.146 47.9489 109.211 48.159 109.281 48.3691C109.329 48.5092 109.39 48.6712 109.473 48.8594C109.556 49.0476 109.665 49.2096 109.804 49.3496C109.944 49.4678 110.096 49.5028 110.258 49.4547C110.419 49.4065 110.502 49.3146 110.502 49.1745C110.572 48.2641 110.676 47.3755 110.816 46.5132C110.845 46.302 110.872 46.0892 110.9 45.8738C110.918 45.7321 110.936 45.5893 110.955 45.4451C110.974 45.3025 110.992 45.1612 111.01 45.021L111.011 45.0174L111.011 45.0152C111.039 44.8003 111.066 44.5879 111.095 44.3771C111.117 44.2589 111.073 44.167 110.955 44.0969C110.838 44.0269 110.711 44.005 110.572 44.0269C110.454 44.0488 110.297 44.1013 110.101 44.1845C109.905 44.2676 109.678 44.3639 109.421 44.4821C109.19 44.6003 108.954 44.6966 108.723 44.7798C108.492 44.8629 108.317 44.9023 108.2 44.9023H103.072V35.5525C103.259 35.6007 103.382 35.6095 103.438 35.5876C103.495 35.5657 103.617 35.5525 103.805 35.5525H104.537C104.794 35.5525 105.038 35.5394 105.27 35.5175C105.479 35.4957 105.688 35.4825 105.897 35.4825H106.49C107.445 35.4825 108.23 35.6532 108.845 35.9903C109.46 36.3273 109.817 37.0364 109.909 38.1089C109.931 38.2971 110.062 38.389 110.293 38.389C110.524 38.389 110.663 38.2971 110.711 38.1089C110.733 37.9907 110.759 37.8987 110.781 37.8287L110.783 37.8214C110.805 37.7529 110.83 37.6724 110.851 37.5836C110.99 36.9752 111.126 36.3448 111.252 35.6926C111.378 35.0404 111.479 34.3838 111.548 33.7316C111.57 33.6134 111.518 33.5259 111.391 33.469C111.265 33.4121 111.117 33.4033 110.955 33.4515C110.676 33.6134 110.467 33.6966 110.328 33.6966H96.9326C96.7451 33.6966 96.6187 33.7666 96.5489 33.9067C96.4791 34.0468 96.5358 34.165 96.7233 34.2569C96.9544 34.4188 97.1899 34.5502 97.421 34.6421C97.6521 34.734 97.8962 34.804 98.1535 34.8522C98.2107 34.8693 98.2674 34.8858 98.3235 34.9022L98.3237 34.9022L98.3238 34.9023L98.324 34.9023C98.4259 34.932 98.5261 34.9612 98.6244 34.9923C98.777 35.0404 98.9165 35.1148 99.043 35.2199C99.1694 35.3249 99.2697 35.4694 99.3395 35.6576C99.4093 35.8458 99.4442 36.091 99.4442 36.393V55.898C99.4442 56.2963 99.4223 56.6728 99.3744 57.0361C99.3264 57.3994 99.2348 57.7189 99.0953 57.9991C98.9558 58.2792 98.7509 58.5024 98.4849 58.6644C98.2189 58.8263 97.8614 58.9226 97.421 58.9445C97.1899 58.9445 97.0678 59.0452 97.0547 59.2422C97.0416 59.4392 97.155 59.5398 97.3861 59.5398C98.2233 59.6318 99.1171 59.6931 100.072 59.7149C101.027 59.7368 101.991 59.75 102.967 59.75C103.504 59.75 104.036 59.7456 104.572 59.7324C105.108 59.7193 105.64 59.7149 106.177 59.7149H110.607L111.235 59.5398C111.422 59.5398 111.535 59.4567 111.583 59.2947L111.688 58.4543ZM136.695 36.5853C136.638 37.2287 136.538 37.8503 136.398 38.4588C136.35 38.6207 136.211 38.7039 135.979 38.7039C135.77 38.7039 135.644 38.6207 135.596 38.4588C135.386 37.3863 134.937 36.6728 134.253 36.3227C133.568 35.9725 132.735 35.7974 131.759 35.7974C131.501 35.7974 131.27 35.8018 131.061 35.8149C130.852 35.828 130.629 35.8455 130.398 35.8674C130.189 35.8893 129.949 35.9068 129.683 35.92C129.417 35.9331 129.19 35.9375 129.003 35.9375H128.41C128.222 35.9375 128.048 35.9243 127.887 35.9024V55.7926C127.887 55.8627 127.904 56.0334 127.939 56.3004C127.974 56.5674 128.009 56.8432 128.044 57.1233C128.078 57.4035 128.118 57.6617 128.166 57.8937C128.214 58.1257 128.249 58.257 128.27 58.2789C128.501 58.5109 128.737 58.651 128.968 58.6991C129.199 58.7473 129.421 58.7823 129.631 58.8042C129.958 58.8261 130.237 58.8611 130.468 58.9092C130.699 58.9574 130.873 59.0975 130.991 59.3295C131.061 59.4476 131.061 59.5439 130.991 59.6271C130.921 59.7103 130.804 59.7497 130.642 59.7497C129.225 59.7497 127.813 59.7628 126.404 59.7847C124.996 59.8066 123.583 59.7978 122.166 59.7497C121.935 59.7278 121.804 59.6315 121.782 59.4695C121.76 59.3076 121.865 59.2025 122.096 59.1544C122.584 59.0625 122.968 58.9618 123.247 58.8567C123.526 58.7516 123.736 58.5941 123.875 58.384C124.015 58.1739 124.102 57.9068 124.137 57.5786C124.172 57.2503 124.189 56.8082 124.189 56.2479V35.8324H118.782C118.106 35.8324 117.513 36.0732 117.003 36.5503C116.493 37.0274 116.096 37.5702 115.817 38.1786C115.747 38.3187 115.612 38.3843 115.416 38.3712C115.22 38.3581 115.098 38.2705 115.05 38.1086C115.028 38.0167 115.011 37.9291 114.997 37.8459C114.984 37.7628 114.98 37.6665 114.98 37.5483C114.98 37.1281 115.05 36.6685 115.189 36.1651C115.329 35.6617 115.481 35.1539 115.643 34.6418C115.713 34.4317 115.765 34.2347 115.8 34.0465C115.835 33.8583 115.874 33.6744 115.922 33.4862C115.97 33.368 116.057 33.2936 116.183 33.2586C116.31 33.2236 116.432 33.2279 116.55 33.2761C116.689 33.368 116.885 33.4556 117.143 33.5387C117.4 33.6219 117.67 33.6963 117.962 33.7664C118.255 33.8364 118.534 33.8889 118.8 33.9239C119.066 33.959 119.271 33.9765 119.41 33.9765H134.34C134.48 33.9765 134.658 33.9458 134.881 33.8889C135.006 33.8569 135.124 33.8263 135.237 33.7971L135.238 33.7968C135.325 33.7741 135.409 33.7523 135.491 33.7313C135.609 33.6832 135.74 33.6569 135.892 33.6438C136.045 33.6307 136.176 33.6131 136.293 33.5913C136.411 33.5694 136.52 33.5781 136.625 33.6263C136.729 33.6744 136.782 33.7532 136.782 33.8714V34.6418C136.782 35.294 136.756 35.9418 136.695 36.5853ZM149.148 59.6802C149.335 59.6802 149.458 59.6277 149.514 59.5226C149.575 59.4176 149.545 59.3081 149.427 59.19C149.218 58.9799 148.987 58.8573 148.729 58.8223C148.472 58.7873 148.219 58.7698 147.962 58.7698C147.844 58.7698 147.696 58.7479 147.508 58.6997C147.321 58.6516 147.173 58.6078 147.055 58.5596C146.985 58.4677 146.911 58.2839 146.828 58.0169C146.745 57.7498 146.671 57.4609 146.602 57.1589C146.532 56.8569 146.475 56.568 146.427 56.301C146.379 56.034 146.357 55.8414 146.357 55.7232V36.4283C146.357 35.706 146.554 35.2246 146.95 34.9926C147.347 34.7606 147.857 34.5855 148.485 34.4673C148.716 34.4191 148.821 34.3097 148.799 34.1346C148.777 33.9595 148.647 33.8588 148.415 33.837C147.74 33.7888 147.077 33.78 146.427 33.8019C145.777 33.8238 145.123 33.837 144.474 33.837C143.798 33.837 143.131 33.8326 142.468 33.8195C141.805 33.8063 141.138 33.8238 140.462 33.872C140.253 33.8939 140.148 33.9989 140.148 34.1871C140.148 34.3754 140.253 34.4804 140.462 34.5023C141.068 34.5723 141.591 34.743 142.032 35.0101C142.472 35.2771 142.695 35.7629 142.695 36.4633V55.5831C142.695 55.8151 142.677 56.104 142.642 56.4411C142.607 56.7781 142.538 57.1108 142.433 57.4391C142.328 57.7674 142.193 58.0475 142.032 58.2795C141.871 58.5115 141.661 58.6297 141.404 58.6297C141.334 58.6297 141.142 58.6691 140.828 58.7522C140.515 58.8354 140.301 58.8529 140.183 58.8048C140.092 58.7566 139.996 58.7654 139.904 58.8223C139.812 58.8792 139.743 58.958 139.695 59.0499C139.647 59.1418 139.625 59.2381 139.625 59.33C139.625 59.422 139.673 59.492 139.765 59.5401C139.926 59.6102 140.423 59.6277 141.247 59.5927C142.071 59.5577 142.996 59.5401 144.02 59.5401C144.648 59.5401 145.263 59.5445 145.869 59.5577C146.475 59.5708 147.02 59.5883 147.508 59.6102L147.808 59.6238L147.808 59.6238H147.808C148.217 59.6424 148.663 59.6627 149.148 59.6802ZM179.88 34.9928C179.797 35.0629 179.723 35.111 179.653 35.1329C179.282 35.2511 178.916 35.378 178.554 35.5181C178.192 35.6582 178.013 35.9252 178.013 36.3235C178.013 40.2236 178.031 44.1194 178.066 48.0195C178.101 51.9196 177.965 55.8066 177.665 59.6805C177.643 59.8205 177.555 59.9125 177.403 59.9606C177.25 60.0088 177.106 59.9825 176.967 59.8906C175.48 58.6299 174.006 57.2861 172.554 55.8635C171.102 54.4409 169.672 52.9745 168.264 51.4688C166.855 49.963 165.469 48.4441 164.095 46.9164C163.672 46.4455 163.251 45.9771 162.832 45.5113C161.893 44.466 160.966 43.434 160.049 42.4166C159.652 41.9482 159.316 41.5631 159.037 41.261C158.758 40.959 158.409 40.5738 157.991 40.1054C157.921 40.7839 157.886 41.423 157.886 42.0314C157.886 43.2001 157.908 44.3557 157.956 45.4982C157.98 46.0694 158.003 46.6418 158.026 47.2141C158.048 47.7864 158.071 48.3587 158.095 48.93C158.116 49.4321 158.135 49.9311 158.154 50.427C158.181 51.107 158.207 51.781 158.235 52.4493C158.283 53.6049 158.305 54.7648 158.305 55.9335C158.305 56.4938 158.353 56.936 158.444 57.2642C158.536 57.5925 158.658 57.8464 158.81 58.0346C158.963 58.2228 159.142 58.3542 159.351 58.4373C159.56 58.5205 159.77 58.5818 159.979 58.6299C160.21 58.6781 160.45 58.7394 160.694 58.8225C160.938 58.9057 161.187 59.0283 161.444 59.1902C161.605 59.2821 161.653 59.396 161.584 59.5229C161.514 59.6498 161.387 59.7155 161.2 59.7155L156.77 59.6104C156.164 59.5886 155.549 59.6148 154.921 59.698C154.293 59.7812 153.7 59.7637 153.142 59.6455C152.933 59.5973 152.845 59.4923 152.88 59.3303C152.915 59.1683 153.037 59.0633 153.247 59.0151L153.735 58.9101C154.271 58.7919 154.707 58.5555 155.043 58.1922C155.379 57.8289 155.549 57.3562 155.549 56.774V34.7127C155.549 34.5244 155.597 34.3669 155.688 34.2399C155.78 34.113 155.898 33.9773 156.037 33.8372C156.225 33.6971 156.408 33.6971 156.595 33.8372C163.036 40.4425 169.328 47.144 175.467 53.9375C175.467 53.7493 175.471 53.5698 175.484 53.3947C175.497 53.2197 175.502 53.0402 175.502 52.852C175.502 50.2825 175.463 47.7262 175.38 45.183C175.297 42.6399 175.258 40.0836 175.258 37.5141C175.258 36.9757 175.201 36.5555 175.083 36.2535C174.965 35.9514 174.822 35.7238 174.647 35.5706C174.473 35.4174 174.281 35.3211 174.072 35.2729C173.967 35.2489 173.863 35.2259 173.758 35.203L173.757 35.2029L173.757 35.2028C173.653 35.1799 173.548 35.1569 173.444 35.1329C173.186 35.0847 172.96 35.041 172.764 34.9928C172.567 34.9447 172.41 34.8527 172.293 34.7127C172.153 34.6207 172.114 34.5157 172.17 34.3975C172.227 34.2793 172.349 34.2224 172.537 34.2224H175.048C175.864 34.2224 176.688 34.2181 177.525 34.2049C178.362 34.1918 179.199 34.2093 180.037 34.2574L180.106 34.8527C180.037 34.8746 179.962 34.9228 179.88 34.9928ZM204.293 59.7501C204.991 59.7501 205.675 59.7545 206.351 59.7676C207.022 59.7764 207.698 59.7589 208.374 59.7151V59.0848C207.698 59.0366 207.066 58.8746 206.473 58.5945C205.88 58.3144 205.422 57.8372 205.095 57.1588C204.607 56.1082 204.114 54.992 203.613 53.8146C203.111 52.6371 202.619 51.4289 202.13 50.1902C201.642 48.9514 201.171 47.7258 200.717 46.5133C200.41 45.6921 200.111 44.891 199.82 44.1113C199.681 43.7398 199.544 43.3731 199.409 43.0115C199.108 42.193 198.786 41.4007 198.45 40.6303C198.114 39.8599 197.805 39.1026 197.526 38.3541C197.478 38.2622 197.438 38.144 197.404 38.004C197.369 37.8639 197.303 37.7238 197.212 37.5837C196.954 36.8615 196.667 36.078 196.34 35.2375C196.013 34.3971 195.655 33.7536 195.258 33.3115C195.167 33.1933 195.062 33.1715 194.944 33.2415C194.827 33.3115 194.748 33.3947 194.7 33.4866C193.841 35.7497 192.991 38.004 192.154 40.2451C191.317 42.4862 190.492 44.7405 189.677 47.0036C189.119 48.5444 188.565 50.1245 188.02 51.7485C187.475 53.3724 186.899 54.9526 186.293 56.4934C186.176 56.7736 186.019 57.0712 185.822 57.3864C185.626 57.7015 185.391 57.9948 185.125 58.2618C184.859 58.5288 184.58 58.7521 184.288 58.9272C183.995 59.1023 183.699 59.1898 183.398 59.1898C183.376 59.1898 183.311 59.1854 183.206 59.1723C183.102 59.1592 183.027 59.1898 182.98 59.2599C182.888 59.3518 182.862 59.4481 182.91 59.54C182.932 59.5881 182.993 59.6582 183.084 59.7501L190.34 59.7851C190.571 59.7851 190.693 59.6976 190.706 59.5225C190.719 59.3474 190.606 59.238 190.375 59.1898C190.026 59.1417 189.673 59.0541 189.311 58.9272C188.949 58.8002 188.77 58.5376 188.77 58.1393C188.77 57.8372 188.87 57.3032 189.067 56.546C189.263 55.7887 189.503 54.9833 189.782 54.1297C190.061 53.2761 190.344 52.4488 190.636 51.6434C190.928 50.838 191.164 50.2252 191.351 49.805H198.223C198.76 51.2757 199.309 52.7465 199.88 54.2173C200.451 55.688 201.014 57.1588 201.572 58.6295L200.351 59.2599C200.212 59.378 200.177 59.4831 200.246 59.575C200.316 59.6669 200.443 59.7282 200.63 59.7501C201.119 59.7983 201.725 59.807 202.444 59.7851C203.164 59.7632 203.783 59.7501 204.293 59.7501ZM194.487 40.0733L194.665 39.5097L197.526 47.949H191.91C192.42 46.4783 192.891 45.0732 193.322 43.7294C193.698 42.5582 194.085 41.3405 194.487 40.0733Z" fill="#231F20"/>
</svg>
