<?xml version="1.0" encoding="utf-8"?>
<!-- Generator: Adobe Illustrator 25.2.3, SVG Export Plug-In . SVG Version: 6.00 Build 0)  -->
<svg xmlns:xlink="http://www.w3.org/1999/xlink" version="1.1" id="Layer_1" xmlns="http://www.w3.org/2000/svg" x="0px"
     y="0px"
     viewBox="0 0 382 98" enable-background="new 0 0 382 98" xml:space="preserve">
<g>
	<path stroke="#000000" stroke-width="0.4697" stroke-miterlimit="10" d="M110.35,53.27l7.99-17.57c1.11-2.43,1.72-4.64,0.75-5.3
		l0.09-0.7h9.72v0.66c-2.82,0.57-4.55,1.63-4.37,4.73l0.97,16.08c0.49,6.14,0.49,7.11,5.21,7.9v0.66h-14.53v-0.66
		c3.4-0.53,5.56-0.93,5.34-4.81l-1.19-19.3h-0.09l-11.26,24.77h-0.48L98.03,35.96h-0.09c-0.71,6.76-1.06,11.66-1.37,18.5
		c-0.09,1.72-0.04,3.71,5.3,4.59v0.66H89.55v-0.66c3.93-0.66,4.33-2.56,4.95-6.14l1.63-12.41l0.58-6c0.26-2.92-2.25-3.93-4.86-4.15
		v-0.66h9.54l0.04,0.48c-0.97,1.01,0.22,3.67,0.53,4.37L110.35,53.27z"/>
    <path stroke="#000000" stroke-width="0.4697" stroke-miterlimit="10" d="M142.71,48.77c0.35-4.81-0.88-6.8-4.37-6.8
		c-3.05,0-2.74,1.46-2.74,3.88l-2.21,0.14c-0.36,0-1.02,0.04-1.02-0.44c0-1.19,4.86-5.78,8.44-5.78c4.06,0,5.3,3.09,5.3,6.62v6.27
		c0,3.89-0.26,4.82,3.84,5.65v0.66c-1.68,0.48-3.14,0.97-4.46,0.97c-1.85,0-2.56-1.06-2.78-2.78c-1.41,1.59-3.36,3.01-5.61,3.01
		c-2.83,0-4.42-2.39-4.42-5.03c0-0.67,0.09-1.29,0.27-1.95L142.71,48.77z M136.75,52.7c-0.18,0.57-0.31,1.14-0.31,1.77
		c0,1.85,1.06,3.49,3.09,3.49c1.19,0,2.38-0.79,3.18-1.63v-6.67L136.75,52.7z"/>
    <path stroke="#000000" stroke-width="0.4697" stroke-miterlimit="10" d="M154.37,46.16c0-1.85,0.04-2.43-2.16-4.02V41.7l5.26-1.94
		l0.48,0.17l-0.35,3.23c2.52-1.85,4.95-3.4,7.77-3.4c5.3,0,5.56,4.37,5.56,6.98v7.86c0,3.62,0.18,3.98,3.44,4.46v0.66h-10.29v-0.66
		c3.27-0.48,3.4-1.02,3.44-4.46v-5.08c0-3.09,0.13-7.46-5.25-7.46c-1.81,0-3.05,0.57-4.5,1.9V54.6c0,3.62,0.17,3.98,3.44,4.46v0.66
		h-10.29v-0.66c3.27-0.48,3.4-1.02,3.44-4.46V46.16z"/>
    <path stroke="#000000" stroke-width="0.4697" stroke-miterlimit="10" d="M182.28,54.6c0,3.62,0.17,3.98,3.45,4.46v0.66h-10.29
		v-0.66c3.27-0.48,3.4-1.02,3.44-4.46V34.42c0-1.86,0.04-2.43-2.16-4.02v-0.44l5.08-1.95l0.49,0.18V54.6z M195.88,39.94v0.66
		c-4.86,0.93-6.93,3.09-10.33,6.98l5.92,6.76c1.76,1.9,3.62,3.84,6.01,4.9v0.48c-1.02,0.13-1.99,0.31-3,0.31
		c-4.73,0-9.36-7.73-11.66-11.04c4.46-5.43,6.36-6.58,2.75-7.73V40.6L195.88,39.94z"/>
    <path stroke="#000000" stroke-width="0.4697" stroke-miterlimit="10" d="M208.95,48.77c0.35-4.81-0.88-6.8-4.37-6.8
		c-3.05,0-2.74,1.46-2.74,3.88l-2.21,0.14c-0.36,0-1.01,0.04-1.01-0.44c0-1.19,4.86-5.78,8.43-5.78c4.07,0,5.3,3.09,5.3,6.62v6.27
		c0,3.89-0.27,4.82,3.84,5.65v0.66c-1.67,0.48-3.13,0.97-4.46,0.97c-1.86,0-2.56-1.06-2.78-2.78c-1.41,1.59-3.36,3.01-5.61,3.01
		c-2.83,0-4.42-2.39-4.42-5.03c0-0.67,0.09-1.29,0.26-1.95L208.95,48.77z M202.99,52.7c-0.17,0.57-0.31,1.14-0.31,1.77
		c0,1.85,1.06,3.49,3.09,3.49c1.19,0,2.38-0.79,3.18-1.63v-6.67L202.99,52.7z"/>
    <path stroke="#000000" stroke-width="0.4697" stroke-miterlimit="10" d="M223.52,51.95c0,3.93,0.05,6.4,4.86,6.4
		c0.89,0,1.77-0.09,2.61-0.31l0.18,0.71c-2.21,0.84-4.55,1.42-6.98,1.42c-4.28,0-4.06-2.25-4.06-5.65V42.5h-2.96l-0.22-0.31
		l6.18-6.14h0.4v4.59h6.98v1.86h-6.98V51.95z"/>
    <path stroke="#000000" stroke-width="0.4697" stroke-miterlimit="10" d="M243.48,60.17c-6.05,0-10.87-3.84-10.87-10.12
		c0-6.09,4.99-10.29,10.91-10.29c6.01,0,10.82,3.89,10.82,10.11C254.34,55.88,249.31,60.17,243.48,60.17z M243.43,40.74
		c-4.77,0-6.71,4.94-6.71,9.01c0,4.1,2.29,9.45,7.06,9.45c4.46,0,6.45-5.08,6.45-8.87C250.23,46.25,248.25,40.74,243.43,40.74z"/>
    <path stroke="#000000" stroke-width="0.4697" stroke-miterlimit="10" d="M294.3,38.79h-0.66c-0.84-4.99-3.76-8.57-9.05-8.57
		c-8.08,0-12.63,6.62-12.63,14.22c0,8.7,6.67,14.75,13.07,14.75c5.79,0,8.08-4.24,10.07-9.01l0.62,0.27
		c-0.53,2.7-1.37,5.34-2.43,7.91c-2.83,1.37-5.87,1.9-9.01,1.9c-9.23,0-17.44-5.3-17.44-15.28c0-7.86,6.14-15.81,17.8-15.81
		c3.35,0,6.76,0.66,9.67,2.38V38.79z"/>
    <path stroke="#000000" stroke-width="0.4697" stroke-miterlimit="10" d="M297.52,59.72v-0.66c3.27-0.48,3.4-1.02,3.44-4.46V34.42
		c0-1.86,0.04-2.43-2.16-4.02v-0.44l5.08-1.95l0.48,0.18V54.6c0,3.62,0.18,3.98,3.44,4.46v0.66H297.52z"/>
    <path stroke="#000000" stroke-width="0.4697" stroke-miterlimit="10" d="M309,59.72v-0.66c3.27-0.48,3.4-1.02,3.45-4.46v-8.44
		c0-1.85,0.04-2.43-2.7-4.02V41.7l5.61-1.94l0.48,0.17V54.6c0,3.62,0.18,3.98,3.45,4.46v0.66H309z M316.2,31.41
		c0,1.24-1.02,2.25-2.25,2.25c-1.24,0-2.25-1.01-2.25-2.25c0-1.24,1.02-2.25,2.25-2.25C315.18,29.16,316.2,30.18,316.2,31.41z"/>
    <path stroke="#000000" stroke-width="0.4697" stroke-miterlimit="10" d="M324.15,46.16c0-1.85,0.05-2.43-2.16-4.02V41.7l5.25-1.94
		l0.48,0.17l-0.35,3.23c2.52-1.85,4.95-3.4,7.77-3.4c5.3,0,5.57,4.37,5.57,6.98v7.86c0,3.62,0.17,3.98,3.44,4.46v0.66h-10.29v-0.66
		c3.27-0.48,3.4-1.02,3.44-4.46v-5.08c0-3.09,0.14-7.46-5.25-7.46c-1.81,0-3.05,0.57-4.51,1.9V54.6c0,3.62,0.18,3.98,3.44,4.46v0.66
		H320.7v-0.66c3.27-0.48,3.4-1.02,3.44-4.46V46.16z"/>
    <path stroke="#000000" stroke-width="0.4697" stroke-miterlimit="10" d="M345.21,59.72v-0.66c3.27-0.48,3.4-1.02,3.44-4.46v-8.44
		c0-1.85,0.05-2.43-2.69-4.02V41.7l5.61-1.94l0.49,0.17V54.6c0,3.62,0.17,3.98,3.44,4.46v0.66H345.21z M352.41,31.41
		c0,1.24-1.01,2.25-2.25,2.25c-1.24,0-2.25-1.01-2.25-2.25c0-1.24,1.01-2.25,2.25-2.25C351.39,29.16,352.41,30.18,352.41,31.41z"/>
    <path stroke="#000000" stroke-width="0.4697" stroke-miterlimit="10" d="M373.56,56.5c-1.98,2.25-4.72,3.67-7.77,3.67
		c-5.39,0-9.1-4.51-9.1-9.68c0-6.18,5.39-10.73,11.35-10.73c1.41,0,4.81,0.17,4.81,2.21c0,0.97-1.06,2.03-2.08,2.03
		c-1.54,0-3.13-2.87-5.34-2.87c-3.53,0-5.21,4.1-5.21,7.11c0,5.7,3.89,9.32,8.26,9.32c1.81,0,3.09-0.67,4.55-1.73L373.56,56.5z"/>
</g>
    <g>
	<path fill="#A72430" d="M94.33,77.97h-3.97l0.43-2.18h10.49l-0.43,2.18h-4.02l-2.31,12.22h-2.5L94.33,77.97z"/>
        <path fill="#A72430" d="M109.22,83.85c0,3.55-2.46,6.58-6,6.58c-2.63,0-4.25-1.82-4.25-4.29c0-3.53,2.46-6.58,6-6.58
		C107.77,79.55,109.22,81.56,109.22,83.85z M101.53,86.07c0,1.43,0.75,2.44,2.03,2.44c1.86,0,3.1-2.56,3.1-4.64
		c0-1.07-0.49-2.39-1.99-2.39C102.68,81.48,101.53,84.12,101.53,86.07z"/>
        <path fill="#A72430" d="M110.82,92.05c0.6,0.36,1.75,0.62,2.73,0.62c1.62,0,2.86-0.77,3.38-3.18l0.26-1.17h-0.04
		c-0.85,1.24-1.94,1.84-3.27,1.84c-2.07,0-3.25-1.71-3.25-3.67c-0.02-3.48,2.48-6.92,6.79-6.92c1.35,0,2.65,0.3,3.61,0.73
		l-1.58,8.59c-0.38,2.03-0.96,3.65-2.14,4.64c-1.09,0.9-2.54,1.15-3.85,1.15c-1.35,0-2.58-0.28-3.27-0.71L110.82,92.05z
		 M118.34,81.75c-0.28-0.13-0.81-0.26-1.39-0.26c-2.18,0-3.72,2.35-3.72,4.59c0,1.09,0.43,2.12,1.67,2.12
		c1.24,0,2.48-1.47,2.84-3.35L118.34,81.75z"/>
        <path fill="#A72430" d="M130.16,89.59c-1.03,0.53-2.41,0.83-3.67,0.83c-2.88,0-4.27-1.77-4.27-4.32c0-3.14,2.31-6.56,5.9-6.56
		c2.05,0,3.35,1.17,3.35,2.93c0,2.67-2.8,3.53-6.81,3.44c-0.04,0.36,0.04,1.07,0.28,1.47c0.41,0.71,1.15,1.07,2.14,1.07
		c1.17,0,2.11-0.3,2.86-0.68L130.16,89.59z M127.78,81.41c-1.56,0-2.59,1.39-2.88,2.65c2.56,0.02,4.21-0.32,4.21-1.58
		C129.11,81.82,128.57,81.41,127.78,81.41z"/>
        <path fill="#A72430" d="M137.5,77.12l-0.49,2.67h2.33l-0.38,1.92h-2.33l-0.81,4.19c-0.11,0.49-0.19,1.03-0.19,1.47
		c0,0.58,0.26,0.94,0.92,0.94c0.3,0,0.6-0.02,0.85-0.06l-0.23,1.94c-0.36,0.15-1.03,0.21-1.62,0.21c-1.71,0-2.46-0.94-2.46-2.14
		c0-0.58,0.06-1.15,0.21-1.92l0.9-4.64h-1.39l0.36-1.92h1.39l0.38-1.94L137.5,77.12z"/>
        <path fill="#A72430" d="M139.34,90.19l2.88-15.17h2.48l-1.22,6.32h0.04c0.88-1.09,2.03-1.79,3.48-1.79c1.43,0,2.61,0.88,2.61,2.8
		c0,0.53-0.08,1.26-0.19,1.82l-1.13,6.02h-2.48l1.11-5.83c0.06-0.41,0.13-0.85,0.13-1.37c0-0.79-0.36-1.41-1.3-1.41
		c-1.2,0-2.58,1.45-2.99,3.65l-0.94,4.96H139.34z"/>
        <path fill="#A72430" d="M159.25,89.59c-1.03,0.53-2.41,0.83-3.67,0.83c-2.88,0-4.27-1.77-4.27-4.32c0-3.14,2.31-6.56,5.9-6.56
		c2.05,0,3.35,1.17,3.35,2.93c0,2.67-2.8,3.53-6.81,3.44c-0.04,0.36,0.04,1.07,0.28,1.47c0.41,0.71,1.15,1.07,2.14,1.07
		c1.17,0,2.11-0.3,2.86-0.68L159.25,89.59z M156.88,81.41c-1.56,0-2.59,1.39-2.88,2.65c2.56,0.02,4.21-0.32,4.21-1.58
		C158.2,81.82,157.67,81.41,156.88,81.41z"/>
        <path fill="#A72430" d="M161.32,90.19l1.22-6.41c0.28-1.47,0.43-3.08,0.53-3.99h2.16c-0.06,0.71-0.13,1.43-0.24,2.18h0.06
		c0.7-1.39,1.84-2.41,3.25-2.41c0.19,0,0.38,0.02,0.55,0.02l-0.49,2.44c-0.13-0.02-0.3-0.02-0.47-0.02c-1.77,0-2.91,1.79-3.31,4.02
		l-0.79,4.19H161.32z"/>
        <path fill="#A72430" d="M175.89,79.79l0.19,5.06c0.04,1.22,0.02,2.05-0.04,3.08h0.04c0.32-0.92,0.75-1.88,1.22-2.93l2.52-5.21h2.07
		l0.43,5.06c0.08,1.2,0.13,2.16,0.11,3.08h0.04c0.32-1,0.64-1.94,1.07-3.05l2.24-5.08h2.52l-5.11,10.4h-2.33l-0.47-4.53
		c-0.09-1.03-0.13-1.99-0.11-3.08h-0.04c-0.51,1.26-0.79,2.03-1.22,2.97l-2.33,4.64h-2.33l-0.96-10.4H175.89z"/>
        <path fill="#A72430" d="M196.01,89.59c-1.03,0.53-2.41,0.83-3.67,0.83c-2.88,0-4.27-1.77-4.27-4.32c0-3.14,2.31-6.56,5.9-6.56
		c2.05,0,3.35,1.17,3.35,2.93c0,2.67-2.8,3.53-6.81,3.44c-0.04,0.36,0.04,1.07,0.28,1.47c0.41,0.71,1.15,1.07,2.14,1.07
		c1.17,0,2.11-0.3,2.86-0.68L196.01,89.59z M193.64,81.41c-1.56,0-2.59,1.39-2.88,2.65c2.56,0.02,4.21-0.32,4.21-1.58
		C194.97,81.82,194.43,81.41,193.64,81.41z"/>
        <path fill="#A72430" d="M207.27,77.12l-0.49,2.67h2.33l-0.38,1.92h-2.33l-0.81,4.19c-0.11,0.49-0.19,1.03-0.19,1.47
		c0,0.58,0.26,0.94,0.92,0.94c0.3,0,0.6-0.02,0.85-0.06l-0.23,1.94c-0.36,0.15-1.03,0.21-1.62,0.21c-1.71,0-2.46-0.94-2.46-2.14
		c0-0.58,0.06-1.15,0.21-1.92l0.9-4.64h-1.39l0.36-1.92h1.39l0.38-1.94L207.27,77.12z"/>
        <path fill="#A72430" d="M209.11,90.19l2.88-15.17h2.48l-1.22,6.32h0.04c0.88-1.09,2.03-1.79,3.48-1.79c1.43,0,2.61,0.88,2.61,2.8
		c0,0.53-0.08,1.26-0.19,1.82l-1.13,6.02h-2.48l1.11-5.83c0.06-0.41,0.13-0.85,0.13-1.37c0-0.79-0.36-1.41-1.3-1.41
		c-1.2,0-2.58,1.45-2.99,3.65l-0.94,4.96H209.11z"/>
        <path fill="#A72430" d="M220.86,90.19l1.22-6.41c0.28-1.47,0.43-3.08,0.53-3.99h2.16c-0.06,0.71-0.13,1.43-0.24,2.18h0.06
		c0.71-1.39,1.84-2.41,3.25-2.41c0.19,0,0.38,0.02,0.55,0.02l-0.49,2.44c-0.13-0.02-0.3-0.02-0.47-0.02c-1.77,0-2.91,1.79-3.31,4.02
		l-0.79,4.19H220.86z"/>
        <path fill="#A72430" d="M228.27,90.19l1.99-10.4h2.48l-1.99,10.4H228.27z M230.64,76.97c0-0.88,0.68-1.5,1.5-1.5
		c0.79,0,1.32,0.53,1.32,1.32c-0.02,0.92-0.71,1.5-1.56,1.5C231.15,78.29,230.64,77.76,230.64,76.97z"/>
        <path fill="#A72430" d="M236.75,79.79l0.66,5.17c0.13,1.24,0.24,2.03,0.3,2.71h0.06c0.26-0.66,0.56-1.41,1.13-2.65l2.58-5.23h2.76
		l-5.79,10.4h-2.5l-1.77-10.4H236.75z"/>
        <path fill="#A72430" d="M251.94,89.59c-1.03,0.53-2.41,0.83-3.67,0.83c-2.88,0-4.27-1.77-4.27-4.32c0-3.14,2.31-6.56,5.9-6.56
		c2.05,0,3.35,1.17,3.35,2.93c0,2.67-2.8,3.53-6.81,3.44c-0.04,0.36,0.04,1.07,0.28,1.47c0.41,0.71,1.15,1.07,2.14,1.07
		c1.17,0,2.12-0.3,2.86-0.68L251.94,89.59z M249.57,81.41c-1.56,0-2.58,1.39-2.88,2.65c2.56,0.02,4.21-0.32,4.21-1.58
		C250.89,81.82,250.36,81.41,249.57,81.41z"/>
        <path fill="#A72430" d="M253.75,88.87c0-1,0.73-1.84,1.75-1.84c0.9,0,1.52,0.66,1.52,1.58c0,1.03-0.75,1.79-1.79,1.79
		C254.35,90.4,253.75,89.74,253.75,88.87z"/>
</g>
    <path fill="#D7DF23" d="M15.75,42.62c0,0,8.85,0.96,21.05-4.11c0,0,0.72-0.3,1.86-0.75c-0.31-5.52-0.84-19.45,0.89-31.77
	c-1.69,0.3-3.01,1.25-3.38,1.54L4.45,39.25C7.21,41.07,10.96,42.62,15.75,42.62z"/>
    <path fill="#4BC3C9" d="M44.47,7.62L44.47,7.62c-1.24-1.24-2.55-1.69-3.75-1.72c-0.32,8.52-0.37,21.53,1.77,29.45
	c0.09,0.32,0.17,0.6,0.25,0.89c3.3-1.2,7.22-2.5,9.56-2.8c0,0,9.82-2.03,19.57,2.75c0,0,1.21,0.47,3.02,1.86L44.47,7.62z"/>
    <path fill="#A72430" d="M39.69,74.36c0.23-7.87,0.14-18.49-1.47-25.79c-3.16,1.1-6.94,2.16-10.25,2.39c0,0-8.59,0.76-16.48-2.92
	l24.98,24.98C37.56,73.93,38.66,74.31,39.69,74.36z"/>
    <path fill="#F15A22" d="M41.07,74.24c1.58-0.3,2.82-1.16,3.25-1.49l30.03-30.03c-3.1-1.15-6.75-1.97-11.21-1.57
	c0,0-7.71,0.09-18.02,4.66c0,0-1.31,0.63-3.33,1.44C42.08,53.38,42.26,64.14,41.07,74.24z"/>
</svg>
