<?xml version="1.0" encoding="UTF-8"?>
<svg id="Layer_2" data-name="Layer 2" xmlns="http://www.w3.org/2000/svg" viewBox="0 0 577.13 69.49">
  <defs>
    <style>
      .cls-1 {
        fill: #f15a22;
      }

      .cls-2 {
        fill: #008dc4;
      }

      .cls-3 {
        fill: #231f20;
      }
    </style>
  </defs>
  <g id="Layer_1-2" data-name="Layer 1">
    <rect class="cls-1" y=".55" width="9.52" height="66.94"/>
    <g>
      <path class="cls-1" d="m22.6,54.63h5.38c1.52,0,2.71.45,3.48,1.21.64.65,1,1.55,1,2.6v.03c0,1.98-1.19,3.17-2.88,3.65l3.26,4.57h-2.5l-2.96-4.21h-2.65v4.21h-2.12v-12.06Zm5.22,5.98c1.52,0,2.48-.79,2.48-2.02v-.03c0-1.29-.93-2-2.5-2h-3.08v4.05h3.1Z"/>
      <path class="cls-1" d="m34.15,62.18v-.03c0-2.6,1.84-4.74,4.45-4.74,2.9,0,4.36,2.27,4.36,4.89,0,.19-.02.38-.03.59h-6.69c.22,1.48,1.28,2.31,2.62,2.31,1.02,0,1.74-.38,2.46-1.09l1.22,1.09c-.86,1.03-2.05,1.71-3.72,1.71-2.64,0-4.67-1.91-4.67-4.72Zm6.74-.67c-.14-1.34-.93-2.4-2.31-2.4-1.28,0-2.17.98-2.36,2.4h4.67Z"/>
      <path class="cls-1" d="m45.09,54.22h2.24v1.98h-2.24v-1.98Zm.09,3.38h2.09v9.1h-2.09v-9.1Z"/>
      <path class="cls-1" d="m49.99,57.6h2.09v1.38c.59-.81,1.38-1.57,2.77-1.57,1.31,0,2.22.64,2.71,1.6.74-.97,1.71-1.6,3.08-1.6,1.98,0,3.19,1.26,3.19,3.48v5.81h-2.09v-5.17c0-1.45-.67-2.22-1.84-2.22s-1.95.79-1.95,2.26v5.14h-2.09v-5.19c0-1.41-.69-2.21-1.84-2.21s-1.95.86-1.95,2.27v5.12h-2.09v-9.1Z"/>
      <path class="cls-1" d="m71.93,66.7v-1.12c-.62.74-1.57,1.31-2.95,1.31-1.72,0-3.24-.98-3.24-2.81v-.03c0-2.02,1.57-2.98,3.69-2.98,1.1,0,1.81.16,2.52.38v-.17c0-1.26-.79-1.95-2.24-1.95-1.02,0-1.78.22-2.6.57l-.57-1.67c1-.45,1.98-.76,3.46-.76,2.69,0,4,1.41,4,3.84v5.39h-2.07Zm.05-3.81c-.53-.21-1.28-.36-2.09-.36-1.31,0-2.09.53-2.09,1.41v.03c0,.86.78,1.34,1.76,1.34,1.38,0,2.41-.78,2.41-1.91v-.52Z"/>
      <path class="cls-1" d="m76.47,68.4l.78-1.57c.97.6,2,.97,3.24.97,1.86,0,2.88-.97,2.88-2.79v-.71c-.76.98-1.71,1.67-3.21,1.67-2.14,0-4.14-1.59-4.14-4.26v-.03c0-2.69,2.02-4.27,4.14-4.27,1.53,0,2.48.71,3.19,1.55v-1.36h2.09v7.24c0,1.53-.4,2.67-1.15,3.43-.83.83-2.1,1.22-3.74,1.22-1.5,0-2.9-.38-4.07-1.09Zm6.91-6.69v-.03c0-1.5-1.22-2.52-2.67-2.52s-2.59,1-2.59,2.5v.03c0,1.5,1.15,2.52,2.59,2.52s2.67-1.03,2.67-2.5Z"/>
      <path class="cls-1" d="m88.07,54.22h2.24v1.98h-2.24v-1.98Zm.09,3.38h2.09v9.1h-2.09v-9.1Z"/>
      <path class="cls-1" d="m92.96,57.6h2.09v1.41c.59-.86,1.43-1.6,2.84-1.6,2.05,0,3.24,1.38,3.24,3.5v5.79h-2.09v-5.17c0-1.41-.71-2.22-1.95-2.22s-2.05.84-2.05,2.26v5.14h-2.09v-9.1Z"/>
      <path class="cls-1" d="m103.68,54.22h2.24v1.98h-2.24v-1.98Zm.09,3.38h2.09v9.1h-2.09v-9.1Z"/>
      <path class="cls-1" d="m108.58,57.6h2.09v1.41c.59-.86,1.43-1.6,2.84-1.6,2.05,0,3.24,1.38,3.24,3.5v5.79h-2.09v-5.17c0-1.41-.71-2.22-1.95-2.22s-2.05.84-2.05,2.26v5.14h-2.09v-9.1Z"/>
      <path class="cls-1" d="m119.25,68.4l.78-1.57c.97.6,2,.97,3.24.97,1.86,0,2.88-.97,2.88-2.79v-.71c-.76.98-1.71,1.67-3.21,1.67-2.14,0-4.14-1.59-4.14-4.26v-.03c0-2.69,2.02-4.27,4.14-4.27,1.53,0,2.48.71,3.19,1.55v-1.36h2.09v7.24c0,1.53-.4,2.67-1.15,3.43-.83.83-2.1,1.22-3.74,1.22-1.5,0-2.9-.38-4.07-1.09Zm6.91-6.69v-.03c0-1.5-1.22-2.52-2.67-2.52s-2.59,1-2.59,2.5v.03c0,1.5,1.15,2.52,2.59,2.52s2.67-1.03,2.67-2.5Z"/>
    </g>
    <g>
      <path class="cls-3" d="m136.47,54.63h.9v5.58h7.72v-5.58h.9v12.06h-.9v-5.65h-7.72v5.65h-.9v-12.06Z"/>
      <path class="cls-3" d="m148.78,62.32v-.03c0-2.55,1.79-4.58,4.17-4.58s4.03,2,4.03,4.6c0,.16,0,.21-.02.34h-7.29c.16,2.19,1.72,3.46,3.45,3.46,1.36,0,2.29-.6,3.02-1.38l.59.52c-.9.97-1.95,1.65-3.64,1.65-2.31,0-4.31-1.84-4.31-4.58Zm7.29-.43c-.12-1.78-1.14-3.41-3.15-3.41-1.74,0-3.08,1.46-3.24,3.41h6.39Z"/>
      <path class="cls-3" d="m158.72,64.15v-.03c0-1.83,1.57-2.86,3.84-2.86,1.22,0,2.07.16,2.91.38v-.38c0-1.78-1.09-2.69-2.9-2.69-1.07,0-1.95.29-2.76.71l-.31-.74c.97-.45,1.91-.76,3.12-.76s2.14.33,2.77.97c.59.59.9,1.4.9,2.48v5.48h-.83v-1.46c-.6.84-1.69,1.67-3.36,1.67s-3.4-.93-3.4-2.76Zm6.77-.74v-1c-.74-.19-1.72-.4-2.98-.4-1.86,0-2.9.83-2.9,2.05v.03c0,1.28,1.21,2.02,2.55,2.02,1.79,0,3.33-1.1,3.33-2.71Z"/>
      <path class="cls-3" d="m169.46,54.12h.84v12.58h-.84v-12.58Z"/>
      <path class="cls-3" d="m174.1,64.44v-5.76h-1.28v-.78h1.28v-2.81h.84v2.81h3.08v.78h-3.08v5.67c0,1.26.74,1.71,1.76,1.71.43,0,.79-.09,1.29-.31v.79c-.45.21-.88.31-1.43.31-1.36,0-2.46-.74-2.46-2.41Z"/>
      <path class="cls-3" d="m180.53,54.12h.84v5.43c.59-1.03,1.57-1.84,3.17-1.84,2.22,0,3.52,1.52,3.52,3.62v5.38h-.84v-5.22c0-1.81-1.02-3-2.79-3s-3.05,1.31-3.05,3.14v5.08h-.84v-12.58Z"/>
      <path class="cls-3" d="m190.49,62.34v-.03c0-2.46,1.96-4.6,4.48-4.6,1.65,0,2.69.76,3.52,1.62l-.6.62c-.76-.78-1.62-1.45-2.93-1.45-2,0-3.55,1.67-3.55,3.77v.03c0,2.12,1.6,3.81,3.62,3.81,1.24,0,2.21-.64,2.95-1.46l.59.52c-.9,1.02-1.96,1.74-3.58,1.74-2.53,0-4.48-2.1-4.48-4.57Z"/>
      <path class="cls-3" d="m200.21,64.15v-.03c0-1.83,1.57-2.86,3.84-2.86,1.22,0,2.07.16,2.91.38v-.38c0-1.78-1.09-2.69-2.9-2.69-1.07,0-1.95.29-2.76.71l-.31-.74c.97-.45,1.91-.76,3.12-.76s2.14.33,2.77.97c.59.59.9,1.4.9,2.48v5.48h-.83v-1.46c-.6.84-1.69,1.67-3.36,1.67s-3.4-.93-3.4-2.76Zm6.77-.74v-1c-.74-.19-1.72-.4-2.98-.4-1.86,0-2.9.83-2.9,2.05v.03c0,1.28,1.21,2.02,2.55,2.02,1.79,0,3.33-1.1,3.33-2.71Z"/>
      <path class="cls-3" d="m210.83,57.91h.84v2.5c.69-1.57,2.15-2.71,3.89-2.64v.93h-.09c-2.03,0-3.81,1.53-3.81,4.39v3.6h-.84v-8.79Z"/>
      <path class="cls-3" d="m216.69,62.32v-.03c0-2.55,1.79-4.58,4.17-4.58s4.03,2,4.03,4.6c0,.16,0,.21-.02.34h-7.29c.16,2.19,1.72,3.46,3.45,3.46,1.36,0,2.29-.6,3.02-1.38l.59.52c-.9.97-1.95,1.65-3.64,1.65-2.31,0-4.31-1.84-4.31-4.58Zm7.29-.43c-.12-1.78-1.14-3.41-3.15-3.41-1.74,0-3.08,1.46-3.24,3.41h6.39Z"/>
      <path class="cls-3" d="m228.46,57.29v.45h-1.26v3.3h-.51v-3.3h-1.26v-.45h3.04Z"/>
      <path class="cls-3" d="m228.91,57.29h.73l1.08,3.17,1.07-3.17h.72v3.74h-.48v-2.21c0-.08,0-.2,0-.38s0-.37,0-.57l-1.07,3.16h-.5l-1.08-3.16v.11c0,.09,0,.23,0,.42s0,.33,0,.41v2.21h-.48v-3.74Z"/>
    </g>
    <g>
      <path class="cls-2" d="m575.68,42.42c-.97.97-2.14,1.46-3.51,1.46s-2.54-.49-3.51-1.46c-.96-.97-1.44-2.14-1.44-3.52s.48-2.53,1.45-3.5,2.13-1.45,3.49-1.45,2.55.48,3.51,1.45,1.45,2.13,1.45,3.5-.48,2.55-1.45,3.52Zm-6.53-6.53c-.83.83-1.24,1.84-1.24,3.02s.41,2.2,1.24,3.04c.83.84,1.84,1.26,3.02,1.26s2.19-.42,3.02-1.26c.83-.84,1.24-1.85,1.24-3.04s-.41-2.19-1.24-3.02c-.83-.84-1.84-1.26-3.02-1.26s-2.18.42-3.01,1.26Zm2.92.28c.68,0,1.17.07,1.49.2.56.23.84.69.84,1.38,0,.49-.18.85-.53,1.08-.19.12-.45.21-.79.26.43.07.74.25.93.53.2.29.3.57.3.84v.4c0,.13,0,.26.01.4,0,.14.02.24.05.28l.03.07h-.9v-.05s-.02-.04-.03-.06l-.02-.18v-.43c0-.63-.17-1.04-.51-1.25-.2-.12-.56-.18-1.07-.18h-.76v2.14h-.96v-5.45h1.91Zm1.04.86c-.24-.14-.63-.2-1.16-.2h-.82v1.97h.87c.41,0,.71-.04.91-.12.38-.15.56-.43.56-.85,0-.4-.12-.66-.36-.8Z"/>
      <g>
        <path class="cls-2" d="m22,1.08h15.74c8.8,0,16.1,2.81,16.1,12.87s-6.77,12.99-15.69,12.99h-6.82v16.52h-9.34V1.08Zm9.34,17.96h6.23c3.29,0,6.58-1.14,6.58-5.09,0-4.37-4.43-4.97-8.02-4.97h-4.79v10.06Z"/>
        <path class="cls-2" d="m66.96,1.08h7.72l18.44,42.39h-10.54l-3.65-8.98h-16.46l-3.53,8.98h-10.3L66.96,1.08Zm3.59,12.33l-5.15,13.17h10.36l-5.21-13.17Z"/>
        <path class="cls-2" d="m97.13,1.08h9.34v33.76h17.3v8.62h-26.64V1.08Z"/>
        <path class="cls-2" d="m148.31,0c13.23,0,22.87,8.68,22.87,22.27s-9.64,22.27-22.87,22.27-22.87-8.68-22.87-22.27S135.08,0,148.31,0Zm0,35.92c7.96,0,13.17-5.75,13.17-13.65s-5.21-13.65-13.17-13.65-13.17,5.75-13.17,13.65,5.21,13.65,13.17,13.65Z"/>
        <path class="cls-2" d="m175.72,1.08h14.13l9.76,27.66h.12l9.82-27.66h14.07v42.39h-9.34V10.96h-.12l-11.14,32.51h-7.12l-10.72-32.51h-.12v32.51h-9.34V1.08Z"/>
        <path class="cls-2" d="m245.88,1.08h7.72l18.44,42.39h-10.54l-3.65-8.98h-16.46l-3.53,8.98h-10.3L245.88,1.08Zm3.59,12.33l-5.15,13.17h10.36l-5.21-13.17Z"/>
        <path class="cls-2" d="m275.99,1.08h16.4c8.68,0,15.98,2.99,15.98,12.87,0,5.93-3.17,10.54-9.16,11.61l10.78,17.9h-11.19l-8.86-16.94h-4.61v16.94h-9.34V1.08Zm9.34,17.54h5.51c3.41,0,7.84-.12,7.84-4.73,0-4.25-3.83-4.91-7.24-4.91h-6.11v9.64Z"/>
        <path class="cls-2" d="m330.96,1.08h9.34v15.8h18.14V1.08h9.34v42.38h-9.34v-18.32h-18.14v18.32h-9.34V1.08Z"/>
        <path class="cls-2" d="m375.44,1.08h28.79v8.62h-19.45v7.9h18.38v8.62h-18.38v8.62h20.53v8.62h-29.87V1.08Z"/>
        <path class="cls-2" d="m429.04,1.08h7.72l18.44,42.38h-10.54l-3.65-8.98h-16.46l-3.53,8.98h-10.3L429.04,1.08Zm4.42,12.33l-5.15,13.17h10.36l-5.21-13.17Z"/>
        <path class="cls-2" d="m461.05,1.08h9.34v33.76h17.3v8.62h-26.64V1.08Z"/>
        <path class="cls-2" d="m498.78,9.34h-12.09V1.08h33.52v8.26h-12.09v34.12h-9.34V9.34Z"/>
        <path class="cls-2" d="m526.95,1.08h9.34v15.8h18.14V1.08h9.34v42.38h-9.34v-18.32h-18.14v18.32h-9.34V1.08Z"/>
      </g>
    </g>
  </g>
</svg>