<?xml version="1.0" encoding="UTF-8"?><svg id="a" xmlns="http://www.w3.org/2000/svg" viewBox="0 0 618.2 159.58"><path d="M288.1,148.38h16.2v6h-22.8v-19.6h21.1v6h-14.5v7.6h0Zm-6.5-20.7h21.9v-6h-21.9v6Zm-15.5,26.7h6.5v-19.6h-6.5v19.6Zm6.6-32.6v6h-7.2l-8.7,26.6h-5.4l-8.5-26.1v26.1h-6.6v-32.6h10.7l7.2,22.7,7.3-22.7h11.2Zm125.2,0l-12.1,18.5-.1,.1v14h-6.6v-14l-12.2-18.7h8.2l7.3,12.9,7.8-12.9,7.7,.1h0Zm-40.2,26.5c1.1-.6,2-1.4,2.8-2.4l5.5,4.1c-1.3,1.7-3,3.1-5,3.9-2.1,.9-4.3,1.4-6.5,1.4-2.4,0-4.8-.4-7.1-1.2-2.1-.8-4-1.9-5.6-3.4s-2.8-3.4-3.7-5.4c-1.8-4.6-1.8-9.7,0-14.2,.8-2.1,2.1-3.9,3.7-5.4s3.5-2.7,5.6-3.4c2.3-.8,4.7-1.2,7.1-1.2,1,0,1.9,.1,2.9,.2,1,.2,2,.4,3,.8,1,.4,1.9,.9,2.8,1.5,.8,.5,1.5,1.2,2.1,1.9l-5,4.1c-.7-.8-1.6-1.4-2.5-1.8-1.2-.5-2.5-.8-3.8-.8-2.8,0-5.4,1.1-7.2,3.2-.9,1-1.6,2.2-2.1,3.6-1,2.9-1,6,0,8.9,.5,1.3,1.2,2.5,2.1,3.5s1.9,1.8,3.1,2.4c1.2,.6,2.5,.9,3.9,.8,1.2-.1,2.6-.5,3.9-1.1h0Zm-33.3-13.2c-.7,.3-1.4,.4-2.1,.4-.8,.1-1.5,.1-2.1,.1h-4.8v-8.4h5.2c.7,0,1.4,.1,2.1,.1,.7,.1,1.4,.3,2,.6,1.4,.6,2.2,2.1,2.1,3.6,0,.9-.2,1.7-.7,2.4-.4,.5-1,.9-1.7,1.2h0Zm2.3,5.2c2-.3,3.9-1.4,5.1-3,1.2-1.7,1.8-3.7,1.8-5.8,0-1.6-.3-3.2-1-4.7-.6-1.2-1.5-2.2-2.6-3-1.2-.8-2.5-1.3-3.9-1.6-1.6-.3-3.2-.5-4.8-.5h-12.5v32.6h6.6v-13.3h4.3l7.3,13.4h7.9l-8.8-14,.6-.1h0Z" style="fill:#14443b; fill-rule:evenodd;"/><path d="M279,129.38s-.5-7.6-1.1-12.9h-1.6c-.6,5.2-1.1,12.9-1.1,12.9,0,0-4.9,.4-9.1,1v1.6c4.6,.5,9.1,.8,9.1,.8,0,0,0,11,1.1,26.8h1.6c1-15.7,1.1-26.8,1.1-26.8,0,0,4.5-.2,9.1-.8v-1.6c-4.2-.6-9.1-1-9.1-1Zm191.7-7.6h20.5v3.6h-16.6v10.2h15.5v3.6h-15.5v11.6h17.5v3.6h-21.4v-32.6h0Zm-33.5,0h4.9l18.9,27.1h.1v-27.1h3.9v32.6h-4.9l-18.9-27.1h-.1v27.1h-3.9v-32.6h0Zm-21.8,29.8c1.8,0,3.6-.3,5.2-1.1,1.5-.7,2.9-1.7,4.1-2.9s2.1-2.7,2.7-4.3c1.2-3.4,1.2-7.1,0-10.6-.6-1.6-1.5-3.1-2.6-4.3s-2.5-2.2-4.1-2.9c-3.4-1.4-7.1-1.4-10.5,0-1.5,.7-2.9,1.7-4.1,2.9-1.1,1.2-2,2.7-2.7,4.3-1.2,3.4-1.2,7.1,0,10.6,.6,1.6,1.5,3.1,2.7,4.3,1.1,1.2,2.5,2.2,4.1,2.9,1.6,.8,3.4,1.2,5.2,1.1h0Zm0,3.6c-2.3,0-4.7-.4-6.9-1.3-2-.8-3.9-2-5.4-3.6s-2.8-3.4-3.5-5.4c-1.7-4.4-1.7-9.3,0-13.7,.8-2,2-3.9,3.5-5.4s3.4-2.8,5.4-3.6c4.4-1.7,9.3-1.7,13.7,0,2,.8,3.9,2,5.4,3.6s2.8,3.4,3.5,5.4c1.7,4.4,1.7,9.3,0,13.7-.8,2-2,3.9-3.5,5.4s-3.4,2.8-5.4,3.6c-2.1,.9-4.4,1.4-6.8,1.3h0Z" style="fill:#89c040; fill-rule:evenodd;"/><path d="M498.7,150.08h1.2l1.1,3.1h0l1.1-3.1h1.2v4.4h-.8v-3.5h0l-1.3,3.5h-.5l-1.3-3.5h0v3.5h-.7v-4.4h0Zm-1.3,.9c-.2-.2-.5-.4-.8-.4-.4,0-.8,.2-.8,.6s.3,.5,.8,.6,1.3,.4,1.3,1.3c0,.8-.6,1.4-1.4,1.4h-.2c-.6,0-1.1-.2-1.5-.6l.5-.5c.2,.3,.6,.5,1,.5s.8-.2,.8-.6-.5-.6-1-.8-1.1-.4-1.1-1.2,.8-1.3,1.6-1.3c.5,0,.9,.2,1.3,.5l-.5,.5h0Z" style="fill:#89c040; fill-rule:evenodd;"/><path d="M115.8,154.58l-1.4-3.6h-6l-1.4,3.6h-1.9l5.3-14h2l5.3,14h-1.9Zm-6.8-5.2h4.8l-2.4-6.4-2.4,6.4Z"/><path d="M128.1,149.08v5.5h-1.8v-5.4c0-1.6-1-2.6-2.3-2.6-1.5-.1-2.8,1.1-2.9,2.6v5.4h-1.8v-9.5h1.8v1.4c.6-1.2,2.1-1.7,3.1-1.7,2.4,.1,3.9,1.7,3.9,4.3h0Z"/><path d="M144.9,154.58l-1.4-3.6h-6l-1.4,3.6h-1.9l5.3-14h2l5.3,14h-1.9Zm-6.8-5.2h4.8l-2.4-6.4-2.4,6.4Z"/><path d="M163.8,145.08v9.5h-1.8v-8h-4.3v8h-1.8v-8h-5.2v8h-1.7v-8h-1.8v-1.5h1.8v-1c0-2.5,1-4.2,3.6-4.2h1v1.7h-.7c-1.7,0-2.1,1-2.1,2.3v1.2h5.2v-1c0-2.5,1-4.2,3.6-4.2h.6v1.7h-.4c-1.7,0-2.1,1-2.1,2.3v1.2h6.1Zm.3-3.5c0,.7-.6,1.2-1.2,1.2h0c-.6,.1-1.2-.4-1.3-1.1-.1-.6,.4-1.2,1.1-1.3h.2c.6,0,1.2,.5,1.2,1.2h0Z"/><path d="M167.7,154.58v-14.6h1.8v14.6h-1.8Z"/><path d="M172.6,141.58c-.1-.7,.5-1.3,1.2-1.4,.7-.1,1.3,.5,1.4,1.2,.1,.7-.5,1.3-1.2,1.4h-.1c-.7,0-1.3-.5-1.3-1.2h0Zm.3,13v-9.5h1.8v9.5h-1.8Z"/><path d="M185.3,145.08h1.8v9.5h-1.8v-1.7c-.7,1.2-2.1,1.9-3.5,1.9-2.8-.2-4.8-2.6-4.6-5.3,.2-2.5,2.2-4.5,4.7-4.6,1.4-.1,2.7,.6,3.4,1.7v-1.5h0Zm0,4.8c0-1.8-1.4-3.3-3.2-3.3-1.8,.1-3.2,1.7-3.1,3.6,.1,1.6,1.4,2.9,3.1,3.1,1.7-.1,3.2-1.6,3.2-3.4h0Z"/><path d="M194.7,145.08v1.5h-2.1v8h-1.8v-8h-1.7v-1.5h1.7v-3.6h1.8v3.6h2.1Z"/><path d="M205.4,150.58h-7.7c.2,1.6,1.6,2.7,3.1,2.6,1.1,0,2.2-.5,2.8-1.5l1.5,.6c-.8,1.6-2.5,2.6-4.4,2.6-2.7,0-4.9-2.1-4.9-4.7v-.3c-.1-2.6,1.9-4.9,4.5-5h.3c2.7,0,4.7,2,4.7,5,.1,.2,.1,.5,.1,.7h0Zm-1.7-1.5c-.2-1.6-1.8-2.8-3.4-2.5-1.3,.2-2.3,1.2-2.5,2.5h5.9Z"/><path d="M212.4,149.88c0-2.8,2.3-5,5-5s5,2.3,5,5-2.2,5-5,5c-2.7,.1-4.9-2-5-4.7v-.3h0Zm8.1,0c-.1-1.8-1.6-3.1-3.3-3-1.8,.1-3.1,1.6-3,3.3s1.5,3,3.2,3c1.8,0,3.2-1.4,3.2-3.2,0,0,0-.1-.1-.1h0Z"/><path d="M229.2,141.58c-1.7,0-2.1,1-2.1,2.3v1.2h2.2v1.5h-2.2v8h-1.8v-8h-1.8v-1.5h1.8v-1c0-2.5,1-4.2,3.6-4.2h1v1.7h-.7Z"/><rect y="97.79" width="617.9" height="1" style="fill:#7b7879;"/><rect x="216.6" y="36.8" width="401.3" height="2" style="fill:#1a84c6;"/><path d="M218.6,26c.9,0,1.8-.2,2.6-.8,.5-.8,.8-1.8,.7-2.8V5.1c0-1.5-.2-2.4-.7-2.8-.8-.5-1.7-.8-2.6-.8V.5h12.6c3.3,0,5.9,.5,7.6,1.6s2.6,2.9,2.6,5.6c0,1.3-.3,2.5-1,3.6-.8,1.2-2,2.2-3.4,2.7-1.1,.5-2.3,.8-3.5,.9-1.2,.1-2.9,.2-5.2,.2v7.3c-.1,1,.1,2,.7,2.8,.8,.5,1.7,.8,2.7,.7v1h-13l-.1-.9h0Zm14.2-13c1.2-.8,1.9-2.5,1.9-5.1,.1-1.5-.2-3-.9-4.3-.6-1.1-1.7-1.6-3.4-1.6-.6,0-1.1,.1-1.7,.3-.4,.2-.6,.6-.5,1.1V13.9c2.3-.2,3.8-.4,4.6-.9h0Z" style="fill:#1a84c6;"/><path d="M238.8,26c.9,0,1.8-.5,2.3-1.3,.6-1,1.2-2.1,1.6-3.3L251.4,.1h1.1l8.7,20.5c.6,1.5,1.3,3,2.2,4.4,.5,.7,1.2,1,2,1v1h-12.6v-1c.9,0,1.7-.1,2.5-.3,.4-.2,.6-.6,.6-1.3,0-.5-.1-.9-.3-1.4-.1-.4-.3-.8-.5-1.3l-1-2.4h-8.8c-.6,1.5-.9,2.6-1.1,3-.3,.7-.5,1.4-.5,2.2,0,.6,.4,1,1.1,1.2,.6,.2,1.3,.2,2,.2v1h-8v-.9h0Zm14.6-8.3l-3.8-9h-.3l-3.5,9h7.6Z" style="fill:#1a84c6;"/><path d="M267.2,26c.8,0,1.6-.1,2.3-.4,.8-.5,1.3-1.4,1.2-2.3V4.3c.1-.9-.3-1.8-1.1-2.3-.7-.3-1.5-.5-2.3-.5V.5h13.6V1.5c-1.1-.1-2.2,.2-3.2,.7-.5,.4-.8,1.4-.8,2.9V23.5c-.1,.6,.2,1.3,.7,1.7,.8,.4,1.7,.5,2.6,.4,2.1,.1,4.1-.5,5.9-1.5,1.6-1,3-3,4.1-6h1.2l-1.6,8.8h-22.6v-.9h0Z" style="fill:#1a84c6;"/><path d="M317,3.8c2.7,2.6,4.1,6.3,4,10.1,.1,3.8-1.3,7.4-4,10-2.6,2.5-6.2,3.9-9.8,3.8-7.4,.2-13.6-5.6-13.8-13v-.6c-.1-3.7,1.3-7.4,3.9-10.1,5.5-5.3,14.1-5.3,19.7-.2,.1,0,0,0,0,0Zm-3.8,17.4c.6-2.4,.9-4.9,.9-7.4,0-4.1-.6-7.3-1.9-9.4-1-1.9-2.9-3.2-5-3.2-2.9,0-5,1.8-6.1,5.3-.6,2.4-.9,4.8-.9,7.3-.1,2.5,.2,5,.9,7.4,1.1,3.5,3.1,5.2,6,5.2s5-1.7,6.1-5.2h0Z" style="fill:#1a84c6;"/><path d="M332.9,26c.9,0,1.8-.5,2.3-1.3,.6-1,1.2-2.1,1.6-3.3L345.5,.1h1.1l8.7,20.5c.6,1.5,1.3,3,2.2,4.4,.5,.7,1.2,1,2,1v1h-12.6v-1c.9,0,1.7-.1,2.5-.3,.4-.2,.6-.6,.6-1.3,0-.5-.1-.9-.3-1.4-.1-.4-.3-.8-.5-1.3l-1-2.4h-8.8c-.6,1.5-.9,2.6-1.1,3-.3,.7-.5,1.4-.5,2.2,0,.6,.4,1,1.1,1.2,.6,.2,1.3,.2,2,.2v1h-8v-.9h0Zm14.6-8.3l-3.8-9h-.3l-3.5,9h7.6Z" style="fill:#1a84c6;"/><path d="M361.2,26c.8,0,1.6-.1,2.3-.4,.8-.5,1.3-1.4,1.2-2.3V4.3c.1-.9-.3-1.8-1.1-2.3-.7-.3-1.5-.5-2.3-.5V.5h13.6V1.5c-1.1-.1-2.2,.2-3.2,.7-.5,.4-.8,1.4-.8,2.9V23.5c-.1,.6,.2,1.3,.7,1.7,.8,.4,1.7,.5,2.6,.4,2.1,.1,4.1-.5,5.9-1.5,1.6-1,3-3,4.1-6h1.1l-1.6,8.8h-22.6l.1-.9h0Z" style="fill:#1a84c6;"/><path d="M384.3,.6h23.5v7.9h-1.1c-.4-2.8-1.4-4.7-3.2-5.7-1.4-.6-2.9-1-4.4-.9V22.4c-.1,1,.1,2,.8,2.9,.5,.5,1.5,.7,3.1,.7v1h-13.9v-1c1,.1,2.1-.1,3-.7,.6-.8,.9-1.8,.8-2.9V1.9c-1.5,0-3,.3-4.4,.9-1.9,1-2.9,2.9-3.2,5.7h-1.1c0-.1,.1-7.9,.1-7.9Z" style="fill:#1a84c6;"/><path d="M433.5,3.8c2.7,2.6,4.1,6.3,4,10.1,.1,3.8-1.3,7.4-4,10-2.6,2.5-6.2,3.9-9.8,3.8-7.4,.2-13.6-5.6-13.9-12.9v-.6c-.1-3.7,1.3-7.4,3.9-10.1,5.5-5.4,14.2-5.4,19.8-.3h0Zm-3.8,17.4c.6-2.4,.9-4.9,.9-7.4,0-4.1-.6-7.3-1.9-9.4-1-1.9-2.9-3.2-5-3.2-2.9,0-5,1.8-6.1,5.3-.6,2.4-.9,4.8-.9,7.3-.1,2.5,.2,5,.9,7.4,1.1,3.5,3.1,5.2,6,5.2s5-1.7,6.1-5.2h0Z" style="fill:#1a84c6;"/><path d="M468.6,1c.9,.4,1.8,.7,2.8,.9,.5,0,.9-.2,1.2-.6,.3-.4,.5-.8,.6-1.2h1.1V9.2h-1c-.8-1.7-1.7-3.2-2.9-4.7-1.5-1.9-3.8-3.1-6.2-3.2-2.4-.1-4.6,1.2-5.6,3.4-1.2,2.9-1.8,6-1.6,9.1-.1,2.3,.3,4.7,1,6.9,1.2,3.4,3.4,5.1,6.7,5.1,2,0,3.9-.6,5.6-1.7,1.3-.9,2.5-1.9,3.5-3.1l1.2,1c-1.2,1.4-2.5,2.6-4,3.7-2,1.3-4.4,2-6.9,2-3.5,.1-7-1.1-9.7-3.4-2.9-2.6-4.5-6.3-4.3-10.2-.1-3.9,1.4-7.6,4.1-10.3C456.8,1.3,460.2,0,463.7,.1c1.7,0,3.4,.3,4.9,.9h0Z" style="fill:#1a84c6;"/><path d="M501.4,3.8c2.7,2.6,4.1,6.3,4,10.1,.1,7.6-6.1,13.9-13.7,13.9-7.6,.1-13.9-6.1-14-13.7-.1-3.7,1.3-7.4,3.9-10.1,5.5-5.3,14.2-5.3,19.8-.2h0Zm-3.8,17.4c.6-2.4,.9-4.9,.9-7.4,0-4.1-.6-7.3-1.9-9.4-.9-1.9-2.9-3.1-5-3.2-3,0-5,1.8-6.1,5.3-.6,2.4-.9,4.8-.9,7.3-.1,2.5,.2,5,.9,7.4,1.1,3.5,3.1,5.2,6,5.2s5-1.7,6.1-5.2h0Z" style="fill:#1a84c6;"/><path d="M520.4,.6V1.6c-1-.1-2.1,.2-3,.7-.5,.4-.8,1.4-.8,2.9v13.1c-.1,1.6,.2,3.1,.7,4.6,.8,2,2.8,3.2,4.9,3,3,0,5-1.1,6.1-3.3,.7-1.6,1-3.4,.9-5.1V5.5c.1-1-.2-2.1-.8-2.9-.9-.7-1.9-1-3-1V.6h8.6V1.6c-.9,.1-1.7,.4-2.5,.9-.5,.7-.7,1.5-.6,2.4v12.5c0,3.3-.8,5.9-2.4,7.7s-4.1,2.7-7.5,2.7c-4.5,0-7.5-1.3-9.2-4-1-1.7-1.5-3.6-1.4-5.5V5.3c0-1.5-.2-2.4-.6-2.8-.8-.5-1.7-.8-2.6-.8V.7l13.2-.1h0Z" style="fill:#1a84c6;"/><path d="M536.4,26c1.4,0,2.4-.3,2.8-.8,.5-.7,.7-1.5,.6-2.3V4.4c-1.2-1.3-1.9-2.1-2.2-2.3-.3-.3-.7-.4-1.2-.5V.6h8.3l13.4,16.3h.2V5.5c.1-1-.2-2-.7-2.8-.8-.7-1.8-1-2.9-1V.7h8.4V1.7c-.9,.1-1.7,.4-2.5,.8-.5,.6-.7,1.5-.6,2.3V27.8h-1l-17.2-21h-.3v15.3c-.1,.9,.1,1.8,.5,2.5,.5,.8,1.6,1.2,3.2,1.3v1h-8.9l.1-.9q0-.1,0,0Z" style="fill:#1a84c6;"/><path d="M565.1,.6h23.5v7.9h-1.1c-.4-2.8-1.4-4.7-3.2-5.7-1.4-.6-2.9-1-4.4-.9V22.4c-.1,1,.1,2,.8,2.9,.5,.5,1.5,.7,3.1,.7v1h-13.9v-1c1,.1,2.1-.1,3-.7,.6-.8,.9-1.8,.8-2.9V1.9c-1.5,0-3,.3-4.4,.9-1.9,1-2.9,2.9-3.2,5.7h-1.1c0-.1,.1-7.9,.1-7.9Z" style="fill:#1a84c6;"/><path d="M604.5,.6V1.6c-.9,0-1.7,.1-2.6,.3-.4,.1-.6,.4-.6,.8,0,.2,0,.4,.1,.6s.2,.6,.5,1.1l5.2,9.4h0l4.2-6.9c.3-.5,.6-1,.8-1.5,.3-.6,.6-1.3,.7-2.1,.1-.6-.3-1.1-.8-1.4-.8-.2-1.6-.3-2.4-.4V.5h8.6V1.5c-.5,.1-1,.2-1.5,.4-.5,.3-.9,.6-1.2,1.1l-7.5,12.2v7.2c0,1.5,.2,2.4,.8,2.9,.8,.5,1.8,.8,2.8,.7v1h-13.5v-1c1,.1,2-.2,2.9-.7,.6-.8,.8-1.8,.7-2.8v-5.7l-7.1-13c-.4-.8-1-1.4-1.7-1.8-.4-.2-.9-.3-1.4-.3V.7l13-.1Z" style="fill:#1a84c6;"/><path d="M218.1,75.6c.9,0,1.8-.2,2.6-.5,.9-.5,1.4-1.6,1.3-2.6v-21.2c.1-1-.3-2-1.1-2.5-.9-.3-1.8-.5-2.7-.6v-1.1h15.6v1.1c-1,0-1.9,.2-2.8,.5-.9,.5-1.4,1.5-1.3,2.6v9.1h10.9v-9.1c.1-1-.4-2-1.2-2.5-.9-.3-1.9-.5-2.9-.5v-1.1h15.6v1.1c-1,0-1.9,.2-2.8,.5-.9,.5-1.4,1.5-1.2,2.5v21.2c-.1,1.1,.4,2.1,1.4,2.6,.8,.3,1.7,.5,2.6,.5v1.1h-15.6v-1.1c1,0,1.9-.2,2.8-.5,.9-.5,1.4-1.5,1.3-2.6v-10h-10.9v10.1c-.1,1.1,.4,2.1,1.4,2.6,.9,.3,1.8,.5,2.7,.4v1.1h-15.6l-.1-1.1h0Z" style="fill:#1a84c6;"/><path d="M253.8,76.7v-1.1c1,0,1.9-.2,2.8-.5,.9-.5,1.4-1.5,1.3-2.6v-21.2c.1-1-.4-2-1.3-2.6-.9-.3-1.8-.5-2.7-.5v-1.1h26.1v8.9h-1.1c-.6-2.8-1.5-4.8-2.9-5.8s-3.9-1.6-7.5-1.6c-.9-.1-1.8,0-2.6,.4-.4,.4-.6,1-.6,1.7v10.1c2.6,0,4.3-.4,5.2-1.4s1.6-2.6,2.1-5.1h1.1v14.8h-1.1c-.3-2.5-1-4.3-2-5.3-1-1-2.8-1.5-5.4-1.5v10.7c-.1,.7,.2,1.4,.7,1.9,.9,.4,2,.6,3,.5,2.5,.1,4.9-.5,7.1-1.6,1.8-1.1,3.4-3.1,4.9-6.1h1.3l-1.8,9.1c-.3-.1-26.6-.1-26.6-.1Z" style="fill:#1a84c6;"/><path d="M284.4,75.6c1.1-.1,2.1-.6,2.7-1.4,.8-1.2,1.4-2.4,1.9-3.7l10.4-24h1.3l10.5,23c.7,1.7,1.6,3.4,2.6,5,.6,.8,1.5,1.2,2.5,1.1v1.1h-15.2v-1.1c1,0,2-.1,3-.4,.5-.2,.7-.7,.7-1.4,0-.5-.2-1.1-.4-1.6-.1-.4-.4-.9-.6-1.5l-1.2-2.7h-10.5c-.7,1.7-1.1,2.9-1.3,3.4-.3,.8-.5,1.6-.6,2.5,0,.6,.5,1.1,1.4,1.4,.8,.2,1.6,.3,2.4,.3v1.1h-9.5l-.1-1.1h0Zm17.6-9.2l-4.5-10.1h-.4l-4.2,10.1h9.1Z" style="fill:#1a84c6;"/><path d="M318.4,75.6c.9,0,1.8-.1,2.7-.5,.9-.5,1.5-1.6,1.4-2.6v-21.2c.1-1-.4-2-1.3-2.6-.9-.3-1.8-.5-2.8-.5v-1.1h16.1v1.1c-1.3-.1-2.6,.2-3.7,.8-.6,.4-.9,1.5-.9,3.2v20.7c-.1,.7,.2,1.5,.8,1.9,1,.4,2,.6,3.1,.5,2.5,.1,4.9-.5,7-1.7,1.9-1.2,3.5-3.4,4.9-6.8h1.4l-1.9,9.9h-26.7l-.1-1.1h0Z" style="fill:#1a84c6;"/><path d="M346,47.1h28.2v8.8h-1.4c-.4-3.2-1.7-5.3-3.8-6.4-1.7-.7-3.5-1.1-5.3-1v23.1c0,1.6,.3,2.7,.9,3.2s1.9,.8,3.8,.8v1.1h-16.7v-1.1c1.8,0,3-.3,3.6-.8s.9-1.6,.9-3.2v-23c-1.8,0-3.6,.3-5.3,1-2.2,1.1-3.5,3.3-3.8,6.4h-1.4l.3-8.9h0Z" style="fill:#1a84c6;"/><path d="M376.6,75.6c.9,0,1.7-.2,2.5-.5,.9-.6,1.4-1.6,1.2-2.6v-21.2c.1-1-.3-1.9-1.1-2.5-.9-.3-1.8-.5-2.7-.6v-1.1h15.2v1.1c-.9,0-1.9,.2-2.7,.5-.9,.5-1.4,1.5-1.3,2.6v9.1h10.7v-9.1c.1-1-.3-2-1.2-2.5-.9-.3-1.8-.5-2.8-.5v-1.1h15.3v1.1c-.9,0-1.8,.2-2.7,.5-.9,.5-1.3,1.5-1.2,2.5v21.2c-.1,1.1,.4,2.1,1.3,2.6,.8,.3,1.7,.5,2.6,.5v1.1h-15.3v-1.1c.9,0,1.9-.2,2.7-.5,.9-.5,1.4-1.5,1.2-2.6v-10h-10.7v10.1c-.1,1.1,.4,2.1,1.4,2.6,.9,.3,1.8,.5,2.6,.4v1.1h-15.2l.2-1.1h0Z" style="fill:#1a84c6;"/><path d="M424.5,66.5h1.4c.8,3.3,2,5.6,3.6,7.1,1.5,1.4,3.6,2.2,5.7,2.2s3.6-.5,4.5-1.5c.8-.9,1.3-2,1.3-3.2s-.5-2.4-1.4-3.2c-1.1-.9-2.4-1.6-3.7-2.1l-3-1.4c-2.3-1-4.5-2.4-6.3-4.2-1.2-1.4-1.9-3.2-1.8-5.1,0-2.2,.9-4.4,2.4-6,1.6-1.8,4.1-2.8,7.4-2.8,1.7,0,3.3,.2,4.9,.7,.9,.3,1.8,.5,2.7,.7,.4,.1,.8-.1,1.1-.4,.2-.3,.4-.7,.5-1.1h1.4v9.5h-1.2c-.6-2.2-1.7-4.1-3.2-5.7-1.5-1.6-3.5-2.4-5.6-2.4-1.4-.1-2.7,.3-3.7,1.2-.9,.7-1.4,1.8-1.4,2.9-.1,1.2,.4,2.3,1.3,3.1,1.7,1.2,3.6,2.2,5.6,3.1l3.5,1.6c1.4,.6,2.6,1.4,3.7,2.4,1.7,1.5,2.6,3.7,2.6,6s-1,4.7-2.8,6.3c-1.8,2-4.8,2.9-8.8,2.9-1,0-1.9-.1-2.8-.2-1-.2-1.9-.4-2.8-.8l-.9-.3c-.2-.1-.4-.1-.6-.1s-.3-.1-.5-.1c-.4-.1-.8,.1-1,.4s-.4,.7-.5,1.1h-1.4l-.2-10.6h0Z" style="fill:#1a84c6;"/><path d="M464.2,47.1v1.1c-1,0-2.1,.1-3.1,.3-.4,.1-.7,.5-.7,.9,0,.2,0,.4,.1,.7,.1,.2,.3,.7,.6,1.3l6.2,10.5h.1l5-7.7c.4-.6,.7-1.2,1-1.8,.4-.7,.7-1.5,.8-2.3,.1-.7-.4-1.3-1-1.5-1-.2-1.9-.4-2.9-.4v-1.1h10.3v1.1c-.6,.1-1.2,.2-1.8,.5-.6,.3-1,.7-1.4,1.2l-9,13.6v8.1c0,1.7,.3,2.7,.9,3.2,1,.6,2.2,.9,3.4,.8v1.1h-16.2v-1.1c1.7,0,2.9-.3,3.5-.8s.9-1.6,.9-3.2v-6.4l-8.5-14.5c-.5-.9-1.2-1.6-2.1-2-.5-.2-1.1-.4-1.7-.4v-1.1c-.1-.1,15.6-.1,15.6-.1Z" style="fill:#1a84c6;"/><path d="M483.6,66.5h1.4c.7,3.3,2,5.7,3.6,7.1,1.5,1.4,3.6,2.2,5.7,2.2s3.6-.5,4.5-1.5c.8-.9,1.3-2,1.3-3.2s-.5-2.4-1.4-3.2c-1.1-.8-2.4-1.6-3.7-2.1l-3-1.4c-2.3-1-4.5-2.4-6.3-4.2-1.2-1.4-1.9-3.2-1.8-5.1,0-2.2,.9-4.4,2.4-6,1.6-1.8,4.1-2.8,7.4-2.8,1.7,0,3.3,.2,4.9,.7,.9,.3,1.8,.5,2.7,.7,.4,.1,.8-.1,1.1-.4,.2-.3,.4-.7,.5-1.1h1.4v9.5h-1.3c-.6-2.2-1.7-4.1-3.2-5.7-1.5-1.6-3.5-2.4-5.6-2.4-1.4-.1-2.7,.3-3.7,1.2-1.7,1.6-1.8,4.2-.2,5.9l.1,.1c1.8,1.2,3.6,2.2,5.6,3.1l3.5,1.7c1.4,.6,2.6,1.4,3.7,2.4,1.7,1.5,2.6,3.7,2.6,6s-1,4.7-2.8,6.3c-1.8,2-4.8,2.9-8.8,2.9-1,0-1.9-.1-2.8-.2-1-.2-1.9-.4-2.8-.8l-.9-.3c-.2-.1-.4-.1-.6-.1s-.3-.1-.5-.1c-.4,0-.8,.1-1,.4s-.4,.7-.5,1.1h-1.4l-.1-10.7h0Z" style="fill:#1a84c6;"/><path d="M508.8,47.1h28.2v8.9h-1.3c-.4-3.2-1.7-5.3-3.8-6.4-1.7-.7-3.5-1.1-5.3-1v23.1c0,1.6,.3,2.7,.9,3.2s1.8,.8,3.8,.8v1.1h-16.6v-1.1c1.8,0,3-.3,3.6-.8s.9-1.6,.9-3.2v-23.1c-1.8,0-3.6,.3-5.3,1-2.2,1.1-3.5,3.3-3.8,6.4h-1.3v-8.9h0Z" style="fill:#1a84c6;"/><path d="M538.4,76.7v-1.1c1,0,2-.2,2.9-.5,.9-.5,1.4-1.5,1.3-2.6v-21.2c.1-1-.4-2.1-1.3-2.6-.9-.3-1.8-.5-2.8-.5v-1.1h27v8.9h-1.1c-.6-2.8-1.6-4.8-3-5.8s-4-1.6-7.8-1.6c-.9-.1-1.9,0-2.7,.4-.5,.4-.7,1-.6,1.7v10.1c2.7,0,4.5-.4,5.4-1.4s1.7-2.6,2.2-5.1h1.2v14.8h-1.2c-.3-2.5-1-4.3-2-5.3s-2.9-1.5-5.5-1.5v10.7c-.1,.7,.2,1.4,.8,1.9,1,.4,2.1,.6,3.1,.5,2.5,.1,5.1-.4,7.3-1.6,1.9-1.1,3.6-3.1,5-6.1h1.3l-1.9,9.1-27.6-.1h0Z" style="fill:#1a84c6;"/><path d="M570.3,75.6c1.8,0,2.9-.3,3.4-.9,.6-.7,.8-1.7,.8-2.6v-20.8c.1-.9-.2-1.8-.9-2.3-1-.5-2.1-.7-3.2-.7v-1.1h11.6l9.1,20.3h.4l9-20.3h11.6v1.1c-1.1,0-2.2,.3-3.2,.8-.6,.4-.8,1.5-.8,3.2v19.4c0,1.6,.3,2.7,.8,3.2,1,.6,2.1,.9,3.2,.8v1.1h-15.3v-1.1c1.1,0,2.1-.2,3.1-.7,.7-.4,1-1.2,1-2.6v-21.4h-.3l-11.2,25.8h-1.2l-11.4-25.3h-.2v19.8c-.1,1.1,.2,2.3,.8,3.2,.6,.7,1.8,1,3.8,1.1v1.1h-10.8l-.1-1.1h0Z" style="fill:#1a84c6;"/><path d="M0,74.7c1.6-.1,3.1-.9,3.9-2.3,.7-1.3,1-3.9,1-7.8V15.4c0-4.2-.3-6.8-1-7.9-.9-1.3-2.3-2.1-3.9-2.3V2.4H19c5,0,8.9,1.5,11.5,4.6,2.6,3.1,3.9,8.4,3.9,15.8,0,3.5-.5,7-1.5,10.3-.9,3-2.7,5.7-5.1,7.7-1.5,1.3-3.4,2.1-5.4,2.5-2.6,.3-5.3,.5-8,.4v20.7c0,4.1,.4,6.8,1.1,8s2.1,2,4.1,2.1v2.9H0v-2.7ZM21.5,37.7c1.9-2.2,2.8-7.1,2.8-14.5,.1-4.2-.3-8.3-1.3-12.3-.9-3.1-2.6-4.7-5.2-4.7-.9-.1-1.8,.2-2.5,.8-.6,.9-.9,2-.8,3.1v29.8c3.5-.1,5.8-.8,7-2.2Z" style="fill:#1a84c6;"/><path d="M33.3,74.7c1.5-.2,2.8-1.4,3.7-3.6,1.1-3.1,2-6.2,2.6-9.3L53.8,.9h1.8l14.3,58.4c.9,4.3,2.2,8.5,3.6,12.7,.8,1.9,1.9,2.8,3.4,2.7v2.8h-20.8v-2.8c1.4,0,2.8-.3,4.1-.9,.7-.5,1-1.7,1-3.6-.1-1.3-.2-2.7-.5-4-.2-1-.5-2.3-.8-3.8l-1.6-6.7h-14.4c-.9,4.4-1.5,7.3-1.8,8.6-.5,2.1-.8,4.1-.8,6.2-.1,1.4,.6,2.8,1.8,3.5,1,.5,2.2,.7,3.3,.7v2.9h-13.1v-2.9Zm24-23.4l-6.1-25.7h-.5l-5.8,25.7h12.4Z" style="fill:#1a84c6;"/><path d="M108.1,3.5c2.7,1.7,4.1,2.6,4.4,2.6,.8,0,1.4-.5,1.9-1.6s.8-2.2,.9-3.4h1.7V27.1h-1.6c-1.1-4.6-2.7-9-4.6-13.4-2.9-6-6.2-9-9.9-9-4.2,0-7.1,3.2-8.8,9.6-1.7,6.4-2.6,15-2.6,25.9-.1,6.6,.4,13.2,1.5,19.6,1.9,9.6,5.5,14.4,10.7,14.4,3.2,0,6.1-1.6,8.9-4.8,2.2-2.8,4-5.7,5.6-8.8l1.8,2.7c-1.7,3.7-3.9,7.3-6.4,10.5-3.3,3.9-6.9,5.8-10.9,5.8-6.1,0-11.2-3.2-15.4-9.8-4.6-7.2-6.9-16.9-6.9-29.1s2.2-21.9,6.6-29.4c4.1-7,9.2-10.5,15.2-10.5,2.8,.3,5.6,1.2,7.9,2.7Z" style="fill:#1a84c6;"/><path d="M121.1,74.7c1.3,0,2.6-.4,3.6-1.2,1.2-1.2,1.8-3.3,1.8-6.6V13c0-3.1-.5-5.2-1.6-6.4-1.1-.8-2.4-1.3-3.7-1.5V2.4h21.2v2.8c-1.4,0-2.7,.4-3.8,1.3-1.2,1.2-1.8,3.3-1.8,6.5v23.1h15V13c0-3.2-.6-5.3-1.7-6.5-1.1-.8-2.5-1.3-3.9-1.3V2.4h21.4v2.8c-1.4,.1-2.7,.6-3.8,1.4-1.1,1.1-1.7,3.2-1.7,6.4v53.8c0,3.3,.6,5.5,1.9,6.6,1,.8,2.3,1.2,3.6,1.2v2.8h-21.4v-2.8c1.4,0,2.8-.4,3.8-1.3,1.2-1.2,1.7-3.3,1.7-6.5v-25.6h-15v25.6c0,3.3,.6,5.5,1.9,6.7,1.1,.8,2.4,1.2,3.7,1.1v2.8h-21.2v-2.7Z" style="fill:#1a84c6;"/><path d="M170.9,51.5h1.8c1,8.3,2.7,14.3,4.9,18.1s4.9,5.7,7.8,5.7c2.6,.1,5.1-1.4,6.1-3.8,1.2-2.6,1.8-5.3,1.8-8.2,.1-2.8-.5-5.7-1.9-8.2-1.4-2-3.1-3.9-5.1-5.4l-4.1-3.6c-3.5-2.9-6.4-6.5-8.6-10.5-1.8-4-2.6-8.4-2.5-12.9,0-5.2,1.1-10.4,3.3-15.2,2.2-4.7,5.6-7.1,10.1-7.1,2.4,0,4.7,.7,6.7,1.9,1.2,.8,2.4,1.4,3.7,1.8,.7,0,1.3-.4,1.4-1.1,.3-.9,.5-1.8,.6-2.8h1.9V24.4h-1.7c-.7-5-2.2-9.9-4.4-14.5-1.8-3.9-4.4-5.9-7.4-5.9-2.1,0-4,1.2-5,3.1-1.3,2.3-1.9,4.8-1.9,7.4,0,3.5,.6,6.1,1.7,7.9s3.7,4.4,7.6,7.8l4.7,4.1c2,1.7,3.7,3.8,5,6.1,2.4,4.2,3.5,9.3,3.5,15.3,0,5.5-1.3,10.9-3.8,15.9-2.1,4.7-6.9,7.7-12.1,7.5-1.3,0-2.6-.2-3.9-.6-1.4-.4-2.7-1.1-3.9-1.9l-1.2-.8c-.3-.1-.6-.2-.8-.3-.2-.1-.4-.1-.7-.1-.6,0-1.2,.4-1.4,1-.3,.9-.5,1.9-.6,2.8h-1.8l.2-27.7h0Z" style="fill:#1a84c6;"/></svg>