<?xml version="1.0" encoding="utf-8"?>
<!-- Generator: Adobe Illustrator 21.1.0, SVG Export Plug-In . SVG Version: 6.00 Build 0)  -->
<svg version="1.1" id="Typography" xmlns="http://www.w3.org/2000/svg" xmlns:xlink="http://www.w3.org/1999/xlink" x="0px" y="0px"
	 viewBox="0 0 587.4 78.2" style="enable-background:new 0 0 587.4 78.2;" xml:space="preserve">
<style type="text/css">
	.st0{fill:#004371;}
</style>
<g>
	<path class="st0" d="M143.7,61.1V36.5c0-2.4,0-5.9,0.6-7.3c0.8-1.8,3-2,5.4-2h0.5v-2.8h-0.6c-2.3,0.1-4.5,0.2-6.6,0.3h-0.1h-0.2
		c-2-0.1-4.1-0.1-6.2-0.3h-0.4l-14.2,34l-14.6-34h-0.4c-2.2,0.1-4.3,0.2-6.2,0.3v0.2l0,0l-0.1-0.2c-2.1-0.1-4.5-0.1-6.8-0.3h-0.6
		v2.7h0.5c2,0,4.6,0,5.3,2c0.3,0.9,0.6,2.6,0.6,4.2v29c0,2.8-0.7,5.6-5.6,5.6h-0.5v2.7h0.6c1.2,0,2.4-0.1,3.6-0.1h0.2
		c1.1,0,2.3-0.1,3.4-0.1c1.2,0,2.4,0.1,3.6,0.1h0.2c1.3,0.1,2.5,0.1,3.8,0.1h0.6V68H109c-5.1-0.3-6-2.6-6-7.8V33.8l15.7,36.7h1.4
		l0.1-0.3c1.4-3.3,2.8-6.5,4.3-9.8l0.2-0.5c1.3-3.1,2.7-6.2,4-9.3l6.8-16.8V61c0,6.3,0,6.3-6.2,6.8h-0.5v2.6h0.6
		c1.7,0,3.4-0.1,5.1-0.1h0.3c1.6,0,3.3-0.1,4.9-0.1c1.6,0,3.2,0.1,4.9,0.1c1.7,0.1,3.5,0.1,5.3,0.1h0.6v-2.6H150
		C143.7,67.4,143.7,67.4,143.7,61.1z"/>
	<path class="st0" d="M166,32.7h-0.2c-1.3,0-2.7,0.1-4,0.1s-2.6-0.1-4-0.1c-1.3,0-2.7-0.1-4-0.1h-0.7v2.6h0.7c1.6,0,3.6,0,4.1,1.5
		c0.5,1.4,0.5,5.4,0.5,7.1v15.6c0,1.7,0,5.8-0.5,7.1c-0.6,1.5-2.5,1.5-4.1,1.5h-0.7v2.6h0.7c1.4,0,2.8-0.1,4.2-0.1s2.8-0.1,4.1-0.1
		s2.7,0.1,4.1,0.1c1.3,0,2.6,0.1,3.8,0.1h0.7V68H170c-1.6,0-3.6,0-4.1-1.5c-0.5-1.4-0.5-5.4-0.5-7.1V43.8c0-1.7,0-5.8,0.5-7.1
		c0.6-1.5,2.5-1.5,4.1-1.5h0.7v-2.6H170C168.8,32.6,167.4,32.7,166,32.7z"/>
	<path class="st0" d="M186.8,46.7l-0.3-0.1c-3.3-1.4-6.6-2.8-6.6-6.6c0-3,2.4-5.2,5.8-5.2c4.2,0,7.1,2.8,8.6,8.3l0.1,0.5h2.5
		l-0.3-10.9H195l-1.1,1.9c-2.6-1.7-5.3-2.5-8.2-2.5c-6.9,0-11.6,4.4-11.6,10.6c0,6.5,5.2,9.4,10.8,11.5c4.2,1.7,8,3.6,8,8
		c0,4.3-3.6,6.3-7.3,6.3c-6.5,0-8.9-5.3-9.8-9.8l-0.1-0.5h-2.5v12h1.7l1.2-2c3,2.1,6,3,9.5,3c6.7,0,13.9-3.6,13.9-11.4
		C199.4,51.9,192.1,48.9,186.8,46.7z"/>
	<path class="st0" d="M215.9,46.7l-0.3-0.1c-3.3-1.4-6.6-2.8-6.6-6.6c0-3,2.4-5.2,5.8-5.2c4.2,0,7.1,2.8,8.6,8.3l0.1,0.5h2.5
		l-0.3-11h-1.6l-1.1,1.9c-2.6-1.7-5.3-2.5-8.2-2.5c-6.9,0-11.6,4.4-11.6,10.6c0,6.5,5.2,9.4,10.8,11.5c4.2,1.7,8,3.6,8,8
		c0,4.3-3.6,6.3-7.3,6.3c-6.5,0-8.9-5.3-9.8-9.8l-0.1-0.5h-2.5v12.1h1.7l1.2-2c3,2.1,6,3,9.5,3c6.7,0,13.9-3.6,13.9-11.4
		C228.5,51.9,221.3,48.9,215.9,46.7z"/>
	<path class="st0" d="M241.9,32.7h-0.2c-1.3,0-2.7,0.1-4,0.1s-2.6-0.1-3.9-0.1c-1.3,0-2.7-0.1-4-0.1h-0.7v2.6h0.7
		c1.6,0,3.6,0,4.1,1.5c0.5,1.4,0.5,5.4,0.5,7.1v15.6c0,1.7,0,5.8-0.5,7.1c-0.6,1.5-2.5,1.5-4.1,1.5h-0.7v2.6h0.7
		c1.4,0,2.8-0.1,4.2-0.1s2.8-0.1,4.2-0.1c1.3,0,2.7,0.1,4.1,0.1c1.3,0,2.6,0.1,3.8,0.1h0.7V68h-0.7c-1.6,0-3.6,0-4.1-1.5
		c-0.5-1.4-0.5-5.4-0.5-7.1V43.8c0-1.7,0-5.8,0.5-7.1c0.6-1.5,2.5-1.5,4.1-1.5h0.7v-2.6h-0.7C244.7,32.6,243.3,32.7,241.9,32.7z"/>
	<path class="st0" d="M268.6,32c-11.6,0-21,8.9-21,19.8s9.1,19.5,20.8,19.5c11.8,0,20.8-8.6,20.8-19.9C289.1,40.5,280.1,32,268.6,32
		z M268.3,34.8c9.2,0,12.5,8.7,12.5,16.8c0,4-0.9,16.9-12.2,16.9c-3.9,0-12.9-1.6-12.9-16.7C255.8,39.2,262.6,34.8,268.3,34.8z"/>
	<path class="st0" d="M326.7,32.7h-0.1c-0.9,0-1.8,0.1-2.6,0.1c-1,0-2-0.1-3-0.1s-2-0.1-3.1-0.1h-0.7v2.5l0.6,0.1
		c0.3,0.1,0.6,0.1,0.9,0.1h0.1c2.1,0.3,2.9,0.4,3.4,2.7c0.5,2.2,0.5,6.1,0.5,8.4v13.7l-22.3-27.2l-0.2-0.3h-0.3
		c-0.7,0-1.5,0.1-2.2,0.1s-1.4,0.1-2.1,0.1c-0.9,0-1.7-0.1-2.6-0.1h-0.1c-0.8,0-1.7-0.1-2.5-0.1h-0.7v2.6h0.7c2.6,0,3.8,0.7,5.4,2.9
		v20.2c0,2.1,0,5.6-0.4,7.5c-0.4,1.7-1.7,2-3.9,2.2l-0.9,0.1v2.6h0.7c1,0,2.1-0.1,3.1-0.1s2-0.1,3-0.1s2.1,0.1,3.2,0.1
		s2.1,0.1,3.2,0.1h0.7v-2.6l-0.6-0.1c-0.2,0-0.5,0-0.7-0.1c-1.7-0.2-2.9-0.3-3.6-1.8c-0.8-1.8-0.8-5.9-0.8-7.8V41.4l20.6,25
		c1.4,1.7,2.5,3.2,3.7,4.6l0.2,0.2h2.6V46.7c0-2.6,0.1-7.9,0.6-9.5c0.5-1.7,1.3-1.8,3-1.9h0.1c0.2,0,0.4,0,0.6-0.1l0.6-0.1v-2.6
		h-0.7C328.8,32.6,327.8,32.7,326.7,32.7z"/>
	<path class="st0" d="M397.5,24.5h-0.1c-1.7,0.1-3.4,0.1-5.1,0.1s-3.3-0.1-5-0.1h-0.1c-1.6,0-3.2-0.1-4.8-0.1h-0.6v2.7h0.5
		c2,0,4.6,0,5.3,2c0.6,1.7,0.6,6.7,0.6,8.9v7.2H365v-7.3c0-2.1,0-7.1,0.6-8.9c0.8-2,3.3-2,5.3-2h0.5v-2.7h-0.6c-1.7,0-3.4,0.1-5,0.1
		h-0.1c-1.7,0.1-3.4,0.1-5.2,0.1c-1.6,0-3.2-0.1-4.8-0.1h-0.2c-1.6-0.1-3.2-0.1-4.7-0.1h-0.6V27h0.5c2,0,4.6,0,5.3,2
		c0.6,1.7,0.6,6.7,0.6,8.9v19.2c0,2.1,0,7.1-0.6,8.9c-0.8,2-3.3,2-5.3,2h-0.5v2.7h0.6c1.6,0,3.2-0.1,4.9-0.1h0.1
		c1.7-0.1,3.5-0.1,5.2-0.1c1.6,0,3.1,0.1,4.7,0.1h0.3c1.6,0.1,3.3,0.1,4.9,0.1h0.6V68H371c-2,0-4.6,0-5.3-2
		c-0.6-1.7-0.6-6.7-0.6-8.9v-8.6h23.2v8.6c0,2.1,0,7.1-0.6,8.9c-0.8,2-3.3,2-5.3,2h-0.5v2.7h0.6c1.7,0,3.4-0.1,5.1-0.1h0.3
		c1.6,0,3.2-0.1,4.8-0.1c1.6,0,3.1,0.1,4.7,0.1h0.3c1.6,0.1,3.3,0.1,4.9,0.1h0.6V68h-0.5c-2,0-4.6,0-5.3-2c-0.6-1.7-0.6-6.7-0.6-8.9
		V37.9c0-2.1,0-7.1,0.6-8.9c0.8-2,3.3-2,5.3-2h0.5v-2.7h-0.6C400.7,24.4,399.1,24.5,397.5,24.5z"/>
	<path class="st0" d="M434.7,60.9c-0.7,6.2-4.1,6.7-9.6,6.8c-0.2,0-0.5,0-0.7,0c-3,0-4.9-0.6-5.8-1.7c-0.9-1.2-0.9-3.7-0.9-5.2v-8.4
		c4.7,0,7,0.3,7.7,5.5l0.1,0.6h2.5v-0.8c-0.1-2.1-0.1-4.5-0.2-6.7c0.1-2.4,0.2-4.9,0.2-7.3v-1h-2.6v0.6c-0.3,3.5-1,6.2-7.3,6.2
		c-0.1,0-0.3,0-0.4,0V37.1c0-0.3,0-0.6,0-0.9c0-0.2,0-0.5,0-0.7c0.1,0,0.1,0,0.3,0h4.5c5.6,0,8.2,0.3,9.2,6.3l0.1,0.6h2.5v-9.7
		h-28.9v2.8h0.7c1.6,0,3.6,0,4.1,1.5c0.5,1.4,0.5,5.4,0.5,7.1v15.3c0,1.7,0,5.8-0.5,7.1c-0.6,1.5-2.5,1.5-4.1,1.5h-0.7v2.6h31.4
		l0.6-10.2h-2.6L434.7,60.9z"/>
	<path class="st0" d="M508.2,59.5l-0.1,0.5c-0.5,2.9-0.8,4.9-3.3,6.5c-1.8,1.2-4.1,1.3-6.5,1.3h-1c-6.6,0-7.5-0.9-7.5-7.6V43.8
		c0-1.7,0-5.8,0.5-7.1c0.6-1.5,2.5-1.5,4.1-1.5h0.7v-2.6h-0.7c-1.4,0-2.8,0.1-4.3,0.1c-1.4,0-2.8,0.1-4.1,0.1
		c-1.3,0-2.6-0.1-3.9-0.1s-2.7-0.1-4-0.1h-0.7v2.6h0.7c1.6,0,3.6,0,4.1,1.5c0.5,1.4,0.5,5.4,0.5,7.1v15.6c0,1.7,0,5.8-0.5,7.1
		c-0.6,1.5-2.5,1.5-4.1,1.5H478c-1.7-0.2-3.2-0.4-4.3-1.8c-0.7-0.9-1.5-2.9-2.1-4.4c-0.3-0.6-0.5-1.2-0.7-1.5l-11.3-28.4l-0.1-0.2
		h-2.8l-8.6,22.2c-0.6,1.4-1.2,2.8-1.8,4.2l-0.4,0.9c-0.8,1.8-1.6,3.6-2.4,5.4c-1,2.5-2,3.2-4.8,3.5l-0.6,0.1v2.6h0.7
		c1,0,1.9-0.1,2.9-0.1s1.9-0.1,2.8-0.1c1,0,2,0.1,3,0.1s2,0.1,3.1,0.1h0.7V68l-0.6-0.1c-0.2,0-0.5,0-0.7-0.1
		c-2.1-0.1-3.2-0.4-3.2-1.7c0-1.7,1.3-4.9,2.2-7.1c0.2-0.4,0.3-0.8,0.4-1.1l0.3-0.9h12.8l2,5.3c0.6,1.4,1.1,2.9,1.1,4.1
		c0,1.1-1.1,1.4-3.2,1.4h-1v2.6h0.7c1.3,0,2.7-0.1,4-0.1h0.3c1.2,0,2.5-0.1,3.7-0.1s2.4,0.1,3.6,0.1h1.3c0.9,0,1.8,0.1,2.7,0.1h0.7
		c2.3,0,4.6,0,6.9,0h0.2c7,0,14.2-0.1,21.2-0.2c0.9,0.1,1.9,0.2,2.8,0.2h0.8l0.6-11.2h-2.1L508.2,59.5z M461.3,54.1H451l5.2-13.1
		L461.3,54.1z"/>
	<path class="st0" d="M506.9,32.6v10h2.6V42c0.2-5.9,2.1-6.2,7.7-6.2h1.1c2.4,0,2.9,0.3,2.9,0.8v26.3c0,3.7-0.5,5-5.5,5.2h-0.6v2.6
		h0.7c1.5,0,3-0.1,4.5-0.1h0.1c1.4,0,2.8-0.1,4.2-0.1s2.8,0.1,4.3,0.1h0.3c1.5,0,3.1,0.1,4.6,0.1h0.7v-2.6h-0.6
		c-5.1-0.2-5.5-1.5-5.5-5.2V36.6c0-0.6,1-0.8,3.1-0.8c0.3,0,0.5,0,0.7,0h0.1c0.3,0,0.5,0,0.8,0c5.1,0,6.7,1.4,7,6.3v0.6h2.8l-0.6-10
		L506.9,32.6L506.9,32.6z"/>
	<path class="st0" d="M582.5,36.7c0.6-1.5,2.5-1.5,4.1-1.5h0.7v-2.6h-0.7c-1.4,0-2.8,0.1-4.2,0.1s-2.7,0.1-4.1,0.1
		c-1.3,0-2.7-0.1-4-0.1c-1.4,0-2.7-0.1-4.1-0.1h-0.7v2.6h0.7c1.6,0,3.6,0,4.1,1.5c0.5,1.4,0.5,5.4,0.5,7.1v5.8h-18.5v-5.8
		c0-1.7,0-5.8,0.5-7.1c0.6-1.5,2.5-1.5,4.1-1.5h0.7v-2.6h-0.7c-1.4,0-2.8,0.1-4.3,0.1c-1.4,0-2.8,0.1-4.1,0.1s-2.7-0.1-4-0.1h-0.1
		c-1.3,0-2.6-0.1-3.9-0.1h-0.7v2.6h0.7c1.6,0,3.6,0,4.1,1.5c0.5,1.4,0.5,5.4,0.5,7.1v15.6c0,1.7,0,5.8-0.5,7.1
		c-0.6,1.5-2.5,1.5-4.1,1.5h-0.7v2.6h0.7c1.3,0,2.7-0.1,4-0.1h0.3c1.3,0,2.7-0.1,4-0.1c1.2,0,2.5,0.1,3.7,0.1h0.3
		c1.3,0,2.7,0.1,4,0.1h0.7V68h-0.7c-1.6,0-3.6,0-4.1-1.5c-0.5-1.4-0.5-5.4-0.5-7.1v-6.8h18.5v6.8c0,1.7,0,5.8-0.5,7.1
		c-0.6,1.5-2.5,1.5-4.1,1.5h-0.4v2.6h0.7c1.4,0,2.8-0.1,4.2-0.1h0.3c1.3,0,2.6-0.1,3.8-0.1s2.5,0.1,3.7,0.1h0.3c1.3,0,2.7,0.1,4,0.1
		h0.7V68h-0.7c-1.6,0-3.6,0-4.1-1.5c-0.5-1.4-0.5-5.4-0.5-7.1V43.8C582,42.1,582,38.1,582.5,36.7z"/>
</g>
<g>
	<path class="st0" d="M49.3,50.5c0.7,0.9,1.4,2.1,2,4.2c2.8,10-2.2,14.7-7.2,16.7c-2.8,1.1-4.7,0.4-5-0.5c-0.3-0.7-0.4-1.4-1.6-1.5
		c-1.5-0.1-1.3,1.3-2.5,1.5c-2.3,0.3-5.1-3-5.7-4.1c-2.2-3.1-2.1-7.8,0-11.3c0.9-1.4,2.6-3.8,3.5-5.2c-1.5,0.6-6.1,3-8.8,3.1l0,0
		c-7.4,0.8-10.9-5.6-12-8.5l0,0c-0.1-0.2-1-2.5-0.6-3.9c0.4-1.7,2.6-1.1,2.8-3.2c0.2-2.1-0.9-2.1-1.5-3.2c-0.3-1.4,0.8-2.2,1.4-3.2
		c3.6-4.3,8.5-5.8,13.6-4.2c2.7,0.7,5.1,2.6,7.7,4c0.5,0.3,0.2,0.1,1,0.5c-1.1-1.7-1.9-3-2.5-4.9c-1.1-3.1-0.7-6,0.6-8.4
		s3.4-4.2,5.6-5.2c2-0.8,4.4-2.1,6.5-1.4c0.5,0.2,0.7,0.4,0.8,0.9c0.2,0.8,0.7,1.9,1.7,2.1c0.7,0.2,1.5-0.1,1.9-0.4s1.1-1.3,2.8-0.8
		c0.5,0.2,1,0.5,1.5,1V0H23.2v23.2H0V55h23.2v23.2H55V54.9c-1.2-0.7-2.2-1.4-2.6-1.7C51.6,52.7,50.4,51.6,49.3,50.5z"/>
	<path class="st0" d="M78.3,23.2H59.5c0,0,0,0,0,0.1c0.2,1.4-0.4,3.5-0.4,3.5c-1.4,4.2-5.7,7.2-7.8,8.5c0,0,4.8-1.7,6.2-2.1
		c1.4-0.4,4.6-1.9,6.3-2l0,0c7.4-0.8,11.2,5.6,12,8.5c0.3,1.1,0.6,2.4,0.5,3.4c-0.2,1.7-2.5,0.8-2.6,2.9c-0.1,1.4,1.1,1.4,1.5,2.7
		c0.5,1.4-0.6,2.8-1.3,3.8c-0.8,1-1.7,2-2.8,2.7h7.2C78.3,55.2,78.3,23.2,78.3,23.2z"/>
	<path class="st0" d="M46.6,40.4c-0.1,0-0.1,0-0.2,0C46.4,40.3,46.5,40.3,46.6,40.4c0.6-0.6,0.7-1.4,0.1-1.9c-0.6-0.5-1.6-0.5-2.3,0
		l-0.1,0.1v-0.1c0.1-0.7-0.6-1.3-1.5-1.3s-1.7,0.6-1.8,1.3v0.1l-0.1-0.1c-0.6-0.5-1.7-0.5-2.4,0s-0.8,1.4-0.2,1.9l0.1,0.1
		c-0.1,0-0.1,0-0.2,0c-0.9,0-1.8,0.6-1.8,1.3c-0.1,0.7,0.7,1.4,1.6,1.3c0.1,0,0.1,0,0.2,0l-0.1,0.1c-0.7,0.5-0.8,1.4-0.2,1.9
		s1.7,0.5,2.4,0l0.1-0.1v0.1c-0.1,0.7,0.6,1.3,1.6,1.3c0.9,0,1.7-0.6,1.8-1.3V45l0.1,0.1c0.6,0.5,1.6,0.5,2.3,0s0.7-1.3,0.2-1.9
		l-0.1-0.1c0.1,0,0.1,0,0.2,0c0.9,0,1.6-0.6,1.7-1.3C48.1,40.9,47.5,40.4,46.6,40.4z"/>
</g>
</svg>
