<?xml version="1.0" encoding="utf-8"?>
<!-- Generator: Adobe Illustrator 25.0.0, SVG Export Plug-In . SVG Version: 6.00 Build 0)  -->
<svg version="1.1" id="Layer_1" xmlns="http://www.w3.org/2000/svg" xmlns:xlink="http://www.w3.org/1999/xlink" x="0px" y="0px"
	 viewBox="0 0 421.6 87.3" style="enable-background:new 0 0 421.6 87.3;" xml:space="preserve">
<style type="text/css">
	.st0{fill:#63656A;}
	.st1{fill:#008C95;}
</style>
<g>
	<path class="st0" d="M120.3,81.8L107.4,62v19.8H103V55.7h5.6l11.9,18.5V55.7h4.4v26.1H120.3z"/>
	<path class="st0" d="M135,71.5l4.6-0.7c1-0.1,1.3-0.7,1.3-1.3c0-1.5-1-2.7-3.4-2.7c-2.2,0-3.5,1.4-3.7,3.2l-3.9-0.9
		c0.3-3.1,3.1-5.9,7.6-5.9c5.5,0,7.6,3.1,7.6,6.7v8.9c0,1.6,0.2,2.7,0.2,2.9h-4c0-0.1-0.2-0.8-0.2-2.3c-0.8,1.4-2.6,2.8-5.5,2.8
		c-3.8,0-6.1-2.6-6.1-5.4C129.6,73.7,132,72,135,71.5z M141,74.4v-0.8l-4.7,0.7c-1.3,0.2-2.4,1-2.4,2.4c0,1.2,0.9,2.3,2.6,2.3
		C138.9,79,141,77.9,141,74.4z"/>
	<path class="st0" d="M159.3,81.8H155l-7.3-17.9h4.7l4.8,12.8l4.6-12.8h4.5L159.3,81.8z"/>
	<path class="st0" d="M171.6,54.8c1.5,0,2.8,1.3,2.8,2.8s-1.3,2.8-2.8,2.8c-1.5,0-2.8-1.2-2.8-2.8S170.1,54.8,171.6,54.8z
		 M169.5,81.8V63.9h4.2v17.9H169.5z"/>
	<path class="st0" d="M182.1,72.8c0,3.6,2.3,5.6,5,5.6c2.8,0,4.1-2,4.5-3.3l3.8,1.4c-0.8,2.8-3.5,5.9-8.3,5.9
		c-5.3,0-9.3-4.1-9.3-9.5c0-5.5,4-9.5,9.2-9.5c4.8,0,7.5,3,8.2,5.9l-3.8,1.4c-0.4-1.6-1.6-3.4-4.3-3.4
		C184.4,67.3,182.1,69.2,182.1,72.8z"/>
	<path class="st0" d="M214.9,76.7c-1,3.1-3.8,5.7-8.1,5.7c-4.9,0-9.2-3.5-9.2-9.6c0-5.7,4.2-9.4,8.7-9.4c5.5,0,8.8,3.6,8.8,9.3
		c0,0.7-0.1,1.3-0.1,1.4h-13.1c0.1,2.7,2.2,4.7,4.9,4.7c2.6,0,3.9-1.4,4.5-3.1L214.9,76.7z M210.8,70.9c-0.1-2.1-1.5-4-4.4-4
		c-2.7,0-4.2,2.1-4.4,4H210.8z"/>
	<path class="st0" d="M223.4,81.8h-4.3V63.9h4.2v2.4c1.2-2.1,3.3-2.9,5.3-2.9c4.4,0,6.5,3.2,6.5,7.1v11.3h-4.3V71.2c0-2.2-1-4-3.7-4
		c-2.4,0-3.7,1.9-3.7,4.2V81.8z"/>
	<path class="st0" d="M245.7,63.9h3.7v3.8h-3.7V76c0,1.6,0.7,2.2,2.3,2.2c0.6,0,1.3-0.1,1.5-0.1v3.5c-0.3,0.1-1.1,0.4-2.6,0.4
		c-3.3,0-5.4-2-5.4-5.3v-9h-3.3v-3.8h0.9c1.9,0,2.8-1.2,2.8-2.8v-2.7h3.9V63.9z"/>
</g>
<path class="st1" d="M40.3,36.2l-20-11.8c-0.4-0.2-0.8-0.3-1.2-0.3c-0.4,0-0.8,0.1-1.2,0.3c-0.8,0.4-1.2,1.2-1.2,2.1v6.4
	c0,0.6,0.3,1.1,0.8,1.3l25,14.7v-9.1C42.4,38.4,41.6,37,40.3,36.2z M40.3,21.5l-9.7-5.7c-0.4-0.2-0.8-0.3-1.2-0.3
	c-0.4,0-0.8,0.1-1.2,0.3c-0.8,0.4-1.2,1.2-1.2,2.1v6.4c0,0.6,0.3,1.1,0.8,1.3l14.7,8.6v-9.1C42.4,23.7,41.6,22.3,40.3,21.5z
	 M40.3,50.9L14.6,35.7c-0.4-0.2-0.8-0.3-1.2-0.3c-0.4,0-0.8,0.1-1.2,0.3c-0.8,0.4-1.2,1.2-1.2,2.1v6.4c0,0.6,0.3,1.1,0.8,1.3
	l30.6,18.1v-9.1C42.4,53,41.6,51.6,40.3,50.9z M45,39.9V49l25-14.7c0.5-0.3,0.8-0.8,0.8-1.3v-6.4c0-0.9-0.5-1.7-1.2-2.1
	c-0.4-0.2-0.8-0.3-1.2-0.3c-0.4,0-0.8,0.1-1.2,0.3l-20,11.8C45.8,37,45,38.4,45,39.9z M45,25.2v9.1l14.7-8.6
	c0.5-0.3,0.8-0.8,0.8-1.3v-6.4c0-0.9-0.5-1.7-1.2-2.1c-0.4-0.2-0.8-0.3-1.2-0.3c-0.4,0-0.8,0.1-1.2,0.3l-9.7,5.7
	C45.8,22.3,45,23.7,45,25.2z M45,54.5v9.1l30.6-18.1c0.5-0.3,0.8-0.8,0.8-1.3v-6.4c0-0.9-0.5-1.7-1.2-2.1c-0.4-0.2-0.8-0.3-1.2-0.3
	c-0.4,0-0.8,0.1-1.2,0.3L47.1,50.9C45.8,51.6,45,53,45,54.5z M52.5,14.9c0-0.3-0.1-0.5-0.3-0.6l-7.7-4.5c-0.2-0.1-0.5-0.2-0.8-0.2
	c-0.3,0-0.5,0.1-0.8,0.2l-7.6,4.5c-0.2,0.1-0.3,0.4-0.3,0.6c0,0.3,0.1,0.5,0.4,0.6l7.6,4.4c0.5,0.3,1.1,0.3,1.6,0l7.7-4.4
	C52.3,15.4,52.5,15.2,52.5,14.9z M49.5,80.2v-3.4c0-0.7,0.4-1.4,1-1.8L70,63.6c0.5-0.3,0.8-0.8,0.8-1.3l0-6.3c0-0.9-0.5-1.8-1.3-2.2
	c-0.4-0.2-0.8-0.3-1.2-0.3c-0.4,0-0.8,0.1-1.2,0.3l-20,11.8c-1.3,0.8-2.1,2.2-2.1,3.7v18.1c23.5-0.7,42.4-20,42.4-43.7
	C87.4,19.6,67.8,0,43.7,0S0,19.6,0,43.7c0,23.7,18.9,43,42.4,43.7V69.2c0-1.5-0.8-2.9-2.1-3.7l-20-11.8c-0.4-0.2-0.8-0.3-1.2-0.3
	c-0.4,0-0.8,0.1-1.2,0.3c-0.8,0.4-1.3,1.3-1.3,2.2l0,6.3c0,0.6,0.3,1.1,0.8,1.3L36.8,75c0.6,0.4,1,1,1,1.8v3.4c0,1.3-1.2,2.3-2.5,2
	c-17.7-3.8-31-19.6-31-38.5c0-21.7,17.6-39.4,39.4-39.4s39.4,17.6,39.4,39.4c0,18.9-13.3,34.7-31,38.5
	C50.7,82.4,49.5,81.5,49.5,80.2z"/>
<path class="st1" d="M304,42.2V24.8h-21.2v17.4H279V4.6h2.2c0.9,0,1.6,0.7,1.6,1.6v15.1H304V6.2c0-0.9,0.7-1.6,1.6-1.6h2.2v37.6H304
	z M333.8,34.8c-1.4,3.4-4.1,5.1-8,5.1c-5,0-8.7-3.7-8.8-8.8l0-0.8h20.2c0-0.3,0-0.6,0-0.9c0-8.2-4.5-13.1-12-13.1
	c-6.7,0-12,5.8-12,13.2c0,9.2,6.5,13.4,12.6,13.4c5.1,0,9.2-2.7,11-7.1L333.8,34.8z M317.2,26.9c0.2-3.6,3.1-7.5,8-7.5
	c4.8,0,8,3,8.1,7.6l0,0.8h-16.2L317.2,26.9z M359.5,38.3v1.8c0,0.6,0.1,1.5,0.2,2.1h3.5c-0.1-0.8-0.2-2-0.2-3.6V25.3
	c0-5.7-3.8-8.9-10.3-8.9c-5.2,0-9.2,2.9-10,7.2l3.5,0.8c0.7-3.2,3.2-5.2,6.7-5.2c4.8,0,6.6,2.9,6.6,5.5c0,0.9-0.4,2.4-2.7,2.8
	l-7.2,1c-2.2,0.3-7.4,1.7-7.4,7.3c0,3.5,2.9,7.2,8.1,7.2C356.1,43,358.3,39.8,359.5,38.3z M350.8,40.2c-3.2,0-5.1-2.4-5.1-4.7
	c0-2.6,1.7-4.3,4.6-4.8l9.1-1.4v2.1C359.3,37.1,356.3,40.2,350.8,40.2z M372.1,4.6h2v37.6h-3.6v-36C370.5,5.3,371.2,4.6,372.1,4.6z
	 M384.6,35.7V20.3h-5.1v-3.1h0.7c3.1,0,4.9-1.8,4.9-4.9V8.8h3.2v8.4h5.8v3.1h-5.8v14.6c0,3,1.5,4.4,4.5,4.4c0.4,0,0.8,0,1.3-0.1v2.9
	c-0.6,0.1-1.6,0.3-2.8,0.3C387,42.4,384.6,40,384.6,35.7z M411,19.5c-4.1,0-6.9,3.1-7,7.8v14.8h-3.6v-36c0-0.9,0.7-1.6,1.6-1.6h2
	v16.3c0.5-0.5,2.6-4.5,8.9-4.5c5.5,0,8.7,3.6,8.7,9.7v16.1H418V27C418,22.2,415.5,19.5,411,19.5z M129.3,33.6H114l-2.4,6.5
	c-0.5,1.3-1.7,2.1-3,2.1h-5.5l14.5-37.6h8.5l14.4,37.6h-5.7c-1.4,0-2.6-0.8-3-2.1L129.3,33.6z M116.4,26.9h10.4l-5.2-14.2
	L116.4,26.9z M151,16.1h5.3v6.3H151v10.9c0,2.3,1.1,3,3.1,3c0.9,0,1.8-0.1,2.2-0.2v5.8c-0.6,0.3-1.9,0.6-4,0.6c-5.1,0-8.3-3-8.3-8.1
	V22.3h-4.7v-6.3h1.3c2.8,0,4-1.8,4-4.1V8.3h6.4V16.1z M178.1,23.1c-0.8-0.2-1.5-0.2-2.1-0.2c-3.6,0-6.8,1.7-6.8,7.4v11.9h-7.1V16.1
	h6.9v3.9c1.6-3.4,5.2-4.1,7.4-4.1c0.6,0,1.1,0.1,1.6,0.1V23.1z M182.4,42.2V19.3c0-1.8,1.5-3.2,3.2-3.2h3.8v26.1H182.4z M213,39.4
	c-1.4,2.4-4.5,3.5-7.2,3.5c-6.3,0-10-4.6-10-10.3V16.1h3.8c1.8,0,3.2,1.4,3.2,3.2v11.8c0,2.9,1.5,5.2,4.8,5.2c3.1,0,4.9-2.1,4.9-5.1
	V16.1h7.1v21.4c0,2,0.2,3.8,0.3,4.7h-6.8C213.1,41.6,213,40.4,213,39.4z M225.7,42.2V16.1h3.6c1.8,0,3.2,1.4,3.2,3.2v0
	c1.4-2.5,4.8-3.9,7.7-3.9c3.6,0,6.4,1.5,7.8,4.3c2.1-3.2,4.8-4.3,8.3-4.3c4.8,0,9.5,2.9,9.5,9.9v16.9h-6.9V26.7
	c0-2.8-1.4-4.9-4.6-4.9c-3,0-4.8,2.3-4.8,5.1v15.3h-7V26.7c0-2.8-1.4-4.9-4.6-4.9c-3.1,0-4.9,2.3-4.9,5.1v15.3H225.7z M189.5,4.9
	v3.8c0,1.8-1.5,3.2-3.2,3.2h-3.8V8.1c0-1.8,1.5-3.2,3.2-3.2H189.5z"/>
<g>
</g>
<g>
</g>
<g>
</g>
<g>
</g>
<g>
</g>
<g>
</g>
</svg>
