<svg xmlns="http://www.w3.org/2000/svg" viewBox="0 0 267.1 204.33"><g id="Layer_2" data-name="Layer 2"><g id="Layer_1-2" data-name="Layer 1"><polygon points="138.8 175.79 137.21 172.52 134.99 169.72 132.46 167.37 129.93 165.5 127.07 164.1 124.23 162.7 121.05 161.76 122.31 164.1 123.91 165.98 125.81 167.37 127.7 169.25 129.93 171.12 132.14 172.98 134.04 175.79 135.31 179.06 135.63 181.41 135.94 183.75 135.94 185.61 135.63 187.96 134.68 189.83 133.73 191.24 132.46 192.63 130.87 193.1 129.29 194.04 127.39 194.98 125.49 195.91 123.27 196.84 121.05 196.84 119.15 197.31 116.93 197.78 114.71 197.78 112.49 197.31 110.27 196.84 108.38 196.38 106.47 194.97 104.57 194.04 102.99 192.63 101.41 190.76 100.13 188.89 99.82 185.61 100.13 182.8 100.77 180 102.35 178.14 103.62 175.79 105.21 173.93 107.1 171.58 108.69 169.72 108.38 169.72 107.43 170.18 105.84 170.65 104.26 171.59 102.35 172.99 100.13 173.92 98.87 175.79 97.6 177.19 96.02 182.34 95.7 187.03 96.33 192.16 98.55 196.39 100.13 198.24 102.04 199.66 103.94 201.07 105.84 202.45 108.06 203.4 109.96 203.87 112.18 203.86 114.4 204.32 116.61 204.32 118.84 203.87 121.05 203.87 123.27 203.4 125.48 202.45 127.39 201.53 129.6 200.58 131.5 199.66 133.73 198.24 135.63 196.38 136.9 194.51 138.16 192.17 139.11 189.36 139.75 186.56 140.06 183.75 140.06 180 138.8 175.79" style="fill:#002c5b"/><polygon points="100.45 157.37 103.94 158.44 106.47 159.51 109.01 161.03 110.91 162.77 112.81 164.49 114.08 166.22 115.35 168.17 116.61 170.11 117.25 171.84 116.61 168.17 115.34 164.49 113.76 160.82 111.55 157.58 108.38 154.34 104.57 151.96 100.13 150.01 94.75 149.15 90.63 148.93 86.51 148.71 82.71 148.71 79.22 148.71 75.73 148.29 72.25 148.06 68.45 147.42 64.96 146.76 62.75 146.12 60.84 145.69 59.26 145.05 58.3 144.18 57.67 143.1 57.67 141.58 57.98 139.85 59.25 137.91 61.48 136.39 63.69 135.1 65.91 133.8 67.81 132.51 70.35 131.21 72.88 129.91 75.1 128.83 77.32 127.75 79.54 126.67 81.75 125.38 83.98 124.07 86.2 122.78 88.09 121.49 89.99 119.97 91.9 118.46 93.48 116.73 94.75 114.78 95.38 112.62 95.7 110.45 95.06 108.3 94.43 106.35 92.85 104.41 90.94 102.46 88.41 100.95 88.09 103.33 89.68 107.22 90.31 110.46 89.36 113.49 87.46 115.86 84.29 118.24 80.81 120.4 76.68 122.35 72.25 124.08 67.5 126.02 63.06 127.75 58.94 129.7 55.14 131.86 51.65 134.24 49.43 136.83 48.17 139.63 48.16 143.1 49.44 145.91 51.65 148.06 54.19 150.01 57.35 151.31 60.53 152.39 64.33 153.26 68.13 153.9 72.25 154.34 76.37 154.55 80.49 154.77 84.93 154.98 89.04 155.42 93.16 155.85 96.97 156.5 100.45 157.37" style="fill:#002c5b"/><polygon points="70.35 90.68 71.93 91.48 73.2 92.49 74.78 93.5 76.05 94.71 77.64 95.92 79.22 97.13 80.49 96.52 81.12 96.12 81.12 95.11 80.81 93.7 79.22 92.09 77.32 90.88 75.73 90.28 74.16 89.67 72.25 89.27 70.34 88.87 68.45 88.47 66.55 88.06 66.23 89.48 68.45 89.88 70.35 90.68" style="fill:#002c5b"/><polygon points="56.09 85.25 52.61 84.44 49.12 83.63 45.63 82.83 42.14 82.02 38.98 81.22 35.8 80.21 32.32 79.2 25.99 76.39 20.29 72.96 16.16 69.13 12.67 65.11 10.14 60.88 8.24 56.45 6.97 52.02 5.7 47.59 5.38 43.76 5.7 39.74 6.65 35.51 7.92 31.07 9.82 26.65 12.36 22.42 15.53 18.79 19.01 15.37 20.91 14.16 21.55 13.16 21.67 12.84 21.86 12.35 21.55 11.74 21.23 11.34 20.59 10.94 19.96 10.74 19.52 11.16 18.06 12.55 16.16 14.36 14.26 15.97 11.72 17.79 9.82 19.8 7.6 22.22 5.7 24.83 3.8 28.05 1.26 36.72 0 44.77 0.63 52.02 2.22 58.47 5.38 64.5 10.14 69.94 15.53 74.78 22.5 79.2 24.4 80.21 26.62 81.02 28.52 81.82 30.73 82.63 33.27 83.23 35.49 83.83 38.03 84.23 40.24 84.64 42.78 85.04 45.31 85.25 47.84 85.65 50.38 85.85 52.61 86.05 55.13 86.25 57.35 86.25 59.25 86.25 56.09 85.25" style="fill:#002c5b"/><path d="M102.66,23.29l2.85,2.61,2.22,3.22,1.32,1.68h.87a24,24,0,0,1,4.14.33l-2.85-3.42-2.85-3.22-3.49-3-3.49-3-3.79-3-4.12-2.82L89.34,9.79l-1.58-.4H86.18l-.64.6-.63.21L89,12.61,92.84,15l3.48,2.62,3.17,2.62Z" style="fill:#002c5b"/><path d="M120.33,49.88a12,12,0,0,1-4,2.47V54.5L116,57.92l-.64,2.42L113.75,63l-2.22,2.22-2.22,2.22-2.85,2-2.85,2-3.17,2-2.85,2-2.53,2-2.86,2L90,81.68,88.71,83.9l-.95,2.42-.31,2.61.63,2.82,1.59,2.82,3.8-3.83,1-4,2.22-3.83,2.85-3.42,3.8-3,4.12-3.23,3.8-3.22L115,66.78l2.85-3.42,1.9-3.63.94-3.82.64-3.62-.27-3.2a9.33,9.33,0,0,1-.75.79" style="fill:#002c5b"/><polygon points="119.43 180.93 117.93 180.94 116.06 180.54 114.56 179.75 113.06 178.56 111.56 177.37 110.43 175.77 110.06 180.14 110.81 180.94 111.94 181.74 112.68 182.53 113.81 182.93 115.31 183.33 116.43 183.32 117.93 183.32 119.43 183.32 122.43 181.74 124.31 179.35 125.05 176.18 124.67 172.2 121.68 178.56 120.56 180.14 119.43 180.93" style="fill:#508fcc"/><polygon points="72.33 5.33 72.94 5.47 73.25 5.54 73.57 5.62 74.27 5.37 74.37 4.97 73.8 4.64 73.22 4.3 72.83 3.17 73.36 2.26 74.12 1.82 75.14 1.64 76.16 1.47 77.44 1.55 78.67 1.84 79.81 2.52 80.96 3.21 81.65 4.4 82.09 5.32 81.55 6.24 80.8 6.68 79.73 7.05 78.37 7.35 77.09 7.26 76.11 7.24 75.54 6.9 74.61 6.68 74.52 7.08 75.36 7.69 76.19 8.29 76.77 8.64 77.64 9.05 78.57 9.26 79.55 9.28 80.51 9.3 81.8 9.39 83.12 9.29 84.18 8.91 86.04 7.9 86.41 6.33 85.18 4.6 83.39 2.53 82.25 1.85 80.79 1.09 79.56 0.81 78.06 0.25 77.14 0.04 76.16 0.02 75.19 0 74.53 0.05 73.51 0.23 72.76 0.68 72.36 0.99 71.56 1.64 71.15 3.4 71.54 4.53 72.33 5.33" style="fill:#508fcc"/><polygon points="35.3 8.14 34.69 8.28 34.38 8.36 34.06 8.43 33.36 8.18 33.27 7.79 33.84 7.45 34.41 7.11 34.8 5.99 34.27 5.08 33.51 4.63 32.49 4.46 31.48 4.28 30.19 4.37 28.96 4.66 27.82 5.34 26.67 6.02 25.98 7.21 25.54 8.14 26.08 9.05 26.84 9.49 27.9 9.87 29.27 10.17 30.55 10.07 31.52 10.06 32.09 9.72 33.02 9.5 33.11 9.9 32.28 10.5 31.44 11.11 30.87 11.45 29.99 11.86 29.06 12.08 28.09 12.1 27.12 12.11 25.83 12.2 24.51 12.1 23.45 11.72 21.59 10.71 21.23 9.14 22.45 7.41 24.24 5.34 25.38 4.66 26.84 3.91 28.07 3.62 29.57 3.07 30.49 2.85 31.47 2.84 32.44 2.81 33.1 2.87 34.12 3.04 34.88 3.49 35.27 3.81 36.08 4.45 36.48 6.22 36.09 7.34 35.3 8.14" style="fill:#508fcc"/><path d="M20.33,33.65a50.62,50.62,0,0,1,8.43-.58c3.86,0,6.6.75,8.44,2.22a8,8,0,0,1,2.95,6.39,8.8,8.8,0,0,1-2.54,6.55c-2.13,2-5.28,2.91-9,2.91A16,16,0,0,1,26.51,51v9.87H20.33Zm6.18,12.53a9.07,9.07,0,0,0,2.09.17c3.32,0,5.37-1.68,5.37-4.51,0-2.54-1.77-4.05-4.88-4.05a10.87,10.87,0,0,0-2.58.24Z" style="fill:#508fcc"/><path d="M47.73,52.86c.2,2.58,2.74,3.81,5.65,3.81a17.72,17.72,0,0,0,5.53-.82l.82,4.22a19.75,19.75,0,0,1-7.25,1.27c-6.8,0-10.69-4-10.69-10.24,0-5.07,3.15-10.69,10.12-10.69,6.47,0,8.93,5,8.93,10a14.8,14.8,0,0,1-.21,2.45Zm7.33-4.26c0-1.51-.65-4.06-3.52-4.06-2.62,0-3.69,2.38-3.85,4.06Z" style="fill:#508fcc"/><path d="M84,31.8V54.91c0,2.25.08,4.63.16,6H78.62l-.29-3h-.08A7,7,0,0,1,72,61.34c-4.75,0-8.56-4.05-8.56-10.28,0-6.76,4.18-10.65,9-10.65,2.46,0,4.39.86,5.28,2.25h.08V31.81ZM77.75,49.34a10.36,10.36,0,0,0-.08-1.11A3.75,3.75,0,0,0,74,45.16c-2.83,0-4.31,2.54-4.31,5.7,0,3.39,1.68,5.52,4.27,5.52a3.63,3.63,0,0,0,3.6-3A5.45,5.45,0,0,0,77.75,52Z" style="fill:#508fcc"/><path d="M95.41,35.29a3.13,3.13,0,0,1-3.36,3.11,3.13,3.13,0,1,1,0-6.26,3.11,3.11,0,0,1,3.32,3.15M89,60.89v-20H95.2v20Z" style="fill:#508fcc"/><rect x="125.07" y="31.81" width="6.22" height="29.08" style="fill:#002c5b"/><path d="M153.05,56a31.7,31.7,0,0,0,.28,4.87h-5.61l-.36-2h-.13a7.21,7.21,0,0,1-5.73,2.46A6.14,6.14,0,0,1,135,55.2c0-5.2,4.67-7.7,11.76-7.66v-.29c0-1.07-.57-2.58-3.65-2.58a11.32,11.32,0,0,0-5.52,1.51l-1.15-4a16.51,16.51,0,0,1,7.78-1.76c6.68,0,8.81,3.93,8.81,8.64ZM147,51.43c-3.28,0-5.82.74-5.82,3.15A2.24,2.24,0,0,0,143.63,57a3.41,3.41,0,0,0,3.23-2.3A4.46,4.46,0,0,0,147,53.6Z" style="fill:#002c5b"/><path d="M173,60.4a15.14,15.14,0,0,1-5.58.94c-6.47,0-10.6-4-10.6-10.28,0-5.86,4-10.65,11.46-10.65a14.52,14.52,0,0,1,4.76.78l-1,4.62a8.62,8.62,0,0,0-3.48-.61,5.2,5.2,0,0,0-5.37,5.61,5.23,5.23,0,0,0,5.5,5.62,8.76,8.76,0,0,0,3.56-.66Z" style="fill:#002c5b"/><path d="M180.78,52.86c.2,2.58,2.74,3.81,5.65,3.81a17.72,17.72,0,0,0,5.53-.82l.82,4.22a19.74,19.74,0,0,1-7.24,1.27c-6.81,0-10.7-4-10.7-10.24C174.84,46,178,40.41,185,40.41c6.48,0,8.94,5,8.94,10a13.77,13.77,0,0,1-.21,2.45Zm7.33-4.26c0-1.52-.65-4.06-3.52-4.06-2.62,0-3.69,2.38-3.86,4.06Z" style="fill:#002c5b"/><path d="M101.48,33.65a50.67,50.67,0,0,1,8.44-.58c3.85,0,6.59.75,8.44,2.22a8.08,8.08,0,0,1,3,6.39,8.8,8.8,0,0,1-2.54,6.55c-2.14,2-5.29,2.91-9,2.91a16.21,16.21,0,0,1-2.14-.12v9.87h-6.18Zm6.18,12.53a9.12,9.12,0,0,0,2.09.17c3.32,0,5.37-1.68,5.37-4.51,0-2.54-1.76-4.05-4.88-4.05a10.87,10.87,0,0,0-2.58.24Z" style="fill:#002c5b"/><path d="M139.41,86.13a.93.93,0,0,1-.79.5,1,1,0,0,1-.45-.11,1.81,1.81,0,0,1-.72-1.59c-.19-2.82-.31-4.45-.36-4.87-.34-2.56-.89-3.83-1.66-3.83-.52,0-1,.66-1.35,2a27,27,0,0,0-.65,4c-.1,1-.19,2-.28,2.93-.1.73-.34,1.1-.71,1.1-.6,0-1.12-.4-1.57-1.19l0-.38c-.31-5.56-1-8.35-2.07-8.35-.79,0-1.42,1.57-1.91,4.69a51.8,51.8,0,0,0-.56,5.85,1,1,0,0,1-.78.5,1,1,0,0,1-.9-.6,2.38,2.38,0,0,1-.26-1.1c0-.17.11-.94.34-2.31A53.46,53.46,0,0,1,126,77.11c.93-3.2,1.89-4.8,2.9-4.8q1.74,0,3,6.1Q133.64,73,135.39,73q2.67,0,4,13.17" style="fill:#508fcc"/><path d="M125.53,87.68a1.33,1.33,0,0,1-1.2-.77,2.76,2.76,0,0,1-.3-1.27c0-.13,0-.52.34-2.37A56.81,56.81,0,0,1,125.7,77c1-3.44,2-5.05,3.23-5.05s2.23,1.65,3.1,5.17c1.06-3.07,2.14-4.51,3.36-4.51s3.12,1.39,4.36,13.47v.12l-.06.1a1.25,1.25,0,0,1-1.08.66,1.28,1.28,0,0,1-.61-.15,2.09,2.09,0,0,1-.9-1.87c-.19-2.8-.31-4.44-.36-4.85-.43-3.28-1.12-3.53-1.32-3.53s-.56.13-1,1.75a26.2,26.2,0,0,0-.64,3.9c-.1,1-.19,2-.28,2.93s-.48,1.41-1.05,1.41a2.21,2.21,0,0,1-1.87-1.37l0-.15,0-.37c-.42-7.45-1.43-8-1.73-8s-.93.32-1.57,4.4a49.12,49.12,0,0,0-.55,5.81V87l-.05.08a1.28,1.28,0,0,1-1.07.65m3.4-15c-.47,0-1.43.59-2.57,4.55A55.22,55.22,0,0,0,125,83.38c-.28,1.76-.33,2.18-.33,2.26a2.05,2.05,0,0,0,.23,1,.63.63,0,0,0,.59.41c.06,0,.23,0,.45-.28a46.59,46.59,0,0,1,.56-5.78c.53-3.44,1.22-5,2.24-5s2,1,2.41,8.67l0,.3c.37.64.78.95,1.23.95.24,0,.35-.62.37-.81.09-.95.18-1.93.28-2.92a27.68,27.68,0,0,1,.66-4c.28-1,.74-2.25,1.68-2.25s1.63,1.31,2,4.12c0,.44.17,2,.36,4.9,0,.69.22,1.13.55,1.31a.53.53,0,0,0,.28.07.54.54,0,0,0,.44-.25C137.91,75,136.27,73.3,135.39,73.3c-.56,0-1.71.68-3.09,5.21l-.38,1.26-.28-1.29c-1.09-5.07-2.17-5.83-2.71-5.83" style="fill:#508fcc"/><path d="M151.9,84.84a2.13,2.13,0,0,1-.16.84.7.7,0,0,1-.64.5c-.32,0-.55-.28-.69-.86,0,0,0-.44-.15-1.28s-.23-1.93-.37-2.94a20.42,20.42,0,0,0-6,1.72q-.36,1-.63,1.86c-.19.58-.37,1.14-.54,1.69-.33.81-.67,1.22-1,1.22-.18,0-.31-.15-.41-.43a2,2,0,0,1-.1-.64,17.32,17.32,0,0,1,.77-3c.38-1.26.73-2.31,1-3.15.79-2.25,1.4-3.82,1.83-4.73q1.64-3.52,3-3.53,1.84,0,3.17,6.54l.06,0a.94.94,0,0,1,.67.63,2.57,2.57,0,0,1,.19,1c0,.56-.16.87-.47.93.34,2.24.5,3.47.5,3.7M149.53,79c-.51-2.49-1.12-3.73-1.83-3.73s-1.69,1.62-2.88,4.85c1.06-.18,2.63-.56,4.71-1.12" style="fill:#508fcc"/><path d="M141.67,87.93c-.23,0-.55-.12-.74-.66a2.67,2.67,0,0,1-.11-.75,14.22,14.22,0,0,1,.78-3.11c.39-1.25.74-2.32,1-3.17.8-2.24,1.42-3.84,1.85-4.75,1.18-2.55,2.23-3.73,3.3-3.73,1.42,0,2.52,2.09,3.46,6.57a1.31,1.31,0,0,1,.75.79,2.69,2.69,0,0,1,.22,1.09,1.27,1.27,0,0,1-.44,1.14c.42,2.81.47,3.34.47,3.49a2.43,2.43,0,0,1-.19,1,1,1,0,0,1-1,.71c-.34,0-.8-.19-1-1.12,0-.1-.07-.52-.16-1.32s-.2-1.72-.33-2.6a20.4,20.4,0,0,0-5.45,1.6c-.21.6-.41,1.17-.58,1.7L143,86.47c-.39,1-.83,1.46-1.35,1.46m6.11-15.49c-.43,0-1.33.44-2.68,3.33-.42.9-1,2.48-1.82,4.7-.3.84-.64,1.9-1,3.14a15.74,15.74,0,0,0-.76,2.91,1.78,1.78,0,0,0,.08.53c0,.13.08.18.1.19s.34-.11.7-1l.53-1.67c.19-.58.4-1.2.64-1.86l0-.14.14-.06a20.72,20.72,0,0,1,6.12-1.75l.32,0,0,.32c.15,1,.28,2,.38,3,.15,1.29.15,1.3.15,1.32s.16.52.35.52.19,0,.32-.3a1.78,1.78,0,0,0,.14-.7c0-.12-.06-.75-.5-3.65l-.05-.32.32-.06c.18,0,.19-.43.19-.6a2,2,0,0,0-.16-.82A.69.69,0,0,0,151,79l-.27.1-.13-.36c-1.11-5.45-2.26-6.27-2.84-6.27m-3.48,8.09.2-.55c1.65-4.51,2.58-5.08,3.2-5.08.93,0,1.6,1.23,2.17,4l.06.31-.31.08c-2.08.56-3.67.94-4.74,1.13Zm3.4-5c-.19,0-.91.3-2.34,4.06.95-.19,2.21-.5,3.77-.91-.64-2.92-1.25-3.15-1.43-3.15" style="fill:#508fcc"/><path d="M164.89,73.65c0,.21-.17.47-.51.79s-.5.55-.91,1l-4.62,4.84A20.27,20.27,0,0,1,164,86.2a1.3,1.3,0,0,1,.17.58,1.12,1.12,0,0,1-.31.68.84.84,0,0,1-.61.37c-.17,0-.36-.18-.56-.54a15.49,15.49,0,0,0-5.32-5.4c-.34.36-.66.71-1,1.06,0,1.45.11,2.65.2,3.61a.92.92,0,0,1-.78.48c-.79,0-1.17-.56-1.16-1.68v-2a67.83,67.83,0,0,0-.45-8c-.12-1.1-.19-1.61-.19-1.55,0-.39.24-.58.73-.58a1.65,1.65,0,0,1,.88.23.79.79,0,0,1,.47.72v.71c0,.34,0,.78,0,1.33s.07,1.09.08,1.29l.09,2.86a62.21,62.21,0,0,0,6.5-7.08q.21-.3.66-.84a.47.47,0,0,1,.35-.17.93.93,0,0,1,.72.49,1.63,1.63,0,0,1,.35.89" style="fill:#508fcc"/><path d="M163.22,88.17c-.41,0-.69-.41-.86-.72a15.13,15.13,0,0,0-5-5.12q-.34.38-.66.75c0,1.37.11,2.53.2,3.44v.12l-.06.1a1.26,1.26,0,0,1-1.07.64,1.37,1.37,0,0,1-1-.38,2.19,2.19,0,0,1-.49-1.64v-2a67,67,0,0,0-.45-8c-.1-.94-.16-1.44-.18-1.52l.33-.07h-.34v-.34h.06a1,1,0,0,1,1-.58,2,2,0,0,1,1.06.27,1.14,1.14,0,0,1,.63,1v.71c0,.33,0,.77,0,1.31l.08,1.29.07,2.11a61.77,61.77,0,0,0,5.91-6.52c.13-.19.36-.48.66-.85a.85.85,0,0,1,.62-.29,1.24,1.24,0,0,1,1,.64,1.92,1.92,0,0,1,.41,1.08,1.52,1.52,0,0,1-.62,1c-.18.2-.48.53-.9,1-.1.12-1.53,1.62-4.36,4.57A20.23,20.23,0,0,1,164.27,86a1.58,1.58,0,0,1,.21.74,1.38,1.38,0,0,1-.39.9,1.13,1.13,0,0,1-.87.49m-5.94-6.72.24.15A15.84,15.84,0,0,1,163,87.12c.15.28.25.35.28.36s.2-.09.33-.24a.76.76,0,0,0,.23-.46,1,1,0,0,0-.13-.42,19.85,19.85,0,0,0-5-5.83l-.29-.24.25-.26,4.61-4.83c.41-.44.72-.77.91-1,.41-.38.42-.54.42-.56a1.27,1.27,0,0,0-.28-.69c-.11-.16-.39-.46-.55-.28s-.48.6-.62.79a61.55,61.55,0,0,1-6.55,7.14l-.55.51-.19-4.89c0-.55-.05-1-.05-1.35v-.71a.48.48,0,0,0-.29-.43,1.4,1.4,0,0,0-.72-.18c-.38,0-.38.12-.38.24h0c.06.26.11.72.2,1.51a68.52,68.52,0,0,1,.45,8v2a1.69,1.69,0,0,0,.29,1.16.74.74,0,0,0,.53.18.54.54,0,0,0,.43-.24c-.09-.94-.16-2.12-.2-3.5v-.13l.09-.1c.3-.35.62-.71,1-1.07Z" style="fill:#508fcc"/><path d="M169,86.35a1,1,0,0,1-.8.51c-.79,0-1.18-.83-1.18-2.49,0-.23,0-.53,0-.88s0-.57,0-.67a68.17,68.17,0,0,0-.41-7.64c-.13-1.13-.19-1.66-.19-1.59,0-.39.28-.59.85-.59a1.37,1.37,0,0,1,.82.27.83.83,0,0,1,.37.68v.58c0,.26,0,.6.05,1s.06.87.06,1c0,.54.07,2.17.15,4.9q.06,3,.24,4.89" style="fill:#508fcc"/><path d="M168.23,87.2c-1,0-1.52-1-1.52-2.83,0-.24,0-.54,0-.89s0-.56,0-.66a67.44,67.44,0,0,0-.41-7.6l-.18-1.56.33-.07h-.34v-.34h.06c.11-.28.39-.59,1.13-.59a1.72,1.72,0,0,1,1,.33,1.18,1.18,0,0,1,.51,1v.58c0,.25,0,.58,0,1s.06.89.06,1c0,.52.07,2.16.15,4.89,0,2,.12,3.61.24,4.87v.12l-.06.1a1.32,1.32,0,0,1-1.09.66m-1.41-13.6c.06.26.11.73.2,1.55a68.72,68.72,0,0,1,.41,7.67c0,.1,0,.33,0,.69s0,.63,0,.86c0,1,.15,2.14.84,2.14a.53.53,0,0,0,.45-.25c-.12-1.26-.2-2.87-.23-4.8-.08-2.72-.13-4.35-.15-4.88,0-.15,0-.48-.06-1s-.05-.78-.05-1V74a.49.49,0,0,0-.23-.41,1.07,1.07,0,0,0-.62-.2c-.51,0-.51.16-.51.25h0Z" style="fill:#508fcc"/><path d="M182.27,86.88c-.42,0-1.08-.89-2-2.66s-1.62-3.28-2.44-4.93-1.73-2.65-2.32-2.65c-.83,0-1.44,1.38-1.83,4.15-.09.63-.23,2.36-.43,5.19a2.73,2.73,0,0,1-.45,1.66.66.66,0,0,1-.43.19c-.28,0-.53-.24-.72-.71a2.91,2.91,0,0,1-.23-1.07c0-.15,0-.42.08-.82.16-1.38.33-2.76.5-4.15a35.49,35.49,0,0,1,1.18-5.69c.62-1.92,1.34-2.88,2.15-2.88s1.78,1,2.89,3.16c.36.7,1,2.13,1.9,4.31l.53,1.22a5.33,5.33,0,0,0,.61,1.14c.08.1.13.15.17.15s.25-.37.25-1.11a67,67,0,0,0-.57-6.68c-.06-.41-.11-.83-.16-1.25a7.88,7.88,0,0,1-.12-1.24,1.21,1.21,0,0,1,.32-.82A1,1,0,0,1,182,71c.68,0,1.07.47,1.16,1.42,0,.37.09,1.92.16,4.65.05,1.65.08,2.85.08,3.58,0,4.12-.36,6.19-1.09,6.19" style="fill:#508fcc"/><path d="M172.39,88.17c-.43,0-.78-.31-1-.92a3.19,3.19,0,0,1-.25-1.2,6.76,6.76,0,0,1,.08-.86c.16-1.38.33-2.76.5-4.15a36.7,36.7,0,0,1,1.19-5.76c.68-2.09,1.49-3.11,2.48-3.11s2,1.06,3.19,3.34c.37.7,1,2.16,1.92,4.34l.52,1.21c.15.34.27.58.36.75,0-.11,0-.25,0-.43,0-1.23-.18-3.47-.55-6.64-.06-.41-.12-.83-.17-1.25a8.23,8.23,0,0,1-.12-1.28,1.54,1.54,0,0,1,.41-1,1.36,1.36,0,0,1,1-.47c.61,0,1.36.3,1.49,1.73,0,.39.1,1.92.17,4.68,0,1.66.08,2.86.08,3.59,0,5.74-.69,6.53-1.43,6.53-.41,0-1-.34-2.28-2.84-.81-1.65-1.63-3.29-2.45-4.94-1.24-2.28-1.85-2.46-2-2.46s-1,.38-1.49,3.85c-.09.63-.23,2.37-.43,5.17a2.94,2.94,0,0,1-.55,1.89,1.05,1.05,0,0,1-.67.28m3-15.32c-.64,0-1.27.92-1.83,2.64a35.25,35.25,0,0,0-1.16,5.64c-.18,1.38-.34,2.76-.51,4.14,0,.38-.07.64-.07.78a2.61,2.61,0,0,0,.2.94c.19.44.34.63.62.39.07-.06.25-.35.33-1.43.2-2.86.34-4.56.43-5.21.43-3,1.11-4.44,2.17-4.44.74,0,1.57.9,2.62,2.83.83,1.65,1.64,3.3,2.45,4.94,1.19,2.34,1.63,2.46,1.68,2.46s.74-.06.74-5.84c0-.73,0-1.92-.08-3.57-.07-2.71-.13-4.27-.17-4.63-.1-1.11-.6-1.11-.81-1.11a.64.64,0,0,0-.53.24.83.83,0,0,0-.23.59,8,8,0,0,0,.1,1.18c.06.44.11.85.17,1.26.38,3.21.57,5.47.57,6.73,0,.54,0,1.45-.59,1.45a.59.59,0,0,1-.44-.29,5.57,5.57,0,0,1-.66-1.21c0-.11-.22-.51-.52-1.21-.9-2.17-1.54-3.61-1.89-4.29-1.37-2.59-2.21-3-2.59-3" style="fill:#508fcc"/><path d="M190.06,87.23a4.3,4.3,0,0,1-3.43-1.36,5.3,5.3,0,0,1-1.12-3.57,10.65,10.65,0,0,1,2.55-6.87,8,8,0,0,1,6.37-3.33,7.28,7.28,0,0,1,2.66.47A1.36,1.36,0,0,1,198,74a3,3,0,0,1-.3,1.18c-.22.51-.48.76-.78.76-.13,0-.23-.12-.32-.37a2.62,2.62,0,0,0-.3-.69,1.09,1.09,0,0,0-.91-.38c-.1,0-.4,0-.9.13-.27,0-.67.08-1.19.17a6.46,6.46,0,0,0-4.41,2.69,7.68,7.68,0,0,0-1.46,4.33,4.13,4.13,0,0,0,1,2.75,3.28,3.28,0,0,0,2.6,1.23,7.52,7.52,0,0,0,3.83-1.4c1.6-1,2.41-2,2.41-3a1.22,1.22,0,0,0-.92-1.16,4.24,4.24,0,0,0-1.61-.26,9.72,9.72,0,0,0-2.54.35,20.49,20.49,0,0,0-2.41.88,1.86,1.86,0,0,1-.52.15c-.17,0-.26-.11-.26-.34a1.69,1.69,0,0,1,.78-1.28,14.62,14.62,0,0,1,2.13-1.46,5.37,5.37,0,0,1,2.49-.58,6,6,0,0,1,3.25.84,3.24,3.24,0,0,1,1.51,3.4q-.33,2-3.72,3.77a12,12,0,0,1-5.36,1.59" style="fill:#508fcc"/><path d="M190.06,87.57a4.67,4.67,0,0,1-3.69-1.48,5.65,5.65,0,0,1-1.21-3.79,11,11,0,0,1,2.64-7.09,8.38,8.38,0,0,1,6.63-3.45,7.52,7.52,0,0,1,2.78.49A1.7,1.7,0,0,1,198.32,74a3.42,3.42,0,0,1-.32,1.31c-.29.65-.65,1-1.1,1-.29,0-.5-.2-.64-.6A2.46,2.46,0,0,0,196,75a.77.77,0,0,0-.63-.23,7.8,7.8,0,0,0-.84.13c-.3,0-.69.08-1.2.17a6.16,6.16,0,0,0-4.18,2.54,7.35,7.35,0,0,0-1.4,4.14,3.78,3.78,0,0,0,.91,2.53c1.31,1.55,3.24,1.5,6-.24,1.5-1,2.25-1.87,2.25-2.75,0-.25-.07-.6-.69-.84a4,4,0,0,0-1.49-.24,8.92,8.92,0,0,0-2.44.34,20.54,20.54,0,0,0-2.37.87,2,2,0,0,1-.66.17.6.6,0,0,1-.6-.68,2,2,0,0,1,.91-1.55,14.13,14.13,0,0,1,2.19-1.5,5.73,5.73,0,0,1,2.64-.61,6.32,6.32,0,0,1,3.43.89,3.4,3.4,0,0,1,1.73,3,3.84,3.84,0,0,1-.06.71c-.25,1.46-1.52,2.77-3.9,4a12.49,12.49,0,0,1-5.52,1.62m4.37-15.13a7.74,7.74,0,0,0-6.1,3.2,10.34,10.34,0,0,0-2.48,6.66,5,5,0,0,0,1,3.34,3.94,3.94,0,0,0,3.17,1.25,11.76,11.76,0,0,0,5.21-1.55c2.14-1.11,3.33-2.3,3.53-3.53a2.56,2.56,0,0,0,0-.58,2.75,2.75,0,0,0-1.4-2.47,5.69,5.69,0,0,0-3.07-.79,5.09,5.09,0,0,0-2.33.54A14.32,14.32,0,0,0,190,79.93a1.44,1.44,0,0,0-.65,1l.32-.11a23.72,23.72,0,0,1,2.45-.89,9.79,9.79,0,0,1,2.62-.36,4.74,4.74,0,0,1,1.74.28,1.53,1.53,0,0,1,1.13,1.48c0,1.14-.84,2.23-2.57,3.33-3.07,1.93-5.35,1.89-6.87.1a4.48,4.48,0,0,1-1.07-3,8,8,0,0,1,1.51-4.52,6.81,6.81,0,0,1,4.63-2.83q.81-.14,1.23-.18a7.7,7.7,0,0,1,.93-.13,1.43,1.43,0,0,1,1.18.5,3.44,3.44,0,0,1,.36.8l.05.13a1,1,0,0,0,.41-.55,2.71,2.71,0,0,0,.27-1,1,1,0,0,0-.68-1.09,7,7,0,0,0-2.53-.44" style="fill:#508fcc"/><path d="M135.71,107.58a.92.92,0,0,1-.79.5c-.77,0-1.15-.57-1.15-1.7V103.6a20,20,0,0,0-6.76,1.47c0,1.26.11,2.33.22,3.2a1,1,0,0,1-.8.5c-.79,0-1.18-.82-1.18-2.46v-1.57a68.43,68.43,0,0,0-.41-7.64c-.13-1.14-.19-1.66-.19-1.59,0-.39.24-.58.72-.58a1.78,1.78,0,0,1,.9.24.78.78,0,0,1,.42.71v.47c0-.1,0,.24.07,1s.1,2.45.17,5.38q1.3-.17,6.78-1.44c-.07-1.59-.19-3.07-.34-4.43,0-.08-.06-.42-.15-1a6.6,6.6,0,0,1-.11-1c0-.39.24-.58.73-.58a1.93,1.93,0,0,1,.88.2.82.82,0,0,1,.47.73v.56q0,.38,0,1c.05.53.08.85.08,1,0,.6.07,2.25.13,4.94,0,2,.14,3.66.28,4.93" style="fill:#508fcc"/><path d="M126.43,109.11c-1,0-1.52-.94-1.52-2.8v-1.57a67.7,67.7,0,0,0-.41-7.6l-.18-1.56.33-.07h-.34v-.34h0a1,1,0,0,1,1-.58,2.12,2.12,0,0,1,1.07.29,1.1,1.1,0,0,1,.59,1v.47c0,.2,0,.51.08,1s.09,2.31.16,5c1-.17,3.07-.61,6.1-1.31-.08-1.47-.19-2.86-.33-4.12l-.14-1a6.09,6.09,0,0,1-.12-1.07c0-.58.4-.92,1.06-.92a2.23,2.23,0,0,1,1,.24,1.14,1.14,0,0,1,.65,1v.56c0,.25,0,.57,0,1s.08.87.08,1c0,.59.07,2.23.13,4.93,0,2,.14,3.63.28,4.9v.12l-.06.1a1.25,1.25,0,0,1-1.08.66c-.56,0-1.5-.26-1.5-2V104a20.33,20.33,0,0,0-6.07,1.36c.05,1.13.12,2.12.22,2.92v.12l-.07.11a1.28,1.28,0,0,1-1.08.65M125,95.51c.06.27.11.73.2,1.55a69.17,69.17,0,0,1,.41,7.68v1.57c0,1,.15,2.12.84,2.12a.55.55,0,0,0,.44-.26c-.09-.85-.16-1.89-.21-3.08v-.25l.23-.09a20.47,20.47,0,0,1,6.88-1.49h.35v3.13c0,1.36.57,1.36.81,1.36a.53.53,0,0,0,.44-.25c-.14-1.27-.23-2.9-.27-4.84C135,100,135,98.33,135,97.73c0-.14,0-.45-.08-1s0-.76,0-1v-.56a.47.47,0,0,0-.29-.43,1.56,1.56,0,0,0-.72-.16c-.38,0-.38.12-.38.24a6.2,6.2,0,0,0,.11,1l.15,1c.15,1.37.27,2.87.34,4.46l0,.29-.28.06c-3.7.86-5.93,1.33-6.82,1.45l-.37,0v-.37c-.08-2.91-.13-4.72-.17-5.37s-.06-.93-.07-1l.3,0h-.3v-.47a.44.44,0,0,0-.25-.41,1.43,1.43,0,0,0-.73-.2c-.38,0-.38.12-.38.24Z" style="fill:#508fcc"/><path d="M148.24,107.65c0,.36-.17.54-.5.54s-.54,0-1-.08a9.93,9.93,0,0,0-1.12-.09,16.14,16.14,0,0,0-5.6,1,1,1,0,0,1-.79.47c-.78,0-1.18-.84-1.18-2.51,0-.23,0-.53,0-.89s0-.59,0-.67c0-1.8-.06-3.44-.17-4.92q0-.67-.3-3c-.08-.79-.13-1.23-.13-1.3,0-.38.28-.57.82-.58A18.32,18.32,0,0,1,145.07,94a3.88,3.88,0,0,1,1.72.27,1.46,1.46,0,0,1,.72,1.47c0,.62-.17.94-.52.94l-.34-.06a7.4,7.4,0,0,0-1.73-.19,11.71,11.71,0,0,0-5.21,1.31c0,1.32.09,3,.13,5.17,1-.13,2.24-.38,3.73-.72,2.36-.55,3.6-.84,3.74-.86a1,1,0,0,1,.69.63,2.1,2.1,0,0,1,.22,1c0,.63-.18.94-.56.94a.63.63,0,0,1-.28-.08H147a18.3,18.3,0,0,0-7.09,1.5v.54c0,.41,0,.75,0,1a22.28,22.28,0,0,1,5-.58,14.41,14.41,0,0,1,2.41.16,1.07,1.07,0,0,1,.93,1.22" style="fill:#508fcc"/><path d="M139.2,109.88c-1,0-1.52-1-1.52-2.84,0-.25,0-.55,0-.92s0-.57,0-.65c0-1.78-.06-3.43-.17-4.89,0-.45-.12-1.44-.3-3-.13-1.21-.13-1.3-.13-1.34,0-.27.11-.87,1.09-.92a18.54,18.54,0,0,1,6.84-1.67A4.28,4.28,0,0,1,147,94a1.81,1.81,0,0,1,.91,1.78c0,1.11-.55,1.28-.87,1.28a2.66,2.66,0,0,1-.4-.07,7.56,7.56,0,0,0-1.67-.18A11.33,11.33,0,0,0,140.06,98c0,1.21.08,2.73.11,4.57.92-.14,2-.37,3.33-.67,3.17-.74,3.66-.84,3.75-.86h.12a1.3,1.3,0,0,1,.94.83,2.4,2.4,0,0,1,.26,1.09c0,1.11-.57,1.28-.91,1.28a.93.93,0,0,1-.35-.08h-.59a18.09,18.09,0,0,0-6.52,1.39v.31c0,.22,0,.41,0,.59a23,23,0,0,1,4.69-.5,15.2,15.2,0,0,1,2.47.16,1.41,1.41,0,0,1,1.21,1.56.79.79,0,0,1-.84.88,9.47,9.47,0,0,1-1.07-.08,8.76,8.76,0,0,0-1.08-.08,15.94,15.94,0,0,0-5.4,1,1.29,1.29,0,0,1-1,.52m5.87-15.5A18.14,18.14,0,0,0,138.44,96l-.13,0c-.49,0-.49.16-.49.24s0,.22.13,1.27c.18,1.55.28,2.53.3,3,.12,1.48.17,3.14.17,4.94,0,.08,0,.32,0,.69s0,.64,0,.88c0,1,.14,2.16.83,2.16.07,0,.26,0,.51-.34l.06-.08.1,0a16.6,16.6,0,0,1,5.72-1.07,10.33,10.33,0,0,1,1.16.09c.47,0,.8.08,1,.08s.16,0,.16-.2c0-.68-.33-.83-.65-.89a14.89,14.89,0,0,0-2.35-.15,22.15,22.15,0,0,0-4.93.57l-.38.09,0-.39c0-.27,0-.62,0-1v-.77l.22-.09a18.92,18.92,0,0,1,7-1.52l.81,0c.27.13.35-.07.35-.56a1.74,1.74,0,0,0-.19-.8c-.15-.32-.3-.41-.39-.43s-1.1.24-3.65.84c-1.5.35-2.76.59-3.77.73l-.38,0V103c0-2.13-.09-3.85-.13-5.17v-.22l.19-.1a12.17,12.17,0,0,1,5.37-1.34,8.16,8.16,0,0,1,1.81.2l.27,0c.16,0,.17-.45.17-.59,0-.91-.4-1.1-.53-1.17a3.72,3.72,0,0,0-1.57-.22" style="fill:#508fcc"/><path d="M160.7,106.7a2.14,2.14,0,0,1-.17.84.7.7,0,0,1-.63.5c-.33,0-.56-.28-.69-.86t-.15-1.29c-.1-.94-.23-1.92-.38-2.93a20.07,20.07,0,0,0-6,1.72c-.24.66-.45,1.28-.64,1.86s-.36,1.14-.54,1.69c-.32.81-.66,1.21-1,1.21-.18,0-.32-.14-.42-.43a2.13,2.13,0,0,1-.09-.63,17.32,17.32,0,0,1,.77-3c.38-1.26.72-2.31,1-3.16q1.2-3.36,1.83-4.72,1.65-3.52,3-3.53c1.24,0,2.29,2.18,3.18,6.54l.05,0a1,1,0,0,1,.68.63,2.56,2.56,0,0,1,.18,1c0,.56-.15.87-.46.93.33,2.24.5,3.47.5,3.7m-2.37-5.87c-.51-2.49-1.12-3.73-1.83-3.73s-1.7,1.62-2.88,4.85c1.06-.18,2.63-.56,4.71-1.12" style="fill:#508fcc"/><path d="M150.47,109.78c-.24,0-.55-.11-.74-.65a2.67,2.67,0,0,1-.11-.75,14.22,14.22,0,0,1,.78-3.11c.39-1.25.73-2.32,1-3.17.8-2.24,1.42-3.84,1.84-4.75,1.19-2.55,2.24-3.73,3.3-3.73,1.43,0,2.53,2.09,3.46,6.57a1.29,1.29,0,0,1,.76.79,2.86,2.86,0,0,1,.21,1.09,1.29,1.29,0,0,1-.43,1.14c.42,2.81.47,3.34.47,3.49a2.43,2.43,0,0,1-.19,1,1,1,0,0,1-.95.71c-.35,0-.8-.19-1-1.12,0-.1-.06-.52-.15-1.32s-.2-1.72-.33-2.6a20.4,20.4,0,0,0-5.45,1.6c-.22.6-.41,1.17-.58,1.7l-.54,1.69c-.4,1-.84,1.45-1.35,1.45m6.1-15.48c-.42,0-1.33.43-2.68,3.33-.41.9-1,2.48-1.81,4.7-.3.84-.64,1.9-1,3.14a16.06,16.06,0,0,0-.75,2.91,1.78,1.78,0,0,0,.08.53.4.4,0,0,0,.1.19c.08,0,.34-.11.69-1l.54-1.67c.19-.58.4-1.2.64-1.86l.05-.14.13-.06a20.5,20.5,0,0,1,6.12-1.75l.32,0,.05.32c.15,1,.28,2,.38,3,.15,1.28.15,1.3.15,1.32s.15.52.35.52c0,0,.19,0,.32-.3a1.78,1.78,0,0,0,.14-.7c0-.12-.07-.75-.5-3.65l-.05-.32.32-.07c.17,0,.19-.43.19-.59a2.12,2.12,0,0,0-.16-.83.73.73,0,0,0-.34-.41l-.27.09-.14-.36c-1.1-5.45-2.25-6.26-2.84-6.26m-3.47,8.09.2-.55c1.65-4.51,2.57-5.08,3.2-5.08.93,0,1.59,1.23,2.16,4l.07.31-.31.08c-2.08.56-3.68.94-4.74,1.13Zm3.4-5c-.2,0-.92.3-2.35,4.06.95-.19,2.22-.5,3.78-.91-.64-2.92-1.25-3.15-1.43-3.15" style="fill:#508fcc"/><path d="M171.31,107.65c0,.35-.13.52-.39.52a6.62,6.62,0,0,1-.84-.07,7.32,7.32,0,0,0-.86-.08,11.59,11.59,0,0,0-4.24.83,5.85,5.85,0,0,0-.56.28,1.67,1.67,0,0,1-.54.16c-.28,0-.51-.2-.7-.61a2.7,2.7,0,0,1-.22-1q0-7.36-.45-11.81c-.12-1.25-.18-1.85-.18-1.77,0-.44.23-.65.7-.65a1.53,1.53,0,0,1,.93.28.93.93,0,0,1,.4.8v.61c0,.24,0,.55.06.94s0,.79.05.91c0,2.17.13,5.41.28,9.74a15.73,15.73,0,0,1,3.85-.47c.74,0,1.22,0,1.46,0,.63.1,1,.32,1.16.67a2.09,2.09,0,0,1,.09.67" style="fill:#508fcc"/><path d="M163.88,109.64c-.42,0-.76-.28-1-.82a2.9,2.9,0,0,1-.25-1.13c0-4.87-.15-8.83-.45-11.77-.1-1.08-.16-1.66-.18-1.75l.34-.06H162v-.34h0a.94.94,0,0,1,1-.66,1.89,1.89,0,0,1,1.14.36,1.27,1.27,0,0,1,.53,1.07v.62q0,.33.06.9c0,.49,0,.79.05.91,0,2.11.13,5.24.27,9.34a16.71,16.71,0,0,1,3.52-.38c.75,0,1.24,0,1.49,0a1.66,1.66,0,0,1,1.44.88,2.36,2.36,0,0,1,.12.8c0,.8-.56.87-.73.87a7.72,7.72,0,0,1-.89-.08,6.11,6.11,0,0,0-.81-.07,11.32,11.32,0,0,0-4.12.79l-.52.27a2,2,0,0,1-.7.21m-1.23-15.53c.06.28.11.8.2,1.74.3,3,.45,6.94.45,11.84a2.18,2.18,0,0,0,.2.85c.07.15.21.41.37.41a1.39,1.39,0,0,0,.41-.14l.55-.27a12,12,0,0,1,4.39-.86,7.86,7.86,0,0,1,.9.08,6.12,6.12,0,0,0,.8.07s.05,0,.05-.18a1.71,1.71,0,0,0-.08-.56c-.1-.27-.54-.39-.89-.45-.2,0-.68,0-1.4,0a15.42,15.42,0,0,0-3.76.46l-.41.1,0-.42c-.15-4.31-.24-7.58-.28-9.74,0-.1,0-.41,0-.9s-.06-.71-.06-1v-.62a.59.59,0,0,0-.26-.52,1.17,1.17,0,0,0-.73-.22c-.34,0-.36.12-.36.31Z" style="fill:#508fcc"/><path d="M182.63,95.62c0,.7-.18,1-.52,1l-.34-.06a8.15,8.15,0,0,0-1.72-.17,11.53,11.53,0,0,0-2,.19c0-.11,0,.06,0,.52l.11,1.83q.18,3.17.69,9.46c-.32,1-.68,1.43-1.08,1.43s-.79-.83-.79-2.5v-1.68a67.43,67.43,0,0,0-.54-8.63q-.24.07-1.62.75a9.22,9.22,0,0,1-1.39.59c-.3,0-.52-.18-.67-.56a2.21,2.21,0,0,1-.19-.91,1.26,1.26,0,0,1,.4-1.07A10.26,10.26,0,0,1,175,95c.88-.28,1.64-.51,2.28-.67a11.6,11.6,0,0,1,2.87-.37,4.49,4.49,0,0,1,1.69.22,1.38,1.38,0,0,1,.78,1.4" style="fill:#508fcc"/><path d="M177.72,110.22c-1,0-1.13-1.63-1.13-2.85v-1.68a67.44,67.44,0,0,0-.48-8.14l-1.2.57c-1.34.63-1.43.63-1.53.63a1.06,1.06,0,0,1-1-.78,2.64,2.64,0,0,1-.21-1,1.52,1.52,0,0,1,.54-1.34,8.1,8.1,0,0,1,2.18-.87c.89-.29,1.66-.52,2.3-.68a12.39,12.39,0,0,1,3-.38,4.72,4.72,0,0,1,1.83.25,1.71,1.71,0,0,1,1,1.71c0,1.15-.47,1.39-.86,1.39L181.7,97a9.42,9.42,0,0,0-3.36,0v.23l.11,1.81c.12,2.1.36,5.27.69,9.45v.07l0,.06c-.37,1.13-.83,1.68-1.4,1.68m-1-13.61,0,.41a68,68,0,0,1,.54,8.67v1.68c0,1.71.3,2.16.45,2.16s.36,0,.73-1.14c-.33-4.14-.56-7.3-.68-9.39l-.11-1.83c0-.69,0-.91.35-.91h.16a10.24,10.24,0,0,1,3.67,0l.28,0c.09,0,.17-.29.17-.71a1,1,0,0,0-.59-1.09,4,4,0,0,0-1.54-.19,11.43,11.43,0,0,0-2.79.36c-.62.16-1.38.38-2.26.67a10.15,10.15,0,0,0-2,.77,1,1,0,0,0-.24.79,1.89,1.89,0,0,0,.15.77c.15.36.3.36.36.36s.2-.07,1.24-.56c1.26-.61,1.56-.73,1.67-.77Z" style="fill:#508fcc"/><path d="M195.57,107.58a.92.92,0,0,1-.78.5c-.77,0-1.16-.57-1.16-1.7V103.6a20,20,0,0,0-6.76,1.47c0,1.26.12,2.33.22,3.2a1,1,0,0,1-.8.5c-.78,0-1.18-.82-1.18-2.46v-1.57a66.12,66.12,0,0,0-.41-7.64c-.12-1.14-.18-1.66-.18-1.59,0-.39.24-.58.72-.58a1.78,1.78,0,0,1,.9.24.79.79,0,0,1,.41.71v.47c0-.1,0,.24.08,1s.09,2.45.16,5.38q1.32-.17,6.79-1.44c-.08-1.59-.19-3.07-.34-4.43,0-.08-.06-.42-.15-1a5.55,5.55,0,0,1-.11-1c0-.39.24-.58.72-.58a2,2,0,0,1,.89.2.81.81,0,0,1,.46.73v.56c0,.25,0,.58,0,1s.07.85.07,1c0,.6.07,2.25.13,4.94.05,2,.14,3.66.28,4.93" style="fill:#508fcc"/><path d="M186.29,109.11c-1,0-1.52-.94-1.52-2.8v-1.57a67.7,67.7,0,0,0-.41-7.6q-.15-1.44-.18-1.56l.34-.07h-.35v-.34h0a1,1,0,0,1,1-.58,2.12,2.12,0,0,1,1.07.29,1.11,1.11,0,0,1,.58,1v.47c0,.2.05.51.08,1s.09,2.31.16,5c1-.17,3.06-.61,6.09-1.31-.07-1.47-.18-2.86-.32-4.12l-.15-1a5.94,5.94,0,0,1-.11-1.07c0-.58.39-.92,1.06-.92a2.26,2.26,0,0,1,1.05.24,1.15,1.15,0,0,1,.64,1v.56c0,.25,0,.57,0,1s.07.87.07,1c0,.59.07,2.23.14,4.93,0,2,.13,3.65.27,4.9l0,.12-.07.1a1.22,1.22,0,0,1-1.07.66c-.56,0-1.5-.26-1.5-2V104a20.2,20.2,0,0,0-6.07,1.36c0,1.13.12,2.12.21,2.92l0,.12-.07.11a1.28,1.28,0,0,1-1.09.65m-1.44-13.6c.05.27.1.73.19,1.55a66.76,66.76,0,0,1,.42,7.68v1.57c0,1,.14,2.12.83,2.12a.55.55,0,0,0,.45-.26c-.1-.85-.17-1.89-.21-3.08v-.25l.23-.09a20.42,20.42,0,0,1,6.88-1.49H194v3.13c0,1.36.57,1.36.82,1.36a.52.52,0,0,0,.43-.25c-.14-1.25-.23-2.88-.27-4.84-.06-2.68-.1-4.32-.13-4.92,0-.14,0-.45-.07-1s0-.76,0-1v-.56a.47.47,0,0,0-.29-.43,1.63,1.63,0,0,0-.72-.16c-.38,0-.38.12-.38.24a5.18,5.18,0,0,0,.11,1l.15,1c.15,1.37.26,2.87.34,4.46v.29l-.28.06c-3.69.86-5.92,1.33-6.81,1.45l-.38,0v-.37c-.07-2.91-.13-4.72-.16-5.37s-.07-.93-.07-1l.29,0h-.3v-.47a.42.42,0,0,0-.25-.41,1.39,1.39,0,0,0-.72-.2c-.38,0-.38.12-.38.24Z" style="fill:#508fcc"/><path d="M206.87,99c-.07,0-.11-.07-.11-.22a2.6,2.6,0,0,1,.08-.5,2.56,2.56,0,0,0,.07-.53,1.54,1.54,0,0,0-.2-.76.73.73,0,0,0-.64-.43l-.35,0a12.21,12.21,0,0,0-3.16.81,5.85,5.85,0,0,0-2.47,2.09,7.36,7.36,0,0,0-1.43,4.17,3.86,3.86,0,0,0,2.52,3.92,2.93,2.93,0,0,0,1.14.22,5.18,5.18,0,0,0,2.33-.67,16.91,16.91,0,0,0,2-1.22,4.22,4.22,0,0,1,1.16-.65q.3,0,.3.6a1.45,1.45,0,0,1-.66,1.34,13.23,13.23,0,0,1-3,1.42,10.26,10.26,0,0,1-3.24.62,4.09,4.09,0,0,1-3.38-1.44,5.67,5.67,0,0,1-1-3.58,10.41,10.41,0,0,1,2.54-6.84,8.06,8.06,0,0,1,6.39-3.23,7,7,0,0,1,2.59.43.84.84,0,0,1,.62.8,4.36,4.36,0,0,1-.57,1.86,4.63,4.63,0,0,1-1.15,1.58.73.73,0,0,1-.34.18" style="fill:#508fcc"/><path d="M201.21,109.56a4.43,4.43,0,0,1-3.64-1.56,6,6,0,0,1-1.12-3.8,10.87,10.87,0,0,1,2.61-7.06,8.45,8.45,0,0,1,6.66-3.35,7.53,7.53,0,0,1,2.72.45,1.15,1.15,0,0,1,.83,1.12,4.62,4.62,0,0,1-.61,2,4.88,4.88,0,0,1-1.24,1.7,1,1,0,0,1-.55.26s-.45,0-.45-.57a3.25,3.25,0,0,1,.08-.58,2,2,0,0,0,.07-.45,1.11,1.11,0,0,0-.16-.59c-.15-.26-.28-.26-.34-.26l-.3,0a12.38,12.38,0,0,0-3.07.78,5.51,5.51,0,0,0-2.32,2,7.07,7.07,0,0,0-1.38,4,3.51,3.51,0,0,0,2.31,3.6,3.68,3.68,0,0,0,3.18-.44,17.42,17.42,0,0,0,1.95-1.19c1-.66,1.2-.71,1.35-.71s.64.09.64.94a1.79,1.79,0,0,1-.81,1.63,14.17,14.17,0,0,1-3.06,1.46,10.63,10.63,0,0,1-3.35.63m4.51-15.09a7.81,7.81,0,0,0-6.13,3.11,10.16,10.16,0,0,0-2.46,6.62,5.36,5.36,0,0,0,1,3.37c1.17,1.45,3.28,1.71,6.24.71a13.7,13.7,0,0,0,2.91-1.38,1.16,1.16,0,0,0,.5-1.06,1.13,1.13,0,0,0,0-.23c-.11.06-.36.2-.91.57a18.62,18.62,0,0,1-2,1.23,4.3,4.3,0,0,1-3.75.46,4.18,4.18,0,0,1-2.74-4.23,7.77,7.77,0,0,1,1.5-4.36,6.18,6.18,0,0,1,2.61-2.21,12.41,12.41,0,0,1,3.25-.83,2.23,2.23,0,0,1,.4,0,1,1,0,0,1,.93.6,1.78,1.78,0,0,1,.25.93,2.6,2.6,0,0,1-.08.6.13.13,0,0,0,0,.06,5,5,0,0,0,.89-1.33,4,4,0,0,0,.54-1.7c0-.16-.05-.35-.4-.49a7.07,7.07,0,0,0-2.47-.4" style="fill:#508fcc"/><path d="M220.47,106.7a2,2,0,0,1-.17.84.7.7,0,0,1-.63.5c-.33,0-.56-.28-.69-.86t-.15-1.29c-.1-.94-.23-1.92-.38-2.93a20.15,20.15,0,0,0-6,1.72q-.36,1-.63,1.86l-.55,1.69c-.32.81-.66,1.21-1,1.21-.18,0-.32-.14-.42-.43a2.13,2.13,0,0,1-.09-.63,17.32,17.32,0,0,1,.77-3c.38-1.26.73-2.31,1-3.16q1.2-3.36,1.84-4.72c1.09-2.35,2.09-3.53,3-3.53q1.86,0,3.18,6.54l.06,0a.94.94,0,0,1,.67.63,2.56,2.56,0,0,1,.18,1c0,.56-.15.87-.46.93.33,2.24.5,3.47.5,3.7m-2.37-5.87c-.51-2.49-1.12-3.73-1.83-3.73s-1.69,1.62-2.88,4.85c1.06-.18,2.63-.56,4.71-1.12" style="fill:#508fcc"/><path d="M210.24,109.78c-.23,0-.55-.11-.74-.65a2.67,2.67,0,0,1-.11-.75,14.22,14.22,0,0,1,.78-3.11c.39-1.25.73-2.32,1-3.17.8-2.24,1.42-3.84,1.85-4.75,1.18-2.55,2.23-3.73,3.29-3.73,1.43,0,2.53,2.09,3.46,6.57a1.29,1.29,0,0,1,.76.79,2.87,2.87,0,0,1,.22,1.09,1.29,1.29,0,0,1-.44,1.14c.42,2.81.47,3.34.47,3.49a2.43,2.43,0,0,1-.19,1,1,1,0,0,1-1,.71c-.35,0-.8-.19-1-1.12,0-.1-.07-.52-.16-1.32s-.2-1.72-.33-2.6a20.4,20.4,0,0,0-5.45,1.6c-.21.6-.41,1.17-.58,1.7l-.54,1.69c-.39,1-.83,1.45-1.35,1.45m6.1-15.48c-.42,0-1.33.43-2.68,3.33-.41.9-1,2.48-1.81,4.7-.3.84-.64,1.9-1,3.14a16.06,16.06,0,0,0-.75,2.91,1.78,1.78,0,0,0,.08.53.4.4,0,0,0,.1.19c.08,0,.34-.11.7-1l.53-1.67c.19-.58.4-1.2.64-1.86l0-.14.13-.06a20.5,20.5,0,0,1,6.12-1.75l.33,0,0,.32c.15,1,.28,2,.38,3,.15,1.28.15,1.3.15,1.32s.15.52.35.52.19,0,.32-.3a1.78,1.78,0,0,0,.14-.7c0-.12-.06-.75-.5-3.65l0-.32.32-.07c.17,0,.19-.43.19-.59a2.12,2.12,0,0,0-.16-.83.7.7,0,0,0-.34-.41l-.27.09-.14-.36c-1.1-5.45-2.25-6.26-2.84-6.26m-3.47,8.09.2-.55c1.65-4.51,2.57-5.08,3.2-5.08.93,0,1.6,1.23,2.16,4l.07.31-.31.08c-2.08.56-3.67.94-4.74,1.13Zm3.4-5c-.19,0-.92.3-2.35,4.06,1-.19,2.22-.5,3.78-.91-.64-2.92-1.25-3.15-1.43-3.15" style="fill:#508fcc"/><path d="M228.28,103.75q.94,2.18,3.23,6.59c-.09.71-.42,1.07-1,1.07s-.88-.4-1.23-1.2a31.06,31.06,0,0,0-1.55-3.06c-.9-1.5-1.61-2.24-2.15-2.24s-.6.46-.6,1.4a12.94,12.94,0,0,0,.1,1.51c-.33,1-.69,1.42-1.11,1.42s-.82-.87-.82-2.62c0-.29,0-.65,0-1.06s0-.64,0-.69c0-1.75-.06-3.37-.17-4.88,0-.31-.11-1-.26-2.16a16.66,16.66,0,0,1-.19-2.11c0-.48.3-.66.9-.57a12.78,12.78,0,0,1,4.2-.87,5.48,5.48,0,0,1,3.25,1,3.31,3.31,0,0,1,1.53,2.86,5.25,5.25,0,0,1-1.29,3.38,9.07,9.07,0,0,1-2.89,2.26m-.23-7.33a16.8,16.8,0,0,0-3.77.57q.14,2.08.41,6.27a7.48,7.48,0,0,0,3.66-1.7c1.54-1.24,2.3-2.36,2.3-3.36a1.5,1.5,0,0,0-.88-1.4,3.61,3.61,0,0,0-1.72-.38" style="fill:#508fcc"/><path d="M230.5,111.75c-.62,0-1.14-.47-1.54-1.4a27.51,27.51,0,0,0-1.54-3c-1.12-1.87-1.67-2.07-1.85-2.07s-.26.33-.26,1.06a14.67,14.67,0,0,0,.1,1.47v.08l0,.07c-.38,1.11-.85,1.65-1.43,1.65-1,0-1.16-1.69-1.16-3q0-.45,0-1.08c0-.4,0-.62,0-.67,0-1.73-.06-3.36-.17-4.85,0-.31-.11-1-.26-2.15a17.15,17.15,0,0,1-.19-2.15c0-.66.42-1,1.2-.92,3.39-1.2,5.82-1.14,7.69.17a3.65,3.65,0,0,1,1.67,3.14,5.59,5.59,0,0,1-1.36,3.59,9.12,9.12,0,0,1-2.72,2.2c.64,1.44,1.68,3.55,3.09,6.28l.05.1v.1c-.15,1.19-.91,1.37-1.35,1.37m-4.93-7.19c.68,0,1.46.77,2.44,2.41a29.78,29.78,0,0,1,1.57,3.1c.2.45.52,1,.92,1s.56-.08.66-.66c-1.49-2.88-2.57-5.08-3.19-6.52l-.13-.29.28-.15a8.78,8.78,0,0,0,2.79-2.17,4.93,4.93,0,0,0,1.21-3.16,3,3,0,0,0-1.38-2.58c-1.7-1.19-4-1.21-7.14,0l-.09,0-.09,0-.23,0c-.24,0-.27.07-.27.25a18,18,0,0,0,.19,2.06c.15,1.14.24,1.87.26,2.19.11,1.51.17,3.15.17,4.9,0,0,0,.28,0,.7s0,.76,0,1.05c0,2.25.46,2.28.48,2.28s.39-.08.76-1.12a14.18,14.18,0,0,1-.09-1.47c0-1.16.32-1.75.94-1.75m-1.19-.91,0-.37q-.27-4.19-.41-6.27l0-.29.28-.07a17.92,17.92,0,0,1,3.85-.57,3.92,3.92,0,0,1,1.88.42A1.83,1.83,0,0,1,231,98.2c0,1.11-.79,2.3-2.42,3.63a8.08,8.08,0,0,1-3.82,1.77Zm.26-6.4c.08,1.32.21,3.19.37,5.61a7.56,7.56,0,0,0,3.13-1.56c1.44-1.18,2.17-2.22,2.17-3.1a1.15,1.15,0,0,0-.7-1.1c-1-.54-2.59-.4-5,.15" style="fill:#508fcc"/><path d="M245.52,107.65q0,.54-.51.54c-.19,0-.54,0-1-.08a9.93,9.93,0,0,0-1.12-.09,16.24,16.24,0,0,0-5.61,1,1,1,0,0,1-.78.47c-.79,0-1.18-.84-1.18-2.51,0-.23,0-.53,0-.89s0-.59,0-.67c0-1.8-.06-3.44-.17-4.92q0-.67-.3-3c-.09-.79-.13-1.23-.13-1.3,0-.38.27-.57.82-.58A18.32,18.32,0,0,1,242.34,94a3.82,3.82,0,0,1,1.72.27,1.45,1.45,0,0,1,.73,1.47c0,.62-.17.94-.52.94l-.34-.06a7.55,7.55,0,0,0-1.74-.19A11.77,11.77,0,0,0,237,97.77c.05,1.32.1,3,.13,5.17,1-.13,2.25-.38,3.74-.72,2.35-.55,3.6-.84,3.74-.86a1,1,0,0,1,.69.63,2.1,2.1,0,0,1,.22,1c0,.63-.19.94-.56.94a.63.63,0,0,1-.28-.08h-.43a18.35,18.35,0,0,0-7.1,1.5v.54c0,.41,0,.75,0,1a22.22,22.22,0,0,1,5-.58,14.49,14.49,0,0,1,2.41.16,1.07,1.07,0,0,1,.93,1.22" style="fill:#508fcc"/><path d="M236.48,109.88c-1,0-1.52-1-1.52-2.84,0-.25,0-.55,0-.92s0-.57,0-.65c0-1.78-.06-3.43-.17-4.89,0-.45-.13-1.44-.3-3-.13-1.21-.13-1.3-.13-1.34,0-.27.11-.87,1.09-.92a18.54,18.54,0,0,1,6.83-1.67,4.22,4.22,0,0,1,1.88.3,1.81,1.81,0,0,1,.91,1.78c0,1.11-.54,1.28-.86,1.28a2.7,2.7,0,0,1-.41-.07,7.44,7.44,0,0,0-1.67-.18A11.37,11.37,0,0,0,237.33,98c0,1.21.08,2.73.12,4.57.91-.14,2-.37,3.32-.67,3.17-.74,3.66-.84,3.75-.86h.12a1.31,1.31,0,0,1,1,.83,2.53,2.53,0,0,1,.25,1.09c0,1.11-.56,1.28-.9,1.28a.94.94,0,0,1-.36-.08H244a18.14,18.14,0,0,0-6.53,1.39v.31c0,.22,0,.41,0,.59a23,23,0,0,1,4.69-.5,15.15,15.15,0,0,1,2.46.16,1.41,1.41,0,0,1,1.22,1.56.8.8,0,0,1-.85.88,9.49,9.49,0,0,1-1.06-.08,8.89,8.89,0,0,0-1.08-.08,15.89,15.89,0,0,0-5.4,1,1.29,1.29,0,0,1-1,.52m5.86-15.5A18.18,18.18,0,0,0,235.71,96l-.12,0c-.49,0-.49.16-.49.24s0,.22.13,1.27c.18,1.55.28,2.53.3,3,.11,1.48.17,3.14.17,4.94,0,.08,0,.32,0,.69s0,.64,0,.88c0,1,.15,2.16.84,2.16.06,0,.26,0,.51-.34l.06-.08.1,0a16.55,16.55,0,0,1,5.72-1.07,10.68,10.68,0,0,1,1.16.09c.47,0,.8.08,1,.08s.17,0,.17-.2c0-.68-.33-.83-.65-.89a14.89,14.89,0,0,0-2.35-.15,22.15,22.15,0,0,0-4.93.57l-.38.09,0-.39a10,10,0,0,1,0-1v-.77L237,105a18.92,18.92,0,0,1,7-1.52l.81,0c.27.13.35-.07.35-.56a1.74,1.74,0,0,0-.19-.8c-.15-.32-.3-.41-.39-.43s-1.1.24-3.65.84c-1.5.35-2.77.59-3.77.73l-.38,0V103c0-2.13-.08-3.85-.13-5.17v-.22l.2-.1a12.13,12.13,0,0,1,5.36-1.34,8.19,8.19,0,0,1,1.82.2l.27,0c.16,0,.17-.45.17-.59,0-.91-.4-1.1-.54-1.17a3.68,3.68,0,0,0-1.57-.22" style="fill:#508fcc"/><path d="M135.17,128.56a2.14,2.14,0,0,1-.17.84.71.71,0,0,1-.64.5c-.32,0-.55-.28-.69-.86t-.15-1.29c-.1-.94-.22-1.92-.37-2.93a20.07,20.07,0,0,0-6,1.72c-.24.66-.45,1.28-.64,1.86s-.37,1.14-.54,1.69c-.32.81-.67,1.21-1,1.21-.17,0-.31-.14-.41-.43a2.18,2.18,0,0,1-.09-.63,16.84,16.84,0,0,1,.76-3c.39-1.26.73-2.31,1-3.16q1.2-3.36,1.83-4.72c1.1-2.36,2.09-3.53,3-3.53q1.85,0,3.17,6.54l.06,0a.93.93,0,0,1,.67.63,2.38,2.38,0,0,1,.19,1c0,.56-.16.87-.47.93.34,2.24.51,3.47.51,3.7m-2.38-5.87c-.51-2.49-1.12-3.73-1.83-3.73s-1.69,1.62-2.87,4.85c1.06-.18,2.63-.56,4.7-1.12" style="fill:#508fcc"/><path d="M124.93,131.64c-.23,0-.54-.11-.73-.65a2.39,2.39,0,0,1-.11-.75,14.22,14.22,0,0,1,.78-3.11c.38-1.25.73-2.32,1-3.17.8-2.24,1.41-3.84,1.84-4.76,1.19-2.54,2.23-3.72,3.3-3.72,1.43,0,2.53,2.09,3.46,6.56a1.37,1.37,0,0,1,.76.8,2.82,2.82,0,0,1,.21,1.09,1.31,1.31,0,0,1-.43,1.14c.42,2.81.47,3.34.47,3.49a2.44,2.44,0,0,1-.2,1,1,1,0,0,1-.95.71c-.34,0-.8-.19-1-1.12,0-.1-.06-.52-.16-1.33s-.19-1.71-.32-2.59a20.4,20.4,0,0,0-5.45,1.6c-.22.6-.41,1.17-.59,1.7l-.54,1.69c-.39,1-.83,1.45-1.35,1.45M131,116.16c-.42,0-1.33.43-2.68,3.33-.42.9-1,2.48-1.82,4.7-.29.84-.64,1.89-1,3.14a16.06,16.06,0,0,0-.75,2.91,1.51,1.51,0,0,0,.08.53.4.4,0,0,0,.1.19c.07,0,.34-.11.69-1l.54-1.67c.18-.58.4-1.2.63-1.87l0-.14.14,0a20.5,20.5,0,0,1,6.12-1.75l.32,0,.05.32c.15,1,.27,2,.37,3C134,129,134,129,134,129s.16.52.35.52.19,0,.33-.3a1.78,1.78,0,0,0,.14-.7c0-.12-.07-.75-.51-3.65l0-.32.32-.07c.17,0,.19-.43.19-.59a2.31,2.31,0,0,0-.16-.83.7.7,0,0,0-.35-.41l-.27.09-.13-.36c-1.11-5.45-2.25-6.26-2.84-6.26m-3.48,8.09.21-.55c1.64-4.51,2.57-5.08,3.19-5.08.93,0,1.6,1.23,2.17,4l.06.32-.31.08c-2.08.56-3.67.94-4.73,1.13Zm3.4-5c-.19,0-.91.3-2.34,4.06.95-.19,2.22-.5,3.77-.91-.63-2.92-1.25-3.15-1.43-3.15" style="fill:#508fcc"/><path d="M150.15,125.61q.94,2.17,3.23,6.59c-.09.71-.42,1.06-1,1.06s-.88-.39-1.23-1.19a30,30,0,0,0-1.55-3.06c-.9-1.5-1.62-2.25-2.15-2.25s-.6.47-.6,1.4c0,.43,0,.93.09,1.52-.32.94-.69,1.42-1.1,1.42s-.82-.87-.82-2.62c0-.3,0-.65,0-1.06s0-.64,0-.69c0-1.75-.06-3.37-.17-4.88,0-.31-.11-1-.26-2.17a16.36,16.36,0,0,1-.19-2.11c0-.47.3-.66.9-.56a12.78,12.78,0,0,1,4.2-.87,5.48,5.48,0,0,1,3.25,1,3.31,3.31,0,0,1,1.53,2.86,5.25,5.25,0,0,1-1.29,3.38,9.18,9.18,0,0,1-2.89,2.26m-.23-7.33a17.2,17.2,0,0,0-3.77.56c.09,1.4.22,3.49.41,6.28a7.57,7.57,0,0,0,3.66-1.7c1.53-1.25,2.3-2.37,2.3-3.36a1.5,1.5,0,0,0-.88-1.4,3.61,3.61,0,0,0-1.72-.38" style="fill:#508fcc"/><path d="M152.37,133.61c-.62,0-1.14-.47-1.55-1.4a27.53,27.53,0,0,0-1.53-3c-1.12-1.87-1.67-2.07-1.85-2.07s-.26.33-.26,1a14.51,14.51,0,0,0,.09,1.48v.08l0,.07c-.38,1.11-.85,1.65-1.43,1.65-1,0-1.16-1.69-1.16-3q0-.45,0-1.08c0-.4,0-.62,0-.67,0-1.73-.05-3.36-.16-4.85,0-.31-.11-1-.26-2.15a17.15,17.15,0,0,1-.19-2.15c0-.66.42-1,1.2-.92,3.39-1.21,5.82-1.15,7.69.17a3.65,3.65,0,0,1,1.67,3.14,5.59,5.59,0,0,1-1.36,3.59,9.12,9.12,0,0,1-2.72,2.2c.64,1.44,1.68,3.55,3.09,6.28l0,.1v.1c-.15,1.19-.91,1.37-1.35,1.37m-4.93-7.19c.68,0,1.45.77,2.44,2.41a29.78,29.78,0,0,1,1.57,3.1c.2.45.52,1,.92,1s.55-.08.65-.66c-1.48-2.89-2.56-5.08-3.19-6.52l-.12-.29.28-.15a8.78,8.78,0,0,0,2.79-2.17A4.93,4.93,0,0,0,154,120a3,3,0,0,0-1.39-2.58c-1.69-1.2-3.95-1.21-7.14-.06l-.08,0-.09,0-.23,0c-.24,0-.27.07-.27.25a15.9,15.9,0,0,0,.19,2.06c.15,1.14.23,1.87.26,2.18.11,1.51.17,3.16.17,4.91,0,0,0,.28,0,.7s0,.76,0,1c0,2.25.46,2.28.48,2.28s.39-.09.76-1.12a14.19,14.19,0,0,1-.09-1.48c0-1.15.32-1.74.94-1.74m-1.19-.91,0-.37c-.19-2.79-.32-4.88-.41-6.27l0-.29.28-.07a17.31,17.31,0,0,1,3.85-.57,3.92,3.92,0,0,1,1.88.42,1.85,1.85,0,0,1,1.06,1.7c0,1.11-.79,2.3-2.42,3.63a8.07,8.07,0,0,1-3.83,1.77Zm.26-6.4c.08,1.32.21,3.19.37,5.6a7.42,7.42,0,0,0,3.13-1.55c1.44-1.18,2.17-2.22,2.17-3.1a1.15,1.15,0,0,0-.7-1.1c-1-.53-2.59-.4-5,.15" style="fill:#508fcc"/><path d="M167.39,129.51q0,.54-.51.54c-.2,0-.54,0-1-.08a9.93,9.93,0,0,0-1.12-.09,16.2,16.2,0,0,0-5.61,1.05,1,1,0,0,1-.78.47c-.79,0-1.18-.84-1.18-2.51,0-.23,0-.53,0-.89s0-.59,0-.68c0-1.79-.06-3.43-.17-4.91q0-.68-.3-3c-.09-.79-.13-1.23-.13-1.3,0-.38.27-.57.82-.59a18.48,18.48,0,0,1,6.76-1.66,3.85,3.85,0,0,1,1.72.27,1.45,1.45,0,0,1,.73,1.47c0,.62-.18.93-.52.93a2,2,0,0,1-.34,0,7.55,7.55,0,0,0-1.74-.19,11.77,11.77,0,0,0-5.21,1.31c.05,1.32.09,3,.13,5.17,1-.13,2.24-.38,3.74-.72l3.73-.86a1,1,0,0,1,.69.63,2.11,2.11,0,0,1,.23,1c0,.62-.19.94-.56.94a.63.63,0,0,1-.28-.08h-.44a18.16,18.16,0,0,0-7.09,1.5v.54a9.37,9.37,0,0,0,0,1,22.2,22.2,0,0,1,5-.58,14.33,14.33,0,0,1,2.41.16,1.07,1.07,0,0,1,.94,1.22" style="fill:#508fcc"/><path d="M158.35,131.74c-1,0-1.52-1-1.52-2.85,0-.24,0-.54,0-.91s0-.57,0-.65c0-1.78,0-3.43-.16-4.89,0-.45-.13-1.44-.3-3-.13-1.22-.13-1.3-.13-1.34,0-.27.11-.88,1.09-.92a18.54,18.54,0,0,1,6.83-1.67,4.25,4.25,0,0,1,1.88.3,1.8,1.8,0,0,1,.91,1.78c0,1.11-.54,1.28-.86,1.28a2.7,2.7,0,0,1-.41-.07,7.56,7.56,0,0,0-1.67-.18,11.37,11.37,0,0,0-4.86,1.18c0,1.21.08,2.73.12,4.57.91-.14,2-.37,3.32-.67,3.17-.74,3.66-.84,3.75-.86h.12a1.3,1.3,0,0,1,.94.83,2.37,2.37,0,0,1,.26,1.09c0,1.11-.57,1.28-.9,1.28a.94.94,0,0,1-.36-.08h-.58a18.14,18.14,0,0,0-6.53,1.39v.31c0,.22,0,.41,0,.59a22.34,22.34,0,0,1,4.69-.5,15.2,15.2,0,0,1,2.47.16,1.41,1.41,0,0,1,1.22,1.56.8.8,0,0,1-.85.88,9.49,9.49,0,0,1-1.06-.08,9.38,9.38,0,0,0-1.08-.09,15.91,15.91,0,0,0-5.4,1,1.29,1.29,0,0,1-1,.52m5.86-15.5a17.93,17.93,0,0,0-6.63,1.63l-.12,0c-.49,0-.49.16-.49.24s0,.22.13,1.27c.18,1.55.27,2.52.3,3,.11,1.48.17,3.14.17,4.94,0,.08,0,.31,0,.68s0,.65,0,.88c0,1,.15,2.16.84,2.16.06,0,.26,0,.51-.33l.06-.08.09,0a16.65,16.65,0,0,1,5.73-1.07,10.68,10.68,0,0,1,1.16.09c.47.05.8.08,1,.08s.17,0,.17-.2c0-.68-.33-.83-.65-.89a15,15,0,0,0-2.36-.15,22.15,22.15,0,0,0-4.93.57l-.38.09,0-.39a10,10,0,0,1,0-1v-.77l.21-.09a19,19,0,0,1,7-1.52l.81,0a.26.26,0,0,0,.13,0c.14,0,.22-.19.22-.59a1.74,1.74,0,0,0-.19-.8c-.15-.32-.3-.41-.39-.44l-3.65.85c-1.5.35-2.77.59-3.77.73l-.38,0v-.38c0-2.13-.08-3.85-.13-5.17v-.22l.2-.1a12.13,12.13,0,0,1,5.36-1.34,8.91,8.91,0,0,1,1.82.19l.27,0c.15,0,.17-.45.17-.59,0-.91-.41-1.1-.54-1.17a3.52,3.52,0,0,0-1.57-.22" style="fill:#508fcc"/><path d="M179.85,128.56a2.14,2.14,0,0,1-.17.84.71.71,0,0,1-.64.5c-.32,0-.55-.28-.69-.86t-.15-1.29c-.1-.94-.22-1.92-.37-2.93a20.12,20.12,0,0,0-6,1.72q-.34,1-.63,1.86c-.19.58-.37,1.14-.54,1.69-.33.81-.67,1.21-1,1.21-.17,0-.31-.14-.41-.43a2.18,2.18,0,0,1-.09-.63,16.84,16.84,0,0,1,.76-3c.39-1.26.73-2.31,1-3.16q1.2-3.36,1.83-4.72c1.1-2.36,2.09-3.53,3-3.53q1.84,0,3.17,6.54l.06,0a.93.93,0,0,1,.67.63,2.38,2.38,0,0,1,.19,1c0,.56-.16.87-.47.93.34,2.24.51,3.47.51,3.7m-2.38-5.87c-.51-2.49-1.12-3.73-1.83-3.73s-1.69,1.62-2.87,4.85c1.06-.18,2.62-.56,4.7-1.12" style="fill:#508fcc"/><path d="M169.61,131.64c-.23,0-.54-.11-.73-.65a2.4,2.4,0,0,1-.12-.75,14,14,0,0,1,.79-3.11c.38-1.25.73-2.32,1-3.17.79-2.24,1.41-3.84,1.84-4.76,1.18-2.54,2.23-3.72,3.3-3.72,1.43,0,2.53,2.09,3.46,6.56a1.33,1.33,0,0,1,.75.8,2.66,2.66,0,0,1,.22,1.09,1.31,1.31,0,0,1-.43,1.14c.42,2.81.47,3.34.47,3.49a2.44,2.44,0,0,1-.2,1,1,1,0,0,1-1,.71c-.34,0-.8-.19-1-1.12,0-.1-.06-.52-.16-1.33s-.19-1.71-.32-2.59a20.4,20.4,0,0,0-5.45,1.6c-.22.6-.41,1.17-.59,1.7l-.54,1.69c-.39,1-.83,1.45-1.35,1.45m6.11-15.48c-.42,0-1.33.43-2.68,3.33-.42.9-1,2.48-1.82,4.7-.29.84-.64,1.89-1,3.14a16.06,16.06,0,0,0-.75,2.91,1.51,1.51,0,0,0,.08.53.62.62,0,0,0,.09.19c.08,0,.35-.11.7-1l.54-1.67c.18-.58.39-1.2.63-1.87l0-.14.14,0a20.5,20.5,0,0,1,6.12-1.75l.32,0,0,.32c.15,1,.27,2,.37,3,.15,1.28.15,1.29.15,1.32s.16.52.35.52.19,0,.33-.3a1.78,1.78,0,0,0,.13-.7c0-.12-.06-.75-.5-3.65l0-.32.31-.07c.18,0,.2-.43.2-.59a2.31,2.31,0,0,0-.16-.83.74.74,0,0,0-.35-.41l-.27.09-.13-.36c-1.11-5.45-2.26-6.26-2.84-6.26m-3.48,8.09.21-.55c1.64-4.51,2.57-5.08,3.19-5.08.93,0,1.6,1.23,2.17,4l.06.32-.31.08c-2.08.56-3.67.94-4.73,1.13Zm3.4-5c-.19,0-.91.3-2.34,4.06.95-.19,2.21-.5,3.77-.91-.63-2.92-1.25-3.15-1.43-3.15" style="fill:#508fcc"/><path d="M190.45,129.51c0,.35-.13.52-.39.52a6.9,6.9,0,0,1-.84-.07,7.15,7.15,0,0,0-.86-.08,11.59,11.59,0,0,0-4.24.83c-.18.08-.37.18-.56.28a1.67,1.67,0,0,1-.54.16c-.27,0-.5-.2-.69-.61a2.51,2.51,0,0,1-.22-1q0-7.37-.45-11.81c-.13-1.26-.19-1.85-.19-1.77,0-.44.24-.66.7-.66a1.59,1.59,0,0,1,.94.29,1,1,0,0,1,.4.8V117c0,.24,0,.55.05.94s.05.79.06.91q.06,3.26.28,9.73a16.15,16.15,0,0,1,3.85-.46c.73,0,1.22,0,1.45,0,.64.1,1,.33,1.16.68a2.09,2.09,0,0,1,.09.67" style="fill:#508fcc"/><path d="M183,131.49c-.42,0-.76-.27-1-.81a2.92,2.92,0,0,1-.26-1.13c0-4.88-.15-8.84-.44-11.77-.11-1.08-.17-1.67-.18-1.75l.33-.06h-.34v-.34h.05a.93.93,0,0,1,1-.66,1.87,1.87,0,0,1,1.14.36,1.26,1.26,0,0,1,.54,1.07V117c0,.23,0,.53.05.9s0,.8.06.92c0,2.11.13,5.24.27,9.34a16.71,16.71,0,0,1,3.52-.38c.75,0,1.24,0,1.49,0,.78.13,1.26.42,1.44.89a2.36,2.36,0,0,1,.12.8c0,.8-.56.86-.74.86a7.27,7.27,0,0,1-.88-.07,6.64,6.64,0,0,0-.82-.08,11.29,11.29,0,0,0-4.11.8l-.53.27a1.86,1.86,0,0,1-.7.2M181.8,116c0,.28.11.8.2,1.74.3,3,.45,6.94.45,11.84a2.16,2.16,0,0,0,.19.85c.07.15.21.41.38.41a1.5,1.5,0,0,0,.41-.14c.16-.09.36-.18.55-.27a12,12,0,0,1,4.38-.86,7.81,7.81,0,0,1,.91.08,6,6,0,0,0,.79.07s.05,0,.05-.18A1.74,1.74,0,0,0,190,129c-.11-.27-.54-.39-.89-.45s-.68,0-1.4,0a15.56,15.56,0,0,0-3.77.46l-.41.1v-.42c-.15-4.31-.25-7.58-.28-9.74,0-.1,0-.41-.06-.91a9,9,0,0,1-.05-.95v-.61a.61.61,0,0,0-.26-.52,1.22,1.22,0,0,0-.74-.22c-.33,0-.36.11-.36.31Z" style="fill:#508fcc"/><path d="M194.41,130.07a.94.94,0,0,1-.8.5c-.78,0-1.17-.82-1.17-2.48,0-.24,0-.53,0-.88s0-.57,0-.67a65.87,65.87,0,0,0-.41-7.64c-.12-1.13-.19-1.66-.19-1.59,0-.4.29-.59.86-.59a1.3,1.3,0,0,1,.81.27.8.8,0,0,1,.37.68v.58q0,.39.06,1c0,.54.05.87.05,1,0,.54.08,2.17.15,4.9q.06,3,.24,4.89" style="fill:#508fcc"/><path d="M193.61,130.92c-1,0-1.52-1-1.52-2.83,0-.24,0-.54,0-.89s0-.56,0-.66a67.44,67.44,0,0,0-.41-7.6q-.15-1.44-.18-1.56l.34-.07h-.35V117h.06c.11-.29.4-.6,1.14-.6a1.71,1.71,0,0,1,1,.34,1.13,1.13,0,0,1,.51,1v.58q0,.38.06,1c0,.56.06.9.06,1,0,.52.07,2.16.14,4.89,0,2,.12,3.61.25,4.87v.12l-.07.1a1.3,1.3,0,0,1-1.09.66m-1.4-13.61c0,.27.1.73.19,1.55a66.58,66.58,0,0,1,.41,7.68c0,.1,0,.33,0,.68s0,.64,0,.87c0,1,.14,2.14.83,2.14a.56.56,0,0,0,.45-.25c-.11-1.26-.19-2.87-.23-4.8-.07-2.72-.12-4.35-.15-4.88,0-.15,0-.48-.05-1s-.06-.78-.06-1v-.58a.49.49,0,0,0-.23-.41,1,1,0,0,0-.61-.2c-.51,0-.51.16-.51.25Z" style="fill:#508fcc"/><path d="M206.74,117.48c0,.7-.17,1-.52,1l-.34-.06a8.12,8.12,0,0,0-1.71-.17,10.68,10.68,0,0,0-2,.19c0-.11,0,.06,0,.52l.11,1.83q.19,3.16.69,9.45-.47,1.44-1.08,1.44c-.52,0-.78-.83-.78-2.5v-1.68a65.65,65.65,0,0,0-.55-8.63q-.24.08-1.62.75a10,10,0,0,1-1.38.59c-.3,0-.53-.18-.68-.56a2.24,2.24,0,0,1-.18-.91,1.24,1.24,0,0,1,.39-1.07,10.26,10.26,0,0,1,2.09-.82c.89-.28,1.65-.51,2.28-.67a11.61,11.61,0,0,1,2.88-.37,4.46,4.46,0,0,1,1.68.22,1.38,1.38,0,0,1,.78,1.4" style="fill:#508fcc"/><path d="M201.83,132.07c-1,0-1.12-1.62-1.12-2.84v-1.68a67.42,67.42,0,0,0-.49-8.14L199,120c-1.34.64-1.43.64-1.53.64a1,1,0,0,1-1-.78,2.48,2.48,0,0,1-.21-1,1.54,1.54,0,0,1,.53-1.34,8.48,8.48,0,0,1,2.19-.87c.88-.29,1.66-.52,2.3-.68a11.81,11.81,0,0,1,3-.39,4.66,4.66,0,0,1,1.82.26,1.7,1.7,0,0,1,1,1.71c0,1.15-.47,1.39-.86,1.39l-.4-.06a9.48,9.48,0,0,0-3.37,0V119l.11,1.81c.13,2.09.36,5.27.69,9.45v.07l0,.06c-.24.72-.64,1.67-1.41,1.67m-1-13.6.05.41a67.93,67.93,0,0,1,.55,8.67v1.68c0,1.71.29,2.16.44,2.16s.45-.3.74-1.14c-.33-4.14-.57-7.3-.69-9.39l-.11-1.83c0-.69,0-.91.35-.91h.17a10.24,10.24,0,0,1,3.67,0l.27,0c.1,0,.17-.29.17-.71a1,1,0,0,0-.58-1.09,4,4,0,0,0-1.54-.19,11.57,11.57,0,0,0-2.8.36c-.62.16-1.38.38-2.25.67a8.86,8.86,0,0,0-2,.77,1,1,0,0,0-.25.79,1.77,1.77,0,0,0,.16.77c.14.36.29.36.36.36s.19-.07,1.23-.56c1.26-.61,1.56-.73,1.67-.77Z" style="fill:#508fcc"/><path d="M219.46,116.62a3.46,3.46,0,0,1-.31,1.31c-.65,1.41-1.59,3.52-2.83,6.35q-.93,2.27-1.69,4.59c-.13.53-.37,1.29-.71,2.28a.72.72,0,0,1-.66.47,1.11,1.11,0,0,1-.78-.35,1,1,0,0,1-.38-.75,2.59,2.59,0,0,1,.32-.84c.06-.13.41-1.05,1-2.79-1.88-1.5-3.28-3.91-4.18-7.21q-.12-.57-.42-1.71a6,6,0,0,1-.39-1.24c0-.47.29-.71.86-.71a1.57,1.57,0,0,1,1.14.62,2.87,2.87,0,0,1,.65,1.16c0,.33.07.84.13,1.51.36,3.14,1.33,5,2.9,5.72.66-1.91,1.67-4.75,3-8.54.32-.87.76-1.31,1.33-1.31a.81.81,0,0,1,.73.51,1.93,1.93,0,0,1,.22.93" style="fill:#508fcc"/><path d="M213.26,132a1.5,1.5,0,0,1-1-.43,1.38,1.38,0,0,1-.49-1,2.31,2.31,0,0,1,.36-1c0-.07.19-.49.93-2.53a14,14,0,0,1-4.11-7.22c-.08-.41-.22-1-.42-1.73a4.62,4.62,0,0,1-.4-1.32c0-.31.12-1,1.2-1a1.92,1.92,0,0,1,1.39.73,3.15,3.15,0,0,1,.73,1.3c0,.4.08.9.14,1.57.32,2.75,1.11,4.52,2.36,5.26.67-1.91,1.65-4.66,2.92-8.17.37-1,.93-1.53,1.65-1.53a1.14,1.14,0,0,1,1,.69,2.28,2.28,0,0,1,.26,1.09,3.73,3.73,0,0,1-.34,1.44c-.65,1.41-1.6,3.55-2.82,6.36-.62,1.48-1.18,3-1.69,4.56-.12.51-.36,1.28-.71,2.29a1,1,0,0,1-1,.69m-3.94-15.59c-.52,0-.52.21-.52.36a6,6,0,0,0,.37,1.12c.21.79.35,1.38.43,1.77a13.28,13.28,0,0,0,4.06,7l.19.15-.08.23c-.94,2.62-1,2.76-1,2.82a2.24,2.24,0,0,0-.28.69.67.67,0,0,0,.26.5.78.78,0,0,0,.55.26c.11,0,.23,0,.35-.27.33-.95.56-1.7.68-2.21.52-1.59,1.1-3.14,1.72-4.65,1.23-2.82,2.18-5,2.83-6.36a3.28,3.28,0,0,0,.28-1.17,1.68,1.68,0,0,0-.18-.77c-.15-.29-.31-.32-.43-.32-.41,0-.75.36-1,1.08-1.35,3.73-2.37,6.6-3,8.53l-.12.35-.34-.15c-1.68-.72-2.72-2.74-3.09-6-.07-.68-.11-1.19-.14-1.53a2.63,2.63,0,0,0-.57-.95,1.26,1.26,0,0,0-.88-.5" style="fill:#508fcc"/><path d="M238.4,126.43a4.33,4.33,0,0,1-.5-.05,4.59,4.59,0,0,0-.52,0,18.94,18.94,0,0,0-6.93,1.57c.07,1.19.16,2.22.26,3.1a1,1,0,0,1-.82.53c-.78,0-1.16-.83-1.16-2.49v-1.57c0-1.79,0-3.43-.13-4.93,0-.31-.1-1-.25-2.18a19.08,19.08,0,0,1-.18-2.09c0-.47.26-.66.8-.58a18.36,18.36,0,0,1,6.78-1.67,4.32,4.32,0,0,1,1.74.25,1.52,1.52,0,0,1,.71,1.49c0,.62-.18.94-.53.94l-.33-.06a7.43,7.43,0,0,0-1.72-.19,12.11,12.11,0,0,0-5.73,1.55c.13,2.16.26,4,.37,5.53a35.44,35.44,0,0,0,3.88-.73l3.85-.89a1,1,0,0,1,.69.63,2.23,2.23,0,0,1,.23,1c0,.61-.17.92-.51.92" style="fill:#508fcc"/><path d="M229.89,131.87c-1,0-1.5-1-1.5-2.83v-1.57c0-1.77,0-3.43-.13-4.91,0-.3-.1-1-.25-2.16a19.56,19.56,0,0,1-.18-2.14c0-.63.37-1,1.09-.92a18.61,18.61,0,0,1,6.83-1.66,4.49,4.49,0,0,1,1.89.28,1.85,1.85,0,0,1,.9,1.8c0,1.11-.54,1.28-.87,1.28a2.66,2.66,0,0,1-.4-.07,7.45,7.45,0,0,0-1.65-.18,11.77,11.77,0,0,0-5.38,1.41c.12,1.9.23,3.54.33,5,1-.14,2.14-.36,3.5-.68l3.91-.91h.07a1.3,1.3,0,0,1,.94.83,2.55,2.55,0,0,1,.26,1.11c0,1.1-.53,1.26-.85,1.26a5.44,5.44,0,0,1-.55,0,3.26,3.26,0,0,0-.47,0,18.2,18.2,0,0,0-6.58,1.45c.07,1.07.16,2,.25,2.84v.12l-.07.1a1.29,1.29,0,0,1-1.1.68M228.76,118c-.21,0-.25,0-.25.25a18.37,18.37,0,0,0,.18,2c.15,1.17.24,1.89.25,2.22.09,1.49.13,3.15.13,4.94V129c0,1,.14,2.14.82,2.14a.53.53,0,0,0,.46-.27c-.09-.85-.17-1.86-.24-3l0-.24.23-.09a19.2,19.2,0,0,1,7.06-1.6,5.49,5.49,0,0,1,.57.05,3.54,3.54,0,0,0,.45,0c.16,0,.17-.48.17-.58a1.84,1.84,0,0,0-.2-.82c-.14-.31-.29-.4-.38-.43l-3.77.87a36.72,36.72,0,0,1-3.92.74l-.36,0,0-.35c-.11-1.54-.24-3.38-.38-5.54v-.21l.19-.11a12.57,12.57,0,0,1,5.9-1.59,8,8,0,0,1,1.79.2l.27,0c.16,0,.18-.45.18-.59a1.23,1.23,0,0,0-.53-1.19,3.94,3.94,0,0,0-1.58-.2A18.18,18.18,0,0,0,229.1,118l-.08,0h-.1l-.16,0" style="fill:#508fcc"/><path d="M254.82,121.81a10.19,10.19,0,0,1-.8,3.9,10.4,10.4,0,0,1-2.21,3.35c-1.75,1.77-3.51,2.65-5.26,2.65a5.56,5.56,0,0,1-4.5-2.65,8.49,8.49,0,0,1-1.8-5.1,7,7,0,0,1,2.32-4.87,13.59,13.59,0,0,1,3.34-2.54,8.34,8.34,0,0,1,4-1.22,4.27,4.27,0,0,1,3.7,2.19,7.69,7.69,0,0,1,1.23,4.29M249.74,118a7.08,7.08,0,0,0-3.29,1,11.12,11.12,0,0,0-3.12,2.51,4.88,4.88,0,0,0-1.38,3.1,5.64,5.64,0,0,0,1.42,3.53A4.25,4.25,0,0,0,246.6,130q2.51,0,5-3.2a7.13,7.13,0,0,0,1.07-2.08,7.28,7.28,0,0,0,.42-2.33,5.3,5.3,0,0,0-.82-3,2.89,2.89,0,0,0-2.56-1.45" style="fill:#508fcc"/><path d="M246.55,132.05a5.91,5.91,0,0,1-4.78-2.79,8.88,8.88,0,0,1-1.86-5.3,7.4,7.4,0,0,1,2.41-5.11,14.1,14.1,0,0,1,3.43-2.6c3.46-1.93,6.35-1.66,8.13,1.08a8.09,8.09,0,0,1,1.28,4.48,10.5,10.5,0,0,1-.83,4,10.77,10.77,0,0,1-2.27,3.46c-1.82,1.83-3.67,2.75-5.51,2.75m3.34-16.38a8,8,0,0,0-3.81,1.18,13.22,13.22,0,0,0-3.26,2.47,6.78,6.78,0,0,0-2.23,4.64,8.18,8.18,0,0,0,1.73,4.9c2.53,3.42,6,3.26,9.25,0a10,10,0,0,0,2.13-3.24,9.72,9.72,0,0,0,.78-3.77,7.4,7.4,0,0,0-1.18-4.11,3.92,3.92,0,0,0-3.41-2m-3.29,14.65a4.54,4.54,0,0,1-3.49-2,6,6,0,0,1-1.5-3.74,5.24,5.24,0,0,1,1.46-3.32,11.34,11.34,0,0,1,3.22-2.58c2.84-1.57,5-1.42,6.3.54a5.64,5.64,0,0,1,.87,3.15,7.42,7.42,0,0,1-.44,2.44A7.57,7.57,0,0,1,251.9,127c-1.75,2.21-3.53,3.33-5.3,3.33m3.14-12a6.78,6.78,0,0,0-3.12,1,11,11,0,0,0-3,2.43,4.6,4.6,0,0,0-1.3,2.88,5.41,5.41,0,0,0,1.35,3.32,3.93,3.93,0,0,0,3,1.74c1.55,0,3.15-1,4.76-3.07a7.56,7.56,0,0,0,1.42-4.2,5,5,0,0,0-.77-2.78,2.54,2.54,0,0,0-2.27-1.3" style="fill:#508fcc"/><path d="M262.57,125.61q1,2.17,3.23,6.59c-.08.71-.42,1.06-1,1.06s-.89-.39-1.24-1.19A28.07,28.07,0,0,0,262,129c-.89-1.5-1.61-2.25-2.15-2.25s-.59.47-.59,1.4c0,.43,0,.93.09,1.52-.32.94-.69,1.42-1.1,1.42s-.82-.87-.82-2.62c0-.3,0-.65,0-1.06s0-.64,0-.69c0-1.75-.05-3.37-.17-4.88,0-.31-.11-1-.26-2.17a17.91,17.91,0,0,1-.18-2.11c0-.47.29-.66.89-.56a12.78,12.78,0,0,1,4.2-.87,5.53,5.53,0,0,1,3.26,1,3.31,3.31,0,0,1,1.53,2.86,5.25,5.25,0,0,1-1.29,3.38,9.11,9.11,0,0,1-2.9,2.26m-.22-7.33a17.12,17.12,0,0,0-3.77.56q.12,2.1.41,6.28a7.66,7.66,0,0,0,3.66-1.7c1.53-1.25,2.29-2.37,2.29-3.36a1.5,1.5,0,0,0-.87-1.4,3.67,3.67,0,0,0-1.72-.38" style="fill:#508fcc"/><path d="M264.8,133.61c-.62,0-1.14-.47-1.55-1.4a29.41,29.41,0,0,0-1.53-3c-1.12-1.87-1.67-2.07-1.86-2.07s-.25.33-.25,1a14.51,14.51,0,0,0,.09,1.48v.08l0,.07c-.38,1.11-.84,1.65-1.42,1.65-1,0-1.17-1.69-1.17-3q0-.45,0-1.08c0-.4,0-.62,0-.67,0-1.73-.06-3.36-.17-4.85,0-.31-.11-1-.26-2.15a19.33,19.33,0,0,1-.19-2.15c0-.66.42-1,1.21-.92,3.38-1.21,5.81-1.15,7.68.17A3.66,3.66,0,0,1,267.1,120a5.55,5.55,0,0,1-1.37,3.59,9,9,0,0,1-2.72,2.2c.65,1.44,1.69,3.55,3.1,6.28l.05.1,0,.1c-.14,1.19-.9,1.37-1.34,1.37m-4.94-7.19c.68,0,1.46.77,2.44,2.41a29.76,29.76,0,0,1,1.58,3.1c.19.45.51,1,.92,1s.55-.08.65-.66c-1.49-2.88-2.56-5.08-3.19-6.52l-.13-.29.29-.15a8.74,8.74,0,0,0,2.78-2.17,4.89,4.89,0,0,0,1.22-3.16,3,3,0,0,0-1.39-2.58c-1.7-1.2-3.95-1.21-7.14-.06l-.09,0-.08,0-.23,0c-.25,0-.27.07-.27.25a17.43,17.43,0,0,0,.18,2.06c.15,1.14.24,1.87.27,2.18.11,1.51.16,3.16.16,4.91,0,0,0,.28,0,.7s0,.76,0,1c0,2.25.46,2.28.48,2.28s.39-.09.75-1.12a14.19,14.19,0,0,1-.09-1.48c0-1.15.32-1.74.94-1.74m-1.19-.91,0-.37q-.28-4.19-.42-6.27v-.29l.28-.07a17.23,17.23,0,0,1,3.85-.57,4,4,0,0,1,1.88.42,1.85,1.85,0,0,1,1.06,1.7c0,1.11-.8,2.3-2.43,3.63a8,8,0,0,1-3.82,1.77Zm.27-6.4c.08,1.32.2,3.19.36,5.6a7.31,7.31,0,0,0,3.13-1.55c1.44-1.18,2.17-2.22,2.17-3.1a1.16,1.16,0,0,0-.69-1.1c-1-.53-2.6-.4-5,.15" style="fill:#508fcc"/><path d="M134.87,151.37q0,.54-.51.54c-.2,0-.54,0-1-.08a9.93,9.93,0,0,0-1.12-.09,16.24,16.24,0,0,0-5.61,1,1,1,0,0,1-.78.47c-.79,0-1.18-.84-1.18-2.51,0-.23,0-.53,0-.89s0-.59,0-.68c0-1.79-.06-3.43-.17-4.91,0-.45-.12-1.44-.3-3-.09-.8-.13-1.23-.13-1.31,0-.37.27-.56.82-.58a18.48,18.48,0,0,1,6.76-1.66,4,4,0,0,1,1.72.26,1.48,1.48,0,0,1,.73,1.48c0,.62-.18.93-.52.93l-.34,0a7.55,7.55,0,0,0-1.74-.19,11.77,11.77,0,0,0-5.21,1.31c0,1.32.1,3,.13,5.17,1-.14,2.24-.38,3.74-.73l3.73-.86a1,1,0,0,1,.7.64,2.07,2.07,0,0,1,.22.95c0,.62-.19.94-.56.94a.63.63,0,0,1-.28-.08h-.43a18.32,18.32,0,0,0-7.1,1.49v.55a9.49,9.49,0,0,0,0,1,22.2,22.2,0,0,1,5-.58,15.65,15.65,0,0,1,2.41.15,1.08,1.08,0,0,1,.94,1.23" style="fill:#508fcc"/><path d="M125.83,153.6c-1,0-1.52-1-1.52-2.85,0-.24,0-.54,0-.91s0-.57,0-.66c0-1.77-.06-3.42-.17-4.88,0-.45-.13-1.44-.3-3-.13-1.22-.13-1.3-.13-1.35,0-.26.11-.87,1.09-.91a18.54,18.54,0,0,1,6.83-1.67,4.22,4.22,0,0,1,1.88.3,1.8,1.8,0,0,1,.91,1.78c0,1.11-.54,1.27-.86,1.27a2.18,2.18,0,0,1-.41-.06,7.5,7.5,0,0,0-1.67-.18,11.37,11.37,0,0,0-4.86,1.18c0,1.21.08,2.73.12,4.57.91-.14,2-.37,3.32-.67,3.17-.74,3.66-.85,3.75-.86H134a1.33,1.33,0,0,1,.95.83,2.49,2.49,0,0,1,.25,1.09c0,1.11-.56,1.28-.9,1.28a.94.94,0,0,1-.36-.08h-.58a18.14,18.14,0,0,0-6.53,1.39v.31c0,.21,0,.41,0,.59a22.36,22.36,0,0,1,4.69-.51,15,15,0,0,1,2.47.17,1.41,1.41,0,0,1,1.22,1.56.8.8,0,0,1-.85.88c-.21,0-.56,0-1.06-.08a9.38,9.38,0,0,0-1.08-.09,15.91,15.91,0,0,0-5.4,1,1.29,1.29,0,0,1-1,.52m5.86-15.51a18,18,0,0,0-6.63,1.64l-.12,0c-.49,0-.49.16-.49.23s0,.23.13,1.27c.18,1.56.27,2.53.3,3,.11,1.48.17,3.14.17,4.93q0,.13,0,.69c0,.36,0,.65,0,.88,0,1,.15,2.16.84,2.16.06,0,.26,0,.51-.33l.06-.08.09,0a16.65,16.65,0,0,1,5.73-1.07,10.68,10.68,0,0,1,1.16.09c.47,0,.8.08,1,.08s.17,0,.17-.2c0-.68-.33-.83-.65-.89a15,15,0,0,0-2.36-.15,22.15,22.15,0,0,0-4.93.57l-.37.08,0-.38a10,10,0,0,1,0-1v-.78l.21-.08a19,19,0,0,1,7-1.52l.81,0c.27.13.35-.07.35-.56a1.74,1.74,0,0,0-.19-.8c-.15-.32-.3-.41-.39-.44l-3.65.85c-1.5.35-2.77.59-3.77.73l-.38.05v-.38c0-2.13-.08-3.85-.13-5.17v-.22l.2-.1a12.13,12.13,0,0,1,5.36-1.34,8.19,8.19,0,0,1,1.82.19l.27.05c.15,0,.17-.45.17-.59,0-.91-.41-1.1-.54-1.17a3.45,3.45,0,0,0-1.57-.23" style="fill:#508fcc"/><path d="M145.93,138.48a4.94,4.94,0,0,1-.4,1.42c-.06.17-.42,1.29-1.08,3.34-.85,2.64-1.54,4.88-2.09,6.7s-1,2.74-1.35,2.74-.86-1.4-1.44-4.19c-.41-2-1-4.36-1.79-7.13-.21-.68-.41-1.35-.61-2a9.39,9.39,0,0,1-.43-1.91c0-.56.33-.84,1-.84s1.13.55,1.36,1.63c.19.87.4,2.08.65,3.62.28,1.72.48,2.93.62,3.63.31,1.57.6,2.35.88,2.35s.61-.77,1-2.32c.18-.66.74-2.93,1.7-6.81.53-.63,1-.94,1.35-.94s.6.24.6.73" style="fill:#508fcc"/><path d="M141,153c-.45,0-.92-.34-1.77-4.46-.41-2-1-4.35-1.79-7.11-.21-.66-.41-1.34-.61-2a8.64,8.64,0,0,1-.45-2c0-.35.14-1.18,1.36-1.18.59,0,1.37.33,1.69,1.9.19.87.41,2.1.66,3.64.27,1.71.48,2.92.61,3.61a8.18,8.18,0,0,0,.56,2,7.83,7.83,0,0,0,.68-2c.18-.66.75-2.95,1.7-6.82l.07-.13c.6-.71,1.12-1.06,1.61-1.06s.94.4.94,1.07a4.87,4.87,0,0,1-.42,1.54c-.06.17-.42,1.28-1.07,3.33-.85,2.62-1.55,4.88-2.09,6.69-.75,2.47-1.21,3-1.68,3m-3.26-16.08c-.62,0-.67.24-.67.49a8.62,8.62,0,0,0,.41,1.82c.2.66.41,1.33.62,2,.78,2.79,1.39,5.19,1.8,7.17.6,2.91,1,3.67,1.12,3.87a7.33,7.33,0,0,0,1-2.45c.55-1.82,1.25-4.07,2.1-6.7.66-2.06,1-3.18,1.08-3.35a4.38,4.38,0,0,0,.37-1.31c0-.39-.13-.39-.25-.39s-.47.1-1,.76c-1,3.82-1.51,6.09-1.69,6.74-.57,2.15-.93,2.57-1.35,2.57s-.78-.43-1.22-2.63c-.13-.7-.34-1.92-.61-3.63-.25-1.53-.47-2.75-.66-3.61-.28-1.35-.84-1.35-1-1.35" style="fill:#508fcc"/><path d="M158.48,151.37q0,.54-.51.54c-.2,0-.54,0-1-.08a9.93,9.93,0,0,0-1.12-.09,16.2,16.2,0,0,0-5.61,1,1,1,0,0,1-.78.47c-.79,0-1.18-.84-1.18-2.51,0-.23,0-.53,0-.89s0-.59,0-.68c0-1.79-.06-3.43-.17-4.91q0-.68-.3-3c-.09-.8-.13-1.23-.13-1.31,0-.37.27-.56.82-.58a18.43,18.43,0,0,1,6.76-1.66A4,4,0,0,1,157,138a1.48,1.48,0,0,1,.73,1.48c0,.62-.17.93-.52.93l-.34,0a7.55,7.55,0,0,0-1.74-.19,11.77,11.77,0,0,0-5.21,1.31c.05,1.32.09,3,.13,5.17,1-.14,2.24-.38,3.74-.73l3.73-.86a1,1,0,0,1,.7.64,2.07,2.07,0,0,1,.22.95c0,.62-.19.94-.56.94a.63.63,0,0,1-.28-.08h-.43a18.32,18.32,0,0,0-7.1,1.49v.55a9.49,9.49,0,0,0,0,1,22.2,22.2,0,0,1,5-.58,15.65,15.65,0,0,1,2.41.15,1.08,1.08,0,0,1,.94,1.23" style="fill:#508fcc"/><path d="M149.44,153.6c-1,0-1.52-1-1.52-2.85,0-.24,0-.54,0-.91s0-.57,0-.66c0-1.77-.05-3.42-.16-4.88,0-.45-.13-1.44-.3-3-.13-1.22-.13-1.3-.13-1.35,0-.26.11-.87,1.09-.91a18.54,18.54,0,0,1,6.83-1.67,4.22,4.22,0,0,1,1.88.3,1.8,1.8,0,0,1,.91,1.78c0,1.11-.54,1.27-.86,1.27a2.18,2.18,0,0,1-.41-.06,7.56,7.56,0,0,0-1.67-.18,11.37,11.37,0,0,0-4.86,1.18c0,1.21.08,2.73.12,4.57.91-.14,2-.37,3.32-.67,3.17-.74,3.66-.85,3.75-.86h.12a1.33,1.33,0,0,1,1,.83,2.49,2.49,0,0,1,.25,1.09c0,1.11-.56,1.28-.9,1.28a.94.94,0,0,1-.36-.08H157a18.14,18.14,0,0,0-6.53,1.39v.31c0,.21,0,.41,0,.59a22.36,22.36,0,0,1,4.69-.51,15,15,0,0,1,2.47.17,1.41,1.41,0,0,1,1.22,1.56.8.8,0,0,1-.85.88c-.21,0-.56,0-1.06-.08a9.38,9.38,0,0,0-1.08-.09,15.91,15.91,0,0,0-5.4,1,1.29,1.29,0,0,1-1,.52m5.86-15.51a18,18,0,0,0-6.63,1.64l-.12,0c-.49,0-.49.16-.49.23s0,.23.13,1.27c.18,1.56.27,2.53.3,3,.11,1.48.17,3.14.17,4.93q0,.13,0,.69c0,.36,0,.65,0,.88,0,1,.15,2.16.84,2.16.06,0,.26,0,.51-.33l.06-.08.09,0a16.65,16.65,0,0,1,5.73-1.07,10.68,10.68,0,0,1,1.16.09c.47,0,.8.08,1,.08s.17,0,.17-.2c0-.68-.33-.83-.65-.89a15,15,0,0,0-2.36-.15,22.15,22.15,0,0,0-4.93.57l-.38.08,0-.38a10,10,0,0,1,0-1v-.78l.21-.08a19,19,0,0,1,7-1.52l.81,0c.27.13.35-.07.35-.56a1.74,1.74,0,0,0-.19-.8c-.15-.32-.3-.41-.39-.44l-3.65.85c-1.5.35-2.77.59-3.77.73l-.38.05v-.38c0-2.13-.08-3.85-.13-5.17v-.22l.2-.1a12.13,12.13,0,0,1,5.36-1.34A8.19,8.19,0,0,1,157,140l.27.05c.15,0,.17-.45.17-.59,0-.91-.41-1.1-.54-1.17a3.45,3.45,0,0,0-1.57-.23" style="fill:#508fcc"/><path d="M165.82,147.47q.94,2.17,3.23,6.59c-.09.71-.42,1.06-1,1.06s-.88-.39-1.23-1.19a31.28,31.28,0,0,0-1.55-3.07c-.9-1.49-1.61-2.24-2.15-2.24s-.6.47-.6,1.4a13,13,0,0,0,.1,1.52c-.33.94-.7,1.42-1.11,1.42s-.82-.87-.82-2.62c0-.3,0-.65,0-1.06s0-.64,0-.69c0-1.75-.06-3.37-.17-4.88,0-.31-.11-1-.26-2.17a16.36,16.36,0,0,1-.19-2.11c0-.47.3-.66.9-.56a12.83,12.83,0,0,1,4.2-.88,5.48,5.48,0,0,1,3.25,1,3.31,3.31,0,0,1,1.53,2.85,5.21,5.21,0,0,1-1.29,3.38,9,9,0,0,1-2.89,2.27m-.23-7.33a17.28,17.28,0,0,0-3.77.56q.13,2.1.41,6.28a7.57,7.57,0,0,0,3.66-1.7c1.54-1.25,2.3-2.37,2.3-3.36a1.49,1.49,0,0,0-.88-1.4,3.61,3.61,0,0,0-1.72-.38" style="fill:#508fcc"/><path d="M168,155.47c-.62,0-1.14-.48-1.54-1.41a28.24,28.24,0,0,0-1.54-3c-1.12-1.87-1.67-2.07-1.85-2.07s-.26.33-.26,1.05c0,.41,0,.91.1,1.48v.08l0,.07c-.38,1.11-.85,1.65-1.43,1.65-1,0-1.16-1.69-1.16-3q0-.45,0-1.08c0-.4,0-.63,0-.67,0-1.73-.06-3.36-.17-4.85,0-.31-.11-1-.26-2.15a17.13,17.13,0,0,1-.19-2.16c0-.65.42-1,1.2-.91,3.39-1.21,5.82-1.14,7.69.17a3.64,3.64,0,0,1,1.67,3.13,5.6,5.6,0,0,1-1.36,3.6,9.28,9.28,0,0,1-2.72,2.2c.64,1.44,1.68,3.55,3.09,6.28l.05.1v.1c-.15,1.19-.91,1.37-1.35,1.37m-4.93-7.19c.68,0,1.45.77,2.44,2.41a29.78,29.78,0,0,1,1.57,3.1c.2.45.52,1,.92,1s.56-.08.66-.66c-1.49-2.89-2.57-5.08-3.19-6.52l-.13-.29.28-.15a8.78,8.78,0,0,0,2.79-2.17,4.94,4.94,0,0,0,1.21-3.17,3,3,0,0,0-1.38-2.57c-1.7-1.2-4-1.21-7.14-.06l-.09,0-.09,0-.23,0c-.24,0-.27.07-.27.24a18.08,18.08,0,0,0,.19,2.07c.15,1.14.24,1.87.26,2.18.11,1.51.17,3.16.17,4.91,0,0,0,.28,0,.7s0,.76,0,1.05c0,2.25.46,2.28.48,2.28s.39-.09.76-1.12a14.35,14.35,0,0,1-.09-1.48c0-1.15.32-1.74.94-1.74m-1.19-.91,0-.37c-.19-2.79-.32-4.88-.41-6.27l0-.29.28-.07a17.31,17.31,0,0,1,3.85-.57,4,4,0,0,1,1.88.41,1.85,1.85,0,0,1,1.06,1.71c0,1.11-.79,2.3-2.42,3.62a8,8,0,0,1-3.83,1.78Zm.26-6.4c.08,1.32.21,3.19.37,5.6a7.33,7.33,0,0,0,3.13-1.56c1.44-1.17,2.17-2.21,2.17-3.09a1.15,1.15,0,0,0-.7-1.1c-1-.54-2.59-.4-5,.15" style="fill:#508fcc"/><path d="M183.12,138.48a3.5,3.5,0,0,1-.32,1.31c-.65,1.41-1.59,3.52-2.82,6.35-.63,1.51-1.19,3-1.7,4.59-.13.53-.36,1.29-.71,2.28a.72.72,0,0,1-.66.47,1.15,1.15,0,0,1-.78-.35,1,1,0,0,1-.37-.75,2.48,2.48,0,0,1,.31-.84c.06-.13.41-1.06,1-2.79-1.88-1.5-3.27-3.91-4.18-7.21-.08-.38-.22-1-.41-1.71a5.66,5.66,0,0,1-.4-1.24c0-.47.29-.71.86-.71a1.57,1.57,0,0,1,1.14.62,2.87,2.87,0,0,1,.65,1.16c0,.33.07.84.14,1.51.36,3.14,1.32,5,2.89,5.72q1-2.87,3-8.54c.32-.87.77-1.31,1.33-1.31a.81.81,0,0,1,.73.51,1.94,1.94,0,0,1,.23.93" style="fill:#508fcc"/><path d="M176.91,153.82a1.5,1.5,0,0,1-1-.43,1.38,1.38,0,0,1-.49-1,2.55,2.55,0,0,1,.36-1c0-.06.2-.48.93-2.52a14,14,0,0,1-4.11-7.23c-.08-.4-.22-1-.42-1.72a4.62,4.62,0,0,1-.4-1.32c0-.31.12-1.05,1.2-1.05a1.91,1.91,0,0,1,1.39.73,3.15,3.15,0,0,1,.73,1.3c0,.4.08.9.14,1.57.32,2.75,1.11,4.52,2.36,5.26.67-1.92,1.65-4.66,2.92-8.17q.57-1.53,1.65-1.53a1.12,1.12,0,0,1,1,.69,2.26,2.26,0,0,1,.27,1.09,3.76,3.76,0,0,1-.35,1.44c-.65,1.41-1.59,3.54-2.82,6.36-.61,1.48-1.18,3-1.69,4.56-.12.51-.36,1.28-.71,2.29a1,1,0,0,1-1,.69M173,138.22c-.52,0-.52.22-.52.37a7.25,7.25,0,0,0,.37,1.11c.22.8.36,1.39.43,1.78a13.28,13.28,0,0,0,4.06,7l.19.15-.08.23c-.94,2.62-1,2.76-1,2.82a2.13,2.13,0,0,0-.28.69.67.67,0,0,0,.26.5.85.85,0,0,0,.55.26c.11,0,.23,0,.35-.28.33-.94.56-1.7.68-2.2.52-1.59,1.1-3.14,1.72-4.65,1.23-2.82,2.18-5,2.83-6.36a3.28,3.28,0,0,0,.28-1.17,1.72,1.72,0,0,0-.18-.78c-.15-.28-.31-.32-.43-.32-.4,0-.74.37-1,1.09-1.35,3.73-2.37,6.6-3,8.53l-.12.34-.33-.14c-1.69-.72-2.73-2.74-3.1-6-.07-.68-.11-1.19-.14-1.53a2.59,2.59,0,0,0-.56-1,1.26,1.26,0,0,0-.89-.51" style="fill:#508fcc"/><path d="M203.18,139.23q0,.32-.51.78c-.2.23-.5.56-.91,1-.12.13-1.65,1.74-4.62,4.84a20,20,0,0,1,5.12,5.94,1.27,1.27,0,0,1,.17.58,1.06,1.06,0,0,1-.31.68.87.87,0,0,1-.61.37c-.17,0-.36-.19-.56-.55a15.55,15.55,0,0,0-5.32-5.39c-.34.36-.65.71-.95,1.06,0,1.44.11,2.65.2,3.61a.92.92,0,0,1-.78.48c-.79,0-1.17-.56-1.16-1.68v-2a67.58,67.58,0,0,0-.45-8c-.12-1.1-.18-1.62-.18-1.55,0-.39.24-.58.72-.58a1.7,1.7,0,0,1,.89.22.83.83,0,0,1,.46.73v.71c0,.34,0,.78.05,1.33s.07,1.09.08,1.29l.09,2.85a60.49,60.49,0,0,0,6.5-7.08c.14-.2.36-.47.66-.84a.49.49,0,0,1,.35-.16.93.93,0,0,1,.72.49,1.63,1.63,0,0,1,.35.89" style="fill:#508fcc"/><path d="M201.51,153.75c-.41,0-.69-.41-.86-.72a15,15,0,0,0-5-5.12l-.66.74c0,1.37.11,2.53.2,3.45v.12l-.06.1a1.26,1.26,0,0,1-1.07.64,1.37,1.37,0,0,1-1-.38,2.22,2.22,0,0,1-.49-1.65v-2a67,67,0,0,0-.45-8q-.15-1.41-.18-1.53l.34-.06H192V139H192a1,1,0,0,1,1-.58,2,2,0,0,1,1.06.27,1.13,1.13,0,0,1,.63,1v.71c0,.33,0,.77.05,1.3l.08,1.29.07,2.12a60.9,60.9,0,0,0,5.91-6.53c.13-.18.36-.47.66-.84a.87.87,0,0,1,.62-.3,1.25,1.25,0,0,1,1,.65,1.92,1.92,0,0,1,.41,1.08,1.49,1.49,0,0,1-.62,1c-.17.21-.48.54-.9,1-.1.12-1.53,1.61-4.36,4.57a20.23,20.23,0,0,1,4.92,5.81,1.58,1.58,0,0,1,.21.74,1.4,1.4,0,0,1-.39.9,1.16,1.16,0,0,1-.87.49M195.57,147l.24.16a15.9,15.9,0,0,1,5.44,5.51c.15.28.25.36.28.37a.58.58,0,0,0,.33-.24.79.79,0,0,0,.23-.46,1,1,0,0,0-.13-.42,19.88,19.88,0,0,0-5-5.84l-.29-.23.25-.27c3-3.08,4.5-4.71,4.61-4.83l.92-1c.4-.38.41-.55.41-.56a1.27,1.27,0,0,0-.28-.69c-.11-.16-.38-.46-.55-.28s-.48.59-.62.79a60.65,60.65,0,0,1-6.55,7.13l-.54.52-.2-4.89c0-.56-.05-1-.05-1.35v-.71a.47.47,0,0,0-.29-.43,1.4,1.4,0,0,0-.72-.18c-.38,0-.38.12-.38.24h0c.06.26.11.71.2,1.51a68.28,68.28,0,0,1,.45,8.05v2a1.76,1.76,0,0,0,.29,1.16.74.74,0,0,0,.53.18.54.54,0,0,0,.43-.24c-.09-.94-.16-2.12-.19-3.5v-.13l.09-.1c.3-.36.62-.71,1-1.08Z" style="fill:#508fcc"/><path d="M207.32,151.93a.94.94,0,0,1-.8.5c-.79,0-1.18-.82-1.18-2.48,0-.24,0-.53,0-.88s0-.57,0-.67a68.17,68.17,0,0,0-.41-7.64c-.13-1.13-.19-1.66-.19-1.59,0-.4.29-.6.85-.6a1.31,1.31,0,0,1,.82.28.82.82,0,0,1,.37.68v.58c0,.26,0,.6.05,1s.06.87.06,1q0,.81.15,4.89c0,2,.12,3.63.24,4.9" style="fill:#508fcc"/><path d="M206.52,152.78c-1,0-1.52-1-1.52-2.83,0-.24,0-.54,0-.89s0-.56,0-.66a67.31,67.31,0,0,0-.41-7.6c-.11-1-.16-1.48-.18-1.56l.33-.07h-.34v-.34h.06c.11-.29.39-.6,1.13-.6a1.73,1.73,0,0,1,1,.34,1.16,1.16,0,0,1,.51,1v.58c0,.25,0,.58.05,1,0,.56.06.9.06,1,0,.52.08,2.16.15,4.89,0,2,.12,3.61.24,4.87V152l-.06.1a1.32,1.32,0,0,1-1.09.66m-1.41-13.61c.06.27.11.73.2,1.55a68.9,68.9,0,0,1,.41,7.68c0,.1,0,.33,0,.68s0,.64,0,.87c0,1,.15,2.14.84,2.14a.55.55,0,0,0,.45-.26c-.12-1.25-.2-2.86-.23-4.79-.08-2.72-.13-4.35-.15-4.88,0-.15,0-.48-.06-1s-.05-.79-.05-1v-.58a.49.49,0,0,0-.23-.41,1,1,0,0,0-.62-.2c-.51,0-.51.16-.51.25Z" style="fill:#508fcc"/><path d="M221.5,141.23q0,2.45-2.91,5.84a26.83,26.83,0,0,1-7.08,5.61,1.6,1.6,0,0,1-.6.24c-.74,0-1.12-.56-1.14-1.66q0-2.2-.09-6.63c-.08-1.2-.18-2.34-.31-3.41s-.2-1.59-.2-1.52c0-.39.24-.58.71-.58a1.72,1.72,0,0,1,.34,0,24,24,0,0,1,6.72-1.29,5.79,5.79,0,0,1,3.06.77,2.89,2.89,0,0,1,1.5,2.6m-4.41-1.18a21.72,21.72,0,0,0-5.57,1c.07.77.1,1.55.1,2.33,0,.52,0,1.31-.08,2.36s-.07,1.84-.07,2.37c0,.73,0,1.43.07,2.09a13.79,13.79,0,0,0,4.51-2.86q3.6-3.19,3.6-5.36a1.73,1.73,0,0,0-.8-1.55,3.23,3.23,0,0,0-1.76-.43" style="fill:#508fcc"/><path d="M210.91,153.26c-.66,0-1.45-.35-1.48-2,0-1.46,0-3.69-.1-6.63-.07-1.18-.17-2.32-.3-3.37s-.18-1.41-.19-1.49l.33-.07h-.34v-.34h0a1,1,0,0,1,1-.58,1.66,1.66,0,0,1,.32,0,24.25,24.25,0,0,1,6.74-1.28,6.19,6.19,0,0,1,3.24.82,3.21,3.21,0,0,1,1.66,2.89c0,1.7-1,3.75-3,6.06a27.1,27.1,0,0,1-7.17,5.68,1.64,1.64,0,0,1-.77.29M209.5,139.7c.06.25.11.7.21,1.48.13,1.06.23,2.22.31,3.42.07,3,.1,5.19.09,6.66,0,1.31.58,1.32.79,1.32a2.25,2.25,0,0,0,.44-.2,26.47,26.47,0,0,0,7-5.53c1.89-2.19,2.84-4.08,2.84-5.62a2.55,2.55,0,0,0-1.33-2.31,5.58,5.58,0,0,0-2.89-.71,23.61,23.61,0,0,0-6.62,1.27l-.09,0-.1,0a.9.9,0,0,0-.25,0c-.37,0-.37.12-.37.24Zm1.74,11,0-.44c0-.66-.07-1.37-.07-2.11,0-.53,0-1.32.07-2.38s.08-1.83.08-2.35c0-.77,0-1.55-.1-2.31l0-.27.27-.08a22.29,22.29,0,0,1,5.66-1.06,3.6,3.6,0,0,1,1.94.48,2.07,2.07,0,0,1,1,1.84c0,1.56-1.21,3.4-3.72,5.62a14,14,0,0,1-4.62,2.92Zm.65-9.36c0,.69.07,1.39.07,2.08,0,.53,0,1.32-.08,2.38s-.07,1.83-.07,2.35,0,1.09,0,1.61a14.2,14.2,0,0,0,4-2.64c2.31-2,3.49-3.77,3.49-5.1a1.38,1.38,0,0,0-.65-1.26,2.89,2.89,0,0,0-1.57-.38,20.47,20.47,0,0,0-5.2,1" style="fill:#508fcc"/></g></g></svg>