<?xml version="1.0" encoding="UTF-8"?>
<svg width="381px" height="94px" viewBox="0 0 381 94" version="1.1" xmlns="http://www.w3.org/2000/svg" xmlns:xlink="http://www.w3.org/1999/xlink">
    <title>Penn State Health Care Partners</title>
    <defs>
        <polygon id="path-1" points="0 0 77.846 0 77.846 85.957 0 85.957"></polygon>
        <polygon id="path-3" points="-5.32907052e-15 0 365.711549 0 365.711549 85.574 -5.32907052e-15 85.574"></polygon>
    </defs>
    <g id="Page-1" stroke="none" stroke-width="1" fill="none" fill-rule="evenodd">
        <g id="Penn-State-Health-Care-Partners" transform="translate(0.000000, -0.000000)">
            <text id="Care-Partners" font-family="FrutigerLTStd-Light, Frutiger LT Std" font-size="28" font-weight="300" fill="#253968">
                <tspan x="90" y="65">Care Partners</tspan>
            </text>
            <g id="PSH">
                <g id="Group-3">
                    <mask id="mask-2" fill="white">
                        <use xlink:href="#path-1"></use>
                    </mask>
                    <g id="Clip-2"></g>
                    <path d="M38.894,85.957 C21.666,75.712 -0.06,60.822 -0.06,34.53 L-0.06,6.769 C7.887,3.763 20.165,0 38.892,0 C57.834,0 70.835,4.096 77.846,6.769 L77.846,34.53 C77.846,61.044 55.279,76.323 38.894,85.957" id="Fill-1" fill="#FFFFFE" mask="url(#mask-2)"></path>
                </g>
                <path d="M24.554,72.816 C29.152,76.405 34.077,79.58 38.895,82.459 C38.939,78.127 38.8,75.574 41.732,72.506 C42.919,71.264 44.142,70 45.247,68.855 C46.08,67.993 46.754,67.35 47.147,67.35 C47.428,67.35 47.553,67.498 47.553,67.874 C47.553,68.26 47.726,69.681 48.607,71.381 C49.702,73.495 51.321,73.767 51.839,73.886 C64.393,64.436 74.892,52.067 74.892,34.469 C74.892,24.807 74.892,8.822 74.892,8.822 C71.797,7.769 59.078,2.892 38.892,2.892 C18.707,2.892 5.988,7.769 2.893,8.822 C2.893,8.822 2.893,24.807 2.893,34.469 C2.893,42.204 4.921,48.928 8.262,54.839 C8.595,51.276 11.005,49.588 11.005,46.087 C11.005,43.644 10.314,42.102 10.314,40.058 C10.314,36.361 15.305,28.754 17.894,25.655 C17.969,25.565 18.138,25.348 18.346,25.348 C18.532,25.348 18.672,25.477 18.786,25.651 C19.049,26.055 19.163,26.268 19.444,26.268 C19.729,26.268 19.838,26.109 19.838,25.858 C19.838,25.213 19.093,24.139 19.093,19.937 C19.093,16.999 19.776,16.376 21.603,14.587 C21.937,14.261 22.959,13.279 23.934,13.279 C25.018,13.279 25.556,13.92 26.223,14.599 C27.353,15.748 28.928,17.782 29.182,18.104 C29.254,18.195 29.318,18.278 29.472,18.278 C29.994,18.278 30.43,18.12 32.698,18.12 C36.819,18.12 43.029,18.768 46.221,19.812 C47.864,20.35 48.207,20.721 48.642,20.721 C48.855,20.721 48.874,20.582 48.874,20.471 C48.874,20.263 48.441,19.929 48.441,19.646 C48.441,19.458 48.593,19.32 48.744,19.239 C51.124,17.961 53.157,16.994 55.016,16.994 C56.099,16.994 56.633,17.931 57.089,18.859 C57.445,19.581 57.826,20.552 57.826,21.548 C57.826,24.068 56.863,25.605 56.096,26.682 C56.463,27.06 56.983,27.631 57.301,28.01 C57.866,28.684 58.544,29.565 58.544,30.48 C58.544,30.876 58.351,31.497 58.241,31.989 C58.192,32.21 57.998,32.652 57.614,32.644 C57.268,32.638 57.178,32.259 57.165,31.925 C57.162,31.855 57.165,31.704 57.165,31.671 C57.165,30.945 56.964,29.961 56.29,29.271 C55.515,28.479 54.805,27.904 53.908,27.904 C53.855,27.904 53.664,27.903 53.601,27.903 C52.128,27.903 51.458,28.547 51.053,28.941 C50.611,29.372 50.268,29.948 50.268,30.724 C50.268,31.169 50.57,31.696 50.974,32.502 C51.212,32.978 51.823,34.112 52.156,34.696 C52.447,35.205 52.82,35.383 53.238,35.383 C54.263,35.383 55.158,35.241 55.158,34.933 C55.158,34.849 55.112,34.777 54.972,34.777 C54.913,34.777 54.771,34.795 54.644,34.795 C53.304,34.795 52.588,33.09 51.916,31.543 C52.428,31.044 53.008,30.532 54.059,30.532 C55.394,30.532 56.27,31.428 56.27,32.594 C56.27,33.173 56.091,33.657 55.987,33.874 C55.934,33.984 55.905,34.052 55.905,34.115 C55.905,34.297 56.136,34.334 56.501,34.418 C56.63,34.448 56.878,34.507 57.029,34.55 C57.421,34.664 57.838,35.003 58.014,35.476 C58.132,35.791 58.399,36.513 58.458,36.688 C58.679,37.348 59.035,38.308 59.035,39.461 C59.035,40.633 58.955,40.988 58.633,42.178 C58.221,43.7 58.039,44.279 57.972,45.115 C58.114,45.377 58.126,45.45 58.19,45.603 C58.42,46.087 58.72,46.972 58.72,47.93 C58.72,48.186 58.72,48.69 58.72,48.718 C58.72,50.245 58.111,51.432 57.452,52.321 C56.939,53.014 56.204,53.99 55.783,54.531 C55.509,54.858 55.141,55.095 54.73,55.095 C54.534,55.095 54.302,55.029 54.071,54.971 C53.815,54.907 53.269,54.769 53.036,54.71 C52.139,54.484 51.807,53.897 51.517,53.108 C51.474,52.99 51.338,52.654 51.296,52.548 C51.082,51.998 50.961,51.646 50.62,51.646 C50.365,51.646 50.122,51.812 49.868,52.193 C48.972,53.542 48.485,54.032 46.908,54.42 C46.356,54.556 45.237,54.789 44.611,54.928 C43.666,55.138 41.979,55.58 41.029,55.58 C40.827,55.58 40.614,55.568 40.397,55.544 C39.101,55.362 38.182,55.276 36.568,53.35 C34.35,50.702 34.579,50.329 34.446,46.753 C34.431,46.354 34.3,45.856 33.885,45.856 C33.513,45.856 33.352,46.615 33.216,47.69 C33.057,48.951 32.766,50.262 32.146,50.262 C31.711,50.262 31.42,50.195 30.752,49.978 C29.946,49.715 27.937,49.037 26.88,48.687 C25.442,48.212 24.065,47.835 23.511,46.561 C23.25,45.961 22.768,44.845 22.523,44.265 C22.351,43.857 22.225,43.644 21.957,43.644 C21.574,43.644 21.489,44.098 21.446,44.457 C21.398,44.863 21.295,45.799 21.245,46.383 C21.029,48.875 20.531,49.934 19.476,51.324 C18.993,51.96 18.534,52.609 17.999,53.318 C16.895,54.782 16.229,56.282 16.264,59.12 C16.266,59.305 16.253,60.362 16.264,60.849 C16.363,65.073 17.434,67.143 24.554,72.816 Z M50.055,59.873 C49.721,59.955 49.066,60.117 46.149,60.117 C41.729,60.117 40.979,59.032 40.979,58.17 C40.979,56.732 47.317,55.717 49.815,55.717 C52.207,55.717 53.264,56.486 53.264,57.071 C53.264,57.75 52.185,59.359 50.055,59.873 Z M41.497,32.569 C41.497,31.551 40.351,30.06 38.354,30.06 C36.578,30.06 35.221,31.4 34.866,32.448 C35.291,33.272 35.702,34.141 37.405,34.658 C37.631,34.726 37.856,34.732 37.856,34.924 C37.856,35.197 37.568,35.333 36.962,35.333 C35.031,35.333 33.883,34.545 33.374,33.878 C32.875,33.948 32.296,34.142 31.574,34.168 C30.984,34.189 30.714,33.795 30.714,33.268 C30.714,32.928 30.815,32.554 31.017,32.139 C31.129,31.909 31.248,31.671 31.335,31.502 C31.635,30.915 32.093,29.608 33.855,28.604 C34.06,28.487 34.593,28.165 34.866,28.004 C35.863,27.418 36.618,27.279 37.804,27.279 C37.895,27.279 38.554,27.279 38.674,27.279 C40.095,27.279 40.823,27.679 41.45,28.207 C42.724,29.278 43.424,29.861 43.424,30.657 C43.424,31.54 43.377,32.216 42.671,33.148 C42.065,33.943 41.177,34.472 40.604,34.472 C40.442,34.472 40.395,34.384 40.395,34.293 C40.395,34.172 40.529,34.112 40.667,34 C41.137,33.619 41.349,32.944 41.497,32.569 Z M23.712,26.872 C24.151,26.872 24.484,26.581 25.146,25.85 C26.626,24.213 28.056,23.994 28.056,23.295 C28.056,22.983 27.856,22.678 27.648,22.352 C26.07,19.887 25.396,18.555 24.456,16.766 C24.116,16.118 23.672,15.674 23.334,15.674 C22.788,15.674 22.212,16.311 21.879,16.857 C21.408,17.627 20.939,18.494 20.939,19.283 C20.939,20.475 21.232,22.651 21.727,24.044 C22.262,25.549 23.039,26.872 23.712,26.872 Z M52.33,23.63 C52.26,23.589 52.007,23.498 52.007,23.248 C52.007,22.959 52.216,22.661 52.64,22.093 C53.615,20.785 54.956,19.182 55.447,19.182 C55.687,19.182 55.836,19.347 56.132,19.908 C56.308,20.241 56.459,20.797 56.459,21.325 C56.459,23.064 55.859,24.285 54.93,25.666 C54.467,25.221 53.606,24.36 52.33,23.63 Z M50.612,50.006 C50.612,49.416 51.097,48.501 51.097,47.684 C51.097,46.712 49.905,46.403 48.98,46.275 C47.033,46.005 46.383,46.093 46.383,45.663 C46.383,45.366 46.645,45.056 46.999,44.546 C47.523,43.794 48.77,43.509 49.435,43.418 C50.309,43.298 51.278,43.181 52.439,43.181 C53.739,43.181 54.844,43.375 55.352,43.464 C56.546,43.671 56.732,44.171 56.732,44.731 C56.732,44.85 56.732,45.15 56.732,45.291 C56.732,45.855 56.269,46.145 55.436,46.327 C55.228,46.372 54.936,46.425 54.796,46.454 C54.192,46.579 53.445,46.699 53.18,47.462 C52.611,49.099 51.621,50.382 50.888,50.349 C50.754,50.343 50.612,50.241 50.612,50.006 L50.612,50.006 Z" id="Fill-4" fill="#253968"></path>
                <g id="Group-8" transform="translate(15.007451, 8.421000)">
                    <mask id="mask-4" fill="white">
                        <use xlink:href="#path-3"></use>
                    </mask>
                    <g id="Clip-6"></g>
                    <path d="M31.9505489,63.197 C32.0535489,62.079 32.5455489,60.214 32.5455489,59.453 C32.5455489,59.077 32.4205489,58.929 32.1395489,58.929 C31.7465489,58.929 31.0725489,59.572 30.2395489,60.434 C29.1345489,61.579 27.9115489,62.843 26.7245489,64.085 C23.7925489,67.153 23.9315489,69.706 23.8875489,74.038 C27.1475489,72.073 30.1275489,70.185 32.3345489,68.68 C32.0075489,66.875 31.7335489,65.58 31.9505489,63.197 Z M1.25654888,52.428 C1.24554888,51.941 1.25854888,50.884 1.25654888,50.699 C1.22154888,47.861 1.88754888,46.361 2.99154888,44.897 C3.52654888,44.188 3.98554888,43.539 4.46854888,42.903 C5.52354888,41.513 6.02154888,40.454 6.23754888,37.962 C6.28754888,37.378 6.39054888,36.442 6.43854888,36.036 C6.48154888,35.677 6.56654888,35.223 6.94954888,35.223 C7.21754888,35.223 7.34354888,35.436 7.51554888,35.844 C7.76054888,36.424 8.24254888,37.54 8.50354888,38.14 C9.05754888,39.414 10.4345489,39.791 11.8725489,40.266 C12.9295489,40.616 14.9385489,41.294 15.7445489,41.557 C16.4125489,41.774 16.7035489,41.841 17.1385489,41.841 C17.7585489,41.841 18.0495489,40.53 18.2085489,39.269 C18.3445489,38.194 18.5055489,37.435 18.8775489,37.435 C19.2925489,37.435 19.4235489,37.933 19.4385489,38.332 C19.5715489,41.908 19.3425489,42.281 21.5605489,44.929 C23.1745489,46.855 24.0935489,46.941 25.3895489,47.123 C24.9085489,46.979 24.2905489,46.423 24.2905489,45.253 C24.2905489,45.038 24.2905489,44.108 24.2905489,43.967 C24.2905489,43.324 24.3675489,42.67 24.6855489,41.93 C24.8355489,41.582 25.0115489,40.953 25.1765489,40.569 C25.4585489,39.913 25.3235489,39.747 25.3235489,39.285 C25.3235489,38.797 25.1625489,38.313 24.7775489,37.143 C24.5795489,36.543 24.3105489,35.668 24.0535489,34.95 C23.2495489,32.707 22.9245489,32.178 20.2415489,31.823 C19.3805489,31.709 15.6165489,31.175 14.8295489,31.064 C11.8195489,30.637 9.46254888,30.494 8.23554888,28.476 C6.76954888,26.068 6.91754888,23.13 5.50854888,23.13 C4.83954888,23.13 4.48554888,23.878 4.48554888,24.969 C4.48554888,26.115 4.91854888,27.97 4.91854888,31.196 C4.91854888,33.986 4.65754888,34.764 3.03154888,36.818 C2.61054888,37.351 2.04254888,38.135 1.67954888,38.591 C0.469548881,40.11 -0.0664511193,40.966 0.00654888065,42.735 C0.196548881,47.317 0.922548881,50.682 1.25654888,52.428 Z M33.5715489,33.032 C33.6905489,33.326 33.7885489,33.661 33.7885489,33.911 C33.7885489,34.473 33.6495489,34.645 33.3395489,34.976 C33.1545489,35.141 32.9485489,35.315 32.7605489,35.491 C32.4525489,35.652 32.1765489,35.859 31.9915489,36.125 C31.6375489,36.635 31.3755489,36.945 31.3755489,37.242 C31.3755489,37.335 31.4055489,37.404 31.4725489,37.457 C31.0425489,37.139 30.8705489,36.646 30.8705489,36.208 C30.8705489,35.816 30.9985489,35.609 30.9985489,35.24 C30.9985489,34.927 30.9105489,34.622 30.8575489,34.444 C30.2575489,32.435 29.2455489,30.044 28.6225489,28.419 C27.9875489,26.762 27.4885489,25.854 26.7705489,25.854 C26.3715489,25.854 26.0165489,26.05 25.5975489,26.051 C26.1705489,26.05 27.0575489,25.522 27.6635489,24.727 C28.3695489,23.795 28.4165489,23.119 28.4165489,22.236 C28.4165489,21.861 28.2615489,21.534 27.9645489,21.18 C28.8735489,22.107 29.4555489,23.286 30.0715489,24.592 C31.4205489,27.453 32.5905489,30.587 33.5715489,33.032 Z M43.0065489,27.055 L43.0065489,27.055 C43.1245489,27.37 43.3915489,28.092 43.4505489,28.267 C43.6715489,28.927 44.0275489,29.887 44.0275489,31.04 C44.0275489,32.212 43.9475489,32.567 43.6255489,33.757 C43.2135489,35.279 43.0315489,35.858 42.9645489,36.694 C42.8495489,36.457 40.6835489,32.72 40.5185489,32.416 C40.3535489,32.112 40.2145489,31.816 40.2145489,31.465 C40.2145489,31.083 40.3785489,30.854 40.8405489,30.563 C41.1175489,30.389 41.4765489,30.183 41.7195489,30.058 C42.8345489,29.487 43.1015489,28.781 43.1035489,28.026 C43.1035489,27.709 43.0575489,27.383 43.0065489,27.055 L43.0065489,27.055 Z" id="Fill-5" fill="#94B6D5" mask="url(#mask-4)"></path>
                    <path d="M322.716549,3.872 L319.989549,3.872 L319.989549,0.396 L327.486549,0.396 L327.486549,20.788 L329.531549,20.788 L329.531549,24.264 L320.773549,24.264 L320.773549,20.788 L322.716549,20.788 L322.716549,3.872 Z M272.156549,3.885 L270.009549,3.885 L270.009549,0.409 L279.279549,0.409 L279.279549,3.885 L277.132549,3.885 L277.132549,20.788 L279.279549,20.788 L279.279549,24.264 L270.009549,24.264 L270.009549,20.788 L272.156549,20.788 L272.156549,14.177 L262.342549,14.177 L262.342549,20.788 L264.489549,20.788 L264.489549,24.264 L255.219549,24.264 L255.219549,20.788 L257.366549,20.788 L257.366549,3.885 L255.219549,3.885 L255.219549,0.409 L264.489549,0.409 L264.489549,3.885 L262.342549,3.885 L262.342549,10.496 L272.156549,10.496 L272.156549,3.885 Z M311.005549,16.77 C307.120549,16.77 305.893549,17.587 305.893549,19.121 C305.893549,20.177 306.643549,21.268 308.517549,21.268 C310.426549,21.268 312.334549,19.771 312.334549,16.77 L311.005549,16.77 Z M312.253549,12.916 C312.253549,10.454 311.057549,9.508 308.649549,9.508 C307.111549,9.508 306.008549,9.906 305.692549,10.019 L305.692549,12.405 L301.825549,12.405 L301.825549,7.872 C302.463549,7.51 305.325549,6.032 308.589549,6.032 C313.554549,6.032 316.749549,8.051 316.749549,13.045 C316.749549,15.975 316.749549,20.788 316.749549,20.788 L318.591549,20.788 L318.591549,24.264 L312.821549,24.264 L312.681549,21.838 L312.613549,21.838 C312.258549,22.335 310.957549,24.673 306.937549,24.673 C302.915549,24.673 300.973549,22.288 300.973549,19.493 C300.973549,16.103 303.575549,13.77 310.111549,13.77 C310.395549,13.77 311.954549,13.77 312.253549,13.77 L312.253549,12.916 Z M333.358549,2.624 L338.129549,2.624 L338.129549,6.441 L342.900549,6.441 L342.900549,9.917 L338.129549,9.917 L338.129549,17.857 C338.129549,20.247 338.965549,20.993 340.942549,20.993 C341.682549,20.993 342.695549,20.795 343.067549,20.721 L343.067549,24.106 C342.676549,24.224 340.942549,24.673 339.141549,24.673 C335.631549,24.673 333.358549,22.786 333.358549,19.651 L333.358549,9.917 L330.939549,9.917 L330.939549,6.441 L333.358549,6.441 L333.358549,2.624 Z M346.865549,3.872 L344.138549,3.872 L344.138549,0.396 L351.539549,0.396 L351.539549,8.328 L351.613549,8.328 C352.274549,7.506 353.848549,6.032 356.768549,6.032 C361.292549,6.032 363.666549,9.219 363.666549,13.138 L363.666549,20.788 L365.711549,20.788 L365.711549,24.264 L356.952549,24.264 L356.952549,20.788 L358.895549,20.788 L358.895549,13.961 C358.895549,11.476 357.517549,10.121 355.252549,10.121 C353.209549,10.121 351.636549,11.269 351.636549,13.961 L351.636549,20.788 L353.681549,20.788 L353.681549,24.264 L344.922549,24.264 L344.922549,20.788 L346.865549,20.788 L346.865549,3.872 Z M293.594549,13.225 C293.594549,10.772 292.197549,9.374 289.982549,9.374 C287.801549,9.374 286.540549,10.805 286.335549,13.225 L293.594549,13.225 Z M286.211549,16.426 C286.347549,19.255 288.528549,20.993 291.868549,20.993 C294.808549,20.993 296.612549,20.18 297.389549,19.865 L297.389549,23.549 C296.663549,23.839 294.676549,24.673 290.812549,24.673 C283.927549,24.673 281.031549,20.379 281.031549,15.438 C281.031549,9.883 284.405549,6.032 289.994549,6.032 C296.128549,6.032 298.616549,10.667 298.616549,16.426 L286.211549,16.426 Z M176.327549,4.055 C175.964549,3.927 174.568549,3.476 173.290549,3.476 C170.515549,3.476 169.405549,4.982 169.405549,6.311 C169.405549,8.049 170.696549,8.854 172.185549,9.228 L174.553549,9.849 C177.887549,10.735 181.578549,12.151 181.578549,17.092 C181.578549,21.625 178.664549,24.673 172.222549,24.673 C169.729549,24.673 167.139549,24.4 164.095549,23.344 L164.095549,17.04 L168.377549,17.04 L168.377549,20.117 C169.058549,20.305 171.001549,20.788 172.642549,20.788 C175.172549,20.788 176.398549,19.733 176.398549,17.927 C176.398549,16.432 175.553549,15.351 172.510549,14.534 L170.473549,13.973 C165.811549,12.712 164.225549,10.469 164.225549,6.788 C164.225549,3.005 166.750549,0 173.160549,0 C175.912549,0 178.664549,0.477 180.607549,1.261 L180.607549,6.952 L176.327549,6.952 L176.327549,4.055 Z M207.193549,16.699 C203.308549,16.699 202.082549,17.516 202.082549,19.05 C202.082549,20.107 202.831549,21.197 204.706549,21.197 C206.614549,21.197 208.523549,19.7 208.523549,16.699 L207.193549,16.699 Z M208.591549,12.916 C208.591549,10.454 207.395549,9.508 204.986549,9.508 C203.449549,9.508 202.345549,9.906 202.030549,10.019 L202.030549,12.405 L198.162549,12.405 L198.162549,7.872 C198.801549,7.51 201.663549,6.032 204.927549,6.032 C209.891549,6.032 213.087549,8.051 213.087549,13.045 C213.087549,15.975 213.087549,20.788 213.087549,20.788 L214.929549,20.788 L214.929549,24.264 L209.158549,24.264 L209.019549,21.838 L208.950549,21.838 C208.596549,22.335 207.295549,24.673 203.274549,24.673 C199.253549,24.673 197.310549,22.288 197.310549,19.493 C197.310549,16.103 199.912549,13.77 206.449549,13.77 C206.733549,13.77 208.292549,13.77 208.591549,13.77 L208.591549,12.916 Z M185.935549,2.624 L190.706549,2.624 L190.706549,6.441 L195.477549,6.441 L195.477549,9.917 L190.706549,9.917 L190.706549,17.857 C190.706549,20.247 191.542549,20.993 193.519549,20.993 C194.259549,20.993 195.272549,20.795 195.644549,20.721 L195.644549,24.106 C195.253549,24.224 193.519549,24.673 191.718549,24.673 C188.208549,24.673 185.935549,22.786 185.935549,19.651 L185.935549,9.917 L183.516549,9.917 L183.516549,6.441 L185.935549,6.441 L185.935549,2.624 Z M218.087549,2.624 L222.858549,2.624 L222.858549,6.441 L227.629549,6.441 L227.629549,9.917 L222.858549,9.917 L222.858549,17.857 C222.858549,20.247 223.694549,20.993 225.671549,20.993 C226.411549,20.993 227.424549,20.795 227.795549,20.721 L227.795549,24.106 C227.404549,24.224 225.671549,24.673 223.870549,24.673 C220.360549,24.673 218.087549,22.786 218.087549,19.651 L218.087549,9.917 L215.667549,9.917 L215.667549,6.441 L218.087549,6.441 L218.087549,2.624 Z M142.022549,9.917 L139.705549,9.917 L139.705549,6.441 L146.251549,6.441 L146.381549,8.773 L146.449549,8.773 C146.765549,8.28 148.319549,6.032 151.926549,6.032 C156.450549,6.032 158.823549,9.22 158.823549,13.138 L158.823549,20.788 L160.868549,20.788 L160.868549,24.264 L152.110549,24.264 L152.110549,20.788 L154.052549,20.788 L154.052549,13.961 C154.052549,11.476 152.674549,10.121 150.410549,10.121 C148.366549,10.121 146.793549,11.269 146.793549,13.961 L146.793549,20.788 L148.838549,20.788 L148.838549,24.264 L140.079549,24.264 L140.079549,20.788 L142.022549,20.788 L142.022549,9.917 Z M118.785549,9.917 L116.468549,9.917 L116.468549,6.441 L123.014549,6.441 L123.144549,8.773 L123.212549,8.773 C123.528549,8.28 125.082549,6.032 128.689549,6.032 C133.213549,6.032 135.586549,9.22 135.586549,13.138 L135.586549,20.788 L137.631549,20.788 L137.631549,24.264 L128.873549,24.264 L128.873549,20.788 L130.815549,20.788 L130.815549,13.961 C130.815549,11.476 129.437549,10.121 127.173549,10.121 C125.129549,10.121 123.556549,11.269 123.556549,13.961 L123.556549,20.788 L125.601549,20.788 L125.601549,24.264 L116.842549,24.264 L116.842549,20.788 L118.785549,20.788 L118.785549,9.917 Z M241.281549,13.154 C241.281549,10.701 239.883549,9.303 237.668549,9.303 C235.487549,9.303 234.226549,10.735 234.022549,13.154 L241.281549,13.154 Z M234.056549,16.426 C234.192549,19.255 236.373549,20.993 239.713549,20.993 C242.653549,20.993 244.457549,20.18 245.234549,19.865 L245.234549,23.549 C244.508549,23.839 242.521549,24.673 238.656549,24.673 C231.772549,24.673 228.875549,20.379 228.875549,15.438 C228.875549,9.883 232.249549,6.032 237.839549,6.032 C243.973549,6.032 246.461549,10.667 246.461549,16.426 L234.056549,16.426 Z M109.183549,13.154 C109.183549,10.701 107.785549,9.303 105.570549,9.303 C103.389549,9.303 102.128549,10.735 101.924549,13.154 L109.183549,13.154 Z M101.958549,16.426 C102.094549,19.255 104.275549,20.993 107.615549,20.993 C110.555549,20.993 112.359549,20.18 113.136549,19.865 L113.136549,23.549 C112.410549,23.839 110.423549,24.673 106.559549,24.673 C99.6745489,24.673 96.7785489,20.379 96.7785489,15.438 C96.7785489,9.883 100.152549,6.032 105.741549,6.032 C111.875549,6.032 114.363549,10.667 114.363549,16.426 L101.958549,16.426 Z M86.5955489,11.587 C89.0835489,11.587 90.7075489,10.157 90.7075489,7.737 C90.7075489,5.541 89.2885489,3.885 86.5275489,3.885 L83.4825489,3.885 L83.4825489,11.587 L86.5955489,11.587 Z M78.5075489,3.885 L76.1555489,3.885 L76.1555489,0.409 L87.1085489,0.409 C92.8675489,0.409 95.8755489,3.433 95.8755489,7.737 C95.8755489,12.847 91.8455489,15.063 87.1085489,15.063 L83.4825489,15.063 L83.4825489,20.788 L85.8345489,20.788 L85.8345489,24.264 L76.1555489,24.264 L76.1555489,20.788 L78.5075489,20.788 L78.5075489,3.885 L78.5075489,3.885 Z" id="Fill-7" fill="#253968" mask="url(#mask-4)"></path>
                </g>
            </g>
        </g>
    </g>
</svg>