<?xml version="1.0" encoding="utf-8"?>
<!-- Generator: Adobe Illustrator 26.0.2, SVG Export Plug-In . SVG Version: 6.00 Build 0)  -->
<svg version="1.1" id="Layer_1" xmlns="http://www.w3.org/2000/svg" xmlns:xlink="http://www.w3.org/1999/xlink" x="0px" y="0px"
	 viewBox="0 0 538.05 242.48" style="enable-background:new 0 0 538.05 242.48;" xml:space="preserve">
<style type="text/css">
	.st0{fill:#98B6DF;}
	.st1{fill:#2094D2;}
	.st2{fill:#FFFFFF;}
</style>
<g>
	<g>
		<path class="st0" d="M52.02,141.56c19.78-25.64,45.58-47.24,79.62-46.37c2.63,0.07-0.8-2.4-1.17-2.69
			c-3.58-2.89-7.6-5.32-11.55-7.66c-5.1-3.04-10.32-5.9-15.67-8.49c-2.6-1.25-6.88-3.89-9.95-3.97
			c-34.95-0.9-61.25,20.18-81.66,46.64c-1.33,1.73,17.92,12.65,19.07,13.29C32.43,133.27,50.1,144.04,52.02,141.56L52.02,141.56z"/>
	</g>
	<g>
		<path class="st1" d="M128.95,174.4c-25.63-19.78-47.23-45.58-46.37-79.62c0.07-2.63-2.4,0.8-2.69,1.17
			c-2.89,3.58-5.32,7.6-7.66,11.55c-3.04,5.1-5.9,10.33-8.49,15.67c-1.25,2.6-3.9,6.87-3.97,9.95
			c-0.89,34.95,20.18,61.25,46.64,81.66c1.73,1.33,12.65-17.92,13.29-19.07C120.67,193.99,131.44,176.32,128.95,174.4L128.95,174.4z
			"/>
	</g>
	<g>
		<path class="st0" d="M161.8,97.47c-19.78,25.63-45.58,47.24-79.62,46.37c-2.63-0.07,0.8,2.4,1.16,2.69
			c3.59,2.89,7.61,5.32,11.56,7.67c5.1,3.04,10.33,5.9,15.67,8.48c2.59,1.26,6.88,3.9,9.95,3.97c34.95,0.9,61.25-20.18,81.66-46.64
			c1.34-1.73-17.92-12.65-19.07-13.29C181.39,105.76,163.71,94.98,161.8,97.47L161.8,97.47z"/>
	</g>
	<g>
		<path class="st1" d="M84.87,64.62c25.63,19.78,47.24,45.58,46.37,79.62c-0.07,2.62,2.4-0.81,2.69-1.17
			c2.89-3.59,5.32-7.6,7.66-11.55c3.04-5.11,5.9-10.33,8.49-15.67c1.25-2.6,3.89-6.88,3.97-9.96c0.89-34.95-20.18-61.25-46.64-81.66
			c-1.73-1.34-12.65,17.92-13.29,19.07C93.15,45.03,82.38,62.71,84.87,64.62L84.87,64.62z"/>
	</g>
	<path class="st2" d="M83.02,84.17c-9.32,0.43-26.07,10-26.01,29.27l0,0c-0.14,11.7,15.68,26.28,25.72,32.84l0,0
		c8.33,5.59,20.74,17.25,24.66,25.02l0,0c3.93-7.77,16.34-19.43,24.68-25.02l0,0c10.05-6.57,25.86-21.15,25.72-32.84l0,0
		c0.06-19.28-16.69-28.84-26.01-29.27l0,0c-0.78-0.04-1.61-0.06-2.48-0.06l0,0c-6.94,0.03-15.89,1.56-20.99,11.72l0,0l-0.91,1.82
		l-0.92-1.82c-5.1-10.17-14.05-11.69-21-11.72l0,0C84.62,84.11,83.8,84.14,83.02,84.17L83.02,84.17z"/>
</g>
<g>
	<path d="M294.31,79.21c0,4.04-0.08,5.09,7.19,5.09v2.55c-3.52-0.08-7.04-0.08-10.55-0.15c-3.52,0.07-7.04,0.07-10.55,0.15V84.3
		c7.26,0,7.19-1.05,7.19-5.09V42.53c0-4.04,0.08-5.09-7.19-5.09v-2.54c3.52,0.07,7.04,0.07,10.55,0.15
		c5.17-0.07,10.33-0.07,15.5-0.15c9.51-0.22,14.82,2.69,14.82,13.1c0,14.07-8.01,15.72-20.06,15.72h-6.89V79.21z M294.31,61.09h3.67
		c9.36,0,15.79-0.45,15.79-11.75c0-10.85-3.67-11.75-12.13-11.75h-7.34V61.09z"/>
	<path d="M326.86,69.4c0,6.81,0.08,15.5,9.58,15.5c7.86,0,8.01-5.31,8.91-8.83c0-1.2,1.2-1.2,2.54-1.2c1.05,0,2.4,0,2.32,1.27
		c-1.2,8.08-7.04,11.3-14.82,11.3c-12.65,0-15.27-8.83-15.27-20.14c0-10.33,5.91-16.17,16.09-16.17c11.45,0,15.12,7.41,14.6,18.27
		H326.86z M344,66.86c0.38-6.66-1.05-13.32-8.53-13.32s-8.76,6.81-8.61,13.32H344z"/>
	<path d="M363.28,56.08c4.42-3.52,6.66-4.94,12.58-4.94c9.58,0,10.71,4.72,10.71,12.88v15.12c0,4.27,0.3,5.32,6.51,5.32v2.4
		c-3.07-0.08-6.29-0.08-9.58-0.15c-3.29,0.07-6.51,0.07-9.51,0.15v-2.4c5.46-0.37,6.44-0.08,6.44-5.32V65.88
		c0-6.21-0.07-11.45-7.64-11.45c-7.63,0-9.13,4.49-9.13,11.08v13.62c0,4.19,0.22,5.32,6.36,5.32v2.4c-2.92-0.08-6.14-0.08-9.43-0.15
		c-3.29,0.07-6.51,0.07-9.73,0.15v-2.4c5.62-0.37,6.66,0.07,6.66-5.32V59.45c0-4.79-0.52-5.09-6.66-5.31v-2.25h12.43V56.08z"/>
	<path d="M407.2,56.08c4.42-3.52,6.66-4.94,12.58-4.94c9.58,0,10.71,4.72,10.71,12.88v15.12c0,4.27,0.3,5.32,6.51,5.32v2.4
		c-3.07-0.08-6.29-0.08-9.58-0.15c-3.29,0.07-6.51,0.07-9.51,0.15v-2.4c5.46-0.37,6.44-0.08,6.44-5.32V65.88
		c0-6.21-0.07-11.45-7.64-11.45c-7.63,0-9.13,4.49-9.13,11.08v13.62c0,4.19,0.22,5.32,6.36,5.32v2.4c-2.92-0.08-6.14-0.08-9.43-0.15
		c-3.29,0.07-6.51,0.07-9.73,0.15v-2.4c5.62-0.37,6.66,0.07,6.66-5.32V59.45c0-4.79-0.52-5.09-6.66-5.31v-2.25h12.43V56.08z"/>
</g>
<g>
	<path d="M215.01,120.83v18.27c0,4.87,1.35,5.09,7.19,5.09v2.54c-3.52-0.07-7.04-0.07-10.56-0.15c-3.52,0.08-7.04,0.08-10.56,0.15
		v-2.54c5.84,0,7.19-0.22,7.19-5.09v-36.68c0-4.87-1.35-5.09-7.19-5.09v-2.54c3.52,0.07,7.04,0.07,10.56,0.15
		c3.52-0.07,7.04-0.07,10.56-0.15v2.54c-5.54,0-7.19,0.15-7.19,5.09v15.35h26.72v-15.35c0-4.94-1.65-5.09-7.19-5.09v-2.54
		c3.52,0.07,7.04,0.07,10.56,0.15c3.52-0.07,7.04-0.07,10.56-0.15v2.54c-5.84,0-7.19,0.22-7.19,5.09v36.68
		c0,4.87,1.35,5.09,7.19,5.09v2.54c-3.52-0.07-7.04-0.07-10.56-0.15c-3.52,0.08-7.04,0.08-10.56,0.15v-2.54
		c5.84,0,7.19-0.22,7.19-5.09v-18.27H215.01z"/>
	<path d="M270.52,139.1c0,4.27,0.3,5.24,6.66,5.24v2.4c-3.22-0.07-6.44-0.15-9.73-0.15c-3.29,0-6.51,0.08-9.73,0.15v-2.4
		c6.36,0,6.66-0.97,6.66-5.24v-19.69c0-4.87-0.67-4.87-6.66-5.32v-2.32h12.8V139.1z M262.95,98.75c0-2.77,1.57-4.94,4.19-4.94
		c2.62,0,4.19,2.17,4.19,4.94c0,2.77-1.57,4.94-4.19,4.94C264.53,103.69,262.95,101.52,262.95,98.75z"/>
	<path d="M308.56,111.4l0.9,0.15l0.15,3.22l-6.29-0.22c2.02,2.47,3.07,5.54,3.07,8.76c0,8.98-7.48,12.28-15.42,12.28
		c-4.57-0.38-6.51-1.2-7.34-1.8c-1.42,4.57-0.52,8.16,3.67,8.01c3.29-0.15,6.29-0.45,9.28-0.45c7.49,0,13.25,1.72,13.25,10.33
		c0,9.06-9.51,13.62-17.44,13.62c-6.06,0-16.32-1.42-16.32-9.51c0-4.64,2.02-6.89,5.76-9.21c-2.47-4.57-1.8-9.66-0.08-14.07
		c-2.62-2.47-3.97-5.32-3.97-9.06c0-8.31,6.29-12.43,14-12.43c2.92,0,5.99,0.37,8.83,1.27L308.56,111.4z M284,147.03
		c-1.95,3.14-3.44,6.29-2.69,9.43c1.5,4.87,6.74,6.36,11.3,6.36c6.06,0,14.75-4.94,11.15-13.03c-1.72-2.92-5.17-2.92-8.16-2.77H284z
		 M300.03,123.23c0-5.17-1.57-9.73-7.94-9.73c-5.99,0-8.01,3.97-8.01,9.73c0,5.84,2.02,9.81,8.01,9.81
		C298,133.03,300.03,129.06,300.03,123.23z"/>
	<path d="M346.84,139.02c0,4.34,0.3,5.31,6.66,5.31v2.4c-3.22-0.07-6.44-0.07-9.73-0.15c-3.29,0.08-6.51,0.08-9.73,0.15v-2.4
		c5.61-0.37,6.66,0.08,6.66-5.31v-13.25c0.07-6.21-0.07-11.45-7.64-11.45c-7.41,0-9.28,4.57-9.28,11.08v13.63
		c0,4.34,0.3,5.31,6.66,5.31v2.4c-3.22-0.07-6.44-0.07-9.73-0.15c-3.29,0.08-6.51,0.08-9.73,0.15v-2.4
		c5.61-0.37,6.66,0.08,6.66-5.31v-40.5c0-4.34-0.45-5.31-6.66-5.31v-2.4h12.88v25.3c1.87-2.4,4.87-4.79,12.28-5.09
		c9.58,0,10.71,4.72,10.71,12.88V139.02z"/>
	<path d="M361.91,98.37c0-4.27-0.38-5.17-6.66-5.17v-2.4h12.8v48.28c0,4.27,0.3,5.24,6.66,5.24v2.4c-3.22-0.07-6.44-0.15-9.73-0.15
		c-3.29,0-6.51,0.08-9.73,0.15v-2.4c6.29,0,6.66-0.9,6.66-5.17V98.37z"/>
	<path d="M395.27,119.18c0-4.12-2.85-5.61-6.96-5.61c-6.36,0-6.81,2.62-6.81,7.26c0,1.72-1.8,1.95-3.22,1.95
		c-2.02-0.07-2.62-1.57-2.32-3.82c0.82-6.66,7.79-7.94,13.25-7.94c8.98,0,12.2,2.99,12.2,11.75v16.32c0,4.64,0.6,4.94,5.91,5.24v2.4
		c-1.5-0.07-3.67-0.07-5.91-0.15c-1.95,0.08-3.89,0.08-5.84,0.15v-2.99c-2.54,2.32-5.91,3.52-9.36,3.52
		c-7.64,0-12.05-2.4-12.05-10.48c0-11.68,12.88-10.03,21.11-10.03V119.18z M391.15,129.22c-6.14,0-10.56,0.52-10.56,7.71
		c0,4.27,1.72,7.56,6.44,7.56c6.51,0,8.24-2.25,8.24-8.08v-7.19H391.15z"/>
	<path d="M421.46,115.96c4.42-3.52,6.66-4.94,12.58-4.94c9.58,0,10.7,4.72,10.7,12.88v15.12c0,4.27,0.3,5.31,6.51,5.31v2.4
		c-3.07-0.07-6.29-0.07-9.58-0.15c-3.29,0.08-6.51,0.08-9.51,0.15v-2.4c5.46-0.37,6.44-0.07,6.44-5.31v-13.25
		c0-6.21-0.07-11.45-7.64-11.45c-7.63,0-9.13,4.49-9.13,11.08v13.63c0,4.19,0.22,5.31,6.36,5.31v2.4c-2.92-0.07-6.14-0.07-9.43-0.15
		c-3.29,0.08-6.51,0.08-9.73,0.15v-2.4c5.62-0.37,6.66,0.08,6.66-5.31v-19.69c0-4.79-0.52-5.09-6.66-5.31v-2.25h12.43V115.96z"/>
	<path d="M476.36,98.52c0-4.72-0.52-5.09-6.66-5.31v-2.4h12.8v48.21c0,4.34,0.3,5.31,6.66,5.31v2.4c-2.25-0.07-4.42-0.07-6.66-0.15
		c-2.02,0.08-4.12,0.08-6.14,0.15v-4.42c-2.99,3.52-6.36,5.02-11,5.02c-10.48,0-15.42-6.59-15.42-16.69
		c0-10.71,3.59-19.61,15.65-19.61c4.42,0,7.56,1.05,10.78,4.12V98.52z M476.21,127.64c0-7.71-0.52-13.92-9.81-13.92
		c-9.73,0-9.81,9.81-9.81,17.07c0,6.29,2.1,13.92,9.73,13.92c7.71,0,9.88-5.09,9.88-11.98V127.64z"/>
	<path d="M490.76,135.28h3.89c0.53,4.72-0.6,9.66,7.41,9.66c4.19,0,8.68-2.02,8.68-6.81c0-4.72-4.79-5.69-9.58-6.96
		c-4.79-1.27-9.58-2.84-9.58-8.91c0-8.38,6.14-11.23,13.7-11.23c3.14,0,6.51,0.52,9.36,1.87v8.98h-3.97c-0.52-5.46,0-8.31-6.51-8.31
		c-5.84,0.22-7.04,2.32-7.04,6.66c0,1.87,1.65,3.97,4.42,4.87c6.29,2.02,14.75,2.47,14.75,11.08c0,9.81-8.98,11.15-16.77,11.15
		c-3.07,0-6.21-0.67-8.76-2.1V135.28z"/>
</g>
<g>
	<path d="M235.15,170.19c-0.11-3.35,0.77-4.45-4.83-4.45v-2.25c2.58,0.05,5.71,0.05,8.84,0.11c3.13-0.05,6.26-0.05,8.84-0.11v2.25
		c-5.33,0-4.83,0.93-4.83,4.45v10.16h15.1v-10.16c-0.11-3.35,0.77-4.45-4.83-4.45v-2.25c2.58,0.05,5.71,0.05,8.84,0.11
		c3.13-0.05,6.25-0.05,8.83-0.11v2.25c-5.32,0-4.83,0.93-4.83,4.45v24.71c0,3.51-0.49,4.45,4.83,4.45v2.25
		c-2.58-0.05-5.71-0.05-8.83-0.11c-3.13,0.05-6.26,0.05-8.84,0.11v-2.25c5.6,0,4.72-1.1,4.83-4.45v-11.86h-15.1v11.86
		c0,3.51-0.49,4.45,4.83,4.45v2.25c-2.58-0.05-5.71-0.05-8.84-0.11c-3.13,0.05-6.26,0.05-8.84,0.11v-2.25c5.6,0,4.72-1.1,4.83-4.45
		V170.19z"/>
	<path d="M278.08,189.18c0,3.62-0.6,10.6,4.89,10.6c2.91,0,4.17-1.26,4.89-4.45c0.22-0.88,0.11-1.43,0.88-1.54h3.46
		c0.77,0,0.66,0.88,0.6,1.48c-0.38,5.27-5.54,6.75-9.83,6.75c-10.16,0-12.9-4.01-12.9-13.67c0-9.94,3.51-13.23,12.41-13.23
		c9.66,0,11.58,4.56,11.2,14.05H278.08z M286.31,186.66c-0.11-5.16,0.44-9.39-4.17-9.39c-4.28,0-3.95,4.45-4.06,9.39H286.31z"/>
	<path d="M310.4,199.01c-2.91,1.92-4.94,3.02-8.4,3.02c-4.88,0-7.3-2.91-7.3-7.63c0-4.39,2.36-7.03,6.81-7.47
		c1.43-0.16,2.69-0.22,4.12-0.22h4.5c0-3.29,1.32-9.33-3.57-9.33c-2.14,0-3.57,0.82-3.73,4.34c0.11,1.21-0.22,1.65-1.1,1.65h-3.84
		c-0.66,0.11-1.21-0.33-1.1-1.65c-0.44-4.94,4.89-6.59,9.77-6.59c7.96,0.44,10.93,1.1,10.93,8.46v11.31c0,4.34-0.82,4.56,3.9,4.56
		v2.14c-1.81-0.05-3.68-0.05-5.49-0.11c-1.81,0.05-3.68,0.05-5.49,0.11V199.01z M310.12,188.85h-2.09c-2.85,0-4.61,0.55-5.38,3.62
		c-0.44,2.75-0.22,6.2,3.35,6.2c2.91,0,4.12-1.98,4.12-4.78V188.85z"/>
	<path d="M333.43,194.89c0,3.29-0.61,4.56,3.9,4.56v2.14c-2.53-0.05-5.05-0.05-7.58-0.11c-2.53,0.05-5.05,0.05-7.58,0.11v-2.14
		c4.5,0,3.9-1.26,3.9-4.56v-27.73c0-3.29,0.6-4.56-3.9-4.56v-2.03h11.26V194.89z"/>
	<path d="M339.46,178.2h-3.62v-2.53h3.62v-7.3l7.36-2.42v9.72h5.38v2.53h-5.38v13.67c0,2.8-0.38,7.36,3.57,7.36
		c0.77,0,1.59-0.05,2.3-0.38v2.09c-2.09,0.6-4.23,1.1-6.31,1.1c-4.83,0-6.92-1.81-6.92-6.81V178.2z"/>
	<path d="M364.77,178.75c2.03-2.53,5.22-3.57,8.45-3.57c6.37,0,7.74,3.02,7.74,8.73v10.98c0,3.29-0.61,4.56,3.9,4.56v2.14
		c-2.53-0.05-5.05-0.05-7.58-0.11c-2.53,0.05-5.05,0.05-6.92,0.11v-2.14c3.79,0,3.24-1.59,3.24-4.56v-10.1
		c0-3.08-0.33-5.88-4.12-5.88c-3.57,0-4.94,2.85-4.72,6.09v9.88c0,2.96-0.55,4.56,3.24,4.56v2.14c-1.87-0.05-4.39-0.05-6.92-0.11
		c-2.53,0.05-5.05,0.05-7.58,0.11v-2.14c4.5,0,3.9-1.26,3.9-4.56v-27.73c0-3.29,0.6-4.56-3.9-4.56v-2.03h11.25V178.75z"/>
	<path d="M403.15,183.58c-0.28-3.84-1.59-6.31-5.44-6.31c-6.15,0-5.93,7.14-5.93,11.58c0,4.23-0.16,11.14,5.71,11.09
		c4.45,0,5.05-2.86,5.6-6.86h3.57v7.3c-3.46,1.26-7.14,1.65-10.6,1.65c-8.73,0-12.41-4.23-12.41-12.96
		c0-9.06,3.46-13.95,13.07-13.95c3.13,0,7.08,0.71,9.94,1.98v6.48H403.15z"/>
	<path d="M423.78,199.01c-2.91,1.92-4.94,3.02-8.4,3.02c-4.89,0-7.3-2.91-7.3-7.63c0-4.39,2.36-7.03,6.81-7.47
		c1.43-0.16,2.69-0.22,4.12-0.22h4.5c0-3.29,1.32-9.33-3.57-9.33c-2.14,0-3.57,0.82-3.73,4.34c0.11,1.21-0.22,1.65-1.1,1.65h-3.84
		c-0.66,0.11-1.21-0.33-1.1-1.65c-0.44-4.94,4.89-6.59,9.77-6.59c7.96,0.44,10.93,1.1,10.93,8.46v11.31c0,4.34-0.82,4.56,3.9,4.56
		v2.14c-1.81-0.05-3.68-0.05-5.49-0.11c-1.81,0.05-3.68,0.05-5.49,0.11V199.01z M423.5,188.85h-2.09c-2.86,0-4.61,0.55-5.38,3.62
		c-0.44,2.75-0.22,6.2,3.35,6.2c2.91,0,4.12-1.98,4.12-4.78V188.85z"/>
	<path d="M446.3,178.81c1.59-2.14,3.51-3.68,6.31-3.68c3.13,0,5.22,1.65,5.22,4.89c0,2.31-0.11,3.24-2.75,3.24
		c-1.48,0-2.8-0.16-2.86-1.98c-0.05-1.37-0.44-2.64-2.09-2.64c-2.91,0-3.57,3.4-3.57,6.64v9.55c0,3.79-0.55,4.61,4.5,4.61v2.14
		c-3.13-0.05-5.65-0.05-8.18-0.11c-2.53,0.05-5.05,0.05-7.52,0.11v-2.14c4.45,0,3.84-1.26,3.84-4.61v-12.63
		c0-3.35,0.6-4.61-3.84-4.61v-2.03c2.42,0.05,4.83,0.05,7.25,0.11c1.21-0.05,2.47-0.05,3.68-0.11V178.81z"/>
	<path d="M466.03,189.18c0,3.62-0.61,10.6,4.88,10.6c2.91,0,4.17-1.26,4.89-4.45c0.22-0.88,0.11-1.43,0.88-1.54h3.46
		c0.77,0,0.66,0.88,0.6,1.48c-0.38,5.27-5.54,6.75-9.83,6.75c-10.16,0-12.9-4.01-12.9-13.67c0-9.94,3.51-13.23,12.41-13.23
		c9.66,0,11.58,4.56,11.2,14.05H466.03z M474.26,186.66c-0.11-5.16,0.44-9.39-4.17-9.39c-4.28,0-3.95,4.45-4.06,9.39H474.26z"/>
</g>
</svg>
