<?xml version="1.0" encoding="UTF-8"?>
<svg width="284px" height="81px" viewBox="0 0 284 81" version="1.1" xmlns="http://www.w3.org/2000/svg" xmlns:xlink="http://www.w3.org/1999/xlink">
    <title>9B647E2E-45E7-4DEB-9932-9D427CB7C400</title>
    <defs>
        <radialGradient cx="49.8365568%" cy="98.4133425%" fx="49.8365568%" fy="98.4133425%" r="98.3993515%" gradientTransform="translate(0.498366,0.984133),scale(0.779266,1.000000),translate(-0.498366,-0.984133)" id="radialGradient-1">
            <stop stop-color="#FDB913" offset="0%"></stop>
            <stop stop-color="#FDB913" offset="31.87%"></stop>
            <stop stop-color="#F57E20" offset="100%"></stop>
        </radialGradient>
        <radialGradient cx="156.113657%" cy="239.76106%" fx="156.113657%" fy="239.76106%" r="255.34204%" gradientTransform="translate(1.561137,2.397611),scale(1.000000,0.996153),translate(-1.561137,-2.397611)" id="radialGradient-2">
            <stop stop-color="#00AEEF" offset="0%"></stop>
            <stop stop-color="#00AEEF" offset="31.87%"></stop>
            <stop stop-color="#005EAD" offset="100%"></stop>
        </radialGradient>
        <radialGradient cx="133.255165%" cy="245.597187%" fx="133.255165%" fy="245.597187%" r="334.7721%" gradientTransform="translate(1.332552,2.455972),scale(1.000000,0.688514),translate(-1.332552,-2.455972)" id="radialGradient-3">
            <stop stop-color="#00AEEF" offset="0%"></stop>
            <stop stop-color="#00AEEF" offset="31.87%"></stop>
            <stop stop-color="#005EAD" offset="100%"></stop>
        </radialGradient>
        <radialGradient cx="168.852058%" cy="243.837598%" fx="168.852058%" fy="243.837598%" r="334.083214%" gradientTransform="translate(1.688521,2.438376),scale(0.687968,1.000000),translate(-1.688521,-2.438376)" id="radialGradient-4">
            <stop stop-color="#00AEEF" offset="0%"></stop>
            <stop stop-color="#00AEEF" offset="31.87%"></stop>
            <stop stop-color="#005EAD" offset="100%"></stop>
        </radialGradient>
        <radialGradient cx="55.8587603%" cy="255.248236%" fx="55.8587603%" fy="255.248236%" r="442.506294%" gradientTransform="translate(0.558588,2.552482),scale(1.000000,0.531143),translate(-0.558588,-2.552482)" id="radialGradient-5">
            <stop stop-color="#00AEEF" offset="0%"></stop>
            <stop stop-color="#00AEEF" offset="31.87%"></stop>
            <stop stop-color="#005EAD" offset="100%"></stop>
        </radialGradient>
        <radialGradient cx="176.267038%" cy="287.297264%" fx="176.267038%" fy="287.297264%" r="628.308962%" gradientTransform="translate(1.762670,2.872973),scale(0.371283,1.000000),translate(-1.762670,-2.872973)" id="radialGradient-6">
            <stop stop-color="#00AEEF" offset="0%"></stop>
            <stop stop-color="#00AEEF" offset="31.87%"></stop>
            <stop stop-color="#005EAD" offset="100%"></stop>
        </radialGradient>
        <radialGradient cx="-71.2627206%" cy="273.745506%" fx="-71.2627206%" fy="273.745506%" r="598.671747%" gradientTransform="translate(-0.712627,2.737455),scale(0.390029,1.000000),translate(0.712627,-2.737455)" id="radialGradient-7">
            <stop stop-color="#00AEEF" offset="0%"></stop>
            <stop stop-color="#00AEEF" offset="31.87%"></stop>
            <stop stop-color="#005EAD" offset="100%"></stop>
        </radialGradient>
        <radialGradient cx="-49.4544869%" cy="241.374637%" fx="-49.4544869%" fy="241.374637%" r="256.071628%" gradientTransform="translate(-0.494545,2.413746),scale(0.992471,1.000000),translate(0.494545,-2.413746)" id="radialGradient-8">
            <stop stop-color="#00AEEF" offset="0%"></stop>
            <stop stop-color="#00AEEF" offset="31.87%"></stop>
            <stop stop-color="#005EAD" offset="100%"></stop>
        </radialGradient>
        <radialGradient cx="-63.8556116%" cy="243.749003%" fx="-63.8556116%" fy="243.749003%" r="333.96183%" gradientTransform="translate(-0.638556,2.437490),scale(0.688218,1.000000),translate(0.638556,-2.437490)" id="radialGradient-9">
            <stop stop-color="#00AEEF" offset="0%"></stop>
            <stop stop-color="#00AEEF" offset="31.87%"></stop>
            <stop stop-color="#005EAD" offset="100%"></stop>
        </radialGradient>
        <radialGradient cx="-24.9651251%" cy="245.597187%" fx="-24.9651251%" fy="245.597187%" r="334.894422%" gradientTransform="translate(-0.249651,2.455972),scale(1.000000,0.688262),translate(0.249651,-2.455972)" id="radialGradient-10">
            <stop stop-color="#00AEEF" offset="0%"></stop>
            <stop stop-color="#00AEEF" offset="31.87%"></stop>
            <stop stop-color="#005EAD" offset="100%"></stop>
        </radialGradient>
        <radialGradient cx="50.1804211%" cy="-18.6293522%" fx="50.1804211%" fy="-18.6293522%" r="153.608242%" gradientTransform="translate(0.501804,-0.186294),scale(0.324604,1.000000),translate(-0.501804,0.186294)" id="radialGradient-11">
            <stop stop-color="#8CC63F" offset="0%"></stop>
            <stop stop-color="#006838" offset="100%"></stop>
        </radialGradient>
        <radialGradient cx="99.2624907%" cy="-59.3567154%" fx="99.2624907%" fy="-59.3567154%" r="151.6262%" gradientTransform="translate(0.992625,-0.593567),scale(0.689993,1.000000),translate(-0.992625,0.593567)" id="radialGradient-12">
            <stop stop-color="#8CC63F" offset="0%"></stop>
            <stop stop-color="#006838" offset="100%"></stop>
        </radialGradient>
        <radialGradient cx="71.4699626%" cy="-34.427819%" fx="71.4699626%" fy="-34.427819%" r="128.426563%" gradientTransform="translate(0.714700,-0.344278),scale(0.564949,1.000000),translate(-0.714700,0.344278)" id="radialGradient-13">
            <stop stop-color="#8CC63F" offset="0%"></stop>
            <stop stop-color="#006838" offset="100%"></stop>
        </radialGradient>
        <radialGradient cx="61.1076869%" cy="-24.7903712%" fx="61.1076869%" fy="-24.7903712%" r="132.405978%" gradientTransform="translate(0.611077,-0.247904),scale(0.461524,1.000000),translate(-0.611077,0.247904)" id="radialGradient-14">
            <stop stop-color="#8CC63F" offset="0%"></stop>
            <stop stop-color="#006838" offset="100%"></stop>
        </radialGradient>
    </defs>
    <g id="Home" stroke="none" stroke-width="1" fill="none" fill-rule="evenodd">
        <g id="Genesis-Home-Desktop-2.1" transform="translate(-223.000000, -184.000000)" fill-rule="nonzero">
            <g id="navigation/desktop-1" transform="translate(0.000000, 142.000000)">
                <g id="Genesis-Base-Logo" transform="translate(223.000000, 42.000000)">
                    <path d="M113.289956,34.0076336 L97.3537118,34.0076336 L97.3537118,39.0160305 L107.151092,39.0160305 L107.151092,49.2183206 C105.724891,49.9603053 102.934498,50.5167939 98.8419214,50.5167939 C87.5563319,50.5167939 80.1772926,43.2824427 80.1772926,31.1015267 C80.1772926,19.0442748 87.8663755,11.7480916 99.5860262,11.7480916 C104.484716,11.7480916 107.70917,12.6755725 110.251528,13.8503817 L111.739738,8.78015267 C109.69345,7.79083969 105.29083,6.55419847 99.7100437,6.55419847 C83.5257642,6.55419847 73.6043668,17.0656489 73.5423581,31.410687 C73.5423581,38.8923664 76.1467249,45.3229008 80.30131,49.3419847 C85.0759825,53.7938931 91.1528384,55.648855 98.469869,55.648855 C104.980786,55.648855 110.499563,53.9793893 113.289956,52.9900763 L113.289956,34.0076336 L113.289956,34.0076336 Z" id="Path" fill="#235B4E"></path>
                    <path d="M142.806114,34.5022901 L124.38952,34.5022901 C124.88559,30.1122137 127.675983,24.3 134.062882,24.3 C141.131878,24.3 142.868122,30.4832061 142.806114,34.5022901 M148.882969,36.0480916 C148.882969,29.6793893 145.844541,19.7862595 134.558952,19.7862595 C124.451528,19.7862595 118.312664,28.0099237 118.312664,38.459542 C118.312664,48.9091603 124.699563,55.9580153 135.365066,55.9580153 C140.883843,55.9580153 144.666376,54.721374 146.89869,53.7320611 L145.844541,49.2183206 C143.48821,50.2076336 140.759825,51.0114504 136.233188,51.0114504 C129.908297,51.0114504 124.451528,47.4870229 124.327511,39.0160305 L148.696943,39.0160305 C148.696943,38.3358779 148.882969,37.3465649 148.882969,36.0480916" id="Shape" fill="#235B4E"></path>
                    <path d="M154.091703,55.1541985 L160.416594,55.1541985 L160.416594,34.3167939 C160.416594,33.2656489 160.540611,32.1526718 160.850655,31.410687 C161.904803,27.8862595 165.129258,24.9801527 169.283843,24.9801527 C175.236681,24.9801527 177.344978,29.6175573 177.344978,35.1824427 L177.344978,55.1541985 L183.669869,55.1541985 L183.669869,34.5022901 C183.669869,22.6305344 176.228821,19.7862595 171.39214,19.7862595 C165.625328,19.7862595 161.656769,23.0015267 159.920524,26.278626 L159.796507,26.278626 L159.424454,20.5900763 L153.843668,20.5900763 C154.029694,23.4343511 154.153712,26.4022901 154.153712,29.9267176 L154.153712,55.1541985 L154.091703,55.1541985 Z" id="Path" fill="#235B4E"></path>
                    <path d="M213.372052,34.5022901 L194.955459,34.5022901 C195.451528,30.1122137 198.241921,24.3 204.628821,24.3 C211.759825,24.3 213.434061,30.4832061 213.372052,34.5022901 M219.448908,36.0480916 C219.448908,29.6793893 216.472489,19.7862595 205.124891,19.7862595 C195.017467,19.7862595 188.878603,28.0099237 188.878603,38.459542 C188.878603,48.9091603 195.265502,55.9580153 205.931004,55.9580153 C211.449782,55.9580153 215.232314,54.721374 217.464629,53.7320611 L216.41048,49.2183206 C214.054148,50.2076336 211.325764,51.0114504 206.799127,51.0114504 C200.474236,51.0114504 195.017467,47.4870229 194.89345,39.0160305 L219.262882,39.0160305 C219.324891,38.3358779 219.448908,37.3465649 219.448908,36.0480916" id="Shape" fill="#235B4E"></path>
                    <path d="M221.991266,53.4847328 C224.409607,54.9068702 227.944105,55.8961832 231.726638,55.8961832 C239.973799,55.8961832 244.686463,51.5679389 244.686463,45.4465649 C244.686463,40.3145038 241.586026,37.2847328 235.571179,34.9969466 C231.044541,33.2656489 228.998253,31.9671756 228.998253,29.1229008 C228.998253,26.5259542 231.10655,24.4236641 234.827074,24.4236641 C238.051528,24.4236641 240.531878,25.5984733 241.89607,26.4022901 L243.446288,21.8267176 C241.524017,20.7137405 238.423581,19.6625954 234.889083,19.6625954 C227.448035,19.6625954 222.921397,24.2381679 222.921397,29.8030534 C222.921397,33.9458015 225.835808,37.4083969 232.09869,39.5725191 C236.749345,41.3038168 238.547598,42.9114504 238.547598,45.9412214 C238.547598,48.7854962 236.377293,51.0732824 231.788646,51.0732824 C228.626201,51.0732824 225.339738,49.7748092 223.479476,48.6 L221.991266,53.4847328 Z" id="Path" fill="#235B4E"></path>
                    <rect id="Rectangle" fill="#235B4E" x="249.70917" y="20.5900763" width="6.32489083" height="34.5641221"></rect>
                    <path d="M252.871616,9.89312977 C250.577293,9.89312977 248.903057,11.6244275 248.903057,13.8503817 C248.903057,16.0145038 250.453275,17.6839695 252.68559,17.6839695 C255.165939,17.6839695 256.778166,15.9526718 256.716157,13.8503817 C256.716157,11.6244275 255.227948,9.89312977 252.871616,9.89312977" id="Path" fill="#235B4E"></path>
                    <path d="M260.932751,53.4847328 C263.351092,54.9068702 266.88559,55.8961832 270.668122,55.8961832 C278.915284,55.8961832 283.627948,51.5679389 283.627948,45.4465649 C283.627948,40.3145038 280.527511,37.2847328 274.512664,34.9969466 C269.986026,33.2656489 267.939738,31.9671756 267.939738,29.1229008 C267.939738,26.5259542 270.048035,24.4236641 273.768559,24.4236641 C276.993013,24.4236641 279.473362,25.5984733 280.837555,26.4022901 L282.387773,21.8267176 C280.465502,20.7137405 277.365066,19.6625954 273.830568,19.6625954 C266.38952,19.6625954 261.862882,24.2381679 261.862882,29.8030534 C261.862882,33.9458015 264.777293,37.4083969 271.040175,39.5725191 C275.69083,41.3038168 277.489083,42.9114504 277.489083,45.9412214 C277.489083,48.7854962 275.318777,51.0732824 270.730131,51.0732824 C267.567686,51.0732824 264.281223,49.7748092 262.420961,48.6 L260.932751,53.4847328 Z" id="Path" fill="#235B4E"></path>
                    <polygon id="Path" fill="#4D4D4F" points="100.330131 64.6145038 100.330131 80.2580153 102.128384 80.2580153 102.128384 72.9618321 106.531004 72.9618321 106.531004 80.2580153 108.329258 80.2580153 108.329258 64.6145038 106.531004 64.6145038 106.531004 71.3541985 102.128384 71.3541985 102.128384 64.6145038"></polygon>
                    <polygon id="Path" fill="#4D4D4F" points="117.134498 71.3541985 113.227948 71.3541985 113.227948 66.2221374 117.382533 66.2221374 117.382533 64.6145038 111.429694 64.6145038 111.429694 80.2580153 117.692576 80.2580153 117.692576 78.7122137 113.227948 78.7122137 113.227948 72.8381679 117.134498 72.8381679"></polygon>
                    <path d="M125.505677,74.1366412 L122.529258,74.1366412 L123.335371,70.1793893 C123.583406,69.1282443 123.831441,67.7679389 123.955459,66.5931298 L124.017467,66.5931298 C124.203493,67.7679389 124.38952,69.0664122 124.637555,70.1793893 L125.505677,74.1366412 Z M128.544105,80.2580153 L125.071616,64.6145038 L123.087336,64.6145038 L119.49083,80.2580153 L121.227074,80.2580153 L122.219214,75.5587786 L125.691703,75.5587786 L126.745852,80.2580153 L128.544105,80.2580153 Z" id="Shape" fill="#4D4D4F"></path>
                    <polygon id="Path" fill="#4D4D4F" points="130.776419 80.2580153 136.977293 80.2580153 136.977293 78.7740458 132.574672 78.7740458 132.574672 64.6145038 130.776419 64.6145038"></polygon>
                    <polygon id="Path" fill="#4D4D4F" points="140.077729 80.2580153 141.875983 80.2580153 141.875983 66.2221374 144.728384 66.2221374 144.728384 64.6145038 137.225328 64.6145038 137.225328 66.2221374 140.077729 66.2221374"></polygon>
                    <polygon id="Path" fill="#4D4D4F" points="146.89869 64.6145038 146.89869 80.2580153 148.634934 80.2580153 148.634934 72.9618321 153.037555 72.9618321 153.037555 80.2580153 154.835808 80.2580153 154.835808 64.6145038 153.037555 64.6145038 153.037555 71.3541985 148.634934 71.3541985 148.634934 64.6145038"></polygon>
                    <path d="M164.633188,78.5267176 C164.261135,78.7122137 163.703057,78.8358779 163.020961,78.8358779 C161.09869,78.8358779 159.300437,77.2282443 159.300437,72.4671756 C159.300437,67.7061069 161.284716,66.0366412 162.958952,66.0366412 C163.765066,66.0366412 164.137118,66.2221374 164.50917,66.3458015 L164.881223,64.8618321 C164.571179,64.6763359 163.889083,64.4908397 162.958952,64.4908397 C160.478603,64.4908397 157.378166,66.4694656 157.378166,72.6526718 C157.378166,77.970229 159.61048,80.4435115 162.648908,80.4435115 C163.641048,80.4435115 164.447162,80.2580153 164.881223,80.010687 L164.633188,78.5267176 Z" id="Path" fill="#4D4D4F"></path>
                    <path d="M172.632314,74.1366412 L169.655895,74.1366412 L170.462009,70.1793893 C170.710044,69.1282443 170.958079,67.7679389 171.082096,66.5931298 L171.144105,66.5931298 C171.330131,67.7679389 171.516157,69.0664122 171.764192,70.1793893 L172.632314,74.1366412 Z M175.670742,80.2580153 L172.198253,64.6145038 L170.213974,64.6145038 L166.617467,80.2580153 L168.353712,80.2580153 L169.345852,75.5587786 L172.818341,75.5587786 L173.872489,80.2580153 L175.670742,80.2580153 Z" id="Shape" fill="#4D4D4F"></path>
                    <path d="M183.297817,68.9427481 C183.297817,70.7977099 182.181659,72.0961832 180.445415,72.0961832 L179.70131,72.0961832 L179.70131,66.0984733 C179.949345,66.0366412 180.259389,65.9748092 180.631441,65.9748092 C182.553712,66.0366412 183.297817,67.1496183 183.297817,68.9427481 M185.158079,68.7572519 C185.158079,67.5206107 184.848035,66.4694656 184.041921,65.6656489 C183.235808,64.8618321 182.057642,64.5526718 180.507424,64.5526718 C179.639301,64.5526718 178.70917,64.6763359 177.965066,64.8618321 L177.965066,80.2580153 L179.763319,80.2580153 L179.763319,73.4564885 L180.445415,73.4564885 C181.995633,73.4564885 182.677729,74.2603053 182.987773,76.4244275 C183.297817,78.3412214 183.60786,79.8251908 183.855895,80.2580153 L185.654148,80.2580153 C185.406114,79.7633588 185.09607,78.4648855 184.724017,76.3007634 C184.413974,74.2603053 183.793886,73.1473282 182.615721,72.7763359 L182.615721,72.7145038 C184.227948,72.0343511 185.158079,70.7358779 185.158079,68.7572519" id="Shape" fill="#4D4D4F"></path>
                    <polygon id="Path" fill="#4D4D4F" points="193.591266 71.3541985 189.622707 71.3541985 189.622707 66.2221374 193.839301 66.2221374 193.839301 64.6145038 187.824454 64.6145038 187.824454 80.2580153 194.087336 80.2580153 194.087336 78.7122137 189.622707 78.7122137 189.622707 72.8381679 193.591266 72.8381679"></polygon>
                    <path d="M200.164192,79.7633588 C200.598253,80.0725191 201.71441,80.4435115 202.768559,80.4435115 C205.310917,80.4435115 207.171179,78.7740458 207.171179,76.0534351 C207.171179,74.3221374 206.303057,72.9 204.442795,71.5396947 C202.954585,70.4885496 202.148472,69.870229 202.148472,68.3244275 C202.148472,67.2732824 202.892576,66.0984733 204.442795,66.0984733 C205.248908,66.0984733 205.931004,66.3458015 206.303057,66.6549618 L206.737118,65.1091603 C206.365066,64.8618321 205.496943,64.5526718 204.566812,64.5526718 C202.086463,64.5526718 200.412227,66.2839695 200.412227,68.6335878 C200.412227,70.6740458 202.086463,72.0961832 203.388646,72.9618321 C204.628821,73.889313 205.434934,74.7549618 205.434934,76.2389313 C205.434934,77.8465649 204.442795,78.8977099 202.830568,78.8977099 C202.086463,78.8977099 201.094323,78.6503817 200.598253,78.2793893 L200.164192,79.7633588 Z" id="Path" fill="#4D4D4F"></path>
                    <path d="M213.930131,80.2580153 L213.930131,73.5801527 L217.526638,64.6145038 L215.666376,64.6145038 L214.364192,68.4480916 C213.930131,69.6847328 213.49607,70.859542 213.248035,72.0343511 L213.186026,72.0343511 C212.813974,70.7977099 212.379913,69.6229008 212.00786,68.5099237 L210.581659,64.6145038 L208.659389,64.6145038 L212.131878,73.6419847 L212.131878,80.2580153 L213.930131,80.2580153 L213.930131,80.2580153 Z" id="Path" fill="#4D4D4F"></path>
                    <path d="M218.518777,79.7633588 C218.952838,80.0725191 220.068996,80.4435115 221.123144,80.4435115 C223.665502,80.4435115 225.525764,78.7740458 225.525764,76.0534351 C225.525764,74.3221374 224.657642,72.9 222.79738,71.5396947 C221.30917,70.4885496 220.503057,69.870229 220.503057,68.3244275 C220.503057,67.2732824 221.247162,66.0984733 222.79738,66.0984733 C223.603493,66.0984733 224.28559,66.3458015 224.657642,66.6549618 L225.091703,65.1091603 C224.719651,64.8618321 223.851528,64.5526718 222.921397,64.5526718 C220.441048,64.5526718 218.766812,66.2839695 218.766812,68.6335878 C218.766812,70.6740458 220.441048,72.0961832 221.743231,72.9618321 C222.983406,73.889313 223.78952,74.7549618 223.78952,76.2389313 C223.78952,77.8465649 222.79738,78.8977099 221.185153,78.8977099 C220.441048,78.8977099 219.448908,78.6503817 218.952838,78.2793893 L218.518777,79.7633588 Z" id="Path" fill="#4D4D4F"></path>
                    <polygon id="Path" fill="#4D4D4F" points="229.990393 80.2580153 231.788646 80.2580153 231.788646 66.2221374 234.641048 66.2221374 234.641048 64.6145038 227.137991 64.6145038 227.137991 66.2221374 229.990393 66.2221374"></polygon>
                    <polygon id="Path" fill="#4D4D4F" points="242.516157 71.3541985 238.547598 71.3541985 238.547598 66.2221374 242.764192 66.2221374 242.764192 64.6145038 236.749345 64.6145038 236.749345 80.2580153 243.012227 80.2580153 243.012227 78.7122137 238.547598 78.7122137 238.547598 72.8381679 242.516157 72.8381679"></polygon>
                    <path d="M255.289956,80.2580153 L256.964192,80.2580153 L256.034061,64.6145038 L254.049782,64.6145038 L252.251528,71.7870229 C251.755459,73.889313 251.383406,75.3732824 251.073362,77.1664122 L251.011354,77.1664122 C250.70131,75.3732824 250.267249,73.8274809 249.771179,71.7870229 L247.972926,64.6145038 L245.988646,64.6145038 L245.058515,80.2580153 L246.670742,80.2580153 L246.980786,73.6419847 C247.042795,71.4160305 247.166812,69.2519084 247.166812,67.3969466 L247.228821,67.3969466 C247.538865,69.1900763 247.972926,71.1068702 248.531004,73.1473282 L250.329258,80.1961832 L251.507424,80.1961832 L253.429694,72.8381679 C253.925764,70.9832061 254.359825,69.1282443 254.669869,67.3969466 L254.731878,67.3969466 C254.669869,69.1900763 254.793886,71.4778626 254.917904,73.5183206 L255.289956,80.2580153 Z" id="Path" fill="#4D4D4F"></path>
                    <path d="M31.5004367,62.759542 C48.8628821,62.759542 63.0008734,48.7236641 63.0008734,31.348855 C63.0008734,13.9740458 48.8628821,0 31.5004367,0 C14.1379913,0 0,14.0358779 0,31.410687 C0,48.7854962 14.0759825,62.759542 31.5004367,62.759542" id="Path" fill="#FFFFFF"></path>
                    <path d="M31.5004367,20.280916 C25.3615721,20.280916 20.4008734,25.2274809 20.4008734,31.348855 C20.4008734,32.2145038 20.5248908,33.0183206 20.6489083,33.8221374 C25.5475983,34.6877863 30.3222707,35.9244275 34.7868996,37.5320611 C37.1432314,36.480916 39.4995633,35.5534351 41.9799127,34.8114504 C42.3519651,33.6984733 42.5379913,32.5854962 42.5379913,31.348855 C42.6,25.289313 37.6393013,20.280916 31.5004367,20.280916 Z M36.5231441,31.410687 L33.1126638,31.410687 L33.1126638,34.8114504 L29.7641921,34.8114504 L29.7641921,31.410687 L26.3537118,31.410687 L26.3537118,28.0717557 L29.7641921,28.0717557 L29.7641921,24.6709924 L33.1126638,24.6709924 L33.1126638,28.0717557 L36.5231441,28.0717557 L36.5231441,31.410687 Z" id="Shape" fill="url(#radialGradient-1)"></path>
                    <path d="M22.8812227,19.6625954 L14.2,7.91450382 C11.8436681,9.64580153 9.73537118,11.7480916 7.9371179,14.159542 L19.7187773,22.8160305 C19.7187773,22.8160305 19.8427948,22.8778626 19.8427948,22.9396947 C20.710917,23.5580153 21.889083,23.4343511 22.6331878,22.7541985 C22.6331878,22.7541985 22.6951965,22.6923664 22.6951965,22.6923664 C23.4393013,21.9503817 23.50131,20.7755725 22.8812227,19.9099237 C22.9432314,19.7862595 22.8812227,19.6625954 22.8812227,19.6625954 Z" id="Path" fill="url(#radialGradient-2)"></path>
                    <path d="M28.0279476,17.251145 L24.4934498,3.09160305 C21.641048,3.77175573 18.9126638,4.88473282 16.3082969,6.49236641 L23.8733624,18.9824427 C23.8733624,18.9824427 23.9353712,19.1061069 23.9353712,19.1061069 C24.4934498,19.9717557 25.609607,20.3427481 26.6017467,19.9717557 C26.6637555,19.9717557 26.6637555,19.9099237 26.7257642,19.9099237 C27.7179039,19.4770992 28.2139738,18.4259542 27.9659389,17.4366412 C28.0279476,17.3748092 28.0279476,17.251145 28.0279476,17.251145 Z" id="Path" fill="url(#radialGradient-3)"></path>
                    <path d="M19.1606987,23.9290076 C19.09869,23.9290076 19.0366812,23.8671756 19.0366812,23.8671756 L6.51091703,16.2618321 C4.96069869,18.7351145 3.84454148,21.5175573 3.10043668,24.4236641 L17.3004367,27.8862595 C17.3004367,27.8862595 17.4244541,27.9480916 17.4864629,27.9480916 C18.4786026,28.1954198 19.5327511,27.6389313 19.9668122,26.7114504 C19.9668122,26.6496183 19.9668122,26.6496183 20.028821,26.5877863 C20.4008734,25.5984733 20.028821,24.4854962 19.1606987,23.9290076 Z" id="Path" fill="url(#radialGradient-4)"></path>
                    <path d="M29.2681223,17.0038168 C29.2681223,17.0038168 29.2681223,17.1274809 29.2681223,17.189313 C29.4541485,18.178626 30.3222707,18.9824427 31.3764192,18.9824427 C31.4384279,18.9824427 31.4384279,18.9824427 31.5004367,18.9824427 C32.5545852,18.9206107 33.4227074,18.178626 33.6087336,17.189313 C33.6087336,17.1274809 33.6087336,17.0038168 33.6087336,17.0038168 L35.841048,2.59694656 C34.4148472,2.34961832 32.9266376,2.28778626 31.4384279,2.28778626 C29.9502183,2.28778626 28.4620087,2.41145038 26.9737991,2.59694656 L29.2681223,17.0038168 Z" id="Path" fill="url(#radialGradient-5)"></path>
                    <path d="M17.2384279,29.1847328 C17.1764192,29.1847328 17.0524017,29.1847328 17.0524017,29.1847328 L2.60436681,26.9587786 C2.35633188,28.6282443 2.23231441,30.359542 2.29432314,32.0290076 C7.62707424,32.0290076 12.8978166,32.4618321 18.0445415,33.2038168 C18.6646288,32.8328244 19.0366812,32.1526718 19.09869,31.410687 C19.09869,31.348855 19.09869,31.348855 19.09869,31.2870229 C19.0366812,30.2358779 18.2305677,29.370229 17.2384279,29.1847328 Z" id="Path" fill="url(#radialGradient-6)"></path>
                    <path d="M60.7065502,31.9053435 C60.7065502,30.2977099 60.6445415,28.6282443 60.3965066,26.9587786 L45.8864629,29.1847328 C45.8864629,29.1847328 45.7624454,29.1847328 45.7004367,29.1847328 C44.7082969,29.370229 43.9021834,30.2358779 43.9021834,31.2870229 C43.9021834,31.348855 43.9021834,31.348855 43.9021834,31.410687 C43.9641921,32.4618321 44.7082969,33.3274809 45.7004367,33.5129771 C45.7624454,33.5129771 45.8864629,33.5129771 45.8864629,33.5129771 L46.0104803,33.5129771 C50.7851528,32.5236641 55.7458515,31.9053435 60.7065502,31.9053435 L60.7065502,31.9053435 Z" id="Path" fill="url(#radialGradient-7)"></path>
                    <path d="M43.2200873,22.8160305 L55.0017467,14.159542 C53.2655022,11.8099237 51.219214,9.70763359 48.7388646,7.91450382 L40.0576419,19.6625954 C40.0576419,19.6625954 39.9956332,19.7862595 39.9336245,19.7862595 C39.3755459,20.6519084 39.4375546,21.8267176 40.1816594,22.5687023 C40.1816594,22.5687023 40.2436681,22.6305344 40.2436681,22.6305344 C40.9877729,23.3725191 42.1659389,23.4343511 43.0340611,22.8160305 C43.0960699,22.8778626 43.2200873,22.8160305 43.2200873,22.8160305 Z" id="Path" fill="url(#radialGradient-8)"></path>
                    <path d="M43.9641921,23.8671756 C43.9641921,23.8671756 43.8401747,23.9290076 43.8401747,23.9290076 C42.9720524,24.4854962 42.6,25.5984733 42.9720524,26.5877863 C42.9720524,26.6496183 43.0340611,26.6496183 43.0340611,26.7114504 C43.4681223,27.7007634 44.5222707,28.1954198 45.5144105,27.9480916 C45.5764192,27.9480916 45.7004367,27.8862595 45.7004367,27.8862595 L59.9004367,24.4236641 C59.2183406,21.6412214 58.1021834,18.8587786 56.4899563,16.2618321 L43.9641921,23.8671756 Z" id="Path" fill="url(#radialGradient-9)"></path>
                    <path d="M38.4454148,3.09160305 L34.9729258,17.251145 C34.9729258,17.251145 34.9729258,17.3748092 34.910917,17.4366412 C34.6628821,18.4259542 35.2209607,19.4770992 36.1510917,19.9099237 C36.2131004,19.9099237 36.2131004,19.9099237 36.2751092,19.9717557 C37.2672489,20.3427481 38.3834061,19.9717557 38.9414847,19.1061069 C38.9414847,19.0442748 39.0034934,18.9824427 39.0034934,18.9824427 L46.568559,6.49236641 C44.1502183,4.94656489 41.4218341,3.83358779 38.4454148,3.09160305 Z" id="Path" fill="url(#radialGradient-10)"></path>
                    <path d="M51.7152838,52.3717557 C54.8777293,49.2801527 57.4200873,45.5083969 58.9703057,41.3038168 C55.6838428,42.540458 52.5834061,44.1480916 49.8550218,46.0648855 C49.4209607,45.7557252 48.9248908,45.5083969 48.428821,45.1992366 C51.7152838,42.9114504 55.4358079,41.0564885 59.4663755,39.6961832 C59.6524017,38.9541985 59.9004367,38.2740458 60.0244541,37.5320611 C54.4436681,38.5832061 49.1729258,40.4381679 44.5222707,43.0969466 C44.0262009,42.8496183 43.4681223,42.6022901 42.9720524,42.3549618 C48.1187773,39.3870229 53.9475983,37.3465649 60.2104803,36.3572519 C60.2724891,35.9862595 60.3344978,35.6152672 60.3965066,35.1824427 C52.8934498,35.7389313 45.8244541,37.7175573 39.6235808,40.8091603 C39.0655022,40.5618321 38.5074236,40.3145038 37.8873362,40.1290076 C44.6462882,36.7900763 52.3353712,34.6877863 60.5825328,34.3167939 C60.5825328,34.0076336 60.6445415,33.7603053 60.6445415,33.451145 C51.3432314,33.451145 42.6,35.4916031 34.910917,39.0160305 C25.1755459,35.5534351 14.1379913,33.5748092 2.35633188,33.5748092 C2.35633188,33.8839695 2.41834061,34.1931298 2.41834061,34.440458 C22.571179,35.1824427 40.3056769,42.1076336 51.7152838,52.3717557 Z" id="Path" fill="url(#radialGradient-11)"></path>
                    <path d="M4.03056769,41.3038168 C8.1231441,52.4954198 18.850655,60.4717557 31.5004367,60.4717557 C31.6244541,60.4717557 31.6864629,60.4717557 31.8104803,60.4717557 C26.6637555,51.8770992 16.6183406,44.9519084 4.03056769,41.3038168 Z" id="Path" fill="url(#radialGradient-12)"></path>
                    <path d="M2.97641921,37.7175573 C3.16244541,38.459542 3.34847162,39.1396947 3.53449782,39.8198473 C17.5484716,43.3442748 28.7720524,50.8877863 34.228821,60.3480916 C37.3292576,60.0389313 40.3056769,59.2969466 43.0340611,58.1221374 C34.910917,47.7961832 20.3388646,40.1290076 2.97641921,37.7175573 Z" id="Path" fill="url(#radialGradient-13)"></path>
                    <path d="M2.72838428,36.480916 C20.958952,38.7068702 36.3371179,46.559542 44.8323144,57.3183206 C46.6925764,56.3290076 48.4908297,55.1541985 50.1030568,53.8557252 C39.3135371,43.4679389 22.1371179,36.419084 2.54235808,35.3679389 C2.60436681,35.7389313 2.66637555,36.1099237 2.72838428,36.480916 Z" id="Path" fill="url(#radialGradient-14)"></path>
                </g>
            </g>
        </g>
    </g>
</svg>