<svg xmlns="http://www.w3.org/2000/svg" viewBox="0 0 269.547 60" width="270" height="60">
  <defs>
    <style>
      .cls-1 {
        fill: #19315b;
      }
    </style>
  </defs>
  <g id="Group_330" data-name="Group 330" transform="translate(0.03 -0.005)">
    <path id="Path_1433" data-name="Path 1433" class="cls-1" d="M55.248,53.012c-18.806,9.2-41.413,8.4-49.216-3.4-7.8-12,4.8-31.81,25.408-42.213,19.606-10,42.814-7.6,49.216,3.4,7,12.2-5,31.41-25.408,42.213M85.058,14.4C79.856.2,56.649-4.206,33.641,4.4,10.234,13-4.171,31.605,1.031,45.61c5.2,14.2,28.409,18.606,51.416,10C75.855,47.21,90.259,28.6,85.058,14.4" transform="translate(0 0)"/>
    <path id="Path_1435" data-name="Path 1435" class="cls-1" d="M65.551,25.976c-.2.6-2,5.2-4.6,10.4-2.6,5-7.4,11.8-8.8,12.8s-4,.8-6.8-1.2a34.993,34.993,0,0,1-6-4.4c-2-1.8-4.2-4-6.6-5.8,2.4-4,2-5.6.4-7s-5.4-.2-6.8,1.4a6.138,6.138,0,0,0-2.8-1.2,3.469,3.469,0,0,0-3.6.6,2.993,2.993,0,0,0-1.2,3,9.149,9.149,0,0,0,2.2,4.4c-1.2,1.4-2.8,2.8-3.8,3.8a22.937,22.937,0,0,1-2.6,2,2.29,2.29,0,0,1-2,0,6.23,6.23,0,0,1-1.4-1.8,18.2,18.2,0,0,1-1.6-7.6c0-4.4-.4-10,1.4-12.8,1.6-2.2,50.216-6,54.217-2.8l.6.6c1.6,2.2.2,5-.2,5.6m2-5.8a7.411,7.411,0,0,0-3.6-1.6c-1.6-.4-6.8-1.2-11.8-1.8-3-.4-7.8-.6-11.4-.8a13.708,13.708,0,0,0,6-5c2.2-4.4-.8-8.4-6.6-9.2-6-.8-12.4,2-14.6,6.4-2,3.8.2,7.6,5,9-3.8.8-8.4,1.6-10.8,2.2-4.2,1-8.4,2.2-9.2,3-1,.8-3,5.4-4,11.2s-.6,12.8,3.4,18.806a4.554,4.554,0,0,0,1.8,1.6c1,.4,2.8,0,4.2-1s4.2-3.2,7-5.2c2.6-2,5-3.8,5-3.8a68.871,68.871,0,0,0,9.4,6.8,36.914,36.914,0,0,0,13,5.2c2.6.4,3.6.6,4,.6a5.6,5.6,0,0,0,1.2-.2,6.226,6.226,0,0,0,1.2-.8h0l.2-.2c1.4-1.4,2.2-4.2,2.6-5,.6-1.2,2.2-4.2,4.8-10.4s5-12.6,5.2-14.8a7.3,7.3,0,0,0-2-5" transform="translate(6.103 1.628)"/>
    <path id="Path_1436" data-name="Path 1436" class="cls-1" d="M59.2,24.107c5,0,9-4.2,9-9.8a9.062,9.062,0,0,0-9-9.4A9.224,9.224,0,0,0,50,14.3c0,5.6,4.2,9.8,9.2,9.8M59.2,1.7a12.308,12.308,0,0,1,12.6,12.6,12.708,12.708,0,1,1-25.408,0A12.474,12.474,0,0,1,59.2,1.7" transform="translate(46.46 1.696)"/>
    <path id="Path_1437" data-name="Path 1437" class="cls-1" d="M59.6,5.4h3.6l3.6,12.4c.2,1,.4,1.8.4,1.8h0s.2-1,.4-1.8L71.4,5.4h3.2l3.8,12.4c.2,1,.4,1.8.4,1.8h0s.2-1,.4-1.8l3.8-12.4h3.6l-5.8,17.806h-3.8L73.4,11.8l-.4-2h0l-.4,2L69,23.206H65.2Z" transform="translate(59.669 5.399)"/>
    <path id="Path_1438" data-name="Path 1438" class="cls-1" d="M86.8,12.4c-.2-3-2-4.6-4.2-4.6-2.6,0-4.6,1.6-5.2,4.6ZM82.6,5.2c5,0,7.6,3.8,7.6,8.2a11.282,11.282,0,0,1-.2,1.4H77a5.83,5.83,0,0,0,6,5.8,8.512,8.512,0,0,0,5.2-2l1.4,2.4a10.245,10.245,0,0,1-6.8,2.6,8.987,8.987,0,0,1-9.4-9.2c.2-5.6,4-9.2,9.2-9.2" transform="translate(73.477 5.199)"/>
    <path id="Path_1439" data-name="Path 1439" class="cls-1" d="M83.3,5.6h3.2V9.2h0a7.178,7.178,0,0,1,6.6-4c4.2,0,6,2.2,6,6.8v11.4H95.7V12.8c0-2.4-.6-4.4-3.4-4.4a5.948,5.948,0,0,0-5.6,4.4,8.969,8.969,0,0,0-.2,2.4v8.2H83.1V5.6Z" transform="translate(83.184 5.199)"/>
    <path id="Path_1440" data-name="Path 1440" class="cls-1" d="M94,18.8a7.654,7.654,0,0,0,5,2c1.4,0,3-.8,3-2.2,0-3.2-9-2.6-9-8.4,0-3.2,2.8-5,6.4-5a8.517,8.517,0,0,1,5.8,2l-1.4,2.6a6.535,6.535,0,0,0-4.4-1.6c-1.4,0-3,.6-3,2.2,0,3.2,9,2.4,9,8.2,0,3-2.6,5.2-6.4,5.2a9.649,9.649,0,0,1-6.8-2.6Z" transform="translate(92.289 5.199)"/>
    <path id="Path_1441" data-name="Path 1441" class="cls-1" d="M108.5,24.107c2.8,0,5.2-2.4,5.2-6.4,0-3.8-2-6.4-5-6.4-2.6,0-5.2,1.8-5.2,6.4,0,3.2,1.6,6.4,5,6.4M100.1,1.9h3.4v9.6h0a6.383,6.383,0,0,1,5.6-3c4.8,0,7.8,3.8,7.8,9.2,0,5.6-3.4,9.2-8,9.2a6.383,6.383,0,0,1-5.6-3h0v2.6h-3.2Z" transform="translate(100.194 1.896)"/>
    <path id="Path_1442" data-name="Path 1442" class="cls-1" d="M118.9,20.8c3.4,0,6-2.6,6-6.4a6.065,6.065,0,0,0-6-6.2,5.944,5.944,0,0,0-6,6.2,5.889,5.889,0,0,0,6,6.4m0-15.6c5.2,0,9.6,3.8,9.6,9.2a9.315,9.315,0,0,1-9.6,9.4,9.435,9.435,0,0,1-9.6-9.4c0-5.4,4.2-9.2,9.6-9.2" transform="translate(109.4 5.199)"/>
    <path id="Path_1443" data-name="Path 1443" class="cls-1" d="M120.3,5.5h3.2V9.9h0c.8-2.6,2.8-4.6,5.6-4.6h.8V8.7a2.428,2.428,0,0,0-1-.2c-2.2,0-4.2,1.6-5,4.2a8.293,8.293,0,0,0-.4,3.2v7.2h-3.4V5.5Z" transform="translate(120.207 5.299)"/>
    <path id="Path_1444" data-name="Path 1444" class="cls-1" d="M134.7,20.8c3.4,0,6-2.6,6-6.4a6.065,6.065,0,0,0-6-6.2,5.944,5.944,0,0,0-6,6.2,5.889,5.889,0,0,0,6,6.4m0-15.6c5.2,0,9.6,3.8,9.6,9.2a9.315,9.315,0,0,1-9.6,9.4,9.435,9.435,0,0,1-9.6-9.4c0-5.4,4.2-9.2,9.6-9.2" transform="translate(125.21 5.199)"/>
    <path id="Path_1445" data-name="Path 1445" class="cls-1" d="M48.3,17.5h2.8v8.6H61.3V17.5h2.6V37.106H61.3V28.5H51.1v8.6H48.3Z" transform="translate(48.361 17.506)"/>
    <path id="Path_1446" data-name="Path 1446" class="cls-1" d="M67.608,25.7a3.309,3.309,0,0,0-3.4-3.6,4.094,4.094,0,0,0-4.2,3.6Zm-3.4-5.6c4,0,6,3,6,6.6v1.2h-10.2a4.679,4.679,0,0,0,4.8,4.6,6.99,6.99,0,0,0,4.2-1.6l1.2,2a8.059,8.059,0,0,1-5.4,2,7.145,7.145,0,0,1-7.4-7.4c-.2-4.6,2.8-7.4,6.8-7.4" transform="translate(57.462 20.108)"/>
    <path id="Path_1447" data-name="Path 1447" class="cls-1" d="M70.3,32.6c2.2,0,3.8-2.4,3.8-4.4v-.4h-.6c-2,0-5.8.2-5.8,2.6-.2,1,.8,2.2,2.6,2.2m3-7h.6v-.2c0-2.4-1.4-3-3-3a7.305,7.305,0,0,0-4,1.4l-1.2-2a8.874,8.874,0,0,1,5.2-1.6c3.6,0,5.6,2,5.6,5.6v9H73.9V32.2h0A5.026,5.026,0,0,1,69.3,35c-2.4,0-4.8-1.4-4.8-4.2.4-5,6.4-5.2,8.8-5.2" transform="translate(64.572 20.208)"/>
    <path id="Path_1448" data-name="Path 1448" class="cls-1" d="M72.2,17.5H75V32.9c0,1.6.6,2,1.6,2H77v2.4h-.8c-1.6,0-3.8-.4-3.8-4V17.5Z" transform="translate(72.277 17.506)"/>
    <path id="Path_1449" data-name="Path 1449" class="cls-1" d="M76.9,24.5H75.1V22.3h2v-4h2.6v4h3.4v2.2H79.7v6.2c0,2.8,2,3.2,3,3.2h.6v2.4h-1c-1.8,0-5.4-.6-5.4-5.2V24.5Z" transform="translate(75.178 18.307)"/>
    <path id="Path_1450" data-name="Path 1450" class="cls-1" d="M80.4,17.5h2.8v8.4h0a5.652,5.652,0,0,1,5.2-3.2c3.4,0,4.8,1.8,4.8,5.4v9H90.6V28.7c0-2-.4-3.6-2.6-3.6a4.506,4.506,0,0,0-4.4,3.4,5.539,5.539,0,0,0-.2,1.8v6.6H80.6V17.5Z" transform="translate(80.482 17.506)"/>
  </g>
</svg>
