<svg xmlns="http://www.w3.org/2000/svg" width="141.25" height="91.264" viewBox="0 0 141.25 91.264"><g transform="translate(0 1.25)"><g transform="translate(85.6)"><path d="M192.126,61.874c-2.055,4.3-4.671,12.144.56,20.552s18.87,15.881,21.112,26.53-4.3,16.068-4.3,16.068c2.615-12.7.408-19.148-13.639-28.959C184.092,87.843,181.1,71.4,192.126,61.874Z" transform="translate(-185.262 -36.259)" fill="#fff" stroke="#fff" stroke-linecap="round" stroke-linejoin="round" stroke-width="2.5"/><path d="M228.434,57.156l20.45-1.778L229.8,47.823l17.661-10.4-20.55,1.516,11.476-17.078L220.675,32.181l2.783-20.408-11.65,17.371L205.629,9.164,203.2,33.717l.122.092a16.645,16.645,0,1,1,10.825,31.48l-1.566.382c1.234,1.17,2.47,2.355,3.654,3.567a25.821,25.821,0,0,1,2.151,2.314,35.81,35.81,0,0,1,2.757,3.527l8.077,9.406-6.1-19.643,19.255,7.334Z" transform="translate(-194.484 -9.164)" fill="#fff" stroke="#fff" stroke-linecap="round" stroke-linejoin="round" stroke-width="2.5"/><path d="M198.643,63.157c-1.826,4.492-3.316,11.47,1.3,18.885,1.851,2.975,4.756,5.833,7.835,8.756a11.067,11.067,0,0,0,1.589-.1,15.06,15.06,0,1,0-10.185-28.258Q198.9,62.8,198.643,63.157Z" transform="translate(-191.233 -35.875)" fill="#fff" stroke="#fff" stroke-linecap="round" stroke-linejoin="round" stroke-width="2.5"/></g><path d="M192.126,61.874c-2.055,4.3-4.671,12.144.56,20.552s18.87,15.881,21.112,26.53-4.3,16.068-4.3,16.068c2.615-12.7.408-19.148-13.639-28.959C184.092,87.843,181.1,71.4,192.126,61.874Z" transform="translate(-99.662 -36.259)" fill="#004e94"/><path d="M228.434,57.156l20.45-1.778L229.8,47.823l17.661-10.4-20.55,1.516,11.476-17.078L220.675,32.181l2.783-20.408-11.65,17.371L205.629,9.164,203.2,33.717l.122.092a16.645,16.645,0,1,1,10.825,31.48l-1.566.382c1.234,1.17,2.47,2.355,3.654,3.567a25.821,25.821,0,0,1,2.151,2.314,35.81,35.81,0,0,1,2.757,3.527l8.077,9.406-6.1-19.643,19.255,7.334Z" transform="translate(-108.884 -9.164)" fill="#ed3729"/><path d="M198.643,63.157c-1.826,4.492-3.316,11.47,1.3,18.885,1.851,2.975,4.756,5.833,7.835,8.756a11.067,11.067,0,0,0,1.589-.1,15.06,15.06,0,1,0-10.185-28.258Q198.9,62.8,198.643,63.157Z" transform="translate(-105.632 -35.875)" fill="#ffe40f"/><g transform="translate(0 22.54)"><g transform="translate(11.049 25.411)"><path d="M43.987,109.678c-4.335,0-7.212,4.2-7.212,10.939,0,7,3.35,9.658,7.212,9.658v1.84c-6.975,0-12.137-2.858-12.137-11.629,0-7.72,4.926-12.648,12.137-12.648Z" transform="translate(-31.85 -107.838)" fill="#fff"/><path d="M69.069,131.974c0,4.074-2.916,8.377-7.408,8.377-4.65,0-7.093-4.369-7.093-8.344,0-3.745,2.443-8.147,7.093-8.147C66.153,123.86,69.069,127.507,69.069,131.974ZM61.7,138.807c2.325,0,3.192-3.744,3.152-6.8,0-3.745-.827-6.6-3.152-6.6-2.365,0-2.877,2.924-2.877,6.636C58.823,135.785,59.375,138.807,61.7,138.807Z" transform="translate(-43.528 -116.074)" fill="#fff"/><path d="M90.425,134.538c0,2.858-.079,3.843,1.419,3.843,2.8,0,3.428-3.022,3.428-5.847v-7.458h4.256v15.408h-4.3v-1.938a7.1,7.1,0,0,1-5.123,2.431c-3.349,0-3.9-2.069-3.9-5.158V125.076h4.216Z" transform="translate(-59.793 -116.699)" fill="#fff"/><path d="M120.059,139.859h-4.217v-15.44h4.217v1.807a6.139,6.139,0,0,1,5.359-2.365c2.719,0,3.941,1.413,3.941,3.318v12.681H125.1V128.689c0-1.709-.237-2.168-1.892-2.168a3.7,3.7,0,0,0-3.152,3.253Z" transform="translate(-75.026 -116.074)" fill="#fff"/><path d="M151.107,114.4v5.19h3.7l-.788,1.577h-2.916v13.831H146.89V121.163H144.6l.788-1.577h1.5V114.4Z" transform="translate(-89.811 -111.209)" fill="#fff"/><path d="M171.031,125.076v9.4c0,2.99.433,4.3,2.325,4.3,2.522,0,2.759-2.3,2.759-4.994v-8.706h4.019v14.553c0,4.862-2.483,8.443-6.62,8.443-.591,0-1.616-.131-1.616-.131v-1.413c1.734,0,2.207-.132,3.192-1.38,1.261-1.676,1.025-5.782,1.025-5.782a7.89,7.89,0,0,1-4.177,1.609c-3.507,0-5.123-1.643-5.123-6.538v-9.363Z" transform="translate(-101.227 -116.699)" fill="#fff"/></g><path d="M44.564,65.26V80.668H40.348V65.26Zm0-4.928a2.141,2.141,0,0,1-2.246,2.2,2.251,2.251,0,1,1,.039-4.5A2.125,2.125,0,0,1,44.564,60.333Z" transform="translate(-25.028 -56.825)" fill="#fff"/><path d="M56.273,87.688H52.057V72.247h4.216v1.807a6.14,6.14,0,0,1,5.36-2.365c2.719,0,3.941,1.412,3.941,3.318V87.688H61.317V76.518c0-1.708-.237-2.168-1.891-2.168A3.7,3.7,0,0,0,56.273,77.6Z" transform="translate(-31.189 -63.845)" fill="#fff"/><path d="M86.191,80.493c0,4.271,1.38,6.012,4.808,6.012a16.324,16.324,0,0,0,3.074-.361v1.445a14.587,14.587,0,0,1-4.177.591c-4.729,0-7.96-2.3-7.96-8.081,0-3.876,1.773-8.41,6.384-8.41,5.084,0,6.187,4.172,6.187,8.8Zm0-2h4.1c0-2.924-.079-5.519-2.128-5.519C86.624,72.97,86.191,75.664,86.191,78.489Z" transform="translate(-46.547 -63.845)" fill="#fff"/><path d="M114.478,79.972h-4.216V56.68h4.216Z" transform="translate(-61.109 -56.129)" fill="#fff"/><path d="M126.481,79.972h-4.216V56.68h4.216Z" transform="translate(-67.279 -56.129)" fill="#fff"/><path d="M140.63,88.18c-5.675,0-8.039-2.629-8.039-5.914,0-3.712,4.138-6.044,8.985-6.34-.04-1.708-.473-2.595-2.838-2.595a13.607,13.607,0,0,0-2.956.492V72.28a16.133,16.133,0,0,1,4.3-.591c4.689,0,5.872,1.248,5.872,5.322V87.655A32.6,32.6,0,0,1,140.63,88.18Zm1.1-1.676V77.537a4.724,4.724,0,0,0-4.886,4.7C136.848,84.829,139.211,86.5,141.734,86.5Z" transform="translate(-72.587 -63.845)" fill="#fff"/><path d="M171.045,73.332c-1.537-.231-3.665-.066-3.665,1.773a6.427,6.427,0,0,0,1.3,3.055l.788,1.216c1.143,1.708,2.247,3.153,2.247,4.632,0,2.694-2.247,4.172-5.636,4.172a11.612,11.612,0,0,1-3.586-.624V86.045a15.344,15.344,0,0,0,2.561.493,2.3,2.3,0,0,0,2.4-2.2,5.842,5.842,0,0,0-1.34-2.99l-.591-.854a9.572,9.572,0,0,1-2.049-4.994c0-2.2,1.892-3.81,5.162-3.81a6.542,6.542,0,0,1,2.4.394Z" transform="translate(-87.958 -63.845)" fill="#fff"/><path d="M21.434,56.71c-2.674-2.256-7.081-.617-8.038-.153v-.534H9.114l.034,23.432H13.4V73.621a11.413,11.413,0,0,0,7.323-3.736C25.329,64.469,23.183,58.466,21.434,56.71ZM18.81,62.638c-.239,8.406-4.123,9.075-5.415,9.3V58.22c1.019-1.055,3.053-.255,3.507-.046C18.969,59.345,18.889,62.127,18.81,62.638Z" transform="translate(-9.114 -55.547)" fill="#fff"/></g></g></svg>