<svg id="Logo" xmlns="http://www.w3.org/2000/svg" width="610.05" height="293.034" viewBox="0 0 610.05 293.034">
  <g id="Icon">
    <rect id="Orange_Square" data-name="Orange Square" width="207.927" height="293.034" fill="#ff9200"/>
    <path id="P" d="M7.785,8.482H53.83c24.423,0,42.64,15.134,42.64,40.1S78.252,89.07,53.83,89.07H16.393v57H7.785ZM53.429,81.208c20.42,0,34.033-11.989,34.033-32.629S73.848,16.344,53.429,16.344H16.393V81.208Z" transform="translate(1.682 1.746)" fill="#fff"/>
    <path id="R" d="M7.785,121.482h41.04c13.011,0,19.618,1.376,25.224,4.128,11.611,5.7,19.419,17.3,19.419,33.021,0,19.656-11.612,34.4-28.027,37.935v.393a27.971,27.971,0,0,1,3.2,4.913l31.431,57.2H89.863L56.632,198.139H16.393v60.932H7.785Zm46.644,68.794c18.418,0,30.029-12.973,30.029-31.645,0-12.187-6.205-22.015-16.415-26.535-4-1.77-8.409-2.752-19.618-2.752H16.393v60.932Z" transform="translate(1.682 25.013)" fill="#fff"/>
    <path id="S" d="M94.092,238.245a54.39,54.39,0,0,0,37.435,15.332c17.417,0,31.23-10.614,31.23-27.124,0-39.116-71.668-28.3-71.668-71.35,0-18.28,16.616-35.577,42.04-35.577,22.821,0,35.633,12.775,35.633,12.775l-4.8,7.273A46.925,46.925,0,0,0,133.33,127.78c-20.82,0-33.232,13.759-33.232,27.125,0,36.363,71.668,25.159,71.668,71.153,0,19.85-15.614,35.773-40.638,35.773-27.626,0-42.841-17.1-42.841-17.1Z" transform="translate(19.072 24.611)" fill="#fff"/>
    <path id="_" data-name="&amp;" d="M217.513,28.624c-4.426,0-11.8,5.852-11.8,5.852S179.667,55.124,156.95,72.746c-3.08-5.638-6.366-11.331-9.512-17.238a32.78,32.78,0,0,1-3.944-13.4c11.076-3.239,21-5.874,28.607-18.225,12.029-19.519-16.354-22.348-28.72-1.841-4.124,6.837-6.372,12.86-6.711,19.357-5.781,1.934-11.491,3.778-16.3,5.817-18.236,7.737-40.305,30.465-27.52,54.009,9.457,17.414,43.055-7.557,43.055-7.557l14.516-11.354c.979,1.853,2,3.767,3.086,5.762,7.431,13.674,6.649,27.062,2.528,39.83-4.391,13.61-23.678,31.249-42.736,34.471-34.524,5.837-36.492-13.6-38.7-24.028,1.475,36.025,30.657,31.956,46.815,28.022,12.264-2.986,44.555-18.109,48.524-41.554,3.091-18.263-3.078-33.493-11.293-48.931l55-43.021s7.187,7.647,11.243,4.172-2.951-8.412-7.376-8.412M168.276,14.91c2.469,12.455-10.346,18.952-24.817,24.149.831-20.5,22.925-33.694,24.817-24.149M124.505,49.637a65.686,65.686,0,0,1,12.133-5.4,40.719,40.719,0,0,0,.923,7.225c-7.984,3.768-27.036,16.482-36.45,25.062,2.766-10.186,11.932-20.217,23.394-26.886m8.189,41.64c-21.206,15.727-28.408,3.548-28.408,3.548a20.348,20.348,0,0,1-3.744-8.66c4.152-12.733,27.7-26.3,37.717-31.858,1.87,6.885,5.343,14.819,10.482,24.784-6.153,4.738-11.733,8.986-16.048,12.186" transform="translate(16.115 1.627)" fill="#5b614a"/>
  </g>
  <g id="Text" transform="translate(232.4 150.311)">
    <g id="Surgeons" transform="translate(0 106.368)">
      <path id="Path_84" data-name="Path 84" d="M192.962,237.7a12.668,12.668,0,0,0,8.29,3.276c3.471,0,6.307-1.957,6.307-5.19,0-7.531-15.813-5.617-15.813-14.892,0-4.3,4.009-8.041,9.867-8.041a12.666,12.666,0,0,1,8.471,2.892l-1.532,2.469a11.115,11.115,0,0,0-6.939-2.553c-4.055,0-6.669,2.511-6.669,5.148,0,7.105,15.814,5.062,15.814,14.891,0,4.468-3.649,8.084-9.6,8.084a14.316,14.316,0,0,1-10.048-3.829Z" transform="translate(-191.114 -212.852)" fill="#5b614a"/>
      <path id="Path_85" data-name="Path 85" d="M211.9,213.275h3.154v19.444c0,5.148,3.513,8.253,8.966,8.253s9.01-3.105,9.01-8.34V213.275h3.111V232.76c0,6.637-4.911,10.935-12.075,10.935-7.209,0-12.165-4.3-12.165-10.935Z" transform="translate(-186.624 -212.765)" fill="#5b614a"/>
      <path id="Path_86" data-name="Path 86" d="M238.312,213.275h9.372c3.243,0,4.684.3,5.946.807a7.938,7.938,0,0,1,4.777,7.7,8.047,8.047,0,0,1-5.994,8.084v.084a11.332,11.332,0,0,1,.811,1.192l6.894,12.041h-3.559l-7.164-12.595h-7.973v12.595h-3.109Zm10.633,14.677c3.829,0,6.263-2.338,6.263-6.084a5.475,5.475,0,0,0-2.883-5.232,9.556,9.556,0,0,0-4.507-.725h-6.4v12.041Z" transform="translate(-180.918 -212.765)" fill="#5b614a"/>
      <path id="Path_87" data-name="Path 87" d="M275.044,212.852c7.344,0,11.263,3.489,11.263,3.489l-1.667,2.213a16.119,16.119,0,0,0-9.461-2.979c-7.66,0-12.841,5.574-12.841,12.679,0,7.36,5.362,12.806,12.57,12.806a14.09,14.09,0,0,0,9.958-4.381v-5.064h-5.408v-2.638h8.381v14.3h-2.883v-2.255c0-.638.045-1.277.045-1.277h-.09a14.5,14.5,0,0,1-10.317,4.042,15.225,15.225,0,0,1-15.5-15.486c0-8.638,6.849-15.444,15.949-15.444" transform="translate(-176.428 -212.852)" fill="#5b614a"/>
      <path id="Path_88" data-name="Path 88" d="M288.176,213.275h17.842v2.637H291.285V226.8h12.029v2.639H291.285v11.1h15.543v2.638H288.176Z" transform="translate(-170.146 -212.765)" fill="#5b614a"/>
      <path id="Path_89" data-name="Path 89" d="M322.717,212.852c8.966,0,16.129,6.678,16.129,15.274a16.137,16.137,0,0,1-32.259,0c0-8.6,7.164-15.274,16.129-15.274m0,28.207A12.8,12.8,0,0,0,335.6,228.126a12.889,12.889,0,0,0-25.77,0,12.77,12.77,0,0,0,12.885,12.933" transform="translate(-166.169 -212.852)" fill="#5b614a"/>
      <path id="Path_90" data-name="Path 90" d="M338.152,213.275h3.018L357.346,234.8c1.081,1.488,2.613,4.04,2.613,4.04h.09s-.27-2.467-.27-4.04V213.275h3.108v29.91h-3.018l-16.174-21.529c-1.082-1.488-2.614-4.042-2.614-4.042h-.09s.271,2.467.271,4.042v21.529h-3.109Z" transform="translate(-159.35 -212.765)" fill="#5b614a"/>
      <path id="Path_91" data-name="Path 91" d="M365.227,237.7a12.669,12.669,0,0,0,8.29,3.276c3.469,0,6.307-1.957,6.307-5.19,0-7.531-15.813-5.617-15.813-14.892,0-4.3,4.009-8.041,9.867-8.041a12.666,12.666,0,0,1,8.471,2.892l-1.532,2.469a11.115,11.115,0,0,0-6.939-2.553c-4.055,0-6.669,2.511-6.669,5.148,0,7.105,15.815,5.062,15.815,14.891,0,4.468-3.649,8.084-9.6,8.084a14.316,14.316,0,0,1-10.048-3.829Z" transform="translate(-153.9 -212.852)" fill="#5b614a"/>
    </g>
    <g id="Reconstructive" transform="translate(2.345 53.184)">
      <path id="Path_71" data-name="Path 71" d="M193.042,169.173h9.372c3.243,0,4.684.3,5.946.807a7.938,7.938,0,0,1,4.777,7.7,8.047,8.047,0,0,1-5.994,8.084v.084a11.346,11.346,0,0,1,.811,1.191l6.894,12.041h-3.559l-7.164-12.594h-7.973v12.594h-3.109Zm10.633,14.677c3.829,0,6.263-2.338,6.263-6.084a5.475,5.475,0,0,0-2.883-5.232,9.557,9.557,0,0,0-4.507-.725h-6.4V183.85Z" transform="translate(-193.042 -168.662)" fill="#5b614a"/>
      <path id="Path_72" data-name="Path 72" d="M215.565,169.172h17.841v2.637H218.675V182.7H230.7v2.638H218.675v11.1h15.543v2.639H215.565Z" transform="translate(-188.176 -168.662)" fill="#5b614a"/>
      <path id="Path_73" data-name="Path 73" d="M249.919,168.749c7.569,0,11.4,3.871,11.4,3.871l-1.667,2.171a15.349,15.349,0,0,0-9.641-3.319c-7.434,0-12.751,5.446-12.751,12.508A12.652,12.652,0,0,0,250.1,196.956a15.18,15.18,0,0,0,10.272-4l1.8,2.085a17.32,17.32,0,0,1-12.119,4.637c-9.372,0-16.039-6.934-16.039-15.656,0-8.679,6.849-15.274,15.9-15.274" transform="translate(-184.191 -168.749)" fill="#5b614a"/>
      <path id="Path_74" data-name="Path 74" d="M276.113,168.75c8.966,0,16.129,6.678,16.129,15.274a16.136,16.136,0,0,1-32.259,0c0-8.6,7.164-15.274,16.129-15.274m0,28.207A12.8,12.8,0,0,0,289,184.024a12.889,12.889,0,0,0-25.77,0,12.771,12.771,0,0,0,12.885,12.933" transform="translate(-178.581 -168.749)" fill="#5b614a"/>
      <path id="Path_75" data-name="Path 75" d="M291.547,169.173h3.018L310.741,190.7c1.081,1.487,2.613,4.039,2.613,4.039h.09s-.27-2.467-.27-4.039V169.173h3.108v29.91h-3.018l-16.174-21.53c-1.082-1.487-2.614-4.041-2.614-4.041h-.09s.271,2.466.271,4.041v21.53h-3.109Z" transform="translate(-171.762 -168.662)" fill="#5b614a"/>
      <path id="Path_76" data-name="Path 76" d="M318.622,193.6a12.669,12.669,0,0,0,8.29,3.276c3.47,0,6.308-1.957,6.308-5.19,0-7.531-15.813-5.617-15.813-14.892,0-4.3,4.009-8.041,9.867-8.041a12.665,12.665,0,0,1,8.471,2.892l-1.532,2.468a11.115,11.115,0,0,0-6.939-2.553c-4.055,0-6.669,2.511-6.669,5.148,0,7.105,15.814,5.062,15.814,14.89,0,4.468-3.649,8.084-9.6,8.084a14.316,14.316,0,0,1-10.048-3.829Z" transform="translate(-166.313 -168.749)" fill="#5b614a"/>
      <path id="Path_77" data-name="Path 77" d="M345.771,171.809h-11.4v-2.637h25.861v2.637H348.88v27.273h-3.109Z" transform="translate(-162.511 -168.662)" fill="#5b614a"/>
      <path id="Path_78" data-name="Path 78" d="M358.935,169.173h9.372c3.243,0,4.683.3,5.945.807a7.937,7.937,0,0,1,4.778,7.7,8.048,8.048,0,0,1-5.995,8.084v.084a11.443,11.443,0,0,1,.812,1.191l6.892,12.041H377.18l-7.164-12.594h-7.974v12.594h-3.108Zm10.632,14.677c3.829,0,6.262-2.338,6.262-6.084a5.473,5.473,0,0,0-2.883-5.232,9.55,9.55,0,0,0-4.507-.725h-6.4V183.85Z" transform="translate(-157.205 -168.662)" fill="#5b614a"/>
      <path id="Path_79" data-name="Path 79" d="M381.125,169.173h3.154v19.444c0,5.147,3.513,8.253,8.966,8.253s9.01-3.106,9.01-8.34V169.173h3.111v19.485c0,6.637-4.911,10.934-12.075,10.934-7.209,0-12.165-4.3-12.165-10.934Z" transform="translate(-152.411 -168.662)" fill="#5b614a"/>
      <path id="Path_80" data-name="Path 80" d="M421.7,168.749c7.569,0,11.4,3.871,11.4,3.871l-1.667,2.171a15.35,15.35,0,0,0-9.641-3.319c-7.433,0-12.751,5.446-12.751,12.508a12.652,12.652,0,0,0,12.841,12.977,15.18,15.18,0,0,0,10.272-4l1.8,2.085a17.32,17.32,0,0,1-12.119,4.637c-9.372,0-16.039-6.934-16.039-15.656,0-8.679,6.849-15.274,15.9-15.274" transform="translate(-147.081 -168.749)" fill="#5b614a"/>
      <path id="Path_81" data-name="Path 81" d="M441.646,171.809h-11.4v-2.637h25.861v2.637H444.755v27.273h-3.109Z" transform="translate(-141.799 -168.662)" fill="#5b614a"/>
      <rect id="Rectangle_316" data-name="Rectangle 316" width="3.109" height="29.91" transform="translate(318.316 0.511)" fill="#5b614a"/>
      <path id="Path_82" data-name="Path 82" d="M460.848,169.173h3.334l8.786,22.719c.586,1.533,1.217,3.872,1.217,3.872h.09s.63-2.339,1.216-3.872l8.786-22.719h3.333l-11.758,29.91h-3.244Z" transform="translate(-135.189 -168.662)" fill="#5b614a"/>
      <path id="Path_83" data-name="Path 83" d="M486.336,169.172h17.842v2.637H489.445V182.7h12.029v2.638H489.445v11.1h15.543v2.639H486.336Z" transform="translate(-129.683 -168.662)" fill="#5b614a"/>
    </g>
    <path id="_2" data-name="&amp;" d="M344.253,138.941v-.084a6.705,6.705,0,0,1-4.417-6.637c0-4.594,3.739-7.573,9.507-7.573a22.118,22.118,0,0,1,3.6.424l-.9,2.469a16.308,16.308,0,0,0-2.612-.3c-3.561,0-6.353,1.914-6.353,5.147,0,2,.9,5.4,6.8,5.4h6.667v-4.212h3.109v4.212h4.28v2.638h-4.28v4.381c0,7.149-4.144,10.765-10.5,10.765s-10.677-3.788-10.677-8.764a8.053,8.053,0,0,1,5.768-7.872m4.909,13.87c4.46,0,7.389-2.341,7.389-8.083v-4.3h-6.667c-5.5,0-8.2,2.467-8.2,6.212,0,3.4,2.793,6.168,7.479,6.168" transform="translate(-159.278 -124.646)" fill="#5b614a"/>
    <g id="Plastic" transform="translate(2.345 0.001)">
      <path id="Path_64" data-name="Path 64" d="M193.042,125.07H203.99c5.678,0,9.777,3.489,9.777,9.019,0,5.575-4.1,9.149-9.777,9.149h-7.838V154.98h-3.109Zm10.543,15.53c4.234,0,6.984-2.425,6.984-6.511,0-4.041-2.749-6.382-6.939-6.382h-7.479V140.6Z" transform="translate(-193.042 -124.56)" fill="#5b614a"/>
      <path id="Path_65" data-name="Path 65" d="M214.454,125.07h3.109v27.271h14.687v2.639h-17.8Z" transform="translate(-188.416 -124.56)" fill="#5b614a"/>
      <path id="Path_66" data-name="Path 66" d="M249.251,145.45H236.5l-3.6,9.529h-3.289l11.625-29.909h3.334l11.624,29.909H252.9Zm-6.4-17.273s-.676,2.466-1.216,3.87L237.4,142.9h10.9l-4.145-10.851c-.541-1.4-1.216-3.87-1.216-3.87Z" transform="translate(-185.143 -124.56)" fill="#5b614a"/>
      <path id="Path_67" data-name="Path 67" d="M254.9,149.493a12.669,12.669,0,0,0,8.29,3.276c3.469,0,6.307-1.957,6.307-5.19,0-7.531-15.813-5.617-15.813-14.892,0-4.3,4.009-8.041,9.867-8.041a12.667,12.667,0,0,1,8.471,2.892l-1.532,2.469a11.115,11.115,0,0,0-6.939-2.553c-4.056,0-6.669,2.511-6.669,5.148,0,7.105,15.815,5.062,15.815,14.89,0,4.468-3.649,8.084-9.6,8.084a14.316,14.316,0,0,1-10.048-3.829Z" transform="translate(-180.077 -124.647)" fill="#5b614a"/>
      <path id="Path_68" data-name="Path 68" d="M282.051,127.707h-11.4V125.07h25.861v2.637H285.16V154.98h-3.109Z" transform="translate(-176.276 -124.56)" fill="#5b614a"/>
      <rect id="Rectangle_315" data-name="Rectangle 315" width="3.109" height="29.91" transform="translate(124.244 0.51)" fill="#5b614a"/>
      <path id="Path_69" data-name="Path 69" d="M318.751,124.647c7.569,0,11.4,3.871,11.4,3.871l-1.667,2.171a15.349,15.349,0,0,0-9.641-3.319c-7.434,0-12.751,5.446-12.751,12.508a12.652,12.652,0,0,0,12.841,12.977,15.179,15.179,0,0,0,10.272-4l1.8,2.085a17.32,17.32,0,0,1-12.119,4.637c-9.372,0-16.039-6.934-16.039-15.656,0-8.679,6.849-15.274,15.9-15.274" transform="translate(-169.321 -124.647)" fill="#5b614a"/>
    </g>
  </g>
</svg>
