<svg width="167" height="106" viewBox="0 0 167 106" fill="none" xmlns="http://www.w3.org/2000/svg">
<g clip-path="url(#clip0)">
<g clip-path="url(#clip1)">
<path d="M79.7028 92.6401V94.104H76.6173V105.395H75.2742V94.1528H72.1523V92.6401H79.7028Z" fill="#1C4910"/>
<path d="M156.169 45.3393H98.7603L101.882 42.0506C105.159 38.7586 108.23 35.2378 111.075 31.5111C112.161 30.0847 112.916 28.4009 113.277 26.5989C113.638 24.7968 113.596 22.9282 113.153 21.1473C112.822 19.5171 112.057 18.0256 110.952 16.8544C109.846 15.6832 108.448 14.8827 106.928 14.5504C105.764 14.3147 104.582 14.1971 103.398 14.199C102.898 14.199 102.399 14.199 101.873 14.199L115.358 0L156.196 45.1637L156.169 45.3393Z" fill="#174A0B"/>
<path d="M96.7906 84.5797H87.0531V63.9789C87.0518 63.3268 87.0185 62.6754 86.9533 62.0271C86.7536 60.0754 85.8552 59.3142 84.0765 59.6362C82.7219 59.9032 81.437 60.4825 80.3104 61.3342C80.2043 61.4499 80.1208 61.5871 80.0647 61.7379C80.0085 61.8888 79.981 62.0501 79.9837 62.2125C79.9837 69.447 79.9837 76.6848 79.9837 83.9258V84.5504H70.2734V53.01H78.9401L79.5027 55.8108C80.1017 55.4497 80.6734 55.0984 81.2542 54.7666C83.1921 53.504 85.3575 52.699 87.6067 52.4049C90.6287 52.1707 93.2877 53.01 95.1117 55.8498C95.3477 56.2109 95.5292 56.3182 96.0192 56.0352C98.9323 54.1713 101.909 52.3952 105.421 52.3561C107.393 52.2824 109.317 53.0145 110.807 54.405C112.297 55.7955 113.242 57.7413 113.452 59.8509C113.555 60.6495 113.603 61.4551 113.598 62.2613C113.598 69.4698 113.598 76.6848 113.598 83.9063C113.598 84.121 113.598 84.3259 113.598 84.5602H103.851V83.3598C103.851 76.6653 103.851 69.9708 103.851 63.2762C103.847 62.585 103.764 61.8968 103.606 61.2269C103.534 60.7238 103.282 60.2708 102.904 59.9646C102.526 59.6583 102.052 59.523 101.582 59.5874C99.9414 59.7378 98.3712 60.3727 97.0447 61.4221C96.9638 61.5199 96.902 61.6343 96.863 61.7583C96.824 61.8824 96.8087 62.0136 96.8178 62.1442C96.8178 66.5552 96.8178 70.9694 96.8178 75.3869C96.8178 78.2267 96.8178 81.0763 96.8178 83.9258L96.7906 84.5797Z" fill="#17490B"/>
<path d="M44.3101 42.0312L82.3434 1.47363C85.7738 5.62112 89.186 9.73933 92.6072 13.8868C91.3912 13.9649 90.2296 13.9942 89.0771 14.121C87.3393 14.3176 85.6912 15.0496 84.3308 16.2289C83.9022 16.6274 83.5374 17.0988 83.2509 17.6244C80.9005 21.362 80.3378 25.3729 82.0802 29.5204C82.3579 30.0099 82.4541 30.5937 82.3499 31.156C82.2457 31.7183 81.9485 32.2178 81.5176 32.5554C78.8949 35.3854 76.3902 38.3423 73.8492 41.2602C73.7182 41.433 73.5516 41.5706 73.3626 41.6621C73.1736 41.7535 72.9673 41.7964 72.7602 41.7872C65.8541 41.8555 58.948 41.9531 52.042 42.0312C49.51 42.0604 46.9509 42.0312 44.3101 42.0312Z" fill="#174A0B"/>
<path d="M57.8589 84.0816V79.8561L56.7336 81.5931C56.2064 82.4183 55.5218 83.1131 54.7253 83.6314C53.9288 84.1497 53.0387 84.4795 52.1144 84.5988C50.6063 84.8547 49.0667 84.8017 47.5769 84.4427C46.3832 84.1657 45.2984 83.4983 44.4714 82.5321C43.6444 81.5659 43.1157 80.3482 42.9577 79.0461C42.7376 77.3252 42.6164 75.5913 42.5947 73.8544C42.5947 66.7695 42.5947 59.6749 42.5947 52.59V52.1216H50.9165C50.9165 52.4534 50.9165 52.7461 50.9165 53.0487C50.9165 60.049 50.9165 67.0493 50.9165 74.0496C50.9288 74.504 50.9682 74.9571 51.0345 75.406C51.2704 77.2505 52.1416 78.0019 53.884 77.8848C54.3398 77.91 54.7953 77.8302 55.22 77.6508C55.6448 77.4714 56.0289 77.1965 56.3469 76.8444C56.6648 76.4924 56.9091 76.0714 57.0634 75.6096C57.2178 75.1477 57.2786 74.6558 57.2418 74.1667C57.3235 71.4049 57.3598 68.6432 57.3688 65.8815C57.3688 61.5193 57.3688 57.1474 57.3688 52.7754V52.1118H65.6634V84.0816H57.8589Z" fill="#184A0C"/>
<path d="M97.2992 20.3859C98.2346 19.0495 99.4066 17.9252 100.748 17.0777C104.232 14.9112 109.396 16.619 110.839 20.0053C111.328 21.1777 111.581 22.4481 111.581 23.7332C111.581 25.0182 111.328 26.2886 110.839 27.461C110.184 29.2348 109.202 30.848 107.953 32.2038L97.272 43.9143L95.2482 41.826C92.4531 38.8886 89.6853 36.0488 86.8902 33.1797C85.0484 31.3926 83.7516 29.049 83.1694 26.4559C82.8176 24.9443 82.8712 23.3564 83.3242 21.8762C83.7771 20.396 84.6108 19.0842 85.7286 18.0926C86.8245 17.1219 88.1537 16.505 89.5623 16.3133C90.9708 16.1216 92.4011 16.3629 93.6873 17.0094C95.2546 17.5855 96.5506 18.7971 97.2992 20.3859Z" fill="#870F28"/>
<path d="M143.454 76.3527C144.952 77.026 146.358 77.7384 147.819 78.3044C150.186 79.2302 152.752 79.3997 155.206 78.7924C155.732 78.6485 156.234 78.4181 156.695 78.1092C156.986 77.9296 157.23 77.6744 157.405 77.3669C157.581 77.0595 157.681 76.7097 157.699 76.3495C157.716 75.9893 157.649 75.6303 157.503 75.3052C157.358 74.9801 157.139 74.6994 156.867 74.4887C155.953 73.8617 154.98 73.3415 153.963 72.9371C151.976 72.049 149.87 71.405 147.974 70.351C146.875 69.7502 145.913 68.8984 145.153 67.8553C144.393 66.8121 143.855 65.6029 143.575 64.3123C143.296 63.0217 143.283 61.6811 143.536 60.3844C143.79 59.0877 144.304 57.8663 145.042 56.8058C146.465 54.7486 148.514 53.2943 150.832 52.6973C154.557 51.6364 158.465 51.5628 162.221 52.4827C162.975 52.6486 163.71 52.8437 164.445 53.0779C164.534 53.1188 164.612 53.1831 164.673 53.2649C164.733 53.3468 164.773 53.4435 164.79 53.5464C164.79 55.9373 164.79 58.3282 164.79 60.8362L164.173 60.5239C161.513 59.0078 158.482 58.4178 155.497 58.8356C154.824 58.9524 154.178 59.204 153.591 59.5773C153.301 59.7472 153.055 59.9918 152.874 60.2893C152.693 60.5867 152.584 60.9277 152.556 61.2817C152.528 61.6357 152.583 61.9916 152.714 62.3175C152.846 62.6434 153.05 62.9291 153.31 63.149C154.416 64.0672 155.685 64.7315 157.04 65.1008C159.34 65.8073 161.525 66.8902 163.519 68.3114C164.593 69.1533 165.443 70.2825 165.986 71.5869C166.529 72.8913 166.745 74.3256 166.614 75.7476C166.459 80.7636 163.147 83.8767 158.963 85.0868C153.99 86.4866 148.742 86.2727 143.881 84.472C143.708 84.4134 143.472 84.189 143.472 84.0328C143.445 81.437 143.454 78.8802 143.454 76.3527Z" fill="#174A0B"/>
<path d="M38.7471 84.2575H29.79V37.4153L38.7743 35.6392L38.7471 84.2575Z" fill="#174A0C"/>
<path d="M94.7943 43.7681H74.5752L84.9116 33.4238L94.8397 43.6022L94.7943 43.7681Z" fill="#194A0D"/>
<path d="M93.2609 97.8513V92.6499H94.5223V105.395H93.3153V99.442H88.324V105.395H87.0898V92.6401H88.2968V97.8513H93.2609Z" fill="#1E4B11"/>
<path d="M68.0959 96.407L66.9978 96.7778C66.8707 96.4363 66.7528 96.1045 66.6166 95.8019C66.4489 95.3749 66.1828 95.0008 65.8435 94.7149C65.5043 94.4289 65.1029 94.2404 64.6772 94.1672C64.2515 94.094 63.8156 94.1385 63.4103 94.2964C63.005 94.4544 62.6437 94.7206 62.3605 95.07C61.7594 95.8057 61.3936 96.7292 61.3168 97.7049C61.1054 99.2331 61.2107 100.793 61.6254 102.272C62.2516 104.292 64.1482 105.141 65.6728 104.077C66.3162 103.587 66.7609 102.85 66.9161 102.018C66.9796 101.784 67.025 101.56 67.0885 101.277L68.4861 101.745C68.162 102.664 67.761 103.549 67.2882 104.39C66.9184 104.925 66.4321 105.354 65.8719 105.64C65.3117 105.925 64.6948 106.059 64.0755 106.028C63.4562 105.997 62.8534 105.803 62.3202 105.463C61.7869 105.123 61.3395 104.647 61.0174 104.077C59.5926 101.774 59.4837 96.7973 61.1172 94.4943C61.5816 93.8065 62.2174 93.2738 62.9512 92.9579C63.685 92.6419 64.4869 92.5554 65.2645 92.7084C66.0266 92.9491 66.7039 93.4303 67.2087 94.0898C67.7136 94.7492 68.0226 95.5565 68.0959 96.407Z" fill="#1F4B12"/>
<path d="M111.973 103.268C112.963 103.98 114.131 104.351 115.322 104.331C115.476 104.346 115.631 104.346 115.785 104.331C116.165 104.312 116.529 104.165 116.827 103.912C117.125 103.658 117.342 103.31 117.446 102.916C117.546 102.493 117.511 102.045 117.347 101.645C117.182 101.245 116.897 100.916 116.538 100.711C115.903 100.252 115.204 99.8911 114.542 99.4715C114.151 99.2275 113.761 98.9738 113.38 98.7006C112.918 98.3867 112.547 97.9388 112.311 97.4083C112.074 96.8779 111.982 96.2865 112.045 95.7022C112.107 95.1179 112.322 94.5645 112.664 94.1057C113.006 93.6469 113.462 93.3013 113.979 93.1088C115.259 92.593 116.659 92.5348 117.972 92.9429C118.051 92.9527 118.127 92.9805 118.194 93.0246C118.262 93.0686 118.32 93.1278 118.365 93.1981C118.41 93.2684 118.44 93.3482 118.454 93.4321C118.467 93.516 118.464 93.6021 118.444 93.6845C118.426 93.9802 118.426 94.2769 118.444 94.5726C117.6 94.3969 116.783 94.1822 115.948 94.0749C115.519 94.0338 115.087 94.0869 114.678 94.231C114.368 94.3184 114.088 94.4998 113.871 94.7536C113.655 95.0074 113.51 95.3228 113.456 95.6623C113.401 96.0018 113.439 96.351 113.564 96.6682C113.689 96.9854 113.896 97.2573 114.161 97.4514C115.068 98.0565 115.976 98.5835 116.883 99.1592C117.335 99.389 117.738 99.7151 118.069 100.118C118.4 100.52 118.651 100.991 118.807 101.501C118.927 101.942 118.957 102.405 118.895 102.859C118.833 103.313 118.681 103.748 118.448 104.132C118.215 104.517 117.908 104.843 117.547 105.088C117.186 105.333 116.78 105.491 116.357 105.551C115.149 105.806 113.902 105.735 112.727 105.346C112.164 105.171 111.819 104.897 111.964 104.224C111.993 103.906 111.996 103.586 111.973 103.268Z" fill="#1F4B13"/>
<path d="M19.9708 103.258C21.032 104.048 22.3141 104.42 23.6008 104.312C24.7352 104.195 25.4158 103.551 25.4158 102.526C25.4406 102.159 25.3685 101.793 25.208 101.468C25.0474 101.143 24.8049 100.874 24.5083 100.691C23.6916 100.135 22.8294 99.657 21.9945 99.13C21.7173 98.9687 21.4532 98.7826 21.205 98.5738C20.7811 98.2627 20.4422 97.8353 20.2236 97.3359C20.0051 96.8366 19.9147 96.2834 19.9619 95.7338C20.0091 95.1843 20.1922 94.6583 20.4922 94.2104C20.7921 93.7626 21.1981 93.4092 21.6678 93.1869C23.029 92.5372 24.5673 92.4606 25.9785 92.9722C26.0783 93.031 26.1645 93.1133 26.2305 93.213C26.2965 93.3128 26.3407 93.4273 26.3596 93.548C26.3923 93.9408 26.3923 94.336 26.3596 94.7288C25.4752 94.1791 24.4554 93.9339 23.4375 94.0262C23.0723 94.0208 22.7123 94.119 22.3936 94.3109C22.075 94.5027 21.809 94.7815 21.6225 95.1191C21.4285 95.5069 21.3787 95.9594 21.4832 96.3851C21.5876 96.8109 21.8385 97.1781 22.1851 97.4125C23.0472 98.037 24.0001 98.525 24.9076 99.1105C25.405 99.3635 25.8424 99.7349 26.1867 100.196C26.531 100.658 26.7732 101.198 26.895 101.775C27.0324 102.52 26.9118 103.293 26.5557 103.949C26.1997 104.605 25.6329 105.099 24.9621 105.337C23.5231 105.812 21.9802 105.778 20.5607 105.239C20.4721 105.227 20.387 105.194 20.3108 105.144C20.2346 105.094 20.1691 105.027 20.1186 104.948C20.0681 104.869 20.0336 104.779 20.0176 104.685C20.0015 104.59 20.0041 104.493 20.0253 104.4C20.026 104.018 20.0078 103.637 19.9708 103.258Z" fill="#1E4A12"/>
<path d="M146.73 92.6401V94.104H143.636V105.395H142.32V94.1528H139.198V92.6401H146.73Z" fill="#1C4910"/>
<path d="M30.6978 94.1918V92.6401H38.2028V94.143H35.081V105.453H33.8468V94.1918H30.6978Z" fill="#1B480D"/>
<path d="M166.75 103.951V105.395H160.815V92.6401H162.049V103.951H166.75Z" fill="#214C14"/>
<path d="M14.208 92.6401H15.3242V105.463H14.208V92.6401Z" fill="#1E4811"/>
<path d="M134.271 92.6401H135.387V105.453H134.271V92.6401Z" fill="#1F4B13"/>
<path d="M25.9421 45.1148C25.3426 43.6787 24.4426 42.4109 23.3123 41.4105C22.1821 40.41 20.8521 39.704 19.4263 39.3474C17.6994 38.9015 15.9369 38.6336 14.1627 38.5472C9.82489 38.43 5.55057 38.4886 1.23994 38.4788C1.15534 38.4725 1.07044 38.4725 0.98584 38.4788V84.1402H9.04445V66.8672C9.61617 66.8672 10.0971 66.8672 10.5781 66.8672C12.9558 66.7305 15.3425 66.7013 17.702 66.389C19.3757 66.2448 20.989 65.6511 22.3938 64.6621C23.7986 63.6732 24.9501 62.3208 25.7425 60.7289C27.0047 58.3582 27.6853 55.6811 27.7202 52.9496C27.7551 50.2181 27.1432 47.5219 25.9421 45.1148ZM18.5732 56.5326C18.2861 57.3271 17.7898 58.0142 17.1451 58.51C16.5003 59.0057 15.7351 59.2885 14.9432 59.3236C13.0102 59.5871 11.0591 59.6359 9.04445 59.7725V45.5832C9.10797 45.5832 9.13519 45.5052 9.17149 45.5052C10.923 45.5052 12.6835 45.5637 14.435 45.6125C15.3444 45.6239 16.2275 45.9417 16.9601 46.5211C17.6927 47.1006 18.2378 47.9126 18.5188 48.8427C19.4571 51.3028 19.4766 54.0574 18.5732 56.5326Z" fill="#174A0B"/>
<path d="M141.14 66.6526C141.128 65.2208 141.016 63.7919 140.805 62.3782C140.546 60.2053 139.645 58.1791 138.235 56.598C136.826 55.0168 134.981 53.9643 132.973 53.5953C130.371 53.0424 127.695 53.0259 125.087 53.5465C122.869 53.8914 120.703 54.5475 118.643 55.4983C118.444 55.5958 118.181 55.8593 118.181 56.0448C118.181 58.26 118.181 60.4655 118.181 62.8076L118.916 62.3489C121.831 60.3944 125.231 59.4413 128.662 59.6165C131.385 59.7726 133.091 61.7927 132.828 64.5935C131.385 64.7984 129.924 64.9838 128.472 65.2278C126.366 65.5888 124.234 65.8719 122.164 66.4183C120.981 66.6798 119.864 67.2104 118.887 67.9745C117.91 68.7387 117.097 69.7187 116.502 70.8488C115.45 73.0026 115.105 75.4746 115.522 77.8654C115.675 79.2104 116.138 80.4931 116.868 81.5972C117.599 82.7014 118.574 83.5922 119.705 84.1891C121.308 84.9821 123.074 85.3182 124.833 85.165C126.313 85.1495 127.767 84.7427 129.066 83.9802C130.365 83.2178 131.47 82.1232 132.283 80.7931C132.428 80.5588 132.601 80.3344 132.864 79.9636V84.3941H141.149C141.149 84.1794 141.149 84.0037 141.149 83.8378C141.158 78.1387 141.177 72.3907 141.14 66.6526ZM131.267 76.7822C129.651 78.6266 126.62 79.1243 124.914 77.8361C124.431 77.4716 124.044 76.9796 123.789 76.4074C123.534 75.8352 123.42 75.2021 123.458 74.5689C123.496 73.9357 123.685 73.3238 124.007 72.7919C124.329 72.2601 124.773 71.8262 125.295 71.532C126.101 71.1423 126.953 70.8731 127.827 70.7317C129.27 70.4585 130.74 70.2926 132.201 70.0974C132.41 70.0974 132.637 70.0974 132.891 70.0389C132.991 72.5078 132.946 74.8695 131.267 76.7822Z" fill="#184A0B"/>
<path d="M49.1472 102.467C48.6299 101.491 48.0128 100.584 47.4593 99.6763C49.1926 98.9346 49.7371 98.2125 49.8369 96.4168C49.973 94.1333 48.8477 92.7085 46.8149 92.7085C45.6624 92.7085 44.5008 92.7085 43.3392 92.7085H42.2593V105.493H43.4663V99.8227C43.8228 99.8475 44.1805 99.8475 44.5371 99.8227C45.059 99.7458 45.5897 99.8611 46.0429 100.15C46.4961 100.439 46.8449 100.884 47.0327 101.413C47.5449 102.338 48.0026 103.296 48.4031 104.282C48.453 104.519 48.5488 104.741 48.6841 104.934C48.8195 105.128 48.9913 105.288 49.1884 105.405C49.3855 105.522 49.6034 105.593 49.8278 105.613C50.0521 105.633 50.2779 105.602 50.4903 105.522L50.572 105.444C50.1182 104.419 49.6736 103.443 49.1472 102.467ZM43.4935 98.2808V94.1918C44.7458 94.1918 45.9982 94.104 47.2324 94.1918C48.1399 94.2797 48.5392 95.0799 48.5301 96.1436C48.521 97.2073 48.0128 98.0953 47.1779 98.2027C45.98 98.3198 44.764 98.2417 43.4935 98.2417V98.2808Z" fill="#1D4A11"/>
<path d="M9.72518 97.2463C9.63547 96.1744 9.20455 95.1686 8.50519 94.3988C7.80583 93.629 6.88086 93.1422 5.88645 93.0207C4.21665 92.7084 2.50148 92.7572 0.75 92.6401V105.327C1.9842 105.327 3.1821 105.385 4.38 105.327C5.13137 105.302 5.87071 105.117 6.55477 104.782C7.23883 104.447 7.85388 103.969 8.36393 103.375C9.87946 101.618 10.061 99.5396 9.72518 97.2463ZM7.60163 102.184C7.15834 102.799 6.58133 103.287 5.92141 103.605C5.26149 103.923 4.53892 104.062 3.81735 104.009C3.24563 104.009 2.6739 104.009 2.06588 104.009V94.0259C3.20025 94.1137 4.28925 94.1235 5.34195 94.2991C6.10249 94.3963 6.8105 94.7658 7.35206 95.3482C7.89363 95.9306 8.23725 96.6919 8.32763 97.5098C8.51625 98.3003 8.5491 99.1245 8.42408 99.9295C8.29905 100.735 8.01891 101.503 7.60163 102.184Z" fill="#1D4A11"/>
<path d="M106.755 94.5527C106.391 93.9742 105.904 93.4985 105.333 93.1659C104.762 92.8333 104.125 92.6537 103.476 92.6422C102.826 92.6307 102.184 92.7877 101.603 93.0999C101.023 93.4121 100.52 93.8703 100.139 94.4356C99.3142 95.8515 98.8661 97.4836 98.8437 99.1544C98.8213 100.825 99.2255 102.47 100.012 103.911C100.378 104.554 100.894 105.081 101.509 105.442C102.124 105.803 102.816 105.985 103.516 105.969C104.216 105.954 104.901 105.741 105.501 105.352C106.101 104.964 106.596 104.413 106.937 103.755C107.654 102.419 108.016 100.896 107.98 99.354C108.051 97.6549 107.623 95.9748 106.755 94.5527ZM106.002 102.711C105.759 103.261 105.372 103.722 104.888 104.038C104.404 104.353 103.845 104.51 103.279 104.487C102.717 104.477 102.171 104.286 101.711 103.938C101.252 103.59 100.9 103.101 100.702 102.535C100.274 101.514 100.052 100.406 100.052 99.2857C100.052 98.1652 100.274 97.0575 100.702 96.036C100.902 95.4184 101.289 94.8907 101.8 94.537C102.312 94.1832 102.919 94.0239 103.524 94.0843C104.138 94.1214 104.724 94.3674 105.199 94.7867C105.674 95.206 106.012 95.7768 106.165 96.4166C106.404 97.3506 106.592 98.2988 106.728 99.2564C106.706 100.447 106.465 101.621 106.02 102.711H106.002Z" fill="#1E4A12"/>
<path d="M130.35 95.4509C130.333 94.7444 130.07 94.0705 129.613 93.5627C129.156 93.0548 128.538 92.7501 127.882 92.7087C126.321 92.5819 124.751 92.7087 123.163 92.7087V105.395H124.406V100.243C125.204 100.243 125.921 100.243 126.647 100.243C127.579 100.344 128.512 100.073 129.27 99.4813C129.757 98.966 130.112 98.3243 130.301 97.6184C130.491 96.9124 130.507 96.1659 130.35 95.4509ZM128.871 97.6857C128.701 98.0351 128.436 98.321 128.112 98.5056C127.788 98.6903 127.42 98.7651 127.056 98.7201C126.203 98.7201 125.341 98.7201 124.451 98.7201V94.1921C125.567 94.1921 126.629 94.1335 127.682 94.1921C127.889 94.225 128.087 94.3014 128.266 94.417C128.445 94.5325 128.601 94.6849 128.726 94.8654C128.985 95.2775 129.135 95.7574 129.16 96.254C129.186 96.7506 129.086 97.2454 128.871 97.6857Z" fill="#1F4C13"/>
<path d="M157.357 105.2C156.132 101.15 154.898 97.1099 153.727 93.06C153.528 92.3769 153.056 92.7575 152.702 92.6697C152.348 92.5818 152.212 92.7185 152.112 93.0991C151.368 95.7632 150.596 98.4274 149.834 101.092C149.426 102.536 149.008 104.019 148.573 105.502C148.76 105.487 148.948 105.487 149.135 105.502C149.734 105.62 150.043 105.346 150.125 104.683C150.288 103.824 150.569 102.985 150.787 102.126C150.869 101.784 150.996 101.599 151.377 101.609C152.421 101.609 153.464 101.609 154.499 101.609C154.88 101.609 155.007 101.765 155.107 102.126C155.361 103.102 155.642 104.078 155.933 105.054C155.987 105.229 156.132 105.473 156.268 105.493C156.667 105.523 157.067 105.523 157.466 105.493C157.385 105.395 157.376 105.278 157.357 105.2ZM151.295 100.233C151.822 98.281 152.33 96.3292 152.865 94.2994C153.41 96.2999 153.945 98.2517 154.49 100.233H151.295Z" fill="#1F4B12"/>
<path d="M54.4106 92.6401H55.5359V105.453H54.4106V92.6401Z" fill="#1F4B13"/>
</g>
</g>
<defs>
<clipPath id="clip0">
<rect width="166" height="106" fill="white" transform="translate(0.75)"/>
</clipPath>
<clipPath id="clip1">
<rect width="166" height="106" fill="white" transform="translate(0.75)"/>
</clipPath>
</defs>
</svg>
