<svg id="Layer_1" data-name="Layer 1" xmlns="http://www.w3.org/2000/svg" viewBox="0 0 307.9 38.64" preserveAspectRatio="xMinYMid"><title>planned-parenthood-logo-horizontal</title><metadata><?xpacket begin="﻿" id="W5M0MpCehiHzreSzNTczkc9d"?>
<x:xmpmeta xmlns:x="adobe:ns:meta/" x:xmptk="Adobe XMP Core 5.6-c111 79.158366, 2015/09/25-01:12:00        ">
   <rdf:RDF xmlns:rdf="http://www.w3.org/1999/02/22-rdf-syntax-ns#">
      <rdf:Description rdf:about=""
            xmlns:dc="http://purl.org/dc/elements/1.1/">
         <dc:title>
            <rdf:Alt>
               <rdf:li xml:lang="x-default">planned-parenthood-logo-horizontal</rdf:li>
            </rdf:Alt>
         </dc:title>
      </rdf:Description>
   </rdf:RDF>
</x:xmpmeta>
                                                                                                    
                                                                                                    
                                                                                                    
                                                                                                    
                                                                                                    
                                                                                                    
                                                                                                    
                                                                                                    
                                                                                                    
                                                                                                    
                                                                                                    
                                                                                                    
                                                                                                    
                                                                                                    
                                                                                                    
                                                                                                    
                                                                                                    
                                                                                                    
                                                                                                    
                                                                                                    
                           
<?xpacket end="w"?></metadata>
<path d="M29.51,12.12V26.6a9,9,0,0,1-9,9H11.41l1.74-4h7.4a5,5,0,0,0,5-5V16.1H15.37a5,5,0,0,0-5,5V38.64h-4V21.08a9,9,0,0,1,9-9h6.18V4H13.93A10,10,0,0,0,4,13.93V38.64H0V13.93A13.93,13.93,0,0,1,13.93,0h11.6V12.12h4Z" fill="#fff"/><path d="M122.68,26.9a18.79,18.79,0,0,1-4.35.64c-2.71,0-4-.67-4-4h10c0.28-7.51-1.85-9.18-6.75-9.18-4.5,0-7.2,1.91-7.2,8.11,0,6.35,3,8.24,7.5,8.24a19.53,19.53,0,0,0,5.41-.85Zm-8.33-6.23c0.24-2.55,1.06-3.31,3.44-3.31,2.16,0,2.95.58,3.07,3.31h-6.5" fill="#fff"/><path d="M41.56,30.3v-7h7.11c4.07,0,5.81-3.28,5.81-6.93,0-4.13-1.43-7.26-5.9-7.26h-11V30.3h4Zm0-10.33V12.53h6c1.64,0,2.52,1.25,2.52,3.83,0,2.4-.94,3.62-2.61,3.62h-5.9Z" fill="#fff"/><path d="M60.12,8.36H56.36V26.11A6.91,6.91,0,0,0,58,31l3.31-1.43A5.49,5.49,0,0,1,60.12,26V8.36Z" fill="#fff"/><path d="M76.35,20.4c0-4.62-2.1-6-6.69-6a25.78,25.78,0,0,0-6.17.82l0.7,3.1a14.48,14.48,0,0,1,4.68-.76c3.22,0,3.86.67,3.86,3.38a18.1,18.1,0,0,0-3.83-.43c-3.62,0-6.08.7-6.08,5.08,0,4,1.64,5.17,6.54,5.17a21.55,21.55,0,0,0,7-1.22V20.4Zm-3.62,6.93a9.89,9.89,0,0,1-3.1.52c-2.28,0-2.86-.34-2.86-2.43s0.76-2.22,2.89-2.22a15.38,15.38,0,0,1,3.07.27v3.86Z" fill="#fff"/><path d="M82.46,18.15a10.51,10.51,0,0,1,2.77-.36c2.67,0,3.31.85,3.31,4.28V30.3H92.3V21.68c0-5.56-1.94-7.3-6.29-7.3a22.63,22.63,0,0,0-7.32,1.34V30.3h3.77V18.15Z" fill="#fff"/><path d="M98.4,18.15a10.5,10.5,0,0,1,2.77-.36c2.67,0,3.31.85,3.31,4.28V30.3h3.77V21.68c0-5.56-1.95-7.3-6.29-7.3a22.64,22.64,0,0,0-7.32,1.34V30.3H98.4V18.15Z" fill="#fff"/><path d="M140.27,8.36h-3.77v6.9a7.29,7.29,0,0,0-3.71-.88c-4.13,0-6.72,1.91-6.72,8.18s2.34,8.17,7.45,8.17a20.9,20.9,0,0,0,6.74-1.12V8.36Zm-3.77,18.69a9.9,9.9,0,0,1-3,.46c-2.68,0-3.56-.79-3.56-5,0-3.86.85-4.92,3.49-4.92,1.7,0,3,.57,3,1.48v8Z" fill="#fff"/><path d="M152.43,30.3v-7h7.11c4.07,0,5.81-3.28,5.81-6.93,0-4.13-1.43-7.26-5.9-7.26h-11V30.3h4Zm0-10.33V12.52h6c1.64,0,2.52,1.24,2.52,3.83,0,2.4-.94,3.62-2.61,3.62h-5.9Z" fill="#fff"/><path d="M180.14,20.4c0-4.62-2.1-6-6.69-6a25.66,25.66,0,0,0-6.17.82l0.7,3.1a14.59,14.59,0,0,1,4.68-.76c3.22,0,3.86.67,3.86,3.37a18.34,18.34,0,0,0-3.83-.43c-3.61,0-6.08.7-6.08,5.07,0,4,1.64,5.16,6.54,5.16a21.53,21.53,0,0,0,7-1.21V20.4Zm-3.62,6.93a9.83,9.83,0,0,1-3.1.52c-2.28,0-2.85-.34-2.85-2.43s0.76-2.22,2.89-2.22a15.35,15.35,0,0,1,3.06.27v3.86Z" fill="#fff"/><path d="M182.48,30.3h3.77V19.58c0-1.12,1.67-1.73,3.56-1.73a9.72,9.72,0,0,1,2,.21V14.47a13.8,13.8,0,0,0-1.58-.09c-2.22,0-3.41.76-4,1.61V14.83h-3.77V30.3Z" fill="#fff"/><path d="M204.69,26.9a18.78,18.78,0,0,1-4.34.64c-2.7,0-4-.67-4-4h10c0.27-7.51-1.85-9.18-6.75-9.18-4.49,0-7.2,1.92-7.2,8.11,0,6.35,3,8.23,7.5,8.23a19.55,19.55,0,0,0,5.41-.85Zm-8.32-6.23c0.24-2.55,1.06-3.31,3.43-3.31,2.16,0,2.95.58,3.07,3.31h-6.5" fill="#fff"/><path d="M212.07,18.14a10.58,10.58,0,0,1,2.76-.36c2.67,0,3.31.85,3.31,4.29V30.3h3.77V21.67c0-5.56-1.95-7.3-6.29-7.3a22.56,22.56,0,0,0-7.32,1.34V30.3h3.77V18.14Z" fill="#fff"/><path d="M234.64,18.12V14.83h-5.14V10.67l-3.77,1.55v2.62h-2.59v3.28h2.59v7c0,4.59,1.7,5.62,5.16,5.62a13.71,13.71,0,0,0,4.26-.7l-0.67-3a8.56,8.56,0,0,1-2.64.43c-1.82,0-2.34-.79-2.34-2.71V18.12h5.14Z" fill="#fff"/><path d="M250.11,21.4c0-5.78-2-7-5.59-7a10.05,10.05,0,0,0-4.25,1.07V8.36h-3.77V30.3h3.77V19.15c0-.91,1.43-1.37,3-1.37,2.43,0,3.1,1.37,3.1,3.92v8.6h3.77V21.4" fill="#fff"/><path d="M251.89,22.49c0,6.35,2.43,8.23,7.35,8.23s7.42-1.88,7.42-8.23-2.46-8.11-7.42-8.11-7.35,1.79-7.35,8.11m3.89,0.06c0-4.44.82-5.14,3.46-5.14s3.53,0.7,3.53,5.14c0,4.29-.82,5.14-3.53,5.14s-3.46-.85-3.46-5.14" fill="#fff"/><path d="M268.35,22.49c0,6.35,2.43,8.23,7.35,8.23s7.41-1.88,7.41-8.23-2.46-8.11-7.41-8.11-7.35,1.79-7.35,8.11m3.89,0.06c0-4.44.82-5.14,3.46-5.14s3.53,0.7,3.53,5.14c0,4.29-.82,5.14-3.53,5.14s-3.46-.85-3.46-5.14" fill="#fff"/><path d="M299,8.36h-3.77v6.9a7.26,7.26,0,0,0-3.71-.88c-4.13,0-6.72,1.92-6.72,8.18s2.34,8.17,7.45,8.17A20.92,20.92,0,0,0,299,29.6V8.36Zm-3.77,18.69a10,10,0,0,1-3,.46c-2.68,0-3.56-.79-3.56-5,0-3.86.85-4.92,3.49-4.92,1.7,0,3,.57,3,1.49v8Z" fill="#fff"/><path d="M305,8.32a2.86,2.86,0,1,1-2.87,2.87A2.87,2.87,0,0,1,305,8.32Zm0,5a2,2,0,0,0,2-2.12,2,2,0,1,0-4.06,0A2,2,0,0,0,305,13.31Zm-1.14-3.69h1.22a1,1,0,0,1,1.21,1,0.84,0.84,0,0,1-.8.88l0.78,1.28h-0.75l-0.71-1.25h-0.27v1.25h-0.7V9.62Zm0.7,1.33h0.52c0.3,0,.52-0.05.52-0.39s-0.33-.38-0.58-0.38h-0.45V11Z" fill="#fff"/></svg>
