<svg xmlns="http://www.w3.org/2000/svg" xmlns:xlink="http://www.w3.org/1999/xlink" viewBox="0 0 651.79 145.52"><defs><style>.cls-1{fill:none;}.cls-2{isolation:isolate;}.cls-12,.cls-3,.cls-8{fill:#4f2683;}.cls-10,.cls-14,.cls-4{fill:#9fa617;}.cls-5{clip-path:url(#clip-path);}.cls-6{mix-blend-mode:multiply;}.cls-7{clip-path:url(#clip-path-4);}.cls-10,.cls-8{opacity:0.9;}.cls-9{clip-path:url(#clip-path-5);}.cls-11{clip-path:url(#clip-path-6);}.cls-12,.cls-14{opacity:0.5;}.cls-13{clip-path:url(#clip-path-7);}</style><clipPath id="clip-path"><rect class="cls-1" x="-126.67" y="-64.37" width="396" height="316.8"/></clipPath><clipPath id="clip-path-4"><rect class="cls-1" x="51.62" y="14.83" width="39.41" height="49.46"/></clipPath><clipPath id="clip-path-5"><rect class="cls-1" x="51.62" y="80.21" width="39.41" height="49.46"/></clipPath><clipPath id="clip-path-6"><rect class="cls-1" x="79.29" y="52.54" width="49.46" height="39.41"/></clipPath><clipPath id="clip-path-7"><rect class="cls-1" x="13.91" y="52.54" width="49.46" height="39.41"/></clipPath></defs><g class="cls-2"><g id="_9F" data-name="9F"><path class="cls-3" d="M153.2,55.35h15.29c9,0,14.18,4.64,13.07,12.54V68c-1.19,8.41-8.28,12.84-17.15,12.84h-4.89L158.08,91h-9.89Zm12.09,17.74c3.51,0,5.91-1.84,6.3-4.64l0-.1c.43-3.06-1.48-4.69-5.05-4.69h-4.64l-1.32,9.43Z"/><path class="cls-3" d="M187.5,55.35h16.87c5.45,0,9,1.43,11.07,3.87,1.81,2,2.49,4.79,2,8.31l0,.1c-.76,5.46-4.18,9.08-8.88,11L215.31,91H203.89l-5.67-10.81h-4.33L192.37,91h-9.88Zm14,17.13c3.37,0,5.53-1.63,5.9-4.23v-.11c.4-2.8-1.44-4.23-4.75-4.23h-6.48L195,72.48Z"/><path class="cls-3" d="M224.14,55.35h28.69l-1.18,8.41H232.74l-.75,5.4h17.12L248,77H230.89l-.8,5.66h19.17L248.07,91H219.13Z"/><path class="cls-3" d="M258.13,55.35h10.45l6.57,13.81L285.6,55.35h10.45L291,91H281.2l2.88-20.49L273,84.5h-.2l-7.12-13.86L262.8,91h-9.68Z"/><path class="cls-3" d="M302.57,55.35h9.94L307.5,91h-9.94Z"/><path class="cls-3" d="M319,55.35h28.7l-1.19,8.41h-18.9l-.76,5.4H344L342.91,77H325.78L325,82.62h19.16L343,91H314Z"/><path class="cls-3" d="M353,55.35h16.86c5.46,0,9,1.43,11.08,3.87,1.8,2,2.49,4.79,2,8.31v.1a13.49,13.49,0,0,1-8.88,11L380.83,91H369.41l-5.66-10.81h-4.33L357.9,91H348Zm14,17.13c3.36,0,5.53-1.63,5.89-4.23l0-.11c.39-2.8-1.45-4.23-4.76-4.23h-6.47l-1.21,8.57Z"/><path class="cls-3" d="M397.47,81.09a4.36,4.36,0,0,0,1.08,3.51,4,4,0,0,0,2.86,1.13A5.66,5.66,0,0,0,405,84.51a4.67,4.67,0,0,0,1.85-3.14,3.6,3.6,0,0,0-.78-3.31,15.05,15.05,0,0,0-4.34-2.27c-.21-.1-.43-.19-.67-.28l-.49-.19c-1-.41-1.82-.8-2.53-1.17a8.51,8.51,0,0,1-2.11-1.64,6.52,6.52,0,0,1-1.55-2.82,9.9,9.9,0,0,1-.17-4.17,11.28,11.28,0,0,1,1.3-3.87,11.55,11.55,0,0,1,2.58-3.16,11.74,11.74,0,0,1,7.69-2.86,9.65,9.65,0,0,1,3.24.58A9.31,9.31,0,0,1,412,58a7.68,7.68,0,0,1,2.12,3.09,9.54,9.54,0,0,1,.48,4.43h-6.57a3.64,3.64,0,0,0-.87-3,3.53,3.53,0,0,0-2.47-.89,4.06,4.06,0,0,0-2.67,1,3.9,3.9,0,0,0-1.39,2.54,2.86,2.86,0,0,0,.82,2.83,15.22,15.22,0,0,0,3.95,1.9l.32.09a25.12,25.12,0,0,1,2.79,1.18A10.56,10.56,0,0,1,411.1,73,7.67,7.67,0,0,1,413,76.12a9.55,9.55,0,0,1,.3,4.54,12.78,12.78,0,0,1-1.61,4.81A12,12,0,0,1,408.65,89a13.1,13.1,0,0,1-3.93,2.09,13.57,13.57,0,0,1-4.2.68,10.91,10.91,0,0,1-3.59-.63,10.45,10.45,0,0,1-3.31-1.93,8.45,8.45,0,0,1-2.33-3.32,10.34,10.34,0,0,1-.57-4.76Z"/><path class="cls-3" d="M427.63,56.33l-3.15,22a16.64,16.64,0,0,0-.16,2.2,7.21,7.21,0,0,0,.37,2.3,4.09,4.09,0,0,0,1.52,2,5.49,5.49,0,0,0,3.24.82,6.8,6.8,0,0,0,3.49-.82,5.77,5.77,0,0,0,2.09-2,9.56,9.56,0,0,0,1-2.3,19.93,19.93,0,0,0,.45-2.2l3.09-22H446l-3.1,22a23.54,23.54,0,0,1-1.08,4.52,11.59,11.59,0,0,1-2.09,3.68,15.76,15.76,0,0,1-4.83,3.71,13.82,13.82,0,0,1-6.26,1.45,11.12,11.12,0,0,1-6-1.52A11,11,0,0,1,419,86.76,9.16,9.16,0,0,1,418,83.41a17.66,17.66,0,0,1,.1-5l3.1-22Z"/><path class="cls-3" d="M452.43,56.33h6.85a34.21,34.21,0,0,1,6.19.45A7.72,7.72,0,0,1,469.59,59a7.49,7.49,0,0,1,1.72,2.93,7.79,7.79,0,0,1,.32,3.54,8.39,8.39,0,0,1-.8,2.7,8.15,8.15,0,0,1-1.3,1.92,7.44,7.44,0,0,1-1.36,1.2,13.82,13.82,0,0,1-1.36.79,10.46,10.46,0,0,1,1.88,1,6.68,6.68,0,0,1,1.68,1.57,6.14,6.14,0,0,1,1.13,2.5,10.12,10.12,0,0,1,.06,3.59,10.63,10.63,0,0,1-1.91,4.9A13.2,13.2,0,0,1,466.08,89a11.56,11.56,0,0,1-4.4,1.64,28.24,28.24,0,0,1-4.84.43h-9.29ZM454.82,85h3.24c.59,0,1.2,0,1.84-.09a8,8,0,0,0,2.11-.54,5.26,5.26,0,0,0,2.05-1.4,4.61,4.61,0,0,0,1.11-2.51,5.13,5.13,0,0,0,0-1.46,3.4,3.4,0,0,0-.69-1.47,4.07,4.07,0,0,0-1.77-1.22,8.66,8.66,0,0,0-3.19-.49h-3.38ZM457,69.83h2.11c.59,0,1.16,0,1.72-.07a6.28,6.28,0,0,0,1.77-.42,4.23,4.23,0,0,0,1.66-1.15,3.9,3.9,0,0,0,.91-2.11,3,3,0,0,0-.82-2.72,5.15,5.15,0,0,0-3.63-1H458Z"/><path class="cls-3" d="M486,56.33l-3.14,22a16.68,16.68,0,0,0-.17,2.2,7.23,7.23,0,0,0,.38,2.3,4,4,0,0,0,1.52,2,5.49,5.49,0,0,0,3.24.82,6.83,6.83,0,0,0,3.49-.82,5.85,5.85,0,0,0,2.09-2,9.5,9.5,0,0,0,1-2.3,16.18,16.18,0,0,0,.45-2.2l3.1-22h6.42l-3.09,22a22.82,22.82,0,0,1-1.09,4.52,11.56,11.56,0,0,1-2.08,3.68,15.8,15.8,0,0,1-4.84,3.71A13.78,13.78,0,0,1,487,91.73a11,11,0,0,1-9.62-5,9.36,9.36,0,0,1-1.07-3.35,17.66,17.66,0,0,1,.1-5l3.09-22Z"/><path class="cls-3" d="M510.47,56.33h10.65a17.73,17.73,0,0,1,4.86.56,8.1,8.1,0,0,1,3.25,1.79,9.71,9.71,0,0,1,2.41,3.54,9.3,9.3,0,0,1,.49,4.85,14.73,14.73,0,0,1-1.41,4.33,11.88,11.88,0,0,1-3.09,4,10.83,10.83,0,0,1-2.91,1.85,28,28,0,0,1-3.21,1h0L529.09,91H521.3L514,77.76h-.09L512,91H505.6Zm4.1,16.6h4.12a8.45,8.45,0,0,0,3.17-.54A5.74,5.74,0,0,0,524,71a6.32,6.32,0,0,0,1.65-3.43,5.5,5.5,0,0,0,0-1.71,3.94,3.94,0,0,0-.74-1.71,4.35,4.35,0,0,0-1.74-1.31,7.09,7.09,0,0,0-2.93-.52h-4.13Z"/><path class="cls-3" d="M538.51,56.33h6.85a34.21,34.21,0,0,1,6.19.45A7.72,7.72,0,0,1,555.67,59a7.49,7.49,0,0,1,1.72,2.93,7.79,7.79,0,0,1,.32,3.54,8.39,8.39,0,0,1-.8,2.7,7.86,7.86,0,0,1-1.3,1.92,7.44,7.44,0,0,1-1.36,1.2,13.82,13.82,0,0,1-1.36.79,10.89,10.89,0,0,1,1.89,1,6.82,6.82,0,0,1,1.67,1.57,6.14,6.14,0,0,1,1.13,2.5,10.12,10.12,0,0,1,.06,3.59,10.63,10.63,0,0,1-1.91,4.9A13.2,13.2,0,0,1,552.16,89a11.56,11.56,0,0,1-4.4,1.64,28.24,28.24,0,0,1-4.84.43h-9.29ZM540.9,85h3.24c.59,0,1.2,0,1.84-.09a8,8,0,0,0,2.11-.54,5.26,5.26,0,0,0,2-1.4,4.61,4.61,0,0,0,1.11-2.51,5.13,5.13,0,0,0,0-1.46,3.4,3.4,0,0,0-.69-1.47,4.07,4.07,0,0,0-1.77-1.22,8.66,8.66,0,0,0-3.19-.49h-3.38ZM543,69.83h2.11c.59,0,1.16,0,1.72-.07a6.28,6.28,0,0,0,1.77-.42,4.23,4.23,0,0,0,1.66-1.15,3.9,3.9,0,0,0,.91-2.11,3,3,0,0,0-.82-2.72,5.15,5.15,0,0,0-3.63-1h-2.67Z"/><path class="cls-3" d="M577.75,56.33h5L592.43,91h-7.08l-2.45-9H570.48l-5,9h-7.08ZM573.49,76h8L579,65.38h-.09Z"/><path class="cls-3" d="M601.52,56.33h7.32l10.8,25.23h.09l3.55-25.23h6.42L624.83,91h-7.18L606.71,65.8h-.09L603.07,91h-6.42Z"/><path class="cls-4" d="M252.93,105.05h3.42l8.07,18.9,8.1-18.9h3.42v22.2h-2.22V107.48h-.06l-8.31,19.77h-1.89l-8.25-19.77h-.06v19.77h-2.22Z"/><path class="cls-4" d="M280,105.05h12.15v2h-9.93v8h9.6v2h-9.6v8.19h9.93v2H280Z"/><path class="cls-4" d="M295.92,105.05h6.48a16.39,16.39,0,0,1,4,.48,10.47,10.47,0,0,1,3.24,1.35,10.21,10.21,0,0,1,2.37,2,10.69,10.69,0,0,1,1.58,2.44,11.76,11.76,0,0,1,.84,2.51,11.52,11.52,0,0,1,.25,2.34,11.48,11.48,0,0,1-1,4.47,10.9,10.9,0,0,1-1.56,2.53,10.52,10.52,0,0,1-5.75,3.56,16.39,16.39,0,0,1-4,.48h-6.48Zm2.22,20.19h3.21q1.08,0,1.89,0a13.22,13.22,0,0,0,1.82-.21,11.61,11.61,0,0,0,2-.56,8.43,8.43,0,0,0,1.9-1,12.89,12.89,0,0,0,1.19-1.16,8.93,8.93,0,0,0,1.11-1.56,9.24,9.24,0,0,0,1.18-4.6,8.81,8.81,0,0,0-1-4.14,8.46,8.46,0,0,0-5.88-4.55,19.75,19.75,0,0,0-4.2-.37h-3.21Z"/><path class="cls-4" d="M318,105.05h2.22v22.2H318Z"/><path class="cls-4" d="M345.33,121.43a12.07,12.07,0,0,1-2.05,2.77,11.21,11.21,0,0,1-2.57,1.94,12.5,12.5,0,0,1-2.8,1.12,11,11,0,0,1-2.81.38,11.59,11.59,0,0,1-4.41-.86,11.78,11.78,0,0,1-3.73-2.41,11.29,11.29,0,0,1-3.47-8.19A11.39,11.39,0,0,1,326.9,108a11.31,11.31,0,0,1,3.72-2.43,11.74,11.74,0,0,1,4.45-.85,11.17,11.17,0,0,1,3.75.61,11.7,11.7,0,0,1,3.05,1.58,12,12,0,0,1,2.16,2,8,8,0,0,1,1.21,1.88h-2.49a8,8,0,0,0-1.93-2.1,9.31,9.31,0,0,0-2.19-1.23,10.35,10.35,0,0,0-2-.57,10,10,0,0,0-1.58-.15,8.71,8.71,0,0,0-3.6.76,9.46,9.46,0,0,0-3,2.12,10,10,0,0,0-2,3.07,9.17,9.17,0,0,0-.72,3.56,8.8,8.8,0,0,0,.77,3.61,9.69,9.69,0,0,0,2.1,3,10,10,0,0,0,3,2,8.61,8.61,0,0,0,3.46.74,9.52,9.52,0,0,0,1.44-.12,9.42,9.42,0,0,0,1.85-.53,9.65,9.65,0,0,0,2.25-1.27,10.76,10.76,0,0,0,2.23-2.28Z"/><path class="cls-4" d="M356.13,105.05h2.49l9.54,22.2h-2.43l-3.21-7.47H352.2L349,127.25h-2.31ZM353,117.77h8.61l-4.26-10.2Z"/><path class="cls-4" d="M370.65,105.05h2.22v20.19h9.18v2h-11.4Z"/><path class="cls-4" d="M415.41,117.05a10.86,10.86,0,0,1-1.23,4.36,11.15,11.15,0,0,1-2.73,3.36,12.41,12.41,0,0,1-3.69,2.13,11.8,11.8,0,0,1-8.68-.18,12.26,12.26,0,0,1-3.83-2.52,11.53,11.53,0,0,1-2.56-3.7,10.79,10.79,0,0,1-.92-4.35,11,11,0,0,1,.86-4.23,11.66,11.66,0,0,1,2.44-3.71,11.92,11.92,0,0,1,8.58-3.55,11.63,11.63,0,0,1,3.87.63,12.25,12.25,0,0,1,3.15,1.6,11.55,11.55,0,0,1,2.24,2.07,8,8,0,0,1,1.24,2h-2.58a8.52,8.52,0,0,0-3.15-3,9.13,9.13,0,0,0-4.74-1.26,9.59,9.59,0,0,0-6.93,2.88,9.69,9.69,0,0,0-2,3.07,9.17,9.17,0,0,0-.72,3.56,9,9,0,0,0,.72,3.54,9.59,9.59,0,0,0,5.18,5.14,9.88,9.88,0,0,0,3.88.77,9.11,9.11,0,0,0,3.23-.57,9.67,9.67,0,0,0,4.66-3.66,7.66,7.66,0,0,0,1.08-2.34H400.35v-2Z"/><path class="cls-4" d="M418.53,105.05h5.64a20.13,20.13,0,0,1,3.35.22,8.58,8.58,0,0,1,2.11.62,6.65,6.65,0,0,1,2.91,2.56,7,7,0,0,1,1,3.77,6.68,6.68,0,0,1-.43,2.38,6.91,6.91,0,0,1-1.28,2.12,6.43,6.43,0,0,1-2.08,1.56A7.4,7.4,0,0,1,427,119l6.27,8.28h-2.79l-7.53-10q2.22,0,3.15-.06a7.19,7.19,0,0,0,1.62-.27,4.94,4.94,0,0,0,2.7-1.83,4.79,4.79,0,0,0,1-2.88,5.06,5.06,0,0,0-.67-2.52,4.15,4.15,0,0,0-1.76-1.74,6.4,6.4,0,0,0-1.9-.68,14.62,14.62,0,0,0-2.42-.16h-3.87v20.19h-2.22Z"/><path class="cls-4" d="M436.61,111.57a11.45,11.45,0,0,1,2.65-3.7,11.93,11.93,0,0,1,3.78-2.39,11.78,11.78,0,0,1,8.76,0,12.18,12.18,0,0,1,3.8,2.44,11.32,11.32,0,0,1,2.59,3.68,11,11,0,0,1,.93,4.5,10.83,10.83,0,0,1-.94,4.5,11.62,11.62,0,0,1-2.6,3.67,12,12,0,0,1-3.78,2.45,11.63,11.63,0,0,1-4.44.87,11.47,11.47,0,0,1-4.44-.89,12.21,12.21,0,0,1-3.78-2.46,11.47,11.47,0,0,1-2.58-3.66,10.58,10.58,0,0,1-.93-4.36A11.24,11.24,0,0,1,436.61,111.57Zm2,8.27a9.69,9.69,0,0,0,5.13,5,9.24,9.24,0,0,0,3.63.74,9.4,9.4,0,0,0,3.63-.72,9.59,9.59,0,0,0,5.16-5.06,9.09,9.09,0,0,0,.75-3.67,9.4,9.4,0,0,0-.73-3.65,9.76,9.76,0,0,0-2.06-3.06,9.44,9.44,0,0,0-6.75-2.8,9.19,9.19,0,0,0-3.58.72,9.65,9.65,0,0,0-3.06,2,9.51,9.51,0,0,0-2.87,6.86A8.8,8.8,0,0,0,438.6,119.84Z"/><path class="cls-4" d="M464.58,105.05v13.83a12.48,12.48,0,0,0,.2,2.28,6.26,6.26,0,0,0,.55,1.74,5.41,5.41,0,0,0,1.1,1.42,4.85,4.85,0,0,0,1.24.84,4.73,4.73,0,0,0,1.2.38,6.17,6.17,0,0,0,2.1,0,4.73,4.73,0,0,0,1.2-.38,4.9,4.9,0,0,0,1.25-.84,5.38,5.38,0,0,0,1.66-3.16,13.52,13.52,0,0,0,.18-2.28V105.05h2.22v13.83a11.09,11.09,0,0,1-.84,4.62,6.59,6.59,0,0,1-3.09,3.28,7.7,7.7,0,0,1-1.84.66,8.61,8.61,0,0,1-1.79.2,8.52,8.52,0,0,1-1.78-.2,7.76,7.76,0,0,1-1.85-.66,6.59,6.59,0,0,1-3.09-3.28,11.09,11.09,0,0,1-.84-4.62V105.05Z"/><path class="cls-4" d="M481.71,105.05h6.18a15.15,15.15,0,0,1,3.45.31,7.12,7.12,0,0,1,2.28,1,6.28,6.28,0,0,1,2,2.25,6.9,6.9,0,0,1,0,6.18,6.28,6.28,0,0,1-2,2.25,7.11,7.11,0,0,1-2.28,1,15.06,15.06,0,0,1-3.45.32h-4v8.94h-2.22Zm2.22,11.25h3.21c1.32,0,2.25,0,2.78-.09a5.69,5.69,0,0,0,1.66-.48,4.39,4.39,0,0,0,1.92-1.68,4.43,4.43,0,0,0-1.92-6.42,5.69,5.69,0,0,0-1.66-.48c-.53-.06-1.46-.09-2.78-.09h-3.21Z"/><g class="cls-5"><g class="cls-5"><g class="cls-5"><g class="cls-6"><g class="cls-7"><path class="cls-8" d="M91,64.28H51.62V31.15a2,2,0,0,1,1.26-1.87L88.26,15A2,2,0,0,1,91,16.84Z"/></g></g><g class="cls-6"><g class="cls-9"><path class="cls-10" d="M51.62,80.21H91v33.14a2,2,0,0,1-1.26,1.86L54.39,129.52a2,2,0,0,1-2.77-1.87Z"/></g></g><g class="cls-6"><g class="cls-11"><path class="cls-12" d="M79.29,92V52.54h33.14a2,2,0,0,1,1.86,1.26L128.6,89.19A2,2,0,0,1,126.73,92Z"/></g></g><g class="cls-6"><g class="cls-13"><path class="cls-14" d="M63.36,52.54V92H30.23a2,2,0,0,1-1.87-1.26L14.06,55.31a2,2,0,0,1,1.86-2.77Z"/></g></g></g></g></g></g></g></svg>