<svg height="28" viewBox="0 0 246 28" width="246" xmlns="http://www.w3.org/2000/svg"><g fill="#9a1d33"><path d="m37.0229452 27.6773818h-6.4347714v-20.72147433h8.4582385c2.0249614 0 4.2888542.06137952 6.0704014 1.08713725 1.9338657 1.14834745 3.0822385 3.20320698 3.0822385 5.43721018 0 1.9637215-.7556285 3.8363897-2.2952556 5.0743513-1.6008501 1.2992141-3.65568 1.6023443-5.6492786 1.6023443h-3.2315728zm1.6605871-11.9615999c1.4500257 0 3.2017043-.091011 3.2017043-2.0234502 0-1.8427827-1.5694914-1.993607-3.0210114-1.993607h-1.84128v4.0170572z"/><path d="m56.0880316 27.6773818h-6.4332814v-20.72147433h10.5414427c1.8129058 0 3.8065043.24213165 5.3461314 1.26932861 1.7218143 1.08713725 2.5386657 2.92992002 2.5386657 4.95337012 0 2.7193671-1.2095999 4.3500729-3.6556799 5.4670957l3.7452814 9.0316799h-7.0679457l-3.0195214-7.9131756h-1.9950928zm0-12.3543442h2.3266142c1.3887986 0 3.0493857-.2120769 3.0493857-1.993607 0-.694393-.3613772-1.3589428-.9960542-1.6919585-.5435729-.2704932-1.2081058-.2704932-1.8114115-.2704932h-2.5685342z"/><path d="m85.7804201 27.6773818h-15.5560527v-20.72147433h15.5560527v4.77266033h-9.3348271v3.0210157h7.5517857v4.6203968h-7.5517857v3.3540313h9.3348271z"/><path d="m92.1895136 20.6094234c.5435729 1.8412588 1.9338657 2.5072902 3.7751457 2.5072902.8168557 0 2.4475743-.1210658 2.4475743-1.2693286 0-1.2678471-1.6008543-1.5097671-2.5371715-1.6904345-3.8975999-.7556455-8.5179755-1.8128973-8.5179755-6.7364243 0-2.0234925.9975485-4.01705718 2.6581356-5.19533245 1.6904514-1.17823293 3.8961057-1.57097724 5.9494371-1.57097724 3.5959471 0 7.0694397 1.47988156 8.3372787 5.07435129l-5.2565302 1.6008628c-.6018156-1.5396526-1.7516828-2.0832212-3.3510427-2.0832212-.84672 0-2.0548258.2421317-2.0548258 1.3290996 0 1.0871372 1.5097629 1.2976902 2.2967458 1.4798815 1.9622399.392829 4.0469342.7242785 5.8598399 1.6605914 2.023467 1.0871372 3.080749 3.0210156 3.080749 5.2863858 0 4.9832557-4.9548819 6.9768627-9.2437319 6.9768627-4.3500813 0-8.2163227-1.8114157-9.3333369-6.3123129z"/><path d="m106.664393 6.95633077h10.118826c1.570986 0 3.17184.12106583 4.471041 1.0572941 1.388799.99752314 2.20416 2.68799993 2.20416 4.37991603 0 2.1743169-1.388802 4.0170996-3.503361 4.5009396v.0596863c2.384853.4241113 4.017066 2.235527 4.017066 4.7129317 0 1.7815725-.634665 3.7751795-2.114559 4.8324313-1.600854 1.1469082-3.836373 1.1782329-5.707521 1.1782329h-9.485652zm8.397012 7.94301873c.6048 0 1.32907.0296315 1.783041-.3911357.391263-.3627742.603306-.8765843.603306-1.3589427 0-1.5411341-1.269333-1.7531687-2.475944-1.7531687h-2.477443v3.5033318zm.182191 8.1566195c.633174 0 1.32907.0296315 1.84128-.3928289.453976-.3314495.755629-.8751028.755629-1.4500385 0-.6943929-.392745-1.3290572-.996055-1.6307058-.543572-.2717632-1.269332-.2717632-1.844264-.2717632h-2.505817v3.7452941z"/><path d="m135.621015 18.9181846v8.7583929h-6.161493v-8.7583929l-6.978348-11.96159984h6.978348l3.624317 6.82603834 3.473489-6.82603834h5.558191z"/><path d="m152.958911 27.6773818h-6.04055v-15.7367371h-4.350073v-4.98473723h14.6496v4.98473723h-4.258977z"/><path d="m174.615513 27.6773818h-15.55607v-20.72147433h15.55607v4.77266033h-9.333328v3.0210157h7.551798v4.6203968h-7.551798v3.3540313h9.333328z"/><path d="m183.586152 27.6773818h-6.433294v-20.72147433h10.541447c1.812897 0 3.806504.24213165 5.346157 1.26932861 1.721801 1.08713725 2.537175 2.92992002 2.537175 4.95337012 0 2.7193671-1.208118 4.3500729-3.654198 5.4670957l3.745252 9.0316799h-7.067916l-3.021016-7.9131756h-1.993607zm0-12.3543442h2.326623c1.388786 0 3.049377-.2120769 3.049377-1.993607 0-.694393-.361504-1.3589428-.996041-1.6919585-.543569-.2704932-1.208119-.2704932-1.811416-.2704932h-2.568543z"/><path d="m204.277191 27.6780167h-6.403451v-20.7215166h6.403451z"/><path d="m218.05046 23.6001303h-5.528306l-1.267847 4.0767858h-5.165447l6.433294-20.7199927h6.705058l6.494504 20.7199927h-6.494504zm-1.088619-4.5307827-1.690476-6.0121458-1.691959 6.0121458z"/><path d="m239.199983 27.6773818-5.950936-9.6962297-1.842783-3.7452518-.059686.0596863.059686.2417084c.303088 1.3290572.424112 2.0548172.424112 3.4749701v9.6648627h-5.165447v-20.72147432h6.010664l6.947019 11.56885552.06138-.0596863-.453955-5.7388587v-5.77031052h5.165405v20.72172832z"/><path d="m5.94832363 12.9466763 4.53375857-7.49651446 2.2907728 3.51378743 2.1862414-3.51378743 2.2788271 3.76764469h.3091412c.0731898-.41060787.1179757-.83327999.1179757-1.26632314 0-3.90953722-3.1688515-7.07841403-7.0783971-7.07841403-3.90954573 0-7.07989566 3.16887681-7.07989566 7.07841403 0 1.95030272.78848141 3.71540861 2.06378712 4.99519291z"/><path d="m10.4692348 7.13047931 1.57248 2.65663291-6.37952136 11.06558578h8.18048136l1.62624 2.8313741h-14.5958399z"/><path d="m10.8887067 19.7688625h-3.25098567l7.27103997-12.67389866 9.5961599 16.62377706-3.0926943.0520668-6.4153585-11.0820101z"/><path d="m17.4436889 24.7505943-4.1081614-7.09632 1.6441628-2.831374 7.3233056 12.6545112h-19.14005404l1.52021426-2.7626713z"/></g></svg>