<?xml version="1.0" encoding="UTF-8"?> <svg xmlns="http://www.w3.org/2000/svg" xmlns:xlink="http://www.w3.org/1999/xlink" width="226px" height="64px" viewBox="0 0 226 64" version="1.1"><title>Proliance_OrthoSportsMedicine-Location_color-rgb</title><defs><polygon id="path-1" points="0.0240213523 0.248620996 19.249911 0.248620996 19.249911 27.0852758 0.0240213523 27.0852758"></polygon><polygon id="path-3" points="0.189368327 0.340702847 177.7504 0.340702847 177.7504 30.8033808 0.189368327 30.8033808"></polygon></defs><g id="Page-1" stroke="none" stroke-width="1" fill="none" fill-rule="evenodd"><g id="Desktop-HD-Copy-2" transform="translate(-180.000000, -32.000000)"><g id="Proliance_OrthoSportsMedicine-Location_color-rgb" transform="translate(180.000000, 32.000000)"><g id="Group-4"><mask id="mask-2" fill="white"><use xlink:href="#path-1"></use></mask><g id="Clip-2"></g><path d="M18.3246886,27.0852758 L0.8863879,27.0852758 C0.396752669,27.0852758 0,26.6885231 0,26.1980872 L0,22.168105 C0,21.6792705 0.396752669,21.2829181 0.8863879,21.2829181 L18.3246886,21.2829181 C18.8139235,21.2829181 19.2106762,21.6792705 19.2106762,22.168105 L19.2106762,26.1980872 C19.2106762,26.6885231 18.8139235,27.0852758 18.3246886,27.0852758" id="Fill-1" fill="#001871" mask="url(#mask-2)"></path><path d="M13.4475534,18.5729093 L13.4475534,1.13540925 C13.4475534,0.645373665 13.844306,0.248620996 14.3339413,0.248620996 L18.3635231,0.248620996 C18.8531584,0.248620996 19.249911,0.645373665 19.249911,1.13540925 L19.249911,18.5729093 C19.249911,19.0633452 18.8531584,19.4596975 18.3635231,19.4596975 L14.3339413,19.4596975 C13.844306,19.4596975 13.4475534,19.0633452 13.4475534,18.5729093" id="Fill-3" fill="#BAD739" mask="url(#mask-2)"></path></g><path d="M13.4475534,33.7199733 L13.4475534,29.7940836 C13.4475534,29.3048488 13.844306,28.9084964 14.3339413,28.9084964 L18.3635231,28.9084964 C18.8531584,28.9084964 19.249911,29.3048488 19.249911,29.7940836 L19.249911,33.7199733 C19.249911,34.2104093 18.8531584,34.6071619 18.3635231,34.6071619 L14.3339413,34.6071619 C13.844306,34.6071619 13.4475534,34.2104093 13.4475534,33.7199733" id="Fill-5" fill="#00B4E4"></path><path d="M21.9987544,13.6713523 L39.4366548,13.6713523 C39.92629,13.6713523 40.3234431,14.0677046 40.3234431,14.5569395 L40.3234431,18.5869217 C40.3234431,19.0773577 39.92629,19.47371 39.4366548,19.47371 L21.9987544,19.47371 C21.5091192,19.47371 21.1123665,19.0773577 21.1123665,18.5869217 L21.1123665,14.5569395 C21.1123665,14.0677046 21.5091192,13.6713523 21.9987544,13.6713523" id="Fill-6" fill="#6797D5"></path><path d="M26.8754893,22.1825178 L26.8754893,39.6208185 C26.8754893,40.1112544 26.4787367,40.5080071 25.9891014,40.5080071 L21.9595196,40.5080071 C21.4698843,40.5080071 21.0727313,40.1112544 21.0727313,39.6208185 L21.0727313,22.1825178 C21.0727313,21.6932829 21.4698843,21.2969306 21.9595196,21.2969306 L25.9891014,21.2969306 C26.4787367,21.2969306 26.8754893,21.6932829 26.8754893,22.1825178" id="Fill-7" fill="#0072CE"></path><path d="M26.8754893,7.03505338 L26.8754893,10.9613434 C26.8754893,11.451379 26.4787367,11.8481317 25.9891014,11.8481317 L21.9595196,11.8481317 C21.4698843,11.8481317 21.0727313,11.451379 21.0727313,10.9613434 L21.0727313,7.03505338 C21.0727313,6.54581851 21.4698843,6.14946619 21.9595196,6.14946619 L25.9891014,6.14946619 C26.4787367,6.14946619 26.8754893,6.54581851 26.8754893,7.03505338" id="Fill-8" fill="#001871"></path><path d="M34.4618327,22.2077402 L34.4618327,26.1340302 C34.4618327,26.6240658 34.0650801,27.0208185 33.5754448,27.0208185 L29.545863,27.0208185 C29.0566281,27.0208185 28.6594751,26.6240658 28.6594751,26.1340302 L28.6594751,22.2077402 C28.6594751,21.7185053 29.0566281,21.322153 29.545863,21.322153 L33.5754448,21.322153 C34.0650801,21.322153 34.4618327,21.7185053 34.4618327,22.2077402" id="Fill-9" fill="#EB7100"></path><path d="M11.7028025,14.6225979 L11.7028025,18.5472865 C11.7028025,19.0381228 11.3060498,19.4344751 10.8164146,19.4344751 L6.78683274,19.4344751 C6.29719751,19.4344751 5.90044484,19.0381228 5.90044484,18.5472865 L5.90044484,14.6225979 C5.90044484,14.1321619 6.29719751,13.7358096 6.78683274,13.7358096 L10.8164146,13.7358096 C11.3060498,13.7358096 11.7028025,14.1321619 11.7028025,14.6225979" id="Fill-10" fill="#00A862"></path><path d="M57.4854982,12.2981317 C57.4854982,10.675089 56.3420819,9.48002669 54.7738879,9.48002669 L51.5041815,9.48002669 L51.5041815,15.1158363 L54.7738879,15.1158363 C56.3420819,15.1158363 57.4854982,13.8927491 57.4854982,12.2981317 Z M61.1271352,12.2981317 C61.1271352,15.7800267 58.3626779,18.5448843 54.7738879,18.5448843 L51.5041815,18.5448843 L51.5041815,24.6583185 L47.8353203,24.6583185 L47.8353203,6.04977758 L54.7738879,6.04977758 C58.3626779,6.04977758 61.1271352,8.81423488 61.1271352,12.2981317 L61.1271352,12.2981317 Z" id="Fill-11" fill="#001871"></path><path d="M70.8289591,11.1010676 L70.8289591,14.9292705 C69.0481762,14.7166815 66.7881673,15.51379 66.7881673,18.3050712 L66.7881673,24.6583185 L63.3587189,24.6583185 L63.3587189,11.3673043 L66.7881673,11.3673043 L66.7881673,13.6529359 C67.4791815,11.8453292 69.1538701,11.1010676 70.8289591,11.1010676" id="Fill-12" fill="#001871"></path><path d="M82.763968,18.012411 C82.763968,15.8600979 81.1949733,14.3435498 79.1483541,14.3435498 C77.1281584,14.3435498 75.5595641,15.8600979 75.5595641,18.012411 C75.5595641,20.1659253 77.1281584,21.682073 79.1483541,21.682073 C81.1949733,21.682073 82.763968,20.1659253 82.763968,18.012411 Z M72.130516,18.012411 C72.130516,14.0524911 75.2404804,10.9949733 79.1483541,10.9949733 C83.0562278,10.9949733 86.1934164,14.0524911 86.1934164,18.012411 C86.1934164,21.973532 83.0562278,25.0310498 79.1483541,25.0310498 C75.2404804,25.0310498 72.130516,21.973532 72.130516,18.012411 L72.130516,18.012411 Z" id="Fill-13" fill="#001871"></path><polygon id="Fill-14" fill="#001871" points="88.6103648 24.6587189 92.0394128 24.6587189 92.0394128 5.25266904 88.6103648 5.25266904"></polygon><path d="M95.1758007,24.6583185 L98.6056495,24.6583185 L98.6056495,11.3673043 L95.1758007,11.3673043 L95.1758007,24.6583185 Z M94.7774466,7.67081851 C94.7774466,6.52900356 95.7342972,5.54532918 96.8777135,5.54532918 C98.0463523,5.54532918 99.0052046,6.52900356 99.0052046,7.67081851 C99.0052046,8.81423488 98.0463523,9.77148577 96.8777135,9.77148577 C95.7342972,9.77148577 94.7774466,8.81423488 94.7774466,7.67081851 L94.7774466,7.67081851 Z" id="Fill-15" fill="#001871"></path><path d="M111.843016,18.012411 C111.843016,15.7800267 110.275222,14.263879 108.148132,14.263879 C106.047865,14.263879 104.479671,15.7800267 104.479671,18.012411 C104.479671,20.2459964 106.047865,21.7605427 108.148132,21.7605427 C110.275222,21.7605427 111.843016,20.2459964 111.843016,18.012411 Z M115.272064,11.3673043 L115.272064,24.6583185 L111.843016,24.6583185 L111.843016,23.0905249 C110.886165,24.2867883 109.45129,25.0310498 107.510765,25.0310498 C103.973621,25.0310498 101.050623,21.973532 101.050623,18.012411 C101.050623,14.0524911 103.973621,10.9949733 107.510765,10.9949733 C109.45129,10.9949733 110.886165,11.7388345 111.843016,12.9354982 L111.843016,11.3673043 L115.272064,11.3673043 L115.272064,11.3673043 Z" id="Fill-16" fill="#001871"></path><path d="M130.795062,16.4974644 L130.795062,24.6583185 L127.366415,24.6583185 L127.366415,16.9234431 C127.366415,15.1158363 126.275845,14.1854093 124.734475,14.1854093 C123.060187,14.1854093 121.810276,15.1678826 121.810276,17.4811388 L121.810276,24.6583185 L118.381228,24.6583185 L118.381228,11.3673043 L121.810276,11.3673043 L121.810276,12.8558274 C122.607785,11.6587633 123.990614,10.9949733 125.771397,10.9949733 C128.589502,10.9949733 130.795062,12.9619217 130.795062,16.4974644" id="Fill-17" fill="#001871"></path><path d="M133.027046,18.012411 C133.027046,14.0524911 136.004893,10.9949733 140.045685,10.9949733 C142.650801,10.9949733 144.91121,12.3762011 146.000178,14.423621 L143.050356,16.1515569 C142.517883,15.062589 141.374466,14.3703737 140.019262,14.3703737 C137.972242,14.3703737 136.456094,15.8865214 136.456094,18.012411 C136.456094,20.1126779 137.972242,21.6288256 140.019262,21.6288256 C141.40089,21.6288256 142.544706,20.9634342 143.075578,19.8744662 L146.053025,21.5755783 C144.91121,23.6478203 142.650801,25.0310498 140.045685,25.0310498 C136.004893,25.0310498 133.027046,21.973532 133.027046,18.012411" id="Fill-18" fill="#001871"></path><path d="M157.58968,16.7637011 C157.163701,14.8495996 155.728826,14.0789146 154.292349,14.0789146 C152.45952,14.0789146 151.209609,15.062589 150.810454,16.7637011 L157.58968,16.7637011 Z M154.611833,21.9202847 C155.941815,21.9202847 157.003959,21.362589 157.58968,20.5919039 L160.354137,22.1865214 C159.104226,23.9941281 157.110454,25.0310498 154.558585,25.0310498 C150.093016,25.0310498 147.274911,21.973532 147.274911,18.012411 C147.274911,14.0524911 150.11984,10.9949733 154.292349,10.9949733 C158.227447,10.9949733 161.018327,14.1053381 161.018327,18.012411 C161.018327,18.5180605 160.966681,18.9692616 160.885409,19.4220641 L150.863701,19.4220641 C151.342927,21.1760231 152.804626,21.9202847 154.611833,21.9202847 L154.611833,21.9202847 Z" id="Fill-19" fill="#001871"></path><path d="M162.624555,12.2544929 L162.765881,12.2544929 C162.890391,12.2544929 162.962055,12.1912367 162.962055,12.0991548 C162.962055,11.9966637 162.890391,11.9434164 162.765881,11.9434164 L162.624555,11.9434164 L162.624555,12.2544929 Z M163.078559,12.4602758 L163.347598,12.9535142 L162.992883,12.9535142 L162.783897,12.5391459 L162.624555,12.5391459 L162.624555,12.9535142 L162.299066,12.9535142 L162.299066,11.6419484 L162.783897,11.6419484 C163.078559,11.6419484 163.287144,11.8257117 163.287144,12.0711299 C163.287144,12.2476868 163.210276,12.3822064 163.078559,12.4602758 Z M163.907696,12.2981317 C163.907696,11.6491548 163.390836,11.1278915 162.749066,11.1278915 C162.111699,11.1278915 161.590036,11.6491548 161.590036,12.2981317 C161.590036,12.9423043 162.111699,13.4667705 162.749066,13.4667705 C163.390836,13.4667705 163.907696,12.9423043 163.907696,12.2981317 Z M164.032607,12.2981317 C164.032607,13.0071619 163.458096,13.5800712 162.749066,13.5800712 C162.040036,13.5800712 161.465125,13.0071619 161.465125,12.2981317 C161.465125,11.5891014 162.040036,11.0145907 162.749066,11.0145907 C163.458096,11.0145907 164.032607,11.5891014 164.032607,12.2981317 L164.032607,12.2981317 Z" id="Fill-20" fill="#001871"></path><g id="Group-24" transform="translate(47.241993, 32.028470)"><mask id="mask-4" fill="white"><use xlink:href="#path-3"></use></mask><g id="Clip-22"></g><path d="M173.557874,4.28380783 C173.874555,4.02197509 174.272509,3.89025801 174.748932,3.89025801 C175.169306,3.89025801 175.536432,4.01356762 175.850311,4.26018683 C176.16419,4.50680605 176.364368,4.87112989 176.451246,5.35596085 L172.949733,5.35596085 C173.038212,4.90355872 173.239991,4.54604093 173.557874,4.28380783 Z M177.702758,6.40409253 C177.733585,6.18109431 177.7504,6.0033363 177.7504,5.8672153 C177.7504,4.9944395 177.470151,4.25177936 176.911254,3.6408363 C176.350356,3.02989324 175.63452,2.72322064 174.760543,2.72322064 C173.839724,2.72322064 173.085854,3.02308719 172.496931,3.62282028 C171.910009,4.22255338 171.615747,4.96641459 171.615747,5.85640569 C171.615747,6.76120996 171.914012,7.50987544 172.509742,8.10080071 C173.105472,8.69252669 173.887367,8.98798932 174.855427,8.98798932 C176.007251,8.98798932 176.876023,8.55640569 177.464546,7.69043594 L176.403603,7.07108541 C176.063301,7.56272242 175.550445,7.80974199 174.867838,7.80974199 C174.375,7.80974199 173.95863,7.68923488 173.616726,7.44661922 C173.276023,7.20400356 173.057829,6.85689502 172.962144,6.40409253 L177.702758,6.40409253 Z M166.435543,3.6408363 L166.435543,2.87855872 L165.149199,2.87855872 L165.149199,8.83385231 L166.435543,8.83385231 L166.435543,5.64181495 C166.435543,5.06169929 166.574066,4.63131673 166.851512,4.34986655 C167.13056,4.06841637 167.494484,3.92669039 167.947286,3.92669039 C168.360454,3.92669039 168.685943,4.04559609 168.923754,4.28380783 C169.161966,4.52241993 169.281272,4.86392349 169.281272,5.30831851 L169.281272,8.83385231 L170.567616,8.83385231 L170.567616,5.17660142 C170.567616,4.41432384 170.357028,3.81579181 169.937055,3.3786032 C169.51548,2.94181495 168.964591,2.72322064 168.280783,2.72322064 C167.440036,2.72322064 166.823488,3.02989324 166.435543,3.6408363 Z M162.373132,8.83385231 L163.659475,8.83385231 L163.659475,2.87855872 L162.373132,2.87855872 L162.373132,8.83385231 Z M163.838835,1.16343416 C163.838835,0.940435943 163.758763,0.74866548 163.600623,0.586120996 C163.440881,0.423976868 163.247509,0.340702847 163.016504,0.340702847 C162.786299,0.340702847 162.591726,0.423976868 162.433185,0.586120996 C162.273443,0.74866548 162.195374,0.940435943 162.195374,1.16343416 C162.195374,1.38643238 162.276646,1.57820285 162.43879,1.74034698 C162.601335,1.90329181 162.795107,1.98456406 163.016504,1.98456406 C163.239101,1.98456406 163.431272,1.90329181 163.595018,1.74034698 C163.757562,1.57820285 163.838835,1.38643238 163.838835,1.16343416 Z M160.348132,8.57161922 C160.824956,8.29457295 161.19048,7.9158363 161.444306,7.43981317 L160.336922,6.80925267 C160.194395,7.08629893 159.981005,7.30929715 159.699555,7.47624555 C159.417705,7.64279359 159.102625,7.72566726 158.752313,7.72566726 C158.228247,7.72566726 157.789858,7.5475089 157.436343,7.19039146 C157.08323,6.83287367 156.907073,6.388879 156.907073,5.85640569 C156.907073,5.32393238 157.08323,4.87953737 157.436343,4.52241993 C157.789858,4.16490214 158.228247,3.9855427 158.752313,3.9855427 C159.109831,3.9855427 159.426512,4.06841637 159.699555,4.2305605 C159.974199,4.39350534 160.17758,4.61770463 160.313301,4.90355872 L161.420285,4.26018683 C161.181673,3.79217082 160.824956,3.41823843 160.348132,3.14079181 C159.871708,2.86294484 159.343639,2.72322064 158.764724,2.72322064 C157.866726,2.72322064 157.118461,3.02308719 156.519929,3.62282028 C155.920596,4.22255338 155.62073,4.96641459 155.62073,5.85640569 C155.62073,6.73758897 155.920596,7.48024911 156.519929,8.0827847 C157.118461,8.68652135 157.866726,8.98798932 158.764724,8.98798932 C159.343639,8.98798932 159.871708,8.84906584 160.348132,8.57161922 Z M153.179359,8.83385231 L154.465703,8.83385231 L154.465703,2.87855872 L153.179359,2.87855872 L153.179359,8.83385231 Z M154.643861,1.16343416 C154.643861,0.940435943 154.56379,0.74866548 154.405649,0.586120996 C154.247109,0.423976868 154.052536,0.340702847 153.822731,0.340702847 C153.591326,0.340702847 153.396753,0.423976868 153.238612,0.586120996 C153.080071,0.74866548 153.0004,0.940435943 153.0004,1.16343416 C153.0004,1.38643238 153.081272,1.57820285 153.243817,1.74034698 C153.406762,1.90329181 153.599733,1.98456406 153.822731,1.98456406 C154.044128,1.98456406 154.2375,1.90329181 154.400044,1.74034698 C154.562589,1.57820285 154.643861,1.38643238 154.643861,1.16343416 Z M146.628737,5.85640569 C146.628737,5.30831851 146.806495,4.85431495 147.164012,4.49239324 C147.52113,4.13127224 147.969528,3.95071174 148.510409,3.95071174 C149.050089,3.95071174 149.498488,4.13127224 149.855605,4.49239324 C150.213123,4.85431495 150.392482,5.30831851 150.392482,5.85640569 C150.392482,6.40409253 150.213123,6.85809609 149.855605,7.21961744 C149.498488,7.58113879 149.050089,7.76209964 148.510409,7.76209964 C147.969528,7.76209964 147.52113,7.58113879 147.164012,7.21961744 C146.806495,6.85809609 146.628737,6.40409253 146.628737,5.85640569 Z M150.392482,3.72370996 C149.907651,3.05671708 149.212633,2.72322064 148.307429,2.72322064 C147.489101,2.72322064 146.791281,3.02588968 146.211165,3.62802491 C145.63105,4.23216192 145.342393,4.97522242 145.342393,5.85640569 C145.342393,6.72918149 145.63105,7.47024021 146.211165,8.07717972 C146.791281,8.68532028 147.489101,8.98798932 148.307429,8.98798932 C149.212633,8.98798932 149.907651,8.65169039 150.392482,7.97629004 L150.392482,8.83385231 L151.678826,8.83385231 L151.678826,0.496441281 L150.392482,0.496441281 L150.392482,3.72370996 Z M140.387589,4.28380783 C140.70427,4.02197509 141.102224,3.89025801 141.578648,3.89025801 C141.999021,3.89025801 142.366148,4.01356762 142.680027,4.26018683 C142.993906,4.50680605 143.194484,4.87112989 143.281361,5.35596085 L139.779048,5.35596085 C139.866326,4.90355872 140.069306,4.54604093 140.387589,4.28380783 Z M144.532473,6.40409253 C144.563301,6.18109431 144.580116,6.0033363 144.580116,5.8672153 C144.580116,4.9944395 144.299466,4.25177936 143.739368,3.6408363 C143.180472,3.02989324 142.463034,2.72322064 141.589858,2.72322064 C140.669039,2.72322064 139.913968,3.02308719 139.327046,3.62282028 C138.739724,4.22255338 138.445463,4.96641459 138.445463,5.85640569 C138.445463,6.76120996 138.744128,7.50987544 139.339457,8.10080071 C139.934786,8.69252669 140.716681,8.98798932 141.685142,8.98798932 C142.836966,8.98798932 143.705738,8.55640569 144.294262,7.69043594 L143.233319,7.07108541 C142.891815,7.56272242 142.38016,7.80974199 141.697553,7.80974199 C141.204315,7.80974199 140.788345,7.68923488 140.446041,7.44661922 C140.104537,7.20400356 139.887144,6.85689502 139.79226,6.40409253 L144.532473,6.40409253 Z M135.729849,0.496441281 L133.204804,4.66494662 L130.692171,0.496441281 L129.215658,0.496441281 L129.215658,8.83385231 L130.584475,8.83385231 L130.584475,2.87855872 L133.122331,7.08229537 L133.288879,7.08229537 L135.825133,2.88976868 L135.825133,8.83385231 L137.195552,8.83385231 L137.195552,0.496441281 L135.729849,0.496441281 Z M122.068906,4.05120107 C122.235854,3.94470641 122.442037,3.89025801 122.688256,3.89025801 C123.227936,3.89025801 123.600667,4.11725979 123.808052,4.57006228 L124.891014,3.96152135 C124.685231,3.57397687 124.389368,3.26970641 124.004226,3.0511121 C123.618683,2.83211744 123.180294,2.72322064 122.688256,2.72322064 C122.068906,2.72322064 121.550445,2.88976868 121.132874,3.22366548 C120.716904,3.55676157 120.508319,3.99795374 120.508319,4.54604093 C120.508319,4.94279359 120.617215,5.27068505 120.83581,5.52851423 C121.054404,5.78634342 121.322242,5.97130783 121.640525,6.08180605 C121.957206,6.19430605 122.273888,6.29079181 122.586165,6.37486655 C122.900044,6.45733986 123.166281,6.55822954 123.384875,6.67753559 C123.60347,6.79644128 123.712767,6.95177936 123.712767,7.14274911 C123.712767,7.58674377 123.375267,7.80974199 122.699466,7.80974199 C122.024466,7.80974199 121.584075,7.5238879 121.378292,6.95177936 L120.269706,7.59515125 C120.460676,8.03233986 120.765747,8.3730427 121.187722,8.61926157 C121.608096,8.86467972 122.112544,8.98798932 122.699466,8.98798932 C123.366459,8.98798932 123.920151,8.82544484 124.361744,8.50035587 C124.801335,8.1752669 125.022731,7.72566726 125.022731,7.15355872 C125.022731,6.74879893 124.913835,6.41370107 124.69524,6.14746441 C124.476646,5.88122776 124.208808,5.69346085 123.890525,5.58136121 C123.572642,5.47086299 123.257562,5.37437722 122.943683,5.29030249 C122.630605,5.20742883 122.364368,5.10814057 122.146174,4.99323843 C121.92758,4.87793594 121.818283,4.7213968 121.818283,4.52241993 C121.818283,4.31623665 121.902358,4.15929715 122.068906,4.05120107 Z M119.71081,2.87855872 L118.233897,2.87855872 L118.233897,1.21107651 L116.947553,1.5922153 L116.947553,2.87855872 L115.851779,2.87855872 L115.851779,4.11725979 L116.947553,4.11725979 L116.947553,6.97580071 C116.947553,7.75329181 117.161744,8.28736655 117.590925,8.57762456 C118.019706,8.86748221 118.725934,8.95275801 119.71081,8.83385231 L119.71081,7.67802491 C119.384119,7.69483986 119.112278,7.69564057 118.893683,7.68483096 C118.67669,7.67241993 118.510943,7.61316726 118.400445,7.50547153 C118.288746,7.39897687 118.233897,7.22241993 118.233897,6.97580071 L118.233897,4.11725979 L119.71081,4.11725979 L119.71081,2.87855872 Z M113.445641,2.87855872 L112.159297,2.87855872 L112.159297,8.83385231 L113.445641,8.83385231 L113.445641,5.83238434 C113.445641,5.22144128 113.627802,4.78265125 113.993728,4.51641459 C114.358052,4.25017794 114.786833,4.13247331 115.280071,4.16490214 L115.280071,2.77086299 C114.381673,2.77086299 113.77113,3.14079181 113.445641,3.87904804 L113.445641,2.87855872 Z M105.989813,5.85640569 C105.989813,5.31672598 106.167571,4.86672598 106.525089,4.50960854 C106.882607,4.1524911 107.323799,3.97433274 107.847865,3.97433274 C108.371931,3.97433274 108.811922,4.1524911 109.169039,4.50960854 C109.526557,4.86672598 109.705916,5.31672598 109.705916,5.85640569 C109.705916,6.39568505 109.526557,6.84448399 109.169039,7.20120107 C108.811922,7.55871886 108.371931,7.73807829 107.847865,7.73807829 C107.323799,7.73807829 106.882607,7.55871886 106.525089,7.20120107 C106.167571,6.84448399 105.989813,6.39568505 105.989813,5.85640569 Z M110.08145,8.0827847 C110.687989,7.48024911 110.99226,6.73758897 110.99226,5.85640569 C110.99226,4.97522242 110.687989,4.23216192 110.08145,3.62802491 C109.47331,3.02588968 108.729448,2.72322064 107.847865,2.72322064 C106.975089,2.72322064 106.232429,3.02588968 105.619884,3.62802491 C105.008941,4.23216192 104.70347,4.97522242 104.70347,5.85640569 C104.70347,6.73758897 105.008941,7.48024911 105.619884,8.0827847 C106.232429,8.68652135 106.975089,8.98798932 107.847865,8.98798932 C108.729448,8.98798932 109.47331,8.68652135 110.08145,8.0827847 Z M98.8198399,5.85640569 C98.8198399,5.30831851 98.9987989,4.85431495 99.3563167,4.49239324 C99.7134342,4.13127224 100.161833,3.95071174 100.701512,3.95071174 C101.241192,3.95071174 101.690792,4.13127224 102.047909,4.49239324 C102.405427,4.85431495 102.583185,5.30831851 102.583185,5.85640569 C102.583185,6.40409253 102.405427,6.85809609 102.047909,7.21961744 C101.690792,7.58113879 101.241192,7.76209964 100.701512,7.76209964 C100.161833,7.76209964 99.7134342,7.58113879 99.3563167,7.21961744 C98.9987989,6.85809609 98.8198399,6.40409253 98.8198399,5.85640569 Z M98.8198399,3.736121 L98.8198399,2.87855872 L97.5330961,2.87855872 L97.5330961,11.2159698 L98.8198399,11.2159698 L98.8198399,7.9875 C99.3046708,8.65449288 99.9992883,8.98798932 100.904893,8.98798932 C101.721619,8.98798932 102.420641,8.68652135 103.000756,8.0827847 C103.579671,7.48024911 103.869528,6.73758897 103.869528,5.85640569 C103.869528,4.98322954 103.579671,4.24217082 103.000756,3.63523132 C102.420641,3.02709075 101.721619,2.72322064 100.904893,2.72322064 C99.9992883,2.72322064 99.3046708,3.06072064 98.8198399,3.736121 Z M95.6093861,8.32820285 C96.1530694,7.88661032 96.4261121,7.28967972 96.4261121,6.53420819 C96.4261121,6.26516904 96.3940836,6.02295374 96.3308274,5.80876335 C96.2663701,5.59377224 96.157073,5.4036032 96.0033363,5.23705516 C95.8475979,5.07010676 95.7034698,4.93118327 95.5689502,4.81948399 C95.4328292,4.70858541 95.2326512,4.59768683 94.9664146,4.48598754 C94.7001779,4.37508897 94.4939947,4.29381673 94.3466637,4.24217082 C94.1997331,4.19012456 93.9687278,4.11285587 93.6504448,4.0091637 C93.0158808,3.81178826 92.5770907,3.62282028 92.3348754,3.44466192 C92.0922598,3.26530249 91.9717527,3.02148577 91.9717527,2.71161032 C91.9717527,2.39372776 92.0906584,2.14150356 92.3292705,1.95533808 C92.5674822,1.76877224 92.8841637,1.67468861 93.2821174,1.67468861 C94.0988434,1.67468861 94.683363,2.06423488 95.032073,2.84212633 L96.1883007,2.17513345 C95.9176601,1.60342527 95.5325178,1.15502669 95.032073,0.829937722 C94.5320285,0.504848754 93.9491103,0.340702847 93.2821174,0.340702847 C92.5434609,0.340702847 91.9112989,0.558096085 91.3872331,0.990880783 C90.8635676,1.42366548 90.6013345,2.00858541 90.6013345,2.74684164 C90.6013345,3.12117438 90.6685943,3.44586299 90.8043149,3.72370996 C90.9388345,4.00235765 91.1434164,4.23496441 91.4168594,4.42153025 C91.6915036,4.60769573 91.9509342,4.75182384 92.1975534,4.85591637 C92.4437722,4.95960854 92.7648577,5.07010676 93.1628114,5.18941281 C93.8690391,5.4036032 94.3606762,5.59977758 94.6397242,5.77913701 C94.9171708,5.95729537 95.055694,6.21752669 95.055694,6.55822954 C95.055694,6.88451957 94.9267794,7.14795374 94.6693505,7.35133452 C94.411121,7.55311388 94.0231762,7.65400356 93.5075178,7.65400356 C92.4593861,7.65400356 91.7687722,7.18598754 91.4352758,6.24835409 L90.2566281,6.93936833 C90.4780249,7.57553381 90.8687722,8.07597865 91.4296708,8.44030249 C91.9885676,8.8058274 92.669573,8.98798932 93.4722865,8.98798932 C94.3538701,8.98798932 95.0657028,8.76779359 95.6093861,8.32820285 Z M81.3106762,7.36814947 C81.0408363,7.1383452 80.9063167,6.82846975 80.9063167,6.43932384 C80.9063167,5.81997331 81.2001779,5.36436833 81.7875,5.07010676 L83.836121,7.27286477 C83.4465747,7.56712633 82.9869662,7.71405694 82.4544929,7.71405694 C81.9624555,7.71405694 81.5813167,7.5991548 81.3106762,7.36814947 Z M85.5276246,7.23803381 C85.8455071,6.72918149 86.0753114,6.14225979 86.2182384,5.4752669 L85.0508007,4.80827402 C84.9639235,5.37157473 84.8209964,5.85640569 84.6224199,6.26116548 L82.5974199,4.06961744 C82.4304715,3.89426157 82.3059609,3.75453737 82.2218861,3.64644128 C82.1394128,3.53994662 82.0621441,3.40262456 81.9908808,3.23607651 C81.9192171,3.06912811 81.8827847,2.90258007 81.8827847,2.73563167 C81.8827847,2.41774911 81.9960854,2.16232206 82.2218861,1.96774911 C82.4488879,1.77317616 82.7287367,1.67468861 83.0622331,1.67468861 C83.3877224,1.67468861 83.6735765,1.77037367 83.9201957,1.9605427 C84.1652135,2.15151246 84.3449733,2.4133452 84.4554715,2.74684164 L85.6225089,2.07984875 C85.399911,1.52495552 85.0596085,1.09617438 84.5983986,0.793505338 C84.1371886,0.492037367 83.6219306,0.340702847 83.0498221,0.340702847 C82.3351868,0.340702847 81.7342527,0.559297153 81.2450178,0.996485765 C80.7577847,1.43407473 80.5135676,2.001379 80.5135676,2.69919929 C80.5135676,3.2316726 80.6721085,3.71650356 80.9903915,4.1524911 C80.5135676,4.40751779 80.1492438,4.74501779 79.8998221,5.16539146 C79.6491993,5.58576512 79.5246886,6.04657473 79.5246886,6.54701957 C79.5246886,7.30088968 79.7881228,7.89621886 80.3161922,8.33340747 C80.8442616,8.77099644 81.5336744,8.98798932 82.3828292,8.98798932 C83.2728203,8.98798932 84.0459075,8.72615658 84.7060943,8.20169039 L85.5036032,9.05965302 L86.6121886,8.41628114 L85.5276246,7.23803381 Z M72.616548,4.05120107 C72.7830961,3.94470641 72.988879,3.89025801 73.2358986,3.89025801 C73.7751779,3.89025801 74.1495107,4.11725979 74.3552936,4.57006228 L75.4398577,3.96152135 C75.2324733,3.57397687 74.9370107,3.26970641 74.551468,3.0511121 C74.1663256,2.83211744 73.7275356,2.72322064 73.2358986,2.72322064 C72.616548,2.72322064 72.0980872,2.88976868 71.6817171,3.22366548 C71.2641459,3.55676157 71.0567616,3.99795374 71.0567616,4.54604093 C71.0567616,4.94279359 71.1648577,5.27068505 71.383452,5.52851423 C71.6016459,5.78634342 71.869484,5.97130783 72.1873665,6.08180605 C72.5056495,6.19430605 72.8207295,6.29079181 73.1350089,6.37486655 C73.4488879,6.45733986 73.7135231,6.55822954 73.9321174,6.67753559 C74.1507117,6.79644128 74.2600089,6.95177936 74.2600089,7.14274911 C74.2600089,7.58674377 73.9221085,7.80974199 73.2483096,7.80974199 C72.5729093,7.80974199 72.1317171,7.5238879 71.9255338,6.95177936 L70.8185498,7.59515125 C71.0091192,8.03233986 71.3145907,8.3730427 71.7349644,8.61926157 C72.1553381,8.86467972 72.6597865,8.98798932 73.2483096,8.98798932 C73.9153025,8.98798932 74.4689947,8.82544484 74.9085854,8.50035587 C75.3501779,8.1752669 75.5703737,7.72566726 75.5703737,7.15355872 C75.5703737,6.74879893 75.4606762,6.41370107 75.2420819,6.14746441 C75.0234875,5.88122776 74.7560498,5.69346085 74.4393683,5.58136121 C74.1210854,5.47086299 73.8060053,5.37437722 73.4921263,5.29030249 C73.1782473,5.20742883 72.9120107,5.10814057 72.6934164,4.99323843 C72.4748221,4.87793594 72.3671263,4.7213968 72.3671263,4.52241993 C72.3671263,4.31623665 72.4495996,4.15929715 72.616548,4.05120107 Z M69.222331,8.57161922 C69.6991548,8.29457295 70.0634786,7.9158363 70.318105,7.43981317 L69.2099199,6.80925267 C69.0665925,7.08629893 68.8552046,7.30929715 68.572153,7.47624555 C68.2907028,7.64279359 67.9756228,7.72566726 67.6265125,7.72566726 C67.1024466,7.72566726 66.6640569,7.5475089 66.3093416,7.19039146 C65.9562278,6.83287367 65.7796708,6.388879 65.7796708,5.85640569 C65.7796708,5.32393238 65.9562278,4.87953737 66.3093416,4.52241993 C66.6640569,4.16490214 67.1024466,3.9855427 67.6265125,3.9855427 C67.9836299,3.9855427 68.29871,4.06841637 68.572153,4.2305605 C68.8471975,4.39350534 69.051379,4.61770463 69.1858986,4.90355872 L70.294484,4.26018683 C70.0562722,3.79217082 69.6991548,3.41823843 69.222331,3.14079181 C68.7463078,2.86294484 68.2178381,2.72322064 67.6377224,2.72322064 C66.7409253,2.72322064 65.9926601,3.02308719 65.392927,3.62282028 C64.793194,4.22255338 64.4933274,4.96641459 64.4933274,5.85640569 C64.4933274,6.73758897 64.793194,7.48024911 65.392927,8.0827847 C65.9926601,8.68652135 66.7409253,8.98798932 67.6377224,8.98798932 C68.2178381,8.98798932 68.7463078,8.84906584 69.222331,8.57161922 Z M62.0523577,8.83385231 L63.3387011,8.83385231 L63.3387011,2.87855872 L62.0523577,2.87855872 L62.0523577,8.83385231 Z M63.5164591,1.16343416 C63.5164591,0.940435943 63.4383897,0.74866548 63.2782473,0.586120996 C63.1201068,0.423976868 62.9255338,0.340702847 62.6953292,0.340702847 C62.4643238,0.340702847 62.270952,0.423976868 62.1108096,0.586120996 C61.9530694,0.74866548 61.8729982,0.940435943 61.8729982,1.16343416 C61.8729982,1.38643238 61.9542705,1.57820285 62.118016,1.74034698 C62.2805605,1.90329181 62.4727313,1.98456406 62.6953292,1.98456406 C62.916726,1.98456406 63.1104982,1.90329181 63.2730427,1.74034698 C63.4351868,1.57820285 63.5164591,1.38643238 63.5164591,1.16343416 Z M55.5017349,5.85640569 C55.5017349,5.30831851 55.6794929,4.85431495 56.0370107,4.49239324 C56.3941281,4.13127224 56.8425267,3.95071174 57.3834075,3.95071174 C57.9226868,3.95071174 58.3714858,4.13127224 58.7286032,4.49239324 C59.086121,4.85431495 59.2650801,5.30831851 59.2650801,5.85640569 C59.2650801,6.40409253 59.086121,6.85809609 58.7286032,7.21961744 C58.3714858,7.58113879 57.9226868,7.76209964 57.3834075,7.76209964 C56.8425267,7.76209964 56.3941281,7.58113879 56.0370107,7.21961744 C55.6794929,6.85809609 55.5017349,6.40409253 55.5017349,5.85640569 Z M59.2650801,3.72370996 C58.7802491,3.05671708 58.0856317,2.72322064 57.1800267,2.72322064 C56.3633007,2.72322064 55.6642794,3.02588968 55.0841637,3.62802491 C54.5052491,4.23216192 54.2153915,4.97522242 54.2153915,5.85640569 C54.2153915,6.72918149 54.5052491,7.47024021 55.0841637,8.07717972 C55.6642794,8.68532028 56.3633007,8.98798932 57.1800267,8.98798932 C58.0856317,8.98798932 58.7802491,8.65169039 59.2650801,7.97629004 L59.2650801,8.83385231 L60.5518238,8.83385231 L60.5518238,0.496441281 L59.2650801,0.496441281 L59.2650801,3.72370996 Z M49.2605872,4.28380783 C49.5784698,4.02197509 49.9748221,3.89025801 50.4512456,3.89025801 C50.8716192,3.89025801 51.2387456,4.01356762 51.5526246,4.26018683 C51.8669039,4.50680605 52.0670819,4.87112989 52.1539591,5.35596085 L48.652847,5.35596085 C48.7401246,4.90355872 48.9423043,4.54604093 49.2605872,4.28380783 Z M53.4050712,6.40409253 C53.4375,6.18109431 53.4527135,6.0033363 53.4527135,5.8672153 C53.4527135,4.9944395 53.1724644,4.25177936 52.6135676,3.6408363 C52.0530694,3.02989324 51.3368327,2.72322064 50.4628559,2.72322064 C49.5420374,2.72322064 48.7881673,3.02308719 48.2000445,3.62282028 C47.6127224,4.22255338 47.3188612,4.96641459 47.3188612,5.85640569 C47.3188612,6.76120996 47.616726,7.50987544 48.2124555,8.10080071 C48.8077847,8.69252669 49.5896797,8.98798932 50.5577402,8.98798932 C51.7095641,8.98798932 52.5799377,8.55640569 53.1672598,7.69043594 L52.1063167,7.07108541 C51.7660142,7.56272242 51.252758,7.80974199 50.5705516,7.80974199 C50.0789146,7.80974199 49.6613434,7.68923488 49.3190391,7.44661922 C48.9787367,7.20400356 48.7601423,6.85689502 48.6648577,6.40409253 L53.4050712,6.40409253 Z M41.1017349,5.85640569 C41.1017349,5.30831851 41.2802936,4.85431495 41.6378114,4.49239324 C41.9949288,4.13127224 42.4433274,3.95071174 42.9834075,3.95071174 C43.5234875,3.95071174 43.9722865,4.13127224 44.3294039,4.49239324 C44.6869217,4.85431495 44.8654804,5.30831851 44.8654804,5.85640569 C44.8654804,6.40409253 44.6869217,6.85809609 44.3294039,7.21961744 C43.9722865,7.58113879 43.5234875,7.76209964 42.9834075,7.76209964 C42.4433274,7.76209964 41.9949288,7.58113879 41.6378114,7.21961744 C41.2802936,6.85809609 41.1017349,6.40409253 41.1017349,5.85640569 Z M44.8654804,3.72370996 C44.3806495,3.05671708 43.6864324,2.72322064 42.7808274,2.72322064 C41.9629004,2.72322064 41.2642794,3.02588968 40.6849644,3.62802491 C40.1052491,4.23216192 39.8153915,4.97522242 39.8153915,5.85640569 C39.8153915,6.72918149 40.1052491,7.47024021 40.6849644,8.07717972 C41.2642794,8.68532028 41.9629004,8.98798932 42.7808274,8.98798932 C43.6864324,8.98798932 44.3806495,8.65169039 44.8654804,7.97629004 L44.8654804,8.83385231 L46.1518238,8.83385231 L46.1518238,2.87855872 L44.8654804,2.87855872 L44.8654804,3.72370996 Z M33.9317616,5.85640569 C33.9317616,5.30831851 34.1103203,4.85431495 34.4678381,4.49239324 C34.8249555,4.13127224 35.2733541,3.95071174 35.8134342,3.95071174 C36.3535142,3.95071174 36.8023132,4.13127224 37.1594306,4.49239324 C37.5169484,4.85431495 37.6951068,5.30831851 37.6951068,5.85640569 C37.6951068,6.40409253 37.5169484,6.85809609 37.1594306,7.21961744 C36.8023132,7.58113879 36.3535142,7.76209964 35.8134342,7.76209964 C35.2733541,7.76209964 34.8249555,7.58113879 34.4678381,7.21961744 C34.1103203,6.85809609 33.9317616,6.40409253 33.9317616,5.85640569 Z M33.9317616,3.736121 L33.9317616,2.87855872 L32.6454181,2.87855872 L32.6454181,11.2159698 L33.9317616,11.2159698 L33.9317616,7.9875 C34.4157918,8.65449288 35.1108096,8.98798932 36.0160142,8.98798932 C36.8339413,8.98798932 37.5325623,8.68652135 38.1122776,8.0827847 C38.6915925,7.48024911 38.9818505,6.73758897 38.9818505,5.85640569 C38.9818505,4.98322954 38.6915925,4.24217082 38.1122776,3.63523132 C37.5325623,3.02709075 36.8339413,2.72322064 36.0160142,2.72322064 C35.1108096,2.72322064 34.4157918,3.06072064 33.9317616,3.736121 Z M26.4759342,5.85640569 C26.4759342,5.31672598 26.6544929,4.86672598 27.0120107,4.50960854 C27.3691281,4.1524911 27.8099199,3.97433274 28.3335854,3.97433274 C28.8580516,3.97433274 29.2984431,4.1524911 29.6559609,4.50960854 C30.0134786,4.86672598 30.1920374,5.31672598 30.1920374,5.85640569 C30.1920374,6.39568505 30.0134786,6.84448399 29.6559609,7.20120107 C29.2984431,7.55871886 28.8580516,7.73807829 28.3335854,7.73807829 C27.8099199,7.73807829 27.3691281,7.55871886 27.0120107,7.20120107 C26.6544929,6.84448399 26.4759342,6.39568505 26.4759342,5.85640569 Z M30.5667705,8.0827847 C31.1745107,7.48024911 31.4783808,6.73758897 31.4783808,5.85640569 C31.4783808,4.97522242 31.1745107,4.23216192 30.5667705,3.62802491 C29.959831,3.02588968 29.2147687,2.72322064 28.3335854,2.72322064 C27.4604093,2.72322064 26.7177491,3.02588968 26.1064057,3.62802491 C25.4946619,4.23216192 25.1895907,4.97522242 25.1895907,5.85640569 C25.1895907,6.73758897 25.4946619,7.48024911 26.1064057,8.0827847 C26.7177491,8.68652135 27.4604093,8.98798932 28.3335854,8.98798932 C29.2147687,8.98798932 29.959831,8.68652135 30.5667705,8.0827847 Z M20.0081851,3.6408363 L20.0081851,0.496441281 L18.7218416,0.496441281 L18.7218416,8.83385231 L20.0081851,8.83385231 L20.0081851,5.64181495 C20.0081851,5.06169929 20.1471085,4.63131673 20.4249555,4.34986655 C20.7032028,4.06841637 21.0683274,3.92669039 21.5211299,3.92669039 C21.9338968,3.92669039 22.2589858,4.04559609 22.4975979,4.28380783 C22.7358096,4.52241993 22.8551157,4.86392349 22.8551157,5.30831851 L22.8551157,8.83385231 L24.1414591,8.83385231 L24.1414591,5.17660142 C24.1414591,4.41432384 23.9304715,3.81579181 23.5096975,3.3786032 C23.0893238,2.94181495 22.5372331,2.72322064 21.8546263,2.72322064 C21.0126779,2.72322064 20.397331,3.02989324 20.0081851,3.6408363 Z M17.5544039,2.87855872 L16.0774911,2.87855872 L16.0774911,1.21107651 L14.791548,1.5922153 L14.791548,2.87855872 L13.695774,2.87855872 L13.695774,4.11725979 L14.791548,4.11725979 L14.791548,6.97580071 C14.791548,7.75329181 15.0057384,8.28736655 15.4345196,8.57762456 C15.8633007,8.86748221 16.5699288,8.95275801 17.5544039,8.83385231 L17.5544039,7.67802491 C17.2289146,7.69483986 16.957073,7.69564057 16.738879,7.68483096 C16.5202847,7.67241993 16.3557384,7.61316726 16.2444395,7.50547153 C16.1331406,7.39897687 16.0774911,7.22241993 16.0774911,6.97580071 L16.0774911,4.11725979 L17.5544039,4.11725979 L17.5544039,2.87855872 Z M11.2900356,2.87855872 L10.0036922,2.87855872 L10.0036922,8.83385231 L11.2900356,8.83385231 L11.2900356,5.83238434 C11.2900356,5.22144128 11.4725979,4.78265125 11.8377224,4.51641459 C12.202847,4.25017794 12.6320285,4.13247331 13.1244662,4.16490214 L13.1244662,2.77086299 C12.2268683,2.77086299 11.6155249,3.14079181 11.2900356,3.87904804 L11.2900356,2.87855872 Z M1.55898577,4.66494662 C1.55898577,3.8077847 1.84283808,3.09435053 2.4105427,2.52664591 C2.97824733,1.95934164 3.67927046,1.67468861 4.51281139,1.67468861 C5.34675267,1.67468861 6.04737544,1.95934164 6.61508007,2.52664591 C7.1827847,3.09435053 7.46703737,3.8077847 7.46703737,4.66494662 C7.46703737,5.52290925 7.1827847,6.23594306 6.61508007,6.80324733 C6.04737544,7.37095196 5.34675267,7.65400356 4.51281139,7.65400356 C3.67927046,7.65400356 2.97824733,7.37095196 2.4105427,6.80324733 C1.84283808,6.23594306 1.55898577,5.52290925 1.55898577,4.66494662 Z M8.8366548,4.66494662 C8.8366548,3.45867438 8.41748221,2.43576512 7.57993772,1.59782028 C6.74199288,0.759875445 5.71988434,0.340702847 4.51281139,0.340702847 C3.30613879,0.340702847 2.28362989,0.759875445 1.44608541,1.59782028 C0.608140569,2.43576512 0.189368327,3.45867438 0.189368327,4.66494662 C0.189368327,5.87161922 0.608140569,6.89452847 1.44608541,7.73247331 C2.28362989,8.57041815 3.30613879,8.98798932 4.51281139,8.98798932 C5.71988434,8.98798932 6.74199288,8.57041815 7.57993772,7.73247331 C8.41748221,6.89452847 8.8366548,5.87161922 8.8366548,4.66494662 L8.8366548,4.66494662 Z" id="Fill-21" fill="#232653" mask="url(#mask-4)"></path><path d="M139.175712,28.3672153 L139.175712,24.2239324 L140.555738,24.2239324 C141.126246,24.2239324 141.591459,24.4185053 141.949778,24.8068505 C142.310098,25.1947954 142.489457,25.6924377 142.489457,26.2961744 C142.489457,26.8947064 142.310098,27.3891459 141.949778,27.7802936 C141.591459,28.172242 141.126246,28.3672153 140.555738,28.3672153 L139.175712,28.3672153 Z M138.182028,23.275089 L138.182028,29.3172598 L140.555738,29.3172598 C141.385276,29.3172598 142.074689,29.0241993 142.623977,28.4416815 C143.173265,27.8571619 143.447909,27.1413256 143.447909,26.2961744 C143.447909,25.4446174 143.173265,24.7279804 142.623977,24.1466637 C142.074689,23.5649466 141.385276,23.275089 140.555738,23.275089 L138.182028,23.275089 Z M135.679404,27.3751335 L132.830472,23.275089 L132.054582,23.275089 L132.054582,29.3172598 L133.046263,29.3172598 L133.046263,25.2172153 L135.895196,29.3172598 L136.673087,29.3172598 L136.673087,23.275089 L135.679404,23.275089 L135.679404,27.3751335 Z M125.57202,26.2961744 C125.57202,25.6740214 125.778203,25.158363 126.188568,24.7463968 C126.600534,24.336032 127.107785,24.1298488 127.713523,24.1298488 C128.31726,24.1298488 128.824511,24.336032 129.236477,24.7463968 C129.647242,25.158363 129.853025,25.6740214 129.853025,26.2961744 C129.853025,26.916726 129.647242,27.4339858 129.236477,27.8463523 C128.824511,28.2567171 128.31726,28.4625 127.713523,28.4625 C127.107785,28.4625 126.600534,28.2567171 126.188568,27.8463523 C125.778203,27.4339858 125.57202,26.916726 125.57202,26.2961744 Z M130.846308,26.2961744 C130.846308,25.4217972 130.542438,24.6803381 129.935899,24.0737989 C129.328959,23.4656584 128.5875,23.1629893 127.713523,23.1629893 C126.837544,23.1629893 126.097687,23.4656584 125.489546,24.0737989 C124.882607,24.6803381 124.580338,25.4217972 124.580338,26.2961744 C124.580338,27.1705516 124.882607,27.9120107 125.489546,28.5185498 C126.097687,29.1254893 126.837544,29.4293594 127.713523,29.4293594 C128.5875,29.4293594 129.328959,29.1254893 129.935899,28.5185498 C130.542438,27.9120107 130.846308,27.1705516 130.846308,26.2961744 Z M122.31032,23.275089 L120.479893,26.2961744 L118.658674,23.275089 L117.588123,23.275089 L117.588123,29.3172598 L118.579804,29.3172598 L118.579804,25.0014235 L120.41984,28.0477313 L120.540347,28.0477313 L122.378781,25.009831 L122.378781,29.3172598 L123.370863,29.3172598 L123.370863,23.275089 L122.31032,23.275089 Z M112.10605,28.3672153 L112.10605,24.2239324 L113.488078,24.2239324 C114.058185,24.2239324 114.522198,24.4185053 114.882117,24.8068505 C115.242037,25.1947954 115.421797,25.6924377 115.421797,26.2961744 C115.421797,26.8947064 115.242037,27.3891459 114.882117,27.7802936 C114.522198,28.172242 114.058185,28.3672153 113.488078,28.3672153 L112.10605,28.3672153 Z M111.114368,23.275089 L111.114368,29.3172598 L113.488078,29.3172598 C114.316014,29.3172598 115.005427,29.0241993 115.554715,28.4416815 C116.105605,27.8571619 116.379849,27.1413256 116.379849,26.2961744 C116.379849,25.4446174 116.105605,24.7279804 115.554715,24.1466637 C115.005427,23.5649466 114.316014,23.275089 113.488078,23.275089 L111.114368,23.275089 Z M107.230116,26.7361655 L109.647064,26.7361655 L109.647064,25.7957295 L107.230116,25.7957295 L107.230116,24.2239324 L109.862856,24.2239324 L109.862856,23.275089 L106.237633,23.275089 L106.237633,29.3172598 L109.906094,29.3172598 L109.906094,28.3672153 L107.230116,28.3672153 L107.230116,26.7361655 Z M103.06121,24.2071174 C103.326246,24.2071174 103.550044,24.3052046 103.733808,24.5009786 C103.918772,24.695952 104.011254,24.9353648 104.011254,25.2172153 C104.011254,25.4986655 103.918772,25.7384786 103.733808,25.9330516 C103.550044,26.129226 103.326246,26.2277135 103.06121,26.2277135 L101.637544,26.2277135 L101.637544,24.2071174 L103.06121,24.2071174 Z M105.17589,29.3172598 L103.80387,26.9687722 C104.159786,26.8258452 104.449644,26.5932384 104.671041,26.2737544 C104.892838,25.9542705 105.003336,25.6023577 105.003336,25.2172153 C105.003336,24.6763345 104.814368,24.216726 104.438434,23.8399911 C104.060498,23.4628559 103.602091,23.275089 103.06121,23.275089 L100.644262,23.275089 L100.644262,29.3172598 L101.637544,29.3172598 L101.637544,27.1157028 L102.810587,27.1157028 L104.088123,29.3172598 L105.17589,29.3172598 Z M91.0369217,25.7524911 L88.4478203,25.7524911 L88.4478203,23.275089 L87.4553381,23.275089 L87.4553381,29.3172598 L88.4478203,29.3172598 L88.4478203,26.7009342 L91.0369217,26.7009342 L91.0369217,29.3172598 L92.030605,29.3172598 L92.030605,23.275089 L91.0369217,23.275089 L91.0369217,25.7524911 Z M83.7268238,24.4397242 L84.6852758,27.1677491 L82.7683719,27.1677491 L83.7268238,24.4397242 Z M86.5052936,29.3172598 L84.3225534,23.275089 L83.1310943,23.275089 L80.9383452,29.3172598 L82.0173043,29.3172598 L82.4404804,28.0993772 L85.0131673,28.0993772 L85.4363434,29.3172598 L86.5052936,29.3172598 Z M80.058363,27.3146797 L80.058363,23.275089 L79.0646797,23.275089 L79.0646797,27.2546263 C79.0646797,27.6217527 78.956984,27.9160142 78.7411922,28.1346085 C78.525,28.3532028 78.2019128,28.4625 77.7703292,28.4625 C77.3387456,28.4625 77.0148577,28.3532028 76.7990658,28.1346085 C76.583274,27.9160142 76.4751779,27.6217527 76.4751779,27.2546263 L76.4751779,23.275089 L75.4834964,23.275089 L75.4834964,27.3146797 C75.4834964,27.959653 75.6960854,28.4725089 76.1224644,28.8548488 C76.5480427,29.2371886 77.097331,29.4293594 77.7703292,29.4293594 C78.4441281,29.4293594 78.9934164,29.2371886 79.419395,28.8548488 C79.8453737,28.4725089 80.058363,27.959653 80.058363,27.3146797 Z M69.6399021,27.840347 C69.2251335,27.4271797 69.0177491,26.9115214 69.0177491,26.2961744 C69.0177491,25.6796263 69.2251335,25.165169 69.6399021,24.7508007 C70.0546708,24.336032 70.5607206,24.1298488 71.1588523,24.1298488 C71.7573843,24.1298488 72.2634342,24.336032 72.6778025,24.7508007 C73.0925712,25.165169 73.3003559,25.6796263 73.3003559,26.2961744 C73.3003559,26.8258452 73.1390125,27.2882562 72.816726,27.68621 L71.6592972,26.5035587 L70.9598754,27.1325178 L72.0656584,28.2635231 C71.7842082,28.3968416 71.4815391,28.4625 71.1588523,28.4625 C70.5607206,28.4625 70.0546708,28.2551157 69.6399021,27.840347 Z M73.3772242,24.0737989 C72.7678826,23.4656584 72.0276246,23.1629893 71.1588523,23.1629893 C70.2900801,23.1629893 69.5502224,23.4656584 68.9408808,24.0737989 C68.3315391,24.6803381 68.0260676,25.4217972 68.0260676,26.2961744 C68.0260676,27.1705516 68.3315391,27.9120107 68.9408808,28.5185498 C69.5502224,29.1254893 70.2900801,29.4293594 71.1588523,29.4293594 C71.7293594,29.4293594 72.2662367,29.2820285 72.7730872,28.9893683 L73.4372776,29.6703737 L74.1366993,29.0414146 L73.4977313,28.3852313 C74.0274021,27.7983096 74.2920374,27.1016904 74.2920374,26.2961744 C74.2920374,25.4217972 73.9869662,24.6803381 73.3772242,24.0737989 Z M64.5982206,24.4397242 L65.557073,27.1677491 L63.6413701,27.1677491 L64.5982206,24.4397242 Z M67.3786922,29.3172598 L65.1939502,23.275089 L64.0028915,23.275089 L61.8113434,29.3172598 L62.8903025,29.3172598 L63.3134786,28.0993772 L65.8845641,28.0993772 L66.3081406,29.3172598 L67.3786922,29.3172598 Z M60.6158808,28.9501335 C61.0094306,28.6310498 61.2076068,28.1978648 61.2076068,27.6509786 C61.2076068,27.4548043 61.1835854,27.2798488 61.1375445,27.1245107 C61.0911032,26.9687722 61.0126335,26.8314502 60.9005338,26.709742 C60.7884342,26.5892349 60.6831406,26.4883452 60.5854537,26.408274 C60.4873665,26.3274021 60.3428381,26.2469306 60.1494662,26.1656584 C59.9560943,26.0859875 59.8075623,26.0271352 59.7010676,25.9895018 C59.594573,25.951468 59.4264235,25.8954181 59.1950178,25.8213523 C58.7358096,25.6768238 58.4175267,25.5411032 58.2421708,25.4105872 C58.0660142,25.2816726 57.9787367,25.1051157 57.9787367,24.8809164 C57.9787367,24.6495107 58.0644128,24.4673488 58.2381673,24.3316281 C58.4103203,24.1971085 58.6401246,24.1298488 58.9275801,24.1298488 C59.5205071,24.1298488 59.9432829,24.4112989 60.1971085,24.975 L61.033452,24.4913701 C60.838879,24.0778025 60.559831,23.7531139 60.1971085,23.5161032 C59.8343861,23.280694 59.4108096,23.1629893 58.9275801,23.1629893 C58.3923043,23.1629893 57.9354982,23.3199288 57.5559609,23.6322064 C57.1760231,23.9460854 56.9854537,24.370863 56.9854537,24.9061388 C56.9854537,25.1767794 57.0346975,25.4117883 57.1327847,25.6135676 C57.2304715,25.815347 57.3790036,25.9834964 57.5767794,26.1196174 C57.7757562,26.254137 57.9647242,26.3594306 58.1428826,26.4334964 C58.3210409,26.5091637 58.5536477,26.5892349 58.8419039,26.6761121 C59.3535587,26.8314502 59.7106762,26.9731762 59.9124555,27.1032918 C60.1130338,27.2322064 60.2139235,27.4215747 60.2139235,27.6677936 C60.2139235,27.9048043 60.1202402,28.0953737 59.9336744,28.2427046 C59.7471085,28.3896352 59.4656584,28.4625 59.0913256,28.4625 C58.3322509,28.4625 57.831806,28.1233986 57.5907918,27.4439947 L56.736032,27.9440391 C56.8969751,28.4048488 57.1800267,28.7679715 57.5867883,29.0326068 C57.991548,29.2964413 58.4847865,29.4293594 59.0661032,29.4293594 C59.7054715,29.4293594 60.2211299,29.2696174 60.6158808,28.9501335 Z M55.2983541,28.9501335 C55.6919039,28.6310498 55.8896797,28.1978648 55.8896797,27.6509786 C55.8896797,27.4548043 55.8672598,27.2798488 55.8208185,27.1245107 C55.7747776,26.9687722 55.6963078,26.8314502 55.5842082,26.709742 C55.4705071,26.5892349 55.3656139,26.4883452 55.2691281,26.408274 C55.1706406,26.3274021 55.024911,26.2469306 54.8331406,26.1656584 C54.6397687,26.0859875 54.4896352,26.0271352 54.3835409,25.9895018 C54.2766459,25.951468 54.1084964,25.8954181 53.8790925,25.8213523 C53.4178826,25.6768238 53.1,25.5411032 52.9246441,25.4105872 C52.7496886,25.2816726 52.66121,25.1051157 52.66121,24.8809164 C52.66121,24.6495107 52.7480872,24.4673488 52.9202402,24.3316281 C53.0927936,24.1971085 53.3237989,24.1298488 53.6112544,24.1298488 C54.2037811,24.1298488 54.6269573,24.4112989 54.8791815,24.975 L55.7175267,24.4913701 C55.520952,24.0778025 55.2423043,23.7531139 54.8791815,23.5161032 C54.5180605,23.280694 54.094484,23.1629893 53.6112544,23.1629893 C53.0759786,23.1629893 52.6191726,23.3199288 52.2380338,23.6322064 C51.8580961,23.9460854 51.6691281,24.370863 51.6691281,24.9061388 C51.6691281,25.1767794 51.7179715,25.4117883 51.8164591,25.6135676 C51.9129448,25.815347 52.0614769,25.9834964 52.2604537,26.1196174 C52.4594306,26.254137 52.6471975,26.3594306 52.8249555,26.4334964 C53.0043149,26.5091637 53.2369217,26.5892349 53.5243772,26.6761121 C54.0372331,26.8314502 54.3931495,26.9731762 54.5949288,27.1032918 C54.7967082,27.2322064 54.8975979,27.4215747 54.8975979,27.6677936 C54.8975979,27.9048043 54.8035142,28.0953737 54.6173488,28.2427046 C54.4295819,28.3896352 54.1493327,28.4625 53.775,28.4625 C53.0159253,28.4625 52.5154804,28.1233986 52.2728648,27.4439947 L51.418105,27.9440391 C51.5794484,28.4048488 51.8641014,28.7679715 52.2688612,29.0326068 C52.6752224,29.2964413 53.1684609,29.4293594 53.7501779,29.4293594 C54.3875445,29.4293594 54.9044039,29.2696174 55.2983541,28.9501335 Z M49.2349644,29.3172598 L50.2274466,29.3172598 L50.2274466,23.275089 L49.2349644,23.275089 L49.2349644,29.3172598 Z M95.9881228,30.8278025 L96.6867438,30.8278025 L96.6867438,21.7649466 L95.9881228,21.7649466 L95.9881228,30.8278025 Z M44.5788256,30.8278025 L45.2774466,30.8278025 L45.2774466,21.7649466 L44.5788256,21.7649466 L44.5788256,30.8278025 Z M38.2471975,26.7361655 L40.6637456,26.7361655 L40.6637456,25.7957295 L38.2471975,25.7957295 L38.2471975,24.2239324 L40.8799377,24.2239324 L40.8799377,23.275089 L37.2547153,23.275089 L37.2547153,29.3172598 L40.9231762,29.3172598 L40.9231762,28.3672153 L38.2471975,28.3672153 L38.2471975,26.7361655 Z M35.8130338,27.3146797 L35.8130338,23.275089 L34.8205516,23.275089 L34.8205516,27.2546263 C34.8205516,27.6217527 34.7128559,27.9160142 34.4970641,28.1346085 C34.2812722,28.3532028 33.9573843,28.4625 33.5258007,28.4625 C33.0942171,28.4625 32.7703292,28.3532028 32.5545374,28.1346085 C32.3387456,27.9160142 32.2310498,27.6217527 32.2310498,27.2546263 L32.2310498,23.275089 L31.2381673,23.275089 L31.2381673,27.3146797 C31.2381673,27.959653 31.4507562,28.4725089 31.8771352,28.8548488 C32.3027135,29.2371886 32.8524021,29.4293594 33.5258007,29.4293594 C34.1991993,29.4293594 34.7484875,29.2371886 35.1740658,28.8548488 C35.6004448,28.4725089 35.8130338,27.959653 35.8130338,27.3146797 Z M28.2519128,29.3172598 L30.3493772,23.275089 L29.2704181,23.275089 L27.6565836,28.1177936 L26.0507562,23.275089 L24.9633897,23.275089 L27.0608541,29.3172598 L28.2519128,29.3172598 Z M21.6404359,26.7361655 L24.056984,26.7361655 L24.056984,25.7957295 L21.6404359,25.7957295 L21.6404359,24.2239324 L24.2727758,24.2239324 L24.2727758,23.275089 L20.6475534,23.275089 L20.6475534,29.3172598 L24.3160142,29.3172598 L24.3160142,28.3672153 L21.6404359,28.3672153 L21.6404359,26.7361655 Z M17.1520463,23.275089 L16.1591637,23.275089 L16.1591637,29.3172598 L19.6118327,29.3172598 L19.6118327,28.3672153 L17.1520463,28.3672153 L17.1520463,23.275089 Z M12.6636566,23.275089 L11.6711744,23.275089 L11.6711744,29.3172598 L15.1238434,29.3172598 L15.1238434,28.3672153 L12.6636566,28.3672153 L12.6636566,23.275089 Z M7.78692171,26.7361655 L10.2038701,26.7361655 L10.2038701,25.7957295 L7.78692171,25.7957295 L7.78692171,24.2239324 L10.4196619,24.2239324 L10.4196619,23.275089 L6.7944395,23.275089 L6.7944395,29.3172598 L10.4629004,29.3172598 L10.4629004,28.3672153 L7.78692171,28.3672153 L7.78692171,26.7361655 Z M2.21957295,28.3852313 L2.21957295,26.692927 L3.81659253,26.692927 C4.0463968,26.692927 4.24096975,26.7754004 4.39911032,26.9395463 C4.55725089,27.1032918 4.63652135,27.3034698 4.63652135,27.5392794 C4.63652135,27.7746886 4.55725089,27.9748665 4.39911032,28.1390125 C4.24096975,28.302758 4.0463968,28.3852313 3.81659253,28.3852313 L2.21957295,28.3852313 Z M4.17891459,24.4353203 C4.32864769,24.5882562 4.40351423,24.7776246 4.40351423,25.0014235 C4.40351423,25.2256228 4.32864769,25.4145907 4.17891459,25.5659253 C4.02918149,25.7188612 3.84501779,25.7957295 3.62642349,25.7957295 L2.21957295,25.7957295 L2.21957295,24.2071174 L3.62642349,24.2071174 C3.84501779,24.2071174 4.02918149,24.2839858 4.17891459,24.4353203 Z M5.39599644,24.9493772 C5.39599644,24.4717527 5.22504448,24.0737989 4.88274021,23.7543149 C4.54003559,23.434831 4.12126335,23.275089 3.62642349,23.275089 L1.22709075,23.275089 L1.22709075,29.3172598 L3.81659253,29.3172598 C4.32264235,29.3172598 4.75142349,29.1531139 5.10253559,28.8256228 C5.45364769,28.4977313 5.62900356,28.0853648 5.62900356,27.5909253 C5.62900356,27.2742438 5.55413701,26.9955961 5.40480427,26.7529804 C5.25507117,26.5119662 5.04768683,26.3213968 4.7830516,26.1840747 C5.19181495,25.8842082 5.39599644,25.4738434 5.39599644,24.9493772 L5.39599644,24.9493772 Z" id="Fill-23" fill="#0072CE" mask="url(#mask-4)"></path></g></g></g></g></svg> 