<svg xmlns="http://www.w3.org/2000/svg" xmlns:xlink="http://www.w3.org/1999/xlink" width="399.147" height="78.498" viewBox="0 0 399.147 78.498"><defs><clipPath id="a"><rect width="399.147" height="78.498" fill="#000"/></clipPath></defs><rect width="1.242" height="9.626" transform="translate(251.564 68.715)" fill="#000"/><g clip-path="url(#a)"><path d="M1046.89,277.858V266.879h1.547l3.518,5.554a31.09,31.09,0,0,1,1.971,3.568l.033-.016c-.13-1.467-.163-2.8-.163-4.513v-4.593h1.336v10.979H1053.7l-3.486-5.571a34.747,34.747,0,0,1-2.052-3.665l-.049.016c.081,1.384.114,2.7.114,4.528v4.691Z" transform="translate(-782.733 -199.539)" fill="#000"/><path d="M1122.446,275.6a5.02,5.02,0,0,0,2.541.716c1.45,0,2.3-.765,2.3-1.873,0-1.027-.586-1.613-2.068-2.183-1.792-.635-2.9-1.563-2.9-3.111,0-1.711,1.417-2.981,3.551-2.981a4.987,4.987,0,0,1,2.427.538l-.391,1.156a4.373,4.373,0,0,0-2.085-.521c-1.5,0-2.068.9-2.068,1.645,0,1.026.667,1.531,2.182,2.118,1.857.717,2.8,1.612,2.8,3.225,0,1.694-1.254,3.16-3.844,3.16a5.672,5.672,0,0,1-2.8-.7Z" transform="translate(-838.957 -199.008)" fill="#000"/><path d="M1189.393,268.084h-3.339v-1.206h8.128v1.206h-3.355v9.773h-1.434Z" transform="translate(-886.782 -199.538)" fill="#000"/><rect width="1.417" height="10.979" transform="translate(317.432 67.34)" fill="#000"/><path d="M1306.74,268.084H1303.4v-1.206h8.128v1.206h-3.355v9.773h-1.433Z" transform="translate(-974.52 -199.538)" fill="#000"/><path d="M1376.741,266.879v6.5c0,2.459,1.092,3.5,2.557,3.5,1.629,0,2.672-1.075,2.672-3.5v-6.5h1.433v6.4c0,3.371-1.776,4.756-4.153,4.756-2.248,0-3.942-1.286-3.942-4.691v-6.467Z" transform="translate(-1028.283 -199.539)" fill="#000"/><path d="M1450.423,268.084h-3.339v-1.206h8.128v1.206h-3.355v9.773h-1.434Z" transform="translate(-1081.948 -199.538)" fill="#000"/><path d="M1524.738,272.71h-4.267v3.958h4.756v1.189h-6.173V266.879h5.929v1.189h-4.512v3.469h4.267Z" transform="translate(-1135.758 -199.539)" fill="#000"/><path d="M.374,104.476H0v-.393H9.548a9.6,9.6,0,0,1,3.9.711,6.579,6.579,0,0,1,2.49,1.807,7.02,7.02,0,0,1,1.273,2.312,7.949,7.949,0,0,1,.384,2.4,6.857,6.857,0,0,1-.627,2.874,6.192,6.192,0,0,1-1.928,2.368,7.473,7.473,0,0,1-3.248,1.348v.075a11.529,11.529,0,0,1,4.568,4.756l2.49,4.212a13.244,13.244,0,0,0,2.706,3.576,4.07,4.07,0,0,0,2.012.842v.3H18.553q-.318-.411-.6-.8l-.6-.814q-.187-.28-.552-.852a6.854,6.854,0,0,0-.44-.646l-3.3-5.448a13.83,13.83,0,0,0-2.031-2.705A7.769,7.769,0,0,0,9.1,118.911a5.645,5.645,0,0,0-1.619-.562,11.187,11.187,0,0,0-1.694-.112v10.091q0,2.939,3,3.033v.3H0v-.3a4.2,4.2,0,0,0,1.46-.309,2.334,2.334,0,0,0,1.058-.936,3.308,3.308,0,0,0,.421-1.787V107.471a2.888,2.888,0,0,0-.805-2.322,2.685,2.685,0,0,0-1.76-.674m5.411,13.03H7.358a9.945,9.945,0,0,0,4.053-.711,4.671,4.671,0,0,0,2.293-2.032,6.731,6.731,0,0,0,.711-3.23,8.027,8.027,0,0,0-.637-3.117,5.785,5.785,0,0,0-2.162-2.565,7.194,7.194,0,0,0-4.109-1.039,7.258,7.258,0,0,0-1.722.169Z" transform="translate(0 -77.82)" fill="#000"/><path d="M101.011,104.4v-.318h16.438v4.344h-.262q0-3.482-4.643-3.483H106.8v12.525h5.055a6.958,6.958,0,0,0,2.677-.486,2.407,2.407,0,0,0,1.348-2.228h.281v6.253h-.281a3.393,3.393,0,0,0-.637-1.638,2.474,2.474,0,0,0-.927-.758,2.2,2.2,0,0,0-.814-.187,8.526,8.526,0,0,0-1.4-.112h-5.3V128.1a4.065,4.065,0,0,0,.422,1.91q.421.805,1.956.805h4.1a5.947,5.947,0,0,0,2.434-.431,3.666,3.666,0,0,0,1.507-1.2,7.163,7.163,0,0,0,.927-1.854h.262l-.955,4.325H101.011v-.3h.374a2.659,2.659,0,0,0,1.722-.712,2.88,2.88,0,0,0,.843-2.321V107.546a4.16,4.16,0,0,0-.571-2.21,2.146,2.146,0,0,0-1.994-.936Z" transform="translate(-75.523 -77.82)" fill="#000"/><path d="M176.794,109.457h.3q.225-2.7,1.582-3.492a6.551,6.551,0,0,1,3.36-.8h5.486v23.159a2.8,2.8,0,0,1-.852,2.312,3.4,3.4,0,0,1-2.087.721v.3h8.781v-.3q-3-.094-3-3.033V105.17h5.486a6.606,6.606,0,0,1,3.37.8q1.366.8,1.572,3.492h.3v-5.373h-24.3Z" transform="translate(-132.184 -77.821)" fill="#000"/><path d="M291.3,104.083v.318a3.241,3.241,0,0,0-2.1.693,2.789,2.789,0,0,0-.862,2.3v20.931a2.76,2.76,0,0,0,.918,2.312,3.22,3.22,0,0,0,2.041.721v.3h-8.743v-.3a3.2,3.2,0,0,0,2.069-.7,2.827,2.827,0,0,0,.871-2.331V107.4a2.751,2.751,0,0,0-.871-2.359,3.411,3.411,0,0,0-2.069-.636v-.318Z" transform="translate(-211.259 -77.82)" fill="#000"/><path d="M354.253,104.083v.318a6.024,6.024,0,0,0-1.657.4,1.905,1.905,0,0,0-.945,1.068,6.106,6.106,0,0,0-.337,2.293v24.188h-.187l-21.175-23.626v16.962a21.3,21.3,0,0,0,.169,3.145,3.687,3.687,0,0,0,.487,1.479,2.931,2.931,0,0,0,2.415,1.048v.3h-6.908v-.3a3.486,3.486,0,0,0,1.807-.5,2.549,2.549,0,0,0,.917-1.61,16.912,16.912,0,0,0,.271-3.529V107.733l-.917-1.029a7.673,7.673,0,0,0-1.947-1.751,6.588,6.588,0,0,0-1.816-.552v-.318h5.186l20.856,23.365v-17.8a20.631,20.631,0,0,0-.159-3,2.585,2.585,0,0,0-.842-1.591,3.408,3.408,0,0,0-2.144-.655v-.318Z" transform="translate(-242.567 -77.82)" fill="#000"/><path d="M456.5,102.747l8.257,23.627A11.689,11.689,0,0,0,466,129.032a2.8,2.8,0,0,0,1.114,1.039,4.83,4.83,0,0,0,1.357.29v.3h-9v-.3a6.747,6.747,0,0,0,2.134-.262q.749-.261.749-1.422a5.739,5.739,0,0,0-.356-1.7.57.57,0,0,1-.075-.225l-2.452-7.32h-9.549l-2.19,6.777a7.66,7.66,0,0,0-.449,2.228,1.732,1.732,0,0,0,.581,1.545,2.978,2.978,0,0,0,1.647.384v.3h-6.478v-.3a3.278,3.278,0,0,0,2.219-1.058,7.9,7.9,0,0,0,1.451-2.818l7.788-23.739Zm-6.272,15.689h8.781l-4.493-13.087h-.075Z" transform="translate(-331.238 -76.821)" fill="#000"/><path d="M832.179,110.487h-.3a6,6,0,0,0-1.751-3.51,5.268,5.268,0,0,0-3.922-1.507,5.341,5.341,0,0,0-2.827.749,5.09,5.09,0,0,0-1.909,2.04,6.3,6.3,0,0,0-.674,2.958,6.108,6.108,0,0,0,.4,2.294,5.11,5.11,0,0,0,1.189,1.769,10.807,10.807,0,0,0,1.854,1.433q1.067.665,2.883,1.675a21.571,21.571,0,0,1,4.718,3.323,6.077,6.077,0,0,1,1.685,4.54,6.917,6.917,0,0,1-.908,3.4,7.013,7.013,0,0,1-2.743,2.687,9.05,9.05,0,0,1-4.55,1.048,11.25,11.25,0,0,1-3.014-.365,15.758,15.758,0,0,1-2.659-1.02,3.026,3.026,0,0,0-.768-.187.5.5,0,0,0-.515.281,8.29,8.29,0,0,0-.328,1.217h-.318V126.4h.318a7.79,7.79,0,0,0,2.621,4.587,7.351,7.351,0,0,0,4.736,1.554,6.3,6.3,0,0,0,3.361-.787,4.279,4.279,0,0,0,1.751-1.909A5.615,5.615,0,0,0,831,127.6a5.243,5.243,0,0,0-1.414-3.791,17.3,17.3,0,0,0-4.3-3q-1.985-1.086-2.939-1.685a11.855,11.855,0,0,1-1.938-1.554,7.042,7.042,0,0,1-2.143-5.242,7.334,7.334,0,0,1,1.03-3.726,7.691,7.691,0,0,1,2.921-2.855,8.506,8.506,0,0,1,4.287-1.076,12.081,12.081,0,0,1,3.726.618,1.809,1.809,0,0,0,.8.15q.618,0,.842-.842h.3Z" transform="translate(-611.393 -78.199)" fill="#000"/><path d="M891.2,107.283v-.318h9.043a11.867,11.867,0,0,1,4,.617,8.271,8.271,0,0,1,2.883,1.685,7.027,7.027,0,0,1,1.723,2.406,7.1,7.1,0,0,1,.571,2.817,7.429,7.429,0,0,1-.534,2.78,6.388,6.388,0,0,1-1.676,2.378,8.268,8.268,0,0,1-3,1.657,13.477,13.477,0,0,1-4.269.618q-.767,0-2.958-.226v9.512q0,2.938,3,3.032v.3H891.2v-.3a3.342,3.342,0,0,0,2.125-.74,2.844,2.844,0,0,0,.833-2.293V110.353a3.733,3.733,0,0,0-.3-1.591,2.181,2.181,0,0,0-.7-.908,2.942,2.942,0,0,0-.9-.4q-.5-.13-.683-.168Zm5.785.656v12.993a15.868,15.868,0,0,0,2.846.262,7.426,7.426,0,0,0,4.54-1.376q1.862-1.376,1.862-5.1a7.64,7.64,0,0,0-1.638-5.045,6.088,6.088,0,0,0-4.971-1.975,14.817,14.817,0,0,0-2.639.243" transform="translate(-666.326 -79.975)" fill="#000"/><path d="M973.872,107.283v-.318H990.31v4.343h-.262q0-3.482-4.643-3.483h-5.748V120.35h5.055a6.958,6.958,0,0,0,2.677-.486,2.407,2.407,0,0,0,1.348-2.228h.281v6.254h-.281a3.391,3.391,0,0,0-.637-1.638,2.476,2.476,0,0,0-.927-.758,2.2,2.2,0,0,0-.814-.187,8.554,8.554,0,0,0-1.4-.112h-5.3v9.791a4.066,4.066,0,0,0,.422,1.91q.421.805,1.956.805h4.1a5.948,5.948,0,0,0,2.434-.431,3.666,3.666,0,0,0,1.507-1.2,7.153,7.153,0,0,0,.927-1.854h.262l-.955,4.325H973.872v-.3h.374a2.659,2.659,0,0,0,1.722-.712,2.879,2.879,0,0,0,.843-2.321V110.428a4.158,4.158,0,0,0-.571-2.209,2.146,2.146,0,0,0-1.994-.936Z" transform="translate(-728.139 -79.975)" fill="#000"/><path d="M1079.064,110.757h-.318a5.9,5.9,0,0,0-1.9-3.426,9.6,9.6,0,0,0-3.547-2.05,12.249,12.249,0,0,0-3.745-.646,10.2,10.2,0,0,0-4.465,1,10.606,10.606,0,0,0-3.6,2.827,13.259,13.259,0,0,0-2.359,4.38,17.635,17.635,0,0,0-.843,5.551,17.17,17.17,0,0,0,.814,5.383,12.566,12.566,0,0,0,2.378,4.306,10.406,10.406,0,0,0,3.623,2.761,10.907,10.907,0,0,0,4.568.936,14.425,14.425,0,0,0,4.606-.852,11.875,11.875,0,0,0,4.53-2.836v1.067a21.961,21.961,0,0,1-4.559,2.827,12.975,12.975,0,0,1-5.158.9,14.526,14.526,0,0,1-5.944-1.189,13.453,13.453,0,0,1-4.54-3.211,14,14,0,0,1-2.808-4.55,14.611,14.611,0,0,1-.955-5.2,15.054,15.054,0,0,1,7.358-12.946,14.157,14.157,0,0,1,7.358-2.013,20.525,20.525,0,0,1,5.223.73l1.947.543a5,5,0,0,0,.955.113,1.548,1.548,0,0,0,.974-.215,1.476,1.476,0,0,0,.374-.777h.3Z" transform="translate(-788.676 -77.589)" fill="#000"/><path d="M1171.185,106.965v.318a3.242,3.242,0,0,0-2.1.693,2.789,2.789,0,0,0-.862,2.3V131.21a2.761,2.761,0,0,0,.918,2.312,3.22,3.22,0,0,0,2.041.721v.3h-8.743v-.3a3.193,3.193,0,0,0,2.069-.7,2.828,2.828,0,0,0,.87-2.331V110.279a2.752,2.752,0,0,0-.87-2.359,3.411,3.411,0,0,0-2.069-.636v-.318Z" transform="translate(-869.128 -79.975)" fill="#000"/><path d="M1218.752,105.628l8.257,23.627a11.692,11.692,0,0,0,1.236,2.658,2.8,2.8,0,0,0,1.114,1.039,4.821,4.821,0,0,0,1.357.29v.3h-9v-.3a6.748,6.748,0,0,0,2.134-.262q.749-.262.749-1.422a5.735,5.735,0,0,0-.356-1.7.573.573,0,0,1-.075-.225l-2.452-7.32h-9.549l-2.19,6.777a7.659,7.659,0,0,0-.449,2.228,1.732,1.732,0,0,0,.581,1.545,2.979,2.979,0,0,0,1.648.384v.3h-6.478v-.3a3.279,3.279,0,0,0,2.219-1.058,7.9,7.9,0,0,0,1.45-2.818l7.788-23.739Zm-6.271,15.689h8.781l-4.493-13.087h-.075Z" transform="translate(-901.151 -78.975)" fill="#000"/><path d="M1314.361,134.242h.375a2.429,2.429,0,0,0,1.788-.8,3.066,3.066,0,0,0,.777-2.237V110.391a2.865,2.865,0,0,0-.871-2.4,3.466,3.466,0,0,0-2.068-.712v-.318h8.818v.318a3.613,3.613,0,0,0-2.059.693,2.813,2.813,0,0,0-.9,2.416v20.125a2.976,2.976,0,0,0,.9,2.49,4.875,4.875,0,0,0,2.94.693h2.377a6.756,6.756,0,0,0,2.481-.374,3.238,3.238,0,0,0,1.47-1.143,10.845,10.845,0,0,0,1.1-2.171h.318l-1.048,4.53h-16.4Z" transform="translate(-982.714 -79.975)" fill="#000"/><path d="M1379.374,112.338h.3q.224-2.7,1.582-3.492a6.547,6.547,0,0,1,3.36-.8h5.486V131.21a2.8,2.8,0,0,1-.852,2.312,3.4,3.4,0,0,1-2.087.721v.3h8.781v-.3q-3-.093-3-3.032V108.05h5.486a6.6,6.6,0,0,1,3.37.8q1.366.8,1.573,3.492h.3v-5.373h-24.3Z" transform="translate(-1031.323 -79.975)" fill="#000"/><path d="M1506.1,106.965v.318a4.428,4.428,0,0,0-2.2.581,6.169,6.169,0,0,0-1.507,1.17,17.944,17.944,0,0,0-1.161,1.47l-6.44,9.7v11.046a2.718,2.718,0,0,0,.889,2.219,3.409,3.409,0,0,0,2.143.777v.3h-8.743v-.3a3.113,3.113,0,0,0,2.107-.758,2.916,2.916,0,0,0,.777-2.237V120.669l-7.021-10.522a7.731,7.731,0,0,0-2.013-2.265,4.7,4.7,0,0,0-2.406-.6v-.318h9.792v.318q-1.5.056-1.919.646a1.942,1.942,0,0,0-.421,1.114,3.467,3.467,0,0,0,.73,1.685l5.748,8.519,5.092-7.676a5.482,5.482,0,0,0,1.161-2.64,1.466,1.466,0,0,0-.309-.992,1.55,1.55,0,0,0-.627-.469,5.408,5.408,0,0,0-.674-.187v-.318Z" transform="translate(-1106.949 -79.975)" fill="#000"/><path d="M558.173,28.6A28.041,28.041,0,0,1,586.109.455a27.716,27.716,0,0,1,8.181,1.229A30.032,30.032,0,0,0,584.356,0a29.475,29.475,0,0,0-29.69,29.255,28.791,28.791,0,0,0,2.022,10.611L559.2,36.16a28.354,28.354,0,0,1-1.028-7.562" transform="translate(-414.71)" fill="#000"/><path d="M594.967,142.469A27.882,27.882,0,0,1,570.78,128.4l-4.267-.62a29.77,29.77,0,0,0,56.391-12.8c0-.109-.007-.216-.008-.325a28.034,28.034,0,0,1-27.928,27.814" transform="translate(-423.567 -85.725)" fill="#000"/><path d="M616.278,30.177a26.823,26.823,0,0,1-26.625,26.594,26.513,26.513,0,0,1-22.321-12.288,27.126,27.126,0,0,1-1.749-3.161l-2.969-.435a.026.026,0,0,0,0-.009l1.761-2.631a27.254,27.254,0,0,1-.924-3.694,27.59,27.59,0,0,1-.43-4.816A26.836,26.836,0,0,1,589.653,2.707a26.241,26.241,0,0,1,15.335,4.936,29.74,29.74,0,0,0-8.455-4.612A27.71,27.71,0,0,0,588.353,1.8a28.041,28.041,0,0,0-27.937,28.144,28.345,28.345,0,0,0,1.028,7.562l-2.512,3.705-1.266,1.866,2.233.324,4.267.619a27.891,27.891,0,0,0,52.116-13.745c0-.034,0-.067,0-.1" transform="translate(-416.953 -1.347)" fill="#75b3ed"/><path d="M768.93,43.042s5.033,3.9,5.09,14.194c0,0,2.941-10.4-5.09-14.194" transform="translate(-574.909 -32.181)" fill="#000"/><path d="M1557.608,207.86v-2.049h-.765v-.273h1.841v.273h-.768v2.049Z" transform="translate(-1164.012 -153.676)" fill="#000"/><path d="M1565.351,207.86v-2.322h.462l.55,1.644c.051.154.088.268.111.344.026-.085.068-.209.123-.372l.556-1.616h.414v2.322h-.3v-1.944l-.675,1.944h-.277l-.672-1.977v1.977Z" transform="translate(-1170.373 -153.676)" fill="#000"/></g></svg>