<?xml version="1.0" encoding="utf-8"?>
<!-- Generator: Adobe Illustrator 19.0.0, SVG Export Plug-In . SVG Version: 6.00 Build 0)  -->
<svg version="1.1" id="Layer_1" xmlns="http://www.w3.org/2000/svg" xmlns:xlink="http://www.w3.org/1999/xlink" x="0px" y="0px"
	 viewBox="0 0 638.3 94.8" style="enable-background:new 0 0 638.3 94.8;" xml:space="preserve">
<style type="text/css">
	.st0{fill:none;stroke:#231F20;stroke-width:4;stroke-miterlimit:10;}
	.st1{fill:#231F20;}
	.st2{font-family:'BookmanOldStyle';}
	.st3{font-size:43px;}
</style>
<circle class="st0" cx="47.4" cy="47.4" r="45.4"/>
<g>
	<path class="st1" d="M11.8,16.8h15.1c2.9,0,5,0.3,6.5,0.9c1.5,0.6,2.6,1.5,3.4,2.6s1.2,2.4,1.2,3.9c0,1.5-0.4,2.9-1.2,4.1
		c-0.8,1.2-1.9,2.1-3.3,2.8s-3.4,1-5.8,1.1l7.7,9.4c0.6,0.8,1,1.3,1.2,1.4c0.5,0.4,1,0.8,1.5,1c0.5,0.2,1.1,0.3,1.8,0.3h0.5v1.8
		h-6.7l-10.8-14h-3.8v9c0,1,0,1.6,0.1,1.9c0.2,0.5,0.4,0.8,0.7,1c0.3,0.2,1,0.3,2,0.3H23v1.8H11.8v-1.8h1c0.8,0,1.3,0,1.5-0.1
		c0.3-0.1,0.5-0.3,0.7-0.5c0.2-0.2,0.3-0.6,0.4-0.9c0-0.2,0-0.9,0.1-2.1V21.5c0-0.9-0.1-1.5-0.3-1.8c-0.2-0.4-0.4-0.6-0.7-0.8
		s-0.8-0.2-1.6-0.2h-1.2V16.8z M19.4,19.1v11h6c2,0,3.5-0.1,4.3-0.4c1.2-0.3,2.1-1,2.8-1.8s1-2,1-3.4c0-1.2-0.2-2.2-0.7-3
		c-0.5-0.8-1.2-1.4-2-1.8c-0.8-0.4-2.1-0.6-3.8-0.6H19.4z"/>
</g>
<g>
	<path class="st1" d="M60,33.3h1.6l2.7,9.7l-2,0.5c-1.1-2.3-1.9-3.8-2.5-4.5c-0.9-1.2-2.1-2.2-3.4-3C55,35.4,53.5,35,51.9,35
		c-1.9,0-3.7,0.5-5.4,1.5s-3,2.5-4,4.5S41,45.2,41,47.6c0,2.5,0.5,4.8,1.5,6.7c1,2,2.4,3.5,4.2,4.6c1.8,1.1,3.7,1.6,5.7,1.6
		c1.9,0,3.9-0.5,5.9-1.6c2-1.1,3.7-2.6,5.2-4.5l1.7,1.2c-0.9,1.3-1.9,2.4-2.9,3.3c-1.6,1.4-3.3,2.5-5.1,3.2c-1.8,0.7-3.7,1-5.8,1
		c-4.7,0-8.5-1.7-11.4-5.1c-2.4-2.8-3.6-6.1-3.6-10c0-2.8,0.7-5.4,2-7.7c1.3-2.3,3.2-4.1,5.5-5.5c2.4-1.4,4.9-2,7.6-2
		c1.5,0,2.8,0.2,4.1,0.6c1.2,0.4,2.5,1,3.8,1.9L60,33.3z"/>
</g>
<g>
	<path class="st1" d="M66.2,46.4h1.5l0.2,1h17.9l0.2-1h1.5l3.1,8.6l-1.9,0.7c-0.9-2.3-2-3.9-3.2-4.8c-1.2-0.9-2.8-1.4-4.8-1.4
		c-0.8,0-1.3,0-1.4,0.1c-0.2,0.1-0.3,0.2-0.3,0.3c-0.1,0.2-0.1,0.6-0.1,1.5v20.3c0,1,0.1,1.6,0.2,1.9c0.1,0.3,0.3,0.6,0.5,0.8
		c0.2,0.2,0.5,0.3,0.8,0.4c0.3,0.1,1.1,0.1,2.3,0.1v1.8H71.3v-1.8c1.2,0,2-0.1,2.3-0.1c0.5-0.1,0.8-0.4,1-0.8
		c0.2-0.4,0.3-1.1,0.3-2.2V51.1c0-0.6,0-1-0.1-1.2s-0.2-0.2-0.4-0.3c-0.2-0.1-0.5-0.1-1.1-0.1c-1.5,0-2.7,0.2-3.7,0.6
		c-0.9,0.4-1.8,1.1-2.6,2c-0.8,0.9-1.5,2.2-2.1,3.6L63.2,55L66.2,46.4z"/>
</g>
<g>
	<path d="M101.6,32.5h15.1c2.9,0,5,0.3,6.5,0.9c1.5,0.6,2.6,1.5,3.4,2.6c0.8,1.1,1.2,2.4,1.2,3.9c0,1.5-0.4,2.9-1.2,4.1
		c-0.8,1.2-1.9,2.1-3.3,2.8c-1.5,0.7-3.4,1-5.8,1.1l7.8,9.4c0.6,0.8,1,1.3,1.2,1.4c0.5,0.4,1,0.8,1.5,1c0.5,0.2,1.1,0.3,1.8,0.3h0.5
		v1.8h-6.7l-10.8-14h-3.8v9c0,1,0,1.6,0.1,1.9c0.2,0.5,0.4,0.8,0.7,1c0.3,0.2,1,0.3,2,0.3h0.8v1.8h-11.2V60h1c0.8,0,1.3,0,1.5-0.1
		c0.3-0.1,0.5-0.3,0.7-0.5c0.2-0.2,0.3-0.6,0.4-0.9c0-0.2,0-0.9,0.1-2.1V37.1c0-0.9-0.1-1.5-0.3-1.8c-0.2-0.4-0.4-0.6-0.7-0.8
		c-0.3-0.2-0.8-0.2-1.6-0.2h-1.2V32.5z M109.2,34.8v11h6c2,0,3.5-0.1,4.3-0.4c1.2-0.3,2.1-1,2.8-1.8c0.7-0.9,1-2,1-3.4
		c0-1.2-0.2-2.2-0.7-3c-0.5-0.8-1.2-1.4-2-1.8c-0.8-0.4-2.1-0.6-3.8-0.6H109.2z"/>
</g>
<g>
	<path d="M133.2,37.2h19.9l2.3,6.5l-1.5,0.6c-0.4-1.1-0.8-1.9-1.3-2.5s-1-1.1-1.6-1.5c-0.6-0.4-1.3-0.7-1.9-0.8
		c-0.7-0.1-1.8-0.2-3.5-0.2h-5.9v9h3c1.1,0,1.9-0.2,2.5-0.6s0.9-0.8,1.2-1.4c0.2-0.4,0.2-1.1,0.2-2.1v-0.4h1.7v10.8h-1.7v-0.9
		c0-0.8-0.1-1.4-0.2-1.8c-0.1-0.4-0.3-0.7-0.7-1c-0.3-0.3-0.7-0.5-1.1-0.7s-1-0.2-1.9-0.2h-3v8c0,0.8,0,1.3,0.1,1.5s0.2,0.3,0.4,0.4
		c0.2,0.1,0.7,0.1,1.4,0.1h3.7c2.1,0,3.7-0.2,4.8-0.7c1.2-0.5,2.2-1.2,3.1-2.3c0.7-0.8,1.4-1.9,2-3.4l1.6,0.6l-2.7,7.7h-20.7v-1.5
		h0.7c0.8,0,1.3-0.1,1.5-0.2c0.3-0.2,0.5-0.4,0.7-0.7c0.1-0.2,0.2-0.7,0.2-1.5V41c0-0.8-0.1-1.3-0.2-1.5s-0.4-0.5-0.8-0.6
		c-0.2-0.1-0.9-0.1-2.1-0.1V37.2z"/>
	<path d="M160.4,36.4h1.2l0.2,0.8h15l0.1-0.8h1.3l2.6,7.2l-1.6,0.6c-0.8-1.9-1.7-3.3-2.7-4.1s-2.4-1.2-4-1.2c-0.7,0-1.1,0-1.2,0.1
		s-0.2,0.1-0.3,0.3s-0.1,0.5-0.1,1.2v17c0,0.8,0,1.4,0.1,1.6s0.2,0.5,0.4,0.7s0.4,0.3,0.7,0.3s0.9,0.1,1.9,0.1v1.5h-9.5v-1.5
		c1,0,1.7,0,1.9-0.1c0.4-0.1,0.7-0.3,0.9-0.7s0.3-0.9,0.3-1.8V40.3c0-0.5,0-0.9-0.1-1c-0.1-0.1-0.2-0.2-0.3-0.3s-0.4-0.1-0.9-0.1
		c-1.3,0-2.3,0.2-3.1,0.5s-1.5,0.9-2.2,1.7s-1.3,1.8-1.7,3.1l-1.6-0.6L160.4,36.4z"/>
	<path d="M182.1,37.2h9.4v1.5h-0.7c-0.7,0-1.2,0.1-1.5,0.3c-0.3,0.2-0.5,0.5-0.7,0.8s-0.2,1-0.2,2v15.8c0,0.8,0.1,1.4,0.2,1.7
		s0.4,0.6,0.6,0.7s0.8,0.2,1.5,0.2h0.7v1.5h-9.4v-1.5h0.8c0.7,0,1.2-0.1,1.5-0.2s0.5-0.4,0.6-0.7s0.2-0.9,0.2-1.7V41.5
		c0-0.9-0.1-1.5-0.2-1.8s-0.3-0.5-0.6-0.7s-0.8-0.2-1.5-0.2h-0.8V37.2z"/>
	<path d="M194.6,37.2h7.5l11.2,18.4v-14c0-0.8-0.1-1.4-0.2-1.8c-0.2-0.4-0.4-0.6-0.7-0.8c-0.3-0.2-0.8-0.3-1.5-0.3h-0.6v-1.5h8.2
		v1.5h-0.4c-0.7,0-1.2,0.1-1.5,0.2c-0.4,0.2-0.6,0.5-0.8,0.9c-0.2,0.4-0.3,1-0.3,1.8v20.1h-2.1l-13.4-22.1v17.5c0,1,0,1.6,0.1,1.8
		c0.1,0.3,0.2,0.5,0.4,0.7s0.5,0.4,0.8,0.5s0.9,0.1,1.8,0.1v1.5h-8.3v-1.5h0.4c0.8,0,1.4-0.1,1.7-0.2s0.5-0.4,0.7-0.8s0.2-1.1,0.2-2
		V41.6c0-1,0-1.6-0.1-1.8c-0.1-0.4-0.3-0.7-0.6-0.9c-0.3-0.2-0.9-0.3-1.8-0.3h-0.6V37.2z"/>
	<path d="M229.9,37.2h2.9l7.6,20.5c0.4,1,0.8,1.7,1.1,2c0.4,0.3,0.9,0.5,1.5,0.5h0.4v1.5h-8.7v-1.5c0.3,0,0.6,0,0.8,0
		c0.6,0,0.9-0.1,1.1-0.2c0.3-0.2,0.5-0.5,0.5-0.8c0-0.2-0.2-0.8-0.5-1.8l-1.6-4.7h-8.9l-1.9,5.3c-0.2,0.6-0.3,0.9-0.3,1.1
		c0,0.2,0.1,0.4,0.2,0.6s0.3,0.3,0.5,0.4s0.6,0.1,1,0.1c0.3,0,0.6,0,0.8,0v1.5h-7.3v-1.5c0.7,0,1.2-0.1,1.5-0.2s0.6-0.4,0.8-0.7
		s0.5-0.9,0.9-1.9L229.9,37.2z M226.8,50.9h7.6l-3.8-10.5L226.8,50.9z"/>
</g>
<g>
	<path d="M280.5,32.5h1.5l2.7,9.8l-2,0.5c-1-2.3-1.8-3.8-2.4-4.5c-0.9-1.2-2-2.2-3.3-3c-1.3-0.7-2.8-1.1-4.4-1.1
		c-1.9,0-3.6,0.5-5.2,1.5c-1.6,1-2.9,2.5-3.9,4.5c-1,2-1.5,4.2-1.5,6.6c0,2.5,0.5,4.8,1.5,6.7c1,2,2.4,3.5,4.1,4.6
		c1.7,1.1,3.5,1.6,5.5,1.6c1.9,0,3.8-0.5,5.7-1.6c1.9-1.1,3.6-2.6,5.1-4.5l1.7,1.2c-0.9,1.3-1.8,2.4-2.8,3.3c-1.6,1.4-3.3,2.5-5,3.2
		c-1.7,0.7-3.6,1-5.7,1c-4.5,0-8.2-1.7-11.1-5.1c-2.4-2.8-3.5-6.1-3.5-10c0-2.8,0.7-5.4,2-7.7c1.3-2.3,3.1-4.1,5.4-5.5
		c2.3-1.4,4.8-2,7.4-2c1.4,0,2.7,0.2,3.9,0.6c1.2,0.4,2.4,1,3.7,1.9L280.5,32.5z"/>
</g>
<g>
	<path d="M288.2,37.2h19.9l2.3,6.5l-1.5,0.6c-0.4-1.1-0.8-1.9-1.3-2.5s-1-1.1-1.6-1.5c-0.6-0.4-1.3-0.7-1.9-0.8
		c-0.7-0.1-1.8-0.2-3.5-0.2h-5.9v9h3c1.1,0,1.9-0.2,2.5-0.6s0.9-0.8,1.2-1.4c0.2-0.4,0.2-1.1,0.2-2.1v-0.4h1.7v10.8h-1.7v-0.9
		c0-0.8-0.1-1.4-0.2-1.8c-0.1-0.4-0.3-0.7-0.7-1c-0.3-0.3-0.7-0.5-1.1-0.7s-1-0.2-1.9-0.2h-3v8c0,0.8,0,1.3,0.1,1.5s0.2,0.3,0.4,0.4
		c0.2,0.1,0.7,0.1,1.4,0.1h3.7c2.1,0,3.7-0.2,4.8-0.7c1.2-0.5,2.2-1.2,3.1-2.3c0.7-0.8,1.4-1.9,2-3.4l1.6,0.6l-2.7,7.7h-20.7v-1.5
		h0.7c0.8,0,1.3-0.1,1.5-0.2c0.3-0.2,0.5-0.4,0.7-0.7c0.1-0.2,0.2-0.7,0.2-1.5V41c0-0.8-0.1-1.3-0.2-1.5s-0.4-0.5-0.8-0.6
		c-0.2-0.1-0.9-0.1-2.1-0.1V37.2z"/>
	<path d="M313.7,37.2h7.5l11.2,18.4v-14c0-0.8-0.1-1.4-0.2-1.8c-0.2-0.4-0.4-0.6-0.7-0.8c-0.3-0.2-0.8-0.3-1.5-0.3h-0.6v-1.5h8.2
		v1.5H337c-0.7,0-1.2,0.1-1.5,0.2c-0.4,0.2-0.6,0.5-0.8,0.9c-0.2,0.4-0.3,1-0.3,1.8v20.1h-2.1l-13.4-22.1v17.5c0,1,0,1.6,0.1,1.8
		c0.1,0.3,0.2,0.5,0.4,0.7s0.5,0.4,0.8,0.5s0.9,0.1,1.8,0.1v1.5h-8.3v-1.5h0.4c0.8,0,1.4-0.1,1.7-0.2s0.5-0.4,0.7-0.8s0.2-1.1,0.2-2
		V41.6c0-1,0-1.6-0.1-1.8c-0.1-0.4-0.3-0.7-0.6-0.9c-0.3-0.2-0.9-0.3-1.8-0.3h-0.6V37.2z"/>
	<path d="M341.2,36.4h1.2l0.2,0.8h15l0.1-0.8h1.3l2.6,7.2l-1.6,0.6c-0.8-1.9-1.7-3.3-2.7-4.1s-2.4-1.2-4-1.2c-0.7,0-1.1,0-1.2,0.1
		s-0.2,0.1-0.3,0.3s-0.1,0.5-0.1,1.2v17c0,0.8,0,1.4,0.1,1.6s0.2,0.5,0.4,0.7s0.4,0.3,0.7,0.3s0.9,0.1,1.9,0.1v1.5h-9.5v-1.5
		c1,0,1.7,0,1.9-0.1c0.4-0.1,0.7-0.3,0.9-0.7s0.3-0.9,0.3-1.8V40.3c0-0.5,0-0.9-0.1-1c-0.1-0.1-0.2-0.2-0.3-0.3s-0.4-0.1-0.9-0.1
		c-1.3,0-2.3,0.2-3.1,0.5s-1.5,0.9-2.2,1.7s-1.3,1.8-1.7,3.1l-1.6-0.6L341.2,36.4z"/>
	<path d="M363.1,37.2h19.9l2.3,6.5l-1.5,0.6c-0.4-1.1-0.8-1.9-1.3-2.5c-0.5-0.6-1-1.1-1.6-1.5c-0.6-0.4-1.3-0.7-1.9-0.8
		s-1.8-0.2-3.5-0.2h-5.9v9h3c1.1,0,1.9-0.2,2.5-0.6c0.6-0.4,0.9-0.8,1.2-1.4c0.2-0.4,0.2-1.1,0.2-2.1v-0.4h1.7v10.8h-1.7v-0.9
		c0-0.8-0.1-1.4-0.2-1.8c-0.1-0.4-0.3-0.7-0.7-1s-0.7-0.5-1.1-0.7s-1-0.2-1.9-0.2h-3v8c0,0.8,0,1.3,0.1,1.5s0.2,0.3,0.4,0.4
		c0.2,0.1,0.7,0.1,1.4,0.1h3.7c2.1,0,3.7-0.2,4.8-0.7c1.2-0.5,2.2-1.2,3.1-2.3c0.7-0.8,1.4-1.9,2-3.4l1.6,0.6l-2.7,7.7h-20.7v-1.5
		h0.7c0.8,0,1.3-0.1,1.5-0.2c0.3-0.2,0.5-0.4,0.7-0.7c0.1-0.2,0.2-0.7,0.2-1.5V41c0-0.8-0.1-1.3-0.2-1.5s-0.4-0.5-0.8-0.6
		c-0.2-0.1-0.9-0.1-2.1-0.1V37.2z"/>
	<path d="M388.7,37.2h12.7c2.4,0,4.2,0.2,5.4,0.7s2.2,1.2,2.8,2.2s1,2,1,3.3c0,1.3-0.3,2.4-1,3.4c-0.6,1-1.6,1.8-2.8,2.3
		S404,50,402,50l6.5,7.9c0.5,0.7,0.9,1.1,1,1.2c0.4,0.4,0.8,0.6,1.3,0.8s1,0.3,1.5,0.3h0.4v1.5h-5.6l-9-11.7H395v7.6
		c0,0.8,0,1.4,0.1,1.6c0.1,0.4,0.3,0.7,0.6,0.8s0.8,0.2,1.7,0.2h0.6v1.5h-9.4v-1.5h0.8c0.6,0,1.1,0,1.3-0.1s0.4-0.2,0.6-0.4
		s0.3-0.5,0.4-0.8c0-0.1,0-0.7,0.1-1.8v-16c0-0.7-0.1-1.2-0.2-1.5c-0.1-0.3-0.3-0.5-0.6-0.7s-0.7-0.2-1.3-0.2h-1V37.2z M395,39.2
		v9.2h5.1c1.7,0,2.9-0.1,3.6-0.3c1-0.3,1.8-0.8,2.3-1.5c0.6-0.8,0.9-1.7,0.9-2.9c0-1-0.2-1.8-0.6-2.5s-1-1.2-1.7-1.5
		s-1.8-0.5-3.2-0.5H395z"/>
</g>
<text transform="matrix(1 0 0 1 424.4225 61.7568)" class="st2 st3">O</text>
<g>
	<path d="M460.2,37.2h18.8l2.3,6.4l-1.5,0.6c-0.6-1.5-1.3-2.6-1.9-3.2s-1.3-1.1-2.2-1.4s-2.1-0.4-3.9-0.4h-5.3v9.4h2.4
		c1.3,0,2.2-0.1,2.7-0.4s1-0.6,1.3-1.2s0.4-1.3,0.4-2.3v-0.7h1.7v10.8h-1.7V54c0-0.9-0.1-1.6-0.4-2.2s-0.7-0.9-1.2-1.1
		s-1.4-0.3-2.6-0.3h-2.7V58c0,0.7,0.1,1.2,0.2,1.5s0.4,0.5,0.7,0.6s0.8,0.2,1.5,0.2h0.7v1.5h-9.3v-1.5h0.6c0.8,0,1.3-0.1,1.6-0.2
		s0.5-0.4,0.6-0.7s0.2-0.8,0.2-1.6V41.1c0-0.7-0.1-1.3-0.2-1.6c-0.1-0.3-0.3-0.5-0.6-0.7s-0.7-0.2-1.4-0.2h-0.8V37.2z"/>
</g>
<text transform="matrix(1 0 0 1 492.8024 61.7568)" class="st2 st3">T</text>
<g>
	<path d="M522.2,37.2h19.9l2.3,6.5l-1.5,0.6c-0.4-1.1-0.8-1.9-1.3-2.5c-0.5-0.6-1-1.1-1.6-1.5c-0.6-0.4-1.3-0.7-1.9-0.8
		s-1.8-0.2-3.5-0.2h-5.9v9h3c1.1,0,1.9-0.2,2.5-0.6c0.6-0.4,0.9-0.8,1.2-1.4c0.2-0.4,0.2-1.1,0.2-2.1v-0.4h1.7v10.8h-1.7v-0.9
		c0-0.8-0.1-1.4-0.2-1.8c-0.1-0.4-0.3-0.7-0.7-1s-0.7-0.5-1.1-0.7s-1-0.2-1.9-0.2h-3v8c0,0.8,0,1.3,0.1,1.5s0.2,0.3,0.4,0.4
		c0.2,0.1,0.7,0.1,1.4,0.1h3.7c2.1,0,3.7-0.2,4.8-0.7c1.2-0.5,2.2-1.2,3.1-2.3c0.7-0.8,1.4-1.9,2-3.4l1.6,0.6l-2.7,7.7h-20.7v-1.5
		h0.7c0.8,0,1.3-0.1,1.5-0.2c0.3-0.2,0.5-0.4,0.7-0.7c0.1-0.2,0.2-0.7,0.2-1.5V41c0-0.8-0.1-1.3-0.2-1.5s-0.4-0.5-0.8-0.6
		c-0.2-0.1-0.9-0.1-2.1-0.1V37.2z"/>
	<path d="M547.7,37.2h9.4v1.5h-0.7c-0.7,0-1.1,0-1.3,0.1s-0.3,0.2-0.3,0.5c0,0.1,0,0.3,0.1,0.4s0.3,0.4,0.6,0.9l4.6,6.2l5-6.2
		c0.5-0.6,0.7-1,0.7-1.3c0-0.2-0.1-0.3-0.3-0.4s-0.6-0.2-1.2-0.2h-0.9v-1.5h8v1.5c-0.9,0-1.6,0.1-2,0.3c-0.4,0.2-1,0.7-1.7,1.6
		l-6.4,7.7l7.5,9.9c0.5,0.6,0.9,1.1,1.2,1.3s0.6,0.4,0.9,0.5s0.8,0.1,1.5,0.1v1.5H563v-1.5h0.7c0.7,0,1.2,0,1.4-0.1s0.3-0.3,0.3-0.5
		c0-0.1,0-0.3-0.1-0.4c0-0.1-0.3-0.4-0.7-1l-5.6-7.5l-6.1,7.7c-0.4,0.5-0.6,0.7-0.6,0.8c-0.1,0.1-0.1,0.3-0.1,0.4
		c0,0.2,0.1,0.4,0.4,0.5c0.2,0.1,0.6,0.1,1.2,0.1h0.7v1.5h-7.9v-1.5c0.7,0,1.3,0,1.6-0.1s0.7-0.3,1-0.5s0.8-0.7,1.3-1.4l7.4-8.9
		l-6.6-8.7c-0.7-0.9-1.2-1.4-1.6-1.6s-1.1-0.3-2-0.3V37.2z"/>
	<path d="M584.9,37.2h2.9l7.6,20.5c0.4,1,0.8,1.7,1.1,2c0.4,0.3,0.9,0.5,1.5,0.5h0.4v1.5h-8.7v-1.5c0.3,0,0.6,0,0.8,0
		c0.6,0,0.9-0.1,1.1-0.2c0.3-0.2,0.5-0.5,0.5-0.8c0-0.2-0.2-0.8-0.5-1.8l-1.6-4.7h-8.9l-1.9,5.3c-0.2,0.6-0.3,0.9-0.3,1.1
		c0,0.2,0.1,0.4,0.2,0.6s0.3,0.3,0.5,0.4s0.6,0.1,1,0.1c0.3,0,0.6,0,0.8,0v1.5h-7.3v-1.5c0.7,0,1.2-0.1,1.5-0.2s0.6-0.4,0.8-0.7
		c0.2-0.3,0.5-0.9,0.9-1.9L584.9,37.2z M581.8,50.9h7.6l-3.8-10.5L581.8,50.9z"/>
	<path d="M616.6,37.2h1.3l1.9,7.6l-1.6,0.5c-1-2.1-2.4-3.8-4.1-5c-1.4-1-3-1.5-4.7-1.5c-1,0-2,0.2-2.8,0.6s-1.4,0.8-1.8,1.4
		s-0.6,1.2-0.6,1.8c0,0.5,0.2,1.1,0.5,1.6c0.3,0.5,0.8,1,1.4,1.4c0.6,0.4,1.7,0.8,3.2,1.2l4.6,1.4c0.6,0.2,1.4,0.5,2.5,1
		c1.1,0.5,1.9,1,2.5,1.5c0.6,0.5,1.1,1.2,1.4,1.9c0.3,0.8,0.5,1.6,0.5,2.5c0,1.9-0.9,3.6-2.6,5.1c-1.7,1.5-3.9,2.2-6.6,2.2
		c-1.4,0-2.6-0.2-3.7-0.6s-2.3-1.1-3.6-2.2l-0.8,2.3h-1.2l-1.6-8.8l1.6-0.3c0.6,1.6,1.4,3,2.4,4.1s2.1,2,3.3,2.6s2.4,0.9,3.7,0.9
		c1.7,0,3.2-0.5,4.4-1.5c1.1-0.9,1.6-1.9,1.6-3c0-1.1-0.4-1.9-1.1-2.6c-0.8-0.7-2.2-1.3-4.1-1.9l-4.4-1.3c-2.5-0.7-4.2-1.6-5.2-2.7
		s-1.5-2.4-1.5-3.8c0-1.1,0.3-2.2,1-3.1s1.7-1.8,3-2.4s2.8-1,4.5-1c1.4,0,2.7,0.2,3.9,0.7c0.9,0.3,1.7,0.8,2.4,1.4L616.6,37.2z"/>
</g>
<g>
	<path d="M623.9,36.7h0.3l0,0.2h4.2l0-0.2h0.4l0.7,2l-0.4,0.2c-0.2-0.5-0.5-0.9-0.8-1.1s-0.7-0.3-1.1-0.3c-0.2,0-0.3,0-0.3,0
		s-0.1,0-0.1,0.1c0,0,0,0.1,0,0.3v4.7c0,0.2,0,0.4,0,0.5c0,0.1,0.1,0.1,0.1,0.2s0.1,0.1,0.2,0.1c0.1,0,0.3,0,0.5,0v0.4H625v-0.4
		c0.3,0,0.5,0,0.5,0c0.1,0,0.2-0.1,0.2-0.2c0-0.1,0.1-0.3,0.1-0.5v-4.8c0-0.1,0-0.2,0-0.3c0,0,0-0.1-0.1-0.1c0,0-0.1,0-0.3,0
		c-0.4,0-0.6,0-0.9,0.1c-0.2,0.1-0.4,0.2-0.6,0.5s-0.3,0.5-0.5,0.8l-0.4-0.2L623.9,36.7z"/>
	<path d="M630.1,36.9h2.2l2,5.4l2-5.4h2.1v0.4h-0.2c-0.2,0-0.4,0-0.4,0.1c-0.1,0-0.1,0.1-0.2,0.2c0,0.1-0.1,0.2-0.1,0.4v4.5
		c0,0.3,0,0.5,0.1,0.6c0,0.1,0.1,0.1,0.2,0.2c0.1,0,0.2,0.1,0.4,0.1h0.2v0.4h-2.6v-0.4h0.2c0.2,0,0.3,0,0.4,0c0.1,0,0.1-0.1,0.2-0.1
		c0.1-0.1,0.1-0.1,0.1-0.2c0-0.1,0-0.2,0-0.3v-5l-2.2,6.1h-0.5l-2.2-6v4.8c0,0.2,0,0.4,0.1,0.5s0.1,0.2,0.2,0.2
		c0.1,0,0.3,0.1,0.5,0.1h0.2v0.4h-2.4v-0.4h0.1c0.2,0,0.4,0,0.5-0.1c0.1,0,0.2-0.1,0.2-0.2c0-0.1,0.1-0.3,0.1-0.5v-4.4
		c0-0.2,0-0.4-0.1-0.5c0-0.1-0.1-0.1-0.2-0.2c-0.1,0-0.2-0.1-0.4-0.1h-0.2V36.9z"/>
</g>
</svg>
