<svg id="Layer_1" xmlns="http://www.w3.org/2000/svg" viewBox="-514 355 284.7 64.2"><style>.st0{fill:#75787B;} .st1{fill:#76C5D5;} .st2{fill:#93D0AA;}</style><desc>Generated with Avocode.</desc><path id="a" class="st0" d="M-483.3 379.1c2.8-.1 5.4 1.8 6.8 4.9l1.1 2.3-3.4 4.6-2.3-4.5c-.5-1.1-1.3-1.8-2.1-1.8-.7 0-1.5.6-2 1.6l-6 11.7c-1.5 3-4.1 4.8-6.9 4.8-3.2 0-6.1-2.3-7.5-6l-8.5-22.5h3.4c1.3 0 1.6 1 2.2 2.6l7.5 17.9c.6 1.6 1.7 2.6 2.8 2.6.9 0 1.9-.7 2.5-1.9l6-11.7c1.5-2.9 3.9-4.6 6.4-4.6zm94.4 8.9c.5 0 .8.2.8.6v11.1c0 .5 0 .6-.2.8-1.1 1.7-15.9 2-21.2 2-9.6 0-13.8-1.9-15.3-7.7 1.6-2.2 3.7-5 5.9-8v.9c0 8.2 1.4 10.5 9.4 10.5h14.1c.6 0 1.1-.6 1.1-1.3v-8.5c0-.4.3-.6.8-.6h4.6zm-20.6-10.8c-.6 0-1.1 0-1.6.1v-.1c2.3-2.7 5.7-4.3 9.3-4.2 4.1.1 7.3.2 8.7.4.6.1.9.3.9.8v2.4c0 .4-.3.6-.8.6h-16.5z"/><path id="b" class="st1" d="M-421.5 371.6c-4.2 4.9-8 10.2-11.9 15.4-1.3 1.6-2.8 3.8-4.6 5.5-2.4 2.3-5.3 3.6-8.4 1.2-3.8-2.9-6.7-6.3-6.7-6.3 2.6 6.9 6.9 16.1 15 13.3 4.5-1.6 7.1-5.8 9.9-9.7 4.9-6.6 8.9-12.3 13.4-17.4 2.4-2.8 7.7-7.6 15.3-8 4-.2 7.8.9 10.5 3.1.1 0-15.3-16.8-32.5 2.9"/><path id="c" class="st2" d="M-454.9 372.1c-5.6.8-8.7 5.8-11.9 10.2-4.9 6.7-8.9 12.3-13.4 17.4-2.4 2.8-7.6 7.6-15.3 8-4 .2-7.8-.9-10.5-3.1 0 0 15.3 16.8 32.4-2.9 4.4-5.1 8.2-10.6 12.3-15.9 1.2-1.6 2.6-3.4 4.2-4.9 2.4-2.3 5.3-3.5 8.5-1.1 2.4 1.9 4.7 4 6.7 6.3-2.3-6.1-6-15-13-14"/><path id="d" class="st0" d="M-308.1 372.9c0 .2-.1.3-.3.3h-2c-.2 0-.3-.1-.3-.3v-16.2c0-.2.1-.3.3-.3h2c.2 0 .3.1.3.3v4.3c.9-.1 2-.1 2.6-.1 4.1 0 5.2.6 5.2 5.2v6.8c0 .2-.1.3-.3.3h-2c-.2 0-.3-.1-.3-.3v-6.3c0-3.3-.5-3.4-2.6-3.4h-2.5l-.1 9.7zm12.5-13.8c-1 0-1.6-.6-1.6-1.5 0-1 .6-1.5 1.6-1.5s1.6.6 1.6 1.5-.6 1.5-1.6 1.5zm-8 25.7c4.1 0 5.2.6 5.2 5.2v6.8c0 .2-.1.3-.3.3h-2c-.2 0-.3-.1-.3-.3v-6.3c0-3.3-.5-3.4-2.6-3.4h-2.5v9.7c0 .2-.1.3-.3.3h-2c-.2 0-.3-.1-.3-.3v-16.2c0-.2.1-.3.3-.3h2c.2 0 .3.1.3.3v4.3c.8-.1 1.8-.1 2.5-.1zm14.9.2c.2.1.4.1.4.4v1.3c0 .3-.1.4-.4.3h-2c-1.3 0-1.7.2-1.7 1.2v8.5c0 .2-.1.3-.3.3h-2c-.2 0-.3-.1-.3-.3v-9.2c0-2.6 2.1-2.8 3.7-2.8.5.1 2 .2 2.6.3zm-5.6-12.1c0 .2-.1.3-.3.3h-2c-.2 0-.3-.1-.3-.3v-11.6c0-.2.1-.3.3-.3h2c.2 0 .3.1.3.3v11.6zm32.5 22c2.4 0 2.7-.8 2.7-3.9 0-3.1-.3-3.9-2.7-3.9-2.4 0-2.7.8-2.7 3.9 0 3.1.3 3.9 2.7 3.9zm0-10.1c4.4 0 5.4 1.2 5.4 6.2s-1 6.2-5.4 6.2-5.4-1.2-5.4-6.2 1-6.2 5.4-6.2zm15.9 2.3h-2.5c-2.4 0-2.7.9-2.7 3.9 0 3.2.3 3.9 2.8 3.9.7 0 1.6 0 2.4-.1v-7.7zm2.3-1.9c.3 0 .4.2.4.4v10.8c0 3.9-.8 5.2-5.3 5.2-1.1 0-2.4-.1-3.6-.2-.2 0-.3-.2-.3-.4v-1.3c0-.2.1-.3.3-.3h3.5c2.2 0 2.7-.5 2.7-2.3v-.1c-1 .1-1.8.2-2.8.2-4.1 0-5.1-1.3-5.1-6.3 0-4.9 1-6.1 5.5-6.1 1.9 0 3.6.2 4.7.4zm-37.7 9.7c2.4 0 2.7-.8 2.7-3.9 0-3.1-.3-3.9-2.7-3.9-2.4 0-2.7.8-2.7 3.9 0 3.1.3 3.9 2.7 3.9zm0-10.1c4.4 0 5.4 1.2 5.4 6.2s-1 6.2-5.4 6.2-5.4-1.2-5.4-6.2 1-6.2 5.4-6.2zm5.7-16.7h-3c-1.2 0-1.7.4-1.7 1.5 0 1.3.6 1.6 2.2 1.6.5 0 1.8 0 2.5-.2v-2.9zm-2.5-7.2c3.9 0 5.2 1.2 5.2 3.6v7.7c0 .3 0 .5-.4.7-1.1.3-3.1.5-5 .5-3.1 0-4.7-.5-4.7-3.7 0-2.8 1.5-3.5 4.2-3.5h3.2V365c0-1.2-.7-1.8-2.5-1.8h-3.6c-.3 0-.3-.1-.3-.3v-1.4c0-.3.1-.3.3-.3 1.3-.2 2.5-.3 3.6-.3zm7.6 19.3c.2 0 .3.1.3.3v16.3c0 .2-.1.3-.3.3h-2c-.2 0-.3-.1-.3-.3v-16.3c0-.2.1-.3.3-.3h2zm40.9 4.7c.2 0 .3.1.3.3v11.2c0 3.9-.8 5.2-5.3 5.2-1.5 0-2.5-.1-3.7-.2-.2 0-.3-.2-.3-.4v-1.3c0-.2.1-.3.3-.3h3.6c2.2 0 2.7-.5 2.7-2.3v-.1c-1 .1-1.8.2-2.8.2-4.1 0-5.1-1.4-5.1-5.9v-6.1c0-.2.1-.3.3-.3h2c.2 0 .3.1.3.3v5.8c0 3.2.4 3.9 2.9 3.9.7 0 1.6 0 2.4-.1v-9.5c0-.2.1-.3.3-.3h2.1zm-104.3-14.2c-.5 2.3-.9 2.6-3.1 2.6-2.5 0-2.8-.3-3.3-2.6l-2.2-9.2-2.2 9.2c-.6 2.3-.8 2.6-3.3 2.6-2.2 0-2.6-.3-3.1-2.6l-2.9-14c0-.3 0-.4.3-.4h2.3c.2 0 .2.1.3.4l2.6 13c.1.8.3.9.7.9.5 0 .5-.1.8-.9l3-12.3c.1-.3.2-.4.4-.4h2.2c.2 0 .3.1.4.4l3 12.3c.2.8.3.9.8.9.4 0 .5-.1.7-.9l2.6-13c0-.3.1-.4.3-.4h2.3c.3 0 .3.1.3.4l-2.9 14zm-5.5 9.5c.2 0 .3.1.3.3v16.2c0 .2-.1.3-.3.3h-1.7c-.4 0-.7-.1-.9-.5l-8-11.9v12.1c0 .2-.1.3-.3.3h-2.2c-.2 0-.3-.1-.3-.3v-16.2c0-.2.1-.3.3-.3h1.8c.8 0 1 .2 1.3.7l7.5 11.1v-11.5c0-.2.1-.3.3-.3h2.2zm13.3-19.2c.2 0 .3.1.3.3v11.6c0 .2-.1.3-.3.3h-2c-.2 0-.3-.1-.3-.3v-11.6c0-.2.1-.3.3-.3h2zm-1-2c-1 0-1.6-.5-1.6-1.5s.6-1.5 1.6-1.5 1.6.5 1.6 1.5-.5 1.5-1.6 1.5zm35.7 4.1c-.2 0-.4-.1-.4-.4v-1.4c0-.2.1-.3.4-.3h1.3v-2.5c0-.2.1-.3.3-.4l2-.5c.2-.1.4.1.4.3v3.1h2.2c.2 0 .4.1.4.3v1.4c0 .3-.1.4-.4.4h-2.2v6.7c0 1 .3 1.2 1.4 1.2h1c.3 0 .4.1.4.3v1.5c0 .2-.1.4-.3.4-.6.1-1.2.1-1.6.1-1.7 0-3.5 0-3.5-2.7v-7.5h-1.4zm-36.6 27c0-2.4-.5-3-2.5-3-2.1 0-2.6.6-2.6 3h5.1zm-2.5-5.3c4.2 0 5.1 1.2 5.2 6v.7c0 .4-.1.6-.8.6h-7c.1 2.4.6 2.9 2.8 2.9h3.8c.2 0 .3.1.3.3v1.4c0 .2-.1.3-.3.4-1.2.2-2.6.2-4 .2-4.3 0-5.3-1.2-5.3-6.2 0-5.1 1-6.3 5.3-6.3zm13.1 10.1c2.5 0 2.8-.7 2.8-3.9 0-3-.3-3.9-2.7-3.9h-2.5v7.6c.7.1 1.6.2 2.4.2zm0-10.1c4.5 0 5.5 1.3 5.5 6.1 0 5-1 6.3-5.1 6.3-1 0-1.9 0-2.8-.1v4.1c0 .2-.1.3-.3.3h-2c-.2 0-.3-.1-.3-.3v-15.6c0-.3.2-.4.4-.4 1.8-.3 3-.4 4.6-.4zm.1-11.4c-4.5 0-5.4-1.2-5.4-6.2s.9-6.2 5.4-6.2c.9 0 2.3 0 3.5.2.2 0 .3.2.3.4v1.4c0 .2-.1.3-.3.3h-3.5c-2.4 0-2.7.8-2.7 3.9s.3 3.9 2.7 3.9h3.5c.2 0 .3.1.3.3v1.3c0 .3-.1.4-.3.4-1.2.2-2.7.3-3.5.3z"/><path id="e" class="st1" d="M-312.8 416.5c1.9 0 3.5-1.6 3.5-3.5s-1.6-3.5-3.5-3.5-3.5 1.5-3.6 3.5c.1 2 1.7 3.5 3.6 3.5zm0-8.5c2.9 0 5.2 2.2 5.2 5s-2.3 5-5.1 5h-.1c-2.8.1-5.1-2.1-5.2-4.9v-.1c0-2.9 2.3-5 5.2-5zm20.9 0h1.7v5.8c0 2.6-1.6 4.2-4.3 4.2-2.7 0-4.3-1.6-4.3-4.2V408h1.7v5.8c0 1.7 1 2.7 2.7 2.7 1.6 0 2.6-1 2.6-2.7l-.1-5.8zm15 5.5c1.5 0 2.4-.6 2.4-2 0-1.3-.9-1.9-2.4-1.9h-2.2v3.9h2.2zm.1-5.5c2.5 0 3.9 1.2 3.9 3.4s-1.4 3.5-3.9 3.5h-2.3v3h-1.7V408h4zm-53.7 5.5c1.5 0 2.4-.6 2.4-2 0-1.3-.9-1.9-2.4-1.9h-2.4v3.9h2.4zm4-2.1c0 1.6-.7 2.7-2 3.2l2.2 3.3h-1.9l-1.8-3h-2.9v3h-1.7V408h4c2.6 0 4.1 1.3 4.1 3.4zm-21.2-1.9c-1.9 0-3.6 1.5-3.6 3.4v.1c0 2 1.6 3.5 3.6 3.5.7 0 1.6-.3 2.3-.7V413h1.5v3.7c-1.1.8-2.5 1.3-3.8 1.3-2.8.1-5.1-2.1-5.2-4.9v-.1c0-2.8 2.3-5 5.3-5 1.4 0 2.8.5 3.8 1.4l-.9 1.2c-.9-.7-1.9-1.1-3-1.1z"/><path id="f" class="st2" d="M-371.3 419.2c-.4 0-.7-.3-.7-.7v-62.9c0-.4.3-.7.7-.7s.7.3.7.7v62.9c-.1.4-.4.7-.7.7"/></svg>