<?xml version="1.0" encoding="utf-8"?>
<!-- Generator: Adobe Illustrator 26.0.0, SVG Export Plug-In . SVG Version: 6.00 Build 0)  -->
<svg version="1.1" id="Layer_1" xmlns="http://www.w3.org/2000/svg" xmlns:xlink="http://www.w3.org/1999/xlink" x="0px" y="0px"
	 viewBox="0 0 589.8 146.9" style="enable-background:new 0 0 589.8 146.9;" xml:space="preserve">
<g>
	<g>
		<path d="M138.3,33.2c0-2.4,0-4.3-0.2-6.2h-7.5c-1.5,0-1.8,0.6-1.9,2l-0.2,4.9H127c0-3.3-0.1-6.8-0.3-10c3.5,0,7,0.2,10.5,0.2h7
			c3.5,0,7-0.2,10.5-0.2c-0.2,3.2-0.3,6.6-0.3,10h-1.5l-0.2-4.9c-0.1-1.5-0.5-2-1.9-2h-7.5c-0.1,1.9-0.2,3.8-0.2,6.2v26.2
			c0,2.4,0.1,4,0.4,4.6c0.3,0.6,0.9,0.9,2,0.9l2.3,0.2V67c-2.5-0.1-4.8-0.2-7-0.2c-2.4,0-4.7,0.1-7.2,0.2v-1.9l2.3-0.2
			c1.2-0.1,1.7-0.3,2-0.9c0.3-0.7,0.4-2.3,0.4-4.6V33.2z"/>
		<path d="M177.7,50.8c0,8.4-4.9,16.9-13.2,16.9c-5.8,0-12.5-5.6-12.5-15.5c0-10.7,6.2-16.2,13.2-16.2
			C173.5,36,177.7,43.2,177.7,50.8z M156.8,50.4c0,6.8,2,14.9,8.8,14.9c5.7,0,7.2-7.1,7.2-13c0-7.7-2.5-14.1-8.5-14.1
			C160.1,38.1,156.8,42.6,156.8,50.4z"/>
		<path d="M179.8,65.3c3.5,0,4.4-0.1,4.4-3.8V42.1c0-3.2-0.4-3.7-4.4-3.7v-1.7c2.1,0,4.1,0.2,6.4,0.2c2.5,0,5.3-0.2,7.9-0.2
			c4.3,0,7.5,1.6,7.5,6.7c0,5.8-4.2,7.3-6.5,8.4l7.4,11.6c1,1.5,1.4,2,2.9,2v1.5h-6l-9.7-15l0.2-1c0.5,0.1,1.1,0.1,1.7,0.1
			c2.9,0,5.1-2.7,5.1-6.4c0-4-1.6-5.8-5.1-5.8c-1.1,0-2.2,0.1-3.1,0.6v22.9c0,2.9,0.6,3,4.3,3V67c-1.2-0.1-2.9-0.2-6.4-0.2
			c-2.2,0-4.4,0.1-6.6,0.2L179.8,65.3L179.8,65.3z"/>
		<path d="M206.8,65.3c3.5,0,4.4-0.1,4.4-3.8V42.1c0-3.2-0.4-3.7-4.4-3.7v-1.7c2.1,0,4.1,0.2,6.4,0.2c2.5,0,5.3-0.2,7.9-0.2
			c4.3,0,7.5,1.6,7.5,6.7c0,5.8-4.2,7.3-6.5,8.4l7.4,11.6c1,1.5,1.4,2,2.9,2v1.5h-6l-9.7-15l0.2-1c0.5,0.1,1.1,0.1,1.7,0.1
			c2.9,0,5.1-2.7,5.1-6.4c0-4-1.6-5.8-5.1-5.8c-1.1,0-2.2,0.1-3.1,0.6v22.9c0,2.9,0.6,3,4.3,3V67c-1.2-0.1-2.9-0.2-6.4-0.2
			c-2.2,0-4.4,0.1-6.6,0.2L206.8,65.3L206.8,65.3z"/>
		<path d="M248.4,36l8.4,24.5c1.5,4.6,2.5,4.8,4.4,4.8V67c-0.8-0.1-3.7-0.2-5.8-0.2c-2,0-3.8,0.1-6,0.2v-1.7c2.9,0,3.6-0.5,3.6-1.7
			c0-1.4-1.3-4.5-1.9-6.2c-1.6-0.1-3.3-0.1-5-0.1c-1.6,0-3.2,0.1-4.9,0.1c-0.4,1.3-1.6,3.3-1.6,5.6c0,1.7,1.1,2.2,3.6,2.2v1.7
			c-1.6-0.1-3.3-0.2-5-0.2c-1.5,0-2.6,0.1-4.7,0.2v-1.7c2.2,0,3-0.4,5.1-6.7l8-22.6h1.8V36z M242.1,54.8c1.3,0.1,2.5,0.1,3.9,0.1
			c1.6,0,2.8-0.1,4.4-0.1l-4.1-12.1L242.1,54.8z"/>
		<path d="M267.8,41c0-2-1-2.5-4.3-2.6v-1.7c1.3,0.1,2.4,0.2,4,0.2c1.3,0,2.8-0.1,4.1-0.2c4.9,8.2,10.3,16.1,15.3,24.2h0.1V41.6
			c0-2.9-1.4-3.2-4.5-3.2v-1.7c2,0.1,3.9,0.2,5.4,0.2c1.8,0,3.6-0.1,5.4-0.2v1.7c-3.7,0-4.5,0.4-4.5,4.8v18c0,2.5,0.2,4.5,0.3,6.6
			l-3.9-0.6l-15.5-24h-0.1V62c0,3.1,0.5,3.4,4.2,3.4v1.7c-1.8-0.1-3.6-0.2-5.5-0.2c-1.7,0-3.4,0.1-5.1,0.2v-1.7
			c3.7,0,4.5-0.7,4.5-3.8V41H267.8z"/>
		<path d="M316.8,46.3l-0.2-4.2c-1.3-2-3.3-3.8-7.3-3.8c-5.1,0-8.9,5.1-8.9,13.4c0,7.1,3.3,13.3,10.3,13.3c3.3,0,5.5-0.9,7.8-3.2
			l0.6,0.4l-0.7,2.4c-1.5,1.5-5,3.1-9.5,3.1c-7.7,0-13.3-6.6-13.3-15.6c0-10.5,6.2-16.2,14.3-16.2c2.6,0,6.6,0.9,8.9,2.2
			c-0.5,3-0.6,6.4-0.6,8.1h-1.4V46.3z"/>
		<path d="M326,42.7c0-4.1-0.9-4.3-4.5-4.3v-1.7c1.5,0.1,2.9,0.2,4.6,0.2c1.8,0,3.5-0.1,5.3-0.2c1.7-0.1,3.5-0.2,5.3-0.2
			c1.9,0,4.3,0.2,5.9,0.5c-0.3,2.1-0.5,4.5-0.6,7.4h-1.4c-0.1-2.4-0.2-3.7-0.5-5c-1.9-0.4-4.2-0.6-6.5-0.6c-1.2,0-2.2,0.2-3.1,0.4
			c-0.1,3.2-0.1,7.2-0.1,10.8c1.1,0.1,2.4,0.1,4.7,0.1c2.3,0,2.7-0.7,2.7-4.2h1.5c0,1.7-0.1,3.6-0.1,5.3c0,1.9,0,4,0.1,5.8h-1.5
			c0-3.9-0.4-4.6-4.6-4.6c-1.2,0-2,0.1-2.8,0.1c0,5,0,9,0.2,12c1.3,0.1,2.6,0.2,4.3,0.2c2.1,0,4.3-0.3,5.4-0.7
			c0.5-1.7,0.8-3.5,1.1-5.6h1.3c0,3.2-0.2,6-0.4,8.4c-1.9,0.2-4.3,0.3-6.6,0.3c-2.8,0-5.2-0.2-7.5-0.2c-2.2,0-3.9,0.1-6.2,0.2v-1.7
			c3.9,0,4.2-0.7,4.2-5.1V42.7H326z"/>
		<path d="M396.8,59.4c0,2.4,0.1,4,0.4,4.6s0.9,0.9,2,0.9l2.3,0.2V67c-2.5-0.1-4.8-0.2-7-0.2c-2.4,0-4.7,0.1-6.5,0.2v-1.9l1.6-0.2
			c1.2-0.1,1.7-0.3,2-0.9c0.3-0.7,0.4-2.3,0.4-4.6V31.3h-0.1c-0.7,1.7-1.4,3.4-2,5.1l-8.6,23.4c-0.9,2.5-1.7,5.3-2.6,7.9h-1
			l-13.4-36.4h-0.1v28.1c0,2.4,0.1,4,0.4,4.6s0.9,0.8,2,0.9l2.1,0.2V67c-2.1-0.1-3.9-0.2-5.8-0.2c-1.7,0-3.7,0.1-5.6,0.2v-1.9
			l2.1-0.2c1.2-0.1,1.7-0.3,2-0.9c0.3-0.7,0.4-2.3,0.4-4.6V31.6c0-2.4-0.1-4-0.4-4.6s-0.9-0.8-2-0.9l-2.1-0.2V24
			c1.5,0.1,3.1,0.2,4.6,0.2s3.1-0.1,4.6-0.2l12.8,34.5L392,24c1.6,0.1,3.1,0.2,4.6,0.2c1.6,0,3.1-0.1,4.5-0.2v1.9l-2,0.2
			c-1.2,0.1-1.7,0.3-2,0.9c-0.3,0.7-0.4,2.3-0.4,4.6v27.8H396.8z"/>
		<path d="M408.2,42.7c0-4.1-0.9-4.3-4.5-4.3v-1.7c1.5,0.1,2.9,0.2,4.6,0.2c1.8,0,3.5-0.1,5.3-0.2c1.7-0.1,3.5-0.2,5.3-0.2
			c1.9,0,4.3,0.2,5.9,0.5c-0.3,2.1-0.5,4.5-0.6,7.4h-1.4c-0.1-2.4-0.2-3.7-0.5-5c-1.9-0.4-4.2-0.6-6.5-0.6c-1.2,0-2.2,0.2-3.1,0.4
			c-0.1,3.2-0.1,7.2-0.1,10.8c1.1,0.1,2.4,0.1,4.7,0.1c2.3,0,2.7-0.7,2.7-4.2h1.5c0,1.7-0.1,3.6-0.1,5.3c0,1.9,0,4,0.1,5.8H420
			c0-3.9-0.4-4.6-4.6-4.6c-1.2,0-2,0.1-2.8,0.1c0,5,0,9,0.2,12c1.3,0.1,2.6,0.2,4.3,0.2c2.1,0,4.3-0.3,5.4-0.7
			c0.5-1.7,0.8-3.5,1.1-5.6h1.3c0,3.2-0.2,6-0.4,8.4c-1.9,0.2-4.3,0.3-6.6,0.3c-2.8,0-5.2-0.2-7.5-0.2c-2.2,0-3.9,0.1-6.2,0.2v-1.7
			c3.9,0,4.2-0.7,4.2-5.1V42.7H408.2z"/>
		<path d="M444,67.6l-9.2-25.4h-0.1v19.7c0,3,0.9,3.4,4.2,3.4V67c-1.8-0.1-3.6-0.2-5.4-0.2c-1.6,0-3.3,0.1-5,0.2v-1.7
			c3.3,0,4.4-0.3,4.4-4V41.9c0-3-1.3-3.5-4.4-3.5v-1.7c1.6,0.1,3.2,0.2,4.9,0.2c1.5,0,3-0.1,4.4-0.2c1.6,5.1,5,14.3,8,22.6
			c3.8-10.7,6-16.2,8.1-22.6c1.2,0.1,2.5,0.2,3.7,0.2c1.6,0,3.5-0.1,5-0.2v1.7c-2.9,0-4,0.2-4,4v19.3c0,3,0.9,3.5,4,3.5v1.7
			c-1.8-0.1-3.8-0.2-6-0.2c-2.4,0-4,0.1-6.3,0.2v-1.7c3.4,0,4-0.7,4-3.2V41.2h-0.1L445,67.6H444z"/>
		<path d="M490.1,50.8c0,8.4-4.9,16.9-13.2,16.9c-5.8,0-12.5-5.6-12.5-15.5c0-10.7,6.2-16.2,13.2-16.2C486,36,490.1,43.2,490.1,50.8
			z M469.3,50.4c0,6.8,2,14.9,8.8,14.9c5.7,0,7.2-7.1,7.2-13c0-7.7-2.5-14.1-8.5-14.1C472.6,38.1,469.3,42.6,469.3,50.4z"/>
		<path d="M492.3,65.3c3.5,0,4.4-0.1,4.4-3.8V42.1c0-3.2-0.4-3.7-4.4-3.7v-1.7c2.1,0,4.1,0.2,6.4,0.2c2.5,0,5.3-0.2,7.9-0.2
			c4.3,0,7.5,1.6,7.5,6.7c0,5.8-4.2,7.3-6.5,8.4l7.4,11.6c1,1.5,1.4,2,2.9,2v1.5h-6l-9.7-15l0.2-1c0.5,0.1,1.1,0.1,1.7,0.1
			c2.9,0,5.1-2.7,5.1-6.4c0-4-1.6-5.8-5.1-5.8c-1.1,0-2.2,0.1-3.1,0.6v22.9c0,2.9,0.6,3,4.3,3V67c-1.2-0.1-2.9-0.2-6.4-0.2
			c-2.2,0-4.4,0.1-6.6,0.2L492.3,65.3L492.3,65.3z"/>
		<path d="M523.9,41.8c0-3.3-1.2-3.4-4.4-3.4v-1.7c1.7,0.1,3.9,0.2,6.4,0.2c2.3,0,4-0.1,6.7-0.2v1.7c-3.6,0-4.4,0.1-4.4,3.4v19.3
			c0,3.7,0.4,4.2,4.4,4.2V67c-2.1-0.1-4.3-0.2-6.4-0.2c-2.2,0-4.4,0.1-6.6,0.2v-1.7c3.6,0,4.4-0.4,4.4-4.2V41.8H523.9z"/>
		<path d="M550.1,36l8.4,24.5c1.5,4.6,2.5,4.8,4.4,4.8V67c-0.8-0.1-3.7-0.2-5.8-0.2c-2,0-3.8,0.1-6,0.2v-1.7c2.9,0,3.6-0.5,3.6-1.7
			c0-1.4-1.3-4.5-1.9-6.2c-1.6-0.1-3.3-0.1-5-0.1c-1.6,0-3.2,0.1-4.9,0.1c-0.4,1.3-1.6,3.3-1.6,5.6c0,1.7,1.1,2.2,3.6,2.2v1.7
			c-1.6-0.1-3.3-0.2-5-0.2c-1.5,0-2.6,0.1-4.7,0.2v-1.7c2.2,0,3-0.4,5.1-6.7l8-22.6h1.8V36z M543.7,54.8c1.3,0.1,2.5,0.1,3.9,0.1
			c1.6,0,2.8-0.1,4.4-0.1l-4-12.1L543.7,54.8z"/>
		<path d="M569.1,41.3c0-2.9-0.8-2.9-4.4-2.9v-1.7c2.2,0.1,4,0.2,6.2,0.2c1.6,0,4-0.1,6.7-0.2v1.7c-3.1,0-4.2,0.1-4.2,3.8v16.4
			c0,2.1,0,3.8,0.2,5.8c1,0.1,1.9,0.1,3.3,0.1c3,0,5.7-0.2,7.1-0.9l1-5h1.5c-0.4,2.7-0.7,5.3-0.8,8.2c-1.6,0.1-3.8,0.2-6,0.2
			c-4.7,0-6.1-0.2-8.3-0.2c-2,0-3.3,0.1-5,0.2v-1.7c2.1-0.4,2.8-0.8,2.8-4.9L569.1,41.3L569.1,41.3z"/>
	</g>
	<g>
		<path d="M136.4,100.7c0-2.4-0.3-2.7-3.3-2.7v-1.3c1,0,3,0.1,4.5,0.1c0.9,0,1.8-0.1,2.7-0.2s1.9-0.2,2.8-0.2c4.9,0,6.1,2.4,6.1,5.6
			c0,3.1-2,6.8-6.4,6.8c-0.7,0-1.3-0.2-1.6-0.4L141,107c0.3,0.2,0.7,0.4,1.2,0.4c2.5,0,3.6-2,3.6-4.8s-1.7-4.6-3.9-4.6
			c-0.9,0-1.6,0.3-2.3,0.6v16.8c0,2.1,0.4,2.7,3.2,2.8v1.3c-0.9,0-2.1-0.1-4.8-0.1c-1.6,0-3.3,0.1-5,0.1v-1.3c2.6,0,3.3-0.7,3.3-2.8
			L136.4,100.7L136.4,100.7z"/>
		<path d="M154.7,100.8c0-2.7-0.5-2.8-3.4-2.8v-1.3c1.5,0,3.4,0.1,4.8,0.1c1.7,0,3.1-0.1,5-0.1V98c-2.7,0-3.1,0.1-3.1,2.8v5.6
			c1.5,0,3,0.1,4.7,0.1s3.2,0,4.7-0.1v-5.6c0-2.7-0.4-2.8-3.1-2.8v-1.3c1.9,0,3.3,0.1,5,0.1c1.4,0,3.3-0.1,4.8-0.1V98
			c-2.9,0-3.4,0.1-3.4,2.8V115c0,2.6,0.4,3.1,3.3,3.1v1.3c-1.5,0-3.1-0.1-4.6-0.1c-1.7,0-3.5,0.1-5.1,0.1v-1.3
			c2.6,0,3.1-0.2,3.1-3.1v-6.9c-1.5,0-3-0.1-4.7-0.1s-3.2,0-4.7,0.1v6.9c0,2.9,0.5,3.1,3.1,3.1v1.3c-1.6,0-3.4-0.1-5.1-0.1
			c-1.5,0-3.1,0.1-4.6,0.1v-1.3c2.8,0,3.3-0.5,3.3-3.1V100.8z"/>
		<path d="M179.2,118.2c2.7,0,3.2-0.7,3.2-2.2v-6.1c-1.6-3.8-3-6.6-4-8.3c-1.5-2.7-1.9-3-3.2-3v-1.3c1.1-0.2,2.7-0.4,3.7-0.8
			c0.9,0.4,1.9,1.7,2.7,3.7l3.3,7.7c0.8-1.8,3.4-7.8,4.7-11h2.5v0.6c-2.1,3.1-4.4,8.1-6.5,12.7v4.8c0,3.2,0.9,3.3,3.1,3.3v1.3
			c-1.6,0-3.5-0.1-4.8-0.1c-1.9,0-3.2,0.1-4.8,0.1v-1.4H179.2z"/>
		<path d="M205,102.4c0-2.2-0.3-3-0.7-3.4c-0.8-0.8-1.6-1.1-3-1.1c-2.3,0-3.9,1.8-3.9,4.3c0,7.3,10,0.1,10,9.6c0,4.6-3.3,8.2-8,8.2
			c-2.4,0-3.6-0.5-4.9-1.3c0.2-1.6,0.2-2.7,0.2-5.3h1c0,3.5,1.2,4.9,4.1,4.9c2.3,0,4.5-1.5,4.5-5.2c0-7.1-9.9,0.4-9.9-9.4
			c0-4.7,3.1-7.5,7-7.5c2.7,0,4.1,1,4.9,1.6c-0.3,1.7-0.3,2.9-0.3,4.7L205,102.4L205,102.4z"/>
		<path d="M213.4,100.5c0-2.5-0.9-2.6-3.3-2.6v-1.3c1.3,0,2.9,0.1,4.8,0.1c1.7,0,3-0.1,5-0.1v1.3c-2.7,0-3.3,0-3.3,2.6V115
			c0,2.8,0.3,3.1,3.3,3.1v1.3c-1.6,0-3.2-0.1-4.8-0.1c-1.7,0-3.3,0.1-5,0.1v-1.3c2.7,0,3.3-0.3,3.3-3.1V100.5z"/>
		<path d="M238.7,103.9l-0.1-3.2c-1-1.5-2.5-2.9-5.5-2.9c-3.8,0-6.7,3.8-6.7,10.1c0,5.4,2.5,10,7.7,10c2.5,0,4.1-0.7,5.8-2.4
			l0.4,0.3l-0.5,1.8c-1.1,1.2-3.7,2.3-7.1,2.3c-5.8,0-10-4.9-10-11.7c0-7.9,4.6-12.2,10.7-12.2c1.9,0,5,0.7,6.7,1.7
			c-0.4,2.3-0.4,4.8-0.4,6.1L238.7,103.9L238.7,103.9z"/>
		<path d="M245.8,100.5c0-2.5-0.9-2.6-3.3-2.6v-1.3c1.3,0,2.9,0.1,4.8,0.1c1.7,0,3-0.1,5-0.1v1.3c-2.7,0-3.3,0-3.3,2.6V115
			c0,2.8,0.3,3.1,3.3,3.1v1.3c-1.6,0-3.2-0.1-4.8-0.1c-1.7,0-3.3,0.1-5,0.1v-1.3c2.7,0,3.3-0.3,3.3-3.1V100.5z"/>
		<path d="M265.5,96.1l6.3,18.4c1.1,3.4,1.9,3.6,3.3,3.6v1.3c-0.6,0-2.8-0.1-4.3-0.1s-2.9,0.1-4.5,0.1v-1.3c2.1,0,2.7-0.4,2.7-1.3
			c0-1-1-3.4-1.5-4.7c-1.2,0-2.5-0.1-3.7-0.1s-2.4,0-3.7,0.1c-0.3,1-1.2,2.5-1.2,4.2c0,1.3,0.8,1.7,2.7,1.7v1.3
			c-1.2,0-2.5-0.1-3.8-0.1c-1.1,0-1.9,0.1-3.6,0.1V118c1.6,0,2.2-0.3,3.9-5l6-17h1.4V96.1z M260.7,110.3c0.9,0,1.9,0.1,2.9,0.1
			c1.2,0,2.1,0,3.3-0.1l-3.1-9.1L260.7,110.3z"/>
		<path d="M280,99.9c0-1.5-0.8-1.9-3.2-2v-1.3c0.9,0,1.8,0.1,3,0.1c0.9,0,2.1-0.1,3.1-0.1c3.7,6.2,7.8,12.1,11.5,18.2h0.1v-14.5
			c0-2.1-1.1-2.4-3.3-2.4v-1.3c1.5,0,2.9,0.1,4.1,0.1c1.4,0,2.7-0.1,4.1-0.1v1.3c-2.8,0-3.3,0.3-3.3,3.6V115c0,1.9,0.1,3.4,0.2,4.9
			l-2.9-0.5l-11.9-17.9h-0.1v14.2c0,2.3,0.4,2.6,3.1,2.6v1.3c-1.3,0-2.7-0.1-4.1-0.1c-1.3,0-2.6,0.1-3.8,0.1v-1.3
			c2.8,0,3.3-0.5,3.3-2.8V99.9H280z"/>
		<path d="M313.3,99.9c0-1.5-0.8-1.9-3.2-2v-1.3c0.9,0,1.8,0.1,3,0.1c0.9,0,2.1-0.1,3.1-0.1c3.7,6.2,7.8,12.1,11.5,18.2h0.1v-14.5
			c0-2.1-1.1-2.4-3.3-2.4v-1.3c1.5,0,2.9,0.1,4.1,0.1c1.4,0,2.7-0.1,4.1-0.1v1.3c-2.8,0-3.3,0.3-3.3,3.6V115c0,1.9,0.1,3.4,0.2,4.9
			l-2.9-0.5l-11.8-17.9h-0.1v14.2c0,2.3,0.4,2.6,3.1,2.6v1.3c-1.3,0-2.7-0.1-4.1-0.1c-1.3,0-2.6,0.1-3.8,0.1v-1.3
			c2.8,0,3.3-0.5,3.3-2.8V99.9z"/>
		<path d="M337.6,101.2c0-3.1-0.7-3.3-3.4-3.3v-1.3c1.1,0,2.1,0.1,3.4,0.1s2.7-0.1,4-0.2s2.7-0.2,4-0.2c1.5,0,3.2,0.1,4.4,0.4
			c-0.2,1.6-0.4,3.4-0.4,5.6h-1c-0.1-1.8-0.1-2.7-0.4-3.7c-1.4-0.3-3.2-0.5-4.9-0.5c-0.9,0-1.6,0.1-2.3,0.3
			c-0.1,2.4-0.1,5.4-0.1,8.1c0.8,0,1.8,0.1,3.5,0.1s2-0.5,2-3.1h1.1c0,1.3-0.1,2.7-0.1,4c0,1.4,0,3,0.1,4.3h-1.1
			c0-2.9-0.3-3.5-3.5-3.5c-0.9,0-1.5,0-2.1,0.1c0,3.7,0,6.8,0.1,9c1,0.1,2,0.2,3.2,0.2c1.6,0,3.2-0.2,4.1-0.6
			c0.4-1.3,0.6-2.7,0.8-4.2h0.9c0,2.4-0.1,4.5-0.3,6.3c-1.5,0.2-3.2,0.2-4.9,0.2c-2.1,0-3.9-0.1-5.6-0.1c-1.6,0-2.9,0.1-4.7,0.1V118
			c2.9,0,3.1-0.6,3.1-3.9L337.6,101.2L337.6,101.2z"/>
		<path d="M355.8,118.2c2.5,0,3.1-0.3,3.1-2.6v-17H357c-3.2,0-3.5,0.6-3.6,2.3l-0.1,1.9h-1l-0.1-6.1c1.7,0.1,4.4,0.1,8.3,0.1
			s6.6,0,8.3-0.1l-0.1,6.1h-1l-0.1-1.9c-0.1-1.8-0.4-2.3-3.6-2.3h-1.8v17c0,2,0.5,2.6,3.1,2.6v1.3c-1.5,0-3-0.1-4.5-0.1
			c-1.6,0-3.3,0.1-4.9,0.1L355.8,118.2L355.8,118.2z"/>
		<path d="M385.3,96.6l5.1,17.5h0.1l2.5-11.6c0.2-1,0.5-2.1,0.5-3s-0.7-1.5-2.7-1.5v-1.3c1.3,0,2.4,0.1,3.5,0.1
			c1.3,0,2.4-0.1,3.2-0.1V98c-1.8,0.1-1.9,0.5-2.4,2.7l-4.4,19h-2.1l-4.7-16.7h-0.1l-4.5,16.7h-2l-3.9-17.9
			c-0.7-3.1-1.2-3.9-3.1-3.9v-1.3c1,0,2.4,0.1,4.2,0.1c1.1,0,2.7-0.1,4.4-0.1v1.3c-2.1,0-2.8,0-2.8,1.2c0,0.5,0.1,1.1,0.3,1.5
			l2.8,13.4h0.1l4.7-17.5h1.3V96.6z"/>
		<path d="M418.8,107.3c0,6.3-3.7,12.7-9.9,12.7c-4.4,0-9.4-4.2-9.4-11.6c0-8,4.7-12.2,9.9-12.2C415.7,96.1,418.8,101.5,418.8,107.3
			z M403.2,106.9c0,5.1,1.5,11.2,6.6,11.2c4.3,0,5.4-5.3,5.4-9.8c0-5.8-1.9-10.6-6.4-10.6C405.7,97.7,403.2,101.1,403.2,106.9z"/>
		<path d="M421.2,118.2c2.6,0,3.3-0.1,3.3-2.8v-14.7c0-2.4-0.3-2.7-3.3-2.7v-1.3c1.6,0,3.1,0.1,4.8,0.1c1.9,0,4-0.1,5.9-0.1
			c3.2,0,5.6,1.2,5.6,5c0,4.3-3.1,5.4-4.9,6.3l5.6,8.7c0.7,1.1,1,1.5,2.1,1.5v1.2h-4.5l-7.3-11.3l0.1-0.7c0.4,0,0.8,0.1,1.3,0.1
			c2.2,0,3.9-2,3.9-4.8c0-3-1.2-4.4-3.9-4.4c-0.8,0-1.7,0.1-2.3,0.5V116c0,2.2,0.4,2.3,3.2,2.3v1.3c-0.9,0-2.1-0.1-4.8-0.1
			c-1.6,0-3.3,0.1-4.9,0.1L421.2,118.2L421.2,118.2z"/>
		<path d="M451.2,98c-2.8,0-3.1,0-3.1,2.7v6.7h0.2c2.6-3.4,4.9-6.1,6.9-9.3v-1.4c1.1,0,1.7,0,2.6,0c0.6,0,1.4,0,2.2,0V98
			c-1.5,0-2,0.2-3.1,1.4l-5.7,6.8l7.6,10.5c0.7,0.9,1.1,1.6,1.9,1.6v1.3c-0.7,0-1.3,0-2,0c-0.8,0-1.6,0-2.4,0l-7.9-11.3l-0.4,0.2v7
			c0,2.4,0.4,2.7,3.2,2.7v1.3c-1.6,0-3.2-0.1-4.8-0.1c-1.6,0-3.2,0.1-4.9,0.1v-1.3c2.6,0,3.2-0.2,3.2-3.1v-14c0-3-0.5-3.1-3.2-3.1
			v-1.3c2,0,3.2,0.1,4.7,0.1c1.9,0,3.2-0.1,5-0.1L451.2,98L451.2,98z"/>
	</g>
	<polygon points="584,81.2 130.8,81.2 130.8,79.3 584,79.3 	"/>
	<path d="M76.1,32.4c-3.1,0-5.5-2.5-5.5-5.5s2.5-5.5,5.5-5.5c3.1,0,5.5,2.5,5.5,5.5S79.2,32.4,76.1,32.4"/>
	<path d="M76.3,64H66.1V43.2l-14.7,0.1c0,0-3-1-3-4.4c0-3.4,3.4-4.6,3.4-4.6H71c0,0,1.7,0.6,2.8,1.7c1.1,1.1,2.5,3.5,2.5,3.5l0,0
		c0,0,1.4-2.4,2.5-3.5c1.1-1.1,2.8-1.7,2.8-1.7h19.2c0,0,3.4,1.2,3.4,4.6c0,3.4-3,4.4-3,4.4l-14.7-0.1v20.7L76.3,64L76.3,64z"/>
	<path d="M14.3,53.7c0,3.1-2.5,5.5-5.5,5.5s-5.5-2.5-5.5-5.5c0-3.1,2.5-5.5,5.5-5.5C11.9,48.1,14.3,50.6,14.3,53.7"/>
	<path d="M45.9,53.5v10.1H25.2l0.1,14.7c0,0-1,3-4.4,3s-4.6-3.4-4.6-3.4V58.8c0,0,0.6-1.7,1.7-2.8s3.5-2.5,3.5-2.5l0,0
		c0,0-2.4-1.4-3.5-2.5c-1.1-1.1-1.7-2.8-1.7-2.8V29c0,0,1.2-3.4,4.6-3.4s4.4,3,4.4,3l-0.1,14.7h20.7V53.5L45.9,53.5z"/>
	<path d="M35.6,114.5c3.1,0,5.5,2.5,5.5,5.5s-2.5,5.5-5.5,5.5s-5.5-2.5-5.5-5.5C30.1,117,32.6,114.5,35.6,114.5"/>
	<path d="M35.4,82.9h10.1v20.7l14.7-0.1c0,0,3,1,3,4.4s-3.4,4.6-3.4,4.6h-19c0,0-1.7-0.6-2.8-1.7s-2.5-3.5-2.5-3.5l0,0
		c0,0-1.4,2.4-2.5,3.5c-1.1,1.1-2.8,1.7-2.8,1.7H11c0,0-3.4-1.2-3.4-4.6s3-4.4,3-4.4l14.7,0.1V82.9H35.4L35.4,82.9z"/>
	<path d="M97.4,93.2c0-3.1,2.5-5.5,5.5-5.5s5.5,2.5,5.5,5.5c0,3.1-2.5,5.5-5.5,5.5C99.9,98.8,97.4,96.3,97.4,93.2"/>
	<path d="M65.8,93.4V83.3h20.7V68.5c0,0,1-3,4.4-3s4.6,3.4,4.6,3.4v19.2c0,0-0.6,1.7-1.7,2.8c-1.1,1.1-3.5,2.5-3.5,2.5l0,0
		c0,0,2.4,1.4,3.5,2.5s1.7,2.8,1.7,2.8v19.2c0,0-1.2,3.4-4.6,3.4s-4.4-3-4.4-3v-14.8H65.8V93.4L65.8,93.4z"/>
</g>
</svg>
