<svg xmlns="http://www.w3.org/2000/svg" width="217.461" height="114.163"><g data-name="Group 156" fill="#fff"><g data-name="Group 155" transform="translate(0 78.667)"><path data-name="Path 746" d="M10.555 11.986h-.663a.3.3 0 0 1-.192-.061.438.438 0 0 1-.118-.163l-1.4-3.443H2.363L.971 11.762a.367.367 0 0 1-.116.159.312.312 0 0 1-.2.065H.002L4.853.135h.853zm-7.933-4.3h5.31l-2.42-5.99c-.039-.094-.08-.2-.118-.322s-.078-.247-.116-.382a10.468 10.468 0 0 1-.234.713z"/><path data-name="Path 747" d="M32.935.135v.712h-6.241v4.79h5.192v.7h-5.192v4.939h6.239v.71h-7.1V.135z"/><path data-name="Path 748" d="M54.872 1.576a.236.236 0 0 1-.216.143.489.489 0 0 1-.282-.155 3.818 3.818 0 0 0-.467-.345 3.755 3.755 0 0 0-.735-.347 3.705 3.705 0 0 0-2.227.024 2.412 2.412 0 0 0-.825.5 2.138 2.138 0 0 0-.5.737 2.3 2.3 0 0 0-.171.88 1.8 1.8 0 0 0 .255 1 2.3 2.3 0 0 0 .676.669 4.267 4.267 0 0 0 .953.465c.355.127.718.251 1.094.373s.739.257 1.094.406a3.951 3.951 0 0 1 .953.557 2.559 2.559 0 0 1 .676.825 2.627 2.627 0 0 1 .255 1.218 3.863 3.863 0 0 1-.255 1.4 3.309 3.309 0 0 1-.741 1.143 3.488 3.488 0 0 1-1.19.767 4.348 4.348 0 0 1-1.608.28 4.554 4.554 0 0 1-2.018-.414 4.742 4.742 0 0 1-1.484-1.135l.235-.369a.294.294 0 0 1 .235-.124.327.327 0 0 1 .192.1c.08.067.173.149.286.247s.247.2.4.318a3.249 3.249 0 0 0 .545.318 3.731 3.731 0 0 0 1.627.347 3.518 3.518 0 0 0 1.259-.212 2.766 2.766 0 0 0 .935-.584 2.447 2.447 0 0 0 .582-.876 2.891 2.891 0 0 0 .2-1.084 1.924 1.924 0 0 0-.255-1.035 2.205 2.205 0 0 0-.676-.678 4.342 4.342 0 0 0-.953-.457c-.355-.122-.718-.243-1.094-.361s-.739-.247-1.094-.392a3.886 3.886 0 0 1-.953-.557 2.56 2.56 0 0 1-.676-.847 2.817 2.817 0 0 1-.251-1.264 3 3 0 0 1 .227-1.147 2.829 2.829 0 0 1 .663-.976 3.262 3.262 0 0 1 1.078-.68 3.941 3.941 0 0 1 1.463-.255 4.432 4.432 0 0 1 1.657.294 3.982 3.982 0 0 1 1.337.9z"/><path data-name="Path 749" d="M79.031.135v.729h-4.164v11.122h-.853V.864h-4.188V.135z"/><path data-name="Path 750" d="M103.633 11.986h-.863v-5.68h-7.423v5.68h-.861V.135h.861v5.529h7.423V.135h.863z"/><path data-name="Path 751" d="M127.655.135v.712h-6.241v4.79h5.194v.7h-5.194v4.939h6.241v.71h-7.1V.135z"/><path data-name="Path 752" d="M151.594.135v.729h-4.163v11.122h-.855V.864h-4.188V.135z"/><path data-name="Path 753" d="M168.221 11.986h-.863V.135h.863z"/><path data-name="Path 754" d="M194.071 9.994a.2.2 0 0 1 .143.057l.335.361a5.757 5.757 0 0 1-.8.708 5.012 5.012 0 0 1-.951.535 5.552 5.552 0 0 1-1.131.345 7.114 7.114 0 0 1-1.353.12 5.763 5.763 0 0 1-2.257-.431 5.026 5.026 0 0 1-1.759-1.222 5.651 5.651 0 0 1-1.143-1.914 7.236 7.236 0 0 1-.41-2.5 6.9 6.9 0 0 1 .422-2.463 5.575 5.575 0 0 1 1.19-1.914 5.283 5.283 0 0 1 1.835-1.239 6.116 6.116 0 0 1 2.357-.441 6.79 6.79 0 0 1 1.182.1 5.478 5.478 0 0 1 1 .278 4.777 4.777 0 0 1 .876.447 6.9 6.9 0 0 1 .8.62l-.259.378a.233.233 0 0 1-.21.1.351.351 0 0 1-.192-.088l-.3-.218a6.423 6.423 0 0 0-.435-.284 3.608 3.608 0 0 0-.608-.286 5.33 5.33 0 0 0-.812-.218 5.749 5.749 0 0 0-1.047-.088 5.159 5.159 0 0 0-1.986.373 4.445 4.445 0 0 0-1.557 1.063 4.858 4.858 0 0 0-1.018 1.676 6.329 6.329 0 0 0-.363 2.208 6.517 6.517 0 0 0 .359 2.245 4.87 4.87 0 0 0 1 1.669 4.3 4.3 0 0 0 1.5 1.047 4.81 4.81 0 0 0 1.882.365 6.983 6.983 0 0 0 1.135-.084 4.362 4.362 0 0 0 .916-.251 4.224 4.224 0 0 0 .78-.41 6.13 6.13 0 0 0 .712-.569.466.466 0 0 1 .08-.055.174.174 0 0 1 .087-.02z"/><path data-name="Path 755" d="M216.386 1.576a.239.239 0 0 1-.218.143.489.489 0 0 1-.282-.155 3.626 3.626 0 0 0-.465-.345 3.837 3.837 0 0 0-.737-.347 3.705 3.705 0 0 0-2.227.024 2.4 2.4 0 0 0-.822.5 2.11 2.11 0 0 0-.5.737 2.261 2.261 0 0 0-.173.88 1.8 1.8 0 0 0 .255 1 2.3 2.3 0 0 0 .676.669 4.267 4.267 0 0 0 .953.465q.533.19 1.094.373t1.1.406a3.938 3.938 0 0 1 .951.557 2.559 2.559 0 0 1 .676.825 2.6 2.6 0 0 1 .255 1.218 3.82 3.82 0 0 1-.255 1.4 3.251 3.251 0 0 1-.741 1.143 3.488 3.488 0 0 1-1.19.767 4.34 4.34 0 0 1-1.608.28 4.554 4.554 0 0 1-2.018-.414 4.765 4.765 0 0 1-1.484-1.135l.235-.369a.294.294 0 0 1 .235-.124.336.336 0 0 1 .194.1l.286.247c.11.1.245.2.4.318a3.333 3.333 0 0 0 .545.318 3.868 3.868 0 0 0 .712.247 3.778 3.778 0 0 0 .914.1 3.518 3.518 0 0 0 1.259-.212 2.746 2.746 0 0 0 .935-.584 2.452 2.452 0 0 0 .584-.876 2.889 2.889 0 0 0 .2-1.084 1.906 1.906 0 0 0-.255-1.035 2.206 2.206 0 0 0-.676-.678 4.325 4.325 0 0 0-.951-.457q-.533-.184-1.1-.361t-1.094-.392a3.886 3.886 0 0 1-.953-.557 2.529 2.529 0 0 1-.673-.847 2.789 2.789 0 0 1-.257-1.269 3 3 0 0 1 .227-1.147 2.829 2.829 0 0 1 .663-.976 3.262 3.262 0 0 1 1.078-.68 3.956 3.956 0 0 1 1.463-.255 4.425 4.425 0 0 1 1.657.294 3.962 3.962 0 0 1 1.337.9z"/><path data-name="Path 756" d="M5.19 23.376a2.941 2.941 0 0 1 1.063.192 2.879 2.879 0 0 1 .876.52 2.5 2.5 0 0 1 .594.757 2.084 2.084 0 0 1 .239.9 7.234 7.234 0 0 0-.208.051 1.47 1.47 0 0 1-.3.041.194.194 0 0 1-.127-.049.284.284 0 0 1-.084-.143 2.8 2.8 0 0 0-.2-.5 2.213 2.213 0 0 0-.386-.537 2.088 2.088 0 0 0-.608-.427 1.936 1.936 0 0 0-.857-.176 2.558 2.558 0 0 0-.914.155 2 2 0 0 0-.7.435 1.967 1.967 0 0 0-.457.665 2.161 2.161 0 0 0-.163.847 2.65 2.65 0 0 0 .351 1.314 6.186 6.186 0 0 0 1.09 1.349l3.73 3.689a6.086 6.086 0 0 0 .888-2.52.386.386 0 0 1 .067-.173.185.185 0 0 1 .151-.061h.461a5.443 5.443 0 0 1-.3 1.62 6.533 6.533 0 0 1-.8 1.6l2.5 2.445h-.745a.762.762 0 0 1-.247-.033.679.679 0 0 1-.222-.151l-1.719-1.691a6.735 6.735 0 0 1-.831.8 5.222 5.222 0 0 1-.98.633 5.485 5.485 0 0 1-1.127.414 5.17 5.17 0 0 1-1.261.151 3.825 3.825 0 0 1-1.239-.21 3.4 3.4 0 0 1-1.094-.614 3.136 3.136 0 0 1-.778-1 2.951 2.951 0 0 1-.3-1.345 3.094 3.094 0 0 1 .218-1.151 3.768 3.768 0 0 1 .594-1.006 4.471 4.471 0 0 1 .9-.816 5.192 5.192 0 0 1 1.122-.586 5.6 5.6 0 0 1-.892-1.3 3.15 3.15 0 0 1-.3-1.353 2.72 2.72 0 0 1 .214-1.086 2.551 2.551 0 0 1 .608-.865 2.834 2.834 0 0 1 .941-.58 3.448 3.448 0 0 1 1.232-.205zm-3.82 8.9a2.408 2.408 0 0 0 .247 1.122 2.551 2.551 0 0 0 .641.8 2.744 2.744 0 0 0 .876.482 3.018 3.018 0 0 0 .951.159 4.448 4.448 0 0 0 1.11-.135 4.547 4.547 0 0 0 .98-.373 4.395 4.395 0 0 0 .837-.565 5.314 5.314 0 0 0 .7-.72l-3.845-3.778a.781.781 0 0 1-.092-.092 4.976 4.976 0 0 0-1 .561 3.733 3.733 0 0 0-.759.725 3.15 3.15 0 0 0-.478.859 2.752 2.752 0 0 0-.169.959z"/><path data-name="Path 757" d="M41.233 23.509h.71a.292.292 0 0 1 .31.227l2.995 9.743c.033.11.061.231.088.359s.051.263.08.4c.027-.139.055-.273.084-.4a2.772 2.772 0 0 1 .1-.359l3.348-9.743a.366.366 0 0 1 .116-.159.309.309 0 0 1 .2-.067h.235a.3.3 0 0 1 .192.063.4.4 0 0 1 .116.163l3.351 9.743c.039.11.073.229.1.351s.061.255.09.394c.027-.135.053-.263.073-.39a2.829 2.829 0 0 1 .086-.355l2.99-9.743a.292.292 0 0 1 .112-.159.329.329 0 0 1 .206-.067h.653l-3.72 11.852h-.769l-3.5-10.286a4.047 4.047 0 0 1-.116-.427 4.707 4.707 0 0 1-.118.427l-3.514 10.286h-.763z"/><path data-name="Path 758" d="M79.789 23.509v.712h-6.241v4.792h5.194v.7h-5.194v4.941h6.241v.712h-7.1V23.509z"/><path data-name="Path 759" d="M96.743 34.634h5.621v.729h-6.476V23.509h.855z"/><path data-name="Path 760" d="M118.612 34.634h5.621v.729h-6.474V23.509h.853z"/><path data-name="Path 761" d="M140.231 23.54a.382.382 0 0 1 .143.129l7.674 10.27a5.098 5.098 0 0 1-.024-.486v-9.944h.753v11.853h-.41a.36.36 0 0 1-.31-.167l-7.708-10.286q.025.251.024.478v9.976h-.742V23.509h.418a.445.445 0 0 1 .182.031z"/><path data-name="Path 762" d="M172.699 23.509v.712h-6.241v4.792h5.194v.7h-5.194v4.941h6.241v.712h-7.1V23.509z"/><path data-name="Path 763" d="M194.537 24.949a.236.236 0 0 1-.218.143.477.477 0 0 1-.282-.155 3.84 3.84 0 0 0-.465-.343 3.717 3.717 0 0 0-.737-.347 3.705 3.705 0 0 0-2.227.024 2.369 2.369 0 0 0-.822.5 2.13 2.13 0 0 0-.5.737 2.269 2.269 0 0 0-.173.88 1.811 1.811 0 0 0 .255 1 2.321 2.321 0 0 0 .676.669 4.449 4.449 0 0 0 .953.465q.533.187 1.094.373t1.1.406a3.872 3.872 0 0 1 .951.557 2.559 2.559 0 0 1 .676.825 2.6 2.6 0 0 1 .255 1.218 3.8 3.8 0 0 1-.255 1.4 3.259 3.259 0 0 1-.741 1.145 3.484 3.484 0 0 1-1.19.765 4.3 4.3 0 0 1-1.608.282 4.554 4.554 0 0 1-2.018-.414 4.772 4.772 0 0 1-1.484-1.137l.235-.367a.3.3 0 0 1 .235-.127.342.342 0 0 1 .194.1c.078.065.173.149.286.247s.245.2.4.318a3.331 3.331 0 0 0 .545.318 4.026 4.026 0 0 0 .712.247 3.883 3.883 0 0 0 .914.1 3.474 3.474 0 0 0 1.259-.214 2.773 2.773 0 0 0 .935-.582 2.452 2.452 0 0 0 .584-.876 2.9 2.9 0 0 0 .2-1.084 1.9 1.9 0 0 0-.255-1.035 2.212 2.212 0 0 0-.676-.68 4.322 4.322 0 0 0-.951-.455q-.533-.187-1.1-.361a13.506 13.506 0 0 1-1.094-.394 3.761 3.761 0 0 1-.953-.557 2.541 2.541 0 0 1-.673-.845 2.8 2.8 0 0 1-.257-1.269 2.993 2.993 0 0 1 .227-1.147 2.856 2.856 0 0 1 .663-.978 3.226 3.226 0 0 1 1.078-.678 3.956 3.956 0 0 1 1.463-.255 4.466 4.466 0 0 1 1.657.292 3.968 3.968 0 0 1 1.337.9z"/><path data-name="Path 764" d="M216.589 24.949a.233.233 0 0 1-.216.143.477.477 0 0 1-.282-.155 4.055 4.055 0 0 0-.467-.343 3.641 3.641 0 0 0-.735-.347 3.705 3.705 0 0 0-2.227.024 2.378 2.378 0 0 0-.825.5 2.158 2.158 0 0 0-.5.737 2.305 2.305 0 0 0-.171.88 1.811 1.811 0 0 0 .255 1 2.321 2.321 0 0 0 .676.669 4.432 4.432 0 0 0 .951.465q.533.187 1.1.373t1.094.406a3.886 3.886 0 0 1 .953.557 2.558 2.558 0 0 1 .676.825 2.627 2.627 0 0 1 .255 1.218 3.844 3.844 0 0 1-.255 1.4 3.317 3.317 0 0 1-.741 1.145 3.484 3.484 0 0 1-1.19.765 4.306 4.306 0 0 1-1.608.282 4.554 4.554 0 0 1-2.018-.414 4.749 4.749 0 0 1-1.484-1.137l.235-.367a.3.3 0 0 1 .235-.127.332.332 0 0 1 .192.1c.08.065.173.149.286.247s.247.2.4.318a3.355 3.355 0 0 0 .547.318 3.969 3.969 0 0 0 .712.247 3.87 3.87 0 0 0 .914.1 3.474 3.474 0 0 0 1.259-.214 2.793 2.793 0 0 0 .935-.582 2.447 2.447 0 0 0 .582-.876 2.9 2.9 0 0 0 .2-1.084 1.914 1.914 0 0 0-.255-1.035 2.212 2.212 0 0 0-.676-.68 4.339 4.339 0 0 0-.953-.455q-.533-.187-1.094-.361a13.107 13.107 0 0 1-1.094-.394 3.761 3.761 0 0 1-.953-.557 2.573 2.573 0 0 1-.676-.845 2.823 2.823 0 0 1-.255-1.269 2.993 2.993 0 0 1 .227-1.147 2.856 2.856 0 0 1 .663-.978 3.226 3.226 0 0 1 1.078-.678 3.941 3.941 0 0 1 1.463-.255 4.474 4.474 0 0 1 1.657.292 3.988 3.988 0 0 1 1.337.9z"/></g><path data-name="Path 765" d="M150.228 7.247c-3.231-5.763-7.6-5.763-9.78-5.939V0h19.733l21.829 46.889L199.388 0h17.461v1.308c-3.755 0-6.725 2.1-6.725 7.684v42.091c0 6.549 3.582 9.082 7.335 9.082v1.308H193.1v-1.311c3.667 0 6.288-2.533 6.288-9.082V3.753l-22.092 58.505h-1.31l-24.45-52.917"/><path data-name="Path 766" d="M118.364 61.471h-11.525c-9.257 0-11.266-2.618-20.521-15.8-4.978-7.159-9.255-12.747-9.255-12.747L88.59 18.947c2.531-2.882 15.1-17.376.786-17.639V0h26.455v1.308c-6.11 0-11.612 1.137-30.472 25.323 15.363 20.521 21.131 28.293 21.131 28.293 4.1 5.412 10.129 5.239 11.874 5.239z"/><path data-name="Path 767" d="M30.687 52.042C26.322 34.576 19.86 32.395 14.097 32.57c9.868-.873 16.678-4.629 16.678-15.894C30.775 2.094 19.775 0 2.397 0H.627v1.308h1.769c8.906 0 16.415-.173 16.415 15.368 0 15.37-7.159 15.37-16.415 15.37H.627v1.308h3.165c1.135 0 9.6 0 12.225 9.082 5.59 18.947 3.755 18.947 17.202 19.035h7.335v-1.309a10.836 10.836 0 0 1-9.867-8.12z"/></g></svg>