<?xml version="1.0" encoding="UTF-8"?> <!-- Generator: Adobe Illustrator 22.1.0, SVG Export Plug-In . SVG Version: 6.00 Build 0) --> <svg xmlns="http://www.w3.org/2000/svg" xmlns:xlink="http://www.w3.org/1999/xlink" id="Layer_1" x="0px" y="0px" viewBox="0 0 173.9 114.11" style="enable-background:new 0 0 173.9 114.11;" xml:space="preserve"> <style type="text/css"> .st0{fill:#000000;} </style> <title>Rocking Horse Icon</title> <g> <path class="st0" d="M19.09,6.87c0.45,0,0.89,0.07,1.33,0.14c1.68,0.27,3.25,1.01,4.53,2.14c0.43,0.33,0.75,0.78,0.94,1.29 c0.17,0.59,0.01,1.22-0.4,1.67c-0.31,0.33-0.73,0.52-1.18,0.53c-0.61,0-0.65-0.51-1-1c-0.6-0.89-1.44-1.58-2.43-2 c-0.09-0.05-0.18-0.07-0.28-0.06c-0.22,0-0.3,0.33-0.29,0.56s0.15,0.71,0.21,1.07c0.08,0.34,0.03,0.7-0.15,1 c-0.21,0.26-0.52,0.41-0.85,0.43c-0.46,0.05-0.93-0.08-1.3-0.36c-0.93-0.7-1-2.16-2-2.83C15.75,9.2,15.25,9,14.73,8.87 c-0.19-0.07-0.61-0.21-0.7-0.41s0.11-0.68,0.2-0.86c0.16-0.28,0.39-0.51,0.66-0.68c0.51-0.29,1.09-0.43,1.67-0.39 c0.58,0,1.15,0.13,1.73,0.2L19.09,6.87z"></path> <path class="st0" d="M172.59,84.5c-0.46,0.16-1,1-1.4,1.35c-0.96,0.57-1.96,1.06-3,1.46c-4.47,2.2-8.99,4.29-13.58,6.26 c-2.43,1.04-4.87,2.04-7.32,3c-2.33,1.03-4.73,1.92-7.18,2.64c-1.17,0.38-2.34,0.74-3.52,1.08c-0.89,0.38-1.86,0.57-2.83,0.57 c-0.27-0.03-0.52-0.14-0.73-0.32c-0.42-0.41-0.11-1.13-0.1-1.64c0-0.82,0-1.63,0-2.45c0-1.58,0-3.16,0.07-4.74 c0.06-4,0.14-7.92,0.14-11.88c0-3.42,0.12-6.78,0.12-10.2c0-1-0.2-8.71,0.36-8.79c0.75,0,2.55,0.14,3.12-0.36 c0.32-0.36,0.58-0.76,0.78-1.2c0.1-0.19,0.24-0.37,0.39-0.52c0.26-0.15,0.54-0.27,0.83-0.35l3.58-1.5c0.49-0.2,1-0.46,1.55-0.68 c0.32-0.14,1.51-0.86,1.73-0.48c-0.53,0.6-1.23,1.08-1.8,1.67s-1.37,1.34-2.08,2l-1.36,1.23c-0.26,0.23-0.58,0.43-0.82,0.67 c-0.12,0.12-0.18,0.29-0.15,0.46c0.13,0.51,1.94,1,2.34,0.93c0.62-0.13,1-0.77,1.44-1.18c0.6-0.57,1.27-1.1,1.92-1.63 c1.71-1.43,3.49-2.89,5.09-4.47c0.93-0.91,1.81-1.87,2.74-2.79c1.09-1.08,1.84-2,3.39-2.32c1-0.21,3-1.06,2.26-2.45 c-0.38-0.55-0.98-0.92-1.64-1c-0.97-0.23-1.99-0.02-2.79,0.58c-0.4,0.41-0.86,0.75-1.38,1c-0.55,0.15-0.64-0.29-0.39-0.68 s1.18-0.86,1.65-1.2c0.74-0.52,1.52-1.18,2.25-1.71c2.81-2.18,5.45-4.57,7.89-7.16c0.68-0.63,1.54-1.05,2.46-1.2 c0.91-0.17,1.8,0.06,2.7-0.06s0.74-0.46,1-1.1c0.19-0.39,0.23-0.83,0.11-1.25c-0.54-1.83-3.49-1.6-4.92-1.38 c-0.64,0.1-1.36,0.1-0.48-0.45c1.19-0.75,2.86-1.4,3.46-2.77c0.91-2.06-1.63-2.44-3-1.76c-2.5,1.23-4.54,3.08-6.67,4.62 c-2,1.43-4,2.84-6,4.38c-1.47,1.13-2.88,2.37-4.32,3.48c-0.81,0.63-1.51,1.29-2.32,1.88c-0.75,0.75-1.58,1.42-2.48,2 c0.1-0.5,1.23-1.52,1.61-1.93s0.82-1.07,1.27-1.55c1.18-1.24,2.23-2.62,3.36-3.9c0.88-1,1.62-2.1,2.52-3.06 c1.78-1.88,3.72-3.85,5.52-5.76c0.6-0.6,1.15-1.23,1.66-1.9c0.31-0.41,0.68-0.77,1.1-1.06c0.48-0.32,1-0.32,1.48-0.6 c0.7-0.41,1.89-1,2-1.84c0.03-0.98-0.42-1.92-1.2-2.52c-1.46-1.3-4.06-0.51-5.66,0.18c-2.7,1.21-5.29,2.64-7.75,4.29 c-3.66,2.56-6.94,5.63-9.73,9.11c-0.46,0.55-1,1-1.43,1.57s-0.64,0.9-0.95,1.34c-0.69,1-1.37,1.93-2.06,2.91 c-1.2,1.71-2.26,3.52-3.5,5.2c-0.57,0.78-1.06,1.77-1.56,2.58c-0.74,1.2-1.47,2.43-2.16,3.66c-0.55,1-1.19,1.89-2.4,1.32 c-0.45-0.27-0.85-0.61-1.2-1c-1.79-1.57-4.67-2.38-7-3.24c-1.6-0.6-3.25-1.1-4.88-1.63l-4.79-1.56c-1.33-0.45-2.64-1-4-1.46 c-0.68-0.15-1.35-0.35-2-0.59c-0.56-0.3-0.48-0.58-0.53-1.19c0.05-0.53-0.05-1.07-0.3-1.55c-0.43-0.55-1.18-0.25-1.62,0.1 c-0.29,0.24-0.55,0.52-0.77,0.82c-0.41,0.58-1.07,0.91-1.78,0.9c-0.89,0.05-1.78-0.01-2.65-0.19c-0.22-0.07-0.15-0.19-0.15-0.42 c0-0.64,0-1.64-0.79-1.83c-0.26-0.04-0.52,0.03-0.73,0.19c-0.27,0.17-0.51,0.37-0.73,0.6c-0.22,0.23-0.36,0.58-0.64,0.73 c-0.59,0.13-1.21,0.13-1.8,0c-2.22-0.15-4.38-0.71-6.72-0.72c-5.18,0-10.27-0.83-15.36-0.84c-2.37,0-4.86-0.2-7.2-0.36 c-1.52-0.1-2.95,0-4.44-0.12c-0.49,0.03-0.99-0.02-1.47-0.14c-0.4-0.22-0.77-1.11-0.94-1.52c-0.42-1-0.85-2.56-0.32-3.47 c0.54-0.69,1.13-1.35,1.77-1.95c0.48-0.57,0.94-1.12,1.44-1.68c0.53-0.53,1.02-1.11,1.45-1.73c0.43-0.7,0.07-1.65,0.67-2.39 c0.77-0.79,1.6-1.52,2.47-2.19c1.18-1,2.38-2.2,1.67-3.93c-0.27-0.55-0.64-1.05-1.11-1.45c-0.52-0.27-1.31,0.22-1.79-0.19 c0-0.79,0.38-1.5,0.36-2.28c-0.03-0.53-0.21-1.04-0.52-1.47c-0.21-0.32-0.84-1.14-1.3-1c-0.1,0.04-0.2,0.1-0.28,0.18 c-1.42,1.23-2.81,2.49-4.2,3.75c-1,0.87-1.88,2.12-3.08,2.66c-0.29,0.14-0.79,0.22-0.91-0.18c-0.02-0.13-0.02-0.27,0-0.4 c0.14-1.25,0.25-2.51,0.38-3.77c0.11-1.05,0.62-2.58,0.1-3.57c-0.37-0.69-1.22-0.95-1.91-0.59c-0.48,0.23-0.8,0.82-1.34,0.91 c0-1.28-0.24-2.49-0.24-3.78c0.07-0.53-0.04-1.07-0.32-1.53c-0.37-0.4-0.9-0.61-1.45-0.57c-0.56,0.01-1.09,0.27-1.43,0.71 c-0.39,0.46-0.74,1-1.09,1.43c-0.15,0.21-0.3,0.41-0.47,0.6c0,0-0.51,0.45-0.53,0.36c-0.04-0.42-0.04-0.85,0-1.27 c-0.06-0.57-0.06-1.15,0-1.72c0.08-0.45,0.3-0.87,0.37-1.31C41.81,4.85,41.75,4.4,41.54,4c-0.19-0.24-0.47-0.4-0.78-0.43 c-0.57-0.09-1.14,0.07-1.58,0.44c-0.34,0.28-0.83,1.13-1.36,0.73c-0.28-0.31-0.42-0.73-0.36-1.14c0.04-0.48,0.04-0.97,0-1.45 c-0.01-0.68-0.21-1.34-0.58-1.9c-0.23-0.2-0.54-0.29-0.84-0.26c-0.69,0.09-1.3,0.5-1.64,1.11c-0.25,0.32-0.49,0.65-0.72,1 c-0.16,0.32-0.35,0.62-0.57,0.9C33,3.21,32.25,4.77,32.22,4.58c0-2.06-2.39-3.54-3.84-1.68c-1.24,1.38-1.32,3.46-0.19,4.93 c0.54,0.46,0.89,1.09,1,1.79c0.03,0.45,0.11,0.89,0.24,1.32c0.14,0.34,0.4,0.49,0.49,0.93c0.13,0.6-0.24,1.38,0,2s1,1.07,1.49,1.42 c1.24,0.93,2.65,1.63,3.91,2.54c2.03,1.42,3.96,2.97,5.78,4.66c1.64,1.67,3.09,3.53,4.3,5.54c1.52,2.63,2.82,5.38,3.91,8.21 c0.59,1.33,0.56,2.59,1.51,3.77c0.71,0.89,1,1.71,2.17,1.82c0.58,0.13,1.18,0.06,1.71-0.21c0.13-0.1,0.13-0.4,0.24-0.52 c0.45-0.42,0.83-0.35,1.44-0.35c1.14-0.08,2.29-0.01,3.41,0.19c0.34,0.1,0.42,0.33,0.73,0.41c0.33,0.03,0.67,0.03,1,0 c0.81,0,1.61,0,2.42,0c1.52,0,3,0.13,4.6,0.13c0,0-1.26,6.57-1.32,7.44c-0.19,2.73-0.81,5.45-0.57,8.31 c0.32,2.22,1.09,4.34,2.26,6.25c1.2,2.33,2.75,4.46,4.61,6.3c2.5,2.4,6,2.3,9.21,2.3s6.84-2.4,9.09-4.56 c1.86-1.68,3.37-3.72,4.42-6c0.91-2.14,2.3-4.12,3-6.33c0.53-1.7,0.9-3.44,1.13-5.21c0.13-0.91,0.24-1.82,0.36-2.73 c0-0.36-0.11-1.25,0.22-1.5c0.55-0.42,2.79,0.66,3.42,0.82c1.06,0.28,2.11,0.62,3.15,1s2.32,0.71,3.47,1.1 c1.39,0.47,2.82,1,4.16,1.46c2,0.74,3.79,1.65,5.8,2.62c3.42,0.98,5.92,3.91,6.36,7.44c0.71,2.56,0.51,5.39,0.72,8 c0.46,5.72,0.77,11.58,1.21,17.28c0.21,2.85,0.25,5.73,0.47,8.52c0.12,1.51,0.17,3,0.24,4.5c0,0.82,0.12,1.54,0.12,2.34 s0.09,1.09-0.53,1.51s-1.45,0.24-2.23,0.41c-0.98,0.28-1.99,0.48-3,0.6c0.36-0.71,0.22-1.58-0.35-2.14 c-0.73-0.88-1.43-1.8-2.12-2.67c-1.6-2-3.28-4-4.76-6.19c-0.8-1.18-1.65-2.32-2.5-3.47c-0.32-0.45-0.7-0.85-1.14-1.19 c-0.51-0.36-1-0.31-1.49-0.54c-1.19-0.51-1.59-1.9-2.78-2.56c-2.86-1.57-5.22-4.44-8.32-5.48c-0.64-0.21-1.41,0.07-2.1-0.12 c-1.24-0.44-2.44-0.98-3.59-1.61c-0.83-0.38-1.69-0.67-2.57-0.89c-2.8-0.72-5.66-1.21-8.54-1.46c-1.32-0.13-2.6-0.29-3.9-0.48 c-2.39-0.24-4.81-0.24-7.2,0c-8.69,0.67-17.05,2.76-23.47,9c-0.73,0.71-1.45,1.45-2.17,2.17c-1.02,0.95-1.94,2.01-2.74,3.15 c-0.59,0.92-1.19,1.81-1.76,2.74c-1.21,2-2.24,4-3.29,6.09c-0.64,1.27-0.93,2.93-1.85,4.07c0-0.26-1.45-0.55-1.71-0.62 c-0.57-0.16-1.63-0.39-1.79-1c-0.42-1.57,0.26-3.32,0.42-4.89c0.42-3.9-0.2-7.83,0.11-11.75c0.16-2.39,0.48-4.77,0.94-7.12 c0.59-3.39,0.84-6.83,0.72-10.27c0-3.94,0.2-7.94-0.13-11.86c-0.23-2.84-1-5.7-1-8.64c0.11-1,0.15-2,0.12-3 c-0.1-0.66-0.35-1.33-0.48-2c-0.47-2.2-1.09-4.36-1.86-6.47c-0.44-1.28-0.92-2.55-1.39-3.81s-0.72-3-2.39-3.31 c-0.58-0.08-1.17,0.02-1.69,0.3c-0.5,0.16-1.02,0.23-1.54,0.22c-0.79,0.22-1.52,0.62-2.12,1.18c-3.71,2.86-7.41,5.66-11.25,8.33 c-1.68,1.22-3.64,2.01-5.7,2.28c-0.85,0.16-1.73-0.08-2.38-0.65C3.98,38,4.18,36.77,4.27,35.94c0.27-2.45,1.9-5,3.06-7.18 c1.6-2.91,3.63-5.57,6-7.89c1.13-1.14,2.53-2.49,2.79-4.17c0.09-0.45,0.05-0.92-0.1-1.36c-0.08-0.21-0.2-0.4-0.36-0.56 c-0.23-0.16-0.49-0.25-0.77-0.26c-0.25-0.02-0.5-0.02-0.75,0c-0.58,0.04-1.14,0.21-1.63,0.51c-0.69,0.67-1.28,1.43-1.76,2.26 c-0.66,0.87-1.43,1.62-2.07,2.49c-0.91,1.24-1.84,2.77-2.7,4c-1.09,1.64-2.29,3.33-3.25,5.07c-1.05,1.78-1.94,3.65-2.64,5.6 c-0.34,1.28-0.48,2.6-0.41,3.92c0,1.37,0.06,2.26,1.12,3.23c1.58,1.24,3.54,1.88,5.55,1.82c2.3,0,4-1,6-2 c2.76-1.47,5.34-3.25,7.7-5.29c1.28-1,2.44-2.21,3.8-3.14c0.69-0.47,1.44-0.73,2.16-1.13s1.19-1.08,2-1.37 c2.01,3.71,3.24,7.8,3.6,12c0.28,3.26,0.82,6.49,1,9.76c0.25,3.77,0.23,7.54,0.23,11.31c0.11,3,0.12,6.07,0,9.11 c-0.13,4.68-0.44,9.21-0.7,13.77c0,1-0.64,12.93-1,12.93c-1.11,0-2.48-1-3.48-1.42c-1.31-0.59-2.59-1.25-3.82-2 c-2.46-1.49-4.73-3.29-6.74-5.35c-0.72-0.96-1.58-1.82-2.54-2.54c-0.66-0.39-1.41-0.58-2.17-0.57c-0.5,0.07-1.46,1-1.89,1.58 c-0.69,0.81-0.95,1.9-0.68,2.93c0.17,0.85,0.67,1.6,1.38,2.1c3.24,2.63,6.86,4.75,10.74,6.28c1.51,0.59,3,1.12,4.44,1.8 c1.21,0.56,2.46,1.06,3.68,1.65s0.4,1,1,1.92c0.53,0.78,1.36,1.32,2.29,1.47c1.45-0.13,0.29-1.57,1-2.19 c0.91,0.23,1.79,0.59,2.6,1.06c9.16,3.82,18.84,6.24,28.72,7.19c10.17,0.81,20.39,0.94,30.58,0.36h0.31 c5.26-0.29,10.52-1.08,15.73-1.89c4-0.64,8-1.44,12-2.26c4.94-1,9.86-2.24,14.72-3.61c4-1.11,7.77-2.57,11.62-4 c4.39-1.79,8.67-3.84,12.81-6.14c2.06-1.14,4.15-2.31,6.1-3.63c1.49-1,3.49-2.24,3.95-4.12c0.22-0.88,0.18-3.1-0.85-3.55 C172.62,84.46,172.61,84.48,172.59,84.5z M156.69,37.79c0.43-0.43,0.9-0.81,1.35-1.2c0.59-0.57,1.23-1.09,1.91-1.54 c0.83-0.52,1.73-1,2.54-1.51c0.17,0,0.1,0.3,0.12,0.48l0,0c0,1.34-2.12,2-3.18,2.62c-0.72,0.44-1.44,0.89-2.18,1.3 c-0.38,0.22-1.3,1-1.72,1C155.65,38.59,156.43,38.05,156.69,37.79L156.69,37.79z M146.03,49.05c0,0,0,0.06-0.07,0.2 c-0.12,0.15-0.26,0.29-0.41,0.41c-0.21,0.19-0.43,0.37-0.66,0.53c-0.39,0.29-0.8,0.56-1.18,0.86c-1.24,0.95-2.58,1.76-4,2.42 l-0.16,0.12c-0.09,0,0.83-0.86,0.87-0.89c0.46-0.43,0.88-0.91,1.34-1.35c0.38-0.36,0.81-0.67,1.26-0.93 c0.47-0.27,0.95-0.51,1.45-0.72l0.95-0.4C145.61,49.19,145.82,49.11,146.03,49.05z M134.77,50.24c0.33-0.77,0.78-1.49,1.31-2.13 c1.28-1.93,2.5-3.91,3.78-5.84c0.85-1.22,1.77-2.39,2.75-3.51c1-1.24,2-2.6,3.07-3.77c0.81-0.84,1.75-1.62,2.61-2.43 c0.37-0.34,0.75-0.65,1.15-1s0.76-0.64,1.16-0.9c0.26,0.82-0.34,1.52-0.74,2.19s-1,1.41-1.52,2.13c-0.62,0.9-1.2,1.77-1.82,2.61 c-1,1.33-1.88,2.78-2.89,4.07c-1.72,2.21-3.19,4.7-4.78,7c-1.18,1.74-2,2.95-4.21,2.95c-0.01-0.48,0.03-0.95,0.13-1.42V50.24z M35.18,6.81c0.02,0.51-0.03,1.02-0.13,1.52l-0.18,1.65l-0.36,3.34c-0.06,0.5-1.4-0.24-1.58-0.43c-0.52-0.58-0.06-1.68,0.15-2.3 c0.13-0.41,0.29-0.82,0.45-1.22c0.26-0.63,0.3-1.35,0.56-2c0.08-0.33,0.24-0.63,0.46-0.88c0.4-0.35,0.58-0.06,0.63,0.27L35.18,6.81 z M37.92,15.89c-0.31-0.1-0.6-0.25-0.86-0.45c-0.11-0.06-1.11-0.63-1.06-0.73c0.25-0.49,1-0.69,1.32-1.2 c0.29-0.68,0.46-1.42,0.48-2.16c0-0.07,0-0.13,0.07-0.15c0.12,0.16,0.06,0.39,0.06,0.58s0,0.58,0,0.87c0,1,0.08,2,0.1,3 c0.01,0.09-0.01,0.18-0.06,0.26c-0.02-0.02-0.02-0.04-0.02-0.07L37.92,15.89z M47.15,20c-0.08,0.55-0.19,1.09-0.32,1.64 c-0.05,0.21-0.09,0.42-0.12,0.63c0,0.14,0,0.83-0.28,0.62c-0.45-0.28-0.87-0.6-1.26-0.95c-0.68-0.6-1.38-1.17-2.05-1.77 c-0.28-0.28-0.58-0.53-0.9-0.77c-0.23-0.2-0.52-0.33-0.82-0.37c0,0,0-2.2,0-2.4c0-0.37,0-0.74,0-1.11c-0.04-0.34,0.01-0.68,0.14-1 c0.18-0.28,0.41-0.51,0.68-0.7l0.63-0.54c0.18-0.19,0.39-0.36,0.62-0.5c0.04,0.2,0.04,0.39,0,0.59c0,0.21,0,0.42,0,0.64l0.06,1.22 c0,0.4,0,0.8,0,1.2c-0.05,0.41-0.07,0.82-0.07,1.23c0.01,0.24,0.12,0.48,0.29,0.65c0.17,0.18,0.36,0.35,0.57,0.49 c0.17,0.16,0.36,0.31,0.56,0.43c0.31,0.14,0.66,0.18,1,0.11c0.18,0,0.36-0.06,0.51-0.17c0.06-0.09,0.11-0.19,0.14-0.29 c0.07-0.27,0.12-0.54,0.13-0.82c0-0.31,0-0.62,0-0.93v-0.46c0-0.12-0.06-0.35,0-0.46s0.6-0.19,0.6,0c0,0.91,0,1.82,0,2.72 c-0.02,0.34-0.05,0.68-0.11,1.02L47.15,20z M52.03,25.37c-1.65,1.37,0.09,3.87-0.67,5.66c-0.61-1.09-1.27-2.15-2-3.17 c-0.55-0.75-0.52-1.78,0.09-2.49c0.47-0.47,1-0.86,1.52-1.3c0.46-0.44,0.97-0.84,1.5-1.2l0,0c0.09,0.41,0.21,0.81,0.36,1.2 c0.12,0.7-0.28,0.81-0.8,1.25L52.03,25.37z M74.62,49.02c0.38-1.35,0.91-2.66,1.4-4c0.22-0.6,0.39-1.21,0.61-1.81 c0-0.14,0.31-1.05,0.53-1c3.94,0.39,7.94,0.71,11.76,1.2l0.21,0.05c0.14,0.27-0.78,1.59-0.91,1.84c-0.38,0.73-0.74,1.47-1.16,2.18 c-0.82,1.5-1.76,2.93-2.81,4.28c-1.7,2.07-4.16,4-7,4.1c-0.71,0.04-1.42-0.08-2.08-0.34c-0.57-0.25-0.68-1.22-0.8-1.76 c-0.24-1.13-0.27-2.3-0.08-3.44c0.08-0.46,0.19-0.91,0.33-1.35L74.62,49.02z M96.48,49.15c0.01,0.84-0.03,1.68-0.12,2.52 c-0.31,1.29-0.75,2.55-1.3,3.76c-0.78,2.16-1.72,4.25-2.82,6.26c-0.99,1.51-2.29,2.79-3.8,3.78c-1.38,1.04-2.89,1.89-4.5,2.52 c-1.46,0.46-3,0.61-4.53,0.46c-1.73-0.34-3.32-1.16-4.59-2.38c-0.78-0.92-1.37-1.98-1.75-3.12c-0.49-1-1-2-1.51-3.08 c-0.91-1.83-1.22-3.9-0.88-5.92c0.39-1.46,0.67-2.94,0.84-4.44c0-0.29,0.15-0.2,0.12,0c0,1.58,0.25,3.26,0.23,4.84 c-0.08,1.05,0.17,2.1,0.73,3c0.85,1.03,2.12,1.62,3.45,1.59c1.87-0.28,3.67-0.96,5.25-2c0.54-0.44,1.18-0.74,1.86-0.88 c0.36-0.06,1,0.06,1.32-0.12c0.61-0.55,1.14-1.17,1.58-1.86c0.97-1.26,1.82-2.59,2.55-4c1.2-2.07,2.4-4.14,3.55-6.25 c0.13,0.09,0.29,0.14,0.45,0.12c0,0,0.11,0,0,0c1.43,0.2,2.84,0.53,4.2,1c0.03,1.29-0.22,2.74-0.33,4.15L96.48,49.15z M119.95,104.65l-2.64,0.72c-2.3,0.62-4.64,1.1-7,1.43c-5.4,0.74-10.72,1.61-16.24,1.94c-2,0.13-4.08,0.36-6.1,0.36 c-2.28,0-4.78-0.09-7.08,0.12c-3.74,0.35-7.4-0.24-11-0.24c-1.54-0.04-3.08-0.2-4.6-0.48c-1.68-0.26-3.37-0.43-5-0.72 c-2.35-0.41-4.74-0.91-7.08-1.5s-4.37-1.19-6.6-1.8c-1.15-0.31-2.24-0.77-3.36-1.14c-1.11-0.53-2.28-0.93-3.48-1.2 c0.77-1.46,1.41-2.99,1.92-4.56c0.87-2.27,2.03-4.41,3.46-6.38c1.13-1.49,2.32-2.84,3.55-4.25c1.98-2.32,4.37-4.25,7.06-5.69 c1.71-0.92,3.47-1.8,5.26-2.56c1.51-0.53,3.08-0.86,4.67-1c3.34-0.49,6.71-0.72,10.08-0.7c1.13,0,2.27,0,3.4,0.13l1.7,0.13 c0.55,0.05,1.13,0.2,1.68,0.2c1.94,0.2,3.75,0.54,5.58,0.84c3.34,0.54,6.58,1.55,9.63,3c2.7,1.1,5.29,2.45,7.73,4.05 c1.15,0.86,2.44,1.93,3.64,2.77c1.11,0.92,2.12,1.97,3,3.12c1,1.09,1.95,2.17,2.9,3.3s2.07,2.19,3,3.36s1.77,2.21,2.6,3.35 c0.45,0.63,0.92,1.22,1.4,1.82c0.08,0.1,0.49,0.83,0.68,0.83C122.6,104.11,120.27,104.56,119.95,104.65z"></path> <path class="st0" d="M77.16,42.14C77.02,42.14,81.1,42.53,77.16,42.14z"></path> <path class="st0" d="M162.6,34.05L162.6,34.05C162.59,33.87,162.59,33.97,162.6,34.05z"></path> <path class="st0" d="M92.64,43.82L92.64,43.82z"></path> <path class="st0" d="M37.95,11.3c0,0.07,0,0.09,0,0.09S37.95,11.33,37.95,11.3z"></path> <path class="st0" d="M43.44,12.74L43.44,12.74z"></path> <ellipse class="st0" cx="20.96" cy="20.76" rx="2.31" ry="2.02"></ellipse> </g> </svg> 