<svg id="Layer_1" data-name="Layer 1" xmlns="http://www.w3.org/2000/svg" viewBox="0 0 350 150"><defs><style>.cls-1{fill:#243d7e;}.cls-2,.cls-3{fill:#fff;}.cls-3{fill-rule:evenodd;}</style></defs><path class="cls-1" d="M14.63,93.9H97.56l3.28-3,20.32-21.54a6.11,6.11,0,0,1-4-5.33,2.09,2.09,0,0,1,0-.25v-.39c0-.13,0-.26,0-.38l.08-.95.51-6.23.06-.75v-.11a6,6,0,0,1,1.22-3.1,7.24,7.24,0,0,1-.6-1.59,7,7,0,0,1-.18-2.2V48l.11-6.09a7,7,0,0,1,.57-2.67,6.86,6.86,0,0,1,1.55-2.25h0a7.26,7.26,0,0,1,2.28-1.47,7.11,7.11,0,0,1,2.52-.49h.26a2.77,2.77,0,0,1,.42,0l.38,0,.44.08h0a44.87,44.87,0,0,0,9.58.45,39.32,39.32,0,0,0,17.2-4.76c.72-.41,1.43-.8,2.12-1.15s1.38-.7,2.17-1.07h0c.7-.32,1.3-.6,1.82-.82l.17-.07,1-.42,12.2-12.94.75-.79a6.08,6.08,0,0,1,8.59-.26l.16.16.13.14h0l0,0,.26.31h0l.46.51,9.89,10.93A27.3,27.3,0,0,1,199,28.05a30.26,30.26,0,0,1,5.49,4.38l.16.15h0v0h0l.12.13h0l.17.19.16.21.09.11h0a7,7,0,0,1,1.13,2.21,6.9,6.9,0,0,1,.3,2.46v0h0V38a1.24,1.24,0,0,1,0,.27,7,7,0,0,1-.29,1.36l23.76,26.25h0a7.06,7.06,0,0,1,2.67-.15,6.75,6.75,0,0,1,3.79,1.75A7.87,7.87,0,0,1,238.64,71a11.12,11.12,0,0,1,.26,1.21c.07.42.12.85.15,1.25a16.79,16.79,0,0,1,0,2l0,.32,13.61,15,3.09,3h79.81a3,3,0,0,1,3,3v38.26a3,3,0,0,1-3,3H14.63a3,3,0,0,1-3.05-3V97a3,3,0,0,1,3.05-3"/><path class="cls-2" d="M30.93,109.33l.11,5.22h-.46A5.3,5.3,0,0,0,29,111.4a3.93,3.93,0,0,0-2.74-1.19,2.51,2.51,0,0,0-1.81.63,1.9,1.9,0,0,0-.67,1.44,1.75,1.75,0,0,0,.24.92,3.71,3.71,0,0,0,1,1.07,23.17,23.17,0,0,0,2.42,1.35,10.9,10.9,0,0,1,3.59,2.54A4.4,4.4,0,0,1,32,120.9a4.51,4.51,0,0,1-1.48,3.37,5.24,5.24,0,0,1-3.76,1.41,6,6,0,0,1-1.36-.15,9.92,9.92,0,0,1-1.6-.57,2.34,2.34,0,0,0-.88-.22,1.08,1.08,0,0,0-.61.23,1.66,1.66,0,0,0-.53.71h-.39v-5.9h.39a6.85,6.85,0,0,0,1.89,3.79,4.4,4.4,0,0,0,3,1.31,2.77,2.77,0,0,0,2-.71,2.16,2.16,0,0,0,.75-1.63,2.21,2.21,0,0,0-.29-1.07,3.38,3.38,0,0,0-.86-1,13.61,13.61,0,0,0-2.06-1.21,16.89,16.89,0,0,1-3-1.79,5.42,5.42,0,0,1-1.38-1.64,4.15,4.15,0,0,1-.49-2,4.33,4.33,0,0,1,1.33-3.18,4.56,4.56,0,0,1,3.35-1.32,5.25,5.25,0,0,1,1.43.19,6.73,6.73,0,0,1,1.28.51,3.09,3.09,0,0,0,1,.37.59.59,0,0,0,.46-.18,2.15,2.15,0,0,0,.31-.89Z"/><path class="cls-2" d="M42,120l-2.26-5.33L37.45,120Zm.36.85h-5.3l-.66,1.52a3.5,3.5,0,0,0-.31,1.27,1.09,1.09,0,0,0,.51,1,4.32,4.32,0,0,0,1.49.27v.41h-5v-.41a2.22,2.22,0,0,0,1.34-.7,9.28,9.28,0,0,0,1.3-2.38l5.4-12.46h.22l5.45,12.81a7.93,7.93,0,0,0,1.29,2.31,1.61,1.61,0,0,0,1.07.42v.41H41.82v-.41h.3a2.23,2.23,0,0,0,1.24-.25.66.66,0,0,0,.24-.54,1.37,1.37,0,0,0-.06-.44c0-.06-.13-.36-.34-.87Z"/><path class="cls-2" d="M55.08,109.69l7.46,9.68v-6.71a3.24,3.24,0,0,0-.4-1.92,2.1,2.1,0,0,0-1.8-.65v-.4h5v.4a4,4,0,0,0-1.29.33,1.41,1.41,0,0,0-.52.66,4.86,4.86,0,0,0-.18,1.58v13H63l-10.22-13v10a2.26,2.26,0,0,0,.59,1.84,2.16,2.16,0,0,0,1.38.47h.36v.41h-5.4v-.41a2.35,2.35,0,0,0,1.75-.53,2.56,2.56,0,0,0,.49-1.78v-11l-.31-.41a3.13,3.13,0,0,0-.85-.84,2.59,2.59,0,0,0-1.06-.22v-.4Z"/><path class="cls-2" d="M79.48,120l-2.26-5.33L74.91,120Zm.35.85H74.54l-.66,1.52a3.5,3.5,0,0,0-.31,1.27,1.09,1.09,0,0,0,.51,1,4.24,4.24,0,0,0,1.48.27v.41h-5v-.41a2.22,2.22,0,0,0,1.34-.7,9.34,9.34,0,0,0,1.29-2.38l5.41-12.46h.21l5.46,12.81a7.7,7.7,0,0,0,1.29,2.31,1.59,1.59,0,0,0,1.07.42v.41H79.28v-.41h.3a2.23,2.23,0,0,0,1.24-.25.66.66,0,0,0,.24-.54,1.72,1.72,0,0,0-.06-.44c0-.06-.13-.36-.34-.87Z"/><path class="cls-2" d="M92.53,109.69l7.46,9.68v-6.71a3.33,3.33,0,0,0-.39-1.92,2.11,2.11,0,0,0-1.8-.65v-.4h5v.4a4,4,0,0,0-1.29.33,1.4,1.4,0,0,0-.51.66,4.86,4.86,0,0,0-.18,1.58v13h-.38l-10.23-13v10a2.26,2.26,0,0,0,.6,1.84,2.14,2.14,0,0,0,1.38.47h.35v.41H87.15v-.41a2.35,2.35,0,0,0,1.75-.53,2.56,2.56,0,0,0,.49-1.78v-11l-.32-.41a3.27,3.27,0,0,0-.84-.84,2.59,2.59,0,0,0-1.06-.22v-.4Z"/><path class="cls-2" d="M117.78,109.69v4.22h-.39a6.91,6.91,0,0,0-.8-2.1,2.91,2.91,0,0,0-1.19-1,3.92,3.92,0,0,0-1.49-.2h-1.14v12.07a5,5,0,0,0,.13,1.51,1.17,1.17,0,0,0,.49.53,1.94,1.94,0,0,0,1,.22h.5v.41H107v-.41h.5a2,2,0,0,0,1-.24,1.1,1.1,0,0,0,.46-.56,5,5,0,0,0,.12-1.46V110.59H108a3.12,3.12,0,0,0-2.21.66,4.5,4.5,0,0,0-1.22,2.66h-.43v-4.22Z"/><path class="cls-2" d="M127.13,110.23a3.43,3.43,0,0,0-3.17,2.19,11.93,11.93,0,0,0-.88,5.15q0,4,1.36,5.9a3.11,3.11,0,0,0,2.67,1.34,3.18,3.18,0,0,0,1.93-.58,4.71,4.71,0,0,0,1.53-2.35,13.33,13.33,0,0,0,.55-4.22,14.5,14.5,0,0,0-.56-4.63,4.5,4.5,0,0,0-1.43-2.17,3.31,3.31,0,0,0-2-.63m-.13-.73a7.45,7.45,0,0,1,5.88,2.17,8,8,0,0,1,2.26,5.79,8.54,8.54,0,0,1-1.68,5.23,7.44,7.44,0,0,1-6.32,3,7.57,7.57,0,0,1-6.32-2.85,8.48,8.48,0,0,1-1.76-5.35,7.92,7.92,0,0,1,2.29-5.8A7.18,7.18,0,0,1,127,109.5Z"/><path class="cls-2" d="M141.64,109.69l7.46,9.68v-6.71a3.33,3.33,0,0,0-.39-1.92,2.11,2.11,0,0,0-1.8-.65v-.4h5v.4a4,4,0,0,0-1.29.33,1.34,1.34,0,0,0-.51.66,4.54,4.54,0,0,0-.19,1.58v13h-.37l-10.23-13v10a2.26,2.26,0,0,0,.6,1.84,2.13,2.13,0,0,0,1.37.47h.36v.41h-5.39v-.41a2.35,2.35,0,0,0,1.75-.53,2.61,2.61,0,0,0,.49-1.78v-11l-.32-.41a3.13,3.13,0,0,0-.85-.84,2.55,2.55,0,0,0-1.06-.22v-.4Z"/><path class="cls-2" d="M160.8,124.92v.41h-7.88v-.41h.5a2.05,2.05,0,0,0,1.06-.24,1,1,0,0,0,.44-.56,4.88,4.88,0,0,0,.13-1.46V112.35a5.37,5.37,0,0,0-.13-1.51,1.1,1.1,0,0,0-.49-.52,1.84,1.84,0,0,0-1-.23h-.5v-.4h7.88v.4h-.49a2.05,2.05,0,0,0-1.06.24,1.12,1.12,0,0,0-.45.56,5.07,5.07,0,0,0-.12,1.46v10.31a5,5,0,0,0,.13,1.51,1.17,1.17,0,0,0,.49.53,2,2,0,0,0,1,.22Z"/><path class="cls-2" d="M170.3,110.23a3.43,3.43,0,0,0-3.17,2.19,11.93,11.93,0,0,0-.88,5.15q0,4,1.36,5.9a3.11,3.11,0,0,0,2.67,1.34,3.18,3.18,0,0,0,1.93-.58,4.71,4.71,0,0,0,1.53-2.35,13.33,13.33,0,0,0,.55-4.22,14.5,14.5,0,0,0-.56-4.63,4.5,4.5,0,0,0-1.43-2.17,3.31,3.31,0,0,0-2-.63m-.13-.73a7.45,7.45,0,0,1,5.88,2.17,8,8,0,0,1,2.26,5.79,8.54,8.54,0,0,1-1.68,5.23,7.44,7.44,0,0,1-6.32,3,7.57,7.57,0,0,1-6.32-2.85,8.48,8.48,0,0,1-1.76-5.35,7.92,7.92,0,0,1,2.29-5.8A7.18,7.18,0,0,1,170.17,109.5Z"/><path class="cls-2" d="M191.06,110.59V117h.3a2.4,2.4,0,0,0,2.1-.93,5.89,5.89,0,0,0,.82-2.75h.44v8.19h-.44a6.41,6.41,0,0,0-.56-2.19,2.52,2.52,0,0,0-1-1.15,3.69,3.69,0,0,0-1.66-.29v4.39a6,6,0,0,0,.11,1.58.93.93,0,0,0,.39.47,1.88,1.88,0,0,0,.94.18h.91a5.31,5.31,0,0,0,3.4-1,5.63,5.63,0,0,0,1.83-3.08h.42l-.68,5H185.3v-.41h.5a2.05,2.05,0,0,0,1.06-.24,1,1,0,0,0,.44-.56,4.88,4.88,0,0,0,.13-1.46V112.35a8,8,0,0,0-.06-1.31,1.05,1.05,0,0,0-.41-.62,1.84,1.84,0,0,0-1.16-.33h-.5v-.4H198v4.62h-.43a5.78,5.78,0,0,0-.91-2.43,3.45,3.45,0,0,0-1.65-1.09,9,9,0,0,0-2.33-.2Z"/><path class="cls-2" d="M216.34,109.69v.4a2.21,2.21,0,0,0-1.15.45,12.36,12.36,0,0,0-1.76,2.65l-3.29,5.69v3.78a5.42,5.42,0,0,0,.12,1.51,1.17,1.17,0,0,0,.49.53,1.8,1.8,0,0,0,1,.22h.85v.41h-8.47v-.41h.78a2,2,0,0,0,1.06-.24,1.15,1.15,0,0,0,.46-.56,5,5,0,0,0,.12-1.46v-3.14l-3.57-6.72a9.84,9.84,0,0,0-1.49-2.34,1.84,1.84,0,0,0-1.17-.37v-.4h7.26v.4h-.32a1.64,1.64,0,0,0-.93.2.55.55,0,0,0-.26.42,7.2,7.2,0,0,0,.9,2.12l2.74,5.15,2.73-4.69a6.49,6.49,0,0,0,1-2.32.63.63,0,0,0-.29-.53,2.72,2.72,0,0,0-1.4-.35v-.4Z"/><path class="cls-2" d="M222.8,110.59V117h.3a2.37,2.37,0,0,0,2.1-.93,5.89,5.89,0,0,0,.83-2.75h.43v8.19H226a6.17,6.17,0,0,0-.57-2.19,2.52,2.52,0,0,0-1-1.15,3.66,3.66,0,0,0-1.66-.29v4.39a6.56,6.56,0,0,0,.11,1.58.91.91,0,0,0,.4.47,1.81,1.81,0,0,0,.93.18h.91a5.3,5.3,0,0,0,3.4-1,5.64,5.64,0,0,0,1.84-3.08h.41l-.68,5H217.05v-.41h.49a2,2,0,0,0,1.06-.24,1,1,0,0,0,.45-.56,5,5,0,0,0,.12-1.46V112.35a8,8,0,0,0-.06-1.31,1.05,1.05,0,0,0-.41-.62,1.82,1.82,0,0,0-1.16-.33h-.49v-.4h12.66v4.62h-.44a5.65,5.65,0,0,0-.91-2.43,3.37,3.37,0,0,0-1.64-1.09,9.18,9.18,0,0,0-2.34-.2Z"/><path class="cls-2" d="M252.79,109.33v5.43h-.44a5.86,5.86,0,0,0-1.82-3.27,4.54,4.54,0,0,0-3-1.14,4.35,4.35,0,0,0-2.59.84,4.91,4.91,0,0,0-1.73,2.21,10.23,10.23,0,0,0-.7,3.88,13.48,13.48,0,0,0,.51,3.82,5.16,5.16,0,0,0,1.6,2.61,4.37,4.37,0,0,0,2.83.88A5.41,5.41,0,0,0,250,124a9.18,9.18,0,0,0,2.49-2.22v1.34a8.17,8.17,0,0,1-2.64,2,7.68,7.68,0,0,1-3.22.62,8.94,8.94,0,0,1-4.29-1,6.94,6.94,0,0,1-2.9-2.88,8.3,8.3,0,0,1-1-4,8.45,8.45,0,0,1,1.13-4.24,8.14,8.14,0,0,1,3-3.11,8,8,0,0,1,4.09-1.11,8.92,8.92,0,0,1,3.36.72,5,5,0,0,0,1.3.42.83.83,0,0,0,.62-.27,1.49,1.49,0,0,0,.34-.87Z"/><path class="cls-2" d="M260.26,110.59V117h.3a2.38,2.38,0,0,0,2.1-.93,5.78,5.78,0,0,0,.82-2.75h.44v8.19h-.44a6,6,0,0,0-.56-2.19,2.52,2.52,0,0,0-1-1.15,3.66,3.66,0,0,0-1.66-.29v4.39a6.56,6.56,0,0,0,.11,1.58.93.93,0,0,0,.39.47,1.88,1.88,0,0,0,.94.18h.91a5.3,5.3,0,0,0,3.4-1,5.58,5.58,0,0,0,1.83-3.08h.42l-.68,5H254.5v-.41h.5a2.05,2.05,0,0,0,1.06-.24,1.08,1.08,0,0,0,.45-.56,5,5,0,0,0,.12-1.46V112.35a8,8,0,0,0-.06-1.31,1.05,1.05,0,0,0-.41-.62,1.84,1.84,0,0,0-1.16-.33h-.5v-.4h12.66v4.62h-.43a5.65,5.65,0,0,0-.91-2.43,3.45,3.45,0,0,0-1.65-1.09,9,9,0,0,0-2.33-.2Z"/><path class="cls-2" d="M275,109.69l7.46,9.68v-6.71a3.24,3.24,0,0,0-.4-1.92,2.08,2.08,0,0,0-1.8-.65v-.4h5v.4a4,4,0,0,0-1.29.33,1.41,1.41,0,0,0-.52.66,4.86,4.86,0,0,0-.18,1.58v13h-.38l-10.22-13v10a2.23,2.23,0,0,0,.6,1.84,2.11,2.11,0,0,0,1.37.47H275v.41h-5.4v-.41a2.35,2.35,0,0,0,1.75-.53,2.56,2.56,0,0,0,.49-1.78v-11l-.31-.41a3.13,3.13,0,0,0-.85-.84,2.55,2.55,0,0,0-1.06-.22v-.4Z"/><path class="cls-2" d="M300.21,109.69v4.22h-.39a6.94,6.94,0,0,0-.79-2.1,3,3,0,0,0-1.2-1,3.86,3.86,0,0,0-1.48-.2h-1.14v12.07a5.47,5.47,0,0,0,.12,1.51,1.14,1.14,0,0,0,.5.53,1.92,1.92,0,0,0,1,.22h.49v.41h-7.88v-.41h.5a2,2,0,0,0,1.05-.24,1.08,1.08,0,0,0,.45-.56,5,5,0,0,0,.12-1.46V110.59h-1.1a3.1,3.1,0,0,0-2.2.66,4.45,4.45,0,0,0-1.22,2.66h-.44v-4.22Z"/><path class="cls-2" d="M307.25,110.59V117h.3a2.37,2.37,0,0,0,2.09-.93,5.89,5.89,0,0,0,.83-2.75h.43v8.19h-.43a6.41,6.41,0,0,0-.56-2.19,2.48,2.48,0,0,0-1-1.15,3.64,3.64,0,0,0-1.65-.29v4.39a6.8,6.8,0,0,0,.1,1.58,1,1,0,0,0,.4.47,1.85,1.85,0,0,0,.94.18h.9a5.28,5.28,0,0,0,3.4-1,5.59,5.59,0,0,0,1.84-3.08h.42l-.69,5H301.49v-.41h.5a2.05,2.05,0,0,0,1.06-.24,1,1,0,0,0,.44-.56,5,5,0,0,0,.12-1.46V112.35a8.58,8.58,0,0,0-.05-1.31,1.1,1.1,0,0,0-.41-.62,1.86,1.86,0,0,0-1.16-.33h-.5v-.4h12.66v4.62h-.44a5.66,5.66,0,0,0-.9-2.43,3.45,3.45,0,0,0-1.65-1.09,9.13,9.13,0,0,0-2.34-.2Z"/><path class="cls-2" d="M322.35,110.56v6.82H323a7.18,7.18,0,0,0,2.33-.29,2.39,2.39,0,0,0,1.21-1.06,4,4,0,0,0,.44-2,3.7,3.7,0,0,0-.81-2.63,3.46,3.46,0,0,0-2.61-.85Zm0,7.64v4.41a5.06,5.06,0,0,0,.15,1.6,1.12,1.12,0,0,0,.53.52,3.55,3.55,0,0,0,1.42.19v.41h-7.74v-.41a3.28,3.28,0,0,0,1.42-.2,1.16,1.16,0,0,0,.53-.52,4.94,4.94,0,0,0,.15-1.59V112.4a5,5,0,0,0-.15-1.59,1.12,1.12,0,0,0-.53-.52,3.51,3.51,0,0,0-1.42-.2v-.4h7a14.84,14.84,0,0,1,4,.39,4,4,0,0,1,2.89,3.93,3.77,3.77,0,0,1-1.21,2.86,4.76,4.76,0,0,1-2.16,1.07l3.63,5.3a8.17,8.17,0,0,0,1,1.27,1.86,1.86,0,0,0,1.07.39v.43h-4.77l-4.88-7.13Z"/><path class="cls-3" d="M215.55,76.65c-.85,1.11.91,2.51.92,2.52l.05,0c1.83,1.72,9.08,1.19,11.18,1l.26,0c.82,0,1.72-1.82,2.31-3a8.22,8.22,0,0,1,.63-1.11,2.43,2.43,0,0,0,.21-1,8.7,8.7,0,0,0,0-.88c-.52.43-1.21,1.1-2.12,2-2.5,2.43-4.14,1.7-7.34.29L220,75.81c-2.93-1.21-3.25-.76-4,.31l-.39.53m-22.86,4.2A6.65,6.65,0,0,1,188.62,79a6,6,0,0,0-.65,2.22A92.8,92.8,0,0,0,187.74,96c.08.82,1,5.77,1.13,6.53.08-1.26.18-6.95.31-8.15a49.12,49.12,0,0,1,1.6-8.7,22.75,22.75,0,0,1,1.37-3.82Zm-3.36-3.92.55.79a4.72,4.72,0,0,0,3.78,1.19c.29-.06.34-.66.53-.93a12.57,12.57,0,0,0,1.52-4l.18-.69a3,3,0,0,0,.11-.53,19.15,19.15,0,0,0-3-2.45,5.21,5.21,0,0,0-.78.73,9.71,9.71,0,0,0-1.88,3.18A17.74,17.74,0,0,0,189.33,76.93Zm25.94,3.69a6,6,0,0,1-1.15-1.29,10.23,10.23,0,0,1-3.26,1,10,10,0,0,0-1.2.19c-2.11.42-4.22.84-9-3.41-1.17-1-2.17-2-3-2.83l0,.17a12.68,12.68,0,0,1-2.1,5l-.13.15-.1.3a17.44,17.44,0,0,0,3.66,2.26,11.52,11.52,0,0,1,2.17,1.3c2,1.4,4.56,3.18,8.22.82,2.64-1.7,4.66-2.85,6.05-3.6C215.3,80.64,215.28,80.63,215.27,80.62ZM181.15,69.34h-.27a35.91,35.91,0,0,1-6.15,12.78A91.46,91.46,0,0,1,162.2,95.28s2.27-1.24,7.22-5.78a60.91,60.91,0,0,0,11.89-14.78C180.27,73.13,180.77,70.54,181.15,69.34ZM181,55.45a2.46,2.46,0,0,1,2.55,2.65A2.55,2.55,0,0,1,181,60.59,2.75,2.75,0,0,1,178.42,58,2.41,2.41,0,0,1,181,55.45Zm-5.89,8.83a9.32,9.32,0,0,0,11.56,0,8.17,8.17,0,0,0,2.39-5.8,7,7,0,0,0-1.92-5.42c-1.48-1.48-4-1.74-6.25-2-2.26,0-4.31.16-5.78,1.64a8.21,8.21,0,0,0,0,11.6Zm13.57-12.17a10.08,10.08,0,0,1-.68,13.5,10.32,10.32,0,0,1-2,1.52l.71.11c.22,0,2.33-.08,2.59,0a49.65,49.65,0,0,0,7.87-1.08c1.15-.19,2.07-.35,2.74-.41a15.7,15.7,0,0,1,3.78.1c-2.28-2-5.28-4.51-6.66-5.53a15.75,15.75,0,0,1-2.27-2.39A26.09,26.09,0,0,0,188.64,52.11Zm-63,5.06-.36,4.39a285,285,0,0,1,30-.55L154,60.32l-3.87-2.14C144.27,55,129.12,56.71,125.59,57.17Zm65,38.15,55.6.4L231.31,79.3c-.76,1.33-1.79,2.71-3.22,2.81l-.25,0c-1.81.13-7.09.52-10.44-.44a79.51,79.51,0,0,0-7.12,4.15c-4.72,3-7.85.87-10.32-.85a10,10,0,0,0-1.79-1.1,18,18,0,0,1-3.77-2.26c-.18.36-.52.74-.72,1.13a33.46,33.46,0,0,0-1.78,4,48.19,48.19,0,0,0-1.28,7.84Zm-25.1-.18,20.78.15a95.27,95.27,0,0,1,0-13.63,11.79,11.79,0,0,1,.77-3.48,24.44,24.44,0,0,1-3.29-1.29A82.89,82.89,0,0,1,165.46,95.14ZM126.27,43.07l-.09,4.7c3.73.46,19.88,1.75,35-8.24,12.75-8.41,26.89-6.35,34.06-4.43a19.7,19.7,0,0,0-5.43-2.53,37.82,37.82,0,0,0-16-.75,47.87,47.87,0,0,0-16.34,5.88C144.66,45,130.28,43.64,126.27,43.07Zm42.08-12A45.47,45.47,0,0,1,173.54,30a41.37,41.37,0,0,1,13.1,0l-8.42-9.31Zm-9.09,32c-.94-.07-8.41-.63-20.86-.29l-30.1,31.9,27.8.2a13.66,13.66,0,0,1,1-9.39c1.38-2.84,8.53-8.64,14.63-4.32s3.18,12.34,0,14.26-7.32,1.93-9.83-1.14-.7-7.9,2.29-8.35,4.26,1.27,4.26,3.75-3.84,1.85-3.84,1.85c-.61.47-.37,2,.92,2.54s2.6.62,4.8-.26,3.53-5.13,2.62-7.53-2.59-4.23-6.66-4.17-8.27,5-8.4,8.59,2,6.45,5.57,8,12.32.2,17.52-5.13,15.08-15.35,17.62-24.43a39.61,39.61,0,0,1-7.55-1.39A76.48,76.48,0,0,1,159.26,63.12Zm-4.36-4.43c1.67.91,2.83,1.54,3.61,2a63,63,0,0,0,11.9,4.58c1.17.34,2.75.92,3.94,1.14-.53-.36-.17-.3-.62-.75a10.1,10.1,0,0,1,0-14.25q.35-.34.72-.66A61.71,61.71,0,0,0,164,55.3c-2.62,1.37-4.79,2.49-6.33,2.73a19.21,19.21,0,0,1-3.55.21Zm72.59,16.39L192.42,36.33c-7.29-1.57-19.28-2.42-30.18,4.77a51.61,51.61,0,0,1-7,3.86l-9.42,10A18.62,18.62,0,0,1,150,56.07l.12-.26a18.43,18.43,0,0,0,7.24.36c1.21-.18,3.26-1.25,5.75-2.54,5.13-2.67,12-6.26,18.63-5.73,7.61.6,11.78,5.58,14.45,8.78a15,15,0,0,0,1.93,2.08c2.44,1.8,8.39,7.33,8.41,7.34l.83,1.59a37.58,37.58,0,0,0-7.28-.11c-.61.06-1.51.21-2.63.4-.77.12-1.63.27-2.58.41l.24.19a9.48,9.48,0,0,0,.77.62h0c1,.75,1.9,1.43,2,2.81l.52.5c1,1,2.13,2,3.43,3.19,4.11,3.63,5.77,3.3,7.43,3a11.45,11.45,0,0,1,1.42-.22,8.23,8.23,0,0,0,2.71-.86,2.83,2.83,0,0,1,.62-2.07l.36-.5c1.39-1.91,2-2.72,6.28-1,.71.29,1.24.53,1.73.75C224.75,75.85,226,76.4,227.49,75.08ZM123.27,62.5l.51-6.23.06-.75.74-.11s10.45-1.55,18.79-.78l7.44-7.88a56.19,56.19,0,0,1-25.74,2.76.93.93,0,0,1-.78-1l.12-6.56a.94.94,0,0,1,1-.92h.15s16.59,3.24,31-5a54.67,54.67,0,0,1,7.79-3.67L177.5,18.46l.74-.79.73.81,11,12.18.34.1a22.8,22.8,0,0,1,10,6.13.94.94,0,0,1-1.13,1.46c-.28-.11-1.44-.58-3.26-1.12l33,36.47c.61-.57,1.08-1,1.45-1.27,1.32-1,2.05-.89,2.42.33a9.19,9.19,0,0,1,.18,2.52,4,4,0,0,1-.59,2l-.09.13,16.87,18.65,1.53,1.69-2.28,0-58-.41c-.17,2.25-.35,4.42-.31,6.5l.09.14a3,3,0,0,1-.44,1.54c-.43.3-1.06-1.12-1.36-1.55-1-1.47-1.57-3.59-1.94-6.66l-23.9-.17c-13,8.38-20.7,4.14-22.49,2.86A9.37,9.37,0,0,1,137,97l-31-.32h-2.31L105.25,95l30.31-32.12c-3.44.13-7.21.32-11.29.6l-1.09.08ZM183,69.72c-.32.89-1.16,3.71.41,4.84a16.66,16.66,0,0,0,4.47,1.93,11.89,11.89,0,0,1,2.91-6.7l.24-.26a6,6,0,0,0-1.3-.13,16.82,16.82,0,0,1-2.36-.16c-1.21.08-2.48.13-3.77.14C183.43,69.47,183.22,69.59,183,69.72Z"/></svg>