<?xml version="1.0" encoding="utf-8"?>
<!-- Generator: Adobe Illustrator 23.0.1, SVG Export Plug-In . SVG Version: 6.00 Build 0)  -->
<svg version="1.1" id="Layer_1" xmlns="http://www.w3.org/2000/svg" xmlns:xlink="http://www.w3.org/1999/xlink" x="0px" y="0px"
	 width="221px" height="55px" viewBox="0 0 221 55" style="enable-background:new 0 0 221 55;" xml:space="preserve">
<style type="text/css">
	.Arched_x0020_Green{fill:url(#SVGID_1_);stroke:#FFFFFF;stroke-width:0.25;stroke-miterlimit:1;}
	.st0{fill:#9FA617;}
	.st1{fill:#4F2683;}
</style>
<linearGradient id="SVGID_1_" gradientUnits="userSpaceOnUse" x1="-286.7922" y1="407.6665" x2="-286.0851" y2="406.9594">
	<stop  offset="0" style="stop-color:#20AC4B"/>
	<stop  offset="0.9831" style="stop-color:#19361A"/>
</linearGradient>
<path class="st0" d="M0,30.5v6.1h18.4V55h18.3V36.6H55v-6.2c-9.3-4.6-18.5-6.2-26.6-6.2C16,24.2,5.8,27.9,0,30.5"/>
<path class="st1" d="M18.4,0v18.4H0v11.5c9.6-5.1,31-13.4,55-3.1v-8.4H36.6V0H18.4"/>
<path class="st1" d="M64.2,23.6c0,2.7,2.4,3.9,3.9,4.7c1.8,0.9,3.1,1.8,3.1,3.5c0,1.7-1.1,2.8-2.8,2.8c-2.4,0-3.5-2.4-3.9-3.8
	L63.7,31c0.1,1.1,0.4,3.2,0.6,3.7c0.2,0.1,0.6,0.3,1.2,0.5c0.6,0.2,1.3,0.4,2.3,0.4c3.1,0,5.3-2,5.3-4.5c0-2.7-2.2-3.8-4.1-4.7
	c-1.9-1-3-1.8-3-3.5c0-1.3,0.8-2.6,2.6-2.6c2.1,0,2.7,1.6,3.1,3.1l0.7-0.1c-0.2-1.5-0.3-2.4-0.4-3.3c-0.9-0.3-1.9-0.5-3-0.5
	C66,19.4,64.2,21.4,64.2,23.6"/>
<path class="st1" d="M75.8,19.8v0.7c1.9,0.1,2.1,0.3,2.1,2.3v9.5c0,2-0.2,2.2-2.1,2.3v0.7H82v-0.7c-1.9-0.1-2.1-0.3-2.1-2.3v-9.5
	c0-2,0.2-2.2,2.1-2.3v-0.7H75.8"/>
<path class="st1" d="M85.1,19.8v0.7c1.9,0.1,2.1,0.3,2.1,2.3v9.5c0,2-0.2,2.2-2.2,2.3v0.7h10.7c0.2-0.7,0.7-3,0.9-3.7l-0.7-0.1
	c-0.4,1.1-0.8,1.8-1.2,2.3c-0.5,0.6-1.3,0.7-2.7,0.7c-1,0-1.8,0-2.3-0.3c-0.4-0.2-0.5-0.7-0.5-2v-9.3c0-2,0.2-2.1,2.1-2.3v-0.7H85.1
	"/>
<path class="st1" d="M106.1,19.8v0.7c1.9,0.2,2.1,0.4,1.6,1.8c-0.8,2.3-2.6,7-3.7,9.9h0c-1.6-4-3.3-8.6-3.9-10.3
	c-0.4-1-0.3-1.2,1.4-1.4v-0.7h-5.8v0.7c1.4,0.1,1.8,0.3,2.5,2.1c1.4,3.4,3.3,8.5,4.9,12.9h0.7c1.8-4.9,4.3-10.9,4.9-12.4
	c0.9-2.1,1.2-2.3,2.8-2.5v-0.7H106.1"/>
<path class="st1" d="M114,19.8v0.7c1.8,0.2,2,0.2,2,2.4v9.4c0,1.9-0.2,2.1-2.3,2.3v0.7h11.4c0.2-0.7,0.7-3,0.8-3.7l-0.7-0.1
	c-0.3,0.9-0.8,1.8-1.2,2.2c-0.5,0.6-1.2,0.8-3,0.8c-1.2,0-2,0-2.5-0.3c-0.4-0.3-0.6-0.8-0.6-1.9v-4.5h2.2c2.1,0,2.2,0.1,2.5,1.8h0.7
	V25h-0.7c-0.3,1.6-0.4,1.8-2.6,1.8h-2.2v-5.4c0-0.7,0-0.8,0.8-0.8h1.8c1.7,0,2.3,0.2,2.7,0.7c0.3,0.5,0.5,1,0.8,2l0.7-0.1
	c-0.1-1.2-0.2-2.8-0.2-3.4H114"/>
<path class="st1" d="M132.5,21.8c0-0.6,0.1-0.9,0.3-1c0.2-0.1,0.6-0.2,1.3-0.2c1.8,0,3.5,0.9,3.5,3.5c0,1.3-0.4,2.2-1.3,2.9
	c-0.6,0.5-1.4,0.7-2.6,0.7h-1.1V21.8 M128.5,19.8v0.7c1.8,0.2,2,0.2,2,2.2v9.5c0,2-0.2,2.2-2.2,2.3v0.7h6.2v-0.7
	c-1.9-0.1-2.1-0.3-2.1-2.3v-3.8h0.8c1.2,0,1.6,0.3,2,0.9c0.7,1.2,1.6,2.6,2.4,3.8c1.1,1.5,2.1,2.1,3.8,2.2c0.3,0,0.5,0,0.8,0
	l0.1-0.6c-0.5-0.1-1.1-0.4-1.7-1.1c-0.6-0.6-1.1-1.2-1.9-2.5c-0.7-1.1-1.7-2.7-2.1-3.4c1.8-0.8,3-2,3-4c0-1.4-0.6-2.5-1.6-3.1
	c-0.9-0.6-2.1-0.8-3.8-0.8H128.5"/>
<path class="st1" d="M148.8,27.7c0,3.8,2.6,7.8,8.5,7.8c1.7,0,3.7-0.5,4.4-0.6c0.4-0.8,1-2.5,1.3-3.6l-0.7-0.3
	c-1.2,2.4-2.5,3.7-4.9,3.7c-3.6,0-6.2-3-6.2-7.5c0-3.6,2.1-6.9,6.1-6.9c2.6,0,4,1,4.6,3.5l0.7-0.2c-0.1-1.3-0.3-2.2-0.5-3.6
	c-0.7-0.1-2.3-0.6-4.2-0.6C152.6,19.4,148.8,22.7,148.8,27.7"/>
<path class="st1" d="M169.7,21.8c0-0.6,0.1-0.9,0.3-1c0.2-0.1,0.6-0.2,1.3-0.2c1.8,0,3.5,0.9,3.5,3.5c0,1.3-0.4,2.2-1.3,2.9
	c-0.6,0.5-1.4,0.7-2.6,0.7h-1.1V21.8 M165.7,19.8v0.7c1.8,0.2,2,0.2,2,2.2v9.5c0,2-0.2,2.2-2.2,2.3v0.7h6.2v-0.7
	c-1.9-0.1-2.1-0.3-2.1-2.3v-3.8h0.8c1.2,0,1.6,0.3,2,0.9c0.7,1.2,1.6,2.6,2.4,3.8c1.1,1.5,2.1,2.1,3.8,2.2c0.3,0,0.5,0,0.8,0
	l0.1-0.6c-0.5-0.1-1.1-0.4-1.7-1.1c-0.6-0.6-1.1-1.2-1.9-2.5c-0.7-1.1-1.7-2.7-2.1-3.4c1.8-0.8,3-2,3-4c0-1.4-0.6-2.5-1.6-3.1
	c-0.9-0.6-2.1-0.8-3.8-0.8H165.7"/>
<path class="st1" d="M183.2,27c0-4.4,2.4-6.7,5-6.7h0c3.1,0,5.7,2.7,5.7,7.6c0,4.5-2.4,6.7-5,6.7C185.7,34.7,183.2,31.4,183.2,27
	 M188.8,19.4c-5,0-8,4-8,8.2c0,4.5,3.4,7.9,7.7,7.9c4.3,0,7.9-3.1,7.9-8.2C196.4,22.5,192.8,19.4,188.8,19.4L188.8,19.4"/>
<path class="st1" d="M199.7,23.6c0,2.7,2.4,3.9,3.9,4.7c1.8,0.9,3.1,1.8,3.1,3.5c0,1.7-1.1,2.8-2.8,2.8c-2.4,0-3.5-2.4-3.9-3.8
	l-0.7,0.2c0.1,1.1,0.5,3.2,0.6,3.7c0.2,0.1,0.6,0.3,1.2,0.5c0.6,0.2,1.3,0.4,2.3,0.4c3.1,0,5.3-2,5.3-4.5c0-2.7-2.2-3.8-4.1-4.7
	c-1.9-1-3-1.8-3-3.5c0-1.3,0.8-2.6,2.6-2.6c2.1,0,2.7,1.6,3.1,3.1l0.7-0.1c-0.2-1.5-0.3-2.4-0.4-3.3c-0.9-0.3-1.9-0.5-3-0.5
	C201.5,19.4,199.7,21.4,199.7,23.6"/>
<path class="st1" d="M212.1,23.6c0,2.7,2.4,3.9,3.9,4.7c1.8,0.9,3.1,1.8,3.1,3.5c0,1.7-1.1,2.8-2.8,2.8c-2.4,0-3.5-2.4-3.9-3.8
	l-0.7,0.2c0.1,1.1,0.4,3.2,0.6,3.7c0.2,0.1,0.6,0.3,1.2,0.5c0.6,0.2,1.3,0.4,2.3,0.4c3.1,0,5.3-2,5.3-4.5c0-2.7-2.2-3.8-4.1-4.7
	c-1.9-1-3-1.8-3-3.5c0-1.3,0.8-2.6,2.6-2.6c2.1,0,2.7,1.6,3.1,3.1l0.7-0.1c-0.2-1.5-0.3-2.4-0.4-3.3c-0.9-0.3-1.9-0.5-3-0.5
	C213.9,19.4,212.1,21.4,212.1,23.6"/>
<g>
	<path class="st0" d="M70,41.7h1.4v8.7H70v-2.7h-4.2v2.7h-1.4v-8.7h1.4v4.8H70V41.7z"/>
	<path class="st0" d="M80.2,46.1c0-2.6,2-4.5,4.5-4.5c2.5,0,4.5,1.9,4.5,4.5c0,2.6-2,4.5-4.5,4.5C82.2,50.6,80.2,48.7,80.2,46.1z
		 M87.8,46.1c0-1.8-1.3-3.2-3.1-3.2c-1.8,0-3.1,1.4-3.1,3.2c0,1.8,1.3,3.2,3.1,3.2C86.5,49.3,87.8,47.9,87.8,46.1z"/>
	<path class="st0" d="M99.1,48.2c0.4,0.8,1.1,1.2,2,1.2c0.9,0,1.5-0.4,1.5-1.1c0-0.8-0.6-1.1-1.4-1.4l-0.6-0.3
		c-1.3-0.6-2.2-1.2-2.2-2.6c0-1.3,1-2.3,2.4-2.3c1.1,0,1.9,0.4,2.5,1.4l-1,0.7c-0.3-0.6-0.8-0.8-1.4-0.8c-0.7,0-1.1,0.4-1.1,1
		c0,0.7,0.4,1,1.4,1.4l0.6,0.3c1.3,0.6,2.2,1.2,2.2,2.7c0,1.6-1.2,2.4-2.9,2.4c-1.5,0-2.6-0.7-3.1-1.8L99.1,48.2z"/>
	<path class="st0" d="M114.9,50.5h-1.4v-8.7h2.2c2.4,0,3.7,1.3,3.7,3.3c0,2-1.3,3.3-3.7,3.3h-0.9V50.5z M115.7,47.2
		c1.7,0,2.4-0.8,2.4-2.1c0-1.3-0.7-2.1-2.4-2.1h-0.8v4.2H115.7z"/>
	<path class="st0" d="M128.1,41.7h1.4v8.7h-1.4V41.7z"/>
	<path class="st0" d="M141.5,43H139v-1.2h6.6V43h-2.6v7.5h-1.4V43z"/>
	<path class="st0" d="M153.4,50.5h-1.4l3.8-8.9h0.1l3.8,8.9h-1.4l-0.5-1.2c0,0-3.9,0-3.9,0L153.4,50.5z M155.9,44.6l-1.4,3.4h2.9
		C157.3,48,155.9,44.6,155.9,44.6z"/>
	<path class="st0" d="M169.2,41.7h1.4v7.5h3.8v1.2h-5.2V41.7z"/>
</g>
</svg>
