<svg id="Layer_1" data-name="Layer 1" xmlns="http://www.w3.org/2000/svg" viewBox="0 0 517.08 83.77"><defs><style>.cls-1{fill:#000;}</style></defs><path class="cls-1" d="M188.13,87.9c-1.57,1.26-6.79,3.58-13.08,3.58-13.26,0-23-8.23-23-22.5s9.69-22.51,23.58-22.51a33.26,33.26,0,0,1,13.64,2.89,20.82,20.82,0,0,0-1.32,4.9l-.37.13c-1.77-2-6-5.59-11.95-5.59-9.87,0-17.42,6.22-17.42,20.18s7.55,20.18,17.42,20.18c6,0,10.37-3.39,12.76-5.22l.25.25Zm5.78-21h.69a8.87,8.87,0,0,1,7.93-4.27c5,0,6.91,3.71,6.91,7.92,0,2.45-.31,3-9.43,4.4-5.47.88-8.87,3.58-8.87,8.61,0,4.78,4.15,7.74,8.37,7.74s6.85-1.57,9.87-4.59a4.1,4.1,0,0,0,4.34,3.89,10.78,10.78,0,0,0,4-.87V88.34a2.62,2.62,0,0,1-1.32.25C214,88.59,214,86,214,83.94c0-5.28.25-9.93.25-14.65,0-5.59-4.15-9.31-10.19-9.31-3.33,0-6.35.82-10.12,3.65Zm15.28,17.36a9.11,9.11,0,0,1-7.42,4.4c-2.77,0-5.47-2-5.47-6,0-6.85,8.8-6.41,13.14-7.86Zm27.24-18.81c0-1.69,0-4.08.44-5.09a4.83,4.83,0,0,0-2-.37c-2.89,0-5.9,2.26-8.29,6.78l-.13,0a49.51,49.51,0,0,1,.32-6.11,11.45,11.45,0,0,1-2.52.32,13,13,0,0,1-2.64-.32c.25,5.41.25,9.75.25,13v2c0,7,0,12-.25,15a13,13,0,0,1,2.64-.32,11.45,11.45,0,0,1,2.52.32c-.26-2.9-.26-6.23-.26-17.16,0-4.91,2.39-8.74,6.42-8.74a4.86,4.86,0,0,1,3.08,1ZM252,60c-7.29,0-15.27,4.22-15.27,15.66s8,15.66,15.27,15.66,15.28-4.22,15.28-15.66S259.27,60,252,60m0,29.3c-7.42,0-9.74-6.6-9.74-13.64S244.56,62,252,62s9.74,6.6,9.74,13.64S259.4,89.28,252,89.28m22.44-42.81c-1.38,13.33-3.89,30.3-6.09,44.2a8.73,8.73,0,0,1,2.2-.32,8.86,8.86,0,0,1,2.2.32c.06-7.11,1.82-22.07,3-32.44h.13C281.34,69.1,287.12,79.92,292,90.35h.56c5-11.32,10.76-21.62,16.48-32.12h.12c1.32,10.75,2.2,21.18,3.08,32.44a13.8,13.8,0,0,1,5.91,0c-2-14.4-3.27-28.1-5.15-44.2h-.82c-6.16,11.63-16.16,29.74-18.67,34.64-6.42-11.76-12.33-22.82-18.05-34.64ZM334.53,60c-7.29,0-15.28,4.22-15.28,15.66s8,15.66,15.28,15.66,15.28-4.22,15.28-15.66S341.82,60,334.53,60m0,29.3c-7.42,0-9.75-6.6-9.75-13.64S327.11,62,334.53,62s9.74,6.6,9.74,13.64S342,89.28,334.53,89.28m31.75-26c4.15,0,6.85,3.39,6.85,9.55v3.84c0,4.84-.31,9.43-.44,14a12,12,0,0,1,2.58-.32,13.11,13.11,0,0,1,2.64.32c-.13-2.71-.13-5.35-.13-8.11,0-4.28.25-8,.25-11.64,0-8.67-5.4-10.94-10-10.94a11.37,11.37,0,0,0-10.07,5.67h-.12c0-1.7.07-3.34.19-5a14.28,14.28,0,0,1-2.52.32,14.44,14.44,0,0,1-2.83-.32c.38,3.59.51,8,.51,11.76v6.54c0,3.77-.13,8.17-.51,11.76a14.44,14.44,0,0,1,2.83-.32,14.27,14.27,0,0,1,2.83.32c-.38-3.59-.5-8-.5-11.76V73.56c0-6.53,2.64-10.3,8.49-10.3m17.35-8.87c.13,2.71.19,5.41.25,7-.88,0-2.26-.06-4.15-.19a9,9,0,0,1,.13,1.26,12,12,0,0,1-.13,1.45c1.63-.13,3-.13,4.27-.13-.06,9.37-.43,15-.43,19.62,0,4.9,2.51,7.86,7.73,7.86a15.59,15.59,0,0,0,4.84-1v-1.5a12,12,0,0,1-2.83.43c-5,0-5.09-4.77-5.09-9.49,0-5.47.31-15.34.44-16,1.51,0,4.46,0,6.66.13a14.55,14.55,0,0,1,0-2.64c-2.89.12-5.78.19-6.66.19.13-3.08.25-6.17.5-9.31h-.31Zm61.8,11.38c-4.4.06-8.74.19-13.14.19s-8.74-.13-13.14-.19v-2.2c0-5.41.25-10.88.5-16.28a17.39,17.39,0,0,1-3.08.31,17.57,17.57,0,0,1-3.08-.31c.25,5.4.51,10.87.51,16.28V74.38c0,5.41-.26,10.88-.51,16.29a17.61,17.61,0,0,1,3.08-.32,17.42,17.42,0,0,1,3.08.32c-.25-5.41-.5-10.88-.5-16.29V68.73c4.4-.07,8.74-.13,13.14-.13s8.74.06,13.14.13v5.65c0,5.41-.25,10.88-.51,16.29a15,15,0,0,1,6.17,0c-.25-5.41-.5-10.88-.5-16.29V63.57c0-5.41.25-10.88.5-16.28a15.51,15.51,0,0,1-6.17,0c.26,5.4.51,10.87.51,16.28ZM469.2,60c-9.25,0-14.4,6.36-14.4,16.54,0,8.37,6.22,14.78,15.27,14.78a18,18,0,0,0,10.5-3.84l.38-3.08-.31-.19a13.66,13.66,0,0,1-9.43,4.47c-7,0-10.88-5.1-10.88-11.64a15.23,15.23,0,0,1,.07-1.75c2.76-.07,5.46-.19,8.23-.19,4.47,0,8.93.12,13.46.19.06-.82.12-1.64.12-2.46,0-7-4.21-12.83-13-12.83m-8.68,12.89c.32-4.52,2.64-10.87,8.8-10.87,6.54,0,7.74,6.41,7.74,10.87-2.65.07-5.6.19-8.37.19s-5.59-.12-8.17-.19m26-6h.69a8.86,8.86,0,0,1,7.92-4.27c5,0,6.92,3.71,6.92,7.92,0,2.45-.32,3-9.43,4.4-5.47.88-8.87,3.58-8.87,8.61,0,4.78,4.15,7.74,8.36,7.74S499,89.73,502,86.71a4.11,4.11,0,0,0,4.34,3.89,10.8,10.8,0,0,0,4-.87V88.34a2.62,2.62,0,0,1-1.32.25c-2.46,0-2.46-2.58-2.46-4.65,0-5.28.26-9.93.26-14.65,0-5.59-4.15-9.31-10.19-9.31-3.33,0-6.35.82-10.12,3.65Zm15.28,17.36a9.12,9.12,0,0,1-7.42,4.4c-2.77,0-5.47-2-5.47-6,0-6.85,8.8-6.41,13.14-7.86Zm11.75-11.7c0,5.79-.12,13.9-.5,18.11a12.67,12.67,0,0,1,5.66,0c-.38-4.21-.5-12.32-.5-18.11V61.18c0-5.78.12-13.89.5-18.11a12.67,12.67,0,0,1-5.66,0c.38,4.22.5,12.33.5,18.11Zm11.89-18.17c.12,2.71.18,5.41.25,7-.88,0-2.27-.06-4.15-.19a9,9,0,0,1,.12,1.26,12,12,0,0,1-.12,1.45c1.63-.13,3-.13,4.27-.13-.06,9.37-.44,15-.44,19.62,0,4.9,2.52,7.86,7.73,7.86a15.47,15.47,0,0,0,4.84-1v-1.5a11.86,11.86,0,0,1-2.82.43c-5,0-5.1-4.77-5.1-9.49,0-5.47.32-15.34.44-16,1.51,0,4.47,0,6.67.13a12.48,12.48,0,0,1,0-2.64c-2.89.12-5.79.19-6.67.19.13-3.08.26-6.17.51-9.31h-.32Zm14.9,18.17c0,5.79-.13,13.9-.51,18.11a12.67,12.67,0,0,1,5.66,0c-.38-4.21-.5-12.32-.5-17.11,0-6.53,2.64-10.3,8.48-10.3,4.15,0,6.86,3.39,6.86,9.55v3.84c0,4.84-.32,9.43-.44,14a12,12,0,0,1,2.58-.32,13.19,13.19,0,0,1,2.64.32C565,88,565,85.32,565,82.56c0-4.28.25-8,.25-11.64,0-8.67-5.4-10.94-10.06-10.94a11.38,11.38,0,0,0-10.06,5.66H545V60.87c0-5.47.12-13.58.5-17.8a12.67,12.67,0,0,1-5.66,0c.38,4.22.51,12.33.51,18.11Zm-437-31.32C97,29,87.4,29.87,87.4,29.87H87l-.3,0h0l-.33,0h-.08l-.35,0h-.09q-.45.08-1,.21l-.12,0-.47.13-.15,0-.53.17-.11,0-.68.25-.09,0-.61.26-.2.09-.56.27-.2.11a17.25,17.25,0,0,0-1.55.91l-.21.14-.6.42-.14.1h0a26.79,26.79,0,0,0-7.91,10,1.71,1.71,0,0,0,.33,2.2,1.55,1.55,0,0,0,2.15-.27c1.14-1.13,4.91-6.35,12.25-6.35a15,15,0,0,1,10,4c.88.9,1.78,1.87,2.7,2.94h0c1.16,1.49,7.78,9.67,6.79,27.17,0,.12,0,.23,0,.35a1.87,1.87,0,0,0,0,.54.14.14,0,0,0,0,.06s0,0,0,.07l.06.08,0,0h0l.09,0c.35.07.53-.08.84-1.1,0-.12.07-.24.11-.39C106.54,71.19,110.29,54.44,103.4,41.24Zm6.67,56.87a1.56,1.56,0,0,0-2.15.28c-1.13,1.13-4.91,6.34-12.25,6.34a14.91,14.91,0,0,1-10.06-4c-.88-.89-1.77-1.85-2.68-2.92h0c-1.12-1.45-7.4-9.23-6.84-25.74,0-.59,0-1.17.06-1.78a2.17,2.17,0,0,0,0-.39c0-.2-.09-.4-.26-.44l-.13,0h0c-.17,0-.3.11-.44.43a7,7,0,0,0-.36,1.08,35.22,35.22,0,0,0-.72,3.72c-.89,6-1.67,17.77,3.48,27.61,6.4,12.25,16,11.37,16,11.37h.44l.25,0h.13l.2,0,.17,0,.24,0,.18,0,.37-.07.12,0,.48-.11.19,0,.38-.1.22-.06.44-.14.19-.06.65-.24.16-.07.53-.22.25-.11.5-.25.25-.12.68-.38.08,0,.77-.48.24-.17c.19-.12.37-.25.56-.39l.15-.11h0a26.84,26.84,0,0,0,7.91-10A1.72,1.72,0,0,0,110.07,98.11Zm-17.7-41c-.08-.23-.44-.4-1.48-.69a55,55,0,0,0-14.46-1.32,39.56,39.56,0,0,0-16.87,4.08,24.27,24.27,0,0,0-7.27,5.57c-4.57,5.27-4.1,10.43-4.1,10.43v.2a1.21,1.21,0,0,0,0,.18v0c0,.09,0,.18,0,.29v0l0,.29s0,.07,0,.11,0,.2,0,.31a.5.5,0,0,0,0,.12c0,.15.05.3.08.47h0c0,.16.07.34.12.52s0,.11,0,.17.07.26.11.4l.06.21c0,.14.09.29.14.44l.06.19c.07.21.15.42.24.64a1.19,1.19,0,0,0,.08.2,5.16,5.16,0,0,0,.21.49l.12.28.22.45.15.3.3.54.19.32.38.62.23.34.31.44.14.21v0a26.84,26.84,0,0,0,10,7.91,1.69,1.69,0,0,0,2.2-.33,1.55,1.55,0,0,0-.27-2.15c-1.13-1.13-6.35-4.91-6.35-12.25a15,15,0,0,1,4-10C62,66.18,63,65.28,64,64.37h0c1.47-1.14,9.41-7.53,26.27-6.82.42,0,.82,0,1.25.05h.2a.82.82,0,0,0,.56-.15.24.24,0,0,0,.07-.12A.45.45,0,0,0,92.37,57.06Zm39.57,11.78v0h0v-.19s0-.08,0-.14v-.07c0-.08,0-.17,0-.27v-.07c0-.08,0-.18,0-.28s0-.07,0-.11,0-.2,0-.31,0-.07,0-.11c-.05-.31-.11-.65-.2-1l0-.12c0-.15-.08-.3-.13-.46s0-.11,0-.16-.11-.36-.17-.54l0-.09c-.08-.23-.16-.46-.26-.69l0-.07c-.08-.21-.17-.42-.26-.64l-.09-.18-.28-.58-.09-.18c-.27-.51-.57-1-.92-1.56l-.14-.22-.41-.58-.11-.15h0a26.89,26.89,0,0,0-10-7.91,1.72,1.72,0,0,0-2.21.33,1.57,1.57,0,0,0,.28,2.16c1.13,1.13,6.35,4.91,6.35,12.24a14.9,14.9,0,0,1-4,10.05c-.89.88-1.86,1.78-2.92,2.7h0c-1.49,1.16-9.76,7.89-27.52,6.78a1.88,1.88,0,0,0-.51,0c-.15,0-.29.11-.32.25v0c-.07.37.13.55,1.49.93s18.13,4.14,31.33-2.76c8.21-4.29,10.52-10,11.15-13.33A10.8,10.8,0,0,0,131.94,68.84Z" transform="translate(-48.18 -29.86)"/></svg>