<?xml version="1.0" encoding="utf-8"?>
<!-- Generator: Adobe Illustrator 23.0.4, SVG Export Plug-In . SVG Version: 6.00 Build 0)  -->
<svg version="1.1" id="Layer_1" xmlns="http://www.w3.org/2000/svg" xmlns:xlink="http://www.w3.org/1999/xlink" x="0px" y="0px"
	 viewBox="0 0 612 158.2" style="enable-background:new 0 0 612 158.2;" xml:space="preserve">
<style type="text/css">
	.st0{fill:#0067B1;}
	.st1{fill:#0067B1;stroke:#0067B1;}
	.st2{fill:#0067B1;stroke:#0067B1;stroke-width:0.888;}
	.st3{fill:#0067B1;stroke:#0067B1;stroke-width:0.7441;}
	.st4{fill:#54B948;}
</style>
<path class="st0" d="M335.5,143.6h0.7c-0.1,2.1-1.2,3.2-3.1,3.2c-0.8,0-1.5-0.2-2-0.7c-0.5-0.4-0.8-1.1-1-2c-1.2,0.9-2.4,1.5-3.4,2
	c-1,0.4-1.9,0.7-2.7,0.7c-1,0-1.9-0.3-2.7-0.9c-0.7-0.6-1.1-1.4-1.1-2.3c0-1.3,0.6-2.4,1.9-3.3c1.2-0.9,3-1.9,5.2-2.8l2.9-1.2v-0.8
	c0-1.1-0.1-1.8-0.2-2.3c-0.1-0.5-0.5-0.9-1.1-1.3c-0.6-0.4-1.3-0.6-2.3-0.6c-1.9,0-2.9,0.6-3.1,1.9c-0.2,1.3-0.7,1.9-1.6,1.9
	c-0.8,0-1.1-0.4-1.1-1.1c0-0.7,0.5-1.5,1.5-2.3c1-0.8,2.6-1.2,4.7-1.2c1.6,0,2.8,0.2,3.7,0.7c0.9,0.5,1.4,1.1,1.7,1.7
	c0.3,0.6,0.4,1.6,0.4,2.9v6.1c0,1.4,0.1,2.4,0.2,2.8c0.1,0.4,0.5,0.6,1,0.6C334.8,145.4,335.3,144.8,335.5,143.6z M330.1,137.1
	l-2,0.8c-3.2,1.3-4.8,2.9-4.8,4.9c0,0.8,0.2,1.4,0.6,1.9c0.4,0.5,0.9,0.7,1.6,0.7c0.6,0,1.3-0.2,2-0.6s1.6-0.9,2.6-1.7V137.1z"/>
<path class="st0" d="M342.9,146.9v-4.9h0.7c0.8,2.9,2.4,4.3,4.6,4.3c1,0,1.7-0.3,2.1-0.9c0.5-0.6,0.7-1.2,0.7-1.9
	c0-0.8-0.3-1.4-0.8-2c-0.5-0.5-1.5-1.1-3-1.8c-1.5-0.8-2.6-1.5-3.3-2.2c-0.7-0.7-1-1.6-1-2.7c0-1,0.4-2,1.1-2.9
	c0.7-0.9,1.7-1.4,3-1.4c1.3,0,2.4,0.5,3.3,1.6c0.2-0.2,0.4-0.6,0.7-1.4h0.7v4.7h-0.7c-0.3-1.1-0.7-2.1-1.5-2.9
	c-0.7-0.8-1.6-1.2-2.6-1.2c-0.8,0-1.4,0.2-1.8,0.7c-0.5,0.5-0.7,1-0.7,1.6c0,0.7,0.3,1.2,0.8,1.7c0.5,0.5,1.5,1.1,2.9,1.7
	c2.1,1,3.4,1.9,3.9,2.8c0.5,0.9,0.7,1.8,0.7,2.6c0,1.3-0.4,2.4-1.3,3.2c-0.9,0.8-2,1.2-3.3,1.2c-1.4,0-2.7-0.6-3.8-1.7
	c-0.3,0.4-0.6,0.9-0.8,1.6H342.9z"/>
<path class="st0" d="M360.4,146.9v-4.9h0.7c0.8,2.9,2.4,4.3,4.6,4.3c0.9,0,1.7-0.3,2.1-0.9c0.5-0.6,0.7-1.2,0.7-1.9
	c0-0.8-0.3-1.4-0.8-2c-0.5-0.5-1.5-1.1-3-1.8c-1.5-0.8-2.6-1.5-3.3-2.2c-0.7-0.7-1-1.6-1-2.7c0-1,0.4-2,1.1-2.9
	c0.7-0.9,1.7-1.4,3-1.4c1.3,0,2.4,0.5,3.3,1.6c0.2-0.2,0.4-0.6,0.7-1.4h0.7v4.7h-0.7c-0.3-1.1-0.7-2.1-1.5-2.9
	c-0.7-0.8-1.6-1.2-2.6-1.2c-0.8,0-1.4,0.2-1.8,0.7c-0.5,0.5-0.7,1-0.7,1.6c0,0.7,0.3,1.2,0.8,1.7c0.5,0.5,1.5,1.1,2.9,1.7
	c2.1,1,3.4,1.9,3.9,2.8c0.5,0.9,0.7,1.8,0.7,2.6c0,1.3-0.4,2.4-1.3,3.2c-0.9,0.8-2,1.2-3.3,1.2c-1.4,0-2.7-0.6-3.8-1.7
	c-0.3,0.4-0.6,0.9-0.8,1.6H360.4z"/>
<path class="st0" d="M377.7,138.7c0-2.3,0.8-4.3,2.3-5.8c1.6-1.6,3.5-2.3,5.8-2.3c2.3,0,4.2,0.8,5.8,2.4c1.6,1.6,2.3,3.5,2.3,5.8
	c0,2.6-0.8,4.6-2.4,6c-1.6,1.5-3.5,2.2-5.7,2.2c-2.2,0-4.2-0.7-5.7-2.2C378.5,143.2,377.7,141.2,377.7,138.7z M380.8,138.8
	c0,2.7,0.4,4.6,1.3,5.6c0.9,1.1,2.1,1.6,3.7,1.6c1.6,0,2.9-0.5,3.7-1.6c0.9-1.1,1.3-3,1.3-5.6c0-2.7-0.4-4.6-1.3-5.7
	c-0.9-1.1-2.1-1.7-3.7-1.7c-1.6,0-2.9,0.6-3.7,1.7C381.2,134.2,380.8,136.2,380.8,138.8z"/>
<path class="st0" d="M414.7,142.6h0.8c-0.8,2.9-2.9,4.3-6.3,4.3c-2.2,0-4-0.7-5.5-2.2c-1.5-1.5-2.2-3.4-2.2-5.8c0-2.5,0.8-4.5,2.4-6
	c1.6-1.5,3.5-2.3,5.7-2.3c1.3,0,2.5,0.3,3.6,0.9c1.1,0.6,1.7,1.3,1.7,2.1c0,0.3-0.1,0.6-0.3,0.9c-0.2,0.3-0.5,0.4-0.9,0.4
	c-0.8,0-1.3-0.5-1.5-1.4c-0.1-0.7-0.4-1.2-0.7-1.5c-0.3-0.3-0.9-0.4-1.9-0.4c-1.7,0-2.9,0.6-3.7,1.7c-0.8,1.2-1.3,2.9-1.3,5.2
	c0,2.4,0.4,4.3,1.3,5.6c0.9,1.4,2.3,2,4.1,2C412.5,146,414,144.9,414.7,142.6z"/>
<path class="st0" d="M427.3,130.6v10.6c0,1.6,0,2.6,0.1,3.1c0,0.4,0.2,0.7,0.5,1c0.3,0.2,0.9,0.3,1.7,0.3h0.4v0.8h-8.3v-0.8h0.6
	c0.9,0,1.5-0.1,1.7-0.4c0.3-0.3,0.4-0.6,0.5-0.9c0-0.4,0.1-1.4,0.1-3.1v-4.6c0-1.8-0.1-2.9-0.3-3.3c-0.2-0.4-0.4-0.6-0.7-0.8
	c-0.3-0.1-0.8-0.1-1.5-0.1h-0.5v-0.8c2.2-0.2,3.9-0.5,5.2-1H427.3z M423.7,122.8c0-0.5,0.2-1,0.6-1.4c0.4-0.4,0.8-0.6,1.4-0.6
	c0.5,0,1,0.2,1.4,0.6c0.4,0.4,0.6,0.8,0.6,1.4c0,0.5-0.2,1-0.6,1.4c-0.4,0.4-0.8,0.6-1.4,0.6c-0.5,0-1-0.2-1.4-0.6
	C423.9,123.8,423.7,123.3,423.7,122.8z"/>
<path class="st0" d="M452.2,143.6h0.7c-0.1,2.1-1.2,3.2-3.1,3.2c-0.8,0-1.5-0.2-2-0.7c-0.5-0.4-0.8-1.1-1-2c-1.2,0.9-2.4,1.5-3.4,2
	c-1,0.4-1.9,0.7-2.7,0.7c-1,0-1.9-0.3-2.7-0.9c-0.7-0.6-1.1-1.4-1.1-2.3c0-1.3,0.6-2.4,1.9-3.3c1.2-0.9,3-1.9,5.2-2.8l2.9-1.2v-0.8
	c0-1.1-0.1-1.8-0.2-2.3c-0.1-0.5-0.5-0.9-1.1-1.3c-0.6-0.4-1.3-0.6-2.3-0.6c-1.9,0-2.9,0.6-3.1,1.9c-0.2,1.3-0.7,1.9-1.5,1.9
	c-0.8,0-1.1-0.4-1.1-1.1c0-0.7,0.5-1.5,1.5-2.3c1-0.8,2.6-1.2,4.7-1.2c1.6,0,2.8,0.2,3.7,0.7c0.9,0.5,1.4,1.1,1.7,1.7
	c0.3,0.6,0.4,1.6,0.4,2.9v6.1c0,1.4,0.1,2.4,0.2,2.8c0.1,0.4,0.5,0.6,1,0.6C451.5,145.4,452,144.8,452.2,143.6z M446.8,137.1l-2,0.8
	c-3.2,1.3-4.8,2.9-4.8,4.9c0,0.8,0.2,1.4,0.6,1.9c0.4,0.5,0.9,0.7,1.6,0.7c0.6,0,1.3-0.2,2-0.6c0.8-0.4,1.6-0.9,2.6-1.7V137.1z"/>
<path class="st0" d="M468.1,131.9h-4.6v9.2c0,1.4,0.1,2.4,0.2,2.9c0.1,0.5,0.4,0.9,0.8,1.2c0.4,0.3,0.8,0.4,1.3,0.4
	c0.9,0,1.7-0.5,2.3-1.6l0.6,0.4c-0.4,0.8-0.9,1.4-1.7,1.9c-0.7,0.4-1.5,0.6-2.3,0.6c-0.9,0-1.7-0.3-2.3-0.8
	c-0.7-0.5-1.1-1.1-1.3-1.9c-0.2-0.7-0.2-1.9-0.2-3.7v-8.6h-2.2v-0.8c1,0,1.9-0.5,2.7-1.3c0.8-0.8,1.3-2,1.5-3.5h0.6v4.7h4.6V131.9z"
	/>
<path class="st0" d="M488.8,136.2h-10.6c0,0.7-0.1,1.3-0.1,1.6c0,2.7,0.4,4.7,1.3,6c0.8,1.3,2.1,2,3.8,2c2.3,0,3.9-1,4.8-3h0.9
	c-0.4,1.3-1.2,2.2-2.4,3c-1.2,0.7-2.5,1.1-3.9,1.1c-1.3,0-2.5-0.3-3.7-1c-1.1-0.6-2.1-1.6-2.8-2.8c-0.7-1.2-1.1-2.6-1.1-4.3
	c0-2.4,0.7-4.4,2.1-6c1.4-1.6,3.2-2.4,5.3-2.4c2,0,3.6,0.6,4.6,1.8C488.1,133.6,488.7,134.9,488.8,136.2z M485.6,135.5
	c0-0.3,0.1-0.5,0.1-0.8c0-1.1-0.3-1.9-1-2.5c-0.6-0.6-1.4-0.9-2.4-0.9c-2.3,0-3.6,1.4-4.1,4.2H485.6z"/>
<path class="st0" d="M496.6,146.9v-4.9h0.7c0.9,2.9,2.4,4.3,4.6,4.3c1,0,1.7-0.3,2.1-0.9c0.5-0.6,0.7-1.2,0.7-1.9
	c0-0.8-0.3-1.4-0.8-2c-0.5-0.5-1.5-1.1-3-1.8c-1.5-0.8-2.6-1.5-3.3-2.2c-0.7-0.7-1-1.6-1-2.7c0-1,0.4-2,1.1-2.9
	c0.7-0.9,1.7-1.4,3-1.4c1.3,0,2.4,0.5,3.3,1.6c0.2-0.2,0.4-0.6,0.7-1.4h0.7v4.7h-0.7c-0.2-1.1-0.7-2.1-1.5-2.9
	c-0.7-0.8-1.6-1.2-2.6-1.2c-0.8,0-1.4,0.2-1.8,0.7c-0.5,0.5-0.7,1-0.7,1.6c0,0.7,0.3,1.2,0.8,1.7c0.5,0.5,1.5,1.1,2.9,1.7
	c2.1,1,3.4,1.9,3.9,2.8c0.5,0.9,0.7,1.8,0.7,2.6c0,1.3-0.4,2.4-1.3,3.2c-0.9,0.8-2,1.2-3.3,1.2c-1.4,0-2.7-0.6-3.8-1.7
	c-0.3,0.4-0.6,0.9-0.8,1.6H496.6z"/>
<path class="st0" d="M511,153.6v-0.9c1.3-0.4,2.3-1.1,3.1-2c0.7-1,1.1-1.9,1.1-2.9c0-0.8-0.3-1.2-0.8-1.2c-0.1,0-0.3,0-0.5,0.1
	c-0.2,0.1-0.4,0.1-0.5,0.1c-0.6,0-1-0.2-1.4-0.5c-0.4-0.3-0.6-0.8-0.6-1.3c0-0.6,0.2-1,0.5-1.4c0.4-0.4,0.8-0.6,1.4-0.6
	c0.9,0,1.6,0.4,2.2,1.2c0.6,0.8,0.8,1.8,0.8,2.8c0,1.6-0.5,3-1.4,4.1C514,152.4,512.7,153.2,511,153.6z"/>
<g>
	<path class="st1" d="M588.7,50.2c0.5,2.6-2.4,4.9-5,4.9c-2.6,0-4.7-2.1-4.7-4.7c0-2.6,2.1-4.7,4.7-4.7
		C586.3,45.7,588.1,47,588.7,50.2z"/>
	<polygon class="st1" points="582.8,54.6 570,57 570.9,58.9 581.7,58 585.9,64.9 572.8,69.7 573.6,71.7 588.3,68.5 587.9,79.9 
		590.6,79.1 593.5,66.5 591.1,55.9 600.4,47.7 599.7,45.6 588.1,53 586.4,53.7 	"/>
</g>
<g>
	<path class="st2" d="M513.2,54.9l-0.4-11.3l3.4-10.7l4.2-2.1c5.1,2.3,5.6,3,9.2,1.5l2.9,0.9l5.9,6.7l8.7,5l-0.8,2l-9.4-3.7l-6.2-6
		l-1.6,12.4l1.3,3.1l7.4,11.5l1.7,13.6c-3-0.4-4.4,0.4-4.4,0.4l-1-12.6l-8.2-8.5l-1.1,10.4l-6.6,11.9l-4.2,0.6l5.8-13.2l0.7-10.9
		l-0.3-7.5L519,37.5l-3.4,7.5l-0.1,9.7L513.2,54.9z"/>
	<path class="st3" d="M531.3,26c-0.4,2.7-2.6,4.6-5.5,4.3c-2.9-0.4-4.9-2.9-4.6-5.6c0.3-2.7,3-4.6,5.8-4.3
		C530,20.8,531.7,23.3,531.3,26z"/>
</g>
<g>
	<g>
		<polyline class="st4" points="395.4,57.2 393.3,35.5 383.3,34.3 377.6,39.9 374.6,38.1 381.6,29.9 391.7,28.6 393.7,17.7 
			377.1,18.3 376.8,15.4 394.3,12.4 401.7,13.8 407.7,17.3 411.8,39.1 409.3,39.9 404.7,24.3 399.8,33.8 398.9,56.3 395.4,57.2 		
			"/>
	</g>
	<path class="st4" d="M407.5,9.2c0,3.1-2.5,5.6-5.6,5.6c-3.1,0-5.6-2.5-5.6-5.6c0-3.1,2.5-5.6,5.6-5.6C405,3.6,407.5,6.1,407.5,9.2z
		"/>
</g>
<g>
	<path class="st0" d="M39.7,53.6c0,1.7-0.4,3.6-1.1,5.5c-0.7,1.9-1.9,3.8-3.4,5.6c-1.5,1.8-3.4,3.2-5.7,4.3
		c-2.3,1.1-4.9,1.7-7.9,1.7c-3,0-5.9-0.6-8.8-1.9c-2.9-1.3-5.4-3.2-7.4-5.7c-0.9,2-1.4,3.9-1.7,5.6H0V49.4h3.8
		c0.7,2.8,1.6,5.3,2.8,7.8c1.2,2.4,2.9,4.5,5.1,6.3c2.2,1.7,4.9,2.6,8.1,2.6c2.8,0,5-0.8,6.7-2.3c1.7-1.5,2.5-3.5,2.5-5.8
		c0-1.3-0.3-2.5-0.8-3.5c-0.5-1-1.3-1.9-2.3-2.7c-1-0.8-2.3-1.6-4.1-2.5c-1.7-0.9-3.7-1.8-5.9-2.8c-3.4-1.6-6.1-3.2-8.3-4.8
		C5.7,40,4,38.4,2.9,36.9c-1.1-1.5-1.9-3-2.3-4.4C0.2,31.2,0,29.8,0,28.4c0-2.5,0.7-5,2-7.4c1.3-2.4,3.3-4.4,5.9-6
		c2.6-1.6,5.6-2.3,9-2.3c2.6,0,5.1,0.6,7.4,1.7c2.4,1.2,4.4,2.8,6.1,4.8c0.5-1.1,0.9-2.8,1.4-4.8h3.9v15.6h-3.9
		c-2.7-8.5-7.5-12.8-14.3-12.8c-2.5,0-4.5,0.7-6,2c-1.5,1.3-2.2,3-2.2,5.1c0,1.6,0.5,3,1.4,4.2c0.9,1.2,2.2,2.2,3.7,3.1
		c1.5,0.9,4,2.1,7.4,3.7c4.1,2,7.3,3.7,9.6,5.1c2.3,1.4,4.3,3.2,5.9,5.4C38.9,47.8,39.7,50.5,39.7,53.6z"/>
	<path class="st0" d="M87.5,52.5c0,3.7-0.9,7-2.7,9.8c-1.8,2.8-4.3,4.9-7.4,6.4c-3.1,1.5-6.5,2.2-10.2,2.2c-3.5,0-6.7-0.7-9.8-2
		c-3.1-1.3-5.6-3.4-7.6-6.1c-2-2.8-2.9-6.1-2.9-10.1c0-6,2-10.5,6.1-13.6c4.1-3.1,8.9-4.6,14.5-4.6c4.2,0,7.8,0.8,10.8,2.5
		c3,1.7,5.3,3.9,6.9,6.6C86.7,46.3,87.5,49.3,87.5,52.5z M76.1,52.3c0-4.7-0.6-8.2-1.9-10.6c-1.2-2.4-3.7-3.6-7.2-3.6
		c-2.3,0-4.1,0.5-5.4,1.6c-1.3,1-2.2,2.6-2.7,4.8c-0.5,2.2-0.8,5-0.8,8.4c0,4.3,0.6,7.7,1.7,10.3c1.1,2.6,3.6,3.9,7.4,3.9
		c2.5,0,4.4-0.7,5.7-2.2c1.3-1.4,2.1-3.2,2.5-5.4C75.9,57.5,76.1,55,76.1,52.3z"/>
	<path class="st0" d="M139.4,69.2c-0.8,0.1-2.2,0.2-4.2,0.3c-2,0.1-4.2,0.3-6.6,0.6c-2.5,0.2-4.4,0.5-5.9,0.8v-6.1
		c-3.5,4.1-7.8,6.1-12.7,6.1c-3.6,0-6.3-0.8-8-2.3c-1.7-1.5-2.8-3.2-3.2-5.1c-0.4-1.9-0.6-3.8-0.6-6V45.4c0-1.6-0.1-2.8-0.3-3.6
		c-0.2-0.8-0.7-1.3-1.5-1.7s-2.2-0.6-4.1-0.6v-3.7h16.5v22.7c0,4.7,1.8,7,5.4,7c2.1,0,3.8-0.7,5.2-2.2c1.4-1.5,2.5-2.9,3.3-4.2V45.4
		c0-1.7-0.1-2.9-0.3-3.7c-0.2-0.7-0.7-1.3-1.6-1.7c-0.9-0.4-2.3-0.6-4.2-0.6v-3.7h16.7v24.8c0,1.3,0.1,2.3,0.4,2.9
		c0.2,0.6,0.8,1.1,1.7,1.5c0.9,0.3,2.2,0.5,4,0.6V69.2z"/>
	<path class="st0" d="M171.2,62.2c-1.5,3.1-3.2,5.3-5.2,6.7c-2,1.3-4.3,2-7,2c-3.2,0-5.6-0.7-7.2-2c-1.5-1.3-2.5-2.8-2.8-4.4
		c-0.4-1.6-0.5-3.5-0.5-5.5V39.5h-6.2v-3.7c2.6,0,4.9-0.5,6.8-1.5c1.9-1,3.4-2.3,4.5-4c1.1-1.7,1.8-3.5,2.1-5.4h3.4v10.9h11.7v3.7
		h-11.7v19.7c0,2.4,0.2,4.1,0.5,5.2c0.3,1.1,1.1,1.6,2.3,1.6c1.3,0,2.4-0.5,3.3-1.5c0.9-1,1.7-2.3,2.5-3.9L171.2,62.2z"/>
	<path class="st0" d="M219.7,69.5h-21.2v-3.8c1.9,0,3.2-0.3,3.9-1c0.7-0.7,1.1-1.7,1.1-3V47.9c0-1.4-0.1-2.6-0.3-3.7
		c-0.2-1.1-0.7-2.1-1.4-3c-0.8-0.9-2-1.3-3.5-1.3c-1.3,0-2.6,0.4-3.9,1.1c-1.3,0.7-2.4,1.6-3.1,2.8c-0.8,1.3-1.3,2.5-1.5,3.7
		c-0.2,1.2-0.3,2.6-0.3,4.2v7.1c0,1.9,0.1,3.3,0.2,4.2c0.2,0.9,0.6,1.6,1.3,2.1c0.7,0.5,1.9,0.8,3.5,0.8v3.8h-21.6v-3.8
		c1.8,0,3.2-0.2,4.1-0.6c0.9-0.4,1.4-1,1.6-1.7c0.2-0.8,0.3-2,0.3-3.7V25.1c0-2.1-0.3-3.4-1-4.1c-0.7-0.7-2.3-1.1-5-1.1v-3.7
		l16.6-3.5v27.8c1.6-1.7,3.3-3.1,5-4.3c1.7-1.2,4.2-1.7,7.3-1.7c1.4,0,2.9,0.2,4.3,0.6c1.4,0.4,2.7,1,3.9,1.8c1.1,0.8,2,1.7,2.5,2.7
		c1.1,2,1.7,4.6,1.7,7.9v12.4c0,2.3,0.3,3.9,0.9,4.8c0.6,0.9,2.2,1.3,4.7,1.3V69.5z"/>
	<path class="st0" d="M271,69.1c-5.8,0.2-11.1,0.9-15.9,1.8c-0.4-0.8-0.6-2.2-0.7-4.3c-3.5,2.8-7.4,4.3-11.6,4.3
		c-3.2,0-6.3-0.8-9-2.5c-2.8-1.7-5-4-6.6-6.9c-1.6-2.9-2.5-6.1-2.5-9.5c0-2.1,0.4-4.2,1.1-6.3c0.7-2.1,1.8-4,3.4-5.8
		c1.5-1.7,3.4-3.1,5.7-4.1c2.3-1,4.8-1.5,7.7-1.5c2.1,0,3.9,0.3,5.4,0.8c1.5,0.5,2.7,1.1,3.6,1.8c0.9,0.7,1.8,1.5,2.8,2.4V25.8
		c0-1.8-0.2-3.1-0.5-3.9c-0.3-0.8-0.9-1.3-1.7-1.5c-0.8-0.2-2.2-0.4-4.1-0.4v-3.8l16.9-3.5v46.3c0,2,0.1,3.4,0.3,4.1
		c0.2,0.8,0.7,1.3,1.5,1.7c0.8,0.3,2.3,0.6,4.3,0.6V69.1z M254.3,61.3V44.5c-1.2-1.4-2.5-2.7-4.1-3.9c-1.6-1.2-3.5-1.7-5.7-1.7
		c-1.4,0-2.6,0.4-3.8,1.1c-1.2,0.7-2.1,1.7-2.9,2.9c-1.2,1.9-1.8,5.1-1.8,9.7c0,4.6,0.9,8.1,2.6,10.4c1.7,2.3,3.9,3.5,6.4,3.5
		c1.8,0,3.6-0.5,5.2-1.4C251.8,64.1,253.2,62.9,254.3,61.3z"/>
	<path class="st0" d="M317.8,60.9c0,2.1-0.4,3.8-1.3,5.3c-0.8,1.5-2,2.5-3.4,3.2c-1.4,0.7-3.1,1-4.9,1c-2.3,0-4.2-0.5-5.7-1.6
		c-1.5-1.1-2.5-2.4-2.8-3.9c-4.6,3.6-9.2,5.5-13.9,5.5c-3,0-5.4-0.7-7.3-2.2c-1.9-1.4-2.8-3.3-2.8-5.7c0-2,0.5-3.7,1.5-5.3
		c1-1.6,2.5-3,4.5-4.2c2-1.2,4.3-2.3,7-3.3c2.7-1,6.1-1.9,10.2-3v-2.4c0-2-0.5-3.5-1.4-4.6c-0.9-1.1-2.6-1.7-5.1-1.7
		c-2.1,0-3.6,0.4-4.6,1.3c-0.9,0.9-1.6,2.2-1.9,4c-0.2,1.3-0.6,2.3-1.2,3.1c-0.6,0.8-1.8,1.2-3.7,1.2c-1.2,0-2.2-0.3-3.1-1
		c-0.9-0.7-1.3-1.6-1.3-2.9c0-2.6,1.4-4.8,4.2-6.7c2.8-1.9,7-2.8,12.8-2.8c6,0,10.2,1,12.5,3.1c2.3,2,3.4,4.8,3.4,8.2v13.1
		c0,1.7,0,2.9,0.1,3.6c0.1,0.8,0.3,1.4,0.7,1.8c0.4,0.4,0.9,0.6,1.7,0.6c0.7,0,1.3-0.4,1.8-1.1c0.5-0.7,0.8-1.6,0.8-2.7H317.8z
		 M299,61.2V50.9c-5.2,1.7-8.6,3.3-10,4.9c-1.4,1.6-2.1,3.2-2.1,4.7c0,1.3,0.4,2.3,1.2,3.1c0.8,0.8,1.9,1.2,3.3,1.2
		c1.5,0,2.8-0.3,4-1C296.5,63.1,297.7,62.2,299,61.2z"/>
	<path class="st0" d="M342.6,69.5h-23.7v-3.8h1.8c1.6,0,2.8-0.2,3.5-0.7c0.7-0.4,1.2-1.1,1.3-1.9c0.2-0.8,0.2-2,0.2-3.5V24.6
		c0-2-0.5-3.2-1.4-3.8c-0.9-0.5-2.7-0.8-5.5-0.8v-3.8l17.4-3.5v47.1c0,1.5,0.1,2.7,0.2,3.5c0.2,0.8,0.6,1.4,1.3,1.9
		c0.7,0.5,1.9,0.7,3.5,0.7h1.2V69.5z"/>
	<path class="st0" d="M384.4,51.3h-25.4c0,0.5,0.1,1.7,0.2,3.4c0.1,1.7,0.5,3.5,1.2,5.3c0.6,1.8,1.8,3.3,3.3,4.6
		c1.6,1.2,3.7,1.9,6.4,1.9c1.5,0,3.2-0.4,5.3-1.1c2.1-0.7,3.8-2.2,5.4-4.3l3.2,2.1c-3.2,5.2-8.4,7.8-15.5,7.8c-3.2,0-6-0.5-8.6-1.4
		c-2.6-0.9-4.8-2.2-6.6-3.8c-1.8-1.6-3.2-3.5-4.2-5.7c-1-2.2-1.4-4.6-1.4-7.1c0-3.3,0.8-6.4,2.4-9.2c1.6-2.8,3.9-5.1,6.9-6.8
		s6.4-2.5,10.3-2.5c3.8,0,6.9,0.8,9.5,2.4c2.6,1.6,4.5,3.7,5.7,6.3C383.8,45.7,384.4,48.4,384.4,51.3z M374.1,47.5
		c0-6.3-2.5-9.4-7.4-9.4c-2.4,0-4.2,0.9-5.5,2.6c-1.3,1.7-2,4-2.1,6.8H374.1z"/>
</g>
<g>
	<path class="st4" d="M308.9,96.7c0,3.4-0.8,6.5-2.4,9.4c-1.6,2.9-3.8,5.2-6.5,6.9c-2.8,1.7-5.9,2.5-9.4,2.5
		c-4.3,0-8.1-1.5-11.3-4.5v13.2c0,1.6,0.1,2.7,0.3,3.5c0.2,0.8,0.7,1.4,1.4,1.8c0.7,0.4,1.8,0.6,3.4,0.6h2.3v3.7h-23.9v-3.7
		c1.9,0,3.2-0.2,4-0.5c0.8-0.3,1.4-0.9,1.6-1.6c0.2-0.8,0.4-2,0.4-3.8V91.8c0-1.6-0.1-2.8-0.4-3.5c-0.2-0.7-0.8-1.2-1.6-1.6
		c-0.8-0.3-2.2-0.5-4.1-0.5v-3.8l16-3.5c0.3,1.1,0.5,2.8,0.6,5.2c1.8-1.8,3.7-3.1,5.6-3.9c1.9-0.8,4.2-1.2,6.7-1.2
		c2.7,0,5.2,0.5,7.4,1.5c2.2,1,4,2.3,5.4,4c1.5,1.7,2.6,3.6,3.3,5.7C308.5,92.3,308.9,94.5,308.9,96.7z M297.5,96.3
		c0-8.5-2.9-12.7-8.8-12.7c-1.9,0-3.7,0.6-5.3,1.7c-1.6,1.1-3,2.5-4.1,4.1v16.4c1.1,1.6,2.5,2.9,4.2,3.9c1.7,1,3.5,1.5,5.3,1.5
		C294.6,111,297.5,106.1,297.5,96.3z"/>
	<path class="st4" d="M352.5,95.9h-25.4c0,0.5,0.1,1.7,0.2,3.4c0.1,1.7,0.5,3.5,1.2,5.3c0.6,1.8,1.8,3.3,3.3,4.6
		c1.6,1.2,3.7,1.9,6.4,1.9c1.5,0,3.2-0.4,5.3-1.1c2.1-0.7,3.8-2.2,5.4-4.3l3.2,2.1c-3.2,5.2-8.4,7.8-15.5,7.8c-3.2,0-6-0.5-8.6-1.4
		c-2.6-0.9-4.8-2.2-6.6-3.8c-1.8-1.6-3.2-3.5-4.2-5.7c-1-2.2-1.4-4.6-1.4-7.1c0-3.3,0.8-6.4,2.4-9.2c1.6-2.8,3.9-5.1,6.9-6.8
		c3-1.7,6.4-2.5,10.3-2.5c3.8,0,6.9,0.8,9.5,2.4c2.6,1.6,4.5,3.7,5.8,6.3C351.9,90.3,352.5,93,352.5,95.9z M342.2,92.2
		c0-6.3-2.5-9.4-7.4-9.4c-2.4,0-4.2,0.9-5.5,2.6c-1.3,1.7-2,4-2.1,6.8H342.2z"/>
	<path class="st4" d="M405.2,113.7c-5.8,0.2-11.1,0.8-15.9,1.8c-0.4-0.8-0.6-2.2-0.7-4.3c-3.5,2.8-7.4,4.3-11.6,4.3
		c-3.2,0-6.3-0.8-9-2.5c-2.8-1.7-5-4-6.6-6.9c-1.6-2.9-2.5-6.1-2.5-9.5c0-2.1,0.4-4.2,1.1-6.3c0.7-2.1,1.8-4,3.4-5.8
		c1.5-1.7,3.4-3.1,5.7-4.1c2.3-1,4.8-1.5,7.7-1.5c2.1,0,3.9,0.3,5.4,0.8c1.5,0.5,2.7,1.1,3.6,1.8c0.9,0.7,1.8,1.5,2.8,2.4V70.5
		c0-1.8-0.2-3.2-0.5-3.9c-0.3-0.8-0.9-1.3-1.7-1.5c-0.8-0.2-1.4-0.3-3.3-0.4l-2.3-3.6l18.4-3.7v46.3c0,2,0.1,3.4,0.3,4.1
		c0.2,0.8,0.7,1.3,1.5,1.7c0.8,0.3,2.3,0.6,4.3,0.6V113.7z M388.5,105.9V89.1c-1.2-1.4-2.5-2.7-4.1-3.9c-1.6-1.2-3.5-1.7-5.7-1.7
		c-1.4,0-2.6,0.4-3.8,1.1c-1.2,0.7-2.1,1.7-2.9,2.9c-1.2,1.9-1.8,5.1-1.8,9.7c0,4.6,0.9,8.1,2.6,10.4c1.7,2.3,3.9,3.5,6.4,3.5
		c1.8,0,3.6-0.5,5.2-1.4C386,108.8,387.4,107.5,388.5,105.9z"/>
	<path class="st4" d="M430.6,114.2h-22.4v-3.8h1.2c1.6,0,2.8-0.2,3.5-0.7c0.7-0.4,1.2-1.1,1.3-1.9c0.2-0.8,0.2-2,0.2-3.5V92.2
		c0-1.7-0.1-2.9-0.3-3.6c-0.2-0.7-0.7-1.2-1.6-1.6c-0.9-0.3-2.3-0.5-4.3-0.5v-3.8l16.9-3.6v25.4c0,2.3,0.3,3.9,0.9,4.7
		c0.6,0.9,2.1,1.3,4.6,1.3V114.2z M426,63c0,1.7-0.6,3.1-1.7,4.2c-1.2,1.2-2.6,1.8-4.2,1.8c-1.6,0-3-0.6-4.2-1.8
		c-1.2-1.2-1.8-2.6-1.8-4.2c0-1.6,0.6-3.1,1.8-4.2c1.2-1.2,2.6-1.8,4.2-1.8c1.7,0,3.1,0.6,4.2,1.7C425.4,59.8,426,61.3,426,63z"/>
	<path class="st4" d="M478.5,105.5c0,2.1-0.4,3.8-1.3,5.3c-0.8,1.5-2,2.5-3.4,3.2c-1.4,0.7-3.1,1-4.9,1c-2.3,0-4.2-0.5-5.7-1.6
		c-1.5-1.1-2.4-2.4-2.8-3.9c-4.6,3.6-9.2,5.5-13.9,5.5c-3,0-5.4-0.7-7.3-2.2c-1.9-1.4-2.8-3.4-2.8-5.7c0-2,0.5-3.7,1.5-5.3
		c1-1.6,2.5-3,4.5-4.2c2-1.2,4.3-2.3,7-3.3c2.7-1,6.1-1.9,10.2-3v-2.4c0-2-0.5-3.5-1.4-4.6c-0.9-1.1-2.6-1.7-5.1-1.7
		c-2.1,0-3.6,0.4-4.6,1.3c-0.9,0.9-1.6,2.2-1.9,4c-0.2,1.3-0.6,2.3-1.2,3.1c-0.6,0.8-1.8,1.2-3.7,1.2c-1.2,0-2.2-0.3-3.1-1
		c-0.9-0.7-1.3-1.6-1.3-2.9c0-2.6,1.4-4.8,4.2-6.7c2.8-1.9,7-2.8,12.8-2.8c6,0,10.2,1,12.5,3.1c2.3,2,3.4,4.8,3.4,8.2v13.1
		c0,1.7,0,2.9,0.1,3.6c0.1,0.8,0.3,1.4,0.7,1.8c0.4,0.4,0.9,0.6,1.7,0.6c0.7,0,1.3-0.4,1.8-1.1c0.5-0.7,0.8-1.6,0.8-2.7H478.5z
		 M459.6,105.8V95.5c-5.2,1.7-8.6,3.3-10,4.9c-1.4,1.6-2.1,3.2-2.1,4.7c0,1.3,0.4,2.3,1.2,3.1c0.8,0.8,1.9,1.2,3.3,1.2
		c1.5,0,2.8-0.3,4-1C457.1,107.7,458.3,106.9,459.6,105.8z"/>
	<path class="st4" d="M508.5,106.8c-1.5,3.1-3.2,5.3-5.2,6.7c-2,1.3-4.3,2-7,2c-3.2,0-5.6-0.7-7.2-2c-1.5-1.3-2.5-2.8-2.8-4.4
		c-0.4-1.6-0.5-3.5-0.5-5.5V84.2h-6.2v-3.7c2.6,0,4.9-0.5,6.8-1.5c1.9-1,3.4-2.3,4.5-4c1.1-1.7,1.8-3.5,2.1-5.4h3.4v10.9h11.7v3.7
		h-11.7v19.7c0,2.4,0.2,4.1,0.5,5.2c0.3,1.1,1.1,1.6,2.3,1.6c1.3,0,2.4-0.5,3.3-1.5c0.9-1,1.7-2.3,2.5-3.9L508.5,106.8z"/>
	<path class="st4" d="M546.4,85.5c0,1.6-0.5,2.9-1.5,3.8c-1,0.9-2.1,1.4-3.4,1.4c-1.6,0-2.9-0.8-4.1-2.3c-0.6-0.7-1-1.2-1.4-1.5
		c-0.4-0.3-0.9-0.5-1.5-0.5c-2.1,0-3.8,1.2-5,3.5c-1.2,2.3-1.8,4.7-1.8,7.3v7.2c0,2.3,0.3,3.9,0.9,4.7c0.6,0.9,2.2,1.3,4.7,1.3h2.2
		v3.8h-25.5v-3.8h2.1c2.3,0,3.7-0.4,4.2-1.3c0.5-0.9,0.8-2.4,0.8-4.7V92.3c0-1.8-0.2-3.2-0.6-4c-0.4-0.8-1-1.3-2-1.6
		c-1-0.3-2.5-0.4-4.6-0.4v-3.8l16-3.5c0.4,1.4,0.8,4.4,1.1,9c0.8-1.6,1.8-3.1,3-4.5c1.3-1.3,2.7-2.4,4.2-3.3
		c1.6-0.8,3.1-1.2,4.8-1.2c2.3,0,4,0.6,5.4,1.9C545.8,82.2,546.4,83.7,546.4,85.5z"/>
	<path class="st4" d="M570.6,114.2h-22.4v-3.8h1.2c1.6,0,2.8-0.2,3.5-0.7c0.7-0.4,1.2-1.1,1.3-1.9c0.2-0.8,0.2-2,0.2-3.5V92.2
		c0-1.7-0.1-2.9-0.3-3.6c-0.2-0.7-0.7-1.2-1.6-1.6c-0.9-0.3-2.3-0.5-4.4-0.5v-3.8l16.9-3.6v25.4c0,2.3,0.3,3.9,0.9,4.7
		c0.6,0.9,2.1,1.3,4.6,1.3V114.2z M565.9,63c0,1.7-0.6,3.1-1.7,4.2c-1.2,1.2-2.6,1.8-4.2,1.8c-1.6,0-3-0.6-4.2-1.8
		c-1.2-1.2-1.8-2.6-1.8-4.2c0-1.6,0.6-3.1,1.8-4.2c1.2-1.2,2.6-1.8,4.2-1.8c1.7,0,3.1,0.6,4.2,1.7C565.3,59.8,565.9,61.3,565.9,63z"
		/>
	<path class="st4" d="M612,105.9c-3.3,6.5-8.7,9.7-16,9.7c-3.4,0-6.7-0.7-9.7-2.1c-3.1-1.4-5.5-3.4-7.4-6.1
		c-1.9-2.7-2.8-5.8-2.8-9.4c0-2.5,0.5-4.8,1.5-7.1c1-2.3,2.4-4.3,4.3-6.1c1.9-1.8,4.1-3.2,6.7-4.2c2.6-1,5.4-1.5,8.3-1.5
		c3.8,0,7.1,0.8,10,2.3c2.9,1.5,4.3,3.6,4.3,6.2c0,1.2-0.5,2.2-1.4,3.1c-0.9,0.9-1.9,1.3-3.1,1.3c-1.1,0-2-0.3-2.6-0.8
		c-0.6-0.5-1-1.1-1.2-1.6c-0.2-0.6-0.5-1.5-0.8-2.9c-0.4-1.4-0.9-2.3-1.8-2.9c-0.8-0.6-2-0.9-3.5-0.9c-2.5,0-4.7,0.9-6.7,2.8
		c-1.9,1.9-2.9,5.4-2.9,10.5c0,2.7,0.4,5.3,1.2,7.5c0.8,2.3,2,4.1,3.7,5.5c1.7,1.3,3.8,2,6.2,2c2.7,0,4.8-0.7,6.2-2
		c1.4-1.3,2.7-2.9,3.8-4.7L612,105.9z"/>
</g>
<g>
	<path class="st0" d="M533.4,142.5c0,2.7,0.1,3.1,1.4,3.2l0.9,0.1c0.3,0.2,0.2,0.8-0.1,0.9c-1.2-0.1-2.3-0.1-3.6-0.1
		c-1.3,0-2.5,0-3.6,0.1c-0.3-0.1-0.3-0.7-0.1-0.9l0.9-0.1c1.4-0.2,1.4-0.6,1.4-3.2v-16.9c0-2.2,0-2.4-1.2-3.1l-0.4-0.2
		c-0.2-0.1-0.2-0.6,0-0.7c0.9-0.3,2.7-0.9,4-1.6c0.1,0,0.3,0.1,0.4,0.2c0,1.1-0.1,3-0.1,4.6V142.5z"/>
	<path class="st0" d="M547.1,133.5c-0.6,0-0.7,0.1-0.7,0.9v7c0,2.2,0.3,4.1,2.7,4.1c0.4,0,0.7-0.1,1-0.2c0.3-0.1,0.8-0.5,0.9-0.5
		c0.3,0,0.4,0.4,0.4,0.6c-0.7,0.8-2,1.7-3.9,1.7c-3.2,0-3.9-1.8-3.9-4v-8.5c0-1,0-1.1-0.8-1.1h-1c-0.2-0.1-0.3-0.6-0.1-0.8
		c1.1-0.3,2-0.8,2.4-1.2c0.5-0.4,1.2-1.5,1.6-2.2c0.2-0.1,0.6-0.1,0.8,0.2v1.7c0,0.7,0,0.7,0.7,0.7h4.1c0.4,0.3,0.4,1.3,0,1.6H547.1
		z"/>
	<path class="st0" d="M571.4,141.2c0,2.9,0,4.3,1.1,4.3c0.4,0,1-0.2,1.6-0.4c0.3,0.1,0.3,1,0,1.2c-1.6,0.2-3.9,0.8-4.9,1.2
		c-0.2,0-0.4-0.1-0.4-0.3v-0.6c0-0.6,0-1-0.1-1.2h-0.1c-1.6,1.1-2.9,1.7-4.7,1.7c-4.1,0-6.9-3.2-6.9-7.2c0-5.2,4-8.6,9-8.6
		c1.3,0,2.1,0.2,2.5,0.3c0.2,0,0.2-0.2,0.2-0.5v-5.6c0-2.2,0-2.4-1.2-3.1l-0.4-0.2c-0.2-0.1-0.2-0.6,0-0.7c0.9-0.3,2.7-0.9,4-1.6
		c0.1,0,0.3,0.1,0.4,0.2c0,1.1-0.1,3-0.1,4.6V141.2z M568.6,135.6c0-0.7-0.1-1.1-0.4-1.5c-0.6-0.8-1.7-1.6-3.1-1.6
		c-3.4,0-5.2,2.9-5.2,6.2c0,3.4,1.9,6.6,5.6,6.6c1,0,2.3-0.4,2.9-1c0.2-0.2,0.3-0.8,0.3-1.4V135.6z"/>
	<path class="st0" d="M577.3,145.1c0-1.3,0.9-2.2,2.1-2.2c1.3,0,2.1,1,2.1,2.2c0,1.2-0.8,2.1-2.1,2.1
		C578.3,147.2,577.3,146.4,577.3,145.1z"/>
</g>
</svg>
