<?xml version="1.0" encoding="utf-8"?>
<!-- Generator: Adobe Illustrator 27.0.1, SVG Export Plug-In . SVG Version: 6.00 Build 0)  -->
<svg version="1.1" id="Layer_1" xmlns="http://www.w3.org/2000/svg" xmlns:xlink="http://www.w3.org/1999/xlink" x="0px" y="0px"
	 viewBox="0 0 325.7 107.1" style="enable-background:new 0 0 325.7 107.1;" xml:space="preserve">
<style type="text/css">
	.st0{fill:#0055B8;}
	.st1{fill:#3DAE2B;}
	.st2{fill:url(#SVGID_1_);}
	.st3{fill:url(#SVGID_00000026124928564914094330000015673611522521056422_);}
	.st4{fill:url(#SVGID_00000155104091907204626060000008677407967593953951_);}
	.st5{fill:url(#SVGID_00000105429246088942910540000003606308674799159227_);}
</style>
<g>
	<g>
		<g>
			<g>
				<g>
					<path class="st0" d="M103.6,44.6c0.6,1.1,1.4,2,2.6,2.6c1.1,0.6,2.3,0.9,3.6,0.9c0.6,0,1.2-0.1,1.8-0.3
						c0.6-0.2,1.1-0.4,1.6-0.8c0.5-0.3,0.8-0.7,1.1-1.2c0.3-0.5,0.4-1,0.4-1.6c0-1-0.3-1.7-0.9-2.2c-0.6-0.5-1.4-0.9-2.3-1.2
						c-0.9-0.3-1.9-0.5-3.1-0.7c-1.1-0.2-2.1-0.5-3.1-0.9c-0.9-0.4-1.7-1-2.3-1.7c-0.6-0.7-0.9-1.8-0.9-3.1c0-1,0.2-2,0.6-2.7
						c0.4-0.8,1-1.4,1.7-1.9c0.7-0.5,1.5-0.9,2.3-1.1c0.9-0.2,1.7-0.4,2.6-0.4c1.8,0,3.3,0.3,4.6,1c1.3,0.6,2.3,1.7,3,3.1l-2.5,1.5
						c-0.5-1-1.2-1.7-2-2.2c-0.8-0.5-1.8-0.8-3.1-0.8c-0.5,0-1,0.1-1.5,0.2c-0.5,0.2-1,0.4-1.5,0.6c-0.4,0.3-0.8,0.6-1.1,1.1
						c-0.3,0.4-0.4,0.9-0.4,1.5c0,1,0.3,1.7,0.9,2.1c0.6,0.5,1.4,0.8,2.3,1.1c0.9,0.3,1.9,0.5,3.1,0.7c1.1,0.2,2.1,0.5,3.1,0.9
						c0.9,0.4,1.7,1,2.3,1.8c0.6,0.8,0.9,1.9,0.9,3.4c0,1.1-0.2,2.1-0.6,2.9c-0.4,0.8-1,1.5-1.7,2.1c-0.7,0.6-1.5,1-2.5,1.2
						c-0.9,0.3-1.9,0.4-2.9,0.4c-1.9,0-3.5-0.4-5.1-1.1s-2.7-1.8-3.5-3.3L103.6,44.6z"/>
					<path class="st0" d="M122,39.3c0-1.6,0.3-3.1,0.8-4.5c0.6-1.4,1.3-2.6,2.3-3.6c1-1,2.2-1.8,3.6-2.3c1.4-0.6,2.9-0.8,4.5-0.8
						c1.6,0,3.1,0.3,4.5,0.8c1.4,0.6,2.6,1.3,3.6,2.3c1,1,1.8,2.2,2.3,3.6c0.6,1.4,0.8,2.9,0.8,4.5c0,1.6-0.3,3.1-0.8,4.5
						c-0.6,1.4-1.3,2.6-2.3,3.6c-1,1-2.2,1.8-3.6,2.3c-1.4,0.6-2.9,0.8-4.5,0.8c-1.6,0-3.1-0.3-4.5-0.8c-1.4-0.6-2.6-1.3-3.6-2.3
						c-1-1-1.8-2.2-2.3-3.6C122.3,42.5,122,41,122,39.3z M124.8,39.3c0,1.2,0.2,2.3,0.6,3.4c0.4,1.1,0.9,2,1.7,2.8
						c0.7,0.8,1.6,1.4,2.7,1.9c1,0.5,2.2,0.7,3.5,0.7c1.3,0,2.5-0.2,3.5-0.7c1-0.5,1.9-1.1,2.7-1.9c0.7-0.8,1.3-1.7,1.7-2.8
						c0.4-1.1,0.6-2.2,0.6-3.4c0-1.2-0.2-2.3-0.6-3.4c-0.4-1.1-0.9-2-1.7-2.8c-0.7-0.8-1.6-1.4-2.7-1.9c-1-0.5-2.2-0.7-3.5-0.7
						c-1.3,0-2.5,0.2-3.5,0.7c-1,0.5-1.9,1.1-2.7,1.9c-0.7,0.8-1.3,1.7-1.7,2.8C125,37,124.8,38.1,124.8,39.3z"/>
					<path class="st0" d="M168.8,44c0,0.4,0,0.9,0,1.5c0,0.6,0.1,1.1,0.1,1.7s0,1.1,0.1,1.6c0,0.5,0,0.9,0,1.2h-2.8
						c0-0.8-0.1-1.6-0.1-2.3c0-0.7-0.1-1.2-0.1-1.4h-0.1c-0.6,1.2-1.5,2.2-2.8,3c-1.3,0.8-2.8,1.3-4.5,1.3c-1.7,0-3-0.3-4.1-0.8
						c-1.1-0.5-1.9-1.2-2.5-2.1c-0.6-0.8-1-1.8-1.2-2.9c-0.2-1.1-0.3-2.3-0.3-3.4V28.6h2.8v12.6c0,0.9,0.1,1.7,0.2,2.5
						c0.2,0.8,0.4,1.5,0.8,2.2c0.4,0.6,0.9,1.2,1.6,1.5c0.7,0.4,1.6,0.6,2.7,0.6c1,0,2-0.2,2.9-0.5c0.9-0.4,1.7-0.9,2.4-1.6
						c0.7-0.7,1.2-1.6,1.6-2.7c0.4-1.1,0.6-2.4,0.6-3.9V28.6h2.8V44z"/>
					<path class="st0" d="M186.9,31.1h-6.1v13.9c0,1,0.3,1.7,0.8,2.2c0.5,0.5,1.2,0.8,2.2,0.8c0.5,0,1.1-0.1,1.6-0.2
						c0.5-0.1,1.1-0.3,1.5-0.5l0.2,2.5c-0.5,0.2-1.1,0.4-1.8,0.5c-0.7,0.2-1.3,0.2-1.8,0.2c-1,0-1.8-0.1-2.5-0.4
						c-0.7-0.3-1.3-0.7-1.7-1.2c-0.4-0.5-0.7-1.1-0.9-1.7c-0.2-0.7-0.3-1.4-0.3-2.2V31.1h-4.6v-2.5h4.6v-6.2h2.8v6.2h6.1V31.1z"/>
					<path class="st0" d="M191.9,16.9h2.8v15.5h0.1c0.6-1.2,1.5-2.2,2.8-3c1.3-0.8,2.8-1.3,4.5-1.3c1.7,0,3,0.3,4.1,0.8
						c1,0.5,1.9,1.2,2.5,2.1c0.6,0.8,1,1.8,1.2,2.9c0.2,1.1,0.3,2.3,0.3,3.4V50h-2.8V37.4c0-0.9-0.1-1.7-0.2-2.5
						c-0.2-0.8-0.4-1.5-0.8-2.2c-0.4-0.6-0.9-1.2-1.6-1.5s-1.6-0.6-2.7-0.6c-1,0-2,0.2-2.9,0.5c-0.9,0.4-1.7,0.9-2.4,1.6
						c-0.7,0.7-1.2,1.6-1.6,2.7c-0.4,1.1-0.6,2.4-0.6,3.9V50h-2.8V16.9z"/>
					<path class="st0" d="M236.5,46c-1.1,1.6-2.4,2.8-4,3.5c-1.6,0.7-3.3,1.1-5.3,1.1c-1.6,0-3.1-0.3-4.4-0.8
						c-1.3-0.6-2.5-1.3-3.4-2.3c-1-1-1.7-2.2-2.2-3.6c-0.5-1.4-0.8-2.9-0.8-4.6c0-1.6,0.3-3.1,0.8-4.4c0.5-1.4,1.3-2.5,2.2-3.5
						c1-1,2.1-1.8,3.4-2.4c1.3-0.6,2.7-0.9,4.3-0.9c1.6,0,3.1,0.3,4.3,0.9c1.2,0.6,2.3,1.3,3.1,2.3c0.8,0.9,1.5,2,1.9,3.2
						c0.4,1.2,0.6,2.4,0.6,3.7V40h-18c0,0.6,0.1,1.3,0.3,2.2c0.2,0.9,0.7,1.8,1.3,2.7c0.6,0.9,1.4,1.6,2.5,2.2c1,0.6,2.4,0.9,4,0.9
						c1.4,0,2.8-0.3,4.1-1c1.3-0.7,2.3-1.6,3.1-2.8L236.5,46z M234.4,37.5c0-1-0.2-1.9-0.6-2.7c-0.4-0.8-0.9-1.6-1.6-2.2
						c-0.7-0.6-1.4-1.1-2.4-1.5c-0.9-0.4-1.9-0.6-2.9-0.6c-1.5,0-2.8,0.3-3.8,0.9c-1,0.6-1.8,1.3-2.4,2.1c-0.6,0.8-1,1.6-1.2,2.3
						c-0.2,0.8-0.4,1.3-0.4,1.5H234.4z"/>
					<path class="st0" d="M259.9,41c0,1,0,2,0,2.8c0,0.8,0,1.6,0.1,2.3c0,0.7,0.1,1.4,0.1,2c0,0.6,0.1,1.2,0.2,1.9h-2.6
						c-0.2-1-0.3-2.2-0.3-3.5h-0.1c-0.8,1.4-1.8,2.4-3,3.1c-1.2,0.6-2.7,1-4.5,1c-0.9,0-1.8-0.1-2.7-0.3c-0.9-0.2-1.7-0.6-2.4-1.1
						c-0.7-0.5-1.3-1.2-1.7-2c-0.4-0.8-0.7-1.8-0.7-2.9c0-1.6,0.4-2.9,1.2-3.9c0.8-1,1.9-1.7,3.1-2.2c1.2-0.5,2.5-0.8,3.9-0.9
						c1.4-0.1,2.6-0.2,3.6-0.2h3.2v-1.3c0-1.9-0.6-3.2-1.7-4c-1.1-0.8-2.6-1.2-4.3-1.2c-2.5,0-4.6,0.8-6.5,2.4l-1.6-1.9
						c1-1,2.3-1.7,3.8-2.2c1.5-0.5,3-0.8,4.3-0.8c2.6,0,4.7,0.6,6.2,1.8c1.5,1.2,2.3,3.2,2.3,5.9V41z M254.4,39.3
						c-1.2,0-2.3,0.1-3.4,0.2c-1.1,0.2-2.1,0.4-3,0.8c-0.9,0.4-1.6,0.9-2.1,1.5c-0.5,0.6-0.8,1.4-0.8,2.3c0,0.6,0.1,1.2,0.4,1.7
						c0.3,0.5,0.7,0.9,1.1,1.2c0.5,0.3,1,0.6,1.5,0.7c0.6,0.2,1.1,0.3,1.7,0.3c1.5,0,2.7-0.2,3.7-0.6c1-0.4,1.7-1,2.3-1.7
						c0.6-0.7,1-1.5,1.2-2.4c0.2-0.9,0.3-1.8,0.3-2.7v-1.4H254.4z"/>
					<path class="st0" d="M267.4,44.6c0.6,1.1,1.4,2,2.6,2.6c1.1,0.6,2.3,0.9,3.6,0.9c0.6,0,1.2-0.1,1.8-0.3
						c0.6-0.2,1.1-0.4,1.6-0.8c0.5-0.3,0.8-0.7,1.1-1.2c0.3-0.5,0.4-1,0.4-1.6c0-1-0.3-1.7-0.9-2.2c-0.6-0.5-1.4-0.9-2.3-1.2
						c-0.9-0.3-1.9-0.5-3.1-0.7c-1.1-0.2-2.1-0.5-3.1-0.9c-0.9-0.4-1.7-1-2.3-1.7c-0.6-0.7-0.9-1.8-0.9-3.1c0-1,0.2-2,0.6-2.7
						c0.4-0.8,1-1.4,1.7-1.9c0.7-0.5,1.5-0.9,2.3-1.1s1.7-0.4,2.6-0.4c1.8,0,3.3,0.3,4.6,1c1.3,0.6,2.3,1.7,3,3.1l-2.5,1.5
						c-0.5-1-1.2-1.7-2-2.2c-0.8-0.5-1.8-0.8-3.1-0.8c-0.5,0-1,0.1-1.5,0.2c-0.5,0.2-1,0.4-1.5,0.6c-0.4,0.3-0.8,0.6-1.1,1.1
						c-0.3,0.4-0.4,0.9-0.4,1.5c0,1,0.3,1.7,0.9,2.1c0.6,0.5,1.4,0.8,2.3,1.1c0.9,0.3,1.9,0.5,3.1,0.7c1.1,0.2,2.1,0.5,3.1,0.9
						c0.9,0.4,1.7,1,2.3,1.8c0.6,0.8,0.9,1.9,0.9,3.4c0,1.1-0.2,2.1-0.6,2.9c-0.4,0.8-1,1.5-1.7,2.1c-0.7,0.6-1.5,1-2.5,1.2
						c-0.9,0.3-1.9,0.4-2.9,0.4c-1.9,0-3.5-0.4-5.1-1.1c-1.5-0.7-2.7-1.8-3.5-3.3L267.4,44.6z"/>
					<path class="st0" d="M297.5,31.1h-6.1v13.9c0,1,0.3,1.7,0.8,2.2c0.5,0.5,1.2,0.8,2.2,0.8c0.5,0,1.1-0.1,1.6-0.2
						c0.5-0.1,1.1-0.3,1.5-0.5l0.2,2.5c-0.5,0.2-1.1,0.4-1.8,0.5c-0.7,0.2-1.3,0.2-1.8,0.2c-1,0-1.8-0.1-2.5-0.4
						c-0.7-0.3-1.3-0.7-1.7-1.2s-0.7-1.1-0.9-1.7c-0.2-0.7-0.3-1.4-0.3-2.2V31.1H284v-2.5h4.6v-6.2h2.8v6.2h6.1V31.1z"/>
				</g>
			</g>
		</g>
	</g>
	<g>
		<path class="st0" d="M103.2,57.1h2.2v10h0.1c0.2-0.3,0.4-0.5,0.6-0.8c0.3-0.3,0.6-0.5,1-0.7c0.4-0.2,0.8-0.4,1.2-0.5
			c0.5-0.1,0.9-0.2,1.5-0.2c0.9,0,1.6,0.1,2.3,0.4c0.6,0.3,1.2,0.6,1.6,1.1c0.4,0.5,0.7,1,0.9,1.7c0.2,0.7,0.3,1.4,0.3,2.2v8.2h-2.2
			v-8c0-1.1-0.2-2-0.7-2.6c-0.5-0.6-1.3-1-2.3-1c-0.7,0-1.3,0.1-1.9,0.4c-0.5,0.2-0.9,0.6-1.3,1.1c-0.3,0.5-0.6,1-0.7,1.6
			c-0.2,0.6-0.2,1.3-0.2,2.1v6.5h-2.2V57.1z"/>
		<path class="st0" d="M131.6,76.2c-0.8,1-1.7,1.7-2.6,2.1c-0.9,0.4-2,0.6-3.3,0.6c-1,0-2-0.2-2.8-0.6c-0.8-0.4-1.5-0.9-2.1-1.5
			c-0.6-0.6-1-1.4-1.3-2.2c-0.3-0.9-0.5-1.8-0.5-2.7c0-1,0.2-2,0.5-2.8c0.3-0.9,0.8-1.6,1.4-2.2c0.6-0.6,1.3-1.1,2.2-1.4
			c0.8-0.3,1.7-0.5,2.7-0.5c0.9,0,1.8,0.2,2.6,0.5c0.8,0.3,1.4,0.8,2,1.4c0.6,0.6,1,1.3,1.3,2.2c0.3,0.9,0.5,1.8,0.5,2.9v0.7h-10.8
			c0,0.6,0.2,1.1,0.4,1.6c0.2,0.5,0.5,1,0.9,1.4c0.4,0.4,0.8,0.7,1.3,0.9c0.5,0.2,1.1,0.3,1.7,0.3c1,0,1.8-0.2,2.4-0.5
			c0.7-0.3,1.3-0.8,1.8-1.5L131.6,76.2z M129.7,70.8c0-1.1-0.4-2-1.1-2.7c-0.7-0.7-1.7-1-2.9-1c-1.2,0-2.2,0.3-3,1
			c-0.8,0.7-1.2,1.6-1.4,2.7H129.7z"/>
		<path class="st0" d="M136.1,67c0.7-0.7,1.5-1.2,2.4-1.6c0.9-0.3,1.9-0.5,2.9-0.5c2,0,3.4,0.5,4.3,1.4c0.9,0.9,1.3,2.3,1.3,4.2v5.7
			c0,0.4,0,0.8,0.1,1.2c0,0.4,0.1,0.8,0.1,1.1h-2.1c-0.1-0.3-0.1-0.6-0.1-1c0-0.4,0-0.7,0-1h-0.1c-0.4,0.7-1,1.2-1.7,1.7
			c-0.7,0.4-1.6,0.7-2.6,0.7c-0.7,0-1.3-0.1-1.9-0.3c-0.6-0.2-1.1-0.4-1.6-0.8c-0.4-0.3-0.8-0.7-1.1-1.2c-0.3-0.5-0.4-1.1-0.4-1.7
			c0-1.1,0.3-2,0.9-2.6c0.6-0.6,1.3-1.1,2.1-1.4c0.8-0.3,1.8-0.5,2.7-0.6c1-0.1,1.9-0.1,2.7-0.1h0.9V70c0-1-0.3-1.7-0.9-2.2
			c-0.6-0.5-1.4-0.7-2.4-0.7c-0.7,0-1.4,0.1-2.1,0.4c-0.7,0.2-1.3,0.6-1.8,1.1L136.1,67z M142.5,72.2c-1.4,0-2.6,0.2-3.4,0.6
			c-0.8,0.4-1.3,1.1-1.3,2c0,0.8,0.3,1.4,0.8,1.8c0.6,0.4,1.3,0.5,2.1,0.5c0.6,0,1.2-0.1,1.7-0.3c0.5-0.2,0.9-0.5,1.2-0.9
			c0.3-0.4,0.6-0.8,0.7-1.3c0.2-0.5,0.3-1,0.3-1.6v-0.9H142.5z"/>
		<path class="st0" d="M152,57.1h2.2v21.5H152V57.1z"/>
		<path class="st0" d="M166.6,67.2h-3.9v6.7c0,0.4,0,0.8,0,1.2c0,0.4,0.1,0.7,0.2,1c0.1,0.3,0.3,0.5,0.6,0.7
			c0.3,0.2,0.6,0.2,1.1,0.2c0.3,0,0.7,0,1-0.1c0.3-0.1,0.7-0.2,1-0.3l0.1,2c-0.4,0.2-0.8,0.3-1.3,0.4c-0.5,0.1-0.9,0.1-1.3,0.1
			c-0.8,0-1.4-0.1-1.9-0.3c-0.5-0.2-0.8-0.5-1.1-0.9c-0.3-0.4-0.4-0.8-0.5-1.4c-0.1-0.6-0.1-1.2-0.1-1.9v-7.3h-2.9v-1.9h2.9v-3.8
			h2.2v3.8h3.9V67.2z"/>
		<path class="st0" d="M170.1,57.1h2.2v10h0.1c0.2-0.3,0.4-0.5,0.6-0.8c0.3-0.3,0.6-0.5,1-0.7c0.4-0.2,0.8-0.4,1.2-0.5
			c0.5-0.1,0.9-0.2,1.5-0.2c0.9,0,1.6,0.1,2.3,0.4c0.6,0.3,1.2,0.6,1.6,1.1c0.4,0.5,0.7,1,0.9,1.7c0.2,0.7,0.3,1.4,0.3,2.2v8.2h-2.2
			v-8c0-1.1-0.2-2-0.7-2.6c-0.5-0.6-1.3-1-2.3-1c-0.7,0-1.3,0.1-1.9,0.4c-0.5,0.2-0.9,0.6-1.3,1.1c-0.3,0.5-0.6,1-0.7,1.6
			c-0.2,0.6-0.2,1.3-0.2,2.1v6.5h-2.2V57.1z"/>
		<path class="st1" d="M196.1,68.7c-0.5-0.6-1-1-1.5-1.2c-0.5-0.3-1.2-0.4-1.8-0.4c-0.7,0-1.4,0.1-2,0.4c-0.6,0.3-1,0.6-1.4,1.1
			c-0.4,0.5-0.7,1-0.8,1.6c-0.2,0.6-0.3,1.2-0.3,1.9c0,0.7,0.1,1.3,0.3,1.9c0.2,0.6,0.5,1.1,0.9,1.6c0.4,0.5,0.9,0.8,1.4,1.1
			c0.5,0.3,1.2,0.4,1.8,0.4c1.5,0,2.6-0.5,3.4-1.7l1.7,1.6c-0.6,0.7-1.4,1.3-2.3,1.6c-0.9,0.3-1.8,0.5-2.8,0.5c-1,0-2-0.2-2.8-0.5
			c-0.9-0.3-1.6-0.8-2.2-1.5c-0.6-0.6-1.1-1.4-1.4-2.2c-0.3-0.9-0.5-1.8-0.5-2.8c0-1,0.2-1.9,0.5-2.8c0.3-0.9,0.8-1.6,1.4-2.2
			c0.6-0.6,1.3-1.1,2.2-1.5c0.8-0.4,1.8-0.5,2.8-0.5c1,0,1.9,0.2,2.8,0.5c0.9,0.3,1.7,0.9,2.3,1.6L196.1,68.7z"/>
		<path class="st1" d="M200.9,67c0.7-0.7,1.5-1.2,2.4-1.6c0.9-0.3,1.9-0.5,2.9-0.5c2,0,3.4,0.5,4.3,1.4c0.9,0.9,1.3,2.3,1.3,4.2v5.7
			c0,0.4,0,0.8,0.1,1.2c0,0.4,0.1,0.8,0.1,1.1h-2.1c-0.1-0.3-0.1-0.6-0.1-1c0-0.4,0-0.7,0-1h-0.1c-0.4,0.7-1,1.2-1.8,1.7
			c-0.7,0.4-1.6,0.7-2.6,0.7c-0.7,0-1.3-0.1-1.9-0.3c-0.6-0.2-1.1-0.4-1.6-0.8c-0.4-0.3-0.8-0.7-1.1-1.2c-0.3-0.5-0.4-1.1-0.4-1.7
			c0-1.1,0.3-2,0.9-2.6c0.6-0.6,1.3-1.1,2.1-1.4c0.8-0.3,1.8-0.5,2.7-0.6c1-0.1,1.9-0.1,2.7-0.1h0.9V70c0-1-0.3-1.7-0.9-2.2
			c-0.6-0.5-1.4-0.7-2.4-0.7c-0.7,0-1.4,0.1-2.1,0.4c-0.7,0.2-1.3,0.6-1.8,1.1L200.9,67z M207.3,72.2c-1.4,0-2.6,0.2-3.4,0.6
			c-0.8,0.4-1.3,1.1-1.3,2c0,0.8,0.3,1.4,0.8,1.8c0.6,0.4,1.3,0.5,2.1,0.5c0.6,0,1.2-0.1,1.7-0.3c0.5-0.2,0.9-0.5,1.2-0.9
			s0.6-0.8,0.7-1.3c0.2-0.5,0.3-1,0.3-1.6v-0.9H207.3z"/>
		<path class="st1" d="M216.5,68.5c0-0.6,0-1.2-0.1-1.7c0-0.5-0.1-1-0.1-1.5h2.1c0,0.4,0,0.7,0,1.1c0,0.4,0,0.7,0,1.1h0.1
			c0.2-0.3,0.4-0.6,0.6-0.9c0.3-0.3,0.6-0.6,1-0.8c0.4-0.2,0.8-0.4,1.3-0.6c0.5-0.1,1-0.2,1.5-0.2c0.2,0,0.3,0,0.5,0
			c0.2,0,0.3,0.1,0.5,0.1l-0.1,2.2c-0.4-0.1-0.8-0.2-1.2-0.2c-1.4,0-2.4,0.4-3,1.3c-0.6,0.9-0.9,2.1-0.9,3.6v6.5h-2.2V68.5z"/>
		<path class="st1" d="M238.6,76.2c-0.8,1-1.7,1.7-2.6,2.1c-0.9,0.4-2,0.6-3.3,0.6c-1,0-2-0.2-2.8-0.6c-0.8-0.4-1.5-0.9-2.1-1.5
			c-0.6-0.6-1-1.4-1.3-2.2c-0.3-0.9-0.5-1.8-0.5-2.7c0-1,0.2-2,0.5-2.8s0.8-1.6,1.4-2.2c0.6-0.6,1.3-1.1,2.2-1.4
			c0.8-0.3,1.7-0.5,2.7-0.5c0.9,0,1.8,0.2,2.6,0.5c0.8,0.3,1.4,0.8,2,1.4c0.6,0.6,1,1.3,1.3,2.2c0.3,0.9,0.5,1.8,0.5,2.9v0.7h-10.8
			c0,0.6,0.2,1.1,0.4,1.6c0.2,0.5,0.5,1,0.9,1.4c0.4,0.4,0.8,0.7,1.3,0.9s1.1,0.3,1.7,0.3c1,0,1.8-0.2,2.4-0.5
			c0.7-0.3,1.3-0.8,1.8-1.5L238.6,76.2z M236.7,70.8c0-1.1-0.4-2-1.1-2.7s-1.7-1-2.9-1c-1.2,0-2.2,0.3-3,1c-0.8,0.7-1.2,1.6-1.4,2.7
			H236.7z"/>
	</g>
	<g>
		<path class="st0" d="M73.4,33.5c-3.3-3.2-7.4-5.6-12.1-6.9c-11.5-3-23.1,1.8-29.4,11.1c-0.1,0.1-0.1,0.2,0,0.2
			c0.1,0.1,0.2,0,0.4-0.2c0,0,0,0,0,0c0.3-0.2,0.5-0.5,0.8-0.7c3.3-2.7,7.1-4.2,10.9-4.9c3.8-0.7,7.6-0.9,11.3-0.8
			c3.7,0.2,7.3,0.6,10.9,1.3c2.2,0.4,4.4,0.9,6.6,1.5c0,0,0,0,0,0C73.6,34.3,73.7,33.9,73.4,33.5z"/>
		<path class="st0" d="M81.2,49C81.3,49.1,81.3,49.1,81.2,49c-0.4-3.3-1.5-6.5-3.2-9.4c-1.8-3.1-15.4-4.4-23.8-4.1
			c-3.1,0.3-6.1,0.7-9,1.6c-3.2,1-6.1,2.4-8.3,4.4c-2.1,2-3.3,4.7-3.8,7.6c-0.2,1.5-0.2,3,0.1,3.8c0.1,0.4,0.3,0.6,0.4,0.7
			c0.1,0.1,0.4,0.2,0.9,0.3c1,0.2,2.5,0.1,4-0.2c1.5-0.3,3.2-0.7,4.8-1.2c3.3-1,6.6-2.2,10-3.4c3.4-1.2,6.8-2.4,10.5-3.4
			c1.8-0.5,3.7-0.9,5.8-1.2c2-0.2,4.3-0.4,6.9,0.5c1.3,0.5,2.7,1.4,3.7,2.6C80.7,48.1,81,48.6,81.2,49L81.2,49z"/>
		<path class="st1" d="M75.6,53c-0.1-0.4-0.3-0.6-0.4-0.7c-0.1-0.1-0.4-0.2-0.9-0.3c-1-0.2-2.5-0.1-4,0.2c-1.5,0.3-3.2,0.7-4.8,1.2
			c-3.3,1-6.6,2.2-10,3.4c-3.4,1.2-6.8,2.4-10.5,3.4c-1.8,0.5-3.7,0.9-5.8,1.2c-2,0.2-4.3,0.4-6.9-0.5c-1.3-0.5-2.7-1.4-3.7-2.6
			c-0.3-0.4-0.6-0.9-0.8-1.3l0,0c0-0.1-0.1-0.1-0.1,0c0.5,3.3,1.6,6.5,3.2,9.4c2,3.3,17.3,4.6,25.4,4c2.5-0.3,5-0.7,7.4-1.4
			c3.2-1,6.1-2.4,8.3-4.4c2.1-2,3.3-4.7,3.8-7.6C75.9,55.3,75.9,53.8,75.6,53z"/>
		<path class="st1" d="M77,68c-0.1-0.1-0.2,0-0.4,0.2c0,0,0,0,0,0c-0.3,0.2-0.5,0.5-0.8,0.7c-3.3,2.7-7.1,4.2-10.9,4.9
			c-3.8,0.7-7.6,0.9-11.3,0.8c-3.7-0.2-7.3-0.6-10.9-1.3c-2.2-0.4-4.4-0.9-6.6-1.5c0,0,0,0,0,0c-0.7-0.2-0.8,0.2-0.6,0.6
			c3.3,3.2,7.4,5.6,12.1,6.9c11.5,3,23.1-1.8,29.3-11.1C77,68.1,77,68,77,68z"/>
		<linearGradient id="SVGID_1_" gradientUnits="userSpaceOnUse" x1="45.1847" y1="63.4971" x2="71.6108" y2="60.1938">
			<stop  offset="0" style="stop-color:#6CBE59"/>
			<stop  offset="0.7427" style="stop-color:#3DAE2B"/>
		</linearGradient>
		<path class="st2" d="M71.9,64.5c2.1-2,3.3-4.7,3.8-7.6c0.2-1.5,0.2-3-0.1-3.8c-0.1-0.4-0.3-0.6-0.4-0.7c-0.1-0.1-0.4-0.2-0.9-0.3
			c-1-0.2-2.5-0.1-4,0.2c-1.5,0.3-3.2,0.7-4.8,1.2c-3.3,1-6.6,2.2-10,3.4c-3.4,1.2-6.8,2.4-10.5,3.4c-0.6,0.2-1.2,0.3-1.8,0.5
			c0.6,3.4,1.7,6.6,3.4,9.6c3.6,0.2,7.1,0.2,9.8,0c2.5-0.3,5-0.7,7.4-1.4C66.8,67.9,69.8,66.5,71.9,64.5z"/>
		
			<linearGradient id="SVGID_00000142887768586785730680000001026102796397451680_" gradientUnits="userSpaceOnUse" x1="56.3381" y1="31.0198" x2="73.5538" y2="31.0198">
			<stop  offset="0" style="stop-color:#5A8CD1"/>
			<stop  offset="0.8785" style="stop-color:#0055B8"/>
		</linearGradient>
		<path style="fill:url(#SVGID_00000142887768586785730680000001026102796397451680_);" d="M56.3,31.4c3.4,0.2,6.7,0.6,9.9,1.2
			c2.2,0.4,4.4,0.9,6.6,1.5c0,0,0,0,0,0c0.7,0.2,0.8-0.2,0.6-0.6c-2.4-2.4-5.3-4.3-8.6-5.7C61.8,28.6,59,29.8,56.3,31.4z"/>
		
			<linearGradient id="SVGID_00000071545336277596214340000002648704604925065401_" gradientUnits="userSpaceOnUse" x1="46.7935" y1="44.1145" x2="77.1184" y2="44.1145">
			<stop  offset="0" style="stop-color:#5A8CD1"/>
			<stop  offset="0.3223" style="stop-color:#3173C6"/>
			<stop  offset="0.6445" style="stop-color:#0D5DBC"/>
			<stop  offset="0.8173" style="stop-color:#0055B8"/>
		</linearGradient>
		<path style="fill:url(#SVGID_00000071545336277596214340000002648704604925065401_);" d="M76.7,45.1c1.3,0.5,2.7,1.4,3.7,2.6
			c0.3,0.4,0.6,0.9,0.8,1.3l0,0c0,0.1,0.1,0.1,0.1,0c-0.5-3.4-1.6-6.6-3.2-9.5c-1.8-3.1-15.4-4.4-23.8-4.1c-1.1,0.1-2.3,0.2-3.4,0.4
			c-2.4,2.5-4.4,5.4-5.8,8.8c-1.1,2.6-1.8,5.4-2.1,8.1c0.2-0.1,0.4-0.1,0.6-0.2c3.3-1,6.6-2.2,10-3.4c3.4-1.2,6.8-2.4,10.5-3.4
			c1.8-0.5,3.7-0.9,5.8-1.2C71.8,44.3,74,44.2,76.7,45.1z"/>
		
			<linearGradient id="SVGID_00000068668850025432204870000016545513216882131885_" gradientUnits="userSpaceOnUse" x1="50.1807" y1="74.056" x2="57.9233" y2="74.056">
			<stop  offset="0" style="stop-color:#57B644"/>
			<stop  offset="1" style="stop-color:#3DAE2B"/>
		</linearGradient>
		<path style="fill:url(#SVGID_00000068668850025432204870000016545513216882131885_);" d="M55.6,80.2c8.6-0.4,16.6-4.8,21.4-12
			C77,68.1,77,68,77,68c-0.1-0.1-0.2,0-0.4,0.2c0,0,0,0,0,0c-0.3,0.2-0.5,0.5-0.8,0.7c-3.3,2.7-7.1,4.2-10.9,4.9
			c-3.8,0.7-7.6,0.9-11.3,0.8c-1.5-0.1-3-0.2-4.5-0.3C51,76.5,53.1,78.5,55.6,80.2z"/>
	</g>
</g>
</svg>
