<?xml version="1.0" encoding="UTF-8"?> <svg xmlns="http://www.w3.org/2000/svg" xmlns:xlink="http://www.w3.org/1999/xlink" width="225.446" height="63.89" viewBox="0 0 225.446 63.89"><defs><linearGradient id="linear-gradient" x1="1.934" y1="0.801" x2="3.895" y2="0.801" gradientUnits="objectBoundingBox"><stop offset="0" stop-color="#fbaf1d"></stop><stop offset="1" stop-color="#005930"></stop></linearGradient><linearGradient id="linear-gradient-2" x1="-0.142" y1="0.8" x2="0.532" y2="0.8" xlink:href="#linear-gradient"></linearGradient><linearGradient id="linear-gradient-3" x1="0.715" y1="0.811" x2="2.224" y2="0.811" xlink:href="#linear-gradient"></linearGradient></defs><g id="logo_SouthernMarylandElectricCooperative" transform="translate(-1.347 -1.483)"><path id="Path_143397" data-name="Path 143397" d="M36.308,22.524a60.124,60.124,0,0,0-13.717-4.289,11.766,11.766,0,0,1-4.9-1.789,2.728,2.728,0,0,1-1.064-2.087,3.435,3.435,0,0,1,1.29-2.7,5.744,5.744,0,0,1,3.836-1.11,7.268,7.268,0,0,1,4.852,1.49,7.677,7.677,0,0,1,2.3,4.769l13.765-.828q-.9-7.552-5.657-11.013T23.2,1.509a28.937,28.937,0,0,0-11.621,1.9A14.086,14.086,0,0,0,5.232,8.646,12.98,12.98,0,0,0,3.12,15.718a12,12,0,0,0,4.126,9.373q4.093,3.676,13.7,5.9,5.867,1.325,7.479,2.815a4.505,4.505,0,0,1,1.612,3.378,4.561,4.561,0,0,1-1.692,3.494,7.01,7.01,0,0,1-4.819,1.507,7.635,7.635,0,0,1-6.447-2.948,11.07,11.07,0,0,1-1.838-5.3l-13.894.894A19.048,19.048,0,0,0,6.6,46.951q4.642,4.769,16.7,4.769a27.724,27.724,0,0,0,11.38-2.037,15.862,15.862,0,0,0,9.542-14.59,13.934,13.934,0,0,0-1.886-7.187A14.553,14.553,0,0,0,36.308,22.524Z" transform="translate(0 0)" fill="url(#linear-gradient)"></path><path id="Path_143398" data-name="Path 143398" d="M189.072,8.009Q182.69,1.5,170.891,1.5q-11.509,0-17.956,6.624T146.488,26.64a34.462,34.462,0,0,0,.888,8.081l-11.942-3.709a15.136,15.136,0,0,1-3.111,7.022,9.237,9.237,0,0,1-13.039-.576Q116.9,34.464,116.9,26.391q0-6.516,2-9.56a8.516,8.516,0,0,1,7.608-4.1,8.255,8.255,0,0,1,6.963,3.577,11.511,11.511,0,0,1,1.419,3.246L147.78,16.6A21.811,21.811,0,0,0,140.189,5.21Q135.079,1.5,126.15,1.5q-11.412,0-17.65,6.471a19.4,19.4,0,0,0-2.144,2.662v-8.3h-27.2C70.573,16.131,71.4,23,71.4,23a11.521,11.521,0,0,1,4.385-1.381c-5.808,17.232-5.277,26.259-4.807,29.265h36.087V43.2a18.916,18.916,0,0,0,7.174,6.211,29.665,29.665,0,0,0,12.588,2.3,25.14,25.14,0,0,0,10.461-1.888,17.716,17.716,0,0,0,6.882-5.6,23.525,23.525,0,0,0,3.685-7.782,22.045,22.045,0,0,0,1.889,4.37,20.156,20.156,0,0,0,8.494,8.28,29.527,29.527,0,0,0,13.233,2.617,26.022,26.022,0,0,0,13.136-3.031,20.179,20.179,0,0,0,8.059-8.479,30.589,30.589,0,0,0,2.789-13.961Q195.455,14.517,189.072,8.009ZM81.856,12.7h23.289a25.631,25.631,0,0,0-2.425,7.717H81.856Zm0,17.62h20.583a26.6,26.6,0,0,0,2.575,9.572H81.856Zm96.418,7.022a9.881,9.881,0,0,1-13.965.5q-.29-.27-.558-.563-2.66-3.212-2.66-10.566,0-7.419,2.676-10.632a8.77,8.77,0,0,1,7.092-3.213,9.09,9.09,0,0,1,7.3,3.163q2.691,3.163,2.692,10.019Q180.852,34.191,178.273,37.338Z" transform="translate(31.316 0.008)" fill="url(#linear-gradient-2)"></path><path id="Path_143399" data-name="Path 143399" d="M84.9,32.053l-3.283,1.762a89.117,89.117,0,0,1,.641-23.3l-4,1.041c.458-2.145,2.079-6.923,2.968-9.48H64.982L57.628,31.615,50.222,2.071h-19.2V50.627h11.96V13.6l9.2,37.029H63L72.215,13.6V50.627H86.749A61.358,61.358,0,0,1,84.9,32.053Z" transform="translate(13.396 0.266)" fill="url(#linear-gradient-3)"></path><path id="Path_143400" data-name="Path 143400" d="M8,43.753l1.17-.1-.012.29a1.7,1.7,0,0,0,.238.885,1.529,1.529,0,0,0,.786.62,3.509,3.509,0,0,0,1.3.219,2.621,2.621,0,0,0,1.636-.438,1.257,1.257,0,0,0,.563-1,1.036,1.036,0,0,0-.3-.717,5.759,5.759,0,0,0-1.663-.864,12.343,12.343,0,0,1-1.438-.654,2.77,2.77,0,0,1-.889-.8,1.764,1.764,0,0,1-.286-.992,1.919,1.919,0,0,1,.378-1.16,2.336,2.336,0,0,1,1.106-.791,4.647,4.647,0,0,1,1.642-.273,4.426,4.426,0,0,1,1.84.341,2.341,2.341,0,0,1,1.087.91,2.132,2.132,0,0,1,.338,1.086c0,.034,0,.091-.006.171l-1.151.085a1.8,1.8,0,0,0-.067-.552,1.438,1.438,0,0,0-.378-.586,1.849,1.849,0,0,0-.7-.384,3.242,3.242,0,0,0-1-.145,2.472,2.472,0,0,0-1.517.409.99.99,0,0,0-.414.831.927.927,0,0,0,.171.549,1.718,1.718,0,0,0,.615.475q.317.165,1.5.654a10.277,10.277,0,0,1,1.328.626,2.228,2.228,0,0,1,.749.731,1.836,1.836,0,0,1,.262.976,2,2,0,0,1-.442,1.248,2.837,2.837,0,0,1-1.221.885,4.769,4.769,0,0,1-1.785.313,4.5,4.5,0,0,1-2.476-.617A2.447,2.447,0,0,1,8,43.753Z" transform="translate(2.996 16.472)" fill="#005930"></path><path id="Path_143401" data-name="Path 143401" d="M13.311,43.441a4.057,4.057,0,0,1,1.115-2.929,3.2,3.2,0,0,1,2.412-.955,2.62,2.62,0,0,1,1.885.682,2.427,2.427,0,0,1,.716,1.843,4.248,4.248,0,0,1-.451,1.937,3.2,3.2,0,0,1-1.282,1.373,3.462,3.462,0,0,1-1.751.478,3.094,3.094,0,0,1-1.374-.3,2.166,2.166,0,0,1-.944-.853A2.457,2.457,0,0,1,13.311,43.441Zm1.1-.1a1.758,1.758,0,0,0,.439,1.294,1.506,1.506,0,0,0,1.115.441,1.936,1.936,0,0,0,.7-.134,2.032,2.032,0,0,0,.646-.406,2.781,2.781,0,0,0,.509-.623,3.524,3.524,0,0,0,.338-.754,3.4,3.4,0,0,0,.189-1.081,1.743,1.743,0,0,0-.442-1.271,1.49,1.49,0,0,0-1.112-.452,1.954,1.954,0,0,0-.944.23,2.463,2.463,0,0,0-.771.674,2.923,2.923,0,0,0-.506,1.032,4.025,4.025,0,0,0-.161,1.05h0Z" transform="translate(5.4 17.189)" fill="#005930"></path><path id="Path_143402" data-name="Path 143402" d="M22.026,44.6a3.328,3.328,0,0,1-2.382,1.229,1.775,1.775,0,0,1-1.209-.4,1.254,1.254,0,0,1-.46-.981,7.033,7.033,0,0,1,.207-1.308l.78-3.486h1.1L19.2,43.511a3.651,3.651,0,0,0-.11.751.662.662,0,0,0,.222.532.981.981,0,0,0,.655.191,2.081,2.081,0,0,0,.9-.21,2.384,2.384,0,0,0,.761-.569,2.937,2.937,0,0,0,.521-.847,7.15,7.15,0,0,0,.311-1.1l.585-2.61h1.1L22.8,45.689H21.783Z" transform="translate(7.507 17.232)" fill="#005930"></path><path id="Path_143403" data-name="Path 143403" d="M24.76,45.537l-.183.841a3.219,3.219,0,0,1-.768.1,1.67,1.67,0,0,1-1.048-.3.743.743,0,0,1-.292-.62,5.83,5.83,0,0,1,.158-.915l.786-3.51h-.871l.177-.8h.871l.335-1.485,1.261-.711-.493,2.2h1.084l-.183.8H24.516l-.749,3.339a5.857,5.857,0,0,0-.14.762.347.347,0,0,0,.113.279.565.565,0,0,0,.369.1A2.822,2.822,0,0,0,24.76,45.537Z" transform="translate(9.536 16.549)" fill="#005930"></path><path id="Path_143404" data-name="Path 143404" d="M24.428,46.4l1.864-8.338h1.1l-.713,3.2a4.623,4.623,0,0,1,1.145-.8,2.6,2.6,0,0,1,1.09-.242,1.818,1.818,0,0,1,1.249.4,1.329,1.329,0,0,1,.445,1.044,6.382,6.382,0,0,1-.195,1.172l-.8,3.566h-1.1l.822-3.657a6.6,6.6,0,0,0,.177-1,.607.607,0,0,0-.219-.483.947.947,0,0,0-.634-.188,2.364,2.364,0,0,0-1.139.293,2.184,2.184,0,0,0-.85.8,5.856,5.856,0,0,0-.563,1.64L25.53,46.4Z" transform="translate(10.42 16.517)" fill="#005930"></path><path id="Path_143405" data-name="Path 143405" d="M33.655,43.68l1.072.1a3.267,3.267,0,0,1-3.046,2.087,2.832,2.832,0,0,1-1.319-.31,2.1,2.1,0,0,1-.914-.9,2.834,2.834,0,0,1-.314-1.348,4.068,4.068,0,0,1,.49-1.92,3.347,3.347,0,0,1,1.27-1.382,3.307,3.307,0,0,1,1.687-.452,2.542,2.542,0,0,1,1.849.671,2.434,2.434,0,0,1,.691,1.831,5.052,5.052,0,0,1-.085.91H30.274a2.35,2.35,0,0,0-.024.319,1.826,1.826,0,0,0,.417,1.294,1.343,1.343,0,0,0,1.02.446,2.063,2.063,0,0,0,1.115-.347A2.3,2.3,0,0,0,33.655,43.68Zm-3.2-1.5h3.631c0-.106.006-.182.006-.228a1.6,1.6,0,0,0-.414-1.186,1.448,1.448,0,0,0-1.066-.412,2.042,2.042,0,0,0-1.288.455,2.7,2.7,0,0,0-.868,1.371Z" transform="translate(12.546 17.189)" fill="#005930"></path><path id="Path_143406" data-name="Path 143406" d="M33.524,45.732l1.352-6.04h.975l-.274,1.234a4.31,4.31,0,0,1,.978-1.035,1.684,1.684,0,0,1,.978-.336,2.022,2.022,0,0,1,.81.221l-.451.956a1.1,1.1,0,0,0-.628-.193,1.739,1.739,0,0,0-1.188.6,4.433,4.433,0,0,0-.956,2.167l-.548,2.423Z" transform="translate(14.527 17.19)" fill="#005930"></path><path id="Path_143407" data-name="Path 143407" d="M36.154,45.733l1.352-6.04h1l-.238,1.052a5.249,5.249,0,0,1,1.218-.9,2.553,2.553,0,0,1,1.157-.284,1.792,1.792,0,0,1,1.234.4,1.353,1.353,0,0,1,.448,1.064,5.565,5.565,0,0,1-.158,1.058l-.822,3.657h-1.1l.859-3.828a4.109,4.109,0,0,0,.128-.824.609.609,0,0,0-.222-.489.97.97,0,0,0-.643-.188,2.247,2.247,0,0,0-1.508.569,3.538,3.538,0,0,0-.972,1.951l-.627,2.809Z" transform="translate(15.715 17.189)" fill="#005930"></path><path id="Path_143408" data-name="Path 143408" d="M42.95,46.4l1.864-8.338h1.468l.9,5.4a18.987,18.987,0,0,1,.231,2.042,21.65,21.65,0,0,1,1.243-2.281l3.131-5.164h1.492L51.417,46.4H50.242l.932-4.055A31.163,31.163,0,0,1,52.1,39.2a19.6,19.6,0,0,1-.95,1.752L47.823,46.4H46.672l-.9-5.346a16.058,16.058,0,0,1-.177-1.712q-.152,1.1-.3,1.74L44.113,46.4Z" transform="translate(18.783 16.517)" fill="#005930"></path><path id="Path_143409" data-name="Path 143409" d="M54.105,44.982a4.421,4.421,0,0,1-1.1.674,3.005,3.005,0,0,1-1.133.213,2.079,2.079,0,0,1-1.444-.492,1.617,1.617,0,0,1-.548-1.26,1.639,1.639,0,0,1,.247-.9,1.871,1.871,0,0,1,.655-.626,3.014,3.014,0,0,1,1-.338,11.873,11.873,0,0,1,1.41-.108,5.365,5.365,0,0,0,1.489-.205,2.5,2.5,0,0,0,.128-.7.658.658,0,0,0-.28-.563A1.865,1.865,0,0,0,53.4,40.4a2.049,2.049,0,0,0-1.136.287,1.633,1.633,0,0,0-.643.816l-1.115-.091a2.739,2.739,0,0,1,1.081-1.376,3.379,3.379,0,0,1,1.867-.478,3.062,3.062,0,0,1,1.9.534,1.233,1.233,0,0,1,.536,1.035,4.9,4.9,0,0,1-.152,1.121l-.359,1.5a5.277,5.277,0,0,0-.171,1.166,3.658,3.658,0,0,0,.134.819H54.233A3.567,3.567,0,0,1,54.105,44.982Zm.408-2.309a2.789,2.789,0,0,1-.5.13q-.265.046-.886.1a7.244,7.244,0,0,0-1.358.2,1.139,1.139,0,0,0-.6.389.961.961,0,0,0-.2.591.9.9,0,0,0,.32.711,1.344,1.344,0,0,0,.911.279,2.211,2.211,0,0,0,1.054-.27,2.037,2.037,0,0,0,.8-.754A4.177,4.177,0,0,0,54.513,42.674Z" transform="translate(21.911 17.188)" fill="#005930"></path><path id="Path_143410" data-name="Path 143410" d="M54.333,45.732l1.352-6.04h.975l-.274,1.234a4.31,4.31,0,0,1,.978-1.035,1.684,1.684,0,0,1,.978-.336,2.022,2.022,0,0,1,.81.221l-.451.956a1.1,1.1,0,0,0-.628-.193,1.739,1.739,0,0,0-1.188.6,4.433,4.433,0,0,0-.956,2.167l-.548,2.423Z" transform="translate(23.923 17.19)" fill="#005930"></path><path id="Path_143411" data-name="Path 143411" d="M56.678,48.021l.067-.967a2.576,2.576,0,0,0,.664.091A.94.94,0,0,0,57.951,47a2.4,2.4,0,0,0,.585-.705l.353-.591L57.811,39.65H58.9l.487,3.054q.146.9.25,1.808l2.893-4.862h1.151l-4.124,6.842a4.421,4.421,0,0,1-1.06,1.325,1.811,1.811,0,0,1-1.066.324A2.407,2.407,0,0,1,56.678,48.021Z" transform="translate(24.981 17.232)" fill="#005930"></path><path id="Path_143412" data-name="Path 143412" d="M60.97,46.4l1.864-8.338h1.1L62.073,46.4Z" transform="translate(26.919 16.517)" fill="#005930"></path><path id="Path_143413" data-name="Path 143413" d="M67.026,44.982a4.421,4.421,0,0,1-1.1.674,3.005,3.005,0,0,1-1.133.213,2.079,2.079,0,0,1-1.444-.492,1.617,1.617,0,0,1-.548-1.26,1.639,1.639,0,0,1,.247-.9A1.872,1.872,0,0,1,63.7,42.6a3.014,3.014,0,0,1,1-.338,11.873,11.873,0,0,1,1.41-.108,5.366,5.366,0,0,0,1.489-.205,2.5,2.5,0,0,0,.128-.7.658.658,0,0,0-.28-.563,1.865,1.865,0,0,0-1.121-.284,2.049,2.049,0,0,0-1.136.287,1.633,1.633,0,0,0-.643.816l-1.115-.091a2.739,2.739,0,0,1,1.081-1.376,3.379,3.379,0,0,1,1.867-.478,3.062,3.062,0,0,1,1.9.534,1.233,1.233,0,0,1,.536,1.035,4.9,4.9,0,0,1-.152,1.121l-.359,1.5a5.276,5.276,0,0,0-.171,1.166,3.659,3.659,0,0,0,.134.819H67.154A3.569,3.569,0,0,1,67.026,44.982Zm.408-2.309a2.789,2.789,0,0,1-.5.13q-.265.046-.886.1a7.245,7.245,0,0,0-1.358.2,1.139,1.139,0,0,0-.6.389.961.961,0,0,0-.2.591.9.9,0,0,0,.32.711,1.344,1.344,0,0,0,.911.279,2.211,2.211,0,0,0,1.054-.27,2.037,2.037,0,0,0,.8-.754A4.176,4.176,0,0,0,67.435,42.674Z" transform="translate(27.744 17.188)" fill="#005930"></path><path id="Path_143414" data-name="Path 143414" d="M67.254,45.733l1.352-6.04h1l-.238,1.052a5.249,5.249,0,0,1,1.218-.9,2.553,2.553,0,0,1,1.157-.284,1.792,1.792,0,0,1,1.234.4,1.353,1.353,0,0,1,.448,1.064,5.566,5.566,0,0,1-.158,1.058l-.822,3.657h-1.1l.859-3.828a4.109,4.109,0,0,0,.128-.824.609.609,0,0,0-.222-.489.97.97,0,0,0-.643-.188,2.247,2.247,0,0,0-1.508.569,3.537,3.537,0,0,0-.972,1.951l-.627,2.809Z" transform="translate(29.756 17.189)" fill="#005930"></path><path id="Path_143415" data-name="Path 143415" d="M76.09,45.528a2.718,2.718,0,0,1-1.974,1.012,2.041,2.041,0,0,1-1.532-.634,2.546,2.546,0,0,1-.612-1.84,4.235,4.235,0,0,1,.484-2.016,3.491,3.491,0,0,1,1.212-1.368,2.734,2.734,0,0,1,1.459-.455,1.973,1.973,0,0,1,1.821,1.086l.731-3.248h1.1L76.912,46.4H75.9Zm-3.021-1.655a2.967,2.967,0,0,0,.134,1,1.312,1.312,0,0,0,.457.606,1.256,1.256,0,0,0,.774.242,1.758,1.758,0,0,0,1.358-.728,3.576,3.576,0,0,0,.816-2.388,1.519,1.519,0,0,0-.4-1.121,1.369,1.369,0,0,0-1.011-.4,1.576,1.576,0,0,0-.722.165,2.062,2.062,0,0,0-.646.56,3.443,3.443,0,0,0-.539,1A3.219,3.219,0,0,0,73.069,43.873Z" transform="translate(31.884 16.517)" fill="#005930"></path><path id="Path_143416" data-name="Path 143416" d="M78.607,46.4l1.87-8.338h6.445l-.213.95H81.458l-.585,2.594H85.99l-.213.95H80.66l-.646,2.9h5.623l-.213.944H78.607Z" transform="translate(34.882 16.517)" fill="#005930"></path><path id="Path_143417" data-name="Path 143417" d="M83.948,46.4l1.864-8.338h1.1L85.051,46.4Z" transform="translate(37.293 16.517)" fill="#005930"></path><path id="Path_143418" data-name="Path 143418" d="M90.364,43.68l1.072.1a3.267,3.267,0,0,1-3.046,2.087,2.832,2.832,0,0,1-1.319-.31,2.1,2.1,0,0,1-.914-.9,2.834,2.834,0,0,1-.314-1.348,4.068,4.068,0,0,1,.49-1.92,3.347,3.347,0,0,1,1.27-1.382,3.307,3.307,0,0,1,1.687-.452,2.542,2.542,0,0,1,1.849.671,2.434,2.434,0,0,1,.691,1.831,5.052,5.052,0,0,1-.085.91H86.983a2.358,2.358,0,0,0-.024.319,1.826,1.826,0,0,0,.417,1.294,1.343,1.343,0,0,0,1.02.446,2.063,2.063,0,0,0,1.115-.347A2.3,2.3,0,0,0,90.364,43.68Zm-3.2-1.5H90.79c0-.106.006-.182.006-.228a1.6,1.6,0,0,0-.414-1.186,1.448,1.448,0,0,0-1.066-.412,2.043,2.043,0,0,0-1.288.455A2.7,2.7,0,0,0,87.16,42.184Z" transform="translate(38.149 17.189)" fill="#005930"></path><path id="Path_143419" data-name="Path 143419" d="M94.611,43.532l1.1.108a3.454,3.454,0,0,1-1.179,1.681,2.91,2.91,0,0,1-1.739.549,2.228,2.228,0,0,1-2.364-2.417,4.788,4.788,0,0,1,.42-1.945,3.183,3.183,0,0,1,1.2-1.453,3.26,3.26,0,0,1,1.788-.5,2.376,2.376,0,0,1,1.651.549,1.862,1.862,0,0,1,.609,1.453l-1.084.068a1.183,1.183,0,0,0-.356-.9,1.306,1.306,0,0,0-.923-.324,1.778,1.778,0,0,0-1.151.392,2.559,2.559,0,0,0-.764,1.191,4.684,4.684,0,0,0-.277,1.539,1.632,1.632,0,0,0,.365,1.16,1.191,1.191,0,0,0,.9.387,1.649,1.649,0,0,0,1.026-.381A2.488,2.488,0,0,0,94.611,43.532Z" transform="translate(40.217 17.188)" fill="#005930"></path><path id="Path_143420" data-name="Path 143420" d="M96.786,45.537l-.183.841a3.219,3.219,0,0,1-.768.1,1.67,1.67,0,0,1-1.048-.3.743.743,0,0,1-.292-.62,5.832,5.832,0,0,1,.158-.915l.786-3.51h-.871l.177-.8h.871l.335-1.485,1.261-.711-.493,2.2H97.8l-.183.8H96.542l-.749,3.339a5.856,5.856,0,0,0-.14.762.346.346,0,0,0,.113.279.565.565,0,0,0,.369.1A2.822,2.822,0,0,0,96.786,45.537Z" transform="translate(42.055 16.549)" fill="#005930"></path><path id="Path_143421" data-name="Path 143421" d="M96.454,45.732l1.352-6.04h.975l-.274,1.234a4.311,4.311,0,0,1,.978-1.035,1.684,1.684,0,0,1,.978-.336,2.022,2.022,0,0,1,.81.221l-.451.956a1.1,1.1,0,0,0-.628-.193,1.739,1.739,0,0,0-1.188.6,4.433,4.433,0,0,0-.956,2.167L97.5,45.732Z" transform="translate(42.94 17.19)" fill="#005930"></path><path id="Path_143422" data-name="Path 143422" d="M99.055,46.4l1.352-6.04h1.1l-1.352,6.04Zm1.608-7.172.262-1.166h1.1l-.262,1.166Z" transform="translate(44.114 16.517)" fill="#005930"></path><path id="Path_143423" data-name="Path 143423" d="M105.14,43.532l1.1.108a3.455,3.455,0,0,1-1.179,1.681,2.91,2.91,0,0,1-1.739.549,2.228,2.228,0,0,1-2.364-2.417,4.788,4.788,0,0,1,.42-1.945,3.183,3.183,0,0,1,1.2-1.453,3.26,3.26,0,0,1,1.788-.5,2.376,2.376,0,0,1,1.651.549,1.862,1.862,0,0,1,.609,1.453l-1.084.068a1.183,1.183,0,0,0-.356-.9,1.306,1.306,0,0,0-.923-.324,1.778,1.778,0,0,0-1.151.392,2.559,2.559,0,0,0-.764,1.191,4.685,4.685,0,0,0-.277,1.539,1.632,1.632,0,0,0,.365,1.16,1.191,1.191,0,0,0,.9.387,1.649,1.649,0,0,0,1.026-.381A2.488,2.488,0,0,0,105.14,43.532Z" transform="translate(44.971 17.188)" fill="#005930"></path><path id="Path_143424" data-name="Path 143424" d="M113.873,43.515l1.182.153a4.564,4.564,0,0,1-1.633,2.184,4.142,4.142,0,0,1-2.406.739,3.261,3.261,0,0,1-3.533-3.583,5.092,5.092,0,0,1,1.45-3.725,4.319,4.319,0,0,1,3.21-1.314,3.547,3.547,0,0,1,2.3.711,2.767,2.767,0,0,1,1.02,1.911l-1.115.1a2.008,2.008,0,0,0-2.15-1.8,3.151,3.151,0,0,0-2.65,1.359,4.51,4.51,0,0,0-.877,2.781,2.658,2.658,0,0,0,.676,1.962,2.379,2.379,0,0,0,1.76.677,2.721,2.721,0,0,0,1.675-.563A3.174,3.174,0,0,0,113.873,43.515Z" transform="translate(47.911 16.472)" fill="#005930"></path><path id="Path_143425" data-name="Path 143425" d="M113.093,43.441a4.057,4.057,0,0,1,1.115-2.929,3.2,3.2,0,0,1,2.412-.955,2.62,2.62,0,0,1,1.885.682,2.427,2.427,0,0,1,.716,1.843,4.248,4.248,0,0,1-.451,1.937,3.2,3.2,0,0,1-1.282,1.373,3.462,3.462,0,0,1-1.751.478,3.094,3.094,0,0,1-1.374-.3,2.166,2.166,0,0,1-.944-.853A2.457,2.457,0,0,1,113.093,43.441Zm1.1-.1a1.758,1.758,0,0,0,.439,1.294,1.506,1.506,0,0,0,1.115.441,1.936,1.936,0,0,0,.7-.134,2.033,2.033,0,0,0,.646-.406,2.782,2.782,0,0,0,.509-.623,3.522,3.522,0,0,0,.338-.754,3.4,3.4,0,0,0,.189-1.081,1.743,1.743,0,0,0-.442-1.271,1.49,1.49,0,0,0-1.112-.452,1.954,1.954,0,0,0-.944.23,2.464,2.464,0,0,0-.771.674,2.923,2.923,0,0,0-.506,1.032,4.026,4.026,0,0,0-.161,1.05h0Z" transform="translate(50.451 17.189)" fill="#005930"></path><path id="Path_143426" data-name="Path 143426" d="M117.641,43.441a4.057,4.057,0,0,1,1.115-2.929,3.2,3.2,0,0,1,2.412-.955,2.62,2.62,0,0,1,1.885.682,2.427,2.427,0,0,1,.716,1.843,4.249,4.249,0,0,1-.451,1.937,3.2,3.2,0,0,1-1.282,1.373,3.462,3.462,0,0,1-1.751.478,3.094,3.094,0,0,1-1.374-.3,2.166,2.166,0,0,1-.944-.853A2.457,2.457,0,0,1,117.641,43.441Zm1.1-.1a1.758,1.758,0,0,0,.439,1.294,1.506,1.506,0,0,0,1.115.441,1.936,1.936,0,0,0,.7-.134,2.032,2.032,0,0,0,.646-.406,2.781,2.781,0,0,0,.509-.623,3.523,3.523,0,0,0,.338-.754,3.4,3.4,0,0,0,.189-1.081,1.743,1.743,0,0,0-.442-1.271,1.49,1.49,0,0,0-1.112-.452,1.954,1.954,0,0,0-.944.23,2.463,2.463,0,0,0-.771.674,2.924,2.924,0,0,0-.506,1.032A4.023,4.023,0,0,0,118.743,43.339Z" transform="translate(52.504 17.189)" fill="#005930"></path><path id="Path_143427" data-name="Path 143427" d="M121.68,48.047l1.87-8.355h1.017l-.189.841a4.038,4.038,0,0,1,1.014-.765,2.175,2.175,0,0,1,.947-.213,2.048,2.048,0,0,1,1.535.628,2.483,2.483,0,0,1,.609,1.8,4.3,4.3,0,0,1-.335,1.72,3.822,3.822,0,0,1-.822,1.249,3.449,3.449,0,0,1-.987.694,2.492,2.492,0,0,1-1.023.222,1.99,1.99,0,0,1-1.8-1.1l-.731,3.281Zm2.181-4.783a2.885,2.885,0,0,0,.1.938,1.291,1.291,0,0,0,.5.6,1.434,1.434,0,0,0,.8.227,1.742,1.742,0,0,0,1.535-1,3.987,3.987,0,0,0,.585-2.039A1.665,1.665,0,0,0,127,40.8a1.287,1.287,0,0,0-.978-.418,1.532,1.532,0,0,0-.78.208,2.252,2.252,0,0,0-.667.62,3.6,3.6,0,0,0-.509,1.009,3.334,3.334,0,0,0-.2,1.041h0Z" transform="translate(54.329 17.189)" fill="#005930"></path><path id="Path_143428" data-name="Path 143428" d="M131.281,43.68l1.072.1a3.267,3.267,0,0,1-3.046,2.087,2.832,2.832,0,0,1-1.319-.31,2.1,2.1,0,0,1-.914-.9,2.834,2.834,0,0,1-.314-1.348,4.068,4.068,0,0,1,.49-1.92,3.347,3.347,0,0,1,1.27-1.382,3.307,3.307,0,0,1,1.687-.452,2.542,2.542,0,0,1,1.849.671,2.434,2.434,0,0,1,.691,1.831,5.054,5.054,0,0,1-.085.91H127.9a2.351,2.351,0,0,0-.024.319,1.826,1.826,0,0,0,.417,1.294,1.343,1.343,0,0,0,1.02.446,2.063,2.063,0,0,0,1.115-.347A2.3,2.3,0,0,0,131.281,43.68Zm-3.2-1.5h3.631c0-.106.006-.182.006-.228a1.6,1.6,0,0,0-.414-1.186,1.448,1.448,0,0,0-1.066-.412,2.043,2.043,0,0,0-1.288.455A2.7,2.7,0,0,0,128.077,42.184Z" transform="translate(56.623 17.189)" fill="#005930"></path><path id="Path_143429" data-name="Path 143429" d="M131.15,45.732l1.352-6.04h.975l-.274,1.234a4.312,4.312,0,0,1,.978-1.035,1.684,1.684,0,0,1,.978-.336,2.022,2.022,0,0,1,.81.221l-.451.956a1.1,1.1,0,0,0-.628-.193,1.739,1.739,0,0,0-1.188.6,4.433,4.433,0,0,0-.956,2.167l-.548,2.423Z" transform="translate(58.604 17.19)" fill="#005930"></path><path id="Path_143430" data-name="Path 143430" d="M138.1,44.982a4.422,4.422,0,0,1-1.1.674,3.005,3.005,0,0,1-1.133.213,2.08,2.08,0,0,1-1.444-.492,1.617,1.617,0,0,1-.548-1.26,1.639,1.639,0,0,1,.247-.9,1.872,1.872,0,0,1,.655-.626,3.014,3.014,0,0,1,1-.338,11.872,11.872,0,0,1,1.41-.108,5.366,5.366,0,0,0,1.489-.205,2.5,2.5,0,0,0,.128-.7.658.658,0,0,0-.28-.563A1.865,1.865,0,0,0,137.4,40.4a2.049,2.049,0,0,0-1.136.287,1.633,1.633,0,0,0-.643.816l-1.115-.091a2.739,2.739,0,0,1,1.081-1.376,3.379,3.379,0,0,1,1.867-.478,3.062,3.062,0,0,1,1.9.534,1.233,1.233,0,0,1,.536,1.035,4.9,4.9,0,0,1-.152,1.121l-.359,1.5a5.278,5.278,0,0,0-.171,1.166,3.658,3.658,0,0,0,.134.819h-1.115A3.566,3.566,0,0,1,138.1,44.982Zm.408-2.309a2.788,2.788,0,0,1-.5.13q-.265.046-.886.1a7.245,7.245,0,0,0-1.358.2,1.139,1.139,0,0,0-.6.389.961.961,0,0,0-.2.591.9.9,0,0,0,.32.711,1.344,1.344,0,0,0,.911.279,2.211,2.211,0,0,0,1.054-.27,2.037,2.037,0,0,0,.8-.754,4.177,4.177,0,0,0,.457-1.376h0Z" transform="translate(59.833 17.188)" fill="#005930"></path><path id="Path_143431" data-name="Path 143431" d="M140.816,45.537l-.183.841a3.218,3.218,0,0,1-.768.1,1.67,1.67,0,0,1-1.048-.3.743.743,0,0,1-.292-.62,5.829,5.829,0,0,1,.159-.915l.786-3.51H138.6l.177-.8h.871l.335-1.485,1.261-.711-.493,2.2h1.084l-.183.8h-1.078l-.749,3.339a5.859,5.859,0,0,0-.14.762.347.347,0,0,0,.113.279.565.565,0,0,0,.369.1A2.823,2.823,0,0,0,140.816,45.537Z" transform="translate(61.934 16.549)" fill="#005930"></path><path id="Path_143432" data-name="Path 143432" d="M140.454,46.4l1.352-6.04h1.1l-1.352,6.04Zm1.608-7.172.262-1.166h1.1l-.262,1.166Z" transform="translate(62.805 16.517)" fill="#005930"></path><path id="Path_143433" data-name="Path 143433" d="M143.616,45.689l-1.06-6.04h1.072l.554,3.327q.091.546.225,1.78.317-.643.81-1.473l2.162-3.634h1.163l-3.7,6.04Z" transform="translate(63.754 17.232)" fill="#005930"></path><path id="Path_143434" data-name="Path 143434" d="M150.906,43.68l1.072.1a3.267,3.267,0,0,1-3.046,2.087,2.832,2.832,0,0,1-1.319-.31,2.1,2.1,0,0,1-.914-.9,2.834,2.834,0,0,1-.314-1.348,4.068,4.068,0,0,1,.49-1.92,3.347,3.347,0,0,1,1.27-1.382,3.307,3.307,0,0,1,1.687-.452,2.542,2.542,0,0,1,1.849.671,2.434,2.434,0,0,1,.691,1.831,5.054,5.054,0,0,1-.085.91h-4.763a2.356,2.356,0,0,0-.024.319,1.826,1.826,0,0,0,.417,1.294,1.343,1.343,0,0,0,1.02.446,2.063,2.063,0,0,0,1.115-.347A2.3,2.3,0,0,0,150.906,43.68Zm-3.2-1.5h3.631c0-.106.006-.182.006-.228a1.6,1.6,0,0,0-.414-1.186,1.448,1.448,0,0,0-1.066-.412,2.042,2.042,0,0,0-1.288.455A2.7,2.7,0,0,0,147.7,42.184Z" transform="translate(65.483 17.189)" fill="#005930"></path></g></svg> 