<?xml version="1.0" encoding="utf-8"?>
<!-- Generator: Adobe Illustrator 23.0.6, SVG Export Plug-In . SVG Version: 6.00 Build 0)  -->
<svg version="1.1" id="Layer_1" xmlns="http://www.w3.org/2000/svg" xmlns:xlink="http://www.w3.org/1999/xlink" x="0px" y="0px"
	 viewBox="0 0 258.9 72.6" style="enable-background:new 0 0 258.9 72.6;" xml:space="preserve">
<style type="text/css">
	.st0{fill:#0091C7;}
	.st1{fill:#00BCDF;}
	.st2{fill:#8DC63F;}
	.st3{fill:#707070;}
</style>
<path class="st0" d="M58.2,45c-0.3-1.4-0.7-2.8-1.3-4.1C56.1,55.5,34.2,67.2,23.7,72l-0.9,0.4l0,0c0.4,0,0.8,0.1,1.2,0.1
	c0.9,0.1,1.9,0.1,2.8,0.1c6.8-3.3,15.5-8.1,22.2-14.2C53.9,54,56.9,49.5,58.2,45z"/>
<path class="st0" d="M55,37.1C54.3,36,53.4,35,52.5,34c4.9,18.2-25.1,32.8-35.8,37.3c1,0.3,2.1,0.5,3.2,0.7
	c6.3-2.8,15.5-7.6,23-13.7C51.3,51.3,55.4,44.2,55,37.1z"/>
<path class="st1" d="M50.6,32c-0.8-0.8-1.8-1.5-2.7-2.2l0.1,0.3c7.6,19.5-25.6,35.2-36.2,39.6c0.9,0.3,1.7,0.7,2.6,1
	C26.4,65.4,54.9,50.8,50.6,32z"/>
<path class="st2" d="M37.6,37.2c1.8-4.1,2.1-8.2,1-12.2c-0.7-0.3-1.5-0.5-2.2-0.7c1.5,4,1.3,8.1-0.5,12.2c-2.8,6.4-9.4,12.8-19.7,19
	c-5.6,3.4-11.2,6-14.9,7.7c0.5,0.5,1,0.9,1.6,1.4C12.6,60.2,31.9,50.3,37.6,37.2z"/>
<path class="st2" d="M41.5,39.3c1.9-4.3,2.2-8.6,0.8-12.8c-0.8-0.4-1.6-0.7-2.4-1.1l0.2,0.4c1.7,4.2,1.5,8.4-0.3,12.7
	c-2.8,6.4-9.5,12.8-19.7,19C13.9,61.2,8,64,4.2,65.6c0.6,0.4,1.2,0.9,1.9,1.3C15.6,62.7,35.6,52.6,41.5,39.3z"/>
<path class="st1" d="M45.4,41.4c1.9-4.2,2.2-8.5,0.9-12.6c-0.8-0.5-1.7-1-2.6-1.5l0.3,0.8c1.6,4.1,1.5,8.4-0.4,12.6
	c-5.9,13.5-27.9,23.8-36,27.2c0.7,0.4,1.5,0.8,2.2,1.1C19.5,64.8,39.6,54.8,45.4,41.4z"/>
<g>
	<path class="st3" d="M89.4,28.1c0,1.4-0.2,2.6-0.7,3.8s-1.1,2.2-2,3.1s-2,1.6-3.3,2.1s-2.7,0.7-4.4,0.7h-0.6
		c-2.7,0-5.5-0.5-8.6-1.6v-0.7v-7H70h0.5h1.7c0.5,0,0.8,0.2,1,0.7c0.1,0.4,0.2,1.5,0.4,3.5c1.2,0.4,3.1,0.5,5.7,0.5
		c1.6,0,2.8-0.4,3.7-1.1c0.9-0.7,1.3-1.8,1.3-3.2c0-0.8-0.2-1.5-0.6-2s-0.9-0.9-1.6-1.2c-0.7-0.3-1.4-0.6-2.2-0.9
		c-0.8-0.2-1.7-0.5-2.5-0.7c-0.9-0.3-1.7-0.6-2.5-1s-1.6-0.9-2.2-1.5c-0.7-0.6-1.2-1.4-1.5-2.3c-0.4-0.9-0.6-2.1-0.6-3.5
		c0-1.1,0.2-2.2,0.7-3.2c0.4-1,1.1-2,1.9-2.8s1.9-1.4,3.1-1.9s2.6-0.7,4.2-0.7c3,0,5.8,0.6,8.6,1.7v7.7h-0.2h-0.5h-1.7
		c-0.5,0-0.8-0.3-1-0.8c-0.1-0.4-0.2-1.5-0.4-3.4c-1-0.5-2.7-0.7-4.9-0.7c-0.8,0-1.4,0.1-2,0.2c-0.6,0.2-1.1,0.5-1.5,0.8
		s-0.7,0.7-0.9,1.2c-0.2,0.5-0.3,1-0.3,1.5c0,0.7,0.2,1.3,0.6,1.7c0.4,0.5,0.9,0.9,1.5,1.2c0.7,0.3,1.4,0.7,2.2,0.9
		c0.8,0.2,1.7,0.5,2.5,0.8c0.9,0.3,1.7,0.7,2.5,1c0.8,0.4,1.6,0.9,2.2,1.5c0.7,0.6,1.2,1.3,1.6,2.2C89.3,25.7,89.4,26.8,89.4,28.1z"
		/>
	<path class="st3" d="M114,26.6c0,1.6-0.2,3.1-0.7,4.5c-0.4,1.4-1,2.5-1.8,3.5s-1.7,1.7-2.9,2.3c-1.1,0.6-2.4,0.8-3.8,0.8
		c-1.2,0-2.2-0.2-3-0.5c-0.8-0.4-1.6-0.9-2.3-1.5v4.6c0.5,0.1,1,0.2,1.2,0.2c0.3,0,0.5,0,0.6,0.1c0.1,0,0.2,0,0.2,0
		c0.7,0.2,1,0.6,1,1.3v2.4h-3.2h-5.1H91V42c0-0.7,0.3-1.2,1-1.3c0,0,0.1,0,0.2,0s0.3,0,0.6-0.1c0.3,0,0.7-0.2,1.2-0.2V20.2
		c-0.5-0.1-1-0.2-1.2-0.2c-0.3,0-0.5-0.1-0.6-0.1s-0.2,0-0.2,0c-0.7-0.2-1-0.6-1-1.3v-2.5h3.2h3.1c0.3,0,0.6,0.1,0.9,0.2
		c0.2,0.2,0.4,0.4,0.5,0.7l0.4,2c0.9-1,1.8-1.7,3-2.4c1.1-0.6,2.4-0.9,3.9-0.9c1.2,0,2.2,0.2,3.2,0.7c1,0.5,1.8,1.2,2.5,2.1
		s1.2,2.1,1.6,3.4C113.8,23.4,114,24.9,114,26.6z M108.6,26.7c0-1.2-0.1-2.3-0.3-3.2c-0.2-0.9-0.5-1.5-0.9-2.1
		c-0.4-0.5-0.8-1-1.4-1.2c-0.5-0.2-1.1-0.4-1.8-0.4c-1.1,0-2,0.2-2.7,0.7s-1.5,1.1-2.1,1.9V32c0.6,0.7,1.2,1.2,1.9,1.5
		c0.7,0.3,1.4,0.4,2.2,0.4c0.8,0,1.5-0.1,2.1-0.4c0.6-0.3,1.1-0.7,1.6-1.3c0.4-0.6,0.8-1.3,1-2.2C108.6,28.9,108.6,27.9,108.6,26.7z
		"/>
	<path class="st3" d="M130.9,16.4c1.1,0.4,2.1,1.1,2.9,1.9c0.8,0.8,1.5,1.8,1.9,3c0.5,1.2,0.7,2.5,0.7,4.1c0,0.4,0,0.7-0.1,1
		c0,0.2-0.1,0.5-0.2,0.6c-0.1,0.2-0.2,0.2-0.4,0.3c-0.2,0.1-0.3,0.1-0.6,0.1H122c0.2,2.2,0.7,3.8,1.8,4.8c1,1,2.4,1.5,4.1,1.5
		c0.8,0,1.5-0.1,2.1-0.3s1.1-0.4,1.6-0.7c0.5-0.2,0.9-0.4,1.2-0.6c0.3-0.2,0.6-0.3,1-0.3c0.2,0,0.4,0,0.6,0.1
		c0.2,0.1,0.2,0.2,0.4,0.3l1.5,1.9c-0.6,0.7-1.2,1.2-1.9,1.7s-1.5,0.8-2.2,1.1c-0.8,0.2-1.6,0.4-2.4,0.5c-0.8,0.1-1.6,0.2-2.3,0.2
		c-1.5,0-2.8-0.2-4.1-0.7c-1.3-0.5-2.4-1.2-3.3-2.2c-1-1-1.7-2.2-2.2-3.6s-0.8-3.1-0.8-5c0-1.5,0.2-2.8,0.7-4.1
		c0.5-1.3,1.2-2.4,2-3.4c0.9-1,2-1.7,3.2-2.2s2.7-0.8,4.3-0.8C128.5,15.8,129.8,16,130.9,16.4z M123.8,20.7c-0.8,0.8-1.4,2-1.6,3.6
		h9.7c0-0.7-0.1-1.3-0.3-1.9s-0.5-1.1-0.8-1.5c-0.4-0.5-0.8-0.8-1.4-1c-0.6-0.2-1.2-0.4-2-0.4C125.8,19.5,124.6,19.9,123.8,20.7z"/>
	<path class="st3" d="M157.2,34.3c-0.6,0.7-1.2,1.2-1.8,1.7c-0.7,0.5-1.4,0.8-2.1,1.1c-0.7,0.2-1.5,0.4-2.2,0.5s-1.5,0.2-2.3,0.2
		c-1.3,0-2.5-0.2-3.7-0.7s-2.2-1.2-3-2.2c-0.9-1-1.6-2.1-2.1-3.5c-0.5-1.4-0.7-3-0.7-4.7c0-1.6,0.2-3,0.7-4.3s1.1-2.5,2-3.5
		s2-1.7,3.2-2.3c1.3-0.5,2.8-0.8,4.5-0.8s4,0.5,6.7,1.5v6.6h-0.2h-0.5H154c-0.5,0-0.8-0.3-1-0.8c0-0.3-0.2-1.3-0.3-3
		c-1.1-0.3-2-0.4-2.7-0.4c-0.9,0-1.7,0.2-2.4,0.5s-1.2,0.7-1.7,1.4c-0.5,0.6-0.8,1.4-1,2.2c-0.2,0.9-0.3,1.8-0.3,2.9s0.1,2.2,0.4,3
		c0.2,0.9,0.6,1.6,1,2.2c0.5,0.6,1,1,1.7,1.4c0.7,0.3,1.4,0.5,2.2,0.5s1.5-0.1,2-0.3s1-0.4,1.3-0.7c0.3-0.2,0.7-0.5,0.9-0.7
		s0.5-0.3,0.8-0.3c0.4,0,0.7,0.1,1,0.5L157.2,34.3z"/>
	<path class="st3" d="M163.7,36.2c-1-1-1.5-2.5-1.5-4.3V20H160c-0.3,0-0.5-0.1-0.7-0.3c-0.2-0.2-0.3-0.4-0.3-0.8v-2.1l3.5-0.5
		l1.1-5.8c0-0.3,0.2-0.5,0.4-0.6c0.2-0.2,0.5-0.2,0.8-0.2h2.7v6.7h5.6V20h-5.6v11.6c0,0.7,0.2,1.2,0.5,1.5c0.3,0.4,0.8,0.5,1.3,0.5
		c0.3,0,0.6,0,0.8-0.1s0.4-0.2,0.5-0.2c0.2-0.1,0.3-0.2,0.5-0.2c0.1-0.1,0.2-0.1,0.3-0.1c0.2,0,0.3,0,0.4,0.1
		c0.1,0.1,0.2,0.2,0.3,0.3l1.5,2.5c-0.7,0.6-1.6,1.1-2.6,1.4c-1,0.3-2,0.5-3,0.5C166.2,37.8,164.7,37.3,163.7,36.2z"/>
	<path class="st3" d="M193.1,16.5l-0.7,3.9c0,0.2-0.1,0.4-0.2,0.5c-0.1,0.1-0.3,0.2-0.6,0.2c-0.2,0-0.5,0-0.8-0.1
		c-0.4-0.1-0.9-0.2-1.5-0.2c-1.1,0-2,0.3-2.7,0.9s-1.4,1.5-1.9,2.6v9.2c1.8,0.3,1.7,0.3,2.1,0.4c0.7,0.2,1,0.6,1,1.3v2.5h-3.1h-5.2
		h-3.1V35c0-0.7,0.3-1.1,1-1.3c0.3,0,0.3,0,2.1-0.4V20.2c-1.8-0.3-1.7-0.3-2.1-0.4c-0.7-0.2-1-0.6-1-1.3V16h3.1h3
		c0.5,0,0.9,0.1,1.1,0.3c0.2,0.2,0.3,0.5,0.4,1l0.3,2.6c0.7-1.3,1.6-2.4,2.7-3.1c1-0.7,2.2-1.1,3.5-1.1
		C191.6,15.8,192.4,16,193.1,16.5z"/>
	<path class="st3" d="M219.7,35v2.5h-3.1h-3.2c-0.7,0-1.1-0.3-1.3-1l-0.4-1.7c-0.5,0.5-0.9,0.9-1.4,1.2c-0.5,0.4-1,0.7-1.5,0.9
		s-1.1,0.5-1.7,0.6c-0.6,0.1-1.2,0.2-2,0.2c-1.2,0-2.2-0.2-3.1-0.6c-0.9-0.4-1.6-1-2.2-1.7c-0.6-0.7-1-1.5-1.4-2.5
		c-0.3-1-0.5-2.1-0.5-3.3v-9.4c-1.8-0.3-1.8-0.3-2.1-0.4c-0.7-0.2-1-0.6-1-1.3V16h3.2h5.1v13.6c0,1.3,0.3,2.3,0.9,3
		c0.6,0.7,1.5,1,2.7,1c0.9,0,1.7-0.2,2.5-0.6c0.8-0.4,1.5-0.9,2.2-1.6V20.2c-1.7-0.3-1.7-0.3-2.1-0.4c-0.7-0.2-1-0.6-1-1.3V16h3.1
		h5.2v17.2c1.8,0.3,1.7,0.3,2.1,0.4C219.4,33.9,219.7,34.3,219.7,35z"/>
	<path class="st3" d="M258.4,35v2.5h-3.1h-5.2V23.9c0-1.4-0.3-2.4-0.9-3.1c-0.6-0.7-1.5-1-2.6-1c-0.5,0-1,0.1-1.5,0.3
		c-0.5,0.2-0.8,0.4-1.2,0.7c-0.3,0.3-0.6,0.8-0.8,1.3s-0.3,1.1-0.3,1.8v9.4c0.5,0.1,0.9,0.2,1.2,0.2s0.5,0.1,0.6,0.1s0.2,0,0.2,0
		c0.7,0.2,1,0.6,1,1.3v2.5h-3.1h-5.2V23.9c0-1.4-0.3-2.5-0.9-3.1c-0.6-0.7-1.4-1-2.5-1c-0.7,0-1.4,0.2-2.1,0.5
		c-0.7,0.4-1.2,0.9-1.8,1.5v11.5c0.5,0.1,0.9,0.2,1.2,0.2s0.5,0.1,0.6,0.1s0.2,0,0.2,0c0.7,0.2,1,0.6,1,1.3v2.5h-3.1h-5.2h-3.1V35
		c0-0.7,0.3-1.1,1-1.3c0,0,0.1,0,0.2,0s0.3-0.1,0.6-0.1s0.7-0.1,1.2-0.2V20.2c-0.5-0.1-0.9-0.2-1.2-0.2s-0.5-0.1-0.6-0.1
		s-0.2,0-0.2,0c-0.7-0.2-1.1-0.6-1.1-1.3v-2.5h3.2h3.2c0.7,0,1.1,0.3,1.3,1l0.3,1.6c0.4-0.4,0.7-0.8,1.2-1.2
		c0.4-0.3,0.9-0.6,1.3-0.9c0.5-0.2,1-0.5,1.5-0.6c0.5-0.2,1.1-0.2,1.7-0.2c1.3,0,2.5,0.3,3.3,1.1c0.9,0.7,1.5,1.7,2,2.9
		c0.3-0.7,0.7-1.3,1.2-1.8s1-0.9,1.6-1.2c0.6-0.3,1.2-0.5,1.9-0.7c0.7-0.2,1.4-0.2,2-0.2c1.2,0,2.2,0.2,3.1,0.5
		c0.9,0.4,1.7,0.9,2.3,1.6s1.1,1.5,1.4,2.5c0.3,1,0.5,2.2,0.5,3.5v9.4c0.5,0.1,0.9,0.2,1.2,0.2c0.3,0,0.5,0.1,0.6,0.1s0.2,0,0.2,0
		C258.1,33.9,258.4,34.3,258.4,35z"/>
</g>
<g>
	<path class="st0" d="M41.4,1.3c-1-0.3-2.1-0.5-3.2-0.7c-6.3,2.8-15.5,7.6-22.9,13.7c-8.4,7-12.4,14-12.1,21
		c0.7,1.1,1.5,2.2,2.4,3.2C0.9,20.4,30.8,5.9,41.4,1.3z"/>
	<path class="st0" d="M34.5,0.6l0.9-0.4l0,0c-0.3,0-0.7-0.1-1-0.1c-1-0.1-2-0.1-3-0.1C24.5,3.3,15.8,8.1,9.2,14.2
		C4.4,18.6,1.3,23.1,0,27.5c0.3,1.4,0.7,2.8,1.2,4.1C2.2,17,24.1,5.4,34.5,0.6z"/>
	<path class="st1" d="M46.3,2.9c-0.9-0.3-1.7-0.7-2.6-1C31.7,7.2,3.3,21.8,7.6,40.5c0.8,0.8,1.7,1.5,2.7,2.2l-0.1-0.2
		C2.6,23.1,35.7,7.4,46.3,2.9z"/>
	<path class="st2" d="M22.4,36.2c2.8-6.4,9.4-12.8,19.7-19c5.6-3.4,11.2-6,14.9-7.7c-0.5-0.5-1.1-0.9-1.6-1.4
		c-9.7,4.3-29,14.3-34.7,27.3c-1.8,4.1-2.1,8.2-1,12.2c0.7,0.3,1.5,0.5,2.2,0.7C20.4,44.4,20.6,40.3,22.4,36.2z"/>
	<path class="st2" d="M18.4,34.1c2.8-6.4,9.5-12.8,19.7-19c6.1-3.7,12-6.4,15.8-8c-0.6-0.4-1.2-0.9-1.9-1.3
		C42.5,10,22.6,20,16.7,33.3c-1.9,4.3-2.2,8.6-0.9,12.8c0.8,0.4,1.6,0.7,2.4,1.1L18,46.8C16.4,42.6,16.6,38.3,18.4,34.1z"/>
	<path class="st1" d="M14.5,32c5.9-13.5,27.9-23.7,36-27.2C49.8,4.4,49,4,48.3,3.7c-9.6,4.1-29.6,14.1-35.5,27.5
		c-1.8,4.2-2.1,8.4-0.9,12.6c0.8,0.5,1.7,1.1,2.6,1.5l-0.3-0.7C12.5,40.5,12.6,36.3,14.5,32z"/>
</g>
<g>
	<path class="st3" d="M83.1,53.5c-0.1,0-0.2,0-0.3,0.1c-0.1,0-0.3,0.1-0.6,0.1v10c0.2,0,0.4,0.1,0.6,0.1c0.1,0,0.2,0.1,0.3,0.1
		c0.1,0,0.1,0,0.1,0c0.3,0.1,0.5,0.3,0.5,0.6v1.1h-1.4h-2.6h-1.4v-1.1c0-0.3,0.2-0.5,0.5-0.6h0.1c0.1,0,0.2,0,0.3-0.1
		c0.1,0,0.3-0.1,0.6-0.1v-4.1h-6.4v4.1c0.2,0,0.4,0.1,0.6,0.1c0.1,0,0.2,0.1,0.3,0.1c0.1,0,0.1,0,0.1,0c0.3,0.1,0.5,0.3,0.5,0.6v1.1
		h-1.4h-2.6h-1.4v-1.1c0-0.3,0.2-0.5,0.5-0.6h0.1c0.1,0,0.2,0,0.3-0.1c0.1,0,0.3-0.1,0.6-0.1v-10c-0.2,0-0.4-0.1-0.6-0.1
		c-0.1,0-0.2-0.1-0.3-0.1c-0.1,0-0.1,0-0.1,0c-0.3-0.1-0.5-0.3-0.5-0.6v-1.1h1.4h2.6h1.4v1.1c0,0.3-0.2,0.5-0.5,0.6h-0.1
		c-0.1,0-0.2,0-0.3,0.1c-0.1,0-0.3,0.1-0.6,0.1v4h6.4v-4c-0.2,0-0.4-0.1-0.6-0.1c-0.1,0-0.2,0-0.3-0.1c-0.1,0-0.1,0-0.1,0
		c-0.3-0.1-0.5-0.3-0.5-0.6v-1.1h1.4h2.6h1.4v1.1C83.7,53.2,83.5,53.4,83.1,53.5L83.1,53.5z"/>
	<path class="st3" d="M91.6,55.9c0.5,0.2,0.9,0.5,1.3,0.9s0.7,0.8,0.9,1.4c0.2,0.6,0.3,1.2,0.3,1.9c0,0.2,0,0.3,0,0.5
		c0,0.1,0,0.2-0.1,0.3c0,0.1-0.1,0.1-0.2,0.2c-0.1,0-0.2,0-0.3,0h-6c0.1,1,0.3,1.7,0.8,2.2s1.1,0.7,1.9,0.7c0.4,0,0.7,0,1-0.1
		s0.5-0.2,0.7-0.3s0.4-0.2,0.6-0.3s0.3-0.1,0.4-0.1s0.2,0,0.3,0.1c0.1,0,0.1,0.1,0.2,0.2l0.7,0.9c-0.3,0.3-0.6,0.6-0.9,0.8
		c-0.3,0.2-0.7,0.4-1,0.5c-0.4,0.1-0.7,0.2-1.1,0.2C90.7,66,90.4,66,90,66c-0.7,0-1.3-0.1-1.9-0.3c-0.6-0.2-1.1-0.6-1.5-1
		s-0.8-1-1-1.6s-0.4-1.4-0.4-2.3c0-0.7,0.1-1.3,0.3-1.9c0.2-0.6,0.5-1.1,0.9-1.5s0.9-0.8,1.5-1s1.3-0.4,2-0.4
		C90.5,55.6,91,55.7,91.6,55.9z M88.3,57.9c-0.4,0.4-0.6,0.9-0.7,1.6H92c0-0.3-0.1-0.6-0.1-0.9c-0.1-0.3-0.2-0.5-0.4-0.7
		c-0.2-0.2-0.4-0.4-0.6-0.5c-0.3-0.1-0.6-0.2-0.9-0.2C89.2,57.3,88.7,57.5,88.3,57.9z"/>
	<path class="st3" d="M105.3,64.4v1.1h-1.2h-0.2H103c-0.2,0-0.4,0-0.5-0.1s-0.2-0.2-0.3-0.4l-0.2-0.7c-0.2,0.2-0.5,0.4-0.7,0.6
		s-0.5,0.3-0.7,0.4s-0.5,0.2-0.8,0.2c-0.3,0.1-0.6,0.1-0.9,0.1c-0.4,0-0.8-0.1-1.1-0.2c-0.3-0.1-0.6-0.3-0.9-0.5
		c-0.2-0.2-0.5-0.5-0.6-0.8c-0.1-0.3-0.2-0.7-0.2-1.1c0-0.4,0.1-0.7,0.3-1.1c0.2-0.4,0.5-0.7,1-1s1-0.5,1.8-0.7
		c0.7-0.2,1.7-0.3,2.8-0.3v-0.6c0-0.7-0.2-1.1-0.4-1.5c-0.3-0.3-0.7-0.5-1.2-0.5c-0.4,0-0.7,0-0.9,0.1c-0.2,0.1-0.5,0.2-0.7,0.3
		s-0.4,0.2-0.5,0.3c-0.2,0.1-0.3,0.1-0.5,0.1s-0.3,0-0.4-0.1s-0.2-0.2-0.3-0.3L96.7,57c1.1-1,2.5-1.6,4-1.6c0.6,0,1.1,0.1,1.5,0.3
		s0.8,0.5,1.1,0.8c0.3,0.3,0.6,0.7,0.7,1.2c0.2,0.5,0.2,1,0.2,1.5v4.3c0.2,0,0.4,0.1,0.5,0.1s0.2,0,0.2,0
		C105.1,63.9,105.3,64.1,105.3,64.4z M101.8,61.4c-0.7,0-1.3,0-1.7,0.1c-0.5,0.1-0.8,0.2-1.1,0.3c-0.3,0.1-0.5,0.3-0.6,0.5
		s-0.2,0.4-0.2,0.6c0,0.4,0.1,0.7,0.4,0.9c0.2,0.2,0.6,0.3,0.9,0.3c0.2,0,0.5,0,0.7-0.1c0.2,0,0.4-0.1,0.6-0.2
		c0.2-0.1,0.3-0.2,0.5-0.3s0.3-0.3,0.5-0.5C101.8,63,101.8,61.4,101.8,61.4z"/>
	<path class="st3" d="M112,64.4v1.1h-1.4h-2.3h-1.4v-1.1c0-0.3,0.2-0.5,0.5-0.6h0.1c0.1,0,0.2,0,0.3-0.1c0.1,0,0.3-0.1,0.6-0.1V53.3
		c-0.2,0-0.4-0.1-0.6-0.1c-0.1,0-0.2-0.1-0.3-0.1c-0.1,0-0.1,0-0.1,0c-0.3-0.1-0.5-0.3-0.5-0.6v-1.1h1.4h2.3v12.2
		c0.2,0,0.4,0.1,0.6,0.1c0.1,0,0.2,0,0.3,0.1c0.1,0,0.1,0,0.1,0C111.9,63.9,112,64.1,112,64.4z"/>
	<path class="st3" d="M115.6,65c-0.5-0.5-0.7-1.1-0.7-2v-5.4h-1c-0.1,0-0.2-0.1-0.3-0.1c-0.1-0.1-0.2-0.2-0.2-0.4v-1l1.6-0.2
		l0.5-2.7c0-0.1,0.1-0.2,0.2-0.3s0.2-0.1,0.4-0.1h1.2v3.1h2.6v1.7h-2.6v5.3c0,0.3,0.1,0.5,0.2,0.7c0.2,0.2,0.4,0.2,0.6,0.2
		s0.3,0,0.4,0s0.2-0.1,0.2-0.1c0.1,0,0.2-0.1,0.2-0.1c0.1,0,0.1,0,0.2,0s0.2,0,0.2,0s0.1,0.1,0.1,0.2l0.7,1.1
		c-0.3,0.3-0.7,0.5-1.2,0.6c-0.4,0.2-0.9,0.2-1.4,0.2C116.7,65.7,116,65.4,115.6,65z"/>
	<path class="st3" d="M132.9,64.4v1.1h-1.4h-2.4v-6.2c0-0.6-0.1-1.1-0.4-1.4c-0.3-0.3-0.7-0.5-1.2-0.5c-0.4,0-0.8,0.1-1.1,0.3
		c-0.4,0.2-0.7,0.4-1,0.7v5.2c0.2,0,0.4,0.1,0.6,0.1c0.1,0,0.2,0.1,0.3,0.1c0.1,0,0.1,0,0.1,0c0.3,0.1,0.5,0.3,0.5,0.6v1.1h-1.4H123
		h-1.4v-1.1c0-0.3,0.2-0.5,0.5-0.6h0.1c0.1,0,0.2,0,0.3-0.1c0.1,0,0.3-0.1,0.6-0.1V53.3c-0.2,0-0.4-0.1-0.6-0.1
		c-0.1,0-0.2-0.1-0.3-0.1c-0.1,0-0.1,0-0.1,0c-0.3-0.1-0.5-0.3-0.5-0.6v-1.1h1.4h2.3v5.4c0.4-0.4,0.8-0.6,1.3-0.9
		c0.5-0.2,1-0.3,1.6-0.3c0.5,0,1,0.1,1.4,0.3s0.7,0.4,1,0.8c0.3,0.3,0.5,0.7,0.6,1.2s0.2,0.9,0.2,1.5v4.3c0.2,0,0.4,0.1,0.6,0.1
		c0.1,0,0.2,0,0.3,0.1c0.1,0,0.1,0,0.1,0C132.7,63.9,132.9,64.1,132.9,64.4z"/>
	<path class="st3" d="M142.6,64.1c-0.3,0.3-0.5,0.6-0.8,0.8c-0.3,0.2-0.6,0.4-1,0.5c-0.3,0.1-0.7,0.2-1,0.2c-0.3,0.1-0.7,0.1-1,0.1
		c-0.6,0-1.2-0.1-1.7-0.3c-0.5-0.2-1-0.6-1.4-1s-0.7-1-1-1.6c-0.2-0.6-0.3-1.3-0.3-2.1c0-0.7,0.1-1.4,0.3-2s0.5-1.1,0.9-1.6
		s0.9-0.8,1.5-1s1.3-0.4,2-0.4c0.8,0,1.8,0.2,3.1,0.7v3h-0.1h-0.2h-0.8c-0.2,0-0.4-0.1-0.4-0.4c0-0.2-0.1-0.6-0.2-1.4
		c-0.5-0.1-0.9-0.2-1.3-0.2c-0.4,0-0.8,0.1-1.1,0.2c-0.3,0.2-0.6,0.3-0.8,0.6s-0.4,0.6-0.5,1s-0.2,0.8-0.2,1.3s0.1,1,0.2,1.4
		c0.1,0.4,0.3,0.7,0.5,1s0.5,0.5,0.8,0.6s0.6,0.2,1,0.2s0.7,0,0.9-0.1s0.4-0.2,0.6-0.3c0.2-0.1,0.3-0.2,0.4-0.3
		c0.1-0.1,0.2-0.1,0.4-0.1s0.3,0.1,0.4,0.2L142.6,64.1z"/>
	<path class="st3" d="M153.2,64.4v1.1H152h-0.2H151c-0.2,0-0.4,0-0.5-0.1s-0.2-0.2-0.3-0.4l-0.2-0.7c-0.2,0.2-0.5,0.4-0.7,0.6
		s-0.5,0.3-0.7,0.4s-0.5,0.2-0.8,0.2c-0.3,0.1-0.6,0.1-1,0.1s-0.8-0.1-1.1-0.2s-0.6-0.3-0.9-0.5c-0.2-0.2-0.5-0.5-0.6-0.8
		c-0.1-0.3-0.2-0.7-0.2-1.1c0-0.4,0.1-0.7,0.3-1.1c0.2-0.4,0.5-0.7,1-1s1-0.5,1.8-0.7c0.7-0.2,1.7-0.3,2.8-0.3v-0.6
		c0-0.7-0.2-1.1-0.4-1.5c-0.3-0.3-0.7-0.5-1.2-0.5c-0.4,0-0.7,0-0.9,0.1s-0.5,0.2-0.7,0.3s-0.4,0.2-0.5,0.3
		c-0.2,0.1-0.3,0.1-0.5,0.1s-0.3,0-0.4-0.1c-0.1-0.1-0.2-0.2-0.3-0.3l-0.4-0.7c1.1-1,2.5-1.6,4-1.6c0.6,0,1.1,0.1,1.5,0.3
		s0.8,0.5,1.1,0.8s0.6,0.7,0.7,1.2c0.2,0.5,0.2,1,0.2,1.5v4.3c0.2,0,0.4,0.1,0.5,0.1s0.2,0,0.2,0C153.1,63.9,153.2,64.1,153.2,64.4z
		 M149.7,61.4c-0.7,0-1.3,0-1.7,0.1c-0.5,0.1-0.8,0.2-1.1,0.3s-0.5,0.3-0.6,0.5s-0.2,0.4-0.2,0.6c0,0.4,0.1,0.7,0.4,0.9
		c0.2,0.2,0.6,0.3,1,0.3c0.2,0,0.5,0,0.7-0.1c0.2,0,0.4-0.1,0.6-0.2c0.2-0.1,0.3-0.2,0.5-0.3s0.3-0.3,0.5-0.5L149.7,61.4L149.7,61.4
		z"/>
	<path class="st3" d="M162.4,55.9l-0.3,1.8c0,0.1-0.1,0.2-0.1,0.2c-0.1,0-0.2,0.1-0.3,0.1s-0.2,0-0.4-0.1c-0.2,0-0.4-0.1-0.7-0.1
		c-0.5,0-0.9,0.1-1.3,0.4c-0.3,0.3-0.6,0.7-0.9,1.2v4.2c0.8,0.2,0.8,0.2,1,0.2c0.3,0.1,0.5,0.3,0.5,0.6v1.1h-1.4h-2.4h-1.4v-1.1
		c0-0.3,0.2-0.5,0.5-0.6c0.2,0,0.1,0,1-0.2v-6c-0.8-0.2-0.8-0.2-1-0.2c-0.3-0.1-0.5-0.3-0.5-0.6v-1.1h1.4h1.4c0.2,0,0.4,0,0.5,0.1
		s0.2,0.2,0.2,0.5l0.2,1.2c0.3-0.6,0.7-1.1,1.2-1.4c0.5-0.3,1-0.5,1.6-0.5C161.7,55.6,162.1,55.7,162.4,55.9z"/>
	<path class="st3" d="M170.2,55.9c0.5,0.2,1,0.5,1.3,0.9c0.4,0.4,0.7,0.8,0.9,1.4c0.2,0.6,0.3,1.2,0.3,1.9c0,0.2,0,0.3,0,0.5
		c0,0.1,0,0.2-0.1,0.3c0,0.1-0.1,0.1-0.2,0.2c-0.1,0-0.2,0-0.3,0h-6c0.1,1,0.3,1.7,0.8,2.2s1.1,0.7,1.9,0.7c0.4,0,0.7,0,1-0.1
		s0.5-0.2,0.7-0.3s0.4-0.2,0.6-0.3c0.2-0.1,0.3-0.1,0.4-0.1c0.1,0,0.2,0,0.3,0.1c0.1,0,0.1,0.1,0.2,0.2l0.7,0.9
		c-0.3,0.3-0.6,0.6-0.9,0.8c-0.3,0.2-0.7,0.4-1,0.5c-0.4,0.1-0.7,0.2-1.1,0.2c-0.4,0.1-0.7,0.1-1.1,0.1c-0.7,0-1.3-0.1-1.9-0.3
		c-0.6-0.2-1.1-0.6-1.5-1s-0.8-1-1-1.6s-0.4-1.4-0.4-2.3c0-0.7,0.1-1.3,0.3-1.9c0.2-0.6,0.5-1.1,0.9-1.5s0.9-0.8,1.5-1
		s1.3-0.4,2-0.4C169.1,55.6,169.7,55.7,170.2,55.9z M167,57.9c-0.4,0.4-0.6,0.9-0.7,1.6h4.4c0-0.3-0.1-0.6-0.1-0.9
		c-0.1-0.3-0.2-0.5-0.4-0.7s-0.4-0.4-0.6-0.5c-0.3-0.1-0.6-0.2-0.9-0.2C167.9,57.3,167.4,57.5,167,57.9z"/>
	<path class="st3" d="M190.5,56.2c0,0.7-0.1,1.3-0.3,1.8c-0.2,0.6-0.6,1-1,1.4s-1,0.7-1.7,0.9s-1.4,0.3-2.3,0.3h-1.7v3
		c0.2,0,0.4,0.1,0.6,0.1c0.1,0,0.2,0.1,0.3,0.1s0.1,0,0.1,0c0.3,0.1,0.5,0.3,0.5,0.6v1.1h-1.4H181h-1.4v-1.1c0-0.3,0.2-0.5,0.5-0.6
		h0.1c0.1,0,0.2,0,0.3-0.1c0.1,0,0.3-0.1,0.6-0.1v-10c-0.2,0-0.4-0.1-0.6-0.1c-0.1,0-0.2-0.1-0.3-0.1s-0.1,0-0.1,0
		c-0.3-0.1-0.5-0.3-0.5-0.6v-1.1h1.4h4.2c0.9,0,1.7,0.1,2.4,0.3s1.2,0.5,1.7,0.9c0.4,0.4,0.8,0.8,1,1.4
		C190.4,54.9,190.5,55.5,190.5,56.2z M188,56.2c0-0.4-0.1-0.7-0.2-1c-0.1-0.3-0.3-0.6-0.5-0.8s-0.5-0.4-0.9-0.5
		c-0.3-0.1-0.8-0.2-1.2-0.2h-1.7v4.9h1.7c0.5,0,0.9-0.1,1.2-0.2c0.3-0.1,0.6-0.3,0.9-0.5c0.2-0.2,0.4-0.5,0.5-0.8
		C187.9,56.9,188,56.6,188,56.2z"/>
	<path class="st3" d="M200.8,64.4v1.1h-1.2h-0.2h-0.8c-0.2,0-0.4,0-0.5-0.1s-0.2-0.2-0.3-0.4l-0.2-0.7c-0.2,0.2-0.5,0.4-0.7,0.6
		s-0.5,0.3-0.7,0.4s-0.5,0.2-0.8,0.2c-0.3,0.1-0.6,0.1-1,0.1s-0.8-0.1-1.1-0.2s-0.6-0.3-0.9-0.5c-0.2-0.2-0.5-0.5-0.6-0.8
		c-0.1-0.3-0.2-0.7-0.2-1.1c0-0.4,0.1-0.7,0.3-1.1c0.2-0.4,0.5-0.7,1-1s1-0.5,1.8-0.7c0.7-0.2,1.7-0.3,2.8-0.3v-0.6
		c0-0.7-0.2-1.1-0.4-1.5c-0.3-0.3-0.7-0.5-1.2-0.5c-0.4,0-0.7,0-0.9,0.1s-0.5,0.2-0.7,0.3s-0.4,0.2-0.5,0.3
		c-0.2,0.1-0.3,0.1-0.5,0.1s-0.3,0-0.4-0.1c-0.1-0.1-0.2-0.2-0.3-0.3l-0.4-0.7c1.1-1,2.5-1.6,4-1.6c0.6,0,1.1,0.1,1.5,0.3
		s0.8,0.5,1.1,0.8s0.6,0.7,0.7,1.2c0.2,0.5,0.2,1,0.2,1.5v4.3c0.2,0,0.4,0.1,0.5,0.1s0.2,0,0.2,0C200.6,63.9,200.8,64.1,200.8,64.4z
		 M197.3,61.4c-0.7,0-1.3,0-1.7,0.1c-0.5,0.1-0.8,0.2-1.1,0.3s-0.5,0.3-0.6,0.5s-0.2,0.4-0.2,0.6c0,0.4,0.1,0.7,0.4,0.9
		c0.2,0.2,0.6,0.3,1,0.3c0.2,0,0.5,0,0.7-0.1c0.2,0,0.4-0.1,0.6-0.2c0.2-0.1,0.3-0.2,0.5-0.3s0.3-0.3,0.5-0.5L197.3,61.4L197.3,61.4
		z"/>
	<path class="st3" d="M210,55.9l-0.3,1.8c0,0.1-0.1,0.2-0.1,0.2c-0.1,0-0.2,0.1-0.3,0.1s-0.2,0-0.4-0.1c-0.2,0-0.4-0.1-0.7-0.1
		c-0.5,0-0.9,0.1-1.3,0.4c-0.3,0.3-0.6,0.7-0.9,1.2v4.2c0.8,0.2,0.8,0.2,1,0.2c0.3,0.1,0.5,0.3,0.5,0.6v1.1h-1.4h-2.4h-1.4v-1.1
		c0-0.3,0.2-0.5,0.5-0.6c0.2,0,0.1,0,1-0.2v-6c-0.8-0.2-0.8-0.2-1-0.2c-0.3-0.1-0.5-0.3-0.5-0.6v-1.1h1.4h1.4c0.2,0,0.4,0,0.5,0.1
		s0.2,0.2,0.2,0.5l0.2,1.2c0.3-0.6,0.7-1.1,1.2-1.4c0.5-0.3,1-0.5,1.6-0.5C209.3,55.6,209.7,55.7,210,55.9z"/>
	<path class="st3" d="M213.5,65c-0.5-0.5-0.7-1.1-0.7-2v-5.4h-1c-0.1,0-0.2-0.1-0.3-0.1c-0.1-0.1-0.2-0.2-0.2-0.4v-1l1.6-0.2
		l0.5-2.7c0-0.1,0.1-0.2,0.2-0.3c0.1-0.1,0.2-0.1,0.4-0.1h1.2v3.1h2.6v1.7h-2.6v5.3c0,0.3,0.1,0.5,0.2,0.7c0.2,0.2,0.4,0.2,0.6,0.2
		c0.2,0,0.3,0,0.4,0c0.1,0,0.2-0.1,0.2-0.1c0.1,0,0.2-0.1,0.2-0.1c0.1,0,0.1,0,0.2,0c0.1,0,0.2,0,0.2,0s0.1,0.1,0.1,0.2l0.7,1.1
		c-0.3,0.3-0.7,0.5-1.2,0.6c-0.4,0.2-0.9,0.2-1.4,0.2C214.6,65.7,213.9,65.4,213.5,65z"/>
	<path class="st3" d="M230.8,64.4v1.1h-1.4H227v-6.2c0-0.6-0.2-1.1-0.4-1.4c-0.3-0.3-0.7-0.5-1.2-0.5c-0.4,0-0.8,0.1-1.1,0.3
		c-0.4,0.2-0.7,0.4-1,0.7v5.2c0.2,0,0.4,0.1,0.6,0.1c0.1,0,0.2,0,0.3,0.1c0.1,0,0.1,0,0.1,0c0.3,0.1,0.5,0.3,0.5,0.6v1.1h-1.4H221
		h-1.4v-1.1c0-0.3,0.2-0.5,0.5-0.6h0.1c0.1,0,0.2,0,0.3-0.1c0.1,0,0.3-0.1,0.6-0.1v-6c-0.2,0-0.4-0.1-0.6-0.1
		c-0.1,0-0.2-0.1-0.3-0.1s-0.1,0-0.1,0c-0.3-0.1-0.5-0.3-0.5-0.6v-1.1h1.4h1.4c0.3,0,0.5,0.2,0.6,0.4l0.2,0.8
		c0.2-0.2,0.4-0.4,0.6-0.6c0.2-0.2,0.5-0.3,0.7-0.4c0.2-0.1,0.5-0.2,0.8-0.3s0.6-0.1,0.9-0.1c0.5,0,1,0.1,1.4,0.3s0.7,0.4,1,0.8
		c0.3,0.3,0.5,0.7,0.6,1.2c0.2,0.5,0.2,1,0.2,1.5v4.3c0.2,0,0.4,0.1,0.6,0.1c0.1,0,0.2,0.1,0.3,0.1s0.1,0,0.1,0
		C230.6,63.9,230.8,64.1,230.8,64.4z"/>
	<path class="st3" d="M238.7,55.9c0.5,0.2,1,0.5,1.3,0.9c0.4,0.4,0.7,0.8,0.9,1.4c0.2,0.6,0.3,1.2,0.3,1.9c0,0.2,0,0.3,0,0.5
		c0,0.1,0,0.2-0.1,0.3c0,0.1-0.1,0.1-0.2,0.2c-0.1,0-0.2,0-0.3,0h-6c0.1,1,0.3,1.7,0.8,2.2s1.1,0.7,1.9,0.7c0.4,0,0.7,0,1-0.1
		s0.5-0.2,0.7-0.3s0.4-0.2,0.6-0.3c0.2-0.1,0.3-0.1,0.4-0.1c0.1,0,0.2,0,0.3,0.1c0.1,0,0.1,0.1,0.2,0.2l0.7,0.9
		c-0.3,0.3-0.6,0.6-0.9,0.8c-0.3,0.2-0.7,0.4-1,0.5c-0.4,0.1-0.7,0.2-1.1,0.2c-0.4,0.1-0.7,0.1-1.1,0.1c-0.7,0-1.3-0.1-1.9-0.3
		c-0.6-0.2-1.1-0.6-1.5-1s-0.8-1-1-1.6s-0.4-1.4-0.4-2.3c0-0.7,0.1-1.3,0.3-1.9c0.2-0.6,0.5-1.1,0.9-1.5s0.9-0.8,1.5-1
		s1.3-0.4,2-0.4C237.6,55.6,238.2,55.7,238.7,55.9z M235.4,57.9c-0.4,0.4-0.6,0.9-0.7,1.6h4.4c0-0.3-0.1-0.6-0.1-0.9
		c-0.1-0.3-0.2-0.5-0.4-0.7s-0.4-0.4-0.6-0.5c-0.3-0.1-0.6-0.2-0.9-0.2C236.3,57.3,235.8,57.5,235.4,57.9z"/>
	<path class="st3" d="M250.4,55.9l-0.3,1.8c0,0.1-0.1,0.2-0.1,0.2c-0.1,0-0.2,0.1-0.3,0.1s-0.2,0-0.4-0.1c-0.2,0-0.4-0.1-0.7-0.1
		c-0.5,0-0.9,0.1-1.3,0.4c-0.3,0.3-0.6,0.7-0.9,1.2v4.2c0.8,0.2,0.8,0.2,1,0.2c0.3,0.1,0.5,0.3,0.5,0.6v1.1h-1.4h-2.4h-1.4v-1.1
		c0-0.3,0.2-0.5,0.5-0.6c0.2,0,0.1,0,1-0.2v-6c-0.8-0.2-0.8-0.2-1-0.2c-0.3-0.1-0.5-0.3-0.5-0.6v-1.1h1.4h1.4c0.2,0,0.4,0,0.5,0.1
		s0.2,0.2,0.2,0.5l0.2,1.2c0.3-0.6,0.7-1.1,1.2-1.4c0.5-0.3,1-0.5,1.6-0.5C249.6,55.6,250,55.7,250.4,55.9z"/>
	<path class="st3" d="M258.9,62.4c0,0.5-0.1,0.9-0.3,1.3c-0.2,0.4-0.4,0.7-0.7,1c-0.3,0.3-0.7,0.5-1.2,0.7s-1,0.2-1.7,0.2
		c-1.2,0-2.4-0.3-3.1-0.5v-1v-1.8h0.1h0.2h0.8c0.2,0,0.4,0.1,0.4,0.4c0,0.1,0.1,0.4,0.1,1.1C254,64,254.6,64,255,64
		c0.3,0,0.5,0,0.7-0.1s0.4-0.2,0.5-0.3s0.2-0.2,0.3-0.4c0.1-0.2,0.1-0.3,0.1-0.5s-0.1-0.4-0.2-0.6s-0.3-0.3-0.6-0.4
		c-0.2-0.1-0.5-0.2-0.8-0.3s-0.6-0.2-0.9-0.3c-0.3-0.1-0.6-0.2-0.9-0.4c-0.3-0.1-0.6-0.3-0.8-0.5s-0.4-0.5-0.5-0.8s-0.2-0.7-0.2-1.1
		c0-0.4,0.1-0.8,0.2-1.1c0.2-0.4,0.4-0.7,0.7-1s0.7-0.5,1.2-0.6c0.5-0.2,1-0.2,1.6-0.2c1,0,1.5,0.1,2.8,0.5l0,0v2.8h-0.1h-0.2h-0.8
		c-0.2,0-0.4-0.1-0.4-0.4c0-0.1-0.1-0.3-0.1-1.1c-0.2-0.1-0.7-0.1-1.1-0.1c-0.5,0-0.8,0.1-1.1,0.3s-0.4,0.5-0.4,0.8
		c0,0.2,0.1,0.4,0.2,0.5c0.1,0.2,0.3,0.2,0.5,0.4c0.2,0.1,0.5,0.2,0.8,0.3s0.6,0.2,0.9,0.3s0.6,0.2,0.9,0.4c0.3,0.1,0.5,0.3,0.8,0.5
		c0.2,0.2,0.4,0.4,0.5,0.7C258.8,61.7,258.9,62,258.9,62.4z"/>
</g>
</svg>
