<!-- Generator: Adobe Illustrator 23.0.6, SVG Export Plug-In  -->
<svg version="1.1" xmlns="http://www.w3.org/2000/svg" xmlns:xlink="http://www.w3.org/1999/xlink" x="0px" y="0px" width="176.9px"
	 height="63px" viewBox="0 0 176.9 63" style="enable-background:new 0 0 176.9 63;" xml:space="preserve">
<style type="text/css">
	.st0{fill:#CCE1EF;}
	.st1{fill:#696A6C;}
	.st2{fill:#4D4D4F;}
	.st3{fill:#0093D7;}
</style>
<defs>
</defs>
<g>
	<path class="st0" d="M31.5,24c3.9,0,7.1,2.9,7.5,6.7h0.1c0.1-3.7-3.1-7.7-7.5-8.1c-4.7-0.7-10.1,3.3-10.4,9
		c-0.7,5.5,4,11.6,10.4,11.9c6,0.7,12.5-4.3,13.3-11H39c-0.5,3.7-3.6,6.6-7.5,6.6c-4.2,0-7.5-3.4-7.5-7.5C24,27.4,27.4,24,31.5,24
		 M51,32.5c-0.3,10-9.4,18.8-19.4,18.5c-10.4,0.3-19.7-9-19.4-19.4c-0.3-10.4,9-19.7,19.4-19.4c9.5-0.3,18.2,7.6,19.3,16.9h0.2
		c-0.7-9.5-9.2-18.3-19.5-18.5C20.3,9.6,9.2,19.4,9,31.5c-0.9,12,9.6,23.8,22.5,24C44,56.4,56.2,45.7,57,32.5H51z M31.5,16.5
		c-8-0.8-16.2,6.1-16.5,15c-0.8,8.8,6.8,17.7,16.5,18c9.3,0.8,18.6-7,19.4-17h-6c-0.4,6.8-6.5,12.6-13.4,12.5
		c-7.2,0.2-13.6-6.2-13.4-13.4c-0.2-7.2,6.2-13.6,13.4-13.4c6.3-0.2,12,4.8,13.2,10.9H45C44.3,22.7,38.6,16.8,31.5,16.5"/>
	<path class="st1" d="M167.6,17.5c-0.1-1-0.2-4.9-4-4.9c-0.6,0-4.1,0-4.6,4.9H167.6z M169.4,22.3c0,2.3-2,5-6,5c-0.8,0-2-0.1-3-0.6
		c-2.6-1.2-3.5-4.3-3.5-7.3c0-3.7,1.2-8.5,6.7-8.5c4.9,0,6,4,5.9,8h-10.5c0,1.6-0.1,6.8,4.5,6.8c1.8,0,3.8-0.9,4-3.5H169.4z
		 M154.4,27h-1.9v-9.1c0-0.8,0-1.6-0.1-2.4c-0.1-0.7-0.4-3.1-3.4-3.1c-0.4,0-1.2,0.1-2,0.4c-2.3,0.9-2.4,2.6-2.4,3.6V27h-1.9V11.3
		h1.9v1.8c0.7-0.6,2.3-2.1,5.1-2.1c1.5,0,3,0.5,3.8,1.7c0.8,1.2,0.9,2.6,0.9,3.8V27z M137.8,18.9c-1.1,0.1-2.3,0.3-3.7,0.5
		c-1.1,0.2-3.8,0.7-3.8,3.3c0,1.9,1.4,3.1,3.2,3.1c0.9,0,1.9-0.3,2.7-0.8c1.5-0.9,1.6-2.3,1.6-3.3V18.9z M140.3,27h-1.3
		c-1.3,0-1.3-0.6-1.2-1.8c-0.7,0.7-1.9,2-4.9,2c-0.9,0-2.4-0.1-3.4-1.3c-0.7-0.8-1.2-2-1.2-3.2c0-1.9,1-3,1.7-3.5
		c1.2-0.9,3-1.2,5-1.4l2.8-0.3v-1.5c0-1.4,0-3.6-3.3-3.6c-3.9,0-3.9,2.8-3.9,3.8h-1.9c-0.1-4.3,3.8-5.3,6-5.3c1.4,0,3,0.3,3.8,1.3
		c1,1,1,2.5,1,3.6v3.7l-0.1,4l0,1.4c0,1,0.1,1.4,0.8,1.7V27z M128,27h-2.5l-6.3-8.5l-2.6,2.5v6h-1.9V4.8h1.9v14l7.2-7.6h2.4
		l-5.5,5.9L128,27z M106.3,12.5c-4.7,0-4.7,5.4-4.7,6.7c0,2.7,0.4,6.6,4.7,6.6c4.2,0,4.4-4.8,4.3-7.2
		C110.6,16.6,110.3,12.5,106.3,12.5 M106.2,27.3c-5.7,0-6.5-4.5-6.5-8c0-2.2,0.2-8.3,6.6-8.3c6,0,6.3,5.2,6.3,7.4
		C112.7,21.8,112.2,27.3,106.2,27.3 M86.4,21.8c0,1.4,0.4,2.4,1.3,3.1c0.7,0.6,1.7,0.9,2.9,0.9c1.6,0,2.8-0.7,3.5-1.5
		c1.2-1.4,1.4-3.3,1.4-5.2c0-0.8-0.1-2.2-0.4-3.4c-0.6-1.9-1.7-3.4-4.2-3.4c-1.5,0-2.8,0.6-3.5,1.5c-1,1.1-1,2.5-1,3.6V21.8z
		 M84.7,11.3h1.8v1.9c0.6-0.7,2-2.3,5-2.3c5.4,0,6.2,5.2,6.2,7.9c0,5.5-2.5,8.5-6.8,8.5c-2.8,0-3.9-1.4-4.3-2v8.1h-1.8V11.3z
		 M73.7,16c-2.9-1.3-5.2-2.3-5.2-5.8c0-2.3,1.2-5.7,6.9-5.7c0.8,0,3.1,0,4.7,1.4c1.6,1.4,1.6,3.5,1.7,4.7h-2.1c0-0.6,0-1.3-0.3-2.1
		c-0.6-1.8-2.2-2.5-4-2.5c-2.7,0-4.7,1.4-4.7,3.9c0,2.5,1.9,3.3,4.4,4.4l1.4,0.6c2.7,1.1,5.6,2.4,5.6,6.3c0,1-0.2,2.1-0.7,3
		c-1.3,2.4-3.9,3.2-6.7,3.2c-2,0-4.1-0.4-5.6-1.9c-1.3-1.3-1.6-3.1-1.6-4.9l2.3,0c0,1,0,2.7,1.2,3.9c0.5,0.6,1.7,1.4,3.9,1.4
		c3.6,0,4.9-2.2,4.9-4.4c0-2.8-2-3.6-4.5-4.7L73.7,16z"/>
	<path class="st2" d="M31.9,32.5c-0.5,0-0.9-0.4-0.9-0.9c0-0.5,0.4-0.9,0.9-0.9H39c-0.4-3.8-3.6-6.7-7.5-6.7c-4.2,0-7.5,3.4-7.5,7.5
		s3.4,7.5,7.5,7.5c3.8,0,7-2.9,7.5-6.6H31.9z"/>
	<path class="st3" d="M139.4,36.9h1.9v16.2h-1.9V36.9z M139.4,30.7h1.9v2.4h-1.9V30.7z M155.6,38.3c0.9,1.2,0.9,2.7,0.9,3.9v10.8
		h-1.9v-9.4c0-0.8,0-1.6-0.1-2.4c-0.1-0.7-0.4-3.2-3.5-3.2c-0.5,0-1.2,0.1-2.1,0.4c-2.4,1-2.5,2.7-2.5,3.8v10.9h-1.9V36.9h1.9v1.8
		c0.7-0.6,2.3-2.2,5.3-2.2C153.2,36.5,154.7,37.1,155.6,38.3 M174.8,47.7h2.1c-0.1,0.8-0.3,2.8-2.2,4.3c-1.3,1.1-2.7,1.4-4.2,1.4
		c-3.5,0-5.7-1.8-6.3-5.4c-0.2-0.9-0.2-1.8-0.2-2.8c0-1.1,0.1-2.2,0.4-3.3c0.3-1.2,1-3.6,3.7-4.8c0.9-0.4,1.9-0.5,2.8-0.5
		c1.2,0,3.2,0.2,4.6,1.7c1.3,1.4,1.4,3.2,1.4,4h-2c0-2.9-1.9-4.1-4-4.1c-0.7,0-2,0.1-3.1,1.4c-1,1.2-1.3,2.7-1.4,3.7
		c-0.1,0.6-0.1,1.2-0.1,1.8c0,3.6,1.3,6.7,4.5,6.7c1,0,2.2-0.4,2.9-1.1C174.5,49.8,174.7,48.3,174.8,47.7 M159.3,30.7h1.9v2.4h-1.9
		V30.7z M159.3,36.9h1.9v16.2h-1.9V36.9z M134.3,30.2h1.9v22.8h-1.9V30.2z M82.8,53.1H69.9V32.5h2.2v7.9h9V42h-9v9.3h10.7V53.1z
		 M94,36.9h1.9L89,55.6c-0.7,1.8-1.7,4.1-4.7,4.1c-0.7,0-1.1-0.1-1.6-0.2v-1.9c0.4,0.2,0.9,0.4,1.7,0.4c2,0,2.6-1.6,3.1-3.1l0.6-1.8
		l-5.6-16h2.3l4.5,13.2L94,36.9z M106.9,43.2c-0.1-1.1-0.2-5.1-4.1-5.1c-0.6,0-4.2,0-4.7,5.1H106.9z M108.8,44.8H98
		c0,1.7-0.1,7,4.7,7c1.8,0,3.9-1,4.1-3.6h1.9c0,2.4-2,5.2-6.2,5.2c-0.9,0-2-0.1-3-0.6c-2.7-1.3-3.6-4.4-3.6-7.5
		c0-3.9,1.3-8.7,6.9-8.7C107.8,36.6,109,40.7,108.8,44.8 M129.3,46.1h2.2c-0.2,1.6-0.5,4-2.9,5.8c-1.8,1.3-4,1.6-5.7,1.6
		c-1.2,0-5.5,0-7.3-4.2c-0.9-2.1-1-4.8-1-6.8c0-1.7,0.1-3.3,0.3-4.9c0.3-1.6,0.7-3.2,1.6-4.5c2.2-3.2,5.8-3.2,7-3.2
		c0.8,0,1.6,0.1,2.4,0.2c1.3,0.3,3.3,1,4.6,3.4c0.8,1.5,0.8,2.9,0.8,3.5H129c0-4.2-2.9-5.5-5.8-5.5c-1.6,0-3.1,0.5-4.3,1.6
		c-1.3,1.3-2.2,3.5-2.2,9.2c0,1.6,0.1,2.8,0.3,4.1c0.2,1,0.4,2.1,1,3c1.5,2.5,4,2.6,5,2.6c1.6,0,3.3-0.5,4.3-1.4
		C129,49.2,129.2,47.2,129.3,46.1 M39.1,30.7L39.1,30.7L39.1,30.7c0.1-3.7-3.1-7.7-7.6-8.1c-4.7-0.7-10,3.3-10.4,9
		c-0.7,5.5,4,11.6,10.4,11.9c6,0.7,12.5-4.2,13.3-11h0.1c-0.4,6.8-6.5,12.6-13.4,12.5c-7.2,0.2-13.6-6.2-13.4-13.4
		c-0.2-7.2,6.2-13.6,13.4-13.4c6.3-0.2,12,4.8,13.2,10.9H45c-0.7-6.3-6.4-12.2-13.5-12.5c-8-0.8-16.2,6.1-16.5,15
		c-0.8,8.8,6.8,17.7,16.5,18c9.3,0.8,18.6-7,19.4-17h0c-0.3,10-9.4,18.8-19.4,18.5c-10.4,0.3-19.7-9-19.4-19.4
		c-0.3-10.4,9-19.7,19.4-19.4c9.5-0.3,18.2,7.6,19.3,16.9h0.2c-0.7-9.5-9.2-18.3-19.6-18.5C20.3,9.6,9.2,19.4,9,31.5
		c-0.9,12,9.6,23.8,22.5,24C44,56.4,56.2,45.7,57,32.5h0C56.8,45.7,44.8,57.3,31.5,57C17.9,57.4,5.7,45.1,6,31.5
		C5.7,17.9,17.9,5.7,31.5,6C44.3,5.7,55.8,16.4,56.9,29h0.2c-0.4-5.9-2.8-11.7-6.9-16.1c-4.7-5.1-11.5-8.2-18.6-8.5
		c-7.1-0.3-14.4,2.4-19.7,7.4C6.5,16.8,3.2,24.1,3,31.5C2.7,39,5.5,46.7,10.8,52.2c5.2,5.6,12.9,9.1,20.7,9.3
		c7.8,0.3,15.9-2.7,21.8-8.3c5.7-5.2,9.3-12.9,9.7-20.8h0c-0.2,7.9-3.6,15.8-9.2,21.3C48,59.6,39.7,63.1,31.5,63
		c-8.2,0-16.5-3.4-22.3-9.2C3.4,48,0,39.7,0,31.5C0,23.3,3.4,15,9.2,9.2C15,3.4,23.3,0,31.5,0C39.7,0,48,3.4,53.8,9.2
		c5.2,5.2,8.5,12.4,9.1,19.8h18.8v1.7H39.1z"/>
</g>
</svg>
