<?xml version="1.0" encoding="UTF-8"?> <!-- Generator: Adobe Illustrator 25.0.1, SVG Export Plug-In . SVG Version: 6.00 Build 0) --> <svg xmlns="http://www.w3.org/2000/svg" xmlns:xlink="http://www.w3.org/1999/xlink" version="1.1" id="Layer_1" x="0px" y="0px" viewBox="0 0 358 111" style="enable-background:new 0 0 358 111;" xml:space="preserve"> <style type="text/css"> .st0{fill:#000000;} </style> <g> <g> <path class="st0" d="M99,21.6l1.2,3.2l-0.2,0c0,0-0.3-0.4-1-1c-0.6-0.7-1.4-1.2-2.2-1.6C96,21.9,95,21.8,94,21.8 c-1.8,0-3.2,0.5-4.2,1.5c-1,1-1.6,2.2-1.6,3.7c0,0.9,0.2,1.8,0.7,2.5c0.5,0.7,1.5,1.4,3,2c2.6,0.9,4.5,1.6,5.4,2 c1,0.4,1.9,1.2,2.8,2.3c0.9,1.1,1.4,2.4,1.4,4.1c0,0.7-0.1,1.4-0.2,2c-0.2,0.6-0.4,1.2-0.8,1.8c-0.4,0.6-0.8,1.1-1.3,1.6 c-0.5,0.5-1,0.9-1.5,1.1c-0.5,0.3-1.4,0.4-2.5,0.6c-1.1,0.1-1.9,0.2-2.2,0.2h-6.9v-7.5h0.3c0,2.5,0.6,4.2,1.8,5.2 c1.1,1,2.9,1.5,5.3,1.5c2.2,0,3.9-0.5,5-1.6c1.1-1,1.7-2.3,1.7-3.7c0-0.9-0.2-1.6-0.6-2.3c-0.4-0.6-1-1.2-1.7-1.6 c-0.7-0.5-2.1-1.1-4-1.7c-2-0.7-3.4-1.3-4.2-1.8c-0.8-0.5-1.5-1.3-2-2.3c-0.5-1-0.8-2.1-0.8-3.2c0-2,0.7-3.7,2.1-5 c1.4-1.4,3.2-2,5.4-2c0.9,0,1.8,0.1,2.8,0.3c1,0.2,1.6,0.3,1.7,0.4C98.9,21.6,99,21.6,99,21.6z"></path> <path class="st0" d="M103.9,21.6v-0.3h7.4c2.6,0,4.5,0.3,5.7,0.9s2,1.3,2.6,2.2c0.5,0.9,0.8,2,0.8,3.4c0,2.2-0.8,3.8-2.3,4.9 c-1.5,1.1-3.5,1.6-6.1,1.6v-0.3c1.6,0,3-0.5,4-1.5c1-1,1.5-2.3,1.5-4c0-1.3-0.2-2.4-0.7-3.4c-0.5-1-1.2-1.7-2.1-2.3 c-0.9-0.5-2.3-0.8-4.1-0.8h-1.8v22.1c0,1.2,0.1,2,0.4,2.2c0.3,0.2,0.8,0.4,1.6,0.4v0.3h-6.8v-0.3c1.2,0,1.8-0.6,1.8-1.7V23.8 c0-0.9-0.1-1.5-0.3-1.8C105.1,21.7,104.6,21.6,103.9,21.6z"></path> <path class="st0" d="M122.9,21.6v-0.3h7.3c1.9,0,3.2,0,4,0.1c0.8,0.1,1.7,0.4,2.5,0.8c0.9,0.5,1.5,1.1,2,1.9 c0.4,0.8,0.7,1.8,0.7,2.9c0,1.3-0.4,2.6-1.2,3.7c-0.8,1.2-1.9,2.2-3.3,3l1.8,2.8c0.4,0.7,1.5,2.2,3.2,4.6c1.7,2.4,3,3.8,4,4.3 c0.9,0.5,1.8,0.8,2.7,0.8c0.9,0,1.9-0.3,3-1l0.1,0.3c-1.4,1.1-3.2,1.7-5.5,1.7c-1.5,0-2.8-0.4-3.9-1.3c-1.1-0.9-2.9-3.3-5.6-7.3 c0,0,0,0,0-0.1l-2.6-4l-2.3,0.1h-2.1v9.9c0,0.8,0.1,1.4,0.3,1.7c0.2,0.3,0.7,0.5,1.5,0.5v0.3h-6.7v-0.3c0.8,0,1.3-0.2,1.6-0.5 s0.3-1,0.3-1.9V23.9c0-0.7-0.1-1.2-0.3-1.7C124.3,21.8,123.7,21.6,122.9,21.6z M127.7,22v12.1h2.7c2.1,0,3.7-0.5,4.7-1.5 c1-1,1.5-2.3,1.5-4c0-1.6-0.5-3.1-1.5-4.5c-1-1.4-2.8-2.1-5.3-2.1H127.7z"></path> <path class="st0" d="M158,21.3v0.3c-0.3,0-0.7,0-1.1,0.2c-0.4,0.1-0.7,0.3-0.7,0.6c-0.1,0.3-0.1,0.9-0.1,1.9v19.8 c0,1.1,0,1.7,0.1,2c0.1,0.2,0.3,0.4,0.5,0.6c0.3,0.2,0.7,0.2,1.3,0.2v0.3h-6.9v-0.3c0.9,0,1.4-0.2,1.6-0.5 c0.2-0.3,0.3-1.1,0.3-2.3V24.5c0-1.2-0.1-2-0.4-2.4c-0.2-0.4-0.8-0.5-1.6-0.5v-0.3H158z"></path> <path class="st0" d="M181.7,21.3h5v0.3c-0.8,0-1.3,0.2-1.6,0.5c-0.3,0.3-0.4,0.9-0.4,1.9v23.5l-20.6-21.9v19.1 c0,0.6,0,1.1,0.1,1.3s0.2,0.5,0.4,0.6c0.2,0.1,0.6,0.2,1.3,0.3v0.3h-5v-0.3c0.9,0,1.4-0.2,1.7-0.5s0.3-1.1,0.3-2.3V26.7 c0-1.5-0.2-2.8-0.6-3.7c-0.4-1-1.4-1.4-3-1.3v-0.3h4.9l19.3,20.6V23.7c0-1-0.2-1.6-0.5-1.8c-0.4-0.2-0.8-0.3-1.3-0.3V21.3z"></path> <path class="st0" d="M214.6,46.9v0.3h-10.4c-2,0-3.7-0.2-5.2-0.6c-1.5-0.4-3-1.3-4.6-2.5c-1.6-1.2-2.8-2.7-3.8-4.5 c-1-1.8-1.4-3.6-1.4-5.5c0-2.1,0.6-4.1,1.8-6.1c1.2-2,2.9-3.7,5.2-5c2.2-1.3,4.8-1.9,7.6-1.9c2.5,0,5.2,0.6,8,1.7l1.1,3h-0.3 c-0.9-1.1-2.1-2.1-3.7-2.8c-1.6-0.8-3.3-1.1-5.2-1.1c-3.3,0-6.1,1.3-8.2,3.8c-2.1,2.5-3.2,5.6-3.2,9.3c0,1.5,0.2,2.9,0.5,4.1 c0.4,1.2,1,2.4,2,3.6c1,1.2,2,2,3.1,2.6c1.1,0.6,2.3,0.9,3.7,1.2c1.4,0.2,2.5,0.3,3.3,0.3l1.4,0c1.6-0.1,2.5-0.2,2.9-0.4 c0.4-0.2,0.6-0.8,0.6-1.8v-3.9c0-0.8-0.2-1.3-0.5-1.5c-0.3-0.3-0.8-0.4-1.3-0.3v-0.3h6.7v0.3c-0.7,0-1.2,0.1-1.5,0.4 c-0.3,0.3-0.4,0.9-0.4,1.7v4.1c0,0.8,0.1,1.4,0.3,1.8c0.2,0.4,0.6,0.5,1.2,0.5H214.6z"></path> <path class="st0" d="M239.4,21.6l1.2,3.2l-0.2,0c0,0-0.3-0.4-1-1c-0.6-0.7-1.4-1.2-2.2-1.6c-0.8-0.4-1.8-0.6-2.8-0.6 c-1.8,0-3.2,0.5-4.2,1.5c-1,1-1.6,2.2-1.6,3.7c0,0.9,0.2,1.8,0.7,2.5c0.5,0.7,1.5,1.4,3,2c2.6,0.9,4.5,1.6,5.4,2 c1,0.4,1.9,1.2,2.8,2.3c0.9,1.1,1.4,2.4,1.4,4.1c0,0.7-0.1,1.4-0.2,2c-0.2,0.6-0.4,1.2-0.8,1.8c-0.4,0.6-0.8,1.1-1.3,1.6 c-0.5,0.5-1,0.9-1.6,1.1c-0.5,0.3-1.4,0.4-2.5,0.6c-1.1,0.1-1.9,0.2-2.2,0.2h-6.9v-7.5h0.3c0,2.5,0.6,4.2,1.8,5.2 c1.1,1,2.9,1.5,5.3,1.5c2.2,0,3.9-0.5,5-1.6c1.1-1,1.7-2.3,1.7-3.7c0-0.9-0.2-1.6-0.6-2.3c-0.4-0.6-1-1.2-1.7-1.6 c-0.7-0.5-2.1-1.1-4-1.7c-2-0.7-3.4-1.3-4.2-1.8c-0.8-0.5-1.5-1.3-2-2.3c-0.5-1-0.8-2.1-0.8-3.2c0-2,0.7-3.7,2.1-5 c1.4-1.4,3.2-2,5.4-2c0.9,0,1.8,0.1,2.8,0.3c1,0.2,1.6,0.3,1.7,0.4C239.3,21.6,239.4,21.6,239.4,21.6z"></path> <path class="st0" d="M264.5,20.4l-1.2,3.1H263c0-0.2,0.1-0.4,0.1-0.8c0-0.3-0.1-0.4-0.3-0.5c-0.2-0.1-0.5-0.1-0.9-0.1h-6.7v22.1 c0,0.9,0.1,1.5,0.2,1.9c0.1,0.3,0.3,0.5,0.6,0.6c0.3,0.1,0.7,0.1,1.2,0.1v0.3h-7v-0.3c0.9-0.1,1.4-0.2,1.6-0.5 c0.2-0.3,0.3-0.9,0.3-1.7V22.2h-6.4c-0.7,0-1.1,0-1.3,0.1c-0.2,0.1-0.3,0.3-0.3,0.6c0,0.2,0,0.4,0.1,0.7H244l-1.2-3.1h0.3 c0.2,0.4,0.4,0.7,0.6,0.8c0.2,0.1,0.6,0.1,1.3,0.1h17.1c0.7,0,1.2,0,1.5-0.1c0.3-0.1,0.5-0.3,0.7-0.8H264.5z"></path> <path class="st0" d="M265.9,21.6v-0.3h7.3c1.9,0,3.2,0,4,0.1c0.8,0.1,1.7,0.4,2.5,0.8c0.9,0.5,1.5,1.1,2,1.9 c0.4,0.8,0.7,1.8,0.7,2.9c0,1.3-0.4,2.6-1.2,3.7c-0.8,1.2-1.9,2.2-3.3,3l1.8,2.8c0.4,0.7,1.5,2.2,3.2,4.6c1.7,2.4,3,3.8,4,4.3 c0.9,0.5,1.8,0.8,2.7,0.8c0.9,0,1.9-0.3,3-1l0.1,0.3c-1.4,1.1-3.2,1.7-5.5,1.7c-1.5,0-2.8-0.4-3.9-1.3c-1.1-0.9-2.9-3.3-5.6-7.3 c0,0,0,0,0-0.1l-2.6-4l-2.3,0.1h-2.1v9.9c0,0.8,0.1,1.4,0.3,1.7c0.2,0.3,0.7,0.5,1.5,0.5v0.3h-6.7v-0.3c0.8,0,1.3-0.2,1.6-0.5 c0.2-0.3,0.3-1,0.3-1.9V23.9c0-0.7-0.1-1.2-0.3-1.7C267.3,21.8,266.8,21.6,265.9,21.6z M270.7,22v12.1h2.7c2.1,0,3.7-0.5,4.7-1.5 c1-1,1.5-2.3,1.5-4c0-1.6-0.5-3.1-1.5-4.5c-1-1.4-2.8-2.1-5.3-2.1H270.7z"></path> <path class="st0" d="M294.3,21.6v-0.3h16.2v3.6h-0.3c-0.4-1.3-0.6-2.1-0.9-2.3c-0.2-0.2-0.8-0.4-1.8-0.4h-8.5v11.6h7.9 c0.8,0,1.3-0.1,1.5-0.2c0.2-0.1,0.3-0.4,0.3-0.6h0.3v2.4h-0.3c-0.1-0.3-0.2-0.6-0.4-0.7c-0.2-0.1-0.6-0.2-1.2-0.2h-8.1v8 c0,1.2,0.1,2.1,0.3,2.6c0.2,0.5,0.6,0.9,1.1,1c0.5,0.1,1.2,0.2,2.2,0.2h4.5c1.4,0,2.4,0,2.8-0.1c0.4-0.1,0.7-0.3,1-0.6 c0.3-0.3,0.5-0.9,0.6-1.9h0.3v3.5h-17.6v-0.3c0.6,0,1-0.1,1.4-0.3c0.3-0.2,0.5-0.7,0.5-1.5V24.2c0-0.9-0.1-1.6-0.2-2 C295.7,21.8,295.2,21.6,294.3,21.6z"></path> <path class="st0" d="M313.7,21.6v-0.3H330v3.6h-0.3c-0.4-1.3-0.6-2.1-0.9-2.3c-0.2-0.2-0.8-0.4-1.8-0.4h-8.5v11.6h7.9 c0.8,0,1.3-0.1,1.5-0.2c0.2-0.1,0.3-0.4,0.3-0.6h0.3v2.4h-0.3c-0.1-0.3-0.2-0.6-0.4-0.7c-0.2-0.1-0.6-0.2-1.2-0.2h-8.1v8 c0,1.2,0.1,2.1,0.3,2.6c0.2,0.5,0.6,0.9,1.1,1c0.5,0.1,1.2,0.2,2.2,0.2h4.5c1.4,0,2.4,0,2.8-0.1c0.4-0.1,0.7-0.3,1-0.6 c0.3-0.3,0.5-0.9,0.6-1.9h0.3v3.5h-17.6v-0.3c0.6,0,1-0.1,1.4-0.3c0.3-0.2,0.5-0.7,0.5-1.5V24.2c0-0.9-0.1-1.6-0.2-2 C315.1,21.8,314.6,21.6,313.7,21.6z"></path> <path class="st0" d="M353.5,20.4l-1.2,3.1H352c0-0.2,0.1-0.4,0.1-0.8c0-0.3-0.1-0.4-0.3-0.5c-0.2-0.1-0.5-0.1-0.9-0.1h-6.7v22.1 c0,0.9,0.1,1.5,0.2,1.9c0.1,0.3,0.3,0.5,0.6,0.6c0.3,0.1,0.7,0.1,1.2,0.1v0.3h-7v-0.3c0.9-0.1,1.4-0.2,1.6-0.5 c0.2-0.3,0.3-0.9,0.3-1.7V22.2h-6.4c-0.7,0-1.1,0-1.3,0.1c-0.2,0.1-0.3,0.3-0.3,0.6c0,0.2,0,0.4,0.1,0.7H333l-1.2-3.1h0.3 c0.2,0.4,0.4,0.7,0.6,0.8c0.2,0.1,0.6,0.1,1.3,0.1h17.1c0.7,0,1.2,0,1.5-0.1c0.3-0.1,0.5-0.3,0.7-0.8H353.5z"></path> </g> <g> <path class="st0" d="M86.5,64.9v-0.3h11.6c2.9,0,5.3,0.2,7,0.7s3.2,1.2,4.5,2.2c1.3,1,2.3,2.3,3,3.8c0.7,1.5,1.1,3.3,1.1,5.2 c0,1.8-0.4,3.6-1.2,5.4c-0.8,1.8-1.8,3.3-3.1,4.6c-1.3,1.3-2.7,2.2-4.2,2.6c-1.5,0.5-3.7,0.7-6.8,0.7H86.5v-0.3h0.3 c0.6,0,1-0.2,1.2-0.7c0.2-0.5,0.3-1.4,0.3-2.7V67.8c0-1.4-0.1-2.2-0.4-2.5C87.8,65.1,87.3,64.9,86.5,64.9z M95.1,65.2h-3.9v19.5 c0,1.2,0.2,2.1,0.6,2.7c0.4,0.6,1.1,1,2.1,1.3s2.4,0.4,4.1,0.4c4.7,0,8-1.2,9.9-3.6c1.9-2.4,2.9-5.1,2.9-7.9 c0-3.4-1.3-6.3-3.9-8.7C104.3,66.4,100.4,65.2,95.1,65.2z"></path> <path class="st0" d="M116.1,65v-0.3H132v3.5h-0.3c-0.3-1.3-0.6-2-0.9-2.3c-0.2-0.2-0.8-0.3-1.7-0.3h-8.3v11.3h7.7 c0.8,0,1.2-0.1,1.5-0.2s0.3-0.4,0.3-0.6h0.3v2.4h-0.3c-0.1-0.3-0.2-0.6-0.4-0.7c-0.2-0.1-0.6-0.2-1.2-0.2h-7.9v7.8 c0,1.2,0.1,2,0.3,2.5c0.2,0.5,0.6,0.8,1,1c0.5,0.1,1.2,0.2,2.1,0.2h4.4c1.4,0,2.3,0,2.7-0.1c0.4-0.1,0.7-0.3,1-0.6 c0.3-0.3,0.5-0.9,0.6-1.9h0.3v3.5h-17.2v-0.3c0.6,0,1-0.1,1.3-0.3c0.3-0.2,0.5-0.7,0.5-1.5V67.5c0-0.9-0.1-1.6-0.2-1.9 C117.5,65.1,117,65,116.1,65z"></path> <path class="st0" d="M135.1,64.9v-0.3h7.1c1.8,0,3.1,0,3.9,0.1c0.8,0.1,1.6,0.3,2.5,0.8c0.8,0.5,1.5,1.1,1.9,1.8 c0.4,0.8,0.6,1.7,0.6,2.8c0,1.3-0.4,2.5-1.2,3.7c-0.8,1.2-1.9,2.1-3.3,2.9l1.8,2.7c0.4,0.7,1.4,2.2,3.1,4.5c1.7,2.3,3,3.7,3.9,4.2 c0.9,0.5,1.8,0.8,2.6,0.8c0.8,0,1.8-0.3,2.9-1l0.1,0.3c-1.4,1.1-3.1,1.7-5.3,1.7c-1.5,0-2.7-0.4-3.8-1.3c-1-0.9-2.9-3.2-5.5-7.1 c0,0,0,0,0-0.1l-2.5-3.9l-2.2,0.1h-2v9.6c0,0.8,0.1,1.3,0.3,1.7c0.2,0.3,0.7,0.5,1.5,0.5v0.3h-6.5v-0.3c0.8,0,1.3-0.2,1.5-0.5 c0.2-0.3,0.3-0.9,0.3-1.9v-20c0-0.6-0.1-1.2-0.3-1.6C136.5,65.1,136,64.9,135.1,64.9z M139.8,65.3v11.8h2.6c2.1,0,3.6-0.5,4.6-1.5 c1-1,1.5-2.3,1.5-3.9c0-1.5-0.5-3-1.5-4.4c-1-1.4-2.7-2.1-5.2-2.1H139.8z"></path> <path class="st0" d="M185.8,64.7h4v0.3c-1.3,0.1-2,0.8-2,2.1c0,0.3,0,0.7,0.1,1.2l2.6,19.1c0.2,1,0.3,1.6,0.5,1.8 c0.2,0.3,0.6,0.4,1.2,0.5v0.3h-5.7v-0.3c0.8,0,1.1-0.3,1.1-1.1c0-0.2,0-0.5-0.1-1L185.1,69l-9,20.8h-0.2L166.8,69l-2.6,18.6 c0,0.3-0.1,0.6-0.1,1c0,0.7,0.4,1,1.2,1v0.3h-3.8v-0.3c0.6,0,1-0.1,1.1-0.2c0.2-0.1,0.3-0.4,0.4-0.7c0.1-0.3,0.2-0.7,0.2-1.1 l2.9-20.3c-0.5-1.1-0.9-1.8-1.4-2c-0.5-0.2-0.9-0.3-1.4-0.3v-0.3h4.7l8.9,20.6L185.8,64.7z"></path> <path class="st0" d="M207.1,78.2h-7.4l-3.8,9.5c-0.3,0.7-0.4,1.1-0.4,1.3c0,0.4,0.3,0.6,0.8,0.6v0.3h-3.7v-0.3 c0.5,0,0.9-0.1,1.3-0.4c0.3-0.2,0.7-0.9,1.1-1.9l9.1-23h0.5l9,22.2c0,0.1,0.2,0.7,0.7,1.6c0.5,1,1.2,1.4,2.1,1.4v0.3h-5.9v-0.3 c0.5,0,0.8-0.2,0.8-0.6c0-0.3-0.1-0.7-0.4-1.4c0,0-0.1-0.1-0.1-0.2c0-0.1,0-0.2-0.1-0.2L207.1,78.2z M199.9,77.5h6.8l-3.4-8.6 L199.9,77.5z"></path> <path class="st0" d="M234.6,63.8l-1.2,3h-0.3c0-0.2,0.1-0.4,0.1-0.7c0-0.3-0.1-0.4-0.3-0.5c-0.2-0.1-0.5-0.1-0.9-0.1h-6.6V87 c0,0.9,0.1,1.5,0.2,1.8c0.1,0.3,0.3,0.5,0.6,0.6c0.2,0.1,0.6,0.1,1.2,0.1v0.3h-6.8v-0.3c0.9-0.1,1.4-0.2,1.6-0.5 c0.2-0.3,0.3-0.8,0.3-1.7V65.5h-6.3c-0.6,0-1.1,0-1.2,0.1c-0.2,0.1-0.3,0.3-0.3,0.6c0,0.1,0,0.4,0.1,0.7h-0.3l-1.2-3h0.3 c0.2,0.4,0.4,0.7,0.6,0.7c0.2,0.1,0.6,0.1,1.3,0.1h16.7c0.7,0,1.1,0,1.4-0.1c0.3-0.1,0.5-0.3,0.6-0.7H234.6z"></path> <path class="st0" d="M248.5,64.3c3.5,0,6.4,1.1,8.7,3.2c2.2,2.1,3.4,4.8,3.4,8c0,4.1-1.3,7.6-3.9,10.4c-2.6,2.8-6,4.2-10.3,4.2 c-3.5,0-6.3-1.1-8.6-3.4c-2.2-2.3-3.3-5-3.3-8.2c0-2.2,0.5-4.4,1.6-6.6c1.1-2.3,2.7-4.1,4.8-5.5C243,65,245.5,64.3,248.5,64.3z M248.4,88.9c1.7,0,3.4-0.5,5.1-1.4c1.7-0.9,3-2.2,4-3.8c1-1.6,1.5-3.3,1.5-5c0-2.4-0.7-4.7-2-6.6c-1.3-2-3-3.6-5.1-4.7 c-2.1-1.1-4-1.7-5.8-1.7c-2.5,0-4.8,0.9-6.8,2.8c-2,1.9-3,4.2-3,7c0,3.6,1.2,6.7,3.7,9.4C242.5,87.5,245.3,88.9,248.4,88.9z"></path> <path class="st0" d="M262.1,89.8v-0.3c0.8,0,1.3-0.1,1.5-0.4c0.2-0.3,0.4-0.8,0.4-1.5V67c0-0.7-0.1-1.3-0.3-1.6 c-0.2-0.3-0.7-0.5-1.6-0.5v-0.3h6.7v0.3c-0.6,0-1.1,0.1-1.3,0.2c-0.2,0.2-0.4,0.3-0.5,0.6c-0.1,0.2-0.1,0.7-0.1,1.5v17.7 c0,1.5,0.4,2.6,1.1,3.2c0.7,0.6,2,0.9,3.7,0.9h3.1c1.5,0,2.6-0.4,3.3-1.1c0.7-0.7,1.1-2.1,1.2-4.1h0.3v6H262.1z"></path> <path class="st0" d="M295,64.3c3.5,0,6.4,1.1,8.7,3.2c2.2,2.1,3.4,4.8,3.4,8c0,4.1-1.3,7.6-3.9,10.4c-2.6,2.8-6,4.2-10.3,4.2 c-3.5,0-6.3-1.1-8.6-3.4c-2.2-2.3-3.3-5-3.3-8.2c0-2.2,0.5-4.4,1.6-6.6c1.1-2.3,2.7-4.1,4.8-5.5C289.5,65,292.1,64.3,295,64.3z M294.9,88.9c1.7,0,3.4-0.5,5.1-1.4c1.7-0.9,3-2.2,4-3.8c1-1.6,1.5-3.3,1.5-5c0-2.4-0.7-4.7-2-6.6c-1.3-2-3-3.6-5.1-4.7 c-2.1-1.1-4-1.7-5.8-1.7c-2.5,0-4.8,0.9-6.8,2.8c-2,1.9-3,4.2-3,7c0,3.6,1.2,6.7,3.7,9.4C289.1,87.5,291.8,88.9,294.9,88.9z"></path> <path class="st0" d="M334.2,89.6v0.3h-10.2c-1.9,0-3.7-0.2-5.1-0.6c-1.5-0.4-3-1.2-4.5-2.4c-1.5-1.2-2.8-2.6-3.7-4.4 c-0.9-1.8-1.4-3.5-1.4-5.4c0-2,0.6-4,1.8-6c1.2-2,2.9-3.6,5-4.9c2.2-1.2,4.6-1.9,7.4-1.9c2.5,0,5.1,0.5,7.8,1.6l1,2.9h-0.3 c-0.9-1.1-2.1-2-3.6-2.8c-1.5-0.7-3.2-1.1-5.1-1.1c-3.2,0-5.9,1.2-8,3.7c-2.1,2.4-3.1,5.5-3.1,9.1c0,1.5,0.2,2.8,0.5,4 c0.3,1.2,1,2.3,1.9,3.5c0.9,1.1,1.9,2,3,2.5c1.1,0.5,2.3,0.9,3.6,1.1c1.3,0.2,2.4,0.3,3.2,0.3l1.3,0c1.5-0.1,2.5-0.2,2.9-0.4 c0.4-0.2,0.6-0.8,0.6-1.7v-3.8c0-0.7-0.2-1.2-0.5-1.5c-0.3-0.3-0.7-0.4-1.3-0.3v-0.3h6.5v0.3c-0.7,0-1.2,0.1-1.5,0.4 c-0.2,0.3-0.4,0.8-0.4,1.6v4c0,0.8,0.1,1.4,0.3,1.7c0.2,0.3,0.6,0.5,1.2,0.5H334.2z"></path> <path class="st0" d="M350.9,64.7h3.8v0.3c-0.5,0-0.9,0.1-1.2,0.3c-0.3,0.2-0.7,0.6-1.1,1.2l-6.2,9.3v11.5c0,0.9,0.1,1.5,0.4,1.8 c0.2,0.3,0.8,0.4,1.6,0.4v0.3h-6.7v-0.3c1.3,0.1,1.9-0.4,1.9-1.5l0-0.7V76.7l-6.2-10.2c-0.7-1.1-1.4-1.6-2.2-1.6v-0.3h5.9v0.3 c-0.6,0-0.8,0.2-0.8,0.6c0,0.2,0.1,0.6,0.4,1l5.1,8.4l5.5-8.4c0.1-0.1,0.2-0.3,0.3-0.5c0.1-0.2,0.2-0.4,0.2-0.5 c0-0.4-0.2-0.6-0.7-0.6h-0.1V64.7z"></path> </g> <path class="st0" d="M42.1,56.8l-2.9,1.3c0,0,0.8,5.1,0.6,8.2c-0.2,3.2-0.9,6.4-3.9,10.1c-3.1,3.7-8.8,9.4-8.6,16.7 c0.2,7.3,4.9,14.7,13.4,14.7s11.5-6.4,11.5-8.8c0-2.4-1.8-3.6-3.2-3.6s-3.4,1.1-3.4,1.1s3.2,0.4,3.2,2.6s-2.4,6.1-7,6.1 s-12.1-6.1-12.1-12.3s1.5-10.1,7.2-16.1S42.8,64.1,42.1,56.8z"></path> <path class="st0" d="M36.5,48.5c0,0-10.1,13.8-18.6,13.8s0.6-8.5,0.6-8.5l2.9-2.2c0,0-4.3,4.4-1.8,5.7S26,56.2,36.5,48.5z"></path> <path class="st0" d="M33.1,44.3c0,0-4.3,1-9.1,1S3.3,43.7,3.3,35.4s15.8-3.7,19.2-2.5s6.1,2.8,7.3,3.7c1.1,0.9,1.6,2.7,1.6,2.7 s-4.6-5-17.8-5.7s-4,6.5-0.1,7.8S22.9,44.7,33.1,44.3z"></path> <path class="st0" d="M28.4,31.7c0,0-4-6.2-4-13.2s1.9-9.6,5.6-6.9s4.5,6.6,4.5,6.6s-3.4-5-6.7-3.5S28.4,31.7,28.4,31.7z"></path> <path class="st0" d="M36.2,12.8c0,0,1.8-9.6,6.1-9.6s6,10.6,6,10.6s-1.6-7-6-7S36.2,12.8,36.2,12.8z"></path> <path class="st0" d="M50.1,18.7c0,0,1.8-8.5,6.5-8.5s5.1,6.9,3.1,13.4s-5.4,10.2-5.4,10.2s3.2-6.1,3.4-13.2S53.2,15.6,50.1,18.7z"></path> <path class="st0" d="M49.4,42c0,0,8.7-9.4,19.6-9.4s11.8,6,6.7,10.3c-5.2,4.2-13.5,3.7-13.5,3.7s-4.6,0-7.4-0.8 c-2.9-0.8-3.4-2.6-3.4-2.6s3.9,3.7,12.7,1.1s12.4-7.8,6.2-8.7C64.1,34.7,56.3,38.7,49.4,42z"></path> <path class="st0" d="M45.3,48.9c0,0,10.8,13.1,22.1,13.8c11.3,0.6-3.7-10.4-3.7-10.4s2.8,3.5,0.4,5.3 C61.6,59.4,45.9,49.5,45.3,48.9z"></path> <path class="st0" d="M39.2,43.2c0,0-4.7-5.8-4.7-12.6s5.9-13.3,9.4-13.2c3.5,0.1,3.9,7.9,3.5,12.7c-0.4,4.8-4.5,9-4.5,9 s2-5.7,1.9-10.1s-1.9-6-3.4-6s-4.9,2.3-4.9,7.5S37,38,39.2,43.2z"></path> </g> </svg> 