<?xml version="1.0" encoding="utf-8"?>
<!-- Generator: Adobe Illustrator 25.4.1, SVG Export Plug-In . SVG Version: 6.00 Build 0)  -->
<svg version="1.1" id="CMNH_Logo" xmlns="http://www.w3.org/2000/svg" xmlns:xlink="http://www.w3.org/1999/xlink" x="0px" y="0px"
	 viewBox="0 0 504 207.7" style="enable-background:new 0 0 504 207.7;" xml:space="preserve">
<style type="text/css">
	.st0{fill:#C73047;}
	.st1{fill:#FFCB05;}
</style>
<g>
	<g>
		<path class="st0" d="M350.8,167.6c0,2.4-2,4.4-4.4,4.4c-2.4,0-4.4-2-4.4-4.4c0-2.4,2-4.4,4.4-4.4
			C348.8,163.2,350.8,165.2,350.8,167.6z M350.4,167.6c0-2.3-1.8-4.1-4.1-4.1s-4.1,1.8-4.1,4.1s1.8,4.1,4.1,4.1
			S350.4,169.9,350.4,167.6z M347.3,168.1l1,1.8h-0.8l-0.9-1.6h-0.1h-0.6v1.6H345v-4.5h1.4c1.1,0,1.7,0.7,1.7,1.5
			C348.1,167.4,347.8,167.9,347.3,168.1z M345.7,167.5h0.7c0.6,0,0.9-0.3,0.9-0.7c0-0.4-0.3-0.7-0.9-0.7h-0.7V167.5z"/>
	</g>
	<g id="WORDMARK">
		<g>
			<path class="st0" d="M169,163.4v34.5h-7.9v-13.7h-10.8v13.7h-7.9v-34.5h7.9v13.2h10.8v-13.2H169z"/>
			<path class="st0" d="M173,185.5c0-7.3,5.8-13,13.1-13c7.2,0,13.1,5.7,13.1,13c0,7.3-5.8,13-13.1,13
				C178.8,198.5,173,192.9,173,185.5z M191.7,185.5c0-3.5-2.5-5.8-5.7-5.8c-3.2,0-5.7,2.3-5.7,5.8c0,3.5,2.5,5.8,5.7,5.8
				C189.2,191.4,191.7,189,191.7,185.5z"/>
			<path class="st0" d="M221.4,190.5c0,5.7-4.9,8.1-10.2,8.1c-4.9,0-8.7-1.9-10.6-5.9l6.4-3.6c0.6,1.9,2,2.9,4.2,2.9
				c1.8,0,2.7-0.5,2.7-1.5c0-2.7-12.1-1.3-12.1-9.8c0-5.4,4.5-8.1,9.7-8.1c4,0,7.5,1.8,9.6,5.3l-6.3,3.4c-0.7-1.3-1.7-2.2-3.3-2.2
				c-1.3,0-2.1,0.5-2.1,1.4C209.3,183.2,221.4,181.4,221.4,190.5z"/>
			<path class="st0" d="M251.3,185.5c0,7.3-5.3,13-11.8,13c-3.3,0-5.7-1.1-7.3-3v12.2h-7.4v-34.5h7.4v2.3c1.6-1.9,4-3,7.3-3
				C246,172.5,251.3,178.2,251.3,185.5z M243.9,185.5c0-3.7-2.5-6-5.9-6c-3.4,0-5.9,2.3-5.9,6c0,3.7,2.5,6,5.9,6
				C241.5,191.5,243.9,189.2,243.9,185.5z"/>
			<path class="st0" d="M254.3,166.6c0-2.4,2-4.4,4.4-4.4c2.4,0,4.4,2,4.4,4.4c0,2.4-2,4.4-4.4,4.4
				C256.3,171.1,254.3,169,254.3,166.6z M255,173.2h7.4v24.6H255V173.2z"/>
			<path class="st0" d="M276.7,180.3v8.7c0,2.1,1.8,2.3,5.1,2.1v6.7c-9.7,1-12.5-1.9-12.5-8.8v-8.7h-3.9v-7.1h3.9v-4.7l7.4-2.2v6.9
				h5.1v7.1H276.7z"/>
			<path class="st0" d="M310.2,173.2v24.6h-7.4v-2.3c-1.6,1.9-4,3-7.3,3c-6.5,0-11.8-5.7-11.8-13c0-7.3,5.3-13,11.8-13
				c3.3,0,5.7,1.1,7.3,3v-2.3H310.2z M302.8,185.5c0-3.7-2.5-6-5.9-6c-3.4,0-5.9,2.3-5.9,6c0,3.7,2.5,6,5.9,6
				C300.4,191.5,302.8,189.2,302.8,185.5z"/>
			<path class="st0" d="M315.1,161.9h7.4v36h-7.4V161.9z"/>
			<path class="st0" d="M346.3,190.5c0,5.7-4.9,8.1-10.2,8.1c-4.9,0-8.7-1.9-10.6-5.9l6.4-3.6c0.6,1.9,2,2.9,4.2,2.9
				c1.8,0,2.7-0.5,2.7-1.5c0-2.7-12.1-1.3-12.1-9.8c0-5.4,4.5-8.1,9.7-8.1c4,0,7.5,1.8,9.6,5.3l-6.3,3.4c-0.7-1.3-1.7-2.2-3.3-2.2
				c-1.3,0-2.1,0.5-2.1,1.4C334.2,183.2,346.3,181.4,346.3,190.5z"/>
		</g>
		<g>
			<path class="st0" d="M176.9,150.4H169v-20l-8.9,14.6h-0.9l-8.9-14.6v20h-7.9v-34.5h7.9l9.4,15.3l9.4-15.3h7.9V150.4z"/>
			<path class="st0" d="M181.4,119.1c0-2.4,2-4.4,4.4-4.4c2.4,0,4.4,2,4.4,4.4c0,2.4-2,4.4-4.4,4.4
				C183.4,123.6,181.4,121.6,181.4,119.1z M182.1,125.7h7.4v24.6h-7.4V125.7z"/>
			<path class="st0" d="M209.2,125.3v8.4c-3.1-0.5-7.4,0.7-7.4,5.6v11.1h-7.4v-24.6h7.4v4.4C202.8,126.8,206.1,125.3,209.2,125.3z"
				/>
			<path class="st0" d="M236.7,125.7v24.6h-7.4v-2.3c-1.6,1.9-4,3-7.3,3c-6.5,0-11.8-5.7-11.8-13c0-7.3,5.3-13,11.8-13
				c3.3,0,5.7,1.1,7.3,3v-2.3H236.7z M229.3,138.1c0-3.7-2.5-6-5.9-6c-3.4,0-5.9,2.3-5.9,6c0,3.7,2.5,6,5.9,6
				C226.8,144.1,229.3,141.8,229.3,138.1z"/>
			<path class="st0" d="M240.4,138.1c0-7.3,5.6-13,13.1-13c4.8,0,9,2.5,11.1,6.3l-6.5,3.7c-0.8-1.7-2.6-2.8-4.8-2.8
				c-3.2,0-5.6,2.3-5.6,5.7c0,3.4,2.4,5.7,5.6,5.7c2.2,0,4-1,4.8-2.8l6.5,3.7c-2.1,3.8-6.3,6.4-11.1,6.4
				C245.9,151.1,240.4,145.4,240.4,138.1z"/>
			<path class="st0" d="M267,114.4h7.4v36H267V114.4z"/>
			<path class="st0" d="M291.8,144.5c2,0,3.7-0.8,4.7-1.9l5.9,3.4c-2.4,3.3-6.1,5.1-10.7,5.1c-8.4,0-13.6-5.7-13.6-13
				c0-7.3,5.3-13,13.1-13c7.2,0,12.5,5.6,12.5,13c0,1-0.1,2-0.3,3h-17.5C286.8,143.6,289.1,144.5,291.8,144.5z M296.3,135.5
				c-0.8-2.9-3-3.9-5.2-3.9c-2.8,0-4.7,1.4-5.4,3.9H296.3z"/>
			<path class="st0" d="M346.5,115.9v34.5h-5.9l-13.3-18.7v18.7h-7.9v-34.5h5.9l13.3,18.7v-18.7H346.5z"/>
			<path class="st0" d="M364.2,144.5c2,0,3.7-0.8,4.7-1.9l5.9,3.4c-2.4,3.3-6.1,5.1-10.7,5.1c-8.4,0-13.6-5.7-13.6-13
				c0-7.3,5.3-13,13.1-13c7.2,0,12.5,5.6,12.5,13c0,1-0.1,2-0.3,3h-17.5C359.2,143.6,361.5,144.5,364.2,144.5z M368.7,135.5
				c-0.8-2.9-3-3.9-5.2-3.9c-2.8,0-4.7,1.4-5.4,3.9H368.7z"/>
			<path class="st0" d="M388.4,132.8v8.7c0,2.1,1.8,2.3,5.1,2.1v6.7c-9.7,1-12.5-1.9-12.5-8.8v-8.7H377v-7.1h3.9v-4.7l7.4-2.2v6.9
				h5.1v7.1H388.4z"/>
			<path class="st0" d="M432.6,125.7l-7.9,24.6h-6.9l-3.9-13.1l-3.9,13.1H403l-7.9-24.6h7.9l3.5,13.2l3.8-13.2h6.9l3.8,13.2
				l3.5-13.2H432.6z"/>
			<path class="st0" d="M432.8,138.1c0-7.3,5.8-13,13.1-13c7.2,0,13.1,5.7,13.1,13c0,7.3-5.8,13-13.1,13
				C438.7,151.1,432.8,145.4,432.8,138.1z M451.6,138.1c0-3.5-2.5-5.8-5.7-5.8s-5.7,2.3-5.7,5.8c0,3.5,2.5,5.8,5.7,5.8
				S451.6,141.6,451.6,138.1z"/>
			<path class="st0" d="M477.4,125.3v8.4c-3.1-0.5-7.4,0.7-7.4,5.6v11.1h-7.4v-24.6h7.4v4.4C471,126.8,474.3,125.3,477.4,125.3z"/>
			<path class="st0" d="M495.6,150.4l-7.9-10.9v10.9h-7.4v-34.5h7.4v20.6l7.4-10.8h8.6l-9,12.3l9.2,12.3H495.6z"/>
		</g>
		<g>
			<path class="st0" d="M141,85.6c0-10.1,7.5-17.9,17.9-17.9c6.3,0,11.8,3.1,14.8,8l-6.8,3.9c-1.5-2.7-4.5-4.2-8-4.2
				c-6.1,0-10,4.1-10,10.2c0,6.2,3.9,10.2,10,10.2c3.5,0,6.5-1.6,8-4.2l6.8,3.9c-3,4.9-8.5,8-14.8,8C148.5,103.6,141,95.8,141,85.6z
				"/>
			<path class="st0" d="M200.8,87.8v15.1h-7.4v-14c0-3.1-1.9-4.5-4.3-4.5c-2.7,0-4.6,1.6-4.6,5.1v13.4h-7.4V68.4h7.4v12.2
				c1.3-1.8,3.8-3,7-3C196.5,77.6,200.8,81.1,200.8,87.8z"/>
			<path class="st0" d="M204.6,71.7c0-2.4,2-4.4,4.4-4.4c2.4,0,4.4,2,4.4,4.4c0,2.4-2,4.4-4.4,4.4C206.6,76.1,204.6,74.1,204.6,71.7
				z M205.3,78.3h7.4v24.6h-7.4V78.3z"/>
			<path class="st0" d="M217.6,66.9h7.4v36h-7.4V66.9z"/>
			<path class="st0" d="M255.2,68.4v34.5h-7.4v-2.3c-1.6,1.9-4,3-7.3,3c-6.5,0-11.8-5.7-11.8-13c0-7.3,5.3-13,11.8-13
				c3.3,0,5.7,1.1,7.3,3V68.4H255.2z M247.8,90.6c0-3.7-2.5-6-5.9-6c-3.4,0-5.9,2.3-5.9,6c0,3.7,2.5,6,5.9,6
				C245.4,96.6,247.8,94.3,247.8,90.6z"/>
			<path class="st0" d="M274.9,77.8v8.4c-3.1-0.5-7.4,0.7-7.4,5.6v11.1h-7.4V78.3h7.4v4.4C268.5,79.3,271.8,77.8,274.9,77.8z"/>
			<path class="st0" d="M289.6,97c2,0,3.7-0.8,4.7-1.9l5.9,3.4c-2.4,3.3-6.1,5.1-10.7,5.1c-8.4,0-13.6-5.7-13.6-13
				c0-7.3,5.3-13,13.1-13c7.2,0,12.5,5.6,12.5,13c0,1-0.1,2-0.3,3h-17.5C284.7,96.1,286.9,97,289.6,97z M294.2,88
				c-0.8-2.9-3-3.9-5.2-3.9c-2.8,0-4.7,1.4-5.4,3.9H294.2z"/>
			<path class="st0" d="M328.8,87.8v15.1h-7.4v-14c0-3.1-1.9-4.5-4.3-4.5c-2.7,0-4.6,1.6-4.6,5.1v13.4h-7.4V78.3h7.4v2.3
				c1.3-1.8,3.8-3,7-3C324.6,77.6,328.8,81.1,328.8,87.8z"/>
			<path class="st0" d="M337.4,82.9h-5.9l2-14.5h7.9L337.4,82.9z"/>
			<path class="st0" d="M359.9,95.5c0,5.7-4.9,8.1-10.2,8.1c-4.9,0-8.7-1.9-10.6-5.9l6.4-3.6c0.6,1.9,2,2.9,4.2,2.9
				c1.8,0,2.7-0.5,2.7-1.5c0-2.7-12.1-1.3-12.1-9.8c0-5.4,4.5-8.1,9.7-8.1c4,0,7.5,1.8,9.6,5.3l-6.3,3.4c-0.7-1.3-1.7-2.2-3.3-2.2
				c-1.3,0-2.1,0.5-2.1,1.4C347.8,88.3,359.9,86.4,359.9,95.5z"/>
		</g>
	</g>
	<g id="BALLOON">
		<path class="st0" d="M77.1,174.1H49.5c-1.1,0-2,0.9-2,2v9.9c0,6.6,5.3,11.9,11.9,11.9h7.9c6.6,0,11.9-5.3,11.9-11.9v-9.9
			C79.1,175,78.2,174.1,77.1,174.1z"/>
		<path class="st1" d="M102.8,62.2c-0.1-19.7-14.6-35.2-33.5-38c-2-0.3-4-0.5-6-0.5c-2.1,0-4.1,0.2-6,0.5
			c-18.8,2.9-33.4,18.3-33.5,38v0.3c0,8.2,2.4,17,6.5,25.6c4,8.6,9.7,16.9,15.4,24.2c6.3,7.9,12.8,14.5,17.6,19.1
			c2.2-2.1,4.8-4.7,7.6-7.6c8.5-9,18.6-21.6,25-34.9c4.3-8.9,6.9-17.9,6.9-26.4C102.8,62.4,102.8,62.3,102.8,62.2 M126.6,62.4v0.3
			c-0.1,13.2-3.9,25.5-9.3,36.6c-5.4,11.1-12.3,21-19.2,29.4c-10.4,12.8-20.6,22.1-25.1,25.9c0,0-0.1,0.1-0.1,0.1
			c-0.1,0.1-0.2,0.1-0.2,0.2c0,0,0,0,0,0c-1.2,0.9-1.8,1.2-1.9,1.3v0c-4.9,2.9-11.1,2.7-15.8-0.5c-0.4-0.2-0.8-0.6-1.4-1
			c0,0-0.1-0.1-0.1-0.1c-3-2.6-8.6-7.6-15.1-14.5C28.9,130,17.3,115.9,9.3,99.3C4,88.2,0.1,76,0,62.8c0-0.1,0-0.2,0-0.5
			c0-31.7,23.2-57,53.7-61.6C56.8,0.2,60,0,63.3,0c3.3,0,6.5,0.2,9.6,0.7C103.4,5.4,126.6,30.7,126.6,62.4"/>
	</g>
</g>
</svg>
