<?xml version="1.0" encoding="utf-8"?>
<!-- Generator: Adobe Illustrator 21.1.0, SVG Export Plug-In . SVG Version: 6.00 Build 0)  -->
<svg version="1.1" id="Layer_1" xmlns="http://www.w3.org/2000/svg" xmlns:xlink="http://www.w3.org/1999/xlink" x="0px" y="0px"
	 viewBox="0 0 369.1 81" style="enable-background:new 0 0 369.1 81;" xml:space="preserve">
<g>
	<path style="fill:#177E89;" d="M13.6,1.7C5.1,8.2,2.8,20,5.6,30.5c5.1,14.3,21.3,17.2,32.7,25.1c4.4,3,6.9,8,5.7,13.8
		c-0.7,5.3-4.9,9.7-10.1,11.1c-10.7,1.9-21-1.9-27.7-9.7c-4.3-5-6.8-11.3-7.2-18v-51l0.2-0.1H13.6z"/>
	<path style="fill:#177E89;" d="M58.4,51.8C54.1,35.4,36,33.6,23.9,25.6c-3.6-2.7-6.3-7.2-5.8-12.4c0-4.3,2.5-8,6.1-9.8
		c2.4-1.2,5.2-1.7,8-1.7h26.3L58.4,51.8z"/>
	<g>
		<path d="M105.5,13.7c-7.3-3.2-11.6-4.5-15.9-4.5c-4.5,0-7.3,1.6-7.3,4.1c0,7.6,25.5,5.4,25.5,22.9c0,9.6-8.1,15.2-19.3,15.2
			c-8.7,0-13.1-2.3-18.1-4.9V35.8c7.2,4.8,11.6,6.5,17.1,6.5c4.8,0,7.3-1.7,7.3-4.6c0-8.2-25.5-5.2-25.5-23.2
			C69.4,5.7,76.9,0,88.5,0c5.6,0,10.7,1.2,17,3.9V13.7z"/>
		<path d="M160,9.8h-18.2v40.9h-12.5V9.8h-18.2V0.7H160V9.8z"/>
		<path d="M215.8,0.7v28.4c0,16.6-11.3,22.3-25.1,22.3c-14.6,0-25.1-6.8-25.1-22.3V0.7h12.5v28.8c0,7.2,5.2,11.5,12.4,11.5
			c6.6,0,12.7-3.5,12.7-12.4V0.7H215.8z"/>
		<path d="M244.7,0.7c10.3,0,16.4,6.9,16.4,14.4c0,5.5-2.9,9.6-8.6,12.3c5.1,2.6,6.7,8.7,13.7,23.4h-13.7
			c-5.4-10.7-7.3-20.4-14.1-20.4h-3.6v20.4h-12.5V0.7H244.7z M234.7,21.2h6.6c3.5,0,6.8-1.5,6.8-5.7c0-3.7-2.4-5.7-7.1-5.7h-6.3
			V21.2z"/>
		<path d="M294,0.7c18.3,0,27.7,11.4,27.7,25.1c0,14.4-9.1,25-29.1,25h-20.7V0.7H294z M284.4,41.6h8.2c12.6,0,16.3-8.5,16.3-15.9
			c0-8.6-4.6-15.9-16.5-15.9h-8V41.6z"/>
		<path d="M337.8,27.3L318,0.7h15.1L344,16.4l11-15.7H370l-19.8,26.7v23.4h-12.5V27.3z"/>
	</g>
	<g>
		<path d="M85.6,61.4h4.2v19.1H85V68.6l-5.2,6h-0.7l-5.2-6v11.9h-4.8V61.4h4.2l6.1,7.1L85.6,61.4z"/>
		<path d="M107.2,80.5H93.1V61.4H107v3.5h-9.1v4h8.7v3.5h-8.7V77h9.3V80.5z"/>
		<path d="M126.4,61.4h4.2v19.1h-4.8V68.6l-5.2,6h-0.7l-5.2-6v11.9H110V61.4h4.2l6.1,7.1L126.4,61.4z"/>
		<path d="M144,80.8c-7,0-11-4.9-11-9.8c0-4.6,3.8-9.8,11-9.8c7.2,0,10.9,5.2,10.9,9.8C155,75.9,150.9,80.8,144,80.8z M144,65.1
			c-3.6,0-6.1,2.3-6.1,5.8c0,3.5,2.4,5.8,6.1,5.8c3.6,0,6-2.3,6-5.8C150,67.5,147.6,65.1,144,65.1z"/>
		<path d="M166,61.4c3.9,0,6.3,2.6,6.3,5.5c0,2.1-1.1,3.7-3.3,4.7c2,1,2.6,3.3,5.2,8.9H169c-2-4.1-2.8-7.8-5.4-7.8h-1.4v7.8h-4.8
			V61.4H166z M162.3,69.3h2.5c1.3,0,2.6-0.6,2.6-2.2c0-1.4-0.9-2.2-2.7-2.2h-2.4V69.3z"/>
		<path d="M180.5,80.5h-4.8V61.4h4.8V80.5z"/>
		<path d="M204.2,80.5h-5.1l-1.6-3.8H189l-1.4,3.8h-5l7.7-19.1h5.5L204.2,80.5z M193,66l-2.8,7.4h5.9L193,66z"/>
		<path d="M220.7,80.5h-14.6V61.4h4.8V77h9.8V80.5z"/>
		<path d="M250,80.5h-4.8v-7.7h-9.5v7.7h-4.8V61.4h4.8v7.7h9.5v-7.7h4.8V80.5z"/>
		<path d="M263.3,80.8c-7,0-11-4.9-11-9.8c0-4.6,3.8-9.8,11-9.8c7.2,0,10.9,5.2,10.9,9.8C274.2,75.9,270.2,80.8,263.3,80.8z
			 M263.3,65.1c-3.6,0-6.1,2.3-6.1,5.8c0,3.5,2.4,5.8,6.1,5.8c3.6,0,6-2.3,6-5.8C269.3,67.5,266.9,65.1,263.3,65.1z"/>
		<path d="M288.9,66.4c-2.8-1.2-4.4-1.7-6.1-1.7c-1.7,0-2.8,0.6-2.8,1.6c0,2.9,9.7,2.1,9.7,8.8c0,3.7-3.1,5.8-7.4,5.8
			c-3.3,0-5-0.9-6.9-1.8v-4.1c2.7,1.8,4.4,2.5,6.5,2.5c1.8,0,2.8-0.6,2.8-1.8c0-3.1-9.7-2-9.7-8.9c0-3.3,2.9-5.5,7.3-5.5
			c2.1,0,4.1,0.4,6.5,1.5V66.4z"/>
		<path d="M300,61.4c4.4,0,6.3,3.1,6.3,5.7c0,2.7-1.9,5.8-6.3,5.8h-3.8v7.7h-4.8V61.4H300z M296.2,69.3h2.2c2.2,0,3-0.8,3-2.2
			c0-1.6-0.9-2.2-3.5-2.2h-1.7V69.3z"/>
		<path d="M313.5,80.5h-4.8V61.4h4.8V80.5z"/>
		<path d="M334.1,64.9h-6.9v15.6h-4.8V64.9h-6.9v-3.5h18.6V64.9z"/>
		<path d="M353.3,80.5h-5.1l-1.6-3.8H338l-1.4,3.8h-5l7.7-19.1h5.5L353.3,80.5z M342.1,66l-2.8,7.4h5.9L342.1,66z"/>
		<path d="M369.5,80.5h-14.6V61.4h4.8V77h9.8V80.5z"/>
	</g>
</g>
</svg>
