<?xml version="1.0" encoding="utf-8"?>
<!-- Generator: Adobe Illustrator 22.1.0, SVG Export Plug-In . SVG Version: 6.00 Build 0)  -->
<svg version="1.1" id="Layer_1" xmlns="http://www.w3.org/2000/svg" xmlns:xlink="http://www.w3.org/1999/xlink" x="0px" y="0px"
	 viewBox="0 0 367.3 122" style="enable-background:new 0 0 367.3 122;" xml:space="preserve">
<style type="text/css">
	.st0{fill:#6D6E71;}
	.st1{fill:#FBB040;}
	.st2{fill:#769647;}
	.st3{fill:#E37C38;}
	.st4{fill:#4881BD;}
</style>
<g>
	<g>
		<g>
			<path class="st0" d="M171.7,73.1h3V80h6.9v-6.8h3v17h-3v-7.5h-6.9v7.5h-3V73.1z"/>
			<path class="st0" d="M199.3,73.1h10.2v2.5h-7.2V80h6.1v2.5h-6.1v5h7.5v2.5h-10.5V73.1z"/>
			<path class="st0" d="M227,73.1h3.5l5.5,17h-3.2l-2.6-9c-0.5-1.8-1-3.7-1.5-5.6h-0.1c-0.5,1.9-1,3.8-1.5,5.6l-2.6,9h-3.1L227,73.1
				z M224.7,83.2h8v2.4h-8V83.2z"/>
			<path class="st0" d="M248.4,73.1h3v14.4h7.1v2.5h-10.1V73.1z"/>
			<path class="st0" d="M272.1,75.7h-4.9v-2.5H280v2.5h-4.9v14.4h-3V75.7z"/>
			<path class="st0" d="M293.2,73.1h3V80h6.9v-6.8h3v17h-3v-7.5h-6.9v7.5h-3V73.1z"/>
		</g>
		<g>
			<path class="st0" d="M140.6,43.2c-1.1,0-1.9,0.2-2.5,0.6c-0.6,0.4-0.9,1.1-0.9,1.9c0,0.8,0.4,1.5,1.3,2.1c0.9,0.6,2,1.2,3.4,1.7
				c1.2,0.4,2.2,0.9,3,1.5c0.8,0.5,1.5,1.3,2.1,2.3c0.5,1,0.8,2.2,0.8,3.7c0,1.3-0.3,2.5-1,3.5c-0.7,1.1-1.6,1.9-2.9,2.6
				c-1.3,0.6-2.8,1-4.6,1c-1.5,0-2.9-0.2-4.4-0.7c-1.5-0.4-2.8-1.1-4.1-2l2.1-3.8c0.8,0.6,1.8,1.1,2.9,1.5c1.1,0.4,2.1,0.6,3,0.6
				c1,0,1.9-0.2,2.7-0.7c0.8-0.4,1.1-1.1,1.1-2.1c0-1.3-1.2-2.4-3.6-3.3c-1.4-0.6-2.6-1.1-3.5-1.6c-0.9-0.5-1.7-1.3-2.4-2.2
				c-0.7-1-1-2.2-1-3.6c0-2.1,0.7-3.8,2.1-5.1c1.4-1.3,3.3-2,5.6-2.1c1.8,0,3.4,0.2,4.6,0.6c1.2,0.4,2.4,1,3.6,1.8l-1.8,3.7
				C144.1,43.8,142.2,43.2,140.6,43.2z"/>
			<path class="st0" d="M174.4,56.8c0.5,0.7,1.1,1.3,1.9,1.7c0.8,0.4,1.6,0.7,2.5,0.7c1,0,1.8-0.2,2.6-0.7c0.8-0.4,1.4-1,1.9-1.7
				c0.5-0.7,0.7-1.5,0.7-2.2V39h4.8v15.7c0,1.8-0.4,3.4-1.3,4.8c-0.9,1.4-2.1,2.5-3.6,3.3c-1.5,0.8-3.2,1.2-5,1.2
				c-1.8,0-3.5-0.4-5-1.2c-1.5-0.8-2.7-1.9-3.6-3.3c-0.9-1.4-1.3-3-1.3-4.8V39h4.9v15.6C173.7,55.3,174,56.1,174.4,56.8z"/>
			<path class="st0" d="M233.7,39v25.7h-0.1l-17.3-15.6l0.1,14.6h-4.9V38h0.2l17.2,15.8L228.8,39H233.7z"/>
			<path class="st0" d="M264.5,43.2c-1.1,0-1.9,0.2-2.5,0.6c-0.6,0.4-0.9,1.1-0.9,1.9c0,0.8,0.4,1.5,1.3,2.1c0.9,0.6,2,1.2,3.4,1.7
				c1.2,0.4,2.2,0.9,3,1.5c0.8,0.5,1.5,1.3,2.1,2.3c0.5,1,0.8,2.2,0.8,3.7c0,1.3-0.3,2.5-1,3.5c-0.7,1.1-1.6,1.9-2.9,2.6
				c-1.3,0.6-2.8,1-4.6,1c-1.5,0-2.9-0.2-4.4-0.7c-1.5-0.4-2.8-1.1-4.1-2l2.1-3.8c0.9,0.6,1.8,1.1,2.9,1.5c1.1,0.4,2.1,0.6,3,0.6
				c1,0,1.9-0.2,2.7-0.7s1.1-1.1,1.1-2.1c0-1.3-1.2-2.4-3.6-3.3c-1.4-0.6-2.6-1.1-3.5-1.6c-0.9-0.5-1.7-1.3-2.4-2.2
				c-0.7-1-1-2.2-1-3.6c0-2.1,0.7-3.8,2.1-5.1c1.4-1.3,3.3-2,5.6-2.1c1.8,0,3.4,0.2,4.6,0.6c1.2,0.4,2.4,1,3.6,1.8l-1.8,3.7
				C267.9,43.8,266,43.2,264.5,43.2z"/>
			<path class="st0" d="M310,39v4.7h-12v5.3h10.6v4.7h-10.6V59h12.4v4.7h-17.3V39H310z"/>
			<path class="st0" d="M347.3,39v4.7h-6v20h-4.9v-20h-5.8V39H347.3z"/>
		</g>
	</g>
	<g>
		<g>
			<path class="st1" d="M64.7,55.8L39.6,30.7c-2.4-2.4-2.7-6.2-0.6-8.8c2.4-2.9,6.8-3.1,9.5-0.5l16.6,16.6l16.3-16.3
				c2.6-2.6,7-2.5,9.5,0.5c2.1,2.6,1.7,6.4-0.6,8.8L65.5,55.8C65.2,56,64.9,56,64.7,55.8z"/>
		</g>
		<g>
			<path class="st2" d="M100.2,88.4c-1.6,0-3.3-0.6-4.5-1.9l-25-24.9c-0.2-0.2-0.2-0.6,0-0.8l25.2-25.3c2.6-2.6,7-2.5,9.5,0.4
				c2.1,2.6,1.8,6.4-0.6,8.8L88.3,61.2l16.1,16.1c2.6,2.6,2.8,7,0,9.5C103.2,87.9,101.7,88.4,100.2,88.4z"/>
		</g>
		<g>
			<path class="st3" d="M86.5,102.9c-1.6,0-3.3-0.6-4.5-1.9L65.3,84.5l-16.1,16.2c-2.3,2.4-6.2,2.8-8.8,0.6c-3-2.4-3.1-6.8-0.5-9.5
				l24.9-25.1c0.2-0.2,0.6-0.2,0.8,0l25.1,25c2.6,2.6,2.8,7,0,9.5C89.5,102.4,88,102.9,86.5,102.9z"/>
		</g>
		<g>
			<path class="st4" d="M29.9,89.1c-1.5,0-3.1-0.5-4.3-1.6c-2.7-2.5-2.6-6.9,0-9.5l16.3-16.5l-16.2-16c-2.4-2.3-2.8-6.2-0.7-8.8
				c2.4-3,6.8-3.1,9.4-0.5L59.6,61c0.2,0.2,0.2,0.6,0,0.8L34.5,87.2C33.2,88.5,31.6,89.1,29.9,89.1z"/>
		</g>
		<circle class="st1" cx="64.9" cy="23" r="6.5"/>
		<circle class="st2" cx="103.4" cy="61" r="6.5"/>
		<circle class="st3" cx="65.5" cy="99.6" r="6.5"/>
		<circle class="st4" cx="26.8" cy="61.8" r="6.5"/>
	</g>
</g>
</svg>
