<?xml version="1.0" encoding="UTF-8"?> <!-- Generator: Adobe Illustrator 25.1.0, SVG Export Plug-In . SVG Version: 6.00 Build 0) --> <svg xmlns="http://www.w3.org/2000/svg" xmlns:xlink="http://www.w3.org/1999/xlink" version="1.1" id="Слой_1" x="0px" y="0px" viewBox="0 0 1000 200" style="enable-background:new 0 0 1000 200;" xml:space="preserve"> <style type="text/css"> .st0{fill:#ADB1BD;} .st1{fill:#D6A700;} .st2{fill:#AB3E50;} .st3{fill:#005689;} .st4{fill:none;stroke:#005689;stroke-width:0.4274;} </style> <g> <path class="st0" d="M266.5,77.1c-0.5-0.2-0.6-0.4-0.6-1.1c0-1.7,0.1-3.6,0.2-4.2c0-0.5,0.1-0.8,0.4-0.8c0.3,0,0.3,0.3,0.3,0.5 c0,0.4,0.1,1.1,0.3,1.6c0.7,2.3,2.6,3.2,4.5,3.2c2.9,0,4.3-1.9,4.3-3.6c0-1.6-0.5-3-3.1-5.1l-1.5-1.1c-3.5-2.7-4.7-5-4.7-7.5 c0-3.5,2.9-6,7.3-6c2.1,0,3.4,0.3,4.2,0.5c0.3,0.1,0.4,0.2,0.4,0.4c0,0.4-0.1,1.3-0.1,3.8c0,0.7-0.1,1-0.4,1 c-0.2,0-0.3-0.2-0.3-0.6c0-0.3-0.2-1.3-0.8-2.1c-0.5-0.6-1.4-1.6-3.5-1.6c-2.3,0-3.8,1.4-3.8,3.3c0,1.5,0.7,2.6,3.4,4.6L274,63 c3.8,2.9,5.2,5.1,5.2,8.1c0,1.8-0.7,4-3,5.5c-1.6,1-3.4,1.3-5,1.3C269.3,77.9,267.9,77.7,266.5,77.1"></path> <path class="st0" d="M291.1,55.2l-4.7,0.1c-1.8,0.1-2.6,0.2-3.1,0.9c-0.3,0.5-0.5,0.9-0.5,1.1c-0.1,0.3-0.2,0.4-0.4,0.4 c-0.2,0-0.3-0.2-0.3-0.5c0-0.5,0.6-3.4,0.7-3.6c0.1-0.4,0.2-0.6,0.4-0.6c0.3,0,0.6,0.3,1.4,0.4c0.9,0.1,2.1,0.2,3.2,0.2h12.6 c1,0,1.7-0.1,2.2-0.2c0.5-0.1,0.7-0.2,0.9-0.2c0.2,0,0.3,0.2,0.3,0.7c0,0.7-0.1,2.9-0.1,3.7c0,0.3-0.1,0.5-0.3,0.5 c-0.3,0-0.3-0.2-0.3-0.6l0-0.3c-0.1-0.8-0.9-1.7-3.7-1.8l-4-0.1v13c0,2.9,0,5.4,0.2,6.8c0.1,0.9,0.3,1.6,1.2,1.7 c0.4,0.1,1.1,0.1,1.6,0.1c0.4,0,0.5,0.1,0.5,0.3c0,0.2-0.3,0.3-0.6,0.3c-2.1,0-4.1-0.1-5-0.1c-0.7,0-2.7,0.1-4,0.1 c-0.4,0-0.6-0.1-0.6-0.3c0-0.2,0.1-0.3,0.5-0.3c0.5,0,0.9-0.1,1.1-0.1c0.6-0.1,0.8-0.8,0.9-1.7c0.2-1.3,0.2-3.8,0.2-6.8V55.2z"></path> <path class="st0" d="M308.9,69.2c-0.2,0-0.2,0.1-0.3,0.3L307,74c-0.3,0.8-0.5,1.6-0.5,1.9c0,0.6,0.3,1,1.3,1h0.5 c0.4,0,0.5,0.1,0.5,0.3c0,0.3-0.2,0.3-0.5,0.3c-1,0-2.4-0.1-3.4-0.1c-0.3,0-2.1,0.1-3.7,0.1c-0.4,0-0.6-0.1-0.6-0.3 c0-0.2,0.1-0.3,0.4-0.3c0.3,0,0.7,0,1-0.1c1.5-0.2,2.1-1.3,2.7-2.9l8-19.9c0.4-0.9,0.6-1.3,0.9-1.3c0.3,0,0.5,0.3,0.8,1 c0.8,1.7,5.8,14.7,7.9,19.5c1.2,2.9,2.1,3.3,2.8,3.5c0.5,0.1,1,0.1,1.3,0.1c0.3,0,0.4,0,0.4,0.3c0,0.3-0.3,0.3-1.5,0.3 c-1.1,0-3.5,0-6-0.1c-0.6,0-1,0-1-0.3c0-0.2,0.1-0.3,0.4-0.3c0.2-0.1,0.4-0.3,0.3-0.7l-2.5-6.7c-0.1-0.2-0.2-0.2-0.3-0.2H308.9z M315.4,67.6c0.2,0,0.2-0.1,0.2-0.2l-2.9-7.8c0-0.1-0.1-0.3-0.2-0.3c-0.1,0-0.2,0.2-0.2,0.3l-2.9,7.8c0,0.1,0,0.2,0.1,0.2H315.4z"></path> <path class="st0" d="M332.2,55.2l-4.7,0.1c-1.8,0.1-2.6,0.2-3.1,0.9c-0.3,0.5-0.5,0.9-0.5,1.1c-0.1,0.3-0.2,0.4-0.4,0.4 c-0.2,0-0.3-0.2-0.3-0.5c0-0.5,0.6-3.4,0.7-3.6c0.1-0.4,0.2-0.6,0.4-0.6c0.3,0,0.6,0.3,1.4,0.4c0.9,0.1,2.1,0.2,3.2,0.2h12.6 c1,0,1.7-0.1,2.2-0.2c0.5-0.1,0.7-0.2,0.9-0.2c0.2,0,0.3,0.2,0.3,0.7c0,0.7-0.1,2.9-0.1,3.7c0,0.3-0.1,0.5-0.3,0.5 c-0.3,0-0.3-0.2-0.3-0.6l0-0.3c-0.1-0.8-0.9-1.7-3.7-1.8l-4-0.1v13c0,2.9,0,5.4,0.2,6.8c0.1,0.9,0.3,1.6,1.2,1.7 c0.4,0.1,1.1,0.1,1.6,0.1c0.3,0,0.5,0.1,0.5,0.3c0,0.2-0.3,0.3-0.6,0.3c-2.1,0-4.1-0.1-5-0.1c-0.7,0-2.7,0.1-4,0.1 c-0.4,0-0.6-0.1-0.6-0.3c0-0.2,0.1-0.3,0.5-0.3c0.5,0,0.9-0.1,1.1-0.1c0.6-0.1,0.8-0.8,0.9-1.7c0.2-1.3,0.2-3.8,0.2-6.8V55.2z"></path> <path class="st0" d="M350.7,62.7c0-4.8,0-5.7-0.1-6.7c-0.1-1.1-0.3-1.6-1.4-1.8C349,54,348.5,54,348,54c-0.4,0-0.5-0.1-0.5-0.3 c0-0.2,0.2-0.3,0.7-0.3c0.9,0,1.8,0,2.6,0c0.8,0,1.6,0.1,2,0.1c1,0,7.3,0,7.9,0c0.6-0.1,1.1-0.1,1.4-0.2c0.2,0,0.4-0.1,0.5-0.1 c0.2,0,0.2,0.1,0.2,0.3c0,0.2-0.2,0.6-0.3,2.1c0,0.3-0.1,1.7-0.2,2.1c0,0.2-0.1,0.3-0.3,0.3c-0.2,0-0.3-0.2-0.3-0.4 c0-0.2,0-0.8-0.2-1.1c-0.2-0.6-0.5-1-2.1-1.1c-0.5-0.1-3.9-0.1-4.5-0.1c-0.2,0-0.2,0.1-0.2,0.3v8c0,0.2,0,0.3,0.2,0.3 c0.7,0,4.4,0,5.1-0.1c0.8-0.1,1.2-0.2,1.5-0.5c0.2-0.3,0.4-0.4,0.5-0.4c0.1,0,0.2,0.1,0.2,0.3c0,0.2-0.1,0.7-0.3,2.3 c0,0.6-0.1,1.9-0.1,2.1c0,0.3,0,0.6-0.3,0.6c-0.2,0-0.3-0.1-0.3-0.3c0-0.3,0-0.7-0.1-1.1c-0.2-0.6-0.6-1.1-1.8-1.2 c-0.6-0.1-3.7-0.1-4.5-0.1c-0.2,0-0.2,0.1-0.2,0.3v2.5c0,1.1,0,4,0,4.9c0.1,2.2,0.6,2.7,3.8,2.7c0.8,0,2.2,0,3-0.4 c0.8-0.4,1.2-1,1.4-2.3c0.1-0.3,0.1-0.5,0.4-0.5c0.3,0,0.3,0.3,0.3,0.6c0,0.7-0.3,2.9-0.4,3.5c-0.2,0.8-0.5,0.8-1.7,0.8 c-2.4,0-4.1-0.1-5.5-0.1c-1.4-0.1-2.4-0.1-3.3-0.1c-0.3,0-1,0-1.8,0c-0.7,0-1.6,0.1-2.2,0.1c-0.4,0-0.6-0.1-0.6-0.3 c0-0.2,0.1-0.3,0.5-0.3c0.5,0,0.9-0.1,1.1-0.1c0.6-0.1,0.8-0.8,0.9-1.7c0.2-1.3,0.2-3.8,0.2-6.8V62.7z"></path> <path class="st0" d="M379.2,62.7c0-4.8,0-5.7-0.1-6.7c-0.1-1.1-0.3-1.6-1.4-1.8c-0.3-0.1-0.8-0.1-1.2-0.1c-0.3,0-0.5-0.1-0.5-0.3 c0-0.2,0.2-0.3,0.7-0.3c1.7,0,3.7,0.1,4.6,0.1c0.8,0,2.8-0.1,3.9-0.1c0.5,0,0.7,0.1,0.7,0.3c0,0.2-0.2,0.3-0.5,0.3 c-0.3,0-0.5,0-0.9,0.1c-0.9,0.2-1.1,0.7-1.2,1.8c-0.1,1-0.1,1.9-0.1,6.7v4.4c0,4.6,0.9,6.5,2.5,7.8c1.4,1.2,2.9,1.3,4,1.3 c1.4,0,3.1-0.4,4.4-1.7c1.7-1.7,1.8-4.6,1.8-7.9v-4c0-4.8,0-5.7-0.1-6.7c-0.1-1.1-0.3-1.6-1.4-1.8c-0.3-0.1-0.8-0.1-1.1-0.1 c-0.4,0-0.5-0.1-0.5-0.3c0-0.2,0.2-0.3,0.7-0.3c1.6,0,3.6,0.1,3.7,0.1c0.4,0,2.4-0.1,3.6-0.1c0.4,0,0.7,0.1,0.7,0.3 c0,0.2-0.2,0.3-0.6,0.3c-0.3,0-0.5,0-0.9,0.1c-0.9,0.2-1.1,0.7-1.2,1.8c-0.1,1-0.1,1.9-0.1,6.7v3.4c0,3.5-0.3,7.3-3,9.6 c-2.3,1.9-4.5,2.3-6.6,2.3c-1.7,0-4.7-0.1-7-2.2c-1.6-1.5-2.8-3.8-2.8-8.4V62.7z"></path> <path class="st0" d="M409.6,73.1c0.1,2.5,0.5,3.3,1.1,3.5c0.5,0.2,1.1,0.2,1.7,0.2c0.4,0,0.5,0.1,0.5,0.3c0,0.3-0.3,0.3-0.7,0.3 c-2.1,0-3.3-0.1-3.9-0.1c-0.3,0-1.8,0.1-3.4,0.1c-0.4,0-0.7,0-0.7-0.3c0-0.2,0.2-0.3,0.5-0.3c0.4,0,1,0,1.4-0.2 c0.8-0.3,1-1.2,1-3.9l0.3-18.8c0-0.6,0.1-1.1,0.4-1.1c0.4,0,0.6,0.4,1.2,1c0.4,0.4,5.2,5.6,9.8,10.2c2.2,2.2,6.4,6.7,7,7.2h0.2 l-0.3-14.3c0-1.9-0.3-2.5-1.1-2.9c-0.5-0.2-1.2-0.2-1.7-0.2c-0.4,0-0.5-0.1-0.5-0.3c0-0.3,0.4-0.3,0.8-0.3c1.7,0,3.2,0.1,3.8,0.1 c0.4,0,1.6-0.1,3.1-0.1c0.4,0,0.7,0,0.7,0.3c0,0.2-0.2,0.3-0.6,0.3c-0.3,0-0.6,0-1,0.1c-0.9,0.3-1.1,0.9-1.2,2.7l-0.4,20 c0,0.7-0.1,1-0.4,1c-0.4,0-0.7-0.4-1.1-0.7c-2-1.9-6.1-6.1-9.4-9.3c-3.5-3.4-7-7.4-7.6-8h-0.1L409.6,73.1z"></path> <path class="st0" d="M437.7,62.7c0-4.8,0-5.7-0.1-6.7c-0.1-1.1-0.4-1.6-1.1-1.8c-0.3-0.1-0.8-0.1-1.1-0.1c-0.3,0-0.5-0.1-0.5-0.3 c0-0.2,0.3-0.3,0.8-0.3c1.2,0,3.2,0.1,4.1,0.1c0.8,0,2.7-0.1,3.9-0.1c0.4,0,0.7,0.1,0.7,0.3c0,0.3-0.2,0.3-0.5,0.3 c-0.3,0-0.6,0-1,0.1c-0.9,0.2-1.1,0.7-1.2,1.8c-0.1,1-0.1,1.9-0.1,6.7v5.6c0,3.1,0,5.6,0.1,7c0.1,0.9,0.3,1.4,1.3,1.6 c0.4,0.1,1.1,0.1,1.6,0.1c0.3,0,0.5,0.1,0.5,0.3c0,0.2-0.3,0.3-0.6,0.3c-2.1,0-4.1-0.1-5-0.1c-0.7,0-2.7,0.1-4,0.1 c-0.4,0-0.6-0.1-0.6-0.3c0-0.2,0.1-0.3,0.5-0.3c0.5,0,0.9-0.1,1.1-0.1c0.6-0.1,0.8-0.7,0.9-1.6c0.2-1.3,0.2-3.8,0.2-6.9V62.7z"></path> <path class="st0" d="M449.3,56.6c-0.7-1.7-1.3-2.1-2.4-2.4c-0.5-0.1-1-0.1-1.2-0.1c-0.3,0-0.4-0.1-0.4-0.3c0-0.3,0.3-0.3,0.8-0.3 c1.7,0,3.5,0.1,4.6,0.1c0.8,0,2.3-0.1,3.9-0.1c0.4,0,0.7,0.1,0.7,0.3c0,0.2-0.2,0.3-0.5,0.3c-0.5,0-1,0-1.2,0.2 c-0.2,0.2-0.3,0.4-0.3,0.7c0,0.4,0.3,1.3,0.7,2.4l5.5,14.4h0.1c1.4-3.5,5.5-13.7,6.3-15.8c0.2-0.4,0.3-0.9,0.3-1.2 c0-0.3-0.1-0.5-0.4-0.6c-0.4-0.1-0.9-0.2-1.3-0.2c-0.3,0-0.5,0-0.5-0.3c0-0.3,0.3-0.3,0.9-0.3c1.6,0,2.9,0.1,3.3,0.1 c0.5,0,2-0.1,3-0.1c0.4,0,0.7,0.1,0.7,0.3c0,0.2-0.2,0.3-0.5,0.3c-0.3,0-1,0-1.6,0.4c-0.4,0.3-0.9,0.8-1.7,2.9 c-1.2,3-2.1,4.7-3.8,8.6c-2,4.6-3.5,8.1-4.2,9.7c-0.8,1.8-1,2.3-1.5,2.3c-0.4,0-0.6-0.4-1.2-1.9L449.3,56.6z"></path> <path class="st0" d="M475.4,62.7c0-4.8,0-5.7-0.1-6.7c-0.1-1.1-0.3-1.6-1.4-1.8c-0.3-0.1-0.8-0.1-1.2-0.1c-0.3,0-0.5-0.1-0.5-0.3 c0-0.2,0.2-0.3,0.7-0.3c0.9,0,1.8,0,2.6,0c0.8,0,1.6,0.1,2,0.1c1,0,7.3,0,7.9,0c0.6-0.1,1.1-0.1,1.4-0.2c0.2,0,0.4-0.1,0.5-0.1 c0.2,0,0.2,0.1,0.2,0.3c0,0.2-0.2,0.6-0.3,2.1c0,0.3-0.1,1.7-0.2,2.1c0,0.2-0.1,0.3-0.3,0.3c-0.2,0-0.3-0.2-0.3-0.4 c0-0.2,0-0.8-0.2-1.1c-0.2-0.6-0.5-1-2.1-1.1c-0.5-0.1-3.9-0.1-4.5-0.1c-0.2,0-0.2,0.1-0.2,0.3v8c0,0.2,0,0.3,0.2,0.3 c0.7,0,4.4,0,5.1-0.1c0.8-0.1,1.2-0.2,1.5-0.5c0.2-0.3,0.4-0.4,0.5-0.4c0.1,0,0.2,0.1,0.2,0.3c0,0.2-0.1,0.7-0.3,2.3 c0,0.6-0.1,1.9-0.1,2.1c0,0.3,0,0.6-0.3,0.6c-0.2,0-0.3-0.1-0.3-0.3c0-0.3,0-0.7-0.1-1.1c-0.2-0.6-0.6-1.1-1.8-1.2 c-0.6-0.1-3.7-0.1-4.5-0.1c-0.2,0-0.2,0.1-0.2,0.3v2.5c0,1.1,0,4,0,4.9c0.1,2.2,0.6,2.7,3.8,2.7c0.8,0,2.2,0,3-0.4 c0.8-0.4,1.2-1,1.4-2.3c0.1-0.3,0.1-0.5,0.4-0.5c0.3,0,0.3,0.3,0.3,0.6c0,0.7-0.3,2.9-0.4,3.5c-0.2,0.8-0.5,0.8-1.7,0.8 c-2.4,0-4.1-0.1-5.5-0.1c-1.4-0.1-2.3-0.1-3.3-0.1c-0.3,0-1,0-1.8,0c-0.7,0-1.6,0.1-2.2,0.1c-0.4,0-0.6-0.1-0.6-0.3 c0-0.2,0.1-0.3,0.5-0.3c0.5,0,0.9-0.1,1.1-0.1c0.6-0.1,0.8-0.8,0.9-1.7c0.2-1.3,0.2-3.8,0.2-6.8V62.7z"></path> <path class="st0" d="M495.6,62.7c0-4.8,0-5.7-0.1-6.7c-0.1-1.1-0.3-1.6-1.4-1.8c-0.3-0.1-0.8-0.1-1.2-0.1c-0.3,0-0.5-0.1-0.5-0.3 c0-0.2,0.2-0.3,0.7-0.3c1.7,0,3.7,0.1,4.4,0.1c1.1,0,3.5-0.1,4.5-0.1c2,0,4.1,0.2,5.8,1.4c0.9,0.6,2.2,2.2,2.2,4.4 c0,2.3-1,4.5-4.2,7.1c2.8,3.6,5,6.4,6.9,8.4c1.8,1.8,3.1,2.1,3.6,2.2c0.3,0.1,0.6,0.1,0.9,0.1c0.3,0,0.4,0.1,0.4,0.3 c0,0.3-0.2,0.3-0.6,0.3h-3c-1.8,0-2.6-0.2-3.4-0.6c-1.4-0.7-2.6-2.2-4.4-4.7c-1.3-1.7-2.7-3.9-3.1-4.4c-0.2-0.2-0.3-0.2-0.6-0.2 l-2.8-0.1c-0.2,0-0.3,0.1-0.3,0.3v0.4c0,3,0,5.5,0.2,6.8c0.1,0.9,0.3,1.6,1.2,1.7c0.5,0.1,1.2,0.1,1.6,0.1c0.3,0,0.4,0.1,0.4,0.3 c0,0.2-0.2,0.3-0.6,0.3c-1.8,0-4.2-0.1-4.7-0.1c-0.6,0-2.6,0.1-3.9,0.1c-0.4,0-0.6-0.1-0.6-0.3c0-0.2,0.1-0.3,0.5-0.3 c0.5,0,0.9-0.1,1.1-0.1c0.6-0.1,0.8-0.8,0.9-1.7c0.2-1.3,0.2-3.8,0.2-6.8V62.7z M499.4,65.2c0,0.3,0.1,0.5,0.3,0.6 c0.7,0.2,1.6,0.3,2.4,0.3c1.3,0,1.7-0.1,2.3-0.5c1-0.7,1.9-2.2,1.9-4.8c0-4.5-3-5.8-4.9-5.8c-0.8,0-1.4,0-1.7,0.1 c-0.2,0.1-0.3,0.2-0.3,0.4V65.2z"></path> <path class="st0" d="M517.8,77.1c-0.5-0.2-0.6-0.4-0.6-1.1c0-1.7,0.1-3.6,0.2-4.2c0-0.5,0.1-0.8,0.4-0.8c0.3,0,0.3,0.3,0.3,0.5 c0,0.4,0.1,1.1,0.3,1.6c0.7,2.3,2.6,3.2,4.5,3.2c2.9,0,4.3-1.9,4.3-3.6c0-1.6-0.5-3-3.1-5.1l-1.5-1.1c-3.5-2.7-4.7-5-4.7-7.5 c0-3.5,2.9-6,7.3-6c2.1,0,3.4,0.3,4.2,0.5c0.3,0.1,0.4,0.2,0.4,0.4c0,0.4-0.1,1.3-0.1,3.8c0,0.7-0.1,1-0.4,1 c-0.2,0-0.3-0.2-0.3-0.6c0-0.3-0.2-1.3-0.8-2.1c-0.5-0.6-1.4-1.6-3.5-1.6c-2.3,0-3.8,1.4-3.8,3.3c0,1.5,0.7,2.6,3.4,4.6l0.9,0.7 c3.8,2.9,5.2,5.1,5.2,8.1c0,1.8-0.7,4-3,5.5c-1.6,1-3.4,1.3-5,1.3C520.6,77.9,519.2,77.7,517.8,77.1"></path> <path class="st0" d="M538.2,62.7c0-4.8,0-5.7-0.1-6.7c-0.1-1.1-0.4-1.6-1.1-1.8c-0.3-0.1-0.8-0.1-1.1-0.1c-0.3,0-0.5-0.1-0.5-0.3 c0-0.2,0.3-0.3,0.8-0.3c1.2,0,3.2,0.1,4.1,0.1c0.8,0,2.7-0.1,3.9-0.1c0.4,0,0.7,0.1,0.7,0.3c0,0.3-0.2,0.3-0.5,0.3 c-0.3,0-0.6,0-1,0.1c-0.9,0.2-1.1,0.7-1.2,1.8c-0.1,1-0.1,1.9-0.1,6.7v5.6c0,3.1,0,5.6,0.1,7c0.1,0.9,0.3,1.4,1.3,1.6 c0.4,0.1,1.1,0.1,1.6,0.1c0.4,0,0.5,0.1,0.5,0.3c0,0.2-0.3,0.3-0.6,0.3c-2.1,0-4.1-0.1-5-0.1c-0.7,0-2.7,0.1-4,0.1 c-0.4,0-0.6-0.1-0.6-0.3c0-0.2,0.1-0.3,0.5-0.3c0.5,0,0.9-0.1,1.1-0.1c0.6-0.1,0.8-0.7,0.9-1.6c0.2-1.3,0.2-3.8,0.2-6.9V62.7z"></path> <path class="st0" d="M557,55.2l-4.7,0.1c-1.8,0.1-2.6,0.2-3.1,0.9c-0.3,0.5-0.5,0.9-0.5,1.1c-0.1,0.3-0.2,0.4-0.4,0.4 c-0.2,0-0.3-0.2-0.3-0.5c0-0.5,0.6-3.4,0.7-3.6c0.1-0.4,0.2-0.6,0.4-0.6c0.3,0,0.6,0.3,1.4,0.4c0.9,0.1,2.1,0.2,3.2,0.2h12.6 c1,0,1.7-0.1,2.2-0.2c0.5-0.1,0.7-0.2,0.9-0.2c0.2,0,0.3,0.2,0.3,0.7c0,0.7-0.1,2.9-0.1,3.7c0,0.3-0.1,0.5-0.3,0.5 c-0.3,0-0.3-0.2-0.4-0.6l0-0.3c-0.1-0.8-0.9-1.7-3.7-1.8l-4-0.1v13c0,2.9,0,5.4,0.2,6.8c0.1,0.9,0.3,1.6,1.2,1.7 c0.4,0.1,1.1,0.1,1.6,0.1c0.3,0,0.5,0.1,0.5,0.3c0,0.2-0.3,0.3-0.6,0.3c-2.1,0-4.1-0.1-5-0.1c-0.7,0-2.7,0.1-4,0.1 c-0.4,0-0.6-0.1-0.6-0.3c0-0.2,0.1-0.3,0.5-0.3c0.5,0,0.9-0.1,1.1-0.1c0.6-0.1,0.8-0.8,0.9-1.7c0.2-1.3,0.2-3.8,0.2-6.8V55.2z"></path> <path class="st0" d="M579.1,69.2c0-1.7-0.3-2.4-0.7-3.3c-0.2-0.5-4.5-7.5-5.6-9.1c-0.8-1.2-1.6-2-2.2-2.3c-0.4-0.2-1-0.4-1.3-0.4 c-0.3,0-0.5-0.1-0.5-0.3c0-0.2,0.2-0.3,0.6-0.3c0.6,0,3,0.1,4,0.1c0.7,0,2-0.1,3.4-0.1c0.3,0,0.5,0.1,0.5,0.3 c0,0.2-0.2,0.2-0.7,0.4c-0.3,0.1-0.4,0.3-0.4,0.6c0,0.3,0.2,0.6,0.4,1.1c0.4,0.9,4.9,8.6,5.4,9.5c0.3-0.8,4.3-7.7,4.8-8.7 c0.3-0.7,0.4-1.2,0.4-1.7c0-0.3-0.1-0.7-0.7-0.8c-0.3-0.1-0.6-0.1-0.6-0.3c0-0.2,0.2-0.3,0.5-0.3c1,0,2.1,0.1,3,0.1 c0.7,0,2.8-0.1,3.4-0.1c0.3,0,0.6,0.1,0.6,0.3c0,0.2-0.3,0.3-0.6,0.3c-0.3,0-0.9,0.1-1.4,0.4c-0.7,0.3-1,0.7-1.7,1.6 c-1,1.3-5.5,8.7-6.1,10.1c-0.5,1.1-0.5,2.1-0.5,3.2v2.6c0,0.5,0,1.8,0.1,3.2c0.1,0.9,0.4,1.6,1.3,1.7c0.4,0.1,1.1,0.1,1.6,0.1 c0.3,0,0.5,0.1,0.5,0.3c0,0.2-0.3,0.3-0.7,0.3c-2,0-4-0.1-4.9-0.1c-0.8,0-2.8,0.1-4,0.1c-0.4,0-0.7-0.1-0.7-0.3 c0-0.2,0.2-0.3,0.5-0.3c0.4,0,0.8-0.1,1.1-0.1c0.6-0.1,0.9-0.8,1-1.7c0.1-1.3,0.1-2.7,0.1-3.2V69.2z"></path> <path class="st0" d="M603.2,65.5c0-5.4,3.6-12.4,13.1-12.4c7.9,0,12.8,4.6,12.8,11.9c0,7.3-5.1,13-13.1,13 C606.9,77.9,603.2,71.1,603.2,65.5 M624.7,66.1c0-7.1-4.1-11.5-9.3-11.5c-3.6,0-7.8,2-7.8,9.9c0,6.6,3.7,11.8,9.7,11.8 C619.6,76.3,624.7,75.2,624.7,66.1"></path> <path class="st0" d="M640,68.2c0,3,0,5.4,0.2,6.8c0.1,0.9,0.3,1.6,1.2,1.7c0.4,0.1,1.1,0.1,1.6,0.1c0.4,0,0.5,0.1,0.5,0.3 c0,0.2-0.2,0.3-0.7,0.3c-2,0-4-0.1-4.8-0.1c-0.8,0-2.8,0.1-4,0.1c-0.4,0-0.7-0.1-0.7-0.3c0-0.2,0.1-0.3,0.5-0.3 c0.5,0,0.9-0.1,1.1-0.1c0.6-0.1,0.8-0.8,0.9-1.7c0.2-1.3,0.2-3.7,0.2-6.8v-5.6c0-4.8,0-5.7-0.1-6.7c-0.1-1.1-0.3-1.6-1.4-1.8 c-0.3-0.1-0.8-0.1-1.2-0.1c-0.3,0-0.5-0.1-0.5-0.3c0-0.3,0.3-0.3,0.7-0.3c0.8,0,1.7,0,2.6,0c0.8,0,1.6,0.1,2,0.1c1.2,0,7.7,0,8.4,0 c0.6,0,1,0,1.3-0.1c0.2-0.1,0.4-0.2,0.5-0.2c0.1,0,0.2,0.1,0.2,0.3c0,0.2-0.2,0.6-0.3,1.4c0,0.3-0.1,2.2-0.2,2.6 c0,0.3-0.1,0.4-0.3,0.4c-0.2,0-0.3-0.2-0.3-0.5c0-0.3,0-0.8-0.2-1.2c-0.2-0.4-0.9-0.9-2.1-1l-4.9-0.1c-0.2,0-0.3,0.1-0.3,0.4v7.9 c0,0.2,0,0.3,0.2,0.3l4.1,0c0.5,0,1,0,1.4,0c0.6,0,1-0.2,1.4-0.6c0.2-0.2,0.2-0.3,0.4-0.3c0.1,0,0.2,0.1,0.2,0.3c0,0.2-0.2,1-0.3,2 c-0.1,0.6-0.1,2.1-0.1,2.3c0,0.3,0,0.6-0.3,0.6c-0.2,0-0.3-0.2-0.3-0.4c0-0.2-0.1-0.6-0.2-1c-0.2-0.4-0.6-1-1.6-1.1 c-0.8-0.1-4.2-0.1-4.7-0.1c-0.2,0-0.2,0.1-0.2,0.3V68.2z"></path> <path class="st0" d="M667.4,73.1c0.1,2.5,0.5,3.3,1.1,3.5c0.5,0.2,1.1,0.2,1.7,0.2c0.4,0,0.5,0.1,0.5,0.3c0,0.3-0.3,0.3-0.7,0.3 c-2.1,0-3.3-0.1-3.9-0.1c-0.3,0-1.8,0.1-3.4,0.1c-0.4,0-0.7,0-0.7-0.3c0-0.2,0.2-0.3,0.5-0.3c0.4,0,1,0,1.4-0.2 c0.8-0.3,1-1.2,1-3.9l0.3-18.8c0-0.6,0.1-1.1,0.4-1.1c0.3,0,0.6,0.4,1.2,1c0.4,0.4,5.2,5.6,9.8,10.2c2.2,2.2,6.4,6.7,7,7.2h0.2 l-0.3-14.3c0-1.9-0.3-2.5-1.1-2.9c-0.5-0.2-1.2-0.2-1.7-0.2c-0.4,0-0.5-0.1-0.5-0.3c0-0.3,0.3-0.3,0.8-0.3c1.6,0,3.2,0.1,3.8,0.1 c0.4,0,1.6-0.1,3.1-0.1c0.4,0,0.7,0,0.7,0.3c0,0.2-0.2,0.3-0.6,0.3c-0.3,0-0.6,0-0.9,0.1c-0.9,0.3-1.1,0.9-1.2,2.7l-0.3,20 c0,0.7-0.1,1-0.4,1c-0.4,0-0.7-0.4-1.1-0.7c-2-1.9-6.1-6.1-9.4-9.3c-3.5-3.4-7-7.4-7.6-8H667L667.4,73.1z"></path> <path class="st0" d="M695.8,62.7c0-4.8,0-5.7-0.1-6.7c-0.1-1.1-0.3-1.6-1.4-1.8c-0.3-0.1-0.8-0.1-1.2-0.1c-0.3,0-0.5-0.1-0.5-0.3 c0-0.2,0.2-0.3,0.7-0.3c0.9,0,1.8,0,2.6,0c0.8,0,1.6,0.1,2,0.1c1,0,7.3,0,7.9,0c0.6-0.1,1.1-0.1,1.4-0.2c0.2,0,0.4-0.1,0.5-0.1 c0.2,0,0.2,0.1,0.2,0.3c0,0.2-0.2,0.6-0.3,2.1c0,0.3-0.1,1.7-0.2,2.1c0,0.2-0.1,0.3-0.3,0.3c-0.2,0-0.3-0.2-0.3-0.4 c0-0.2,0-0.8-0.2-1.1c-0.2-0.6-0.5-1-2.1-1.1c-0.5-0.1-3.9-0.1-4.5-0.1c-0.2,0-0.2,0.1-0.2,0.3v8c0,0.2,0,0.3,0.2,0.3 c0.7,0,4.4,0,5.1-0.1c0.8-0.1,1.2-0.2,1.5-0.5c0.2-0.3,0.3-0.4,0.5-0.4c0.1,0,0.2,0.1,0.2,0.3c0,0.2-0.1,0.7-0.3,2.3 c0,0.6-0.1,1.9-0.1,2.1c0,0.3,0,0.6-0.3,0.6c-0.2,0-0.3-0.1-0.3-0.3c0-0.3,0-0.7-0.1-1.1c-0.2-0.6-0.6-1.1-1.8-1.2 c-0.6-0.1-3.7-0.1-4.5-0.1c-0.2,0-0.2,0.1-0.2,0.3v2.5c0,1.1,0,4,0,4.9c0.1,2.2,0.6,2.7,3.8,2.7c0.8,0,2.2,0,3-0.4 c0.8-0.4,1.2-1,1.4-2.3c0.1-0.3,0.1-0.5,0.3-0.5c0.3,0,0.3,0.3,0.3,0.6c0,0.7-0.3,2.9-0.4,3.5c-0.2,0.8-0.5,0.8-1.7,0.8 c-2.4,0-4.1-0.1-5.5-0.1c-1.4-0.1-2.3-0.1-3.3-0.1c-0.3,0-1,0-1.8,0c-0.7,0-1.6,0.1-2.2,0.1c-0.4,0-0.6-0.1-0.6-0.3 c0-0.2,0.1-0.3,0.5-0.3c0.5,0,0.9-0.1,1.1-0.1c0.6-0.1,0.8-0.8,0.9-1.7c0.2-1.3,0.2-3.8,0.2-6.8V62.7z"></path> <path class="st0" d="M713.2,56.6c-0.4-1.2-0.7-1.9-1.2-2.3c-0.3-0.2-1-0.3-1.3-0.3c-0.3,0-0.5,0-0.5-0.3c0-0.2,0.3-0.3,0.7-0.3 c1.6,0,3.4,0.1,3.7,0.1c0.3,0,1.7-0.1,3.5-0.1c0.4,0,0.7,0.1,0.7,0.3c0,0.3-0.3,0.3-0.6,0.3c-0.3,0-0.6,0-0.8,0.1 c-0.3,0.1-0.3,0.3-0.3,0.7c0,0.4,0.3,1.5,0.7,2.9c0.5,2.1,3.5,11.7,4.1,13.5h0.1l6.2-16.5c0.3-0.9,0.5-1.1,0.8-1.1 c0.4,0,0.5,0.5,0.9,1.5l6.6,16h0.1c0.6-2.1,3.1-10.5,4.2-14.2c0.2-0.7,0.3-1.4,0.3-1.8c0-0.5-0.3-0.9-1.5-0.9 c-0.3,0-0.5-0.1-0.5-0.3c0-0.2,0.3-0.3,0.7-0.3c1.7,0,3,0.1,3.3,0.1c0.2,0,1.6-0.1,2.6-0.1c0.4,0,0.6,0.1,0.6,0.3 c0,0.2-0.2,0.3-0.4,0.3c-0.3,0-0.8,0-1.1,0.2c-0.8,0.3-1.1,1.6-1.8,3.4c-1.5,4-4.8,14.1-6.3,18.9c-0.4,1.1-0.5,1.5-0.9,1.5 c-0.3,0-0.5-0.4-1-1.6l-6.6-15.9H728c-0.6,1.6-4.8,12.9-6.2,15.8c-0.6,1.3-0.8,1.7-1.1,1.7c-0.3,0-0.4-0.3-0.7-1.2L713.2,56.6z"></path> <path class="st0" d="M763.9,69.2c0-1.7-0.3-2.4-0.7-3.3c-0.2-0.5-4.5-7.5-5.6-9.1c-0.8-1.2-1.6-2-2.2-2.3c-0.4-0.2-1-0.4-1.3-0.4 c-0.3,0-0.5-0.1-0.5-0.3c0-0.2,0.2-0.3,0.6-0.3c0.6,0,3,0.1,4,0.1c0.7,0,2-0.1,3.4-0.1c0.3,0,0.5,0.1,0.5,0.3 c0,0.2-0.2,0.2-0.7,0.4c-0.3,0.1-0.4,0.3-0.4,0.6c0,0.3,0.2,0.6,0.4,1.1c0.4,0.9,4.9,8.6,5.4,9.5c0.3-0.8,4.3-7.7,4.8-8.7 c0.3-0.7,0.4-1.2,0.4-1.7c0-0.3-0.1-0.7-0.7-0.8c-0.3-0.1-0.6-0.1-0.6-0.3c0-0.2,0.2-0.3,0.5-0.3c1,0,2.1,0.1,3,0.1 c0.7,0,2.8-0.1,3.4-0.1c0.3,0,0.6,0.1,0.6,0.3c0,0.2-0.3,0.3-0.6,0.3c-0.3,0-0.9,0.1-1.4,0.4c-0.7,0.3-1,0.7-1.7,1.6 c-1,1.3-5.5,8.7-6.1,10.1c-0.5,1.1-0.5,2.1-0.5,3.2v2.6c0,0.5,0,1.8,0.1,3.2c0.1,0.9,0.3,1.6,1.3,1.7c0.4,0.1,1.1,0.1,1.6,0.1 c0.4,0,0.5,0.1,0.5,0.3c0,0.2-0.3,0.3-0.7,0.3c-2,0-4-0.1-4.9-0.1c-0.8,0-2.8,0.1-4,0.1c-0.4,0-0.7-0.1-0.7-0.3 c0-0.2,0.2-0.3,0.5-0.3c0.4,0,0.8-0.1,1.1-0.1c0.6-0.1,0.9-0.8,1-1.7c0.1-1.3,0.1-2.7,0.1-3.2V69.2z"></path> <path class="st0" d="M777.7,65.5c0-5.4,3.6-12.4,13.1-12.4c7.9,0,12.8,4.6,12.8,11.9c0,7.3-5.1,13-13.1,13 C781.3,77.9,777.7,71.1,777.7,65.5 M799.2,66.1c0-7.1-4.1-11.5-9.3-11.5c-3.6,0-7.8,2-7.8,9.9c0,6.6,3.7,11.8,9.7,11.8 C794,76.3,799.2,75.2,799.2,66.1"></path> <path class="st0" d="M810.4,62.7c0-4.8,0-5.7-0.1-6.7c-0.1-1.1-0.3-1.6-1.4-1.8c-0.3-0.1-0.8-0.1-1.2-0.1c-0.3,0-0.5-0.1-0.5-0.3 c0-0.2,0.2-0.3,0.7-0.3c1.7,0,3.7,0.1,4.4,0.1c1.1,0,3.5-0.1,4.5-0.1c2,0,4.1,0.2,5.8,1.4c0.9,0.6,2.2,2.2,2.2,4.4 c0,2.3-1,4.5-4.2,7.1c2.8,3.6,5,6.4,6.9,8.4c1.8,1.8,3.1,2.1,3.6,2.2c0.4,0.1,0.6,0.1,0.9,0.1c0.3,0,0.4,0.1,0.4,0.3 c0,0.3-0.2,0.3-0.6,0.3h-3c-1.8,0-2.6-0.2-3.4-0.6c-1.4-0.7-2.6-2.2-4.4-4.7c-1.3-1.7-2.7-3.9-3.1-4.4c-0.2-0.2-0.3-0.2-0.6-0.2 l-2.8-0.1c-0.2,0-0.3,0.1-0.3,0.3v0.4c0,3,0,5.5,0.2,6.8c0.1,0.9,0.3,1.6,1.2,1.7c0.5,0.1,1.2,0.1,1.6,0.1c0.3,0,0.4,0.1,0.4,0.3 c0,0.2-0.2,0.3-0.6,0.3c-1.8,0-4.2-0.1-4.7-0.1c-0.6,0-2.6,0.1-3.9,0.1c-0.4,0-0.6-0.1-0.6-0.3c0-0.2,0.1-0.3,0.5-0.3 c0.5,0,0.9-0.1,1.1-0.1c0.6-0.1,0.8-0.8,0.9-1.7c0.2-1.3,0.2-3.8,0.2-6.8V62.7z M814.1,65.2c0,0.3,0.1,0.5,0.3,0.6 c0.7,0.2,1.6,0.3,2.4,0.3c1.3,0,1.7-0.1,2.3-0.5c1-0.7,1.9-2.2,1.9-4.8c0-4.5-3-5.8-4.9-5.8c-0.8,0-1.4,0-1.7,0.1 c-0.2,0.1-0.3,0.2-0.3,0.4V65.2z"></path> <path class="st0" d="M838.4,64.1h0.2c1.1-1.2,5.7-5.9,6.6-7c0.9-1.1,1.6-1.8,1.6-2.4c0-0.4-0.1-0.6-0.4-0.6 c-0.3-0.1-0.4-0.1-0.4-0.3c0-0.2,0.2-0.3,0.5-0.3c0.7,0,2.4,0.1,3.3,0.1c1,0,2.7-0.1,3.7-0.1c0.3,0,0.5,0.1,0.5,0.3 c0,0.2-0.2,0.3-0.5,0.3c-0.4,0-1.2,0.1-1.8,0.3c-1,0.4-2.1,1-3.4,2.4c-1,1-5.8,5.7-6.9,6.9c1.1,1.5,7.4,8.2,8.6,9.4 c1.4,1.3,2.8,2.8,4.5,3.4c1,0.4,1.6,0.5,2,0.5c0.2,0,0.4,0.1,0.4,0.3c0,0.2-0.2,0.3-0.8,0.3h-2.8c-1,0-1.5,0-2.2-0.1 c-1.7-0.2-2.6-0.9-3.9-2.1c-1.4-1.2-7.7-8.6-8.3-9.5l-0.4-0.5h-0.2v2.9c0,2.9,0,5.4,0.1,6.8c0.1,0.9,0.4,1.6,1.1,1.7 c0.4,0.1,1.1,0.1,1.6,0.1c0.3,0,0.4,0.1,0.4,0.3c0,0.2-0.3,0.3-0.6,0.3c-1.8,0-3.8-0.1-4.6-0.1c-0.7,0-2.7,0.1-4,0.1 c-0.4,0-0.6-0.1-0.6-0.3c0-0.2,0.1-0.3,0.5-0.3c0.5,0,0.9-0.1,1.1-0.1c0.6-0.1,0.8-0.8,0.9-1.7c0.2-1.3,0.2-3.8,0.2-6.8v-5.6 c0-4.8,0-5.7-0.1-6.7c-0.1-1.1-0.3-1.6-1.4-1.8c-0.3-0.1-0.8-0.1-1.2-0.1c-0.4,0-0.5-0.1-0.5-0.3c0-0.2,0.2-0.3,0.7-0.3 c1.7,0,3.7,0.1,4.4,0.1c0.8,0,2.8-0.1,3.8-0.1c0.4,0,0.7,0.1,0.7,0.3c0,0.2-0.2,0.3-0.4,0.3c-0.3,0-0.5,0-0.9,0.1 c-0.9,0.2-1.1,0.7-1.2,1.8c-0.1,1-0.1,1.9-0.1,6.7V64.1z"></path> <path class="st1" d="M133.4,108.9c-50.9-8.4-104.2,2.7-119.2,24.7c-14.9,22.1,14.2,46.8,65.1,55.3c50.9,8.4,104.2-2.7,119.1-24.8 C213.4,142.1,184.2,117.4,133.4,108.9 M194.3,165.1c-14,20.8-64.2,31.2-112.1,23.3c-47.9-7.9-75.3-31.2-61.2-52 c14-20.8,64.2-31.2,112.1-23.3C180.9,121,208.3,144.3,194.3,165.1"></path> <path class="st2" d="M152.1,70.9C106.5,47,51.7,51.5,29.8,80.8c-21.9,29.3-2.7,72.5,42.9,96.4c45.6,23.9,100.4,19.4,122.3-9.9 C216.9,138,197.7,94.8,152.1,70.9 M191.2,164.5c-20.6,27.6-72.2,31.8-115.1,9.3c-44.2-23.2-61.6-62.3-40.4-90.7 c23.1-31,71-32.4,115.1-9.3C193.8,96.3,211.8,136.8,191.2,164.5"></path> <path class="st3" d="M135.2,7.8c-51,0-92.4,41.4-92.4,92.4c0,51,41.4,92.4,92.4,92.4c51,0,92.4-41.4,92.4-92.4 C227.6,49.2,186.3,7.8,135.2,7.8 M137.4,183.9c-48,0-87-38.9-87-87c0-48,38.9-87,87-87c48,0,87,38.9,87,87 C224.4,145,185.4,183.9,137.4,183.9"></path> <path class="st3" d="M258.8,132c-5.5-5.2-6.9-12.1-6.9-17.8c0-4,1.3-11.1,6.4-16.4c3.4-3.6,8.6-6.4,17.5-6.4c2.3,0,5.5,0.2,8.3,0.7 c2.2,0.4,4,0.8,5.8,0.9c0.6,0.1,0.7,0.3,0.7,0.7c0,0.5-0.2,1.2-0.3,3.4c-0.1,2-0.1,5.3-0.2,6.2c-0.1,0.9-0.2,1.3-0.5,1.3 c-0.4,0-0.5-0.4-0.5-1.3c0-2.3-0.9-4.8-2.4-6.1c-2-1.8-6.4-3.4-11.4-3.4c-7.6,0-11.2,2.3-13.2,4.4c-4.2,4.2-5.2,9.6-5.2,15.7 c0,11.5,8.4,22,20.7,22c4.3,0,7.7-0.5,10-3c1.2-1.3,1.9-4,2.1-5c0.1-0.7,0.2-0.9,0.6-0.9c0.3,0,0.4,0.4,0.4,0.9 c0,0.4-0.7,5.6-1.3,7.7c-0.3,1.1-0.5,1.3-1.5,1.7c-2.3,1-6.6,1.4-10.3,1.4C269.1,138.5,263.3,136.3,258.8,132"></path> <path class="st4" d="M258.8,132c-5.5-5.2-6.9-12.1-6.9-17.8c0-4,1.3-11.1,6.4-16.4c3.4-3.6,8.6-6.4,17.5-6.4c2.3,0,5.5,0.2,8.3,0.7 c2.2,0.4,4,0.8,5.8,0.9c0.6,0.1,0.7,0.3,0.7,0.7c0,0.5-0.2,1.2-0.3,3.4c-0.1,2-0.1,5.3-0.2,6.2c-0.1,0.9-0.2,1.3-0.5,1.3 c-0.4,0-0.5-0.4-0.5-1.3c0-2.3-0.9-4.8-2.4-6.1c-2-1.8-6.4-3.4-11.4-3.4c-7.6,0-11.2,2.3-13.2,4.4c-4.2,4.2-5.2,9.6-5.2,15.7 c0,11.5,8.4,22,20.7,22c4.3,0,7.7-0.5,10-3c1.2-1.3,1.9-4,2.1-5c0.1-0.7,0.2-0.9,0.6-0.9c0.3,0,0.4,0.4,0.4,0.9 c0,0.4-0.7,5.6-1.3,7.7c-0.3,1.1-0.5,1.3-1.5,1.7c-2.3,1-6.6,1.4-10.3,1.4C269.1,138.5,263.3,136.3,258.8,132z"></path> <path class="st3" d="M316.5,98.3c11.3,0,19.9,7.3,19.9,19.2c0,11.4-8.1,20.9-20.2,20.9c-13.8,0-19.7-10.9-19.7-20.1 C296.5,110,302.6,98.3,316.5,98.3 M317.7,136.2c4.5,0,13.6-2.5,13.6-17.3c0-12.3-7.1-18.7-15.1-18.7c-8.4,0-14.5,5.5-14.5,16.6 C301.8,128.7,308.6,136.2,317.7,136.2"></path> <path class="st4" d="M316.5,98.3c11.3,0,19.9,7.3,19.9,19.2c0,11.4-8.1,20.9-20.2,20.9c-13.8,0-19.7-10.9-19.7-20.1 C296.5,110,302.6,98.3,316.5,98.3z M317.7,136.2c4.5,0,13.6-2.5,13.6-17.3c0-12.3-7.1-18.7-15.1-18.7c-8.4,0-14.5,5.5-14.5,16.6 C301.8,128.7,308.6,136.2,317.7,136.2z"></path> <path class="st3" d="M351.1,122.9c0,7.5,0.1,10.6,1,11.5c0.8,0.8,2.7,1.2,6.7,1.2c2.6,0,4.9-0.1,6.1-1.6c0.6-0.8,1-1.9,1.2-2.9 c0.1-0.4,0.2-0.7,0.5-0.7c0.2,0,0.3,0.2,0.3,0.8c0,0.5-0.3,3.6-0.7,5.1c-0.3,1.2-0.5,1.4-3.2,1.4c-3.6,0-6.4-0.1-8.8-0.2 c-2.3-0.1-4-0.1-5.5-0.1c-0.2,0-1.1,0-2.1,0.1c-1,0.1-2.1,0.1-2.9,0.1c-0.5,0-0.8-0.1-0.8-0.4c0-0.2,0.1-0.4,0.4-0.4 c0.5,0,1.1-0.1,1.5-0.2c1-0.2,1.1-1.2,1.3-2.7c0.3-2.1,0.3-6.1,0.3-11.1v-9c0-7.9,0-9.4-0.1-11c-0.1-1.7-0.4-2.6-2.1-2.8 c-0.4-0.1-1.3-0.1-1.7-0.1c-0.2,0-0.4-0.2-0.4-0.4c0-0.3,0.2-0.4,0.8-0.4c2.3,0,5.4,0.1,5.7,0.1c0.2,0,4-0.1,5.6-0.1 c0.5,0,0.8,0.1,0.8,0.4c0,0.2-0.2,0.4-0.4,0.4c-0.3,0-1.1,0.1-1.7,0.1c-1.5,0.3-1.8,1.1-1.9,2.9c-0.1,1.6-0.1,3.1-0.1,11V122.9z"></path> <path class="st4" d="M351.1,122.9c0,7.5,0.1,10.6,1,11.5c0.8,0.8,2.7,1.2,6.7,1.2c2.6,0,4.9-0.1,6.1-1.6c0.6-0.8,1-1.9,1.2-2.9 c0.1-0.4,0.2-0.7,0.5-0.7c0.2,0,0.3,0.2,0.3,0.8c0,0.5-0.3,3.6-0.7,5.1c-0.3,1.2-0.5,1.4-3.2,1.4c-3.6,0-6.4-0.1-8.8-0.2 c-2.3-0.1-4-0.1-5.5-0.1c-0.2,0-1.1,0-2.1,0.1c-1,0.1-2.1,0.1-2.9,0.1c-0.5,0-0.8-0.1-0.8-0.4c0-0.2,0.1-0.4,0.4-0.4 c0.5,0,1.1-0.1,1.5-0.2c1-0.2,1.1-1.2,1.3-2.7c0.3-2.1,0.3-6.1,0.3-11.1v-9c0-7.9,0-9.4-0.1-11c-0.1-1.7-0.4-2.6-2.1-2.8 c-0.4-0.1-1.3-0.1-1.7-0.1c-0.2,0-0.4-0.2-0.4-0.4c0-0.3,0.2-0.4,0.8-0.4c2.3,0,5.4,0.1,5.7,0.1c0.2,0,4-0.1,5.6-0.1 c0.5,0,0.8,0.1,0.8,0.4c0,0.2-0.2,0.4-0.4,0.4c-0.3,0-1.1,0.1-1.7,0.1c-1.5,0.3-1.8,1.1-1.9,2.9c-0.1,1.6-0.1,3.1-0.1,11V122.9z"></path> <path class="st3" d="M380.9,122.9c0,7.5,0.1,10.6,1,11.5c0.8,0.8,2.7,1.2,6.7,1.2c2.6,0,4.9-0.1,6.1-1.6c0.6-0.8,1-1.9,1.2-2.9 c0.1-0.4,0.2-0.7,0.5-0.7c0.2,0,0.3,0.2,0.3,0.8c0,0.5-0.3,3.6-0.7,5.1c-0.3,1.2-0.5,1.4-3.2,1.4c-3.6,0-6.4-0.1-8.8-0.2 c-2.3-0.1-4-0.1-5.5-0.1c-0.2,0-1.1,0-2.1,0.1c-1,0.1-2.1,0.1-2.9,0.1c-0.5,0-0.8-0.1-0.8-0.4c0-0.2,0.1-0.4,0.4-0.4 c0.5,0,1.1-0.1,1.5-0.2c1-0.2,1.1-1.2,1.3-2.7c0.3-2.1,0.3-6.1,0.3-11.1v-9c0-7.9,0-9.4-0.1-11c-0.1-1.7-0.4-2.6-2.1-2.8 c-0.4-0.1-1.3-0.1-1.7-0.1c-0.2,0-0.4-0.2-0.4-0.4c0-0.3,0.2-0.4,0.8-0.4c2.3,0,5.4,0.1,5.7,0.1c0.2,0,4-0.1,5.6-0.1 c0.5,0,0.8,0.1,0.8,0.4c0,0.2-0.2,0.4-0.4,0.4c-0.3,0-1.1,0.1-1.7,0.1c-1.5,0.3-1.8,1.1-1.9,2.9c-0.1,1.6-0.1,3.1-0.1,11V122.9z"></path> <path class="st4" d="M380.9,122.9c0,7.5,0.1,10.6,1,11.5c0.8,0.8,2.7,1.2,6.7,1.2c2.6,0,4.9-0.1,6.1-1.6c0.6-0.8,1-1.9,1.2-2.9 c0.1-0.4,0.2-0.7,0.5-0.7c0.2,0,0.3,0.2,0.3,0.8c0,0.5-0.3,3.6-0.7,5.1c-0.3,1.2-0.5,1.4-3.2,1.4c-3.6,0-6.4-0.1-8.8-0.2 c-2.3-0.1-4-0.1-5.5-0.1c-0.2,0-1.1,0-2.1,0.1c-1,0.1-2.1,0.1-2.9,0.1c-0.5,0-0.8-0.1-0.8-0.4c0-0.2,0.1-0.4,0.4-0.4 c0.5,0,1.1-0.1,1.5-0.2c1-0.2,1.1-1.2,1.3-2.7c0.3-2.1,0.3-6.1,0.3-11.1v-9c0-7.9,0-9.4-0.1-11c-0.1-1.7-0.4-2.6-2.1-2.8 c-0.4-0.1-1.3-0.1-1.7-0.1c-0.2,0-0.4-0.2-0.4-0.4c0-0.3,0.2-0.4,0.8-0.4c2.3,0,5.4,0.1,5.7,0.1c0.2,0,4-0.1,5.6-0.1 c0.5,0,0.8,0.1,0.8,0.4c0,0.2-0.2,0.4-0.4,0.4c-0.3,0-1.1,0.1-1.7,0.1c-1.5,0.3-1.8,1.1-1.9,2.9c-0.1,1.6-0.1,3.1-0.1,11V122.9z"></path> <path class="st3" d="M406.2,113.8c0-7.9,0-9.4-0.1-11c-0.1-1.7-0.4-2.6-2.1-2.8c-0.4-0.1-1.3-0.1-1.7-0.1c-0.2,0-0.4-0.2-0.4-0.4 c0-0.3,0.2-0.4,0.8-0.4c2.3,0,5.6,0.1,5.8,0.1c0.3,0,10.9,0.1,12,0c1-0.1,1.9-0.2,2.3-0.3c0.2-0.1,0.5-0.2,0.7-0.2 c0.2,0,0.2,0.2,0.2,0.5c0,0.4-0.3,1-0.4,2.4c-0.1,0.5-0.2,2.8-0.3,3.4c-0.1,0.2-0.2,0.5-0.5,0.5c-0.3,0-0.4-0.2-0.4-0.7 c0-0.4-0.1-1.2-0.3-1.8c-0.3-0.8-0.9-1.2-3.6-1.6c-0.9-0.1-6.7-0.2-7.3-0.2c-0.2,0-0.3,0.2-0.3,0.5v13.9c0,0.4,0,0.5,0.3,0.5 c0.6,0,7.3,0,8.4-0.1c1.2-0.1,1.9-0.2,2.5-0.7c0.3-0.4,0.6-0.7,0.7-0.7c0.2,0,0.3,0.1,0.3,0.4c0,0.3-0.3,1.1-0.4,2.8 c-0.1,1-0.2,2.9-0.2,3.3c0,0.4-0.1,1-0.5,1c-0.2,0-0.3-0.2-0.3-0.5c0-0.5,0-1-0.2-1.7c-0.2-0.7-0.6-1.3-2.6-1.6 c-1.4-0.2-6.8-0.2-7.6-0.2c-0.3,0-0.3,0.2-0.3,0.4v4.3c0,1.7-0.1,7.7,0,8.7c0.1,3.4,1,4.1,6,4.1c1.3,0,3.7,0,5-0.5 c1.3-0.6,2-1.5,2.3-3.5c0.1-0.6,0.2-0.8,0.5-0.8c0.3,0,0.3,0.4,0.3,0.8c0,0.4-0.4,3.8-0.7,4.9c-0.3,1.3-0.9,1.3-2.8,1.3 c-3.8,0-6.7-0.1-8.8-0.2c-2.1-0.1-3.4-0.1-4.2-0.1c-0.1,0-1.1,0-2.2,0.1c-1,0.1-2.1,0.1-2.9,0.1c-0.5,0-0.8-0.1-0.8-0.4 c0-0.2,0.1-0.4,0.4-0.4c0.5,0,1.1-0.2,1.5-0.2c1-0.2,1.1-1.2,1.3-2.7c0.3-2.1,0.3-6.1,0.3-11.1V113.8z"></path> <path class="st4" d="M406.2,113.8c0-7.9,0-9.4-0.1-11c-0.1-1.7-0.4-2.6-2.1-2.8c-0.4-0.1-1.3-0.1-1.7-0.1c-0.2,0-0.4-0.2-0.4-0.4 c0-0.3,0.2-0.4,0.8-0.4c2.3,0,5.6,0.1,5.8,0.1c0.3,0,10.9,0.1,12,0c1-0.1,1.9-0.2,2.3-0.3c0.2-0.1,0.5-0.2,0.7-0.2 c0.2,0,0.2,0.2,0.2,0.5c0,0.4-0.3,1-0.4,2.4c-0.1,0.5-0.2,2.8-0.3,3.4c-0.1,0.2-0.2,0.5-0.5,0.5c-0.3,0-0.4-0.2-0.4-0.7 c0-0.4-0.1-1.2-0.3-1.8c-0.3-0.8-0.9-1.2-3.6-1.6c-0.9-0.1-6.7-0.2-7.3-0.2c-0.2,0-0.3,0.2-0.3,0.5v13.9c0,0.4,0,0.5,0.3,0.5 c0.6,0,7.3,0,8.4-0.1c1.2-0.1,1.9-0.2,2.5-0.7c0.3-0.4,0.6-0.7,0.7-0.7c0.2,0,0.3,0.1,0.3,0.4c0,0.3-0.3,1.1-0.4,2.8 c-0.1,1-0.2,2.9-0.2,3.3c0,0.4-0.1,1-0.5,1c-0.2,0-0.3-0.2-0.3-0.5c0-0.5,0-1-0.2-1.7c-0.2-0.7-0.6-1.3-2.6-1.6 c-1.4-0.2-6.8-0.2-7.6-0.2c-0.3,0-0.3,0.2-0.3,0.4v4.3c0,1.7-0.1,7.7,0,8.7c0.1,3.4,1,4.1,6,4.1c1.3,0,3.7,0,5-0.5 c1.3-0.6,2-1.5,2.3-3.5c0.1-0.6,0.2-0.8,0.5-0.8c0.3,0,0.3,0.4,0.3,0.8c0,0.4-0.4,3.8-0.7,4.9c-0.3,1.3-0.9,1.3-2.8,1.3 c-3.8,0-6.7-0.1-8.8-0.2c-2.1-0.1-3.4-0.1-4.2-0.1c-0.1,0-1.1,0-2.2,0.1c-1,0.1-2.1,0.1-2.9,0.1c-0.5,0-0.8-0.1-0.8-0.4 c0-0.2,0.1-0.4,0.4-0.4c0.5,0,1.1-0.2,1.5-0.2c1-0.2,1.1-1.2,1.3-2.7c0.3-2.1,0.3-6.1,0.3-11.1V113.8z"></path> <path class="st3" d="M460.3,124.6c0-4.1-0.1-4.7-2.2-5.2c-0.4-0.1-1.3-0.1-1.7-0.1c-0.2,0-0.4-0.2-0.4-0.4c0-0.4,0.2-0.4,0.8-0.4 c2.3,0,5.7,0.1,6,0.1c0.2,0,3.4-0.1,4.9-0.1c0.6,0,0.8,0.1,0.8,0.4c0,0.2-0.2,0.4-0.4,0.4c-0.3,0-0.7,0-1.3,0.1 c-1.4,0.2-1.8,1-1.9,2.8c-0.1,1.6-0.1,3.1-0.1,5.3v5.7c0,2.3-0.1,2.4-0.7,2.8c-3.2,1.7-7.8,2.3-10.7,2.3c-3.8,0-11-0.5-16.6-5.5 c-3.1-2.7-6-8.2-6-14.5c0-8.2,4-13.9,8.4-16.8c4.5-2.9,9.6-3.2,13.4-3.2c3.2,0,6.8,0.6,7.7,0.8c1,0.2,2.8,0.5,4.1,0.5 c0.5,0,0.6,0.2,0.6,0.5c0,0.7-0.3,2.1-0.3,7.2c0,0.8-0.2,1.1-0.6,1.1c-0.3,0-0.3-0.3-0.3-0.8c-0.1-0.7-0.3-2.2-1.1-3.4 c-1.3-1.9-5.1-4-11.6-4c-3,0-6.7,0.2-10.5,3.3c-2.9,2.3-5,6.9-5,12.9c0,7.2,3.5,12.4,5.3,14.1c4,3.9,8.2,5.3,12.9,5.3 c1.8,0,4.1-0.2,5.4-1c0.6-0.4,1-0.6,1-1.6V124.6z"></path> <path class="st4" d="M460.3,124.6c0-4.1-0.1-4.7-2.2-5.2c-0.4-0.1-1.3-0.1-1.7-0.1c-0.2,0-0.4-0.2-0.4-0.4c0-0.4,0.2-0.4,0.8-0.4 c2.3,0,5.7,0.1,6,0.1c0.2,0,3.4-0.1,4.9-0.1c0.6,0,0.8,0.1,0.8,0.4c0,0.2-0.2,0.4-0.4,0.4c-0.3,0-0.7,0-1.3,0.1 c-1.4,0.2-1.8,1-1.9,2.8c-0.1,1.6-0.1,3.1-0.1,5.3v5.7c0,2.3-0.1,2.4-0.7,2.8c-3.2,1.7-7.8,2.3-10.7,2.3c-3.8,0-11-0.5-16.6-5.5 c-3.1-2.7-6-8.2-6-14.5c0-8.2,4-13.9,8.4-16.8c4.5-2.9,9.6-3.2,13.4-3.2c3.2,0,6.8,0.6,7.7,0.8c1,0.2,2.8,0.5,4.1,0.5 c0.5,0,0.6,0.2,0.6,0.5c0,0.7-0.3,2.1-0.3,7.2c0,0.8-0.2,1.1-0.6,1.1c-0.3,0-0.3-0.3-0.3-0.8c-0.1-0.7-0.3-2.2-1.1-3.4 c-1.3-1.9-5.1-4-11.6-4c-3,0-6.7,0.2-10.5,3.3c-2.9,2.3-5,6.9-5,12.9c0,7.2,3.5,12.4,5.3,14.1c4,3.9,8.2,5.3,12.9,5.3 c1.8,0,4.1-0.2,5.4-1c0.6-0.4,1-0.6,1-1.6V124.6z"></path> <path class="st3" d="M478.1,113.8c0-7.9,0-9.4-0.1-11c-0.1-1.7-0.4-2.6-2.1-2.8c-0.4-0.1-1.3-0.1-1.7-0.1c-0.2,0-0.4-0.2-0.4-0.4 c0-0.3,0.2-0.4,0.8-0.4c2.3,0,5.6,0.1,5.8,0.1c0.3,0,10.9,0.1,12,0c1-0.1,1.9-0.2,2.3-0.3c0.2-0.1,0.5-0.2,0.7-0.2 c0.2,0,0.2,0.2,0.2,0.5c0,0.4-0.3,1-0.4,2.4c-0.1,0.5-0.2,2.8-0.3,3.4c-0.1,0.2-0.2,0.5-0.5,0.5c-0.3,0-0.4-0.2-0.4-0.7 c0-0.4-0.1-1.2-0.3-1.8c-0.3-0.8-0.9-1.2-3.6-1.6c-0.9-0.1-6.7-0.2-7.3-0.2c-0.2,0-0.3,0.2-0.3,0.5l0,13.9c0,0.4,0,0.5,0.3,0.5 c0.6,0,7.3,0,8.4-0.1c1.2-0.1,1.9-0.2,2.5-0.7c0.3-0.4,0.6-0.7,0.7-0.7c0.2,0,0.3,0.1,0.3,0.4c0,0.3-0.3,1.1-0.4,2.8 c-0.1,1-0.2,2.9-0.2,3.3c0,0.4-0.1,1-0.5,1c-0.2,0-0.3-0.2-0.3-0.5c0-0.5,0-1-0.2-1.7c-0.2-0.7-0.6-1.3-2.6-1.6 c-1.4-0.2-6.8-0.2-7.6-0.2c-0.3,0-0.3,0.2-0.3,0.4v4.3c0,1.7-0.1,7.7,0,8.7c0.1,3.4,1,4.1,6,4.1c1.3,0,3.7,0,5-0.5 c1.3-0.6,2-1.5,2.3-3.5c0.1-0.6,0.2-0.8,0.5-0.8c0.3,0,0.3,0.4,0.3,0.8c0,0.4-0.4,3.8-0.7,4.9c-0.3,1.3-0.9,1.3-2.8,1.3 c-3.8,0-6.7-0.1-8.8-0.2c-2.1-0.1-3.4-0.1-4.2-0.1c-0.1,0-1.1,0-2.2,0.1c-1,0.1-2.1,0.1-2.9,0.1c-0.5,0-0.8-0.1-0.8-0.4 c0-0.2,0.1-0.4,0.4-0.4c0.5,0,1.1-0.2,1.5-0.2c1-0.2,1.1-1.2,1.3-2.7c0.3-2.1,0.3-6.1,0.3-11.1V113.8z"></path> <path class="st4" d="M478.1,113.8c0-7.9,0-9.4-0.1-11c-0.1-1.7-0.4-2.6-2.1-2.8c-0.4-0.1-1.3-0.1-1.7-0.1c-0.2,0-0.4-0.2-0.4-0.4 c0-0.3,0.2-0.4,0.8-0.4c2.3,0,5.6,0.1,5.8,0.1c0.3,0,10.9,0.1,12,0c1-0.1,1.9-0.2,2.3-0.3c0.2-0.1,0.5-0.2,0.7-0.2 c0.2,0,0.2,0.2,0.2,0.5c0,0.4-0.3,1-0.4,2.4c-0.1,0.5-0.2,2.8-0.3,3.4c-0.1,0.2-0.2,0.5-0.5,0.5c-0.3,0-0.4-0.2-0.4-0.7 c0-0.4-0.1-1.2-0.3-1.8c-0.3-0.8-0.9-1.2-3.6-1.6c-0.9-0.1-6.7-0.2-7.3-0.2c-0.2,0-0.3,0.2-0.3,0.5l0,13.9c0,0.4,0,0.5,0.3,0.5 c0.6,0,7.3,0,8.4-0.1c1.2-0.1,1.9-0.2,2.5-0.7c0.3-0.4,0.6-0.7,0.7-0.7c0.2,0,0.3,0.1,0.3,0.4c0,0.3-0.3,1.1-0.4,2.8 c-0.1,1-0.2,2.9-0.2,3.3c0,0.4-0.1,1-0.5,1c-0.2,0-0.3-0.2-0.3-0.5c0-0.5,0-1-0.2-1.7c-0.2-0.7-0.6-1.3-2.6-1.6 c-1.4-0.2-6.8-0.2-7.6-0.2c-0.3,0-0.3,0.2-0.3,0.4v4.3c0,1.7-0.1,7.7,0,8.7c0.1,3.4,1,4.1,6,4.1c1.3,0,3.7,0,5-0.5 c1.3-0.6,2-1.5,2.3-3.5c0.1-0.6,0.2-0.8,0.5-0.8c0.3,0,0.3,0.4,0.3,0.8c0,0.4-0.4,3.8-0.7,4.9c-0.3,1.3-0.9,1.3-2.8,1.3 c-3.8,0-6.7-0.1-8.8-0.2c-2.1-0.1-3.4-0.1-4.2-0.1c-0.1,0-1.1,0-2.2,0.1c-1,0.1-2.1,0.1-2.9,0.1c-0.5,0-0.8-0.1-0.8-0.4 c0-0.2,0.1-0.4,0.4-0.4c0.5,0,1.1-0.2,1.5-0.2c1-0.2,1.1-1.2,1.3-2.7c0.3-2.1,0.3-6.1,0.3-11.1V113.8z"></path> <path class="st3" d="M542.5,98.3c11.3,0,19.9,7.3,19.9,19.2c0,11.4-8.1,20.8-20.2,20.8c-13.8,0-19.7-10.9-19.7-20.1 C522.5,110,528.6,98.3,542.5,98.3 M543.6,136.2c4.5,0,13.6-2.5,13.6-17.3c0-12.3-7.1-18.7-15-18.7c-8.4,0-14.5,5.5-14.5,16.6 C527.7,128.8,534.5,136.2,543.6,136.2"></path> <path class="st4" d="M542.5,98.3c11.3,0,19.9,7.3,19.9,19.2c0,11.4-8.1,20.8-20.2,20.8c-13.8,0-19.7-10.9-19.7-20.1 C522.5,110,528.6,98.3,542.5,98.3z M543.6,136.2c4.5,0,13.6-2.5,13.6-17.3c0-12.3-7.1-18.7-15-18.7c-8.4,0-14.5,5.5-14.5,16.6 C527.7,128.8,534.5,136.2,543.6,136.2z"></path> <path class="st3" d="M572.5,113.8c0-7.9,0-9.4-0.1-11c-0.1-1.7-0.4-2.6-2.1-2.8c-0.4-0.1-1.3-0.1-1.7-0.1c-0.2,0-0.4-0.2-0.4-0.4 c0-0.3,0.2-0.4,0.8-0.4c2.3,0,5.4,0.1,5.7,0.1c1,0,11.9,0.1,13,0c1-0.1,1.8-0.1,2.3-0.2c0.3-0.1,0.5-0.3,0.7-0.3 c0.2,0,0.3,0.2,0.3,0.5c0,0.4-0.2,1-0.4,2.4c-0.1,0.5-0.1,2.8-0.2,3.4c-0.1,0.2-0.2,0.5-0.5,0.5c-0.2,0-0.4-0.2-0.4-0.6 c0-0.4-0.2-1.3-0.5-1.9c-0.3-0.7-1.5-1.5-3.4-1.5l-8.2-0.1c-0.3,0-0.4,0.1-0.4,0.5l0,13.9c0,0.3,0,0.5,0.3,0.5l6.9-0.1 c0.9,0,1.6,0,2.3-0.1c1.2-0.1,1.9-0.3,2.3-0.9c0.2-0.3,0.5-0.5,0.6-0.5c0.2,0,0.3,0.2,0.3,0.4c0,0.3-0.3,1.1-0.5,2.8 c-0.1,1-0.2,3.1-0.2,3.4c0,0.5-0.1,1-0.5,1c-0.3,0-0.3-0.2-0.3-0.5c-0.1-0.5-0.1-1.3-0.3-1.9c-0.2-0.7-1-1.4-2.6-1.6 c-1.3-0.2-7.2-0.1-8.1-0.1c-0.3,0-0.3,0.1-0.3,0.5v4.1c0,5,0,9.1,0.2,11.1c0.2,1.5,0.5,2.5,1.8,2.7c0.7,0.1,1.8,0.2,2.3,0.2 c0.3,0,0.4,0.2,0.4,0.4c0,0.2-0.2,0.4-0.8,0.4c-2.8,0-6.1-0.2-6.3-0.2c-0.3,0-3.4,0.2-5,0.2c-0.5,0-0.8-0.1-0.8-0.4 c0-0.2,0.1-0.4,0.4-0.4c0.5,0,1.1-0.2,1.5-0.2c1-0.2,1.1-1.2,1.3-2.7c0.3-2.1,0.3-6.1,0.3-11.1V113.8z"></path> <path class="st4" d="M572.5,113.8c0-7.9,0-9.4-0.1-11c-0.1-1.7-0.4-2.6-2.1-2.8c-0.4-0.1-1.3-0.1-1.7-0.1c-0.2,0-0.4-0.2-0.4-0.4 c0-0.3,0.2-0.4,0.8-0.4c2.3,0,5.4,0.1,5.7,0.1c1,0,11.9,0.1,13,0c1-0.1,1.8-0.1,2.3-0.2c0.3-0.1,0.5-0.3,0.7-0.3 c0.2,0,0.3,0.2,0.3,0.5c0,0.4-0.2,1-0.4,2.4c-0.1,0.5-0.1,2.8-0.2,3.4c-0.1,0.2-0.2,0.5-0.5,0.5c-0.2,0-0.4-0.2-0.4-0.6 c0-0.4-0.2-1.3-0.5-1.9c-0.3-0.7-1.5-1.5-3.4-1.5l-8.2-0.1c-0.3,0-0.4,0.1-0.4,0.5l0,13.9c0,0.3,0,0.5,0.3,0.5l6.9-0.1 c0.9,0,1.6,0,2.3-0.1c1.2-0.1,1.9-0.3,2.3-0.9c0.2-0.3,0.5-0.5,0.6-0.5c0.2,0,0.3,0.2,0.3,0.4c0,0.3-0.3,1.1-0.5,2.8 c-0.1,1-0.2,3.1-0.2,3.4c0,0.5-0.1,1-0.5,1c-0.3,0-0.3-0.2-0.3-0.5c-0.1-0.5-0.1-1.3-0.3-1.9c-0.2-0.7-1-1.4-2.6-1.6 c-1.3-0.2-7.2-0.1-8.1-0.1c-0.3,0-0.3,0.1-0.3,0.5v4.1c0,5,0,9.1,0.2,11.1c0.2,1.5,0.5,2.5,1.8,2.7c0.7,0.1,1.8,0.2,2.3,0.2 c0.3,0,0.4,0.2,0.4,0.4c0,0.2-0.2,0.4-0.8,0.4c-2.8,0-6.1-0.2-6.3-0.2c-0.3,0-3.4,0.2-5,0.2c-0.5,0-0.8-0.1-0.8-0.4 c0-0.2,0.1-0.4,0.4-0.4c0.5,0,1.1-0.2,1.5-0.2c1-0.2,1.1-1.2,1.3-2.7c0.3-2.1,0.3-6.1,0.3-11.1V113.8z"></path> <path class="st3" d="M639,91.4c12.9,0,22.5,8.5,22.5,22.5c0,13.5-9,24.6-22.8,24.6c-15.7,0-22.2-12.8-22.2-23.6 C616.5,105.1,623.2,91.4,639,91.4 M640.2,136.2c5.2,0,15.8-3.1,15.8-20.6c0-14.4-8.4-22.2-17.4-22.2c-9.6,0-16.7,6.6-16.7,19.8 C621.9,127.2,629.9,136.2,640.2,136.2"></path> <path class="st4" d="M639,91.4c12.9,0,22.5,8.5,22.5,22.5c0,13.5-9,24.6-22.8,24.6c-15.7,0-22.2-12.8-22.2-23.6 C616.5,105.1,623.2,91.4,639,91.4z M640.2,136.2c5.2,0,15.8-3.1,15.8-20.6c0-14.4-8.4-22.2-17.4-22.2c-9.6,0-16.7,6.6-16.7,19.8 C621.9,127.2,629.9,136.2,640.2,136.2z"></path> <path class="st3" d="M672,113.8c0-7.9,0-9.4-0.1-11c-0.1-1.7-0.4-2.6-2.1-2.8c-0.4-0.1-1.3-0.1-1.7-0.1c-0.2,0-0.4-0.2-0.4-0.4 c0-0.3,0.2-0.4,0.8-0.4c2.3,0,5.4,0.1,5.8,0.1c1.1,0,4.9-0.1,7.1-0.1c6.5,0,8.8,2.1,9.6,2.9c1.1,1.1,2.5,3.4,2.5,6.1 c0,7.3-5.3,12.2-13,12.2c-0.3,0-1.1,0-1.4-0.1c-0.2,0-0.5-0.2-0.5-0.5c0-0.4,0.3-0.5,1.3-0.5c5.4,0,9.3-3.6,9.3-8.2 c0-1.7-0.2-5-2.9-7.8c-2.6-2.8-5.7-2.5-6.8-2.5c-0.9,0-2.3,0.2-2.8,0.4c-0.3,0.1-0.4,0.4-0.4,1l0,20.8c0,4.9,0,9,0.2,11.1 c0.2,1.5,0.5,2.5,2,2.7c0.7,0.1,1.8,0.2,2.2,0.2c0.3,0,0.4,0.2,0.4,0.4c0,0.2-0.2,0.4-0.8,0.4c-2.7,0-6.1-0.2-6.3-0.2 c-0.2,0-3.4,0.2-5,0.2c-0.5,0-0.8-0.1-0.8-0.4c0-0.2,0.1-0.4,0.4-0.4c0.5,0,1.1-0.1,1.5-0.2c1-0.2,1.1-1.2,1.3-2.7 c0.3-2.1,0.3-6.1,0.3-11.1V113.8z"></path> <path class="st4" d="M672,113.8c0-7.9,0-9.4-0.1-11c-0.1-1.7-0.4-2.6-2.1-2.8c-0.4-0.1-1.3-0.1-1.7-0.1c-0.2,0-0.4-0.2-0.4-0.4 c0-0.3,0.2-0.4,0.8-0.4c2.3,0,5.4,0.1,5.8,0.1c1.1,0,4.9-0.1,7.1-0.1c6.5,0,8.8,2.1,9.6,2.9c1.1,1.1,2.5,3.4,2.5,6.1 c0,7.3-5.3,12.2-13,12.2c-0.3,0-1.1,0-1.4-0.1c-0.2,0-0.5-0.2-0.5-0.5c0-0.4,0.3-0.5,1.3-0.5c5.4,0,9.3-3.6,9.3-8.2 c0-1.7-0.2-5-2.9-7.8c-2.6-2.8-5.7-2.5-6.8-2.5c-0.9,0-2.3,0.2-2.8,0.4c-0.3,0.1-0.4,0.4-0.4,1l0,20.8c0,4.9,0,9,0.2,11.1 c0.2,1.5,0.5,2.5,2,2.7c0.7,0.1,1.8,0.2,2.2,0.2c0.3,0,0.4,0.2,0.4,0.4c0,0.2-0.2,0.4-0.8,0.4c-2.7,0-6.1-0.2-6.3-0.2 c-0.2,0-3.4,0.2-5,0.2c-0.5,0-0.8-0.1-0.8-0.4c0-0.2,0.1-0.4,0.4-0.4c0.5,0,1.1-0.1,1.5-0.2c1-0.2,1.1-1.2,1.3-2.7 c0.3-2.1,0.3-6.1,0.3-11.1V113.8z"></path> <path class="st3" d="M717.2,122.8c0,4.9,0,9,0.2,11.1c0.2,1.5,0.4,2.5,1.9,2.7c0.7,0.1,1.8,0.2,2.3,0.2c0.3,0,0.4,0.2,0.4,0.4 c0,0.2-0.2,0.4-0.8,0.4c-2.7,0-6-0.2-6.2-0.2c-0.2,0-3.7,0.2-5.2,0.2c-0.6,0-0.8-0.1-0.8-0.4c0-0.2,0.1-0.4,0.4-0.4 c0.5,0,1-0.1,1.5-0.2c1-0.2,1.3-1.3,1.5-2.8c0.2-2.1,0.2-6.1,0.2-11.1l0-21.5l-7.3,0.1c-3.1,0.1-4.3,0.4-5.1,1.6 c-0.6,0.9-0.6,1.3-0.8,1.6c-0.1,0.4-0.3,0.5-0.5,0.5c-0.1,0-0.3-0.1-0.3-0.4c0-0.5,1-5.1,1.1-5.5c0.1-0.3,0.3-1,0.5-1 c0.3,0,0.9,0.4,2.2,0.6c1.4,0.2,3.4,0.2,3.9,0.2h19c1.7,0,2.8-0.1,3.6-0.2c0.7-0.1,1.2-0.2,1.4-0.2c0.2,0,0.2,0.3,0.2,0.6 c0,1.6-0.2,5.2-0.2,5.8c0,0.4-0.2,0.7-0.5,0.7c-0.2,0-0.3-0.2-0.4-0.9l-0.1-0.5c-0.2-1.6-1.3-2.7-6.1-2.8l-6.3-0.1L717.2,122.8z"></path> <path class="st4" d="M717.2,122.8c0,4.9,0,9,0.2,11.1c0.2,1.5,0.4,2.5,1.9,2.7c0.7,0.1,1.8,0.2,2.3,0.2c0.3,0,0.4,0.2,0.4,0.4 c0,0.2-0.2,0.4-0.8,0.4c-2.7,0-6-0.2-6.2-0.2c-0.2,0-3.7,0.2-5.2,0.2c-0.6,0-0.8-0.1-0.8-0.4c0-0.2,0.1-0.4,0.4-0.4 c0.5,0,1-0.1,1.5-0.2c1-0.2,1.3-1.3,1.5-2.8c0.2-2.1,0.2-6.1,0.2-11.1l0-21.5l-7.3,0.1c-3.1,0.1-4.3,0.4-5.1,1.6 c-0.6,0.9-0.6,1.3-0.8,1.6c-0.1,0.4-0.3,0.5-0.5,0.5c-0.1,0-0.3-0.1-0.3-0.4c0-0.5,1-5.1,1.1-5.5c0.1-0.3,0.3-1,0.5-1 c0.3,0,0.9,0.4,2.2,0.6c1.4,0.2,3.4,0.2,3.9,0.2h19c1.7,0,2.8-0.1,3.6-0.2c0.7-0.1,1.2-0.2,1.4-0.2c0.2,0,0.2,0.3,0.2,0.6 c0,1.6-0.2,5.2-0.2,5.8c0,0.4-0.2,0.7-0.5,0.7c-0.2,0-0.3-0.2-0.4-0.9l-0.1-0.5c-0.2-1.6-1.3-2.7-6.1-2.8l-6.3-0.1L717.2,122.8z"></path> <path class="st3" d="M753.9,98.3c11.3,0,19.9,7.3,19.9,19.2c0,11.4-8.1,20.9-20.2,20.8c-13.8,0-19.7-10.9-19.7-20.1 C733.9,110,740,98.3,753.9,98.3 M755,136.2c4.5,0,13.6-2.5,13.6-17.3c0-12.3-7.1-18.7-15-18.7c-8.4,0-14.5,5.5-14.5,16.6 C739.1,128.8,745.9,136.2,755,136.2"></path> <path class="st4" d="M753.9,98.3c11.3,0,19.9,7.3,19.9,19.2c0,11.4-8.1,20.9-20.2,20.8c-13.8,0-19.7-10.9-19.7-20.1 C733.9,110,740,98.3,753.9,98.3z M755,136.2c4.5,0,13.6-2.5,13.6-17.3c0-12.3-7.1-18.7-15-18.7c-8.4,0-14.5,5.5-14.5,16.6 C739.1,128.8,745.9,136.2,755,136.2z"></path> <path class="st3" d="M822,131.1c0.2,1.8,0.5,4.6,2.6,5.3c1.4,0.5,2.7,0.5,3.3,0.5c0.2,0,0.4,0.1,0.4,0.4c0,0.3-0.5,0.5-1,0.5 c-1.1,0-6.8-0.1-8.6-0.3c-1.2-0.1-1.4-0.3-1.4-0.5c0-0.2,0.1-0.4,0.3-0.4c0.3-0.1,0.3-0.8,0.2-1.8l-2.4-25.8h-0.1l-12.1,26.1 c-1,2.2-1.3,2.7-1.8,2.7c-0.5,0-0.7-0.5-1.7-2.3c-1.3-2.5-4.6-9.1-5.9-11.8c-1.5-3.2-5.5-11.8-6.4-13.9h-0.2l-1.9,23.1 c-0.1,0.8-0.1,1.7-0.1,2.6c0,0.8,0.5,1.3,1.2,1.4c0.9,0.2,1.6,0.3,1.9,0.3c0.2,0,0.4,0.2,0.4,0.4c0,0.4-0.3,0.5-0.9,0.5 c-1.9,0-4.3-0.2-4.7-0.2c-0.5,0-2.9,0.2-4.2,0.2c-0.5,0-0.9-0.1-0.9-0.5c0-0.2,0.2-0.4,0.5-0.4c0.4,0,0.7-0.1,1.5-0.2 c1.7-0.3,1.7-2.2,1.9-4.1l3.7-33.3c0.1-0.5,0.3-0.9,0.6-0.9c0.3,0,0.7,0.2,1,0.8l15.2,31.7L817,99.1c0.2-0.5,0.5-0.8,0.8-0.8 c0.3,0,0.6,0.4,0.7,1.4L822,131.1z"></path> <path class="st4" d="M822,131.1c0.2,1.8,0.5,4.6,2.6,5.3c1.4,0.5,2.7,0.5,3.3,0.5c0.2,0,0.4,0.1,0.4,0.4c0,0.3-0.5,0.5-1,0.5 c-1.1,0-6.8-0.1-8.6-0.3c-1.2-0.1-1.4-0.3-1.4-0.5c0-0.2,0.1-0.4,0.3-0.4c0.3-0.1,0.3-0.8,0.2-1.8l-2.4-25.8h-0.1l-12.1,26.1 c-1,2.2-1.3,2.7-1.8,2.7c-0.5,0-0.7-0.5-1.7-2.3c-1.3-2.5-4.6-9.1-5.9-11.8c-1.5-3.2-5.5-11.8-6.4-13.9h-0.2l-1.9,23.1 c-0.1,0.8-0.1,1.7-0.1,2.6c0,0.8,0.5,1.3,1.2,1.4c0.9,0.2,1.6,0.3,1.9,0.3c0.2,0,0.4,0.2,0.4,0.4c0,0.4-0.3,0.5-0.9,0.5 c-1.9,0-4.3-0.2-4.7-0.2c-0.5,0-2.9,0.2-4.2,0.2c-0.5,0-0.9-0.1-0.9-0.5c0-0.2,0.2-0.4,0.5-0.4c0.4,0,0.7-0.1,1.5-0.2 c1.7-0.3,1.7-2.2,1.9-4.1l3.7-33.3c0.1-0.5,0.3-0.9,0.6-0.9c0.3,0,0.7,0.2,1,0.8l15.2,31.7L817,99.1c0.2-0.5,0.5-0.8,0.8-0.8 c0.3,0,0.6,0.4,0.7,1.4L822,131.1z"></path> <path class="st3" d="M837.5,113.8c0-7.9,0-9.4-0.1-11c-0.1-1.7-0.4-2.6-2.1-2.8c-0.4-0.1-1.3-0.1-1.7-0.1c-0.2,0-0.4-0.2-0.4-0.4 c0-0.3,0.2-0.4,0.8-0.4c2.3,0,5.6,0.1,5.8,0.1c0.3,0,10.9,0.1,12,0c1-0.1,1.9-0.2,2.3-0.3c0.2-0.1,0.5-0.2,0.7-0.2 c0.2,0,0.2,0.2,0.2,0.5c0,0.4-0.3,1-0.4,2.4c-0.1,0.5-0.2,2.8-0.3,3.4c-0.1,0.2-0.2,0.5-0.5,0.5c-0.3,0-0.4-0.2-0.4-0.7 c0-0.4-0.1-1.2-0.3-1.8c-0.3-0.8-0.9-1.2-3.6-1.6c-0.9-0.1-6.7-0.2-7.3-0.2c-0.2,0-0.3,0.2-0.3,0.5l0,13.9c0,0.4,0,0.5,0.3,0.5 c0.6,0,7.3,0,8.4-0.1c1.2-0.1,1.9-0.2,2.5-0.7c0.3-0.4,0.6-0.7,0.7-0.7c0.2,0,0.3,0.1,0.3,0.4c0,0.3-0.3,1.1-0.4,2.8 c-0.1,1-0.2,2.9-0.2,3.3c0,0.4-0.1,1-0.5,1c-0.2,0-0.3-0.2-0.3-0.5c0-0.5,0-1-0.2-1.7c-0.2-0.7-0.6-1.3-2.6-1.6 c-1.4-0.2-6.8-0.2-7.6-0.2c-0.3,0-0.3,0.2-0.3,0.4v4.3c0,1.7-0.1,7.7,0,8.7c0.1,3.4,1,4.1,6,4.1c1.3,0,3.7,0,5-0.5 c1.3-0.6,2-1.5,2.3-3.5c0.1-0.6,0.2-0.8,0.5-0.8c0.3,0,0.3,0.4,0.3,0.8c0,0.4-0.4,3.8-0.7,4.9c-0.3,1.3-0.9,1.3-2.8,1.3 c-3.8,0-6.7-0.1-8.8-0.2c-2.1-0.1-3.4-0.1-4.2-0.1c-0.1,0-1.1,0-2.2,0.1c-1,0.1-2.1,0.1-2.9,0.1c-0.5,0-0.8-0.1-0.8-0.4 c0-0.2,0.1-0.4,0.4-0.4c0.5,0,1.1-0.2,1.5-0.2c1-0.2,1.1-1.2,1.3-2.7c0.3-2.1,0.3-6.1,0.3-11.1V113.8z"></path> <path class="st4" d="M837.5,113.8c0-7.9,0-9.4-0.1-11c-0.1-1.7-0.4-2.6-2.1-2.8c-0.4-0.1-1.3-0.1-1.7-0.1c-0.2,0-0.4-0.2-0.4-0.4 c0-0.3,0.2-0.4,0.8-0.4c2.3,0,5.6,0.1,5.8,0.1c0.3,0,10.9,0.1,12,0c1-0.1,1.9-0.2,2.3-0.3c0.2-0.1,0.5-0.2,0.7-0.2 c0.2,0,0.2,0.2,0.2,0.5c0,0.4-0.3,1-0.4,2.4c-0.1,0.5-0.2,2.8-0.3,3.4c-0.1,0.2-0.2,0.5-0.5,0.5c-0.3,0-0.4-0.2-0.4-0.7 c0-0.4-0.1-1.2-0.3-1.8c-0.3-0.8-0.9-1.2-3.6-1.6c-0.9-0.1-6.7-0.2-7.3-0.2c-0.2,0-0.3,0.2-0.3,0.5l0,13.9c0,0.4,0,0.5,0.3,0.5 c0.6,0,7.3,0,8.4-0.1c1.2-0.1,1.9-0.2,2.5-0.7c0.3-0.4,0.6-0.7,0.7-0.7c0.2,0,0.3,0.1,0.3,0.4c0,0.3-0.3,1.1-0.4,2.8 c-0.1,1-0.2,2.9-0.2,3.3c0,0.4-0.1,1-0.5,1c-0.2,0-0.3-0.2-0.3-0.5c0-0.5,0-1-0.2-1.7c-0.2-0.7-0.6-1.3-2.6-1.6 c-1.4-0.2-6.8-0.2-7.6-0.2c-0.3,0-0.3,0.2-0.3,0.4v4.3c0,1.7-0.1,7.7,0,8.7c0.1,3.4,1,4.1,6,4.1c1.3,0,3.7,0,5-0.5 c1.3-0.6,2-1.5,2.3-3.5c0.1-0.6,0.2-0.8,0.5-0.8c0.3,0,0.3,0.4,0.3,0.8c0,0.4-0.4,3.8-0.7,4.9c-0.3,1.3-0.9,1.3-2.8,1.3 c-3.8,0-6.7-0.1-8.8-0.2c-2.1-0.1-3.4-0.1-4.2-0.1c-0.1,0-1.1,0-2.2,0.1c-1,0.1-2.1,0.1-2.9,0.1c-0.5,0-0.8-0.1-0.8-0.4 c0-0.2,0.1-0.4,0.4-0.4c0.5,0,1.1-0.2,1.5-0.2c1-0.2,1.1-1.2,1.3-2.7c0.3-2.1,0.3-6.1,0.3-11.1V113.8z"></path> <path class="st3" d="M879.5,122.8c0,4.9,0,9,0.2,11.1c0.2,1.5,0.4,2.5,1.9,2.7c0.7,0.1,1.8,0.2,2.3,0.2c0.3,0,0.4,0.2,0.4,0.4 c0,0.2-0.2,0.4-0.8,0.4c-2.7,0-6-0.2-6.2-0.2c-0.2,0-3.7,0.2-5.2,0.2c-0.6,0-0.8-0.1-0.8-0.4c0-0.2,0.1-0.4,0.4-0.4 c0.5,0,1-0.1,1.5-0.2c1-0.2,1.3-1.3,1.5-2.8c0.2-2.1,0.2-6.1,0.2-11.1l0-21.5l-7.3,0.1c-3.1,0.1-4.3,0.4-5.1,1.6 c-0.6,0.9-0.6,1.3-0.8,1.6c-0.1,0.4-0.3,0.5-0.5,0.5c-0.1,0-0.3-0.1-0.3-0.4c0-0.5,1-5.1,1.1-5.5c0.1-0.3,0.3-1,0.5-1 c0.3,0,0.9,0.4,2.2,0.6c1.4,0.2,3.4,0.2,3.9,0.2h19c1.7,0,2.8-0.1,3.6-0.2c0.7-0.1,1.2-0.2,1.4-0.2c0.2,0,0.2,0.3,0.2,0.6 c0,1.6-0.2,5.2-0.2,5.8c0,0.4-0.2,0.7-0.5,0.7c-0.2,0-0.3-0.2-0.4-0.9l-0.1-0.5c-0.2-1.6-1.3-2.7-6.1-2.8l-6.3-0.1L879.5,122.8z"></path> <path class="st4" d="M879.5,122.8c0,4.9,0,9,0.2,11.1c0.2,1.5,0.4,2.5,1.9,2.7c0.7,0.1,1.8,0.2,2.3,0.2c0.3,0,0.4,0.2,0.4,0.4 c0,0.2-0.2,0.4-0.8,0.4c-2.7,0-6-0.2-6.2-0.2c-0.2,0-3.7,0.2-5.2,0.2c-0.6,0-0.8-0.1-0.8-0.4c0-0.2,0.1-0.4,0.4-0.4 c0.5,0,1-0.1,1.5-0.2c1-0.2,1.3-1.3,1.5-2.8c0.2-2.1,0.2-6.1,0.2-11.1l0-21.5l-7.3,0.1c-3.1,0.1-4.3,0.4-5.1,1.6 c-0.6,0.9-0.6,1.3-0.8,1.6c-0.1,0.4-0.3,0.5-0.5,0.5c-0.1,0-0.3-0.1-0.3-0.4c0-0.5,1-5.1,1.1-5.5c0.1-0.3,0.3-1,0.5-1 c0.3,0,0.9,0.4,2.2,0.6c1.4,0.2,3.4,0.2,3.9,0.2h19c1.7,0,2.8-0.1,3.6-0.2c0.7-0.1,1.2-0.2,1.4-0.2c0.2,0,0.2,0.3,0.2,0.6 c0,1.6-0.2,5.2-0.2,5.8c0,0.4-0.2,0.7-0.5,0.7c-0.2,0-0.3-0.2-0.4-0.9l-0.1-0.5c-0.2-1.6-1.3-2.7-6.1-2.8l-6.3-0.1L879.5,122.8z"></path> <path class="st3" d="M946.3,124.4c0-2.8-0.3-3.8-1.1-5.2c-0.4-0.8-7.2-12.1-8.9-14.8c-1.2-1.9-2.4-3.1-3.3-3.7 c-0.7-0.5-1.7-0.7-2.1-0.7c-0.3,0-0.5-0.2-0.5-0.5c0-0.2,0.2-0.4,0.6-0.4c1,0,4.7,0.1,5,0.1c0.3,0,2.4-0.1,4.3-0.1 c0.6,0,0.7,0.1,0.7,0.4c0,0.2-0.3,0.4-0.8,0.5c-0.4,0.2-0.6,0.4-0.6,0.8c0,0.7,0.3,1.3,0.7,2l9.2,15.9c1-2.2,7.3-13.1,8.2-14.8 c0.6-1.1,0.9-2,0.9-2.6c0-0.7-0.2-1.1-0.8-1.3c-0.5-0.1-0.7-0.4-0.7-0.6c0-0.2,0.3-0.3,0.8-0.3c1.3,0,3.1,0.1,3.5,0.1 c0.3,0,3.9-0.1,4.9-0.1c0.3,0,0.6,0.1,0.6,0.3c0,0.2-0.2,0.5-0.6,0.5c-0.6,0-1.5,0.2-2.3,0.7c-1,0.6-1.4,1.1-2.5,2.5 c-1.7,2-8.8,14.1-9.8,16.2c-0.9,1.8-0.6,3.4-0.6,5.1v4.4c0,0.8,0,3,0.2,5.1c0.1,1.5,0.5,2.5,1.9,2.7c0.7,0.1,1.8,0.2,2.3,0.2 c0.3,0,0.4,0.2,0.4,0.4c0,0.2-0.3,0.4-0.8,0.4c-2.8,0-6.1-0.2-6.3-0.2c-0.2,0-3.4,0.2-4.9,0.2c-0.6,0-0.8-0.1-0.8-0.4 c0-0.2,0.1-0.4,0.4-0.4c0.5,0,1-0.1,1.5-0.2c1-0.2,1.4-1.2,1.5-2.7c0.1-2.1,0.1-4.3,0.1-5.1V124.4z"></path> <path class="st4" d="M946.3,124.4c0-2.8-0.3-3.8-1.1-5.2c-0.4-0.8-7.2-12.1-8.9-14.8c-1.2-1.9-2.4-3.1-3.3-3.7 c-0.7-0.5-1.7-0.7-2.1-0.7c-0.3,0-0.5-0.2-0.5-0.5c0-0.2,0.2-0.4,0.6-0.4c1,0,4.7,0.1,5,0.1c0.3,0,2.4-0.1,4.3-0.1 c0.6,0,0.7,0.1,0.7,0.4c0,0.2-0.3,0.4-0.8,0.5c-0.4,0.2-0.6,0.4-0.6,0.8c0,0.7,0.3,1.3,0.7,2l9.2,15.9c1-2.2,7.3-13.1,8.2-14.8 c0.6-1.1,0.9-2,0.9-2.6c0-0.7-0.2-1.1-0.8-1.3c-0.5-0.1-0.7-0.4-0.7-0.6c0-0.2,0.3-0.3,0.8-0.3c1.3,0,3.1,0.1,3.5,0.1 c0.3,0,3.9-0.1,4.9-0.1c0.3,0,0.6,0.1,0.6,0.3c0,0.2-0.2,0.5-0.6,0.5c-0.6,0-1.5,0.2-2.3,0.7c-1,0.6-1.4,1.1-2.5,2.5 c-1.7,2-8.8,14.1-9.8,16.2c-0.9,1.8-0.6,3.4-0.6,5.1v4.4c0,0.8,0,3,0.2,5.1c0.1,1.5,0.5,2.5,1.9,2.7c0.7,0.1,1.8,0.2,2.3,0.2 c0.3,0,0.4,0.2,0.4,0.4c0,0.2-0.3,0.4-0.8,0.4c-2.8,0-6.1-0.2-6.3-0.2c-0.2,0-3.4,0.2-4.9,0.2c-0.6,0-0.8-0.1-0.8-0.4 c0-0.2,0.1-0.4,0.4-0.4c0.5,0,1-0.1,1.5-0.2c1-0.2,1.4-1.2,1.5-2.7c0.1-2.1,0.1-4.3,0.1-5.1V124.4z"></path> <path class="st3" d="M903.2,113.5c0-8,0-9.4-0.1-11.1c-0.1-1.8-0.4-2.6-2.2-2.9c-0.4-0.1-1.3-0.1-1.8-0.1c-0.2,0-0.4-0.2-0.4-0.4 c0-0.3,0.2-0.4,0.8-0.4c2.4,0,6,0.1,6.3,0.1c0.6,0,5-0.1,6.7-0.1c3.4,0,7.1,0.3,9.9,2.2c1.3,1,3.7,3.4,3.7,7 c0,3.8-1.6,7.5-6.5,11.7c4.3,5.5,16.9,20.4,20,23.6c2.8,2.9,4.6,3.4,5.9,3.6c1,0.2,1.6,0.2,1.9,0.2c0.3,0,0.5,0.2,0.5,0.4 c0,0.3-0.3,0.4-1.3,0.4h-3.3c-3,0-5.5-1.5-6.6-2.5c-6.3-5.7-13.1-13.9-15.1-16.9c-2-3-4.7-5.6-5.9-7c-0.2-0.2-0.4-0.3-0.7-0.3 l-6.8-0.1c-0.2,0-0.4,0.1-0.4,0.4v1.2c0,5,0,9,0.2,11.1c0.2,1.5,0.5,2.5,2.1,2.7c0.7,0.1,1.9,0.2,2.4,0.2c0.4,0,0.4,0.2,0.4,0.4 c0,0.2-0.2,0.4-0.8,0.4c-2.9,0-6.3-0.2-6.5-0.2c-0.1,0-3.6,0.2-5.3,0.2c-0.5,0-0.9-0.1-0.9-0.4c0-0.2,0.1-0.4,0.4-0.4 c0.5,0,1.1-0.1,1.6-0.2c1-0.2,1.1-1.2,1.4-2.7c0.3-2.1,0.3-6.2,0.3-11.1V113.5z M907.8,117.9c0,0.3,0.1,0.5,0.4,0.7 c0.8,0.4,3.5,0.8,5.9,0.8c1.3,0,2.7-0.1,4-0.9c1.8-1.2,3.2-3.9,3.2-7.9c0-6.4-3.5-10.1-9.2-10.1c-1.6,0-3.3,0.2-3.8,0.3 c-0.2,0.1-0.4,0.3-0.4,0.6V117.9z"></path> <path class="st4" d="M903.2,113.5c0-8,0-9.4-0.1-11.1c-0.1-1.8-0.4-2.6-2.2-2.9c-0.4-0.1-1.3-0.1-1.8-0.1c-0.2,0-0.4-0.2-0.4-0.4 c0-0.3,0.2-0.4,0.8-0.4c2.4,0,6,0.1,6.3,0.1c0.6,0,5-0.1,6.7-0.1c3.4,0,7.1,0.3,9.9,2.2c1.3,1,3.7,3.4,3.7,7 c0,3.8-1.6,7.5-6.5,11.7c4.3,5.5,16.9,20.4,20,23.6c2.8,2.9,4.6,3.4,5.9,3.6c1,0.2,1.6,0.2,1.9,0.2c0.3,0,0.5,0.2,0.5,0.4 c0,0.3-0.3,0.4-1.3,0.4h-3.3c-3,0-5.5-1.5-6.6-2.5c-6.3-5.7-13.1-13.9-15.1-16.9c-2-3-4.7-5.6-5.9-7c-0.2-0.2-0.4-0.3-0.7-0.3 l-6.8-0.1c-0.2,0-0.4,0.1-0.4,0.4v1.2c0,5,0,9,0.2,11.1c0.2,1.5,0.5,2.5,2.1,2.7c0.7,0.1,1.9,0.2,2.4,0.2c0.4,0,0.4,0.2,0.4,0.4 c0,0.2-0.2,0.4-0.8,0.4c-2.9,0-6.3-0.2-6.5-0.2c-0.1,0-3.6,0.2-5.3,0.2c-0.5,0-0.9-0.1-0.9-0.4c0-0.2,0.1-0.4,0.4-0.4 c0.5,0,1.1-0.1,1.6-0.2c1-0.2,1.1-1.2,1.4-2.7c0.3-2.1,0.3-6.2,0.3-11.1V113.5z M907.8,117.9c0,0.3,0.1,0.5,0.4,0.7 c0.8,0.4,3.5,0.8,5.9,0.8c1.3,0,2.7-0.1,4-0.9c1.8-1.2,3.2-3.9,3.2-7.9c0-6.4-3.5-10.1-9.2-10.1c-1.6,0-3.3,0.2-3.8,0.3 c-0.2,0.1-0.4,0.3-0.4,0.6V117.9z"></path> <g> <path class="st3" d="M976.9,130c0-4.9,3.8-8.5,8.9-8.5c5.1,0,8.9,3.6,8.9,8.5c0,4.8-3.8,8.4-8.9,8.4 C980.7,138.5,976.9,134.8,976.9,130z M993.1,129.9c0-4.2-3.1-7-7.3-7c-4.2,0-7.3,2.8-7.3,7c0,4.1,3.1,7.1,7.4,7.1 C990,137,993.1,134,993.1,129.9z M982.5,128.6c0-1.5-0.1-2.1-0.1-2.6c0-0.6-0.3-0.7-1.1-0.7c-0.1,0-0.3-0.1-0.3-0.2 c0-0.2,0.2-0.3,0.5-0.3h0.5c0.2,0,1,0.1,1.3,0.1c0.9,0,1.3-0.1,2-0.1c1.6,0,4.1,0.3,4.1,2.6c0,1-0.3,1.7-1.7,2.9l1.6,2 c1.3,1.6,1.6,1.6,1.8,1.6s0.3,0.1,0.3,0.2c0,0.2-0.1,0.3-0.7,0.3c-1.3,0-1.9,0.1-3.4-1.8l-1.4-1.8h-1.7v0.9c0,1.9,0.1,2,0.2,2.1 c0.2,0.1,0.7,0.2,1,0.2c0.2,0,0.3,0,0.3,0.2c0,0.2-0.2,0.3-0.4,0.3h-0.4c-0.2,0-1.1-0.1-1.6-0.1c-0.3,0-1.3,0.1-1.5,0.1h-0.5 c-0.2,0-0.4,0-0.4-0.2c0-0.2,0.2-0.3,0.4-0.3c0.9,0,0.9,0,1-0.6c0-0.5,0.1-1.2,0.1-2.7V128.6z M984.2,129.7 c0.3,0.2,0.9,0.3,1.5,0.3c0.3,0,0.7-0.1,1-0.3c0.5-0.3,0.9-0.8,0.9-1.7c0-1.4-0.9-2.3-2.4-2.3c-0.1,0-0.7,0-0.9,0.2V129.7z"></path> </g> </g> </svg> 