<svg xmlns="http://www.w3.org/2000/svg" xmlns:xlink="http://www.w3.org/1999/xlink" viewBox="0 0 273 58"><title>THR Logo</title><desc>Texas Health Resources logo</desc><defs><path id="a" d="M.72.44h57.107v57.1H.72z"/></defs><g fill="none" fill-rule="evenodd"><path fill="#00539B" d="M174.355 52.098c1.571.827 3.284 1.313 4.768 1.313 1.456 0 2.255-.571 2.255-1.655 0-1.03-.2-1.23-2.026-2l-1.856-.8c-2.427-1.026-3.14-1.855-3.14-3.651 0-2.598 1.684-3.94 4.94-3.94 1.37 0 2.311.172 3.937.714v2.312c-1.283-.627-2.625-.914-4.11-.914-1.77 0-2.425.457-2.425 1.685 0 .857.312 1.227 1.483 1.712l2.54 1.084c2.2.914 3 1.885 3 3.626 0 2.397-1.886 3.91-4.826 3.91-1.456 0-3.084-.4-4.54-1.113v-2.283z"/><g><mask id="b" fill="#fff"><use xlink:href="#a"/></mask><path fill="#00A160" d="M39.236 6.44l.081.164.167.068a21.946 21.946 0 0 1 7.34 4.861c5.052 5.092 7.41 12.708 5.481 17.71-.364.951-.877 1.763-1.527 2.416-1.264 1.267-3.07 1.972-5.368 2.085h-.194l-3.993-.003h-.469v.471l.001 3.901v.466h.47l4.364.005c5.451-.25 9.422-2.949 11.206-7.595 2.613-6.787-.147-16.408-6.564-22.878-3.97-4-9.494-6.782-14.78-7.442L33.604.44l1.515 1.082a12.825 12.825 0 0 1 4.117 4.918zm17.505 28.4a12.885 12.885 0 0 1-4.915 4.114l-.167.08-.068.17a21.929 21.929 0 0 1-4.866 7.341c-5.09 5.05-12.705 7.405-17.708 5.481-2.777-1.068-4.335-3.454-4.503-6.895l.003-4.183v-.474h-4.844v.472c0 4.396.001 4.4.004 4.444.251 5.38 2.948 9.342 7.594 11.123 6.787 2.615 16.412-.145 22.88-6.562 4-3.974 6.78-9.498 7.44-14.779l.236-1.842-1.086 1.51zM6.724 19.023l.162-.079.068-.172a21.877 21.877 0 0 1 4.862-7.336C16.9 6.384 24.514 4.03 29.526 5.955c2.773 1.067 4.328 3.454 4.497 6.897-.002-.025-.002 4.176-.002 4.176v.472h4.846v-4.854c-.26-5.43-2.952-9.393-7.595-11.18-6.795-2.617-16.418.148-22.879 6.568C4.39 12.004 1.607 17.53.95 22.811L.72 24.657l1.08-1.513a12.823 12.823 0 0 1 4.924-4.12zm12.58 32.518l-.077-.166-.17-.067a22 22 0 0 1-7.34-4.86c-5.05-5.089-7.415-12.705-5.485-17.712.372-.953.886-1.769 1.527-2.418 1.27-1.265 3.073-1.967 5.373-2.083H17.782v-4.84H12.94l-.074.008.05-.002c-5.425.25-9.384 2.941-11.174 7.587-2.61 6.79.152 16.41 6.567 22.881 3.97 3.993 9.496 6.775 14.78 7.438l1.851.232-1.51-1.083c-1.773-1.262-3.156-2.916-4.126-4.915z" mask="url(#b)"/></g><g fill="#00539B"><path d="M26.256 19.396v4.755H45.33c2.095.101 3.806.695 5.061 1.767l.76.65.021-.998c.035-1.566-.259-3.296-.837-5.003l-.07-.214-.212-.077c-1.395-.51-2.922-.81-4.544-.88H26.256zM33.91 46.68c-.17.897-.451 1.704-.85 2.41a6.23 6.23 0 0 1-.71 1.024l-.646.756.996.02c1.555.031 3.28-.257 4.99-.829l.218-.073.077-.213c.509-1.397.812-2.928.883-4.549l-.011-18.781-.002-.47h-4.756v.47l.005 7.527v1.742l.006 9.371c-.027.52-.087 1.016-.171 1.487-.006.038-.02.069-.03.108M24.431 31.53c0-14.93.002-18.388.005-18.612.107-2.116.697-3.803 1.756-5.051l.646-.756-.993-.02c-1.564-.03-3.294.255-4.996.827l-.217.073-.076.215a15.235 15.235 0 0 0-.882 4.546l-.001 18.779v.472h4.758v-.472zM8.274 37.627l.214.079c1.378.503 2.908.799 4.544.877.026.001 18.78-.008 18.78-.008l.469-.002v-.467l-.003-3.817-.002-.472h-.466l-18.645.014c-2.072-.105-3.767-.7-5.016-1.767l-.755-.648-.02.998c-.034 1.562.254 3.289.83 4.998l.07.215zM87.018 2.772v4.877H80.12v21.57h-6.146V7.65h-6.74V2.772z"/><path d="M89.793 18.037h6.344v-.99c0-1.905-1.15-3.054-3.052-3.054-1.944 0-3.292 1.23-3.292 3.093v.951zm11.222 6.425v4.084l-.476.118-1.427.437c-.912.277-2.657.475-4.322.475-6.861 0-10.667-3.607-10.667-10.11 0-5.91 3.529-9.557 9.397-9.557 2.737 0 4.56.793 6.147 2.577 1.546 1.784 1.982 3.332 1.982 6.9v1.744H89.872c.119 2.737 2.023 4.046 5.949 4.046 2.18 0 3.172-.16 5.194-.714zM102.362 10.226h6.503l3.568 5.63 3.41-5.63h6.226l-6.622 9.437 6.78 9.557h-6.581l-3.53-5.67-3.53 5.67h-6.304l6.82-9.557zM134.042 21.527h-2.696c-1.784 0-2.696.714-2.696 2.06 0 1.193.793 1.905 2.18 1.905h.992c1.467 0 2.22-.753 2.22-2.34v-1.625zm-9.437-10.032c1.943-.991 4.52-1.586 6.94-1.586 2.022 0 3.766.357 5.194.992 1.904.87 2.618 2.06 2.618 4.242v8.842c0 1.19.316 1.865 1.347 2.816l-3.489 2.855c-.119-.08-.239-.2-.318-.237-1.03-.913-1.309-1.032-2.339-1.032-.595 0-1.07.119-1.824.358-2.3.753-2.578.832-4.243.832-3.489 0-5.67-2.102-5.67-5.511 0-3.65 2.855-5.87 7.493-5.87h1.706c1.35 0 2.022-.594 2.022-1.864 0-1.586-.912-2.181-3.133-2.181-2.06 0-5.114.635-6.304 1.35v-4.006zM142.607 24.144c2.023.991 4.48 1.665 6.266 1.665 1.586 0 2.378-.595 2.378-1.784 0-.95-.396-1.348-1.744-1.942l-2.577-1.11c-3.253-1.389-4.481-2.857-4.481-5.354 0-3.728 2.814-5.71 8.088-5.71 2.412 0 3.835.238 5.063.833v3.965c-1.467-.714-3.042-1.072-4.904-1.072-1.745 0-2.577.516-2.577 1.507 0 .793.397 1.19 1.784 1.746l3.399 1.426c2.497 1.032 3.569 2.58 3.569 5.076 0 3.807-2.896 6.147-7.641 6.147-2.658 0-4.96-.436-6.623-1.229v-4.164zM169.04 2.772h6.15V13.16h11.024V2.772h6.225l-.12 26.448h-6.105V17.879H175.19v11.34h-6.15zM200.129 18.037h6.344v-.99c0-1.905-1.15-3.054-3.053-3.054-1.941 0-3.291 1.23-3.291 3.093v.951zm11.222 6.425v4.084l-.476.118-1.428.437c-.911.277-2.656.475-4.322.475-6.86 0-10.665-3.607-10.665-10.11 0-5.91 3.53-9.557 9.397-9.557 2.736 0 4.56.793 6.145 2.577 1.546 1.784 1.983 3.332 1.983 6.9v1.744h-11.778c.12 2.737 2.024 4.046 5.95 4.046 2.18 0 3.171-.16 5.194-.714zM225.108 21.527h-2.695c-1.785 0-2.696.714-2.696 2.06 0 1.193.793 1.905 2.181 1.905h.991c1.466 0 2.219-.753 2.219-2.34v-1.625zm-9.437-10.032c1.944-.991 4.521-1.586 6.941-1.586 2.021 0 3.766.357 5.193.992 1.903.87 2.618 2.06 2.618 4.242v8.842c0 1.19.317 1.865 1.349 2.816l-3.49 2.855c-.119-.08-.238-.2-.318-.237-1.031-.913-1.308-1.032-2.34-1.032-.594 0-1.07.119-1.823.358-2.3.753-2.579.832-4.244.832-3.489 0-5.67-2.102-5.67-5.511 0-3.65 2.856-5.87 7.495-5.87h1.705c1.348 0 2.021-.594 2.021-1.864 0-1.586-.91-2.181-3.132-2.181-2.061 0-5.115.635-6.305 1.35v-4.006zM239.189 2.772l-.023 26.448h-5.49l-.04-26.448zM241.086 10.226h2.577v-5.83h5.512v5.83h4.243v3.251h-4.243v9.24c0 1.744.516 2.3 2.181 2.3h2.062v4.203h-4.758c-3.25 0-4.997-1.706-4.997-4.878V13.477h-2.577v-3.25zM261.11 12.367c2.18-1.903 3.488-2.458 5.828-2.458 3.806 0 6.027 2.023 6.027 5.512V29.22h-5.71V17.007c0-1.586-1.03-2.538-2.776-2.538-2.1 0-3.37 1.309-3.37 3.489V29.22h-5.59V2.772h5.59v9.595zM188.02 39.373c.403 0 .761-.04.761-.516 0-.396-.388-.443-.714-.443h-.649v.959h.601zm-.602 1.862h-.539v-3.281h1.244c.793 0 1.197.278 1.197.944 0 .594-.365.839-.857.895l.921 1.442h-.61l-.849-1.402h-.507v1.402zm.585-4.145c-1.284 0-2.283 1.007-2.283 2.449 0 1.347.872 2.45 2.283 2.45 1.27 0 2.268-1 2.268-2.45 0-1.442-.999-2.45-2.268-2.45zm0 5.413c-1.703 0-2.916-1.276-2.916-2.964 0-1.783 1.348-2.965 2.916-2.965 1.554 0 2.902 1.182 2.902 2.965 0 1.784-1.348 2.964-2.902 2.964z"/></g><g fill="#00539B"><path d="M71.918 45.332h5.224c2.398 0 3.654-1.169 3.654-3.454 0-2.283-1.284-3.539-3.569-3.539h-5.309v6.993zm0 2.226v7.708h-2.427V36.227H76.8c2.398 0 3.597.343 4.767 1.37 1.17.998 1.799 2.483 1.799 4.111 0 2.57-1.513 4.595-3.941 5.222l.2.285c1.37 1.686 2.028 2.74 2.884 4.483.714 1.398.941 1.998 1.484 3.568h-2.512c-.6-1.655-1.542-3.398-3.083-5.71-.629-.97-.856-1.256-1.456-1.998h-5.024zM87.57 47.444h7.566c-.143-2.653-1.514-4.194-3.768-4.194-2.283 0-3.711 1.598-3.797 4.194zm8.907 7.252c-1.17.514-2.767.799-4.368.799-1.855 0-3.568-.628-4.824-1.826-1.4-1.343-2.026-2.941-2.026-5.254 0-4.281 2.482-7.05 6.28-7.05 3.454 0 5.765 2.456 5.765 6.079V49.3H87.6c.027 1.027.14 1.427.656 2.226.884 1.398 2.085 1.999 4.053 1.999 1.4 0 2.599-.286 4.168-.943v2.113zM99.389 52.098c1.57.827 3.283 1.313 4.767 1.313 1.456 0 2.255-.571 2.255-1.655 0-1.03-.2-1.23-2.025-2l-1.856-.8c-2.427-1.026-3.141-1.855-3.141-3.651 0-2.598 1.685-3.94 4.939-3.94 1.371 0 2.312.172 3.939.714v2.312c-1.284-.627-2.625-.914-4.111-.914-1.77 0-2.425.457-2.425 1.685 0 .857.312 1.227 1.483 1.712l2.54 1.084c2.2.914 2.999 1.885 2.999 3.626 0 2.397-1.885 3.91-4.825 3.91-1.456 0-3.083-.4-4.539-1.113v-2.283zM112.576 48.5c0 3.34 1.456 5.026 4.367 5.026 2.97 0 4.397-1.628 4.397-5.026 0-3.395-1.427-5.08-4.282-5.08-3.026 0-4.482 1.657-4.482 5.08m-2.341-.028c0-4.395 2.54-7.108 6.68-7.108 4.31 0 6.766 2.57 6.766 7.08 0 4.453-2.483 7.05-6.708 7.05-4.283 0-6.738-2.54-6.738-7.022M125.761 41.594h2.229v8.79c0 2.199.941 3.255 2.883 3.255 2.371 0 3.769-1.341 3.769-3.568v-8.477h2.197v13.673h-2.197v-1.828c-1.114 1.399-2.427 2.056-4.168 2.056-2.942 0-4.713-1.884-4.713-5.025v-8.876zM140.202 41.594h2.197v2.684c1.03-1.857 2.313-2.8 3.911-2.8.571 0 .83.059 1.486.316v2.027c-.572-.2-.772-.23-1.428-.23-2.428 0-3.969 1.429-3.969 3.683v7.993h-2.197V41.594zM158.494 52.697v1.998c-1.285.571-2.37.8-3.768.8-4.026 0-6.51-2.683-6.51-7.023 0-4.28 2.712-7.108 6.88-7.108 1.256 0 2.255.23 3.398.714v2.227c-1.113-.599-2-.828-3.255-.828-3.025 0-4.681 1.77-4.681 5.023 0 1.713.542 3.226 1.426 4.025.715.6 1.628.886 2.942.886 1.256 0 2.57-.257 3.568-.714M162.518 47.444h7.584c-.142-2.653-1.513-4.194-3.782-4.194-2.289 0-3.717 1.598-3.802 4.194zm8.926 7.252c-1.17.514-2.768.799-4.376.799-1.868 0-3.58-.628-4.837-1.826-1.398-1.343-2.024-2.941-2.024-5.254 0-4.281 2.481-7.05 6.286-7.05 3.467 0 5.78 2.456 5.78 6.079V49.3h-9.727c.027 1.027.142 1.427.656 2.226.885 1.398 2.085 1.999 4.066 1.999 1.408 0 2.607-.286 4.176-.943v2.113z"/></g></g></svg>