<svg width="215" height="214" viewBox="0 0 215 214" fill="none" xmlns="http://www.w3.org/2000/svg">
<circle cx="60.5238" cy="179.903" r="15.5833" fill="#A94C83"/>
<path d="M54.3781 141.932C55.6072 123.496 72.8879 109.815 81.3746 105.279C81.3746 106.083 80.8917 110.107 78.9603 119.765C77.0289 129.422 78.8872 138.567 80.0577 141.932C80.9357 145.371 84.0084 153.96 89.276 160.808C95.8605 169.368 110.566 178.806 115.175 181.659C118.862 183.942 118.906 188.246 118.906 193.072C115.321 193.145 106.879 193.248 101.787 193.072C95.4216 192.853 86.1662 189.007 81.3746 185.829C78.9524 184.223 78.6676 172.042 78.9603 171.164V170.246C77.4971 167.173 71.4101 160.764 58.7678 159.711C42.965 158.394 32.8686 176.172 28.9179 178.806C24.9672 181.439 19.6996 180.123 21.675 174.635C23.6504 169.148 48.891 146.103 54.3781 141.932Z" fill="#A94C83"/>
<path d="M81.3746 105.279H81.8746V104.444L81.1389 104.838L81.3746 105.279ZM54.3781 141.932L54.6806 142.33L54.8619 142.193L54.877 141.966L54.3781 141.932ZM21.675 174.635L22.1454 174.805L21.675 174.635ZM28.9179 178.806L28.6405 178.39H28.6405L28.9179 178.806ZM58.7678 159.711L58.8093 159.212L58.7678 159.711ZM78.9603 170.246H79.4603V170.133L79.4117 170.031L78.9603 170.246ZM78.9603 171.164L79.4346 171.322L79.4603 171.245V171.164H78.9603ZM81.3746 185.829L81.6509 185.412L81.3746 185.829ZM101.787 193.072L101.769 193.572L101.787 193.072ZM118.906 193.072L118.917 193.572C119.189 193.566 119.406 193.344 119.406 193.072H118.906ZM115.175 181.659L114.912 182.084L115.175 181.659ZM89.276 160.808L89.6724 160.503L89.276 160.808ZM80.0577 141.932L80.5422 141.809L80.5369 141.788L80.53 141.768L80.0577 141.932ZM78.9603 119.765L78.47 119.667V119.667L78.9603 119.765ZM81.1389 104.838C76.8475 107.131 70.357 111.722 64.7793 118.063C59.2023 124.403 54.5037 132.533 53.8792 141.899L54.877 141.966C55.4817 132.896 60.0379 124.967 65.5302 118.723C71.0218 112.48 77.4149 107.962 81.6103 105.72L81.1389 104.838ZM54.0756 141.534C51.3073 143.638 43.6077 150.46 36.363 157.43C32.7378 160.918 29.2173 164.452 26.4769 167.461C25.1071 168.965 23.9272 170.343 23.0252 171.522C22.1332 172.688 21.4799 173.701 21.2046 174.466L22.1454 174.805C22.364 174.198 22.9316 173.29 23.8194 172.13C24.6973 170.982 25.8562 169.627 27.2162 168.134C29.9356 165.148 33.4385 161.631 37.0563 158.15C44.2975 151.183 51.9618 144.397 54.6806 142.33L54.0756 141.534ZM21.2046 174.466C20.6863 175.906 20.6198 177.136 20.9423 178.127C21.2686 179.13 21.9744 179.83 22.8733 180.224C24.6386 180.998 27.1248 180.602 29.1953 179.222L28.6405 178.39C26.7603 179.643 24.6374 179.906 23.275 179.308C22.6101 179.016 22.1225 178.522 21.8933 177.818C21.6602 177.101 21.676 176.109 22.1454 174.805L21.2046 174.466ZM29.1952 179.222C29.7418 178.857 30.3658 178.253 31.0525 177.516C31.7452 176.772 32.5326 175.858 33.4041 174.853C35.1531 172.837 37.2633 170.428 39.7374 168.144C44.6934 163.569 51.0338 159.568 58.7263 160.209L58.8093 159.212C50.699 158.536 44.0898 162.766 39.0592 167.409C36.54 169.735 34.3977 172.182 32.6487 174.198C31.7711 175.21 30.9982 176.107 30.3207 176.834C29.6374 177.568 29.0816 178.096 28.6405 178.39L29.1952 179.222ZM58.7263 160.209C71.2165 161.25 77.1325 167.57 78.5089 170.461L79.4117 170.031C77.8617 166.776 71.6036 160.279 58.8093 159.212L58.7263 160.209ZM78.4603 170.246V171.164H79.4603V170.246H78.4603ZM78.486 171.006C78.4478 171.12 78.4282 171.271 78.4149 171.407C78.4002 171.559 78.389 171.746 78.381 171.962C78.3651 172.394 78.3617 172.958 78.3735 173.609C78.3971 174.912 78.4817 176.581 78.6519 178.273C78.8217 179.963 79.0785 181.693 79.4507 183.11C79.6367 183.819 79.8554 184.464 80.1143 184.994C80.3683 185.513 80.6862 185.973 81.0982 186.246L81.6509 185.412C81.4573 185.284 81.2365 185.012 81.0125 184.554C80.7934 184.106 80.5947 183.53 80.4179 182.856C80.0647 181.511 79.8144 179.839 79.6469 178.173C79.4797 176.51 79.3965 174.869 79.3734 173.591C79.3618 172.952 79.3653 172.407 79.3803 171.999C79.3879 171.794 79.3982 171.628 79.4102 171.504C79.4237 171.365 79.4362 171.318 79.4346 171.322L78.486 171.006ZM81.0982 186.246C83.5324 187.86 87.0799 189.632 90.8155 191.029C94.5465 192.423 98.5095 193.459 101.769 193.572L101.804 192.572C98.6987 192.465 94.8515 191.469 91.1656 190.092C87.4844 188.716 84.0084 186.976 81.6509 185.412L81.0982 186.246ZM101.769 193.572C106.876 193.748 115.331 193.645 118.917 193.572L118.896 192.572C115.312 192.645 106.881 192.747 101.804 192.572L101.769 193.572ZM119.406 193.072C119.406 190.673 119.398 188.328 118.91 186.295C118.415 184.237 117.421 182.461 115.438 181.234L114.912 182.084C116.616 183.139 117.488 184.657 117.937 186.528C118.393 188.425 118.406 190.645 118.406 193.072H119.406ZM115.438 181.234C113.14 179.811 108.325 176.747 103.265 172.973C98.1971 169.192 92.9208 164.726 89.6724 160.503L88.8797 161.113C92.2158 165.45 97.5845 169.983 102.667 173.774C107.759 177.572 112.601 180.654 114.912 182.084L115.438 181.234ZM89.6724 160.503C84.4584 153.725 81.4092 145.204 80.5422 141.809L79.5733 142.056C80.4622 145.538 83.5585 154.195 88.8797 161.113L89.6724 160.503ZM80.53 141.768C79.3827 138.47 77.54 129.416 79.4506 119.863L78.47 119.667C76.5178 129.428 78.3917 138.664 79.5855 142.097L80.53 141.768ZM79.4506 119.863C80.4173 115.029 81.0222 111.602 81.3857 109.279C81.7467 106.973 81.8746 105.727 81.8746 105.279H80.8746C80.8746 105.635 80.761 106.804 80.3977 109.125C80.037 111.43 79.4348 114.843 78.47 119.667L79.4506 119.863Z" fill="#A94C83"/>
<path fill-rule="evenodd" clip-rule="evenodd" d="M115.331 104.794C115.681 105.392 115.946 106.035 116.117 106.706C116.297 107.399 116.383 108.113 116.372 108.83C116.381 110.195 116.021 111.538 115.331 112.716C114.992 113.332 114.56 113.899 114.057 114.394L101.505 126.946L88.9536 114.394C88.4498 113.894 88.0143 113.33 87.6581 112.716C87.3282 112.119 87.0715 111.484 86.8935 110.826C86.7236 110.174 86.6386 109.503 86.6386 108.83C86.6277 108.113 86.7134 107.399 86.8935 106.706C87.232 105.341 87.9455 104.097 88.9536 103.116C89.6906 102.382 90.5634 101.798 91.5234 101.396C93.4557 100.603 95.6227 100.603 97.555 101.396C98.4624 101.78 99.296 102.319 100.019 102.989L100.125 103.116L101.505 104.497L102.886 103.116L102.992 102.989C103.715 102.319 104.548 101.78 105.456 101.396C107.388 100.603 109.555 100.603 111.487 101.396C112.447 101.798 113.32 102.382 114.057 103.116C114.565 103.607 114.995 104.173 115.331 104.794Z" fill="#5D4B87"/>
<path d="M116.117 106.706L115.633 106.829L115.633 106.831L116.117 106.706ZM115.331 104.794L114.892 105.032L114.896 105.04L114.9 105.047L115.331 104.794ZM116.372 108.83L115.872 108.822L115.872 108.833L116.372 108.83ZM115.331 112.716L114.9 112.463L114.894 112.475L115.331 112.716ZM114.057 114.394L113.707 114.037L113.704 114.04L114.057 114.394ZM101.505 126.946L101.152 127.299L101.505 127.653L101.859 127.299L101.505 126.946ZM88.9536 114.394L89.3071 114.04L89.3058 114.039L88.9536 114.394ZM87.6581 112.716L87.2203 112.958L87.2256 112.967L87.6581 112.716ZM86.8935 110.826L86.4096 110.952L86.4108 110.956L86.8935 110.826ZM86.6386 108.83H87.1387L87.1386 108.822L86.6386 108.83ZM86.8935 106.706L87.3775 106.831L87.3788 106.826L86.8935 106.706ZM88.9536 103.116L89.3023 103.475L89.3065 103.471L88.9536 103.116ZM91.5234 101.396L91.3336 100.934L91.3305 100.935L91.5234 101.396ZM97.555 101.396L97.7499 100.936L97.7449 100.934L97.555 101.396ZM100.019 102.989L100.403 102.669L100.382 102.644L100.359 102.622L100.019 102.989ZM100.125 103.116L99.7407 103.437L99.7553 103.454L99.7713 103.47L100.125 103.116ZM101.505 104.497L101.152 104.851L101.505 105.204L101.859 104.851L101.505 104.497ZM102.886 103.116L103.239 103.47L103.255 103.454L103.27 103.437L102.886 103.116ZM102.992 102.989L102.652 102.622L102.628 102.644L102.608 102.669L102.992 102.989ZM105.456 101.396L105.266 100.934L105.261 100.936L105.456 101.396ZM111.487 101.396L111.68 100.935L111.677 100.934L111.487 101.396ZM114.057 103.116L113.704 103.471L113.71 103.476L114.057 103.116ZM116.602 106.582C116.419 105.866 116.136 105.179 115.763 104.542L114.9 105.047C115.226 105.604 115.473 106.204 115.633 106.829L116.602 106.582ZM116.872 108.837C116.884 108.076 116.793 107.317 116.601 106.58L115.633 106.831C115.802 107.481 115.882 108.151 115.872 108.822L116.872 108.837ZM115.763 112.969C116.498 111.713 116.881 110.282 116.872 108.826L115.872 108.833C115.88 110.108 115.544 111.363 114.9 112.464L115.763 112.969ZM114.408 114.75C114.945 114.222 115.406 113.616 115.769 112.958L114.894 112.475C114.577 113.048 114.176 113.576 113.707 114.037L114.408 114.75ZM101.859 127.299L114.411 114.747L113.704 114.04L101.152 126.592L101.859 127.299ZM88.6 114.747L101.152 127.299L101.859 126.592L89.3071 114.04L88.6 114.747ZM87.2256 112.967C87.6039 113.619 88.0664 114.218 88.6014 114.749L89.3058 114.039C88.8333 113.57 88.4246 113.041 88.0905 112.465L87.2256 112.967ZM86.4108 110.956C86.5993 111.654 86.8712 112.326 87.2204 112.958L88.0957 112.474C87.7853 111.912 87.5437 111.315 87.3761 110.695L86.4108 110.956ZM86.1386 108.83C86.1386 109.545 86.2289 110.258 86.4096 110.952L87.3773 110.7C87.2183 110.089 87.1386 109.461 87.1386 108.83H86.1386ZM86.4095 106.58C86.2182 107.317 86.1271 108.076 86.1387 108.837L87.1386 108.822C87.1283 108.151 87.2087 107.481 87.3774 106.831L86.4095 106.58ZM88.6049 102.758C87.53 103.804 86.7691 105.13 86.4082 106.585L87.3788 106.826C87.6948 105.551 88.3611 104.391 89.3023 103.475L88.6049 102.758ZM91.3305 100.935C90.3107 101.361 89.3835 101.982 88.6006 102.762L89.3065 103.471C89.9977 102.782 90.8161 102.234 91.7163 101.857L91.3305 100.935ZM97.7449 100.934C95.6909 100.091 93.3875 100.091 91.3336 100.934L91.7132 101.859C93.5239 101.116 95.5545 101.116 97.3652 101.859L97.7449 100.934ZM100.359 102.622C99.5934 101.913 98.7107 101.342 97.7499 100.936L97.3601 101.857C98.2141 102.218 98.9987 102.725 99.6788 103.356L100.359 102.622ZM100.509 102.796L100.403 102.669L99.6345 103.309L99.7407 103.437L100.509 102.796ZM101.859 104.143L100.478 102.763L99.7713 103.47L101.152 104.851L101.859 104.143ZM102.532 102.763L101.152 104.143L101.859 104.851L103.239 103.47L102.532 102.763ZM102.608 102.669L102.502 102.796L103.27 103.437L103.376 103.309L102.608 102.669ZM105.261 100.936C104.3 101.342 103.417 101.913 102.652 102.622L103.332 103.356C104.012 102.725 104.797 102.218 105.651 101.857L105.261 100.936ZM111.677 100.934C109.623 100.091 107.32 100.091 105.266 100.934L105.645 101.859C107.456 101.116 109.487 101.116 111.297 101.859L111.677 100.934ZM114.41 102.762C113.627 101.982 112.7 101.361 111.68 100.935L111.294 101.857C112.195 102.234 113.013 102.782 113.704 103.471L114.41 102.762ZM115.771 104.556C115.411 103.89 114.95 103.283 114.404 102.757L113.71 103.476C114.181 103.931 114.58 104.456 114.892 105.032L115.771 104.556Z" fill="#5D4B87"/>
<circle cx="153.13" cy="171.579" r="15.5833" transform="rotate(-72.2212 153.13 171.579)" fill="#1EA0AD"/>
<path d="M115.096 165.837C97.9153 159.037 90.164 138.404 88.436 128.938C89.2024 129.184 92.8866 130.872 101.493 135.66C110.099 140.448 119.375 141.471 122.937 141.384C126.48 141.598 135.597 141.294 143.726 138.369C153.888 134.713 167.365 123.592 171.489 120.074C174.789 117.26 178.901 118.532 183.497 120.006C182.472 123.442 179.991 131.513 178.269 136.308C176.117 142.302 169.629 149.941 165.14 153.533C162.87 155.349 151.184 151.901 150.438 151.355L149.563 151.074C146.191 151.529 138.229 155.369 133.366 167.085C127.286 181.731 141.133 196.774 142.434 201.34C143.736 205.907 140.874 210.52 136.252 206.964C131.63 203.408 117.392 172.335 115.096 165.837Z" fill="#1EA0AD"/>
<path d="M88.436 128.938L88.5887 128.462L87.7943 128.207L87.9441 129.028L88.436 128.938ZM115.096 165.837L115.568 165.67L115.492 165.456L115.28 165.372L115.096 165.837ZM136.252 206.964L136.557 206.568L136.252 206.964ZM142.434 201.34L141.953 201.477L141.953 201.477L142.434 201.34ZM133.366 167.085L132.904 166.894L133.366 167.085ZM149.563 151.074L149.716 150.598L149.608 150.564L149.496 150.579L149.563 151.074ZM150.438 151.355L150.733 150.951L150.668 150.903L150.59 150.878L150.438 151.355ZM165.14 153.533L164.827 153.143L165.14 153.533ZM178.269 136.308L178.74 136.477L178.269 136.308ZM183.497 120.006L183.976 120.149C184.054 119.888 183.909 119.613 183.649 119.53L183.497 120.006ZM171.489 120.074L171.814 120.454L171.489 120.074ZM143.726 138.369L143.557 137.899L143.726 138.369ZM122.937 141.384L122.967 140.885L122.946 140.883L122.925 140.884L122.937 141.384ZM101.493 135.66L101.25 136.097L101.25 136.097L101.493 135.66ZM87.9441 129.028C88.8179 133.814 91.2073 141.397 95.5421 148.644C99.8765 155.891 106.184 162.847 114.912 166.302L115.28 165.372C106.828 162.027 100.669 155.267 96.4003 148.131C92.1324 140.995 89.7821 133.528 88.9279 128.848L87.9441 129.028ZM114.625 166.004C115.783 169.282 119.927 178.697 124.353 187.724C126.567 192.241 128.857 196.672 130.886 200.201C131.9 201.964 132.852 203.509 133.699 204.728C134.537 205.933 135.303 206.865 135.947 207.36L136.557 206.568C136.045 206.174 135.355 205.357 134.52 204.157C133.696 202.971 132.759 201.453 131.753 199.702C129.74 196.201 127.46 191.791 125.25 187.284C120.827 178.261 116.705 168.89 115.568 165.67L114.625 166.004ZM135.947 207.36C137.159 208.293 138.31 208.732 139.353 208.728C140.407 208.723 141.289 208.265 141.939 207.529C143.215 206.085 143.597 203.596 142.915 201.203L141.953 201.477C142.573 203.651 142.175 205.752 141.19 206.867C140.709 207.411 140.09 207.725 139.349 207.728C138.595 207.731 137.655 207.413 136.557 206.568L135.947 207.36ZM142.915 201.203C142.735 200.572 142.35 199.793 141.858 198.914C141.361 198.027 140.731 196.998 140.041 195.862C138.654 193.58 137.005 190.835 135.585 187.782C132.743 181.666 130.868 174.406 133.827 167.277L132.904 166.894C129.784 174.41 131.793 181.995 134.679 188.204C136.124 191.312 137.8 194.1 139.186 196.381C139.881 197.525 140.499 198.535 140.985 199.403C141.475 200.277 141.808 200.968 141.953 201.477L142.915 201.203ZM133.827 167.277C138.632 155.701 146.457 151.998 149.63 151.57L149.496 150.579C145.924 151.061 137.826 155.036 132.904 166.894L133.827 167.277ZM149.411 151.55L150.285 151.831L150.59 150.878L149.716 150.598L149.411 151.55ZM150.142 151.758C150.24 151.829 150.377 151.894 150.503 151.948C150.643 152.008 150.818 152.076 151.021 152.15C151.427 152.297 151.963 152.472 152.587 152.66C153.835 153.035 155.449 153.464 157.113 153.819C158.774 154.173 160.5 154.457 161.963 154.535C162.695 154.574 163.376 154.563 163.959 154.478C164.531 154.395 165.066 154.233 165.452 153.924L164.827 153.143C164.646 153.288 164.319 153.415 163.815 153.489C163.321 153.561 162.712 153.574 162.017 153.537C160.628 153.462 158.96 153.19 157.322 152.841C155.687 152.492 154.099 152.07 152.875 151.702C152.262 151.518 151.745 151.348 151.361 151.209C151.168 151.14 151.014 151.079 150.899 151.03C150.771 150.975 150.729 150.948 150.733 150.951L150.142 151.758ZM165.452 153.924C167.733 152.099 170.503 149.262 172.973 146.131C175.441 143.004 177.638 139.547 178.74 136.477L177.799 136.139C176.749 139.063 174.626 142.422 172.188 145.512C169.754 148.597 167.036 151.376 164.827 153.143L165.452 153.924ZM178.74 136.477C180.467 131.667 182.951 123.585 183.976 120.149L183.018 119.863C181.993 123.299 179.516 131.358 177.799 136.139L178.74 136.477ZM183.649 119.53C181.365 118.797 179.129 118.089 177.044 117.933C174.934 117.775 172.939 118.18 171.165 119.693L171.814 120.454C173.339 119.154 175.05 118.787 176.97 118.93C178.915 119.076 181.033 119.741 183.344 120.482L183.649 119.53ZM171.165 119.693C169.108 121.448 164.72 125.097 159.581 128.763C154.434 132.434 148.57 136.095 143.557 137.899L143.895 138.84C149.044 136.987 155 133.259 160.162 129.577C165.334 125.888 169.746 122.218 171.814 120.454L171.165 119.693ZM143.557 137.899C135.51 140.794 126.466 141.096 122.967 140.885L122.907 141.883C126.494 142.1 135.683 141.795 143.895 138.84L143.557 137.899ZM122.925 140.884C119.434 140.969 110.25 139.96 101.736 135.223L101.25 136.097C109.949 140.936 119.317 141.972 122.949 141.884L122.925 140.884ZM101.736 135.223C97.4286 132.827 94.3496 131.204 92.249 130.149C90.1627 129.101 89.0153 128.599 88.5887 128.462L88.2833 129.414C88.6231 129.523 89.701 129.988 91.8 131.042C93.8847 132.09 96.951 133.705 101.25 136.097L101.736 135.223Z" fill="#1EA0AD"/>
<circle cx="174.25" cy="82.1661" r="15.5833" transform="rotate(-145.144 174.25 82.1661)" fill="#EA8945"/>
<path d="M157.592 116.837C146.047 131.263 124.047 132.614 114.491 131.485C114.951 130.825 117.647 127.799 124.751 120.978C131.855 114.157 135.557 105.591 136.52 102.16C137.765 98.837 140.152 90.0327 139.743 81.4028C139.232 70.6155 132.559 54.4666 130.407 49.491C128.686 45.5105 131.11 41.9534 133.868 37.993C136.852 39.9818 143.839 44.723 147.917 47.7773C153.014 51.5951 158.412 60.0401 160.527 65.3866C161.597 68.0893 154.869 78.2473 154.127 78.8005L153.602 79.5539C153.047 82.9117 154.379 91.6496 164.151 99.7394C176.366 109.852 194.811 101.033 199.558 101.13C204.306 101.227 207.875 105.318 203.119 108.691C198.362 112.065 164.478 116.551 157.592 116.837Z" fill="#EA8945"/>
<path d="M114.491 131.485L114.081 131.2L113.604 131.884L114.432 131.982L114.491 131.485ZM157.592 116.837L157.572 116.337L157.344 116.347L157.202 116.524L157.592 116.837ZM203.119 108.691L202.829 108.284L203.119 108.691ZM199.558 101.13L199.548 101.63L199.548 101.63L199.558 101.13ZM164.151 99.7394L163.832 100.125L164.151 99.7394ZM153.602 79.5539L153.192 79.2682L153.127 79.3609L153.109 79.4723L153.602 79.5539ZM154.127 78.8005L153.828 78.3996L153.763 78.4481L153.717 78.5147L154.127 78.8005ZM160.527 65.3866L160.062 65.5706L160.527 65.3866ZM147.917 47.7773L148.216 47.3771L147.917 47.7773ZM133.868 37.993L134.146 37.577C133.919 37.426 133.614 37.4839 133.458 37.7072L133.868 37.993ZM130.407 49.491L130.866 49.2925L130.407 49.491ZM139.743 81.4028L139.244 81.4265L139.743 81.4028ZM136.52 102.16L136.052 101.985L136.044 102.005L136.038 102.025L136.52 102.16ZM124.751 120.978L125.097 121.339L125.097 121.339L124.751 120.978ZM114.432 131.982C119.265 132.552 127.214 132.495 135.415 130.48C143.615 128.464 152.117 124.478 157.983 117.149L157.202 116.524C151.522 123.622 143.252 127.524 135.176 129.509C127.102 131.493 119.274 131.547 114.55 130.989L114.432 131.982ZM157.613 117.336C161.087 117.192 171.304 115.995 181.232 114.416C186.201 113.626 191.109 112.738 195.077 111.835C197.061 111.383 198.817 110.927 200.231 110.475C201.63 110.027 202.745 109.57 203.408 109.099L202.829 108.284C202.303 108.657 201.319 109.077 199.927 109.522C198.55 109.962 196.825 110.412 194.856 110.86C190.918 111.756 186.033 112.64 181.075 113.428C171.151 115.007 160.983 116.196 157.572 116.337L157.613 117.336ZM203.408 109.099C204.656 108.214 205.413 107.243 205.715 106.245C206.021 105.236 205.841 104.258 205.329 103.421C204.323 101.777 202.056 100.681 199.569 100.63L199.548 101.63C201.808 101.676 203.7 102.674 204.476 103.943C204.855 104.562 204.973 105.246 204.758 105.955C204.54 106.677 203.96 107.482 202.829 108.284L203.408 109.099ZM199.569 100.63C198.912 100.617 198.055 100.756 197.07 100.969C196.076 101.183 194.908 101.483 193.618 101.809C191.031 102.464 187.922 103.235 184.587 103.695C177.905 104.617 170.416 104.277 164.47 99.3543L163.832 100.125C170.101 105.314 177.941 105.621 184.723 104.686C188.119 104.217 191.276 103.434 193.864 102.779C195.162 102.45 196.309 102.156 197.281 101.946C198.261 101.734 199.018 101.619 199.548 101.63L199.569 100.63ZM164.47 99.3543C154.815 91.3618 153.573 82.7941 154.095 79.6355L153.109 79.4723C152.52 83.0293 153.942 91.9375 163.832 100.125L164.47 99.3543ZM154.012 79.8397L154.537 79.0862L153.717 78.5147L153.192 79.2682L154.012 79.8397ZM154.426 79.2013C154.522 79.1293 154.624 79.0171 154.713 78.9125C154.812 78.7966 154.928 78.6492 155.058 78.4768C155.318 78.1313 155.643 77.6706 156.006 77.1295C156.731 76.0469 157.615 74.6292 158.443 73.1429C159.269 71.6594 160.047 70.0932 160.552 68.7171C160.804 68.0296 160.994 67.3748 161.084 66.7926C161.172 66.2213 161.174 65.6623 160.992 65.2027L160.062 65.5706C160.148 65.7866 160.173 66.1363 160.095 66.6399C160.019 67.1327 159.853 67.7193 159.613 68.3727C159.134 69.6787 158.384 71.1934 157.569 72.6563C156.756 74.1165 155.886 75.5109 155.175 76.573C154.819 77.1042 154.505 77.549 154.259 77.8755C154.136 78.039 154.033 78.1692 153.952 78.2642C153.861 78.3706 153.824 78.4025 153.828 78.3996L154.426 79.2013ZM160.992 65.2027C159.917 62.4865 158.019 59.0051 155.752 55.7244C153.487 52.4478 150.827 49.3324 148.216 47.3771L147.617 48.1775C150.104 50.04 152.692 53.056 154.929 56.293C157.163 59.5259 159.021 62.9402 160.062 65.5706L160.992 65.2027ZM148.216 47.3771C144.126 44.3138 137.13 39.5659 134.146 37.577L133.591 38.409C136.574 40.3977 143.551 45.1322 147.617 48.1775L148.216 47.3771ZM133.458 37.7072C132.087 39.6761 130.754 41.6051 129.992 43.5524C129.222 45.5235 129.023 47.5487 129.948 49.6894L130.866 49.2925C130.071 47.4528 130.223 45.7092 130.924 43.9165C131.634 42.1001 132.892 40.2704 134.279 38.2788L133.458 37.7072ZM129.948 49.6894C131.021 52.1705 133.221 57.437 135.216 63.4255C137.214 69.4244 138.992 76.1046 139.244 81.4265L140.243 81.3792C139.984 75.9138 138.169 69.1258 136.165 63.1095C134.157 57.0828 131.945 51.787 130.866 49.2925L129.948 49.6894ZM139.244 81.4265C139.648 89.9685 137.281 98.7031 136.052 101.985L136.988 102.336C138.248 98.9708 140.656 90.0969 140.243 81.3792L139.244 81.4265ZM136.038 102.025C135.095 105.388 131.433 113.87 124.405 120.618L125.097 121.339C132.278 114.445 136.019 105.794 137.001 102.296L136.038 102.025ZM124.405 120.618C120.849 124.031 118.394 126.498 116.768 128.196C115.154 129.883 114.337 130.832 114.081 131.2L114.901 131.771C115.105 131.478 115.866 130.585 117.491 128.888C119.104 127.203 121.549 124.746 125.097 121.339L124.405 120.618Z" fill="#EA8945"/>
<circle cx="96.3501" cy="34.1061" r="15.5833" transform="rotate(143.903 96.3501 34.1061)" fill="#88B54C"/>
<path d="M123.687 61.1664C133.556 76.7877 127.653 98.0233 123.468 106.688C122.994 106.038 121.013 102.502 116.884 93.5612C112.755 84.62 105.866 78.3254 102.937 76.2957C100.202 74.0345 92.6587 68.9047 84.3679 66.4749C74.0044 63.4376 56.5618 64.4755 51.1564 64.8855C46.8322 65.2135 44.2609 61.7615 41.4174 57.8617C44.271 55.6905 51.0326 50.6336 55.2505 47.7755C60.5229 44.2029 70.2668 41.8571 76.0111 41.6021C78.9147 41.4732 86.3211 51.1476 86.6019 52.0295L87.1428 52.7714C90.1355 54.3922 98.8298 55.9845 109.666 49.3875C123.211 41.1413 120.894 20.8278 122.535 16.3721C124.176 11.9163 129.208 9.87698 130.844 15.4745C132.481 21.0719 125.664 54.564 123.687 61.1664Z" fill="#88B54C"/>
<path d="M123.468 106.688L123.064 106.983L123.555 107.657L123.918 106.906L123.468 106.688ZM123.687 61.1664L123.208 61.023L123.142 61.241L123.264 61.4335L123.687 61.1664ZM130.844 15.4745L130.364 15.6148L130.844 15.4745ZM122.535 16.3721L123.004 16.5448L123.004 16.5448L122.535 16.3721ZM109.666 49.3875L109.926 49.8146L109.666 49.3875ZM87.1428 52.7714L86.7388 53.066L86.8054 53.1572L86.9047 53.211L87.1428 52.7714ZM86.6019 52.0295L86.1255 52.1811L86.1501 52.2585L86.1979 52.324L86.6019 52.0295ZM76.0111 41.6021L76.0332 42.1016L76.0111 41.6021ZM55.2505 47.7755L54.97 47.3616L55.2505 47.7755ZM41.4174 57.8617L41.1147 57.4638C40.8981 57.6286 40.8531 57.9364 41.0134 58.1563L41.4174 57.8617ZM51.1564 64.8855L51.1186 64.3869L51.1564 64.8855ZM84.3679 66.4749L84.2272 66.9547L84.3679 66.4749ZM102.937 76.2957L102.619 76.6811L102.635 76.6946L102.652 76.7067L102.937 76.2957ZM116.884 93.5612L117.338 93.3516L117.338 93.3516L116.884 93.5612ZM123.918 106.906C126.034 102.524 128.574 94.9912 129.345 86.5817C130.117 78.173 129.123 68.8356 124.109 60.8994L123.264 61.4335C128.119 69.1185 129.109 78.2096 128.35 86.4904C127.59 94.7702 125.086 102.188 123.018 106.471L123.918 106.906ZM124.166 61.3098C125.163 57.9789 127.366 47.9309 129.113 38.0305C129.987 33.0764 130.75 28.1467 131.191 24.101C131.412 22.0787 131.553 20.2698 131.588 18.7855C131.621 17.3178 131.552 16.1143 131.324 15.3341L130.364 15.6148C130.545 16.234 130.621 17.3016 130.588 18.7626C130.555 20.2071 130.416 21.9847 130.197 23.9925C129.759 28.0072 129.001 32.9128 128.128 37.8567C126.382 47.7523 124.187 57.7516 123.208 61.023L124.166 61.3098ZM131.324 15.3341C130.895 13.8656 130.224 12.8326 129.379 12.2216C128.525 11.6033 127.542 11.454 126.584 11.665C124.701 12.0794 122.926 13.8642 122.066 16.1993L123.004 16.5448C123.785 14.4241 125.346 12.9614 126.799 12.6416C127.508 12.4855 128.193 12.5974 128.793 13.0318C129.404 13.4734 129.975 14.2846 130.364 15.6148L131.324 15.3341ZM122.066 16.1993C121.839 16.8158 121.691 17.6715 121.57 18.672C121.449 19.681 121.351 20.8833 121.239 22.2087C121.013 24.8685 120.728 28.0583 120.074 31.3613C118.765 37.9776 115.999 44.9463 109.406 48.9604L109.926 49.8146C116.877 45.5824 119.726 38.2713 121.055 31.5554C121.72 28.1923 122.01 24.9529 122.235 22.293C122.348 20.9586 122.444 19.7784 122.563 18.7915C122.683 17.7961 122.821 17.0423 123.004 16.5448L122.066 16.1993ZM109.406 48.9604C98.7001 55.4781 90.1961 53.8564 87.381 52.3317L86.9047 53.211C90.0749 54.928 98.9595 56.4909 109.926 49.8146L109.406 48.9604ZM87.5469 52.4768L87.0059 51.7349L86.1979 52.324L86.7388 53.066L87.5469 52.4768ZM87.0783 51.8778C87.0418 51.7629 86.969 51.6298 86.8992 51.5115C86.8219 51.3805 86.7205 51.2224 86.5999 51.0434C86.3582 50.6849 86.0288 50.2274 85.6356 49.7082C84.8489 48.6694 83.7974 47.3707 82.6626 46.1032C81.5299 44.8381 80.3033 43.5917 79.1673 42.6655C78.5998 42.2027 78.0427 41.8099 77.5217 41.5348C77.0105 41.2649 76.4827 41.0807 75.9889 41.1026L76.0332 42.1016C76.2653 42.0913 76.6042 42.1812 77.0549 42.4191C77.4958 42.6519 77.996 43.0007 78.5354 43.4405C79.6136 44.3196 80.8006 45.5227 81.9176 46.7703C83.0324 48.0155 84.0666 49.2928 84.8384 50.3119C85.2244 50.8216 85.5423 51.2636 85.7707 51.6024C85.8852 51.7722 85.9745 51.9122 86.038 52.0197C86.1089 52.1399 86.1269 52.1858 86.1255 52.1811L87.0783 51.8778ZM75.9889 41.1026C73.0707 41.2321 69.1604 41.8904 65.3193 42.9631C61.4831 44.0345 57.6703 45.5319 54.97 47.3616L55.531 48.1894C58.1031 46.4465 61.7985 44.9847 65.5883 43.9263C69.3734 42.8692 73.2072 42.227 76.0332 42.1016L75.9889 41.1026ZM54.97 47.3616C50.7397 50.2281 43.9685 55.2924 41.1147 57.4638L41.7202 58.2596C44.5735 56.0886 51.3255 51.0391 55.531 48.1894L54.97 47.3616ZM41.0134 58.1563C42.427 60.095 43.8153 61.9848 45.4076 63.3398C47.0193 64.7113 48.8686 65.5605 51.1943 65.3841L51.1186 64.3869C49.12 64.5385 47.5216 63.8257 46.0557 62.5782C44.5704 61.3143 43.2513 59.5282 41.8214 57.5671L41.0134 58.1563ZM51.1943 65.3841C53.8896 65.1796 59.5858 64.8187 65.8974 64.8874C72.22 64.9563 79.1144 65.4563 84.2272 66.9547L84.5085 65.9951C79.2578 64.4562 72.2492 63.9565 65.9083 63.8875C59.5564 63.8183 53.8286 64.1814 51.1186 64.3869L51.1943 65.3841ZM84.2272 66.9547C92.4336 69.3597 99.9175 74.4481 102.619 76.6811L103.256 75.9103C100.486 73.6209 92.8837 68.4496 84.5085 65.9951L84.2272 66.9547ZM102.652 76.7067C105.523 78.696 112.346 84.9259 116.43 93.7708L117.338 93.3516C113.165 84.3142 106.209 77.9548 103.222 75.8848L102.652 76.7067ZM116.43 93.7708C118.497 98.2458 120.027 101.372 121.102 103.462C122.169 105.539 122.8 106.621 123.064 106.983L123.872 106.394C123.662 106.106 123.065 105.095 121.991 103.005C120.925 100.93 119.401 97.8177 117.338 93.3516L116.43 93.7708Z" fill="#88B54C"/>
<circle cx="24.6874" cy="92.7655" r="15.5833" transform="rotate(72.1621 24.6874 92.7655)" fill="#5D4B87"/>
<path d="M58.9502 75.2839C76.877 70.8063 95.1939 83.0654 102.112 89.7546C101.345 90.0011 97.3671 90.7741 87.5825 91.8938C77.7978 93.0135 69.6615 97.5838 66.8164 99.729C63.8121 101.618 56.5771 107.174 51.672 114.286C45.5407 123.176 41.0612 140.066 39.757 145.327C38.7136 149.537 34.6297 150.897 30.0354 152.375C28.8676 148.985 26.1839 140.98 24.7912 136.079C23.0504 129.952 23.8757 119.964 25.4333 114.429C26.2207 111.631 37.7285 107.629 38.6539 107.639L39.528 107.357C42.0048 105.023 46.241 97.2657 43.3713 84.9084C39.7841 69.4619 19.7678 65.2968 16.0504 62.3428C12.333 59.3888 11.973 53.9711 17.8014 54.1706C23.6299 54.3702 53.2996 71.338 58.9502 75.2839Z" fill="#5D4B87"/>
<path d="M102.112 89.7546L102.265 90.2306L103.059 89.975L102.459 89.3952L102.112 89.7546ZM58.9502 75.2839L58.6639 75.6938L58.8505 75.8241L59.0713 75.769L58.9502 75.2839ZM17.8014 54.1706L17.7843 54.6704L17.8014 54.1706ZM16.0504 62.3428L16.3615 61.9513L16.3615 61.9513L16.0504 62.3428ZM43.3713 84.9084L43.8583 84.7953L43.3713 84.9084ZM39.528 107.357L39.6811 107.833L39.7887 107.799L39.8709 107.721L39.528 107.357ZM38.6539 107.639L38.6487 108.139L38.7298 108.14L38.8071 108.115L38.6539 107.639ZM25.4333 114.429L25.9146 114.565L25.4333 114.429ZM24.7912 136.079L24.3103 136.215L24.7912 136.079ZM30.0354 152.375L29.5627 152.538C29.6513 152.796 29.9295 152.935 30.1886 152.851L30.0354 152.375ZM39.757 145.327L39.2716 145.207L39.757 145.327ZM51.672 114.286L52.0836 114.57L51.672 114.286ZM66.8164 99.729L67.0826 100.152L67.1005 100.141L67.1175 100.128L66.8164 99.729ZM87.5825 91.8938L87.5256 91.397L87.5256 91.397L87.5825 91.8938ZM102.459 89.3952C98.9612 86.0127 92.6032 81.2403 84.8587 77.8732C77.115 74.5063 67.9366 72.524 58.829 74.7988L59.0713 75.769C67.8906 73.5662 76.8341 75.4746 84.46 78.7902C92.085 82.1055 98.3443 86.8073 101.764 90.114L102.459 89.3952ZM59.2364 74.8739C56.3857 72.8832 47.5337 67.6433 38.6793 62.882C34.2486 60.4995 29.8061 58.2308 26.1024 56.5439C24.2511 55.7006 22.5776 54.9996 21.1787 54.5022C19.7954 54.0103 18.6309 53.6988 17.8185 53.6709L17.7843 54.6704C18.4291 54.6924 19.4667 54.9548 20.8437 55.4444C22.205 55.9285 23.8498 56.6167 25.6879 57.4539C29.3632 59.1279 33.7841 61.3851 38.2057 63.7627C47.0559 68.5217 55.8641 73.7386 58.6639 75.6938L59.2364 74.8739ZM17.8185 53.6709C16.2894 53.6186 15.0983 53.932 14.2533 54.5427C13.3984 55.1606 12.9488 56.0468 12.8488 57.0232C12.6526 58.9408 13.7912 61.1862 15.7393 62.7342L16.3615 61.9513C14.5922 60.5454 13.6922 58.605 13.8436 57.1251C13.9176 56.4028 14.2384 55.7873 14.8391 55.3532C15.4497 54.9118 16.3992 54.6229 17.7843 54.6704L17.8185 53.6709ZM15.7393 62.7342C16.2536 63.1429 17.0198 63.5518 17.9322 63.9797C18.8524 64.4112 19.9635 64.8808 21.1869 65.4026C23.6423 66.4499 26.5819 67.7207 29.5138 69.3763C35.3868 72.6927 41.1381 77.5025 42.8842 85.0216L43.8583 84.7953C42.0173 76.8678 35.9669 71.8718 30.0055 68.5055C27.0203 66.8198 24.0346 65.53 21.5793 64.4828C20.3474 63.9574 19.2568 63.4963 18.3568 63.0743C17.449 62.6486 16.7765 62.2811 16.3615 61.9513L15.7393 62.7342ZM42.8842 85.0216C45.7195 97.2302 41.515 104.798 39.1851 106.994L39.8709 107.721C42.4947 105.249 46.7626 97.3012 43.8583 84.7953L42.8842 85.0216ZM39.3748 106.881L38.5008 107.163L38.8071 108.115L39.6811 107.833L39.3748 106.881ZM38.6591 107.139C38.5386 107.137 38.3894 107.165 38.2552 107.194C38.1065 107.226 37.9246 107.273 37.7169 107.332C37.3007 107.449 36.763 107.618 36.1468 107.829C34.9138 108.251 33.3511 108.842 31.7919 109.523C30.2355 110.202 28.6676 110.976 27.4321 111.765C26.8147 112.159 26.2672 112.565 25.8427 112.973C25.4262 113.374 25.0859 113.818 24.952 114.294L25.9146 114.565C25.9775 114.341 26.1691 114.047 26.5362 113.694C26.8955 113.348 27.3833 112.982 27.9701 112.608C29.1427 111.859 30.6571 111.109 32.1919 110.439C33.7237 109.771 35.2607 109.189 36.4703 108.775C37.0753 108.568 37.5947 108.405 37.988 108.294C38.185 108.239 38.346 108.198 38.468 108.171C38.6044 108.141 38.6536 108.139 38.6487 108.139L38.6591 107.139ZM24.952 114.294C24.1607 117.106 23.5606 121.025 23.3759 125.009C23.1913 128.988 23.4187 133.078 24.3103 136.215L25.2722 135.942C24.4229 132.953 24.1925 128.986 24.3748 125.055C24.5569 121.13 25.1483 117.288 25.9146 114.565L24.952 114.294ZM24.3103 136.215C25.7071 141.131 28.3948 149.148 29.5627 152.538L30.5082 152.213C29.3405 148.823 26.6608 140.829 25.2722 135.942L24.3103 136.215ZM30.1886 152.851C32.4726 152.116 34.7022 151.39 36.4879 150.303C38.2953 149.202 39.6811 147.712 40.2423 145.448L39.2716 145.207C38.7894 147.153 37.6116 148.447 35.9677 149.448C34.302 150.463 32.1926 151.156 29.8823 151.899L30.1886 152.851ZM40.2423 145.448C40.8926 142.824 42.3346 137.302 44.3774 131.329C46.4237 125.347 49.0587 118.956 52.0836 114.57L51.2604 114.002C48.154 118.506 45.4835 125.006 43.4312 131.006C41.3754 137.016 39.9255 142.569 39.2716 145.207L40.2423 145.448ZM52.0836 114.57C56.9388 107.53 64.1158 102.018 67.0826 100.152L66.5503 99.3057C63.5084 101.218 56.2155 106.818 51.2604 114.002L52.0836 114.57ZM67.1175 100.128C69.906 98.0257 77.9599 93.4982 87.6393 92.3906L87.5256 91.397C77.6357 92.5288 69.417 97.1419 66.5154 99.3298L67.1175 100.128ZM87.6393 92.3906C92.5365 91.8301 95.9845 91.3561 98.3067 90.9907C100.613 90.6278 101.838 90.3678 102.265 90.2306L101.958 89.2786C101.619 89.3879 100.472 89.6377 98.1513 90.0028C95.8466 90.3655 92.4131 90.8377 87.5256 91.397L87.6393 92.3906Z" fill="#5D4B87"/>
</svg>
