<svg xmlns="http://www.w3.org/2000/svg" xmlns:xlink="http://www.w3.org/1999/xlink" viewBox="0 0 193.6 158.25"><defs><style>.cls-1{fill:none;}.cls-2{clip-path:url(#clip-path);}.cls-3{fill:url(#linear-gradient);}.cls-4{clip-path:url(#clip-path-2);}.cls-5{fill:url(#linear-gradient-2);}.cls-6{clip-path:url(#clip-path-3);}.cls-7{fill:url(#linear-gradient-3);}.cls-8{clip-path:url(#clip-path-4);}.cls-9{fill:url(#linear-gradient-4);}.cls-10{fill:#0033a1;}.cls-11{fill:#00a0df;}</style><clipPath id="clip-path" transform="translate(0 0.9)"><path class="cls-1" d="M87.14,0a2.51,2.51,0,0,0-2.43,2.45V19.26A6.68,6.68,0,0,1,78,25.94H60.83a2.58,2.58,0,0,0-2.44,2.37v5.11a2.66,2.66,0,0,0,2.44,2.46H79A15.3,15.3,0,0,0,94.27,20.59V2.45A2.64,2.64,0,0,0,91.83,0Z"/></clipPath><linearGradient id="linear-gradient" x1="-298.31" y1="385.53" x2="-297.31" y2="385.53" gradientTransform="matrix(-174.63, 0, 0, 174.63, -51943.05, -67304.48)" gradientUnits="userSpaceOnUse"><stop offset="0" stop-color="#1a469b"/><stop offset="0.23" stop-color="#1a469b"/><stop offset="0.23" stop-color="#1b3e8c"/><stop offset="0.25" stop-color="#1d2f70"/><stop offset="0.26" stop-color="#1e255e"/><stop offset="0.27" stop-color="#1e2258"/><stop offset="0.3" stop-color="#2a3a70"/><stop offset="0.37" stop-color="#41689e"/><stop offset="0.43" stop-color="#5189bf"/><stop offset="0.48" stop-color="#5b9ed4"/><stop offset="0.52" stop-color="#5fa5db"/><stop offset="0.55" stop-color="#589bd4"/><stop offset="0.61" stop-color="#4581c3"/><stop offset="0.69" stop-color="#2657a6"/><stop offset="0.71" stop-color="#1a469b"/><stop offset="0.76" stop-color="#1e2258"/><stop offset="1" stop-color="#1e2258"/></linearGradient><clipPath id="clip-path-2" transform="translate(0 0.9)"><path class="cls-1" d="M60.83,40.27h0a2.57,2.57,0,0,0-2.44,2.36V48a2.73,2.73,0,0,0,2.44,2.35H78A6.69,6.69,0,0,1,84.71,57V73.7a2.53,2.53,0,0,0,2.4,2.43h4.78a2.61,2.61,0,0,0,2.38-2.43V55.55A15.29,15.29,0,0,0,79,40.27Z"/></clipPath><linearGradient id="linear-gradient-2" x1="-298.31" y1="385.53" x2="-297.31" y2="385.53" gradientTransform="matrix(-174.63, 0, 0, 174.63, -51902.83, -67264.36)" xlink:href="#linear-gradient"/><clipPath id="clip-path-3" transform="translate(0 0.9)"><path class="cls-1" d="M101.31,0a2.63,2.63,0,0,0-2.43,2.45V20.59a15.29,15.29,0,0,0,15.28,15.29h18.15a2.66,2.66,0,0,0,2.44-2.46V28.31a2.58,2.58,0,0,0-2.44-2.37h-17.2a6.68,6.68,0,0,1-6.68-6.68V2.45A2.51,2.51,0,0,0,106,0Z"/></clipPath><linearGradient id="linear-gradient-3" x1="-298.3" y1="385.45" x2="-297.3" y2="385.45" gradientTransform="matrix(0, 174.63, -174.63, 0, 67426.29, 52046.69)" xlink:href="#linear-gradient"/><clipPath id="clip-path-4" transform="translate(0 0.9)"><path class="cls-1" d="M132.31,40.27H114.16A15.28,15.28,0,0,0,98.88,55.55V73.7a2.6,2.6,0,0,0,2.37,2.43H106a2.53,2.53,0,0,0,2.4-2.43V57a6.69,6.69,0,0,1,6.68-6.69h17.2A2.73,2.73,0,0,0,134.75,48V42.63a2.57,2.57,0,0,0-2.44-2.36h0"/></clipPath><linearGradient id="linear-gradient-4" x1="-298.3" y1="385.45" x2="-297.3" y2="385.45" gradientTransform="translate(67426.44 52046.73) rotate(90) scale(174.63)" xlink:href="#linear-gradient"/></defs><g id="Layer_2" data-name="Layer 2"><g id="Layer_1-2" data-name="Layer 1"><g class="cls-2"><rect class="cls-3" x="57.94" y="-0.44" width="36.77" height="36.77" transform="translate(56.48 94.69) rotate(-88.56)"/></g><g class="cls-4"><rect class="cls-5" x="57.95" y="39.82" width="36.75" height="36.77" transform="translate(16.23 133.95) rotate(-88.56)"/></g><g class="cls-6"><rect class="cls-7" x="98.43" y="-0.44" width="36.76" height="36.77" transform="translate(-0.41 3.84) rotate(-1.44)"/></g><g class="cls-8"><rect class="cls-9" x="98.43" y="39.83" width="36.76" height="36.75" transform="translate(-1.42 3.85) rotate(-1.44)"/></g><path class="cls-10" d="M5.26,89.44H.58A.58.58,0,0,1,0,88.85v-2.5a.57.57,0,0,1,.58-.58H14a.58.58,0,0,1,.58.58v2.5a.59.59,0,0,1-.58.59H9.27v17.15a.6.6,0,0,1-.59.58H5.84a.6.6,0,0,1-.58-.58Z" transform="translate(0 0.9)"/><path class="cls-10" d="M13.05,106.38,22.56,85.8a.54.54,0,0,1,.52-.34h.3a.51.51,0,0,1,.52.34l9.42,20.58a.54.54,0,0,1-.52.79H30.14a.86.86,0,0,1-.88-.61l-1.5-3.3H18.61l-1.49,3.3a.93.93,0,0,1-.89.61H13.57a.54.54,0,0,1-.52-.79m13.21-6.52L23.2,93.14h-.09l-3,6.72Z" transform="translate(0 0.9)"/><path class="cls-10" d="M35.71,86.35a.57.57,0,0,1,.58-.58H39.1a.59.59,0,0,1,.58.58V103.5h7.8a.58.58,0,0,1,.58.58v2.51a.57.57,0,0,1-.58.58H36.29a.57.57,0,0,1-.58-.58Z" transform="translate(0 0.9)"/><path class="cls-10" d="M50.84,86.35a.58.58,0,0,1,.58-.58h2.82a.6.6,0,0,1,.58.58V103.5h7.79a.59.59,0,0,1,.59.58v2.51a.58.58,0,0,1-.59.58H51.42a.58.58,0,0,1-.58-.58Z" transform="translate(0 0.9)"/><path class="cls-10" d="M64.35,106.38,73.87,85.8a.54.54,0,0,1,.52-.34h.3a.51.51,0,0,1,.52.34l9.42,20.58a.54.54,0,0,1-.52.79H81.45a.88.88,0,0,1-.89-.61l-1.5-3.3H69.92l-1.5,3.3a.91.91,0,0,1-.88.61H64.88a.54.54,0,0,1-.53-.79m13.22-6.52-3.06-6.72h-.09l-3,6.72Z" transform="translate(0 0.9)"/><path class="cls-10" d="M87,86.35a.6.6,0,0,1,.58-.58h2.85a.58.58,0,0,1,.58.58v8.1h10v-8.1a.57.57,0,0,1,.58-.58h2.81a.59.59,0,0,1,.58.58v20.24a.59.59,0,0,1-.58.58h-2.81a.57.57,0,0,1-.58-.58V98.15H91v8.44a.58.58,0,0,1-.58.58H87.59a.6.6,0,0,1-.58-.58Z" transform="translate(0 0.9)"/><path class="cls-10" d="M107.32,106.38l9.51-20.58a.54.54,0,0,1,.52-.34h.3a.51.51,0,0,1,.52.34l9.42,20.58a.54.54,0,0,1-.52.79h-2.66a.88.88,0,0,1-.89-.61l-1.5-3.3h-9.14l-1.5,3.3a.91.91,0,0,1-.88.61h-2.67a.53.53,0,0,1-.51-.79m13.21-6.52-3.06-6.72h-.09l-3,6.72Z" transform="translate(0 0.9)"/><path class="cls-10" d="M129.09,105.09c-.31-.24-.43-.43-.16-.91l1.1-1.9a.7.7,0,0,1,1-.21,7.44,7.44,0,0,0,4.62,1.89,2.55,2.55,0,0,0,2.78-2.35c0-1.56-1.31-2.63-3.88-3.67-2.88-1.16-5.75-3-5.75-6.61,0-2.72,2-5.87,6.88-5.87a10.76,10.76,0,0,1,6.12,2.05.77.77,0,0,1,.18,1l-1.16,1.74a.81.81,0,0,1-1.07.37A7.87,7.87,0,0,0,135.54,89c-1.75,0-2.69,1-2.69,2.14,0,1.43,1.13,2.41,3.61,3.42,3,1.2,6.39,3,6.39,6.91,0,3.15-2.73,6.06-7,6.06a9.52,9.52,0,0,1-6.72-2.39" transform="translate(0 0.9)"/><path class="cls-10" d="M145.44,105.09c-.3-.24-.42-.43-.15-.91l1.1-1.9a.7.7,0,0,1,1-.21,7.42,7.42,0,0,0,4.62,1.89,2.55,2.55,0,0,0,2.78-2.35c0-1.56-1.31-2.63-3.88-3.67-2.88-1.16-5.75-3-5.75-6.61,0-2.72,2-5.87,6.88-5.87a10.8,10.8,0,0,1,6.12,2.05.77.77,0,0,1,.18,1l-1.16,1.74a.81.81,0,0,1-1.07.37A7.87,7.87,0,0,0,151.9,89c-1.75,0-2.7,1-2.7,2.14,0,1.43,1.14,2.41,3.61,3.42,3,1.2,6.39,3,6.39,6.91,0,3.15-2.72,6.06-7,6.06a9.58,9.58,0,0,1-6.73-2.39" transform="translate(0 0.9)"/><path class="cls-10" d="M162.69,86.35a.57.57,0,0,1,.58-.58h12.45a.58.58,0,0,1,.58.58v2.5a.59.59,0,0,1-.58.59h-9.06v5h7.56a.61.61,0,0,1,.58.58v2.54a.58.58,0,0,1-.58.58h-7.56v5.35h9.06a.59.59,0,0,1,.58.58v2.51a.58.58,0,0,1-.58.58H163.27a.57.57,0,0,1-.58-.58Z" transform="translate(0 0.9)"/><path class="cls-10" d="M180,86.35a.58.58,0,0,1,.59-.58H193a.57.57,0,0,1,.58.58v2.5a.58.58,0,0,1-.58.59H184v5h7.55a.6.6,0,0,1,.58.58v2.54a.57.57,0,0,1-.58.58H184v5.35H193a.58.58,0,0,1,.58.58v2.51a.57.57,0,0,1-.58.58H180.58a.58.58,0,0,1-.59-.58Z" transform="translate(0 0.9)"/><path class="cls-10" d="M46.7,117.26a.57.57,0,0,1,.58-.58H59.73a.58.58,0,0,1,.58.58v2.51a.59.59,0,0,1-.58.58H50.67v5h7.56a.61.61,0,0,1,.58.58v2.54a.58.58,0,0,1-.58.58H50.67v5.35h9.06a.59.59,0,0,1,.58.58v2.51a.58.58,0,0,1-.58.58H47.28a.57.57,0,0,1-.58-.58Z" transform="translate(0 0.9)"/><path class="cls-10" d="M98.66,116.37a11,11,0,1,1-11,11,11,11,0,0,1,11-11m0,18a7,7,0,1,0-7-7,7,7,0,0,0,7,7" transform="translate(0 0.9)"/><path class="cls-10" d="M112.63,117.26a.57.57,0,0,1,.58-.58H122a6.61,6.61,0,0,1,6.66,6.57,6.75,6.75,0,0,1-4.52,6.18l4.19,7.77a.58.58,0,0,1-.52.88h-3.21a.52.52,0,0,1-.49-.27L120,129.7h-3.39v7.8a.6.6,0,0,1-.59.58h-2.81a.57.57,0,0,1-.58-.58Zm9,9.17a3.12,3.12,0,0,0,3-3.12,3,3,0,0,0-3-3h-5v6.08Z" transform="translate(0 0.9)"/><rect class="cls-10" x="132.5" y="117.58" width="4.01" height="21.41" rx="0.58"/><path class="cls-10" d="M138.86,137.29l9.51-20.58a.56.56,0,0,1,.52-.34h.31a.52.52,0,0,1,.52.34l9.42,20.58a.54.54,0,0,1-.52.79H156a.87.87,0,0,1-.89-.61l-1.5-3.3h-9.14l-1.5,3.3a.92.92,0,0,1-.89.61h-2.66a.54.54,0,0,1-.52-.79m13.21-6.52L149,124.05h-.09l-3,6.72Z" transform="translate(0 0.9)"/><path class="cls-10" d="M161.52,117.26a.58.58,0,0,1,.58-.58h2.81a.6.6,0,0,1,.59.58v17.15h7.79a.58.58,0,0,1,.58.58v2.51a.57.57,0,0,1-.58.58H162.1a.58.58,0,0,1-.58-.58Z" transform="translate(0 0.9)"/><path class="cls-11" d="M44.76,147.26A.28.28,0,0,1,45,147h1.36a.28.28,0,0,1,.28.28v3.87h4.76v-3.87a.28.28,0,0,1,.28-.28h1.34a.29.29,0,0,1,.28.28v9.66a.29.29,0,0,1-.28.28H51.71a.28.28,0,0,1-.28-.28v-4H46.67v4a.28.28,0,0,1-.28.28H45a.28.28,0,0,1-.27-.28Z" transform="translate(0 0.9)"/><path class="cls-11" d="M57.27,147.26a.28.28,0,0,1,.28-.28h5.94a.28.28,0,0,1,.28.28v1.2a.28.28,0,0,1-.28.27H59.17v2.4h3.6a.29.29,0,0,1,.28.28v1.21a.28.28,0,0,1-.28.28h-3.6v2.55h4.32a.28.28,0,0,1,.28.28v1.19a.28.28,0,0,1-.28.28H57.55a.28.28,0,0,1-.28-.28Z" transform="translate(0 0.9)"/><path class="cls-11" d="M65.93,156.82,70.47,147a.26.26,0,0,1,.25-.16h.14a.24.24,0,0,1,.25.16l4.5,9.82a.26.26,0,0,1-.25.38H74.09a.42.42,0,0,1-.42-.29L73,155.33H68.59l-.72,1.58a.43.43,0,0,1-.42.29H66.18a.26.26,0,0,1-.25-.38m6.31-3.11-1.46-3.21h0l-1.43,3.21Z" transform="translate(0 0.9)"/><path class="cls-11" d="M78.35,147.26a.28.28,0,0,1,.28-.28H80a.28.28,0,0,1,.27.28v8.19H84a.27.27,0,0,1,.27.28v1.19a.27.27,0,0,1-.27.28H78.63a.28.28,0,0,1-.28-.28Z" transform="translate(0 0.9)"/><path class="cls-11" d="M88.27,148.73H86a.28.28,0,0,1-.28-.27v-1.2A.28.28,0,0,1,86,147h6.38a.27.27,0,0,1,.27.28v1.2a.27.27,0,0,1-.27.27H90.18v8.19a.29.29,0,0,1-.28.28H88.55a.29.29,0,0,1-.28-.28Z" transform="translate(0 0.9)"/><path class="cls-11" d="M95.77,147.26a.29.29,0,0,1,.28-.28h1.36a.28.28,0,0,1,.28.28v3.87h4.76v-3.87a.27.27,0,0,1,.27-.28h1.35a.28.28,0,0,1,.27.28v9.66a.28.28,0,0,1-.27.28h-1.35a.27.27,0,0,1-.27-.28v-4H97.69v4a.28.28,0,0,1-.28.28H96.05a.29.29,0,0,1-.28-.28Z" transform="translate(0 0.9)"/><path class="cls-11" d="M113,146.84a4.93,4.93,0,0,1,3.53,1.35.28.28,0,0,1,0,.41l-.89.92a.24.24,0,0,1-.37,0,3.45,3.45,0,0,0-2.25-.86,3.39,3.39,0,0,0,0,6.78,3.49,3.49,0,0,0,2.23-.84.29.29,0,0,1,.37,0l.9.94a.27.27,0,0,1,0,.39,5,5,0,0,1-3.55,1.42,5.26,5.26,0,1,1,0-10.51" transform="translate(0 0.9)"/><path class="cls-11" d="M118.58,156.82l4.54-9.82a.26.26,0,0,1,.25-.16h.15a.24.24,0,0,1,.24.16l4.5,9.82a.26.26,0,0,1-.25.38h-1.27a.42.42,0,0,1-.42-.29l-.72-1.58h-4.36l-.72,1.58a.43.43,0,0,1-.42.29h-1.27a.26.26,0,0,1-.25-.38m6.31-3.11-1.46-3.21h-.05L122,153.71Z" transform="translate(0 0.9)"/><path class="cls-11" d="M131,147.26a.27.27,0,0,1,.27-.28h4.18a3.16,3.16,0,0,1,3.18,3.14,3.22,3.22,0,0,1-2.16,2.95l2,3.71a.27.27,0,0,1-.25.42H136.7a.24.24,0,0,1-.23-.13l-1.95-3.87H132.9v3.72a.28.28,0,0,1-.27.28h-1.35a.27.27,0,0,1-.27-.28Zm4.29,4.38a1.48,1.48,0,0,0,1.44-1.49,1.46,1.46,0,0,0-1.44-1.42h-2.38v2.91Z" transform="translate(0 0.9)"/><path class="cls-11" d="M142.1,147.26a.28.28,0,0,1,.28-.28h5.94a.28.28,0,0,1,.28.28v1.2a.28.28,0,0,1-.28.27H144v2.4h3.61a.28.28,0,0,1,.27.28v1.21a.28.28,0,0,1-.27.28H144v2.55h4.32a.28.28,0,0,1,.28.28v1.19a.28.28,0,0,1-.28.28h-5.94a.28.28,0,0,1-.28-.28Z" transform="translate(0 0.9)"/><path class="cls-10" d="M23.32,116.82a.52.52,0,0,1,.55-.46H26.2a.57.57,0,0,1,.52.31l4.89,11.38h.09l5.21-11.38a.53.53,0,0,1,.52-.31h2a.52.52,0,0,1,.55.46l3.61,20.56a.53.53,0,0,1-.55.7H40.27a.65.65,0,0,1-.58-.46L37.27,124.5h-.09L32.44,135a.52.52,0,0,1-.52.34h-.55a.54.54,0,0,1-.52-.34l-4.8-10.49H26l-2.38,13.12a.59.59,0,0,1-.55.46H20.26a.56.56,0,0,1-.58-.7Z" transform="translate(0 0.9)"/><path class="cls-10" d="M66.77,116.82a.53.53,0,0,1,.56-.46h2.32a.57.57,0,0,1,.52.31l4.89,11.38h.1l5.2-11.38a.53.53,0,0,1,.52-.31h2a.52.52,0,0,1,.55.46l3.61,20.56a.54.54,0,0,1-.56.7H83.72a.66.66,0,0,1-.58-.46L80.72,124.5h-.09L75.89,135a.51.51,0,0,1-.52.34h-.55a.54.54,0,0,1-.52-.34L69.5,124.5h-.09L67,137.62a.59.59,0,0,1-.55.46H63.72a.56.56,0,0,1-.59-.7Z" transform="translate(0 0.9)"/></g></g></svg>