<svg xmlns="http://www.w3.org/2000/svg" viewBox="0 0 447.9 105.7"><g fill="#0099c9" class="logotype"><path d="M22.3 84.3c-1.5 1-3.2 1.6-4.8 1.6-3.4 0-4.8-1.7-4.8-5.9V56.8h6.7v-5.2h-6.7V40h-6v11.5H0v5.2h6.8V80c0 7.4 3.5 11.2 10.4 11.2 2.7 0 5.6-.9 7.9-2.5l.8-.5-2.7-4.4-.9.5zm99.1-29c-3.5-3.1-7.2-4.6-11.2-4.6-9.8 0-16.1 7.7-16.1 19.7 0 13 6 20.8 16.1 20.8 4.2 0 8.1-1.6 11.6-4.9l.4 4h5.2V33.9h-6v21.4zm-10.6 30.6c-6.8 0-10.8-5.8-10.8-15.5 0-9 4.1-14.4 10.9-14.4 3.7 0 6.9 1.7 10.5 5.6v18.8c-3.3 3.6-6.8 5.5-10.6 5.5zm21.5-34.2h6v38.7h-6zm91-1.1c-5.8 0-10.2 2.9-13.2 5.6-1.9-3.7-5.5-5.6-10.4-5.6-4.1 0-8.3 1.6-11.9 4.7v-4.8h-6v39.8h6V61.6c3.2-3.7 7.1-5.6 11.2-5.6 4.6 0 6.7 2.4 6.7 7.9v26.4h6V64.1c0-.9-.1-1.8-.2-2.7 3.2-3.6 7-5.4 11-5.4 4.6 0 6.7 2.5 6.7 7.9v26.4h6V63.9c.1-8.6-4.2-13.3-11.9-13.3zm-143.8 0c-5.4 0-9.6 2.4-12.5 5v-4.1h-5.9v33.8h-3.6c-1.7-.1-2.6-1.2-2.6-3.2V62.4c0-7.5-4.8-11.7-13.2-11.7-4.2 0-9.4 1.3-13.8 3.6l-.9.4 2.6 5 .9-.5c2.9-1.5 7.1-3.2 11.1-3.2 4.7 0 7.2 2.2 7.2 6.3v5.6c-15.1.8-22.7 5.2-22.7 13.3 0 6 4.6 10 11.5 10 4.6 0 9-1.8 12.2-4.9 1.3 2.7 3.9 4 7.9 4H67V62c3.4-4 7.3-6 11.7-6 4.9 0 7.1 2.4 7.1 7.9v26.4h6V64c.2-8.8-4.1-13.4-12.3-13.4zm-30.6 22V81c-1.7 2.3-5.4 4.9-10.5 4.9-3.9 0-6.3-1.9-6.3-5 0-4.8 5.7-7.6 16.8-8.3zM162 84.8c-6.8-.3-10.9-.8-10.9-3.7 0-.9.5-1.8 1.5-2.5 2.1.8 4.3 1.2 6.5 1.2 9.1 0 16-6.3 16-14.5 0-3.2-1-6.1-3-8.6 1.3-1.7 3-4.8 3.6-9.8l.1-1-5.6-.7v1.1s0 3.5-1.8 7.1c-2.6-1.7-5.9-2.6-9.3-2.6-9 0-15.8 6.2-15.8 14.4a14 14 0 0 0 5.2 11 6.82 6.82 0 0 0-2.6 5.3c0 2.1.7 3.8 2.2 5.1-3.8 2-5.8 4.8-5.8 8.3 0 6.8 6.6 10.7 18.1 10.7 16.3 0 18.8-6.7 18.8-10.7 0-9.1-12.9-9.9-17.2-10.1zM159.2 56c5.8 0 10.1 4 10.1 9.3 0 5.4-4.3 9.5-10.1 9.5-5.7 0-9.9-4.1-9.9-9.5-.1-5.3 4.2-9.3 9.9-9.3zm-5.7 33.2c2 .5 4.5.8 7.6.9 8.5.4 12.3 2 12.3 5.2 0 4.7-8.2 5.4-13.1 5.4-7.7 0-12.1-2.1-12.1-5.7-.1-2.6 1.9-4.7 5.3-5.8zM254.2 34h6.2v22.8c3.3-3.4 7.8-6.2 13.1-6.2 8.8 0 12.2 5.4 12.2 13.4v26.3h-6.1V64c0-5-2-8.4-7.5-8.4-4.7 0-8.7 2.3-11.8 6.1v28.6h-6.2V34zM307 50.6c10.9 0 15.9 7.5 15.9 17.3 0 1-.2 2.5-.3 3.3h-27.9c.1 9.5 4.4 14.9 12.8 14.9 4.2 0 8.2-1.6 11.3-3.7l2.8 4.2c-4 2.8-9.1 4.6-14.4 4.6-11.8 0-18.7-7.8-18.7-20.8 0-12 7.9-19.8 18.5-19.8zM294.9 67h22c.1-6.4-2.6-11.7-9.8-11.7-6.2.1-11 4.5-12.2 11.7zm52.7 1.1v-5.7c0-3.9-2.2-6.6-7.5-6.6-4 0-8.4 1.6-12.2 3.6l-2.4-4.9c4.2-2 9.7-3.8 14.8-3.8 9.6 0 13.6 5 13.6 11.9v19.3c0 2.7 1.5 4 3.9 4v4.6c-5.4 0-8-1.5-9.3-4.9-3 3.3-7.2 5.7-12.7 5.7-6.8 0-11.3-4-11.3-9.9-.2-9.7 11.2-12.7 23.1-13.3zM337 86.4c4.7 0 8.5-2.2 10.6-4.9v-9.4c-7.8.4-17.2 1.9-17.2 8.8 0 3.4 2.6 5.5 6.6 5.5zM361 34h6.2v56.4H361V34zm16.6 22.3h-6.8v-4.8h6.8V40.2h6.2v11.3h11.1v4.8h-11.1v23.6c0 4 1.4 6.2 5.1 6.2 2.1 0 4-.7 5.8-1.9l2.4 4c-2.3 1.6-5.6 2.9-8.8 2.9-7.3 0-10.6-3.8-10.6-11.2V56.3zM401 34h6.2v22.8c3.3-3.4 7.8-6.2 13.1-6.2 8.8 0 12.2 5.4 12.2 13.4v26.3h-6.1V64c0-5-2-8.4-7.5-8.4-4.7 0-8.7 2.3-11.8 6.1v28.6H401V34z"/></g><path d="M437.1 89.2c.4.3 1.1.5 1.9.5 1.1 0 1.6-.5 1.6-1.2 0-1.8-3.6-.7-3.6-3 0-.9.7-1.6 2-1.6.8 0 1.4.2 1.9.4l-.2.4c-.4-.2-1-.4-1.7-.4-.9 0-1.5.5-1.5 1.1 0 1.9 3.6.6 3.6 3 0 .9-.7 1.6-2.1 1.6-.9 0-1.7-.3-2.1-.6l.2-.2zm5.2-5h.6l2.3 3.3 2.3-3.3h.6v5.9h-.5v-5.3l-2.4 3.4-2.4-3.5V90h-.5v-5.8z" fill="#939598"/><path fill="#cbdb2a" d="M94.2 37.7l-11.4-1.6c.3-2.3.9-4.6 1.6-6.9l11 3.5c-.5 1.6-.9 3.3-1.2 5zM99.1 25c1-1.4 2-2.8 3.2-4l-8.4-7.9a46.1 46.1 0 0 0-4.4 5.5l9.6 6.4zm9.9-9.3c1.5-.9 3-1.6 4.6-2.2l-4.1-10.8c-2.2.8-4.3 1.9-6.4 3.1l5.9 9.9zm18-4.1l1-11.5c-1.2-.1-2.4-.2-3.5-.1-1.2 0-2.4 0-3.5.1l1 11.5c.8-.1 1.7-.1 2.5-.1s1.7.1 2.5.1zm12.9 4.1l5.9-9.9c-2-1.2-4.2-2.2-6.4-3.1l-4.1 10.7c1.6.7 3.2 1.5 4.6 2.3zm9.9 9.4l9.6-6.4c-1.3-2-2.8-3.8-4.4-5.5l-8.4 7.9c1.2 1.2 2.2 2.5 3.2 4zM166 36.2V36c-.3-2.3-.9-4.6-1.5-6.8l-11 3.5c.5 1.6.9 3.3 1.1 5l1.4-.2 10-1.3z"/></svg>