<svg id="Layer_1" data-name="Layer 1" xmlns="http://www.w3.org/2000/svg" xmlns:xlink="http://www.w3.org/1999/xlink" viewBox="0 0 121 125"><defs><style>.cls-1{fill:none;}.cls-2{clip-path:url(#clip-path);}.cls-3{fill:#f1efde;}.cls-4{fill:#3eb787;}.cls-5{fill:#e79cc4;}</style><clipPath id="clip-path" transform="translate(0 0)"><rect class="cls-1" width="121" height="125"/></clipPath></defs><title>tey-logo-1</title><g class="cls-2"><path class="cls-3" d="M111.22,31.64c-10.41,1.5-20.74,4.81-31.4,7.44C69.56,41.63,60,45,49.67,48.14,32.79,53.27,16.86,64.62.38,63.76a.39.39,0,0,0-.37.4.4.4,0,0,0,.36.41,46.73,46.73,0,0,0,20.48-3c9.7-3.84,18.95-8.4,28.63-11.76,10.29-3.59,20-7.15,30.28-9.61,7.21-1.7,14-4.33,21.16-6.15,3.52-.88,6.94-1.54,10.39-2.21a.1.1,0,0,0,0-.13.1.1,0,0,0-.14-.06" transform="translate(0 0)"/><path class="cls-3" d="M111.22,37c-10.41,1.49-20.74,4.81-31.4,7.44C69.56,47,60,50.32,49.67,53.48,32.79,58.61,16.86,70,.38,69.1a.39.39,0,0,0-.37.4.38.38,0,0,0,.36.4,46.58,46.58,0,0,0,20.48-3c9.7-3.84,18.95-8.4,28.63-11.77,10.29-3.58,20-7.14,30.28-9.61,7.21-1.69,14-4.32,21.16-6.14,3.52-.88,6.94-1.54,10.39-2.21a.1.1,0,0,0,0-.13.1.1,0,0,0-.14-.06" transform="translate(0 0)"/><path class="cls-3" d="M111.22,42.31c-10.41,1.5-20.74,4.82-31.4,7.45C69.56,52.31,60,55.66,49.67,58.81,32.79,63.94,16.86,75.3.38,74.44a.39.39,0,0,0-.37.4.38.38,0,0,0,.36.4,46.72,46.72,0,0,0,20.48-3c9.7-3.84,18.95-8.4,28.63-11.77,10.29-3.58,20-7.14,30.28-9.61,7.21-1.69,14-4.32,21.16-6.14,3.52-.88,6.94-1.54,10.39-2.21a.11.11,0,0,0,0-.14.12.12,0,0,0-.14-.06" transform="translate(0 0)"/><path class="cls-3" d="M111.22,47.65c-10.41,1.5-20.74,4.82-31.4,7.45C69.56,57.65,60,61,49.67,64.15,32.79,69.28,16.86,80.63.38,79.78a.4.4,0,0,0,0,.8,46.72,46.72,0,0,0,20.48-3c9.7-3.85,18.95-8.4,28.63-11.77,10.29-3.58,20-7.14,30.28-9.61,7.21-1.69,14-4.32,21.16-6.14,3.52-.89,6.94-1.54,10.39-2.21a.11.11,0,0,0-.09-.2" transform="translate(0 0)"/><path class="cls-3" d="M111.22,52.77c-10.41,1.5-20.74,4.81-31.4,7.44C69.56,62.76,60,66.12,49.67,69.27,32.79,74.4,16.86,85.75.38,84.9a.39.39,0,0,0-.37.39.4.4,0,0,0,.36.41,46.59,46.59,0,0,0,20.48-3c9.7-3.84,18.95-8.4,28.63-11.76,10.29-3.58,20-7.15,30.28-9.61,7.21-1.7,14-4.32,21.16-6.15,3.52-.88,6.94-1.53,10.39-2.21a.1.1,0,0,0,0-.13.11.11,0,0,0-.14-.06" transform="translate(0 0)"/><path class="cls-3" d="M111.22,58.11c-10.41,1.5-20.74,4.81-31.4,7.44C69.56,68.1,60,71.46,49.67,74.61,32.79,79.74,16.86,91.09.38,90.23a.39.39,0,0,0-.37.4A.4.4,0,0,0,.37,91a46.73,46.73,0,0,0,20.48-3c9.7-3.84,18.95-8.4,28.63-11.77,10.29-3.57,20-7.14,30.28-9.6,7.21-1.7,14-4.32,21.16-6.15,3.52-.88,6.94-1.53,10.39-2.21a.1.1,0,0,0,0-.13.1.1,0,0,0-.14-.06" transform="translate(0 0)"/><path class="cls-3" d="M111.22,63.45c-10.41,1.49-20.74,4.81-31.4,7.44C69.56,73.44,60,76.8,49.67,80,32.79,85.07,16.86,96.43.38,95.57A.39.39,0,0,0,0,96a.4.4,0,0,0,.36.41,46.73,46.73,0,0,0,20.48-3C30.55,89.53,39.8,85,49.48,81.6c10.29-3.58,20-7.14,30.28-9.6,7.21-1.7,14-4.33,21.16-6.15,3.52-.88,6.94-1.54,10.39-2.21a.11.11,0,0,0-.09-.19" transform="translate(0 0)"/><path class="cls-3" d="M111.22,68.78c-10.41,1.5-20.74,4.82-31.4,7.45C69.56,78.78,60,82.13,49.67,85.29,32.79,90.41,16.86,101.77.38,100.91a.39.39,0,0,0-.37.4.38.38,0,0,0,.36.4,46.72,46.72,0,0,0,20.48-3c9.7-3.85,18.95-8.4,28.63-11.77,10.29-3.58,20-7.14,30.28-9.61,7.21-1.69,14-4.32,21.16-6.14,3.52-.89,6.94-1.54,10.39-2.21a.11.11,0,0,0,0-.14.12.12,0,0,0-.14-.06" transform="translate(0 0)"/><path class="cls-4" d="M47.49,40.14c-1.22.7-2.72.79-6.23,2.28H39.42c-.09.08-.53.35-.62.43h-.17c-.09-.08-.26-.08-.44-.17a4.21,4.21,0,0,0-1,.09L37,43a9,9,0,0,0-.88-.35,11.25,11.25,0,0,1-1.14.26l-.53.26a15.93,15.93,0,0,0-1.93.09l-.44.09h-2.1a5.36,5.36,0,0,0-1.15.09h-.52c-1.05,1-.88,3.75-4.48,18.44C23.18,64.45,21,74.67,20,78.08A18.28,18.28,0,0,0,19,82.19v2.1a12,12,0,0,1-.44,2.36v.52a4.71,4.71,0,0,1-.61,1.23c-.09.09-2.55,1.57-2.63,1.57h-.09a3.19,3.19,0,0,1-1,.44H14c-.09.09-.09.09-.18.09h-.17C13.26,90,13,85.43,13,84.9a5.24,5.24,0,0,0,.18-.61c0-.26-.18-.61-.18-.87V81c0-.7.27-1.84.35-3.06a.71.71,0,0,1-.08-.44c.08-2.36.35-4.2.61-6.38v-.53a12.38,12.38,0,0,0,.35-1.31.91.91,0,0,0-.09-.43,17.38,17.38,0,0,0,.44-2.8l.18-.35c.18-2.36.61-2.71,1.67-9a104.87,104.87,0,0,1,2.45-10.58c-.35,0-.61-1.66-.87-1.66-.44-1.23-.79-1-2.2-1.14-.08.09-.26.09-.52.09h-2.2c-3.6,0-11.59,0-13.08-5,0-.53,1.4-1.49,2.11-1.49a2.12,2.12,0,0,1,.79.26,12.34,12.34,0,0,1,4-.52H8.43c.44-.09.88-.18,1.49-.27h.26a2.16,2.16,0,0,0,.71-.08,2.84,2.84,0,0,0,1,.43c.35-.08.79-.08,1.4-.17l4,.26c2.1-.17,4.12-.26,6.14-.26,1.84,0,3,.17,6.23.35h-.08s1.31-.18,3.95-.35c0-.09.87.09,2.45.09h2.46c.27,0,1.32,0,3.08.08.79,0,3.24.62,4.21.62a11.12,11.12,0,0,1,2.46,2c-.09,0-.27.26-.71.78" transform="translate(0 0)"/><path class="cls-4" d="M48.72,56.49l-2.55,1.57c-4.47,2.54-5.79,5.51-8.51,9.1,1.14.34,1.75.52,1.84.52.62,0,2-.7,4.39-2.19,5.8-3.67,5.8-5.94,6.41-7.95-.7-.7-1.23-1-1.58-1M46.17,70.65c-4.47,0-7.28-.52-8.6-1.57-2.19,3.58-3.33,6.38-3.33,8.3a5.48,5.48,0,0,0,1.22,2.45C37,82,37.13,82,40.29,82.37a5.82,5.82,0,0,0,4,1.31c1.85,0,4.66-.79,8.26-2.45,4-1.84,7.19-4.63,7.72-4.63a1.29,1.29,0,0,1,.62.17,13,13,0,0,1-.79,3c-.44.44-7.55,9.88-17.91,9.88-3.87,0-9-5.33-11.51-8.48-2.89-3.67-3.68-9.7-3.68-12a21.7,21.7,0,0,0,1.14-3.85c0-1,1.05-.18,1.84-3.5,1.58-1,.44-1.92,3.25-4.19l1.58-1.31a51.51,51.51,0,0,1,4.3-4.72l2.73-1.49a2.73,2.73,0,0,0,1.66-2h.71c.35,0,1.49,1.22,1.93,1.31,3.95.61,6,1,6.14,1,3.87,1,9.31,5.25,9.31,8.48,0,10.67-14,11.8-15.37,11.8" transform="translate(0 0)"/><path class="cls-4" d="M76.63,112.78h0a0,0,0,0,0,0,0" transform="translate(0 0)"/><path class="cls-4" d="M93.49,54.74a8.65,8.65,0,0,0-1-.17c-5.71,0-3.34,3.32-6,7-.26.44-3.78,4.63-4,5.94-.09,0-.18-.08-.26-.08a1.08,1.08,0,0,0-.71.35l-.87.87c-1.32,1-2.2,1.66-2.46,2.45l-.18.44c-.61.52-7.81,6.55-10.53,6.55-.62,0-.88-.52-.88-1.48s.88-2,1-2.62c1.75-4.81,4.3-9.27,4.3-11.2.61-1,4-3.84,4-5.5s-1.67-3.76-3.16-3.76c-3.95,0-7.2,5.24-7.38,5.42C63,62,61,64.71,61,65.76a3.17,3.17,0,0,0,.09,1,9.94,9.94,0,0,1-1.58,1.22,9.37,9.37,0,0,1,.08,1.49,14.38,14.38,0,0,1-.35,3.32c0,.26-.52.52-.52.79,0,3.67,4.91,8.65,8.25,11.54,2.55-.62,5.27.17,15.1-9.62h.61a1.46,1.46,0,0,1,.27.88,4.79,4.79,0,0,1-1.15,3.4,5.74,5.74,0,0,0,1.23.88v.52a19,19,0,0,1-2.19,1l-1.93,6.3c-.25.49-1,2.62-1.79,4.69L87,92.51c.44-1,.71-1,.71-1.93,0-.26-.09-.43-.09-.61a26.28,26.28,0,0,0,2-5.59A64.21,64.21,0,0,0,94.72,69.6,71.76,71.76,0,0,0,96.3,58.94c0-.61.7-1.57.7-1.93v-.69c-1.93-.88-3.07-1.4-3.51-1.58" transform="translate(0 0)"/><path class="cls-4" d="M70.27,110.49c-.53,1.72-.35,1-.39,1.14-.53,2.8-.81,3.08-1,4.57l-1.18,2.67c-.17.26.27,1.26.27,1.43,0,3.06,1,4.7,1.9,4.7,2,0,1.72-1.61,1.9-1.7a11.53,11.53,0,0,1,1.11-4.1c-.18-.79.94-1.43.76-1.69a10.74,10.74,0,0,0,3-4.73c-.61-.26-1-.52-1-.78,0-1,2.9-1.83,2.9-1.83l-.27-.79Z" transform="translate(0 0)"/><path class="cls-5" d="M76.13,50.41a9.8,9.8,0,0,1-2-2.18C68.53,38.43,64,29.07,62.75,17.75A54.92,54.92,0,0,1,63.29,0a25.77,25.77,0,0,0-.58,5,46,46,0,0,0,1.46,9.67C65,17.63,66.4,21,67.28,24.24c2.33,8.23,4.8,11.35,3.81,9.5.58,1.26,1.6,1.87,2.38,3a60.52,60.52,0,0,1,3.14,7.12,6.16,6.16,0,0,1,1,1.49,72.3,72.3,0,0,0,3.67,9.56l-.53-.53c.21.72.32,1.07.54,1.78-1.6-1.58-3.42-3.85-5.13-5.77" transform="translate(0 0)"/><path class="cls-5" d="M87.68,49a6.35,6.35,0,0,1,.94-2.37c5.92-7.85,12.49-13.37,20.27-18.69,4.23-3.1,8-5.73,12.11-8.77a27.28,27.28,0,0,0-3.34,2.64c-2,2.09-3.68,4.06-5.58,6.22a43.71,43.71,0,0,1-5.82,6.39c-5.77,4.5-7.43,7.34-6.27,6-.82.83-.9,1.91-1.49,2.92-1.34,1.89-3.29,3-4.73,4.48a3.68,3.68,0,0,1-.8,1.24,30.72,30.72,0,0,0-6.35,5.83c.08-.31.15-.62.15-.62l-1.25,1c.45-1.88,1.41-4.19,2.16-6.32" transform="translate(0 0)"/><path class="cls-5" d="M80.54,36.51c-.22-.29-.84-.63-.78-1A11.71,11.71,0,0,1,81,28.81l.5-.8.07-.1h0l4.23.68v.65a13.16,13.16,0,0,1-.07,1.53,16.21,16.21,0,0,1-.57,3.1,16.79,16.79,0,0,1-2.44,6.08c.26-.54.82-1,.78-1.66A10.71,10.71,0,0,0,83,34.71c-.33-1.06-1.12-2.19-1-3.31a8.12,8.12,0,0,0,0-1.85l0-.19h0c1.36.22-3-.5,3,.49v0l0,0,0,.06-.11.24-.15.38c-.1.5,0,.66.09.38-.1.39.47.79.63,1.2.09.75-.59,1.48-.83,2.3.1.11.23.44.14.56-.57,1.08-1.43,2.17-1.44,3.58L83,38.35c-.16.28-.23.41-.38.69a15.81,15.81,0,0,1-2.09-2.53" transform="translate(0 0)"/><path class="cls-5" d="M84.5,31.51c.12-.36.07-1.06.49-1.27,3.76-3,7.93-3.57,12.07-3.49a57.89,57.89,0,0,0,6.45-.58,5.23,5.23,0,0,0-1.78.4c-1.1.71-2.1,1.31-3.19,2s-2.08,1.7-3.28,1.81c-3.11.25-4,1.42-3.4,1.1-.44.17-.47.92-.75,1.33-.65.64-1.74.36-2.5.68,0,.16-.23.45-.37.45a5.87,5.87,0,0,0-3.65,1v-.33l-.8.18a14.67,14.67,0,0,1,.71-3.36" transform="translate(0 0)"/><path class="cls-5" d="M83.25,35.25c0-.27-.07-.91.2-1a10.2,10.2,0,0,1,7.46-1.47,24,24,0,0,0,3.93-.16c-.35.09-.75,0-1,.28-.61.62-1.15,1.14-1.72,1.77s-1,1.57-1.74,1.53c-1.93-.07-2.35.9-2,.68-.26.12-.15.83-.31,1.12-.37.43-1.15,0-1.66.07,0,.13-.12.35-.22.31-.83-.19-1.86-.64-2.67-.32,0-.13,0-.26,0-.26l-.6-.15a9.82,9.82,0,0,1,.38-2.42" transform="translate(0 0)"/><path class="cls-5" d="M80.75,31.31c0-.59-.21-1.46.25-2.09,1.53-3.66,6.24-6.31,9-6.88,3-1,6.17-1.83,9.5-2.65,3.64-1.09,6.9-1.83,9.67-4.23-.81.59-1.63,1.14-2.4,1.82A38.92,38.92,0,0,1,101.92,21c-1.59,1.08-3.36,2.71-5.41,3.29-5.16,1.51-7.13,2.92-5.94,2.42-.86.34-1,1.23-1.45,1.67-.93.81-2.22,1.08-3.19,2a1.91,1.91,0,0,1-.41.83A10.58,10.58,0,0,0,81.75,36l-.1-.48-.74.94a17.49,17.49,0,0,1-.16-5.11" transform="translate(0 0)"/><path class="cls-4" d="M8.31,107.11c-.17-2.86-.35-5.71-.52-8.56H8.85c.08,1.71.17,3.42.25,5.13,0,1.1,0,1.69,0,2.22h0c.2-.56.4-1.11.86-2.17.77-1.75,1.55-3.49,2.32-5.24l1.14,0c.08,1.65.16,3.29.23,4.93.05,1.1.06,1.85,0,2.41h0c.25-.74.49-1.43.82-2.22l2.26-5.2,1.11,0L14.06,107l-1.12,0-.27-4.86a16.83,16.83,0,0,1,0-2.46h0c-.27.81-.5,1.48-.84,2.26l-2.34,5.12-1.14,0" transform="translate(0 0)"/><path class="cls-4" d="M18.66,106.18c1.25,0,2.17-1.67,2.16-3.11,0-.71-.35-1.7-1.46-1.67-1.33,0-2.19,1.69-2.17,3.1,0,1,.58,1.71,1.46,1.68Zm-.12.84a2.3,2.3,0,0,1-2.44-2.46,3.77,3.77,0,0,1,3.37-4A2.3,2.3,0,0,1,21.93,103c0,1.9-1.31,3.93-3.38,4h0" transform="translate(0 0)"/><path class="cls-4" d="M22.2,106.76l.78-4.39c.12-.69.2-1.29.26-1.8l.93,0L24,101.69h0a2.7,2.7,0,0,1,2.15-1.39,1.3,1.3,0,0,1,1.46,1.31,2.77,2.77,0,0,1,2.24-1.48,1.41,1.41,0,0,1,1.52,1.54,6.87,6.87,0,0,1-.09,1c-.22,1.22-.43,2.45-.65,3.67l-1,0c.21-1.19.41-2.39.62-3.58a4.17,4.17,0,0,0,.08-.8c0-.65-.25-1.06-.94-1s-1.67,1-1.91,2.35c-.19,1.06-.37,2.12-.55,3.18l-1,0c.21-1.21.43-2.42.64-3.63a4.13,4.13,0,0,0,.07-.76c0-.52-.15-1-.93-1s-1.72,1.09-1.95,2.41l-.54,3.11-1,0" transform="translate(0 0)"/><path class="cls-4" d="M36.16,101.41c0-.49-.39-.75-.95-.72-1,0-1.75,1.07-2,2,1.66-.06,3-.36,2.95-1.31Zm.28,4.33a4.65,4.65,0,0,1-2,.6A2.13,2.13,0,0,1,32,104c0-1.85,1.33-4,3.32-4.13a1.53,1.53,0,0,1,1.83,1.49c0,1.62-1.8,2.14-4.08,2.22a2.39,2.39,0,0,0,.14,1.16,1.31,1.31,0,0,0,1.38.75,3.43,3.43,0,0,0,1.66-.51c0,.26.1.52.16.78" transform="translate(0 0)"/><path class="cls-4" d="M37.52,106c.26-1.47.52-2.94.77-4.41.13-.69.22-1.29.28-1.81l1,0L39.37,101h0a2.94,2.94,0,0,1,2.28-1.49,1.44,1.44,0,0,1,1.58,1.61,5.18,5.18,0,0,1-.11,1c-.21,1.21-.43,2.42-.64,3.64l-1,.06c.21-1.2.43-2.4.64-3.6a4.88,4.88,0,0,0,.06-.79c0-.61-.25-1.06-1-1A2.88,2.88,0,0,0,39.1,103c-.18,1-.35,2-.53,3l-1,.06" transform="translate(0 0)"/><path class="cls-4" d="M46.34,96.7c-.26,1-.51,2.08-.76,3.12l-.69.05c.12-1,.23-2.07.35-3.1l1.1-.07" transform="translate(0 0)"/><path class="cls-4" d="M46,104.47a2.65,2.65,0,0,0,1.33.29,1.13,1.13,0,0,0,1.16-1.08c0-.48-.23-.77-.88-1.08a1.72,1.72,0,0,1-1.13-1.5,2.18,2.18,0,0,1,2.23-2,2.48,2.48,0,0,1,1.27.23c-.09.27-.18.54-.28.82a2,2,0,0,0-1.06-.21,1.06,1.06,0,0,0-1.1,1c0,.45.3.71.87,1a1.79,1.79,0,0,1,1.16,1.55,2.21,2.21,0,0,1-2.33,2.17,2.7,2.7,0,0,1-1.54-.32l.3-.79" transform="translate(0 0)"/><path class="cls-4" d="M55.12,96.36c-.21,1.21-.43,2.43-.64,3.65l4-.27c.21-1.21.43-2.43.65-3.65L60.13,96l-1.53,8.67-1.06.07c.24-1.36.47-2.71.71-4.07l-3.94.26L53.59,105l-1.06.07q.77-4.34,1.54-8.67l1-.07" transform="translate(0 0)"/><path class="cls-4" d="M63.89,99.64c0-.49-.4-.75-1-.71a2.58,2.58,0,0,0-2,2.08c1.66-.08,3-.4,3-1.35Zm.27,4.33a4.43,4.43,0,0,1-2,.62,2.08,2.08,0,0,1-2.37-2.31c0-1.86,1.33-4,3.32-4.18,1.17-.08,1.82.57,1.83,1.46,0,1.61-1.8,2.16-4.09,2.27A2.66,2.66,0,0,0,61,103a1.31,1.31,0,0,0,1.39.74A3.72,3.72,0,0,0,64,103.2c.06.26.11.51.16.77" transform="translate(0 0)"/><path class="cls-4" d="M69.45,98.6a2.11,2.11,0,0,0-.73,0,3.49,3.49,0,0,0-2.87,3.56c0,.68.26,1.34,1.06,1.29s1.93-1.28,2.2-2.94c.11-.62.23-1.25.34-1.87m-.62,5.4c0-.37.06-1,.13-1.59h0a2.88,2.88,0,0,1-2.38,1.88c-1.09.08-1.78-.74-1.79-1.91A4.59,4.59,0,0,1,69,97.7a6.11,6.11,0,0,1,1.66.12c-.2,1.08-.4,2.17-.59,3.25a13.73,13.73,0,0,0-.22,2.87l-1,.06" transform="translate(0 0)"/><path class="cls-4" d="M70.89,103.87c.53-3.05,1.08-6.09,1.62-9.13l1-.07-1.62,9.13-1,.07" transform="translate(0 0)"/><path class="cls-4" d="M75.93,95.91l-.27,1.49,1.48-.09c0,.28-.1.56-.16.84l-1.48.09c-.17,1-.34,2-.52,3a5,5,0,0,0-.12,1,.5.5,0,0,0,.59.56,2.18,2.18,0,0,0,.5-.08c0,.27,0,.55,0,.83a2.83,2.83,0,0,1-.82.16,1.08,1.08,0,0,1-1.31-1.11,5.79,5.79,0,0,1,.13-1.16c.19-1,.37-2.1.56-3.15l-.88,0,.15-.83.88-.06c.06-.38.13-.76.2-1.14l1.11-.42" transform="translate(0 0)"/><path class="cls-4" d="M76.76,103.49l1.62-9.13,1.06-.06-.72,4h0a2.78,2.78,0,0,1,2.19-1.35,1.41,1.41,0,0,1,1.55,1.56,6,6,0,0,1-.09,1c-.22,1.22-.43,2.43-.65,3.65l-1.06.06c.22-1.19.43-2.39.65-3.59a6.2,6.2,0,0,0,.07-.86c0-.56-.28-1-1-1a2.84,2.84,0,0,0-2.08,2.46l-.54,3.12-1.06.07" transform="translate(0 0)"/><path class="cls-4" d="M91.36,102.38a5.84,5.84,0,0,1-2.23.52,3.1,3.1,0,0,1-3.52-3.36,5.61,5.61,0,0,1,1.78-4.23A5.11,5.11,0,0,1,90.63,94a3.55,3.55,0,0,1,1.86.32l-.33.87a3.4,3.4,0,0,0-1.7-.27A3.73,3.73,0,0,0,88,96a4.69,4.69,0,0,0-1.28,3.34c0,1.52.73,2.75,2.65,2.65a4.49,4.49,0,0,0,1.83-.46l.15.85" transform="translate(0 0)"/><path class="cls-4" d="M95.6,97.76c0-.49-.39-.76-.95-.73a2.49,2.49,0,0,0-2,2c1.66-.06,3-.34,2.94-1.3Zm.28,4.33a4.45,4.45,0,0,1-2,.58,2.14,2.14,0,0,1-2.38-2.36c0-1.86,1.34-4,3.33-4.11a1.53,1.53,0,0,1,1.82,1.5c0,1.62-1.8,2.11-4.08,2.19a2.54,2.54,0,0,0,.14,1.16,1.35,1.35,0,0,0,1.39.76,3.66,3.66,0,0,0,1.65-.5c.06.26.11.52.16.78" transform="translate(0 0)"/><path class="cls-4" d="M96.72,102.4c.25-1.46.51-2.93.76-4.39.14-.69.22-1.29.28-1.8l.95,0-.15,1.21h0a2.83,2.83,0,0,1,2.28-1.44,1.47,1.47,0,0,1,1.57,1.65,5.93,5.93,0,0,1-.1,1c-.22,1.21-.44,2.42-.65,3.63l-1,0c.21-1.19.43-2.39.64-3.58a6.27,6.27,0,0,0,.07-.79c0-.61-.26-1.06-1-1a2.8,2.8,0,0,0-2.08,2.51c-.18,1-.35,2-.53,3l-1,0" transform="translate(0 0)"/><path class="cls-4" d="M105.39,94.46c-.09.49-.18,1-.26,1.48l1.48,0c-.06.27-.11.55-.16.83l-1.48,0c-.18,1-.35,2-.53,3a4.21,4.21,0,0,0-.11,1,.51.51,0,0,0,.59.58,2.32,2.32,0,0,0,.5-.07c0,.28,0,.55,0,.83a2.63,2.63,0,0,1-.82.14,1.11,1.11,0,0,1-1.31-1.15,5.57,5.57,0,0,1,.12-1.16l.57-3.14-.88,0c0-.27.09-.55.14-.83l.88,0,.21-1.13,1.1-.38" transform="translate(0 0)"/><path class="cls-4" d="M110.14,97.27c0-.49-.39-.76-1-.75-1,0-1.75,1-2,2,1.65,0,3-.27,2.94-1.22Zm.28,4.34a4.44,4.44,0,0,1-2,.53A2.19,2.19,0,0,1,106,99.73c0-1.86,1.33-4,3.32-4a1.58,1.58,0,0,1,1.83,1.55c0,1.62-1.8,2.06-4.08,2.09a2.39,2.39,0,0,0,.14,1.16,1.37,1.37,0,0,0,1.39.8,3.57,3.57,0,0,0,1.65-.46c0,.26.11.52.16.78" transform="translate(0 0)"/><path class="cls-4" d="M111,102c.23-1.33.47-2.66.7-4,.15-.81.23-1.62.29-2.19l.93,0c0,.43-.08.85-.15,1.34h0a2.25,2.25,0,0,1,1.88-1.5l.3,0c-.06.35-.13.7-.19,1l-.29,0c-.91,0-1.71,1.13-2,2.56l-.48,2.73L111,102" transform="translate(0 0)"/><path class="cls-5" d="M20.77,110.19c1.53-.12,3.33-.43,5.3-.47C47,109.26,65,105,85.71,104.8a320,320,0,0,1,32.83.67c-3.11-.2-6.24-.47-9.38-.46-6.28,0-11.94.26-18.23.7-5.68.39-12.57,1.12-19,1.69-16.11,1.62-23.16,2.95-19.3,2.4-2.59.33-4.42,1-7,1.33A120.1,120.1,0,0,1,31,112a25.81,25.81,0,0,1-3.31.2c-6.11,0-11.52-.64-18.91-.74l1.33-.11-3.38-.24c4-.37,9.38-.57,14-.92" transform="translate(0 0)"/></g></svg>