<svg id="Layer_1" data-name="Layer 1" xmlns="http://www.w3.org/2000/svg" viewBox="0 0 195.99 39.4"><defs><style>.cls-1,.cls-4{fill:#00539b;}.cls-1,.cls-2,.cls-3{fill-rule:evenodd;}.cls-2{fill:#8dc63f;}.cls-3{fill:#00a4e4;}</style></defs><title>LVHN_logo</title><path class="cls-1" d="M210,407.43a73.38,73.38,0,0,1,8.07-1.28c.84,0,1.49-.26,1.72-1.15a29.31,29.31,0,0,1,1.19-3.21,26.82,26.82,0,0,1,.29-9.37c.11-.29.83-.44.89,0,.11.85.3,1.86.46,2.53a22.26,22.26,0,0,0,1,2.82,12.52,12.52,0,0,1,9-4.85,15.79,15.79,0,0,1,5.71.94.51.51,0,0,0,.36-.93,20.76,20.76,0,0,0-9.31-4.32c-5.44-1-10.84.66-15.48,5.36-3.34,3.38-4.6,7.8-5.11,12.2a1.17,1.17,0,0,0,1.29,1.25" transform="translate(-208.68 -376.2)"/><path class="cls-2" d="M227.94,377.19c-.74,4.43-1.42,7.86-1.46,8a1.54,1.54,0,0,0,.66,1.85,10.71,10.71,0,0,1,2.37,1.62,20.2,20.2,0,0,1,8.63,3.9c.08.06.44.39.51.47a.49.49,0,0,1-.31.83c-3.72-1.19-5.49-.94-5.49-.94,5.83,8.06-.57,15-.73,15.26-.35.59.35.89.71.64,8.57-6.07,11.49-14.5,7.47-23.46-1.9-4.24-6.82-7.44-10.92-9.09a1.13,1.13,0,0,0-1.46.91" transform="translate(-208.68 -376.2)"/><path class="cls-3" d="M246.29,412.35c-2.47-3.72-4.3-6.68-4.38-6.81a1.55,1.55,0,0,0-1.74-.91,15.1,15.1,0,0,1-3.16.58,19.91,19.91,0,0,1-4.23,3.56.55.55,0,0,1-.67-.1c-.16-.17.11-.54.31-.79a10.81,10.81,0,0,0,1.81-2.94c-11-.35-12-12.14-12.05-12.41-.12-.62-.86-.41-1,0-2.14,10.11,1.44,18.19,10.47,22.06,4.27,1.83,10,.9,14.16-.61a1.1,1.1,0,0,0,.45-1.63" transform="translate(-208.68 -376.2)"/><polygon class="cls-4" points="44.79 17.97 44.79 2.27 48.13 2.27 48.13 15.76 54.17 15.76 54.17 17.97 44.79 17.97"/><path class="cls-4" d="M273.58,393.81a15.17,15.17,0,0,1-4.08.6,6.15,6.15,0,0,1-4.43-1.55,5.59,5.59,0,0,1-1.62-4.24,5.65,5.65,0,0,1,1.49-4.09,5.2,5.2,0,0,1,3.93-1.55,4.21,4.21,0,0,1,3.59,1.51,8,8,0,0,1,1.13,4.77h-7a3.14,3.14,0,0,0,3.53,3.14,10.33,10.33,0,0,0,3.43-.68Zm-7-6.2h4q0-2.78-1.85-2.78t-2.18,2.78" transform="translate(-208.68 -376.2)"/><path class="cls-4" d="M276,394.17V378.39h3v6.91a4.43,4.43,0,0,1,3.83-2.32,3.11,3.11,0,0,1,2.38.93,3.54,3.54,0,0,1,.87,2.53v7.73h-3v-7q0-1.86-1.27-1.86-1.46,0-2.79,2v6.87Z" transform="translate(-208.68 -376.2)"/><path class="cls-4" d="M288.75,378.88h3v2.45h-3Zm0,4.35h3v10.95h-3Z" transform="translate(-208.68 -376.2)"/><path class="cls-4" d="M294.84,397.55l.25-2.13a8.72,8.72,0,0,0,3.58.85,3.52,3.52,0,0,0,2.43-.69,2.94,2.94,0,0,0,.75-2.25v-1.48a3.76,3.76,0,0,1-3.65,2.33,3.87,3.87,0,0,1-3.18-1.46,6.12,6.12,0,0,1-1.18-4,6.34,6.34,0,0,1,1.32-4.2,4.35,4.35,0,0,1,3.51-1.58,4.64,4.64,0,0,1,3.18,1.33l.32-1.09h2.7v8.36a14.81,14.81,0,0,1-.31,3.61,3.82,3.82,0,0,1-1.21,1.89,6.43,6.43,0,0,1-4.27,1.28,12.8,12.8,0,0,1-4.23-.8m7-7.43V386a3.12,3.12,0,0,0-2.29-1.21,2.08,2.08,0,0,0-1.82,1,4.93,4.93,0,0,0-.67,2.75q0,3.23,2.12,3.23a3.35,3.35,0,0,0,2.67-1.72" transform="translate(-208.68 -376.2)"/><path class="cls-4" d="M307.24,394.17V378.39h3v6.91a4.42,4.42,0,0,1,3.83-2.32,3.11,3.11,0,0,1,2.38.93,3.55,3.55,0,0,1,.87,2.53v7.73h-3v-7q0-1.86-1.28-1.86-1.45,0-2.78,2v6.87Z" transform="translate(-208.68 -376.2)"/><polygon class="cls-4" points="117.93 17.97 112.31 2.23 115.68 2.23 120.02 14.4 124.2 2.23 126.48 2.23 121.07 17.97 117.93 17.97"/><path class="cls-4" d="M340.55,393a4.65,4.65,0,0,1-3.24,1.43,3.32,3.32,0,0,1-2.39-.88,3,3,0,0,1-.92-2.27,3.14,3.14,0,0,1,1.49-2.79,7.73,7.73,0,0,1,4.26-1h.81v-1q0-1.68-2-1.67a7.61,7.61,0,0,0-3.59,1v-2.05A11.64,11.64,0,0,1,339,383q4.41,0,4.41,3.43v4.86q0,1.29.85,1.29a2.51,2.51,0,0,0,.4,0l.07,1.65a7.1,7.1,0,0,1-1.7.24,2.26,2.26,0,0,1-2.4-1.43Zm0-1.59v-2.25h-.72q-2.95,0-2.95,1.81a1.39,1.39,0,0,0,.43,1,1.44,1.44,0,0,0,1.05.42,3.32,3.32,0,0,0,2.19-1" transform="translate(-208.68 -376.2)"/><rect class="cls-4" x="138.05" y="2.19" width="3.02" height="15.77"/><rect class="cls-4" x="143.74" y="2.19" width="3.02" height="15.77"/><path class="cls-4" d="M367.46,393.81a15.18,15.18,0,0,1-4.08.6,6.14,6.14,0,0,1-4.43-1.55,5.59,5.59,0,0,1-1.62-4.24,5.65,5.65,0,0,1,1.49-4.09,5.19,5.19,0,0,1,3.93-1.55,4.2,4.2,0,0,1,3.59,1.51,8,8,0,0,1,1.14,4.77h-7A3.14,3.14,0,0,0,364,392.4a10.32,10.32,0,0,0,3.44-.68Zm-7-6.2h4q0-2.78-1.85-2.78t-2.18,2.78" transform="translate(-208.68 -376.2)"/><polygon class="cls-4" points="161.4 22.59 163.93 18.47 159.79 7.02 163.04 7.02 165.81 14.68 169.14 7.02 171.42 7.02 164.47 22.59 161.4 22.59"/><polygon class="cls-4" points="44.67 38.47 44.67 22.48 47.81 22.48 47.81 28.97 54.08 28.97 54.08 22.48 57.22 22.48 57.22 38.47 54.08 38.47 54.08 31.15 47.81 31.15 47.81 38.47 44.67 38.47"/><path class="cls-4" d="M278,414.31a15.17,15.17,0,0,1-4.08.6,6.15,6.15,0,0,1-4.43-1.55,5.59,5.59,0,0,1-1.62-4.24,5.66,5.66,0,0,1,1.48-4.09,5.2,5.2,0,0,1,3.93-1.55,4.21,4.21,0,0,1,3.6,1.51,8,8,0,0,1,1.13,4.77h-7a3.14,3.14,0,0,0,3.53,3.14,10.31,10.31,0,0,0,3.43-.68Zm-7-6.2h4q0-2.78-1.85-2.78T271,408.11" transform="translate(-208.68 -376.2)"/><path class="cls-4" d="M286,413.48a4.65,4.65,0,0,1-3.24,1.43,3.32,3.32,0,0,1-2.39-.88,3,3,0,0,1-.92-2.27A3.15,3.15,0,0,1,281,409a7.73,7.73,0,0,1,4.26-1H286v-1q0-1.68-2-1.68a7.61,7.61,0,0,0-3.59,1v-2.05a11.66,11.66,0,0,1,4.08-.76q4.41,0,4.41,3.43v4.86q0,1.29.85,1.29a2.51,2.51,0,0,0,.4,0l.07,1.65a7.13,7.13,0,0,1-1.7.24,2.27,2.27,0,0,1-2.4-1.43Zm0-1.59v-2.25h-.72q-2.95,0-2.94,1.81a1.39,1.39,0,0,0,.43,1,1.44,1.44,0,0,0,1.05.42,3.33,3.33,0,0,0,2.19-1" transform="translate(-208.68 -376.2)"/><rect class="cls-4" x="83.52" y="22.7" width="3.02" height="15.77"/><path class="cls-4" d="M303.47,414.46a8,8,0,0,1-1.67.24q-3.84,0-3.84-3.58v-5.75h-1.22v-1.85H298v-3.12l3-.34v3.46h2.36v1.85h-2.36v5.36q0,2,1.65,2a4.18,4.18,0,0,0,.91-.12Z" transform="translate(-208.68 -376.2)"/><path class="cls-4" d="M305.06,414.67V398.73h3v7a4.41,4.41,0,0,1,3.83-2.35,3.09,3.09,0,0,1,2.38.94,3.61,3.61,0,0,1,.87,2.56v7.81h-3V407.6q0-1.88-1.28-1.88-1.45,0-2.78,2v6.94Z" transform="translate(-208.68 -376.2)"/><polygon class="cls-4" points="112.76 38.47 112.76 22.62 115.52 22.62 122.62 33.45 122.62 22.62 125.07 22.62 125.07 38.47 122.35 38.47 115.3 27.65 115.3 38.47 112.76 38.47"/><path class="cls-4" d="M345.75,414.31a15.17,15.17,0,0,1-4.09.6,6.14,6.14,0,0,1-4.43-1.55,5.59,5.59,0,0,1-1.62-4.24,5.66,5.66,0,0,1,1.49-4.09,5.19,5.19,0,0,1,3.93-1.55,4.2,4.2,0,0,1,3.59,1.51,8,8,0,0,1,1.14,4.77h-7a3.14,3.14,0,0,0,3.53,3.14,10.3,10.3,0,0,0,3.43-.68Zm-7-6.2h4q0-2.78-1.85-2.78t-2.18,2.78" transform="translate(-208.68 -376.2)"/><path class="cls-4" d="M354,414.67a8.18,8.18,0,0,1-1.7.25q-3.93,0-3.93-3.64v-5.85h-1.25v-1.88h1.25v-3.83l3-.34v4.17h2.42v1.88h-2.42v5.44q0,2,1.69,2a4.28,4.28,0,0,0,.93-.12Z" transform="translate(-208.68 -376.2)"/><polygon class="cls-4" points="149 38.47 146.53 27.39 149.28 27.39 150.84 35.15 153.14 27.39 155.71 27.39 158.26 35.49 160.12 27.39 162.22 27.39 158.95 38.47 156.74 38.47 154.07 30.86 151.81 38.47 149 38.47"/><path class="cls-4" d="M376.72,414.91a5.9,5.9,0,0,1-4.16-9.9,6.63,6.63,0,0,1,8.47,0,6.39,6.39,0,0,1,0,8.37,5.91,5.91,0,0,1-4.31,1.52m.05-1.85q2.6,0,2.6-3.88a5,5,0,0,0-.69-2.81,2.24,2.24,0,0,0-3.77,0,6.16,6.16,0,0,0,0,5.65,2.12,2.12,0,0,0,1.87,1" transform="translate(-208.68 -376.2)"/><path class="cls-4" d="M384.77,414.67V403.72h3v2.07a3.81,3.81,0,0,1,3.58-2.31,4,4,0,0,1,.56,0v2.66a3.43,3.43,0,0,0-1.2-.24,3.39,3.39,0,0,0-2.95,1.78v6.95Z" transform="translate(-208.68 -376.2)"/><polygon class="cls-4" points="185.11 38.47 185.11 22.44 188.13 22.44 188.13 32.54 188.33 32.54 192.97 27.35 195.45 27.35 191.15 32.11 195.99 38.47 192.35 38.47 188.33 32.92 188.13 32.92 188.13 38.47 185.11 38.47"/></svg>