<?xml version="1.0" encoding="UTF-8" standalone="no"?><!DOCTYPE svg PUBLIC "-//W3C//DTD SVG 1.1//EN" "http://www.w3.org/Graphics/SVG/1.1/DTD/svg11.dtd"><svg width="100%" height="100%" viewBox="0 0 297 186" version="1.1" xmlns="http://www.w3.org/2000/svg" xmlns:xlink="http://www.w3.org/1999/xlink" xml:space="preserve" xmlns:serif="http://www.serif.com/" style="fill-rule:evenodd;clip-rule:evenodd;stroke-miterlimit:1.41421;"><rect x="96.054" y="0" width="102.176" height="102.174" style="fill:#00a3c9;"/><path d="M100.449,50.983c0,-25.711 20.841,-46.555 46.552,-46.555c25.713,0 46.555,20.844 46.555,46.555c0,25.712 -20.842,46.555 -46.555,46.555c-25.711,0 -46.552,-20.843 -46.552,-46.555Z" style="fill:#fff;fill-rule:nonzero;"/><path d="M48.77,184.394l0.75,-7.85l-1.35,0c-1.351,4.903 -2.351,5.603 -7.402,5.603l-5.551,0c-2.55,0 -2.95,-0.502 -2.95,-3.602l0,-9.101l7.752,0c2.751,0 3.399,0.45 3.75,3.999l1.351,0l0,-10.05l-1.351,0c-0.301,3.451 -0.851,3.798 -3.75,3.798l-7.752,0l0,-11.649l8.802,0c3.201,0 4.001,0.098 5,4.198l0.25,1.052l1.351,0l-0.45,-7.503l-25.555,0l0,1.353c3.4,0 5.051,0.099 5.051,3.397l0,21.555c0,2.802 -1,3.452 -5.051,3.452l0,1.348l27.105,0Z" style="fill:#67737a;fill-rule:nonzero;"/><path d="M61.074,171.633l0,5.025c0,3.287 -0.793,3.568 -3.802,3.568l0,1.067l11.957,0l0,-1.067c-3.286,0 -3.762,-0.518 -3.762,-3.448l0,-5.501l5.346,-8.631c2.533,-4.081 3.246,-4.593 6.135,-4.911l0,-1.069l-9.303,0l0,1.069c1.782,0 2.534,0.355 2.534,1.23c0,0.55 -0.396,1.344 -1.307,2.811l-4.513,7.164l-5.186,-7.401c-1.029,-1.468 -1.347,-2.142 -1.347,-2.656c0,-0.712 0.634,-1.148 2.772,-1.148l0,-1.069l-11.917,0l0,1.069c2.455,0.118 2.969,0.355 4.948,3.205l7.445,10.693Z" style="fill:#67737a;fill-rule:nonzero;"/><path d="M97.543,181.293l0.595,-6.216l-1.069,0c-1.07,3.881 -1.86,4.436 -5.859,4.436l-4.396,0c-2.02,0 -2.336,-0.399 -2.336,-2.855l0,-7.2l6.137,0c2.178,0 2.693,0.351 2.97,3.164l1.069,0l0,-7.957l-1.069,0c-0.238,2.73 -0.674,3.006 -2.97,3.006l-6.137,0l0,-9.224l6.969,0c2.534,0 3.166,0.08 3.959,3.329l0.199,0.832l1.068,0l-0.357,-5.942l-20.23,0l0,1.069c2.69,0 3.998,0.079 3.998,2.693l0,17.063c0,2.217 -0.792,2.735 -3.998,2.735l0,1.067l21.457,0Z" style="fill:#67737a;fill-rule:nonzero;"/><path d="M141.033,176.044l-1.5,0c-2.801,4.749 -7.151,7.353 -12.054,7.353c-7.65,0 -13.401,-6.502 -13.401,-15.255c0,-8.453 5,-14.051 12.502,-14.051c5.551,0 9.601,2.799 11.453,7.952l1.5,0l-0.252,-8.253l-1.248,0c-0.252,0.25 -0.5,0.352 -0.901,0.352c-1.45,0 -5.302,-1.654 -10.753,-1.654c-12.651,0 -18.352,8.452 -18.352,16.956c0,8.949 6.3,15.752 17.952,15.752c4.25,0 7.702,-1.15 9.952,-1.15c0.752,0 1.1,0.098 1.701,0.348l3.401,-8.35Z" style="fill:#67737a;fill-rule:nonzero;"/><path d="M162.501,181.293l0.598,-6.216l-1.072,0c-1.069,3.881 -1.859,4.436 -5.858,4.436l-4.394,0c-2.019,0 -2.336,-0.399 -2.336,-2.855l0,-7.2l6.138,0c2.175,0 2.692,0.351 2.968,3.164l1.069,0l0,-7.957l-1.069,0c-0.238,2.73 -0.675,3.006 -2.968,3.006l-6.138,0l0,-9.224l6.969,0c2.532,0 3.169,0.08 3.958,3.329l0.196,0.832l1.069,0l-0.356,-5.942l-20.229,0l0,1.069c2.692,0 3.997,0.079 3.997,2.693l0,17.063c0,2.217 -0.791,2.735 -3.997,2.735l0,1.067l21.455,0Z" style="fill:#67737a;fill-rule:nonzero;"/><path d="M187.587,181.532l2.138,0l0,-20.311c0,-3.012 0.831,-3.486 3.483,-3.486l0,-1.069l-9.581,0l0,1.069c3.444,-0.039 3.918,0.436 3.918,3.405l0,14.173l-17.656,-18.647l-7.162,0l0,1.069c1.501,0.118 2.374,0.436 3.325,1.267l0,17.818c0,2.575 -0.475,3.481 -3.325,3.406l0,1.067l9.457,0l0,-1.067c-3.562,0.194 -3.956,-0.795 -3.956,-3.882l0,-15.204l19.359,20.392Z" style="fill:#67737a;fill-rule:nonzero;"/><path d="M193.196,162.803l1.148,0c0.594,-4.118 1.387,-4.356 3.72,-4.356l5.662,0l0,18.648c0,2.613 -0.632,3.131 -4.593,3.131l0,1.067l13.581,0l0,-1.067c-4.158,0 -4.593,-0.437 -4.593,-3.131l0,-18.648l5.661,0c2.375,0 3.168,0.238 3.723,4.356l1.147,0l-0.713,-6.808l-1.069,0c-0.239,0.594 -0.552,0.671 -2.571,0.671l-16.748,0c-1.031,0 -1.581,-0.039 -1.938,-0.119c-0.357,-0.076 -0.476,-0.276 -0.636,-0.552l-1.068,0l-0.713,6.808Z" style="fill:#67737a;fill-rule:nonzero;"/><path d="M239.582,181.293l0.593,-6.216l-1.068,0c-1.073,3.881 -1.862,4.436 -5.863,4.436l-4.393,0c-2.019,0 -2.337,-0.399 -2.337,-2.855l0,-7.2l6.137,0c2.176,0 2.692,0.351 2.969,3.164l1.07,0l0,-7.957l-1.07,0c-0.238,2.73 -0.674,3.006 -2.969,3.006l-6.137,0l0,-9.224l6.967,0c2.533,0 3.169,0.08 3.958,3.329l0.2,0.832l1.069,0l-0.356,-5.942l-20.231,0l0,1.069c2.692,0 3.999,0.079 3.999,2.693l0,17.063c0,2.217 -0.793,2.735 -3.999,2.735l0,1.067l21.461,0Z" style="fill:#67737a;fill-rule:nonzero;"/><path d="M247.677,157.577c0.356,-0.08 1.308,-0.157 1.901,-0.157c4.317,0 6.454,2.375 6.454,6.374c0,4.039 -1.824,6.058 -7.086,6.295c-0.238,0 -0.989,-0.082 -1.269,-0.119l0,-12.393Zm0,13.5c1.031,0.12 2.376,0.081 3.525,0c1.662,1.23 2.256,1.781 4.275,3.8l2.1,2.1c3.562,3.562 5.505,4.948 13.3,4.75l0,-1.106c-3.283,-0.358 -5.976,-1.939 -9.501,-5.464l-2.574,-2.575c-0.632,-0.631 -2.332,-2.294 -2.968,-2.73c3.323,-1.389 4.987,-3.526 4.987,-6.456c0,-3.601 -2.733,-7.086 -10.727,-7.086c-0.792,0 -2.729,0 -4.829,0.08c-2.733,0.118 -4.75,0.276 -5.663,0.276l0,1.069c3.245,0 3.682,0.636 3.682,3.205l0,15.88c0,2.611 -0.357,3.524 -3.682,3.406l0,1.067l12.113,0l0,-1.067c-3.6,0.118 -4.038,-0.518 -4.038,-3.924l0,-5.225Z" style="fill:#67737a;"/><path d="M0,121.73l1.449,0c0.751,-5.203 1.751,-5.501 4.701,-5.501l7.151,0l0,23.553c0,3.304 -0.799,3.952 -5.801,3.952l0,1.349l17.154,0l0,-1.349c-5.251,0 -5.801,-0.551 -5.801,-3.952l0,-23.553l7.15,0c3.001,0 4.002,0.298 4.702,5.501l1.45,0l-0.9,-8.604l-1.351,0c-0.299,0.751 -0.699,0.852 -3.25,0.852l-21.154,0c-1.299,0 -2,-0.051 -2.451,-0.148c-0.449,-0.102 -0.599,-0.353 -0.799,-0.704l-1.352,0l-0.898,8.604Z" style="fill:#67737a;fill-rule:nonzero;"/><path d="M40.232,130.303l14.293,0l0,6.849c0,2.807 -0.554,3.638 -3.641,3.758l0,1.069l11.639,0l0,-1.069c-3.168,-0.196 -3.603,-0.87 -3.603,-3.681l0,-14.925c0,-3.05 0.476,-3.721 3.603,-3.881l0,-1.069l-11.639,0l0,1.069c3.245,0.119 3.641,0.95 3.641,4.156l0,5.942l-14.293,0l0,-5.9c0,-3.443 0.556,-4.079 3.525,-4.198l0,-1.069l-11.443,0l0,1.069c3.089,0.042 3.525,1.031 3.525,3.999l0,14.768c0,2.651 -0.317,3.524 -3.525,3.72l0,1.069l11.443,0l0,-1.069c-3.167,-0.077 -3.525,-1.145 -3.525,-3.445l0,-7.162Z" style="fill:#67737a;fill-rule:nonzero;"/><path d="M83.466,141.979l0.593,-6.214l-1.069,0c-1.069,3.881 -1.861,4.432 -5.859,4.432l-4.393,0c-2.021,0 -2.337,-0.394 -2.337,-2.85l0,-7.205l6.136,0c2.177,0 2.693,0.356 2.971,3.168l1.068,0l0,-7.957l-1.068,0c-0.239,2.731 -0.674,3.007 -2.971,3.007l-6.136,0l0,-9.225l6.968,0c2.534,0 3.167,0.08 3.959,3.325l0.198,0.832l1.069,0l-0.356,-5.938l-20.232,0l0,1.069c2.694,0 4,0.08 4,2.693l0,17.062c0,2.218 -0.792,2.732 -4,2.732l0,1.069l21.459,0Z" style="fill:#67737a;fill-rule:nonzero;"/><path d="M106.629,115.127c0.45,-0.097 1.649,-0.199 2.4,-0.199c5.451,0 8.152,2.998 8.152,8.049c0,5.103 -2.3,7.652 -8.952,7.953c-0.302,0 -1.25,-0.097 -1.6,-0.148l0,-15.655Zm0,17.054c1.298,0.149 3,0.102 4.45,0c2.101,1.552 2.852,2.253 5.402,4.801l2.65,2.651c4.499,4.5 6.95,6.251 16.803,6.001l0,-1.4c-4.151,-0.449 -7.552,-2.451 -12.002,-6.9l-3.25,-3.253c-0.801,-0.802 -2.952,-2.901 -3.751,-3.452c4.2,-1.748 6.3,-4.45 6.3,-8.152c0,-4.551 -3.45,-8.949 -13.552,-8.949c-1,0 -3.45,0 -6.102,0.098c-3.451,0.152 -6,0.352 -7.151,0.352l0,1.349c4.101,0 4.652,0.801 4.652,4.05l0,20.057c0,3.299 -0.451,4.449 -4.652,4.3l0,1.349l15.304,0l0,-1.349c-4.552,0.149 -5.101,-0.648 -5.101,-4.954l0,-6.599Z" style="fill:#67737a;"/><path d="M147.131,141.979l0.594,-6.214l-1.068,0c-1.07,3.881 -1.861,4.432 -5.859,4.432l-4.395,0c-2.019,0 -2.334,-0.394 -2.334,-2.85l0,-7.205l6.135,0c2.177,0 2.692,0.356 2.97,3.168l1.069,0l0,-7.957l-1.069,0c-0.238,2.731 -0.674,3.007 -2.97,3.007l-6.135,0l0,-9.225l6.965,0c2.536,0 3.168,0.08 3.962,3.325l0.196,0.832l1.069,0l-0.356,-5.938l-20.23,0l0,1.069c2.691,0 3.998,0.08 3.998,2.693l0,17.062c0,2.218 -0.793,2.732 -3.998,2.732l0,1.069l21.456,0Z" style="fill:#67737a;fill-rule:nonzero;"/><path d="M172.307,135.171c0,-1.505 0.042,-3.13 2.736,-3.13l0,-1.069l-11.84,0l0,1.069c3.922,0 4.711,0.356 4.711,3.087l0,4.713c-1.663,0.873 -3.287,1.305 -5.068,1.305c-4.789,0 -9.739,-3.443 -9.739,-11.361c0,-7.125 3.919,-11.799 9.857,-11.799c4.118,0 6.93,2.379 7.843,6.654l1.187,0l0,-7.286l-1.149,0c-0.238,0.318 -0.514,0.437 -1.03,0.437c-1.308,0 -3.682,-1.069 -7.564,-1.069c-10.886,0 -13.935,8.232 -13.935,13.499c0,7.444 5.346,12.394 13.385,12.394c3.282,0 6.136,-0.636 10.606,-2.418l0,-5.026Z" style="fill:#67737a;fill-rule:nonzero;"/><path d="M175.06,118.423c2.734,-0.039 3.247,0.831 3.247,2.968l0,16.118c0,2.256 -0.117,3.481 -3.247,3.401l0,1.069l11.049,0l0,-1.069c-2.851,0.08 -3.406,-0.713 -3.406,-3.681l0,-15.4c0,-2.813 0.751,-3.406 3.406,-3.406l0,-1.069l-11.049,0l0,1.069Z" style="fill:#67737a;fill-rule:nonzero;"/><path d="M192.619,129.272c0,-6.93 3.643,-11.286 9.342,-11.286c5.825,0 9.98,5.069 9.98,12.235c0,6.652 -3.682,11.125 -9.185,11.125c-5.027,0 -10.137,-4.117 -10.137,-12.074Zm-4.789,1.069c0,7.086 6.018,12.274 14.293,12.274c8.908,0 14.606,-6.257 14.606,-13.381c0,-7.405 -5.898,-12.512 -14.448,-12.512c-8.395,0 -14.451,5.7 -14.451,13.619Z" style="fill:#67737a;"/><path d="M242.907,142.215l2.137,0l0,-20.306c0,-3.012 0.831,-3.486 3.482,-3.486l0,-1.069l-9.58,0l0,1.069c3.443,-0.039 3.919,0.437 3.919,3.406l0,14.173l-17.657,-18.648l-7.168,0l0,1.069c1.504,0.119 2.377,0.437 3.33,1.267l0,17.819c0,2.569 -0.48,3.481 -3.33,3.401l0,1.069l9.461,0l0,-1.069c-3.561,0.199 -3.957,-0.789 -3.957,-3.877l0,-15.204l19.363,20.386Z" style="fill:#67737a;fill-rule:nonzero;"/><path d="M256.292,130.459l3.761,-10.018l3.8,10.018l-7.561,0Zm-8.789,11.52l9.658,0l0,-1.069c-3.167,0.118 -3.956,-0.395 -3.956,-1.544c0,-0.394 0.118,-0.908 0.393,-1.663l1.944,-5.263l9.062,0l1.899,4.907c0.4,1.03 0.557,1.705 0.557,2.099c0,1.15 -0.87,1.464 -4,1.464l0,1.069l11.761,0l0,-1.069c-2.494,0 -2.892,-0.476 -4.041,-3.563l-7.72,-20.625l-4.431,0l0.312,0.988l-7.161,19.637c-1.113,3.087 -1.626,3.525 -4.277,3.563l0,1.069Z" style="fill:#67737a;"/><path d="M293.432,141.979l3.045,-5.977l-1.188,0c-2.968,4.038 -3.206,4.195 -6.569,4.195l-4.081,0c-1.819,0 -2.138,-0.314 -2.138,-1.938l0,-16.706c0,-2.97 0.477,-3.13 4.751,-3.13l0,-1.069l-12.981,0l0,1.069c3.562,-0.081 3.836,0.712 3.836,3.406l0,15.68c0,3.125 -0.673,3.401 -3.836,3.401l0,1.069l19.161,0Z" style="fill:#67737a;"/><path d="M120.103,9.343l26.383,0.517l26.382,0l0,1.811l-26.382,0l-26.383,0.517l0,-2.845Z" style="fill:#00a3c9;fill-rule:nonzero;"/><path d="M116.482,14.773l34.658,0.777l27.933,-0.518l0.517,2.071l-28.45,-0.259l-37.761,1.034l3.103,-3.105Z" style="fill:#00a3c9;fill-rule:nonzero;"/><path d="M111.311,19.947l41.897,1.035l29.486,-0.518l1.035,2.069l-30.521,-0.775l-44.485,1.292l2.588,-3.103Z" style="fill:#00a3c9;fill-rule:nonzero;"/><path d="M107.171,25.12l48.626,1.551l31.55,-1.035l1.034,2.07l-32.584,-0.518l-50.694,1.553l2.068,-3.621Z" style="fill:#00a3c9;fill-rule:nonzero;"/><path d="M104.069,30.292l53.28,1.94l32.585,-1.423l1.034,2.586l-33.619,-1.034l-54.833,1.552l1.553,-3.621Z" style="fill:#00a3c9;fill-rule:nonzero;"/><path d="M102,35.981l58.45,1.553l31.036,-1.294l0.517,2.588l-31.553,-1.294l-59.485,1.811l1.035,-3.364Z" style="fill:#00a3c9;"/><path d="M100.449,41.155l58.453,2.069l34.136,-1.552l0.518,3.104l-34.654,-1.552l-58.972,1.552l0.519,-3.621Z" style="fill:#00a3c9;"/><path d="M99.413,46.327l59.489,2.07l35.171,-1.551l0,3.103l-35.171,-1.552l-59.489,2.069l0,-4.139Z" style="fill:#00a3c9;"/><path d="M99.413,52.018l28.967,0.517l37.244,1.035l28.449,-1.552l0.518,3.62l-28.967,-1.035l-37.762,0l-28.449,1.035l0,-3.62Z" style="fill:#00a3c9;fill-rule:nonzero;"/><path d="M99.413,57.189l30.001,1.036l34.658,0l29.484,-0.518l0,2.587l-30.003,-0.517l-34.139,0.517l-28.965,1.034l-1.036,-4.139Z" style="fill:#00a3c9;fill-rule:nonzero;"/><path d="M100.965,62.363l31.036,1.034l28.966,0l31.554,-0.517l0,3.104l-32.59,-0.518l-26.896,0l-31.035,1.553l-1.035,-4.656Z" style="fill:#00a3c9;fill-rule:nonzero;"/><path d="M102.516,68.052l50.176,1.035l38.276,-1.035l-0.517,3.621l-37.759,-1.033l-48.623,1.551l-1.553,-4.139Z" style="fill:#00a3c9;fill-rule:nonzero;"/><path d="M104.585,73.226l48.107,1.034l36.207,-0.517l0.518,3.621l-36.725,-1.035l-46.555,1.553l-1.552,-4.656Z" style="fill:#00a3c9;fill-rule:nonzero;"/><path d="M107.689,78.397l44.484,1.036l34.143,-0.518l-1.034,3.621l-33.625,-0.516l-41.382,1.034l-2.586,-4.657Z" style="fill:#00a3c9;fill-rule:nonzero;"/><path d="M112.344,84.088l39.313,0.518l28.968,0l-3.107,3.621l-25.861,-0.518l-35.175,1.036l-4.138,-4.657Z" style="fill:#00a3c9;fill-rule:nonzero;"/><path d="M118.035,89.261l34.138,0.517l22.759,0l-6.723,3.621l-16.036,0l-27.413,0.517l-6.725,-4.655Z" style="fill:#00a3c9;fill-rule:nonzero;"/><path d="M128.38,95.469l36.726,0l-3.104,4.136l-29.483,0l-4.139,-4.136Z" style="fill:#00a3c9;fill-rule:nonzero;"/><path d="M129.932,6.498l33.621,0l-3.622,-4.138l-26.378,0l-3.621,4.138Z" style="fill:#00a3c9;fill-rule:nonzero;"/><path d="M127.346,50.983c0,-10.856 8.8,-19.656 19.655,-19.656c10.857,0 19.658,8.8 19.658,19.656c0,10.856 -8.801,19.657 -19.658,19.657c-10.855,0 -19.655,-8.801 -19.655,-19.657Z" style="fill:#004990;fill-rule:nonzero;"/><path d="M127.346,50.983c0,-10.856 8.8,-19.656 19.655,-19.656c10.857,0 19.658,8.8 19.658,19.656c0,10.856 -8.801,19.657 -19.658,19.657c-10.855,0 -19.655,-8.801 -19.655,-19.657Z" style="fill:none;stroke:#00a3c9;stroke-width:0.52px;"/><path d="M148.036,43.741c0,-2 1.621,-3.62 3.621,-3.62c2.002,0 3.622,1.62 3.622,3.62c0,1.999 -1.62,3.62 -3.622,3.62c-2,0 -3.621,-1.621 -3.621,-3.62Z" style="fill:#fff;fill-rule:nonzero;"/><path d="M154.761,38.052c0,-0.857 0.697,-1.554 1.554,-1.554c0.854,0 1.552,0.697 1.552,1.554c0,0.856 -0.698,1.551 -1.552,1.551c-0.857,0 -1.554,-0.695 -1.554,-1.551Z" style="fill:#fff;fill-rule:nonzero;"/><path d="M266.873,160.805l0,-1.598l1.069,0c0.543,0 1.124,0.118 1.124,0.758c0,0.793 -0.594,0.84 -1.255,0.84l-0.938,0Zm0,0.666l0.903,0l1.361,2.235l0.879,0l-1.472,-2.273c0.759,-0.094 1.341,-0.496 1.341,-1.422c0,-1.017 -0.607,-1.467 -1.824,-1.467l-1.968,0l0,5.162l0.78,0l0,-2.235Zm-2.698,-0.356c0,-2.121 1.599,-3.72 3.648,-3.72c2.023,0 3.623,1.599 3.623,3.72c0,2.154 -1.6,3.741 -3.623,3.741c-2.049,0 -3.648,-1.587 -3.648,-3.741Zm3.648,4.486c2.44,0 4.525,-1.895 4.525,-4.486c0,-2.571 -2.085,-4.467 -4.525,-4.467c-2.465,0 -4.55,1.896 -4.55,4.467c0,2.591 2.085,4.486 4.55,4.486Z" style="fill:#67737a;"/></svg>