<svg id="Layer_1" data-name="Layer 1" xmlns="http://www.w3.org/2000/svg" width="249.12" height="42" viewBox="0 0 249.12 42"><defs><style>.cls-1{fill:#5d4fff;}.cls-2{fill:#0d2c6c;}</style></defs><path class="cls-1" d="M51.46,9.07a8.51,8.51,0,0,1-1.74,6.65l-1.24,1.52h0L34.08,32.6l-2.29-2.45L45.27,15.78a15.88,15.88,0,0,0,3-4.11A8.69,8.69,0,0,0,49,8.37,8.13,8.13,0,0,0,41.1,0a7.48,7.48,0,0,0-4.35,1.41,10.37,10.37,0,0,0-1,1L33.43,4.79l-6,6.5L21.34,4.84,19.05,2.42a13.59,13.59,0,0,0-1-1A7.59,7.59,0,0,0,13.68,0,8.12,8.12,0,0,0,5.8,8.36h0a8.68,8.68,0,0,0,.63,3.3,16.15,16.15,0,0,0,3.05,4.11L23,30.15,20.67,32.6,6.26,17.24h0L5,15.72A8.42,8.42,0,0,1,3.29,9.07a9.23,9.23,0,0,0-1.4,12.66h0c.15.2.31.39.48.58l1.24,1.55L20.66,42h0l6.73-7.15L34.09,42h0l17-18.14,1.22-1.49.48-.58h0a9.77,9.77,0,0,0,1.63-3.43A9.35,9.35,0,0,0,51.46,9.07ZM27.39,25.43h0L12.7,9.85a2.42,2.42,0,0,1-.48-.7,1.71,1.71,0,0,1-.14-.67,1.69,1.69,0,0,1,1.6-1.76,1.52,1.52,0,0,1,.85.26,4.56,4.56,0,0,1,.5.48L27.39,20.59,39.66,7.48A5.79,5.79,0,0,1,40.17,7,1.47,1.47,0,0,1,41,6.72a1.68,1.68,0,0,1,1.63,1.73h0a2,2,0,0,1-.13.68,3,3,0,0,1-.49.7L27.39,25.44Z" transform="translate(0)"/><path class="cls-2" d="M79.72,15.64H74.88V28.72H72V15.64H67.13V13.06H79.7Z" transform="translate(0)"/><path class="cls-2" d="M97.45,28.94A6.27,6.27,0,0,1,95,28.48a5.51,5.51,0,0,1-3-3.08,6.08,6.08,0,0,1-.41-2.19,6.14,6.14,0,0,1,.4-2.29,5.79,5.79,0,0,1,1.14-1.85A5.45,5.45,0,0,1,95,17.8a6.62,6.62,0,0,1,4.9,0,5.6,5.6,0,0,1,1.83,1.26,5.7,5.7,0,0,1,1.14,1.83,6.18,6.18,0,0,1,.39,2.18v.52a3.23,3.23,0,0,1,0,.44H94.6a3.53,3.53,0,0,0,.32,1.14,3,3,0,0,0,.66.88,3,3,0,0,0,.91.55,3.07,3.07,0,0,0,1.08.19,3.31,3.31,0,0,0,1.6-.41,2.31,2.31,0,0,0,1-1.14l2.44.68a4.93,4.93,0,0,1-2,2.11A6.15,6.15,0,0,1,97.45,28.94Zm2.91-6.74a2.94,2.94,0,0,0-.93-2,2.89,2.89,0,0,0-2-.76,2.8,2.8,0,0,0-1.07.21,2.7,2.7,0,0,0-.88.56,3,3,0,0,0-.92,2Z" transform="translate(0)"/><path class="cls-2" d="M198.63,20.77a8.14,8.14,0,0,1,.5-2.8,7.46,7.46,0,0,1,3.79-4.24,7.19,7.19,0,0,1,3.16-.67,6.86,6.86,0,0,1,3.61.94A6,6,0,0,1,212,16.44L209.69,18a3.87,3.87,0,0,0-.72-1.14,3.71,3.71,0,0,0-.92-.71,4.56,4.56,0,0,0-1-.39,4,4,0,0,0-1-.11,3.84,3.84,0,0,0-1.93.45,4.18,4.18,0,0,0-1.36,1.15,5,5,0,0,0-.82,1.65,6.4,6.4,0,0,0-.27,1.84,5.77,5.77,0,0,0,.32,2,5.06,5.06,0,0,0,.9,1.66,4.32,4.32,0,0,0,1.4,1.15A3.8,3.8,0,0,0,206,26a4.2,4.2,0,0,0,2.11-.54,4.11,4.11,0,0,0,.93-.73,3.29,3.29,0,0,0,.68-1.08L212.17,25a4.8,4.8,0,0,1-1,1.55,7.31,7.31,0,0,1-1.51,1.14,7.8,7.8,0,0,1-1.81.7,8.41,8.41,0,0,1-1.87.24,6.33,6.33,0,0,1-3-.7,7.91,7.91,0,0,1-2.29-1.82,8.62,8.62,0,0,1-1.52-2.54A8.37,8.37,0,0,1,198.63,20.77Z" transform="translate(0)"/><path class="cls-2" d="M217.6,15.86v-2.8h2.88v2.8Zm0,12.73V17.46h2.88V28.62Z" transform="translate(0)"/><path class="cls-2" d="M232.56,28.62H229.7V22.35a3.28,3.28,0,0,0-.46-2,1.53,1.53,0,0,0-1.31-.61,2.4,2.4,0,0,0-.87.17,3.16,3.16,0,0,0-.86.48,3.83,3.83,0,0,0-.72.73,3,3,0,0,0-.47.94v6.52h-2.85V17.46h2.57v2.05a4.22,4.22,0,0,1,1.8-1.65,5.74,5.74,0,0,1,2.64-.6,3.47,3.47,0,0,1,1.7.38,2.85,2.85,0,0,1,1,1,4.12,4.12,0,0,1,.5,1.4,9.61,9.61,0,0,1,.14,1.6Z" transform="translate(0)"/><path class="cls-2" d="M234.19,15.86v-2.8h2.86v2.8Zm0,12.73V17.46h2.86V28.62Z" transform="translate(0)"/><path class="cls-2" d="M238.08,23a6,6,0,0,1,.4-2.21A5.37,5.37,0,0,1,239.62,19a5.68,5.68,0,0,1,1.85-1.26,6.65,6.65,0,0,1,5.58.32,5,5,0,0,1,2,2.07l-2.79.85a2.5,2.5,0,0,0-1-.95,2.79,2.79,0,0,0-2.47-.08,2.91,2.91,0,0,0-.92.67,3.15,3.15,0,0,0-.62,1.06,4,4,0,0,0-.23,1.36,3.89,3.89,0,0,0,.23,1.36,3.29,3.29,0,0,0,.64,1.08,2.57,2.57,0,0,0,.92.68,2.54,2.54,0,0,0,1.15.25,2.69,2.69,0,0,0,1.43-.38,2.33,2.33,0,0,0,.9-.94l2.79.86a4.78,4.78,0,0,1-1.9,2.08,6,6,0,0,1-3.18.81,6.17,6.17,0,0,1-2.44-.47,5.39,5.39,0,0,1-3-3.12A6,6,0,0,1,238.08,23Z" transform="translate(0)"/><rect class="cls-2" x="213.27" y="13.06" width="2.76" height="15.72"/><path class="cls-2" d="M184.5,16.08a2.55,2.55,0,0,0,.08-.61,1.42,1.42,0,0,0-.4-1,1.48,1.48,0,0,0-2,0,1.57,1.57,0,0,0-.18,1.84,1.08,1.08,0,0,0,.61.48l-.7,2.67h1.4L184.2,17A8.39,8.39,0,0,0,184.5,16.08Z" transform="translate(0)"/><polygon class="cls-2" points="126.25 13.06 121.78 25.35 119.86 20.52 122.43 13.63 119.71 13.63 118.01 18.65 116.29 13.63 113.59 13.63 116.12 20.52 114.25 25.35 109.75 13.06 106.58 13.06 112.91 28.72 115.38 28.72 118.01 22.37 120.63 28.72 123.09 28.72 129.47 13.06 126.25 13.06"/><path class="cls-2" d="M137.48,19.1a5.5,5.5,0,0,0-1.83-1.26,6.56,6.56,0,0,0-4.89,0,5.21,5.21,0,0,0-1.85,1.26,5.41,5.41,0,0,0-1.14,1.84,6,6,0,0,0-.42,2.22,5.88,5.88,0,0,0,.42,2.19,5.36,5.36,0,0,0,1.14,1.85,5.76,5.76,0,0,0,1.85,1.23,6.69,6.69,0,0,0,4.9,0,5.68,5.68,0,0,0,1.83-1.27,5.9,5.9,0,0,0,1.14-1.85,6.12,6.12,0,0,0,.4-2.2,6.21,6.21,0,0,0-.4-2.21A5.76,5.76,0,0,0,137.48,19.1Zm-1.55,5.41a3.12,3.12,0,0,1-.61,1.06,3,3,0,0,1-.93.7,2.91,2.91,0,0,1-2.28,0,3,3,0,0,1-.93-.7,3.39,3.39,0,0,1-.62-1.05,4,4,0,0,1-.21-1.36,4,4,0,0,1,.21-1.34,3.32,3.32,0,0,1,.62-1.06,2.81,2.81,0,0,1,.93-.71,2.6,2.6,0,0,1,1.14-.25,2.81,2.81,0,0,1,1.14.24,2.66,2.66,0,0,1,.93.7,3.12,3.12,0,0,1,.61,1.06,3.6,3.6,0,0,1,.23,1.34A3.79,3.79,0,0,1,135.93,24.51Z" transform="translate(0)"/><path class="cls-2" d="M156.81,18.75a2.69,2.69,0,0,0-1-1,3.21,3.21,0,0,0-1.69-.39,4.63,4.63,0,0,0-2.38.6A5,5,0,0,0,150,19.73a3.15,3.15,0,0,0-1-1.68,3.2,3.2,0,0,0-2.19-.68,5,5,0,0,0-2.45.58,4.27,4.27,0,0,0-1.69,1.68V17.56h-2.58V28.72H143V22.2A3.47,3.47,0,0,1,144,20.52a2.43,2.43,0,0,1,1.58-.64,1.48,1.48,0,0,1,1.27.62,3.23,3.23,0,0,1,.46,2v6.26h2.86v-6.5a3.64,3.64,0,0,1,1.06-1.69,2.37,2.37,0,0,1,1.6-.65,1.49,1.49,0,0,1,1.27.62,3.29,3.29,0,0,1,.45,2v6.26h2.86v-7a9.61,9.61,0,0,0-.14-1.6A4.12,4.12,0,0,0,156.81,18.75Z" transform="translate(0)"/><path class="cls-2" d="M168.92,28.84V22a4.34,4.34,0,0,0-1.33-3.43,5.48,5.48,0,0,0-3.74-1.14,8.25,8.25,0,0,0-4.64,1.43l.87,1.82a8,8,0,0,1,1.74-.95,5.29,5.29,0,0,1,1.75-.31,2.63,2.63,0,0,1,1.87.59,2.22,2.22,0,0,1,.62,1.71v.64A6.08,6.08,0,0,0,164.8,22a8.84,8.84,0,0,0-1.44-.17,6.54,6.54,0,0,0-1.92.26,4.65,4.65,0,0,0-1.51.75A3.23,3.23,0,0,0,159,24a3.09,3.09,0,0,0-.36,1.46,3.3,3.3,0,0,0,.29,1.41,3.57,3.57,0,0,0,2,1.86,4.13,4.13,0,0,0,1.52.27,5.14,5.14,0,0,0,2.28-.51,5,5,0,0,0,1.82-1.5v1.91h2.4Zm-2.86-3.74a1,1,0,0,1-.46.81,2.5,2.5,0,0,1-1,.69,4.06,4.06,0,0,1-1.38.25,2,2,0,0,1-1.36-.48A1.54,1.54,0,0,1,162,23.9a3,3,0,0,1,1.81-.5,6.31,6.31,0,0,1,1.15.11,7.7,7.7,0,0,1,1.14.31Z" transform="translate(0)"/><path class="cls-2" d="M179.93,18.75a2.6,2.6,0,0,0-1-1,3.16,3.16,0,0,0-1.7-.39,5.61,5.61,0,0,0-2.64.59,4.27,4.27,0,0,0-1.8,1.67V17.56h-2.57V28.72h2.86V22.2a3.07,3.07,0,0,1,.47-.94,3.83,3.83,0,0,1,.72-.73,3.27,3.27,0,0,1,.83-.48,2.42,2.42,0,0,1,.88-.17,1.55,1.55,0,0,1,1.3.62,3.29,3.29,0,0,1,.47,2v6.26h2.85v-7a9.61,9.61,0,0,0-.14-1.6A4,4,0,0,0,179.93,18.75Z" transform="translate(0)"/><path class="cls-2" d="M193.36,24.2a2.64,2.64,0,0,0-.77-.89,5.64,5.64,0,0,0-1.34-.68,17.83,17.83,0,0,0-2-.6,9.44,9.44,0,0,1-1-.29,3.27,3.27,0,0,1-.67-.28,1.24,1.24,0,0,1-.37-.35.93.93,0,0,1-.11-.49,1,1,0,0,1,.48-1,2.34,2.34,0,0,1,1.22-.29,4.56,4.56,0,0,1,1.59.29,6.88,6.88,0,0,1,1.64.95l1.15-1.74a5.86,5.86,0,0,0-2-1.14,7.49,7.49,0,0,0-2.35-.36,5.44,5.44,0,0,0-1.74.26,4.17,4.17,0,0,0-1.4.73A3.25,3.25,0,0,0,184.4,21a2.65,2.65,0,0,0,.22,1.15,2.13,2.13,0,0,0,.68.81,4.83,4.83,0,0,0,1.24.63c.51.18,1.14.37,1.85.57a11.15,11.15,0,0,1,1.87.64.92.92,0,0,1,.59.87,1.05,1.05,0,0,1-.5.92,2.51,2.51,0,0,1-1.34.32,5.06,5.06,0,0,1-1.92-.38,9,9,0,0,1-2-1.14L184,27.22a7.17,7.17,0,0,0,2.29,1.28,8.89,8.89,0,0,0,2.75.44,5.28,5.28,0,0,0,3.31-1,3.1,3.1,0,0,0,1.21-2.59A2.91,2.91,0,0,0,193.36,24.2Z" transform="translate(0)"/><path class="cls-2" d="M90.59,20.13a4.1,4.1,0,0,0-.53-1.4,2.76,2.76,0,0,0-1.07-1,3.58,3.58,0,0,0-1.76-.37,4.75,4.75,0,0,0-2.34.58,4.35,4.35,0,0,0-1.67,1.68V13.06H80.36V28.72h2.86V22.2a3.07,3.07,0,0,1,.47-.94,4,4,0,0,1,.7-.73,3.47,3.47,0,0,1,.8-.48,2.31,2.31,0,0,1,.82-.17,1.64,1.64,0,0,1,1.39.63,3.26,3.26,0,0,1,.48,1.95v6.26h2.86v-7A8.88,8.88,0,0,0,90.59,20.13Z" transform="translate(0)"/></svg>