<svg width="196" height="27" viewBox="0 0 196 27" fill="none" xmlns="http://www.w3.org/2000/svg">
<path d="M0 0.83H8.074C11.997 0.83 14.003 2.803 14.098 6.748C14.098 6.814 14.098 6.875 14.098 6.942C14.098 8.538 13.854 9.746 13.366 10.572C12.834 11.437 12.047 12.068 11.005 12.462C13.438 12.822 14.69 14.784 14.762 18.347C14.762 19.682 14.551 20.924 14.13 22.076C13.709 23.229 13.044 24.138 12.135 24.803C11.204 25.49 10.04 25.834 8.644 25.834H0V0.83ZM4.688 4.521V10.971H6.312C7.426 10.971 8.224 10.738 8.711 10.273C9.199 9.808 9.443 8.91 9.443 7.58C9.421 6.228 9.199 5.375 8.778 5.025C8.34 4.687 7.514 4.521 6.312 4.521H4.688ZM7.088 14.595H4.688V22.209H7.215C8.944 22.209 9.853 20.923 9.947 18.347C9.947 18.258 9.947 18.175 9.947 18.086C9.947 15.759 8.994 14.595 7.088 14.595ZM34.524 15.632C34.48 18.043 34.302 19.971 33.998 21.412C33.66 22.847 32.906 24.061 31.732 25.036C30.557 26.011 28.784 26.499 26.412 26.499C22.821 26.499 20.571 25.601 19.662 23.806C18.748 22.027 18.254 19.461 18.166 16.092V15.554V12.401C18.166 12.357 18.166 12.312 18.166 12.268C18.166 12.224 18.144 12.091 18.1 11.869C18.122 11.448 18.155 10.894 18.2 10.207C18.222 9.52 18.311 8.633 18.466 7.547C18.599 6.483 18.793 5.547 19.059 4.721C19.308 3.901 19.586 3.253 19.896 2.793C20.893 1.574 21.886 0.798 22.883 0.471C23.864 0.155 25.039 0 26.413 0C28.829 0 30.636 0.586999 31.833 1.762C33.024 2.965 33.784 4.372 34.094 5.99C34.382 7.608 34.526 9.481 34.526 11.604V15.632H34.524ZM22.953 8.81V17.854C22.953 21.046 24.106 22.642 26.411 22.642C28.605 22.642 29.703 21.046 29.703 17.854V9.209C29.703 8.101 29.492 6.959 29.071 5.784C28.628 4.631 27.741 4.044 26.411 4.022C26.394 4.022 26.367 4.022 26.339 4.022C25.236 4.022 24.405 4.421 23.845 5.213C23.253 6.061 22.953 7.258 22.953 8.81ZM54.197 8.672H49.509C49.509 6.971 49.276 5.774 48.811 5.087C48.323 4.422 47.459 4.09 46.217 4.09C46.178 4.09 46.134 4.09 46.089 4.09C45.247 4.09 44.576 4.312 44.094 4.755C43.584 5.221 43.252 5.874 43.091 6.717C42.914 7.587 42.825 8.634 42.825 9.876V16.426C42.825 17.756 42.903 18.864 43.058 19.745C43.191 20.632 43.501 21.33 43.989 21.84C44.477 22.377 45.225 22.643 46.217 22.643C48.506 22.643 49.647 20.57 49.647 16.425V16.092H46.416V12.468H54.13V25.834H50.705V22.908C49.841 25.302 48.101 26.499 45.49 26.499C45.152 26.499 44.631 26.455 43.922 26.366C42.437 26.072 41.284 25.563 40.464 24.831C39.627 24.099 39.007 22.941 38.608 21.345C38.226 19.86 38.037 17.92 38.037 15.526C38.037 15.398 38.037 15.266 38.037 15.127V12.467C38.081 9.652 38.248 7.446 38.536 5.85C38.824 4.254 39.545 2.913 40.697 1.832C41.828 0.762 43.601 0.23 46.017 0.23C49.514 0.23 51.753 1.039 52.728 2.657C53.709 4.277 54.197 6.283 54.197 8.672ZM74.668 15.632C74.624 18.043 74.446 19.971 74.142 21.412C73.804 22.847 73.05 24.061 71.876 25.036C70.701 26.011 68.928 26.499 66.556 26.499C62.965 26.499 60.715 25.601 59.806 23.806C58.892 22.027 58.398 19.461 58.31 16.092V15.554V12.401C58.31 12.357 58.31 12.312 58.31 12.268C58.31 12.224 58.288 12.091 58.244 11.869C58.266 11.448 58.299 10.894 58.344 10.207C58.366 9.52 58.455 8.633 58.61 7.547C58.743 6.483 58.937 5.547 59.203 4.721C59.452 3.901 59.729 3.253 60.04 2.793C61.037 1.574 62.029 0.798 63.027 0.471C64.008 0.155 65.183 0 66.557 0C68.973 0 70.78 0.586999 71.977 1.762C73.168 2.965 73.928 4.372 74.238 5.99C74.526 7.608 74.67 9.481 74.67 11.604V15.632H74.668ZM63.097 8.81V17.854C63.097 21.046 64.25 22.642 66.555 22.642C68.749 22.642 69.847 21.046 69.847 17.854V9.209C69.847 8.101 69.636 6.959 69.215 5.784C68.772 4.631 67.885 4.044 66.555 4.022C66.538 4.022 66.511 4.022 66.483 4.022C65.38 4.022 64.549 4.421 63.989 5.213C63.396 6.061 63.097 7.258 63.097 8.81ZM92.151 4.521H86.77V25.834H82.115V4.521H76.662V0.83H92.151V4.521ZM96.02 0.83H102.365L107.956 25.834H102.93L98.976 5.686L95.022 25.834H90.101L96.02 0.83Z" fill="#009EE2"/>
<path d="M186.974 4.521H183.583V11.404H186.841C187.861 11.404 188.636 11.083 189.169 10.445C189.679 9.802 189.934 8.982 189.934 7.979C189.934 6.76 189.723 5.879 189.297 5.325C188.852 4.787 188.082 4.521 186.974 4.521ZM193.133 13.731C193.647 14.144 193.994 14.609 194.188 15.128C194.365 15.682 194.476 16.236 194.52 16.79C194.548 17.366 194.559 18.02 194.559 18.757C194.603 20.458 194.698 21.988 194.853 23.34C195.008 24.692 195.296 25.368 195.723 25.368V25.833H190.331C190.242 25.212 190.176 24.326 190.131 23.173C190.092 22.02 189.998 21.089 189.865 20.38V18.684C189.865 17.487 189.632 16.589 189.167 15.996C188.679 15.414 187.638 15.126 186.042 15.126H183.581V25.832H178.893V13.731H193.133ZM178.894 0.829997H187.938C192.377 0.829997 194.671 2.758 194.821 6.621C194.821 6.771 194.821 6.926 194.821 7.081C194.821 8.66 194.51 9.963 193.895 11.004C193.319 11.953 192.516 12.55 191.483 12.8H178.894V0.829997ZM175.22 13.731V15.024H167.473V22.21H175.918V25.834H162.784V13.731H175.22ZM162.785 0.829997H175.919V4.521H167.474V11.4H175.221V12.8H162.785V0.829997ZM157.829 13.731C158.132 14.016 158.417 14.304 158.684 14.596C159.571 15.571 160.08 16.658 160.213 17.855C160.279 18.382 160.313 18.891 160.313 19.379C160.313 21.418 159.781 22.992 158.711 24.1C157.381 25.497 155.674 26.25 153.591 26.367C153.397 26.367 153.197 26.367 152.998 26.367C150.648 26.367 148.753 25.857 147.307 24.832C145.761 23.746 144.974 21.695 144.952 18.681C145.041 17.933 145.079 17.368 145.079 16.985H149.74C149.74 17.207 149.74 17.379 149.74 17.489C149.718 17.6 149.707 17.738 149.707 17.921C149.685 18.12 149.663 18.309 149.641 18.486C149.641 21.213 150.649 22.62 152.666 22.709C153.22 22.643 153.675 22.554 154.029 22.443C154.406 22.332 154.738 22.011 155.027 21.473C155.315 20.969 155.459 20.403 155.459 19.788C155.459 18.364 154.705 17.134 153.193 16.092C152.09 15.383 151.026 14.673 150.001 13.964C149.887 13.886 149.775 13.808 149.665 13.731H157.829ZM155.193 8.444C155.193 5.496 154.262 4.022 152.4 4.022C151.713 4.022 151.115 4.233 150.605 4.654C150.095 5.097 149.834 5.685 149.812 6.416C149.895 7.591 150.46 8.544 151.497 9.276C152.766 10.096 154.063 10.938 155.393 11.797C155.876 12.125 156.33 12.459 156.756 12.8H148.419C148.05 12.505 147.715 12.217 147.414 11.935C146.727 11.314 146.15 10.539 145.685 9.608C145.286 8.788 145.081 7.879 145.081 6.881C145.081 6.726 145.081 6.571 145.081 6.415C145.286 2.536 147.492 0.496997 151.703 0.296997C151.88 0.296997 152.058 0.296997 152.241 0.296997C157.156 0.296997 159.617 2.746 159.617 7.64V8.443H155.193V8.444ZM132.753 13.731L130.378 25.834H125.457L128.322 13.731H132.753ZM140.605 13.731L143.311 25.834H138.285L135.91 13.731H140.605ZM131.375 0.829997H137.72L140.397 12.8H135.728L134.332 5.686L132.936 12.8H128.542L131.375 0.829997ZM114.966 13.731V22.21H123.677V25.834H110.344V13.731H114.966ZM110.345 0.829997H114.967V12.8H110.345V0.829997Z" fill="#1D1D1B"/>
</svg>
