<svg xmlns="http://www.w3.org/2000/svg" width="8.93in" height="3.03in" viewBox="0 0 642.87 218.04"><path d="M99.14,222h0a29.82,29.82,0,0,1-3.18-.16,66.4,66.4,0,0,1-7.35-1.24,95.34,95.34,0,0,1-23.76-8.78A126.07,126.07,0,0,1,49.1,201.65a136.33,136.33,0,0,1-12.51-10.39c-1.94-1.84-3.81-3.74-5.68-5.64-.93-1-1.85-1.89-2.78-2.82a82,82,0,0,1-13.86-18.56A77.09,77.09,0,0,1,6.83,146,64.86,64.86,0,0,1,5,134.89c-.22-3.13-.45-6.25-.45-9.36V5.73A1.74,1.74,0,0,1,6.31,4H193.58a1.75,1.75,0,0,1,1.75,1.75V128.82c-.25,3.27-.48,6.08-1,8.92a60.42,60.42,0,0,1-3.32,12.67c-3.1,7.75-6,14.18-10.12,20.34-1.75,2.61-3.72,5.24-6.22,8.28a151.4,151.4,0,0,1-13.53,14.37c-2.17,2-4,3.73-6,5.36-1.82,1.47-3.72,2.93-5.82,4.46a95.43,95.43,0,0,1-21,11.77,126.38,126.38,0,0,1-15.55,4.88A54.32,54.32,0,0,1,99.14,222M8.06,7.47V125.53c0,3,.22,6.05.43,9a60.49,60.49,0,0,0,1.72,10.59,73.37,73.37,0,0,0,7.11,17.43,78.51,78.51,0,0,0,13.26,17.78c.94.94,1.88,1.89,2.81,2.84,1.84,1.87,3.68,3.75,5.59,5.56a135.57,135.57,0,0,0,12.2,10.13,124.73,124.73,0,0,0,15.31,9.91,92.41,92.41,0,0,0,22.88,8.44,61.14,61.14,0,0,0,7,1.17,25.49,25.49,0,0,0,2.81.15,51.23,51.23,0,0,0,12.78-2,125,125,0,0,0,15.13-4.75,91.88,91.88,0,0,0,20.24-11.34c2.05-1.49,3.91-2.92,5.68-4.35s3.71-3.2,5.82-5.19a148.33,148.33,0,0,0,13.23-14c2.42-2.95,4.33-5.5,6-8,3.94-5.9,6.76-12.14,9.78-19.7a56.32,56.32,0,0,0,3.11-11.94c.45-2.7.68-5.44.92-8.48V7.47Z" transform="translate(-4.57 -3.98)" fill="#005daa"/><path d="M159.89,161.62c-9.08,0-9.12-1.73-9.3-8.17-.13-5-.49-14.63-.91-25.83-.8-21.62-1.79-48.53-1.79-58.47,0-3.33.69-4.31,1.37-4.83.35-.27,1.79-.91,7.47-.91h1.16V58.59h-1.16c-1.41,0-3.2,0-5,.1s-3.54.09-4.92.09c-2.55,0-5.19-.09-7.83-.18l-.79,0-.32.73c-2.41,5.51-6.07,14.06-10.24,23.81-9.22,21.57-20.56,48.12-26.87,61.53L62,59.32h-.74l-4.53,0-4.54,0c-3.34,0-6.78-.1-10.14-.19l-1.19,0V63.9H42c3.09,0,4.84.37,5.87,1.25s1.41,2.6,1.41,5.73c0,13.46-.81,64.93-1.17,77.39-.39,12.83-2.72,13.35-8.44,13.35H38.49v4.84l1.19,0c6.18-.14,12.43-.24,18.67-.09,2,0,4,.09,6,.09h1.16v-4.81H64.33c-3.38,0-5.73-.23-7-1.34S55.7,157,55.7,152.52c0-.67,0-1.89,0-3.09s0-2.33,0-2.93l.49-64c10.3,21.08,31.31,67.58,38.34,83.35l.31.68h3.53l.25-.82c.76-2.45,2.66-7.09,3.69-9.36L135,83.53l.62,71.87c0,3.91-.91,4.95-1.86,5.49-1.39.73-3.68.73-6.86.73h-1.16v4.84l1.19,0c4.82-.1,12.51-.19,17.14-.19,2.63,0,5.27,0,7.9.1s5.29.09,7.94.09h1.16v-4.81Z" transform="translate(-4.57 -3.98)" fill="#005daa"/><path d="M100.16,48.55a10.5,10.5,0,0,0,10.52-11.12,26.77,26.77,0,0,0-1.35-7.11c0,2.13-.8,5.23-1.93,6.57-.69.82-1.27.42-.91-.67,1.54-4.73,2.56-12.69-7.1-19.57.81,3.29-.13,9.63-2.53,13.09-.5.77-1.17.63-.85-.42a11,11,0,0,0-.4-7.26c-.47,4.41-8.52,9-6.91,16.55a11.66,11.66,0,0,0,11.46,9.94" transform="translate(-4.57 -3.98)" fill="#005daa"/><path d="M93.48,61.5a34.6,34.6,0,0,1,12.93-5.12l1.13-1.14.25-3.24-15.27.16Z" transform="translate(-4.57 -3.98)" fill="#005daa"/><path d="M94.35,69.9l.27,2.67h0L95,75.67l.69,6.79.51,5.09h0L98,105.12a46.14,46.14,0,0,1,5.94-3.54l.78-9.94h0l.21-2.45.43-5.14.1-1.19h0l1.48-18.79c-3,.8-10.77,3.09-12.5,5.84" transform="translate(-4.57 -3.98)" fill="#005daa"/><path d="M117.32,56a9.83,9.83,0,0,0-4.54-1.17,7.44,7.44,0,0,0-4.69,1.64v0l-1.46,1.41-.34.1a50.61,50.61,0,0,0-12.57,5.82l-.19.13c-2.83,2-5.14,4.45-5.64,7.31-.57,3.34,1.44,6.74,6,10.11l-.76-7.84a4,4,0,0,1-.56-3,5.5,5.5,0,0,1,1.36-2.38c.07-.09.15-.17.22-.25,3.34-3.42,10.65-5.67,12.91-6.3l.5-.13.13,0c8.64.63,9.84-4.67,9.89-4.88l.07-.36Z" transform="translate(-4.57 -3.98)" fill="#005daa"/><path d="M107.17,84.31l-.78,6.36c2.25,2.35,3.88,4.86,3.73,7.15q-.16,2.43-3.11,4.23a16.44,16.44,0,0,1-2.3,1.13c-.08,0-.44.19-1,.44a47.28,47.28,0,0,0-5.61,3.19A29.85,29.85,0,0,0,95,109.22c-2,1.82-3.67,3.92-3.88,6.15s1,4.38,3.75,6.26l5.07,2.89,1.22,11.84,2.09-26.63a30.35,30.35,0,0,0-4.56,2.58l1.19,11.6-4.15-4c-1.43-1.2-2-2.44-1.78-3.77a5.6,5.6,0,0,1,1.36-2.55,16.48,16.48,0,0,1,3.22-2.77,39.45,39.45,0,0,1,4.85-2.76c1.68-.82,3.09-1.4,3.78-1.67l.44-.17c5.39-1.86,8.29-4.52,8.6-7.9.44-4.64-4.11-9.81-9-14" transform="translate(-4.57 -3.98)" fill="#005daa"/><path d="M266,121c8.27-17.15,17.18-34,24.81-51.45,2.48.09,5,.18,7.53.18,2.66,0,5.42-.18,8.08-.18v2.38c-3.12,0-5.24.19-6.43,1.1s-1.74,2.48-1.74,5.51c0,14.49.82,29.9,1.19,43.75.18,6.88.83,8.9,10,8.9v2.38c-5,0-10.1-.19-15.15-.19-4.51,0-8.92.09-13.41.19V131.2c3.21,0,5.5,0,7.07-.83s2.38-2.66,2.38-6.24l-.64-43.75h-.18l-21.68,45a95.18,95.18,0,0,0-3.58,9.08h-1.84c-7.81-17.52-16.63-34.68-25.35-52h-.18l-.74,33.2c0,1.19-.09,4.5-.09,5.78,0,4.5.46,7,1.93,8.26s3.76,1.56,7.44,1.56v2.38c-3.77,0-7.63-.19-11.39-.19-4.05,0-8.18.09-12.22.19V131.2c6.52,0,10.56-1.56,10.93-13.85.37-12.57,1-25,1-37.61,0-3.21-.46-5.23-1.75-6.33s-3.3-1.47-6.33-1.47V69.56c3.21.09,6.52.18,9.73.18,1.93,0,3.95-.18,5.88-.18ZM344,108.27l.83-.55a10.27,10.27,0,0,0,.09-1.66c-.09-9.72-8.08-14.4-15.52-14.4-6.43,0-18.56,5.32-18.56,23.3,0,5.87,2.94,20,17.55,20,7.53,0,12.77-4.78,17-10.37l-1.28-1.28c-3.4,3.39-7.36,6.14-12.41,6.14-7.35,0-13-7.15-13.5-15.87a23.46,23.46,0,0,1,0-5.31Zm-25.54-2.94c1.11-6.6,5-10.73,10.57-10.73,5.14,0,8,3.76,8,8.43,0,1.11-.28,2.3-2.57,2.3Zm34.91,22.84c0,3-1.83,3-4.41,3h-1.65v2.38c3.3-.09,6.61-.18,9.92-.18s6.52.18,9.74.18V131.2h-1.66c-2.57,0-4.59,0-4.59-3V101c3-2,7.71-4.41,10.66-4.41,5.23,0,8.44,2.57,8.44,7.8v23.76c0,3-1.83,3-4.4,3h-1.66v2.38c3.31-.09,6.62-.18,9.92-.18s6.53.18,9.74.18V131.2H391.8c-2.57,0-4.59,0-4.59-3V104.5c0-7.15-2.76-12.84-10.57-12.84-6.15,0-10.66,3.12-15.89,6.88v-6c0-.74-.28-.92-.55-.92a123.93,123.93,0,0,1-12.13,4.41v1.74c4.32,1.74,5.33,2.66,5.33,6Zm50.16,0c0,3-1.84,3-4.42,3h-1.65v2.38c3.31-.09,6.62-.18,9.92-.18s6.53.18,9.74.18V131.2h-1.66c-2.57,0-4.59,0-4.59-3V101c3-2,7.72-4.41,10.66-4.41,5.23,0,8.45,2.57,8.45,7.8v23.76c0,3-1.84,3-4.41,3H424v2.38c3.3-.09,6.61-.18,9.92-.18s6.52.18,9.74.18V131.2H442c-2.57,0-4.59,0-4.59-3V104.5c0-7.15-2.75-12.84-10.57-12.84-6.15,0-10.65,3.12-15.89,6.88v-6c0-.74-.27-.92-.55-.92a123.8,123.8,0,0,1-12.12,4.41v1.74c4.31,1.74,5.33,2.66,5.33,6Zm45.37,5.41c3.4-.09,6.71-.18,10-.18s6.51.18,9.64.18V131.2H467c-2.58,0-4.6,0-4.6-3V93c0-.74-.17-1.29-.64-1.29a3.19,3.19,0,0,0-1.65.46c-.37.28-5.51,2-9.83,3.31v1.46c3.39,1.83,4.77,2.38,4.77,6.42v24.86c0,3-1.83,3-4.4,3h-1.75Zm9.83-56A4.59,4.59,0,0,0,463.27,73a4.49,4.49,0,0,0-4.51-4.4,4.5,4.5,0,1,0,0,9m21.12,50.63c0,3-1.83,3-4.4,3h-1.66v2.38c3.31-.09,6.62-.18,9.93-.18s6.51.18,9.74.18V131.2h-1.66c-2.57,0-4.59,0-4.59-3V101c3-2,7.71-4.41,10.65-4.41,5.24,0,8.46,2.57,8.46,7.8v23.76c0,3-1.85,3-4.41,3h-1.66v2.38c3.3-.09,6.62-.18,9.92-.18s6.52.18,9.74.18V131.2h-1.66c-2.57,0-4.59,0-4.59-3V104.5c0-7.15-2.75-12.84-10.56-12.84-6.16,0-10.66,3.12-15.89,6.88v-6c0-.74-.28-.92-.56-.92a123.8,123.8,0,0,1-12.12,4.41v1.74c4.32,1.74,5.32,2.66,5.32,6Zm82.4-34.12a31.83,31.83,0,0,1-5.32.46,29.13,29.13,0,0,1-8.91-1.57A31.65,31.65,0,0,0,540,91.66c-11.31,0-17.18,6.15-17.18,14.13,0,6,3.49,9.54,8.63,12.2-1.28,1.19-5.06,3-7.62,4.58a7.81,7.81,0,0,0-.37,2.94c0,4.22,4.23,6.88,8.08,8v.18c-5.6,1.1-10.75,4.68-10.75,10.55,0,4.95,5.69,10.27,17.36,10.27,19.57,0,24.34-14,24.34-17.61,0-6.88-4.67-9.26-12.57-9.26-3.68,0-8.18-.09-12.68-.09-6.06,0-6.43-2.85-6.43-4.22,0-2.2,1-3.4,2.75-4.68a27,27,0,0,0,5.05.55c11.4,0,17-7.43,17-14.13a11.26,11.26,0,0,0-2.38-7l9.09.37Zm-19.56,39.53c4.87,0,12.95.73,12.95,7.42,0,8.17-10.47,10.55-16.07,10.55-6.43,0-12.13-3-12.13-9.35,0-8.62,9.28-8.62,15.25-8.62m-4-39.53c6.43,0,9.46,6.42,9.46,12s-2.66,10.73-8.91,10.73-8.63-7-8.63-12.29c0-4.86,2.48-10.45,8.08-10.45m58.7,14.22.82-.55a9.25,9.25,0,0,0,.1-1.66c-.1-9.72-8.09-14.4-15.53-14.4-6.43,0-18.56,5.32-18.56,23.3,0,5.87,3,20,17.55,20,7.54,0,12.77-4.78,17-10.37l-1.29-1.28c-3.4,3.39-7.35,6.14-12.4,6.14-7.35,0-13-7.15-13.5-15.87a22.23,22.23,0,0,1,0-5.31Zm-25.54-2.94c1.1-6.6,5-10.73,10.57-10.73,5.14,0,8,3.76,8,8.43,0,1.11-.27,2.3-2.57,2.3ZM600,133.58c3.3-.09,7.16-.18,10.93-.18,3.94,0,7.8.09,12.86.18v-2.39h-5.14c-2.58,0-4.42,0-4.42-3V106.62A7.76,7.76,0,0,1,621,99c3.22,0,3.22,2.2,6.06,2.2a4.46,4.46,0,0,0,4.32-4.68c0-3.29-2.93-4.86-5.24-4.86-5.6,0-9.46,5.87-11.76,9.45h-.18V92.86c0-.92-.27-1.2-.82-1.2-.83,0-4.5,2.39-11.21,5.23v1.37c1.38.74,4.77,1.29,4.77,4.13v25.77c0,3-1.83,3-4.4,3H600Zm34-46a6.68,6.68,0,1,0,6.69-6.66,6.67,6.67,0,0,0-6.69,6.66m12.19,0a5.51,5.51,0,1,1-5.5-5.49,5.51,5.51,0,0,1,5.5,5.49m-5.89.44c.43,0,.84,0,1.14.32A2.94,2.94,0,0,1,642,90c.06.46.18,1,.27,1.39h1.57a10.77,10.77,0,0,1-.47-2.27c-.12-.85-.24-1.33-1.33-1.54v0a1.82,1.82,0,0,0,1.6-1.84c0-1.78-1.5-2.16-2.93-2.16h-2.55V91.4h1.23V88Zm-1-1.22v-2h1.47c1,0,1.25.31,1.25.89s-.27,1.08-1.42,1.12Z" transform="translate(-4.57 -3.98)" fill="#231f20"/></svg>