<svg xmlns="http://www.w3.org/2000/svg" xmlns:xlink="http://www.w3.org/1999/xlink" viewBox="0 0 352.5 179"><defs><style>.cls-1{fill:url(#radial-gradient);}.cls-2{fill:url(#radial-gradient-2);}.cls-3{fill:#002b5c;}.cls-4{fill:#f99d31;}.cls-5{fill:#fbb040;}</style><radialGradient id="radial-gradient" cx="34.63" cy="304.52" r="30.09" gradientTransform="matrix(1, 0, 0, -1, 0, 382.2)" gradientUnits="userSpaceOnUse"><stop offset="0" stop-color="#fff"/><stop offset="1" stop-color="#b2b4b6"/></radialGradient><radialGradient id="radial-gradient-2" cx="34.63" cy="304.52" r="30.09" xlink:href="#radial-gradient"/></defs><title>thermalAsset 1</title><g id="Layer_2" data-name="Layer 2"><g id="Layer_1-2" data-name="Layer 1"><path class="cls-1" d="M29.1 60.3a53.5 53.5.0 01-.5-5.5 32.71 32.71.0 0012.1 63.1 30 30 0 004.3-.3c-1.3-4.6-2.9-9.2-4.7-14.1C36.4 92 31.7 79 29.1 60.3z"/><path class="cls-2" d="M73.5 85.2A32.81 32.81.0 0042.4 52.5c.1 9.7 3 18 6.6 28.7a268.74 268.74.0 019.2 31.7A32.64 32.64.0 0073.5 85.2z"/><path class="cls-3" d="M59.2.0s-33 24.9-28.1 60 17.3 50.8 18.4 71.4 2.2 36.2-13 47.6c0 0 28.7-15.7 21.6-56.2s-20-53.5-17.3-77.3S53.8 5.4 59.2.0z"/><path class="cls-4" d="M7.2 101.7c-4.5-4.9 5.4-20.3 19.3-33 7.3-6.7 14.9-11.6 21.1-14-6.8.8-17.2 6.6-27.2 15.7-13.9 12.7-23.8 28-19.3 33 2.1 2.3 6.8 2 12.4-.2C10.8 103.5 8.5 103.1 7.2 101.7z"/><path class="cls-4" d="M42.1 119.7c-4.5-4.9 3.4-19.8 16.3-31.6 6.8-6.2 13.9-10.6 19.8-12.8-6.5.5-16.3 5.7-25.6 14.1-12.9 11.8-20.8 26.7-16.3 31.7 2.1 2.3 6.4 2.3 11.8.4C45.5 121.7 43.4 121.1 42.1 119.7z"/><path class="cls-4" d="M23 116.2c-5.9-6.5 4.9-26.7 23.8-43.9 9.7-8.9 19.8-15.5 28-18.9-9.2 1.3-23.1 9.1-36.3 21.1C19.6 91.6 9 112.1 15.1 118.8c3.3 3.6 10.5 2.8 19.6-1.5C29.2 118.9 25.2 118.6 23 116.2z"/><path class="cls-3" d="M302.9 66c.1 3.1.5 4.1 1.5 4.4a7.57 7.57.0 001.9.2c.2.0.3.1.3.2s-.2.3-.7.3c-2.2.0-3.7-.1-4.1-.1s-2 .1-3.7.1c-.4.0-.6.0-.6-.3s.1-.2.3-.2a5.29 5.29.0 001.6-.2c1-.3 1.1-1.4 1.1-4.9V43.6c0-1.5.1-1.9.4-1.9s1 .8 1.3 1.2c.6.6 6.3 6.8 12.2 13.1 3.8 4.1 8 8.7 9.2 10l-.4-19.4c0-2.5-.3-3.3-1.5-3.6a7.57 7.57.0 00-1.9-.2c-.3.0-.3-.1-.3-.3s.3-.3.8-.3c1.7.0 3.6.1 4 .1s1.7-.1 3.3-.1c.4.0.7.0.7.3s-.2.3-.4.3a3.44 3.44.0 00-.9.1c-1.3.3-1.4 1.1-1.4 3.4l-.1 22.4c0 2.5-.1 2.7-.3 2.7s-.8-.4-2.8-2.4c-.4-.4-5.9-6-10-10.4-4.4-4.8-8.8-9.6-10-11z"/><path class="cls-3" d="M97.3 60.1c0 3.7.0 6.7.2 8.3.1 1.1.3 2 1.5 2.1a12.77 12.77.0 001.7.2c.2.0.3.1.3.2s-.2.3-.6.3c-2.1.0-4.5-.1-4.7-.1s-2.6.1-3.8.1q-.6.0-.6-.3c0-.1.1-.2.3-.2a4.25 4.25.0 001.1-.2c.8-.2 1-1 1.1-2.1.2-1.6.2-4.6.2-8.3V43.9l-5.6.1c-2.4.0-3.3.3-3.9 1.2-.4.7-.5.9-.7 1.2s-.2.4-.4.4-.2-.1-.2-.3c0-.4.8-3.7.8-4s.2-.7.4-.7a9.42 9.42.0 001.7.5c1.1.1 2.6.2 3 .2h14.3a18.48 18.48.0 003.8-.4c.2.0.2.2.2.5.0 1.1-.1 3.8-.1 4.2s-.1.5-.3.5-.3-.1-.3-.6v-.4c-.2-1.1-1-2-4.7-2.1l-4.8-.1v16z"/><path class="cls-3" d="M138.5 60.1c0 3.7.0 6.7.2 8.3.1 1.1.3 2 1.5 2.1a12.77 12.77.0 001.7.2c.2.0.3.1.3.2s-.2.3-.6.3c-2.1.0-4.5-.1-4.7-.1s-2.6.1-3.7.1q-.6.0-.6-.3c0-.1.1-.2.3-.2a4.25 4.25.0 001.1-.2c.8-.2 1-1 1.1-2.1.2-1.6.2-4.6.2-8.3v-4c0-.2-.1-.2-.2-.2H118.9c-.1.0-.2.0-.2.2v4c0 3.7.0 6.7.2 8.3.1 1.1.3 2 1.5 2.1a12.77 12.77.0 001.7.2c.2.0.3.1.3.2s-.2.3-.6.3c-2.1.0-4.5-.1-4.7-.1s-2.6.1-3.7.1q-.6.0-.6-.3c0-.1.1-.2.3-.2a4.25 4.25.0 001.1-.2c.8-.2 1-1 1.1-2.1.2-1.6.2-4.6.2-8.3V53.4c0-6 0-7-.1-8.3s-.4-1.9-1.6-2.2a5.7 5.7.0 00-1.3-.1c-.2.0-.3-.1-.3-.2s.2-.3.6-.3c1.7.0 4.1.1 4.3.1s2.6-.1 3.7-.1q.6.0.6.3c0 .2-.2.2-.3.2a4.14 4.14.0 00-1 .1c-1 .2-1.3.8-1.4 2.2-.1 1.2-.1 2.3-.1 8.3v.8c0 .2.1.2.2.2H135c.1.0.2.0.2-.2v-.8c0-6 0-7-.1-8.3s-.4-1.9-1.6-2.2a5.7 5.7.0 00-1.3-.1c-.2.0-.3-.1-.3-.2s.2-.3.6-.3c1.7.0 4.1.1 4.3.1s2.6-.1 3.7-.1q.6.0.6.3c0 .2-.2.2-.3.2a4.14 4.14.0 00-1 .1c-1 .2-1.3.8-1.4 2.2-.1 1.2-.1 2.3-.1 8.3v6.7z"/><path class="cls-3" d="M160.9 41.8c8.6.0 15 5.4 15 14.3.0 8.6-6 15.6-15.3 15.6-10.5.0-14.8-8.1-14.8-15C145.8 50.5 150.3 41.8 160.9 41.8zm.8 28.5c3.4.0 10.6-2 10.6-13.1.0-9.2-5.6-14.1-11.6-14.1-6.4.0-11.2 4.2-11.2 12.6C149.4 64.6 154.8 70.3 161.7 70.3z"/><path class="cls-3" d="M212.9 66.3c.2 1.4.4 3.5 2.1 4.1a9.43 9.43.0 002.5.3c.2.0.3.0.3.2s-.3.3-.8.3c-.8.0-5-.1-6.4-.2-.9-.1-1.1-.2-1.1-.4s.1-.2.3-.3.2-.7.2-1.4l-1.8-19.7h-.1l-9.5 19.9c-.8 1.7-.9 2-1.3 2s-.5-.4-1.2-1.8c-1-1.9-4.3-8.5-4.5-8.9-.3-.7-4.6-9.9-5-10.9h-.2l-1.5 17.8v2a1.19 1.19.0 001 1.2 4.72 4.72.0 001.5.2c.2.0.3.1.3.2.0.3-.2.3-.7.3-1.4.0-3.3-.1-3.6-.1s-2.2.1-3.2.1c-.4.0-.7-.1-.7-.3s.2-.2.4-.2a4.91 4.91.0 001.1-.1c1.3-.2 1.4-1.7 1.5-3.2l2.8-24.9c.1-.4.2-.7.4-.7s.4.2.6.6L198 66.5l11.2-24c.2-.3.3-.6.6-.6s.4.3.5 1z"/><path class="cls-3" d="M224.6 53.4c0-6 0-7-.1-8.3s-.4-1.9-1.6-2.2a5.7 5.7.0 00-1.3-.1c-.2.0-.3-.1-.3-.2s.2-.3.6-.3c1.7.0 4 .1 4.3.1.8.0 3.1-.1 4.8-.1 4.8.0 6.5 1.6 7.1 2.2a6.8 6.8.0 011.9 4.6c0 5.4-4 9.1-9.4 9.1h-.8c-.2.0-.4-.1-.4-.3s.2-.3 1-.3a6.33 6.33.0 006.6-6.2 8.18 8.18.0 00-2.1-5.9 6.47 6.47.0 00-5.2-1.9 5.67 5.67.0 00-1.6.2c-.2.1-.3.3-.3.7V60.1c0 3.7.0 6.7.2 8.3.1 1.1.3 2 1.5 2.1a12.77 12.77.0 001.7.2c.2.0.3.1.3.2s-.2.3-.6.3c-2.1.0-4.5-.1-4.7-.1s-2.5.1-3.7.1q-.6.0-.6-.3c0-.1.1-.2.3-.2a4.25 4.25.0 001.1-.2c.8-.2 1-1 1.1-2.1.2-1.6.2-4.6.2-8.3z"/><path class="cls-3" d="M244.8 70.7c-.5-.3-.6-.4-.6-1.5.0-1.9.2-3.4.2-4.1q0-.6.3-.6c.2.0.3.1.3.4a7.6 7.6.0 00.1 1.4c.6 2.8 3.1 3.9 5.7 3.9a5.1 5.1.0 005.5-5.1c0-2.6-1.1-4.2-4.4-6.9l-1.7-1.4c-4.1-3.3-5-5.7-5-8.3.0-4.1 3.1-6.9 7.9-6.9a17.1 17.1.0 013.6.4 4 4 0 001.3.2c.3.0.4.1.4.3a38.85 38.85.0 00-.2 4.1q0 .9-.3.9c-.2.0-.3-.2-.3-.5a5.92 5.92.0 00-.5-1.9c-.2-.4-1.3-2-4.8-2-2.6.0-4.7 1.6-4.7 4.4.0 2.2 1.1 3.5 4.7 6.4l1.1.8c4.5 3.6 5.6 5.9 5.6 9a7.9 7.9.0 01-3.3 6.4 10.33 10.33.0 01-5.8 1.6 11.34 11.34.0 01-5.1-1z"/><path class="cls-3" d="M278.7 41.8c8.6.0 15 5.4 15 14.3.0 8.6-6 15.6-15.3 15.6-10.5.0-14.8-8.1-14.8-15 .1-6.2 4.6-14.9 15.1-14.9zm.8 28.5c3.4.0 10.6-2 10.6-13.1.0-9.2-5.6-14.1-11.6-14.1-6.4.0-11.2 4.2-11.2 12.6C267.3 64.6 272.7 70.3 279.5 70.3z"/><path class="cls-3" d="M108.9 105.1c0 3.6.0 6.5.2 8 .1 1.1.3 1.9 1.4 2a10.28 10.28.0 001.7.1c.2.0.3.1.3.2s-.2.3-.6.3c-2 0-4.4-.1-4.6-.1s-2.5.1-3.6.1q-.6.0-.6-.3c0-.1.1-.2.3-.2s.8-.1 1.1-.1c.7-.1.9-1 1.1-2 .2-1.6.2-4.5.2-8v-3.9a.22.22.0 00-.2-.2H89.8c-.1.0-.2.0-.2.2v3.9c0 3.6.0 6.5.2 8 .1 1.1.3 1.9 1.4 2a10.28 10.28.0 001.7.1c.2.0.3.1.3.2s-.2.3-.6.3c-2 0-4.4-.1-4.6-.1s-2.5.1-3.6.1q-.6.0-.6-.3c0-.1.1-.2.3-.2s.8-.1 1.1-.1c.7-.1.9-1 1.1-2 .2-1.6.2-4.5.2-8V98.6c0-5.8.0-6.8-.1-8s-.4-1.9-1.6-2.1a5.28 5.28.0 00-1.3-.1c-.1.0-.3-.1-.3-.2s.2-.3.6-.3c1.7.0 4 .1 4.2.1s2.5-.1 3.6-.1q.6.0.6.3c0 .1-.1.2-.3.2a3.08 3.08.0 00-.9.1c-1 .2-1.3.8-1.4 2.1s-.1 2.2-.1 8v.8c0 .2.1.2.2.2h15.7c.1.0.2.0.2-.2v-.8c0-5.8.0-6.8-.1-8s-.4-1.9-1.6-2.1a5.28 5.28.0 00-1.3-.1c-.1.0-.3-.1-.3-.2s.2-.3.6-.3c1.7.0 4 .1 4.2.1s2.5-.1 3.6-.1q.6.0.6.3c0 .1-.1.2-.3.2a3.08 3.08.0 00-.9.1c-1 .2-1.3.8-1.4 2.1s-.1 2.2-.1 8v6.5z"/><path class="cls-3" d="M119.6 98.6c0-5.8.0-6.8-.1-8s-.4-1.9-1.6-2.1a5.28 5.28.0 00-1.3-.1c-.1.0-.3-.1-.3-.2s.2-.3.6-.3c1.7.0 4 .1 4.2.1h8.5a5.67 5.67.0 001.6-.2c.2.0.3-.2.5-.2s.1.1.1.3-.2.7-.3 1.7a19.42 19.42.0 01-.2 2.4c0 .2-.1.4-.3.4s-.3-.2-.3-.5a3.18 3.18.0 00-.2-1.3c-.3-.6-.6-1-2.6-1.3-.6-.1-4.7-.1-5.1-.1-.1.0-.2.1-.2.4V99.8c0 .3.0.4.2.4.5.0 5 0 5.9-.1s1.4-.1 1.7-.5.4-.5.6-.5.2.1.2.3-.2.9-.3 2.1a22.75 22.75.0 00-.1 2.4c0 .3.0.7-.3.7a.27.27.0 01-.3-.3 5.28 5.28.0 00-.1-1.2c-.1-.5-.5-1.2-1.9-1.3-1-.1-4.7-.2-5.3-.2a.27.27.0 00-.3.3v9.6c.1 2.6.7 3 4.3 3a11.07 11.07.0 003.6-.4c1-.4 1.4-1.2 1.7-2.7.1-.4.1-.6.3-.6s.2.3.2.6a33.68 33.68.0 01-.5 3.6c-.3 1-.6 1-2 1-5.6.0-8.1-.2-9.2-.2-.2.0-2.5.1-3.6.1q-.6.0-.6-.3c0-.1.1-.2.3-.2s.8-.1 1.1-.1c.7-.1.9-1 1.1-2 .2-1.6.2-4.5.2-8V98.6z"/><path class="cls-3" d="M149.7 88.8c.4-1.2.6-1.4.8-1.4s.4.2.8 1.3c.6 1.4 6.4 16.7 8.6 22.4 1.3 3.3 2.4 3.9 3.2 4.1a4.42 4.42.0 001.5.2c.2.0.4.0.4.2s-.3.3-.7.3c-.6.0-3.3.0-5.8-.1-.7.0-1.1.0-1.1-.3q0-.15.3-.3c.2-.1.4-.4.2-1l-3.4-9.1c-.1-.1-.1-.2-.3-.2h-8c-.2.0-.3.1-.4.3l-2.2 6.6a8.5 8.5.0 00-.5 2.5c0 .7.8 1.1 1.4 1.1h.4c.3.0.4.1.4.2s-.2.3-.6.3c-.9.0-2.5-.1-2.9-.1s-2.4.1-4.2.1c-.5.0-.7-.1-.7-.3s.1-.2.3-.2a4.1 4.1.0 001.1-.1c1.7-.2 2.4-1.6 3.1-3.5zm3.8 14.8c.2.0.2-.1.1-.3l-3.5-10q-.3-.9-.6.0l-3.3 10c-.1.2.0.3.1.3z"/><path class="cls-3" d="M174.2 105.2c0 5.4.1 7.8.8 8.5s1.6.9 4.4.9c2 0 3.6.0 4.5-1.1a4.87 4.87.0 001-2.2c0-.3.1-.5.3-.5s.2.1.2.6a24.92 24.92.0 01-.6 3.7c-.3.9-.4 1-2.3 1-5.3.0-7.8-.2-9.9-.2-.3.0-2.5.1-3.6.1q-.6.0-.6-.3c0-.1.1-.2.3-.2s.8-.1 1.1-.1c.7-.1.9-1 1.1-2 .2-1.6.2-4.5.2-8V98.9c0-5.8.0-6.8-.1-8s-.4-1.9-1.6-2.1a5.28 5.28.0 00-1.3-.1c-.1.0-.3-.1-.3-.2s.2-.3.6-.3c1.7.0 4 .1 4.2.1s2.9-.1 4-.1q.6.0.6.3c0 .1-.1.2-.3.2a5.28 5.28.0 00-1.2.1c-1.1.2-1.4.8-1.4 2.1s-.1 2.2-.1 8z"/><path class="cls-3" d="M197.9 105.1c0 3.6.0 6.5.2 8 .1 1.1.3 1.9 1.4 2a10.28 10.28.0 001.7.1c.2.0.3.1.3.2s-.2.3-.6.3c-2 0-4.4-.1-4.6-.1s-2.5.1-3.6.1q-.6.0-.6-.3c0-.1.1-.2.3-.2s.8-.1 1.1-.1c.7-.1.9-1 1.1-2 .2-1.6.2-4.5.2-8V89.4l-5.5.1c-2.3.0-3.2.3-3.8 1.2a6.66 6.66.0 00-.6 1.1c-.1.3-.2.4-.4.4s-.2-.1-.2-.3c0-.4.7-3.6.8-3.9s.2-.7.4-.7.6.4 1.6.4 2.5.2 2.9.2h13.9a16.89 16.89.0 003.7-.4c.2.0.2.2.2.4.0 1.1-.1 3.7-.1 4.1s-.1.5-.3.5-.3-.1-.3-.6v-.4c-.1-1.1-1-2-4.6-2l-4.7-.1v15.7z"/><path class="cls-3" d="M238.7 105.1c0 3.6.0 6.5.2 8 .1 1.1.3 1.9 1.4 2a10.28 10.28.0 001.7.1c.2.0.3.1.3.2s-.2.3-.6.3c-2 0-4.4-.1-4.6-.1s-2.5.1-3.6.1q-.6.0-.6-.3c0-.1.1-.2.3-.2s.8-.1 1.1-.1c.7-.1.9-1 1.1-2 .2-1.6.2-4.5.2-8v-3.9a.22.22.0 00-.2-.2H219.7c-.1.0-.2.0-.2.2v3.9c0 3.6.0 6.5.2 8 .1 1.1.3 1.9 1.4 2a10.28 10.28.0 001.7.1c.2.0.3.1.3.2s-.2.3-.6.3c-2 0-4.4-.1-4.6-.1s-2.5.1-3.6.1q-.6.0-.6-.3c0-.1.1-.2.3-.2s.8-.1 1.1-.1c.7-.1.9-1 1.1-2 .2-1.6.2-4.5.2-8V98.6c0-5.8.0-6.8-.1-8s-.4-1.9-1.6-2.1a5.28 5.28.0 00-1.3-.1c-.1.0-.3-.1-.3-.2s.2-.3.6-.3c1.7.0 4 .1 4.2.1s2.5-.1 3.6-.1q.6.0.6.3c0 .1-.1.2-.3.2a3.08 3.08.0 00-.9.1c-1 .2-1.3.8-1.4 2.1s-.1 2.2-.1 8v.8c0 .2.1.2.2.2h15.8c.1.0.2.0.2-.2v-.8c0-5.8.0-6.8-.1-8s-.4-1.9-1.6-2.1a5.28 5.28.0 00-1.3-.1c-.1.0-.3-.1-.3-.2s.2-.3.6-.3c1.7.0 4 .1 4.2.1s2.5-.1 3.6-.1q.6.0.6.3c0 .1-.1.2-.3.2a3.08 3.08.0 00-.9.1c-1 .2-1.3.8-1.4 2.1s-.1 2.2-.1 8v6.5z"/><path class="cls-3" d="M250.6 112.4a14.25 14.25.0 01-4.5-11 14.81 14.81.0 014.2-10.1c2.2-2.2 5.6-4 11.3-4a35.26 35.26.0 015.4.4 29.63 29.63.0 003.8.6c.4.0.5.2.5.4s-.1.7-.2 2.1c-.1 1.2-.1 3.3-.1 3.8s-.1.8-.3.8-.3-.3-.3-.8a5.12 5.12.0 00-1.6-3.8c-1.3-1.1-4.2-2.1-7.4-2.1-4.9.0-7.2 1.4-8.5 2.7-2.7 2.6-3.3 5.9-3.3 9.7A13.37 13.37.0 00263 114.7c2.8.0 5-.3 6.4-1.9a6.53 6.53.0 001.4-3.1c.1-.4.1-.6.4-.6s.3.3.3.6a30.49 30.49.0 01-.8 4.7c-.2.7-.3.8-1 1.1a21.28 21.28.0 01-6.7.9c-5.7.0-9.5-1.4-12.4-4z"/><path class="cls-3" d="M287.6 88.8c.4-1.2.6-1.4.8-1.4s.4.2.8 1.3c.6 1.4 6.4 16.7 8.6 22.4 1.3 3.3 2.4 3.9 3.2 4.1a4.42 4.42.0 001.5.2c.2.0.4.0.4.2s-.3.3-.7.3c-.6.0-3.3.0-5.8-.1-.7.0-1.1.0-1.1-.3q0-.15.3-.3c.2-.1.4-.4.2-1l-3.4-9.1c-.1-.1-.1-.2-.3-.2h-8c-.2.0-.3.1-.4.3l-2.2 6.6a8.5 8.5.0 00-.5 2.5c0 .7.8 1.1 1.4 1.1h.4c.3.0.4.1.4.2s-.2.3-.6.3c-.9.0-2.5-.1-2.9-.1s-2.4.1-4.2.1c-.5.0-.7-.1-.7-.3s.1-.2.3-.2a4.1 4.1.0 001.1-.1c1.7-.2 2.4-1.6 3.1-3.5zm3.8 14.8c.2.0.2-.1.1-.3l-3.5-10q-.3-.9-.6.0l-3.3 10c-.1.2.0.3.1.3z"/><path class="cls-3" d="M308.7 98.6c0-5.8.0-6.8-.1-8s-.4-1.9-1.6-2.1a5.28 5.28.0 00-1.3-.1c-.1.0-.3-.1-.3-.2s.2-.3.6-.3c1.7.0 4 .1 4.2.1.4.0 3.2-.1 4.4-.1 2.3.0 4.8.2 6.8 1.6a6.66 6.66.0 012.6 5c0 2.7-1.2 5.5-4.5 8.6 3 3.9 5.6 7.2 7.7 9.5a8.21 8.21.0 004.5 2.7 9.51 9.51.0 001.4.1c.2.0.3.1.3.2s-.2.3-.9.3h-2.6a7.92 7.92.0 01-4-.7c-1.6-.9-2.9-2.7-5-5.4-1.6-2-3.3-4.5-4-5.5-.2-.1-.3-.2-.5-.2l-4.6-.1a.27.27.0 00-.3.3v.9c0 3.6.0 6.5.2 8 .1 1.1.3 1.9 1.4 2a10.28 10.28.0 001.7.1c.2.0.3.1.3.2s-.2.3-.6.3c-2 0-4.4-.1-4.6-.1.0.0-2.4.1-3.5.1q-.6.0-.6-.3c0-.1.1-.2.3-.2s.8-.1 1.1-.1c.7-.1.9-1 1.1-2 .2-1.6.2-4.5.2-8V98.6zm3 3.2c0 .2.1.3.3.4a11.29 11.29.0 003.9.6 4.87 4.87.0 002.8-.7c1.3-.9 2.3-2.9 2.3-5.7.0-4.6-2.4-7.4-6.4-7.4a12.94 12.94.0 00-2.5.2c-.2.1-.3.2-.3.4v12.2z"/><path class="cls-3" d="M339.4 98.6c0-5.8.0-6.8-.1-8s-.4-1.9-1.6-2.1a5.28 5.28.0 00-1.3-.1c-.1.0-.3-.1-.3-.2s.2-.3.6-.3c1.7.0 4 .1 4.2.1h8.5a5.67 5.67.0 001.6-.2c.2.0.3-.2.5-.2s.2.1.2.3-.2.7-.3 1.7a19.42 19.42.0 01-.2 2.4c0 .2-.1.4-.3.4s-.3-.2-.3-.5a3.18 3.18.0 00-.2-1.3c-.3-.6-.6-1-2.6-1.3-.6-.1-4.7-.1-5.1-.1-.2.0-.2.1-.2.4V99.8c0 .3.0.4.2.4.5.0 5 0 5.9-.1s1.4-.1 1.7-.5.4-.5.6-.5.2.1.2.3-.2.9-.3 2.1c-.1.7-.2 2.1-.2 2.4s0 .7-.3.7a.27.27.0 01-.3-.3 5.28 5.28.0 00-.1-1.2c-.1-.5-.5-1.2-1.9-1.3-1-.1-4.7-.2-5.3-.2a.27.27.0 00-.3.3v9.6c.1 2.6.7 3 4.3 3a11.07 11.07.0 003.6-.4c1-.4 1.4-1.2 1.7-2.7q.15-.6.3-.6c.2.0.2.3.2.6a33.68 33.68.0 01-.5 3.6c-.3 1-.6 1-2 1-5.6.0-8.1-.2-9.2-.2-.2.0-2.5.1-3.6.1q-.6.0-.6-.3c0-.1.1-.2.3-.2s.8-.1 1.1-.1c.7-.1.9-1 1.1-2 .2-1.6.2-4.5.2-8V98.6z"/><path class="cls-3" d="M83.7 141.9a6.39 6.39.0 013.5-5.5 5.32 5.32.0 01-1.1-3.1 4.68 4.68.0 014.9-4.2 5.55 5.55.0 012.8.6c.3.2.3.3.3.6a17.19 17.19.0 01-.2 2.6c-.1.3-.1.4-.2.4s-.1-.1-.1-.4a2.52 2.52.0 00-.7-1.9 3.29 3.29.0 00-2.3-1 2.75 2.75.0 00-2.9 3c0 1.8 1.2 3.3 3.6 5.8.8.8 3.6 3.5 4.3 4.1a7.44 7.44.0 001.2-3.8 1.38 1.38.0 00-1.5-1.5c-.1.0-.3.0-.3-.2s.2-.2.4-.2a15.92 15.92.0 012.7.2c.3.0.4.2.4.5.0 1.8-1.3 4.1-2.3 5.4a25.07 25.07.0 003.1 2.3 6.64 6.64.0 002.7.9c.2.0.3.0.3.2s-.2.2-.4.2H99.7c-1.7.0-2.2-.2-4.7-2.1a7.62 7.62.0 01-5.7 2.5 5.69 5.69.0 01-5.6-5.4zm10.7 2.2a40 40 0 01-4.1-3.9 30.19 30.19.0 01-2.7-3.2 4.37 4.37.0 00-2.1 3.8 4.66 4.66.0 004.6 4.9A5.55 5.55.0 0094.4 144.1z"/><path class="cls-5" d="M85.6 133.3a4.92 4.92.0 001 3 6.76 6.76.0 00-3.3 5.6 5.64 5.64.0 006 5.5 7.78 7.78.0 005.7-2.3c2.3 1.8 3 2 4.7 2h2.2c.5.0.9-.3.9-.6s-.1-.6-.8-.6a6.09 6.09.0 01-2.5-.8 24.12 24.12.0 01-2.7-1.9 10.26 10.26.0 002.1-5.3.82.82.0 00-.8-.9l-2.8-.2c-.6.0-.9.3-.9.6s.3.6.8.6a1.88 1.88.0 01.8.2 1.33 1.33.0 01.3.8 7.87 7.87.0 01-.8 3c-1-.9-3.2-2.9-3.8-3.6-2.4-2.6-3.5-3.9-3.5-5.5a2.33 2.33.0 012.4-2.5 2.3 2.3.0 011.9.9 2.11 2.11.0 01.6 1.6c0 .3.0.9.6.9s.7-.6.7-.8l.2-2.7a1 1 0 00-.5-1 6.39 6.39.0 00-3-.6c-3.3-.1-5.5 2.4-5.5 4.6zm-1.4 8.6a6.14 6.14.0 013.2-5.1l.5-.3-.3-.4a4.85 4.85.0 01-1-2.9 3.28 3.28.0 011.2-2.4 3.17 3.17.0 00-.6 2c0 2 1.4 3.7 3.7 6.2.8.8 3.6 3.5 4.4 4.1l.4.3v-.1a.31.31.0 00.2.1 18.69 18.69.0 003.2 2.3 4.88 4.88.0 00.7.3c-1.5.0-2-.1-4.4-2l-.3-.3-.4.4a7 7 0 01-5.3 2.3c-3.8.1-5.2-2.7-5.2-4.5zm13-2.9a2.13 2.13.0 00-.4-1.2 8.37 8.37.0 011.2.1 7 7 0 01-1.2 3.5 10 10 0 00.4-2.4zm-4-8.5a4 4 0 00-1.6-.9 5.32 5.32.0 012 .5v1A2.09 2.09.0 0193.2 130.5z"/><path class="cls-5" d="M87.3 136.6a4.82 4.82.0 00-2.3 4.2 5.11 5.11.0 005 5.4 6.93 6.93.0 004.7-1.8l.4-.4-.4-.3c-1.2-1-3.5-3.2-4.1-3.8a35.62 35.62.0 01-2.6-3.1l-.3-.4zM86 140.9a4 4 0 011.5-3.1 33.2 33.2.0 002.4 2.8c.6.6 2.4 2.4 3.7 3.5a5.27 5.27.0 01-3.6 1.2A4.18 4.18.0 0186 140.9z"/><path class="cls-3" d="M113.2 146.3c-.3-.2-.3-.3-.3-.9.0-1.1.1-2.1.1-2.4s.1-.4.2-.4.2.1.2.3a2.49 2.49.0 00.1.8c.3 1.7 1.8 2.3 3.4 2.3a3.08 3.08.0 003.3-3c0-1.6-.7-2.5-2.6-4.1l-1-.8c-2.4-2-3-3.4-3-4.9.0-2.4 1.8-4.1 4.7-4.1a10.61 10.61.0 012.1.2 2.81 2.81.0 00.8.1c.2.0.2.0.2.2s-.1.9-.1 2.4c0 .4.0.5-.2.5s-.2-.1-.2-.3a3.54 3.54.0 00-.3-1.1c-.1-.3-.8-1.2-2.8-1.2a2.58 2.58.0 00-2.8 2.6c0 1.3.6 2.1 2.8 3.8l.6.5c2.7 2.1 3.3 3.5 3.3 5.4a4.94 4.94.0 01-1.9 3.8 5.89 5.89.0 01-3.4 1 6.83 6.83.0 01-3.2-.7z"/><path class="cls-5" d="M113 133.2c0 1.6.5 3.2 3.1 5.3l1 .8c1.9 1.6 2.4 2.4 2.4 3.7a2.56 2.56.0 01-2.8 2.5 2.72 2.72.0 01-2.9-1.9l-.1-.7c0-.7-.5-.7-.6-.7-.3.0-.6.1-.7.8v.3l-.1 2.2c0 .7.0 1 .6 1.3a8.05 8.05.0 003.3.7 7 7 0 003.7-1 5.09 5.09.0 002.1-4.2c0-2.2-.9-3.7-3.5-5.7l-.6-.5c-2.1-1.7-2.6-2.4-2.6-3.4a2.13 2.13.0 012.3-2.2c1.8.0 2.3.7 2.4 1l.2.9c.1.6.4.7.7.7s.6-.3.6-1l.1-2.2v-.2c0-.3-.2-.6-.7-.6l-.7-.1-2.2-.2c-3-.2-5 1.6-5 4.4zm.4 12.5v-.6a4 4 0 001.9 1.4 4.76 4.76.0 01-1.8-.5h-.1zm7.1-2.6c0-1.9-.9-2.9-2.8-4.5l-1-.8c-2.3-1.9-2.8-3.2-2.8-4.6a3.23 3.23.0 011.3-2.7 2.79 2.79.0 00-.8 2c0 1.5.8 2.4 3 4.2l.6.5c2.6 2.1 3.1 3.4 3.1 5a4.48 4.48.0 01-1.5 3.2 3.34 3.34.0 00.9-2.3zm-1 2.5zm0-15.9a2.18 2.18.0 01.6.1 3.54 3.54.0 00.6.1v.7q-.15-.45-1.2-.9z"/><path class="cls-3" d="M127.1 137v-4.5a1 1 0 00-.9-1.2c-.2.0-.5-.1-.7-.1s-.2.0-.2-.1.1-.2.3-.2c.9.0 2.2.1 2.3.1.5.0 1.7-.1 2.6-.1a5.36 5.36.0 013.9 1.2 3.42 3.42.0 011 2.5 4.83 4.83.0 01-5.1 4.9h-.4c-.1.0-.2.0-.2-.1s.1-.2.6-.2a3.48 3.48.0 003.6-3.4 4.43 4.43.0 00-1.2-3.2 3.6 3.6.0 00-2.8-1 2.22 2.22.0 00-.9.1c-.1.0-.2.2-.2.4v8.5c0 2 0 3.6.1 4.5.1.6.2 1.1.8 1.1.3.0.7.1.9.1a.35.35.0 01.2.1c0 .1-.1.2-.3.2-1.1.0-2.5-.1-2.6-.1s-1.4.1-2 .1c-.2.0-.3.0-.3-.2s0-.1.2-.1a1.27 1.27.0 00.6-.1c.4-.1.5-.5.6-1.1.1-.9.1-2.5.1-4.5z"/><path class="cls-5" d="M128.8 130.5h-3.3c-.8.0-.8.5-.8.7a.67.67.0 00.7.6h.6c.4.1.5.2.5.7v8.2l-.1 4.4c-.1.6-.2.7-.2.7l-.5.1a.67.67.0 00-.7.6.7.7.0 00.8.7l2-.1h.2l2.3.1c.8.0.8-.6.8-.7.0-.3-.2-.6-.7-.6l-.9-.1c-.2.0-.3.0-.4-.7l-.1-4.5v-1.1a.67.67.0 00.7.5h.4a5.36 5.36.0 005.6-5.4 3.86 3.86.0 00-1.2-2.8c-.3-.3-1.4-1.3-4.2-1.3zm-1.3 14.7.1-4.6v-8.2a1.93 1.93.0 00-.3-1h1.2a.85.85.0 00-.2.6v8.5l.1 4.6a1.9 1.9.0 00.3.9h-1.4c.1-.2.1-.6.2-.8zm2.3-13.2a3.22 3.22.0 012.5.9 4 4 0 011 2.9 3 3 0 01-3.1 2.9.93.93.0 00-1 .5v-7l.6-.2zm4.5 3.8a4.85 4.85.0 00-1.3-3.5 3.59 3.59.0 00-1-.7 3.24 3.24.0 012 .9 3.17 3.17.0 01.9 2.1 4.45 4.45.0 01-1.3 3.2 2.88 2.88.0 00.7-2z"/><path class="cls-3" d="M147.3 130.6c4.7.0 8.2 2.9 8.2 7.8a8.14 8.14.0 01-8.3 8.5c-5.7.0-8.1-4.4-8.1-8.2a8 8 0 018.2-8.1zm.4 15.5c1.9.0 5.7-1.1 5.7-7.1.0-5-3-7.7-6.3-7.7-3.5.0-6.1 2.3-6.1 6.8.1 4.9 3 8 6.7 8z"/><path class="cls-5" d="M138.6 138.8c0 4.2 2.7 8.6 8.5 8.6a8.62 8.62.0 008.8-9c0-4.9-3.5-8.3-8.6-8.3A8.55 8.55.0 00138.6 138.8zm1 0a7.49 7.49.0 017.7-7.6c4.6.0 7.7 2.9 7.7 7.3a7.67 7.67.0 01-7.8 8c-5.3-.1-7.6-4-7.6-7.7z"/><path class="cls-5" d="M140.6 138.2c0 4.9 3 8.4 7.1 8.4 2.9.0 6.2-2 6.2-7.6s-3.5-8.1-6.8-8.1c-4 0-6.5 2.8-6.5 7.3zm.9.0c0-4 2.1-6.3 5.6-6.3 2.8.0 5.8 2.2 5.8 7.2.0 6.3-4.4 6.6-5.2 6.6-3.6-.1-6.2-3.1-6.2-7.5z"/><path class="cls-3" d="M160.1 137v-4.5a1 1 0 00-.9-1.2c-.2.0-.5-.1-.7-.1s-.2.0-.2-.1.1-.2.3-.2c.9.0 2.2.1 2.3.1s1.8-.1 2.5-.1a6.32 6.32.0 013.8.9 3.73 3.73.0 011.4 2.8 6.31 6.31.0 01-2.5 4.8c1.7 2.2 3.1 4 4.3 5.3a4.26 4.26.0 002.5 1.5 3.22 3.22.0 00.8.1.35.35.0 01.2.1c0 .1-.1.2-.5.2h-1.5a3.87 3.87.0 01-2.2-.4c-.9-.5-1.6-1.5-2.8-3.1-.9-1.1-1.8-2.5-2.3-3.1-.1-.1-.1-.1-.3-.1h-2.6c-.1.0-.1.1-.1.2v.5c0 2 0 3.6.1 4.5.1.6.2 1.1.8 1.1.3.0.7.1.9.1a.35.35.0 01.2.1c0 .1-.1.2-.3.2-1.1.0-2.5-.1-2.6-.1s-1.3.1-2 .1c-.2.0-.3.0-.3-.2s0-.1.2-.1a1.27 1.27.0 00.6-.1c.4-.1.5-.5.6-1.1.1-.9.1-2.5.1-4.5V137zm1.7 1.8c0 .1.0.2.1.2a5.73 5.73.0 002.2.3 3.17 3.17.0 001.6-.4 3.85 3.85.0 001.3-3.2c0-2.6-1.4-4.2-3.6-4.2-.6.0-1.2.1-1.4.1a.22.22.0 00-.2.2z"/><path class="cls-5" d="M161.7 130.5h-1l-2.1-.1c-.8.0-.8.5-.8.7a.67.67.0 00.7.6h.6c.4.1.5.2.5.7v8.2l-.1 4.4c-.1.6-.2.7-.2.7l-.5.1a.67.67.0 00-.7.6.7.7.0 00.8.7l1.9-.1h.3l2.3.1c.8.0.8-.6.8-.7.0-.3-.2-.6-.7-.6l-.9-.1c-.2.0-.3.0-.4-.7l-.1-4.5v-.2h2.2a8.65 8.65.0 00.7 1l1.5 2 .3.4a10.34 10.34.0 002.7 2.8 4.94 4.94.0 002.5.5h1.5c.2.0 1 0 1-.7a.67.67.0 00-.7-.6l-.7-.1a3.75 3.75.0 01-2.3-1.3l-3.7-4.5a1.87 1.87.0 01-.3-.4c1.6-1.6 2.4-3.1 2.4-4.8a4.12 4.12.0 00-1.6-3.2 6.78 6.78.0 00-4.1-1zm0 1h1.7a6 6 0 013.5.8 2.92 2.92.0 011.2 2.4 5.67 5.67.0 01-2.4 4.4l-.3.3.9 1.1 3.8 4.6a5.3 5.3.0 001.2 1 2.27 2.27.0 01-1.3-.3 10.42 10.42.0 01-2.4-2.6l-.3-.4-2.3-3.1-.7-.3h-2.5c-.4.0-.6.3-.6.7v.5l.1 4.6a3.71 3.71.0 00.2.9h-1.3a3.71 3.71.0 00.2-.9l.1-4.6v-8.2a1.93 1.93.0 00-.3-1h.7z"/><path class="cls-5" d="M161.8 131.3a.75.75.0 00-.5.7v6.8a.75.75.0 00.4.7 5.75 5.75.0 002.4.4 2.62 2.62.0 001.8-.5 4.35 4.35.0 001.5-3.6c0-2.9-1.6-4.6-4.1-4.6zm1.6.8c2 0 3.1 1.3 3.1 3.7a3.21 3.21.0 01-1.1 2.8 2.08 2.08.0 01-1.3.3 5.73 5.73.0 01-1.8-.2v-6.4a8.92 8.92.0 011.1-.2z"/><path class="cls-3" d="M180.6 140.6c0 2 0 3.6.1 4.5.1.6.2 1.1.8 1.1.3.0.7.1.9.1a.35.35.0 01.2.1c0 .1-.1.2-.3.2-1.1.0-2.4-.1-2.6-.1s-1.4.1-2 .1c-.2.0-.3.0-.3-.2s0-.1.2-.1a1.27 1.27.0 00.6-.1c.4-.1.5-.5.6-1.1.1-.9.1-2.5.1-4.5v-8.8h-3.1c-1.3.0-1.8.2-2.1.7a1.89 1.89.0 01-.4.6c-.1.2-.1.2-.2.2s-.1-.1-.1-.2a17.42 17.42.0 01.5-2.2c0-.1.1-.4.2-.4a3 3 0 00.9.2 11 11 0 001.6.1H184a12.09 12.09.0 002.1-.2c.1.0.1.1.1.2.0.6-.1 2.1-.1 2.3a.44.44.0 01-.1.3c-.1.0-.1-.1-.2-.4v-.2c-.1-.6-.6-1.1-2.6-1.1h-2.6z"/><path class="cls-5" d="M173 130.9c0 .1-.5 2-.5 2.3a.67.67.0 00.6.7.79.79.0 00.7-.5l.3-.5c.2-.3.5-.4 1.7-.4h2.6v8.3l-.1 4.4c-.1.6-.2.7-.2.7l-.5.1a.67.67.0 00-.7.6.7.7.0 00.8.7h2.2l2.3.1c.8.0.8-.6.8-.7.0-.3-.2-.6-.7-.6l-.9-.1c-.2.0-.3.0-.4-.7l-.1-4.5v-8.3H183c2 0 2.1.5 2.1.7v.2a.71.71.0 00.7.8c.3.0.6-.2.6-.8l.1-2.3c0-.7-.5-.7-.6-.7h-.3l-1.7.2h-7.8l-1.6-.1-.6-.1-.4-.1c-.3-.1-.4.3-.5.6zm.9.3.6.2a3.75 3.75.0 01.8.1 2.54 2.54.0 00-1.6.5C173.8 131.5 173.9 131.3 173.9 131.2zm6.2.3v9.1l.1 4.6a3.71 3.71.0 00.2.9H179a3.71 3.71.0 00.2-.9l.1-4.6v-9.1zm5.5-.2v.7a2.17 2.17.0 00-1.4-.5C184.6 131.4 185.3 131.4 185.6 131.3z"/><path class="cls-3" d="M189.1 146.4c-.3-.1-.3-.2-.3-.8.0-1 .1-1.9.1-2.2s.1-.3.2-.3.1.1.1.2a2.49 2.49.0 00.1.8c.3 1.5 1.7 2.1 3.1 2.1a2.78 2.78.0 003-2.8c0-1.4-.6-2.3-2.4-3.7l-.9-.8c-2.2-1.8-2.7-3.1-2.7-4.5.0-2.2 1.7-3.7 4.3-3.7a9.2 9.2.0 011.9.2 2.64 2.64.0 00.7.1c.2.0.2.0.2.1s-.1.8-.1 2.2c0 .3.0.5-.1.5s-.1-.1-.2-.3a1.93 1.93.0 00-.3-1c-.1-.2-.7-1.1-2.6-1.1a2.42 2.42.0 00-2.6 2.4c0 1.2.6 1.9 2.5 3.5l.6.5c2.5 1.9 3 3.2 3 4.9a4.13 4.13.0 01-1.8 3.4 5.61 5.61.0 01-3.1.9 8.17 8.17.0 01-2.7-.6z"/><path class="cls-5" d="M188.8 134.4c0 1.5.5 2.9 2.9 4.9l.9.8c1.7 1.4 2.2 2.2 2.2 3.4a2.31 2.31.0 01-2.5 2.3c-.7.0-2.3-.2-2.6-1.7l-.1-.7c0-.7-.5-.7-.6-.7s-.6.1-.7.8v.3l-.1 2c0 .6.0.9.6 1.2a6.68 6.68.0 003 .6 5.48 5.48.0 003.4-1 4.69 4.69.0 002-3.8c0-2-.8-3.4-3.2-5.3l-.6-.5c-1.9-1.6-2.3-2.1-2.3-3.1a1.85 1.85.0 012.1-1.9c1.6.0 2.1.6 2.2.8l.2.8c.1.6.4.7.7.7s.6-.3.6-1l.1-2v-.2c0-.3-.2-.6-.7-.6l-.6-.1-2-.2c-3 0-4.9 1.7-4.9 4.2zm6.3-3.1h.3a1.34 1.34.0 01.5.1v.5A5.55 5.55.0 00195.1 131.3zm-5.8 14.4v-.4a3.14 3.14.0 001.4 1.1 5.73 5.73.0 01-1.4-.4h-.1C189.2 145.9 189.3 145.8 189.3 145.7zm6.5-2.3c0-1.7-.8-2.7-2.6-4.1l-.9-.8c-2.1-1.7-2.5-2.9-2.5-4.1a3.41 3.41.0 01.7-1.9 2.77 2.77.0 00-.3 1.3c0 1.4.7 2.2 2.7 3.9l.6.5c2.4 1.9 2.8 3 2.8 4.5a3.93 3.93.0 01-1.1 2.6A4.67 4.67.0 00195.8 143.4z"/><path class="cls-3" d="M227.2 143.7c.1.8.3 2.1 1.2 2.4a5.42 5.42.0 001.5.2c.1.0.2.0.2.1s-.2.2-.5.2c-.5.0-3-.1-3.8-.1-.5.0-.6-.1-.6-.2s0-.1.2-.2.1-.4.1-.8l-1.1-11.8h-.1l-5.6 11.9c-.5 1-.5 1.2-.8 1.2s-.3-.2-.7-1c-.6-1.1-2.6-5.1-2.7-5.3-.2-.4-2.8-5.9-3-6.5h-.1l-.9 10.6v1.2a.86.86.0 00.6.7 3.44 3.44.0 00.9.1c.1.0.2.0.2.1s-.1.2-.4.2c-.8.0-1.9-.1-2.1-.1s-1.3.1-1.9.1c-.2.0-.4.0-.4-.2s.1-.1.2-.1a2.25 2.25.0 00.7-.1c.8-.1.8-1 .9-1.9l1.6-14.9c0-.3.1-.4.3-.4s.2.1.3.3l7 14.3 6.7-14.3c.1-.2.2-.4.3-.4s.2.2.3.6z"/><path class="cls-5" d="M224.6 129.3s-5.5 11.8-6.3 13.4c-.8-1.6-6.5-13.4-6.5-13.4a.89.89.0 00-.8-.6c-.3.0-.6.1-.7.8l-1.6 14.9c-.1 1-.2 1.4-.5 1.5l-.6.1a.67.67.0 00-.7.6c0 .1.0.7.9.7h2.3l1.7.1c.8.0.9-.5.9-.7a.67.67.0 00-.7-.6l-.8-.1a.22.22.0 01-.2-.2v-1.1s.6-6.5.8-8.9c.9 1.9 2.2 4.7 2.3 5l2.7 5.3c.5 1 .7 1.3 1.1 1.3s.6-.3 1-1.2c0 0 4-8.4 5-10.7.2 2.4.9 10.1.9 10.1v.5a.55.55.0 00-.3.5c0 .6.7.7 1.1.7l3.9.1c.9.0 1-.6 1-.7s-.1-.6-.7-.6l-1.3-.2c-.6-.2-.8-1.1-.9-2l-1.5-14c0-.3-.1-1-.8-1-.4-.3-.6.2-.7.4zm-15 15.2s1.5-13.2 1.6-14.3c.5 1 7.2 14.7 7.2 14.7s6.4-13.7 6.9-14.7l1.5 13.5a4.26 4.26.0 00.8 2.3 14.78 14.78.0 01-1.6-.1c0-.1.1-.2.1-.3v-.4l-1.3-13.5-.8 1.6-5.7 12.2a1.44 1.44.0 01-.2.3l-.2-.4c0-.1-2.6-5.2-2.6-5.2l-.1-.2c-.2-.4-2.8-5.9-3-6.5l-1 .1-.9 10.6v1.2a1.42 1.42.0 00.2.6h-1c0-.4.1-1 .1-1.5z"/><path class="cls-3" d="M235.4 137v-4.5a1 1 0 00-.9-1.2c-.2.0-.5-.1-.7-.1s-.2.0-.2-.1.1-.2.3-.2c.9.0 2.2.1 2.3.1H241c.4.0.7-.1.9-.1s.2-.1.3-.1.1.1.1.2-.1.4-.2 1c0 .2-.1 1.1-.1 1.4a.35.35.0 01-.1.2c-.1.0-.2-.1-.2-.3a2 2 0 00-.1-.7c-.1-.3-.4-.6-1.5-.7-.4.0-2.6-.1-2.8-.1s-.1.1-.1.2v5.7c0 .1.0.2.1.2h3.3a1.33 1.33.0 001-.3q.15-.3.3-.3c.1.0.1.0.1.2s-.1.5-.2 1.2c0 .4-.1 1.2-.1 1.3s0 .4-.1.4-.1-.1-.1-.2a2 2 0 00-.1-.7c-.1-.3-.3-.6-1.1-.7-.6-.1-2.6-.1-3-.1a.1.1.0 00-.1.1v5.3c.1 1.4.4 1.7 2.4 1.7a6.8 6.8.0 002-.2c.5-.2.8-.6.9-1.5.0-.2.1-.3.2-.3s.1.2.1.3a19.58 19.58.0 01-.3 2c-.1.5-.3.5-1.1.5-3.1.0-4.5-.1-5.1-.1-.1.0-1.4.1-2 .1-.2.0-.3.0-.3-.2s0-.1.2-.1a1.27 1.27.0 00.6-.1c.4-.1.5-.5.6-1.1.1-.9.1-2.5.1-4.5V137z"/><path class="cls-5" d="M241.9 130.4l-.8.1h-5l-2.1-.1c-.8.0-.8.5-.8.7a.67.67.0 00.7.6h.6c.4.1.5.2.5.7v8.2l-.1 4.4c-.1.6-.2.7-.2.7l-.5.1a.67.67.0 00-.7.6.7.7.0 00.8.7h2.8l4.4.1c.8.0 1.3.0 1.6-.9l.3-2.1c0-.7-.4-.8-.6-.8-.5.0-.6.5-.7.7-.1.8-.3 1-.6 1.1a5.24 5.24.0 01-1.8.2c-1.9.0-1.9-.2-1.9-1.2v-5c.5.0 2.6.1 2.6.1.6.1.6.2.7.4l.1.6a.67.67.0 00.6.7c.2.0.6-.1.6-.9l.1-1.3.2-1.2a.67.67.0 00-.6-.7l-.6.4c-.1.1-.4.1-.7.2h-2.9v-5.2c.5.0 2.4.1 2.4.1 1 .1 1 .3 1.1.4l.1.6a.71.71.0 00.7.8.69.69.0 00.6-.6l.1-1v-.4l.1-.7.1-.4c0-.5-.3-.7-.6-.7zm-6.1 14.8.1-4.6v-8.2a1.69 1.69.0 00-.3-1h1.3a.59.59.0 00-.2.5v5.7c0 .4.1.5.3.6a.55.55.0 00-.3.5v5.4c.1 1.2.4 1.7 1.2 1.9h-2.2c0-.2.1-.6.1-.8zm5.3-13.7a2.64 2.64.0 00.7-.1 2 2 0 01-.1.5 1.88 1.88.0 00-.9-.4zm-.5 6.8c.3.0.5-.1.8-.1a1 1 0 01-.1.4h0a2.39 2.39.0 00-.7-.3zm1.2 7.8c.2-.1.2-.2.3-.3v.3l-.1.2h-.8C241.4 146.2 241.6 146.2 241.8 146.1z"/><path class="cls-3" d="M248.2 137v-4.5a1 1 0 00-.9-1.2c-.2.0-.5-.1-.7-.1s-.2.0-.2-.1.1-.2.3-.2c.9.0 2.2.1 2.3.1s1.6-.1 2.8-.1c2.1.0 5.9-.2 8.3 2.4a7.64 7.64.0 012 5.3 9.1 9.1.0 01-2.2 5.9 8.47 8.47.0 01-6.3 2.4c-1.8.0-4.4-.2-4.6-.2s-1.4.1-2 .1c-.2.0-.3.0-.3-.2s0-.1.2-.1a1.27 1.27.0 00.6-.1c.4-.1.5-.5.6-1.1.1-.9.1-2.5.1-4.5zm1.7 2.2v4.5a7 7 0 00.2 1.6c.3.4 1.1.8 3.5.8a7 7 0 004.9-1.9 7.38 7.38.0 001.7-5 7.22 7.22.0 00-2-5.2c-2-2.1-4.3-2.3-6.8-2.3-.4.0-1.2.1-1.3.1s-.2.2-.2.4v7z"/><path class="cls-5" d="M252.2 130.4h-3.5l-2.1-.1c-.8.0-.8.5-.8.7a.67.67.0 00.7.6h.6c.4.1.5.2.5.7v8.2l-.1 4.4c-.1.6-.2.7-.2.7l-.5.1a.67.67.0 00-.7.6.7.7.0 00.8.7h2.5l4.1.2a8.82 8.82.0 006.6-2.5 9 9 0 002.4-6.2 8.14 8.14.0 00-2.1-5.6c-2.3-2.5-6-2.5-8.2-2.5zm-2.6 1.1h2.7c2 0 5.4.0 7.6 2.2a6.78 6.78.0 011.9 4.9 7.4 7.4.0 01-8 7.7l-4-.2h-1.3a3.71 3.71.0 00.2-.9l.1-4.6v-8.2a1.69 1.69.0 00-.3-1h.7z"/><path class="cls-5" d="M250 131.4a.79.79.0 00-.5.8v11.5a3.36 3.36.0 00.3 1.8c.5.7 1.7 1 3.9 1a6.73 6.73.0 007.1-7.4 8.18 8.18.0 00-2.1-5.6c-2.2-2.3-4.8-2.5-7.1-2.5-.1.2-1.3.2-1.6.4zm1.5.7c2.6.0 4.7.4 6.4 2.2a7.22 7.22.0 011.9 4.9 6.84 6.84.0 01-1.5 4.6 6.59 6.59.0 01-4.6 1.8c-2.5.0-3-.5-3.1-.6a7.31 7.31.0 01-.1-1.3V132.2l1-.1z"/><path class="cls-3" d="M268.5 140.6c0 2 0 3.6.1 4.5.1.6.2 1.1.8 1.1.3.0.7.1.9.1a.35.35.0 01.2.1c0 .1-.1.2-.3.2-1.1.0-2.5-.1-2.6-.1s-1.4.1-2 .1c-.2.0-.3.0-.3-.2s0-.1.2-.1a1.27 1.27.0 00.6-.1c.4-.1.5-.5.6-1.1.1-.9.1-2.5.1-4.5v-8.2c0-.7-.2-1.1-.7-1.2a1.49 1.49.0 00-.6-.1c-.1.0-.2.0-.2-.1s.1-.2.3-.2c.7.0 2 .1 2.1.1s1.4-.1 2-.1c.2.0.3.0.3.2s-.1.1-.2.1a1.09 1.09.0 00-.5.1c-.6.1-.7.5-.8 1.2v8.2z"/><path class="cls-5" d="M268 130.5h-2.4c-.8.0-.8.5-.8.7a.67.67.0 00.7.6l.5.1c.1.0.3.1.4.7v8.2l-.1 4.4c-.1.6-.2.7-.2.7l-.5.1a.67.67.0 00-.7.6.7.7.0 00.8.7h2.2l2.3.1c.8.0.8-.6.8-.7.0-.3-.2-.6-.7-.6l-.9-.1c-.2.0-.3.0-.4-.7l-.1-4.5v-8.2c0-.7.2-.7.4-.7l.4-.1a.67.67.0 00.7-.6.7.7.0 00-.8-.7zm-.8 14.7.1-4.6v-8.2a2.65 2.65.0 00-.3-1h1.4a1.64 1.64.0 00-.2 1v8.2l.1 4.6a3.71 3.71.0 00.2.9h-1.4a2.48 2.48.0 01.1-.9z"/><path class="cls-3" d="M276.1 144.7a8 8 0 01-2.5-6.1 8.62 8.62.0 012.3-5.7c1.2-1.2 3.1-2.2 6.3-2.2.8.0 2 .1 3 .2a21.11 21.11.0 002.1.3c.2.0.3.1.3.2a8.37 8.37.0 00-.1 1.2 12.17 12.17.0 01-.1 2.1c0 .3-.1.4-.2.4s-.2-.1-.2-.4a2.58 2.58.0 00-.9-2.1 7 7 0 00-4.2-1.2c-2.8.0-4 .8-4.8 1.5a7.07 7.07.0 00-1.9 5.4 7.51 7.51.0 007.5 7.6c1.6.0 2.8-.2 3.6-1a6.26 6.26.0 00.8-1.7c0-.2.1-.3.2-.3s.1.1.1.3a13.15 13.15.0 01-.5 2.7c-.1.4-.2.4-.5.6a12.72 12.72.0 01-3.7.5c-2.9-.1-5-.8-6.6-2.3z"/><path class="cls-5" d="M275.6 132.5a8.92 8.92.0 00-2.5 6 8.31 8.31.0 002.7 6.5 10.27 10.27.0 007.2 2.4 11.55 11.55.0 003.9-.5 1.06 1.06.0 00.8-.9 24.29 24.29.0 00.5-2.8c0-.6-.4-.8-.6-.8-.4.0-.6.2-.7.7a4.71 4.71.0 01-.6 1.5c-.6.6-1.6.9-3.3.9a7 7 0 01-7-7.1c0-2.4.5-3.9 1.7-5.1a6.27 6.27.0 014.4-1.4 6.34 6.34.0 013.8 1.1 2.61 2.61.0 01.7 1.7c0 .6.2.9.7.9s.7-.7.7-.9l.1-2.1.1-1.2a.67.67.0 00-.7-.7l-2-.3a25.5 25.5.0 00-3.1-.3c-3.1.1-5.3.8-6.8 2.4zm2.3-.4c-.2.2-.5.2-.7.4A1.61 1.61.0 01277.9 132.1zm-1.5 12.2a7.26 7.26.0 01-2.4-5.8 7.84 7.84.0 012.2-5.3 4.23 4.23.0 01.7-.5c-1.7 1.7-1.9 3.8-1.9 5.7a7.85 7.85.0 007.6 8 9.27 9.27.0 01-6.2-2.1zm10.4 1c0 .1-.1.3-.1.4l-.1.2-.2.1a5.25 5.25.0 01-2 .3 3.31 3.31.0 002.4-1zm-.2-13.1a4.21 4.21.0 00-1.9-.9.9.9.0 01.5.1s1.5.2 2 .3c0 .1-.1.9-.1.9v.4A5.58 5.58.0 00286.6 132.2z"/><path class="cls-3" d="M294.8 140.6c0 2 0 3.6.1 4.5.1.6.2 1.1.8 1.1.3.0.7.1.9.1a.35.35.0 01.2.1c0 .1-.1.2-.3.2-1.1.0-2.5-.1-2.6-.1s-1.4.1-2 .1c-.2.0-.3.0-.3-.2s0-.1.2-.1a1.27 1.27.0 00.6-.1c.4-.1.5-.5.6-1.1.1-.9.1-2.5.1-4.5v-8.2c0-.7-.2-1.1-.7-1.2a1.49 1.49.0 00-.6-.1c-.1.0-.2.0-.2-.1s.1-.2.3-.2c.7.0 2 .1 2.1.1s1.4-.1 2-.1c.2.0.3.0.3.2s-.1.1-.2.1a1.09 1.09.0 00-.5.1c-.6.1-.7.5-.8 1.2v8.2z"/><path class="cls-5" d="M294.3 130.5h-2.4c-.8.0-.8.5-.8.7a.67.67.0 00.7.6l.5.1c.1.0.3.1.3.7v8.2l-.1 4.4c-.1.6-.2.7-.2.7l-.5.1a.67.67.0 00-.7.6.7.7.0 00.8.7h2.2l2.3.1c.8.0.8-.6.8-.7.0-.3-.2-.6-.7-.6l-.9-.1c-.2.0-.3.0-.4-.7l-.1-4.5v-8.2c0-.7.2-.7.4-.7l.4-.1a.67.67.0 00.7-.6.7.7.0 00-.8-.7zm-.8 14.7.1-4.6v-8.2a2.65 2.65.0 00-.3-1h1.4a1.64 1.64.0 00-.2 1v8.2l.1 4.6a1.9 1.9.0 00.3.9h-1.4A1.38 1.38.0 01293.5 145.2z"/><path class="cls-3" d="M303.6 143.8c0 1.7.2 2.2.8 2.4a4.59 4.59.0 001 .1c.1.0.2.0.2.1s-.1.2-.4.2c-1.2.0-2-.1-2.2-.1s-1.1.1-2 .1c-.2.0-.3.0-.3-.2s.1-.1.2-.1a3.44 3.44.0 00.9-.1c.5-.1.6-.7.6-2.6V131.7c0-.8.1-1 .2-1s.5.5.7.7c.3.4 3.4 3.7 6.6 7.1 2.1 2.2 4.3 4.7 5 5.4l-.2-10.5c0-1.3-.2-1.8-.8-2a4.59 4.59.0 00-1-.1.35.35.0 01-.2-.1c0-.1.2-.1.4-.1.9.0 1.9.1 2.2.1s.9-.1 1.8-.1c.2.0.4.0.4.1s-.1.1-.2.1a1.34 1.34.0 00-.5.1c-.7.1-.8.6-.8 1.8v12.2c0 1.4.0 1.5-.2 1.5s-.4-.2-1.5-1.3c-.2-.2-3.2-3.3-5.4-5.6-2.4-2.6-4.8-5.2-5.4-6z"/><path class="cls-5" d="M301.9 131.7v11.9c0 1.1.0 2.1-.3 2.2l-.7.1a.67.67.0 00-.7.6.7.7.0 00.8.7h2.3l1.9.1c.8.0.9-.5.9-.7s-.2-.6-.7-.6l-.9-.1c-.2-.1-.4-.3-.4-1.9.0.0-.2-6.7-.2-8.6 1.2 1.4 4.5 5 4.5 5 2.2 2.4 5.2 5.4 5.4 5.7 1.2 1.2 1.5 1.5 1.8 1.5.7.0.7-.6.7-2V133.4c0-1.3.1-1.3.4-1.4l.4-.1c.5.0.7-.3.7-.6s-.1-.6-.9-.6H313c-.7.0-.9.3-.9.6s.3.6.7.6l.9.1c.2.1.4.1.4 1.5.0.0.2 7.3.2 9.3-.5-.5-4.1-4.5-4.1-4.5l-6.8-7.3-.9-.6c-.6-.2-.6.6-.6 1.3zm1 11.9v-9.2c0 .9.3 9.5.3 9.5a4.5 4.5.0 00.4 2.3h-1a8.36 8.36.0 00.3-2.6zm0-11.9v-.2l6.7 7.2 5.8 6.3v.9a8.18 8.18.0 01-.8-.9c-.2-.2-3.2-3.2-5.4-5.6.0.0-6.2-6.8-6.2-6.9S302.9 131.7 302.9 131.7zm12.8-.2a4 4 0 00-.3 1.7v10.2c0-1-.2-10-.2-10a3 3 0 00-.4-1.8h.4z"/><path class="cls-3" d="M323.1 137v-4.5a1 1 0 00-.9-1.2c-.2.0-.5-.1-.7-.1s-.2.0-.2-.1.1-.2.3-.2c.9.0 2.2.1 2.3.1h4.8c.4.0.7-.1.9-.1s.2-.1.3-.1.1.1.1.2-.1.4-.2 1c0 .2-.1 1.1-.1 1.4a.35.35.0 01-.1.2c-.1.0-.2-.1-.2-.3a2 2 0 00-.1-.7c-.1-.3-.4-.6-1.5-.7-.4.0-2.6-.1-2.8-.1s-.1.1-.1.2v5.7c0 .1.0.2.1.2h3.3a1.33 1.33.0 001-.3q.15-.3.3-.3c.1.0.1.0.1.2s-.1.5-.2 1.2c0 .4-.1 1.2-.1 1.3s0 .4-.1.4-.1-.1-.1-.2a2 2 0 00-.1-.7c-.1-.3-.3-.6-1.1-.7-.6-.1-2.6-.1-3-.1a.1.1.0 00-.1.1v5.3c.1 1.4.4 1.7 2.4 1.7a6.8 6.8.0 002-.2c.5-.2.8-.6.9-1.5.0-.2.1-.3.2-.3s.1.2.1.3a19.58 19.58.0 01-.3 2c-.1.5-.3.5-1.1.5-3.1.0-4.5-.1-5.1-.1-.1.0-1.4.1-2 .1-.2.0-.3.0-.3-.2s0-.1.2-.1a1.27 1.27.0 00.6-.1c.4-.1.5-.5.6-1.1.1-.9.1-2.5.1-4.5V137z"/><path class="cls-5" d="M329.5 130.4l-.8.1h-5l-2.1-.1c-.8.0-.8.5-.8.7a.67.67.0 00.7.6h.6c.4.1.5.2.5.7v8.2l-.1 4.4c-.1.6-.2.7-.2.7l-.5.1a.67.67.0 00-.7.6.7.7.0 00.8.7h2.8l4.4.1c.8.0 1.3.0 1.6-.9l.3-2.1c0-.7-.4-.8-.6-.8-.5.0-.6.5-.7.7-.1.8-.3 1-.6 1.1a5.24 5.24.0 01-1.8.2c-1.9.0-1.9-.2-1.9-1.2v-5c.5.0 2.6.1 2.6.1.6.1.6.2.7.4l.1.6a.67.67.0 00.6.7c.2.0.6-.1.6-.9l.1-1.3.2-1.2a.67.67.0 00-.6-.7l-.6.4c-.1.1-.4.1-.7.2h-2.9v-5.2c.5.0 2.4.1 2.4.1.9.1 1 .3 1.1.4l.1.6a.71.71.0 00.7.8.69.69.0 00.6-.6l.1-1v-.4l.1-.7.1-.4c0-.5-.3-.7-.6-.7zm-6 14.8.1-4.6v-8.2a1.69 1.69.0 00-.3-1h1.3a.59.59.0 00-.2.5v5.7c0 .4.1.5.3.6a.55.55.0 00-.3.5v5.4c.1 1.2.4 1.7 1.2 1.9h-2.2a2.2 2.2.0 01.1-.8zm5.2-13.7a2.64 2.64.0 00.7-.1 2 2 0 01-.1.5 1.88 1.88.0 00-.9-.4zm-.4 6.8c.3.0.5-.1.8-.1a1 1 0 01-.1.4h0c-.2-.1-.5-.2-.7-.3zm1.1 7.8c.2-.1.2-.2.3-.3v.3l-.1.2h-.8c.3-.1.5-.1.6-.2z"/></g></g></svg>