<svg id="Layer_1" data-name="Layer 1" xmlns="http://www.w3.org/2000/svg" width="263.5" height="50" viewBox="0 0 263.5 50"><defs><style>.cls-1{fill:#1d3666;}.cls-2{fill:#ffba00;}.cls-3{fill:#00b3e3;}.cls-4{fill:#006ba6;}</style></defs><path class="cls-1" d="M255.4,35.4v-.7h3.2v.7h-1.2v3.1h-.9V35.4Zm4.6.9.7,2.2h.7l.7-2.1a6.3729,6.3729,0,0,0,.2-.7h0v2.8h.8V34.7h-1.2l-.7,2c-.1.2-.1.5-.2.7h0a6.3729,6.3729,0,0,0-.2-.7l-.7-2h-1.2v3.8h.8V35.7h0a1.1005,1.1005,0,0,1,.3.6Z"/><path class="cls-1" d="M86.9,17.9H78.1V38.4h-5V17.9H64.4V13.8H86.8C86.9,13.9,86.9,17.9,86.9,17.9Zm5.2-4.4a2.7951,2.7951,0,0,0-2.8,2.8v.5a2.8763,2.8763,0,0,0,2.3,2.3H92a2.7754,2.7754,0,0,0,2.8-2.7v-.5a2.8763,2.8763,0,0,0-2.3-2.3Zm2.4,7.8H89.8V38.4h4.7Zm21.3,17.1h-4.7V35.1a6.2211,6.2211,0,0,1-6,3.8c-5.1,0-7.8-4-7.8-9.1s2.6-9.2,7.8-9.2a5.9931,5.9931,0,0,1,6,3.8V14h4.7Zm-4.5-8.2v-.7c0-3.2-1.9-5.1-4.6-5.1-3,0-4.5,2.1-4.5,5.4s1.5,5.4,4.5,5.4c2.6.1,4.5-1.8,4.6-5Zm23.2-2.6v6.9a1.13,1.13,0,0,0,1,1.3h.3a3.194,3.194,0,0,0,1.4-.3V38a4.3358,4.3358,0,0,1-3.2,1.1,3.4127,3.4127,0,0,1-3.6-3c-1,2-3.3,3-5.8,3-3.6,0-5.8-1.8-5.8-4.8,0-3.3,2.7-4.7,6.6-5.4l4.8-1v-.5a2.7953,2.7953,0,0,0-2.4-3.1h-.6a3.28,3.28,0,0,0-3.4,2.9l-4.3-.4c.6-3.5,3.3-6,7.9-6,4.7,0,7.2,2.1,7.1,6.8Zm-4.4,3.5v-.4l-3.2.7c-2.1.4-3.5.8-3.5,2.5,0,1.2.9,1.9,2.4,1.9a4.4022,4.4022,0,0,0,4.4-4.2,1.3382,1.3382,0,0,1-.1-.5ZM144.3,14h-4.8V38.6h4.8Zm26,0h-4.9V24H153.3V14h-5V38.6h5V27.9h12.1V38.5h4.9Zm20,15.4V31H177.4a4.4863,4.4863,0,0,0,4.7,4.3,4.1409,4.1409,0,0,0,4.4-2.9l3.8.4c-.9,3.8-3.9,6.1-8.3,6.1-5.3,0-9.2-3.4-9.2-8.9a9.0392,9.0392,0,0,1,8.6-9.4h.4c5.6.2,8.5,4.1,8.5,8.8Zm-4.6-1.3a3.9048,3.9048,0,0,0-3.9-3.9h-.1c-2.6,0-3.9,1.8-4.3,3.9Zm22.4-.5v6.9a1.13,1.13,0,0,0,1,1.3h.3a3.194,3.194,0,0,0,1.4-.3V38a4.3358,4.3358,0,0,1-3.2,1.1,3.4127,3.4127,0,0,1-3.6-3c-1,2-3.3,3-5.9,3-3.6,0-5.8-1.8-5.8-4.8,0-3.3,2.7-4.7,6.6-5.4l4.8-1v-.5a2.7953,2.7953,0,0,0-2.4-3.1h-.6a3.28,3.28,0,0,0-3.4,2.9l-4.3-.4c.6-3.5,3.3-6,7.9-6s7.3,2.1,7.2,6.8Zm-4.6,3.5v-.4l-3.2.7c-2.1.4-3.5.8-3.5,2.5,0,1.2.9,1.9,2.4,1.9a4.3335,4.3335,0,0,0,4.4-4.2.7494.7494,0,0,0-.1-.5ZM217.8,14h-4.7V38.6h4.7Zm9.1,2.5H224l-.5,2.3c-.4,1.6-.9,2.5-2.6,2.8l-1.2.2v2.7h2.4v9.6c0,3.7,2.2,4.9,4.9,4.9a7.6119,7.6119,0,0,0,4.8-1.5V34.4a6.41,6.41,0,0,1-3,.8,1.8562,1.8562,0,0,1-2.1-2.1V24.6h4.7V21.3h-4.7ZM239.3,14h-4.7V38.6h4.7V29.3c0-2.9,1.5-4.8,3.9-4.8s3.4,1.5,3.4,4.2v9.9h4.7V27.8c0-3.8-1.7-6.9-6.3-6.9a5.8921,5.8921,0,0,0-5.6,3.3L239.3,14Z"/><path class="cls-1" d="M27.2,27.1h10l1.6,2.8a13.297,13.297,0,0,1-23.2,13,13.7049,13.7049,0,0,1-1.7-6.5,14.8733,14.8733,0,0,1,.5-3.6,15.6585,15.6585,0,0,1,1.2-3L17.2,27l10,.1-3.7,6.3a3.5521,3.5521,0,0,0-.4.9,2.0788,2.0788,0,0,0-.1,1.1,4.1183,4.1183,0,0,0,4.1,4.1,4.1853,4.1853,0,0,0,4.1-4.1c0-.4-.1-.7-.1-1.1a3.5521,3.5521,0,0,0-.4-.9Z"/><path class="cls-2" d="M51.8,7.2A13.2869,13.2869,0,0,0,33.6,2.3a12.3066,12.3066,0,0,0-4.8,4.8L27.2,9.9h0l10,17.3h3.2a11.2355,11.2355,0,0,0,3.2-.4,12.1542,12.1542,0,0,0,3.3-1.4A13.2869,13.2869,0,0,0,51.8,7.2ZM41.4,17.9a2.9946,2.9946,0,0,1-1,.4,3.4019,3.4019,0,0,1-1,.1H32.2l3.6-6.2a5.5469,5.5469,0,0,1,.6-.8,5.4956,5.4956,0,0,1,.9-.7,4.1461,4.1461,0,0,1,4.1,7.2Z"/><path class="cls-3" d="M17.3,27.1l10-17.3L25.6,7a16.38,16.38,0,0,0-2-2.6,15.3517,15.3517,0,0,0-2.9-2.1,13.2925,13.2925,0,0,0-14,22.6,2.994,2.994,0,0,0,.8.4A12.4944,12.4944,0,0,0,14,27.1Zm-3.2-8.8a2.9946,2.9946,0,0,1-1-.4,4.0762,4.0762,0,0,1-1.9-5.5,4.1622,4.1622,0,0,1,5.5-1.9,2.1859,2.1859,0,0,1,.5.3,5.4956,5.4956,0,0,1,.9.7,5.5469,5.5469,0,0,1,.6.8l3.6,6.2H15.1A3.553,3.553,0,0,1,14.1,18.3Z"/><path class="cls-4" d="M17.3,27.1l10-17.3,10,17.3Z"/></svg>