<?xml version="1.0" encoding="UTF-8"?> <!-- Generator: Adobe Illustrator 24.0.0, SVG Export Plug-In . SVG Version: 6.00 Build 0) --> <svg xmlns="http://www.w3.org/2000/svg" xmlns:xlink="http://www.w3.org/1999/xlink" version="1.1" id="Layer_1" x="0px" y="0px" viewBox="0 0 784.2 577.7" style="enable-background:new 0 0 784.2 577.7;" xml:space="preserve"> <style type="text/css"> .st0{fill:#C51F34;} .st1{fill:#221F20;} </style> <path class="st0" d="M204.5,11.7c34.9-7.2,70.6-10.4,106.2-11.6c18.3,0,36.7-0.5,55,1c43.9,3.1,88,11.6,127.9,30.8 c14.3,7.7,28.9,15.9,40.1,27.9c-8.1-1-16.1-3-24-5c-44.4-9.6-89.4-17.6-134.8-20.4c-12.7-0.6-25.4-1.5-38.2-0.8 c-12.7,0.8-25.3,0.4-38,1c-13,1.2-26.1,0.3-39,2.3c-3.4,0.3-3.9,4.3-4.9,6.9c-7.4,25.5-14.9,51-21.6,76.6 c-14.6,56.5-26.6,113.8-34.3,171.7c-1.5,14.7-3.5,29.3-4.8,44c-1.5,20.9-2.8,41.9-3.8,62.8c0.2,11.4-1.2,22.7-1,34 c-0.4,19-0.4,38,0,56.9c-0.3,8.4,0.5,16.7,0.9,25c-0.1,10.7,0.8,21.3,1.1,32c0.6,8.5,1.2,17,0.7,25.5c-4.5-3.7-7.1-9-9.8-14.1 c-9.5-18-15-37.9-19.2-57.7c-9.2-47.8-10.6-96.8-7.7-145.2c0.9-6.9,0.6-14,1.7-20.9c7.4-76.8,23.1-152.5,41.7-227.3 c4.6-18.3,9.7-36.4,14.4-54.7c0.5-2.5,1.2-4.9,1.9-7.3c-4.1,0.5-8.1,0.9-12.1,2c-18.4,4.8-37.1,8.8-55.1,15 c-17.9,5.3-35.2,12.1-52.7,18.7C84.4,85.7,73,89.7,62.2,95c-7,3.6-14.4,6.1-21.4,9.6c-6.3,2.9-12.4,6.8-19.5,7.6 c3.8-6.9,9.3-12.6,14.7-18.3c20.7-21.6,46.1-38,72.8-51.1C139.2,28.3,171.6,18.2,204.5,11.7z"></path> <path class="st1" d="M298.7,34.4c12.7-0.6,25.3-0.2,38-1c12.7-0.6,25.5,0.3,38.2,0.8c45.4,2.8,90.4,10.8,134.8,20.4 c7.9,2,15.9,4,24,5c3.8,1.2,3.1,6.2,0.2,8c-48.7-12.3-98.2-21.8-148.2-26.5c-13-0.6-25.9-2.1-38.9-1.9c-7.7,0.2-15.4-0.5-23,0.5 c-7,0.2-14.1-0.1-21.1,0.1c-12.9,1.5-26,0.3-38.8,3.2c-14.4,45.6-26.8,91.9-37.3,138.5c-8.4,37.4-15.3,75.2-20.5,113.2 c-4.7,36.1-7.4,72.5-9,108.9c-0.2,4.6,0.3,9.3-0.4,14c-0.7,9,0.5,18-0.8,27c-0.1,14,0,28-0.1,42.1c-0.1,2.4,0.2,4.8,0.5,7.2 c0.6,8.6-0.4,17.3,0.7,25.9c0.1,10.3,0.2,20.6,1,30.8c0.1,9,1.5,18,1.3,27c-3.2-0.4-6.1-2.4-7.2-5.5c0.5-8.5-0.1-17-0.7-25.5 c-0.3-10.7-1.2-21.3-1.1-32c-0.4-8.3-1.2-16.7-0.9-25c-0.5-19-0.5-38,0-56.9c-0.3-11.4,1.2-22.7,1-34c1-20.9,2.2-41.9,3.8-62.8 c1.3-14.7,3.3-29.3,4.8-44c7.7-57.9,19.6-115.1,34.3-171.7c6.8-25.7,14.2-51.1,21.6-76.6c1-2.6,1.5-6.5,4.9-6.9 C272.6,34.7,285.7,35.7,298.7,34.4z"></path> <path class="st1" d="M203.1,46.9c4-1,8-1.5,12.1-2c-0.7,2.4-1.4,4.9-1.9,7.3c-22.8,5-45.3,11.3-67.6,18.3 c-35.9,12-70.5,27.4-104.9,43.2c-4.4,2.1-8.7,4.3-13.3,6.1c-2.6,0.7-5.1-0.3-7.6-1c-0.1-2.2,0.1-4.4,0.5-6.5l0.9-0.2 c7.1-0.8,13.2-4.7,19.5-7.6c7-3.5,14.4-6,21.4-9.6c10.8-5.4,22.2-9.3,33.1-14.4c17.4-6.6,34.8-13.4,52.7-18.7 C166,55.7,184.7,51.7,203.1,46.9z"></path> <path class="st1" d="M411.7,91.7c7.4-7.2,18-10.1,28.1-9.9c7.2,0.6,15.2,1.9,20,8c6.3,7.5,5,18,3.9,27c-5,0-9.9,0-14.9,0.1 c1-6.5,1.8-14-2.7-19.5c-7.5-6.5-19.6-4.2-26,2.8c-7.1,7.7-10.2,18-13,27.9c-2.6,10.5-4.9,21.1-6.1,31.8c-0.4,6.6-1.1,13.6,2.1,19.7 c3.1,6.2,11.1,7.8,17.4,6.2c5.6-0.8,9.9-4.9,13.1-9.2c3.7-5.9,6-12.5,7.6-19.2c4.9-0.1,9.9-0.1,14.8,0c-3.2,10.8-7.5,21.9-15.9,29.8 c-6.8,7-16.6,11-26.3,10.7c-7.2,0.3-15.3-1.1-20.4-6.6c-5.2-4.9-7-12.4-7.2-19.3c-0.9-12.8,2-25.5,4.6-38 C394.8,118.6,399.7,102.5,411.7,91.7z"></path> <path class="st1" d="M316.7,84.2c4.5,0,9.1,0,13.6,0c-1.1,5-2.2,10-3.1,15.1c-4.6-0.1-9.2-0.1-13.9,0 C314.6,94.3,315.6,89.2,316.7,84.2z"></path> <path class="st1" d="M699.3,87.4c4.4,0.1,8.8,0,13.2,0.1c-0.8,8.3-3.6,16.2-4.7,24.5c10.3,0,20.5,0,30.8,0 c-0.1,14.9,0.7,29.8,0.9,44.7c1.1,6.8-0.1,13.7,1,20.5c2.1-3.3,3.4-7,4.9-10.5c7.9-18.2,15.8-36.4,23.6-54.7c5-0.1,10,0,15.1,0 c-15.2,31.2-30.1,62.6-45.5,93.7c-2.8,5.8-6.7,11.4-12.5,14.6c-6.8,3.6-14.7,3.1-22.1,2.2c0.8-3.6,1.6-7.1,2.3-10.7 c4.2,0.6,8.7,1.4,12.6-0.6c4.7-1.9,6.7-6.9,9.1-11.1c0.7-1.5,2.1-3,1.7-4.9c-0.7-5.5-0.7-11.1-1.3-16.6c-1.6-14.1-1.8-28.3-3.3-42.4 c-0.3-7.4-1.4-14.7-1.4-22.1c-0.3-0.2-0.9-0.6-1.2-0.8c-2.4,1.9-1.6,6.1-2.7,8.9c-4.8,0-9.7,0-14.5,0c-3.7,18-7.7,35.9-11.4,53.9 c-0.4,2.3,0,4.7,0,7.1c3.9,1.9,8.2,1.6,12.4,1.6c-0.7,3.6-1.5,7.3-2.3,10.9c-6.6,0.5-13.6,1.6-20-0.6c-5-1.4-6-7.6-5.1-12 c4-20.3,8.7-40.6,12.7-60.9c-4.1,0-8.1,0-12.2,0c1.1-3.4,1.8-6.8,2.3-10.3c4.1-0.1,8.2-0.1,12.3-0.1 C695.9,103.7,697.5,95.6,699.3,87.4z"></path> <path class="st1" d="M288.4,111.2c4.2-2,9-2,13.4-1c-0.6,4.6-1.6,9.1-2.6,13.6c-3.2-0.3-6.5-1.5-9.7-0.3c-9.1,2-16.3,9.6-18.2,18.7 c-3.8,17.9-7.7,35.8-11.4,53.8c-4.5,0-9.1,0-13.6,0.1c5.8-28,11.9-56,17.8-84c4.5,0.1,9.1,0,13.6,0c-0.7,3.7-1.6,7.3-2.2,11 C279.1,118.4,282.8,113.5,288.4,111.2z"></path> <g> <path class="st1" d="M496.1,110.3c8.2-1.7,17.7-1.1,24.4,4.5c5.5,5.3,6.5,13.4,6.8,20.6c-1.2,15.7-4.4,31.7-12.4,45.4 c-5,8.6-13.6,15-23.5,16.5c-7.7,0.7-16.5,0.7-22.7-4.7c-3.8-4-6.1-9.5-6.4-15c-0.9-11.6,1.4-23.1,4.6-34.1 c3-9.6,7.1-19.2,14.8-25.9C485.6,113.8,490.7,111.4,496.1,110.3z M497,121c-4.2,1.7-8,4.8-10.2,8.8c-4.4,7.5-6.6,16-8.4,24.4 c-1.3,7.4-3.2,14.9-2.1,22.5c0.5,4,2.6,8.3,6.7,9.7c5.4,1.8,11.5-0.1,15.4-4.1c6.3-6.4,9-15.3,11.1-23.8c1.7-7.2,3.5-14.4,3.2-21.8 c0-3.8,0.3-7.9-1.8-11.2C508.5,120.5,501.9,119.2,497,121z"></path> </g> <path class="st1" d="M629.2,120.7c6.5-8,17.2-12.4,27.5-10.8c4.6,0.7,9.7,2.5,11.7,7.1c3.4,7.2,0.8,15.3-0.7,22.6 c-3.9,18.8-8.1,37.5-11.9,56.3c-4.5-0.1-9.1,0-13.6,0c4-20.3,8.7-40.6,12.8-60.9c0.8-3.5,0.8-7.4-1.1-10.6c-2.9-3.5-8-3.7-12.2-2.6 c-6,1.4-11.2,5.7-13.9,11.1c-2.1,5.1-2.7,10.6-4,15.9c-3.3,15.7-6.8,31.3-9.9,47.1c-4.6,0-9.2,0-13.8,0c6.1-28,11.8-56,18-84 c4.4,0,8.8,0,13.1,0C630.6,114.8,629.9,117.7,629.2,120.7z"></path> <path class="st1" d="M310.8,111.9c4.5,0.1,9,0.1,13.5,0c-5.8,28-11.9,56-17.7,84c-4.6,0-9.2,0-13.8,0 C299.1,167.9,304.8,139.9,310.8,111.9z"></path> <path class="st1" d="M546.3,111.9c4.4,0.1,8.9,0,13.3,0.1c-4,21-8.9,41.7-13,62.7c-0.7,3.8,0.5,8.2,3.9,10.3 c4.8,2.3,10.5,0.9,15-1.5c5.9-2.9,9.6-9.2,10.7-15.5c4-18.7,7.9-37.4,11.9-56.1c4.5,0.1,8.9,0,13.4,0.1c-5.7,28-11.8,56-17.7,84 c-4.4-0.1-8.7,0-13.1-0.1c0.8-3,1.4-6,2.1-9c-5.8,6.6-14.1,11.3-23.1,10.8c-6,0.4-12.9-1.4-16-7c-2.7-5.4-1.6-11.8-0.5-17.5 C537.6,152.7,541.8,132.3,546.3,111.9z"></path> <path class="st1" d="M331.8,157.3c1-4,2-8.1,2.7-12.2c12.8,0,25.6,0.1,38.5,0c-1,4-1.7,8.1-2.6,12.2 C357.5,157.3,344.7,157.3,331.8,157.3z"></path> <g> <path class="st1" d="M23.6,237.3c10.7-0.1,21.4,0,32.1-0.1c7.9,0.3,16.8,1.8,21.8,8.6c5.2,7.8,4.2,18.1,1.8,26.7 c-2.8,11.9-11.6,22.4-23.1,26.6c-10.2,3.9-21.3,2.7-32,2.9c-3,15.7-6.9,31.2-9.7,46.9c-4.8-0.1-9.7-0.1-14.5,0 c7.7-35.2,15-70.4,22.5-105.6C23,241.4,23.3,239.3,23.6,237.3z M35.5,249c-3,13.8-5.8,27.5-8.8,41.3c8.6-0.3,18,1.6,26-2.5 c8.4-4.8,12.9-14.6,13.4-24c0.4-5.2-1.8-11.6-7.2-13.2C51.5,247.7,43.3,249.3,35.5,249z"></path> </g> <path class="st1" d="M251,274.2c5.6-7.1,14.5-11.5,23.6-11.4c4.2,0.3,8.8,1,11.8,4.3c1.6,2.5,2.3,5.4,2.9,8.2 c5.4-6.2,12.2-11.9,20.8-12.4c6.9-0.5,16.2,1.1,18.7,8.7c2,7.8,0,16-1.8,23.6c-3.6,17.9-7.7,35.8-11.3,53.7c-4.6,0-9.1,0-13.7,0 c4.3-20.5,8.7-40.9,13-61.3c0.3-3.3,1-7.2-1.2-10.1c-2.3-3.4-7-3.6-10.6-2.6c-7.2,1.6-13.1,7.5-14.8,14.7 c-4.2,19.8-8.5,39.5-12.6,59.3c-4.6,0-9.2-0.1-13.8,0c4.2-18.4,7.9-37,11.9-55.5c0.8-4.8,2.7-9.9,0.7-14.7c-1.7-3.6-6.2-5.2-9.9-4.2 c-8.4,1-15,8.5-16.5,16.6c-4.2,19.2-8.2,38.5-12.3,57.7c-4.5,0-9.1,0-13.6,0c6.1-27.9,11.8-55.9,17.9-83.9c4.3,0,8.6,0,12.9,0.1 C252.5,268.1,251.9,271.2,251,274.2z"></path> <g> <path class="st1" d="M371.1,263.4c6.8-1.2,14.2-0.8,20.4,2.5c6.4,4.2,9.6,12.2,9.3,19.7c0.6,12.6-2.4,25-6.3,36.9 c-3.8,10.1-9.8,20.2-19.8,25.2c-8.8,4-19.6,5-28.4,0.5c-6.1-2.9-9.1-9.6-9.9-16c-1.3-12.6,1.5-25.1,5-37.1 c3.3-9.9,8.1-19.7,16.6-26.2C361.7,265.8,366.5,264.3,371.1,263.4z M372,274c-4.3,1-8,4-10.3,7.7c-6.9,10.4-8.9,23-11.1,35 c-0.7,6.6-1.8,14.1,2.3,19.9c3,4.4,9,4.1,13.6,2.9c8.6-3.4,12.4-12.7,15.1-20.9c2.8-10.1,5.5-20.4,5.2-31c0-3.5-0.3-7.4-2.8-10.2 C381.3,273.7,376.2,272.9,372,274z"></path> </g> <path class="st1" d="M431.4,273.4c6.4-6.9,15.7-11.6,25.3-10.5c4.7,0.5,10.1,1.7,12.9,5.9c3.2,5.2,2.6,11.7,1.4,17.5 c-4.4,20.9-8.9,41.8-13.4,62.7c-4.5,0-9.1,0-13.6,0c4.5-20.5,8.9-41.1,13-61.7c0.9-4.2,0.1-9.7-4.1-11.9c-9.6-3.3-20.7,3.4-24,12.7 c-2,6.2-2.6,12.7-4.3,19c-2.9,14-5.9,28-8.9,42c-4.5-0.1-9.1,0-13.6-0.1c6.1-27.9,11.9-55.9,17.9-83.8c4.4,0,8.7,0,13.1,0 C432.7,267.8,432,270.6,431.4,273.4z"></path> <g> <path class="st1" d="M495.6,269.5c6.7-5.5,15.7-6.6,24.1-6.9c6.4,0.7,14.3,0.9,18.4,6.6c3.2,4.2,2.4,9.9,2,14.8 c-2.9,14.2-6.1,28.4-9.1,42.7c-0.9,4.1-1.9,8.3-2.1,12.5c2.1,0.6,4.2,0.8,6.4,0.7c-0.7,3-1.2,6.1-1.7,9.1 c-4.8,0.5-9.7,0.9-14.5,0.1c-4-1.1-3.6-6.2-3.6-9.5c-5.7,6.7-13.9,11.2-22.7,11.6c-6.7-0.2-14.7-2.4-17.2-9.4 c-2.6-7.8-1-16.6,2.5-23.9c2.5-5.7,7.2-10.4,13-12.9c9.4-3.9,19.6-5.2,29-9.1c5.6-2.3,6.8-8.9,6.9-14.3c0.1-3.7-3-6.9-6.5-7.6 c-4.4-1-9.4-0.6-13.2,2c-5.2,3-7.6,9.1-8.7,14.7c-4.5-0.1-9.1,0-13.6-0.1C486.3,282.8,489.3,274.8,495.6,269.5z M509.5,309.4 c-5.5,1.7-11.5,3.1-15.7,7.4c-4.2,4.8-5.4,11.5-4.8,17.8c0.7,3,3.5,5.5,6.6,5.6c10.4,1.2,20.7-6.8,22.6-17.1 c1.1-6.2,2.6-12.2,3.9-18.4C518,306.4,513.8,308.2,509.5,309.4z"></path> </g> <path class="st1" d="M572.6,276.7c4.1-6.2,9.7-12.2,17.4-13.5c3.1-0.9,6.2-0.4,9.2,0.5c-1,4.4-1.9,8.8-2.7,13.3 c-3.5-0.3-7-1.2-10.5-0.1c-9,2.3-16,10.2-17.7,19.3c-3.9,17.6-7.5,35.2-11.3,52.8c-4.6,0-9.1,0-13.7,0c6-27.9,12.1-55.8,17.7-83.8 c4.6-0.1,9.2-0.1,13.8-0.1C573.9,268.9,573.1,272.7,572.6,276.7z"></path> <path class="st1" d="M92.2,265c4.6,0.1,9.2,0,13.8,0c-4.4,19.5-8.3,39.1-12.6,58.6c-1,4.5-1.8,10,1.7,13.7c3.8,2.8,8.8,2.5,13,0.9 c7.2-2.2,12.5-8.8,13.8-16.1c4-19.1,8.2-38.1,12-57.2c4.6,0.1,9.1,0.1,13.7,0.1c-5.8,28-12,55.9-17.7,83.9c-4.4,0-8.8,0-13.2,0 c0.8-2.9,1.4-5.8,1.9-8.7c-8.1,9.5-22.4,14.1-34,8.4c-5.2-2.4-6.7-8.5-6.8-13.8c1.3-11.1,4.3-21.8,6.5-32.7 C86.9,289.8,89.7,277.4,92.2,265z"></path> <path class="st1" d="M603,265c4.8,0.1,9.7,0.1,14.6,0c1,5.5,0.6,11.1,0.7,16.6c1,11.6,0.9,23.2,1.2,34.8c0.8,5,0.4,10.1,0.6,15.1 c9.8-22.1,19.2-44.4,28.7-66.6c5,0,10,0,15,0.1c-13.2,27.3-26.4,54.7-39.7,82c-2.8,6.1-5.6,12.1-9.2,17.8 c-4,6.2-10.7,10.8-18.2,11.2c-4.3,0.1-8.5,0-12.8-0.1c0.5-3.7,1.3-7.3,1.9-10.9c5.3,0.5,11.5,1.4,15.8-2.5c3.2-3.5,5.4-7.8,7.5-12 c0.7-6.3-1-12.6-1-18.9C606.3,309.5,604.8,287.2,603,265z"></path> <path class="st1" d="M106.7,388.6c8.4-0.6,17.8-0.1,24.4,5.8c6.5,6.6,6.6,16.9,4.2,25.3c-4.7,0-9.4,0-14,0 c1.1-5.4,1.8-11.9-2.1-16.3c-4.7-4.1-11.5-4-17.2-2.5c-10.7,2.5-17.1,14.4-15.6,24.9c0.9,3.7,3.4,6.9,6.6,8.8 c9.6,5.9,22.1,6.4,30.3,14.6c4.1,3.6,5.3,9.3,5.3,14.5c-0.4,12.9-6.4,26.2-17.4,33.4c-10.5,7-24.1,8.7-36.3,6.2 c-6.2-1.2-12.3-4.8-14.8-10.9c-3.3-8.3-1.5-17.4-0.1-25.9c4.7,0,9.4,0,14.1,0c-1,7.3-3.7,16,1.7,22.2c4.6,3.7,11,4.4,16.7,3.7 c13.2-1.8,23.6-16.2,19.7-29.2c-3.8-7.8-12.7-10.2-20.2-12.9c-8-2.8-17.1-6.7-20.1-15.4c-2.8-9.3-0.3-19.4,4.3-27.7 C81.8,395.8,94.2,389,106.7,388.6z"></path> <g> <path class="st1" d="M240.7,418.6c5.8-2.9,12.5-2.2,18.8-2.1c6.3,0.6,12.6,4.5,14.6,10.8c4.4,11.3,0.2,23.3-1.5,34.7 c-14.7,0.1-29.4,0-44.1,0.1c-1.2,6.9-3.2,13.8-2.3,20.8c0.2,4.4,3,8.9,7.4,10.2c6.2,1.8,13.4-1.1,16.9-6.6c2.5-3.6,4.1-7.8,5.1-12 c4.5,0.1,9.1,0,13.6,0c-2.5,10.7-9.2,20.5-18.7,26.1c-9.1,4.5-20.8,5.8-29.8,0.3c-4.7-2.7-6.8-8.2-8-13.2 c-1.5-12.6,1.2-25.3,4.6-37.4C221.2,437.6,227.7,423.9,240.7,418.6z M241.1,431.1c-5.8,5.2-8.5,12.9-9.9,20.3c9.7,0,19.4,0,29.1,0 c1.5-5.4,2.1-11.1,1.3-16.7c-0.6-4.4-4.7-7.9-9-7.9C248.4,426.4,244.1,428.1,241.1,431.1z"></path> </g> <g> <path class="st1" d="M312.6,417.5c4.2-1.7,8.8-1.1,13.1-1.2c7.4-0.3,15.5,4,17.6,11.4c3.4,11.2,0.1,22.9-1.8,34.1 c-14.5,0.1-29,0.1-43.5,0c-1.7,2.7-1.4,6-2.2,9c-0.9,6-1.8,12.7,1.4,18.2c3.6,5.1,11.2,5.6,16.3,2.6c6.6-3.3,9.3-10.7,11.1-17.4 c4.5,0.1,9.1,0.1,13.6,0.1c-2.7,10.3-8.8,20.2-18.2,25.6c-8.4,4.6-18.9,5.8-27.9,2.1c-5.1-1.9-8.6-6.8-9.8-12 c-2.2-8.3-0.9-17,0.4-25.4c2.5-12.2,5.8-24.7,13.1-35C300,424.1,305.8,419.5,312.6,417.5z M311.7,429.6 c-6.7,5.3-9.8,13.7-11.5,21.8c9.9,0,19.8,0.1,29.6-0.1c0.3-4.2,1.4-8.3,1.7-12.5c-0.6-3.9-1.4-8.6-5.2-10.7 C321.7,425.7,315.9,426.9,311.7,429.6z"></path> </g> <g> <path class="st1" d="M375.4,427.1c5.1-6.4,12.8-11.5,21.3-10.7c6.4-0.7,13.1,2.4,16.3,8.1c4.6,7.4,3.6,16.7,3.1,25 c-1.8,13.3-5.5,26.4-12.6,37.9c-4.8,8.2-12.6,15.4-22.3,16.8c-4.1,0.9-8.4,0.1-12-1.8c-3.4-2-5.5-5.5-7.2-8.9 c-2.2,12-4.8,23.9-7.5,35.8c-4.6,0-9.1,0-13.6,0c8.2-37,15.8-74.1,23.7-111.2c4.3,0.2,8.5,0,12.8,0.1 C377,421.2,376.3,424.1,375.4,427.1z M387.1,428.3c-9,2.4-13.1,11.9-15.7,19.9c-2.9,10.6-5.7,21.5-4.9,32.5 c0.4,5.2,3.7,11.2,9.4,11.8c6.3,1.1,12.4-2.8,15.4-8.1c6.3-10.3,8.3-22.5,10.5-34.1c0.7-6.2,1.7-13.2-1.9-18.8 C397.1,427.3,391.5,427.3,387.1,428.3z"></path> </g> </svg> 