
<svg width="208" height="61" viewBox="0 0 208 61" preserveAspectRatio="xMinYMin meet" xmlns="http://www.w3.org/2000/svg"><g fill="none" fill-rule="evenodd"><g fill="#4e5050"><path d="m197.515 22.102v7.222c1.057-1.636 2.717-2.189 4.303-2.214 3.497 0 5.209 2.315 5.209 5.738v6.845h-2.038v-6.82c0-2.441-1.26-3.825-3.525-3.825-2.263 0-3.925 1.786-3.925 4.051v6.594h-2.063v-17.616h2.039z"/><path d="m189.766 27.286h3.85v1.761h-3.876v6.569c0 1.459.479 2.389 1.963 2.389.552 0 1.183-.174 1.736-.452l.604 1.712c-.831.377-1.585.578-2.416.604-2.668.049-3.925-1.511-3.925-4.253v-6.569h-2.493v-1.761h2.493v-3.423l2.064-.227z"/><path d="m181.703 39.692h2.063v-17.616h-2.063z"/><path d="m173.058 29.022c-2.467 0-4.455 1.762-4.455 4.53s1.988 4.555 4.455 4.555c5.989 0 5.989-9.11.025-9.11zm4.528 10.72-.049-2.264c-.981 1.711-2.869 2.516-4.58 2.516-3.574 0-6.367-2.466-6.367-6.518 0-4.026 2.844-6.442 6.391-6.417 1.862 0 3.701.856 4.605 2.466l.026-2.264h2.013v12.431h-1.987z"/><path d="m163.544 32.57c-.1-2.415-1.762-3.724-4.202-3.724-2.165 0-4.053 1.309-4.405 3.699h8.607zm1.208 5.134c-1.259 1.485-3.422 2.214-5.361 2.214-3.85 0-6.542-2.542-6.542-6.492 0-3.75 2.692-6.443 6.442-6.443 3.8 0 6.694 2.341 6.216 7.298h-10.57c.227 2.29 2.114 3.725 4.505 3.725 1.409 0 3.121-.554 3.951-1.56l1.384 1.258z"/><path d="m149.022 31.74h-10.066v7.952h-2.188v-17.616h2.188v7.625h10.066v-7.625h2.19v17.616h-2.19z"/><path d="m123.167 45.555h-2.215l2.592-6.039-5.008-12.256h2.34l2.442 6.468 1.358 3.548 1.335-3.523 2.742-6.493h2.265z"/><path d="m113.749 27.286h3.85v1.761h-3.876v6.569c0 1.459.479 2.389 1.963 2.389.553 0 1.183-.174 1.737-.452l.604 1.712c-.831.377-1.585.578-2.416.604-2.668.049-3.926-1.511-3.926-4.253v-6.569h-2.491v-1.761h2.491v-3.423l2.064-.227z"/><path d="m105.661 39.692h2.063v-12.482h-2.063zm2.416-16.206c0 1.786-2.718 1.786-2.718-.026 0-1.786 2.718-1.786 2.718.026z"/><path d="m91.917 27.235h1.888l.1 1.988c1.082-1.485 2.592-2.164 4.253-2.164 3.145 0 5.46 2.114 5.46 5.763v6.87h-2.063v-6.845c0-2.391-1.409-3.876-3.775-3.876-2.264.026-3.825 1.813-3.825 4.052v6.669h-2.038z"/><path d="m87.768 39.692h2.063v-12.482h-2.063zm2.415-16.206c0 1.786-2.717 1.786-2.717-.026 0-1.786 2.717-1.786 2.717.026z"/><path d="m79.682 27.235.15 1.862c.856-1.61 2.392-2.063 3.826-2.063 1.082-.025 2.138.352 2.894.931l-.932 1.761c-.654-.453-1.309-.679-2.164-.679-1.987.025-3.648 1.434-3.648 3.725v6.92h-2.063v-12.432h1.911z"/><path d="m65.208 24.04v-1.963h14.193v1.963h-6.014v15.652h-2.165v-15.652z"/></g><path d="m60.231 31.729-.215.214-2.052 2.009c-6.53 6.402-11.982 9.97-19.207 5.574 4.397 7.226.829 12.675-5.574 19.206l-2.007 2.053-.216.214c3.078-5.874 6.618-16.151 2.396-26.873v-.001.001-.001.001c10.725 4.221 20.999.681 26.875-2.397" fill="#61296d"/><path d="m29.271 61-.215-.215-2.008-2.053c-6.403-6.528-9.971-11.981-5.575-19.206-7.224 4.397-12.676.828-19.206-5.574l-2.052-2.009-.215-.214c5.875 3.079 16.15 6.62 26.874 2.397-4.222 10.724-.682 20.999 2.397 26.874" fill="#61296d"/><path d="m60.231 30.041-.216-.214-2.052-2.01c-6.53-6.401-11.981-9.969-19.206-5.574 4.396-7.225.828-12.676-5.574-19.206l-2.009-2.053-.214-.215c3.078 5.875 6.618 16.15 2.396 26.875v.001-.001c10.725-4.222 20.999-.683 26.875 2.397" fill="#61296d"/><path d="m29.271.769-.215.215-2.008 2.052c-6.403 6.531-9.971 11.982-5.575 19.207-7.224-4.396-12.676-.829-19.206 5.574l-2.051 2.007-.216.216c5.875-3.078 16.151-6.619 26.874-2.397h.001-.001c-4.221-10.723-.681-21 2.397-26.874" fill="#9cc860"/></g></svg>