<svg xmlns="http://www.w3.org/2000/svg" width="157" height="17" viewBox="0 0 157 17"><defs><style>.a{fill:#006242;}</style></defs><path class="a" d="M44.68,11.77C44.68,8.61,42.51,8,42.51,8c1.6-.72,1.4-3,1.4-3a3.55,3.55,0,0,0-3.42-3.68H22.91L19.33,6.84V1.36H14.1v9c0,.77-.84.93-.84.93H7.51a1.2,1.2,0,0,1-1.19-1V1.36h-5V12.49c.57,3.27,3.27,3.16,3.27,3.16H20.52l1.09-2.22h5.65v2.22H41.65C44.79,15.37,44.68,11.77,44.68,11.77ZM27.18,9.49H24L26.22,5.7h1ZM32.81,5.6H39.3a.47.47,0,0,1,.48.48v0c0,.39-.48.48-.48.48H32.81Zm7.61,5.16c0,.39-.47.48-.47.48h-7.1v-1H40C40.45,10.23,40.42,10.76,40.42,10.76Z"/><polygon points="63.51 1.36 66.45 1.36 66.45 15.64 64.33 15.64 64.33 3.8 64.29 3.8 58.73 15.64 56.85 15.64 51.31 4.04 51.27 4.04 51.27 15.64 49.15 15.64 49.15 1.36 52.13 1.36 57.79 13.2 63.51 1.36 63.51 1.36"/><polygon points="69.53 1.36 81.01 1.36 81.01 3.2 71.65 3.2 71.65 7.34 80.73 7.34 80.73 9.18 71.65 9.18 71.65 13.8 81.21 13.8 81.21 15.64 69.53 15.64 69.53 1.36 69.53 1.36"/><path d="M83.61,1.36h7.24c4.28,0,6.24,2.8,6.24,6.94S95.35,15.64,91,15.64H83.61ZM90.87,13.8c3.48,0,4.1-2.92,4.1-5.46s-.82-5.14-4.5-5.14H85.72V13.8Z"/><polygon points="99.7 1.36 101.82 1.36 101.82 15.64 99.7 15.64 99.7 1.36 99.7 1.36"/><path d="M116.83,6.5c-.32-2-1.88-3.66-4.89-3.66-3.38,0-5.52,1.94-5.52,5.84,0,2.7,1.46,5.48,5.41,5.48a4.69,4.69,0,0,0,5-4H119c-.34,3.16-3.07,5.82-7.15,5.82-3.6,0-7.5-2-7.5-7.54,0-4.16,2.6-7.46,7.48-7.46,2.86,0,6.81,1.22,7.17,5.5Z"/><polygon points="121.56 1.36 123.69 1.36 123.69 15.64 121.56 15.64 121.56 1.36 121.56 1.36"/><polygon points="129.18 4.28 129.14 4.28 129.14 15.64 127.02 15.64 127.02 1.36 129.48 1.36 138.66 12.72 138.7 12.72 138.7 1.36 140.82 1.36 140.82 15.64 138.36 15.64 129.18 4.28 129.18 4.28"/><polygon points="143.98 1.36 155.46 1.36 155.46 3.2 146.1 3.2 146.1 7.34 155.18 7.34 155.18 9.18 146.1 9.18 146.1 13.8 155.66 13.8 155.66 15.64 143.98 15.64 143.98 1.36 143.98 1.36"/></svg>