<?xml version="1.0" encoding="utf-8"?>
<!-- Generator: Adobe Illustrator 18.1.0, SVG Export Plug-In . SVG Version: 6.00 Build 0)  -->
<svg version="1.1" id="Calque_1" xmlns="http://www.w3.org/2000/svg" xmlns:xlink="http://www.w3.org/1999/xlink" x="0px" y="0px"
	 viewBox="0 0 46.3 46.3" enable-background="new 0 0 46.3 46.3" xml:space="preserve">
<g>
	<rect x="0" y="0" fill="#00513C" width="46.3" height="46.3"/>
	<g>
		<rect x="19.5" y="9.4" fill="#FFFFFF" width="2.4" height="27.9"/>
		<rect x="30.6" y="9.4" fill="#FFFFFF" width="2.4" height="27.9"/>
		<path fill="#FFFFFF" d="M14.2,9.4L14.2,9.4v23.1c0,2.8-0.7,3.5-1.7,3.5c-1.1,0-1.7-0.6-1.7-3.5V9.4l0,0H8.3l0,0v22.4
			c0,4.2,2.1,5.6,4.2,5.6c2.1,0,4.2-1.4,4.2-5.6V9.4l0,0H14.2z"/>
		<path fill="#FFFFFF" d="M25.4,32.4c0,3.1-1.4,3.5-2.4,3.5h-3.1l0.2,1.4h3.5c2.1,0,4.2-1.4,4.2-4.9v-5.9c0-3.5-2.2-5.2-4.2-5.2
			h-3.5l0.3,1.4h2.5c1,0,2.4,0.7,2.4,3.8V32.4z"/>
		<path fill="#FFFFFF" d="M36.4,20.5c0,3.1-1.4,3.5-2.4,3.5h-3.1l0.2,1.4h3.5c2.1,0,4.2-1.4,4.2-4.9v-5.9c0-3.5-2.1-5.2-4.2-5.2
			h-3.5l0.3,1.4h2.5c1,0,2.4,0.7,2.4,3.8V20.5z"/>
		<path fill="#FFFFFF" d="M25.2,17.7c0,3.1-1.4,3.5-2.4,3.5h-2.9l-0.2,1.4h3.8c2.1,0,4.2-1.4,4.2-4.9v-3.1c0-3.5-2.1-5.2-4.2-5.2
			h-3.8l0.2,1.4h2.9c1,0,2.4,0.7,2.4,3.8V17.7z"/>
	</g>
</g>
</svg>
