<?xml version="1.0" encoding="utf-8"?>
<!-- Generator: Adobe Illustrator 26.0.3, SVG Export Plug-In . SVG Version: 6.00 Build 0)  -->
<svg version="1.1" id="Layer_1" xmlns="http://www.w3.org/2000/svg" xmlns:xlink="http://www.w3.org/1999/xlink" x="0px" y="0px"
	 viewBox="0 0 343.4 76.7" style="enable-background:new 0 0 343.4 76.7;" xml:space="preserve">
<style type="text/css">
	.st0{fill:#58595B;}
	.st1{fill:#FF8200;}
	.st2{fill:#FFFFFF;}
</style>
<path class="st0" d="M114.5,24.6c0.5,0.3,0.8,1.1,1,2.2c0.1,0.5,0.3,0.7,0.6,0.7c0.3,0,0.5-0.3,0.5-0.7c0-0.2-0.1-0.6-0.1-1.1
	c-0.1-0.4-0.1-1.1-0.1-2c0-0.9-0.1-1.5-0.3-1.7c-0.2-0.2-0.7-0.3-1.6-0.3H89.1c-0.5,0-0.9,0.1-1,0.3c-0.2,0.2-0.2,0.7-0.2,1.4
	c0,0.7-0.1,1.7-0.4,2.8c-0.2,0.9-0.3,1.5-0.3,1.8c0,0.4,0.1,0.6,0.4,0.6c0.3,0,0.5-0.3,0.6-0.9c0.3-1.4,0.8-2.4,1.3-2.9
	c0.6-0.5,1.5-0.8,2.8-0.8h6.2c0.6,0,1,0.1,1.1,0.2c0.2,0.2,0.2,0.5,0.2,1.1l0,0.6v23.3c0,1.3-0.2,2.2-0.6,2.7
	c-0.4,0.5-1.2,0.8-2.4,1c-0.5,0.1-0.8,0.2-0.8,0.5c0,0.3,0.2,0.5,0.7,0.5c0.2,0,0.7,0,1.6-0.1c0.5,0,1-0.1,1.7-0.1l1.8,0l1.7,0
	c1.1,0,1.8,0,2.1,0.1c0.6,0.1,1,0.1,1.2,0.1c0.4,0,0.7-0.2,0.7-0.5c0-0.3-0.3-0.4-0.8-0.5c-2-0.3-3-1.4-3.1-3.3l0-0.9V25.8
	c0-0.7,0.1-1.2,0.3-1.4c0.2-0.2,0.6-0.3,1.3-0.3h6.6C113.1,24.1,114,24.3,114.5,24.6L114.5,24.6z M127.2,23.7
	c0.3-0.2,0.9-0.4,1.9-0.4h3.7c2.4,0,4.1,0.1,5,0.4c0.9,0.2,1.5,0.7,1.8,1.4c0.2,0.5,0.3,0.9,0.3,1.4v0.6c0,0.5,0.2,0.7,0.5,0.7
	c0.3,0,0.4-0.1,0.5-0.4c0.1-0.2,0.2-0.8,0.2-1.7l0.1-1.4c0.1-1,0.1-1.7,0.2-1.9c0-0.2,0.1-0.4,0.1-0.5c0-0.5-0.3-0.7-0.8-0.7
	c-0.2,0-0.5,0-0.9,0.1c-0.2,0-0.8,0.1-1.7,0.1l-3.3,0.2c-1.5,0.1-3.2,0.1-5.1,0.1c-3.1,0-5.8-0.1-8.1-0.4c-0.7-0.1-1.2-0.1-1.6-0.1
	c-0.7,0-1.1,0.2-1.1,0.6c0,0.3,0.2,0.4,0.7,0.4c1.4,0,2.4,0.4,2.9,1.2c0.5,0.8,0.7,2.3,0.7,4.5v19.9l0,1.5c0,1.9-0.6,3-1.7,3.3
	l-0.9,0.3c-0.4,0.1-0.6,0.3-0.6,0.6c0,0.3,0.3,0.5,0.8,0.5c0.2,0,0.6-0.1,1.2-0.2c1.1-0.2,3.1-0.3,5.8-0.3c2,0,4.4,0.1,7.4,0.4
	c0.8,0.1,1.4,0.1,1.8,0.1c2.1,0,3.8-0.8,5.2-2.5c1.1-1.4,1.7-2.6,1.7-3.6c0-0.4-0.1-0.6-0.4-0.6c-0.2,0-0.4,0.2-0.5,0.4
	c-1.8,2.8-5.7,4.2-11.8,4.2c-1.9,0-3.1-0.2-3.6-0.5c-0.5-0.3-0.7-1.2-0.7-2.5v-8.7l0-0.8c0-0.5,0.1-0.8,0.4-0.9
	c0.3-0.2,0.8-0.2,1.5-0.2h5.2c1.3,0,2.3,0.2,2.9,0.6c0.6,0.4,0.9,1.1,1.1,2.1l0.1,0.7c0.1,0.3,0.3,0.5,0.6,0.5
	c0.3,0,0.5-0.2,0.5-0.6c0-0.1,0-0.4,0-0.7c-0.1-0.9-0.1-1.9-0.1-2.8c0-1.2,0.1-2.6,0.2-4.1c0-0.2,0-0.4,0-0.5c0-0.4-0.2-0.6-0.5-0.6
	c-0.3,0-0.5,0.2-0.6,0.6c-0.2,1-0.4,1.7-0.7,2c-0.3,0.3-0.8,0.5-1.6,0.7c-1,0.2-2.3,0.3-3.9,0.3h-3.6c-0.7,0-1.1-0.1-1.2-0.2
	c-0.1-0.1-0.2-0.6-0.2-1.3v-9.5C126.8,24.5,126.9,23.9,127.2,23.7L127.2,23.7z M174.8,29.1v-2.5c0-1.5,0.2-2.5,0.5-3.1
	c0.3-0.5,0.9-0.9,1.9-1.2c0.3-0.1,0.5-0.2,0.5-0.4c0-0.3-0.2-0.5-0.7-0.5c-0.3,0-0.7,0-1.2,0.1c-0.6,0.1-1.4,0.1-2.3,0.1
	c-1.8,0-3.3-0.1-4.3-0.2c-0.5,0-0.8-0.1-1-0.1c-0.5,0-0.7,0.1-0.7,0.4c0,0.3,0.2,0.5,0.7,0.6c1.6,0.3,2.7,0.7,3.3,1.2
	c0.6,0.6,1,1.5,1.2,2.8l0.3,5.4l0,3.2v11.6c0,0.3-0.1,0.4-0.3,0.4c-0.1,0-0.3-0.2-0.7-0.6l-21.6-24.5c-0.4-0.5-0.8-0.7-1.2-0.7
	c-0.2,0-0.5,0-0.9,0l-0.4,0l-1.6,0l-1,0c-0.2,0-0.3,0-0.4,0c-0.3,0-0.5,0.1-0.5,0.4c0,0.3,0.2,0.5,0.6,0.5c1.6,0.2,2.9,1.1,3.7,2.7
	c0.9,1.6,1.3,3.7,1.3,6.4v16c0,1.7-0.2,2.9-0.7,3.7c-0.5,0.8-1.4,1.4-2.7,1.8c-0.5,0.2-0.7,0.3-0.7,0.6c0,0.3,0.2,0.4,0.7,0.4
	c0.2,0,0.5,0,0.9-0.1c0.5-0.1,1.1-0.1,1.7-0.1l1.1,0l2.4,0.1c1.2,0.1,1.9,0.1,2,0.1c0.2,0,0.5,0,0.7,0c0.3,0,0.5-0.2,0.5-0.5
	c0-0.3-0.3-0.5-0.8-0.6c-1.2-0.2-2.1-0.5-2.5-0.9c-0.4-0.4-0.7-1.1-0.8-2.1l-0.1-1.7l0-1V31.3c0-0.7,0.1-1.1,0.4-1.1
	c0.1,0,0.2,0,0.3,0.1l0.2,0.3L173,53.3l0.5,0.6c0.1,0.1,0.3,0.2,0.5,0.2c0.4,0,0.6-0.2,0.7-0.6c0.1-0.4,0.1-1.5,0.1-3.2V30.6
	L174.8,29.1L174.8,29.1z M208.9,29.1v-2.5c0-1.5,0.2-2.5,0.5-3.1c0.3-0.5,0.9-0.9,1.9-1.2c0.3-0.1,0.5-0.2,0.5-0.4
	c0-0.3-0.3-0.5-0.7-0.5c-0.3,0-0.7,0-1.2,0.1c-0.6,0.1-1.4,0.1-2.3,0.1c-1.8,0-3.3-0.1-4.3-0.2c-0.5,0-0.8-0.1-1-0.1
	c-0.5,0-0.7,0.1-0.7,0.4c0,0.3,0.2,0.5,0.7,0.6c1.6,0.3,2.7,0.7,3.3,1.2c0.6,0.6,1,1.5,1.2,2.8l0.3,5.4l0,3.2v11.6
	c0,0.3-0.1,0.4-0.3,0.4c-0.1,0-0.3-0.2-0.7-0.6l-21.6-24.5c-0.4-0.5-0.8-0.7-1.2-0.7c-0.2,0-0.5,0-0.9,0l-0.4,0l-1.6,0l-1,0
	c-0.2,0-0.3,0-0.4,0c-0.3,0-0.5,0.1-0.5,0.4c0,0.3,0.2,0.5,0.6,0.5c1.6,0.2,2.9,1.1,3.7,2.7c0.9,1.6,1.3,3.7,1.3,6.4v16
	c0,1.7-0.2,2.9-0.7,3.7c-0.5,0.8-1.4,1.4-2.7,1.8c-0.5,0.2-0.7,0.3-0.7,0.6c0,0.3,0.2,0.4,0.7,0.4c0.2,0,0.5,0,0.9-0.1
	c0.5-0.1,1.1-0.1,1.7-0.1l1.1,0l2.4,0.1c1.2,0.1,1.9,0.1,2,0.1c0.3,0,0.5,0,0.7,0c0.3,0,0.5-0.2,0.5-0.5c0-0.3-0.3-0.5-0.8-0.6
	c-1.2-0.2-2.1-0.5-2.5-0.9c-0.4-0.4-0.7-1.1-0.8-2.1l-0.1-1.7l0-1V31.3c0-0.7,0.1-1.1,0.4-1.1c0.1,0,0.2,0,0.3,0.1l0.2,0.3L207,53.3
	l0.5,0.6c0.1,0.1,0.3,0.2,0.5,0.2c0.4,0,0.6-0.2,0.7-0.6c0.1-0.4,0.1-1.5,0.1-3.2V30.6L208.9,29.1L208.9,29.1z M221.8,23.7
	c0.3-0.2,0.9-0.4,1.9-0.4h3.7c2.4,0,4.1,0.1,5,0.4c0.9,0.2,1.5,0.7,1.8,1.4c0.2,0.5,0.3,0.9,0.3,1.4v0.6c0,0.5,0.2,0.7,0.5,0.7
	c0.3,0,0.4-0.1,0.5-0.4c0.1-0.2,0.2-0.8,0.2-1.7l0.1-1.4c0.1-1,0.1-1.7,0.2-1.9c0-0.2,0.1-0.4,0.1-0.5c0-0.5-0.3-0.7-0.8-0.7
	c-0.2,0-0.5,0-0.9,0.1c-0.2,0-0.8,0.1-1.7,0.1l-3.3,0.2c-1.5,0.1-3.2,0.1-5.1,0.1c-3.1,0-5.8-0.1-8.1-0.4c-0.7-0.1-1.2-0.1-1.6-0.1
	c-0.7,0-1.1,0.2-1.1,0.6c0,0.3,0.2,0.4,0.7,0.4c1.4,0,2.4,0.4,2.9,1.2c0.5,0.8,0.7,2.3,0.7,4.5v19.9l0,1.5c0,1.9-0.6,3-1.7,3.3
	l-0.9,0.3c-0.4,0.1-0.6,0.3-0.6,0.6c0,0.3,0.2,0.5,0.8,0.5c0.2,0,0.6-0.1,1.2-0.2c1.1-0.2,3.1-0.3,5.8-0.3c2,0,4.4,0.1,7.4,0.4
	c0.8,0.1,1.4,0.1,1.8,0.1c2.1,0,3.8-0.8,5.2-2.5c1.1-1.4,1.7-2.6,1.7-3.6c0-0.4-0.1-0.6-0.4-0.6c-0.2,0-0.4,0.2-0.5,0.4
	c-1.8,2.8-5.7,4.2-11.8,4.2c-1.9,0-3.1-0.2-3.6-0.5c-0.5-0.3-0.7-1.2-0.7-2.5v-8.7l0-0.8c0-0.5,0.1-0.8,0.4-0.9
	c0.3-0.2,0.8-0.2,1.5-0.2h5.2c1.3,0,2.3,0.2,2.9,0.6c0.6,0.4,0.9,1.1,1.1,2.1l0.1,0.7c0.1,0.3,0.3,0.5,0.6,0.5
	c0.3,0,0.5-0.2,0.5-0.6c0-0.1,0-0.4,0-0.7c-0.1-0.9-0.1-1.9-0.1-2.8c0-1.2,0.1-2.6,0.2-4.1c0-0.2,0-0.4,0-0.5c0-0.4-0.2-0.6-0.5-0.6
	c-0.3,0-0.5,0.2-0.6,0.6c-0.2,1-0.4,1.7-0.7,2c-0.2,0.3-0.8,0.5-1.6,0.7c-1,0.2-2.3,0.3-3.9,0.3h-3.6c-0.7,0-1.1-0.1-1.2-0.2
	c-0.1-0.1-0.2-0.6-0.2-1.3v-9.5C221.3,24.5,221.5,23.9,221.8,23.7L221.8,23.7z M245.9,23.4c-1.9,1.6-2.8,3.7-2.8,6.2
	c0,2.3,0.7,4.1,2.2,5.5c1.4,1.4,3.9,2.7,7.4,3.9c3.4,1.1,5.4,2,6.1,2.6c1.4,1.2,2.1,2.7,2.1,4.4c0,1.8-0.7,3.4-2.2,4.6
	c-1.5,1.3-3.3,1.9-5.5,1.9c-2.1,0-4.1-0.7-5.9-2c-1.8-1.3-3-3-3.6-4.9c-0.2-0.8-0.5-1.1-0.8-1.2c-0.3,0-0.5,0.2-0.5,0.7
	c0,0.6,0.2,1.6,0.6,3c0.4,1.3,0.6,2,0.6,2.1c0.2,0.9,0.3,1.4,0.4,1.6c0.1,0.2,0.3,0.4,0.6,0.6c0.7,0.5,1.7,0.9,3.2,1.2
	c1.4,0.3,2.8,0.5,4,0.5c3.3,0,6.1-0.9,8.2-2.8c2.1-1.9,3.2-4.3,3.2-7.2c0-4.3-2.9-7.4-8.7-9.3c-3-1-4.8-1.7-5.6-2
	c-0.8-0.4-1.5-1-2.1-1.8c-0.7-1-1.1-2.1-1.1-3.4c0-1.5,0.6-2.7,1.7-3.7c1.1-1,2.5-1.5,4.2-1.5c2.1,0,4,0.5,5.8,1.6
	c1.7,1.1,2.9,2.5,3.4,4.2c0.3,0.8,0.5,1.1,0.8,1.1c0.3,0,0.5-0.2,0.5-0.7c0-0.1,0-0.4-0.1-1l-0.4-2.4c-0.2-1.3-0.3-2.1-0.3-2.4
	c0-0.8-0.2-1.2-0.6-1.2c-0.1,0-0.2,0-0.3,0.1l-0.3,0.3c-0.2,0.2-0.4,0.2-0.6,0.2c-0.1,0-0.3,0-0.4-0.1l-1.6-0.7
	c-1.2-0.5-2.6-0.7-4.3-0.7C250.2,21,247.8,21.8,245.9,23.4L245.9,23.4z M271.2,23.4c-1.9,1.6-2.8,3.7-2.8,6.2c0,2.3,0.7,4.1,2.2,5.5
	c1.4,1.4,3.9,2.7,7.4,3.9c3.4,1.1,5.4,2,6.1,2.6c1.4,1.2,2.1,2.7,2.1,4.4c0,1.8-0.7,3.4-2.2,4.6c-1.5,1.3-3.3,1.9-5.5,1.9
	c-2.1,0-4.1-0.7-5.9-2c-1.8-1.3-3-3-3.6-4.9c-0.2-0.8-0.5-1.1-0.8-1.2c-0.3,0-0.5,0.2-0.5,0.7c0,0.6,0.2,1.6,0.6,3
	c0.4,1.3,0.6,2,0.6,2.1c0.2,0.9,0.3,1.4,0.4,1.6c0.1,0.2,0.3,0.4,0.6,0.6c0.7,0.5,1.7,0.9,3.2,1.2c1.4,0.3,2.8,0.5,4,0.5
	c3.3,0,6.1-0.9,8.2-2.8s3.2-4.3,3.2-7.2c0-4.3-2.9-7.4-8.7-9.3c-3-1-4.8-1.7-5.6-2c-0.8-0.4-1.5-1-2.1-1.8c-0.7-1-1.1-2.1-1.1-3.4
	c0-1.5,0.6-2.7,1.7-3.7c1.1-1,2.5-1.5,4.2-1.5c2.1,0,4,0.5,5.8,1.6c1.7,1.1,2.9,2.5,3.4,4.2c0.3,0.8,0.5,1.1,0.8,1.1
	c0.3,0,0.5-0.2,0.5-0.7c0-0.1,0-0.4-0.1-1l-0.4-2.4c-0.2-1.3-0.3-2.1-0.3-2.4c0-0.8-0.2-1.2-0.6-1.2c-0.1,0-0.2,0-0.3,0.1l-0.3,0.3
	c-0.2,0.2-0.4,0.2-0.6,0.2c-0.1,0-0.3,0-0.4-0.1l-1.6-0.7c-1.2-0.5-2.6-0.7-4.3-0.7C275.5,21,273,21.8,271.2,23.4L271.2,23.4z
	 M299.7,23.7c0.3-0.2,0.9-0.4,1.9-0.4h3.7c2.4,0,4.1,0.1,5,0.4c0.9,0.2,1.5,0.7,1.8,1.4c0.2,0.5,0.3,0.9,0.3,1.4v0.6
	c0,0.5,0.2,0.7,0.5,0.7c0.3,0,0.4-0.1,0.5-0.4c0.1-0.2,0.2-0.8,0.2-1.7l0.1-1.4c0.1-1,0.1-1.7,0.2-1.9c0-0.2,0.1-0.4,0.1-0.5
	c0-0.5-0.3-0.7-0.8-0.7c-0.2,0-0.5,0-0.9,0.1c-0.2,0-0.8,0.1-1.7,0.1l-3.3,0.2c-1.5,0.1-3.2,0.1-5.1,0.1c-3.1,0-5.8-0.1-8.1-0.4
	c-0.7-0.1-1.2-0.1-1.6-0.1c-0.7,0-1.1,0.2-1.1,0.6c0,0.3,0.2,0.4,0.7,0.4c1.4,0,2.4,0.4,2.9,1.2c0.5,0.8,0.7,2.3,0.7,4.5v19.9l0,1.5
	c0,1.9-0.6,3-1.7,3.3l-0.9,0.3c-0.4,0.1-0.6,0.3-0.6,0.6c0,0.3,0.3,0.5,0.8,0.5c0.2,0,0.6-0.1,1.2-0.2c1.1-0.2,3.1-0.3,5.8-0.3
	c2,0,4.4,0.1,7.4,0.4c0.8,0.1,1.4,0.1,1.8,0.1c2.1,0,3.8-0.8,5.2-2.5c1.1-1.4,1.7-2.6,1.7-3.6c0-0.4-0.1-0.6-0.4-0.6
	c-0.2,0-0.4,0.2-0.5,0.4c-1.8,2.8-5.7,4.2-11.8,4.2c-1.9,0-3.1-0.2-3.6-0.5c-0.5-0.3-0.7-1.2-0.7-2.5v-8.7l0-0.8
	c0-0.5,0.1-0.8,0.4-0.9c0.3-0.2,0.8-0.2,1.5-0.2h5.2c1.3,0,2.3,0.2,2.9,0.6c0.6,0.4,0.9,1.1,1.1,2.1l0.1,0.7
	c0.1,0.3,0.3,0.5,0.6,0.5c0.3,0,0.5-0.2,0.5-0.6c0-0.1,0-0.4,0-0.7c-0.1-0.9-0.1-1.9-0.1-2.8c0-1.2,0.1-2.6,0.2-4.1
	c0-0.2,0-0.4,0-0.5c0-0.4-0.2-0.6-0.5-0.6c-0.3,0-0.5,0.2-0.6,0.6c-0.2,1-0.4,1.7-0.7,2c-0.3,0.3-0.8,0.5-1.6,0.7
	c-1,0.2-2.3,0.3-3.9,0.3h-3.6c-0.7,0-1.1-0.1-1.2-0.2c-0.1-0.1-0.2-0.6-0.2-1.3v-9.5C299.3,24.5,299.4,23.9,299.7,23.7L299.7,23.7z
	 M326.6,23.7c0.3-0.2,0.9-0.4,1.9-0.4h3.7c2.4,0,4.1,0.1,5,0.4c0.9,0.2,1.5,0.7,1.8,1.4c0.2,0.5,0.3,0.9,0.3,1.4v0.6
	c0,0.5,0.2,0.7,0.5,0.7c0.3,0,0.4-0.1,0.5-0.4c0.1-0.2,0.2-0.8,0.2-1.7l0.1-1.4c0.1-1,0.1-1.7,0.2-1.9c0-0.2,0.1-0.4,0.1-0.5
	c0-0.5-0.3-0.7-0.8-0.7c-0.2,0-0.5,0-0.9,0.1c-0.2,0-0.8,0.1-1.7,0.1l-3.3,0.2c-1.5,0.1-3.2,0.1-5.1,0.1c-3.1,0-5.8-0.1-8.1-0.4
	c-0.7-0.1-1.2-0.1-1.6-0.1c-0.7,0-1.1,0.2-1.1,0.6c0,0.3,0.2,0.4,0.7,0.4c1.4,0,2.4,0.4,2.9,1.2c0.5,0.8,0.7,2.3,0.7,4.5v19.9l0,1.5
	c0,1.9-0.6,3-1.7,3.3L320,53c-0.4,0.1-0.6,0.3-0.6,0.6c0,0.3,0.2,0.5,0.8,0.5c0.2,0,0.6-0.1,1.2-0.2c1.1-0.2,3.1-0.3,5.8-0.3
	c2,0,4.4,0.1,7.4,0.4c0.8,0.1,1.4,0.1,1.8,0.1c2.1,0,3.8-0.8,5.2-2.5c1.1-1.4,1.7-2.6,1.7-3.6c0-0.4-0.1-0.6-0.4-0.6
	c-0.2,0-0.4,0.2-0.5,0.4c-1.8,2.8-5.7,4.2-11.8,4.2c-1.9,0-3.1-0.2-3.6-0.5c-0.5-0.3-0.7-1.2-0.7-2.5v-8.7l0-0.8
	c0-0.5,0.1-0.8,0.4-0.9c0.3-0.2,0.8-0.2,1.5-0.2h5.2c1.3,0,2.3,0.2,2.9,0.6c0.6,0.4,0.9,1.1,1.1,2.1l0.1,0.7
	c0.1,0.3,0.3,0.5,0.6,0.5c0.3,0,0.5-0.2,0.5-0.6c0-0.1,0-0.4,0-0.7c-0.1-0.9-0.1-1.9-0.1-2.8c0-1.2,0.1-2.6,0.2-4.1
	c0-0.2,0-0.4,0-0.5c0-0.4-0.2-0.6-0.5-0.6c-0.3,0-0.5,0.2-0.6,0.6c-0.2,1-0.4,1.7-0.7,2c-0.3,0.3-0.8,0.5-1.6,0.7
	c-1,0.2-2.3,0.3-3.9,0.3h-3.6c-0.7,0-1.1-0.1-1.2-0.2c-0.1-0.1-0.2-0.6-0.2-1.3v-9.5C326.2,24.5,326.4,23.9,326.6,23.7L326.6,23.7z"
	/>
<path class="st0" d="M96.4,1.7c0.3-0.2,0.9-0.2,2-0.2c0.8,0,1.4,0.1,1.8,0.4c0.4,0.3,0.7,0.8,0.8,1.4c0.1,0.3,0.2,0.4,0.3,0.4
	c0.2,0,0.3-0.1,0.3-0.3c0-0.2,0-0.5-0.1-0.9c-0.1-0.4-0.1-0.7-0.1-0.8l-0.1-0.8c0-0.3-0.2-0.5-0.6-0.5c-0.1,0-0.3,0-0.7,0
	c-1.8,0.1-3.6,0.1-5.2,0.1l-2.5,0l-2.1,0c-0.5,0-0.9,0-1.2,0c-0.2,0-0.3,0-0.4,0c-0.3,0-0.4,0.1-0.4,0.4l-0.1,0.6l-0.1,0.9L88,3.4
	c-0.1,0.3-0.1,0.6-0.1,0.8c0,0.2,0.1,0.3,0.3,0.3c0.2,0,0.3-0.1,0.4-0.4l0.1-0.3C88.8,3,89,2.5,89.1,2.3c0.1-0.2,0.4-0.4,0.7-0.5
	c0.5-0.2,1.5-0.3,2.9-0.3c0.6,0,0.9,0.3,0.9,0.8v9.3l0,0.5c0,0.6-0.1,1.1-0.4,1.5c-0.3,0.4-0.7,0.6-1.3,0.6c-0.2,0-0.3,0-0.4,0.1
	c-0.1,0-0.1,0.1-0.1,0.3c0,0.2,0.1,0.3,0.3,0.3c0.1,0,0.3,0,0.5,0l2.3-0.1c0.3,0,0.7,0,1.1,0c0.2,0,0.3,0,0.4,0l1.3,0.1l0.8,0
	c0.1,0,0.2,0,0.3,0c0.2,0,0.3-0.1,0.3-0.2c0-0.2-0.1-0.4-0.4-0.4c-0.9-0.1-1.5-0.3-1.8-0.8C96.2,12.9,96,12,96,10.9V3
	C96,2.3,96.1,1.9,96.4,1.7L96.4,1.7z M116.5,7.8c0.1,0.1,0.1,0.6,0.1,1.2v2.3l0,0.6c0,0.7-0.1,1.3-0.3,1.6c-0.2,0.4-0.5,0.6-1,0.6
	c-0.2,0-0.3,0.1-0.3,0.3c0,0.2,0.1,0.4,0.3,0.4c0.1,0,0.4,0,0.8-0.1c0.7-0.1,1.3-0.1,1.7-0.1c0.7,0,1.4,0,2.3,0.1
	c0.4,0,0.6,0.1,0.7,0.1c0.4,0,0.5-0.1,0.5-0.3c0-0.2-0.1-0.3-0.4-0.3c-0.7,0-1.2-0.2-1.6-0.7c-0.3-0.4-0.5-1.1-0.5-2.1v-9
	c0-0.9,0.4-1.4,1.2-1.6c0.2,0,0.3-0.1,0.3-0.3c0-0.2-0.1-0.3-0.4-0.3c-0.3,0-0.6,0-1.1,0.1c-0.8,0.1-1.4,0.1-1.7,0.1
	c-0.8,0-1.4,0-2-0.1c-0.3-0.1-0.6-0.1-0.7-0.1c-0.2,0-0.3,0.1-0.3,0.3c0,0.2,0.1,0.3,0.3,0.3l0.5,0.1c1,0.2,1.5,0.7,1.5,1.6v2.3
	c0,0.8,0,1.2-0.1,1.4c-0.1,0.2-0.4,0.3-0.8,0.3h-4.9c-0.6,0-0.9-0.1-1-0.2c-0.1-0.1-0.2-0.5-0.2-1.2V2.5c0-0.9,0.4-1.4,1.2-1.6
	c0.2,0,0.3-0.1,0.3-0.3c0-0.2-0.1-0.3-0.4-0.3c-0.3,0-0.6,0-1.1,0.1c-0.8,0.1-1.4,0.1-1.7,0.1c-0.8,0-1.4,0-2-0.1
	c-0.3-0.1-0.6-0.1-0.7-0.1c-0.2,0-0.3,0.1-0.3,0.3c0,0.2,0.1,0.3,0.3,0.3c0.7,0.1,1.3,0.3,1.5,0.6c0.3,0.2,0.4,0.6,0.4,1.1v8.7
	l0,0.6c0,0.7-0.1,1.3-0.3,1.6c-0.2,0.4-0.5,0.6-1,0.6c-0.2,0-0.3,0.1-0.3,0.3c0,0.2,0.1,0.4,0.3,0.4c0.1,0,0.4,0,0.8-0.1
	c0.7-0.1,1.3-0.1,1.7-0.1c0.7,0,1.4,0,2.3,0.1c0.4,0,0.6,0.1,0.7,0.1c0.4,0,0.5-0.1,0.5-0.3c0-0.2-0.1-0.3-0.4-0.3
	c-0.7,0-1.3-0.2-1.6-0.7c-0.3-0.4-0.5-1.1-0.5-2.1V8.8c0-0.6,0.1-0.9,0.2-1c0.1-0.1,0.4-0.2,0.9-0.2h5
	C116.1,7.6,116.4,7.7,116.5,7.8L116.5,7.8z M129.2,2.4c0-0.6,0.2-0.9,0.5-1.1l0.7-0.1h1.3c1.1,0,1.9,0.2,2.5,0.5
	c0.5,0.3,0.8,0.8,0.8,1.5c0,0.3,0.1,0.5,0.2,0.5c0.3,0,0.4-0.3,0.4-0.8c0-0.3,0-0.7-0.1-1.3c0-0.4-0.1-0.7-0.1-0.9
	c0-0.2-0.1-0.3-0.3-0.3c0,0-0.1,0-0.1,0c-0.5,0.1-1.9,0.1-4.2,0.1l-4,0l-1.1,0c-0.2,0-0.4,0-0.5,0c-0.2,0-0.3,0-0.3,0
	c-0.2,0-0.3,0.1-0.3,0.2c0,0.2,0.1,0.3,0.3,0.3c0.8,0.1,1.3,0.3,1.6,0.6c0.3,0.3,0.4,0.8,0.4,1.6v8.3c0,0.6,0,1.1-0.1,1.5
	c-0.1,0.4-0.2,0.7-0.3,0.9c-0.1,0.2-0.4,0.3-0.8,0.5c-0.2,0.1-0.2,0.2-0.2,0.3c0,0.2,0.1,0.2,0.3,0.2c0.1,0,0.3,0,0.6,0
	c1-0.1,1.8-0.1,2.3-0.1c0.8,0,1.4,0,1.8,0.1l1.2,0.1c0.5,0.1,1,0.1,1.5,0.1c0.8,0,1.4-0.1,1.8-0.4s0.8-0.6,1.2-1.2
	c0.4-0.6,0.6-1.3,0.6-2c0-0.1,0-0.2-0.1-0.2c-0.1-0.1-0.1-0.1-0.2-0.1c0,0-0.1,0.1-0.1,0.1c-0.9,1.7-2.7,2.6-5.6,2.6
	c-0.3,0-0.6-0.1-0.7-0.2c-0.2-0.1-0.3-0.3-0.4-0.6c-0.2-0.4-0.2-1.1-0.2-2.1V10c0-0.8,0-1.3,0.1-1.7c0-0.3,0.1-0.5,0.2-0.6
	c0.1-0.1,0.4-0.2,0.7-0.2h0.7c0.7,0,1.2,0,1.5,0.1c0.3,0,0.5,0.2,0.7,0.3c0.3,0.3,0.5,0.8,0.6,1.4c0,0.3,0.1,0.4,0.3,0.4
	c0.1,0,0.1,0,0.2-0.1c0,0,0-0.1,0-0.2l0-0.5c0-0.4,0-0.9-0.1-1.4c-0.1-0.8-0.1-1.4-0.1-1.6c0-0.1,0-0.3,0-0.5c0-0.3,0-0.4,0-0.5
	c0-0.2-0.1-0.3-0.2-0.3c-0.1,0-0.3,0.1-0.3,0.2l-0.2,0.5c-0.4,0.8-0.9,1.1-1.6,1.1h-0.9l-0.5,0l-0.3,0c-0.4,0-0.6-0.1-0.7-0.3
	c-0.1-0.2-0.1-0.6-0.1-1.2V2.9L129.2,2.4L129.2,2.4z M159,0.6c0,0.2,0.1,0.3,0.4,0.3c0.6,0,1.1,0.2,1.5,0.5c0.4,0.4,0.6,0.9,0.6,1.5
	l0.1,2.1v0.8c0,1.9-0.1,3.4-0.4,4.5c-0.2,1-0.6,1.8-1.2,2.4c-0.8,0.8-1.9,1.2-3.3,1.2c-1.3,0-2.4-0.4-3.2-1.2
	c-0.6-0.5-0.9-1.1-1.1-1.8c-0.2-0.7-0.3-1.9-0.3-3.6l0-1.9l0.2-2.6c0-0.7,0.1-1.1,0.3-1.4c0.1-0.2,0.4-0.4,0.9-0.5
	c0.2,0,0.3-0.1,0.4-0.1c0.1,0,0.1-0.1,0.1-0.2c0-0.2-0.2-0.3-0.5-0.3c-0.1,0-0.4,0-0.7,0c-0.8,0.1-1.6,0.1-2.3,0.1
	c-0.5,0-1.2,0-2.1-0.1c-0.2,0-0.4,0-0.4,0c-0.2,0-0.4,0.1-0.4,0.3c0,0.2,0.1,0.3,0.4,0.3c0.4,0.1,0.8,0.2,1.2,0.3
	c0.3,0.1,0.5,0.3,0.6,0.5c0.1,0.2,0.1,0.5,0.1,1l0,1.9l-0.1,4.1c0,2.6,0.7,4.4,2,5.3c1,0.7,2.4,1,4.1,1c2.5,0,4.3-0.8,5.4-2.4
	c0.4-0.7,0.8-1.6,1-2.9c0.2-1.2,0.3-2.9,0.3-4.9l0-1.3l0-0.9c0-1.1,0.3-1.7,0.8-1.7l0.4-0.1c0.2,0,0.3-0.1,0.3-0.3
	c0-0.2-0.1-0.3-0.3-0.3c-0.1,0-0.2,0-0.3,0c-0.3,0-0.6,0.1-0.9,0.1l-1,0l-1.1-0.1c-0.4,0-0.7,0-0.8-0.1c-0.1,0-0.2,0-0.2,0
	C159,0.3,159,0.4,159,0.6L159,0.6L159,0.6z M173.1,2.2l-0.7-0.8c-0.4-0.5-0.7-0.8-0.8-0.9c-0.1-0.1-0.3-0.1-0.5-0.1
	c-0.2,0-0.3,0-0.6,0c-0.6,0.1-1.2,0.1-1.8,0.1l-0.4,0l-0.7,0c-0.2,0-0.4,0.1-0.4,0.3c0,0.2,0.1,0.3,0.3,0.3c1.6,0.1,2.4,1.2,2.4,3.4
	V9l-0.1,2.5c0,0.9-0.1,1.5-0.4,2c-0.2,0.5-0.6,0.8-1.1,0.9c-0.2,0.1-0.3,0.2-0.3,0.3c0,0.2,0.1,0.3,0.3,0.3c0.1,0,0.3,0,0.5-0.1
	c0.6-0.1,1.2-0.1,1.9-0.1c0.7,0,1.4,0,2,0.1c0.2,0,0.3,0,0.4,0c0.2,0,0.3-0.1,0.3-0.3c0-0.2-0.1-0.2-0.3-0.3c-1.1-0.1-1.8-0.5-2-1.3
	c-0.2-0.7-0.3-2.2-0.3-4.4V4.5l0-0.3c0-0.3,0.1-0.5,0.3-0.5c0.1,0,0.2,0.1,0.3,0.3l9.5,10.6c0.1,0.1,0.3,0.2,0.4,0.2
	c0.1,0,0.2-0.1,0.2-0.3l0-1.3l0-0.8l0-1.2l0-0.9l0.1-6.5V3.3c0-1.4,0.5-2.2,1.4-2.4c0.2,0,0.3-0.1,0.3-0.3c0-0.2-0.1-0.3-0.3-0.3
	c-0.1,0-0.2,0-0.3,0c-1.1,0.1-1.8,0.2-2.3,0.2c-0.2,0-0.5,0-0.9-0.1c-0.6-0.1-1-0.1-1.2-0.1c-0.2,0-0.3,0.1-0.3,0.3
	c0,0.1,0.1,0.2,0.3,0.2c1,0.1,1.6,0.4,2,1c0.3,0.6,0.5,1.7,0.5,3.3c0,1.4,0,2.9-0.1,4.4c0,0.4-0.1,0.6-0.2,0.6c-0.2,0-0.5-0.3-1-0.8
	L179.2,9l-5.5-6.2C173.6,2.8,173.4,2.5,173.1,2.2L173.1,2.2L173.1,2.2z M191.7,2.6c0-0.6,0.1-1,0.2-1.2c0.1-0.2,0.5-0.3,1-0.4
	c0.1,0,0.2-0.1,0.3-0.1c0,0,0.1-0.1,0.1-0.3c0-0.2-0.1-0.3-0.3-0.3c-0.4,0-0.9,0-1.7,0.1l-0.8,0.1c-0.6,0-1.1,0.1-1.5,0.1
	c-0.6,0-1,0-1.3-0.1c-0.3,0-0.4-0.1-0.6-0.1c-0.2,0-0.3,0.1-0.3,0.3c0,0.1,0.1,0.2,0.2,0.3c0.1,0.1,0.3,0.1,0.7,0.2
	c0.6,0.1,1,0.3,1.2,0.5c0.2,0.3,0.3,0.7,0.3,1.4v8.3l0,0.9c0,0.6-0.1,1-0.2,1.3c-0.2,0.3-0.5,0.5-1,0.7l-0.3,0.2l0,0.1
	c0,0.1,0.1,0.2,0.3,0.2c0.2,0,0.4,0,0.8-0.1c0.4-0.1,1-0.1,1.7-0.1c0.6,0,1.3,0.1,2.2,0.2c0.4,0,0.6,0.1,0.8,0.1
	c0.5,0,0.7-0.1,0.7-0.3c0-0.2-0.2-0.3-0.5-0.3c-0.5,0-0.9-0.1-1.3-0.4c-0.3-0.3-0.5-0.7-0.6-1.2l-0.1-1V2.6L191.7,2.6z M201.6,1.9
	c0-0.5,0.3-0.8,0.8-0.9c0.3-0.1,0.4-0.2,0.4-0.3c0-0.2-0.1-0.3-0.3-0.3c-0.1,0-0.4,0-0.9,0l-1.1,0.1l-1.8-0.1c-0.5,0-0.9,0-1.2-0.1
	c-0.2,0-0.3,0-0.3,0c-0.2,0-0.3,0.1-0.3,0.3c0,0.2,0.1,0.3,0.4,0.4c0.5,0.1,0.9,0.4,1.2,0.8c0.3,0.4,0.7,1.3,1.1,2.5
	c0.4,1.1,0.9,2.3,1.5,3.7l2.5,5.6l0.3,0.6l0.2,0.5c0.1,0.2,0.2,0.3,0.3,0.3c0.2,0,0.4-0.2,0.5-0.5c0-0.1,0.3-0.6,0.6-1.3
	c0-0.1,0.4-0.8,0.9-2.1l1.8-3.9l1.6-3.6c0.5-1.1,0.8-1.8,1.1-2.1c0.3-0.3,0.6-0.5,1-0.6c0.2,0,0.3-0.1,0.3-0.3
	c0-0.2-0.1-0.3-0.2-0.3c-0.1,0-0.2,0-0.4,0c-0.5,0.1-1,0.1-1.7,0.1c-0.2,0-0.6,0-1.1,0l-1.1-0.1c-0.3,0-0.5,0-0.6,0
	c-0.2,0-0.3,0.1-0.3,0.2c0,0.2,0.1,0.3,0.4,0.3c0.6,0.1,1,0.3,1.3,0.5c0.3,0.3,0.5,0.6,0.5,1.1c0,0.8-0.4,2-1.2,3.7l-2.4,5.2
	c-0.1,0.2-0.2,0.3-0.3,0.3c-0.1,0-0.2-0.1-0.3-0.4l-2.3-5.7C202,3.7,201.6,2.5,201.6,1.9L201.6,1.9L201.6,1.9z M219.6,2.4
	c0-0.6,0.2-0.9,0.5-1.1l0.7-0.1h1.3c1.1,0,1.9,0.2,2.5,0.5c0.5,0.3,0.8,0.8,0.8,1.5c0,0.3,0.1,0.5,0.2,0.5c0.3,0,0.4-0.3,0.4-0.8
	c0-0.3,0-0.7-0.1-1.3c0-0.4-0.1-0.7-0.1-0.9c0-0.2-0.1-0.3-0.3-0.3c0,0-0.1,0-0.1,0c-0.5,0.1-1.9,0.1-4.2,0.1l-4,0l-1.1,0
	c-0.2,0-0.4,0-0.5,0c-0.2,0-0.3,0-0.3,0c-0.2,0-0.3,0.1-0.3,0.2c0,0.2,0.1,0.3,0.3,0.3c0.8,0.1,1.3,0.3,1.6,0.6
	c0.3,0.3,0.4,0.8,0.4,1.6v8.3c0,0.6,0,1.1-0.1,1.5c-0.1,0.4-0.2,0.7-0.3,0.9c-0.1,0.2-0.4,0.3-0.8,0.5c-0.2,0.1-0.2,0.2-0.2,0.3
	c0,0.2,0.1,0.2,0.3,0.2c0.1,0,0.3,0,0.6,0c1-0.1,1.8-0.1,2.3-0.1c0.8,0,1.4,0,1.8,0.1l1.2,0.1c0.5,0.1,1,0.1,1.5,0.1
	c0.8,0,1.4-0.1,1.8-0.4s0.8-0.6,1.2-1.2c0.4-0.6,0.6-1.3,0.6-2c0-0.1,0-0.2-0.1-0.2c-0.1-0.1-0.1-0.1-0.2-0.1c0,0-0.1,0.1-0.1,0.1
	c-0.9,1.7-2.7,2.6-5.6,2.6c-0.3,0-0.6-0.1-0.7-0.2c-0.2-0.1-0.3-0.3-0.4-0.6c-0.2-0.4-0.2-1.1-0.2-2.1V10c0-0.8,0-1.3,0.1-1.7
	c0-0.3,0.1-0.5,0.2-0.6c0.1-0.1,0.4-0.2,0.7-0.2h0.7c0.7,0,1.2,0,1.5,0.1c0.3,0,0.5,0.2,0.7,0.3c0.3,0.3,0.5,0.8,0.6,1.4
	c0,0.3,0.1,0.4,0.3,0.4c0.1,0,0.1,0,0.2-0.1c0,0,0-0.1,0-0.2l0-0.5c0-0.4,0-0.9-0.1-1.4c-0.1-0.8-0.1-1.4-0.1-1.6c0-0.1,0-0.3,0-0.5
	c0-0.3,0-0.4,0-0.5c0-0.2-0.1-0.3-0.2-0.3c-0.1,0-0.3,0.1-0.3,0.2l-0.2,0.5c-0.4,0.8-0.9,1.1-1.6,1.1h-0.9l-0.5,0l-0.3,0
	c-0.4,0-0.6-0.1-0.7-0.3c-0.1-0.2-0.1-0.6-0.1-1.2V2.9L219.6,2.4L219.6,2.4z M234.7,8.6c0-0.3,0.1-0.4,0.2-0.5l0.5-0.1h0.6
	c0.6,0,0.9,0.1,1.2,0.3c0.2,0.2,0.6,0.7,0.9,1.5c1,2,1.8,3.3,2.4,4c0.6,0.7,1.3,1.1,2,1.1c0.4,0,0.9-0.1,1.5-0.4
	c0.6-0.3,0.9-0.5,0.9-0.7c0-0.2-0.1-0.2-0.2-0.2c-0.1,0-0.1,0-0.2,0c-0.1,0-0.3,0-0.4,0c-0.4,0-0.7-0.1-1-0.4
	c-0.3-0.3-0.6-0.7-1-1.3l-1.1-1.9l-0.9-1.7c-0.1-0.2-0.2-0.4-0.3-0.5c-0.1-0.1-0.1-0.2-0.1-0.3c0-0.1,0.1-0.2,0.2-0.2
	c0.7-0.3,1.2-0.7,1.6-1.3c0.4-0.6,0.6-1.2,0.6-1.9c0-1.1-0.4-2-1.3-2.7c-0.9-0.7-2-1.1-3.3-1.1c-0.4,0-1.3,0-2.4,0.1
	c-1,0.1-1.9,0.1-2.6,0.1c-0.6,0-1.2,0-1.8-0.1c-0.2,0-0.3,0-0.4,0c-0.2,0-0.3,0.1-0.3,0.3c0,0.2,0.1,0.3,0.4,0.4
	c0.8,0.1,1.3,0.4,1.7,0.8c0.2,0.3,0.3,0.8,0.3,1.7v7.6l0,0.4v1c0,0.5-0.1,0.9-0.3,1.1c-0.2,0.2-0.5,0.4-1,0.6
	c-0.1,0-0.2,0.1-0.2,0.3c0,0.2,0.1,0.3,0.4,0.3c0.1,0,0.2,0,0.4,0l0.7-0.1l0.9-0.1c0.4,0,0.8,0,1.2,0c0.6,0,1.1,0,1.7,0.1
	c0.2,0,0.4,0,0.4,0c0.2,0,0.4-0.1,0.4-0.3c0-0.2-0.1-0.3-0.4-0.3c-0.7-0.1-1.2-0.3-1.4-0.8c-0.2-0.5-0.4-1.4-0.4-2.7V8.6L234.7,8.6z
	 M235,1.4c0.2-0.2,0.5-0.3,1-0.3c1.1,0,1.9,0.3,2.6,1c0.7,0.7,1,1.6,1,2.6c0,0.8-0.3,1.4-0.8,1.9c-0.3,0.2-0.5,0.4-0.8,0.4
	c-0.3,0-1.1,0.1-2.3,0.1c-0.4,0-0.7-0.1-0.8-0.2c-0.1-0.1-0.2-0.4-0.2-0.8V2.5C234.7,2,234.8,1.6,235,1.4L235,1.4z M249.3,1.3
	c-0.8,0.8-1.1,1.7-1.1,2.9c0,1,0.3,1.8,0.8,2.4c0.5,0.6,1.6,1.2,3.1,1.9l1.6,0.7c0.7,0.3,1.2,0.6,1.5,1c0.3,0.4,0.4,0.8,0.4,1.4
	c0,0.7-0.3,1.3-0.8,1.9c-0.6,0.5-1.2,0.8-1.9,0.8c-0.9,0-1.8-0.4-2.6-1.2c-0.8-0.8-1.4-1.8-1.8-3c0-0.2-0.1-0.3-0.2-0.3
	c-0.2,0-0.3,0.2-0.3,0.5c0,0.3,0.1,0.9,0.4,1.8c0.2,0.6,0.3,1.1,0.3,1.4c0,0.3,0.1,0.5,0.1,0.5c0.1,0.1,0.2,0.1,0.6,0.2
	c0.2,0,0.6,0.2,1.1,0.3c1,0.3,1.8,0.5,2.3,0.5c1.2,0,2.2-0.5,3.1-1.4c0.9-0.9,1.3-2,1.3-3.2c0-1.1-0.3-2-1-2.8
	c-0.5-0.6-1.6-1.3-3.3-2c-1.4-0.6-2.2-1-2.5-1.2c-0.4-0.4-0.6-0.9-0.6-1.4c0-0.6,0.2-1.1,0.7-1.5c0.5-0.4,1-0.6,1.6-0.6
	c0.9,0,1.8,0.4,2.6,1.1c0.8,0.7,1.3,1.6,1.5,2.5c0.1,0.3,0.1,0.4,0.3,0.4c0.2,0,0.3-0.2,0.3-0.5c0-0.1,0-0.1,0-0.2l-0.1-1l-0.1-1
	c0-0.1,0-0.2,0-0.4l0-0.8c0-0.2-0.1-0.3-0.2-0.3c-0.1,0-0.1,0-0.2,0L255.7,1c-0.1,0-0.2,0.1-0.3,0.1c-0.1,0-0.4-0.1-0.7-0.2L254,0.6
	c-0.6-0.3-1.3-0.4-1.9-0.4C251,0.2,250.1,0.6,249.3,1.3L249.3,1.3z M265.4,2.6c0-0.6,0.1-1,0.2-1.2s0.5-0.3,1-0.4
	c0.1,0,0.2-0.1,0.3-0.1c0,0,0.1-0.1,0.1-0.3c0-0.2-0.1-0.3-0.3-0.3c-0.4,0-0.9,0-1.7,0.1l-0.8,0.1c-0.6,0-1.1,0.1-1.5,0.1
	c-0.6,0-1,0-1.3-0.1c-0.3,0-0.4-0.1-0.6-0.1c-0.2,0-0.3,0.1-0.3,0.3c0,0.1,0.1,0.2,0.2,0.3c0.1,0.1,0.3,0.1,0.7,0.2
	c0.6,0.1,1,0.3,1.2,0.5c0.2,0.3,0.3,0.7,0.3,1.4v8.3l0,0.9c0,0.6-0.1,1-0.2,1.3c-0.2,0.3-0.5,0.5-1,0.7l-0.3,0.2l0,0.1
	c0,0.1,0.1,0.2,0.3,0.2c0.2,0,0.4,0,0.8-0.1c0.4-0.1,1-0.1,1.7-0.1c0.6,0,1.3,0.1,2.2,0.2c0.4,0,0.6,0.1,0.8,0.1
	c0.5,0,0.7-0.1,0.7-0.3c0-0.2-0.2-0.3-0.5-0.3c-0.5,0-0.9-0.1-1.3-0.4c-0.3-0.3-0.5-0.7-0.6-1.2l-0.1-1V2.6L265.4,2.6z M279.1,1.7
	c0.3-0.2,0.9-0.2,2-0.2c0.8,0,1.4,0.1,1.8,0.4c0.4,0.3,0.7,0.8,0.8,1.4c0.1,0.3,0.2,0.4,0.3,0.4c0.2,0,0.3-0.1,0.3-0.3
	c0-0.2,0-0.5-0.1-0.9c-0.1-0.4-0.1-0.7-0.1-0.8l-0.1-0.8c0-0.3-0.2-0.5-0.6-0.5c-0.1,0-0.3,0-0.7,0c-1.8,0.1-3.6,0.1-5.2,0.1l-2.5,0
	l-2.1,0c-0.5,0-0.9,0-1.2,0c-0.2,0-0.3,0-0.4,0c-0.3,0-0.4,0.1-0.4,0.4l-0.1,0.6l-0.1,0.9l-0.1,0.9c-0.1,0.3-0.1,0.6-0.1,0.8
	c0,0.2,0.1,0.3,0.3,0.3c0.2,0,0.3-0.1,0.4-0.4l0.1-0.3c0.2-0.8,0.4-1.2,0.5-1.4c0.1-0.2,0.4-0.4,0.7-0.5c0.5-0.2,1.5-0.3,2.9-0.3
	c0.6,0,0.9,0.3,0.9,0.8v9.3l0,0.5c0,0.6-0.1,1.1-0.4,1.5c-0.3,0.4-0.7,0.6-1.3,0.6c-0.2,0-0.3,0-0.4,0.1c-0.1,0-0.1,0.1-0.1,0.3
	c0,0.2,0.1,0.3,0.3,0.3c0.1,0,0.3,0,0.5,0l2.3-0.1c0.3,0,0.7,0,1.1,0c0.2,0,0.3,0,0.4,0l1.3,0.1l0.8,0c0.1,0,0.2,0,0.3,0
	c0.2,0,0.3-0.1,0.3-0.2c0-0.2-0.1-0.4-0.4-0.4c-0.9-0.1-1.5-0.3-1.8-0.8c-0.3-0.5-0.5-1.3-0.5-2.5V3C278.7,2.3,278.8,1.9,279.1,1.7
	L279.1,1.7z M295.6,8.4c0-0.1,0.1-0.3,0.3-0.5c0.7-1.2,1.6-2.6,2.4-4.3c0.5-1,0.9-1.6,1.2-1.9c0.3-0.3,0.7-0.6,1.3-0.7
	c0.3-0.1,0.4-0.2,0.4-0.3c0-0.2-0.1-0.2-0.3-0.2c-0.3,0-0.6,0-0.8,0l-0.9,0.1c-0.3,0-0.5,0-0.8,0c-0.4,0-0.8,0-1-0.1l-0.7-0.1
	c-0.2,0-0.3,0-0.5,0c-0.2,0-0.3,0.1-0.3,0.3c0,0.1,0.1,0.2,0.3,0.3c0.4,0,0.8,0.2,1.2,0.4c0.3,0.3,0.5,0.5,0.5,0.8
	c0,0.3-0.4,1.2-1.1,2.6c-0.4,0.7-0.6,1.1-0.7,1.3c-0.4,0.7-0.7,1.1-0.9,1.1c-0.2,0-0.5-0.2-0.7-0.7c-0.1-0.2-0.3-0.6-0.6-1.2
	L293,3.6c-0.5-1-0.8-1.6-0.8-1.9c0-0.4,0.3-0.6,0.8-0.7c0.2,0,0.4-0.1,0.4-0.3c0-0.2-0.1-0.3-0.4-0.3c-0.1,0-0.4,0-0.9,0.1
	c-0.6,0.1-1.2,0.1-1.7,0.1c-0.6,0-1.3,0-2-0.1c-0.4,0-0.6-0.1-0.8-0.1c-0.2,0-0.3,0.1-0.3,0.3c0,0.2,0.1,0.3,0.4,0.3
	c0.9,0.1,1.6,0.7,2.2,1.9l1.6,3c0.4,0.8,0.8,1.6,1.2,2.2c0.3,0.5,0.5,1,0.5,1.5v2c0,0.9-0.1,1.6-0.4,2c-0.3,0.4-0.8,0.6-1.6,0.8
	c-0.2,0-0.3,0.1-0.3,0.2c0,0.2,0.1,0.4,0.2,0.4c0.1,0,0.3,0,0.6-0.1c0.4-0.1,1.3-0.1,2.6-0.1c0.5,0,1,0,1.2,0l1.5,0.1
	c0.2,0,0.4,0,0.5,0c0.3,0,0.5-0.1,0.5-0.3c0-0.2-0.1-0.3-0.3-0.3c-1.3-0.1-2-0.5-2.1-1.3l-0.1-0.7V9.2
	C295.5,8.8,295.5,8.6,295.6,8.4L295.6,8.4z M316.6,0.8c-1,0.4-1.9,1-2.6,1.8c-0.6,0.6-1.1,1.4-1.4,2.4c-0.3,0.9-0.5,1.9-0.5,2.8
	c0,2.2,0.7,4,2,5.3c1.4,1.3,3.2,2,5.4,2c2.4,0,4.2-0.8,5.6-2.3c1.4-1.6,2.1-3.5,2.1-5.7c0-2.1-0.7-3.7-2-5c-1.3-1.3-3.1-1.9-5.3-1.9
	C318.8,0.2,317.6,0.4,316.6,0.8L316.6,0.8z M322.6,2.3c0.7,0.6,1.2,1.4,1.6,2.5c0.4,1,0.6,2.1,0.6,3.2c0,1.9-0.4,3.4-1.3,4.6
	c-0.9,1.1-2,1.7-3.4,1.7c-1.6,0-2.9-0.7-3.9-2.1c-1-1.4-1.5-3.2-1.5-5.3c0-1.9,0.4-3.3,1.2-4.3c0.8-1,1.9-1.6,3.3-1.6
	C320.5,0.9,321.6,1.4,322.6,2.3L322.6,2.3L322.6,2.3z M335,2.3c0-0.4,0.1-0.6,0.2-0.8c0.2-0.2,0.4-0.2,0.8-0.2l0.4,0l1.4,0
	c1.6,0,2.5,0.5,2.8,1.4c0,0.1,0.1,0.2,0.1,0.4v0.4c0,0.2,0.1,0.3,0.2,0.3c0.3,0,0.4-0.3,0.4-0.9c0-0.1,0-0.2,0-0.4l-0.1-0.8
	c0-0.1,0-0.3-0.1-0.8c0-0.4-0.1-0.5-0.3-0.5c-0.2,0-0.4,0-0.8,0c-1,0.1-1.9,0.1-2.9,0.1l-2.8,0l-1.8,0c-0.5,0-0.9,0-1.3-0.1
	c-0.3,0-0.5,0-0.5,0c-0.2,0-0.4,0.1-0.4,0.3c0,0.2,0.1,0.2,0.3,0.3c0.7,0,1.2,0.2,1.5,0.5c0.3,0.3,0.5,0.8,0.5,1.7v8.6
	c0,0.8-0.1,1.4-0.2,1.8c-0.1,0.3-0.4,0.6-0.8,0.7c-0.2,0.1-0.3,0.2-0.3,0.3c0,0.2,0.1,0.3,0.3,0.3c0.2,0,0.5,0,1-0.1
	c0.4,0,0.8-0.1,1.4-0.1h1.2c0.8,0,1.3,0,1.5,0c0.3,0,0.5,0.1,0.6,0.1c0.2,0,0.2-0.1,0.2-0.3c0-0.2-0.1-0.3-0.3-0.3
	c-0.8-0.1-1.3-0.3-1.6-0.6c-0.4-0.5-0.5-1.2-0.5-2.3v-1.2l0-0.8c0-0.9,0.1-1.4,0.2-1.5c0.2-0.1,0.8-0.2,1.8-0.2
	c0.8,0,1.4,0.1,1.7,0.4c0.3,0.3,0.6,0.7,0.7,1.5c0,0.2,0.1,0.3,0.3,0.3c0.2,0,0.3-0.1,0.3-0.2c0-0.1,0-0.2,0-0.4l-0.2-2
	c0-0.5-0.1-1-0.1-1.4c0-0.1,0-0.2,0-0.3c0-0.1,0-0.2,0-0.3c0-0.2-0.1-0.3-0.3-0.3c-0.1,0-0.2,0.1-0.2,0.2c-0.3,0.6-0.5,1.1-0.8,1.3
	c-0.3,0.2-0.7,0.3-1.2,0.3l-1.1,0l-0.4,0c-0.3,0-0.5-0.1-0.6-0.2C335,6.3,335,6.1,335,5.7V2.3L335,2.3z"/>
<path class="st0" d="M93.9,64.8c0-0.8,0.1-1.3,0.2-1.6c0.1-0.2,0.5-0.4,1.1-0.6c0.2,0,0.3-0.1,0.3-0.3c0-0.2-0.1-0.3-0.3-0.3
	c-0.1,0-0.3,0-0.5,0c-0.7,0.1-1.4,0.1-2.2,0.1c-1,0-1.8,0-2.5-0.1c-0.2,0-0.3,0-0.5,0c-0.2,0-0.3,0.1-0.3,0.2c0,0.2,0,0.3,0.1,0.3
	c0,0,0.1,0.1,0.3,0.1c0.5,0.1,1,0.2,1.3,0.4s0.5,0.5,0.6,0.9l0.1,0.6l0,0.4v8.4c0,0.9-0.1,1.5-0.3,1.9c-0.2,0.4-0.5,0.6-1,0.7
	c-0.2,0-0.3,0.1-0.3,0.3c0,0.2,0.1,0.3,0.4,0.3c0.3,0,0.6,0,1.1-0.1c0.7-0.1,1.4-0.1,2.2-0.1c0.6,0,1.1,0,1.4,0.1
	c0.3,0.1,0.5,0.1,0.7,0.1c0.2,0,0.3-0.1,0.3-0.3c0-0.2-0.2-0.3-0.6-0.3c-0.6,0-1-0.3-1.2-0.8c-0.2-0.5-0.4-1.3-0.4-2.4v-0.4
	c0-0.6,0-1,0.1-1.2c0-0.2,0.2-0.4,0.3-0.6l0.5-0.4l0.3-0.3c0.1-0.1,0.2-0.2,0.3-0.2c0.1,0,0.3,0.2,0.5,0.5c0.2,0.4,0.8,1.2,1.8,2.5
	c0.9,1.3,1.7,2.2,2.3,3c0.2,0.3,0.4,0.5,0.4,0.5c0.3,0.4,0.6,0.5,1,0.5c0.1,0,0.4,0,0.8-0.1c0.2,0,0.5,0,0.7,0c0.5,0,1.1,0,1.7,0.1
	c0.1,0,0.2,0,0.3,0c0.2,0,0.3-0.1,0.3-0.3c0-0.2-0.1-0.3-0.3-0.3l-0.2-0.1c-1-0.3-1.8-0.7-2.3-1.3c-0.8-0.8-2.1-2.4-3.8-4.8l-0.8-1
	c-0.3-0.4-0.5-0.7-0.5-0.9c0-0.2,0.3-0.6,0.9-1.1c0.2-0.2,0.6-0.5,1.1-1c1.1-1.1,2-1.8,2.7-2.3c0.6-0.4,1.2-0.7,1.7-0.8
	c0.3,0,0.5-0.2,0.5-0.3c0-0.2-0.1-0.3-0.4-0.3c-0.3,0-0.8,0-1.5,0.1c-0.3,0-0.6,0.1-0.8,0.1c-0.3,0-0.8,0-1.6-0.1
	c-0.3,0-0.6-0.1-0.9-0.1c-0.3,0-0.4,0.1-0.4,0.3c0,0.2,0.1,0.3,0.3,0.3c0.3,0,0.5,0.1,0.7,0.2c0.2,0.1,0.3,0.3,0.3,0.5
	c0,0.6-1,1.8-2.9,3.5l-1.5,1.3l-1,0.9c-0.3,0.2-0.4,0.3-0.5,0.3c-0.1,0-0.2-0.1-0.2-0.4v-3.8L93.9,64.8L93.9,64.8z M112.7,63.9
	L112,63c-0.4-0.5-0.7-0.8-0.8-0.9c-0.1-0.1-0.3-0.1-0.5-0.1c-0.2,0-0.3,0-0.6,0c-0.6,0.1-1.2,0.1-1.8,0.1l-0.4,0l-0.7,0
	c-0.2,0-0.4,0.1-0.4,0.3c0,0.2,0.1,0.3,0.3,0.3c1.6,0.1,2.4,1.2,2.4,3.4v4.5l-0.1,2.5c0,0.9-0.1,1.5-0.3,2c-0.2,0.5-0.6,0.8-1.1,0.9
	c-0.2,0.1-0.3,0.2-0.3,0.3c0,0.2,0.1,0.3,0.3,0.3c0.1,0,0.3,0,0.5-0.1c0.6-0.1,1.2-0.1,1.9-0.1c0.7,0,1.4,0,2,0.1c0.2,0,0.3,0,0.4,0
	c0.2,0,0.3-0.1,0.3-0.3c0-0.2-0.1-0.2-0.3-0.3c-1.1-0.1-1.8-0.5-2-1.3c-0.2-0.7-0.3-2.2-0.3-4.4v-4.1l0-0.3c0-0.3,0.1-0.5,0.3-0.5
	c0.1,0,0.2,0.1,0.3,0.3l9.5,10.6c0.1,0.1,0.3,0.2,0.4,0.2c0.1,0,0.2-0.1,0.2-0.3l0-1.3l0-0.8l0-1.2l0-0.9l0.1-6.5V65
	c0-1.4,0.5-2.2,1.4-2.4c0.2,0,0.3-0.1,0.3-0.3c0-0.2-0.1-0.3-0.3-0.3c-0.1,0-0.2,0-0.3,0c-1,0.1-1.8,0.2-2.3,0.2
	c-0.2,0-0.5,0-0.9-0.1c-0.6-0.1-1-0.1-1.2-0.1c-0.2,0-0.3,0.1-0.3,0.3c0,0.1,0.1,0.2,0.3,0.2c1,0.1,1.6,0.4,2,1
	c0.3,0.6,0.5,1.7,0.5,3.3c0,1.4,0,2.9-0.1,4.4c0,0.4-0.1,0.6-0.2,0.6c-0.2,0-0.5-0.3-1-0.8l-0.4-0.4l-5.5-6.2
	C113.2,64.4,113,64.2,112.7,63.9L112.7,63.9L112.7,63.9z M129.9,62.5c-1,0.4-1.9,1-2.6,1.8c-0.6,0.6-1.1,1.4-1.4,2.4
	c-0.3,0.9-0.5,1.9-0.5,2.8c0,2.2,0.7,4,2,5.3c1.4,1.3,3.2,2,5.4,2c2.4,0,4.2-0.8,5.6-2.3c1.4-1.6,2.1-3.5,2.1-5.7c0-2.1-0.7-3.7-2-5
	c-1.3-1.3-3.1-1.9-5.3-1.9C132.1,61.8,131,62,129.9,62.5L129.9,62.5z M135.9,64c0.7,0.6,1.2,1.4,1.6,2.5s0.6,2.1,0.6,3.2
	c0,1.9-0.4,3.4-1.3,4.6s-2,1.7-3.4,1.7c-1.6,0-2.9-0.7-3.9-2.1c-1-1.4-1.5-3.2-1.5-5.3c0-1.9,0.4-3.3,1.2-4.3c0.8-1,1.9-1.6,3.3-1.6
	C133.8,62.6,135,63.1,135.9,64L135.9,64L135.9,64z M151.6,62.3c0,0.2,0.1,0.3,0.4,0.3l0.5,0.1c0.6,0.1,0.9,0.3,0.9,0.8
	c0,0.2-0.1,0.5-0.2,0.7c-0.1,0.2-0.5,0.7-1.1,1.3l-1.1,1.3l-0.5,0.6c-0.1,0.1-0.2,0.2-0.3,0.2c-0.1,0-0.3-0.1-0.5-0.5l-0.8-1.1
	l-0.7-1c-0.5-0.8-0.7-1.3-0.8-1.7c0-0.2,0.1-0.3,0.2-0.5c0.2-0.2,0.4-0.2,0.6-0.3c0.3,0,0.4-0.1,0.4-0.3c0-0.2-0.1-0.3-0.3-0.3
	c-0.2,0-0.4,0-0.7,0l-1,0.1c-0.4,0-0.8,0.1-1.4,0.1c-0.6,0-1.4,0-2.5-0.1c-0.3,0-0.5,0-0.6,0c-0.2,0-0.3,0.1-0.3,0.3
	c0,0.2,0.1,0.3,0.4,0.4c0.7,0.1,1.2,0.4,1.6,0.8c0.4,0.4,1.3,1.5,2.6,3.3c0.5,0.6,0.9,1.2,1.2,1.6c0.5,0.7,0.8,1.1,0.8,1.2
	c0,0.1-0.3,0.5-0.8,1.1c-0.3,0.4-0.9,1-1.7,2c-0.9,1.1-1.6,1.9-2.2,2.3c-0.5,0.4-1.1,0.7-1.6,0.8c-0.2,0-0.3,0.1-0.3,0.3
	c0,0.1,0,0.2,0.1,0.2l0.3,0.1l0.5,0l0.9,0c0.4,0,0.7,0,1,0c0.9,0,1.7,0,2.5,0.1c0.2,0,0.3,0,0.4,0c0.1,0,0.2-0.1,0.2-0.3
	c0-0.2-0.1-0.3-0.3-0.3c-1.1-0.1-1.6-0.4-1.6-1c0-0.5,0.8-1.7,2.4-3.5c0.2-0.3,0.5-0.5,0.6-0.7c0.1-0.1,0.2-0.2,0.3-0.2
	c0,0,0.1,0.1,0.2,0.2l0.5,0.7c0.9,1.2,1.5,2,1.9,2.5c0.3,0.5,0.5,0.9,0.5,1.2c0,0.5-0.3,0.7-0.8,0.8c-0.3,0-0.4,0.1-0.4,0.3
	c0,0.2,0.1,0.3,0.4,0.3c0.2,0,0.5,0,0.8,0l1.2-0.1c0.3,0,0.6,0,0.9,0c0.5,0,1,0,1.7,0.1l1.3,0.1c0.2,0,0.3,0,0.5,0
	c0.3,0,0.4-0.1,0.4-0.3c0-0.2-0.1-0.3-0.4-0.4c-0.8-0.1-1.4-0.3-1.9-0.8c-0.8-0.8-1.8-2-2.9-3.7c-0.7-1-1.2-1.7-1.4-1.9
	c-0.4-0.5-0.6-0.8-0.6-1c0-0.1,0.2-0.3,0.5-0.7c0.1-0.1,0.5-0.6,1.4-1.6c1.1-1.4,2.1-2.4,3-3.1c0.3-0.2,0.8-0.4,1.4-0.5
	c0.2,0,0.3-0.1,0.3-0.3c0-0.2-0.1-0.3-0.3-0.3c-0.2,0-0.4,0-0.7,0l-1.3,0.1c-0.3,0-0.7,0-1,0c-0.6,0-1.2,0-1.8-0.1
	c-0.2,0-0.3,0-0.4,0C151.8,62,151.6,62.1,151.6,62.3L151.6,62.3L151.6,62.3z M164.7,63.5c0-0.5,0.3-0.8,0.8-0.9
	c0.3-0.1,0.4-0.2,0.4-0.3c0-0.2-0.1-0.3-0.3-0.3c-0.1,0-0.4,0-0.9,0l-1.1,0.1l-1.8-0.1c-0.5,0-0.9,0-1.2-0.1c-0.2,0-0.3,0-0.3,0
	c-0.2,0-0.3,0.1-0.3,0.3c0,0.2,0.1,0.3,0.4,0.4c0.5,0.1,0.9,0.4,1.2,0.8c0.3,0.4,0.7,1.3,1.1,2.5c0.4,1.1,0.9,2.3,1.5,3.7l2.5,5.6
	l0.3,0.6l0.2,0.5c0.1,0.2,0.2,0.3,0.3,0.3c0.2,0,0.4-0.2,0.5-0.5c0-0.1,0.3-0.6,0.6-1.3c0-0.1,0.4-0.8,0.9-2.1l1.8-3.9l1.6-3.6
	c0.5-1.1,0.8-1.8,1.1-2.1c0.3-0.3,0.6-0.5,1-0.6c0.2,0,0.3-0.1,0.3-0.3c0-0.2-0.1-0.3-0.2-0.3c-0.1,0-0.2,0-0.4,0
	c-0.5,0.1-1,0.1-1.7,0.1c-0.2,0-0.6,0-1.1,0L171,62c-0.3,0-0.5,0-0.6,0c-0.2,0-0.3,0.1-0.3,0.2c0,0.2,0.1,0.3,0.4,0.3
	c0.6,0.1,1,0.3,1.3,0.5c0.3,0.3,0.5,0.6,0.5,1.1c0,0.8-0.4,2-1.2,3.7l-2.4,5.2c-0.1,0.2-0.2,0.3-0.3,0.3c-0.1,0-0.2-0.1-0.3-0.4
	l-2.3-5.7C165.1,65.4,164.7,64.2,164.7,63.5L164.7,63.5L164.7,63.5z M182.6,64.3c0-0.6,0.1-1,0.2-1.2c0.1-0.2,0.5-0.3,1-0.4
	c0.1,0,0.2-0.1,0.3-0.1c0,0,0.1-0.1,0.1-0.3c0-0.2-0.1-0.3-0.3-0.3c-0.4,0-0.9,0-1.7,0.1l-0.8,0.1c-0.6,0-1.1,0.1-1.5,0.1
	c-0.6,0-1,0-1.3-0.1c-0.3,0-0.4-0.1-0.6-0.1c-0.2,0-0.3,0.1-0.3,0.3c0,0.1,0,0.2,0.2,0.3c0.1,0.1,0.3,0.1,0.7,0.2
	c0.6,0.1,1,0.3,1.2,0.5c0.2,0.3,0.3,0.7,0.3,1.4v8.3l0,0.9c0,0.6-0.1,1-0.2,1.3c-0.2,0.3-0.5,0.5-1,0.7l-0.3,0.2l0,0.1
	c0,0.2,0.1,0.2,0.3,0.2c0.2,0,0.4,0,0.8-0.1c0.4-0.1,1-0.1,1.7-0.1c0.6,0,1.3,0.1,2.2,0.2c0.4,0,0.6,0.1,0.8,0.1
	c0.5,0,0.7-0.1,0.7-0.3c0-0.2-0.2-0.3-0.5-0.3c-0.5,0-0.9-0.1-1.3-0.4c-0.3-0.3-0.5-0.7-0.6-1.2l-0.1-1V64.3L182.6,64.3z
	 M192.8,64.1c0-0.9,0.4-1.4,1.1-1.5c0.3,0,0.4-0.1,0.4-0.3c0-0.2-0.2-0.3-0.6-0.3c-0.6,0-1.1,0-1.7,0.1c-0.7,0.1-1.3,0.1-1.6,0.1
	c-0.2,0-0.5,0-1-0.1l-0.5,0c-0.2,0-0.3,0-0.4,0c-0.1,0-0.2,0-0.3,0c-0.2,0-0.3,0.1-0.3,0.3c0,0.2,0.1,0.3,0.4,0.3l0.6,0.1
	c0.9,0.1,1.4,0.8,1.4,1.9v8.7c0,0.8-0.1,1.4-0.3,1.8c-0.2,0.4-0.5,0.6-0.9,0.7c-0.2,0-0.3,0.1-0.3,0.3c0,0.2,0.1,0.3,0.3,0.3
	c0.1,0,0.3,0,0.6-0.1c0.9-0.1,1.8-0.2,2.6-0.2c0.5,0,0.9,0,1.3,0l1.1,0.1c0.7,0,1.1,0.1,1.3,0.1c0.5,0,0.8,0.1,1,0.1
	c0.9,0,1.6-0.3,2.1-0.9c0.6-0.7,0.9-1.5,0.9-2.4c0-0.3-0.1-0.4-0.2-0.4c-0.1,0-0.3,0.2-0.6,0.6c-1,1.4-2.7,2.1-5,2.1
	c-0.5,0-0.8,0-1-0.1c-0.3-0.2-0.5-0.9-0.5-2.2V64.1L192.8,64.1z M207.2,64.1c0-0.9,0.4-1.4,1.1-1.5c0.3,0,0.4-0.1,0.4-0.3
	c0-0.2-0.2-0.3-0.6-0.3c-0.6,0-1.1,0-1.7,0.1c-0.7,0.1-1.3,0.1-1.6,0.1c-0.2,0-0.5,0-1-0.1l-0.5,0c-0.2,0-0.3,0-0.4,0
	c-0.1,0-0.2,0-0.3,0c-0.2,0-0.3,0.1-0.3,0.3c0,0.2,0.1,0.3,0.4,0.3l0.6,0.1c0.9,0.1,1.4,0.8,1.4,1.9v8.7c0,0.8-0.1,1.4-0.3,1.8
	c-0.2,0.4-0.5,0.6-0.9,0.7c-0.2,0-0.3,0.1-0.3,0.3c0,0.2,0.1,0.3,0.3,0.3c0.1,0,0.3,0,0.6-0.1c0.9-0.1,1.8-0.2,2.6-0.2
	c0.5,0,0.9,0,1.3,0l1.1,0.1c0.7,0,1.1,0.1,1.3,0.1c0.5,0,0.8,0.1,1,0.1c0.9,0,1.6-0.3,2.1-0.9c0.6-0.7,0.9-1.5,0.9-2.4
	c0-0.3-0.1-0.4-0.2-0.4c-0.1,0-0.3,0.2-0.6,0.6c-1,1.4-2.7,2.1-5,2.1c-0.5,0-0.8,0-1-0.1c-0.3-0.2-0.5-0.9-0.5-2.2V64.1L207.2,64.1z
	 M221.6,64.1c0-0.6,0.2-0.9,0.5-1.1l0.7-0.1h1.3c1.1,0,1.9,0.2,2.5,0.5c0.5,0.3,0.8,0.8,0.8,1.5c0,0.3,0.1,0.5,0.2,0.5
	c0.3,0,0.4-0.3,0.4-0.8c0-0.3,0-0.7-0.1-1.3c0-0.4-0.1-0.7-0.1-0.9c0-0.2-0.1-0.3-0.3-0.3c0,0-0.1,0-0.1,0c-0.5,0.1-1.9,0.1-4.2,0.1
	l-4,0l-1.1,0c-0.2,0-0.4,0-0.5,0c-0.2,0-0.3,0-0.3,0c-0.2,0-0.3,0.1-0.3,0.2c0,0.2,0.1,0.3,0.3,0.3c0.8,0.1,1.3,0.3,1.6,0.6
	c0.3,0.3,0.4,0.8,0.4,1.6v8.3c0,0.6,0,1.1-0.1,1.5c-0.1,0.4-0.2,0.7-0.3,0.9c-0.1,0.2-0.4,0.3-0.8,0.5c-0.2,0.1-0.2,0.2-0.2,0.3
	c0,0.2,0.1,0.2,0.3,0.2c0.1,0,0.3,0,0.6,0c1-0.1,1.8-0.1,2.3-0.1c0.8,0,1.4,0,1.8,0.1l1.2,0.1c0.5,0.1,1,0.1,1.5,0.1
	c0.8,0,1.4-0.1,1.8-0.4c0.5-0.2,0.8-0.6,1.2-1.2c0.4-0.6,0.6-1.3,0.6-2c0-0.1,0-0.2-0.1-0.2c-0.1-0.1-0.1-0.1-0.2-0.1
	c0,0-0.1,0.1-0.1,0.1c-0.9,1.7-2.7,2.6-5.6,2.6c-0.3,0-0.6-0.1-0.7-0.2c-0.2-0.1-0.3-0.3-0.4-0.6c-0.2-0.4-0.2-1.1-0.2-2.1v-0.9
	c0-0.8,0-1.3,0.1-1.7c0-0.3,0.1-0.5,0.2-0.6c0.1-0.1,0.4-0.2,0.7-0.2h0.7c0.7,0,1.2,0,1.5,0.1c0.3,0,0.5,0.2,0.7,0.3
	c0.3,0.3,0.5,0.8,0.6,1.4c0,0.3,0.2,0.4,0.3,0.4c0.1,0,0.1,0,0.2-0.1c0,0,0-0.1,0-0.2l0-0.5c0-0.4,0-0.9-0.1-1.4
	c-0.1-0.8-0.1-1.3-0.1-1.6c0-0.1,0-0.3,0-0.5c0-0.3,0-0.4,0-0.5c0-0.2-0.1-0.3-0.2-0.3c-0.1,0-0.3,0.1-0.3,0.2l-0.2,0.5
	c-0.4,0.8-0.9,1.1-1.6,1.1h-0.9l-0.5,0l-0.3,0c-0.4,0-0.6-0.1-0.7-0.3c-0.1-0.2-0.1-0.6-0.1-1.2v-2.3L221.6,64.1L221.6,64.1z"/>
<polygon class="st1" points="76.3,76.3 76.3,0 0,0 0,76.3 76.3,76.3 "/>
<path class="st2" d="M66.7,9.6v19.3h-7.1c0-3.5-3.5-6.4-7.8-6.4c-3.2,0-5.9,1.5-7.1,3.7v24.1c0,5.1,4,9.3,8.9,9.3h0v7.1H22.8v-7.1h0
	c4.9,0,8.9-4.2,8.9-9.3V26.2c-1.2-2.2-4-3.7-7.1-3.7c-4.3,0-7.8,2.9-7.8,6.4H9.6V9.6H66.7L66.7,9.6z"/>
</svg>
