<?xml version="1.0" encoding="utf-8"?>
<!-- Generator: Adobe Illustrator 20.0.0, SVG Export Plug-In . SVG Version: 6.00 Build 0)  -->
<svg version="1.1" id="Layer_1" xmlns="http://www.w3.org/2000/svg" xmlns:xlink="http://www.w3.org/1999/xlink" x="0px" y="0px"
	 viewBox="0 0 981.9 216.1" style="enable-background:new 0 0 981.9 216.1;" xml:space="preserve">
<style type="text/css">
	.st0{fill:#a6093d;}
</style>
<path class="st0" d="M889.7,193.9v-83.8c0-14.1-3.4-24.9-10.3-32.5c-6.9-7.6-17.5-11.4-31.9-11.4c-3.7,0-7.4,0.5-11.2,1.6
	c-3.8,1-7.3,2.5-10.7,4.3c-3.4,1.8-6.4,4-9.1,6.6c-2.7,2.6-5,5.4-6.7,8.4h-0.5V0h-15.8v184.5c-4.7-0.4-9.5-0.7-14.3-1.1l-0.7-14.1
	c-2.4,1.3-5,2.3-7.9,3.1c-2.9,0.8-5.7,1.2-8.4,1.2c-2.4,0-4.6-0.3-6.6-0.8c-2-0.6-3.7-1.6-5.2-3c-1.4-1.4-2.6-3.5-3.4-6.1
	c-0.8-2.6-1.2-6-1.2-10.2v-70h32.4V69.1h-32.4V37.4H730v31.7h-23.8v14.4H730v74.6c0,6.2,0.9,11.3,2.6,15.1c1.4,3,3.1,5.6,5.1,7.6
	c-15-0.8-30.3-1.6-45.7-2.3V0h-15.8v98v79.9c-7.9-0.3-15.8-0.6-23.7-0.8c-0.3-2.2-0.5-4.6-0.7-7.3c-0.4-4.7-0.6-9.2-0.6-13.6V106
	c0-6.9-1.1-12.8-3.4-17.8c-2.2-5-5.2-9.1-8.9-12.4c-3.7-3.3-8-5.7-13.1-7.3c-5-1.6-10.3-2.4-15.7-2.4c-21.1,0-36.9,5.4-47.5,16.3
	l9.6,11.3c9.8-8.8,21.2-13.2,34.3-13.2c19.2,0,28.8,9.7,28.8,29v2.9h-7.9c-6.7,0-14.1,0.3-22.2,1c-8.1,0.6-15.7,2.2-22.8,4.8
	c-7.1,2.6-13,6.4-17.8,11.6c-4.7,5.2-7.1,12.4-7.1,21.5c0,5.4,1.1,10.2,3.2,14.3c2,3.7,4.5,6.9,7.6,9.5c-14.6-0.2-29.3-0.3-44.1-0.4
	c5.4-3.6,10.4-8.3,15.1-14.2l-12.2-10.1c-3.2,5.1-7.9,9.6-14,13.6c-6.2,3.9-13.5,5.9-22,5.9c-5.6,0-10.8-1-15.6-3.1
	c-4.8-2.1-9-4.9-12.7-8.5c-3.7-3.6-6.6-7.9-8.9-12.8c-2.2-5-3.6-10.2-4.1-15.8h93.6v-7.2c0-7.7-1.2-14.9-3.6-21.7
	c-2.4-6.8-5.9-12.7-10.4-17.8c-4.6-5-10.2-9.1-16.9-12.1c-6.7-3-14.3-4.6-22.8-4.6c-8,0-15.4,1.5-22.3,4.4c-6.9,3-12.9,7.1-18,12.4
	c-5.1,5.3-9.1,11.5-12,18.7s-4.3,15-4.3,23.5c0,8.5,1.5,16.3,4.4,23.5c3,7.2,7,13.4,12.1,18.7c2.7,2.7,5.6,5.2,8.8,7.3
	c-13.7,0.1-27.3,0.2-40.8,0.4v-65c0-14.1-3.4-24.9-10.3-32.5c-6.9-7.6-17.5-11.4-31.9-11.4c-3.7,0-7.4,0.5-11.2,1.6
	c-3.8,1-7.3,2.5-10.7,4.3c-3.4,1.8-6.4,4-9.1,6.6c-2.7,2.6-5,5.4-6.7,8.4h-0.5V0h-15.8v177.5c-12.7,0.5-25.3,1-37.8,1.5
	c6.8-3.1,12.9-7.8,18.3-14.2l-13-9.8c-2.7,4.2-6.5,7.7-11.4,10.6c-4.9,2.9-10.4,4.3-16.7,4.3c-6.6,0.2-12.4-0.9-17.6-3.1
	c-5.2-2.2-9.6-5.4-13.3-9.4c-3.7-4-6.5-8.8-8.4-14.3c-1.9-5.5-2.9-11.5-2.9-17.9c0-6.4,1-12.4,2.9-17.9c1.9-5.5,4.7-10.3,8.4-14.3
	c3.7-4,8.1-7.1,13.3-9.4c5.2-2.2,11.1-3.3,17.6-3.1c6.2,0,11.8,1.4,16.7,4.3c4.9,2.9,8.7,6.4,11.4,10.6l13-9.8
	c-5.6-6.6-11.9-11.4-19-14.5c-7-3.1-14.4-4.8-22.1-4.9c-9.1-0.2-17.4,1.2-24.7,4.2c-7.4,3-13.6,7.1-18.8,12.4
	c-5.2,5.3-9.2,11.6-11.9,18.8c-2.7,7.3-4.1,15.2-4.1,23.6c0,8.5,1.4,16.4,4.1,23.6c2.7,7.3,6.7,13.6,11.9,18.8
	c5.2,5.3,11.5,9.4,18.8,12.4c1.2,0.5,2.4,0.9,3.6,1.3c-17.2,1-34,2.2-50.5,3.4c-0.2-3-0.4-6.1-0.6-9.3c-0.2-4.6-0.4-8.5-0.4-11.5
	V69.1h-15.8V134c0,10.2-1.6,18.2-4.8,24c-3.2,5.8-6.8,10.1-10.9,13s-8,4.6-11.6,5.3c-3.7,0.6-5.9,1-6.7,1c-5.9,0-10.8-0.8-14.8-2.5
	c-3.9-1.7-7-4.2-9.4-7.4c-2.3-3.3-4-7.3-4.9-12.1c-1-4.8-1.4-10.3-1.4-16.6V69.1H92.2v78.6c0,14.1,3.4,24.9,10.3,32.5
	c5.1,5.6,12.2,9.1,21.4,10.6c-44.8,4.8-86.3,10.8-124,18.1v7.2c136.6-18.9,307.5-23.6,492.8-23.6c183.7,0,353.1,4.5,489.1,23.1v-7.4
	C953.3,202.7,922.5,197.9,889.7,193.9 M453.7,103.2c2.2-4.3,5-8.2,8.6-11.5c3.6-3.4,7.8-6,12.6-8c4.8-2,9.8-3,14.9-3
	c11.5,0,20.5,3.3,26.9,10c6.4,6.6,9.6,15.3,9.6,26h-75.8C450.4,112,451.5,107.5,453.7,103.2 M809.3,123.8c0-10.2,1.6-18.2,4.8-24
	c3.2-5.8,6.8-10.1,10.9-13s8-4.6,11.6-5.3c3.7-0.6,5.9-1,6.7-1c11.7,0,19.7,3.3,24,10c4.3,6.6,6.5,16.2,6.5,28.7v72.8
	c-20.8-2.4-42.3-4.5-64.5-6.3V123.8z M580.7,136c3.9-3.2,8.6-5.6,14.2-7.1c5.5-1.5,11.3-2.5,17.3-2.9c6-0.4,11-0.6,15-0.6h8.2v8.2
	c0,5-0.7,9.6-2,14c-1.4,4.4-3.5,8.2-6.4,11.5c-2.9,3.3-6.4,5.9-10.7,7.8c-4.2,1.9-9.2,2.9-15,2.9c-3.2,0-6.4-0.4-9.5-1.1
	c-3.1-0.7-6-1.9-8.5-3.6c-2.6-1.7-4.6-3.8-6.1-6.5c-1.5-2.6-2.3-5.8-2.3-9.5C574.8,143.6,576.8,139.2,580.7,136 M635.8,163.2h0.5
	c0,3,0.1,6.2,0.4,9.4c0.1,1.4,0.2,2.8,0.4,4.1c-4.2-0.1-8.5-0.2-12.8-0.3C628.5,173,632.4,168.7,635.8,163.2 M337.3,123.8
	c0-10.2,1.6-18.2,4.8-24c3.2-5.8,6.8-10.1,10.9-13c4.1-2.9,8-4.6,11.6-5.3c3.7-0.6,5.9-1,6.7-1c11.7,0,19.7,3.3,24,10
	c4.3,6.6,6.5,16.2,6.5,28.7v56.2c-21.8,0.4-43.4,0.9-64.5,1.6V123.8z M156.3,185.7c3.4-1.8,6.4-4,9.1-6.6c2.7-2.6,5-5.4,6.7-8.4h0.5
	c0,3,0,6,0.1,9c0.1,2.1,0.2,4.3,0.4,6.4c-7.3,0.6-14.6,1.3-21.8,1.9C153,187.3,154.7,186.6,156.3,185.7"/>
</svg>
