<?xml version="1.0" encoding="utf-8"?>
<!-- Generator: Adobe Illustrator 25.0.0, SVG Export Plug-In . SVG Version: 6.00 Build 0)  -->
<svg version="1.1" id="Final_Logo" xmlns="http://www.w3.org/2000/svg" xmlns:xlink="http://www.w3.org/1999/xlink" x="0px" y="0px"
	 viewBox="0 0 201.7 55.8" style="enable-background:new 0 0 201.7 55.8;" xml:space="preserve">
<style type="text/css">
	.st0{fill:#63666A;}
	.st1{fill:#005E9D;}
	.st2{fill:#888B8D;}
</style>
<g>
	<g>
		<g>
			<g>
				<path class="st0" d="M7.6,39.7h2.3c1.8,0,3.2,0.6,3.2,2.6c0,1.9-1.5,2.6-3,2.6H8.9v3.4H7.6V39.7z M8.9,43.8h1.2
					c0.8,0,1.7-0.4,1.7-1.5c0-1.1-1.1-1.5-1.9-1.5h-1V43.8z"/>
			</g>
			<g>
				<path class="st0" d="M14.4,42.4c0.6-0.3,1.3-0.6,2.1-0.6c1.8,0,2.5,0.9,2.5,2.6V47c0,0.7,0,1,0,1.2H18v-0.8h0
					c-0.3,0.4-0.9,1-1.9,1c-1.4,0-2.3-0.6-2.3-2c0-1.6,1.7-2.1,2.9-2.1c0.5,0,0.8,0,1.2,0c0-1.1-0.4-1.6-1.6-1.6
					c-0.7,0-1.4,0.2-1.8,0.6L14.4,42.4z M17.9,45.3c-0.2,0-0.5,0-0.7,0c-0.6,0-2.2,0.1-2.2,1.2c0,0.7,0.6,1,1.2,1
					c1.1,0,1.7-0.7,1.7-1.6V45.3z"/>
			</g>
			<g>
				<path class="st0" d="M20.7,42h1.1v1h0c0.3-0.7,1-1.1,1.6-1.1c0.3,0,0.5,0,0.8,0.1v1c-0.2-0.1-0.4-0.1-0.6-0.1
					c-1,0-1.7,1-1.7,2.6v2.9h-1.2V42z"/>
			</g>
			<g>
				<path class="st0" d="M28.8,42.9h-1.7v3.4c0,0.7,0.4,1.1,1,1.1c0.4,0,0.6-0.1,0.8-0.2v1c-0.3,0.1-0.6,0.2-1,0.2
					c-1.2,0-1.9-0.6-1.9-1.8v-3.7h-1.4V42H26v-1.5l1.2-0.4V42h1.7V42.9z"/>
			</g>
			<g>
				<path class="st0" d="M35.8,41.9c1.9,0,3.2,1.4,3.2,3.3c0,1.8-1.3,3.3-3.2,3.3c-1.9,0-3.2-1.5-3.2-3.3
					C32.6,43.2,33.9,41.9,35.8,41.9z M35.8,47.5c1.4,0,2-1.2,2-2.3c0-1.2-0.7-2.4-2-2.4c-1.2,0-2,1.2-2,2.4
					C33.9,46.3,34.5,47.5,35.8,47.5z"/>
			</g>
			<g>
				<path class="st0" d="M41,42.9h-1.5V42H41v-0.6c0-1.5,0.4-2.5,2.1-2.5c0.3,0,0.5,0,0.8,0.1l0,0.9c-0.1,0-0.4-0.1-0.6-0.1
					c-1,0-1.1,0.6-1.1,1.5V42h1.7v0.9h-1.7v5.3H41V42.9z"/>
			</g>
			<g>
				<path class="st0" d="M51.7,39.5c2.6,0,4.1,1.9,4.1,4.4c0,2.6-1.5,4.4-4.1,4.4s-4.1-1.8-4.1-4.4C47.5,41.4,49.1,39.5,51.7,39.5z
					 M51.7,47.3c2,0,2.8-1.6,2.8-3.4c0-1.7-0.9-3.4-2.8-3.4c-1.9,0-2.8,1.6-2.8,3.4C48.8,45.7,49.7,47.3,51.7,47.3z"/>
			</g>
			<g>
				<path class="st0" d="M57.1,42h1.1v0.9h0c0.3-0.5,1-1,2.1-1c1.8,0,2.7,1.5,2.7,3.2c0,1.7-0.8,3.4-2.7,3.4c-1.1,0-1.7-0.4-2.1-1h0
					v3.4h-1.2V42z M60.1,42.8c-1.3,0-1.9,1.2-1.9,2.4c0,1,0.5,2.3,1.8,2.3c1.2,0,1.8-1.4,1.7-2.4C61.9,44,61.4,42.8,60.1,42.8z"/>
			</g>
			<g>
				<path class="st0" d="M67.7,42.9H66v3.4c0,0.7,0.4,1.1,1,1.1c0.4,0,0.6-0.1,0.8-0.2v1c-0.3,0.1-0.6,0.2-1,0.2
					c-1.2,0-1.9-0.6-1.9-1.8v-3.7h-1.4V42h1.4v-1.5l1.2-0.4V42h1.7V42.9z"/>
			</g>
			<g>
				<path class="st0" d="M74.4,48.3h-1.1v-1h0c-0.3,0.7-1.2,1.1-2.1,1.1c-1.6,0-2.4-1-2.4-2.7V42H70v3.2c0,1.5,0.3,2.2,1.3,2.2
					c1.3,0,1.9-1.1,1.9-2.6V42h1.2V48.3z"/>
			</g>
			<g>
				<path class="st0" d="M76,42h1.1v0.9h0c0.4-0.7,1.1-1.1,2-1.1c0.7,0,1.5,0.4,1.8,1.2c0.4-0.9,1.4-1.2,1.9-1.2
					c1.6,0,2.2,1,2.2,2.4v4h-1.2v-3.7c0-0.8-0.2-1.7-1.1-1.7c-1.2,0-1.6,1.2-1.6,2.3v3.2h-1.2v-3.7c0-0.8-0.2-1.7-1.1-1.7
					c-1.2,0-1.6,1.2-1.6,2.3v3.2H76V42z"/>
			</g>
			<g>
				<path class="st0" d="M92.7,41.1c-0.5-0.3-1.1-0.5-1.8-0.5c-2,0-3.3,1.4-3.3,3.4c0,2,1.5,3.4,3.2,3.4c0.6,0,1.4-0.2,1.9-0.4
					l0.1,1.2c-0.7,0.3-1.5,0.3-2,0.3c-2.7,0-4.5-1.7-4.5-4.5c0-2.6,1.9-4.4,4.5-4.4c0.7,0,1.3,0.1,1.9,0.4L92.7,41.1z"/>
			</g>
			<g>
				<path class="st0" d="M94.2,42.4c0.6-0.3,1.3-0.6,2.1-0.6c1.8,0,2.5,0.9,2.5,2.6V47c0,0.7,0,1,0,1.2h-1.1v-0.8h0
					c-0.3,0.4-0.9,1-1.9,1c-1.4,0-2.3-0.6-2.3-2c0-1.6,1.7-2.1,2.9-2.1c0.5,0,0.8,0,1.2,0c0-1.1-0.4-1.6-1.5-1.6
					c-0.7,0-1.4,0.2-1.8,0.6L94.2,42.4z M97.6,45.3c-0.2,0-0.5,0-0.7,0c-0.6,0-2.2,0.1-2.2,1.2c0,0.7,0.6,1,1.2,1
					c1.1,0,1.7-0.7,1.7-1.6V45.3z"/>
			</g>
			<g>
				<path class="st0" d="M100.4,42h1.1v1h0c0.3-0.7,1-1.1,1.6-1.1c0.3,0,0.5,0,0.8,0.1v1c-0.2-0.1-0.4-0.1-0.6-0.1
					c-1,0-1.7,1-1.7,2.6v2.9h-1.2V42z"/>
			</g>
			<g>
				<path class="st0" d="M109.7,48c-0.4,0.2-0.9,0.4-2,0.4c-2.2,0-3.2-1.4-3.2-3.4c0-1.9,1.2-3.2,2.9-3.2c2.1,0,2.8,1.5,2.8,3.5
					h-4.5c0,1.2,1,2.1,2.1,2.1c0.8,0,1.6-0.4,1.9-0.6V48z M109,44.5c0-1-0.6-1.7-1.6-1.7c-1.1,0-1.6,0.9-1.7,1.7H109z"/>
			</g>
		</g>
	</g>
	<g>
		<path class="st0" d="M111,41.7c0-1.4,1.2-2.6,2.6-2.6c1.4,0,2.6,1.2,2.6,2.6c0,1.4-1.2,2.6-2.6,2.6C112.2,44.3,111,43.1,111,41.7z
			 M115.6,41.7c0-1.2-0.9-2.1-2-2.1c-1.1,0-2,0.9-2,2.1c0,1.2,0.9,2.1,2,2.1C114.7,43.8,115.6,42.9,115.6,41.7z M112.6,40.2h1.1
			c0.7,0,1.1,0.2,1.1,0.9c0,0.5-0.3,0.7-0.8,0.8l0.8,1.3h-0.6l-0.8-1.3h-0.3v1.3h-0.5V40.2z M113.2,41.5h0.5c0.3,0,0.6,0,0.6-0.4
			c0-0.3-0.3-0.4-0.6-0.4h-0.5V41.5z"/>
	</g>
</g>
<g>
	<g>
		<g>
			<rect x="108.6" y="27.9" class="st1" width="87.3" height="0.9"/>
		</g>
	</g>
	<g>
		<g>
			<rect x="91.2" y="27.9" class="st1" width="10" height="0.9"/>
		</g>
	</g>
	<g>
		<g>
			<path class="st1" d="M10,26.2c1.5,0,2.4,1,2.4,2.5c0,1.5-0.8,2.5-2.4,2.5c-1.6,0-2.4-1-2.4-2.5C7.6,27.2,8.4,26.2,10,26.2z
				 M10,30.4c1,0,1.4-0.9,1.4-1.8c0-0.9-0.4-1.7-1.4-1.7c-1,0-1.4,0.9-1.4,1.7C8.6,29.5,9,30.4,10,30.4z"/>
		</g>
		<g>
			<path class="st1" d="M15,26.2h2.7V27H16v1.2h1.7V29H16v2.1h-1V26.2z"/>
		</g>
		<g>
			<path class="st1" d="M23.9,26.2h1.2l1.9,3.7h0v-3.7h0.9v4.9h-1.2l-1.9-3.7h0v3.7h-0.9V26.2z"/>
		</g>
		<g>
			<path class="st1" d="M30.8,26.2h2.9V27h-1.9v1.2h1.7V29h-1.7v1.4h1.9v0.8h-2.9V26.2z"/>
		</g>
		<g>
			<path class="st1" d="M35.9,26.2H37l1.3,3.8h0l1.2-3.8h1l-1.6,4.9h-1.2L35.9,26.2z"/>
		</g>
		<g>
			<path class="st1" d="M43.7,26.2h1.1l1.9,4.9h-1.1L45.2,30h-2l-0.4,1.1h-1L43.7,26.2z M44.2,27.2L44.2,27.2l-0.7,2H45L44.2,27.2z"
				/>
		</g>
		<g>
			<path class="st1" d="M49.1,26.2h1.3c1.5,0,2.8,0.5,2.8,2.4s-1.3,2.4-2.8,2.4h-1.3V26.2z M50.1,30.4h0.5c0.8,0,1.6-0.6,1.6-1.7
				S51.5,27,50.6,27h-0.5V30.4z"/>
		</g>
		<g>
			<path class="st1" d="M57.3,26.2h1.1l1.9,4.9h-1.1L58.8,30h-2l-0.4,1.1h-1L57.3,26.2z M57.9,27.2L57.9,27.2l-0.7,2h1.4L57.9,27.2z
				"/>
		</g>
	</g>
	<g>
		<g>
			<path class="st1" d="M20.3,17.4c0,5.1-3.8,6.4-6.3,6.4c-2.5,0-6.3-1.2-6.3-6.4V6.1h1.7v11.3c0,2.8,1.6,4.9,4.6,4.9
				c3,0,4.6-2,4.6-4.9V6.1h1.7V17.4z"/>
		</g>
		<g>
			<path class="st1" d="M24.3,13.6c0-1.4,0-1.9-0.1-2.8h1.6v2.4h0c0.6-1.4,1.6-2.7,3.3-2.7c0.4,0,0.8,0.1,1.1,0.1v1.6
				c-0.3-0.1-0.8-0.2-1.1-0.2c-2.5,0-3.2,2.8-3.2,5.1v6.3h-1.6V13.6z"/>
		</g>
		<g>
			<path class="st1" d="M37.1,10.5c4.1,0,5.9,3.2,5.9,6.7s-1.8,6.7-5.9,6.7s-5.9-3.2-5.9-6.7S33,10.5,37.1,10.5z M37.1,22.4
				c2.7,0,4.2-2.4,4.2-5.3s-1.5-5.3-4.2-5.3s-4.2,2.4-4.2,5.3S34.4,22.4,37.1,22.4z"/>
		</g>
		<g>
			<path class="st1" d="M46.1,4.8h1.6v18.7h-1.6V4.8z"/>
		</g>
		<g>
			<path class="st1" d="M56.6,10.5c4.1,0,5.9,3.2,5.9,6.7s-1.8,6.7-5.9,6.7s-5.9-3.2-5.9-6.7S52.5,10.5,56.6,10.5z M56.6,22.4
				c2.7,0,4.2-2.4,4.2-5.3s-1.5-5.3-4.2-5.3c-2.7,0-4.2,2.4-4.2,5.3S53.8,22.4,56.6,22.4z"/>
		</g>
		<g>
			<g>
				<path class="st1" d="M75.6,22.4c0,3.5-1.6,6.4-6,6.4c-1.7,0-3.2-0.5-3.8-0.7l0.1-1.6c1,0.5,2.4,0.9,3.7,0.9c4,0,4.4-2.9,4.4-6.5
					h0c-0.9,1.8-2.2,2.5-3.9,2.5c-4.1,0-5.4-3.5-5.4-6.4c0-3.9,1.5-6.7,5.2-6.7c1.7,0,2.8,0.2,4,1.7H74v-1.4h1.6V22.4z M70.2,22.1
					c2.8,0,3.9-2.7,3.9-5c0-3.1-0.9-5.3-3.8-5.3c-3,0-3.8,2.8-3.8,5.3C66.5,19.6,67.5,22.1,70.2,22.1z"/>
			</g>
		</g>
		<g>
			<path class="st1" d="M82.9,21.4L82.9,21.4l3.7-10.6h1.6l-5.1,14.6c-0.6,1.8-1.5,3.5-3.3,3.5c-0.6,0-1.2-0.1-1.7-0.2l0.1-1.3
				c0.3,0.1,0.6,0.2,1.2,0.2c1.3,0,1.8-1.1,2.3-2.8l0.3-1.1l-4.5-12.9h1.7L82.9,21.4z"/>
		</g>
	</g>
</g>
<g>
	<g>
		<path class="st2" d="M91.4,21.3c1,0.6,2.2,1,3.8,1c2.1,0,3.9-1.1,3.9-3.6c0-3.4-8-3.8-8-8.4c0-2.8,2.4-4.5,5.5-4.5
			c0.9,0,2.2,0.1,3.4,0.6L99.8,8c-0.8-0.4-2-0.6-3.2-0.6c-1.8,0-3.8,0.7-3.8,3c0,3.5,8,3.5,8,8.6c0,3.5-3,4.9-5.7,4.9
			c-1.7,0-3-0.3-3.9-0.7L91.4,21.3z"/>
	</g>
	<g>
		<path class="st2" d="M104,10.8h1.6l-0.1,2.3h0c0.4-0.7,1.4-2.6,4.1-2.6c3.7,0,5.2,2.8,5.2,6.7c0,3.8-1.8,6.7-5.2,6.7
			c-2,0-3.2-0.8-4-2.5h0v7.4H104V10.8z M109.4,11.9c-2.8,0-3.8,3-3.8,5.3c0,2.3,1,5.3,3.8,5.3c3,0,3.8-2.8,3.8-5.3
			C113.1,14.7,112.4,11.9,109.4,11.9z"/>
	</g>
	<g>
		<path class="st2" d="M126.6,23.2c-1.1,0.4-2.5,0.7-3.7,0.7c-4.2,0-5.8-2.8-5.8-6.7c0-3.9,2.1-6.7,5.4-6.7c3.6,0,5.1,2.9,5.1,6.3
			v0.8h-8.7c0,2.7,1.4,4.9,4.2,4.9c1.2,0,2.8-0.5,3.6-0.9V23.2z M125.8,16.3c0-2.2-0.9-4.4-3.2-4.4c-2.3,0-3.7,2.3-3.7,4.4H125.8z"
			/>
	</g>
	<g>
		<path class="st2" d="M138.9,12.5c-0.8-0.4-1.9-0.6-2.7-0.6c-3.1,0-4.8,2.2-4.8,5.3c0,2.9,1.7,5.3,4.6,5.3c1,0,1.9-0.2,2.9-0.6
			l0.1,1.5c-1.1,0.4-2.1,0.4-3.3,0.4c-4.1,0-6.1-3.1-6.1-6.7c0-3.9,2.5-6.7,6.3-6.7c1.5,0,2.6,0.4,3.1,0.5L138.9,12.5z"/>
	</g>
	<g>
		<path class="st2" d="M143.2,7.4h-1.6V5.3h1.6V7.4z M141.7,10.8h1.6v12.7h-1.6V10.8z"/>
	</g>
	<g>
		<path class="st2" d="M154.5,21.5L154.5,21.5c-0.8,1.5-2.5,2.3-4.1,2.3c-3.6,0-4.2-2.4-4.2-3.6c0-4.3,4.5-4.5,7.8-4.5h0.3v-0.6
			c0-2.2-0.8-3.3-2.9-3.3c-1.3,0-2.6,0.3-3.7,1v-1.5c1-0.5,2.6-0.9,3.7-0.9c3.1,0,4.5,1.4,4.5,4.7v5.6c0,1,0,1.8,0.1,2.7h-1.5V21.5z
			 M154.4,17.1h-0.5c-2.7,0-6,0.3-6,3.1c0,1.7,1.2,2.3,2.6,2.3c3.7,0,3.8-3.2,3.8-4.6V17.1z"/>
	</g>
	<g>
		<path class="st2" d="M159.7,4.8h1.6v18.7h-1.6V4.8z"/>
	</g>
	<g>
		<path class="st2" d="M166.8,7.4h-1.6V5.3h1.6V7.4z M165.3,10.8h1.6v12.7h-1.6V10.8z"/>
	</g>
	<g>
		<path class="st2" d="M169.8,21.7c1,0.5,2.1,0.8,3.3,0.8c1.5,0,2.8-0.8,2.8-2.3c0-3-6.1-2.5-6.1-6.2c0-2.5,2-3.5,4.1-3.5
			c0.7,0,2,0.1,3.1,0.6l-0.2,1.4c-0.8-0.4-1.9-0.6-2.8-0.6c-1.6,0-2.7,0.5-2.7,2.1c0,2.4,6.3,2.1,6.3,6.2c0,2.7-2.5,3.6-4.4,3.6
			c-1.2,0-2.4-0.1-3.6-0.6L169.8,21.7z"/>
	</g>
	<g>
		<path class="st2" d="M186,12.2h-2.9v8.2c0,1.1,0.4,2.1,1.7,2.1c0.6,0,1-0.1,1.5-0.3l0.1,1.3c-0.4,0.1-1.1,0.3-1.9,0.3
			c-2.8,0-2.9-1.9-2.9-4.2v-7.4h-2.5v-1.4h2.5V7.7l1.6-0.5v3.6h2.9V12.2z"/>
	</g>
	<g>
		<path class="st2" d="M187.9,21.7c0.9,0.5,2.1,0.8,3.3,0.8c1.5,0,2.8-0.8,2.8-2.3c0-3-6.1-2.5-6.1-6.2c0-2.5,2-3.5,4.1-3.5
			c0.7,0,2,0.1,3.1,0.6l-0.1,1.4c-0.8-0.4-1.9-0.6-2.8-0.6c-1.6,0-2.7,0.5-2.7,2.1c0,2.4,6.3,2.1,6.3,6.2c0,2.7-2.5,3.6-4.4,3.6
			c-1.2,0-2.4-0.1-3.6-0.6L187.9,21.7z"/>
	</g>
</g>
<g>
</g>
<g>
</g>
<g>
</g>
<g>
</g>
<g>
</g>
<g>
</g>
<g>
</g>
<g>
</g>
<g>
</g>
<g>
</g>
<g>
</g>
<g>
</g>
</svg>
