<svg xmlns="http://www.w3.org/2000/svg" x="0" y="0" viewBox="0 0 254.2 62.6" xml:space="preserve"><style>.st2{fill:#4d5858}</style><path d="M5 16.9s-3.6 60 56.2 38.7c0 0 14.3-5.1 26.1-13.6 0 0-8.3.8-24.7-10.7-6.5-4.5-13.9-13.6-23.1-22.1C34 4.2 26.7 2.1 18.4 6 5 12.3 12 45.1 49.8 38.7c0 0-19.9 9.4-34.9-3.7-4.3-3.8-8-9.4-9.9-18.1z" opacity=".48" fill="#6ba43a" transform="translate(.001 .002)"/><path d="M4.1 8.9S-8 32.2 9.2 49.2c11.5 11.4 30.1 6.5 43.1 3.9 0 0-14-2.6-15.7-26C35.4 10.4 23.7 3 17.9 6.2c-13 7.3-1.1 29.3 6.9 34 0 .1-20-5-20.7-31.3z" opacity=".63" fill="#6ba43a" transform="translate(.001 .002)"/><path class="st2" d="M95 15.6V6.1h3.1v9.4c0 3.5 1.6 4.9 4.3 4.9s4.2-1.5 4.2-4.9V6.1h3.1v9.5c0 4.9-2.8 7.6-7.3 7.6-4.7 0-7.4-2.7-7.4-7.6zM121.8 10v2.9c-.2 0-.5-.1-.7-.1-2.3 0-3.7 1.3-3.7 4V23h-3V10.1h2.9V12c.8-1.4 2.3-2 4.5-2zM123.7 16.5c-.1-3.6 2.8-6.5 6.3-6.6h.5c4 0 6.8 2.7 6.8 6.6-.1 3.8-3.3 6.7-7.1 6.6-3.5-.1-6.3-3-6.5-6.6zm10.7 0c.1-2.1-1.5-3.9-3.6-4s-3.9 1.5-4 3.6v.4c-.1 2.1 1.5 3.9 3.6 4s3.9-1.5 4-3.6v-.4zM140.9 5.1h3v17.8h-3V5.1zM147.4 16.5c-.1-3.6 2.8-6.5 6.3-6.6h.5c4 0 6.8 2.7 6.8 6.6-.1 3.8-3.3 6.7-7.1 6.6-3.5-.1-6.4-3-6.5-6.6zm10.6 0c.1-2.1-1.5-3.9-3.6-4s-3.9 1.5-4 3.6v.4c-.1 2.1 1.5 3.9 3.6 4s3.9-1.5 4-3.6v-.4zM177.2 10.1V21c0 4.7-2.4 6.8-6.9 6.8-2.2.1-4.4-.5-6.2-1.8l1.3-2.3c1.4 1 3 1.6 4.7 1.5 2.8 0 4.1-1.3 4.1-3.9v-.7c-1.1 1.2-2.7 1.8-4.3 1.7-3.4.2-6.3-2.4-6.5-5.8V16c0-3.7 2.8-6.2 6.5-6.2 1.7-.1 3.3.6 4.4 1.9V10l2.9.1zm-2.9 6c.1-2.2-1.5-4-3.7-4.1s-4 1.5-4.1 3.7 1.5 4 3.7 4.1h.2c2 .2 3.7-1.3 3.9-3.3v-.4zM181.3 6.2c0-1 .8-1.8 1.9-1.8h.1c1-.1 1.8.7 1.9 1.6v.1c0 1.1-.9 1.9-2 1.9-1 0-1.8-.8-1.9-1.8zm.5 3.9h3v12.8h-3V10.1zM188.2 16.5c0-3.8 2.9-6.6 6.9-6.6 2.3-.2 4.4 1 5.5 3l-2.3 1.3c-.7-1.1-1.9-1.8-3.2-1.8-2.1-.1-3.8 1.6-3.9 3.6v.4c-.1 2.1 1.4 3.9 3.5 4h.4c1.3 0 2.5-.7 3.2-1.8l2.3 1.3c-1.1 2-3.2 3.1-5.5 3-4 .2-6.9-2.5-6.9-6.4zM214.6 15.4v7.5h-2.8v-1.6c-1 1.2-2.5 1.9-4 1.7-2.9 0-4.8-1.6-4.8-3.8 0-2.1 1.4-3.8 5.3-3.8h3.3v-.2c0-1.8-1.1-2.8-3.2-2.8-1.4 0-2.8.4-3.9 1.3l-1.2-2.2c1.6-1.1 3.5-1.6 5.4-1.6 3.7.1 5.9 1.8 5.9 5.5zm-3 3.5v-1.5h-3.1c-2 0-2.6.8-2.6 1.7 0 1.1.9 1.8 2.4 1.8 1.4.1 2.7-.7 3.3-2zM219 5.1h3v17.8h-3V5.1zM107.1 38.6h-8.9l-2 4.3H95l7.1-15.4h1.1l7.1 15.4H109l-1.9-4.3zm-.4-.9l-4.1-8.9-4 8.9h8.1zM110.7 41.5l.5-.9c1.2.9 2.6 1.4 4.1 1.4 2.4 0 3.4-.9 3.4-2.2 0-3.3-7.6-.9-7.6-5.4 0-1.7 1.4-3.2 4.4-3.2 1.4 0 2.8.4 3.9 1.1l-.5.9c-1-.7-2.2-1.1-3.4-1-2.2 0-3.2.9-3.2 2.2 0 3.5 7.6 1 7.6 5.4 0 1.9-1.6 3.2-4.5 3.2-1.8.1-3.4-.4-4.7-1.5zM121 41.5l.5-.9c1.2.9 2.6 1.4 4.1 1.4 2.4 0 3.4-.9 3.4-2.2 0-3.3-7.6-.9-7.6-5.4 0-1.7 1.4-3.2 4.4-3.2 1.4 0 2.8.4 3.9 1.1l-.5.9c-1-.7-2.2-1.1-3.4-1-2.2 0-3.2.9-3.2 2.2 0 3.5 7.6 1 7.6 5.4 0 1.9-1.6 3.2-4.5 3.2-1.8.1-3.4-.4-4.7-1.5zM131.7 37.2c-.1-3.2 2.5-5.8 5.6-5.8 3.2-.1 5.8 2.5 5.8 5.6v.2c.1 3.2-2.5 5.8-5.6 5.8-3.2.1-5.8-2.5-5.8-5.6v-.2zm10.4 0c.1-2.6-1.9-4.7-4.4-4.8-2.6-.1-4.7 1.9-4.8 4.4v.4c-.1 2.6 1.9 4.7 4.4 4.8 2.6.1 4.7-1.9 4.8-4.4v-.4zM145.1 37.2c-.1-3.1 2.3-5.7 5.4-5.8h.4c1.7-.1 3.4.7 4.4 2.1l-.8.6c-.8-1.1-2.1-1.8-3.5-1.7-2.5-.1-4.6 1.9-4.7 4.4v.4c-.2 2.5 1.8 4.7 4.3 4.8h.4c1.4.1 2.7-.6 3.5-1.7l.8.6c-1 1.4-2.6 2.2-4.4 2.1-3.1.1-5.7-2.3-5.8-5.4v-.4zM158 27.8c0-.5.4-.9.9-.9s.9.4.9.9-.4.9-.9.9-.9-.4-.9-.9zm.4 3.6h1.1v11.5h-1.1V31.4zM172.2 35.7V43h-1.1v-2c-.9 1.4-2.5 2.3-4.1 2.1-2.6 0-4.1-1.3-4.1-3.3 0-1.7 1.1-3.2 4.3-3.2h3.9v-.9c0-2.1-1.2-3.3-3.4-3.3-1.5 0-2.9.5-4 1.5l-.6-.8c1.3-1.1 2.9-1.7 4.6-1.6 2.9-.1 4.5 1.3 4.5 4.2zm-1.1 3.8v-2.2h-3.9c-2.4 0-3.2 1-3.2 2.3 0 1.5 1.2 2.4 3.2 2.4 1.7.2 3.3-.8 3.9-2.5zM182.2 42.2c-.7.5-1.5.8-2.4.8-1.6.2-3-1-3.1-2.5v-8.1h-2.1v-1h2.1v-2.5h1.1v2.5h3.6v1h-3.6v7.4c0 1.5.7 2.3 2.1 2.3.7 0 1.3-.2 1.8-.6l.5.7zM194.3 37.5h-9.9c.2 2.7 2.5 4.7 5.2 4.6 1.3-.1 2.5-.7 3.3-1.6l.6.7c-1.1 1.2-2.7 1.9-4.3 1.9-3.1.2-5.8-2.2-5.9-5.3v-.5c-.2-3 2.1-5.6 5.1-5.8 3-.2 5.6 2.1 5.8 5.1v.7c.1-.1.1 0 .1.2zm-9.8-.9h8.8c0-2.4-2-4.4-4.4-4.4-2.5 0-4.4 2-4.4 4.4zM195.8 41.5l.5-.9c1.2.9 2.6 1.4 4.1 1.4 2.4 0 3.4-.9 3.4-2.2 0-3.3-7.6-.9-7.6-5.4 0-1.7 1.4-3.2 4.4-3.2 1.4 0 2.8.4 3.9 1.1l-.5.9c-1-.7-2.2-1.1-3.5-1-2.2 0-3.2.9-3.2 2.2 0 3.5 7.6 1 7.6 5.4 0 1.9-1.6 3.2-4.5 3.2-1.6.1-3.2-.4-4.6-1.5zM208.6 42.1c0 .3-.1.7-.2 1l-.9 3h-.8l.7-3.1c-.5-.1-.8-.6-.7-1.1.1-.4.5-.7.9-.7.6 0 1 .4 1 .9zM229.5 32.7c0 3.2-2.3 5.2-6.2 5.2h-4.4v5h-1.1V27.5h5.5c3.9 0 6.2 2 6.2 5.2zm-1.1 0c0-2.7-1.8-4.2-5.1-4.2h-4.4v8.3h4.4c3.3.1 5.1-1.4 5.1-4.1zM231.2 42.1c0-.5.4-.9.9-.9s.9.4.9.9-.4.9-.9.9c-.4 0-.8-.4-.9-.9zM234.9 35.2c-.1-4.2 3.3-7.7 7.6-7.8h.4c2-.1 4 .7 5.5 2.1l-.7.7c-1.3-1.2-3-1.9-4.7-1.8-3.7-.1-6.8 2.9-6.9 6.7-.1 3.7 2.9 6.8 6.7 6.9h.2c1.8.1 3.5-.6 4.7-1.8l.7.7c-1.4 1.5-3.4 2.2-5.5 2.2-4.3.2-7.8-3.2-8-7.4v-.5zM250.8 42.1c0-.5.4-.9.9-.9s.9.4.9.9-.4.9-.9.9-.9-.4-.9-.9z" transform="translate(.001 .002)"/><g><path class="st2" d="M98.1 50.7c1.6 0 2.7 1 2.7 2.6 0 1.8-1.4 3.5-3.2 3.5-1.7 0-2.7-1-2.7-2.6 0-1.8 1.4-3.5 3.2-3.5zm0 .8c-1.3 0-2.3 1.3-2.3 2.7 0 1.1.6 1.8 1.7 1.8 1.3 0 2.3-1.3 2.3-2.7 0-1.1-.6-1.8-1.7-1.8zM102.9 51.6h-1l.2-.8h1l.1-.4c.3-1.2.9-1.9 1.9-1.9.4 0 .7.1 1 .3l-.3.6c-.2-.1-.4-.2-.6-.2-.6 0-.9.4-1.1 1.1l-.1.4h1.2l-.2.8h-1.2l-1.1 5h-.9l1.1-4.9zM108.5 55.4l.8-3.8h-1l.2-.8h1l.3-1.6h.9l-.3 1.6h1.2l-.2.8h-1.2l-.8 3.6v.2c0 .3.2.5.6.5.2 0 .4-.1.6-.2l.1.7c-.2.2-.5.3-.9.3-.8 0-1.3-.3-1.3-1.1-.1.1 0-.1 0-.2zM116.3 52.8c0-.1.1-.3.1-.4 0-.7-.5-.9-1.2-.9s-1.3.5-1.8.9l-.9 4.2h-.9l1.8-8h.9l-.7 3c.5-.5 1.2-1 2.1-1 1 0 1.7.5 1.7 1.4 0 .1 0 .4-.1.5l-.9 4h-.9l.8-3.7zM121.7 50.7c1.5 0 2.5 1.1 2.5 2.5 0 .3-.1.6-.1.8h-4.7v.3c0 .9.7 1.7 2 1.7.6 0 1.2-.2 1.7-.6l.3.6c-.5.4-1.3.7-2 .7-1.8 0-2.8-1-2.8-2.6-.2-1.8 1.2-3.4 3.1-3.4zm1.6 2.4c0-1-.6-1.7-1.8-1.7-1.1 0-2 .9-2.1 1.9h3.9v-.2zM134.9 55.9l.5.7-.8.4-.5-.7c-.6.3-1.2.4-1.9.4-2.1 0-3.7-1.3-3.7-3.5 0-2.7 2-4.8 4.5-4.8 2.1 0 3.7 1.3 3.7 3.5 0 1.7-.7 3.1-1.8 4zm-1.3-.3l-.9-1.3.8-.4.9 1.3c.8-.7 1.3-1.8 1.3-3 0-1.7-1.2-2.7-2.7-2.7-1.8 0-3.4 1.6-3.4 3.8 0 1.7 1.2 2.7 2.7 2.7.4-.1.8-.2 1.3-.4zM138.6 54.6c0 .1-.1.3-.1.4 0 .7.5.9 1.2.9s1.3-.5 1.8-.9l.9-4.2h.9l-1.3 5.8h-.9l.2-.8c-.5.5-1.2 1-2 1-1 0-1.7-.5-1.7-1.4 0-.1 0-.4.1-.5l.9-4h.9l-.9 3.7zM149.3 50.8h.9l-1.3 5.8h-.9l.2-.8c-.5.6-1.1 1-1.9 1-1.3 0-2.2-.9-2.2-2.4 0-1.9 1.2-3.7 3-3.7.9 0 1.6.4 2 1.1l.2-1zm-2.7 5.2c.7 0 1.4-.4 1.8-1l.6-2.6c-.3-.5-.9-.9-1.8-.9-1.3 0-2.2 1.3-2.2 2.7 0 1.1.6 1.8 1.6 1.8zM156.7 48.6h.9l-1.8 8h-.9l.2-.8c-.5.6-1.1 1-1.9 1-1.3 0-2.2-.9-2.2-2.4 0-1.9 1.2-3.7 3-3.7.9 0 1.6.4 2 1.1l.7-3.2zm-3.2 7.4c.7 0 1.4-.4 1.8-1l.6-2.6c-.3-.5-.9-.9-1.8-.9-1.3 0-2.2 1.3-2.2 2.7 0 1.1.6 1.8 1.6 1.8zM165.7 48.5c1.6 0 2.7.7 3.3 1.9l-.9.4c-.5-.9-1.4-1.4-2.4-1.4-1.7 0-3.4 1.5-3.4 3.8 0 1.6 1 2.7 2.7 2.7.7 0 1.5-.3 2.1-.9l.7.6c-.8.9-2 1.2-2.9 1.2-2.1 0-3.7-1.4-3.7-3.5 0-2.9 2.2-4.8 4.5-4.8zM170.1 50.8h.9l-1.3 5.8h-.9l1.3-5.8zm.8-2c.3 0 .6.3.6.5 0 .4-.4.7-.7.7s-.6-.2-.6-.5c.1-.4.4-.7.7-.7zM172 55.4l.8-3.8h-1l.2-.8h1l.3-1.6h.9l-.3 1.6h1.2l-.2.8h-1.2l-.8 3.6v.2c0 .3.2.5.6.5.2 0 .4-.1.6-.2l.1.7c-.2.2-.5.3-.9.3-.8 0-1.3-.3-1.3-1.1-.1.1 0-.1 0-.2zM176.3 50.8h.9l-1.3 5.8h-.9l1.3-5.8zm.9-2c.3 0 .6.3.6.5 0 .4-.4.7-.7.7s-.6-.2-.6-.5c0-.4.4-.7.7-.7zM181.2 50.7c1.5 0 2.5 1.1 2.5 2.5 0 .3-.1.6-.1.8h-4.7v.3c0 .9.7 1.7 2 1.7.6 0 1.2-.2 1.7-.6l.3.6c-.5.4-1.3.7-2 .7-1.8 0-2.8-1-2.8-2.6-.1-1.8 1.3-3.4 3.1-3.4zm1.7 2.4c0-1-.6-1.7-1.8-1.7-1.1 0-2 .9-2.1 1.9h3.9v-.2zM184.9 55.2c.3.5 1.1.9 1.9.9.8 0 1.3-.5 1.3-1s-.6-.7-1.3-1c-.8-.3-1.8-.7-1.8-1.6 0-.9.8-1.8 2.2-1.8 1 0 1.8.4 2.2.9l-.5.6c-.3-.4-1-.8-1.7-.8-.8 0-1.2.4-1.2.9s.6.7 1.2.9c.8.3 1.8.7 1.8 1.6 0 1-.8 1.9-2.3 1.9-1 0-1.9-.4-2.4-1l.6-.5zM196.6 53.5h-1.7l-.7 3.2h-1l1.8-8h2.9c1.2 0 2.3.8 2.3 2.1 0 1.5-1 2.6-2.6 2.7l1.4 3.2h-1.1l-1.3-3.2zm2.5-2.7c0-.8-.7-1.3-1.4-1.3h-2l-.7 3.1h2.1c1.4 0 2-.8 2-1.8zM203.7 50.7c1.5 0 2.5 1.1 2.5 2.5 0 .3-.1.6-.1.8h-4.7v.3c0 .9.7 1.7 2 1.7.6 0 1.2-.2 1.7-.6l.3.6c-.5.4-1.3.7-2 .7-1.8 0-2.8-1-2.8-2.6-.2-1.8 1.3-3.4 3.1-3.4zm1.7 2.4c0-1-.6-1.7-1.8-1.7-1.1 0-2 .9-2.1 1.9h3.9v-.2zM207.2 57.4c.4.6 1.1.9 2 .9s1.6-.4 1.9-1.8l.2-.8c-.5.6-1.2 1-2 1-1.2 0-2.2-.8-2.2-2.4 0-1.8 1.2-3.6 3-3.6.8 0 1.6.4 2 1.1l.2-.9h.9l-1.2 5.6c-.4 1.9-1.6 2.5-2.8 2.5-1.1 0-2-.2-2.6-1l.6-.6zm4.9-4.9c-.3-.6-1-1-1.8-1-1.3 0-2.1 1.3-2.1 2.7 0 1.1.6 1.7 1.6 1.7.7 0 1.4-.4 1.8-.9l.5-2.5zM215.1 50.8h.9l-1.3 5.8h-.9l1.3-5.8zm.9-2c.3 0 .6.3.6.5 0 .4-.4.7-.7.7s-.6-.2-.6-.5c0-.4.3-.7.7-.7zM220 50.7c1.6 0 2.7 1 2.7 2.6 0 1.8-1.4 3.5-3.2 3.5-1.7 0-2.7-1-2.7-2.6 0-1.8 1.3-3.5 3.2-3.5zm0 .8c-1.3 0-2.3 1.3-2.3 2.7 0 1.1.6 1.8 1.7 1.8 1.3 0 2.3-1.3 2.3-2.7 0-1.1-.6-1.8-1.7-1.8zM228.2 52.8c0-.1.1-.3.1-.4 0-.7-.5-.9-1.1-.9-.7 0-1.4.4-1.8.9l-.9 4.2h-.9l1.3-5.8h.9l-.2.8c.5-.5 1.2-1 2.1-1 1 0 1.7.5 1.7 1.4 0 .1 0 .4-.1.5l-.9 4h-.9l.7-3.7z"/></g></svg>