<svg id="Layer_3" data-name="Layer 3" xmlns="http://www.w3.org/2000/svg" viewBox="0 0 582.38 152.91"><defs><style>.cls-1{fill:#ac162c}</style></defs><title>uhealth-logo</title><path class="cls-1" d="M362.78 255.43v71.77h-13.43v-29.68h-28.76v29.69h-13.23v-71.78h13.23v30.11h28.75v-30.11zM382.58 255.43H427v11.88h-31.19V286h27.29v11.77h-27.29v17.6H428v11.88h-45.42zM484.56 309.81h-26.77l-6.56 17.4h-14.17l26.88-71.77h14.38l26.88 71.77h-14.07zm-22.29-11.67h17.92l-9.06-27.4zM517 255.43h13.3v59.9H558v11.88h-41zM559 255.43h53.86v12.19H592.7v59.59h-13.44v-59.59H559zM683 255.43v71.77h-13.42v-29.68h-28.75v29.69H627.6v-71.78h13.23v30.11h28.75v-30.11z" transform="translate(-100.63 -225.96)"/><g><path class="cls-1" d="M322.24 369.41v-17.1h4.07v17.1a9.35 9.35 0 0 1-9.69 9.46c-5.24 0-9.73-3.72-9.73-9.46v-17.1H311v17.1a5.62 5.62 0 0 0 11.25 0zM352.53 378.49h-3.76l-11.25-18.73v18.73h-4v-26.18h3.88l11.13 18.58v-18.58h4zM359.1 352.31h4v26.18h-4zM372.33 352.31l5.59 19.45 5.62-19.45h4.18l-7.9 26.18h-3.76l-7.94-26.18zM392.39 352.31h15.77V356h-11.74v7.75h10.26v3.68h-10.26v7.33h12.12v3.69h-16.15zM433 378.49h-4.9l-6.53-9.61h-2.81v9.61h-4.06v-26.18h10.22c5.62 0 8 4.14 8 8.32 0 3.84-1.94 7.56-6.76 8.09zM418.76 356v9.16h5.85c2.93 0 4.1-2.32 4.1-4.56s-1.14-4.6-4-4.6zM442.44 370.89c.08 2.13 2.09 4.29 5.21 4.29s4.67-1.67 4.94-3.57c.15-2.43-1.71-3.69-4.14-4.26l-3.31-.83c-5.62-1.52-6.5-4.71-6.5-7 0-4.48 4-7.48 8.62-7.48 4.83 0 8.51 3 8.51 7.75h-4c0-2.39-1.86-4-4.56-4-2.39 0-4.52 1.44-4.52 3.61 0 1 .38 2.62 3.5 3.42l3.34.87c5.28 1.41 7.48 4.37 7.07 8.13-.38 4.1-3.91 7-8.93 7-5.43 0-9.23-3.72-9.23-8zM461.85 352.31h4v26.18h-4zM470.48 352.31H490v3.76h-7.7v22.42h-4.1v-22.41h-7.71zM502.44 378.49v-12l-10-14.17h4.83l7.22 10.41 7.29-10.41h4.83l-10.07 14.21v12zM542.07 352a13.43 13.43 0 1 1-13.22 13.45A13.27 13.27 0 0 1 542.07 352zm0 22.91a9.48 9.48 0 1 0-9.19-9.46 9.27 9.27 0 0 0 9.19 9.47zM560.43 352.31H576V356h-11.55v7.75h9.12v3.68h-9.12v11h-4zM605.49 369.41v-17.1h4.07v17.1a9.35 9.35 0 0 1-9.69 9.46c-5.24 0-9.73-3.72-9.73-9.46v-17.1h4.1v17.1a5.62 5.62 0 0 0 11.25 0zM614.76 352.31h19.53v3.76h-7.71v22.42h-4.1v-22.41h-7.71zM651.51 372h-10.56l-2.51 6.54h-4.29l9.85-26.23h4.37l9.88 26.18H654zm-9.2-3.61h7.83l-3.91-11zM683 352.31v26.18h-4.1v-11.17h-11.81v11.17h-4v-26.18h4v11.32h11.82v-11.32z" transform="translate(-100.63 -225.96)"/></g><g><path class="cls-1" d="M229.91 290.82c2.31-2.19 5-5.29 8.17-7.83M253.55 339.34v9.07l-16.1 16c-22.88-45.34 3.42-64.19 16.1-82.77v21.14l-3-2.87a2.84 2.84 0 0 0-4 .13 2.84 2.84 0 0 0 0 4l7 6.64v7.75l-14.45-.68a2.86 2.86 0 0 0-3 2.72 2.86 2.86 0 0 0 2.62 3.06l14.82.69v8.56L237.78 339a3 3 0 0 0-1.67 3.91 3 3 0 0 0 3.83 1.84l13.59-5.45z" transform="translate(-100.63 -225.96)"/><path class="cls-1" d="M241.19 234.62l4.13 4.41a1.75 1.75 0 0 0 2.46.19 1.75 1.75 0 0 0 .08-2.47l-4.69-5a29.18 29.18 0 0 1 5.64-5.76h20.05v46h-10.31c2-6.37 1.42-13.21-4.15-21.46 15.33 38.33-64.1 37.11-29.72 126.29l-1.8 2.1h-76.26L116 348.41v-76.46h-15.37V226h76.47v46h-15.34v60.93h46v-60.98h-15.34V226h49.3c-16.1 12-25.93 43.08-11.82 64.85 2.31-2.19 5-5.29 8.17-7.83a33 33 0 0 1-3.38-7.8l16.53-6.4a1.88 1.88 0 0 0 1.1-2.41 1.88 1.88 0 0 0-2.41-1.1l-16.09 6.23a46.61 46.61 0 0 1-.61-11.81l16.19-.5a1.85 1.85 0 0 0 1.82-1.87 1.85 1.85 0 0 0-1.91-1.78l-15.72.48a57.57 57.57 0 0 1 2.41-10.39l11.16 3.66a1.81 1.81 0 0 0 2.32-1.07 1.81 1.81 0 0 0-1.14-2.28l-11.11-3.65a50.1 50.1 0 0 1 3.96-7.71z" transform="translate(-100.63 -225.96)"/></g></svg>