<?xml version="1.0" encoding="UTF-8"?> <!-- Generator: Adobe Illustrator 25.3.1, SVG Export Plug-In . SVG Version: 6.00 Build 0) --> <svg xmlns="http://www.w3.org/2000/svg" xmlns:xlink="http://www.w3.org/1999/xlink" id="Layer_1" x="0px" y="0px" viewBox="0 0 776.1 159" style="enable-background:new 0 0 776.1 159;" xml:space="preserve"> <style type="text/css"> .st0{fill:#007DB6;} .st1{fill:#E04D26;} </style> <g> <g> <path class="st0" d="M17.9,130.9L0,72.4h12L24.7,121l12.4-48.6h11.4l-17.4,58.5H17.9z"></path> <path class="st0" d="M86.2,111.8H58.1c0.8,9.1,5.1,12.1,11,12.1c4,0,7.3-1.3,11.2-4l4.5,6.2c-4.4,3.6-9.8,6-16.6,6 c-13.9,0-21.3-9.2-21.3-23.4c0-13.6,7.2-24,19.9-24c12.5,0,19.7,8.5,19.7,22.6C86.4,108.9,86.3,110.6,86.2,111.8z M75.7,104.3 c0-7.4-2.6-11.8-8.7-11.8c-5.1,0-8.3,3.4-8.9,12.3h17.6V104.3z"></path> <path class="st0" d="M131,98.5v32.4h-10.8v-30.7c0-5.6-2.1-7.2-5.5-7.2c-3.9,0-6.8,2.6-9.4,6.8v31.2H94.4V86.1h9.4l0.8,5.8 c3.5-4.5,8-7.1,13.6-7.1C126.3,84.8,131,89.9,131,98.5z"></path> <path class="st0" d="M153.7,70c0,3.6-2.8,6.5-6.9,6.5c-4,0-6.8-2.9-6.8-6.5c0-3.7,2.8-6.6,6.8-6.6C151,63.4,153.7,66.3,153.7,70z M141.6,130.9V86.1h10.8v44.8H141.6z"></path> <path class="st0" d="M195.9,90.1l-4.9,6.6c-2.9-2.3-5.6-3.3-9-3.3c-6.3,0-10.1,4.6-10.1,15.3c0,10.8,4,14.6,10.1,14.6 c3.4,0,5.8-1.1,8.9-3.5l5,7.1c-4.1,3.3-8.7,5.2-14.5,5.2c-13,0-21-9-21-23.3c0-14.3,8-24,20.9-24 C187.2,84.8,191.7,86.4,195.9,90.1z"></path> <path class="st0" d="M237.4,111.8h-28.1c0.8,9.1,5.1,12.1,11,12.1c4,0,7.3-1.3,11.2-4l4.5,6.2c-4.4,3.6-9.8,6-16.6,6 c-13.9,0-21.3-9.2-21.3-23.4c0-13.6,7.2-24,19.9-24c12.5,0,19.7,8.5,19.7,22.6C237.7,108.9,237.5,110.6,237.4,111.8z M226.9,104.3 c0-7.4-2.6-11.8-8.7-11.8c-5.1,0-8.3,3.4-8.9,12.3h17.6V104.3z"></path> </g> <g> <path class="st0" d="M337.4,80.7v17.5h18v8.3h-18v24.4h-11.2V72.4h33.1l-1.2,8.3H337.4z"></path> <path class="st0" d="M398.8,124.8l-2.3,7.2c-4.9-0.4-8.1-2.2-9.9-6.5c-3.1,4.7-8,6.7-13.4,6.7c-9,0-14.5-5.7-14.5-13.8 c0-9.7,7.4-15,20.4-15h5.6v-2.5c0-5.8-2.6-7.8-8.4-7.8c-3,0-7.4,0.8-11.9,2.4l-2.5-7.4c5.5-2.1,11.2-3.2,16.3-3.2 c11.9,0,17.2,5.5,17.2,15.4V119C395.4,122.7,396.6,123.9,398.8,124.8z M384.7,118.8v-9.1h-4.5c-7,0-10.5,2.5-10.5,7.8 c0,4.3,2.2,6.8,6.4,6.8C379.9,124.3,382.7,122.3,384.7,118.8z"></path> <path class="st0" d="M465.8,98.5v32.4H455v-30.7c0-5.6-2.2-7.2-4.9-7.2c-3.7,0-6,2.6-8.5,6.8v31.2h-10.8v-30.7 c0-5.6-2.3-7.2-4.9-7.2c-3.8,0-6.1,2.6-8.6,6.8v31.2h-10.8V86.1h9.4l0.8,5.8c3.2-4.5,7.3-7.1,13-7.1c5.2,0,9.1,2.8,10.8,7.5 c3.4-4.7,7.5-7.5,13.5-7.5C461.1,84.8,465.8,90,465.8,98.5z"></path> <path class="st0" d="M488.6,70c0,3.6-2.8,6.5-6.9,6.5c-4,0-6.8-2.9-6.8-6.5c0-3.7,2.8-6.6,6.8-6.6C485.8,63.4,488.6,66.3,488.6,70 z M476.4,130.9V86.1h10.8v44.8H476.4z"></path> <path class="st0" d="M511.1,123.4c0.8,0,1.8-0.2,2.5-0.4l2.3,7.6c-2.2,0.9-4.9,1.5-7.7,1.5c-6.7,0-10.5-4-10.5-11.4V68.1l10.8-1.2 v53C508.6,122.4,509.3,123.4,511.1,123.4z"></path> <path class="st0" d="M519.4,149.3l-1.1-7.9c8.9-1.4,11.8-4.2,14.3-10.6h-3.7l-14.2-44.8h11.5l9.7,37.6l10.2-37.6h11.2l-14.6,45 C539.3,141.6,532.7,148.3,519.4,149.3z"></path> </g> <g> <path class="st0" d="M620.4,77.3l-5.8,6.7c-3.3-2.8-6.8-4.2-10.8-4.2c-8,0-14.3,5.9-14.3,21.8c0,15.4,6.1,21.7,14.5,21.7 c5,0,8.5-2.4,11.9-4.9l5.2,6.8c-3.6,3.6-9.7,7.1-17.6,7.1c-15.2,0-25.7-10.8-25.7-30.7c0-19.6,11.2-30.4,25.4-30.4 C610.9,71.1,615.7,73.3,620.4,77.3z"></path> <path class="st0" d="M639.6,123.4c0.8,0,1.8-0.2,2.5-0.4l2.3,7.6c-2.2,0.9-4.9,1.5-7.7,1.5c-6.7,0-10.5-4-10.5-11.4V68.1L637,67 v53C637,122.4,637.8,123.4,639.6,123.4z"></path> <path class="st0" d="M661.6,70c0,3.6-2.8,6.5-6.9,6.5c-4,0-6.8-2.9-6.8-6.5c0-3.7,2.8-6.6,6.8-6.6C658.9,63.4,661.6,66.3,661.6,70 z M649.5,130.9V86.1h10.8v44.8H649.5z"></path> <path class="st0" d="M707.9,98.5v32.4H697v-30.7c0-5.6-2.1-7.2-5.5-7.2c-3.9,0-6.8,2.6-9.4,6.8v31.2h-10.8V86.1h9.4l0.8,5.8 c3.5-4.5,8-7.1,13.6-7.1C703.2,84.8,707.9,89.9,707.9,98.5z"></path> <path class="st0" d="M730.6,70c0,3.6-2.8,6.5-6.9,6.5c-4,0-6.8-2.9-6.8-6.5c0-3.7,2.8-6.6,6.8-6.6C727.9,63.4,730.6,66.3,730.6,70 z M718.5,130.9V86.1h10.8v44.8H718.5z"></path> <path class="st0" d="M772.9,90.1l-4.9,6.6c-2.9-2.3-5.6-3.3-9-3.3c-6.3,0-10.1,4.6-10.1,15.3c0,10.8,4,14.6,10.1,14.6 c3.4,0,5.8-1.1,8.9-3.5l5,7.1c-4.1,3.3-8.7,5.2-14.5,5.2c-13,0-21-9-21-23.3c0-14.3,8-24,20.9-24 C764.2,84.8,768.7,86.4,772.9,90.1z"></path> </g> <path class="st1" d="M298.2,29.6c0,10.2-8.3,18.5-18.5,18.5c-10.2,0-18.5-8.3-18.5-18.5c0-10.2,8.3-18.5,18.5-18.5 C289.9,11.1,298.2,19.4,298.2,29.6"></path> <path class="st0" d="M283.2,129.5l-3.5,3.3c-6.4-36.6-28.7-67.1-50.4-77.4c-1.1-10.8,12.2-24.1,30.5-3.6 C275.1,68.8,285.3,100.3,283.2,129.5 M337.1,48.1c3.8-11.1-7.4-20.9-20.2-13.9c-15.1,8.3-27.7,26.5-30,46.9l1,4.6 C295.3,66.5,316.7,48.1,337.1,48.1"></path> </g> </svg> 