<svg xmlns="http://www.w3.org/2000/svg" width="384.324" height="64.496" viewBox="0 0 384.324 64.496"><defs><style>.a{fill:#0075c9;}.b{fill:#00a7e1;}.c{fill:#231f20;}</style></defs><g transform="translate(3109.424 3525.674)"><path class="a" d="M269.862,140.184q-4.168-3.619-11.762-3.634H245.447a9.4,9.4,0,0,0-5.607,1.913v36.993h12.875v-10.1H258.1q7.609,0,11.762-3.916a14.269,14.269,0,0,0,4.168-10.961A12.919,12.919,0,0,0,269.862,140.184Zm-9.181,14.15a4.183,4.183,0,0,1-3.248,1.261h-4.717v-9.27h4.717a4.3,4.3,0,0,1,3.248,1.187,4.7,4.7,0,0,1,1.142,3.367,4.955,4.955,0,0,1-1.142,3.382Z" transform="translate(-3245.375 -3661.762)"/><rect class="a" width="12.875" height="38.906" transform="translate(-3029.906 -3525.286)"/><path class="a" d="M235.529,169.7a25.574,25.574,0,0,1-6.2,4.138,20.959,20.959,0,0,1-19.208-.489,18.615,18.615,0,0,1-7.179-7.164,20.351,20.351,0,0,1-2.611-10.264A19.283,19.283,0,0,1,203,145.808a18.823,18.823,0,0,1,7.416-7.031,21.938,21.938,0,0,1,10.606-2.536,21.655,21.655,0,0,1,8.722,1.913,23.019,23.019,0,0,1,6.17,3.99l-6.156,9.7a13.927,13.927,0,0,0-3.99-3.708,8.9,8.9,0,0,0-4.583-1.483h0a7.3,7.3,0,0,0-4.049,1.172,7.846,7.846,0,0,0-2.818,3.219,11.515,11.515,0,0,0,0,9.359,7.921,7.921,0,0,0,2.818,3.278,7.209,7.209,0,0,0,4.049,1.2,9.7,9.7,0,0,0,4.45-1.231,14.966,14.966,0,0,0,4.138-3.174Z" transform="translate(-3264.47 -3661.912)"/><path class="b" d="M245.423,140.851l-.3.46L223.5,175.426h12.875l24.682-38.906h-7.713A9.582,9.582,0,0,0,245.423,140.851Z" transform="translate(-3253.272 -3661.776)"/><path class="a" d="M279.738,144.575a5.237,5.237,0,0,1,1.715,4.163,5.551,5.551,0,0,1-1.728,4.36,6.991,6.991,0,0,1-4.844,1.545H270.7v5.237h-2.3v-16.8h6.546a7.188,7.188,0,0,1,4.792,1.493Zm-1.65,7.031a3.378,3.378,0,0,0,1.152-2.789,3.26,3.26,0,0,0-1.152-2.723,5.237,5.237,0,0,0-3.312-.93H270.7v7.371h4.072a5.027,5.027,0,0,0,3.312-.93Z" transform="translate(-3377.824 -3621.688)"/><path class="a" d="M280.06,143.08h2.3v7.489h9.61V143.08h2.317v16.8h-2.317v-7.227h-9.61v7.227h-2.3Z" transform="translate(-3374.218 -3621.686)"/><path class="a" d="M307.168,143.08l-6.284,11.037v5.761h-2.3v-5.669L292.19,143.08h2.37l5.237,8.562,5.08-8.562Z" transform="translate(-3370.467 -3621.686)"/><path class="a" d="M312.353,145.51a8.169,8.169,0,0,0-2.317-.367,4.2,4.2,0,0,0-2.331.563,1.741,1.741,0,0,0-.877,1.545,2.043,2.043,0,0,0,.524,1.453,3.811,3.811,0,0,0,1.309.89c.511.21,1.218.471,2.134.759a21,21,0,0,1,2.763,1.008,4.608,4.608,0,0,1,1.794,1.427,3.928,3.928,0,0,1,.746,2.5,4.282,4.282,0,0,1-.772,2.527,5.054,5.054,0,0,1-2.186,1.663,8.327,8.327,0,0,1-3.234.589,9.308,9.308,0,0,1-3.6-.72,9.95,9.95,0,0,1-3.024-1.925l1.034-1.99a8.836,8.836,0,0,0,2.7,1.82,7.581,7.581,0,0,0,2.92.628,4.753,4.753,0,0,0,2.619-.655,2.068,2.068,0,0,0,.969-1.794,2.107,2.107,0,0,0-.537-1.466,3.6,3.6,0,0,0-1.309-.9c-.537-.223-1.309-.471-2.173-.746a23.872,23.872,0,0,1-2.736-.982,4.949,4.949,0,0,1-1.794-1.414,4.36,4.36,0,0,1,0-4.857,4.819,4.819,0,0,1,2.095-1.584,8.169,8.169,0,0,1,3.116-.55,10.316,10.316,0,0,1,2.959.445,9.951,9.951,0,0,1,2.619,1.191l-.956,2.069a9.728,9.728,0,0,0-2.448-1.126Z" transform="translate(-3367.037 -3621.733)"/><path class="a" d="M315.279,143.08h2.265v16.8h-2.3Z" transform="translate(-3363.338 -3621.686)"/><path class="a" d="M330.494,145.616a6.455,6.455,0,1,0-2.619,12.346,6.716,6.716,0,0,0,2.619-.537,7.724,7.724,0,0,0,2.252-1.479l1.4,1.506a9.269,9.269,0,0,1-2.959,1.964,8.811,8.811,0,0,1-7.79-.432,8.378,8.378,0,0,1-3.155-3.116,8.483,8.483,0,0,1-1.152-4.334,8.274,8.274,0,0,1,1.165-4.307,8.484,8.484,0,0,1,3.182-3.09,9.021,9.021,0,0,1,4.438-1.126,9.257,9.257,0,0,1,3.4.655,8.562,8.562,0,0,1,2.841,1.859l-1.375,1.663A6.807,6.807,0,0,0,330.494,145.616Z" transform="translate(-3362.148 -3621.708)"/><path class="a" d="M332.3,143.08h2.3v16.8h-2.3Z" transform="translate(-3358.063 -3621.686)"/><path class="a" d="M350.138,159.878l-1.767-4.085h-8.864l-1.754,4.085H335.33l7.463-16.8H345.2l7.436,16.8Zm-9.715-6.167h7.057l-3.561-8.117Z" transform="translate(-3357.126 -3621.686)"/><path class="a" d="M361.764,143.08h2.278v16.8h-2.33l-9.6-12.975v13h-2.3V143.08h2.331l9.623,13.027Z" transform="translate(-3352.648 -3621.686)"/><path class="a" d="M371.56,145.51a8.156,8.156,0,0,0-2.3-.367,4.229,4.229,0,0,0-2.344.563,1.741,1.741,0,0,0-.877,1.545,2.043,2.043,0,0,0,.524,1.453,3.811,3.811,0,0,0,1.309.89c.511.21,1.231.471,2.134.759a21.012,21.012,0,0,1,2.762,1.008,4.634,4.634,0,0,1,1.807,1.427,3.994,3.994,0,0,1,.733,2.5,4.19,4.19,0,0,1-.772,2.527,5.054,5.054,0,0,1-2.186,1.663,8.289,8.289,0,0,1-3.234.589,9.244,9.244,0,0,1-3.587-.72,9.651,9.651,0,0,1-3.024-1.925l1.021-1.99a8.89,8.89,0,0,0,2.71,1.82,7.463,7.463,0,0,0,2.907.628,4.752,4.752,0,0,0,2.618-.655,2.069,2.069,0,0,0,.969-1.794,2.094,2.094,0,0,0-.524-1.466,3.758,3.758,0,0,0-1.309-.9c-.537-.223-1.309-.471-2.173-.746a24.879,24.879,0,0,1-2.736-.982,4.8,4.8,0,0,1-1.781-1.414,4.355,4.355,0,0,1,.013-4.857,4.779,4.779,0,0,1,2.082-1.584,8.17,8.17,0,0,1,3.116-.55,10.475,10.475,0,0,1,2.972.445A10.144,10.144,0,0,1,375,144.567l-.969,2.069a9.521,9.521,0,0,0-2.474-1.126Z" transform="translate(-3348.724 -3621.733)"/><path class="a" d="M169.8,150.81a35.287,35.287,0,0,0,37.082,10.531v7.149H169.8Z" transform="translate(-3279.224 -3654.87)"/><path class="a" d="M169.8,154.181a35.213,35.213,0,0,1,37.082-10.516V136.5H169.8Z" transform="translate(-3279.224 -3661.786)"/><path class="b" d="M180.478,148.22v.089a11.09,11.09,0,0,0-.178,1.973,11.213,11.213,0,0,0,.178,1.973v.089l7.847-2.047Z" transform="translate(-3274.15 -3656.122)"/><path class="b" d="M185.269,143.07H185.2a11.3,11.3,0,0,0-3.085,2.462v.074l6.5,4.85Z" transform="translate(-3273.275 -3658.611)"/><path class="b" d="M195.347,145.656h0v-.074a11.451,11.451,0,0,0-3.07-2.462H192.2l-3.293,7.416Z" transform="translate(-3269.989 -3658.586)"/><path class="b" d="M192.222,158.533h.074a10.917,10.917,0,0,0,3.07-2.462h0l-6.5-4.85Z" transform="translate(-3270.008 -3654.672)"/><path class="b" d="M197.557,148.309v-.089l-7.847,2.062,7.847,2.047v-.074a11.022,11.022,0,0,0,0-3.946Z" transform="translate(-3269.602 -3656.122)"/><path class="b" d="M182.144,156h-.074a10.77,10.77,0,0,0,3.085,2.462h.074l3.278-7.416Z" transform="translate(-3273.294 -3654.754)"/><path class="b" d="M197.386,148.894v-.089a11.2,11.2,0,0,0-1.706-3.545h0l-6.17,5.251Z" transform="translate(-3269.699 -3657.552)"/><path class="b" d="M184.72,158.734h.074a10.991,10.991,0,0,0,3.842.875h.089l-.267-8.1Z" transform="translate(-3272.013 -3654.531)"/><path class="b" d="M188,159.629h0a11.066,11.066,0,0,0,3.857-.875h.074l-3.753-7.194Z" transform="translate(-3270.428 -3654.508)"/><path class="b" d="M191.931,143.125h-.074A10.382,10.382,0,0,0,188,142.25h0l.252,8.114Z" transform="translate(-3270.428 -3659.007)"/><path class="b" d="M195.655,155.667h0a11.272,11.272,0,0,0,1.706-3.56v-.074l-7.95-1.483Z" transform="translate(-3269.747 -3654.996)"/><path class="b" d="M184.794,143.12h-.074l3.738,7.194.267-8.114h-.089a10.384,10.384,0,0,0-3.842.92Z" transform="translate(-3272.013 -3659.031)"/><path class="b" d="M182.3,145.21h0a10.606,10.606,0,0,0-1.706,3.545v.089l7.965,1.483Z" transform="translate(-3274.01 -3657.576)"/><path class="b" d="M180.54,152.042v.074a10.532,10.532,0,0,0,1.706,3.56h0l6.185-5.266Z" transform="translate(-3274.034 -3655.063)"/><g transform="translate(-2927.453 -3525.674)"><path class="a" d="M660.008,57.948h3.751l8.413,21.6,8.413-21.6h3.678L673.92,83.441h-3.642Z" transform="translate(-660.008 -56.491)"/><path class="a" d="M751.495,53.767a2.341,2.341,0,0,1,0,3.132,2.154,2.154,0,0,1-3.023,0,2.341,2.341,0,0,1,0-3.132,2.154,2.154,0,0,1,3.023,0Zm-3.187,7.066H751.7V80.1h-3.387Z" transform="translate(-721.205 -53.148)"/><path class="a" d="M783.748,79.219a8.018,8.018,0,0,1,4.152-1.111v3.278a6.2,6.2,0,0,0-6.847,5.937V97.483h-3.387V78.218h3.387v4.151A6.972,6.972,0,0,1,783.748,79.219Z" transform="translate(-741.958 -70.533)"/><path class="a" d="M833.755,78.218v17.3a9.385,9.385,0,0,1-1.22,4.844,8.106,8.106,0,0,1-3.442,3.187,11.428,11.428,0,0,1-5.172,1.111,13.168,13.168,0,0,1-7.939-2.7l1.493-2.476a10.277,10.277,0,0,0,2.95,1.73,9.606,9.606,0,0,0,3.351.564,6.688,6.688,0,0,0,4.77-1.675,5.853,5.853,0,0,0,1.785-4.48v-2.7a7.159,7.159,0,0,1-2.768,2.714,8.149,8.149,0,0,1-4.005.965,8.748,8.748,0,0,1-4.571-1.183,8.066,8.066,0,0,1-3.077-3.3,10.392,10.392,0,0,1-1.092-4.844,10.091,10.091,0,0,1,1.092-4.771,8,8,0,0,1,3.077-3.242,8.86,8.86,0,0,1,4.571-1.165,8.25,8.25,0,0,1,4.024.947,7.07,7.07,0,0,1,2.75,2.695V78.218ZM827.381,93.04a5.854,5.854,0,0,0,2.167-2.313,7,7,0,0,0,.783-3.332,7.081,7.081,0,0,0-.783-3.369,5.859,5.859,0,0,0-2.167-2.313,6,6,0,0,0-3.168-.837,6.094,6.094,0,0,0-3.187.837,5.942,5.942,0,0,0-2.2,2.313,6.946,6.946,0,0,0-.8,3.369,6.659,6.659,0,0,0,1.748,4.662,5.819,5.819,0,0,0,4.443,1.821A6,6,0,0,0,827.381,93.04Z" transform="translate(-767.834 -70.533)"/><path class="a" d="M895.85,53.767a2.341,2.341,0,0,1,0,3.132,2.154,2.154,0,0,1-3.023,0,2.341,2.341,0,0,1,0-3.132,2.154,2.154,0,0,1,3.023,0Zm-3.187,7.066h3.387V80.1h-3.387Z" transform="translate(-821.749 -53.148)"/><path class="a" d="M938.044,80.093a7.531,7.531,0,0,1,1.93,5.481V97.483h-3.387v-11a4.733,4.733,0,0,0-5.135-5.171,5.813,5.813,0,0,0-4.206,1.657,6.507,6.507,0,0,0-1.839,4.206V97.483H922.02V78.218h3.387V82.3q1.93-4.115,7.321-4.188A7.075,7.075,0,0,1,938.044,80.093Z" transform="translate(-842.501 -70.533)"/><path class="a" d="M999.18,53.767a2.341,2.341,0,0,1,0,3.132,2.154,2.154,0,0,1-3.023,0,2.342,2.342,0,0,1,0-3.132,2.154,2.154,0,0,1,3.023,0Zm-3.187,7.066h3.387V80.1h-3.387Z" transform="translate(-893.72 -53.148)"/><path class="a" d="M1033.784,97.483v-2.7q-2.149,2.841-6.737,2.841a7.677,7.677,0,0,1-3.514-.765,5.622,5.622,0,0,1-2.331-2.112,5.7,5.7,0,0,1-.819-3.023,4.947,4.947,0,0,1,1.912-4.1,8.561,8.561,0,0,1,5.336-1.548h6.118v-.91a3.984,3.984,0,0,0-1.256-3.15,5.365,5.365,0,0,0-3.66-1.111,10.484,10.484,0,0,0-5.936,2.076l-1.42-2.331a17.616,17.616,0,0,1,3.842-1.948,13.1,13.1,0,0,1,4.206-.6,8.056,8.056,0,0,1,5.572,1.767,6.4,6.4,0,0,1,2,4.934l.036,12.674Zm-2.021-3.806a4.523,4.523,0,0,0,1.985-3.041V88.706H1028.1a6.585,6.585,0,0,0-3.405.692,2.385,2.385,0,0,0-1.111,2.185,2.835,2.835,0,0,0,1.129,2.367,4.808,4.808,0,0,0,3.023.874A6.9,6.9,0,0,0,1031.763,93.677Z" transform="translate(-911.011 -70.533)"/><path class="a" d="M1124.025,57.948h17.7v3.169h-14.2v7.867h12.711v3.168h-12.711v8.122h14.641v3.168h-18.137Z" transform="translate(-983.199 -56.491)"/><path class="a" d="M1190.865,103.816a5.771,5.771,0,0,1-3.551,1.129,6.335,6.335,0,0,1-4.225-1.493l1.457-2.659a4.415,4.415,0,0,0,2.586.91q2.185,0,3.278-2.477l.728-1.711-7.976-19.047h3.569l6.119,15.442,5.791-15.442h3.46l-8.813,22A7.7,7.7,0,0,1,1190.865,103.816Z" transform="translate(-1024.338 -70.784)"/><path class="a" d="M1262.681,80.749q2.294,2.64,2.295,7.338,0,.729-.036,1.093h-15.223a6.564,6.564,0,0,0,2.167,4.115,6.413,6.413,0,0,0,4.352,1.53,8.142,8.142,0,0,0,3.187-.619,7.656,7.656,0,0,0,2.568-1.748l1.857,1.93a9.732,9.732,0,0,1-3.423,2.368,11.405,11.405,0,0,1-4.443.838,10.229,10.229,0,0,1-5.044-1.22,8.561,8.561,0,0,1-3.424-3.442,11.074,11.074,0,0,1,0-10.106,8.887,8.887,0,0,1,3.405-3.46,9.827,9.827,0,0,1,4.99-1.256Q1260.386,78.108,1262.681,80.749Zm-.765,5.809a5.582,5.582,0,0,0-5.972-5.645,6.091,6.091,0,0,0-4.243,1.53,6.418,6.418,0,0,0-2.021,4.115Z" transform="translate(-1068.359 -70.533)"/><path class="a" d="M681.3,183.18a9.815,9.815,0,0,0-12.492,4.006,9.8,9.8,0,0,0,8.522,14.732,9.975,9.975,0,0,0,3.933-.819,11.378,11.378,0,0,0,3.423-2.24l2.112,2.295a14.208,14.208,0,0,1-4.479,2.968,13.385,13.385,0,0,1-11.836-.655,12.868,12.868,0,0,1-6.519-11.308,12.545,12.545,0,0,1,1.766-6.537,12.769,12.769,0,0,1,4.826-4.68,13.565,13.565,0,0,1,6.737-1.711,13.717,13.717,0,0,1,5.153,1,12.752,12.752,0,0,1,4.316,2.822l-2.076,2.513A10.535,10.535,0,0,0,681.3,183.18Z" transform="translate(-662.766 -140.964)"/><path class="a" d="M759.15,201.346a8.911,8.911,0,0,1,3.5,3.442,10.791,10.791,0,0,1,0,10.106,8.869,8.869,0,0,1-3.5,3.46,11.267,11.267,0,0,1-10.271,0,8.91,8.91,0,0,1-3.5-3.442,10.829,10.829,0,0,1,0-10.125,8.916,8.916,0,0,1,3.5-3.442,11.267,11.267,0,0,1,10.271,0Zm-8.486,2.586a6.046,6.046,0,0,0-2.294,2.422,7.394,7.394,0,0,0-.819,3.515,7.577,7.577,0,0,0,.819,3.569,5.888,5.888,0,0,0,2.294,2.422,6.588,6.588,0,0,0,3.368.856,6.515,6.515,0,0,0,3.332-.856,5.884,5.884,0,0,0,2.294-2.422,7.577,7.577,0,0,0,.82-3.569,7.394,7.394,0,0,0-.82-3.515,6.042,6.042,0,0,0-2.294-2.422,6.41,6.41,0,0,0-3.332-.874A6.481,6.481,0,0,0,750.664,203.932Z" transform="translate(-718.597 -155.507)"/><path class="a" d="M837.705,202.093a7.53,7.53,0,0,1,1.931,5.481v11.909h-3.387v-11a5.145,5.145,0,0,0-1.366-3.805,5.093,5.093,0,0,0-3.769-1.366,5.812,5.812,0,0,0-4.206,1.657,6.507,6.507,0,0,0-1.839,4.206v10.307h-3.387V200.218h3.387V204.3q1.93-4.115,7.32-4.188A7.074,7.074,0,0,1,837.705,202.093Z" transform="translate(-772.614 -155.507)"/><path class="a" d="M900.657,203.23a9.45,9.45,0,0,0-2.75-.437,4.694,4.694,0,0,0-2.458.564,1.886,1.886,0,0,0-.929,1.73,1.924,1.924,0,0,0,1.038,1.766,15.049,15.049,0,0,0,3.15,1.22,24.624,24.624,0,0,1,3.278,1.165,5.82,5.82,0,0,1,2.167,1.711,5.3,5.3,0,0,1-1.165,7.138,8.8,8.8,0,0,1-5.117,1.42,12.778,12.778,0,0,1-4.17-.692,9.469,9.469,0,0,1-3.405-1.966l1.275-2.477a9.017,9.017,0,0,0,2.968,1.748,9.85,9.85,0,0,0,3.442.656,5.148,5.148,0,0,0,2.7-.619,2.065,2.065,0,0,0,1.02-1.894,2.154,2.154,0,0,0-1.074-1.966,14.615,14.615,0,0,0-3.26-1.311,21.786,21.786,0,0,1-3.15-1.111,5.579,5.579,0,0,1-2.076-1.657,4.47,4.47,0,0,1-.856-2.841,4.574,4.574,0,0,1,1.967-4.042,8.5,8.5,0,0,1,4.917-1.348,12.283,12.283,0,0,1,3.441.492,10.353,10.353,0,0,1,2.932,1.329L903.3,204.4A11.542,11.542,0,0,0,900.657,203.23Z" transform="translate(-820.405 -155.423)"/><path class="a" d="M966.7,200.469v19.265h-3.423v-4.079q-1.894,4.116-7.138,4.188a6.9,6.9,0,0,1-5.244-1.985A7.616,7.616,0,0,1,949,212.378V200.469h3.423v11a5.225,5.225,0,0,0,1.329,3.806,4.871,4.871,0,0,0,3.66,1.366,5.411,5.411,0,0,0,4.279-1.912,7.164,7.164,0,0,0,1.584-4.789v-9.469Z" transform="translate(-861.292 -155.758)"/><path class="a" d="M1024.609,174.908H1028v27.023h-3.387Z" transform="translate(-913.955 -137.955)"/><path class="a" d="M1059.022,208.1a8.3,8.3,0,0,1-4.516,1.421,5.135,5.135,0,0,1-3.715-1.366,5.487,5.487,0,0,1-1.42-4.134V193.346h-2.731v-2.585h2.731v-5.172h3.424v5.172h5.9v2.585h-5.9V203.4a3.562,3.562,0,0,0,.583,2.294,2.153,2.153,0,0,0,1.748.692,6.1,6.1,0,0,0,2.986-.91Z" transform="translate(-929.3 -145.394)"/><path class="a" d="M1106.348,219.483v-2.7q-2.149,2.841-6.737,2.841a7.678,7.678,0,0,1-3.514-.765,5.624,5.624,0,0,1-2.331-2.112,5.7,5.7,0,0,1-.819-3.023,4.947,4.947,0,0,1,1.912-4.1,8.559,8.559,0,0,1,5.335-1.548h6.118v-.91a3.985,3.985,0,0,0-1.256-3.15,5.364,5.364,0,0,0-3.66-1.111,10.484,10.484,0,0,0-5.937,2.076l-1.42-2.331a17.606,17.606,0,0,1,3.842-1.948,13.1,13.1,0,0,1,4.206-.6,8.058,8.058,0,0,1,5.573,1.767,6.4,6.4,0,0,1,2,4.934l.036,12.674Zm-2.021-3.806a4.522,4.522,0,0,0,1.985-3.041v-1.931h-5.645a6.585,6.585,0,0,0-3.405.692,2.384,2.384,0,0,0-1.111,2.185,2.835,2.835,0,0,0,1.129,2.367,4.81,4.81,0,0,0,3.023.874A6.894,6.894,0,0,0,1104.327,215.677Z" transform="translate(-961.552 -155.507)"/><path class="a" d="M1180.166,202.093a7.531,7.531,0,0,1,1.931,5.481v11.909h-3.387v-11a4.733,4.733,0,0,0-5.135-5.171,5.813,5.813,0,0,0-4.206,1.657,6.5,6.5,0,0,0-1.839,4.206v10.307h-3.387V200.218h3.387V204.3q1.93-4.115,7.32-4.188A7.075,7.075,0,0,1,1180.166,202.093Z" transform="translate(-1011.141 -155.507)"/><path class="a" d="M1244.156,208.1a8.3,8.3,0,0,1-4.516,1.421,5.136,5.136,0,0,1-3.715-1.366,5.487,5.487,0,0,1-1.42-4.134V193.346h-2.731v-2.585h2.731v-5.172h3.424v5.172h5.9v2.585h-5.9V203.4a3.565,3.565,0,0,0,.582,2.294,2.155,2.155,0,0,0,1.748.692,6.1,6.1,0,0,0,2.986-.91Z" transform="translate(-1058.247 -145.394)"/><path class="a" d="M1288.514,203.23a9.451,9.451,0,0,0-2.75-.437,4.694,4.694,0,0,0-2.458.564,1.886,1.886,0,0,0-.929,1.73,1.925,1.925,0,0,0,1.038,1.766,15.046,15.046,0,0,0,3.151,1.22,24.649,24.649,0,0,1,3.278,1.165,5.819,5.819,0,0,1,2.167,1.711,5.3,5.3,0,0,1-1.165,7.138,8.8,8.8,0,0,1-5.117,1.42,12.774,12.774,0,0,1-4.17-.692,9.469,9.469,0,0,1-3.406-1.966l1.275-2.477a9.018,9.018,0,0,0,2.968,1.748,9.85,9.85,0,0,0,3.441.656,5.148,5.148,0,0,0,2.695-.619,2.064,2.064,0,0,0,1.02-1.894,2.154,2.154,0,0,0-1.074-1.966,14.618,14.618,0,0,0-3.26-1.311,21.763,21.763,0,0,1-3.15-1.111,5.579,5.579,0,0,1-2.076-1.657,4.47,4.47,0,0,1-.856-2.841,4.574,4.574,0,0,1,1.967-4.042,8.5,8.5,0,0,1,4.916-1.348,12.284,12.284,0,0,1,3.442.492,10.351,10.351,0,0,1,2.932,1.329l-1.238,2.586A11.542,11.542,0,0,0,1288.514,203.23Z" transform="translate(-1090.55 -155.423)"/></g><g transform="translate(-2947.913 -3524.953)"><line class="c" y2="63.775" transform="translate(1.366)"/><rect class="a" width="2.731" height="63.775" transform="translate(0 0)"/></g></g></svg>