<svg xmlns="http://www.w3.org/2000/svg" width="250" height="75" fill="none" viewBox="0 0 250 75"><path d="M113.745 9.4h-.352v30.048h.352V9.4z" fill="#6e6f71"/><path d="M1.268 58.118V47.655h5.249v10.356c0 2.677 1.339 3.945 3.417 3.945s3.417-1.233 3.417-3.84V47.655H18.6v10.321c0 6.024-3.417 8.63-8.736 8.63s-8.595-2.677-8.595-8.489zm25.891-10.463h8.807c2.853 0 4.826.74 6.059 2.008 1.092 1.057 1.656 2.501 1.656 4.333v.035c0 2.853-1.515 4.72-3.84 5.707l4.403 6.482h-5.953l-3.734-5.636h-2.254v5.636H27.16V47.655zm8.56 8.947c1.761 0 2.783-.845 2.783-2.219v-.035c0-1.444-1.057-2.219-2.783-2.219h-3.382v4.474h3.382zm14.513.424v-.035c0-5.425 4.262-9.652 10.004-9.652 3.276 0 5.566 1.022 7.538 2.712l-3.029 3.628c-1.339-1.127-2.677-1.761-4.509-1.761-2.677 0-4.756 2.255-4.756 5.108v.035c0 2.994 2.114 5.143 5.037 5.143 1.057.035 2.078-.211 2.959-.775v-2.254h-3.664v-3.769h8.56v8.384c-2.29 1.867-5.143 2.888-8.067 2.853-5.742 0-10.075-3.981-10.075-9.617zm26.632-9.371h14.971v4.368h-9.863v2.818h8.947v4.086h-8.947v2.959h10.004v4.368H76.864V47.655zm23.319 0h4.826l7.644 9.828v-9.828h5.108v18.599h-4.509l-7.961-10.216v10.216h-5.108V47.655zm30.26 4.509h-5.601v-4.509h16.309v4.509h-5.601v14.091h-5.143V52.164h.036zm28.18 4.862v-.035c0-5.425 4.192-9.687 9.793-9.687 3.805 0 6.235 1.585 7.891 3.875l-3.875 2.994c-1.057-1.339-2.29-2.184-4.051-2.184-2.607 0-4.439 2.219-4.439 4.932v.035c0 2.783 1.832 4.967 4.439 4.967 1.937 0 3.1-.916 4.192-2.254l3.875 2.783c-1.762 2.431-4.122 4.192-8.243 4.192-5.214.07-9.511-4.086-9.582-9.3v-.317zm30.295-9.511h4.967l7.926 18.74h-5.531l-1.338-3.311h-7.187l-1.338 3.311h-5.425l7.926-18.74zm4.509 11.413l-2.079-5.284-2.113 5.284h4.192zm14.548-11.273h8.807c2.853 0 4.826.74 6.059 2.008 1.092 1.057 1.655 2.501 1.655 4.333v.035c0 2.853-1.514 4.72-3.839 5.707l4.438 6.482h-5.953l-3.734-5.636h-2.254v5.636h-5.179V47.655zm8.56 8.947c1.762 0 2.748-.845 2.748-2.219v-.035c0-1.444-1.057-2.219-2.783-2.219h-3.382v4.474h3.417zm15.147-8.947h14.971v4.368h-9.863v2.818h8.912v4.086h-8.912v2.959h10.004v4.368h-15.112V47.655z" fill="#ed7724"/><path d="M5.742 38.391v-5.249a.39.39 0 0 0-.387-.387H.141c-.07 0-.141.07-.141.141 0 .035 0 .071.035.106l5.495 5.495c.07.035.141.035.176 0s.035-.07.035-.106z" fill="#622f88"/><path d="M12.576 38.25v-5.108a.33.33 0 0 0-.352-.352H7.08c-.07 0-.141.07-.141.141 0 .035 0 .071.035.106l5.354 5.354c.035.035.141.035.176 0 .035-.071.07-.106.07-.141z" fill="#8a3e97"/><path d="M19.374 38.25v-5.108a.33.33 0 0 0-.352-.352h-5.108c-.07 0-.141.07-.141.141 0 .035 0 .071.035.106l5.354 5.354c.035.035.141.035.176 0 .035-.071.035-.106.035-.141z" fill="#f47523"/><path d="M26.208 37.123v-4.051c0-.176-.141-.282-.282-.282h-4.051c-.07 0-.106.035-.106.106 0 .035 0 .07.035.07l4.262 4.262c.035.035.106.035.141 0-.035-.07 0-.07 0-.106z" fill="#fdb717"/><path d="M5.742 31.416v-5.108a.33.33 0 0 0-.352-.352H.282c-.07 0-.141.07-.141.141 0 .035 0 .07.035.106l5.354 5.319c.035.035.141.035.176 0s.035-.07.035-.106z" fill="#8a3e97"/><path d="M12.576 31.416v-5.108a.33.33 0 0 0-.352-.352H7.08c-.07 0-.141.07-.141.141 0 .035 0 .07.035.106l5.354 5.354c.035.035.141.035.176 0 .035-.07.07-.07.07-.141z" fill="#b988bc"/><path d="M19.374 30.289v-4.051c0-.176-.141-.282-.282-.282h-4.051c-.071 0-.106.035-.106.106 0 .035 0 .071.035.071l4.262 4.262c.035.035.106.035.141 0 0-.035.035-.07 0-.106z" fill="#ef4927"/><path d="M26.208 29.901v-3.699a.24.24 0 0 0-.247-.247h-3.699c-.035 0-.106.035-.106.07s0 .071.035.071l3.84 3.84c.035.035.106.035.141 0l.035-.035z" fill="#fdb717"/><path d="M5.742 24.618V19.51a.33.33 0 0 0-.352-.352H.282c-.07 0-.141.07-.141.141 0 .035 0 .07.035.106l5.354 5.284c.035.035.141.035.176 0 .035 0 .035-.035.035-.07z" fill="#009447"/><path d="M12.576 23.49v-4.051c0-.176-.141-.282-.282-.282H8.208c-.07 0-.106.035-.106.106 0 .035 0 .07.035.07l4.262 4.262c.035.035.106.035.141 0s.035-.07.035-.106z" fill="#bdda86"/><path d="M19.374 23.068v-3.663a.24.24 0 0 0-.247-.247h-3.699c-.035 0-.106.035-.106.07s0 .07.035.07l3.84 3.84c.035.035.106.035.141 0 .035 0 .035-.035.035-.07z" fill="#8d95ca"/><path d="M26.208 22.328v-2.994c0-.106-.106-.211-.211-.211h-2.994c-.035 0-.071.035-.071.07s0 .035.035.071l3.135 3.135c.035.035.07.035.106 0-.035 0 0-.035 0-.07z" fill="#069bd7"/><path d="M5.742 16.692v-4.086c0-.176-.141-.282-.282-.282H1.409c-.07 0-.106.035-.106.106 0 .035 0 .07.035.07l4.262 4.227c.035.035.106.035.141 0v-.035z" fill="#49b749"/><path d="M12.576 16.269v-3.664a.24.24 0 0 0-.247-.246H8.63c-.035 0-.106.035-.106.07s0 .071.035.071l3.84 3.84c.035.035.07.035.141.035.035-.035.035-.07.035-.106z" fill="#bdda86"/><path d="M19.374 15.529v-2.994c0-.106-.106-.211-.211-.211h-2.994c-.035 0-.07.035-.07.07s0 .035.035.07l3.135 3.135c.035.035.071.035.106 0v-.07z" fill="#005ba5"/><path d="M26.208 15.529v-2.994c0-.106-.106-.211-.211-.211h-2.994c-.035 0-.071.035-.071.07s0 .035.035.07l3.135 3.135c.035.035.07.035.106 0-.035-.035 0-.035 0-.07z" fill="#6ccdec"/><path d="M32.725 12.324h2.184l5.037 6.623v-6.623h2.325v10.744h-2.008l-5.214-6.834v6.834h-2.325V12.324zm10.779 6.693c0-2.395 1.902-4.298 4.474-4.298s4.438 1.902 4.438 4.262v.035c0 2.36-1.902 4.298-4.474 4.298s-4.438-1.937-4.438-4.298zm6.623 0c.035-1.233-.881-2.254-2.078-2.29h-.07c-1.339 0-2.149 1.022-2.149 2.255v.035c-.035 1.198.881 2.219 2.114 2.255h.07c1.303-.035 2.114-1.057 2.114-2.254zm3.523-4.157h2.325v1.656c.493-1.127 1.233-1.867 2.607-1.797v2.431h-.141c-1.55 0-2.501.951-2.501 2.889v3.029h-2.325l.035-8.208zm7.186 5.883v-3.91h-.986v-2.008h.986v-2.114h2.325v2.114h1.937v2.008h-1.937v3.523c0 .528.211.81.74.81.388 0 .81-.106 1.163-.282v1.867c-.564.317-1.198.493-1.832.458-1.444 0-2.395-.564-2.395-2.466zm5.742-8.877h2.325v4.157c.528-.705 1.233-1.339 2.395-1.339 1.761 0 2.783 1.162 2.783 3.065v5.319h-2.325v-4.579c0-1.092-.528-1.691-1.409-1.691s-1.444.564-1.444 1.691v4.579h-2.325V11.866zm8.243 2.994h2.36l1.339 4.967 1.55-5.002h2.008l1.55 5.037 1.339-5.002h2.325l-2.572 8.278h-2.114l-1.55-5.073-1.62 5.037h-2.078L74.82 14.86zm12.752 4.157c0-2.36 1.691-4.298 4.051-4.298 2.748 0 4.016 2.149 4.016 4.474 0 .176 0 .388-.035.599h-5.707c.141.986 1.022 1.691 2.008 1.62.74 0 1.48-.282 2.008-.845l1.339 1.162c-.81 1.022-2.043 1.585-3.346 1.55-2.501-.035-4.333-1.761-4.333-4.262zm5.812-.704c-.141-1.057-.74-1.761-1.726-1.761s-1.585.704-1.761 1.761h3.487zm3.593-6.446h2.325v11.202h-2.325V11.866zm4.227 0h2.325v11.202h-2.325V11.866zm-68.48 15.922h1.198v4.791h6.2v-4.791h1.198v10.744h-1.198v-4.826h-6.2v4.826h-1.198V27.788zm13.809 9.899c.951 0 1.867-.387 2.501-1.127l.74.669c-.81.986-2.008 1.515-3.276 1.48-2.184 0-3.945-1.691-3.945-4.157 0-2.29 1.62-4.157 3.804-4.157 2.36 0 3.699 1.867 3.699 4.192v.423h-6.305a2.79 2.79 0 0 0 2.783 2.677zm2.325-3.593c-.141-1.444-.951-2.677-2.536-2.677-1.374 0-2.395 1.127-2.572 2.677h5.108zm2.219 2.114c0-1.726 1.374-2.607 3.382-2.607a8.31 8.31 0 0 1 2.431.352v-.247c0-1.409-.845-2.149-2.36-2.149-.845 0-1.656.211-2.395.564l-.352-.951c.881-.458 1.867-.669 2.889-.669 1.127 0 2.008.317 2.572.881.599.634.881 1.479.845 2.325v4.861h-1.162v-1.162c-.669.881-1.726 1.374-2.853 1.339-1.55-.035-2.994-.881-2.994-2.536zm5.812-.599v-.74c-.74-.211-1.515-.352-2.325-.352-1.48 0-2.325.634-2.325 1.585v.035c0 .986.916 1.585 2.008 1.585 1.48.035 2.642-.845 2.642-2.114zm3.065-8.278h1.198v11.202h-1.198V27.33zm3.734 9.088v-4.791h-1.092v-1.057h1.092v-2.395h1.198v2.395h2.501v1.057h-2.501v4.65c0 .951.528 1.339 1.339 1.339a2.69 2.69 0 0 0 1.162-.282v1.022c-.423.247-.916.352-1.444.352-1.303-.035-2.254-.669-2.254-2.29zm5.072-9.088h1.198v4.65a2.97 2.97 0 0 1 2.712-1.55c1.902 0 3.029 1.303 3.029 3.17v4.932h-1.198v-4.65c0-1.48-.81-2.395-2.184-2.395s-2.395.986-2.395 2.501v4.544h-1.198l.035-11.202zm8.701 4.613a1.49 1.49 0 0 1 1.48-1.48 1.49 1.49 0 0 1 1.48 1.48 1.49 1.49 0 0 1-1.48 1.479 1.49 1.49 0 0 1-1.48-1.479zm2.818 0c.035-.74-.528-1.339-1.268-1.374s-1.339.528-1.374 1.268v.141c-.035.74.528 1.339 1.268 1.374s1.339-.528 1.374-1.268v-.141zm-1.973-.81h.74c.352 0 .634.176.634.528a.53.53 0 0 1-.352.493l.387.564h-.458l-.352-.493h-.247v.493h-.388l.035-1.585zm.705.74c.176 0 .282-.07.282-.211s-.106-.211-.282-.211h-.317v.423h.317z" fill="#005ba5"/><path d="M163.344 26.52h4.262v3.346c-1.127.881-2.501 1.339-3.945 1.339-3.241 0-5.46-2.29-5.46-5.707v-.035c0-3.17 2.289-5.636 5.213-5.636 1.55-.07 3.065.528 4.192 1.585l.071.07 1.162-1.339-.07-.07c-1.445-1.303-3.347-1.973-5.284-1.867-3.981 0-7.116 3.241-7.116 7.327v.035c0 4.297 2.959 7.292 7.221 7.292a8.4 8.4 0 0 0 5.672-2.184l.035-.035v-5.742h-5.988v1.62h.035zm13.632-4.72c-2.994-.035-5.46 2.36-5.495 5.39v.106.035c0 3.029 2.466 5.495 5.495 5.46 3.03 0 5.495-2.466 5.46-5.495v-.035c.035-2.994-2.36-5.425-5.354-5.46h-.106zm0 9.441c-2.078 0-3.734-1.726-3.734-3.91v-.035c0-2.219 1.585-3.91 3.699-3.91s3.734 1.726 3.734 3.945v.035c0 2.219-1.585 3.875-3.699 3.875zm7.926-12.753h3.065v5.531h5.671v-5.53h3.1v13.985h-3.1v-5.636h-5.671v5.636h-3.065V18.488zm13.844 8.701v-.035c0-3.065 2.184-5.566 5.284-5.566 3.593 0 5.213 2.783 5.213 5.812l-.035.81h-7.468c.176 1.268 1.339 2.184 2.607 2.114.986 0 1.937-.388 2.607-1.092l1.726 1.55c-1.057 1.339-2.677 2.078-4.368 2.008-3.171-.07-5.566-2.325-5.566-5.601zm7.574-.916c-.177-1.374-.987-2.29-2.255-2.29s-2.078.916-2.325 2.29h4.58zm4.297 3.135v-.035c0-2.36 1.797-3.417 4.333-3.417a8.08 8.08 0 0 1 2.607.423v-.176c0-1.268-.775-1.973-2.29-1.973-1.022 0-2.008.211-2.959.599l-.775-2.325c1.303-.599 2.712-.881 4.157-.845 1.655 0 2.853.423 3.628 1.198s1.162 1.973 1.162 3.417v6.235h-2.923v-1.162c-.81.916-2.008 1.409-3.241 1.374-2.043-.035-3.699-1.198-3.699-3.311zm6.975-.704v-.528a4.07 4.07 0 0 0-1.937-.387c-1.304 0-2.114.528-2.114 1.479v.035c0 .81.669 1.303 1.656 1.303 1.409-.035 2.395-.81 2.395-1.902zm8.278-10.85h-3.029v14.619h3.029V17.854zm3.241 11.59v-5.108h-1.268v-2.607h1.268v-2.748h3.029v2.748h2.537v2.607h-2.537v4.579c0 .704.282 1.057.987 1.057a3.22 3.22 0 0 0 1.514-.388v2.431c-.739.423-1.55.634-2.395.634-1.867.035-3.135-.704-3.135-3.206zm7.82-11.59h3.029v5.39c.705-.916 1.586-1.726 3.136-1.726 2.289 0 3.628 1.515 3.628 3.981v6.94h-3.03v-5.988c0-1.444-.669-2.184-1.831-2.184s-1.903.74-1.903 2.184v5.988h-3.029V17.854zm11.096 13.633c0-.528.423-.986.987-.986s.986.458.986.986-.423.986-.986.986c-.564-.035-.987-.458-.987-.986zm1.832 0c0-.493-.352-.881-.845-.881s-.846.388-.846.881c0 .458.353.881.846.881.493-.035.845-.423.845-.881zm-1.268-.528h.493c.247 0 .423.106.423.352 0 .176-.106.282-.212.317l.247.352h-.282l-.211-.317h-.141v.317h-.317v-1.021zm.493.493c.106 0 .176-.07.176-.141 0-.106-.07-.141-.176-.141h-.211v.282h.211z" fill="#04a7e0"/><path d="M146.234 27.334a8.35 8.35 0 0 0-6.206-10.043 8.35 8.35 0 0 0-10.044 6.206 8.35 8.35 0 0 0 6.207 10.043 8.35 8.35 0 0 0 10.043-6.206z" fill="#fff"/><path d="M152.318 12.218H123.89c-.14 0-.246.106-.281.247v25.75c0 .141.105.282.281.282h28.428c.141 0 .247-.106.247-.282v-25.75a.24.24 0 0 0-.247-.247zm-14.231 21.523c-4.615 0-8.349-3.734-8.349-8.349s3.734-8.349 8.349-8.349 8.348 3.734 8.348 8.349-3.734 8.349-8.348 8.349z" fill="#ed7724"/><path d="M136.008 19.615c-.035-.035-.035 0-.035 0v3.241c0 .035-.035.07-.07.07h-4.333c-.458 1.409-.458 2.959 0 4.368h4.333c.035 0 .07.035.07.07v3.17c0 .035 0 .035.035 0l4.826-5.39c.036-.035.036-.071 0-.106l-4.826-5.425z" fill="#04a7e0"/><path d="M143.899 27.295c.035 0 .07 0 .07-.035v-.035-4.157c0-.035-.035-.07-.07-.07h-3.311c-.036 0-.071-.035-.071-.07v-3.311c0-.035-.035-.071-.07-.071h-3.593c-.036 0-.036.035-.036.035l4.932 5.495c.035.035.035.071 0 .106l-4.967 5.39c-.035.035 0 .035 0 .035h3.664c.035 0 .07-.035.07-.07V27.33c0-.035.035-.07.071-.07l3.311.035z" fill="#ed7724"/><path opacity=".08" d="M131.922 23.314l-.352-.352c-.458 1.409-.458 2.959 0 4.368l.352-.352c-.317-1.198-.317-2.466 0-3.663z" fill="#010101"/><path opacity=".25" d="M131.57 22.962l.352.352h4.403l-.387-.387-.035.035h-4.333z" fill="#fff"/><path opacity=".08" d="M136.255 20.249l-.282-.634v.035 3.241.035l.387.387-.105-3.065z" fill="#010101"/><g fill="#fff"><path opacity=".25" d="M140.834 25.111l-4.826-5.495h-.035l.282.634 4.473 4.897h.141l-.035-.035z"/><path opacity=".25" d="M140.834 25.146h-.141l-4.473 4.755-.282.669h.035l4.826-5.39c.035 0 .07-.035.035-.035z"/></g><path opacity=".08" d="M135.938 27.33v.035 3.17.035l.282-.669.07-2.959-.352.387z" fill="#010101"/><path opacity=".25" d="M135.938 27.33l.387-.387h-4.403l-.352.352h4.333c.035 0 .035.035.035.035z" fill="#fff"/></svg>