<?xml version="1.0" encoding="UTF-8" standalone="no"?>
<svg
   xmlns:dc="http://purl.org/dc/elements/1.1/"
   xmlns:cc="http://creativecommons.org/ns#"
   xmlns:rdf="http://www.w3.org/1999/02/22-rdf-syntax-ns#"
   xmlns:svg="http://www.w3.org/2000/svg"
   xmlns="http://www.w3.org/2000/svg"
   viewBox="0 0 713.89331 203.88"
   height="203.88"
   width="713.89331"
   xml:space="preserve"
   id="svg2"
   version="1.1"><metadata
     id="metadata8"><rdf:RDF><cc:Work
         rdf:about=""><dc:format>image/svg+xml</dc:format><dc:type
           rdf:resource="http://purl.org/dc/dcmitype/StillImage" /></cc:Work></rdf:RDF></metadata><defs
     id="defs6" /><g
     transform="matrix(1.3333333,0,0,-1.3333333,0,203.88)"
     id="g10"><g
       transform="scale(0.1)"
       id="g12"><path
         id="path14"
         style="fill:#1c4e78;fill-opacity:1;fill-rule:nonzero;stroke:none"
         d="m 1059.71,1175.78 c -5.41,16.19 -14.03,19.42 -30.23,19.42 h -15.12 v 116.6 h 93.92 c 45.35,0 66.94,-14.04 77.73,-56.14 l 80.97,-305.496 c 7.55,-29.16 10.8,-58.312 10.8,-58.312 h 2.15 c 0,0 4.33,29.152 12.95,58.312 l 101.48,359.476 h 120.92 l 102.55,-359.476 c 8.63,-29.16 11.88,-58.312 11.88,-58.312 h 2.15 c 0,0 3.24,29.152 10.79,58.312 l 79.91,305.496 c 10.78,42.1 32.37,56.14 77.72,56.14 h 93.92 v -116.6 h -15.12 c -16.2,0 -23.75,-3.23 -30.23,-19.42 L 1717.16,761.227 h -154.38 l -93.93,314.153 c -8.64,29.15 -12.94,59.37 -12.94,59.37 h -2.17 c 0,0 -5.4,-30.22 -14.03,-59.37 l -92.85,-314.153 h -155.45 l -131.7,414.553" /><path
         id="path16"
         style="fill:#1c4e78;fill-opacity:1;fill-rule:nonzero;stroke:none"
         d="m 2311.92,1107.77 c -2.16,65.85 -47.5,111.19 -103.64,111.19 -70.17,0 -119.82,-42.1 -134.94,-111.19 z m -103.64,216.98 c 157.62,0 243.98,-115.51 243.98,-261.25 0,-16.19 -3.24,-50.74 -3.24,-50.74 h -380 c 10.8,-97.147 82.05,-147.889 165.18,-147.889 88.51,0 154.37,61.531 154.37,61.531 l 57.21,-95 c 0,0 -84.2,-83.125 -221.3,-83.125 -182.45,0 -295.8,131.711 -295.8,288.233 0,169.48 114.43,288.24 279.6,288.24" /><path
         id="path18"
         style="fill:#1c4e78;fill-opacity:1;fill-rule:nonzero;stroke:none"
         d="m 2560.17,1387.36 c 0,16.2 -8.63,23.75 -23.75,23.75 h -43.18 v 116.59 h 130.62 c 50.75,0 73.41,-22.66 73.41,-73.41 V 900.496 c 0,-15.117 8.65,-23.75 23.75,-23.75 h 42.1 V 761.227 h -129.54 c -51.82,0 -73.41,21.593 -73.41,73.418 v 552.715" /><path
         id="path20"
         style="fill:#1c4e78;fill-opacity:1;fill-rule:nonzero;stroke:none"
         d="m 2858.08,1387.36 c 0,16.2 -8.63,23.75 -23.75,23.75 h -43.18 v 116.59 h 130.63 c 50.74,0 73.41,-22.66 73.41,-73.41 V 900.496 c 0,-15.117 8.64,-23.75 23.74,-23.75 h 42.1 V 761.227 h -129.54 c -51.81,0 -73.41,21.593 -73.41,73.418 v 552.715" /><path
         id="path22"
         style="fill:#00acd7;fill-opacity:1;fill-rule:nonzero;stroke:none"
         d="m 3422.65,863.785 c 75.57,0 139.27,61.535 139.27,170.575 0,104.71 -56.14,172.72 -137.11,172.72 -71.25,0 -138.18,-51.82 -138.18,-173.8 0,-85.296 45.35,-169.495 136.02,-169.495 m -268.8,307.675 c 0,16.2 -8.63,23.75 -23.76,23.75 h -43.17 v 116.59 h 121.99 c 50.74,0 69.09,-22.67 69.09,-52.89 v -21.6 h 2.15 c 0,0 46.43,87.45 174.9,87.45 148.97,0 245.05,-117.68 245.05,-288.25 0,-174.881 -107.95,-288.233 -252.61,-288.233 -109.04,0 -157.61,72.336 -157.61,72.336 h -2.16 c 0,0 2.16,-19.445 2.16,-47.492 V 545.328 h -136.03 v 626.132" /><path
         id="path24"
         style="fill:#00acd7;fill-opacity:1;fill-rule:nonzero;stroke:none"
         d="m 3986.13,855.152 c 73.41,0 125.22,77.727 125.22,144.661 v 12.947 h -23.75 c -71.25,0 -184.6,-9.71 -184.6,-86.358 0,-36.707 26.99,-71.25 83.13,-71.25 m 105.79,251.538 h 17.28 v 4.31 c 0,78.82 -31.31,107.97 -101.49,107.97 -24.82,0 -73.41,-6.48 -73.41,-36.72 v -29.14 h -127.38 v 58.29 c 0,102.56 144.66,113.35 201.88,113.35 183.51,0 237.5,-96.07 237.5,-219.14 V 900.496 c 0,-15.117 8.63,-23.75 23.74,-23.75 h 43.19 V 761.227 h -123.08 c -50.73,0 -70.16,28.066 -70.16,60.461 0,14.042 1.07,23.75 1.07,23.75 h -2.16 c 0,0 -42.1,-97.161 -166.24,-97.161 -98.24,0 -187.84,61.536 -187.84,171.661 0,172.702 237.49,186.752 327.1,186.752" /><path
         id="path26"
         style="fill:#00acd7;fill-opacity:1;fill-rule:nonzero;stroke:none"
         d="m 4398.47,1202.76 h -71.25 v 109.03 h 74.49 v 150.06 h 133.86 V 1311.79 H 4660.8 V 1202.76 H 4535.57 V 980.379 c 0,-90.684 71.25,-103.633 109.04,-103.633 15.11,0 24.82,2.156 24.82,2.156 V 759.07 c 0,0 -17.26,-3.242 -42.1,-3.242 -76.64,0 -228.86,22.676 -228.86,207.274 v 239.658" /><path
         id="path28"
         style="fill:#00acd7;fill-opacity:1;fill-rule:nonzero;stroke:none"
         d="m 4756.82,1387.36 c 0,16.2 -8.64,23.75 -23.76,23.75 h -43.17 v 116.59 h 130.62 c 50.73,0 73.4,-22.66 73.4,-72.32 v -193.24 c 0,-27 -2.15,-46.42 -2.15,-46.42 h 2.15 c 25.92,52.89 93.93,109.03 188.92,109.03 123.08,0 192.16,-63.69 192.16,-209.43 V 900.496 c 0,-15.117 8.64,-23.75 23.75,-23.75 h 43.19 V 761.227 h -130.62 c -50.74,0 -72.34,21.593 -72.34,73.418 v 252.605 c 0,66.94 -18.35,112.27 -87.43,112.27 -72.33,0 -128.48,-47.49 -148.98,-114.43 -6.49,-21.59 -8.65,-45.34 -8.65,-71.25 V 761.227 h -137.09 v 626.133" /><path
         id="path30"
         style="fill:#1c4e78;fill-opacity:1;fill-rule:nonzero;stroke:none"
         d="M 230.676,1060.36 H 0.0078125 V 975.152 H 213.055 V 762.086 h 85.218 v 230.676 c 0,37.278 -30.316,67.598 -67.597,67.598" /><path
         id="path32"
         style="fill:#1c4e78;fill-opacity:1;fill-rule:nonzero;stroke:none"
         d="m 172.789,1298.41 v 17.62 H 0.00390625 v -85.22 H 179.191 c -4.14,21.92 -6.402,44.49 -6.402,67.6" /><path
         id="path34"
         style="fill:#1c4e78;fill-opacity:1;fill-rule:nonzero;stroke:none"
         d="M 468.719,941.277 V 762.086 h 85.219 v 172.793 h -17.622 c -23.097,0 -45.679,2.258 -67.597,6.398" /><path
         id="path36"
         style="fill:#1c4e78;fill-opacity:1;fill-rule:nonzero;stroke:none"
         d="m 340.887,1298.41 c 0,-107.75 87.672,-195.43 195.429,-195.43 h 230.676 v 85.22 H 536.316 c -60.773,0 -110.211,49.45 -110.211,110.21 v 230.67 h -85.218 v -230.67" /><path
         id="path38"
         style="fill:#00acd7;fill-opacity:1;fill-rule:nonzero;stroke:none"
         d="M 0.00390625,1102.98 H 230.031 c -16.851,26.31 -30.449,54.88 -40.105,85.21 H 0.00390625 v -85.21" /><path
         id="path40"
         style="fill:#00acd7;fill-opacity:1;fill-rule:nonzero;stroke:none"
         d="M 340.887,992.117 V 762.086 h 85.218 V 952 c -30.332,9.676 -58.91,23.27 -85.218,40.117" /><path
         id="path42"
         style="fill:#00acd7;fill-opacity:1;fill-rule:nonzero;stroke:none"
         d="m 536.32,1230.81 h 230.668 v 85.21 h -213.05 v 213.06 h -85.219 v -230.67 c 0,-37.28 30.32,-67.6 67.601,-67.6" /><path
         id="path44"
         style="fill:#00acd7;fill-opacity:1;fill-rule:nonzero;stroke:none"
         d="m 536.32,1060.37 c -131.257,0 -238.043,106.78 -238.043,238.04 v 230.67 h -85.226 v -230.67 c 0,-178.25 145.019,-323.258 323.269,-323.258 h 230.668 v 85.208 l -230.668,0.01" /><path
         id="path46"
         style="fill:#00acd7;fill-opacity:1;fill-rule:nonzero;stroke:none"
         d="m 1124.27,375.141 h -108.05 v 51.48 h 275.91 v -51.48 H 1184.09 V 97.3789 h -59.82 V 375.141" /><path
         id="path48"
         style="fill:#00acd7;fill-opacity:1;fill-rule:nonzero;stroke:none"
         d="m 1381.15,141.891 c 38.03,0 70.03,29.691 70.03,73.738 0,43.59 -32,73.73 -70.03,73.73 -38.48,0 -70.48,-30.14 -70.48,-73.73 0,-44.047 32,-73.738 70.48,-73.738 z m -0.46,197.55 c 72.34,0 130.3,-51.472 130.3,-123.812 0,-72.809 -57.96,-123.8204 -129.84,-123.8204 -72.33,0 -130.3,51.0114 -130.3,123.8204 0,72.34 57.97,123.812 129.84,123.812" /><path
         id="path50"
         style="fill:#00acd7;fill-opacity:1;fill-rule:nonzero;stroke:none"
         d="m 1662.15,426.621 h 58.89 v -114.07 c 0,-11.602 -0.93,-19.949 -0.93,-19.949 h 0.93 c 11.59,22.73 40.34,46.839 81.61,46.839 52.4,0 82.08,-27.359 82.08,-89.961 V 97.3789 H 1826.3 V 237.422 c 0,28.75 -7.42,48.226 -37.56,48.226 -31.07,0 -55.18,-20.41 -63.99,-49.16 -2.78,-9.269 -3.71,-19.468 -3.71,-30.597 V 97.3789 h -58.89 V 426.621" /><path
         id="path52"
         style="fill:#00acd7;fill-opacity:1;fill-rule:nonzero;stroke:none"
         d="m 2049.79,141.891 c 38.02,0 70.02,29.691 70.02,73.738 0,43.59 -32,73.73 -70.02,73.73 -38.49,0 -70.49,-30.14 -70.49,-73.73 0,-44.047 32,-73.738 70.49,-73.738 z m -0.47,197.55 c 72.34,0 130.31,-51.472 130.31,-123.812 0,-72.809 -57.97,-123.8204 -129.84,-123.8204 -72.34,0 -130.31,51.0114 -130.31,123.8204 0,72.34 57.97,123.812 129.84,123.812" /><path
         id="path54"
         style="fill:#00acd7;fill-opacity:1;fill-rule:nonzero;stroke:none"
         d="m 2333.1,141.43 c 32.46,0 59.36,26.441 59.36,73.269 0,44.981 -24.11,74.192 -58.89,74.192 -30.61,0 -59.36,-22.25 -59.36,-74.653 0,-36.636 19.94,-72.808 58.89,-72.808 z m -115.93,192.441 h 53.79 v -17.152 c 0,-8.809 -0.92,-16.231 -0.92,-16.231 h 0.92 c 0,0 20.41,38.953 76.05,38.953 64,0 104.8,-50.55 104.8,-123.812 0,-75.129 -45.9,-123.8204 -108.04,-123.8204 -46.84,0 -67.7,32.4614 -67.7,32.4614 h -0.93 c 0,0 0.93,-8.348 0.93,-20.399 V 4.64063 h -58.9 V 333.871" /><path
         id="path56"
         style="fill:#00acd7;fill-opacity:1;fill-rule:nonzero;stroke:none"
         d="m 2641.46,244.84 c -0.93,31.992 -20.87,49.148 -46.84,49.148 -30.14,0 -51.01,-18.539 -56.57,-49.148 z m -45.45,94.601 c 68.17,0 104.8,-49.621 104.8,-112.222 0,-6.957 -1.39,-22.719 -1.39,-22.719 h -163.23 c 3.71,-41.27 35.71,-62.609 70.95,-62.609 38.03,0 68.17,25.98 68.17,25.98 l 22.71,-42.199 c 0,0 -36.16,-33.8634 -95.05,-33.8634 -78.37,0 -127.06,56.5824 -127.06,123.8204 0,72.801 49.62,123.812 120.1,123.812" /><path
         id="path58"
         style="fill:#00acd7;fill-opacity:1;fill-rule:nonzero;stroke:none"
         d="m 2928,137.719 c 31.07,0 53.33,33.39 53.33,62.14 v 5.571 h -10.21 c -30.14,0 -78.83,-4.18 -78.83,-37.098 0,-15.762 11.59,-30.613 35.71,-30.613 z m 44.98,108.051 h 7.89 v 3.242 c 0,31.07 -19.49,41.738 -45.45,41.738 -33.85,0 -64.92,-22.73 -64.92,-22.73 l -22.26,42.199 c 0,0 36.63,29.222 92.74,29.222 62.14,0 98.31,-34.32 98.31,-94.132 V 97.3789 h -54.25 v 19.4731 c 0,9.277 0.92,16.699 0.92,16.699 h -0.92 c 0.46,0 -18.09,-41.7424 -71.88,-41.7424 -42.2,0 -80.22,26.4414 -80.22,73.7304 0,75.133 101.55,80.231 140.04,80.231" /><path
         id="path60"
         style="fill:#00acd7;fill-opacity:1;fill-rule:nonzero;stroke:none"
         d="m 3089.82,333.871 h 56.57 v -27.359 c 0,-8.813 -0.92,-16.223 -0.92,-16.223 h 0.92 c 10.21,19.93 36.18,49.152 83.94,49.152 52.39,0 82.07,-27.359 82.07,-89.961 V 97.3789 h -58.43 V 237.422 c 0,28.75 -7.41,48.226 -37.56,48.226 -31.53,0 -54.71,-19.937 -63.52,-48.226 -3.25,-9.742 -4.18,-20.402 -4.18,-31.531 V 97.3789 h -58.89 V 333.871" /><path
         id="path62"
         style="fill:#00acd7;fill-opacity:1;fill-rule:nonzero;stroke:none"
         d="m 3467.72,141.43 c 30.61,0 59.36,22.261 59.36,74.66 0,36.629 -19.48,72.801 -58.89,72.801 -32.46,0 -59.35,-26.43 -59.35,-73.262 0,-44.981 24.11,-74.199 58.88,-74.199 z m -11.12,198.011 c 51.93,0 68.16,-30.152 68.16,-30.152 h 0.93 c 0,0 -0.46,6.043 -0.46,13.449 v 103.883 h 58.89 V 97.3789 h -55.65 v 19.4731 c 0,8.82 0.93,15.308 0.93,15.308 h -0.93 c 0,0 -19.94,-40.3514 -74.2,-40.3514 -63.98,0 -104.79,50.5504 -104.79,123.8204 0,75.121 44.51,123.812 107.12,123.812" /><path
         id="path64"
         style="fill:#00acd7;fill-opacity:1;fill-rule:nonzero;stroke:none"
         d="m 3752.89,426.621 h 58.88 v -114.07 c 0,-11.602 -0.92,-19.949 -0.92,-19.949 h 0.92 c 11.61,22.73 40.36,46.839 81.63,46.839 52.39,0 82.07,-27.359 82.07,-89.961 V 97.3789 h -58.43 V 237.422 c 0,28.75 -7.41,48.226 -37.56,48.226 -31.06,0 -55.18,-20.41 -63.99,-49.16 -2.79,-9.269 -3.72,-19.468 -3.72,-30.597 V 97.3789 h -58.88 V 426.621" /><path
         id="path66"
         style="fill:#00acd7;fill-opacity:1;fill-rule:nonzero;stroke:none"
         d="m 4176.24,244.84 c -0.93,31.992 -20.86,49.148 -46.84,49.148 -30.14,0 -51,-18.539 -56.57,-49.148 z m -45.44,94.601 c 68.16,0 104.79,-49.621 104.79,-112.222 0,-6.957 -1.38,-22.719 -1.38,-22.719 h -163.24 c 3.71,-41.27 35.72,-62.609 70.96,-62.609 38.02,0 68.16,25.98 68.16,25.98 l 22.72,-42.199 c 0,0 -36.16,-33.8634 -95.06,-33.8634 -78.37,0 -127.06,56.5824 -127.06,123.8204 0,72.801 49.62,123.812 120.11,123.812" /><path
         id="path68"
         style="fill:#00acd7;fill-opacity:1;fill-rule:nonzero;stroke:none"
         d="m 4351.04,137.719 c 31.08,0 53.33,33.39 53.33,62.14 v 5.571 h -10.2 c -30.14,0 -78.83,-4.18 -78.83,-37.098 0,-15.762 11.59,-30.613 35.7,-30.613 z m 44.98,108.051 h 7.89 v 3.242 c 0,31.07 -19.48,41.738 -45.45,41.738 -33.84,0 -64.92,-22.73 -64.92,-22.73 l -22.25,42.199 c 0,0 36.63,29.222 92.74,29.222 62.14,0 98.31,-34.32 98.31,-94.132 V 97.3789 h -54.26 v 19.4731 c 0,9.277 0.93,16.699 0.93,16.699 h -0.93 c 0.46,0 -18.08,-41.7424 -71.87,-41.7424 -42.2,0 -80.23,26.4414 -80.23,73.7304 0,75.133 101.56,80.231 140.04,80.231" /><path
         id="path70"
         style="fill:#00acd7;fill-opacity:1;fill-rule:nonzero;stroke:none"
         d="m 4510.09,426.621 h 58.42 V 179.922 c 0,-25.973 8.81,-32.461 24.11,-32.461 4.64,0 8.81,0.469 8.81,0.469 V 96.4492 c 0,0 -8.81,-1.3789 -18.54,-1.3789 -32.46,0 -72.8,8.3397 -72.8,76.0387 v 255.512" /><path
         id="path72"
         style="fill:#00acd7;fill-opacity:1;fill-rule:nonzero;stroke:none"
         d="m 4633.42,333.871 h 58.89 V 97.3789 h -58.89 z m 0,92.75 h 58.43 v -52.402 h -58.43 v 52.402" /><path
         id="path74"
         style="fill:#00acd7;fill-opacity:1;fill-rule:nonzero;stroke:none"
         d="m 4744.25,333.871 h 56.57 v -27.359 c 0,-8.813 -0.93,-16.223 -0.93,-16.223 h 0.93 c 10.2,19.93 36.17,49.152 83.93,49.152 52.4,0 82.07,-27.359 82.07,-89.961 V 97.3789 H 4908.4 V 237.422 c 0,28.75 -7.42,48.226 -37.56,48.226 -31.54,0 -54.72,-19.937 -63.53,-48.226 -3.25,-9.742 -4.18,-20.402 -4.18,-31.531 V 97.3789 h -58.88 V 333.871" /><path
         id="path76"
         style="fill:#00acd7;fill-opacity:1;fill-rule:nonzero;stroke:none"
         d="m 5176.87,221.191 c 0,53.797 -26.43,68.168 -58.43,68.168 -35.71,0 -55.65,-25.968 -55.65,-65.847 0,-41.274 21.34,-71.871 59.36,-71.871 28.29,0 54.72,16.23 54.72,69.55 z M 5108.7,50.082 c 36.17,0 66.78,15.3086 66.78,57.5 v 13.906 c 0,5.571 0.92,12.524 0.92,12.524 h -0.92 c -13.91,-20.871 -34.32,-31.992 -65.85,-31.992 -67.7,0 -106.2,54.718 -106.2,119.64 0,64.922 36.65,117.781 104.81,117.781 51.47,0 70.02,-30.152 70.02,-30.152 h 1.4 c 0,0 -0.47,2.793 -0.47,6.5 v 18.082 h 55.18 V 111.75 C 5234.37,30.6016 5171.31,0 5109.63,0 c -29.68,0 -61.21,8.35156 -83.93,20.4102 l 17.62,44.9804 c 0,0 29.68,-15.3086 65.38,-15.3086" /><path
         id="path78"
         style="fill:#00acd7;fill-opacity:1;fill-rule:nonzero;stroke:none"
         d="m 5287.67,156.281 h 58.9 V 97.3789 h -58.9 v 58.9021" /><path
         id="path80"
         style="fill:#00acd7;fill-opacity:1;fill-rule:nonzero;stroke:none"
         d="m 1124.27,375.141 h -108.05 v 51.48 h 275.91 v -51.48 H 1184.09 V 97.3789 h -59.82 V 375.141" /><path
         id="path82"
         style="fill:#00acd7;fill-opacity:1;fill-rule:nonzero;stroke:none"
         d="m 5288.61,1462.52 c 6.92,0 11.47,4.51 11.47,12.03 0,7.32 -4.55,11.46 -11.47,11.46 h -11.3 v -23.49 z m -24.64,23.49 h -6.37 v 10.15 h 33.63 c 13.36,0 22.38,-8.45 22.38,-21.61 0,-10.91 -7.15,-17.3 -12.96,-18.8 v -0.38 c 0,0 2.26,-0.55 3.94,-3.76 l 7.34,-14.09 c 1.28,-2.26 2.99,-2.46 4.51,-2.46 h 2.06 v -9.77 h -7.15 c -5.26,0 -7.69,0.57 -10.17,5.26 l -9.76,18.6 c -1.68,3.21 -3.56,3.59 -6.39,3.59 h -7.72 v -27.45 h -13.34 z m 22.94,-81.41 c 30.27,0 53.61,24.45 53.61,55.86 0,31.39 -23.34,55.84 -53.61,55.84 -29.91,0 -53.03,-24.45 -53.03,-55.84 0,-31.41 23.12,-55.86 53.03,-55.86 m 0,124.48 c 37.4,0 67.32,-30.46 67.32,-68.62 0,-38.18 -29.92,-68.65 -67.32,-68.65 -37.03,0 -66.75,30.47 -66.75,68.65 0,38.16 29.72,68.62 66.75,68.62" /></g></g></svg>