<svg xmlns="http://www.w3.org/2000/svg" width="228.761" height="42.89">
  <g fill="#538d9c">
    <path d="M89.273 12.883h-2.371l-.509 2.487h2.371zm24.945 6.21a3.2 3.2 0 00-1.113-.647 4.239 4.239 0 00-1.4-.226 5.386 5.386 0 00-1.28.161 5.647 5.647 0 00-1.3.5 6.511 6.511 0 00-1.258.879 7.109 7.109 0 00-1.135 1.3h-.058a3.329 3.329 0 00-.35-1.222 2.845 2.845 0 00-.719-.887 3.034 3.034 0 00-1.019-.546 4.165 4.165 0 00-1.257-.182 5.434 5.434 0 00-2.458.582 6.29 6.29 0 00-2.051 1.659h-.058v-1.881h-1.846L94.028 32.4h2.255l1.586-7.621a6.5 6.5 0 011.767-3.3 4.922 4.922 0 011.4-.982 3.74 3.74 0 011.585-.357 1.949 1.949 0 011.317.444 1.912 1.912 0 01.531 1.49c0 .145-.013.344-.036.6a9.465 9.465 0 01-.153.945l-1.818 8.784h2.254l1.585-7.621a6.594 6.594 0 01.661-1.833 6.142 6.142 0 011.1-1.47 5.022 5.022 0 011.411-.981 3.737 3.737 0 011.585-.357 1.821 1.821 0 011.338.465 1.929 1.929 0 01.509 1.47c0 .144-.013.344-.036.6a9.446 9.446 0 01-.153.945l-1.818 8.784h2.254l1.731-8.319q.144-.669.239-1.309a8.238 8.238 0 00.094-1.207 3.575 3.575 0 00-.268-1.426 2.989 2.989 0 00-.735-1.046zm1.921 13.308h2.255l2.864-13.818h-2.254zm-24.975-1.912a.649.649 0 01-.2-.531 5.435 5.435 0 01.131-.946l3.694-17.671h-2.261l-3.825 18.267a5.292 5.292 0 00-.116 1.017 1.794 1.794 0 00.618 1.513 2.966 2.966 0 001.84.48c.262 0 .516-.013.763-.036a4.371 4.371 0 00.6-.095l.393-1.92a5.356 5.356 0 01-.96.088 1.09 1.09 0 01-.684-.168zm-8.292-17.548L77.328 23.69q-.872 1.745-1.426 3t-1 2.4h-.058q-.044-2.312-.16-5.12l-.523-11.025h-2.487l-4.446 10.817q-1.489 3.593-2.07 5.321H65.1q-.044-1.135-.582-5.469l-1.367-10.673H60.78l2.763 19.46h2.225l4.654-11.038q1.048-2.575 1.921-4.93h.072q0 .116-.014 1.5 0 1.34.1 4.043l.48 10.428h2.227l10.283-19.46zm39.623-.058h-2.367l-.509 2.487h2.371zM82.917 32.4h2.255l2.865-13.817h-2.254zm100.966-13.307a3.373 3.373 0 00-1.178-.647 4.875 4.875 0 00-1.52-.226 5.979 5.979 0 00-2.7.6 6.509 6.509 0 00-2.088 1.644h-.058v-1.881h-1.846l-2.88 13.817h2.255l1.585-7.621a6.73 6.73 0 01.654-1.833 5.78 5.78 0 011.105-1.47 4.912 4.912 0 011.5-.981 4.622 4.622 0 011.818-.357 3.048 3.048 0 01.837.109 1.809 1.809 0 01.662.335 1.483 1.483 0 01.429.6 2.341 2.341 0 01.153.894 8.505 8.505 0 01-.232 1.745l-1.775 8.58h2.254l1.73-8.319q.145-.669.241-1.309a8.341 8.341 0 00.094-1.207 3.486 3.486 0 00-.276-1.426 2.927 2.927 0 00-.764-1.046zm29.664-.786l-3.476 6.385q-.99 1.848-1.8 3.535h-.087q-.277-1.7-.7-3.738l-1.294-6.181h-3.505l3.112 13.846q-.626 1.149-1.193 2a8.149 8.149 0 01-1.17 1.418 4.31 4.31 0 01-1.281.85 3.856 3.856 0 01-1.505.283 6.253 6.253 0 01-1.12-.1l-.582 2.733a7.342 7.342 0 001.833.189 7.006 7.006 0 002.7-.494 7.731 7.731 0 002.182-1.374 11.472 11.472 0 001.825-2.1q.835-1.221 1.666-2.675l8.276-14.577zm14.866 1.92a3.509 3.509 0 00-.982-1.215 4.625 4.625 0 00-1.535-.778 6.871 6.871 0 00-2.022-.276 7.44 7.44 0 00-2.37.364 7.291 7.291 0 00-1.971 1 7.436 7.436 0 00-1.549 1.5 9.166 9.166 0 00-1.12 1.877 10.485 10.485 0 00-.684 2.116 10.784 10.784 0 00-.232 2.225 7.017 7.017 0 00.364 2.312 4.787 4.787 0 001.112 1.811 5.049 5.049 0 001.9 1.185 7.859 7.859 0 002.7.421 12.912 12.912 0 002.465-.225 11.321 11.321 0 002.058-.589l.626-3.025a9.394 9.394 0 01-2.182.742 11.031 11.031 0 01-2.385.276 5.2 5.2 0 01-1.367-.167 2.683 2.683 0 01-1.039-.531 2.315 2.315 0 01-.654-.938 3.666 3.666 0 01-.226-1.346v-.087c.253.009.46.015.626.015a18.348 18.348 0 003.781-.349 9.165 9.165 0 002.763-1.011 4.773 4.773 0 001.694-1.6 3.967 3.967 0 00.575-2.117 3.551 3.551 0 00-.349-1.585zm-3.385 2.466a2.343 2.343 0 01-.916.763 6.261 6.261 0 01-1.688.538 13.875 13.875 0 01-2.588.2 5.787 5.787 0 01.669-1.52 5.084 5.084 0 01.952-1.12 3.855 3.855 0 011.135-.691 3.286 3.286 0 011.185-.232 1.644 1.644 0 011.149.349 1.093 1.093 0 01.377.829 1.6 1.6 0 01-.276.881zm-24.582 6.726h-9.177l1.149-5.483h7.41l.61-2.982h-7.41l1.048-5.032h8.639l.626-2.982h-12.2l-4.028 19.46h12.715l.61-2.981zm-47.183-1.164l1.614-7.737h3.666l.385-1.935h-3.651l.785-3.781h-2.264l-.786 3.781h-2.677l-.407 1.934h2.676l-1.716 8.29a6.388 6.388 0 00-.145 1.207 2.532 2.532 0 00.843 2.015 4.023 4.023 0 002.677.734 9.9 9.9 0 001.308-.087 7.207 7.207 0 001-.188l.393-1.965a9.435 9.435 0 01-1.069.2 8.041 8.041 0 01-1.04.08 2.339 2.339 0 01-1.36-.3 1.235 1.235 0 01-.4-1.054 3.45 3.45 0 01.044-.538q.044-.277.116-.654zm-18.746-5.482a8.332 8.332 0 00.094-1.207 3.5 3.5 0 00-.276-1.426 2.939 2.939 0 00-.764-1.047 3.374 3.374 0 00-1.178-.647 4.872 4.872 0 00-1.52-.226 5.978 5.978 0 00-2.7.6 6.507 6.507 0 00-2.088 1.644h-.057v-1.881h-1.846l-2.88 13.817h2.254l1.585-7.621a6.728 6.728 0 01.654-1.833 5.776 5.776 0 011.105-1.47 4.922 4.922 0 011.5-.981 4.622 4.622 0 011.818-.357 3.049 3.049 0 01.837.109 1.809 1.809 0 01.662.335 1.485 1.485 0 01.429.6 2.342 2.342 0 01.153.894 8.506 8.506 0 01-.232 1.745l-1.775 8.58h2.254l1.73-8.319q.145-.669.241-1.309zm11.993-2.79h-.058a3.159 3.159 0 00-1.324-1.3 4.132 4.132 0 00-1.978-.465 5.223 5.223 0 00-2.073.407 6.2 6.2 0 00-1.738 1.12 8.039 8.039 0 00-1.389 1.665 10.8 10.8 0 00-1.011 2.059 13.6 13.6 0 00-.829 4.654 6.493 6.493 0 00.262 1.9 4.367 4.367 0 00.749 1.47 3.253 3.253 0 001.2.938 3.862 3.862 0 001.629.327 5.108 5.108 0 001.091-.124 4.506 4.506 0 001.135-.421 5.778 5.778 0 001.127-.794 6.467 6.467 0 001.055-1.221h.058l-.408 1.919a13.2 13.2 0 01-.749 2.436 5.338 5.338 0 01-1.12 1.694 4.141 4.141 0 01-1.666.989 7.534 7.534 0 01-2.312.32 8.883 8.883 0 01-1.9-.212 11.178 11.178 0 01-1.8-.545l-.393 1.978a13.482 13.482 0 001.97.538 11.553 11.553 0 002.219.2 10.3 10.3 0 002.756-.348 6.465 6.465 0 002.247-1.114 6.648 6.648 0 001.68-1.949 9.511 9.511 0 001.04-2.872l3.025-14.66h-1.827zm-1.164 5.353a9 9 0 01-.785 2.334 7.634 7.634 0 01-1.178 1.73 4.909 4.909 0 01-1.4 1.076 3.24 3.24 0 01-1.454.371 2.391 2.391 0 01-.8-.138 1.681 1.681 0 01-.7-.48 2.471 2.471 0 01-.488-.938 5.3 5.3 0 01-.182-1.512 9.781 9.781 0 01.131-1.512 12.2 12.2 0 01.393-1.68 10.818 10.818 0 01.662-1.651 6.547 6.547 0 01.946-1.417 4.532 4.532 0 011.244-1 3.189 3.189 0 011.541-.378 3.145 3.145 0 01.967.138 3.29 3.29 0 01.778.364 3.327 3.327 0 01.61.5 5.3 5.3 0 01.451.537zm24.35-5.752a4.209 4.209 0 00-1.564-1.018 5.728 5.728 0 00-2.029-.342 6.328 6.328 0 00-2.4.436 6.577 6.577 0 00-1.905 1.171 7.889 7.889 0 00-1.433 1.688 10.917 10.917 0 00-1 1.993 11.726 11.726 0 00-.756 4.05 6.4 6.4 0 00.355 2.218 4.662 4.662 0 001 1.636 4.1 4.1 0 001.556 1.011 5.745 5.745 0 002.022.342 6.52 6.52 0 002.406-.421 6.8 6.8 0 001.905-1.127 7.383 7.383 0 001.441-1.636 10.682 10.682 0 001-1.941 11.283 11.283 0 00.582-2.044 10.782 10.782 0 00.189-1.934 7.219 7.219 0 00-.357-2.385 4.562 4.562 0 00-1.01-1.694zm-1.034 5.599a9.871 9.871 0 01-.434 1.677 8.682 8.682 0 01-.72 1.534 5.994 5.994 0 01-1 1.266 4.484 4.484 0 01-1.272.865 3.661 3.661 0 01-1.534.32 3.08 3.08 0 01-1.265-.239 2.306 2.306 0 01-.887-.684 2.925 2.925 0 01-.516-1.069 5.33 5.33 0 01-.168-1.382 10.143 10.143 0 01.582-3.331 8.923 8.923 0 01.72-1.542 5.926 5.926 0 011-1.272 4.551 4.551 0 011.266-.865 3.662 3.662 0 011.542-.32 3.1 3.1 0 011.266.24 2.3 2.3 0 01.887.684 2.94 2.94 0 01.517 1.061 5.349 5.349 0 01.166 1.389 10.011 10.011 0 01-.145 1.672zM53.454 19.75a17.241 17.241 0 00-.813-2.575q-.158-.419-.354-.823l-.04-.087a9.653 9.653 0 00-.333-.668l-.278-.515a.6.6 0 00-.737-.269.568.568 0 00-.349.685l.163.578c.054.176.117.389.173.642.021.093.045.189.071.291.048.193.1.391.139.618l.111.534.094.6c.03.173.057.371.085.621.009.085.02.17.031.257.018.137.035.276.046.44a19.621 19.621 0 01.025 3.161 19.38 19.38 0 01-2.04 7.406l-.247.471c-.045.082-.092.163-.14.245s-.087.149-.129.224c-.116.212-.248.418-.389.636-.057.087-.112.174-.155.244a19.08 19.08 0 01-1.3 1.712 16.889 16.889 0 01-3.16 2.879 16.155 16.155 0 01-1.828 1.114l-.245.127-1.333.59-.807.252c-.064.019-.127.04-.19.06a1.353 1.353 0 01-.226.065l-.037.007-1 .216-.188.024a11.783 11.783 0 01-1.762.136 11.928 11.928 0 01-3.707-.527l-.424-.118-.4-.155q-.166-.066-.333-.129c-.17-.065-.328-.126-.478-.193s-.286-.144-.427-.214a8.379 8.379 0 01-1.052-.578 8.554 8.554 0 00-.27-.167q-.2-.121-.4-.254l-.626-.475-.026-.019a6.054 6.054 0 01-.737-.619q-.161-.15-.325-.3l-.188-.171-.251-.271c-.151-.17-.3-.331-.458-.5a5.35 5.35 0 01-.512-.619q-.075-.1-.153-.2l-.242-.322-.963-1.472a.6.6 0 00-.756-.215.565.565 0 00-.3.707l.2.564c.028.071.057.149.088.234a8.954 8.954 0 00.6 1.357c.038.071.075.146.113.222a7.128 7.128 0 00.5.875c.117.185.241.376.372.57l.2.3.031.045.242.3c.09.107.18.22.272.335a8.282 8.282 0 00.815.917l.619.615.021.019c.158.143.323.274.484.4.079.063.16.127.225.182a9.848 9.848 0 001.235.88l.44.283c.212.129.427.237.636.34.1.05.2.1.31.157l.469.235.05.023.48.187a13.272 13.272 0 003.639.922c.3.035.611.06.894.073a13.416 13.416 0 002.33-.062l.147-.013a.392.392 0 00.05-.006l1.176-.2a3.2 3.2 0 00.509-.121c.059-.017.117-.035.192-.054l1.081-.32a.479.479 0 00.051-.019l1.407-.577.036-.016.408-.21a18.89 18.89 0 008.649-9.2 19.676 19.676 0 001.39-4.551 19.2 19.2 0 00.288-4.241 18.43 18.43 0 00-.487-3.524z"/>
    <path d="M30.636 28.377c0-.023.006-.045.009-.056l.019-.073a.985.985 0 01.046-.152l.016-.045a.435.435 0 01.017-.048l.055-.119a.7.7 0 01.055-.1l.075-.119.063-.09a.71.71 0 01.06-.075l.239-.25a.249.249 0 00-.309-.386l-.106.068a1.4 1.4 0 00-.195.141l-.026.021a1.256 1.256 0 00-.124.111c-.025.023-.05.05-.09.09l-.113.133a1.432 1.432 0 00-.124.171l-.069.108c-.016.028-.03.058-.046.088l-.016.033a1.515 1.515 0 00-.1.226l-.028.075a1.12 1.12 0 00-.033.116l-.048.216a2.081 2.081 0 000 .729 2.038 2.038 0 00.092.359c0 .006.01.031.013.038l.065.155a.752.752 0 00.046.092l.014.025.082.143c0 .007.021.031.025.038l.12.167c0 .005.021.026.025.031l.028.031a2.819 2.819 0 00.961.739 3.034 3.034 0 00.757.247 3.164 3.164 0 00.747.053h.077a3.092 3.092 0 00.585-.1c.021-.005.041-.013.062-.019a3.041 3.041 0 00.355-.087 3.4 3.4 0 001.268-.734l.138-.127.019-.019.121-.134a2.92 2.92 0 00.28-.361l.229-.364.016-.03.165-.354a4.909 4.909 0 00.384-1.846 4.993 4.993 0 00-.454-2.09 3.15 3.15 0 00-.205-.4l-.074-.129a.31.31 0 00-.018-.029q-.046-.064-.09-.129a3.224 3.224 0 00-.271-.361l-.208-.24c-.057-.058-.116-.113-.175-.17l-.18-.168q-.056-.047-.114-.09l-.036-.028q-.152-.116-.309-.225l-.27-.172a.549.549 0 00-.151-.082l-.178-.084a4.191 4.191 0 00-.57-.236l-.312-.1-.03-.008-.317-.072a3.95 3.95 0 00-.587-.094l-.138-.015a5.767 5.767 0 00-2.917.566 6.131 6.131 0 00-2.291 1.986l-.321.519a1.135 1.135 0 00-.058.108l-.151.291-.16.386a7.763 7.763 0 00.694 7.091c.021.031.042.064.063.1.05.078.1.156.159.23l.228.289a4.848 4.848 0 00.442.5l.228.235.019.018.436.373a3.383 3.383 0 00.337.253l.033.022c.124.084.249.168.377.249l.025.016c.031.02.065.041.08.048l.467.248.021.011.107.052.013.005.676.273c.152.052.3.1.438.142.036.014.069.03.107.044l.162.069a4.621 4.621 0 00.676.251c.155.048.317.1.483.141l.251.071.038.009.272.047c.1.014.2.033.306.051a5.472 5.472 0 00.876.107c.163.011.329.018.5.025l.161.007c.151 0 .3-.011.458-.021.073-.005.149-.011.212-.013s.127 0 .19-.009a8.294 8.294 0 00.916-.134c.119-.023.237-.045.372-.068.178-.036.349-.089.515-.141.078-.025.158-.049.244-.073l.373-.113.053-.03.34-.14a10.229 10.229 0 002.984-1.843 10.677 10.677 0 001.269-1.293l.065-.075a.162.162 0 00.018-.022l.578-.774c.138-.2.263-.411.382-.619.052-.091.106-.182.162-.276l.193-.336.009-.027.481-1.039a.735.735 0 00.028-.073l.01-.03.427-1.25a3.378 3.378 0 00.122-.426l.137-.577a12.191 12.191 0 00.282-1.62c.017-.133.033-.268.051-.4a5.918 5.918 0 00.046-.724c0-.1 0-.206.009-.32 0-.084 0-.17.008-.253a5.9 5.9 0 00-.008-.769l-.061-.987c-.016-.232-.055-.455-.091-.67-.018-.107-.036-.214-.05-.313a11.924 11.924 0 00-.349-1.607l-.075-.285a4.01 4.01 0 00-.153-.484l-.155-.433c-.033-.086-.063-.173-.094-.259a5.155 5.155 0 00-.244-.607l-.381-.8-.061-.127a3.039 3.039 0 00-.144-.281l-.651-1.071q-.167-.251-.353-.49l-.13-.173q-.08-.1-.157-.207a7.439 7.439 0 00-.328-.418l-.5-.539a8.551 8.551 0 01-.164-.173c-.1-.113-.214-.23-.339-.344l-.967-.829-.028-.021-1.13-.778-.036-.022-.982-.509a3.475 3.475 0 00-.59-.257l-.971-.345a.364.364 0 00-.339.636l.752.561.163.121a3.334 3.334 0 01.364.29l.631.555 1.051 1.06.735.913c.073.091.142.195.215.306l.133.2.365.531c.072.117.14.241.209.364l.12.215c.048.09.1.178.151.267.065.111.13.224.184.333l.312.681a7.54 7.54 0 01.367.908c.057.156.113.314.176.477a2.567 2.567 0 01.1.333l.215.768a2.506 2.506 0 01.084.347c.028.165.06.329.092.494a8.62 8.62 0 01.165 1.087c.009.1.021.21.034.314a4.716 4.716 0 01.042.489l.024.854a3.978 3.978 0 01-.014.553 6.864 6.864 0 00-.014.238l-.03.5a2.274 2.274 0 01-.028.305c-.021.14-.041.281-.06.422a8.706 8.706 0 01-.225 1.206c-.028.107-.05.215-.074.324a4.02 4.02 0 01-.119.471l-.328 1-.4.949-.162.31c-.028.047-.052.094-.078.142a4.792 4.792 0 00.118-.521l.112-.579c.02-.132.031-.264.042-.4l.018-.188a10.529 10.529 0 00-.484-4.249 9.948 9.948 0 00-1.718-3.137l-.246-.3a4.04 4.04 0 00-.18-.189l-.092-.094-.147-.149a4.792 4.792 0 00-.371-.354l-.626-.511-.092-.062-.433-.281q-.146-.1-.3-.187l-.018-.01-.766-.38-.022-.009q-.1-.041-.207-.077l-.658-.234a.305.305 0 00-.286.532l.55.416c.048.036.1.073.153.115l.564.521c.065.066.13.139.2.214l.126.139a6.563 6.563 0 01.545.671l.117.157c.062.083.12.18.182.282.044.075.09.151.132.214l.065.1c.033.052.066.1.09.15l.15.3a8.847 8.847 0 01.86 2.726 8.955 8.955 0 01-.116 3.258l-.038.17c-.019.084-.038.17-.058.245l-.141.446a4.1 4.1 0 01-.213.569 3.7 3.7 0 00-.1.244l-.044.107v.006l-.32.609-.019.027-.025.035q-.115.165-.224.332c-.044.058-.094.117-.143.178s-.085.1-.116.144a5.717 5.717 0 01-1.269 1.105l-.377.212-.379.165a5.08 5.08 0 01-.809.241 4.551 4.551 0 01-1.654.019 4.355 4.355 0 01-.792-.212l-.308-.128-.449-.237a1.765 1.765 0 00-.153-.112l-.047-.031a.439.439 0 01-.075-.057l-.232-.192-.059-.061q-.047-.05-.1-.1a1.577 1.577 0 01-.178-.2l-.139-.17a.9.9 0 01-.052-.077q-.023-.037-.048-.073a4.578 4.578 0 01-.649-1.5 4.289 4.289 0 01-.108-.817 4.367 4.367 0 01.031-.814 4.206 4.206 0 01.18-.8l.041-.139.124-.292.014-.038.04-.073c.025-.046.048-.094.071-.143a2.978 2.978 0 01.915-.965 2.589 2.589 0 011.166-.389h.161a1.072 1.072 0 01.18 0h.025l.16.011.157.033h.022a1.268 1.268 0 01.212.055l.173.053.226.1a1.322 1.322 0 00.155.082l.182.123.129.109a1.05 1.05 0 01.113.109l.085.086c.028.028.057.072.087.107a1.048 1.048 0 01.092.117l.011.018a2.923 2.923 0 01.482 1.125 3.1 3.1 0 01.009 1.141l-.053.259-.112.311a1.127 1.127 0 01-.075.161l-.056.107-.065.1a2.1 2.1 0 01-.614.6 2.157 2.157 0 01-.98.317 1.878 1.878 0 01-.274 0 2.934 2.934 0 01-.389-.06l-.146-.033a.145.145 0 00-.031 0 2.373 2.373 0 01-.339-.245 2.121 2.121 0 01-.209-.21l-.033-.037v-.005l-.165-.239-.1-.2a1.663 1.663 0 01-.111-.725z"/>
    <path d="M1.134 18.223l.5-.713c.153-.227.341-.5.578-.8q.127-.163.262-.343c.176-.234.36-.476.58-.737l.448-.548.656-.735c.173-.2.376-.415.637-.682.087-.088.173-.178.261-.27.144-.153.293-.31.464-.468a30.433 30.433 0 0114.086-7.76l.775-.173c.14-.03.281-.055.422-.079.121-.021.241-.043.369-.068.359-.075.724-.124 1.109-.177l.434-.061a29.841 29.841 0 013.207-.2 26.172 26.172 0 016.35.736 24.369 24.369 0 013.027.944l.377.144 1.966.9 1.068.646c.077.05.157.1.237.142a2.242 2.242 0 01.323.209l.031.025 1.2.882.209.185a17.893 17.893 0 014.786 6.35l.22.474.252.692c.053.161.11.319.166.477.088.248.171.482.237.714s.107.443.161.663a11.57 11.57 0 01.338 1.7q.03.221.064.44c.037.242.072.47.093.694l.051 1.124v.036a8.7 8.7 0 01-.006 1.413c-.014.217-.026.431-.031.626l-.023.465-.069.444c-.051.319-.094.628-.137.951a7.7 7.7 0 01-.227 1.159 22.25 22.25 0 00-.087.355l-.22.911-.691 2.083a.624.624 0 001.127.515l.447-.745c.055-.1.117-.2.185-.315a12.749 12.749 0 00.97-1.9c.047-.108.1-.219.148-.333a9.8 9.8 0 00.519-1.334c.1-.3.2-.612.3-.935l.154-.5q.009-.029.016-.06l.111-.534c.036-.2.08-.406.125-.615a11.258 11.258 0 00.273-1.713l.114-1.244a.211.211 0 000-.031c.013-.3.008-.6 0-.887q0-.21-.006-.421a13.543 13.543 0 00-.163-2.128c-.03-.235-.062-.472-.092-.736-.05-.34-.133-.669-.211-.989q-.06-.24-.115-.482l-.175-.725q-.007-.029-.017-.058l-.241-.7a18.424 18.424 0 00-3.126-5.774 18.721 18.721 0 00-2.252-2.433l-.151-.144a.522.522 0 00-.04-.035l-1.358-1.1a4.432 4.432 0 00-.58-.407q-.123-.075-.244-.155l-1.385-.87-.05-.028-1.719-.854-.267-.126-.038-.016-.629-.248A27.949 27.949 0 0033.629.789a38.665 38.665 0 00-7.557-.766 32.388 32.388 0 00-7.373 1.176 30.094 30.094 0 00-6.459 2.728 29.022 29.022 0 00-5.077 3.627 27.339 27.339 0 00-3.535 3.791 24.914 24.914 0 00-2.155 3.262c-.247.415-.435.8-.6 1.142l-.06.124c-.188.37-.323.686-.443.972l-.324.781a.624.624 0 001.087.6z"/>
    <path d="M23.168 14.551c.132-.044.259-.092.388-.141a5.6 5.6 0 01.548-.188l1.007-.274.216-.039a13.2 13.2 0 011.8-.245 13.39 13.39 0 013.91.258l.458.086.437.126c.117.036.234.068.352.1.182.05.361.1.519.154s.314.119.469.178a9.2 9.2 0 011.163.494c.1.048.2.094.294.14.157.075.313.148.448.22l.176.107c.181.109.358.216.549.324a6.874 6.874 0 01.857.563c.126.092.249.182.366.263l.276.2.243.214c.172.153.342.3.519.445a5.821 5.821 0 01.624.587l.181.185.357.366 1.119 1.309a.382.382 0 00.494.077.387.387 0 00.151-.48l-.237-.557-.107-.239a8.343 8.343 0 00-.683-1.317l-.131-.22a7.054 7.054 0 00-.553-.838q-.21-.288-.431-.568l-.229-.3a.264.264 0 00-.023-.028l-.268-.288q-.157-.162-.31-.329a8.534 8.534 0 00-.9-.875c-.173-.155-.354-.307-.538-.463l-.176-.149c-.172-.133-.354-.258-.529-.38l-.257-.18a10.532 10.532 0 00-1.347-.823 39.187 39.187 0 01-.474-.261c-.225-.118-.458-.215-.685-.31q-.17-.069-.338-.143l-.515-.218-.031-.011-.531-.171a14.347 14.347 0 00-3.178-.694 16.252 16.252 0 00-1.656-.09 14.732 14.732 0 00-2.462.178l-.139.018h-.03l-1.281.269a10.5 10.5 0 00-.93.286c-.134.045-.266.09-.405.135l-.492.168-.029.013-1.387.62-.061.031-.023.014-.038.022-1.5.886a3.982 3.982 0 00-.471.314l-.63.466a14.272 14.272 0 00-1.63 1.387c-.127.119-.254.239-.38.354a6.923 6.923 0 00-.635.689l-.27.314c-.07.084-.141.166-.212.249a6.888 6.888 0 00-.614.783l-.73 1.054a7.937 7.937 0 00-.438.755c-.067.124-.132.248-.2.364a13.825 13.825 0 00-.9 1.934l-.144.354a4.565 4.565 0 00-.215.619l-.183.595c-.033.117-.069.232-.1.347a6.146 6.146 0 00-.212.825l-.214 1.145c-.01.062-.022.123-.034.184a3.72 3.72 0 00-.063.405l-.129 1.664c-.013.276 0 .546 0 .808 0 .093.006.186.008.286 0 .117.008.232.011.349.006.225.012.457.031.706l.13.986.045.323c.028.207.055.42.1.639l.427 1.7.011.035.654 1.792c0 .013.011.026.016.038l.706 1.394a5.053 5.053 0 00.448.762l.823 1.212a.38.38 0 00.276.163.385.385 0 00.422-.344.389.389 0 00-.038-.214l-.383-1.184c-.025-.084-.055-.171-.085-.261a4.687 4.687 0 01-.169-.634l-.336-1.419-.268-1.725-.096-1.582q-.009-.254.005-.509c0-.107.008-.214.009-.317l.017-.866c.012-.184.035-.369.058-.555.014-.113.028-.226.038-.328.019-.133.032-.266.045-.4.018-.18.035-.35.063-.509l.2-.964a9.188 9.188 0 01.32-1.254c.064-.207.127-.417.187-.637a3.022 3.022 0 01.156-.431l.38-.969a3.136 3.136 0 01.188-.431c.1-.19.2-.384.294-.578a10.156 10.156 0 01.7-1.253c.074-.112.144-.229.214-.344a5.407 5.407 0 01.355-.54l.664-.882a4.538 4.538 0 01.468-.554c.07-.076.142-.152.207-.226l.439-.479a2.51 2.51 0 01.285-.291c.138-.122.274-.247.409-.371a10.251 10.251 0 011.237-1.025 10.8 10.8 0 00.346-.261 4.9 4.9 0 01.522-.374l1.181-.717 1.344-.664z"/>
    <path d="M11.244 14.584a31.8 31.8 0 013.545-2.777 30.5 30.5 0 013.7-2.056 25.66 25.66 0 013.582-1.33q.16-.045.317-.093c.176-.053.347-.1.517-.144l.848-.191a9.418 9.418 0 011-.192c.177-.028.35-.054.528-.088a7.362 7.362 0 01.837-.107c.179-.016.352-.031.521-.055a9.42 9.42 0 011.054-.07l.657-.023c.088 0 .173-.009.255-.009h.118l1.338.033h.013a.441.441 0 00.09-.872l-.769-.232a10.584 10.584 0 00-1.49-.355l-.07-.013a10.915 10.915 0 00-1.2-.183l-.695-.072a7.282 7.282 0 00-.806-.045c-.112 0-.225 0-.34-.008q-.3-.008-.607-.009c-.289 0-.534.009-.76.028l-.914.057c-.215.017-.431.047-.641.076-.107.016-.215.031-.325.044a23.031 23.031 0 00-4.184.98 26.907 26.907 0 00-4.4 1.959l-.345.206a20.992 20.992 0 00-1.8 1.16c-.111.08-.223.159-.336.237a9.286 9.286 0 00-.714.531l-1.013.826a28.282 28.282 0 00-3.669 3.886 26.68 26.68 0 00-2.773 4.6l-.648 1.526-.3.9a17.964 17.964 0 00-.57 2l-.122.5c-.054.278-.1.556-.146.832l-.166.988c0 .011 0 .022-.005.034L.212 28.86q-.015.5-.011 1v.16a22.265 22.265 0 00.431 4.283 23.033 23.033 0 00.975 3.445l.263.727c.075.185.156.36.236.531l.576 1.246c.124.268.257.5.377.7l.116.2.675 1.156a.439.439 0 00.379.216.422.422 0 00.169-.034.44.44 0 00.257-.518l-.593-2.2-.394-1.813-.113-.735a27.541 27.541 0 01-.361-3.248 24.924 24.924 0 01.1-3.807c.019-.163.035-.327.051-.492s.036-.357.057-.516l.271-1.537.129-.525q.051-.2.1-.406c.053-.217.106-.436.161-.641a26.76 26.76 0 011.619-4.151 27.011 27.011 0 012.447-3.9 29.59 29.59 0 013.111-3.418zm12.138 15.84a.327.327 0 00.273-.314s.01-.35.011-.917l.031-.478q.011-.128.013-.256l.036-.3a10.818 10.818 0 01.222-1.249 8.865 8.865 0 01.47-1.39l.137-.306.219-.412a4.537 4.537 0 01.275-.455c.052-.079.1-.157.138-.216a7.849 7.849 0 012.5-2.289 8.283 8.283 0 011.583-.689 7.174 7.174 0 011.636-.3 6.216 6.216 0 011.539.079l.255.048.48.127a2.325 2.325 0 01.375.129c.085.035.17.069.255.1.2.094.392.19.553.271l.205.124c.107.063.212.126.3.187l.144.109c.1.076.2.149.293.217l.347.3a3.373 3.373 0 01.327.318c.053.058.1.108.137.142l.173.174a.326.326 0 00.232.1.332.332 0 00.33-.327.323.323 0 00-.053-.18l-.27-.619a.317.317 0 00-.019-.035l-.184-.305c-.061-.1-.126-.21-.21-.34-.082-.113-.175-.228-.273-.35l-.115-.142q-.157-.179-.327-.345l-.182-.183q-.311-.273-.646-.518a6.714 6.714 0 00-1.658-.823 6.968 6.968 0 00-2.052-.359 7.788 7.788 0 00-2.205.248 9.058 9.058 0 00-2.122.862 9.188 9.188 0 00-1.8 1.39 8.675 8.675 0 00-1.34 1.772c-.045.092-.092.18-.138.269a4.841 4.841 0 00-.306.668l-.053.136q-.068.172-.13.345l-.129.447a5.227 5.227 0 00-.153.69l-.042.239c-.035.217-.05.424-.063.624l-.019.248c-.008.222 0 .43.006.632v.15a4.636 4.636 0 00.048.492c.009.072.02.142.026.21a3.9 3.9 0 00.112.626l.122.5c.059.21.122.38.173.519l.061.168.087.227a.328.328 0 00.306.212.34.34 0 00.059-.002z"/>
  </g>
</svg>
