<svg width="220" height="64" viewBox="0 0 220 64" fill="none" xmlns="http://www.w3.org/2000/svg">
<g clip-path="url(#clip0)">
<path d="M62.59 63.2H59.59V55.31H50.87V63.2H47.87V45.2H50.87V52.64H59.6V45.17H62.6L62.59 63.2ZM77.67 63.2H65.84V45.2H77.67V47.89H68.86V52.79H77.67V55.46H68.86V60.5H77.67V63.2ZM97.79 63.2H94.57L93 59.27H84.81L83.27 63.2H80.05L87.33 45.2H90.51L90.57 45.35L97.79 63.2ZM85.87 56.59H92L88.9 48.87L85.87 56.59ZM112 63.2H100.19V45.2H103.19V60.5H112V63.2ZM118 63.2H115V47.86H109.41V45.17H123.6V47.86H117.99L118 63.2ZM141 63.2H138V55.31H129.28V63.2H126.28V45.2H129.28V52.64H138V45.17H141V63.2Z" fill="#6D6E71"/>
<path d="M17.72 38.15L7.52 24.08V38.15H2V11.15H7.52V23.67L17.83 11.16H24.41L14.06 23.88L24.39 38.15H17.72ZM113.3 13C113.289 13.3686 113.353 13.7357 113.487 14.0793C113.621 14.4228 113.823 14.736 114.08 15C114.341 15.2617 114.654 15.4668 114.998 15.6027C115.342 15.7386 115.71 15.8024 116.08 15.79C116.455 15.8113 116.831 15.7538 117.182 15.6211C117.534 15.4885 117.853 15.2837 118.121 15.0199C118.389 14.7561 118.598 14.4392 118.736 14.0896C118.873 13.74 118.936 13.3654 118.92 12.99C118.932 12.6122 118.869 12.2357 118.735 11.8822C118.602 11.5287 118.399 11.2051 118.14 10.93C117.872 10.6586 117.551 10.4464 117.196 10.3069C116.841 10.1673 116.461 10.1037 116.08 10.12C115.709 10.1103 115.34 10.1772 114.996 10.3165C114.651 10.4559 114.34 10.6647 114.08 10.93C113.818 11.2053 113.614 11.5304 113.48 11.8859C113.346 12.2415 113.285 12.6203 113.3 13ZM159.92 17.87V20.4C159.138 19.4059 158.128 18.6145 156.976 18.0924C155.824 17.5702 154.563 17.3328 153.3 17.4C147.78 17.4 143.6 21.32 143.6 27.4C143.6 33.48 147.73 37.46 153.3 37.46C154.44 37.5114 155.578 37.3234 156.64 36.9084C157.703 36.4933 158.667 35.8602 159.47 35.05V36.15C159.47 39.42 157.18 40.93 154.07 40.93C151.638 40.8613 149.308 39.9371 147.49 38.32L144.59 42.16C147.292 44.6546 150.842 46.0275 154.52 46C160.62 46 164.99 42.73 164.99 35.9V17.9L159.92 17.87ZM159.55 27.36C159.55 31.08 157.02 32.84 154.44 32.84C153.733 32.8492 153.031 32.7131 152.378 32.4402C151.726 32.1674 151.136 31.7635 150.646 31.2535C150.156 30.7436 149.775 30.1385 149.528 29.4757C149.281 28.8129 149.173 28.1064 149.21 27.4C149.17 26.7004 149.277 26.0002 149.525 25.3448C149.773 24.6894 150.156 24.0935 150.65 23.5957C151.143 23.0978 151.735 22.7092 152.388 22.455C153.041 22.2007 153.74 22.0866 154.44 22.12C155.133 22.0788 155.827 22.1872 156.474 22.4378C157.122 22.6883 157.708 23.0753 158.192 23.5723C158.677 24.0694 159.049 24.6649 159.283 25.3184C159.518 25.9719 159.609 26.6682 159.55 27.36ZM141 25.6C141 20.73 138.13 17.46 133.39 17.46C132.299 17.4306 131.213 17.6178 130.196 18.0109C129.178 18.404 128.248 18.9951 127.46 19.75V17.91H122.39V38.15H127.91V26.33C127.88 25.8143 127.959 25.2981 128.14 24.8144C128.322 24.3308 128.602 23.8903 128.964 23.5213C129.325 23.1523 129.76 22.8629 130.239 22.6715C130.719 22.4801 131.234 22.3911 131.75 22.41C132.263 22.3917 132.774 22.4818 133.25 22.6743C133.725 22.8669 134.155 23.1576 134.511 23.5276C134.867 23.8975 135.14 24.3383 135.314 24.8212C135.488 25.3041 135.558 25.8182 135.52 26.33V38.15H141V25.6ZM118.89 17.92H113.37V38.16H118.89V17.92ZM110.75 17.92C110.168 17.739 109.56 17.6546 108.95 17.67C107.882 17.6597 106.825 17.8941 105.861 18.3551C104.898 18.8162 104.052 19.4917 103.39 20.33V17.91H98.31V38.15H103.83V28.05C103.83 24.41 106.08 22.77 109.27 22.77H110.74V17.91L110.75 17.92ZM94.74 35.47L92.06 31.84C88.93 35.17 82.06 34.48 81.13 29.84H95.48C97.35 18.53 85.4 13.68 78.56 20.5C77.0924 21.9772 76.091 23.853 75.6801 25.8944C75.2692 27.9358 75.4669 30.0529 76.2487 31.9829C77.0305 33.9129 78.362 35.5707 80.0777 36.7507C81.7935 37.9306 83.818 38.5806 85.9 38.62C87.5109 38.7496 89.131 38.5359 90.6531 37.9929C92.1753 37.4499 93.5649 36.59 94.73 35.47H94.74ZM90.5 26H81.08C81.2719 24.8665 81.8554 23.8363 82.7289 23.0889C83.6024 22.3415 84.7105 21.9243 85.86 21.91C87.0109 21.8646 88.1351 22.2642 88.9991 23.0258C89.8631 23.7874 90.4006 24.8525 90.5 26ZM71.28 33.69C68.74 33.69 67.51 32.88 67.51 30.55V22.55H73.24V17.91H67.51V10.11L62.51 14.3L61.98 14.75V17.91H53.37V10.1L47.84 14.74V17.91H44.65V22.57H47.84V31C47.84 36.19 50.95 38.6 55.94 38.6C57.2256 38.598 58.5058 38.4334 59.75 38.11V33.53C58.68 33.61 57.75 33.69 57.13 33.69C54.59 33.69 53.37 32.88 53.37 30.55V22.55H62V31C62 36.19 65.11 38.6 70.1 38.6C71.3823 38.5987 72.6593 38.434 73.9 38.11V33.53C72.83 33.61 71.93 33.69 71.28 33.69ZM42.28 35.47L39.6 31.84C36.47 35.17 29.6 34.48 28.66 29.84H43.07C44.94 18.56 33 13.71 26.15 20.53C24.6929 22.0081 23.7004 23.8803 23.2949 25.9159C22.8893 27.9514 23.0886 30.0611 23.868 31.9847C24.6475 33.9083 25.973 35.5616 27.6811 36.7408C29.3891 37.9199 31.405 38.5731 33.48 38.62C35.0923 38.7485 36.7136 38.5343 38.2372 37.9914C39.7608 37.4484 41.1523 36.5892 42.32 35.47H42.28ZM38.09 26H28.67C28.8619 24.8665 29.4454 23.8363 30.3189 23.0889C31.1924 22.3415 32.3005 21.9243 33.45 21.91C34.6009 21.8646 35.7251 22.2642 36.5891 23.0258C37.4531 23.7874 37.9906 24.8525 38.09 26Z" fill="#00778B"/>
<path d="M192.38 2.67001V35.32C192.381 38.7041 191.696 42.0533 190.367 45.1657C189.039 48.2781 187.094 51.0894 184.65 53.43L174.6 63.05C174.505 63.1395 174.387 63.1994 174.258 63.2224C174.13 63.2454 173.998 63.2305 173.878 63.1796C173.758 63.1287 173.656 63.0439 173.583 62.9356C173.511 62.8273 173.471 62.7003 173.47 62.57V26.33C173.47 24.0748 173.926 21.8429 174.811 19.7687C175.696 17.6944 176.992 15.8206 178.62 14.26L191.25 2.19001C191.345 2.10056 191.463 2.04066 191.592 2.01765C191.72 1.99463 191.852 2.0095 191.972 2.06044C192.092 2.11138 192.194 2.19616 192.267 2.30443C192.339 2.4127 192.379 2.53974 192.38 2.67001ZM212.55 63.05L216.13 59.61C218.389 57.4533 219.76 54.5294 219.973 51.4132C220.186 48.297 219.225 45.2138 217.28 42.77L203 24.72C202.94 24.6475 202.867 24.5879 202.783 24.5449C202.7 24.5019 202.609 24.4763 202.515 24.4697C202.421 24.4632 202.328 24.4758 202.239 24.5068C202.15 24.5378 202.069 24.5865 202 24.65L197.86 28.65C195.754 30.6652 194.477 33.3945 194.279 36.3027C194.081 39.2108 194.976 42.088 196.79 44.37L211.54 63C211.602 63.0714 211.678 63.1295 211.763 63.1709C211.847 63.2122 211.94 63.236 212.034 63.2407C212.129 63.2453 212.223 63.2308 212.312 63.1981C212.4 63.1653 212.481 63.1149 212.55 63.05Z" fill="#00B7BD"/>
</g>
<defs>
<clipPath id="clip0">
<rect width="220" height="64" fill="white"/>
</clipPath>
</defs>
</svg>
