<?xml version="1.0" standalone="no"?>
<!DOCTYPE svg PUBLIC "-//W3C//DTD SVG 20010904//EN"
 "http://www.w3.org/TR/2001/REC-SVG-20010904/DTD/svg10.dtd">
<svg version="1.0" xmlns="http://www.w3.org/2000/svg"
 width="730.000000pt" height="730.000000pt" viewBox="0 0 730.000000 730.000000"
 preserveAspectRatio="xMidYMid meet">
<metadata>
Created by potrace 1.14, written by Peter Selinger 2001-2017
</metadata>
<g transform="translate(0.000000,730.000000) scale(0.100000,-0.100000)"
fill="#000000" stroke="none">
<path d="M2315 6349 c-437 -41 -746 -170 -959 -401 -211 -227 -306 -528 -306
-969 l0 -179 -220 0 -220 0 0 -405 0 -405 220 0 220 0 0 -1535 0 -1535 495 0
495 0 0 1535 0 1535 340 0 340 0 0 405 0 405 -340 0 -340 0 0 118 c1 355 79
508 295 578 64 21 106 27 213 32 l132 5 0 413 0 414 -137 -1 c-76 -1 -178 -5
-228 -10z"/>
<path d="M2990 3510 l0 -2590 490 0 489 0 4 1163 c4 1260 1 1203 58 1377 125
378 447 582 880 556 458 -27 741 -318 789 -811 5 -58 10 -562 10 -1192 l0
-1093 490 0 491 0 -4 1252 c-3 1133 -5 1263 -21 1362 -64 404 -211 706 -453
937 -206 195 -471 320 -774 365 -159 23 -460 16 -612 -15 -306 -62 -578 -208
-775 -416 l-82 -86 0 890 0 891 -490 0 -490 0 0 -2590z"/>
</g>
</svg>
